<?xml version="1.0" encoding="utf-8" standalone="no"?>
<!DOCTYPE svg PUBLIC "-//W3C//DTD SVG 1.1//EN"
  "http://www.w3.org/Graphics/SVG/1.1/DTD/svg11.dtd">
<!-- Created with matplotlib (https://matplotlib.org/) -->
<svg height="345.6pt" version="1.1" viewBox="0 0 460.8 345.6" width="460.8pt" xmlns="http://www.w3.org/2000/svg" xmlns:xlink="http://www.w3.org/1999/xlink">
 <metadata>
  <rdf:RDF xmlns:cc="http://creativecommons.org/ns#" xmlns:dc="http://purl.org/dc/elements/1.1/" xmlns:rdf="http://www.w3.org/1999/02/22-rdf-syntax-ns#">
   <cc:Work>
    <dc:type rdf:resource="http://purl.org/dc/dcmitype/StillImage"/>
    <dc:date>2021-03-25T09:35:58.513980</dc:date>
    <dc:format>image/svg+xml</dc:format>
    <dc:creator>
     <cc:Agent>
      <dc:title>Matplotlib v3.3.3, https://matplotlib.org/</dc:title>
     </cc:Agent>
    </dc:creator>
   </cc:Work>
  </rdf:RDF>
 </metadata>
 <defs>
  <style type="text/css">*{stroke-linecap:butt;stroke-linejoin:round;}</style>
 </defs>
 <g id="figure_1">
  <g id="patch_1">
   <path d="M 0 345.6 
L 460.8 345.6 
L 460.8 0 
L 0 0 
z
" style="fill:#ffffff;"/>
  </g>
  <g id="axes_1">
   <g id="patch_2">
    <path d="M 57.6 298.944 
L 338.688 298.944 
L 338.688 3.456 
L 57.6 3.456 
z
" style="fill:#ffffff;"/>
   </g>
   <g id="matplotlib.axis_1">
    <g id="xtick_1">
     <g id="line2d_1">
      <path clip-path="url(#p5ea5f1af11)" d="M 57.6 298.944 
L 57.6 3.456 
" style="fill:none;stroke:#b0b0b0;stroke-linecap:square;stroke-width:0.8;"/>
     </g>
     <g id="line2d_2">
      <defs>
       <path d="M 0 0 
L 0 3.5 
" id="m8fd397c19e" style="stroke:#000000;stroke-width:0.8;"/>
      </defs>
      <g>
       <use style="stroke:#000000;stroke-width:0.8;" x="57.6" xlink:href="#m8fd397c19e" y="298.944"/>
      </g>
     </g>
     <g id="text_1">
      <!-- 0 -->
      <g transform="translate(51.2375 321.140875)scale(0.2 -0.2)">
       <defs>
        <path d="M 31.78125 66.40625 
Q 24.171875 66.40625 20.328125 58.90625 
Q 16.5 51.421875 16.5 36.375 
Q 16.5 21.390625 20.328125 13.890625 
Q 24.171875 6.390625 31.78125 6.390625 
Q 39.453125 6.390625 43.28125 13.890625 
Q 47.125 21.390625 47.125 36.375 
Q 47.125 51.421875 43.28125 58.90625 
Q 39.453125 66.40625 31.78125 66.40625 
z
M 31.78125 74.21875 
Q 44.046875 74.21875 50.515625 64.515625 
Q 56.984375 54.828125 56.984375 36.375 
Q 56.984375 17.96875 50.515625 8.265625 
Q 44.046875 -1.421875 31.78125 -1.421875 
Q 19.53125 -1.421875 13.0625 8.265625 
Q 6.59375 17.96875 6.59375 36.375 
Q 6.59375 54.828125 13.0625 64.515625 
Q 19.53125 74.21875 31.78125 74.21875 
z
" id="DejaVuSans-48"/>
       </defs>
       <use xlink:href="#DejaVuSans-48"/>
      </g>
     </g>
    </g>
    <g id="xtick_2">
     <g id="line2d_3">
      <path clip-path="url(#p5ea5f1af11)" d="M 137.910857 298.944 
L 137.910857 3.456 
" style="fill:none;stroke:#b0b0b0;stroke-linecap:square;stroke-width:0.8;"/>
     </g>
     <g id="line2d_4">
      <g>
       <use style="stroke:#000000;stroke-width:0.8;" x="137.910857" xlink:href="#m8fd397c19e" y="298.944"/>
      </g>
     </g>
     <g id="text_2">
      <!-- 2 -->
      <g transform="translate(131.548357 321.140875)scale(0.2 -0.2)">
       <defs>
        <path d="M 19.1875 8.296875 
L 53.609375 8.296875 
L 53.609375 0 
L 7.328125 0 
L 7.328125 8.296875 
Q 12.9375 14.109375 22.625 23.890625 
Q 32.328125 33.6875 34.8125 36.53125 
Q 39.546875 41.84375 41.421875 45.53125 
Q 43.3125 49.21875 43.3125 52.78125 
Q 43.3125 58.59375 39.234375 62.25 
Q 35.15625 65.921875 28.609375 65.921875 
Q 23.96875 65.921875 18.8125 64.3125 
Q 13.671875 62.703125 7.8125 59.421875 
L 7.8125 69.390625 
Q 13.765625 71.78125 18.9375 73 
Q 24.125 74.21875 28.421875 74.21875 
Q 39.75 74.21875 46.484375 68.546875 
Q 53.21875 62.890625 53.21875 53.421875 
Q 53.21875 48.921875 51.53125 44.890625 
Q 49.859375 40.875 45.40625 35.40625 
Q 44.1875 33.984375 37.640625 27.21875 
Q 31.109375 20.453125 19.1875 8.296875 
z
" id="DejaVuSans-50"/>
       </defs>
       <use xlink:href="#DejaVuSans-50"/>
      </g>
     </g>
    </g>
    <g id="xtick_3">
     <g id="line2d_5">
      <path clip-path="url(#p5ea5f1af11)" d="M 218.221714 298.944 
L 218.221714 3.456 
" style="fill:none;stroke:#b0b0b0;stroke-linecap:square;stroke-width:0.8;"/>
     </g>
     <g id="line2d_6">
      <g>
       <use style="stroke:#000000;stroke-width:0.8;" x="218.221714" xlink:href="#m8fd397c19e" y="298.944"/>
      </g>
     </g>
     <g id="text_3">
      <!-- 4 -->
      <g transform="translate(211.859214 321.140875)scale(0.2 -0.2)">
       <defs>
        <path d="M 37.796875 64.3125 
L 12.890625 25.390625 
L 37.796875 25.390625 
z
M 35.203125 72.90625 
L 47.609375 72.90625 
L 47.609375 25.390625 
L 58.015625 25.390625 
L 58.015625 17.1875 
L 47.609375 17.1875 
L 47.609375 0 
L 37.796875 0 
L 37.796875 17.1875 
L 4.890625 17.1875 
L 4.890625 26.703125 
z
" id="DejaVuSans-52"/>
       </defs>
       <use xlink:href="#DejaVuSans-52"/>
      </g>
     </g>
    </g>
    <g id="xtick_4">
     <g id="line2d_7">
      <path clip-path="url(#p5ea5f1af11)" d="M 298.532571 298.944 
L 298.532571 3.456 
" style="fill:none;stroke:#b0b0b0;stroke-linecap:square;stroke-width:0.8;"/>
     </g>
     <g id="line2d_8">
      <g>
       <use style="stroke:#000000;stroke-width:0.8;" x="298.532571" xlink:href="#m8fd397c19e" y="298.944"/>
      </g>
     </g>
     <g id="text_4">
      <!-- 6 -->
      <g transform="translate(292.170071 321.140875)scale(0.2 -0.2)">
       <defs>
        <path d="M 33.015625 40.375 
Q 26.375 40.375 22.484375 35.828125 
Q 18.609375 31.296875 18.609375 23.390625 
Q 18.609375 15.53125 22.484375 10.953125 
Q 26.375 6.390625 33.015625 6.390625 
Q 39.65625 6.390625 43.53125 10.953125 
Q 47.40625 15.53125 47.40625 23.390625 
Q 47.40625 31.296875 43.53125 35.828125 
Q 39.65625 40.375 33.015625 40.375 
z
M 52.59375 71.296875 
L 52.59375 62.3125 
Q 48.875 64.0625 45.09375 64.984375 
Q 41.3125 65.921875 37.59375 65.921875 
Q 27.828125 65.921875 22.671875 59.328125 
Q 17.53125 52.734375 16.796875 39.40625 
Q 19.671875 43.65625 24.015625 45.921875 
Q 28.375 48.1875 33.59375 48.1875 
Q 44.578125 48.1875 50.953125 41.515625 
Q 57.328125 34.859375 57.328125 23.390625 
Q 57.328125 12.15625 50.6875 5.359375 
Q 44.046875 -1.421875 33.015625 -1.421875 
Q 20.359375 -1.421875 13.671875 8.265625 
Q 6.984375 17.96875 6.984375 36.375 
Q 6.984375 53.65625 15.1875 63.9375 
Q 23.390625 74.21875 37.203125 74.21875 
Q 40.921875 74.21875 44.703125 73.484375 
Q 48.484375 72.75 52.59375 71.296875 
z
" id="DejaVuSans-54"/>
       </defs>
       <use xlink:href="#DejaVuSans-54"/>
      </g>
     </g>
    </g>
    <g id="xtick_5">
     <g id="line2d_9">
      <path clip-path="url(#p5ea5f1af11)" d="M 97.755429 298.944 
L 97.755429 3.456 
" style="fill:none;stroke:#b0b0b0;stroke-linecap:square;stroke-width:0.8;"/>
     </g>
     <g id="line2d_10">
      <defs>
       <path d="M 0 0 
L 0 2 
" id="m12ace28d89" style="stroke:#000000;stroke-width:0.6;"/>
      </defs>
      <g>
       <use style="stroke:#000000;stroke-width:0.6;" x="97.755429" xlink:href="#m12ace28d89" y="298.944"/>
      </g>
     </g>
    </g>
    <g id="xtick_6">
     <g id="line2d_11">
      <path clip-path="url(#p5ea5f1af11)" d="M 178.066286 298.944 
L 178.066286 3.456 
" style="fill:none;stroke:#b0b0b0;stroke-linecap:square;stroke-width:0.8;"/>
     </g>
     <g id="line2d_12">
      <g>
       <use style="stroke:#000000;stroke-width:0.6;" x="178.066286" xlink:href="#m12ace28d89" y="298.944"/>
      </g>
     </g>
    </g>
    <g id="xtick_7">
     <g id="line2d_13">
      <path clip-path="url(#p5ea5f1af11)" d="M 258.377143 298.944 
L 258.377143 3.456 
" style="fill:none;stroke:#b0b0b0;stroke-linecap:square;stroke-width:0.8;"/>
     </g>
     <g id="line2d_14">
      <g>
       <use style="stroke:#000000;stroke-width:0.6;" x="258.377143" xlink:href="#m12ace28d89" y="298.944"/>
      </g>
     </g>
    </g>
    <g id="xtick_8">
     <g id="line2d_15">
      <path clip-path="url(#p5ea5f1af11)" d="M 338.688 298.944 
L 338.688 3.456 
" style="fill:none;stroke:#b0b0b0;stroke-linecap:square;stroke-width:0.8;"/>
     </g>
     <g id="line2d_16">
      <g>
       <use style="stroke:#000000;stroke-width:0.6;" x="338.688" xlink:href="#m12ace28d89" y="298.944"/>
      </g>
     </g>
    </g>
    <g id="text_5">
     <!-- log10(# (f+g)-evals / dimension) -->
     <g transform="translate(58.145016 342.217594)scale(0.17 -0.17)">
      <defs>
       <path d="M 9.421875 75.984375 
L 18.40625 75.984375 
L 18.40625 0 
L 9.421875 0 
z
" id="DejaVuSans-108"/>
       <path d="M 30.609375 48.390625 
Q 23.390625 48.390625 19.1875 42.75 
Q 14.984375 37.109375 14.984375 27.296875 
Q 14.984375 17.484375 19.15625 11.84375 
Q 23.34375 6.203125 30.609375 6.203125 
Q 37.796875 6.203125 41.984375 11.859375 
Q 46.1875 17.53125 46.1875 27.296875 
Q 46.1875 37.015625 41.984375 42.703125 
Q 37.796875 48.390625 30.609375 48.390625 
z
M 30.609375 56 
Q 42.328125 56 49.015625 48.375 
Q 55.71875 40.765625 55.71875 27.296875 
Q 55.71875 13.875 49.015625 6.21875 
Q 42.328125 -1.421875 30.609375 -1.421875 
Q 18.84375 -1.421875 12.171875 6.21875 
Q 5.515625 13.875 5.515625 27.296875 
Q 5.515625 40.765625 12.171875 48.375 
Q 18.84375 56 30.609375 56 
z
" id="DejaVuSans-111"/>
       <path d="M 45.40625 27.984375 
Q 45.40625 37.75 41.375 43.109375 
Q 37.359375 48.484375 30.078125 48.484375 
Q 22.859375 48.484375 18.828125 43.109375 
Q 14.796875 37.75 14.796875 27.984375 
Q 14.796875 18.265625 18.828125 12.890625 
Q 22.859375 7.515625 30.078125 7.515625 
Q 37.359375 7.515625 41.375 12.890625 
Q 45.40625 18.265625 45.40625 27.984375 
z
M 54.390625 6.78125 
Q 54.390625 -7.171875 48.1875 -13.984375 
Q 42 -20.796875 29.203125 -20.796875 
Q 24.46875 -20.796875 20.265625 -20.09375 
Q 16.0625 -19.390625 12.109375 -17.921875 
L 12.109375 -9.1875 
Q 16.0625 -11.328125 19.921875 -12.34375 
Q 23.78125 -13.375 27.78125 -13.375 
Q 36.625 -13.375 41.015625 -8.765625 
Q 45.40625 -4.15625 45.40625 5.171875 
L 45.40625 9.625 
Q 42.625 4.78125 38.28125 2.390625 
Q 33.9375 0 27.875 0 
Q 17.828125 0 11.671875 7.65625 
Q 5.515625 15.328125 5.515625 27.984375 
Q 5.515625 40.671875 11.671875 48.328125 
Q 17.828125 56 27.875 56 
Q 33.9375 56 38.28125 53.609375 
Q 42.625 51.21875 45.40625 46.390625 
L 45.40625 54.6875 
L 54.390625 54.6875 
z
" id="DejaVuSans-103"/>
       <path d="M 12.40625 8.296875 
L 28.515625 8.296875 
L 28.515625 63.921875 
L 10.984375 60.40625 
L 10.984375 69.390625 
L 28.421875 72.90625 
L 38.28125 72.90625 
L 38.28125 8.296875 
L 54.390625 8.296875 
L 54.390625 0 
L 12.40625 0 
z
" id="DejaVuSans-49"/>
       <path d="M 31 75.875 
Q 24.46875 64.65625 21.28125 53.65625 
Q 18.109375 42.671875 18.109375 31.390625 
Q 18.109375 20.125 21.3125 9.0625 
Q 24.515625 -2 31 -13.1875 
L 23.1875 -13.1875 
Q 15.875 -1.703125 12.234375 9.375 
Q 8.59375 20.453125 8.59375 31.390625 
Q 8.59375 42.28125 12.203125 53.3125 
Q 15.828125 64.359375 23.1875 75.875 
z
" id="DejaVuSans-40"/>
       <path d="M 51.125 44 
L 36.921875 44 
L 32.8125 27.6875 
L 47.125 27.6875 
z
M 43.796875 71.78125 
L 38.71875 51.515625 
L 52.984375 51.515625 
L 58.109375 71.78125 
L 65.921875 71.78125 
L 60.890625 51.515625 
L 76.125 51.515625 
L 76.125 44 
L 58.984375 44 
L 54.984375 27.6875 
L 70.515625 27.6875 
L 70.515625 20.21875 
L 53.078125 20.21875 
L 48 0 
L 40.1875 0 
L 45.21875 20.21875 
L 30.90625 20.21875 
L 25.875 0 
L 18.015625 0 
L 23.09375 20.21875 
L 7.71875 20.21875 
L 7.71875 27.6875 
L 24.90625 27.6875 
L 29 44 
L 13.28125 44 
L 13.28125 51.515625 
L 30.90625 51.515625 
L 35.890625 71.78125 
z
" id="DejaVuSans-35"/>
       <path id="DejaVuSans-32"/>
       <path d="M 37.109375 75.984375 
L 37.109375 68.5 
L 28.515625 68.5 
Q 23.6875 68.5 21.796875 66.546875 
Q 19.921875 64.59375 19.921875 59.515625 
L 19.921875 54.6875 
L 34.71875 54.6875 
L 34.71875 47.703125 
L 19.921875 47.703125 
L 19.921875 0 
L 10.890625 0 
L 10.890625 47.703125 
L 2.296875 47.703125 
L 2.296875 54.6875 
L 10.890625 54.6875 
L 10.890625 58.5 
Q 10.890625 67.625 15.140625 71.796875 
Q 19.390625 75.984375 28.609375 75.984375 
z
" id="DejaVuSans-102"/>
       <path d="M 46 62.703125 
L 46 35.5 
L 73.1875 35.5 
L 73.1875 27.203125 
L 46 27.203125 
L 46 0 
L 37.796875 0 
L 37.796875 27.203125 
L 10.59375 27.203125 
L 10.59375 35.5 
L 37.796875 35.5 
L 37.796875 62.703125 
z
" id="DejaVuSans-43"/>
       <path d="M 8.015625 75.875 
L 15.828125 75.875 
Q 23.140625 64.359375 26.78125 53.3125 
Q 30.421875 42.28125 30.421875 31.390625 
Q 30.421875 20.453125 26.78125 9.375 
Q 23.140625 -1.703125 15.828125 -13.1875 
L 8.015625 -13.1875 
Q 14.5 -2 17.703125 9.0625 
Q 20.90625 20.125 20.90625 31.390625 
Q 20.90625 42.671875 17.703125 53.65625 
Q 14.5 64.65625 8.015625 75.875 
z
" id="DejaVuSans-41"/>
       <path d="M 4.890625 31.390625 
L 31.203125 31.390625 
L 31.203125 23.390625 
L 4.890625 23.390625 
z
" id="DejaVuSans-45"/>
       <path d="M 56.203125 29.59375 
L 56.203125 25.203125 
L 14.890625 25.203125 
Q 15.484375 15.921875 20.484375 11.0625 
Q 25.484375 6.203125 34.421875 6.203125 
Q 39.59375 6.203125 44.453125 7.46875 
Q 49.3125 8.734375 54.109375 11.28125 
L 54.109375 2.78125 
Q 49.265625 0.734375 44.1875 -0.34375 
Q 39.109375 -1.421875 33.890625 -1.421875 
Q 20.796875 -1.421875 13.15625 6.1875 
Q 5.515625 13.8125 5.515625 26.8125 
Q 5.515625 40.234375 12.765625 48.109375 
Q 20.015625 56 32.328125 56 
Q 43.359375 56 49.78125 48.890625 
Q 56.203125 41.796875 56.203125 29.59375 
z
M 47.21875 32.234375 
Q 47.125 39.59375 43.09375 43.984375 
Q 39.0625 48.390625 32.421875 48.390625 
Q 24.90625 48.390625 20.390625 44.140625 
Q 15.875 39.890625 15.1875 32.171875 
z
" id="DejaVuSans-101"/>
       <path d="M 2.984375 54.6875 
L 12.5 54.6875 
L 29.59375 8.796875 
L 46.6875 54.6875 
L 56.203125 54.6875 
L 35.6875 0 
L 23.484375 0 
z
" id="DejaVuSans-118"/>
       <path d="M 34.28125 27.484375 
Q 23.390625 27.484375 19.1875 25 
Q 14.984375 22.515625 14.984375 16.5 
Q 14.984375 11.71875 18.140625 8.90625 
Q 21.296875 6.109375 26.703125 6.109375 
Q 34.1875 6.109375 38.703125 11.40625 
Q 43.21875 16.703125 43.21875 25.484375 
L 43.21875 27.484375 
z
M 52.203125 31.203125 
L 52.203125 0 
L 43.21875 0 
L 43.21875 8.296875 
Q 40.140625 3.328125 35.546875 0.953125 
Q 30.953125 -1.421875 24.3125 -1.421875 
Q 15.921875 -1.421875 10.953125 3.296875 
Q 6 8.015625 6 15.921875 
Q 6 25.140625 12.171875 29.828125 
Q 18.359375 34.515625 30.609375 34.515625 
L 43.21875 34.515625 
L 43.21875 35.40625 
Q 43.21875 41.609375 39.140625 45 
Q 35.0625 48.390625 27.6875 48.390625 
Q 23 48.390625 18.546875 47.265625 
Q 14.109375 46.140625 10.015625 43.890625 
L 10.015625 52.203125 
Q 14.9375 54.109375 19.578125 55.046875 
Q 24.21875 56 28.609375 56 
Q 40.484375 56 46.34375 49.84375 
Q 52.203125 43.703125 52.203125 31.203125 
z
" id="DejaVuSans-97"/>
       <path d="M 44.28125 53.078125 
L 44.28125 44.578125 
Q 40.484375 46.53125 36.375 47.5 
Q 32.28125 48.484375 27.875 48.484375 
Q 21.1875 48.484375 17.84375 46.4375 
Q 14.5 44.390625 14.5 40.28125 
Q 14.5 37.15625 16.890625 35.375 
Q 19.28125 33.59375 26.515625 31.984375 
L 29.59375 31.296875 
Q 39.15625 29.25 43.1875 25.515625 
Q 47.21875 21.78125 47.21875 15.09375 
Q 47.21875 7.46875 41.1875 3.015625 
Q 35.15625 -1.421875 24.609375 -1.421875 
Q 20.21875 -1.421875 15.453125 -0.5625 
Q 10.6875 0.296875 5.421875 2 
L 5.421875 11.28125 
Q 10.40625 8.6875 15.234375 7.390625 
Q 20.0625 6.109375 24.8125 6.109375 
Q 31.15625 6.109375 34.5625 8.28125 
Q 37.984375 10.453125 37.984375 14.40625 
Q 37.984375 18.0625 35.515625 20.015625 
Q 33.0625 21.96875 24.703125 23.78125 
L 21.578125 24.515625 
Q 13.234375 26.265625 9.515625 29.90625 
Q 5.8125 33.546875 5.8125 39.890625 
Q 5.8125 47.609375 11.28125 51.796875 
Q 16.75 56 26.8125 56 
Q 31.78125 56 36.171875 55.265625 
Q 40.578125 54.546875 44.28125 53.078125 
z
" id="DejaVuSans-115"/>
       <path d="M 25.390625 72.90625 
L 33.6875 72.90625 
L 8.296875 -9.28125 
L 0 -9.28125 
z
" id="DejaVuSans-47"/>
       <path d="M 45.40625 46.390625 
L 45.40625 75.984375 
L 54.390625 75.984375 
L 54.390625 0 
L 45.40625 0 
L 45.40625 8.203125 
Q 42.578125 3.328125 38.25 0.953125 
Q 33.9375 -1.421875 27.875 -1.421875 
Q 17.96875 -1.421875 11.734375 6.484375 
Q 5.515625 14.40625 5.515625 27.296875 
Q 5.515625 40.1875 11.734375 48.09375 
Q 17.96875 56 27.875 56 
Q 33.9375 56 38.25 53.625 
Q 42.578125 51.265625 45.40625 46.390625 
z
M 14.796875 27.296875 
Q 14.796875 17.390625 18.875 11.75 
Q 22.953125 6.109375 30.078125 6.109375 
Q 37.203125 6.109375 41.296875 11.75 
Q 45.40625 17.390625 45.40625 27.296875 
Q 45.40625 37.203125 41.296875 42.84375 
Q 37.203125 48.484375 30.078125 48.484375 
Q 22.953125 48.484375 18.875 42.84375 
Q 14.796875 37.203125 14.796875 27.296875 
z
" id="DejaVuSans-100"/>
       <path d="M 9.421875 54.6875 
L 18.40625 54.6875 
L 18.40625 0 
L 9.421875 0 
z
M 9.421875 75.984375 
L 18.40625 75.984375 
L 18.40625 64.59375 
L 9.421875 64.59375 
z
" id="DejaVuSans-105"/>
       <path d="M 52 44.1875 
Q 55.375 50.25 60.0625 53.125 
Q 64.75 56 71.09375 56 
Q 79.640625 56 84.28125 50.015625 
Q 88.921875 44.046875 88.921875 33.015625 
L 88.921875 0 
L 79.890625 0 
L 79.890625 32.71875 
Q 79.890625 40.578125 77.09375 44.375 
Q 74.3125 48.1875 68.609375 48.1875 
Q 61.625 48.1875 57.5625 43.546875 
Q 53.515625 38.921875 53.515625 30.90625 
L 53.515625 0 
L 44.484375 0 
L 44.484375 32.71875 
Q 44.484375 40.625 41.703125 44.40625 
Q 38.921875 48.1875 33.109375 48.1875 
Q 26.21875 48.1875 22.15625 43.53125 
Q 18.109375 38.875 18.109375 30.90625 
L 18.109375 0 
L 9.078125 0 
L 9.078125 54.6875 
L 18.109375 54.6875 
L 18.109375 46.1875 
Q 21.1875 51.21875 25.484375 53.609375 
Q 29.78125 56 35.6875 56 
Q 41.65625 56 45.828125 52.96875 
Q 50 49.953125 52 44.1875 
z
" id="DejaVuSans-109"/>
       <path d="M 54.890625 33.015625 
L 54.890625 0 
L 45.90625 0 
L 45.90625 32.71875 
Q 45.90625 40.484375 42.875 44.328125 
Q 39.84375 48.1875 33.796875 48.1875 
Q 26.515625 48.1875 22.3125 43.546875 
Q 18.109375 38.921875 18.109375 30.90625 
L 18.109375 0 
L 9.078125 0 
L 9.078125 54.6875 
L 18.109375 54.6875 
L 18.109375 46.1875 
Q 21.34375 51.125 25.703125 53.5625 
Q 30.078125 56 35.796875 56 
Q 45.21875 56 50.046875 50.171875 
Q 54.890625 44.34375 54.890625 33.015625 
z
" id="DejaVuSans-110"/>
      </defs>
      <use xlink:href="#DejaVuSans-108"/>
      <use x="27.783203" xlink:href="#DejaVuSans-111"/>
      <use x="88.964844" xlink:href="#DejaVuSans-103"/>
      <use x="152.441406" xlink:href="#DejaVuSans-49"/>
      <use x="216.064453" xlink:href="#DejaVuSans-48"/>
      <use x="279.6875" xlink:href="#DejaVuSans-40"/>
      <use x="318.701172" xlink:href="#DejaVuSans-35"/>
      <use x="402.490234" xlink:href="#DejaVuSans-32"/>
      <use x="434.277344" xlink:href="#DejaVuSans-40"/>
      <use x="473.291016" xlink:href="#DejaVuSans-102"/>
      <use x="508.496094" xlink:href="#DejaVuSans-43"/>
      <use x="592.285156" xlink:href="#DejaVuSans-103"/>
      <use x="655.761719" xlink:href="#DejaVuSans-41"/>
      <use x="694.775391" xlink:href="#DejaVuSans-45"/>
      <use x="730.859375" xlink:href="#DejaVuSans-101"/>
      <use x="792.382812" xlink:href="#DejaVuSans-118"/>
      <use x="851.5625" xlink:href="#DejaVuSans-97"/>
      <use x="912.841797" xlink:href="#DejaVuSans-108"/>
      <use x="940.625" xlink:href="#DejaVuSans-115"/>
      <use x="992.724609" xlink:href="#DejaVuSans-32"/>
      <use x="1024.511719" xlink:href="#DejaVuSans-47"/>
      <use x="1058.203125" xlink:href="#DejaVuSans-32"/>
      <use x="1089.990234" xlink:href="#DejaVuSans-100"/>
      <use x="1153.466797" xlink:href="#DejaVuSans-105"/>
      <use x="1181.25" xlink:href="#DejaVuSans-109"/>
      <use x="1278.662109" xlink:href="#DejaVuSans-101"/>
      <use x="1340.185547" xlink:href="#DejaVuSans-110"/>
      <use x="1403.564453" xlink:href="#DejaVuSans-115"/>
      <use x="1455.664062" xlink:href="#DejaVuSans-105"/>
      <use x="1483.447266" xlink:href="#DejaVuSans-111"/>
      <use x="1544.628906" xlink:href="#DejaVuSans-110"/>
      <use x="1608.007812" xlink:href="#DejaVuSans-41"/>
     </g>
    </g>
   </g>
   <g id="matplotlib.axis_2">
    <g id="ytick_1">
     <g id="line2d_17">
      <path clip-path="url(#p5ea5f1af11)" d="M 57.6 298.944 
L 338.688 298.944 
" style="fill:none;stroke:#b0b0b0;stroke-linecap:square;stroke-width:0.8;"/>
     </g>
     <g id="line2d_18">
      <defs>
       <path d="M 0 0 
L -3.5 0 
" id="m98ad809779" style="stroke:#000000;stroke-width:0.8;"/>
      </defs>
      <g>
       <use style="stroke:#000000;stroke-width:0.8;" x="57.6" xlink:href="#m98ad809779" y="298.944"/>
      </g>
     </g>
     <g id="text_6">
      <!-- 0.0 -->
      <g transform="translate(25.155 305.02275)scale(0.16 -0.16)">
       <defs>
        <path d="M 10.6875 12.40625 
L 21 12.40625 
L 21 0 
L 10.6875 0 
z
" id="DejaVuSans-46"/>
       </defs>
       <use xlink:href="#DejaVuSans-48"/>
       <use x="63.623047" xlink:href="#DejaVuSans-46"/>
       <use x="95.410156" xlink:href="#DejaVuSans-48"/>
      </g>
     </g>
    </g>
    <g id="ytick_2">
     <g id="line2d_19">
      <path clip-path="url(#p5ea5f1af11)" d="M 57.6 240.431525 
L 338.688 240.431525 
" style="fill:none;stroke:#b0b0b0;stroke-linecap:square;stroke-width:0.8;"/>
     </g>
     <g id="line2d_20">
      <g>
       <use style="stroke:#000000;stroke-width:0.8;" x="57.6" xlink:href="#m98ad809779" y="240.431525"/>
      </g>
     </g>
     <g id="text_7">
      <!-- 0.2 -->
      <g transform="translate(25.155 246.510275)scale(0.16 -0.16)">
       <use xlink:href="#DejaVuSans-48"/>
       <use x="63.623047" xlink:href="#DejaVuSans-46"/>
       <use x="95.410156" xlink:href="#DejaVuSans-50"/>
      </g>
     </g>
    </g>
    <g id="ytick_3">
     <g id="line2d_21">
      <path clip-path="url(#p5ea5f1af11)" d="M 57.6 181.91905 
L 338.688 181.91905 
" style="fill:none;stroke:#b0b0b0;stroke-linecap:square;stroke-width:0.8;"/>
     </g>
     <g id="line2d_22">
      <g>
       <use style="stroke:#000000;stroke-width:0.8;" x="57.6" xlink:href="#m98ad809779" y="181.91905"/>
      </g>
     </g>
     <g id="text_8">
      <!-- 0.4 -->
      <g transform="translate(25.155 187.9978)scale(0.16 -0.16)">
       <use xlink:href="#DejaVuSans-48"/>
       <use x="63.623047" xlink:href="#DejaVuSans-46"/>
       <use x="95.410156" xlink:href="#DejaVuSans-52"/>
      </g>
     </g>
    </g>
    <g id="ytick_4">
     <g id="line2d_23">
      <path clip-path="url(#p5ea5f1af11)" d="M 57.6 123.406574 
L 338.688 123.406574 
" style="fill:none;stroke:#b0b0b0;stroke-linecap:square;stroke-width:0.8;"/>
     </g>
     <g id="line2d_24">
      <g>
       <use style="stroke:#000000;stroke-width:0.8;" x="57.6" xlink:href="#m98ad809779" y="123.406574"/>
      </g>
     </g>
     <g id="text_9">
      <!-- 0.6 -->
      <g transform="translate(25.155 129.485324)scale(0.16 -0.16)">
       <use xlink:href="#DejaVuSans-48"/>
       <use x="63.623047" xlink:href="#DejaVuSans-46"/>
       <use x="95.410156" xlink:href="#DejaVuSans-54"/>
      </g>
     </g>
    </g>
    <g id="ytick_5">
     <g id="line2d_25">
      <path clip-path="url(#p5ea5f1af11)" d="M 57.6 64.894099 
L 338.688 64.894099 
" style="fill:none;stroke:#b0b0b0;stroke-linecap:square;stroke-width:0.8;"/>
     </g>
     <g id="line2d_26">
      <g>
       <use style="stroke:#000000;stroke-width:0.8;" x="57.6" xlink:href="#m98ad809779" y="64.894099"/>
      </g>
     </g>
     <g id="text_10">
      <!-- 0.8 -->
      <g transform="translate(25.155 70.972849)scale(0.16 -0.16)">
       <defs>
        <path d="M 31.78125 34.625 
Q 24.75 34.625 20.71875 30.859375 
Q 16.703125 27.09375 16.703125 20.515625 
Q 16.703125 13.921875 20.71875 10.15625 
Q 24.75 6.390625 31.78125 6.390625 
Q 38.8125 6.390625 42.859375 10.171875 
Q 46.921875 13.96875 46.921875 20.515625 
Q 46.921875 27.09375 42.890625 30.859375 
Q 38.875 34.625 31.78125 34.625 
z
M 21.921875 38.8125 
Q 15.578125 40.375 12.03125 44.71875 
Q 8.5 49.078125 8.5 55.328125 
Q 8.5 64.0625 14.71875 69.140625 
Q 20.953125 74.21875 31.78125 74.21875 
Q 42.671875 74.21875 48.875 69.140625 
Q 55.078125 64.0625 55.078125 55.328125 
Q 55.078125 49.078125 51.53125 44.71875 
Q 48 40.375 41.703125 38.8125 
Q 48.828125 37.15625 52.796875 32.3125 
Q 56.78125 27.484375 56.78125 20.515625 
Q 56.78125 9.90625 50.3125 4.234375 
Q 43.84375 -1.421875 31.78125 -1.421875 
Q 19.734375 -1.421875 13.25 4.234375 
Q 6.78125 9.90625 6.78125 20.515625 
Q 6.78125 27.484375 10.78125 32.3125 
Q 14.796875 37.15625 21.921875 38.8125 
z
M 18.3125 54.390625 
Q 18.3125 48.734375 21.84375 45.5625 
Q 25.390625 42.390625 31.78125 42.390625 
Q 38.140625 42.390625 41.71875 45.5625 
Q 45.3125 48.734375 45.3125 54.390625 
Q 45.3125 60.0625 41.71875 63.234375 
Q 38.140625 66.40625 31.78125 66.40625 
Q 25.390625 66.40625 21.84375 63.234375 
Q 18.3125 60.0625 18.3125 54.390625 
z
" id="DejaVuSans-56"/>
       </defs>
       <use xlink:href="#DejaVuSans-48"/>
       <use x="63.623047" xlink:href="#DejaVuSans-46"/>
       <use x="95.410156" xlink:href="#DejaVuSans-56"/>
      </g>
     </g>
    </g>
    <g id="ytick_6">
     <g id="line2d_27">
      <path clip-path="url(#p5ea5f1af11)" d="M 57.6 6.381624 
L 338.688 6.381624 
" style="fill:none;stroke:#b0b0b0;stroke-linecap:square;stroke-width:0.8;"/>
     </g>
     <g id="line2d_28">
      <g>
       <use style="stroke:#000000;stroke-width:0.8;" x="57.6" xlink:href="#m98ad809779" y="6.381624"/>
      </g>
     </g>
     <g id="text_11">
      <!-- 1.0 -->
      <g transform="translate(25.155 12.460374)scale(0.16 -0.16)">
       <use xlink:href="#DejaVuSans-49"/>
       <use x="63.623047" xlink:href="#DejaVuSans-46"/>
       <use x="95.410156" xlink:href="#DejaVuSans-48"/>
      </g>
     </g>
    </g>
    <g id="text_12">
     <!-- Fraction of function,target pairs -->
     <g transform="translate(17.619531 285.585)rotate(-90)scale(0.17 -0.17)">
      <defs>
       <path d="M 9.8125 72.90625 
L 51.703125 72.90625 
L 51.703125 64.59375 
L 19.671875 64.59375 
L 19.671875 43.109375 
L 48.578125 43.109375 
L 48.578125 34.8125 
L 19.671875 34.8125 
L 19.671875 0 
L 9.8125 0 
z
" id="DejaVuSans-70"/>
       <path d="M 41.109375 46.296875 
Q 39.59375 47.171875 37.8125 47.578125 
Q 36.03125 48 33.890625 48 
Q 26.265625 48 22.1875 43.046875 
Q 18.109375 38.09375 18.109375 28.8125 
L 18.109375 0 
L 9.078125 0 
L 9.078125 54.6875 
L 18.109375 54.6875 
L 18.109375 46.1875 
Q 20.953125 51.171875 25.484375 53.578125 
Q 30.03125 56 36.53125 56 
Q 37.453125 56 38.578125 55.875 
Q 39.703125 55.765625 41.0625 55.515625 
z
" id="DejaVuSans-114"/>
       <path d="M 48.78125 52.59375 
L 48.78125 44.1875 
Q 44.96875 46.296875 41.140625 47.34375 
Q 37.3125 48.390625 33.40625 48.390625 
Q 24.65625 48.390625 19.8125 42.84375 
Q 14.984375 37.3125 14.984375 27.296875 
Q 14.984375 17.28125 19.8125 11.734375 
Q 24.65625 6.203125 33.40625 6.203125 
Q 37.3125 6.203125 41.140625 7.25 
Q 44.96875 8.296875 48.78125 10.40625 
L 48.78125 2.09375 
Q 45.015625 0.34375 40.984375 -0.53125 
Q 36.96875 -1.421875 32.421875 -1.421875 
Q 20.0625 -1.421875 12.78125 6.34375 
Q 5.515625 14.109375 5.515625 27.296875 
Q 5.515625 40.671875 12.859375 48.328125 
Q 20.21875 56 33.015625 56 
Q 37.15625 56 41.109375 55.140625 
Q 45.0625 54.296875 48.78125 52.59375 
z
" id="DejaVuSans-99"/>
       <path d="M 18.3125 70.21875 
L 18.3125 54.6875 
L 36.8125 54.6875 
L 36.8125 47.703125 
L 18.3125 47.703125 
L 18.3125 18.015625 
Q 18.3125 11.328125 20.140625 9.421875 
Q 21.96875 7.515625 27.59375 7.515625 
L 36.8125 7.515625 
L 36.8125 0 
L 27.59375 0 
Q 17.1875 0 13.234375 3.875 
Q 9.28125 7.765625 9.28125 18.015625 
L 9.28125 47.703125 
L 2.6875 47.703125 
L 2.6875 54.6875 
L 9.28125 54.6875 
L 9.28125 70.21875 
z
" id="DejaVuSans-116"/>
       <path d="M 8.5 21.578125 
L 8.5 54.6875 
L 17.484375 54.6875 
L 17.484375 21.921875 
Q 17.484375 14.15625 20.5 10.265625 
Q 23.53125 6.390625 29.59375 6.390625 
Q 36.859375 6.390625 41.078125 11.03125 
Q 45.3125 15.671875 45.3125 23.6875 
L 45.3125 54.6875 
L 54.296875 54.6875 
L 54.296875 0 
L 45.3125 0 
L 45.3125 8.40625 
Q 42.046875 3.421875 37.71875 1 
Q 33.40625 -1.421875 27.6875 -1.421875 
Q 18.265625 -1.421875 13.375 4.4375 
Q 8.5 10.296875 8.5 21.578125 
z
M 31.109375 56 
z
" id="DejaVuSans-117"/>
       <path d="M 11.71875 12.40625 
L 22.015625 12.40625 
L 22.015625 4 
L 14.015625 -11.625 
L 7.71875 -11.625 
L 11.71875 4 
z
" id="DejaVuSans-44"/>
       <path d="M 18.109375 8.203125 
L 18.109375 -20.796875 
L 9.078125 -20.796875 
L 9.078125 54.6875 
L 18.109375 54.6875 
L 18.109375 46.390625 
Q 20.953125 51.265625 25.265625 53.625 
Q 29.59375 56 35.59375 56 
Q 45.5625 56 51.78125 48.09375 
Q 58.015625 40.1875 58.015625 27.296875 
Q 58.015625 14.40625 51.78125 6.484375 
Q 45.5625 -1.421875 35.59375 -1.421875 
Q 29.59375 -1.421875 25.265625 0.953125 
Q 20.953125 3.328125 18.109375 8.203125 
z
M 48.6875 27.296875 
Q 48.6875 37.203125 44.609375 42.84375 
Q 40.53125 48.484375 33.40625 48.484375 
Q 26.265625 48.484375 22.1875 42.84375 
Q 18.109375 37.203125 18.109375 27.296875 
Q 18.109375 17.390625 22.1875 11.75 
Q 26.265625 6.109375 33.40625 6.109375 
Q 40.53125 6.109375 44.609375 11.75 
Q 48.6875 17.390625 48.6875 27.296875 
z
" id="DejaVuSans-112"/>
      </defs>
      <use xlink:href="#DejaVuSans-70"/>
      <use x="50.269531" xlink:href="#DejaVuSans-114"/>
      <use x="91.382812" xlink:href="#DejaVuSans-97"/>
      <use x="152.662109" xlink:href="#DejaVuSans-99"/>
      <use x="207.642578" xlink:href="#DejaVuSans-116"/>
      <use x="246.851562" xlink:href="#DejaVuSans-105"/>
      <use x="274.634766" xlink:href="#DejaVuSans-111"/>
      <use x="335.816406" xlink:href="#DejaVuSans-110"/>
      <use x="399.195312" xlink:href="#DejaVuSans-32"/>
      <use x="430.982422" xlink:href="#DejaVuSans-111"/>
      <use x="492.164062" xlink:href="#DejaVuSans-102"/>
      <use x="527.369141" xlink:href="#DejaVuSans-32"/>
      <use x="559.15625" xlink:href="#DejaVuSans-102"/>
      <use x="594.361328" xlink:href="#DejaVuSans-117"/>
      <use x="657.740234" xlink:href="#DejaVuSans-110"/>
      <use x="721.119141" xlink:href="#DejaVuSans-99"/>
      <use x="776.099609" xlink:href="#DejaVuSans-116"/>
      <use x="815.308594" xlink:href="#DejaVuSans-105"/>
      <use x="843.091797" xlink:href="#DejaVuSans-111"/>
      <use x="904.273438" xlink:href="#DejaVuSans-110"/>
      <use x="967.652344" xlink:href="#DejaVuSans-44"/>
      <use x="999.439453" xlink:href="#DejaVuSans-116"/>
      <use x="1038.648438" xlink:href="#DejaVuSans-97"/>
      <use x="1099.927734" xlink:href="#DejaVuSans-114"/>
      <use x="1139.291016" xlink:href="#DejaVuSans-103"/>
      <use x="1202.767578" xlink:href="#DejaVuSans-101"/>
      <use x="1264.291016" xlink:href="#DejaVuSans-116"/>
      <use x="1303.5" xlink:href="#DejaVuSans-32"/>
      <use x="1335.287109" xlink:href="#DejaVuSans-112"/>
      <use x="1398.763672" xlink:href="#DejaVuSans-97"/>
      <use x="1460.042969" xlink:href="#DejaVuSans-105"/>
      <use x="1487.826172" xlink:href="#DejaVuSans-114"/>
      <use x="1528.939453" xlink:href="#DejaVuSans-115"/>
     </g>
    </g>
   </g>
   <g id="line2d_29">
    <defs>
     <path d="M 0 1.5 
C 0.397805 1.5 0.77937 1.341951 1.06066 1.06066 
C 1.341951 0.77937 1.5 0.397805 1.5 0 
C 1.5 -0.397805 1.341951 -0.77937 1.06066 -1.06066 
C 0.77937 -1.341951 0.397805 -1.5 0 -1.5 
C -0.397805 -1.5 -0.77937 -1.341951 -1.06066 -1.06066 
C -1.341951 -0.77937 -1.5 -0.397805 -1.5 0 
C -1.5 0.397805 -1.341951 0.77937 -1.06066 1.06066 
C -0.77937 1.341951 -0.397805 1.5 0 1.5 
z
" id="m0953561eff" style="stroke:#000080;"/>
    </defs>
    <g>
     <use style="fill:#000080;stroke:#000080;" x="295.674292" xlink:href="#m0953561eff" y="244.237214"/>
     <use style="fill:#000080;stroke:#000080;" x="295.674292" xlink:href="#m0953561eff" y="244.237214"/>
    </g>
   </g>
   <g id="line2d_30">
    <path d="M 95.526106 298.944 
L 95.526106 298.825072 
L 103.117741 298.825072 
L 103.117741 298.706144 
L 107.614095 298.706144 
L 107.614095 298.587217 
L 111.505558 298.587217 
L 111.505558 298.468289 
L 111.663381 298.468289 
L 111.663381 298.349361 
L 115.586238 298.349361 
L 115.586238 298.230433 
L 117.259781 298.230433 
L 117.259781 297.397939 
L 120.47729 297.397939 
L 120.47729 297.279011 
L 121.756135 297.279011 
L 121.756135 297.160083 
L 122.699028 297.160083 
L 122.699028 296.922227 
L 122.865118 296.922227 
L 122.865118 296.8033 
L 123.029641 296.8033 
L 123.029641 296.684372 
L 123.192626 296.684372 
L 123.192626 296.565444 
L 123.514096 296.565444 
L 123.593547 295.970805 
L 125.822869 295.970805 
L 125.822869 295.851877 
L 126.030894 295.851877 
L 126.030894 295.73295 
L 126.773103 295.73295 
L 126.773103 295.614022 
L 127.54831 295.614022 
L 127.54831 295.495094 
L 127.861412 295.495094 
L 127.861412 295.376166 
L 128.885774 295.376166 
L 128.885774 295.257238 
L 129.574256 295.257238 
L 129.630422 295.019383 
L 129.742212 295.019383 
L 129.742212 294.900455 
L 129.963666 294.900455 
L 130.073348 294.06796 
L 131.338382 294.06796 
L 131.338382 293.949033 
L 131.790072 293.949033 
L 131.790072 293.830105 
L 132.230358 293.830105 
L 132.230358 293.711177 
L 132.986651 293.711177 
L 132.986651 293.592249 
L 133.398082 293.592249 
L 133.398082 293.473321 
L 133.622529 293.473321 
L 133.622529 293.354394 
L 134.828688 293.354394 
L 134.828688 293.235466 
L 135.240011 293.235466 
L 135.240011 293.116538 
L 136.607732 293.116538 
L 136.607732 292.99761 
L 136.831795 292.99761 
L 136.831795 292.878682 
L 137.629572 292.878682 
L 137.629572 292.759755 
L 138.118883 292.759755 
L 138.118883 292.640827 
L 139.220677 292.640827 
L 139.253002 292.402971 
L 139.918342 292.402971 
L 139.918342 292.284043 
L 140.165274 292.284043 
L 140.165274 292.165116 
L 140.826843 292.165116 
L 140.826843 292.046188 
L 141.177393 292.046188 
L 141.177393 291.92726 
L 142.07914 291.92726 
L 142.188649 291.451549 
L 142.752555 291.451549 
L 142.752555 291.332621 
L 143.527762 291.332621 
L 143.60342 291.094766 
L 144.026061 291.094766 
L 144.026061 290.975838 
L 144.148442 290.975838 
L 144.148442 290.737982 
L 144.414696 290.737982 
L 144.414696 290.619054 
L 144.91198 290.619054 
L 144.93531 290.381199 
L 145.440832 290.381199 
L 145.440832 290.262271 
L 146.172658 290.262271 
L 146.172658 290.143343 
L 146.40993 290.143343 
L 146.495417 289.78656 
L 146.77039 289.78656 
L 146.812312 289.548704 
L 147.102973 289.548704 
L 147.102973 289.429776 
L 147.749695 289.429776 
L 147.809113 289.072993 
L 148.826773 289.072993 
L 148.826773 288.835137 
L 149.628721 288.835137 
L 149.682079 288.597282 
L 149.823575 288.597282 
L 149.823575 288.478354 
L 149.946449 288.478354 
L 150.016276 288.240498 
L 150.766468 288.240498 
L 150.766468 288.121571 
L 150.94908 288.121571 
L 150.94908 288.002643 
L 151.1298 288.002643 
L 151.1298 287.883715 
L 151.485716 287.883715 
L 151.485716 287.764787 
L 151.959639 287.764787 
L 152.00633 287.526932 
L 152.176471 287.526932 
L 152.176471 287.408004 
L 152.344968 287.408004 
L 152.344968 287.289076 
L 152.496747 287.289076 
L 152.511852 287.05122 
L 152.617226 287.05122 
L 152.677155 286.694437 
L 152.840905 286.694437 
L 152.840905 286.575509 
L 153.637357 286.575509 
L 153.637357 286.456582 
L 154.694607 286.456582 
L 154.694607 286.337654 
L 155.691409 286.337654 
L 155.691409 286.218726 
L 155.966049 286.218726 
L 155.966049 286.099798 
L 156.502685 286.099798 
L 156.502685 285.98087 
L 157.731474 285.98087 
L 157.731474 285.861943 
L 158.140788 285.861943 
L 158.140788 285.743015 
L 161.911563 285.743015 
L 161.911563 285.624087 
L 170.165794 285.624087 
L 170.165794 285.505159 
L 170.721954 285.505159 
L 170.721954 285.386231 
L 171.001368 285.386231 
L 171.001368 285.267304 
L 171.286669 285.267304 
L 171.286669 285.148376 
L 171.435242 285.148376 
L 171.435242 285.029448 
L 171.84364 285.029448 
L 171.84364 284.91052 
L 172.115593 284.91052 
L 172.115593 284.791592 
L 172.436436 284.791592 
L 172.436436 284.672665 
L 173.088802 284.672665 
L 173.088802 284.553737 
L 173.213633 284.553737 
L 173.264235 284.315881 
L 173.713164 284.315881 
L 173.713164 284.196953 
L 174.102737 284.196953 
L 174.198785 283.959098 
L 174.68819 283.959098 
L 174.68819 283.84017 
L 175.79927 283.84017 
L 175.79927 283.721242 
L 176.400482 283.721242 
L 176.400482 283.602314 
L 176.651932 283.602314 
L 176.734949 283.245531 
L 176.989078 283.245531 
L 176.989078 283.126603 
L 177.224922 283.126603 
L 177.224922 283.007675 
L 178.241539 283.007675 
L 178.241539 282.888748 
L 179.55796 282.888748 
L 179.55796 282.76982 
L 180.423075 282.76982 
L 180.423075 282.650892 
L 182.56375 282.650892 
L 182.671218 282.413036 
L 182.944937 282.413036 
L 182.944937 282.294109 
L 183.515577 282.294109 
L 183.515577 282.175181 
L 184.603722 282.175181 
L 184.603722 282.056253 
L 185.053396 282.056253 
L 185.053396 281.937325 
L 185.17447 281.937325 
L 185.199974 281.69947 
L 185.452989 281.69947 
L 185.452989 281.580542 
L 185.677605 281.580542 
L 185.697882 281.342686 
L 185.801153 281.342686 
L 185.825758 281.104831 
L 185.948264 281.104831 
L 185.997027 280.748047 
L 186.129327 280.748047 
L 186.129327 280.62912 
L 186.453596 280.62912 
L 186.453596 280.510192 
L 186.571785 280.510192 
L 186.571785 280.391264 
L 187.070024 280.391264 
L 187.070024 280.272336 
L 187.266635 280.272336 
L 187.295423 280.034481 
L 187.74768 280.034481 
L 187.74768 279.915553 
L 188.017846 279.915553 
L 188.017846 279.796625 
L 188.204112 279.796625 
L 188.204112 279.677697 
L 190.351095 279.677697 
L 190.351095 279.558769 
L 190.53975 279.558769 
L 190.53975 279.439842 
L 191.220549 279.439842 
L 191.220549 279.320914 
L 191.750497 279.320914 
L 191.750497 279.201986 
L 192.142319 279.201986 
L 192.142319 279.083058 
L 192.473699 279.083058 
L 192.473699 278.96413 
L 192.707247 278.96413 
L 192.707247 278.845203 
L 192.904972 278.845203 
L 192.904972 278.726275 
L 193.135792 278.726275 
L 193.149016 278.488419 
L 193.799155 278.488419 
L 193.799155 278.369491 
L 194.0771 278.369491 
L 194.0771 278.250564 
L 194.290258 278.250564 
L 194.290258 278.131636 
L 194.412269 278.131636 
L 194.412269 278.012708 
L 194.761215 278.012708 
L 194.761215 277.89378 
L 195.112504 277.89378 
L 195.191722 277.655925 
L 195.448492 277.655925 
L 195.533248 277.299141 
L 196.088004 277.299141 
L 196.088004 277.180213 
L 196.794498 277.180213 
L 196.794498 277.061286 
L 197.771228 277.061286 
L 197.771228 276.942358 
L 198.588956 276.942358 
L 198.588956 276.82343 
L 201.790451 276.82343 
L 201.819956 276.585574 
L 201.917947 276.585574 
L 201.947237 276.347719 
L 202.150904 276.347719 
L 202.150904 276.228791 
L 202.456749 276.228791 
L 202.456749 276.109863 
L 202.711972 276.109863 
L 202.711972 275.990936 
L 203.225083 275.990936 
L 203.225083 275.872008 
L 203.350729 275.872008 
L 203.350729 275.75308 
L 204.687191 275.75308 
L 204.687191 275.634152 
L 205.887143 275.634152 
L 205.887143 275.515224 
L 206.250179 275.515224 
L 206.250179 275.396297 
L 206.388217 275.396297 
L 206.391654 275.158441 
L 206.508452 275.158441 
L 206.576593 274.801658 
L 206.632609 274.801658 
L 206.734673 274.444874 
L 206.766319 274.444874 
L 206.796901 274.207019 
L 206.961656 274.207019 
L 207.061817 273.850235 
L 207.127175 273.850235 
L 207.203445 273.61238 
L 207.409865 273.61238 
L 207.409865 273.493452 
L 208.338113 273.493452 
L 208.352553 273.255596 
L 208.586535 273.255596 
L 208.586535 273.136668 
L 209.1899 273.136668 
L 209.285357 272.898813 
L 209.514127 272.898813 
L 209.514127 272.779885 
L 210.090916 272.779885 
L 210.166086 272.423102 
L 210.432792 272.423102 
L 210.432792 272.304174 
L 211.92691 272.304174 
L 211.92691 272.185246 
L 212.236152 272.185246 
L 212.236152 272.066318 
L 212.385695 272.066318 
L 212.388132 271.709535 
L 212.520188 271.709535 
L 212.520188 271.590607 
L 212.794197 271.590607 
L 212.794197 271.471679 
L 213.000327 271.471679 
L 213.000327 271.352752 
L 213.569683 271.352752 
L 213.58789 271.114896 
L 213.718424 271.114896 
L 213.718424 270.995968 
L 213.839021 270.995968 
L 213.839021 270.87704 
L 214.136034 270.87704 
L 214.136034 270.758113 
L 214.915649 270.758113 
L 214.995567 270.520257 
L 215.708489 270.520257 
L 215.708489 270.401329 
L 215.977126 270.401329 
L 215.977126 270.282401 
L 216.620261 270.282401 
L 216.620261 270.163474 
L 216.820405 270.163474 
L 216.861555 269.925618 
L 217.183975 269.925618 
L 217.268354 269.687762 
L 217.810749 269.687762 
L 217.810749 269.568835 
L 218.271346 269.568835 
L 218.347693 269.212051 
L 218.433186 269.212051 
L 218.433186 269.093123 
L 218.548583 269.093123 
L 218.548583 268.974196 
L 218.679197 268.974196 
L 218.769169 268.617412 
L 218.802769 268.617412 
L 218.809177 268.379557 
L 219.289302 268.379557 
L 219.289302 268.260629 
L 219.401958 268.260629 
L 219.508871 267.903845 
L 219.574675 267.903845 
L 219.574675 267.784918 
L 220.684369 267.784918 
L 220.684369 267.66599 
L 220.825681 267.66599 
L 220.825681 267.547062 
L 220.961833 267.547062 
L 221.06244 267.190279 
L 221.130617 267.190279 
L 221.130617 267.071351 
L 221.485358 267.071351 
L 221.485358 266.952423 
L 221.869566 266.952423 
L 221.907723 266.714567 
L 222.069595 266.714567 
L 222.069595 266.59564 
L 222.278276 266.59564 
L 222.278276 266.476712 
L 223.110382 266.476712 
L 223.110382 266.357784 
L 223.291792 266.357784 
L 223.291792 266.238856 
L 223.802313 266.238856 
L 223.802313 266.119929 
L 223.997375 266.119929 
L 223.997375 266.001001 
L 224.317749 266.001001 
L 224.426341 265.763145 
L 224.56047 265.763145 
L 224.56047 265.644217 
L 224.746679 265.644217 
L 224.746679 265.52529 
L 225.438267 265.52529 
L 225.459007 265.168506 
L 225.662339 265.168506 
L 225.735941 264.930651 
L 225.970901 264.930651 
L 225.970901 264.811723 
L 227.261629 264.811723 
L 227.324863 264.573867 
L 227.451263 264.573867 
L 227.540611 264.336012 
L 227.764623 264.336012 
L 227.764623 264.217084 
L 227.945698 264.217084 
L 227.965758 263.979228 
L 229.031366 263.979228 
L 229.031366 263.8603 
L 229.484437 263.8603 
L 229.484437 263.741373 
L 229.623029 263.741373 
L 229.623029 263.622445 
L 229.785436 263.622445 
L 229.785436 263.503517 
L 230.221587 263.503517 
L 230.221587 263.384589 
L 230.495743 263.384589 
L 230.495743 263.265661 
L 230.618677 263.265661 
L 230.62236 263.027806 
L 230.8218 263.027806 
L 230.8218 262.908878 
L 231.237133 262.908878 
L 231.25077 262.671022 
L 231.461892 262.671022 
L 231.469236 262.433167 
L 232.504021 262.433167 
L 232.504021 262.314239 
L 233.431615 262.314239 
L 233.431615 262.195311 
L 233.726699 262.195311 
L 233.785879 261.957456 
L 234.432543 261.957456 
L 234.432543 261.838528 
L 234.629269 261.838528 
L 234.629269 261.7196 
L 235.115362 261.7196 
L 235.187761 261.481745 
L 235.23529 261.481745 
L 235.23529 261.362817 
L 235.704555 261.362817 
L 235.704555 261.243889 
L 235.85265 261.243889 
L 235.85265 261.124961 
L 236.27864 261.124961 
L 236.27864 261.006033 
L 236.488897 261.006033 
L 236.488897 260.887106 
L 236.941225 260.887106 
L 237.023537 260.530322 
L 237.646382 260.530322 
L 237.646382 260.411394 
L 237.869605 260.411394 
L 237.869605 260.292467 
L 238.21015 260.292467 
L 238.21015 260.173539 
L 238.815844 260.173539 
L 238.815844 260.054611 
L 238.934404 260.054611 
L 238.934404 259.935683 
L 239.281776 259.935683 
L 239.378516 259.697828 
L 240.631007 259.697828 
L 240.708463 259.459972 
L 240.856685 259.459972 
L 240.856685 259.341044 
L 241.316263 259.341044 
L 241.316263 259.222116 
L 241.898253 259.222116 
L 241.898253 259.103189 
L 242.01175 259.103189 
L 242.01175 258.984261 
L 242.165562 258.984261 
L 242.165562 258.865333 
L 242.681676 258.865333 
L 242.748633 258.627477 
L 242.851011 258.627477 
L 242.922908 258.389622 
L 242.964276 258.389622 
L 242.964276 258.270694 
L 243.097679 258.270694 
L 243.097679 258.151766 
L 243.677112 258.151766 
L 243.677112 258.032838 
L 244.334936 258.032838 
L 244.334936 257.913911 
L 244.46836 257.913911 
L 244.46836 257.794983 
L 244.85584 257.794983 
L 244.931899 257.557127 
L 245.150102 257.557127 
L 245.202781 257.319272 
L 245.395187 257.319272 
L 245.395187 257.200344 
L 246.151997 257.200344 
L 246.190308 256.962488 
L 246.492251 256.962488 
L 246.492251 256.84356 
L 246.626871 256.84356 
L 246.626871 256.724633 
L 246.752208 256.724633 
L 246.752208 256.605705 
L 247.205204 256.605705 
L 247.205204 256.486777 
L 247.477741 256.486777 
L 247.477741 256.367849 
L 247.873693 256.367849 
L 247.873693 256.248922 
L 248.150295 256.248922 
L 248.220467 256.011066 
L 248.484472 256.011066 
L 248.484472 255.892138 
L 248.802674 255.892138 
L 248.802674 255.77321 
L 249.154253 255.77321 
L 249.154253 255.654283 
L 249.413924 255.654283 
L 249.439389 255.416427 
L 249.763116 255.416427 
L 249.763116 255.297499 
L 249.959684 255.297499 
L 249.959684 255.178571 
L 250.318082 255.178571 
L 250.349198 254.940716 
L 250.536052 254.940716 
L 250.536052 254.821788 
L 250.763669 254.821788 
L 250.763669 254.70286 
L 251.138223 254.70286 
L 251.138223 254.583932 
L 251.41763 254.583932 
L 251.455719 254.346077 
L 251.64531 254.346077 
L 251.64531 254.227149 
L 251.84527 254.227149 
L 251.8815 253.989293 
L 252.005683 253.989293 
L 252.031975 253.751438 
L 252.526325 253.751438 
L 252.526325 253.63251 
L 252.68652 253.63251 
L 252.68652 253.513582 
L 252.841784 253.513582 
L 252.841784 253.394654 
L 252.963571 253.394654 
L 252.963571 253.275727 
L 253.236452 253.275727 
L 253.329314 253.037871 
L 253.529326 253.037871 
L 253.529326 252.918943 
L 253.703261 252.918943 
L 253.703261 252.800015 
L 253.866062 252.800015 
L 253.929597 252.324304 
L 254.263092 252.324304 
L 254.367873 251.967521 
L 254.438814 251.967521 
L 254.438814 251.848593 
L 254.855135 251.848593 
L 254.855135 251.729665 
L 255.846707 251.729665 
L 255.945766 251.49181 
L 256.467597 251.49181 
L 256.529633 251.253954 
L 257.112781 251.253954 
L 257.170008 251.016099 
L 257.591783 251.016099 
L 257.619744 250.778243 
L 257.7908 250.778243 
L 257.7908 250.659315 
L 258.406016 250.659315 
L 258.426183 250.42146 
L 258.555573 250.42146 
L 258.555573 250.302532 
L 258.816082 250.302532 
L 258.816082 250.183604 
L 258.929397 250.183604 
L 258.929397 250.064676 
L 259.122222 250.064676 
L 259.171397 249.826821 
L 259.269647 249.826821 
L 259.370081 249.588965 
L 259.573498 249.588965 
L 259.573498 249.470037 
L 260.343732 249.470037 
L 260.343732 249.351109 
L 260.90678 249.351109 
L 260.90678 249.232182 
L 261.29093 249.232182 
L 261.348928 248.875398 
L 261.516062 248.875398 
L 261.516062 248.75647 
L 261.866659 248.75647 
L 261.866659 248.637543 
L 262.056247 248.637543 
L 262.056247 248.518615 
L 262.366021 248.518615 
L 262.366021 248.399687 
L 262.583599 248.399687 
L 262.583599 248.280759 
L 262.702752 248.280759 
L 262.702752 248.161831 
L 263.099503 248.161831 
L 263.099503 248.042904 
L 263.329466 248.042904 
L 263.329466 247.923976 
L 263.710644 247.923976 
L 263.803286 247.68612 
L 264.676595 247.68612 
L 264.676595 247.567192 
L 265.34196 247.567192 
L 265.34196 247.448265 
L 265.846166 247.448265 
L 265.874519 247.210409 
L 266.076888 247.210409 
L 266.076888 247.091481 
L 266.375769 247.091481 
L 266.375769 246.972553 
L 267.183638 246.972553 
L 267.183638 246.853626 
L 267.753566 246.853626 
L 267.753566 246.734698 
L 267.948532 246.734698 
L 267.948532 246.61577 
L 268.195732 246.61577 
L 268.195732 246.496842 
L 268.914054 246.496842 
L 268.914054 246.377915 
L 269.492946 246.377915 
L 269.492946 246.258987 
L 269.903624 246.258987 
L 269.903624 246.140059 
L 270.342337 246.140059 
L 270.342337 246.021131 
L 270.889669 246.021131 
L 270.889669 245.902203 
L 271.270412 245.902203 
L 271.270412 245.783276 
L 271.576805 245.783276 
L 271.576805 245.664348 
L 272.139753 245.664348 
L 272.139753 245.54542 
L 272.267899 245.54542 
L 272.267899 245.426492 
L 276.135069 245.426492 
L 276.135069 245.307564 
L 277.335567 245.307564 
L 277.335567 245.188637 
L 279.041812 245.188637 
L 279.041812 245.069709 
L 279.345234 245.069709 
L 279.345234 244.950781 
L 282.004674 244.950781 
L 282.004674 244.831853 
L 282.339123 244.831853 
L 282.414073 244.593998 
L 283.208424 244.593998 
L 283.208424 244.47507 
L 284.646025 244.47507 
L 284.646025 244.356142 
L 295.674292 244.356142 
L 295.674292 244.237214 
L 338.688 244.237214 
L 338.688 244.237214 
" style="fill:none;stroke:#000080;stroke-linecap:square;stroke-width:1.5;"/>
   </g>
   <g id="line2d_31">
    <defs>
     <path d="M 0 6 
C 1.591219 6 3.117479 5.367802 4.242641 4.242641 
C 5.367802 3.117479 6 1.591219 6 0 
C 6 -1.591219 5.367802 -3.117479 4.242641 -4.242641 
C 3.117479 -5.367802 1.591219 -6 0 -6 
C -1.591219 -6 -3.117479 -5.367802 -4.242641 -4.242641 
C -5.367802 -3.117479 -6 -1.591219 -6 0 
C -6 1.591219 -5.367802 3.117479 -4.242641 4.242641 
C -3.117479 5.367802 -1.591219 6 0 6 
z
" id="mff96a3d661" style="stroke:#000080;stroke-width:1.5;"/>
    </defs>
    <g>
     <use style="fill-opacity:0;stroke:#000080;stroke-width:1.5;" x="179.55796" xlink:href="#mff96a3d661" y="282.888748"/>
     <use style="fill-opacity:0;stroke:#000080;stroke-width:1.5;" x="231.461892" xlink:href="#mff96a3d661" y="262.671022"/>
     <use style="fill-opacity:0;stroke:#000080;stroke-width:1.5;" x="284.646025" xlink:href="#mff96a3d661" y="244.356142"/>
     <use style="fill-opacity:0;stroke:#000080;stroke-width:1.5;" x="295.674292" xlink:href="#mff96a3d661" y="244.237214"/>
     <use style="fill-opacity:0;stroke:#000080;stroke-width:1.5;" x="338.688" xlink:href="#mff96a3d661" y="244.237214"/>
    </g>
   </g>
   <g id="line2d_32">
    <path style="fill:none;stroke:#000080;stroke-linecap:square;stroke-width:1.5;"/>
    <g/>
   </g>
   <g id="line2d_33">
    <path clip-path="url(#p5ea5f1af11)" d="M 206.770019 274.325946 
" style="fill:none;stroke:#000080;stroke-linecap:square;stroke-width:1.5;"/>
    <defs>
     <path d="M -12 12 
L 12 -12 
M -12 -12 
L 12 12 
" id="mc159df2b1a" style="stroke:#000080;"/>
    </defs>
    <g clip-path="url(#p5ea5f1af11)">
     <use style="fill:#000080;stroke:#000080;" x="206.770019" xlink:href="#mc159df2b1a" y="274.325946"/>
    </g>
   </g>
   <g id="line2d_34">
    <defs>
     <path d="M 0 1.5 
C 0.397805 1.5 0.77937 1.341951 1.06066 1.06066 
C 1.341951 0.77937 1.5 0.397805 1.5 0 
C 1.5 -0.397805 1.341951 -0.77937 1.06066 -1.06066 
C 0.77937 -1.341951 0.397805 -1.5 0 -1.5 
C -0.397805 -1.5 -0.77937 -1.341951 -1.06066 -1.06066 
C -1.341951 -0.77937 -1.5 -0.397805 -1.5 0 
C -1.5 0.397805 -1.341951 0.77937 -1.06066 1.06066 
C -0.77937 1.341951 -0.397805 1.5 0 1.5 
z
" id="m27e832fc15" style="stroke:#ff00ff;"/>
    </defs>
    <g>
     <use style="fill:#ff00ff;stroke:#ff00ff;" x="171.84364" xlink:href="#m27e832fc15" y="296.565444"/>
     <use style="fill:#ff00ff;stroke:#ff00ff;" x="171.84364" xlink:href="#m27e832fc15" y="296.565444"/>
    </g>
   </g>
   <g id="line2d_35">
    <path d="M 108.006005 298.944 
L 108.006005 298.825072 
L 111.266113 298.825072 
L 111.266113 298.706144 
L 114.751048 298.706144 
L 114.751048 298.587217 
L 117.202696 298.587217 
L 117.202696 298.349361 
L 117.598418 298.349361 
L 117.598418 298.230433 
L 133.46572 298.230433 
L 133.46572 298.111505 
L 139.090775 298.111505 
L 139.090775 297.992578 
L 139.964909 297.992578 
L 139.964909 297.87365 
L 142.092866 297.87365 
L 142.092866 297.754722 
L 143.691276 297.754722 
L 143.691276 297.635794 
L 145.097753 297.635794 
L 145.097753 297.516866 
L 145.270136 297.516866 
L 145.270136 297.397939 
L 147.690073 297.397939 
L 147.690073 297.279011 
L 149.131841 297.279011 
L 149.131841 297.160083 
L 149.386567 297.160083 
L 149.386567 297.041155 
L 153.01047 297.041155 
L 153.01047 296.922227 
L 161.306672 296.922227 
L 161.306672 296.8033 
L 167.436318 296.8033 
L 167.436318 296.684372 
L 171.84364 296.684372 
L 171.84364 296.565444 
L 338.688 296.565444 
" style="fill:none;stroke:#ff00ff;stroke-linecap:square;stroke-width:1.5;"/>
   </g>
   <g id="line2d_36">
    <defs>
     <path d="M -0 8.485281 
L 5.091169 0 
L 0 -8.485281 
L -5.091169 -0 
z
" id="ma89f099be2" style="stroke:#ff00ff;stroke-linejoin:miter;stroke-width:1.5;"/>
    </defs>
    <g>
     <use style="fill-opacity:0;stroke:#ff00ff;stroke-linejoin:miter;stroke-width:1.5;" x="171.84364" xlink:href="#ma89f099be2" y="296.684372"/>
     <use style="fill-opacity:0;stroke:#ff00ff;stroke-linejoin:miter;stroke-width:1.5;" x="171.84364" xlink:href="#ma89f099be2" y="296.684372"/>
     <use style="fill-opacity:0;stroke:#ff00ff;stroke-linejoin:miter;stroke-width:1.5;" x="171.84364" xlink:href="#ma89f099be2" y="296.565444"/>
     <use style="fill-opacity:0;stroke:#ff00ff;stroke-linejoin:miter;stroke-width:1.5;" x="171.84364" xlink:href="#ma89f099be2" y="296.565444"/>
     <use style="fill-opacity:0;stroke:#ff00ff;stroke-linejoin:miter;stroke-width:1.5;" x="338.688" xlink:href="#ma89f099be2" y="296.565444"/>
    </g>
   </g>
   <g id="line2d_37">
    <path style="fill:none;stroke:#ff00ff;stroke-linecap:square;stroke-width:1.5;"/>
    <g/>
   </g>
   <g id="line2d_38">
    <path clip-path="url(#p5ea5f1af11)" d="M 87.329581 298.944 
" style="fill:none;stroke:#ff00ff;stroke-linecap:square;stroke-width:1.5;"/>
    <defs>
     <path d="M -12 12 
L 12 -12 
M -12 -12 
L 12 12 
" id="m8b4e40aa0d" style="stroke:#ff00ff;"/>
    </defs>
    <g clip-path="url(#p5ea5f1af11)">
     <use style="fill:#ff00ff;stroke:#ff00ff;" x="87.329581" xlink:href="#m8b4e40aa0d" y="298.944"/>
    </g>
   </g>
   <g id="line2d_39">
    <defs>
     <path d="M 0 1.5 
C 0.397805 1.5 0.77937 1.341951 1.06066 1.06066 
C 1.341951 0.77937 1.5 0.397805 1.5 0 
C 1.5 -0.397805 1.341951 -0.77937 1.06066 -1.06066 
C 0.77937 -1.341951 0.397805 -1.5 0 -1.5 
C -0.397805 -1.5 -0.77937 -1.341951 -1.06066 -1.06066 
C -1.341951 -0.77937 -1.5 -0.397805 -1.5 0 
C -1.5 0.397805 -1.341951 0.77937 -1.06066 1.06066 
C -0.77937 1.341951 -0.397805 1.5 0 1.5 
z
" id="m44910b1525" style="stroke:#ff7500;"/>
    </defs>
    <g>
     <use style="fill:#ff7500;stroke:#ff7500;" x="235.262223" xlink:href="#m44910b1525" y="259.697828"/>
     <use style="fill:#ff7500;stroke:#ff7500;" x="235.262223" xlink:href="#m44910b1525" y="259.697828"/>
    </g>
   </g>
   <g id="line2d_40">
    <path d="M 100.343767 298.944 
L 100.343767 298.468289 
L 102.859376 298.468289 
L 102.859376 298.349361 
L 103.623262 298.349361 
L 103.623262 298.230433 
L 108.006005 298.230433 
L 108.006005 298.111505 
L 108.389302 298.111505 
L 108.389302 297.87365 
L 113.594805 297.87365 
L 113.594805 297.754722 
L 113.73488 297.754722 
L 113.73488 297.635794 
L 114.0117 297.635794 
L 114.0117 297.516866 
L 116.202531 297.516866 
L 116.202531 297.041155 
L 117.373392 297.041155 
L 117.373392 296.922227 
L 117.486268 296.922227 
L 117.486268 295.851877 
L 117.820578 295.851877 
L 117.820578 295.73295 
L 119.40226 295.73295 
L 119.40226 295.614022 
L 119.80089 295.614022 
L 119.80089 295.495094 
L 120.286695 295.495094 
L 120.286695 295.376166 
L 121.756135 295.376166 
L 121.756135 295.257238 
L 122.362027 295.257238 
L 122.362027 295.138311 
L 124.669438 295.138311 
L 124.669438 295.019383 
L 125.399222 295.019383 
L 125.399222 294.900455 
L 126.236468 294.900455 
L 126.236468 294.781527 
L 128.229861 294.781527 
L 128.229861 294.662599 
L 129.46138 294.662599 
L 129.46138 294.543672 
L 131.839545 294.543672 
L 131.839545 294.305816 
L 132.036046 294.305816 
L 132.036046 294.186888 
L 132.374684 294.186888 
L 132.374684 294.06796 
L 132.893889 294.06796 
L 132.893889 293.949033 
L 133.124876 293.949033 
L 133.124876 293.830105 
L 134.321942 293.830105 
L 134.321942 293.711177 
L 135.602085 293.711177 
L 135.602085 293.592249 
L 136.942755 293.592249 
L 136.942755 293.473321 
L 138.221972 293.473321 
L 138.221972 293.235466 
L 138.358484 293.235466 
L 138.358484 293.116538 
L 138.594838 293.116538 
L 138.594838 292.759755 
L 140.408758 292.759755 
L 140.408758 292.640827 
L 141.321401 292.640827 
L 141.321401 292.521899 
L 141.69035 292.521899 
L 141.69035 292.402971 
L 142.432559 292.402971 
L 142.432559 292.284043 
L 142.566605 292.284043 
L 142.566605 292.165116 
L 142.857929 292.165116 
L 142.884173 291.92726 
L 143.42637 291.92726 
L 143.42637 291.808332 
L 143.778691 291.808332 
L 143.778691 291.570477 
L 145.418169 291.570477 
L 145.418169 291.451549 
L 146.895853 291.451549 
L 146.895853 291.332621 
L 147.082371 291.332621 
L 147.082371 291.213693 
L 147.550159 291.213693 
L 147.550159 291.094766 
L 148.27731 291.094766 
L 148.27731 290.975838 
L 148.975352 290.975838 
L 149.085961 290.737982 
L 149.823575 290.737982 
L 149.823575 290.619054 
L 150.120495 290.619054 
L 150.120495 290.500127 
L 150.429467 290.500127 
L 150.429467 290.381199 
L 150.607205 290.381199 
L 150.607205 290.262271 
L 151.373256 290.262271 
L 151.373256 290.143343 
L 152.161072 290.143343 
L 152.161072 290.024415 
L 152.602211 290.024415 
L 152.632227 289.78656 
L 153.566437 289.78656 
L 153.566437 289.667632 
L 153.918189 289.667632 
L 153.918189 289.548704 
L 154.201424 289.548704 
L 154.201424 289.429776 
L 154.317527 289.429776 
L 154.324333 289.191921 
L 155.154773 289.191921 
L 155.154773 289.072993 
L 155.729115 289.072993 
L 155.729115 288.954065 
L 155.854218 288.954065 
L 155.854218 288.835137 
L 156.610446 288.835137 
L 156.705677 288.597282 
L 156.953214 288.597282 
L 156.953214 288.478354 
L 157.506157 288.478354 
L 157.506157 288.359426 
L 157.697862 288.359426 
L 157.697862 288.240498 
L 157.976006 288.240498 
L 158.031107 288.002643 
L 158.151718 288.002643 
L 158.151718 287.883715 
L 158.847883 287.883715 
L 158.847883 287.764787 
L 159.242359 287.764787 
L 159.242359 287.645859 
L 159.39565 287.645859 
L 159.39565 287.526932 
L 159.567767 287.526932 
L 159.633129 287.289076 
L 160.210625 287.289076 
L 160.210625 287.170148 
L 160.717812 287.170148 
L 160.717812 287.05122 
L 160.914762 287.05122 
L 160.914762 286.932293 
L 161.379469 286.932293 
L 161.379469 286.813365 
L 161.636364 286.813365 
L 161.636364 286.694437 
L 162.415072 286.694437 
L 162.508946 286.456582 
L 162.585379 286.456582 
L 162.669913 286.099798 
L 163.070067 286.099798 
L 163.070067 285.98087 
L 163.230042 285.98087 
L 163.230042 285.861943 
L 163.867476 285.861943 
L 163.867476 285.743015 
L 165.157053 285.743015 
L 165.157053 285.624087 
L 165.63665 285.624087 
L 165.63665 285.505159 
L 165.803027 285.505159 
L 165.803027 285.386231 
L 166.20699 285.386231 
L 166.20699 285.267304 
L 166.385083 285.267304 
L 166.385083 285.148376 
L 166.662278 285.148376 
L 166.729224 284.91052 
L 166.868978 284.91052 
L 166.968122 284.315881 
L 167.030622 284.315881 
L 167.030622 284.196953 
L 167.513144 284.196953 
L 167.564173 283.959098 
L 168.066419 283.959098 
L 168.066419 283.84017 
L 168.518461 283.84017 
L 168.60868 283.602314 
L 168.841088 283.602314 
L 168.841088 283.483387 
L 169.183993 283.483387 
L 169.183993 283.364459 
L 169.325624 283.364459 
L 169.414637 283.126603 
L 169.582803 283.126603 
L 169.659223 282.888748 
L 170.286084 282.888748 
L 170.286084 282.76982 
L 170.456886 282.76982 
L 170.497308 282.413036 
L 171.338045 282.413036 
L 171.338045 282.294109 
L 171.453088 282.294109 
L 171.542045 282.056253 
L 172.203683 282.056253 
L 172.310747 281.818397 
L 172.332566 281.818397 
L 172.438845 281.580542 
L 172.718338 281.580542 
L 172.801084 281.342686 
L 173.410611 281.342686 
L 173.503742 281.104831 
L 174.715685 281.104831 
L 174.715685 280.985903 
L 175.174531 280.985903 
L 175.174531 280.866975 
L 175.553262 280.866975 
L 175.553262 280.748047 
L 176.240496 280.748047 
L 176.346675 280.510192 
L 176.53047 280.510192 
L 176.53047 280.391264 
L 176.736832 280.391264 
L 176.736832 280.272336 
L 176.855001 280.272336 
L 176.855001 280.153408 
L 177.330748 280.153408 
L 177.426892 279.796625 
L 177.522509 279.796625 
L 177.522509 279.677697 
L 177.735306 279.677697 
L 177.735306 279.558769 
L 177.956071 279.558769 
L 177.956071 279.439842 
L 178.433842 279.439842 
L 178.524108 279.083058 
L 178.57669 279.083058 
L 178.61391 278.845203 
L 178.704933 278.845203 
L 178.704933 278.726275 
L 179.270634 278.726275 
L 179.273889 278.488419 
L 179.805938 278.488419 
L 179.883107 278.250564 
L 180.331426 278.250564 
L 180.365087 278.012708 
L 180.479353 278.012708 
L 180.48239 277.774852 
L 180.79239 277.774852 
L 180.890556 277.536997 
L 180.932036 277.536997 
L 180.932036 277.418069 
L 181.143816 277.418069 
L 181.216753 277.061286 
L 181.551247 277.061286 
L 181.551247 276.942358 
L 182.024587 276.942358 
L 182.024587 276.82343 
L 182.165775 276.82343 
L 182.165775 276.704502 
L 182.394494 276.704502 
L 182.394494 276.585574 
L 182.527329 276.585574 
L 182.581258 276.347719 
L 182.809943 276.347719 
L 182.809943 276.228791 
L 183.306352 276.228791 
L 183.314098 275.990936 
L 183.570355 275.990936 
L 183.598315 275.75308 
L 183.700873 275.75308 
L 183.700873 275.634152 
L 183.905446 275.634152 
L 183.905446 275.515224 
L 184.076786 275.515224 
L 184.076786 275.396297 
L 184.582131 275.396297 
L 184.582131 275.277369 
L 184.719614 275.277369 
L 184.739845 275.039513 
L 185.13498 275.039513 
L 185.13498 274.920585 
L 185.670841 274.920585 
L 185.670841 274.801658 
L 185.810104 274.801658 
L 185.810104 274.68273 
L 185.937163 274.68273 
L 186.034614 274.444874 
L 186.155667 274.444874 
L 186.155667 274.325946 
L 186.26935 274.325946 
L 186.272618 274.088091 
L 187.047114 274.088091 
L 187.070024 273.850235 
L 187.250164 273.850235 
L 187.250164 273.731307 
L 187.438654 273.731307 
L 187.519975 273.374524 
L 187.732658 273.374524 
L 187.732658 273.255596 
L 188.081793 273.255596 
L 188.081793 273.136668 
L 188.482713 273.136668 
L 188.482713 273.017741 
L 189.065933 273.017741 
L 189.160345 272.660957 
L 189.98957 272.660957 
L 190.017715 272.423102 
L 190.803006 272.423102 
L 190.888488 271.94739 
L 190.954409 271.94739 
L 191.043298 271.709535 
L 191.209883 271.709535 
L 191.26315 271.352752 
L 191.659551 271.352752 
L 191.659551 271.233824 
L 192.015039 271.233824 
L 192.082309 270.995968 
L 192.262497 270.995968 
L 192.262497 270.87704 
L 192.804143 270.87704 
L 192.804143 270.758113 
L 192.938452 270.758113 
L 192.938452 270.639185 
L 193.209863 270.639185 
L 193.209863 270.520257 
L 193.351262 270.520257 
L 193.351262 270.401329 
L 193.647088 270.401329 
L 193.647088 270.282401 
L 194.283378 270.282401 
L 194.283378 270.163474 
L 194.593023 270.163474 
L 194.593023 270.044546 
L 194.728377 270.044546 
L 194.728377 269.925618 
L 194.856696 269.925618 
L 194.887299 269.687762 
L 195.216526 269.687762 
L 195.216526 269.568835 
L 195.91089 269.568835 
L 195.959713 269.212051 
L 196.134478 269.212051 
L 196.134478 269.093123 
L 196.290957 269.093123 
L 196.349123 268.855268 
L 196.497637 268.855268 
L 196.544847 268.617412 
L 196.664117 268.617412 
L 196.664117 268.498484 
L 197.624695 268.498484 
L 197.630376 268.260629 
L 197.962852 268.260629 
L 197.962852 268.141701 
L 198.406842 268.141701 
L 198.406842 268.022773 
L 199.103814 268.022773 
L 199.105902 267.784918 
L 199.352566 267.784918 
L 199.352566 267.66599 
L 199.709085 267.66599 
L 199.709085 267.547062 
L 199.973757 267.547062 
L 199.995096 267.309206 
L 200.357313 267.309206 
L 200.357313 267.190279 
L 200.490384 267.190279 
L 200.490384 267.071351 
L 200.923627 267.071351 
L 200.923627 266.952423 
L 201.112106 266.952423 
L 201.21322 266.714567 
L 201.744753 266.714567 
L 201.744753 266.59564 
L 202.487299 266.59564 
L 202.591025 266.357784 
L 203.022814 266.357784 
L 203.022814 266.238856 
L 203.458407 266.238856 
L 203.458407 266.119929 
L 204.368248 266.119929 
L 204.368248 266.001001 
L 204.727314 266.001001 
L 204.727314 265.882073 
L 204.866645 265.882073 
L 204.879767 265.644217 
L 205.020493 265.644217 
L 205.020493 265.52529 
L 205.990486 265.52529 
L 205.990486 265.406362 
L 206.942354 265.406362 
L 206.942354 265.287434 
L 207.699845 265.287434 
L 207.76413 265.049578 
L 207.82628 265.049578 
L 207.82628 264.930651 
L 208.019551 264.930651 
L 208.03332 264.692795 
L 208.289172 264.692795 
L 208.289172 264.573867 
L 208.499958 264.573867 
L 208.499958 264.454939 
L 208.907495 264.454939 
L 208.907495 264.336012 
L 209.526477 264.336012 
L 209.526477 264.217084 
L 210.077846 264.217084 
L 210.077846 264.098156 
L 210.217767 264.098156 
L 210.217767 263.979228 
L 211.41893 263.979228 
L 211.41893 263.8603 
L 211.538558 263.8603 
L 211.538558 263.741373 
L 211.674642 263.741373 
L 211.674642 263.622445 
L 213.158878 263.622445 
L 213.158878 263.503517 
L 213.816136 263.503517 
L 213.919107 263.265661 
L 214.042541 263.265661 
L 214.042541 263.146734 
L 214.195888 263.146734 
L 214.195888 263.027806 
L 214.849756 263.027806 
L 214.849756 262.908878 
L 214.980663 262.908878 
L 215.055267 262.671022 
L 215.307301 262.671022 
L 215.307301 262.552095 
L 215.660686 262.552095 
L 215.660686 262.433167 
L 216.410635 262.433167 
L 216.410635 262.314239 
L 216.582752 262.314239 
L 216.582752 262.195311 
L 218.405943 262.195311 
L 218.405943 262.076383 
L 219.414829 262.076383 
L 219.414829 261.957456 
L 220.123967 261.957456 
L 220.123967 261.838528 
L 220.279486 261.838528 
L 220.298074 261.600672 
L 220.532129 261.600672 
L 220.532129 261.481745 
L 221.973946 261.481745 
L 221.973946 261.362817 
L 222.122941 261.362817 
L 222.122941 261.243889 
L 222.412228 261.243889 
L 222.412228 261.124961 
L 224.139428 261.124961 
L 224.139428 261.006033 
L 224.692252 261.006033 
L 224.692252 260.887106 
L 225.673149 260.887106 
L 225.708718 260.64925 
L 226.732781 260.64925 
L 226.732781 260.530322 
L 227.513097 260.530322 
L 227.513097 260.411394 
L 228.888918 260.411394 
L 228.888918 260.292467 
L 230.313452 260.292467 
L 230.313452 260.173539 
L 232.293157 260.173539 
L 232.293157 260.054611 
L 233.036105 260.054611 
L 233.036105 259.935683 
L 233.519752 259.935683 
L 233.519752 259.816755 
L 235.262223 259.816755 
L 235.262223 259.697828 
L 338.688 259.697828 
L 338.688 259.697828 
" style="fill:none;stroke:#ff7500;stroke-linecap:square;stroke-width:1.5;"/>
   </g>
   <g id="line2d_41">
    <defs>
     <path d="M 0 -6 
L -1.347084 -1.854102 
L -5.706339 -1.854102 
L -2.179628 0.708204 
L -3.526712 4.854102 
L -0 2.291796 
L 3.526712 4.854102 
L 2.179628 0.708204 
L 5.706339 -1.854102 
L 1.347084 -1.854102 
z
" id="mf11d5cadc8" style="stroke:#ff7500;stroke-linejoin:bevel;stroke-width:1.5;"/>
    </defs>
    <g>
     <use style="fill-opacity:0;stroke:#ff7500;stroke-linejoin:bevel;stroke-width:1.5;" x="171.338045" xlink:href="#mf11d5cadc8" y="282.294109"/>
     <use style="fill-opacity:0;stroke:#ff7500;stroke-linejoin:bevel;stroke-width:1.5;" x="230.313452" xlink:href="#mf11d5cadc8" y="260.292467"/>
     <use style="fill-opacity:0;stroke:#ff7500;stroke-linejoin:bevel;stroke-width:1.5;" x="235.262223" xlink:href="#mf11d5cadc8" y="259.697828"/>
     <use style="fill-opacity:0;stroke:#ff7500;stroke-linejoin:bevel;stroke-width:1.5;" x="235.262223" xlink:href="#mf11d5cadc8" y="259.697828"/>
     <use style="fill-opacity:0;stroke:#ff7500;stroke-linejoin:bevel;stroke-width:1.5;" x="338.688" xlink:href="#mf11d5cadc8" y="259.697828"/>
    </g>
   </g>
   <g id="line2d_42">
    <path style="fill:none;stroke:#ff7500;stroke-linecap:square;stroke-width:1.5;"/>
    <g/>
   </g>
   <g id="line2d_43">
    <path clip-path="url(#p5ea5f1af11)" d="M 139.980403 292.759755 
" style="fill:none;stroke:#ff7500;stroke-linecap:square;stroke-width:1.5;"/>
    <defs>
     <path d="M -12 12 
L 12 -12 
M -12 -12 
L 12 12 
" id="m0a7beebd66" style="stroke:#ff7500;"/>
    </defs>
    <g clip-path="url(#p5ea5f1af11)">
     <use style="fill:#ff7500;stroke:#ff7500;" x="139.980403" xlink:href="#m0a7beebd66" y="292.759755"/>
    </g>
   </g>
   <g id="line2d_44">
    <defs>
     <path d="M 0 1.5 
C 0.397805 1.5 0.77937 1.341951 1.06066 1.06066 
C 1.341951 0.77937 1.5 0.397805 1.5 0 
C 1.5 -0.397805 1.341951 -0.77937 1.06066 -1.06066 
C 0.77937 -1.341951 0.397805 -1.5 0 -1.5 
C -0.397805 -1.5 -0.77937 -1.341951 -1.06066 -1.06066 
C -1.341951 -0.77937 -1.5 -0.397805 -1.5 0 
C -1.5 0.397805 -1.341951 0.77937 -1.06066 1.06066 
C -0.77937 1.341951 -0.397805 1.5 0 1.5 
z
" id="m8d39f2d975" style="stroke:#6495ed;"/>
    </defs>
    <g>
     <use style="fill:#6495ed;stroke:#6495ed;" x="164.947404" xlink:href="#m8d39f2d975" y="296.565444"/>
     <use style="fill:#6495ed;stroke:#6495ed;" x="164.947404" xlink:href="#m8d39f2d975" y="296.565444"/>
    </g>
   </g>
   <g id="line2d_45">
    <path d="M 91.284345 298.944 
L 91.284345 298.825072 
L 116.562116 298.825072 
L 116.562116 298.706144 
L 120.33454 298.706144 
L 120.33454 298.587217 
L 125.647598 298.587217 
L 125.647598 298.468289 
L 126.904721 298.468289 
L 126.904721 298.349361 
L 129.06046 298.349361 
L 129.06046 298.230433 
L 131.108073 298.230433 
L 131.108073 298.111505 
L 131.287464 298.111505 
L 131.287464 297.992578 
L 136.189322 297.992578 
L 136.189322 297.87365 
L 140.782525 297.87365 
L 140.782525 297.754722 
L 141.563518 297.754722 
L 141.563518 297.635794 
L 141.563518 297.635794 
L 141.563518 297.516866 
L 144.013775 297.516866 
L 144.013775 297.397939 
L 145.384119 297.397939 
L 145.384119 297.279011 
L 146.107383 297.279011 
L 146.107383 297.160083 
L 151.13797 297.160083 
L 151.13797 297.041155 
L 151.292481 297.041155 
L 151.292481 296.922227 
L 152.367819 296.922227 
L 152.367819 296.8033 
L 153.003132 296.8033 
L 153.003132 296.684372 
L 164.947404 296.684372 
L 164.947404 296.565444 
L 338.688 296.565444 
" style="fill:none;stroke:#6495ed;stroke-linecap:square;stroke-width:1.5;"/>
   </g>
   <g id="line2d_46">
    <defs>
     <path d="M -0 6 
L 6 -6 
L -6 -6 
z
" id="m229fa216e6" style="stroke:#6495ed;stroke-linejoin:miter;stroke-width:1.5;"/>
    </defs>
    <g>
     <use style="fill-opacity:0;stroke:#6495ed;stroke-linejoin:miter;stroke-width:1.5;" x="164.947404" xlink:href="#m229fa216e6" y="296.684372"/>
     <use style="fill-opacity:0;stroke:#6495ed;stroke-linejoin:miter;stroke-width:1.5;" x="164.947404" xlink:href="#m229fa216e6" y="296.684372"/>
     <use style="fill-opacity:0;stroke:#6495ed;stroke-linejoin:miter;stroke-width:1.5;" x="164.947404" xlink:href="#m229fa216e6" y="296.565444"/>
     <use style="fill-opacity:0;stroke:#6495ed;stroke-linejoin:miter;stroke-width:1.5;" x="164.947404" xlink:href="#m229fa216e6" y="296.565444"/>
     <use style="fill-opacity:0;stroke:#6495ed;stroke-linejoin:miter;stroke-width:1.5;" x="338.688" xlink:href="#m229fa216e6" y="296.565444"/>
    </g>
   </g>
   <g id="line2d_47">
    <path style="fill:none;stroke:#6495ed;stroke-linecap:square;stroke-width:1.5;"/>
    <g/>
   </g>
   <g id="line2d_48">
    <path clip-path="url(#p5ea5f1af11)" d="M 104.355088 298.825072 
" style="fill:none;stroke:#6495ed;stroke-linecap:square;stroke-width:1.5;"/>
    <defs>
     <path d="M -12 12 
L 12 -12 
M -12 -12 
L 12 12 
" id="m11ff55e526" style="stroke:#6495ed;"/>
    </defs>
    <g clip-path="url(#p5ea5f1af11)">
     <use style="fill:#6495ed;stroke:#6495ed;" x="104.355088" xlink:href="#m11ff55e526" y="298.825072"/>
    </g>
   </g>
   <g id="line2d_49">
    <defs>
     <path d="M 0 1.5 
C 0.397805 1.5 0.77937 1.341951 1.06066 1.06066 
C 1.341951 0.77937 1.5 0.397805 1.5 0 
C 1.5 -0.397805 1.341951 -0.77937 1.06066 -1.06066 
C 0.77937 -1.341951 0.397805 -1.5 0 -1.5 
C -0.397805 -1.5 -0.77937 -1.341951 -1.06066 -1.06066 
C -1.341951 -0.77937 -1.5 -0.397805 -1.5 0 
C -1.5 0.397805 -1.341951 0.77937 -1.06066 1.06066 
C -0.77937 1.341951 -0.397805 1.5 0 1.5 
z
" id="m75c49986d0" style="stroke:#ff0000;"/>
    </defs>
    <g>
     <use style="fill:#ff0000;stroke:#ff0000;" x="157.398103" xlink:href="#m75c49986d0" y="295.376166"/>
     <use style="fill:#ff0000;stroke:#ff0000;" x="157.398103" xlink:href="#m75c49986d0" y="295.376166"/>
    </g>
   </g>
   <g id="line2d_50">
    <path d="M 91.029752 298.944 
L 91.029752 298.825072 
L 102.859376 298.825072 
L 102.859376 298.706144 
L 105.51043 298.706144 
L 105.51043 298.587217 
L 107.811151 298.587217 
L 107.811151 298.230433 
L 111.663381 298.230433 
L 111.663381 298.111505 
L 113.311233 298.111505 
L 113.311233 297.992578 
L 113.382559 297.992578 
L 113.382559 297.87365 
L 116.202531 297.87365 
L 116.202531 297.754722 
L 121.887753 297.754722 
L 121.887753 297.635794 
L 121.931406 297.635794 
L 121.931406 297.516866 
L 122.823744 297.516866 
L 122.823744 297.397939 
L 122.865118 297.397939 
L 122.865118 297.279011 
L 127.642832 297.279011 
L 127.642832 297.160083 
L 132.730358 297.160083 
L 132.730358 297.041155 
L 134.236034 297.041155 
L 134.236034 296.922227 
L 136.246972 296.922227 
L 136.246972 296.8033 
L 137.053015 296.8033 
L 137.053015 296.684372 
L 137.664982 296.684372 
L 137.664982 296.565444 
L 139.87165 296.565444 
L 139.87165 296.446516 
L 144.136243 296.446516 
L 144.136243 296.327589 
L 149.744125 296.327589 
L 149.744125 296.208661 
L 151.251953 296.208661 
L 151.251953 296.089733 
L 153.207444 296.089733 
L 153.207444 295.970805 
L 154.527275 295.970805 
L 154.527275 295.851877 
L 156.622378 295.851877 
L 156.622378 295.73295 
L 157.087296 295.73295 
L 157.087296 295.614022 
L 157.15106 295.614022 
L 157.15106 295.495094 
L 157.398103 295.495094 
L 157.398103 295.376166 
L 338.688 295.376166 
" style="fill:none;stroke:#ff0000;stroke-linecap:square;stroke-width:1.5;"/>
   </g>
   <g id="line2d_51">
    <defs>
     <path d="M 0 -6 
L -5.196152 -3 
L -5.196152 3 
L -0 6 
L 5.196152 3 
L 5.196152 -3 
z
" id="md2c83f939c" style="stroke:#ff0000;stroke-linejoin:miter;stroke-width:1.5;"/>
    </defs>
    <g>
     <use style="fill-opacity:0;stroke:#ff0000;stroke-linejoin:miter;stroke-width:1.5;" x="157.398103" xlink:href="#md2c83f939c" y="295.495094"/>
     <use style="fill-opacity:0;stroke:#ff0000;stroke-linejoin:miter;stroke-width:1.5;" x="157.398103" xlink:href="#md2c83f939c" y="295.376166"/>
     <use style="fill-opacity:0;stroke:#ff0000;stroke-linejoin:miter;stroke-width:1.5;" x="157.398103" xlink:href="#md2c83f939c" y="295.376166"/>
     <use style="fill-opacity:0;stroke:#ff0000;stroke-linejoin:miter;stroke-width:1.5;" x="157.398103" xlink:href="#md2c83f939c" y="295.376166"/>
     <use style="fill-opacity:0;stroke:#ff0000;stroke-linejoin:miter;stroke-width:1.5;" x="338.688" xlink:href="#md2c83f939c" y="295.376166"/>
    </g>
   </g>
   <g id="line2d_52">
    <path style="fill:none;stroke:#ff0000;stroke-linecap:square;stroke-width:1.5;"/>
    <g/>
   </g>
   <g id="line2d_53">
    <path clip-path="url(#p5ea5f1af11)" d="M 106.593963 298.587217 
" style="fill:none;stroke:#ff0000;stroke-linecap:square;stroke-width:1.5;"/>
    <defs>
     <path d="M -12 12 
L 12 -12 
M -12 -12 
L 12 12 
" id="m45ea4e136b" style="stroke:#ff0000;"/>
    </defs>
    <g clip-path="url(#p5ea5f1af11)">
     <use style="fill:#ff0000;stroke:#ff0000;" x="106.593963" xlink:href="#m45ea4e136b" y="298.587217"/>
    </g>
   </g>
   <g id="line2d_54">
    <path d="M 338.688 296.565444 
L 369.60768 293.092752 
" style="fill:none;stroke:#ff00ff;stroke-linecap:square;stroke-width:1.5;"/>
    <g>
     <use style="fill-opacity:0;stroke:#ff00ff;stroke-linejoin:miter;stroke-width:1.5;" x="338.688" xlink:href="#ma89f099be2" y="296.565444"/>
     <use style="fill-opacity:0;stroke:#ff00ff;stroke-linejoin:miter;stroke-width:1.5;" x="369.60768" xlink:href="#ma89f099be2" y="293.092752"/>
    </g>
   </g>
   <g id="line2d_55">
    <path d="M 338.688 296.565444 
L 369.60768 222.877782 
" style="fill:none;stroke:#6495ed;stroke-linecap:square;stroke-width:1.5;"/>
    <g>
     <use style="fill-opacity:0;stroke:#6495ed;stroke-linejoin:miter;stroke-width:1.5;" x="338.688" xlink:href="#m229fa216e6" y="296.565444"/>
     <use style="fill-opacity:0;stroke:#6495ed;stroke-linejoin:miter;stroke-width:1.5;" x="369.60768" xlink:href="#m229fa216e6" y="222.877782"/>
    </g>
   </g>
   <g id="line2d_56">
    <path d="M 338.688 295.376166 
L 369.60768 152.662812 
" style="fill:none;stroke:#ff0000;stroke-linecap:square;stroke-width:1.5;"/>
    <g>
     <use style="fill-opacity:0;stroke:#ff0000;stroke-linejoin:miter;stroke-width:1.5;" x="338.688" xlink:href="#md2c83f939c" y="295.376166"/>
     <use style="fill-opacity:0;stroke:#ff0000;stroke-linejoin:miter;stroke-width:1.5;" x="369.60768" xlink:href="#md2c83f939c" y="152.662812"/>
    </g>
   </g>
   <g id="line2d_57">
    <path d="M 338.688 259.697828 
L 369.60768 82.447842 
" style="fill:none;stroke:#ff7500;stroke-linecap:square;stroke-width:1.5;"/>
    <g>
     <use style="fill-opacity:0;stroke:#ff7500;stroke-linejoin:bevel;stroke-width:1.5;" x="338.688" xlink:href="#mf11d5cadc8" y="259.697828"/>
     <use style="fill-opacity:0;stroke:#ff7500;stroke-linejoin:bevel;stroke-width:1.5;" x="369.60768" xlink:href="#mf11d5cadc8" y="82.447842"/>
    </g>
   </g>
   <g id="line2d_58">
    <path d="M 338.688 244.237214 
L 369.60768 12.232871 
" style="fill:none;stroke:#000080;stroke-linecap:square;stroke-width:1.5;"/>
    <g>
     <use style="fill-opacity:0;stroke:#000080;stroke-width:1.5;" x="338.688" xlink:href="#mff96a3d661" y="244.237214"/>
     <use style="fill-opacity:0;stroke:#000080;stroke-width:1.5;" x="369.60768" xlink:href="#mff96a3d661" y="12.232871"/>
    </g>
   </g>
   <g id="line2d_59">
    <path d="M 338.688 298.944 
L 338.688 6.381624 
" style="fill:none;stroke:#000000;stroke-linecap:square;stroke-width:1.5;"/>
   </g>
   <g id="patch_3">
    <path d="M 57.6 298.944 
L 57.6 3.456 
" style="fill:none;stroke:#000000;stroke-linecap:square;stroke-linejoin:miter;stroke-width:0.8;"/>
   </g>
   <g id="patch_4">
    <path d="M 338.688 298.944 
L 338.688 3.456 
" style="fill:none;stroke:#000000;stroke-linecap:square;stroke-linejoin:miter;stroke-width:0.8;"/>
   </g>
   <g id="patch_5">
    <path d="M 57.6 298.944 
L 338.688 298.944 
" style="fill:none;stroke:#000000;stroke-linecap:square;stroke-linejoin:miter;stroke-width:0.8;"/>
   </g>
   <g id="patch_6">
    <path d="M 57.6 3.456 
L 338.688 3.456 
" style="fill:none;stroke:#000000;stroke-linecap:square;stroke-linejoin:miter;stroke-width:0.8;"/>
   </g>
   <g id="text_13">
    <!-- cobyla -->
    <g transform="translate(375.22944 297.78369)scale(0.17 -0.17)">
     <defs>
      <path d="M 48.6875 27.296875 
Q 48.6875 37.203125 44.609375 42.84375 
Q 40.53125 48.484375 33.40625 48.484375 
Q 26.265625 48.484375 22.1875 42.84375 
Q 18.109375 37.203125 18.109375 27.296875 
Q 18.109375 17.390625 22.1875 11.75 
Q 26.265625 6.109375 33.40625 6.109375 
Q 40.53125 6.109375 44.609375 11.75 
Q 48.6875 17.390625 48.6875 27.296875 
z
M 18.109375 46.390625 
Q 20.953125 51.265625 25.265625 53.625 
Q 29.59375 56 35.59375 56 
Q 45.5625 56 51.78125 48.09375 
Q 58.015625 40.1875 58.015625 27.296875 
Q 58.015625 14.40625 51.78125 6.484375 
Q 45.5625 -1.421875 35.59375 -1.421875 
Q 29.59375 -1.421875 25.265625 0.953125 
Q 20.953125 3.328125 18.109375 8.203125 
L 18.109375 0 
L 9.078125 0 
L 9.078125 75.984375 
L 18.109375 75.984375 
z
" id="DejaVuSans-98"/>
      <path d="M 32.171875 -5.078125 
Q 28.375 -14.84375 24.75 -17.8125 
Q 21.140625 -20.796875 15.09375 -20.796875 
L 7.90625 -20.796875 
L 7.90625 -13.28125 
L 13.1875 -13.28125 
Q 16.890625 -13.28125 18.9375 -11.515625 
Q 21 -9.765625 23.484375 -3.21875 
L 25.09375 0.875 
L 2.984375 54.6875 
L 12.5 54.6875 
L 29.59375 11.921875 
L 46.6875 54.6875 
L 56.203125 54.6875 
z
" id="DejaVuSans-121"/>
     </defs>
     <use xlink:href="#DejaVuSans-99"/>
     <use x="54.980469" xlink:href="#DejaVuSans-111"/>
     <use x="116.162109" xlink:href="#DejaVuSans-98"/>
     <use x="179.638672" xlink:href="#DejaVuSans-121"/>
     <use x="238.818359" xlink:href="#DejaVuSans-108"/>
     <use x="266.601562" xlink:href="#DejaVuSans-97"/>
    </g>
   </g>
   <g id="text_14">
    <!-- slsqp -->
    <g transform="translate(375.22944 227.56872)scale(0.17 -0.17)">
     <defs>
      <path d="M 14.796875 27.296875 
Q 14.796875 17.390625 18.875 11.75 
Q 22.953125 6.109375 30.078125 6.109375 
Q 37.203125 6.109375 41.296875 11.75 
Q 45.40625 17.390625 45.40625 27.296875 
Q 45.40625 37.203125 41.296875 42.84375 
Q 37.203125 48.484375 30.078125 48.484375 
Q 22.953125 48.484375 18.875 42.84375 
Q 14.796875 37.203125 14.796875 27.296875 
z
M 45.40625 8.203125 
Q 42.578125 3.328125 38.25 0.953125 
Q 33.9375 -1.421875 27.875 -1.421875 
Q 17.96875 -1.421875 11.734375 6.484375 
Q 5.515625 14.40625 5.515625 27.296875 
Q 5.515625 40.1875 11.734375 48.09375 
Q 17.96875 56 27.875 56 
Q 33.9375 56 38.25 53.625 
Q 42.578125 51.265625 45.40625 46.390625 
L 45.40625 54.6875 
L 54.390625 54.6875 
L 54.390625 -20.796875 
L 45.40625 -20.796875 
z
" id="DejaVuSans-113"/>
     </defs>
     <use xlink:href="#DejaVuSans-115"/>
     <use x="52.099609" xlink:href="#DejaVuSans-108"/>
     <use x="79.882812" xlink:href="#DejaVuSans-115"/>
     <use x="131.982422" xlink:href="#DejaVuSans-113"/>
     <use x="195.458984" xlink:href="#DejaVuSans-112"/>
    </g>
   </g>
   <g id="text_15">
    <!-- trust-con -->
    <g transform="translate(375.22944 157.353749)scale(0.17 -0.17)">
     <use xlink:href="#DejaVuSans-116"/>
     <use x="39.208984" xlink:href="#DejaVuSans-114"/>
     <use x="80.322266" xlink:href="#DejaVuSans-117"/>
     <use x="143.701172" xlink:href="#DejaVuSans-115"/>
     <use x="195.800781" xlink:href="#DejaVuSans-116"/>
     <use x="235.009766" xlink:href="#DejaVuSans-45"/>
     <use x="271.09375" xlink:href="#DejaVuSans-99"/>
     <use x="326.074219" xlink:href="#DejaVuSans-111"/>
     <use x="387.255859" xlink:href="#DejaVuSans-110"/>
    </g>
   </g>
   <g id="text_16">
    <!-- fmincon o -->
    <g transform="translate(375.22944 87.138779)scale(0.17 -0.17)">
     <use xlink:href="#DejaVuSans-102"/>
     <use x="35.205078" xlink:href="#DejaVuSans-109"/>
     <use x="132.617188" xlink:href="#DejaVuSans-105"/>
     <use x="160.400391" xlink:href="#DejaVuSans-110"/>
     <use x="223.779297" xlink:href="#DejaVuSans-99"/>
     <use x="278.759766" xlink:href="#DejaVuSans-111"/>
     <use x="339.941406" xlink:href="#DejaVuSans-110"/>
     <use x="403.320312" xlink:href="#DejaVuSans-32"/>
     <use x="435.107422" xlink:href="#DejaVuSans-111"/>
    </g>
   </g>
   <g id="text_17">
    <!-- alN1 -->
    <g transform="translate(375.22944 16.923809)scale(0.17 -0.17)">
     <defs>
      <path d="M 9.8125 72.90625 
L 23.09375 72.90625 
L 55.421875 11.921875 
L 55.421875 72.90625 
L 64.984375 72.90625 
L 64.984375 0 
L 51.703125 0 
L 19.390625 60.984375 
L 19.390625 0 
L 9.8125 0 
z
" id="DejaVuSans-78"/>
     </defs>
     <use xlink:href="#DejaVuSans-97"/>
     <use x="61.279297" xlink:href="#DejaVuSans-108"/>
     <use x="89.0625" xlink:href="#DejaVuSans-78"/>
     <use x="163.867188" xlink:href="#DejaVuSans-49"/>
    </g>
   </g>
   <g id="text_18">
    <!-- bbob-constrained f43-f48, 10-D -->
    <g transform="translate(60.41088 14.161286)scale(0.102 -0.102)">
     <defs>
      <path d="M 40.578125 39.3125 
Q 47.65625 37.796875 51.625 33 
Q 55.609375 28.21875 55.609375 21.1875 
Q 55.609375 10.40625 48.1875 4.484375 
Q 40.765625 -1.421875 27.09375 -1.421875 
Q 22.515625 -1.421875 17.65625 -0.515625 
Q 12.796875 0.390625 7.625 2.203125 
L 7.625 11.71875 
Q 11.71875 9.328125 16.59375 8.109375 
Q 21.484375 6.890625 26.8125 6.890625 
Q 36.078125 6.890625 40.9375 10.546875 
Q 45.796875 14.203125 45.796875 21.1875 
Q 45.796875 27.640625 41.28125 31.265625 
Q 36.765625 34.90625 28.71875 34.90625 
L 20.21875 34.90625 
L 20.21875 43.015625 
L 29.109375 43.015625 
Q 36.375 43.015625 40.234375 45.921875 
Q 44.09375 48.828125 44.09375 54.296875 
Q 44.09375 59.90625 40.109375 62.90625 
Q 36.140625 65.921875 28.71875 65.921875 
Q 24.65625 65.921875 20.015625 65.03125 
Q 15.375 64.15625 9.8125 62.3125 
L 9.8125 71.09375 
Q 15.4375 72.65625 20.34375 73.4375 
Q 25.25 74.21875 29.59375 74.21875 
Q 40.828125 74.21875 47.359375 69.109375 
Q 53.90625 64.015625 53.90625 55.328125 
Q 53.90625 49.265625 50.4375 45.09375 
Q 46.96875 40.921875 40.578125 39.3125 
z
" id="DejaVuSans-51"/>
      <path d="M 19.671875 64.796875 
L 19.671875 8.109375 
L 31.59375 8.109375 
Q 46.6875 8.109375 53.6875 14.9375 
Q 60.6875 21.78125 60.6875 36.53125 
Q 60.6875 51.171875 53.6875 57.984375 
Q 46.6875 64.796875 31.59375 64.796875 
z
M 9.8125 72.90625 
L 30.078125 72.90625 
Q 51.265625 72.90625 61.171875 64.09375 
Q 71.09375 55.28125 71.09375 36.53125 
Q 71.09375 17.671875 61.125 8.828125 
Q 51.171875 0 30.078125 0 
L 9.8125 0 
z
" id="DejaVuSans-68"/>
     </defs>
     <use xlink:href="#DejaVuSans-98"/>
     <use x="63.476562" xlink:href="#DejaVuSans-98"/>
     <use x="126.953125" xlink:href="#DejaVuSans-111"/>
     <use x="188.134766" xlink:href="#DejaVuSans-98"/>
     <use x="251.611328" xlink:href="#DejaVuSans-45"/>
     <use x="287.695312" xlink:href="#DejaVuSans-99"/>
     <use x="342.675781" xlink:href="#DejaVuSans-111"/>
     <use x="403.857422" xlink:href="#DejaVuSans-110"/>
     <use x="467.236328" xlink:href="#DejaVuSans-115"/>
     <use x="519.335938" xlink:href="#DejaVuSans-116"/>
     <use x="558.544922" xlink:href="#DejaVuSans-114"/>
     <use x="599.658203" xlink:href="#DejaVuSans-97"/>
     <use x="660.9375" xlink:href="#DejaVuSans-105"/>
     <use x="688.720703" xlink:href="#DejaVuSans-110"/>
     <use x="752.099609" xlink:href="#DejaVuSans-101"/>
     <use x="813.623047" xlink:href="#DejaVuSans-100"/>
     <use x="877.099609" xlink:href="#DejaVuSans-32"/>
     <use x="908.886719" xlink:href="#DejaVuSans-102"/>
     <use x="944.091797" xlink:href="#DejaVuSans-52"/>
     <use x="1007.714844" xlink:href="#DejaVuSans-51"/>
     <use x="1071.337891" xlink:href="#DejaVuSans-45"/>
     <use x="1107.421875" xlink:href="#DejaVuSans-102"/>
     <use x="1142.626953" xlink:href="#DejaVuSans-52"/>
     <use x="1206.25" xlink:href="#DejaVuSans-56"/>
     <use x="1269.873047" xlink:href="#DejaVuSans-44"/>
     <use x="1301.660156" xlink:href="#DejaVuSans-32"/>
     <use x="1333.447266" xlink:href="#DejaVuSans-49"/>
     <use x="1397.070312" xlink:href="#DejaVuSans-48"/>
     <use x="1460.693359" xlink:href="#DejaVuSans-45"/>
     <use x="1496.777344" xlink:href="#DejaVuSans-68"/>
    </g>
    <!-- 41 targets: 100..1e-06 -->
    <g transform="translate(60.41088 25.583055)scale(0.102 -0.102)">
     <defs>
      <path d="M 11.71875 12.40625 
L 22.015625 12.40625 
L 22.015625 0 
L 11.71875 0 
z
M 11.71875 51.703125 
L 22.015625 51.703125 
L 22.015625 39.3125 
L 11.71875 39.3125 
z
" id="DejaVuSans-58"/>
     </defs>
     <use xlink:href="#DejaVuSans-52"/>
     <use x="63.623047" xlink:href="#DejaVuSans-49"/>
     <use x="127.246094" xlink:href="#DejaVuSans-32"/>
     <use x="159.033203" xlink:href="#DejaVuSans-116"/>
     <use x="198.242188" xlink:href="#DejaVuSans-97"/>
     <use x="259.521484" xlink:href="#DejaVuSans-114"/>
     <use x="298.884766" xlink:href="#DejaVuSans-103"/>
     <use x="362.361328" xlink:href="#DejaVuSans-101"/>
     <use x="423.884766" xlink:href="#DejaVuSans-116"/>
     <use x="463.09375" xlink:href="#DejaVuSans-115"/>
     <use x="515.193359" xlink:href="#DejaVuSans-58"/>
     <use x="548.884766" xlink:href="#DejaVuSans-32"/>
     <use x="580.671875" xlink:href="#DejaVuSans-49"/>
     <use x="644.294922" xlink:href="#DejaVuSans-48"/>
     <use x="707.917969" xlink:href="#DejaVuSans-48"/>
     <use x="771.541016" xlink:href="#DejaVuSans-46"/>
     <use x="803.328125" xlink:href="#DejaVuSans-46"/>
     <use x="835.115234" xlink:href="#DejaVuSans-49"/>
     <use x="898.738281" xlink:href="#DejaVuSans-101"/>
     <use x="960.261719" xlink:href="#DejaVuSans-45"/>
     <use x="996.345703" xlink:href="#DejaVuSans-48"/>
     <use x="1059.96875" xlink:href="#DejaVuSans-54"/>
    </g>
    <!-- 30, 15 instances -->
    <g transform="translate(60.41088 37.004824)scale(0.102 -0.102)">
     <defs>
      <path d="M 10.796875 72.90625 
L 49.515625 72.90625 
L 49.515625 64.59375 
L 19.828125 64.59375 
L 19.828125 46.734375 
Q 21.96875 47.46875 24.109375 47.828125 
Q 26.265625 48.1875 28.421875 48.1875 
Q 40.625 48.1875 47.75 41.5 
Q 54.890625 34.8125 54.890625 23.390625 
Q 54.890625 11.625 47.5625 5.09375 
Q 40.234375 -1.421875 26.90625 -1.421875 
Q 22.3125 -1.421875 17.546875 -0.640625 
Q 12.796875 0.140625 7.71875 1.703125 
L 7.71875 11.625 
Q 12.109375 9.234375 16.796875 8.0625 
Q 21.484375 6.890625 26.703125 6.890625 
Q 35.15625 6.890625 40.078125 11.328125 
Q 45.015625 15.765625 45.015625 23.390625 
Q 45.015625 31 40.078125 35.4375 
Q 35.15625 39.890625 26.703125 39.890625 
Q 22.75 39.890625 18.8125 39.015625 
Q 14.890625 38.140625 10.796875 36.28125 
z
" id="DejaVuSans-53"/>
     </defs>
     <use xlink:href="#DejaVuSans-51"/>
     <use x="63.623047" xlink:href="#DejaVuSans-48"/>
     <use x="127.246094" xlink:href="#DejaVuSans-44"/>
     <use x="159.033203" xlink:href="#DejaVuSans-32"/>
     <use x="190.820312" xlink:href="#DejaVuSans-49"/>
     <use x="254.443359" xlink:href="#DejaVuSans-53"/>
     <use x="318.066406" xlink:href="#DejaVuSans-32"/>
     <use x="349.853516" xlink:href="#DejaVuSans-105"/>
     <use x="377.636719" xlink:href="#DejaVuSans-110"/>
     <use x="441.015625" xlink:href="#DejaVuSans-115"/>
     <use x="493.115234" xlink:href="#DejaVuSans-116"/>
     <use x="532.324219" xlink:href="#DejaVuSans-97"/>
     <use x="593.603516" xlink:href="#DejaVuSans-110"/>
     <use x="656.982422" xlink:href="#DejaVuSans-99"/>
     <use x="711.962891" xlink:href="#DejaVuSans-101"/>
     <use x="773.486328" xlink:href="#DejaVuSans-115"/>
    </g>
   </g>
   <g id="text_19">
    <!-- v5z33 -->
    <g style="fill:#808080;" transform="translate(183.016656 293.909432)scale(0.1 -0.1)">
     <defs>
      <path d="M 5.515625 54.6875 
L 48.1875 54.6875 
L 48.1875 46.484375 
L 14.40625 7.171875 
L 48.1875 7.171875 
L 48.1875 0 
L 4.296875 0 
L 4.296875 8.203125 
L 38.09375 47.515625 
L 5.515625 47.515625 
z
" id="DejaVuSans-122"/>
     </defs>
     <use xlink:href="#DejaVuSans-118"/>
     <use x="59.179688" xlink:href="#DejaVuSans-53"/>
     <use x="122.802734" xlink:href="#DejaVuSans-122"/>
     <use x="175.292969" xlink:href="#DejaVuSans-51"/>
     <use x="238.916016" xlink:href="#DejaVuSans-51"/>
    </g>
   </g>
  </g>
 </g>
 <defs>
  <clipPath id="p5ea5f1af11">
   <rect height="295.488" width="281.088" x="57.6" y="3.456"/>
  </clipPath>
 </defs>
</svg>
