<?xml version="1.0" encoding="utf-8" standalone="no"?>
<!DOCTYPE svg PUBLIC "-//W3C//DTD SVG 1.1//EN"
  "http://www.w3.org/Graphics/SVG/1.1/DTD/svg11.dtd">
<!-- Created with matplotlib (https://matplotlib.org/) -->
<svg height="345.6pt" version="1.1" viewBox="0 0 460.8 345.6" width="460.8pt" xmlns="http://www.w3.org/2000/svg" xmlns:xlink="http://www.w3.org/1999/xlink">
 <metadata>
  <rdf:RDF xmlns:cc="http://creativecommons.org/ns#" xmlns:dc="http://purl.org/dc/elements/1.1/" xmlns:rdf="http://www.w3.org/1999/02/22-rdf-syntax-ns#">
   <cc:Work>
    <dc:type rdf:resource="http://purl.org/dc/dcmitype/StillImage"/>
    <dc:date>2021-03-02T18:25:29.735998</dc:date>
    <dc:format>image/svg+xml</dc:format>
    <dc:creator>
     <cc:Agent>
      <dc:title>Matplotlib v3.3.3, https://matplotlib.org/</dc:title>
     </cc:Agent>
    </dc:creator>
   </cc:Work>
  </rdf:RDF>
 </metadata>
 <defs>
  <style type="text/css">*{stroke-linecap:butt;stroke-linejoin:round;}</style>
 </defs>
 <g id="figure_1">
  <g id="patch_1">
   <path d="M 0 345.6 
L 460.8 345.6 
L 460.8 0 
L 0 0 
z
" style="fill:#ffffff;"/>
  </g>
  <g id="axes_1">
   <g id="patch_2">
    <path d="M 57.6 298.944 
L 338.688 298.944 
L 338.688 3.456 
L 57.6 3.456 
z
" style="fill:#ffffff;"/>
   </g>
   <g id="matplotlib.axis_1">
    <g id="xtick_1">
     <g id="line2d_1">
      <path clip-path="url(#pccd31bdd2b)" d="M 57.6 298.944 
L 57.6 3.456 
" style="fill:none;stroke:#b0b0b0;stroke-linecap:square;stroke-width:0.8;"/>
     </g>
     <g id="line2d_2">
      <defs>
       <path d="M 0 0 
L 0 3.5 
" id="mb6567d9a27" style="stroke:#000000;stroke-width:0.8;"/>
      </defs>
      <g>
       <use style="stroke:#000000;stroke-width:0.8;" x="57.6" xlink:href="#mb6567d9a27" y="298.944"/>
      </g>
     </g>
     <g id="text_1">
      <!-- 0 -->
      <g transform="translate(51.2375 321.140875)scale(0.2 -0.2)">
       <defs>
        <path d="M 31.78125 66.40625 
Q 24.171875 66.40625 20.328125 58.90625 
Q 16.5 51.421875 16.5 36.375 
Q 16.5 21.390625 20.328125 13.890625 
Q 24.171875 6.390625 31.78125 6.390625 
Q 39.453125 6.390625 43.28125 13.890625 
Q 47.125 21.390625 47.125 36.375 
Q 47.125 51.421875 43.28125 58.90625 
Q 39.453125 66.40625 31.78125 66.40625 
z
M 31.78125 74.21875 
Q 44.046875 74.21875 50.515625 64.515625 
Q 56.984375 54.828125 56.984375 36.375 
Q 56.984375 17.96875 50.515625 8.265625 
Q 44.046875 -1.421875 31.78125 -1.421875 
Q 19.53125 -1.421875 13.0625 8.265625 
Q 6.59375 17.96875 6.59375 36.375 
Q 6.59375 54.828125 13.0625 64.515625 
Q 19.53125 74.21875 31.78125 74.21875 
z
" id="DejaVuSans-48"/>
       </defs>
       <use xlink:href="#DejaVuSans-48"/>
      </g>
     </g>
    </g>
    <g id="xtick_2">
     <g id="line2d_3">
      <path clip-path="url(#pccd31bdd2b)" d="M 137.910857 298.944 
L 137.910857 3.456 
" style="fill:none;stroke:#b0b0b0;stroke-linecap:square;stroke-width:0.8;"/>
     </g>
     <g id="line2d_4">
      <g>
       <use style="stroke:#000000;stroke-width:0.8;" x="137.910857" xlink:href="#mb6567d9a27" y="298.944"/>
      </g>
     </g>
     <g id="text_2">
      <!-- 2 -->
      <g transform="translate(131.548357 321.140875)scale(0.2 -0.2)">
       <defs>
        <path d="M 19.1875 8.296875 
L 53.609375 8.296875 
L 53.609375 0 
L 7.328125 0 
L 7.328125 8.296875 
Q 12.9375 14.109375 22.625 23.890625 
Q 32.328125 33.6875 34.8125 36.53125 
Q 39.546875 41.84375 41.421875 45.53125 
Q 43.3125 49.21875 43.3125 52.78125 
Q 43.3125 58.59375 39.234375 62.25 
Q 35.15625 65.921875 28.609375 65.921875 
Q 23.96875 65.921875 18.8125 64.3125 
Q 13.671875 62.703125 7.8125 59.421875 
L 7.8125 69.390625 
Q 13.765625 71.78125 18.9375 73 
Q 24.125 74.21875 28.421875 74.21875 
Q 39.75 74.21875 46.484375 68.546875 
Q 53.21875 62.890625 53.21875 53.421875 
Q 53.21875 48.921875 51.53125 44.890625 
Q 49.859375 40.875 45.40625 35.40625 
Q 44.1875 33.984375 37.640625 27.21875 
Q 31.109375 20.453125 19.1875 8.296875 
z
" id="DejaVuSans-50"/>
       </defs>
       <use xlink:href="#DejaVuSans-50"/>
      </g>
     </g>
    </g>
    <g id="xtick_3">
     <g id="line2d_5">
      <path clip-path="url(#pccd31bdd2b)" d="M 218.221714 298.944 
L 218.221714 3.456 
" style="fill:none;stroke:#b0b0b0;stroke-linecap:square;stroke-width:0.8;"/>
     </g>
     <g id="line2d_6">
      <g>
       <use style="stroke:#000000;stroke-width:0.8;" x="218.221714" xlink:href="#mb6567d9a27" y="298.944"/>
      </g>
     </g>
     <g id="text_3">
      <!-- 4 -->
      <g transform="translate(211.859214 321.140875)scale(0.2 -0.2)">
       <defs>
        <path d="M 37.796875 64.3125 
L 12.890625 25.390625 
L 37.796875 25.390625 
z
M 35.203125 72.90625 
L 47.609375 72.90625 
L 47.609375 25.390625 
L 58.015625 25.390625 
L 58.015625 17.1875 
L 47.609375 17.1875 
L 47.609375 0 
L 37.796875 0 
L 37.796875 17.1875 
L 4.890625 17.1875 
L 4.890625 26.703125 
z
" id="DejaVuSans-52"/>
       </defs>
       <use xlink:href="#DejaVuSans-52"/>
      </g>
     </g>
    </g>
    <g id="xtick_4">
     <g id="line2d_7">
      <path clip-path="url(#pccd31bdd2b)" d="M 298.532571 298.944 
L 298.532571 3.456 
" style="fill:none;stroke:#b0b0b0;stroke-linecap:square;stroke-width:0.8;"/>
     </g>
     <g id="line2d_8">
      <g>
       <use style="stroke:#000000;stroke-width:0.8;" x="298.532571" xlink:href="#mb6567d9a27" y="298.944"/>
      </g>
     </g>
     <g id="text_4">
      <!-- 6 -->
      <g transform="translate(292.170071 321.140875)scale(0.2 -0.2)">
       <defs>
        <path d="M 33.015625 40.375 
Q 26.375 40.375 22.484375 35.828125 
Q 18.609375 31.296875 18.609375 23.390625 
Q 18.609375 15.53125 22.484375 10.953125 
Q 26.375 6.390625 33.015625 6.390625 
Q 39.65625 6.390625 43.53125 10.953125 
Q 47.40625 15.53125 47.40625 23.390625 
Q 47.40625 31.296875 43.53125 35.828125 
Q 39.65625 40.375 33.015625 40.375 
z
M 52.59375 71.296875 
L 52.59375 62.3125 
Q 48.875 64.0625 45.09375 64.984375 
Q 41.3125 65.921875 37.59375 65.921875 
Q 27.828125 65.921875 22.671875 59.328125 
Q 17.53125 52.734375 16.796875 39.40625 
Q 19.671875 43.65625 24.015625 45.921875 
Q 28.375 48.1875 33.59375 48.1875 
Q 44.578125 48.1875 50.953125 41.515625 
Q 57.328125 34.859375 57.328125 23.390625 
Q 57.328125 12.15625 50.6875 5.359375 
Q 44.046875 -1.421875 33.015625 -1.421875 
Q 20.359375 -1.421875 13.671875 8.265625 
Q 6.984375 17.96875 6.984375 36.375 
Q 6.984375 53.65625 15.1875 63.9375 
Q 23.390625 74.21875 37.203125 74.21875 
Q 40.921875 74.21875 44.703125 73.484375 
Q 48.484375 72.75 52.59375 71.296875 
z
" id="DejaVuSans-54"/>
       </defs>
       <use xlink:href="#DejaVuSans-54"/>
      </g>
     </g>
    </g>
    <g id="xtick_5">
     <g id="line2d_9">
      <path clip-path="url(#pccd31bdd2b)" d="M 97.755429 298.944 
L 97.755429 3.456 
" style="fill:none;stroke:#b0b0b0;stroke-linecap:square;stroke-width:0.8;"/>
     </g>
     <g id="line2d_10">
      <defs>
       <path d="M 0 0 
L 0 2 
" id="m3409840b4c" style="stroke:#000000;stroke-width:0.6;"/>
      </defs>
      <g>
       <use style="stroke:#000000;stroke-width:0.6;" x="97.755429" xlink:href="#m3409840b4c" y="298.944"/>
      </g>
     </g>
    </g>
    <g id="xtick_6">
     <g id="line2d_11">
      <path clip-path="url(#pccd31bdd2b)" d="M 178.066286 298.944 
L 178.066286 3.456 
" style="fill:none;stroke:#b0b0b0;stroke-linecap:square;stroke-width:0.8;"/>
     </g>
     <g id="line2d_12">
      <g>
       <use style="stroke:#000000;stroke-width:0.6;" x="178.066286" xlink:href="#m3409840b4c" y="298.944"/>
      </g>
     </g>
    </g>
    <g id="xtick_7">
     <g id="line2d_13">
      <path clip-path="url(#pccd31bdd2b)" d="M 258.377143 298.944 
L 258.377143 3.456 
" style="fill:none;stroke:#b0b0b0;stroke-linecap:square;stroke-width:0.8;"/>
     </g>
     <g id="line2d_14">
      <g>
       <use style="stroke:#000000;stroke-width:0.6;" x="258.377143" xlink:href="#m3409840b4c" y="298.944"/>
      </g>
     </g>
    </g>
    <g id="xtick_8">
     <g id="line2d_15">
      <path clip-path="url(#pccd31bdd2b)" d="M 338.688 298.944 
L 338.688 3.456 
" style="fill:none;stroke:#b0b0b0;stroke-linecap:square;stroke-width:0.8;"/>
     </g>
     <g id="line2d_16">
      <g>
       <use style="stroke:#000000;stroke-width:0.6;" x="338.688" xlink:href="#m3409840b4c" y="298.944"/>
      </g>
     </g>
    </g>
    <g id="text_5">
     <!-- log10(# (f+g)-evals / dimension) -->
     <g transform="translate(58.145016 342.217594)scale(0.17 -0.17)">
      <defs>
       <path d="M 9.421875 75.984375 
L 18.40625 75.984375 
L 18.40625 0 
L 9.421875 0 
z
" id="DejaVuSans-108"/>
       <path d="M 30.609375 48.390625 
Q 23.390625 48.390625 19.1875 42.75 
Q 14.984375 37.109375 14.984375 27.296875 
Q 14.984375 17.484375 19.15625 11.84375 
Q 23.34375 6.203125 30.609375 6.203125 
Q 37.796875 6.203125 41.984375 11.859375 
Q 46.1875 17.53125 46.1875 27.296875 
Q 46.1875 37.015625 41.984375 42.703125 
Q 37.796875 48.390625 30.609375 48.390625 
z
M 30.609375 56 
Q 42.328125 56 49.015625 48.375 
Q 55.71875 40.765625 55.71875 27.296875 
Q 55.71875 13.875 49.015625 6.21875 
Q 42.328125 -1.421875 30.609375 -1.421875 
Q 18.84375 -1.421875 12.171875 6.21875 
Q 5.515625 13.875 5.515625 27.296875 
Q 5.515625 40.765625 12.171875 48.375 
Q 18.84375 56 30.609375 56 
z
" id="DejaVuSans-111"/>
       <path d="M 45.40625 27.984375 
Q 45.40625 37.75 41.375 43.109375 
Q 37.359375 48.484375 30.078125 48.484375 
Q 22.859375 48.484375 18.828125 43.109375 
Q 14.796875 37.75 14.796875 27.984375 
Q 14.796875 18.265625 18.828125 12.890625 
Q 22.859375 7.515625 30.078125 7.515625 
Q 37.359375 7.515625 41.375 12.890625 
Q 45.40625 18.265625 45.40625 27.984375 
z
M 54.390625 6.78125 
Q 54.390625 -7.171875 48.1875 -13.984375 
Q 42 -20.796875 29.203125 -20.796875 
Q 24.46875 -20.796875 20.265625 -20.09375 
Q 16.0625 -19.390625 12.109375 -17.921875 
L 12.109375 -9.1875 
Q 16.0625 -11.328125 19.921875 -12.34375 
Q 23.78125 -13.375 27.78125 -13.375 
Q 36.625 -13.375 41.015625 -8.765625 
Q 45.40625 -4.15625 45.40625 5.171875 
L 45.40625 9.625 
Q 42.625 4.78125 38.28125 2.390625 
Q 33.9375 0 27.875 0 
Q 17.828125 0 11.671875 7.65625 
Q 5.515625 15.328125 5.515625 27.984375 
Q 5.515625 40.671875 11.671875 48.328125 
Q 17.828125 56 27.875 56 
Q 33.9375 56 38.28125 53.609375 
Q 42.625 51.21875 45.40625 46.390625 
L 45.40625 54.6875 
L 54.390625 54.6875 
z
" id="DejaVuSans-103"/>
       <path d="M 12.40625 8.296875 
L 28.515625 8.296875 
L 28.515625 63.921875 
L 10.984375 60.40625 
L 10.984375 69.390625 
L 28.421875 72.90625 
L 38.28125 72.90625 
L 38.28125 8.296875 
L 54.390625 8.296875 
L 54.390625 0 
L 12.40625 0 
z
" id="DejaVuSans-49"/>
       <path d="M 31 75.875 
Q 24.46875 64.65625 21.28125 53.65625 
Q 18.109375 42.671875 18.109375 31.390625 
Q 18.109375 20.125 21.3125 9.0625 
Q 24.515625 -2 31 -13.1875 
L 23.1875 -13.1875 
Q 15.875 -1.703125 12.234375 9.375 
Q 8.59375 20.453125 8.59375 31.390625 
Q 8.59375 42.28125 12.203125 53.3125 
Q 15.828125 64.359375 23.1875 75.875 
z
" id="DejaVuSans-40"/>
       <path d="M 51.125 44 
L 36.921875 44 
L 32.8125 27.6875 
L 47.125 27.6875 
z
M 43.796875 71.78125 
L 38.71875 51.515625 
L 52.984375 51.515625 
L 58.109375 71.78125 
L 65.921875 71.78125 
L 60.890625 51.515625 
L 76.125 51.515625 
L 76.125 44 
L 58.984375 44 
L 54.984375 27.6875 
L 70.515625 27.6875 
L 70.515625 20.21875 
L 53.078125 20.21875 
L 48 0 
L 40.1875 0 
L 45.21875 20.21875 
L 30.90625 20.21875 
L 25.875 0 
L 18.015625 0 
L 23.09375 20.21875 
L 7.71875 20.21875 
L 7.71875 27.6875 
L 24.90625 27.6875 
L 29 44 
L 13.28125 44 
L 13.28125 51.515625 
L 30.90625 51.515625 
L 35.890625 71.78125 
z
" id="DejaVuSans-35"/>
       <path id="DejaVuSans-32"/>
       <path d="M 37.109375 75.984375 
L 37.109375 68.5 
L 28.515625 68.5 
Q 23.6875 68.5 21.796875 66.546875 
Q 19.921875 64.59375 19.921875 59.515625 
L 19.921875 54.6875 
L 34.71875 54.6875 
L 34.71875 47.703125 
L 19.921875 47.703125 
L 19.921875 0 
L 10.890625 0 
L 10.890625 47.703125 
L 2.296875 47.703125 
L 2.296875 54.6875 
L 10.890625 54.6875 
L 10.890625 58.5 
Q 10.890625 67.625 15.140625 71.796875 
Q 19.390625 75.984375 28.609375 75.984375 
z
" id="DejaVuSans-102"/>
       <path d="M 46 62.703125 
L 46 35.5 
L 73.1875 35.5 
L 73.1875 27.203125 
L 46 27.203125 
L 46 0 
L 37.796875 0 
L 37.796875 27.203125 
L 10.59375 27.203125 
L 10.59375 35.5 
L 37.796875 35.5 
L 37.796875 62.703125 
z
" id="DejaVuSans-43"/>
       <path d="M 8.015625 75.875 
L 15.828125 75.875 
Q 23.140625 64.359375 26.78125 53.3125 
Q 30.421875 42.28125 30.421875 31.390625 
Q 30.421875 20.453125 26.78125 9.375 
Q 23.140625 -1.703125 15.828125 -13.1875 
L 8.015625 -13.1875 
Q 14.5 -2 17.703125 9.0625 
Q 20.90625 20.125 20.90625 31.390625 
Q 20.90625 42.671875 17.703125 53.65625 
Q 14.5 64.65625 8.015625 75.875 
z
" id="DejaVuSans-41"/>
       <path d="M 4.890625 31.390625 
L 31.203125 31.390625 
L 31.203125 23.390625 
L 4.890625 23.390625 
z
" id="DejaVuSans-45"/>
       <path d="M 56.203125 29.59375 
L 56.203125 25.203125 
L 14.890625 25.203125 
Q 15.484375 15.921875 20.484375 11.0625 
Q 25.484375 6.203125 34.421875 6.203125 
Q 39.59375 6.203125 44.453125 7.46875 
Q 49.3125 8.734375 54.109375 11.28125 
L 54.109375 2.78125 
Q 49.265625 0.734375 44.1875 -0.34375 
Q 39.109375 -1.421875 33.890625 -1.421875 
Q 20.796875 -1.421875 13.15625 6.1875 
Q 5.515625 13.8125 5.515625 26.8125 
Q 5.515625 40.234375 12.765625 48.109375 
Q 20.015625 56 32.328125 56 
Q 43.359375 56 49.78125 48.890625 
Q 56.203125 41.796875 56.203125 29.59375 
z
M 47.21875 32.234375 
Q 47.125 39.59375 43.09375 43.984375 
Q 39.0625 48.390625 32.421875 48.390625 
Q 24.90625 48.390625 20.390625 44.140625 
Q 15.875 39.890625 15.1875 32.171875 
z
" id="DejaVuSans-101"/>
       <path d="M 2.984375 54.6875 
L 12.5 54.6875 
L 29.59375 8.796875 
L 46.6875 54.6875 
L 56.203125 54.6875 
L 35.6875 0 
L 23.484375 0 
z
" id="DejaVuSans-118"/>
       <path d="M 34.28125 27.484375 
Q 23.390625 27.484375 19.1875 25 
Q 14.984375 22.515625 14.984375 16.5 
Q 14.984375 11.71875 18.140625 8.90625 
Q 21.296875 6.109375 26.703125 6.109375 
Q 34.1875 6.109375 38.703125 11.40625 
Q 43.21875 16.703125 43.21875 25.484375 
L 43.21875 27.484375 
z
M 52.203125 31.203125 
L 52.203125 0 
L 43.21875 0 
L 43.21875 8.296875 
Q 40.140625 3.328125 35.546875 0.953125 
Q 30.953125 -1.421875 24.3125 -1.421875 
Q 15.921875 -1.421875 10.953125 3.296875 
Q 6 8.015625 6 15.921875 
Q 6 25.140625 12.171875 29.828125 
Q 18.359375 34.515625 30.609375 34.515625 
L 43.21875 34.515625 
L 43.21875 35.40625 
Q 43.21875 41.609375 39.140625 45 
Q 35.0625 48.390625 27.6875 48.390625 
Q 23 48.390625 18.546875 47.265625 
Q 14.109375 46.140625 10.015625 43.890625 
L 10.015625 52.203125 
Q 14.9375 54.109375 19.578125 55.046875 
Q 24.21875 56 28.609375 56 
Q 40.484375 56 46.34375 49.84375 
Q 52.203125 43.703125 52.203125 31.203125 
z
" id="DejaVuSans-97"/>
       <path d="M 44.28125 53.078125 
L 44.28125 44.578125 
Q 40.484375 46.53125 36.375 47.5 
Q 32.28125 48.484375 27.875 48.484375 
Q 21.1875 48.484375 17.84375 46.4375 
Q 14.5 44.390625 14.5 40.28125 
Q 14.5 37.15625 16.890625 35.375 
Q 19.28125 33.59375 26.515625 31.984375 
L 29.59375 31.296875 
Q 39.15625 29.25 43.1875 25.515625 
Q 47.21875 21.78125 47.21875 15.09375 
Q 47.21875 7.46875 41.1875 3.015625 
Q 35.15625 -1.421875 24.609375 -1.421875 
Q 20.21875 -1.421875 15.453125 -0.5625 
Q 10.6875 0.296875 5.421875 2 
L 5.421875 11.28125 
Q 10.40625 8.6875 15.234375 7.390625 
Q 20.0625 6.109375 24.8125 6.109375 
Q 31.15625 6.109375 34.5625 8.28125 
Q 37.984375 10.453125 37.984375 14.40625 
Q 37.984375 18.0625 35.515625 20.015625 
Q 33.0625 21.96875 24.703125 23.78125 
L 21.578125 24.515625 
Q 13.234375 26.265625 9.515625 29.90625 
Q 5.8125 33.546875 5.8125 39.890625 
Q 5.8125 47.609375 11.28125 51.796875 
Q 16.75 56 26.8125 56 
Q 31.78125 56 36.171875 55.265625 
Q 40.578125 54.546875 44.28125 53.078125 
z
" id="DejaVuSans-115"/>
       <path d="M 25.390625 72.90625 
L 33.6875 72.90625 
L 8.296875 -9.28125 
L 0 -9.28125 
z
" id="DejaVuSans-47"/>
       <path d="M 45.40625 46.390625 
L 45.40625 75.984375 
L 54.390625 75.984375 
L 54.390625 0 
L 45.40625 0 
L 45.40625 8.203125 
Q 42.578125 3.328125 38.25 0.953125 
Q 33.9375 -1.421875 27.875 -1.421875 
Q 17.96875 -1.421875 11.734375 6.484375 
Q 5.515625 14.40625 5.515625 27.296875 
Q 5.515625 40.1875 11.734375 48.09375 
Q 17.96875 56 27.875 56 
Q 33.9375 56 38.25 53.625 
Q 42.578125 51.265625 45.40625 46.390625 
z
M 14.796875 27.296875 
Q 14.796875 17.390625 18.875 11.75 
Q 22.953125 6.109375 30.078125 6.109375 
Q 37.203125 6.109375 41.296875 11.75 
Q 45.40625 17.390625 45.40625 27.296875 
Q 45.40625 37.203125 41.296875 42.84375 
Q 37.203125 48.484375 30.078125 48.484375 
Q 22.953125 48.484375 18.875 42.84375 
Q 14.796875 37.203125 14.796875 27.296875 
z
" id="DejaVuSans-100"/>
       <path d="M 9.421875 54.6875 
L 18.40625 54.6875 
L 18.40625 0 
L 9.421875 0 
z
M 9.421875 75.984375 
L 18.40625 75.984375 
L 18.40625 64.59375 
L 9.421875 64.59375 
z
" id="DejaVuSans-105"/>
       <path d="M 52 44.1875 
Q 55.375 50.25 60.0625 53.125 
Q 64.75 56 71.09375 56 
Q 79.640625 56 84.28125 50.015625 
Q 88.921875 44.046875 88.921875 33.015625 
L 88.921875 0 
L 79.890625 0 
L 79.890625 32.71875 
Q 79.890625 40.578125 77.09375 44.375 
Q 74.3125 48.1875 68.609375 48.1875 
Q 61.625 48.1875 57.5625 43.546875 
Q 53.515625 38.921875 53.515625 30.90625 
L 53.515625 0 
L 44.484375 0 
L 44.484375 32.71875 
Q 44.484375 40.625 41.703125 44.40625 
Q 38.921875 48.1875 33.109375 48.1875 
Q 26.21875 48.1875 22.15625 43.53125 
Q 18.109375 38.875 18.109375 30.90625 
L 18.109375 0 
L 9.078125 0 
L 9.078125 54.6875 
L 18.109375 54.6875 
L 18.109375 46.1875 
Q 21.1875 51.21875 25.484375 53.609375 
Q 29.78125 56 35.6875 56 
Q 41.65625 56 45.828125 52.96875 
Q 50 49.953125 52 44.1875 
z
" id="DejaVuSans-109"/>
       <path d="M 54.890625 33.015625 
L 54.890625 0 
L 45.90625 0 
L 45.90625 32.71875 
Q 45.90625 40.484375 42.875 44.328125 
Q 39.84375 48.1875 33.796875 48.1875 
Q 26.515625 48.1875 22.3125 43.546875 
Q 18.109375 38.921875 18.109375 30.90625 
L 18.109375 0 
L 9.078125 0 
L 9.078125 54.6875 
L 18.109375 54.6875 
L 18.109375 46.1875 
Q 21.34375 51.125 25.703125 53.5625 
Q 30.078125 56 35.796875 56 
Q 45.21875 56 50.046875 50.171875 
Q 54.890625 44.34375 54.890625 33.015625 
z
" id="DejaVuSans-110"/>
      </defs>
      <use xlink:href="#DejaVuSans-108"/>
      <use x="27.783203" xlink:href="#DejaVuSans-111"/>
      <use x="88.964844" xlink:href="#DejaVuSans-103"/>
      <use x="152.441406" xlink:href="#DejaVuSans-49"/>
      <use x="216.064453" xlink:href="#DejaVuSans-48"/>
      <use x="279.6875" xlink:href="#DejaVuSans-40"/>
      <use x="318.701172" xlink:href="#DejaVuSans-35"/>
      <use x="402.490234" xlink:href="#DejaVuSans-32"/>
      <use x="434.277344" xlink:href="#DejaVuSans-40"/>
      <use x="473.291016" xlink:href="#DejaVuSans-102"/>
      <use x="508.496094" xlink:href="#DejaVuSans-43"/>
      <use x="592.285156" xlink:href="#DejaVuSans-103"/>
      <use x="655.761719" xlink:href="#DejaVuSans-41"/>
      <use x="694.775391" xlink:href="#DejaVuSans-45"/>
      <use x="730.859375" xlink:href="#DejaVuSans-101"/>
      <use x="792.382812" xlink:href="#DejaVuSans-118"/>
      <use x="851.5625" xlink:href="#DejaVuSans-97"/>
      <use x="912.841797" xlink:href="#DejaVuSans-108"/>
      <use x="940.625" xlink:href="#DejaVuSans-115"/>
      <use x="992.724609" xlink:href="#DejaVuSans-32"/>
      <use x="1024.511719" xlink:href="#DejaVuSans-47"/>
      <use x="1058.203125" xlink:href="#DejaVuSans-32"/>
      <use x="1089.990234" xlink:href="#DejaVuSans-100"/>
      <use x="1153.466797" xlink:href="#DejaVuSans-105"/>
      <use x="1181.25" xlink:href="#DejaVuSans-109"/>
      <use x="1278.662109" xlink:href="#DejaVuSans-101"/>
      <use x="1340.185547" xlink:href="#DejaVuSans-110"/>
      <use x="1403.564453" xlink:href="#DejaVuSans-115"/>
      <use x="1455.664062" xlink:href="#DejaVuSans-105"/>
      <use x="1483.447266" xlink:href="#DejaVuSans-111"/>
      <use x="1544.628906" xlink:href="#DejaVuSans-110"/>
      <use x="1608.007812" xlink:href="#DejaVuSans-41"/>
     </g>
    </g>
   </g>
   <g id="matplotlib.axis_2">
    <g id="ytick_1">
     <g id="line2d_17">
      <path clip-path="url(#pccd31bdd2b)" d="M 57.6 298.944 
L 338.688 298.944 
" style="fill:none;stroke:#b0b0b0;stroke-linecap:square;stroke-width:0.8;"/>
     </g>
     <g id="line2d_18">
      <defs>
       <path d="M 0 0 
L -3.5 0 
" id="m8a4bdb7f13" style="stroke:#000000;stroke-width:0.8;"/>
      </defs>
      <g>
       <use style="stroke:#000000;stroke-width:0.8;" x="57.6" xlink:href="#m8a4bdb7f13" y="298.944"/>
      </g>
     </g>
     <g id="text_6">
      <!-- 0.0 -->
      <g transform="translate(25.155 305.02275)scale(0.16 -0.16)">
       <defs>
        <path d="M 10.6875 12.40625 
L 21 12.40625 
L 21 0 
L 10.6875 0 
z
" id="DejaVuSans-46"/>
       </defs>
       <use xlink:href="#DejaVuSans-48"/>
       <use x="63.623047" xlink:href="#DejaVuSans-46"/>
       <use x="95.410156" xlink:href="#DejaVuSans-48"/>
      </g>
     </g>
    </g>
    <g id="ytick_2">
     <g id="line2d_19">
      <path clip-path="url(#pccd31bdd2b)" d="M 57.6 240.431525 
L 338.688 240.431525 
" style="fill:none;stroke:#b0b0b0;stroke-linecap:square;stroke-width:0.8;"/>
     </g>
     <g id="line2d_20">
      <g>
       <use style="stroke:#000000;stroke-width:0.8;" x="57.6" xlink:href="#m8a4bdb7f13" y="240.431525"/>
      </g>
     </g>
     <g id="text_7">
      <!-- 0.2 -->
      <g transform="translate(25.155 246.510275)scale(0.16 -0.16)">
       <use xlink:href="#DejaVuSans-48"/>
       <use x="63.623047" xlink:href="#DejaVuSans-46"/>
       <use x="95.410156" xlink:href="#DejaVuSans-50"/>
      </g>
     </g>
    </g>
    <g id="ytick_3">
     <g id="line2d_21">
      <path clip-path="url(#pccd31bdd2b)" d="M 57.6 181.91905 
L 338.688 181.91905 
" style="fill:none;stroke:#b0b0b0;stroke-linecap:square;stroke-width:0.8;"/>
     </g>
     <g id="line2d_22">
      <g>
       <use style="stroke:#000000;stroke-width:0.8;" x="57.6" xlink:href="#m8a4bdb7f13" y="181.91905"/>
      </g>
     </g>
     <g id="text_8">
      <!-- 0.4 -->
      <g transform="translate(25.155 187.9978)scale(0.16 -0.16)">
       <use xlink:href="#DejaVuSans-48"/>
       <use x="63.623047" xlink:href="#DejaVuSans-46"/>
       <use x="95.410156" xlink:href="#DejaVuSans-52"/>
      </g>
     </g>
    </g>
    <g id="ytick_4">
     <g id="line2d_23">
      <path clip-path="url(#pccd31bdd2b)" d="M 57.6 123.406574 
L 338.688 123.406574 
" style="fill:none;stroke:#b0b0b0;stroke-linecap:square;stroke-width:0.8;"/>
     </g>
     <g id="line2d_24">
      <g>
       <use style="stroke:#000000;stroke-width:0.8;" x="57.6" xlink:href="#m8a4bdb7f13" y="123.406574"/>
      </g>
     </g>
     <g id="text_9">
      <!-- 0.6 -->
      <g transform="translate(25.155 129.485324)scale(0.16 -0.16)">
       <use xlink:href="#DejaVuSans-48"/>
       <use x="63.623047" xlink:href="#DejaVuSans-46"/>
       <use x="95.410156" xlink:href="#DejaVuSans-54"/>
      </g>
     </g>
    </g>
    <g id="ytick_5">
     <g id="line2d_25">
      <path clip-path="url(#pccd31bdd2b)" d="M 57.6 64.894099 
L 338.688 64.894099 
" style="fill:none;stroke:#b0b0b0;stroke-linecap:square;stroke-width:0.8;"/>
     </g>
     <g id="line2d_26">
      <g>
       <use style="stroke:#000000;stroke-width:0.8;" x="57.6" xlink:href="#m8a4bdb7f13" y="64.894099"/>
      </g>
     </g>
     <g id="text_10">
      <!-- 0.8 -->
      <g transform="translate(25.155 70.972849)scale(0.16 -0.16)">
       <defs>
        <path d="M 31.78125 34.625 
Q 24.75 34.625 20.71875 30.859375 
Q 16.703125 27.09375 16.703125 20.515625 
Q 16.703125 13.921875 20.71875 10.15625 
Q 24.75 6.390625 31.78125 6.390625 
Q 38.8125 6.390625 42.859375 10.171875 
Q 46.921875 13.96875 46.921875 20.515625 
Q 46.921875 27.09375 42.890625 30.859375 
Q 38.875 34.625 31.78125 34.625 
z
M 21.921875 38.8125 
Q 15.578125 40.375 12.03125 44.71875 
Q 8.5 49.078125 8.5 55.328125 
Q 8.5 64.0625 14.71875 69.140625 
Q 20.953125 74.21875 31.78125 74.21875 
Q 42.671875 74.21875 48.875 69.140625 
Q 55.078125 64.0625 55.078125 55.328125 
Q 55.078125 49.078125 51.53125 44.71875 
Q 48 40.375 41.703125 38.8125 
Q 48.828125 37.15625 52.796875 32.3125 
Q 56.78125 27.484375 56.78125 20.515625 
Q 56.78125 9.90625 50.3125 4.234375 
Q 43.84375 -1.421875 31.78125 -1.421875 
Q 19.734375 -1.421875 13.25 4.234375 
Q 6.78125 9.90625 6.78125 20.515625 
Q 6.78125 27.484375 10.78125 32.3125 
Q 14.796875 37.15625 21.921875 38.8125 
z
M 18.3125 54.390625 
Q 18.3125 48.734375 21.84375 45.5625 
Q 25.390625 42.390625 31.78125 42.390625 
Q 38.140625 42.390625 41.71875 45.5625 
Q 45.3125 48.734375 45.3125 54.390625 
Q 45.3125 60.0625 41.71875 63.234375 
Q 38.140625 66.40625 31.78125 66.40625 
Q 25.390625 66.40625 21.84375 63.234375 
Q 18.3125 60.0625 18.3125 54.390625 
z
" id="DejaVuSans-56"/>
       </defs>
       <use xlink:href="#DejaVuSans-48"/>
       <use x="63.623047" xlink:href="#DejaVuSans-46"/>
       <use x="95.410156" xlink:href="#DejaVuSans-56"/>
      </g>
     </g>
    </g>
    <g id="ytick_6">
     <g id="line2d_27">
      <path clip-path="url(#pccd31bdd2b)" d="M 57.6 6.381624 
L 338.688 6.381624 
" style="fill:none;stroke:#b0b0b0;stroke-linecap:square;stroke-width:0.8;"/>
     </g>
     <g id="line2d_28">
      <g>
       <use style="stroke:#000000;stroke-width:0.8;" x="57.6" xlink:href="#m8a4bdb7f13" y="6.381624"/>
      </g>
     </g>
     <g id="text_11">
      <!-- 1.0 -->
      <g transform="translate(25.155 12.460374)scale(0.16 -0.16)">
       <use xlink:href="#DejaVuSans-49"/>
       <use x="63.623047" xlink:href="#DejaVuSans-46"/>
       <use x="95.410156" xlink:href="#DejaVuSans-48"/>
      </g>
     </g>
    </g>
    <g id="text_12">
     <!-- Fraction of function,target pairs -->
     <g transform="translate(17.619531 285.585)rotate(-90)scale(0.17 -0.17)">
      <defs>
       <path d="M 9.8125 72.90625 
L 51.703125 72.90625 
L 51.703125 64.59375 
L 19.671875 64.59375 
L 19.671875 43.109375 
L 48.578125 43.109375 
L 48.578125 34.8125 
L 19.671875 34.8125 
L 19.671875 0 
L 9.8125 0 
z
" id="DejaVuSans-70"/>
       <path d="M 41.109375 46.296875 
Q 39.59375 47.171875 37.8125 47.578125 
Q 36.03125 48 33.890625 48 
Q 26.265625 48 22.1875 43.046875 
Q 18.109375 38.09375 18.109375 28.8125 
L 18.109375 0 
L 9.078125 0 
L 9.078125 54.6875 
L 18.109375 54.6875 
L 18.109375 46.1875 
Q 20.953125 51.171875 25.484375 53.578125 
Q 30.03125 56 36.53125 56 
Q 37.453125 56 38.578125 55.875 
Q 39.703125 55.765625 41.0625 55.515625 
z
" id="DejaVuSans-114"/>
       <path d="M 48.78125 52.59375 
L 48.78125 44.1875 
Q 44.96875 46.296875 41.140625 47.34375 
Q 37.3125 48.390625 33.40625 48.390625 
Q 24.65625 48.390625 19.8125 42.84375 
Q 14.984375 37.3125 14.984375 27.296875 
Q 14.984375 17.28125 19.8125 11.734375 
Q 24.65625 6.203125 33.40625 6.203125 
Q 37.3125 6.203125 41.140625 7.25 
Q 44.96875 8.296875 48.78125 10.40625 
L 48.78125 2.09375 
Q 45.015625 0.34375 40.984375 -0.53125 
Q 36.96875 -1.421875 32.421875 -1.421875 
Q 20.0625 -1.421875 12.78125 6.34375 
Q 5.515625 14.109375 5.515625 27.296875 
Q 5.515625 40.671875 12.859375 48.328125 
Q 20.21875 56 33.015625 56 
Q 37.15625 56 41.109375 55.140625 
Q 45.0625 54.296875 48.78125 52.59375 
z
" id="DejaVuSans-99"/>
       <path d="M 18.3125 70.21875 
L 18.3125 54.6875 
L 36.8125 54.6875 
L 36.8125 47.703125 
L 18.3125 47.703125 
L 18.3125 18.015625 
Q 18.3125 11.328125 20.140625 9.421875 
Q 21.96875 7.515625 27.59375 7.515625 
L 36.8125 7.515625 
L 36.8125 0 
L 27.59375 0 
Q 17.1875 0 13.234375 3.875 
Q 9.28125 7.765625 9.28125 18.015625 
L 9.28125 47.703125 
L 2.6875 47.703125 
L 2.6875 54.6875 
L 9.28125 54.6875 
L 9.28125 70.21875 
z
" id="DejaVuSans-116"/>
       <path d="M 8.5 21.578125 
L 8.5 54.6875 
L 17.484375 54.6875 
L 17.484375 21.921875 
Q 17.484375 14.15625 20.5 10.265625 
Q 23.53125 6.390625 29.59375 6.390625 
Q 36.859375 6.390625 41.078125 11.03125 
Q 45.3125 15.671875 45.3125 23.6875 
L 45.3125 54.6875 
L 54.296875 54.6875 
L 54.296875 0 
L 45.3125 0 
L 45.3125 8.40625 
Q 42.046875 3.421875 37.71875 1 
Q 33.40625 -1.421875 27.6875 -1.421875 
Q 18.265625 -1.421875 13.375 4.4375 
Q 8.5 10.296875 8.5 21.578125 
z
M 31.109375 56 
z
" id="DejaVuSans-117"/>
       <path d="M 11.71875 12.40625 
L 22.015625 12.40625 
L 22.015625 4 
L 14.015625 -11.625 
L 7.71875 -11.625 
L 11.71875 4 
z
" id="DejaVuSans-44"/>
       <path d="M 18.109375 8.203125 
L 18.109375 -20.796875 
L 9.078125 -20.796875 
L 9.078125 54.6875 
L 18.109375 54.6875 
L 18.109375 46.390625 
Q 20.953125 51.265625 25.265625 53.625 
Q 29.59375 56 35.59375 56 
Q 45.5625 56 51.78125 48.09375 
Q 58.015625 40.1875 58.015625 27.296875 
Q 58.015625 14.40625 51.78125 6.484375 
Q 45.5625 -1.421875 35.59375 -1.421875 
Q 29.59375 -1.421875 25.265625 0.953125 
Q 20.953125 3.328125 18.109375 8.203125 
z
M 48.6875 27.296875 
Q 48.6875 37.203125 44.609375 42.84375 
Q 40.53125 48.484375 33.40625 48.484375 
Q 26.265625 48.484375 22.1875 42.84375 
Q 18.109375 37.203125 18.109375 27.296875 
Q 18.109375 17.390625 22.1875 11.75 
Q 26.265625 6.109375 33.40625 6.109375 
Q 40.53125 6.109375 44.609375 11.75 
Q 48.6875 17.390625 48.6875 27.296875 
z
" id="DejaVuSans-112"/>
      </defs>
      <use xlink:href="#DejaVuSans-70"/>
      <use x="50.269531" xlink:href="#DejaVuSans-114"/>
      <use x="91.382812" xlink:href="#DejaVuSans-97"/>
      <use x="152.662109" xlink:href="#DejaVuSans-99"/>
      <use x="207.642578" xlink:href="#DejaVuSans-116"/>
      <use x="246.851562" xlink:href="#DejaVuSans-105"/>
      <use x="274.634766" xlink:href="#DejaVuSans-111"/>
      <use x="335.816406" xlink:href="#DejaVuSans-110"/>
      <use x="399.195312" xlink:href="#DejaVuSans-32"/>
      <use x="430.982422" xlink:href="#DejaVuSans-111"/>
      <use x="492.164062" xlink:href="#DejaVuSans-102"/>
      <use x="527.369141" xlink:href="#DejaVuSans-32"/>
      <use x="559.15625" xlink:href="#DejaVuSans-102"/>
      <use x="594.361328" xlink:href="#DejaVuSans-117"/>
      <use x="657.740234" xlink:href="#DejaVuSans-110"/>
      <use x="721.119141" xlink:href="#DejaVuSans-99"/>
      <use x="776.099609" xlink:href="#DejaVuSans-116"/>
      <use x="815.308594" xlink:href="#DejaVuSans-105"/>
      <use x="843.091797" xlink:href="#DejaVuSans-111"/>
      <use x="904.273438" xlink:href="#DejaVuSans-110"/>
      <use x="967.652344" xlink:href="#DejaVuSans-44"/>
      <use x="999.439453" xlink:href="#DejaVuSans-116"/>
      <use x="1038.648438" xlink:href="#DejaVuSans-97"/>
      <use x="1099.927734" xlink:href="#DejaVuSans-114"/>
      <use x="1139.291016" xlink:href="#DejaVuSans-103"/>
      <use x="1202.767578" xlink:href="#DejaVuSans-101"/>
      <use x="1264.291016" xlink:href="#DejaVuSans-116"/>
      <use x="1303.5" xlink:href="#DejaVuSans-32"/>
      <use x="1335.287109" xlink:href="#DejaVuSans-112"/>
      <use x="1398.763672" xlink:href="#DejaVuSans-97"/>
      <use x="1460.042969" xlink:href="#DejaVuSans-105"/>
      <use x="1487.826172" xlink:href="#DejaVuSans-114"/>
      <use x="1528.939453" xlink:href="#DejaVuSans-115"/>
     </g>
    </g>
   </g>
   <g id="line2d_29">
    <defs>
     <path d="M 0 1.5 
C 0.397805 1.5 0.77937 1.341951 1.06066 1.06066 
C 1.341951 0.77937 1.5 0.397805 1.5 0 
C 1.5 -0.397805 1.341951 -0.77937 1.06066 -1.06066 
C 0.77937 -1.341951 0.397805 -1.5 0 -1.5 
C -0.397805 -1.5 -0.77937 -1.341951 -1.06066 -1.06066 
C -1.341951 -0.77937 -1.5 -0.397805 -1.5 0 
C -1.5 0.397805 -1.341951 0.77937 -1.06066 1.06066 
C -0.77937 1.341951 -0.397805 1.5 0 1.5 
z
" id="m08a19fa7a8" style="stroke:#ff00ff;"/>
    </defs>
    <g>
     <use style="fill:#ff00ff;stroke:#ff00ff;" x="311.293151" xlink:href="#m08a19fa7a8" y="6.381624"/>
     <use style="fill:#ff00ff;stroke:#ff00ff;" x="311.293151" xlink:href="#m08a19fa7a8" y="6.381624"/>
    </g>
   </g>
   <g id="line2d_30">
    <path d="M 5.356583 298.944 
L 5.356583 298.260165 
L 17.444571 298.260165 
L 17.444571 298.111505 
L 29.53256 298.111505 
L 29.53256 297.992578 
L 41.620548 297.903382 
L 41.620548 297.814186 
L 48.691568 297.754722 
L 48.691568 297.695258 
L 51.379845 297.695258 
L 51.379845 297.57633 
L 65.796525 297.487135 
L 65.796525 297.338475 
L 67.850577 297.308743 
L 67.850577 297.070887 
L 77.330839 296.981691 
L 77.330839 296.951959 
L 79.938565 296.922227 
L 79.938565 296.8033 
L 81.775977 296.8033 
L 81.775977 296.65464 
L 83.830028 296.595176 
L 83.830028 296.535712 
L 86.351421 296.476248 
L 86.351421 296.416784 
L 86.683608 296.416784 
L 86.683608 296.268125 
L 87.643811 296.178929 
L 87.643811 296.149197 
L 88.846997 296.089733 
L 88.846997 295.881609 
L 89.972502 295.822145 
L 89.972502 295.762681 
L 90.771388 295.703218 
L 90.771388 295.58429 
L 91.782644 295.495094 
L 91.782644 295.405898 
L 93.644601 295.316702 
L 93.644601 295.257238 
L 94.080605 295.257238 
L 94.080605 295.138311 
L 94.294587 295.138311 
L 94.294587 294.870723 
L 95.326798 294.781527 
L 95.326798 294.603135 
L 96.110718 294.543672 
L 96.110718 294.36528 
L 96.301313 294.36528 
L 96.301313 294.246352 
L 97.043522 294.157156 
L 97.043522 294.127424 
L 97.403108 294.038228 
L 97.403108 293.949033 
L 97.580158 293.949033 
L 97.580158 293.830105 
L 98.270913 293.800373 
L 98.270913 293.681445 
L 98.771596 293.592249 
L 98.771596 293.562517 
L 99.41757 293.473321 
L 99.41757 293.205734 
L 100.040467 293.116538 
L 100.040467 293.057074 
L 100.343767 293.027342 
L 100.343767 292.878682 
L 100.641881 292.878682 
L 100.641881 292.730023 
L 101.079711 292.640827 
L 101.079711 292.551631 
L 101.365607 292.521899 
L 101.365607 292.165116 
L 101.923711 292.135384 
L 101.923711 292.046188 
L 102.464508 291.986724 
L 102.464508 291.92726 
L 102.597126 291.92726 
L 102.597126 291.7786 
L 103.117741 291.719136 
L 103.117741 291.600209 
L 103.245502 291.600209 
L 103.245502 291.481281 
L 103.372333 291.481281 
L 103.372333 291.243425 
L 103.993014 291.154229 
L 103.993014 290.916374 
L 104.23523 290.827178 
L 104.23523 290.737982 
L 104.709797 290.648786 
L 104.709797 290.55959 
L 105.057436 290.470395 
L 105.057436 290.381199 
L 105.285403 290.321735 
L 105.285403 290.262271 
L 105.51043 290.202807 
L 105.51043 290.083879 
L 105.621863 290.083879 
L 105.732589 289.756828 
L 106.06061 289.697364 
L 106.168594 289.429776 
L 106.698704 289.340581 
L 106.698704 289.221653 
L 106.906317 289.221653 
L 107.009204 289.043261 
L 107.314272 288.954065 
L 107.414787 288.745942 
L 107.614095 288.745942 
L 107.712901 288.537818 
L 108.006005 288.508086 
L 108.006005 288.329694 
L 108.198707 288.329694 
L 108.294265 288.121571 
L 108.577836 288.032375 
L 108.671345 287.853983 
L 108.948899 287.794519 
L 109.040444 287.616128 
L 109.31223 287.526932 
L 109.401893 287.289076 
L 109.579846 287.259344 
L 109.579846 287.140416 
L 109.756002 287.140416 
L 109.843417 286.575509 
L 109.930396 286.575509 
L 109.930396 286.397118 
L 110.358901 286.307922 
L 110.443353 286.248458 
L 110.527398 286.248458 
L 110.527398 285.772747 
L 110.859585 285.713283 
L 110.859585 285.534891 
L 111.104637 285.505159 
L 111.104637 285.386231 
L 111.505558 285.297035 
L 111.584648 285.029448 
L 111.819788 284.940252 
L 111.897469 284.76186 
L 111.974805 284.76186 
L 112.051799 284.494273 
L 112.280765 284.405077 
L 112.280765 284.375345 
L 112.431755 284.375345 
L 112.431755 284.256417 
L 112.58145 284.256417 
L 112.58145 284.137489 
L 112.950158 284.048294 
L 112.950158 284.018562 
L 113.311233 283.929366 
L 113.311233 283.899634 
L 113.524343 283.869902 
L 113.594805 283.572582 
L 113.804498 283.513119 
L 113.804498 283.453655 
L 114.080224 283.394191 
L 114.148479 283.215799 
L 114.284194 283.156335 
L 114.284194 283.037407 
L 114.418861 283.037407 
L 114.485807 282.531964 
L 114.618932 282.442768 
L 114.685115 282.383305 
L 114.947365 282.294109 
L 115.012316 282.204913 
L 115.269727 282.175181 
L 115.33349 281.848129 
L 115.648856 281.758934 
L 115.711251 281.521078 
L 115.958621 281.431882 
L 115.958621 281.40215 
L 116.081002 281.40215 
L 116.081002 281.283222 
L 116.262979 281.25349 
L 116.323218 281.075099 
L 116.562116 281.015635 
L 116.621333 280.926439 
L 116.797786 280.837243 
L 116.856209 280.599388 
L 116.914437 280.599388 
L 116.914437 280.450728 
L 117.202696 280.361532 
L 117.202696 280.3318 
L 117.598418 280.242604 
L 117.654224 279.856089 
L 117.820578 279.766893 
L 117.930605 279.677697 
L 118.094355 279.677697 
L 118.202674 279.469574 
L 118.310324 279.439842 
L 118.417314 279.172254 
L 118.523652 279.083058 
L 118.576578 278.993862 
L 118.942633 278.96413 
L 119.045825 278.488419 
L 119.40226 278.428955 
L 119.502775 278.220832 
L 119.65247 278.131636 
L 119.702083 277.566729 
L 120.286695 277.536997 
L 120.382253 277.299141 
L 120.665825 277.239677 
L 120.759333 277.061286 
L 120.898662 276.97209 
L 120.944859 276.585574 
L 121.08272 276.585574 
L 121.174025 276.407183 
L 121.445108 276.317987 
L 121.53454 276.139595 
L 121.667835 276.109863 
L 121.667835 276.020667 
L 121.931406 275.961204 
L 121.931406 275.90174 
L 122.061712 275.90174 
L 122.061712 275.634152 
L 122.362027 275.544956 
L 122.44689 275.426028 
L 122.615387 275.366565 
L 122.657258 275.188173 
L 122.865118 275.098977 
L 122.865118 275.039513 
L 123.111324 274.950317 
L 123.192626 274.53407 
L 123.354102 274.444874 
L 123.354102 274.296214 
L 123.672636 274.207019 
L 123.712047 273.790771 
L 123.790603 273.790771 
L 123.868806 273.552916 
L 123.94666 273.523184 
L 123.985457 273.31506 
L 124.178158 273.255596 
L 124.254646 272.928545 
L 124.330801 272.898813 
L 124.330801 272.809617 
L 124.444412 272.809617 
L 124.519744 272.660957 
L 124.632135 272.571761 
L 124.669438 272.423102 
L 124.891598 272.333906 
L 124.965026 272.125782 
L 125.074593 272.036586 
L 125.147256 271.501411 
L 125.327602 271.441947 
L 125.363449 271.085164 
L 125.612332 271.055432 
L 125.612332 270.847308 
L 125.787955 270.787844 
L 125.822869 270.668917 
L 126.065325 270.579721 
L 126.168212 270.341865 
L 126.405947 270.252669 
L 126.50685 270.074278 
L 126.607172 270.014814 
L 126.70692 269.836422 
L 126.937471 269.836422 
L 127.002787 269.598567 
L 127.229484 269.509371 
L 127.325746 269.449907 
L 127.357715 269.449907 
L 127.453273 269.241783 
L 127.736845 269.152587 
L 127.830353 268.617412 
L 127.954256 268.528216 
L 127.985095 268.349825 
L 128.107907 268.320093 
L 128.168991 268.082237 
L 128.501178 268.022773 
L 128.590686 267.66599 
L 128.650105 267.636258 
L 128.738855 267.36867 
L 128.944197 267.279475 
L 128.973336 267.130815 
L 129.233413 267.071351 
L 129.31925 266.803763 
L 129.489668 266.714567 
L 129.546106 266.655104 
L 129.686407 266.565908 
L 129.714332 266.328052 
L 129.936138 266.238856 
L 130.045992 265.882073 
L 130.073348 265.882073 
L 130.182344 265.644217 
L 130.398313 265.644217 
L 130.505303 265.436094 
L 130.69097 265.346898 
L 130.743656 265.019846 
L 130.926816 264.930651 
L 131.030622 264.663063 
L 131.082294 264.663063 
L 131.185181 264.30628 
L 131.414481 264.217084 
L 131.465029 263.592713 
L 131.740458 263.562981 
L 131.790072 263.206198 
L 132.036046 263.117002 
L 132.060454 262.93861 
L 132.374684 262.849414 
L 132.398622 262.522363 
L 132.683351 262.433167 
L 132.777237 262.076383 
L 132.823992 262.01692 
L 132.893889 261.838528 
L 132.986651 261.838528 
L 133.0559 261.333085 
L 133.216421 261.243889 
L 133.284766 260.857374 
L 133.488207 260.768178 
L 133.57787 260.470858 
L 133.622529 260.441126 
L 133.667073 260.262735 
L 133.866129 260.203271 
L 133.866129 259.846487 
L 134.12805 259.757291 
L 134.236034 258.984261 
L 134.428735 258.984261 
L 134.534878 258.657209 
L 134.703375 258.568014 
L 134.807865 258.151766 
L 134.973757 258.092302 
L 134.973757 257.794983 
L 135.117629 257.794983 
L 135.219673 257.616591 
L 135.240011 257.616591 
L 135.341343 257.349004 
L 135.401861 257.259808 
L 135.50226 256.99222 
L 135.661706 256.932756 
L 135.760625 256.397581 
L 135.839358 256.308385 
L 135.898175 256.159726 
L 136.015217 256.100262 
L 136.092812 255.565087 
L 136.227776 255.475891 
L 136.266147 255.238035 
L 136.456742 255.148839 
L 136.551264 254.5542 
L 136.701442 254.465005 
L 136.79465 254.197417 
L 136.979586 254.108221 
L 136.997972 253.810902 
L 137.126135 253.78117 
L 137.235245 253.186531 
L 137.289545 253.097335 
L 137.343676 253.037871 
L 137.469333 253.008139 
L 137.576323 252.770284 
L 137.70032 252.681088 
L 137.770782 252.294572 
L 137.858461 252.205376 
L 137.945701 251.551274 
L 138.01518 251.521542 
L 138.084384 251.283686 
L 138.153314 251.283686 
L 138.256201 250.897171 
L 138.324456 250.807975 
L 138.375473 250.570119 
L 138.594838 250.540387 
L 138.69516 250.153872 
L 138.811478 250.12414 
L 138.811478 249.916016 
L 139.009092 249.826821 
L 139.090775 249.559233 
L 139.172077 249.499769 
L 139.236847 249.113254 
L 139.317473 249.083522 
L 139.36567 248.815934 
L 139.445704 248.815934 
L 139.525372 248.578079 
L 139.683624 248.488883 
L 139.793552 248.310491 
L 139.856059 248.280759 
L 139.887228 248.042904 
L 140.057671 248.042904 
L 140.165274 247.745584 
L 140.256979 247.745584 
L 140.348205 247.388801 
L 140.454035 247.359069 
L 140.559227 247.180677 
L 140.64889 247.091481 
L 140.708409 246.734698 
L 140.79731 246.704966 
L 140.841591 246.348183 
L 140.988387 246.348183 
L 141.075875 245.902203 
L 141.220721 245.842739 
L 141.321401 245.426492 
L 141.407239 245.367028 
L 141.492656 245.129173 
L 141.591783 245.099441 
L 141.676303 244.712925 
L 141.71841 244.62373 
L 141.816266 244.266946 
L 141.885829 244.207482 
L 141.968939 243.880431 
L 142.024126 243.880431 
L 142.133981 243.464184 
L 142.20229 243.374988 
L 142.311031 242.988472 
L 142.44601 242.899277 
L 142.553247 242.691153 
L 142.659828 242.601957 
L 142.765762 242.245174 
L 142.792145 242.245174 
L 142.884173 241.709999 
L 142.988757 241.620803 
L 143.079756 241.204555 
L 143.11861 241.204555 
L 143.221802 240.431525 
L 143.337167 240.372061 
L 143.42637 240.074741 
L 143.502469 240.045009 
L 143.590833 239.628762 
L 143.666219 239.628762 
L 143.76623 239.242247 
L 143.828447 239.182783 
L 143.927534 239.034123 
L 143.989178 238.974659 
L 144.087359 238.409752 
L 144.148442 238.38002 
L 144.245733 238.023237 
L 144.306265 238.023237 
L 144.342484 237.815113 
L 144.45069 237.725917 
L 144.55823 237.30967 
L 144.617689 237.279938 
L 144.724207 236.833959 
L 144.77134 236.833959 
L 144.865226 236.417712 
L 144.923649 236.417712 
L 144.993499 236.09066 
L 145.074639 236.031196 
L 145.155404 235.674413 
L 145.224334 235.644681 
L 145.315819 235.377093 
L 145.372754 235.377093 
L 145.384119 235.139238 
L 145.519922 235.079774 
L 145.609873 234.752723 
L 145.665858 234.722991 
L 145.755062 234.425671 
L 145.810583 234.366207 
L 145.876977 233.94996 
L 145.954117 233.920228 
L 146.052799 233.325589 
L 146.140051 233.236393 
L 146.248504 232.849878 
L 146.313254 232.760682 
L 146.399215 232.255239 
L 146.474085 232.166043 
L 146.548634 231.630868 
L 146.612281 231.601136 
L 146.717846 231.333548 
L 146.77039 231.244353 
L 146.875005 230.857837 
L 146.927079 230.857837 
L 147.030761 230.44159 
L 147.061745 230.44159 
L 147.154371 230.233466 
L 147.19538 230.203734 
L 147.297484 229.787487 
L 147.327999 229.698291 
L 147.388869 229.400972 
L 147.459617 229.37124 
L 147.52003 229.163116 
L 147.590249 229.103652 
L 147.680117 228.836065 
L 147.71991 228.836065 
L 147.78933 228.568477 
L 147.848613 228.568477 
L 147.946974 228.122498 
L 148.015498 228.033302 
L 148.122637 227.557591 
L 148.229122 227.468395 
L 148.315765 227.319735 
L 148.354135 227.290003 
L 148.411533 226.93322 
L 148.478259 226.93322 
L 148.563676 226.516973 
L 148.601505 226.516973 
L 148.667509 226.249385 
L 148.723886 226.249385 
L 148.798773 225.952066 
L 148.845415 225.952066 
L 148.94759 225.71421 
L 148.966103 225.71421 
L 149.07677 225.297963 
L 149.104327 225.208767 
L 149.214124 224.941179 
L 149.305096 224.851984 
L 149.377533 224.64386 
L 149.44067 224.614128 
L 149.539426 224.078953 
L 149.557321 224.078953 
L 149.646525 223.662706 
L 149.673197 223.662706 
L 149.761812 223.395118 
L 149.788308 223.395118 
L 149.893895 223.008603 
L 149.902665 223.008603 
L 149.981398 222.711283 
L 150.016276 222.711283 
L 150.120495 222.3545 
L 150.129152 222.3545 
L 150.198253 222.116644 
L 150.241302 222.116644 
L 150.335638 221.670665 
L 150.352736 221.670665 
L 150.463462 221.313882 
L 150.505862 221.254418 
L 150.615623 220.808439 
L 150.682827 220.719243 
L 150.791483 220.451655 
L 150.874606 220.362459 
L 150.982078 220.005676 
L 151.006785 220.005676 
L 151.113448 219.589429 
L 151.162458 219.500233 
L 151.260066 219.202913 
L 151.316753 219.113717 
L 151.389366 218.816398 
L 151.429577 218.816398 
L 151.533692 218.162295 
L 151.63719 218.102831 
L 151.747966 217.686584 
L 151.787359 217.597388 
L 151.881541 217.300069 
L 151.944047 217.300069 
L 152.052897 216.70543 
L 152.091608 216.645966 
L 152.153367 216.25945 
L 152.245598 216.229718 
L 152.344968 215.962131 
L 152.428609 215.872935 
L 152.511852 215.278296 
L 152.542024 215.278296 
L 152.647216 214.683657 
L 152.736878 214.594461 
L 152.840905 214.089018 
L 152.900071 213.999822 
L 153.003132 213.345719 
L 153.025137 213.315987 
L 153.13475 212.929472 
L 153.185667 212.840276 
L 153.250915 212.632153 
L 153.308709 212.602421 
L 153.402218 212.305101 
L 153.466662 212.215905 
L 153.537988 212.007782 
L 153.587744 212.007782 
L 153.693887 211.561802 
L 153.715038 211.532071 
L 153.799388 211.234751 
L 153.862384 211.145555 
L 153.966873 210.580648 
L 154.008494 210.491452 
L 154.112115 210.164401 
L 154.132765 210.164401 
L 154.24249 209.807617 
L 154.303908 209.718422 
L 154.378682 209.361638 
L 154.453136 209.302174 
L 154.533999 208.61834 
L 154.57429 208.61834 
L 154.667942 208.17236 
L 154.747816 208.112896 
L 154.833936 207.577721 
L 154.919633 207.488525 
L 155.024532 206.95335 
L 155.070227 206.893887 
L 155.174226 206.388443 
L 155.187182 206.388443 
L 155.296925 205.942464 
L 155.341913 205.912732 
L 155.450689 205.437021 
L 155.501643 205.347825 
L 155.609431 204.81265 
L 155.666226 204.753186 
L 155.754208 204.218011 
L 155.83551 204.158547 
L 155.928852 203.712568 
L 155.97843 203.653104 
L 156.08947 202.999001 
L 156.144725 202.909805 
L 156.242527 202.196239 
L 156.285144 202.107043 
L 156.394253 201.809723 
L 156.436501 201.720527 
L 156.544671 201.15562 
L 156.550661 201.15562 
L 156.640261 200.679909 
L 156.699741 200.590713 
L 156.782672 200.263662 
L 156.894595 200.174466 
L 156.976607 199.639291 
L 157.029126 199.579827 
L 157.122105 199.223044 
L 157.162628 199.193312 
L 157.272146 198.687869 
L 157.289376 198.687869 
L 157.392398 198.033766 
L 157.455057 197.94457 
L 157.551454 197.379663 
L 157.61918 197.290467 
L 157.714676 196.755292 
L 157.765022 196.666096 
L 157.870833 196.368777 
L 157.898572 196.368777 
L 157.998067 195.744406 
L 158.042106 195.714674 
L 158.113432 195.209231 
L 158.184468 195.149767 
L 158.276927 194.555128 
L 158.325678 194.495664 
L 158.417392 194.257808 
L 158.465753 194.257808 
L 158.572743 193.722633 
L 158.604712 193.722633 
L 158.710855 193.276654 
L 158.742573 193.246922 
L 158.847883 192.14684 
L 158.884591 192.057644 
L 158.994256 191.671129 
L 159.015067 191.671129 
L 159.123917 191.254881 
L 159.149734 191.225149 
L 159.252621 190.898098 
L 159.283369 190.838634 
L 159.354904 190.243995 
L 159.415988 190.184531 
L 159.497101 189.56016 
L 159.547605 189.500696 
L 159.638147 189.114181 
L 159.678237 189.024985 
L 159.778062 188.430346 
L 159.812866 188.34115 
L 159.911925 188.103295 
L 159.936602 188.043831 
L 160.044768 187.56812 
L 160.064363 187.538388 
L 160.171742 186.914017 
L 160.191194 186.914017 
L 160.297798 186.378842 
L 160.384537 186.289646 
L 160.494745 185.546347 
L 160.509069 185.486883 
L 160.618496 185.1301 
L 160.64693 185.040904 
L 160.755498 184.357069 
L 160.802491 184.267873 
L 160.891432 183.673234 
L 160.933404 183.643503 
L 161.040208 183.138059 
L 161.095674 183.048864 
L 161.192316 182.721812 
L 161.26102 182.662348 
L 161.361298 182.305565 
L 161.374928 182.305565 
L 161.483584 181.502802 
L 161.528659 181.443338 
L 161.605019 180.878431 
L 161.703344 180.789235 
L 161.801118 180.283792 
L 161.854219 180.194596 
L 161.96433 179.689153 
L 161.990653 179.659421 
L 162.095552 179.005319 
L 162.121678 178.975587 
L 162.230118 178.470143 
L 162.273306 178.41068 
L 162.367945 178.024164 
L 162.41935 177.934968 
L 162.500433 177.459257 
L 162.568423 177.399793 
L 162.661478 176.805154 
L 162.703612 176.715958 
L 162.787576 176.180783 
L 162.825228 176.180783 
L 162.933547 175.526681 
L 162.987455 175.437485 
L 163.074187 174.842846 
L 163.119446 174.783382 
L 163.230042 174.218475 
L 163.254524 174.188743 
L 163.36427 173.742764 
L 163.412824 173.713032 
L 163.517565 173.029197 
L 163.553675 172.940001 
L 163.633654 172.642681 
L 163.673506 172.642681 
L 163.78461 171.929115 
L 163.839898 171.839919 
L 163.946031 171.364208 
L 163.981266 171.334476 
L 164.090433 170.591177 
L 164.133133 170.561445 
L 164.237502 169.937074 
L 164.283689 169.847878 
L 164.390984 169.461363 
L 164.432956 169.372167 
L 164.531763 169.045116 
L 164.580957 168.985652 
L 164.67893 168.628868 
L 164.727712 168.539673 
L 164.813684 168.212621 
L 164.865808 168.123425 
L 164.969592 167.350395 
L 165.017568 167.320663 
L 165.124118 166.874683 
L 165.160709 166.874683 
L 165.266391 166.161117 
L 165.295432 166.071921 
L 165.396698 165.536746 
L 165.421922 165.44755 
L 165.526038 164.882643 
L 165.536773 164.882643 
L 165.647318 164.525859 
L 165.675732 164.466396 
L 165.778348 163.842025 
L 165.810071 163.752829 
L 165.9084 163.15819 
L 165.953865 163.068994 
L 166.047915 162.414891 
L 166.086087 162.385159 
L 166.196659 161.582397 
L 166.220754 161.493201 
L 166.320221 160.958026 
L 166.354389 160.898562 
L 166.446309 160.482314 
L 166.493781 160.393119 
L 166.598441 159.79848 
L 166.618625 159.709284 
L 166.725883 159.233573 
L 166.772601 159.144377 
L 166.878918 158.757861 
L 166.918621 158.668666 
L 167.007622 158.252418 
L 167.050313 158.192954 
L 167.154955 157.628047 
L 167.197288 157.538851 
L 167.304287 157.06314 
L 167.346259 156.973944 
L 167.436318 156.319842 
L 167.471572 156.319842 
L 167.570541 155.933326 
L 167.611878 155.84413 
L 167.719528 155.100832 
L 167.728995 155.0711 
L 167.839062 154.179141 
L 167.851597 154.089945 
L 167.951554 153.584502 
L 167.973343 153.495306 
L 168.060229 152.900667 
L 168.103511 152.811472 
L 168.205108 152.543884 
L 168.244969 152.48442 
L 168.351837 151.800585 
L 168.367051 151.71139 
L 168.458054 151.176214 
L 168.482242 151.116751 
L 168.590673 150.611307 
L 168.599679 150.522112 
L 168.701418 150.105864 
L 168.740162 150.0464 
L 168.847006 149.27337 
L 168.882476 149.184174 
L 168.985519 148.500339 
L 169.020709 148.411143 
L 169.114201 147.9057 
L 169.137496 147.875968 
L 169.239048 147.400257 
L 169.279504 147.311061 
L 169.368752 146.656958 
L 169.428951 146.567762 
L 169.528825 146.151515 
L 169.577129 146.062319 
L 169.659223 145.556876 
L 169.729685 145.46768 
L 169.83904 144.962237 
L 169.911564 144.873041 
L 170.022555 144.54599 
L 170.086056 144.456794 
L 170.184987 143.981083 
L 170.236975 143.921619 
L 170.324185 143.505372 
L 170.392016 143.416176 
L 170.473066 143.059392 
L 170.551058 142.970197 
L 170.639386 142.464753 
L 170.703344 142.375558 
L 170.806779 141.870114 
L 170.835842 141.780919 
L 170.927995 141.275475 
L 170.967341 141.216012 
L 171.077038 140.502445 
L 171.103055 140.413249 
L 171.204153 139.997002 
L 171.222237 139.997002 
L 171.330348 139.461827 
L 171.345738 139.402363 
L 171.447991 138.956383 
L 171.470916 138.926652 
L 171.580031 138.153621 
L 171.612885 138.064425 
L 171.723627 137.350858 
L 171.766226 137.291394 
L 171.863562 136.726487 
L 171.928152 136.637291 
L 172.031987 136.280508 
L 172.098413 136.191312 
L 172.208564 135.775065 
L 172.215882 135.745333 
L 172.301041 135.358818 
L 172.339833 135.299354 
L 172.436436 134.883106 
L 172.482136 134.793911 
L 172.585122 134.377663 
L 172.618521 134.318199 
L 172.715968 133.901952 
L 172.777482 133.842488 
L 172.888133 133.337045 
L 172.899863 133.337045 
L 172.991089 132.980262 
L 173.021392 132.95053 
L 173.111986 132.623478 
L 173.155951 132.564014 
L 173.261938 131.850448 
L 173.31927 131.761252 
L 173.410611 131.523396 
L 173.474266 131.4342 
L 173.573829 130.720634 
L 173.612145 130.631438 
L 173.713164 129.828675 
L 173.764571 129.739479 
L 173.87137 129.263768 
L 173.913465 129.174572 
L 174.021557 128.817789 
L 174.050123 128.728593 
L 174.13554 128.312346 
L 174.190075 128.22315 
L 174.276979 127.717707 
L 174.305129 127.628511 
L 174.415129 127.360923 
L 174.455933 127.271728 
L 174.550061 126.914944 
L 174.586293 126.885212 
L 174.696655 126.141914 
L 174.749466 126.052718 
L 174.858804 125.63647 
L 174.898584 125.547275 
L 175.002836 124.952636 
L 175.021535 124.952636 
L 175.129186 124.387729 
L 175.155995 124.298533 
L 175.262821 124.120141 
L 175.315989 124.030945 
L 175.421842 123.555234 
L 175.49273 123.466038 
L 175.603545 122.901131 
L 175.631641 122.811935 
L 175.727626 122.455152 
L 175.773432 122.365956 
L 175.872598 122.038905 
L 175.912107 121.979441 
L 175.998714 121.622657 
L 176.045773 121.533461 
L 176.139511 121.236142 
L 176.164813 121.236142 
L 176.275317 120.611771 
L 176.310068 120.552307 
L 176.410073 119.9874 
L 176.446471 119.957668 
L 176.545699 119.511689 
L 176.625434 119.422493 
L 176.733067 118.976514 
L 176.8157 118.887318 
L 176.914718 118.649462 
L 176.985368 118.560267 
L 177.033543 118.411607 
L 177.153401 118.381875 
L 177.263313 118.025092 
L 177.272441 118.025092 
L 177.383421 117.757504 
L 177.428701 117.668308 
L 177.535099 117.311525 
L 177.590744 117.252061 
L 177.687252 116.77635 
L 177.740637 116.746618 
L 177.845155 116.300638 
L 177.887492 116.241175 
L 177.991135 115.735731 
L 178.048838 115.676268 
L 178.15847 115.200556 
L 178.19313 115.111361 
L 178.28637 114.784309 
L 178.329368 114.724845 
L 178.42701 114.308598 
L 178.474775 114.249134 
L 178.58177 113.951815 
L 178.659481 113.862619 
L 178.750267 113.446371 
L 178.775401 113.416639 
L 178.862256 113.149052 
L 178.923793 113.059856 
L 179.031377 112.881464 
L 179.046221 112.792269 
L 179.138301 112.465217 
L 179.169433 112.405753 
L 179.265751 111.930042 
L 179.301531 111.840846 
L 179.401971 111.454331 
L 179.458416 111.424599 
L 179.562762 111.275939 
L 179.581958 111.216475 
L 179.685569 110.948888 
L 179.70463 110.919156 
L 179.807517 110.53264 
L 179.861094 110.443445 
L 179.952111 110.265053 
L 180.072216 110.175857 
L 180.172963 109.819074 
L 180.282349 109.729878 
L 180.392579 109.194703 
L 180.444391 109.105507 
L 180.553605 108.778455 
L 180.576272 108.68926 
L 180.678662 108.332476 
L 180.687667 108.332476 
L 180.774482 108.005425 
L 180.862352 107.916229 
L 180.971941 107.529714 
L 181.011755 107.440518 
L 181.107232 106.964807 
L 181.158427 106.875611 
L 181.244389 106.726951 
L 181.30967 106.697219 
L 181.413613 106.10258 
L 181.450996 106.072848 
L 181.51694 105.745797 
L 181.612545 105.716065 
L 181.72319 105.210622 
L 181.757093 105.121426 
L 181.840161 104.705178 
L 181.904653 104.615983 
L 182.002336 104.318663 
L 182.074549 104.229467 
L 182.164396 103.932148 
L 182.235942 103.872684 
L 182.346807 103.367241 
L 182.378159 103.278045 
L 182.450191 103.010457 
L 182.536779 102.921262 
L 182.59606 102.74287 
L 182.679251 102.653674 
L 182.779358 102.267159 
L 182.829861 102.177963 
L 182.930429 101.850911 
L 182.976549 101.761716 
L 183.085434 101.345468 
L 183.140275 101.256272 
L 183.248145 100.988685 
L 183.315389 100.899489 
L 183.418336 100.542706 
L 183.468304 100.45351 
L 183.563995 100.215654 
L 183.593235 100.126458 
L 183.688245 99.739943 
L 183.772684 99.650747 
L 183.869225 99.264232 
L 184.000015 99.2345 
L 184.080492 98.818253 
L 184.144607 98.758789 
L 184.242788 98.16415 
L 184.269691 98.074954 
L 184.351368 97.926294 
L 184.410861 97.837098 
L 184.477397 97.628975 
L 184.555706 97.569511 
L 184.655192 97.301923 
L 184.720804 97.212727 
L 184.831191 96.737016 
L 184.896146 96.707284 
L 185.004261 96.291037 
L 185.063906 96.201841 
L 185.17331 95.904522 
L 185.184908 95.815326 
L 185.294709 95.190955 
L 185.377469 95.101759 
L 185.487208 94.774708 
L 185.557716 94.685512 
L 185.651661 94.388192 
L 185.739488 94.298996 
L 185.814578 93.942213 
L 185.874864 93.853017 
L 185.971554 93.496234 
L 186.094145 93.407038 
L 186.195103 93.13945 
L 186.260631 93.050255 
L 186.369301 92.604275 
L 186.414741 92.515079 
L 186.523532 92.128564 
L 186.561074 92.039368 
L 186.64978 91.771781 
L 186.685987 91.682585 
L 186.782528 91.29607 
L 186.811069 91.206874 
L 186.905871 90.909554 
L 186.9646 90.820358 
L 187.068983 90.523039 
L 187.096021 90.463575 
L 187.204787 89.868936 
L 187.217174 89.809472 
L 187.324164 89.363493 
L 187.350809 89.304029 
L 187.443748 89.066173 
L 187.470211 89.036441 
L 187.575664 88.56073 
L 187.649305 88.471534 
L 187.725644 88.055287 
L 187.819603 87.966091 
L 187.926934 87.63904 
L 187.959598 87.579576 
L 188.061159 87.282256 
L 188.131803 87.193061 
L 188.231395 86.776813 
L 188.271267 86.717349 
L 188.376828 86.301102 
L 188.418296 86.27137 
L 188.522016 85.855123 
L 188.54785 85.795659 
L 188.643199 85.409144 
L 188.731408 85.319948 
L 188.83987 85.082092 
L 188.934575 84.992896 
L 189.037138 84.695577 
L 189.061292 84.636113 
L 189.169573 84.249598 
L 189.175108 84.249598 
L 189.271684 83.803618 
L 189.336686 83.714423 
L 189.416007 83.298175 
L 189.485006 83.208979 
L 189.570871 82.971124 
L 189.631176 82.941392 
L 189.724372 82.525145 
L 189.793944 82.435949 
L 189.903092 81.960238 
L 189.92696 81.871042 
L 190.035282 81.54399 
L 190.072116 81.484526 
L 190.181284 80.979083 
L 190.205644 80.889887 
L 190.293233 80.77096 
L 190.329527 80.741228 
L 190.430236 80.384444 
L 190.458536 80.295248 
L 190.563615 79.908733 
L 190.609548 79.819537 
L 190.706968 79.522218 
L 190.742412 79.462754 
L 190.850827 79.016775 
L 190.887652 78.927579 
L 190.951077 78.689723 
L 191.029206 78.600527 
L 191.138331 78.065352 
L 191.145746 77.976156 
L 191.247596 77.678837 
L 191.318702 77.589641 
L 191.420361 76.995002 
L 191.501263 76.905806 
L 191.609087 76.667951 
L 191.63634 76.578755 
L 191.742538 76.162508 
L 191.771968 76.103044 
L 191.873396 75.865188 
L 191.929404 75.805724 
L 192.004063 75.448941 
L 192.056526 75.359745 
L 192.165644 75.002962 
L 192.207551 74.913766 
L 192.317271 74.556982 
L 192.40026 74.467787 
L 192.508779 73.992075 
L 192.520964 73.902879 
L 192.624195 73.635292 
L 192.664261 73.546096 
L 192.771904 73.159581 
L 192.842302 73.070385 
L 192.949598 72.594674 
L 193.016325 72.53521 
L 193.109315 72.208158 
L 193.137997 72.118963 
L 193.215717 71.821643 
L 193.271957 71.732447 
L 193.365048 71.405396 
L 193.436709 71.3162 
L 193.536112 70.989149 
L 193.616371 70.899953 
L 193.721866 70.543169 
L 193.752397 70.483705 
L 193.854253 70.24585 
L 193.935873 70.156654 
L 194.035969 69.680943 
L 194.10493 69.591747 
L 194.18954 69.383623 
L 194.247558 69.324159 
L 194.347942 69.116036 
L 194.449115 69.02684 
L 194.519181 68.72952 
L 194.615993 68.640325 
L 194.71227 68.461933 
L 194.7746 68.402469 
L 194.878656 67.926758 
L 195.041493 67.837562 
L 195.117753 67.748366 
L 195.202823 67.65917 
L 195.273182 67.451047 
L 195.438834 67.361851 
L 195.515304 67.242923 
L 195.584416 67.153727 
L 195.688208 66.796944 
L 195.904621 66.707748 
L 195.909637 66.618552 
L 196.104129 66.529356 
L 196.159831 66.321233 
L 196.375998 66.232037 
L 196.440572 66.113109 
L 196.612413 66.023913 
L 196.709682 65.875253 
L 196.770051 65.786057 
L 196.861106 65.548202 
L 196.924503 65.459006 
L 196.984135 65.191418 
L 197.06763 65.131955 
L 197.17523 64.953563 
L 197.295491 64.864367 
L 197.348098 64.745439 
L 197.497536 64.656243 
L 197.530698 64.537316 
L 197.734005 64.44812 
L 197.799938 64.329192 
L 197.883544 64.239996 
L 197.989023 64.002141 
L 198.156803 63.912945 
L 198.255167 63.764285 
L 198.329533 63.675089 
L 198.352434 63.585893 
L 198.537271 63.496697 
L 198.621718 63.37777 
L 198.715901 63.288574 
L 198.731371 63.22911 
L 198.900642 63.139914 
L 198.997011 62.902058 
L 199.197512 62.812863 
L 199.268491 62.723667 
L 199.381871 62.634471 
L 199.454663 62.396615 
L 199.5582 62.307419 
L 199.622663 62.188492 
L 199.735784 62.099296 
L 199.822149 61.920904 
L 199.957861 61.831708 
L 199.963327 61.742512 
L 200.262334 61.653317 
L 200.359256 61.564121 
L 200.486527 61.474925 
L 200.580776 61.326265 
L 200.729761 61.237069 
L 200.729761 61.207337 
L 200.971524 61.118142 
L 201.044059 61.028946 
L 201.24741 60.93975 
L 201.311911 60.701894 
L 201.570276 60.612698 
L 201.572994 60.553234 
L 201.72186 60.464039 
L 201.820849 60.345111 
L 201.931267 60.255915 
L 202.034373 60.166719 
L 202.077558 60.107255 
L 202.132048 59.8694 
L 202.302759 59.780204 
L 202.398946 59.661276 
L 202.495895 59.57208 
L 202.558088 59.512616 
L 202.877127 59.42342 
L 202.980239 59.334225 
L 203.046978 59.274761 
L 203.137914 59.066637 
L 203.241971 58.977441 
L 203.34541 58.828781 
L 203.535088 58.739586 
L 203.596514 58.620658 
L 203.795066 58.531462 
L 203.795066 58.50173 
L 204.003998 58.412534 
L 204.041003 58.35307 
L 204.357438 58.263874 
L 204.454102 58.144947 
L 204.609713 58.055751 
L 204.716724 57.847627 
L 204.862143 57.758431 
L 204.946352 57.609772 
L 205.063937 57.520576 
L 205.157511 57.43138 
L 205.284308 57.342184 
L 205.390546 57.223256 
L 205.533364 57.13406 
L 205.571588 57.074596 
L 205.89457 56.985401 
L 205.972894 56.896205 
L 206.192571 56.807009 
L 206.292051 56.598885 
L 206.511865 56.509689 
L 206.571151 56.420494 
L 206.743095 56.331298 
L 206.842172 56.182638 
L 206.958662 56.093442 
L 207.065455 55.944782 
L 207.287221 55.855587 
L 207.374169 55.706927 
L 207.477809 55.617731 
L 207.477809 55.587999 
L 207.899559 55.498803 
L 208.007339 55.379875 
L 208.164509 55.29068 
L 208.261409 55.112288 
L 208.31566 55.023092 
L 208.378025 54.874432 
L 208.598349 54.785236 
L 208.701305 54.636577 
L 208.768307 54.547381 
L 208.860128 54.487917 
L 209.02993 54.398721 
L 209.129496 54.190597 
L 209.257679 54.101402 
L 209.335068 53.982474 
L 209.471262 53.893278 
L 209.570638 53.744618 
L 209.63182 53.655422 
L 209.690228 53.506763 
L 209.79996 53.417567 
L 209.89355 53.328371 
L 210.100642 53.239175 
L 210.178813 53.179711 
L 210.356575 53.090515 
L 210.413701 53.001319 
L 210.678557 52.912124 
L 210.775046 52.763464 
L 210.949245 52.674268 
L 211.044252 52.585072 
L 211.187365 52.495876 
L 211.27927 52.376949 
L 211.473198 52.287753 
L 211.57536 52.168825 
L 211.658642 52.079629 
L 211.741782 51.960701 
L 212.008285 51.871505 
L 212.093744 51.752578 
L 212.304597 51.663382 
L 212.343728 51.603918 
L 212.532034 51.514722 
L 212.62555 51.33633 
L 212.798958 51.247135 
L 212.896028 51.068743 
L 213.074044 50.979547 
L 213.074044 50.949815 
L 213.378272 50.860619 
L 213.411852 50.801155 
L 213.62334 50.711959 
L 213.697866 50.533568 
L 213.99705 50.444372 
L 214.102937 50.236248 
L 214.25532 50.147052 
L 214.347028 50.028125 
L 214.487367 49.938929 
L 214.575072 49.760537 
L 214.694605 49.671341 
L 214.710396 49.582145 
L 214.863504 49.49295 
L 214.946608 49.314558 
L 215.121639 49.225362 
L 215.182985 49.076702 
L 215.33531 48.987506 
L 215.437899 48.898311 
L 215.513632 48.809115 
L 215.583358 48.690187 
L 215.777642 48.600991 
L 215.835928 48.452331 
L 215.985653 48.363135 
L 216.066549 48.184744 
L 216.313433 48.095548 
L 216.410442 48.006352 
L 216.725086 47.917156 
L 216.787491 47.768496 
L 216.915582 47.679301 
L 216.931927 47.619837 
L 217.09193 47.530641 
L 217.181013 47.441445 
L 217.336739 47.352249 
L 217.447205 47.144126 
L 217.49836 47.05493 
L 217.609255 46.817074 
L 217.66876 46.727878 
L 217.75728 46.549487 
L 217.852836 46.460291 
L 217.954779 46.371095 
L 218.140257 46.281899 
L 218.249247 46.162971 
L 218.436632 46.073775 
L 218.51569 45.806188 
L 218.642295 45.716992 
L 218.747185 45.627796 
L 218.933676 45.5386 
L 219.03933 45.360209 
L 219.099299 45.271013 
L 219.182515 45.122353 
L 219.2788 45.033157 
L 219.389894 44.854766 
L 219.567089 44.76557 
L 219.665935 44.676374 
L 219.784167 44.587178 
L 219.870216 44.349322 
L 219.976513 44.260127 
L 220.080441 44.022271 
L 220.195749 43.933075 
L 220.306122 43.754683 
L 220.435166 43.665488 
L 220.540375 43.516828 
L 220.761425 43.427632 
L 220.829586 43.24924 
L 221.002324 43.160044 
L 221.071773 43.011385 
L 221.195734 42.922189 
L 221.272765 42.803261 
L 221.356161 42.714065 
L 221.465822 42.565405 
L 221.542825 42.47621 
L 221.653041 42.357282 
L 221.749179 42.268086 
L 221.836854 42.119426 
L 221.967616 42.03023 
L 222.076726 41.881571 
L 222.17946 41.792375 
L 222.288776 41.554519 
L 222.406742 41.465323 
L 222.509329 41.286932 
L 222.61728 41.197736 
L 222.700978 41.049076 
L 222.775144 40.95988 
L 222.883337 40.751757 
L 222.962448 40.662561 
L 223.07345 40.484169 
L 223.107878 40.394973 
L 223.218223 40.157118 
L 223.309256 40.067922 
L 223.417302 39.800334 
L 223.499962 39.711138 
L 223.59646 39.592211 
L 223.700582 39.503015 
L 223.80839 39.235427 
L 223.941686 39.146231 
L 224.0404 38.908376 
L 224.147003 38.81918 
L 224.256414 38.611056 
L 224.305573 38.52186 
L 224.405313 38.343469 
L 224.458202 38.254273 
L 224.569077 37.927221 
L 224.625217 37.838026 
L 224.735159 37.570438 
L 224.773529 37.481242 
L 224.838804 37.302851 
L 224.913463 37.213655 
L 225.023615 36.975799 
L 225.076783 36.886603 
L 225.162267 36.797407 
L 225.210576 36.708212 
L 225.294827 36.470356 
L 225.438843 36.38116 
L 225.548715 36.054109 
L 225.617549 35.964913 
L 225.714506 35.667593 
L 225.784725 35.578397 
L 225.871764 35.31081 
L 225.958484 35.221614 
L 226.067476 35.102686 
L 226.144043 35.01349 
L 226.236362 34.894563 
L 226.341556 34.805367 
L 226.442638 34.478315 
L 226.577299 34.38912 
L 226.669079 34.121532 
L 226.725928 34.032336 
L 226.812776 33.913408 
L 226.904917 33.824213 
L 226.968821 33.735017 
L 227.049425 33.645821 
L 227.158305 33.348501 
L 227.216292 33.259305 
L 227.324242 33.080914 
L 227.351849 32.991718 
L 227.45989 32.694398 
L 227.490665 32.605203 
L 227.554914 32.397079 
L 227.691623 32.307883 
L 227.771785 32.129491 
L 227.923217 32.040296 
L 227.999537 31.861904 
L 228.072848 31.772708 
L 228.183719 31.624048 
L 228.260381 31.534852 
L 228.29751 31.386193 
L 228.436698 31.296997 
L 228.547023 30.969945 
L 228.601828 30.88075 
L 228.70041 30.58343 
L 228.792731 30.494234 
L 228.874249 30.196915 
L 228.98834 30.107719 
L 229.058555 29.929327 
L 229.17294 29.840131 
L 229.275942 29.721204 
L 229.401595 29.632008 
L 229.500246 29.453616 
L 229.576893 29.36442 
L 229.656464 29.245492 
L 229.74063 29.156297 
L 229.828784 28.799513 
L 229.92015 28.710317 
L 230.015032 28.44273 
L 230.115133 28.353534 
L 230.20598 28.056214 
L 230.246108 27.967019 
L 230.342806 27.818359 
L 230.39781 27.729163 
L 230.491515 27.580503 
L 230.556373 27.491307 
L 230.623302 27.342648 
L 230.760049 27.253452 
L 230.866535 27.015596 
L 231.014381 26.9264 
L 231.119829 26.718277 
L 231.169535 26.629081 
L 231.263983 26.302029 
L 231.361207 26.212834 
L 231.447847 26.064174 
L 231.540073 25.974978 
L 231.63149 25.885782 
L 231.820898 25.796586 
L 231.919129 25.320875 
L 231.991016 25.231679 
L 232.073724 24.993824 
L 232.11442 24.904628 
L 232.198032 24.7857 
L 232.261142 24.696504 
L 232.365847 24.458649 
L 232.524998 24.369453 
L 232.622332 24.131597 
L 232.767511 24.042401 
L 232.875626 23.655886 
L 233.005726 23.56669 
L 233.103838 23.269371 
L 233.198225 23.180175 
L 233.28534 23.001783 
L 233.398412 22.912587 
L 233.504004 22.704464 
L 233.646087 22.615268 
L 233.752629 22.436876 
L 233.826979 22.34768 
L 233.930582 22.199021 
L 233.998746 22.109825 
L 234.091302 21.782773 
L 234.223683 21.693577 
L 234.332926 21.485454 
L 234.439357 21.396258 
L 234.517283 21.217866 
L 234.652192 21.12867 
L 234.734318 20.890815 
L 234.838871 20.801619 
L 234.946613 20.504299 
L 235.007196 20.415104 
L 235.058275 20.296176 
L 235.156024 20.20698 
L 235.265111 20.088052 
L 235.486768 19.998856 
L 235.574222 19.761001 
L 235.701931 19.671805 
L 235.739014 19.552877 
L 235.984075 19.463681 
L 236.09225 19.225826 
L 236.163954 19.13663 
L 236.264392 18.958238 
L 236.359386 18.869042 
L 236.452701 18.720383 
L 236.525323 18.631187 
L 236.578054 18.541991 
L 237.595066 18.452795 
L 237.703654 18.214939 
L 238.12725 18.125744 
L 238.12725 18.096012 
L 238.797149 18.006816 
L 238.797149 17.977084 
L 242.082612 17.887888 
L 242.082612 17.858156 
L 243.164605 17.76896 
L 243.164605 17.709496 
L 243.919118 17.6203 
L 243.930002 17.560837 
L 244.40469 17.471641 
L 244.429329 17.382445 
L 244.828896 17.293249 
L 244.935122 17.114857 
L 245.304029 17.025661 
L 245.374689 16.966198 
L 245.504086 16.877002 
L 245.607541 16.728342 
L 245.861218 16.639146 
L 245.915306 16.54995 
L 246.051608 16.460754 
L 246.114888 16.341827 
L 246.224999 16.252631 
L 246.243928 16.193167 
L 246.461334 16.103971 
L 246.531731 16.044507 
L 246.692805 15.955311 
L 246.719384 15.866115 
L 246.90642 15.77692 
L 247.010456 15.62826 
L 247.152638 15.539064 
L 247.225115 15.390404 
L 247.389518 15.301208 
L 247.481406 15.063353 
L 247.609568 14.974157 
L 247.711127 14.647106 
L 247.813793 14.55791 
L 247.897436 14.349786 
L 247.992799 14.26059 
L 248.09678 14.141662 
L 248.219702 14.052467 
L 248.283671 13.933539 
L 248.50256 13.844343 
L 248.608518 13.695683 
L 248.689142 13.606487 
L 248.689233 13.517291 
L 249.185743 13.428096 
L 249.218768 13.368632 
L 249.847078 13.279436 
L 249.847078 13.249704 
L 251.038431 13.160508 
L 251.038431 13.130776 
L 251.7826 13.04158 
L 251.817285 12.982116 
L 252.642781 12.892921 
L 252.749714 12.744261 
L 252.967923 12.655065 
L 253.070841 12.565869 
L 253.265315 12.476673 
L 253.338944 12.298282 
L 253.57438 12.209086 
L 253.592871 12.149622 
L 253.861103 12.060426 
L 253.882193 11.97123 
L 254.119729 11.882034 
L 254.183137 11.733375 
L 254.416833 11.644179 
L 254.480022 11.465787 
L 254.614894 11.376591 
L 254.623795 11.317127 
L 254.876368 11.227931 
L 254.978175 11.138736 
L 255.046101 11.04954 
L 255.154762 10.90088 
L 255.209995 10.811684 
L 255.303556 10.692756 
L 255.38099 10.60356 
L 255.447729 10.425169 
L 255.672004 10.335973 
L 255.705819 10.127849 
L 259.463445 10.038653 
L 259.555521 9.97919 
L 259.967278 9.889994 
L 260.025811 9.83053 
L 260.353303 9.741334 
L 260.403533 9.68187 
L 260.637566 9.592674 
L 260.732462 9.503478 
L 262.32499 9.414283 
L 262.338516 9.354819 
L 263.311958 9.265623 
L 263.340399 9.176427 
L 263.695018 9.087231 
L 263.699472 9.027767 
L 263.961249 8.938571 
L 263.973721 8.879107 
L 264.295422 8.789912 
L 264.365773 8.61152 
L 266.264525 8.522324 
L 266.264525 8.492592 
L 267.043972 8.403396 
L 267.043972 8.373664 
L 267.648543 8.284468 
L 267.699289 8.195273 
L 267.809147 8.106077 
L 267.809147 8.076345 
L 269.959101 7.987149 
L 269.959101 7.957417 
L 272.143875 7.868221 
L 272.199969 7.749293 
L 272.789006 7.660098 
L 272.789006 7.630366 
L 276.15104 7.54117 
L 276.15104 7.511438 
L 276.599919 7.422242 
L 276.613334 7.362778 
L 278.227104 7.273582 
L 278.27116 7.154654 
L 281.163999 7.065459 
L 281.163999 7.035727 
L 286.696685 6.946531 
L 286.696685 6.916799 
L 288.850099 6.827603 
L 288.850099 6.797871 
L 290.958621 6.708675 
L 290.958621 6.678943 
L 295.892028 6.589747 
L 295.892028 6.560015 
L 301.636663 6.47082 
L 301.636663 6.441088 
L 338.688 6.381624 
L 338.688 6.381624 
" style="fill:none;stroke:#ff00ff;stroke-linecap:square;stroke-width:1.5;"/>
   </g>
   <g id="line2d_31">
    <defs>
     <path d="M -0 8.485281 
L 5.091169 0 
L 0 -8.485281 
L -5.091169 -0 
z
" id="ma0dcbafeb9" style="stroke:#ff00ff;stroke-linejoin:miter;stroke-width:1.5;"/>
    </defs>
    <g>
     <use style="fill-opacity:0;stroke:#ff00ff;stroke-linejoin:miter;stroke-width:1.5;" x="116.914437" xlink:href="#ma0dcbafeb9" y="280.450728"/>
     <use style="fill-opacity:0;stroke:#ff00ff;stroke-linejoin:miter;stroke-width:1.5;" x="162.436452" xlink:href="#ma0dcbafeb9" y="177.816041"/>
     <use style="fill-opacity:0;stroke:#ff00ff;stroke-linejoin:miter;stroke-width:1.5;" x="183.061878" xlink:href="#ma0dcbafeb9" y="101.494128"/>
     <use style="fill-opacity:0;stroke:#ff00ff;stroke-linejoin:miter;stroke-width:1.5;" x="254.623795" xlink:href="#ma0dcbafeb9" y="11.346859"/>
     <use style="fill-opacity:0;stroke:#ff00ff;stroke-linejoin:miter;stroke-width:1.5;" x="311.293151" xlink:href="#ma0dcbafeb9" y="6.381624"/>
     <use style="fill-opacity:0;stroke:#ff00ff;stroke-linejoin:miter;stroke-width:1.5;" x="338.688" xlink:href="#ma0dcbafeb9" y="6.381624"/>
    </g>
   </g>
   <g id="line2d_32">
    <path style="fill:none;stroke:#ff00ff;stroke-linecap:square;stroke-width:1.5;"/>
    <g/>
   </g>
   <g id="line2d_33">
    <path clip-path="url(#pccd31bdd2b)" d="M 236.640697 18.541991 
" style="fill:none;stroke:#ff00ff;stroke-linecap:square;stroke-width:1.5;"/>
    <defs>
     <path d="M -12 12 
L 12 -12 
M -12 -12 
L 12 12 
" id="m9544b8a1b8" style="stroke:#ff00ff;"/>
    </defs>
    <g clip-path="url(#pccd31bdd2b)">
     <use style="fill:#ff00ff;stroke:#ff00ff;" x="236.640697" xlink:href="#m9544b8a1b8" y="18.541991"/>
    </g>
   </g>
   <g id="line2d_34">
    <path d="M 338.688 6.381624 
L 369.60768 293.092752 
" style="fill:none;stroke:#ff00ff;stroke-linecap:square;stroke-width:1.5;"/>
    <g>
     <use style="fill-opacity:0;stroke:#ff00ff;stroke-linejoin:miter;stroke-width:1.5;" x="338.688" xlink:href="#ma0dcbafeb9" y="6.381624"/>
     <use style="fill-opacity:0;stroke:#ff00ff;stroke-linejoin:miter;stroke-width:1.5;" x="369.60768" xlink:href="#ma0dcbafeb9" y="293.092752"/>
    </g>
   </g>
   <g id="line2d_35">
    <path d="M 338.688 298.944 
L 338.688 6.381624 
" style="fill:none;stroke:#000000;stroke-linecap:square;stroke-width:1.5;"/>
   </g>
   <g id="patch_3">
    <path d="M 57.6 298.944 
L 57.6 3.456 
" style="fill:none;stroke:#000000;stroke-linecap:square;stroke-linejoin:miter;stroke-width:0.8;"/>
   </g>
   <g id="patch_4">
    <path d="M 338.688 298.944 
L 338.688 3.456 
" style="fill:none;stroke:#000000;stroke-linecap:square;stroke-linejoin:miter;stroke-width:0.8;"/>
   </g>
   <g id="patch_5">
    <path d="M 57.6 298.944 
L 338.688 298.944 
" style="fill:none;stroke:#000000;stroke-linecap:square;stroke-linejoin:miter;stroke-width:0.8;"/>
   </g>
   <g id="patch_6">
    <path d="M 57.6 3.456 
L 338.688 3.456 
" style="fill:none;stroke:#000000;stroke-linecap:square;stroke-linejoin:miter;stroke-width:0.8;"/>
   </g>
   <g id="text_13">
    <!-- al cmaes  -->
    <g transform="translate(375.22944 297.78369)scale(0.17 -0.17)">
     <use xlink:href="#DejaVuSans-97"/>
     <use x="61.279297" xlink:href="#DejaVuSans-108"/>
     <use x="89.0625" xlink:href="#DejaVuSans-32"/>
     <use x="120.849609" xlink:href="#DejaVuSans-99"/>
     <use x="175.830078" xlink:href="#DejaVuSans-109"/>
     <use x="273.242188" xlink:href="#DejaVuSans-97"/>
     <use x="334.521484" xlink:href="#DejaVuSans-101"/>
     <use x="396.044922" xlink:href="#DejaVuSans-115"/>
     <use x="448.144531" xlink:href="#DejaVuSans-32"/>
    </g>
   </g>
   <g id="text_14">
    <!-- bbob-constrained f19-f42, 20-D -->
    <g transform="translate(60.41088 14.161286)scale(0.102 -0.102)">
     <defs>
      <path d="M 48.6875 27.296875 
Q 48.6875 37.203125 44.609375 42.84375 
Q 40.53125 48.484375 33.40625 48.484375 
Q 26.265625 48.484375 22.1875 42.84375 
Q 18.109375 37.203125 18.109375 27.296875 
Q 18.109375 17.390625 22.1875 11.75 
Q 26.265625 6.109375 33.40625 6.109375 
Q 40.53125 6.109375 44.609375 11.75 
Q 48.6875 17.390625 48.6875 27.296875 
z
M 18.109375 46.390625 
Q 20.953125 51.265625 25.265625 53.625 
Q 29.59375 56 35.59375 56 
Q 45.5625 56 51.78125 48.09375 
Q 58.015625 40.1875 58.015625 27.296875 
Q 58.015625 14.40625 51.78125 6.484375 
Q 45.5625 -1.421875 35.59375 -1.421875 
Q 29.59375 -1.421875 25.265625 0.953125 
Q 20.953125 3.328125 18.109375 8.203125 
L 18.109375 0 
L 9.078125 0 
L 9.078125 75.984375 
L 18.109375 75.984375 
z
" id="DejaVuSans-98"/>
      <path d="M 10.984375 1.515625 
L 10.984375 10.5 
Q 14.703125 8.734375 18.5 7.8125 
Q 22.3125 6.890625 25.984375 6.890625 
Q 35.75 6.890625 40.890625 13.453125 
Q 46.046875 20.015625 46.78125 33.40625 
Q 43.953125 29.203125 39.59375 26.953125 
Q 35.25 24.703125 29.984375 24.703125 
Q 19.046875 24.703125 12.671875 31.3125 
Q 6.296875 37.9375 6.296875 49.421875 
Q 6.296875 60.640625 12.9375 67.421875 
Q 19.578125 74.21875 30.609375 74.21875 
Q 43.265625 74.21875 49.921875 64.515625 
Q 56.59375 54.828125 56.59375 36.375 
Q 56.59375 19.140625 48.40625 8.859375 
Q 40.234375 -1.421875 26.421875 -1.421875 
Q 22.703125 -1.421875 18.890625 -0.6875 
Q 15.09375 0.046875 10.984375 1.515625 
z
M 30.609375 32.421875 
Q 37.25 32.421875 41.125 36.953125 
Q 45.015625 41.5 45.015625 49.421875 
Q 45.015625 57.28125 41.125 61.84375 
Q 37.25 66.40625 30.609375 66.40625 
Q 23.96875 66.40625 20.09375 61.84375 
Q 16.21875 57.28125 16.21875 49.421875 
Q 16.21875 41.5 20.09375 36.953125 
Q 23.96875 32.421875 30.609375 32.421875 
z
" id="DejaVuSans-57"/>
      <path d="M 19.671875 64.796875 
L 19.671875 8.109375 
L 31.59375 8.109375 
Q 46.6875 8.109375 53.6875 14.9375 
Q 60.6875 21.78125 60.6875 36.53125 
Q 60.6875 51.171875 53.6875 57.984375 
Q 46.6875 64.796875 31.59375 64.796875 
z
M 9.8125 72.90625 
L 30.078125 72.90625 
Q 51.265625 72.90625 61.171875 64.09375 
Q 71.09375 55.28125 71.09375 36.53125 
Q 71.09375 17.671875 61.125 8.828125 
Q 51.171875 0 30.078125 0 
L 9.8125 0 
z
" id="DejaVuSans-68"/>
     </defs>
     <use xlink:href="#DejaVuSans-98"/>
     <use x="63.476562" xlink:href="#DejaVuSans-98"/>
     <use x="126.953125" xlink:href="#DejaVuSans-111"/>
     <use x="188.134766" xlink:href="#DejaVuSans-98"/>
     <use x="251.611328" xlink:href="#DejaVuSans-45"/>
     <use x="287.695312" xlink:href="#DejaVuSans-99"/>
     <use x="342.675781" xlink:href="#DejaVuSans-111"/>
     <use x="403.857422" xlink:href="#DejaVuSans-110"/>
     <use x="467.236328" xlink:href="#DejaVuSans-115"/>
     <use x="519.335938" xlink:href="#DejaVuSans-116"/>
     <use x="558.544922" xlink:href="#DejaVuSans-114"/>
     <use x="599.658203" xlink:href="#DejaVuSans-97"/>
     <use x="660.9375" xlink:href="#DejaVuSans-105"/>
     <use x="688.720703" xlink:href="#DejaVuSans-110"/>
     <use x="752.099609" xlink:href="#DejaVuSans-101"/>
     <use x="813.623047" xlink:href="#DejaVuSans-100"/>
     <use x="877.099609" xlink:href="#DejaVuSans-32"/>
     <use x="908.886719" xlink:href="#DejaVuSans-102"/>
     <use x="944.091797" xlink:href="#DejaVuSans-49"/>
     <use x="1007.714844" xlink:href="#DejaVuSans-57"/>
     <use x="1071.337891" xlink:href="#DejaVuSans-45"/>
     <use x="1107.421875" xlink:href="#DejaVuSans-102"/>
     <use x="1142.626953" xlink:href="#DejaVuSans-52"/>
     <use x="1206.25" xlink:href="#DejaVuSans-50"/>
     <use x="1269.873047" xlink:href="#DejaVuSans-44"/>
     <use x="1301.660156" xlink:href="#DejaVuSans-32"/>
     <use x="1333.447266" xlink:href="#DejaVuSans-50"/>
     <use x="1397.070312" xlink:href="#DejaVuSans-48"/>
     <use x="1460.693359" xlink:href="#DejaVuSans-45"/>
     <use x="1496.777344" xlink:href="#DejaVuSans-68"/>
    </g>
    <!-- 41 targets: 100..1e-06 -->
    <g transform="translate(60.41088 25.583055)scale(0.102 -0.102)">
     <defs>
      <path d="M 11.71875 12.40625 
L 22.015625 12.40625 
L 22.015625 0 
L 11.71875 0 
z
M 11.71875 51.703125 
L 22.015625 51.703125 
L 22.015625 39.3125 
L 11.71875 39.3125 
z
" id="DejaVuSans-58"/>
     </defs>
     <use xlink:href="#DejaVuSans-52"/>
     <use x="63.623047" xlink:href="#DejaVuSans-49"/>
     <use x="127.246094" xlink:href="#DejaVuSans-32"/>
     <use x="159.033203" xlink:href="#DejaVuSans-116"/>
     <use x="198.242188" xlink:href="#DejaVuSans-97"/>
     <use x="259.521484" xlink:href="#DejaVuSans-114"/>
     <use x="298.884766" xlink:href="#DejaVuSans-103"/>
     <use x="362.361328" xlink:href="#DejaVuSans-101"/>
     <use x="423.884766" xlink:href="#DejaVuSans-116"/>
     <use x="463.09375" xlink:href="#DejaVuSans-115"/>
     <use x="515.193359" xlink:href="#DejaVuSans-58"/>
     <use x="548.884766" xlink:href="#DejaVuSans-32"/>
     <use x="580.671875" xlink:href="#DejaVuSans-49"/>
     <use x="644.294922" xlink:href="#DejaVuSans-48"/>
     <use x="707.917969" xlink:href="#DejaVuSans-48"/>
     <use x="771.541016" xlink:href="#DejaVuSans-46"/>
     <use x="803.328125" xlink:href="#DejaVuSans-46"/>
     <use x="835.115234" xlink:href="#DejaVuSans-49"/>
     <use x="898.738281" xlink:href="#DejaVuSans-101"/>
     <use x="960.261719" xlink:href="#DejaVuSans-45"/>
     <use x="996.345703" xlink:href="#DejaVuSans-48"/>
     <use x="1059.96875" xlink:href="#DejaVuSans-54"/>
    </g>
    <!-- 15 instances -->
    <g transform="translate(60.41088 37.004824)scale(0.102 -0.102)">
     <defs>
      <path d="M 10.796875 72.90625 
L 49.515625 72.90625 
L 49.515625 64.59375 
L 19.828125 64.59375 
L 19.828125 46.734375 
Q 21.96875 47.46875 24.109375 47.828125 
Q 26.265625 48.1875 28.421875 48.1875 
Q 40.625 48.1875 47.75 41.5 
Q 54.890625 34.8125 54.890625 23.390625 
Q 54.890625 11.625 47.5625 5.09375 
Q 40.234375 -1.421875 26.90625 -1.421875 
Q 22.3125 -1.421875 17.546875 -0.640625 
Q 12.796875 0.140625 7.71875 1.703125 
L 7.71875 11.625 
Q 12.109375 9.234375 16.796875 8.0625 
Q 21.484375 6.890625 26.703125 6.890625 
Q 35.15625 6.890625 40.078125 11.328125 
Q 45.015625 15.765625 45.015625 23.390625 
Q 45.015625 31 40.078125 35.4375 
Q 35.15625 39.890625 26.703125 39.890625 
Q 22.75 39.890625 18.8125 39.015625 
Q 14.890625 38.140625 10.796875 36.28125 
z
" id="DejaVuSans-53"/>
     </defs>
     <use xlink:href="#DejaVuSans-49"/>
     <use x="63.623047" xlink:href="#DejaVuSans-53"/>
     <use x="127.246094" xlink:href="#DejaVuSans-32"/>
     <use x="159.033203" xlink:href="#DejaVuSans-105"/>
     <use x="186.816406" xlink:href="#DejaVuSans-110"/>
     <use x="250.195312" xlink:href="#DejaVuSans-115"/>
     <use x="302.294922" xlink:href="#DejaVuSans-116"/>
     <use x="341.503906" xlink:href="#DejaVuSans-97"/>
     <use x="402.783203" xlink:href="#DejaVuSans-110"/>
     <use x="466.162109" xlink:href="#DejaVuSans-99"/>
     <use x="521.142578" xlink:href="#DejaVuSans-101"/>
     <use x="582.666016" xlink:href="#DejaVuSans-115"/>
    </g>
   </g>
   <g id="text_15">
    <!-- v5z33 -->
    <g style="fill:#808080;" transform="translate(183.016656 293.909432)scale(0.1 -0.1)">
     <defs>
      <path d="M 5.515625 54.6875 
L 48.1875 54.6875 
L 48.1875 46.484375 
L 14.40625 7.171875 
L 48.1875 7.171875 
L 48.1875 0 
L 4.296875 0 
L 4.296875 8.203125 
L 38.09375 47.515625 
L 5.515625 47.515625 
z
" id="DejaVuSans-122"/>
      <path d="M 40.578125 39.3125 
Q 47.65625 37.796875 51.625 33 
Q 55.609375 28.21875 55.609375 21.1875 
Q 55.609375 10.40625 48.1875 4.484375 
Q 40.765625 -1.421875 27.09375 -1.421875 
Q 22.515625 -1.421875 17.65625 -0.515625 
Q 12.796875 0.390625 7.625 2.203125 
L 7.625 11.71875 
Q 11.71875 9.328125 16.59375 8.109375 
Q 21.484375 6.890625 26.8125 6.890625 
Q 36.078125 6.890625 40.9375 10.546875 
Q 45.796875 14.203125 45.796875 21.1875 
Q 45.796875 27.640625 41.28125 31.265625 
Q 36.765625 34.90625 28.71875 34.90625 
L 20.21875 34.90625 
L 20.21875 43.015625 
L 29.109375 43.015625 
Q 36.375 43.015625 40.234375 45.921875 
Q 44.09375 48.828125 44.09375 54.296875 
Q 44.09375 59.90625 40.109375 62.90625 
Q 36.140625 65.921875 28.71875 65.921875 
Q 24.65625 65.921875 20.015625 65.03125 
Q 15.375 64.15625 9.8125 62.3125 
L 9.8125 71.09375 
Q 15.4375 72.65625 20.34375 73.4375 
Q 25.25 74.21875 29.59375 74.21875 
Q 40.828125 74.21875 47.359375 69.109375 
Q 53.90625 64.015625 53.90625 55.328125 
Q 53.90625 49.265625 50.4375 45.09375 
Q 46.96875 40.921875 40.578125 39.3125 
z
" id="DejaVuSans-51"/>
     </defs>
     <use xlink:href="#DejaVuSans-118"/>
     <use x="59.179688" xlink:href="#DejaVuSans-53"/>
     <use x="122.802734" xlink:href="#DejaVuSans-122"/>
     <use x="175.292969" xlink:href="#DejaVuSans-51"/>
     <use x="238.916016" xlink:href="#DejaVuSans-51"/>
    </g>
   </g>
  </g>
 </g>
 <defs>
  <clipPath id="pccd31bdd2b">
   <rect height="295.488" width="281.088" x="57.6" y="3.456"/>
  </clipPath>
 </defs>
</svg>
