<?xml version="1.0" encoding="utf-8" standalone="no"?>
<!DOCTYPE svg PUBLIC "-//W3C//DTD SVG 1.1//EN"
  "http://www.w3.org/Graphics/SVG/1.1/DTD/svg11.dtd">
<!-- Created with matplotlib (https://matplotlib.org/) -->
<svg height="354.803672pt" version="1.1" viewBox="0 0 341.469297 354.803672" width="341.469297pt" xmlns="http://www.w3.org/2000/svg" xmlns:xlink="http://www.w3.org/1999/xlink">
 <metadata>
  <rdf:RDF xmlns:cc="http://creativecommons.org/ns#" xmlns:dc="http://purl.org/dc/elements/1.1/" xmlns:rdf="http://www.w3.org/1999/02/22-rdf-syntax-ns#">
   <cc:Work>
    <dc:type rdf:resource="http://purl.org/dc/dcmitype/StillImage"/>
    <dc:date>2021-03-02T18:27:00.890606</dc:date>
    <dc:format>image/svg+xml</dc:format>
    <dc:creator>
     <cc:Agent>
      <dc:title>Matplotlib v3.3.3, https://matplotlib.org/</dc:title>
     </cc:Agent>
    </dc:creator>
   </cc:Work>
  </rdf:RDF>
 </metadata>
 <defs>
  <style type="text/css">*{stroke-linecap:butt;stroke-linejoin:round;}</style>
 </defs>
 <g id="figure_1">
  <g id="patch_1">
   <path d="M 0 354.803672 
L 341.469297 354.803672 
L 341.469297 0 
L 0 0 
z
" style="fill:#ffffff;"/>
  </g>
  <g id="axes_1">
   <g id="patch_2">
    <path d="M 45.941875 303.225234 
L 321.741875 303.225234 
L 321.741875 27.425234 
L 45.941875 27.425234 
z
" style="fill:#ffffff;"/>
   </g>
   <g id="line2d_1">
    <path clip-path="url(#p0319b17985)" d="M 225.193509 179.394803 
L 225.193509 125.083006 
" style="fill:none;stroke:#00bfbf;stroke-linecap:square;stroke-width:1.5;"/>
   </g>
   <g id="line2d_2">
    <path clip-path="url(#p0319b17985)" d="M 170.881713 125.083006 
L 225.193509 125.083006 
" style="fill:none;stroke:#00bfbf;stroke-linecap:square;stroke-width:1.5;"/>
   </g>
   <g id="line2d_3">
    <path clip-path="url(#p0319b17985)" d="M 236.285702 169.100379 
L 236.285702 114.788583 
" style="fill:none;stroke:#008000;stroke-linecap:square;stroke-width:1.5;"/>
   </g>
   <g id="line2d_4">
    <path clip-path="url(#p0319b17985)" d="M 181.973906 114.788583 
L 236.285702 114.788583 
" style="fill:none;stroke:#008000;stroke-linecap:square;stroke-width:1.5;"/>
   </g>
   <g id="line2d_5">
    <path clip-path="url(#p0319b17985)" d="M 250.729043 153.798519 
L 250.729043 99.486722 
" style="fill:none;stroke:#0000ff;stroke-linecap:square;stroke-width:1.5;"/>
   </g>
   <g id="line2d_6">
    <path clip-path="url(#p0319b17985)" d="M 196.417246 99.486722 
L 250.729043 99.486722 
" style="fill:none;stroke:#0000ff;stroke-linecap:square;stroke-width:1.5;"/>
   </g>
   <g id="line2d_7">
    <path clip-path="url(#p0319b17985)" d="M 267.015049 136.671433 
L 267.015049 82.359636 
" style="fill:none;stroke:#000000;stroke-linecap:square;stroke-width:1.5;"/>
   </g>
   <g id="line2d_8">
    <path clip-path="url(#p0319b17985)" d="M 212.703252 82.359636 
L 267.015049 82.359636 
" style="fill:none;stroke:#000000;stroke-linecap:square;stroke-width:1.5;"/>
   </g>
   <g id="matplotlib.axis_1">
    <g id="xtick_1">
     <g id="line2d_9">
      <path clip-path="url(#p0319b17985)" d="M 113.00852 303.225234 
L 113.00852 27.425234 
" style="fill:none;stroke:#b0b0b0;stroke-linecap:square;stroke-width:0.8;"/>
     </g>
     <g id="line2d_10">
      <defs>
       <path d="M 0 0 
L 0 3.5 
" id="m742dc5eed6" style="stroke:#000000;stroke-width:0.8;"/>
      </defs>
      <g>
       <use style="stroke:#000000;stroke-width:0.8;" x="113.00852" xlink:href="#m742dc5eed6" y="303.225234"/>
      </g>
     </g>
     <g id="text_1">
      <!-- 3 -->
      <g transform="translate(107.600395 323.142578)scale(0.17 -0.17)">
       <defs>
        <path d="M 40.578125 39.3125 
Q 47.65625 37.796875 51.625 33 
Q 55.609375 28.21875 55.609375 21.1875 
Q 55.609375 10.40625 48.1875 4.484375 
Q 40.765625 -1.421875 27.09375 -1.421875 
Q 22.515625 -1.421875 17.65625 -0.515625 
Q 12.796875 0.390625 7.625 2.203125 
L 7.625 11.71875 
Q 11.71875 9.328125 16.59375 8.109375 
Q 21.484375 6.890625 26.8125 6.890625 
Q 36.078125 6.890625 40.9375 10.546875 
Q 45.796875 14.203125 45.796875 21.1875 
Q 45.796875 27.640625 41.28125 31.265625 
Q 36.765625 34.90625 28.71875 34.90625 
L 20.21875 34.90625 
L 20.21875 43.015625 
L 29.109375 43.015625 
Q 36.375 43.015625 40.234375 45.921875 
Q 44.09375 48.828125 44.09375 54.296875 
Q 44.09375 59.90625 40.109375 62.90625 
Q 36.140625 65.921875 28.71875 65.921875 
Q 24.65625 65.921875 20.015625 65.03125 
Q 15.375 64.15625 9.8125 62.3125 
L 9.8125 71.09375 
Q 15.4375 72.65625 20.34375 73.4375 
Q 25.25 74.21875 29.59375 74.21875 
Q 40.828125 74.21875 47.359375 69.109375 
Q 53.90625 64.015625 53.90625 55.328125 
Q 53.90625 49.265625 50.4375 45.09375 
Q 46.96875 40.921875 40.578125 39.3125 
z
" id="DejaVuSans-51"/>
       </defs>
       <use xlink:href="#DejaVuSans-51"/>
      </g>
     </g>
    </g>
    <g id="xtick_2">
     <g id="line2d_11">
      <path clip-path="url(#p0319b17985)" d="M 226.840792 303.225234 
L 226.840792 27.425234 
" style="fill:none;stroke:#b0b0b0;stroke-linecap:square;stroke-width:0.8;"/>
     </g>
     <g id="line2d_12">
      <g>
       <use style="stroke:#000000;stroke-width:0.8;" x="226.840792" xlink:href="#m742dc5eed6" y="303.225234"/>
      </g>
     </g>
     <g id="text_2">
      <!-- 5 -->
      <g transform="translate(221.432667 323.142578)scale(0.17 -0.17)">
       <defs>
        <path d="M 10.796875 72.90625 
L 49.515625 72.90625 
L 49.515625 64.59375 
L 19.828125 64.59375 
L 19.828125 46.734375 
Q 21.96875 47.46875 24.109375 47.828125 
Q 26.265625 48.1875 28.421875 48.1875 
Q 40.625 48.1875 47.75 41.5 
Q 54.890625 34.8125 54.890625 23.390625 
Q 54.890625 11.625 47.5625 5.09375 
Q 40.234375 -1.421875 26.90625 -1.421875 
Q 22.3125 -1.421875 17.546875 -0.640625 
Q 12.796875 0.140625 7.71875 1.703125 
L 7.71875 11.625 
Q 12.109375 9.234375 16.796875 8.0625 
Q 21.484375 6.890625 26.703125 6.890625 
Q 35.15625 6.890625 40.078125 11.328125 
Q 45.015625 15.765625 45.015625 23.390625 
Q 45.015625 31 40.078125 35.4375 
Q 35.15625 39.890625 26.703125 39.890625 
Q 22.75 39.890625 18.8125 39.015625 
Q 14.890625 38.140625 10.796875 36.28125 
z
" id="DejaVuSans-53"/>
       </defs>
       <use xlink:href="#DejaVuSans-53"/>
      </g>
     </g>
    </g>
    <g id="text_3">
     <!-- log10(ERT of al_cmaes_old_nodam) -->
     <g transform="translate(33.414453 343.595391)scale(0.17 -0.17)">
      <defs>
       <path d="M 9.421875 75.984375 
L 18.40625 75.984375 
L 18.40625 0 
L 9.421875 0 
z
" id="DejaVuSans-108"/>
       <path d="M 30.609375 48.390625 
Q 23.390625 48.390625 19.1875 42.75 
Q 14.984375 37.109375 14.984375 27.296875 
Q 14.984375 17.484375 19.15625 11.84375 
Q 23.34375 6.203125 30.609375 6.203125 
Q 37.796875 6.203125 41.984375 11.859375 
Q 46.1875 17.53125 46.1875 27.296875 
Q 46.1875 37.015625 41.984375 42.703125 
Q 37.796875 48.390625 30.609375 48.390625 
z
M 30.609375 56 
Q 42.328125 56 49.015625 48.375 
Q 55.71875 40.765625 55.71875 27.296875 
Q 55.71875 13.875 49.015625 6.21875 
Q 42.328125 -1.421875 30.609375 -1.421875 
Q 18.84375 -1.421875 12.171875 6.21875 
Q 5.515625 13.875 5.515625 27.296875 
Q 5.515625 40.765625 12.171875 48.375 
Q 18.84375 56 30.609375 56 
z
" id="DejaVuSans-111"/>
       <path d="M 45.40625 27.984375 
Q 45.40625 37.75 41.375 43.109375 
Q 37.359375 48.484375 30.078125 48.484375 
Q 22.859375 48.484375 18.828125 43.109375 
Q 14.796875 37.75 14.796875 27.984375 
Q 14.796875 18.265625 18.828125 12.890625 
Q 22.859375 7.515625 30.078125 7.515625 
Q 37.359375 7.515625 41.375 12.890625 
Q 45.40625 18.265625 45.40625 27.984375 
z
M 54.390625 6.78125 
Q 54.390625 -7.171875 48.1875 -13.984375 
Q 42 -20.796875 29.203125 -20.796875 
Q 24.46875 -20.796875 20.265625 -20.09375 
Q 16.0625 -19.390625 12.109375 -17.921875 
L 12.109375 -9.1875 
Q 16.0625 -11.328125 19.921875 -12.34375 
Q 23.78125 -13.375 27.78125 -13.375 
Q 36.625 -13.375 41.015625 -8.765625 
Q 45.40625 -4.15625 45.40625 5.171875 
L 45.40625 9.625 
Q 42.625 4.78125 38.28125 2.390625 
Q 33.9375 0 27.875 0 
Q 17.828125 0 11.671875 7.65625 
Q 5.515625 15.328125 5.515625 27.984375 
Q 5.515625 40.671875 11.671875 48.328125 
Q 17.828125 56 27.875 56 
Q 33.9375 56 38.28125 53.609375 
Q 42.625 51.21875 45.40625 46.390625 
L 45.40625 54.6875 
L 54.390625 54.6875 
z
" id="DejaVuSans-103"/>
       <path d="M 12.40625 8.296875 
L 28.515625 8.296875 
L 28.515625 63.921875 
L 10.984375 60.40625 
L 10.984375 69.390625 
L 28.421875 72.90625 
L 38.28125 72.90625 
L 38.28125 8.296875 
L 54.390625 8.296875 
L 54.390625 0 
L 12.40625 0 
z
" id="DejaVuSans-49"/>
       <path d="M 31.78125 66.40625 
Q 24.171875 66.40625 20.328125 58.90625 
Q 16.5 51.421875 16.5 36.375 
Q 16.5 21.390625 20.328125 13.890625 
Q 24.171875 6.390625 31.78125 6.390625 
Q 39.453125 6.390625 43.28125 13.890625 
Q 47.125 21.390625 47.125 36.375 
Q 47.125 51.421875 43.28125 58.90625 
Q 39.453125 66.40625 31.78125 66.40625 
z
M 31.78125 74.21875 
Q 44.046875 74.21875 50.515625 64.515625 
Q 56.984375 54.828125 56.984375 36.375 
Q 56.984375 17.96875 50.515625 8.265625 
Q 44.046875 -1.421875 31.78125 -1.421875 
Q 19.53125 -1.421875 13.0625 8.265625 
Q 6.59375 17.96875 6.59375 36.375 
Q 6.59375 54.828125 13.0625 64.515625 
Q 19.53125 74.21875 31.78125 74.21875 
z
" id="DejaVuSans-48"/>
       <path d="M 31 75.875 
Q 24.46875 64.65625 21.28125 53.65625 
Q 18.109375 42.671875 18.109375 31.390625 
Q 18.109375 20.125 21.3125 9.0625 
Q 24.515625 -2 31 -13.1875 
L 23.1875 -13.1875 
Q 15.875 -1.703125 12.234375 9.375 
Q 8.59375 20.453125 8.59375 31.390625 
Q 8.59375 42.28125 12.203125 53.3125 
Q 15.828125 64.359375 23.1875 75.875 
z
" id="DejaVuSans-40"/>
       <path d="M 9.8125 72.90625 
L 55.90625 72.90625 
L 55.90625 64.59375 
L 19.671875 64.59375 
L 19.671875 43.015625 
L 54.390625 43.015625 
L 54.390625 34.71875 
L 19.671875 34.71875 
L 19.671875 8.296875 
L 56.78125 8.296875 
L 56.78125 0 
L 9.8125 0 
z
" id="DejaVuSans-69"/>
       <path d="M 44.390625 34.1875 
Q 47.5625 33.109375 50.5625 29.59375 
Q 53.5625 26.078125 56.59375 19.921875 
L 66.609375 0 
L 56 0 
L 46.6875 18.703125 
Q 43.0625 26.03125 39.671875 28.421875 
Q 36.28125 30.8125 30.421875 30.8125 
L 19.671875 30.8125 
L 19.671875 0 
L 9.8125 0 
L 9.8125 72.90625 
L 32.078125 72.90625 
Q 44.578125 72.90625 50.734375 67.671875 
Q 56.890625 62.453125 56.890625 51.90625 
Q 56.890625 45.015625 53.6875 40.46875 
Q 50.484375 35.9375 44.390625 34.1875 
z
M 19.671875 64.796875 
L 19.671875 38.921875 
L 32.078125 38.921875 
Q 39.203125 38.921875 42.84375 42.21875 
Q 46.484375 45.515625 46.484375 51.90625 
Q 46.484375 58.296875 42.84375 61.546875 
Q 39.203125 64.796875 32.078125 64.796875 
z
" id="DejaVuSans-82"/>
       <path d="M -0.296875 72.90625 
L 61.375 72.90625 
L 61.375 64.59375 
L 35.5 64.59375 
L 35.5 0 
L 25.59375 0 
L 25.59375 64.59375 
L -0.296875 64.59375 
z
" id="DejaVuSans-84"/>
       <path id="DejaVuSans-32"/>
       <path d="M 37.109375 75.984375 
L 37.109375 68.5 
L 28.515625 68.5 
Q 23.6875 68.5 21.796875 66.546875 
Q 19.921875 64.59375 19.921875 59.515625 
L 19.921875 54.6875 
L 34.71875 54.6875 
L 34.71875 47.703125 
L 19.921875 47.703125 
L 19.921875 0 
L 10.890625 0 
L 10.890625 47.703125 
L 2.296875 47.703125 
L 2.296875 54.6875 
L 10.890625 54.6875 
L 10.890625 58.5 
Q 10.890625 67.625 15.140625 71.796875 
Q 19.390625 75.984375 28.609375 75.984375 
z
" id="DejaVuSans-102"/>
       <path d="M 34.28125 27.484375 
Q 23.390625 27.484375 19.1875 25 
Q 14.984375 22.515625 14.984375 16.5 
Q 14.984375 11.71875 18.140625 8.90625 
Q 21.296875 6.109375 26.703125 6.109375 
Q 34.1875 6.109375 38.703125 11.40625 
Q 43.21875 16.703125 43.21875 25.484375 
L 43.21875 27.484375 
z
M 52.203125 31.203125 
L 52.203125 0 
L 43.21875 0 
L 43.21875 8.296875 
Q 40.140625 3.328125 35.546875 0.953125 
Q 30.953125 -1.421875 24.3125 -1.421875 
Q 15.921875 -1.421875 10.953125 3.296875 
Q 6 8.015625 6 15.921875 
Q 6 25.140625 12.171875 29.828125 
Q 18.359375 34.515625 30.609375 34.515625 
L 43.21875 34.515625 
L 43.21875 35.40625 
Q 43.21875 41.609375 39.140625 45 
Q 35.0625 48.390625 27.6875 48.390625 
Q 23 48.390625 18.546875 47.265625 
Q 14.109375 46.140625 10.015625 43.890625 
L 10.015625 52.203125 
Q 14.9375 54.109375 19.578125 55.046875 
Q 24.21875 56 28.609375 56 
Q 40.484375 56 46.34375 49.84375 
Q 52.203125 43.703125 52.203125 31.203125 
z
" id="DejaVuSans-97"/>
       <path d="M 50.984375 -16.609375 
L 50.984375 -23.578125 
L -0.984375 -23.578125 
L -0.984375 -16.609375 
z
" id="DejaVuSans-95"/>
       <path d="M 48.78125 52.59375 
L 48.78125 44.1875 
Q 44.96875 46.296875 41.140625 47.34375 
Q 37.3125 48.390625 33.40625 48.390625 
Q 24.65625 48.390625 19.8125 42.84375 
Q 14.984375 37.3125 14.984375 27.296875 
Q 14.984375 17.28125 19.8125 11.734375 
Q 24.65625 6.203125 33.40625 6.203125 
Q 37.3125 6.203125 41.140625 7.25 
Q 44.96875 8.296875 48.78125 10.40625 
L 48.78125 2.09375 
Q 45.015625 0.34375 40.984375 -0.53125 
Q 36.96875 -1.421875 32.421875 -1.421875 
Q 20.0625 -1.421875 12.78125 6.34375 
Q 5.515625 14.109375 5.515625 27.296875 
Q 5.515625 40.671875 12.859375 48.328125 
Q 20.21875 56 33.015625 56 
Q 37.15625 56 41.109375 55.140625 
Q 45.0625 54.296875 48.78125 52.59375 
z
" id="DejaVuSans-99"/>
       <path d="M 52 44.1875 
Q 55.375 50.25 60.0625 53.125 
Q 64.75 56 71.09375 56 
Q 79.640625 56 84.28125 50.015625 
Q 88.921875 44.046875 88.921875 33.015625 
L 88.921875 0 
L 79.890625 0 
L 79.890625 32.71875 
Q 79.890625 40.578125 77.09375 44.375 
Q 74.3125 48.1875 68.609375 48.1875 
Q 61.625 48.1875 57.5625 43.546875 
Q 53.515625 38.921875 53.515625 30.90625 
L 53.515625 0 
L 44.484375 0 
L 44.484375 32.71875 
Q 44.484375 40.625 41.703125 44.40625 
Q 38.921875 48.1875 33.109375 48.1875 
Q 26.21875 48.1875 22.15625 43.53125 
Q 18.109375 38.875 18.109375 30.90625 
L 18.109375 0 
L 9.078125 0 
L 9.078125 54.6875 
L 18.109375 54.6875 
L 18.109375 46.1875 
Q 21.1875 51.21875 25.484375 53.609375 
Q 29.78125 56 35.6875 56 
Q 41.65625 56 45.828125 52.96875 
Q 50 49.953125 52 44.1875 
z
" id="DejaVuSans-109"/>
       <path d="M 56.203125 29.59375 
L 56.203125 25.203125 
L 14.890625 25.203125 
Q 15.484375 15.921875 20.484375 11.0625 
Q 25.484375 6.203125 34.421875 6.203125 
Q 39.59375 6.203125 44.453125 7.46875 
Q 49.3125 8.734375 54.109375 11.28125 
L 54.109375 2.78125 
Q 49.265625 0.734375 44.1875 -0.34375 
Q 39.109375 -1.421875 33.890625 -1.421875 
Q 20.796875 -1.421875 13.15625 6.1875 
Q 5.515625 13.8125 5.515625 26.8125 
Q 5.515625 40.234375 12.765625 48.109375 
Q 20.015625 56 32.328125 56 
Q 43.359375 56 49.78125 48.890625 
Q 56.203125 41.796875 56.203125 29.59375 
z
M 47.21875 32.234375 
Q 47.125 39.59375 43.09375 43.984375 
Q 39.0625 48.390625 32.421875 48.390625 
Q 24.90625 48.390625 20.390625 44.140625 
Q 15.875 39.890625 15.1875 32.171875 
z
" id="DejaVuSans-101"/>
       <path d="M 44.28125 53.078125 
L 44.28125 44.578125 
Q 40.484375 46.53125 36.375 47.5 
Q 32.28125 48.484375 27.875 48.484375 
Q 21.1875 48.484375 17.84375 46.4375 
Q 14.5 44.390625 14.5 40.28125 
Q 14.5 37.15625 16.890625 35.375 
Q 19.28125 33.59375 26.515625 31.984375 
L 29.59375 31.296875 
Q 39.15625 29.25 43.1875 25.515625 
Q 47.21875 21.78125 47.21875 15.09375 
Q 47.21875 7.46875 41.1875 3.015625 
Q 35.15625 -1.421875 24.609375 -1.421875 
Q 20.21875 -1.421875 15.453125 -0.5625 
Q 10.6875 0.296875 5.421875 2 
L 5.421875 11.28125 
Q 10.40625 8.6875 15.234375 7.390625 
Q 20.0625 6.109375 24.8125 6.109375 
Q 31.15625 6.109375 34.5625 8.28125 
Q 37.984375 10.453125 37.984375 14.40625 
Q 37.984375 18.0625 35.515625 20.015625 
Q 33.0625 21.96875 24.703125 23.78125 
L 21.578125 24.515625 
Q 13.234375 26.265625 9.515625 29.90625 
Q 5.8125 33.546875 5.8125 39.890625 
Q 5.8125 47.609375 11.28125 51.796875 
Q 16.75 56 26.8125 56 
Q 31.78125 56 36.171875 55.265625 
Q 40.578125 54.546875 44.28125 53.078125 
z
" id="DejaVuSans-115"/>
       <path d="M 45.40625 46.390625 
L 45.40625 75.984375 
L 54.390625 75.984375 
L 54.390625 0 
L 45.40625 0 
L 45.40625 8.203125 
Q 42.578125 3.328125 38.25 0.953125 
Q 33.9375 -1.421875 27.875 -1.421875 
Q 17.96875 -1.421875 11.734375 6.484375 
Q 5.515625 14.40625 5.515625 27.296875 
Q 5.515625 40.1875 11.734375 48.09375 
Q 17.96875 56 27.875 56 
Q 33.9375 56 38.25 53.625 
Q 42.578125 51.265625 45.40625 46.390625 
z
M 14.796875 27.296875 
Q 14.796875 17.390625 18.875 11.75 
Q 22.953125 6.109375 30.078125 6.109375 
Q 37.203125 6.109375 41.296875 11.75 
Q 45.40625 17.390625 45.40625 27.296875 
Q 45.40625 37.203125 41.296875 42.84375 
Q 37.203125 48.484375 30.078125 48.484375 
Q 22.953125 48.484375 18.875 42.84375 
Q 14.796875 37.203125 14.796875 27.296875 
z
" id="DejaVuSans-100"/>
       <path d="M 54.890625 33.015625 
L 54.890625 0 
L 45.90625 0 
L 45.90625 32.71875 
Q 45.90625 40.484375 42.875 44.328125 
Q 39.84375 48.1875 33.796875 48.1875 
Q 26.515625 48.1875 22.3125 43.546875 
Q 18.109375 38.921875 18.109375 30.90625 
L 18.109375 0 
L 9.078125 0 
L 9.078125 54.6875 
L 18.109375 54.6875 
L 18.109375 46.1875 
Q 21.34375 51.125 25.703125 53.5625 
Q 30.078125 56 35.796875 56 
Q 45.21875 56 50.046875 50.171875 
Q 54.890625 44.34375 54.890625 33.015625 
z
" id="DejaVuSans-110"/>
       <path d="M 8.015625 75.875 
L 15.828125 75.875 
Q 23.140625 64.359375 26.78125 53.3125 
Q 30.421875 42.28125 30.421875 31.390625 
Q 30.421875 20.453125 26.78125 9.375 
Q 23.140625 -1.703125 15.828125 -13.1875 
L 8.015625 -13.1875 
Q 14.5 -2 17.703125 9.0625 
Q 20.90625 20.125 20.90625 31.390625 
Q 20.90625 42.671875 17.703125 53.65625 
Q 14.5 64.65625 8.015625 75.875 
z
" id="DejaVuSans-41"/>
      </defs>
      <use xlink:href="#DejaVuSans-108"/>
      <use x="27.783203" xlink:href="#DejaVuSans-111"/>
      <use x="88.964844" xlink:href="#DejaVuSans-103"/>
      <use x="152.441406" xlink:href="#DejaVuSans-49"/>
      <use x="216.064453" xlink:href="#DejaVuSans-48"/>
      <use x="279.6875" xlink:href="#DejaVuSans-40"/>
      <use x="318.701172" xlink:href="#DejaVuSans-69"/>
      <use x="381.884766" xlink:href="#DejaVuSans-82"/>
      <use x="444.117188" xlink:href="#DejaVuSans-84"/>
      <use x="505.201172" xlink:href="#DejaVuSans-32"/>
      <use x="536.988281" xlink:href="#DejaVuSans-111"/>
      <use x="598.169922" xlink:href="#DejaVuSans-102"/>
      <use x="633.375" xlink:href="#DejaVuSans-32"/>
      <use x="665.162109" xlink:href="#DejaVuSans-97"/>
      <use x="726.441406" xlink:href="#DejaVuSans-108"/>
      <use x="754.224609" xlink:href="#DejaVuSans-95"/>
      <use x="804.224609" xlink:href="#DejaVuSans-99"/>
      <use x="859.205078" xlink:href="#DejaVuSans-109"/>
      <use x="956.617188" xlink:href="#DejaVuSans-97"/>
      <use x="1017.896484" xlink:href="#DejaVuSans-101"/>
      <use x="1079.419922" xlink:href="#DejaVuSans-115"/>
      <use x="1131.519531" xlink:href="#DejaVuSans-95"/>
      <use x="1181.519531" xlink:href="#DejaVuSans-111"/>
      <use x="1242.701172" xlink:href="#DejaVuSans-108"/>
      <use x="1270.484375" xlink:href="#DejaVuSans-100"/>
      <use x="1333.960938" xlink:href="#DejaVuSans-95"/>
      <use x="1383.960938" xlink:href="#DejaVuSans-110"/>
      <use x="1447.339844" xlink:href="#DejaVuSans-111"/>
      <use x="1508.521484" xlink:href="#DejaVuSans-100"/>
      <use x="1571.998047" xlink:href="#DejaVuSans-97"/>
      <use x="1633.277344" xlink:href="#DejaVuSans-109"/>
      <use x="1730.689453" xlink:href="#DejaVuSans-41"/>
     </g>
    </g>
   </g>
   <g id="matplotlib.axis_2">
    <g id="ytick_1">
     <g id="line2d_13">
      <path clip-path="url(#p0319b17985)" d="M 45.941875 236.15859 
L 321.741875 236.15859 
" style="fill:none;stroke:#b0b0b0;stroke-linecap:square;stroke-width:0.8;"/>
     </g>
     <g id="line2d_14">
      <defs>
       <path d="M 0 0 
L -3.5 0 
" id="m90f0a05f0d" style="stroke:#000000;stroke-width:0.8;"/>
      </defs>
      <g>
       <use style="stroke:#000000;stroke-width:0.8;" x="45.941875" xlink:href="#m90f0a05f0d" y="236.15859"/>
      </g>
     </g>
     <g id="text_4">
      <!-- 3 -->
      <g transform="translate(28.125625 242.617262)scale(0.17 -0.17)">
       <use xlink:href="#DejaVuSans-51"/>
      </g>
     </g>
    </g>
    <g id="ytick_2">
     <g id="line2d_15">
      <path clip-path="url(#p0319b17985)" d="M 45.941875 122.326317 
L 321.741875 122.326317 
" style="fill:none;stroke:#b0b0b0;stroke-linecap:square;stroke-width:0.8;"/>
     </g>
     <g id="line2d_16">
      <g>
       <use style="stroke:#000000;stroke-width:0.8;" x="45.941875" xlink:href="#m90f0a05f0d" y="122.326317"/>
      </g>
     </g>
     <g id="text_5">
      <!-- 5 -->
      <g transform="translate(28.125625 128.784989)scale(0.17 -0.17)">
       <use xlink:href="#DejaVuSans-53"/>
      </g>
     </g>
    </g>
    <g id="ytick_3">
     <g id="line2d_17">
      <defs>
       <path d="M 0 0 
L -2 0 
" id="m0e3a1be2fe" style="stroke:#000000;stroke-width:0.6;"/>
      </defs>
      <g>
       <use style="stroke:#000000;stroke-width:0.6;" x="45.941875" xlink:href="#m0e3a1be2fe" y="301.891147"/>
      </g>
     </g>
    </g>
    <g id="ytick_4">
     <g id="line2d_18">
      <g>
       <use style="stroke:#000000;stroke-width:0.6;" x="45.941875" xlink:href="#m0e3a1be2fe" y="298.590469"/>
      </g>
     </g>
    </g>
    <g id="ytick_5">
     <g id="line2d_19">
      <g>
       <use style="stroke:#000000;stroke-width:0.6;" x="45.941875" xlink:href="#m0e3a1be2fe" y="295.679066"/>
      </g>
     </g>
    </g>
    <g id="ytick_6">
     <g id="line2d_20">
      <g>
       <use style="stroke:#000000;stroke-width:0.6;" x="45.941875" xlink:href="#m0e3a1be2fe" y="275.941262"/>
      </g>
     </g>
    </g>
    <g id="ytick_7">
     <g id="line2d_21">
      <g>
       <use style="stroke:#000000;stroke-width:0.6;" x="45.941875" xlink:href="#m0e3a1be2fe" y="265.918828"/>
      </g>
     </g>
    </g>
    <g id="ytick_8">
     <g id="line2d_22">
      <g>
       <use style="stroke:#000000;stroke-width:0.6;" x="45.941875" xlink:href="#m0e3a1be2fe" y="258.807797"/>
      </g>
     </g>
    </g>
    <g id="ytick_9">
     <g id="line2d_23">
      <g>
       <use style="stroke:#000000;stroke-width:0.6;" x="45.941875" xlink:href="#m0e3a1be2fe" y="253.292054"/>
      </g>
     </g>
    </g>
    <g id="ytick_10">
     <g id="line2d_24">
      <g>
       <use style="stroke:#000000;stroke-width:0.6;" x="45.941875" xlink:href="#m0e3a1be2fe" y="248.785363"/>
      </g>
     </g>
    </g>
    <g id="ytick_11">
     <g id="line2d_25">
      <g>
       <use style="stroke:#000000;stroke-width:0.6;" x="45.941875" xlink:href="#m0e3a1be2fe" y="244.975011"/>
      </g>
     </g>
    </g>
    <g id="ytick_12">
     <g id="line2d_26">
      <g>
       <use style="stroke:#000000;stroke-width:0.6;" x="45.941875" xlink:href="#m0e3a1be2fe" y="241.674333"/>
      </g>
     </g>
    </g>
    <g id="ytick_13">
     <g id="line2d_27">
      <g>
       <use style="stroke:#000000;stroke-width:0.6;" x="45.941875" xlink:href="#m0e3a1be2fe" y="238.762929"/>
      </g>
     </g>
    </g>
    <g id="ytick_14">
     <g id="line2d_28">
      <g>
       <use style="stroke:#000000;stroke-width:0.6;" x="45.941875" xlink:href="#m0e3a1be2fe" y="219.025125"/>
      </g>
     </g>
    </g>
    <g id="ytick_15">
     <g id="line2d_29">
      <g>
       <use style="stroke:#000000;stroke-width:0.6;" x="45.941875" xlink:href="#m0e3a1be2fe" y="209.002691"/>
      </g>
     </g>
    </g>
    <g id="ytick_16">
     <g id="line2d_30">
      <g>
       <use style="stroke:#000000;stroke-width:0.6;" x="45.941875" xlink:href="#m0e3a1be2fe" y="201.891661"/>
      </g>
     </g>
    </g>
    <g id="ytick_17">
     <g id="line2d_31">
      <g>
       <use style="stroke:#000000;stroke-width:0.6;" x="45.941875" xlink:href="#m0e3a1be2fe" y="196.375918"/>
      </g>
     </g>
    </g>
    <g id="ytick_18">
     <g id="line2d_32">
      <g>
       <use style="stroke:#000000;stroke-width:0.6;" x="45.941875" xlink:href="#m0e3a1be2fe" y="191.869227"/>
      </g>
     </g>
    </g>
    <g id="ytick_19">
     <g id="line2d_33">
      <g>
       <use style="stroke:#000000;stroke-width:0.6;" x="45.941875" xlink:href="#m0e3a1be2fe" y="188.058874"/>
      </g>
     </g>
    </g>
    <g id="ytick_20">
     <g id="line2d_34">
      <g>
       <use style="stroke:#000000;stroke-width:0.6;" x="45.941875" xlink:href="#m0e3a1be2fe" y="184.758197"/>
      </g>
     </g>
    </g>
    <g id="ytick_21">
     <g id="line2d_35">
      <g>
       <use style="stroke:#000000;stroke-width:0.6;" x="45.941875" xlink:href="#m0e3a1be2fe" y="181.846793"/>
      </g>
     </g>
    </g>
    <g id="ytick_22">
     <g id="line2d_36">
      <g>
       <use style="stroke:#000000;stroke-width:0.6;" x="45.941875" xlink:href="#m0e3a1be2fe" y="162.108989"/>
      </g>
     </g>
    </g>
    <g id="ytick_23">
     <g id="line2d_37">
      <g>
       <use style="stroke:#000000;stroke-width:0.6;" x="45.941875" xlink:href="#m0e3a1be2fe" y="152.086555"/>
      </g>
     </g>
    </g>
    <g id="ytick_24">
     <g id="line2d_38">
      <g>
       <use style="stroke:#000000;stroke-width:0.6;" x="45.941875" xlink:href="#m0e3a1be2fe" y="144.975525"/>
      </g>
     </g>
    </g>
    <g id="ytick_25">
     <g id="line2d_39">
      <g>
       <use style="stroke:#000000;stroke-width:0.6;" x="45.941875" xlink:href="#m0e3a1be2fe" y="139.459781"/>
      </g>
     </g>
    </g>
    <g id="ytick_26">
     <g id="line2d_40">
      <g>
       <use style="stroke:#000000;stroke-width:0.6;" x="45.941875" xlink:href="#m0e3a1be2fe" y="134.953091"/>
      </g>
     </g>
    </g>
    <g id="ytick_27">
     <g id="line2d_41">
      <g>
       <use style="stroke:#000000;stroke-width:0.6;" x="45.941875" xlink:href="#m0e3a1be2fe" y="131.142738"/>
      </g>
     </g>
    </g>
    <g id="ytick_28">
     <g id="line2d_42">
      <g>
       <use style="stroke:#000000;stroke-width:0.6;" x="45.941875" xlink:href="#m0e3a1be2fe" y="127.842061"/>
      </g>
     </g>
    </g>
    <g id="ytick_29">
     <g id="line2d_43">
      <g>
       <use style="stroke:#000000;stroke-width:0.6;" x="45.941875" xlink:href="#m0e3a1be2fe" y="124.930657"/>
      </g>
     </g>
    </g>
    <g id="ytick_30">
     <g id="line2d_44">
      <g>
       <use style="stroke:#000000;stroke-width:0.6;" x="45.941875" xlink:href="#m0e3a1be2fe" y="105.192853"/>
      </g>
     </g>
    </g>
    <g id="ytick_31">
     <g id="line2d_45">
      <g>
       <use style="stroke:#000000;stroke-width:0.6;" x="45.941875" xlink:href="#m0e3a1be2fe" y="95.170419"/>
      </g>
     </g>
    </g>
    <g id="ytick_32">
     <g id="line2d_46">
      <g>
       <use style="stroke:#000000;stroke-width:0.6;" x="45.941875" xlink:href="#m0e3a1be2fe" y="88.059389"/>
      </g>
     </g>
    </g>
    <g id="ytick_33">
     <g id="line2d_47">
      <g>
       <use style="stroke:#000000;stroke-width:0.6;" x="45.941875" xlink:href="#m0e3a1be2fe" y="82.543645"/>
      </g>
     </g>
    </g>
    <g id="ytick_34">
     <g id="line2d_48">
      <g>
       <use style="stroke:#000000;stroke-width:0.6;" x="45.941875" xlink:href="#m0e3a1be2fe" y="78.036955"/>
      </g>
     </g>
    </g>
    <g id="ytick_35">
     <g id="line2d_49">
      <g>
       <use style="stroke:#000000;stroke-width:0.6;" x="45.941875" xlink:href="#m0e3a1be2fe" y="74.226602"/>
      </g>
     </g>
    </g>
    <g id="ytick_36">
     <g id="line2d_50">
      <g>
       <use style="stroke:#000000;stroke-width:0.6;" x="45.941875" xlink:href="#m0e3a1be2fe" y="70.925924"/>
      </g>
     </g>
    </g>
    <g id="ytick_37">
     <g id="line2d_51">
      <g>
       <use style="stroke:#000000;stroke-width:0.6;" x="45.941875" xlink:href="#m0e3a1be2fe" y="68.01452"/>
      </g>
     </g>
    </g>
    <g id="ytick_38">
     <g id="line2d_52">
      <g>
       <use style="stroke:#000000;stroke-width:0.6;" x="45.941875" xlink:href="#m0e3a1be2fe" y="48.276717"/>
      </g>
     </g>
    </g>
    <g id="ytick_39">
     <g id="line2d_53">
      <g>
       <use style="stroke:#000000;stroke-width:0.6;" x="45.941875" xlink:href="#m0e3a1be2fe" y="38.254283"/>
      </g>
     </g>
    </g>
    <g id="ytick_40">
     <g id="line2d_54">
      <g>
       <use style="stroke:#000000;stroke-width:0.6;" x="45.941875" xlink:href="#m0e3a1be2fe" y="31.143252"/>
      </g>
     </g>
    </g>
    <g id="text_6">
     <!-- log10(ERT of al_cmaes_new_dgamm) -->
     <g transform="translate(20.117344 323.450469)rotate(-90)scale(0.17 -0.17)">
      <defs>
       <path d="M 4.203125 54.6875 
L 13.1875 54.6875 
L 24.421875 12.015625 
L 35.59375 54.6875 
L 46.1875 54.6875 
L 57.421875 12.015625 
L 68.609375 54.6875 
L 77.59375 54.6875 
L 63.28125 0 
L 52.6875 0 
L 40.921875 44.828125 
L 29.109375 0 
L 18.5 0 
z
" id="DejaVuSans-119"/>
      </defs>
      <use xlink:href="#DejaVuSans-108"/>
      <use x="27.783203" xlink:href="#DejaVuSans-111"/>
      <use x="88.964844" xlink:href="#DejaVuSans-103"/>
      <use x="152.441406" xlink:href="#DejaVuSans-49"/>
      <use x="216.064453" xlink:href="#DejaVuSans-48"/>
      <use x="279.6875" xlink:href="#DejaVuSans-40"/>
      <use x="318.701172" xlink:href="#DejaVuSans-69"/>
      <use x="381.884766" xlink:href="#DejaVuSans-82"/>
      <use x="444.117188" xlink:href="#DejaVuSans-84"/>
      <use x="505.201172" xlink:href="#DejaVuSans-32"/>
      <use x="536.988281" xlink:href="#DejaVuSans-111"/>
      <use x="598.169922" xlink:href="#DejaVuSans-102"/>
      <use x="633.375" xlink:href="#DejaVuSans-32"/>
      <use x="665.162109" xlink:href="#DejaVuSans-97"/>
      <use x="726.441406" xlink:href="#DejaVuSans-108"/>
      <use x="754.224609" xlink:href="#DejaVuSans-95"/>
      <use x="804.224609" xlink:href="#DejaVuSans-99"/>
      <use x="859.205078" xlink:href="#DejaVuSans-109"/>
      <use x="956.617188" xlink:href="#DejaVuSans-97"/>
      <use x="1017.896484" xlink:href="#DejaVuSans-101"/>
      <use x="1079.419922" xlink:href="#DejaVuSans-115"/>
      <use x="1131.519531" xlink:href="#DejaVuSans-95"/>
      <use x="1181.519531" xlink:href="#DejaVuSans-110"/>
      <use x="1244.898438" xlink:href="#DejaVuSans-101"/>
      <use x="1306.421875" xlink:href="#DejaVuSans-119"/>
      <use x="1388.208984" xlink:href="#DejaVuSans-95"/>
      <use x="1438.208984" xlink:href="#DejaVuSans-100"/>
      <use x="1501.685547" xlink:href="#DejaVuSans-103"/>
      <use x="1565.162109" xlink:href="#DejaVuSans-97"/>
      <use x="1626.441406" xlink:href="#DejaVuSans-109"/>
      <use x="1723.853516" xlink:href="#DejaVuSans-109"/>
      <use x="1821.265625" xlink:href="#DejaVuSans-41"/>
     </g>
    </g>
   </g>
   <g id="line2d_55">
    <defs>
     <path d="M -7 0 
L 7 0 
M 0 7 
L 0 -7 
" id="m7751e1dd72" style="stroke:#00bfbf;stroke-width:3;"/>
    </defs>
    <g>
     <use style="fill-opacity:0;stroke:#00bfbf;stroke-width:3;" x="186.63463" xlink:href="#m7751e1dd72" y="158.730941"/>
     <use style="fill-opacity:0;stroke:#00bfbf;stroke-width:3;" x="58.478239" xlink:href="#m7751e1dd72" y="289.807028"/>
     <use style="fill-opacity:0;stroke:#00bfbf;stroke-width:3;" x="65.671427" xlink:href="#m7751e1dd72" y="283.03033"/>
     <use style="fill-opacity:0;stroke:#00bfbf;stroke-width:3;" x="70.858398" xlink:href="#m7751e1dd72" y="277.717378"/>
     <use style="fill-opacity:0;stroke:#00bfbf;stroke-width:3;" x="79.042958" xlink:href="#m7751e1dd72" y="275.484106"/>
     <use style="fill-opacity:0;stroke:#00bfbf;stroke-width:3;" x="82.078496" xlink:href="#m7751e1dd72" y="271.863985"/>
     <use style="fill-opacity:0;stroke:#00bfbf;stroke-width:3;" x="85.534184" xlink:href="#m7751e1dd72" y="266.028932"/>
     <use style="fill-opacity:0;stroke:#00bfbf;stroke-width:3;" x="87.62647" xlink:href="#m7751e1dd72" y="259.307175"/>
     <use style="fill-opacity:0;stroke:#00bfbf;stroke-width:3;" x="92.953762" xlink:href="#m7751e1dd72" y="256.897818"/>
     <use style="fill-opacity:0;stroke:#00bfbf;stroke-width:3;" x="95.967165" xlink:href="#m7751e1dd72" y="253.583798"/>
     <use style="fill-opacity:0;stroke:#00bfbf;stroke-width:3;" x="97.777406" xlink:href="#m7751e1dd72" y="249.228754"/>
     <use style="fill-opacity:0;stroke:#00bfbf;stroke-width:3;" x="100.480422" xlink:href="#m7751e1dd72" y="245.244849"/>
     <use style="fill-opacity:0;stroke:#00bfbf;stroke-width:3;" x="104.718487" xlink:href="#m7751e1dd72" y="241.108224"/>
     <use style="fill-opacity:0;stroke:#00bfbf;stroke-width:3;" x="107.706079" xlink:href="#m7751e1dd72" y="216.711196"/>
     <use style="fill-opacity:0;stroke:#00bfbf;stroke-width:3;" x="144.829894" xlink:href="#m7751e1dd72" y="200.971755"/>
     <use style="fill-opacity:0;stroke:#00bfbf;stroke-width:3;" x="173.905891" xlink:href="#m7751e1dd72" y="186.774515"/>
     <use style="fill-opacity:0;stroke:#00bfbf;stroke-width:3;" x="181.455297" xlink:href="#m7751e1dd72" y="177.061084"/>
     <use style="fill-opacity:0;stroke:#00bfbf;stroke-width:3;" x="190.205398" xlink:href="#m7751e1dd72" y="161.026484"/>
     <use style="fill-opacity:0;stroke:#00bfbf;stroke-width:3;" x="205.560044" xlink:href="#m7751e1dd72" y="153.825957"/>
     <use style="fill-opacity:0;stroke:#00bfbf;stroke-width:3;" x="213.226199" xlink:href="#m7751e1dd72" y="150.086635"/>
     <use style="fill-opacity:0;stroke:#00bfbf;stroke-width:3;" x="218.028961" xlink:href="#m7751e1dd72" y="139.088837"/>
     <use style="fill-opacity:0;stroke:#00bfbf;stroke-width:3;" x="220.75073" xlink:href="#m7751e1dd72" y="130.719357"/>
    </g>
   </g>
   <g id="line2d_56">
    <defs>
     <path d="M -0 7 
L 7 -7 
L -7 -7 
z
" id="m3c38c6628f" style="stroke:#008000;stroke-linejoin:miter;stroke-width:3;"/>
    </defs>
    <g>
     <use style="fill-opacity:0;stroke:#008000;stroke-linejoin:miter;stroke-width:3;" x="202.530162" xlink:href="#m3c38c6628f" y="144.29148"/>
     <use style="fill-opacity:0;stroke:#008000;stroke-linejoin:miter;stroke-width:3;" x="60.980622" xlink:href="#m3c38c6628f" y="291.417721"/>
     <use style="fill-opacity:0;stroke:#008000;stroke-linejoin:miter;stroke-width:3;" x="65.771886" xlink:href="#m3c38c6628f" y="285.926646"/>
     <use style="fill-opacity:0;stroke:#008000;stroke-linejoin:miter;stroke-width:3;" x="68.46074" xlink:href="#m3c38c6628f" y="280.846644"/>
     <use style="fill-opacity:0;stroke:#008000;stroke-linejoin:miter;stroke-width:3;" x="75.938709" xlink:href="#m3c38c6628f" y="275.082955"/>
     <use style="fill-opacity:0;stroke:#008000;stroke-linejoin:miter;stroke-width:3;" x="83.215302" xlink:href="#m3c38c6628f" y="268.608761"/>
     <use style="fill-opacity:0;stroke:#008000;stroke-linejoin:miter;stroke-width:3;" x="90.227128" xlink:href="#m3c38c6628f" y="263.255235"/>
     <use style="fill-opacity:0;stroke:#008000;stroke-linejoin:miter;stroke-width:3;" x="95.009774" xlink:href="#m3c38c6628f" y="258.948267"/>
     <use style="fill-opacity:0;stroke:#008000;stroke-linejoin:miter;stroke-width:3;" x="99.084932" xlink:href="#m3c38c6628f" y="254.15051"/>
     <use style="fill-opacity:0;stroke:#008000;stroke-linejoin:miter;stroke-width:3;" x="141.758675" xlink:href="#m3c38c6628f" y="186.331521"/>
     <use style="fill-opacity:0;stroke:#008000;stroke-linejoin:miter;stroke-width:3;" x="153.240581" xlink:href="#m3c38c6628f" y="178.377952"/>
     <use style="fill-opacity:0;stroke:#008000;stroke-linejoin:miter;stroke-width:3;" x="167.494885" xlink:href="#m3c38c6628f" y="169.30763"/>
     <use style="fill-opacity:0;stroke:#008000;stroke-linejoin:miter;stroke-width:3;" x="187.870042" xlink:href="#m3c38c6628f" y="169.051919"/>
     <use style="fill-opacity:0;stroke:#008000;stroke-linejoin:miter;stroke-width:3;" x="193.226632" xlink:href="#m3c38c6628f" y="164.187132"/>
     <use style="fill-opacity:0;stroke:#008000;stroke-linejoin:miter;stroke-width:3;" x="204.206514" xlink:href="#m3c38c6628f" y="157.142038"/>
     <use style="fill-opacity:0;stroke:#008000;stroke-linejoin:miter;stroke-width:3;" x="213.313514" xlink:href="#m3c38c6628f" y="147.61255"/>
     <use style="fill-opacity:0;stroke:#008000;stroke-linejoin:miter;stroke-width:3;" x="219.803888" xlink:href="#m3c38c6628f" y="132.577306"/>
     <use style="fill-opacity:0;stroke:#008000;stroke-linejoin:miter;stroke-width:3;" x="235.349212" xlink:href="#m3c38c6628f" y="122.750947"/>
    </g>
   </g>
   <g id="line2d_57">
    <defs>
     <path d="M -0 4 
L 4 -4 
L -4 -4 
z
" id="m72cec1d9a8" style="stroke:#008000;stroke-linejoin:miter;"/>
    </defs>
    <g>
     <use style="fill-opacity:0;stroke:#008000;stroke-linejoin:miter;" x="257.066407" xlink:href="#m72cec1d9a8" y="114.015768"/>
     <use style="fill-opacity:0;stroke:#008000;stroke-linejoin:miter;" x="292.890109" xlink:href="#m72cec1d9a8" y="91.294949"/>
    </g>
   </g>
   <g id="line2d_58">
    <g>
     <use style="fill-opacity:0;stroke:#008000;stroke-linejoin:miter;" x="321.741875" xlink:href="#m72cec1d9a8" y="84.110806"/>
     <use style="fill-opacity:0;stroke:#008000;stroke-linejoin:miter;" x="321.741875" xlink:href="#m72cec1d9a8" y="73.955224"/>
    </g>
   </g>
   <g id="line2d_59">
    <defs>
     <path d="M 0 -7 
L -1.571598 -2.163119 
L -6.657396 -2.163119 
L -2.542899 0.826238 
L -4.114497 5.663119 
L -0 2.673762 
L 4.114497 5.663119 
L 2.542899 0.826238 
L 6.657396 -2.163119 
L 1.571598 -2.163119 
z
" id="mbd1d2858a9" style="stroke:#0000ff;stroke-linejoin:bevel;stroke-width:3;"/>
    </defs>
    <g>
     <use style="fill-opacity:0;stroke:#0000ff;stroke-linejoin:bevel;stroke-width:3;" x="222.639252" xlink:href="#mbd1d2858a9" y="130.761175"/>
     <use style="fill-opacity:0;stroke:#0000ff;stroke-linejoin:bevel;stroke-width:3;" x="63.522682" xlink:href="#mbd1d2858a9" y="287.73096"/>
     <use style="fill-opacity:0;stroke:#0000ff;stroke-linejoin:bevel;stroke-width:3;" x="66.004713" xlink:href="#mbd1d2858a9" y="284.291285"/>
     <use style="fill-opacity:0;stroke:#0000ff;stroke-linejoin:bevel;stroke-width:3;" x="69.934585" xlink:href="#mbd1d2858a9" y="279.289067"/>
     <use style="fill-opacity:0;stroke:#0000ff;stroke-linejoin:bevel;stroke-width:3;" x="80.619517" xlink:href="#mbd1d2858a9" y="272.81837"/>
     <use style="fill-opacity:0;stroke:#0000ff;stroke-linejoin:bevel;stroke-width:3;" x="84.312642" xlink:href="#mbd1d2858a9" y="266.284048"/>
     <use style="fill-opacity:0;stroke:#0000ff;stroke-linejoin:bevel;stroke-width:3;" x="88.600896" xlink:href="#mbd1d2858a9" y="259.885608"/>
     <use style="fill-opacity:0;stroke:#0000ff;stroke-linejoin:bevel;stroke-width:3;" x="90.293308" xlink:href="#mbd1d2858a9" y="254.612034"/>
     <use style="fill-opacity:0;stroke:#0000ff;stroke-linejoin:bevel;stroke-width:3;" x="99.355522" xlink:href="#mbd1d2858a9" y="243.919672"/>
     <use style="fill-opacity:0;stroke:#0000ff;stroke-linejoin:bevel;stroke-width:3;" x="105.256459" xlink:href="#mbd1d2858a9" y="241.322552"/>
     <use style="fill-opacity:0;stroke:#0000ff;stroke-linejoin:bevel;stroke-width:3;" x="112.482223" xlink:href="#mbd1d2858a9" y="237.143623"/>
     <use style="fill-opacity:0;stroke:#0000ff;stroke-linejoin:bevel;stroke-width:3;" x="120.955563" xlink:href="#mbd1d2858a9" y="230.561246"/>
     <use style="fill-opacity:0;stroke:#0000ff;stroke-linejoin:bevel;stroke-width:3;" x="133.867442" xlink:href="#mbd1d2858a9" y="214.053192"/>
     <use style="fill-opacity:0;stroke:#0000ff;stroke-linejoin:bevel;stroke-width:3;" x="156.840507" xlink:href="#mbd1d2858a9" y="199.56273"/>
     <use style="fill-opacity:0;stroke:#0000ff;stroke-linejoin:bevel;stroke-width:3;" x="174.510045" xlink:href="#mbd1d2858a9" y="180.087946"/>
     <use style="fill-opacity:0;stroke:#0000ff;stroke-linejoin:bevel;stroke-width:3;" x="184.99563" xlink:href="#mbd1d2858a9" y="165.435764"/>
     <use style="fill-opacity:0;stroke:#0000ff;stroke-linejoin:bevel;stroke-width:3;" x="199.20992" xlink:href="#mbd1d2858a9" y="155.147524"/>
     <use style="fill-opacity:0;stroke:#0000ff;stroke-linejoin:bevel;stroke-width:3;" x="218.006954" xlink:href="#mbd1d2858a9" y="125.247345"/>
     <use style="fill-opacity:0;stroke:#0000ff;stroke-linejoin:bevel;stroke-width:3;" x="244.781542" xlink:href="#mbd1d2858a9" y="107.831135"/>
    </g>
   </g>
   <g id="line2d_60">
    <defs>
     <path d="M 0 -4 
L -0.898056 -1.236068 
L -3.804226 -1.236068 
L -1.453085 0.472136 
L -2.351141 3.236068 
L -0 1.527864 
L 2.351141 3.236068 
L 1.453085 0.472136 
L 3.804226 -1.236068 
L 0.898056 -1.236068 
z
" id="mb0a1dcdd8d" style="stroke:#0000ff;stroke-linejoin:bevel;"/>
    </defs>
    <g>
     <use style="fill-opacity:0;stroke:#0000ff;stroke-linejoin:bevel;" x="257.050001" xlink:href="#mb0a1dcdd8d" y="101.788931"/>
     <use style="fill-opacity:0;stroke:#0000ff;stroke-linejoin:bevel;" x="280.070542" xlink:href="#mb0a1dcdd8d" y="94.30611"/>
     <use style="fill-opacity:0;stroke:#0000ff;stroke-linejoin:bevel;" x="309.205511" xlink:href="#mb0a1dcdd8d" y="79.751341"/>
    </g>
   </g>
   <g id="line2d_61">
    <defs>
     <path d="M 0 7 
C 1.856422 7 3.637059 6.262436 4.949747 4.949747 
C 6.262436 3.637059 7 1.856422 7 0 
C 7 -1.856422 6.262436 -3.637059 4.949747 -4.949747 
C 3.637059 -6.262436 1.856422 -7 0 -7 
C -1.856422 -7 -3.637059 -6.262436 -4.949747 -4.949747 
C -6.262436 -3.637059 -7 -1.856422 -7 0 
C -7 1.856422 -6.262436 3.637059 -4.949747 4.949747 
C -3.637059 6.262436 -1.856422 7 0 7 
z
" id="m10a3992ab7" style="stroke:#000000;stroke-width:3;"/>
    </defs>
    <g>
     <use style="fill-opacity:0;stroke:#000000;stroke-width:3;" x="237.142172" xlink:href="#m10a3992ab7" y="114.268274"/>
     <use style="fill-opacity:0;stroke:#000000;stroke-width:3;" x="63.777575" xlink:href="#m10a3992ab7" y="286.199643"/>
     <use style="fill-opacity:0;stroke:#000000;stroke-width:3;" x="67.440861" xlink:href="#m10a3992ab7" y="283.339589"/>
     <use style="fill-opacity:0;stroke:#000000;stroke-width:3;" x="71.783888" xlink:href="#m10a3992ab7" y="279.91972"/>
     <use style="fill-opacity:0;stroke:#000000;stroke-width:3;" x="75.128199" xlink:href="#m10a3992ab7" y="274.70388"/>
     <use style="fill-opacity:0;stroke:#000000;stroke-width:3;" x="79.081998" xlink:href="#m10a3992ab7" y="266.051012"/>
     <use style="fill-opacity:0;stroke:#000000;stroke-width:3;" x="91.225575" xlink:href="#m10a3992ab7" y="257.027815"/>
     <use style="fill-opacity:0;stroke:#000000;stroke-width:3;" x="109.687117" xlink:href="#m10a3992ab7" y="251.05026"/>
     <use style="fill-opacity:0;stroke:#000000;stroke-width:3;" x="116.835816" xlink:href="#m10a3992ab7" y="241.951908"/>
     <use style="fill-opacity:0;stroke:#000000;stroke-width:3;" x="127.572409" xlink:href="#m10a3992ab7" y="225.784916"/>
     <use style="fill-opacity:0;stroke:#000000;stroke-width:3;" x="142.245154" xlink:href="#m10a3992ab7" y="211.129513"/>
     <use style="fill-opacity:0;stroke:#000000;stroke-width:3;" x="155.168068" xlink:href="#m10a3992ab7" y="195.379207"/>
     <use style="fill-opacity:0;stroke:#000000;stroke-width:3;" x="168.887436" xlink:href="#m10a3992ab7" y="175.330892"/>
     <use style="fill-opacity:0;stroke:#000000;stroke-width:3;" x="187.680536" xlink:href="#m10a3992ab7" y="156.184928"/>
     <use style="fill-opacity:0;stroke:#000000;stroke-width:3;" x="203.612458" xlink:href="#m10a3992ab7" y="146.270747"/>
     <use style="fill-opacity:0;stroke:#000000;stroke-width:3;" x="216.53325" xlink:href="#m10a3992ab7" y="131.516681"/>
     <use style="fill-opacity:0;stroke:#000000;stroke-width:3;" x="230.150902" xlink:href="#m10a3992ab7" y="123.641187"/>
     <use style="fill-opacity:0;stroke:#000000;stroke-width:3;" x="242.17006" xlink:href="#m10a3992ab7" y="112.465266"/>
     <use style="fill-opacity:0;stroke:#000000;stroke-width:3;" x="248.493313" xlink:href="#m10a3992ab7" y="106.209186"/>
     <use style="fill-opacity:0;stroke:#000000;stroke-width:3;" x="255.422929" xlink:href="#m10a3992ab7" y="102.954598"/>
    </g>
   </g>
   <g id="line2d_62">
    <defs>
     <path d="M 0 4 
C 1.060812 4 2.078319 3.578535 2.828427 2.828427 
C 3.578535 2.078319 4 1.060812 4 0 
C 4 -1.060812 3.578535 -2.078319 2.828427 -2.828427 
C 2.078319 -3.578535 1.060812 -4 0 -4 
C -1.060812 -4 -2.078319 -3.578535 -2.828427 -2.828427 
C -3.578535 -2.078319 -4 -1.060812 -4 0 
C -4 1.060812 -3.578535 2.078319 -2.828427 2.828427 
C -2.078319 3.578535 -1.060812 4 0 4 
z
" id="m44a4998110" style="stroke:#000000;"/>
    </defs>
    <g>
     <use style="fill-opacity:0;stroke:#000000;" x="269.06151" xlink:href="#m44a4998110" y="83.718907"/>
     <use style="fill-opacity:0;stroke:#000000;" x="304.214766" xlink:href="#m44a4998110" y="75.414756"/>
    </g>
   </g>
   <g id="line2d_63">
    <path clip-path="url(#p0319b17985)" d="M 45.941875 303.225234 
L 321.741875 27.425234 
" style="fill:none;stroke:#000000;stroke-linecap:square;stroke-width:1.5;"/>
   </g>
   <g id="line2d_64">
    <path clip-path="url(#p0319b17985)" d="M 102.858011 303.225234 
L 342.469297 63.613949 
" style="fill:none;stroke:#d3d3d3;stroke-linecap:square;"/>
   </g>
   <g id="line2d_65">
    <path clip-path="url(#p0319b17985)" d="M 159.774148 303.225234 
L 342.469297 120.530085 
" style="fill:none;stroke:#d3d3d3;stroke-linecap:square;"/>
   </g>
   <g id="line2d_66">
    <path clip-path="url(#p0319b17985)" d="M 45.941875 246.309098 
L 293.250973 -1 
" style="fill:none;stroke:#d3d3d3;stroke-linecap:square;"/>
   </g>
   <g id="line2d_67">
    <path clip-path="url(#p0319b17985)" d="M 45.941875 189.392962 
L 236.334837 -1 
" style="fill:none;stroke:#d3d3d3;stroke-linecap:square;"/>
   </g>
   <g id="patch_3">
    <path d="M 45.941875 303.225234 
L 45.941875 27.425234 
" style="fill:none;stroke:#000000;stroke-linecap:square;stroke-linejoin:miter;stroke-width:0.8;"/>
   </g>
   <g id="patch_4">
    <path d="M 321.741875 303.225234 
L 321.741875 27.425234 
" style="fill:none;stroke:#000000;stroke-linecap:square;stroke-linejoin:miter;stroke-width:0.8;"/>
   </g>
   <g id="patch_5">
    <path d="M 45.941875 303.225234 
L 321.741875 303.225234 
" style="fill:none;stroke:#000000;stroke-linecap:square;stroke-linejoin:miter;stroke-width:0.8;"/>
   </g>
   <g id="patch_6">
    <path d="M 45.941875 27.425234 
L 321.741875 27.425234 
" style="fill:none;stroke:#000000;stroke-linecap:square;stroke-linejoin:miter;stroke-width:0.8;"/>
   </g>
   <g id="text_7">
    <!-- 22 targets: 3e21..1e-6 -->
    <g transform="translate(48.699875 40.691641)scale(0.102 -0.102)">
     <defs>
      <path d="M 19.1875 8.296875 
L 53.609375 8.296875 
L 53.609375 0 
L 7.328125 0 
L 7.328125 8.296875 
Q 12.9375 14.109375 22.625 23.890625 
Q 32.328125 33.6875 34.8125 36.53125 
Q 39.546875 41.84375 41.421875 45.53125 
Q 43.3125 49.21875 43.3125 52.78125 
Q 43.3125 58.59375 39.234375 62.25 
Q 35.15625 65.921875 28.609375 65.921875 
Q 23.96875 65.921875 18.8125 64.3125 
Q 13.671875 62.703125 7.8125 59.421875 
L 7.8125 69.390625 
Q 13.765625 71.78125 18.9375 73 
Q 24.125 74.21875 28.421875 74.21875 
Q 39.75 74.21875 46.484375 68.546875 
Q 53.21875 62.890625 53.21875 53.421875 
Q 53.21875 48.921875 51.53125 44.890625 
Q 49.859375 40.875 45.40625 35.40625 
Q 44.1875 33.984375 37.640625 27.21875 
Q 31.109375 20.453125 19.1875 8.296875 
z
" id="DejaVuSans-50"/>
      <path d="M 18.3125 70.21875 
L 18.3125 54.6875 
L 36.8125 54.6875 
L 36.8125 47.703125 
L 18.3125 47.703125 
L 18.3125 18.015625 
Q 18.3125 11.328125 20.140625 9.421875 
Q 21.96875 7.515625 27.59375 7.515625 
L 36.8125 7.515625 
L 36.8125 0 
L 27.59375 0 
Q 17.1875 0 13.234375 3.875 
Q 9.28125 7.765625 9.28125 18.015625 
L 9.28125 47.703125 
L 2.6875 47.703125 
L 2.6875 54.6875 
L 9.28125 54.6875 
L 9.28125 70.21875 
z
" id="DejaVuSans-116"/>
      <path d="M 41.109375 46.296875 
Q 39.59375 47.171875 37.8125 47.578125 
Q 36.03125 48 33.890625 48 
Q 26.265625 48 22.1875 43.046875 
Q 18.109375 38.09375 18.109375 28.8125 
L 18.109375 0 
L 9.078125 0 
L 9.078125 54.6875 
L 18.109375 54.6875 
L 18.109375 46.1875 
Q 20.953125 51.171875 25.484375 53.578125 
Q 30.03125 56 36.53125 56 
Q 37.453125 56 38.578125 55.875 
Q 39.703125 55.765625 41.0625 55.515625 
z
" id="DejaVuSans-114"/>
      <path d="M 11.71875 12.40625 
L 22.015625 12.40625 
L 22.015625 0 
L 11.71875 0 
z
M 11.71875 51.703125 
L 22.015625 51.703125 
L 22.015625 39.3125 
L 11.71875 39.3125 
z
" id="DejaVuSans-58"/>
      <path d="M 10.6875 12.40625 
L 21 12.40625 
L 21 0 
L 10.6875 0 
z
" id="DejaVuSans-46"/>
      <path d="M 4.890625 31.390625 
L 31.203125 31.390625 
L 31.203125 23.390625 
L 4.890625 23.390625 
z
" id="DejaVuSans-45"/>
      <path d="M 33.015625 40.375 
Q 26.375 40.375 22.484375 35.828125 
Q 18.609375 31.296875 18.609375 23.390625 
Q 18.609375 15.53125 22.484375 10.953125 
Q 26.375 6.390625 33.015625 6.390625 
Q 39.65625 6.390625 43.53125 10.953125 
Q 47.40625 15.53125 47.40625 23.390625 
Q 47.40625 31.296875 43.53125 35.828125 
Q 39.65625 40.375 33.015625 40.375 
z
M 52.59375 71.296875 
L 52.59375 62.3125 
Q 48.875 64.0625 45.09375 64.984375 
Q 41.3125 65.921875 37.59375 65.921875 
Q 27.828125 65.921875 22.671875 59.328125 
Q 17.53125 52.734375 16.796875 39.40625 
Q 19.671875 43.65625 24.015625 45.921875 
Q 28.375 48.1875 33.59375 48.1875 
Q 44.578125 48.1875 50.953125 41.515625 
Q 57.328125 34.859375 57.328125 23.390625 
Q 57.328125 12.15625 50.6875 5.359375 
Q 44.046875 -1.421875 33.015625 -1.421875 
Q 20.359375 -1.421875 13.671875 8.265625 
Q 6.984375 17.96875 6.984375 36.375 
Q 6.984375 53.65625 15.1875 63.9375 
Q 23.390625 74.21875 37.203125 74.21875 
Q 40.921875 74.21875 44.703125 73.484375 
Q 48.484375 72.75 52.59375 71.296875 
z
" id="DejaVuSans-54"/>
     </defs>
     <use xlink:href="#DejaVuSans-50"/>
     <use x="63.623047" xlink:href="#DejaVuSans-50"/>
     <use x="127.246094" xlink:href="#DejaVuSans-32"/>
     <use x="159.033203" xlink:href="#DejaVuSans-116"/>
     <use x="198.242188" xlink:href="#DejaVuSans-97"/>
     <use x="259.521484" xlink:href="#DejaVuSans-114"/>
     <use x="298.884766" xlink:href="#DejaVuSans-103"/>
     <use x="362.361328" xlink:href="#DejaVuSans-101"/>
     <use x="423.884766" xlink:href="#DejaVuSans-116"/>
     <use x="463.09375" xlink:href="#DejaVuSans-115"/>
     <use x="515.193359" xlink:href="#DejaVuSans-58"/>
     <use x="548.884766" xlink:href="#DejaVuSans-32"/>
     <use x="580.671875" xlink:href="#DejaVuSans-51"/>
     <use x="644.294922" xlink:href="#DejaVuSans-101"/>
     <use x="705.818359" xlink:href="#DejaVuSans-50"/>
     <use x="769.441406" xlink:href="#DejaVuSans-49"/>
     <use x="833.064453" xlink:href="#DejaVuSans-46"/>
     <use x="864.851562" xlink:href="#DejaVuSans-46"/>
     <use x="896.638672" xlink:href="#DejaVuSans-49"/>
     <use x="960.261719" xlink:href="#DejaVuSans-101"/>
     <use x="1021.785156" xlink:href="#DejaVuSans-45"/>
     <use x="1057.869141" xlink:href="#DejaVuSans-54"/>
    </g>
    <!-- 15 and 15 instances -->
    <g transform="translate(48.699875 52.113409)scale(0.102 -0.102)">
     <defs>
      <path d="M 9.421875 54.6875 
L 18.40625 54.6875 
L 18.40625 0 
L 9.421875 0 
z
M 9.421875 75.984375 
L 18.40625 75.984375 
L 18.40625 64.59375 
L 9.421875 64.59375 
z
" id="DejaVuSans-105"/>
     </defs>
     <use xlink:href="#DejaVuSans-49"/>
     <use x="63.623047" xlink:href="#DejaVuSans-53"/>
     <use x="127.246094" xlink:href="#DejaVuSans-32"/>
     <use x="159.033203" xlink:href="#DejaVuSans-97"/>
     <use x="220.3125" xlink:href="#DejaVuSans-110"/>
     <use x="283.691406" xlink:href="#DejaVuSans-100"/>
     <use x="347.167969" xlink:href="#DejaVuSans-32"/>
     <use x="378.955078" xlink:href="#DejaVuSans-49"/>
     <use x="442.578125" xlink:href="#DejaVuSans-53"/>
     <use x="506.201172" xlink:href="#DejaVuSans-32"/>
     <use x="537.988281" xlink:href="#DejaVuSans-105"/>
     <use x="565.771484" xlink:href="#DejaVuSans-110"/>
     <use x="629.150391" xlink:href="#DejaVuSans-115"/>
     <use x="681.25" xlink:href="#DejaVuSans-116"/>
     <use x="720.458984" xlink:href="#DejaVuSans-97"/>
     <use x="781.738281" xlink:href="#DejaVuSans-110"/>
     <use x="845.117188" xlink:href="#DejaVuSans-99"/>
     <use x="900.097656" xlink:href="#DejaVuSans-101"/>
     <use x="961.621094" xlink:href="#DejaVuSans-115"/>
    </g>
   </g>
   <g id="text_8">
    <!-- v5z33 -->
    <g style="fill:#808080;" transform="translate(168.714531 298.387547)scale(0.1 -0.1)">
     <defs>
      <path d="M 2.984375 54.6875 
L 12.5 54.6875 
L 29.59375 8.796875 
L 46.6875 54.6875 
L 56.203125 54.6875 
L 35.6875 0 
L 23.484375 0 
z
" id="DejaVuSans-118"/>
      <path d="M 5.515625 54.6875 
L 48.1875 54.6875 
L 48.1875 46.484375 
L 14.40625 7.171875 
L 48.1875 7.171875 
L 48.1875 0 
L 4.296875 0 
L 4.296875 8.203125 
L 38.09375 47.515625 
L 5.515625 47.515625 
z
" id="DejaVuSans-122"/>
     </defs>
     <use xlink:href="#DejaVuSans-118"/>
     <use x="59.179688" xlink:href="#DejaVuSans-53"/>
     <use x="122.802734" xlink:href="#DejaVuSans-122"/>
     <use x="175.292969" xlink:href="#DejaVuSans-51"/>
     <use x="238.916016" xlink:href="#DejaVuSans-51"/>
    </g>
   </g>
   <g id="text_9">
    <!-- 26 Discus, 2 constraints -->
    <g transform="translate(86.559609 21.425234)scale(0.162 -0.162)">
     <defs>
      <path d="M 19.671875 64.796875 
L 19.671875 8.109375 
L 31.59375 8.109375 
Q 46.6875 8.109375 53.6875 14.9375 
Q 60.6875 21.78125 60.6875 36.53125 
Q 60.6875 51.171875 53.6875 57.984375 
Q 46.6875 64.796875 31.59375 64.796875 
z
M 9.8125 72.90625 
L 30.078125 72.90625 
Q 51.265625 72.90625 61.171875 64.09375 
Q 71.09375 55.28125 71.09375 36.53125 
Q 71.09375 17.671875 61.125 8.828125 
Q 51.171875 0 30.078125 0 
L 9.8125 0 
z
" id="DejaVuSans-68"/>
      <path d="M 8.5 21.578125 
L 8.5 54.6875 
L 17.484375 54.6875 
L 17.484375 21.921875 
Q 17.484375 14.15625 20.5 10.265625 
Q 23.53125 6.390625 29.59375 6.390625 
Q 36.859375 6.390625 41.078125 11.03125 
Q 45.3125 15.671875 45.3125 23.6875 
L 45.3125 54.6875 
L 54.296875 54.6875 
L 54.296875 0 
L 45.3125 0 
L 45.3125 8.40625 
Q 42.046875 3.421875 37.71875 1 
Q 33.40625 -1.421875 27.6875 -1.421875 
Q 18.265625 -1.421875 13.375 4.4375 
Q 8.5 10.296875 8.5 21.578125 
z
M 31.109375 56 
z
" id="DejaVuSans-117"/>
      <path d="M 11.71875 12.40625 
L 22.015625 12.40625 
L 22.015625 4 
L 14.015625 -11.625 
L 7.71875 -11.625 
L 11.71875 4 
z
" id="DejaVuSans-44"/>
     </defs>
     <use xlink:href="#DejaVuSans-50"/>
     <use x="63.623047" xlink:href="#DejaVuSans-54"/>
     <use x="127.246094" xlink:href="#DejaVuSans-32"/>
     <use x="159.033203" xlink:href="#DejaVuSans-68"/>
     <use x="236.035156" xlink:href="#DejaVuSans-105"/>
     <use x="263.818359" xlink:href="#DejaVuSans-115"/>
     <use x="315.917969" xlink:href="#DejaVuSans-99"/>
     <use x="370.898438" xlink:href="#DejaVuSans-117"/>
     <use x="434.277344" xlink:href="#DejaVuSans-115"/>
     <use x="486.376953" xlink:href="#DejaVuSans-44"/>
     <use x="518.164062" xlink:href="#DejaVuSans-32"/>
     <use x="549.951172" xlink:href="#DejaVuSans-50"/>
     <use x="613.574219" xlink:href="#DejaVuSans-32"/>
     <use x="645.361328" xlink:href="#DejaVuSans-99"/>
     <use x="700.341797" xlink:href="#DejaVuSans-111"/>
     <use x="761.523438" xlink:href="#DejaVuSans-110"/>
     <use x="824.902344" xlink:href="#DejaVuSans-115"/>
     <use x="877.001953" xlink:href="#DejaVuSans-116"/>
     <use x="916.210938" xlink:href="#DejaVuSans-114"/>
     <use x="957.324219" xlink:href="#DejaVuSans-97"/>
     <use x="1018.603516" xlink:href="#DejaVuSans-105"/>
     <use x="1046.386719" xlink:href="#DejaVuSans-110"/>
     <use x="1109.765625" xlink:href="#DejaVuSans-116"/>
     <use x="1148.974609" xlink:href="#DejaVuSans-115"/>
    </g>
   </g>
  </g>
 </g>
 <defs>
  <clipPath id="p0319b17985">
   <rect height="275.8" width="275.8" x="45.941875" y="27.425234"/>
  </clipPath>
 </defs>
</svg>
