<?xml version="1.0" encoding="utf-8" standalone="no"?>
<!DOCTYPE svg PUBLIC "-//W3C//DTD SVG 1.1//EN"
  "http://www.w3.org/Graphics/SVG/1.1/DTD/svg11.dtd">
<!-- Created with matplotlib (https://matplotlib.org/) -->
<svg height="345.6pt" version="1.1" viewBox="0 0 460.8 345.6" width="460.8pt" xmlns="http://www.w3.org/2000/svg" xmlns:xlink="http://www.w3.org/1999/xlink">
 <metadata>
  <rdf:RDF xmlns:cc="http://creativecommons.org/ns#" xmlns:dc="http://purl.org/dc/elements/1.1/" xmlns:rdf="http://www.w3.org/1999/02/22-rdf-syntax-ns#">
   <cc:Work>
    <dc:type rdf:resource="http://purl.org/dc/dcmitype/StillImage"/>
    <dc:date>2021-03-02T18:25:57.982620</dc:date>
    <dc:format>image/svg+xml</dc:format>
    <dc:creator>
     <cc:Agent>
      <dc:title>Matplotlib v3.3.3, https://matplotlib.org/</dc:title>
     </cc:Agent>
    </dc:creator>
   </cc:Work>
  </rdf:RDF>
 </metadata>
 <defs>
  <style type="text/css">*{stroke-linecap:butt;stroke-linejoin:round;}</style>
 </defs>
 <g id="figure_1">
  <g id="patch_1">
   <path d="M 0 345.6 
L 460.8 345.6 
L 460.8 0 
L 0 0 
z
" style="fill:#ffffff;"/>
  </g>
  <g id="axes_1">
   <g id="patch_2">
    <path d="M 57.6 298.944 
L 338.688 298.944 
L 338.688 27.648 
L 57.6 27.648 
z
" style="fill:#ffffff;"/>
   </g>
   <g id="matplotlib.axis_1">
    <g id="xtick_1">
     <g id="line2d_1">
      <path clip-path="url(#pbcd1b024cb)" d="M 57.6 298.944 
L 57.6 27.648 
" style="fill:none;stroke:#b0b0b0;stroke-linecap:square;stroke-width:0.8;"/>
     </g>
     <g id="line2d_2">
      <defs>
       <path d="M 0 0 
L 0 3.5 
" id="m6ce868b1d7" style="stroke:#000000;stroke-width:0.8;"/>
      </defs>
      <g>
       <use style="stroke:#000000;stroke-width:0.8;" x="57.6" xlink:href="#m6ce868b1d7" y="298.944"/>
      </g>
     </g>
     <g id="text_1">
      <!-- 0 -->
      <g transform="translate(51.2375 321.140875)scale(0.2 -0.2)">
       <defs>
        <path d="M 31.78125 66.40625 
Q 24.171875 66.40625 20.328125 58.90625 
Q 16.5 51.421875 16.5 36.375 
Q 16.5 21.390625 20.328125 13.890625 
Q 24.171875 6.390625 31.78125 6.390625 
Q 39.453125 6.390625 43.28125 13.890625 
Q 47.125 21.390625 47.125 36.375 
Q 47.125 51.421875 43.28125 58.90625 
Q 39.453125 66.40625 31.78125 66.40625 
z
M 31.78125 74.21875 
Q 44.046875 74.21875 50.515625 64.515625 
Q 56.984375 54.828125 56.984375 36.375 
Q 56.984375 17.96875 50.515625 8.265625 
Q 44.046875 -1.421875 31.78125 -1.421875 
Q 19.53125 -1.421875 13.0625 8.265625 
Q 6.59375 17.96875 6.59375 36.375 
Q 6.59375 54.828125 13.0625 64.515625 
Q 19.53125 74.21875 31.78125 74.21875 
z
" id="DejaVuSans-48"/>
       </defs>
       <use xlink:href="#DejaVuSans-48"/>
      </g>
     </g>
    </g>
    <g id="xtick_2">
     <g id="line2d_3">
      <path clip-path="url(#pbcd1b024cb)" d="M 137.910857 298.944 
L 137.910857 27.648 
" style="fill:none;stroke:#b0b0b0;stroke-linecap:square;stroke-width:0.8;"/>
     </g>
     <g id="line2d_4">
      <g>
       <use style="stroke:#000000;stroke-width:0.8;" x="137.910857" xlink:href="#m6ce868b1d7" y="298.944"/>
      </g>
     </g>
     <g id="text_2">
      <!-- 2 -->
      <g transform="translate(131.548357 321.140875)scale(0.2 -0.2)">
       <defs>
        <path d="M 19.1875 8.296875 
L 53.609375 8.296875 
L 53.609375 0 
L 7.328125 0 
L 7.328125 8.296875 
Q 12.9375 14.109375 22.625 23.890625 
Q 32.328125 33.6875 34.8125 36.53125 
Q 39.546875 41.84375 41.421875 45.53125 
Q 43.3125 49.21875 43.3125 52.78125 
Q 43.3125 58.59375 39.234375 62.25 
Q 35.15625 65.921875 28.609375 65.921875 
Q 23.96875 65.921875 18.8125 64.3125 
Q 13.671875 62.703125 7.8125 59.421875 
L 7.8125 69.390625 
Q 13.765625 71.78125 18.9375 73 
Q 24.125 74.21875 28.421875 74.21875 
Q 39.75 74.21875 46.484375 68.546875 
Q 53.21875 62.890625 53.21875 53.421875 
Q 53.21875 48.921875 51.53125 44.890625 
Q 49.859375 40.875 45.40625 35.40625 
Q 44.1875 33.984375 37.640625 27.21875 
Q 31.109375 20.453125 19.1875 8.296875 
z
" id="DejaVuSans-50"/>
       </defs>
       <use xlink:href="#DejaVuSans-50"/>
      </g>
     </g>
    </g>
    <g id="xtick_3">
     <g id="line2d_5">
      <path clip-path="url(#pbcd1b024cb)" d="M 218.221714 298.944 
L 218.221714 27.648 
" style="fill:none;stroke:#b0b0b0;stroke-linecap:square;stroke-width:0.8;"/>
     </g>
     <g id="line2d_6">
      <g>
       <use style="stroke:#000000;stroke-width:0.8;" x="218.221714" xlink:href="#m6ce868b1d7" y="298.944"/>
      </g>
     </g>
     <g id="text_3">
      <!-- 4 -->
      <g transform="translate(211.859214 321.140875)scale(0.2 -0.2)">
       <defs>
        <path d="M 37.796875 64.3125 
L 12.890625 25.390625 
L 37.796875 25.390625 
z
M 35.203125 72.90625 
L 47.609375 72.90625 
L 47.609375 25.390625 
L 58.015625 25.390625 
L 58.015625 17.1875 
L 47.609375 17.1875 
L 47.609375 0 
L 37.796875 0 
L 37.796875 17.1875 
L 4.890625 17.1875 
L 4.890625 26.703125 
z
" id="DejaVuSans-52"/>
       </defs>
       <use xlink:href="#DejaVuSans-52"/>
      </g>
     </g>
    </g>
    <g id="xtick_4">
     <g id="line2d_7">
      <path clip-path="url(#pbcd1b024cb)" d="M 298.532571 298.944 
L 298.532571 27.648 
" style="fill:none;stroke:#b0b0b0;stroke-linecap:square;stroke-width:0.8;"/>
     </g>
     <g id="line2d_8">
      <g>
       <use style="stroke:#000000;stroke-width:0.8;" x="298.532571" xlink:href="#m6ce868b1d7" y="298.944"/>
      </g>
     </g>
     <g id="text_4">
      <!-- 6 -->
      <g transform="translate(292.170071 321.140875)scale(0.2 -0.2)">
       <defs>
        <path d="M 33.015625 40.375 
Q 26.375 40.375 22.484375 35.828125 
Q 18.609375 31.296875 18.609375 23.390625 
Q 18.609375 15.53125 22.484375 10.953125 
Q 26.375 6.390625 33.015625 6.390625 
Q 39.65625 6.390625 43.53125 10.953125 
Q 47.40625 15.53125 47.40625 23.390625 
Q 47.40625 31.296875 43.53125 35.828125 
Q 39.65625 40.375 33.015625 40.375 
z
M 52.59375 71.296875 
L 52.59375 62.3125 
Q 48.875 64.0625 45.09375 64.984375 
Q 41.3125 65.921875 37.59375 65.921875 
Q 27.828125 65.921875 22.671875 59.328125 
Q 17.53125 52.734375 16.796875 39.40625 
Q 19.671875 43.65625 24.015625 45.921875 
Q 28.375 48.1875 33.59375 48.1875 
Q 44.578125 48.1875 50.953125 41.515625 
Q 57.328125 34.859375 57.328125 23.390625 
Q 57.328125 12.15625 50.6875 5.359375 
Q 44.046875 -1.421875 33.015625 -1.421875 
Q 20.359375 -1.421875 13.671875 8.265625 
Q 6.984375 17.96875 6.984375 36.375 
Q 6.984375 53.65625 15.1875 63.9375 
Q 23.390625 74.21875 37.203125 74.21875 
Q 40.921875 74.21875 44.703125 73.484375 
Q 48.484375 72.75 52.59375 71.296875 
z
" id="DejaVuSans-54"/>
       </defs>
       <use xlink:href="#DejaVuSans-54"/>
      </g>
     </g>
    </g>
    <g id="xtick_5">
     <g id="line2d_9">
      <path clip-path="url(#pbcd1b024cb)" d="M 97.755429 298.944 
L 97.755429 27.648 
" style="fill:none;stroke:#b0b0b0;stroke-linecap:square;stroke-width:0.8;"/>
     </g>
     <g id="line2d_10">
      <defs>
       <path d="M 0 0 
L 0 2 
" id="mfa14cd412b" style="stroke:#000000;stroke-width:0.6;"/>
      </defs>
      <g>
       <use style="stroke:#000000;stroke-width:0.6;" x="97.755429" xlink:href="#mfa14cd412b" y="298.944"/>
      </g>
     </g>
    </g>
    <g id="xtick_6">
     <g id="line2d_11">
      <path clip-path="url(#pbcd1b024cb)" d="M 178.066286 298.944 
L 178.066286 27.648 
" style="fill:none;stroke:#b0b0b0;stroke-linecap:square;stroke-width:0.8;"/>
     </g>
     <g id="line2d_12">
      <g>
       <use style="stroke:#000000;stroke-width:0.6;" x="178.066286" xlink:href="#mfa14cd412b" y="298.944"/>
      </g>
     </g>
    </g>
    <g id="xtick_7">
     <g id="line2d_13">
      <path clip-path="url(#pbcd1b024cb)" d="M 258.377143 298.944 
L 258.377143 27.648 
" style="fill:none;stroke:#b0b0b0;stroke-linecap:square;stroke-width:0.8;"/>
     </g>
     <g id="line2d_14">
      <g>
       <use style="stroke:#000000;stroke-width:0.6;" x="258.377143" xlink:href="#mfa14cd412b" y="298.944"/>
      </g>
     </g>
    </g>
    <g id="xtick_8">
     <g id="line2d_15">
      <path clip-path="url(#pbcd1b024cb)" d="M 338.688 298.944 
L 338.688 27.648 
" style="fill:none;stroke:#b0b0b0;stroke-linecap:square;stroke-width:0.8;"/>
     </g>
     <g id="line2d_16">
      <g>
       <use style="stroke:#000000;stroke-width:0.6;" x="338.688" xlink:href="#mfa14cd412b" y="298.944"/>
      </g>
     </g>
    </g>
    <g id="text_5">
     <!-- log10(# (f+g)-evals / dimension) -->
     <g transform="translate(58.145016 342.217594)scale(0.17 -0.17)">
      <defs>
       <path d="M 9.421875 75.984375 
L 18.40625 75.984375 
L 18.40625 0 
L 9.421875 0 
z
" id="DejaVuSans-108"/>
       <path d="M 30.609375 48.390625 
Q 23.390625 48.390625 19.1875 42.75 
Q 14.984375 37.109375 14.984375 27.296875 
Q 14.984375 17.484375 19.15625 11.84375 
Q 23.34375 6.203125 30.609375 6.203125 
Q 37.796875 6.203125 41.984375 11.859375 
Q 46.1875 17.53125 46.1875 27.296875 
Q 46.1875 37.015625 41.984375 42.703125 
Q 37.796875 48.390625 30.609375 48.390625 
z
M 30.609375 56 
Q 42.328125 56 49.015625 48.375 
Q 55.71875 40.765625 55.71875 27.296875 
Q 55.71875 13.875 49.015625 6.21875 
Q 42.328125 -1.421875 30.609375 -1.421875 
Q 18.84375 -1.421875 12.171875 6.21875 
Q 5.515625 13.875 5.515625 27.296875 
Q 5.515625 40.765625 12.171875 48.375 
Q 18.84375 56 30.609375 56 
z
" id="DejaVuSans-111"/>
       <path d="M 45.40625 27.984375 
Q 45.40625 37.75 41.375 43.109375 
Q 37.359375 48.484375 30.078125 48.484375 
Q 22.859375 48.484375 18.828125 43.109375 
Q 14.796875 37.75 14.796875 27.984375 
Q 14.796875 18.265625 18.828125 12.890625 
Q 22.859375 7.515625 30.078125 7.515625 
Q 37.359375 7.515625 41.375 12.890625 
Q 45.40625 18.265625 45.40625 27.984375 
z
M 54.390625 6.78125 
Q 54.390625 -7.171875 48.1875 -13.984375 
Q 42 -20.796875 29.203125 -20.796875 
Q 24.46875 -20.796875 20.265625 -20.09375 
Q 16.0625 -19.390625 12.109375 -17.921875 
L 12.109375 -9.1875 
Q 16.0625 -11.328125 19.921875 -12.34375 
Q 23.78125 -13.375 27.78125 -13.375 
Q 36.625 -13.375 41.015625 -8.765625 
Q 45.40625 -4.15625 45.40625 5.171875 
L 45.40625 9.625 
Q 42.625 4.78125 38.28125 2.390625 
Q 33.9375 0 27.875 0 
Q 17.828125 0 11.671875 7.65625 
Q 5.515625 15.328125 5.515625 27.984375 
Q 5.515625 40.671875 11.671875 48.328125 
Q 17.828125 56 27.875 56 
Q 33.9375 56 38.28125 53.609375 
Q 42.625 51.21875 45.40625 46.390625 
L 45.40625 54.6875 
L 54.390625 54.6875 
z
" id="DejaVuSans-103"/>
       <path d="M 12.40625 8.296875 
L 28.515625 8.296875 
L 28.515625 63.921875 
L 10.984375 60.40625 
L 10.984375 69.390625 
L 28.421875 72.90625 
L 38.28125 72.90625 
L 38.28125 8.296875 
L 54.390625 8.296875 
L 54.390625 0 
L 12.40625 0 
z
" id="DejaVuSans-49"/>
       <path d="M 31 75.875 
Q 24.46875 64.65625 21.28125 53.65625 
Q 18.109375 42.671875 18.109375 31.390625 
Q 18.109375 20.125 21.3125 9.0625 
Q 24.515625 -2 31 -13.1875 
L 23.1875 -13.1875 
Q 15.875 -1.703125 12.234375 9.375 
Q 8.59375 20.453125 8.59375 31.390625 
Q 8.59375 42.28125 12.203125 53.3125 
Q 15.828125 64.359375 23.1875 75.875 
z
" id="DejaVuSans-40"/>
       <path d="M 51.125 44 
L 36.921875 44 
L 32.8125 27.6875 
L 47.125 27.6875 
z
M 43.796875 71.78125 
L 38.71875 51.515625 
L 52.984375 51.515625 
L 58.109375 71.78125 
L 65.921875 71.78125 
L 60.890625 51.515625 
L 76.125 51.515625 
L 76.125 44 
L 58.984375 44 
L 54.984375 27.6875 
L 70.515625 27.6875 
L 70.515625 20.21875 
L 53.078125 20.21875 
L 48 0 
L 40.1875 0 
L 45.21875 20.21875 
L 30.90625 20.21875 
L 25.875 0 
L 18.015625 0 
L 23.09375 20.21875 
L 7.71875 20.21875 
L 7.71875 27.6875 
L 24.90625 27.6875 
L 29 44 
L 13.28125 44 
L 13.28125 51.515625 
L 30.90625 51.515625 
L 35.890625 71.78125 
z
" id="DejaVuSans-35"/>
       <path id="DejaVuSans-32"/>
       <path d="M 37.109375 75.984375 
L 37.109375 68.5 
L 28.515625 68.5 
Q 23.6875 68.5 21.796875 66.546875 
Q 19.921875 64.59375 19.921875 59.515625 
L 19.921875 54.6875 
L 34.71875 54.6875 
L 34.71875 47.703125 
L 19.921875 47.703125 
L 19.921875 0 
L 10.890625 0 
L 10.890625 47.703125 
L 2.296875 47.703125 
L 2.296875 54.6875 
L 10.890625 54.6875 
L 10.890625 58.5 
Q 10.890625 67.625 15.140625 71.796875 
Q 19.390625 75.984375 28.609375 75.984375 
z
" id="DejaVuSans-102"/>
       <path d="M 46 62.703125 
L 46 35.5 
L 73.1875 35.5 
L 73.1875 27.203125 
L 46 27.203125 
L 46 0 
L 37.796875 0 
L 37.796875 27.203125 
L 10.59375 27.203125 
L 10.59375 35.5 
L 37.796875 35.5 
L 37.796875 62.703125 
z
" id="DejaVuSans-43"/>
       <path d="M 8.015625 75.875 
L 15.828125 75.875 
Q 23.140625 64.359375 26.78125 53.3125 
Q 30.421875 42.28125 30.421875 31.390625 
Q 30.421875 20.453125 26.78125 9.375 
Q 23.140625 -1.703125 15.828125 -13.1875 
L 8.015625 -13.1875 
Q 14.5 -2 17.703125 9.0625 
Q 20.90625 20.125 20.90625 31.390625 
Q 20.90625 42.671875 17.703125 53.65625 
Q 14.5 64.65625 8.015625 75.875 
z
" id="DejaVuSans-41"/>
       <path d="M 4.890625 31.390625 
L 31.203125 31.390625 
L 31.203125 23.390625 
L 4.890625 23.390625 
z
" id="DejaVuSans-45"/>
       <path d="M 56.203125 29.59375 
L 56.203125 25.203125 
L 14.890625 25.203125 
Q 15.484375 15.921875 20.484375 11.0625 
Q 25.484375 6.203125 34.421875 6.203125 
Q 39.59375 6.203125 44.453125 7.46875 
Q 49.3125 8.734375 54.109375 11.28125 
L 54.109375 2.78125 
Q 49.265625 0.734375 44.1875 -0.34375 
Q 39.109375 -1.421875 33.890625 -1.421875 
Q 20.796875 -1.421875 13.15625 6.1875 
Q 5.515625 13.8125 5.515625 26.8125 
Q 5.515625 40.234375 12.765625 48.109375 
Q 20.015625 56 32.328125 56 
Q 43.359375 56 49.78125 48.890625 
Q 56.203125 41.796875 56.203125 29.59375 
z
M 47.21875 32.234375 
Q 47.125 39.59375 43.09375 43.984375 
Q 39.0625 48.390625 32.421875 48.390625 
Q 24.90625 48.390625 20.390625 44.140625 
Q 15.875 39.890625 15.1875 32.171875 
z
" id="DejaVuSans-101"/>
       <path d="M 2.984375 54.6875 
L 12.5 54.6875 
L 29.59375 8.796875 
L 46.6875 54.6875 
L 56.203125 54.6875 
L 35.6875 0 
L 23.484375 0 
z
" id="DejaVuSans-118"/>
       <path d="M 34.28125 27.484375 
Q 23.390625 27.484375 19.1875 25 
Q 14.984375 22.515625 14.984375 16.5 
Q 14.984375 11.71875 18.140625 8.90625 
Q 21.296875 6.109375 26.703125 6.109375 
Q 34.1875 6.109375 38.703125 11.40625 
Q 43.21875 16.703125 43.21875 25.484375 
L 43.21875 27.484375 
z
M 52.203125 31.203125 
L 52.203125 0 
L 43.21875 0 
L 43.21875 8.296875 
Q 40.140625 3.328125 35.546875 0.953125 
Q 30.953125 -1.421875 24.3125 -1.421875 
Q 15.921875 -1.421875 10.953125 3.296875 
Q 6 8.015625 6 15.921875 
Q 6 25.140625 12.171875 29.828125 
Q 18.359375 34.515625 30.609375 34.515625 
L 43.21875 34.515625 
L 43.21875 35.40625 
Q 43.21875 41.609375 39.140625 45 
Q 35.0625 48.390625 27.6875 48.390625 
Q 23 48.390625 18.546875 47.265625 
Q 14.109375 46.140625 10.015625 43.890625 
L 10.015625 52.203125 
Q 14.9375 54.109375 19.578125 55.046875 
Q 24.21875 56 28.609375 56 
Q 40.484375 56 46.34375 49.84375 
Q 52.203125 43.703125 52.203125 31.203125 
z
" id="DejaVuSans-97"/>
       <path d="M 44.28125 53.078125 
L 44.28125 44.578125 
Q 40.484375 46.53125 36.375 47.5 
Q 32.28125 48.484375 27.875 48.484375 
Q 21.1875 48.484375 17.84375 46.4375 
Q 14.5 44.390625 14.5 40.28125 
Q 14.5 37.15625 16.890625 35.375 
Q 19.28125 33.59375 26.515625 31.984375 
L 29.59375 31.296875 
Q 39.15625 29.25 43.1875 25.515625 
Q 47.21875 21.78125 47.21875 15.09375 
Q 47.21875 7.46875 41.1875 3.015625 
Q 35.15625 -1.421875 24.609375 -1.421875 
Q 20.21875 -1.421875 15.453125 -0.5625 
Q 10.6875 0.296875 5.421875 2 
L 5.421875 11.28125 
Q 10.40625 8.6875 15.234375 7.390625 
Q 20.0625 6.109375 24.8125 6.109375 
Q 31.15625 6.109375 34.5625 8.28125 
Q 37.984375 10.453125 37.984375 14.40625 
Q 37.984375 18.0625 35.515625 20.015625 
Q 33.0625 21.96875 24.703125 23.78125 
L 21.578125 24.515625 
Q 13.234375 26.265625 9.515625 29.90625 
Q 5.8125 33.546875 5.8125 39.890625 
Q 5.8125 47.609375 11.28125 51.796875 
Q 16.75 56 26.8125 56 
Q 31.78125 56 36.171875 55.265625 
Q 40.578125 54.546875 44.28125 53.078125 
z
" id="DejaVuSans-115"/>
       <path d="M 25.390625 72.90625 
L 33.6875 72.90625 
L 8.296875 -9.28125 
L 0 -9.28125 
z
" id="DejaVuSans-47"/>
       <path d="M 45.40625 46.390625 
L 45.40625 75.984375 
L 54.390625 75.984375 
L 54.390625 0 
L 45.40625 0 
L 45.40625 8.203125 
Q 42.578125 3.328125 38.25 0.953125 
Q 33.9375 -1.421875 27.875 -1.421875 
Q 17.96875 -1.421875 11.734375 6.484375 
Q 5.515625 14.40625 5.515625 27.296875 
Q 5.515625 40.1875 11.734375 48.09375 
Q 17.96875 56 27.875 56 
Q 33.9375 56 38.25 53.625 
Q 42.578125 51.265625 45.40625 46.390625 
z
M 14.796875 27.296875 
Q 14.796875 17.390625 18.875 11.75 
Q 22.953125 6.109375 30.078125 6.109375 
Q 37.203125 6.109375 41.296875 11.75 
Q 45.40625 17.390625 45.40625 27.296875 
Q 45.40625 37.203125 41.296875 42.84375 
Q 37.203125 48.484375 30.078125 48.484375 
Q 22.953125 48.484375 18.875 42.84375 
Q 14.796875 37.203125 14.796875 27.296875 
z
" id="DejaVuSans-100"/>
       <path d="M 9.421875 54.6875 
L 18.40625 54.6875 
L 18.40625 0 
L 9.421875 0 
z
M 9.421875 75.984375 
L 18.40625 75.984375 
L 18.40625 64.59375 
L 9.421875 64.59375 
z
" id="DejaVuSans-105"/>
       <path d="M 52 44.1875 
Q 55.375 50.25 60.0625 53.125 
Q 64.75 56 71.09375 56 
Q 79.640625 56 84.28125 50.015625 
Q 88.921875 44.046875 88.921875 33.015625 
L 88.921875 0 
L 79.890625 0 
L 79.890625 32.71875 
Q 79.890625 40.578125 77.09375 44.375 
Q 74.3125 48.1875 68.609375 48.1875 
Q 61.625 48.1875 57.5625 43.546875 
Q 53.515625 38.921875 53.515625 30.90625 
L 53.515625 0 
L 44.484375 0 
L 44.484375 32.71875 
Q 44.484375 40.625 41.703125 44.40625 
Q 38.921875 48.1875 33.109375 48.1875 
Q 26.21875 48.1875 22.15625 43.53125 
Q 18.109375 38.875 18.109375 30.90625 
L 18.109375 0 
L 9.078125 0 
L 9.078125 54.6875 
L 18.109375 54.6875 
L 18.109375 46.1875 
Q 21.1875 51.21875 25.484375 53.609375 
Q 29.78125 56 35.6875 56 
Q 41.65625 56 45.828125 52.96875 
Q 50 49.953125 52 44.1875 
z
" id="DejaVuSans-109"/>
       <path d="M 54.890625 33.015625 
L 54.890625 0 
L 45.90625 0 
L 45.90625 32.71875 
Q 45.90625 40.484375 42.875 44.328125 
Q 39.84375 48.1875 33.796875 48.1875 
Q 26.515625 48.1875 22.3125 43.546875 
Q 18.109375 38.921875 18.109375 30.90625 
L 18.109375 0 
L 9.078125 0 
L 9.078125 54.6875 
L 18.109375 54.6875 
L 18.109375 46.1875 
Q 21.34375 51.125 25.703125 53.5625 
Q 30.078125 56 35.796875 56 
Q 45.21875 56 50.046875 50.171875 
Q 54.890625 44.34375 54.890625 33.015625 
z
" id="DejaVuSans-110"/>
      </defs>
      <use xlink:href="#DejaVuSans-108"/>
      <use x="27.783203" xlink:href="#DejaVuSans-111"/>
      <use x="88.964844" xlink:href="#DejaVuSans-103"/>
      <use x="152.441406" xlink:href="#DejaVuSans-49"/>
      <use x="216.064453" xlink:href="#DejaVuSans-48"/>
      <use x="279.6875" xlink:href="#DejaVuSans-40"/>
      <use x="318.701172" xlink:href="#DejaVuSans-35"/>
      <use x="402.490234" xlink:href="#DejaVuSans-32"/>
      <use x="434.277344" xlink:href="#DejaVuSans-40"/>
      <use x="473.291016" xlink:href="#DejaVuSans-102"/>
      <use x="508.496094" xlink:href="#DejaVuSans-43"/>
      <use x="592.285156" xlink:href="#DejaVuSans-103"/>
      <use x="655.761719" xlink:href="#DejaVuSans-41"/>
      <use x="694.775391" xlink:href="#DejaVuSans-45"/>
      <use x="730.859375" xlink:href="#DejaVuSans-101"/>
      <use x="792.382812" xlink:href="#DejaVuSans-118"/>
      <use x="851.5625" xlink:href="#DejaVuSans-97"/>
      <use x="912.841797" xlink:href="#DejaVuSans-108"/>
      <use x="940.625" xlink:href="#DejaVuSans-115"/>
      <use x="992.724609" xlink:href="#DejaVuSans-32"/>
      <use x="1024.511719" xlink:href="#DejaVuSans-47"/>
      <use x="1058.203125" xlink:href="#DejaVuSans-32"/>
      <use x="1089.990234" xlink:href="#DejaVuSans-100"/>
      <use x="1153.466797" xlink:href="#DejaVuSans-105"/>
      <use x="1181.25" xlink:href="#DejaVuSans-109"/>
      <use x="1278.662109" xlink:href="#DejaVuSans-101"/>
      <use x="1340.185547" xlink:href="#DejaVuSans-110"/>
      <use x="1403.564453" xlink:href="#DejaVuSans-115"/>
      <use x="1455.664062" xlink:href="#DejaVuSans-105"/>
      <use x="1483.447266" xlink:href="#DejaVuSans-111"/>
      <use x="1544.628906" xlink:href="#DejaVuSans-110"/>
      <use x="1608.007812" xlink:href="#DejaVuSans-41"/>
     </g>
    </g>
   </g>
   <g id="matplotlib.axis_2">
    <g id="ytick_1">
     <g id="line2d_17">
      <path clip-path="url(#pbcd1b024cb)" d="M 57.6 298.944 
L 338.688 298.944 
" style="fill:none;stroke:#b0b0b0;stroke-linecap:square;stroke-width:0.8;"/>
     </g>
     <g id="line2d_18">
      <defs>
       <path d="M 0 0 
L -3.5 0 
" id="m34e544a270" style="stroke:#000000;stroke-width:0.8;"/>
      </defs>
      <g>
       <use style="stroke:#000000;stroke-width:0.8;" x="57.6" xlink:href="#m34e544a270" y="298.944"/>
      </g>
     </g>
     <g id="text_6">
      <!-- 0.0 -->
      <g transform="translate(25.155 305.02275)scale(0.16 -0.16)">
       <defs>
        <path d="M 10.6875 12.40625 
L 21 12.40625 
L 21 0 
L 10.6875 0 
z
" id="DejaVuSans-46"/>
       </defs>
       <use xlink:href="#DejaVuSans-48"/>
       <use x="63.623047" xlink:href="#DejaVuSans-46"/>
       <use x="95.410156" xlink:href="#DejaVuSans-48"/>
      </g>
     </g>
    </g>
    <g id="ytick_2">
     <g id="line2d_19">
      <path clip-path="url(#pbcd1b024cb)" d="M 57.6 245.22202 
L 338.688 245.22202 
" style="fill:none;stroke:#b0b0b0;stroke-linecap:square;stroke-width:0.8;"/>
     </g>
     <g id="line2d_20">
      <g>
       <use style="stroke:#000000;stroke-width:0.8;" x="57.6" xlink:href="#m34e544a270" y="245.22202"/>
      </g>
     </g>
     <g id="text_7">
      <!-- 0.2 -->
      <g transform="translate(25.155 251.30077)scale(0.16 -0.16)">
       <use xlink:href="#DejaVuSans-48"/>
       <use x="63.623047" xlink:href="#DejaVuSans-46"/>
       <use x="95.410156" xlink:href="#DejaVuSans-50"/>
      </g>
     </g>
    </g>
    <g id="ytick_3">
     <g id="line2d_21">
      <path clip-path="url(#pbcd1b024cb)" d="M 57.6 191.50004 
L 338.688 191.50004 
" style="fill:none;stroke:#b0b0b0;stroke-linecap:square;stroke-width:0.8;"/>
     </g>
     <g id="line2d_22">
      <g>
       <use style="stroke:#000000;stroke-width:0.8;" x="57.6" xlink:href="#m34e544a270" y="191.50004"/>
      </g>
     </g>
     <g id="text_8">
      <!-- 0.4 -->
      <g transform="translate(25.155 197.57879)scale(0.16 -0.16)">
       <use xlink:href="#DejaVuSans-48"/>
       <use x="63.623047" xlink:href="#DejaVuSans-46"/>
       <use x="95.410156" xlink:href="#DejaVuSans-52"/>
      </g>
     </g>
    </g>
    <g id="ytick_4">
     <g id="line2d_23">
      <path clip-path="url(#pbcd1b024cb)" d="M 57.6 137.778059 
L 338.688 137.778059 
" style="fill:none;stroke:#b0b0b0;stroke-linecap:square;stroke-width:0.8;"/>
     </g>
     <g id="line2d_24">
      <g>
       <use style="stroke:#000000;stroke-width:0.8;" x="57.6" xlink:href="#m34e544a270" y="137.778059"/>
      </g>
     </g>
     <g id="text_9">
      <!-- 0.6 -->
      <g transform="translate(25.155 143.856809)scale(0.16 -0.16)">
       <use xlink:href="#DejaVuSans-48"/>
       <use x="63.623047" xlink:href="#DejaVuSans-46"/>
       <use x="95.410156" xlink:href="#DejaVuSans-54"/>
      </g>
     </g>
    </g>
    <g id="ytick_5">
     <g id="line2d_25">
      <path clip-path="url(#pbcd1b024cb)" d="M 57.6 84.056079 
L 338.688 84.056079 
" style="fill:none;stroke:#b0b0b0;stroke-linecap:square;stroke-width:0.8;"/>
     </g>
     <g id="line2d_26">
      <g>
       <use style="stroke:#000000;stroke-width:0.8;" x="57.6" xlink:href="#m34e544a270" y="84.056079"/>
      </g>
     </g>
     <g id="text_10">
      <!-- 0.8 -->
      <g transform="translate(25.155 90.134829)scale(0.16 -0.16)">
       <defs>
        <path d="M 31.78125 34.625 
Q 24.75 34.625 20.71875 30.859375 
Q 16.703125 27.09375 16.703125 20.515625 
Q 16.703125 13.921875 20.71875 10.15625 
Q 24.75 6.390625 31.78125 6.390625 
Q 38.8125 6.390625 42.859375 10.171875 
Q 46.921875 13.96875 46.921875 20.515625 
Q 46.921875 27.09375 42.890625 30.859375 
Q 38.875 34.625 31.78125 34.625 
z
M 21.921875 38.8125 
Q 15.578125 40.375 12.03125 44.71875 
Q 8.5 49.078125 8.5 55.328125 
Q 8.5 64.0625 14.71875 69.140625 
Q 20.953125 74.21875 31.78125 74.21875 
Q 42.671875 74.21875 48.875 69.140625 
Q 55.078125 64.0625 55.078125 55.328125 
Q 55.078125 49.078125 51.53125 44.71875 
Q 48 40.375 41.703125 38.8125 
Q 48.828125 37.15625 52.796875 32.3125 
Q 56.78125 27.484375 56.78125 20.515625 
Q 56.78125 9.90625 50.3125 4.234375 
Q 43.84375 -1.421875 31.78125 -1.421875 
Q 19.734375 -1.421875 13.25 4.234375 
Q 6.78125 9.90625 6.78125 20.515625 
Q 6.78125 27.484375 10.78125 32.3125 
Q 14.796875 37.15625 21.921875 38.8125 
z
M 18.3125 54.390625 
Q 18.3125 48.734375 21.84375 45.5625 
Q 25.390625 42.390625 31.78125 42.390625 
Q 38.140625 42.390625 41.71875 45.5625 
Q 45.3125 48.734375 45.3125 54.390625 
Q 45.3125 60.0625 41.71875 63.234375 
Q 38.140625 66.40625 31.78125 66.40625 
Q 25.390625 66.40625 21.84375 63.234375 
Q 18.3125 60.0625 18.3125 54.390625 
z
" id="DejaVuSans-56"/>
       </defs>
       <use xlink:href="#DejaVuSans-48"/>
       <use x="63.623047" xlink:href="#DejaVuSans-46"/>
       <use x="95.410156" xlink:href="#DejaVuSans-56"/>
      </g>
     </g>
    </g>
    <g id="ytick_6">
     <g id="line2d_27">
      <path clip-path="url(#pbcd1b024cb)" d="M 57.6 30.334099 
L 338.688 30.334099 
" style="fill:none;stroke:#b0b0b0;stroke-linecap:square;stroke-width:0.8;"/>
     </g>
     <g id="line2d_28">
      <g>
       <use style="stroke:#000000;stroke-width:0.8;" x="57.6" xlink:href="#m34e544a270" y="30.334099"/>
      </g>
     </g>
     <g id="text_11">
      <!-- 1.0 -->
      <g transform="translate(25.155 36.412849)scale(0.16 -0.16)">
       <use xlink:href="#DejaVuSans-49"/>
       <use x="63.623047" xlink:href="#DejaVuSans-46"/>
       <use x="95.410156" xlink:href="#DejaVuSans-48"/>
      </g>
     </g>
    </g>
    <g id="text_12">
     <!-- Fraction of function,target pairs -->
     <g transform="translate(17.619531 297.681)rotate(-90)scale(0.17 -0.17)">
      <defs>
       <path d="M 9.8125 72.90625 
L 51.703125 72.90625 
L 51.703125 64.59375 
L 19.671875 64.59375 
L 19.671875 43.109375 
L 48.578125 43.109375 
L 48.578125 34.8125 
L 19.671875 34.8125 
L 19.671875 0 
L 9.8125 0 
z
" id="DejaVuSans-70"/>
       <path d="M 41.109375 46.296875 
Q 39.59375 47.171875 37.8125 47.578125 
Q 36.03125 48 33.890625 48 
Q 26.265625 48 22.1875 43.046875 
Q 18.109375 38.09375 18.109375 28.8125 
L 18.109375 0 
L 9.078125 0 
L 9.078125 54.6875 
L 18.109375 54.6875 
L 18.109375 46.1875 
Q 20.953125 51.171875 25.484375 53.578125 
Q 30.03125 56 36.53125 56 
Q 37.453125 56 38.578125 55.875 
Q 39.703125 55.765625 41.0625 55.515625 
z
" id="DejaVuSans-114"/>
       <path d="M 48.78125 52.59375 
L 48.78125 44.1875 
Q 44.96875 46.296875 41.140625 47.34375 
Q 37.3125 48.390625 33.40625 48.390625 
Q 24.65625 48.390625 19.8125 42.84375 
Q 14.984375 37.3125 14.984375 27.296875 
Q 14.984375 17.28125 19.8125 11.734375 
Q 24.65625 6.203125 33.40625 6.203125 
Q 37.3125 6.203125 41.140625 7.25 
Q 44.96875 8.296875 48.78125 10.40625 
L 48.78125 2.09375 
Q 45.015625 0.34375 40.984375 -0.53125 
Q 36.96875 -1.421875 32.421875 -1.421875 
Q 20.0625 -1.421875 12.78125 6.34375 
Q 5.515625 14.109375 5.515625 27.296875 
Q 5.515625 40.671875 12.859375 48.328125 
Q 20.21875 56 33.015625 56 
Q 37.15625 56 41.109375 55.140625 
Q 45.0625 54.296875 48.78125 52.59375 
z
" id="DejaVuSans-99"/>
       <path d="M 18.3125 70.21875 
L 18.3125 54.6875 
L 36.8125 54.6875 
L 36.8125 47.703125 
L 18.3125 47.703125 
L 18.3125 18.015625 
Q 18.3125 11.328125 20.140625 9.421875 
Q 21.96875 7.515625 27.59375 7.515625 
L 36.8125 7.515625 
L 36.8125 0 
L 27.59375 0 
Q 17.1875 0 13.234375 3.875 
Q 9.28125 7.765625 9.28125 18.015625 
L 9.28125 47.703125 
L 2.6875 47.703125 
L 2.6875 54.6875 
L 9.28125 54.6875 
L 9.28125 70.21875 
z
" id="DejaVuSans-116"/>
       <path d="M 8.5 21.578125 
L 8.5 54.6875 
L 17.484375 54.6875 
L 17.484375 21.921875 
Q 17.484375 14.15625 20.5 10.265625 
Q 23.53125 6.390625 29.59375 6.390625 
Q 36.859375 6.390625 41.078125 11.03125 
Q 45.3125 15.671875 45.3125 23.6875 
L 45.3125 54.6875 
L 54.296875 54.6875 
L 54.296875 0 
L 45.3125 0 
L 45.3125 8.40625 
Q 42.046875 3.421875 37.71875 1 
Q 33.40625 -1.421875 27.6875 -1.421875 
Q 18.265625 -1.421875 13.375 4.4375 
Q 8.5 10.296875 8.5 21.578125 
z
M 31.109375 56 
z
" id="DejaVuSans-117"/>
       <path d="M 11.71875 12.40625 
L 22.015625 12.40625 
L 22.015625 4 
L 14.015625 -11.625 
L 7.71875 -11.625 
L 11.71875 4 
z
" id="DejaVuSans-44"/>
       <path d="M 18.109375 8.203125 
L 18.109375 -20.796875 
L 9.078125 -20.796875 
L 9.078125 54.6875 
L 18.109375 54.6875 
L 18.109375 46.390625 
Q 20.953125 51.265625 25.265625 53.625 
Q 29.59375 56 35.59375 56 
Q 45.5625 56 51.78125 48.09375 
Q 58.015625 40.1875 58.015625 27.296875 
Q 58.015625 14.40625 51.78125 6.484375 
Q 45.5625 -1.421875 35.59375 -1.421875 
Q 29.59375 -1.421875 25.265625 0.953125 
Q 20.953125 3.328125 18.109375 8.203125 
z
M 48.6875 27.296875 
Q 48.6875 37.203125 44.609375 42.84375 
Q 40.53125 48.484375 33.40625 48.484375 
Q 26.265625 48.484375 22.1875 42.84375 
Q 18.109375 37.203125 18.109375 27.296875 
Q 18.109375 17.390625 22.1875 11.75 
Q 26.265625 6.109375 33.40625 6.109375 
Q 40.53125 6.109375 44.609375 11.75 
Q 48.6875 17.390625 48.6875 27.296875 
z
" id="DejaVuSans-112"/>
      </defs>
      <use xlink:href="#DejaVuSans-70"/>
      <use x="50.269531" xlink:href="#DejaVuSans-114"/>
      <use x="91.382812" xlink:href="#DejaVuSans-97"/>
      <use x="152.662109" xlink:href="#DejaVuSans-99"/>
      <use x="207.642578" xlink:href="#DejaVuSans-116"/>
      <use x="246.851562" xlink:href="#DejaVuSans-105"/>
      <use x="274.634766" xlink:href="#DejaVuSans-111"/>
      <use x="335.816406" xlink:href="#DejaVuSans-110"/>
      <use x="399.195312" xlink:href="#DejaVuSans-32"/>
      <use x="430.982422" xlink:href="#DejaVuSans-111"/>
      <use x="492.164062" xlink:href="#DejaVuSans-102"/>
      <use x="527.369141" xlink:href="#DejaVuSans-32"/>
      <use x="559.15625" xlink:href="#DejaVuSans-102"/>
      <use x="594.361328" xlink:href="#DejaVuSans-117"/>
      <use x="657.740234" xlink:href="#DejaVuSans-110"/>
      <use x="721.119141" xlink:href="#DejaVuSans-99"/>
      <use x="776.099609" xlink:href="#DejaVuSans-116"/>
      <use x="815.308594" xlink:href="#DejaVuSans-105"/>
      <use x="843.091797" xlink:href="#DejaVuSans-111"/>
      <use x="904.273438" xlink:href="#DejaVuSans-110"/>
      <use x="967.652344" xlink:href="#DejaVuSans-44"/>
      <use x="999.439453" xlink:href="#DejaVuSans-116"/>
      <use x="1038.648438" xlink:href="#DejaVuSans-97"/>
      <use x="1099.927734" xlink:href="#DejaVuSans-114"/>
      <use x="1139.291016" xlink:href="#DejaVuSans-103"/>
      <use x="1202.767578" xlink:href="#DejaVuSans-101"/>
      <use x="1264.291016" xlink:href="#DejaVuSans-116"/>
      <use x="1303.5" xlink:href="#DejaVuSans-32"/>
      <use x="1335.287109" xlink:href="#DejaVuSans-112"/>
      <use x="1398.763672" xlink:href="#DejaVuSans-97"/>
      <use x="1460.042969" xlink:href="#DejaVuSans-105"/>
      <use x="1487.826172" xlink:href="#DejaVuSans-114"/>
      <use x="1528.939453" xlink:href="#DejaVuSans-115"/>
     </g>
    </g>
   </g>
   <g id="line2d_29">
    <defs>
     <path d="M 0 1.5 
C 0.397805 1.5 0.77937 1.341951 1.06066 1.06066 
C 1.341951 0.77937 1.5 0.397805 1.5 0 
C 1.5 -0.397805 1.341951 -0.77937 1.06066 -1.06066 
C 0.77937 -1.341951 0.397805 -1.5 0 -1.5 
C -0.397805 -1.5 -0.77937 -1.341951 -1.06066 -1.06066 
C -1.341951 -0.77937 -1.5 -0.397805 -1.5 0 
C -1.5 0.397805 -1.341951 0.77937 -1.06066 1.06066 
C -0.77937 1.341951 -0.397805 1.5 0 1.5 
z
" id="m0ef319e1d1" style="stroke:#ff00ff;"/>
    </defs>
    <g>
     <use style="fill:#ff00ff;stroke:#ff00ff;" x="253.404449" xlink:href="#m0ef319e1d1" y="30.334099"/>
     <use style="fill:#ff00ff;stroke:#ff00ff;" x="253.404449" xlink:href="#m0ef319e1d1" y="30.334099"/>
    </g>
   </g>
   <g id="line2d_30">
    <path d="M 89.972502 298.944 
L 89.972502 298.288854 
L 96.86091 298.288854 
L 96.86091 297.633708 
L 99.41757 297.633708 
L 99.41757 296.978562 
L 101.923711 296.978562 
L 101.923711 296.323416 
L 104.355088 296.323416 
L 104.355088 295.66827 
L 104.709797 295.66827 
L 104.709797 295.013123 
L 105.51043 295.013123 
L 105.51043 294.357977 
L 105.732589 294.357977 
L 105.732589 293.702831 
L 106.06061 293.702831 
L 106.06061 292.392539 
L 106.906317 292.392539 
L 106.906317 291.737393 
L 107.111487 291.737393 
L 107.111487 291.082247 
L 107.712901 291.082247 
L 107.712901 290.427101 
L 108.198707 290.427101 
L 108.198707 289.116809 
L 108.764355 289.116809 
L 108.764355 288.461662 
L 109.401893 288.461662 
L 109.401893 287.806516 
L 109.843417 287.806516 
L 109.930396 286.496224 
L 113.524343 286.496224 
L 113.524343 285.841078 
L 113.664983 285.841078 
L 113.664983 285.185932 
L 113.942906 285.185932 
L 113.942906 284.530786 
L 114.148479 284.530786 
L 114.148479 283.87564 
L 114.284194 283.87564 
L 114.284194 283.220494 
L 114.618932 283.220494 
L 114.618932 282.565348 
L 115.958621 282.565348 
L 115.958621 281.910201 
L 116.856209 281.910201 
L 116.856209 280.599909 
L 117.316679 280.599909 
L 117.316679 279.944763 
L 118.202674 279.944763 
L 118.202674 279.289617 
L 118.417314 279.289617 
L 118.523652 277.979325 
L 119.602714 277.979325 
L 119.702083 276.013887 
L 120.571812 276.013887 
L 120.571812 275.35874 
L 121.800118 275.35874 
L 121.800118 274.703594 
L 122.148045 274.703594 
L 122.148045 274.048448 
L 123.152022 274.048448 
L 123.152022 273.393302 
L 123.672636 273.393302 
L 123.672636 272.738156 
L 123.94666 272.738156 
L 123.94666 272.08301 
L 124.178158 272.08301 
L 124.178158 271.427864 
L 125.147256 271.427864 
L 125.147256 270.117572 
L 126.168212 270.117572 
L 126.168212 269.462426 
L 127.165014 269.462426 
L 127.165014 268.807279 
L 127.76807 268.807279 
L 127.76807 268.152133 
L 128.168991 268.152133 
L 128.168991 267.496987 
L 128.560901 267.496987 
L 128.560901 266.841841 
L 131.414481 266.841841 
L 131.414481 264.876403 
L 131.640805 264.876403 
L 131.640805 263.566111 
L 132.565279 263.566111 
L 132.565279 262.910965 
L 132.683351 262.910965 
L 132.683351 262.255818 
L 133.57787 262.255818 
L 133.57787 261.600672 
L 134.386096 261.600672 
L 134.386096 260.945526 
L 134.807865 260.945526 
L 134.807865 260.29038 
L 135.240011 260.29038 
L 135.240011 259.635234 
L 135.50226 259.635234 
L 135.50226 258.980088 
L 135.661706 258.980088 
L 135.661706 257.669796 
L 136.20856 257.669796 
L 136.20856 257.01465 
L 136.513517 257.01465 
L 136.513517 256.359504 
L 137.235245 256.359504 
L 137.289545 255.049211 
L 138.594838 255.049211 
L 138.594838 254.394065 
L 138.745106 254.394065 
L 138.745106 253.738919 
L 139.02546 253.738919 
L 139.02546 253.083773 
L 139.604677 253.083773 
L 139.683624 251.118335 
L 140.256979 251.118335 
L 140.256979 250.463189 
L 140.619053 250.463189 
L 140.619053 249.808043 
L 140.79731 249.808043 
L 140.79731 249.152896 
L 141.350061 249.152896 
L 141.350061 248.49775 
L 142.092866 248.49775 
L 142.133981 247.187458 
L 142.739338 247.187458 
L 142.739338 246.532312 
L 142.988757 246.532312 
L 143.079756 245.22202 
L 143.502469 245.22202 
L 143.502469 244.566874 
L 143.952218 244.566874 
L 143.989178 243.256582 
L 144.306265 243.256582 
L 144.306265 242.601435 
L 144.462672 242.601435 
L 144.462672 241.946289 
L 144.641416 241.946289 
L 144.641416 241.291143 
L 144.818346 241.291143 
L 144.841802 239.980851 
L 145.598655 239.980851 
L 145.598655 239.325705 
L 145.721664 239.325705 
L 145.810583 238.015413 
L 146.927079 238.015413 
L 146.978997 236.705121 
L 147.226074 236.705121 
L 147.307662 235.394828 
L 147.419225 235.394828 
L 147.419225 234.739682 
L 148.344551 234.739682 
L 148.354135 233.42939 
L 148.53525 233.42939 
L 148.53525 232.774244 
L 148.723886 232.774244 
L 148.723886 232.119098 
L 149.788308 232.119098 
L 149.788308 231.463952 
L 150.241302 231.463952 
L 150.241302 230.808806 
L 150.791483 230.808806 
L 150.791483 230.15366 
L 151.154299 230.15366 
L 151.162458 228.843367 
L 151.63719 228.843367 
L 151.63719 228.188221 
L 151.944047 228.188221 
L 151.944047 226.877929 
L 152.122515 226.877929 
L 152.145659 225.567637 
L 152.443774 225.567637 
L 152.542024 224.257345 
L 152.639723 224.257345 
L 152.639723 223.602199 
L 153.120174 223.602199 
L 153.120174 222.947052 
L 153.250915 222.947052 
L 153.250915 222.291906 
L 153.473807 222.291906 
L 153.473807 221.63676 
L 154.187714 221.63676 
L 154.187714 220.981614 
L 154.580996 220.981614 
L 154.580996 219.671322 
L 154.747816 219.671322 
L 154.747816 219.016176 
L 154.93935 219.016176 
L 154.93935 218.36103 
L 155.508002 218.36103 
L 155.508002 217.705884 
L 155.816782 217.705884 
L 155.816782 217.050738 
L 156.064855 217.050738 
L 156.064855 216.395591 
L 156.236431 216.395591 
L 156.236431 215.740445 
L 156.705677 215.740445 
L 156.782672 214.430153 
L 157.185742 214.430153 
L 157.185742 213.775007 
L 157.460743 213.775007 
L 157.460743 213.119861 
L 158.20082 213.119861 
L 158.287772 211.809569 
L 158.636623 211.809569 
L 158.710855 210.499277 
L 158.9003 210.499277 
L 158.962994 208.533838 
L 159.827761 208.533838 
L 159.827761 207.878692 
L 160.000599 207.878692 
L 160.000599 207.223546 
L 160.379729 207.223546 
L 160.437332 205.258108 
L 160.632719 205.258108 
L 160.632719 204.602962 
L 160.764907 204.602962 
L 160.764907 203.947816 
L 160.924085 203.947816 
L 160.924085 203.292669 
L 161.292989 203.292669 
L 161.292989 202.637523 
L 161.600536 202.637523 
L 161.600536 201.982377 
L 162.234442 201.982377 
L 162.234442 201.327231 
L 162.695193 201.327231 
L 162.695193 200.672085 
L 163.465273 200.672085 
L 163.465273 200.016939 
L 163.847782 200.016939 
L 163.851722 198.706647 
L 164.558269 198.706647 
L 164.558269 198.051501 
L 165.160709 198.051501 
L 165.160709 197.396355 
L 165.280918 197.396355 
L 165.280918 196.741208 
L 165.407513 196.741208 
L 165.500963 195.430916 
L 165.693467 195.430916 
L 165.693467 194.77577 
L 165.9084 194.77577 
L 165.974809 193.465478 
L 166.705822 193.465478 
L 166.705822 192.810332 
L 167.268694 192.810332 
L 167.268694 192.155186 
L 167.38813 192.155186 
L 167.38813 191.50004 
L 167.964008 191.50004 
L 167.964008 190.189747 
L 168.125111 190.189747 
L 168.125111 189.534601 
L 168.364009 189.534601 
L 168.439892 188.224309 
L 168.832206 188.224309 
L 168.909031 186.914017 
L 169.239048 186.914017 
L 169.239048 186.258871 
L 169.548731 186.258871 
L 169.548731 185.603725 
L 169.740933 185.603725 
L 169.740933 184.948579 
L 169.992103 184.948579 
L 169.992103 184.293433 
L 170.588585 184.293433 
L 170.588585 183.638286 
L 170.729924 183.638286 
L 170.751159 182.327994 
L 171.338045 182.327994 
L 171.338045 181.672848 
L 172.753848 181.672848 
L 172.808158 180.362556 
L 173.209025 180.362556 
L 173.209025 179.70741 
L 173.766803 179.70741 
L 173.766803 179.052264 
L 173.911252 179.052264 
L 173.911252 178.397118 
L 174.372075 178.397118 
L 174.372075 177.741972 
L 174.50306 177.741972 
L 174.50306 177.086825 
L 174.760009 177.086825 
L 174.760009 176.431679 
L 175.315989 176.431679 
L 175.315989 175.776533 
L 175.657689 175.776533 
L 175.657689 175.121387 
L 176.448384 175.121387 
L 176.448384 174.466241 
L 176.964946 174.466241 
L 176.964946 173.811095 
L 177.687252 173.811095 
L 177.687252 173.155949 
L 178.040107 173.155949 
L 178.040107 172.500803 
L 178.312182 172.500803 
L 178.312182 171.845657 
L 178.720057 171.845657 
L 178.720057 171.190511 
L 179.041275 171.190511 
L 179.041275 170.535364 
L 179.363159 170.535364 
L 179.363159 169.880218 
L 180.57023 169.880218 
L 180.576272 168.569926 
L 180.997019 168.569926 
L 180.997019 167.91478 
L 181.741562 167.91478 
L 181.783887 166.604488 
L 182.431193 166.604488 
L 182.501655 165.294196 
L 182.980496 165.294196 
L 182.980496 164.63905 
L 183.461906 164.63905 
L 183.461906 163.983903 
L 184.365956 163.983903 
L 184.368386 162.673611 
L 184.695781 162.673611 
L 184.695781 162.018465 
L 185.359112 162.018465 
L 185.359112 161.363319 
L 185.572464 161.363319 
L 185.608713 160.053027 
L 186.005878 160.053027 
L 186.005878 159.397881 
L 186.617769 159.397881 
L 186.617769 158.742735 
L 186.930016 158.742735 
L 186.930016 158.087589 
L 187.291314 158.087589 
L 187.291314 157.432442 
L 187.902147 157.432442 
L 187.902147 156.777296 
L 188.189479 156.777296 
L 188.219708 155.467004 
L 188.947662 155.467004 
L 188.947662 154.811858 
L 189.091901 154.811858 
L 189.091901 154.156712 
L 189.892474 154.156712 
L 190.001009 152.191274 
L 190.442247 152.191274 
L 190.442247 151.536128 
L 190.68499 151.536128 
L 190.68499 150.880981 
L 191.059863 150.880981 
L 191.059863 150.225835 
L 191.873396 150.225835 
L 191.873396 149.570689 
L 192.176518 149.570689 
L 192.176518 148.915543 
L 192.317271 148.915543 
L 192.317271 148.260397 
L 192.547589 148.260397 
L 192.547589 147.605251 
L 192.780157 147.605251 
L 192.780157 146.950105 
L 194.188156 146.950105 
L 194.248248 145.639813 
L 194.615993 145.639813 
L 194.615993 144.984667 
L 195.215874 144.984667 
L 195.215874 144.32952 
L 195.684399 144.32952 
L 195.684399 143.674374 
L 196.120858 143.674374 
L 196.120858 143.019228 
L 197.101619 143.019228 
L 197.101619 142.364082 
L 197.47864 142.364082 
L 197.497536 141.05379 
L 197.849926 141.05379 
L 197.849926 140.398644 
L 198.579277 140.398644 
L 198.579277 139.743498 
L 198.977569 139.743498 
L 198.977569 139.088352 
L 199.587669 139.088352 
L 199.587669 138.433206 
L 199.722691 138.433206 
L 199.722691 137.778059 
L 200.727859 137.778059 
L 200.768232 135.812621 
L 201.696687 135.812621 
L 201.696687 135.157475 
L 201.931267 135.157475 
L 201.931267 134.502329 
L 202.194239 134.502329 
L 202.194239 133.847183 
L 203.137914 133.847183 
L 203.235382 132.536891 
L 203.308948 132.536891 
L 203.355229 131.226598 
L 203.593287 131.226598 
L 203.593287 130.571452 
L 204.167174 130.571452 
L 204.167174 129.916306 
L 204.281194 129.916306 
L 204.281194 129.26116 
L 204.489399 129.26116 
L 204.538771 127.950868 
L 204.729582 127.950868 
L 204.729582 127.295722 
L 205.138319 127.295722 
L 205.138319 126.640576 
L 205.348274 126.640576 
L 205.348274 125.98543 
L 206.292051 125.98543 
L 206.292051 125.330284 
L 206.524148 125.330284 
L 206.524148 124.675137 
L 206.890665 124.675137 
L 206.890665 124.019991 
L 207.074049 124.019991 
L 207.074049 123.364845 
L 207.292443 123.364845 
L 207.320488 122.054553 
L 208.059574 122.054553 
L 208.059574 121.399407 
L 208.31566 121.399407 
L 208.31566 120.744261 
L 208.509701 120.744261 
L 208.524912 119.433969 
L 209.335068 119.433969 
L 209.335068 118.778823 
L 209.587528 118.778823 
L 209.587528 118.123676 
L 209.831871 118.123676 
L 209.831871 117.46853 
L 210.559626 117.46853 
L 210.559626 116.813384 
L 210.715071 116.813384 
L 210.816693 115.503092 
L 210.868878 115.503092 
L 210.949245 114.1928 
L 211.130104 114.1928 
L 211.130104 113.537654 
L 211.468832 113.537654 
L 211.468832 112.882508 
L 211.667787 112.882508 
L 211.728628 111.572215 
L 211.888336 111.572215 
L 211.888336 110.917069 
L 212.582711 110.917069 
L 212.582711 110.261923 
L 212.896028 110.261923 
L 212.896028 109.606777 
L 213.203583 109.606777 
L 213.266256 108.296485 
L 213.512892 108.296485 
L 213.512892 107.641339 
L 214.054282 107.641339 
L 214.162245 106.331047 
L 214.283539 106.331047 
L 214.300142 105.020754 
L 214.908269 105.020754 
L 214.908269 104.365608 
L 215.583358 104.365608 
L 215.583358 103.710462 
L 215.943971 103.710462 
L 215.943971 103.055316 
L 216.483232 103.055316 
L 216.503836 101.089878 
L 216.745786 101.089878 
L 216.753376 99.12444 
L 217.037888 99.12444 
L 217.037888 98.469293 
L 217.29449 98.469293 
L 217.29449 97.814147 
L 217.443194 97.814147 
L 217.443194 97.159001 
L 217.57273 97.159001 
L 217.652191 95.848709 
L 217.689089 95.848709 
L 217.741333 94.538417 
L 217.801105 94.538417 
L 217.801105 93.883271 
L 218.022647 93.883271 
L 218.022647 93.228125 
L 218.51569 93.228125 
L 218.51569 92.572979 
L 219.074905 92.572979 
L 219.099299 91.262686 
L 219.317166 91.262686 
L 219.344004 89.297248 
L 219.864503 89.297248 
L 219.950157 87.986956 
L 220.028476 87.986956 
L 220.028476 87.33181 
L 220.759465 87.33181 
L 220.761425 86.021518 
L 220.927521 86.021518 
L 220.927521 85.366371 
L 221.045984 85.366371 
L 221.045984 84.711225 
L 221.172191 84.711225 
L 221.172191 84.056079 
L 221.373637 84.056079 
L 221.373637 83.400933 
L 221.613604 83.400933 
L 221.613604 82.745787 
L 221.836854 82.745787 
L 221.851306 81.435495 
L 222.003313 81.435495 
L 222.076726 80.125203 
L 222.187241 80.125203 
L 222.187241 79.470057 
L 222.40194 79.470057 
L 222.40194 78.81491 
L 222.642743 78.81491 
L 222.681273 77.504618 
L 222.842977 77.504618 
L 222.892678 76.194326 
L 223.056541 76.194326 
L 223.056541 75.53918 
L 223.311991 75.53918 
L 223.330737 73.573742 
L 223.459972 73.573742 
L 223.459972 72.918596 
L 223.751204 72.918596 
L 223.756791 71.608303 
L 224.295235 71.608303 
L 224.295235 70.953157 
L 224.56835 70.953157 
L 224.628237 69.642865 
L 224.725313 69.642865 
L 224.771972 68.332573 
L 224.981531 68.332573 
L 224.981531 67.677427 
L 225.438497 67.677427 
L 225.438497 67.022281 
L 225.765612 67.022281 
L 225.765612 66.367135 
L 225.947738 66.367135 
L 226.037423 65.056842 
L 226.15666 65.056842 
L 226.15666 64.401696 
L 226.337286 64.401696 
L 226.438174 62.436258 
L 226.545733 62.436258 
L 226.545733 61.781112 
L 226.725928 61.781112 
L 226.725928 61.125966 
L 226.884342 61.125966 
L 226.89739 59.815674 
L 227.169271 59.815674 
L 227.201918 58.505381 
L 227.519852 58.505381 
L 227.535194 57.195089 
L 227.65318 57.195089 
L 227.65318 56.539943 
L 227.897802 56.539943 
L 227.897802 55.884797 
L 228.010086 55.884797 
L 228.010086 55.229651 
L 228.136374 55.229651 
L 228.136374 54.574505 
L 228.250375 54.574505 
L 228.311401 53.264213 
L 228.461243 53.264213 
L 228.461243 52.609066 
L 228.690749 52.609066 
L 228.773887 51.298774 
L 228.961229 51.298774 
L 228.98834 49.988482 
L 229.430231 49.988482 
L 229.484985 48.67819 
L 229.696431 48.67819 
L 229.77492 47.367898 
L 229.826005 47.367898 
L 229.826005 46.712752 
L 229.944209 46.712752 
L 229.944209 46.057605 
L 230.122714 46.057605 
L 230.18272 44.092167 
L 230.534522 44.092167 
L 230.556373 42.781875 
L 230.760049 42.781875 
L 230.760049 42.126729 
L 230.963726 42.126729 
L 231.007177 40.816437 
L 231.330806 40.816437 
L 231.330806 40.161291 
L 231.773899 40.161291 
L 231.773899 39.506144 
L 231.910461 39.506144 
L 231.910461 38.850998 
L 232.040751 38.850998 
L 232.040751 38.195852 
L 233.034912 38.195852 
L 233.119803 36.88556 
L 233.165536 36.88556 
L 233.165536 36.230414 
L 233.577251 36.230414 
L 233.577251 35.575268 
L 233.930582 35.575268 
L 233.930582 34.920122 
L 234.278425 34.920122 
L 234.278425 34.264976 
L 235.011192 34.264976 
L 235.058275 32.954683 
L 236.138254 32.954683 
L 236.138254 32.299537 
L 247.813793 32.299537 
L 247.813793 31.644391 
L 253.089673 31.644391 
L 253.089673 30.989245 
L 253.404449 30.989245 
L 253.404449 30.334099 
L 338.688 30.334099 
L 338.688 30.334099 
" style="fill:none;stroke:#ff00ff;stroke-linecap:square;stroke-width:1.5;"/>
   </g>
   <g id="line2d_31">
    <defs>
     <path d="M -0 8.485281 
L 5.091169 0 
L 0 -8.485281 
L -5.091169 -0 
z
" id="m14b36f0a95" style="stroke:#ff00ff;stroke-linejoin:miter;stroke-width:1.5;"/>
    </defs>
    <g>
     <use style="fill-opacity:0;stroke:#ff00ff;stroke-linejoin:miter;stroke-width:1.5;" x="165.693467" xlink:href="#m14b36f0a95" y="195.430916"/>
     <use style="fill-opacity:0;stroke:#ff00ff;stroke-linejoin:miter;stroke-width:1.5;" x="208.059574" xlink:href="#m14b36f0a95" y="121.399407"/>
     <use style="fill-opacity:0;stroke:#ff00ff;stroke-linejoin:miter;stroke-width:1.5;" x="247.813793" xlink:href="#m14b36f0a95" y="32.299537"/>
     <use style="fill-opacity:0;stroke:#ff00ff;stroke-linejoin:miter;stroke-width:1.5;" x="253.404449" xlink:href="#m14b36f0a95" y="30.334099"/>
     <use style="fill-opacity:0;stroke:#ff00ff;stroke-linejoin:miter;stroke-width:1.5;" x="338.688" xlink:href="#m14b36f0a95" y="30.334099"/>
    </g>
   </g>
   <g id="line2d_32">
    <path style="fill:none;stroke:#ff00ff;stroke-linecap:square;stroke-width:1.5;"/>
    <g/>
   </g>
   <g id="line2d_33">
    <path clip-path="url(#pbcd1b024cb)" d="M 248.667914 31.644391 
" style="fill:none;stroke:#ff00ff;stroke-linecap:square;stroke-width:1.5;"/>
    <defs>
     <path d="M -12 12 
L 12 -12 
M -12 -12 
L 12 12 
" id="m72badfd57f" style="stroke:#ff00ff;"/>
    </defs>
    <g clip-path="url(#pbcd1b024cb)">
     <use style="fill:#ff00ff;stroke:#ff00ff;" x="248.667914" xlink:href="#m72badfd57f" y="31.644391"/>
    </g>
   </g>
   <g id="line2d_34">
    <path d="M 338.688 30.334099 
L 369.60768 293.571802 
" style="fill:none;stroke:#ff00ff;stroke-linecap:square;stroke-width:1.5;"/>
    <g>
     <use style="fill-opacity:0;stroke:#ff00ff;stroke-linejoin:miter;stroke-width:1.5;" x="338.688" xlink:href="#m14b36f0a95" y="30.334099"/>
     <use style="fill-opacity:0;stroke:#ff00ff;stroke-linejoin:miter;stroke-width:1.5;" x="369.60768" xlink:href="#m14b36f0a95" y="293.571802"/>
    </g>
   </g>
   <g id="line2d_35">
    <path d="M 338.688 298.944 
L 338.688 30.334099 
" style="fill:none;stroke:#000000;stroke-linecap:square;stroke-width:1.5;"/>
   </g>
   <g id="patch_3">
    <path d="M 57.6 298.944 
L 57.6 27.648 
" style="fill:none;stroke:#000000;stroke-linecap:square;stroke-linejoin:miter;stroke-width:0.8;"/>
   </g>
   <g id="patch_4">
    <path d="M 338.688 298.944 
L 338.688 27.648 
" style="fill:none;stroke:#000000;stroke-linecap:square;stroke-linejoin:miter;stroke-width:0.8;"/>
   </g>
   <g id="patch_5">
    <path d="M 57.6 298.944 
L 338.688 298.944 
" style="fill:none;stroke:#000000;stroke-linecap:square;stroke-linejoin:miter;stroke-width:0.8;"/>
   </g>
   <g id="patch_6">
    <path d="M 57.6 27.648 
L 338.688 27.648 
" style="fill:none;stroke:#000000;stroke-linecap:square;stroke-linejoin:miter;stroke-width:0.8;"/>
   </g>
   <g id="text_13">
    <!-- al cmaes  -->
    <g transform="translate(375.22944 298.262739)scale(0.17 -0.17)">
     <use xlink:href="#DejaVuSans-97"/>
     <use x="61.279297" xlink:href="#DejaVuSans-108"/>
     <use x="89.0625" xlink:href="#DejaVuSans-32"/>
     <use x="120.849609" xlink:href="#DejaVuSans-99"/>
     <use x="175.830078" xlink:href="#DejaVuSans-109"/>
     <use x="273.242188" xlink:href="#DejaVuSans-97"/>
     <use x="334.521484" xlink:href="#DejaVuSans-101"/>
     <use x="396.044922" xlink:href="#DejaVuSans-115"/>
     <use x="448.144531" xlink:href="#DejaVuSans-32"/>
    </g>
   </g>
   <g id="text_14">
    <!-- bbob-constrained f20, 20-D -->
    <g transform="translate(60.41088 38.111366)scale(0.102 -0.102)">
     <defs>
      <path d="M 48.6875 27.296875 
Q 48.6875 37.203125 44.609375 42.84375 
Q 40.53125 48.484375 33.40625 48.484375 
Q 26.265625 48.484375 22.1875 42.84375 
Q 18.109375 37.203125 18.109375 27.296875 
Q 18.109375 17.390625 22.1875 11.75 
Q 26.265625 6.109375 33.40625 6.109375 
Q 40.53125 6.109375 44.609375 11.75 
Q 48.6875 17.390625 48.6875 27.296875 
z
M 18.109375 46.390625 
Q 20.953125 51.265625 25.265625 53.625 
Q 29.59375 56 35.59375 56 
Q 45.5625 56 51.78125 48.09375 
Q 58.015625 40.1875 58.015625 27.296875 
Q 58.015625 14.40625 51.78125 6.484375 
Q 45.5625 -1.421875 35.59375 -1.421875 
Q 29.59375 -1.421875 25.265625 0.953125 
Q 20.953125 3.328125 18.109375 8.203125 
L 18.109375 0 
L 9.078125 0 
L 9.078125 75.984375 
L 18.109375 75.984375 
z
" id="DejaVuSans-98"/>
      <path d="M 19.671875 64.796875 
L 19.671875 8.109375 
L 31.59375 8.109375 
Q 46.6875 8.109375 53.6875 14.9375 
Q 60.6875 21.78125 60.6875 36.53125 
Q 60.6875 51.171875 53.6875 57.984375 
Q 46.6875 64.796875 31.59375 64.796875 
z
M 9.8125 72.90625 
L 30.078125 72.90625 
Q 51.265625 72.90625 61.171875 64.09375 
Q 71.09375 55.28125 71.09375 36.53125 
Q 71.09375 17.671875 61.125 8.828125 
Q 51.171875 0 30.078125 0 
L 9.8125 0 
z
" id="DejaVuSans-68"/>
     </defs>
     <use xlink:href="#DejaVuSans-98"/>
     <use x="63.476562" xlink:href="#DejaVuSans-98"/>
     <use x="126.953125" xlink:href="#DejaVuSans-111"/>
     <use x="188.134766" xlink:href="#DejaVuSans-98"/>
     <use x="251.611328" xlink:href="#DejaVuSans-45"/>
     <use x="287.695312" xlink:href="#DejaVuSans-99"/>
     <use x="342.675781" xlink:href="#DejaVuSans-111"/>
     <use x="403.857422" xlink:href="#DejaVuSans-110"/>
     <use x="467.236328" xlink:href="#DejaVuSans-115"/>
     <use x="519.335938" xlink:href="#DejaVuSans-116"/>
     <use x="558.544922" xlink:href="#DejaVuSans-114"/>
     <use x="599.658203" xlink:href="#DejaVuSans-97"/>
     <use x="660.9375" xlink:href="#DejaVuSans-105"/>
     <use x="688.720703" xlink:href="#DejaVuSans-110"/>
     <use x="752.099609" xlink:href="#DejaVuSans-101"/>
     <use x="813.623047" xlink:href="#DejaVuSans-100"/>
     <use x="877.099609" xlink:href="#DejaVuSans-32"/>
     <use x="908.886719" xlink:href="#DejaVuSans-102"/>
     <use x="944.091797" xlink:href="#DejaVuSans-50"/>
     <use x="1007.714844" xlink:href="#DejaVuSans-48"/>
     <use x="1071.337891" xlink:href="#DejaVuSans-44"/>
     <use x="1103.125" xlink:href="#DejaVuSans-32"/>
     <use x="1134.912109" xlink:href="#DejaVuSans-50"/>
     <use x="1198.535156" xlink:href="#DejaVuSans-48"/>
     <use x="1262.158203" xlink:href="#DejaVuSans-45"/>
     <use x="1298.242188" xlink:href="#DejaVuSans-68"/>
    </g>
    <!-- 41 targets: 100..1e-06 -->
    <g transform="translate(60.41088 49.533135)scale(0.102 -0.102)">
     <defs>
      <path d="M 11.71875 12.40625 
L 22.015625 12.40625 
L 22.015625 0 
L 11.71875 0 
z
M 11.71875 51.703125 
L 22.015625 51.703125 
L 22.015625 39.3125 
L 11.71875 39.3125 
z
" id="DejaVuSans-58"/>
     </defs>
     <use xlink:href="#DejaVuSans-52"/>
     <use x="63.623047" xlink:href="#DejaVuSans-49"/>
     <use x="127.246094" xlink:href="#DejaVuSans-32"/>
     <use x="159.033203" xlink:href="#DejaVuSans-116"/>
     <use x="198.242188" xlink:href="#DejaVuSans-97"/>
     <use x="259.521484" xlink:href="#DejaVuSans-114"/>
     <use x="298.884766" xlink:href="#DejaVuSans-103"/>
     <use x="362.361328" xlink:href="#DejaVuSans-101"/>
     <use x="423.884766" xlink:href="#DejaVuSans-116"/>
     <use x="463.09375" xlink:href="#DejaVuSans-115"/>
     <use x="515.193359" xlink:href="#DejaVuSans-58"/>
     <use x="548.884766" xlink:href="#DejaVuSans-32"/>
     <use x="580.671875" xlink:href="#DejaVuSans-49"/>
     <use x="644.294922" xlink:href="#DejaVuSans-48"/>
     <use x="707.917969" xlink:href="#DejaVuSans-48"/>
     <use x="771.541016" xlink:href="#DejaVuSans-46"/>
     <use x="803.328125" xlink:href="#DejaVuSans-46"/>
     <use x="835.115234" xlink:href="#DejaVuSans-49"/>
     <use x="898.738281" xlink:href="#DejaVuSans-101"/>
     <use x="960.261719" xlink:href="#DejaVuSans-45"/>
     <use x="996.345703" xlink:href="#DejaVuSans-48"/>
     <use x="1059.96875" xlink:href="#DejaVuSans-54"/>
    </g>
    <!-- 15 instances -->
    <g transform="translate(60.41088 60.954904)scale(0.102 -0.102)">
     <defs>
      <path d="M 10.796875 72.90625 
L 49.515625 72.90625 
L 49.515625 64.59375 
L 19.828125 64.59375 
L 19.828125 46.734375 
Q 21.96875 47.46875 24.109375 47.828125 
Q 26.265625 48.1875 28.421875 48.1875 
Q 40.625 48.1875 47.75 41.5 
Q 54.890625 34.8125 54.890625 23.390625 
Q 54.890625 11.625 47.5625 5.09375 
Q 40.234375 -1.421875 26.90625 -1.421875 
Q 22.3125 -1.421875 17.546875 -0.640625 
Q 12.796875 0.140625 7.71875 1.703125 
L 7.71875 11.625 
Q 12.109375 9.234375 16.796875 8.0625 
Q 21.484375 6.890625 26.703125 6.890625 
Q 35.15625 6.890625 40.078125 11.328125 
Q 45.015625 15.765625 45.015625 23.390625 
Q 45.015625 31 40.078125 35.4375 
Q 35.15625 39.890625 26.703125 39.890625 
Q 22.75 39.890625 18.8125 39.015625 
Q 14.890625 38.140625 10.796875 36.28125 
z
" id="DejaVuSans-53"/>
     </defs>
     <use xlink:href="#DejaVuSans-49"/>
     <use x="63.623047" xlink:href="#DejaVuSans-53"/>
     <use x="127.246094" xlink:href="#DejaVuSans-32"/>
     <use x="159.033203" xlink:href="#DejaVuSans-105"/>
     <use x="186.816406" xlink:href="#DejaVuSans-110"/>
     <use x="250.195312" xlink:href="#DejaVuSans-115"/>
     <use x="302.294922" xlink:href="#DejaVuSans-116"/>
     <use x="341.503906" xlink:href="#DejaVuSans-97"/>
     <use x="402.783203" xlink:href="#DejaVuSans-110"/>
     <use x="466.162109" xlink:href="#DejaVuSans-99"/>
     <use x="521.142578" xlink:href="#DejaVuSans-101"/>
     <use x="582.666016" xlink:href="#DejaVuSans-115"/>
    </g>
   </g>
   <g id="text_15">
    <!-- v5z33 -->
    <g style="fill:#808080;" transform="translate(183.016656 294.151352)scale(0.1 -0.1)">
     <defs>
      <path d="M 5.515625 54.6875 
L 48.1875 54.6875 
L 48.1875 46.484375 
L 14.40625 7.171875 
L 48.1875 7.171875 
L 48.1875 0 
L 4.296875 0 
L 4.296875 8.203125 
L 38.09375 47.515625 
L 5.515625 47.515625 
z
" id="DejaVuSans-122"/>
      <path d="M 40.578125 39.3125 
Q 47.65625 37.796875 51.625 33 
Q 55.609375 28.21875 55.609375 21.1875 
Q 55.609375 10.40625 48.1875 4.484375 
Q 40.765625 -1.421875 27.09375 -1.421875 
Q 22.515625 -1.421875 17.65625 -0.515625 
Q 12.796875 0.390625 7.625 2.203125 
L 7.625 11.71875 
Q 11.71875 9.328125 16.59375 8.109375 
Q 21.484375 6.890625 26.8125 6.890625 
Q 36.078125 6.890625 40.9375 10.546875 
Q 45.796875 14.203125 45.796875 21.1875 
Q 45.796875 27.640625 41.28125 31.265625 
Q 36.765625 34.90625 28.71875 34.90625 
L 20.21875 34.90625 
L 20.21875 43.015625 
L 29.109375 43.015625 
Q 36.375 43.015625 40.234375 45.921875 
Q 44.09375 48.828125 44.09375 54.296875 
Q 44.09375 59.90625 40.109375 62.90625 
Q 36.140625 65.921875 28.71875 65.921875 
Q 24.65625 65.921875 20.015625 65.03125 
Q 15.375 64.15625 9.8125 62.3125 
L 9.8125 71.09375 
Q 15.4375 72.65625 20.34375 73.4375 
Q 25.25 74.21875 29.59375 74.21875 
Q 40.828125 74.21875 47.359375 69.109375 
Q 53.90625 64.015625 53.90625 55.328125 
Q 53.90625 49.265625 50.4375 45.09375 
Q 46.96875 40.921875 40.578125 39.3125 
z
" id="DejaVuSans-51"/>
     </defs>
     <use xlink:href="#DejaVuSans-118"/>
     <use x="59.179688" xlink:href="#DejaVuSans-53"/>
     <use x="122.802734" xlink:href="#DejaVuSans-122"/>
     <use x="175.292969" xlink:href="#DejaVuSans-51"/>
     <use x="238.916016" xlink:href="#DejaVuSans-51"/>
    </g>
   </g>
   <g id="text_16">
    <!-- 20 Rotated Ellipsoid, 2 constraints -->
    <g transform="translate(27.053375 21.648)scale(0.2 -0.2)">
     <defs>
      <path d="M 44.390625 34.1875 
Q 47.5625 33.109375 50.5625 29.59375 
Q 53.5625 26.078125 56.59375 19.921875 
L 66.609375 0 
L 56 0 
L 46.6875 18.703125 
Q 43.0625 26.03125 39.671875 28.421875 
Q 36.28125 30.8125 30.421875 30.8125 
L 19.671875 30.8125 
L 19.671875 0 
L 9.8125 0 
L 9.8125 72.90625 
L 32.078125 72.90625 
Q 44.578125 72.90625 50.734375 67.671875 
Q 56.890625 62.453125 56.890625 51.90625 
Q 56.890625 45.015625 53.6875 40.46875 
Q 50.484375 35.9375 44.390625 34.1875 
z
M 19.671875 64.796875 
L 19.671875 38.921875 
L 32.078125 38.921875 
Q 39.203125 38.921875 42.84375 42.21875 
Q 46.484375 45.515625 46.484375 51.90625 
Q 46.484375 58.296875 42.84375 61.546875 
Q 39.203125 64.796875 32.078125 64.796875 
z
" id="DejaVuSans-82"/>
      <path d="M 9.8125 72.90625 
L 55.90625 72.90625 
L 55.90625 64.59375 
L 19.671875 64.59375 
L 19.671875 43.015625 
L 54.390625 43.015625 
L 54.390625 34.71875 
L 19.671875 34.71875 
L 19.671875 8.296875 
L 56.78125 8.296875 
L 56.78125 0 
L 9.8125 0 
z
" id="DejaVuSans-69"/>
     </defs>
     <use xlink:href="#DejaVuSans-50"/>
     <use x="63.623047" xlink:href="#DejaVuSans-48"/>
     <use x="127.246094" xlink:href="#DejaVuSans-32"/>
     <use x="159.033203" xlink:href="#DejaVuSans-82"/>
     <use x="224.015625" xlink:href="#DejaVuSans-111"/>
     <use x="285.197266" xlink:href="#DejaVuSans-116"/>
     <use x="324.40625" xlink:href="#DejaVuSans-97"/>
     <use x="385.685547" xlink:href="#DejaVuSans-116"/>
     <use x="424.894531" xlink:href="#DejaVuSans-101"/>
     <use x="486.417969" xlink:href="#DejaVuSans-100"/>
     <use x="549.894531" xlink:href="#DejaVuSans-32"/>
     <use x="581.681641" xlink:href="#DejaVuSans-69"/>
     <use x="644.865234" xlink:href="#DejaVuSans-108"/>
     <use x="672.648438" xlink:href="#DejaVuSans-108"/>
     <use x="700.431641" xlink:href="#DejaVuSans-105"/>
     <use x="728.214844" xlink:href="#DejaVuSans-112"/>
     <use x="791.691406" xlink:href="#DejaVuSans-115"/>
     <use x="843.791016" xlink:href="#DejaVuSans-111"/>
     <use x="904.972656" xlink:href="#DejaVuSans-105"/>
     <use x="932.755859" xlink:href="#DejaVuSans-100"/>
     <use x="996.232422" xlink:href="#DejaVuSans-44"/>
     <use x="1028.019531" xlink:href="#DejaVuSans-32"/>
     <use x="1059.806641" xlink:href="#DejaVuSans-50"/>
     <use x="1123.429688" xlink:href="#DejaVuSans-32"/>
     <use x="1155.216797" xlink:href="#DejaVuSans-99"/>
     <use x="1210.197266" xlink:href="#DejaVuSans-111"/>
     <use x="1271.378906" xlink:href="#DejaVuSans-110"/>
     <use x="1334.757812" xlink:href="#DejaVuSans-115"/>
     <use x="1386.857422" xlink:href="#DejaVuSans-116"/>
     <use x="1426.066406" xlink:href="#DejaVuSans-114"/>
     <use x="1467.179688" xlink:href="#DejaVuSans-97"/>
     <use x="1528.458984" xlink:href="#DejaVuSans-105"/>
     <use x="1556.242188" xlink:href="#DejaVuSans-110"/>
     <use x="1619.621094" xlink:href="#DejaVuSans-116"/>
     <use x="1658.830078" xlink:href="#DejaVuSans-115"/>
    </g>
   </g>
  </g>
 </g>
 <defs>
  <clipPath id="pbcd1b024cb">
   <rect height="271.296" width="281.088" x="57.6" y="27.648"/>
  </clipPath>
 </defs>
</svg>
