<?xml version="1.0" encoding="utf-8" standalone="no"?>
<!DOCTYPE svg PUBLIC "-//W3C//DTD SVG 1.1//EN"
  "http://www.w3.org/Graphics/SVG/1.1/DTD/svg11.dtd">
<!-- Created with matplotlib (https://matplotlib.org/) -->
<svg height="345.6pt" version="1.1" viewBox="0 0 460.8 345.6" width="460.8pt" xmlns="http://www.w3.org/2000/svg" xmlns:xlink="http://www.w3.org/1999/xlink">
 <metadata>
  <rdf:RDF xmlns:cc="http://creativecommons.org/ns#" xmlns:dc="http://purl.org/dc/elements/1.1/" xmlns:rdf="http://www.w3.org/1999/02/22-rdf-syntax-ns#">
   <cc:Work>
    <dc:type rdf:resource="http://purl.org/dc/dcmitype/StillImage"/>
    <dc:date>2021-03-02T18:26:01.471575</dc:date>
    <dc:format>image/svg+xml</dc:format>
    <dc:creator>
     <cc:Agent>
      <dc:title>Matplotlib v3.3.3, https://matplotlib.org/</dc:title>
     </cc:Agent>
    </dc:creator>
   </cc:Work>
  </rdf:RDF>
 </metadata>
 <defs>
  <style type="text/css">*{stroke-linecap:butt;stroke-linejoin:round;}</style>
 </defs>
 <g id="figure_1">
  <g id="patch_1">
   <path d="M 0 345.6 
L 460.8 345.6 
L 460.8 0 
L 0 0 
z
" style="fill:#ffffff;"/>
  </g>
  <g id="axes_1">
   <g id="patch_2">
    <path d="M 57.6 298.944 
L 338.688 298.944 
L 338.688 27.648 
L 57.6 27.648 
z
" style="fill:#ffffff;"/>
   </g>
   <g id="matplotlib.axis_1">
    <g id="xtick_1">
     <g id="line2d_1">
      <path clip-path="url(#p4f725f7af8)" d="M 57.6 298.944 
L 57.6 27.648 
" style="fill:none;stroke:#b0b0b0;stroke-linecap:square;stroke-width:0.8;"/>
     </g>
     <g id="line2d_2">
      <defs>
       <path d="M 0 0 
L 0 3.5 
" id="mc1853b5175" style="stroke:#000000;stroke-width:0.8;"/>
      </defs>
      <g>
       <use style="stroke:#000000;stroke-width:0.8;" x="57.6" xlink:href="#mc1853b5175" y="298.944"/>
      </g>
     </g>
     <g id="text_1">
      <!-- 0 -->
      <g transform="translate(51.2375 321.140875)scale(0.2 -0.2)">
       <defs>
        <path d="M 31.78125 66.40625 
Q 24.171875 66.40625 20.328125 58.90625 
Q 16.5 51.421875 16.5 36.375 
Q 16.5 21.390625 20.328125 13.890625 
Q 24.171875 6.390625 31.78125 6.390625 
Q 39.453125 6.390625 43.28125 13.890625 
Q 47.125 21.390625 47.125 36.375 
Q 47.125 51.421875 43.28125 58.90625 
Q 39.453125 66.40625 31.78125 66.40625 
z
M 31.78125 74.21875 
Q 44.046875 74.21875 50.515625 64.515625 
Q 56.984375 54.828125 56.984375 36.375 
Q 56.984375 17.96875 50.515625 8.265625 
Q 44.046875 -1.421875 31.78125 -1.421875 
Q 19.53125 -1.421875 13.0625 8.265625 
Q 6.59375 17.96875 6.59375 36.375 
Q 6.59375 54.828125 13.0625 64.515625 
Q 19.53125 74.21875 31.78125 74.21875 
z
" id="DejaVuSans-48"/>
       </defs>
       <use xlink:href="#DejaVuSans-48"/>
      </g>
     </g>
    </g>
    <g id="xtick_2">
     <g id="line2d_3">
      <path clip-path="url(#p4f725f7af8)" d="M 137.910857 298.944 
L 137.910857 27.648 
" style="fill:none;stroke:#b0b0b0;stroke-linecap:square;stroke-width:0.8;"/>
     </g>
     <g id="line2d_4">
      <g>
       <use style="stroke:#000000;stroke-width:0.8;" x="137.910857" xlink:href="#mc1853b5175" y="298.944"/>
      </g>
     </g>
     <g id="text_2">
      <!-- 2 -->
      <g transform="translate(131.548357 321.140875)scale(0.2 -0.2)">
       <defs>
        <path d="M 19.1875 8.296875 
L 53.609375 8.296875 
L 53.609375 0 
L 7.328125 0 
L 7.328125 8.296875 
Q 12.9375 14.109375 22.625 23.890625 
Q 32.328125 33.6875 34.8125 36.53125 
Q 39.546875 41.84375 41.421875 45.53125 
Q 43.3125 49.21875 43.3125 52.78125 
Q 43.3125 58.59375 39.234375 62.25 
Q 35.15625 65.921875 28.609375 65.921875 
Q 23.96875 65.921875 18.8125 64.3125 
Q 13.671875 62.703125 7.8125 59.421875 
L 7.8125 69.390625 
Q 13.765625 71.78125 18.9375 73 
Q 24.125 74.21875 28.421875 74.21875 
Q 39.75 74.21875 46.484375 68.546875 
Q 53.21875 62.890625 53.21875 53.421875 
Q 53.21875 48.921875 51.53125 44.890625 
Q 49.859375 40.875 45.40625 35.40625 
Q 44.1875 33.984375 37.640625 27.21875 
Q 31.109375 20.453125 19.1875 8.296875 
z
" id="DejaVuSans-50"/>
       </defs>
       <use xlink:href="#DejaVuSans-50"/>
      </g>
     </g>
    </g>
    <g id="xtick_3">
     <g id="line2d_5">
      <path clip-path="url(#p4f725f7af8)" d="M 218.221714 298.944 
L 218.221714 27.648 
" style="fill:none;stroke:#b0b0b0;stroke-linecap:square;stroke-width:0.8;"/>
     </g>
     <g id="line2d_6">
      <g>
       <use style="stroke:#000000;stroke-width:0.8;" x="218.221714" xlink:href="#mc1853b5175" y="298.944"/>
      </g>
     </g>
     <g id="text_3">
      <!-- 4 -->
      <g transform="translate(211.859214 321.140875)scale(0.2 -0.2)">
       <defs>
        <path d="M 37.796875 64.3125 
L 12.890625 25.390625 
L 37.796875 25.390625 
z
M 35.203125 72.90625 
L 47.609375 72.90625 
L 47.609375 25.390625 
L 58.015625 25.390625 
L 58.015625 17.1875 
L 47.609375 17.1875 
L 47.609375 0 
L 37.796875 0 
L 37.796875 17.1875 
L 4.890625 17.1875 
L 4.890625 26.703125 
z
" id="DejaVuSans-52"/>
       </defs>
       <use xlink:href="#DejaVuSans-52"/>
      </g>
     </g>
    </g>
    <g id="xtick_4">
     <g id="line2d_7">
      <path clip-path="url(#p4f725f7af8)" d="M 298.532571 298.944 
L 298.532571 27.648 
" style="fill:none;stroke:#b0b0b0;stroke-linecap:square;stroke-width:0.8;"/>
     </g>
     <g id="line2d_8">
      <g>
       <use style="stroke:#000000;stroke-width:0.8;" x="298.532571" xlink:href="#mc1853b5175" y="298.944"/>
      </g>
     </g>
     <g id="text_4">
      <!-- 6 -->
      <g transform="translate(292.170071 321.140875)scale(0.2 -0.2)">
       <defs>
        <path d="M 33.015625 40.375 
Q 26.375 40.375 22.484375 35.828125 
Q 18.609375 31.296875 18.609375 23.390625 
Q 18.609375 15.53125 22.484375 10.953125 
Q 26.375 6.390625 33.015625 6.390625 
Q 39.65625 6.390625 43.53125 10.953125 
Q 47.40625 15.53125 47.40625 23.390625 
Q 47.40625 31.296875 43.53125 35.828125 
Q 39.65625 40.375 33.015625 40.375 
z
M 52.59375 71.296875 
L 52.59375 62.3125 
Q 48.875 64.0625 45.09375 64.984375 
Q 41.3125 65.921875 37.59375 65.921875 
Q 27.828125 65.921875 22.671875 59.328125 
Q 17.53125 52.734375 16.796875 39.40625 
Q 19.671875 43.65625 24.015625 45.921875 
Q 28.375 48.1875 33.59375 48.1875 
Q 44.578125 48.1875 50.953125 41.515625 
Q 57.328125 34.859375 57.328125 23.390625 
Q 57.328125 12.15625 50.6875 5.359375 
Q 44.046875 -1.421875 33.015625 -1.421875 
Q 20.359375 -1.421875 13.671875 8.265625 
Q 6.984375 17.96875 6.984375 36.375 
Q 6.984375 53.65625 15.1875 63.9375 
Q 23.390625 74.21875 37.203125 74.21875 
Q 40.921875 74.21875 44.703125 73.484375 
Q 48.484375 72.75 52.59375 71.296875 
z
" id="DejaVuSans-54"/>
       </defs>
       <use xlink:href="#DejaVuSans-54"/>
      </g>
     </g>
    </g>
    <g id="xtick_5">
     <g id="line2d_9">
      <path clip-path="url(#p4f725f7af8)" d="M 97.755429 298.944 
L 97.755429 27.648 
" style="fill:none;stroke:#b0b0b0;stroke-linecap:square;stroke-width:0.8;"/>
     </g>
     <g id="line2d_10">
      <defs>
       <path d="M 0 0 
L 0 2 
" id="m213eb78355" style="stroke:#000000;stroke-width:0.6;"/>
      </defs>
      <g>
       <use style="stroke:#000000;stroke-width:0.6;" x="97.755429" xlink:href="#m213eb78355" y="298.944"/>
      </g>
     </g>
    </g>
    <g id="xtick_6">
     <g id="line2d_11">
      <path clip-path="url(#p4f725f7af8)" d="M 178.066286 298.944 
L 178.066286 27.648 
" style="fill:none;stroke:#b0b0b0;stroke-linecap:square;stroke-width:0.8;"/>
     </g>
     <g id="line2d_12">
      <g>
       <use style="stroke:#000000;stroke-width:0.6;" x="178.066286" xlink:href="#m213eb78355" y="298.944"/>
      </g>
     </g>
    </g>
    <g id="xtick_7">
     <g id="line2d_13">
      <path clip-path="url(#p4f725f7af8)" d="M 258.377143 298.944 
L 258.377143 27.648 
" style="fill:none;stroke:#b0b0b0;stroke-linecap:square;stroke-width:0.8;"/>
     </g>
     <g id="line2d_14">
      <g>
       <use style="stroke:#000000;stroke-width:0.6;" x="258.377143" xlink:href="#m213eb78355" y="298.944"/>
      </g>
     </g>
    </g>
    <g id="xtick_8">
     <g id="line2d_15">
      <path clip-path="url(#p4f725f7af8)" d="M 338.688 298.944 
L 338.688 27.648 
" style="fill:none;stroke:#b0b0b0;stroke-linecap:square;stroke-width:0.8;"/>
     </g>
     <g id="line2d_16">
      <g>
       <use style="stroke:#000000;stroke-width:0.6;" x="338.688" xlink:href="#m213eb78355" y="298.944"/>
      </g>
     </g>
    </g>
    <g id="text_5">
     <!-- log10(# (f+g)-evals / dimension) -->
     <g transform="translate(58.145016 342.217594)scale(0.17 -0.17)">
      <defs>
       <path d="M 9.421875 75.984375 
L 18.40625 75.984375 
L 18.40625 0 
L 9.421875 0 
z
" id="DejaVuSans-108"/>
       <path d="M 30.609375 48.390625 
Q 23.390625 48.390625 19.1875 42.75 
Q 14.984375 37.109375 14.984375 27.296875 
Q 14.984375 17.484375 19.15625 11.84375 
Q 23.34375 6.203125 30.609375 6.203125 
Q 37.796875 6.203125 41.984375 11.859375 
Q 46.1875 17.53125 46.1875 27.296875 
Q 46.1875 37.015625 41.984375 42.703125 
Q 37.796875 48.390625 30.609375 48.390625 
z
M 30.609375 56 
Q 42.328125 56 49.015625 48.375 
Q 55.71875 40.765625 55.71875 27.296875 
Q 55.71875 13.875 49.015625 6.21875 
Q 42.328125 -1.421875 30.609375 -1.421875 
Q 18.84375 -1.421875 12.171875 6.21875 
Q 5.515625 13.875 5.515625 27.296875 
Q 5.515625 40.765625 12.171875 48.375 
Q 18.84375 56 30.609375 56 
z
" id="DejaVuSans-111"/>
       <path d="M 45.40625 27.984375 
Q 45.40625 37.75 41.375 43.109375 
Q 37.359375 48.484375 30.078125 48.484375 
Q 22.859375 48.484375 18.828125 43.109375 
Q 14.796875 37.75 14.796875 27.984375 
Q 14.796875 18.265625 18.828125 12.890625 
Q 22.859375 7.515625 30.078125 7.515625 
Q 37.359375 7.515625 41.375 12.890625 
Q 45.40625 18.265625 45.40625 27.984375 
z
M 54.390625 6.78125 
Q 54.390625 -7.171875 48.1875 -13.984375 
Q 42 -20.796875 29.203125 -20.796875 
Q 24.46875 -20.796875 20.265625 -20.09375 
Q 16.0625 -19.390625 12.109375 -17.921875 
L 12.109375 -9.1875 
Q 16.0625 -11.328125 19.921875 -12.34375 
Q 23.78125 -13.375 27.78125 -13.375 
Q 36.625 -13.375 41.015625 -8.765625 
Q 45.40625 -4.15625 45.40625 5.171875 
L 45.40625 9.625 
Q 42.625 4.78125 38.28125 2.390625 
Q 33.9375 0 27.875 0 
Q 17.828125 0 11.671875 7.65625 
Q 5.515625 15.328125 5.515625 27.984375 
Q 5.515625 40.671875 11.671875 48.328125 
Q 17.828125 56 27.875 56 
Q 33.9375 56 38.28125 53.609375 
Q 42.625 51.21875 45.40625 46.390625 
L 45.40625 54.6875 
L 54.390625 54.6875 
z
" id="DejaVuSans-103"/>
       <path d="M 12.40625 8.296875 
L 28.515625 8.296875 
L 28.515625 63.921875 
L 10.984375 60.40625 
L 10.984375 69.390625 
L 28.421875 72.90625 
L 38.28125 72.90625 
L 38.28125 8.296875 
L 54.390625 8.296875 
L 54.390625 0 
L 12.40625 0 
z
" id="DejaVuSans-49"/>
       <path d="M 31 75.875 
Q 24.46875 64.65625 21.28125 53.65625 
Q 18.109375 42.671875 18.109375 31.390625 
Q 18.109375 20.125 21.3125 9.0625 
Q 24.515625 -2 31 -13.1875 
L 23.1875 -13.1875 
Q 15.875 -1.703125 12.234375 9.375 
Q 8.59375 20.453125 8.59375 31.390625 
Q 8.59375 42.28125 12.203125 53.3125 
Q 15.828125 64.359375 23.1875 75.875 
z
" id="DejaVuSans-40"/>
       <path d="M 51.125 44 
L 36.921875 44 
L 32.8125 27.6875 
L 47.125 27.6875 
z
M 43.796875 71.78125 
L 38.71875 51.515625 
L 52.984375 51.515625 
L 58.109375 71.78125 
L 65.921875 71.78125 
L 60.890625 51.515625 
L 76.125 51.515625 
L 76.125 44 
L 58.984375 44 
L 54.984375 27.6875 
L 70.515625 27.6875 
L 70.515625 20.21875 
L 53.078125 20.21875 
L 48 0 
L 40.1875 0 
L 45.21875 20.21875 
L 30.90625 20.21875 
L 25.875 0 
L 18.015625 0 
L 23.09375 20.21875 
L 7.71875 20.21875 
L 7.71875 27.6875 
L 24.90625 27.6875 
L 29 44 
L 13.28125 44 
L 13.28125 51.515625 
L 30.90625 51.515625 
L 35.890625 71.78125 
z
" id="DejaVuSans-35"/>
       <path id="DejaVuSans-32"/>
       <path d="M 37.109375 75.984375 
L 37.109375 68.5 
L 28.515625 68.5 
Q 23.6875 68.5 21.796875 66.546875 
Q 19.921875 64.59375 19.921875 59.515625 
L 19.921875 54.6875 
L 34.71875 54.6875 
L 34.71875 47.703125 
L 19.921875 47.703125 
L 19.921875 0 
L 10.890625 0 
L 10.890625 47.703125 
L 2.296875 47.703125 
L 2.296875 54.6875 
L 10.890625 54.6875 
L 10.890625 58.5 
Q 10.890625 67.625 15.140625 71.796875 
Q 19.390625 75.984375 28.609375 75.984375 
z
" id="DejaVuSans-102"/>
       <path d="M 46 62.703125 
L 46 35.5 
L 73.1875 35.5 
L 73.1875 27.203125 
L 46 27.203125 
L 46 0 
L 37.796875 0 
L 37.796875 27.203125 
L 10.59375 27.203125 
L 10.59375 35.5 
L 37.796875 35.5 
L 37.796875 62.703125 
z
" id="DejaVuSans-43"/>
       <path d="M 8.015625 75.875 
L 15.828125 75.875 
Q 23.140625 64.359375 26.78125 53.3125 
Q 30.421875 42.28125 30.421875 31.390625 
Q 30.421875 20.453125 26.78125 9.375 
Q 23.140625 -1.703125 15.828125 -13.1875 
L 8.015625 -13.1875 
Q 14.5 -2 17.703125 9.0625 
Q 20.90625 20.125 20.90625 31.390625 
Q 20.90625 42.671875 17.703125 53.65625 
Q 14.5 64.65625 8.015625 75.875 
z
" id="DejaVuSans-41"/>
       <path d="M 4.890625 31.390625 
L 31.203125 31.390625 
L 31.203125 23.390625 
L 4.890625 23.390625 
z
" id="DejaVuSans-45"/>
       <path d="M 56.203125 29.59375 
L 56.203125 25.203125 
L 14.890625 25.203125 
Q 15.484375 15.921875 20.484375 11.0625 
Q 25.484375 6.203125 34.421875 6.203125 
Q 39.59375 6.203125 44.453125 7.46875 
Q 49.3125 8.734375 54.109375 11.28125 
L 54.109375 2.78125 
Q 49.265625 0.734375 44.1875 -0.34375 
Q 39.109375 -1.421875 33.890625 -1.421875 
Q 20.796875 -1.421875 13.15625 6.1875 
Q 5.515625 13.8125 5.515625 26.8125 
Q 5.515625 40.234375 12.765625 48.109375 
Q 20.015625 56 32.328125 56 
Q 43.359375 56 49.78125 48.890625 
Q 56.203125 41.796875 56.203125 29.59375 
z
M 47.21875 32.234375 
Q 47.125 39.59375 43.09375 43.984375 
Q 39.0625 48.390625 32.421875 48.390625 
Q 24.90625 48.390625 20.390625 44.140625 
Q 15.875 39.890625 15.1875 32.171875 
z
" id="DejaVuSans-101"/>
       <path d="M 2.984375 54.6875 
L 12.5 54.6875 
L 29.59375 8.796875 
L 46.6875 54.6875 
L 56.203125 54.6875 
L 35.6875 0 
L 23.484375 0 
z
" id="DejaVuSans-118"/>
       <path d="M 34.28125 27.484375 
Q 23.390625 27.484375 19.1875 25 
Q 14.984375 22.515625 14.984375 16.5 
Q 14.984375 11.71875 18.140625 8.90625 
Q 21.296875 6.109375 26.703125 6.109375 
Q 34.1875 6.109375 38.703125 11.40625 
Q 43.21875 16.703125 43.21875 25.484375 
L 43.21875 27.484375 
z
M 52.203125 31.203125 
L 52.203125 0 
L 43.21875 0 
L 43.21875 8.296875 
Q 40.140625 3.328125 35.546875 0.953125 
Q 30.953125 -1.421875 24.3125 -1.421875 
Q 15.921875 -1.421875 10.953125 3.296875 
Q 6 8.015625 6 15.921875 
Q 6 25.140625 12.171875 29.828125 
Q 18.359375 34.515625 30.609375 34.515625 
L 43.21875 34.515625 
L 43.21875 35.40625 
Q 43.21875 41.609375 39.140625 45 
Q 35.0625 48.390625 27.6875 48.390625 
Q 23 48.390625 18.546875 47.265625 
Q 14.109375 46.140625 10.015625 43.890625 
L 10.015625 52.203125 
Q 14.9375 54.109375 19.578125 55.046875 
Q 24.21875 56 28.609375 56 
Q 40.484375 56 46.34375 49.84375 
Q 52.203125 43.703125 52.203125 31.203125 
z
" id="DejaVuSans-97"/>
       <path d="M 44.28125 53.078125 
L 44.28125 44.578125 
Q 40.484375 46.53125 36.375 47.5 
Q 32.28125 48.484375 27.875 48.484375 
Q 21.1875 48.484375 17.84375 46.4375 
Q 14.5 44.390625 14.5 40.28125 
Q 14.5 37.15625 16.890625 35.375 
Q 19.28125 33.59375 26.515625 31.984375 
L 29.59375 31.296875 
Q 39.15625 29.25 43.1875 25.515625 
Q 47.21875 21.78125 47.21875 15.09375 
Q 47.21875 7.46875 41.1875 3.015625 
Q 35.15625 -1.421875 24.609375 -1.421875 
Q 20.21875 -1.421875 15.453125 -0.5625 
Q 10.6875 0.296875 5.421875 2 
L 5.421875 11.28125 
Q 10.40625 8.6875 15.234375 7.390625 
Q 20.0625 6.109375 24.8125 6.109375 
Q 31.15625 6.109375 34.5625 8.28125 
Q 37.984375 10.453125 37.984375 14.40625 
Q 37.984375 18.0625 35.515625 20.015625 
Q 33.0625 21.96875 24.703125 23.78125 
L 21.578125 24.515625 
Q 13.234375 26.265625 9.515625 29.90625 
Q 5.8125 33.546875 5.8125 39.890625 
Q 5.8125 47.609375 11.28125 51.796875 
Q 16.75 56 26.8125 56 
Q 31.78125 56 36.171875 55.265625 
Q 40.578125 54.546875 44.28125 53.078125 
z
" id="DejaVuSans-115"/>
       <path d="M 25.390625 72.90625 
L 33.6875 72.90625 
L 8.296875 -9.28125 
L 0 -9.28125 
z
" id="DejaVuSans-47"/>
       <path d="M 45.40625 46.390625 
L 45.40625 75.984375 
L 54.390625 75.984375 
L 54.390625 0 
L 45.40625 0 
L 45.40625 8.203125 
Q 42.578125 3.328125 38.25 0.953125 
Q 33.9375 -1.421875 27.875 -1.421875 
Q 17.96875 -1.421875 11.734375 6.484375 
Q 5.515625 14.40625 5.515625 27.296875 
Q 5.515625 40.1875 11.734375 48.09375 
Q 17.96875 56 27.875 56 
Q 33.9375 56 38.25 53.625 
Q 42.578125 51.265625 45.40625 46.390625 
z
M 14.796875 27.296875 
Q 14.796875 17.390625 18.875 11.75 
Q 22.953125 6.109375 30.078125 6.109375 
Q 37.203125 6.109375 41.296875 11.75 
Q 45.40625 17.390625 45.40625 27.296875 
Q 45.40625 37.203125 41.296875 42.84375 
Q 37.203125 48.484375 30.078125 48.484375 
Q 22.953125 48.484375 18.875 42.84375 
Q 14.796875 37.203125 14.796875 27.296875 
z
" id="DejaVuSans-100"/>
       <path d="M 9.421875 54.6875 
L 18.40625 54.6875 
L 18.40625 0 
L 9.421875 0 
z
M 9.421875 75.984375 
L 18.40625 75.984375 
L 18.40625 64.59375 
L 9.421875 64.59375 
z
" id="DejaVuSans-105"/>
       <path d="M 52 44.1875 
Q 55.375 50.25 60.0625 53.125 
Q 64.75 56 71.09375 56 
Q 79.640625 56 84.28125 50.015625 
Q 88.921875 44.046875 88.921875 33.015625 
L 88.921875 0 
L 79.890625 0 
L 79.890625 32.71875 
Q 79.890625 40.578125 77.09375 44.375 
Q 74.3125 48.1875 68.609375 48.1875 
Q 61.625 48.1875 57.5625 43.546875 
Q 53.515625 38.921875 53.515625 30.90625 
L 53.515625 0 
L 44.484375 0 
L 44.484375 32.71875 
Q 44.484375 40.625 41.703125 44.40625 
Q 38.921875 48.1875 33.109375 48.1875 
Q 26.21875 48.1875 22.15625 43.53125 
Q 18.109375 38.875 18.109375 30.90625 
L 18.109375 0 
L 9.078125 0 
L 9.078125 54.6875 
L 18.109375 54.6875 
L 18.109375 46.1875 
Q 21.1875 51.21875 25.484375 53.609375 
Q 29.78125 56 35.6875 56 
Q 41.65625 56 45.828125 52.96875 
Q 50 49.953125 52 44.1875 
z
" id="DejaVuSans-109"/>
       <path d="M 54.890625 33.015625 
L 54.890625 0 
L 45.90625 0 
L 45.90625 32.71875 
Q 45.90625 40.484375 42.875 44.328125 
Q 39.84375 48.1875 33.796875 48.1875 
Q 26.515625 48.1875 22.3125 43.546875 
Q 18.109375 38.921875 18.109375 30.90625 
L 18.109375 0 
L 9.078125 0 
L 9.078125 54.6875 
L 18.109375 54.6875 
L 18.109375 46.1875 
Q 21.34375 51.125 25.703125 53.5625 
Q 30.078125 56 35.796875 56 
Q 45.21875 56 50.046875 50.171875 
Q 54.890625 44.34375 54.890625 33.015625 
z
" id="DejaVuSans-110"/>
      </defs>
      <use xlink:href="#DejaVuSans-108"/>
      <use x="27.783203" xlink:href="#DejaVuSans-111"/>
      <use x="88.964844" xlink:href="#DejaVuSans-103"/>
      <use x="152.441406" xlink:href="#DejaVuSans-49"/>
      <use x="216.064453" xlink:href="#DejaVuSans-48"/>
      <use x="279.6875" xlink:href="#DejaVuSans-40"/>
      <use x="318.701172" xlink:href="#DejaVuSans-35"/>
      <use x="402.490234" xlink:href="#DejaVuSans-32"/>
      <use x="434.277344" xlink:href="#DejaVuSans-40"/>
      <use x="473.291016" xlink:href="#DejaVuSans-102"/>
      <use x="508.496094" xlink:href="#DejaVuSans-43"/>
      <use x="592.285156" xlink:href="#DejaVuSans-103"/>
      <use x="655.761719" xlink:href="#DejaVuSans-41"/>
      <use x="694.775391" xlink:href="#DejaVuSans-45"/>
      <use x="730.859375" xlink:href="#DejaVuSans-101"/>
      <use x="792.382812" xlink:href="#DejaVuSans-118"/>
      <use x="851.5625" xlink:href="#DejaVuSans-97"/>
      <use x="912.841797" xlink:href="#DejaVuSans-108"/>
      <use x="940.625" xlink:href="#DejaVuSans-115"/>
      <use x="992.724609" xlink:href="#DejaVuSans-32"/>
      <use x="1024.511719" xlink:href="#DejaVuSans-47"/>
      <use x="1058.203125" xlink:href="#DejaVuSans-32"/>
      <use x="1089.990234" xlink:href="#DejaVuSans-100"/>
      <use x="1153.466797" xlink:href="#DejaVuSans-105"/>
      <use x="1181.25" xlink:href="#DejaVuSans-109"/>
      <use x="1278.662109" xlink:href="#DejaVuSans-101"/>
      <use x="1340.185547" xlink:href="#DejaVuSans-110"/>
      <use x="1403.564453" xlink:href="#DejaVuSans-115"/>
      <use x="1455.664062" xlink:href="#DejaVuSans-105"/>
      <use x="1483.447266" xlink:href="#DejaVuSans-111"/>
      <use x="1544.628906" xlink:href="#DejaVuSans-110"/>
      <use x="1608.007812" xlink:href="#DejaVuSans-41"/>
     </g>
    </g>
   </g>
   <g id="matplotlib.axis_2">
    <g id="ytick_1">
     <g id="line2d_17">
      <path clip-path="url(#p4f725f7af8)" d="M 57.6 298.944 
L 338.688 298.944 
" style="fill:none;stroke:#b0b0b0;stroke-linecap:square;stroke-width:0.8;"/>
     </g>
     <g id="line2d_18">
      <defs>
       <path d="M 0 0 
L -3.5 0 
" id="m19c92b75f6" style="stroke:#000000;stroke-width:0.8;"/>
      </defs>
      <g>
       <use style="stroke:#000000;stroke-width:0.8;" x="57.6" xlink:href="#m19c92b75f6" y="298.944"/>
      </g>
     </g>
     <g id="text_6">
      <!-- 0.0 -->
      <g transform="translate(25.155 305.02275)scale(0.16 -0.16)">
       <defs>
        <path d="M 10.6875 12.40625 
L 21 12.40625 
L 21 0 
L 10.6875 0 
z
" id="DejaVuSans-46"/>
       </defs>
       <use xlink:href="#DejaVuSans-48"/>
       <use x="63.623047" xlink:href="#DejaVuSans-46"/>
       <use x="95.410156" xlink:href="#DejaVuSans-48"/>
      </g>
     </g>
    </g>
    <g id="ytick_2">
     <g id="line2d_19">
      <path clip-path="url(#p4f725f7af8)" d="M 57.6 245.22202 
L 338.688 245.22202 
" style="fill:none;stroke:#b0b0b0;stroke-linecap:square;stroke-width:0.8;"/>
     </g>
     <g id="line2d_20">
      <g>
       <use style="stroke:#000000;stroke-width:0.8;" x="57.6" xlink:href="#m19c92b75f6" y="245.22202"/>
      </g>
     </g>
     <g id="text_7">
      <!-- 0.2 -->
      <g transform="translate(25.155 251.30077)scale(0.16 -0.16)">
       <use xlink:href="#DejaVuSans-48"/>
       <use x="63.623047" xlink:href="#DejaVuSans-46"/>
       <use x="95.410156" xlink:href="#DejaVuSans-50"/>
      </g>
     </g>
    </g>
    <g id="ytick_3">
     <g id="line2d_21">
      <path clip-path="url(#p4f725f7af8)" d="M 57.6 191.50004 
L 338.688 191.50004 
" style="fill:none;stroke:#b0b0b0;stroke-linecap:square;stroke-width:0.8;"/>
     </g>
     <g id="line2d_22">
      <g>
       <use style="stroke:#000000;stroke-width:0.8;" x="57.6" xlink:href="#m19c92b75f6" y="191.50004"/>
      </g>
     </g>
     <g id="text_8">
      <!-- 0.4 -->
      <g transform="translate(25.155 197.57879)scale(0.16 -0.16)">
       <use xlink:href="#DejaVuSans-48"/>
       <use x="63.623047" xlink:href="#DejaVuSans-46"/>
       <use x="95.410156" xlink:href="#DejaVuSans-52"/>
      </g>
     </g>
    </g>
    <g id="ytick_4">
     <g id="line2d_23">
      <path clip-path="url(#p4f725f7af8)" d="M 57.6 137.778059 
L 338.688 137.778059 
" style="fill:none;stroke:#b0b0b0;stroke-linecap:square;stroke-width:0.8;"/>
     </g>
     <g id="line2d_24">
      <g>
       <use style="stroke:#000000;stroke-width:0.8;" x="57.6" xlink:href="#m19c92b75f6" y="137.778059"/>
      </g>
     </g>
     <g id="text_9">
      <!-- 0.6 -->
      <g transform="translate(25.155 143.856809)scale(0.16 -0.16)">
       <use xlink:href="#DejaVuSans-48"/>
       <use x="63.623047" xlink:href="#DejaVuSans-46"/>
       <use x="95.410156" xlink:href="#DejaVuSans-54"/>
      </g>
     </g>
    </g>
    <g id="ytick_5">
     <g id="line2d_25">
      <path clip-path="url(#p4f725f7af8)" d="M 57.6 84.056079 
L 338.688 84.056079 
" style="fill:none;stroke:#b0b0b0;stroke-linecap:square;stroke-width:0.8;"/>
     </g>
     <g id="line2d_26">
      <g>
       <use style="stroke:#000000;stroke-width:0.8;" x="57.6" xlink:href="#m19c92b75f6" y="84.056079"/>
      </g>
     </g>
     <g id="text_10">
      <!-- 0.8 -->
      <g transform="translate(25.155 90.134829)scale(0.16 -0.16)">
       <defs>
        <path d="M 31.78125 34.625 
Q 24.75 34.625 20.71875 30.859375 
Q 16.703125 27.09375 16.703125 20.515625 
Q 16.703125 13.921875 20.71875 10.15625 
Q 24.75 6.390625 31.78125 6.390625 
Q 38.8125 6.390625 42.859375 10.171875 
Q 46.921875 13.96875 46.921875 20.515625 
Q 46.921875 27.09375 42.890625 30.859375 
Q 38.875 34.625 31.78125 34.625 
z
M 21.921875 38.8125 
Q 15.578125 40.375 12.03125 44.71875 
Q 8.5 49.078125 8.5 55.328125 
Q 8.5 64.0625 14.71875 69.140625 
Q 20.953125 74.21875 31.78125 74.21875 
Q 42.671875 74.21875 48.875 69.140625 
Q 55.078125 64.0625 55.078125 55.328125 
Q 55.078125 49.078125 51.53125 44.71875 
Q 48 40.375 41.703125 38.8125 
Q 48.828125 37.15625 52.796875 32.3125 
Q 56.78125 27.484375 56.78125 20.515625 
Q 56.78125 9.90625 50.3125 4.234375 
Q 43.84375 -1.421875 31.78125 -1.421875 
Q 19.734375 -1.421875 13.25 4.234375 
Q 6.78125 9.90625 6.78125 20.515625 
Q 6.78125 27.484375 10.78125 32.3125 
Q 14.796875 37.15625 21.921875 38.8125 
z
M 18.3125 54.390625 
Q 18.3125 48.734375 21.84375 45.5625 
Q 25.390625 42.390625 31.78125 42.390625 
Q 38.140625 42.390625 41.71875 45.5625 
Q 45.3125 48.734375 45.3125 54.390625 
Q 45.3125 60.0625 41.71875 63.234375 
Q 38.140625 66.40625 31.78125 66.40625 
Q 25.390625 66.40625 21.84375 63.234375 
Q 18.3125 60.0625 18.3125 54.390625 
z
" id="DejaVuSans-56"/>
       </defs>
       <use xlink:href="#DejaVuSans-48"/>
       <use x="63.623047" xlink:href="#DejaVuSans-46"/>
       <use x="95.410156" xlink:href="#DejaVuSans-56"/>
      </g>
     </g>
    </g>
    <g id="ytick_6">
     <g id="line2d_27">
      <path clip-path="url(#p4f725f7af8)" d="M 57.6 30.334099 
L 338.688 30.334099 
" style="fill:none;stroke:#b0b0b0;stroke-linecap:square;stroke-width:0.8;"/>
     </g>
     <g id="line2d_28">
      <g>
       <use style="stroke:#000000;stroke-width:0.8;" x="57.6" xlink:href="#m19c92b75f6" y="30.334099"/>
      </g>
     </g>
     <g id="text_11">
      <!-- 1.0 -->
      <g transform="translate(25.155 36.412849)scale(0.16 -0.16)">
       <use xlink:href="#DejaVuSans-49"/>
       <use x="63.623047" xlink:href="#DejaVuSans-46"/>
       <use x="95.410156" xlink:href="#DejaVuSans-48"/>
      </g>
     </g>
    </g>
    <g id="text_12">
     <!-- Fraction of function,target pairs -->
     <g transform="translate(17.619531 297.681)rotate(-90)scale(0.17 -0.17)">
      <defs>
       <path d="M 9.8125 72.90625 
L 51.703125 72.90625 
L 51.703125 64.59375 
L 19.671875 64.59375 
L 19.671875 43.109375 
L 48.578125 43.109375 
L 48.578125 34.8125 
L 19.671875 34.8125 
L 19.671875 0 
L 9.8125 0 
z
" id="DejaVuSans-70"/>
       <path d="M 41.109375 46.296875 
Q 39.59375 47.171875 37.8125 47.578125 
Q 36.03125 48 33.890625 48 
Q 26.265625 48 22.1875 43.046875 
Q 18.109375 38.09375 18.109375 28.8125 
L 18.109375 0 
L 9.078125 0 
L 9.078125 54.6875 
L 18.109375 54.6875 
L 18.109375 46.1875 
Q 20.953125 51.171875 25.484375 53.578125 
Q 30.03125 56 36.53125 56 
Q 37.453125 56 38.578125 55.875 
Q 39.703125 55.765625 41.0625 55.515625 
z
" id="DejaVuSans-114"/>
       <path d="M 48.78125 52.59375 
L 48.78125 44.1875 
Q 44.96875 46.296875 41.140625 47.34375 
Q 37.3125 48.390625 33.40625 48.390625 
Q 24.65625 48.390625 19.8125 42.84375 
Q 14.984375 37.3125 14.984375 27.296875 
Q 14.984375 17.28125 19.8125 11.734375 
Q 24.65625 6.203125 33.40625 6.203125 
Q 37.3125 6.203125 41.140625 7.25 
Q 44.96875 8.296875 48.78125 10.40625 
L 48.78125 2.09375 
Q 45.015625 0.34375 40.984375 -0.53125 
Q 36.96875 -1.421875 32.421875 -1.421875 
Q 20.0625 -1.421875 12.78125 6.34375 
Q 5.515625 14.109375 5.515625 27.296875 
Q 5.515625 40.671875 12.859375 48.328125 
Q 20.21875 56 33.015625 56 
Q 37.15625 56 41.109375 55.140625 
Q 45.0625 54.296875 48.78125 52.59375 
z
" id="DejaVuSans-99"/>
       <path d="M 18.3125 70.21875 
L 18.3125 54.6875 
L 36.8125 54.6875 
L 36.8125 47.703125 
L 18.3125 47.703125 
L 18.3125 18.015625 
Q 18.3125 11.328125 20.140625 9.421875 
Q 21.96875 7.515625 27.59375 7.515625 
L 36.8125 7.515625 
L 36.8125 0 
L 27.59375 0 
Q 17.1875 0 13.234375 3.875 
Q 9.28125 7.765625 9.28125 18.015625 
L 9.28125 47.703125 
L 2.6875 47.703125 
L 2.6875 54.6875 
L 9.28125 54.6875 
L 9.28125 70.21875 
z
" id="DejaVuSans-116"/>
       <path d="M 8.5 21.578125 
L 8.5 54.6875 
L 17.484375 54.6875 
L 17.484375 21.921875 
Q 17.484375 14.15625 20.5 10.265625 
Q 23.53125 6.390625 29.59375 6.390625 
Q 36.859375 6.390625 41.078125 11.03125 
Q 45.3125 15.671875 45.3125 23.6875 
L 45.3125 54.6875 
L 54.296875 54.6875 
L 54.296875 0 
L 45.3125 0 
L 45.3125 8.40625 
Q 42.046875 3.421875 37.71875 1 
Q 33.40625 -1.421875 27.6875 -1.421875 
Q 18.265625 -1.421875 13.375 4.4375 
Q 8.5 10.296875 8.5 21.578125 
z
M 31.109375 56 
z
" id="DejaVuSans-117"/>
       <path d="M 11.71875 12.40625 
L 22.015625 12.40625 
L 22.015625 4 
L 14.015625 -11.625 
L 7.71875 -11.625 
L 11.71875 4 
z
" id="DejaVuSans-44"/>
       <path d="M 18.109375 8.203125 
L 18.109375 -20.796875 
L 9.078125 -20.796875 
L 9.078125 54.6875 
L 18.109375 54.6875 
L 18.109375 46.390625 
Q 20.953125 51.265625 25.265625 53.625 
Q 29.59375 56 35.59375 56 
Q 45.5625 56 51.78125 48.09375 
Q 58.015625 40.1875 58.015625 27.296875 
Q 58.015625 14.40625 51.78125 6.484375 
Q 45.5625 -1.421875 35.59375 -1.421875 
Q 29.59375 -1.421875 25.265625 0.953125 
Q 20.953125 3.328125 18.109375 8.203125 
z
M 48.6875 27.296875 
Q 48.6875 37.203125 44.609375 42.84375 
Q 40.53125 48.484375 33.40625 48.484375 
Q 26.265625 48.484375 22.1875 42.84375 
Q 18.109375 37.203125 18.109375 27.296875 
Q 18.109375 17.390625 22.1875 11.75 
Q 26.265625 6.109375 33.40625 6.109375 
Q 40.53125 6.109375 44.609375 11.75 
Q 48.6875 17.390625 48.6875 27.296875 
z
" id="DejaVuSans-112"/>
      </defs>
      <use xlink:href="#DejaVuSans-70"/>
      <use x="50.269531" xlink:href="#DejaVuSans-114"/>
      <use x="91.382812" xlink:href="#DejaVuSans-97"/>
      <use x="152.662109" xlink:href="#DejaVuSans-99"/>
      <use x="207.642578" xlink:href="#DejaVuSans-116"/>
      <use x="246.851562" xlink:href="#DejaVuSans-105"/>
      <use x="274.634766" xlink:href="#DejaVuSans-111"/>
      <use x="335.816406" xlink:href="#DejaVuSans-110"/>
      <use x="399.195312" xlink:href="#DejaVuSans-32"/>
      <use x="430.982422" xlink:href="#DejaVuSans-111"/>
      <use x="492.164062" xlink:href="#DejaVuSans-102"/>
      <use x="527.369141" xlink:href="#DejaVuSans-32"/>
      <use x="559.15625" xlink:href="#DejaVuSans-102"/>
      <use x="594.361328" xlink:href="#DejaVuSans-117"/>
      <use x="657.740234" xlink:href="#DejaVuSans-110"/>
      <use x="721.119141" xlink:href="#DejaVuSans-99"/>
      <use x="776.099609" xlink:href="#DejaVuSans-116"/>
      <use x="815.308594" xlink:href="#DejaVuSans-105"/>
      <use x="843.091797" xlink:href="#DejaVuSans-111"/>
      <use x="904.273438" xlink:href="#DejaVuSans-110"/>
      <use x="967.652344" xlink:href="#DejaVuSans-44"/>
      <use x="999.439453" xlink:href="#DejaVuSans-116"/>
      <use x="1038.648438" xlink:href="#DejaVuSans-97"/>
      <use x="1099.927734" xlink:href="#DejaVuSans-114"/>
      <use x="1139.291016" xlink:href="#DejaVuSans-103"/>
      <use x="1202.767578" xlink:href="#DejaVuSans-101"/>
      <use x="1264.291016" xlink:href="#DejaVuSans-116"/>
      <use x="1303.5" xlink:href="#DejaVuSans-32"/>
      <use x="1335.287109" xlink:href="#DejaVuSans-112"/>
      <use x="1398.763672" xlink:href="#DejaVuSans-97"/>
      <use x="1460.042969" xlink:href="#DejaVuSans-105"/>
      <use x="1487.826172" xlink:href="#DejaVuSans-114"/>
      <use x="1528.939453" xlink:href="#DejaVuSans-115"/>
     </g>
    </g>
   </g>
   <g id="line2d_29">
    <defs>
     <path d="M 0 1.5 
C 0.397805 1.5 0.77937 1.341951 1.06066 1.06066 
C 1.341951 0.77937 1.5 0.397805 1.5 0 
C 1.5 -0.397805 1.341951 -0.77937 1.06066 -1.06066 
C 0.77937 -1.341951 0.397805 -1.5 0 -1.5 
C -0.397805 -1.5 -0.77937 -1.341951 -1.06066 -1.06066 
C -1.341951 -0.77937 -1.5 -0.397805 -1.5 0 
C -1.5 0.397805 -1.341951 0.77937 -1.06066 1.06066 
C -0.77937 1.341951 -0.397805 1.5 0 1.5 
z
" id="mb594e497ad" style="stroke:#000080;"/>
    </defs>
    <g>
     <use style="fill:#000080;stroke:#000080;" x="262.616835" xlink:href="#mb594e497ad" y="30.334099"/>
     <use style="fill:#000080;stroke:#000080;" x="262.616835" xlink:href="#mb594e497ad" y="30.334099"/>
    </g>
   </g>
   <g id="line2d_30">
    <path d="M 131.338382 298.944 
L 131.338382 298.288854 
L 131.490249 298.288854 
L 131.490249 297.633708 
L 135.240011 297.633708 
L 135.240011 296.978562 
L 139.123342 296.978562 
L 139.123342 296.323416 
L 139.856059 296.323416 
L 139.9494 294.357977 
L 140.073083 294.357977 
L 140.073083 293.702831 
L 140.499195 293.702831 
L 140.499195 293.047685 
L 142.161336 293.047685 
L 142.161336 292.392539 
L 142.405626 292.392539 
L 142.405626 291.737393 
L 142.857929 291.737393 
L 142.857929 291.082247 
L 143.728793 291.082247 
L 143.728793 290.427101 
L 144.026061 290.427101 
L 144.026061 289.771955 
L 144.53439 289.771955 
L 144.53439 289.116809 
L 144.981877 289.116809 
L 144.981877 288.461662 
L 145.688202 288.461662 
L 145.688202 287.806516 
L 147.409112 287.806516 
L 147.409112 287.15137 
L 148.430623 287.15137 
L 148.430623 286.496224 
L 148.676918 286.496224 
L 148.676918 285.841078 
L 149.049169 285.841078 
L 149.049169 285.185932 
L 149.177602 285.185932 
L 149.177602 284.530786 
L 149.395596 284.530786 
L 149.395596 283.87564 
L 151.803091 283.87564 
L 151.803091 283.220494 
L 152.466496 283.220494 
L 152.466496 282.565348 
L 152.988446 282.565348 
L 153.061751 281.255055 
L 153.178403 281.255055 
L 153.178403 280.599909 
L 153.623196 280.599909 
L 153.623196 279.944763 
L 153.904255 279.944763 
L 153.904255 279.289617 
L 154.601099 279.289617 
L 154.601099 278.634471 
L 154.93278 278.634471 
L 155.024532 277.324179 
L 155.271165 277.324179 
L 155.271165 276.669033 
L 155.386785 276.669033 
L 155.386785 276.013887 
L 155.527065 276.013887 
L 155.527065 275.35874 
L 156.08947 275.35874 
L 156.08947 274.703594 
L 156.49067 274.703594 
L 156.502685 273.393302 
L 156.693802 273.393302 
L 156.693802 272.738156 
L 158.260646 272.738156 
L 158.260646 272.08301 
L 158.732007 272.08301 
L 158.732007 271.427864 
L 158.962994 271.427864 
L 159.025463 270.117572 
L 159.698248 270.117572 
L 159.698248 269.462426 
L 160.651664 269.462426 
L 160.651664 268.807279 
L 160.821253 268.807279 
L 160.821253 268.152133 
L 161.618459 268.152133 
L 161.672119 266.841841 
L 163.004009 266.841841 
L 163.004009 266.186695 
L 164.802494 266.186695 
L 164.802494 265.531549 
L 164.995441 265.531549 
L 164.995441 264.876403 
L 165.295432 264.876403 
L 165.331666 263.566111 
L 165.739495 263.566111 
L 165.739495 262.910965 
L 165.915403 262.910965 
L 165.915403 262.255818 
L 166.574863 262.255818 
L 166.662278 260.945526 
L 166.849082 260.945526 
L 166.855717 259.635234 
L 167.073257 259.635234 
L 167.0929 258.324942 
L 167.898523 258.324942 
L 167.898523 257.669796 
L 168.232714 257.669796 
L 168.232714 257.01465 
L 169.181091 257.01465 
L 169.181091 256.359504 
L 169.802665 256.359504 
L 169.841835 255.049211 
L 170.108089 255.049211 
L 170.130094 253.738919 
L 170.228776 253.738919 
L 170.228776 253.083773 
L 170.719297 253.083773 
L 170.719297 252.428627 
L 171.483639 252.428627 
L 171.483639 251.773481 
L 171.831177 251.773481 
L 171.831177 251.118335 
L 172.274322 251.118335 
L 172.274322 250.463189 
L 172.496543 250.463189 
L 172.58751 249.152896 
L 172.899863 249.152896 
L 172.899863 248.49775 
L 173.562544 248.49775 
L 173.562544 247.842604 
L 174.008357 247.842604 
L 174.061097 245.22202 
L 174.473085 245.22202 
L 174.49022 243.911728 
L 175.170413 243.911728 
L 175.170413 243.256582 
L 175.765475 243.256582 
L 175.765475 242.601435 
L 176.139511 242.601435 
L 176.209486 239.980851 
L 178.135904 239.980851 
L 178.135904 239.325705 
L 178.513913 239.325705 
L 178.61222 238.015413 
L 178.716697 238.015413 
L 178.716697 236.049974 
L 178.847254 236.049974 
L 178.847254 235.394828 
L 179.102185 235.394828 
L 179.19724 234.084536 
L 179.728427 234.084536 
L 179.83275 232.774244 
L 179.854799 232.774244 
L 179.895673 231.463952 
L 180.089306 231.463952 
L 180.135832 230.15366 
L 180.687667 230.15366 
L 180.687667 229.498513 
L 181.173027 229.498513 
L 181.173027 228.843367 
L 181.367492 228.843367 
L 181.422247 227.533075 
L 181.488299 227.533075 
L 181.488299 226.877929 
L 181.845779 226.877929 
L 181.946584 225.567637 
L 182.24006 225.567637 
L 182.259268 224.257345 
L 182.436623 224.257345 
L 182.51247 222.947052 
L 182.71402 222.947052 
L 182.730044 221.63676 
L 182.937025 221.63676 
L 182.937025 220.981614 
L 183.372085 220.981614 
L 183.4747 218.36103 
L 183.703398 218.36103 
L 183.703398 217.705884 
L 183.993809 217.705884 
L 184.085432 216.395591 
L 184.15691 216.395591 
L 184.15691 215.740445 
L 184.870193 215.740445 
L 184.973775 213.775007 
L 185.190704 213.775007 
L 185.190704 213.119861 
L 185.370587 213.119861 
L 185.450705 211.154423 
L 185.562255 211.154423 
L 185.621156 209.84413 
L 186.179777 209.84413 
L 186.181967 208.533838 
L 186.917422 208.533838 
L 186.917422 207.878692 
L 187.190324 207.878692 
L 187.190324 207.223546 
L 187.430501 207.223546 
L 187.430501 206.5684 
L 187.572631 206.5684 
L 187.649305 203.947816 
L 187.705587 203.947816 
L 187.705587 203.292669 
L 188.067057 203.292669 
L 188.067057 201.327231 
L 188.252801 201.327231 
L 188.252801 200.672085 
L 188.696367 200.672085 
L 188.76449 199.361793 
L 189.256084 199.361793 
L 189.28727 198.051501 
L 189.367728 198.051501 
L 189.367728 196.741208 
L 189.614096 196.741208 
L 189.614096 192.810332 
L 190.133334 192.810332 
L 190.133334 192.155186 
L 190.620588 192.155186 
L 190.620588 191.50004 
L 191.053239 191.50004 
L 191.056551 190.189747 
L 191.22629 190.189747 
L 191.330932 188.224309 
L 191.378143 188.224309 
L 191.378143 187.569163 
L 192.837069 187.569163 
L 192.837069 186.914017 
L 192.960737 186.914017 
L 192.960737 186.258871 
L 193.09827 186.258871 
L 193.1747 184.948579 
L 193.306197 184.948579 
L 193.306197 184.293433 
L 193.432375 184.293433 
L 193.44682 182.98314 
L 193.77154 182.98314 
L 193.77154 182.327994 
L 193.957621 182.327994 
L 193.963229 180.362556 
L 194.212356 180.362556 
L 194.212356 179.70741 
L 194.479761 179.70741 
L 194.479761 179.052264 
L 194.977466 179.052264 
L 194.977466 178.397118 
L 195.190415 178.397118 
L 195.190415 177.741972 
L 195.381422 177.741972 
L 195.434325 176.431679 
L 195.623968 176.431679 
L 195.623968 175.776533 
L 195.893331 175.776533 
L 195.989691 173.155949 
L 196.035805 173.155949 
L 196.035805 172.500803 
L 196.246128 172.500803 
L 196.246128 170.535364 
L 196.371115 170.535364 
L 196.371115 169.880218 
L 196.613617 169.880218 
L 196.67132 164.63905 
L 196.738399 164.63905 
L 196.738399 163.983903 
L 196.993563 163.983903 
L 197.05472 161.363319 
L 197.705752 161.363319 
L 197.792624 156.777296 
L 198.057326 156.777296 
L 198.078374 153.501566 
L 198.197534 153.501566 
L 198.204131 150.880981 
L 198.456206 150.880981 
L 198.456206 150.225835 
L 198.751621 150.225835 
L 198.751621 149.570689 
L 198.863109 149.570689 
L 198.863109 148.915543 
L 199.095461 148.915543 
L 199.095461 148.260397 
L 199.278312 148.260397 
L 199.38033 145.639813 
L 199.549044 145.639813 
L 199.647471 141.708936 
L 199.707068 141.708936 
L 199.814635 137.778059 
L 200.188429 137.778059 
L 200.287225 135.812621 
L 200.509174 135.812621 
L 200.612877 133.192037 
L 200.714063 133.192037 
L 200.742594 130.571452 
L 200.935379 130.571452 
L 200.935379 129.26116 
L 201.252025 129.26116 
L 201.252025 127.295722 
L 201.754171 127.295722 
L 201.754171 125.330284 
L 202.006996 125.330284 
L 202.075798 120.744261 
L 202.186368 120.744261 
L 202.186368 118.778823 
L 202.556804 118.778823 
L 202.556804 118.123676 
L 203.10392 118.123676 
L 203.10392 117.46853 
L 203.889336 117.46853 
L 203.889336 116.158238 
L 204.017392 116.158238 
L 204.017392 115.503092 
L 204.215519 115.503092 
L 204.215519 114.847946 
L 204.489782 114.847946 
L 204.489782 114.1928 
L 205.02198 114.1928 
L 205.12502 112.882508 
L 205.222311 112.882508 
L 205.222311 112.227362 
L 205.50446 112.227362 
L 205.50446 111.572215 
L 205.679318 111.572215 
L 205.765026 110.261923 
L 205.81838 110.261923 
L 205.81838 109.606777 
L 206.561625 109.606777 
L 206.597663 108.296485 
L 206.961323 108.296485 
L 206.961323 107.641339 
L 207.547419 107.641339 
L 207.547419 106.986193 
L 207.669211 106.986193 
L 207.669211 106.331047 
L 208.335961 106.331047 
L 208.335961 105.675901 
L 208.666048 105.675901 
L 208.666048 105.020754 
L 208.995332 105.020754 
L 208.995332 103.710462 
L 209.860343 103.710462 
L 209.860907 102.40017 
L 210.383112 102.40017 
L 210.40988 99.12444 
L 210.516004 99.12444 
L 210.516004 97.814147 
L 210.924617 97.814147 
L 210.924617 97.159001 
L 211.134817 97.159001 
L 211.171957 95.848709 
L 211.652798 95.848709 
L 211.691895 93.883271 
L 211.852441 93.883271 
L 211.852441 93.228125 
L 212.070185 93.228125 
L 212.15633 89.952394 
L 212.228285 89.952394 
L 212.236644 88.642102 
L 212.42659 88.642102 
L 212.42659 87.986956 
L 212.631318 87.986956 
L 212.707087 86.676664 
L 212.902654 86.676664 
L 212.952266 84.711225 
L 213.146984 84.711225 
L 213.146984 84.056079 
L 213.449954 84.056079 
L 213.449954 83.400933 
L 213.982379 83.400933 
L 213.982379 82.745787 
L 214.36727 82.745787 
L 214.36727 82.090641 
L 214.986542 82.090641 
L 214.986542 81.435495 
L 215.25735 81.435495 
L 215.25735 80.780349 
L 215.617003 80.780349 
L 215.674011 78.159764 
L 216.596157 78.159764 
L 216.596157 77.504618 
L 216.806226 77.504618 
L 216.876067 76.194326 
L 217.083183 76.194326 
L 217.083183 75.53918 
L 217.200439 75.53918 
L 217.265775 74.228888 
L 218.300362 74.228888 
L 218.300362 73.573742 
L 218.452472 73.573742 
L 218.452472 72.918596 
L 218.75243 72.918596 
L 218.75243 72.263449 
L 218.889926 72.263449 
L 218.889926 71.608303 
L 219.22274 71.608303 
L 219.22274 70.953157 
L 219.402284 70.953157 
L 219.456959 69.642865 
L 219.941468 69.642865 
L 219.941468 68.987719 
L 220.111296 68.987719 
L 220.111296 68.332573 
L 220.362359 68.332573 
L 220.362359 67.677427 
L 220.998458 67.677427 
L 221.102846 65.056842 
L 229.949639 65.056842 
L 229.949639 64.401696 
L 230.584205 64.401696 
L 230.584205 63.74655 
L 231.899957 63.74655 
L 231.899957 63.091404 
L 232.23235 63.091404 
L 232.23235 62.436258 
L 232.463839 62.436258 
L 232.546717 59.815674 
L 232.896312 59.815674 
L 232.945109 58.505381 
L 233.327269 58.505381 
L 233.327269 57.850235 
L 233.638668 57.850235 
L 233.638668 57.195089 
L 235.075865 57.195089 
L 235.075865 56.539943 
L 235.935578 56.539943 
L 235.935578 55.884797 
L 236.239461 55.884797 
L 236.239461 55.229651 
L 236.71689 55.229651 
L 236.71689 54.574505 
L 236.892273 54.574505 
L 236.948497 53.264213 
L 237.199932 53.264213 
L 237.199932 52.609066 
L 237.739796 52.609066 
L 237.739796 51.95392 
L 237.974536 51.95392 
L 237.974536 51.298774 
L 239.14146 51.298774 
L 239.14146 50.643628 
L 239.300584 50.643628 
L 239.316094 49.333336 
L 240.003655 49.333336 
L 240.063767 47.367898 
L 240.130527 47.367898 
L 240.229251 44.747313 
L 240.247015 44.747313 
L 240.247015 44.092167 
L 240.439678 44.092167 
L 240.439678 43.437021 
L 240.730401 43.437021 
L 240.807656 42.126729 
L 240.878484 42.126729 
L 240.985276 38.850998 
L 241.21727 38.850998 
L 241.229023 37.540706 
L 241.329154 37.540706 
L 241.329154 36.88556 
L 241.524592 36.88556 
L 241.524592 36.230414 
L 242.120261 36.230414 
L 242.120261 35.575268 
L 242.879238 35.575268 
L 242.879238 34.920122 
L 243.13479 34.920122 
L 243.13479 34.264976 
L 249.632451 34.264976 
L 249.632451 33.60983 
L 250.723117 33.60983 
L 250.723117 32.954683 
L 251.50591 32.954683 
L 251.50591 32.299537 
L 253.230972 32.299537 
L 253.230972 31.644391 
L 261.864474 31.644391 
L 261.864474 30.989245 
L 262.616835 30.989245 
L 262.616835 30.334099 
L 338.688 30.334099 
L 338.688 30.334099 
" style="fill:none;stroke:#000080;stroke-linecap:square;stroke-width:1.5;"/>
   </g>
   <g id="line2d_31">
    <defs>
     <path d="M 0 6 
C 1.591219 6 3.117479 5.367802 4.242641 4.242641 
C 5.367802 3.117479 6 1.591219 6 0 
C 6 -1.591219 5.367802 -3.117479 4.242641 -4.242641 
C 3.117479 -5.367802 1.591219 -6 0 -6 
C -1.591219 -6 -3.117479 -5.367802 -4.242641 -4.242641 
C -5.367802 -3.117479 -6 -1.591219 -6 0 
C -6 1.591219 -5.367802 3.117479 -4.242641 4.242641 
C -3.117479 5.367802 -1.591219 6 0 6 
z
" id="m472d496c4a" style="stroke:#000080;stroke-width:1.5;"/>
    </defs>
    <g>
     <use style="fill-opacity:0;stroke:#000080;stroke-width:1.5;" x="171.483639" xlink:href="#m472d496c4a" y="252.428627"/>
     <use style="fill-opacity:0;stroke:#000080;stroke-width:1.5;" x="196.624451" xlink:href="#m472d496c4a" y="167.91478"/>
     <use style="fill-opacity:0;stroke:#000080;stroke-width:1.5;" x="240.157417" xlink:href="#m472d496c4a" y="45.402459"/>
     <use style="fill-opacity:0;stroke:#000080;stroke-width:1.5;" x="262.616835" xlink:href="#m472d496c4a" y="30.334099"/>
     <use style="fill-opacity:0;stroke:#000080;stroke-width:1.5;" x="338.688" xlink:href="#m472d496c4a" y="30.334099"/>
    </g>
   </g>
   <g id="line2d_32">
    <path style="fill:none;stroke:#000080;stroke-linecap:square;stroke-width:1.5;"/>
    <g/>
   </g>
   <g id="line2d_33">
    <path clip-path="url(#p4f725f7af8)" d="M 236.982965 53.264213 
" style="fill:none;stroke:#000080;stroke-linecap:square;stroke-width:1.5;"/>
    <defs>
     <path d="M -12 12 
L 12 -12 
M -12 -12 
L 12 12 
" id="mf20f6b8642" style="stroke:#000080;"/>
    </defs>
    <g clip-path="url(#p4f725f7af8)">
     <use style="fill:#000080;stroke:#000080;" x="236.982965" xlink:href="#mf20f6b8642" y="53.264213"/>
    </g>
   </g>
   <g id="line2d_34">
    <defs>
     <path d="M 0 1.5 
C 0.397805 1.5 0.77937 1.341951 1.06066 1.06066 
C 1.341951 0.77937 1.5 0.397805 1.5 0 
C 1.5 -0.397805 1.341951 -0.77937 1.06066 -1.06066 
C 0.77937 -1.341951 0.397805 -1.5 0 -1.5 
C -0.397805 -1.5 -0.77937 -1.341951 -1.06066 -1.06066 
C -1.341951 -0.77937 -1.5 -0.397805 -1.5 0 
C -1.5 0.397805 -1.341951 0.77937 -1.06066 1.06066 
C -0.77937 1.341951 -0.397805 1.5 0 1.5 
z
" id="m49ef39070a" style="stroke:#ff00ff;"/>
    </defs>
    <g>
     <use style="fill:#ff00ff;stroke:#ff00ff;" x="281.434547" xlink:href="#m49ef39070a" y="30.334099"/>
     <use style="fill:#ff00ff;stroke:#ff00ff;" x="281.434547" xlink:href="#m49ef39070a" y="30.334099"/>
    </g>
   </g>
   <g id="line2d_35">
    <path d="M 131.540579 298.944 
L 131.540579 297.633708 
L 132.422528 297.633708 
L 132.422528 296.978562 
L 136.5324 296.978562 
L 136.5324 296.323416 
L 138.426341 296.323416 
L 138.426341 295.66827 
L 139.887228 295.66827 
L 139.887228 295.013123 
L 140.64889 295.013123 
L 140.64889 294.357977 
L 144.099593 294.357977 
L 144.099593 293.702831 
L 144.414696 293.702831 
L 144.414696 293.047685 
L 144.676946 293.047685 
L 144.676946 292.392539 
L 145.418169 292.392539 
L 145.48607 290.427101 
L 145.621085 290.427101 
L 145.621085 289.771955 
L 145.865929 289.771955 
L 145.865929 289.116809 
L 146.324022 289.116809 
L 146.324022 288.461662 
L 148.23877 288.461662 
L 148.23877 287.806516 
L 148.919783 287.806516 
L 149.030744 285.841078 
L 149.122675 285.841078 
L 149.122675 285.185932 
L 149.323233 285.185932 
L 149.323233 284.530786 
L 149.485628 284.530786 
L 149.485628 283.87564 
L 149.876341 283.87564 
L 149.928949 282.565348 
L 150.94908 282.565348 
L 150.94908 281.910201 
L 151.178764 281.910201 
L 151.178764 281.255055 
L 151.692666 281.255055 
L 151.708484 279.944763 
L 152.00633 279.944763 
L 152.00633 279.289617 
L 152.511852 279.289617 
L 152.511852 278.634471 
L 153.090987 278.634471 
L 153.090987 277.979325 
L 153.890309 277.979325 
L 153.890309 277.324179 
L 154.480132 277.324179 
L 154.533999 276.013887 
L 154.667942 276.013887 
L 154.694607 274.703594 
L 154.998366 274.703594 
L 155.102793 273.393302 
L 155.245367 273.393302 
L 155.296925 271.427864 
L 155.691409 271.427864 
L 155.691409 270.772718 
L 156.345845 270.772718 
L 156.345845 270.117572 
L 156.882847 270.117572 
L 156.894595 268.807279 
L 157.104709 268.807279 
L 157.174189 267.496987 
L 157.831925 267.496987 
L 157.831925 266.841841 
L 158.140788 266.841841 
L 158.140788 266.186695 
L 158.868869 266.186695 
L 158.952561 264.876403 
L 159.547605 264.876403 
L 159.547605 264.221257 
L 159.867418 264.221257 
L 159.867418 263.566111 
L 160.074152 263.566111 
L 160.093714 262.255818 
L 161.420284 262.255818 
L 161.465522 260.945526 
L 161.716709 260.945526 
L 161.814408 259.635234 
L 161.867469 259.635234 
L 161.867469 258.980088 
L 162.440724 258.980088 
L 162.440724 258.324942 
L 162.854457 258.324942 
L 162.854457 257.669796 
L 163.086542 257.669796 
L 163.086542 257.01465 
L 163.49345 257.01465 
L 163.541647 255.704357 
L 163.84384 255.704357 
L 163.84384 255.049211 
L 164.660132 255.049211 
L 164.705214 253.738919 
L 164.876958 253.738919 
L 164.876958 253.083773 
L 165.010195 253.083773 
L 165.010195 252.428627 
L 165.697012 252.428627 
L 165.803027 250.463189 
L 166.855717 250.463189 
L 166.928532 249.152896 
L 167.119055 249.152896 
L 167.203791 247.842604 
L 167.46837 247.842604 
L 167.46837 247.187458 
L 167.873511 247.187458 
L 167.873511 246.532312 
L 168.22045 246.532312 
L 168.324419 245.22202 
L 168.342703 245.22202 
L 168.342703 244.566874 
L 169.181091 244.566874 
L 169.291045 243.256582 
L 169.548731 243.256582 
L 169.616809 241.946289 
L 170.666063 241.946289 
L 170.703344 240.635997 
L 170.893823 240.635997 
L 170.893823 239.980851 
L 172.07384 239.980851 
L 172.07384 239.325705 
L 172.347097 239.325705 
L 172.380955 237.360267 
L 172.501342 237.360267 
L 172.501342 236.705121 
L 174.161738 236.705121 
L 174.161738 236.049974 
L 175.569368 236.049974 
L 175.569368 235.394828 
L 178.066286 235.394828 
L 178.066286 234.739682 
L 178.58177 234.739682 
L 178.649364 233.42939 
L 178.756973 233.42939 
L 178.833909 232.119098 
L 179.01652 232.119098 
L 179.01652 231.463952 
L 179.41166 231.463952 
L 179.41166 230.808806 
L 179.572362 230.808806 
L 179.572362 230.15366 
L 179.983387 230.15366 
L 179.983387 229.498513 
L 180.311505 229.498513 
L 180.311505 228.843367 
L 180.878686 228.843367 
L 180.878686 228.188221 
L 181.39345 228.188221 
L 181.39345 227.533075 
L 182.165775 227.533075 
L 182.165775 226.877929 
L 183.237777 226.877929 
L 183.237777 226.222783 
L 183.390086 226.222783 
L 183.390086 225.567637 
L 183.589424 225.567637 
L 183.589424 224.912491 
L 185.015972 224.912491 
L 185.015972 224.257345 
L 186.027987 224.257345 
L 186.027987 223.602199 
L 186.186347 223.602199 
L 186.186347 222.947052 
L 186.319397 222.947052 
L 186.319397 222.291906 
L 186.490213 222.291906 
L 186.490213 221.63676 
L 187.190324 221.63676 
L 187.190324 220.981614 
L 187.338516 220.981614 
L 187.338516 220.326468 
L 187.815615 220.326468 
L 187.815615 219.671322 
L 188.090628 219.671322 
L 188.090628 219.016176 
L 188.248911 219.016176 
L 188.248911 218.36103 
L 188.603216 218.36103 
L 188.603216 217.705884 
L 189.186172 217.705884 
L 189.186172 217.050738 
L 189.447817 217.050738 
L 189.447817 216.395591 
L 189.725266 216.395591 
L 189.725266 215.740445 
L 191.158922 215.740445 
L 191.158922 215.085299 
L 191.397641 215.085299 
L 191.397641 214.430153 
L 192.144653 214.430153 
L 192.144653 213.775007 
L 192.517157 213.775007 
L 192.517157 213.119861 
L 193.99404 213.119861 
L 194.075011 211.809569 
L 194.301947 211.809569 
L 194.301947 211.154423 
L 195.001256 211.154423 
L 195.001256 210.499277 
L 195.169499 210.499277 
L 195.26733 209.188984 
L 195.49349 209.188984 
L 195.49349 208.533838 
L 195.874497 208.533838 
L 195.874497 207.878692 
L 196.172186 207.878692 
L 196.189467 206.5684 
L 196.64129 206.5684 
L 196.75035 204.602962 
L 197.030048 204.602962 
L 197.030048 203.292669 
L 197.331928 203.292669 
L 197.435617 201.982377 
L 197.445952 201.982377 
L 197.445952 201.327231 
L 197.84656 201.327231 
L 197.84656 200.672085 
L 198.054 200.672085 
L 198.054 199.361793 
L 198.601853 199.361793 
L 198.656561 198.051501 
L 198.749491 198.051501 
L 198.779294 196.741208 
L 198.928607 196.741208 
L 198.928607 196.086062 
L 199.270042 196.086062 
L 199.270042 195.430916 
L 199.492987 195.430916 
L 199.492987 194.77577 
L 199.658598 194.77577 
L 199.658598 194.120624 
L 199.843674 194.120624 
L 199.843674 193.465478 
L 200.010959 193.465478 
L 200.107805 192.155186 
L 200.15013 192.155186 
L 200.242298 190.189747 
L 200.309644 190.189747 
L 200.402913 188.879455 
L 200.456125 188.879455 
L 200.475434 187.569163 
L 201.485793 187.569163 
L 201.485793 186.914017 
L 201.744305 186.914017 
L 201.763136 184.293433 
L 201.950341 184.293433 
L 201.986657 182.98314 
L 202.19249 182.98314 
L 202.258822 181.672848 
L 203.159437 181.672848 
L 203.23703 179.70741 
L 203.310178 179.70741 
L 203.366678 177.086825 
L 203.691459 177.086825 
L 203.691459 176.431679 
L 203.860751 176.431679 
L 203.965335 175.121387 
L 204.496679 175.121387 
L 204.563214 173.811095 
L 204.848632 173.811095 
L 204.871145 172.500803 
L 205.052437 172.500803 
L 205.052437 171.845657 
L 205.181839 171.845657 
L 205.238473 170.535364 
L 205.57591 170.535364 
L 205.657826 167.91478 
L 205.873695 167.91478 
L 205.873695 167.259634 
L 206.284446 167.259634 
L 206.284446 166.604488 
L 206.502306 166.604488 
L 206.597663 165.294196 
L 206.620742 165.294196 
L 206.659366 163.983903 
L 207.118277 163.983903 
L 207.118277 163.328757 
L 207.571203 163.328757 
L 207.571203 162.673611 
L 208.847296 162.673611 
L 208.847296 162.018465 
L 209.020179 162.018465 
L 209.020179 161.363319 
L 209.157378 161.363319 
L 209.157378 160.708173 
L 209.386374 160.708173 
L 209.386374 160.053027 
L 210.130899 160.053027 
L 210.130899 159.397881 
L 210.287722 159.397881 
L 210.287722 158.742735 
L 210.53986 158.742735 
L 210.53986 158.087589 
L 210.918786 158.087589 
L 210.94051 156.777296 
L 211.395215 156.777296 
L 211.468832 154.811858 
L 211.688852 154.811858 
L 211.688852 154.156712 
L 212.627954 154.156712 
L 212.627954 153.501566 
L 213.063264 153.501566 
L 213.137183 152.191274 
L 213.180081 152.191274 
L 213.224731 150.880981 
L 213.475156 150.880981 
L 213.475156 150.225835 
L 213.660077 150.225835 
L 213.660077 149.570689 
L 213.974816 149.570689 
L 213.974816 148.915543 
L 214.256414 148.915543 
L 214.256414 148.260397 
L 214.407684 148.260397 
L 214.49471 146.294959 
L 215.004168 146.294959 
L 215.004168 145.639813 
L 215.144539 145.639813 
L 215.144539 144.984667 
L 215.263137 144.984667 
L 215.325018 143.019228 
L 215.957479 143.019228 
L 216.06201 141.05379 
L 216.707596 141.05379 
L 216.717104 139.743498 
L 216.901292 139.743498 
L 216.9921 138.433206 
L 217.428599 138.433206 
L 217.428599 137.778059 
L 217.964162 137.778059 
L 217.96664 136.467767 
L 218.141659 136.467767 
L 218.14271 135.157475 
L 218.346135 135.157475 
L 218.346135 134.502329 
L 218.459011 134.502329 
L 218.459011 133.847183 
L 218.84556 133.847183 
L 218.84556 133.192037 
L 218.984998 133.192037 
L 219.022349 131.881745 
L 219.110075 131.881745 
L 219.110075 131.226598 
L 219.297337 131.226598 
L 219.297337 130.571452 
L 219.623825 130.571452 
L 219.734828 129.26116 
L 219.831141 129.26116 
L 219.922496 127.950868 
L 219.969888 127.950868 
L 220.028476 126.640576 
L 220.095327 126.640576 
L 220.203067 125.330284 
L 220.528768 125.330284 
L 220.600733 123.364845 
L 220.644802 123.364845 
L 220.644802 122.709699 
L 221.736068 122.709699 
L 221.736068 122.054553 
L 222.511238 122.054553 
L 222.511238 121.399407 
L 222.680057 121.399407 
L 222.770577 120.089115 
L 222.915344 120.089115 
L 222.915344 119.433969 
L 224.634396 119.433969 
L 224.734799 118.123676 
L 225.102308 118.123676 
L 225.102308 117.46853 
L 225.737075 117.46853 
L 225.826833 116.158238 
L 226.203069 116.158238 
L 226.203069 115.503092 
L 226.689587 115.503092 
L 226.689587 114.847946 
L 227.484207 114.847946 
L 227.484207 114.1928 
L 228.504137 114.1928 
L 228.504137 113.537654 
L 228.725923 113.537654 
L 228.725923 112.882508 
L 229.420049 112.882508 
L 229.420049 112.227362 
L 229.590983 112.227362 
L 229.590983 111.572215 
L 230.672221 111.572215 
L 230.672221 110.917069 
L 231.362767 110.917069 
L 231.362767 110.261923 
L 231.635451 110.261923 
L 231.681937 108.951631 
L 231.974777 108.951631 
L 231.974777 108.296485 
L 232.122831 108.296485 
L 232.168038 106.986193 
L 232.709174 106.986193 
L 232.709174 105.675901 
L 233.415058 105.675901 
L 233.415058 105.020754 
L 233.758998 105.020754 
L 233.758998 104.365608 
L 234.317897 104.365608 
L 234.317897 103.710462 
L 234.926616 103.710462 
L 234.926616 103.055316 
L 235.129257 103.055316 
L 235.129257 102.40017 
L 236.600622 102.40017 
L 236.600622 101.745024 
L 236.930372 101.745024 
L 236.930372 101.089878 
L 237.073366 101.089878 
L 237.073366 100.434732 
L 237.674642 100.434732 
L 237.732676 99.12444 
L 238.330187 99.12444 
L 238.412842 97.814147 
L 238.492435 97.814147 
L 238.570472 96.503855 
L 238.846014 96.503855 
L 238.846014 95.848709 
L 238.997992 95.848709 
L 238.997992 95.193563 
L 239.275624 95.193563 
L 239.275624 94.538417 
L 239.474516 94.538417 
L 239.577731 93.228125 
L 240.631779 93.228125 
L 240.631779 92.572979 
L 240.862827 92.572979 
L 240.862827 91.917832 
L 241.13136 91.917832 
L 241.231447 89.952394 
L 241.525417 89.952394 
L 241.525417 89.297248 
L 241.725976 89.297248 
L 241.725976 88.642102 
L 241.943731 88.642102 
L 241.987172 87.33181 
L 242.064046 87.33181 
L 242.09965 86.021518 
L 242.213258 86.021518 
L 242.298705 84.711225 
L 242.463922 84.711225 
L 242.550313 82.090641 
L 242.995774 82.090641 
L 242.995774 81.435495 
L 243.385374 81.435495 
L 243.385374 80.780349 
L 243.735315 80.780349 
L 243.735315 80.125203 
L 244.881948 80.125203 
L 244.92281 78.81491 
L 245.5582 78.81491 
L 245.612019 77.504618 
L 245.762138 77.504618 
L 245.762138 76.849472 
L 245.991309 76.849472 
L 245.996239 75.53918 
L 246.180378 75.53918 
L 246.203947 74.228888 
L 246.52239 74.228888 
L 246.6293 72.263449 
L 246.673129 72.263449 
L 246.673129 71.608303 
L 246.794036 71.608303 
L 246.881169 69.642865 
L 246.95421 69.642865 
L 247.017683 67.677427 
L 247.267012 67.677427 
L 247.267012 67.022281 
L 247.759811 67.022281 
L 247.796095 65.056842 
L 247.931022 65.056842 
L 247.931022 64.401696 
L 248.089846 64.401696 
L 248.089846 63.74655 
L 248.277697 63.74655 
L 248.277697 63.091404 
L 248.575386 63.091404 
L 248.575386 62.436258 
L 248.79908 62.436258 
L 248.859111 61.125966 
L 249.24861 61.125966 
L 249.24861 60.47082 
L 249.602652 60.47082 
L 249.69683 59.160527 
L 249.758085 59.160527 
L 249.80251 57.850235 
L 250.044958 57.850235 
L 250.044958 57.195089 
L 250.517999 57.195089 
L 250.628326 55.884797 
L 250.797126 55.884797 
L 250.863472 54.574505 
L 251.182802 54.574505 
L 251.182802 53.919359 
L 251.309741 53.919359 
L 251.309741 53.264213 
L 251.47617 53.264213 
L 251.582316 51.298774 
L 251.743727 51.298774 
L 251.743727 50.643628 
L 252.062836 50.643628 
L 252.062836 49.988482 
L 252.320275 49.988482 
L 252.320275 49.333336 
L 253.014235 49.333336 
L 253.014235 48.67819 
L 254.696269 48.67819 
L 254.796067 47.367898 
L 255.971689 47.367898 
L 255.971689 46.712752 
L 257.356774 46.712752 
L 257.356774 46.057605 
L 257.7608 46.057605 
L 257.7608 45.402459 
L 258.024644 45.402459 
L 258.024644 44.747313 
L 258.697558 44.747313 
L 258.697558 44.092167 
L 259.121804 44.092167 
L 259.121804 43.437021 
L 259.559929 43.437021 
L 259.559929 42.781875 
L 260.09854 42.781875 
L 260.09854 42.126729 
L 260.811366 42.126729 
L 260.811366 41.471583 
L 262.376826 41.471583 
L 262.416877 40.161291 
L 262.947851 40.161291 
L 262.958059 38.850998 
L 263.144553 38.850998 
L 263.144553 38.195852 
L 263.731554 38.195852 
L 263.731554 37.540706 
L 264.404882 37.540706 
L 264.404882 36.88556 
L 265.078157 36.88556 
L 265.078157 36.230414 
L 265.213557 36.230414 
L 265.213557 35.575268 
L 265.490431 35.575268 
L 265.490431 34.920122 
L 266.778764 34.920122 
L 266.778764 34.264976 
L 269.1223 34.264976 
L 269.1223 33.60983 
L 269.670511 33.60983 
L 269.670511 32.954683 
L 270.304607 32.954683 
L 270.304607 32.299537 
L 271.673312 32.299537 
L 271.673312 31.644391 
L 275.820377 31.644391 
L 275.820377 30.989245 
L 281.434547 30.989245 
L 281.434547 30.334099 
L 338.688 30.334099 
L 338.688 30.334099 
" style="fill:none;stroke:#ff00ff;stroke-linecap:square;stroke-width:1.5;"/>
   </g>
   <g id="line2d_36">
    <defs>
     <path d="M -0 8.485281 
L 5.091169 0 
L 0 -8.485281 
L -5.091169 -0 
z
" id="md6100849d6" style="stroke:#ff00ff;stroke-linejoin:miter;stroke-width:1.5;"/>
    </defs>
    <g>
     <use style="fill-opacity:0;stroke:#ff00ff;stroke-linejoin:miter;stroke-width:1.5;" x="168.342703" xlink:href="#md6100849d6" y="244.566874"/>
     <use style="fill-opacity:0;stroke:#ff00ff;stroke-linejoin:miter;stroke-width:1.5;" x="218.84556" xlink:href="#md6100849d6" y="133.192037"/>
     <use style="fill-opacity:0;stroke:#ff00ff;stroke-linejoin:miter;stroke-width:1.5;" x="260.811366" xlink:href="#md6100849d6" y="41.471583"/>
     <use style="fill-opacity:0;stroke:#ff00ff;stroke-linejoin:miter;stroke-width:1.5;" x="281.434547" xlink:href="#md6100849d6" y="30.334099"/>
     <use style="fill-opacity:0;stroke:#ff00ff;stroke-linejoin:miter;stroke-width:1.5;" x="338.688" xlink:href="#md6100849d6" y="30.334099"/>
    </g>
   </g>
   <g id="line2d_37">
    <path style="fill:none;stroke:#ff00ff;stroke-linecap:square;stroke-width:1.5;"/>
    <g/>
   </g>
   <g id="line2d_38">
    <path clip-path="url(#p4f725f7af8)" d="M 240.551606 93.228125 
" style="fill:none;stroke:#ff00ff;stroke-linecap:square;stroke-width:1.5;"/>
    <defs>
     <path d="M -12 12 
L 12 -12 
M -12 -12 
L 12 12 
" id="m63a60e52c1" style="stroke:#ff00ff;"/>
    </defs>
    <g clip-path="url(#p4f725f7af8)">
     <use style="fill:#ff00ff;stroke:#ff00ff;" x="240.551606" xlink:href="#m63a60e52c1" y="93.228125"/>
    </g>
   </g>
   <g id="line2d_39">
    <path d="M 338.688 30.334099 
L 369.60768 293.571802 
" style="fill:none;stroke:#ff00ff;stroke-linecap:square;stroke-width:1.5;"/>
    <g>
     <use style="fill-opacity:0;stroke:#ff00ff;stroke-linejoin:miter;stroke-width:1.5;" x="338.688" xlink:href="#md6100849d6" y="30.334099"/>
     <use style="fill-opacity:0;stroke:#ff00ff;stroke-linejoin:miter;stroke-width:1.5;" x="369.60768" xlink:href="#md6100849d6" y="293.571802"/>
    </g>
   </g>
   <g id="line2d_40">
    <path d="M 338.688 30.334099 
L 369.60768 35.706297 
" style="fill:none;stroke:#000080;stroke-linecap:square;stroke-width:1.5;"/>
    <g>
     <use style="fill-opacity:0;stroke:#000080;stroke-width:1.5;" x="338.688" xlink:href="#m472d496c4a" y="30.334099"/>
     <use style="fill-opacity:0;stroke:#000080;stroke-width:1.5;" x="369.60768" xlink:href="#m472d496c4a" y="35.706297"/>
    </g>
   </g>
   <g id="line2d_41">
    <path d="M 338.688 298.944 
L 338.688 30.334099 
" style="fill:none;stroke:#000000;stroke-linecap:square;stroke-width:1.5;"/>
   </g>
   <g id="patch_3">
    <path d="M 57.6 298.944 
L 57.6 27.648 
" style="fill:none;stroke:#000000;stroke-linecap:square;stroke-linejoin:miter;stroke-width:0.8;"/>
   </g>
   <g id="patch_4">
    <path d="M 338.688 298.944 
L 338.688 27.648 
" style="fill:none;stroke:#000000;stroke-linecap:square;stroke-linejoin:miter;stroke-width:0.8;"/>
   </g>
   <g id="patch_5">
    <path d="M 57.6 298.944 
L 338.688 298.944 
" style="fill:none;stroke:#000000;stroke-linecap:square;stroke-linejoin:miter;stroke-width:0.8;"/>
   </g>
   <g id="patch_6">
    <path d="M 57.6 27.648 
L 338.688 27.648 
" style="fill:none;stroke:#000000;stroke-linecap:square;stroke-linejoin:miter;stroke-width:0.8;"/>
   </g>
   <g id="text_13">
    <!-- al cmaes old -->
    <g transform="translate(375.22944 298.262739)scale(0.17 -0.17)">
     <use xlink:href="#DejaVuSans-97"/>
     <use x="61.279297" xlink:href="#DejaVuSans-108"/>
     <use x="89.0625" xlink:href="#DejaVuSans-32"/>
     <use x="120.849609" xlink:href="#DejaVuSans-99"/>
     <use x="175.830078" xlink:href="#DejaVuSans-109"/>
     <use x="273.242188" xlink:href="#DejaVuSans-97"/>
     <use x="334.521484" xlink:href="#DejaVuSans-101"/>
     <use x="396.044922" xlink:href="#DejaVuSans-115"/>
     <use x="448.144531" xlink:href="#DejaVuSans-32"/>
     <use x="479.931641" xlink:href="#DejaVuSans-111"/>
     <use x="541.113281" xlink:href="#DejaVuSans-108"/>
     <use x="568.896484" xlink:href="#DejaVuSans-100"/>
    </g>
   </g>
   <g id="text_14">
    <!-- al cmaes new -->
    <g transform="translate(375.22944 40.397235)scale(0.17 -0.17)">
     <defs>
      <path d="M 4.203125 54.6875 
L 13.1875 54.6875 
L 24.421875 12.015625 
L 35.59375 54.6875 
L 46.1875 54.6875 
L 57.421875 12.015625 
L 68.609375 54.6875 
L 77.59375 54.6875 
L 63.28125 0 
L 52.6875 0 
L 40.921875 44.828125 
L 29.109375 0 
L 18.5 0 
z
" id="DejaVuSans-119"/>
     </defs>
     <use xlink:href="#DejaVuSans-97"/>
     <use x="61.279297" xlink:href="#DejaVuSans-108"/>
     <use x="89.0625" xlink:href="#DejaVuSans-32"/>
     <use x="120.849609" xlink:href="#DejaVuSans-99"/>
     <use x="175.830078" xlink:href="#DejaVuSans-109"/>
     <use x="273.242188" xlink:href="#DejaVuSans-97"/>
     <use x="334.521484" xlink:href="#DejaVuSans-101"/>
     <use x="396.044922" xlink:href="#DejaVuSans-115"/>
     <use x="448.144531" xlink:href="#DejaVuSans-32"/>
     <use x="479.931641" xlink:href="#DejaVuSans-110"/>
     <use x="543.310547" xlink:href="#DejaVuSans-101"/>
     <use x="604.833984" xlink:href="#DejaVuSans-119"/>
    </g>
   </g>
   <g id="text_15">
    <!-- bbob-constrained f23, 10-D -->
    <g transform="translate(60.41088 38.111366)scale(0.102 -0.102)">
     <defs>
      <path d="M 48.6875 27.296875 
Q 48.6875 37.203125 44.609375 42.84375 
Q 40.53125 48.484375 33.40625 48.484375 
Q 26.265625 48.484375 22.1875 42.84375 
Q 18.109375 37.203125 18.109375 27.296875 
Q 18.109375 17.390625 22.1875 11.75 
Q 26.265625 6.109375 33.40625 6.109375 
Q 40.53125 6.109375 44.609375 11.75 
Q 48.6875 17.390625 48.6875 27.296875 
z
M 18.109375 46.390625 
Q 20.953125 51.265625 25.265625 53.625 
Q 29.59375 56 35.59375 56 
Q 45.5625 56 51.78125 48.09375 
Q 58.015625 40.1875 58.015625 27.296875 
Q 58.015625 14.40625 51.78125 6.484375 
Q 45.5625 -1.421875 35.59375 -1.421875 
Q 29.59375 -1.421875 25.265625 0.953125 
Q 20.953125 3.328125 18.109375 8.203125 
L 18.109375 0 
L 9.078125 0 
L 9.078125 75.984375 
L 18.109375 75.984375 
z
" id="DejaVuSans-98"/>
      <path d="M 40.578125 39.3125 
Q 47.65625 37.796875 51.625 33 
Q 55.609375 28.21875 55.609375 21.1875 
Q 55.609375 10.40625 48.1875 4.484375 
Q 40.765625 -1.421875 27.09375 -1.421875 
Q 22.515625 -1.421875 17.65625 -0.515625 
Q 12.796875 0.390625 7.625 2.203125 
L 7.625 11.71875 
Q 11.71875 9.328125 16.59375 8.109375 
Q 21.484375 6.890625 26.8125 6.890625 
Q 36.078125 6.890625 40.9375 10.546875 
Q 45.796875 14.203125 45.796875 21.1875 
Q 45.796875 27.640625 41.28125 31.265625 
Q 36.765625 34.90625 28.71875 34.90625 
L 20.21875 34.90625 
L 20.21875 43.015625 
L 29.109375 43.015625 
Q 36.375 43.015625 40.234375 45.921875 
Q 44.09375 48.828125 44.09375 54.296875 
Q 44.09375 59.90625 40.109375 62.90625 
Q 36.140625 65.921875 28.71875 65.921875 
Q 24.65625 65.921875 20.015625 65.03125 
Q 15.375 64.15625 9.8125 62.3125 
L 9.8125 71.09375 
Q 15.4375 72.65625 20.34375 73.4375 
Q 25.25 74.21875 29.59375 74.21875 
Q 40.828125 74.21875 47.359375 69.109375 
Q 53.90625 64.015625 53.90625 55.328125 
Q 53.90625 49.265625 50.4375 45.09375 
Q 46.96875 40.921875 40.578125 39.3125 
z
" id="DejaVuSans-51"/>
      <path d="M 19.671875 64.796875 
L 19.671875 8.109375 
L 31.59375 8.109375 
Q 46.6875 8.109375 53.6875 14.9375 
Q 60.6875 21.78125 60.6875 36.53125 
Q 60.6875 51.171875 53.6875 57.984375 
Q 46.6875 64.796875 31.59375 64.796875 
z
M 9.8125 72.90625 
L 30.078125 72.90625 
Q 51.265625 72.90625 61.171875 64.09375 
Q 71.09375 55.28125 71.09375 36.53125 
Q 71.09375 17.671875 61.125 8.828125 
Q 51.171875 0 30.078125 0 
L 9.8125 0 
z
" id="DejaVuSans-68"/>
     </defs>
     <use xlink:href="#DejaVuSans-98"/>
     <use x="63.476562" xlink:href="#DejaVuSans-98"/>
     <use x="126.953125" xlink:href="#DejaVuSans-111"/>
     <use x="188.134766" xlink:href="#DejaVuSans-98"/>
     <use x="251.611328" xlink:href="#DejaVuSans-45"/>
     <use x="287.695312" xlink:href="#DejaVuSans-99"/>
     <use x="342.675781" xlink:href="#DejaVuSans-111"/>
     <use x="403.857422" xlink:href="#DejaVuSans-110"/>
     <use x="467.236328" xlink:href="#DejaVuSans-115"/>
     <use x="519.335938" xlink:href="#DejaVuSans-116"/>
     <use x="558.544922" xlink:href="#DejaVuSans-114"/>
     <use x="599.658203" xlink:href="#DejaVuSans-97"/>
     <use x="660.9375" xlink:href="#DejaVuSans-105"/>
     <use x="688.720703" xlink:href="#DejaVuSans-110"/>
     <use x="752.099609" xlink:href="#DejaVuSans-101"/>
     <use x="813.623047" xlink:href="#DejaVuSans-100"/>
     <use x="877.099609" xlink:href="#DejaVuSans-32"/>
     <use x="908.886719" xlink:href="#DejaVuSans-102"/>
     <use x="944.091797" xlink:href="#DejaVuSans-50"/>
     <use x="1007.714844" xlink:href="#DejaVuSans-51"/>
     <use x="1071.337891" xlink:href="#DejaVuSans-44"/>
     <use x="1103.125" xlink:href="#DejaVuSans-32"/>
     <use x="1134.912109" xlink:href="#DejaVuSans-49"/>
     <use x="1198.535156" xlink:href="#DejaVuSans-48"/>
     <use x="1262.158203" xlink:href="#DejaVuSans-45"/>
     <use x="1298.242188" xlink:href="#DejaVuSans-68"/>
    </g>
    <!-- 41 targets: 100..1e-06 -->
    <g transform="translate(60.41088 49.533135)scale(0.102 -0.102)">
     <defs>
      <path d="M 11.71875 12.40625 
L 22.015625 12.40625 
L 22.015625 0 
L 11.71875 0 
z
M 11.71875 51.703125 
L 22.015625 51.703125 
L 22.015625 39.3125 
L 11.71875 39.3125 
z
" id="DejaVuSans-58"/>
     </defs>
     <use xlink:href="#DejaVuSans-52"/>
     <use x="63.623047" xlink:href="#DejaVuSans-49"/>
     <use x="127.246094" xlink:href="#DejaVuSans-32"/>
     <use x="159.033203" xlink:href="#DejaVuSans-116"/>
     <use x="198.242188" xlink:href="#DejaVuSans-97"/>
     <use x="259.521484" xlink:href="#DejaVuSans-114"/>
     <use x="298.884766" xlink:href="#DejaVuSans-103"/>
     <use x="362.361328" xlink:href="#DejaVuSans-101"/>
     <use x="423.884766" xlink:href="#DejaVuSans-116"/>
     <use x="463.09375" xlink:href="#DejaVuSans-115"/>
     <use x="515.193359" xlink:href="#DejaVuSans-58"/>
     <use x="548.884766" xlink:href="#DejaVuSans-32"/>
     <use x="580.671875" xlink:href="#DejaVuSans-49"/>
     <use x="644.294922" xlink:href="#DejaVuSans-48"/>
     <use x="707.917969" xlink:href="#DejaVuSans-48"/>
     <use x="771.541016" xlink:href="#DejaVuSans-46"/>
     <use x="803.328125" xlink:href="#DejaVuSans-46"/>
     <use x="835.115234" xlink:href="#DejaVuSans-49"/>
     <use x="898.738281" xlink:href="#DejaVuSans-101"/>
     <use x="960.261719" xlink:href="#DejaVuSans-45"/>
     <use x="996.345703" xlink:href="#DejaVuSans-48"/>
     <use x="1059.96875" xlink:href="#DejaVuSans-54"/>
    </g>
    <!-- 15 instances -->
    <g transform="translate(60.41088 60.954904)scale(0.102 -0.102)">
     <defs>
      <path d="M 10.796875 72.90625 
L 49.515625 72.90625 
L 49.515625 64.59375 
L 19.828125 64.59375 
L 19.828125 46.734375 
Q 21.96875 47.46875 24.109375 47.828125 
Q 26.265625 48.1875 28.421875 48.1875 
Q 40.625 48.1875 47.75 41.5 
Q 54.890625 34.8125 54.890625 23.390625 
Q 54.890625 11.625 47.5625 5.09375 
Q 40.234375 -1.421875 26.90625 -1.421875 
Q 22.3125 -1.421875 17.546875 -0.640625 
Q 12.796875 0.140625 7.71875 1.703125 
L 7.71875 11.625 
Q 12.109375 9.234375 16.796875 8.0625 
Q 21.484375 6.890625 26.703125 6.890625 
Q 35.15625 6.890625 40.078125 11.328125 
Q 45.015625 15.765625 45.015625 23.390625 
Q 45.015625 31 40.078125 35.4375 
Q 35.15625 39.890625 26.703125 39.890625 
Q 22.75 39.890625 18.8125 39.015625 
Q 14.890625 38.140625 10.796875 36.28125 
z
" id="DejaVuSans-53"/>
     </defs>
     <use xlink:href="#DejaVuSans-49"/>
     <use x="63.623047" xlink:href="#DejaVuSans-53"/>
     <use x="127.246094" xlink:href="#DejaVuSans-32"/>
     <use x="159.033203" xlink:href="#DejaVuSans-105"/>
     <use x="186.816406" xlink:href="#DejaVuSans-110"/>
     <use x="250.195312" xlink:href="#DejaVuSans-115"/>
     <use x="302.294922" xlink:href="#DejaVuSans-116"/>
     <use x="341.503906" xlink:href="#DejaVuSans-97"/>
     <use x="402.783203" xlink:href="#DejaVuSans-110"/>
     <use x="466.162109" xlink:href="#DejaVuSans-99"/>
     <use x="521.142578" xlink:href="#DejaVuSans-101"/>
     <use x="582.666016" xlink:href="#DejaVuSans-115"/>
    </g>
   </g>
   <g id="text_16">
    <!-- v5z33 -->
    <g style="fill:#808080;" transform="translate(183.016656 294.151352)scale(0.1 -0.1)">
     <defs>
      <path d="M 5.515625 54.6875 
L 48.1875 54.6875 
L 48.1875 46.484375 
L 14.40625 7.171875 
L 48.1875 7.171875 
L 48.1875 0 
L 4.296875 0 
L 4.296875 8.203125 
L 38.09375 47.515625 
L 5.515625 47.515625 
z
" id="DejaVuSans-122"/>
     </defs>
     <use xlink:href="#DejaVuSans-118"/>
     <use x="59.179688" xlink:href="#DejaVuSans-53"/>
     <use x="122.802734" xlink:href="#DejaVuSans-122"/>
     <use x="175.292969" xlink:href="#DejaVuSans-51"/>
     <use x="238.916016" xlink:href="#DejaVuSans-51"/>
    </g>
   </g>
   <g id="text_17">
    <!-- 23 Rotated Ellipsoid, n+6 constraints -->
    <g transform="translate(12.336187 21.648)scale(0.2 -0.2)">
     <defs>
      <path d="M 44.390625 34.1875 
Q 47.5625 33.109375 50.5625 29.59375 
Q 53.5625 26.078125 56.59375 19.921875 
L 66.609375 0 
L 56 0 
L 46.6875 18.703125 
Q 43.0625 26.03125 39.671875 28.421875 
Q 36.28125 30.8125 30.421875 30.8125 
L 19.671875 30.8125 
L 19.671875 0 
L 9.8125 0 
L 9.8125 72.90625 
L 32.078125 72.90625 
Q 44.578125 72.90625 50.734375 67.671875 
Q 56.890625 62.453125 56.890625 51.90625 
Q 56.890625 45.015625 53.6875 40.46875 
Q 50.484375 35.9375 44.390625 34.1875 
z
M 19.671875 64.796875 
L 19.671875 38.921875 
L 32.078125 38.921875 
Q 39.203125 38.921875 42.84375 42.21875 
Q 46.484375 45.515625 46.484375 51.90625 
Q 46.484375 58.296875 42.84375 61.546875 
Q 39.203125 64.796875 32.078125 64.796875 
z
" id="DejaVuSans-82"/>
      <path d="M 9.8125 72.90625 
L 55.90625 72.90625 
L 55.90625 64.59375 
L 19.671875 64.59375 
L 19.671875 43.015625 
L 54.390625 43.015625 
L 54.390625 34.71875 
L 19.671875 34.71875 
L 19.671875 8.296875 
L 56.78125 8.296875 
L 56.78125 0 
L 9.8125 0 
z
" id="DejaVuSans-69"/>
     </defs>
     <use xlink:href="#DejaVuSans-50"/>
     <use x="63.623047" xlink:href="#DejaVuSans-51"/>
     <use x="127.246094" xlink:href="#DejaVuSans-32"/>
     <use x="159.033203" xlink:href="#DejaVuSans-82"/>
     <use x="224.015625" xlink:href="#DejaVuSans-111"/>
     <use x="285.197266" xlink:href="#DejaVuSans-116"/>
     <use x="324.40625" xlink:href="#DejaVuSans-97"/>
     <use x="385.685547" xlink:href="#DejaVuSans-116"/>
     <use x="424.894531" xlink:href="#DejaVuSans-101"/>
     <use x="486.417969" xlink:href="#DejaVuSans-100"/>
     <use x="549.894531" xlink:href="#DejaVuSans-32"/>
     <use x="581.681641" xlink:href="#DejaVuSans-69"/>
     <use x="644.865234" xlink:href="#DejaVuSans-108"/>
     <use x="672.648438" xlink:href="#DejaVuSans-108"/>
     <use x="700.431641" xlink:href="#DejaVuSans-105"/>
     <use x="728.214844" xlink:href="#DejaVuSans-112"/>
     <use x="791.691406" xlink:href="#DejaVuSans-115"/>
     <use x="843.791016" xlink:href="#DejaVuSans-111"/>
     <use x="904.972656" xlink:href="#DejaVuSans-105"/>
     <use x="932.755859" xlink:href="#DejaVuSans-100"/>
     <use x="996.232422" xlink:href="#DejaVuSans-44"/>
     <use x="1028.019531" xlink:href="#DejaVuSans-32"/>
     <use x="1059.806641" xlink:href="#DejaVuSans-110"/>
     <use x="1123.185547" xlink:href="#DejaVuSans-43"/>
     <use x="1206.974609" xlink:href="#DejaVuSans-54"/>
     <use x="1270.597656" xlink:href="#DejaVuSans-32"/>
     <use x="1302.384766" xlink:href="#DejaVuSans-99"/>
     <use x="1357.365234" xlink:href="#DejaVuSans-111"/>
     <use x="1418.546875" xlink:href="#DejaVuSans-110"/>
     <use x="1481.925781" xlink:href="#DejaVuSans-115"/>
     <use x="1534.025391" xlink:href="#DejaVuSans-116"/>
     <use x="1573.234375" xlink:href="#DejaVuSans-114"/>
     <use x="1614.347656" xlink:href="#DejaVuSans-97"/>
     <use x="1675.626953" xlink:href="#DejaVuSans-105"/>
     <use x="1703.410156" xlink:href="#DejaVuSans-110"/>
     <use x="1766.789062" xlink:href="#DejaVuSans-116"/>
     <use x="1805.998047" xlink:href="#DejaVuSans-115"/>
    </g>
   </g>
  </g>
 </g>
 <defs>
  <clipPath id="p4f725f7af8">
   <rect height="271.296" width="281.088" x="57.6" y="27.648"/>
  </clipPath>
 </defs>
</svg>
