<?xml version="1.0" encoding="utf-8" standalone="no"?>
<!DOCTYPE svg PUBLIC "-//W3C//DTD SVG 1.1//EN"
  "http://www.w3.org/Graphics/SVG/1.1/DTD/svg11.dtd">
<!-- Created with matplotlib (https://matplotlib.org/) -->
<svg height="345.6pt" version="1.1" viewBox="0 0 460.8 345.6" width="460.8pt" xmlns="http://www.w3.org/2000/svg" xmlns:xlink="http://www.w3.org/1999/xlink">
 <metadata>
  <rdf:RDF xmlns:cc="http://creativecommons.org/ns#" xmlns:dc="http://purl.org/dc/elements/1.1/" xmlns:rdf="http://www.w3.org/1999/02/22-rdf-syntax-ns#">
   <cc:Work>
    <dc:type rdf:resource="http://purl.org/dc/dcmitype/StillImage"/>
    <dc:date>2021-03-02T18:26:08.946838</dc:date>
    <dc:format>image/svg+xml</dc:format>
    <dc:creator>
     <cc:Agent>
      <dc:title>Matplotlib v3.3.3, https://matplotlib.org/</dc:title>
     </cc:Agent>
    </dc:creator>
   </cc:Work>
  </rdf:RDF>
 </metadata>
 <defs>
  <style type="text/css">*{stroke-linecap:butt;stroke-linejoin:round;}</style>
 </defs>
 <g id="figure_1">
  <g id="patch_1">
   <path d="M 0 345.6 
L 460.8 345.6 
L 460.8 0 
L 0 0 
z
" style="fill:#ffffff;"/>
  </g>
  <g id="axes_1">
   <g id="patch_2">
    <path d="M 57.6 298.944 
L 338.688 298.944 
L 338.688 27.648 
L 57.6 27.648 
z
" style="fill:#ffffff;"/>
   </g>
   <g id="matplotlib.axis_1">
    <g id="xtick_1">
     <g id="line2d_1">
      <path clip-path="url(#p6e695aa69f)" d="M 57.6 298.944 
L 57.6 27.648 
" style="fill:none;stroke:#b0b0b0;stroke-linecap:square;stroke-width:0.8;"/>
     </g>
     <g id="line2d_2">
      <defs>
       <path d="M 0 0 
L 0 3.5 
" id="m3dc42a99ca" style="stroke:#000000;stroke-width:0.8;"/>
      </defs>
      <g>
       <use style="stroke:#000000;stroke-width:0.8;" x="57.6" xlink:href="#m3dc42a99ca" y="298.944"/>
      </g>
     </g>
     <g id="text_1">
      <!-- 0 -->
      <g transform="translate(51.2375 321.140875)scale(0.2 -0.2)">
       <defs>
        <path d="M 31.78125 66.40625 
Q 24.171875 66.40625 20.328125 58.90625 
Q 16.5 51.421875 16.5 36.375 
Q 16.5 21.390625 20.328125 13.890625 
Q 24.171875 6.390625 31.78125 6.390625 
Q 39.453125 6.390625 43.28125 13.890625 
Q 47.125 21.390625 47.125 36.375 
Q 47.125 51.421875 43.28125 58.90625 
Q 39.453125 66.40625 31.78125 66.40625 
z
M 31.78125 74.21875 
Q 44.046875 74.21875 50.515625 64.515625 
Q 56.984375 54.828125 56.984375 36.375 
Q 56.984375 17.96875 50.515625 8.265625 
Q 44.046875 -1.421875 31.78125 -1.421875 
Q 19.53125 -1.421875 13.0625 8.265625 
Q 6.59375 17.96875 6.59375 36.375 
Q 6.59375 54.828125 13.0625 64.515625 
Q 19.53125 74.21875 31.78125 74.21875 
z
" id="DejaVuSans-48"/>
       </defs>
       <use xlink:href="#DejaVuSans-48"/>
      </g>
     </g>
    </g>
    <g id="xtick_2">
     <g id="line2d_3">
      <path clip-path="url(#p6e695aa69f)" d="M 137.910857 298.944 
L 137.910857 27.648 
" style="fill:none;stroke:#b0b0b0;stroke-linecap:square;stroke-width:0.8;"/>
     </g>
     <g id="line2d_4">
      <g>
       <use style="stroke:#000000;stroke-width:0.8;" x="137.910857" xlink:href="#m3dc42a99ca" y="298.944"/>
      </g>
     </g>
     <g id="text_2">
      <!-- 2 -->
      <g transform="translate(131.548357 321.140875)scale(0.2 -0.2)">
       <defs>
        <path d="M 19.1875 8.296875 
L 53.609375 8.296875 
L 53.609375 0 
L 7.328125 0 
L 7.328125 8.296875 
Q 12.9375 14.109375 22.625 23.890625 
Q 32.328125 33.6875 34.8125 36.53125 
Q 39.546875 41.84375 41.421875 45.53125 
Q 43.3125 49.21875 43.3125 52.78125 
Q 43.3125 58.59375 39.234375 62.25 
Q 35.15625 65.921875 28.609375 65.921875 
Q 23.96875 65.921875 18.8125 64.3125 
Q 13.671875 62.703125 7.8125 59.421875 
L 7.8125 69.390625 
Q 13.765625 71.78125 18.9375 73 
Q 24.125 74.21875 28.421875 74.21875 
Q 39.75 74.21875 46.484375 68.546875 
Q 53.21875 62.890625 53.21875 53.421875 
Q 53.21875 48.921875 51.53125 44.890625 
Q 49.859375 40.875 45.40625 35.40625 
Q 44.1875 33.984375 37.640625 27.21875 
Q 31.109375 20.453125 19.1875 8.296875 
z
" id="DejaVuSans-50"/>
       </defs>
       <use xlink:href="#DejaVuSans-50"/>
      </g>
     </g>
    </g>
    <g id="xtick_3">
     <g id="line2d_5">
      <path clip-path="url(#p6e695aa69f)" d="M 218.221714 298.944 
L 218.221714 27.648 
" style="fill:none;stroke:#b0b0b0;stroke-linecap:square;stroke-width:0.8;"/>
     </g>
     <g id="line2d_6">
      <g>
       <use style="stroke:#000000;stroke-width:0.8;" x="218.221714" xlink:href="#m3dc42a99ca" y="298.944"/>
      </g>
     </g>
     <g id="text_3">
      <!-- 4 -->
      <g transform="translate(211.859214 321.140875)scale(0.2 -0.2)">
       <defs>
        <path d="M 37.796875 64.3125 
L 12.890625 25.390625 
L 37.796875 25.390625 
z
M 35.203125 72.90625 
L 47.609375 72.90625 
L 47.609375 25.390625 
L 58.015625 25.390625 
L 58.015625 17.1875 
L 47.609375 17.1875 
L 47.609375 0 
L 37.796875 0 
L 37.796875 17.1875 
L 4.890625 17.1875 
L 4.890625 26.703125 
z
" id="DejaVuSans-52"/>
       </defs>
       <use xlink:href="#DejaVuSans-52"/>
      </g>
     </g>
    </g>
    <g id="xtick_4">
     <g id="line2d_7">
      <path clip-path="url(#p6e695aa69f)" d="M 298.532571 298.944 
L 298.532571 27.648 
" style="fill:none;stroke:#b0b0b0;stroke-linecap:square;stroke-width:0.8;"/>
     </g>
     <g id="line2d_8">
      <g>
       <use style="stroke:#000000;stroke-width:0.8;" x="298.532571" xlink:href="#m3dc42a99ca" y="298.944"/>
      </g>
     </g>
     <g id="text_4">
      <!-- 6 -->
      <g transform="translate(292.170071 321.140875)scale(0.2 -0.2)">
       <defs>
        <path d="M 33.015625 40.375 
Q 26.375 40.375 22.484375 35.828125 
Q 18.609375 31.296875 18.609375 23.390625 
Q 18.609375 15.53125 22.484375 10.953125 
Q 26.375 6.390625 33.015625 6.390625 
Q 39.65625 6.390625 43.53125 10.953125 
Q 47.40625 15.53125 47.40625 23.390625 
Q 47.40625 31.296875 43.53125 35.828125 
Q 39.65625 40.375 33.015625 40.375 
z
M 52.59375 71.296875 
L 52.59375 62.3125 
Q 48.875 64.0625 45.09375 64.984375 
Q 41.3125 65.921875 37.59375 65.921875 
Q 27.828125 65.921875 22.671875 59.328125 
Q 17.53125 52.734375 16.796875 39.40625 
Q 19.671875 43.65625 24.015625 45.921875 
Q 28.375 48.1875 33.59375 48.1875 
Q 44.578125 48.1875 50.953125 41.515625 
Q 57.328125 34.859375 57.328125 23.390625 
Q 57.328125 12.15625 50.6875 5.359375 
Q 44.046875 -1.421875 33.015625 -1.421875 
Q 20.359375 -1.421875 13.671875 8.265625 
Q 6.984375 17.96875 6.984375 36.375 
Q 6.984375 53.65625 15.1875 63.9375 
Q 23.390625 74.21875 37.203125 74.21875 
Q 40.921875 74.21875 44.703125 73.484375 
Q 48.484375 72.75 52.59375 71.296875 
z
" id="DejaVuSans-54"/>
       </defs>
       <use xlink:href="#DejaVuSans-54"/>
      </g>
     </g>
    </g>
    <g id="xtick_5">
     <g id="line2d_9">
      <path clip-path="url(#p6e695aa69f)" d="M 97.755429 298.944 
L 97.755429 27.648 
" style="fill:none;stroke:#b0b0b0;stroke-linecap:square;stroke-width:0.8;"/>
     </g>
     <g id="line2d_10">
      <defs>
       <path d="M 0 0 
L 0 2 
" id="mabd6e85180" style="stroke:#000000;stroke-width:0.6;"/>
      </defs>
      <g>
       <use style="stroke:#000000;stroke-width:0.6;" x="97.755429" xlink:href="#mabd6e85180" y="298.944"/>
      </g>
     </g>
    </g>
    <g id="xtick_6">
     <g id="line2d_11">
      <path clip-path="url(#p6e695aa69f)" d="M 178.066286 298.944 
L 178.066286 27.648 
" style="fill:none;stroke:#b0b0b0;stroke-linecap:square;stroke-width:0.8;"/>
     </g>
     <g id="line2d_12">
      <g>
       <use style="stroke:#000000;stroke-width:0.6;" x="178.066286" xlink:href="#mabd6e85180" y="298.944"/>
      </g>
     </g>
    </g>
    <g id="xtick_7">
     <g id="line2d_13">
      <path clip-path="url(#p6e695aa69f)" d="M 258.377143 298.944 
L 258.377143 27.648 
" style="fill:none;stroke:#b0b0b0;stroke-linecap:square;stroke-width:0.8;"/>
     </g>
     <g id="line2d_14">
      <g>
       <use style="stroke:#000000;stroke-width:0.6;" x="258.377143" xlink:href="#mabd6e85180" y="298.944"/>
      </g>
     </g>
    </g>
    <g id="xtick_8">
     <g id="line2d_15">
      <path clip-path="url(#p6e695aa69f)" d="M 338.688 298.944 
L 338.688 27.648 
" style="fill:none;stroke:#b0b0b0;stroke-linecap:square;stroke-width:0.8;"/>
     </g>
     <g id="line2d_16">
      <g>
       <use style="stroke:#000000;stroke-width:0.6;" x="338.688" xlink:href="#mabd6e85180" y="298.944"/>
      </g>
     </g>
    </g>
    <g id="text_5">
     <!-- log10(# (f+g)-evals / dimension) -->
     <g transform="translate(58.145016 342.217594)scale(0.17 -0.17)">
      <defs>
       <path d="M 9.421875 75.984375 
L 18.40625 75.984375 
L 18.40625 0 
L 9.421875 0 
z
" id="DejaVuSans-108"/>
       <path d="M 30.609375 48.390625 
Q 23.390625 48.390625 19.1875 42.75 
Q 14.984375 37.109375 14.984375 27.296875 
Q 14.984375 17.484375 19.15625 11.84375 
Q 23.34375 6.203125 30.609375 6.203125 
Q 37.796875 6.203125 41.984375 11.859375 
Q 46.1875 17.53125 46.1875 27.296875 
Q 46.1875 37.015625 41.984375 42.703125 
Q 37.796875 48.390625 30.609375 48.390625 
z
M 30.609375 56 
Q 42.328125 56 49.015625 48.375 
Q 55.71875 40.765625 55.71875 27.296875 
Q 55.71875 13.875 49.015625 6.21875 
Q 42.328125 -1.421875 30.609375 -1.421875 
Q 18.84375 -1.421875 12.171875 6.21875 
Q 5.515625 13.875 5.515625 27.296875 
Q 5.515625 40.765625 12.171875 48.375 
Q 18.84375 56 30.609375 56 
z
" id="DejaVuSans-111"/>
       <path d="M 45.40625 27.984375 
Q 45.40625 37.75 41.375 43.109375 
Q 37.359375 48.484375 30.078125 48.484375 
Q 22.859375 48.484375 18.828125 43.109375 
Q 14.796875 37.75 14.796875 27.984375 
Q 14.796875 18.265625 18.828125 12.890625 
Q 22.859375 7.515625 30.078125 7.515625 
Q 37.359375 7.515625 41.375 12.890625 
Q 45.40625 18.265625 45.40625 27.984375 
z
M 54.390625 6.78125 
Q 54.390625 -7.171875 48.1875 -13.984375 
Q 42 -20.796875 29.203125 -20.796875 
Q 24.46875 -20.796875 20.265625 -20.09375 
Q 16.0625 -19.390625 12.109375 -17.921875 
L 12.109375 -9.1875 
Q 16.0625 -11.328125 19.921875 -12.34375 
Q 23.78125 -13.375 27.78125 -13.375 
Q 36.625 -13.375 41.015625 -8.765625 
Q 45.40625 -4.15625 45.40625 5.171875 
L 45.40625 9.625 
Q 42.625 4.78125 38.28125 2.390625 
Q 33.9375 0 27.875 0 
Q 17.828125 0 11.671875 7.65625 
Q 5.515625 15.328125 5.515625 27.984375 
Q 5.515625 40.671875 11.671875 48.328125 
Q 17.828125 56 27.875 56 
Q 33.9375 56 38.28125 53.609375 
Q 42.625 51.21875 45.40625 46.390625 
L 45.40625 54.6875 
L 54.390625 54.6875 
z
" id="DejaVuSans-103"/>
       <path d="M 12.40625 8.296875 
L 28.515625 8.296875 
L 28.515625 63.921875 
L 10.984375 60.40625 
L 10.984375 69.390625 
L 28.421875 72.90625 
L 38.28125 72.90625 
L 38.28125 8.296875 
L 54.390625 8.296875 
L 54.390625 0 
L 12.40625 0 
z
" id="DejaVuSans-49"/>
       <path d="M 31 75.875 
Q 24.46875 64.65625 21.28125 53.65625 
Q 18.109375 42.671875 18.109375 31.390625 
Q 18.109375 20.125 21.3125 9.0625 
Q 24.515625 -2 31 -13.1875 
L 23.1875 -13.1875 
Q 15.875 -1.703125 12.234375 9.375 
Q 8.59375 20.453125 8.59375 31.390625 
Q 8.59375 42.28125 12.203125 53.3125 
Q 15.828125 64.359375 23.1875 75.875 
z
" id="DejaVuSans-40"/>
       <path d="M 51.125 44 
L 36.921875 44 
L 32.8125 27.6875 
L 47.125 27.6875 
z
M 43.796875 71.78125 
L 38.71875 51.515625 
L 52.984375 51.515625 
L 58.109375 71.78125 
L 65.921875 71.78125 
L 60.890625 51.515625 
L 76.125 51.515625 
L 76.125 44 
L 58.984375 44 
L 54.984375 27.6875 
L 70.515625 27.6875 
L 70.515625 20.21875 
L 53.078125 20.21875 
L 48 0 
L 40.1875 0 
L 45.21875 20.21875 
L 30.90625 20.21875 
L 25.875 0 
L 18.015625 0 
L 23.09375 20.21875 
L 7.71875 20.21875 
L 7.71875 27.6875 
L 24.90625 27.6875 
L 29 44 
L 13.28125 44 
L 13.28125 51.515625 
L 30.90625 51.515625 
L 35.890625 71.78125 
z
" id="DejaVuSans-35"/>
       <path id="DejaVuSans-32"/>
       <path d="M 37.109375 75.984375 
L 37.109375 68.5 
L 28.515625 68.5 
Q 23.6875 68.5 21.796875 66.546875 
Q 19.921875 64.59375 19.921875 59.515625 
L 19.921875 54.6875 
L 34.71875 54.6875 
L 34.71875 47.703125 
L 19.921875 47.703125 
L 19.921875 0 
L 10.890625 0 
L 10.890625 47.703125 
L 2.296875 47.703125 
L 2.296875 54.6875 
L 10.890625 54.6875 
L 10.890625 58.5 
Q 10.890625 67.625 15.140625 71.796875 
Q 19.390625 75.984375 28.609375 75.984375 
z
" id="DejaVuSans-102"/>
       <path d="M 46 62.703125 
L 46 35.5 
L 73.1875 35.5 
L 73.1875 27.203125 
L 46 27.203125 
L 46 0 
L 37.796875 0 
L 37.796875 27.203125 
L 10.59375 27.203125 
L 10.59375 35.5 
L 37.796875 35.5 
L 37.796875 62.703125 
z
" id="DejaVuSans-43"/>
       <path d="M 8.015625 75.875 
L 15.828125 75.875 
Q 23.140625 64.359375 26.78125 53.3125 
Q 30.421875 42.28125 30.421875 31.390625 
Q 30.421875 20.453125 26.78125 9.375 
Q 23.140625 -1.703125 15.828125 -13.1875 
L 8.015625 -13.1875 
Q 14.5 -2 17.703125 9.0625 
Q 20.90625 20.125 20.90625 31.390625 
Q 20.90625 42.671875 17.703125 53.65625 
Q 14.5 64.65625 8.015625 75.875 
z
" id="DejaVuSans-41"/>
       <path d="M 4.890625 31.390625 
L 31.203125 31.390625 
L 31.203125 23.390625 
L 4.890625 23.390625 
z
" id="DejaVuSans-45"/>
       <path d="M 56.203125 29.59375 
L 56.203125 25.203125 
L 14.890625 25.203125 
Q 15.484375 15.921875 20.484375 11.0625 
Q 25.484375 6.203125 34.421875 6.203125 
Q 39.59375 6.203125 44.453125 7.46875 
Q 49.3125 8.734375 54.109375 11.28125 
L 54.109375 2.78125 
Q 49.265625 0.734375 44.1875 -0.34375 
Q 39.109375 -1.421875 33.890625 -1.421875 
Q 20.796875 -1.421875 13.15625 6.1875 
Q 5.515625 13.8125 5.515625 26.8125 
Q 5.515625 40.234375 12.765625 48.109375 
Q 20.015625 56 32.328125 56 
Q 43.359375 56 49.78125 48.890625 
Q 56.203125 41.796875 56.203125 29.59375 
z
M 47.21875 32.234375 
Q 47.125 39.59375 43.09375 43.984375 
Q 39.0625 48.390625 32.421875 48.390625 
Q 24.90625 48.390625 20.390625 44.140625 
Q 15.875 39.890625 15.1875 32.171875 
z
" id="DejaVuSans-101"/>
       <path d="M 2.984375 54.6875 
L 12.5 54.6875 
L 29.59375 8.796875 
L 46.6875 54.6875 
L 56.203125 54.6875 
L 35.6875 0 
L 23.484375 0 
z
" id="DejaVuSans-118"/>
       <path d="M 34.28125 27.484375 
Q 23.390625 27.484375 19.1875 25 
Q 14.984375 22.515625 14.984375 16.5 
Q 14.984375 11.71875 18.140625 8.90625 
Q 21.296875 6.109375 26.703125 6.109375 
Q 34.1875 6.109375 38.703125 11.40625 
Q 43.21875 16.703125 43.21875 25.484375 
L 43.21875 27.484375 
z
M 52.203125 31.203125 
L 52.203125 0 
L 43.21875 0 
L 43.21875 8.296875 
Q 40.140625 3.328125 35.546875 0.953125 
Q 30.953125 -1.421875 24.3125 -1.421875 
Q 15.921875 -1.421875 10.953125 3.296875 
Q 6 8.015625 6 15.921875 
Q 6 25.140625 12.171875 29.828125 
Q 18.359375 34.515625 30.609375 34.515625 
L 43.21875 34.515625 
L 43.21875 35.40625 
Q 43.21875 41.609375 39.140625 45 
Q 35.0625 48.390625 27.6875 48.390625 
Q 23 48.390625 18.546875 47.265625 
Q 14.109375 46.140625 10.015625 43.890625 
L 10.015625 52.203125 
Q 14.9375 54.109375 19.578125 55.046875 
Q 24.21875 56 28.609375 56 
Q 40.484375 56 46.34375 49.84375 
Q 52.203125 43.703125 52.203125 31.203125 
z
" id="DejaVuSans-97"/>
       <path d="M 44.28125 53.078125 
L 44.28125 44.578125 
Q 40.484375 46.53125 36.375 47.5 
Q 32.28125 48.484375 27.875 48.484375 
Q 21.1875 48.484375 17.84375 46.4375 
Q 14.5 44.390625 14.5 40.28125 
Q 14.5 37.15625 16.890625 35.375 
Q 19.28125 33.59375 26.515625 31.984375 
L 29.59375 31.296875 
Q 39.15625 29.25 43.1875 25.515625 
Q 47.21875 21.78125 47.21875 15.09375 
Q 47.21875 7.46875 41.1875 3.015625 
Q 35.15625 -1.421875 24.609375 -1.421875 
Q 20.21875 -1.421875 15.453125 -0.5625 
Q 10.6875 0.296875 5.421875 2 
L 5.421875 11.28125 
Q 10.40625 8.6875 15.234375 7.390625 
Q 20.0625 6.109375 24.8125 6.109375 
Q 31.15625 6.109375 34.5625 8.28125 
Q 37.984375 10.453125 37.984375 14.40625 
Q 37.984375 18.0625 35.515625 20.015625 
Q 33.0625 21.96875 24.703125 23.78125 
L 21.578125 24.515625 
Q 13.234375 26.265625 9.515625 29.90625 
Q 5.8125 33.546875 5.8125 39.890625 
Q 5.8125 47.609375 11.28125 51.796875 
Q 16.75 56 26.8125 56 
Q 31.78125 56 36.171875 55.265625 
Q 40.578125 54.546875 44.28125 53.078125 
z
" id="DejaVuSans-115"/>
       <path d="M 25.390625 72.90625 
L 33.6875 72.90625 
L 8.296875 -9.28125 
L 0 -9.28125 
z
" id="DejaVuSans-47"/>
       <path d="M 45.40625 46.390625 
L 45.40625 75.984375 
L 54.390625 75.984375 
L 54.390625 0 
L 45.40625 0 
L 45.40625 8.203125 
Q 42.578125 3.328125 38.25 0.953125 
Q 33.9375 -1.421875 27.875 -1.421875 
Q 17.96875 -1.421875 11.734375 6.484375 
Q 5.515625 14.40625 5.515625 27.296875 
Q 5.515625 40.1875 11.734375 48.09375 
Q 17.96875 56 27.875 56 
Q 33.9375 56 38.25 53.625 
Q 42.578125 51.265625 45.40625 46.390625 
z
M 14.796875 27.296875 
Q 14.796875 17.390625 18.875 11.75 
Q 22.953125 6.109375 30.078125 6.109375 
Q 37.203125 6.109375 41.296875 11.75 
Q 45.40625 17.390625 45.40625 27.296875 
Q 45.40625 37.203125 41.296875 42.84375 
Q 37.203125 48.484375 30.078125 48.484375 
Q 22.953125 48.484375 18.875 42.84375 
Q 14.796875 37.203125 14.796875 27.296875 
z
" id="DejaVuSans-100"/>
       <path d="M 9.421875 54.6875 
L 18.40625 54.6875 
L 18.40625 0 
L 9.421875 0 
z
M 9.421875 75.984375 
L 18.40625 75.984375 
L 18.40625 64.59375 
L 9.421875 64.59375 
z
" id="DejaVuSans-105"/>
       <path d="M 52 44.1875 
Q 55.375 50.25 60.0625 53.125 
Q 64.75 56 71.09375 56 
Q 79.640625 56 84.28125 50.015625 
Q 88.921875 44.046875 88.921875 33.015625 
L 88.921875 0 
L 79.890625 0 
L 79.890625 32.71875 
Q 79.890625 40.578125 77.09375 44.375 
Q 74.3125 48.1875 68.609375 48.1875 
Q 61.625 48.1875 57.5625 43.546875 
Q 53.515625 38.921875 53.515625 30.90625 
L 53.515625 0 
L 44.484375 0 
L 44.484375 32.71875 
Q 44.484375 40.625 41.703125 44.40625 
Q 38.921875 48.1875 33.109375 48.1875 
Q 26.21875 48.1875 22.15625 43.53125 
Q 18.109375 38.875 18.109375 30.90625 
L 18.109375 0 
L 9.078125 0 
L 9.078125 54.6875 
L 18.109375 54.6875 
L 18.109375 46.1875 
Q 21.1875 51.21875 25.484375 53.609375 
Q 29.78125 56 35.6875 56 
Q 41.65625 56 45.828125 52.96875 
Q 50 49.953125 52 44.1875 
z
" id="DejaVuSans-109"/>
       <path d="M 54.890625 33.015625 
L 54.890625 0 
L 45.90625 0 
L 45.90625 32.71875 
Q 45.90625 40.484375 42.875 44.328125 
Q 39.84375 48.1875 33.796875 48.1875 
Q 26.515625 48.1875 22.3125 43.546875 
Q 18.109375 38.921875 18.109375 30.90625 
L 18.109375 0 
L 9.078125 0 
L 9.078125 54.6875 
L 18.109375 54.6875 
L 18.109375 46.1875 
Q 21.34375 51.125 25.703125 53.5625 
Q 30.078125 56 35.796875 56 
Q 45.21875 56 50.046875 50.171875 
Q 54.890625 44.34375 54.890625 33.015625 
z
" id="DejaVuSans-110"/>
      </defs>
      <use xlink:href="#DejaVuSans-108"/>
      <use x="27.783203" xlink:href="#DejaVuSans-111"/>
      <use x="88.964844" xlink:href="#DejaVuSans-103"/>
      <use x="152.441406" xlink:href="#DejaVuSans-49"/>
      <use x="216.064453" xlink:href="#DejaVuSans-48"/>
      <use x="279.6875" xlink:href="#DejaVuSans-40"/>
      <use x="318.701172" xlink:href="#DejaVuSans-35"/>
      <use x="402.490234" xlink:href="#DejaVuSans-32"/>
      <use x="434.277344" xlink:href="#DejaVuSans-40"/>
      <use x="473.291016" xlink:href="#DejaVuSans-102"/>
      <use x="508.496094" xlink:href="#DejaVuSans-43"/>
      <use x="592.285156" xlink:href="#DejaVuSans-103"/>
      <use x="655.761719" xlink:href="#DejaVuSans-41"/>
      <use x="694.775391" xlink:href="#DejaVuSans-45"/>
      <use x="730.859375" xlink:href="#DejaVuSans-101"/>
      <use x="792.382812" xlink:href="#DejaVuSans-118"/>
      <use x="851.5625" xlink:href="#DejaVuSans-97"/>
      <use x="912.841797" xlink:href="#DejaVuSans-108"/>
      <use x="940.625" xlink:href="#DejaVuSans-115"/>
      <use x="992.724609" xlink:href="#DejaVuSans-32"/>
      <use x="1024.511719" xlink:href="#DejaVuSans-47"/>
      <use x="1058.203125" xlink:href="#DejaVuSans-32"/>
      <use x="1089.990234" xlink:href="#DejaVuSans-100"/>
      <use x="1153.466797" xlink:href="#DejaVuSans-105"/>
      <use x="1181.25" xlink:href="#DejaVuSans-109"/>
      <use x="1278.662109" xlink:href="#DejaVuSans-101"/>
      <use x="1340.185547" xlink:href="#DejaVuSans-110"/>
      <use x="1403.564453" xlink:href="#DejaVuSans-115"/>
      <use x="1455.664062" xlink:href="#DejaVuSans-105"/>
      <use x="1483.447266" xlink:href="#DejaVuSans-111"/>
      <use x="1544.628906" xlink:href="#DejaVuSans-110"/>
      <use x="1608.007812" xlink:href="#DejaVuSans-41"/>
     </g>
    </g>
   </g>
   <g id="matplotlib.axis_2">
    <g id="ytick_1">
     <g id="line2d_17">
      <path clip-path="url(#p6e695aa69f)" d="M 57.6 298.944 
L 338.688 298.944 
" style="fill:none;stroke:#b0b0b0;stroke-linecap:square;stroke-width:0.8;"/>
     </g>
     <g id="line2d_18">
      <defs>
       <path d="M 0 0 
L -3.5 0 
" id="mdfaa914a14" style="stroke:#000000;stroke-width:0.8;"/>
      </defs>
      <g>
       <use style="stroke:#000000;stroke-width:0.8;" x="57.6" xlink:href="#mdfaa914a14" y="298.944"/>
      </g>
     </g>
     <g id="text_6">
      <!-- 0.0 -->
      <g transform="translate(25.155 305.02275)scale(0.16 -0.16)">
       <defs>
        <path d="M 10.6875 12.40625 
L 21 12.40625 
L 21 0 
L 10.6875 0 
z
" id="DejaVuSans-46"/>
       </defs>
       <use xlink:href="#DejaVuSans-48"/>
       <use x="63.623047" xlink:href="#DejaVuSans-46"/>
       <use x="95.410156" xlink:href="#DejaVuSans-48"/>
      </g>
     </g>
    </g>
    <g id="ytick_2">
     <g id="line2d_19">
      <path clip-path="url(#p6e695aa69f)" d="M 57.6 245.22202 
L 338.688 245.22202 
" style="fill:none;stroke:#b0b0b0;stroke-linecap:square;stroke-width:0.8;"/>
     </g>
     <g id="line2d_20">
      <g>
       <use style="stroke:#000000;stroke-width:0.8;" x="57.6" xlink:href="#mdfaa914a14" y="245.22202"/>
      </g>
     </g>
     <g id="text_7">
      <!-- 0.2 -->
      <g transform="translate(25.155 251.30077)scale(0.16 -0.16)">
       <use xlink:href="#DejaVuSans-48"/>
       <use x="63.623047" xlink:href="#DejaVuSans-46"/>
       <use x="95.410156" xlink:href="#DejaVuSans-50"/>
      </g>
     </g>
    </g>
    <g id="ytick_3">
     <g id="line2d_21">
      <path clip-path="url(#p6e695aa69f)" d="M 57.6 191.50004 
L 338.688 191.50004 
" style="fill:none;stroke:#b0b0b0;stroke-linecap:square;stroke-width:0.8;"/>
     </g>
     <g id="line2d_22">
      <g>
       <use style="stroke:#000000;stroke-width:0.8;" x="57.6" xlink:href="#mdfaa914a14" y="191.50004"/>
      </g>
     </g>
     <g id="text_8">
      <!-- 0.4 -->
      <g transform="translate(25.155 197.57879)scale(0.16 -0.16)">
       <use xlink:href="#DejaVuSans-48"/>
       <use x="63.623047" xlink:href="#DejaVuSans-46"/>
       <use x="95.410156" xlink:href="#DejaVuSans-52"/>
      </g>
     </g>
    </g>
    <g id="ytick_4">
     <g id="line2d_23">
      <path clip-path="url(#p6e695aa69f)" d="M 57.6 137.778059 
L 338.688 137.778059 
" style="fill:none;stroke:#b0b0b0;stroke-linecap:square;stroke-width:0.8;"/>
     </g>
     <g id="line2d_24">
      <g>
       <use style="stroke:#000000;stroke-width:0.8;" x="57.6" xlink:href="#mdfaa914a14" y="137.778059"/>
      </g>
     </g>
     <g id="text_9">
      <!-- 0.6 -->
      <g transform="translate(25.155 143.856809)scale(0.16 -0.16)">
       <use xlink:href="#DejaVuSans-48"/>
       <use x="63.623047" xlink:href="#DejaVuSans-46"/>
       <use x="95.410156" xlink:href="#DejaVuSans-54"/>
      </g>
     </g>
    </g>
    <g id="ytick_5">
     <g id="line2d_25">
      <path clip-path="url(#p6e695aa69f)" d="M 57.6 84.056079 
L 338.688 84.056079 
" style="fill:none;stroke:#b0b0b0;stroke-linecap:square;stroke-width:0.8;"/>
     </g>
     <g id="line2d_26">
      <g>
       <use style="stroke:#000000;stroke-width:0.8;" x="57.6" xlink:href="#mdfaa914a14" y="84.056079"/>
      </g>
     </g>
     <g id="text_10">
      <!-- 0.8 -->
      <g transform="translate(25.155 90.134829)scale(0.16 -0.16)">
       <defs>
        <path d="M 31.78125 34.625 
Q 24.75 34.625 20.71875 30.859375 
Q 16.703125 27.09375 16.703125 20.515625 
Q 16.703125 13.921875 20.71875 10.15625 
Q 24.75 6.390625 31.78125 6.390625 
Q 38.8125 6.390625 42.859375 10.171875 
Q 46.921875 13.96875 46.921875 20.515625 
Q 46.921875 27.09375 42.890625 30.859375 
Q 38.875 34.625 31.78125 34.625 
z
M 21.921875 38.8125 
Q 15.578125 40.375 12.03125 44.71875 
Q 8.5 49.078125 8.5 55.328125 
Q 8.5 64.0625 14.71875 69.140625 
Q 20.953125 74.21875 31.78125 74.21875 
Q 42.671875 74.21875 48.875 69.140625 
Q 55.078125 64.0625 55.078125 55.328125 
Q 55.078125 49.078125 51.53125 44.71875 
Q 48 40.375 41.703125 38.8125 
Q 48.828125 37.15625 52.796875 32.3125 
Q 56.78125 27.484375 56.78125 20.515625 
Q 56.78125 9.90625 50.3125 4.234375 
Q 43.84375 -1.421875 31.78125 -1.421875 
Q 19.734375 -1.421875 13.25 4.234375 
Q 6.78125 9.90625 6.78125 20.515625 
Q 6.78125 27.484375 10.78125 32.3125 
Q 14.796875 37.15625 21.921875 38.8125 
z
M 18.3125 54.390625 
Q 18.3125 48.734375 21.84375 45.5625 
Q 25.390625 42.390625 31.78125 42.390625 
Q 38.140625 42.390625 41.71875 45.5625 
Q 45.3125 48.734375 45.3125 54.390625 
Q 45.3125 60.0625 41.71875 63.234375 
Q 38.140625 66.40625 31.78125 66.40625 
Q 25.390625 66.40625 21.84375 63.234375 
Q 18.3125 60.0625 18.3125 54.390625 
z
" id="DejaVuSans-56"/>
       </defs>
       <use xlink:href="#DejaVuSans-48"/>
       <use x="63.623047" xlink:href="#DejaVuSans-46"/>
       <use x="95.410156" xlink:href="#DejaVuSans-56"/>
      </g>
     </g>
    </g>
    <g id="ytick_6">
     <g id="line2d_27">
      <path clip-path="url(#p6e695aa69f)" d="M 57.6 30.334099 
L 338.688 30.334099 
" style="fill:none;stroke:#b0b0b0;stroke-linecap:square;stroke-width:0.8;"/>
     </g>
     <g id="line2d_28">
      <g>
       <use style="stroke:#000000;stroke-width:0.8;" x="57.6" xlink:href="#mdfaa914a14" y="30.334099"/>
      </g>
     </g>
     <g id="text_11">
      <!-- 1.0 -->
      <g transform="translate(25.155 36.412849)scale(0.16 -0.16)">
       <use xlink:href="#DejaVuSans-49"/>
       <use x="63.623047" xlink:href="#DejaVuSans-46"/>
       <use x="95.410156" xlink:href="#DejaVuSans-48"/>
      </g>
     </g>
    </g>
    <g id="text_12">
     <!-- Fraction of function,target pairs -->
     <g transform="translate(17.619531 297.681)rotate(-90)scale(0.17 -0.17)">
      <defs>
       <path d="M 9.8125 72.90625 
L 51.703125 72.90625 
L 51.703125 64.59375 
L 19.671875 64.59375 
L 19.671875 43.109375 
L 48.578125 43.109375 
L 48.578125 34.8125 
L 19.671875 34.8125 
L 19.671875 0 
L 9.8125 0 
z
" id="DejaVuSans-70"/>
       <path d="M 41.109375 46.296875 
Q 39.59375 47.171875 37.8125 47.578125 
Q 36.03125 48 33.890625 48 
Q 26.265625 48 22.1875 43.046875 
Q 18.109375 38.09375 18.109375 28.8125 
L 18.109375 0 
L 9.078125 0 
L 9.078125 54.6875 
L 18.109375 54.6875 
L 18.109375 46.1875 
Q 20.953125 51.171875 25.484375 53.578125 
Q 30.03125 56 36.53125 56 
Q 37.453125 56 38.578125 55.875 
Q 39.703125 55.765625 41.0625 55.515625 
z
" id="DejaVuSans-114"/>
       <path d="M 48.78125 52.59375 
L 48.78125 44.1875 
Q 44.96875 46.296875 41.140625 47.34375 
Q 37.3125 48.390625 33.40625 48.390625 
Q 24.65625 48.390625 19.8125 42.84375 
Q 14.984375 37.3125 14.984375 27.296875 
Q 14.984375 17.28125 19.8125 11.734375 
Q 24.65625 6.203125 33.40625 6.203125 
Q 37.3125 6.203125 41.140625 7.25 
Q 44.96875 8.296875 48.78125 10.40625 
L 48.78125 2.09375 
Q 45.015625 0.34375 40.984375 -0.53125 
Q 36.96875 -1.421875 32.421875 -1.421875 
Q 20.0625 -1.421875 12.78125 6.34375 
Q 5.515625 14.109375 5.515625 27.296875 
Q 5.515625 40.671875 12.859375 48.328125 
Q 20.21875 56 33.015625 56 
Q 37.15625 56 41.109375 55.140625 
Q 45.0625 54.296875 48.78125 52.59375 
z
" id="DejaVuSans-99"/>
       <path d="M 18.3125 70.21875 
L 18.3125 54.6875 
L 36.8125 54.6875 
L 36.8125 47.703125 
L 18.3125 47.703125 
L 18.3125 18.015625 
Q 18.3125 11.328125 20.140625 9.421875 
Q 21.96875 7.515625 27.59375 7.515625 
L 36.8125 7.515625 
L 36.8125 0 
L 27.59375 0 
Q 17.1875 0 13.234375 3.875 
Q 9.28125 7.765625 9.28125 18.015625 
L 9.28125 47.703125 
L 2.6875 47.703125 
L 2.6875 54.6875 
L 9.28125 54.6875 
L 9.28125 70.21875 
z
" id="DejaVuSans-116"/>
       <path d="M 8.5 21.578125 
L 8.5 54.6875 
L 17.484375 54.6875 
L 17.484375 21.921875 
Q 17.484375 14.15625 20.5 10.265625 
Q 23.53125 6.390625 29.59375 6.390625 
Q 36.859375 6.390625 41.078125 11.03125 
Q 45.3125 15.671875 45.3125 23.6875 
L 45.3125 54.6875 
L 54.296875 54.6875 
L 54.296875 0 
L 45.3125 0 
L 45.3125 8.40625 
Q 42.046875 3.421875 37.71875 1 
Q 33.40625 -1.421875 27.6875 -1.421875 
Q 18.265625 -1.421875 13.375 4.4375 
Q 8.5 10.296875 8.5 21.578125 
z
M 31.109375 56 
z
" id="DejaVuSans-117"/>
       <path d="M 11.71875 12.40625 
L 22.015625 12.40625 
L 22.015625 4 
L 14.015625 -11.625 
L 7.71875 -11.625 
L 11.71875 4 
z
" id="DejaVuSans-44"/>
       <path d="M 18.109375 8.203125 
L 18.109375 -20.796875 
L 9.078125 -20.796875 
L 9.078125 54.6875 
L 18.109375 54.6875 
L 18.109375 46.390625 
Q 20.953125 51.265625 25.265625 53.625 
Q 29.59375 56 35.59375 56 
Q 45.5625 56 51.78125 48.09375 
Q 58.015625 40.1875 58.015625 27.296875 
Q 58.015625 14.40625 51.78125 6.484375 
Q 45.5625 -1.421875 35.59375 -1.421875 
Q 29.59375 -1.421875 25.265625 0.953125 
Q 20.953125 3.328125 18.109375 8.203125 
z
M 48.6875 27.296875 
Q 48.6875 37.203125 44.609375 42.84375 
Q 40.53125 48.484375 33.40625 48.484375 
Q 26.265625 48.484375 22.1875 42.84375 
Q 18.109375 37.203125 18.109375 27.296875 
Q 18.109375 17.390625 22.1875 11.75 
Q 26.265625 6.109375 33.40625 6.109375 
Q 40.53125 6.109375 44.609375 11.75 
Q 48.6875 17.390625 48.6875 27.296875 
z
" id="DejaVuSans-112"/>
      </defs>
      <use xlink:href="#DejaVuSans-70"/>
      <use x="50.269531" xlink:href="#DejaVuSans-114"/>
      <use x="91.382812" xlink:href="#DejaVuSans-97"/>
      <use x="152.662109" xlink:href="#DejaVuSans-99"/>
      <use x="207.642578" xlink:href="#DejaVuSans-116"/>
      <use x="246.851562" xlink:href="#DejaVuSans-105"/>
      <use x="274.634766" xlink:href="#DejaVuSans-111"/>
      <use x="335.816406" xlink:href="#DejaVuSans-110"/>
      <use x="399.195312" xlink:href="#DejaVuSans-32"/>
      <use x="430.982422" xlink:href="#DejaVuSans-111"/>
      <use x="492.164062" xlink:href="#DejaVuSans-102"/>
      <use x="527.369141" xlink:href="#DejaVuSans-32"/>
      <use x="559.15625" xlink:href="#DejaVuSans-102"/>
      <use x="594.361328" xlink:href="#DejaVuSans-117"/>
      <use x="657.740234" xlink:href="#DejaVuSans-110"/>
      <use x="721.119141" xlink:href="#DejaVuSans-99"/>
      <use x="776.099609" xlink:href="#DejaVuSans-116"/>
      <use x="815.308594" xlink:href="#DejaVuSans-105"/>
      <use x="843.091797" xlink:href="#DejaVuSans-111"/>
      <use x="904.273438" xlink:href="#DejaVuSans-110"/>
      <use x="967.652344" xlink:href="#DejaVuSans-44"/>
      <use x="999.439453" xlink:href="#DejaVuSans-116"/>
      <use x="1038.648438" xlink:href="#DejaVuSans-97"/>
      <use x="1099.927734" xlink:href="#DejaVuSans-114"/>
      <use x="1139.291016" xlink:href="#DejaVuSans-103"/>
      <use x="1202.767578" xlink:href="#DejaVuSans-101"/>
      <use x="1264.291016" xlink:href="#DejaVuSans-116"/>
      <use x="1303.5" xlink:href="#DejaVuSans-32"/>
      <use x="1335.287109" xlink:href="#DejaVuSans-112"/>
      <use x="1398.763672" xlink:href="#DejaVuSans-97"/>
      <use x="1460.042969" xlink:href="#DejaVuSans-105"/>
      <use x="1487.826172" xlink:href="#DejaVuSans-114"/>
      <use x="1528.939453" xlink:href="#DejaVuSans-115"/>
     </g>
    </g>
   </g>
   <g id="line2d_29">
    <defs>
     <path d="M 0 1.5 
C 0.397805 1.5 0.77937 1.341951 1.06066 1.06066 
C 1.341951 0.77937 1.5 0.397805 1.5 0 
C 1.5 -0.397805 1.341951 -0.77937 1.06066 -1.06066 
C 0.77937 -1.341951 0.397805 -1.5 0 -1.5 
C -0.397805 -1.5 -0.77937 -1.341951 -1.06066 -1.06066 
C -1.341951 -0.77937 -1.5 -0.397805 -1.5 0 
C -1.5 0.397805 -1.341951 0.77937 -1.06066 1.06066 
C -0.77937 1.341951 -0.397805 1.5 0 1.5 
z
" id="m1ef34ed921" style="stroke:#000080;"/>
    </defs>
    <g>
     <use style="fill:#000080;stroke:#000080;" x="283.565318" xlink:href="#m1ef34ed921" y="30.334099"/>
     <use style="fill:#000080;stroke:#000080;" x="283.565318" xlink:href="#m1ef34ed921" y="30.334099"/>
    </g>
   </g>
   <g id="line2d_30">
    <path d="M 126.030894 298.944 
L 126.030894 298.288854 
L 130.073348 298.288854 
L 130.073348 297.633708 
L 130.236587 297.633708 
L 130.236587 296.323416 
L 130.76994 296.323416 
L 130.76994 295.66827 
L 131.490249 295.66827 
L 131.490249 294.357977 
L 135.280614 294.357977 
L 135.280614 292.392539 
L 135.760625 292.392539 
L 135.760625 291.737393 
L 135.956794 291.737393 
L 135.956794 290.427101 
L 136.607732 290.427101 
L 136.607732 289.771955 
L 136.86886 289.771955 
L 136.86886 288.461662 
L 138.493936 288.461662 
L 138.493936 286.496224 
L 139.317473 286.496224 
L 139.317473 285.185932 
L 141.119455 285.185932 
L 141.119455 283.87564 
L 142.161336 283.87564 
L 142.270332 277.979325 
L 142.619936 277.979325 
L 142.646541 276.669033 
L 143.196061 276.669033 
L 143.196061 276.013887 
L 143.628567 276.013887 
L 143.628567 274.703594 
L 143.803587 274.703594 
L 143.803587 274.048448 
L 145.143889 274.048448 
L 145.143889 273.393302 
L 145.463466 273.393302 
L 145.463466 272.738156 
L 145.643486 272.738156 
L 145.643486 272.08301 
L 145.755062 272.08301 
L 145.843812 270.772718 
L 145.888018 270.772718 
L 145.888018 266.841841 
L 146.367029 266.841841 
L 146.367029 264.221257 
L 147.164632 264.221257 
L 147.205618 261.600672 
L 147.78933 261.600672 
L 147.78933 260.945526 
L 148.919783 260.945526 
L 148.919783 260.29038 
L 149.593058 260.29038 
L 149.593058 259.635234 
L 149.823575 259.635234 
L 149.823575 257.01465 
L 149.998846 257.01465 
L 150.016276 253.083773 
L 150.56505 253.083773 
L 150.56505 251.773481 
L 151.080698 251.773481 
L 151.178764 247.187458 
L 151.485716 247.187458 
L 151.485716 246.532312 
L 151.676833 246.532312 
L 151.676833 241.946289 
L 152.207228 241.946289 
L 152.207228 241.291143 
L 152.329717 241.291143 
L 152.436193 238.670559 
L 153.149313 238.670559 
L 153.236437 237.360267 
L 154.399019 237.360267 
L 154.412564 235.394828 
L 154.667942 235.394828 
L 154.77436 231.463952 
L 154.985269 231.463952 
L 154.985269 230.808806 
L 155.30979 230.808806 
L 155.30979 230.15366 
L 156.199806 230.15366 
L 156.285144 228.843367 
L 157.208825 228.843367 
L 157.266399 227.533075 
L 157.403807 227.533075 
L 157.460743 226.222783 
L 157.652944 226.222783 
L 157.731474 224.912491 
L 157.77619 224.912491 
L 157.84305 222.947052 
L 157.9318 222.947052 
L 157.9318 221.63676 
L 158.562073 221.63676 
L 158.562073 220.981614 
L 159.190962 220.981614 
L 159.211539 219.016176 
L 159.608019 219.016176 
L 159.608019 218.36103 
L 159.857512 218.36103 
L 159.906985 215.740445 
L 160.230035 215.740445 
L 160.336402 213.775007 
L 161.338558 213.775007 
L 161.338558 211.809569 
L 161.796686 211.809569 
L 161.796686 211.154423 
L 162.329291 211.154423 
L 162.329291 209.84413 
L 162.669913 209.84413 
L 162.770815 208.533838 
L 163.258601 208.533838 
L 163.258601 207.878692 
L 163.396654 207.878692 
L 163.396654 207.223546 
L 164.202782 207.223546 
L 164.202782 206.5684 
L 164.37952 206.5684 
L 164.37952 205.913254 
L 164.84721 205.913254 
L 164.84721 204.602962 
L 165.803027 204.602962 
L 165.803027 203.947816 
L 165.922402 203.947816 
L 165.992243 202.637523 
L 166.151824 202.637523 
L 166.151824 201.982377 
L 168.704401 201.982377 
L 168.704401 201.327231 
L 169.302579 201.327231 
L 169.360135 200.016939 
L 171.206738 200.016939 
L 171.206738 199.361793 
L 171.350865 199.361793 
L 171.350865 198.706647 
L 171.488725 198.706647 
L 171.488725 198.051501 
L 171.726136 198.051501 
L 171.726136 197.396355 
L 171.945501 197.396355 
L 171.945501 196.741208 
L 172.534903 196.741208 
L 172.592284 195.430916 
L 172.649478 195.430916 
L 172.649478 194.77577 
L 173.077198 194.77577 
L 173.100398 192.810332 
L 173.211329 192.810332 
L 173.211329 192.155186 
L 173.435646 192.155186 
L 173.435646 191.50004 
L 173.742239 191.50004 
L 173.742239 190.844894 
L 173.902397 190.844894 
L 173.902397 190.189747 
L 174.039142 190.189747 
L 174.039142 188.224309 
L 174.451642 188.224309 
L 174.451642 187.569163 
L 174.850417 187.569163 
L 174.904856 185.603725 
L 175.116798 185.603725 
L 175.166295 184.293433 
L 175.565343 184.293433 
L 175.565343 182.98314 
L 175.931828 182.98314 
L 176.041856 181.672848 
L 177.204779 181.672848 
L 177.219431 180.362556 
L 177.891015 180.362556 
L 177.891015 179.70741 
L 178.943705 179.70741 
L 178.943705 176.431679 
L 179.09561 176.431679 
L 179.09561 175.121387 
L 179.610712 175.121387 
L 179.610712 174.466241 
L 179.80436 174.466241 
L 179.889391 173.155949 
L 180.098621 173.155949 
L 180.098621 172.500803 
L 180.588349 172.500803 
L 180.612478 170.535364 
L 180.750576 170.535364 
L 180.837079 169.225072 
L 181.055886 169.225072 
L 181.055886 168.569926 
L 181.485433 168.569926 
L 181.51694 166.604488 
L 181.625347 166.604488 
L 181.625347 165.949342 
L 181.901854 165.949342 
L 181.901854 165.294196 
L 182.04681 165.294196 
L 182.138181 163.328757 
L 182.308563 163.328757 
L 182.376797 159.397881 
L 183.018609 159.397881 
L 183.029108 157.432442 
L 183.708446 157.432442 
L 183.786508 155.467004 
L 183.889218 155.467004 
L 183.889218 154.811858 
L 184.181489 154.811858 
L 184.181489 154.156712 
L 184.401161 154.156712 
L 184.454441 152.84642 
L 184.642039 152.84642 
L 184.642039 152.191274 
L 184.832374 152.191274 
L 184.832374 151.536128 
L 184.983161 151.536128 
L 184.983161 150.880981 
L 185.167508 150.880981 
L 185.167508 150.225835 
L 185.42099 150.225835 
L 185.464403 148.260397 
L 185.62794 148.260397 
L 185.62794 147.605251 
L 185.84363 147.605251 
L 185.84363 146.950105 
L 186.367134 146.950105 
L 186.3758 145.639813 
L 186.576068 145.639813 
L 186.576068 144.984667 
L 186.982389 144.984667 
L 186.986572 142.364082 
L 188.591775 142.364082 
L 188.591775 141.708936 
L 188.736138 141.708936 
L 188.736138 141.05379 
L 189.041785 141.05379 
L 189.041785 139.743498 
L 190.627379 139.743498 
L 190.627379 139.088352 
L 191.6987 139.088352 
L 191.6987 138.433206 
L 192.093235 138.433206 
L 192.093235 137.778059 
L 193.365774 137.778059 
L 193.365774 137.122913 
L 193.531802 137.122913 
L 193.531802 136.467767 
L 193.682024 136.467767 
L 193.682024 135.812621 
L 194.220645 135.812621 
L 194.220645 135.157475 
L 195.786337 135.157475 
L 195.786337 134.502329 
L 196.472163 134.502329 
L 196.472163 133.847183 
L 197.335395 133.847183 
L 197.381546 132.536891 
L 197.474629 132.536891 
L 197.474629 131.881745 
L 197.961738 131.881745 
L 197.968424 130.571452 
L 198.261193 130.571452 
L 198.268861 129.26116 
L 199.196474 129.26116 
L 199.304131 127.950868 
L 199.770482 127.950868 
L 199.770482 126.640576 
L 200.09203 126.640576 
L 200.135377 125.330284 
L 200.32133 125.330284 
L 200.32133 124.019991 
L 200.763487 124.019991 
L 200.777719 122.709699 
L 200.919395 122.709699 
L 200.981369 120.089115 
L 201.242794 120.089115 
L 201.301791 118.123676 
L 201.392662 118.123676 
L 201.392662 116.813384 
L 202.862407 116.813384 
L 202.862407 116.158238 
L 203.80344 116.158238 
L 203.80344 115.503092 
L 204.26373 115.503092 
L 204.26373 114.847946 
L 204.936269 114.847946 
L 204.936269 114.1928 
L 205.667859 114.1928 
L 205.721511 112.882508 
L 206.258146 112.882508 
L 206.258146 112.227362 
L 206.386499 112.227362 
L 206.386499 111.572215 
L 207.284935 111.572215 
L 207.284935 110.917069 
L 207.732972 110.917069 
L 207.732972 110.261923 
L 209.273126 110.261923 
L 209.273126 109.606777 
L 209.496016 109.606777 
L 209.496016 108.951631 
L 209.794871 108.951631 
L 209.794871 108.296485 
L 210.136445 108.296485 
L 210.136445 107.641339 
L 210.451318 107.641339 
L 210.504063 106.331047 
L 210.775581 106.331047 
L 210.870473 103.710462 
L 211.020812 103.710462 
L 211.125389 101.089878 
L 211.188149 101.089878 
L 211.296399 97.814147 
L 211.33475 97.814147 
L 211.33475 97.159001 
L 211.614122 97.159001 
L 211.614122 95.848709 
L 211.933163 95.848709 
L 211.933163 95.193563 
L 212.155836 95.193563 
L 212.193823 91.917832 
L 212.503978 91.917832 
L 212.595236 90.60754 
L 213.326626 90.60754 
L 213.326626 89.952394 
L 213.95545 89.952394 
L 213.971256 88.642102 
L 214.380317 88.642102 
L 214.380317 87.33181 
L 214.925974 87.33181 
L 214.925974 86.676664 
L 215.164084 86.676664 
L 215.164084 86.021518 
L 215.330371 86.021518 
L 215.330371 85.366371 
L 216.23524 85.366371 
L 216.23524 84.711225 
L 217.288235 84.711225 
L 217.3305 83.400933 
L 217.627489 83.400933 
L 217.627489 82.745787 
L 218.02635 82.745787 
L 218.02635 82.090641 
L 218.901 82.090641 
L 218.901 81.435495 
L 219.087853 81.435495 
L 219.087853 80.780349 
L 219.626399 80.780349 
L 219.656943 79.470057 
L 219.792934 79.470057 
L 219.792934 78.81491 
L 220.043563 78.81491 
L 220.060207 77.504618 
L 220.489305 77.504618 
L 220.489305 76.849472 
L 221.048357 76.849472 
L 221.048357 76.194326 
L 221.300414 76.194326 
L 221.300414 75.53918 
L 221.52523 75.53918 
L 221.52523 74.884034 
L 221.686671 74.884034 
L 221.686671 74.228888 
L 222.083016 74.228888 
L 222.122941 72.918596 
L 222.260439 72.918596 
L 222.341319 70.953157 
L 222.654649 70.953157 
L 222.654649 70.298011 
L 223.126186 70.298011 
L 223.231967 68.987719 
L 223.502538 68.987719 
L 223.502538 68.332573 
L 224.326845 68.332573 
L 224.326845 67.677427 
L 224.553437 67.677427 
L 224.553437 67.022281 
L 225.202515 67.022281 
L 225.261548 65.711988 
L 225.53886 65.711988 
L 225.53886 65.056842 
L 225.86839 65.056842 
L 225.86839 64.401696 
L 226.192472 64.401696 
L 226.192472 63.74655 
L 226.726785 63.74655 
L 226.793478 62.436258 
L 226.879247 62.436258 
L 226.879247 61.125966 
L 226.993305 61.125966 
L 226.993305 60.47082 
L 227.180647 60.47082 
L 227.180647 59.815674 
L 227.363932 59.815674 
L 227.363932 59.160527 
L 235.534589 59.160527 
L 235.534589 58.505381 
L 236.716165 58.505381 
L 236.716165 57.850235 
L 237.600864 57.850235 
L 237.631261 56.539943 
L 239.024516 56.539943 
L 239.024516 55.884797 
L 243.251089 55.884797 
L 243.251089 55.229651 
L 244.476218 55.229651 
L 244.476218 54.574505 
L 245.391699 54.574505 
L 245.391699 53.919359 
L 245.749911 53.919359 
L 245.749911 53.264213 
L 246.137121 53.264213 
L 246.137121 52.609066 
L 246.454806 52.609066 
L 246.530717 49.988482 
L 246.908086 49.988482 
L 246.991571 48.67819 
L 247.020827 48.67819 
L 247.020827 48.023044 
L 247.831601 48.023044 
L 247.831601 47.367898 
L 248.742084 47.367898 
L 248.742084 46.712752 
L 249.217264 46.712752 
L 249.217264 46.057605 
L 252.783502 46.057605 
L 252.783502 45.402459 
L 253.486603 45.402459 
L 253.486603 44.092167 
L 253.999673 44.092167 
L 253.999673 43.437021 
L 254.609732 43.437021 
L 254.609732 42.781875 
L 255.220416 42.781875 
L 255.276734 41.471583 
L 255.36768 41.471583 
L 255.393855 40.161291 
L 255.954224 40.161291 
L 255.954224 39.506144 
L 257.077795 39.506144 
L 257.077795 38.850998 
L 257.47787 38.850998 
L 257.47787 38.195852 
L 257.642915 38.195852 
L 257.642915 37.540706 
L 259.051127 37.540706 
L 259.051127 36.88556 
L 263.119724 36.88556 
L 263.119724 36.230414 
L 265.359077 36.230414 
L 265.359077 35.575268 
L 267.180511 35.575268 
L 267.180511 34.920122 
L 267.363618 34.920122 
L 267.363618 34.264976 
L 269.113662 34.264976 
L 269.113662 33.60983 
L 271.852512 33.60983 
L 271.852512 32.954683 
L 273.10463 32.954683 
L 273.112805 31.644391 
L 276.850016 31.644391 
L 276.850016 30.989245 
L 283.565318 30.989245 
L 283.565318 30.334099 
L 338.688 30.334099 
L 338.688 30.334099 
" style="fill:none;stroke:#000080;stroke-linecap:square;stroke-width:1.5;"/>
   </g>
   <g id="line2d_31">
    <defs>
     <path d="M 0 6 
C 1.591219 6 3.117479 5.367802 4.242641 4.242641 
C 5.367802 3.117479 6 1.591219 6 0 
C 6 -1.591219 5.367802 -3.117479 4.242641 -4.242641 
C 3.117479 -5.367802 1.591219 -6 0 -6 
C -1.591219 -6 -3.117479 -5.367802 -4.242641 -4.242641 
C -5.367802 -3.117479 -6 -1.591219 -6 0 
C -6 1.591219 -5.367802 3.117479 -4.242641 4.242641 
C -3.117479 5.367802 -1.591219 6 0 6 
z
" id="mf24f9ce50d" style="stroke:#000080;stroke-width:1.5;"/>
    </defs>
    <g>
     <use style="fill-opacity:0;stroke:#000080;stroke-width:1.5;" x="152.207228" xlink:href="#mf24f9ce50d" y="241.291143"/>
     <use style="fill-opacity:0;stroke:#000080;stroke-width:1.5;" x="199.196474" xlink:href="#mf24f9ce50d" y="128.606014"/>
     <use style="fill-opacity:0;stroke:#000080;stroke-width:1.5;" x="253.999673" xlink:href="#mf24f9ce50d" y="44.092167"/>
     <use style="fill-opacity:0;stroke:#000080;stroke-width:1.5;" x="283.565318" xlink:href="#mf24f9ce50d" y="30.334099"/>
     <use style="fill-opacity:0;stroke:#000080;stroke-width:1.5;" x="338.688" xlink:href="#mf24f9ce50d" y="30.334099"/>
    </g>
   </g>
   <g id="line2d_32">
    <path style="fill:none;stroke:#000080;stroke-linecap:square;stroke-width:1.5;"/>
    <g/>
   </g>
   <g id="line2d_33">
    <path clip-path="url(#p6e695aa69f)" d="M 236.852952 57.850235 
" style="fill:none;stroke:#000080;stroke-linecap:square;stroke-width:1.5;"/>
    <defs>
     <path d="M -12 12 
L 12 -12 
M -12 -12 
L 12 12 
" id="mb4ca5ca2ca" style="stroke:#000080;"/>
    </defs>
    <g clip-path="url(#p6e695aa69f)">
     <use style="fill:#000080;stroke:#000080;" x="236.852952" xlink:href="#mb4ca5ca2ca" y="57.850235"/>
    </g>
   </g>
   <g id="line2d_34">
    <defs>
     <path d="M 0 1.5 
C 0.397805 1.5 0.77937 1.341951 1.06066 1.06066 
C 1.341951 0.77937 1.5 0.397805 1.5 0 
C 1.5 -0.397805 1.341951 -0.77937 1.06066 -1.06066 
C 0.77937 -1.341951 0.397805 -1.5 0 -1.5 
C -0.397805 -1.5 -0.77937 -1.341951 -1.06066 -1.06066 
C -1.341951 -0.77937 -1.5 -0.397805 -1.5 0 
C -1.5 0.397805 -1.341951 0.77937 -1.06066 1.06066 
C -0.77937 1.341951 -0.397805 1.5 0 1.5 
z
" id="mbd86ac594a" style="stroke:#ff00ff;"/>
    </defs>
    <g>
     <use style="fill:#ff00ff;stroke:#ff00ff;" x="302.677909" xlink:href="#mbd86ac594a" y="30.334099"/>
     <use style="fill:#ff00ff;stroke:#ff00ff;" x="302.677909" xlink:href="#mbd86ac594a" y="30.334099"/>
    </g>
   </g>
   <g id="line2d_35">
    <path d="M 120.852343 298.944 
L 120.852343 298.288854 
L 132.80063 298.288854 
L 132.893889 293.702831 
L 133.488207 293.702831 
L 133.488207 291.737393 
L 138.426341 291.737393 
L 138.426341 290.427101 
L 138.927025 290.427101 
L 138.927025 289.771955 
L 139.123342 289.771955 
L 139.123342 288.461662 
L 140.042245 288.461662 
L 140.042245 287.806516 
L 140.165274 287.806516 
L 140.165274 287.15137 
L 141.46423 287.15137 
L 141.46423 286.496224 
L 141.941279 286.496224 
L 141.996555 283.87564 
L 142.432559 283.87564 
L 142.432559 282.565348 
L 143.092717 282.565348 
L 143.11861 279.289617 
L 143.60342 279.289617 
L 143.60342 274.048448 
L 145.166911 274.048448 
L 145.166911 272.738156 
L 146.60169 272.738156 
L 146.60169 272.08301 
L 147.48985 272.08301 
L 147.590249 270.117572 
L 148.025265 270.117572 
L 148.025265 269.462426 
L 148.219468 269.462426 
L 148.219468 268.807279 
L 148.48777 268.807279 
L 148.48777 268.152133 
L 148.658095 268.152133 
L 148.752007 266.841841 
L 149.557321 266.841841 
L 149.557321 266.186695 
L 149.893895 266.186695 
L 149.893895 265.531549 
L 150.068464 265.531549 
L 150.068464 264.221257 
L 150.18963 264.221257 
L 150.275665 261.600672 
L 150.766468 261.600672 
L 150.766468 258.980088 
L 150.94908 258.980088 
L 150.94908 258.324942 
L 151.113448 258.324942 
L 151.113448 257.669796 
L 151.357131 257.669796 
L 151.357131 256.359504 
L 151.485716 256.359504 
L 151.485716 255.704357 
L 152.572143 255.704357 
L 152.632227 254.394065 
L 152.751777 254.394065 
L 152.751777 253.738919 
L 153.003132 253.738919 
L 153.105587 252.428627 
L 153.294279 252.428627 
L 153.294279 251.773481 
L 153.707991 251.773481 
L 153.750233 249.808043 
L 153.848404 249.808043 
L 153.848404 249.152896 
L 154.358321 249.152896 
L 154.358321 248.49775 
L 154.547439 248.49775 
L 154.547439 247.187458 
L 154.972161 247.187458 
L 154.985269 245.22202 
L 155.450689 245.22202 
L 155.527065 243.256582 
L 155.666226 243.256582 
L 155.691409 241.946289 
L 155.854218 241.946289 
L 155.854218 239.325705 
L 156.370066 239.325705 
L 156.370066 238.670559 
L 156.514691 238.670559 
L 156.622378 237.360267 
L 156.646219 237.360267 
L 156.646219 236.705121 
L 156.776762 236.705121 
L 156.823991 235.394828 
L 156.941506 235.394828 
L 156.988292 232.774244 
L 157.15106 232.774244 
L 157.243392 228.843367 
L 157.300853 228.843367 
L 157.335239 226.222783 
L 157.787352 226.222783 
L 157.820792 224.257345 
L 157.9318 224.257345 
L 157.98704 222.947052 
L 158.455018 222.947052 
L 158.455018 221.63676 
L 158.615355 221.63676 
L 158.668475 219.671322 
L 158.879352 219.671322 
L 158.879352 218.36103 
L 159.035853 218.36103 
L 159.035853 216.395591 
L 159.527421 216.395591 
L 159.638147 215.085299 
L 159.718236 215.085299 
L 159.718236 214.430153 
L 159.837683 214.430153 
L 159.837683 213.775007 
L 160.162007 213.775007 
L 160.162007 211.809569 
L 160.886762 211.809569 
L 160.886762 210.499277 
L 161.118732 210.499277 
L 161.118732 209.84413 
L 161.393084 209.84413 
L 161.393084 209.188984 
L 162.00818 209.188984 
L 162.00818 208.533838 
L 163.037069 208.533838 
L 163.037069 207.878692 
L 163.573705 207.878692 
L 163.573705 207.223546 
L 163.725178 207.223546 
L 163.820172 205.913254 
L 165.171671 205.913254 
L 165.171671 204.602962 
L 165.654426 204.602962 
L 165.654426 203.947816 
L 166.172531 203.947816 
L 166.172531 203.292669 
L 167.500363 203.292669 
L 167.500363 202.637523 
L 167.842196 202.637523 
L 167.842196 201.982377 
L 170.856948 201.982377 
L 170.856948 200.672085 
L 171.273802 200.672085 
L 171.273802 200.016939 
L 172.534903 200.016939 
L 172.534903 199.361793 
L 174.609697 199.361793 
L 174.609697 198.706647 
L 174.942445 198.706647 
L 174.942445 198.051501 
L 175.589481 198.051501 
L 175.589481 197.396355 
L 177.101871 197.396355 
L 177.101871 196.741208 
L 180.005247 196.741208 
L 180.005247 196.086062 
L 180.863838 196.086062 
L 180.926116 194.77577 
L 182.294884 194.77577 
L 182.294884 194.120624 
L 182.590679 194.120624 
L 182.590679 193.465478 
L 183.0972 193.465478 
L 183.0972 192.810332 
L 184.437506 192.810332 
L 184.437506 192.155186 
L 187.243983 192.155186 
L 187.289259 190.844894 
L 188.580327 190.844894 
L 188.622267 189.534601 
L 189.947267 189.534601 
L 189.947267 188.879455 
L 191.008461 188.879455 
L 191.008461 188.224309 
L 192.353435 188.224309 
L 192.353435 187.569163 
L 192.562785 187.569163 
L 192.562785 186.914017 
L 194.251006 186.914017 
L 194.251006 186.258871 
L 195.010499 186.258871 
L 195.010499 185.603725 
L 195.282932 185.603725 
L 195.282932 184.948579 
L 195.81031 184.948579 
L 195.81031 184.293433 
L 198.091654 184.293433 
L 198.091654 183.638286 
L 198.443201 183.638286 
L 198.443201 182.98314 
L 198.596481 182.98314 
L 198.596481 182.327994 
L 198.761205 182.327994 
L 198.761205 181.672848 
L 200.18058 181.672848 
L 200.240342 180.362556 
L 200.370908 180.362556 
L 200.370908 179.70741 
L 201.747893 179.70741 
L 201.755965 178.397118 
L 202.006996 178.397118 
L 202.021132 177.086825 
L 202.590171 177.086825 
L 202.590171 176.431679 
L 203.137914 176.431679 
L 203.223023 175.121387 
L 203.455561 175.121387 
L 203.455561 174.466241 
L 206.135818 174.466241 
L 206.135818 173.811095 
L 206.351399 173.811095 
L 206.351399 173.155949 
L 206.552774 173.155949 
L 206.552774 172.500803 
L 206.798244 172.500803 
L 206.853889 171.190511 
L 207.077354 171.190511 
L 207.077354 170.535364 
L 207.464887 170.535364 
L 207.475225 169.225072 
L 208.010784 169.225072 
L 208.010784 168.569926 
L 208.693175 168.569926 
L 208.693175 167.91478 
L 209.008351 167.91478 
L 209.008351 167.259634 
L 209.452242 167.259634 
L 209.502917 165.949342 
L 209.741068 165.949342 
L 209.741068 165.294196 
L 210.300361 165.294196 
L 210.300361 164.63905 
L 210.433337 164.63905 
L 210.433337 163.983903 
L 211.324912 163.983903 
L 211.423051 162.673611 
L 211.680226 162.673611 
L 211.680226 162.018465 
L 212.157811 162.018465 
L 212.234678 160.708173 
L 212.395685 160.708173 
L 212.395685 160.053027 
L 212.811567 160.053027 
L 212.833908 158.742735 
L 213.183806 158.742735 
L 213.183806 158.087589 
L 213.300283 158.087589 
L 213.300283 157.432442 
L 214.997875 157.432442 
L 214.997875 156.777296 
L 215.814719 156.777296 
L 215.865497 154.811858 
L 215.996751 154.811858 
L 215.996751 154.156712 
L 216.234849 154.156712 
L 216.234849 153.501566 
L 216.383528 153.501566 
L 216.475909 152.191274 
L 216.659597 152.191274 
L 216.659597 151.536128 
L 216.776695 151.536128 
L 216.830796 149.570689 
L 217.295961 149.570689 
L 217.295961 148.915543 
L 217.674339 148.915543 
L 217.77375 146.950105 
L 218.295501 146.950105 
L 218.351675 144.32952 
L 218.661521 144.32952 
L 218.671381 143.019228 
L 218.800744 143.019228 
L 218.86574 141.708936 
L 218.930495 141.708936 
L 219.019683 139.088352 
L 219.663367 139.088352 
L 219.702498 137.778059 
L 220.136628 137.778059 
L 220.136628 137.122913 
L 220.262429 137.122913 
L 220.303956 135.812621 
L 220.767907 135.812621 
L 220.79441 134.502329 
L 221.268812 134.502329 
L 221.268812 133.847183 
L 221.450613 133.847183 
L 221.450613 133.192037 
L 221.659772 133.192037 
L 221.77025 131.881745 
L 221.810328 131.881745 
L 221.810328 131.226598 
L 221.984631 131.226598 
L 221.984631 130.571452 
L 222.348478 130.571452 
L 222.436075 129.26116 
L 222.841907 129.26116 
L 222.841907 128.606014 
L 222.978918 128.606014 
L 222.978918 127.950868 
L 223.147499 127.950868 
L 223.225686 126.640576 
L 223.317331 126.640576 
L 223.317331 125.98543 
L 223.753236 125.98543 
L 223.769737 124.675137 
L 223.957508 124.675137 
L 223.957508 124.019991 
L 225.379482 124.019991 
L 225.454285 121.399407 
L 225.709626 121.399407 
L 225.816344 118.123676 
L 225.978616 118.123676 
L 226.085149 115.503092 
L 226.385292 115.503092 
L 226.392825 114.1928 
L 226.543136 114.1928 
L 226.606113 112.882508 
L 226.674127 112.882508 
L 226.674127 111.572215 
L 226.798704 111.572215 
L 226.899298 108.951631 
L 227.038804 108.951631 
L 227.109241 107.641339 
L 227.256332 107.641339 
L 227.284669 106.331047 
L 234.790248 106.331047 
L 234.857961 103.710462 
L 234.975796 103.710462 
L 234.975796 103.055316 
L 235.235159 103.055316 
L 235.235159 102.40017 
L 235.360275 102.40017 
L 235.360275 101.745024 
L 235.524893 101.745024 
L 235.524893 101.089878 
L 236.371648 101.089878 
L 236.371648 100.434732 
L 236.485348 100.434732 
L 236.485348 99.779586 
L 236.755494 99.779586 
L 236.755494 98.469293 
L 236.884559 98.469293 
L 236.916587 97.159001 
L 237.11603 97.159001 
L 237.11603 96.503855 
L 237.385489 96.503855 
L 237.385489 95.848709 
L 237.633152 95.848709 
L 237.700459 93.883271 
L 237.854789 93.883271 
L 237.887288 92.572979 
L 238.138719 92.572979 
L 238.138719 91.917832 
L 238.394697 91.917832 
L 238.394697 91.262686 
L 239.029065 91.262686 
L 239.029065 90.60754 
L 240.606191 90.60754 
L 240.606191 89.952394 
L 240.96574 89.952394 
L 240.96574 89.297248 
L 241.154458 89.297248 
L 241.154458 88.642102 
L 241.650599 88.642102 
L 241.650599 87.986956 
L 242.022756 87.986956 
L 242.022756 87.33181 
L 243.630986 87.33181 
L 243.630986 86.676664 
L 243.902608 86.676664 
L 243.902608 86.021518 
L 244.446355 86.021518 
L 244.446355 85.366371 
L 245.496477 85.366371 
L 245.591775 84.056079 
L 246.132968 84.056079 
L 246.236478 82.745787 
L 246.285806 82.745787 
L 246.346609 81.435495 
L 246.46351 81.435495 
L 246.479042 80.125203 
L 246.590948 80.125203 
L 246.662652 78.81491 
L 247.079825 78.81491 
L 247.079825 78.159764 
L 247.575242 78.159764 
L 247.575242 77.504618 
L 247.881112 77.504618 
L 247.940924 74.228888 
L 248.363904 74.228888 
L 248.363904 73.573742 
L 248.592938 73.573742 
L 248.592938 72.918596 
L 249.003829 72.918596 
L 249.003829 72.263449 
L 249.301865 72.263449 
L 249.340206 70.953157 
L 250.002387 70.953157 
L 250.002387 70.298011 
L 250.323203 70.298011 
L 250.323203 69.642865 
L 250.479147 69.642865 
L 250.479147 68.987719 
L 251.246965 68.987719 
L 251.246965 68.332573 
L 251.446717 68.332573 
L 251.530486 67.022281 
L 251.632452 67.022281 
L 251.632452 66.367135 
L 252.210196 66.367135 
L 252.304966 64.401696 
L 252.399248 64.401696 
L 252.399248 63.091404 
L 253.773115 63.091404 
L 253.773115 62.436258 
L 254.888908 62.436258 
L 254.946029 61.125966 
L 255.227249 61.125966 
L 255.227249 60.47082 
L 255.448275 60.47082 
L 255.496726 59.160527 
L 255.560729 59.160527 
L 255.560729 58.505381 
L 255.988097 58.505381 
L 255.988097 57.850235 
L 256.746991 57.850235 
L 256.746991 57.195089 
L 256.956225 57.195089 
L 257.027181 55.884797 
L 257.283362 55.884797 
L 257.283362 55.229651 
L 257.446019 55.229651 
L 257.446019 54.574505 
L 258.299435 54.574505 
L 258.299435 53.919359 
L 258.490651 53.919359 
L 258.490651 53.264213 
L 258.668787 53.264213 
L 258.668787 52.609066 
L 259.252738 52.609066 
L 259.252738 51.95392 
L 259.943773 51.95392 
L 259.943773 51.298774 
L 260.921919 51.298774 
L 260.921919 50.643628 
L 261.951157 50.643628 
L 261.951157 49.988482 
L 262.265453 49.988482 
L 262.265453 49.333336 
L 262.763408 49.333336 
L 262.803855 48.023044 
L 266.172331 48.023044 
L 266.192796 46.712752 
L 266.396999 46.712752 
L 266.396999 46.057605 
L 267.664257 46.057605 
L 267.664257 45.402459 
L 269.175626 45.402459 
L 269.281697 44.092167 
L 270.022301 44.092167 
L 270.022301 43.437021 
L 270.285941 43.437021 
L 270.285941 42.781875 
L 271.111821 42.781875 
L 271.111821 42.126729 
L 273.286294 42.126729 
L 273.286294 41.471583 
L 275.350544 41.471583 
L 275.350544 40.816437 
L 275.668537 40.816437 
L 275.668537 40.161291 
L 275.787531 40.161291 
L 275.787531 39.506144 
L 277.049668 39.506144 
L 277.049668 38.850998 
L 278.232107 38.850998 
L 278.232107 38.195852 
L 279.224833 38.195852 
L 279.224833 37.540706 
L 279.952483 37.540706 
L 279.952483 36.88556 
L 281.375834 36.88556 
L 281.375834 36.230414 
L 282.771185 36.230414 
L 282.771185 35.575268 
L 283.233206 35.575268 
L 283.233206 34.920122 
L 284.219069 34.920122 
L 284.219069 34.264976 
L 284.484761 34.264976 
L 284.484761 33.60983 
L 284.849028 33.60983 
L 284.849028 32.954683 
L 290.295341 32.954683 
L 290.295341 32.299537 
L 293.529595 32.299537 
L 293.529595 31.644391 
L 302.609115 31.644391 
L 302.677909 30.334099 
L 338.688 30.334099 
L 338.688 30.334099 
" style="fill:none;stroke:#ff00ff;stroke-linecap:square;stroke-width:1.5;"/>
   </g>
   <g id="line2d_36">
    <defs>
     <path d="M -0 8.485281 
L 5.091169 0 
L 0 -8.485281 
L -5.091169 -0 
z
" id="mca3dda6daa" style="stroke:#ff00ff;stroke-linejoin:miter;stroke-width:1.5;"/>
    </defs>
    <g>
     <use style="fill-opacity:0;stroke:#ff00ff;stroke-linejoin:miter;stroke-width:1.5;" x="163.037069" xlink:href="#mca3dda6daa" y="208.533838"/>
     <use style="fill-opacity:0;stroke:#ff00ff;stroke-linejoin:miter;stroke-width:1.5;" x="221.450613" xlink:href="#mca3dda6daa" y="133.192037"/>
     <use style="fill-opacity:0;stroke:#ff00ff;stroke-linejoin:miter;stroke-width:1.5;" x="302.677909" xlink:href="#mca3dda6daa" y="30.989245"/>
     <use style="fill-opacity:0;stroke:#ff00ff;stroke-linejoin:miter;stroke-width:1.5;" x="302.677909" xlink:href="#mca3dda6daa" y="30.334099"/>
     <use style="fill-opacity:0;stroke:#ff00ff;stroke-linejoin:miter;stroke-width:1.5;" x="338.688" xlink:href="#mca3dda6daa" y="30.334099"/>
    </g>
   </g>
   <g id="line2d_37">
    <path style="fill:none;stroke:#ff00ff;stroke-linecap:square;stroke-width:1.5;"/>
    <g/>
   </g>
   <g id="line2d_38">
    <path clip-path="url(#p6e695aa69f)" d="M 236.120017 101.089878 
" style="fill:none;stroke:#ff00ff;stroke-linecap:square;stroke-width:1.5;"/>
    <defs>
     <path d="M -12 12 
L 12 -12 
M -12 -12 
L 12 12 
" id="m4a72f5b07e" style="stroke:#ff00ff;"/>
    </defs>
    <g clip-path="url(#p6e695aa69f)">
     <use style="fill:#ff00ff;stroke:#ff00ff;" x="236.120017" xlink:href="#m4a72f5b07e" y="101.089878"/>
    </g>
   </g>
   <g id="line2d_39">
    <path d="M 338.688 30.334099 
L 369.60768 293.571802 
" style="fill:none;stroke:#ff00ff;stroke-linecap:square;stroke-width:1.5;"/>
    <g>
     <use style="fill-opacity:0;stroke:#ff00ff;stroke-linejoin:miter;stroke-width:1.5;" x="338.688" xlink:href="#mca3dda6daa" y="30.334099"/>
     <use style="fill-opacity:0;stroke:#ff00ff;stroke-linejoin:miter;stroke-width:1.5;" x="369.60768" xlink:href="#mca3dda6daa" y="293.571802"/>
    </g>
   </g>
   <g id="line2d_40">
    <path d="M 338.688 30.334099 
L 369.60768 35.706297 
" style="fill:none;stroke:#000080;stroke-linecap:square;stroke-width:1.5;"/>
    <g>
     <use style="fill-opacity:0;stroke:#000080;stroke-width:1.5;" x="338.688" xlink:href="#mf24f9ce50d" y="30.334099"/>
     <use style="fill-opacity:0;stroke:#000080;stroke-width:1.5;" x="369.60768" xlink:href="#mf24f9ce50d" y="35.706297"/>
    </g>
   </g>
   <g id="line2d_41">
    <path d="M 338.688 298.944 
L 338.688 30.334099 
" style="fill:none;stroke:#000000;stroke-linecap:square;stroke-width:1.5;"/>
   </g>
   <g id="patch_3">
    <path d="M 57.6 298.944 
L 57.6 27.648 
" style="fill:none;stroke:#000000;stroke-linecap:square;stroke-linejoin:miter;stroke-width:0.8;"/>
   </g>
   <g id="patch_4">
    <path d="M 338.688 298.944 
L 338.688 27.648 
" style="fill:none;stroke:#000000;stroke-linecap:square;stroke-linejoin:miter;stroke-width:0.8;"/>
   </g>
   <g id="patch_5">
    <path d="M 57.6 298.944 
L 338.688 298.944 
" style="fill:none;stroke:#000000;stroke-linecap:square;stroke-linejoin:miter;stroke-width:0.8;"/>
   </g>
   <g id="patch_6">
    <path d="M 57.6 27.648 
L 338.688 27.648 
" style="fill:none;stroke:#000000;stroke-linecap:square;stroke-linejoin:miter;stroke-width:0.8;"/>
   </g>
   <g id="text_13">
    <!-- al cmaes old -->
    <g transform="translate(375.22944 298.262739)scale(0.17 -0.17)">
     <use xlink:href="#DejaVuSans-97"/>
     <use x="61.279297" xlink:href="#DejaVuSans-108"/>
     <use x="89.0625" xlink:href="#DejaVuSans-32"/>
     <use x="120.849609" xlink:href="#DejaVuSans-99"/>
     <use x="175.830078" xlink:href="#DejaVuSans-109"/>
     <use x="273.242188" xlink:href="#DejaVuSans-97"/>
     <use x="334.521484" xlink:href="#DejaVuSans-101"/>
     <use x="396.044922" xlink:href="#DejaVuSans-115"/>
     <use x="448.144531" xlink:href="#DejaVuSans-32"/>
     <use x="479.931641" xlink:href="#DejaVuSans-111"/>
     <use x="541.113281" xlink:href="#DejaVuSans-108"/>
     <use x="568.896484" xlink:href="#DejaVuSans-100"/>
    </g>
   </g>
   <g id="text_14">
    <!-- al cmaes new -->
    <g transform="translate(375.22944 40.397235)scale(0.17 -0.17)">
     <defs>
      <path d="M 4.203125 54.6875 
L 13.1875 54.6875 
L 24.421875 12.015625 
L 35.59375 54.6875 
L 46.1875 54.6875 
L 57.421875 12.015625 
L 68.609375 54.6875 
L 77.59375 54.6875 
L 63.28125 0 
L 52.6875 0 
L 40.921875 44.828125 
L 29.109375 0 
L 18.5 0 
z
" id="DejaVuSans-119"/>
     </defs>
     <use xlink:href="#DejaVuSans-97"/>
     <use x="61.279297" xlink:href="#DejaVuSans-108"/>
     <use x="89.0625" xlink:href="#DejaVuSans-32"/>
     <use x="120.849609" xlink:href="#DejaVuSans-99"/>
     <use x="175.830078" xlink:href="#DejaVuSans-109"/>
     <use x="273.242188" xlink:href="#DejaVuSans-97"/>
     <use x="334.521484" xlink:href="#DejaVuSans-101"/>
     <use x="396.044922" xlink:href="#DejaVuSans-115"/>
     <use x="448.144531" xlink:href="#DejaVuSans-32"/>
     <use x="479.931641" xlink:href="#DejaVuSans-110"/>
     <use x="543.310547" xlink:href="#DejaVuSans-101"/>
     <use x="604.833984" xlink:href="#DejaVuSans-119"/>
    </g>
   </g>
   <g id="text_15">
    <!-- bbob-constrained f29, 10-D -->
    <g transform="translate(60.41088 38.111366)scale(0.102 -0.102)">
     <defs>
      <path d="M 48.6875 27.296875 
Q 48.6875 37.203125 44.609375 42.84375 
Q 40.53125 48.484375 33.40625 48.484375 
Q 26.265625 48.484375 22.1875 42.84375 
Q 18.109375 37.203125 18.109375 27.296875 
Q 18.109375 17.390625 22.1875 11.75 
Q 26.265625 6.109375 33.40625 6.109375 
Q 40.53125 6.109375 44.609375 11.75 
Q 48.6875 17.390625 48.6875 27.296875 
z
M 18.109375 46.390625 
Q 20.953125 51.265625 25.265625 53.625 
Q 29.59375 56 35.59375 56 
Q 45.5625 56 51.78125 48.09375 
Q 58.015625 40.1875 58.015625 27.296875 
Q 58.015625 14.40625 51.78125 6.484375 
Q 45.5625 -1.421875 35.59375 -1.421875 
Q 29.59375 -1.421875 25.265625 0.953125 
Q 20.953125 3.328125 18.109375 8.203125 
L 18.109375 0 
L 9.078125 0 
L 9.078125 75.984375 
L 18.109375 75.984375 
z
" id="DejaVuSans-98"/>
      <path d="M 10.984375 1.515625 
L 10.984375 10.5 
Q 14.703125 8.734375 18.5 7.8125 
Q 22.3125 6.890625 25.984375 6.890625 
Q 35.75 6.890625 40.890625 13.453125 
Q 46.046875 20.015625 46.78125 33.40625 
Q 43.953125 29.203125 39.59375 26.953125 
Q 35.25 24.703125 29.984375 24.703125 
Q 19.046875 24.703125 12.671875 31.3125 
Q 6.296875 37.9375 6.296875 49.421875 
Q 6.296875 60.640625 12.9375 67.421875 
Q 19.578125 74.21875 30.609375 74.21875 
Q 43.265625 74.21875 49.921875 64.515625 
Q 56.59375 54.828125 56.59375 36.375 
Q 56.59375 19.140625 48.40625 8.859375 
Q 40.234375 -1.421875 26.421875 -1.421875 
Q 22.703125 -1.421875 18.890625 -0.6875 
Q 15.09375 0.046875 10.984375 1.515625 
z
M 30.609375 32.421875 
Q 37.25 32.421875 41.125 36.953125 
Q 45.015625 41.5 45.015625 49.421875 
Q 45.015625 57.28125 41.125 61.84375 
Q 37.25 66.40625 30.609375 66.40625 
Q 23.96875 66.40625 20.09375 61.84375 
Q 16.21875 57.28125 16.21875 49.421875 
Q 16.21875 41.5 20.09375 36.953125 
Q 23.96875 32.421875 30.609375 32.421875 
z
" id="DejaVuSans-57"/>
      <path d="M 19.671875 64.796875 
L 19.671875 8.109375 
L 31.59375 8.109375 
Q 46.6875 8.109375 53.6875 14.9375 
Q 60.6875 21.78125 60.6875 36.53125 
Q 60.6875 51.171875 53.6875 57.984375 
Q 46.6875 64.796875 31.59375 64.796875 
z
M 9.8125 72.90625 
L 30.078125 72.90625 
Q 51.265625 72.90625 61.171875 64.09375 
Q 71.09375 55.28125 71.09375 36.53125 
Q 71.09375 17.671875 61.125 8.828125 
Q 51.171875 0 30.078125 0 
L 9.8125 0 
z
" id="DejaVuSans-68"/>
     </defs>
     <use xlink:href="#DejaVuSans-98"/>
     <use x="63.476562" xlink:href="#DejaVuSans-98"/>
     <use x="126.953125" xlink:href="#DejaVuSans-111"/>
     <use x="188.134766" xlink:href="#DejaVuSans-98"/>
     <use x="251.611328" xlink:href="#DejaVuSans-45"/>
     <use x="287.695312" xlink:href="#DejaVuSans-99"/>
     <use x="342.675781" xlink:href="#DejaVuSans-111"/>
     <use x="403.857422" xlink:href="#DejaVuSans-110"/>
     <use x="467.236328" xlink:href="#DejaVuSans-115"/>
     <use x="519.335938" xlink:href="#DejaVuSans-116"/>
     <use x="558.544922" xlink:href="#DejaVuSans-114"/>
     <use x="599.658203" xlink:href="#DejaVuSans-97"/>
     <use x="660.9375" xlink:href="#DejaVuSans-105"/>
     <use x="688.720703" xlink:href="#DejaVuSans-110"/>
     <use x="752.099609" xlink:href="#DejaVuSans-101"/>
     <use x="813.623047" xlink:href="#DejaVuSans-100"/>
     <use x="877.099609" xlink:href="#DejaVuSans-32"/>
     <use x="908.886719" xlink:href="#DejaVuSans-102"/>
     <use x="944.091797" xlink:href="#DejaVuSans-50"/>
     <use x="1007.714844" xlink:href="#DejaVuSans-57"/>
     <use x="1071.337891" xlink:href="#DejaVuSans-44"/>
     <use x="1103.125" xlink:href="#DejaVuSans-32"/>
     <use x="1134.912109" xlink:href="#DejaVuSans-49"/>
     <use x="1198.535156" xlink:href="#DejaVuSans-48"/>
     <use x="1262.158203" xlink:href="#DejaVuSans-45"/>
     <use x="1298.242188" xlink:href="#DejaVuSans-68"/>
    </g>
    <!-- 41 targets: 100..1e-06 -->
    <g transform="translate(60.41088 49.533135)scale(0.102 -0.102)">
     <defs>
      <path d="M 11.71875 12.40625 
L 22.015625 12.40625 
L 22.015625 0 
L 11.71875 0 
z
M 11.71875 51.703125 
L 22.015625 51.703125 
L 22.015625 39.3125 
L 11.71875 39.3125 
z
" id="DejaVuSans-58"/>
     </defs>
     <use xlink:href="#DejaVuSans-52"/>
     <use x="63.623047" xlink:href="#DejaVuSans-49"/>
     <use x="127.246094" xlink:href="#DejaVuSans-32"/>
     <use x="159.033203" xlink:href="#DejaVuSans-116"/>
     <use x="198.242188" xlink:href="#DejaVuSans-97"/>
     <use x="259.521484" xlink:href="#DejaVuSans-114"/>
     <use x="298.884766" xlink:href="#DejaVuSans-103"/>
     <use x="362.361328" xlink:href="#DejaVuSans-101"/>
     <use x="423.884766" xlink:href="#DejaVuSans-116"/>
     <use x="463.09375" xlink:href="#DejaVuSans-115"/>
     <use x="515.193359" xlink:href="#DejaVuSans-58"/>
     <use x="548.884766" xlink:href="#DejaVuSans-32"/>
     <use x="580.671875" xlink:href="#DejaVuSans-49"/>
     <use x="644.294922" xlink:href="#DejaVuSans-48"/>
     <use x="707.917969" xlink:href="#DejaVuSans-48"/>
     <use x="771.541016" xlink:href="#DejaVuSans-46"/>
     <use x="803.328125" xlink:href="#DejaVuSans-46"/>
     <use x="835.115234" xlink:href="#DejaVuSans-49"/>
     <use x="898.738281" xlink:href="#DejaVuSans-101"/>
     <use x="960.261719" xlink:href="#DejaVuSans-45"/>
     <use x="996.345703" xlink:href="#DejaVuSans-48"/>
     <use x="1059.96875" xlink:href="#DejaVuSans-54"/>
    </g>
    <!-- 15 instances -->
    <g transform="translate(60.41088 60.954904)scale(0.102 -0.102)">
     <defs>
      <path d="M 10.796875 72.90625 
L 49.515625 72.90625 
L 49.515625 64.59375 
L 19.828125 64.59375 
L 19.828125 46.734375 
Q 21.96875 47.46875 24.109375 47.828125 
Q 26.265625 48.1875 28.421875 48.1875 
Q 40.625 48.1875 47.75 41.5 
Q 54.890625 34.8125 54.890625 23.390625 
Q 54.890625 11.625 47.5625 5.09375 
Q 40.234375 -1.421875 26.90625 -1.421875 
Q 22.3125 -1.421875 17.546875 -0.640625 
Q 12.796875 0.140625 7.71875 1.703125 
L 7.71875 11.625 
Q 12.109375 9.234375 16.796875 8.0625 
Q 21.484375 6.890625 26.703125 6.890625 
Q 35.15625 6.890625 40.078125 11.328125 
Q 45.015625 15.765625 45.015625 23.390625 
Q 45.015625 31 40.078125 35.4375 
Q 35.15625 39.890625 26.703125 39.890625 
Q 22.75 39.890625 18.8125 39.015625 
Q 14.890625 38.140625 10.796875 36.28125 
z
" id="DejaVuSans-53"/>
     </defs>
     <use xlink:href="#DejaVuSans-49"/>
     <use x="63.623047" xlink:href="#DejaVuSans-53"/>
     <use x="127.246094" xlink:href="#DejaVuSans-32"/>
     <use x="159.033203" xlink:href="#DejaVuSans-105"/>
     <use x="186.816406" xlink:href="#DejaVuSans-110"/>
     <use x="250.195312" xlink:href="#DejaVuSans-115"/>
     <use x="302.294922" xlink:href="#DejaVuSans-116"/>
     <use x="341.503906" xlink:href="#DejaVuSans-97"/>
     <use x="402.783203" xlink:href="#DejaVuSans-110"/>
     <use x="466.162109" xlink:href="#DejaVuSans-99"/>
     <use x="521.142578" xlink:href="#DejaVuSans-101"/>
     <use x="582.666016" xlink:href="#DejaVuSans-115"/>
    </g>
   </g>
   <g id="text_16">
    <!-- v5z33 -->
    <g style="fill:#808080;" transform="translate(183.016656 294.151352)scale(0.1 -0.1)">
     <defs>
      <path d="M 5.515625 54.6875 
L 48.1875 54.6875 
L 48.1875 46.484375 
L 14.40625 7.171875 
L 48.1875 7.171875 
L 48.1875 0 
L 4.296875 0 
L 4.296875 8.203125 
L 38.09375 47.515625 
L 5.515625 47.515625 
z
" id="DejaVuSans-122"/>
      <path d="M 40.578125 39.3125 
Q 47.65625 37.796875 51.625 33 
Q 55.609375 28.21875 55.609375 21.1875 
Q 55.609375 10.40625 48.1875 4.484375 
Q 40.765625 -1.421875 27.09375 -1.421875 
Q 22.515625 -1.421875 17.65625 -0.515625 
Q 12.796875 0.390625 7.625 2.203125 
L 7.625 11.71875 
Q 11.71875 9.328125 16.59375 8.109375 
Q 21.484375 6.890625 26.8125 6.890625 
Q 36.078125 6.890625 40.9375 10.546875 
Q 45.796875 14.203125 45.796875 21.1875 
Q 45.796875 27.640625 41.28125 31.265625 
Q 36.765625 34.90625 28.71875 34.90625 
L 20.21875 34.90625 
L 20.21875 43.015625 
L 29.109375 43.015625 
Q 36.375 43.015625 40.234375 45.921875 
Q 44.09375 48.828125 44.09375 54.296875 
Q 44.09375 59.90625 40.109375 62.90625 
Q 36.140625 65.921875 28.71875 65.921875 
Q 24.65625 65.921875 20.015625 65.03125 
Q 15.375 64.15625 9.8125 62.3125 
L 9.8125 71.09375 
Q 15.4375 72.65625 20.34375 73.4375 
Q 25.25 74.21875 29.59375 74.21875 
Q 40.828125 74.21875 47.359375 69.109375 
Q 53.90625 64.015625 53.90625 55.328125 
Q 53.90625 49.265625 50.4375 45.09375 
Q 46.96875 40.921875 40.578125 39.3125 
z
" id="DejaVuSans-51"/>
     </defs>
     <use xlink:href="#DejaVuSans-118"/>
     <use x="59.179688" xlink:href="#DejaVuSans-53"/>
     <use x="122.802734" xlink:href="#DejaVuSans-122"/>
     <use x="175.292969" xlink:href="#DejaVuSans-51"/>
     <use x="238.916016" xlink:href="#DejaVuSans-51"/>
    </g>
   </g>
   <g id="text_17">
    <!-- 29 Discus, n+6 constraints -->
    <g transform="translate(63.32525 21.648)scale(0.2 -0.2)">
     <use xlink:href="#DejaVuSans-50"/>
     <use x="63.623047" xlink:href="#DejaVuSans-57"/>
     <use x="127.246094" xlink:href="#DejaVuSans-32"/>
     <use x="159.033203" xlink:href="#DejaVuSans-68"/>
     <use x="236.035156" xlink:href="#DejaVuSans-105"/>
     <use x="263.818359" xlink:href="#DejaVuSans-115"/>
     <use x="315.917969" xlink:href="#DejaVuSans-99"/>
     <use x="370.898438" xlink:href="#DejaVuSans-117"/>
     <use x="434.277344" xlink:href="#DejaVuSans-115"/>
     <use x="486.376953" xlink:href="#DejaVuSans-44"/>
     <use x="518.164062" xlink:href="#DejaVuSans-32"/>
     <use x="549.951172" xlink:href="#DejaVuSans-110"/>
     <use x="613.330078" xlink:href="#DejaVuSans-43"/>
     <use x="697.119141" xlink:href="#DejaVuSans-54"/>
     <use x="760.742188" xlink:href="#DejaVuSans-32"/>
     <use x="792.529297" xlink:href="#DejaVuSans-99"/>
     <use x="847.509766" xlink:href="#DejaVuSans-111"/>
     <use x="908.691406" xlink:href="#DejaVuSans-110"/>
     <use x="972.070312" xlink:href="#DejaVuSans-115"/>
     <use x="1024.169922" xlink:href="#DejaVuSans-116"/>
     <use x="1063.378906" xlink:href="#DejaVuSans-114"/>
     <use x="1104.492188" xlink:href="#DejaVuSans-97"/>
     <use x="1165.771484" xlink:href="#DejaVuSans-105"/>
     <use x="1193.554688" xlink:href="#DejaVuSans-110"/>
     <use x="1256.933594" xlink:href="#DejaVuSans-116"/>
     <use x="1296.142578" xlink:href="#DejaVuSans-115"/>
    </g>
   </g>
  </g>
 </g>
 <defs>
  <clipPath id="p6e695aa69f">
   <rect height="271.296" width="281.088" x="57.6" y="27.648"/>
  </clipPath>
 </defs>
</svg>
