<?xml version="1.0" encoding="utf-8" standalone="no"?>
<!DOCTYPE svg PUBLIC "-//W3C//DTD SVG 1.1//EN"
  "http://www.w3.org/Graphics/SVG/1.1/DTD/svg11.dtd">
<!-- Created with matplotlib (https://matplotlib.org/) -->
<svg height="345.6pt" version="1.1" viewBox="0 0 460.8 345.6" width="460.8pt" xmlns="http://www.w3.org/2000/svg" xmlns:xlink="http://www.w3.org/1999/xlink">
 <metadata>
  <rdf:RDF xmlns:cc="http://creativecommons.org/ns#" xmlns:dc="http://purl.org/dc/elements/1.1/" xmlns:rdf="http://www.w3.org/1999/02/22-rdf-syntax-ns#">
   <cc:Work>
    <dc:type rdf:resource="http://purl.org/dc/dcmitype/StillImage"/>
    <dc:date>2021-03-16T10:43:12.272401</dc:date>
    <dc:format>image/svg+xml</dc:format>
    <dc:creator>
     <cc:Agent>
      <dc:title>Matplotlib v3.3.3, https://matplotlib.org/</dc:title>
     </cc:Agent>
    </dc:creator>
   </cc:Work>
  </rdf:RDF>
 </metadata>
 <defs>
  <style type="text/css">*{stroke-linecap:butt;stroke-linejoin:round;}</style>
 </defs>
 <g id="figure_1">
  <g id="patch_1">
   <path d="M 0 345.6 
L 460.8 345.6 
L 460.8 0 
L 0 0 
z
" style="fill:#ffffff;"/>
  </g>
  <g id="axes_1">
   <g id="patch_2">
    <path d="M 57.6 298.944 
L 338.688 298.944 
L 338.688 27.648 
L 57.6 27.648 
z
" style="fill:#ffffff;"/>
   </g>
   <g id="matplotlib.axis_1">
    <g id="xtick_1">
     <g id="line2d_1">
      <path clip-path="url(#p15da4ed815)" d="M 57.6 298.944 
L 57.6 27.648 
" style="fill:none;stroke:#b0b0b0;stroke-linecap:square;stroke-width:0.8;"/>
     </g>
     <g id="line2d_2">
      <defs>
       <path d="M 0 0 
L 0 3.5 
" id="mb3035751d0" style="stroke:#000000;stroke-width:0.8;"/>
      </defs>
      <g>
       <use style="stroke:#000000;stroke-width:0.8;" x="57.6" xlink:href="#mb3035751d0" y="298.944"/>
      </g>
     </g>
     <g id="text_1">
      <!-- 0 -->
      <g transform="translate(51.2375 321.140875)scale(0.2 -0.2)">
       <defs>
        <path d="M 31.78125 66.40625 
Q 24.171875 66.40625 20.328125 58.90625 
Q 16.5 51.421875 16.5 36.375 
Q 16.5 21.390625 20.328125 13.890625 
Q 24.171875 6.390625 31.78125 6.390625 
Q 39.453125 6.390625 43.28125 13.890625 
Q 47.125 21.390625 47.125 36.375 
Q 47.125 51.421875 43.28125 58.90625 
Q 39.453125 66.40625 31.78125 66.40625 
z
M 31.78125 74.21875 
Q 44.046875 74.21875 50.515625 64.515625 
Q 56.984375 54.828125 56.984375 36.375 
Q 56.984375 17.96875 50.515625 8.265625 
Q 44.046875 -1.421875 31.78125 -1.421875 
Q 19.53125 -1.421875 13.0625 8.265625 
Q 6.59375 17.96875 6.59375 36.375 
Q 6.59375 54.828125 13.0625 64.515625 
Q 19.53125 74.21875 31.78125 74.21875 
z
" id="DejaVuSans-48"/>
       </defs>
       <use xlink:href="#DejaVuSans-48"/>
      </g>
     </g>
    </g>
    <g id="xtick_2">
     <g id="line2d_3">
      <path clip-path="url(#p15da4ed815)" d="M 137.910857 298.944 
L 137.910857 27.648 
" style="fill:none;stroke:#b0b0b0;stroke-linecap:square;stroke-width:0.8;"/>
     </g>
     <g id="line2d_4">
      <g>
       <use style="stroke:#000000;stroke-width:0.8;" x="137.910857" xlink:href="#mb3035751d0" y="298.944"/>
      </g>
     </g>
     <g id="text_2">
      <!-- 2 -->
      <g transform="translate(131.548357 321.140875)scale(0.2 -0.2)">
       <defs>
        <path d="M 19.1875 8.296875 
L 53.609375 8.296875 
L 53.609375 0 
L 7.328125 0 
L 7.328125 8.296875 
Q 12.9375 14.109375 22.625 23.890625 
Q 32.328125 33.6875 34.8125 36.53125 
Q 39.546875 41.84375 41.421875 45.53125 
Q 43.3125 49.21875 43.3125 52.78125 
Q 43.3125 58.59375 39.234375 62.25 
Q 35.15625 65.921875 28.609375 65.921875 
Q 23.96875 65.921875 18.8125 64.3125 
Q 13.671875 62.703125 7.8125 59.421875 
L 7.8125 69.390625 
Q 13.765625 71.78125 18.9375 73 
Q 24.125 74.21875 28.421875 74.21875 
Q 39.75 74.21875 46.484375 68.546875 
Q 53.21875 62.890625 53.21875 53.421875 
Q 53.21875 48.921875 51.53125 44.890625 
Q 49.859375 40.875 45.40625 35.40625 
Q 44.1875 33.984375 37.640625 27.21875 
Q 31.109375 20.453125 19.1875 8.296875 
z
" id="DejaVuSans-50"/>
       </defs>
       <use xlink:href="#DejaVuSans-50"/>
      </g>
     </g>
    </g>
    <g id="xtick_3">
     <g id="line2d_5">
      <path clip-path="url(#p15da4ed815)" d="M 218.221714 298.944 
L 218.221714 27.648 
" style="fill:none;stroke:#b0b0b0;stroke-linecap:square;stroke-width:0.8;"/>
     </g>
     <g id="line2d_6">
      <g>
       <use style="stroke:#000000;stroke-width:0.8;" x="218.221714" xlink:href="#mb3035751d0" y="298.944"/>
      </g>
     </g>
     <g id="text_3">
      <!-- 4 -->
      <g transform="translate(211.859214 321.140875)scale(0.2 -0.2)">
       <defs>
        <path d="M 37.796875 64.3125 
L 12.890625 25.390625 
L 37.796875 25.390625 
z
M 35.203125 72.90625 
L 47.609375 72.90625 
L 47.609375 25.390625 
L 58.015625 25.390625 
L 58.015625 17.1875 
L 47.609375 17.1875 
L 47.609375 0 
L 37.796875 0 
L 37.796875 17.1875 
L 4.890625 17.1875 
L 4.890625 26.703125 
z
" id="DejaVuSans-52"/>
       </defs>
       <use xlink:href="#DejaVuSans-52"/>
      </g>
     </g>
    </g>
    <g id="xtick_4">
     <g id="line2d_7">
      <path clip-path="url(#p15da4ed815)" d="M 298.532571 298.944 
L 298.532571 27.648 
" style="fill:none;stroke:#b0b0b0;stroke-linecap:square;stroke-width:0.8;"/>
     </g>
     <g id="line2d_8">
      <g>
       <use style="stroke:#000000;stroke-width:0.8;" x="298.532571" xlink:href="#mb3035751d0" y="298.944"/>
      </g>
     </g>
     <g id="text_4">
      <!-- 6 -->
      <g transform="translate(292.170071 321.140875)scale(0.2 -0.2)">
       <defs>
        <path d="M 33.015625 40.375 
Q 26.375 40.375 22.484375 35.828125 
Q 18.609375 31.296875 18.609375 23.390625 
Q 18.609375 15.53125 22.484375 10.953125 
Q 26.375 6.390625 33.015625 6.390625 
Q 39.65625 6.390625 43.53125 10.953125 
Q 47.40625 15.53125 47.40625 23.390625 
Q 47.40625 31.296875 43.53125 35.828125 
Q 39.65625 40.375 33.015625 40.375 
z
M 52.59375 71.296875 
L 52.59375 62.3125 
Q 48.875 64.0625 45.09375 64.984375 
Q 41.3125 65.921875 37.59375 65.921875 
Q 27.828125 65.921875 22.671875 59.328125 
Q 17.53125 52.734375 16.796875 39.40625 
Q 19.671875 43.65625 24.015625 45.921875 
Q 28.375 48.1875 33.59375 48.1875 
Q 44.578125 48.1875 50.953125 41.515625 
Q 57.328125 34.859375 57.328125 23.390625 
Q 57.328125 12.15625 50.6875 5.359375 
Q 44.046875 -1.421875 33.015625 -1.421875 
Q 20.359375 -1.421875 13.671875 8.265625 
Q 6.984375 17.96875 6.984375 36.375 
Q 6.984375 53.65625 15.1875 63.9375 
Q 23.390625 74.21875 37.203125 74.21875 
Q 40.921875 74.21875 44.703125 73.484375 
Q 48.484375 72.75 52.59375 71.296875 
z
" id="DejaVuSans-54"/>
       </defs>
       <use xlink:href="#DejaVuSans-54"/>
      </g>
     </g>
    </g>
    <g id="xtick_5">
     <g id="line2d_9">
      <path clip-path="url(#p15da4ed815)" d="M 97.755429 298.944 
L 97.755429 27.648 
" style="fill:none;stroke:#b0b0b0;stroke-linecap:square;stroke-width:0.8;"/>
     </g>
     <g id="line2d_10">
      <defs>
       <path d="M 0 0 
L 0 2 
" id="mcbd05e8890" style="stroke:#000000;stroke-width:0.6;"/>
      </defs>
      <g>
       <use style="stroke:#000000;stroke-width:0.6;" x="97.755429" xlink:href="#mcbd05e8890" y="298.944"/>
      </g>
     </g>
    </g>
    <g id="xtick_6">
     <g id="line2d_11">
      <path clip-path="url(#p15da4ed815)" d="M 178.066286 298.944 
L 178.066286 27.648 
" style="fill:none;stroke:#b0b0b0;stroke-linecap:square;stroke-width:0.8;"/>
     </g>
     <g id="line2d_12">
      <g>
       <use style="stroke:#000000;stroke-width:0.6;" x="178.066286" xlink:href="#mcbd05e8890" y="298.944"/>
      </g>
     </g>
    </g>
    <g id="xtick_7">
     <g id="line2d_13">
      <path clip-path="url(#p15da4ed815)" d="M 258.377143 298.944 
L 258.377143 27.648 
" style="fill:none;stroke:#b0b0b0;stroke-linecap:square;stroke-width:0.8;"/>
     </g>
     <g id="line2d_14">
      <g>
       <use style="stroke:#000000;stroke-width:0.6;" x="258.377143" xlink:href="#mcbd05e8890" y="298.944"/>
      </g>
     </g>
    </g>
    <g id="xtick_8">
     <g id="line2d_15">
      <path clip-path="url(#p15da4ed815)" d="M 338.688 298.944 
L 338.688 27.648 
" style="fill:none;stroke:#b0b0b0;stroke-linecap:square;stroke-width:0.8;"/>
     </g>
     <g id="line2d_16">
      <g>
       <use style="stroke:#000000;stroke-width:0.6;" x="338.688" xlink:href="#mcbd05e8890" y="298.944"/>
      </g>
     </g>
    </g>
    <g id="text_5">
     <!-- log10(# (f+g)-evals / dimension) -->
     <g transform="translate(58.145016 342.217594)scale(0.17 -0.17)">
      <defs>
       <path d="M 9.421875 75.984375 
L 18.40625 75.984375 
L 18.40625 0 
L 9.421875 0 
z
" id="DejaVuSans-108"/>
       <path d="M 30.609375 48.390625 
Q 23.390625 48.390625 19.1875 42.75 
Q 14.984375 37.109375 14.984375 27.296875 
Q 14.984375 17.484375 19.15625 11.84375 
Q 23.34375 6.203125 30.609375 6.203125 
Q 37.796875 6.203125 41.984375 11.859375 
Q 46.1875 17.53125 46.1875 27.296875 
Q 46.1875 37.015625 41.984375 42.703125 
Q 37.796875 48.390625 30.609375 48.390625 
z
M 30.609375 56 
Q 42.328125 56 49.015625 48.375 
Q 55.71875 40.765625 55.71875 27.296875 
Q 55.71875 13.875 49.015625 6.21875 
Q 42.328125 -1.421875 30.609375 -1.421875 
Q 18.84375 -1.421875 12.171875 6.21875 
Q 5.515625 13.875 5.515625 27.296875 
Q 5.515625 40.765625 12.171875 48.375 
Q 18.84375 56 30.609375 56 
z
" id="DejaVuSans-111"/>
       <path d="M 45.40625 27.984375 
Q 45.40625 37.75 41.375 43.109375 
Q 37.359375 48.484375 30.078125 48.484375 
Q 22.859375 48.484375 18.828125 43.109375 
Q 14.796875 37.75 14.796875 27.984375 
Q 14.796875 18.265625 18.828125 12.890625 
Q 22.859375 7.515625 30.078125 7.515625 
Q 37.359375 7.515625 41.375 12.890625 
Q 45.40625 18.265625 45.40625 27.984375 
z
M 54.390625 6.78125 
Q 54.390625 -7.171875 48.1875 -13.984375 
Q 42 -20.796875 29.203125 -20.796875 
Q 24.46875 -20.796875 20.265625 -20.09375 
Q 16.0625 -19.390625 12.109375 -17.921875 
L 12.109375 -9.1875 
Q 16.0625 -11.328125 19.921875 -12.34375 
Q 23.78125 -13.375 27.78125 -13.375 
Q 36.625 -13.375 41.015625 -8.765625 
Q 45.40625 -4.15625 45.40625 5.171875 
L 45.40625 9.625 
Q 42.625 4.78125 38.28125 2.390625 
Q 33.9375 0 27.875 0 
Q 17.828125 0 11.671875 7.65625 
Q 5.515625 15.328125 5.515625 27.984375 
Q 5.515625 40.671875 11.671875 48.328125 
Q 17.828125 56 27.875 56 
Q 33.9375 56 38.28125 53.609375 
Q 42.625 51.21875 45.40625 46.390625 
L 45.40625 54.6875 
L 54.390625 54.6875 
z
" id="DejaVuSans-103"/>
       <path d="M 12.40625 8.296875 
L 28.515625 8.296875 
L 28.515625 63.921875 
L 10.984375 60.40625 
L 10.984375 69.390625 
L 28.421875 72.90625 
L 38.28125 72.90625 
L 38.28125 8.296875 
L 54.390625 8.296875 
L 54.390625 0 
L 12.40625 0 
z
" id="DejaVuSans-49"/>
       <path d="M 31 75.875 
Q 24.46875 64.65625 21.28125 53.65625 
Q 18.109375 42.671875 18.109375 31.390625 
Q 18.109375 20.125 21.3125 9.0625 
Q 24.515625 -2 31 -13.1875 
L 23.1875 -13.1875 
Q 15.875 -1.703125 12.234375 9.375 
Q 8.59375 20.453125 8.59375 31.390625 
Q 8.59375 42.28125 12.203125 53.3125 
Q 15.828125 64.359375 23.1875 75.875 
z
" id="DejaVuSans-40"/>
       <path d="M 51.125 44 
L 36.921875 44 
L 32.8125 27.6875 
L 47.125 27.6875 
z
M 43.796875 71.78125 
L 38.71875 51.515625 
L 52.984375 51.515625 
L 58.109375 71.78125 
L 65.921875 71.78125 
L 60.890625 51.515625 
L 76.125 51.515625 
L 76.125 44 
L 58.984375 44 
L 54.984375 27.6875 
L 70.515625 27.6875 
L 70.515625 20.21875 
L 53.078125 20.21875 
L 48 0 
L 40.1875 0 
L 45.21875 20.21875 
L 30.90625 20.21875 
L 25.875 0 
L 18.015625 0 
L 23.09375 20.21875 
L 7.71875 20.21875 
L 7.71875 27.6875 
L 24.90625 27.6875 
L 29 44 
L 13.28125 44 
L 13.28125 51.515625 
L 30.90625 51.515625 
L 35.890625 71.78125 
z
" id="DejaVuSans-35"/>
       <path id="DejaVuSans-32"/>
       <path d="M 37.109375 75.984375 
L 37.109375 68.5 
L 28.515625 68.5 
Q 23.6875 68.5 21.796875 66.546875 
Q 19.921875 64.59375 19.921875 59.515625 
L 19.921875 54.6875 
L 34.71875 54.6875 
L 34.71875 47.703125 
L 19.921875 47.703125 
L 19.921875 0 
L 10.890625 0 
L 10.890625 47.703125 
L 2.296875 47.703125 
L 2.296875 54.6875 
L 10.890625 54.6875 
L 10.890625 58.5 
Q 10.890625 67.625 15.140625 71.796875 
Q 19.390625 75.984375 28.609375 75.984375 
z
" id="DejaVuSans-102"/>
       <path d="M 46 62.703125 
L 46 35.5 
L 73.1875 35.5 
L 73.1875 27.203125 
L 46 27.203125 
L 46 0 
L 37.796875 0 
L 37.796875 27.203125 
L 10.59375 27.203125 
L 10.59375 35.5 
L 37.796875 35.5 
L 37.796875 62.703125 
z
" id="DejaVuSans-43"/>
       <path d="M 8.015625 75.875 
L 15.828125 75.875 
Q 23.140625 64.359375 26.78125 53.3125 
Q 30.421875 42.28125 30.421875 31.390625 
Q 30.421875 20.453125 26.78125 9.375 
Q 23.140625 -1.703125 15.828125 -13.1875 
L 8.015625 -13.1875 
Q 14.5 -2 17.703125 9.0625 
Q 20.90625 20.125 20.90625 31.390625 
Q 20.90625 42.671875 17.703125 53.65625 
Q 14.5 64.65625 8.015625 75.875 
z
" id="DejaVuSans-41"/>
       <path d="M 4.890625 31.390625 
L 31.203125 31.390625 
L 31.203125 23.390625 
L 4.890625 23.390625 
z
" id="DejaVuSans-45"/>
       <path d="M 56.203125 29.59375 
L 56.203125 25.203125 
L 14.890625 25.203125 
Q 15.484375 15.921875 20.484375 11.0625 
Q 25.484375 6.203125 34.421875 6.203125 
Q 39.59375 6.203125 44.453125 7.46875 
Q 49.3125 8.734375 54.109375 11.28125 
L 54.109375 2.78125 
Q 49.265625 0.734375 44.1875 -0.34375 
Q 39.109375 -1.421875 33.890625 -1.421875 
Q 20.796875 -1.421875 13.15625 6.1875 
Q 5.515625 13.8125 5.515625 26.8125 
Q 5.515625 40.234375 12.765625 48.109375 
Q 20.015625 56 32.328125 56 
Q 43.359375 56 49.78125 48.890625 
Q 56.203125 41.796875 56.203125 29.59375 
z
M 47.21875 32.234375 
Q 47.125 39.59375 43.09375 43.984375 
Q 39.0625 48.390625 32.421875 48.390625 
Q 24.90625 48.390625 20.390625 44.140625 
Q 15.875 39.890625 15.1875 32.171875 
z
" id="DejaVuSans-101"/>
       <path d="M 2.984375 54.6875 
L 12.5 54.6875 
L 29.59375 8.796875 
L 46.6875 54.6875 
L 56.203125 54.6875 
L 35.6875 0 
L 23.484375 0 
z
" id="DejaVuSans-118"/>
       <path d="M 34.28125 27.484375 
Q 23.390625 27.484375 19.1875 25 
Q 14.984375 22.515625 14.984375 16.5 
Q 14.984375 11.71875 18.140625 8.90625 
Q 21.296875 6.109375 26.703125 6.109375 
Q 34.1875 6.109375 38.703125 11.40625 
Q 43.21875 16.703125 43.21875 25.484375 
L 43.21875 27.484375 
z
M 52.203125 31.203125 
L 52.203125 0 
L 43.21875 0 
L 43.21875 8.296875 
Q 40.140625 3.328125 35.546875 0.953125 
Q 30.953125 -1.421875 24.3125 -1.421875 
Q 15.921875 -1.421875 10.953125 3.296875 
Q 6 8.015625 6 15.921875 
Q 6 25.140625 12.171875 29.828125 
Q 18.359375 34.515625 30.609375 34.515625 
L 43.21875 34.515625 
L 43.21875 35.40625 
Q 43.21875 41.609375 39.140625 45 
Q 35.0625 48.390625 27.6875 48.390625 
Q 23 48.390625 18.546875 47.265625 
Q 14.109375 46.140625 10.015625 43.890625 
L 10.015625 52.203125 
Q 14.9375 54.109375 19.578125 55.046875 
Q 24.21875 56 28.609375 56 
Q 40.484375 56 46.34375 49.84375 
Q 52.203125 43.703125 52.203125 31.203125 
z
" id="DejaVuSans-97"/>
       <path d="M 44.28125 53.078125 
L 44.28125 44.578125 
Q 40.484375 46.53125 36.375 47.5 
Q 32.28125 48.484375 27.875 48.484375 
Q 21.1875 48.484375 17.84375 46.4375 
Q 14.5 44.390625 14.5 40.28125 
Q 14.5 37.15625 16.890625 35.375 
Q 19.28125 33.59375 26.515625 31.984375 
L 29.59375 31.296875 
Q 39.15625 29.25 43.1875 25.515625 
Q 47.21875 21.78125 47.21875 15.09375 
Q 47.21875 7.46875 41.1875 3.015625 
Q 35.15625 -1.421875 24.609375 -1.421875 
Q 20.21875 -1.421875 15.453125 -0.5625 
Q 10.6875 0.296875 5.421875 2 
L 5.421875 11.28125 
Q 10.40625 8.6875 15.234375 7.390625 
Q 20.0625 6.109375 24.8125 6.109375 
Q 31.15625 6.109375 34.5625 8.28125 
Q 37.984375 10.453125 37.984375 14.40625 
Q 37.984375 18.0625 35.515625 20.015625 
Q 33.0625 21.96875 24.703125 23.78125 
L 21.578125 24.515625 
Q 13.234375 26.265625 9.515625 29.90625 
Q 5.8125 33.546875 5.8125 39.890625 
Q 5.8125 47.609375 11.28125 51.796875 
Q 16.75 56 26.8125 56 
Q 31.78125 56 36.171875 55.265625 
Q 40.578125 54.546875 44.28125 53.078125 
z
" id="DejaVuSans-115"/>
       <path d="M 25.390625 72.90625 
L 33.6875 72.90625 
L 8.296875 -9.28125 
L 0 -9.28125 
z
" id="DejaVuSans-47"/>
       <path d="M 45.40625 46.390625 
L 45.40625 75.984375 
L 54.390625 75.984375 
L 54.390625 0 
L 45.40625 0 
L 45.40625 8.203125 
Q 42.578125 3.328125 38.25 0.953125 
Q 33.9375 -1.421875 27.875 -1.421875 
Q 17.96875 -1.421875 11.734375 6.484375 
Q 5.515625 14.40625 5.515625 27.296875 
Q 5.515625 40.1875 11.734375 48.09375 
Q 17.96875 56 27.875 56 
Q 33.9375 56 38.25 53.625 
Q 42.578125 51.265625 45.40625 46.390625 
z
M 14.796875 27.296875 
Q 14.796875 17.390625 18.875 11.75 
Q 22.953125 6.109375 30.078125 6.109375 
Q 37.203125 6.109375 41.296875 11.75 
Q 45.40625 17.390625 45.40625 27.296875 
Q 45.40625 37.203125 41.296875 42.84375 
Q 37.203125 48.484375 30.078125 48.484375 
Q 22.953125 48.484375 18.875 42.84375 
Q 14.796875 37.203125 14.796875 27.296875 
z
" id="DejaVuSans-100"/>
       <path d="M 9.421875 54.6875 
L 18.40625 54.6875 
L 18.40625 0 
L 9.421875 0 
z
M 9.421875 75.984375 
L 18.40625 75.984375 
L 18.40625 64.59375 
L 9.421875 64.59375 
z
" id="DejaVuSans-105"/>
       <path d="M 52 44.1875 
Q 55.375 50.25 60.0625 53.125 
Q 64.75 56 71.09375 56 
Q 79.640625 56 84.28125 50.015625 
Q 88.921875 44.046875 88.921875 33.015625 
L 88.921875 0 
L 79.890625 0 
L 79.890625 32.71875 
Q 79.890625 40.578125 77.09375 44.375 
Q 74.3125 48.1875 68.609375 48.1875 
Q 61.625 48.1875 57.5625 43.546875 
Q 53.515625 38.921875 53.515625 30.90625 
L 53.515625 0 
L 44.484375 0 
L 44.484375 32.71875 
Q 44.484375 40.625 41.703125 44.40625 
Q 38.921875 48.1875 33.109375 48.1875 
Q 26.21875 48.1875 22.15625 43.53125 
Q 18.109375 38.875 18.109375 30.90625 
L 18.109375 0 
L 9.078125 0 
L 9.078125 54.6875 
L 18.109375 54.6875 
L 18.109375 46.1875 
Q 21.1875 51.21875 25.484375 53.609375 
Q 29.78125 56 35.6875 56 
Q 41.65625 56 45.828125 52.96875 
Q 50 49.953125 52 44.1875 
z
" id="DejaVuSans-109"/>
       <path d="M 54.890625 33.015625 
L 54.890625 0 
L 45.90625 0 
L 45.90625 32.71875 
Q 45.90625 40.484375 42.875 44.328125 
Q 39.84375 48.1875 33.796875 48.1875 
Q 26.515625 48.1875 22.3125 43.546875 
Q 18.109375 38.921875 18.109375 30.90625 
L 18.109375 0 
L 9.078125 0 
L 9.078125 54.6875 
L 18.109375 54.6875 
L 18.109375 46.1875 
Q 21.34375 51.125 25.703125 53.5625 
Q 30.078125 56 35.796875 56 
Q 45.21875 56 50.046875 50.171875 
Q 54.890625 44.34375 54.890625 33.015625 
z
" id="DejaVuSans-110"/>
      </defs>
      <use xlink:href="#DejaVuSans-108"/>
      <use x="27.783203" xlink:href="#DejaVuSans-111"/>
      <use x="88.964844" xlink:href="#DejaVuSans-103"/>
      <use x="152.441406" xlink:href="#DejaVuSans-49"/>
      <use x="216.064453" xlink:href="#DejaVuSans-48"/>
      <use x="279.6875" xlink:href="#DejaVuSans-40"/>
      <use x="318.701172" xlink:href="#DejaVuSans-35"/>
      <use x="402.490234" xlink:href="#DejaVuSans-32"/>
      <use x="434.277344" xlink:href="#DejaVuSans-40"/>
      <use x="473.291016" xlink:href="#DejaVuSans-102"/>
      <use x="508.496094" xlink:href="#DejaVuSans-43"/>
      <use x="592.285156" xlink:href="#DejaVuSans-103"/>
      <use x="655.761719" xlink:href="#DejaVuSans-41"/>
      <use x="694.775391" xlink:href="#DejaVuSans-45"/>
      <use x="730.859375" xlink:href="#DejaVuSans-101"/>
      <use x="792.382812" xlink:href="#DejaVuSans-118"/>
      <use x="851.5625" xlink:href="#DejaVuSans-97"/>
      <use x="912.841797" xlink:href="#DejaVuSans-108"/>
      <use x="940.625" xlink:href="#DejaVuSans-115"/>
      <use x="992.724609" xlink:href="#DejaVuSans-32"/>
      <use x="1024.511719" xlink:href="#DejaVuSans-47"/>
      <use x="1058.203125" xlink:href="#DejaVuSans-32"/>
      <use x="1089.990234" xlink:href="#DejaVuSans-100"/>
      <use x="1153.466797" xlink:href="#DejaVuSans-105"/>
      <use x="1181.25" xlink:href="#DejaVuSans-109"/>
      <use x="1278.662109" xlink:href="#DejaVuSans-101"/>
      <use x="1340.185547" xlink:href="#DejaVuSans-110"/>
      <use x="1403.564453" xlink:href="#DejaVuSans-115"/>
      <use x="1455.664062" xlink:href="#DejaVuSans-105"/>
      <use x="1483.447266" xlink:href="#DejaVuSans-111"/>
      <use x="1544.628906" xlink:href="#DejaVuSans-110"/>
      <use x="1608.007812" xlink:href="#DejaVuSans-41"/>
     </g>
    </g>
   </g>
   <g id="matplotlib.axis_2">
    <g id="ytick_1">
     <g id="line2d_17">
      <path clip-path="url(#p15da4ed815)" d="M 57.6 298.944 
L 338.688 298.944 
" style="fill:none;stroke:#b0b0b0;stroke-linecap:square;stroke-width:0.8;"/>
     </g>
     <g id="line2d_18">
      <defs>
       <path d="M 0 0 
L -3.5 0 
" id="m26ccc1b62b" style="stroke:#000000;stroke-width:0.8;"/>
      </defs>
      <g>
       <use style="stroke:#000000;stroke-width:0.8;" x="57.6" xlink:href="#m26ccc1b62b" y="298.944"/>
      </g>
     </g>
     <g id="text_6">
      <!-- 0.0 -->
      <g transform="translate(25.155 305.02275)scale(0.16 -0.16)">
       <defs>
        <path d="M 10.6875 12.40625 
L 21 12.40625 
L 21 0 
L 10.6875 0 
z
" id="DejaVuSans-46"/>
       </defs>
       <use xlink:href="#DejaVuSans-48"/>
       <use x="63.623047" xlink:href="#DejaVuSans-46"/>
       <use x="95.410156" xlink:href="#DejaVuSans-48"/>
      </g>
     </g>
    </g>
    <g id="ytick_2">
     <g id="line2d_19">
      <path clip-path="url(#p15da4ed815)" d="M 57.6 245.22202 
L 338.688 245.22202 
" style="fill:none;stroke:#b0b0b0;stroke-linecap:square;stroke-width:0.8;"/>
     </g>
     <g id="line2d_20">
      <g>
       <use style="stroke:#000000;stroke-width:0.8;" x="57.6" xlink:href="#m26ccc1b62b" y="245.22202"/>
      </g>
     </g>
     <g id="text_7">
      <!-- 0.2 -->
      <g transform="translate(25.155 251.30077)scale(0.16 -0.16)">
       <use xlink:href="#DejaVuSans-48"/>
       <use x="63.623047" xlink:href="#DejaVuSans-46"/>
       <use x="95.410156" xlink:href="#DejaVuSans-50"/>
      </g>
     </g>
    </g>
    <g id="ytick_3">
     <g id="line2d_21">
      <path clip-path="url(#p15da4ed815)" d="M 57.6 191.50004 
L 338.688 191.50004 
" style="fill:none;stroke:#b0b0b0;stroke-linecap:square;stroke-width:0.8;"/>
     </g>
     <g id="line2d_22">
      <g>
       <use style="stroke:#000000;stroke-width:0.8;" x="57.6" xlink:href="#m26ccc1b62b" y="191.50004"/>
      </g>
     </g>
     <g id="text_8">
      <!-- 0.4 -->
      <g transform="translate(25.155 197.57879)scale(0.16 -0.16)">
       <use xlink:href="#DejaVuSans-48"/>
       <use x="63.623047" xlink:href="#DejaVuSans-46"/>
       <use x="95.410156" xlink:href="#DejaVuSans-52"/>
      </g>
     </g>
    </g>
    <g id="ytick_4">
     <g id="line2d_23">
      <path clip-path="url(#p15da4ed815)" d="M 57.6 137.778059 
L 338.688 137.778059 
" style="fill:none;stroke:#b0b0b0;stroke-linecap:square;stroke-width:0.8;"/>
     </g>
     <g id="line2d_24">
      <g>
       <use style="stroke:#000000;stroke-width:0.8;" x="57.6" xlink:href="#m26ccc1b62b" y="137.778059"/>
      </g>
     </g>
     <g id="text_9">
      <!-- 0.6 -->
      <g transform="translate(25.155 143.856809)scale(0.16 -0.16)">
       <use xlink:href="#DejaVuSans-48"/>
       <use x="63.623047" xlink:href="#DejaVuSans-46"/>
       <use x="95.410156" xlink:href="#DejaVuSans-54"/>
      </g>
     </g>
    </g>
    <g id="ytick_5">
     <g id="line2d_25">
      <path clip-path="url(#p15da4ed815)" d="M 57.6 84.056079 
L 338.688 84.056079 
" style="fill:none;stroke:#b0b0b0;stroke-linecap:square;stroke-width:0.8;"/>
     </g>
     <g id="line2d_26">
      <g>
       <use style="stroke:#000000;stroke-width:0.8;" x="57.6" xlink:href="#m26ccc1b62b" y="84.056079"/>
      </g>
     </g>
     <g id="text_10">
      <!-- 0.8 -->
      <g transform="translate(25.155 90.134829)scale(0.16 -0.16)">
       <defs>
        <path d="M 31.78125 34.625 
Q 24.75 34.625 20.71875 30.859375 
Q 16.703125 27.09375 16.703125 20.515625 
Q 16.703125 13.921875 20.71875 10.15625 
Q 24.75 6.390625 31.78125 6.390625 
Q 38.8125 6.390625 42.859375 10.171875 
Q 46.921875 13.96875 46.921875 20.515625 
Q 46.921875 27.09375 42.890625 30.859375 
Q 38.875 34.625 31.78125 34.625 
z
M 21.921875 38.8125 
Q 15.578125 40.375 12.03125 44.71875 
Q 8.5 49.078125 8.5 55.328125 
Q 8.5 64.0625 14.71875 69.140625 
Q 20.953125 74.21875 31.78125 74.21875 
Q 42.671875 74.21875 48.875 69.140625 
Q 55.078125 64.0625 55.078125 55.328125 
Q 55.078125 49.078125 51.53125 44.71875 
Q 48 40.375 41.703125 38.8125 
Q 48.828125 37.15625 52.796875 32.3125 
Q 56.78125 27.484375 56.78125 20.515625 
Q 56.78125 9.90625 50.3125 4.234375 
Q 43.84375 -1.421875 31.78125 -1.421875 
Q 19.734375 -1.421875 13.25 4.234375 
Q 6.78125 9.90625 6.78125 20.515625 
Q 6.78125 27.484375 10.78125 32.3125 
Q 14.796875 37.15625 21.921875 38.8125 
z
M 18.3125 54.390625 
Q 18.3125 48.734375 21.84375 45.5625 
Q 25.390625 42.390625 31.78125 42.390625 
Q 38.140625 42.390625 41.71875 45.5625 
Q 45.3125 48.734375 45.3125 54.390625 
Q 45.3125 60.0625 41.71875 63.234375 
Q 38.140625 66.40625 31.78125 66.40625 
Q 25.390625 66.40625 21.84375 63.234375 
Q 18.3125 60.0625 18.3125 54.390625 
z
" id="DejaVuSans-56"/>
       </defs>
       <use xlink:href="#DejaVuSans-48"/>
       <use x="63.623047" xlink:href="#DejaVuSans-46"/>
       <use x="95.410156" xlink:href="#DejaVuSans-56"/>
      </g>
     </g>
    </g>
    <g id="ytick_6">
     <g id="line2d_27">
      <path clip-path="url(#p15da4ed815)" d="M 57.6 30.334099 
L 338.688 30.334099 
" style="fill:none;stroke:#b0b0b0;stroke-linecap:square;stroke-width:0.8;"/>
     </g>
     <g id="line2d_28">
      <g>
       <use style="stroke:#000000;stroke-width:0.8;" x="57.6" xlink:href="#m26ccc1b62b" y="30.334099"/>
      </g>
     </g>
     <g id="text_11">
      <!-- 1.0 -->
      <g transform="translate(25.155 36.412849)scale(0.16 -0.16)">
       <use xlink:href="#DejaVuSans-49"/>
       <use x="63.623047" xlink:href="#DejaVuSans-46"/>
       <use x="95.410156" xlink:href="#DejaVuSans-48"/>
      </g>
     </g>
    </g>
    <g id="text_12">
     <!-- Fraction of function,target pairs -->
     <g transform="translate(17.619531 297.681)rotate(-90)scale(0.17 -0.17)">
      <defs>
       <path d="M 9.8125 72.90625 
L 51.703125 72.90625 
L 51.703125 64.59375 
L 19.671875 64.59375 
L 19.671875 43.109375 
L 48.578125 43.109375 
L 48.578125 34.8125 
L 19.671875 34.8125 
L 19.671875 0 
L 9.8125 0 
z
" id="DejaVuSans-70"/>
       <path d="M 41.109375 46.296875 
Q 39.59375 47.171875 37.8125 47.578125 
Q 36.03125 48 33.890625 48 
Q 26.265625 48 22.1875 43.046875 
Q 18.109375 38.09375 18.109375 28.8125 
L 18.109375 0 
L 9.078125 0 
L 9.078125 54.6875 
L 18.109375 54.6875 
L 18.109375 46.1875 
Q 20.953125 51.171875 25.484375 53.578125 
Q 30.03125 56 36.53125 56 
Q 37.453125 56 38.578125 55.875 
Q 39.703125 55.765625 41.0625 55.515625 
z
" id="DejaVuSans-114"/>
       <path d="M 48.78125 52.59375 
L 48.78125 44.1875 
Q 44.96875 46.296875 41.140625 47.34375 
Q 37.3125 48.390625 33.40625 48.390625 
Q 24.65625 48.390625 19.8125 42.84375 
Q 14.984375 37.3125 14.984375 27.296875 
Q 14.984375 17.28125 19.8125 11.734375 
Q 24.65625 6.203125 33.40625 6.203125 
Q 37.3125 6.203125 41.140625 7.25 
Q 44.96875 8.296875 48.78125 10.40625 
L 48.78125 2.09375 
Q 45.015625 0.34375 40.984375 -0.53125 
Q 36.96875 -1.421875 32.421875 -1.421875 
Q 20.0625 -1.421875 12.78125 6.34375 
Q 5.515625 14.109375 5.515625 27.296875 
Q 5.515625 40.671875 12.859375 48.328125 
Q 20.21875 56 33.015625 56 
Q 37.15625 56 41.109375 55.140625 
Q 45.0625 54.296875 48.78125 52.59375 
z
" id="DejaVuSans-99"/>
       <path d="M 18.3125 70.21875 
L 18.3125 54.6875 
L 36.8125 54.6875 
L 36.8125 47.703125 
L 18.3125 47.703125 
L 18.3125 18.015625 
Q 18.3125 11.328125 20.140625 9.421875 
Q 21.96875 7.515625 27.59375 7.515625 
L 36.8125 7.515625 
L 36.8125 0 
L 27.59375 0 
Q 17.1875 0 13.234375 3.875 
Q 9.28125 7.765625 9.28125 18.015625 
L 9.28125 47.703125 
L 2.6875 47.703125 
L 2.6875 54.6875 
L 9.28125 54.6875 
L 9.28125 70.21875 
z
" id="DejaVuSans-116"/>
       <path d="M 8.5 21.578125 
L 8.5 54.6875 
L 17.484375 54.6875 
L 17.484375 21.921875 
Q 17.484375 14.15625 20.5 10.265625 
Q 23.53125 6.390625 29.59375 6.390625 
Q 36.859375 6.390625 41.078125 11.03125 
Q 45.3125 15.671875 45.3125 23.6875 
L 45.3125 54.6875 
L 54.296875 54.6875 
L 54.296875 0 
L 45.3125 0 
L 45.3125 8.40625 
Q 42.046875 3.421875 37.71875 1 
Q 33.40625 -1.421875 27.6875 -1.421875 
Q 18.265625 -1.421875 13.375 4.4375 
Q 8.5 10.296875 8.5 21.578125 
z
M 31.109375 56 
z
" id="DejaVuSans-117"/>
       <path d="M 11.71875 12.40625 
L 22.015625 12.40625 
L 22.015625 4 
L 14.015625 -11.625 
L 7.71875 -11.625 
L 11.71875 4 
z
" id="DejaVuSans-44"/>
       <path d="M 18.109375 8.203125 
L 18.109375 -20.796875 
L 9.078125 -20.796875 
L 9.078125 54.6875 
L 18.109375 54.6875 
L 18.109375 46.390625 
Q 20.953125 51.265625 25.265625 53.625 
Q 29.59375 56 35.59375 56 
Q 45.5625 56 51.78125 48.09375 
Q 58.015625 40.1875 58.015625 27.296875 
Q 58.015625 14.40625 51.78125 6.484375 
Q 45.5625 -1.421875 35.59375 -1.421875 
Q 29.59375 -1.421875 25.265625 0.953125 
Q 20.953125 3.328125 18.109375 8.203125 
z
M 48.6875 27.296875 
Q 48.6875 37.203125 44.609375 42.84375 
Q 40.53125 48.484375 33.40625 48.484375 
Q 26.265625 48.484375 22.1875 42.84375 
Q 18.109375 37.203125 18.109375 27.296875 
Q 18.109375 17.390625 22.1875 11.75 
Q 26.265625 6.109375 33.40625 6.109375 
Q 40.53125 6.109375 44.609375 11.75 
Q 48.6875 17.390625 48.6875 27.296875 
z
" id="DejaVuSans-112"/>
      </defs>
      <use xlink:href="#DejaVuSans-70"/>
      <use x="50.269531" xlink:href="#DejaVuSans-114"/>
      <use x="91.382812" xlink:href="#DejaVuSans-97"/>
      <use x="152.662109" xlink:href="#DejaVuSans-99"/>
      <use x="207.642578" xlink:href="#DejaVuSans-116"/>
      <use x="246.851562" xlink:href="#DejaVuSans-105"/>
      <use x="274.634766" xlink:href="#DejaVuSans-111"/>
      <use x="335.816406" xlink:href="#DejaVuSans-110"/>
      <use x="399.195312" xlink:href="#DejaVuSans-32"/>
      <use x="430.982422" xlink:href="#DejaVuSans-111"/>
      <use x="492.164062" xlink:href="#DejaVuSans-102"/>
      <use x="527.369141" xlink:href="#DejaVuSans-32"/>
      <use x="559.15625" xlink:href="#DejaVuSans-102"/>
      <use x="594.361328" xlink:href="#DejaVuSans-117"/>
      <use x="657.740234" xlink:href="#DejaVuSans-110"/>
      <use x="721.119141" xlink:href="#DejaVuSans-99"/>
      <use x="776.099609" xlink:href="#DejaVuSans-116"/>
      <use x="815.308594" xlink:href="#DejaVuSans-105"/>
      <use x="843.091797" xlink:href="#DejaVuSans-111"/>
      <use x="904.273438" xlink:href="#DejaVuSans-110"/>
      <use x="967.652344" xlink:href="#DejaVuSans-44"/>
      <use x="999.439453" xlink:href="#DejaVuSans-116"/>
      <use x="1038.648438" xlink:href="#DejaVuSans-97"/>
      <use x="1099.927734" xlink:href="#DejaVuSans-114"/>
      <use x="1139.291016" xlink:href="#DejaVuSans-103"/>
      <use x="1202.767578" xlink:href="#DejaVuSans-101"/>
      <use x="1264.291016" xlink:href="#DejaVuSans-116"/>
      <use x="1303.5" xlink:href="#DejaVuSans-32"/>
      <use x="1335.287109" xlink:href="#DejaVuSans-112"/>
      <use x="1398.763672" xlink:href="#DejaVuSans-97"/>
      <use x="1460.042969" xlink:href="#DejaVuSans-105"/>
      <use x="1487.826172" xlink:href="#DejaVuSans-114"/>
      <use x="1528.939453" xlink:href="#DejaVuSans-115"/>
     </g>
    </g>
   </g>
   <g id="line2d_29">
    <defs>
     <path d="M 0 1.5 
C 0.397805 1.5 0.77937 1.341951 1.06066 1.06066 
C 1.341951 0.77937 1.5 0.397805 1.5 0 
C 1.5 -0.397805 1.341951 -0.77937 1.06066 -1.06066 
C 0.77937 -1.341951 0.397805 -1.5 0 -1.5 
C -0.397805 -1.5 -0.77937 -1.341951 -1.06066 -1.06066 
C -1.341951 -0.77937 -1.5 -0.397805 -1.5 0 
C -1.5 0.397805 -1.341951 0.77937 -1.06066 1.06066 
C -0.77937 1.341951 -0.397805 1.5 0 1.5 
z
" id="mae5d421dfb" style="stroke:#000080;"/>
    </defs>
    <g>
     <use style="fill:#000080;stroke:#000080;" x="192.877395" xlink:href="#mae5d421dfb" y="30.334099"/>
     <use style="fill:#000080;stroke:#000080;" x="192.877395" xlink:href="#mae5d421dfb" y="30.334099"/>
    </g>
   </g>
   <g id="line2d_30">
    <path d="M 45.512012 298.944 
L 45.512012 298.288854 
L 76.759008 298.288854 
L 76.759008 295.66827 
L 81.775977 295.66827 
L 81.775977 295.013123 
L 105.951954 295.013123 
L 105.951954 293.702831 
L 119.097192 293.702831 
L 119.097192 293.047685 
L 120.093994 293.047685 
L 120.093994 292.392539 
L 120.571812 292.392539 
L 120.571812 291.737393 
L 121.931406 291.737393 
L 121.931406 289.771955 
L 123.192626 289.771955 
L 123.192626 279.289617 
L 123.985457 279.289617 
L 123.985457 277.979325 
L 125.470548 277.979325 
L 125.470548 275.35874 
L 126.168212 275.35874 
L 126.168212 273.393302 
L 126.50685 273.393302 
L 126.50685 272.738156 
L 127.799239 272.738156 
L 127.799239 272.08301 
L 128.411207 272.08301 
L 128.411207 269.462426 
L 129.002426 269.462426 
L 129.002426 267.496987 
L 130.926816 267.496987 
L 130.926816 266.186695 
L 132.893889 266.186695 
L 132.893889 264.876403 
L 134.019394 264.876403 
L 134.019394 263.566111 
L 134.236034 263.566111 
L 134.236034 262.910965 
L 135.076644 262.910965 
L 135.076644 261.600672 
L 136.645276 261.600672 
L 136.645276 260.945526 
L 137.016339 260.945526 
L 137.016339 260.29038 
L 137.735587 260.29038 
L 137.735587 258.980088 
L 139.090775 258.980088 
L 139.090775 258.324942 
L 140.348205 258.324942 
L 140.348205 257.669796 
L 140.64889 257.669796 
L 140.64889 257.01465 
L 140.79731 257.01465 
L 140.79731 256.359504 
L 142.07914 256.359504 
L 142.07914 255.704357 
L 143.778691 255.704357 
L 143.778691 255.049211 
L 144.148442 255.049211 
L 144.148442 253.083773 
L 144.510517 253.083773 
L 144.510517 252.428627 
L 144.747789 252.428627 
L 144.747789 251.773481 
L 144.981877 251.773481 
L 144.981877 251.118335 
L 145.097753 251.118335 
L 145.097753 248.49775 
L 145.998045 248.49775 
L 145.998045 247.187458 
L 147.164632 247.187458 
L 147.164632 245.22202 
L 147.769524 245.22202 
L 147.769524 243.256582 
L 149.012299 243.256582 
L 149.012299 241.946289 
L 149.998846 241.946289 
L 149.998846 241.291143 
L 151.421542 241.291143 
L 151.421542 240.635997 
L 152.283884 240.635997 
L 152.283884 239.980851 
L 152.959038 239.980851 
L 152.959038 239.325705 
L 153.323128 239.325705 
L 153.323128 238.670559 
L 154.029268 238.670559 
L 154.029268 238.015413 
L 155.232454 238.015413 
L 155.296925 236.705121 
L 156.114049 236.705121 
L 156.175347 234.084536 
L 156.835778 234.084536 
L 156.835778 233.42939 
L 157.185742 233.42939 
L 157.185742 232.119098 
L 157.415209 232.119098 
L 157.415209 230.15366 
L 157.920731 230.15366 
L 157.920731 227.533075 
L 158.140788 227.533075 
L 158.140788 226.877929 
L 158.412011 226.877929 
L 158.51933 224.912491 
L 158.572743 224.912491 
L 158.572743 224.257345 
L 159.046236 224.257345 
L 159.149734 222.947052 
L 159.303838 222.947052 
L 159.354904 218.36103 
L 160.727241 218.36103 
L 160.821253 213.775007 
L 161.146363 213.775007 
L 161.192316 212.464715 
L 161.510643 212.464715 
L 161.510643 211.154423 
L 161.689969 211.154423 
L 161.734513 208.533838 
L 161.955547 208.533838 
L 162.043181 207.223546 
L 162.346481 207.223546 
L 162.346481 206.5684 
L 162.728843 206.5684 
L 162.728843 205.913254 
L 163.788565 205.913254 
L 163.788565 205.258108 
L 164.063205 205.258108 
L 164.102088 203.947816 
L 164.410075 203.947816 
L 164.410075 203.292669 
L 164.599841 203.292669 
L 164.599841 201.327231 
L 165.9084 201.327231 
L 165.943384 200.016939 
L 166.357802 200.016939 
L 166.357802 199.361793 
L 166.628709 199.361793 
L 166.628709 198.706647 
L 166.795913 198.706647 
L 166.795913 197.396355 
L 167.06015 197.396355 
L 167.0929 196.086062 
L 167.190782 196.086062 
L 167.223287 192.810332 
L 167.320442 192.810332 
L 167.320442 192.155186 
L 167.513144 192.155186 
L 167.513144 191.50004 
L 167.640438 191.50004 
L 167.735303 188.224309 
L 167.76681 188.224309 
L 167.829655 186.258871 
L 168.263336 186.258871 
L 168.293904 183.638286 
L 168.536542 183.638286 
L 168.626667 179.70741 
L 168.656606 179.70741 
L 168.656606 179.052264 
L 168.805533 179.052264 
L 168.805533 178.397118 
L 169.244833 178.397118 
L 169.331381 177.086825 
L 169.588476 177.086825 
L 169.588476 175.121387 
L 170.091567 175.121387 
L 170.201421 172.500803 
L 170.392016 172.500803 
L 170.392016 171.845657 
L 170.793552 171.845657 
L 170.793552 171.190511 
L 170.951613 171.190511 
L 170.951613 170.535364 
L 171.082245 170.535364 
L 171.082245 169.225072 
L 171.314944 169.225072 
L 171.417378 167.91478 
L 171.49381 167.91478 
L 171.49381 166.604488 
L 171.846131 166.604488 
L 171.846131 164.63905 
L 172.288901 164.63905 
L 172.361615 160.708173 
L 172.409924 160.708173 
L 172.506141 159.397881 
L 172.530112 159.397881 
L 172.530112 158.742735 
L 172.649478 158.742735 
L 172.649478 158.087589 
L 172.83878 158.087589 
L 172.83878 157.432442 
L 172.956059 157.432442 
L 172.956059 156.777296 
L 173.303236 156.777296 
L 173.303236 156.12215 
L 173.576085 156.12215 
L 173.576085 155.467004 
L 173.755642 155.467004 
L 173.755642 154.811858 
L 173.866933 154.811858 
L 173.977519 152.84642 
L 174.021557 152.84642 
L 174.109302 150.880981 
L 174.15301 150.880981 
L 174.15301 150.225835 
L 174.305129 150.225835 
L 174.391462 144.32952 
L 174.455933 144.32952 
L 174.520166 142.364082 
L 174.732584 142.364082 
L 174.795808 138.433206 
L 175.025688 138.433206 
L 175.025688 137.778059 
L 175.211544 137.778059 
L 175.211544 135.157475 
L 175.395439 135.157475 
L 175.395439 133.847183 
L 175.55729 133.847183 
L 175.637655 131.226598 
L 175.6777 131.226598 
L 175.6777 130.571452 
L 175.817135 130.571452 
L 175.817135 129.916306 
L 175.93577 129.916306 
L 175.994786 128.606014 
L 176.073165 128.606014 
L 176.170646 125.330284 
L 176.24824 125.330284 
L 176.24824 124.675137 
L 176.402401 124.675137 
L 176.421575 120.744261 
L 176.819447 120.744261 
L 176.912855 118.778823 
L 176.931477 118.778823 
L 176.931477 118.123676 
L 177.098184 118.123676 
L 177.116609 115.503092 
L 177.299796 115.503092 
L 177.354379 112.882508 
L 177.444973 112.882508 
L 177.48108 108.951631 
L 177.571019 108.951631 
L 177.606866 107.641339 
L 177.838089 107.641339 
L 177.92621 105.675901 
L 177.996389 105.675901 
L 178.083716 103.710462 
L 178.205245 103.710462 
L 178.205245 101.745024 
L 178.699888 101.745024 
L 178.783772 99.12444 
L 179.049518 99.12444 
L 179.148138 97.814147 
L 179.213577 97.814147 
L 179.213577 96.503855 
L 179.440696 96.503855 
L 179.521099 94.538417 
L 179.728427 94.538417 
L 179.839052 91.262686 
L 180.351324 91.262686 
L 180.397157 89.297248 
L 180.533936 89.297248 
L 180.579292 87.33181 
L 180.714656 87.33181 
L 180.744595 86.021518 
L 180.997019 86.021518 
L 180.997019 85.366371 
L 181.173027 85.366371 
L 181.260369 84.056079 
L 181.361719 84.056079 
L 181.433752 82.090641 
L 181.519801 82.090641 
L 181.519801 80.780349 
L 181.887852 80.780349 
L 181.887852 80.125203 
L 182.013465 80.125203 
L 182.096708 77.504618 
L 182.220831 77.504618 
L 182.220831 76.194326 
L 182.587988 76.194326 
L 182.668539 74.228888 
L 182.868304 74.228888 
L 182.868304 73.573742 
L 183.026484 73.573742 
L 183.026484 72.918596 
L 183.428598 72.918596 
L 183.428598 71.608303 
L 183.821648 71.608303 
L 183.821648 70.298011 
L 184.107646 70.298011 
L 184.107646 68.332573 
L 184.279463 68.332573 
L 184.364741 66.367135 
L 184.509968 66.367135 
L 184.509968 65.711988 
L 184.784985 65.711988 
L 184.820539 63.091404 
L 184.938532 63.091404 
L 185.032355 59.160527 
L 185.114038 59.160527 
L 185.114038 58.505381 
L 185.436997 58.505381 
L 185.471247 56.539943 
L 185.899365 56.539943 
L 186.010302 55.229651 
L 186.251908 55.229651 
L 186.360632 53.919359 
L 186.414741 53.919359 
L 186.414741 53.264213 
L 186.597466 53.264213 
L 186.597466 49.988482 
L 186.74652 49.988482 
L 186.831126 46.712752 
L 186.883796 46.712752 
L 186.915323 44.092167 
L 187.645278 44.092167 
L 187.645278 43.437021 
L 188.063125 43.437021 
L 188.063125 42.781875 
L 188.519143 42.781875 
L 188.519143 42.126729 
L 188.719104 42.126729 
L 188.719104 40.816437 
L 189.112277 40.816437 
L 189.112277 40.161291 
L 189.351301 40.161291 
L 189.351301 38.195852 
L 189.730627 38.195852 
L 189.757409 36.230414 
L 190.310526 36.230414 
L 190.310526 34.920122 
L 191.374891 34.920122 
L 191.374891 34.264976 
L 192.021307 34.264976 
L 192.021307 33.60983 
L 192.439313 33.60983 
L 192.439313 31.644391 
L 192.877395 31.644391 
L 192.877395 30.334099 
L 338.688 30.334099 
L 338.688 30.334099 
" style="fill:none;stroke:#000080;stroke-linecap:square;stroke-width:1.5;"/>
   </g>
   <g id="line2d_31">
    <defs>
     <path d="M 0 6 
C 1.591219 6 3.117479 5.367802 4.242641 4.242641 
C 5.367802 3.117479 6 1.591219 6 0 
C 6 -1.591219 5.367802 -3.117479 4.242641 -4.242641 
C 3.117479 -5.367802 1.591219 -6 0 -6 
C -1.591219 -6 -3.117479 -5.367802 -4.242641 -4.242641 
C -5.367802 -3.117479 -6 -1.591219 -6 0 
C -6 1.591219 -5.367802 3.117479 -4.242641 4.242641 
C -3.117479 5.367802 -1.591219 6 0 6 
z
" id="m55c25b82e8" style="stroke:#000080;stroke-width:1.5;"/>
    </defs>
    <g>
     <use style="fill-opacity:0;stroke:#000080;stroke-width:1.5;" x="121.931406" xlink:href="#m55c25b82e8" y="289.771955"/>
     <use style="fill-opacity:0;stroke:#000080;stroke-width:1.5;" x="161.146363" xlink:href="#m55c25b82e8" y="213.119861"/>
     <use style="fill-opacity:0;stroke:#000080;stroke-width:1.5;" x="180.351324" xlink:href="#m55c25b82e8" y="90.60754"/>
     <use style="fill-opacity:0;stroke:#000080;stroke-width:1.5;" x="192.877395" xlink:href="#m55c25b82e8" y="31.644391"/>
     <use style="fill-opacity:0;stroke:#000080;stroke-width:1.5;" x="192.877395" xlink:href="#m55c25b82e8" y="30.334099"/>
     <use style="fill-opacity:0;stroke:#000080;stroke-width:1.5;" x="338.688" xlink:href="#m55c25b82e8" y="30.334099"/>
    </g>
   </g>
   <g id="line2d_32">
    <path style="fill:none;stroke:#000080;stroke-linecap:square;stroke-width:1.5;"/>
    <g/>
   </g>
   <g id="line2d_33">
    <defs>
     <path d="M 0 1.5 
C 0.397805 1.5 0.77937 1.341951 1.06066 1.06066 
C 1.341951 0.77937 1.5 0.397805 1.5 0 
C 1.5 -0.397805 1.341951 -0.77937 1.06066 -1.06066 
C 0.77937 -1.341951 0.397805 -1.5 0 -1.5 
C -0.397805 -1.5 -0.77937 -1.341951 -1.06066 -1.06066 
C -1.341951 -0.77937 -1.5 -0.397805 -1.5 0 
C -1.5 0.397805 -1.341951 0.77937 -1.06066 1.06066 
C -0.77937 1.341951 -0.397805 1.5 0 1.5 
z
" id="mc6f17ab0e8" style="stroke:#ff00ff;"/>
    </defs>
    <g>
     <use style="fill:#ff00ff;stroke:#ff00ff;" x="188.557408" xlink:href="#mc6f17ab0e8" y="30.334099"/>
     <use style="fill:#ff00ff;stroke:#ff00ff;" x="188.557408" xlink:href="#mc6f17ab0e8" y="30.334099"/>
    </g>
   </g>
   <g id="line2d_34">
    <path d="M 85.66744 298.944 
L 85.66744 295.013123 
L 100.934985 295.013123 
L 100.934985 294.357977 
L 112.280765 294.357977 
L 112.280765 291.737393 
L 113.022974 291.737393 
L 113.022974 291.082247 
L 115.077025 291.082247 
L 115.077025 283.87564 
L 118.576578 283.87564 
L 118.576578 283.220494 
L 120.571812 283.220494 
L 120.571812 281.910201 
L 121.931406 281.910201 
L 121.931406 281.255055 
L 123.593547 281.255055 
L 123.593547 279.289617 
L 125.110962 279.289617 
L 125.110962 277.979325 
L 126.839037 277.979325 
L 126.839037 276.669033 
L 127.165014 276.669033 
L 127.165014 276.013887 
L 127.799239 276.013887 
L 127.799239 274.703594 
L 128.107907 274.703594 
L 128.107907 272.738156 
L 128.709321 272.738156 
L 128.709321 272.08301 
L 129.002426 272.08301 
L 129.002426 271.427864 
L 131.185181 271.427864 
L 131.185181 267.496987 
L 131.690703 267.496987 
L 131.690703 262.910965 
L 132.422528 262.910965 
L 132.422528 262.255818 
L 133.352844 262.255818 
L 133.352844 261.600672 
L 134.450015 261.600672 
L 134.450015 260.945526 
L 134.661403 260.945526 
L 134.661403 260.29038 
L 135.681535 260.29038 
L 135.681535 259.635234 
L 135.878591 259.635234 
L 135.878591 258.980088 
L 136.831795 258.980088 
L 136.831795 257.669796 
L 137.910857 257.669796 
L 137.910857 256.359504 
L 138.594838 256.359504 
L 138.594838 255.704357 
L 138.927025 255.704357 
L 138.927025 255.049211 
L 139.090775 255.049211 
L 139.090775 253.738919 
L 140.042245 253.738919 
L 140.042245 253.083773 
L 141.662245 253.083773 
L 141.662245 252.428627 
L 142.752555 252.428627 
L 142.752555 251.773481 
L 144.148442 251.773481 
L 144.148442 251.118335 
L 144.269971 251.118335 
L 144.269971 249.808043 
L 145.777292 249.808043 
L 145.777292 249.152896 
L 146.644018 249.152896 
L 146.644018 248.49775 
L 146.958248 248.49775 
L 146.958248 247.842604 
L 147.164632 247.842604 
L 147.164632 247.187458 
L 147.86833 247.187458 
L 147.86833 245.22202 
L 148.064279 245.22202 
L 148.064279 243.911728 
L 148.354135 243.911728 
L 148.354135 243.256582 
L 148.733265 243.256582 
L 148.733265 242.601435 
L 149.012299 242.601435 
L 149.012299 241.946289 
L 149.557321 241.946289 
L 149.557321 239.325705 
L 149.735275 239.325705 
L 149.735275 238.670559 
L 150.766468 238.670559 
L 150.766468 237.360267 
L 151.421542 237.360267 
L 151.501723 235.394828 
L 152.662192 235.394828 
L 152.662192 234.739682 
L 152.811246 234.739682 
L 152.811246 234.084536 
L 153.178403 234.084536 
L 153.178403 233.42939 
L 153.537988 233.42939 
L 153.537988 232.774244 
L 153.820412 232.774244 
L 153.820412 232.119098 
L 154.439623 232.119098 
L 154.439623 231.463952 
L 155.361158 231.463952 
L 155.361158 230.15366 
L 155.55245 230.15366 
L 155.55245 229.498513 
L 156.297301 229.498513 
L 156.297301 228.843367 
L 157.069866 228.843367 
L 157.069866 227.533075 
L 157.300853 227.533075 
L 157.300853 225.567637 
L 158.412011 225.567637 
L 158.465753 224.257345 
L 158.572743 224.257345 
L 158.67908 221.63676 
L 159.252621 221.63676 
L 159.252621 220.981614 
L 159.608019 220.981614 
L 159.608019 220.326468 
L 159.807898 220.326468 
L 159.807898 219.016176 
L 160.005512 219.016176 
L 160.103486 215.740445 
L 160.152267 215.740445 
L 160.249422 213.119861 
L 160.537682 213.119861 
L 160.537682 212.464715 
L 161.465522 212.464715 
L 161.510643 211.154423 
L 162.474869 211.154423 
L 162.474869 209.84413 
L 162.896128 209.84413 
L 162.896128 209.188984 
L 163.388564 209.188984 
L 163.388564 208.533838 
L 163.50953 208.533838 
L 163.549667 205.913254 
L 163.906798 205.913254 
L 163.985177 204.602962 
L 164.063205 204.602962 
L 164.063205 203.947816 
L 164.256762 203.947816 
L 164.333587 201.982377 
L 164.486229 201.982377 
L 164.486229 200.672085 
L 164.824867 200.672085 
L 164.824867 200.016939 
L 164.9363 200.016939 
L 164.9363 199.361793 
L 165.120455 199.361793 
L 165.230021 196.741208 
L 165.302685 196.741208 
L 165.411116 195.430916 
L 165.518877 195.430916 
L 165.625977 194.120624 
L 165.697012 194.120624 
L 165.803027 192.155186 
L 165.873346 192.155186 
L 165.873346 191.50004 
L 166.220754 191.50004 
L 166.220754 190.844894 
L 167.158215 190.844894 
L 167.158215 190.189747 
L 167.576907 190.189747 
L 167.672117 187.569163 
L 167.985782 187.569163 
L 168.047843 186.258871 
L 168.171308 186.258871 
L 168.202038 182.98314 
L 168.536542 182.98314 
L 168.596677 179.70741 
L 168.746115 179.70741 
L 168.835167 177.741972 
L 168.86475 177.741972 
L 168.86475 176.431679 
L 169.041203 176.431679 
L 169.128764 174.466241 
L 169.215888 174.466241 
L 169.27373 168.569926 
L 169.560096 168.569926 
L 169.560096 167.91478 
L 169.75779 167.91478 
L 169.75779 167.259634 
L 169.897641 167.259634 
L 170.008719 165.294196 
L 170.58055 165.294196 
L 170.634045 163.983903 
L 170.713981 163.983903 
L 170.793552 161.363319 
L 170.951613 161.363319 
L 170.951613 160.708173 
L 171.108254 160.708173 
L 171.108254 160.053027 
L 171.391826 160.053027 
L 171.49381 155.467004 
L 171.519214 155.467004 
L 171.54458 152.84642 
L 171.696007 152.84642 
L 171.696007 152.191274 
L 171.8212 152.191274 
L 171.846131 147.605251 
L 171.994974 147.605251 
L 172.068921 146.294959 
L 172.142557 146.294959 
L 172.142557 145.639813 
L 172.385786 145.639813 
L 172.385786 144.32952 
L 172.506141 144.32952 
L 172.506141 143.019228 
L 172.768032 143.019228 
L 172.83878 141.708936 
L 172.97942 141.708936 
L 173.072554 138.433206 
L 173.188276 138.433206 
L 173.280304 137.122913 
L 173.417442 137.122913 
L 173.508272 135.812621 
L 173.598631 135.812621 
L 173.666095 131.226598 
L 173.710926 131.226598 
L 173.710926 128.606014 
L 174.021557 128.606014 
L 174.13117 126.640576 
L 174.283479 126.640576 
L 174.326753 125.330284 
L 174.412979 125.330284 
L 174.47737 121.399407 
L 174.584164 121.399407 
L 174.690307 118.778823 
L 174.711458 118.778823 
L 174.711458 118.123676 
L 174.858804 118.123676 
L 174.942445 115.503092 
L 175.129186 115.503092 
L 175.19099 114.1928 
L 175.354741 114.1928 
L 175.354741 113.537654 
L 175.737594 113.537654 
L 175.737594 111.572215 
L 175.876553 111.572215 
L 175.876553 110.261923 
L 176.014414 110.261923 
L 176.092705 104.365608 
L 176.421575 104.365608 
L 176.421575 103.055316 
L 176.800705 103.055316 
L 176.800705 102.40017 
L 177.208443 102.40017 
L 177.245042 99.779586 
L 177.553068 99.779586 
L 177.553068 99.12444 
L 177.820411 99.12444 
L 177.820411 98.469293 
L 177.978871 98.469293 
L 178.013889 96.503855 
L 178.101129 96.503855 
L 178.205245 94.538417 
L 178.343106 94.538417 
L 178.343106 93.883271 
L 178.462846 93.883271 
L 178.496907 92.572979 
L 178.767027 92.572979 
L 178.767027 91.262686 
L 179.01652 91.262686 
L 179.01652 90.60754 
L 179.13174 90.60754 
L 179.13174 89.952394 
L 179.327506 89.952394 
L 179.327506 89.297248 
L 179.839052 89.297248 
L 179.948981 87.33181 
L 180.089306 87.33181 
L 180.197673 84.056079 
L 180.488462 84.056079 
L 180.488462 83.400933 
L 180.669651 83.400933 
L 180.684666 81.435495 
L 180.789406 81.435495 
L 180.834104 78.159764 
L 181.085245 78.159764 
L 181.085245 77.504618 
L 181.245843 77.504618 
L 181.245843 76.194326 
L 181.361719 76.194326 
L 181.361719 75.53918 
L 181.534102 75.53918 
L 181.54839 72.918596 
L 181.66228 72.918596 
L 181.66228 72.263449 
L 181.817674 72.263449 
L 181.901854 68.987719 
L 181.985629 68.987719 
L 182.027367 67.022281 
L 182.371348 67.022281 
L 182.466459 62.436258 
L 182.668539 62.436258 
L 182.668539 61.781112 
L 183.013357 61.781112 
L 183.052709 60.47082 
L 183.183243 60.47082 
L 183.222213 57.850235 
L 183.364365 57.850235 
L 183.364365 57.195089 
L 183.505367 57.195089 
L 183.581799 55.884797 
L 183.645238 55.884797 
L 183.68319 54.574505 
L 183.821648 54.574505 
L 183.821648 53.919359 
L 183.959015 53.919359 
L 184.033489 51.95392 
L 184.169204 51.95392 
L 184.255021 49.988482 
L 184.303871 49.988482 
L 184.340418 47.367898 
L 184.582131 47.367898 
L 184.689818 44.747313 
L 184.938532 44.747313 
L 184.938532 44.092167 
L 185.550905 44.092167 
L 185.65279 40.161291 
L 185.67535 40.161291 
L 185.67535 38.850998 
L 185.810104 38.850998 
L 185.832462 36.88556 
L 186.425543 36.88556 
L 186.425543 35.575268 
L 186.640183 35.575268 
L 186.640183 34.920122 
L 187.030434 34.920122 
L 187.072105 33.60983 
L 187.22749 33.60983 
L 187.22749 32.954683 
L 187.675459 32.954683 
L 187.675459 31.644391 
L 187.905123 31.644391 
L 187.905123 30.989245 
L 188.557408 30.989245 
L 188.557408 30.334099 
L 338.688 30.334099 
L 338.688 30.334099 
" style="fill:none;stroke:#ff00ff;stroke-linecap:square;stroke-width:1.5;"/>
   </g>
   <g id="line2d_35">
    <defs>
     <path d="M -0 8.485281 
L 5.091169 0 
L 0 -8.485281 
L -5.091169 -0 
z
" id="mc1e45356d2" style="stroke:#ff00ff;stroke-linejoin:miter;stroke-width:1.5;"/>
    </defs>
    <g>
     <use style="fill-opacity:0;stroke:#ff00ff;stroke-linejoin:miter;stroke-width:1.5;" x="172.506141" xlink:href="#mc1e45356d2" y="144.32952"/>
     <use style="fill-opacity:0;stroke:#ff00ff;stroke-linejoin:miter;stroke-width:1.5;" x="188.557408" xlink:href="#mc1e45356d2" y="30.989245"/>
     <use style="fill-opacity:0;stroke:#ff00ff;stroke-linejoin:miter;stroke-width:1.5;" x="188.557408" xlink:href="#mc1e45356d2" y="30.334099"/>
     <use style="fill-opacity:0;stroke:#ff00ff;stroke-linejoin:miter;stroke-width:1.5;" x="188.557408" xlink:href="#mc1e45356d2" y="30.334099"/>
     <use style="fill-opacity:0;stroke:#ff00ff;stroke-linejoin:miter;stroke-width:1.5;" x="338.688" xlink:href="#mc1e45356d2" y="30.334099"/>
    </g>
   </g>
   <g id="line2d_36">
    <path style="fill:none;stroke:#ff00ff;stroke-linecap:square;stroke-width:1.5;"/>
    <g/>
   </g>
   <g id="line2d_37">
    <defs>
     <path d="M 0 1.5 
C 0.397805 1.5 0.77937 1.341951 1.06066 1.06066 
C 1.341951 0.77937 1.5 0.397805 1.5 0 
C 1.5 -0.397805 1.341951 -0.77937 1.06066 -1.06066 
C 0.77937 -1.341951 0.397805 -1.5 0 -1.5 
C -0.397805 -1.5 -0.77937 -1.341951 -1.06066 -1.06066 
C -1.341951 -0.77937 -1.5 -0.397805 -1.5 0 
C -1.5 0.397805 -1.341951 0.77937 -1.06066 1.06066 
C -0.77937 1.341951 -0.397805 1.5 0 1.5 
z
" id="md2e45f0ad4" style="stroke:#ff7500;"/>
    </defs>
    <g>
     <use style="fill:#ff7500;stroke:#ff7500;" x="233.375534" xlink:href="#md2e45f0ad4" y="30.334099"/>
     <use style="fill:#ff7500;stroke:#ff7500;" x="233.375534" xlink:href="#md2e45f0ad4" y="30.334099"/>
    </g>
   </g>
   <g id="line2d_38">
    <path d="M 45.512012 298.944 
L 45.512012 296.978562 
L 57.6 296.978562 
L 57.6 296.323416 
L 69.687988 296.323416 
L 69.687988 293.702831 
L 97.755429 293.702831 
L 97.755429 293.047685 
L 105.951954 293.047685 
L 105.951954 292.392539 
L 111.505558 292.392539 
L 111.505558 291.737393 
L 112.280765 291.737393 
L 112.280765 290.427101 
L 113.73488 290.427101 
L 113.73488 289.771955 
L 115.077025 289.771955 
L 115.077025 289.116809 
L 116.323218 289.116809 
L 116.323218 288.461662 
L 119.602714 288.461662 
L 119.602714 287.806516 
L 121.036887 287.806516 
L 121.036887 285.841078 
L 121.489881 285.841078 
L 121.489881 285.185932 
L 122.362027 285.185932 
L 122.362027 283.220494 
L 124.743806 283.220494 
L 124.743806 281.910201 
L 126.168212 281.910201 
L 126.168212 281.255055 
L 127.165014 281.255055 
L 127.165014 277.979325 
L 127.48501 277.979325 
L 127.48501 277.324179 
L 129.002426 277.324179 
L 129.002426 276.669033 
L 129.853291 276.669033 
L 129.853291 276.013887 
L 131.690703 276.013887 
L 131.690703 275.35874 
L 132.181982 275.35874 
L 132.181982 273.393302 
L 132.422528 273.393302 
L 132.422528 272.738156 
L 134.019394 272.738156 
L 134.019394 271.427864 
L 135.076644 271.427864 
L 135.076644 270.772718 
L 135.280614 270.772718 
L 135.280614 268.152133 
L 135.878591 268.152133 
L 135.878591 266.841841 
L 137.558536 266.841841 
L 137.558536 265.531549 
L 137.735587 265.531549 
L 137.735587 264.876403 
L 138.426341 264.876403 
L 138.426341 263.566111 
L 138.594838 263.566111 
L 138.594838 262.910965 
L 138.761723 262.910965 
L 138.761723 253.738919 
L 139.253002 253.738919 
L 139.253002 253.083773 
L 139.730821 253.083773 
L 139.730821 250.463189 
L 140.042245 250.463189 
L 140.042245 249.152896 
L 141.521035 249.152896 
L 141.521035 247.842604 
L 142.752555 247.842604 
L 142.752555 247.187458 
L 144.269971 247.187458 
L 144.269971 246.532312 
L 144.629556 246.532312 
L 144.629556 245.877166 
L 144.981877 245.877166 
L 144.981877 245.22202 
L 146.107383 245.22202 
L 146.107383 244.566874 
L 146.538004 244.566874 
L 146.538004 243.911728 
L 147.570215 243.911728 
L 147.570215 243.256582 
L 148.54473 243.256582 
L 148.54473 242.601435 
L 148.919783 242.601435 
L 148.919783 241.291143 
L 150.51433 241.291143 
L 150.51433 240.635997 
L 150.766468 240.635997 
L 150.766468 239.980851 
L 151.260066 239.980851 
L 151.260066 239.325705 
L 152.130233 239.325705 
L 152.130233 238.670559 
L 152.436193 238.670559 
L 152.511852 237.360267 
L 152.587184 237.360267 
L 152.587184 236.705121 
L 152.885298 236.705121 
L 152.959038 232.119098 
L 153.032466 232.119098 
L 153.032466 231.463952 
L 153.178403 231.463952 
L 153.178403 230.15366 
L 153.323128 230.15366 
L 153.323128 229.498513 
L 153.820412 229.498513 
L 153.820412 228.188221 
L 154.098334 228.188221 
L 154.167129 226.877929 
L 154.371897 226.877929 
L 154.439623 224.257345 
L 154.507086 224.257345 
L 154.507086 223.602199 
L 155.55245 223.602199 
L 155.55245 222.947052 
L 156.418408 222.947052 
L 156.418408 222.291906 
L 156.658127 222.291906 
L 156.658127 221.63676 
L 157.528821 221.63676 
L 157.528821 220.981614 
L 158.195371 220.981614 
L 158.195371 219.671322 
L 158.465753 219.671322 
L 158.465753 219.016176 
L 158.784773 219.016176 
L 158.784773 218.36103 
L 159.405822 218.36103 
L 159.405822 217.705884 
L 159.557689 217.705884 
L 159.557689 217.050738 
L 160.152267 217.050738 
L 160.152267 216.395591 
L 160.394148 216.395591 
L 160.394148 215.740445 
L 160.821253 215.740445 
L 160.914762 212.464715 
L 160.961329 212.464715 
L 161.007772 211.154423 
L 161.238149 211.154423 
L 161.329454 209.84413 
L 161.734513 209.84413 
L 161.734513 208.533838 
L 162.728843 208.533838 
L 162.812686 202.637523 
L 163.020547 202.637523 
L 163.020547 201.327231 
L 163.307451 201.327231 
L 163.307451 200.672085 
L 164.637547 200.672085 
L 164.675172 198.706647 
L 164.899235 198.706647 
L 164.899235 198.051501 
L 165.047026 198.051501 
L 165.157053 196.741208 
L 165.302685 196.741208 
L 165.302685 196.086062 
L 165.447111 196.086062 
L 165.447111 195.430916 
L 165.625977 195.430916 
L 165.625977 194.77577 
L 165.873346 194.77577 
L 165.873346 193.465478 
L 166.047915 193.465478 
L 166.117256 192.155186 
L 166.289413 192.155186 
L 166.289413 189.534601 
L 166.595075 189.534601 
L 166.595075 188.879455 
L 166.829163 188.879455 
L 166.928532 185.603725 
L 167.513144 185.603725 
L 167.513144 184.948579 
L 167.703739 184.948579 
L 167.735303 182.98314 
L 167.860992 182.98314 
L 167.860992 182.327994 
L 167.985782 182.327994 
L 168.01684 179.70741 
L 168.171308 179.70741 
L 168.171308 179.052264 
L 168.445948 179.052264 
L 168.445948 178.397118 
L 168.656606 178.397118 
L 168.656606 177.741972 
L 168.77585 177.741972 
L 168.77585 176.431679 
L 169.011918 176.431679 
L 169.011918 175.776533 
L 169.302579 175.776533 
L 169.302579 175.121387 
L 169.503198 175.121387 
L 169.503198 174.466241 
L 169.701534 174.466241 
L 169.701534 173.155949 
L 169.813865 173.155949 
L 169.813865 171.845657 
L 170.091567 171.845657 
L 170.091567 170.535364 
L 170.58055 170.535364 
L 170.58055 169.225072 
L 170.740545 169.225072 
L 170.819995 165.949342 
L 171.082245 165.949342 
L 171.082245 163.983903 
L 171.314944 163.983903 
L 171.391826 162.673611 
L 171.442893 162.673611 
L 171.519214 161.363319 
L 171.595202 161.363319 
L 171.595202 160.708173 
L 171.895887 160.708173 
L 171.994974 158.087589 
L 172.019658 158.087589 
L 172.019658 157.432442 
L 172.142557 157.432442 
L 172.191475 154.811858 
L 172.649478 154.811858 
L 172.649478 154.156712 
L 172.885786 154.156712 
L 172.885786 153.501566 
L 173.303236 153.501566 
L 173.326137 151.536128 
L 173.710926 151.536128 
L 173.710926 150.880981 
L 173.977519 150.880981 
L 174.043535 149.570689 
L 174.13117 149.570689 
L 174.240098 145.639813 
L 174.412979 145.639813 
L 174.412979 144.984667 
L 174.562857 144.984667 
L 174.562857 144.32952 
L 174.984116 144.32952 
L 174.984116 142.364082 
L 175.232072 142.364082 
L 175.232072 141.708936 
L 175.537141 141.708936 
L 175.537141 141.05379 
L 175.737594 141.05379 
L 175.836964 139.743498 
L 176.053603 139.743498 
L 176.053603 138.433206 
L 176.228874 138.433206 
L 176.228874 137.778059 
L 176.383205 137.778059 
L 176.383205 136.467767 
L 176.593204 136.467767 
L 176.593204 135.812621 
L 176.725536 135.812621 
L 176.725536 135.157475 
L 176.85687 135.157475 
L 176.85687 134.502329 
L 177.336204 134.502329 
L 177.336204 132.536891 
L 177.48108 132.536891 
L 177.48108 131.881745 
L 177.678338 131.881745 
L 177.785001 129.916306 
L 179.148138 129.916306 
L 179.180888 128.606014 
L 179.392276 128.606014 
L 179.408431 127.295722 
L 179.569163 127.295722 
L 179.585155 125.98543 
L 179.728427 125.98543 
L 179.839052 122.709699 
L 180.07377 122.709699 
L 180.07377 122.054553 
L 180.274668 122.054553 
L 180.274668 121.399407 
L 180.804318 121.399407 
L 180.804318 120.744261 
L 181.274884 120.744261 
L 181.303877 118.778823 
L 182.207084 118.778823 
L 182.316765 117.46853 
L 182.507063 117.46853 
L 182.507063 116.813384 
L 182.62831 116.813384 
L 182.62831 116.158238 
L 182.894767 116.158238 
L 182.934387 114.847946 
L 183.261097 114.847946 
L 183.274039 112.882508 
L 184.082962 112.882508 
L 184.15691 111.572215 
L 184.725567 111.572215 
L 184.796844 108.951631 
L 185.183749 108.951631 
L 185.206924 107.641339 
L 185.51681 107.641339 
L 185.596261 106.331047 
L 185.664074 106.331047 
L 185.664074 105.675901 
L 185.854792 105.675901 
L 185.877092 104.365608 
L 186.032405 104.365608 
L 186.109546 103.055316 
L 186.230082 103.055316 
L 186.230082 102.40017 
L 186.436338 102.40017 
L 186.436338 101.745024 
L 186.714687 101.745024 
L 186.714687 99.779586 
L 187.072105 99.779586 
L 187.072105 99.12444 
L 187.258402 99.12444 
L 187.268693 97.814147 
L 187.422344 97.814147 
L 187.503741 95.193563 
L 187.564541 95.193563 
L 187.564541 94.538417 
L 187.735664 94.538417 
L 187.825583 92.572979 
L 188.013903 92.572979 
L 188.013903 91.917832 
L 188.681193 91.917832 
L 188.681193 91.262686 
L 188.794681 91.262686 
L 188.851149 89.297248 
L 189.460524 89.297248 
L 189.460524 88.642102 
L 190.353682 88.642102 
L 190.431094 87.33181 
L 190.473953 87.33181 
L 190.473953 86.676664 
L 190.813084 86.676664 
L 190.813084 85.366371 
L 191.219729 85.366371 
L 191.326041 82.745787 
L 191.488344 82.745787 
L 191.528685 80.125203 
L 191.863912 80.125203 
L 191.863912 78.81491 
L 192.06825 78.81491 
L 192.169529 77.504618 
L 192.239301 77.504618 
L 192.270222 74.884034 
L 192.385689 74.884034 
L 192.385689 74.228888 
L 193.048115 74.228888 
L 193.143875 70.298011 
L 193.290178 70.298011 
L 193.290178 69.642865 
L 194.115355 69.642865 
L 194.115355 68.987719 
L 195.290728 68.987719 
L 195.290728 68.332573 
L 197.050024 68.332573 
L 197.050024 67.677427 
L 197.678586 67.677427 
L 197.678586 67.022281 
L 197.987353 67.022281 
L 197.987353 66.367135 
L 199.00856 66.367135 
L 199.00856 65.711988 
L 199.253491 65.711988 
L 199.356682 64.401696 
L 199.61202 64.401696 
L 199.61202 63.091404 
L 200.549576 63.091404 
L 200.626275 59.815674 
L 200.764437 59.815674 
L 200.764437 59.160527 
L 201.135349 59.160527 
L 201.24187 57.195089 
L 201.836475 57.195089 
L 201.836475 56.539943 
L 205.532281 56.539943 
L 205.532281 55.884797 
L 205.988376 55.884797 
L 206.097065 53.919359 
L 206.664442 53.919359 
L 206.704994 50.643628 
L 206.89968 50.643628 
L 206.919696 49.333336 
L 207.012803 49.333336 
L 207.105416 47.367898 
L 207.24342 47.367898 
L 207.313644 44.747313 
L 207.532296 44.747313 
L 207.532296 44.092167 
L 219.84497 44.092167 
L 219.84497 43.437021 
L 220.524336 43.437021 
L 220.524336 42.781875 
L 220.95602 42.781875 
L 221.036341 40.816437 
L 221.40781 40.816437 
L 221.423782 39.506144 
L 221.585586 39.506144 
L 221.631541 37.540706 
L 221.745902 37.540706 
L 221.745902 36.88556 
L 221.951289 36.88556 
L 221.951289 36.230414 
L 222.474243 36.230414 
L 222.516555 34.264976 
L 222.950086 34.264976 
L 223.032337 32.954683 
L 223.740405 32.954683 
L 223.740405 32.299537 
L 224.298189 32.299537 
L 224.298189 31.644391 
L 226.639185 31.644391 
L 226.639185 30.989245 
L 233.375534 30.989245 
L 233.375534 30.334099 
L 338.688 30.334099 
L 338.688 30.334099 
" style="fill:none;stroke:#ff7500;stroke-linecap:square;stroke-width:1.5;"/>
   </g>
   <g id="line2d_39">
    <defs>
     <path d="M 0 -6 
L -1.347084 -1.854102 
L -5.706339 -1.854102 
L -2.179628 0.708204 
L -3.526712 4.854102 
L -0 2.291796 
L 3.526712 4.854102 
L 2.179628 0.708204 
L 5.706339 -1.854102 
L 1.347084 -1.854102 
z
" id="m62e9223ed8" style="stroke:#ff7500;stroke-linejoin:bevel;stroke-width:1.5;"/>
    </defs>
    <g>
     <use style="fill-opacity:0;stroke:#ff7500;stroke-linejoin:bevel;stroke-width:1.5;" x="144.269971" xlink:href="#m62e9223ed8" y="247.187458"/>
     <use style="fill-opacity:0;stroke:#ff7500;stroke-linejoin:bevel;stroke-width:1.5;" x="175.737594" xlink:href="#m62e9223ed8" y="140.398644"/>
     <use style="fill-opacity:0;stroke:#ff7500;stroke-linejoin:bevel;stroke-width:1.5;" x="233.375534" xlink:href="#m62e9223ed8" y="30.989245"/>
     <use style="fill-opacity:0;stroke:#ff7500;stroke-linejoin:bevel;stroke-width:1.5;" x="233.375534" xlink:href="#m62e9223ed8" y="30.334099"/>
     <use style="fill-opacity:0;stroke:#ff7500;stroke-linejoin:bevel;stroke-width:1.5;" x="233.375534" xlink:href="#m62e9223ed8" y="30.334099"/>
     <use style="fill-opacity:0;stroke:#ff7500;stroke-linejoin:bevel;stroke-width:1.5;" x="338.688" xlink:href="#m62e9223ed8" y="30.334099"/>
    </g>
   </g>
   <g id="line2d_40">
    <path style="fill:none;stroke:#ff7500;stroke-linecap:square;stroke-width:1.5;"/>
    <g/>
   </g>
   <g id="line2d_41">
    <path clip-path="url(#p15da4ed815)" d="M 219.943206 43.437021 
" style="fill:none;stroke:#ff7500;stroke-linecap:square;stroke-width:1.5;"/>
    <defs>
     <path d="M -12 12 
L 12 -12 
M -12 -12 
L 12 12 
" id="m9f540322e8" style="stroke:#ff7500;"/>
    </defs>
    <g clip-path="url(#p15da4ed815)">
     <use style="fill:#ff7500;stroke:#ff7500;" x="219.943206" xlink:href="#m9f540322e8" y="43.437021"/>
    </g>
   </g>
   <g id="line2d_42">
    <defs>
     <path d="M 0 1.5 
C 0.397805 1.5 0.77937 1.341951 1.06066 1.06066 
C 1.341951 0.77937 1.5 0.397805 1.5 0 
C 1.5 -0.397805 1.341951 -0.77937 1.06066 -1.06066 
C 0.77937 -1.341951 0.397805 -1.5 0 -1.5 
C -0.397805 -1.5 -0.77937 -1.341951 -1.06066 -1.06066 
C -1.341951 -0.77937 -1.5 -0.397805 -1.5 0 
C -1.5 0.397805 -1.341951 0.77937 -1.06066 1.06066 
C -0.77937 1.341951 -0.397805 1.5 0 1.5 
z
" id="m30235af841" style="stroke:#6495ed;"/>
    </defs>
    <g>
     <use style="fill:#6495ed;stroke:#6495ed;" x="202.740807" xlink:href="#m30235af841" y="30.334099"/>
     <use style="fill:#6495ed;stroke:#6495ed;" x="202.740807" xlink:href="#m30235af841" y="30.334099"/>
    </g>
   </g>
   <g id="line2d_43">
    <path d="M 45.512012 298.944 
L 45.512012 296.978562 
L 57.6 296.978562 
L 57.6 296.323416 
L 69.687988 296.323416 
L 69.687988 293.047685 
L 81.775977 293.047685 
L 81.775977 291.082247 
L 102.330873 291.082247 
L 102.330873 290.427101 
L 113.73488 290.427101 
L 113.73488 285.185932 
L 114.418861 285.185932 
L 114.418861 282.565348 
L 120.093994 282.565348 
L 120.093994 280.599909 
L 120.571812 280.599909 
L 120.571812 278.634471 
L 121.489881 278.634471 
L 121.489881 276.013887 
L 123.192626 276.013887 
L 123.192626 275.35874 
L 123.593547 275.35874 
L 123.593547 274.703594 
L 124.368753 274.703594 
L 124.368753 274.048448 
L 126.168212 274.048448 
L 126.168212 273.393302 
L 126.839037 273.393302 
L 126.839037 270.772718 
L 127.165014 270.772718 
L 127.165014 270.117572 
L 127.799239 270.117572 
L 127.799239 269.462426 
L 128.107907 269.462426 
L 128.107907 268.807279 
L 128.411207 268.807279 
L 128.411207 268.152133 
L 132.422528 268.152133 
L 132.422528 267.496987 
L 132.893889 267.496987 
L 132.893889 266.841841 
L 133.124876 266.841841 
L 133.124876 265.531549 
L 133.352844 265.531549 
L 133.352844 264.876403 
L 133.800029 264.876403 
L 133.800029 264.221257 
L 134.450015 264.221257 
L 134.450015 263.566111 
L 135.681535 263.566111 
L 135.681535 260.945526 
L 136.073445 260.945526 
L 136.073445 260.29038 
L 137.198951 260.29038 
L 137.198951 259.635234 
L 137.37967 259.635234 
L 137.37967 258.980088 
L 139.730821 258.980088 
L 139.730821 258.324942 
L 140.042245 258.324942 
L 140.042245 251.773481 
L 141.090414 251.773481 
L 141.090414 249.808043 
L 141.80232 249.808043 
L 141.80232 248.49775 
L 143.014805 248.49775 
L 143.014805 247.842604 
L 143.144465 247.842604 
L 143.144465 247.187458 
L 144.269971 247.187458 
L 144.269971 246.532312 
L 144.510517 246.532312 
L 144.510517 245.22202 
L 144.747789 245.22202 
L 144.747789 244.566874 
L 144.981877 244.566874 
L 144.981877 243.911728 
L 145.212864 243.911728 
L 145.212864 243.256582 
L 146.216039 243.256582 
L 146.216039 242.601435 
L 147.061745 242.601435 
L 147.061745 241.291143 
L 147.570215 241.291143 
L 147.570215 240.635997 
L 148.449693 240.635997 
L 148.54473 238.670559 
L 148.639252 238.670559 
L 148.639252 238.015413 
L 149.646525 238.015413 
L 149.646525 237.360267 
L 150.344189 237.360267 
L 150.344189 236.705121 
L 150.598782 236.705121 
L 150.598782 236.049974 
L 151.581536 236.049974 
L 151.581536 235.394828 
L 151.740076 235.394828 
L 151.740076 234.739682 
L 152.052897 234.739682 
L 152.130233 232.774244 
L 152.207228 232.774244 
L 152.207228 232.119098 
L 153.466662 232.119098 
L 153.466662 231.463952 
L 154.167129 231.463952 
L 154.235652 230.15366 
L 154.303908 230.15366 
L 154.303908 229.498513 
L 154.507086 229.498513 
L 154.507086 228.843367 
L 154.641235 228.843367 
L 154.641235 227.533075 
L 154.906477 227.533075 
L 154.906477 225.567637 
L 155.167744 225.567637 
L 155.167744 224.912491 
L 155.361158 224.912491 
L 155.361158 224.257345 
L 155.741666 224.257345 
L 155.741666 222.947052 
L 155.928852 222.947052 
L 155.928852 222.291906 
L 156.598505 222.291906 
L 156.598505 221.63676 
L 157.300853 221.63676 
L 157.300853 219.016176 
L 157.86528 219.016176 
L 157.86528 218.36103 
L 158.784773 218.36103 
L 158.784773 217.705884 
L 158.994256 217.705884 
L 158.994256 216.395591 
L 159.303838 216.395591 
L 159.303838 215.740445 
L 159.557689 215.740445 
L 159.557689 215.085299 
L 159.857512 215.085299 
L 159.906985 211.809569 
L 160.005512 211.809569 
L 160.005512 211.154423 
L 160.821253 211.154423 
L 160.821253 210.499277 
L 161.192316 210.499277 
L 161.283861 208.533838 
L 161.329454 208.533838 
L 161.329454 207.878692 
L 161.778945 207.878692 
L 161.778945 206.5684 
L 162.559939 206.5684 
L 162.559939 205.913254 
L 163.144084 205.913254 
L 163.144084 205.258108 
L 163.266752 205.258108 
L 163.266752 204.602962 
L 163.709295 204.602962 
L 163.709295 203.947816 
L 163.985177 203.947816 
L 163.985177 203.292669 
L 164.712717 203.292669 
L 164.712717 202.637523 
L 164.824867 202.637523 
L 164.899235 200.016939 
L 165.047026 200.016939 
L 165.083779 198.706647 
L 166.013141 198.706647 
L 166.047915 196.086062 
L 166.323641 196.086062 
L 166.357802 193.465478 
L 166.561376 193.465478 
L 166.561376 192.810332 
L 166.829163 192.810332 
L 166.895472 191.50004 
L 167.06015 191.50004 
L 167.125588 190.189747 
L 167.288118 190.189747 
L 167.320442 186.914017 
L 167.703739 186.914017 
L 167.735303 185.603725 
L 167.892273 185.603725 
L 167.923499 183.638286 
L 168.047843 183.638286 
L 168.078792 182.327994 
L 168.232714 182.327994 
L 168.232714 181.672848 
L 168.626667 181.672848 
L 168.626667 181.017702 
L 168.77585 181.017702 
L 168.77585 179.70741 
L 169.041203 179.70741 
L 169.099626 177.741972 
L 169.186895 177.741972 
L 169.186895 177.086825 
L 169.302579 177.086825 
L 169.302579 176.431679 
L 169.75779 176.431679 
L 169.75779 175.776533 
L 169.953269 175.776533 
L 170.063995 173.155949 
L 170.14658 173.155949 
L 170.14658 172.500803 
L 170.310587 172.500803 
L 170.364915 171.190511 
L 170.499999 171.190511 
L 170.499999 170.535364 
L 171.391826 170.535364 
L 171.391826 169.880218 
L 171.595202 169.880218 
L 171.595202 169.225072 
L 171.721118 169.225072 
L 171.721118 164.63905 
L 171.846131 164.63905 
L 171.895887 163.328757 
L 172.044307 163.328757 
L 172.044307 162.673611 
L 172.482136 162.673611 
L 172.530112 161.363319 
L 172.932666 161.363319 
L 172.956059 159.397881 
L 173.049317 159.397881 
L 173.14208 157.432442 
L 173.280304 157.432442 
L 173.280304 156.777296 
L 173.440194 156.777296 
L 173.440194 156.12215 
L 173.55351 156.12215 
L 173.55351 154.811858 
L 174.065485 154.811858 
L 174.065485 154.156712 
L 174.626698 154.156712 
L 174.647927 152.191274 
L 174.753684 152.191274 
L 174.753684 151.536128 
L 174.963293 151.536128 
L 174.963293 150.225835 
L 175.476552 150.225835 
L 175.476552 149.570689 
L 176.014414 149.570689 
L 176.073165 146.950105 
L 176.170646 146.950105 
L 176.24824 144.32952 
L 176.744358 144.32952 
L 176.744358 143.019228 
L 176.85687 143.019228 
L 176.950079 141.05379 
L 177.354379 141.05379 
L 177.354379 140.398644 
L 178.394524 140.398644 
L 178.394524 139.743498 
L 178.513913 139.743498 
L 178.598693 138.433206 
L 178.999998 138.433206 
L 179.098898 135.812621 
L 179.164521 135.812621 
L 179.164521 135.157475 
L 179.359921 135.157475 
L 179.359921 134.502329 
L 179.823292 134.502329 
L 179.933319 133.192037 
L 180.182234 133.192037 
L 180.290026 131.226598 
L 180.381893 131.226598 
L 180.397157 129.916306 
L 180.952739 129.916306 
L 180.982272 128.606014 
L 181.070572 128.606014 
L 181.114555 126.640576 
L 181.747212 126.640576 
L 181.747212 125.98543 
L 181.859814 125.98543 
L 181.957749 123.364845 
L 181.971695 123.364845 
L 181.971695 122.709699 
L 182.722034 122.709699 
L 182.722034 122.054553 
L 182.8418 122.054553 
L 182.88154 120.744261 
L 183.065806 120.744261 
L 183.065806 120.089115 
L 183.235184 120.089115 
L 183.235184 119.433969 
L 183.695823 119.433969 
L 183.695823 118.778823 
L 184.0087 118.778823 
L 184.107646 117.46853 
L 184.279463 117.46853 
L 184.303871 113.537654 
L 184.618101 113.537654 
L 184.618101 112.882508 
L 184.903218 112.882508 
L 184.99723 109.606777 
L 185.090739 109.606777 
L 185.090739 108.951631 
L 185.241629 108.951631 
L 185.241629 108.296485 
L 185.356816 108.296485 
L 185.459838 105.675901 
L 185.471247 105.675901 
L 185.482649 104.365608 
L 185.65279 104.365608 
L 185.754083 101.089878 
L 185.854792 101.089878 
L 185.865946 98.469293 
L 186.142502 98.469293 
L 186.164438 97.159001 
L 186.414741 97.159001 
L 186.414741 96.503855 
L 186.608155 96.503855 
L 186.640183 95.193563 
L 186.978205 95.193563 
L 186.978205 94.538417 
L 187.483428 94.538417 
L 187.554422 91.917832 
L 187.705587 91.917832 
L 187.705587 91.262686 
L 188.102403 91.262686 
L 188.161154 89.297248 
L 188.326548 89.297248 
L 188.38455 87.986956 
L 188.509564 87.986956 
L 188.595589 82.090641 
L 188.775817 82.090641 
L 188.775817 80.780349 
L 189.038067 80.780349 
L 189.038067 80.125203 
L 189.186172 80.125203 
L 189.259756 78.81491 
L 189.433283 78.81491 
L 189.460524 77.504618 
L 189.551024 77.504618 
L 189.551024 76.849472 
L 189.961379 76.849472 
L 189.961379 76.194326 
L 190.162992 76.194326 
L 190.189118 74.884034 
L 190.310526 74.884034 
L 190.353682 72.263449 
L 190.703588 72.263449 
L 190.813084 69.642865 
L 190.930239 69.642865 
L 190.930239 68.987719 
L 191.063174 68.987719 
L 191.137507 65.711988 
L 191.178666 65.711988 
L 191.285229 64.401696 
L 191.391144 64.401696 
L 191.391144 63.091404 
L 191.887612 63.091404 
L 191.887612 62.436258 
L 192.301088 62.436258 
L 192.331899 58.505381 
L 192.704987 58.505381 
L 192.735094 57.195089 
L 192.869934 57.195089 
L 192.959252 55.229651 
L 193.799862 55.229651 
L 193.799862 53.919359 
L 194.143125 53.919359 
L 194.143125 53.264213 
L 194.649043 53.264213 
L 194.649043 52.609066 
L 195.225655 52.609066 
L 195.225655 51.95392 
L 195.637981 51.95392 
L 195.637981 51.298774 
L 196.464878 51.298774 
L 196.525494 49.988482 
L 196.813555 49.988482 
L 196.825455 48.67819 
L 197.050024 48.67819 
L 197.050024 47.367898 
L 197.289121 47.367898 
L 197.346944 46.057605 
L 197.427575 46.057605 
L 197.462017 44.747313 
L 197.633216 44.747313 
L 197.633216 44.092167 
L 198.410644 44.092167 
L 198.42693 42.126729 
L 198.642632 42.126729 
L 198.642632 40.816437 
L 198.913838 40.816437 
L 198.913838 40.161291 
L 199.438797 40.161291 
L 199.438797 39.506144 
L 199.723195 39.506144 
L 199.723195 38.850998 
L 200.453226 38.850998 
L 200.453226 38.195852 
L 200.750195 38.195852 
L 200.750195 37.540706 
L 200.967304 37.540706 
L 200.967304 36.88556 
L 201.130703 36.88556 
L 201.130703 36.230414 
L 201.366092 36.230414 
L 201.366092 35.575268 
L 201.512181 35.575268 
L 201.512181 34.920122 
L 202.566222 34.920122 
L 202.566222 32.299537 
L 202.740807 32.299537 
L 202.740807 30.334099 
L 338.688 30.334099 
L 338.688 30.334099 
" style="fill:none;stroke:#6495ed;stroke-linecap:square;stroke-width:1.5;"/>
   </g>
   <g id="line2d_44">
    <defs>
     <path d="M -0 6 
L 6 -6 
L -6 -6 
z
" id="m0a710b1414" style="stroke:#6495ed;stroke-linejoin:miter;stroke-width:1.5;"/>
    </defs>
    <g>
     <use style="fill-opacity:0;stroke:#6495ed;stroke-linejoin:miter;stroke-width:1.5;" x="157.86528" xlink:href="#m0a710b1414" y="218.36103"/>
     <use style="fill-opacity:0;stroke:#6495ed;stroke-linejoin:miter;stroke-width:1.5;" x="185.482649" xlink:href="#m0a710b1414" y="104.365608"/>
     <use style="fill-opacity:0;stroke:#6495ed;stroke-linejoin:miter;stroke-width:1.5;" x="202.740807" xlink:href="#m0a710b1414" y="32.299537"/>
     <use style="fill-opacity:0;stroke:#6495ed;stroke-linejoin:miter;stroke-width:1.5;" x="202.740807" xlink:href="#m0a710b1414" y="30.334099"/>
     <use style="fill-opacity:0;stroke:#6495ed;stroke-linejoin:miter;stroke-width:1.5;" x="202.740807" xlink:href="#m0a710b1414" y="30.334099"/>
     <use style="fill-opacity:0;stroke:#6495ed;stroke-linejoin:miter;stroke-width:1.5;" x="338.688" xlink:href="#m0a710b1414" y="30.334099"/>
    </g>
   </g>
   <g id="line2d_45">
    <path style="fill:none;stroke:#6495ed;stroke-linecap:square;stroke-width:1.5;"/>
    <g/>
   </g>
   <g id="line2d_46">
    <path d="M 338.688 30.334099 
L 369.60768 293.571802 
" style="fill:none;stroke:#ff7500;stroke-linecap:square;stroke-width:1.5;"/>
    <g>
     <use style="fill-opacity:0;stroke:#ff7500;stroke-linejoin:bevel;stroke-width:1.5;" x="338.688" xlink:href="#m62e9223ed8" y="30.334099"/>
     <use style="fill-opacity:0;stroke:#ff7500;stroke-linejoin:bevel;stroke-width:1.5;" x="369.60768" xlink:href="#m62e9223ed8" y="293.571802"/>
    </g>
   </g>
   <g id="line2d_47">
    <path d="M 338.688 30.334099 
L 369.60768 207.616634 
" style="fill:none;stroke:#6495ed;stroke-linecap:square;stroke-width:1.5;"/>
    <g>
     <use style="fill-opacity:0;stroke:#6495ed;stroke-linejoin:miter;stroke-width:1.5;" x="338.688" xlink:href="#m0a710b1414" y="30.334099"/>
     <use style="fill-opacity:0;stroke:#6495ed;stroke-linejoin:miter;stroke-width:1.5;" x="369.60768" xlink:href="#m0a710b1414" y="207.616634"/>
    </g>
   </g>
   <g id="line2d_48">
    <path d="M 338.688 30.334099 
L 369.60768 121.661465 
" style="fill:none;stroke:#000080;stroke-linecap:square;stroke-width:1.5;"/>
    <g>
     <use style="fill-opacity:0;stroke:#000080;stroke-width:1.5;" x="338.688" xlink:href="#m55c25b82e8" y="30.334099"/>
     <use style="fill-opacity:0;stroke:#000080;stroke-width:1.5;" x="369.60768" xlink:href="#m55c25b82e8" y="121.661465"/>
    </g>
   </g>
   <g id="line2d_49">
    <path d="M 338.688 30.334099 
L 369.60768 35.706297 
" style="fill:none;stroke:#ff00ff;stroke-linecap:square;stroke-width:1.5;"/>
    <g>
     <use style="fill-opacity:0;stroke:#ff00ff;stroke-linejoin:miter;stroke-width:1.5;" x="338.688" xlink:href="#mc1e45356d2" y="30.334099"/>
     <use style="fill-opacity:0;stroke:#ff00ff;stroke-linejoin:miter;stroke-width:1.5;" x="369.60768" xlink:href="#mc1e45356d2" y="35.706297"/>
    </g>
   </g>
   <g id="line2d_50">
    <path d="M 338.688 298.944 
L 338.688 30.334099 
" style="fill:none;stroke:#000000;stroke-linecap:square;stroke-width:1.5;"/>
   </g>
   <g id="patch_3">
    <path d="M 57.6 298.944 
L 57.6 27.648 
" style="fill:none;stroke:#000000;stroke-linecap:square;stroke-linejoin:miter;stroke-width:0.8;"/>
   </g>
   <g id="patch_4">
    <path d="M 338.688 298.944 
L 338.688 27.648 
" style="fill:none;stroke:#000000;stroke-linecap:square;stroke-linejoin:miter;stroke-width:0.8;"/>
   </g>
   <g id="patch_5">
    <path d="M 57.6 298.944 
L 338.688 298.944 
" style="fill:none;stroke:#000000;stroke-linecap:square;stroke-linejoin:miter;stroke-width:0.8;"/>
   </g>
   <g id="patch_6">
    <path d="M 57.6 27.648 
L 338.688 27.648 
" style="fill:none;stroke:#000000;stroke-linecap:square;stroke-linejoin:miter;stroke-width:0.8;"/>
   </g>
   <g id="text_13">
    <!-- alN5 -->
    <g transform="translate(375.22944 298.262739)scale(0.17 -0.17)">
     <defs>
      <path d="M 9.8125 72.90625 
L 23.09375 72.90625 
L 55.421875 11.921875 
L 55.421875 72.90625 
L 64.984375 72.90625 
L 64.984375 0 
L 51.703125 0 
L 19.390625 60.984375 
L 19.390625 0 
L 9.8125 0 
z
" id="DejaVuSans-78"/>
      <path d="M 10.796875 72.90625 
L 49.515625 72.90625 
L 49.515625 64.59375 
L 19.828125 64.59375 
L 19.828125 46.734375 
Q 21.96875 47.46875 24.109375 47.828125 
Q 26.265625 48.1875 28.421875 48.1875 
Q 40.625 48.1875 47.75 41.5 
Q 54.890625 34.8125 54.890625 23.390625 
Q 54.890625 11.625 47.5625 5.09375 
Q 40.234375 -1.421875 26.90625 -1.421875 
Q 22.3125 -1.421875 17.546875 -0.640625 
Q 12.796875 0.140625 7.71875 1.703125 
L 7.71875 11.625 
Q 12.109375 9.234375 16.796875 8.0625 
Q 21.484375 6.890625 26.703125 6.890625 
Q 35.15625 6.890625 40.078125 11.328125 
Q 45.015625 15.765625 45.015625 23.390625 
Q 45.015625 31 40.078125 35.4375 
Q 35.15625 39.890625 26.703125 39.890625 
Q 22.75 39.890625 18.8125 39.015625 
Q 14.890625 38.140625 10.796875 36.28125 
z
" id="DejaVuSans-53"/>
     </defs>
     <use xlink:href="#DejaVuSans-97"/>
     <use x="61.279297" xlink:href="#DejaVuSans-108"/>
     <use x="89.0625" xlink:href="#DejaVuSans-78"/>
     <use x="163.867188" xlink:href="#DejaVuSans-53"/>
    </g>
   </g>
   <g id="text_14">
    <!-- alO5 -->
    <g transform="translate(375.22944 212.307571)scale(0.17 -0.17)">
     <defs>
      <path d="M 39.40625 66.21875 
Q 28.65625 66.21875 22.328125 58.203125 
Q 16.015625 50.203125 16.015625 36.375 
Q 16.015625 22.609375 22.328125 14.59375 
Q 28.65625 6.59375 39.40625 6.59375 
Q 50.140625 6.59375 56.421875 14.59375 
Q 62.703125 22.609375 62.703125 36.375 
Q 62.703125 50.203125 56.421875 58.203125 
Q 50.140625 66.21875 39.40625 66.21875 
z
M 39.40625 74.21875 
Q 54.734375 74.21875 63.90625 63.9375 
Q 73.09375 53.65625 73.09375 36.375 
Q 73.09375 19.140625 63.90625 8.859375 
Q 54.734375 -1.421875 39.40625 -1.421875 
Q 24.03125 -1.421875 14.8125 8.828125 
Q 5.609375 19.09375 5.609375 36.375 
Q 5.609375 53.65625 14.8125 63.9375 
Q 24.03125 74.21875 39.40625 74.21875 
z
" id="DejaVuSans-79"/>
     </defs>
     <use xlink:href="#DejaVuSans-97"/>
     <use x="61.279297" xlink:href="#DejaVuSans-108"/>
     <use x="89.0625" xlink:href="#DejaVuSans-79"/>
     <use x="167.773438" xlink:href="#DejaVuSans-53"/>
    </g>
   </g>
   <g id="text_15">
    <!-- al01 -->
    <g transform="translate(375.22944 126.352403)scale(0.17 -0.17)">
     <use xlink:href="#DejaVuSans-97"/>
     <use x="61.279297" xlink:href="#DejaVuSans-108"/>
     <use x="89.0625" xlink:href="#DejaVuSans-48"/>
     <use x="152.685547" xlink:href="#DejaVuSans-49"/>
    </g>
   </g>
   <g id="text_16">
    <!-- alN1 -->
    <g transform="translate(375.22944 40.397235)scale(0.17 -0.17)">
     <use xlink:href="#DejaVuSans-97"/>
     <use x="61.279297" xlink:href="#DejaVuSans-108"/>
     <use x="89.0625" xlink:href="#DejaVuSans-78"/>
     <use x="163.867188" xlink:href="#DejaVuSans-49"/>
    </g>
   </g>
   <g id="text_17">
    <!-- bbob-constrained f16, 2-D -->
    <g transform="translate(60.41088 38.111366)scale(0.102 -0.102)">
     <defs>
      <path d="M 48.6875 27.296875 
Q 48.6875 37.203125 44.609375 42.84375 
Q 40.53125 48.484375 33.40625 48.484375 
Q 26.265625 48.484375 22.1875 42.84375 
Q 18.109375 37.203125 18.109375 27.296875 
Q 18.109375 17.390625 22.1875 11.75 
Q 26.265625 6.109375 33.40625 6.109375 
Q 40.53125 6.109375 44.609375 11.75 
Q 48.6875 17.390625 48.6875 27.296875 
z
M 18.109375 46.390625 
Q 20.953125 51.265625 25.265625 53.625 
Q 29.59375 56 35.59375 56 
Q 45.5625 56 51.78125 48.09375 
Q 58.015625 40.1875 58.015625 27.296875 
Q 58.015625 14.40625 51.78125 6.484375 
Q 45.5625 -1.421875 35.59375 -1.421875 
Q 29.59375 -1.421875 25.265625 0.953125 
Q 20.953125 3.328125 18.109375 8.203125 
L 18.109375 0 
L 9.078125 0 
L 9.078125 75.984375 
L 18.109375 75.984375 
z
" id="DejaVuSans-98"/>
      <path d="M 19.671875 64.796875 
L 19.671875 8.109375 
L 31.59375 8.109375 
Q 46.6875 8.109375 53.6875 14.9375 
Q 60.6875 21.78125 60.6875 36.53125 
Q 60.6875 51.171875 53.6875 57.984375 
Q 46.6875 64.796875 31.59375 64.796875 
z
M 9.8125 72.90625 
L 30.078125 72.90625 
Q 51.265625 72.90625 61.171875 64.09375 
Q 71.09375 55.28125 71.09375 36.53125 
Q 71.09375 17.671875 61.125 8.828125 
Q 51.171875 0 30.078125 0 
L 9.8125 0 
z
" id="DejaVuSans-68"/>
     </defs>
     <use xlink:href="#DejaVuSans-98"/>
     <use x="63.476562" xlink:href="#DejaVuSans-98"/>
     <use x="126.953125" xlink:href="#DejaVuSans-111"/>
     <use x="188.134766" xlink:href="#DejaVuSans-98"/>
     <use x="251.611328" xlink:href="#DejaVuSans-45"/>
     <use x="287.695312" xlink:href="#DejaVuSans-99"/>
     <use x="342.675781" xlink:href="#DejaVuSans-111"/>
     <use x="403.857422" xlink:href="#DejaVuSans-110"/>
     <use x="467.236328" xlink:href="#DejaVuSans-115"/>
     <use x="519.335938" xlink:href="#DejaVuSans-116"/>
     <use x="558.544922" xlink:href="#DejaVuSans-114"/>
     <use x="599.658203" xlink:href="#DejaVuSans-97"/>
     <use x="660.9375" xlink:href="#DejaVuSans-105"/>
     <use x="688.720703" xlink:href="#DejaVuSans-110"/>
     <use x="752.099609" xlink:href="#DejaVuSans-101"/>
     <use x="813.623047" xlink:href="#DejaVuSans-100"/>
     <use x="877.099609" xlink:href="#DejaVuSans-32"/>
     <use x="908.886719" xlink:href="#DejaVuSans-102"/>
     <use x="944.091797" xlink:href="#DejaVuSans-49"/>
     <use x="1007.714844" xlink:href="#DejaVuSans-54"/>
     <use x="1071.337891" xlink:href="#DejaVuSans-44"/>
     <use x="1103.125" xlink:href="#DejaVuSans-32"/>
     <use x="1134.912109" xlink:href="#DejaVuSans-50"/>
     <use x="1198.535156" xlink:href="#DejaVuSans-45"/>
     <use x="1234.619141" xlink:href="#DejaVuSans-68"/>
    </g>
    <!-- 41 targets: 100..1e-06 -->
    <g transform="translate(60.41088 49.533135)scale(0.102 -0.102)">
     <defs>
      <path d="M 11.71875 12.40625 
L 22.015625 12.40625 
L 22.015625 0 
L 11.71875 0 
z
M 11.71875 51.703125 
L 22.015625 51.703125 
L 22.015625 39.3125 
L 11.71875 39.3125 
z
" id="DejaVuSans-58"/>
     </defs>
     <use xlink:href="#DejaVuSans-52"/>
     <use x="63.623047" xlink:href="#DejaVuSans-49"/>
     <use x="127.246094" xlink:href="#DejaVuSans-32"/>
     <use x="159.033203" xlink:href="#DejaVuSans-116"/>
     <use x="198.242188" xlink:href="#DejaVuSans-97"/>
     <use x="259.521484" xlink:href="#DejaVuSans-114"/>
     <use x="298.884766" xlink:href="#DejaVuSans-103"/>
     <use x="362.361328" xlink:href="#DejaVuSans-101"/>
     <use x="423.884766" xlink:href="#DejaVuSans-116"/>
     <use x="463.09375" xlink:href="#DejaVuSans-115"/>
     <use x="515.193359" xlink:href="#DejaVuSans-58"/>
     <use x="548.884766" xlink:href="#DejaVuSans-32"/>
     <use x="580.671875" xlink:href="#DejaVuSans-49"/>
     <use x="644.294922" xlink:href="#DejaVuSans-48"/>
     <use x="707.917969" xlink:href="#DejaVuSans-48"/>
     <use x="771.541016" xlink:href="#DejaVuSans-46"/>
     <use x="803.328125" xlink:href="#DejaVuSans-46"/>
     <use x="835.115234" xlink:href="#DejaVuSans-49"/>
     <use x="898.738281" xlink:href="#DejaVuSans-101"/>
     <use x="960.261719" xlink:href="#DejaVuSans-45"/>
     <use x="996.345703" xlink:href="#DejaVuSans-48"/>
     <use x="1059.96875" xlink:href="#DejaVuSans-54"/>
    </g>
    <!-- 15 instances -->
    <g transform="translate(60.41088 60.954904)scale(0.102 -0.102)">
     <use xlink:href="#DejaVuSans-49"/>
     <use x="63.623047" xlink:href="#DejaVuSans-53"/>
     <use x="127.246094" xlink:href="#DejaVuSans-32"/>
     <use x="159.033203" xlink:href="#DejaVuSans-105"/>
     <use x="186.816406" xlink:href="#DejaVuSans-110"/>
     <use x="250.195312" xlink:href="#DejaVuSans-115"/>
     <use x="302.294922" xlink:href="#DejaVuSans-116"/>
     <use x="341.503906" xlink:href="#DejaVuSans-97"/>
     <use x="402.783203" xlink:href="#DejaVuSans-110"/>
     <use x="466.162109" xlink:href="#DejaVuSans-99"/>
     <use x="521.142578" xlink:href="#DejaVuSans-101"/>
     <use x="582.666016" xlink:href="#DejaVuSans-115"/>
    </g>
   </g>
   <g id="text_18">
    <!-- v5z33 -->
    <g style="fill:#808080;" transform="translate(183.016656 294.151352)scale(0.1 -0.1)">
     <defs>
      <path d="M 5.515625 54.6875 
L 48.1875 54.6875 
L 48.1875 46.484375 
L 14.40625 7.171875 
L 48.1875 7.171875 
L 48.1875 0 
L 4.296875 0 
L 4.296875 8.203125 
L 38.09375 47.515625 
L 5.515625 47.515625 
z
" id="DejaVuSans-122"/>
      <path d="M 40.578125 39.3125 
Q 47.65625 37.796875 51.625 33 
Q 55.609375 28.21875 55.609375 21.1875 
Q 55.609375 10.40625 48.1875 4.484375 
Q 40.765625 -1.421875 27.09375 -1.421875 
Q 22.515625 -1.421875 17.65625 -0.515625 
Q 12.796875 0.390625 7.625 2.203125 
L 7.625 11.71875 
Q 11.71875 9.328125 16.59375 8.109375 
Q 21.484375 6.890625 26.8125 6.890625 
Q 36.078125 6.890625 40.9375 10.546875 
Q 45.796875 14.203125 45.796875 21.1875 
Q 45.796875 27.640625 41.28125 31.265625 
Q 36.765625 34.90625 28.71875 34.90625 
L 20.21875 34.90625 
L 20.21875 43.015625 
L 29.109375 43.015625 
Q 36.375 43.015625 40.234375 45.921875 
Q 44.09375 48.828125 44.09375 54.296875 
Q 44.09375 59.90625 40.109375 62.90625 
Q 36.140625 65.921875 28.71875 65.921875 
Q 24.65625 65.921875 20.015625 65.03125 
Q 15.375 64.15625 9.8125 62.3125 
L 9.8125 71.09375 
Q 15.4375 72.65625 20.34375 73.4375 
Q 25.25 74.21875 29.59375 74.21875 
Q 40.828125 74.21875 47.359375 69.109375 
Q 53.90625 64.015625 53.90625 55.328125 
Q 53.90625 49.265625 50.4375 45.09375 
Q 46.96875 40.921875 40.578125 39.3125 
z
" id="DejaVuSans-51"/>
     </defs>
     <use xlink:href="#DejaVuSans-118"/>
     <use x="59.179688" xlink:href="#DejaVuSans-53"/>
     <use x="122.802734" xlink:href="#DejaVuSans-122"/>
     <use x="175.292969" xlink:href="#DejaVuSans-51"/>
     <use x="238.916016" xlink:href="#DejaVuSans-51"/>
    </g>
   </g>
   <g id="text_19">
    <!-- 16 Linear Slope, n/2+6 constraints -->
    <g transform="translate(24.322125 21.648)scale(0.2 -0.2)">
     <defs>
      <path d="M 9.8125 72.90625 
L 19.671875 72.90625 
L 19.671875 8.296875 
L 55.171875 8.296875 
L 55.171875 0 
L 9.8125 0 
z
" id="DejaVuSans-76"/>
      <path d="M 53.515625 70.515625 
L 53.515625 60.890625 
Q 47.90625 63.578125 42.921875 64.890625 
Q 37.9375 66.21875 33.296875 66.21875 
Q 25.25 66.21875 20.875 63.09375 
Q 16.5 59.96875 16.5 54.203125 
Q 16.5 49.359375 19.40625 46.890625 
Q 22.3125 44.4375 30.421875 42.921875 
L 36.375 41.703125 
Q 47.40625 39.59375 52.65625 34.296875 
Q 57.90625 29 57.90625 20.125 
Q 57.90625 9.515625 50.796875 4.046875 
Q 43.703125 -1.421875 29.984375 -1.421875 
Q 24.8125 -1.421875 18.96875 -0.25 
Q 13.140625 0.921875 6.890625 3.21875 
L 6.890625 13.375 
Q 12.890625 10.015625 18.65625 8.296875 
Q 24.421875 6.59375 29.984375 6.59375 
Q 38.421875 6.59375 43.015625 9.90625 
Q 47.609375 13.234375 47.609375 19.390625 
Q 47.609375 24.75 44.3125 27.78125 
Q 41.015625 30.8125 33.5 32.328125 
L 27.484375 33.5 
Q 16.453125 35.6875 11.515625 40.375 
Q 6.59375 45.0625 6.59375 53.421875 
Q 6.59375 63.09375 13.40625 68.65625 
Q 20.21875 74.21875 32.171875 74.21875 
Q 37.3125 74.21875 42.625 73.28125 
Q 47.953125 72.359375 53.515625 70.515625 
z
" id="DejaVuSans-83"/>
     </defs>
     <use xlink:href="#DejaVuSans-49"/>
     <use x="63.623047" xlink:href="#DejaVuSans-54"/>
     <use x="127.246094" xlink:href="#DejaVuSans-32"/>
     <use x="159.033203" xlink:href="#DejaVuSans-76"/>
     <use x="214.746094" xlink:href="#DejaVuSans-105"/>
     <use x="242.529297" xlink:href="#DejaVuSans-110"/>
     <use x="305.908203" xlink:href="#DejaVuSans-101"/>
     <use x="367.431641" xlink:href="#DejaVuSans-97"/>
     <use x="428.710938" xlink:href="#DejaVuSans-114"/>
     <use x="469.824219" xlink:href="#DejaVuSans-32"/>
     <use x="501.611328" xlink:href="#DejaVuSans-83"/>
     <use x="565.087891" xlink:href="#DejaVuSans-108"/>
     <use x="592.871094" xlink:href="#DejaVuSans-111"/>
     <use x="654.052734" xlink:href="#DejaVuSans-112"/>
     <use x="717.529297" xlink:href="#DejaVuSans-101"/>
     <use x="779.052734" xlink:href="#DejaVuSans-44"/>
     <use x="810.839844" xlink:href="#DejaVuSans-32"/>
     <use x="842.626953" xlink:href="#DejaVuSans-110"/>
     <use x="906.005859" xlink:href="#DejaVuSans-47"/>
     <use x="939.697266" xlink:href="#DejaVuSans-50"/>
     <use x="1003.320312" xlink:href="#DejaVuSans-43"/>
     <use x="1087.109375" xlink:href="#DejaVuSans-54"/>
     <use x="1150.732422" xlink:href="#DejaVuSans-32"/>
     <use x="1182.519531" xlink:href="#DejaVuSans-99"/>
     <use x="1237.5" xlink:href="#DejaVuSans-111"/>
     <use x="1298.681641" xlink:href="#DejaVuSans-110"/>
     <use x="1362.060547" xlink:href="#DejaVuSans-115"/>
     <use x="1414.160156" xlink:href="#DejaVuSans-116"/>
     <use x="1453.369141" xlink:href="#DejaVuSans-114"/>
     <use x="1494.482422" xlink:href="#DejaVuSans-97"/>
     <use x="1555.761719" xlink:href="#DejaVuSans-105"/>
     <use x="1583.544922" xlink:href="#DejaVuSans-110"/>
     <use x="1646.923828" xlink:href="#DejaVuSans-116"/>
     <use x="1686.132812" xlink:href="#DejaVuSans-115"/>
    </g>
   </g>
  </g>
 </g>
 <defs>
  <clipPath id="p15da4ed815">
   <rect height="271.296" width="281.088" x="57.6" y="27.648"/>
  </clipPath>
 </defs>
</svg>
