<?xml version="1.0" encoding="utf-8" standalone="no"?>
<!DOCTYPE svg PUBLIC "-//W3C//DTD SVG 1.1//EN"
  "http://www.w3.org/Graphics/SVG/1.1/DTD/svg11.dtd">
<!-- Created with matplotlib (https://matplotlib.org/) -->
<svg height="345.6pt" version="1.1" viewBox="0 0 460.8 345.6" width="460.8pt" xmlns="http://www.w3.org/2000/svg" xmlns:xlink="http://www.w3.org/1999/xlink">
 <metadata>
  <rdf:RDF xmlns:cc="http://creativecommons.org/ns#" xmlns:dc="http://purl.org/dc/elements/1.1/" xmlns:rdf="http://www.w3.org/1999/02/22-rdf-syntax-ns#">
   <cc:Work>
    <dc:type rdf:resource="http://purl.org/dc/dcmitype/StillImage"/>
    <dc:date>2021-03-16T10:43:42.963823</dc:date>
    <dc:format>image/svg+xml</dc:format>
    <dc:creator>
     <cc:Agent>
      <dc:title>Matplotlib v3.3.3, https://matplotlib.org/</dc:title>
     </cc:Agent>
    </dc:creator>
   </cc:Work>
  </rdf:RDF>
 </metadata>
 <defs>
  <style type="text/css">*{stroke-linecap:butt;stroke-linejoin:round;}</style>
 </defs>
 <g id="figure_1">
  <g id="patch_1">
   <path d="M 0 345.6 
L 460.8 345.6 
L 460.8 0 
L 0 0 
z
" style="fill:#ffffff;"/>
  </g>
  <g id="axes_1">
   <g id="patch_2">
    <path d="M 57.6 298.944 
L 338.688 298.944 
L 338.688 27.648 
L 57.6 27.648 
z
" style="fill:#ffffff;"/>
   </g>
   <g id="matplotlib.axis_1">
    <g id="xtick_1">
     <g id="line2d_1">
      <path clip-path="url(#pd8b9bb4df0)" d="M 57.6 298.944 
L 57.6 27.648 
" style="fill:none;stroke:#b0b0b0;stroke-linecap:square;stroke-width:0.8;"/>
     </g>
     <g id="line2d_2">
      <defs>
       <path d="M 0 0 
L 0 3.5 
" id="m6d947290a5" style="stroke:#000000;stroke-width:0.8;"/>
      </defs>
      <g>
       <use style="stroke:#000000;stroke-width:0.8;" x="57.6" xlink:href="#m6d947290a5" y="298.944"/>
      </g>
     </g>
     <g id="text_1">
      <!-- 0 -->
      <g transform="translate(51.2375 321.140875)scale(0.2 -0.2)">
       <defs>
        <path d="M 31.78125 66.40625 
Q 24.171875 66.40625 20.328125 58.90625 
Q 16.5 51.421875 16.5 36.375 
Q 16.5 21.390625 20.328125 13.890625 
Q 24.171875 6.390625 31.78125 6.390625 
Q 39.453125 6.390625 43.28125 13.890625 
Q 47.125 21.390625 47.125 36.375 
Q 47.125 51.421875 43.28125 58.90625 
Q 39.453125 66.40625 31.78125 66.40625 
z
M 31.78125 74.21875 
Q 44.046875 74.21875 50.515625 64.515625 
Q 56.984375 54.828125 56.984375 36.375 
Q 56.984375 17.96875 50.515625 8.265625 
Q 44.046875 -1.421875 31.78125 -1.421875 
Q 19.53125 -1.421875 13.0625 8.265625 
Q 6.59375 17.96875 6.59375 36.375 
Q 6.59375 54.828125 13.0625 64.515625 
Q 19.53125 74.21875 31.78125 74.21875 
z
" id="DejaVuSans-48"/>
       </defs>
       <use xlink:href="#DejaVuSans-48"/>
      </g>
     </g>
    </g>
    <g id="xtick_2">
     <g id="line2d_3">
      <path clip-path="url(#pd8b9bb4df0)" d="M 137.910857 298.944 
L 137.910857 27.648 
" style="fill:none;stroke:#b0b0b0;stroke-linecap:square;stroke-width:0.8;"/>
     </g>
     <g id="line2d_4">
      <g>
       <use style="stroke:#000000;stroke-width:0.8;" x="137.910857" xlink:href="#m6d947290a5" y="298.944"/>
      </g>
     </g>
     <g id="text_2">
      <!-- 2 -->
      <g transform="translate(131.548357 321.140875)scale(0.2 -0.2)">
       <defs>
        <path d="M 19.1875 8.296875 
L 53.609375 8.296875 
L 53.609375 0 
L 7.328125 0 
L 7.328125 8.296875 
Q 12.9375 14.109375 22.625 23.890625 
Q 32.328125 33.6875 34.8125 36.53125 
Q 39.546875 41.84375 41.421875 45.53125 
Q 43.3125 49.21875 43.3125 52.78125 
Q 43.3125 58.59375 39.234375 62.25 
Q 35.15625 65.921875 28.609375 65.921875 
Q 23.96875 65.921875 18.8125 64.3125 
Q 13.671875 62.703125 7.8125 59.421875 
L 7.8125 69.390625 
Q 13.765625 71.78125 18.9375 73 
Q 24.125 74.21875 28.421875 74.21875 
Q 39.75 74.21875 46.484375 68.546875 
Q 53.21875 62.890625 53.21875 53.421875 
Q 53.21875 48.921875 51.53125 44.890625 
Q 49.859375 40.875 45.40625 35.40625 
Q 44.1875 33.984375 37.640625 27.21875 
Q 31.109375 20.453125 19.1875 8.296875 
z
" id="DejaVuSans-50"/>
       </defs>
       <use xlink:href="#DejaVuSans-50"/>
      </g>
     </g>
    </g>
    <g id="xtick_3">
     <g id="line2d_5">
      <path clip-path="url(#pd8b9bb4df0)" d="M 218.221714 298.944 
L 218.221714 27.648 
" style="fill:none;stroke:#b0b0b0;stroke-linecap:square;stroke-width:0.8;"/>
     </g>
     <g id="line2d_6">
      <g>
       <use style="stroke:#000000;stroke-width:0.8;" x="218.221714" xlink:href="#m6d947290a5" y="298.944"/>
      </g>
     </g>
     <g id="text_3">
      <!-- 4 -->
      <g transform="translate(211.859214 321.140875)scale(0.2 -0.2)">
       <defs>
        <path d="M 37.796875 64.3125 
L 12.890625 25.390625 
L 37.796875 25.390625 
z
M 35.203125 72.90625 
L 47.609375 72.90625 
L 47.609375 25.390625 
L 58.015625 25.390625 
L 58.015625 17.1875 
L 47.609375 17.1875 
L 47.609375 0 
L 37.796875 0 
L 37.796875 17.1875 
L 4.890625 17.1875 
L 4.890625 26.703125 
z
" id="DejaVuSans-52"/>
       </defs>
       <use xlink:href="#DejaVuSans-52"/>
      </g>
     </g>
    </g>
    <g id="xtick_4">
     <g id="line2d_7">
      <path clip-path="url(#pd8b9bb4df0)" d="M 298.532571 298.944 
L 298.532571 27.648 
" style="fill:none;stroke:#b0b0b0;stroke-linecap:square;stroke-width:0.8;"/>
     </g>
     <g id="line2d_8">
      <g>
       <use style="stroke:#000000;stroke-width:0.8;" x="298.532571" xlink:href="#m6d947290a5" y="298.944"/>
      </g>
     </g>
     <g id="text_4">
      <!-- 6 -->
      <g transform="translate(292.170071 321.140875)scale(0.2 -0.2)">
       <defs>
        <path d="M 33.015625 40.375 
Q 26.375 40.375 22.484375 35.828125 
Q 18.609375 31.296875 18.609375 23.390625 
Q 18.609375 15.53125 22.484375 10.953125 
Q 26.375 6.390625 33.015625 6.390625 
Q 39.65625 6.390625 43.53125 10.953125 
Q 47.40625 15.53125 47.40625 23.390625 
Q 47.40625 31.296875 43.53125 35.828125 
Q 39.65625 40.375 33.015625 40.375 
z
M 52.59375 71.296875 
L 52.59375 62.3125 
Q 48.875 64.0625 45.09375 64.984375 
Q 41.3125 65.921875 37.59375 65.921875 
Q 27.828125 65.921875 22.671875 59.328125 
Q 17.53125 52.734375 16.796875 39.40625 
Q 19.671875 43.65625 24.015625 45.921875 
Q 28.375 48.1875 33.59375 48.1875 
Q 44.578125 48.1875 50.953125 41.515625 
Q 57.328125 34.859375 57.328125 23.390625 
Q 57.328125 12.15625 50.6875 5.359375 
Q 44.046875 -1.421875 33.015625 -1.421875 
Q 20.359375 -1.421875 13.671875 8.265625 
Q 6.984375 17.96875 6.984375 36.375 
Q 6.984375 53.65625 15.1875 63.9375 
Q 23.390625 74.21875 37.203125 74.21875 
Q 40.921875 74.21875 44.703125 73.484375 
Q 48.484375 72.75 52.59375 71.296875 
z
" id="DejaVuSans-54"/>
       </defs>
       <use xlink:href="#DejaVuSans-54"/>
      </g>
     </g>
    </g>
    <g id="xtick_5">
     <g id="line2d_9">
      <path clip-path="url(#pd8b9bb4df0)" d="M 97.755429 298.944 
L 97.755429 27.648 
" style="fill:none;stroke:#b0b0b0;stroke-linecap:square;stroke-width:0.8;"/>
     </g>
     <g id="line2d_10">
      <defs>
       <path d="M 0 0 
L 0 2 
" id="ma1e5a48bd7" style="stroke:#000000;stroke-width:0.6;"/>
      </defs>
      <g>
       <use style="stroke:#000000;stroke-width:0.6;" x="97.755429" xlink:href="#ma1e5a48bd7" y="298.944"/>
      </g>
     </g>
    </g>
    <g id="xtick_6">
     <g id="line2d_11">
      <path clip-path="url(#pd8b9bb4df0)" d="M 178.066286 298.944 
L 178.066286 27.648 
" style="fill:none;stroke:#b0b0b0;stroke-linecap:square;stroke-width:0.8;"/>
     </g>
     <g id="line2d_12">
      <g>
       <use style="stroke:#000000;stroke-width:0.6;" x="178.066286" xlink:href="#ma1e5a48bd7" y="298.944"/>
      </g>
     </g>
    </g>
    <g id="xtick_7">
     <g id="line2d_13">
      <path clip-path="url(#pd8b9bb4df0)" d="M 258.377143 298.944 
L 258.377143 27.648 
" style="fill:none;stroke:#b0b0b0;stroke-linecap:square;stroke-width:0.8;"/>
     </g>
     <g id="line2d_14">
      <g>
       <use style="stroke:#000000;stroke-width:0.6;" x="258.377143" xlink:href="#ma1e5a48bd7" y="298.944"/>
      </g>
     </g>
    </g>
    <g id="xtick_8">
     <g id="line2d_15">
      <path clip-path="url(#pd8b9bb4df0)" d="M 338.688 298.944 
L 338.688 27.648 
" style="fill:none;stroke:#b0b0b0;stroke-linecap:square;stroke-width:0.8;"/>
     </g>
     <g id="line2d_16">
      <g>
       <use style="stroke:#000000;stroke-width:0.6;" x="338.688" xlink:href="#ma1e5a48bd7" y="298.944"/>
      </g>
     </g>
    </g>
    <g id="text_5">
     <!-- log10(# (f+g)-evals / dimension) -->
     <g transform="translate(58.145016 342.217594)scale(0.17 -0.17)">
      <defs>
       <path d="M 9.421875 75.984375 
L 18.40625 75.984375 
L 18.40625 0 
L 9.421875 0 
z
" id="DejaVuSans-108"/>
       <path d="M 30.609375 48.390625 
Q 23.390625 48.390625 19.1875 42.75 
Q 14.984375 37.109375 14.984375 27.296875 
Q 14.984375 17.484375 19.15625 11.84375 
Q 23.34375 6.203125 30.609375 6.203125 
Q 37.796875 6.203125 41.984375 11.859375 
Q 46.1875 17.53125 46.1875 27.296875 
Q 46.1875 37.015625 41.984375 42.703125 
Q 37.796875 48.390625 30.609375 48.390625 
z
M 30.609375 56 
Q 42.328125 56 49.015625 48.375 
Q 55.71875 40.765625 55.71875 27.296875 
Q 55.71875 13.875 49.015625 6.21875 
Q 42.328125 -1.421875 30.609375 -1.421875 
Q 18.84375 -1.421875 12.171875 6.21875 
Q 5.515625 13.875 5.515625 27.296875 
Q 5.515625 40.765625 12.171875 48.375 
Q 18.84375 56 30.609375 56 
z
" id="DejaVuSans-111"/>
       <path d="M 45.40625 27.984375 
Q 45.40625 37.75 41.375 43.109375 
Q 37.359375 48.484375 30.078125 48.484375 
Q 22.859375 48.484375 18.828125 43.109375 
Q 14.796875 37.75 14.796875 27.984375 
Q 14.796875 18.265625 18.828125 12.890625 
Q 22.859375 7.515625 30.078125 7.515625 
Q 37.359375 7.515625 41.375 12.890625 
Q 45.40625 18.265625 45.40625 27.984375 
z
M 54.390625 6.78125 
Q 54.390625 -7.171875 48.1875 -13.984375 
Q 42 -20.796875 29.203125 -20.796875 
Q 24.46875 -20.796875 20.265625 -20.09375 
Q 16.0625 -19.390625 12.109375 -17.921875 
L 12.109375 -9.1875 
Q 16.0625 -11.328125 19.921875 -12.34375 
Q 23.78125 -13.375 27.78125 -13.375 
Q 36.625 -13.375 41.015625 -8.765625 
Q 45.40625 -4.15625 45.40625 5.171875 
L 45.40625 9.625 
Q 42.625 4.78125 38.28125 2.390625 
Q 33.9375 0 27.875 0 
Q 17.828125 0 11.671875 7.65625 
Q 5.515625 15.328125 5.515625 27.984375 
Q 5.515625 40.671875 11.671875 48.328125 
Q 17.828125 56 27.875 56 
Q 33.9375 56 38.28125 53.609375 
Q 42.625 51.21875 45.40625 46.390625 
L 45.40625 54.6875 
L 54.390625 54.6875 
z
" id="DejaVuSans-103"/>
       <path d="M 12.40625 8.296875 
L 28.515625 8.296875 
L 28.515625 63.921875 
L 10.984375 60.40625 
L 10.984375 69.390625 
L 28.421875 72.90625 
L 38.28125 72.90625 
L 38.28125 8.296875 
L 54.390625 8.296875 
L 54.390625 0 
L 12.40625 0 
z
" id="DejaVuSans-49"/>
       <path d="M 31 75.875 
Q 24.46875 64.65625 21.28125 53.65625 
Q 18.109375 42.671875 18.109375 31.390625 
Q 18.109375 20.125 21.3125 9.0625 
Q 24.515625 -2 31 -13.1875 
L 23.1875 -13.1875 
Q 15.875 -1.703125 12.234375 9.375 
Q 8.59375 20.453125 8.59375 31.390625 
Q 8.59375 42.28125 12.203125 53.3125 
Q 15.828125 64.359375 23.1875 75.875 
z
" id="DejaVuSans-40"/>
       <path d="M 51.125 44 
L 36.921875 44 
L 32.8125 27.6875 
L 47.125 27.6875 
z
M 43.796875 71.78125 
L 38.71875 51.515625 
L 52.984375 51.515625 
L 58.109375 71.78125 
L 65.921875 71.78125 
L 60.890625 51.515625 
L 76.125 51.515625 
L 76.125 44 
L 58.984375 44 
L 54.984375 27.6875 
L 70.515625 27.6875 
L 70.515625 20.21875 
L 53.078125 20.21875 
L 48 0 
L 40.1875 0 
L 45.21875 20.21875 
L 30.90625 20.21875 
L 25.875 0 
L 18.015625 0 
L 23.09375 20.21875 
L 7.71875 20.21875 
L 7.71875 27.6875 
L 24.90625 27.6875 
L 29 44 
L 13.28125 44 
L 13.28125 51.515625 
L 30.90625 51.515625 
L 35.890625 71.78125 
z
" id="DejaVuSans-35"/>
       <path id="DejaVuSans-32"/>
       <path d="M 37.109375 75.984375 
L 37.109375 68.5 
L 28.515625 68.5 
Q 23.6875 68.5 21.796875 66.546875 
Q 19.921875 64.59375 19.921875 59.515625 
L 19.921875 54.6875 
L 34.71875 54.6875 
L 34.71875 47.703125 
L 19.921875 47.703125 
L 19.921875 0 
L 10.890625 0 
L 10.890625 47.703125 
L 2.296875 47.703125 
L 2.296875 54.6875 
L 10.890625 54.6875 
L 10.890625 58.5 
Q 10.890625 67.625 15.140625 71.796875 
Q 19.390625 75.984375 28.609375 75.984375 
z
" id="DejaVuSans-102"/>
       <path d="M 46 62.703125 
L 46 35.5 
L 73.1875 35.5 
L 73.1875 27.203125 
L 46 27.203125 
L 46 0 
L 37.796875 0 
L 37.796875 27.203125 
L 10.59375 27.203125 
L 10.59375 35.5 
L 37.796875 35.5 
L 37.796875 62.703125 
z
" id="DejaVuSans-43"/>
       <path d="M 8.015625 75.875 
L 15.828125 75.875 
Q 23.140625 64.359375 26.78125 53.3125 
Q 30.421875 42.28125 30.421875 31.390625 
Q 30.421875 20.453125 26.78125 9.375 
Q 23.140625 -1.703125 15.828125 -13.1875 
L 8.015625 -13.1875 
Q 14.5 -2 17.703125 9.0625 
Q 20.90625 20.125 20.90625 31.390625 
Q 20.90625 42.671875 17.703125 53.65625 
Q 14.5 64.65625 8.015625 75.875 
z
" id="DejaVuSans-41"/>
       <path d="M 4.890625 31.390625 
L 31.203125 31.390625 
L 31.203125 23.390625 
L 4.890625 23.390625 
z
" id="DejaVuSans-45"/>
       <path d="M 56.203125 29.59375 
L 56.203125 25.203125 
L 14.890625 25.203125 
Q 15.484375 15.921875 20.484375 11.0625 
Q 25.484375 6.203125 34.421875 6.203125 
Q 39.59375 6.203125 44.453125 7.46875 
Q 49.3125 8.734375 54.109375 11.28125 
L 54.109375 2.78125 
Q 49.265625 0.734375 44.1875 -0.34375 
Q 39.109375 -1.421875 33.890625 -1.421875 
Q 20.796875 -1.421875 13.15625 6.1875 
Q 5.515625 13.8125 5.515625 26.8125 
Q 5.515625 40.234375 12.765625 48.109375 
Q 20.015625 56 32.328125 56 
Q 43.359375 56 49.78125 48.890625 
Q 56.203125 41.796875 56.203125 29.59375 
z
M 47.21875 32.234375 
Q 47.125 39.59375 43.09375 43.984375 
Q 39.0625 48.390625 32.421875 48.390625 
Q 24.90625 48.390625 20.390625 44.140625 
Q 15.875 39.890625 15.1875 32.171875 
z
" id="DejaVuSans-101"/>
       <path d="M 2.984375 54.6875 
L 12.5 54.6875 
L 29.59375 8.796875 
L 46.6875 54.6875 
L 56.203125 54.6875 
L 35.6875 0 
L 23.484375 0 
z
" id="DejaVuSans-118"/>
       <path d="M 34.28125 27.484375 
Q 23.390625 27.484375 19.1875 25 
Q 14.984375 22.515625 14.984375 16.5 
Q 14.984375 11.71875 18.140625 8.90625 
Q 21.296875 6.109375 26.703125 6.109375 
Q 34.1875 6.109375 38.703125 11.40625 
Q 43.21875 16.703125 43.21875 25.484375 
L 43.21875 27.484375 
z
M 52.203125 31.203125 
L 52.203125 0 
L 43.21875 0 
L 43.21875 8.296875 
Q 40.140625 3.328125 35.546875 0.953125 
Q 30.953125 -1.421875 24.3125 -1.421875 
Q 15.921875 -1.421875 10.953125 3.296875 
Q 6 8.015625 6 15.921875 
Q 6 25.140625 12.171875 29.828125 
Q 18.359375 34.515625 30.609375 34.515625 
L 43.21875 34.515625 
L 43.21875 35.40625 
Q 43.21875 41.609375 39.140625 45 
Q 35.0625 48.390625 27.6875 48.390625 
Q 23 48.390625 18.546875 47.265625 
Q 14.109375 46.140625 10.015625 43.890625 
L 10.015625 52.203125 
Q 14.9375 54.109375 19.578125 55.046875 
Q 24.21875 56 28.609375 56 
Q 40.484375 56 46.34375 49.84375 
Q 52.203125 43.703125 52.203125 31.203125 
z
" id="DejaVuSans-97"/>
       <path d="M 44.28125 53.078125 
L 44.28125 44.578125 
Q 40.484375 46.53125 36.375 47.5 
Q 32.28125 48.484375 27.875 48.484375 
Q 21.1875 48.484375 17.84375 46.4375 
Q 14.5 44.390625 14.5 40.28125 
Q 14.5 37.15625 16.890625 35.375 
Q 19.28125 33.59375 26.515625 31.984375 
L 29.59375 31.296875 
Q 39.15625 29.25 43.1875 25.515625 
Q 47.21875 21.78125 47.21875 15.09375 
Q 47.21875 7.46875 41.1875 3.015625 
Q 35.15625 -1.421875 24.609375 -1.421875 
Q 20.21875 -1.421875 15.453125 -0.5625 
Q 10.6875 0.296875 5.421875 2 
L 5.421875 11.28125 
Q 10.40625 8.6875 15.234375 7.390625 
Q 20.0625 6.109375 24.8125 6.109375 
Q 31.15625 6.109375 34.5625 8.28125 
Q 37.984375 10.453125 37.984375 14.40625 
Q 37.984375 18.0625 35.515625 20.015625 
Q 33.0625 21.96875 24.703125 23.78125 
L 21.578125 24.515625 
Q 13.234375 26.265625 9.515625 29.90625 
Q 5.8125 33.546875 5.8125 39.890625 
Q 5.8125 47.609375 11.28125 51.796875 
Q 16.75 56 26.8125 56 
Q 31.78125 56 36.171875 55.265625 
Q 40.578125 54.546875 44.28125 53.078125 
z
" id="DejaVuSans-115"/>
       <path d="M 25.390625 72.90625 
L 33.6875 72.90625 
L 8.296875 -9.28125 
L 0 -9.28125 
z
" id="DejaVuSans-47"/>
       <path d="M 45.40625 46.390625 
L 45.40625 75.984375 
L 54.390625 75.984375 
L 54.390625 0 
L 45.40625 0 
L 45.40625 8.203125 
Q 42.578125 3.328125 38.25 0.953125 
Q 33.9375 -1.421875 27.875 -1.421875 
Q 17.96875 -1.421875 11.734375 6.484375 
Q 5.515625 14.40625 5.515625 27.296875 
Q 5.515625 40.1875 11.734375 48.09375 
Q 17.96875 56 27.875 56 
Q 33.9375 56 38.25 53.625 
Q 42.578125 51.265625 45.40625 46.390625 
z
M 14.796875 27.296875 
Q 14.796875 17.390625 18.875 11.75 
Q 22.953125 6.109375 30.078125 6.109375 
Q 37.203125 6.109375 41.296875 11.75 
Q 45.40625 17.390625 45.40625 27.296875 
Q 45.40625 37.203125 41.296875 42.84375 
Q 37.203125 48.484375 30.078125 48.484375 
Q 22.953125 48.484375 18.875 42.84375 
Q 14.796875 37.203125 14.796875 27.296875 
z
" id="DejaVuSans-100"/>
       <path d="M 9.421875 54.6875 
L 18.40625 54.6875 
L 18.40625 0 
L 9.421875 0 
z
M 9.421875 75.984375 
L 18.40625 75.984375 
L 18.40625 64.59375 
L 9.421875 64.59375 
z
" id="DejaVuSans-105"/>
       <path d="M 52 44.1875 
Q 55.375 50.25 60.0625 53.125 
Q 64.75 56 71.09375 56 
Q 79.640625 56 84.28125 50.015625 
Q 88.921875 44.046875 88.921875 33.015625 
L 88.921875 0 
L 79.890625 0 
L 79.890625 32.71875 
Q 79.890625 40.578125 77.09375 44.375 
Q 74.3125 48.1875 68.609375 48.1875 
Q 61.625 48.1875 57.5625 43.546875 
Q 53.515625 38.921875 53.515625 30.90625 
L 53.515625 0 
L 44.484375 0 
L 44.484375 32.71875 
Q 44.484375 40.625 41.703125 44.40625 
Q 38.921875 48.1875 33.109375 48.1875 
Q 26.21875 48.1875 22.15625 43.53125 
Q 18.109375 38.875 18.109375 30.90625 
L 18.109375 0 
L 9.078125 0 
L 9.078125 54.6875 
L 18.109375 54.6875 
L 18.109375 46.1875 
Q 21.1875 51.21875 25.484375 53.609375 
Q 29.78125 56 35.6875 56 
Q 41.65625 56 45.828125 52.96875 
Q 50 49.953125 52 44.1875 
z
" id="DejaVuSans-109"/>
       <path d="M 54.890625 33.015625 
L 54.890625 0 
L 45.90625 0 
L 45.90625 32.71875 
Q 45.90625 40.484375 42.875 44.328125 
Q 39.84375 48.1875 33.796875 48.1875 
Q 26.515625 48.1875 22.3125 43.546875 
Q 18.109375 38.921875 18.109375 30.90625 
L 18.109375 0 
L 9.078125 0 
L 9.078125 54.6875 
L 18.109375 54.6875 
L 18.109375 46.1875 
Q 21.34375 51.125 25.703125 53.5625 
Q 30.078125 56 35.796875 56 
Q 45.21875 56 50.046875 50.171875 
Q 54.890625 44.34375 54.890625 33.015625 
z
" id="DejaVuSans-110"/>
      </defs>
      <use xlink:href="#DejaVuSans-108"/>
      <use x="27.783203" xlink:href="#DejaVuSans-111"/>
      <use x="88.964844" xlink:href="#DejaVuSans-103"/>
      <use x="152.441406" xlink:href="#DejaVuSans-49"/>
      <use x="216.064453" xlink:href="#DejaVuSans-48"/>
      <use x="279.6875" xlink:href="#DejaVuSans-40"/>
      <use x="318.701172" xlink:href="#DejaVuSans-35"/>
      <use x="402.490234" xlink:href="#DejaVuSans-32"/>
      <use x="434.277344" xlink:href="#DejaVuSans-40"/>
      <use x="473.291016" xlink:href="#DejaVuSans-102"/>
      <use x="508.496094" xlink:href="#DejaVuSans-43"/>
      <use x="592.285156" xlink:href="#DejaVuSans-103"/>
      <use x="655.761719" xlink:href="#DejaVuSans-41"/>
      <use x="694.775391" xlink:href="#DejaVuSans-45"/>
      <use x="730.859375" xlink:href="#DejaVuSans-101"/>
      <use x="792.382812" xlink:href="#DejaVuSans-118"/>
      <use x="851.5625" xlink:href="#DejaVuSans-97"/>
      <use x="912.841797" xlink:href="#DejaVuSans-108"/>
      <use x="940.625" xlink:href="#DejaVuSans-115"/>
      <use x="992.724609" xlink:href="#DejaVuSans-32"/>
      <use x="1024.511719" xlink:href="#DejaVuSans-47"/>
      <use x="1058.203125" xlink:href="#DejaVuSans-32"/>
      <use x="1089.990234" xlink:href="#DejaVuSans-100"/>
      <use x="1153.466797" xlink:href="#DejaVuSans-105"/>
      <use x="1181.25" xlink:href="#DejaVuSans-109"/>
      <use x="1278.662109" xlink:href="#DejaVuSans-101"/>
      <use x="1340.185547" xlink:href="#DejaVuSans-110"/>
      <use x="1403.564453" xlink:href="#DejaVuSans-115"/>
      <use x="1455.664062" xlink:href="#DejaVuSans-105"/>
      <use x="1483.447266" xlink:href="#DejaVuSans-111"/>
      <use x="1544.628906" xlink:href="#DejaVuSans-110"/>
      <use x="1608.007812" xlink:href="#DejaVuSans-41"/>
     </g>
    </g>
   </g>
   <g id="matplotlib.axis_2">
    <g id="ytick_1">
     <g id="line2d_17">
      <path clip-path="url(#pd8b9bb4df0)" d="M 57.6 298.944 
L 338.688 298.944 
" style="fill:none;stroke:#b0b0b0;stroke-linecap:square;stroke-width:0.8;"/>
     </g>
     <g id="line2d_18">
      <defs>
       <path d="M 0 0 
L -3.5 0 
" id="m639c5cf800" style="stroke:#000000;stroke-width:0.8;"/>
      </defs>
      <g>
       <use style="stroke:#000000;stroke-width:0.8;" x="57.6" xlink:href="#m639c5cf800" y="298.944"/>
      </g>
     </g>
     <g id="text_6">
      <!-- 0.0 -->
      <g transform="translate(25.155 305.02275)scale(0.16 -0.16)">
       <defs>
        <path d="M 10.6875 12.40625 
L 21 12.40625 
L 21 0 
L 10.6875 0 
z
" id="DejaVuSans-46"/>
       </defs>
       <use xlink:href="#DejaVuSans-48"/>
       <use x="63.623047" xlink:href="#DejaVuSans-46"/>
       <use x="95.410156" xlink:href="#DejaVuSans-48"/>
      </g>
     </g>
    </g>
    <g id="ytick_2">
     <g id="line2d_19">
      <path clip-path="url(#pd8b9bb4df0)" d="M 57.6 245.22202 
L 338.688 245.22202 
" style="fill:none;stroke:#b0b0b0;stroke-linecap:square;stroke-width:0.8;"/>
     </g>
     <g id="line2d_20">
      <g>
       <use style="stroke:#000000;stroke-width:0.8;" x="57.6" xlink:href="#m639c5cf800" y="245.22202"/>
      </g>
     </g>
     <g id="text_7">
      <!-- 0.2 -->
      <g transform="translate(25.155 251.30077)scale(0.16 -0.16)">
       <use xlink:href="#DejaVuSans-48"/>
       <use x="63.623047" xlink:href="#DejaVuSans-46"/>
       <use x="95.410156" xlink:href="#DejaVuSans-50"/>
      </g>
     </g>
    </g>
    <g id="ytick_3">
     <g id="line2d_21">
      <path clip-path="url(#pd8b9bb4df0)" d="M 57.6 191.50004 
L 338.688 191.50004 
" style="fill:none;stroke:#b0b0b0;stroke-linecap:square;stroke-width:0.8;"/>
     </g>
     <g id="line2d_22">
      <g>
       <use style="stroke:#000000;stroke-width:0.8;" x="57.6" xlink:href="#m639c5cf800" y="191.50004"/>
      </g>
     </g>
     <g id="text_8">
      <!-- 0.4 -->
      <g transform="translate(25.155 197.57879)scale(0.16 -0.16)">
       <use xlink:href="#DejaVuSans-48"/>
       <use x="63.623047" xlink:href="#DejaVuSans-46"/>
       <use x="95.410156" xlink:href="#DejaVuSans-52"/>
      </g>
     </g>
    </g>
    <g id="ytick_4">
     <g id="line2d_23">
      <path clip-path="url(#pd8b9bb4df0)" d="M 57.6 137.778059 
L 338.688 137.778059 
" style="fill:none;stroke:#b0b0b0;stroke-linecap:square;stroke-width:0.8;"/>
     </g>
     <g id="line2d_24">
      <g>
       <use style="stroke:#000000;stroke-width:0.8;" x="57.6" xlink:href="#m639c5cf800" y="137.778059"/>
      </g>
     </g>
     <g id="text_9">
      <!-- 0.6 -->
      <g transform="translate(25.155 143.856809)scale(0.16 -0.16)">
       <use xlink:href="#DejaVuSans-48"/>
       <use x="63.623047" xlink:href="#DejaVuSans-46"/>
       <use x="95.410156" xlink:href="#DejaVuSans-54"/>
      </g>
     </g>
    </g>
    <g id="ytick_5">
     <g id="line2d_25">
      <path clip-path="url(#pd8b9bb4df0)" d="M 57.6 84.056079 
L 338.688 84.056079 
" style="fill:none;stroke:#b0b0b0;stroke-linecap:square;stroke-width:0.8;"/>
     </g>
     <g id="line2d_26">
      <g>
       <use style="stroke:#000000;stroke-width:0.8;" x="57.6" xlink:href="#m639c5cf800" y="84.056079"/>
      </g>
     </g>
     <g id="text_10">
      <!-- 0.8 -->
      <g transform="translate(25.155 90.134829)scale(0.16 -0.16)">
       <defs>
        <path d="M 31.78125 34.625 
Q 24.75 34.625 20.71875 30.859375 
Q 16.703125 27.09375 16.703125 20.515625 
Q 16.703125 13.921875 20.71875 10.15625 
Q 24.75 6.390625 31.78125 6.390625 
Q 38.8125 6.390625 42.859375 10.171875 
Q 46.921875 13.96875 46.921875 20.515625 
Q 46.921875 27.09375 42.890625 30.859375 
Q 38.875 34.625 31.78125 34.625 
z
M 21.921875 38.8125 
Q 15.578125 40.375 12.03125 44.71875 
Q 8.5 49.078125 8.5 55.328125 
Q 8.5 64.0625 14.71875 69.140625 
Q 20.953125 74.21875 31.78125 74.21875 
Q 42.671875 74.21875 48.875 69.140625 
Q 55.078125 64.0625 55.078125 55.328125 
Q 55.078125 49.078125 51.53125 44.71875 
Q 48 40.375 41.703125 38.8125 
Q 48.828125 37.15625 52.796875 32.3125 
Q 56.78125 27.484375 56.78125 20.515625 
Q 56.78125 9.90625 50.3125 4.234375 
Q 43.84375 -1.421875 31.78125 -1.421875 
Q 19.734375 -1.421875 13.25 4.234375 
Q 6.78125 9.90625 6.78125 20.515625 
Q 6.78125 27.484375 10.78125 32.3125 
Q 14.796875 37.15625 21.921875 38.8125 
z
M 18.3125 54.390625 
Q 18.3125 48.734375 21.84375 45.5625 
Q 25.390625 42.390625 31.78125 42.390625 
Q 38.140625 42.390625 41.71875 45.5625 
Q 45.3125 48.734375 45.3125 54.390625 
Q 45.3125 60.0625 41.71875 63.234375 
Q 38.140625 66.40625 31.78125 66.40625 
Q 25.390625 66.40625 21.84375 63.234375 
Q 18.3125 60.0625 18.3125 54.390625 
z
" id="DejaVuSans-56"/>
       </defs>
       <use xlink:href="#DejaVuSans-48"/>
       <use x="63.623047" xlink:href="#DejaVuSans-46"/>
       <use x="95.410156" xlink:href="#DejaVuSans-56"/>
      </g>
     </g>
    </g>
    <g id="ytick_6">
     <g id="line2d_27">
      <path clip-path="url(#pd8b9bb4df0)" d="M 57.6 30.334099 
L 338.688 30.334099 
" style="fill:none;stroke:#b0b0b0;stroke-linecap:square;stroke-width:0.8;"/>
     </g>
     <g id="line2d_28">
      <g>
       <use style="stroke:#000000;stroke-width:0.8;" x="57.6" xlink:href="#m639c5cf800" y="30.334099"/>
      </g>
     </g>
     <g id="text_11">
      <!-- 1.0 -->
      <g transform="translate(25.155 36.412849)scale(0.16 -0.16)">
       <use xlink:href="#DejaVuSans-49"/>
       <use x="63.623047" xlink:href="#DejaVuSans-46"/>
       <use x="95.410156" xlink:href="#DejaVuSans-48"/>
      </g>
     </g>
    </g>
    <g id="text_12">
     <!-- Fraction of function,target pairs -->
     <g transform="translate(17.619531 297.681)rotate(-90)scale(0.17 -0.17)">
      <defs>
       <path d="M 9.8125 72.90625 
L 51.703125 72.90625 
L 51.703125 64.59375 
L 19.671875 64.59375 
L 19.671875 43.109375 
L 48.578125 43.109375 
L 48.578125 34.8125 
L 19.671875 34.8125 
L 19.671875 0 
L 9.8125 0 
z
" id="DejaVuSans-70"/>
       <path d="M 41.109375 46.296875 
Q 39.59375 47.171875 37.8125 47.578125 
Q 36.03125 48 33.890625 48 
Q 26.265625 48 22.1875 43.046875 
Q 18.109375 38.09375 18.109375 28.8125 
L 18.109375 0 
L 9.078125 0 
L 9.078125 54.6875 
L 18.109375 54.6875 
L 18.109375 46.1875 
Q 20.953125 51.171875 25.484375 53.578125 
Q 30.03125 56 36.53125 56 
Q 37.453125 56 38.578125 55.875 
Q 39.703125 55.765625 41.0625 55.515625 
z
" id="DejaVuSans-114"/>
       <path d="M 48.78125 52.59375 
L 48.78125 44.1875 
Q 44.96875 46.296875 41.140625 47.34375 
Q 37.3125 48.390625 33.40625 48.390625 
Q 24.65625 48.390625 19.8125 42.84375 
Q 14.984375 37.3125 14.984375 27.296875 
Q 14.984375 17.28125 19.8125 11.734375 
Q 24.65625 6.203125 33.40625 6.203125 
Q 37.3125 6.203125 41.140625 7.25 
Q 44.96875 8.296875 48.78125 10.40625 
L 48.78125 2.09375 
Q 45.015625 0.34375 40.984375 -0.53125 
Q 36.96875 -1.421875 32.421875 -1.421875 
Q 20.0625 -1.421875 12.78125 6.34375 
Q 5.515625 14.109375 5.515625 27.296875 
Q 5.515625 40.671875 12.859375 48.328125 
Q 20.21875 56 33.015625 56 
Q 37.15625 56 41.109375 55.140625 
Q 45.0625 54.296875 48.78125 52.59375 
z
" id="DejaVuSans-99"/>
       <path d="M 18.3125 70.21875 
L 18.3125 54.6875 
L 36.8125 54.6875 
L 36.8125 47.703125 
L 18.3125 47.703125 
L 18.3125 18.015625 
Q 18.3125 11.328125 20.140625 9.421875 
Q 21.96875 7.515625 27.59375 7.515625 
L 36.8125 7.515625 
L 36.8125 0 
L 27.59375 0 
Q 17.1875 0 13.234375 3.875 
Q 9.28125 7.765625 9.28125 18.015625 
L 9.28125 47.703125 
L 2.6875 47.703125 
L 2.6875 54.6875 
L 9.28125 54.6875 
L 9.28125 70.21875 
z
" id="DejaVuSans-116"/>
       <path d="M 8.5 21.578125 
L 8.5 54.6875 
L 17.484375 54.6875 
L 17.484375 21.921875 
Q 17.484375 14.15625 20.5 10.265625 
Q 23.53125 6.390625 29.59375 6.390625 
Q 36.859375 6.390625 41.078125 11.03125 
Q 45.3125 15.671875 45.3125 23.6875 
L 45.3125 54.6875 
L 54.296875 54.6875 
L 54.296875 0 
L 45.3125 0 
L 45.3125 8.40625 
Q 42.046875 3.421875 37.71875 1 
Q 33.40625 -1.421875 27.6875 -1.421875 
Q 18.265625 -1.421875 13.375 4.4375 
Q 8.5 10.296875 8.5 21.578125 
z
M 31.109375 56 
z
" id="DejaVuSans-117"/>
       <path d="M 11.71875 12.40625 
L 22.015625 12.40625 
L 22.015625 4 
L 14.015625 -11.625 
L 7.71875 -11.625 
L 11.71875 4 
z
" id="DejaVuSans-44"/>
       <path d="M 18.109375 8.203125 
L 18.109375 -20.796875 
L 9.078125 -20.796875 
L 9.078125 54.6875 
L 18.109375 54.6875 
L 18.109375 46.390625 
Q 20.953125 51.265625 25.265625 53.625 
Q 29.59375 56 35.59375 56 
Q 45.5625 56 51.78125 48.09375 
Q 58.015625 40.1875 58.015625 27.296875 
Q 58.015625 14.40625 51.78125 6.484375 
Q 45.5625 -1.421875 35.59375 -1.421875 
Q 29.59375 -1.421875 25.265625 0.953125 
Q 20.953125 3.328125 18.109375 8.203125 
z
M 48.6875 27.296875 
Q 48.6875 37.203125 44.609375 42.84375 
Q 40.53125 48.484375 33.40625 48.484375 
Q 26.265625 48.484375 22.1875 42.84375 
Q 18.109375 37.203125 18.109375 27.296875 
Q 18.109375 17.390625 22.1875 11.75 
Q 26.265625 6.109375 33.40625 6.109375 
Q 40.53125 6.109375 44.609375 11.75 
Q 48.6875 17.390625 48.6875 27.296875 
z
" id="DejaVuSans-112"/>
      </defs>
      <use xlink:href="#DejaVuSans-70"/>
      <use x="50.269531" xlink:href="#DejaVuSans-114"/>
      <use x="91.382812" xlink:href="#DejaVuSans-97"/>
      <use x="152.662109" xlink:href="#DejaVuSans-99"/>
      <use x="207.642578" xlink:href="#DejaVuSans-116"/>
      <use x="246.851562" xlink:href="#DejaVuSans-105"/>
      <use x="274.634766" xlink:href="#DejaVuSans-111"/>
      <use x="335.816406" xlink:href="#DejaVuSans-110"/>
      <use x="399.195312" xlink:href="#DejaVuSans-32"/>
      <use x="430.982422" xlink:href="#DejaVuSans-111"/>
      <use x="492.164062" xlink:href="#DejaVuSans-102"/>
      <use x="527.369141" xlink:href="#DejaVuSans-32"/>
      <use x="559.15625" xlink:href="#DejaVuSans-102"/>
      <use x="594.361328" xlink:href="#DejaVuSans-117"/>
      <use x="657.740234" xlink:href="#DejaVuSans-110"/>
      <use x="721.119141" xlink:href="#DejaVuSans-99"/>
      <use x="776.099609" xlink:href="#DejaVuSans-116"/>
      <use x="815.308594" xlink:href="#DejaVuSans-105"/>
      <use x="843.091797" xlink:href="#DejaVuSans-111"/>
      <use x="904.273438" xlink:href="#DejaVuSans-110"/>
      <use x="967.652344" xlink:href="#DejaVuSans-44"/>
      <use x="999.439453" xlink:href="#DejaVuSans-116"/>
      <use x="1038.648438" xlink:href="#DejaVuSans-97"/>
      <use x="1099.927734" xlink:href="#DejaVuSans-114"/>
      <use x="1139.291016" xlink:href="#DejaVuSans-103"/>
      <use x="1202.767578" xlink:href="#DejaVuSans-101"/>
      <use x="1264.291016" xlink:href="#DejaVuSans-116"/>
      <use x="1303.5" xlink:href="#DejaVuSans-32"/>
      <use x="1335.287109" xlink:href="#DejaVuSans-112"/>
      <use x="1398.763672" xlink:href="#DejaVuSans-97"/>
      <use x="1460.042969" xlink:href="#DejaVuSans-105"/>
      <use x="1487.826172" xlink:href="#DejaVuSans-114"/>
      <use x="1528.939453" xlink:href="#DejaVuSans-115"/>
     </g>
    </g>
   </g>
   <g id="line2d_29">
    <defs>
     <path d="M 0 1.5 
C 0.397805 1.5 0.77937 1.341951 1.06066 1.06066 
C 1.341951 0.77937 1.5 0.397805 1.5 0 
C 1.5 -0.397805 1.341951 -0.77937 1.06066 -1.06066 
C 0.77937 -1.341951 0.397805 -1.5 0 -1.5 
C -0.397805 -1.5 -0.77937 -1.341951 -1.06066 -1.06066 
C -1.341951 -0.77937 -1.5 -0.397805 -1.5 0 
C -1.5 0.397805 -1.341951 0.77937 -1.06066 1.06066 
C -0.77937 1.341951 -0.397805 1.5 0 1.5 
z
" id="m5960c29a6e" style="stroke:#000080;"/>
    </defs>
    <g>
     <use style="fill:#000080;stroke:#000080;" x="178.797156" xlink:href="#m5960c29a6e" y="30.334099"/>
     <use style="fill:#000080;stroke:#000080;" x="178.797156" xlink:href="#m5960c29a6e" y="30.334099"/>
    </g>
   </g>
   <g id="line2d_30">
    <path d="M 17.444571 298.944 
L 17.444571 296.323416 
L 41.620548 296.323416 
L 41.620548 295.013123 
L 72.867545 295.013123 
L 72.867545 294.357977 
L 86.351421 294.357977 
L 86.351421 292.392539 
L 91.535274 292.392539 
L 91.535274 291.737393 
L 92.969447 291.737393 
L 92.969447 290.427101 
L 98.100772 290.427101 
L 98.100772 289.771955 
L 99.097574 289.771955 
L 99.097574 289.116809 
L 100.641881 289.116809 
L 100.641881 288.461662 
L 104.826449 288.461662 
L 104.826449 287.806516 
L 105.51043 287.806516 
L 105.51043 287.15137 
L 105.732589 287.15137 
L 105.732589 285.841078 
L 106.382575 285.841078 
L 106.382575 284.530786 
L 107.213174 284.530786 
L 107.213174 283.87564 
L 107.811151 283.87564 
L 107.811151 282.565348 
L 108.577836 282.565348 
L 108.577836 281.255055 
L 109.31223 281.255055 
L 109.31223 280.599909 
L 109.843417 280.599909 
L 109.843417 279.944763 
L 110.016944 279.944763 
L 110.016944 279.289617 
L 111.023335 279.289617 
L 111.023335 277.979325 
L 111.185562 277.979325 
L 111.185562 277.324179 
L 111.346294 277.324179 
L 111.346294 276.013887 
L 111.663381 276.013887 
L 111.663381 275.35874 
L 111.819788 275.35874 
L 111.819788 273.393302 
L 111.974805 273.393302 
L 111.974805 272.738156 
L 112.128456 272.738156 
L 112.128456 272.08301 
L 112.431755 272.08301 
L 112.431755 271.427864 
L 112.877038 271.427864 
L 112.877038 270.772718 
L 113.311233 270.772718 
L 113.311233 270.117572 
L 113.873839 270.117572 
L 113.873839 269.462426 
L 114.148479 269.462426 
L 114.148479 268.807279 
L 115.077025 268.807279 
L 115.077025 266.841841 
L 115.33349 266.841841 
L 115.33349 266.186695 
L 115.460322 266.186695 
L 115.460322 264.876403 
L 116.081002 264.876403 
L 116.081002 263.566111 
L 116.323218 263.566111 
L 116.323218 262.910965 
L 116.562116 262.910965 
L 116.562116 262.255818 
L 117.145424 262.255818 
L 117.145424 260.945526 
L 117.709852 260.945526 
L 117.709852 260.29038 
L 118.256582 260.29038 
L 118.363901 258.980088 
L 119.702083 258.980088 
L 119.80089 257.669796 
L 120.093994 257.669796 
L 120.190611 256.359504 
L 120.47729 256.359504 
L 120.47729 255.704357 
L 120.665825 255.704357 
L 120.665825 255.049211 
L 121.756135 255.049211 
L 121.756135 253.738919 
L 122.018385 253.738919 
L 122.018385 253.083773 
L 122.699028 253.083773 
L 122.782271 249.808043 
L 123.593547 249.808043 
L 123.593547 249.152896 
L 123.985457 249.152896 
L 123.985457 248.49775 
L 124.444412 248.49775 
L 124.444412 247.842604 
L 125.752972 247.842604 
L 125.822869 246.532312 
L 125.961828 246.532312 
L 126.030894 245.22202 
L 126.573795 245.22202 
L 126.573795 244.566874 
L 126.904721 244.566874 
L 126.904721 243.911728 
L 127.035353 243.911728 
L 127.035353 243.256582 
L 127.48501 243.256582 
L 127.48501 242.601435 
L 127.674226 242.601435 
L 127.674226 241.946289 
L 127.985095 241.946289 
L 127.985095 241.291143 
L 128.168991 241.291143 
L 128.168991 240.635997 
L 128.411207 240.635997 
L 128.411207 239.980851 
L 128.650105 239.980851 
L 128.650105 239.325705 
L 128.827155 239.325705 
L 128.827155 238.670559 
L 129.630422 238.670559 
L 129.630422 237.360267 
L 130.073348 237.360267 
L 130.073348 236.049974 
L 131.236397 236.049974 
L 131.236397 235.394828 
L 131.790072 235.394828 
L 131.790072 234.084536 
L 132.278599 234.084536 
L 132.278599 233.42939 
L 132.70687 233.42939 
L 132.70687 232.774244 
L 132.986651 232.774244 
L 132.986651 232.119098 
L 133.352844 232.119098 
L 133.352844 231.463952 
L 134.192921 231.463952 
L 134.192921 230.808806 
L 134.321942 230.808806 
L 134.321942 230.15366 
L 134.787017 230.15366 
L 134.787017 228.843367 
L 134.994383 228.843367 
L 134.994383 228.188221 
L 135.117629 228.188221 
L 135.117629 227.533075 
L 135.240011 227.533075 
L 135.240011 226.877929 
L 135.839358 226.877929 
L 135.839358 226.222783 
L 136.112156 226.222783 
L 136.112156 224.912491 
L 136.380754 224.912491 
L 136.380754 224.257345 
L 136.942755 224.257345 
L 136.979586 222.947052 
L 137.307607 222.947052 
L 137.37967 220.981614 
L 137.735587 220.981614 
L 137.770782 219.016176 
L 138.221972 219.016176 
L 138.221972 218.36103 
L 138.392446 218.36103 
L 138.493936 216.395591 
L 138.69516 216.395591 
L 138.728473 215.085299 
L 139.220677 215.085299 
L 139.220677 213.775007 
L 139.477614 213.775007 
L 139.572998 212.464715 
L 139.604677 212.464715 
L 139.604677 211.809569 
L 140.103868 211.809569 
L 140.103868 211.154423 
L 140.589166 211.154423 
L 140.619053 209.188984 
L 140.79731 209.188984 
L 140.79731 208.533838 
L 140.915143 208.533838 
L 140.973763 206.5684 
L 141.090414 206.5684 
L 141.090414 205.913254 
L 141.235139 205.913254 
L 141.235139 205.258108 
L 141.549369 205.258108 
L 141.549369 204.602962 
L 141.858037 204.602962 
L 141.858037 203.292669 
L 142.351634 203.292669 
L 142.459451 201.327231 
L 142.673105 201.327231 
L 142.752555 199.361793 
L 143.040814 199.361793 
L 143.066785 198.051501 
L 143.170282 198.051501 
L 143.247504 196.741208 
L 143.298796 196.741208 
L 143.298796 196.086062 
L 143.502469 196.086062 
L 143.502469 195.430916 
L 143.976867 195.430916 
L 143.976867 194.77577 
L 144.148442 194.77577 
L 144.148442 194.120624 
L 144.414696 194.120624 
L 144.414696 193.465478 
L 144.77134 193.465478 
L 144.77134 192.810332 
L 145.372754 192.810332 
L 145.440832 190.844894 
L 145.531191 190.844894 
L 145.531191 190.189747 
L 145.688202 190.189747 
L 145.688202 189.534601 
L 146.40993 189.534601 
L 146.40993 188.879455 
L 146.644018 188.879455 
L 146.728368 187.569163 
L 146.77039 187.569163 
L 146.77039 186.914017 
L 146.937474 186.914017 
L 146.937474 186.258871 
L 147.102973 186.258871 
L 147.185137 184.948579 
L 147.327999 184.948579 
L 147.409112 182.98314 
L 147.769524 182.98314 
L 147.848613 181.017702 
L 148.200145 181.017702 
L 148.200145 179.70741 
L 148.449693 179.70741 
L 148.54473 177.741972 
L 148.620389 177.741972 
L 148.639252 175.121387 
L 149.030744 175.121387 
L 149.085961 173.811095 
L 149.232356 173.811095 
L 149.323233 172.500803 
L 149.521512 172.500803 
L 149.575199 170.535364 
L 149.699829 170.535364 
L 149.699829 169.880218 
L 149.823575 169.880218 
L 149.823575 169.225072 
L 150.531253 169.225072 
L 150.581924 167.91478 
L 150.649257 167.91478 
L 150.649257 167.259634 
L 150.766468 167.259634 
L 150.766468 166.604488 
L 151.1298 166.604488 
L 151.1298 165.949342 
L 151.308666 165.949342 
L 151.308666 163.983903 
L 151.850203 163.983903 
L 151.850203 163.328757 
L 151.975216 163.328757 
L 152.021866 160.708173 
L 152.237931 160.708173 
L 152.344968 158.742735 
L 152.39064 158.742735 
L 152.451351 157.432442 
L 152.840905 157.432442 
L 152.840905 156.777296 
L 152.973748 156.777296 
L 152.973748 156.12215 
L 153.105587 156.12215 
L 153.207444 154.811858 
L 153.250915 154.811858 
L 153.250915 154.156712 
L 153.438049 154.156712 
L 153.48095 152.84642 
L 153.792374 152.84642 
L 153.862384 151.536128 
L 153.946025 151.536128 
L 153.987696 150.225835 
L 154.098334 150.225835 
L 154.098334 148.915543 
L 154.249325 148.915543 
L 154.303908 146.950105 
L 154.480132 146.950105 
L 154.480132 146.294959 
L 154.747816 146.294959 
L 154.840544 143.674374 
L 154.866947 143.674374 
L 154.866947 143.019228 
L 155.245367 143.019228 
L 155.335493 139.743498 
L 155.55245 139.743498 
L 155.55245 139.088352 
L 155.754208 139.088352 
L 155.82927 137.778059 
L 155.966049 137.778059 
L 156.015522 135.157475 
L 156.101764 135.157475 
L 156.114049 133.847183 
L 156.345845 133.847183 
L 156.370066 131.226598 
L 156.502685 131.226598 
L 156.502685 130.571452 
L 156.788581 130.571452 
L 156.788581 129.916306 
L 157.034952 129.916306 
L 157.139484 128.606014 
L 157.231877 128.606014 
L 157.277891 127.295722 
L 157.358125 127.295722 
L 157.437991 124.675137 
L 157.60791 124.675137 
L 157.652944 123.364845 
L 157.798506 123.364845 
L 157.898572 122.054553 
L 158.086033 122.054553 
L 158.140788 120.744261 
L 158.271501 120.744261 
L 158.293192 119.433969 
L 158.497919 119.433969 
L 158.572743 118.123676 
L 158.636623 118.123676 
L 158.742573 115.503092 
L 158.847883 115.503092 
L 158.879352 114.1928 
L 159.17036 114.1928 
L 159.242359 112.227362 
L 159.354904 112.227362 
L 159.456591 109.606777 
L 159.547605 109.606777 
L 159.638147 106.331047 
L 160.074152 106.331047 
L 160.181471 103.710462 
L 160.191194 103.710462 
L 160.288133 102.40017 
L 160.413354 102.40017 
L 160.518612 99.779586 
L 160.537682 99.779586 
L 160.537682 99.12444 
L 160.708377 99.12444 
L 160.811875 97.159001 
L 161.017045 97.159001 
L 161.118732 95.193563 
L 161.420284 95.193563 
L 161.519653 93.228125 
L 161.627414 93.228125 
L 161.716709 89.952394 
L 161.7523 89.952394 
L 161.7523 89.297248 
L 161.911563 89.297248 
L 161.92917 87.986956 
L 162.034438 87.986956 
L 162.104265 86.676664 
L 162.29486 86.676664 
L 162.389382 85.366371 
L 162.610782 85.366371 
L 162.610782 84.711225 
L 162.762429 84.711225 
L 162.854457 82.090641 
L 163.037069 82.090641 
L 163.070067 80.125203 
L 163.217788 80.125203 
L 163.315579 78.81491 
L 163.388564 78.81491 
L 163.388564 78.159764 
L 163.557683 78.159764 
L 163.66156 76.194326 
L 163.669525 76.194326 
L 163.669525 75.53918 
L 163.788565 75.53918 
L 163.867476 73.573742 
L 163.922502 73.573742 
L 164.01643 68.987719 
L 164.109855 68.987719 
L 164.109855 68.332573 
L 164.264459 68.332573 
L 164.364222 65.711988 
L 164.516598 65.711988 
L 164.584735 63.091404 
L 164.645079 63.091404 
L 164.75018 61.781112 
L 164.951104 61.781112 
L 164.951104 60.47082 
L 165.193576 60.47082 
L 165.295432 57.850235 
L 165.490206 57.850235 
L 165.490206 57.195089 
L 165.803027 57.195089 
L 165.887376 55.229651 
L 165.957358 55.229651 
L 166.040966 53.264213 
L 166.316801 53.264213 
L 166.364626 51.298774 
L 166.473452 51.298774 
L 166.561376 48.67819 
L 166.928532 48.67819 
L 166.928532 48.023044 
L 167.073257 48.023044 
L 167.073257 47.367898 
L 167.525915 47.367898 
L 167.525915 46.712752 
L 167.691097 46.712752 
L 167.779397 45.402459 
L 168.208177 45.402459 
L 168.208177 44.747313 
L 168.391365 44.747313 
L 168.391365 44.092167 
L 168.632659 44.092167 
L 168.632659 43.437021 
L 168.929657 43.437021 
L 168.982583 42.126729 
L 169.537359 42.126729 
L 169.537359 41.471583 
L 170.063995 41.471583 
L 170.14658 40.161291 
L 170.305145 40.161291 
L 170.305145 39.506144 
L 170.81471 39.506144 
L 170.81471 38.850998 
L 171.108254 38.850998 
L 171.108254 38.195852 
L 171.325215 38.195852 
L 171.325215 37.540706 
L 171.716099 37.540706 
L 171.716099 36.88556 
L 172.029522 36.88556 
L 172.029522 36.230414 
L 173.558028 36.230414 
L 173.558028 35.575268 
L 175.170413 35.575268 
L 175.170413 34.920122 
L 176.053603 34.920122 
L 176.053603 34.264976 
L 176.729302 34.264976 
L 176.729302 33.60983 
L 177.339841 33.60983 
L 177.339841 32.954683 
L 177.696161 32.954683 
L 177.696161 31.644391 
L 178.006891 31.644391 
L 178.006891 30.989245 
L 178.797156 30.989245 
L 178.797156 30.334099 
L 338.688 30.334099 
L 338.688 30.334099 
" style="fill:none;stroke:#000080;stroke-linecap:square;stroke-width:1.5;"/>
   </g>
   <g id="line2d_31">
    <defs>
     <path d="M 0 6 
C 1.591219 6 3.117479 5.367802 4.242641 4.242641 
C 5.367802 3.117479 6 1.591219 6 0 
C 6 -1.591219 5.367802 -3.117479 4.242641 -4.242641 
C 3.117479 -5.367802 1.591219 -6 0 -6 
C -1.591219 -6 -3.117479 -5.367802 -4.242641 -4.242641 
C -5.367802 -3.117479 -6 -1.591219 -6 0 
C -6 1.591219 -5.367802 3.117479 -4.242641 4.242641 
C -3.117479 5.367802 -1.591219 6 0 6 
z
" id="mf981ec1f8c" style="stroke:#000080;stroke-width:1.5;"/>
    </defs>
    <g>
     <use style="fill-opacity:0;stroke:#000080;stroke-width:1.5;" x="72.867545" xlink:href="#mf981ec1f8c" y="294.357977"/>
     <use style="fill-opacity:0;stroke:#000080;stroke-width:1.5;" x="146.77039" xlink:href="#mf981ec1f8c" y="187.569163"/>
     <use style="fill-opacity:0;stroke:#000080;stroke-width:1.5;" x="163.867476" xlink:href="#mf981ec1f8c" y="73.573742"/>
     <use style="fill-opacity:0;stroke:#000080;stroke-width:1.5;" x="178.797156" xlink:href="#mf981ec1f8c" y="30.989245"/>
     <use style="fill-opacity:0;stroke:#000080;stroke-width:1.5;" x="178.797156" xlink:href="#mf981ec1f8c" y="30.334099"/>
     <use style="fill-opacity:0;stroke:#000080;stroke-width:1.5;" x="338.688" xlink:href="#mf981ec1f8c" y="30.334099"/>
    </g>
   </g>
   <g id="line2d_32">
    <path style="fill:none;stroke:#000080;stroke-linecap:square;stroke-width:1.5;"/>
    <g/>
   </g>
   <g id="line2d_33">
    <defs>
     <path d="M 0 1.5 
C 0.397805 1.5 0.77937 1.341951 1.06066 1.06066 
C 1.341951 0.77937 1.5 0.397805 1.5 0 
C 1.5 -0.397805 1.341951 -0.77937 1.06066 -1.06066 
C 0.77937 -1.341951 0.397805 -1.5 0 -1.5 
C -0.397805 -1.5 -0.77937 -1.341951 -1.06066 -1.06066 
C -1.341951 -0.77937 -1.5 -0.397805 -1.5 0 
C -1.5 0.397805 -1.341951 0.77937 -1.06066 1.06066 
C -0.77937 1.341951 -0.397805 1.5 0 1.5 
z
" id="m1fea0816b3" style="stroke:#ff00ff;"/>
    </defs>
    <g>
     <use style="fill:#ff00ff;stroke:#ff00ff;" x="176.317781" xlink:href="#m1fea0816b3" y="30.334099"/>
     <use style="fill:#ff00ff;stroke:#ff00ff;" x="176.317781" xlink:href="#m1fea0816b3" y="30.334099"/>
    </g>
   </g>
   <g id="line2d_34">
    <path d="M 17.444571 298.944 
L 17.444571 295.013123 
L 75.555822 295.013123 
L 75.555822 294.357977 
L 87.009585 294.357977 
L 87.009585 293.702831 
L 95.918017 293.702831 
L 95.918017 293.047685 
L 96.676366 293.047685 
L 96.676366 291.082247 
L 97.403108 291.082247 
L 97.403108 289.771955 
L 100.934985 289.771955 
L 100.934985 289.116809 
L 101.223245 289.116809 
L 101.223245 288.461662 
L 101.785851 288.461662 
L 101.785851 287.15137 
L 103.117741 287.15137 
L 103.117741 285.841078 
L 103.623262 285.841078 
L 103.623262 285.185932 
L 105.057436 285.185932 
L 105.057436 284.530786 
L 105.951954 284.530786 
L 105.951954 283.87564 
L 107.009204 283.87564 
L 107.009204 283.220494 
L 108.198707 283.220494 
L 108.198707 282.565348 
L 108.764355 282.565348 
L 108.764355 281.910201 
L 109.31223 281.910201 
L 109.31223 281.255055 
L 110.016944 281.255055 
L 110.016944 279.944763 
L 110.188761 279.944763 
L 110.188761 279.289617 
L 111.185562 279.289617 
L 111.185562 278.634471 
L 111.663381 278.634471 
L 111.663381 277.324179 
L 112.72987 277.324179 
L 112.72987 276.669033 
L 113.311233 276.669033 
L 113.311233 276.013887 
L 113.453595 276.013887 
L 113.453595 274.048448 
L 113.594805 274.048448 
L 113.594805 273.393302 
L 114.148479 273.393302 
L 114.148479 272.738156 
L 115.205729 272.738156 
L 115.205729 271.427864 
L 116.081002 271.427864 
L 116.081002 270.117572 
L 116.443076 270.117572 
L 116.443076 267.496987 
L 116.562116 267.496987 
L 116.562116 266.186695 
L 116.797786 266.186695 
L 116.797786 265.531549 
L 116.914437 265.531549 
L 116.914437 264.876403 
L 117.259781 264.876403 
L 117.259781 264.221257 
L 117.486268 264.221257 
L 117.486268 263.566111 
L 118.148599 263.566111 
L 118.256582 262.255818 
L 118.363901 262.255818 
L 118.363901 261.600672 
L 118.576578 261.600672 
L 118.576578 260.945526 
L 118.786692 260.945526 
L 118.786692 260.29038 
L 119.097192 260.29038 
L 119.097192 259.635234 
L 119.702083 259.635234 
L 119.702083 258.980088 
L 119.996839 258.980088 
L 119.996839 257.669796 
L 121.667835 257.669796 
L 121.667835 257.01465 
L 122.531342 257.01465 
L 122.531342 256.359504 
L 122.699028 256.359504 
L 122.782271 253.738919 
L 123.593547 253.738919 
L 123.593547 251.773481 
L 123.829748 251.773481 
L 123.829748 251.118335 
L 124.292765 251.118335 
L 124.292765 250.463189 
L 124.444412 250.463189 
L 124.444412 249.808043 
L 124.594752 249.808043 
L 124.594752 249.152896 
L 125.255688 249.152896 
L 125.255688 247.842604 
L 125.612332 247.842604 
L 125.612332 247.187458 
L 125.892487 247.187458 
L 125.892487 246.532312 
L 126.236468 246.532312 
L 126.236468 245.877166 
L 127.48501 245.877166 
L 127.48501 245.22202 
L 127.674226 245.22202 
L 127.674226 244.566874 
L 128.046609 244.566874 
L 128.046609 243.256582 
L 128.168991 243.256582 
L 128.168991 240.635997 
L 128.944197 240.635997 
L 128.944197 239.980851 
L 129.175952 239.980851 
L 129.175952 239.325705 
L 129.742212 239.325705 
L 129.742212 238.670559 
L 129.963666 238.670559 
L 130.073348 236.705121 
L 130.290663 236.705121 
L 130.290663 236.049974 
L 131.082294 236.049974 
L 131.082294 235.394828 
L 131.236397 235.394828 
L 131.236397 234.739682 
L 131.790072 234.739682 
L 131.790072 234.084536 
L 131.938072 234.084536 
L 132.036046 232.119098 
L 132.133473 232.119098 
L 132.133473 231.463952 
L 132.422528 231.463952 
L 132.422528 230.15366 
L 132.847322 230.15366 
L 132.847322 229.498513 
L 133.352844 229.498513 
L 133.352844 228.188221 
L 133.844123 228.188221 
L 133.844123 227.533075 
L 134.019394 227.533075 
L 134.019394 226.877929 
L 134.321942 226.877929 
L 134.407429 224.912491 
L 135.321124 224.912491 
L 135.321124 224.257345 
L 135.641855 224.257345 
L 135.641855 223.602199 
L 136.073445 223.602199 
L 136.112156 222.291906 
L 136.5324 222.291906 
L 136.5324 221.63676 
L 136.942755 221.63676 
L 136.942755 220.981614 
L 137.235245 220.981614 
L 137.343676 219.016176 
L 137.84096 219.016176 
L 137.84096 218.36103 
L 137.980475 218.36103 
L 137.980475 217.705884 
L 138.290362 217.705884 
L 138.290362 217.050738 
L 138.493936 217.050738 
L 138.493936 215.740445 
L 138.828032 215.740445 
L 138.828032 215.085299 
L 139.02546 215.085299 
L 139.02546 214.430153 
L 139.220677 214.430153 
L 139.220677 213.775007 
L 139.349619 213.775007 
L 139.413734 211.809569 
L 139.572998 211.809569 
L 139.667863 209.84413 
L 139.824833 209.84413 
L 139.918342 207.878692 
L 140.256979 207.878692 
L 140.256979 207.223546 
L 140.438956 207.223546 
L 140.438956 206.5684 
L 141.46423 206.5684 
L 141.46423 205.913254 
L 141.80232 205.913254 
L 141.858037 203.292669 
L 142.161336 203.292669 
L 142.161336 202.637523 
L 142.432559 202.637523 
L 142.432559 201.982377 
L 142.673105 201.982377 
L 142.673105 201.327231 
L 143.040814 201.327231 
L 143.040814 200.672085 
L 143.247504 200.672085 
L 143.298796 199.361793 
L 143.502469 199.361793 
L 143.502469 198.706647 
L 143.87806 198.706647 
L 143.87806 198.051501 
L 144.148442 198.051501 
L 144.148442 197.396355 
L 144.676946 197.396355 
L 144.676946 196.741208 
L 144.93531 196.741208 
L 144.981877 195.430916 
L 145.143889 195.430916 
L 145.143889 194.77577 
L 145.304409 194.77577 
L 145.304409 193.465478 
L 145.440832 193.465478 
L 145.440832 192.810332 
L 145.688202 192.810332 
L 145.688202 192.155186 
L 145.821666 192.155186 
L 145.888018 190.844894 
L 146.172658 190.844894 
L 146.172658 189.534601 
L 146.367029 189.534601 
L 146.367029 188.879455 
L 146.644018 188.879455 
L 146.686244 186.914017 
L 146.77039 186.914017 
L 146.77039 186.258871 
L 147.226074 186.258871 
L 147.226074 185.603725 
L 147.828875 185.603725 
L 147.828875 184.293433 
L 148.005725 184.293433 
L 148.103206 182.98314 
L 148.142046 182.98314 
L 148.142046 182.327994 
L 148.411533 182.327994 
L 148.411533 181.017702 
L 148.620389 181.017702 
L 148.620389 180.362556 
L 148.882639 180.362556 
L 148.882639 179.70741 
L 149.012299 179.70741 
L 149.030744 178.397118 
L 149.341352 178.397118 
L 149.431665 176.431679 
L 149.628721 176.431679 
L 149.628721 175.776533 
L 149.823575 175.776533 
L 149.876341 173.811095 
L 150.016276 173.811095 
L 150.051085 172.500803 
L 150.206871 172.500803 
L 150.206871 171.190511 
L 150.73306 171.190511 
L 150.73306 170.535364 
L 150.932558 170.535364 
L 150.965587 168.569926 
L 151.1298 168.569926 
L 151.1298 167.91478 
L 151.308666 167.91478 
L 151.405461 165.949342 
L 151.660987 165.949342 
L 151.676833 164.63905 
L 151.834513 164.63905 
L 151.881541 162.673611 
L 152.542024 162.673611 
L 152.542024 162.018465 
L 152.692105 162.018465 
L 152.781537 159.397881 
L 153.003132 159.397881 
L 153.003132 158.742735 
L 153.163864 158.742735 
L 153.207444 157.432442 
L 153.323128 157.432442 
L 153.323128 156.777296 
L 153.48095 156.777296 
L 153.48095 156.12215 
L 153.792374 156.12215 
L 153.792374 155.467004 
L 154.098334 155.467004 
L 154.098334 154.811858 
L 154.249325 154.811858 
L 154.358321 152.84642 
L 154.587699 152.84642 
L 154.694607 151.536128 
L 154.787617 151.536128 
L 154.787617 150.880981 
L 155.128803 150.880981 
L 155.154773 148.915543 
L 155.729115 148.915543 
L 155.729115 148.260397 
L 155.879132 148.260397 
L 155.916435 146.950105 
L 156.052535 146.950105 
L 156.052535 146.294959 
L 156.212023 146.294959 
L 156.236431 144.984667 
L 156.357959 144.984667 
L 156.382164 143.674374 
L 156.574599 143.674374 
L 156.574599 143.019228 
L 156.729404 143.019228 
L 156.729404 142.364082 
L 156.894595 142.364082 
L 156.894595 141.708936 
L 157.15106 141.708936 
L 157.231877 139.743498 
L 157.277891 139.743498 
L 157.277891 139.088352 
L 157.415209 139.088352 
L 157.426604 137.778059 
L 157.709073 137.778059 
L 157.709073 137.122913 
L 157.898572 137.122913 
L 157.898572 136.467767 
L 158.140788 136.467767 
L 158.228039 134.502329 
L 158.260646 134.502329 
L 158.314856 133.192037 
L 158.379686 133.192037 
L 158.476481 130.571452 
L 158.497919 130.571452 
L 158.497919 129.916306 
L 158.732007 129.916306 
L 158.732007 129.26116 
L 158.910765 129.26116 
L 158.962994 127.295722 
L 159.190962 127.295722 
L 159.242359 125.98543 
L 159.303838 125.98543 
L 159.354904 124.675137 
L 159.415988 124.675137 
L 159.415988 124.019991 
L 159.62811 124.019991 
L 159.738201 121.399407 
L 159.857512 121.399407 
L 159.857512 120.089115 
L 160.074152 120.089115 
L 160.181471 118.123676 
L 160.268789 118.123676 
L 160.297798 116.158238 
L 160.499521 116.158238 
L 160.604262 114.1928 
L 160.689494 114.1928 
L 160.708377 112.882508 
L 160.811875 112.882508 
L 160.811875 112.227362 
L 160.942717 112.227362 
L 160.942717 111.572215 
L 161.118732 111.572215 
L 161.192316 108.951631 
L 161.320345 108.951631 
L 161.420284 106.331047 
L 161.483584 106.331047 
L 161.519653 105.020754 
L 161.618459 105.020754 
L 161.654251 103.710462 
L 161.96433 103.710462 
L 161.96433 103.055316 
L 162.104265 103.055316 
L 162.199823 101.745024 
L 162.260361 101.745024 
L 162.320689 99.12444 
L 162.38081 99.12444 
L 162.491916 97.814147 
L 162.576903 97.814147 
L 162.576903 97.159001 
L 162.80432 97.159001 
L 162.90445 93.228125 
L 162.9543 93.228125 
L 162.9543 92.572979 
L 163.127663 92.572979 
L 163.217788 89.952394 
L 163.404741 89.952394 
L 163.485404 87.33181 
L 163.66156 87.33181 
L 163.7569 85.366371 
L 164.055418 85.366371 
L 164.070989 84.056079 
L 164.264459 84.056079 
L 164.264459 83.400933 
L 164.417705 83.400933 
L 164.524182 81.435495 
L 164.614933 81.435495 
L 164.614933 80.780349 
L 164.765143 80.780349 
L 164.79503 76.849472 
L 164.91407 76.849472 
L 164.91407 76.194326 
L 165.317182 76.194326 
L 165.338904 73.573742 
L 165.432722 73.573742 
L 165.432722 72.918596 
L 165.561796 72.918596 
L 165.647318 69.642865 
L 165.697012 69.642865 
L 165.697012 68.332573 
L 165.992243 68.332573 
L 166.061806 66.367135 
L 166.227632 66.367135 
L 166.337313 65.056842 
L 166.398707 65.056842 
L 166.487008 63.091404 
L 166.561376 63.091404 
L 166.561376 62.436258 
L 166.888852 62.436258 
L 166.948338 60.47082 
L 167.171249 60.47082 
L 167.223287 57.850235 
L 167.417059 57.850235 
L 167.417059 57.195089 
L 167.848464 57.195089 
L 167.860992 55.229651 
L 168.054037 55.229651 
L 168.054037 53.919359 
L 168.269454 53.919359 
L 168.269454 53.264213 
L 168.52449 53.264213 
L 168.536542 50.643628 
L 168.656606 50.643628 
L 168.656606 49.988482 
L 168.935546 49.988482 
L 168.982583 48.67819 
L 169.111287 48.67819 
L 169.111287 48.023044 
L 169.678981 48.023044 
L 169.740933 46.057605 
L 169.858596 46.057605 
L 169.858596 45.402459 
L 169.98656 45.402459 
L 169.98656 44.747313 
L 170.168537 44.747313 
L 170.168537 44.092167 
L 170.489231 44.092167 
L 170.489231 43.437021 
L 170.687376 43.437021 
L 170.756464 42.126729 
L 170.819995 42.126729 
L 170.819995 41.471583 
L 170.9621 41.471583 
L 170.9621 40.816437 
L 171.27895 40.816437 
L 171.27895 40.161291 
L 172.639959 40.161291 
L 172.744386 38.850998 
L 173.155951 38.850998 
L 173.155951 38.195852 
L 173.503742 38.195852 
L 173.503742 37.540706 
L 173.688525 37.540706 
L 173.688525 36.88556 
L 174.083025 36.88556 
L 174.083025 36.230414 
L 174.296472 36.230414 
L 174.296472 35.575268 
L 174.888124 35.575268 
L 174.896492 33.60983 
L 175.079583 33.60983 
L 175.079583 32.954683 
L 175.781387 32.954683 
L 175.793311 30.989245 
L 176.317781 30.989245 
L 176.317781 30.334099 
L 338.688 30.334099 
L 338.688 30.334099 
" style="fill:none;stroke:#ff00ff;stroke-linecap:square;stroke-width:1.5;"/>
   </g>
   <g id="line2d_35">
    <defs>
     <path d="M -0 8.485281 
L 5.091169 0 
L 0 -8.485281 
L -5.091169 -0 
z
" id="mf7941ab699" style="stroke:#ff00ff;stroke-linejoin:miter;stroke-width:1.5;"/>
    </defs>
    <g>
     <use style="fill-opacity:0;stroke:#ff00ff;stroke-linejoin:miter;stroke-width:1.5;" x="121.667835" xlink:href="#mf7941ab699" y="257.669796"/>
     <use style="fill-opacity:0;stroke:#ff00ff;stroke-linejoin:miter;stroke-width:1.5;" x="159.678237" xlink:href="#mf7941ab699" y="122.709699"/>
     <use style="fill-opacity:0;stroke:#ff00ff;stroke-linejoin:miter;stroke-width:1.5;" x="176.317781" xlink:href="#mf7941ab699" y="30.989245"/>
     <use style="fill-opacity:0;stroke:#ff00ff;stroke-linejoin:miter;stroke-width:1.5;" x="176.317781" xlink:href="#mf7941ab699" y="30.334099"/>
     <use style="fill-opacity:0;stroke:#ff00ff;stroke-linejoin:miter;stroke-width:1.5;" x="176.317781" xlink:href="#mf7941ab699" y="30.334099"/>
     <use style="fill-opacity:0;stroke:#ff00ff;stroke-linejoin:miter;stroke-width:1.5;" x="338.688" xlink:href="#mf7941ab699" y="30.334099"/>
    </g>
   </g>
   <g id="line2d_36">
    <path style="fill:none;stroke:#ff00ff;stroke-linecap:square;stroke-width:1.5;"/>
    <g/>
   </g>
   <g id="line2d_37">
    <defs>
     <path d="M 0 1.5 
C 0.397805 1.5 0.77937 1.341951 1.06066 1.06066 
C 1.341951 0.77937 1.5 0.397805 1.5 0 
C 1.5 -0.397805 1.341951 -0.77937 1.06066 -1.06066 
C 0.77937 -1.341951 0.397805 -1.5 0 -1.5 
C -0.397805 -1.5 -0.77937 -1.341951 -1.06066 -1.06066 
C -1.341951 -0.77937 -1.5 -0.397805 -1.5 0 
C -1.5 0.397805 -1.341951 0.77937 -1.06066 1.06066 
C -0.77937 1.341951 -0.397805 1.5 0 1.5 
z
" id="m597d8a5b7f" style="stroke:#ff7500;"/>
    </defs>
    <g>
     <use style="fill:#ff7500;stroke:#ff7500;" x="199.337122" xlink:href="#m597d8a5b7f" y="30.334099"/>
     <use style="fill:#ff7500;stroke:#ff7500;" x="199.337122" xlink:href="#m597d8a5b7f" y="30.334099"/>
    </g>
   </g>
   <g id="line2d_38">
    <path d="M 17.444571 298.944 
L 17.444571 296.323416 
L 63.467834 296.323416 
L 63.467834 295.66827 
L 92.026554 295.66827 
L 92.026554 293.702831 
L 95.918017 293.702831 
L 95.918017 292.392539 
L 96.301313 292.392539 
L 96.301313 290.427101 
L 98.43941 290.427101 
L 98.43941 289.771955 
L 100.343767 289.771955 
L 100.343767 288.461662 
L 100.641881 288.461662 
L 100.641881 287.15137 
L 102.859376 287.15137 
L 102.859376 286.496224 
L 103.623262 286.496224 
L 103.623262 285.185932 
L 104.114542 285.185932 
L 104.114542 284.530786 
L 104.826449 284.530786 
L 104.826449 283.87564 
L 105.732589 283.87564 
L 105.732589 283.220494 
L 107.213174 283.220494 
L 107.213174 281.910201 
L 107.811151 281.910201 
L 107.811151 280.599909 
L 108.006005 280.599909 
L 108.006005 279.289617 
L 108.198707 279.289617 
L 108.198707 277.979325 
L 109.843417 277.979325 
L 109.843417 275.35874 
L 110.016944 275.35874 
L 110.016944 274.703594 
L 110.694282 274.703594 
L 110.694282 274.048448 
L 111.663381 274.048448 
L 111.663381 273.393302 
L 112.431755 273.393302 
L 112.431755 272.08301 
L 113.453595 272.08301 
L 113.453595 271.427864 
L 113.73488 271.427864 
L 113.73488 270.772718 
L 114.0117 270.772718 
L 114.0117 270.117572 
L 114.418861 270.117572 
L 114.418861 269.462426 
L 114.552496 269.462426 
L 114.552496 268.807279 
L 114.685115 268.807279 
L 114.685115 267.496987 
L 115.33349 267.496987 
L 115.33349 266.186695 
L 115.835374 266.186695 
L 115.835374 265.531549 
L 116.323218 265.531549 
L 116.323218 264.876403 
L 116.443076 264.876403 
L 116.443076 263.566111 
L 117.145424 263.566111 
L 117.145424 262.910965 
L 117.373392 262.910965 
L 117.373392 262.255818 
L 118.256582 262.255818 
L 118.256582 261.600672 
L 118.470564 261.600672 
L 118.576578 258.980088 
L 118.681952 258.980088 
L 118.681952 258.324942 
L 118.994305 258.324942 
L 118.994305 257.01465 
L 119.199476 257.01465 
L 119.199476 256.359504 
L 119.602714 256.359504 
L 119.602714 255.704357 
L 120.382253 255.704357 
L 120.382253 255.049211 
L 121.756135 255.049211 
L 121.756135 254.394065 
L 121.931406 254.394065 
L 121.931406 253.738919 
L 122.531342 253.738919 
L 122.531342 253.083773 
L 122.699028 253.083773 
L 122.699028 251.773481 
L 123.593547 251.773481 
L 123.593547 251.118335 
L 124.062793 251.118335 
L 124.062793 250.463189 
L 124.444412 250.463189 
L 124.444412 249.808043 
L 124.965026 249.808043 
L 124.965026 249.152896 
L 125.255688 249.152896 
L 125.255688 248.49775 
L 126.030894 248.49775 
L 126.030894 246.532312 
L 126.168212 246.532312 
L 126.168212 245.877166 
L 126.50685 245.877166 
L 126.50685 245.22202 
L 127.165014 245.22202 
L 127.165014 244.566874 
L 128.107907 244.566874 
L 128.168991 242.601435 
L 128.827155 242.601435 
L 128.827155 240.635997 
L 129.175952 240.635997 
L 129.175952 239.980851 
L 129.347769 239.980851 
L 129.404667 238.670559 
L 129.46138 238.670559 
L 129.46138 238.015413 
L 129.630422 238.015413 
L 129.630422 237.360267 
L 130.073348 237.360267 
L 130.073348 236.049974 
L 130.558552 236.049974 
L 130.664567 234.739682 
L 131.490249 234.739682 
L 131.490249 234.084536 
L 131.790072 234.084536 
L 131.790072 233.42939 
L 132.374684 233.42939 
L 132.374684 232.774244 
L 132.612604 232.774244 
L 132.612604 232.119098 
L 132.80063 232.119098 
L 132.893889 230.808806 
L 133.124876 230.808806 
L 133.124876 230.15366 
L 133.352844 230.15366 
L 133.352844 228.843367 
L 134.321942 228.843367 
L 134.321942 228.188221 
L 135.240011 228.188221 
L 135.240011 227.533075 
L 135.44209 227.533075 
L 135.44209 226.222783 
L 135.681535 226.222783 
L 135.760625 224.912491 
L 136.112156 224.912491 
L 136.112156 224.257345 
L 136.456742 224.257345 
L 136.5324 222.947052 
L 136.942755 222.947052 
L 137.053015 220.326468 
L 137.126135 220.326468 
L 137.126135 219.671322 
L 137.343676 219.671322 
L 137.415591 217.705884 
L 138.118883 217.705884 
L 138.118883 216.395591 
L 138.324456 216.395591 
L 138.324456 215.740445 
L 138.493936 215.740445 
L 138.493936 215.085299 
L 138.861092 215.085299 
L 138.959898 213.119861 
L 139.220677 213.119861 
L 139.220677 211.809569 
L 139.572998 211.809569 
L 139.572998 210.499277 
L 139.69937 210.499277 
L 139.69937 209.84413 
L 140.589166 209.84413 
L 140.589166 209.188984 
L 140.79731 209.188984 
L 140.79731 208.533838 
L 140.915143 208.533838 
L 140.915143 206.5684 
L 141.407239 206.5684 
L 141.407239 205.913254 
L 141.549369 205.913254 
L 141.634094 204.602962 
L 141.858037 204.602962 
L 141.913576 203.292669 
L 142.161336 203.292669 
L 142.161336 201.982377 
L 142.351634 201.982377 
L 142.459451 199.361793 
L 142.566605 199.361793 
L 142.566605 198.706647 
L 142.752555 198.706647 
L 142.752555 198.051501 
L 142.988757 198.051501 
L 143.040814 196.086062 
L 143.324386 196.086062 
L 143.375453 194.77577 
L 143.60342 194.77577 
L 143.60342 194.120624 
L 143.87806 194.120624 
L 143.87806 193.465478 
L 144.148442 193.465478 
L 144.245733 190.844894 
L 144.414696 190.844894 
L 144.414696 190.189747 
L 144.818346 190.189747 
L 144.818346 188.879455 
L 144.958609 188.879455 
L 144.958609 188.224309 
L 145.097753 188.224309 
L 145.189903 186.258871 
L 145.688202 186.258871 
L 145.688202 185.603725 
L 145.932112 185.603725 
L 145.998045 183.638286 
L 146.259313 183.638286 
L 146.280909 182.327994 
L 146.40993 182.327994 
L 146.452726 180.362556 
L 146.644018 180.362556 
L 146.644018 179.70741 
L 146.999721 179.70741 
L 147.102973 178.397118 
L 147.48985 178.397118 
L 147.48985 177.741972 
L 147.809113 177.741972 
L 147.809113 177.086825 
L 147.986163 177.086825 
L 147.986163 176.431679 
L 148.122637 176.431679 
L 148.219468 175.121387 
L 148.658095 175.121387 
L 148.658095 174.466241 
L 148.826773 174.466241 
L 148.826773 173.811095 
L 149.085961 173.811095 
L 149.177602 171.845657 
L 149.431665 171.845657 
L 149.449671 170.535364 
L 149.841182 170.535364 
L 149.841182 169.225072 
L 150.016276 169.225072 
L 150.016276 168.569926 
L 150.463462 168.569926 
L 150.49739 167.259634 
L 150.581924 167.259634 
L 150.581924 166.604488 
L 150.94908 166.604488 
L 150.965587 165.294196 
L 151.1298 165.294196 
L 151.227591 163.328757 
L 151.549655 163.328757 
L 151.61336 162.018465 
L 151.660987 162.018465 
L 151.660987 161.363319 
L 152.00633 161.363319 
L 152.114793 160.053027 
L 152.344968 160.053027 
L 152.344968 159.397881 
L 152.572143 159.397881 
L 152.572143 158.742735 
L 152.766663 158.742735 
L 152.870513 156.777296 
L 153.003132 156.777296 
L 153.003132 156.12215 
L 153.120174 156.12215 
L 153.163864 154.156712 
L 153.395042 154.156712 
L 153.395042 152.84642 
L 153.509492 152.84642 
L 153.509492 152.191274 
L 153.623196 152.191274 
L 153.623196 151.536128 
L 153.890309 151.536128 
L 153.890309 150.880981 
L 154.029268 150.880981 
L 154.112115 146.950105 
L 154.344733 146.950105 
L 154.344733 145.639813 
L 154.587699 145.639813 
L 154.587699 144.984667 
L 154.985269 144.984667 
L 154.985269 144.32952 
L 155.271165 144.32952 
L 155.335493 143.019228 
L 155.386785 143.019228 
L 155.450689 141.05379 
L 155.55245 141.05379 
L 155.628383 139.088352 
L 155.691409 139.088352 
L 155.766741 136.467767 
L 155.82927 136.467767 
L 155.904009 134.502329 
L 155.966049 134.502329 
L 155.966049 133.192037 
L 156.101764 133.192037 
L 156.150854 131.881745 
L 156.236431 131.881745 
L 156.236431 131.226598 
L 156.370066 131.226598 
L 156.418408 129.916306 
L 156.502685 129.916306 
L 156.502685 129.26116 
L 156.634302 129.26116 
L 156.741256 127.295722 
L 156.894595 127.295722 
L 156.894595 125.330284 
L 157.011638 125.330284 
L 157.023299 124.019991 
L 157.174189 124.019991 
L 157.277891 122.709699 
L 157.528821 122.709699 
L 157.528821 120.089115 
L 157.652944 120.089115 
L 157.652944 118.123676 
L 157.765022 118.123676 
L 157.765022 117.46853 
L 157.976006 117.46853 
L 157.976006 116.813384 
L 158.390468 116.813384 
L 158.476481 114.847946 
L 158.615355 114.847946 
L 158.615355 114.1928 
L 158.732007 114.1928 
L 158.732007 113.537654 
L 158.847883 113.537654 
L 158.879352 111.572215 
L 158.983842 111.572215 
L 158.983842 110.261923 
L 159.129083 110.261923 
L 159.129083 108.951631 
L 159.303838 108.951631 
L 159.405822 106.331047 
L 159.415988 106.331047 
L 159.497101 103.710462 
L 159.638147 103.710462 
L 159.638147 102.40017 
L 159.857512 102.40017 
L 159.857512 101.745024 
L 160.074152 101.745024 
L 160.074152 101.089878 
L 160.288133 101.089878 
L 160.288133 100.434732 
L 160.442124 100.434732 
L 160.537682 96.503855 
L 160.604262 96.503855 
L 160.604262 95.848709 
L 160.717812 95.848709 
L 160.717812 95.193563 
L 160.858717 95.193563 
L 160.952025 93.228125 
L 161.017045 93.228125 
L 161.035578 89.952394 
L 161.320345 89.952394 
L 161.420284 86.021518 
L 161.618459 86.021518 
L 161.618459 85.366371 
L 161.911563 85.366371 
L 162.00818 83.400933 
L 162.078112 83.400933 
L 162.147765 81.435495 
L 162.234442 81.435495 
L 162.234442 80.780349 
L 162.483394 80.780349 
L 162.576903 77.504618 
L 162.661478 77.504618 
L 162.661478 76.194326 
L 163.037069 76.194326 
L 163.127663 74.884034 
L 163.185069 74.884034 
L 163.2749 71.608303 
L 163.388564 71.608303 
L 163.404741 69.642865 
L 163.573705 69.642865 
L 163.637643 66.367135 
L 163.77274 66.367135 
L 163.780654 64.401696 
L 163.946031 64.401696 
L 163.977355 63.091404 
L 164.070989 63.091404 
L 164.086545 61.125966 
L 164.264459 61.125966 
L 164.264459 59.815674 
L 164.432956 59.815674 
L 164.516598 57.850235 
L 164.554485 57.850235 
L 164.599841 55.229651 
L 164.780093 55.229651 
L 164.780093 54.574505 
L 164.928893 54.574505 
L 165.010195 53.264213 
L 165.266391 53.264213 
L 165.338904 51.298774 
L 165.389484 51.298774 
L 165.490206 49.988482 
L 165.647318 49.988482 
L 165.682828 48.023044 
L 165.795979 48.023044 
L 165.803027 44.747313 
L 166.110335 44.747313 
L 166.186323 43.437021 
L 166.928532 43.437021 
L 166.96153 41.471583 
L 167.079807 41.471583 
L 167.079807 40.816437 
L 167.359153 40.816437 
L 167.359153 40.161291 
L 167.557803 40.161291 
L 167.557803 39.506144 
L 167.710056 39.506144 
L 167.710056 38.850998 
L 167.873511 38.850998 
L 167.873511 38.195852 
L 168.103511 38.195852 
L 168.103511 36.88556 
L 168.964959 36.88556 
L 168.964959 36.230414 
L 173.105034 36.230414 
L 173.105034 35.575268 
L 174.391462 35.575268 
L 174.391462 34.920122 
L 175.693692 34.920122 
L 175.693692 34.264976 
L 179.15797 34.264976 
L 179.15797 33.60983 
L 180.067552 33.60983 
L 180.067552 32.954683 
L 181.935412 32.954683 
L 181.935412 32.299537 
L 182.272975 32.299537 
L 182.272975 31.644391 
L 195.771179 31.644391 
L 195.771179 30.989245 
L 199.337122 30.989245 
L 199.337122 30.334099 
L 338.688 30.334099 
L 338.688 30.334099 
" style="fill:none;stroke:#ff7500;stroke-linecap:square;stroke-width:1.5;"/>
   </g>
   <g id="line2d_39">
    <defs>
     <path d="M 0 -6 
L -1.347084 -1.854102 
L -5.706339 -1.854102 
L -2.179628 0.708204 
L -3.526712 4.854102 
L -0 2.291796 
L 3.526712 4.854102 
L 2.179628 0.708204 
L 5.706339 -1.854102 
L 1.347084 -1.854102 
z
" id="md725238d9c" style="stroke:#ff7500;stroke-linejoin:bevel;stroke-width:1.5;"/>
    </defs>
    <g>
     <use style="fill-opacity:0;stroke:#ff7500;stroke-linejoin:bevel;stroke-width:1.5;" x="116.443076" xlink:href="#md725238d9c" y="263.566111"/>
     <use style="fill-opacity:0;stroke:#ff7500;stroke-linejoin:bevel;stroke-width:1.5;" x="154.587699" xlink:href="#md725238d9c" y="145.639813"/>
     <use style="fill-opacity:0;stroke:#ff7500;stroke-linejoin:bevel;stroke-width:1.5;" x="199.337122" xlink:href="#md725238d9c" y="30.989245"/>
     <use style="fill-opacity:0;stroke:#ff7500;stroke-linejoin:bevel;stroke-width:1.5;" x="199.337122" xlink:href="#md725238d9c" y="30.334099"/>
     <use style="fill-opacity:0;stroke:#ff7500;stroke-linejoin:bevel;stroke-width:1.5;" x="199.337122" xlink:href="#md725238d9c" y="30.334099"/>
     <use style="fill-opacity:0;stroke:#ff7500;stroke-linejoin:bevel;stroke-width:1.5;" x="338.688" xlink:href="#md725238d9c" y="30.334099"/>
    </g>
   </g>
   <g id="line2d_40">
    <path style="fill:none;stroke:#ff7500;stroke-linecap:square;stroke-width:1.5;"/>
    <g/>
   </g>
   <g id="line2d_41">
    <defs>
     <path d="M 0 1.5 
C 0.397805 1.5 0.77937 1.341951 1.06066 1.06066 
C 1.341951 0.77937 1.5 0.397805 1.5 0 
C 1.5 -0.397805 1.341951 -0.77937 1.06066 -1.06066 
C 0.77937 -1.341951 0.397805 -1.5 0 -1.5 
C -0.397805 -1.5 -0.77937 -1.341951 -1.06066 -1.06066 
C -1.341951 -0.77937 -1.5 -0.397805 -1.5 0 
C -1.5 0.397805 -1.341951 0.77937 -1.06066 1.06066 
C -0.77937 1.341951 -0.397805 1.5 0 1.5 
z
" id="m8bc6940d76" style="stroke:#6495ed;"/>
    </defs>
    <g>
     <use style="fill:#6495ed;stroke:#6495ed;" x="184.347719" xlink:href="#m8bc6940d76" y="30.334099"/>
     <use style="fill:#6495ed;stroke:#6495ed;" x="184.347719" xlink:href="#m8bc6940d76" y="30.334099"/>
    </g>
   </g>
   <g id="line2d_42">
    <path d="M 17.444571 298.944 
L 17.444571 295.66827 
L 29.53256 295.66827 
L 29.53256 295.013123 
L 96.676366 295.013123 
L 96.676366 294.357977 
L 98.771596 294.357977 
L 98.771596 292.392539 
L 100.040467 292.392539 
L 100.040467 290.427101 
L 100.343767 290.427101 
L 100.343767 289.771955 
L 102.060491 289.771955 
L 102.060491 288.461662 
L 104.114542 288.461662 
L 104.114542 287.806516 
L 104.826449 287.806516 
L 104.826449 287.15137 
L 105.732589 287.15137 
L 105.732589 285.841078 
L 106.168594 285.841078 
L 106.168594 285.185932 
L 106.802819 285.185932 
L 106.802819 283.220494 
L 107.009204 283.220494 
L 107.009204 282.565348 
L 107.811151 282.565348 
L 107.811151 281.910201 
L 108.006005 281.910201 
L 108.006005 281.255055 
L 108.948899 281.255055 
L 108.948899 280.599909 
L 109.131511 280.599909 
L 109.131511 276.669033 
L 109.843417 276.669033 
L 109.843417 276.013887 
L 110.358901 276.013887 
L 110.358901 275.35874 
L 111.663381 275.35874 
L 111.663381 274.703594 
L 111.974805 274.703594 
L 111.974805 274.048448 
L 112.280765 274.048448 
L 112.280765 273.393302 
L 113.022974 273.393302 
L 113.022974 272.738156 
L 113.167699 272.738156 
L 113.167699 272.08301 
L 113.311233 272.08301 
L 113.311233 271.427864 
L 113.453595 271.427864 
L 113.453595 268.152133 
L 113.594805 268.152133 
L 113.594805 267.496987 
L 113.73488 267.496987 
L 113.73488 266.186695 
L 113.873839 266.186695 
L 113.873839 265.531549 
L 115.205729 265.531549 
L 115.205729 264.876403 
L 115.33349 264.876403 
L 115.33349 264.221257 
L 116.202531 264.221257 
L 116.202531 263.566111 
L 116.443076 263.566111 
L 116.443076 262.910965 
L 116.914437 262.910965 
L 116.914437 261.600672 
L 117.373392 261.600672 
L 117.373392 260.945526 
L 117.820578 260.945526 
L 117.820578 260.29038 
L 118.470564 260.29038 
L 118.470564 259.635234 
L 118.681952 259.635234 
L 118.681952 258.980088 
L 119.097192 258.980088 
L 119.199476 257.01465 
L 119.40226 257.01465 
L 119.40226 256.359504 
L 119.702083 256.359504 
L 119.702083 255.704357 
L 120.571812 255.704357 
L 120.571812 255.049211 
L 121.036887 255.049211 
L 121.036887 254.394065 
L 121.489881 254.394065 
L 121.489881 253.738919 
L 121.756135 253.738919 
L 121.756135 253.083773 
L 122.191052 253.083773 
L 122.191052 252.428627 
L 122.699028 252.428627 
L 122.699028 251.773481 
L 122.865118 251.773481 
L 122.865118 251.118335 
L 123.514096 251.118335 
L 123.593547 249.808043 
L 123.985457 249.808043 
L 123.985457 248.49775 
L 124.965026 248.49775 
L 124.965026 247.842604 
L 125.399222 247.842604 
L 125.399222 247.187458 
L 126.030894 247.187458 
L 126.030894 245.877166 
L 126.236468 245.877166 
L 126.236468 245.22202 
L 126.439646 245.22202 
L 126.439646 244.566874 
L 127.293718 244.566874 
L 127.293718 243.256582 
L 127.48501 243.256582 
L 127.48501 241.946289 
L 127.799239 241.946289 
L 127.799239 241.291143 
L 128.471239 241.291143 
L 128.531065 239.980851 
L 128.827155 239.980851 
L 128.885774 238.670559 
L 129.46138 238.670559 
L 129.46138 238.015413 
L 130.073348 238.015413 
L 130.073348 237.360267 
L 130.61164 237.360267 
L 130.717333 234.739682 
L 131.236397 234.739682 
L 131.287464 233.42939 
L 131.389151 233.42939 
L 131.389151 232.774244 
L 131.839545 232.774244 
L 131.839545 232.119098 
L 132.036046 232.119098 
L 132.036046 231.463952 
L 132.230358 231.463952 
L 132.230358 230.808806 
L 132.470242 230.808806 
L 132.470242 230.15366 
L 132.847322 230.15366 
L 132.847322 229.498513 
L 133.398082 229.498513 
L 133.398082 228.843367 
L 133.844123 228.843367 
L 133.931979 227.533075 
L 134.787017 227.533075 
L 134.787017 226.222783 
L 135.117629 226.222783 
L 135.117629 225.567637 
L 135.681535 225.567637 
L 135.681535 224.912491 
L 136.112156 224.912491 
L 136.150782 223.602199 
L 136.342635 223.602199 
L 136.342635 222.947052 
L 136.570107 222.947052 
L 136.570107 221.63676 
L 136.86886 221.63676 
L 136.979586 219.016176 
L 138.728473 219.016176 
L 138.794909 217.705884 
L 138.861092 217.705884 
L 138.861092 217.050738 
L 139.220677 217.050738 
L 139.220677 216.395591 
L 139.349619 216.395591 
L 139.349619 215.740445 
L 139.541262 215.740445 
L 139.572998 213.119861 
L 139.918342 213.119861 
L 139.918342 212.464715 
L 140.073083 212.464715 
L 140.073083 211.809569 
L 140.287441 211.809569 
L 140.287441 211.154423 
L 140.469102 211.154423 
L 140.469102 210.499277 
L 140.589166 210.499277 
L 140.619053 207.878692 
L 141.148448 207.878692 
L 141.148448 207.223546 
L 141.263941 207.223546 
L 141.350061 205.913254 
L 141.492656 205.913254 
L 141.549369 203.947816 
L 141.634094 203.947816 
L 141.634094 203.292669 
L 141.885829 203.292669 
L 141.913576 201.982377 
L 142.161336 201.982377 
L 142.161336 200.016939 
L 142.646541 200.016939 
L 142.646541 199.361793 
L 142.988757 199.361793 
L 142.988757 198.706647 
L 143.324386 198.706647 
L 143.324386 198.051501 
L 143.451774 198.051501 
L 143.451774 196.741208 
L 143.60342 196.741208 
L 143.60342 196.086062 
L 143.87806 196.086062 
L 143.952218 194.120624 
L 144.197155 194.120624 
L 144.269971 192.810332 
L 144.438701 192.810332 
L 144.438701 192.155186 
L 144.676946 192.155186 
L 144.676946 191.50004 
L 144.794859 191.50004 
L 144.794859 190.844894 
L 144.93531 190.844894 
L 144.93531 189.534601 
L 145.189903 189.534601 
L 145.235796 188.224309 
L 145.440832 188.224309 
L 145.440832 187.569163 
L 145.688202 187.569163 
L 145.732804 185.603725 
L 146.40993 185.603725 
L 146.452726 183.638286 
L 146.875005 183.638286 
L 146.875005 182.98314 
L 146.999721 182.98314 
L 147.102973 181.672848 
L 147.246507 181.672848 
L 147.348313 179.052264 
L 147.530079 179.052264 
L 147.550159 177.086825 
L 147.946974 177.086825 
L 148.005725 175.776533 
L 148.161434 175.776533 
L 148.161434 175.121387 
L 148.48777 175.121387 
L 148.48777 174.466241 
L 148.620389 174.466241 
L 148.714503 171.845657 
L 148.826773 171.845657 
L 148.826773 170.535364 
L 148.993835 170.535364 
L 149.085961 169.225072 
L 149.141003 169.225072 
L 149.141003 168.569926 
L 149.431665 168.569926 
L 149.503579 167.259634 
L 149.593058 167.259634 
L 149.593058 166.604488 
L 150.206871 166.604488 
L 150.206871 165.949342 
L 150.395406 165.949342 
L 150.395406 165.294196 
L 150.766468 165.294196 
L 150.833094 163.328757 
L 150.94908 163.328757 
L 150.94908 162.673611 
L 151.308666 162.673611 
L 151.308666 161.363319 
L 151.501723 161.363319 
L 151.597455 160.053027 
L 151.724287 160.053027 
L 151.834513 158.742735 
L 151.881541 158.742735 
L 151.959639 156.777296 
L 152.145659 156.777296 
L 152.145659 156.12215 
L 152.344968 156.12215 
L 152.344968 155.467004 
L 152.466496 155.467004 
L 152.466496 154.811858 
L 152.677155 154.811858 
L 152.677155 154.156712 
L 153.003132 154.156712 
L 153.003132 153.501566 
L 153.163864 153.501566 
L 153.192929 152.191274 
L 153.537988 152.191274 
L 153.59484 150.880981 
L 153.693887 150.880981 
L 153.792374 149.570689 
L 153.806399 149.570689 
L 153.806399 148.915543 
L 153.959927 148.915543 
L 153.959927 148.260397 
L 154.249325 148.260397 
L 154.249325 147.605251 
L 154.453136 147.605251 
L 154.453136 146.950105 
L 154.694607 146.950105 
L 154.694607 145.639813 
L 154.866947 145.639813 
L 154.959044 143.674374 
L 155.128803 143.674374 
L 155.128803 143.019228 
L 155.322646 143.019228 
L 155.322646 142.364082 
L 155.450689 142.364082 
L 155.450689 141.708936 
L 155.729115 141.708936 
L 155.729115 141.05379 
L 155.94126 141.05379 
L 156.027868 139.743498 
L 156.370066 139.743498 
L 156.394253 137.778059 
L 156.622378 137.778059 
L 156.622378 137.122913 
L 156.800392 137.122913 
L 156.906335 135.157475 
L 157.093102 135.157475 
L 157.162628 133.192037 
L 157.208825 133.192037 
L 157.208825 132.536891 
L 157.528821 132.536891 
L 157.630442 129.26116 
L 157.652944 129.26116 
L 157.652944 128.606014 
L 157.77619 128.606014 
L 157.77619 127.295722 
L 158.140788 127.295722 
L 158.140788 126.640576 
L 158.260646 126.640576 
L 158.260646 125.98543 
L 158.583406 125.98543 
L 158.625992 123.364845 
L 158.732007 123.364845 
L 158.732007 122.709699 
L 158.942121 122.709699 
L 159.035853 120.744261 
L 159.07735 120.744261 
L 159.07735 120.089115 
L 159.190962 120.089115 
L 159.201253 118.123676 
L 159.303838 118.123676 
L 159.405822 116.158238 
L 159.527421 116.158238 
L 159.638147 113.537654 
L 159.758143 113.537654 
L 159.857512 112.227362 
L 159.966168 112.227362 
L 160.074152 110.261923 
L 160.093714 110.261923 
L 160.200913 108.296485 
L 160.288133 108.296485 
L 160.288133 107.641339 
L 160.442124 107.641339 
L 160.537682 105.675901 
L 160.698938 105.675901 
L 160.708377 104.365608 
L 160.811875 104.365608 
L 160.811875 103.710462 
L 161.238149 103.710462 
L 161.320345 100.434732 
L 161.411222 100.434732 
L 161.519653 96.503855 
L 161.716709 96.503855 
L 161.716709 94.538417 
L 161.911563 94.538417 
L 162.00818 93.228125 
L 162.034438 93.228125 
L 162.034438 92.572979 
L 162.173813 92.572979 
L 162.268992 90.60754 
L 162.363654 90.60754 
L 162.449267 87.986956 
L 162.483394 87.986956 
L 162.576903 86.021518 
L 162.669913 86.021518 
L 162.762429 84.711225 
L 162.862799 84.711225 
L 162.946002 82.090641 
L 163.045324 82.090641 
L 163.152289 78.81491 
L 163.201437 78.81491 
L 163.201437 78.159764 
L 163.404741 78.159764 
L 163.404741 77.504618 
L 163.589711 77.504618 
L 163.66156 75.53918 
L 163.812276 75.53918 
L 163.914652 72.918596 
L 163.969529 72.918596 
L 164.047627 69.642865 
L 164.272154 69.642865 
L 164.348911 67.677427 
L 164.417705 67.677427 
L 164.432956 66.367135 
L 164.53934 66.367135 
L 164.599841 64.401696 
L 164.682688 64.401696 
L 164.712717 62.436258 
L 164.84721 62.436258 
L 164.84721 61.781112 
L 165.09112 61.781112 
L 165.09112 61.125966 
L 165.251852 61.125966 
L 165.302685 59.815674 
L 165.375047 59.815674 
L 165.375047 59.160527 
L 165.561796 59.160527 
L 165.611735 57.195089 
L 165.718267 57.195089 
L 165.718267 56.539943 
L 165.831189 56.539943 
L 165.929399 53.919359 
L 166.054862 53.919359 
L 166.165632 52.609066 
L 166.186323 52.609066 
L 166.24138 51.298774 
L 166.371448 51.298774 
L 166.405516 49.988482 
L 166.487008 49.988482 
L 166.507321 48.023044 
L 166.635428 48.023044 
L 166.635428 47.367898 
L 166.749257 47.367898 
L 166.782596 46.057605 
L 167.099442 46.057605 
L 167.099442 44.747313 
L 167.500363 44.747313 
L 167.595991 42.126729 
L 167.710056 42.126729 
L 167.710056 41.471583 
L 167.917258 41.471583 
L 167.917258 40.816437 
L 168.122027 40.816437 
L 168.122027 39.506144 
L 168.917874 39.506144 
L 168.917874 38.850998 
L 169.029495 38.850998 
L 169.105458 37.540706 
L 169.53167 37.540706 
L 169.53167 36.88556 
L 169.673338 36.88556 
L 169.673338 36.230414 
L 170.217839 36.230414 
L 170.217839 35.575268 
L 171.222237 35.575268 
L 171.222237 34.920122 
L 172.42921 34.920122 
L 172.42921 34.264976 
L 177.020586 34.264976 
L 177.020586 33.60983 
L 177.813334 33.60983 
L 177.813334 32.954683 
L 179.886249 32.954683 
L 179.886249 32.299537 
L 180.654624 32.299537 
L 180.654624 31.644391 
L 183.591965 31.644391 
L 183.591965 30.989245 
L 184.347719 30.989245 
L 184.347719 30.334099 
L 338.688 30.334099 
L 338.688 30.334099 
" style="fill:none;stroke:#6495ed;stroke-linecap:square;stroke-width:1.5;"/>
   </g>
   <g id="line2d_43">
    <defs>
     <path d="M -0 6 
L 6 -6 
L -6 -6 
z
" id="mdd8ce27f5e" style="stroke:#6495ed;stroke-linejoin:miter;stroke-width:1.5;"/>
    </defs>
    <g>
     <use style="fill-opacity:0;stroke:#6495ed;stroke-linejoin:miter;stroke-width:1.5;" x="130.61164" xlink:href="#mdd8ce27f5e" y="237.360267"/>
     <use style="fill-opacity:0;stroke:#6495ed;stroke-linejoin:miter;stroke-width:1.5;" x="160.811875" xlink:href="#mdd8ce27f5e" y="103.710462"/>
     <use style="fill-opacity:0;stroke:#6495ed;stroke-linejoin:miter;stroke-width:1.5;" x="184.347719" xlink:href="#mdd8ce27f5e" y="30.989245"/>
     <use style="fill-opacity:0;stroke:#6495ed;stroke-linejoin:miter;stroke-width:1.5;" x="184.347719" xlink:href="#mdd8ce27f5e" y="30.334099"/>
     <use style="fill-opacity:0;stroke:#6495ed;stroke-linejoin:miter;stroke-width:1.5;" x="184.347719" xlink:href="#mdd8ce27f5e" y="30.334099"/>
     <use style="fill-opacity:0;stroke:#6495ed;stroke-linejoin:miter;stroke-width:1.5;" x="338.688" xlink:href="#mdd8ce27f5e" y="30.334099"/>
    </g>
   </g>
   <g id="line2d_44">
    <path style="fill:none;stroke:#6495ed;stroke-linecap:square;stroke-width:1.5;"/>
    <g/>
   </g>
   <g id="line2d_45">
    <path d="M 338.688 30.334099 
L 369.60768 293.571802 
" style="fill:none;stroke:#ff7500;stroke-linecap:square;stroke-width:1.5;"/>
    <g>
     <use style="fill-opacity:0;stroke:#ff7500;stroke-linejoin:bevel;stroke-width:1.5;" x="338.688" xlink:href="#md725238d9c" y="30.334099"/>
     <use style="fill-opacity:0;stroke:#ff7500;stroke-linejoin:bevel;stroke-width:1.5;" x="369.60768" xlink:href="#md725238d9c" y="293.571802"/>
    </g>
   </g>
   <g id="line2d_46">
    <path d="M 338.688 30.334099 
L 369.60768 207.616634 
" style="fill:none;stroke:#6495ed;stroke-linecap:square;stroke-width:1.5;"/>
    <g>
     <use style="fill-opacity:0;stroke:#6495ed;stroke-linejoin:miter;stroke-width:1.5;" x="338.688" xlink:href="#mdd8ce27f5e" y="30.334099"/>
     <use style="fill-opacity:0;stroke:#6495ed;stroke-linejoin:miter;stroke-width:1.5;" x="369.60768" xlink:href="#mdd8ce27f5e" y="207.616634"/>
    </g>
   </g>
   <g id="line2d_47">
    <path d="M 338.688 30.334099 
L 369.60768 121.661465 
" style="fill:none;stroke:#000080;stroke-linecap:square;stroke-width:1.5;"/>
    <g>
     <use style="fill-opacity:0;stroke:#000080;stroke-width:1.5;" x="338.688" xlink:href="#mf981ec1f8c" y="30.334099"/>
     <use style="fill-opacity:0;stroke:#000080;stroke-width:1.5;" x="369.60768" xlink:href="#mf981ec1f8c" y="121.661465"/>
    </g>
   </g>
   <g id="line2d_48">
    <path d="M 338.688 30.334099 
L 369.60768 35.706297 
" style="fill:none;stroke:#ff00ff;stroke-linecap:square;stroke-width:1.5;"/>
    <g>
     <use style="fill-opacity:0;stroke:#ff00ff;stroke-linejoin:miter;stroke-width:1.5;" x="338.688" xlink:href="#mf7941ab699" y="30.334099"/>
     <use style="fill-opacity:0;stroke:#ff00ff;stroke-linejoin:miter;stroke-width:1.5;" x="369.60768" xlink:href="#mf7941ab699" y="35.706297"/>
    </g>
   </g>
   <g id="line2d_49">
    <path d="M 338.688 298.944 
L 338.688 30.334099 
" style="fill:none;stroke:#000000;stroke-linecap:square;stroke-width:1.5;"/>
   </g>
   <g id="patch_3">
    <path d="M 57.6 298.944 
L 57.6 27.648 
" style="fill:none;stroke:#000000;stroke-linecap:square;stroke-linejoin:miter;stroke-width:0.8;"/>
   </g>
   <g id="patch_4">
    <path d="M 338.688 298.944 
L 338.688 27.648 
" style="fill:none;stroke:#000000;stroke-linecap:square;stroke-linejoin:miter;stroke-width:0.8;"/>
   </g>
   <g id="patch_5">
    <path d="M 57.6 298.944 
L 338.688 298.944 
" style="fill:none;stroke:#000000;stroke-linecap:square;stroke-linejoin:miter;stroke-width:0.8;"/>
   </g>
   <g id="patch_6">
    <path d="M 57.6 27.648 
L 338.688 27.648 
" style="fill:none;stroke:#000000;stroke-linecap:square;stroke-linejoin:miter;stroke-width:0.8;"/>
   </g>
   <g id="text_13">
    <!-- alN5 -->
    <g transform="translate(375.22944 298.262739)scale(0.17 -0.17)">
     <defs>
      <path d="M 9.8125 72.90625 
L 23.09375 72.90625 
L 55.421875 11.921875 
L 55.421875 72.90625 
L 64.984375 72.90625 
L 64.984375 0 
L 51.703125 0 
L 19.390625 60.984375 
L 19.390625 0 
L 9.8125 0 
z
" id="DejaVuSans-78"/>
      <path d="M 10.796875 72.90625 
L 49.515625 72.90625 
L 49.515625 64.59375 
L 19.828125 64.59375 
L 19.828125 46.734375 
Q 21.96875 47.46875 24.109375 47.828125 
Q 26.265625 48.1875 28.421875 48.1875 
Q 40.625 48.1875 47.75 41.5 
Q 54.890625 34.8125 54.890625 23.390625 
Q 54.890625 11.625 47.5625 5.09375 
Q 40.234375 -1.421875 26.90625 -1.421875 
Q 22.3125 -1.421875 17.546875 -0.640625 
Q 12.796875 0.140625 7.71875 1.703125 
L 7.71875 11.625 
Q 12.109375 9.234375 16.796875 8.0625 
Q 21.484375 6.890625 26.703125 6.890625 
Q 35.15625 6.890625 40.078125 11.328125 
Q 45.015625 15.765625 45.015625 23.390625 
Q 45.015625 31 40.078125 35.4375 
Q 35.15625 39.890625 26.703125 39.890625 
Q 22.75 39.890625 18.8125 39.015625 
Q 14.890625 38.140625 10.796875 36.28125 
z
" id="DejaVuSans-53"/>
     </defs>
     <use xlink:href="#DejaVuSans-97"/>
     <use x="61.279297" xlink:href="#DejaVuSans-108"/>
     <use x="89.0625" xlink:href="#DejaVuSans-78"/>
     <use x="163.867188" xlink:href="#DejaVuSans-53"/>
    </g>
   </g>
   <g id="text_14">
    <!-- alO5 -->
    <g transform="translate(375.22944 212.307571)scale(0.17 -0.17)">
     <defs>
      <path d="M 39.40625 66.21875 
Q 28.65625 66.21875 22.328125 58.203125 
Q 16.015625 50.203125 16.015625 36.375 
Q 16.015625 22.609375 22.328125 14.59375 
Q 28.65625 6.59375 39.40625 6.59375 
Q 50.140625 6.59375 56.421875 14.59375 
Q 62.703125 22.609375 62.703125 36.375 
Q 62.703125 50.203125 56.421875 58.203125 
Q 50.140625 66.21875 39.40625 66.21875 
z
M 39.40625 74.21875 
Q 54.734375 74.21875 63.90625 63.9375 
Q 73.09375 53.65625 73.09375 36.375 
Q 73.09375 19.140625 63.90625 8.859375 
Q 54.734375 -1.421875 39.40625 -1.421875 
Q 24.03125 -1.421875 14.8125 8.828125 
Q 5.609375 19.09375 5.609375 36.375 
Q 5.609375 53.65625 14.8125 63.9375 
Q 24.03125 74.21875 39.40625 74.21875 
z
" id="DejaVuSans-79"/>
     </defs>
     <use xlink:href="#DejaVuSans-97"/>
     <use x="61.279297" xlink:href="#DejaVuSans-108"/>
     <use x="89.0625" xlink:href="#DejaVuSans-79"/>
     <use x="167.773438" xlink:href="#DejaVuSans-53"/>
    </g>
   </g>
   <g id="text_15">
    <!-- al01 -->
    <g transform="translate(375.22944 126.352403)scale(0.17 -0.17)">
     <use xlink:href="#DejaVuSans-97"/>
     <use x="61.279297" xlink:href="#DejaVuSans-108"/>
     <use x="89.0625" xlink:href="#DejaVuSans-48"/>
     <use x="152.685547" xlink:href="#DejaVuSans-49"/>
    </g>
   </g>
   <g id="text_16">
    <!-- alN1 -->
    <g transform="translate(375.22944 40.397235)scale(0.17 -0.17)">
     <use xlink:href="#DejaVuSans-97"/>
     <use x="61.279297" xlink:href="#DejaVuSans-108"/>
     <use x="89.0625" xlink:href="#DejaVuSans-78"/>
     <use x="163.867188" xlink:href="#DejaVuSans-49"/>
    </g>
   </g>
   <g id="text_17">
    <!-- bbob-constrained f38, 10-D -->
    <g transform="translate(60.41088 38.111366)scale(0.102 -0.102)">
     <defs>
      <path d="M 48.6875 27.296875 
Q 48.6875 37.203125 44.609375 42.84375 
Q 40.53125 48.484375 33.40625 48.484375 
Q 26.265625 48.484375 22.1875 42.84375 
Q 18.109375 37.203125 18.109375 27.296875 
Q 18.109375 17.390625 22.1875 11.75 
Q 26.265625 6.109375 33.40625 6.109375 
Q 40.53125 6.109375 44.609375 11.75 
Q 48.6875 17.390625 48.6875 27.296875 
z
M 18.109375 46.390625 
Q 20.953125 51.265625 25.265625 53.625 
Q 29.59375 56 35.59375 56 
Q 45.5625 56 51.78125 48.09375 
Q 58.015625 40.1875 58.015625 27.296875 
Q 58.015625 14.40625 51.78125 6.484375 
Q 45.5625 -1.421875 35.59375 -1.421875 
Q 29.59375 -1.421875 25.265625 0.953125 
Q 20.953125 3.328125 18.109375 8.203125 
L 18.109375 0 
L 9.078125 0 
L 9.078125 75.984375 
L 18.109375 75.984375 
z
" id="DejaVuSans-98"/>
      <path d="M 40.578125 39.3125 
Q 47.65625 37.796875 51.625 33 
Q 55.609375 28.21875 55.609375 21.1875 
Q 55.609375 10.40625 48.1875 4.484375 
Q 40.765625 -1.421875 27.09375 -1.421875 
Q 22.515625 -1.421875 17.65625 -0.515625 
Q 12.796875 0.390625 7.625 2.203125 
L 7.625 11.71875 
Q 11.71875 9.328125 16.59375 8.109375 
Q 21.484375 6.890625 26.8125 6.890625 
Q 36.078125 6.890625 40.9375 10.546875 
Q 45.796875 14.203125 45.796875 21.1875 
Q 45.796875 27.640625 41.28125 31.265625 
Q 36.765625 34.90625 28.71875 34.90625 
L 20.21875 34.90625 
L 20.21875 43.015625 
L 29.109375 43.015625 
Q 36.375 43.015625 40.234375 45.921875 
Q 44.09375 48.828125 44.09375 54.296875 
Q 44.09375 59.90625 40.109375 62.90625 
Q 36.140625 65.921875 28.71875 65.921875 
Q 24.65625 65.921875 20.015625 65.03125 
Q 15.375 64.15625 9.8125 62.3125 
L 9.8125 71.09375 
Q 15.4375 72.65625 20.34375 73.4375 
Q 25.25 74.21875 29.59375 74.21875 
Q 40.828125 74.21875 47.359375 69.109375 
Q 53.90625 64.015625 53.90625 55.328125 
Q 53.90625 49.265625 50.4375 45.09375 
Q 46.96875 40.921875 40.578125 39.3125 
z
" id="DejaVuSans-51"/>
      <path d="M 19.671875 64.796875 
L 19.671875 8.109375 
L 31.59375 8.109375 
Q 46.6875 8.109375 53.6875 14.9375 
Q 60.6875 21.78125 60.6875 36.53125 
Q 60.6875 51.171875 53.6875 57.984375 
Q 46.6875 64.796875 31.59375 64.796875 
z
M 9.8125 72.90625 
L 30.078125 72.90625 
Q 51.265625 72.90625 61.171875 64.09375 
Q 71.09375 55.28125 71.09375 36.53125 
Q 71.09375 17.671875 61.125 8.828125 
Q 51.171875 0 30.078125 0 
L 9.8125 0 
z
" id="DejaVuSans-68"/>
     </defs>
     <use xlink:href="#DejaVuSans-98"/>
     <use x="63.476562" xlink:href="#DejaVuSans-98"/>
     <use x="126.953125" xlink:href="#DejaVuSans-111"/>
     <use x="188.134766" xlink:href="#DejaVuSans-98"/>
     <use x="251.611328" xlink:href="#DejaVuSans-45"/>
     <use x="287.695312" xlink:href="#DejaVuSans-99"/>
     <use x="342.675781" xlink:href="#DejaVuSans-111"/>
     <use x="403.857422" xlink:href="#DejaVuSans-110"/>
     <use x="467.236328" xlink:href="#DejaVuSans-115"/>
     <use x="519.335938" xlink:href="#DejaVuSans-116"/>
     <use x="558.544922" xlink:href="#DejaVuSans-114"/>
     <use x="599.658203" xlink:href="#DejaVuSans-97"/>
     <use x="660.9375" xlink:href="#DejaVuSans-105"/>
     <use x="688.720703" xlink:href="#DejaVuSans-110"/>
     <use x="752.099609" xlink:href="#DejaVuSans-101"/>
     <use x="813.623047" xlink:href="#DejaVuSans-100"/>
     <use x="877.099609" xlink:href="#DejaVuSans-32"/>
     <use x="908.886719" xlink:href="#DejaVuSans-102"/>
     <use x="944.091797" xlink:href="#DejaVuSans-51"/>
     <use x="1007.714844" xlink:href="#DejaVuSans-56"/>
     <use x="1071.337891" xlink:href="#DejaVuSans-44"/>
     <use x="1103.125" xlink:href="#DejaVuSans-32"/>
     <use x="1134.912109" xlink:href="#DejaVuSans-49"/>
     <use x="1198.535156" xlink:href="#DejaVuSans-48"/>
     <use x="1262.158203" xlink:href="#DejaVuSans-45"/>
     <use x="1298.242188" xlink:href="#DejaVuSans-68"/>
    </g>
    <!-- 41 targets: 100..1e-06 -->
    <g transform="translate(60.41088 49.533135)scale(0.102 -0.102)">
     <defs>
      <path d="M 11.71875 12.40625 
L 22.015625 12.40625 
L 22.015625 0 
L 11.71875 0 
z
M 11.71875 51.703125 
L 22.015625 51.703125 
L 22.015625 39.3125 
L 11.71875 39.3125 
z
" id="DejaVuSans-58"/>
     </defs>
     <use xlink:href="#DejaVuSans-52"/>
     <use x="63.623047" xlink:href="#DejaVuSans-49"/>
     <use x="127.246094" xlink:href="#DejaVuSans-32"/>
     <use x="159.033203" xlink:href="#DejaVuSans-116"/>
     <use x="198.242188" xlink:href="#DejaVuSans-97"/>
     <use x="259.521484" xlink:href="#DejaVuSans-114"/>
     <use x="298.884766" xlink:href="#DejaVuSans-103"/>
     <use x="362.361328" xlink:href="#DejaVuSans-101"/>
     <use x="423.884766" xlink:href="#DejaVuSans-116"/>
     <use x="463.09375" xlink:href="#DejaVuSans-115"/>
     <use x="515.193359" xlink:href="#DejaVuSans-58"/>
     <use x="548.884766" xlink:href="#DejaVuSans-32"/>
     <use x="580.671875" xlink:href="#DejaVuSans-49"/>
     <use x="644.294922" xlink:href="#DejaVuSans-48"/>
     <use x="707.917969" xlink:href="#DejaVuSans-48"/>
     <use x="771.541016" xlink:href="#DejaVuSans-46"/>
     <use x="803.328125" xlink:href="#DejaVuSans-46"/>
     <use x="835.115234" xlink:href="#DejaVuSans-49"/>
     <use x="898.738281" xlink:href="#DejaVuSans-101"/>
     <use x="960.261719" xlink:href="#DejaVuSans-45"/>
     <use x="996.345703" xlink:href="#DejaVuSans-48"/>
     <use x="1059.96875" xlink:href="#DejaVuSans-54"/>
    </g>
    <!-- 15 instances -->
    <g transform="translate(60.41088 60.954904)scale(0.102 -0.102)">
     <use xlink:href="#DejaVuSans-49"/>
     <use x="63.623047" xlink:href="#DejaVuSans-53"/>
     <use x="127.246094" xlink:href="#DejaVuSans-32"/>
     <use x="159.033203" xlink:href="#DejaVuSans-105"/>
     <use x="186.816406" xlink:href="#DejaVuSans-110"/>
     <use x="250.195312" xlink:href="#DejaVuSans-115"/>
     <use x="302.294922" xlink:href="#DejaVuSans-116"/>
     <use x="341.503906" xlink:href="#DejaVuSans-97"/>
     <use x="402.783203" xlink:href="#DejaVuSans-110"/>
     <use x="466.162109" xlink:href="#DejaVuSans-99"/>
     <use x="521.142578" xlink:href="#DejaVuSans-101"/>
     <use x="582.666016" xlink:href="#DejaVuSans-115"/>
    </g>
   </g>
   <g id="text_18">
    <!-- v5z33 -->
    <g style="fill:#808080;" transform="translate(183.016656 294.151352)scale(0.1 -0.1)">
     <defs>
      <path d="M 5.515625 54.6875 
L 48.1875 54.6875 
L 48.1875 46.484375 
L 14.40625 7.171875 
L 48.1875 7.171875 
L 48.1875 0 
L 4.296875 0 
L 4.296875 8.203125 
L 38.09375 47.515625 
L 5.515625 47.515625 
z
" id="DejaVuSans-122"/>
     </defs>
     <use xlink:href="#DejaVuSans-118"/>
     <use x="59.179688" xlink:href="#DejaVuSans-53"/>
     <use x="122.802734" xlink:href="#DejaVuSans-122"/>
     <use x="175.292969" xlink:href="#DejaVuSans-51"/>
     <use x="238.916016" xlink:href="#DejaVuSans-51"/>
    </g>
   </g>
   <g id="text_19">
    <!-- 38 Different Powers, 2 constraints -->
    <g transform="translate(28.190875 21.648)scale(0.2 -0.2)">
     <defs>
      <path d="M 19.671875 64.796875 
L 19.671875 37.40625 
L 32.078125 37.40625 
Q 38.96875 37.40625 42.71875 40.96875 
Q 46.484375 44.53125 46.484375 51.125 
Q 46.484375 57.671875 42.71875 61.234375 
Q 38.96875 64.796875 32.078125 64.796875 
z
M 9.8125 72.90625 
L 32.078125 72.90625 
Q 44.34375 72.90625 50.609375 67.359375 
Q 56.890625 61.8125 56.890625 51.125 
Q 56.890625 40.328125 50.609375 34.8125 
Q 44.34375 29.296875 32.078125 29.296875 
L 19.671875 29.296875 
L 19.671875 0 
L 9.8125 0 
z
" id="DejaVuSans-80"/>
      <path d="M 4.203125 54.6875 
L 13.1875 54.6875 
L 24.421875 12.015625 
L 35.59375 54.6875 
L 46.1875 54.6875 
L 57.421875 12.015625 
L 68.609375 54.6875 
L 77.59375 54.6875 
L 63.28125 0 
L 52.6875 0 
L 40.921875 44.828125 
L 29.109375 0 
L 18.5 0 
z
" id="DejaVuSans-119"/>
     </defs>
     <use xlink:href="#DejaVuSans-51"/>
     <use x="63.623047" xlink:href="#DejaVuSans-56"/>
     <use x="127.246094" xlink:href="#DejaVuSans-32"/>
     <use x="159.033203" xlink:href="#DejaVuSans-68"/>
     <use x="236.035156" xlink:href="#DejaVuSans-105"/>
     <use x="263.818359" xlink:href="#DejaVuSans-102"/>
     <use x="299.023438" xlink:href="#DejaVuSans-102"/>
     <use x="334.228516" xlink:href="#DejaVuSans-101"/>
     <use x="395.751953" xlink:href="#DejaVuSans-114"/>
     <use x="434.615234" xlink:href="#DejaVuSans-101"/>
     <use x="496.138672" xlink:href="#DejaVuSans-110"/>
     <use x="559.517578" xlink:href="#DejaVuSans-116"/>
     <use x="598.726562" xlink:href="#DejaVuSans-32"/>
     <use x="630.513672" xlink:href="#DejaVuSans-80"/>
     <use x="687.191406" xlink:href="#DejaVuSans-111"/>
     <use x="748.373047" xlink:href="#DejaVuSans-119"/>
     <use x="830.160156" xlink:href="#DejaVuSans-101"/>
     <use x="891.683594" xlink:href="#DejaVuSans-114"/>
     <use x="932.796875" xlink:href="#DejaVuSans-115"/>
     <use x="984.896484" xlink:href="#DejaVuSans-44"/>
     <use x="1016.683594" xlink:href="#DejaVuSans-32"/>
     <use x="1048.470703" xlink:href="#DejaVuSans-50"/>
     <use x="1112.09375" xlink:href="#DejaVuSans-32"/>
     <use x="1143.880859" xlink:href="#DejaVuSans-99"/>
     <use x="1198.861328" xlink:href="#DejaVuSans-111"/>
     <use x="1260.042969" xlink:href="#DejaVuSans-110"/>
     <use x="1323.421875" xlink:href="#DejaVuSans-115"/>
     <use x="1375.521484" xlink:href="#DejaVuSans-116"/>
     <use x="1414.730469" xlink:href="#DejaVuSans-114"/>
     <use x="1455.84375" xlink:href="#DejaVuSans-97"/>
     <use x="1517.123047" xlink:href="#DejaVuSans-105"/>
     <use x="1544.90625" xlink:href="#DejaVuSans-110"/>
     <use x="1608.285156" xlink:href="#DejaVuSans-116"/>
     <use x="1647.494141" xlink:href="#DejaVuSans-115"/>
    </g>
   </g>
  </g>
 </g>
 <defs>
  <clipPath id="pd8b9bb4df0">
   <rect height="271.296" width="281.088" x="57.6" y="27.648"/>
  </clipPath>
 </defs>
</svg>
