<?xml version="1.0" encoding="utf-8" standalone="no"?>
<!DOCTYPE svg PUBLIC "-//W3C//DTD SVG 1.1//EN"
  "http://www.w3.org/Graphics/SVG/1.1/DTD/svg11.dtd">
<!-- Created with matplotlib (https://matplotlib.org/) -->
<svg height="345.6pt" version="1.1" viewBox="0 0 460.8 345.6" width="460.8pt" xmlns="http://www.w3.org/2000/svg" xmlns:xlink="http://www.w3.org/1999/xlink">
 <metadata>
  <rdf:RDF xmlns:cc="http://creativecommons.org/ns#" xmlns:dc="http://purl.org/dc/elements/1.1/" xmlns:rdf="http://www.w3.org/1999/02/22-rdf-syntax-ns#">
   <cc:Work>
    <dc:type rdf:resource="http://purl.org/dc/dcmitype/StillImage"/>
    <dc:date>2021-03-16T10:43:50.864693</dc:date>
    <dc:format>image/svg+xml</dc:format>
    <dc:creator>
     <cc:Agent>
      <dc:title>Matplotlib v3.3.3, https://matplotlib.org/</dc:title>
     </cc:Agent>
    </dc:creator>
   </cc:Work>
  </rdf:RDF>
 </metadata>
 <defs>
  <style type="text/css">*{stroke-linecap:butt;stroke-linejoin:round;}</style>
 </defs>
 <g id="figure_1">
  <g id="patch_1">
   <path d="M 0 345.6 
L 460.8 345.6 
L 460.8 0 
L 0 0 
z
" style="fill:#ffffff;"/>
  </g>
  <g id="axes_1">
   <g id="patch_2">
    <path d="M 57.6 298.944 
L 338.688 298.944 
L 338.688 27.648 
L 57.6 27.648 
z
" style="fill:#ffffff;"/>
   </g>
   <g id="matplotlib.axis_1">
    <g id="xtick_1">
     <g id="line2d_1">
      <path clip-path="url(#pc9640b3a10)" d="M 57.6 298.944 
L 57.6 27.648 
" style="fill:none;stroke:#b0b0b0;stroke-linecap:square;stroke-width:0.8;"/>
     </g>
     <g id="line2d_2">
      <defs>
       <path d="M 0 0 
L 0 3.5 
" id="m2d83f1f074" style="stroke:#000000;stroke-width:0.8;"/>
      </defs>
      <g>
       <use style="stroke:#000000;stroke-width:0.8;" x="57.6" xlink:href="#m2d83f1f074" y="298.944"/>
      </g>
     </g>
     <g id="text_1">
      <!-- 0 -->
      <g transform="translate(51.2375 321.140875)scale(0.2 -0.2)">
       <defs>
        <path d="M 31.78125 66.40625 
Q 24.171875 66.40625 20.328125 58.90625 
Q 16.5 51.421875 16.5 36.375 
Q 16.5 21.390625 20.328125 13.890625 
Q 24.171875 6.390625 31.78125 6.390625 
Q 39.453125 6.390625 43.28125 13.890625 
Q 47.125 21.390625 47.125 36.375 
Q 47.125 51.421875 43.28125 58.90625 
Q 39.453125 66.40625 31.78125 66.40625 
z
M 31.78125 74.21875 
Q 44.046875 74.21875 50.515625 64.515625 
Q 56.984375 54.828125 56.984375 36.375 
Q 56.984375 17.96875 50.515625 8.265625 
Q 44.046875 -1.421875 31.78125 -1.421875 
Q 19.53125 -1.421875 13.0625 8.265625 
Q 6.59375 17.96875 6.59375 36.375 
Q 6.59375 54.828125 13.0625 64.515625 
Q 19.53125 74.21875 31.78125 74.21875 
z
" id="DejaVuSans-48"/>
       </defs>
       <use xlink:href="#DejaVuSans-48"/>
      </g>
     </g>
    </g>
    <g id="xtick_2">
     <g id="line2d_3">
      <path clip-path="url(#pc9640b3a10)" d="M 137.910857 298.944 
L 137.910857 27.648 
" style="fill:none;stroke:#b0b0b0;stroke-linecap:square;stroke-width:0.8;"/>
     </g>
     <g id="line2d_4">
      <g>
       <use style="stroke:#000000;stroke-width:0.8;" x="137.910857" xlink:href="#m2d83f1f074" y="298.944"/>
      </g>
     </g>
     <g id="text_2">
      <!-- 2 -->
      <g transform="translate(131.548357 321.140875)scale(0.2 -0.2)">
       <defs>
        <path d="M 19.1875 8.296875 
L 53.609375 8.296875 
L 53.609375 0 
L 7.328125 0 
L 7.328125 8.296875 
Q 12.9375 14.109375 22.625 23.890625 
Q 32.328125 33.6875 34.8125 36.53125 
Q 39.546875 41.84375 41.421875 45.53125 
Q 43.3125 49.21875 43.3125 52.78125 
Q 43.3125 58.59375 39.234375 62.25 
Q 35.15625 65.921875 28.609375 65.921875 
Q 23.96875 65.921875 18.8125 64.3125 
Q 13.671875 62.703125 7.8125 59.421875 
L 7.8125 69.390625 
Q 13.765625 71.78125 18.9375 73 
Q 24.125 74.21875 28.421875 74.21875 
Q 39.75 74.21875 46.484375 68.546875 
Q 53.21875 62.890625 53.21875 53.421875 
Q 53.21875 48.921875 51.53125 44.890625 
Q 49.859375 40.875 45.40625 35.40625 
Q 44.1875 33.984375 37.640625 27.21875 
Q 31.109375 20.453125 19.1875 8.296875 
z
" id="DejaVuSans-50"/>
       </defs>
       <use xlink:href="#DejaVuSans-50"/>
      </g>
     </g>
    </g>
    <g id="xtick_3">
     <g id="line2d_5">
      <path clip-path="url(#pc9640b3a10)" d="M 218.221714 298.944 
L 218.221714 27.648 
" style="fill:none;stroke:#b0b0b0;stroke-linecap:square;stroke-width:0.8;"/>
     </g>
     <g id="line2d_6">
      <g>
       <use style="stroke:#000000;stroke-width:0.8;" x="218.221714" xlink:href="#m2d83f1f074" y="298.944"/>
      </g>
     </g>
     <g id="text_3">
      <!-- 4 -->
      <g transform="translate(211.859214 321.140875)scale(0.2 -0.2)">
       <defs>
        <path d="M 37.796875 64.3125 
L 12.890625 25.390625 
L 37.796875 25.390625 
z
M 35.203125 72.90625 
L 47.609375 72.90625 
L 47.609375 25.390625 
L 58.015625 25.390625 
L 58.015625 17.1875 
L 47.609375 17.1875 
L 47.609375 0 
L 37.796875 0 
L 37.796875 17.1875 
L 4.890625 17.1875 
L 4.890625 26.703125 
z
" id="DejaVuSans-52"/>
       </defs>
       <use xlink:href="#DejaVuSans-52"/>
      </g>
     </g>
    </g>
    <g id="xtick_4">
     <g id="line2d_7">
      <path clip-path="url(#pc9640b3a10)" d="M 298.532571 298.944 
L 298.532571 27.648 
" style="fill:none;stroke:#b0b0b0;stroke-linecap:square;stroke-width:0.8;"/>
     </g>
     <g id="line2d_8">
      <g>
       <use style="stroke:#000000;stroke-width:0.8;" x="298.532571" xlink:href="#m2d83f1f074" y="298.944"/>
      </g>
     </g>
     <g id="text_4">
      <!-- 6 -->
      <g transform="translate(292.170071 321.140875)scale(0.2 -0.2)">
       <defs>
        <path d="M 33.015625 40.375 
Q 26.375 40.375 22.484375 35.828125 
Q 18.609375 31.296875 18.609375 23.390625 
Q 18.609375 15.53125 22.484375 10.953125 
Q 26.375 6.390625 33.015625 6.390625 
Q 39.65625 6.390625 43.53125 10.953125 
Q 47.40625 15.53125 47.40625 23.390625 
Q 47.40625 31.296875 43.53125 35.828125 
Q 39.65625 40.375 33.015625 40.375 
z
M 52.59375 71.296875 
L 52.59375 62.3125 
Q 48.875 64.0625 45.09375 64.984375 
Q 41.3125 65.921875 37.59375 65.921875 
Q 27.828125 65.921875 22.671875 59.328125 
Q 17.53125 52.734375 16.796875 39.40625 
Q 19.671875 43.65625 24.015625 45.921875 
Q 28.375 48.1875 33.59375 48.1875 
Q 44.578125 48.1875 50.953125 41.515625 
Q 57.328125 34.859375 57.328125 23.390625 
Q 57.328125 12.15625 50.6875 5.359375 
Q 44.046875 -1.421875 33.015625 -1.421875 
Q 20.359375 -1.421875 13.671875 8.265625 
Q 6.984375 17.96875 6.984375 36.375 
Q 6.984375 53.65625 15.1875 63.9375 
Q 23.390625 74.21875 37.203125 74.21875 
Q 40.921875 74.21875 44.703125 73.484375 
Q 48.484375 72.75 52.59375 71.296875 
z
" id="DejaVuSans-54"/>
       </defs>
       <use xlink:href="#DejaVuSans-54"/>
      </g>
     </g>
    </g>
    <g id="xtick_5">
     <g id="line2d_9">
      <path clip-path="url(#pc9640b3a10)" d="M 97.755429 298.944 
L 97.755429 27.648 
" style="fill:none;stroke:#b0b0b0;stroke-linecap:square;stroke-width:0.8;"/>
     </g>
     <g id="line2d_10">
      <defs>
       <path d="M 0 0 
L 0 2 
" id="m790e9acdc0" style="stroke:#000000;stroke-width:0.6;"/>
      </defs>
      <g>
       <use style="stroke:#000000;stroke-width:0.6;" x="97.755429" xlink:href="#m790e9acdc0" y="298.944"/>
      </g>
     </g>
    </g>
    <g id="xtick_6">
     <g id="line2d_11">
      <path clip-path="url(#pc9640b3a10)" d="M 178.066286 298.944 
L 178.066286 27.648 
" style="fill:none;stroke:#b0b0b0;stroke-linecap:square;stroke-width:0.8;"/>
     </g>
     <g id="line2d_12">
      <g>
       <use style="stroke:#000000;stroke-width:0.6;" x="178.066286" xlink:href="#m790e9acdc0" y="298.944"/>
      </g>
     </g>
    </g>
    <g id="xtick_7">
     <g id="line2d_13">
      <path clip-path="url(#pc9640b3a10)" d="M 258.377143 298.944 
L 258.377143 27.648 
" style="fill:none;stroke:#b0b0b0;stroke-linecap:square;stroke-width:0.8;"/>
     </g>
     <g id="line2d_14">
      <g>
       <use style="stroke:#000000;stroke-width:0.6;" x="258.377143" xlink:href="#m790e9acdc0" y="298.944"/>
      </g>
     </g>
    </g>
    <g id="xtick_8">
     <g id="line2d_15">
      <path clip-path="url(#pc9640b3a10)" d="M 338.688 298.944 
L 338.688 27.648 
" style="fill:none;stroke:#b0b0b0;stroke-linecap:square;stroke-width:0.8;"/>
     </g>
     <g id="line2d_16">
      <g>
       <use style="stroke:#000000;stroke-width:0.6;" x="338.688" xlink:href="#m790e9acdc0" y="298.944"/>
      </g>
     </g>
    </g>
    <g id="text_5">
     <!-- log10(# (f+g)-evals / dimension) -->
     <g transform="translate(58.145016 342.217594)scale(0.17 -0.17)">
      <defs>
       <path d="M 9.421875 75.984375 
L 18.40625 75.984375 
L 18.40625 0 
L 9.421875 0 
z
" id="DejaVuSans-108"/>
       <path d="M 30.609375 48.390625 
Q 23.390625 48.390625 19.1875 42.75 
Q 14.984375 37.109375 14.984375 27.296875 
Q 14.984375 17.484375 19.15625 11.84375 
Q 23.34375 6.203125 30.609375 6.203125 
Q 37.796875 6.203125 41.984375 11.859375 
Q 46.1875 17.53125 46.1875 27.296875 
Q 46.1875 37.015625 41.984375 42.703125 
Q 37.796875 48.390625 30.609375 48.390625 
z
M 30.609375 56 
Q 42.328125 56 49.015625 48.375 
Q 55.71875 40.765625 55.71875 27.296875 
Q 55.71875 13.875 49.015625 6.21875 
Q 42.328125 -1.421875 30.609375 -1.421875 
Q 18.84375 -1.421875 12.171875 6.21875 
Q 5.515625 13.875 5.515625 27.296875 
Q 5.515625 40.765625 12.171875 48.375 
Q 18.84375 56 30.609375 56 
z
" id="DejaVuSans-111"/>
       <path d="M 45.40625 27.984375 
Q 45.40625 37.75 41.375 43.109375 
Q 37.359375 48.484375 30.078125 48.484375 
Q 22.859375 48.484375 18.828125 43.109375 
Q 14.796875 37.75 14.796875 27.984375 
Q 14.796875 18.265625 18.828125 12.890625 
Q 22.859375 7.515625 30.078125 7.515625 
Q 37.359375 7.515625 41.375 12.890625 
Q 45.40625 18.265625 45.40625 27.984375 
z
M 54.390625 6.78125 
Q 54.390625 -7.171875 48.1875 -13.984375 
Q 42 -20.796875 29.203125 -20.796875 
Q 24.46875 -20.796875 20.265625 -20.09375 
Q 16.0625 -19.390625 12.109375 -17.921875 
L 12.109375 -9.1875 
Q 16.0625 -11.328125 19.921875 -12.34375 
Q 23.78125 -13.375 27.78125 -13.375 
Q 36.625 -13.375 41.015625 -8.765625 
Q 45.40625 -4.15625 45.40625 5.171875 
L 45.40625 9.625 
Q 42.625 4.78125 38.28125 2.390625 
Q 33.9375 0 27.875 0 
Q 17.828125 0 11.671875 7.65625 
Q 5.515625 15.328125 5.515625 27.984375 
Q 5.515625 40.671875 11.671875 48.328125 
Q 17.828125 56 27.875 56 
Q 33.9375 56 38.28125 53.609375 
Q 42.625 51.21875 45.40625 46.390625 
L 45.40625 54.6875 
L 54.390625 54.6875 
z
" id="DejaVuSans-103"/>
       <path d="M 12.40625 8.296875 
L 28.515625 8.296875 
L 28.515625 63.921875 
L 10.984375 60.40625 
L 10.984375 69.390625 
L 28.421875 72.90625 
L 38.28125 72.90625 
L 38.28125 8.296875 
L 54.390625 8.296875 
L 54.390625 0 
L 12.40625 0 
z
" id="DejaVuSans-49"/>
       <path d="M 31 75.875 
Q 24.46875 64.65625 21.28125 53.65625 
Q 18.109375 42.671875 18.109375 31.390625 
Q 18.109375 20.125 21.3125 9.0625 
Q 24.515625 -2 31 -13.1875 
L 23.1875 -13.1875 
Q 15.875 -1.703125 12.234375 9.375 
Q 8.59375 20.453125 8.59375 31.390625 
Q 8.59375 42.28125 12.203125 53.3125 
Q 15.828125 64.359375 23.1875 75.875 
z
" id="DejaVuSans-40"/>
       <path d="M 51.125 44 
L 36.921875 44 
L 32.8125 27.6875 
L 47.125 27.6875 
z
M 43.796875 71.78125 
L 38.71875 51.515625 
L 52.984375 51.515625 
L 58.109375 71.78125 
L 65.921875 71.78125 
L 60.890625 51.515625 
L 76.125 51.515625 
L 76.125 44 
L 58.984375 44 
L 54.984375 27.6875 
L 70.515625 27.6875 
L 70.515625 20.21875 
L 53.078125 20.21875 
L 48 0 
L 40.1875 0 
L 45.21875 20.21875 
L 30.90625 20.21875 
L 25.875 0 
L 18.015625 0 
L 23.09375 20.21875 
L 7.71875 20.21875 
L 7.71875 27.6875 
L 24.90625 27.6875 
L 29 44 
L 13.28125 44 
L 13.28125 51.515625 
L 30.90625 51.515625 
L 35.890625 71.78125 
z
" id="DejaVuSans-35"/>
       <path id="DejaVuSans-32"/>
       <path d="M 37.109375 75.984375 
L 37.109375 68.5 
L 28.515625 68.5 
Q 23.6875 68.5 21.796875 66.546875 
Q 19.921875 64.59375 19.921875 59.515625 
L 19.921875 54.6875 
L 34.71875 54.6875 
L 34.71875 47.703125 
L 19.921875 47.703125 
L 19.921875 0 
L 10.890625 0 
L 10.890625 47.703125 
L 2.296875 47.703125 
L 2.296875 54.6875 
L 10.890625 54.6875 
L 10.890625 58.5 
Q 10.890625 67.625 15.140625 71.796875 
Q 19.390625 75.984375 28.609375 75.984375 
z
" id="DejaVuSans-102"/>
       <path d="M 46 62.703125 
L 46 35.5 
L 73.1875 35.5 
L 73.1875 27.203125 
L 46 27.203125 
L 46 0 
L 37.796875 0 
L 37.796875 27.203125 
L 10.59375 27.203125 
L 10.59375 35.5 
L 37.796875 35.5 
L 37.796875 62.703125 
z
" id="DejaVuSans-43"/>
       <path d="M 8.015625 75.875 
L 15.828125 75.875 
Q 23.140625 64.359375 26.78125 53.3125 
Q 30.421875 42.28125 30.421875 31.390625 
Q 30.421875 20.453125 26.78125 9.375 
Q 23.140625 -1.703125 15.828125 -13.1875 
L 8.015625 -13.1875 
Q 14.5 -2 17.703125 9.0625 
Q 20.90625 20.125 20.90625 31.390625 
Q 20.90625 42.671875 17.703125 53.65625 
Q 14.5 64.65625 8.015625 75.875 
z
" id="DejaVuSans-41"/>
       <path d="M 4.890625 31.390625 
L 31.203125 31.390625 
L 31.203125 23.390625 
L 4.890625 23.390625 
z
" id="DejaVuSans-45"/>
       <path d="M 56.203125 29.59375 
L 56.203125 25.203125 
L 14.890625 25.203125 
Q 15.484375 15.921875 20.484375 11.0625 
Q 25.484375 6.203125 34.421875 6.203125 
Q 39.59375 6.203125 44.453125 7.46875 
Q 49.3125 8.734375 54.109375 11.28125 
L 54.109375 2.78125 
Q 49.265625 0.734375 44.1875 -0.34375 
Q 39.109375 -1.421875 33.890625 -1.421875 
Q 20.796875 -1.421875 13.15625 6.1875 
Q 5.515625 13.8125 5.515625 26.8125 
Q 5.515625 40.234375 12.765625 48.109375 
Q 20.015625 56 32.328125 56 
Q 43.359375 56 49.78125 48.890625 
Q 56.203125 41.796875 56.203125 29.59375 
z
M 47.21875 32.234375 
Q 47.125 39.59375 43.09375 43.984375 
Q 39.0625 48.390625 32.421875 48.390625 
Q 24.90625 48.390625 20.390625 44.140625 
Q 15.875 39.890625 15.1875 32.171875 
z
" id="DejaVuSans-101"/>
       <path d="M 2.984375 54.6875 
L 12.5 54.6875 
L 29.59375 8.796875 
L 46.6875 54.6875 
L 56.203125 54.6875 
L 35.6875 0 
L 23.484375 0 
z
" id="DejaVuSans-118"/>
       <path d="M 34.28125 27.484375 
Q 23.390625 27.484375 19.1875 25 
Q 14.984375 22.515625 14.984375 16.5 
Q 14.984375 11.71875 18.140625 8.90625 
Q 21.296875 6.109375 26.703125 6.109375 
Q 34.1875 6.109375 38.703125 11.40625 
Q 43.21875 16.703125 43.21875 25.484375 
L 43.21875 27.484375 
z
M 52.203125 31.203125 
L 52.203125 0 
L 43.21875 0 
L 43.21875 8.296875 
Q 40.140625 3.328125 35.546875 0.953125 
Q 30.953125 -1.421875 24.3125 -1.421875 
Q 15.921875 -1.421875 10.953125 3.296875 
Q 6 8.015625 6 15.921875 
Q 6 25.140625 12.171875 29.828125 
Q 18.359375 34.515625 30.609375 34.515625 
L 43.21875 34.515625 
L 43.21875 35.40625 
Q 43.21875 41.609375 39.140625 45 
Q 35.0625 48.390625 27.6875 48.390625 
Q 23 48.390625 18.546875 47.265625 
Q 14.109375 46.140625 10.015625 43.890625 
L 10.015625 52.203125 
Q 14.9375 54.109375 19.578125 55.046875 
Q 24.21875 56 28.609375 56 
Q 40.484375 56 46.34375 49.84375 
Q 52.203125 43.703125 52.203125 31.203125 
z
" id="DejaVuSans-97"/>
       <path d="M 44.28125 53.078125 
L 44.28125 44.578125 
Q 40.484375 46.53125 36.375 47.5 
Q 32.28125 48.484375 27.875 48.484375 
Q 21.1875 48.484375 17.84375 46.4375 
Q 14.5 44.390625 14.5 40.28125 
Q 14.5 37.15625 16.890625 35.375 
Q 19.28125 33.59375 26.515625 31.984375 
L 29.59375 31.296875 
Q 39.15625 29.25 43.1875 25.515625 
Q 47.21875 21.78125 47.21875 15.09375 
Q 47.21875 7.46875 41.1875 3.015625 
Q 35.15625 -1.421875 24.609375 -1.421875 
Q 20.21875 -1.421875 15.453125 -0.5625 
Q 10.6875 0.296875 5.421875 2 
L 5.421875 11.28125 
Q 10.40625 8.6875 15.234375 7.390625 
Q 20.0625 6.109375 24.8125 6.109375 
Q 31.15625 6.109375 34.5625 8.28125 
Q 37.984375 10.453125 37.984375 14.40625 
Q 37.984375 18.0625 35.515625 20.015625 
Q 33.0625 21.96875 24.703125 23.78125 
L 21.578125 24.515625 
Q 13.234375 26.265625 9.515625 29.90625 
Q 5.8125 33.546875 5.8125 39.890625 
Q 5.8125 47.609375 11.28125 51.796875 
Q 16.75 56 26.8125 56 
Q 31.78125 56 36.171875 55.265625 
Q 40.578125 54.546875 44.28125 53.078125 
z
" id="DejaVuSans-115"/>
       <path d="M 25.390625 72.90625 
L 33.6875 72.90625 
L 8.296875 -9.28125 
L 0 -9.28125 
z
" id="DejaVuSans-47"/>
       <path d="M 45.40625 46.390625 
L 45.40625 75.984375 
L 54.390625 75.984375 
L 54.390625 0 
L 45.40625 0 
L 45.40625 8.203125 
Q 42.578125 3.328125 38.25 0.953125 
Q 33.9375 -1.421875 27.875 -1.421875 
Q 17.96875 -1.421875 11.734375 6.484375 
Q 5.515625 14.40625 5.515625 27.296875 
Q 5.515625 40.1875 11.734375 48.09375 
Q 17.96875 56 27.875 56 
Q 33.9375 56 38.25 53.625 
Q 42.578125 51.265625 45.40625 46.390625 
z
M 14.796875 27.296875 
Q 14.796875 17.390625 18.875 11.75 
Q 22.953125 6.109375 30.078125 6.109375 
Q 37.203125 6.109375 41.296875 11.75 
Q 45.40625 17.390625 45.40625 27.296875 
Q 45.40625 37.203125 41.296875 42.84375 
Q 37.203125 48.484375 30.078125 48.484375 
Q 22.953125 48.484375 18.875 42.84375 
Q 14.796875 37.203125 14.796875 27.296875 
z
" id="DejaVuSans-100"/>
       <path d="M 9.421875 54.6875 
L 18.40625 54.6875 
L 18.40625 0 
L 9.421875 0 
z
M 9.421875 75.984375 
L 18.40625 75.984375 
L 18.40625 64.59375 
L 9.421875 64.59375 
z
" id="DejaVuSans-105"/>
       <path d="M 52 44.1875 
Q 55.375 50.25 60.0625 53.125 
Q 64.75 56 71.09375 56 
Q 79.640625 56 84.28125 50.015625 
Q 88.921875 44.046875 88.921875 33.015625 
L 88.921875 0 
L 79.890625 0 
L 79.890625 32.71875 
Q 79.890625 40.578125 77.09375 44.375 
Q 74.3125 48.1875 68.609375 48.1875 
Q 61.625 48.1875 57.5625 43.546875 
Q 53.515625 38.921875 53.515625 30.90625 
L 53.515625 0 
L 44.484375 0 
L 44.484375 32.71875 
Q 44.484375 40.625 41.703125 44.40625 
Q 38.921875 48.1875 33.109375 48.1875 
Q 26.21875 48.1875 22.15625 43.53125 
Q 18.109375 38.875 18.109375 30.90625 
L 18.109375 0 
L 9.078125 0 
L 9.078125 54.6875 
L 18.109375 54.6875 
L 18.109375 46.1875 
Q 21.1875 51.21875 25.484375 53.609375 
Q 29.78125 56 35.6875 56 
Q 41.65625 56 45.828125 52.96875 
Q 50 49.953125 52 44.1875 
z
" id="DejaVuSans-109"/>
       <path d="M 54.890625 33.015625 
L 54.890625 0 
L 45.90625 0 
L 45.90625 32.71875 
Q 45.90625 40.484375 42.875 44.328125 
Q 39.84375 48.1875 33.796875 48.1875 
Q 26.515625 48.1875 22.3125 43.546875 
Q 18.109375 38.921875 18.109375 30.90625 
L 18.109375 0 
L 9.078125 0 
L 9.078125 54.6875 
L 18.109375 54.6875 
L 18.109375 46.1875 
Q 21.34375 51.125 25.703125 53.5625 
Q 30.078125 56 35.796875 56 
Q 45.21875 56 50.046875 50.171875 
Q 54.890625 44.34375 54.890625 33.015625 
z
" id="DejaVuSans-110"/>
      </defs>
      <use xlink:href="#DejaVuSans-108"/>
      <use x="27.783203" xlink:href="#DejaVuSans-111"/>
      <use x="88.964844" xlink:href="#DejaVuSans-103"/>
      <use x="152.441406" xlink:href="#DejaVuSans-49"/>
      <use x="216.064453" xlink:href="#DejaVuSans-48"/>
      <use x="279.6875" xlink:href="#DejaVuSans-40"/>
      <use x="318.701172" xlink:href="#DejaVuSans-35"/>
      <use x="402.490234" xlink:href="#DejaVuSans-32"/>
      <use x="434.277344" xlink:href="#DejaVuSans-40"/>
      <use x="473.291016" xlink:href="#DejaVuSans-102"/>
      <use x="508.496094" xlink:href="#DejaVuSans-43"/>
      <use x="592.285156" xlink:href="#DejaVuSans-103"/>
      <use x="655.761719" xlink:href="#DejaVuSans-41"/>
      <use x="694.775391" xlink:href="#DejaVuSans-45"/>
      <use x="730.859375" xlink:href="#DejaVuSans-101"/>
      <use x="792.382812" xlink:href="#DejaVuSans-118"/>
      <use x="851.5625" xlink:href="#DejaVuSans-97"/>
      <use x="912.841797" xlink:href="#DejaVuSans-108"/>
      <use x="940.625" xlink:href="#DejaVuSans-115"/>
      <use x="992.724609" xlink:href="#DejaVuSans-32"/>
      <use x="1024.511719" xlink:href="#DejaVuSans-47"/>
      <use x="1058.203125" xlink:href="#DejaVuSans-32"/>
      <use x="1089.990234" xlink:href="#DejaVuSans-100"/>
      <use x="1153.466797" xlink:href="#DejaVuSans-105"/>
      <use x="1181.25" xlink:href="#DejaVuSans-109"/>
      <use x="1278.662109" xlink:href="#DejaVuSans-101"/>
      <use x="1340.185547" xlink:href="#DejaVuSans-110"/>
      <use x="1403.564453" xlink:href="#DejaVuSans-115"/>
      <use x="1455.664062" xlink:href="#DejaVuSans-105"/>
      <use x="1483.447266" xlink:href="#DejaVuSans-111"/>
      <use x="1544.628906" xlink:href="#DejaVuSans-110"/>
      <use x="1608.007812" xlink:href="#DejaVuSans-41"/>
     </g>
    </g>
   </g>
   <g id="matplotlib.axis_2">
    <g id="ytick_1">
     <g id="line2d_17">
      <path clip-path="url(#pc9640b3a10)" d="M 57.6 298.944 
L 338.688 298.944 
" style="fill:none;stroke:#b0b0b0;stroke-linecap:square;stroke-width:0.8;"/>
     </g>
     <g id="line2d_18">
      <defs>
       <path d="M 0 0 
L -3.5 0 
" id="mb33b567c2d" style="stroke:#000000;stroke-width:0.8;"/>
      </defs>
      <g>
       <use style="stroke:#000000;stroke-width:0.8;" x="57.6" xlink:href="#mb33b567c2d" y="298.944"/>
      </g>
     </g>
     <g id="text_6">
      <!-- 0.0 -->
      <g transform="translate(25.155 305.02275)scale(0.16 -0.16)">
       <defs>
        <path d="M 10.6875 12.40625 
L 21 12.40625 
L 21 0 
L 10.6875 0 
z
" id="DejaVuSans-46"/>
       </defs>
       <use xlink:href="#DejaVuSans-48"/>
       <use x="63.623047" xlink:href="#DejaVuSans-46"/>
       <use x="95.410156" xlink:href="#DejaVuSans-48"/>
      </g>
     </g>
    </g>
    <g id="ytick_2">
     <g id="line2d_19">
      <path clip-path="url(#pc9640b3a10)" d="M 57.6 245.22202 
L 338.688 245.22202 
" style="fill:none;stroke:#b0b0b0;stroke-linecap:square;stroke-width:0.8;"/>
     </g>
     <g id="line2d_20">
      <g>
       <use style="stroke:#000000;stroke-width:0.8;" x="57.6" xlink:href="#mb33b567c2d" y="245.22202"/>
      </g>
     </g>
     <g id="text_7">
      <!-- 0.2 -->
      <g transform="translate(25.155 251.30077)scale(0.16 -0.16)">
       <use xlink:href="#DejaVuSans-48"/>
       <use x="63.623047" xlink:href="#DejaVuSans-46"/>
       <use x="95.410156" xlink:href="#DejaVuSans-50"/>
      </g>
     </g>
    </g>
    <g id="ytick_3">
     <g id="line2d_21">
      <path clip-path="url(#pc9640b3a10)" d="M 57.6 191.50004 
L 338.688 191.50004 
" style="fill:none;stroke:#b0b0b0;stroke-linecap:square;stroke-width:0.8;"/>
     </g>
     <g id="line2d_22">
      <g>
       <use style="stroke:#000000;stroke-width:0.8;" x="57.6" xlink:href="#mb33b567c2d" y="191.50004"/>
      </g>
     </g>
     <g id="text_8">
      <!-- 0.4 -->
      <g transform="translate(25.155 197.57879)scale(0.16 -0.16)">
       <use xlink:href="#DejaVuSans-48"/>
       <use x="63.623047" xlink:href="#DejaVuSans-46"/>
       <use x="95.410156" xlink:href="#DejaVuSans-52"/>
      </g>
     </g>
    </g>
    <g id="ytick_4">
     <g id="line2d_23">
      <path clip-path="url(#pc9640b3a10)" d="M 57.6 137.778059 
L 338.688 137.778059 
" style="fill:none;stroke:#b0b0b0;stroke-linecap:square;stroke-width:0.8;"/>
     </g>
     <g id="line2d_24">
      <g>
       <use style="stroke:#000000;stroke-width:0.8;" x="57.6" xlink:href="#mb33b567c2d" y="137.778059"/>
      </g>
     </g>
     <g id="text_9">
      <!-- 0.6 -->
      <g transform="translate(25.155 143.856809)scale(0.16 -0.16)">
       <use xlink:href="#DejaVuSans-48"/>
       <use x="63.623047" xlink:href="#DejaVuSans-46"/>
       <use x="95.410156" xlink:href="#DejaVuSans-54"/>
      </g>
     </g>
    </g>
    <g id="ytick_5">
     <g id="line2d_25">
      <path clip-path="url(#pc9640b3a10)" d="M 57.6 84.056079 
L 338.688 84.056079 
" style="fill:none;stroke:#b0b0b0;stroke-linecap:square;stroke-width:0.8;"/>
     </g>
     <g id="line2d_26">
      <g>
       <use style="stroke:#000000;stroke-width:0.8;" x="57.6" xlink:href="#mb33b567c2d" y="84.056079"/>
      </g>
     </g>
     <g id="text_10">
      <!-- 0.8 -->
      <g transform="translate(25.155 90.134829)scale(0.16 -0.16)">
       <defs>
        <path d="M 31.78125 34.625 
Q 24.75 34.625 20.71875 30.859375 
Q 16.703125 27.09375 16.703125 20.515625 
Q 16.703125 13.921875 20.71875 10.15625 
Q 24.75 6.390625 31.78125 6.390625 
Q 38.8125 6.390625 42.859375 10.171875 
Q 46.921875 13.96875 46.921875 20.515625 
Q 46.921875 27.09375 42.890625 30.859375 
Q 38.875 34.625 31.78125 34.625 
z
M 21.921875 38.8125 
Q 15.578125 40.375 12.03125 44.71875 
Q 8.5 49.078125 8.5 55.328125 
Q 8.5 64.0625 14.71875 69.140625 
Q 20.953125 74.21875 31.78125 74.21875 
Q 42.671875 74.21875 48.875 69.140625 
Q 55.078125 64.0625 55.078125 55.328125 
Q 55.078125 49.078125 51.53125 44.71875 
Q 48 40.375 41.703125 38.8125 
Q 48.828125 37.15625 52.796875 32.3125 
Q 56.78125 27.484375 56.78125 20.515625 
Q 56.78125 9.90625 50.3125 4.234375 
Q 43.84375 -1.421875 31.78125 -1.421875 
Q 19.734375 -1.421875 13.25 4.234375 
Q 6.78125 9.90625 6.78125 20.515625 
Q 6.78125 27.484375 10.78125 32.3125 
Q 14.796875 37.15625 21.921875 38.8125 
z
M 18.3125 54.390625 
Q 18.3125 48.734375 21.84375 45.5625 
Q 25.390625 42.390625 31.78125 42.390625 
Q 38.140625 42.390625 41.71875 45.5625 
Q 45.3125 48.734375 45.3125 54.390625 
Q 45.3125 60.0625 41.71875 63.234375 
Q 38.140625 66.40625 31.78125 66.40625 
Q 25.390625 66.40625 21.84375 63.234375 
Q 18.3125 60.0625 18.3125 54.390625 
z
" id="DejaVuSans-56"/>
       </defs>
       <use xlink:href="#DejaVuSans-48"/>
       <use x="63.623047" xlink:href="#DejaVuSans-46"/>
       <use x="95.410156" xlink:href="#DejaVuSans-56"/>
      </g>
     </g>
    </g>
    <g id="ytick_6">
     <g id="line2d_27">
      <path clip-path="url(#pc9640b3a10)" d="M 57.6 30.334099 
L 338.688 30.334099 
" style="fill:none;stroke:#b0b0b0;stroke-linecap:square;stroke-width:0.8;"/>
     </g>
     <g id="line2d_28">
      <g>
       <use style="stroke:#000000;stroke-width:0.8;" x="57.6" xlink:href="#mb33b567c2d" y="30.334099"/>
      </g>
     </g>
     <g id="text_11">
      <!-- 1.0 -->
      <g transform="translate(25.155 36.412849)scale(0.16 -0.16)">
       <use xlink:href="#DejaVuSans-49"/>
       <use x="63.623047" xlink:href="#DejaVuSans-46"/>
       <use x="95.410156" xlink:href="#DejaVuSans-48"/>
      </g>
     </g>
    </g>
    <g id="text_12">
     <!-- Fraction of function,target pairs -->
     <g transform="translate(17.619531 297.681)rotate(-90)scale(0.17 -0.17)">
      <defs>
       <path d="M 9.8125 72.90625 
L 51.703125 72.90625 
L 51.703125 64.59375 
L 19.671875 64.59375 
L 19.671875 43.109375 
L 48.578125 43.109375 
L 48.578125 34.8125 
L 19.671875 34.8125 
L 19.671875 0 
L 9.8125 0 
z
" id="DejaVuSans-70"/>
       <path d="M 41.109375 46.296875 
Q 39.59375 47.171875 37.8125 47.578125 
Q 36.03125 48 33.890625 48 
Q 26.265625 48 22.1875 43.046875 
Q 18.109375 38.09375 18.109375 28.8125 
L 18.109375 0 
L 9.078125 0 
L 9.078125 54.6875 
L 18.109375 54.6875 
L 18.109375 46.1875 
Q 20.953125 51.171875 25.484375 53.578125 
Q 30.03125 56 36.53125 56 
Q 37.453125 56 38.578125 55.875 
Q 39.703125 55.765625 41.0625 55.515625 
z
" id="DejaVuSans-114"/>
       <path d="M 48.78125 52.59375 
L 48.78125 44.1875 
Q 44.96875 46.296875 41.140625 47.34375 
Q 37.3125 48.390625 33.40625 48.390625 
Q 24.65625 48.390625 19.8125 42.84375 
Q 14.984375 37.3125 14.984375 27.296875 
Q 14.984375 17.28125 19.8125 11.734375 
Q 24.65625 6.203125 33.40625 6.203125 
Q 37.3125 6.203125 41.140625 7.25 
Q 44.96875 8.296875 48.78125 10.40625 
L 48.78125 2.09375 
Q 45.015625 0.34375 40.984375 -0.53125 
Q 36.96875 -1.421875 32.421875 -1.421875 
Q 20.0625 -1.421875 12.78125 6.34375 
Q 5.515625 14.109375 5.515625 27.296875 
Q 5.515625 40.671875 12.859375 48.328125 
Q 20.21875 56 33.015625 56 
Q 37.15625 56 41.109375 55.140625 
Q 45.0625 54.296875 48.78125 52.59375 
z
" id="DejaVuSans-99"/>
       <path d="M 18.3125 70.21875 
L 18.3125 54.6875 
L 36.8125 54.6875 
L 36.8125 47.703125 
L 18.3125 47.703125 
L 18.3125 18.015625 
Q 18.3125 11.328125 20.140625 9.421875 
Q 21.96875 7.515625 27.59375 7.515625 
L 36.8125 7.515625 
L 36.8125 0 
L 27.59375 0 
Q 17.1875 0 13.234375 3.875 
Q 9.28125 7.765625 9.28125 18.015625 
L 9.28125 47.703125 
L 2.6875 47.703125 
L 2.6875 54.6875 
L 9.28125 54.6875 
L 9.28125 70.21875 
z
" id="DejaVuSans-116"/>
       <path d="M 8.5 21.578125 
L 8.5 54.6875 
L 17.484375 54.6875 
L 17.484375 21.921875 
Q 17.484375 14.15625 20.5 10.265625 
Q 23.53125 6.390625 29.59375 6.390625 
Q 36.859375 6.390625 41.078125 11.03125 
Q 45.3125 15.671875 45.3125 23.6875 
L 45.3125 54.6875 
L 54.296875 54.6875 
L 54.296875 0 
L 45.3125 0 
L 45.3125 8.40625 
Q 42.046875 3.421875 37.71875 1 
Q 33.40625 -1.421875 27.6875 -1.421875 
Q 18.265625 -1.421875 13.375 4.4375 
Q 8.5 10.296875 8.5 21.578125 
z
M 31.109375 56 
z
" id="DejaVuSans-117"/>
       <path d="M 11.71875 12.40625 
L 22.015625 12.40625 
L 22.015625 4 
L 14.015625 -11.625 
L 7.71875 -11.625 
L 11.71875 4 
z
" id="DejaVuSans-44"/>
       <path d="M 18.109375 8.203125 
L 18.109375 -20.796875 
L 9.078125 -20.796875 
L 9.078125 54.6875 
L 18.109375 54.6875 
L 18.109375 46.390625 
Q 20.953125 51.265625 25.265625 53.625 
Q 29.59375 56 35.59375 56 
Q 45.5625 56 51.78125 48.09375 
Q 58.015625 40.1875 58.015625 27.296875 
Q 58.015625 14.40625 51.78125 6.484375 
Q 45.5625 -1.421875 35.59375 -1.421875 
Q 29.59375 -1.421875 25.265625 0.953125 
Q 20.953125 3.328125 18.109375 8.203125 
z
M 48.6875 27.296875 
Q 48.6875 37.203125 44.609375 42.84375 
Q 40.53125 48.484375 33.40625 48.484375 
Q 26.265625 48.484375 22.1875 42.84375 
Q 18.109375 37.203125 18.109375 27.296875 
Q 18.109375 17.390625 22.1875 11.75 
Q 26.265625 6.109375 33.40625 6.109375 
Q 40.53125 6.109375 44.609375 11.75 
Q 48.6875 17.390625 48.6875 27.296875 
z
" id="DejaVuSans-112"/>
      </defs>
      <use xlink:href="#DejaVuSans-70"/>
      <use x="50.269531" xlink:href="#DejaVuSans-114"/>
      <use x="91.382812" xlink:href="#DejaVuSans-97"/>
      <use x="152.662109" xlink:href="#DejaVuSans-99"/>
      <use x="207.642578" xlink:href="#DejaVuSans-116"/>
      <use x="246.851562" xlink:href="#DejaVuSans-105"/>
      <use x="274.634766" xlink:href="#DejaVuSans-111"/>
      <use x="335.816406" xlink:href="#DejaVuSans-110"/>
      <use x="399.195312" xlink:href="#DejaVuSans-32"/>
      <use x="430.982422" xlink:href="#DejaVuSans-111"/>
      <use x="492.164062" xlink:href="#DejaVuSans-102"/>
      <use x="527.369141" xlink:href="#DejaVuSans-32"/>
      <use x="559.15625" xlink:href="#DejaVuSans-102"/>
      <use x="594.361328" xlink:href="#DejaVuSans-117"/>
      <use x="657.740234" xlink:href="#DejaVuSans-110"/>
      <use x="721.119141" xlink:href="#DejaVuSans-99"/>
      <use x="776.099609" xlink:href="#DejaVuSans-116"/>
      <use x="815.308594" xlink:href="#DejaVuSans-105"/>
      <use x="843.091797" xlink:href="#DejaVuSans-111"/>
      <use x="904.273438" xlink:href="#DejaVuSans-110"/>
      <use x="967.652344" xlink:href="#DejaVuSans-44"/>
      <use x="999.439453" xlink:href="#DejaVuSans-116"/>
      <use x="1038.648438" xlink:href="#DejaVuSans-97"/>
      <use x="1099.927734" xlink:href="#DejaVuSans-114"/>
      <use x="1139.291016" xlink:href="#DejaVuSans-103"/>
      <use x="1202.767578" xlink:href="#DejaVuSans-101"/>
      <use x="1264.291016" xlink:href="#DejaVuSans-116"/>
      <use x="1303.5" xlink:href="#DejaVuSans-32"/>
      <use x="1335.287109" xlink:href="#DejaVuSans-112"/>
      <use x="1398.763672" xlink:href="#DejaVuSans-97"/>
      <use x="1460.042969" xlink:href="#DejaVuSans-105"/>
      <use x="1487.826172" xlink:href="#DejaVuSans-114"/>
      <use x="1528.939453" xlink:href="#DejaVuSans-115"/>
     </g>
    </g>
   </g>
   <g id="line2d_29">
    <defs>
     <path d="M 0 1.5 
C 0.397805 1.5 0.77937 1.341951 1.06066 1.06066 
C 1.341951 0.77937 1.5 0.397805 1.5 0 
C 1.5 -0.397805 1.341951 -0.77937 1.06066 -1.06066 
C 0.77937 -1.341951 0.397805 -1.5 0 -1.5 
C -0.397805 -1.5 -0.77937 -1.341951 -1.06066 -1.06066 
C -1.341951 -0.77937 -1.5 -0.397805 -1.5 0 
C -1.5 0.397805 -1.341951 0.77937 -1.06066 1.06066 
C -0.77937 1.341951 -0.397805 1.5 0 1.5 
z
" id="mc291c78dd0" style="stroke:#000080;"/>
    </defs>
    <g>
     <use style="fill:#000080;stroke:#000080;" x="244.748005" xlink:href="#mc291c78dd0" y="30.334099"/>
     <use style="fill:#000080;stroke:#000080;" x="244.748005" xlink:href="#mc291c78dd0" y="30.334099"/>
    </g>
   </g>
   <g id="line2d_30">
    <path d="M 45.512012 298.944 
L 45.512012 295.013123 
L 57.6 295.013123 
L 57.6 294.357977 
L 69.687988 294.357977 
L 69.687988 293.047685 
L 85.66744 293.047685 
L 85.66744 292.392539 
L 93.863965 292.392539 
L 93.863965 291.082247 
L 109.843417 291.082247 
L 109.843417 290.427101 
L 112.280765 290.427101 
L 112.280765 289.771955 
L 115.711251 289.771955 
L 115.711251 289.116809 
L 118.576578 289.116809 
L 118.576578 288.461662 
L 123.192626 288.461662 
L 123.192626 282.565348 
L 123.593547 282.565348 
L 123.593547 281.255055 
L 123.985457 281.255055 
L 123.985457 280.599909 
L 125.110962 280.599909 
L 125.110962 279.944763 
L 125.470548 279.944763 
L 125.470548 278.634471 
L 126.168212 278.634471 
L 126.168212 276.669033 
L 126.50685 276.669033 
L 126.50685 275.35874 
L 128.411207 275.35874 
L 128.411207 274.703594 
L 130.127931 274.703594 
L 130.127931 273.393302 
L 130.926816 273.393302 
L 130.926816 272.08301 
L 131.185181 272.08301 
L 131.185181 271.427864 
L 132.893889 271.427864 
L 132.893889 270.772718 
L 136.073445 270.772718 
L 136.073445 269.462426 
L 143.014805 269.462426 
L 143.014805 267.496987 
L 144.981877 267.496987 
L 144.981877 265.531549 
L 146.749392 265.531549 
L 146.749392 264.876403 
L 146.958248 264.876403 
L 146.958248 264.221257 
L 147.164632 264.221257 
L 147.164632 262.910965 
L 152.511852 262.910965 
L 152.511852 262.255818 
L 154.972161 262.255818 
L 154.972161 260.945526 
L 156.953214 260.945526 
L 156.953214 260.29038 
L 157.300853 260.29038 
L 157.300853 259.635234 
L 159.758143 259.635234 
L 159.758143 258.324942 
L 162.043181 258.324942 
L 162.043181 255.704357 
L 166.391896 255.704357 
L 166.391896 254.394065 
L 167.027338 254.394065 
L 167.027338 253.083773 
L 169.27373 253.083773 
L 169.27373 251.773481 
L 169.729685 251.773481 
L 169.729685 251.118335 
L 170.432588 251.118335 
L 170.432588 250.463189 
L 170.687376 250.463189 
L 170.687376 249.152896 
L 170.951613 249.152896 
L 170.951613 248.49775 
L 171.147196 248.49775 
L 171.147196 247.842604 
L 175.906187 247.842604 
L 175.906187 247.187458 
L 180.104829 247.187458 
L 180.104829 246.532312 
L 180.62453 246.532312 
L 180.62453 245.22202 
L 181.143816 245.22202 
L 181.143816 244.566874 
L 192.753884 244.566874 
L 192.753884 243.911728 
L 193.525334 243.911728 
L 193.589898 242.601435 
L 193.810471 242.601435 
L 193.810471 241.291143 
L 193.937277 241.291143 
L 194.014318 236.705121 
L 194.125774 236.705121 
L 194.125774 236.049974 
L 194.312255 236.049974 
L 194.312255 235.394828 
L 194.595051 235.394828 
L 194.622068 232.774244 
L 194.843373 232.774244 
L 194.913204 230.808806 
L 194.989365 230.808806 
L 195.032266 228.188221 
L 195.196294 228.188221 
L 195.284231 226.222783 
L 195.381422 226.222783 
L 195.381422 225.567637 
L 195.580584 225.567637 
L 195.580584 224.912491 
L 195.701536 224.912491 
L 195.701536 224.257345 
L 195.846837 224.257345 
L 195.846837 222.947052 
L 196.003413 222.947052 
L 196.003413 222.291906 
L 196.143139 222.291906 
L 196.189467 220.981614 
L 196.294023 220.981614 
L 196.309346 218.36103 
L 196.816531 218.36103 
L 196.816531 217.705884 
L 197.085219 217.705884 
L 197.085219 216.395591 
L 197.404575 216.395591 
L 197.404575 215.740445 
L 197.582032 215.740445 
L 197.582032 214.430153 
L 197.83646 214.430153 
L 197.842072 212.464715 
L 199.092327 212.464715 
L 199.092327 211.809569 
L 204.300189 211.809569 
L 204.300189 211.154423 
L 204.841873 211.154423 
L 204.841873 210.499277 
L 205.182207 210.499277 
L 205.182207 207.878692 
L 205.376346 207.878692 
L 205.376346 205.913254 
L 205.882544 205.913254 
L 205.984858 203.292669 
L 206.048063 203.292669 
L 206.048063 201.982377 
L 206.343475 201.982377 
L 206.343475 201.327231 
L 206.525171 201.327231 
L 206.617011 198.706647 
L 206.704994 198.706647 
L 206.704994 195.430916 
L 207.373844 195.430916 
L 207.373844 194.77577 
L 207.5516 194.77577 
L 207.574094 193.465478 
L 207.781592 193.465478 
L 207.781592 192.810332 
L 208.099194 192.810332 
L 208.099194 192.155186 
L 208.295952 192.155186 
L 208.295952 190.844894 
L 208.461545 190.844894 
L 208.510309 188.879455 
L 208.908982 188.879455 
L 208.908982 187.569163 
L 209.928657 187.569163 
L 210.007043 185.603725 
L 210.182132 185.603725 
L 210.278649 179.052264 
L 210.339045 179.052264 
L 210.437426 177.741972 
L 210.456491 177.741972 
L 210.562332 174.466241 
L 210.60017 174.466241 
L 210.680976 171.845657 
L 210.817493 171.845657 
L 210.910567 168.569926 
L 210.945011 168.569926 
L 211.037408 162.673611 
L 211.068975 162.673611 
L 211.068975 160.708173 
L 212.915188 160.708173 
L 213.020078 156.777296 
L 213.176821 156.777296 
L 213.176821 154.156712 
L 213.621751 154.156712 
L 213.723616 150.880981 
L 213.759692 150.880981 
L 213.865235 146.950105 
L 213.905487 146.950105 
L 213.99016 142.364082 
L 214.038994 142.364082 
L 214.147272 138.433206 
L 214.186879 138.433206 
L 214.252692 135.157475 
L 214.420484 135.157475 
L 214.529659 133.847183 
L 214.539354 133.847183 
L 214.629585 132.536891 
L 214.668113 132.536891 
L 214.686277 131.226598 
L 214.780003 131.226598 
L 214.86583 129.26116 
L 214.909113 129.26116 
L 215.012136 124.019991 
L 215.17904 124.019991 
L 215.253629 122.709699 
L 215.311423 122.709699 
L 215.325842 120.089115 
L 215.491824 120.089115 
L 215.581329 118.123676 
L 215.803104 118.123676 
L 215.879066 116.158238 
L 216.014178 116.158238 
L 216.014178 114.1928 
L 216.803578 114.1928 
L 216.862121 112.882508 
L 217.142652 112.882508 
L 217.142652 112.227362 
L 218.17369 112.227362 
L 218.248724 110.261923 
L 218.303487 110.261923 
L 218.366728 108.951631 
L 218.495959 108.951631 
L 218.495959 108.296485 
L 218.697364 108.296485 
L 218.791295 106.331047 
L 219.2313 106.331047 
L 219.2313 105.675901 
L 219.825097 105.675901 
L 219.90762 104.365608 
L 219.940836 104.365608 
L 219.940836 103.710462 
L 220.435474 103.710462 
L 220.435474 103.055316 
L 220.571647 103.055316 
L 220.573171 101.745024 
L 220.751322 101.745024 
L 220.751322 101.089878 
L 220.924684 101.089878 
L 220.984323 99.12444 
L 221.099297 99.12444 
L 221.187792 97.159001 
L 221.469442 97.159001 
L 221.537347 95.848709 
L 222.398921 95.848709 
L 222.398921 95.193563 
L 222.561484 95.193563 
L 222.561484 94.538417 
L 222.711766 94.538417 
L 222.733994 93.228125 
L 222.884138 93.228125 
L 222.914811 91.917832 
L 223.14579 91.917832 
L 223.14579 91.262686 
L 223.662072 91.262686 
L 223.688222 89.952394 
L 223.808263 89.952394 
L 223.875859 87.986956 
L 224.061498 87.986956 
L 224.158546 84.056079 
L 224.227889 84.056079 
L 224.242713 82.745787 
L 224.600799 82.745787 
L 224.600799 82.090641 
L 224.952273 82.090641 
L 224.952273 81.435495 
L 225.650611 81.435495 
L 225.650611 80.780349 
L 225.81104 80.780349 
L 225.896602 78.81491 
L 226.03475 78.81491 
L 226.084816 77.504618 
L 226.241318 77.504618 
L 226.334111 74.228888 
L 226.372401 74.228888 
L 226.372401 73.573742 
L 227.215563 73.573742 
L 227.215563 72.918596 
L 227.440062 72.918596 
L 227.440062 72.263449 
L 227.595611 72.263449 
L 227.694156 70.298011 
L 227.723004 70.298011 
L 227.723004 69.642865 
L 227.887586 69.642865 
L 227.887586 68.987719 
L 228.056087 68.987719 
L 228.164402 67.022281 
L 228.290658 67.022281 
L 228.321469 65.711988 
L 229.277885 65.711988 
L 229.277885 65.056842 
L 229.416561 65.056842 
L 229.515858 62.436258 
L 229.683872 62.436258 
L 229.715477 61.125966 
L 229.80277 61.125966 
L 229.80277 60.47082 
L 230.244183 60.47082 
L 230.3415 59.160527 
L 230.381926 59.160527 
L 230.381926 58.505381 
L 230.673843 58.505381 
L 230.692193 55.884797 
L 230.88519 55.884797 
L 230.88519 55.229651 
L 231.417351 55.229651 
L 231.417351 53.919359 
L 231.705456 53.919359 
L 231.724763 52.609066 
L 232.309414 52.609066 
L 232.309414 51.95392 
L 232.796644 51.95392 
L 232.885634 50.643628 
L 232.941585 50.643628 
L 233.026482 49.333336 
L 233.115052 49.333336 
L 233.198003 48.023044 
L 233.28387 48.023044 
L 233.28387 47.367898 
L 233.593222 47.367898 
L 233.593222 46.712752 
L 233.716303 46.712752 
L 233.727058 45.402459 
L 235.006797 45.402459 
L 235.006797 44.747313 
L 235.168237 44.747313 
L 235.231477 43.437021 
L 235.448429 43.437021 
L 235.448429 42.781875 
L 236.194034 42.781875 
L 236.194034 42.126729 
L 236.329158 42.126729 
L 236.43166 40.161291 
L 236.452211 40.161291 
L 236.452211 39.506144 
L 236.740425 39.506144 
L 236.740425 38.850998 
L 237.14693 38.850998 
L 237.14693 38.195852 
L 237.443391 38.195852 
L 237.443391 37.540706 
L 237.559716 37.540706 
L 237.559716 36.88556 
L 238.702133 36.88556 
L 238.702133 36.230414 
L 239.196496 36.230414 
L 239.196496 35.575268 
L 239.314221 35.575268 
L 239.314221 34.920122 
L 240.374485 34.920122 
L 240.413611 33.60983 
L 240.64991 33.60983 
L 240.64991 32.954683 
L 241.070825 32.954683 
L 241.070825 32.299537 
L 242.441453 32.299537 
L 242.441453 31.644391 
L 242.926504 31.644391 
L 242.926504 30.989245 
L 244.748005 30.989245 
L 244.748005 30.334099 
L 338.688 30.334099 
L 338.688 30.334099 
" style="fill:none;stroke:#000080;stroke-linecap:square;stroke-width:1.5;"/>
   </g>
   <g id="line2d_31">
    <defs>
     <path d="M 0 6 
C 1.591219 6 3.117479 5.367802 4.242641 4.242641 
C 5.367802 3.117479 6 1.591219 6 0 
C 6 -1.591219 5.367802 -3.117479 4.242641 -4.242641 
C 3.117479 -5.367802 1.591219 -6 0 -6 
C -1.591219 -6 -3.117479 -5.367802 -4.242641 -4.242641 
C -5.367802 -3.117479 -6 -1.591219 -6 0 
C -6 1.591219 -5.367802 3.117479 -4.242641 4.242641 
C -3.117479 5.367802 -1.591219 6 0 6 
z
" id="m7bc0a80e1e" style="stroke:#000080;stroke-width:1.5;"/>
    </defs>
    <g>
     <use style="fill-opacity:0;stroke:#000080;stroke-width:1.5;" x="169.729685" xlink:href="#m7bc0a80e1e" y="251.773481"/>
     <use style="fill-opacity:0;stroke:#000080;stroke-width:1.5;" x="210.945011" xlink:href="#m7bc0a80e1e" y="168.569926"/>
     <use style="fill-opacity:0;stroke:#000080;stroke-width:1.5;" x="236.194034" xlink:href="#m7bc0a80e1e" y="42.126729"/>
     <use style="fill-opacity:0;stroke:#000080;stroke-width:1.5;" x="244.748005" xlink:href="#m7bc0a80e1e" y="30.334099"/>
     <use style="fill-opacity:0;stroke:#000080;stroke-width:1.5;" x="244.748005" xlink:href="#m7bc0a80e1e" y="30.334099"/>
     <use style="fill-opacity:0;stroke:#000080;stroke-width:1.5;" x="338.688" xlink:href="#m7bc0a80e1e" y="30.334099"/>
    </g>
   </g>
   <g id="line2d_32">
    <path style="fill:none;stroke:#000080;stroke-linecap:square;stroke-width:1.5;"/>
    <g/>
   </g>
   <g id="line2d_33">
    <path clip-path="url(#pc9640b3a10)" d="M 212.915188 157.432442 
" style="fill:none;stroke:#000080;stroke-linecap:square;stroke-width:1.5;"/>
    <defs>
     <path d="M -12 12 
L 12 -12 
M -12 -12 
L 12 12 
" id="ma3b41483ac" style="stroke:#000080;"/>
    </defs>
    <g clip-path="url(#pc9640b3a10)">
     <use style="fill:#000080;stroke:#000080;" x="212.915188" xlink:href="#ma3b41483ac" y="157.432442"/>
    </g>
   </g>
   <g id="line2d_34">
    <defs>
     <path d="M 0 1.5 
C 0.397805 1.5 0.77937 1.341951 1.06066 1.06066 
C 1.341951 0.77937 1.5 0.397805 1.5 0 
C 1.5 -0.397805 1.341951 -0.77937 1.06066 -1.06066 
C 0.77937 -1.341951 0.397805 -1.5 0 -1.5 
C -0.397805 -1.5 -0.77937 -1.341951 -1.06066 -1.06066 
C -1.341951 -0.77937 -1.5 -0.397805 -1.5 0 
C -1.5 0.397805 -1.341951 0.77937 -1.06066 1.06066 
C -0.77937 1.341951 -0.397805 1.5 0 1.5 
z
" id="m48811fef6c" style="stroke:#ff00ff;"/>
    </defs>
    <g>
     <use style="fill:#ff00ff;stroke:#ff00ff;" x="258.137457" xlink:href="#m48811fef6c" y="30.334099"/>
     <use style="fill:#ff00ff;stroke:#ff00ff;" x="258.137457" xlink:href="#m48811fef6c" y="30.334099"/>
    </g>
   </g>
   <g id="line2d_35">
    <path d="M 45.512012 298.944 
L 45.512012 295.66827 
L 57.6 295.66827 
L 57.6 293.047685 
L 76.759008 293.047685 
L 76.759008 292.392539 
L 81.775977 292.392539 
L 81.775977 291.082247 
L 88.846997 291.082247 
L 88.846997 290.427101 
L 108.948899 290.427101 
L 108.948899 289.771955 
L 109.843417 289.771955 
L 109.843417 289.116809 
L 111.505558 289.116809 
L 111.505558 288.461662 
L 114.418861 288.461662 
L 114.418861 287.806516 
L 119.097192 287.806516 
L 119.097192 287.15137 
L 120.093994 287.15137 
L 120.093994 286.496224 
L 121.036887 286.496224 
L 121.036887 285.185932 
L 121.489881 285.185932 
L 121.489881 284.530786 
L 121.931406 284.530786 
L 121.931406 283.87564 
L 122.362027 283.87564 
L 122.362027 283.220494 
L 122.782271 283.220494 
L 122.782271 282.565348 
L 123.593547 282.565348 
L 123.593547 279.289617 
L 124.743806 279.289617 
L 124.743806 277.979325 
L 125.822869 277.979325 
L 125.822869 277.324179 
L 127.48501 277.324179 
L 127.48501 276.013887 
L 128.411207 276.013887 
L 128.411207 275.35874 
L 130.398313 275.35874 
L 130.398313 273.393302 
L 131.690703 273.393302 
L 131.690703 272.738156 
L 135.482227 272.738156 
L 135.482227 272.08301 
L 136.456742 272.08301 
L 136.456742 268.807279 
L 138.426341 268.807279 
L 138.426341 268.152133 
L 139.730821 268.152133 
L 139.730821 267.496987 
L 141.941279 267.496987 
L 141.941279 266.841841 
L 142.07914 266.841841 
L 142.07914 266.186695 
L 144.865226 266.186695 
L 144.865226 265.531549 
L 169.431813 265.531549 
L 169.431813 264.221257 
L 170.40555 264.221257 
L 170.40555 263.566111 
L 174.84832 263.566111 
L 174.84832 262.910965 
L 181.47683 262.910965 
L 181.54839 259.635234 
L 183.746262 259.635234 
L 183.746262 258.324942 
L 184.193766 258.324942 
L 184.193766 257.01465 
L 185.84363 257.01465 
L 185.84363 256.359504 
L 186.420143 256.359504 
L 186.420143 255.704357 
L 186.883796 255.704357 
L 186.883796 255.049211 
L 186.999115 255.049211 
L 187.061696 253.738919 
L 187.483428 253.738919 
L 187.574653 251.773481 
L 187.655344 251.773481 
L 187.655344 251.118335 
L 187.775685 251.118335 
L 187.775685 249.808043 
L 188.131803 249.808043 
L 188.131803 248.49775 
L 188.785252 248.49775 
L 188.785252 247.842604 
L 188.93551 247.842604 
L 188.93551 247.187458 
L 189.158498 247.187458 
L 189.213803 245.877166 
L 189.824183 245.877166 
L 189.824183 244.566874 
L 191.354553 244.566874 
L 191.407381 243.256582 
L 191.725016 243.256582 
L 191.776735 241.946289 
L 192.048706 241.946289 
L 192.048706 241.291143 
L 192.219948 241.291143 
L 192.219948 240.635997 
L 192.625709 240.635997 
L 192.663505 239.325705 
L 193.022243 239.325705 
L 193.110787 238.015413 
L 193.388244 238.015413 
L 193.388244 237.360267 
L 193.923233 237.360267 
L 194.021305 236.049974 
L 194.118829 236.049974 
L 194.118829 233.42939 
L 194.510353 233.42939 
L 194.510353 230.808806 
L 195.494132 230.808806 
L 195.494132 230.15366 
L 197.367137 230.15366 
L 197.367137 229.498513 
L 198.059543 229.498513 
L 198.131435 228.188221 
L 198.21402 228.188221 
L 198.301683 226.877929 
L 198.421503 226.877929 
L 198.529721 222.947052 
L 198.839809 222.947052 
L 198.871574 220.981614 
L 199.571416 220.981614 
L 199.571416 220.326468 
L 199.965811 220.326468 
L 199.965811 217.050738 
L 200.293076 217.050738 
L 200.378187 215.085299 
L 200.688345 215.085299 
L 200.688345 214.430153 
L 200.844922 214.430153 
L 200.844922 213.775007 
L 201.039855 213.775007 
L 201.12838 210.499277 
L 201.304092 210.499277 
L 201.304092 209.84413 
L 201.473495 209.84413 
L 201.473495 209.188984 
L 201.591559 209.188984 
L 201.639013 207.223546 
L 201.713323 207.223546 
L 201.782843 204.602962 
L 201.849857 204.602962 
L 201.947681 202.637523 
L 201.969837 202.637523 
L 201.969837 201.982377 
L 202.18768 201.982377 
L 202.18768 201.327231 
L 202.404994 201.327231 
L 202.404994 200.672085 
L 202.581194 200.672085 
L 202.581194 200.016939 
L 202.991101 200.016939 
L 202.991101 199.361793 
L 205.062083 199.361793 
L 205.130563 198.051501 
L 206.36586 198.051501 
L 206.36586 197.396355 
L 207.031034 197.396355 
L 207.031034 196.741208 
L 207.231961 196.741208 
L 207.231961 195.430916 
L 207.450016 195.430916 
L 207.450016 194.120624 
L 207.639802 194.120624 
L 207.684535 192.155186 
L 207.770482 192.155186 
L 207.770482 188.879455 
L 208.057075 188.879455 
L 208.057075 188.224309 
L 208.406522 188.224309 
L 208.430998 186.914017 
L 210.004249 186.914017 
L 210.004249 186.258871 
L 211.548533 186.258871 
L 211.656864 184.948579 
L 211.725338 184.948579 
L 211.725338 184.293433 
L 212.22189 184.293433 
L 212.324907 182.98314 
L 212.426104 182.98314 
L 212.426104 182.327994 
L 212.62555 182.327994 
L 212.719046 181.017702 
L 212.764414 181.017702 
L 212.844119 179.70741 
L 212.887979 179.70741 
L 212.991855 175.776533 
L 213.001268 175.776533 
L 213.077558 174.466241 
L 213.169832 174.466241 
L 213.218692 169.880218 
L 213.283625 169.880218 
L 213.39093 164.63905 
L 213.52157 164.63905 
L 213.584251 163.328757 
L 213.675021 163.328757 
L 213.751807 161.363319 
L 213.802435 161.363319 
L 213.856277 159.397881 
L 214.970159 159.397881 
L 214.998505 158.087589 
L 215.255697 158.087589 
L 215.286678 156.777296 
L 215.495902 156.777296 
L 215.495902 156.12215 
L 215.644115 156.12215 
L 215.66634 154.811858 
L 215.778044 154.811858 
L 215.850119 152.84642 
L 215.982481 152.84642 
L 216.068523 150.880981 
L 216.184549 150.880981 
L 216.235435 148.260397 
L 216.436542 148.260397 
L 216.495366 146.950105 
L 216.557829 146.950105 
L 216.557829 146.294959 
L 217.434256 146.294959 
L 217.506174 144.984667 
L 218.071967 144.984667 
L 218.071967 144.32952 
L 218.819123 144.32952 
L 218.819123 143.674374 
L 219.022682 143.674374 
L 219.129786 141.708936 
L 219.143852 141.708936 
L 219.143852 141.05379 
L 219.27486 141.05379 
L 219.318312 139.743498 
L 219.432572 139.743498 
L 219.526681 137.778059 
L 219.62833 137.778059 
L 219.714989 136.467767 
L 219.746976 136.467767 
L 219.746976 135.812621 
L 220.265687 135.812621 
L 220.265687 135.157475 
L 220.588404 135.157475 
L 220.588404 134.502329 
L 220.702984 134.502329 
L 220.702984 133.847183 
L 221.300706 133.847183 
L 221.300706 133.192037 
L 222.041179 133.192037 
L 222.151502 131.881745 
L 222.241753 131.881745 
L 222.322582 129.26116 
L 222.389997 129.26116 
L 222.389997 128.606014 
L 222.5036 128.606014 
L 222.5036 127.950868 
L 222.708395 127.950868 
L 222.806546 125.98543 
L 223.075959 125.98543 
L 223.075959 125.330284 
L 223.291792 125.330284 
L 223.291792 124.019991 
L 223.410699 124.019991 
L 223.494034 122.054553 
L 223.578896 122.054553 
L 223.578896 121.399407 
L 223.760727 121.399407 
L 223.852514 119.433969 
L 223.905468 119.433969 
L 224.013397 118.123676 
L 224.032153 118.123676 
L 224.142409 115.503092 
L 224.313568 115.503092 
L 224.313568 114.847946 
L 224.431228 114.847946 
L 224.490978 113.537654 
L 224.891111 113.537654 
L 224.891111 112.882508 
L 225.025622 112.882508 
L 225.025622 112.227362 
L 225.378557 112.227362 
L 225.466261 110.917069 
L 225.490417 110.917069 
L 225.490417 110.261923 
L 225.664274 110.261923 
L 225.750557 106.986193 
L 225.919048 106.986193 
L 225.984539 104.365608 
L 226.044218 104.365608 
L 226.044218 103.710462 
L 226.187834 103.710462 
L 226.187834 103.055316 
L 226.460696 103.055316 
L 226.460696 102.40017 
L 226.633803 102.40017 
L 226.633803 101.745024 
L 226.835032 101.745024 
L 226.835032 101.089878 
L 227.037121 101.089878 
L 227.077575 99.779586 
L 227.629707 99.779586 
L 227.629707 99.12444 
L 227.819827 99.12444 
L 227.819827 98.469293 
L 228.106619 98.469293 
L 228.114532 97.159001 
L 228.227399 97.159001 
L 228.331239 94.538417 
L 228.373675 94.538417 
L 228.47326 93.228125 
L 228.562644 93.228125 
L 228.562644 92.572979 
L 228.866484 92.572979 
L 228.970836 91.262686 
L 228.990597 91.262686 
L 229.064269 89.952394 
L 229.111966 89.952394 
L 229.189312 88.642102 
L 229.274184 88.642102 
L 229.316235 87.33181 
L 229.432157 87.33181 
L 229.459186 86.021518 
L 229.591437 86.021518 
L 229.647229 84.711225 
L 229.825646 84.711225 
L 229.916405 83.400933 
L 230.146759 83.400933 
L 230.146759 82.745787 
L 230.459472 82.745787 
L 230.492292 81.435495 
L 230.619105 81.435495 
L 230.718192 79.470057 
L 231.014213 79.470057 
L 231.06731 78.159764 
L 231.189195 78.159764 
L 231.221085 76.849472 
L 231.327927 76.849472 
L 231.336972 75.53918 
L 231.678068 75.53918 
L 231.688545 74.228888 
L 231.959553 74.228888 
L 231.986898 72.918596 
L 232.398598 72.918596 
L 232.398598 72.263449 
L 232.746671 72.263449 
L 232.796266 70.953157 
L 232.988386 70.953157 
L 232.988386 70.298011 
L 233.262167 70.298011 
L 233.262167 69.642865 
L 233.521928 69.642865 
L 233.5719 67.677427 
L 233.633264 67.677427 
L 233.633264 67.022281 
L 233.768225 67.022281 
L 233.768225 66.367135 
L 234.468371 66.367135 
L 234.468371 65.711988 
L 234.588859 65.711988 
L 234.609655 64.401696 
L 234.792338 64.401696 
L 234.883805 61.781112 
L 235.433161 61.781112 
L 235.433161 61.125966 
L 235.854109 61.125966 
L 235.947762 59.815674 
L 236.181585 59.815674 
L 236.181585 59.160527 
L 236.404938 59.160527 
L 236.404938 58.505381 
L 236.657611 58.505381 
L 236.657611 57.850235 
L 236.775066 57.850235 
L 236.775066 57.195089 
L 237.678128 57.195089 
L 237.732619 55.884797 
L 237.921586 55.884797 
L 237.921586 55.229651 
L 238.246806 55.229651 
L 238.316639 53.919359 
L 238.439614 53.919359 
L 238.447544 52.609066 
L 238.738201 52.609066 
L 238.84703 49.988482 
L 239.136677 49.988482 
L 239.153752 48.67819 
L 239.373694 48.67819 
L 239.443298 46.712752 
L 239.5468 46.712752 
L 239.635906 45.402459 
L 240.451917 45.402459 
L 240.470917 44.092167 
L 240.724211 44.092167 
L 240.724211 43.437021 
L 241.027254 43.437021 
L 241.027254 42.781875 
L 241.537101 42.781875 
L 241.537101 42.126729 
L 242.116185 42.126729 
L 242.116185 41.471583 
L 242.375005 41.471583 
L 242.41817 40.161291 
L 243.01026 40.161291 
L 243.01026 39.506144 
L 243.168234 39.506144 
L 243.168234 38.850998 
L 243.3159 38.850998 
L 243.34772 37.540706 
L 243.619121 37.540706 
L 243.619121 36.88556 
L 244.041591 36.88556 
L 244.117801 35.575268 
L 244.388265 35.575268 
L 244.388265 34.920122 
L 245.710259 34.920122 
L 245.710259 34.264976 
L 246.589817 34.264976 
L 246.589817 33.60983 
L 247.805146 33.60983 
L 247.805146 32.954683 
L 250.06626 32.954683 
L 250.06626 32.299537 
L 252.580195 32.299537 
L 252.580195 31.644391 
L 254.832519 31.644391 
L 254.832519 30.989245 
L 258.137457 30.989245 
L 258.137457 30.334099 
L 338.688 30.334099 
L 338.688 30.334099 
" style="fill:none;stroke:#ff00ff;stroke-linecap:square;stroke-width:1.5;"/>
   </g>
   <g id="line2d_36">
    <defs>
     <path d="M -0 8.485281 
L 5.091169 0 
L 0 -8.485281 
L -5.091169 -0 
z
" id="m0457a5e1ab" style="stroke:#ff00ff;stroke-linejoin:miter;stroke-width:1.5;"/>
    </defs>
    <g>
     <use style="fill-opacity:0;stroke:#ff00ff;stroke-linejoin:miter;stroke-width:1.5;" x="122.782271" xlink:href="#m0457a5e1ab" y="282.565348"/>
     <use style="fill-opacity:0;stroke:#ff00ff;stroke-linejoin:miter;stroke-width:1.5;" x="198.871574" xlink:href="#m0457a5e1ab" y="221.63676"/>
     <use style="fill-opacity:0;stroke:#ff00ff;stroke-linejoin:miter;stroke-width:1.5;" x="234.468371" xlink:href="#m0457a5e1ab" y="65.711988"/>
     <use style="fill-opacity:0;stroke:#ff00ff;stroke-linejoin:miter;stroke-width:1.5;" x="258.137457" xlink:href="#m0457a5e1ab" y="30.989245"/>
     <use style="fill-opacity:0;stroke:#ff00ff;stroke-linejoin:miter;stroke-width:1.5;" x="258.137457" xlink:href="#m0457a5e1ab" y="30.334099"/>
     <use style="fill-opacity:0;stroke:#ff00ff;stroke-linejoin:miter;stroke-width:1.5;" x="338.688" xlink:href="#m0457a5e1ab" y="30.334099"/>
    </g>
   </g>
   <g id="line2d_37">
    <path style="fill:none;stroke:#ff00ff;stroke-linecap:square;stroke-width:1.5;"/>
    <g/>
   </g>
   <g id="line2d_38">
    <path clip-path="url(#pc9640b3a10)" d="M 206.63227 197.396355 
" style="fill:none;stroke:#ff00ff;stroke-linecap:square;stroke-width:1.5;"/>
    <defs>
     <path d="M -12 12 
L 12 -12 
M -12 -12 
L 12 12 
" id="m13752a5e85" style="stroke:#ff00ff;"/>
    </defs>
    <g clip-path="url(#pc9640b3a10)">
     <use style="fill:#ff00ff;stroke:#ff00ff;" x="206.63227" xlink:href="#m13752a5e85" y="197.396355"/>
    </g>
   </g>
   <g id="line2d_39">
    <defs>
     <path d="M 0 1.5 
C 0.397805 1.5 0.77937 1.341951 1.06066 1.06066 
C 1.341951 0.77937 1.5 0.397805 1.5 0 
C 1.5 -0.397805 1.341951 -0.77937 1.06066 -1.06066 
C 0.77937 -1.341951 0.397805 -1.5 0 -1.5 
C -0.397805 -1.5 -0.77937 -1.341951 -1.06066 -1.06066 
C -1.341951 -0.77937 -1.5 -0.397805 -1.5 0 
C -1.5 0.397805 -1.341951 0.77937 -1.06066 1.06066 
C -0.77937 1.341951 -0.397805 1.5 0 1.5 
z
" id="m977c504ca9" style="stroke:#ff7500;"/>
    </defs>
    <g>
     <use style="fill:#ff7500;stroke:#ff7500;" x="257.14416" xlink:href="#m977c504ca9" y="30.334099"/>
     <use style="fill:#ff7500;stroke:#ff7500;" x="257.14416" xlink:href="#m977c504ca9" y="30.334099"/>
    </g>
   </g>
   <g id="line2d_40">
    <path d="M 45.512012 298.944 
L 45.512012 294.357977 
L 69.687988 294.357977 
L 69.687988 293.702831 
L 85.66744 293.702831 
L 85.66744 292.392539 
L 95.918017 292.392539 
L 95.918017 291.082247 
L 104.826449 291.082247 
L 104.826449 290.427101 
L 105.951954 290.427101 
L 105.951954 289.771955 
L 109.843417 289.771955 
L 109.843417 287.806516 
L 110.694282 287.806516 
L 110.694282 287.15137 
L 115.711251 287.15137 
L 115.711251 286.496224 
L 116.323218 286.496224 
L 116.323218 285.841078 
L 118.576578 285.841078 
L 118.576578 285.185932 
L 119.097192 285.185932 
L 119.097192 283.220494 
L 120.571812 283.220494 
L 120.571812 282.565348 
L 121.036887 282.565348 
L 121.036887 281.910201 
L 121.489881 281.910201 
L 121.489881 280.599909 
L 122.782271 280.599909 
L 122.782271 279.944763 
L 125.822869 279.944763 
L 125.822869 279.289617 
L 128.107907 279.289617 
L 128.107907 277.324179 
L 128.709321 277.324179 
L 128.709321 276.669033 
L 130.127931 276.669033 
L 130.127931 276.013887 
L 132.422528 276.013887 
L 132.422528 275.35874 
L 133.800029 275.35874 
L 133.800029 274.703594 
L 134.450015 274.703594 
L 134.450015 274.048448 
L 136.645276 274.048448 
L 136.645276 272.738156 
L 139.253002 272.738156 
L 139.253002 272.08301 
L 139.730821 272.08301 
L 139.730821 271.427864 
L 139.887228 271.427864 
L 139.887228 270.772718 
L 140.79731 270.772718 
L 140.79731 270.117572 
L 141.378673 270.117572 
L 141.378673 268.807279 
L 143.014805 268.807279 
L 143.014805 268.152133 
L 144.269971 268.152133 
L 144.269971 267.496987 
L 150.258492 267.496987 
L 150.258492 266.841841 
L 150.51433 266.841841 
L 150.51433 266.186695 
L 151.340991 266.186695 
L 151.421542 264.221257 
L 153.466662 264.221257 
L 153.466662 263.566111 
L 170.459584 263.566111 
L 170.459584 262.255818 
L 170.620687 262.255818 
L 170.620687 261.600672 
L 170.912232 261.600672 
L 170.912232 257.669796 
L 172.105778 257.669796 
L 172.154799 256.359504 
L 172.301041 256.359504 
L 172.373705 255.049211 
L 173.632396 255.049211 
L 173.632396 253.083773 
L 175.139502 253.083773 
L 175.139502 252.428627 
L 175.324155 252.428627 
L 175.324155 249.808043 
L 176.23856 249.808043 
L 176.23856 249.152896 
L 176.564717 249.152896 
L 176.564717 247.842604 
L 177.088964 247.842604 
L 177.088964 247.187458 
L 177.490094 247.187458 
L 177.490094 246.532312 
L 177.633702 246.532312 
L 177.687252 243.911728 
L 178.127217 243.911728 
L 178.213893 242.601435 
L 178.624047 242.601435 
L 178.624047 241.946289 
L 179.221739 241.946289 
L 179.221739 241.291143 
L 179.335615 241.291143 
L 179.335615 240.635997 
L 179.783827 240.635997 
L 179.831174 239.325705 
L 180.616999 239.325705 
L 180.616999 237.360267 
L 181.541248 237.360267 
L 181.541248 236.705121 
L 181.950772 236.705121 
L 181.978663 235.394828 
L 182.296252 235.394828 
L 182.296252 234.739682 
L 182.92779 234.739682 
L 182.92779 233.42939 
L 184.126136 233.42939 
L 184.126136 232.774244 
L 184.248905 232.774244 
L 184.248905 232.119098 
L 185.073244 232.119098 
L 185.073244 231.463952 
L 185.212713 231.463952 
L 185.212713 230.808806 
L 185.726005 230.808806 
L 185.815696 229.498513 
L 186.376882 229.498513 
L 186.376882 228.843367 
L 186.506343 228.843367 
L 186.506343 228.188221 
L 186.656175 228.188221 
L 186.656175 227.533075 
L 186.889055 227.533075 
L 186.983435 226.222783 
L 187.014782 226.222783 
L 187.014782 224.912491 
L 187.212014 224.912491 
L 187.314931 222.947052 
L 187.760688 222.947052 
L 187.800652 220.981614 
L 187.939809 220.981614 
L 187.98924 219.016176 
L 188.185575 219.016176 
L 188.185575 218.36103 
L 188.321706 218.36103 
L 188.321706 216.395591 
L 188.996185 216.395591 
L 188.996185 215.085299 
L 189.501307 215.085299 
L 189.501307 213.775007 
L 190.145552 213.775007 
L 190.193469 212.464715 
L 190.323484 212.464715 
L 190.413921 210.499277 
L 190.96773 210.499277 
L 190.96773 209.84413 
L 191.443861 209.84413 
L 191.443861 209.188984 
L 192.750128 209.188984 
L 192.750128 208.533838 
L 192.933248 208.533838 
L 192.933248 207.878692 
L 193.979342 207.878692 
L 193.979342 207.223546 
L 194.24342 207.223546 
L 194.24342 206.5684 
L 194.3945 206.5684 
L 194.3945 205.913254 
L 194.739777 205.913254 
L 194.739777 205.258108 
L 194.906565 205.258108 
L 194.952982 202.637523 
L 195.065195 202.637523 
L 195.150521 200.672085 
L 195.183228 200.672085 
L 195.206086 198.706647 
L 195.679318 198.706647 
L 195.679318 197.396355 
L 195.890821 197.396355 
L 195.890821 196.741208 
L 196.437532 196.741208 
L 196.437532 196.086062 
L 196.697104 196.086062 
L 196.697104 195.430916 
L 196.837347 195.430916 
L 196.837347 194.77577 
L 197.005929 194.77577 
L 197.070563 193.465478 
L 197.553532 193.465478 
L 197.553532 192.810332 
L 197.799938 192.810332 
L 197.799938 191.50004 
L 197.923243 191.50004 
L 197.984571 190.189747 
L 198.062313 190.189747 
L 198.153496 188.879455 
L 198.682781 188.879455 
L 198.725504 187.569163 
L 198.956 187.569163 
L 199.019053 185.603725 
L 199.079265 185.603725 
L 199.162694 181.017702 
L 199.384953 181.017702 
L 199.384953 179.70741 
L 199.720676 179.70741 
L 199.720676 179.052264 
L 199.983189 179.052264 
L 199.983189 178.397118 
L 200.094496 178.397118 
L 200.094496 177.741972 
L 200.219791 177.741972 
L 200.219791 175.776533 
L 200.523133 175.776533 
L 200.542368 174.466241 
L 200.877956 174.466241 
L 200.877956 173.811095 
L 201.053863 173.811095 
L 201.053863 173.155949 
L 201.24187 173.155949 
L 201.24187 172.500803 
L 201.832012 172.500803 
L 201.832012 171.845657 
L 202.084599 171.845657 
L 202.084599 171.190511 
L 202.437359 171.190511 
L 202.437359 170.535364 
L 203.016143 170.535364 
L 203.016143 169.225072 
L 203.171842 169.225072 
L 203.184238 167.259634 
L 203.313868 167.259634 
L 203.313868 165.949342 
L 203.452714 165.949342 
L 203.452714 165.294196 
L 203.626744 165.294196 
L 203.721124 163.983903 
L 204.030776 163.983903 
L 204.030776 163.328757 
L 204.261401 163.328757 
L 204.286623 162.018465 
L 205.857757 162.018465 
L 205.857757 161.363319 
L 206.884652 161.363319 
L 206.974623 158.087589 
L 207.007828 158.087589 
L 207.007828 157.432442 
L 207.422503 157.432442 
L 207.422503 156.777296 
L 207.604575 156.777296 
L 207.604575 156.12215 
L 207.821215 156.12215 
L 207.887578 154.811858 
L 207.941116 154.811858 
L 207.941116 154.156712 
L 208.082047 154.156712 
L 208.082047 153.501566 
L 208.251218 153.501566 
L 208.251218 152.84642 
L 208.363606 152.84642 
L 208.363606 151.536128 
L 208.704014 151.536128 
L 208.737091 147.605251 
L 208.852371 147.605251 
L 208.901544 144.32952 
L 208.992076 144.32952 
L 209.046761 143.019228 
L 209.143883 143.019228 
L 209.214179 140.398644 
L 209.295835 140.398644 
L 209.322 139.088352 
L 209.496879 139.088352 
L 209.594393 137.778059 
L 209.674292 137.778059 
L 209.674292 137.122913 
L 210.366429 137.122913 
L 210.366429 136.467767 
L 211.015013 136.467767 
L 211.015013 135.812621 
L 211.271478 135.812621 
L 211.325948 134.502329 
L 211.538303 134.502329 
L 211.538303 133.847183 
L 211.659405 133.847183 
L 211.749367 132.536891 
L 211.892849 132.536891 
L 211.952911 131.226598 
L 212.273475 131.226598 
L 212.273475 130.571452 
L 212.561734 130.571452 
L 212.561734 129.916306 
L 213.207071 129.916306 
L 213.207071 129.26116 
L 214.11199 129.26116 
L 214.148374 127.950868 
L 214.403126 127.950868 
L 214.494063 125.98543 
L 214.684141 125.98543 
L 214.684141 125.330284 
L 214.937557 125.330284 
L 214.937557 124.019991 
L 215.102046 124.019991 
L 215.197718 122.709699 
L 215.343334 122.709699 
L 215.446898 120.089115 
L 215.839127 120.089115 
L 215.839127 119.433969 
L 216.009229 119.433969 
L 216.009229 118.778823 
L 216.148251 118.778823 
L 216.148251 118.123676 
L 216.411409 118.123676 
L 216.411409 117.46853 
L 216.691611 117.46853 
L 216.691611 116.158238 
L 217.034714 116.158238 
L 217.131517 114.847946 
L 217.33729 114.847946 
L 217.426957 113.537654 
L 218.304355 113.537654 
L 218.412499 112.227362 
L 218.632759 112.227362 
L 218.632759 111.572215 
L 218.754967 111.572215 
L 218.83765 110.261923 
L 218.872966 110.261923 
L 218.872966 109.606777 
L 219.003516 109.606777 
L 219.003516 108.951631 
L 219.171123 108.951631 
L 219.171123 108.296485 
L 219.617065 108.296485 
L 219.727791 106.331047 
L 219.809978 106.331047 
L 219.809978 105.675901 
L 219.932143 105.675901 
L 220.003143 103.055316 
L 220.113799 103.055316 
L 220.199642 101.745024 
L 220.236969 101.745024 
L 220.33689 99.779586 
L 220.350787 99.779586 
L 220.350787 99.12444 
L 220.662095 99.12444 
L 220.662095 98.469293 
L 220.78297 98.469293 
L 220.78297 97.814147 
L 221.098558 97.814147 
L 221.206907 95.848709 
L 221.211315 95.848709 
L 221.263393 93.228125 
L 221.347417 93.228125 
L 221.44264 91.917832 
L 221.66736 91.917832 
L 221.66736 91.262686 
L 222.149413 91.262686 
L 222.241753 89.952394 
L 222.390684 89.952394 
L 222.390684 89.297248 
L 222.706372 89.297248 
L 222.706372 88.642102 
L 222.866108 88.642102 
L 222.866108 87.986956 
L 223.175351 87.986956 
L 223.27679 86.676664 
L 223.304826 86.676664 
L 223.304826 86.021518 
L 223.46759 86.021518 
L 223.479205 84.711225 
L 223.578896 84.711225 
L 223.612214 83.400933 
L 224.075841 83.400933 
L 224.075841 82.745787 
L 224.409227 82.745787 
L 224.409227 82.090641 
L 224.529889 82.090641 
L 224.529889 81.435495 
L 224.79029 81.435495 
L 224.79029 80.780349 
L 225.689295 80.780349 
L 225.769233 79.470057 
L 225.862315 79.470057 
L 225.862315 78.81491 
L 226.191147 78.81491 
L 226.247372 77.504618 
L 226.333563 77.504618 
L 226.358736 76.194326 
L 226.627881 76.194326 
L 226.627881 75.53918 
L 227.247812 75.53918 
L 227.247812 74.884034 
L 227.406107 74.884034 
L 227.406107 74.228888 
L 227.552258 74.228888 
L 227.552258 73.573742 
L 227.749785 73.573742 
L 227.749785 72.918596 
L 228.008892 72.918596 
L 228.008892 72.263449 
L 228.180172 72.263449 
L 228.260283 70.953157 
L 228.315605 70.953157 
L 228.315605 70.298011 
L 228.900549 70.298011 
L 228.934077 68.987719 
L 229.293143 68.987719 
L 229.373832 67.022281 
L 229.573255 67.022281 
L 229.661262 65.711988 
L 229.873991 65.711988 
L 229.873991 65.056842 
L 230.047902 65.056842 
L 230.135313 63.74655 
L 230.193783 63.74655 
L 230.212207 62.436258 
L 230.417926 62.436258 
L 230.417926 61.781112 
L 231.432074 61.781112 
L 231.432074 61.125966 
L 231.703444 61.125966 
L 231.757295 59.815674 
L 231.837761 59.815674 
L 231.837761 59.160527 
L 232.647439 59.160527 
L 232.647439 58.505381 
L 233.724907 58.505381 
L 233.724907 57.850235 
L 234.195933 57.850235 
L 234.28398 56.539943 
L 234.678343 56.539943 
L 234.678343 55.884797 
L 234.877096 55.884797 
L 234.917313 54.574505 
L 235.009128 54.574505 
L 235.009128 53.919359 
L 235.376846 53.919359 
L 235.460115 52.609066 
L 236.273809 52.609066 
L 236.273809 51.95392 
L 236.524712 51.95392 
L 236.627895 50.643628 
L 237.137206 50.643628 
L 237.137206 49.988482 
L 237.286295 49.988482 
L 237.286295 49.333336 
L 237.962115 49.333336 
L 237.962115 48.67819 
L 238.147511 48.67819 
L 238.206657 47.367898 
L 238.315262 47.367898 
L 238.315262 46.712752 
L 238.530191 46.712752 
L 238.55412 45.402459 
L 238.647079 45.402459 
L 238.647079 44.747313 
L 239.041014 44.747313 
L 239.041014 44.092167 
L 239.629775 44.092167 
L 239.629775 43.437021 
L 240.095139 43.437021 
L 240.095139 42.781875 
L 240.341405 42.781875 
L 240.341405 42.126729 
L 241.418986 42.126729 
L 241.418986 41.471583 
L 241.938047 41.471583 
L 241.938047 40.816437 
L 242.554375 40.816437 
L 242.554375 40.161291 
L 242.962418 40.161291 
L 242.962418 39.506144 
L 243.097176 39.506144 
L 243.097176 38.850998 
L 243.378245 38.850998 
L 243.388134 37.540706 
L 243.752346 37.540706 
L 243.752346 36.88556 
L 244.095269 36.88556 
L 244.095269 36.230414 
L 245.117082 36.230414 
L 245.117082 35.575268 
L 246.750204 35.575268 
L 246.750204 34.920122 
L 247.264143 34.920122 
L 247.264143 34.264976 
L 248.539586 34.264976 
L 248.539586 33.60983 
L 249.968668 33.60983 
L 249.968668 32.954683 
L 251.924752 32.954683 
L 251.924752 32.299537 
L 252.879375 32.299537 
L 252.879375 31.644391 
L 255.452731 31.644391 
L 255.452731 30.989245 
L 257.14416 30.989245 
L 257.14416 30.334099 
L 338.688 30.334099 
L 338.688 30.334099 
" style="fill:none;stroke:#ff7500;stroke-linecap:square;stroke-width:1.5;"/>
   </g>
   <g id="line2d_41">
    <defs>
     <path d="M 0 -6 
L -1.347084 -1.854102 
L -5.706339 -1.854102 
L -2.179628 0.708204 
L -3.526712 4.854102 
L -0 2.291796 
L 3.526712 4.854102 
L 2.179628 0.708204 
L 5.706339 -1.854102 
L 1.347084 -1.854102 
z
" id="m42a60bf919" style="stroke:#ff7500;stroke-linejoin:bevel;stroke-width:1.5;"/>
    </defs>
    <g>
     <use style="fill-opacity:0;stroke:#ff7500;stroke-linejoin:bevel;stroke-width:1.5;" x="85.66744" xlink:href="#m42a60bf919" y="293.702831"/>
     <use style="fill-opacity:0;stroke:#ff7500;stroke-linejoin:bevel;stroke-width:1.5;" x="153.466662" xlink:href="#m42a60bf919" y="264.221257"/>
     <use style="fill-opacity:0;stroke:#ff7500;stroke-linejoin:bevel;stroke-width:1.5;" x="214.684141" xlink:href="#m42a60bf919" y="125.98543"/>
     <use style="fill-opacity:0;stroke:#ff7500;stroke-linejoin:bevel;stroke-width:1.5;" x="252.879375" xlink:href="#m42a60bf919" y="32.299537"/>
     <use style="fill-opacity:0;stroke:#ff7500;stroke-linejoin:bevel;stroke-width:1.5;" x="257.14416" xlink:href="#m42a60bf919" y="30.334099"/>
     <use style="fill-opacity:0;stroke:#ff7500;stroke-linejoin:bevel;stroke-width:1.5;" x="338.688" xlink:href="#m42a60bf919" y="30.334099"/>
    </g>
   </g>
   <g id="line2d_42">
    <path style="fill:none;stroke:#ff7500;stroke-linecap:square;stroke-width:1.5;"/>
    <g/>
   </g>
   <g id="line2d_43">
    <path clip-path="url(#pc9640b3a10)" d="M 206.750503 161.363319 
" style="fill:none;stroke:#ff7500;stroke-linecap:square;stroke-width:1.5;"/>
    <defs>
     <path d="M -12 12 
L 12 -12 
M -12 -12 
L 12 12 
" id="m3b2bf38edf" style="stroke:#ff7500;"/>
    </defs>
    <g clip-path="url(#pc9640b3a10)">
     <use style="fill:#ff7500;stroke:#ff7500;" x="206.750503" xlink:href="#m3b2bf38edf" y="161.363319"/>
    </g>
   </g>
   <g id="line2d_44">
    <defs>
     <path d="M 0 1.5 
C 0.397805 1.5 0.77937 1.341951 1.06066 1.06066 
C 1.341951 0.77937 1.5 0.397805 1.5 0 
C 1.5 -0.397805 1.341951 -0.77937 1.06066 -1.06066 
C 0.77937 -1.341951 0.397805 -1.5 0 -1.5 
C -0.397805 -1.5 -0.77937 -1.341951 -1.06066 -1.06066 
C -1.341951 -0.77937 -1.5 -0.397805 -1.5 0 
C -1.5 0.397805 -1.341951 0.77937 -1.06066 1.06066 
C -0.77937 1.341951 -0.397805 1.5 0 1.5 
z
" id="mc1f5d7a0e2" style="stroke:#6495ed;"/>
    </defs>
    <g>
     <use style="fill:#6495ed;stroke:#6495ed;" x="243.09927" xlink:href="#mc1f5d7a0e2" y="30.334099"/>
     <use style="fill:#6495ed;stroke:#6495ed;" x="243.09927" xlink:href="#mc1f5d7a0e2" y="30.334099"/>
    </g>
   </g>
   <g id="line2d_45">
    <path d="M 45.512012 298.944 
L 45.512012 295.66827 
L 57.6 295.66827 
L 57.6 293.702831 
L 69.687988 293.702831 
L 69.687988 293.047685 
L 81.775977 293.047685 
L 81.775977 291.737393 
L 97.755429 291.737393 
L 97.755429 291.082247 
L 103.623262 291.082247 
L 103.623262 290.427101 
L 108.948899 290.427101 
L 108.948899 289.771955 
L 109.843417 289.771955 
L 109.843417 289.116809 
L 113.73488 289.116809 
L 113.73488 287.15137 
L 116.323218 287.15137 
L 116.323218 285.841078 
L 117.486268 285.841078 
L 117.486268 284.530786 
L 118.576578 284.530786 
L 118.576578 283.220494 
L 119.097192 283.220494 
L 119.097192 282.565348 
L 119.602714 282.565348 
L 119.602714 281.910201 
L 120.093994 281.910201 
L 120.093994 278.634471 
L 121.931406 278.634471 
L 121.931406 277.324179 
L 124.368753 277.324179 
L 124.368753 276.669033 
L 125.470548 276.669033 
L 125.470548 276.013887 
L 127.165014 276.013887 
L 127.165014 275.35874 
L 129.290685 275.35874 
L 129.290685 274.703594 
L 131.938072 274.703594 
L 131.938072 274.048448 
L 132.181982 274.048448 
L 132.181982 272.738156 
L 134.236034 272.738156 
L 134.236034 272.08301 
L 138.426341 272.08301 
L 138.426341 270.117572 
L 138.594838 270.117572 
L 138.594838 269.462426 
L 139.090775 269.462426 
L 139.090775 268.807279 
L 139.572998 268.807279 
L 139.572998 268.152133 
L 139.730821 268.152133 
L 139.730821 267.496987 
L 140.79731 267.496987 
L 140.79731 266.841841 
L 141.521035 266.841841 
L 141.521035 266.186695 
L 146.216039 266.186695 
L 146.216039 265.531549 
L 147.266916 265.531549 
L 147.266916 264.876403 
L 147.86833 264.876403 
L 147.86833 263.566111 
L 160.297798 263.566111 
L 160.297798 262.910965 
L 163.307451 262.910965 
L 163.307451 262.255818 
L 164.410075 262.255818 
L 164.410075 261.600672 
L 164.973287 261.600672 
L 164.973287 260.945526 
L 166.628709 260.945526 
L 166.628709 260.29038 
L 167.860992 260.29038 
L 167.860992 259.635234 
L 167.985782 259.635234 
L 167.985782 258.980088 
L 168.849965 258.980088 
L 168.9532 255.704357 
L 170.567151 255.704357 
L 170.567151 255.049211 
L 174.380694 255.049211 
L 174.380694 254.394065 
L 174.573514 254.394065 
L 174.573514 252.428627 
L 174.994519 252.428627 
L 175.046437 248.49775 
L 175.139502 248.49775 
L 175.139502 247.842604 
L 176.267585 247.842604 
L 176.267585 247.187458 
L 178.767027 247.187458 
L 178.767027 246.532312 
L 179.19724 246.532312 
L 179.213577 245.22202 
L 180.473278 245.22202 
L 180.473278 244.566874 
L 181.901854 244.566874 
L 181.901854 243.911728 
L 182.681928 243.911728 
L 182.681928 243.256582 
L 182.894767 243.256582 
L 182.894767 242.601435 
L 183.039601 242.601435 
L 183.039601 241.946289 
L 183.35149 241.946289 
L 183.35149 241.291143 
L 183.569083 241.291143 
L 183.569083 240.635997 
L 184.725567 240.635997 
L 184.725567 239.980851 
L 184.926769 239.980851 
L 184.926769 238.670559 
L 187.401936 238.670559 
L 187.401936 236.049974 
L 188.695419 236.049974 
L 188.695419 235.394828 
L 188.958872 235.394828 
L 188.958872 234.739682 
L 189.172341 234.739682 
L 189.264345 232.774244 
L 189.374112 232.774244 
L 189.374112 231.463952 
L 189.721691 231.463952 
L 189.721691 230.808806 
L 189.864126 230.808806 
L 189.864126 229.498513 
L 190.001009 229.498513 
L 190.001009 228.843367 
L 190.158633 228.843367 
L 190.158633 228.188221 
L 190.319165 228.188221 
L 190.319165 227.533075 
L 190.456822 227.533075 
L 190.456822 226.222783 
L 190.631621 226.222783 
L 190.673991 224.912491 
L 190.921897 224.912491 
L 190.930239 222.947052 
L 191.264786 222.947052 
L 191.374891 219.016176 
L 191.585005 219.016176 
L 191.585005 218.36103 
L 191.85205 218.36103 
L 191.85205 217.705884 
L 192.378015 217.705884 
L 192.378015 217.050738 
L 192.640837 217.050738 
L 192.640837 216.395591 
L 194.028289 216.395591 
L 194.028289 214.430153 
L 194.743128 214.430153 
L 194.743128 213.119861 
L 195.510174 213.119861 
L 195.510174 212.464715 
L 197.178727 212.464715 
L 197.178727 211.154423 
L 201.100473 211.154423 
L 201.197951 209.84413 
L 204.144515 209.84413 
L 204.144515 208.533838 
L 204.269165 208.533838 
L 204.354348 204.602962 
L 204.542592 204.602962 
L 204.596005 203.292669 
L 204.656849 203.292669 
L 204.76659 200.672085 
L 204.811798 200.672085 
L 204.890633 198.051501 
L 205.088026 198.051501 
L 205.088026 197.396355 
L 205.209811 197.396355 
L 205.279547 192.810332 
L 205.38909 192.810332 
L 205.476232 191.50004 
L 205.58815 191.50004 
L 205.66356 188.224309 
L 205.760038 188.224309 
L 205.838257 184.948579 
L 205.873695 184.948579 
L 205.947883 179.70741 
L 205.99365 179.70741 
L 206.004195 178.397118 
L 206.185965 178.397118 
L 206.185965 177.086825 
L 206.303799 177.086825 
L 206.372742 175.776533 
L 206.437987 175.776533 
L 206.437987 175.121387 
L 206.63227 175.121387 
L 206.63227 174.466241 
L 207.067438 174.466241 
L 207.083961 173.155949 
L 207.316903 173.155949 
L 207.38521 171.190511 
L 207.443546 171.190511 
L 207.482329 167.91478 
L 207.751419 167.91478 
L 207.751419 167.259634 
L 207.890732 167.259634 
L 207.956831 165.949342 
L 208.007025 165.949342 
L 208.007025 165.294196 
L 208.147426 165.294196 
L 208.212562 162.018465 
L 208.297493 162.018465 
L 208.369743 158.742735 
L 208.418764 158.742735 
L 208.513353 156.777296 
L 208.534641 156.777296 
L 208.605917 152.84642 
L 208.804555 152.84642 
L 208.913443 147.605251 
L 208.929793 147.605251 
L 208.980229 144.32952 
L 209.124795 144.32952 
L 209.140948 139.743498 
L 209.395923 139.743498 
L 209.406045 136.467767 
L 209.672868 136.467767 
L 209.672868 135.157475 
L 209.872451 135.157475 
L 209.872451 134.502329 
L 209.987479 134.502329 
L 209.987479 133.192037 
L 212.025211 133.192037 
L 212.025211 132.536891 
L 212.437042 132.536891 
L 212.437042 131.881745 
L 214.355302 131.881745 
L 214.355302 131.226598 
L 214.586676 131.226598 
L 214.586676 130.571452 
L 214.736398 130.571452 
L 214.736398 129.916306 
L 215.004797 129.916306 
L 215.004797 129.26116 
L 215.309362 129.26116 
L 215.389553 125.98543 
L 215.442809 125.98543 
L 215.489784 123.364845 
L 215.567121 123.364845 
L 215.636027 120.744261 
L 215.720772 120.744261 
L 215.831128 116.813384 
L 215.946753 116.813384 
L 215.980498 114.847946 
L 216.069509 114.847946 
L 216.122699 112.227362 
L 216.66875 112.227362 
L 216.66875 111.572215 
L 217.335455 111.572215 
L 217.406867 106.331047 
L 217.575988 106.331047 
L 217.646424 105.020754 
L 217.725551 105.020754 
L 217.725551 104.365608 
L 218.049966 104.365608 
L 218.156194 102.40017 
L 218.22433 102.40017 
L 218.22433 101.745024 
L 218.362403 101.745024 
L 218.42974 99.779586 
L 218.594392 99.779586 
L 218.614865 97.814147 
L 218.875486 97.814147 
L 218.912401 95.848709 
L 219.056794 95.848709 
L 219.056794 95.193563 
L 219.19258 95.193563 
L 219.19258 94.538417 
L 219.373087 94.538417 
L 219.373087 93.883271 
L 219.51535 93.883271 
L 219.51535 93.228125 
L 219.82112 93.228125 
L 219.82112 92.572979 
L 220.066013 92.572979 
L 220.066013 91.917832 
L 220.187961 91.917832 
L 220.285064 89.952394 
L 220.627187 89.952394 
L 220.627187 88.642102 
L 220.7777 88.642102 
L 220.861842 86.676664 
L 220.922443 86.676664 
L 220.922443 86.021518 
L 221.404904 86.021518 
L 221.404904 85.366371 
L 221.555362 85.366371 
L 221.555362 84.711225 
L 222.143147 84.711225 
L 222.237598 82.745787 
L 222.655055 82.745787 
L 222.75754 80.125203 
L 222.899481 80.125203 
L 222.899481 79.470057 
L 223.327614 79.470057 
L 223.327614 78.81491 
L 223.832299 78.81491 
L 223.871445 77.504618 
L 224.133713 77.504618 
L 224.241478 75.53918 
L 224.311108 75.53918 
L 224.406169 73.573742 
L 224.44893 73.573742 
L 224.460519 72.263449 
L 224.676843 72.263449 
L 224.768738 68.332573 
L 224.850614 68.332573 
L 224.850614 67.677427 
L 224.978927 67.677427 
L 224.978927 67.022281 
L 225.214664 67.022281 
L 225.263645 65.056842 
L 225.457625 65.056842 
L 225.457625 64.401696 
L 225.640357 64.401696 
L 225.72052 61.781112 
L 225.804267 61.781112 
L 225.826833 60.47082 
L 225.970007 60.47082 
L 225.970007 59.815674 
L 226.131416 59.815674 
L 226.133631 58.505381 
L 226.869053 58.505381 
L 226.964913 57.195089 
L 227.321448 57.195089 
L 227.321448 56.539943 
L 227.95608 56.539943 
L 227.95608 55.884797 
L 228.218553 55.884797 
L 228.29702 54.574505 
L 228.594422 54.574505 
L 228.67122 53.264213 
L 228.758644 53.264213 
L 228.78531 51.95392 
L 229.08486 51.95392 
L 229.093277 50.643628 
L 229.459186 50.643628 
L 229.459186 49.988482 
L 229.592346 49.988482 
L 229.661714 48.67819 
L 230.536674 48.67819 
L 230.536674 48.023044 
L 230.707968 48.023044 
L 230.707968 47.367898 
L 231.768927 47.367898 
L 231.768927 46.712752 
L 232.200223 46.712752 
L 232.200223 46.057605 
L 232.382346 46.057605 
L 232.386217 44.747313 
L 232.840441 44.747313 
L 232.943084 42.781875 
L 233.258117 42.781875 
L 233.258117 42.126729 
L 233.491439 42.126729 
L 233.491439 41.471583 
L 234.078662 41.471583 
L 234.078662 40.816437 
L 234.353269 40.816437 
L 234.353269 40.161291 
L 235.308241 40.161291 
L 235.308241 39.506144 
L 235.935451 39.506144 
L 235.935451 38.850998 
L 236.051896 38.850998 
L 236.051896 38.195852 
L 236.314024 38.195852 
L 236.424599 36.88556 
L 236.427056 36.88556 
L 236.427056 36.230414 
L 236.542104 36.230414 
L 236.542104 35.575268 
L 238.006195 35.575268 
L 238.006195 34.920122 
L 238.833129 34.920122 
L 238.833129 34.264976 
L 239.044185 34.264976 
L 239.044185 33.60983 
L 240.424355 33.60983 
L 240.424355 32.954683 
L 240.689865 32.954683 
L 240.689865 32.299537 
L 241.140547 32.299537 
L 241.140547 31.644391 
L 242.046705 31.644391 
L 242.046705 30.989245 
L 243.09927 30.989245 
L 243.09927 30.334099 
L 338.688 30.334099 
L 338.688 30.334099 
" style="fill:none;stroke:#6495ed;stroke-linecap:square;stroke-width:1.5;"/>
   </g>
   <g id="line2d_46">
    <defs>
     <path d="M -0 6 
L 6 -6 
L -6 -6 
z
" id="m9afbc36bb6" style="stroke:#6495ed;stroke-linejoin:miter;stroke-width:1.5;"/>
    </defs>
    <g>
     <use style="fill-opacity:0;stroke:#6495ed;stroke-linejoin:miter;stroke-width:1.5;" x="147.86833" xlink:href="#m9afbc36bb6" y="263.566111"/>
     <use style="fill-opacity:0;stroke:#6495ed;stroke-linejoin:miter;stroke-width:1.5;" x="204.335025" xlink:href="#m9afbc36bb6" y="207.223546"/>
     <use style="fill-opacity:0;stroke:#6495ed;stroke-linejoin:miter;stroke-width:1.5;" x="234.078662" xlink:href="#m9afbc36bb6" y="40.816437"/>
     <use style="fill-opacity:0;stroke:#6495ed;stroke-linejoin:miter;stroke-width:1.5;" x="243.09927" xlink:href="#m9afbc36bb6" y="30.334099"/>
     <use style="fill-opacity:0;stroke:#6495ed;stroke-linejoin:miter;stroke-width:1.5;" x="243.09927" xlink:href="#m9afbc36bb6" y="30.334099"/>
     <use style="fill-opacity:0;stroke:#6495ed;stroke-linejoin:miter;stroke-width:1.5;" x="338.688" xlink:href="#m9afbc36bb6" y="30.334099"/>
    </g>
   </g>
   <g id="line2d_47">
    <path style="fill:none;stroke:#6495ed;stroke-linecap:square;stroke-width:1.5;"/>
    <g/>
   </g>
   <g id="line2d_48">
    <path clip-path="url(#pc9640b3a10)" d="M 214.355302 131.226598 
" style="fill:none;stroke:#6495ed;stroke-linecap:square;stroke-width:1.5;"/>
    <defs>
     <path d="M -12 12 
L 12 -12 
M -12 -12 
L 12 12 
" id="m716dfbcd75" style="stroke:#6495ed;"/>
    </defs>
    <g clip-path="url(#pc9640b3a10)">
     <use style="fill:#6495ed;stroke:#6495ed;" x="214.355302" xlink:href="#m716dfbcd75" y="131.226598"/>
    </g>
   </g>
   <g id="line2d_49">
    <path d="M 338.688 30.334099 
L 369.60768 293.571802 
" style="fill:none;stroke:#ff00ff;stroke-linecap:square;stroke-width:1.5;"/>
    <g>
     <use style="fill-opacity:0;stroke:#ff00ff;stroke-linejoin:miter;stroke-width:1.5;" x="338.688" xlink:href="#m0457a5e1ab" y="30.334099"/>
     <use style="fill-opacity:0;stroke:#ff00ff;stroke-linejoin:miter;stroke-width:1.5;" x="369.60768" xlink:href="#m0457a5e1ab" y="293.571802"/>
    </g>
   </g>
   <g id="line2d_50">
    <path d="M 338.688 30.334099 
L 369.60768 207.616634 
" style="fill:none;stroke:#ff7500;stroke-linecap:square;stroke-width:1.5;"/>
    <g>
     <use style="fill-opacity:0;stroke:#ff7500;stroke-linejoin:bevel;stroke-width:1.5;" x="338.688" xlink:href="#m42a60bf919" y="30.334099"/>
     <use style="fill-opacity:0;stroke:#ff7500;stroke-linejoin:bevel;stroke-width:1.5;" x="369.60768" xlink:href="#m42a60bf919" y="207.616634"/>
    </g>
   </g>
   <g id="line2d_51">
    <path d="M 338.688 30.334099 
L 369.60768 121.661465 
" style="fill:none;stroke:#000080;stroke-linecap:square;stroke-width:1.5;"/>
    <g>
     <use style="fill-opacity:0;stroke:#000080;stroke-width:1.5;" x="338.688" xlink:href="#m7bc0a80e1e" y="30.334099"/>
     <use style="fill-opacity:0;stroke:#000080;stroke-width:1.5;" x="369.60768" xlink:href="#m7bc0a80e1e" y="121.661465"/>
    </g>
   </g>
   <g id="line2d_52">
    <path d="M 338.688 30.334099 
L 369.60768 35.706297 
" style="fill:none;stroke:#6495ed;stroke-linecap:square;stroke-width:1.5;"/>
    <g>
     <use style="fill-opacity:0;stroke:#6495ed;stroke-linejoin:miter;stroke-width:1.5;" x="338.688" xlink:href="#m9afbc36bb6" y="30.334099"/>
     <use style="fill-opacity:0;stroke:#6495ed;stroke-linejoin:miter;stroke-width:1.5;" x="369.60768" xlink:href="#m9afbc36bb6" y="35.706297"/>
    </g>
   </g>
   <g id="line2d_53">
    <path d="M 338.688 298.944 
L 338.688 30.334099 
" style="fill:none;stroke:#000000;stroke-linecap:square;stroke-width:1.5;"/>
   </g>
   <g id="patch_3">
    <path d="M 57.6 298.944 
L 57.6 27.648 
" style="fill:none;stroke:#000000;stroke-linecap:square;stroke-linejoin:miter;stroke-width:0.8;"/>
   </g>
   <g id="patch_4">
    <path d="M 338.688 298.944 
L 338.688 27.648 
" style="fill:none;stroke:#000000;stroke-linecap:square;stroke-linejoin:miter;stroke-width:0.8;"/>
   </g>
   <g id="patch_5">
    <path d="M 57.6 298.944 
L 338.688 298.944 
" style="fill:none;stroke:#000000;stroke-linecap:square;stroke-linejoin:miter;stroke-width:0.8;"/>
   </g>
   <g id="patch_6">
    <path d="M 57.6 27.648 
L 338.688 27.648 
" style="fill:none;stroke:#000000;stroke-linecap:square;stroke-linejoin:miter;stroke-width:0.8;"/>
   </g>
   <g id="text_13">
    <!-- alN1 -->
    <g transform="translate(375.22944 298.262739)scale(0.17 -0.17)">
     <defs>
      <path d="M 9.8125 72.90625 
L 23.09375 72.90625 
L 55.421875 11.921875 
L 55.421875 72.90625 
L 64.984375 72.90625 
L 64.984375 0 
L 51.703125 0 
L 19.390625 60.984375 
L 19.390625 0 
L 9.8125 0 
z
" id="DejaVuSans-78"/>
     </defs>
     <use xlink:href="#DejaVuSans-97"/>
     <use x="61.279297" xlink:href="#DejaVuSans-108"/>
     <use x="89.0625" xlink:href="#DejaVuSans-78"/>
     <use x="163.867188" xlink:href="#DejaVuSans-49"/>
    </g>
   </g>
   <g id="text_14">
    <!-- alN5 -->
    <g transform="translate(375.22944 212.307571)scale(0.17 -0.17)">
     <defs>
      <path d="M 10.796875 72.90625 
L 49.515625 72.90625 
L 49.515625 64.59375 
L 19.828125 64.59375 
L 19.828125 46.734375 
Q 21.96875 47.46875 24.109375 47.828125 
Q 26.265625 48.1875 28.421875 48.1875 
Q 40.625 48.1875 47.75 41.5 
Q 54.890625 34.8125 54.890625 23.390625 
Q 54.890625 11.625 47.5625 5.09375 
Q 40.234375 -1.421875 26.90625 -1.421875 
Q 22.3125 -1.421875 17.546875 -0.640625 
Q 12.796875 0.140625 7.71875 1.703125 
L 7.71875 11.625 
Q 12.109375 9.234375 16.796875 8.0625 
Q 21.484375 6.890625 26.703125 6.890625 
Q 35.15625 6.890625 40.078125 11.328125 
Q 45.015625 15.765625 45.015625 23.390625 
Q 45.015625 31 40.078125 35.4375 
Q 35.15625 39.890625 26.703125 39.890625 
Q 22.75 39.890625 18.8125 39.015625 
Q 14.890625 38.140625 10.796875 36.28125 
z
" id="DejaVuSans-53"/>
     </defs>
     <use xlink:href="#DejaVuSans-97"/>
     <use x="61.279297" xlink:href="#DejaVuSans-108"/>
     <use x="89.0625" xlink:href="#DejaVuSans-78"/>
     <use x="163.867188" xlink:href="#DejaVuSans-53"/>
    </g>
   </g>
   <g id="text_15">
    <!-- al01 -->
    <g transform="translate(375.22944 126.352403)scale(0.17 -0.17)">
     <use xlink:href="#DejaVuSans-97"/>
     <use x="61.279297" xlink:href="#DejaVuSans-108"/>
     <use x="89.0625" xlink:href="#DejaVuSans-48"/>
     <use x="152.685547" xlink:href="#DejaVuSans-49"/>
    </g>
   </g>
   <g id="text_16">
    <!-- alO5 -->
    <g transform="translate(375.22944 40.397235)scale(0.17 -0.17)">
     <defs>
      <path d="M 39.40625 66.21875 
Q 28.65625 66.21875 22.328125 58.203125 
Q 16.015625 50.203125 16.015625 36.375 
Q 16.015625 22.609375 22.328125 14.59375 
Q 28.65625 6.59375 39.40625 6.59375 
Q 50.140625 6.59375 56.421875 14.59375 
Q 62.703125 22.609375 62.703125 36.375 
Q 62.703125 50.203125 56.421875 58.203125 
Q 50.140625 66.21875 39.40625 66.21875 
z
M 39.40625 74.21875 
Q 54.734375 74.21875 63.90625 63.9375 
Q 73.09375 53.65625 73.09375 36.375 
Q 73.09375 19.140625 63.90625 8.859375 
Q 54.734375 -1.421875 39.40625 -1.421875 
Q 24.03125 -1.421875 14.8125 8.828125 
Q 5.609375 19.09375 5.609375 36.375 
Q 5.609375 53.65625 14.8125 63.9375 
Q 24.03125 74.21875 39.40625 74.21875 
z
" id="DejaVuSans-79"/>
     </defs>
     <use xlink:href="#DejaVuSans-97"/>
     <use x="61.279297" xlink:href="#DejaVuSans-108"/>
     <use x="89.0625" xlink:href="#DejaVuSans-79"/>
     <use x="167.773438" xlink:href="#DejaVuSans-53"/>
    </g>
   </g>
   <g id="text_17">
    <!-- bbob-constrained f44, 2-D -->
    <g transform="translate(60.41088 38.111366)scale(0.102 -0.102)">
     <defs>
      <path d="M 48.6875 27.296875 
Q 48.6875 37.203125 44.609375 42.84375 
Q 40.53125 48.484375 33.40625 48.484375 
Q 26.265625 48.484375 22.1875 42.84375 
Q 18.109375 37.203125 18.109375 27.296875 
Q 18.109375 17.390625 22.1875 11.75 
Q 26.265625 6.109375 33.40625 6.109375 
Q 40.53125 6.109375 44.609375 11.75 
Q 48.6875 17.390625 48.6875 27.296875 
z
M 18.109375 46.390625 
Q 20.953125 51.265625 25.265625 53.625 
Q 29.59375 56 35.59375 56 
Q 45.5625 56 51.78125 48.09375 
Q 58.015625 40.1875 58.015625 27.296875 
Q 58.015625 14.40625 51.78125 6.484375 
Q 45.5625 -1.421875 35.59375 -1.421875 
Q 29.59375 -1.421875 25.265625 0.953125 
Q 20.953125 3.328125 18.109375 8.203125 
L 18.109375 0 
L 9.078125 0 
L 9.078125 75.984375 
L 18.109375 75.984375 
z
" id="DejaVuSans-98"/>
      <path d="M 19.671875 64.796875 
L 19.671875 8.109375 
L 31.59375 8.109375 
Q 46.6875 8.109375 53.6875 14.9375 
Q 60.6875 21.78125 60.6875 36.53125 
Q 60.6875 51.171875 53.6875 57.984375 
Q 46.6875 64.796875 31.59375 64.796875 
z
M 9.8125 72.90625 
L 30.078125 72.90625 
Q 51.265625 72.90625 61.171875 64.09375 
Q 71.09375 55.28125 71.09375 36.53125 
Q 71.09375 17.671875 61.125 8.828125 
Q 51.171875 0 30.078125 0 
L 9.8125 0 
z
" id="DejaVuSans-68"/>
     </defs>
     <use xlink:href="#DejaVuSans-98"/>
     <use x="63.476562" xlink:href="#DejaVuSans-98"/>
     <use x="126.953125" xlink:href="#DejaVuSans-111"/>
     <use x="188.134766" xlink:href="#DejaVuSans-98"/>
     <use x="251.611328" xlink:href="#DejaVuSans-45"/>
     <use x="287.695312" xlink:href="#DejaVuSans-99"/>
     <use x="342.675781" xlink:href="#DejaVuSans-111"/>
     <use x="403.857422" xlink:href="#DejaVuSans-110"/>
     <use x="467.236328" xlink:href="#DejaVuSans-115"/>
     <use x="519.335938" xlink:href="#DejaVuSans-116"/>
     <use x="558.544922" xlink:href="#DejaVuSans-114"/>
     <use x="599.658203" xlink:href="#DejaVuSans-97"/>
     <use x="660.9375" xlink:href="#DejaVuSans-105"/>
     <use x="688.720703" xlink:href="#DejaVuSans-110"/>
     <use x="752.099609" xlink:href="#DejaVuSans-101"/>
     <use x="813.623047" xlink:href="#DejaVuSans-100"/>
     <use x="877.099609" xlink:href="#DejaVuSans-32"/>
     <use x="908.886719" xlink:href="#DejaVuSans-102"/>
     <use x="944.091797" xlink:href="#DejaVuSans-52"/>
     <use x="1007.714844" xlink:href="#DejaVuSans-52"/>
     <use x="1071.337891" xlink:href="#DejaVuSans-44"/>
     <use x="1103.125" xlink:href="#DejaVuSans-32"/>
     <use x="1134.912109" xlink:href="#DejaVuSans-50"/>
     <use x="1198.535156" xlink:href="#DejaVuSans-45"/>
     <use x="1234.619141" xlink:href="#DejaVuSans-68"/>
    </g>
    <!-- 41 targets: 100..1e-06 -->
    <g transform="translate(60.41088 49.533135)scale(0.102 -0.102)">
     <defs>
      <path d="M 11.71875 12.40625 
L 22.015625 12.40625 
L 22.015625 0 
L 11.71875 0 
z
M 11.71875 51.703125 
L 22.015625 51.703125 
L 22.015625 39.3125 
L 11.71875 39.3125 
z
" id="DejaVuSans-58"/>
     </defs>
     <use xlink:href="#DejaVuSans-52"/>
     <use x="63.623047" xlink:href="#DejaVuSans-49"/>
     <use x="127.246094" xlink:href="#DejaVuSans-32"/>
     <use x="159.033203" xlink:href="#DejaVuSans-116"/>
     <use x="198.242188" xlink:href="#DejaVuSans-97"/>
     <use x="259.521484" xlink:href="#DejaVuSans-114"/>
     <use x="298.884766" xlink:href="#DejaVuSans-103"/>
     <use x="362.361328" xlink:href="#DejaVuSans-101"/>
     <use x="423.884766" xlink:href="#DejaVuSans-116"/>
     <use x="463.09375" xlink:href="#DejaVuSans-115"/>
     <use x="515.193359" xlink:href="#DejaVuSans-58"/>
     <use x="548.884766" xlink:href="#DejaVuSans-32"/>
     <use x="580.671875" xlink:href="#DejaVuSans-49"/>
     <use x="644.294922" xlink:href="#DejaVuSans-48"/>
     <use x="707.917969" xlink:href="#DejaVuSans-48"/>
     <use x="771.541016" xlink:href="#DejaVuSans-46"/>
     <use x="803.328125" xlink:href="#DejaVuSans-46"/>
     <use x="835.115234" xlink:href="#DejaVuSans-49"/>
     <use x="898.738281" xlink:href="#DejaVuSans-101"/>
     <use x="960.261719" xlink:href="#DejaVuSans-45"/>
     <use x="996.345703" xlink:href="#DejaVuSans-48"/>
     <use x="1059.96875" xlink:href="#DejaVuSans-54"/>
    </g>
    <!-- 15 instances -->
    <g transform="translate(60.41088 60.954904)scale(0.102 -0.102)">
     <use xlink:href="#DejaVuSans-49"/>
     <use x="63.623047" xlink:href="#DejaVuSans-53"/>
     <use x="127.246094" xlink:href="#DejaVuSans-32"/>
     <use x="159.033203" xlink:href="#DejaVuSans-105"/>
     <use x="186.816406" xlink:href="#DejaVuSans-110"/>
     <use x="250.195312" xlink:href="#DejaVuSans-115"/>
     <use x="302.294922" xlink:href="#DejaVuSans-116"/>
     <use x="341.503906" xlink:href="#DejaVuSans-97"/>
     <use x="402.783203" xlink:href="#DejaVuSans-110"/>
     <use x="466.162109" xlink:href="#DejaVuSans-99"/>
     <use x="521.142578" xlink:href="#DejaVuSans-101"/>
     <use x="582.666016" xlink:href="#DejaVuSans-115"/>
    </g>
   </g>
   <g id="text_18">
    <!-- v5z33 -->
    <g style="fill:#808080;" transform="translate(183.016656 294.151352)scale(0.1 -0.1)">
     <defs>
      <path d="M 5.515625 54.6875 
L 48.1875 54.6875 
L 48.1875 46.484375 
L 14.40625 7.171875 
L 48.1875 7.171875 
L 48.1875 0 
L 4.296875 0 
L 4.296875 8.203125 
L 38.09375 47.515625 
L 5.515625 47.515625 
z
" id="DejaVuSans-122"/>
      <path d="M 40.578125 39.3125 
Q 47.65625 37.796875 51.625 33 
Q 55.609375 28.21875 55.609375 21.1875 
Q 55.609375 10.40625 48.1875 4.484375 
Q 40.765625 -1.421875 27.09375 -1.421875 
Q 22.515625 -1.421875 17.65625 -0.515625 
Q 12.796875 0.390625 7.625 2.203125 
L 7.625 11.71875 
Q 11.71875 9.328125 16.59375 8.109375 
Q 21.484375 6.890625 26.8125 6.890625 
Q 36.078125 6.890625 40.9375 10.546875 
Q 45.796875 14.203125 45.796875 21.1875 
Q 45.796875 27.640625 41.28125 31.265625 
Q 36.765625 34.90625 28.71875 34.90625 
L 20.21875 34.90625 
L 20.21875 43.015625 
L 29.109375 43.015625 
Q 36.375 43.015625 40.234375 45.921875 
Q 44.09375 48.828125 44.09375 54.296875 
Q 44.09375 59.90625 40.109375 62.90625 
Q 36.140625 65.921875 28.71875 65.921875 
Q 24.65625 65.921875 20.015625 65.03125 
Q 15.375 64.15625 9.8125 62.3125 
L 9.8125 71.09375 
Q 15.4375 72.65625 20.34375 73.4375 
Q 25.25 74.21875 29.59375 74.21875 
Q 40.828125 74.21875 47.359375 69.109375 
Q 53.90625 64.015625 53.90625 55.328125 
Q 53.90625 49.265625 50.4375 45.09375 
Q 46.96875 40.921875 40.578125 39.3125 
z
" id="DejaVuSans-51"/>
     </defs>
     <use xlink:href="#DejaVuSans-118"/>
     <use x="59.179688" xlink:href="#DejaVuSans-53"/>
     <use x="122.802734" xlink:href="#DejaVuSans-122"/>
     <use x="175.292969" xlink:href="#DejaVuSans-51"/>
     <use x="238.916016" xlink:href="#DejaVuSans-51"/>
    </g>
   </g>
   <g id="text_19">
    <!-- 44 Separable Rastrigin, 2 constraints -->
    <g transform="translate(12.765875 21.648)scale(0.2 -0.2)">
     <defs>
      <path d="M 53.515625 70.515625 
L 53.515625 60.890625 
Q 47.90625 63.578125 42.921875 64.890625 
Q 37.9375 66.21875 33.296875 66.21875 
Q 25.25 66.21875 20.875 63.09375 
Q 16.5 59.96875 16.5 54.203125 
Q 16.5 49.359375 19.40625 46.890625 
Q 22.3125 44.4375 30.421875 42.921875 
L 36.375 41.703125 
Q 47.40625 39.59375 52.65625 34.296875 
Q 57.90625 29 57.90625 20.125 
Q 57.90625 9.515625 50.796875 4.046875 
Q 43.703125 -1.421875 29.984375 -1.421875 
Q 24.8125 -1.421875 18.96875 -0.25 
Q 13.140625 0.921875 6.890625 3.21875 
L 6.890625 13.375 
Q 12.890625 10.015625 18.65625 8.296875 
Q 24.421875 6.59375 29.984375 6.59375 
Q 38.421875 6.59375 43.015625 9.90625 
Q 47.609375 13.234375 47.609375 19.390625 
Q 47.609375 24.75 44.3125 27.78125 
Q 41.015625 30.8125 33.5 32.328125 
L 27.484375 33.5 
Q 16.453125 35.6875 11.515625 40.375 
Q 6.59375 45.0625 6.59375 53.421875 
Q 6.59375 63.09375 13.40625 68.65625 
Q 20.21875 74.21875 32.171875 74.21875 
Q 37.3125 74.21875 42.625 73.28125 
Q 47.953125 72.359375 53.515625 70.515625 
z
" id="DejaVuSans-83"/>
      <path d="M 44.390625 34.1875 
Q 47.5625 33.109375 50.5625 29.59375 
Q 53.5625 26.078125 56.59375 19.921875 
L 66.609375 0 
L 56 0 
L 46.6875 18.703125 
Q 43.0625 26.03125 39.671875 28.421875 
Q 36.28125 30.8125 30.421875 30.8125 
L 19.671875 30.8125 
L 19.671875 0 
L 9.8125 0 
L 9.8125 72.90625 
L 32.078125 72.90625 
Q 44.578125 72.90625 50.734375 67.671875 
Q 56.890625 62.453125 56.890625 51.90625 
Q 56.890625 45.015625 53.6875 40.46875 
Q 50.484375 35.9375 44.390625 34.1875 
z
M 19.671875 64.796875 
L 19.671875 38.921875 
L 32.078125 38.921875 
Q 39.203125 38.921875 42.84375 42.21875 
Q 46.484375 45.515625 46.484375 51.90625 
Q 46.484375 58.296875 42.84375 61.546875 
Q 39.203125 64.796875 32.078125 64.796875 
z
" id="DejaVuSans-82"/>
     </defs>
     <use xlink:href="#DejaVuSans-52"/>
     <use x="63.623047" xlink:href="#DejaVuSans-52"/>
     <use x="127.246094" xlink:href="#DejaVuSans-32"/>
     <use x="159.033203" xlink:href="#DejaVuSans-83"/>
     <use x="222.509766" xlink:href="#DejaVuSans-101"/>
     <use x="284.033203" xlink:href="#DejaVuSans-112"/>
     <use x="347.509766" xlink:href="#DejaVuSans-97"/>
     <use x="408.789062" xlink:href="#DejaVuSans-114"/>
     <use x="449.902344" xlink:href="#DejaVuSans-97"/>
     <use x="511.181641" xlink:href="#DejaVuSans-98"/>
     <use x="574.658203" xlink:href="#DejaVuSans-108"/>
     <use x="602.441406" xlink:href="#DejaVuSans-101"/>
     <use x="663.964844" xlink:href="#DejaVuSans-32"/>
     <use x="695.751953" xlink:href="#DejaVuSans-82"/>
     <use x="762.984375" xlink:href="#DejaVuSans-97"/>
     <use x="824.263672" xlink:href="#DejaVuSans-115"/>
     <use x="876.363281" xlink:href="#DejaVuSans-116"/>
     <use x="915.572266" xlink:href="#DejaVuSans-114"/>
     <use x="956.685547" xlink:href="#DejaVuSans-105"/>
     <use x="984.46875" xlink:href="#DejaVuSans-103"/>
     <use x="1047.945312" xlink:href="#DejaVuSans-105"/>
     <use x="1075.728516" xlink:href="#DejaVuSans-110"/>
     <use x="1139.107422" xlink:href="#DejaVuSans-44"/>
     <use x="1170.894531" xlink:href="#DejaVuSans-32"/>
     <use x="1202.681641" xlink:href="#DejaVuSans-50"/>
     <use x="1266.304688" xlink:href="#DejaVuSans-32"/>
     <use x="1298.091797" xlink:href="#DejaVuSans-99"/>
     <use x="1353.072266" xlink:href="#DejaVuSans-111"/>
     <use x="1414.253906" xlink:href="#DejaVuSans-110"/>
     <use x="1477.632812" xlink:href="#DejaVuSans-115"/>
     <use x="1529.732422" xlink:href="#DejaVuSans-116"/>
     <use x="1568.941406" xlink:href="#DejaVuSans-114"/>
     <use x="1610.054688" xlink:href="#DejaVuSans-97"/>
     <use x="1671.333984" xlink:href="#DejaVuSans-105"/>
     <use x="1699.117188" xlink:href="#DejaVuSans-110"/>
     <use x="1762.496094" xlink:href="#DejaVuSans-116"/>
     <use x="1801.705078" xlink:href="#DejaVuSans-115"/>
    </g>
   </g>
  </g>
 </g>
 <defs>
  <clipPath id="pc9640b3a10">
   <rect height="271.296" width="281.088" x="57.6" y="27.648"/>
  </clipPath>
 </defs>
</svg>
