<?xml version="1.0" encoding="utf-8" standalone="no"?>
<!DOCTYPE svg PUBLIC "-//W3C//DTD SVG 1.1//EN"
  "http://www.w3.org/Graphics/SVG/1.1/DTD/svg11.dtd">
<!-- Created with matplotlib (https://matplotlib.org/) -->
<svg height="345.6pt" version="1.1" viewBox="0 0 460.8 345.6" width="460.8pt" xmlns="http://www.w3.org/2000/svg" xmlns:xlink="http://www.w3.org/1999/xlink">
 <metadata>
  <rdf:RDF xmlns:cc="http://creativecommons.org/ns#" xmlns:dc="http://purl.org/dc/elements/1.1/" xmlns:rdf="http://www.w3.org/1999/02/22-rdf-syntax-ns#">
   <cc:Work>
    <dc:type rdf:resource="http://purl.org/dc/dcmitype/StillImage"/>
    <dc:date>2021-03-16T10:43:39.655321</dc:date>
    <dc:format>image/svg+xml</dc:format>
    <dc:creator>
     <cc:Agent>
      <dc:title>Matplotlib v3.3.3, https://matplotlib.org/</dc:title>
     </cc:Agent>
    </dc:creator>
   </cc:Work>
  </rdf:RDF>
 </metadata>
 <defs>
  <style type="text/css">*{stroke-linecap:butt;stroke-linejoin:round;}</style>
 </defs>
 <g id="figure_1">
  <g id="patch_1">
   <path d="M 0 345.6 
L 460.8 345.6 
L 460.8 0 
L 0 0 
z
" style="fill:#ffffff;"/>
  </g>
  <g id="axes_1">
   <g id="patch_2">
    <path d="M 57.6 298.944 
L 338.688 298.944 
L 338.688 27.648 
L 57.6 27.648 
z
" style="fill:#ffffff;"/>
   </g>
   <g id="matplotlib.axis_1">
    <g id="xtick_1">
     <g id="line2d_1">
      <path clip-path="url(#pf89068c8c2)" d="M 57.6 298.944 
L 57.6 27.648 
" style="fill:none;stroke:#b0b0b0;stroke-linecap:square;stroke-width:0.8;"/>
     </g>
     <g id="line2d_2">
      <defs>
       <path d="M 0 0 
L 0 3.5 
" id="mde7a0b00e5" style="stroke:#000000;stroke-width:0.8;"/>
      </defs>
      <g>
       <use style="stroke:#000000;stroke-width:0.8;" x="57.6" xlink:href="#mde7a0b00e5" y="298.944"/>
      </g>
     </g>
     <g id="text_1">
      <!-- 0 -->
      <g transform="translate(51.2375 321.140875)scale(0.2 -0.2)">
       <defs>
        <path d="M 31.78125 66.40625 
Q 24.171875 66.40625 20.328125 58.90625 
Q 16.5 51.421875 16.5 36.375 
Q 16.5 21.390625 20.328125 13.890625 
Q 24.171875 6.390625 31.78125 6.390625 
Q 39.453125 6.390625 43.28125 13.890625 
Q 47.125 21.390625 47.125 36.375 
Q 47.125 51.421875 43.28125 58.90625 
Q 39.453125 66.40625 31.78125 66.40625 
z
M 31.78125 74.21875 
Q 44.046875 74.21875 50.515625 64.515625 
Q 56.984375 54.828125 56.984375 36.375 
Q 56.984375 17.96875 50.515625 8.265625 
Q 44.046875 -1.421875 31.78125 -1.421875 
Q 19.53125 -1.421875 13.0625 8.265625 
Q 6.59375 17.96875 6.59375 36.375 
Q 6.59375 54.828125 13.0625 64.515625 
Q 19.53125 74.21875 31.78125 74.21875 
z
" id="DejaVuSans-48"/>
       </defs>
       <use xlink:href="#DejaVuSans-48"/>
      </g>
     </g>
    </g>
    <g id="xtick_2">
     <g id="line2d_3">
      <path clip-path="url(#pf89068c8c2)" d="M 137.910857 298.944 
L 137.910857 27.648 
" style="fill:none;stroke:#b0b0b0;stroke-linecap:square;stroke-width:0.8;"/>
     </g>
     <g id="line2d_4">
      <g>
       <use style="stroke:#000000;stroke-width:0.8;" x="137.910857" xlink:href="#mde7a0b00e5" y="298.944"/>
      </g>
     </g>
     <g id="text_2">
      <!-- 2 -->
      <g transform="translate(131.548357 321.140875)scale(0.2 -0.2)">
       <defs>
        <path d="M 19.1875 8.296875 
L 53.609375 8.296875 
L 53.609375 0 
L 7.328125 0 
L 7.328125 8.296875 
Q 12.9375 14.109375 22.625 23.890625 
Q 32.328125 33.6875 34.8125 36.53125 
Q 39.546875 41.84375 41.421875 45.53125 
Q 43.3125 49.21875 43.3125 52.78125 
Q 43.3125 58.59375 39.234375 62.25 
Q 35.15625 65.921875 28.609375 65.921875 
Q 23.96875 65.921875 18.8125 64.3125 
Q 13.671875 62.703125 7.8125 59.421875 
L 7.8125 69.390625 
Q 13.765625 71.78125 18.9375 73 
Q 24.125 74.21875 28.421875 74.21875 
Q 39.75 74.21875 46.484375 68.546875 
Q 53.21875 62.890625 53.21875 53.421875 
Q 53.21875 48.921875 51.53125 44.890625 
Q 49.859375 40.875 45.40625 35.40625 
Q 44.1875 33.984375 37.640625 27.21875 
Q 31.109375 20.453125 19.1875 8.296875 
z
" id="DejaVuSans-50"/>
       </defs>
       <use xlink:href="#DejaVuSans-50"/>
      </g>
     </g>
    </g>
    <g id="xtick_3">
     <g id="line2d_5">
      <path clip-path="url(#pf89068c8c2)" d="M 218.221714 298.944 
L 218.221714 27.648 
" style="fill:none;stroke:#b0b0b0;stroke-linecap:square;stroke-width:0.8;"/>
     </g>
     <g id="line2d_6">
      <g>
       <use style="stroke:#000000;stroke-width:0.8;" x="218.221714" xlink:href="#mde7a0b00e5" y="298.944"/>
      </g>
     </g>
     <g id="text_3">
      <!-- 4 -->
      <g transform="translate(211.859214 321.140875)scale(0.2 -0.2)">
       <defs>
        <path d="M 37.796875 64.3125 
L 12.890625 25.390625 
L 37.796875 25.390625 
z
M 35.203125 72.90625 
L 47.609375 72.90625 
L 47.609375 25.390625 
L 58.015625 25.390625 
L 58.015625 17.1875 
L 47.609375 17.1875 
L 47.609375 0 
L 37.796875 0 
L 37.796875 17.1875 
L 4.890625 17.1875 
L 4.890625 26.703125 
z
" id="DejaVuSans-52"/>
       </defs>
       <use xlink:href="#DejaVuSans-52"/>
      </g>
     </g>
    </g>
    <g id="xtick_4">
     <g id="line2d_7">
      <path clip-path="url(#pf89068c8c2)" d="M 298.532571 298.944 
L 298.532571 27.648 
" style="fill:none;stroke:#b0b0b0;stroke-linecap:square;stroke-width:0.8;"/>
     </g>
     <g id="line2d_8">
      <g>
       <use style="stroke:#000000;stroke-width:0.8;" x="298.532571" xlink:href="#mde7a0b00e5" y="298.944"/>
      </g>
     </g>
     <g id="text_4">
      <!-- 6 -->
      <g transform="translate(292.170071 321.140875)scale(0.2 -0.2)">
       <defs>
        <path d="M 33.015625 40.375 
Q 26.375 40.375 22.484375 35.828125 
Q 18.609375 31.296875 18.609375 23.390625 
Q 18.609375 15.53125 22.484375 10.953125 
Q 26.375 6.390625 33.015625 6.390625 
Q 39.65625 6.390625 43.53125 10.953125 
Q 47.40625 15.53125 47.40625 23.390625 
Q 47.40625 31.296875 43.53125 35.828125 
Q 39.65625 40.375 33.015625 40.375 
z
M 52.59375 71.296875 
L 52.59375 62.3125 
Q 48.875 64.0625 45.09375 64.984375 
Q 41.3125 65.921875 37.59375 65.921875 
Q 27.828125 65.921875 22.671875 59.328125 
Q 17.53125 52.734375 16.796875 39.40625 
Q 19.671875 43.65625 24.015625 45.921875 
Q 28.375 48.1875 33.59375 48.1875 
Q 44.578125 48.1875 50.953125 41.515625 
Q 57.328125 34.859375 57.328125 23.390625 
Q 57.328125 12.15625 50.6875 5.359375 
Q 44.046875 -1.421875 33.015625 -1.421875 
Q 20.359375 -1.421875 13.671875 8.265625 
Q 6.984375 17.96875 6.984375 36.375 
Q 6.984375 53.65625 15.1875 63.9375 
Q 23.390625 74.21875 37.203125 74.21875 
Q 40.921875 74.21875 44.703125 73.484375 
Q 48.484375 72.75 52.59375 71.296875 
z
" id="DejaVuSans-54"/>
       </defs>
       <use xlink:href="#DejaVuSans-54"/>
      </g>
     </g>
    </g>
    <g id="xtick_5">
     <g id="line2d_9">
      <path clip-path="url(#pf89068c8c2)" d="M 97.755429 298.944 
L 97.755429 27.648 
" style="fill:none;stroke:#b0b0b0;stroke-linecap:square;stroke-width:0.8;"/>
     </g>
     <g id="line2d_10">
      <defs>
       <path d="M 0 0 
L 0 2 
" id="m3788551e3e" style="stroke:#000000;stroke-width:0.6;"/>
      </defs>
      <g>
       <use style="stroke:#000000;stroke-width:0.6;" x="97.755429" xlink:href="#m3788551e3e" y="298.944"/>
      </g>
     </g>
    </g>
    <g id="xtick_6">
     <g id="line2d_11">
      <path clip-path="url(#pf89068c8c2)" d="M 178.066286 298.944 
L 178.066286 27.648 
" style="fill:none;stroke:#b0b0b0;stroke-linecap:square;stroke-width:0.8;"/>
     </g>
     <g id="line2d_12">
      <g>
       <use style="stroke:#000000;stroke-width:0.6;" x="178.066286" xlink:href="#m3788551e3e" y="298.944"/>
      </g>
     </g>
    </g>
    <g id="xtick_7">
     <g id="line2d_13">
      <path clip-path="url(#pf89068c8c2)" d="M 258.377143 298.944 
L 258.377143 27.648 
" style="fill:none;stroke:#b0b0b0;stroke-linecap:square;stroke-width:0.8;"/>
     </g>
     <g id="line2d_14">
      <g>
       <use style="stroke:#000000;stroke-width:0.6;" x="258.377143" xlink:href="#m3788551e3e" y="298.944"/>
      </g>
     </g>
    </g>
    <g id="xtick_8">
     <g id="line2d_15">
      <path clip-path="url(#pf89068c8c2)" d="M 338.688 298.944 
L 338.688 27.648 
" style="fill:none;stroke:#b0b0b0;stroke-linecap:square;stroke-width:0.8;"/>
     </g>
     <g id="line2d_16">
      <g>
       <use style="stroke:#000000;stroke-width:0.6;" x="338.688" xlink:href="#m3788551e3e" y="298.944"/>
      </g>
     </g>
    </g>
    <g id="text_5">
     <!-- log10(# (f+g)-evals / dimension) -->
     <g transform="translate(58.145016 342.217594)scale(0.17 -0.17)">
      <defs>
       <path d="M 9.421875 75.984375 
L 18.40625 75.984375 
L 18.40625 0 
L 9.421875 0 
z
" id="DejaVuSans-108"/>
       <path d="M 30.609375 48.390625 
Q 23.390625 48.390625 19.1875 42.75 
Q 14.984375 37.109375 14.984375 27.296875 
Q 14.984375 17.484375 19.15625 11.84375 
Q 23.34375 6.203125 30.609375 6.203125 
Q 37.796875 6.203125 41.984375 11.859375 
Q 46.1875 17.53125 46.1875 27.296875 
Q 46.1875 37.015625 41.984375 42.703125 
Q 37.796875 48.390625 30.609375 48.390625 
z
M 30.609375 56 
Q 42.328125 56 49.015625 48.375 
Q 55.71875 40.765625 55.71875 27.296875 
Q 55.71875 13.875 49.015625 6.21875 
Q 42.328125 -1.421875 30.609375 -1.421875 
Q 18.84375 -1.421875 12.171875 6.21875 
Q 5.515625 13.875 5.515625 27.296875 
Q 5.515625 40.765625 12.171875 48.375 
Q 18.84375 56 30.609375 56 
z
" id="DejaVuSans-111"/>
       <path d="M 45.40625 27.984375 
Q 45.40625 37.75 41.375 43.109375 
Q 37.359375 48.484375 30.078125 48.484375 
Q 22.859375 48.484375 18.828125 43.109375 
Q 14.796875 37.75 14.796875 27.984375 
Q 14.796875 18.265625 18.828125 12.890625 
Q 22.859375 7.515625 30.078125 7.515625 
Q 37.359375 7.515625 41.375 12.890625 
Q 45.40625 18.265625 45.40625 27.984375 
z
M 54.390625 6.78125 
Q 54.390625 -7.171875 48.1875 -13.984375 
Q 42 -20.796875 29.203125 -20.796875 
Q 24.46875 -20.796875 20.265625 -20.09375 
Q 16.0625 -19.390625 12.109375 -17.921875 
L 12.109375 -9.1875 
Q 16.0625 -11.328125 19.921875 -12.34375 
Q 23.78125 -13.375 27.78125 -13.375 
Q 36.625 -13.375 41.015625 -8.765625 
Q 45.40625 -4.15625 45.40625 5.171875 
L 45.40625 9.625 
Q 42.625 4.78125 38.28125 2.390625 
Q 33.9375 0 27.875 0 
Q 17.828125 0 11.671875 7.65625 
Q 5.515625 15.328125 5.515625 27.984375 
Q 5.515625 40.671875 11.671875 48.328125 
Q 17.828125 56 27.875 56 
Q 33.9375 56 38.28125 53.609375 
Q 42.625 51.21875 45.40625 46.390625 
L 45.40625 54.6875 
L 54.390625 54.6875 
z
" id="DejaVuSans-103"/>
       <path d="M 12.40625 8.296875 
L 28.515625 8.296875 
L 28.515625 63.921875 
L 10.984375 60.40625 
L 10.984375 69.390625 
L 28.421875 72.90625 
L 38.28125 72.90625 
L 38.28125 8.296875 
L 54.390625 8.296875 
L 54.390625 0 
L 12.40625 0 
z
" id="DejaVuSans-49"/>
       <path d="M 31 75.875 
Q 24.46875 64.65625 21.28125 53.65625 
Q 18.109375 42.671875 18.109375 31.390625 
Q 18.109375 20.125 21.3125 9.0625 
Q 24.515625 -2 31 -13.1875 
L 23.1875 -13.1875 
Q 15.875 -1.703125 12.234375 9.375 
Q 8.59375 20.453125 8.59375 31.390625 
Q 8.59375 42.28125 12.203125 53.3125 
Q 15.828125 64.359375 23.1875 75.875 
z
" id="DejaVuSans-40"/>
       <path d="M 51.125 44 
L 36.921875 44 
L 32.8125 27.6875 
L 47.125 27.6875 
z
M 43.796875 71.78125 
L 38.71875 51.515625 
L 52.984375 51.515625 
L 58.109375 71.78125 
L 65.921875 71.78125 
L 60.890625 51.515625 
L 76.125 51.515625 
L 76.125 44 
L 58.984375 44 
L 54.984375 27.6875 
L 70.515625 27.6875 
L 70.515625 20.21875 
L 53.078125 20.21875 
L 48 0 
L 40.1875 0 
L 45.21875 20.21875 
L 30.90625 20.21875 
L 25.875 0 
L 18.015625 0 
L 23.09375 20.21875 
L 7.71875 20.21875 
L 7.71875 27.6875 
L 24.90625 27.6875 
L 29 44 
L 13.28125 44 
L 13.28125 51.515625 
L 30.90625 51.515625 
L 35.890625 71.78125 
z
" id="DejaVuSans-35"/>
       <path id="DejaVuSans-32"/>
       <path d="M 37.109375 75.984375 
L 37.109375 68.5 
L 28.515625 68.5 
Q 23.6875 68.5 21.796875 66.546875 
Q 19.921875 64.59375 19.921875 59.515625 
L 19.921875 54.6875 
L 34.71875 54.6875 
L 34.71875 47.703125 
L 19.921875 47.703125 
L 19.921875 0 
L 10.890625 0 
L 10.890625 47.703125 
L 2.296875 47.703125 
L 2.296875 54.6875 
L 10.890625 54.6875 
L 10.890625 58.5 
Q 10.890625 67.625 15.140625 71.796875 
Q 19.390625 75.984375 28.609375 75.984375 
z
" id="DejaVuSans-102"/>
       <path d="M 46 62.703125 
L 46 35.5 
L 73.1875 35.5 
L 73.1875 27.203125 
L 46 27.203125 
L 46 0 
L 37.796875 0 
L 37.796875 27.203125 
L 10.59375 27.203125 
L 10.59375 35.5 
L 37.796875 35.5 
L 37.796875 62.703125 
z
" id="DejaVuSans-43"/>
       <path d="M 8.015625 75.875 
L 15.828125 75.875 
Q 23.140625 64.359375 26.78125 53.3125 
Q 30.421875 42.28125 30.421875 31.390625 
Q 30.421875 20.453125 26.78125 9.375 
Q 23.140625 -1.703125 15.828125 -13.1875 
L 8.015625 -13.1875 
Q 14.5 -2 17.703125 9.0625 
Q 20.90625 20.125 20.90625 31.390625 
Q 20.90625 42.671875 17.703125 53.65625 
Q 14.5 64.65625 8.015625 75.875 
z
" id="DejaVuSans-41"/>
       <path d="M 4.890625 31.390625 
L 31.203125 31.390625 
L 31.203125 23.390625 
L 4.890625 23.390625 
z
" id="DejaVuSans-45"/>
       <path d="M 56.203125 29.59375 
L 56.203125 25.203125 
L 14.890625 25.203125 
Q 15.484375 15.921875 20.484375 11.0625 
Q 25.484375 6.203125 34.421875 6.203125 
Q 39.59375 6.203125 44.453125 7.46875 
Q 49.3125 8.734375 54.109375 11.28125 
L 54.109375 2.78125 
Q 49.265625 0.734375 44.1875 -0.34375 
Q 39.109375 -1.421875 33.890625 -1.421875 
Q 20.796875 -1.421875 13.15625 6.1875 
Q 5.515625 13.8125 5.515625 26.8125 
Q 5.515625 40.234375 12.765625 48.109375 
Q 20.015625 56 32.328125 56 
Q 43.359375 56 49.78125 48.890625 
Q 56.203125 41.796875 56.203125 29.59375 
z
M 47.21875 32.234375 
Q 47.125 39.59375 43.09375 43.984375 
Q 39.0625 48.390625 32.421875 48.390625 
Q 24.90625 48.390625 20.390625 44.140625 
Q 15.875 39.890625 15.1875 32.171875 
z
" id="DejaVuSans-101"/>
       <path d="M 2.984375 54.6875 
L 12.5 54.6875 
L 29.59375 8.796875 
L 46.6875 54.6875 
L 56.203125 54.6875 
L 35.6875 0 
L 23.484375 0 
z
" id="DejaVuSans-118"/>
       <path d="M 34.28125 27.484375 
Q 23.390625 27.484375 19.1875 25 
Q 14.984375 22.515625 14.984375 16.5 
Q 14.984375 11.71875 18.140625 8.90625 
Q 21.296875 6.109375 26.703125 6.109375 
Q 34.1875 6.109375 38.703125 11.40625 
Q 43.21875 16.703125 43.21875 25.484375 
L 43.21875 27.484375 
z
M 52.203125 31.203125 
L 52.203125 0 
L 43.21875 0 
L 43.21875 8.296875 
Q 40.140625 3.328125 35.546875 0.953125 
Q 30.953125 -1.421875 24.3125 -1.421875 
Q 15.921875 -1.421875 10.953125 3.296875 
Q 6 8.015625 6 15.921875 
Q 6 25.140625 12.171875 29.828125 
Q 18.359375 34.515625 30.609375 34.515625 
L 43.21875 34.515625 
L 43.21875 35.40625 
Q 43.21875 41.609375 39.140625 45 
Q 35.0625 48.390625 27.6875 48.390625 
Q 23 48.390625 18.546875 47.265625 
Q 14.109375 46.140625 10.015625 43.890625 
L 10.015625 52.203125 
Q 14.9375 54.109375 19.578125 55.046875 
Q 24.21875 56 28.609375 56 
Q 40.484375 56 46.34375 49.84375 
Q 52.203125 43.703125 52.203125 31.203125 
z
" id="DejaVuSans-97"/>
       <path d="M 44.28125 53.078125 
L 44.28125 44.578125 
Q 40.484375 46.53125 36.375 47.5 
Q 32.28125 48.484375 27.875 48.484375 
Q 21.1875 48.484375 17.84375 46.4375 
Q 14.5 44.390625 14.5 40.28125 
Q 14.5 37.15625 16.890625 35.375 
Q 19.28125 33.59375 26.515625 31.984375 
L 29.59375 31.296875 
Q 39.15625 29.25 43.1875 25.515625 
Q 47.21875 21.78125 47.21875 15.09375 
Q 47.21875 7.46875 41.1875 3.015625 
Q 35.15625 -1.421875 24.609375 -1.421875 
Q 20.21875 -1.421875 15.453125 -0.5625 
Q 10.6875 0.296875 5.421875 2 
L 5.421875 11.28125 
Q 10.40625 8.6875 15.234375 7.390625 
Q 20.0625 6.109375 24.8125 6.109375 
Q 31.15625 6.109375 34.5625 8.28125 
Q 37.984375 10.453125 37.984375 14.40625 
Q 37.984375 18.0625 35.515625 20.015625 
Q 33.0625 21.96875 24.703125 23.78125 
L 21.578125 24.515625 
Q 13.234375 26.265625 9.515625 29.90625 
Q 5.8125 33.546875 5.8125 39.890625 
Q 5.8125 47.609375 11.28125 51.796875 
Q 16.75 56 26.8125 56 
Q 31.78125 56 36.171875 55.265625 
Q 40.578125 54.546875 44.28125 53.078125 
z
" id="DejaVuSans-115"/>
       <path d="M 25.390625 72.90625 
L 33.6875 72.90625 
L 8.296875 -9.28125 
L 0 -9.28125 
z
" id="DejaVuSans-47"/>
       <path d="M 45.40625 46.390625 
L 45.40625 75.984375 
L 54.390625 75.984375 
L 54.390625 0 
L 45.40625 0 
L 45.40625 8.203125 
Q 42.578125 3.328125 38.25 0.953125 
Q 33.9375 -1.421875 27.875 -1.421875 
Q 17.96875 -1.421875 11.734375 6.484375 
Q 5.515625 14.40625 5.515625 27.296875 
Q 5.515625 40.1875 11.734375 48.09375 
Q 17.96875 56 27.875 56 
Q 33.9375 56 38.25 53.625 
Q 42.578125 51.265625 45.40625 46.390625 
z
M 14.796875 27.296875 
Q 14.796875 17.390625 18.875 11.75 
Q 22.953125 6.109375 30.078125 6.109375 
Q 37.203125 6.109375 41.296875 11.75 
Q 45.40625 17.390625 45.40625 27.296875 
Q 45.40625 37.203125 41.296875 42.84375 
Q 37.203125 48.484375 30.078125 48.484375 
Q 22.953125 48.484375 18.875 42.84375 
Q 14.796875 37.203125 14.796875 27.296875 
z
" id="DejaVuSans-100"/>
       <path d="M 9.421875 54.6875 
L 18.40625 54.6875 
L 18.40625 0 
L 9.421875 0 
z
M 9.421875 75.984375 
L 18.40625 75.984375 
L 18.40625 64.59375 
L 9.421875 64.59375 
z
" id="DejaVuSans-105"/>
       <path d="M 52 44.1875 
Q 55.375 50.25 60.0625 53.125 
Q 64.75 56 71.09375 56 
Q 79.640625 56 84.28125 50.015625 
Q 88.921875 44.046875 88.921875 33.015625 
L 88.921875 0 
L 79.890625 0 
L 79.890625 32.71875 
Q 79.890625 40.578125 77.09375 44.375 
Q 74.3125 48.1875 68.609375 48.1875 
Q 61.625 48.1875 57.5625 43.546875 
Q 53.515625 38.921875 53.515625 30.90625 
L 53.515625 0 
L 44.484375 0 
L 44.484375 32.71875 
Q 44.484375 40.625 41.703125 44.40625 
Q 38.921875 48.1875 33.109375 48.1875 
Q 26.21875 48.1875 22.15625 43.53125 
Q 18.109375 38.875 18.109375 30.90625 
L 18.109375 0 
L 9.078125 0 
L 9.078125 54.6875 
L 18.109375 54.6875 
L 18.109375 46.1875 
Q 21.1875 51.21875 25.484375 53.609375 
Q 29.78125 56 35.6875 56 
Q 41.65625 56 45.828125 52.96875 
Q 50 49.953125 52 44.1875 
z
" id="DejaVuSans-109"/>
       <path d="M 54.890625 33.015625 
L 54.890625 0 
L 45.90625 0 
L 45.90625 32.71875 
Q 45.90625 40.484375 42.875 44.328125 
Q 39.84375 48.1875 33.796875 48.1875 
Q 26.515625 48.1875 22.3125 43.546875 
Q 18.109375 38.921875 18.109375 30.90625 
L 18.109375 0 
L 9.078125 0 
L 9.078125 54.6875 
L 18.109375 54.6875 
L 18.109375 46.1875 
Q 21.34375 51.125 25.703125 53.5625 
Q 30.078125 56 35.796875 56 
Q 45.21875 56 50.046875 50.171875 
Q 54.890625 44.34375 54.890625 33.015625 
z
" id="DejaVuSans-110"/>
      </defs>
      <use xlink:href="#DejaVuSans-108"/>
      <use x="27.783203" xlink:href="#DejaVuSans-111"/>
      <use x="88.964844" xlink:href="#DejaVuSans-103"/>
      <use x="152.441406" xlink:href="#DejaVuSans-49"/>
      <use x="216.064453" xlink:href="#DejaVuSans-48"/>
      <use x="279.6875" xlink:href="#DejaVuSans-40"/>
      <use x="318.701172" xlink:href="#DejaVuSans-35"/>
      <use x="402.490234" xlink:href="#DejaVuSans-32"/>
      <use x="434.277344" xlink:href="#DejaVuSans-40"/>
      <use x="473.291016" xlink:href="#DejaVuSans-102"/>
      <use x="508.496094" xlink:href="#DejaVuSans-43"/>
      <use x="592.285156" xlink:href="#DejaVuSans-103"/>
      <use x="655.761719" xlink:href="#DejaVuSans-41"/>
      <use x="694.775391" xlink:href="#DejaVuSans-45"/>
      <use x="730.859375" xlink:href="#DejaVuSans-101"/>
      <use x="792.382812" xlink:href="#DejaVuSans-118"/>
      <use x="851.5625" xlink:href="#DejaVuSans-97"/>
      <use x="912.841797" xlink:href="#DejaVuSans-108"/>
      <use x="940.625" xlink:href="#DejaVuSans-115"/>
      <use x="992.724609" xlink:href="#DejaVuSans-32"/>
      <use x="1024.511719" xlink:href="#DejaVuSans-47"/>
      <use x="1058.203125" xlink:href="#DejaVuSans-32"/>
      <use x="1089.990234" xlink:href="#DejaVuSans-100"/>
      <use x="1153.466797" xlink:href="#DejaVuSans-105"/>
      <use x="1181.25" xlink:href="#DejaVuSans-109"/>
      <use x="1278.662109" xlink:href="#DejaVuSans-101"/>
      <use x="1340.185547" xlink:href="#DejaVuSans-110"/>
      <use x="1403.564453" xlink:href="#DejaVuSans-115"/>
      <use x="1455.664062" xlink:href="#DejaVuSans-105"/>
      <use x="1483.447266" xlink:href="#DejaVuSans-111"/>
      <use x="1544.628906" xlink:href="#DejaVuSans-110"/>
      <use x="1608.007812" xlink:href="#DejaVuSans-41"/>
     </g>
    </g>
   </g>
   <g id="matplotlib.axis_2">
    <g id="ytick_1">
     <g id="line2d_17">
      <path clip-path="url(#pf89068c8c2)" d="M 57.6 298.944 
L 338.688 298.944 
" style="fill:none;stroke:#b0b0b0;stroke-linecap:square;stroke-width:0.8;"/>
     </g>
     <g id="line2d_18">
      <defs>
       <path d="M 0 0 
L -3.5 0 
" id="mfb7868b0e7" style="stroke:#000000;stroke-width:0.8;"/>
      </defs>
      <g>
       <use style="stroke:#000000;stroke-width:0.8;" x="57.6" xlink:href="#mfb7868b0e7" y="298.944"/>
      </g>
     </g>
     <g id="text_6">
      <!-- 0.0 -->
      <g transform="translate(25.155 305.02275)scale(0.16 -0.16)">
       <defs>
        <path d="M 10.6875 12.40625 
L 21 12.40625 
L 21 0 
L 10.6875 0 
z
" id="DejaVuSans-46"/>
       </defs>
       <use xlink:href="#DejaVuSans-48"/>
       <use x="63.623047" xlink:href="#DejaVuSans-46"/>
       <use x="95.410156" xlink:href="#DejaVuSans-48"/>
      </g>
     </g>
    </g>
    <g id="ytick_2">
     <g id="line2d_19">
      <path clip-path="url(#pf89068c8c2)" d="M 57.6 245.22202 
L 338.688 245.22202 
" style="fill:none;stroke:#b0b0b0;stroke-linecap:square;stroke-width:0.8;"/>
     </g>
     <g id="line2d_20">
      <g>
       <use style="stroke:#000000;stroke-width:0.8;" x="57.6" xlink:href="#mfb7868b0e7" y="245.22202"/>
      </g>
     </g>
     <g id="text_7">
      <!-- 0.2 -->
      <g transform="translate(25.155 251.30077)scale(0.16 -0.16)">
       <use xlink:href="#DejaVuSans-48"/>
       <use x="63.623047" xlink:href="#DejaVuSans-46"/>
       <use x="95.410156" xlink:href="#DejaVuSans-50"/>
      </g>
     </g>
    </g>
    <g id="ytick_3">
     <g id="line2d_21">
      <path clip-path="url(#pf89068c8c2)" d="M 57.6 191.50004 
L 338.688 191.50004 
" style="fill:none;stroke:#b0b0b0;stroke-linecap:square;stroke-width:0.8;"/>
     </g>
     <g id="line2d_22">
      <g>
       <use style="stroke:#000000;stroke-width:0.8;" x="57.6" xlink:href="#mfb7868b0e7" y="191.50004"/>
      </g>
     </g>
     <g id="text_8">
      <!-- 0.4 -->
      <g transform="translate(25.155 197.57879)scale(0.16 -0.16)">
       <use xlink:href="#DejaVuSans-48"/>
       <use x="63.623047" xlink:href="#DejaVuSans-46"/>
       <use x="95.410156" xlink:href="#DejaVuSans-52"/>
      </g>
     </g>
    </g>
    <g id="ytick_4">
     <g id="line2d_23">
      <path clip-path="url(#pf89068c8c2)" d="M 57.6 137.778059 
L 338.688 137.778059 
" style="fill:none;stroke:#b0b0b0;stroke-linecap:square;stroke-width:0.8;"/>
     </g>
     <g id="line2d_24">
      <g>
       <use style="stroke:#000000;stroke-width:0.8;" x="57.6" xlink:href="#mfb7868b0e7" y="137.778059"/>
      </g>
     </g>
     <g id="text_9">
      <!-- 0.6 -->
      <g transform="translate(25.155 143.856809)scale(0.16 -0.16)">
       <use xlink:href="#DejaVuSans-48"/>
       <use x="63.623047" xlink:href="#DejaVuSans-46"/>
       <use x="95.410156" xlink:href="#DejaVuSans-54"/>
      </g>
     </g>
    </g>
    <g id="ytick_5">
     <g id="line2d_25">
      <path clip-path="url(#pf89068c8c2)" d="M 57.6 84.056079 
L 338.688 84.056079 
" style="fill:none;stroke:#b0b0b0;stroke-linecap:square;stroke-width:0.8;"/>
     </g>
     <g id="line2d_26">
      <g>
       <use style="stroke:#000000;stroke-width:0.8;" x="57.6" xlink:href="#mfb7868b0e7" y="84.056079"/>
      </g>
     </g>
     <g id="text_10">
      <!-- 0.8 -->
      <g transform="translate(25.155 90.134829)scale(0.16 -0.16)">
       <defs>
        <path d="M 31.78125 34.625 
Q 24.75 34.625 20.71875 30.859375 
Q 16.703125 27.09375 16.703125 20.515625 
Q 16.703125 13.921875 20.71875 10.15625 
Q 24.75 6.390625 31.78125 6.390625 
Q 38.8125 6.390625 42.859375 10.171875 
Q 46.921875 13.96875 46.921875 20.515625 
Q 46.921875 27.09375 42.890625 30.859375 
Q 38.875 34.625 31.78125 34.625 
z
M 21.921875 38.8125 
Q 15.578125 40.375 12.03125 44.71875 
Q 8.5 49.078125 8.5 55.328125 
Q 8.5 64.0625 14.71875 69.140625 
Q 20.953125 74.21875 31.78125 74.21875 
Q 42.671875 74.21875 48.875 69.140625 
Q 55.078125 64.0625 55.078125 55.328125 
Q 55.078125 49.078125 51.53125 44.71875 
Q 48 40.375 41.703125 38.8125 
Q 48.828125 37.15625 52.796875 32.3125 
Q 56.78125 27.484375 56.78125 20.515625 
Q 56.78125 9.90625 50.3125 4.234375 
Q 43.84375 -1.421875 31.78125 -1.421875 
Q 19.734375 -1.421875 13.25 4.234375 
Q 6.78125 9.90625 6.78125 20.515625 
Q 6.78125 27.484375 10.78125 32.3125 
Q 14.796875 37.15625 21.921875 38.8125 
z
M 18.3125 54.390625 
Q 18.3125 48.734375 21.84375 45.5625 
Q 25.390625 42.390625 31.78125 42.390625 
Q 38.140625 42.390625 41.71875 45.5625 
Q 45.3125 48.734375 45.3125 54.390625 
Q 45.3125 60.0625 41.71875 63.234375 
Q 38.140625 66.40625 31.78125 66.40625 
Q 25.390625 66.40625 21.84375 63.234375 
Q 18.3125 60.0625 18.3125 54.390625 
z
" id="DejaVuSans-56"/>
       </defs>
       <use xlink:href="#DejaVuSans-48"/>
       <use x="63.623047" xlink:href="#DejaVuSans-46"/>
       <use x="95.410156" xlink:href="#DejaVuSans-56"/>
      </g>
     </g>
    </g>
    <g id="ytick_6">
     <g id="line2d_27">
      <path clip-path="url(#pf89068c8c2)" d="M 57.6 30.334099 
L 338.688 30.334099 
" style="fill:none;stroke:#b0b0b0;stroke-linecap:square;stroke-width:0.8;"/>
     </g>
     <g id="line2d_28">
      <g>
       <use style="stroke:#000000;stroke-width:0.8;" x="57.6" xlink:href="#mfb7868b0e7" y="30.334099"/>
      </g>
     </g>
     <g id="text_11">
      <!-- 1.0 -->
      <g transform="translate(25.155 36.412849)scale(0.16 -0.16)">
       <use xlink:href="#DejaVuSans-49"/>
       <use x="63.623047" xlink:href="#DejaVuSans-46"/>
       <use x="95.410156" xlink:href="#DejaVuSans-48"/>
      </g>
     </g>
    </g>
    <g id="text_12">
     <!-- Fraction of function,target pairs -->
     <g transform="translate(17.619531 297.681)rotate(-90)scale(0.17 -0.17)">
      <defs>
       <path d="M 9.8125 72.90625 
L 51.703125 72.90625 
L 51.703125 64.59375 
L 19.671875 64.59375 
L 19.671875 43.109375 
L 48.578125 43.109375 
L 48.578125 34.8125 
L 19.671875 34.8125 
L 19.671875 0 
L 9.8125 0 
z
" id="DejaVuSans-70"/>
       <path d="M 41.109375 46.296875 
Q 39.59375 47.171875 37.8125 47.578125 
Q 36.03125 48 33.890625 48 
Q 26.265625 48 22.1875 43.046875 
Q 18.109375 38.09375 18.109375 28.8125 
L 18.109375 0 
L 9.078125 0 
L 9.078125 54.6875 
L 18.109375 54.6875 
L 18.109375 46.1875 
Q 20.953125 51.171875 25.484375 53.578125 
Q 30.03125 56 36.53125 56 
Q 37.453125 56 38.578125 55.875 
Q 39.703125 55.765625 41.0625 55.515625 
z
" id="DejaVuSans-114"/>
       <path d="M 48.78125 52.59375 
L 48.78125 44.1875 
Q 44.96875 46.296875 41.140625 47.34375 
Q 37.3125 48.390625 33.40625 48.390625 
Q 24.65625 48.390625 19.8125 42.84375 
Q 14.984375 37.3125 14.984375 27.296875 
Q 14.984375 17.28125 19.8125 11.734375 
Q 24.65625 6.203125 33.40625 6.203125 
Q 37.3125 6.203125 41.140625 7.25 
Q 44.96875 8.296875 48.78125 10.40625 
L 48.78125 2.09375 
Q 45.015625 0.34375 40.984375 -0.53125 
Q 36.96875 -1.421875 32.421875 -1.421875 
Q 20.0625 -1.421875 12.78125 6.34375 
Q 5.515625 14.109375 5.515625 27.296875 
Q 5.515625 40.671875 12.859375 48.328125 
Q 20.21875 56 33.015625 56 
Q 37.15625 56 41.109375 55.140625 
Q 45.0625 54.296875 48.78125 52.59375 
z
" id="DejaVuSans-99"/>
       <path d="M 18.3125 70.21875 
L 18.3125 54.6875 
L 36.8125 54.6875 
L 36.8125 47.703125 
L 18.3125 47.703125 
L 18.3125 18.015625 
Q 18.3125 11.328125 20.140625 9.421875 
Q 21.96875 7.515625 27.59375 7.515625 
L 36.8125 7.515625 
L 36.8125 0 
L 27.59375 0 
Q 17.1875 0 13.234375 3.875 
Q 9.28125 7.765625 9.28125 18.015625 
L 9.28125 47.703125 
L 2.6875 47.703125 
L 2.6875 54.6875 
L 9.28125 54.6875 
L 9.28125 70.21875 
z
" id="DejaVuSans-116"/>
       <path d="M 8.5 21.578125 
L 8.5 54.6875 
L 17.484375 54.6875 
L 17.484375 21.921875 
Q 17.484375 14.15625 20.5 10.265625 
Q 23.53125 6.390625 29.59375 6.390625 
Q 36.859375 6.390625 41.078125 11.03125 
Q 45.3125 15.671875 45.3125 23.6875 
L 45.3125 54.6875 
L 54.296875 54.6875 
L 54.296875 0 
L 45.3125 0 
L 45.3125 8.40625 
Q 42.046875 3.421875 37.71875 1 
Q 33.40625 -1.421875 27.6875 -1.421875 
Q 18.265625 -1.421875 13.375 4.4375 
Q 8.5 10.296875 8.5 21.578125 
z
M 31.109375 56 
z
" id="DejaVuSans-117"/>
       <path d="M 11.71875 12.40625 
L 22.015625 12.40625 
L 22.015625 4 
L 14.015625 -11.625 
L 7.71875 -11.625 
L 11.71875 4 
z
" id="DejaVuSans-44"/>
       <path d="M 18.109375 8.203125 
L 18.109375 -20.796875 
L 9.078125 -20.796875 
L 9.078125 54.6875 
L 18.109375 54.6875 
L 18.109375 46.390625 
Q 20.953125 51.265625 25.265625 53.625 
Q 29.59375 56 35.59375 56 
Q 45.5625 56 51.78125 48.09375 
Q 58.015625 40.1875 58.015625 27.296875 
Q 58.015625 14.40625 51.78125 6.484375 
Q 45.5625 -1.421875 35.59375 -1.421875 
Q 29.59375 -1.421875 25.265625 0.953125 
Q 20.953125 3.328125 18.109375 8.203125 
z
M 48.6875 27.296875 
Q 48.6875 37.203125 44.609375 42.84375 
Q 40.53125 48.484375 33.40625 48.484375 
Q 26.265625 48.484375 22.1875 42.84375 
Q 18.109375 37.203125 18.109375 27.296875 
Q 18.109375 17.390625 22.1875 11.75 
Q 26.265625 6.109375 33.40625 6.109375 
Q 40.53125 6.109375 44.609375 11.75 
Q 48.6875 17.390625 48.6875 27.296875 
z
" id="DejaVuSans-112"/>
      </defs>
      <use xlink:href="#DejaVuSans-70"/>
      <use x="50.269531" xlink:href="#DejaVuSans-114"/>
      <use x="91.382812" xlink:href="#DejaVuSans-97"/>
      <use x="152.662109" xlink:href="#DejaVuSans-99"/>
      <use x="207.642578" xlink:href="#DejaVuSans-116"/>
      <use x="246.851562" xlink:href="#DejaVuSans-105"/>
      <use x="274.634766" xlink:href="#DejaVuSans-111"/>
      <use x="335.816406" xlink:href="#DejaVuSans-110"/>
      <use x="399.195312" xlink:href="#DejaVuSans-32"/>
      <use x="430.982422" xlink:href="#DejaVuSans-111"/>
      <use x="492.164062" xlink:href="#DejaVuSans-102"/>
      <use x="527.369141" xlink:href="#DejaVuSans-32"/>
      <use x="559.15625" xlink:href="#DejaVuSans-102"/>
      <use x="594.361328" xlink:href="#DejaVuSans-117"/>
      <use x="657.740234" xlink:href="#DejaVuSans-110"/>
      <use x="721.119141" xlink:href="#DejaVuSans-99"/>
      <use x="776.099609" xlink:href="#DejaVuSans-116"/>
      <use x="815.308594" xlink:href="#DejaVuSans-105"/>
      <use x="843.091797" xlink:href="#DejaVuSans-111"/>
      <use x="904.273438" xlink:href="#DejaVuSans-110"/>
      <use x="967.652344" xlink:href="#DejaVuSans-44"/>
      <use x="999.439453" xlink:href="#DejaVuSans-116"/>
      <use x="1038.648438" xlink:href="#DejaVuSans-97"/>
      <use x="1099.927734" xlink:href="#DejaVuSans-114"/>
      <use x="1139.291016" xlink:href="#DejaVuSans-103"/>
      <use x="1202.767578" xlink:href="#DejaVuSans-101"/>
      <use x="1264.291016" xlink:href="#DejaVuSans-116"/>
      <use x="1303.5" xlink:href="#DejaVuSans-32"/>
      <use x="1335.287109" xlink:href="#DejaVuSans-112"/>
      <use x="1398.763672" xlink:href="#DejaVuSans-97"/>
      <use x="1460.042969" xlink:href="#DejaVuSans-105"/>
      <use x="1487.826172" xlink:href="#DejaVuSans-114"/>
      <use x="1528.939453" xlink:href="#DejaVuSans-115"/>
     </g>
    </g>
   </g>
   <g id="line2d_29">
    <defs>
     <path d="M 0 1.5 
C 0.397805 1.5 0.77937 1.341951 1.06066 1.06066 
C 1.341951 0.77937 1.5 0.397805 1.5 0 
C 1.5 -0.397805 1.341951 -0.77937 1.06066 -1.06066 
C 0.77937 -1.341951 0.397805 -1.5 0 -1.5 
C -0.397805 -1.5 -0.77937 -1.341951 -1.06066 -1.06066 
C -1.341951 -0.77937 -1.5 -0.397805 -1.5 0 
C -1.5 0.397805 -1.341951 0.77937 -1.06066 1.06066 
C -0.77937 1.341951 -0.397805 1.5 0 1.5 
z
" id="m969a8eb114" style="stroke:#000080;"/>
    </defs>
    <g>
     <use style="fill:#000080;stroke:#000080;" x="198.466676" xlink:href="#m969a8eb114" y="30.334099"/>
     <use style="fill:#000080;stroke:#000080;" x="198.466676" xlink:href="#m969a8eb114" y="30.334099"/>
    </g>
   </g>
   <g id="line2d_30">
    <path d="M 148.225905 298.944 
L 148.225905 298.288854 
L 150.287105 298.288854 
L 150.287105 297.633708 
L 151.287083 297.633708 
L 151.287083 296.978562 
L 151.818809 296.978562 
L 151.818809 296.323416 
L 153.129893 296.323416 
L 153.129893 295.66827 
L 153.656221 295.66827 
L 153.656221 294.357977 
L 155.102793 294.357977 
L 155.102793 293.702831 
L 155.949527 293.702831 
L 155.949527 293.047685 
L 156.317544 293.047685 
L 156.317544 292.392539 
L 157.108577 292.392539 
L 157.108577 291.737393 
L 157.67916 291.737393 
L 157.67916 291.082247 
L 157.86528 291.082247 
L 157.939176 289.771955 
L 159.218393 289.771955 
L 159.218393 289.116809 
L 159.524055 289.116809 
L 159.524055 288.461662 
L 159.923445 288.461662 
L 159.923445 287.806516 
L 162.20271 287.806516 
L 162.20271 287.15137 
L 162.517456 287.15137 
L 162.517456 286.496224 
L 162.68677 286.496224 
L 162.68677 285.185932 
L 163.048075 285.185932 
L 163.07556 283.87564 
L 163.589711 283.87564 
L 163.589711 283.220494 
L 163.906798 283.220494 
L 163.906798 282.565348 
L 164.243924 282.565348 
L 164.243924 281.910201 
L 164.42279 281.910201 
L 164.42279 281.255055 
L 164.824867 281.255055 
L 164.824867 280.599909 
L 165.290595 280.599909 
L 165.363008 278.634471 
L 165.838222 278.634471 
L 165.838222 277.979325 
L 166.047915 277.979325 
L 166.047915 277.324179 
L 166.300829 277.324179 
L 166.300829 276.669033 
L 166.437252 276.669033 
L 166.437252 276.013887 
L 167.190782 276.013887 
L 167.190782 275.35874 
L 167.320442 275.35874 
L 167.427761 274.048448 
L 167.470505 274.048448 
L 167.555679 272.738156 
L 167.745812 272.738156 
L 167.787784 271.427864 
L 167.954668 271.427864 
L 167.996141 270.117572 
L 168.324419 270.117572 
L 168.324419 269.462426 
L 168.626667 269.462426 
L 168.626667 268.152133 
L 168.884444 268.152133 
L 168.943394 266.841841 
L 169.099626 266.841841 
L 169.099626 266.186695 
L 169.27373 266.186695 
L 169.312185 264.876403 
L 169.54115 264.876403 
L 169.635673 263.566111 
L 169.78585 263.566111 
L 169.841835 260.945526 
L 169.990255 260.945526 
L 170.045589 258.980088 
L 170.119095 258.980088 
L 170.137423 257.669796 
L 170.301516 257.669796 
L 170.301516 257.01465 
L 170.571619 257.01465 
L 170.607318 254.394065 
L 170.784729 254.394065 
L 170.784729 253.738919 
L 171.082245 253.738919 
L 171.151517 251.773481 
L 171.323504 251.773481 
L 171.323504 251.118335 
L 171.679247 251.118335 
L 171.72948 248.49775 
L 171.928978 248.49775 
L 172.027878 247.187458 
L 172.158878 247.187458 
L 172.20775 245.22202 
L 172.353551 245.22202 
L 172.353551 243.911728 
L 172.593876 243.911728 
L 172.593876 243.256582 
L 172.909242 243.256582 
L 172.940467 241.946289 
L 173.033809 241.946289 
L 173.033809 240.635997 
L 173.249682 240.635997 
L 173.356625 238.670559 
L 173.55351 238.670559 
L 173.55351 238.015413 
L 173.673575 238.015413 
L 173.748197 234.739682 
L 174.116595 234.739682 
L 174.189349 233.42939 
L 174.333954 233.42939 
L 174.377103 232.119098 
L 174.491647 232.119098 
L 174.505913 229.498513 
L 174.746654 229.498513 
L 174.760712 228.188221 
L 175.025688 228.188221 
L 175.080963 226.877929 
L 175.177275 226.877929 
L 175.218389 223.602199 
L 175.341154 223.602199 
L 175.436043 221.63676 
L 175.637655 221.63676 
L 175.6777 219.671322 
L 175.876553 219.671322 
L 175.876553 219.016176 
L 176.007874 219.016176 
L 176.112223 216.395591 
L 176.151193 216.395591 
L 176.254691 215.085299 
L 176.34475 215.085299 
L 176.370396 213.119861 
L 176.510779 213.119861 
L 176.510779 212.464715 
L 176.813202 212.464715 
L 176.82569 209.84413 
L 176.987223 209.84413 
L 177.098184 207.878692 
L 177.171768 207.878692 
L 177.171768 206.5684 
L 177.450996 206.5684 
L 177.499105 205.258108 
L 177.785001 205.258108 
L 177.891015 202.637523 
L 177.937926 202.637523 
L 177.996389 200.016939 
L 178.112729 200.016939 
L 178.112729 199.361793 
L 178.262819 199.361793 
L 178.297273 198.051501 
L 178.388818 198.051501 
L 178.479885 196.086062 
L 178.683063 196.086062 
L 178.783772 194.120624 
L 178.850589 194.120624 
L 178.894992 192.810332 
L 179.104376 192.810332 
L 179.191791 190.844894 
L 179.235335 190.844894 
L 179.300447 188.224309 
L 179.451438 188.224309 
L 179.451438 187.569163 
L 179.601132 187.569163 
L 179.601132 186.914017 
L 179.770653 186.914017 
L 179.875772 185.603725 
L 180.042657 185.603725 
L 180.146154 182.98314 
L 180.207959 182.98314 
L 180.310483 179.052264 
L 180.351324 179.052264 
L 180.351324 178.397118 
L 180.734621 178.397118 
L 180.794378 176.431679 
L 180.883633 176.431679 
L 180.992105 175.121387 
L 181.021571 175.121387 
L 181.021571 173.811095 
L 181.274884 173.811095 
L 181.323179 171.845657 
L 181.438544 171.845657 
L 181.438544 171.190511 
L 181.667009 171.190511 
L 181.704798 169.225072 
L 181.836415 169.225072 
L 181.883182 167.91478 
L 181.957749 167.91478 
L 181.994913 165.949342 
L 182.078244 165.949342 
L 182.124367 163.328757 
L 182.252868 163.328757 
L 182.325874 160.708173 
L 182.371348 160.708173 
L 182.480004 156.777296 
L 182.61488 156.777296 
L 182.686389 155.467004 
L 182.730934 155.467004 
L 182.837379 154.156712 
L 182.978303 154.156712 
L 183.039601 152.191274 
L 183.196243 152.191274 
L 183.196243 151.536128 
L 183.37723 151.536128 
L 183.454225 148.915543 
L 183.632568 148.915543 
L 183.700032 147.605251 
L 183.767235 147.605251 
L 183.859219 146.294959 
L 184.02523 146.294959 
L 184.058243 143.019228 
L 184.214209 143.019228 
L 184.230545 141.708936 
L 184.594129 141.708936 
L 184.665945 136.467767 
L 184.856021 136.467767 
L 184.856021 135.157475 
L 185.183749 135.157475 
L 185.283952 132.536891 
L 185.337671 132.536891 
L 185.337671 131.881745 
L 185.611353 131.881745 
L 185.626432 130.571452 
L 185.969707 130.571452 
L 185.969707 127.950868 
L 186.182697 127.950868 
L 186.182697 126.640576 
L 186.299105 126.640576 
L 186.364245 120.089115 
L 186.414741 120.089115 
L 186.515297 116.158238 
L 186.53677 116.158238 
L 186.615277 114.1928 
L 186.686342 114.1928 
L 186.735916 112.227362 
L 186.806491 112.227362 
L 186.897815 110.261923 
L 187.030434 110.261923 
L 187.134425 106.331047 
L 187.210293 106.331047 
L 187.320061 104.365608 
L 187.333733 104.365608 
L 187.395127 103.055316 
L 187.503741 103.055316 
L 187.604956 101.745024 
L 187.798988 101.745024 
L 187.858769 97.814147 
L 187.951355 97.814147 
L 187.95795 96.503855 
L 188.082775 96.503855 
L 188.187202 93.883271 
L 188.200211 93.883271 
L 188.291007 91.917832 
L 188.368458 91.917832 
L 188.368458 91.262686 
L 188.611474 91.262686 
L 188.719104 89.297248 
L 188.750634 89.297248 
L 188.844884 87.986956 
L 188.90119 87.986956 
L 188.944859 84.711225 
L 189.044263 84.711225 
L 189.112277 78.81491 
L 189.21687 78.81491 
L 189.21687 78.159764 
L 189.369552 78.159764 
L 189.478662 76.194326 
L 189.587093 76.194326 
L 189.682914 74.228888 
L 189.943737 74.228888 
L 189.943737 73.573742 
L 190.096046 73.573742 
L 190.096046 72.918596 
L 190.373784 72.918596 
L 190.396731 71.608303 
L 190.567873 71.608303 
L 190.613229 70.298011 
L 190.686682 70.298011 
L 190.793482 63.091404 
L 190.843844 63.091404 
L 190.905201 60.47082 
L 191.027271 60.47082 
L 191.110013 58.505381 
L 191.24705 58.505381 
L 191.24705 57.850235 
L 191.404676 57.850235 
L 191.480264 56.539943 
L 191.582327 56.539943 
L 191.689121 53.919359 
L 191.916535 53.919359 
L 192.000403 51.298774 
L 192.239301 51.298774 
L 192.249614 48.67819 
L 192.561266 48.67819 
L 192.60678 46.712752 
L 193.060421 46.712752 
L 193.134077 44.747313 
L 194.317979 44.747313 
L 194.340856 42.781875 
L 195.465219 42.781875 
L 195.465219 40.816437 
L 195.627366 40.816437 
L 195.627366 40.161291 
L 196.257192 40.161291 
L 196.257192 38.850998 
L 197.128139 38.850998 
L 197.128139 37.540706 
L 197.364253 37.540706 
L 197.364253 35.575268 
L 197.774608 35.575268 
L 197.774608 34.920122 
L 198.087229 34.920122 
L 198.142469 30.989245 
L 198.466676 30.989245 
L 198.466676 30.334099 
L 338.688 30.334099 
L 338.688 30.334099 
" style="fill:none;stroke:#000080;stroke-linecap:square;stroke-width:1.5;"/>
   </g>
   <g id="line2d_31">
    <defs>
     <path d="M 0 6 
C 1.591219 6 3.117479 5.367802 4.242641 4.242641 
C 5.367802 3.117479 6 1.591219 6 0 
C 6 -1.591219 5.367802 -3.117479 4.242641 -4.242641 
C 3.117479 -5.367802 1.591219 -6 0 -6 
C -1.591219 -6 -3.117479 -5.367802 -4.242641 -4.242641 
C -5.367802 -3.117479 -6 -1.591219 -6 0 
C -6 1.591219 -5.367802 3.117479 -4.242641 4.242641 
C -3.117479 5.367802 -1.591219 6 0 6 
z
" id="meb8ef409c6" style="stroke:#000080;stroke-width:1.5;"/>
    </defs>
    <g>
     <use style="fill-opacity:0;stroke:#000080;stroke-width:1.5;" x="184.02523" xlink:href="#meb8ef409c6" y="144.984667"/>
     <use style="fill-opacity:0;stroke:#000080;stroke-width:1.5;" x="190.742974" xlink:href="#meb8ef409c6" y="66.367135"/>
     <use style="fill-opacity:0;stroke:#000080;stroke-width:1.5;" x="198.466676" xlink:href="#meb8ef409c6" y="30.334099"/>
     <use style="fill-opacity:0;stroke:#000080;stroke-width:1.5;" x="198.466676" xlink:href="#meb8ef409c6" y="30.334099"/>
     <use style="fill-opacity:0;stroke:#000080;stroke-width:1.5;" x="338.688" xlink:href="#meb8ef409c6" y="30.334099"/>
    </g>
   </g>
   <g id="line2d_32">
    <path style="fill:none;stroke:#000080;stroke-linecap:square;stroke-width:1.5;"/>
    <g/>
   </g>
   <g id="line2d_33">
    <defs>
     <path d="M 0 1.5 
C 0.397805 1.5 0.77937 1.341951 1.06066 1.06066 
C 1.341951 0.77937 1.5 0.397805 1.5 0 
C 1.5 -0.397805 1.341951 -0.77937 1.06066 -1.06066 
C 0.77937 -1.341951 0.397805 -1.5 0 -1.5 
C -0.397805 -1.5 -0.77937 -1.341951 -1.06066 -1.06066 
C -1.341951 -0.77937 -1.5 -0.397805 -1.5 0 
C -1.5 0.397805 -1.341951 0.77937 -1.06066 1.06066 
C -0.77937 1.341951 -0.397805 1.5 0 1.5 
z
" id="m5517092d00" style="stroke:#ff00ff;"/>
    </defs>
    <g>
     <use style="fill:#ff00ff;stroke:#ff00ff;" x="189.694854" xlink:href="#m5517092d00" y="30.334099"/>
     <use style="fill:#ff00ff;stroke:#ff00ff;" x="189.694854" xlink:href="#m5517092d00" y="30.334099"/>
    </g>
   </g>
   <g id="line2d_34">
    <path d="M 135.681535 298.944 
L 135.681535 298.288854 
L 140.599134 298.288854 
L 140.599134 297.633708 
L 143.943994 297.633708 
L 144.026061 296.323416 
L 145.059213 296.323416 
L 145.059213 295.66827 
L 146.034567 295.66827 
L 146.034567 295.013123 
L 148.607802 295.013123 
L 148.607802 294.357977 
L 149.823575 294.357977 
L 149.823575 293.702831 
L 152.181601 293.702831 
L 152.181601 293.047685 
L 152.334802 293.047685 
L 152.334802 292.392539 
L 153.081247 292.392539 
L 153.129893 291.082247 
L 153.275019 291.082247 
L 153.275019 290.427101 
L 156.398281 290.427101 
L 156.43851 287.806516 
L 157.069866 287.806516 
L 157.069866 287.15137 
L 157.224197 287.15137 
L 157.300853 285.841078 
L 157.641697 285.841078 
L 157.641697 285.185932 
L 158.412011 285.185932 
L 158.412011 284.530786 
L 159.0116 284.530786 
L 159.0116 283.87564 
L 159.388866 283.87564 
L 159.388866 283.220494 
L 159.923445 283.220494 
L 159.923445 282.565348 
L 160.249422 282.565348 
L 160.249422 281.910201 
L 160.474035 281.910201 
L 160.474035 281.255055 
L 160.727241 281.255055 
L 160.727241 280.599909 
L 161.161694 280.599909 
L 161.253399 279.289617 
L 161.283861 279.289617 
L 161.374928 277.979325 
L 161.555647 277.979325 
L 161.64531 276.669033 
L 162.115875 276.669033 
L 162.115875 276.013887 
L 162.770815 276.013887 
L 162.770815 275.35874 
L 162.9377 275.35874 
L 162.9377 274.703594 
L 163.21234 274.703594 
L 163.239567 272.738156 
L 163.50953 272.738156 
L 163.50953 272.08301 
L 163.801742 272.08301 
L 163.880593 268.807279 
L 165.022481 268.807279 
L 165.022481 268.152133 
L 165.193576 268.152133 
L 165.193576 267.496987 
L 165.838222 267.496987 
L 165.838222 266.841841 
L 166.391896 266.841841 
L 166.459886 264.876403 
L 167.06015 264.876403 
L 167.06015 264.221257 
L 167.190782 264.221257 
L 167.190782 263.566111 
L 168.037515 263.566111 
L 168.037515 262.910965 
L 168.324419 262.910965 
L 168.365023 261.600672 
L 168.546579 261.600672 
L 168.60668 259.635234 
L 168.666574 259.635234 
L 168.70639 258.324942 
L 168.825295 258.324942 
L 168.825295 255.704357 
L 168.963 255.704357 
L 168.963 255.049211 
L 169.350555 255.049211 
L 169.388841 253.083773 
L 169.465162 253.083773 
L 169.465162 252.428627 
L 169.692141 252.428627 
L 169.692141 251.773481 
L 170.045589 251.773481 
L 170.045589 251.118335 
L 170.265184 251.118335 
L 170.265184 248.49775 
L 170.589478 248.49775 
L 170.589478 247.187458 
L 170.713981 247.187458 
L 170.784729 245.877166 
L 170.85519 245.877166 
L 170.960352 244.566874 
L 170.995266 244.566874 
L 170.995266 243.911728 
L 171.134225 243.911728 
L 171.237722 241.946289 
L 171.612043 241.946289 
L 171.612043 241.291143 
L 171.945501 241.291143 
L 171.962007 239.980851 
L 172.077118 239.980851 
L 172.077118 239.325705 
L 172.224011 239.325705 
L 172.224011 238.670559 
L 172.482136 238.670559 
L 172.577957 237.360267 
L 172.593876 237.360267 
L 172.593876 236.049974 
L 172.752272 236.049974 
L 172.752272 235.394828 
L 172.909242 235.394828 
L 172.9872 232.774244 
L 173.111214 232.774244 
L 173.14208 231.463952 
L 173.341388 231.463952 
L 173.417442 229.498513 
L 174.043535 229.498513 
L 174.116595 226.877929 
L 174.348349 226.877929 
L 174.377103 224.912491 
L 174.562857 224.912491 
L 174.619617 220.981614 
L 174.732584 220.981614 
L 174.746654 219.671322 
L 174.872772 219.671322 
L 174.886729 218.36103 
L 175.039523 218.36103 
L 175.149812 215.740445 
L 175.204695 215.740445 
L 175.313947 213.119861 
L 175.327556 213.119861 
L 175.408984 210.499277 
L 175.516968 210.499277 
L 175.610908 209.188984 
L 175.717652 209.188984 
L 175.757513 207.878692 
L 175.88973 207.878692 
L 175.942337 204.602962 
L 176.047078 204.602962 
L 176.047078 203.292669 
L 176.203019 203.292669 
L 176.267585 201.327231 
L 176.34475 201.327231 
L 176.396004 199.361793 
L 176.485339 199.361793 
L 176.510779 198.051501 
L 176.8631 198.051501 
L 176.93768 196.086062 
L 176.987223 196.086062 
L 177.061275 193.465478 
L 177.110469 193.465478 
L 177.110469 192.810332 
L 177.30587 192.810332 
L 177.390674 187.569163 
L 177.463036 187.569163 
L 177.559054 184.948579 
L 177.606866 184.948579 
L 177.713965 183.638286 
L 177.737676 183.638286 
L 177.832198 181.672848 
L 177.855749 181.672848 
L 177.961335 177.741972 
L 177.996389 177.741972 
L 177.996389 177.086825 
L 178.112729 177.086825 
L 178.182162 175.121387 
L 178.423024 175.121387 
L 178.423024 174.466241 
L 178.55918 174.466241 
L 178.660604 169.880218 
L 178.683063 169.880218 
L 178.750267 168.569926 
L 178.828345 168.569926 
L 178.92822 167.259634 
L 179.01652 167.259634 
L 179.01652 166.604488 
L 179.159062 166.604488 
L 179.224459 163.328757 
L 179.322098 163.328757 
L 179.397663 162.018465 
L 179.451438 162.018465 
L 179.451438 161.363319 
L 179.633043 161.363319 
L 179.707275 160.053027 
L 179.8338 160.053027 
L 179.938541 157.432442 
L 179.959414 157.432442 
L 180.042657 153.501566 
L 180.115169 153.501566 
L 180.177084 150.225835 
L 180.36152 150.225835 
L 180.463148 147.605251 
L 180.483402 147.605251 
L 180.51374 145.639813 
L 180.614487 145.639813 
L 180.704665 144.32952 
L 180.774482 144.32952 
L 180.834104 141.708936 
L 180.923155 141.708936 
L 180.952739 137.778059 
L 181.119435 137.778059 
L 181.168162 135.157475 
L 181.245843 135.157475 
L 181.323179 133.192037 
L 181.400174 133.192037 
L 181.47683 131.226598 
L 181.543629 131.226598 
L 181.648084 128.606014 
L 181.676464 128.606014 
L 181.780129 125.330284 
L 181.808295 125.330284 
L 181.855137 123.364845 
L 181.994913 123.364845 
L 182.004192 121.399407 
L 182.170369 121.399407 
L 182.170369 120.089115 
L 182.307651 120.089115 
L 182.416704 118.123676 
L 182.561055 118.123676 
L 182.579015 116.158238 
L 182.730934 116.158238 
L 182.837379 110.917069 
L 182.943179 110.917069 
L 183.02211 107.641339 
L 183.057076 107.641339 
L 183.057076 106.986193 
L 183.196243 106.986193 
L 183.265412 100.434732 
L 183.428598 100.434732 
L 183.496853 97.814147 
L 183.54787 97.814147 
L 183.624117 95.193563 
L 183.666333 95.193563 
L 183.708446 92.572979 
L 183.884222 92.572979 
L 183.884222 91.917832 
L 184.049996 91.917832 
L 184.049996 90.60754 
L 184.189675 90.60754 
L 184.189675 89.952394 
L 184.425399 89.952394 
L 184.513985 87.986956 
L 184.562116 87.986956 
L 184.626084 84.056079 
L 184.681864 84.056079 
L 184.76916 79.470057 
L 184.824485 79.470057 
L 184.8875 78.159764 
L 185.090739 78.159764 
L 185.183749 73.573742 
L 185.230068 73.573742 
L 185.330007 71.608303 
L 185.406495 71.608303 
L 185.429376 70.298011 
L 185.558472 70.298011 
L 185.558472 68.332573 
L 185.671592 68.332573 
L 185.671592 67.677427 
L 185.84363 67.677427 
L 185.84363 67.022281 
L 185.969707 67.022281 
L 186.058157 63.74655 
L 186.138843 63.74655 
L 186.240998 58.505381 
L 186.313602 58.505381 
L 186.320845 56.539943 
L 186.558216 56.539943 
L 186.629513 55.229651 
L 187.002598 55.229651 
L 187.113676 51.95392 
L 187.224052 51.95392 
L 187.292684 48.67819 
L 187.388317 48.67819 
L 187.388317 48.023044 
L 187.672108 48.023044 
L 187.712275 46.712752 
L 187.785676 46.712752 
L 187.885272 40.161291 
L 187.924952 40.161291 
L 187.924952 39.506144 
L 188.342679 39.506144 
L 188.394199 38.195852 
L 188.490389 38.195852 
L 188.496783 36.88556 
L 188.693839 36.88556 
L 188.693839 35.575268 
L 188.944859 35.575268 
L 188.944859 34.920122 
L 189.180026 34.920122 
L 189.180026 34.264976 
L 189.314741 34.264976 
L 189.314741 32.954683 
L 189.532962 32.954683 
L 189.532962 30.989245 
L 189.694854 30.989245 
L 189.694854 30.334099 
L 338.688 30.334099 
L 338.688 30.334099 
" style="fill:none;stroke:#ff00ff;stroke-linecap:square;stroke-width:1.5;"/>
   </g>
   <g id="line2d_35">
    <defs>
     <path d="M -0 8.485281 
L 5.091169 0 
L 0 -8.485281 
L -5.091169 -0 
z
" id="mf7e81af695" style="stroke:#ff00ff;stroke-linejoin:miter;stroke-width:1.5;"/>
    </defs>
    <g>
     <use style="fill-opacity:0;stroke:#ff00ff;stroke-linejoin:miter;stroke-width:1.5;" x="183.196243" xlink:href="#mf7e81af695" y="106.331047"/>
     <use style="fill-opacity:0;stroke:#ff00ff;stroke-linejoin:miter;stroke-width:1.5;" x="189.694854" xlink:href="#mf7e81af695" y="30.989245"/>
     <use style="fill-opacity:0;stroke:#ff00ff;stroke-linejoin:miter;stroke-width:1.5;" x="189.694854" xlink:href="#mf7e81af695" y="30.334099"/>
     <use style="fill-opacity:0;stroke:#ff00ff;stroke-linejoin:miter;stroke-width:1.5;" x="189.694854" xlink:href="#mf7e81af695" y="30.334099"/>
     <use style="fill-opacity:0;stroke:#ff00ff;stroke-linejoin:miter;stroke-width:1.5;" x="338.688" xlink:href="#mf7e81af695" y="30.334099"/>
    </g>
   </g>
   <g id="line2d_36">
    <path style="fill:none;stroke:#ff00ff;stroke-linecap:square;stroke-width:1.5;"/>
    <g/>
   </g>
   <g id="line2d_37">
    <defs>
     <path d="M 0 1.5 
C 0.397805 1.5 0.77937 1.341951 1.06066 1.06066 
C 1.341951 0.77937 1.5 0.397805 1.5 0 
C 1.5 -0.397805 1.341951 -0.77937 1.06066 -1.06066 
C 0.77937 -1.341951 0.397805 -1.5 0 -1.5 
C -0.397805 -1.5 -0.77937 -1.341951 -1.06066 -1.06066 
C -1.341951 -0.77937 -1.5 -0.397805 -1.5 0 
C -1.5 0.397805 -1.341951 0.77937 -1.06066 1.06066 
C -0.77937 1.341951 -0.397805 1.5 0 1.5 
z
" id="mc4a21068bd" style="stroke:#ff7500;"/>
    </defs>
    <g>
     <use style="fill:#ff7500;stroke:#ff7500;" x="233.108245" xlink:href="#mc4a21068bd" y="30.334099"/>
     <use style="fill:#ff7500;stroke:#ff7500;" x="233.108245" xlink:href="#mc4a21068bd" y="30.334099"/>
    </g>
   </g>
   <g id="line2d_38">
    <path d="M 131.185181 298.944 
L 131.185181 298.288854 
L 137.439497 298.288854 
L 137.439497 297.633708 
L 141.568232 297.633708 
L 141.568232 296.323416 
L 147.901141 296.323416 
L 147.901141 295.66827 
L 148.48143 295.66827 
L 148.48143 295.013123 
L 148.981515 295.013123 
L 148.981515 294.357977 
L 150.229833 294.357977 
L 150.229833 293.702831 
L 151.818809 293.702831 
L 151.818809 293.047685 
L 152.334802 293.047685 
L 152.334802 292.392539 
L 152.835965 292.392539 
L 152.835965 291.737393 
L 153.081247 291.737393 
L 153.081247 291.082247 
L 153.418948 291.082247 
L 153.418948 290.427101 
L 153.656221 290.427101 
L 153.656221 289.771955 
L 154.439623 289.771955 
L 154.439623 289.116809 
L 154.796449 289.116809 
L 154.796449 288.461662 
L 155.146121 288.461662 
L 155.146121 287.806516 
L 156.317544 287.806516 
L 156.398281 286.496224 
L 156.518691 286.496224 
L 156.518691 285.185932 
L 157.224197 285.185932 
L 157.224197 284.530786 
L 158.159001 284.530786 
L 158.159001 283.87564 
L 158.304027 283.87564 
L 158.412011 282.565348 
L 158.802326 282.565348 
L 158.802326 281.910201 
L 159.422762 281.910201 
L 159.422762 280.599909 
L 159.956318 280.599909 
L 159.956318 279.944763 
L 160.087195 279.944763 
L 160.087195 279.289617 
L 160.217098 279.289617 
L 160.217098 278.634471 
L 160.601097 278.634471 
L 160.601097 277.979325 
L 160.727241 277.979325 
L 160.727241 277.324179 
L 160.914762 277.324179 
L 160.94582 276.013887 
L 161.192316 276.013887 
L 161.192316 275.35874 
L 161.940898 275.35874 
L 161.940898 274.703594 
L 162.71483 274.703594 
L 162.71483 274.048448 
L 163.320996 274.048448 
L 163.320996 273.393302 
L 163.932963 273.393302 
L 163.932963 272.08301 
L 165.483031 272.08301 
L 165.578458 270.772718 
L 166.047915 270.772718 
L 166.047915 269.462426 
L 167.147346 269.462426 
L 167.147346 268.807279 
L 167.640438 268.807279 
L 167.661564 267.496987 
L 167.954668 267.496987 
L 168.01684 265.531549 
L 168.425752 265.531549 
L 168.425752 264.876403 
L 168.666574 264.876403 
L 168.746115 262.255818 
L 168.805533 262.255818 
L 168.805533 261.600672 
L 169.312185 261.600672 
L 169.312185 260.945526 
L 169.503198 260.945526 
L 169.503198 260.29038 
L 169.673338 260.29038 
L 169.673338 259.635234 
L 170.100748 259.635234 
L 170.100748 258.980088 
L 170.890315 258.980088 
L 170.890315 258.324942 
L 171.612043 258.324942 
L 171.66247 257.01465 
L 171.862732 257.01465 
L 171.962007 255.049211 
L 172.077118 255.049211 
L 172.12622 253.738919 
L 172.321256 253.738919 
L 172.353551 252.428627 
L 172.434028 252.428627 
L 172.434028 251.773481 
L 172.704904 251.773481 
L 172.815229 249.152896 
L 172.956059 249.152896 
L 172.956059 248.49775 
L 173.172891 248.49775 
L 173.172891 247.842604 
L 173.295595 247.842604 
L 173.402258 246.532312 
L 173.508272 246.532312 
L 173.598631 243.256582 
L 173.748197 243.256582 
L 173.852135 241.946289 
L 173.940735 241.946289 
L 173.984866 239.980851 
L 174.203864 239.980851 
L 174.203864 239.325705 
L 174.319548 239.325705 
L 174.333954 238.015413 
L 174.47737 238.015413 
L 174.47737 237.360267 
L 174.647927 237.360267 
L 174.704411 236.049974 
L 174.984116 236.049974 
L 174.984116 235.394828 
L 175.149812 235.394828 
L 175.149812 234.739682 
L 175.300328 234.739682 
L 175.300328 232.774244 
L 175.422519 232.774244 
L 175.422519 232.119098 
L 175.624287 232.119098 
L 175.704345 230.15366 
L 175.797284 230.15366 
L 175.85017 228.843367 
L 176.007874 228.843367 
L 176.086194 226.222783 
L 176.177125 226.222783 
L 176.177125 225.567637 
L 176.383205 225.567637 
L 176.485339 223.602199 
L 176.498063 223.602199 
L 176.536182 222.291906 
L 176.637426 222.291906 
L 176.637426 221.63676 
L 176.950079 221.63676 
L 177.024289 219.016176 
L 177.098184 219.016176 
L 177.184001 217.705884 
L 177.293721 217.705884 
L 177.293721 217.050738 
L 177.450996 217.050738 
L 177.463036 215.740445 
L 177.902755 215.740445 
L 177.984712 213.775007 
L 178.019719 213.775007 
L 178.089523 210.499277 
L 178.205245 210.499277 
L 178.239812 207.223546 
L 178.400227 207.223546 
L 178.502578 203.292669 
L 178.828345 203.292669 
L 178.83947 201.982377 
L 179.049518 201.982377 
L 179.082454 200.672085 
L 179.235335 200.672085 
L 179.27877 199.361793 
L 179.386888 199.361793 
L 179.451438 195.430916 
L 179.537135 195.430916 
L 179.622413 193.465478 
L 179.654285 193.465478 
L 179.749552 190.189747 
L 179.802255 190.189747 
L 179.89672 186.914017 
L 179.980262 186.914017 
L 179.980262 185.603725 
L 180.228512 185.603725 
L 180.330916 182.98314 
L 180.371709 182.98314 
L 180.412408 181.017702 
L 180.493521 181.017702 
L 180.604439 178.397118 
L 180.634567 178.397118 
L 180.694668 176.431679 
L 180.774482 176.431679 
L 180.794378 173.811095 
L 180.923155 173.811095 
L 180.923155 173.155949 
L 181.080356 173.155949 
L 181.168162 168.569926 
L 181.294218 168.569926 
L 181.294218 167.91478 
L 181.467266 167.91478 
L 181.562667 163.328757 
L 181.789523 163.328757 
L 181.873839 158.742735 
L 182.041257 158.742735 
L 182.124367 156.777296 
L 182.316765 156.777296 
L 182.344078 151.536128 
L 182.525079 151.536128 
L 182.53408 150.225835 
L 182.784238 150.225835 
L 182.872717 146.950105 
L 182.916789 146.950105 
L 182.916789 146.294959 
L 183.065806 146.294959 
L 183.152872 141.05379 
L 183.178907 141.05379 
L 183.178907 140.398644 
L 183.29128 140.398644 
L 183.29128 139.088352 
L 183.505367 139.088352 
L 183.607202 135.812621 
L 183.79237 135.812621 
L 183.90087 132.536891 
L 183.917503 132.536891 
L 183.983875 130.571452 
L 184.041744 130.571452 
L 184.041744 129.916306 
L 184.287603 129.916306 
L 184.303871 127.295722 
L 184.522016 127.295722 
L 184.554103 125.98543 
L 184.729534 125.98543 
L 184.729534 124.675137 
L 185.01285 124.675137 
L 185.01285 124.019991 
L 185.406495 124.019991 
L 185.490246 121.399407 
L 185.611353 121.399407 
L 185.633967 120.089115 
L 185.761563 120.089115 
L 185.865946 118.778823 
L 185.917903 118.778823 
L 186.028723 116.158238 
L 186.043446 116.158238 
L 186.14616 114.847946 
L 186.820572 114.847946 
L 186.855725 113.537654 
L 186.946792 113.537654 
L 186.96774 111.572215 
L 187.106755 111.572215 
L 187.182743 109.606777 
L 187.408741 109.606777 
L 187.496973 107.641339 
L 187.53079 107.641339 
L 187.53079 106.986193 
L 187.645278 106.986193 
L 187.645278 105.675901 
L 188.030326 105.675901 
L 188.030326 105.020754 
L 188.187202 105.020754 
L 188.187202 103.055316 
L 188.662206 103.055316 
L 188.712791 101.745024 
L 189.025668 101.745024 
L 189.124615 100.434732 
L 189.149264 100.434732 
L 189.149264 99.779586 
L 189.641057 99.779586 
L 189.700821 97.814147 
L 189.872989 97.814147 
L 189.872989 96.503855 
L 190.206514 96.503855 
L 190.206514 95.848709 
L 190.356555 95.848709 
L 190.442533 92.572979 
L 190.476806 92.572979 
L 190.476806 91.917832 
L 190.748593 91.917832 
L 190.75421 89.297248 
L 191.060415 89.297248 
L 191.148492 85.366371 
L 191.415495 85.366371 
L 191.415495 84.711225 
L 191.582327 84.711225 
L 191.582327 83.400933 
L 192.063041 83.400933 
L 192.156577 81.435495 
L 192.249614 81.435495 
L 192.285662 78.81491 
L 192.986453 78.81491 
L 192.986453 78.159764 
L 193.560037 78.159764 
L 193.560037 77.504618 
L 193.674425 77.504618 
L 193.702905 76.194326 
L 194.500162 76.194326 
L 194.536371 74.884034 
L 194.929789 74.884034 
L 195.017977 72.918596 
L 195.775391 72.918596 
L 195.804845 71.608303 
L 196.224389 71.608303 
L 196.224389 70.953157 
L 196.45273 70.953157 
L 196.517424 68.332573 
L 196.67412 68.332573 
L 196.67412 67.677427 
L 196.928249 67.677427 
L 196.93219 66.367135 
L 197.194263 66.367135 
L 197.213664 64.401696 
L 197.475393 64.401696 
L 197.475393 63.74655 
L 197.608591 63.74655 
L 197.608591 62.436258 
L 197.871972 62.436258 
L 197.939061 60.47082 
L 199.62891 60.47082 
L 199.645784 59.160527 
L 199.793576 59.160527 
L 199.793576 58.505381 
L 200.724847 58.505381 
L 200.724847 57.850235 
L 201.732038 57.850235 
L 201.732038 57.195089 
L 201.925496 57.195089 
L 201.925496 56.539943 
L 202.084599 56.539943 
L 202.084599 55.884797 
L 202.616079 55.884797 
L 202.616079 55.229651 
L 203.184238 55.229651 
L 203.184238 53.919359 
L 203.758467 53.919359 
L 203.758467 52.609066 
L 204.096234 52.609066 
L 204.096234 51.95392 
L 204.304063 51.95392 
L 204.304063 51.298774 
L 204.448084 51.298774 
L 204.514549 48.67819 
L 204.853137 48.67819 
L 204.853137 48.023044 
L 205.079382 48.023044 
L 205.079382 47.367898 
L 205.20736 47.367898 
L 205.20736 46.712752 
L 218.271056 46.712752 
L 218.271056 46.057605 
L 219.668504 46.057605 
L 219.668504 45.402459 
L 219.893893 45.402459 
L 219.923445 44.092167 
L 220.270081 44.092167 
L 220.377264 42.126729 
L 220.488897 42.126729 
L 220.539866 40.816437 
L 220.610975 40.816437 
L 220.610975 40.161291 
L 220.871583 40.161291 
L 220.87358 38.850998 
L 221.065255 38.850998 
L 221.065255 38.195852 
L 221.434664 38.195852 
L 221.434664 37.540706 
L 221.756585 37.540706 
L 221.794516 36.230414 
L 221.882389 36.230414 
L 221.882389 35.575268 
L 222.885917 35.575268 
L 222.885917 34.920122 
L 223.135925 34.920122 
L 223.135925 34.264976 
L 225.152268 34.264976 
L 225.23645 32.299537 
L 225.413614 32.299537 
L 225.413614 31.644391 
L 231.504283 31.644391 
L 231.504283 30.989245 
L 233.108245 30.989245 
L 233.108245 30.334099 
L 338.688 30.334099 
L 338.688 30.334099 
" style="fill:none;stroke:#ff7500;stroke-linecap:square;stroke-width:1.5;"/>
   </g>
   <g id="line2d_39">
    <defs>
     <path d="M 0 -6 
L -1.347084 -1.854102 
L -5.706339 -1.854102 
L -2.179628 0.708204 
L -3.526712 4.854102 
L -0 2.291796 
L 3.526712 4.854102 
L 2.179628 0.708204 
L 5.706339 -1.854102 
L 1.347084 -1.854102 
z
" id="m7cfe616ef2" style="stroke:#ff7500;stroke-linejoin:bevel;stroke-width:1.5;"/>
    </defs>
    <g>
     <use style="fill-opacity:0;stroke:#ff7500;stroke-linejoin:bevel;stroke-width:1.5;" x="176.086194" xlink:href="#m7cfe616ef2" y="226.222783"/>
     <use style="fill-opacity:0;stroke:#ff7500;stroke-linejoin:bevel;stroke-width:1.5;" x="205.20736" xlink:href="#m7cfe616ef2" y="46.712752"/>
     <use style="fill-opacity:0;stroke:#ff7500;stroke-linejoin:bevel;stroke-width:1.5;" x="233.108245" xlink:href="#m7cfe616ef2" y="30.334099"/>
     <use style="fill-opacity:0;stroke:#ff7500;stroke-linejoin:bevel;stroke-width:1.5;" x="233.108245" xlink:href="#m7cfe616ef2" y="30.334099"/>
     <use style="fill-opacity:0;stroke:#ff7500;stroke-linejoin:bevel;stroke-width:1.5;" x="338.688" xlink:href="#m7cfe616ef2" y="30.334099"/>
    </g>
   </g>
   <g id="line2d_40">
    <path style="fill:none;stroke:#ff7500;stroke-linecap:square;stroke-width:1.5;"/>
    <g/>
   </g>
   <g id="line2d_41">
    <path clip-path="url(#pf89068c8c2)" d="M 218.74679 46.057605 
" style="fill:none;stroke:#ff7500;stroke-linecap:square;stroke-width:1.5;"/>
    <defs>
     <path d="M -12 12 
L 12 -12 
M -12 -12 
L 12 12 
" id="mbe72c66398" style="stroke:#ff7500;"/>
    </defs>
    <g clip-path="url(#pf89068c8c2)">
     <use style="fill:#ff7500;stroke:#ff7500;" x="218.74679" xlink:href="#mbe72c66398" y="46.057605"/>
    </g>
   </g>
   <g id="line2d_42">
    <defs>
     <path d="M 0 1.5 
C 0.397805 1.5 0.77937 1.341951 1.06066 1.06066 
C 1.341951 0.77937 1.5 0.397805 1.5 0 
C 1.5 -0.397805 1.341951 -0.77937 1.06066 -1.06066 
C 0.77937 -1.341951 0.397805 -1.5 0 -1.5 
C -0.397805 -1.5 -0.77937 -1.341951 -1.06066 -1.06066 
C -1.341951 -0.77937 -1.5 -0.397805 -1.5 0 
C -1.5 0.397805 -1.341951 0.77937 -1.06066 1.06066 
C -0.77937 1.341951 -0.397805 1.5 0 1.5 
z
" id="m87d4a47897" style="stroke:#6495ed;"/>
    </defs>
    <g>
     <use style="fill:#6495ed;stroke:#6495ed;" x="216.941126" xlink:href="#m87d4a47897" y="30.334099"/>
     <use style="fill:#6495ed;stroke:#6495ed;" x="216.941126" xlink:href="#m87d4a47897" y="30.334099"/>
    </g>
   </g>
   <g id="line2d_43">
    <path d="M 121.638301 298.944 
L 121.638301 298.288854 
L 144.430703 298.288854 
L 144.430703 297.633708 
L 145.440832 297.633708 
L 145.516164 296.323416 
L 146.819289 296.323416 
L 146.819289 295.66827 
L 147.436066 295.66827 
L 147.436066 295.013123 
L 148.354135 295.013123 
L 148.354135 294.357977 
L 150.960087 294.357977 
L 150.960087 293.702831 
L 152.436193 293.702831 
L 152.436193 293.047685 
L 153.226778 293.047685 
L 153.275019 291.737393 
L 154.029268 291.737393 
L 154.029268 291.082247 
L 154.484627 291.082247 
L 154.484627 290.427101 
L 154.707925 290.427101 
L 154.752243 289.116809 
L 155.825108 289.116809 
L 155.86668 287.806516 
L 156.073064 287.806516 
L 156.073064 287.15137 
L 156.677955 287.15137 
L 156.757045 285.841078 
L 156.835778 285.841078 
L 156.835778 285.185932 
L 157.641697 285.185932 
L 157.641697 284.530786 
L 158.447857 284.530786 
L 158.447857 283.87564 
L 158.907277 283.87564 
L 158.907277 283.220494 
L 159.115303 283.220494 
L 159.115303 281.910201 
L 159.490356 281.910201 
L 159.490356 281.255055 
L 160.410154 281.255055 
L 160.410154 280.599909 
L 160.601097 280.599909 
L 160.601097 279.944763 
L 160.852479 279.944763 
L 160.852479 279.289617 
L 161.069504 279.289617 
L 161.069504 277.979325 
L 162.71483 277.979325 
L 162.71483 277.324179 
L 162.826621 277.324179 
L 162.826621 276.669033 
L 163.048075 276.669033 
L 163.048075 276.013887 
L 163.320996 276.013887 
L 163.320996 275.35874 
L 163.482721 275.35874 
L 163.482721 274.703594 
L 163.775378 274.703594 
L 163.775378 274.048448 
L 164.089137 274.048448 
L 164.089137 273.393302 
L 164.899235 273.393302 
L 164.923954 271.427864 
L 165.096013 271.427864 
L 165.096013 270.772718 
L 165.314766 270.772718 
L 165.314766 270.117572 
L 165.53081 270.117572 
L 165.53081 269.462426 
L 165.885039 269.462426 
L 165.885039 268.807279 
L 166.186323 268.807279 
L 166.186323 268.152133 
L 166.414589 268.152133 
L 166.414589 267.496987 
L 166.684622 267.496987 
L 166.684622 266.841841 
L 167.682664 266.841841 
L 167.682664 266.186695 
L 168.078792 266.186695 
L 168.078792 265.531549 
L 168.70639 265.531549 
L 168.70639 264.876403 
L 168.825295 264.876403 
L 168.845033 262.910965 
L 169.002145 262.910965 
L 169.002145 262.255818 
L 169.138466 262.255818 
L 169.157854 260.945526 
L 169.331381 260.945526 
L 169.388841 259.635234 
L 169.616809 259.635234 
L 169.616809 258.980088 
L 170.008719 258.980088 
L 170.008719 258.324942 
L 170.24699 258.324942 
L 170.337772 255.049211 
L 170.625141 255.049211 
L 170.625141 254.394065 
L 170.872762 254.394065 
L 170.872762 253.738919 
L 171.047505 253.738919 
L 171.134225 252.428627 
L 171.220515 252.428627 
L 171.254912 250.463189 
L 171.476854 250.463189 
L 171.476854 249.808043 
L 171.66247 249.808043 
L 171.66247 249.152896 
L 171.779569 249.152896 
L 171.879317 247.187458 
L 171.962007 247.187458 
L 171.962007 246.532312 
L 172.240256 246.532312 
L 172.240256 245.877166 
L 172.530112 245.877166 
L 172.530112 245.22202 
L 172.657407 245.22202 
L 172.752272 243.911728 
L 172.893608 243.911728 
L 172.924861 241.946289 
L 173.09576 241.946289 
L 173.09576 241.291143 
L 173.432614 241.291143 
L 173.432614 240.635997 
L 173.792818 240.635997 
L 173.881719 238.015413 
L 174.13117 238.015413 
L 174.13117 237.360267 
L 174.333954 237.360267 
L 174.348349 236.049974 
L 174.690307 236.049974 
L 174.732584 234.084536 
L 175.039523 234.084536 
L 175.039523 232.774244 
L 175.19099 232.774244 
L 175.273058 231.463952 
L 175.327556 231.463952 
L 175.368318 229.498513 
L 175.490035 229.498513 
L 175.490035 228.188221 
L 175.664362 228.188221 
L 175.664362 227.533075 
L 175.85017 227.533075 
L 175.85017 226.222783 
L 176.086194 226.222783 
L 176.086194 225.567637 
L 176.536182 225.567637 
L 176.586878 223.602199 
L 176.650041 223.602199 
L 176.650041 222.947052 
L 176.788199 222.947052 
L 176.875552 221.63676 
L 177.036626 221.63676 
L 177.135015 219.671322 
L 177.159525 219.671322 
L 177.232851 217.050738 
L 177.293721 217.050738 
L 177.354379 214.430153 
L 177.547081 214.430153 
L 177.642639 211.809569 
L 177.843977 211.809569 
L 177.949635 210.499277 
L 177.961335 210.499277 
L 177.961335 209.84413 
L 178.077908 209.84413 
L 178.077908 207.878692 
L 178.228297 207.878692 
L 178.25132 206.5684 
L 178.434411 206.5684 
L 178.434411 205.913254 
L 178.950337 205.913254 
L 178.950337 204.602962 
L 179.191791 204.602962 
L 179.300447 200.672085 
L 179.311276 200.672085 
L 179.376106 196.741208 
L 179.429948 196.741208 
L 179.537135 192.810332 
L 179.569163 192.810332 
L 179.569163 191.50004 
L 179.717854 191.50004 
L 179.717854 190.844894 
L 179.89672 190.844894 
L 179.917643 186.914017 
L 180.053034 186.914017 
L 180.07377 185.603725 
L 180.197673 185.603725 
L 180.197673 184.948579 
L 180.371709 184.948579 
L 180.371709 184.293433 
L 180.774482 184.293433 
L 180.794378 182.98314 
L 181.119435 182.98314 
L 181.119435 182.327994 
L 181.31353 182.327994 
L 181.342459 179.70741 
L 181.591186 179.70741 
L 181.685914 175.121387 
L 181.704798 175.121387 
L 181.789523 172.500803 
L 181.827047 172.500803 
L 181.89252 169.880218 
L 181.967047 169.880218 
L 181.967047 169.225072 
L 182.243721 169.225072 
L 182.243721 168.569926 
L 182.371348 168.569926 
L 182.480004 166.604488 
L 182.70422 166.604488 
L 182.739829 163.328757 
L 182.987073 163.328757 
L 182.987073 162.673611 
L 183.462759 162.673611 
L 183.462759 160.053027 
L 183.615662 160.053027 
L 183.615662 159.397881 
L 183.859219 159.397881 
L 183.950721 156.777296 
L 184.230545 156.777296 
L 184.230545 156.12215 
L 184.37689 156.12215 
L 184.473775 145.639813 
L 184.554103 145.639813 
L 184.594129 144.32952 
L 184.673906 144.32952 
L 184.689818 142.364082 
L 184.800796 142.364082 
L 184.911072 140.398644 
L 184.918922 140.398644 
L 184.918922 138.433206 
L 185.558472 138.433206 
L 185.626432 132.536891 
L 185.671592 132.536891 
L 185.68662 130.571452 
L 186.080199 130.571452 
L 186.131524 127.950868 
L 186.364245 127.950868 
L 186.364245 127.295722 
L 186.90482 127.295722 
L 186.90482 124.675137 
L 187.065167 124.675137 
L 187.065167 124.019991 
L 187.285833 124.019991 
L 187.285833 123.364845 
L 187.571283 123.364845 
L 187.578023 121.399407 
L 188.458385 121.399407 
L 188.503175 119.433969 
L 188.96354 119.433969 
L 188.96354 118.778823 
L 189.155421 118.778823 
L 189.155421 118.123676 
L 189.736582 118.123676 
L 189.736582 117.46853 
L 190.002475 117.46853 
L 190.002475 116.813384 
L 190.119361 116.813384 
L 190.229681 113.537654 
L 191.197841 113.537654 
L 191.197841 112.882508 
L 191.517936 112.882508 
L 191.517936 112.227362 
L 191.662484 112.227362 
L 191.662484 111.572215 
L 191.842818 111.572215 
L 191.953277 109.606777 
L 191.995173 109.606777 
L 191.995173 108.951631 
L 192.166939 108.951631 
L 192.166939 108.296485 
L 192.747623 108.296485 
L 192.747623 107.641339 
L 193.617325 107.641339 
L 193.617325 106.986193 
L 194.022469 106.986193 
L 194.073618 105.675901 
L 194.161613 105.675901 
L 194.267544 103.055316 
L 194.491098 103.055316 
L 194.536371 101.745024 
L 194.604062 101.745024 
L 194.640056 99.779586 
L 194.760992 99.779586 
L 194.760992 99.12444 
L 194.881094 99.12444 
L 194.881094 98.469293 
L 195.039955 98.469293 
L 195.053128 97.159001 
L 195.193028 97.159001 
L 195.193028 95.848709 
L 195.387883 95.848709 
L 195.387883 95.193563 
L 195.542213 95.193563 
L 195.584842 93.883271 
L 195.825854 93.883271 
L 195.884544 92.572979 
L 195.947208 92.572979 
L 195.955546 91.262686 
L 196.117348 91.262686 
L 196.129733 89.952394 
L 196.248997 89.952394 
L 196.277663 88.642102 
L 196.513388 88.642102 
L 196.585901 87.33181 
L 196.761895 87.33181 
L 196.857148 84.711225 
L 196.93219 84.711225 
L 197.042193 82.745787 
L 197.085219 82.745787 
L 197.085219 80.780349 
L 197.406493 80.780349 
L 197.406493 78.159764 
L 197.55163 78.159764 
L 197.566838 74.228888 
L 197.680474 74.228888 
L 197.729487 72.263449 
L 197.961366 72.263449 
L 197.961366 70.298011 
L 198.090917 70.298011 
L 198.090917 68.987719 
L 198.204863 68.987719 
L 198.267036 64.401696 
L 198.358064 64.401696 
L 198.455845 61.125966 
L 198.488317 61.125966 
L 198.531519 59.160527 
L 198.756591 59.160527 
L 198.795594 56.539943 
L 199.833666 56.539943 
L 199.890303 55.229651 
L 200.164216 55.229651 
L 200.164216 54.574505 
L 200.740694 54.574505 
L 200.740694 53.919359 
L 200.945401 53.919359 
L 200.945401 53.264213 
L 201.218769 53.264213 
L 201.218769 52.609066 
L 201.746996 52.609066 
L 201.746996 49.333336 
L 202.025841 49.333336 
L 202.025841 46.712752 
L 202.644504 46.712752 
L 202.749279 44.092167 
L 203.198001 44.092167 
L 203.198001 43.437021 
L 203.310451 43.437021 
L 203.310451 42.781875 
L 208.716049 42.781875 
L 208.716049 42.126729 
L 209.020179 42.126729 
L 209.126264 40.816437 
L 209.907601 40.816437 
L 209.907601 40.161291 
L 210.132748 40.161291 
L 210.217583 38.850998 
L 210.447869 38.850998 
L 210.538416 36.88556 
L 210.72526 36.88556 
L 210.72526 36.230414 
L 212.046346 36.230414 
L 212.046346 35.575268 
L 212.502525 35.575268 
L 212.502525 34.920122 
L 213.495292 34.920122 
L 213.495292 34.264976 
L 214.473535 34.264976 
L 214.577723 32.954683 
L 215.758304 32.954683 
L 215.758304 32.299537 
L 216.671291 32.299537 
L 216.671291 31.644391 
L 216.941126 31.644391 
L 216.941126 30.334099 
L 338.688 30.334099 
L 338.688 30.334099 
" style="fill:none;stroke:#6495ed;stroke-linecap:square;stroke-width:1.5;"/>
   </g>
   <g id="line2d_44">
    <defs>
     <path d="M -0 6 
L 6 -6 
L -6 -6 
z
" id="m435dede448" style="stroke:#6495ed;stroke-linejoin:miter;stroke-width:1.5;"/>
    </defs>
    <g>
     <use style="fill-opacity:0;stroke:#6495ed;stroke-linejoin:miter;stroke-width:1.5;" x="174.690307" xlink:href="#m435dede448" y="236.049974"/>
     <use style="fill-opacity:0;stroke:#6495ed;stroke-linejoin:miter;stroke-width:1.5;" x="195.825854" xlink:href="#m435dede448" y="93.883271"/>
     <use style="fill-opacity:0;stroke:#6495ed;stroke-linejoin:miter;stroke-width:1.5;" x="216.941126" xlink:href="#m435dede448" y="31.644391"/>
     <use style="fill-opacity:0;stroke:#6495ed;stroke-linejoin:miter;stroke-width:1.5;" x="216.941126" xlink:href="#m435dede448" y="30.334099"/>
     <use style="fill-opacity:0;stroke:#6495ed;stroke-linejoin:miter;stroke-width:1.5;" x="338.688" xlink:href="#m435dede448" y="30.334099"/>
    </g>
   </g>
   <g id="line2d_45">
    <path style="fill:none;stroke:#6495ed;stroke-linecap:square;stroke-width:1.5;"/>
    <g/>
   </g>
   <g id="line2d_46">
    <path clip-path="url(#pf89068c8c2)" d="M 206.813235 42.781875 
" style="fill:none;stroke:#6495ed;stroke-linecap:square;stroke-width:1.5;"/>
    <defs>
     <path d="M -12 12 
L 12 -12 
M -12 -12 
L 12 12 
" id="m9b7a11f269" style="stroke:#6495ed;"/>
    </defs>
    <g clip-path="url(#pf89068c8c2)">
     <use style="fill:#6495ed;stroke:#6495ed;" x="206.813235" xlink:href="#m9b7a11f269" y="42.781875"/>
    </g>
   </g>
   <g id="line2d_47">
    <path d="M 338.688 30.334099 
L 369.60768 293.571802 
" style="fill:none;stroke:#ff7500;stroke-linecap:square;stroke-width:1.5;"/>
    <g>
     <use style="fill-opacity:0;stroke:#ff7500;stroke-linejoin:bevel;stroke-width:1.5;" x="338.688" xlink:href="#m7cfe616ef2" y="30.334099"/>
     <use style="fill-opacity:0;stroke:#ff7500;stroke-linejoin:bevel;stroke-width:1.5;" x="369.60768" xlink:href="#m7cfe616ef2" y="293.571802"/>
    </g>
   </g>
   <g id="line2d_48">
    <path d="M 338.688 30.334099 
L 369.60768 207.616634 
" style="fill:none;stroke:#6495ed;stroke-linecap:square;stroke-width:1.5;"/>
    <g>
     <use style="fill-opacity:0;stroke:#6495ed;stroke-linejoin:miter;stroke-width:1.5;" x="338.688" xlink:href="#m435dede448" y="30.334099"/>
     <use style="fill-opacity:0;stroke:#6495ed;stroke-linejoin:miter;stroke-width:1.5;" x="369.60768" xlink:href="#m435dede448" y="207.616634"/>
    </g>
   </g>
   <g id="line2d_49">
    <path d="M 338.688 30.334099 
L 369.60768 121.661465 
" style="fill:none;stroke:#000080;stroke-linecap:square;stroke-width:1.5;"/>
    <g>
     <use style="fill-opacity:0;stroke:#000080;stroke-width:1.5;" x="338.688" xlink:href="#meb8ef409c6" y="30.334099"/>
     <use style="fill-opacity:0;stroke:#000080;stroke-width:1.5;" x="369.60768" xlink:href="#meb8ef409c6" y="121.661465"/>
    </g>
   </g>
   <g id="line2d_50">
    <path d="M 338.688 30.334099 
L 369.60768 35.706297 
" style="fill:none;stroke:#ff00ff;stroke-linecap:square;stroke-width:1.5;"/>
    <g>
     <use style="fill-opacity:0;stroke:#ff00ff;stroke-linejoin:miter;stroke-width:1.5;" x="338.688" xlink:href="#mf7e81af695" y="30.334099"/>
     <use style="fill-opacity:0;stroke:#ff00ff;stroke-linejoin:miter;stroke-width:1.5;" x="369.60768" xlink:href="#mf7e81af695" y="35.706297"/>
    </g>
   </g>
   <g id="line2d_51">
    <path d="M 338.688 298.944 
L 338.688 30.334099 
" style="fill:none;stroke:#000000;stroke-linecap:square;stroke-width:1.5;"/>
   </g>
   <g id="patch_3">
    <path d="M 57.6 298.944 
L 57.6 27.648 
" style="fill:none;stroke:#000000;stroke-linecap:square;stroke-linejoin:miter;stroke-width:0.8;"/>
   </g>
   <g id="patch_4">
    <path d="M 338.688 298.944 
L 338.688 27.648 
" style="fill:none;stroke:#000000;stroke-linecap:square;stroke-linejoin:miter;stroke-width:0.8;"/>
   </g>
   <g id="patch_5">
    <path d="M 57.6 298.944 
L 338.688 298.944 
" style="fill:none;stroke:#000000;stroke-linecap:square;stroke-linejoin:miter;stroke-width:0.8;"/>
   </g>
   <g id="patch_6">
    <path d="M 57.6 27.648 
L 338.688 27.648 
" style="fill:none;stroke:#000000;stroke-linecap:square;stroke-linejoin:miter;stroke-width:0.8;"/>
   </g>
   <g id="text_13">
    <!-- alN5 -->
    <g transform="translate(375.22944 298.262739)scale(0.17 -0.17)">
     <defs>
      <path d="M 9.8125 72.90625 
L 23.09375 72.90625 
L 55.421875 11.921875 
L 55.421875 72.90625 
L 64.984375 72.90625 
L 64.984375 0 
L 51.703125 0 
L 19.390625 60.984375 
L 19.390625 0 
L 9.8125 0 
z
" id="DejaVuSans-78"/>
      <path d="M 10.796875 72.90625 
L 49.515625 72.90625 
L 49.515625 64.59375 
L 19.828125 64.59375 
L 19.828125 46.734375 
Q 21.96875 47.46875 24.109375 47.828125 
Q 26.265625 48.1875 28.421875 48.1875 
Q 40.625 48.1875 47.75 41.5 
Q 54.890625 34.8125 54.890625 23.390625 
Q 54.890625 11.625 47.5625 5.09375 
Q 40.234375 -1.421875 26.90625 -1.421875 
Q 22.3125 -1.421875 17.546875 -0.640625 
Q 12.796875 0.140625 7.71875 1.703125 
L 7.71875 11.625 
Q 12.109375 9.234375 16.796875 8.0625 
Q 21.484375 6.890625 26.703125 6.890625 
Q 35.15625 6.890625 40.078125 11.328125 
Q 45.015625 15.765625 45.015625 23.390625 
Q 45.015625 31 40.078125 35.4375 
Q 35.15625 39.890625 26.703125 39.890625 
Q 22.75 39.890625 18.8125 39.015625 
Q 14.890625 38.140625 10.796875 36.28125 
z
" id="DejaVuSans-53"/>
     </defs>
     <use xlink:href="#DejaVuSans-97"/>
     <use x="61.279297" xlink:href="#DejaVuSans-108"/>
     <use x="89.0625" xlink:href="#DejaVuSans-78"/>
     <use x="163.867188" xlink:href="#DejaVuSans-53"/>
    </g>
   </g>
   <g id="text_14">
    <!-- alO5 -->
    <g transform="translate(375.22944 212.307571)scale(0.17 -0.17)">
     <defs>
      <path d="M 39.40625 66.21875 
Q 28.65625 66.21875 22.328125 58.203125 
Q 16.015625 50.203125 16.015625 36.375 
Q 16.015625 22.609375 22.328125 14.59375 
Q 28.65625 6.59375 39.40625 6.59375 
Q 50.140625 6.59375 56.421875 14.59375 
Q 62.703125 22.609375 62.703125 36.375 
Q 62.703125 50.203125 56.421875 58.203125 
Q 50.140625 66.21875 39.40625 66.21875 
z
M 39.40625 74.21875 
Q 54.734375 74.21875 63.90625 63.9375 
Q 73.09375 53.65625 73.09375 36.375 
Q 73.09375 19.140625 63.90625 8.859375 
Q 54.734375 -1.421875 39.40625 -1.421875 
Q 24.03125 -1.421875 14.8125 8.828125 
Q 5.609375 19.09375 5.609375 36.375 
Q 5.609375 53.65625 14.8125 63.9375 
Q 24.03125 74.21875 39.40625 74.21875 
z
" id="DejaVuSans-79"/>
     </defs>
     <use xlink:href="#DejaVuSans-97"/>
     <use x="61.279297" xlink:href="#DejaVuSans-108"/>
     <use x="89.0625" xlink:href="#DejaVuSans-79"/>
     <use x="167.773438" xlink:href="#DejaVuSans-53"/>
    </g>
   </g>
   <g id="text_15">
    <!-- al01 -->
    <g transform="translate(375.22944 126.352403)scale(0.17 -0.17)">
     <use xlink:href="#DejaVuSans-97"/>
     <use x="61.279297" xlink:href="#DejaVuSans-108"/>
     <use x="89.0625" xlink:href="#DejaVuSans-48"/>
     <use x="152.685547" xlink:href="#DejaVuSans-49"/>
    </g>
   </g>
   <g id="text_16">
    <!-- alN1 -->
    <g transform="translate(375.22944 40.397235)scale(0.17 -0.17)">
     <use xlink:href="#DejaVuSans-97"/>
     <use x="61.279297" xlink:href="#DejaVuSans-108"/>
     <use x="89.0625" xlink:href="#DejaVuSans-78"/>
     <use x="163.867188" xlink:href="#DejaVuSans-49"/>
    </g>
   </g>
   <g id="text_17">
    <!-- bbob-constrained f36, 3-D -->
    <g transform="translate(60.41088 38.111366)scale(0.102 -0.102)">
     <defs>
      <path d="M 48.6875 27.296875 
Q 48.6875 37.203125 44.609375 42.84375 
Q 40.53125 48.484375 33.40625 48.484375 
Q 26.265625 48.484375 22.1875 42.84375 
Q 18.109375 37.203125 18.109375 27.296875 
Q 18.109375 17.390625 22.1875 11.75 
Q 26.265625 6.109375 33.40625 6.109375 
Q 40.53125 6.109375 44.609375 11.75 
Q 48.6875 17.390625 48.6875 27.296875 
z
M 18.109375 46.390625 
Q 20.953125 51.265625 25.265625 53.625 
Q 29.59375 56 35.59375 56 
Q 45.5625 56 51.78125 48.09375 
Q 58.015625 40.1875 58.015625 27.296875 
Q 58.015625 14.40625 51.78125 6.484375 
Q 45.5625 -1.421875 35.59375 -1.421875 
Q 29.59375 -1.421875 25.265625 0.953125 
Q 20.953125 3.328125 18.109375 8.203125 
L 18.109375 0 
L 9.078125 0 
L 9.078125 75.984375 
L 18.109375 75.984375 
z
" id="DejaVuSans-98"/>
      <path d="M 40.578125 39.3125 
Q 47.65625 37.796875 51.625 33 
Q 55.609375 28.21875 55.609375 21.1875 
Q 55.609375 10.40625 48.1875 4.484375 
Q 40.765625 -1.421875 27.09375 -1.421875 
Q 22.515625 -1.421875 17.65625 -0.515625 
Q 12.796875 0.390625 7.625 2.203125 
L 7.625 11.71875 
Q 11.71875 9.328125 16.59375 8.109375 
Q 21.484375 6.890625 26.8125 6.890625 
Q 36.078125 6.890625 40.9375 10.546875 
Q 45.796875 14.203125 45.796875 21.1875 
Q 45.796875 27.640625 41.28125 31.265625 
Q 36.765625 34.90625 28.71875 34.90625 
L 20.21875 34.90625 
L 20.21875 43.015625 
L 29.109375 43.015625 
Q 36.375 43.015625 40.234375 45.921875 
Q 44.09375 48.828125 44.09375 54.296875 
Q 44.09375 59.90625 40.109375 62.90625 
Q 36.140625 65.921875 28.71875 65.921875 
Q 24.65625 65.921875 20.015625 65.03125 
Q 15.375 64.15625 9.8125 62.3125 
L 9.8125 71.09375 
Q 15.4375 72.65625 20.34375 73.4375 
Q 25.25 74.21875 29.59375 74.21875 
Q 40.828125 74.21875 47.359375 69.109375 
Q 53.90625 64.015625 53.90625 55.328125 
Q 53.90625 49.265625 50.4375 45.09375 
Q 46.96875 40.921875 40.578125 39.3125 
z
" id="DejaVuSans-51"/>
      <path d="M 19.671875 64.796875 
L 19.671875 8.109375 
L 31.59375 8.109375 
Q 46.6875 8.109375 53.6875 14.9375 
Q 60.6875 21.78125 60.6875 36.53125 
Q 60.6875 51.171875 53.6875 57.984375 
Q 46.6875 64.796875 31.59375 64.796875 
z
M 9.8125 72.90625 
L 30.078125 72.90625 
Q 51.265625 72.90625 61.171875 64.09375 
Q 71.09375 55.28125 71.09375 36.53125 
Q 71.09375 17.671875 61.125 8.828125 
Q 51.171875 0 30.078125 0 
L 9.8125 0 
z
" id="DejaVuSans-68"/>
     </defs>
     <use xlink:href="#DejaVuSans-98"/>
     <use x="63.476562" xlink:href="#DejaVuSans-98"/>
     <use x="126.953125" xlink:href="#DejaVuSans-111"/>
     <use x="188.134766" xlink:href="#DejaVuSans-98"/>
     <use x="251.611328" xlink:href="#DejaVuSans-45"/>
     <use x="287.695312" xlink:href="#DejaVuSans-99"/>
     <use x="342.675781" xlink:href="#DejaVuSans-111"/>
     <use x="403.857422" xlink:href="#DejaVuSans-110"/>
     <use x="467.236328" xlink:href="#DejaVuSans-115"/>
     <use x="519.335938" xlink:href="#DejaVuSans-116"/>
     <use x="558.544922" xlink:href="#DejaVuSans-114"/>
     <use x="599.658203" xlink:href="#DejaVuSans-97"/>
     <use x="660.9375" xlink:href="#DejaVuSans-105"/>
     <use x="688.720703" xlink:href="#DejaVuSans-110"/>
     <use x="752.099609" xlink:href="#DejaVuSans-101"/>
     <use x="813.623047" xlink:href="#DejaVuSans-100"/>
     <use x="877.099609" xlink:href="#DejaVuSans-32"/>
     <use x="908.886719" xlink:href="#DejaVuSans-102"/>
     <use x="944.091797" xlink:href="#DejaVuSans-51"/>
     <use x="1007.714844" xlink:href="#DejaVuSans-54"/>
     <use x="1071.337891" xlink:href="#DejaVuSans-44"/>
     <use x="1103.125" xlink:href="#DejaVuSans-32"/>
     <use x="1134.912109" xlink:href="#DejaVuSans-51"/>
     <use x="1198.535156" xlink:href="#DejaVuSans-45"/>
     <use x="1234.619141" xlink:href="#DejaVuSans-68"/>
    </g>
    <!-- 41 targets: 100..1e-06 -->
    <g transform="translate(60.41088 49.533135)scale(0.102 -0.102)">
     <defs>
      <path d="M 11.71875 12.40625 
L 22.015625 12.40625 
L 22.015625 0 
L 11.71875 0 
z
M 11.71875 51.703125 
L 22.015625 51.703125 
L 22.015625 39.3125 
L 11.71875 39.3125 
z
" id="DejaVuSans-58"/>
     </defs>
     <use xlink:href="#DejaVuSans-52"/>
     <use x="63.623047" xlink:href="#DejaVuSans-49"/>
     <use x="127.246094" xlink:href="#DejaVuSans-32"/>
     <use x="159.033203" xlink:href="#DejaVuSans-116"/>
     <use x="198.242188" xlink:href="#DejaVuSans-97"/>
     <use x="259.521484" xlink:href="#DejaVuSans-114"/>
     <use x="298.884766" xlink:href="#DejaVuSans-103"/>
     <use x="362.361328" xlink:href="#DejaVuSans-101"/>
     <use x="423.884766" xlink:href="#DejaVuSans-116"/>
     <use x="463.09375" xlink:href="#DejaVuSans-115"/>
     <use x="515.193359" xlink:href="#DejaVuSans-58"/>
     <use x="548.884766" xlink:href="#DejaVuSans-32"/>
     <use x="580.671875" xlink:href="#DejaVuSans-49"/>
     <use x="644.294922" xlink:href="#DejaVuSans-48"/>
     <use x="707.917969" xlink:href="#DejaVuSans-48"/>
     <use x="771.541016" xlink:href="#DejaVuSans-46"/>
     <use x="803.328125" xlink:href="#DejaVuSans-46"/>
     <use x="835.115234" xlink:href="#DejaVuSans-49"/>
     <use x="898.738281" xlink:href="#DejaVuSans-101"/>
     <use x="960.261719" xlink:href="#DejaVuSans-45"/>
     <use x="996.345703" xlink:href="#DejaVuSans-48"/>
     <use x="1059.96875" xlink:href="#DejaVuSans-54"/>
    </g>
    <!-- 15 instances -->
    <g transform="translate(60.41088 60.954904)scale(0.102 -0.102)">
     <use xlink:href="#DejaVuSans-49"/>
     <use x="63.623047" xlink:href="#DejaVuSans-53"/>
     <use x="127.246094" xlink:href="#DejaVuSans-32"/>
     <use x="159.033203" xlink:href="#DejaVuSans-105"/>
     <use x="186.816406" xlink:href="#DejaVuSans-110"/>
     <use x="250.195312" xlink:href="#DejaVuSans-115"/>
     <use x="302.294922" xlink:href="#DejaVuSans-116"/>
     <use x="341.503906" xlink:href="#DejaVuSans-97"/>
     <use x="402.783203" xlink:href="#DejaVuSans-110"/>
     <use x="466.162109" xlink:href="#DejaVuSans-99"/>
     <use x="521.142578" xlink:href="#DejaVuSans-101"/>
     <use x="582.666016" xlink:href="#DejaVuSans-115"/>
    </g>
   </g>
   <g id="text_18">
    <!-- v5z33 -->
    <g style="fill:#808080;" transform="translate(183.016656 294.151352)scale(0.1 -0.1)">
     <defs>
      <path d="M 5.515625 54.6875 
L 48.1875 54.6875 
L 48.1875 46.484375 
L 14.40625 7.171875 
L 48.1875 7.171875 
L 48.1875 0 
L 4.296875 0 
L 4.296875 8.203125 
L 38.09375 47.515625 
L 5.515625 47.515625 
z
" id="DejaVuSans-122"/>
     </defs>
     <use xlink:href="#DejaVuSans-118"/>
     <use x="59.179688" xlink:href="#DejaVuSans-53"/>
     <use x="122.802734" xlink:href="#DejaVuSans-122"/>
     <use x="175.292969" xlink:href="#DejaVuSans-51"/>
     <use x="238.916016" xlink:href="#DejaVuSans-51"/>
    </g>
   </g>
   <g id="text_19">
    <!-- 36 Bent Cigar, 3n+6 constraints -->
    <g transform="translate(36.897125 21.648)scale(0.2 -0.2)">
     <defs>
      <path d="M 19.671875 34.8125 
L 19.671875 8.109375 
L 35.5 8.109375 
Q 43.453125 8.109375 47.28125 11.40625 
Q 51.125 14.703125 51.125 21.484375 
Q 51.125 28.328125 47.28125 31.5625 
Q 43.453125 34.8125 35.5 34.8125 
z
M 19.671875 64.796875 
L 19.671875 42.828125 
L 34.28125 42.828125 
Q 41.5 42.828125 45.03125 45.53125 
Q 48.578125 48.25 48.578125 53.8125 
Q 48.578125 59.328125 45.03125 62.0625 
Q 41.5 64.796875 34.28125 64.796875 
z
M 9.8125 72.90625 
L 35.015625 72.90625 
Q 46.296875 72.90625 52.390625 68.21875 
Q 58.5 63.53125 58.5 54.890625 
Q 58.5 48.1875 55.375 44.234375 
Q 52.25 40.28125 46.1875 39.3125 
Q 53.46875 37.75 57.5 32.78125 
Q 61.53125 27.828125 61.53125 20.40625 
Q 61.53125 10.640625 54.890625 5.3125 
Q 48.25 0 35.984375 0 
L 9.8125 0 
z
" id="DejaVuSans-66"/>
      <path d="M 64.40625 67.28125 
L 64.40625 56.890625 
Q 59.421875 61.53125 53.78125 63.8125 
Q 48.140625 66.109375 41.796875 66.109375 
Q 29.296875 66.109375 22.65625 58.46875 
Q 16.015625 50.828125 16.015625 36.375 
Q 16.015625 21.96875 22.65625 14.328125 
Q 29.296875 6.6875 41.796875 6.6875 
Q 48.140625 6.6875 53.78125 8.984375 
Q 59.421875 11.28125 64.40625 15.921875 
L 64.40625 5.609375 
Q 59.234375 2.09375 53.4375 0.328125 
Q 47.65625 -1.421875 41.21875 -1.421875 
Q 24.65625 -1.421875 15.125 8.703125 
Q 5.609375 18.84375 5.609375 36.375 
Q 5.609375 53.953125 15.125 64.078125 
Q 24.65625 74.21875 41.21875 74.21875 
Q 47.75 74.21875 53.53125 72.484375 
Q 59.328125 70.75 64.40625 67.28125 
z
" id="DejaVuSans-67"/>
     </defs>
     <use xlink:href="#DejaVuSans-51"/>
     <use x="63.623047" xlink:href="#DejaVuSans-54"/>
     <use x="127.246094" xlink:href="#DejaVuSans-32"/>
     <use x="159.033203" xlink:href="#DejaVuSans-66"/>
     <use x="227.636719" xlink:href="#DejaVuSans-101"/>
     <use x="289.160156" xlink:href="#DejaVuSans-110"/>
     <use x="352.539062" xlink:href="#DejaVuSans-116"/>
     <use x="391.748047" xlink:href="#DejaVuSans-32"/>
     <use x="423.535156" xlink:href="#DejaVuSans-67"/>
     <use x="493.359375" xlink:href="#DejaVuSans-105"/>
     <use x="521.142578" xlink:href="#DejaVuSans-103"/>
     <use x="584.619141" xlink:href="#DejaVuSans-97"/>
     <use x="645.898438" xlink:href="#DejaVuSans-114"/>
     <use x="687.011719" xlink:href="#DejaVuSans-44"/>
     <use x="718.798828" xlink:href="#DejaVuSans-32"/>
     <use x="750.585938" xlink:href="#DejaVuSans-51"/>
     <use x="814.208984" xlink:href="#DejaVuSans-110"/>
     <use x="877.587891" xlink:href="#DejaVuSans-43"/>
     <use x="961.376953" xlink:href="#DejaVuSans-54"/>
     <use x="1025" xlink:href="#DejaVuSans-32"/>
     <use x="1056.787109" xlink:href="#DejaVuSans-99"/>
     <use x="1111.767578" xlink:href="#DejaVuSans-111"/>
     <use x="1172.949219" xlink:href="#DejaVuSans-110"/>
     <use x="1236.328125" xlink:href="#DejaVuSans-115"/>
     <use x="1288.427734" xlink:href="#DejaVuSans-116"/>
     <use x="1327.636719" xlink:href="#DejaVuSans-114"/>
     <use x="1368.75" xlink:href="#DejaVuSans-97"/>
     <use x="1430.029297" xlink:href="#DejaVuSans-105"/>
     <use x="1457.8125" xlink:href="#DejaVuSans-110"/>
     <use x="1521.191406" xlink:href="#DejaVuSans-116"/>
     <use x="1560.400391" xlink:href="#DejaVuSans-115"/>
    </g>
   </g>
  </g>
 </g>
 <defs>
  <clipPath id="pf89068c8c2">
   <rect height="271.296" width="281.088" x="57.6" y="27.648"/>
  </clipPath>
 </defs>
</svg>
