<?xml version="1.0" encoding="utf-8" standalone="no"?>
<!DOCTYPE svg PUBLIC "-//W3C//DTD SVG 1.1//EN"
  "http://www.w3.org/Graphics/SVG/1.1/DTD/svg11.dtd">
<!-- Created with matplotlib (https://matplotlib.org/) -->
<svg height="345.6pt" version="1.1" viewBox="0 0 460.8 345.6" width="460.8pt" xmlns="http://www.w3.org/2000/svg" xmlns:xlink="http://www.w3.org/1999/xlink">
 <metadata>
  <rdf:RDF xmlns:cc="http://creativecommons.org/ns#" xmlns:dc="http://purl.org/dc/elements/1.1/" xmlns:rdf="http://www.w3.org/1999/02/22-rdf-syntax-ns#">
   <cc:Work>
    <dc:type rdf:resource="http://purl.org/dc/dcmitype/StillImage"/>
    <dc:date>2021-03-16T10:43:07.465132</dc:date>
    <dc:format>image/svg+xml</dc:format>
    <dc:creator>
     <cc:Agent>
      <dc:title>Matplotlib v3.3.3, https://matplotlib.org/</dc:title>
     </cc:Agent>
    </dc:creator>
   </cc:Work>
  </rdf:RDF>
 </metadata>
 <defs>
  <style type="text/css">*{stroke-linecap:butt;stroke-linejoin:round;}</style>
 </defs>
 <g id="figure_1">
  <g id="patch_1">
   <path d="M 0 345.6 
L 460.8 345.6 
L 460.8 0 
L 0 0 
z
" style="fill:#ffffff;"/>
  </g>
  <g id="axes_1">
   <g id="patch_2">
    <path d="M 57.6 298.944 
L 338.688 298.944 
L 338.688 27.648 
L 57.6 27.648 
z
" style="fill:#ffffff;"/>
   </g>
   <g id="matplotlib.axis_1">
    <g id="xtick_1">
     <g id="line2d_1">
      <path clip-path="url(#p25c214b980)" d="M 57.6 298.944 
L 57.6 27.648 
" style="fill:none;stroke:#b0b0b0;stroke-linecap:square;stroke-width:0.8;"/>
     </g>
     <g id="line2d_2">
      <defs>
       <path d="M 0 0 
L 0 3.5 
" id="m22c9d292f9" style="stroke:#000000;stroke-width:0.8;"/>
      </defs>
      <g>
       <use style="stroke:#000000;stroke-width:0.8;" x="57.6" xlink:href="#m22c9d292f9" y="298.944"/>
      </g>
     </g>
     <g id="text_1">
      <!-- 0 -->
      <g transform="translate(51.2375 321.140875)scale(0.2 -0.2)">
       <defs>
        <path d="M 31.78125 66.40625 
Q 24.171875 66.40625 20.328125 58.90625 
Q 16.5 51.421875 16.5 36.375 
Q 16.5 21.390625 20.328125 13.890625 
Q 24.171875 6.390625 31.78125 6.390625 
Q 39.453125 6.390625 43.28125 13.890625 
Q 47.125 21.390625 47.125 36.375 
Q 47.125 51.421875 43.28125 58.90625 
Q 39.453125 66.40625 31.78125 66.40625 
z
M 31.78125 74.21875 
Q 44.046875 74.21875 50.515625 64.515625 
Q 56.984375 54.828125 56.984375 36.375 
Q 56.984375 17.96875 50.515625 8.265625 
Q 44.046875 -1.421875 31.78125 -1.421875 
Q 19.53125 -1.421875 13.0625 8.265625 
Q 6.59375 17.96875 6.59375 36.375 
Q 6.59375 54.828125 13.0625 64.515625 
Q 19.53125 74.21875 31.78125 74.21875 
z
" id="DejaVuSans-48"/>
       </defs>
       <use xlink:href="#DejaVuSans-48"/>
      </g>
     </g>
    </g>
    <g id="xtick_2">
     <g id="line2d_3">
      <path clip-path="url(#p25c214b980)" d="M 137.910857 298.944 
L 137.910857 27.648 
" style="fill:none;stroke:#b0b0b0;stroke-linecap:square;stroke-width:0.8;"/>
     </g>
     <g id="line2d_4">
      <g>
       <use style="stroke:#000000;stroke-width:0.8;" x="137.910857" xlink:href="#m22c9d292f9" y="298.944"/>
      </g>
     </g>
     <g id="text_2">
      <!-- 2 -->
      <g transform="translate(131.548357 321.140875)scale(0.2 -0.2)">
       <defs>
        <path d="M 19.1875 8.296875 
L 53.609375 8.296875 
L 53.609375 0 
L 7.328125 0 
L 7.328125 8.296875 
Q 12.9375 14.109375 22.625 23.890625 
Q 32.328125 33.6875 34.8125 36.53125 
Q 39.546875 41.84375 41.421875 45.53125 
Q 43.3125 49.21875 43.3125 52.78125 
Q 43.3125 58.59375 39.234375 62.25 
Q 35.15625 65.921875 28.609375 65.921875 
Q 23.96875 65.921875 18.8125 64.3125 
Q 13.671875 62.703125 7.8125 59.421875 
L 7.8125 69.390625 
Q 13.765625 71.78125 18.9375 73 
Q 24.125 74.21875 28.421875 74.21875 
Q 39.75 74.21875 46.484375 68.546875 
Q 53.21875 62.890625 53.21875 53.421875 
Q 53.21875 48.921875 51.53125 44.890625 
Q 49.859375 40.875 45.40625 35.40625 
Q 44.1875 33.984375 37.640625 27.21875 
Q 31.109375 20.453125 19.1875 8.296875 
z
" id="DejaVuSans-50"/>
       </defs>
       <use xlink:href="#DejaVuSans-50"/>
      </g>
     </g>
    </g>
    <g id="xtick_3">
     <g id="line2d_5">
      <path clip-path="url(#p25c214b980)" d="M 218.221714 298.944 
L 218.221714 27.648 
" style="fill:none;stroke:#b0b0b0;stroke-linecap:square;stroke-width:0.8;"/>
     </g>
     <g id="line2d_6">
      <g>
       <use style="stroke:#000000;stroke-width:0.8;" x="218.221714" xlink:href="#m22c9d292f9" y="298.944"/>
      </g>
     </g>
     <g id="text_3">
      <!-- 4 -->
      <g transform="translate(211.859214 321.140875)scale(0.2 -0.2)">
       <defs>
        <path d="M 37.796875 64.3125 
L 12.890625 25.390625 
L 37.796875 25.390625 
z
M 35.203125 72.90625 
L 47.609375 72.90625 
L 47.609375 25.390625 
L 58.015625 25.390625 
L 58.015625 17.1875 
L 47.609375 17.1875 
L 47.609375 0 
L 37.796875 0 
L 37.796875 17.1875 
L 4.890625 17.1875 
L 4.890625 26.703125 
z
" id="DejaVuSans-52"/>
       </defs>
       <use xlink:href="#DejaVuSans-52"/>
      </g>
     </g>
    </g>
    <g id="xtick_4">
     <g id="line2d_7">
      <path clip-path="url(#p25c214b980)" d="M 298.532571 298.944 
L 298.532571 27.648 
" style="fill:none;stroke:#b0b0b0;stroke-linecap:square;stroke-width:0.8;"/>
     </g>
     <g id="line2d_8">
      <g>
       <use style="stroke:#000000;stroke-width:0.8;" x="298.532571" xlink:href="#m22c9d292f9" y="298.944"/>
      </g>
     </g>
     <g id="text_4">
      <!-- 6 -->
      <g transform="translate(292.170071 321.140875)scale(0.2 -0.2)">
       <defs>
        <path d="M 33.015625 40.375 
Q 26.375 40.375 22.484375 35.828125 
Q 18.609375 31.296875 18.609375 23.390625 
Q 18.609375 15.53125 22.484375 10.953125 
Q 26.375 6.390625 33.015625 6.390625 
Q 39.65625 6.390625 43.53125 10.953125 
Q 47.40625 15.53125 47.40625 23.390625 
Q 47.40625 31.296875 43.53125 35.828125 
Q 39.65625 40.375 33.015625 40.375 
z
M 52.59375 71.296875 
L 52.59375 62.3125 
Q 48.875 64.0625 45.09375 64.984375 
Q 41.3125 65.921875 37.59375 65.921875 
Q 27.828125 65.921875 22.671875 59.328125 
Q 17.53125 52.734375 16.796875 39.40625 
Q 19.671875 43.65625 24.015625 45.921875 
Q 28.375 48.1875 33.59375 48.1875 
Q 44.578125 48.1875 50.953125 41.515625 
Q 57.328125 34.859375 57.328125 23.390625 
Q 57.328125 12.15625 50.6875 5.359375 
Q 44.046875 -1.421875 33.015625 -1.421875 
Q 20.359375 -1.421875 13.671875 8.265625 
Q 6.984375 17.96875 6.984375 36.375 
Q 6.984375 53.65625 15.1875 63.9375 
Q 23.390625 74.21875 37.203125 74.21875 
Q 40.921875 74.21875 44.703125 73.484375 
Q 48.484375 72.75 52.59375 71.296875 
z
" id="DejaVuSans-54"/>
       </defs>
       <use xlink:href="#DejaVuSans-54"/>
      </g>
     </g>
    </g>
    <g id="xtick_5">
     <g id="line2d_9">
      <path clip-path="url(#p25c214b980)" d="M 97.755429 298.944 
L 97.755429 27.648 
" style="fill:none;stroke:#b0b0b0;stroke-linecap:square;stroke-width:0.8;"/>
     </g>
     <g id="line2d_10">
      <defs>
       <path d="M 0 0 
L 0 2 
" id="m11ee862494" style="stroke:#000000;stroke-width:0.6;"/>
      </defs>
      <g>
       <use style="stroke:#000000;stroke-width:0.6;" x="97.755429" xlink:href="#m11ee862494" y="298.944"/>
      </g>
     </g>
    </g>
    <g id="xtick_6">
     <g id="line2d_11">
      <path clip-path="url(#p25c214b980)" d="M 178.066286 298.944 
L 178.066286 27.648 
" style="fill:none;stroke:#b0b0b0;stroke-linecap:square;stroke-width:0.8;"/>
     </g>
     <g id="line2d_12">
      <g>
       <use style="stroke:#000000;stroke-width:0.6;" x="178.066286" xlink:href="#m11ee862494" y="298.944"/>
      </g>
     </g>
    </g>
    <g id="xtick_7">
     <g id="line2d_13">
      <path clip-path="url(#p25c214b980)" d="M 258.377143 298.944 
L 258.377143 27.648 
" style="fill:none;stroke:#b0b0b0;stroke-linecap:square;stroke-width:0.8;"/>
     </g>
     <g id="line2d_14">
      <g>
       <use style="stroke:#000000;stroke-width:0.6;" x="258.377143" xlink:href="#m11ee862494" y="298.944"/>
      </g>
     </g>
    </g>
    <g id="xtick_8">
     <g id="line2d_15">
      <path clip-path="url(#p25c214b980)" d="M 338.688 298.944 
L 338.688 27.648 
" style="fill:none;stroke:#b0b0b0;stroke-linecap:square;stroke-width:0.8;"/>
     </g>
     <g id="line2d_16">
      <g>
       <use style="stroke:#000000;stroke-width:0.6;" x="338.688" xlink:href="#m11ee862494" y="298.944"/>
      </g>
     </g>
    </g>
    <g id="text_5">
     <!-- log10(# (f+g)-evals / dimension) -->
     <g transform="translate(58.145016 342.217594)scale(0.17 -0.17)">
      <defs>
       <path d="M 9.421875 75.984375 
L 18.40625 75.984375 
L 18.40625 0 
L 9.421875 0 
z
" id="DejaVuSans-108"/>
       <path d="M 30.609375 48.390625 
Q 23.390625 48.390625 19.1875 42.75 
Q 14.984375 37.109375 14.984375 27.296875 
Q 14.984375 17.484375 19.15625 11.84375 
Q 23.34375 6.203125 30.609375 6.203125 
Q 37.796875 6.203125 41.984375 11.859375 
Q 46.1875 17.53125 46.1875 27.296875 
Q 46.1875 37.015625 41.984375 42.703125 
Q 37.796875 48.390625 30.609375 48.390625 
z
M 30.609375 56 
Q 42.328125 56 49.015625 48.375 
Q 55.71875 40.765625 55.71875 27.296875 
Q 55.71875 13.875 49.015625 6.21875 
Q 42.328125 -1.421875 30.609375 -1.421875 
Q 18.84375 -1.421875 12.171875 6.21875 
Q 5.515625 13.875 5.515625 27.296875 
Q 5.515625 40.765625 12.171875 48.375 
Q 18.84375 56 30.609375 56 
z
" id="DejaVuSans-111"/>
       <path d="M 45.40625 27.984375 
Q 45.40625 37.75 41.375 43.109375 
Q 37.359375 48.484375 30.078125 48.484375 
Q 22.859375 48.484375 18.828125 43.109375 
Q 14.796875 37.75 14.796875 27.984375 
Q 14.796875 18.265625 18.828125 12.890625 
Q 22.859375 7.515625 30.078125 7.515625 
Q 37.359375 7.515625 41.375 12.890625 
Q 45.40625 18.265625 45.40625 27.984375 
z
M 54.390625 6.78125 
Q 54.390625 -7.171875 48.1875 -13.984375 
Q 42 -20.796875 29.203125 -20.796875 
Q 24.46875 -20.796875 20.265625 -20.09375 
Q 16.0625 -19.390625 12.109375 -17.921875 
L 12.109375 -9.1875 
Q 16.0625 -11.328125 19.921875 -12.34375 
Q 23.78125 -13.375 27.78125 -13.375 
Q 36.625 -13.375 41.015625 -8.765625 
Q 45.40625 -4.15625 45.40625 5.171875 
L 45.40625 9.625 
Q 42.625 4.78125 38.28125 2.390625 
Q 33.9375 0 27.875 0 
Q 17.828125 0 11.671875 7.65625 
Q 5.515625 15.328125 5.515625 27.984375 
Q 5.515625 40.671875 11.671875 48.328125 
Q 17.828125 56 27.875 56 
Q 33.9375 56 38.28125 53.609375 
Q 42.625 51.21875 45.40625 46.390625 
L 45.40625 54.6875 
L 54.390625 54.6875 
z
" id="DejaVuSans-103"/>
       <path d="M 12.40625 8.296875 
L 28.515625 8.296875 
L 28.515625 63.921875 
L 10.984375 60.40625 
L 10.984375 69.390625 
L 28.421875 72.90625 
L 38.28125 72.90625 
L 38.28125 8.296875 
L 54.390625 8.296875 
L 54.390625 0 
L 12.40625 0 
z
" id="DejaVuSans-49"/>
       <path d="M 31 75.875 
Q 24.46875 64.65625 21.28125 53.65625 
Q 18.109375 42.671875 18.109375 31.390625 
Q 18.109375 20.125 21.3125 9.0625 
Q 24.515625 -2 31 -13.1875 
L 23.1875 -13.1875 
Q 15.875 -1.703125 12.234375 9.375 
Q 8.59375 20.453125 8.59375 31.390625 
Q 8.59375 42.28125 12.203125 53.3125 
Q 15.828125 64.359375 23.1875 75.875 
z
" id="DejaVuSans-40"/>
       <path d="M 51.125 44 
L 36.921875 44 
L 32.8125 27.6875 
L 47.125 27.6875 
z
M 43.796875 71.78125 
L 38.71875 51.515625 
L 52.984375 51.515625 
L 58.109375 71.78125 
L 65.921875 71.78125 
L 60.890625 51.515625 
L 76.125 51.515625 
L 76.125 44 
L 58.984375 44 
L 54.984375 27.6875 
L 70.515625 27.6875 
L 70.515625 20.21875 
L 53.078125 20.21875 
L 48 0 
L 40.1875 0 
L 45.21875 20.21875 
L 30.90625 20.21875 
L 25.875 0 
L 18.015625 0 
L 23.09375 20.21875 
L 7.71875 20.21875 
L 7.71875 27.6875 
L 24.90625 27.6875 
L 29 44 
L 13.28125 44 
L 13.28125 51.515625 
L 30.90625 51.515625 
L 35.890625 71.78125 
z
" id="DejaVuSans-35"/>
       <path id="DejaVuSans-32"/>
       <path d="M 37.109375 75.984375 
L 37.109375 68.5 
L 28.515625 68.5 
Q 23.6875 68.5 21.796875 66.546875 
Q 19.921875 64.59375 19.921875 59.515625 
L 19.921875 54.6875 
L 34.71875 54.6875 
L 34.71875 47.703125 
L 19.921875 47.703125 
L 19.921875 0 
L 10.890625 0 
L 10.890625 47.703125 
L 2.296875 47.703125 
L 2.296875 54.6875 
L 10.890625 54.6875 
L 10.890625 58.5 
Q 10.890625 67.625 15.140625 71.796875 
Q 19.390625 75.984375 28.609375 75.984375 
z
" id="DejaVuSans-102"/>
       <path d="M 46 62.703125 
L 46 35.5 
L 73.1875 35.5 
L 73.1875 27.203125 
L 46 27.203125 
L 46 0 
L 37.796875 0 
L 37.796875 27.203125 
L 10.59375 27.203125 
L 10.59375 35.5 
L 37.796875 35.5 
L 37.796875 62.703125 
z
" id="DejaVuSans-43"/>
       <path d="M 8.015625 75.875 
L 15.828125 75.875 
Q 23.140625 64.359375 26.78125 53.3125 
Q 30.421875 42.28125 30.421875 31.390625 
Q 30.421875 20.453125 26.78125 9.375 
Q 23.140625 -1.703125 15.828125 -13.1875 
L 8.015625 -13.1875 
Q 14.5 -2 17.703125 9.0625 
Q 20.90625 20.125 20.90625 31.390625 
Q 20.90625 42.671875 17.703125 53.65625 
Q 14.5 64.65625 8.015625 75.875 
z
" id="DejaVuSans-41"/>
       <path d="M 4.890625 31.390625 
L 31.203125 31.390625 
L 31.203125 23.390625 
L 4.890625 23.390625 
z
" id="DejaVuSans-45"/>
       <path d="M 56.203125 29.59375 
L 56.203125 25.203125 
L 14.890625 25.203125 
Q 15.484375 15.921875 20.484375 11.0625 
Q 25.484375 6.203125 34.421875 6.203125 
Q 39.59375 6.203125 44.453125 7.46875 
Q 49.3125 8.734375 54.109375 11.28125 
L 54.109375 2.78125 
Q 49.265625 0.734375 44.1875 -0.34375 
Q 39.109375 -1.421875 33.890625 -1.421875 
Q 20.796875 -1.421875 13.15625 6.1875 
Q 5.515625 13.8125 5.515625 26.8125 
Q 5.515625 40.234375 12.765625 48.109375 
Q 20.015625 56 32.328125 56 
Q 43.359375 56 49.78125 48.890625 
Q 56.203125 41.796875 56.203125 29.59375 
z
M 47.21875 32.234375 
Q 47.125 39.59375 43.09375 43.984375 
Q 39.0625 48.390625 32.421875 48.390625 
Q 24.90625 48.390625 20.390625 44.140625 
Q 15.875 39.890625 15.1875 32.171875 
z
" id="DejaVuSans-101"/>
       <path d="M 2.984375 54.6875 
L 12.5 54.6875 
L 29.59375 8.796875 
L 46.6875 54.6875 
L 56.203125 54.6875 
L 35.6875 0 
L 23.484375 0 
z
" id="DejaVuSans-118"/>
       <path d="M 34.28125 27.484375 
Q 23.390625 27.484375 19.1875 25 
Q 14.984375 22.515625 14.984375 16.5 
Q 14.984375 11.71875 18.140625 8.90625 
Q 21.296875 6.109375 26.703125 6.109375 
Q 34.1875 6.109375 38.703125 11.40625 
Q 43.21875 16.703125 43.21875 25.484375 
L 43.21875 27.484375 
z
M 52.203125 31.203125 
L 52.203125 0 
L 43.21875 0 
L 43.21875 8.296875 
Q 40.140625 3.328125 35.546875 0.953125 
Q 30.953125 -1.421875 24.3125 -1.421875 
Q 15.921875 -1.421875 10.953125 3.296875 
Q 6 8.015625 6 15.921875 
Q 6 25.140625 12.171875 29.828125 
Q 18.359375 34.515625 30.609375 34.515625 
L 43.21875 34.515625 
L 43.21875 35.40625 
Q 43.21875 41.609375 39.140625 45 
Q 35.0625 48.390625 27.6875 48.390625 
Q 23 48.390625 18.546875 47.265625 
Q 14.109375 46.140625 10.015625 43.890625 
L 10.015625 52.203125 
Q 14.9375 54.109375 19.578125 55.046875 
Q 24.21875 56 28.609375 56 
Q 40.484375 56 46.34375 49.84375 
Q 52.203125 43.703125 52.203125 31.203125 
z
" id="DejaVuSans-97"/>
       <path d="M 44.28125 53.078125 
L 44.28125 44.578125 
Q 40.484375 46.53125 36.375 47.5 
Q 32.28125 48.484375 27.875 48.484375 
Q 21.1875 48.484375 17.84375 46.4375 
Q 14.5 44.390625 14.5 40.28125 
Q 14.5 37.15625 16.890625 35.375 
Q 19.28125 33.59375 26.515625 31.984375 
L 29.59375 31.296875 
Q 39.15625 29.25 43.1875 25.515625 
Q 47.21875 21.78125 47.21875 15.09375 
Q 47.21875 7.46875 41.1875 3.015625 
Q 35.15625 -1.421875 24.609375 -1.421875 
Q 20.21875 -1.421875 15.453125 -0.5625 
Q 10.6875 0.296875 5.421875 2 
L 5.421875 11.28125 
Q 10.40625 8.6875 15.234375 7.390625 
Q 20.0625 6.109375 24.8125 6.109375 
Q 31.15625 6.109375 34.5625 8.28125 
Q 37.984375 10.453125 37.984375 14.40625 
Q 37.984375 18.0625 35.515625 20.015625 
Q 33.0625 21.96875 24.703125 23.78125 
L 21.578125 24.515625 
Q 13.234375 26.265625 9.515625 29.90625 
Q 5.8125 33.546875 5.8125 39.890625 
Q 5.8125 47.609375 11.28125 51.796875 
Q 16.75 56 26.8125 56 
Q 31.78125 56 36.171875 55.265625 
Q 40.578125 54.546875 44.28125 53.078125 
z
" id="DejaVuSans-115"/>
       <path d="M 25.390625 72.90625 
L 33.6875 72.90625 
L 8.296875 -9.28125 
L 0 -9.28125 
z
" id="DejaVuSans-47"/>
       <path d="M 45.40625 46.390625 
L 45.40625 75.984375 
L 54.390625 75.984375 
L 54.390625 0 
L 45.40625 0 
L 45.40625 8.203125 
Q 42.578125 3.328125 38.25 0.953125 
Q 33.9375 -1.421875 27.875 -1.421875 
Q 17.96875 -1.421875 11.734375 6.484375 
Q 5.515625 14.40625 5.515625 27.296875 
Q 5.515625 40.1875 11.734375 48.09375 
Q 17.96875 56 27.875 56 
Q 33.9375 56 38.25 53.625 
Q 42.578125 51.265625 45.40625 46.390625 
z
M 14.796875 27.296875 
Q 14.796875 17.390625 18.875 11.75 
Q 22.953125 6.109375 30.078125 6.109375 
Q 37.203125 6.109375 41.296875 11.75 
Q 45.40625 17.390625 45.40625 27.296875 
Q 45.40625 37.203125 41.296875 42.84375 
Q 37.203125 48.484375 30.078125 48.484375 
Q 22.953125 48.484375 18.875 42.84375 
Q 14.796875 37.203125 14.796875 27.296875 
z
" id="DejaVuSans-100"/>
       <path d="M 9.421875 54.6875 
L 18.40625 54.6875 
L 18.40625 0 
L 9.421875 0 
z
M 9.421875 75.984375 
L 18.40625 75.984375 
L 18.40625 64.59375 
L 9.421875 64.59375 
z
" id="DejaVuSans-105"/>
       <path d="M 52 44.1875 
Q 55.375 50.25 60.0625 53.125 
Q 64.75 56 71.09375 56 
Q 79.640625 56 84.28125 50.015625 
Q 88.921875 44.046875 88.921875 33.015625 
L 88.921875 0 
L 79.890625 0 
L 79.890625 32.71875 
Q 79.890625 40.578125 77.09375 44.375 
Q 74.3125 48.1875 68.609375 48.1875 
Q 61.625 48.1875 57.5625 43.546875 
Q 53.515625 38.921875 53.515625 30.90625 
L 53.515625 0 
L 44.484375 0 
L 44.484375 32.71875 
Q 44.484375 40.625 41.703125 44.40625 
Q 38.921875 48.1875 33.109375 48.1875 
Q 26.21875 48.1875 22.15625 43.53125 
Q 18.109375 38.875 18.109375 30.90625 
L 18.109375 0 
L 9.078125 0 
L 9.078125 54.6875 
L 18.109375 54.6875 
L 18.109375 46.1875 
Q 21.1875 51.21875 25.484375 53.609375 
Q 29.78125 56 35.6875 56 
Q 41.65625 56 45.828125 52.96875 
Q 50 49.953125 52 44.1875 
z
" id="DejaVuSans-109"/>
       <path d="M 54.890625 33.015625 
L 54.890625 0 
L 45.90625 0 
L 45.90625 32.71875 
Q 45.90625 40.484375 42.875 44.328125 
Q 39.84375 48.1875 33.796875 48.1875 
Q 26.515625 48.1875 22.3125 43.546875 
Q 18.109375 38.921875 18.109375 30.90625 
L 18.109375 0 
L 9.078125 0 
L 9.078125 54.6875 
L 18.109375 54.6875 
L 18.109375 46.1875 
Q 21.34375 51.125 25.703125 53.5625 
Q 30.078125 56 35.796875 56 
Q 45.21875 56 50.046875 50.171875 
Q 54.890625 44.34375 54.890625 33.015625 
z
" id="DejaVuSans-110"/>
      </defs>
      <use xlink:href="#DejaVuSans-108"/>
      <use x="27.783203" xlink:href="#DejaVuSans-111"/>
      <use x="88.964844" xlink:href="#DejaVuSans-103"/>
      <use x="152.441406" xlink:href="#DejaVuSans-49"/>
      <use x="216.064453" xlink:href="#DejaVuSans-48"/>
      <use x="279.6875" xlink:href="#DejaVuSans-40"/>
      <use x="318.701172" xlink:href="#DejaVuSans-35"/>
      <use x="402.490234" xlink:href="#DejaVuSans-32"/>
      <use x="434.277344" xlink:href="#DejaVuSans-40"/>
      <use x="473.291016" xlink:href="#DejaVuSans-102"/>
      <use x="508.496094" xlink:href="#DejaVuSans-43"/>
      <use x="592.285156" xlink:href="#DejaVuSans-103"/>
      <use x="655.761719" xlink:href="#DejaVuSans-41"/>
      <use x="694.775391" xlink:href="#DejaVuSans-45"/>
      <use x="730.859375" xlink:href="#DejaVuSans-101"/>
      <use x="792.382812" xlink:href="#DejaVuSans-118"/>
      <use x="851.5625" xlink:href="#DejaVuSans-97"/>
      <use x="912.841797" xlink:href="#DejaVuSans-108"/>
      <use x="940.625" xlink:href="#DejaVuSans-115"/>
      <use x="992.724609" xlink:href="#DejaVuSans-32"/>
      <use x="1024.511719" xlink:href="#DejaVuSans-47"/>
      <use x="1058.203125" xlink:href="#DejaVuSans-32"/>
      <use x="1089.990234" xlink:href="#DejaVuSans-100"/>
      <use x="1153.466797" xlink:href="#DejaVuSans-105"/>
      <use x="1181.25" xlink:href="#DejaVuSans-109"/>
      <use x="1278.662109" xlink:href="#DejaVuSans-101"/>
      <use x="1340.185547" xlink:href="#DejaVuSans-110"/>
      <use x="1403.564453" xlink:href="#DejaVuSans-115"/>
      <use x="1455.664062" xlink:href="#DejaVuSans-105"/>
      <use x="1483.447266" xlink:href="#DejaVuSans-111"/>
      <use x="1544.628906" xlink:href="#DejaVuSans-110"/>
      <use x="1608.007812" xlink:href="#DejaVuSans-41"/>
     </g>
    </g>
   </g>
   <g id="matplotlib.axis_2">
    <g id="ytick_1">
     <g id="line2d_17">
      <path clip-path="url(#p25c214b980)" d="M 57.6 298.944 
L 338.688 298.944 
" style="fill:none;stroke:#b0b0b0;stroke-linecap:square;stroke-width:0.8;"/>
     </g>
     <g id="line2d_18">
      <defs>
       <path d="M 0 0 
L -3.5 0 
" id="m911ee59c5b" style="stroke:#000000;stroke-width:0.8;"/>
      </defs>
      <g>
       <use style="stroke:#000000;stroke-width:0.8;" x="57.6" xlink:href="#m911ee59c5b" y="298.944"/>
      </g>
     </g>
     <g id="text_6">
      <!-- 0.0 -->
      <g transform="translate(25.155 305.02275)scale(0.16 -0.16)">
       <defs>
        <path d="M 10.6875 12.40625 
L 21 12.40625 
L 21 0 
L 10.6875 0 
z
" id="DejaVuSans-46"/>
       </defs>
       <use xlink:href="#DejaVuSans-48"/>
       <use x="63.623047" xlink:href="#DejaVuSans-46"/>
       <use x="95.410156" xlink:href="#DejaVuSans-48"/>
      </g>
     </g>
    </g>
    <g id="ytick_2">
     <g id="line2d_19">
      <path clip-path="url(#p25c214b980)" d="M 57.6 245.22202 
L 338.688 245.22202 
" style="fill:none;stroke:#b0b0b0;stroke-linecap:square;stroke-width:0.8;"/>
     </g>
     <g id="line2d_20">
      <g>
       <use style="stroke:#000000;stroke-width:0.8;" x="57.6" xlink:href="#m911ee59c5b" y="245.22202"/>
      </g>
     </g>
     <g id="text_7">
      <!-- 0.2 -->
      <g transform="translate(25.155 251.30077)scale(0.16 -0.16)">
       <use xlink:href="#DejaVuSans-48"/>
       <use x="63.623047" xlink:href="#DejaVuSans-46"/>
       <use x="95.410156" xlink:href="#DejaVuSans-50"/>
      </g>
     </g>
    </g>
    <g id="ytick_3">
     <g id="line2d_21">
      <path clip-path="url(#p25c214b980)" d="M 57.6 191.50004 
L 338.688 191.50004 
" style="fill:none;stroke:#b0b0b0;stroke-linecap:square;stroke-width:0.8;"/>
     </g>
     <g id="line2d_22">
      <g>
       <use style="stroke:#000000;stroke-width:0.8;" x="57.6" xlink:href="#m911ee59c5b" y="191.50004"/>
      </g>
     </g>
     <g id="text_8">
      <!-- 0.4 -->
      <g transform="translate(25.155 197.57879)scale(0.16 -0.16)">
       <use xlink:href="#DejaVuSans-48"/>
       <use x="63.623047" xlink:href="#DejaVuSans-46"/>
       <use x="95.410156" xlink:href="#DejaVuSans-52"/>
      </g>
     </g>
    </g>
    <g id="ytick_4">
     <g id="line2d_23">
      <path clip-path="url(#p25c214b980)" d="M 57.6 137.778059 
L 338.688 137.778059 
" style="fill:none;stroke:#b0b0b0;stroke-linecap:square;stroke-width:0.8;"/>
     </g>
     <g id="line2d_24">
      <g>
       <use style="stroke:#000000;stroke-width:0.8;" x="57.6" xlink:href="#m911ee59c5b" y="137.778059"/>
      </g>
     </g>
     <g id="text_9">
      <!-- 0.6 -->
      <g transform="translate(25.155 143.856809)scale(0.16 -0.16)">
       <use xlink:href="#DejaVuSans-48"/>
       <use x="63.623047" xlink:href="#DejaVuSans-46"/>
       <use x="95.410156" xlink:href="#DejaVuSans-54"/>
      </g>
     </g>
    </g>
    <g id="ytick_5">
     <g id="line2d_25">
      <path clip-path="url(#p25c214b980)" d="M 57.6 84.056079 
L 338.688 84.056079 
" style="fill:none;stroke:#b0b0b0;stroke-linecap:square;stroke-width:0.8;"/>
     </g>
     <g id="line2d_26">
      <g>
       <use style="stroke:#000000;stroke-width:0.8;" x="57.6" xlink:href="#m911ee59c5b" y="84.056079"/>
      </g>
     </g>
     <g id="text_10">
      <!-- 0.8 -->
      <g transform="translate(25.155 90.134829)scale(0.16 -0.16)">
       <defs>
        <path d="M 31.78125 34.625 
Q 24.75 34.625 20.71875 30.859375 
Q 16.703125 27.09375 16.703125 20.515625 
Q 16.703125 13.921875 20.71875 10.15625 
Q 24.75 6.390625 31.78125 6.390625 
Q 38.8125 6.390625 42.859375 10.171875 
Q 46.921875 13.96875 46.921875 20.515625 
Q 46.921875 27.09375 42.890625 30.859375 
Q 38.875 34.625 31.78125 34.625 
z
M 21.921875 38.8125 
Q 15.578125 40.375 12.03125 44.71875 
Q 8.5 49.078125 8.5 55.328125 
Q 8.5 64.0625 14.71875 69.140625 
Q 20.953125 74.21875 31.78125 74.21875 
Q 42.671875 74.21875 48.875 69.140625 
Q 55.078125 64.0625 55.078125 55.328125 
Q 55.078125 49.078125 51.53125 44.71875 
Q 48 40.375 41.703125 38.8125 
Q 48.828125 37.15625 52.796875 32.3125 
Q 56.78125 27.484375 56.78125 20.515625 
Q 56.78125 9.90625 50.3125 4.234375 
Q 43.84375 -1.421875 31.78125 -1.421875 
Q 19.734375 -1.421875 13.25 4.234375 
Q 6.78125 9.90625 6.78125 20.515625 
Q 6.78125 27.484375 10.78125 32.3125 
Q 14.796875 37.15625 21.921875 38.8125 
z
M 18.3125 54.390625 
Q 18.3125 48.734375 21.84375 45.5625 
Q 25.390625 42.390625 31.78125 42.390625 
Q 38.140625 42.390625 41.71875 45.5625 
Q 45.3125 48.734375 45.3125 54.390625 
Q 45.3125 60.0625 41.71875 63.234375 
Q 38.140625 66.40625 31.78125 66.40625 
Q 25.390625 66.40625 21.84375 63.234375 
Q 18.3125 60.0625 18.3125 54.390625 
z
" id="DejaVuSans-56"/>
       </defs>
       <use xlink:href="#DejaVuSans-48"/>
       <use x="63.623047" xlink:href="#DejaVuSans-46"/>
       <use x="95.410156" xlink:href="#DejaVuSans-56"/>
      </g>
     </g>
    </g>
    <g id="ytick_6">
     <g id="line2d_27">
      <path clip-path="url(#p25c214b980)" d="M 57.6 30.334099 
L 338.688 30.334099 
" style="fill:none;stroke:#b0b0b0;stroke-linecap:square;stroke-width:0.8;"/>
     </g>
     <g id="line2d_28">
      <g>
       <use style="stroke:#000000;stroke-width:0.8;" x="57.6" xlink:href="#m911ee59c5b" y="30.334099"/>
      </g>
     </g>
     <g id="text_11">
      <!-- 1.0 -->
      <g transform="translate(25.155 36.412849)scale(0.16 -0.16)">
       <use xlink:href="#DejaVuSans-49"/>
       <use x="63.623047" xlink:href="#DejaVuSans-46"/>
       <use x="95.410156" xlink:href="#DejaVuSans-48"/>
      </g>
     </g>
    </g>
    <g id="text_12">
     <!-- Fraction of function,target pairs -->
     <g transform="translate(17.619531 297.681)rotate(-90)scale(0.17 -0.17)">
      <defs>
       <path d="M 9.8125 72.90625 
L 51.703125 72.90625 
L 51.703125 64.59375 
L 19.671875 64.59375 
L 19.671875 43.109375 
L 48.578125 43.109375 
L 48.578125 34.8125 
L 19.671875 34.8125 
L 19.671875 0 
L 9.8125 0 
z
" id="DejaVuSans-70"/>
       <path d="M 41.109375 46.296875 
Q 39.59375 47.171875 37.8125 47.578125 
Q 36.03125 48 33.890625 48 
Q 26.265625 48 22.1875 43.046875 
Q 18.109375 38.09375 18.109375 28.8125 
L 18.109375 0 
L 9.078125 0 
L 9.078125 54.6875 
L 18.109375 54.6875 
L 18.109375 46.1875 
Q 20.953125 51.171875 25.484375 53.578125 
Q 30.03125 56 36.53125 56 
Q 37.453125 56 38.578125 55.875 
Q 39.703125 55.765625 41.0625 55.515625 
z
" id="DejaVuSans-114"/>
       <path d="M 48.78125 52.59375 
L 48.78125 44.1875 
Q 44.96875 46.296875 41.140625 47.34375 
Q 37.3125 48.390625 33.40625 48.390625 
Q 24.65625 48.390625 19.8125 42.84375 
Q 14.984375 37.3125 14.984375 27.296875 
Q 14.984375 17.28125 19.8125 11.734375 
Q 24.65625 6.203125 33.40625 6.203125 
Q 37.3125 6.203125 41.140625 7.25 
Q 44.96875 8.296875 48.78125 10.40625 
L 48.78125 2.09375 
Q 45.015625 0.34375 40.984375 -0.53125 
Q 36.96875 -1.421875 32.421875 -1.421875 
Q 20.0625 -1.421875 12.78125 6.34375 
Q 5.515625 14.109375 5.515625 27.296875 
Q 5.515625 40.671875 12.859375 48.328125 
Q 20.21875 56 33.015625 56 
Q 37.15625 56 41.109375 55.140625 
Q 45.0625 54.296875 48.78125 52.59375 
z
" id="DejaVuSans-99"/>
       <path d="M 18.3125 70.21875 
L 18.3125 54.6875 
L 36.8125 54.6875 
L 36.8125 47.703125 
L 18.3125 47.703125 
L 18.3125 18.015625 
Q 18.3125 11.328125 20.140625 9.421875 
Q 21.96875 7.515625 27.59375 7.515625 
L 36.8125 7.515625 
L 36.8125 0 
L 27.59375 0 
Q 17.1875 0 13.234375 3.875 
Q 9.28125 7.765625 9.28125 18.015625 
L 9.28125 47.703125 
L 2.6875 47.703125 
L 2.6875 54.6875 
L 9.28125 54.6875 
L 9.28125 70.21875 
z
" id="DejaVuSans-116"/>
       <path d="M 8.5 21.578125 
L 8.5 54.6875 
L 17.484375 54.6875 
L 17.484375 21.921875 
Q 17.484375 14.15625 20.5 10.265625 
Q 23.53125 6.390625 29.59375 6.390625 
Q 36.859375 6.390625 41.078125 11.03125 
Q 45.3125 15.671875 45.3125 23.6875 
L 45.3125 54.6875 
L 54.296875 54.6875 
L 54.296875 0 
L 45.3125 0 
L 45.3125 8.40625 
Q 42.046875 3.421875 37.71875 1 
Q 33.40625 -1.421875 27.6875 -1.421875 
Q 18.265625 -1.421875 13.375 4.4375 
Q 8.5 10.296875 8.5 21.578125 
z
M 31.109375 56 
z
" id="DejaVuSans-117"/>
       <path d="M 11.71875 12.40625 
L 22.015625 12.40625 
L 22.015625 4 
L 14.015625 -11.625 
L 7.71875 -11.625 
L 11.71875 4 
z
" id="DejaVuSans-44"/>
       <path d="M 18.109375 8.203125 
L 18.109375 -20.796875 
L 9.078125 -20.796875 
L 9.078125 54.6875 
L 18.109375 54.6875 
L 18.109375 46.390625 
Q 20.953125 51.265625 25.265625 53.625 
Q 29.59375 56 35.59375 56 
Q 45.5625 56 51.78125 48.09375 
Q 58.015625 40.1875 58.015625 27.296875 
Q 58.015625 14.40625 51.78125 6.484375 
Q 45.5625 -1.421875 35.59375 -1.421875 
Q 29.59375 -1.421875 25.265625 0.953125 
Q 20.953125 3.328125 18.109375 8.203125 
z
M 48.6875 27.296875 
Q 48.6875 37.203125 44.609375 42.84375 
Q 40.53125 48.484375 33.40625 48.484375 
Q 26.265625 48.484375 22.1875 42.84375 
Q 18.109375 37.203125 18.109375 27.296875 
Q 18.109375 17.390625 22.1875 11.75 
Q 26.265625 6.109375 33.40625 6.109375 
Q 40.53125 6.109375 44.609375 11.75 
Q 48.6875 17.390625 48.6875 27.296875 
z
" id="DejaVuSans-112"/>
      </defs>
      <use xlink:href="#DejaVuSans-70"/>
      <use x="50.269531" xlink:href="#DejaVuSans-114"/>
      <use x="91.382812" xlink:href="#DejaVuSans-97"/>
      <use x="152.662109" xlink:href="#DejaVuSans-99"/>
      <use x="207.642578" xlink:href="#DejaVuSans-116"/>
      <use x="246.851562" xlink:href="#DejaVuSans-105"/>
      <use x="274.634766" xlink:href="#DejaVuSans-111"/>
      <use x="335.816406" xlink:href="#DejaVuSans-110"/>
      <use x="399.195312" xlink:href="#DejaVuSans-32"/>
      <use x="430.982422" xlink:href="#DejaVuSans-111"/>
      <use x="492.164062" xlink:href="#DejaVuSans-102"/>
      <use x="527.369141" xlink:href="#DejaVuSans-32"/>
      <use x="559.15625" xlink:href="#DejaVuSans-102"/>
      <use x="594.361328" xlink:href="#DejaVuSans-117"/>
      <use x="657.740234" xlink:href="#DejaVuSans-110"/>
      <use x="721.119141" xlink:href="#DejaVuSans-99"/>
      <use x="776.099609" xlink:href="#DejaVuSans-116"/>
      <use x="815.308594" xlink:href="#DejaVuSans-105"/>
      <use x="843.091797" xlink:href="#DejaVuSans-111"/>
      <use x="904.273438" xlink:href="#DejaVuSans-110"/>
      <use x="967.652344" xlink:href="#DejaVuSans-44"/>
      <use x="999.439453" xlink:href="#DejaVuSans-116"/>
      <use x="1038.648438" xlink:href="#DejaVuSans-97"/>
      <use x="1099.927734" xlink:href="#DejaVuSans-114"/>
      <use x="1139.291016" xlink:href="#DejaVuSans-103"/>
      <use x="1202.767578" xlink:href="#DejaVuSans-101"/>
      <use x="1264.291016" xlink:href="#DejaVuSans-116"/>
      <use x="1303.5" xlink:href="#DejaVuSans-32"/>
      <use x="1335.287109" xlink:href="#DejaVuSans-112"/>
      <use x="1398.763672" xlink:href="#DejaVuSans-97"/>
      <use x="1460.042969" xlink:href="#DejaVuSans-105"/>
      <use x="1487.826172" xlink:href="#DejaVuSans-114"/>
      <use x="1528.939453" xlink:href="#DejaVuSans-115"/>
     </g>
    </g>
   </g>
   <g id="line2d_29">
    <defs>
     <path d="M 0 1.5 
C 0.397805 1.5 0.77937 1.341951 1.06066 1.06066 
C 1.341951 0.77937 1.5 0.397805 1.5 0 
C 1.5 -0.397805 1.341951 -0.77937 1.06066 -1.06066 
C 0.77937 -1.341951 0.397805 -1.5 0 -1.5 
C -0.397805 -1.5 -0.77937 -1.341951 -1.06066 -1.06066 
C -1.341951 -0.77937 -1.5 -0.397805 -1.5 0 
C -1.5 0.397805 -1.341951 0.77937 -1.06066 1.06066 
C -0.77937 1.341951 -0.397805 1.5 0 1.5 
z
" id="m233837e53b" style="stroke:#000080;"/>
    </defs>
    <g>
     <use style="fill:#000080;stroke:#000080;" x="193.830493" xlink:href="#m233837e53b" y="30.334099"/>
     <use style="fill:#000080;stroke:#000080;" x="193.830493" xlink:href="#m233837e53b" y="30.334099"/>
    </g>
   </g>
   <g id="line2d_30">
    <path d="M 69.687988 298.944 
L 69.687988 298.288854 
L 114.860386 298.288854 
L 114.860386 297.633708 
L 137.910857 297.633708 
L 137.910857 296.978562 
L 140.39868 296.978562 
L 140.39868 296.323416 
L 144.826168 296.323416 
L 144.826168 295.66827 
L 147.096109 295.66827 
L 147.096109 295.013123 
L 149.104327 295.013123 
L 149.104327 293.702831 
L 149.705742 293.702831 
L 149.705742 293.047685 
L 151.44831 293.047685 
L 151.44831 292.392539 
L 152.786492 292.392539 
L 152.835965 291.082247 
L 152.983548 291.082247 
L 152.983548 290.427101 
L 154.972161 290.427101 
L 155.059358 289.116809 
L 156.154939 289.116809 
L 156.154939 288.461662 
L 156.757045 288.461662 
L 156.835778 287.15137 
L 157.185742 287.15137 
L 157.185742 286.496224 
L 157.339055 286.496224 
L 157.339055 285.841078 
L 157.453162 285.841078 
L 157.453162 284.530786 
L 157.641697 284.530786 
L 157.716543 283.220494 
L 158.159001 283.220494 
L 158.159001 282.565348 
L 158.590511 282.565348 
L 158.661402 281.255055 
L 159.388866 281.255055 
L 159.388866 280.599909 
L 159.591258 280.599909 
L 159.591258 279.944763 
L 160.184713 279.944763 
L 160.184713 279.289617 
L 161.374928 279.289617 
L 161.465522 277.979325 
L 161.615474 277.979325 
L 161.615474 277.324179 
L 161.764147 277.324179 
L 161.79373 276.013887 
L 161.940898 276.013887 
L 161.940898 275.35874 
L 162.20271 275.35874 
L 162.20271 274.703594 
L 162.317821 274.703594 
L 162.375093 273.393302 
L 162.770815 273.393302 
L 162.770815 272.738156 
L 163.020547 272.738156 
L 163.020547 272.08301 
L 163.375071 272.08301 
L 163.375071 271.427864 
L 163.616356 271.427864 
L 163.616356 270.117572 
L 163.906798 270.117572 
L 164.011225 268.152133 
L 164.371873 268.152133 
L 164.371873 267.496987 
L 164.675172 267.496987 
L 164.675172 266.841841 
L 164.800007 266.841841 
L 164.824867 265.531549 
L 164.923954 265.531549 
L 164.923954 264.876403 
L 165.338904 264.876403 
L 165.387079 263.566111 
L 165.506937 263.566111 
L 165.506937 262.910965 
L 165.649687 262.910965 
L 165.649687 262.255818 
L 165.838222 262.255818 
L 165.9084 260.945526 
L 166.07106 260.945526 
L 166.07106 258.980088 
L 166.505065 258.980088 
L 166.505065 258.324942 
L 166.773712 258.324942 
L 166.773712 257.669796 
L 166.928532 257.669796 
L 166.994465 255.704357 
L 167.103803 255.704357 
L 167.103803 252.428627 
L 167.427761 252.428627 
L 167.491837 251.118335 
L 167.954668 251.118335 
L 168.01684 249.152896 
L 168.11997 249.152896 
L 168.11997 248.49775 
L 168.242927 248.49775 
L 168.283721 245.877166 
L 168.445948 245.877166 
L 168.445948 245.22202 
L 168.686493 245.22202 
L 168.686493 244.566874 
L 169.388841 244.566874 
L 169.388841 243.911728 
L 169.503198 243.911728 
L 169.503198 243.256582 
L 169.710923 243.256582 
L 169.710923 242.601435 
L 169.990255 242.601435 
L 170.100748 239.325705 
L 170.337772 239.325705 
L 170.337772 238.670559 
L 170.571619 238.670559 
L 170.660731 237.360267 
L 170.767069 237.360267 
L 170.767069 236.705121 
L 170.890315 236.705121 
L 170.890315 236.049974 
L 171.099589 236.049974 
L 171.203291 232.774244 
L 171.254912 232.774244 
L 171.340609 230.15366 
L 171.408865 230.15366 
L 171.408865 228.188221 
L 171.54458 228.188221 
L 171.54458 224.912491 
L 171.679247 224.912491 
L 171.779569 223.602199 
L 171.812882 223.602199 
L 171.812882 222.947052 
L 171.928978 222.947052 
L 172.011434 221.63676 
L 172.06072 221.63676 
L 172.12622 220.326468 
L 172.191475 220.326468 
L 172.191475 219.671322 
L 172.401882 219.671322 
L 172.498143 215.740445 
L 172.514135 215.740445 
L 172.514135 215.085299 
L 172.9872 215.085299 
L 173.064812 213.775007 
L 173.493167 213.775007 
L 173.538444 212.464715 
L 173.718386 212.464715 
L 173.718386 211.809569 
L 174.102007 211.809569 
L 174.203864 207.878692 
L 174.232857 207.878692 
L 174.247335 206.5684 
L 174.463082 206.5684 
L 174.463082 205.913254 
L 174.633778 205.913254 
L 174.676192 204.602962 
L 175.039523 204.602962 
L 175.039523 203.947816 
L 175.218389 203.947816 
L 175.273058 201.327231 
L 175.341154 201.327231 
L 175.449557 200.016939 
L 175.836964 200.016939 
L 175.836964 199.361793 
L 176.007874 199.361793 
L 176.099213 197.396355 
L 176.177125 197.396355 
L 176.267585 195.430916 
L 176.293345 195.430916 
L 176.293345 194.120624 
L 176.408795 194.120624 
L 176.408795 193.465478 
L 177.110469 193.465478 
L 177.220651 190.844894 
L 177.257224 190.844894 
L 177.293721 189.534601 
L 177.390674 189.534601 
L 177.390674 188.879455 
L 177.523109 188.879455 
L 177.606866 184.948579 
L 177.678338 184.948579 
L 177.725824 183.638286 
L 177.832198 183.638286 
L 177.832198 182.98314 
L 178.112729 182.98314 
L 178.205245 180.362556 
L 178.274311 180.362556 
L 178.308742 178.397118 
L 178.388818 178.397118 
L 178.388818 177.741972 
L 178.705493 177.741972 
L 178.783772 172.500803 
L 178.972426 172.500803 
L 179.01652 168.569926 
L 179.257066 168.569926 
L 179.27877 167.259634 
L 179.408431 167.259634 
L 179.408431 166.604488 
L 179.579826 166.604488 
L 179.654285 163.983903 
L 179.707275 163.983903 
L 179.707275 161.363319 
L 179.917643 161.363319 
L 179.959414 160.053027 
L 180.053034 160.053027 
L 180.135832 158.742735 
L 180.371709 158.742735 
L 180.422568 155.467004 
L 180.533936 155.467004 
L 180.533936 154.811858 
L 180.744595 154.811858 
L 180.774482 150.880981 
L 181.011755 150.880981 
L 181.080356 148.915543 
L 181.168162 148.915543 
L 181.274884 146.950105 
L 181.294218 146.950105 
L 181.390568 143.019228 
L 181.409774 143.019228 
L 181.515032 141.05379 
L 181.553151 141.05379 
L 181.619658 137.122913 
L 181.976341 137.122913 
L 182.078244 135.157475 
L 182.271148 135.157475 
L 182.371348 133.847183 
L 182.525079 133.847183 
L 182.587988 131.226598 
L 182.730934 131.226598 
L 182.801969 126.640576 
L 182.88154 126.640576 
L 182.88154 125.98543 
L 183.187577 125.98543 
L 183.187577 124.675137 
L 183.411492 124.675137 
L 183.471289 122.054553 
L 183.530881 122.054553 
L 183.590271 118.123676 
L 183.742064 118.123676 
L 183.742064 117.46853 
L 183.909189 117.46853 
L 184.0087 116.158238 
L 184.041744 116.158238 
L 184.148709 114.847946 
L 184.206035 114.847946 
L 184.279463 110.917069 
L 184.425399 110.917069 
L 184.505951 108.951631 
L 184.626084 108.951631 
L 184.705715 105.675901 
L 184.871767 105.675901 
L 184.871767 103.710462 
L 184.989415 103.710462 
L 185.01285 101.745024 
L 185.121797 101.745024 
L 185.129553 99.779586 
L 185.37594 99.779586 
L 185.37594 97.814147 
L 185.505431 97.814147 
L 185.611353 95.848709 
L 185.641499 95.848709 
L 185.739114 92.572979 
L 185.754083 92.572979 
L 185.836186 88.642102 
L 186.211872 88.642102 
L 186.299105 86.676664 
L 186.500968 86.676664 
L 186.543922 85.366371 
L 186.665053 85.366371 
L 186.665053 82.745787 
L 186.855725 82.745787 
L 186.932813 81.435495 
L 186.995632 81.435495 
L 186.995632 80.125203 
L 187.127512 80.125203 
L 187.224052 78.159764 
L 187.251537 78.159764 
L 187.251537 77.504618 
L 187.435937 77.504618 
L 187.496973 75.53918 
L 187.672108 75.53918 
L 187.672108 74.884034 
L 187.805641 74.884034 
L 187.872026 71.608303 
L 187.924952 71.608303 
L 187.977719 69.642865 
L 188.069677 69.642865 
L 188.082775 67.022281 
L 188.394199 67.022281 
L 188.394199 63.74655 
L 188.554223 63.74655 
L 188.598767 61.781112 
L 188.700159 61.781112 
L 188.700159 60.47082 
L 188.907435 60.47082 
L 189.007053 55.884797 
L 189.050458 55.884797 
L 189.050458 54.574505 
L 189.442368 54.574505 
L 189.478662 51.298774 
L 189.587093 51.298774 
L 189.694854 49.333336 
L 190.025915 49.333336 
L 190.101878 46.712752 
L 190.647169 46.712752 
L 190.647169 46.057605 
L 191.214259 46.057605 
L 191.296121 44.747313 
L 191.694443 44.747313 
L 191.795264 42.126729 
L 192.089073 42.126729 
L 192.187645 37.540706 
L 192.86247 37.540706 
L 192.86247 36.88556 
L 193.270742 36.88556 
L 193.333831 33.60983 
L 193.641139 33.60983 
L 193.641139 32.299537 
L 193.754998 32.299537 
L 193.830493 30.334099 
L 338.688 30.334099 
L 338.688 30.334099 
" style="fill:none;stroke:#000080;stroke-linecap:square;stroke-width:1.5;"/>
   </g>
   <g id="line2d_31">
    <defs>
     <path d="M 0 6 
C 1.591219 6 3.117479 5.367802 4.242641 4.242641 
C 5.367802 3.117479 6 1.591219 6 0 
C 6 -1.591219 5.367802 -3.117479 4.242641 -4.242641 
C 3.117479 -5.367802 1.591219 -6 0 -6 
C -1.591219 -6 -3.117479 -5.367802 -4.242641 -4.242641 
C -5.367802 -3.117479 -6 -1.591219 -6 0 
C -6 1.591219 -5.367802 3.117479 -4.242641 4.242641 
C -3.117479 5.367802 -1.591219 6 0 6 
z
" id="me89b729e82" style="stroke:#000080;stroke-width:1.5;"/>
    </defs>
    <g>
     <use style="fill-opacity:0;stroke:#000080;stroke-width:1.5;" x="167.491837" xlink:href="#me89b729e82" y="251.773481"/>
     <use style="fill-opacity:0;stroke:#000080;stroke-width:1.5;" x="180.422568" xlink:href="#me89b729e82" y="156.777296"/>
     <use style="fill-opacity:0;stroke:#000080;stroke-width:1.5;" x="193.830493" xlink:href="#me89b729e82" y="30.989245"/>
     <use style="fill-opacity:0;stroke:#000080;stroke-width:1.5;" x="193.830493" xlink:href="#me89b729e82" y="30.334099"/>
     <use style="fill-opacity:0;stroke:#000080;stroke-width:1.5;" x="338.688" xlink:href="#me89b729e82" y="30.334099"/>
    </g>
   </g>
   <g id="line2d_32">
    <path style="fill:none;stroke:#000080;stroke-linecap:square;stroke-width:1.5;"/>
    <g/>
   </g>
   <g id="line2d_33">
    <defs>
     <path d="M 0 1.5 
C 0.397805 1.5 0.77937 1.341951 1.06066 1.06066 
C 1.341951 0.77937 1.5 0.397805 1.5 0 
C 1.5 -0.397805 1.341951 -0.77937 1.06066 -1.06066 
C 0.77937 -1.341951 0.397805 -1.5 0 -1.5 
C -0.397805 -1.5 -0.77937 -1.341951 -1.06066 -1.06066 
C -1.341951 -0.77937 -1.5 -0.397805 -1.5 0 
C -1.5 0.397805 -1.341951 0.77937 -1.06066 1.06066 
C -0.77937 1.341951 -0.397805 1.5 0 1.5 
z
" id="m9ad90f4af5" style="stroke:#ff00ff;"/>
    </defs>
    <g>
     <use style="fill:#ff00ff;stroke:#ff00ff;" x="188.944859" xlink:href="#m9ad90f4af5" y="30.334099"/>
     <use style="fill:#ff00ff;stroke:#ff00ff;" x="188.944859" xlink:href="#m9ad90f4af5" y="30.334099"/>
    </g>
   </g>
   <g id="line2d_34">
    <path d="M 109.843417 298.944 
L 109.843417 298.288854 
L 133.277185 298.288854 
L 133.277185 297.633708 
L 133.57787 297.633708 
L 133.57787 296.978562 
L 135.415281 296.978562 
L 135.415281 296.323416 
L 138.706272 296.323416 
L 138.706272 295.66827 
L 143.014805 295.66827 
L 143.014805 293.702831 
L 145.961446 293.702831 
L 145.961446 293.047685 
L 146.749392 293.047685 
L 146.749392 292.392539 
L 147.50327 292.392539 
L 147.50327 291.737393 
L 148.354135 291.737393 
L 148.354135 290.427101 
L 150.79426 290.427101 
L 150.904986 288.461662 
L 151.871101 288.461662 
L 151.871101 287.806516 
L 152.334802 287.806516 
L 152.334802 287.15137 
L 154.57429 287.15137 
L 154.57429 285.185932 
L 155.232454 285.185932 
L 155.232454 284.530786 
L 156.277034 284.530786 
L 156.277034 283.220494 
L 156.757045 283.220494 
L 156.757045 282.565348 
L 157.528821 282.565348 
L 157.528821 281.910201 
L 158.304027 281.910201 
L 158.304027 281.255055 
L 158.48363 281.255055 
L 158.590511 279.944763 
L 158.802326 279.944763 
L 158.802326 278.634471 
L 159.115303 278.634471 
L 159.115303 277.979325 
L 159.320876 277.979325 
L 159.320876 277.324179 
L 159.456591 277.324179 
L 159.456591 276.669033 
L 159.658204 276.669033 
L 159.658204 276.013887 
L 159.857512 276.013887 
L 159.956318 274.048448 
L 160.569418 274.048448 
L 160.569418 273.393302 
L 160.69579 273.393302 
L 160.69579 272.738156 
L 161.069504 272.738156 
L 161.131018 271.427864 
L 161.911563 271.427864 
L 161.911563 270.772718 
L 162.057744 270.772718 
L 162.115875 268.807279 
L 162.289115 268.807279 
L 162.289115 268.152133 
L 162.71483 268.152133 
L 162.71483 267.496987 
L 162.826621 267.496987 
L 162.826621 266.841841 
L 163.07556 266.841841 
L 163.07556 266.186695 
L 163.21234 266.186695 
L 163.21234 265.531549 
L 163.563025 265.531549 
L 163.669525 263.566111 
L 163.854349 263.566111 
L 163.854349 262.910965 
L 164.063205 262.910965 
L 164.140886 261.600672 
L 164.269589 261.600672 
L 164.371873 258.324942 
L 164.675172 258.324942 
L 164.675172 257.669796 
L 164.923954 257.669796 
L 164.923954 257.01465 
L 165.047026 257.01465 
L 165.047026 256.359504 
L 165.193576 256.359504 
L 165.193576 255.704357 
L 165.363008 255.704357 
L 165.459092 253.738919 
L 165.578458 253.738919 
L 165.649687 251.773481 
L 165.838222 251.773481 
L 165.838222 250.463189 
L 166.117256 250.463189 
L 166.117256 248.49775 
L 166.300829 248.49775 
L 166.391896 244.566874 
L 166.928532 244.566874 
L 166.928532 242.601435 
L 167.619287 242.601435 
L 167.619287 241.946289 
L 167.787784 241.946289 
L 167.787784 241.291143 
L 168.344733 241.291143 
L 168.344733 239.325705 
L 168.466121 239.325705 
L 168.526499 237.360267 
L 169.27373 237.360267 
L 169.369709 234.739682 
L 169.54115 234.739682 
L 169.616809 232.774244 
L 169.78585 232.774244 
L 169.860457 231.463952 
L 170.137423 231.463952 
L 170.137423 230.15366 
L 170.301516 230.15366 
L 170.319654 228.843367 
L 170.428085 228.843367 
L 170.428085 228.188221 
L 170.713981 228.188221 
L 170.731695 226.877929 
L 170.907851 226.877929 
L 170.995266 224.912491 
L 171.168792 224.912491 
L 171.254912 220.981614 
L 171.527673 220.981614 
L 171.527673 220.326468 
L 171.679247 220.326468 
L 171.746192 219.016176 
L 171.895887 219.016176 
L 171.994974 217.050738 
L 172.06072 217.050738 
L 172.12622 214.430153 
L 172.240256 214.430153 
L 172.240256 213.119861 
L 172.385786 213.119861 
L 172.482136 211.154423 
L 172.593876 211.154423 
L 172.593876 209.84413 
L 172.830933 209.84413 
L 172.830933 209.188984 
L 172.956059 209.188984 
L 172.956059 208.533838 
L 173.219006 208.533838 
L 173.295595 207.223546 
L 173.462916 207.223546 
L 173.55351 204.602962 
L 173.598631 204.602962 
L 173.703462 203.292669 
L 174.028886 203.292669 
L 174.028886 202.637523 
L 174.174823 202.637523 
L 174.232857 201.327231 
L 174.362732 201.327231 
L 174.434469 198.706647 
L 174.491647 198.706647 
L 174.562857 196.086062 
L 174.718503 196.086062 
L 174.746654 194.120624 
L 174.858804 194.120624 
L 174.858804 193.465478 
L 174.984116 193.465478 
L 175.080963 192.155186 
L 175.163549 192.155186 
L 175.163549 191.50004 
L 175.286698 191.50004 
L 175.395439 189.534601 
L 175.46306 189.534601 
L 175.530419 186.914017 
L 175.624287 186.914017 
L 175.730949 182.98314 
L 175.88973 182.98314 
L 175.981689 181.672848 
L 176.007874 181.672848 
L 176.112223 179.052264 
L 176.151193 179.052264 
L 176.254691 175.776533 
L 176.319066 175.776533 
L 176.319066 175.121387 
L 176.61217 175.121387 
L 176.675242 173.811095 
L 176.775685 173.811095 
L 176.800705 171.845657 
L 176.987223 171.845657 
L 177.061275 165.949342 
L 177.110469 165.949342 
L 177.220651 163.983903 
L 177.257224 163.983903 
L 177.366486 160.708173 
L 177.594925 160.708173 
L 177.654547 158.087589 
L 177.737676 158.087589 
L 177.832198 156.12215 
L 178.043018 156.12215 
L 178.054656 153.501566 
L 178.205245 153.501566 
L 178.297273 148.915543 
L 178.365977 148.915543 
L 178.411629 146.950105 
L 178.502578 146.950105 
L 178.593054 144.32952 
L 178.671837 144.32952 
L 178.671837 143.674374 
L 178.828345 143.674374 
L 178.939282 140.398644 
L 178.950337 140.398644 
L 179.060504 137.778059 
L 179.137208 137.778059 
L 179.137208 137.122913 
L 179.27877 137.122913 
L 179.386888 135.812621 
L 179.451438 135.812621 
L 179.505048 133.192037 
L 179.611776 133.192037 
L 179.6755 131.881745 
L 179.812776 131.881745 
L 179.875772 129.26116 
L 179.928095 129.26116 
L 179.959414 126.640576 
L 180.16678 126.640576 
L 180.207959 122.709699 
L 180.290026 122.709699 
L 180.381893 119.433969 
L 180.453011 119.433969 
L 180.493521 117.46853 
L 180.664644 117.46853 
L 180.774482 115.503092 
L 180.804318 115.503092 
L 180.853932 112.882508 
L 180.952739 112.882508 
L 181.041188 109.606777 
L 181.080356 109.606777 
L 181.168162 107.641339 
L 181.294218 107.641339 
L 181.361719 106.331047 
L 181.448123 106.331047 
L 181.543629 103.055316 
L 181.610173 103.055316 
L 181.704798 101.089878 
L 181.723661 101.089878 
L 181.780129 99.12444 
L 181.855137 99.12444 
L 181.911182 95.848709 
L 181.967047 95.848709 
L 182.041257 94.538417 
L 182.142783 94.538417 
L 182.225412 91.917832 
L 182.443861 91.917832 
L 182.53408 86.021518 
L 182.784238 86.021518 
L 182.784238 85.366371 
L 182.907984 85.366371 
L 183.013357 82.745787 
L 183.065806 82.745787 
L 183.100685 80.125203 
L 183.213561 80.125203 
L 183.299894 78.159764 
L 183.360074 78.159764 
L 183.360074 76.194326 
L 183.496853 76.194326 
L 183.496853 75.53918 
L 183.708446 75.53918 
L 183.733666 74.228888 
L 183.825827 74.228888 
L 183.917503 69.642865 
L 183.942422 69.642865 
L 184.041744 68.332573 
L 184.181489 68.332573 
L 184.181489 67.677427 
L 184.409244 67.677427 
L 184.505951 65.711988 
L 184.554103 65.711988 
L 184.554103 65.056842 
L 184.681864 65.056842 
L 184.777074 63.091404 
L 184.808696 63.091404 
L 184.871767 61.781112 
L 185.176017 61.781112 
L 185.245481 59.160527 
L 185.352989 59.160527 
L 185.352989 58.505381 
L 185.573597 58.505381 
L 185.573597 57.850235 
L 185.754083 57.850235 
L 185.754083 57.195089 
L 185.91049 57.195089 
L 185.91049 55.884797 
L 186.306355 55.884797 
L 186.378687 51.298774 
L 186.443531 51.298774 
L 186.472273 49.988482 
L 186.593901 49.988482 
L 186.70052 46.712752 
L 186.834642 46.712752 
L 186.925819 45.402459 
L 187.354222 45.402459 
L 187.435937 43.437021 
L 187.476651 43.437021 
L 187.557796 41.471583 
L 187.604956 41.471583 
L 187.604956 40.161291 
L 187.732324 40.161291 
L 187.838865 38.850998 
L 187.872026 38.850998 
L 187.924952 36.230414 
L 188.135066 36.230414 
L 188.135066 35.575268 
L 188.265114 35.575268 
L 188.265114 34.920122 
L 188.387767 34.920122 
L 188.471193 32.299537 
L 188.630516 32.299537 
L 188.630516 31.644391 
L 188.944859 31.644391 
L 188.944859 30.334099 
L 338.688 30.334099 
L 338.688 30.334099 
" style="fill:none;stroke:#ff00ff;stroke-linecap:square;stroke-width:1.5;"/>
   </g>
   <g id="line2d_35">
    <defs>
     <path d="M -0 8.485281 
L 5.091169 0 
L 0 -8.485281 
L -5.091169 -0 
z
" id="mb8644995ad" style="stroke:#ff00ff;stroke-linejoin:miter;stroke-width:1.5;"/>
    </defs>
    <g>
     <use style="fill-opacity:0;stroke:#ff00ff;stroke-linejoin:miter;stroke-width:1.5;" x="175.327556" xlink:href="#mb8644995ad" y="190.189747"/>
     <use style="fill-opacity:0;stroke:#ff00ff;stroke-linejoin:miter;stroke-width:1.5;" x="188.944859" xlink:href="#mb8644995ad" y="31.644391"/>
     <use style="fill-opacity:0;stroke:#ff00ff;stroke-linejoin:miter;stroke-width:1.5;" x="188.944859" xlink:href="#mb8644995ad" y="30.334099"/>
     <use style="fill-opacity:0;stroke:#ff00ff;stroke-linejoin:miter;stroke-width:1.5;" x="188.944859" xlink:href="#mb8644995ad" y="30.334099"/>
     <use style="fill-opacity:0;stroke:#ff00ff;stroke-linejoin:miter;stroke-width:1.5;" x="338.688" xlink:href="#mb8644995ad" y="30.334099"/>
    </g>
   </g>
   <g id="line2d_36">
    <path style="fill:none;stroke:#ff00ff;stroke-linecap:square;stroke-width:1.5;"/>
    <g/>
   </g>
   <g id="line2d_37">
    <defs>
     <path d="M 0 1.5 
C 0.397805 1.5 0.77937 1.341951 1.06066 1.06066 
C 1.341951 0.77937 1.5 0.397805 1.5 0 
C 1.5 -0.397805 1.341951 -0.77937 1.06066 -1.06066 
C 0.77937 -1.341951 0.397805 -1.5 0 -1.5 
C -0.397805 -1.5 -0.77937 -1.341951 -1.06066 -1.06066 
C -1.341951 -0.77937 -1.5 -0.397805 -1.5 0 
C -1.5 0.397805 -1.341951 0.77937 -1.06066 1.06066 
C -0.77937 1.341951 -0.397805 1.5 0 1.5 
z
" id="m9d86fd3a6c" style="stroke:#ff7500;"/>
    </defs>
    <g>
     <use style="fill:#ff7500;stroke:#ff7500;" x="205.956106" xlink:href="#m9d86fd3a6c" y="30.334099"/>
     <use style="fill:#ff7500;stroke:#ff7500;" x="205.956106" xlink:href="#m9d86fd3a6c" y="30.334099"/>
    </g>
   </g>
   <g id="line2d_38">
    <path d="M 127.590383 298.944 
L 127.590383 298.288854 
L 130.839837 298.288854 
L 130.839837 297.633708 
L 131.690703 297.633708 
L 131.690703 296.978562 
L 132.816208 296.978562 
L 132.816208 296.323416 
L 137.198951 296.323416 
L 137.198951 295.66827 
L 141.568232 295.66827 
L 141.568232 294.357977 
L 142.033307 294.357977 
L 142.033307 293.047685 
L 144.430703 293.047685 
L 144.430703 292.392539 
L 144.826168 292.392539 
L 144.826168 291.737393 
L 147.164632 291.737393 
L 147.164632 291.082247 
L 147.570215 291.082247 
L 147.570215 290.427101 
L 147.96658 290.427101 
L 147.96658 289.771955 
L 148.354135 289.771955 
L 148.354135 289.116809 
L 150.172372 289.116809 
L 150.172372 288.461662 
L 152.385571 288.461662 
L 152.385571 287.806516 
L 153.178403 287.806516 
L 153.178403 287.15137 
L 155.189341 287.15137 
L 155.275461 285.841078 
L 155.741666 285.841078 
L 155.741666 285.185932 
L 156.43851 285.185932 
L 156.43851 284.530786 
L 156.914157 284.530786 
L 156.953214 283.220494 
L 157.641697 283.220494 
L 157.641697 282.565348 
L 158.012759 282.565348 
L 158.012759 281.255055 
L 158.447857 281.255055 
L 158.447857 280.599909 
L 158.69674 280.599909 
L 158.69674 279.944763 
L 158.872364 279.944763 
L 158.872364 279.289617 
L 159.149734 279.289617 
L 159.149734 278.634471 
L 159.388866 278.634471 
L 159.388866 277.979325 
L 160.152267 277.979325 
L 160.249422 276.669033 
L 160.410154 276.669033 
L 160.410154 276.013887 
L 161.585586 276.013887 
L 161.64531 274.048448 
L 162.46065 274.048448 
L 162.489076 272.738156 
L 162.71483 272.738156 
L 162.71483 272.08301 
L 162.9377 272.08301 
L 162.9377 271.427864 
L 163.130401 271.427864 
L 163.239567 269.462426 
L 163.293895 269.462426 
L 163.348054 268.152133 
L 163.428979 268.152133 
L 163.536298 266.186695 
L 164.063205 266.186695 
L 164.11503 264.876403 
L 164.346358 264.876403 
L 164.346358 264.221257 
L 164.824867 264.221257 
L 164.824867 263.566111 
L 165.193576 263.566111 
L 165.193576 262.910965 
L 165.578458 262.910965 
L 165.649687 261.600672 
L 165.791279 261.600672 
L 165.791279 260.29038 
L 165.93173 260.29038 
L 165.93173 259.635234 
L 166.117256 259.635234 
L 166.117256 258.980088 
L 166.369174 258.980088 
L 166.369174 258.324942 
L 166.527611 258.324942 
L 166.572616 257.01465 
L 166.751482 257.01465 
L 166.840232 255.704357 
L 166.928532 255.704357 
L 167.016388 254.394065 
L 167.103803 254.394065 
L 167.103803 253.738919 
L 167.277329 253.738919 
L 167.320442 251.118335 
L 168.11997 251.118335 
L 168.202038 249.808043 
L 168.263336 249.808043 
L 168.263336 248.49775 
L 168.526499 248.49775 
L 168.526499 247.842604 
L 168.825295 247.842604 
L 168.923766 245.22202 
L 168.982583 245.22202 
L 169.021685 241.946289 
L 169.54115 241.946289 
L 169.54115 240.635997 
L 169.860457 240.635997 
L 169.860457 239.980851 
L 169.971772 239.980851 
L 169.971772 239.325705 
L 170.228776 239.325705 
L 170.319654 235.394828 
L 170.571619 235.394828 
L 170.678499 234.084536 
L 171.151517 234.084536 
L 171.151517 233.42939 
L 171.272086 233.42939 
L 171.272086 230.15366 
L 171.578344 230.15366 
L 171.578344 229.498513 
L 171.962007 229.498513 
L 172.044307 227.533075 
L 172.256486 227.533075 
L 172.256486 226.877929 
L 172.369676 226.877929 
L 172.466115 224.257345 
L 172.482136 224.257345 
L 172.482136 223.602199 
L 172.736497 223.602199 
L 172.846623 221.63676 
L 172.862299 221.63676 
L 172.862299 220.981614 
L 173.064812 220.981614 
L 173.064812 220.326468 
L 173.219006 220.326468 
L 173.326137 217.050738 
L 173.432614 217.050738 
L 173.432614 216.395591 
L 173.613646 216.395591 
L 173.643636 215.085299 
L 173.837325 215.085299 
L 173.940735 213.119861 
L 174.116595 213.119861 
L 174.116595 211.809569 
L 174.261802 211.809569 
L 174.333954 209.84413 
L 174.377103 209.84413 
L 174.377103 209.188984 
L 174.676192 209.188984 
L 174.746654 203.947816 
L 174.830834 203.947816 
L 174.928533 201.982377 
L 175.218389 201.982377 
L 175.286698 198.706647 
L 175.341154 198.706647 
L 175.408984 196.741208 
L 175.46306 196.741208 
L 175.55729 195.430916 
L 175.610908 195.430916 
L 175.637655 194.120624 
L 175.836964 194.120624 
L 175.942337 192.155186 
L 175.981689 192.155186 
L 175.981689 191.50004 
L 176.215951 191.50004 
L 176.267585 189.534601 
L 176.662646 189.534601 
L 176.662646 188.224309 
L 177.098184 188.224309 
L 177.098184 187.569163 
L 177.220651 187.569163 
L 177.220651 186.914017 
L 177.463036 186.914017 
L 177.463036 186.258871 
L 177.594925 186.258871 
L 177.678338 184.948579 
L 177.737676 184.948579 
L 177.832198 183.638286 
L 177.879268 183.638286 
L 177.879268 181.017702 
L 178.239812 181.017702 
L 178.239812 180.362556 
L 178.491235 180.362556 
L 178.491235 179.70741 
L 178.950337 179.70741 
L 178.950337 179.052264 
L 179.082454 179.052264 
L 179.082454 178.397118 
L 180.104829 178.397118 
L 180.104829 175.776533 
L 180.341123 175.776533 
L 180.341123 175.121387 
L 180.574258 175.121387 
L 180.574258 174.466241 
L 180.883633 174.466241 
L 180.883633 173.811095 
L 181.37134 173.811095 
L 181.37134 173.155949 
L 181.534102 173.155949 
L 181.619658 170.535364 
L 181.648084 170.535364 
L 181.723661 169.225072 
L 181.86449 169.225072 
L 181.86449 168.569926 
L 182.170369 168.569926 
L 182.207084 167.259634 
L 182.289409 167.259634 
L 182.307651 165.949342 
L 182.766488 165.949342 
L 182.810829 164.63905 
L 182.890359 164.63905 
L 182.890359 163.983903 
L 183.420047 163.983903 
L 183.488336 162.673611 
L 183.539378 162.673611 
L 183.564843 161.363319 
L 183.700032 161.363319 
L 183.79237 160.053027 
L 183.917503 160.053027 
L 184.000429 158.087589 
L 184.107646 158.087589 
L 184.206035 156.777296 
L 184.721598 156.777296 
L 184.792892 152.191274 
L 184.950287 152.191274 
L 184.950287 151.536128 
L 185.191477 151.536128 
L 185.191477 150.880981 
L 185.383584 150.880981 
L 185.398861 148.915543 
L 185.49784 148.915543 
L 185.505431 147.605251 
L 185.731624 147.605251 
L 185.731624 146.950105 
L 185.940124 146.950105 
L 185.940124 146.294959 
L 186.072855 146.294959 
L 186.14616 143.674374 
L 186.299105 143.674374 
L 186.299105 143.019228 
L 186.778295 143.019228 
L 186.883796 140.398644 
L 186.890807 140.398644 
L 186.925819 139.088352 
L 187.374687 139.088352 
L 187.374687 137.778059 
L 187.551048 137.778059 
L 187.604956 134.502329 
L 187.805641 134.502329 
L 187.87865 132.536891 
L 188.128539 132.536891 
L 188.187202 131.226598 
L 188.419901 131.226598 
L 188.528717 129.26116 
L 188.541475 129.26116 
L 188.630516 127.295722 
L 188.807245 127.295722 
L 188.863673 125.98543 
L 189.186172 125.98543 
L 189.186172 125.330284 
L 189.526937 125.330284 
L 189.526937 124.675137 
L 189.682914 124.675137 
L 189.766327 123.364845 
L 189.943737 123.364845 
L 189.943737 122.709699 
L 190.14846 122.709699 
L 190.14846 122.054553 
L 190.304763 122.054553 
L 190.408193 120.089115 
L 190.61889 120.089115 
L 190.630207 118.778823 
L 190.75421 118.778823 
L 190.804686 117.46853 
L 191.032799 117.46853 
L 191.110013 114.847946 
L 191.148492 114.847946 
L 191.24705 112.227362 
L 191.388436 112.227362 
L 191.404676 110.917069 
L 191.598388 110.917069 
L 191.705083 106.986193 
L 191.853368 106.986193 
L 191.932291 105.020754 
L 192.016084 105.020754 
L 192.099476 103.055316 
L 192.228982 103.055316 
L 192.228982 102.40017 
L 192.515634 102.40017 
L 192.515634 101.089878 
L 192.642098 101.089878 
L 192.697452 98.469293 
L 192.81762 98.469293 
L 192.81762 97.814147 
L 193.212302 97.814147 
L 193.299888 96.503855 
L 193.449707 96.503855 
L 193.473751 95.193563 
L 193.645898 95.193563 
L 193.721866 91.917832 
L 194.013154 91.917832 
L 194.09218 89.952394 
L 194.124617 89.952394 
L 194.124617 89.297248 
L 194.249167 89.297248 
L 194.3134 86.021518 
L 194.468417 86.021518 
L 194.522802 84.056079 
L 194.617568 84.056079 
L 194.653535 82.090641 
L 194.810022 82.090641 
L 194.814473 80.780349 
L 194.973939 80.780349 
L 195.044347 75.53918 
L 195.096968 75.53918 
L 195.17996 72.918596 
L 195.210437 72.918596 
L 195.240861 71.608303 
L 195.525133 71.608303 
L 195.563541 70.298011 
L 195.657072 70.298011 
L 195.733226 67.677427 
L 195.846837 67.677427 
L 195.913815 65.711988 
L 195.980536 65.711988 
L 196.080142 62.436258 
L 196.129733 62.436258 
L 196.195635 61.125966 
L 196.281755 61.125966 
L 196.310367 59.815674 
L 196.537592 59.815674 
L 196.537592 57.195089 
L 196.936131 57.195089 
L 196.936131 55.884797 
L 197.194263 55.884797 
L 197.194263 55.229651 
L 197.61996 55.229651 
L 197.61996 54.574505 
L 198.267036 54.574505 
L 198.267036 53.919359 
L 198.763689 53.919359 
L 198.763689 53.264213 
L 199.208584 53.264213 
L 199.208584 52.609066 
L 199.655901 52.609066 
L 199.672749 51.298774 
L 199.976571 51.298774 
L 199.976571 50.643628 
L 200.340141 50.643628 
L 200.340141 49.988482 
L 200.565583 49.988482 
L 200.635838 48.67819 
L 200.9172 48.67819 
L 200.945401 46.057605 
L 201.255716 46.057605 
L 201.347745 44.747313 
L 201.735031 44.747313 
L 201.803719 42.126729 
L 202.30609 42.126729 
L 202.30609 41.471583 
L 203.519698 41.471583 
L 203.519698 40.816437 
L 203.872667 40.816437 
L 203.949265 39.506144 
L 204.151029 39.506144 
L 204.151029 38.850998 
L 204.329869 38.850998 
L 204.329869 38.195852 
L 204.511997 38.195852 
L 204.511997 36.88556 
L 204.742682 36.88556 
L 204.742682 36.230414 
L 205.029909 36.230414 
L 205.029909 34.920122 
L 205.419397 34.920122 
L 205.508799 32.954683 
L 205.544912 32.954683 
L 205.583351 31.644391 
L 205.676693 31.644391 
L 205.676693 30.989245 
L 205.956106 30.989245 
L 205.956106 30.334099 
L 338.688 30.334099 
L 338.688 30.334099 
" style="fill:none;stroke:#ff7500;stroke-linecap:square;stroke-width:1.5;"/>
   </g>
   <g id="line2d_39">
    <defs>
     <path d="M 0 -6 
L -1.347084 -1.854102 
L -5.706339 -1.854102 
L -2.179628 0.708204 
L -3.526712 4.854102 
L -0 2.291796 
L 3.526712 4.854102 
L 2.179628 0.708204 
L 5.706339 -1.854102 
L 1.347084 -1.854102 
z
" id="mb2e6c5226a" style="stroke:#ff7500;stroke-linejoin:bevel;stroke-width:1.5;"/>
    </defs>
    <g>
     <use style="fill-opacity:0;stroke:#ff7500;stroke-linejoin:bevel;stroke-width:1.5;" x="176.662646" xlink:href="#mb2e6c5226a" y="189.534601"/>
     <use style="fill-opacity:0;stroke:#ff7500;stroke-linejoin:bevel;stroke-width:1.5;" x="205.956106" xlink:href="#mb2e6c5226a" y="30.989245"/>
     <use style="fill-opacity:0;stroke:#ff7500;stroke-linejoin:bevel;stroke-width:1.5;" x="205.956106" xlink:href="#mb2e6c5226a" y="30.334099"/>
     <use style="fill-opacity:0;stroke:#ff7500;stroke-linejoin:bevel;stroke-width:1.5;" x="205.956106" xlink:href="#mb2e6c5226a" y="30.334099"/>
     <use style="fill-opacity:0;stroke:#ff7500;stroke-linejoin:bevel;stroke-width:1.5;" x="338.688" xlink:href="#mb2e6c5226a" y="30.334099"/>
    </g>
   </g>
   <g id="line2d_40">
    <path style="fill:none;stroke:#ff7500;stroke-linecap:square;stroke-width:1.5;"/>
    <g/>
   </g>
   <g id="line2d_41">
    <defs>
     <path d="M 0 1.5 
C 0.397805 1.5 0.77937 1.341951 1.06066 1.06066 
C 1.341951 0.77937 1.5 0.397805 1.5 0 
C 1.5 -0.397805 1.341951 -0.77937 1.06066 -1.06066 
C 0.77937 -1.341951 0.397805 -1.5 0 -1.5 
C -0.397805 -1.5 -0.77937 -1.341951 -1.06066 -1.06066 
C -1.341951 -0.77937 -1.5 -0.397805 -1.5 0 
C -1.5 0.397805 -1.341951 0.77937 -1.06066 1.06066 
C -0.77937 1.341951 -0.397805 1.5 0 1.5 
z
" id="m5fb3202be6" style="stroke:#6495ed;"/>
    </defs>
    <g>
     <use style="fill:#6495ed;stroke:#6495ed;" x="204.009777" xlink:href="#m5fb3202be6" y="30.334099"/>
     <use style="fill:#6495ed;stroke:#6495ed;" x="204.009777" xlink:href="#m5fb3202be6" y="30.334099"/>
    </g>
   </g>
   <g id="line2d_42">
    <path d="M 133.428175 298.944 
L 133.428175 298.288854 
L 134.019394 298.288854 
L 134.019394 297.633708 
L 136.32991 297.633708 
L 136.32991 296.978562 
L 140.89556 296.978562 
L 140.89556 295.66827 
L 144.189046 295.66827 
L 144.189046 295.013123 
L 144.350522 295.013123 
L 144.350522 293.702831 
L 145.591172 293.702831 
L 145.591172 293.047685 
L 147.027314 293.047685 
L 147.096109 291.082247 
L 148.79566 291.082247 
L 148.79566 290.427101 
L 150.51433 290.427101 
L 150.51433 289.771955 
L 150.79426 289.771955 
L 150.79426 289.116809 
L 151.60806 289.116809 
L 151.60806 288.461662 
L 152.736878 288.461662 
L 152.736878 287.15137 
L 153.032466 287.15137 
L 153.081247 285.841078 
L 153.843742 285.841078 
L 153.843742 285.185932 
L 154.618949 285.185932 
L 154.707925 283.87564 
L 155.908152 283.87564 
L 155.908152 283.220494 
L 156.114049 283.220494 
L 156.114049 282.565348 
L 156.638275 282.565348 
L 156.638275 281.910201 
L 157.79107 281.910201 
L 157.79107 281.255055 
L 158.376091 281.255055 
L 158.376091 280.599909 
L 158.554957 280.599909 
L 158.554957 279.944763 
L 159.658204 279.944763 
L 159.658204 278.634471 
L 159.824452 278.634471 
L 159.824452 277.979325 
L 159.98913 277.979325 
L 159.98913 276.669033 
L 160.758635 276.669033 
L 160.758635 276.013887 
L 160.883648 276.013887 
L 160.883648 274.703594 
L 161.192316 274.703594 
L 161.192316 274.048448 
L 161.495615 274.048448 
L 161.525657 272.738156 
L 161.88218 272.738156 
L 161.88218 272.08301 
L 162.231559 272.08301 
L 162.231559 270.772718 
L 162.658665 270.772718 
L 162.658665 270.117572 
L 162.826621 270.117572 
L 162.826621 269.462426 
L 163.239567 269.462426 
L 163.239567 268.152133 
L 163.563025 268.152133 
L 163.563025 267.496987 
L 163.775378 267.496987 
L 163.854349 265.531549 
L 164.089137 265.531549 
L 164.140886 264.221257 
L 164.650098 264.221257 
L 164.650098 263.566111 
L 164.775111 263.566111 
L 164.775111 262.255818 
L 165.9084 262.255818 
L 165.9084 261.600672 
L 166.047915 261.600672 
L 166.117256 258.980088 
L 166.505065 258.980088 
L 166.505065 258.324942 
L 166.773712 258.324942 
L 166.795913 257.01465 
L 166.906499 257.01465 
L 166.906499 256.359504 
L 167.038282 256.359504 
L 167.038282 255.704357 
L 167.341959 255.704357 
L 167.341959 254.394065 
L 167.534424 254.394065 
L 167.534424 252.428627 
L 167.745812 252.428627 
L 167.745812 250.463189 
L 167.933895 250.463189 
L 167.933895 248.49775 
L 168.181557 248.49775 
L 168.283721 247.187458 
L 168.324419 247.187458 
L 168.324419 246.532312 
L 168.60668 246.532312 
L 168.626667 245.22202 
L 169.021685 245.22202 
L 169.021685 244.566874 
L 169.17722 244.566874 
L 169.17722 242.601435 
L 169.465162 242.601435 
L 169.465162 241.946289 
L 169.897641 241.946289 
L 169.971772 239.980851 
L 170.553741 239.980851 
L 170.553741 239.325705 
L 170.819995 239.325705 
L 170.819995 238.670559 
L 171.272086 238.670559 
L 171.272086 237.360267 
L 171.527673 237.360267 
L 171.527673 236.705121 
L 171.945501 236.705121 
L 171.945501 234.084536 
L 172.12622 234.084536 
L 172.175184 232.774244 
L 172.353551 232.774244 
L 172.369676 230.808806 
L 172.482136 230.808806 
L 172.482136 228.843367 
L 172.593876 228.843367 
L 172.593876 228.188221 
L 172.768032 228.188221 
L 172.799511 226.877929 
L 172.971637 226.877929 
L 173.00275 223.602199 
L 173.172891 223.602199 
L 173.172891 222.947052 
L 173.447772 222.947052 
L 173.447772 222.291906 
L 173.763084 222.291906 
L 173.763084 221.63676 
L 173.896491 221.63676 
L 173.896491 220.981614 
L 174.160284 220.981614 
L 174.160284 219.671322 
L 174.348349 219.671322 
L 174.362732 218.36103 
L 174.520166 218.36103 
L 174.520166 217.705884 
L 174.633778 217.705884 
L 174.633778 217.050738 
L 174.746654 217.050738 
L 174.788794 215.740445 
L 174.858804 215.740445 
L 174.858804 214.430153 
L 174.984116 214.430153 
L 175.039523 212.464715 
L 175.19099 212.464715 
L 175.19099 211.809569 
L 175.651014 211.809569 
L 175.6777 209.84413 
L 175.784037 209.84413 
L 175.81052 207.878692 
L 176.125223 207.878692 
L 176.125223 207.223546 
L 176.241787 207.223546 
L 176.30621 205.258108 
L 176.434347 205.258108 
L 176.536182 203.947816 
L 176.738086 203.947816 
L 176.738086 203.292669 
L 177.122746 203.292669 
L 177.232851 200.672085 
L 177.245042 200.672085 
L 177.245042 200.016939 
L 177.463036 200.016939 
L 177.559054 198.051501 
L 177.642639 198.051501 
L 177.642639 197.396355 
L 177.832198 197.396355 
L 177.832198 196.086062 
L 177.961335 196.086062 
L 178.066286 193.465478 
L 178.101129 193.465478 
L 178.101129 192.810332 
L 178.262819 192.810332 
L 178.308742 191.50004 
L 178.502578 191.50004 
L 178.502578 190.844894 
L 178.660604 190.844894 
L 178.705493 189.534601 
L 178.783772 189.534601 
L 178.872805 186.914017 
L 178.894992 186.914017 
L 178.92822 185.603725 
L 179.126271 185.603725 
L 179.224459 183.638286 
L 179.267922 183.638286 
L 179.311276 181.017702 
L 179.440696 181.017702 
L 179.440696 180.362556 
L 179.558493 180.362556 
L 179.601132 179.052264 
L 179.728427 179.052264 
L 179.791727 175.121387 
L 179.854799 175.121387 
L 179.886249 173.811095 
L 180.042657 173.811095 
L 180.125504 172.500803 
L 180.473278 172.500803 
L 180.493521 171.190511 
L 180.614487 171.190511 
L 180.724641 169.225072 
L 180.744595 169.225072 
L 180.794378 167.91478 
L 181.099906 167.91478 
L 181.109673 164.63905 
L 181.457697 164.63905 
L 181.457697 163.983903 
L 181.648084 163.983903 
L 181.648084 161.363319 
L 181.873839 161.363319 
L 181.901854 160.053027 
L 182.022734 160.053027 
L 182.078244 156.777296 
L 182.188736 156.777296 
L 182.26201 154.156712 
L 182.334978 154.156712 
L 182.334978 153.501566 
L 182.686389 153.501566 
L 182.686389 152.191274 
L 182.855057 152.191274 
L 182.855057 151.536128 
L 183.091972 151.536128 
L 183.118098 150.225835 
L 183.299894 150.225835 
L 183.299894 149.570689 
L 183.505367 149.570689 
L 183.505367 148.915543 
L 183.742064 148.915543 
L 183.742064 148.260397 
L 183.867557 148.260397 
L 183.975592 146.294959 
L 183.983875 146.294959 
L 184.058243 143.674374 
L 184.165107 143.674374 
L 184.263172 140.398644 
L 184.457665 140.398644 
L 184.457665 138.433206 
L 184.697769 138.433206 
L 184.777074 135.157475 
L 185.028456 135.157475 
L 185.051838 133.847183 
L 185.459838 133.847183 
L 185.513018 130.571452 
L 185.656552 130.571452 
L 185.656552 129.916306 
L 185.91049 129.916306 
L 185.93272 127.295722 
L 186.131524 127.295722 
L 186.131524 125.98543 
L 186.371467 125.98543 
L 186.378687 124.675137 
L 186.672152 124.675137 
L 186.750054 119.433969 
L 186.806491 119.433969 
L 186.806491 118.778823 
L 187.037386 118.778823 
L 187.065167 117.46853 
L 187.230927 117.46853 
L 187.230927 116.813384 
L 187.361046 116.813384 
L 187.361046 116.158238 
L 187.510507 116.158238 
L 187.611683 114.847946 
L 187.672108 114.847946 
L 187.75235 113.537654 
L 187.951355 113.537654 
L 187.951355 112.882508 
L 188.141592 112.882508 
L 188.219708 110.917069 
L 188.342679 110.917069 
L 188.342679 110.261923 
L 188.775817 110.261923 
L 188.775817 109.606777 
L 188.907435 109.606777 
L 188.907435 108.951631 
L 189.056649 108.951631 
L 189.087576 106.986193 
L 189.210735 106.986193 
L 189.259756 105.020754 
L 189.442368 105.020754 
L 189.442368 104.365608 
L 189.635069 104.365608 
L 189.730627 99.779586 
L 189.926077 99.779586 
L 190.014199 98.469293 
L 190.218101 98.469293 
L 190.310526 96.503855 
L 190.333555 96.503855 
L 190.390997 93.883271 
L 190.697955 93.883271 
L 190.759826 91.917832 
L 190.843844 91.917832 
L 190.843844 91.262686 
L 191.016209 91.262686 
L 191.093496 87.33181 
L 191.148492 87.33181 
L 191.148492 86.676664 
L 191.296121 86.676664 
L 191.377601 82.745787 
L 191.410086 82.745787 
L 191.410086 82.090641 
L 191.651817 82.090641 
L 191.667814 80.780349 
L 191.800554 80.780349 
L 191.837541 78.81491 
L 191.948033 78.81491 
L 191.948033 78.159764 
L 192.130645 78.159764 
L 192.130645 77.504618 
L 192.35241 77.504618 
L 192.398471 72.263449 
L 192.480059 72.263449 
L 192.556202 70.953157 
L 192.591622 70.953157 
L 192.591622 70.298011 
L 192.857493 70.298011 
L 192.857493 69.642865 
L 192.971621 69.642865 
L 192.971621 68.987719 
L 193.545686 68.987719 
L 193.550471 66.367135 
L 193.702905 66.367135 
L 193.702905 65.711988 
L 193.877511 65.711988 
L 193.877511 64.401696 
L 193.99917 64.401696 
L 193.99917 63.74655 
L 194.340856 63.74655 
L 194.340856 61.125966 
L 195.223482 61.125966 
L 195.223482 60.47082 
L 196.294023 60.47082 
L 196.294023 59.815674 
L 196.96369 59.815674 
L 196.96369 59.160527 
L 197.627536 59.160527 
L 197.627536 58.505381 
L 198.131435 58.505381 
L 198.131435 57.850235 
L 199.059218 57.850235 
L 199.059218 57.195089 
L 199.34639 57.195089 
L 199.387521 55.884797 
L 200.095318 55.884797 
L 200.105177 54.574505 
L 200.797623 54.574505 
L 200.904651 53.264213 
L 200.920335 53.264213 
L 200.920335 52.609066 
L 201.141542 52.609066 
L 201.141542 51.95392 
L 201.304859 51.95392 
L 201.304859 51.298774 
L 201.940289 51.298774 
L 201.940289 50.643628 
L 202.081665 50.643628 
L 202.081665 49.333336 
L 202.204437 49.333336 
L 202.204437 48.023044 
L 202.38987 48.023044 
L 202.38987 47.367898 
L 202.501909 47.367898 
L 202.593304 42.781875 
L 202.77467 42.781875 
L 202.845007 40.816437 
L 203.184238 40.816437 
L 203.184238 40.161291 
L 203.332309 40.161291 
L 203.332309 39.506144 
L 203.503483 39.506144 
L 203.503483 38.195852 
L 203.630099 38.195852 
L 203.643515 34.264976 
L 204.009777 34.264976 
L 204.009777 30.334099 
L 338.688 30.334099 
L 338.688 30.334099 
" style="fill:none;stroke:#6495ed;stroke-linecap:square;stroke-width:1.5;"/>
   </g>
   <g id="line2d_43">
    <defs>
     <path d="M -0 6 
L 6 -6 
L -6 -6 
z
" id="me700c2611f" style="stroke:#6495ed;stroke-linejoin:miter;stroke-width:1.5;"/>
    </defs>
    <g>
     <use style="fill-opacity:0;stroke:#6495ed;stroke-linejoin:miter;stroke-width:1.5;" x="177.122746" xlink:href="#me700c2611f" y="203.292669"/>
     <use style="fill-opacity:0;stroke:#6495ed;stroke-linejoin:miter;stroke-width:1.5;" x="192.591622" xlink:href="#me700c2611f" y="70.298011"/>
     <use style="fill-opacity:0;stroke:#6495ed;stroke-linejoin:miter;stroke-width:1.5;" x="204.009777" xlink:href="#me700c2611f" y="34.264976"/>
     <use style="fill-opacity:0;stroke:#6495ed;stroke-linejoin:miter;stroke-width:1.5;" x="204.009777" xlink:href="#me700c2611f" y="30.334099"/>
     <use style="fill-opacity:0;stroke:#6495ed;stroke-linejoin:miter;stroke-width:1.5;" x="338.688" xlink:href="#me700c2611f" y="30.334099"/>
    </g>
   </g>
   <g id="line2d_44">
    <path style="fill:none;stroke:#6495ed;stroke-linecap:square;stroke-width:1.5;"/>
    <g/>
   </g>
   <g id="line2d_45">
    <path d="M 338.688 30.334099 
L 369.60768 293.571802 
" style="fill:none;stroke:#ff7500;stroke-linecap:square;stroke-width:1.5;"/>
    <g>
     <use style="fill-opacity:0;stroke:#ff7500;stroke-linejoin:bevel;stroke-width:1.5;" x="338.688" xlink:href="#mb2e6c5226a" y="30.334099"/>
     <use style="fill-opacity:0;stroke:#ff7500;stroke-linejoin:bevel;stroke-width:1.5;" x="369.60768" xlink:href="#mb2e6c5226a" y="293.571802"/>
    </g>
   </g>
   <g id="line2d_46">
    <path d="M 338.688 30.334099 
L 369.60768 207.616634 
" style="fill:none;stroke:#6495ed;stroke-linecap:square;stroke-width:1.5;"/>
    <g>
     <use style="fill-opacity:0;stroke:#6495ed;stroke-linejoin:miter;stroke-width:1.5;" x="338.688" xlink:href="#me700c2611f" y="30.334099"/>
     <use style="fill-opacity:0;stroke:#6495ed;stroke-linejoin:miter;stroke-width:1.5;" x="369.60768" xlink:href="#me700c2611f" y="207.616634"/>
    </g>
   </g>
   <g id="line2d_47">
    <path d="M 338.688 30.334099 
L 369.60768 121.661465 
" style="fill:none;stroke:#000080;stroke-linecap:square;stroke-width:1.5;"/>
    <g>
     <use style="fill-opacity:0;stroke:#000080;stroke-width:1.5;" x="338.688" xlink:href="#me89b729e82" y="30.334099"/>
     <use style="fill-opacity:0;stroke:#000080;stroke-width:1.5;" x="369.60768" xlink:href="#me89b729e82" y="121.661465"/>
    </g>
   </g>
   <g id="line2d_48">
    <path d="M 338.688 30.334099 
L 369.60768 35.706297 
" style="fill:none;stroke:#ff00ff;stroke-linecap:square;stroke-width:1.5;"/>
    <g>
     <use style="fill-opacity:0;stroke:#ff00ff;stroke-linejoin:miter;stroke-width:1.5;" x="338.688" xlink:href="#mb8644995ad" y="30.334099"/>
     <use style="fill-opacity:0;stroke:#ff00ff;stroke-linejoin:miter;stroke-width:1.5;" x="369.60768" xlink:href="#mb8644995ad" y="35.706297"/>
    </g>
   </g>
   <g id="line2d_49">
    <path d="M 338.688 298.944 
L 338.688 30.334099 
" style="fill:none;stroke:#000000;stroke-linecap:square;stroke-width:1.5;"/>
   </g>
   <g id="patch_3">
    <path d="M 57.6 298.944 
L 57.6 27.648 
" style="fill:none;stroke:#000000;stroke-linecap:square;stroke-linejoin:miter;stroke-width:0.8;"/>
   </g>
   <g id="patch_4">
    <path d="M 338.688 298.944 
L 338.688 27.648 
" style="fill:none;stroke:#000000;stroke-linecap:square;stroke-linejoin:miter;stroke-width:0.8;"/>
   </g>
   <g id="patch_5">
    <path d="M 57.6 298.944 
L 338.688 298.944 
" style="fill:none;stroke:#000000;stroke-linecap:square;stroke-linejoin:miter;stroke-width:0.8;"/>
   </g>
   <g id="patch_6">
    <path d="M 57.6 27.648 
L 338.688 27.648 
" style="fill:none;stroke:#000000;stroke-linecap:square;stroke-linejoin:miter;stroke-width:0.8;"/>
   </g>
   <g id="text_13">
    <!-- alN5 -->
    <g transform="translate(375.22944 298.262739)scale(0.17 -0.17)">
     <defs>
      <path d="M 9.8125 72.90625 
L 23.09375 72.90625 
L 55.421875 11.921875 
L 55.421875 72.90625 
L 64.984375 72.90625 
L 64.984375 0 
L 51.703125 0 
L 19.390625 60.984375 
L 19.390625 0 
L 9.8125 0 
z
" id="DejaVuSans-78"/>
      <path d="M 10.796875 72.90625 
L 49.515625 72.90625 
L 49.515625 64.59375 
L 19.828125 64.59375 
L 19.828125 46.734375 
Q 21.96875 47.46875 24.109375 47.828125 
Q 26.265625 48.1875 28.421875 48.1875 
Q 40.625 48.1875 47.75 41.5 
Q 54.890625 34.8125 54.890625 23.390625 
Q 54.890625 11.625 47.5625 5.09375 
Q 40.234375 -1.421875 26.90625 -1.421875 
Q 22.3125 -1.421875 17.546875 -0.640625 
Q 12.796875 0.140625 7.71875 1.703125 
L 7.71875 11.625 
Q 12.109375 9.234375 16.796875 8.0625 
Q 21.484375 6.890625 26.703125 6.890625 
Q 35.15625 6.890625 40.078125 11.328125 
Q 45.015625 15.765625 45.015625 23.390625 
Q 45.015625 31 40.078125 35.4375 
Q 35.15625 39.890625 26.703125 39.890625 
Q 22.75 39.890625 18.8125 39.015625 
Q 14.890625 38.140625 10.796875 36.28125 
z
" id="DejaVuSans-53"/>
     </defs>
     <use xlink:href="#DejaVuSans-97"/>
     <use x="61.279297" xlink:href="#DejaVuSans-108"/>
     <use x="89.0625" xlink:href="#DejaVuSans-78"/>
     <use x="163.867188" xlink:href="#DejaVuSans-53"/>
    </g>
   </g>
   <g id="text_14">
    <!-- alO5 -->
    <g transform="translate(375.22944 212.307571)scale(0.17 -0.17)">
     <defs>
      <path d="M 39.40625 66.21875 
Q 28.65625 66.21875 22.328125 58.203125 
Q 16.015625 50.203125 16.015625 36.375 
Q 16.015625 22.609375 22.328125 14.59375 
Q 28.65625 6.59375 39.40625 6.59375 
Q 50.140625 6.59375 56.421875 14.59375 
Q 62.703125 22.609375 62.703125 36.375 
Q 62.703125 50.203125 56.421875 58.203125 
Q 50.140625 66.21875 39.40625 66.21875 
z
M 39.40625 74.21875 
Q 54.734375 74.21875 63.90625 63.9375 
Q 73.09375 53.65625 73.09375 36.375 
Q 73.09375 19.140625 63.90625 8.859375 
Q 54.734375 -1.421875 39.40625 -1.421875 
Q 24.03125 -1.421875 14.8125 8.828125 
Q 5.609375 19.09375 5.609375 36.375 
Q 5.609375 53.65625 14.8125 63.9375 
Q 24.03125 74.21875 39.40625 74.21875 
z
" id="DejaVuSans-79"/>
     </defs>
     <use xlink:href="#DejaVuSans-97"/>
     <use x="61.279297" xlink:href="#DejaVuSans-108"/>
     <use x="89.0625" xlink:href="#DejaVuSans-79"/>
     <use x="167.773438" xlink:href="#DejaVuSans-53"/>
    </g>
   </g>
   <g id="text_15">
    <!-- al01 -->
    <g transform="translate(375.22944 126.352403)scale(0.17 -0.17)">
     <use xlink:href="#DejaVuSans-97"/>
     <use x="61.279297" xlink:href="#DejaVuSans-108"/>
     <use x="89.0625" xlink:href="#DejaVuSans-48"/>
     <use x="152.685547" xlink:href="#DejaVuSans-49"/>
    </g>
   </g>
   <g id="text_16">
    <!-- alN1 -->
    <g transform="translate(375.22944 40.397235)scale(0.17 -0.17)">
     <use xlink:href="#DejaVuSans-97"/>
     <use x="61.279297" xlink:href="#DejaVuSans-108"/>
     <use x="89.0625" xlink:href="#DejaVuSans-78"/>
     <use x="163.867188" xlink:href="#DejaVuSans-49"/>
    </g>
   </g>
   <g id="text_17">
    <!-- bbob-constrained f12, 3-D -->
    <g transform="translate(60.41088 38.111366)scale(0.102 -0.102)">
     <defs>
      <path d="M 48.6875 27.296875 
Q 48.6875 37.203125 44.609375 42.84375 
Q 40.53125 48.484375 33.40625 48.484375 
Q 26.265625 48.484375 22.1875 42.84375 
Q 18.109375 37.203125 18.109375 27.296875 
Q 18.109375 17.390625 22.1875 11.75 
Q 26.265625 6.109375 33.40625 6.109375 
Q 40.53125 6.109375 44.609375 11.75 
Q 48.6875 17.390625 48.6875 27.296875 
z
M 18.109375 46.390625 
Q 20.953125 51.265625 25.265625 53.625 
Q 29.59375 56 35.59375 56 
Q 45.5625 56 51.78125 48.09375 
Q 58.015625 40.1875 58.015625 27.296875 
Q 58.015625 14.40625 51.78125 6.484375 
Q 45.5625 -1.421875 35.59375 -1.421875 
Q 29.59375 -1.421875 25.265625 0.953125 
Q 20.953125 3.328125 18.109375 8.203125 
L 18.109375 0 
L 9.078125 0 
L 9.078125 75.984375 
L 18.109375 75.984375 
z
" id="DejaVuSans-98"/>
      <path d="M 40.578125 39.3125 
Q 47.65625 37.796875 51.625 33 
Q 55.609375 28.21875 55.609375 21.1875 
Q 55.609375 10.40625 48.1875 4.484375 
Q 40.765625 -1.421875 27.09375 -1.421875 
Q 22.515625 -1.421875 17.65625 -0.515625 
Q 12.796875 0.390625 7.625 2.203125 
L 7.625 11.71875 
Q 11.71875 9.328125 16.59375 8.109375 
Q 21.484375 6.890625 26.8125 6.890625 
Q 36.078125 6.890625 40.9375 10.546875 
Q 45.796875 14.203125 45.796875 21.1875 
Q 45.796875 27.640625 41.28125 31.265625 
Q 36.765625 34.90625 28.71875 34.90625 
L 20.21875 34.90625 
L 20.21875 43.015625 
L 29.109375 43.015625 
Q 36.375 43.015625 40.234375 45.921875 
Q 44.09375 48.828125 44.09375 54.296875 
Q 44.09375 59.90625 40.109375 62.90625 
Q 36.140625 65.921875 28.71875 65.921875 
Q 24.65625 65.921875 20.015625 65.03125 
Q 15.375 64.15625 9.8125 62.3125 
L 9.8125 71.09375 
Q 15.4375 72.65625 20.34375 73.4375 
Q 25.25 74.21875 29.59375 74.21875 
Q 40.828125 74.21875 47.359375 69.109375 
Q 53.90625 64.015625 53.90625 55.328125 
Q 53.90625 49.265625 50.4375 45.09375 
Q 46.96875 40.921875 40.578125 39.3125 
z
" id="DejaVuSans-51"/>
      <path d="M 19.671875 64.796875 
L 19.671875 8.109375 
L 31.59375 8.109375 
Q 46.6875 8.109375 53.6875 14.9375 
Q 60.6875 21.78125 60.6875 36.53125 
Q 60.6875 51.171875 53.6875 57.984375 
Q 46.6875 64.796875 31.59375 64.796875 
z
M 9.8125 72.90625 
L 30.078125 72.90625 
Q 51.265625 72.90625 61.171875 64.09375 
Q 71.09375 55.28125 71.09375 36.53125 
Q 71.09375 17.671875 61.125 8.828125 
Q 51.171875 0 30.078125 0 
L 9.8125 0 
z
" id="DejaVuSans-68"/>
     </defs>
     <use xlink:href="#DejaVuSans-98"/>
     <use x="63.476562" xlink:href="#DejaVuSans-98"/>
     <use x="126.953125" xlink:href="#DejaVuSans-111"/>
     <use x="188.134766" xlink:href="#DejaVuSans-98"/>
     <use x="251.611328" xlink:href="#DejaVuSans-45"/>
     <use x="287.695312" xlink:href="#DejaVuSans-99"/>
     <use x="342.675781" xlink:href="#DejaVuSans-111"/>
     <use x="403.857422" xlink:href="#DejaVuSans-110"/>
     <use x="467.236328" xlink:href="#DejaVuSans-115"/>
     <use x="519.335938" xlink:href="#DejaVuSans-116"/>
     <use x="558.544922" xlink:href="#DejaVuSans-114"/>
     <use x="599.658203" xlink:href="#DejaVuSans-97"/>
     <use x="660.9375" xlink:href="#DejaVuSans-105"/>
     <use x="688.720703" xlink:href="#DejaVuSans-110"/>
     <use x="752.099609" xlink:href="#DejaVuSans-101"/>
     <use x="813.623047" xlink:href="#DejaVuSans-100"/>
     <use x="877.099609" xlink:href="#DejaVuSans-32"/>
     <use x="908.886719" xlink:href="#DejaVuSans-102"/>
     <use x="944.091797" xlink:href="#DejaVuSans-49"/>
     <use x="1007.714844" xlink:href="#DejaVuSans-50"/>
     <use x="1071.337891" xlink:href="#DejaVuSans-44"/>
     <use x="1103.125" xlink:href="#DejaVuSans-32"/>
     <use x="1134.912109" xlink:href="#DejaVuSans-51"/>
     <use x="1198.535156" xlink:href="#DejaVuSans-45"/>
     <use x="1234.619141" xlink:href="#DejaVuSans-68"/>
    </g>
    <!-- 41 targets: 100..1e-06 -->
    <g transform="translate(60.41088 49.533135)scale(0.102 -0.102)">
     <defs>
      <path d="M 11.71875 12.40625 
L 22.015625 12.40625 
L 22.015625 0 
L 11.71875 0 
z
M 11.71875 51.703125 
L 22.015625 51.703125 
L 22.015625 39.3125 
L 11.71875 39.3125 
z
" id="DejaVuSans-58"/>
     </defs>
     <use xlink:href="#DejaVuSans-52"/>
     <use x="63.623047" xlink:href="#DejaVuSans-49"/>
     <use x="127.246094" xlink:href="#DejaVuSans-32"/>
     <use x="159.033203" xlink:href="#DejaVuSans-116"/>
     <use x="198.242188" xlink:href="#DejaVuSans-97"/>
     <use x="259.521484" xlink:href="#DejaVuSans-114"/>
     <use x="298.884766" xlink:href="#DejaVuSans-103"/>
     <use x="362.361328" xlink:href="#DejaVuSans-101"/>
     <use x="423.884766" xlink:href="#DejaVuSans-116"/>
     <use x="463.09375" xlink:href="#DejaVuSans-115"/>
     <use x="515.193359" xlink:href="#DejaVuSans-58"/>
     <use x="548.884766" xlink:href="#DejaVuSans-32"/>
     <use x="580.671875" xlink:href="#DejaVuSans-49"/>
     <use x="644.294922" xlink:href="#DejaVuSans-48"/>
     <use x="707.917969" xlink:href="#DejaVuSans-48"/>
     <use x="771.541016" xlink:href="#DejaVuSans-46"/>
     <use x="803.328125" xlink:href="#DejaVuSans-46"/>
     <use x="835.115234" xlink:href="#DejaVuSans-49"/>
     <use x="898.738281" xlink:href="#DejaVuSans-101"/>
     <use x="960.261719" xlink:href="#DejaVuSans-45"/>
     <use x="996.345703" xlink:href="#DejaVuSans-48"/>
     <use x="1059.96875" xlink:href="#DejaVuSans-54"/>
    </g>
    <!-- 15 instances -->
    <g transform="translate(60.41088 60.954904)scale(0.102 -0.102)">
     <use xlink:href="#DejaVuSans-49"/>
     <use x="63.623047" xlink:href="#DejaVuSans-53"/>
     <use x="127.246094" xlink:href="#DejaVuSans-32"/>
     <use x="159.033203" xlink:href="#DejaVuSans-105"/>
     <use x="186.816406" xlink:href="#DejaVuSans-110"/>
     <use x="250.195312" xlink:href="#DejaVuSans-115"/>
     <use x="302.294922" xlink:href="#DejaVuSans-116"/>
     <use x="341.503906" xlink:href="#DejaVuSans-97"/>
     <use x="402.783203" xlink:href="#DejaVuSans-110"/>
     <use x="466.162109" xlink:href="#DejaVuSans-99"/>
     <use x="521.142578" xlink:href="#DejaVuSans-101"/>
     <use x="582.666016" xlink:href="#DejaVuSans-115"/>
    </g>
   </g>
   <g id="text_18">
    <!-- v5z33 -->
    <g style="fill:#808080;" transform="translate(183.016656 294.151352)scale(0.1 -0.1)">
     <defs>
      <path d="M 5.515625 54.6875 
L 48.1875 54.6875 
L 48.1875 46.484375 
L 14.40625 7.171875 
L 48.1875 7.171875 
L 48.1875 0 
L 4.296875 0 
L 4.296875 8.203125 
L 38.09375 47.515625 
L 5.515625 47.515625 
z
" id="DejaVuSans-122"/>
     </defs>
     <use xlink:href="#DejaVuSans-118"/>
     <use x="59.179688" xlink:href="#DejaVuSans-53"/>
     <use x="122.802734" xlink:href="#DejaVuSans-122"/>
     <use x="175.292969" xlink:href="#DejaVuSans-51"/>
     <use x="238.916016" xlink:href="#DejaVuSans-51"/>
    </g>
   </g>
   <g id="text_19">
    <!-- 12 Sep. Ellipsoid, 3n+6 constraints -->
    <g transform="translate(23.033062 21.648)scale(0.2 -0.2)">
     <defs>
      <path d="M 53.515625 70.515625 
L 53.515625 60.890625 
Q 47.90625 63.578125 42.921875 64.890625 
Q 37.9375 66.21875 33.296875 66.21875 
Q 25.25 66.21875 20.875 63.09375 
Q 16.5 59.96875 16.5 54.203125 
Q 16.5 49.359375 19.40625 46.890625 
Q 22.3125 44.4375 30.421875 42.921875 
L 36.375 41.703125 
Q 47.40625 39.59375 52.65625 34.296875 
Q 57.90625 29 57.90625 20.125 
Q 57.90625 9.515625 50.796875 4.046875 
Q 43.703125 -1.421875 29.984375 -1.421875 
Q 24.8125 -1.421875 18.96875 -0.25 
Q 13.140625 0.921875 6.890625 3.21875 
L 6.890625 13.375 
Q 12.890625 10.015625 18.65625 8.296875 
Q 24.421875 6.59375 29.984375 6.59375 
Q 38.421875 6.59375 43.015625 9.90625 
Q 47.609375 13.234375 47.609375 19.390625 
Q 47.609375 24.75 44.3125 27.78125 
Q 41.015625 30.8125 33.5 32.328125 
L 27.484375 33.5 
Q 16.453125 35.6875 11.515625 40.375 
Q 6.59375 45.0625 6.59375 53.421875 
Q 6.59375 63.09375 13.40625 68.65625 
Q 20.21875 74.21875 32.171875 74.21875 
Q 37.3125 74.21875 42.625 73.28125 
Q 47.953125 72.359375 53.515625 70.515625 
z
" id="DejaVuSans-83"/>
      <path d="M 9.8125 72.90625 
L 55.90625 72.90625 
L 55.90625 64.59375 
L 19.671875 64.59375 
L 19.671875 43.015625 
L 54.390625 43.015625 
L 54.390625 34.71875 
L 19.671875 34.71875 
L 19.671875 8.296875 
L 56.78125 8.296875 
L 56.78125 0 
L 9.8125 0 
z
" id="DejaVuSans-69"/>
     </defs>
     <use xlink:href="#DejaVuSans-49"/>
     <use x="63.623047" xlink:href="#DejaVuSans-50"/>
     <use x="127.246094" xlink:href="#DejaVuSans-32"/>
     <use x="159.033203" xlink:href="#DejaVuSans-83"/>
     <use x="222.509766" xlink:href="#DejaVuSans-101"/>
     <use x="284.033203" xlink:href="#DejaVuSans-112"/>
     <use x="347.509766" xlink:href="#DejaVuSans-46"/>
     <use x="379.296875" xlink:href="#DejaVuSans-32"/>
     <use x="411.083984" xlink:href="#DejaVuSans-69"/>
     <use x="474.267578" xlink:href="#DejaVuSans-108"/>
     <use x="502.050781" xlink:href="#DejaVuSans-108"/>
     <use x="529.833984" xlink:href="#DejaVuSans-105"/>
     <use x="557.617188" xlink:href="#DejaVuSans-112"/>
     <use x="621.09375" xlink:href="#DejaVuSans-115"/>
     <use x="673.193359" xlink:href="#DejaVuSans-111"/>
     <use x="734.375" xlink:href="#DejaVuSans-105"/>
     <use x="762.158203" xlink:href="#DejaVuSans-100"/>
     <use x="825.634766" xlink:href="#DejaVuSans-44"/>
     <use x="857.421875" xlink:href="#DejaVuSans-32"/>
     <use x="889.208984" xlink:href="#DejaVuSans-51"/>
     <use x="952.832031" xlink:href="#DejaVuSans-110"/>
     <use x="1016.210938" xlink:href="#DejaVuSans-43"/>
     <use x="1100" xlink:href="#DejaVuSans-54"/>
     <use x="1163.623047" xlink:href="#DejaVuSans-32"/>
     <use x="1195.410156" xlink:href="#DejaVuSans-99"/>
     <use x="1250.390625" xlink:href="#DejaVuSans-111"/>
     <use x="1311.572266" xlink:href="#DejaVuSans-110"/>
     <use x="1374.951172" xlink:href="#DejaVuSans-115"/>
     <use x="1427.050781" xlink:href="#DejaVuSans-116"/>
     <use x="1466.259766" xlink:href="#DejaVuSans-114"/>
     <use x="1507.373047" xlink:href="#DejaVuSans-97"/>
     <use x="1568.652344" xlink:href="#DejaVuSans-105"/>
     <use x="1596.435547" xlink:href="#DejaVuSans-110"/>
     <use x="1659.814453" xlink:href="#DejaVuSans-116"/>
     <use x="1699.023438" xlink:href="#DejaVuSans-115"/>
    </g>
   </g>
  </g>
 </g>
 <defs>
  <clipPath id="p25c214b980">
   <rect height="271.296" width="281.088" x="57.6" y="27.648"/>
  </clipPath>
 </defs>
</svg>
