<?xml version="1.0" encoding="utf-8" standalone="no"?>
<!DOCTYPE svg PUBLIC "-//W3C//DTD SVG 1.1//EN"
  "http://www.w3.org/Graphics/SVG/1.1/DTD/svg11.dtd">
<!-- Created with matplotlib (https://matplotlib.org/) -->
<svg height="345.6pt" version="1.1" viewBox="0 0 460.8 345.6" width="460.8pt" xmlns="http://www.w3.org/2000/svg" xmlns:xlink="http://www.w3.org/1999/xlink">
 <metadata>
  <rdf:RDF xmlns:cc="http://creativecommons.org/ns#" xmlns:dc="http://purl.org/dc/elements/1.1/" xmlns:rdf="http://www.w3.org/1999/02/22-rdf-syntax-ns#">
   <cc:Work>
    <dc:type rdf:resource="http://purl.org/dc/dcmitype/StillImage"/>
    <dc:date>2021-03-16T10:43:32.701531</dc:date>
    <dc:format>image/svg+xml</dc:format>
    <dc:creator>
     <cc:Agent>
      <dc:title>Matplotlib v3.3.3, https://matplotlib.org/</dc:title>
     </cc:Agent>
    </dc:creator>
   </cc:Work>
  </rdf:RDF>
 </metadata>
 <defs>
  <style type="text/css">*{stroke-linecap:butt;stroke-linejoin:round;}</style>
 </defs>
 <g id="figure_1">
  <g id="patch_1">
   <path d="M 0 345.6 
L 460.8 345.6 
L 460.8 0 
L 0 0 
z
" style="fill:#ffffff;"/>
  </g>
  <g id="axes_1">
   <g id="patch_2">
    <path d="M 57.6 298.944 
L 338.688 298.944 
L 338.688 27.648 
L 57.6 27.648 
z
" style="fill:#ffffff;"/>
   </g>
   <g id="matplotlib.axis_1">
    <g id="xtick_1">
     <g id="line2d_1">
      <path clip-path="url(#p5aa1d47103)" d="M 57.6 298.944 
L 57.6 27.648 
" style="fill:none;stroke:#b0b0b0;stroke-linecap:square;stroke-width:0.8;"/>
     </g>
     <g id="line2d_2">
      <defs>
       <path d="M 0 0 
L 0 3.5 
" id="mec8c61e08f" style="stroke:#000000;stroke-width:0.8;"/>
      </defs>
      <g>
       <use style="stroke:#000000;stroke-width:0.8;" x="57.6" xlink:href="#mec8c61e08f" y="298.944"/>
      </g>
     </g>
     <g id="text_1">
      <!-- 0 -->
      <g transform="translate(51.2375 321.140875)scale(0.2 -0.2)">
       <defs>
        <path d="M 31.78125 66.40625 
Q 24.171875 66.40625 20.328125 58.90625 
Q 16.5 51.421875 16.5 36.375 
Q 16.5 21.390625 20.328125 13.890625 
Q 24.171875 6.390625 31.78125 6.390625 
Q 39.453125 6.390625 43.28125 13.890625 
Q 47.125 21.390625 47.125 36.375 
Q 47.125 51.421875 43.28125 58.90625 
Q 39.453125 66.40625 31.78125 66.40625 
z
M 31.78125 74.21875 
Q 44.046875 74.21875 50.515625 64.515625 
Q 56.984375 54.828125 56.984375 36.375 
Q 56.984375 17.96875 50.515625 8.265625 
Q 44.046875 -1.421875 31.78125 -1.421875 
Q 19.53125 -1.421875 13.0625 8.265625 
Q 6.59375 17.96875 6.59375 36.375 
Q 6.59375 54.828125 13.0625 64.515625 
Q 19.53125 74.21875 31.78125 74.21875 
z
" id="DejaVuSans-48"/>
       </defs>
       <use xlink:href="#DejaVuSans-48"/>
      </g>
     </g>
    </g>
    <g id="xtick_2">
     <g id="line2d_3">
      <path clip-path="url(#p5aa1d47103)" d="M 137.910857 298.944 
L 137.910857 27.648 
" style="fill:none;stroke:#b0b0b0;stroke-linecap:square;stroke-width:0.8;"/>
     </g>
     <g id="line2d_4">
      <g>
       <use style="stroke:#000000;stroke-width:0.8;" x="137.910857" xlink:href="#mec8c61e08f" y="298.944"/>
      </g>
     </g>
     <g id="text_2">
      <!-- 2 -->
      <g transform="translate(131.548357 321.140875)scale(0.2 -0.2)">
       <defs>
        <path d="M 19.1875 8.296875 
L 53.609375 8.296875 
L 53.609375 0 
L 7.328125 0 
L 7.328125 8.296875 
Q 12.9375 14.109375 22.625 23.890625 
Q 32.328125 33.6875 34.8125 36.53125 
Q 39.546875 41.84375 41.421875 45.53125 
Q 43.3125 49.21875 43.3125 52.78125 
Q 43.3125 58.59375 39.234375 62.25 
Q 35.15625 65.921875 28.609375 65.921875 
Q 23.96875 65.921875 18.8125 64.3125 
Q 13.671875 62.703125 7.8125 59.421875 
L 7.8125 69.390625 
Q 13.765625 71.78125 18.9375 73 
Q 24.125 74.21875 28.421875 74.21875 
Q 39.75 74.21875 46.484375 68.546875 
Q 53.21875 62.890625 53.21875 53.421875 
Q 53.21875 48.921875 51.53125 44.890625 
Q 49.859375 40.875 45.40625 35.40625 
Q 44.1875 33.984375 37.640625 27.21875 
Q 31.109375 20.453125 19.1875 8.296875 
z
" id="DejaVuSans-50"/>
       </defs>
       <use xlink:href="#DejaVuSans-50"/>
      </g>
     </g>
    </g>
    <g id="xtick_3">
     <g id="line2d_5">
      <path clip-path="url(#p5aa1d47103)" d="M 218.221714 298.944 
L 218.221714 27.648 
" style="fill:none;stroke:#b0b0b0;stroke-linecap:square;stroke-width:0.8;"/>
     </g>
     <g id="line2d_6">
      <g>
       <use style="stroke:#000000;stroke-width:0.8;" x="218.221714" xlink:href="#mec8c61e08f" y="298.944"/>
      </g>
     </g>
     <g id="text_3">
      <!-- 4 -->
      <g transform="translate(211.859214 321.140875)scale(0.2 -0.2)">
       <defs>
        <path d="M 37.796875 64.3125 
L 12.890625 25.390625 
L 37.796875 25.390625 
z
M 35.203125 72.90625 
L 47.609375 72.90625 
L 47.609375 25.390625 
L 58.015625 25.390625 
L 58.015625 17.1875 
L 47.609375 17.1875 
L 47.609375 0 
L 37.796875 0 
L 37.796875 17.1875 
L 4.890625 17.1875 
L 4.890625 26.703125 
z
" id="DejaVuSans-52"/>
       </defs>
       <use xlink:href="#DejaVuSans-52"/>
      </g>
     </g>
    </g>
    <g id="xtick_4">
     <g id="line2d_7">
      <path clip-path="url(#p5aa1d47103)" d="M 298.532571 298.944 
L 298.532571 27.648 
" style="fill:none;stroke:#b0b0b0;stroke-linecap:square;stroke-width:0.8;"/>
     </g>
     <g id="line2d_8">
      <g>
       <use style="stroke:#000000;stroke-width:0.8;" x="298.532571" xlink:href="#mec8c61e08f" y="298.944"/>
      </g>
     </g>
     <g id="text_4">
      <!-- 6 -->
      <g transform="translate(292.170071 321.140875)scale(0.2 -0.2)">
       <defs>
        <path d="M 33.015625 40.375 
Q 26.375 40.375 22.484375 35.828125 
Q 18.609375 31.296875 18.609375 23.390625 
Q 18.609375 15.53125 22.484375 10.953125 
Q 26.375 6.390625 33.015625 6.390625 
Q 39.65625 6.390625 43.53125 10.953125 
Q 47.40625 15.53125 47.40625 23.390625 
Q 47.40625 31.296875 43.53125 35.828125 
Q 39.65625 40.375 33.015625 40.375 
z
M 52.59375 71.296875 
L 52.59375 62.3125 
Q 48.875 64.0625 45.09375 64.984375 
Q 41.3125 65.921875 37.59375 65.921875 
Q 27.828125 65.921875 22.671875 59.328125 
Q 17.53125 52.734375 16.796875 39.40625 
Q 19.671875 43.65625 24.015625 45.921875 
Q 28.375 48.1875 33.59375 48.1875 
Q 44.578125 48.1875 50.953125 41.515625 
Q 57.328125 34.859375 57.328125 23.390625 
Q 57.328125 12.15625 50.6875 5.359375 
Q 44.046875 -1.421875 33.015625 -1.421875 
Q 20.359375 -1.421875 13.671875 8.265625 
Q 6.984375 17.96875 6.984375 36.375 
Q 6.984375 53.65625 15.1875 63.9375 
Q 23.390625 74.21875 37.203125 74.21875 
Q 40.921875 74.21875 44.703125 73.484375 
Q 48.484375 72.75 52.59375 71.296875 
z
" id="DejaVuSans-54"/>
       </defs>
       <use xlink:href="#DejaVuSans-54"/>
      </g>
     </g>
    </g>
    <g id="xtick_5">
     <g id="line2d_9">
      <path clip-path="url(#p5aa1d47103)" d="M 97.755429 298.944 
L 97.755429 27.648 
" style="fill:none;stroke:#b0b0b0;stroke-linecap:square;stroke-width:0.8;"/>
     </g>
     <g id="line2d_10">
      <defs>
       <path d="M 0 0 
L 0 2 
" id="m0ccc6db894" style="stroke:#000000;stroke-width:0.6;"/>
      </defs>
      <g>
       <use style="stroke:#000000;stroke-width:0.6;" x="97.755429" xlink:href="#m0ccc6db894" y="298.944"/>
      </g>
     </g>
    </g>
    <g id="xtick_6">
     <g id="line2d_11">
      <path clip-path="url(#p5aa1d47103)" d="M 178.066286 298.944 
L 178.066286 27.648 
" style="fill:none;stroke:#b0b0b0;stroke-linecap:square;stroke-width:0.8;"/>
     </g>
     <g id="line2d_12">
      <g>
       <use style="stroke:#000000;stroke-width:0.6;" x="178.066286" xlink:href="#m0ccc6db894" y="298.944"/>
      </g>
     </g>
    </g>
    <g id="xtick_7">
     <g id="line2d_13">
      <path clip-path="url(#p5aa1d47103)" d="M 258.377143 298.944 
L 258.377143 27.648 
" style="fill:none;stroke:#b0b0b0;stroke-linecap:square;stroke-width:0.8;"/>
     </g>
     <g id="line2d_14">
      <g>
       <use style="stroke:#000000;stroke-width:0.6;" x="258.377143" xlink:href="#m0ccc6db894" y="298.944"/>
      </g>
     </g>
    </g>
    <g id="xtick_8">
     <g id="line2d_15">
      <path clip-path="url(#p5aa1d47103)" d="M 338.688 298.944 
L 338.688 27.648 
" style="fill:none;stroke:#b0b0b0;stroke-linecap:square;stroke-width:0.8;"/>
     </g>
     <g id="line2d_16">
      <g>
       <use style="stroke:#000000;stroke-width:0.6;" x="338.688" xlink:href="#m0ccc6db894" y="298.944"/>
      </g>
     </g>
    </g>
    <g id="text_5">
     <!-- log10(# (f+g)-evals / dimension) -->
     <g transform="translate(58.145016 342.217594)scale(0.17 -0.17)">
      <defs>
       <path d="M 9.421875 75.984375 
L 18.40625 75.984375 
L 18.40625 0 
L 9.421875 0 
z
" id="DejaVuSans-108"/>
       <path d="M 30.609375 48.390625 
Q 23.390625 48.390625 19.1875 42.75 
Q 14.984375 37.109375 14.984375 27.296875 
Q 14.984375 17.484375 19.15625 11.84375 
Q 23.34375 6.203125 30.609375 6.203125 
Q 37.796875 6.203125 41.984375 11.859375 
Q 46.1875 17.53125 46.1875 27.296875 
Q 46.1875 37.015625 41.984375 42.703125 
Q 37.796875 48.390625 30.609375 48.390625 
z
M 30.609375 56 
Q 42.328125 56 49.015625 48.375 
Q 55.71875 40.765625 55.71875 27.296875 
Q 55.71875 13.875 49.015625 6.21875 
Q 42.328125 -1.421875 30.609375 -1.421875 
Q 18.84375 -1.421875 12.171875 6.21875 
Q 5.515625 13.875 5.515625 27.296875 
Q 5.515625 40.765625 12.171875 48.375 
Q 18.84375 56 30.609375 56 
z
" id="DejaVuSans-111"/>
       <path d="M 45.40625 27.984375 
Q 45.40625 37.75 41.375 43.109375 
Q 37.359375 48.484375 30.078125 48.484375 
Q 22.859375 48.484375 18.828125 43.109375 
Q 14.796875 37.75 14.796875 27.984375 
Q 14.796875 18.265625 18.828125 12.890625 
Q 22.859375 7.515625 30.078125 7.515625 
Q 37.359375 7.515625 41.375 12.890625 
Q 45.40625 18.265625 45.40625 27.984375 
z
M 54.390625 6.78125 
Q 54.390625 -7.171875 48.1875 -13.984375 
Q 42 -20.796875 29.203125 -20.796875 
Q 24.46875 -20.796875 20.265625 -20.09375 
Q 16.0625 -19.390625 12.109375 -17.921875 
L 12.109375 -9.1875 
Q 16.0625 -11.328125 19.921875 -12.34375 
Q 23.78125 -13.375 27.78125 -13.375 
Q 36.625 -13.375 41.015625 -8.765625 
Q 45.40625 -4.15625 45.40625 5.171875 
L 45.40625 9.625 
Q 42.625 4.78125 38.28125 2.390625 
Q 33.9375 0 27.875 0 
Q 17.828125 0 11.671875 7.65625 
Q 5.515625 15.328125 5.515625 27.984375 
Q 5.515625 40.671875 11.671875 48.328125 
Q 17.828125 56 27.875 56 
Q 33.9375 56 38.28125 53.609375 
Q 42.625 51.21875 45.40625 46.390625 
L 45.40625 54.6875 
L 54.390625 54.6875 
z
" id="DejaVuSans-103"/>
       <path d="M 12.40625 8.296875 
L 28.515625 8.296875 
L 28.515625 63.921875 
L 10.984375 60.40625 
L 10.984375 69.390625 
L 28.421875 72.90625 
L 38.28125 72.90625 
L 38.28125 8.296875 
L 54.390625 8.296875 
L 54.390625 0 
L 12.40625 0 
z
" id="DejaVuSans-49"/>
       <path d="M 31 75.875 
Q 24.46875 64.65625 21.28125 53.65625 
Q 18.109375 42.671875 18.109375 31.390625 
Q 18.109375 20.125 21.3125 9.0625 
Q 24.515625 -2 31 -13.1875 
L 23.1875 -13.1875 
Q 15.875 -1.703125 12.234375 9.375 
Q 8.59375 20.453125 8.59375 31.390625 
Q 8.59375 42.28125 12.203125 53.3125 
Q 15.828125 64.359375 23.1875 75.875 
z
" id="DejaVuSans-40"/>
       <path d="M 51.125 44 
L 36.921875 44 
L 32.8125 27.6875 
L 47.125 27.6875 
z
M 43.796875 71.78125 
L 38.71875 51.515625 
L 52.984375 51.515625 
L 58.109375 71.78125 
L 65.921875 71.78125 
L 60.890625 51.515625 
L 76.125 51.515625 
L 76.125 44 
L 58.984375 44 
L 54.984375 27.6875 
L 70.515625 27.6875 
L 70.515625 20.21875 
L 53.078125 20.21875 
L 48 0 
L 40.1875 0 
L 45.21875 20.21875 
L 30.90625 20.21875 
L 25.875 0 
L 18.015625 0 
L 23.09375 20.21875 
L 7.71875 20.21875 
L 7.71875 27.6875 
L 24.90625 27.6875 
L 29 44 
L 13.28125 44 
L 13.28125 51.515625 
L 30.90625 51.515625 
L 35.890625 71.78125 
z
" id="DejaVuSans-35"/>
       <path id="DejaVuSans-32"/>
       <path d="M 37.109375 75.984375 
L 37.109375 68.5 
L 28.515625 68.5 
Q 23.6875 68.5 21.796875 66.546875 
Q 19.921875 64.59375 19.921875 59.515625 
L 19.921875 54.6875 
L 34.71875 54.6875 
L 34.71875 47.703125 
L 19.921875 47.703125 
L 19.921875 0 
L 10.890625 0 
L 10.890625 47.703125 
L 2.296875 47.703125 
L 2.296875 54.6875 
L 10.890625 54.6875 
L 10.890625 58.5 
Q 10.890625 67.625 15.140625 71.796875 
Q 19.390625 75.984375 28.609375 75.984375 
z
" id="DejaVuSans-102"/>
       <path d="M 46 62.703125 
L 46 35.5 
L 73.1875 35.5 
L 73.1875 27.203125 
L 46 27.203125 
L 46 0 
L 37.796875 0 
L 37.796875 27.203125 
L 10.59375 27.203125 
L 10.59375 35.5 
L 37.796875 35.5 
L 37.796875 62.703125 
z
" id="DejaVuSans-43"/>
       <path d="M 8.015625 75.875 
L 15.828125 75.875 
Q 23.140625 64.359375 26.78125 53.3125 
Q 30.421875 42.28125 30.421875 31.390625 
Q 30.421875 20.453125 26.78125 9.375 
Q 23.140625 -1.703125 15.828125 -13.1875 
L 8.015625 -13.1875 
Q 14.5 -2 17.703125 9.0625 
Q 20.90625 20.125 20.90625 31.390625 
Q 20.90625 42.671875 17.703125 53.65625 
Q 14.5 64.65625 8.015625 75.875 
z
" id="DejaVuSans-41"/>
       <path d="M 4.890625 31.390625 
L 31.203125 31.390625 
L 31.203125 23.390625 
L 4.890625 23.390625 
z
" id="DejaVuSans-45"/>
       <path d="M 56.203125 29.59375 
L 56.203125 25.203125 
L 14.890625 25.203125 
Q 15.484375 15.921875 20.484375 11.0625 
Q 25.484375 6.203125 34.421875 6.203125 
Q 39.59375 6.203125 44.453125 7.46875 
Q 49.3125 8.734375 54.109375 11.28125 
L 54.109375 2.78125 
Q 49.265625 0.734375 44.1875 -0.34375 
Q 39.109375 -1.421875 33.890625 -1.421875 
Q 20.796875 -1.421875 13.15625 6.1875 
Q 5.515625 13.8125 5.515625 26.8125 
Q 5.515625 40.234375 12.765625 48.109375 
Q 20.015625 56 32.328125 56 
Q 43.359375 56 49.78125 48.890625 
Q 56.203125 41.796875 56.203125 29.59375 
z
M 47.21875 32.234375 
Q 47.125 39.59375 43.09375 43.984375 
Q 39.0625 48.390625 32.421875 48.390625 
Q 24.90625 48.390625 20.390625 44.140625 
Q 15.875 39.890625 15.1875 32.171875 
z
" id="DejaVuSans-101"/>
       <path d="M 2.984375 54.6875 
L 12.5 54.6875 
L 29.59375 8.796875 
L 46.6875 54.6875 
L 56.203125 54.6875 
L 35.6875 0 
L 23.484375 0 
z
" id="DejaVuSans-118"/>
       <path d="M 34.28125 27.484375 
Q 23.390625 27.484375 19.1875 25 
Q 14.984375 22.515625 14.984375 16.5 
Q 14.984375 11.71875 18.140625 8.90625 
Q 21.296875 6.109375 26.703125 6.109375 
Q 34.1875 6.109375 38.703125 11.40625 
Q 43.21875 16.703125 43.21875 25.484375 
L 43.21875 27.484375 
z
M 52.203125 31.203125 
L 52.203125 0 
L 43.21875 0 
L 43.21875 8.296875 
Q 40.140625 3.328125 35.546875 0.953125 
Q 30.953125 -1.421875 24.3125 -1.421875 
Q 15.921875 -1.421875 10.953125 3.296875 
Q 6 8.015625 6 15.921875 
Q 6 25.140625 12.171875 29.828125 
Q 18.359375 34.515625 30.609375 34.515625 
L 43.21875 34.515625 
L 43.21875 35.40625 
Q 43.21875 41.609375 39.140625 45 
Q 35.0625 48.390625 27.6875 48.390625 
Q 23 48.390625 18.546875 47.265625 
Q 14.109375 46.140625 10.015625 43.890625 
L 10.015625 52.203125 
Q 14.9375 54.109375 19.578125 55.046875 
Q 24.21875 56 28.609375 56 
Q 40.484375 56 46.34375 49.84375 
Q 52.203125 43.703125 52.203125 31.203125 
z
" id="DejaVuSans-97"/>
       <path d="M 44.28125 53.078125 
L 44.28125 44.578125 
Q 40.484375 46.53125 36.375 47.5 
Q 32.28125 48.484375 27.875 48.484375 
Q 21.1875 48.484375 17.84375 46.4375 
Q 14.5 44.390625 14.5 40.28125 
Q 14.5 37.15625 16.890625 35.375 
Q 19.28125 33.59375 26.515625 31.984375 
L 29.59375 31.296875 
Q 39.15625 29.25 43.1875 25.515625 
Q 47.21875 21.78125 47.21875 15.09375 
Q 47.21875 7.46875 41.1875 3.015625 
Q 35.15625 -1.421875 24.609375 -1.421875 
Q 20.21875 -1.421875 15.453125 -0.5625 
Q 10.6875 0.296875 5.421875 2 
L 5.421875 11.28125 
Q 10.40625 8.6875 15.234375 7.390625 
Q 20.0625 6.109375 24.8125 6.109375 
Q 31.15625 6.109375 34.5625 8.28125 
Q 37.984375 10.453125 37.984375 14.40625 
Q 37.984375 18.0625 35.515625 20.015625 
Q 33.0625 21.96875 24.703125 23.78125 
L 21.578125 24.515625 
Q 13.234375 26.265625 9.515625 29.90625 
Q 5.8125 33.546875 5.8125 39.890625 
Q 5.8125 47.609375 11.28125 51.796875 
Q 16.75 56 26.8125 56 
Q 31.78125 56 36.171875 55.265625 
Q 40.578125 54.546875 44.28125 53.078125 
z
" id="DejaVuSans-115"/>
       <path d="M 25.390625 72.90625 
L 33.6875 72.90625 
L 8.296875 -9.28125 
L 0 -9.28125 
z
" id="DejaVuSans-47"/>
       <path d="M 45.40625 46.390625 
L 45.40625 75.984375 
L 54.390625 75.984375 
L 54.390625 0 
L 45.40625 0 
L 45.40625 8.203125 
Q 42.578125 3.328125 38.25 0.953125 
Q 33.9375 -1.421875 27.875 -1.421875 
Q 17.96875 -1.421875 11.734375 6.484375 
Q 5.515625 14.40625 5.515625 27.296875 
Q 5.515625 40.1875 11.734375 48.09375 
Q 17.96875 56 27.875 56 
Q 33.9375 56 38.25 53.625 
Q 42.578125 51.265625 45.40625 46.390625 
z
M 14.796875 27.296875 
Q 14.796875 17.390625 18.875 11.75 
Q 22.953125 6.109375 30.078125 6.109375 
Q 37.203125 6.109375 41.296875 11.75 
Q 45.40625 17.390625 45.40625 27.296875 
Q 45.40625 37.203125 41.296875 42.84375 
Q 37.203125 48.484375 30.078125 48.484375 
Q 22.953125 48.484375 18.875 42.84375 
Q 14.796875 37.203125 14.796875 27.296875 
z
" id="DejaVuSans-100"/>
       <path d="M 9.421875 54.6875 
L 18.40625 54.6875 
L 18.40625 0 
L 9.421875 0 
z
M 9.421875 75.984375 
L 18.40625 75.984375 
L 18.40625 64.59375 
L 9.421875 64.59375 
z
" id="DejaVuSans-105"/>
       <path d="M 52 44.1875 
Q 55.375 50.25 60.0625 53.125 
Q 64.75 56 71.09375 56 
Q 79.640625 56 84.28125 50.015625 
Q 88.921875 44.046875 88.921875 33.015625 
L 88.921875 0 
L 79.890625 0 
L 79.890625 32.71875 
Q 79.890625 40.578125 77.09375 44.375 
Q 74.3125 48.1875 68.609375 48.1875 
Q 61.625 48.1875 57.5625 43.546875 
Q 53.515625 38.921875 53.515625 30.90625 
L 53.515625 0 
L 44.484375 0 
L 44.484375 32.71875 
Q 44.484375 40.625 41.703125 44.40625 
Q 38.921875 48.1875 33.109375 48.1875 
Q 26.21875 48.1875 22.15625 43.53125 
Q 18.109375 38.875 18.109375 30.90625 
L 18.109375 0 
L 9.078125 0 
L 9.078125 54.6875 
L 18.109375 54.6875 
L 18.109375 46.1875 
Q 21.1875 51.21875 25.484375 53.609375 
Q 29.78125 56 35.6875 56 
Q 41.65625 56 45.828125 52.96875 
Q 50 49.953125 52 44.1875 
z
" id="DejaVuSans-109"/>
       <path d="M 54.890625 33.015625 
L 54.890625 0 
L 45.90625 0 
L 45.90625 32.71875 
Q 45.90625 40.484375 42.875 44.328125 
Q 39.84375 48.1875 33.796875 48.1875 
Q 26.515625 48.1875 22.3125 43.546875 
Q 18.109375 38.921875 18.109375 30.90625 
L 18.109375 0 
L 9.078125 0 
L 9.078125 54.6875 
L 18.109375 54.6875 
L 18.109375 46.1875 
Q 21.34375 51.125 25.703125 53.5625 
Q 30.078125 56 35.796875 56 
Q 45.21875 56 50.046875 50.171875 
Q 54.890625 44.34375 54.890625 33.015625 
z
" id="DejaVuSans-110"/>
      </defs>
      <use xlink:href="#DejaVuSans-108"/>
      <use x="27.783203" xlink:href="#DejaVuSans-111"/>
      <use x="88.964844" xlink:href="#DejaVuSans-103"/>
      <use x="152.441406" xlink:href="#DejaVuSans-49"/>
      <use x="216.064453" xlink:href="#DejaVuSans-48"/>
      <use x="279.6875" xlink:href="#DejaVuSans-40"/>
      <use x="318.701172" xlink:href="#DejaVuSans-35"/>
      <use x="402.490234" xlink:href="#DejaVuSans-32"/>
      <use x="434.277344" xlink:href="#DejaVuSans-40"/>
      <use x="473.291016" xlink:href="#DejaVuSans-102"/>
      <use x="508.496094" xlink:href="#DejaVuSans-43"/>
      <use x="592.285156" xlink:href="#DejaVuSans-103"/>
      <use x="655.761719" xlink:href="#DejaVuSans-41"/>
      <use x="694.775391" xlink:href="#DejaVuSans-45"/>
      <use x="730.859375" xlink:href="#DejaVuSans-101"/>
      <use x="792.382812" xlink:href="#DejaVuSans-118"/>
      <use x="851.5625" xlink:href="#DejaVuSans-97"/>
      <use x="912.841797" xlink:href="#DejaVuSans-108"/>
      <use x="940.625" xlink:href="#DejaVuSans-115"/>
      <use x="992.724609" xlink:href="#DejaVuSans-32"/>
      <use x="1024.511719" xlink:href="#DejaVuSans-47"/>
      <use x="1058.203125" xlink:href="#DejaVuSans-32"/>
      <use x="1089.990234" xlink:href="#DejaVuSans-100"/>
      <use x="1153.466797" xlink:href="#DejaVuSans-105"/>
      <use x="1181.25" xlink:href="#DejaVuSans-109"/>
      <use x="1278.662109" xlink:href="#DejaVuSans-101"/>
      <use x="1340.185547" xlink:href="#DejaVuSans-110"/>
      <use x="1403.564453" xlink:href="#DejaVuSans-115"/>
      <use x="1455.664062" xlink:href="#DejaVuSans-105"/>
      <use x="1483.447266" xlink:href="#DejaVuSans-111"/>
      <use x="1544.628906" xlink:href="#DejaVuSans-110"/>
      <use x="1608.007812" xlink:href="#DejaVuSans-41"/>
     </g>
    </g>
   </g>
   <g id="matplotlib.axis_2">
    <g id="ytick_1">
     <g id="line2d_17">
      <path clip-path="url(#p5aa1d47103)" d="M 57.6 298.944 
L 338.688 298.944 
" style="fill:none;stroke:#b0b0b0;stroke-linecap:square;stroke-width:0.8;"/>
     </g>
     <g id="line2d_18">
      <defs>
       <path d="M 0 0 
L -3.5 0 
" id="ma56e495ca0" style="stroke:#000000;stroke-width:0.8;"/>
      </defs>
      <g>
       <use style="stroke:#000000;stroke-width:0.8;" x="57.6" xlink:href="#ma56e495ca0" y="298.944"/>
      </g>
     </g>
     <g id="text_6">
      <!-- 0.0 -->
      <g transform="translate(25.155 305.02275)scale(0.16 -0.16)">
       <defs>
        <path d="M 10.6875 12.40625 
L 21 12.40625 
L 21 0 
L 10.6875 0 
z
" id="DejaVuSans-46"/>
       </defs>
       <use xlink:href="#DejaVuSans-48"/>
       <use x="63.623047" xlink:href="#DejaVuSans-46"/>
       <use x="95.410156" xlink:href="#DejaVuSans-48"/>
      </g>
     </g>
    </g>
    <g id="ytick_2">
     <g id="line2d_19">
      <path clip-path="url(#p5aa1d47103)" d="M 57.6 245.22202 
L 338.688 245.22202 
" style="fill:none;stroke:#b0b0b0;stroke-linecap:square;stroke-width:0.8;"/>
     </g>
     <g id="line2d_20">
      <g>
       <use style="stroke:#000000;stroke-width:0.8;" x="57.6" xlink:href="#ma56e495ca0" y="245.22202"/>
      </g>
     </g>
     <g id="text_7">
      <!-- 0.2 -->
      <g transform="translate(25.155 251.30077)scale(0.16 -0.16)">
       <use xlink:href="#DejaVuSans-48"/>
       <use x="63.623047" xlink:href="#DejaVuSans-46"/>
       <use x="95.410156" xlink:href="#DejaVuSans-50"/>
      </g>
     </g>
    </g>
    <g id="ytick_3">
     <g id="line2d_21">
      <path clip-path="url(#p5aa1d47103)" d="M 57.6 191.50004 
L 338.688 191.50004 
" style="fill:none;stroke:#b0b0b0;stroke-linecap:square;stroke-width:0.8;"/>
     </g>
     <g id="line2d_22">
      <g>
       <use style="stroke:#000000;stroke-width:0.8;" x="57.6" xlink:href="#ma56e495ca0" y="191.50004"/>
      </g>
     </g>
     <g id="text_8">
      <!-- 0.4 -->
      <g transform="translate(25.155 197.57879)scale(0.16 -0.16)">
       <use xlink:href="#DejaVuSans-48"/>
       <use x="63.623047" xlink:href="#DejaVuSans-46"/>
       <use x="95.410156" xlink:href="#DejaVuSans-52"/>
      </g>
     </g>
    </g>
    <g id="ytick_4">
     <g id="line2d_23">
      <path clip-path="url(#p5aa1d47103)" d="M 57.6 137.778059 
L 338.688 137.778059 
" style="fill:none;stroke:#b0b0b0;stroke-linecap:square;stroke-width:0.8;"/>
     </g>
     <g id="line2d_24">
      <g>
       <use style="stroke:#000000;stroke-width:0.8;" x="57.6" xlink:href="#ma56e495ca0" y="137.778059"/>
      </g>
     </g>
     <g id="text_9">
      <!-- 0.6 -->
      <g transform="translate(25.155 143.856809)scale(0.16 -0.16)">
       <use xlink:href="#DejaVuSans-48"/>
       <use x="63.623047" xlink:href="#DejaVuSans-46"/>
       <use x="95.410156" xlink:href="#DejaVuSans-54"/>
      </g>
     </g>
    </g>
    <g id="ytick_5">
     <g id="line2d_25">
      <path clip-path="url(#p5aa1d47103)" d="M 57.6 84.056079 
L 338.688 84.056079 
" style="fill:none;stroke:#b0b0b0;stroke-linecap:square;stroke-width:0.8;"/>
     </g>
     <g id="line2d_26">
      <g>
       <use style="stroke:#000000;stroke-width:0.8;" x="57.6" xlink:href="#ma56e495ca0" y="84.056079"/>
      </g>
     </g>
     <g id="text_10">
      <!-- 0.8 -->
      <g transform="translate(25.155 90.134829)scale(0.16 -0.16)">
       <defs>
        <path d="M 31.78125 34.625 
Q 24.75 34.625 20.71875 30.859375 
Q 16.703125 27.09375 16.703125 20.515625 
Q 16.703125 13.921875 20.71875 10.15625 
Q 24.75 6.390625 31.78125 6.390625 
Q 38.8125 6.390625 42.859375 10.171875 
Q 46.921875 13.96875 46.921875 20.515625 
Q 46.921875 27.09375 42.890625 30.859375 
Q 38.875 34.625 31.78125 34.625 
z
M 21.921875 38.8125 
Q 15.578125 40.375 12.03125 44.71875 
Q 8.5 49.078125 8.5 55.328125 
Q 8.5 64.0625 14.71875 69.140625 
Q 20.953125 74.21875 31.78125 74.21875 
Q 42.671875 74.21875 48.875 69.140625 
Q 55.078125 64.0625 55.078125 55.328125 
Q 55.078125 49.078125 51.53125 44.71875 
Q 48 40.375 41.703125 38.8125 
Q 48.828125 37.15625 52.796875 32.3125 
Q 56.78125 27.484375 56.78125 20.515625 
Q 56.78125 9.90625 50.3125 4.234375 
Q 43.84375 -1.421875 31.78125 -1.421875 
Q 19.734375 -1.421875 13.25 4.234375 
Q 6.78125 9.90625 6.78125 20.515625 
Q 6.78125 27.484375 10.78125 32.3125 
Q 14.796875 37.15625 21.921875 38.8125 
z
M 18.3125 54.390625 
Q 18.3125 48.734375 21.84375 45.5625 
Q 25.390625 42.390625 31.78125 42.390625 
Q 38.140625 42.390625 41.71875 45.5625 
Q 45.3125 48.734375 45.3125 54.390625 
Q 45.3125 60.0625 41.71875 63.234375 
Q 38.140625 66.40625 31.78125 66.40625 
Q 25.390625 66.40625 21.84375 63.234375 
Q 18.3125 60.0625 18.3125 54.390625 
z
" id="DejaVuSans-56"/>
       </defs>
       <use xlink:href="#DejaVuSans-48"/>
       <use x="63.623047" xlink:href="#DejaVuSans-46"/>
       <use x="95.410156" xlink:href="#DejaVuSans-56"/>
      </g>
     </g>
    </g>
    <g id="ytick_6">
     <g id="line2d_27">
      <path clip-path="url(#p5aa1d47103)" d="M 57.6 30.334099 
L 338.688 30.334099 
" style="fill:none;stroke:#b0b0b0;stroke-linecap:square;stroke-width:0.8;"/>
     </g>
     <g id="line2d_28">
      <g>
       <use style="stroke:#000000;stroke-width:0.8;" x="57.6" xlink:href="#ma56e495ca0" y="30.334099"/>
      </g>
     </g>
     <g id="text_11">
      <!-- 1.0 -->
      <g transform="translate(25.155 36.412849)scale(0.16 -0.16)">
       <use xlink:href="#DejaVuSans-49"/>
       <use x="63.623047" xlink:href="#DejaVuSans-46"/>
       <use x="95.410156" xlink:href="#DejaVuSans-48"/>
      </g>
     </g>
    </g>
    <g id="text_12">
     <!-- Fraction of function,target pairs -->
     <g transform="translate(17.619531 297.681)rotate(-90)scale(0.17 -0.17)">
      <defs>
       <path d="M 9.8125 72.90625 
L 51.703125 72.90625 
L 51.703125 64.59375 
L 19.671875 64.59375 
L 19.671875 43.109375 
L 48.578125 43.109375 
L 48.578125 34.8125 
L 19.671875 34.8125 
L 19.671875 0 
L 9.8125 0 
z
" id="DejaVuSans-70"/>
       <path d="M 41.109375 46.296875 
Q 39.59375 47.171875 37.8125 47.578125 
Q 36.03125 48 33.890625 48 
Q 26.265625 48 22.1875 43.046875 
Q 18.109375 38.09375 18.109375 28.8125 
L 18.109375 0 
L 9.078125 0 
L 9.078125 54.6875 
L 18.109375 54.6875 
L 18.109375 46.1875 
Q 20.953125 51.171875 25.484375 53.578125 
Q 30.03125 56 36.53125 56 
Q 37.453125 56 38.578125 55.875 
Q 39.703125 55.765625 41.0625 55.515625 
z
" id="DejaVuSans-114"/>
       <path d="M 48.78125 52.59375 
L 48.78125 44.1875 
Q 44.96875 46.296875 41.140625 47.34375 
Q 37.3125 48.390625 33.40625 48.390625 
Q 24.65625 48.390625 19.8125 42.84375 
Q 14.984375 37.3125 14.984375 27.296875 
Q 14.984375 17.28125 19.8125 11.734375 
Q 24.65625 6.203125 33.40625 6.203125 
Q 37.3125 6.203125 41.140625 7.25 
Q 44.96875 8.296875 48.78125 10.40625 
L 48.78125 2.09375 
Q 45.015625 0.34375 40.984375 -0.53125 
Q 36.96875 -1.421875 32.421875 -1.421875 
Q 20.0625 -1.421875 12.78125 6.34375 
Q 5.515625 14.109375 5.515625 27.296875 
Q 5.515625 40.671875 12.859375 48.328125 
Q 20.21875 56 33.015625 56 
Q 37.15625 56 41.109375 55.140625 
Q 45.0625 54.296875 48.78125 52.59375 
z
" id="DejaVuSans-99"/>
       <path d="M 18.3125 70.21875 
L 18.3125 54.6875 
L 36.8125 54.6875 
L 36.8125 47.703125 
L 18.3125 47.703125 
L 18.3125 18.015625 
Q 18.3125 11.328125 20.140625 9.421875 
Q 21.96875 7.515625 27.59375 7.515625 
L 36.8125 7.515625 
L 36.8125 0 
L 27.59375 0 
Q 17.1875 0 13.234375 3.875 
Q 9.28125 7.765625 9.28125 18.015625 
L 9.28125 47.703125 
L 2.6875 47.703125 
L 2.6875 54.6875 
L 9.28125 54.6875 
L 9.28125 70.21875 
z
" id="DejaVuSans-116"/>
       <path d="M 8.5 21.578125 
L 8.5 54.6875 
L 17.484375 54.6875 
L 17.484375 21.921875 
Q 17.484375 14.15625 20.5 10.265625 
Q 23.53125 6.390625 29.59375 6.390625 
Q 36.859375 6.390625 41.078125 11.03125 
Q 45.3125 15.671875 45.3125 23.6875 
L 45.3125 54.6875 
L 54.296875 54.6875 
L 54.296875 0 
L 45.3125 0 
L 45.3125 8.40625 
Q 42.046875 3.421875 37.71875 1 
Q 33.40625 -1.421875 27.6875 -1.421875 
Q 18.265625 -1.421875 13.375 4.4375 
Q 8.5 10.296875 8.5 21.578125 
z
M 31.109375 56 
z
" id="DejaVuSans-117"/>
       <path d="M 11.71875 12.40625 
L 22.015625 12.40625 
L 22.015625 4 
L 14.015625 -11.625 
L 7.71875 -11.625 
L 11.71875 4 
z
" id="DejaVuSans-44"/>
       <path d="M 18.109375 8.203125 
L 18.109375 -20.796875 
L 9.078125 -20.796875 
L 9.078125 54.6875 
L 18.109375 54.6875 
L 18.109375 46.390625 
Q 20.953125 51.265625 25.265625 53.625 
Q 29.59375 56 35.59375 56 
Q 45.5625 56 51.78125 48.09375 
Q 58.015625 40.1875 58.015625 27.296875 
Q 58.015625 14.40625 51.78125 6.484375 
Q 45.5625 -1.421875 35.59375 -1.421875 
Q 29.59375 -1.421875 25.265625 0.953125 
Q 20.953125 3.328125 18.109375 8.203125 
z
M 48.6875 27.296875 
Q 48.6875 37.203125 44.609375 42.84375 
Q 40.53125 48.484375 33.40625 48.484375 
Q 26.265625 48.484375 22.1875 42.84375 
Q 18.109375 37.203125 18.109375 27.296875 
Q 18.109375 17.390625 22.1875 11.75 
Q 26.265625 6.109375 33.40625 6.109375 
Q 40.53125 6.109375 44.609375 11.75 
Q 48.6875 17.390625 48.6875 27.296875 
z
" id="DejaVuSans-112"/>
      </defs>
      <use xlink:href="#DejaVuSans-70"/>
      <use x="50.269531" xlink:href="#DejaVuSans-114"/>
      <use x="91.382812" xlink:href="#DejaVuSans-97"/>
      <use x="152.662109" xlink:href="#DejaVuSans-99"/>
      <use x="207.642578" xlink:href="#DejaVuSans-116"/>
      <use x="246.851562" xlink:href="#DejaVuSans-105"/>
      <use x="274.634766" xlink:href="#DejaVuSans-111"/>
      <use x="335.816406" xlink:href="#DejaVuSans-110"/>
      <use x="399.195312" xlink:href="#DejaVuSans-32"/>
      <use x="430.982422" xlink:href="#DejaVuSans-111"/>
      <use x="492.164062" xlink:href="#DejaVuSans-102"/>
      <use x="527.369141" xlink:href="#DejaVuSans-32"/>
      <use x="559.15625" xlink:href="#DejaVuSans-102"/>
      <use x="594.361328" xlink:href="#DejaVuSans-117"/>
      <use x="657.740234" xlink:href="#DejaVuSans-110"/>
      <use x="721.119141" xlink:href="#DejaVuSans-99"/>
      <use x="776.099609" xlink:href="#DejaVuSans-116"/>
      <use x="815.308594" xlink:href="#DejaVuSans-105"/>
      <use x="843.091797" xlink:href="#DejaVuSans-111"/>
      <use x="904.273438" xlink:href="#DejaVuSans-110"/>
      <use x="967.652344" xlink:href="#DejaVuSans-44"/>
      <use x="999.439453" xlink:href="#DejaVuSans-116"/>
      <use x="1038.648438" xlink:href="#DejaVuSans-97"/>
      <use x="1099.927734" xlink:href="#DejaVuSans-114"/>
      <use x="1139.291016" xlink:href="#DejaVuSans-103"/>
      <use x="1202.767578" xlink:href="#DejaVuSans-101"/>
      <use x="1264.291016" xlink:href="#DejaVuSans-116"/>
      <use x="1303.5" xlink:href="#DejaVuSans-32"/>
      <use x="1335.287109" xlink:href="#DejaVuSans-112"/>
      <use x="1398.763672" xlink:href="#DejaVuSans-97"/>
      <use x="1460.042969" xlink:href="#DejaVuSans-105"/>
      <use x="1487.826172" xlink:href="#DejaVuSans-114"/>
      <use x="1528.939453" xlink:href="#DejaVuSans-115"/>
     </g>
    </g>
   </g>
   <g id="line2d_29">
    <defs>
     <path d="M 0 1.5 
C 0.397805 1.5 0.77937 1.341951 1.06066 1.06066 
C 1.341951 0.77937 1.5 0.397805 1.5 0 
C 1.5 -0.397805 1.341951 -0.77937 1.06066 -1.06066 
C 0.77937 -1.341951 0.397805 -1.5 0 -1.5 
C -0.397805 -1.5 -0.77937 -1.341951 -1.06066 -1.06066 
C -1.341951 -0.77937 -1.5 -0.397805 -1.5 0 
C -1.5 0.397805 -1.341951 0.77937 -1.06066 1.06066 
C -0.77937 1.341951 -0.397805 1.5 0 1.5 
z
" id="m8594e3b614" style="stroke:#000080;"/>
    </defs>
    <g>
     <use style="fill:#000080;stroke:#000080;" x="236.466" xlink:href="#m8594e3b614" y="30.334099"/>
     <use style="fill:#000080;stroke:#000080;" x="236.466" xlink:href="#m8594e3b614" y="30.334099"/>
    </g>
   </g>
   <g id="line2d_30">
    <path d="M 45.512012 298.944 
L 45.512012 296.323416 
L 57.6 296.323416 
L 57.6 295.66827 
L 69.687988 295.66827 
L 69.687988 293.702831 
L 76.759008 293.702831 
L 76.759008 293.047685 
L 81.775977 293.047685 
L 81.775977 291.737393 
L 91.535274 291.737393 
L 91.535274 289.771955 
L 102.330873 289.771955 
L 102.330873 289.116809 
L 108.948899 289.116809 
L 108.948899 288.461662 
L 110.694282 288.461662 
L 110.694282 287.806516 
L 113.022974 287.806516 
L 113.022974 287.15137 
L 115.711251 287.15137 
L 115.711251 281.255055 
L 116.323218 281.255055 
L 116.323218 279.944763 
L 118.039942 279.944763 
L 118.039942 279.289617 
L 118.576578 279.289617 
L 118.576578 275.35874 
L 120.093994 275.35874 
L 120.093994 272.738156 
L 121.489881 272.738156 
L 121.489881 272.08301 
L 121.931406 272.08301 
L 121.931406 270.117572 
L 123.192626 270.117572 
L 123.192626 265.531549 
L 123.593547 265.531549 
L 123.593547 264.876403 
L 125.110962 264.876403 
L 125.110962 264.221257 
L 125.470548 264.221257 
L 125.470548 260.945526 
L 125.822869 260.945526 
L 125.822869 259.635234 
L 128.411207 259.635234 
L 128.411207 258.980088 
L 129.002426 258.980088 
L 129.002426 258.324942 
L 130.398313 258.324942 
L 130.398313 255.049211 
L 131.690703 255.049211 
L 131.690703 254.394065 
L 132.659801 254.394065 
L 132.659801 251.118335 
L 133.352844 251.118335 
L 133.352844 247.842604 
L 134.019394 247.842604 
L 134.019394 247.187458 
L 134.450015 247.187458 
L 134.450015 245.877166 
L 134.661403 245.877166 
L 134.661403 243.911728 
L 135.280614 243.911728 
L 135.280614 241.291143 
L 135.878591 241.291143 
L 135.878591 238.670559 
L 136.073445 238.670559 
L 136.073445 235.394828 
L 136.266147 235.394828 
L 136.266147 234.084536 
L 136.456742 234.084536 
L 136.456742 231.463952 
L 137.016339 231.463952 
L 137.016339 230.808806 
L 137.735587 230.808806 
L 137.735587 230.15366 
L 138.084384 230.15366 
L 138.084384 228.843367 
L 138.761723 228.843367 
L 138.761723 228.188221 
L 139.090775 228.188221 
L 139.090775 226.222783 
L 139.253002 226.222783 
L 139.253002 225.567637 
L 139.572998 225.567637 
L 139.572998 224.257345 
L 140.195896 224.257345 
L 140.195896 223.602199 
L 140.348205 223.602199 
L 140.348205 222.947052 
L 140.944478 222.947052 
L 140.944478 222.291906 
L 141.235139 222.291906 
L 141.235139 220.981614 
L 141.80232 220.981614 
L 141.80232 217.705884 
L 143.273169 217.705884 
L 143.273169 216.395591 
L 143.653678 216.395591 
L 143.653678 213.775007 
L 144.865226 213.775007 
L 144.865226 211.154423 
L 145.327221 211.154423 
L 145.327221 207.223546 
L 145.440832 207.223546 
L 145.440832 203.947816 
L 146.216039 203.947816 
L 146.216039 203.292669 
L 146.644018 203.292669 
L 146.644018 200.672085 
L 146.854132 200.672085 
L 146.854132 200.016939 
L 147.368603 200.016939 
L 147.368603 199.361793 
L 148.639252 199.361793 
L 148.733265 197.396355 
L 148.919783 197.396355 
L 149.012299 195.430916 
L 149.646525 195.430916 
L 149.735275 194.120624 
L 149.823575 194.120624 
L 149.823575 193.465478 
L 151.421542 193.465478 
L 151.421542 192.155186 
L 152.130233 192.155186 
L 152.130233 191.50004 
L 152.283884 191.50004 
L 152.283884 190.189747 
L 152.436193 190.189747 
L 152.436193 189.534601 
L 153.105587 189.534601 
L 153.105587 188.879455 
L 153.466662 188.879455 
L 153.537988 186.914017 
L 153.820412 186.914017 
L 153.890309 182.327994 
L 155.361158 182.327994 
L 155.361158 181.672848 
L 155.488919 181.672848 
L 155.488919 181.017702 
L 155.741666 181.017702 
L 155.741666 180.362556 
L 155.86668 180.362556 
L 155.86668 177.086825 
L 156.052535 177.086825 
L 156.052535 176.431679 
L 156.478647 176.431679 
L 156.478647 175.776533 
L 157.185742 175.776533 
L 157.185742 173.811095 
L 157.415209 173.811095 
L 157.415209 173.155949 
L 157.920731 173.155949 
L 157.976006 171.190511 
L 158.195371 171.190511 
L 158.249784 169.225072 
L 158.465753 169.225072 
L 158.51933 164.63905 
L 158.625992 164.63905 
L 158.625992 160.708173 
L 159.354904 160.708173 
L 159.354904 160.053027 
L 159.608019 160.053027 
L 159.608019 159.397881 
L 159.906985 159.397881 
L 159.906985 158.742735 
L 160.537682 158.742735 
L 160.632719 154.811858 
L 161.555647 154.811858 
L 161.555647 152.84642 
L 161.999419 152.84642 
L 162.043181 150.225835 
L 162.346481 150.225835 
L 162.346481 148.915543 
L 162.644595 148.915543 
L 162.644595 147.605251 
L 162.979172 147.605251 
L 162.979172 145.639813 
L 163.144084 145.639813 
L 163.185069 143.019228 
L 163.589711 143.019228 
L 163.589711 142.364082 
L 163.828065 142.364082 
L 163.828065 141.708936 
L 163.985177 141.708936 
L 163.985177 141.05379 
L 164.140886 141.05379 
L 164.140886 140.398644 
L 164.256762 140.398644 
L 164.333587 139.088352 
L 164.787563 139.088352 
L 164.787563 138.433206 
L 165.083779 138.433206 
L 165.120455 137.122913 
L 165.230021 137.122913 
L 165.230021 135.157475 
L 165.803027 135.157475 
L 165.873346 133.192037 
L 166.289413 133.192037 
L 166.289413 130.571452 
L 166.459886 130.571452 
L 166.459886 129.916306 
L 166.729224 129.916306 
L 166.729224 128.606014 
L 166.928532 128.606014 
L 166.96153 127.295722 
L 167.190782 127.295722 
L 167.190782 125.98543 
L 167.513144 125.98543 
L 167.608702 124.019991 
L 167.76681 124.019991 
L 167.860992 122.709699 
L 167.954668 122.709699 
L 167.954668 121.399407 
L 168.232714 121.399407 
L 168.293904 118.123676 
L 168.506396 118.123676 
L 168.506396 116.813384 
L 168.71633 116.813384 
L 168.71633 115.503092 
L 169.041203 115.503092 
L 169.070439 114.1928 
L 169.417501 114.1928 
L 169.417501 112.882508 
L 169.897641 112.882508 
L 169.897641 112.227362 
L 170.419074 112.227362 
L 170.419074 110.917069 
L 170.951613 110.917069 
L 170.977818 106.986193 
L 172.019658 106.986193 
L 172.019658 106.331047 
L 172.530112 106.331047 
L 172.530112 105.675901 
L 172.862299 105.675901 
L 172.862299 104.365608 
L 173.026049 104.365608 
L 173.026049 103.710462 
L 173.530906 103.710462 
L 173.621148 101.089878 
L 173.755642 101.089878 
L 173.755642 100.434732 
L 174.305129 100.434732 
L 174.305129 99.779586 
L 174.434469 99.779586 
L 174.434469 98.469293 
L 175.067161 98.469293 
L 175.067161 97.814147 
L 175.737594 97.814147 
L 175.737594 97.159001 
L 176.073165 97.159001 
L 176.151193 93.883271 
L 177.005766 93.883271 
L 177.005766 93.228125 
L 177.31801 93.228125 
L 177.31801 92.572979 
L 177.606866 92.572979 
L 177.642639 87.986956 
L 177.838089 87.986956 
L 177.838089 86.021518 
L 178.547874 86.021518 
L 178.547874 85.366371 
L 179.712566 85.366371 
L 179.712566 82.745787 
L 180.967511 82.745787 
L 180.967511 82.090641 
L 181.158427 82.090641 
L 181.158427 80.125203 
L 183.013357 80.125203 
L 183.013357 78.81491 
L 183.312807 78.81491 
L 183.312807 78.159764 
L 186.403933 78.159764 
L 186.403933 77.504618 
L 186.554643 77.504618 
L 186.554643 76.849472 
L 191.464095 76.849472 
L 191.464095 76.194326 
L 193.062882 76.194326 
L 193.062882 75.53918 
L 194.281313 75.53918 
L 194.281313 74.884034 
L 195.153795 74.884034 
L 195.153795 74.228888 
L 197.364253 74.228888 
L 197.364253 73.573742 
L 198.792051 73.573742 
L 198.792051 72.918596 
L 199.667696 72.918596 
L 199.667696 72.263449 
L 200.160941 72.263449 
L 200.160941 71.608303 
L 201.800738 71.608303 
L 201.800738 70.953157 
L 202.009648 70.953157 
L 202.009648 70.298011 
L 202.407154 70.298011 
L 202.407154 69.642865 
L 204.615042 69.642865 
L 204.615042 68.987719 
L 205.14718 68.987719 
L 205.14718 68.332573 
L 205.598943 68.332573 
L 205.706505 66.367135 
L 206.081329 66.367135 
L 206.081329 65.711988 
L 206.41741 65.711988 
L 206.41741 65.056842 
L 208.035196 65.056842 
L 208.035196 64.401696 
L 210.274524 64.401696 
L 210.274524 63.091404 
L 211.611065 63.091404 
L 211.720275 61.781112 
L 212.092257 61.781112 
L 212.092257 61.125966 
L 212.376188 61.125966 
L 212.376188 60.47082 
L 212.656771 60.47082 
L 212.711871 57.850235 
L 213.219853 57.850235 
L 213.231466 56.539943 
L 213.347165 56.539943 
L 213.432291 51.95392 
L 213.473554 51.95392 
L 213.473554 51.298774 
L 213.61948 51.298774 
L 213.61948 50.643628 
L 213.764196 50.643628 
L 213.764196 49.988482 
L 214.087692 49.988482 
L 214.087692 49.333336 
L 217.2748 49.333336 
L 217.358375 48.023044 
L 219.721391 48.023044 
L 219.721391 47.367898 
L 221.361989 47.367898 
L 221.361989 46.712752 
L 221.565443 46.712752 
L 221.565443 46.057605 
L 222.48449 46.057605 
L 222.48449 45.402459 
L 222.750816 45.402459 
L 222.825976 44.092167 
L 222.87813 44.092167 
L 222.87813 43.437021 
L 223.237593 43.437021 
L 223.275484 40.161291 
L 223.380886 40.161291 
L 223.380886 39.506144 
L 223.865768 39.506144 
L 223.882163 37.540706 
L 224.015273 37.540706 
L 224.015273 36.88556 
L 225.000221 36.88556 
L 225.000221 36.230414 
L 226.726678 36.230414 
L 226.726678 35.575268 
L 229.472457 35.575268 
L 229.472457 34.920122 
L 229.933788 34.920122 
L 229.933788 34.264976 
L 230.290509 34.264976 
L 230.391909 32.299537 
L 230.668719 32.299537 
L 230.668719 31.644391 
L 235.08787 31.644391 
L 235.08787 30.989245 
L 236.466 30.989245 
L 236.466 30.334099 
L 338.688 30.334099 
L 338.688 30.334099 
" style="fill:none;stroke:#000080;stroke-linecap:square;stroke-width:1.5;"/>
   </g>
   <g id="line2d_31">
    <defs>
     <path d="M 0 6 
C 1.591219 6 3.117479 5.367802 4.242641 4.242641 
C 5.367802 3.117479 6 1.591219 6 0 
C 6 -1.591219 5.367802 -3.117479 4.242641 -4.242641 
C 3.117479 -5.367802 1.591219 -6 0 -6 
C -1.591219 -6 -3.117479 -5.367802 -4.242641 -4.242641 
C -5.367802 -3.117479 -6 -1.591219 -6 0 
C -6 1.591219 -5.367802 3.117479 -4.242641 4.242641 
C -3.117479 5.367802 -1.591219 6 0 6 
z
" id="m7e61fffdd0" style="stroke:#000080;stroke-width:1.5;"/>
    </defs>
    <g>
     <use style="fill-opacity:0;stroke:#000080;stroke-width:1.5;" x="138.084384" xlink:href="#m7e61fffdd0" y="230.15366"/>
     <use style="fill-opacity:0;stroke:#000080;stroke-width:1.5;" x="158.249784" xlink:href="#m7e61fffdd0" y="170.535364"/>
     <use style="fill-opacity:0;stroke:#000080;stroke-width:1.5;" x="213.370213" xlink:href="#m7e61fffdd0" y="53.919359"/>
     <use style="fill-opacity:0;stroke:#000080;stroke-width:1.5;" x="236.466" xlink:href="#m7e61fffdd0" y="30.989245"/>
     <use style="fill-opacity:0;stroke:#000080;stroke-width:1.5;" x="236.466" xlink:href="#m7e61fffdd0" y="30.334099"/>
     <use style="fill-opacity:0;stroke:#000080;stroke-width:1.5;" x="338.688" xlink:href="#m7e61fffdd0" y="30.334099"/>
    </g>
   </g>
   <g id="line2d_32">
    <path style="fill:none;stroke:#000080;stroke-linecap:square;stroke-width:1.5;"/>
    <g/>
   </g>
   <g id="line2d_33">
    <path clip-path="url(#p5aa1d47103)" d="M 210.205621 64.401696 
" style="fill:none;stroke:#000080;stroke-linecap:square;stroke-width:1.5;"/>
    <defs>
     <path d="M -12 12 
L 12 -12 
M -12 -12 
L 12 12 
" id="m48bf878fce" style="stroke:#000080;"/>
    </defs>
    <g clip-path="url(#p5aa1d47103)">
     <use style="fill:#000080;stroke:#000080;" x="210.205621" xlink:href="#m48bf878fce" y="64.401696"/>
    </g>
   </g>
   <g id="line2d_34">
    <defs>
     <path d="M 0 1.5 
C 0.397805 1.5 0.77937 1.341951 1.06066 1.06066 
C 1.341951 0.77937 1.5 0.397805 1.5 0 
C 1.5 -0.397805 1.341951 -0.77937 1.06066 -1.06066 
C 0.77937 -1.341951 0.397805 -1.5 0 -1.5 
C -0.397805 -1.5 -0.77937 -1.341951 -1.06066 -1.06066 
C -1.341951 -0.77937 -1.5 -0.397805 -1.5 0 
C -1.5 0.397805 -1.341951 0.77937 -1.06066 1.06066 
C -0.77937 1.341951 -0.397805 1.5 0 1.5 
z
" id="m67307e9795" style="stroke:#ff00ff;"/>
    </defs>
    <g>
     <use style="fill:#ff00ff;stroke:#ff00ff;" x="231.974222" xlink:href="#m67307e9795" y="30.334099"/>
     <use style="fill:#ff00ff;stroke:#ff00ff;" x="231.974222" xlink:href="#m67307e9795" y="30.334099"/>
    </g>
   </g>
   <g id="line2d_35">
    <path d="M 45.512012 298.944 
L 45.512012 295.013123 
L 57.6 295.013123 
L 57.6 293.702831 
L 69.687988 293.702831 
L 69.687988 289.771955 
L 105.951954 289.771955 
L 105.951954 289.116809 
L 107.009204 289.116809 
L 107.009204 287.806516 
L 112.280765 287.806516 
L 112.280765 287.15137 
L 113.022974 287.15137 
L 113.022974 284.530786 
L 113.73488 284.530786 
L 113.73488 283.87564 
L 115.711251 283.87564 
L 115.711251 280.599909 
L 116.323218 280.599909 
L 116.323218 279.289617 
L 117.486268 279.289617 
L 117.486268 278.634471 
L 118.039942 278.634471 
L 118.039942 277.979325 
L 118.576578 277.979325 
L 118.576578 276.013887 
L 120.093994 276.013887 
L 120.093994 273.393302 
L 120.571812 273.393302 
L 120.571812 270.772718 
L 121.489881 270.772718 
L 121.489881 270.117572 
L 122.362027 270.117572 
L 122.362027 269.462426 
L 122.782271 269.462426 
L 122.782271 268.807279 
L 123.192626 268.807279 
L 123.192626 266.841841 
L 123.593547 266.841841 
L 123.593547 264.876403 
L 123.985457 264.876403 
L 123.985457 261.600672 
L 124.368753 261.600672 
L 124.368753 260.945526 
L 126.168212 260.945526 
L 126.168212 260.29038 
L 128.107907 260.29038 
L 128.107907 258.980088 
L 129.290685 258.980088 
L 129.290685 258.324942 
L 129.574256 258.324942 
L 129.574256 257.01465 
L 129.853291 257.01465 
L 129.853291 255.704357 
L 131.185181 255.704357 
L 131.185181 253.738919 
L 131.439773 253.738919 
L 131.439773 250.463189 
L 132.181982 250.463189 
L 132.181982 247.842604 
L 133.124876 247.842604 
L 133.124876 245.877166 
L 135.681535 245.877166 
L 135.681535 244.566874 
L 135.878591 244.566874 
L 135.878591 242.601435 
L 137.558536 242.601435 
L 137.558536 241.291143 
L 138.927025 241.291143 
L 138.927025 240.635997 
L 140.348205 240.635997 
L 140.348205 239.325705 
L 140.499195 239.325705 
L 140.499195 238.670559 
L 140.79731 238.670559 
L 140.79731 236.049974 
L 141.090414 236.049974 
L 141.090414 233.42939 
L 141.80232 233.42939 
L 141.80232 232.774244 
L 142.752555 232.774244 
L 142.752555 230.808806 
L 142.884173 230.808806 
L 142.884173 229.498513 
L 143.778691 229.498513 
L 143.778691 228.188221 
L 144.629556 228.188221 
L 144.629556 227.533075 
L 144.747789 227.533075 
L 144.747789 226.877929 
L 144.865226 226.877929 
L 144.865226 224.257345 
L 144.981877 224.257345 
L 144.981877 222.947052 
L 145.212864 222.947052 
L 145.212864 221.63676 
L 145.440832 221.63676 
L 145.440832 218.36103 
L 145.665858 218.36103 
L 145.665858 217.050738 
L 145.998045 217.050738 
L 145.998045 215.085299 
L 146.216039 215.085299 
L 146.216039 214.430153 
L 146.644018 214.430153 
L 146.749392 213.119861 
L 146.854132 213.119861 
L 146.854132 211.809569 
L 147.061745 211.809569 
L 147.061745 209.84413 
L 147.368603 209.84413 
L 147.368603 209.188984 
L 147.769524 209.188984 
L 147.769524 202.637523 
L 147.96658 202.637523 
L 148.064279 200.672085 
L 148.826773 200.672085 
L 148.826773 199.361793 
L 149.377533 199.361793 
L 149.377533 195.430916 
L 149.646525 195.430916 
L 149.646525 194.77577 
L 150.258492 194.77577 
L 150.258492 193.465478 
L 150.766468 193.465478 
L 150.766468 190.844894 
L 151.260066 190.844894 
L 151.260066 190.189747 
L 151.660987 190.189747 
L 151.740076 185.603725 
L 152.587184 185.603725 
L 152.587184 183.638286 
L 153.032466 183.638286 
L 153.032466 180.362556 
L 153.537988 180.362556 
L 153.537988 179.70741 
L 153.959927 179.70741 
L 153.959927 177.741972 
L 154.167129 177.741972 
L 154.167129 177.086825 
L 154.507086 177.086825 
L 154.507086 174.466241 
L 154.641235 174.466241 
L 154.641235 173.811095 
L 154.906477 173.811095 
L 154.972161 170.535364 
L 155.61575 170.535364 
L 155.61575 169.225072 
L 155.990803 169.225072 
L 155.990803 163.983903 
L 156.175347 163.983903 
L 156.175347 163.328757 
L 157.069866 163.328757 
L 157.1279 157.432442 
L 157.976006 157.432442 
L 157.976006 156.777296 
L 158.249784 156.777296 
L 158.249784 156.12215 
L 158.412011 156.12215 
L 158.412011 154.811858 
L 159.758143 154.811858 
L 159.758143 154.156712 
L 160.005512 154.156712 
L 160.005512 152.84642 
L 160.297798 152.84642 
L 160.297798 150.225835 
L 160.727241 150.225835 
L 160.821253 148.260397 
L 160.86807 148.260397 
L 160.86807 147.605251 
L 161.054091 147.605251 
L 161.054091 144.32952 
L 161.420284 144.32952 
L 161.420284 143.019228 
L 161.778945 143.019228 
L 161.778945 142.364082 
L 161.955547 142.364082 
L 162.043181 140.398644 
L 162.346481 140.398644 
L 162.346481 139.743498 
L 162.602318 139.743498 
L 162.602318 139.088352 
L 162.9377 139.088352 
L 162.9377 138.433206 
L 163.225959 138.433206 
L 163.225959 137.778059 
L 163.388564 137.778059 
L 163.388564 137.122913 
L 163.50953 137.122913 
L 163.50953 136.467767 
L 163.788565 136.467767 
L 163.788565 135.157475 
L 163.946031 135.157475 
L 163.946031 134.502329 
L 164.063205 134.502329 
L 164.063205 132.536891 
L 164.675172 132.536891 
L 164.675172 131.881745 
L 165.338904 131.881745 
L 165.338904 131.226598 
L 165.483031 131.226598 
L 165.483031 130.571452 
L 165.9084 130.571452 
L 165.978297 128.606014 
L 166.08262 128.606014 
L 166.08262 127.950868 
L 166.729224 127.950868 
L 166.729224 127.295722 
L 167.320442 127.295722 
L 167.320442 125.98543 
L 167.735303 125.98543 
L 167.735303 125.330284 
L 168.047843 125.330284 
L 168.047843 124.675137 
L 168.293904 124.675137 
L 168.293904 124.019991 
L 168.415645 124.019991 
L 168.415645 123.364845 
L 168.71633 123.364845 
L 168.71633 122.709699 
L 169.215888 122.709699 
L 169.215888 122.054553 
L 169.78585 122.054553 
L 169.78585 120.744261 
L 170.063995 120.744261 
L 170.063995 120.089115 
L 170.201421 120.089115 
L 170.201421 119.433969 
L 170.392016 119.433969 
L 170.446091 116.813384 
L 170.660731 116.813384 
L 170.767069 115.503092 
L 170.925369 115.503092 
L 170.925369 114.847946 
L 171.569909 114.847946 
L 171.569909 114.1928 
L 171.8212 114.1928 
L 171.895887 111.572215 
L 172.019658 111.572215 
L 172.019658 110.917069 
L 172.530112 110.917069 
L 172.530112 109.606777 
L 172.83878 109.606777 
L 172.83878 108.951631 
L 173.00275 108.951631 
L 173.072554 106.986193 
L 173.188276 106.986193 
L 173.188276 105.675901 
L 173.417442 105.675901 
L 173.462916 103.055316 
L 173.666095 103.055316 
L 173.666095 102.40017 
L 173.822502 102.40017 
L 173.822502 101.745024 
L 173.977519 101.745024 
L 174.087407 100.434732 
L 174.218366 100.434732 
L 174.218366 99.779586 
L 174.455933 99.779586 
L 174.455933 97.814147 
L 174.584164 97.814147 
L 174.690307 95.193563 
L 174.858804 95.193563 
L 174.900675 93.883271 
L 175.170413 93.883271 
L 175.211544 92.572979 
L 175.415753 92.572979 
L 175.456309 91.262686 
L 175.617599 91.262686 
L 175.617599 90.60754 
L 175.757513 90.60754 
L 175.817135 87.986956 
L 175.876553 87.986956 
L 175.876553 87.33181 
L 176.053603 87.33181 
L 176.053603 86.676664 
L 176.170646 86.676664 
L 176.170646 83.400933 
L 176.383205 83.400933 
L 176.383205 82.745787 
L 176.687829 82.745787 
L 176.781943 80.125203 
L 177.245042 80.125203 
L 177.245042 79.470057 
L 177.588952 79.470057 
L 177.588952 78.81491 
L 178.013889 78.81491 
L 178.013889 78.159764 
L 178.496907 78.159764 
L 178.496907 77.504618 
L 178.817212 77.504618 
L 178.817212 76.849472 
L 178.950337 76.849472 
L 178.950337 76.194326 
L 179.617095 76.194326 
L 179.617095 75.53918 
L 179.901953 75.53918 
L 179.901953 74.884034 
L 180.427645 74.884034 
L 180.427645 74.228888 
L 180.714656 74.228888 
L 180.714656 73.573742 
L 181.158427 73.573742 
L 181.158427 71.608303 
L 181.605428 71.608303 
L 181.605428 70.953157 
L 182.289409 70.953157 
L 182.289409 68.987719 
L 202.772556 68.987719 
L 202.772556 68.332573 
L 203.157369 68.332573 
L 203.157369 67.677427 
L 204.993333 67.677427 
L 204.993333 65.711988 
L 207.102117 65.711988 
L 207.102117 64.401696 
L 207.708452 64.401696 
L 207.708452 63.74655 
L 207.852848 63.74655 
L 207.852848 63.091404 
L 208.083606 63.091404 
L 208.181576 61.781112 
L 209.104216 61.781112 
L 209.104216 61.125966 
L 209.382901 61.125966 
L 209.382901 60.47082 
L 209.687099 60.47082 
L 209.692787 59.160527 
L 209.879487 59.160527 
L 209.879487 58.505381 
L 210.075342 58.505381 
L 210.075342 57.850235 
L 210.241484 57.850235 
L 210.274524 56.539943 
L 210.639273 56.539943 
L 210.639273 55.884797 
L 210.939716 55.884797 
L 210.939716 55.229651 
L 211.223352 55.229651 
L 211.223352 54.574505 
L 211.373792 54.574505 
L 211.373792 53.919359 
L 212.379846 53.919359 
L 212.379846 53.264213 
L 214.375969 53.264213 
L 214.399869 51.298774 
L 214.566257 51.298774 
L 214.609216 49.988482 
L 215.185268 49.988482 
L 215.208085 48.023044 
L 215.362863 48.023044 
L 215.362863 47.367898 
L 215.605661 47.367898 
L 215.605661 46.057605 
L 215.857111 46.057605 
L 215.928861 44.092167 
L 218.072847 44.092167 
L 218.130793 42.126729 
L 218.308693 42.126729 
L 218.324304 40.816437 
L 218.483079 40.816437 
L 218.488232 39.506144 
L 220.116928 39.506144 
L 220.116928 38.850998 
L 220.400879 38.850998 
L 220.472299 37.540706 
L 221.135487 37.540706 
L 221.135487 36.88556 
L 223.416526 36.88556 
L 223.416526 36.230414 
L 223.530086 36.230414 
L 223.530086 35.575268 
L 223.969553 35.575268 
L 223.969553 34.920122 
L 224.74416 34.920122 
L 224.74416 34.264976 
L 225.884806 34.264976 
L 225.980069 32.954683 
L 226.698814 32.954683 
L 226.698814 32.299537 
L 230.815872 32.299537 
L 230.815872 31.644391 
L 231.00458 31.644391 
L 231.00458 30.989245 
L 231.974222 30.989245 
L 231.974222 30.334099 
L 338.688 30.334099 
L 338.688 30.334099 
" style="fill:none;stroke:#ff00ff;stroke-linecap:square;stroke-width:1.5;"/>
   </g>
   <g id="line2d_36">
    <defs>
     <path d="M -0 8.485281 
L 5.091169 0 
L 0 -8.485281 
L -5.091169 -0 
z
" id="mb836810f0a" style="stroke:#ff00ff;stroke-linejoin:miter;stroke-width:1.5;"/>
    </defs>
    <g>
     <use style="fill-opacity:0;stroke:#ff00ff;stroke-linejoin:miter;stroke-width:1.5;" x="135.878591" xlink:href="#mb836810f0a" y="244.566874"/>
     <use style="fill-opacity:0;stroke:#ff00ff;stroke-linejoin:miter;stroke-width:1.5;" x="178.950337" xlink:href="#mb836810f0a" y="76.194326"/>
     <use style="fill-opacity:0;stroke:#ff00ff;stroke-linejoin:miter;stroke-width:1.5;" x="231.974222" xlink:href="#mb836810f0a" y="30.989245"/>
     <use style="fill-opacity:0;stroke:#ff00ff;stroke-linejoin:miter;stroke-width:1.5;" x="231.974222" xlink:href="#mb836810f0a" y="30.334099"/>
     <use style="fill-opacity:0;stroke:#ff00ff;stroke-linejoin:miter;stroke-width:1.5;" x="231.974222" xlink:href="#mb836810f0a" y="30.334099"/>
     <use style="fill-opacity:0;stroke:#ff00ff;stroke-linejoin:miter;stroke-width:1.5;" x="338.688" xlink:href="#mb836810f0a" y="30.334099"/>
    </g>
   </g>
   <g id="line2d_37">
    <path style="fill:none;stroke:#ff00ff;stroke-linecap:square;stroke-width:1.5;"/>
    <g/>
   </g>
   <g id="line2d_38">
    <path clip-path="url(#p5aa1d47103)" d="M 207.633403 64.401696 
" style="fill:none;stroke:#ff00ff;stroke-linecap:square;stroke-width:1.5;"/>
    <defs>
     <path d="M -12 12 
L 12 -12 
M -12 -12 
L 12 12 
" id="md381bf6405" style="stroke:#ff00ff;"/>
    </defs>
    <g clip-path="url(#p5aa1d47103)">
     <use style="fill:#ff00ff;stroke:#ff00ff;" x="207.633403" xlink:href="#md381bf6405" y="64.401696"/>
    </g>
   </g>
   <g id="line2d_39">
    <defs>
     <path d="M 0 1.5 
C 0.397805 1.5 0.77937 1.341951 1.06066 1.06066 
C 1.341951 0.77937 1.5 0.397805 1.5 0 
C 1.5 -0.397805 1.341951 -0.77937 1.06066 -1.06066 
C 0.77937 -1.341951 0.397805 -1.5 0 -1.5 
C -0.397805 -1.5 -0.77937 -1.341951 -1.06066 -1.06066 
C -1.341951 -0.77937 -1.5 -0.397805 -1.5 0 
C -1.5 0.397805 -1.341951 0.77937 -1.06066 1.06066 
C -0.77937 1.341951 -0.397805 1.5 0 1.5 
z
" id="m122be262f8" style="stroke:#ff7500;"/>
    </defs>
    <g>
     <use style="fill:#ff7500;stroke:#ff7500;" x="221.580552" xlink:href="#m122be262f8" y="30.334099"/>
     <use style="fill:#ff7500;stroke:#ff7500;" x="221.580552" xlink:href="#m122be262f8" y="30.334099"/>
    </g>
   </g>
   <g id="line2d_40">
    <path d="M 45.512012 298.944 
L 45.512012 296.978562 
L 69.687988 296.978562 
L 69.687988 296.323416 
L 81.775977 296.323416 
L 81.775977 293.702831 
L 85.66744 293.702831 
L 85.66744 292.392539 
L 91.535274 292.392539 
L 91.535274 289.116809 
L 97.755429 289.116809 
L 97.755429 288.461662 
L 100.934985 288.461662 
L 100.934985 287.806516 
L 111.505558 287.806516 
L 111.505558 286.496224 
L 112.280765 286.496224 
L 112.280765 282.565348 
L 113.022974 282.565348 
L 113.022974 280.599909 
L 113.73488 280.599909 
L 113.73488 279.944763 
L 115.711251 279.944763 
L 115.711251 278.634471 
L 116.914437 278.634471 
L 116.914437 277.324179 
L 117.486268 277.324179 
L 117.486268 276.669033 
L 118.576578 276.669033 
L 118.576578 276.013887 
L 119.602714 276.013887 
L 119.602714 272.738156 
L 121.489881 272.738156 
L 121.489881 270.117572 
L 121.931406 270.117572 
L 121.931406 269.462426 
L 122.362027 269.462426 
L 122.362027 268.807279 
L 123.192626 268.807279 
L 123.192626 267.496987 
L 123.985457 267.496987 
L 123.985457 266.841841 
L 125.110962 266.841841 
L 125.110962 262.910965 
L 125.470548 262.910965 
L 125.470548 262.255818 
L 125.822869 262.255818 
L 125.822869 258.980088 
L 126.50685 258.980088 
L 126.50685 257.01465 
L 126.839037 257.01465 
L 126.839037 255.704357 
L 127.165014 255.704357 
L 127.165014 253.738919 
L 127.48501 253.738919 
L 127.48501 253.083773 
L 127.799239 253.083773 
L 127.799239 252.428627 
L 128.411207 252.428627 
L 128.411207 251.773481 
L 130.398313 251.773481 
L 130.398313 249.152896 
L 131.439773 249.152896 
L 131.439773 245.877166 
L 131.690703 245.877166 
L 131.690703 245.22202 
L 133.57787 245.22202 
L 133.57787 243.911728 
L 134.236034 243.911728 
L 134.236034 238.015413 
L 134.870259 238.015413 
L 134.870259 237.360267 
L 135.681535 237.360267 
L 135.681535 236.705121 
L 135.878591 236.705121 
L 135.878591 232.119098 
L 136.073445 232.119098 
L 136.073445 231.463952 
L 136.645276 231.463952 
L 136.645276 228.188221 
L 137.198951 228.188221 
L 137.198951 226.222783 
L 137.910857 226.222783 
L 137.910857 224.912491 
L 139.253002 224.912491 
L 139.253002 220.326468 
L 140.042245 220.326468 
L 140.042245 219.671322 
L 140.64889 219.671322 
L 140.64889 219.016176 
L 140.944478 219.016176 
L 140.944478 218.36103 
L 141.378673 218.36103 
L 141.378673 216.395591 
L 142.07914 216.395591 
L 142.07914 215.740445 
L 142.215919 215.740445 
L 142.215919 215.085299 
L 142.752555 215.085299 
L 142.752555 214.430153 
L 143.40093 214.430153 
L 143.40093 213.119861 
L 144.026061 213.119861 
L 144.026061 212.464715 
L 144.148442 212.464715 
L 144.148442 209.84413 
L 144.269971 209.84413 
L 144.269971 207.878692 
L 144.510517 207.878692 
L 144.510517 205.913254 
L 144.629556 205.913254 
L 144.629556 205.258108 
L 147.570215 205.258108 
L 147.670154 203.292669 
L 147.96658 203.292669 
L 147.96658 202.637523 
L 148.161434 202.637523 
L 148.161434 201.982377 
L 148.449693 201.982377 
L 148.449693 201.327231 
L 149.195872 201.327231 
L 149.195872 198.706647 
L 149.467659 198.706647 
L 149.467659 196.741208 
L 149.646525 196.741208 
L 149.646525 196.086062 
L 149.823575 196.086062 
L 149.823575 195.430916 
L 150.085825 195.430916 
L 150.085825 193.465478 
L 150.344189 193.465478 
L 150.344189 192.810332 
L 150.51433 192.810332 
L 150.51433 192.155186 
L 150.766468 192.155186 
L 150.849711 189.534601 
L 151.015013 189.534601 
L 151.015013 188.879455 
L 151.260066 188.879455 
L 151.260066 188.224309 
L 151.740076 188.224309 
L 151.818809 182.98314 
L 151.897188 182.98314 
L 151.897188 181.017702 
L 152.130233 181.017702 
L 152.130233 180.362556 
L 152.436193 180.362556 
L 152.511852 179.052264 
L 153.250915 179.052264 
L 153.250915 177.741972 
L 153.537988 177.741972 
L 153.537988 175.121387 
L 154.029268 175.121387 
L 154.029268 173.155949 
L 154.303908 173.155949 
L 154.303908 172.500803 
L 155.0376 172.500803 
L 155.0376 171.845657 
L 155.86668 171.845657 
L 155.86668 171.190511 
L 156.717545 171.190511 
L 156.717545 170.535364 
L 157.300853 170.535364 
L 157.300853 169.880218 
L 157.528821 169.880218 
L 157.58535 168.569926 
L 158.67908 168.569926 
L 158.67908 166.604488 
L 160.249422 166.604488 
L 160.249422 165.949342 
L 160.537682 165.949342 
L 160.537682 164.63905 
L 161.600536 164.63905 
L 161.600536 163.328757 
L 161.867469 163.328757 
L 161.867469 162.673611 
L 162.173813 162.673611 
L 162.173813 162.018465 
L 162.979172 162.018465 
L 162.979172 161.363319 
L 163.266752 161.363319 
L 163.266752 160.708173 
L 163.549667 160.708173 
L 163.549667 160.053027 
L 164.063205 160.053027 
L 164.063205 159.397881 
L 164.973287 159.397881 
L 165.047026 158.087589 
L 165.157053 158.087589 
L 165.157053 157.432442 
L 165.76776 157.432442 
L 165.873346 156.12215 
L 165.9084 156.12215 
L 165.9084 155.467004 
L 166.151824 155.467004 
L 166.151824 154.156712 
L 166.928532 154.156712 
L 166.928532 152.191274 
L 167.798261 152.191274 
L 167.798261 150.225835 
L 167.954668 150.225835 
L 167.954668 149.570689 
L 168.232714 149.570689 
L 168.232714 148.915543 
L 168.385289 148.915543 
L 168.385289 148.260397 
L 168.894283 148.260397 
L 168.982583 146.294959 
L 169.041203 146.294959 
L 169.041203 145.639813 
L 169.446113 145.639813 
L 169.446113 144.32952 
L 169.897641 144.32952 
L 169.897641 143.019228 
L 170.201421 143.019228 
L 170.201421 141.708936 
L 170.446091 141.708936 
L 170.446091 141.05379 
L 170.767069 141.05379 
L 170.767069 140.398644 
L 171.289242 140.398644 
L 171.366236 138.433206 
L 171.442893 138.433206 
L 171.442893 137.778059 
L 171.595202 137.778059 
L 171.595202 135.812621 
L 171.746192 135.812621 
L 171.746192 135.157475 
L 171.871027 135.157475 
L 171.871027 134.502329 
L 172.409924 134.502329 
L 172.409924 133.192037 
L 172.83878 133.192037 
L 172.83878 132.536891 
L 173.530906 132.536891 
L 173.530906 131.881745 
L 173.866933 131.881745 
L 173.866933 131.226598 
L 174.305129 131.226598 
L 174.348349 129.916306 
L 174.541525 129.916306 
L 174.541525 129.26116 
L 174.66913 129.26116 
L 174.690307 127.950868 
L 174.900675 127.950868 
L 174.900675 126.640576 
L 175.375102 126.640576 
L 175.395439 124.675137 
L 175.975136 124.675137 
L 175.975136 124.019991 
L 176.209486 124.019991 
L 176.209486 123.364845 
L 176.325491 123.364845 
L 176.325491 122.709699 
L 176.440729 122.709699 
L 176.478973 120.744261 
L 176.706692 120.744261 
L 176.706692 116.813384 
L 176.987223 116.813384 
L 177.079739 114.847946 
L 177.263313 114.847946 
L 177.281564 112.227362 
L 177.463036 112.227362 
L 177.463036 108.951631 
L 178.666222 108.951631 
L 178.666222 108.296485 
L 178.8005 108.296485 
L 178.8005 107.641339 
L 179.049518 107.641339 
L 179.049518 106.986193 
L 179.180888 106.986193 
L 179.180888 105.020754 
L 179.295031 105.020754 
L 179.295031 104.365608 
L 179.408431 104.365608 
L 179.408431 103.710462 
L 179.760106 103.710462 
L 179.760106 102.40017 
L 180.366615 102.40017 
L 180.45808 101.089878 
L 180.579292 101.089878 
L 180.594385 99.779586 
L 180.699667 99.779586 
L 180.699667 96.503855 
L 180.982272 96.503855 
L 180.997019 95.193563 
L 181.099906 95.193563 
L 181.099906 93.883271 
L 181.54839 93.883271 
L 181.54839 91.917832 
L 181.943792 91.917832 
L 181.943792 91.262686 
L 182.096708 91.262686 
L 182.096708 89.952394 
L 182.708675 89.952394 
L 182.708675 88.642102 
L 182.973917 88.642102 
L 182.973917 87.986956 
L 183.144185 87.986956 
L 183.144185 86.676664 
L 183.505367 86.676664 
L 183.505367 85.366371 
L 184.15691 85.366371 
L 184.15691 84.056079 
L 185.310832 84.056079 
L 185.310832 82.090641 
L 185.505431 82.090641 
L 185.505431 78.81491 
L 185.720384 78.81491 
L 185.720384 77.504618 
L 186.08754 77.504618 
L 186.08754 76.194326 
L 186.693433 76.194326 
L 186.693433 73.573742 
L 186.957269 73.573742 
L 186.957269 72.918596 
L 187.422344 72.918596 
L 187.422344 71.608303 
L 188.374897 71.608303 
L 188.413479 70.298011 
L 203.586426 70.298011 
L 203.65491 68.332573 
L 204.313745 68.332573 
L 204.421812 65.056842 
L 204.609333 65.056842 
L 204.609333 64.401696 
L 205.255721 64.401696 
L 205.255721 63.74655 
L 205.808077 63.74655 
L 205.808077 63.091404 
L 206.125004 63.091404 
L 206.125004 62.436258 
L 207.174554 62.436258 
L 207.266314 59.160527 
L 207.285915 59.160527 
L 207.285915 58.505381 
L 207.522636 58.505381 
L 207.522636 57.195089 
L 208.207918 57.195089 
L 208.207918 56.539943 
L 208.774603 56.539943 
L 208.774603 55.884797 
L 209.015744 55.884797 
L 209.015744 55.229651 
L 209.406045 55.229651 
L 209.406045 54.574505 
L 209.721204 54.574505 
L 209.721204 53.919359 
L 210.046103 53.919359 
L 210.115638 49.988482 
L 210.162764 49.988482 
L 210.162764 49.333336 
L 210.35548 49.333336 
L 210.380104 47.367898 
L 210.548798 47.367898 
L 210.569095 42.781875 
L 211.597047 42.781875 
L 211.597047 42.126729 
L 212.244016 42.126729 
L 212.244016 41.471583 
L 212.63276 41.471583 
L 212.711871 40.161291 
L 212.845306 40.161291 
L 212.845306 39.506144 
L 214.699088 39.506144 
L 214.805477 38.195852 
L 215.018424 38.195852 
L 215.018424 37.540706 
L 216.939249 37.540706 
L 217.021642 34.264976 
L 217.086905 34.264976 
L 217.086905 33.60983 
L 218.586709 33.60983 
L 218.634462 32.299537 
L 218.717717 32.299537 
L 218.717717 31.644391 
L 221.282425 31.644391 
L 221.282425 30.989245 
L 221.580552 30.989245 
L 221.580552 30.334099 
L 338.688 30.334099 
L 338.688 30.334099 
" style="fill:none;stroke:#ff7500;stroke-linecap:square;stroke-width:1.5;"/>
   </g>
   <g id="line2d_41">
    <defs>
     <path d="M 0 -6 
L -1.347084 -1.854102 
L -5.706339 -1.854102 
L -2.179628 0.708204 
L -3.526712 4.854102 
L -0 2.291796 
L 3.526712 4.854102 
L 2.179628 0.708204 
L 5.706339 -1.854102 
L 1.347084 -1.854102 
z
" id="m0d32c5a0c4" style="stroke:#ff7500;stroke-linejoin:bevel;stroke-width:1.5;"/>
    </defs>
    <g>
     <use style="fill-opacity:0;stroke:#ff7500;stroke-linejoin:bevel;stroke-width:1.5;" x="100.934985" xlink:href="#m0d32c5a0c4" y="287.806516"/>
     <use style="fill-opacity:0;stroke:#ff7500;stroke-linejoin:bevel;stroke-width:1.5;" x="149.823575" xlink:href="#m0d32c5a0c4" y="195.430916"/>
     <use style="fill-opacity:0;stroke:#ff7500;stroke-linejoin:bevel;stroke-width:1.5;" x="181.099906" xlink:href="#m0d32c5a0c4" y="93.883271"/>
     <use style="fill-opacity:0;stroke:#ff7500;stroke-linejoin:bevel;stroke-width:1.5;" x="221.580552" xlink:href="#m0d32c5a0c4" y="30.989245"/>
     <use style="fill-opacity:0;stroke:#ff7500;stroke-linejoin:bevel;stroke-width:1.5;" x="221.580552" xlink:href="#m0d32c5a0c4" y="30.334099"/>
     <use style="fill-opacity:0;stroke:#ff7500;stroke-linejoin:bevel;stroke-width:1.5;" x="338.688" xlink:href="#m0d32c5a0c4" y="30.334099"/>
    </g>
   </g>
   <g id="line2d_42">
    <path style="fill:none;stroke:#ff7500;stroke-linecap:square;stroke-width:1.5;"/>
    <g/>
   </g>
   <g id="line2d_43">
    <path clip-path="url(#p5aa1d47103)" d="M 208.440168 56.539943 
" style="fill:none;stroke:#ff7500;stroke-linecap:square;stroke-width:1.5;"/>
    <defs>
     <path d="M -12 12 
L 12 -12 
M -12 -12 
L 12 12 
" id="me89366d630" style="stroke:#ff7500;"/>
    </defs>
    <g clip-path="url(#p5aa1d47103)">
     <use style="fill:#ff7500;stroke:#ff7500;" x="208.440168" xlink:href="#me89366d630" y="56.539943"/>
    </g>
   </g>
   <g id="line2d_44">
    <defs>
     <path d="M 0 1.5 
C 0.397805 1.5 0.77937 1.341951 1.06066 1.06066 
C 1.341951 0.77937 1.5 0.397805 1.5 0 
C 1.5 -0.397805 1.341951 -0.77937 1.06066 -1.06066 
C 0.77937 -1.341951 0.397805 -1.5 0 -1.5 
C -0.397805 -1.5 -0.77937 -1.341951 -1.06066 -1.06066 
C -1.341951 -0.77937 -1.5 -0.397805 -1.5 0 
C -1.5 0.397805 -1.341951 0.77937 -1.06066 1.06066 
C -0.77937 1.341951 -0.397805 1.5 0 1.5 
z
" id="m8c2d54493b" style="stroke:#6495ed;"/>
    </defs>
    <g>
     <use style="fill:#6495ed;stroke:#6495ed;" x="239.831713" xlink:href="#m8c2d54493b" y="30.334099"/>
     <use style="fill:#6495ed;stroke:#6495ed;" x="239.831713" xlink:href="#m8c2d54493b" y="30.334099"/>
    </g>
   </g>
   <g id="line2d_45">
    <path d="M 45.512012 298.944 
L 45.512012 295.66827 
L 57.6 295.66827 
L 57.6 294.357977 
L 69.687988 294.357977 
L 69.687988 293.702831 
L 76.759008 293.702831 
L 76.759008 293.047685 
L 88.846997 293.047685 
L 88.846997 291.082247 
L 91.535274 291.082247 
L 91.535274 289.771955 
L 102.330873 289.771955 
L 102.330873 287.15137 
L 104.826449 287.15137 
L 104.826449 283.87564 
L 105.951954 283.87564 
L 105.951954 283.220494 
L 107.009204 283.220494 
L 107.009204 280.599909 
L 112.280765 280.599909 
L 112.280765 277.324179 
L 113.022974 277.324179 
L 113.022974 273.393302 
L 116.323218 273.393302 
L 116.323218 272.738156 
L 116.914437 272.738156 
L 116.914437 272.08301 
L 118.576578 272.08301 
L 118.576578 271.427864 
L 119.097192 271.427864 
L 119.097192 267.496987 
L 121.036887 267.496987 
L 121.036887 266.186695 
L 123.192626 266.186695 
L 123.192626 261.600672 
L 124.368753 261.600672 
L 124.368753 259.635234 
L 124.743806 259.635234 
L 124.743806 258.980088 
L 125.110962 258.980088 
L 125.110962 254.394065 
L 125.470548 254.394065 
L 125.470548 253.083773 
L 125.822869 253.083773 
L 125.822869 251.773481 
L 126.168212 251.773481 
L 126.168212 251.118335 
L 127.165014 251.118335 
L 127.165014 246.532312 
L 128.107907 246.532312 
L 128.107907 245.22202 
L 130.926816 245.22202 
L 130.926816 243.911728 
L 131.439773 243.911728 
L 131.439773 243.256582 
L 131.690703 243.256582 
L 131.690703 242.601435 
L 132.659801 242.601435 
L 132.659801 241.946289 
L 133.800029 241.946289 
L 133.800029 240.635997 
L 134.450015 240.635997 
L 134.450015 239.980851 
L 137.016339 239.980851 
L 137.016339 236.705121 
L 137.910857 236.705121 
L 137.910857 232.774244 
L 138.256201 232.774244 
L 138.256201 230.15366 
L 138.594838 230.15366 
L 138.594838 229.498513 
L 139.090775 229.498513 
L 139.090775 228.188221 
L 140.042245 228.188221 
L 140.042245 227.533075 
L 140.195896 227.533075 
L 140.195896 226.222783 
L 140.348205 226.222783 
L 140.348205 224.912491 
L 141.090414 224.912491 
L 141.090414 221.63676 
L 141.378673 221.63676 
L 141.378673 220.326468 
L 142.215919 220.326468 
L 142.215919 218.36103 
L 142.884173 218.36103 
L 142.884173 217.705884 
L 143.40093 217.705884 
L 143.40093 217.050738 
L 143.902815 217.050738 
L 143.902815 216.395591 
L 145.097753 216.395591 
L 145.097753 215.740445 
L 145.327221 215.740445 
L 145.327221 209.188984 
L 145.440832 209.188984 
L 145.440832 207.223546 
L 146.749392 207.223546 
L 146.854132 205.258108 
L 148.54473 205.258108 
L 148.54473 203.292669 
L 148.733265 203.292669 
L 148.733265 202.637523 
L 149.286939 202.637523 
L 149.286939 201.982377 
L 149.557321 201.982377 
L 149.557321 200.672085 
L 150.172372 200.672085 
L 150.172372 200.016939 
L 150.344189 200.016939 
L 150.344189 199.361793 
L 150.849711 199.361793 
L 150.849711 196.741208 
L 151.818809 196.741208 
L 151.818809 195.430916 
L 152.052897 195.430916 
L 152.052897 192.155186 
L 152.360205 192.155186 
L 152.360205 191.50004 
L 152.511852 191.50004 
L 152.511852 190.844894 
L 152.736878 190.844894 
L 152.736878 190.189747 
L 153.323128 190.189747 
L 153.323128 189.534601 
L 153.466662 189.534601 
L 153.466662 188.879455 
L 153.609024 188.879455 
L 153.609024 188.224309 
L 154.371897 188.224309 
L 154.371897 187.569163 
L 154.972161 187.569163 
L 154.972161 186.914017 
L 155.361158 186.914017 
L 155.361158 185.603725 
L 155.928852 185.603725 
L 155.928852 184.948579 
L 156.114049 184.948579 
L 156.114049 184.293433 
L 156.236431 184.293433 
L 156.297301 182.98314 
L 156.478647 182.98314 
L 156.478647 180.362556 
L 156.776762 180.362556 
L 156.776762 179.70741 
L 157.1279 179.70741 
L 157.1279 178.397118 
L 157.243392 178.397118 
L 157.243392 177.741972 
L 157.920731 177.741972 
L 158.031107 175.776533 
L 158.304027 175.776533 
L 158.304027 175.121387 
L 158.572743 175.121387 
L 158.67908 173.155949 
L 159.252621 173.155949 
L 159.252621 172.500803 
L 160.537682 172.500803 
L 160.537682 170.535364 
L 161.238149 170.535364 
L 161.238149 168.569926 
L 161.420284 168.569926 
L 161.420284 167.91478 
L 161.600536 167.91478 
L 161.600536 167.259634 
L 161.867469 167.259634 
L 161.867469 166.604488 
L 162.303474 166.604488 
L 162.303474 164.63905 
L 162.644595 164.63905 
L 162.644595 163.983903 
L 162.812686 163.983903 
L 162.812686 162.018465 
L 163.185069 162.018465 
L 163.185069 160.053027 
L 163.589711 160.053027 
L 163.589711 159.397881 
L 163.709295 159.397881 
L 163.788565 157.432442 
L 164.256762 157.432442 
L 164.256762 156.777296 
L 164.448194 156.777296 
L 164.448194 155.467004 
L 165.266391 155.467004 
L 165.375047 152.191274 
L 165.732422 152.191274 
L 165.732422 151.536128 
L 166.323641 151.536128 
L 166.391896 148.915543 
L 166.662278 148.915543 
L 166.662278 147.605251 
L 166.928532 147.605251 
L 166.994465 144.32952 
L 167.125588 144.32952 
L 167.125588 141.708936 
L 167.384913 141.708936 
L 167.417059 139.743498 
L 167.703739 139.743498 
L 167.798261 137.778059 
L 168.476198 137.778059 
L 168.476198 135.812621 
L 168.626667 135.812621 
L 168.71633 130.571452 
L 168.923766 130.571452 
L 168.982583 125.98543 
L 169.186895 125.98543 
L 169.244833 118.778823 
L 169.53167 118.778823 
L 169.53167 117.46853 
L 169.981016 117.46853 
L 169.981016 116.158238 
L 170.310587 116.158238 
L 170.310587 115.503092 
L 170.819995 115.503092 
L 170.925369 112.882508 
L 171.18605 112.882508 
L 171.263501 111.572215 
L 171.49381 111.572215 
L 171.569909 110.261923 
L 171.67086 110.261923 
L 171.67086 108.296485 
L 171.846131 108.296485 
L 171.920711 105.020754 
L 172.019658 105.020754 
L 172.019658 103.055316 
L 172.167033 103.055316 
L 172.167033 102.40017 
L 172.458099 102.40017 
L 172.458099 101.745024 
L 172.744386 101.745024 
L 172.815229 99.779586 
L 172.97942 99.779586 
L 173.00275 97.814147 
L 173.666095 97.814147 
L 173.666095 97.159001 
L 173.866933 97.159001 
L 173.866933 96.503855 
L 174.021557 96.503855 
L 174.109302 94.538417 
L 174.626698 94.538417 
L 174.626698 93.883271 
L 175.149812 93.883271 
L 175.252577 89.297248 
L 175.955464 89.297248 
L 176.014414 87.33181 
L 176.800705 87.33181 
L 176.875552 86.021518 
L 177.731751 86.021518 
L 177.731751 84.056079 
L 178.239812 84.056079 
L 178.239812 83.400933 
L 178.513913 83.400933 
L 178.513913 82.090641 
L 178.63249 82.090641 
L 178.716697 80.125203 
L 178.767027 80.125203 
L 178.767027 78.159764 
L 179.164521 78.159764 
L 179.164521 76.849472 
L 179.327506 76.849472 
L 179.327506 76.194326 
L 179.728427 76.194326 
L 179.728427 74.884034 
L 180.351324 74.884034 
L 180.381893 72.918596 
L 180.503634 72.918596 
L 180.503634 71.608303 
L 180.699667 71.608303 
L 180.804318 68.332573 
L 180.893522 68.332573 
L 180.893522 66.367135 
L 182.947573 66.367135 
L 182.947573 65.711988 
L 183.428598 65.711988 
L 183.428598 65.056842 
L 184.879635 65.056842 
L 184.879635 64.401696 
L 186.852213 64.401696 
L 186.852213 63.74655 
L 192.959252 63.74655 
L 192.959252 63.091404 
L 198.065083 63.091404 
L 198.065083 62.436258 
L 198.572821 62.436258 
L 198.572821 61.781112 
L 199.092327 61.781112 
L 199.092327 61.125966 
L 202.476118 61.125966 
L 202.476118 60.47082 
L 203.324115 60.47082 
L 203.324115 59.815674 
L 203.781101 59.815674 
L 203.781101 59.160527 
L 204.531125 59.160527 
L 204.531125 58.505381 
L 205.283209 58.505381 
L 205.283209 57.850235 
L 209.463772 57.850235 
L 209.475294 55.229651 
L 209.610116 55.229651 
L 209.610116 54.574505 
L 209.93567 54.574505 
L 210.039135 52.609066 
L 210.296515 52.609066 
L 210.399232 49.988482 
L 210.449684 49.988482 
L 210.555566 47.367898 
L 210.706487 47.367898 
L 210.729281 44.747313 
L 210.83082 44.747313 
L 210.833484 43.437021 
L 211.092612 43.437021 
L 211.092612 42.781875 
L 211.246781 42.781875 
L 211.283164 41.471583 
L 211.930412 41.471583 
L 211.930412 40.816437 
L 212.173853 40.816437 
L 212.205892 38.850998 
L 217.443376 38.850998 
L 217.443376 38.195852 
L 221.273644 38.195852 
L 221.33648 36.88556 
L 221.627238 36.88556 
L 221.627238 36.230414 
L 222.004717 36.230414 
L 222.004717 35.575268 
L 222.764933 35.575268 
L 222.764933 34.920122 
L 227.893596 34.920122 
L 227.942603 33.60983 
L 228.380981 33.60983 
L 228.380981 32.954683 
L 228.687974 32.954683 
L 228.687974 32.299537 
L 232.825729 32.299537 
L 232.825729 31.644391 
L 239.807958 31.644391 
L 239.831713 30.334099 
L 338.688 30.334099 
L 338.688 30.334099 
" style="fill:none;stroke:#6495ed;stroke-linecap:square;stroke-width:1.5;"/>
   </g>
   <g id="line2d_46">
    <defs>
     <path d="M -0 6 
L 6 -6 
L -6 -6 
z
" id="m95e25658d9" style="stroke:#6495ed;stroke-linejoin:miter;stroke-width:1.5;"/>
    </defs>
    <g>
     <use style="fill-opacity:0;stroke:#6495ed;stroke-linejoin:miter;stroke-width:1.5;" x="119.097192" xlink:href="#m95e25658d9" y="267.496987"/>
     <use style="fill-opacity:0;stroke:#6495ed;stroke-linejoin:miter;stroke-width:1.5;" x="169.244833" xlink:href="#m95e25658d9" y="124.019991"/>
     <use style="fill-opacity:0;stroke:#6495ed;stroke-linejoin:miter;stroke-width:1.5;" x="222.764933" xlink:href="#m95e25658d9" y="35.575268"/>
     <use style="fill-opacity:0;stroke:#6495ed;stroke-linejoin:miter;stroke-width:1.5;" x="239.831713" xlink:href="#m95e25658d9" y="30.334099"/>
     <use style="fill-opacity:0;stroke:#6495ed;stroke-linejoin:miter;stroke-width:1.5;" x="239.831713" xlink:href="#m95e25658d9" y="30.334099"/>
     <use style="fill-opacity:0;stroke:#6495ed;stroke-linejoin:miter;stroke-width:1.5;" x="338.688" xlink:href="#m95e25658d9" y="30.334099"/>
    </g>
   </g>
   <g id="line2d_47">
    <path style="fill:none;stroke:#6495ed;stroke-linecap:square;stroke-width:1.5;"/>
    <g/>
   </g>
   <g id="line2d_48">
    <path clip-path="url(#p5aa1d47103)" d="M 208.747603 57.850235 
" style="fill:none;stroke:#6495ed;stroke-linecap:square;stroke-width:1.5;"/>
    <defs>
     <path d="M -12 12 
L 12 -12 
M -12 -12 
L 12 12 
" id="m70ab0a805b" style="stroke:#6495ed;"/>
    </defs>
    <g clip-path="url(#p5aa1d47103)">
     <use style="fill:#6495ed;stroke:#6495ed;" x="208.747603" xlink:href="#m70ab0a805b" y="57.850235"/>
    </g>
   </g>
   <g id="line2d_49">
    <path d="M 338.688 30.334099 
L 369.60768 293.571802 
" style="fill:none;stroke:#6495ed;stroke-linecap:square;stroke-width:1.5;"/>
    <g>
     <use style="fill-opacity:0;stroke:#6495ed;stroke-linejoin:miter;stroke-width:1.5;" x="338.688" xlink:href="#m95e25658d9" y="30.334099"/>
     <use style="fill-opacity:0;stroke:#6495ed;stroke-linejoin:miter;stroke-width:1.5;" x="369.60768" xlink:href="#m95e25658d9" y="293.571802"/>
    </g>
   </g>
   <g id="line2d_50">
    <path d="M 338.688 30.334099 
L 369.60768 207.616634 
" style="fill:none;stroke:#000080;stroke-linecap:square;stroke-width:1.5;"/>
    <g>
     <use style="fill-opacity:0;stroke:#000080;stroke-width:1.5;" x="338.688" xlink:href="#m7e61fffdd0" y="30.334099"/>
     <use style="fill-opacity:0;stroke:#000080;stroke-width:1.5;" x="369.60768" xlink:href="#m7e61fffdd0" y="207.616634"/>
    </g>
   </g>
   <g id="line2d_51">
    <path d="M 338.688 30.334099 
L 369.60768 121.661465 
" style="fill:none;stroke:#ff00ff;stroke-linecap:square;stroke-width:1.5;"/>
    <g>
     <use style="fill-opacity:0;stroke:#ff00ff;stroke-linejoin:miter;stroke-width:1.5;" x="338.688" xlink:href="#mb836810f0a" y="30.334099"/>
     <use style="fill-opacity:0;stroke:#ff00ff;stroke-linejoin:miter;stroke-width:1.5;" x="369.60768" xlink:href="#mb836810f0a" y="121.661465"/>
    </g>
   </g>
   <g id="line2d_52">
    <path d="M 338.688 30.334099 
L 369.60768 35.706297 
" style="fill:none;stroke:#ff7500;stroke-linecap:square;stroke-width:1.5;"/>
    <g>
     <use style="fill-opacity:0;stroke:#ff7500;stroke-linejoin:bevel;stroke-width:1.5;" x="338.688" xlink:href="#m0d32c5a0c4" y="30.334099"/>
     <use style="fill-opacity:0;stroke:#ff7500;stroke-linejoin:bevel;stroke-width:1.5;" x="369.60768" xlink:href="#m0d32c5a0c4" y="35.706297"/>
    </g>
   </g>
   <g id="line2d_53">
    <path d="M 338.688 298.944 
L 338.688 30.334099 
" style="fill:none;stroke:#000000;stroke-linecap:square;stroke-width:1.5;"/>
   </g>
   <g id="patch_3">
    <path d="M 57.6 298.944 
L 57.6 27.648 
" style="fill:none;stroke:#000000;stroke-linecap:square;stroke-linejoin:miter;stroke-width:0.8;"/>
   </g>
   <g id="patch_4">
    <path d="M 338.688 298.944 
L 338.688 27.648 
" style="fill:none;stroke:#000000;stroke-linecap:square;stroke-linejoin:miter;stroke-width:0.8;"/>
   </g>
   <g id="patch_5">
    <path d="M 57.6 298.944 
L 338.688 298.944 
" style="fill:none;stroke:#000000;stroke-linecap:square;stroke-linejoin:miter;stroke-width:0.8;"/>
   </g>
   <g id="patch_6">
    <path d="M 57.6 27.648 
L 338.688 27.648 
" style="fill:none;stroke:#000000;stroke-linecap:square;stroke-linejoin:miter;stroke-width:0.8;"/>
   </g>
   <g id="text_13">
    <!-- alO5 -->
    <g transform="translate(375.22944 298.262739)scale(0.17 -0.17)">
     <defs>
      <path d="M 39.40625 66.21875 
Q 28.65625 66.21875 22.328125 58.203125 
Q 16.015625 50.203125 16.015625 36.375 
Q 16.015625 22.609375 22.328125 14.59375 
Q 28.65625 6.59375 39.40625 6.59375 
Q 50.140625 6.59375 56.421875 14.59375 
Q 62.703125 22.609375 62.703125 36.375 
Q 62.703125 50.203125 56.421875 58.203125 
Q 50.140625 66.21875 39.40625 66.21875 
z
M 39.40625 74.21875 
Q 54.734375 74.21875 63.90625 63.9375 
Q 73.09375 53.65625 73.09375 36.375 
Q 73.09375 19.140625 63.90625 8.859375 
Q 54.734375 -1.421875 39.40625 -1.421875 
Q 24.03125 -1.421875 14.8125 8.828125 
Q 5.609375 19.09375 5.609375 36.375 
Q 5.609375 53.65625 14.8125 63.9375 
Q 24.03125 74.21875 39.40625 74.21875 
z
" id="DejaVuSans-79"/>
      <path d="M 10.796875 72.90625 
L 49.515625 72.90625 
L 49.515625 64.59375 
L 19.828125 64.59375 
L 19.828125 46.734375 
Q 21.96875 47.46875 24.109375 47.828125 
Q 26.265625 48.1875 28.421875 48.1875 
Q 40.625 48.1875 47.75 41.5 
Q 54.890625 34.8125 54.890625 23.390625 
Q 54.890625 11.625 47.5625 5.09375 
Q 40.234375 -1.421875 26.90625 -1.421875 
Q 22.3125 -1.421875 17.546875 -0.640625 
Q 12.796875 0.140625 7.71875 1.703125 
L 7.71875 11.625 
Q 12.109375 9.234375 16.796875 8.0625 
Q 21.484375 6.890625 26.703125 6.890625 
Q 35.15625 6.890625 40.078125 11.328125 
Q 45.015625 15.765625 45.015625 23.390625 
Q 45.015625 31 40.078125 35.4375 
Q 35.15625 39.890625 26.703125 39.890625 
Q 22.75 39.890625 18.8125 39.015625 
Q 14.890625 38.140625 10.796875 36.28125 
z
" id="DejaVuSans-53"/>
     </defs>
     <use xlink:href="#DejaVuSans-97"/>
     <use x="61.279297" xlink:href="#DejaVuSans-108"/>
     <use x="89.0625" xlink:href="#DejaVuSans-79"/>
     <use x="167.773438" xlink:href="#DejaVuSans-53"/>
    </g>
   </g>
   <g id="text_14">
    <!-- al01 -->
    <g transform="translate(375.22944 212.307571)scale(0.17 -0.17)">
     <use xlink:href="#DejaVuSans-97"/>
     <use x="61.279297" xlink:href="#DejaVuSans-108"/>
     <use x="89.0625" xlink:href="#DejaVuSans-48"/>
     <use x="152.685547" xlink:href="#DejaVuSans-49"/>
    </g>
   </g>
   <g id="text_15">
    <!-- alN1 -->
    <g transform="translate(375.22944 126.352403)scale(0.17 -0.17)">
     <defs>
      <path d="M 9.8125 72.90625 
L 23.09375 72.90625 
L 55.421875 11.921875 
L 55.421875 72.90625 
L 64.984375 72.90625 
L 64.984375 0 
L 51.703125 0 
L 19.390625 60.984375 
L 19.390625 0 
L 9.8125 0 
z
" id="DejaVuSans-78"/>
     </defs>
     <use xlink:href="#DejaVuSans-97"/>
     <use x="61.279297" xlink:href="#DejaVuSans-108"/>
     <use x="89.0625" xlink:href="#DejaVuSans-78"/>
     <use x="163.867188" xlink:href="#DejaVuSans-49"/>
    </g>
   </g>
   <g id="text_16">
    <!-- alN5 -->
    <g transform="translate(375.22944 40.397235)scale(0.17 -0.17)">
     <use xlink:href="#DejaVuSans-97"/>
     <use x="61.279297" xlink:href="#DejaVuSans-108"/>
     <use x="89.0625" xlink:href="#DejaVuSans-78"/>
     <use x="163.867188" xlink:href="#DejaVuSans-53"/>
    </g>
   </g>
   <g id="text_17">
    <!-- bbob-constrained f31, 2-D -->
    <g transform="translate(60.41088 38.111366)scale(0.102 -0.102)">
     <defs>
      <path d="M 48.6875 27.296875 
Q 48.6875 37.203125 44.609375 42.84375 
Q 40.53125 48.484375 33.40625 48.484375 
Q 26.265625 48.484375 22.1875 42.84375 
Q 18.109375 37.203125 18.109375 27.296875 
Q 18.109375 17.390625 22.1875 11.75 
Q 26.265625 6.109375 33.40625 6.109375 
Q 40.53125 6.109375 44.609375 11.75 
Q 48.6875 17.390625 48.6875 27.296875 
z
M 18.109375 46.390625 
Q 20.953125 51.265625 25.265625 53.625 
Q 29.59375 56 35.59375 56 
Q 45.5625 56 51.78125 48.09375 
Q 58.015625 40.1875 58.015625 27.296875 
Q 58.015625 14.40625 51.78125 6.484375 
Q 45.5625 -1.421875 35.59375 -1.421875 
Q 29.59375 -1.421875 25.265625 0.953125 
Q 20.953125 3.328125 18.109375 8.203125 
L 18.109375 0 
L 9.078125 0 
L 9.078125 75.984375 
L 18.109375 75.984375 
z
" id="DejaVuSans-98"/>
      <path d="M 40.578125 39.3125 
Q 47.65625 37.796875 51.625 33 
Q 55.609375 28.21875 55.609375 21.1875 
Q 55.609375 10.40625 48.1875 4.484375 
Q 40.765625 -1.421875 27.09375 -1.421875 
Q 22.515625 -1.421875 17.65625 -0.515625 
Q 12.796875 0.390625 7.625 2.203125 
L 7.625 11.71875 
Q 11.71875 9.328125 16.59375 8.109375 
Q 21.484375 6.890625 26.8125 6.890625 
Q 36.078125 6.890625 40.9375 10.546875 
Q 45.796875 14.203125 45.796875 21.1875 
Q 45.796875 27.640625 41.28125 31.265625 
Q 36.765625 34.90625 28.71875 34.90625 
L 20.21875 34.90625 
L 20.21875 43.015625 
L 29.109375 43.015625 
Q 36.375 43.015625 40.234375 45.921875 
Q 44.09375 48.828125 44.09375 54.296875 
Q 44.09375 59.90625 40.109375 62.90625 
Q 36.140625 65.921875 28.71875 65.921875 
Q 24.65625 65.921875 20.015625 65.03125 
Q 15.375 64.15625 9.8125 62.3125 
L 9.8125 71.09375 
Q 15.4375 72.65625 20.34375 73.4375 
Q 25.25 74.21875 29.59375 74.21875 
Q 40.828125 74.21875 47.359375 69.109375 
Q 53.90625 64.015625 53.90625 55.328125 
Q 53.90625 49.265625 50.4375 45.09375 
Q 46.96875 40.921875 40.578125 39.3125 
z
" id="DejaVuSans-51"/>
      <path d="M 19.671875 64.796875 
L 19.671875 8.109375 
L 31.59375 8.109375 
Q 46.6875 8.109375 53.6875 14.9375 
Q 60.6875 21.78125 60.6875 36.53125 
Q 60.6875 51.171875 53.6875 57.984375 
Q 46.6875 64.796875 31.59375 64.796875 
z
M 9.8125 72.90625 
L 30.078125 72.90625 
Q 51.265625 72.90625 61.171875 64.09375 
Q 71.09375 55.28125 71.09375 36.53125 
Q 71.09375 17.671875 61.125 8.828125 
Q 51.171875 0 30.078125 0 
L 9.8125 0 
z
" id="DejaVuSans-68"/>
     </defs>
     <use xlink:href="#DejaVuSans-98"/>
     <use x="63.476562" xlink:href="#DejaVuSans-98"/>
     <use x="126.953125" xlink:href="#DejaVuSans-111"/>
     <use x="188.134766" xlink:href="#DejaVuSans-98"/>
     <use x="251.611328" xlink:href="#DejaVuSans-45"/>
     <use x="287.695312" xlink:href="#DejaVuSans-99"/>
     <use x="342.675781" xlink:href="#DejaVuSans-111"/>
     <use x="403.857422" xlink:href="#DejaVuSans-110"/>
     <use x="467.236328" xlink:href="#DejaVuSans-115"/>
     <use x="519.335938" xlink:href="#DejaVuSans-116"/>
     <use x="558.544922" xlink:href="#DejaVuSans-114"/>
     <use x="599.658203" xlink:href="#DejaVuSans-97"/>
     <use x="660.9375" xlink:href="#DejaVuSans-105"/>
     <use x="688.720703" xlink:href="#DejaVuSans-110"/>
     <use x="752.099609" xlink:href="#DejaVuSans-101"/>
     <use x="813.623047" xlink:href="#DejaVuSans-100"/>
     <use x="877.099609" xlink:href="#DejaVuSans-32"/>
     <use x="908.886719" xlink:href="#DejaVuSans-102"/>
     <use x="944.091797" xlink:href="#DejaVuSans-51"/>
     <use x="1007.714844" xlink:href="#DejaVuSans-49"/>
     <use x="1071.337891" xlink:href="#DejaVuSans-44"/>
     <use x="1103.125" xlink:href="#DejaVuSans-32"/>
     <use x="1134.912109" xlink:href="#DejaVuSans-50"/>
     <use x="1198.535156" xlink:href="#DejaVuSans-45"/>
     <use x="1234.619141" xlink:href="#DejaVuSans-68"/>
    </g>
    <!-- 41 targets: 100..1e-06 -->
    <g transform="translate(60.41088 49.533135)scale(0.102 -0.102)">
     <defs>
      <path d="M 11.71875 12.40625 
L 22.015625 12.40625 
L 22.015625 0 
L 11.71875 0 
z
M 11.71875 51.703125 
L 22.015625 51.703125 
L 22.015625 39.3125 
L 11.71875 39.3125 
z
" id="DejaVuSans-58"/>
     </defs>
     <use xlink:href="#DejaVuSans-52"/>
     <use x="63.623047" xlink:href="#DejaVuSans-49"/>
     <use x="127.246094" xlink:href="#DejaVuSans-32"/>
     <use x="159.033203" xlink:href="#DejaVuSans-116"/>
     <use x="198.242188" xlink:href="#DejaVuSans-97"/>
     <use x="259.521484" xlink:href="#DejaVuSans-114"/>
     <use x="298.884766" xlink:href="#DejaVuSans-103"/>
     <use x="362.361328" xlink:href="#DejaVuSans-101"/>
     <use x="423.884766" xlink:href="#DejaVuSans-116"/>
     <use x="463.09375" xlink:href="#DejaVuSans-115"/>
     <use x="515.193359" xlink:href="#DejaVuSans-58"/>
     <use x="548.884766" xlink:href="#DejaVuSans-32"/>
     <use x="580.671875" xlink:href="#DejaVuSans-49"/>
     <use x="644.294922" xlink:href="#DejaVuSans-48"/>
     <use x="707.917969" xlink:href="#DejaVuSans-48"/>
     <use x="771.541016" xlink:href="#DejaVuSans-46"/>
     <use x="803.328125" xlink:href="#DejaVuSans-46"/>
     <use x="835.115234" xlink:href="#DejaVuSans-49"/>
     <use x="898.738281" xlink:href="#DejaVuSans-101"/>
     <use x="960.261719" xlink:href="#DejaVuSans-45"/>
     <use x="996.345703" xlink:href="#DejaVuSans-48"/>
     <use x="1059.96875" xlink:href="#DejaVuSans-54"/>
    </g>
    <!-- 15 instances -->
    <g transform="translate(60.41088 60.954904)scale(0.102 -0.102)">
     <use xlink:href="#DejaVuSans-49"/>
     <use x="63.623047" xlink:href="#DejaVuSans-53"/>
     <use x="127.246094" xlink:href="#DejaVuSans-32"/>
     <use x="159.033203" xlink:href="#DejaVuSans-105"/>
     <use x="186.816406" xlink:href="#DejaVuSans-110"/>
     <use x="250.195312" xlink:href="#DejaVuSans-115"/>
     <use x="302.294922" xlink:href="#DejaVuSans-116"/>
     <use x="341.503906" xlink:href="#DejaVuSans-97"/>
     <use x="402.783203" xlink:href="#DejaVuSans-110"/>
     <use x="466.162109" xlink:href="#DejaVuSans-99"/>
     <use x="521.142578" xlink:href="#DejaVuSans-101"/>
     <use x="582.666016" xlink:href="#DejaVuSans-115"/>
    </g>
   </g>
   <g id="text_18">
    <!-- v5z33 -->
    <g style="fill:#808080;" transform="translate(183.016656 294.151352)scale(0.1 -0.1)">
     <defs>
      <path d="M 5.515625 54.6875 
L 48.1875 54.6875 
L 48.1875 46.484375 
L 14.40625 7.171875 
L 48.1875 7.171875 
L 48.1875 0 
L 4.296875 0 
L 4.296875 8.203125 
L 38.09375 47.515625 
L 5.515625 47.515625 
z
" id="DejaVuSans-122"/>
     </defs>
     <use xlink:href="#DejaVuSans-118"/>
     <use x="59.179688" xlink:href="#DejaVuSans-53"/>
     <use x="122.802734" xlink:href="#DejaVuSans-122"/>
     <use x="175.292969" xlink:href="#DejaVuSans-51"/>
     <use x="238.916016" xlink:href="#DejaVuSans-51"/>
    </g>
   </g>
   <g id="text_19">
    <!-- 31 Bent Cigar, 1 constraint -->
    <g transform="translate(63.186187 21.648)scale(0.2 -0.2)">
     <defs>
      <path d="M 19.671875 34.8125 
L 19.671875 8.109375 
L 35.5 8.109375 
Q 43.453125 8.109375 47.28125 11.40625 
Q 51.125 14.703125 51.125 21.484375 
Q 51.125 28.328125 47.28125 31.5625 
Q 43.453125 34.8125 35.5 34.8125 
z
M 19.671875 64.796875 
L 19.671875 42.828125 
L 34.28125 42.828125 
Q 41.5 42.828125 45.03125 45.53125 
Q 48.578125 48.25 48.578125 53.8125 
Q 48.578125 59.328125 45.03125 62.0625 
Q 41.5 64.796875 34.28125 64.796875 
z
M 9.8125 72.90625 
L 35.015625 72.90625 
Q 46.296875 72.90625 52.390625 68.21875 
Q 58.5 63.53125 58.5 54.890625 
Q 58.5 48.1875 55.375 44.234375 
Q 52.25 40.28125 46.1875 39.3125 
Q 53.46875 37.75 57.5 32.78125 
Q 61.53125 27.828125 61.53125 20.40625 
Q 61.53125 10.640625 54.890625 5.3125 
Q 48.25 0 35.984375 0 
L 9.8125 0 
z
" id="DejaVuSans-66"/>
      <path d="M 64.40625 67.28125 
L 64.40625 56.890625 
Q 59.421875 61.53125 53.78125 63.8125 
Q 48.140625 66.109375 41.796875 66.109375 
Q 29.296875 66.109375 22.65625 58.46875 
Q 16.015625 50.828125 16.015625 36.375 
Q 16.015625 21.96875 22.65625 14.328125 
Q 29.296875 6.6875 41.796875 6.6875 
Q 48.140625 6.6875 53.78125 8.984375 
Q 59.421875 11.28125 64.40625 15.921875 
L 64.40625 5.609375 
Q 59.234375 2.09375 53.4375 0.328125 
Q 47.65625 -1.421875 41.21875 -1.421875 
Q 24.65625 -1.421875 15.125 8.703125 
Q 5.609375 18.84375 5.609375 36.375 
Q 5.609375 53.953125 15.125 64.078125 
Q 24.65625 74.21875 41.21875 74.21875 
Q 47.75 74.21875 53.53125 72.484375 
Q 59.328125 70.75 64.40625 67.28125 
z
" id="DejaVuSans-67"/>
     </defs>
     <use xlink:href="#DejaVuSans-51"/>
     <use x="63.623047" xlink:href="#DejaVuSans-49"/>
     <use x="127.246094" xlink:href="#DejaVuSans-32"/>
     <use x="159.033203" xlink:href="#DejaVuSans-66"/>
     <use x="227.636719" xlink:href="#DejaVuSans-101"/>
     <use x="289.160156" xlink:href="#DejaVuSans-110"/>
     <use x="352.539062" xlink:href="#DejaVuSans-116"/>
     <use x="391.748047" xlink:href="#DejaVuSans-32"/>
     <use x="423.535156" xlink:href="#DejaVuSans-67"/>
     <use x="493.359375" xlink:href="#DejaVuSans-105"/>
     <use x="521.142578" xlink:href="#DejaVuSans-103"/>
     <use x="584.619141" xlink:href="#DejaVuSans-97"/>
     <use x="645.898438" xlink:href="#DejaVuSans-114"/>
     <use x="687.011719" xlink:href="#DejaVuSans-44"/>
     <use x="718.798828" xlink:href="#DejaVuSans-32"/>
     <use x="750.585938" xlink:href="#DejaVuSans-49"/>
     <use x="814.208984" xlink:href="#DejaVuSans-32"/>
     <use x="845.996094" xlink:href="#DejaVuSans-99"/>
     <use x="900.976562" xlink:href="#DejaVuSans-111"/>
     <use x="962.158203" xlink:href="#DejaVuSans-110"/>
     <use x="1025.537109" xlink:href="#DejaVuSans-115"/>
     <use x="1077.636719" xlink:href="#DejaVuSans-116"/>
     <use x="1116.845703" xlink:href="#DejaVuSans-114"/>
     <use x="1157.958984" xlink:href="#DejaVuSans-97"/>
     <use x="1219.238281" xlink:href="#DejaVuSans-105"/>
     <use x="1247.021484" xlink:href="#DejaVuSans-110"/>
     <use x="1310.400391" xlink:href="#DejaVuSans-116"/>
    </g>
   </g>
  </g>
 </g>
 <defs>
  <clipPath id="p5aa1d47103">
   <rect height="271.296" width="281.088" x="57.6" y="27.648"/>
  </clipPath>
 </defs>
</svg>
