<?xml version="1.0" encoding="utf-8" standalone="no"?>
<!DOCTYPE svg PUBLIC "-//W3C//DTD SVG 1.1//EN"
  "http://www.w3.org/Graphics/SVG/1.1/DTD/svg11.dtd">
<!-- Created with matplotlib (https://matplotlib.org/) -->
<svg height="345.6pt" version="1.1" viewBox="0 0 460.8 345.6" width="460.8pt" xmlns="http://www.w3.org/2000/svg" xmlns:xlink="http://www.w3.org/1999/xlink">
 <metadata>
  <rdf:RDF xmlns:cc="http://creativecommons.org/ns#" xmlns:dc="http://purl.org/dc/elements/1.1/" xmlns:rdf="http://www.w3.org/1999/02/22-rdf-syntax-ns#">
   <cc:Work>
    <dc:type rdf:resource="http://purl.org/dc/dcmitype/StillImage"/>
    <dc:date>2021-03-16T10:43:35.434802</dc:date>
    <dc:format>image/svg+xml</dc:format>
    <dc:creator>
     <cc:Agent>
      <dc:title>Matplotlib v3.3.3, https://matplotlib.org/</dc:title>
     </cc:Agent>
    </dc:creator>
   </cc:Work>
  </rdf:RDF>
 </metadata>
 <defs>
  <style type="text/css">*{stroke-linecap:butt;stroke-linejoin:round;}</style>
 </defs>
 <g id="figure_1">
  <g id="patch_1">
   <path d="M 0 345.6 
L 460.8 345.6 
L 460.8 0 
L 0 0 
z
" style="fill:#ffffff;"/>
  </g>
  <g id="axes_1">
   <g id="patch_2">
    <path d="M 57.6 298.944 
L 338.688 298.944 
L 338.688 27.648 
L 57.6 27.648 
z
" style="fill:#ffffff;"/>
   </g>
   <g id="matplotlib.axis_1">
    <g id="xtick_1">
     <g id="line2d_1">
      <path clip-path="url(#pa085550af9)" d="M 57.6 298.944 
L 57.6 27.648 
" style="fill:none;stroke:#b0b0b0;stroke-linecap:square;stroke-width:0.8;"/>
     </g>
     <g id="line2d_2">
      <defs>
       <path d="M 0 0 
L 0 3.5 
" id="mf4b9e9b8d9" style="stroke:#000000;stroke-width:0.8;"/>
      </defs>
      <g>
       <use style="stroke:#000000;stroke-width:0.8;" x="57.6" xlink:href="#mf4b9e9b8d9" y="298.944"/>
      </g>
     </g>
     <g id="text_1">
      <!-- 0 -->
      <g transform="translate(51.2375 321.140875)scale(0.2 -0.2)">
       <defs>
        <path d="M 31.78125 66.40625 
Q 24.171875 66.40625 20.328125 58.90625 
Q 16.5 51.421875 16.5 36.375 
Q 16.5 21.390625 20.328125 13.890625 
Q 24.171875 6.390625 31.78125 6.390625 
Q 39.453125 6.390625 43.28125 13.890625 
Q 47.125 21.390625 47.125 36.375 
Q 47.125 51.421875 43.28125 58.90625 
Q 39.453125 66.40625 31.78125 66.40625 
z
M 31.78125 74.21875 
Q 44.046875 74.21875 50.515625 64.515625 
Q 56.984375 54.828125 56.984375 36.375 
Q 56.984375 17.96875 50.515625 8.265625 
Q 44.046875 -1.421875 31.78125 -1.421875 
Q 19.53125 -1.421875 13.0625 8.265625 
Q 6.59375 17.96875 6.59375 36.375 
Q 6.59375 54.828125 13.0625 64.515625 
Q 19.53125 74.21875 31.78125 74.21875 
z
" id="DejaVuSans-48"/>
       </defs>
       <use xlink:href="#DejaVuSans-48"/>
      </g>
     </g>
    </g>
    <g id="xtick_2">
     <g id="line2d_3">
      <path clip-path="url(#pa085550af9)" d="M 137.910857 298.944 
L 137.910857 27.648 
" style="fill:none;stroke:#b0b0b0;stroke-linecap:square;stroke-width:0.8;"/>
     </g>
     <g id="line2d_4">
      <g>
       <use style="stroke:#000000;stroke-width:0.8;" x="137.910857" xlink:href="#mf4b9e9b8d9" y="298.944"/>
      </g>
     </g>
     <g id="text_2">
      <!-- 2 -->
      <g transform="translate(131.548357 321.140875)scale(0.2 -0.2)">
       <defs>
        <path d="M 19.1875 8.296875 
L 53.609375 8.296875 
L 53.609375 0 
L 7.328125 0 
L 7.328125 8.296875 
Q 12.9375 14.109375 22.625 23.890625 
Q 32.328125 33.6875 34.8125 36.53125 
Q 39.546875 41.84375 41.421875 45.53125 
Q 43.3125 49.21875 43.3125 52.78125 
Q 43.3125 58.59375 39.234375 62.25 
Q 35.15625 65.921875 28.609375 65.921875 
Q 23.96875 65.921875 18.8125 64.3125 
Q 13.671875 62.703125 7.8125 59.421875 
L 7.8125 69.390625 
Q 13.765625 71.78125 18.9375 73 
Q 24.125 74.21875 28.421875 74.21875 
Q 39.75 74.21875 46.484375 68.546875 
Q 53.21875 62.890625 53.21875 53.421875 
Q 53.21875 48.921875 51.53125 44.890625 
Q 49.859375 40.875 45.40625 35.40625 
Q 44.1875 33.984375 37.640625 27.21875 
Q 31.109375 20.453125 19.1875 8.296875 
z
" id="DejaVuSans-50"/>
       </defs>
       <use xlink:href="#DejaVuSans-50"/>
      </g>
     </g>
    </g>
    <g id="xtick_3">
     <g id="line2d_5">
      <path clip-path="url(#pa085550af9)" d="M 218.221714 298.944 
L 218.221714 27.648 
" style="fill:none;stroke:#b0b0b0;stroke-linecap:square;stroke-width:0.8;"/>
     </g>
     <g id="line2d_6">
      <g>
       <use style="stroke:#000000;stroke-width:0.8;" x="218.221714" xlink:href="#mf4b9e9b8d9" y="298.944"/>
      </g>
     </g>
     <g id="text_3">
      <!-- 4 -->
      <g transform="translate(211.859214 321.140875)scale(0.2 -0.2)">
       <defs>
        <path d="M 37.796875 64.3125 
L 12.890625 25.390625 
L 37.796875 25.390625 
z
M 35.203125 72.90625 
L 47.609375 72.90625 
L 47.609375 25.390625 
L 58.015625 25.390625 
L 58.015625 17.1875 
L 47.609375 17.1875 
L 47.609375 0 
L 37.796875 0 
L 37.796875 17.1875 
L 4.890625 17.1875 
L 4.890625 26.703125 
z
" id="DejaVuSans-52"/>
       </defs>
       <use xlink:href="#DejaVuSans-52"/>
      </g>
     </g>
    </g>
    <g id="xtick_4">
     <g id="line2d_7">
      <path clip-path="url(#pa085550af9)" d="M 298.532571 298.944 
L 298.532571 27.648 
" style="fill:none;stroke:#b0b0b0;stroke-linecap:square;stroke-width:0.8;"/>
     </g>
     <g id="line2d_8">
      <g>
       <use style="stroke:#000000;stroke-width:0.8;" x="298.532571" xlink:href="#mf4b9e9b8d9" y="298.944"/>
      </g>
     </g>
     <g id="text_4">
      <!-- 6 -->
      <g transform="translate(292.170071 321.140875)scale(0.2 -0.2)">
       <defs>
        <path d="M 33.015625 40.375 
Q 26.375 40.375 22.484375 35.828125 
Q 18.609375 31.296875 18.609375 23.390625 
Q 18.609375 15.53125 22.484375 10.953125 
Q 26.375 6.390625 33.015625 6.390625 
Q 39.65625 6.390625 43.53125 10.953125 
Q 47.40625 15.53125 47.40625 23.390625 
Q 47.40625 31.296875 43.53125 35.828125 
Q 39.65625 40.375 33.015625 40.375 
z
M 52.59375 71.296875 
L 52.59375 62.3125 
Q 48.875 64.0625 45.09375 64.984375 
Q 41.3125 65.921875 37.59375 65.921875 
Q 27.828125 65.921875 22.671875 59.328125 
Q 17.53125 52.734375 16.796875 39.40625 
Q 19.671875 43.65625 24.015625 45.921875 
Q 28.375 48.1875 33.59375 48.1875 
Q 44.578125 48.1875 50.953125 41.515625 
Q 57.328125 34.859375 57.328125 23.390625 
Q 57.328125 12.15625 50.6875 5.359375 
Q 44.046875 -1.421875 33.015625 -1.421875 
Q 20.359375 -1.421875 13.671875 8.265625 
Q 6.984375 17.96875 6.984375 36.375 
Q 6.984375 53.65625 15.1875 63.9375 
Q 23.390625 74.21875 37.203125 74.21875 
Q 40.921875 74.21875 44.703125 73.484375 
Q 48.484375 72.75 52.59375 71.296875 
z
" id="DejaVuSans-54"/>
       </defs>
       <use xlink:href="#DejaVuSans-54"/>
      </g>
     </g>
    </g>
    <g id="xtick_5">
     <g id="line2d_9">
      <path clip-path="url(#pa085550af9)" d="M 97.755429 298.944 
L 97.755429 27.648 
" style="fill:none;stroke:#b0b0b0;stroke-linecap:square;stroke-width:0.8;"/>
     </g>
     <g id="line2d_10">
      <defs>
       <path d="M 0 0 
L 0 2 
" id="m727d26dc2e" style="stroke:#000000;stroke-width:0.6;"/>
      </defs>
      <g>
       <use style="stroke:#000000;stroke-width:0.6;" x="97.755429" xlink:href="#m727d26dc2e" y="298.944"/>
      </g>
     </g>
    </g>
    <g id="xtick_6">
     <g id="line2d_11">
      <path clip-path="url(#pa085550af9)" d="M 178.066286 298.944 
L 178.066286 27.648 
" style="fill:none;stroke:#b0b0b0;stroke-linecap:square;stroke-width:0.8;"/>
     </g>
     <g id="line2d_12">
      <g>
       <use style="stroke:#000000;stroke-width:0.6;" x="178.066286" xlink:href="#m727d26dc2e" y="298.944"/>
      </g>
     </g>
    </g>
    <g id="xtick_7">
     <g id="line2d_13">
      <path clip-path="url(#pa085550af9)" d="M 258.377143 298.944 
L 258.377143 27.648 
" style="fill:none;stroke:#b0b0b0;stroke-linecap:square;stroke-width:0.8;"/>
     </g>
     <g id="line2d_14">
      <g>
       <use style="stroke:#000000;stroke-width:0.6;" x="258.377143" xlink:href="#m727d26dc2e" y="298.944"/>
      </g>
     </g>
    </g>
    <g id="xtick_8">
     <g id="line2d_15">
      <path clip-path="url(#pa085550af9)" d="M 338.688 298.944 
L 338.688 27.648 
" style="fill:none;stroke:#b0b0b0;stroke-linecap:square;stroke-width:0.8;"/>
     </g>
     <g id="line2d_16">
      <g>
       <use style="stroke:#000000;stroke-width:0.6;" x="338.688" xlink:href="#m727d26dc2e" y="298.944"/>
      </g>
     </g>
    </g>
    <g id="text_5">
     <!-- log10(# (f+g)-evals / dimension) -->
     <g transform="translate(58.145016 342.217594)scale(0.17 -0.17)">
      <defs>
       <path d="M 9.421875 75.984375 
L 18.40625 75.984375 
L 18.40625 0 
L 9.421875 0 
z
" id="DejaVuSans-108"/>
       <path d="M 30.609375 48.390625 
Q 23.390625 48.390625 19.1875 42.75 
Q 14.984375 37.109375 14.984375 27.296875 
Q 14.984375 17.484375 19.15625 11.84375 
Q 23.34375 6.203125 30.609375 6.203125 
Q 37.796875 6.203125 41.984375 11.859375 
Q 46.1875 17.53125 46.1875 27.296875 
Q 46.1875 37.015625 41.984375 42.703125 
Q 37.796875 48.390625 30.609375 48.390625 
z
M 30.609375 56 
Q 42.328125 56 49.015625 48.375 
Q 55.71875 40.765625 55.71875 27.296875 
Q 55.71875 13.875 49.015625 6.21875 
Q 42.328125 -1.421875 30.609375 -1.421875 
Q 18.84375 -1.421875 12.171875 6.21875 
Q 5.515625 13.875 5.515625 27.296875 
Q 5.515625 40.765625 12.171875 48.375 
Q 18.84375 56 30.609375 56 
z
" id="DejaVuSans-111"/>
       <path d="M 45.40625 27.984375 
Q 45.40625 37.75 41.375 43.109375 
Q 37.359375 48.484375 30.078125 48.484375 
Q 22.859375 48.484375 18.828125 43.109375 
Q 14.796875 37.75 14.796875 27.984375 
Q 14.796875 18.265625 18.828125 12.890625 
Q 22.859375 7.515625 30.078125 7.515625 
Q 37.359375 7.515625 41.375 12.890625 
Q 45.40625 18.265625 45.40625 27.984375 
z
M 54.390625 6.78125 
Q 54.390625 -7.171875 48.1875 -13.984375 
Q 42 -20.796875 29.203125 -20.796875 
Q 24.46875 -20.796875 20.265625 -20.09375 
Q 16.0625 -19.390625 12.109375 -17.921875 
L 12.109375 -9.1875 
Q 16.0625 -11.328125 19.921875 -12.34375 
Q 23.78125 -13.375 27.78125 -13.375 
Q 36.625 -13.375 41.015625 -8.765625 
Q 45.40625 -4.15625 45.40625 5.171875 
L 45.40625 9.625 
Q 42.625 4.78125 38.28125 2.390625 
Q 33.9375 0 27.875 0 
Q 17.828125 0 11.671875 7.65625 
Q 5.515625 15.328125 5.515625 27.984375 
Q 5.515625 40.671875 11.671875 48.328125 
Q 17.828125 56 27.875 56 
Q 33.9375 56 38.28125 53.609375 
Q 42.625 51.21875 45.40625 46.390625 
L 45.40625 54.6875 
L 54.390625 54.6875 
z
" id="DejaVuSans-103"/>
       <path d="M 12.40625 8.296875 
L 28.515625 8.296875 
L 28.515625 63.921875 
L 10.984375 60.40625 
L 10.984375 69.390625 
L 28.421875 72.90625 
L 38.28125 72.90625 
L 38.28125 8.296875 
L 54.390625 8.296875 
L 54.390625 0 
L 12.40625 0 
z
" id="DejaVuSans-49"/>
       <path d="M 31 75.875 
Q 24.46875 64.65625 21.28125 53.65625 
Q 18.109375 42.671875 18.109375 31.390625 
Q 18.109375 20.125 21.3125 9.0625 
Q 24.515625 -2 31 -13.1875 
L 23.1875 -13.1875 
Q 15.875 -1.703125 12.234375 9.375 
Q 8.59375 20.453125 8.59375 31.390625 
Q 8.59375 42.28125 12.203125 53.3125 
Q 15.828125 64.359375 23.1875 75.875 
z
" id="DejaVuSans-40"/>
       <path d="M 51.125 44 
L 36.921875 44 
L 32.8125 27.6875 
L 47.125 27.6875 
z
M 43.796875 71.78125 
L 38.71875 51.515625 
L 52.984375 51.515625 
L 58.109375 71.78125 
L 65.921875 71.78125 
L 60.890625 51.515625 
L 76.125 51.515625 
L 76.125 44 
L 58.984375 44 
L 54.984375 27.6875 
L 70.515625 27.6875 
L 70.515625 20.21875 
L 53.078125 20.21875 
L 48 0 
L 40.1875 0 
L 45.21875 20.21875 
L 30.90625 20.21875 
L 25.875 0 
L 18.015625 0 
L 23.09375 20.21875 
L 7.71875 20.21875 
L 7.71875 27.6875 
L 24.90625 27.6875 
L 29 44 
L 13.28125 44 
L 13.28125 51.515625 
L 30.90625 51.515625 
L 35.890625 71.78125 
z
" id="DejaVuSans-35"/>
       <path id="DejaVuSans-32"/>
       <path d="M 37.109375 75.984375 
L 37.109375 68.5 
L 28.515625 68.5 
Q 23.6875 68.5 21.796875 66.546875 
Q 19.921875 64.59375 19.921875 59.515625 
L 19.921875 54.6875 
L 34.71875 54.6875 
L 34.71875 47.703125 
L 19.921875 47.703125 
L 19.921875 0 
L 10.890625 0 
L 10.890625 47.703125 
L 2.296875 47.703125 
L 2.296875 54.6875 
L 10.890625 54.6875 
L 10.890625 58.5 
Q 10.890625 67.625 15.140625 71.796875 
Q 19.390625 75.984375 28.609375 75.984375 
z
" id="DejaVuSans-102"/>
       <path d="M 46 62.703125 
L 46 35.5 
L 73.1875 35.5 
L 73.1875 27.203125 
L 46 27.203125 
L 46 0 
L 37.796875 0 
L 37.796875 27.203125 
L 10.59375 27.203125 
L 10.59375 35.5 
L 37.796875 35.5 
L 37.796875 62.703125 
z
" id="DejaVuSans-43"/>
       <path d="M 8.015625 75.875 
L 15.828125 75.875 
Q 23.140625 64.359375 26.78125 53.3125 
Q 30.421875 42.28125 30.421875 31.390625 
Q 30.421875 20.453125 26.78125 9.375 
Q 23.140625 -1.703125 15.828125 -13.1875 
L 8.015625 -13.1875 
Q 14.5 -2 17.703125 9.0625 
Q 20.90625 20.125 20.90625 31.390625 
Q 20.90625 42.671875 17.703125 53.65625 
Q 14.5 64.65625 8.015625 75.875 
z
" id="DejaVuSans-41"/>
       <path d="M 4.890625 31.390625 
L 31.203125 31.390625 
L 31.203125 23.390625 
L 4.890625 23.390625 
z
" id="DejaVuSans-45"/>
       <path d="M 56.203125 29.59375 
L 56.203125 25.203125 
L 14.890625 25.203125 
Q 15.484375 15.921875 20.484375 11.0625 
Q 25.484375 6.203125 34.421875 6.203125 
Q 39.59375 6.203125 44.453125 7.46875 
Q 49.3125 8.734375 54.109375 11.28125 
L 54.109375 2.78125 
Q 49.265625 0.734375 44.1875 -0.34375 
Q 39.109375 -1.421875 33.890625 -1.421875 
Q 20.796875 -1.421875 13.15625 6.1875 
Q 5.515625 13.8125 5.515625 26.8125 
Q 5.515625 40.234375 12.765625 48.109375 
Q 20.015625 56 32.328125 56 
Q 43.359375 56 49.78125 48.890625 
Q 56.203125 41.796875 56.203125 29.59375 
z
M 47.21875 32.234375 
Q 47.125 39.59375 43.09375 43.984375 
Q 39.0625 48.390625 32.421875 48.390625 
Q 24.90625 48.390625 20.390625 44.140625 
Q 15.875 39.890625 15.1875 32.171875 
z
" id="DejaVuSans-101"/>
       <path d="M 2.984375 54.6875 
L 12.5 54.6875 
L 29.59375 8.796875 
L 46.6875 54.6875 
L 56.203125 54.6875 
L 35.6875 0 
L 23.484375 0 
z
" id="DejaVuSans-118"/>
       <path d="M 34.28125 27.484375 
Q 23.390625 27.484375 19.1875 25 
Q 14.984375 22.515625 14.984375 16.5 
Q 14.984375 11.71875 18.140625 8.90625 
Q 21.296875 6.109375 26.703125 6.109375 
Q 34.1875 6.109375 38.703125 11.40625 
Q 43.21875 16.703125 43.21875 25.484375 
L 43.21875 27.484375 
z
M 52.203125 31.203125 
L 52.203125 0 
L 43.21875 0 
L 43.21875 8.296875 
Q 40.140625 3.328125 35.546875 0.953125 
Q 30.953125 -1.421875 24.3125 -1.421875 
Q 15.921875 -1.421875 10.953125 3.296875 
Q 6 8.015625 6 15.921875 
Q 6 25.140625 12.171875 29.828125 
Q 18.359375 34.515625 30.609375 34.515625 
L 43.21875 34.515625 
L 43.21875 35.40625 
Q 43.21875 41.609375 39.140625 45 
Q 35.0625 48.390625 27.6875 48.390625 
Q 23 48.390625 18.546875 47.265625 
Q 14.109375 46.140625 10.015625 43.890625 
L 10.015625 52.203125 
Q 14.9375 54.109375 19.578125 55.046875 
Q 24.21875 56 28.609375 56 
Q 40.484375 56 46.34375 49.84375 
Q 52.203125 43.703125 52.203125 31.203125 
z
" id="DejaVuSans-97"/>
       <path d="M 44.28125 53.078125 
L 44.28125 44.578125 
Q 40.484375 46.53125 36.375 47.5 
Q 32.28125 48.484375 27.875 48.484375 
Q 21.1875 48.484375 17.84375 46.4375 
Q 14.5 44.390625 14.5 40.28125 
Q 14.5 37.15625 16.890625 35.375 
Q 19.28125 33.59375 26.515625 31.984375 
L 29.59375 31.296875 
Q 39.15625 29.25 43.1875 25.515625 
Q 47.21875 21.78125 47.21875 15.09375 
Q 47.21875 7.46875 41.1875 3.015625 
Q 35.15625 -1.421875 24.609375 -1.421875 
Q 20.21875 -1.421875 15.453125 -0.5625 
Q 10.6875 0.296875 5.421875 2 
L 5.421875 11.28125 
Q 10.40625 8.6875 15.234375 7.390625 
Q 20.0625 6.109375 24.8125 6.109375 
Q 31.15625 6.109375 34.5625 8.28125 
Q 37.984375 10.453125 37.984375 14.40625 
Q 37.984375 18.0625 35.515625 20.015625 
Q 33.0625 21.96875 24.703125 23.78125 
L 21.578125 24.515625 
Q 13.234375 26.265625 9.515625 29.90625 
Q 5.8125 33.546875 5.8125 39.890625 
Q 5.8125 47.609375 11.28125 51.796875 
Q 16.75 56 26.8125 56 
Q 31.78125 56 36.171875 55.265625 
Q 40.578125 54.546875 44.28125 53.078125 
z
" id="DejaVuSans-115"/>
       <path d="M 25.390625 72.90625 
L 33.6875 72.90625 
L 8.296875 -9.28125 
L 0 -9.28125 
z
" id="DejaVuSans-47"/>
       <path d="M 45.40625 46.390625 
L 45.40625 75.984375 
L 54.390625 75.984375 
L 54.390625 0 
L 45.40625 0 
L 45.40625 8.203125 
Q 42.578125 3.328125 38.25 0.953125 
Q 33.9375 -1.421875 27.875 -1.421875 
Q 17.96875 -1.421875 11.734375 6.484375 
Q 5.515625 14.40625 5.515625 27.296875 
Q 5.515625 40.1875 11.734375 48.09375 
Q 17.96875 56 27.875 56 
Q 33.9375 56 38.25 53.625 
Q 42.578125 51.265625 45.40625 46.390625 
z
M 14.796875 27.296875 
Q 14.796875 17.390625 18.875 11.75 
Q 22.953125 6.109375 30.078125 6.109375 
Q 37.203125 6.109375 41.296875 11.75 
Q 45.40625 17.390625 45.40625 27.296875 
Q 45.40625 37.203125 41.296875 42.84375 
Q 37.203125 48.484375 30.078125 48.484375 
Q 22.953125 48.484375 18.875 42.84375 
Q 14.796875 37.203125 14.796875 27.296875 
z
" id="DejaVuSans-100"/>
       <path d="M 9.421875 54.6875 
L 18.40625 54.6875 
L 18.40625 0 
L 9.421875 0 
z
M 9.421875 75.984375 
L 18.40625 75.984375 
L 18.40625 64.59375 
L 9.421875 64.59375 
z
" id="DejaVuSans-105"/>
       <path d="M 52 44.1875 
Q 55.375 50.25 60.0625 53.125 
Q 64.75 56 71.09375 56 
Q 79.640625 56 84.28125 50.015625 
Q 88.921875 44.046875 88.921875 33.015625 
L 88.921875 0 
L 79.890625 0 
L 79.890625 32.71875 
Q 79.890625 40.578125 77.09375 44.375 
Q 74.3125 48.1875 68.609375 48.1875 
Q 61.625 48.1875 57.5625 43.546875 
Q 53.515625 38.921875 53.515625 30.90625 
L 53.515625 0 
L 44.484375 0 
L 44.484375 32.71875 
Q 44.484375 40.625 41.703125 44.40625 
Q 38.921875 48.1875 33.109375 48.1875 
Q 26.21875 48.1875 22.15625 43.53125 
Q 18.109375 38.875 18.109375 30.90625 
L 18.109375 0 
L 9.078125 0 
L 9.078125 54.6875 
L 18.109375 54.6875 
L 18.109375 46.1875 
Q 21.1875 51.21875 25.484375 53.609375 
Q 29.78125 56 35.6875 56 
Q 41.65625 56 45.828125 52.96875 
Q 50 49.953125 52 44.1875 
z
" id="DejaVuSans-109"/>
       <path d="M 54.890625 33.015625 
L 54.890625 0 
L 45.90625 0 
L 45.90625 32.71875 
Q 45.90625 40.484375 42.875 44.328125 
Q 39.84375 48.1875 33.796875 48.1875 
Q 26.515625 48.1875 22.3125 43.546875 
Q 18.109375 38.921875 18.109375 30.90625 
L 18.109375 0 
L 9.078125 0 
L 9.078125 54.6875 
L 18.109375 54.6875 
L 18.109375 46.1875 
Q 21.34375 51.125 25.703125 53.5625 
Q 30.078125 56 35.796875 56 
Q 45.21875 56 50.046875 50.171875 
Q 54.890625 44.34375 54.890625 33.015625 
z
" id="DejaVuSans-110"/>
      </defs>
      <use xlink:href="#DejaVuSans-108"/>
      <use x="27.783203" xlink:href="#DejaVuSans-111"/>
      <use x="88.964844" xlink:href="#DejaVuSans-103"/>
      <use x="152.441406" xlink:href="#DejaVuSans-49"/>
      <use x="216.064453" xlink:href="#DejaVuSans-48"/>
      <use x="279.6875" xlink:href="#DejaVuSans-40"/>
      <use x="318.701172" xlink:href="#DejaVuSans-35"/>
      <use x="402.490234" xlink:href="#DejaVuSans-32"/>
      <use x="434.277344" xlink:href="#DejaVuSans-40"/>
      <use x="473.291016" xlink:href="#DejaVuSans-102"/>
      <use x="508.496094" xlink:href="#DejaVuSans-43"/>
      <use x="592.285156" xlink:href="#DejaVuSans-103"/>
      <use x="655.761719" xlink:href="#DejaVuSans-41"/>
      <use x="694.775391" xlink:href="#DejaVuSans-45"/>
      <use x="730.859375" xlink:href="#DejaVuSans-101"/>
      <use x="792.382812" xlink:href="#DejaVuSans-118"/>
      <use x="851.5625" xlink:href="#DejaVuSans-97"/>
      <use x="912.841797" xlink:href="#DejaVuSans-108"/>
      <use x="940.625" xlink:href="#DejaVuSans-115"/>
      <use x="992.724609" xlink:href="#DejaVuSans-32"/>
      <use x="1024.511719" xlink:href="#DejaVuSans-47"/>
      <use x="1058.203125" xlink:href="#DejaVuSans-32"/>
      <use x="1089.990234" xlink:href="#DejaVuSans-100"/>
      <use x="1153.466797" xlink:href="#DejaVuSans-105"/>
      <use x="1181.25" xlink:href="#DejaVuSans-109"/>
      <use x="1278.662109" xlink:href="#DejaVuSans-101"/>
      <use x="1340.185547" xlink:href="#DejaVuSans-110"/>
      <use x="1403.564453" xlink:href="#DejaVuSans-115"/>
      <use x="1455.664062" xlink:href="#DejaVuSans-105"/>
      <use x="1483.447266" xlink:href="#DejaVuSans-111"/>
      <use x="1544.628906" xlink:href="#DejaVuSans-110"/>
      <use x="1608.007812" xlink:href="#DejaVuSans-41"/>
     </g>
    </g>
   </g>
   <g id="matplotlib.axis_2">
    <g id="ytick_1">
     <g id="line2d_17">
      <path clip-path="url(#pa085550af9)" d="M 57.6 298.944 
L 338.688 298.944 
" style="fill:none;stroke:#b0b0b0;stroke-linecap:square;stroke-width:0.8;"/>
     </g>
     <g id="line2d_18">
      <defs>
       <path d="M 0 0 
L -3.5 0 
" id="mfa30b93801" style="stroke:#000000;stroke-width:0.8;"/>
      </defs>
      <g>
       <use style="stroke:#000000;stroke-width:0.8;" x="57.6" xlink:href="#mfa30b93801" y="298.944"/>
      </g>
     </g>
     <g id="text_6">
      <!-- 0.0 -->
      <g transform="translate(25.155 305.02275)scale(0.16 -0.16)">
       <defs>
        <path d="M 10.6875 12.40625 
L 21 12.40625 
L 21 0 
L 10.6875 0 
z
" id="DejaVuSans-46"/>
       </defs>
       <use xlink:href="#DejaVuSans-48"/>
       <use x="63.623047" xlink:href="#DejaVuSans-46"/>
       <use x="95.410156" xlink:href="#DejaVuSans-48"/>
      </g>
     </g>
    </g>
    <g id="ytick_2">
     <g id="line2d_19">
      <path clip-path="url(#pa085550af9)" d="M 57.6 245.22202 
L 338.688 245.22202 
" style="fill:none;stroke:#b0b0b0;stroke-linecap:square;stroke-width:0.8;"/>
     </g>
     <g id="line2d_20">
      <g>
       <use style="stroke:#000000;stroke-width:0.8;" x="57.6" xlink:href="#mfa30b93801" y="245.22202"/>
      </g>
     </g>
     <g id="text_7">
      <!-- 0.2 -->
      <g transform="translate(25.155 251.30077)scale(0.16 -0.16)">
       <use xlink:href="#DejaVuSans-48"/>
       <use x="63.623047" xlink:href="#DejaVuSans-46"/>
       <use x="95.410156" xlink:href="#DejaVuSans-50"/>
      </g>
     </g>
    </g>
    <g id="ytick_3">
     <g id="line2d_21">
      <path clip-path="url(#pa085550af9)" d="M 57.6 191.50004 
L 338.688 191.50004 
" style="fill:none;stroke:#b0b0b0;stroke-linecap:square;stroke-width:0.8;"/>
     </g>
     <g id="line2d_22">
      <g>
       <use style="stroke:#000000;stroke-width:0.8;" x="57.6" xlink:href="#mfa30b93801" y="191.50004"/>
      </g>
     </g>
     <g id="text_8">
      <!-- 0.4 -->
      <g transform="translate(25.155 197.57879)scale(0.16 -0.16)">
       <use xlink:href="#DejaVuSans-48"/>
       <use x="63.623047" xlink:href="#DejaVuSans-46"/>
       <use x="95.410156" xlink:href="#DejaVuSans-52"/>
      </g>
     </g>
    </g>
    <g id="ytick_4">
     <g id="line2d_23">
      <path clip-path="url(#pa085550af9)" d="M 57.6 137.778059 
L 338.688 137.778059 
" style="fill:none;stroke:#b0b0b0;stroke-linecap:square;stroke-width:0.8;"/>
     </g>
     <g id="line2d_24">
      <g>
       <use style="stroke:#000000;stroke-width:0.8;" x="57.6" xlink:href="#mfa30b93801" y="137.778059"/>
      </g>
     </g>
     <g id="text_9">
      <!-- 0.6 -->
      <g transform="translate(25.155 143.856809)scale(0.16 -0.16)">
       <use xlink:href="#DejaVuSans-48"/>
       <use x="63.623047" xlink:href="#DejaVuSans-46"/>
       <use x="95.410156" xlink:href="#DejaVuSans-54"/>
      </g>
     </g>
    </g>
    <g id="ytick_5">
     <g id="line2d_25">
      <path clip-path="url(#pa085550af9)" d="M 57.6 84.056079 
L 338.688 84.056079 
" style="fill:none;stroke:#b0b0b0;stroke-linecap:square;stroke-width:0.8;"/>
     </g>
     <g id="line2d_26">
      <g>
       <use style="stroke:#000000;stroke-width:0.8;" x="57.6" xlink:href="#mfa30b93801" y="84.056079"/>
      </g>
     </g>
     <g id="text_10">
      <!-- 0.8 -->
      <g transform="translate(25.155 90.134829)scale(0.16 -0.16)">
       <defs>
        <path d="M 31.78125 34.625 
Q 24.75 34.625 20.71875 30.859375 
Q 16.703125 27.09375 16.703125 20.515625 
Q 16.703125 13.921875 20.71875 10.15625 
Q 24.75 6.390625 31.78125 6.390625 
Q 38.8125 6.390625 42.859375 10.171875 
Q 46.921875 13.96875 46.921875 20.515625 
Q 46.921875 27.09375 42.890625 30.859375 
Q 38.875 34.625 31.78125 34.625 
z
M 21.921875 38.8125 
Q 15.578125 40.375 12.03125 44.71875 
Q 8.5 49.078125 8.5 55.328125 
Q 8.5 64.0625 14.71875 69.140625 
Q 20.953125 74.21875 31.78125 74.21875 
Q 42.671875 74.21875 48.875 69.140625 
Q 55.078125 64.0625 55.078125 55.328125 
Q 55.078125 49.078125 51.53125 44.71875 
Q 48 40.375 41.703125 38.8125 
Q 48.828125 37.15625 52.796875 32.3125 
Q 56.78125 27.484375 56.78125 20.515625 
Q 56.78125 9.90625 50.3125 4.234375 
Q 43.84375 -1.421875 31.78125 -1.421875 
Q 19.734375 -1.421875 13.25 4.234375 
Q 6.78125 9.90625 6.78125 20.515625 
Q 6.78125 27.484375 10.78125 32.3125 
Q 14.796875 37.15625 21.921875 38.8125 
z
M 18.3125 54.390625 
Q 18.3125 48.734375 21.84375 45.5625 
Q 25.390625 42.390625 31.78125 42.390625 
Q 38.140625 42.390625 41.71875 45.5625 
Q 45.3125 48.734375 45.3125 54.390625 
Q 45.3125 60.0625 41.71875 63.234375 
Q 38.140625 66.40625 31.78125 66.40625 
Q 25.390625 66.40625 21.84375 63.234375 
Q 18.3125 60.0625 18.3125 54.390625 
z
" id="DejaVuSans-56"/>
       </defs>
       <use xlink:href="#DejaVuSans-48"/>
       <use x="63.623047" xlink:href="#DejaVuSans-46"/>
       <use x="95.410156" xlink:href="#DejaVuSans-56"/>
      </g>
     </g>
    </g>
    <g id="ytick_6">
     <g id="line2d_27">
      <path clip-path="url(#pa085550af9)" d="M 57.6 30.334099 
L 338.688 30.334099 
" style="fill:none;stroke:#b0b0b0;stroke-linecap:square;stroke-width:0.8;"/>
     </g>
     <g id="line2d_28">
      <g>
       <use style="stroke:#000000;stroke-width:0.8;" x="57.6" xlink:href="#mfa30b93801" y="30.334099"/>
      </g>
     </g>
     <g id="text_11">
      <!-- 1.0 -->
      <g transform="translate(25.155 36.412849)scale(0.16 -0.16)">
       <use xlink:href="#DejaVuSans-49"/>
       <use x="63.623047" xlink:href="#DejaVuSans-46"/>
       <use x="95.410156" xlink:href="#DejaVuSans-48"/>
      </g>
     </g>
    </g>
    <g id="text_12">
     <!-- Fraction of function,target pairs -->
     <g transform="translate(17.619531 297.681)rotate(-90)scale(0.17 -0.17)">
      <defs>
       <path d="M 9.8125 72.90625 
L 51.703125 72.90625 
L 51.703125 64.59375 
L 19.671875 64.59375 
L 19.671875 43.109375 
L 48.578125 43.109375 
L 48.578125 34.8125 
L 19.671875 34.8125 
L 19.671875 0 
L 9.8125 0 
z
" id="DejaVuSans-70"/>
       <path d="M 41.109375 46.296875 
Q 39.59375 47.171875 37.8125 47.578125 
Q 36.03125 48 33.890625 48 
Q 26.265625 48 22.1875 43.046875 
Q 18.109375 38.09375 18.109375 28.8125 
L 18.109375 0 
L 9.078125 0 
L 9.078125 54.6875 
L 18.109375 54.6875 
L 18.109375 46.1875 
Q 20.953125 51.171875 25.484375 53.578125 
Q 30.03125 56 36.53125 56 
Q 37.453125 56 38.578125 55.875 
Q 39.703125 55.765625 41.0625 55.515625 
z
" id="DejaVuSans-114"/>
       <path d="M 48.78125 52.59375 
L 48.78125 44.1875 
Q 44.96875 46.296875 41.140625 47.34375 
Q 37.3125 48.390625 33.40625 48.390625 
Q 24.65625 48.390625 19.8125 42.84375 
Q 14.984375 37.3125 14.984375 27.296875 
Q 14.984375 17.28125 19.8125 11.734375 
Q 24.65625 6.203125 33.40625 6.203125 
Q 37.3125 6.203125 41.140625 7.25 
Q 44.96875 8.296875 48.78125 10.40625 
L 48.78125 2.09375 
Q 45.015625 0.34375 40.984375 -0.53125 
Q 36.96875 -1.421875 32.421875 -1.421875 
Q 20.0625 -1.421875 12.78125 6.34375 
Q 5.515625 14.109375 5.515625 27.296875 
Q 5.515625 40.671875 12.859375 48.328125 
Q 20.21875 56 33.015625 56 
Q 37.15625 56 41.109375 55.140625 
Q 45.0625 54.296875 48.78125 52.59375 
z
" id="DejaVuSans-99"/>
       <path d="M 18.3125 70.21875 
L 18.3125 54.6875 
L 36.8125 54.6875 
L 36.8125 47.703125 
L 18.3125 47.703125 
L 18.3125 18.015625 
Q 18.3125 11.328125 20.140625 9.421875 
Q 21.96875 7.515625 27.59375 7.515625 
L 36.8125 7.515625 
L 36.8125 0 
L 27.59375 0 
Q 17.1875 0 13.234375 3.875 
Q 9.28125 7.765625 9.28125 18.015625 
L 9.28125 47.703125 
L 2.6875 47.703125 
L 2.6875 54.6875 
L 9.28125 54.6875 
L 9.28125 70.21875 
z
" id="DejaVuSans-116"/>
       <path d="M 8.5 21.578125 
L 8.5 54.6875 
L 17.484375 54.6875 
L 17.484375 21.921875 
Q 17.484375 14.15625 20.5 10.265625 
Q 23.53125 6.390625 29.59375 6.390625 
Q 36.859375 6.390625 41.078125 11.03125 
Q 45.3125 15.671875 45.3125 23.6875 
L 45.3125 54.6875 
L 54.296875 54.6875 
L 54.296875 0 
L 45.3125 0 
L 45.3125 8.40625 
Q 42.046875 3.421875 37.71875 1 
Q 33.40625 -1.421875 27.6875 -1.421875 
Q 18.265625 -1.421875 13.375 4.4375 
Q 8.5 10.296875 8.5 21.578125 
z
M 31.109375 56 
z
" id="DejaVuSans-117"/>
       <path d="M 11.71875 12.40625 
L 22.015625 12.40625 
L 22.015625 4 
L 14.015625 -11.625 
L 7.71875 -11.625 
L 11.71875 4 
z
" id="DejaVuSans-44"/>
       <path d="M 18.109375 8.203125 
L 18.109375 -20.796875 
L 9.078125 -20.796875 
L 9.078125 54.6875 
L 18.109375 54.6875 
L 18.109375 46.390625 
Q 20.953125 51.265625 25.265625 53.625 
Q 29.59375 56 35.59375 56 
Q 45.5625 56 51.78125 48.09375 
Q 58.015625 40.1875 58.015625 27.296875 
Q 58.015625 14.40625 51.78125 6.484375 
Q 45.5625 -1.421875 35.59375 -1.421875 
Q 29.59375 -1.421875 25.265625 0.953125 
Q 20.953125 3.328125 18.109375 8.203125 
z
M 48.6875 27.296875 
Q 48.6875 37.203125 44.609375 42.84375 
Q 40.53125 48.484375 33.40625 48.484375 
Q 26.265625 48.484375 22.1875 42.84375 
Q 18.109375 37.203125 18.109375 27.296875 
Q 18.109375 17.390625 22.1875 11.75 
Q 26.265625 6.109375 33.40625 6.109375 
Q 40.53125 6.109375 44.609375 11.75 
Q 48.6875 17.390625 48.6875 27.296875 
z
" id="DejaVuSans-112"/>
      </defs>
      <use xlink:href="#DejaVuSans-70"/>
      <use x="50.269531" xlink:href="#DejaVuSans-114"/>
      <use x="91.382812" xlink:href="#DejaVuSans-97"/>
      <use x="152.662109" xlink:href="#DejaVuSans-99"/>
      <use x="207.642578" xlink:href="#DejaVuSans-116"/>
      <use x="246.851562" xlink:href="#DejaVuSans-105"/>
      <use x="274.634766" xlink:href="#DejaVuSans-111"/>
      <use x="335.816406" xlink:href="#DejaVuSans-110"/>
      <use x="399.195312" xlink:href="#DejaVuSans-32"/>
      <use x="430.982422" xlink:href="#DejaVuSans-111"/>
      <use x="492.164062" xlink:href="#DejaVuSans-102"/>
      <use x="527.369141" xlink:href="#DejaVuSans-32"/>
      <use x="559.15625" xlink:href="#DejaVuSans-102"/>
      <use x="594.361328" xlink:href="#DejaVuSans-117"/>
      <use x="657.740234" xlink:href="#DejaVuSans-110"/>
      <use x="721.119141" xlink:href="#DejaVuSans-99"/>
      <use x="776.099609" xlink:href="#DejaVuSans-116"/>
      <use x="815.308594" xlink:href="#DejaVuSans-105"/>
      <use x="843.091797" xlink:href="#DejaVuSans-111"/>
      <use x="904.273438" xlink:href="#DejaVuSans-110"/>
      <use x="967.652344" xlink:href="#DejaVuSans-44"/>
      <use x="999.439453" xlink:href="#DejaVuSans-116"/>
      <use x="1038.648438" xlink:href="#DejaVuSans-97"/>
      <use x="1099.927734" xlink:href="#DejaVuSans-114"/>
      <use x="1139.291016" xlink:href="#DejaVuSans-103"/>
      <use x="1202.767578" xlink:href="#DejaVuSans-101"/>
      <use x="1264.291016" xlink:href="#DejaVuSans-116"/>
      <use x="1303.5" xlink:href="#DejaVuSans-32"/>
      <use x="1335.287109" xlink:href="#DejaVuSans-112"/>
      <use x="1398.763672" xlink:href="#DejaVuSans-97"/>
      <use x="1460.042969" xlink:href="#DejaVuSans-105"/>
      <use x="1487.826172" xlink:href="#DejaVuSans-114"/>
      <use x="1528.939453" xlink:href="#DejaVuSans-115"/>
     </g>
    </g>
   </g>
   <g id="line2d_29">
    <defs>
     <path d="M 0 1.5 
C 0.397805 1.5 0.77937 1.341951 1.06066 1.06066 
C 1.341951 0.77937 1.5 0.397805 1.5 0 
C 1.5 -0.397805 1.341951 -0.77937 1.06066 -1.06066 
C 0.77937 -1.341951 0.397805 -1.5 0 -1.5 
C -0.397805 -1.5 -0.77937 -1.341951 -1.06066 -1.06066 
C -1.341951 -0.77937 -1.5 -0.397805 -1.5 0 
C -1.5 0.397805 -1.341951 0.77937 -1.06066 1.06066 
C -0.77937 1.341951 -0.397805 1.5 0 1.5 
z
" id="ma9b56819be" style="stroke:#000080;"/>
    </defs>
    <g>
     <use style="fill:#000080;stroke:#000080;" x="198.106583" xlink:href="#ma9b56819be" y="30.334099"/>
     <use style="fill:#000080;stroke:#000080;" x="198.106583" xlink:href="#ma9b56819be" y="30.334099"/>
    </g>
   </g>
   <g id="line2d_30">
    <path d="M 100.934985 298.944 
L 100.934985 298.288854 
L 107.009204 298.288854 
L 107.009204 297.633708 
L 110.694282 297.633708 
L 110.694282 296.978562 
L 113.022974 296.978562 
L 113.022974 294.357977 
L 119.602714 294.357977 
L 119.602714 293.702831 
L 120.093994 293.702831 
L 120.093994 293.047685 
L 123.593547 293.047685 
L 123.593547 292.392539 
L 124.743806 292.392539 
L 124.743806 291.737393 
L 125.110962 291.737393 
L 125.110962 289.771955 
L 132.893889 289.771955 
L 132.893889 289.116809 
L 136.073445 289.116809 
L 136.073445 288.461662 
L 137.37967 288.461662 
L 137.37967 287.806516 
L 139.572998 287.806516 
L 139.572998 287.15137 
L 139.730821 287.15137 
L 139.730821 286.496224 
L 140.195896 286.496224 
L 140.195896 284.530786 
L 141.235139 284.530786 
L 141.235139 283.87564 
L 142.486301 283.87564 
L 142.486301 282.565348 
L 142.619936 282.565348 
L 142.619936 279.289617 
L 144.026061 279.289617 
L 144.026061 277.979325 
L 146.431341 277.979325 
L 146.431341 277.324179 
L 146.644018 277.324179 
L 146.749392 276.013887 
L 147.164632 276.013887 
L 147.164632 275.35874 
L 147.368603 275.35874 
L 147.368603 274.703594 
L 147.86833 274.703594 
L 147.86833 274.048448 
L 148.54473 274.048448 
L 148.54473 273.393302 
L 148.733265 273.393302 
L 148.733265 272.08301 
L 149.467659 272.08301 
L 149.467659 271.427864 
L 149.735275 271.427864 
L 149.823575 270.117572 
L 150.429467 270.117572 
L 150.429467 268.152133 
L 151.260066 268.152133 
L 151.260066 264.876403 
L 151.581536 264.876403 
L 151.660987 262.255818 
L 152.207228 262.255818 
L 152.207228 261.600672 
L 152.811246 261.600672 
L 152.885298 258.324942 
L 153.250915 258.324942 
L 153.250915 257.669796 
L 153.820412 257.669796 
L 153.890309 255.704357 
L 155.102793 255.704357 
L 155.102793 254.394065 
L 155.741666 254.394065 
L 155.804285 251.773481 
L 156.052535 251.773481 
L 156.052535 251.118335 
L 156.175347 251.118335 
L 156.236431 249.808043 
L 156.598505 249.808043 
L 156.598505 248.49775 
L 156.953214 248.49775 
L 156.953214 245.877166 
L 157.243392 245.877166 
L 157.243392 244.566874 
L 157.358125 244.566874 
L 157.358125 243.911728 
L 157.58535 243.911728 
L 157.58535 243.256582 
L 157.697862 243.256582 
L 157.697862 242.601435 
L 157.920731 242.601435 
L 157.920731 241.946289 
L 158.140788 241.946289 
L 158.140788 240.635997 
L 158.412011 240.635997 
L 158.51933 239.325705 
L 158.572743 239.325705 
L 158.67908 238.015413 
L 158.83738 238.015413 
L 158.942121 234.084536 
L 159.303838 234.084536 
L 159.405822 232.774244 
L 159.557689 232.774244 
L 159.557689 232.119098 
L 160.054568 232.119098 
L 160.054568 231.463952 
L 160.249422 231.463952 
L 160.249422 230.808806 
L 160.394148 230.808806 
L 160.394148 230.15366 
L 160.537682 230.15366 
L 160.537682 229.498513 
L 160.86807 229.498513 
L 160.914762 227.533075 
L 161.007772 227.533075 
L 161.007772 226.877929 
L 161.734513 226.877929 
L 161.734513 226.222783 
L 161.867469 226.222783 
L 161.955547 223.602199 
L 162.043181 223.602199 
L 162.043181 222.947052 
L 162.173813 222.947052 
L 162.173813 222.291906 
L 162.644595 222.291906 
L 162.644595 221.63676 
L 163.266752 221.63676 
L 163.307451 220.326468 
L 163.50953 220.326468 
L 163.50953 218.36103 
L 163.629664 218.36103 
L 163.709295 215.085299 
L 163.788565 215.085299 
L 163.788565 213.119861 
L 163.985177 213.119861 
L 164.024234 210.499277 
L 164.140886 210.499277 
L 164.140886 209.188984 
L 164.486229 209.188984 
L 164.486229 208.533838 
L 164.599841 208.533838 
L 164.637547 205.913254 
L 164.9363 205.913254 
L 165.010195 203.947816 
L 165.120455 203.947816 
L 165.157053 201.982377 
L 165.76776 201.982377 
L 165.76776 201.327231 
L 166.013141 201.327231 
L 166.117256 199.361793 
L 166.493781 199.361793 
L 166.595075 198.051501 
L 166.628709 198.051501 
L 166.729224 195.430916 
L 166.829163 195.430916 
L 166.895472 193.465478 
L 166.994465 193.465478 
L 166.994465 191.50004 
L 167.223287 191.50004 
L 167.288118 188.224309 
L 167.352708 188.224309 
L 167.352708 187.569163 
L 167.513144 187.569163 
L 167.513144 186.258871 
L 167.640438 186.258871 
L 167.735303 184.948579 
L 167.954668 184.948579 
L 167.985782 182.98314 
L 168.171308 182.98314 
L 168.202038 180.362556 
L 168.293904 180.362556 
L 168.293904 178.397118 
L 168.415645 178.397118 
L 168.415645 175.776533 
L 168.626667 175.776533 
L 168.71633 173.811095 
L 168.805533 173.811095 
L 168.835167 171.845657 
L 168.923766 171.845657 
L 168.982583 169.225072 
L 169.070439 169.225072 
L 169.070439 168.569926 
L 169.302579 168.569926 
L 169.302579 167.91478 
L 169.616809 167.91478 
L 169.616809 165.949342 
L 169.729685 165.949342 
L 169.729685 165.294196 
L 170.008719 165.294196 
L 170.008719 163.328757 
L 170.310587 163.328757 
L 170.310587 162.673611 
L 170.58055 162.673611 
L 170.58055 162.018465 
L 170.925369 162.018465 
L 170.951613 160.708173 
L 171.056197 160.708173 
L 171.056197 157.432442 
L 171.18605 157.432442 
L 171.211906 156.12215 
L 171.340609 156.12215 
L 171.340609 155.467004 
L 171.49381 155.467004 
L 171.519214 152.84642 
L 171.846131 152.84642 
L 171.846131 150.880981 
L 172.044307 150.880981 
L 172.142557 149.570689 
L 172.288901 149.570689 
L 172.288901 148.915543 
L 172.530112 148.915543 
L 172.530112 148.260397 
L 172.673253 148.260397 
L 172.673253 147.605251 
L 172.815229 147.605251 
L 172.862299 144.984667 
L 172.932666 144.984667 
L 173.026049 143.019228 
L 173.049317 143.019228 
L 173.049317 142.364082 
L 173.165193 142.364082 
L 173.257343 139.088352 
L 173.462916 139.088352 
L 173.508272 133.847183 
L 173.800244 133.847183 
L 173.822502 131.226598 
L 174.043535 131.226598 
L 174.15301 127.950868 
L 174.305129 127.950868 
L 174.305129 127.295722 
L 174.879752 127.295722 
L 174.879752 125.98543 
L 175.025688 125.98543 
L 175.08786 124.675137 
L 175.170413 124.675137 
L 175.273058 120.089115 
L 175.415753 120.089115 
L 175.415753 119.433969 
L 175.537141 119.433969 
L 175.537141 118.778823 
L 175.717652 118.778823 
L 175.797284 115.503092 
L 176.286908 115.503092 
L 176.363988 110.917069 
L 176.55521 110.917069 
L 176.55521 109.606777 
L 176.668945 109.606777 
L 176.668945 108.951631 
L 176.838169 108.951631 
L 176.838169 108.296485 
L 176.950079 108.296485 
L 176.950079 107.641339 
L 177.336204 107.641339 
L 177.408792 106.331047 
L 177.48108 106.331047 
L 177.535099 104.365608 
L 177.838089 104.365608 
L 177.943781 101.089878 
L 178.048838 101.089878 
L 178.066286 98.469293 
L 178.170609 98.469293 
L 178.25707 94.538417 
L 178.394524 94.538417 
L 178.496907 93.228125 
L 178.73349 93.228125 
L 178.73349 91.262686 
L 178.950337 91.262686 
L 178.950337 90.60754 
L 179.262495 90.60754 
L 179.311276 88.642102 
L 179.376106 88.642102 
L 179.472902 84.711225 
L 179.712566 84.711225 
L 179.775924 83.400933 
L 179.854799 83.400933 
L 179.933319 79.470057 
L 180.366615 79.470057 
L 180.366615 77.504618 
L 180.518792 77.504618 
L 180.564187 75.53918 
L 180.819217 75.53918 
L 180.908345 70.953157 
L 180.967511 70.953157 
L 180.967511 70.298011 
L 181.114555 70.298011 
L 181.114555 68.987719 
L 181.289386 68.987719 
L 181.303877 67.022281 
L 181.404974 67.022281 
L 181.404974 65.711988 
L 181.619658 65.711988 
L 181.619658 65.056842 
L 181.775431 65.056842 
L 181.803604 62.436258 
L 181.999553 62.436258 
L 182.055136 59.160527 
L 182.520577 59.160527 
L 182.520577 58.505381 
L 182.722034 58.505381 
L 182.815256 55.884797 
L 182.855057 55.884797 
L 182.855057 54.574505 
L 183.10504 54.574505 
L 183.10504 53.919359 
L 183.402933 53.919359 
L 183.492595 52.609066 
L 183.708446 52.609066 
L 183.783996 49.333336 
L 183.846704 49.333336 
L 183.846704 48.67819 
L 184.082962 48.67819 
L 184.15691 45.402459 
L 184.796844 45.402459 
L 184.844202 44.092167 
L 185.090739 44.092167 
L 185.090739 42.126729 
L 185.2185 42.126729 
L 185.2185 41.471583 
L 185.954922 41.471583 
L 185.954922 40.161291 
L 186.098547 40.161291 
L 186.098547 39.506144 
L 186.338942 39.506144 
L 186.338942 38.850998 
L 187.964542 38.850998 
L 187.964542 37.540706 
L 188.229447 37.540706 
L 188.229447 36.88556 
L 188.557408 36.88556 
L 188.643199 32.954683 
L 188.709634 32.954683 
L 188.709634 32.299537 
L 189.351301 32.299537 
L 189.351301 30.989245 
L 198.106583 30.989245 
L 198.106583 30.334099 
L 338.688 30.334099 
L 338.688 30.334099 
" style="fill:none;stroke:#000080;stroke-linecap:square;stroke-width:1.5;"/>
   </g>
   <g id="line2d_31">
    <defs>
     <path d="M 0 6 
C 1.591219 6 3.117479 5.367802 4.242641 4.242641 
C 5.367802 3.117479 6 1.591219 6 0 
C 6 -1.591219 5.367802 -3.117479 4.242641 -4.242641 
C 3.117479 -5.367802 1.591219 -6 0 -6 
C -1.591219 -6 -3.117479 -5.367802 -4.242641 -4.242641 
C -5.367802 -3.117479 -6 -1.591219 -6 0 
C -6 1.591219 -5.367802 3.117479 -4.242641 4.242641 
C -3.117479 5.367802 -1.591219 6 0 6 
z
" id="mcc1bde09d8" style="stroke:#000080;stroke-width:1.5;"/>
    </defs>
    <g>
     <use style="fill-opacity:0;stroke:#000080;stroke-width:1.5;" x="158.67908" xlink:href="#mcc1bde09d8" y="238.015413"/>
     <use style="fill-opacity:0;stroke:#000080;stroke-width:1.5;" x="175.717652" xlink:href="#mcc1bde09d8" y="118.123676"/>
     <use style="fill-opacity:0;stroke:#000080;stroke-width:1.5;" x="198.106583" xlink:href="#mcc1bde09d8" y="30.334099"/>
     <use style="fill-opacity:0;stroke:#000080;stroke-width:1.5;" x="198.106583" xlink:href="#mcc1bde09d8" y="30.334099"/>
     <use style="fill-opacity:0;stroke:#000080;stroke-width:1.5;" x="338.688" xlink:href="#mcc1bde09d8" y="30.334099"/>
    </g>
   </g>
   <g id="line2d_32">
    <path style="fill:none;stroke:#000080;stroke-linecap:square;stroke-width:1.5;"/>
    <g/>
   </g>
   <g id="line2d_33">
    <defs>
     <path d="M 0 1.5 
C 0.397805 1.5 0.77937 1.341951 1.06066 1.06066 
C 1.341951 0.77937 1.5 0.397805 1.5 0 
C 1.5 -0.397805 1.341951 -0.77937 1.06066 -1.06066 
C 0.77937 -1.341951 0.397805 -1.5 0 -1.5 
C -0.397805 -1.5 -0.77937 -1.341951 -1.06066 -1.06066 
C -1.341951 -0.77937 -1.5 -0.397805 -1.5 0 
C -1.5 0.397805 -1.341951 0.77937 -1.06066 1.06066 
C -0.77937 1.341951 -0.397805 1.5 0 1.5 
z
" id="m5fb93d6575" style="stroke:#ff00ff;"/>
    </defs>
    <g>
     <use style="fill:#ff00ff;stroke:#ff00ff;" x="196.099789" xlink:href="#m5fb93d6575" y="30.334099"/>
     <use style="fill:#ff00ff;stroke:#ff00ff;" x="196.099789" xlink:href="#m5fb93d6575" y="30.334099"/>
    </g>
   </g>
   <g id="line2d_34">
    <path d="M 124.743806 298.944 
L 124.743806 298.288854 
L 126.168212 298.288854 
L 126.168212 295.66827 
L 126.50685 295.66827 
L 126.50685 295.013123 
L 129.290685 295.013123 
L 129.290685 294.357977 
L 132.893889 294.357977 
L 132.893889 293.702831 
L 137.735587 293.702831 
L 137.735587 292.392539 
L 140.499195 292.392539 
L 140.499195 291.737393 
L 140.64889 291.737393 
L 140.64889 288.461662 
L 140.79731 288.461662 
L 140.79731 287.806516 
L 141.80232 287.806516 
L 141.80232 287.15137 
L 142.07914 287.15137 
L 142.07914 286.496224 
L 142.486301 286.496224 
L 142.486301 285.185932 
L 143.40093 285.185932 
L 143.40093 284.530786 
L 144.747789 284.530786 
L 144.747789 283.87564 
L 145.553708 283.87564 
L 145.553708 283.220494 
L 146.538004 283.220494 
L 146.538004 281.910201 
L 147.061745 281.910201 
L 147.061745 281.255055 
L 147.86833 281.255055 
L 147.86833 279.944763 
L 148.258051 279.944763 
L 148.258051 277.979325 
L 148.449693 277.979325 
L 148.449693 276.669033 
L 148.733265 276.669033 
L 148.733265 276.013887 
L 150.344189 276.013887 
L 150.344189 274.703594 
L 150.598782 274.703594 
L 150.598782 274.048448 
L 151.818809 274.048448 
L 151.897188 272.738156 
L 153.105587 272.738156 
L 153.105587 272.08301 
L 153.750233 272.08301 
L 153.750233 270.772718 
L 153.959927 270.772718 
L 153.959927 270.117572 
L 154.167129 270.117572 
L 154.167129 269.462426 
L 154.371897 269.462426 
L 154.371897 268.152133 
L 155.232454 268.152133 
L 155.232454 267.496987 
L 155.425155 267.496987 
L 155.425155 266.841841 
L 155.86668 266.841841 
L 155.928852 264.876403 
L 156.418408 264.876403 
L 156.478647 262.910965 
L 156.538679 262.910965 
L 156.538679 260.945526 
L 156.717545 260.945526 
L 156.717545 260.29038 
L 157.809652 260.29038 
L 157.809652 259.635234 
L 158.195371 259.635234 
L 158.249784 258.324942 
L 158.572743 258.324942 
L 158.572743 257.669796 
L 158.732007 257.669796 
L 158.784773 255.704357 
L 158.994256 255.704357 
L 159.046236 251.773481 
L 159.456591 251.773481 
L 159.456591 251.118335 
L 160.103486 251.118335 
L 160.152267 249.808043 
L 160.680044 249.808043 
L 160.774311 247.187458 
L 160.821253 247.187458 
L 160.821253 246.532312 
L 161.329454 246.532312 
L 161.420284 243.911728 
L 162.043181 243.911728 
L 162.043181 242.601435 
L 162.346481 242.601435 
L 162.346481 241.291143 
L 163.103002 241.291143 
L 163.185069 239.980851 
L 163.307451 239.980851 
L 163.348054 237.360267 
L 163.669525 237.360267 
L 163.709295 233.42939 
L 163.985177 233.42939 
L 163.985177 232.774244 
L 164.140886 232.774244 
L 164.179597 230.15366 
L 164.333587 230.15366 
L 164.371873 228.843367 
L 164.899235 228.843367 
L 164.9363 226.222783 
L 165.120455 226.222783 
L 165.120455 225.567637 
L 165.411116 225.567637 
L 165.518877 222.291906 
L 165.55465 222.291906 
L 165.661531 220.326468 
L 165.978297 220.326468 
L 166.08262 219.016176 
L 166.151824 219.016176 
L 166.220754 217.705884 
L 166.289413 217.705884 
L 166.289413 217.050738 
L 166.527611 217.050738 
L 166.628709 215.085299 
L 166.928532 215.085299 
L 167.027338 213.119861 
L 167.190782 213.119861 
L 167.288118 210.499277 
L 167.384913 210.499277 
L 167.449146 207.223546 
L 167.892273 207.223546 
L 167.985782 205.913254 
L 168.140524 205.913254 
L 168.171308 203.947816 
L 168.263336 203.947816 
L 168.324419 202.637523 
L 168.385289 202.637523 
L 168.476198 200.672085 
L 168.506396 200.672085 
L 168.596677 196.741208 
L 168.71633 196.741208 
L 168.805533 194.77577 
L 168.894283 194.77577 
L 168.894283 194.120624 
L 169.011918 194.120624 
L 169.011918 193.465478 
L 169.186895 193.465478 
L 169.215888 192.155186 
L 169.302579 192.155186 
L 169.331381 188.224309 
L 169.417501 188.224309 
L 169.503198 184.948579 
L 169.53167 184.948579 
L 169.53167 182.98314 
L 169.729685 182.98314 
L 169.75779 181.672848 
L 169.841835 181.672848 
L 169.925477 178.397118 
L 170.008719 178.397118 
L 170.008719 177.086825 
L 170.14658 177.086825 
L 170.174022 175.121387 
L 170.28336 175.121387 
L 170.28336 173.811095 
L 171.237722 173.811095 
L 171.314944 169.225072 
L 171.67086 169.225072 
L 171.696007 167.91478 
L 171.895887 167.91478 
L 171.920711 166.604488 
L 172.068921 166.604488 
L 172.068921 165.949342 
L 172.240256 165.949342 
L 172.240256 165.294196 
L 172.361615 165.294196 
L 172.361615 164.63905 
L 172.530112 164.63905 
L 172.530112 163.328757 
L 172.673253 163.328757 
L 172.673253 162.673611 
L 172.885786 162.673611 
L 172.956059 161.363319 
L 173.00275 161.363319 
L 173.072554 159.397881 
L 173.188276 159.397881 
L 173.257343 156.12215 
L 173.394661 156.12215 
L 173.440194 154.156712 
L 173.530906 154.156712 
L 173.621148 152.84642 
L 173.911252 152.84642 
L 174.021557 150.880981 
L 174.240098 150.880981 
L 174.348349 148.260397 
L 174.369919 148.260397 
L 174.47737 145.639813 
L 174.584164 145.639813 
L 174.690307 141.708936 
L 174.732584 141.708936 
L 174.795808 139.088352 
L 174.879752 139.088352 
L 174.984116 135.157475 
L 175.025688 135.157475 
L 175.025688 134.502329 
L 175.232072 134.502329 
L 175.232072 133.192037 
L 175.516968 133.192037 
L 175.597519 131.226598 
L 175.876553 131.226598 
L 175.896315 128.606014 
L 175.994786 128.606014 
L 175.994786 127.950868 
L 176.24824 127.950868 
L 176.24824 127.295722 
L 176.421575 127.295722 
L 176.517133 125.98543 
L 176.55521 125.98543 
L 176.55521 123.364845 
L 176.668945 123.364845 
L 176.668945 122.709699 
L 176.819447 122.709699 
L 176.819447 121.399407 
L 176.950079 121.399407 
L 177.042792 118.778823 
L 177.098184 118.778823 
L 177.135015 116.813384 
L 177.354379 116.813384 
L 177.463036 109.606777 
L 177.517111 109.606777 
L 177.588952 106.331047 
L 177.802715 106.331047 
L 177.891015 103.055316 
L 178.013889 103.055316 
L 178.083716 101.089878 
L 178.274311 101.089878 
L 178.377401 96.503855 
L 178.411629 96.503855 
L 178.462846 94.538417 
L 178.699888 94.538417 
L 178.783772 92.572979 
L 178.833909 92.572979 
L 178.833909 91.917832 
L 179.065994 91.917832 
L 179.065994 90.60754 
L 179.456806 90.60754 
L 179.488982 89.297248 
L 179.601132 89.297248 
L 179.664896 87.33181 
L 179.760106 87.33181 
L 179.854799 86.021518 
L 179.933319 86.021518 
L 179.933319 84.711225 
L 180.07377 84.711225 
L 180.151313 82.745787 
L 180.2131 82.745787 
L 180.2131 82.090641 
L 180.427645 82.090641 
L 180.518792 78.81491 
L 180.669651 78.81491 
L 180.714656 76.849472 
L 180.819217 76.849472 
L 180.863838 75.53918 
L 180.982272 75.53918 
L 180.997019 73.573742 
L 181.099906 73.573742 
L 181.099906 72.263449 
L 181.289386 72.263449 
L 181.361719 70.953157 
L 181.419369 70.953157 
L 181.433752 69.642865 
L 181.534102 69.642865 
L 181.619658 67.677427 
L 181.66228 67.677427 
L 181.718947 65.056842 
L 181.817674 65.056842 
L 181.817674 63.74655 
L 181.943792 63.74655 
L 182.041257 61.125966 
L 182.193325 61.125966 
L 182.289409 59.815674 
L 182.61488 59.815674 
L 182.708675 57.195089 
L 182.855057 57.195089 
L 182.855057 56.539943 
L 183.013357 56.539943 
L 183.013357 55.884797 
L 183.209233 55.884797 
L 183.222213 53.919359 
L 183.670549 53.919359 
L 183.695823 51.95392 
L 183.821648 51.95392 
L 183.921659 49.988482 
L 184.033489 49.988482 
L 184.033489 46.712752 
L 184.193766 46.712752 
L 184.255021 45.402459 
L 184.642039 45.402459 
L 184.642039 43.437021 
L 184.867832 43.437021 
L 184.879635 42.126729 
L 185.368293 42.126729 
L 185.368293 41.471583 
L 185.618894 41.471583 
L 185.68662 38.195852 
L 186.262811 38.195852 
L 186.262811 36.88556 
L 186.672152 36.88556 
L 186.672152 36.230414 
L 188.671702 36.230414 
L 188.671702 35.575268 
L 192.397194 35.575268 
L 192.397194 34.920122 
L 192.542267 34.920122 
L 192.542267 34.264976 
L 192.903482 34.264976 
L 192.903482 33.60983 
L 193.15489 33.60983 
L 193.15489 32.954683 
L 195.564606 32.954683 
L 195.634798 31.644391 
L 196.099789 31.644391 
L 196.099789 30.334099 
L 338.688 30.334099 
L 338.688 30.334099 
" style="fill:none;stroke:#ff00ff;stroke-linecap:square;stroke-width:1.5;"/>
   </g>
   <g id="line2d_35">
    <defs>
     <path d="M -0 8.485281 
L 5.091169 0 
L 0 -8.485281 
L -5.091169 -0 
z
" id="m27655d0fe5" style="stroke:#ff00ff;stroke-linejoin:miter;stroke-width:1.5;"/>
    </defs>
    <g>
     <use style="fill-opacity:0;stroke:#ff00ff;stroke-linejoin:miter;stroke-width:1.5;" x="170.28336" xlink:href="#m27655d0fe5" y="175.121387"/>
     <use style="fill-opacity:0;stroke:#ff00ff;stroke-linejoin:miter;stroke-width:1.5;" x="196.099789" xlink:href="#m27655d0fe5" y="31.644391"/>
     <use style="fill-opacity:0;stroke:#ff00ff;stroke-linejoin:miter;stroke-width:1.5;" x="196.099789" xlink:href="#m27655d0fe5" y="30.334099"/>
     <use style="fill-opacity:0;stroke:#ff00ff;stroke-linejoin:miter;stroke-width:1.5;" x="196.099789" xlink:href="#m27655d0fe5" y="30.334099"/>
     <use style="fill-opacity:0;stroke:#ff00ff;stroke-linejoin:miter;stroke-width:1.5;" x="338.688" xlink:href="#m27655d0fe5" y="30.334099"/>
    </g>
   </g>
   <g id="line2d_36">
    <path style="fill:none;stroke:#ff00ff;stroke-linecap:square;stroke-width:1.5;"/>
    <g/>
   </g>
   <g id="line2d_37">
    <defs>
     <path d="M 0 1.5 
C 0.397805 1.5 0.77937 1.341951 1.06066 1.06066 
C 1.341951 0.77937 1.5 0.397805 1.5 0 
C 1.5 -0.397805 1.341951 -0.77937 1.06066 -1.06066 
C 0.77937 -1.341951 0.397805 -1.5 0 -1.5 
C -0.397805 -1.5 -0.77937 -1.341951 -1.06066 -1.06066 
C -1.341951 -0.77937 -1.5 -0.397805 -1.5 0 
C -1.5 0.397805 -1.341951 0.77937 -1.06066 1.06066 
C -0.77937 1.341951 -0.397805 1.5 0 1.5 
z
" id="m3b825c4e4c" style="stroke:#ff7500;"/>
    </defs>
    <g>
     <use style="fill:#ff7500;stroke:#ff7500;" x="200.563983" xlink:href="#m3b825c4e4c" y="30.334099"/>
     <use style="fill:#ff7500;stroke:#ff7500;" x="200.563983" xlink:href="#m3b825c4e4c" y="30.334099"/>
    </g>
   </g>
   <g id="line2d_38">
    <path d="M 114.418861 298.944 
L 114.418861 297.633708 
L 120.093994 297.633708 
L 120.093994 296.978562 
L 123.593547 296.978562 
L 123.593547 294.357977 
L 123.985457 294.357977 
L 123.985457 292.392539 
L 124.743806 292.392539 
L 124.743806 291.082247 
L 125.470548 291.082247 
L 125.470548 288.461662 
L 125.822869 288.461662 
L 125.822869 287.806516 
L 129.853291 287.806516 
L 129.853291 287.15137 
L 130.926816 287.15137 
L 130.926816 286.496224 
L 131.439773 286.496224 
L 131.439773 285.841078 
L 134.661403 285.841078 
L 134.661403 285.185932 
L 135.681535 285.185932 
L 135.681535 284.530786 
L 137.016339 284.530786 
L 137.016339 283.87564 
L 137.558536 283.87564 
L 137.558536 283.220494 
L 137.735587 283.220494 
L 137.735587 282.565348 
L 139.253002 282.565348 
L 139.253002 281.910201 
L 139.887228 281.910201 
L 139.887228 281.255055 
L 140.348205 281.255055 
L 140.348205 280.599909 
L 141.80232 280.599909 
L 141.80232 279.944763 
L 142.07914 279.944763 
L 142.07914 277.979325 
L 142.884173 277.979325 
L 142.884173 277.324179 
L 143.527762 277.324179 
L 143.527762 276.669033 
L 144.390658 276.669033 
L 144.390658 274.703594 
L 144.629556 274.703594 
L 144.629556 274.048448 
L 144.747789 274.048448 
L 144.747789 273.393302 
L 148.354135 273.393302 
L 148.354135 272.738156 
L 148.54473 272.738156 
L 148.54473 272.08301 
L 148.733265 272.08301 
L 148.733265 271.427864 
L 149.104327 271.427864 
L 149.104327 270.772718 
L 149.646525 270.772718 
L 149.646525 270.117572 
L 149.911431 270.117572 
L 149.998846 268.807279 
L 150.598782 268.807279 
L 150.598782 267.496987 
L 151.260066 267.496987 
L 151.260066 266.841841 
L 151.501723 266.841841 
L 151.581536 265.531549 
L 151.818809 265.531549 
L 151.818809 264.876403 
L 152.052897 264.876403 
L 152.052897 263.566111 
L 152.283884 263.566111 
L 152.283884 262.255818 
L 152.511852 262.255818 
L 152.511852 261.600672 
L 152.885298 261.600672 
L 152.885298 260.29038 
L 153.750233 260.29038 
L 153.750233 259.635234 
L 154.098334 259.635234 
L 154.098334 258.980088 
L 154.235652 258.980088 
L 154.235652 258.324942 
L 154.439623 258.324942 
L 154.507086 256.359504 
L 154.972161 256.359504 
L 154.972161 254.394065 
L 155.296925 254.394065 
L 155.296925 253.738919 
L 155.86668 253.738919 
L 155.86668 253.083773 
L 156.357959 253.083773 
L 156.357959 252.428627 
L 156.538679 252.428627 
L 156.538679 249.152896 
L 156.717545 249.152896 
L 156.776762 247.842604 
L 156.894595 247.842604 
L 156.953214 245.877166 
L 157.011638 245.877166 
L 157.069866 244.566874 
L 157.243392 244.566874 
L 157.243392 243.256582 
L 157.58535 243.256582 
L 157.58535 242.601435 
L 157.697862 242.601435 
L 157.697862 241.291143 
L 157.976006 241.291143 
L 157.976006 239.980851 
L 158.140788 239.980851 
L 158.140788 239.325705 
L 158.625992 239.325705 
L 158.732007 238.015413 
L 158.994256 238.015413 
L 158.994256 237.360267 
L 161.192316 237.360267 
L 161.238149 235.394828 
L 161.465522 235.394828 
L 161.510643 234.084536 
L 161.689969 234.084536 
L 161.689969 233.42939 
L 161.999419 233.42939 
L 162.043181 231.463952 
L 162.770815 231.463952 
L 162.854457 228.843367 
L 163.061823 228.843367 
L 163.061823 227.533075 
L 163.867476 227.533075 
L 163.867476 226.877929 
L 165.120455 226.877929 
L 165.157053 225.567637 
L 165.55465 225.567637 
L 165.625977 223.602199 
L 165.803027 223.602199 
L 165.803027 222.947052 
L 166.255117 222.947052 
L 166.357802 220.981614 
L 166.628709 220.981614 
L 166.628709 219.671322 
L 166.7626 219.671322 
L 166.862349 216.395591 
L 166.895472 216.395591 
L 166.96153 215.085299 
L 167.06015 215.085299 
L 167.06015 213.119861 
L 167.513144 213.119861 
L 167.545055 209.188984 
L 167.703739 209.188984 
L 167.703739 208.533838 
L 167.985782 208.533838 
L 168.078792 207.223546 
L 168.109685 207.223546 
L 168.109685 206.5684 
L 168.324419 206.5684 
L 168.385289 203.947816 
L 168.476198 203.947816 
L 168.476198 201.982377 
L 169.041203 201.982377 
L 169.041203 201.327231 
L 169.360135 201.327231 
L 169.360135 200.672085 
L 169.474679 200.672085 
L 169.474679 200.016939 
L 169.673338 200.016939 
L 169.673338 199.361793 
L 170.526891 199.361793 
L 170.526891 198.706647 
L 170.767069 198.706647 
L 170.819995 197.396355 
L 170.951613 197.396355 
L 170.951613 196.741208 
L 171.160157 196.741208 
L 171.263501 192.155186 
L 171.314944 192.155186 
L 171.314944 191.50004 
L 171.569909 191.50004 
L 171.595202 186.914017 
L 171.871027 186.914017 
L 171.970255 184.293433 
L 172.118046 184.293433 
L 172.191475 182.98314 
L 172.240256 182.98314 
L 172.288901 181.017702 
L 172.409924 181.017702 
L 172.506141 179.052264 
L 172.60183 179.052264 
L 172.62567 177.741972 
L 172.791647 177.741972 
L 172.862299 176.431679 
L 172.909242 176.431679 
L 172.909242 175.121387 
L 173.188276 175.121387 
L 173.188276 173.811095 
L 173.326137 173.811095 
L 173.417442 171.845657 
L 173.530906 171.845657 
L 173.530906 171.190511 
L 173.911252 171.190511 
L 173.999552 167.91478 
L 174.043535 167.91478 
L 174.15301 165.949342 
L 174.541525 165.949342 
L 174.584164 162.673611 
L 174.66913 162.673611 
L 174.732584 160.053027 
L 175.046437 160.053027 
L 175.129186 157.432442 
L 175.19099 157.432442 
L 175.293514 156.12215 
L 175.476552 156.12215 
L 175.476552 155.467004 
L 175.737594 155.467004 
L 175.737594 154.811858 
L 176.402401 154.811858 
L 176.402401 153.501566 
L 176.517133 153.501566 
L 176.55521 150.880981 
L 176.687829 150.880981 
L 176.763161 149.570689 
L 176.819447 149.570689 
L 176.838169 147.605251 
L 176.950079 147.605251 
L 177.005766 146.294959 
L 177.660498 146.294959 
L 177.660498 145.639813 
L 177.820411 145.639813 
L 177.820411 144.984667 
L 178.411629 144.984667 
L 178.479885 140.398644 
L 178.833909 140.398644 
L 178.833909 138.433206 
L 179.065994 138.433206 
L 179.065994 137.778059 
L 179.27877 137.778059 
L 179.27877 137.122913 
L 179.505048 137.122913 
L 179.505048 136.467767 
L 179.839052 136.467767 
L 179.839052 135.812621 
L 180.042657 135.812621 
L 180.042657 135.157475 
L 180.182234 135.157475 
L 180.182234 134.502329 
L 180.320702 134.502329 
L 180.320702 133.847183 
L 180.442869 133.847183 
L 180.442869 130.571452 
L 180.594385 130.571452 
L 180.594385 129.916306 
L 180.819217 129.916306 
L 180.819217 129.26116 
L 181.114555 129.26116 
L 181.114555 128.606014 
L 181.54839 128.606014 
L 181.54839 127.295722 
L 181.873839 127.295722 
L 181.943792 125.98543 
L 182.027367 125.98543 
L 182.027367 125.330284 
L 182.26201 125.330284 
L 182.344078 122.054553 
L 182.425761 122.054553 
L 182.425761 120.744261 
L 182.561055 120.744261 
L 182.668539 118.123676 
L 182.735382 118.123676 
L 182.735382 117.46853 
L 183.013357 117.46853 
L 183.013357 116.813384 
L 183.157214 116.813384 
L 183.157214 116.158238 
L 183.35149 116.158238 
L 183.35149 115.503092 
L 183.543625 115.503092 
L 183.543625 114.847946 
L 183.733666 114.847946 
L 183.733666 113.537654 
L 184.144607 113.537654 
L 184.206035 112.227362 
L 184.303871 112.227362 
L 184.38903 110.261923 
L 184.485848 110.261923 
L 184.546087 107.641339 
L 184.653996 107.641339 
L 184.725567 105.020754 
L 185.044047 105.020754 
L 185.044047 104.365608 
L 185.230068 104.365608 
L 185.241629 103.055316 
L 185.356816 103.055316 
L 185.356816 102.40017 
L 185.539547 102.40017 
L 185.550905 100.434732 
L 185.709137 100.434732 
L 185.709137 98.469293 
L 185.854792 98.469293 
L 185.854792 97.814147 
L 186.076527 97.814147 
L 186.175396 95.848709 
L 186.251908 95.848709 
L 186.360632 94.538417 
L 186.382296 94.538417 
L 186.382296 93.883271 
L 186.682796 93.883271 
L 186.682796 93.228125 
L 186.915323 93.228125 
L 187.009561 89.952394 
L 187.124054 89.952394 
L 187.217174 87.33181 
L 187.554422 87.33181 
L 187.604956 85.366371 
L 187.825583 85.366371 
L 187.924952 84.056079 
L 188.004042 84.056079 
L 188.102403 82.090641 
L 188.365238 82.090641 
L 188.365238 80.125203 
L 188.662206 80.125203 
L 188.766378 78.159764 
L 189.496781 78.159764 
L 189.578083 73.573742 
L 189.908399 73.573742 
L 189.95256 71.608303 
L 190.07562 71.608303 
L 190.07562 70.953157 
L 190.353682 70.953157 
L 190.353682 69.642865 
L 190.601901 69.642865 
L 190.652819 67.022281 
L 190.745784 67.022281 
L 190.745784 66.367135 
L 191.129263 66.367135 
L 191.129263 65.711988 
L 191.464095 65.711988 
L 191.528685 64.401696 
L 191.665149 64.401696 
L 191.665149 62.436258 
L 192.431662 62.436258 
L 192.431662 61.781112 
L 192.576451 61.781112 
L 192.614354 59.160527 
L 192.936966 59.160527 
L 192.936966 58.505381 
L 193.21718 58.505381 
L 193.319292 56.539943 
L 193.399106 56.539943 
L 193.399106 55.884797 
L 193.785707 55.884797 
L 193.8352 53.919359 
L 195.134145 53.919359 
L 195.16034 52.609066 
L 195.433037 52.609066 
L 195.433037 51.95392 
L 195.758537 51.95392 
L 195.846837 48.67819 
L 196.152415 48.67819 
L 196.238748 46.712752 
L 196.40405 46.712752 
L 196.40405 44.747313 
L 196.543638 44.747313 
L 196.561763 43.437021 
L 197.248531 43.437021 
L 197.248531 42.781875 
L 197.530698 42.781875 
L 197.530698 42.126729 
L 198.186535 42.126729 
L 198.186535 41.471583 
L 198.388906 41.471583 
L 198.410644 40.161291 
L 198.781421 40.161291 
L 198.855699 38.850998 
L 198.940202 38.850998 
L 198.940202 37.540706 
L 199.180892 37.540706 
L 199.191281 36.230414 
L 199.753393 36.230414 
L 199.753393 35.575268 
L 199.873664 35.575268 
L 199.873664 34.920122 
L 200.017894 34.920122 
L 200.101892 32.954683 
L 200.317436 32.954683 
L 200.317436 32.299537 
L 200.467713 32.299537 
L 200.563983 30.334099 
L 338.688 30.334099 
L 338.688 30.334099 
" style="fill:none;stroke:#ff7500;stroke-linecap:square;stroke-width:1.5;"/>
   </g>
   <g id="line2d_39">
    <defs>
     <path d="M 0 -6 
L -1.347084 -1.854102 
L -5.706339 -1.854102 
L -2.179628 0.708204 
L -3.526712 4.854102 
L -0 2.291796 
L 3.526712 4.854102 
L 2.179628 0.708204 
L 5.706339 -1.854102 
L 1.347084 -1.854102 
z
" id="m1e06911f13" style="stroke:#ff7500;stroke-linejoin:bevel;stroke-width:1.5;"/>
    </defs>
    <g>
     <use style="fill-opacity:0;stroke:#ff7500;stroke-linejoin:bevel;stroke-width:1.5;" x="149.998846" xlink:href="#m1e06911f13" y="268.807279"/>
     <use style="fill-opacity:0;stroke:#ff7500;stroke-linejoin:bevel;stroke-width:1.5;" x="185.539547" xlink:href="#m1e06911f13" y="101.089878"/>
     <use style="fill-opacity:0;stroke:#ff7500;stroke-linejoin:bevel;stroke-width:1.5;" x="200.563983" xlink:href="#m1e06911f13" y="31.644391"/>
     <use style="fill-opacity:0;stroke:#ff7500;stroke-linejoin:bevel;stroke-width:1.5;" x="200.563983" xlink:href="#m1e06911f13" y="30.334099"/>
     <use style="fill-opacity:0;stroke:#ff7500;stroke-linejoin:bevel;stroke-width:1.5;" x="338.688" xlink:href="#m1e06911f13" y="30.334099"/>
    </g>
   </g>
   <g id="line2d_40">
    <path style="fill:none;stroke:#ff7500;stroke-linecap:square;stroke-width:1.5;"/>
    <g/>
   </g>
   <g id="line2d_41">
    <defs>
     <path d="M 0 1.5 
C 0.397805 1.5 0.77937 1.341951 1.06066 1.06066 
C 1.341951 0.77937 1.5 0.397805 1.5 0 
C 1.5 -0.397805 1.341951 -0.77937 1.06066 -1.06066 
C 0.77937 -1.341951 0.397805 -1.5 0 -1.5 
C -0.397805 -1.5 -0.77937 -1.341951 -1.06066 -1.06066 
C -1.341951 -0.77937 -1.5 -0.397805 -1.5 0 
C -1.5 0.397805 -1.341951 0.77937 -1.06066 1.06066 
C -0.77937 1.341951 -0.397805 1.5 0 1.5 
z
" id="m3ea3e8af55" style="stroke:#6495ed;"/>
    </defs>
    <g>
     <use style="fill:#6495ed;stroke:#6495ed;" x="212.643569" xlink:href="#m3ea3e8af55" y="30.334099"/>
     <use style="fill:#6495ed;stroke:#6495ed;" x="212.643569" xlink:href="#m3ea3e8af55" y="30.334099"/>
    </g>
   </g>
   <g id="line2d_42">
    <path d="M 91.535274 298.944 
L 91.535274 298.288854 
L 108.006005 298.288854 
L 108.006005 297.633708 
L 118.576578 297.633708 
L 118.576578 296.978562 
L 122.362027 296.978562 
L 122.362027 295.013123 
L 125.110962 295.013123 
L 125.110962 294.357977 
L 127.165014 294.357977 
L 127.165014 293.702831 
L 127.48501 293.702831 
L 127.48501 293.047685 
L 130.127931 293.047685 
L 130.127931 291.737393 
L 130.398313 291.737393 
L 130.398313 291.082247 
L 132.181982 291.082247 
L 132.181982 289.116809 
L 133.352844 289.116809 
L 133.352844 287.806516 
L 137.37967 287.806516 
L 137.37967 287.15137 
L 138.426341 287.15137 
L 138.426341 286.496224 
L 138.594838 286.496224 
L 138.594838 285.841078 
L 139.730821 285.841078 
L 139.730821 284.530786 
L 141.80232 284.530786 
L 141.80232 283.87564 
L 141.941279 283.87564 
L 141.941279 283.220494 
L 142.884173 283.220494 
L 142.884173 281.910201 
L 144.026061 281.910201 
L 144.026061 281.255055 
L 144.747789 281.255055 
L 144.747789 280.599909 
L 145.665858 280.599909 
L 145.665858 279.289617 
L 145.888018 279.289617 
L 145.888018 278.634471 
L 146.854132 278.634471 
L 146.854132 277.979325 
L 147.368603 277.979325 
L 147.368603 276.669033 
L 147.670154 276.669033 
L 147.769524 273.393302 
L 147.86833 273.393302 
L 147.86833 272.738156 
L 148.733265 272.738156 
L 148.733265 272.08301 
L 149.104327 272.08301 
L 149.104327 271.427864 
L 149.286939 271.427864 
L 149.286939 269.462426 
L 150.429467 269.462426 
L 150.429467 268.807279 
L 150.598782 268.807279 
L 150.598782 266.841841 
L 151.015013 266.841841 
L 151.015013 266.186695 
L 151.260066 266.186695 
L 151.260066 265.531549 
L 151.421542 265.531549 
L 151.421542 261.600672 
L 151.581536 261.600672 
L 151.660987 258.980088 
L 151.740076 258.980088 
L 151.818809 257.669796 
L 152.052897 257.669796 
L 152.052897 257.01465 
L 152.283884 257.01465 
L 152.283884 256.359504 
L 152.885298 256.359504 
L 152.885298 255.049211 
L 153.609024 255.049211 
L 153.609024 254.394065 
L 154.235652 254.394065 
L 154.235652 253.738919 
L 155.361158 253.738919 
L 155.361158 253.083773 
L 155.488919 253.083773 
L 155.55245 250.463189 
L 155.61575 250.463189 
L 155.61575 249.808043 
L 155.928852 249.808043 
L 155.928852 249.152896 
L 156.052535 249.152896 
L 156.052535 247.842604 
L 156.835778 247.842604 
L 156.835778 247.187458 
L 157.185742 247.187458 
L 157.185742 246.532312 
L 157.358125 246.532312 
L 157.358125 245.877166 
L 157.472107 245.877166 
L 157.472107 245.22202 
L 157.753847 245.22202 
L 157.753847 244.566874 
L 158.732007 244.566874 
L 158.732007 243.256582 
L 158.942121 243.256582 
L 159.046236 240.635997 
L 159.201253 240.635997 
L 159.201253 239.980851 
L 159.608019 239.980851 
L 159.608019 238.670559 
L 160.249422 238.670559 
L 160.346039 237.360267 
L 160.537682 237.360267 
L 160.632719 236.049974 
L 160.914762 236.049974 
L 161.007772 234.084536 
L 161.283861 234.084536 
L 161.374928 232.774244 
L 161.465522 232.774244 
L 161.465522 232.119098 
L 161.600536 232.119098 
L 161.600536 230.808806 
L 162.130378 230.808806 
L 162.130378 230.15366 
L 162.770815 230.15366 
L 162.770815 229.498513 
L 162.9377 229.498513 
L 162.979172 228.188221 
L 163.549667 228.188221 
L 163.629664 226.222783 
L 163.828065 226.222783 
L 163.867476 224.257345 
L 164.024234 224.257345 
L 164.024234 222.291906 
L 164.140886 222.291906 
L 164.140886 220.981614 
L 164.256762 220.981614 
L 164.333587 219.671322 
L 164.486229 219.671322 
L 164.486229 217.050738 
L 164.599841 217.050738 
L 164.675172 215.740445 
L 164.86209 215.740445 
L 164.9363 214.430153 
L 165.193576 214.430153 
L 165.193576 213.775007 
L 165.9084 213.775007 
L 165.9084 213.119861 
L 166.151824 213.119861 
L 166.151824 212.464715 
L 166.323641 212.464715 
L 166.391896 209.188984 
L 166.729224 209.188984 
L 166.729224 207.878692 
L 167.027338 207.878692 
L 167.027338 207.223546 
L 167.320442 207.223546 
L 167.320442 206.5684 
L 167.576907 206.5684 
L 167.672117 205.258108 
L 167.703739 205.258108 
L 167.76681 202.637523 
L 167.860992 202.637523 
L 167.892273 200.672085 
L 167.985782 200.672085 
L 168.01684 198.706647 
L 168.476198 198.706647 
L 168.536542 197.396355 
L 168.596677 197.396355 
L 168.686493 193.465478 
L 168.71633 193.465478 
L 168.805533 191.50004 
L 168.923766 191.50004 
L 169.011918 189.534601 
L 169.186895 189.534601 
L 169.27373 186.914017 
L 169.588476 186.914017 
L 169.588476 185.603725 
L 169.953269 185.603725 
L 170.036379 181.017702 
L 170.201421 181.017702 
L 170.28336 179.70741 
L 170.419074 179.70741 
L 170.499999 177.086825 
L 170.687376 177.086825 
L 170.687376 175.776533 
L 170.819995 175.776533 
L 170.872762 173.811095 
L 171.030109 173.811095 
L 171.030109 172.500803 
L 171.211906 172.500803 
L 171.211906 171.845657 
L 171.442893 171.845657 
L 171.49381 167.259634 
L 171.746192 167.259634 
L 171.771231 163.983903 
L 171.871027 163.983903 
L 171.871027 162.673611 
L 172.167033 162.673611 
L 172.264595 157.432442 
L 172.554051 157.432442 
L 172.554051 156.12215 
L 172.673253 156.12215 
L 172.768032 154.156712 
L 172.815229 154.156712 
L 172.815229 153.501566 
L 172.97942 153.501566 
L 172.97942 152.84642 
L 173.326137 152.84642 
L 173.349008 151.536128 
L 173.440194 151.536128 
L 173.440194 150.880981 
L 173.598631 150.880981 
L 173.598631 148.260397 
L 173.777957 148.260397 
L 173.866933 146.294959 
L 174.065485 146.294959 
L 174.15301 142.364082 
L 174.305129 142.364082 
L 174.412979 141.05379 
L 174.434469 141.05379 
L 174.434469 138.433206 
L 174.795808 138.433206 
L 174.795808 137.778059 
L 174.921573 137.778059 
L 175.004915 135.812621 
L 175.067161 135.812621 
L 175.08786 133.847183 
L 175.456309 133.847183 
L 175.456309 131.881745 
L 175.657689 131.881745 
L 175.737594 129.916306 
L 175.77741 129.916306 
L 175.876553 127.950868 
L 175.994786 127.950868 
L 176.03402 126.640576 
L 176.170646 126.640576 
L 176.170646 125.98543 
L 176.363988 125.98543 
L 176.402401 122.709699 
L 176.478973 122.709699 
L 176.478973 122.054553 
L 176.819447 122.054553 
L 176.894213 120.744261 
L 176.950079 120.744261 
L 176.950079 120.089115 
L 177.116609 120.089115 
L 177.171768 118.778823 
L 177.263313 118.778823 
L 177.354379 114.847946 
L 177.408792 114.847946 
L 177.517111 110.917069 
L 177.606866 110.917069 
L 177.678338 108.296485 
L 177.873391 108.296485 
L 177.978871 104.365608 
L 178.547874 104.365608 
L 178.547874 103.710462 
L 178.73349 103.710462 
L 178.833909 100.434732 
L 178.966907 100.434732 
L 178.966907 99.779586 
L 179.19724 99.779586 
L 179.19724 99.12444 
L 179.505048 99.12444 
L 179.505048 98.469293 
L 179.995881 98.469293 
L 180.089306 95.193563 
L 180.16678 95.193563 
L 180.16678 94.538417 
L 180.397157 94.538417 
L 180.397157 93.883271 
L 180.518792 93.883271 
L 180.518792 93.228125 
L 180.729632 93.228125 
L 180.804318 91.262686 
L 180.878686 91.262686 
L 180.908345 87.986956 
L 181.20219 87.986956 
L 181.231304 86.021518 
L 181.648084 86.021518 
L 181.648084 85.366371 
L 181.873839 85.366371 
L 181.873839 84.711225 
L 182.193325 84.711225 
L 182.207084 83.400933 
L 182.412173 83.400933 
L 182.507063 81.435495 
L 182.574526 81.435495 
L 182.64173 78.81491 
L 182.762047 78.81491 
L 182.775365 76.849472 
L 183.518129 76.849472 
L 183.518129 75.53918 
L 183.758849 75.53918 
L 183.783996 74.228888 
L 184.021099 74.228888 
L 184.107646 72.918596 
L 184.15691 72.918596 
L 184.206035 71.608303 
L 184.328244 71.608303 
L 184.37689 70.298011 
L 184.534056 70.298011 
L 184.534056 69.642865 
L 184.844202 69.642865 
L 184.938532 68.332573 
L 184.973775 68.332573 
L 185.008946 65.711988 
L 185.137306 65.711988 
L 185.137306 65.056842 
L 185.436997 65.056842 
L 185.471247 63.74655 
L 185.6302 63.74655 
L 185.6302 63.091404 
L 185.787717 63.091404 
L 185.787717 62.436258 
L 185.899365 62.436258 
L 186.010302 60.47082 
L 186.219158 60.47082 
L 186.230082 57.850235 
L 186.393118 57.850235 
L 186.447126 56.539943 
L 186.533193 56.539943 
L 186.533193 55.884797 
L 186.978205 55.884797 
L 186.978205 53.919359 
L 187.2378 53.919359 
L 187.2378 52.609066 
L 187.43254 52.609066 
L 187.43254 51.95392 
L 187.795661 51.95392 
L 187.795661 51.298774 
L 188.063125 51.298774 
L 188.063125 49.988482 
L 188.239182 49.988482 
L 188.239182 49.333336 
L 188.916799 49.333336 
L 188.916799 48.023044 
L 189.065933 48.023044 
L 189.065933 47.367898 
L 189.195387 47.367898 
L 189.195387 46.712752 
L 189.33303 46.712752 
L 189.33303 45.402459 
L 189.614096 45.402459 
L 189.614096 44.747313 
L 194.288194 44.747313 
L 194.288194 44.092167 
L 200.640618 44.092167 
L 200.640618 43.437021 
L 208.693476 43.437021 
L 208.798569 41.471583 
L 209.065934 41.471583 
L 209.065934 40.816437 
L 209.361175 40.816437 
L 209.459449 39.506144 
L 209.519872 39.506144 
L 209.574361 38.195852 
L 209.682831 38.195852 
L 209.79063 35.575268 
L 209.931463 35.575268 
L 209.931463 34.920122 
L 210.229078 34.920122 
L 210.229078 34.264976 
L 210.4347 34.264976 
L 210.4347 33.60983 
L 210.852121 33.60983 
L 210.852121 32.954683 
L 211.471657 32.954683 
L 211.471657 32.299537 
L 211.947914 32.299537 
L 211.947914 31.644391 
L 212.607513 31.644391 
L 212.643569 30.334099 
L 338.688 30.334099 
L 338.688 30.334099 
" style="fill:none;stroke:#6495ed;stroke-linecap:square;stroke-width:1.5;"/>
   </g>
   <g id="line2d_43">
    <defs>
     <path d="M -0 6 
L 6 -6 
L -6 -6 
z
" id="m976525a2ae" style="stroke:#6495ed;stroke-linejoin:miter;stroke-width:1.5;"/>
    </defs>
    <g>
     <use style="fill-opacity:0;stroke:#6495ed;stroke-linejoin:miter;stroke-width:1.5;" x="169.186895" xlink:href="#m976525a2ae" y="189.534601"/>
     <use style="fill-opacity:0;stroke:#6495ed;stroke-linejoin:miter;stroke-width:1.5;" x="209.519872" xlink:href="#m976525a2ae" y="39.506144"/>
     <use style="fill-opacity:0;stroke:#6495ed;stroke-linejoin:miter;stroke-width:1.5;" x="212.643569" xlink:href="#m976525a2ae" y="30.334099"/>
     <use style="fill-opacity:0;stroke:#6495ed;stroke-linejoin:miter;stroke-width:1.5;" x="212.643569" xlink:href="#m976525a2ae" y="30.334099"/>
     <use style="fill-opacity:0;stroke:#6495ed;stroke-linejoin:miter;stroke-width:1.5;" x="338.688" xlink:href="#m976525a2ae" y="30.334099"/>
    </g>
   </g>
   <g id="line2d_44">
    <path style="fill:none;stroke:#6495ed;stroke-linecap:square;stroke-width:1.5;"/>
    <g/>
   </g>
   <g id="line2d_45">
    <path clip-path="url(#pa085550af9)" d="M 207.328306 43.437021 
" style="fill:none;stroke:#6495ed;stroke-linecap:square;stroke-width:1.5;"/>
    <defs>
     <path d="M -12 12 
L 12 -12 
M -12 -12 
L 12 12 
" id="m13849ee15f" style="stroke:#6495ed;"/>
    </defs>
    <g clip-path="url(#pa085550af9)">
     <use style="fill:#6495ed;stroke:#6495ed;" x="207.328306" xlink:href="#m13849ee15f" y="43.437021"/>
    </g>
   </g>
   <g id="line2d_46">
    <path d="M 338.688 30.334099 
L 369.60768 293.571802 
" style="fill:none;stroke:#6495ed;stroke-linecap:square;stroke-width:1.5;"/>
    <g>
     <use style="fill-opacity:0;stroke:#6495ed;stroke-linejoin:miter;stroke-width:1.5;" x="338.688" xlink:href="#m976525a2ae" y="30.334099"/>
     <use style="fill-opacity:0;stroke:#6495ed;stroke-linejoin:miter;stroke-width:1.5;" x="369.60768" xlink:href="#m976525a2ae" y="293.571802"/>
    </g>
   </g>
   <g id="line2d_47">
    <path d="M 338.688 30.334099 
L 369.60768 207.616634 
" style="fill:none;stroke:#ff7500;stroke-linecap:square;stroke-width:1.5;"/>
    <g>
     <use style="fill-opacity:0;stroke:#ff7500;stroke-linejoin:bevel;stroke-width:1.5;" x="338.688" xlink:href="#m1e06911f13" y="30.334099"/>
     <use style="fill-opacity:0;stroke:#ff7500;stroke-linejoin:bevel;stroke-width:1.5;" x="369.60768" xlink:href="#m1e06911f13" y="207.616634"/>
    </g>
   </g>
   <g id="line2d_48">
    <path d="M 338.688 30.334099 
L 369.60768 121.661465 
" style="fill:none;stroke:#000080;stroke-linecap:square;stroke-width:1.5;"/>
    <g>
     <use style="fill-opacity:0;stroke:#000080;stroke-width:1.5;" x="338.688" xlink:href="#mcc1bde09d8" y="30.334099"/>
     <use style="fill-opacity:0;stroke:#000080;stroke-width:1.5;" x="369.60768" xlink:href="#mcc1bde09d8" y="121.661465"/>
    </g>
   </g>
   <g id="line2d_49">
    <path d="M 338.688 30.334099 
L 369.60768 35.706297 
" style="fill:none;stroke:#ff00ff;stroke-linecap:square;stroke-width:1.5;"/>
    <g>
     <use style="fill-opacity:0;stroke:#ff00ff;stroke-linejoin:miter;stroke-width:1.5;" x="338.688" xlink:href="#m27655d0fe5" y="30.334099"/>
     <use style="fill-opacity:0;stroke:#ff00ff;stroke-linejoin:miter;stroke-width:1.5;" x="369.60768" xlink:href="#m27655d0fe5" y="35.706297"/>
    </g>
   </g>
   <g id="line2d_50">
    <path d="M 338.688 298.944 
L 338.688 30.334099 
" style="fill:none;stroke:#000000;stroke-linecap:square;stroke-width:1.5;"/>
   </g>
   <g id="patch_3">
    <path d="M 57.6 298.944 
L 57.6 27.648 
" style="fill:none;stroke:#000000;stroke-linecap:square;stroke-linejoin:miter;stroke-width:0.8;"/>
   </g>
   <g id="patch_4">
    <path d="M 338.688 298.944 
L 338.688 27.648 
" style="fill:none;stroke:#000000;stroke-linecap:square;stroke-linejoin:miter;stroke-width:0.8;"/>
   </g>
   <g id="patch_5">
    <path d="M 57.6 298.944 
L 338.688 298.944 
" style="fill:none;stroke:#000000;stroke-linecap:square;stroke-linejoin:miter;stroke-width:0.8;"/>
   </g>
   <g id="patch_6">
    <path d="M 57.6 27.648 
L 338.688 27.648 
" style="fill:none;stroke:#000000;stroke-linecap:square;stroke-linejoin:miter;stroke-width:0.8;"/>
   </g>
   <g id="text_13">
    <!-- alO5 -->
    <g transform="translate(375.22944 298.262739)scale(0.17 -0.17)">
     <defs>
      <path d="M 39.40625 66.21875 
Q 28.65625 66.21875 22.328125 58.203125 
Q 16.015625 50.203125 16.015625 36.375 
Q 16.015625 22.609375 22.328125 14.59375 
Q 28.65625 6.59375 39.40625 6.59375 
Q 50.140625 6.59375 56.421875 14.59375 
Q 62.703125 22.609375 62.703125 36.375 
Q 62.703125 50.203125 56.421875 58.203125 
Q 50.140625 66.21875 39.40625 66.21875 
z
M 39.40625 74.21875 
Q 54.734375 74.21875 63.90625 63.9375 
Q 73.09375 53.65625 73.09375 36.375 
Q 73.09375 19.140625 63.90625 8.859375 
Q 54.734375 -1.421875 39.40625 -1.421875 
Q 24.03125 -1.421875 14.8125 8.828125 
Q 5.609375 19.09375 5.609375 36.375 
Q 5.609375 53.65625 14.8125 63.9375 
Q 24.03125 74.21875 39.40625 74.21875 
z
" id="DejaVuSans-79"/>
      <path d="M 10.796875 72.90625 
L 49.515625 72.90625 
L 49.515625 64.59375 
L 19.828125 64.59375 
L 19.828125 46.734375 
Q 21.96875 47.46875 24.109375 47.828125 
Q 26.265625 48.1875 28.421875 48.1875 
Q 40.625 48.1875 47.75 41.5 
Q 54.890625 34.8125 54.890625 23.390625 
Q 54.890625 11.625 47.5625 5.09375 
Q 40.234375 -1.421875 26.90625 -1.421875 
Q 22.3125 -1.421875 17.546875 -0.640625 
Q 12.796875 0.140625 7.71875 1.703125 
L 7.71875 11.625 
Q 12.109375 9.234375 16.796875 8.0625 
Q 21.484375 6.890625 26.703125 6.890625 
Q 35.15625 6.890625 40.078125 11.328125 
Q 45.015625 15.765625 45.015625 23.390625 
Q 45.015625 31 40.078125 35.4375 
Q 35.15625 39.890625 26.703125 39.890625 
Q 22.75 39.890625 18.8125 39.015625 
Q 14.890625 38.140625 10.796875 36.28125 
z
" id="DejaVuSans-53"/>
     </defs>
     <use xlink:href="#DejaVuSans-97"/>
     <use x="61.279297" xlink:href="#DejaVuSans-108"/>
     <use x="89.0625" xlink:href="#DejaVuSans-79"/>
     <use x="167.773438" xlink:href="#DejaVuSans-53"/>
    </g>
   </g>
   <g id="text_14">
    <!-- alN5 -->
    <g transform="translate(375.22944 212.307571)scale(0.17 -0.17)">
     <defs>
      <path d="M 9.8125 72.90625 
L 23.09375 72.90625 
L 55.421875 11.921875 
L 55.421875 72.90625 
L 64.984375 72.90625 
L 64.984375 0 
L 51.703125 0 
L 19.390625 60.984375 
L 19.390625 0 
L 9.8125 0 
z
" id="DejaVuSans-78"/>
     </defs>
     <use xlink:href="#DejaVuSans-97"/>
     <use x="61.279297" xlink:href="#DejaVuSans-108"/>
     <use x="89.0625" xlink:href="#DejaVuSans-78"/>
     <use x="163.867188" xlink:href="#DejaVuSans-53"/>
    </g>
   </g>
   <g id="text_15">
    <!-- al01 -->
    <g transform="translate(375.22944 126.352403)scale(0.17 -0.17)">
     <use xlink:href="#DejaVuSans-97"/>
     <use x="61.279297" xlink:href="#DejaVuSans-108"/>
     <use x="89.0625" xlink:href="#DejaVuSans-48"/>
     <use x="152.685547" xlink:href="#DejaVuSans-49"/>
    </g>
   </g>
   <g id="text_16">
    <!-- alN1 -->
    <g transform="translate(375.22944 40.397235)scale(0.17 -0.17)">
     <use xlink:href="#DejaVuSans-97"/>
     <use x="61.279297" xlink:href="#DejaVuSans-108"/>
     <use x="89.0625" xlink:href="#DejaVuSans-78"/>
     <use x="163.867188" xlink:href="#DejaVuSans-49"/>
    </g>
   </g>
   <g id="text_17">
    <!-- bbob-constrained f33, 2-D -->
    <g transform="translate(60.41088 38.111366)scale(0.102 -0.102)">
     <defs>
      <path d="M 48.6875 27.296875 
Q 48.6875 37.203125 44.609375 42.84375 
Q 40.53125 48.484375 33.40625 48.484375 
Q 26.265625 48.484375 22.1875 42.84375 
Q 18.109375 37.203125 18.109375 27.296875 
Q 18.109375 17.390625 22.1875 11.75 
Q 26.265625 6.109375 33.40625 6.109375 
Q 40.53125 6.109375 44.609375 11.75 
Q 48.6875 17.390625 48.6875 27.296875 
z
M 18.109375 46.390625 
Q 20.953125 51.265625 25.265625 53.625 
Q 29.59375 56 35.59375 56 
Q 45.5625 56 51.78125 48.09375 
Q 58.015625 40.1875 58.015625 27.296875 
Q 58.015625 14.40625 51.78125 6.484375 
Q 45.5625 -1.421875 35.59375 -1.421875 
Q 29.59375 -1.421875 25.265625 0.953125 
Q 20.953125 3.328125 18.109375 8.203125 
L 18.109375 0 
L 9.078125 0 
L 9.078125 75.984375 
L 18.109375 75.984375 
z
" id="DejaVuSans-98"/>
      <path d="M 40.578125 39.3125 
Q 47.65625 37.796875 51.625 33 
Q 55.609375 28.21875 55.609375 21.1875 
Q 55.609375 10.40625 48.1875 4.484375 
Q 40.765625 -1.421875 27.09375 -1.421875 
Q 22.515625 -1.421875 17.65625 -0.515625 
Q 12.796875 0.390625 7.625 2.203125 
L 7.625 11.71875 
Q 11.71875 9.328125 16.59375 8.109375 
Q 21.484375 6.890625 26.8125 6.890625 
Q 36.078125 6.890625 40.9375 10.546875 
Q 45.796875 14.203125 45.796875 21.1875 
Q 45.796875 27.640625 41.28125 31.265625 
Q 36.765625 34.90625 28.71875 34.90625 
L 20.21875 34.90625 
L 20.21875 43.015625 
L 29.109375 43.015625 
Q 36.375 43.015625 40.234375 45.921875 
Q 44.09375 48.828125 44.09375 54.296875 
Q 44.09375 59.90625 40.109375 62.90625 
Q 36.140625 65.921875 28.71875 65.921875 
Q 24.65625 65.921875 20.015625 65.03125 
Q 15.375 64.15625 9.8125 62.3125 
L 9.8125 71.09375 
Q 15.4375 72.65625 20.34375 73.4375 
Q 25.25 74.21875 29.59375 74.21875 
Q 40.828125 74.21875 47.359375 69.109375 
Q 53.90625 64.015625 53.90625 55.328125 
Q 53.90625 49.265625 50.4375 45.09375 
Q 46.96875 40.921875 40.578125 39.3125 
z
" id="DejaVuSans-51"/>
      <path d="M 19.671875 64.796875 
L 19.671875 8.109375 
L 31.59375 8.109375 
Q 46.6875 8.109375 53.6875 14.9375 
Q 60.6875 21.78125 60.6875 36.53125 
Q 60.6875 51.171875 53.6875 57.984375 
Q 46.6875 64.796875 31.59375 64.796875 
z
M 9.8125 72.90625 
L 30.078125 72.90625 
Q 51.265625 72.90625 61.171875 64.09375 
Q 71.09375 55.28125 71.09375 36.53125 
Q 71.09375 17.671875 61.125 8.828125 
Q 51.171875 0 30.078125 0 
L 9.8125 0 
z
" id="DejaVuSans-68"/>
     </defs>
     <use xlink:href="#DejaVuSans-98"/>
     <use x="63.476562" xlink:href="#DejaVuSans-98"/>
     <use x="126.953125" xlink:href="#DejaVuSans-111"/>
     <use x="188.134766" xlink:href="#DejaVuSans-98"/>
     <use x="251.611328" xlink:href="#DejaVuSans-45"/>
     <use x="287.695312" xlink:href="#DejaVuSans-99"/>
     <use x="342.675781" xlink:href="#DejaVuSans-111"/>
     <use x="403.857422" xlink:href="#DejaVuSans-110"/>
     <use x="467.236328" xlink:href="#DejaVuSans-115"/>
     <use x="519.335938" xlink:href="#DejaVuSans-116"/>
     <use x="558.544922" xlink:href="#DejaVuSans-114"/>
     <use x="599.658203" xlink:href="#DejaVuSans-97"/>
     <use x="660.9375" xlink:href="#DejaVuSans-105"/>
     <use x="688.720703" xlink:href="#DejaVuSans-110"/>
     <use x="752.099609" xlink:href="#DejaVuSans-101"/>
     <use x="813.623047" xlink:href="#DejaVuSans-100"/>
     <use x="877.099609" xlink:href="#DejaVuSans-32"/>
     <use x="908.886719" xlink:href="#DejaVuSans-102"/>
     <use x="944.091797" xlink:href="#DejaVuSans-51"/>
     <use x="1007.714844" xlink:href="#DejaVuSans-51"/>
     <use x="1071.337891" xlink:href="#DejaVuSans-44"/>
     <use x="1103.125" xlink:href="#DejaVuSans-32"/>
     <use x="1134.912109" xlink:href="#DejaVuSans-50"/>
     <use x="1198.535156" xlink:href="#DejaVuSans-45"/>
     <use x="1234.619141" xlink:href="#DejaVuSans-68"/>
    </g>
    <!-- 41 targets: 100..1e-06 -->
    <g transform="translate(60.41088 49.533135)scale(0.102 -0.102)">
     <defs>
      <path d="M 11.71875 12.40625 
L 22.015625 12.40625 
L 22.015625 0 
L 11.71875 0 
z
M 11.71875 51.703125 
L 22.015625 51.703125 
L 22.015625 39.3125 
L 11.71875 39.3125 
z
" id="DejaVuSans-58"/>
     </defs>
     <use xlink:href="#DejaVuSans-52"/>
     <use x="63.623047" xlink:href="#DejaVuSans-49"/>
     <use x="127.246094" xlink:href="#DejaVuSans-32"/>
     <use x="159.033203" xlink:href="#DejaVuSans-116"/>
     <use x="198.242188" xlink:href="#DejaVuSans-97"/>
     <use x="259.521484" xlink:href="#DejaVuSans-114"/>
     <use x="298.884766" xlink:href="#DejaVuSans-103"/>
     <use x="362.361328" xlink:href="#DejaVuSans-101"/>
     <use x="423.884766" xlink:href="#DejaVuSans-116"/>
     <use x="463.09375" xlink:href="#DejaVuSans-115"/>
     <use x="515.193359" xlink:href="#DejaVuSans-58"/>
     <use x="548.884766" xlink:href="#DejaVuSans-32"/>
     <use x="580.671875" xlink:href="#DejaVuSans-49"/>
     <use x="644.294922" xlink:href="#DejaVuSans-48"/>
     <use x="707.917969" xlink:href="#DejaVuSans-48"/>
     <use x="771.541016" xlink:href="#DejaVuSans-46"/>
     <use x="803.328125" xlink:href="#DejaVuSans-46"/>
     <use x="835.115234" xlink:href="#DejaVuSans-49"/>
     <use x="898.738281" xlink:href="#DejaVuSans-101"/>
     <use x="960.261719" xlink:href="#DejaVuSans-45"/>
     <use x="996.345703" xlink:href="#DejaVuSans-48"/>
     <use x="1059.96875" xlink:href="#DejaVuSans-54"/>
    </g>
    <!-- 15 instances -->
    <g transform="translate(60.41088 60.954904)scale(0.102 -0.102)">
     <use xlink:href="#DejaVuSans-49"/>
     <use x="63.623047" xlink:href="#DejaVuSans-53"/>
     <use x="127.246094" xlink:href="#DejaVuSans-32"/>
     <use x="159.033203" xlink:href="#DejaVuSans-105"/>
     <use x="186.816406" xlink:href="#DejaVuSans-110"/>
     <use x="250.195312" xlink:href="#DejaVuSans-115"/>
     <use x="302.294922" xlink:href="#DejaVuSans-116"/>
     <use x="341.503906" xlink:href="#DejaVuSans-97"/>
     <use x="402.783203" xlink:href="#DejaVuSans-110"/>
     <use x="466.162109" xlink:href="#DejaVuSans-99"/>
     <use x="521.142578" xlink:href="#DejaVuSans-101"/>
     <use x="582.666016" xlink:href="#DejaVuSans-115"/>
    </g>
   </g>
   <g id="text_18">
    <!-- v5z33 -->
    <g style="fill:#808080;" transform="translate(183.016656 294.151352)scale(0.1 -0.1)">
     <defs>
      <path d="M 5.515625 54.6875 
L 48.1875 54.6875 
L 48.1875 46.484375 
L 14.40625 7.171875 
L 48.1875 7.171875 
L 48.1875 0 
L 4.296875 0 
L 4.296875 8.203125 
L 38.09375 47.515625 
L 5.515625 47.515625 
z
" id="DejaVuSans-122"/>
     </defs>
     <use xlink:href="#DejaVuSans-118"/>
     <use x="59.179688" xlink:href="#DejaVuSans-53"/>
     <use x="122.802734" xlink:href="#DejaVuSans-122"/>
     <use x="175.292969" xlink:href="#DejaVuSans-51"/>
     <use x="238.916016" xlink:href="#DejaVuSans-51"/>
    </g>
   </g>
   <g id="text_19">
    <!-- 33 Bent Cigar, 6 constraints -->
    <g transform="translate(57.976812 21.648)scale(0.2 -0.2)">
     <defs>
      <path d="M 19.671875 34.8125 
L 19.671875 8.109375 
L 35.5 8.109375 
Q 43.453125 8.109375 47.28125 11.40625 
Q 51.125 14.703125 51.125 21.484375 
Q 51.125 28.328125 47.28125 31.5625 
Q 43.453125 34.8125 35.5 34.8125 
z
M 19.671875 64.796875 
L 19.671875 42.828125 
L 34.28125 42.828125 
Q 41.5 42.828125 45.03125 45.53125 
Q 48.578125 48.25 48.578125 53.8125 
Q 48.578125 59.328125 45.03125 62.0625 
Q 41.5 64.796875 34.28125 64.796875 
z
M 9.8125 72.90625 
L 35.015625 72.90625 
Q 46.296875 72.90625 52.390625 68.21875 
Q 58.5 63.53125 58.5 54.890625 
Q 58.5 48.1875 55.375 44.234375 
Q 52.25 40.28125 46.1875 39.3125 
Q 53.46875 37.75 57.5 32.78125 
Q 61.53125 27.828125 61.53125 20.40625 
Q 61.53125 10.640625 54.890625 5.3125 
Q 48.25 0 35.984375 0 
L 9.8125 0 
z
" id="DejaVuSans-66"/>
      <path d="M 64.40625 67.28125 
L 64.40625 56.890625 
Q 59.421875 61.53125 53.78125 63.8125 
Q 48.140625 66.109375 41.796875 66.109375 
Q 29.296875 66.109375 22.65625 58.46875 
Q 16.015625 50.828125 16.015625 36.375 
Q 16.015625 21.96875 22.65625 14.328125 
Q 29.296875 6.6875 41.796875 6.6875 
Q 48.140625 6.6875 53.78125 8.984375 
Q 59.421875 11.28125 64.40625 15.921875 
L 64.40625 5.609375 
Q 59.234375 2.09375 53.4375 0.328125 
Q 47.65625 -1.421875 41.21875 -1.421875 
Q 24.65625 -1.421875 15.125 8.703125 
Q 5.609375 18.84375 5.609375 36.375 
Q 5.609375 53.953125 15.125 64.078125 
Q 24.65625 74.21875 41.21875 74.21875 
Q 47.75 74.21875 53.53125 72.484375 
Q 59.328125 70.75 64.40625 67.28125 
z
" id="DejaVuSans-67"/>
     </defs>
     <use xlink:href="#DejaVuSans-51"/>
     <use x="63.623047" xlink:href="#DejaVuSans-51"/>
     <use x="127.246094" xlink:href="#DejaVuSans-32"/>
     <use x="159.033203" xlink:href="#DejaVuSans-66"/>
     <use x="227.636719" xlink:href="#DejaVuSans-101"/>
     <use x="289.160156" xlink:href="#DejaVuSans-110"/>
     <use x="352.539062" xlink:href="#DejaVuSans-116"/>
     <use x="391.748047" xlink:href="#DejaVuSans-32"/>
     <use x="423.535156" xlink:href="#DejaVuSans-67"/>
     <use x="493.359375" xlink:href="#DejaVuSans-105"/>
     <use x="521.142578" xlink:href="#DejaVuSans-103"/>
     <use x="584.619141" xlink:href="#DejaVuSans-97"/>
     <use x="645.898438" xlink:href="#DejaVuSans-114"/>
     <use x="687.011719" xlink:href="#DejaVuSans-44"/>
     <use x="718.798828" xlink:href="#DejaVuSans-32"/>
     <use x="750.585938" xlink:href="#DejaVuSans-54"/>
     <use x="814.208984" xlink:href="#DejaVuSans-32"/>
     <use x="845.996094" xlink:href="#DejaVuSans-99"/>
     <use x="900.976562" xlink:href="#DejaVuSans-111"/>
     <use x="962.158203" xlink:href="#DejaVuSans-110"/>
     <use x="1025.537109" xlink:href="#DejaVuSans-115"/>
     <use x="1077.636719" xlink:href="#DejaVuSans-116"/>
     <use x="1116.845703" xlink:href="#DejaVuSans-114"/>
     <use x="1157.958984" xlink:href="#DejaVuSans-97"/>
     <use x="1219.238281" xlink:href="#DejaVuSans-105"/>
     <use x="1247.021484" xlink:href="#DejaVuSans-110"/>
     <use x="1310.400391" xlink:href="#DejaVuSans-116"/>
     <use x="1349.609375" xlink:href="#DejaVuSans-115"/>
    </g>
   </g>
  </g>
 </g>
 <defs>
  <clipPath id="pa085550af9">
   <rect height="271.296" width="281.088" x="57.6" y="27.648"/>
  </clipPath>
 </defs>
</svg>
