<?xml version="1.0" encoding="utf-8" standalone="no"?>
<!DOCTYPE svg PUBLIC "-//W3C//DTD SVG 1.1//EN"
  "http://www.w3.org/Graphics/SVG/1.1/DTD/svg11.dtd">
<!-- Created with matplotlib (https://matplotlib.org/) -->
<svg height="345.6pt" version="1.1" viewBox="0 0 460.8 345.6" width="460.8pt" xmlns="http://www.w3.org/2000/svg" xmlns:xlink="http://www.w3.org/1999/xlink">
 <metadata>
  <rdf:RDF xmlns:cc="http://creativecommons.org/ns#" xmlns:dc="http://purl.org/dc/elements/1.1/" xmlns:rdf="http://www.w3.org/1999/02/22-rdf-syntax-ns#">
   <cc:Work>
    <dc:type rdf:resource="http://purl.org/dc/dcmitype/StillImage"/>
    <dc:date>2021-03-16T10:43:49.647856</dc:date>
    <dc:format>image/svg+xml</dc:format>
    <dc:creator>
     <cc:Agent>
      <dc:title>Matplotlib v3.3.3, https://matplotlib.org/</dc:title>
     </cc:Agent>
    </dc:creator>
   </cc:Work>
  </rdf:RDF>
 </metadata>
 <defs>
  <style type="text/css">*{stroke-linecap:butt;stroke-linejoin:round;}</style>
 </defs>
 <g id="figure_1">
  <g id="patch_1">
   <path d="M 0 345.6 
L 460.8 345.6 
L 460.8 0 
L 0 0 
z
" style="fill:#ffffff;"/>
  </g>
  <g id="axes_1">
   <g id="patch_2">
    <path d="M 57.6 298.944 
L 338.688 298.944 
L 338.688 27.648 
L 57.6 27.648 
z
" style="fill:#ffffff;"/>
   </g>
   <g id="matplotlib.axis_1">
    <g id="xtick_1">
     <g id="line2d_1">
      <path clip-path="url(#p76da7414d5)" d="M 57.6 298.944 
L 57.6 27.648 
" style="fill:none;stroke:#b0b0b0;stroke-linecap:square;stroke-width:0.8;"/>
     </g>
     <g id="line2d_2">
      <defs>
       <path d="M 0 0 
L 0 3.5 
" id="m089423eb4a" style="stroke:#000000;stroke-width:0.8;"/>
      </defs>
      <g>
       <use style="stroke:#000000;stroke-width:0.8;" x="57.6" xlink:href="#m089423eb4a" y="298.944"/>
      </g>
     </g>
     <g id="text_1">
      <!-- 0 -->
      <g transform="translate(51.2375 321.140875)scale(0.2 -0.2)">
       <defs>
        <path d="M 31.78125 66.40625 
Q 24.171875 66.40625 20.328125 58.90625 
Q 16.5 51.421875 16.5 36.375 
Q 16.5 21.390625 20.328125 13.890625 
Q 24.171875 6.390625 31.78125 6.390625 
Q 39.453125 6.390625 43.28125 13.890625 
Q 47.125 21.390625 47.125 36.375 
Q 47.125 51.421875 43.28125 58.90625 
Q 39.453125 66.40625 31.78125 66.40625 
z
M 31.78125 74.21875 
Q 44.046875 74.21875 50.515625 64.515625 
Q 56.984375 54.828125 56.984375 36.375 
Q 56.984375 17.96875 50.515625 8.265625 
Q 44.046875 -1.421875 31.78125 -1.421875 
Q 19.53125 -1.421875 13.0625 8.265625 
Q 6.59375 17.96875 6.59375 36.375 
Q 6.59375 54.828125 13.0625 64.515625 
Q 19.53125 74.21875 31.78125 74.21875 
z
" id="DejaVuSans-48"/>
       </defs>
       <use xlink:href="#DejaVuSans-48"/>
      </g>
     </g>
    </g>
    <g id="xtick_2">
     <g id="line2d_3">
      <path clip-path="url(#p76da7414d5)" d="M 137.910857 298.944 
L 137.910857 27.648 
" style="fill:none;stroke:#b0b0b0;stroke-linecap:square;stroke-width:0.8;"/>
     </g>
     <g id="line2d_4">
      <g>
       <use style="stroke:#000000;stroke-width:0.8;" x="137.910857" xlink:href="#m089423eb4a" y="298.944"/>
      </g>
     </g>
     <g id="text_2">
      <!-- 2 -->
      <g transform="translate(131.548357 321.140875)scale(0.2 -0.2)">
       <defs>
        <path d="M 19.1875 8.296875 
L 53.609375 8.296875 
L 53.609375 0 
L 7.328125 0 
L 7.328125 8.296875 
Q 12.9375 14.109375 22.625 23.890625 
Q 32.328125 33.6875 34.8125 36.53125 
Q 39.546875 41.84375 41.421875 45.53125 
Q 43.3125 49.21875 43.3125 52.78125 
Q 43.3125 58.59375 39.234375 62.25 
Q 35.15625 65.921875 28.609375 65.921875 
Q 23.96875 65.921875 18.8125 64.3125 
Q 13.671875 62.703125 7.8125 59.421875 
L 7.8125 69.390625 
Q 13.765625 71.78125 18.9375 73 
Q 24.125 74.21875 28.421875 74.21875 
Q 39.75 74.21875 46.484375 68.546875 
Q 53.21875 62.890625 53.21875 53.421875 
Q 53.21875 48.921875 51.53125 44.890625 
Q 49.859375 40.875 45.40625 35.40625 
Q 44.1875 33.984375 37.640625 27.21875 
Q 31.109375 20.453125 19.1875 8.296875 
z
" id="DejaVuSans-50"/>
       </defs>
       <use xlink:href="#DejaVuSans-50"/>
      </g>
     </g>
    </g>
    <g id="xtick_3">
     <g id="line2d_5">
      <path clip-path="url(#p76da7414d5)" d="M 218.221714 298.944 
L 218.221714 27.648 
" style="fill:none;stroke:#b0b0b0;stroke-linecap:square;stroke-width:0.8;"/>
     </g>
     <g id="line2d_6">
      <g>
       <use style="stroke:#000000;stroke-width:0.8;" x="218.221714" xlink:href="#m089423eb4a" y="298.944"/>
      </g>
     </g>
     <g id="text_3">
      <!-- 4 -->
      <g transform="translate(211.859214 321.140875)scale(0.2 -0.2)">
       <defs>
        <path d="M 37.796875 64.3125 
L 12.890625 25.390625 
L 37.796875 25.390625 
z
M 35.203125 72.90625 
L 47.609375 72.90625 
L 47.609375 25.390625 
L 58.015625 25.390625 
L 58.015625 17.1875 
L 47.609375 17.1875 
L 47.609375 0 
L 37.796875 0 
L 37.796875 17.1875 
L 4.890625 17.1875 
L 4.890625 26.703125 
z
" id="DejaVuSans-52"/>
       </defs>
       <use xlink:href="#DejaVuSans-52"/>
      </g>
     </g>
    </g>
    <g id="xtick_4">
     <g id="line2d_7">
      <path clip-path="url(#p76da7414d5)" d="M 298.532571 298.944 
L 298.532571 27.648 
" style="fill:none;stroke:#b0b0b0;stroke-linecap:square;stroke-width:0.8;"/>
     </g>
     <g id="line2d_8">
      <g>
       <use style="stroke:#000000;stroke-width:0.8;" x="298.532571" xlink:href="#m089423eb4a" y="298.944"/>
      </g>
     </g>
     <g id="text_4">
      <!-- 6 -->
      <g transform="translate(292.170071 321.140875)scale(0.2 -0.2)">
       <defs>
        <path d="M 33.015625 40.375 
Q 26.375 40.375 22.484375 35.828125 
Q 18.609375 31.296875 18.609375 23.390625 
Q 18.609375 15.53125 22.484375 10.953125 
Q 26.375 6.390625 33.015625 6.390625 
Q 39.65625 6.390625 43.53125 10.953125 
Q 47.40625 15.53125 47.40625 23.390625 
Q 47.40625 31.296875 43.53125 35.828125 
Q 39.65625 40.375 33.015625 40.375 
z
M 52.59375 71.296875 
L 52.59375 62.3125 
Q 48.875 64.0625 45.09375 64.984375 
Q 41.3125 65.921875 37.59375 65.921875 
Q 27.828125 65.921875 22.671875 59.328125 
Q 17.53125 52.734375 16.796875 39.40625 
Q 19.671875 43.65625 24.015625 45.921875 
Q 28.375 48.1875 33.59375 48.1875 
Q 44.578125 48.1875 50.953125 41.515625 
Q 57.328125 34.859375 57.328125 23.390625 
Q 57.328125 12.15625 50.6875 5.359375 
Q 44.046875 -1.421875 33.015625 -1.421875 
Q 20.359375 -1.421875 13.671875 8.265625 
Q 6.984375 17.96875 6.984375 36.375 
Q 6.984375 53.65625 15.1875 63.9375 
Q 23.390625 74.21875 37.203125 74.21875 
Q 40.921875 74.21875 44.703125 73.484375 
Q 48.484375 72.75 52.59375 71.296875 
z
" id="DejaVuSans-54"/>
       </defs>
       <use xlink:href="#DejaVuSans-54"/>
      </g>
     </g>
    </g>
    <g id="xtick_5">
     <g id="line2d_9">
      <path clip-path="url(#p76da7414d5)" d="M 97.755429 298.944 
L 97.755429 27.648 
" style="fill:none;stroke:#b0b0b0;stroke-linecap:square;stroke-width:0.8;"/>
     </g>
     <g id="line2d_10">
      <defs>
       <path d="M 0 0 
L 0 2 
" id="md3993424b8" style="stroke:#000000;stroke-width:0.6;"/>
      </defs>
      <g>
       <use style="stroke:#000000;stroke-width:0.6;" x="97.755429" xlink:href="#md3993424b8" y="298.944"/>
      </g>
     </g>
    </g>
    <g id="xtick_6">
     <g id="line2d_11">
      <path clip-path="url(#p76da7414d5)" d="M 178.066286 298.944 
L 178.066286 27.648 
" style="fill:none;stroke:#b0b0b0;stroke-linecap:square;stroke-width:0.8;"/>
     </g>
     <g id="line2d_12">
      <g>
       <use style="stroke:#000000;stroke-width:0.6;" x="178.066286" xlink:href="#md3993424b8" y="298.944"/>
      </g>
     </g>
    </g>
    <g id="xtick_7">
     <g id="line2d_13">
      <path clip-path="url(#p76da7414d5)" d="M 258.377143 298.944 
L 258.377143 27.648 
" style="fill:none;stroke:#b0b0b0;stroke-linecap:square;stroke-width:0.8;"/>
     </g>
     <g id="line2d_14">
      <g>
       <use style="stroke:#000000;stroke-width:0.6;" x="258.377143" xlink:href="#md3993424b8" y="298.944"/>
      </g>
     </g>
    </g>
    <g id="xtick_8">
     <g id="line2d_15">
      <path clip-path="url(#p76da7414d5)" d="M 338.688 298.944 
L 338.688 27.648 
" style="fill:none;stroke:#b0b0b0;stroke-linecap:square;stroke-width:0.8;"/>
     </g>
     <g id="line2d_16">
      <g>
       <use style="stroke:#000000;stroke-width:0.6;" x="338.688" xlink:href="#md3993424b8" y="298.944"/>
      </g>
     </g>
    </g>
    <g id="text_5">
     <!-- log10(# (f+g)-evals / dimension) -->
     <g transform="translate(58.145016 342.217594)scale(0.17 -0.17)">
      <defs>
       <path d="M 9.421875 75.984375 
L 18.40625 75.984375 
L 18.40625 0 
L 9.421875 0 
z
" id="DejaVuSans-108"/>
       <path d="M 30.609375 48.390625 
Q 23.390625 48.390625 19.1875 42.75 
Q 14.984375 37.109375 14.984375 27.296875 
Q 14.984375 17.484375 19.15625 11.84375 
Q 23.34375 6.203125 30.609375 6.203125 
Q 37.796875 6.203125 41.984375 11.859375 
Q 46.1875 17.53125 46.1875 27.296875 
Q 46.1875 37.015625 41.984375 42.703125 
Q 37.796875 48.390625 30.609375 48.390625 
z
M 30.609375 56 
Q 42.328125 56 49.015625 48.375 
Q 55.71875 40.765625 55.71875 27.296875 
Q 55.71875 13.875 49.015625 6.21875 
Q 42.328125 -1.421875 30.609375 -1.421875 
Q 18.84375 -1.421875 12.171875 6.21875 
Q 5.515625 13.875 5.515625 27.296875 
Q 5.515625 40.765625 12.171875 48.375 
Q 18.84375 56 30.609375 56 
z
" id="DejaVuSans-111"/>
       <path d="M 45.40625 27.984375 
Q 45.40625 37.75 41.375 43.109375 
Q 37.359375 48.484375 30.078125 48.484375 
Q 22.859375 48.484375 18.828125 43.109375 
Q 14.796875 37.75 14.796875 27.984375 
Q 14.796875 18.265625 18.828125 12.890625 
Q 22.859375 7.515625 30.078125 7.515625 
Q 37.359375 7.515625 41.375 12.890625 
Q 45.40625 18.265625 45.40625 27.984375 
z
M 54.390625 6.78125 
Q 54.390625 -7.171875 48.1875 -13.984375 
Q 42 -20.796875 29.203125 -20.796875 
Q 24.46875 -20.796875 20.265625 -20.09375 
Q 16.0625 -19.390625 12.109375 -17.921875 
L 12.109375 -9.1875 
Q 16.0625 -11.328125 19.921875 -12.34375 
Q 23.78125 -13.375 27.78125 -13.375 
Q 36.625 -13.375 41.015625 -8.765625 
Q 45.40625 -4.15625 45.40625 5.171875 
L 45.40625 9.625 
Q 42.625 4.78125 38.28125 2.390625 
Q 33.9375 0 27.875 0 
Q 17.828125 0 11.671875 7.65625 
Q 5.515625 15.328125 5.515625 27.984375 
Q 5.515625 40.671875 11.671875 48.328125 
Q 17.828125 56 27.875 56 
Q 33.9375 56 38.28125 53.609375 
Q 42.625 51.21875 45.40625 46.390625 
L 45.40625 54.6875 
L 54.390625 54.6875 
z
" id="DejaVuSans-103"/>
       <path d="M 12.40625 8.296875 
L 28.515625 8.296875 
L 28.515625 63.921875 
L 10.984375 60.40625 
L 10.984375 69.390625 
L 28.421875 72.90625 
L 38.28125 72.90625 
L 38.28125 8.296875 
L 54.390625 8.296875 
L 54.390625 0 
L 12.40625 0 
z
" id="DejaVuSans-49"/>
       <path d="M 31 75.875 
Q 24.46875 64.65625 21.28125 53.65625 
Q 18.109375 42.671875 18.109375 31.390625 
Q 18.109375 20.125 21.3125 9.0625 
Q 24.515625 -2 31 -13.1875 
L 23.1875 -13.1875 
Q 15.875 -1.703125 12.234375 9.375 
Q 8.59375 20.453125 8.59375 31.390625 
Q 8.59375 42.28125 12.203125 53.3125 
Q 15.828125 64.359375 23.1875 75.875 
z
" id="DejaVuSans-40"/>
       <path d="M 51.125 44 
L 36.921875 44 
L 32.8125 27.6875 
L 47.125 27.6875 
z
M 43.796875 71.78125 
L 38.71875 51.515625 
L 52.984375 51.515625 
L 58.109375 71.78125 
L 65.921875 71.78125 
L 60.890625 51.515625 
L 76.125 51.515625 
L 76.125 44 
L 58.984375 44 
L 54.984375 27.6875 
L 70.515625 27.6875 
L 70.515625 20.21875 
L 53.078125 20.21875 
L 48 0 
L 40.1875 0 
L 45.21875 20.21875 
L 30.90625 20.21875 
L 25.875 0 
L 18.015625 0 
L 23.09375 20.21875 
L 7.71875 20.21875 
L 7.71875 27.6875 
L 24.90625 27.6875 
L 29 44 
L 13.28125 44 
L 13.28125 51.515625 
L 30.90625 51.515625 
L 35.890625 71.78125 
z
" id="DejaVuSans-35"/>
       <path id="DejaVuSans-32"/>
       <path d="M 37.109375 75.984375 
L 37.109375 68.5 
L 28.515625 68.5 
Q 23.6875 68.5 21.796875 66.546875 
Q 19.921875 64.59375 19.921875 59.515625 
L 19.921875 54.6875 
L 34.71875 54.6875 
L 34.71875 47.703125 
L 19.921875 47.703125 
L 19.921875 0 
L 10.890625 0 
L 10.890625 47.703125 
L 2.296875 47.703125 
L 2.296875 54.6875 
L 10.890625 54.6875 
L 10.890625 58.5 
Q 10.890625 67.625 15.140625 71.796875 
Q 19.390625 75.984375 28.609375 75.984375 
z
" id="DejaVuSans-102"/>
       <path d="M 46 62.703125 
L 46 35.5 
L 73.1875 35.5 
L 73.1875 27.203125 
L 46 27.203125 
L 46 0 
L 37.796875 0 
L 37.796875 27.203125 
L 10.59375 27.203125 
L 10.59375 35.5 
L 37.796875 35.5 
L 37.796875 62.703125 
z
" id="DejaVuSans-43"/>
       <path d="M 8.015625 75.875 
L 15.828125 75.875 
Q 23.140625 64.359375 26.78125 53.3125 
Q 30.421875 42.28125 30.421875 31.390625 
Q 30.421875 20.453125 26.78125 9.375 
Q 23.140625 -1.703125 15.828125 -13.1875 
L 8.015625 -13.1875 
Q 14.5 -2 17.703125 9.0625 
Q 20.90625 20.125 20.90625 31.390625 
Q 20.90625 42.671875 17.703125 53.65625 
Q 14.5 64.65625 8.015625 75.875 
z
" id="DejaVuSans-41"/>
       <path d="M 4.890625 31.390625 
L 31.203125 31.390625 
L 31.203125 23.390625 
L 4.890625 23.390625 
z
" id="DejaVuSans-45"/>
       <path d="M 56.203125 29.59375 
L 56.203125 25.203125 
L 14.890625 25.203125 
Q 15.484375 15.921875 20.484375 11.0625 
Q 25.484375 6.203125 34.421875 6.203125 
Q 39.59375 6.203125 44.453125 7.46875 
Q 49.3125 8.734375 54.109375 11.28125 
L 54.109375 2.78125 
Q 49.265625 0.734375 44.1875 -0.34375 
Q 39.109375 -1.421875 33.890625 -1.421875 
Q 20.796875 -1.421875 13.15625 6.1875 
Q 5.515625 13.8125 5.515625 26.8125 
Q 5.515625 40.234375 12.765625 48.109375 
Q 20.015625 56 32.328125 56 
Q 43.359375 56 49.78125 48.890625 
Q 56.203125 41.796875 56.203125 29.59375 
z
M 47.21875 32.234375 
Q 47.125 39.59375 43.09375 43.984375 
Q 39.0625 48.390625 32.421875 48.390625 
Q 24.90625 48.390625 20.390625 44.140625 
Q 15.875 39.890625 15.1875 32.171875 
z
" id="DejaVuSans-101"/>
       <path d="M 2.984375 54.6875 
L 12.5 54.6875 
L 29.59375 8.796875 
L 46.6875 54.6875 
L 56.203125 54.6875 
L 35.6875 0 
L 23.484375 0 
z
" id="DejaVuSans-118"/>
       <path d="M 34.28125 27.484375 
Q 23.390625 27.484375 19.1875 25 
Q 14.984375 22.515625 14.984375 16.5 
Q 14.984375 11.71875 18.140625 8.90625 
Q 21.296875 6.109375 26.703125 6.109375 
Q 34.1875 6.109375 38.703125 11.40625 
Q 43.21875 16.703125 43.21875 25.484375 
L 43.21875 27.484375 
z
M 52.203125 31.203125 
L 52.203125 0 
L 43.21875 0 
L 43.21875 8.296875 
Q 40.140625 3.328125 35.546875 0.953125 
Q 30.953125 -1.421875 24.3125 -1.421875 
Q 15.921875 -1.421875 10.953125 3.296875 
Q 6 8.015625 6 15.921875 
Q 6 25.140625 12.171875 29.828125 
Q 18.359375 34.515625 30.609375 34.515625 
L 43.21875 34.515625 
L 43.21875 35.40625 
Q 43.21875 41.609375 39.140625 45 
Q 35.0625 48.390625 27.6875 48.390625 
Q 23 48.390625 18.546875 47.265625 
Q 14.109375 46.140625 10.015625 43.890625 
L 10.015625 52.203125 
Q 14.9375 54.109375 19.578125 55.046875 
Q 24.21875 56 28.609375 56 
Q 40.484375 56 46.34375 49.84375 
Q 52.203125 43.703125 52.203125 31.203125 
z
" id="DejaVuSans-97"/>
       <path d="M 44.28125 53.078125 
L 44.28125 44.578125 
Q 40.484375 46.53125 36.375 47.5 
Q 32.28125 48.484375 27.875 48.484375 
Q 21.1875 48.484375 17.84375 46.4375 
Q 14.5 44.390625 14.5 40.28125 
Q 14.5 37.15625 16.890625 35.375 
Q 19.28125 33.59375 26.515625 31.984375 
L 29.59375 31.296875 
Q 39.15625 29.25 43.1875 25.515625 
Q 47.21875 21.78125 47.21875 15.09375 
Q 47.21875 7.46875 41.1875 3.015625 
Q 35.15625 -1.421875 24.609375 -1.421875 
Q 20.21875 -1.421875 15.453125 -0.5625 
Q 10.6875 0.296875 5.421875 2 
L 5.421875 11.28125 
Q 10.40625 8.6875 15.234375 7.390625 
Q 20.0625 6.109375 24.8125 6.109375 
Q 31.15625 6.109375 34.5625 8.28125 
Q 37.984375 10.453125 37.984375 14.40625 
Q 37.984375 18.0625 35.515625 20.015625 
Q 33.0625 21.96875 24.703125 23.78125 
L 21.578125 24.515625 
Q 13.234375 26.265625 9.515625 29.90625 
Q 5.8125 33.546875 5.8125 39.890625 
Q 5.8125 47.609375 11.28125 51.796875 
Q 16.75 56 26.8125 56 
Q 31.78125 56 36.171875 55.265625 
Q 40.578125 54.546875 44.28125 53.078125 
z
" id="DejaVuSans-115"/>
       <path d="M 25.390625 72.90625 
L 33.6875 72.90625 
L 8.296875 -9.28125 
L 0 -9.28125 
z
" id="DejaVuSans-47"/>
       <path d="M 45.40625 46.390625 
L 45.40625 75.984375 
L 54.390625 75.984375 
L 54.390625 0 
L 45.40625 0 
L 45.40625 8.203125 
Q 42.578125 3.328125 38.25 0.953125 
Q 33.9375 -1.421875 27.875 -1.421875 
Q 17.96875 -1.421875 11.734375 6.484375 
Q 5.515625 14.40625 5.515625 27.296875 
Q 5.515625 40.1875 11.734375 48.09375 
Q 17.96875 56 27.875 56 
Q 33.9375 56 38.25 53.625 
Q 42.578125 51.265625 45.40625 46.390625 
z
M 14.796875 27.296875 
Q 14.796875 17.390625 18.875 11.75 
Q 22.953125 6.109375 30.078125 6.109375 
Q 37.203125 6.109375 41.296875 11.75 
Q 45.40625 17.390625 45.40625 27.296875 
Q 45.40625 37.203125 41.296875 42.84375 
Q 37.203125 48.484375 30.078125 48.484375 
Q 22.953125 48.484375 18.875 42.84375 
Q 14.796875 37.203125 14.796875 27.296875 
z
" id="DejaVuSans-100"/>
       <path d="M 9.421875 54.6875 
L 18.40625 54.6875 
L 18.40625 0 
L 9.421875 0 
z
M 9.421875 75.984375 
L 18.40625 75.984375 
L 18.40625 64.59375 
L 9.421875 64.59375 
z
" id="DejaVuSans-105"/>
       <path d="M 52 44.1875 
Q 55.375 50.25 60.0625 53.125 
Q 64.75 56 71.09375 56 
Q 79.640625 56 84.28125 50.015625 
Q 88.921875 44.046875 88.921875 33.015625 
L 88.921875 0 
L 79.890625 0 
L 79.890625 32.71875 
Q 79.890625 40.578125 77.09375 44.375 
Q 74.3125 48.1875 68.609375 48.1875 
Q 61.625 48.1875 57.5625 43.546875 
Q 53.515625 38.921875 53.515625 30.90625 
L 53.515625 0 
L 44.484375 0 
L 44.484375 32.71875 
Q 44.484375 40.625 41.703125 44.40625 
Q 38.921875 48.1875 33.109375 48.1875 
Q 26.21875 48.1875 22.15625 43.53125 
Q 18.109375 38.875 18.109375 30.90625 
L 18.109375 0 
L 9.078125 0 
L 9.078125 54.6875 
L 18.109375 54.6875 
L 18.109375 46.1875 
Q 21.1875 51.21875 25.484375 53.609375 
Q 29.78125 56 35.6875 56 
Q 41.65625 56 45.828125 52.96875 
Q 50 49.953125 52 44.1875 
z
" id="DejaVuSans-109"/>
       <path d="M 54.890625 33.015625 
L 54.890625 0 
L 45.90625 0 
L 45.90625 32.71875 
Q 45.90625 40.484375 42.875 44.328125 
Q 39.84375 48.1875 33.796875 48.1875 
Q 26.515625 48.1875 22.3125 43.546875 
Q 18.109375 38.921875 18.109375 30.90625 
L 18.109375 0 
L 9.078125 0 
L 9.078125 54.6875 
L 18.109375 54.6875 
L 18.109375 46.1875 
Q 21.34375 51.125 25.703125 53.5625 
Q 30.078125 56 35.796875 56 
Q 45.21875 56 50.046875 50.171875 
Q 54.890625 44.34375 54.890625 33.015625 
z
" id="DejaVuSans-110"/>
      </defs>
      <use xlink:href="#DejaVuSans-108"/>
      <use x="27.783203" xlink:href="#DejaVuSans-111"/>
      <use x="88.964844" xlink:href="#DejaVuSans-103"/>
      <use x="152.441406" xlink:href="#DejaVuSans-49"/>
      <use x="216.064453" xlink:href="#DejaVuSans-48"/>
      <use x="279.6875" xlink:href="#DejaVuSans-40"/>
      <use x="318.701172" xlink:href="#DejaVuSans-35"/>
      <use x="402.490234" xlink:href="#DejaVuSans-32"/>
      <use x="434.277344" xlink:href="#DejaVuSans-40"/>
      <use x="473.291016" xlink:href="#DejaVuSans-102"/>
      <use x="508.496094" xlink:href="#DejaVuSans-43"/>
      <use x="592.285156" xlink:href="#DejaVuSans-103"/>
      <use x="655.761719" xlink:href="#DejaVuSans-41"/>
      <use x="694.775391" xlink:href="#DejaVuSans-45"/>
      <use x="730.859375" xlink:href="#DejaVuSans-101"/>
      <use x="792.382812" xlink:href="#DejaVuSans-118"/>
      <use x="851.5625" xlink:href="#DejaVuSans-97"/>
      <use x="912.841797" xlink:href="#DejaVuSans-108"/>
      <use x="940.625" xlink:href="#DejaVuSans-115"/>
      <use x="992.724609" xlink:href="#DejaVuSans-32"/>
      <use x="1024.511719" xlink:href="#DejaVuSans-47"/>
      <use x="1058.203125" xlink:href="#DejaVuSans-32"/>
      <use x="1089.990234" xlink:href="#DejaVuSans-100"/>
      <use x="1153.466797" xlink:href="#DejaVuSans-105"/>
      <use x="1181.25" xlink:href="#DejaVuSans-109"/>
      <use x="1278.662109" xlink:href="#DejaVuSans-101"/>
      <use x="1340.185547" xlink:href="#DejaVuSans-110"/>
      <use x="1403.564453" xlink:href="#DejaVuSans-115"/>
      <use x="1455.664062" xlink:href="#DejaVuSans-105"/>
      <use x="1483.447266" xlink:href="#DejaVuSans-111"/>
      <use x="1544.628906" xlink:href="#DejaVuSans-110"/>
      <use x="1608.007812" xlink:href="#DejaVuSans-41"/>
     </g>
    </g>
   </g>
   <g id="matplotlib.axis_2">
    <g id="ytick_1">
     <g id="line2d_17">
      <path clip-path="url(#p76da7414d5)" d="M 57.6 298.944 
L 338.688 298.944 
" style="fill:none;stroke:#b0b0b0;stroke-linecap:square;stroke-width:0.8;"/>
     </g>
     <g id="line2d_18">
      <defs>
       <path d="M 0 0 
L -3.5 0 
" id="m7bb98e45d3" style="stroke:#000000;stroke-width:0.8;"/>
      </defs>
      <g>
       <use style="stroke:#000000;stroke-width:0.8;" x="57.6" xlink:href="#m7bb98e45d3" y="298.944"/>
      </g>
     </g>
     <g id="text_6">
      <!-- 0.0 -->
      <g transform="translate(25.155 305.02275)scale(0.16 -0.16)">
       <defs>
        <path d="M 10.6875 12.40625 
L 21 12.40625 
L 21 0 
L 10.6875 0 
z
" id="DejaVuSans-46"/>
       </defs>
       <use xlink:href="#DejaVuSans-48"/>
       <use x="63.623047" xlink:href="#DejaVuSans-46"/>
       <use x="95.410156" xlink:href="#DejaVuSans-48"/>
      </g>
     </g>
    </g>
    <g id="ytick_2">
     <g id="line2d_19">
      <path clip-path="url(#p76da7414d5)" d="M 57.6 245.22202 
L 338.688 245.22202 
" style="fill:none;stroke:#b0b0b0;stroke-linecap:square;stroke-width:0.8;"/>
     </g>
     <g id="line2d_20">
      <g>
       <use style="stroke:#000000;stroke-width:0.8;" x="57.6" xlink:href="#m7bb98e45d3" y="245.22202"/>
      </g>
     </g>
     <g id="text_7">
      <!-- 0.2 -->
      <g transform="translate(25.155 251.30077)scale(0.16 -0.16)">
       <use xlink:href="#DejaVuSans-48"/>
       <use x="63.623047" xlink:href="#DejaVuSans-46"/>
       <use x="95.410156" xlink:href="#DejaVuSans-50"/>
      </g>
     </g>
    </g>
    <g id="ytick_3">
     <g id="line2d_21">
      <path clip-path="url(#p76da7414d5)" d="M 57.6 191.50004 
L 338.688 191.50004 
" style="fill:none;stroke:#b0b0b0;stroke-linecap:square;stroke-width:0.8;"/>
     </g>
     <g id="line2d_22">
      <g>
       <use style="stroke:#000000;stroke-width:0.8;" x="57.6" xlink:href="#m7bb98e45d3" y="191.50004"/>
      </g>
     </g>
     <g id="text_8">
      <!-- 0.4 -->
      <g transform="translate(25.155 197.57879)scale(0.16 -0.16)">
       <use xlink:href="#DejaVuSans-48"/>
       <use x="63.623047" xlink:href="#DejaVuSans-46"/>
       <use x="95.410156" xlink:href="#DejaVuSans-52"/>
      </g>
     </g>
    </g>
    <g id="ytick_4">
     <g id="line2d_23">
      <path clip-path="url(#p76da7414d5)" d="M 57.6 137.778059 
L 338.688 137.778059 
" style="fill:none;stroke:#b0b0b0;stroke-linecap:square;stroke-width:0.8;"/>
     </g>
     <g id="line2d_24">
      <g>
       <use style="stroke:#000000;stroke-width:0.8;" x="57.6" xlink:href="#m7bb98e45d3" y="137.778059"/>
      </g>
     </g>
     <g id="text_9">
      <!-- 0.6 -->
      <g transform="translate(25.155 143.856809)scale(0.16 -0.16)">
       <use xlink:href="#DejaVuSans-48"/>
       <use x="63.623047" xlink:href="#DejaVuSans-46"/>
       <use x="95.410156" xlink:href="#DejaVuSans-54"/>
      </g>
     </g>
    </g>
    <g id="ytick_5">
     <g id="line2d_25">
      <path clip-path="url(#p76da7414d5)" d="M 57.6 84.056079 
L 338.688 84.056079 
" style="fill:none;stroke:#b0b0b0;stroke-linecap:square;stroke-width:0.8;"/>
     </g>
     <g id="line2d_26">
      <g>
       <use style="stroke:#000000;stroke-width:0.8;" x="57.6" xlink:href="#m7bb98e45d3" y="84.056079"/>
      </g>
     </g>
     <g id="text_10">
      <!-- 0.8 -->
      <g transform="translate(25.155 90.134829)scale(0.16 -0.16)">
       <defs>
        <path d="M 31.78125 34.625 
Q 24.75 34.625 20.71875 30.859375 
Q 16.703125 27.09375 16.703125 20.515625 
Q 16.703125 13.921875 20.71875 10.15625 
Q 24.75 6.390625 31.78125 6.390625 
Q 38.8125 6.390625 42.859375 10.171875 
Q 46.921875 13.96875 46.921875 20.515625 
Q 46.921875 27.09375 42.890625 30.859375 
Q 38.875 34.625 31.78125 34.625 
z
M 21.921875 38.8125 
Q 15.578125 40.375 12.03125 44.71875 
Q 8.5 49.078125 8.5 55.328125 
Q 8.5 64.0625 14.71875 69.140625 
Q 20.953125 74.21875 31.78125 74.21875 
Q 42.671875 74.21875 48.875 69.140625 
Q 55.078125 64.0625 55.078125 55.328125 
Q 55.078125 49.078125 51.53125 44.71875 
Q 48 40.375 41.703125 38.8125 
Q 48.828125 37.15625 52.796875 32.3125 
Q 56.78125 27.484375 56.78125 20.515625 
Q 56.78125 9.90625 50.3125 4.234375 
Q 43.84375 -1.421875 31.78125 -1.421875 
Q 19.734375 -1.421875 13.25 4.234375 
Q 6.78125 9.90625 6.78125 20.515625 
Q 6.78125 27.484375 10.78125 32.3125 
Q 14.796875 37.15625 21.921875 38.8125 
z
M 18.3125 54.390625 
Q 18.3125 48.734375 21.84375 45.5625 
Q 25.390625 42.390625 31.78125 42.390625 
Q 38.140625 42.390625 41.71875 45.5625 
Q 45.3125 48.734375 45.3125 54.390625 
Q 45.3125 60.0625 41.71875 63.234375 
Q 38.140625 66.40625 31.78125 66.40625 
Q 25.390625 66.40625 21.84375 63.234375 
Q 18.3125 60.0625 18.3125 54.390625 
z
" id="DejaVuSans-56"/>
       </defs>
       <use xlink:href="#DejaVuSans-48"/>
       <use x="63.623047" xlink:href="#DejaVuSans-46"/>
       <use x="95.410156" xlink:href="#DejaVuSans-56"/>
      </g>
     </g>
    </g>
    <g id="ytick_6">
     <g id="line2d_27">
      <path clip-path="url(#p76da7414d5)" d="M 57.6 30.334099 
L 338.688 30.334099 
" style="fill:none;stroke:#b0b0b0;stroke-linecap:square;stroke-width:0.8;"/>
     </g>
     <g id="line2d_28">
      <g>
       <use style="stroke:#000000;stroke-width:0.8;" x="57.6" xlink:href="#m7bb98e45d3" y="30.334099"/>
      </g>
     </g>
     <g id="text_11">
      <!-- 1.0 -->
      <g transform="translate(25.155 36.412849)scale(0.16 -0.16)">
       <use xlink:href="#DejaVuSans-49"/>
       <use x="63.623047" xlink:href="#DejaVuSans-46"/>
       <use x="95.410156" xlink:href="#DejaVuSans-48"/>
      </g>
     </g>
    </g>
    <g id="text_12">
     <!-- Fraction of function,target pairs -->
     <g transform="translate(17.619531 297.681)rotate(-90)scale(0.17 -0.17)">
      <defs>
       <path d="M 9.8125 72.90625 
L 51.703125 72.90625 
L 51.703125 64.59375 
L 19.671875 64.59375 
L 19.671875 43.109375 
L 48.578125 43.109375 
L 48.578125 34.8125 
L 19.671875 34.8125 
L 19.671875 0 
L 9.8125 0 
z
" id="DejaVuSans-70"/>
       <path d="M 41.109375 46.296875 
Q 39.59375 47.171875 37.8125 47.578125 
Q 36.03125 48 33.890625 48 
Q 26.265625 48 22.1875 43.046875 
Q 18.109375 38.09375 18.109375 28.8125 
L 18.109375 0 
L 9.078125 0 
L 9.078125 54.6875 
L 18.109375 54.6875 
L 18.109375 46.1875 
Q 20.953125 51.171875 25.484375 53.578125 
Q 30.03125 56 36.53125 56 
Q 37.453125 56 38.578125 55.875 
Q 39.703125 55.765625 41.0625 55.515625 
z
" id="DejaVuSans-114"/>
       <path d="M 48.78125 52.59375 
L 48.78125 44.1875 
Q 44.96875 46.296875 41.140625 47.34375 
Q 37.3125 48.390625 33.40625 48.390625 
Q 24.65625 48.390625 19.8125 42.84375 
Q 14.984375 37.3125 14.984375 27.296875 
Q 14.984375 17.28125 19.8125 11.734375 
Q 24.65625 6.203125 33.40625 6.203125 
Q 37.3125 6.203125 41.140625 7.25 
Q 44.96875 8.296875 48.78125 10.40625 
L 48.78125 2.09375 
Q 45.015625 0.34375 40.984375 -0.53125 
Q 36.96875 -1.421875 32.421875 -1.421875 
Q 20.0625 -1.421875 12.78125 6.34375 
Q 5.515625 14.109375 5.515625 27.296875 
Q 5.515625 40.671875 12.859375 48.328125 
Q 20.21875 56 33.015625 56 
Q 37.15625 56 41.109375 55.140625 
Q 45.0625 54.296875 48.78125 52.59375 
z
" id="DejaVuSans-99"/>
       <path d="M 18.3125 70.21875 
L 18.3125 54.6875 
L 36.8125 54.6875 
L 36.8125 47.703125 
L 18.3125 47.703125 
L 18.3125 18.015625 
Q 18.3125 11.328125 20.140625 9.421875 
Q 21.96875 7.515625 27.59375 7.515625 
L 36.8125 7.515625 
L 36.8125 0 
L 27.59375 0 
Q 17.1875 0 13.234375 3.875 
Q 9.28125 7.765625 9.28125 18.015625 
L 9.28125 47.703125 
L 2.6875 47.703125 
L 2.6875 54.6875 
L 9.28125 54.6875 
L 9.28125 70.21875 
z
" id="DejaVuSans-116"/>
       <path d="M 8.5 21.578125 
L 8.5 54.6875 
L 17.484375 54.6875 
L 17.484375 21.921875 
Q 17.484375 14.15625 20.5 10.265625 
Q 23.53125 6.390625 29.59375 6.390625 
Q 36.859375 6.390625 41.078125 11.03125 
Q 45.3125 15.671875 45.3125 23.6875 
L 45.3125 54.6875 
L 54.296875 54.6875 
L 54.296875 0 
L 45.3125 0 
L 45.3125 8.40625 
Q 42.046875 3.421875 37.71875 1 
Q 33.40625 -1.421875 27.6875 -1.421875 
Q 18.265625 -1.421875 13.375 4.4375 
Q 8.5 10.296875 8.5 21.578125 
z
M 31.109375 56 
z
" id="DejaVuSans-117"/>
       <path d="M 11.71875 12.40625 
L 22.015625 12.40625 
L 22.015625 4 
L 14.015625 -11.625 
L 7.71875 -11.625 
L 11.71875 4 
z
" id="DejaVuSans-44"/>
       <path d="M 18.109375 8.203125 
L 18.109375 -20.796875 
L 9.078125 -20.796875 
L 9.078125 54.6875 
L 18.109375 54.6875 
L 18.109375 46.390625 
Q 20.953125 51.265625 25.265625 53.625 
Q 29.59375 56 35.59375 56 
Q 45.5625 56 51.78125 48.09375 
Q 58.015625 40.1875 58.015625 27.296875 
Q 58.015625 14.40625 51.78125 6.484375 
Q 45.5625 -1.421875 35.59375 -1.421875 
Q 29.59375 -1.421875 25.265625 0.953125 
Q 20.953125 3.328125 18.109375 8.203125 
z
M 48.6875 27.296875 
Q 48.6875 37.203125 44.609375 42.84375 
Q 40.53125 48.484375 33.40625 48.484375 
Q 26.265625 48.484375 22.1875 42.84375 
Q 18.109375 37.203125 18.109375 27.296875 
Q 18.109375 17.390625 22.1875 11.75 
Q 26.265625 6.109375 33.40625 6.109375 
Q 40.53125 6.109375 44.609375 11.75 
Q 48.6875 17.390625 48.6875 27.296875 
z
" id="DejaVuSans-112"/>
      </defs>
      <use xlink:href="#DejaVuSans-70"/>
      <use x="50.269531" xlink:href="#DejaVuSans-114"/>
      <use x="91.382812" xlink:href="#DejaVuSans-97"/>
      <use x="152.662109" xlink:href="#DejaVuSans-99"/>
      <use x="207.642578" xlink:href="#DejaVuSans-116"/>
      <use x="246.851562" xlink:href="#DejaVuSans-105"/>
      <use x="274.634766" xlink:href="#DejaVuSans-111"/>
      <use x="335.816406" xlink:href="#DejaVuSans-110"/>
      <use x="399.195312" xlink:href="#DejaVuSans-32"/>
      <use x="430.982422" xlink:href="#DejaVuSans-111"/>
      <use x="492.164062" xlink:href="#DejaVuSans-102"/>
      <use x="527.369141" xlink:href="#DejaVuSans-32"/>
      <use x="559.15625" xlink:href="#DejaVuSans-102"/>
      <use x="594.361328" xlink:href="#DejaVuSans-117"/>
      <use x="657.740234" xlink:href="#DejaVuSans-110"/>
      <use x="721.119141" xlink:href="#DejaVuSans-99"/>
      <use x="776.099609" xlink:href="#DejaVuSans-116"/>
      <use x="815.308594" xlink:href="#DejaVuSans-105"/>
      <use x="843.091797" xlink:href="#DejaVuSans-111"/>
      <use x="904.273438" xlink:href="#DejaVuSans-110"/>
      <use x="967.652344" xlink:href="#DejaVuSans-44"/>
      <use x="999.439453" xlink:href="#DejaVuSans-116"/>
      <use x="1038.648438" xlink:href="#DejaVuSans-97"/>
      <use x="1099.927734" xlink:href="#DejaVuSans-114"/>
      <use x="1139.291016" xlink:href="#DejaVuSans-103"/>
      <use x="1202.767578" xlink:href="#DejaVuSans-101"/>
      <use x="1264.291016" xlink:href="#DejaVuSans-116"/>
      <use x="1303.5" xlink:href="#DejaVuSans-32"/>
      <use x="1335.287109" xlink:href="#DejaVuSans-112"/>
      <use x="1398.763672" xlink:href="#DejaVuSans-97"/>
      <use x="1460.042969" xlink:href="#DejaVuSans-105"/>
      <use x="1487.826172" xlink:href="#DejaVuSans-114"/>
      <use x="1528.939453" xlink:href="#DejaVuSans-115"/>
     </g>
    </g>
   </g>
   <g id="line2d_29">
    <defs>
     <path d="M 0 1.5 
C 0.397805 1.5 0.77937 1.341951 1.06066 1.06066 
C 1.341951 0.77937 1.5 0.397805 1.5 0 
C 1.5 -0.397805 1.341951 -0.77937 1.06066 -1.06066 
C 0.77937 -1.341951 0.397805 -1.5 0 -1.5 
C -0.397805 -1.5 -0.77937 -1.341951 -1.06066 -1.06066 
C -1.341951 -0.77937 -1.5 -0.397805 -1.5 0 
C -1.5 0.397805 -1.341951 0.77937 -1.06066 1.06066 
C -0.77937 1.341951 -0.397805 1.5 0 1.5 
z
" id="m624d87650c" style="stroke:#000080;"/>
    </defs>
    <g>
     <use style="fill:#000080;stroke:#000080;" x="261.412815" xlink:href="#m624d87650c" y="30.334099"/>
     <use style="fill:#000080;stroke:#000080;" x="261.412815" xlink:href="#m624d87650c" y="30.334099"/>
    </g>
   </g>
   <g id="line2d_30">
    <path d="M 38.440992 298.944 
L 38.440992 296.323416 
L 62.616969 296.323416 
L 62.616969 294.357977 
L 81.775977 294.357977 
L 81.775977 293.702831 
L 90.684409 293.702831 
L 90.684409 293.047685 
L 104.434538 293.047685 
L 104.434538 292.392539 
L 108.640231 292.392539 
L 108.640231 291.082247 
L 112.026172 291.082247 
L 112.026172 290.427101 
L 116.121606 290.427101 
L 116.121606 289.771955 
L 116.522527 289.771955 
L 116.522527 288.461662 
L 117.297733 288.461662 
L 117.297733 287.15137 
L 118.039942 287.15137 
L 118.039942 286.496224 
L 118.751849 286.496224 
L 118.751849 283.87564 
L 119.768017 283.87564 
L 119.768017 283.220494 
L 120.41399 283.220494 
L 120.41399 281.255055 
L 122.219665 281.255055 
L 122.219665 280.599909 
L 123.593547 280.599909 
L 123.593547 279.944763 
L 124.368753 279.944763 
L 124.368753 279.289617 
L 125.351508 279.289617 
L 125.351508 278.634471 
L 126.948374 278.634471 
L 126.948374 277.979325 
L 128.807571 277.979325 
L 128.807571 277.324179 
L 129.002426 277.324179 
L 129.002426 276.669033 
L 129.945319 276.669033 
L 129.945319 276.013887 
L 130.30865 276.013887 
L 130.30865 275.35874 
L 133.873458 275.35874 
L 133.873458 274.703594 
L 134.019394 274.703594 
L 134.019394 274.048448 
L 135.943785 274.048448 
L 135.943785 273.393302 
L 136.202149 273.393302 
L 136.202149 272.738156 
L 137.198951 272.738156 
L 137.198951 272.08301 
L 140.093612 272.08301 
L 140.093612 271.427864 
L 140.698504 271.427864 
L 140.698504 270.772718 
L 141.848763 270.772718 
L 141.848763 270.117572 
L 142.306513 270.117572 
L 142.306513 269.462426 
L 144.510517 269.462426 
L 144.510517 268.807279 
L 150.114722 268.807279 
L 150.114722 268.152133 
L 152.786492 268.152133 
L 152.786492 267.496987 
L 155.825108 267.496987 
L 155.825108 266.841841 
L 168.13025 266.841841 
L 168.13025 266.186695 
L 168.854895 266.186695 
L 168.854895 265.531549 
L 169.128764 265.531549 
L 169.128764 264.876403 
L 169.981016 264.876403 
L 169.981016 263.566111 
L 171.434392 263.566111 
L 171.434392 262.910965 
L 172.393836 262.910965 
L 172.393836 262.255818 
L 173.770522 262.255818 
L 173.770522 260.945526 
L 174.036212 260.945526 
L 174.080103 258.980088 
L 175.004915 258.980088 
L 175.101646 257.669796 
L 175.23891 257.669796 
L 175.23891 257.01465 
L 175.402213 257.01465 
L 175.402213 256.359504 
L 175.537141 256.359504 
L 175.590821 253.738919 
L 175.790662 253.738919 
L 175.896315 252.428627 
L 176.222414 252.428627 
L 176.222414 251.773481 
L 176.478973 251.773481 
L 176.478973 251.118335 
L 177.042792 251.118335 
L 177.042792 250.463189 
L 177.275482 250.463189 
L 177.372536 249.152896 
L 177.396715 249.152896 
L 177.396715 248.49775 
L 177.990551 248.49775 
L 177.990551 247.842604 
L 178.417327 247.842604 
L 178.417327 245.877166 
L 178.677451 245.877166 
L 178.677451 245.22202 
L 179.1208 245.22202 
L 179.208133 243.911728 
L 179.381498 243.911728 
L 179.381498 242.601435 
L 179.723141 242.601435 
L 179.807517 237.360267 
L 180.264422 237.360267 
L 180.264422 236.705121 
L 180.719649 236.705121 
L 180.719649 234.739682 
L 181.260369 234.739682 
L 181.260369 232.774244 
L 181.48161 232.774244 
L 181.48161 232.119098 
L 181.737795 232.119098 
L 181.737795 231.463952 
L 181.906518 231.463952 
L 181.906518 229.498513 
L 183.79237 229.498513 
L 183.79237 228.843367 
L 190.040549 228.843367 
L 190.040549 228.188221 
L 191.277055 228.188221 
L 191.277055 227.533075 
L 194.854476 227.533075 
L 194.916522 226.222783 
L 195.070677 226.222783 
L 195.162521 223.602199 
L 195.678259 223.602199 
L 195.70365 221.63676 
L 196.047004 221.63676 
L 196.125606 220.326468 
L 196.477018 220.326468 
L 196.569813 217.705884 
L 196.730028 217.705884 
L 196.730028 217.050738 
L 196.857148 217.050738 
L 196.888784 215.740445 
L 197.014757 215.740445 
L 197.014757 215.085299 
L 197.691797 215.085299 
L 197.778363 213.775007 
L 197.832717 213.775007 
L 197.832717 213.119861 
L 199.027792 213.119861 
L 199.027792 212.464715 
L 203.151162 212.464715 
L 203.151162 211.809569 
L 206.713431 211.809569 
L 206.713431 211.154423 
L 206.894672 211.154423 
L 207.003404 207.878692 
L 207.047591 207.878692 
L 207.110364 205.258108 
L 207.177292 205.258108 
L 207.285371 200.672085 
L 207.292987 200.672085 
L 207.292987 199.361793 
L 207.631269 199.361793 
L 207.631269 198.706647 
L 207.767306 198.706647 
L 207.767306 198.051501 
L 207.881268 198.051501 
L 207.952642 195.430916 
L 208.214626 195.430916 
L 208.222879 193.465478 
L 209.181019 193.465478 
L 209.267687 190.844894 
L 209.302622 190.844894 
L 209.383866 188.879455 
L 209.445512 188.879455 
L 209.489687 186.258871 
L 209.697527 186.258871 
L 209.750519 184.293433 
L 209.848509 184.293433 
L 209.932866 182.327994 
L 210.026119 182.327994 
L 210.129974 180.362556 
L 210.31665 180.362556 
L 210.330365 179.052264 
L 210.472363 179.052264 
L 210.472363 178.397118 
L 211.777569 178.397118 
L 211.777569 177.741972 
L 211.919152 177.741972 
L 212.028114 176.431679 
L 212.236644 176.431679 
L 212.236644 175.776533 
L 212.369685 175.776533 
L 212.412726 173.811095 
L 213.412006 173.811095 
L 213.412006 173.155949 
L 213.692365 173.155949 
L 213.794569 170.535364 
L 213.862623 170.535364 
L 213.903626 168.569926 
L 213.985344 168.569926 
L 213.985344 167.91478 
L 214.330978 167.91478 
L 214.402764 166.604488 
L 214.513128 166.604488 
L 214.526785 165.294196 
L 214.970159 165.294196 
L 214.970159 164.63905 
L 215.214993 164.63905 
L 215.214993 163.983903 
L 215.590796 163.983903 
L 215.590796 163.328757 
L 216.777706 163.328757 
L 216.777706 162.673611 
L 217.040314 162.673611 
L 217.040314 161.363319 
L 218.605769 161.363319 
L 218.605769 160.708173 
L 218.719694 160.708173 
L 218.805917 158.742735 
L 218.847467 158.742735 
L 218.916312 156.777296 
L 219.014352 156.777296 
L 219.067596 154.156712 
L 219.175802 154.156712 
L 219.184055 152.84642 
L 219.582688 152.84642 
L 219.662082 151.536128 
L 219.700042 151.536128 
L 219.762415 150.225835 
L 220.041154 150.225835 
L 220.041154 149.570689 
L 220.338177 149.570689 
L 220.403957 147.605251 
L 220.494 147.605251 
L 220.571393 144.984667 
L 220.621616 144.984667 
L 220.621616 144.32952 
L 220.76037 144.32952 
L 220.76037 143.674374 
L 221.168656 143.674374 
L 221.238229 142.364082 
L 221.58247 142.364082 
L 221.58247 141.708936 
L 221.706199 141.708936 
L 221.706199 141.05379 
L 221.844176 141.05379 
L 221.844176 140.398644 
L 222.363429 140.398644 
L 222.363429 139.743498 
L 222.5036 139.743498 
L 222.57032 138.433206 
L 222.692208 138.433206 
L 222.749246 137.122913 
L 222.915255 137.122913 
L 223.016669 135.157475 
L 223.192844 135.157475 
L 223.192844 134.502329 
L 223.484579 134.502329 
L 223.484579 133.847183 
L 223.779123 133.847183 
L 223.86093 131.226598 
L 224.342239 131.226598 
L 224.342239 130.571452 
L 224.578002 130.571452 
L 224.679051 129.26116 
L 224.729156 129.26116 
L 224.789492 127.950868 
L 224.916671 127.950868 
L 224.916671 127.295722 
L 225.101015 127.295722 
L 225.101015 126.640576 
L 225.416693 126.640576 
L 225.416693 125.98543 
L 225.700656 125.98543 
L 225.746026 124.675137 
L 225.831155 124.675137 
L 225.831155 124.019991 
L 225.968888 124.019991 
L 226.002036 122.054553 
L 226.087038 122.054553 
L 226.087038 121.399407 
L 226.385146 121.399407 
L 226.485324 120.089115 
L 226.610462 120.089115 
L 226.610462 119.433969 
L 226.836451 119.433969 
L 226.929138 118.123676 
L 227.018527 118.123676 
L 227.018527 117.46853 
L 227.25041 117.46853 
L 227.263914 116.158238 
L 227.374666 116.158238 
L 227.402502 114.1928 
L 227.62564 114.1928 
L 227.62564 113.537654 
L 228.064189 113.537654 
L 228.092597 112.227362 
L 228.44126 112.227362 
L 228.523565 110.261923 
L 228.562483 110.261923 
L 228.649974 108.296485 
L 228.723663 108.296485 
L 228.723663 107.641339 
L 229.003132 107.641339 
L 229.003132 106.986193 
L 229.672721 106.986193 
L 229.672721 106.331047 
L 230.028418 106.331047 
L 230.047312 105.020754 
L 230.679535 105.020754 
L 230.709104 103.710462 
L 230.962074 103.710462 
L 230.963474 102.40017 
L 231.088726 102.40017 
L 231.102062 101.089878 
L 231.224395 101.089878 
L 231.224395 100.434732 
L 231.483644 100.434732 
L 231.483644 99.779586 
L 231.647541 99.779586 
L 231.647541 99.12444 
L 231.927131 99.12444 
L 231.942489 97.814147 
L 232.231751 97.814147 
L 232.308118 95.193563 
L 232.362462 95.193563 
L 232.418441 93.883271 
L 232.527558 93.883271 
L 232.527558 93.228125 
L 232.666492 93.228125 
L 232.666492 92.572979 
L 232.876228 92.572979 
L 232.931584 90.60754 
L 233.002713 90.60754 
L 233.002713 89.952394 
L 233.332818 89.952394 
L 233.332818 89.297248 
L 234.068121 89.297248 
L 234.103699 87.986956 
L 234.460354 87.986956 
L 234.56041 86.676664 
L 234.59568 86.676664 
L 234.625207 85.366371 
L 234.91642 85.366371 
L 234.91642 84.711225 
L 235.042728 84.711225 
L 235.095382 83.400933 
L 235.246485 83.400933 
L 235.265745 82.090641 
L 235.40367 82.090641 
L 235.442475 80.780349 
L 235.579444 80.780349 
L 235.579444 80.125203 
L 235.770899 80.125203 
L 235.770899 79.470057 
L 235.958592 79.470057 
L 235.958592 78.81491 
L 236.075927 78.81491 
L 236.143247 77.504618 
L 236.660539 77.504618 
L 236.715179 75.53918 
L 236.919512 75.53918 
L 237.004857 73.573742 
L 237.061193 73.573742 
L 237.115775 72.263449 
L 237.281034 72.263449 
L 237.281034 71.608303 
L 237.659831 71.608303 
L 237.728726 70.298011 
L 237.869849 70.298011 
L 237.869849 69.642865 
L 238.597906 69.642865 
L 238.693419 67.677427 
L 238.985166 67.677427 
L 238.985166 67.022281 
L 239.694124 67.022281 
L 239.761026 65.711988 
L 240.25732 65.711988 
L 240.25732 65.056842 
L 240.461176 65.056842 
L 240.461176 64.401696 
L 240.859018 64.401696 
L 240.859018 63.74655 
L 241.203378 63.74655 
L 241.203378 63.091404 
L 241.323575 63.091404 
L 241.323575 62.436258 
L 241.445252 62.436258 
L 241.502255 61.125966 
L 241.629835 61.125966 
L 241.72087 59.815674 
L 242.51963 59.815674 
L 242.51963 59.160527 
L 242.666785 59.160527 
L 242.666785 58.505381 
L 242.89666 58.505381 
L 242.89666 57.850235 
L 243.120616 57.850235 
L 243.230554 56.539943 
L 243.429345 56.539943 
L 243.499747 54.574505 
L 243.859455 54.574505 
L 243.859455 53.919359 
L 244.004123 53.919359 
L 244.004123 53.264213 
L 244.580959 53.264213 
L 244.657598 51.298774 
L 244.829225 51.298774 
L 244.899999 49.988482 
L 245.475708 49.988482 
L 245.552525 48.67819 
L 245.662781 48.67819 
L 245.727497 47.367898 
L 246.100373 47.367898 
L 246.100373 46.712752 
L 246.453585 46.712752 
L 246.453585 46.057605 
L 246.815697 46.057605 
L 246.815697 45.402459 
L 247.391101 45.402459 
L 247.391101 44.747313 
L 247.656257 44.747313 
L 247.701561 43.437021 
L 247.815268 43.437021 
L 247.865898 42.126729 
L 248.086794 42.126729 
L 248.086794 41.471583 
L 248.420851 41.471583 
L 248.483293 39.506144 
L 248.74883 39.506144 
L 248.74883 38.850998 
L 248.996753 38.850998 
L 248.996753 38.195852 
L 249.714989 38.195852 
L 249.722821 36.88556 
L 250.848941 36.88556 
L 250.848941 36.230414 
L 251.839545 36.230414 
L 251.839545 35.575268 
L 252.008958 35.575268 
L 252.084757 34.264976 
L 252.405996 34.264976 
L 252.405996 33.60983 
L 255.075573 33.60983 
L 255.075573 32.954683 
L 255.630793 32.954683 
L 255.630793 32.299537 
L 256.982951 32.299537 
L 256.982951 31.644391 
L 258.355039 31.644391 
L 258.355039 30.989245 
L 261.412815 30.989245 
L 261.412815 30.334099 
L 338.688 30.334099 
L 338.688 30.334099 
" style="fill:none;stroke:#000080;stroke-linecap:square;stroke-width:1.5;"/>
   </g>
   <g id="line2d_31">
    <defs>
     <path d="M 0 6 
C 1.591219 6 3.117479 5.367802 4.242641 4.242641 
C 5.367802 3.117479 6 1.591219 6 0 
C 6 -1.591219 5.367802 -3.117479 4.242641 -4.242641 
C 3.117479 -5.367802 1.591219 -6 0 -6 
C -1.591219 -6 -3.117479 -5.367802 -4.242641 -4.242641 
C -5.367802 -3.117479 -6 -1.591219 -6 0 
C -6 1.591219 -5.367802 3.117479 -4.242641 4.242641 
C -3.117479 5.367802 -1.591219 6 0 6 
z
" id="mc091df72f2" style="stroke:#000080;stroke-width:1.5;"/>
    </defs>
    <g>
     <use style="fill-opacity:0;stroke:#000080;stroke-width:1.5;" x="118.039942" xlink:href="#mc091df72f2" y="287.15137"/>
     <use style="fill-opacity:0;stroke:#000080;stroke-width:1.5;" x="177.990551" xlink:href="#mc091df72f2" y="247.842604"/>
     <use style="fill-opacity:0;stroke:#000080;stroke-width:1.5;" x="221.844176" xlink:href="#mc091df72f2" y="141.05379"/>
     <use style="fill-opacity:0;stroke:#000080;stroke-width:1.5;" x="242.666785" xlink:href="#mc091df72f2" y="58.505381"/>
     <use style="fill-opacity:0;stroke:#000080;stroke-width:1.5;" x="261.412815" xlink:href="#mc091df72f2" y="30.334099"/>
     <use style="fill-opacity:0;stroke:#000080;stroke-width:1.5;" x="338.688" xlink:href="#mc091df72f2" y="30.334099"/>
    </g>
   </g>
   <g id="line2d_32">
    <path style="fill:none;stroke:#000080;stroke-linecap:square;stroke-width:1.5;"/>
    <g/>
   </g>
   <g id="line2d_33">
    <path clip-path="url(#p76da7414d5)" d="M 206.777416 211.154423 
" style="fill:none;stroke:#000080;stroke-linecap:square;stroke-width:1.5;"/>
    <defs>
     <path d="M -12 12 
L 12 -12 
M -12 -12 
L 12 12 
" id="m58b003d106" style="stroke:#000080;"/>
    </defs>
    <g clip-path="url(#p76da7414d5)">
     <use style="fill:#000080;stroke:#000080;" x="206.777416" xlink:href="#m58b003d106" y="211.154423"/>
    </g>
   </g>
   <g id="line2d_34">
    <defs>
     <path d="M 0 1.5 
C 0.397805 1.5 0.77937 1.341951 1.06066 1.06066 
C 1.341951 0.77937 1.5 0.397805 1.5 0 
C 1.5 -0.397805 1.341951 -0.77937 1.06066 -1.06066 
C 0.77937 -1.341951 0.397805 -1.5 0 -1.5 
C -0.397805 -1.5 -0.77937 -1.341951 -1.06066 -1.06066 
C -1.341951 -0.77937 -1.5 -0.397805 -1.5 0 
C -1.5 0.397805 -1.341951 0.77937 -1.06066 1.06066 
C -0.77937 1.341951 -0.397805 1.5 0 1.5 
z
" id="m2d904d9957" style="stroke:#ff00ff;"/>
    </defs>
    <g>
     <use style="fill:#ff00ff;stroke:#ff00ff;" x="257.257775" xlink:href="#m2d904d9957" y="30.334099"/>
     <use style="fill:#ff00ff;stroke:#ff00ff;" x="257.257775" xlink:href="#m2d904d9957" y="30.334099"/>
    </g>
   </g>
   <g id="line2d_35">
    <path d="M 38.440992 298.944 
L 38.440992 296.323416 
L 50.52898 296.323416 
L 50.52898 295.66827 
L 62.616969 295.66827 
L 62.616969 295.013123 
L 98.880934 295.013123 
L 98.880934 294.357977 
L 100.934985 294.357977 
L 100.934985 293.702831 
L 107.347841 293.702831 
L 107.347841 293.047685 
L 109.843417 293.047685 
L 109.843417 291.737393 
L 112.026172 291.737393 
L 112.026172 291.082247 
L 116.121606 291.082247 
L 116.121606 289.771955 
L 116.914437 289.771955 
L 116.914437 289.116809 
L 117.297733 289.116809 
L 117.297733 288.461662 
L 118.399528 288.461662 
L 118.399528 287.15137 
L 120.41399 287.15137 
L 120.41399 286.496224 
L 121.340187 286.496224 
L 121.340187 285.185932 
L 121.638301 285.185932 
L 121.638301 284.530786 
L 122.503236 284.530786 
L 122.503236 283.220494 
L 123.855796 283.220494 
L 123.855796 282.565348 
L 125.351508 282.565348 
L 125.351508 280.599909 
L 125.822869 280.599909 
L 125.822869 279.289617 
L 127.799239 279.289617 
L 127.799239 278.634471 
L 128.411207 278.634471 
L 128.411207 277.979325 
L 128.610515 277.979325 
L 128.610515 277.324179 
L 129.385722 277.324179 
L 129.385722 275.35874 
L 130.127931 275.35874 
L 130.127931 274.703594 
L 130.30865 274.703594 
L 130.30865 274.048448 
L 132.342714 274.048448 
L 132.342714 273.393302 
L 135.144899 273.393302 
L 135.144899 272.738156 
L 136.831795 272.738156 
L 136.831795 272.08301 
L 137.198951 272.08301 
L 137.198951 271.427864 
L 140.698504 271.427864 
L 140.698504 270.772718 
L 141.47371 270.772718 
L 141.47371 270.117572 
L 141.848763 270.117572 
L 141.848763 269.462426 
L 143.611807 269.462426 
L 143.611807 268.807279 
L 145.516164 268.807279 
L 145.516164 268.152133 
L 146.107383 268.152133 
L 146.107383 267.496987 
L 146.466968 267.496987 
L 146.466968 266.841841 
L 148.670646 266.841841 
L 148.670646 266.186695 
L 149.407627 266.186695 
L 149.407627 265.531549 
L 151.124351 265.531549 
L 151.124351 263.566111 
L 153.418948 263.566111 
L 153.418948 262.255818 
L 155.699795 262.255818 
L 155.699795 261.600672 
L 160.249422 261.600672 
L 160.249422 260.945526 
L 160.537682 260.945526 
L 160.537682 258.980088 
L 162.317821 258.980088 
L 162.317821 258.324942 
L 163.21234 258.324942 
L 163.21234 257.01465 
L 164.166702 257.01465 
L 164.269589 255.049211 
L 165.047026 255.049211 
L 165.071537 253.083773 
L 166.163331 253.083773 
L 166.163331 252.428627 
L 172.393836 252.428627 
L 172.490141 249.808043 
L 172.665332 249.808043 
L 172.665332 248.49775 
L 173.710926 248.49775 
L 173.710926 247.842604 
L 174.25457 247.842604 
L 174.25457 247.187458 
L 175.684365 247.187458 
L 175.77741 245.877166 
L 176.183602 245.877166 
L 176.183602 245.22202 
L 176.299779 245.22202 
L 176.376802 243.911728 
L 176.453486 243.911728 
L 176.453486 243.256582 
L 177.079739 243.256582 
L 177.079739 242.601435 
L 177.672393 242.601435 
L 177.672393 241.946289 
L 178.78935 241.946289 
L 178.833909 239.980851 
L 179.295031 239.980851 
L 179.327506 238.670559 
L 179.467538 238.670559 
L 179.467538 238.015413 
L 179.638356 238.015413 
L 179.638356 237.360267 
L 179.933319 237.360267 
L 179.933319 236.705121 
L 180.05822 236.705121 
L 180.05822 236.049974 
L 180.518792 236.049974 
L 180.518792 235.394828 
L 180.878686 235.394828 
L 180.878686 234.739682 
L 181.026478 234.739682 
L 181.026478 233.42939 
L 181.567424 233.42939 
L 181.567424 232.774244 
L 182.70422 232.774244 
L 182.70422 232.119098 
L 182.96075 232.119098 
L 182.96075 231.463952 
L 183.248145 231.463952 
L 183.35149 230.15366 
L 183.615662 230.15366 
L 183.615662 229.498513 
L 185.873378 229.498513 
L 185.873378 228.843367 
L 192.153986 228.843367 
L 192.153986 228.188221 
L 192.889822 228.188221 
L 192.889822 227.533075 
L 193.731338 227.533075 
L 193.731338 226.877929 
L 195.033365 226.877929 
L 195.033365 226.222783 
L 202.746456 226.222783 
L 202.746456 225.567637 
L 204.440399 225.567637 
L 204.440399 224.257345 
L 204.649255 224.257345 
L 204.757785 221.63676 
L 204.860643 221.63676 
L 204.860643 220.326468 
L 205.251441 220.326468 
L 205.297852 216.395591 
L 205.424242 216.395591 
L 205.520845 213.119861 
L 205.565344 213.119861 
L 205.639655 207.878692 
L 205.787336 207.878692 
L 205.811039 205.258108 
L 205.899638 205.258108 
L 206.006538 200.672085 
L 206.070831 200.672085 
L 206.111622 199.361793 
L 206.273838 199.361793 
L 206.278451 197.396355 
L 206.38879 197.396355 
L 206.459682 195.430916 
L 206.516643 195.430916 
L 206.516643 192.810332 
L 207.015567 192.810332 
L 207.015567 192.155186 
L 207.529613 192.155186 
L 207.529613 191.50004 
L 207.681344 191.50004 
L 207.681344 190.844894 
L 207.821215 190.844894 
L 207.892834 189.534601 
L 208.04145 189.534601 
L 208.04145 188.879455 
L 208.15364 188.879455 
L 208.15364 188.224309 
L 208.30622 188.224309 
L 208.30622 187.569163 
L 209.154641 187.569163 
L 209.173207 185.603725 
L 209.46089 185.603725 
L 209.541401 183.638286 
L 209.651976 183.638286 
L 209.651976 182.98314 
L 209.979555 182.98314 
L 210.027979 181.672848 
L 210.177983 181.672848 
L 210.20378 180.362556 
L 211.160283 180.362556 
L 211.160283 179.70741 
L 211.443813 179.70741 
L 211.443813 179.052264 
L 211.697473 179.052264 
L 211.722807 177.741972 
L 212.24074 177.741972 
L 212.24074 177.086825 
L 212.733385 177.086825 
L 212.733385 176.431679 
L 213.031824 176.431679 
L 213.031824 175.776533 
L 213.181478 175.776533 
L 213.181478 174.466241 
L 214.669895 174.466241 
L 214.739592 171.190511 
L 214.803356 171.190511 
L 214.895049 167.91478 
L 214.937207 167.91478 
L 214.990461 166.604488 
L 215.168655 166.604488 
L 215.24053 163.983903 
L 215.292867 163.983903 
L 215.339563 162.673611 
L 215.685847 162.673611 
L 215.726138 161.363319 
L 216.210989 161.363319 
L 216.304027 157.432442 
L 216.333202 157.432442 
L 216.430101 154.811858 
L 216.45971 154.811858 
L 216.568697 151.536128 
L 216.656672 151.536128 
L 216.656672 149.570689 
L 216.784651 149.570689 
L 216.889123 146.950105 
L 216.920468 146.950105 
L 216.920468 146.294959 
L 217.869394 146.294959 
L 217.959324 144.984667 
L 217.993517 144.984667 
L 218.090427 143.674374 
L 218.107404 143.674374 
L 218.185053 139.088352 
L 218.273954 139.088352 
L 218.379118 134.502329 
L 218.391787 134.502329 
L 218.449259 127.950868 
L 218.50883 127.950868 
L 218.612591 123.364845 
L 218.619979 123.364845 
L 218.684066 120.744261 
L 218.79467 120.744261 
L 218.827266 118.778823 
L 219.01824 118.778823 
L 219.01824 118.123676 
L 219.157631 118.123676 
L 219.260352 116.158238 
L 219.277323 116.158238 
L 219.388045 114.1928 
L 219.42986 114.1928 
L 219.42986 113.537654 
L 219.612235 113.537654 
L 219.719791 112.227362 
L 219.976092 112.227362 
L 219.976092 111.572215 
L 220.122663 111.572215 
L 220.218834 110.261923 
L 220.333027 110.261923 
L 220.333027 109.606777 
L 220.773432 109.606777 
L 220.773432 108.951631 
L 221.11457 108.951631 
L 221.11457 108.296485 
L 221.245562 108.296485 
L 221.245562 107.641339 
L 221.365872 107.641339 
L 221.365872 106.986193 
L 222.906815 106.986193 
L 222.906815 106.331047 
L 223.144255 106.331047 
L 223.254371 104.365608 
L 223.266999 104.365608 
L 223.307432 103.055316 
L 223.513357 103.055316 
L 223.513357 102.40017 
L 223.923502 102.40017 
L 223.99462 101.089878 
L 224.057963 101.089878 
L 224.146341 99.779586 
L 224.169502 99.779586 
L 224.169502 99.12444 
L 224.334052 99.12444 
L 224.436113 97.159001 
L 224.477583 97.159001 
L 224.513687 95.848709 
L 224.913898 95.848709 
L 225.022867 93.883271 
L 225.042142 93.883271 
L 225.146798 91.917832 
L 225.264421 91.917832 
L 225.343815 90.60754 
L 225.626676 90.60754 
L 225.720709 87.986956 
L 225.88031 87.986956 
L 225.88031 87.33181 
L 226.109611 87.33181 
L 226.204025 85.366371 
L 226.273036 85.366371 
L 226.300857 82.745787 
L 226.43204 82.745787 
L 226.43204 82.090641 
L 226.825096 82.090641 
L 226.88993 79.470057 
L 227.279137 79.470057 
L 227.279137 78.81491 
L 227.39048 78.81491 
L 227.407652 77.504618 
L 227.91745 77.504618 
L 227.91745 76.849472 
L 228.335797 76.849472 
L 228.335797 76.194326 
L 228.965186 76.194326 
L 229.019728 74.884034 
L 229.137009 74.884034 
L 229.236823 73.573742 
L 229.383336 73.573742 
L 229.452776 72.263449 
L 229.667595 72.263449 
L 229.667595 71.608303 
L 229.795587 71.608303 
L 229.795587 70.953157 
L 230.132671 70.953157 
L 230.242432 68.987719 
L 230.45414 68.987719 
L 230.546426 67.677427 
L 230.573358 67.677427 
L 230.663593 65.711988 
L 230.761579 65.711988 
L 230.761579 65.056842 
L 230.968513 65.056842 
L 231.071762 63.74655 
L 231.084556 63.74655 
L 231.161122 61.781112 
L 231.262139 61.781112 
L 231.316545 60.47082 
L 231.454816 60.47082 
L 231.530048 59.160527 
L 231.724629 59.160527 
L 231.724629 58.505381 
L 232.008533 58.505381 
L 232.068023 57.195089 
L 232.142231 57.195089 
L 232.142231 56.539943 
L 233.050716 56.539943 
L 233.050716 55.884797 
L 233.192214 55.884797 
L 233.192214 55.229651 
L 233.318882 55.229651 
L 233.357484 53.919359 
L 233.668301 53.919359 
L 233.678128 51.95392 
L 234.515479 51.95392 
L 234.604317 50.643628 
L 234.651286 50.643628 
L 234.651286 49.988482 
L 235.103332 49.988482 
L 235.103332 49.333336 
L 235.308787 49.333336 
L 235.388037 47.367898 
L 235.785768 47.367898 
L 235.785768 46.712752 
L 235.925554 46.712752 
L 235.925554 46.057605 
L 236.747559 46.057605 
L 236.747559 45.402459 
L 236.874489 45.402459 
L 236.874489 44.747313 
L 237.045398 44.747313 
L 237.045398 44.092167 
L 237.454007 44.092167 
L 237.454007 43.437021 
L 237.615343 43.437021 
L 237.615343 42.781875 
L 237.956866 42.781875 
L 237.956866 42.126729 
L 238.074203 42.126729 
L 238.074203 41.471583 
L 238.345998 41.471583 
L 238.345998 40.816437 
L 238.553396 40.816437 
L 238.553396 40.161291 
L 238.85638 40.161291 
L 238.950137 38.850998 
L 241.471325 38.850998 
L 241.471325 38.195852 
L 241.83066 38.195852 
L 241.898238 36.88556 
L 243.318726 36.88556 
L 243.318726 36.230414 
L 244.783276 36.230414 
L 244.783276 35.575268 
L 245.085719 35.575268 
L 245.085719 34.920122 
L 247.277661 34.920122 
L 247.277661 34.264976 
L 248.110899 34.264976 
L 248.110899 33.60983 
L 249.806644 33.60983 
L 249.806644 32.954683 
L 252.119079 32.954683 
L 252.119079 32.299537 
L 253.366064 32.299537 
L 253.366064 31.644391 
L 253.787317 31.644391 
L 253.787317 30.989245 
L 257.257775 30.989245 
L 257.257775 30.334099 
L 338.688 30.334099 
L 338.688 30.334099 
" style="fill:none;stroke:#ff00ff;stroke-linecap:square;stroke-width:1.5;"/>
   </g>
   <g id="line2d_36">
    <defs>
     <path d="M -0 8.485281 
L 5.091169 0 
L 0 -8.485281 
L -5.091169 -0 
z
" id="m539a006a0d" style="stroke:#ff00ff;stroke-linejoin:miter;stroke-width:1.5;"/>
    </defs>
    <g>
     <use style="fill-opacity:0;stroke:#ff00ff;stroke-linejoin:miter;stroke-width:1.5;" x="116.121606" xlink:href="#m539a006a0d" y="289.771955"/>
     <use style="fill-opacity:0;stroke:#ff00ff;stroke-linejoin:miter;stroke-width:1.5;" x="173.710926" xlink:href="#m539a006a0d" y="248.49775"/>
     <use style="fill-opacity:0;stroke:#ff00ff;stroke-linejoin:miter;stroke-width:1.5;" x="215.24053" xlink:href="#m539a006a0d" y="164.63905"/>
     <use style="fill-opacity:0;stroke:#ff00ff;stroke-linejoin:miter;stroke-width:1.5;" x="257.257775" xlink:href="#m539a006a0d" y="30.989245"/>
     <use style="fill-opacity:0;stroke:#ff00ff;stroke-linejoin:miter;stroke-width:1.5;" x="257.257775" xlink:href="#m539a006a0d" y="30.334099"/>
     <use style="fill-opacity:0;stroke:#ff00ff;stroke-linejoin:miter;stroke-width:1.5;" x="338.688" xlink:href="#m539a006a0d" y="30.334099"/>
    </g>
   </g>
   <g id="line2d_37">
    <path style="fill:none;stroke:#ff00ff;stroke-linecap:square;stroke-width:1.5;"/>
    <g/>
   </g>
   <g id="line2d_38">
    <path clip-path="url(#p76da7414d5)" d="M 208.430998 187.569163 
" style="fill:none;stroke:#ff00ff;stroke-linecap:square;stroke-width:1.5;"/>
    <defs>
     <path d="M -12 12 
L 12 -12 
M -12 -12 
L 12 12 
" id="m37d557a0e6" style="stroke:#ff00ff;"/>
    </defs>
    <g clip-path="url(#p76da7414d5)">
     <use style="fill:#ff00ff;stroke:#ff00ff;" x="208.430998" xlink:href="#m37d557a0e6" y="187.569163"/>
    </g>
   </g>
   <g id="line2d_39">
    <defs>
     <path d="M 0 1.5 
C 0.397805 1.5 0.77937 1.341951 1.06066 1.06066 
C 1.341951 0.77937 1.5 0.397805 1.5 0 
C 1.5 -0.397805 1.341951 -0.77937 1.06066 -1.06066 
C 0.77937 -1.341951 0.397805 -1.5 0 -1.5 
C -0.397805 -1.5 -0.77937 -1.341951 -1.06066 -1.06066 
C -1.341951 -0.77937 -1.5 -0.397805 -1.5 0 
C -1.5 0.397805 -1.341951 0.77937 -1.06066 1.06066 
C -0.77937 1.341951 -0.397805 1.5 0 1.5 
z
" id="m77c6023364" style="stroke:#ff7500;"/>
    </defs>
    <g>
     <use style="fill:#ff7500;stroke:#ff7500;" x="255.452421" xlink:href="#m77c6023364" y="30.334099"/>
     <use style="fill:#ff7500;stroke:#ff7500;" x="255.452421" xlink:href="#m77c6023364" y="30.334099"/>
    </g>
   </g>
   <g id="line2d_40">
    <path d="M 38.440992 298.944 
L 38.440992 296.323416 
L 50.52898 296.323416 
L 50.52898 295.66827 
L 98.880934 295.66827 
L 98.880934 294.357977 
L 112.026172 294.357977 
L 112.026172 293.702831 
L 113.500792 293.702831 
L 113.500792 292.392539 
L 115.291007 292.392539 
L 115.291007 291.737393 
L 116.121606 291.737393 
L 116.121606 287.15137 
L 118.399528 287.15137 
L 118.399528 285.185932 
L 118.751849 285.185932 
L 118.751849 283.87564 
L 119.43583 283.87564 
L 119.43583 283.220494 
L 121.036887 283.220494 
L 121.036887 282.565348 
L 121.638301 282.565348 
L 121.638301 281.255055 
L 121.931406 281.255055 
L 121.931406 280.599909 
L 122.503236 280.599909 
L 122.503236 278.634471 
L 124.619683 278.634471 
L 124.619683 277.324179 
L 125.110962 277.324179 
L 125.110962 276.013887 
L 125.351508 276.013887 
L 125.351508 275.35874 
L 126.948374 275.35874 
L 126.948374 274.703594 
L 128.610515 274.703594 
L 128.610515 274.048448 
L 128.807571 274.048448 
L 128.807571 273.393302 
L 131.185181 273.393302 
L 131.185181 272.738156 
L 131.690703 272.738156 
L 131.690703 271.427864 
L 132.501978 271.427864 
L 132.501978 270.772718 
L 134.870259 270.772718 
L 134.870259 270.117572 
L 136.202149 270.117572 
L 136.202149 269.462426 
L 139.036363 269.462426 
L 139.036363 268.807279 
L 139.466984 268.807279 
L 139.466984 268.152133 
L 139.887228 268.152133 
L 139.887228 267.496987 
L 144.589967 267.496987 
L 144.589967 266.841841 
L 147.096109 266.841841 
L 147.096109 266.186695 
L 148.981515 266.186695 
L 148.981515 265.531549 
L 160.569418 265.531549 
L 160.569418 264.876403 
L 167.714267 264.876403 
L 167.714267 264.221257 
L 169.66393 264.221257 
L 169.66393 263.566111 
L 174.25457 263.566111 
L 174.25457 262.910965 
L 175.074063 262.910965 
L 175.074063 262.255818 
L 175.883143 262.255818 
L 175.883143 260.945526 
L 177.755438 260.945526 
L 177.755438 260.29038 
L 177.955486 260.29038 
L 177.955486 258.980088 
L 178.234056 258.980088 
L 178.234056 258.324942 
L 178.867253 258.324942 
L 178.867253 257.669796 
L 179.262495 257.669796 
L 179.262495 257.01465 
L 179.733711 257.01465 
L 179.775924 255.704357 
L 179.891486 255.704357 
L 179.891486 255.049211 
L 180.202817 255.049211 
L 180.254169 253.083773 
L 180.709661 253.083773 
L 180.709661 251.118335 
L 181.36653 251.118335 
L 181.36653 250.463189 
L 181.728374 250.463189 
L 181.756623 248.49775 
L 182.303092 248.49775 
L 182.303092 247.187458 
L 182.452904 247.187458 
L 182.461942 244.566874 
L 183.017734 244.566874 
L 183.017734 243.911728 
L 184.409244 243.911728 
L 184.409244 243.256582 
L 185.626432 243.256582 
L 185.626432 242.601435 
L 186.036086 242.601435 
L 186.058157 240.635997 
L 187.578023 240.635997 
L 187.645278 239.325705 
L 187.765688 239.325705 
L 187.765688 238.670559 
L 188.154636 238.670559 
L 188.154636 238.015413 
L 188.800964 238.015413 
L 188.800964 237.360267 
L 189.019465 237.360267 
L 189.019465 236.705121 
L 189.71275 236.705121 
L 189.763355 235.394828 
L 189.890703 235.394828 
L 189.99661 234.084536 
L 190.03177 234.084536 
L 190.03177 232.774244 
L 190.697955 232.774244 
L 190.697955 232.119098 
L 191.104509 232.119098 
L 191.181407 230.15366 
L 192.190231 230.15366 
L 192.190231 229.498513 
L 195.559277 229.498513 
L 195.559277 228.843367 
L 207.44031 228.843367 
L 207.524246 224.257345 
L 207.575699 224.257345 
L 207.575699 223.602199 
L 207.74612 223.602199 
L 207.826491 222.291906 
L 207.864432 222.291906 
L 207.898088 220.981614 
L 208.017464 220.981614 
L 208.118399 219.016176 
L 208.160887 219.016176 
L 208.247614 215.085299 
L 208.40346 215.085299 
L 208.432017 213.775007 
L 209.514606 213.775007 
L 209.514606 213.119861 
L 209.895424 213.119861 
L 209.990741 211.154423 
L 210.183514 211.154423 
L 210.183514 210.499277 
L 210.54925 210.499277 
L 210.54925 209.84413 
L 211.106167 209.84413 
L 211.186408 207.223546 
L 212.528328 207.223546 
L 212.528328 206.5684 
L 212.69911 206.5684 
L 212.800148 205.258108 
L 212.876926 205.258108 
L 212.92031 203.947816 
L 213.207071 203.947816 
L 213.316772 201.982377 
L 213.672003 201.982377 
L 213.768324 198.051501 
L 213.795319 198.051501 
L 213.895433 192.155186 
L 213.906604 192.155186 
L 213.995717 189.534601 
L 214.043058 189.534601 
L 214.135887 186.914017 
L 214.160118 186.914017 
L 214.236993 180.362556 
L 214.277855 180.362556 
L 214.386113 174.466241 
L 214.421568 174.466241 
L 214.445405 172.500803 
L 214.535405 172.500803 
L 214.605641 171.190511 
L 214.688413 171.190511 
L 214.750945 167.259634 
L 214.81184 167.259634 
L 214.81184 166.604488 
L 215.92223 166.604488 
L 215.954036 165.294196 
L 217.939839 165.294196 
L 217.939839 164.63905 
L 218.127287 164.63905 
L 218.218226 162.018465 
L 218.240306 162.018465 
L 218.305223 157.432442 
L 218.369898 157.432442 
L 218.422846 154.156712 
L 218.484797 154.156712 
L 218.511117 152.191274 
L 218.598944 152.191274 
L 218.654604 149.570689 
L 219.082542 149.570689 
L 219.192305 148.260397 
L 219.273492 148.260397 
L 219.273492 147.605251 
L 219.480231 147.605251 
L 219.516429 145.639813 
L 219.68027 145.639813 
L 219.68027 144.984667 
L 220.271115 144.984667 
L 220.363902 143.674374 
L 221.010352 143.674374 
L 221.118509 142.364082 
L 221.161782 142.364082 
L 221.186321 141.05379 
L 221.277303 141.05379 
L 221.277303 140.398644 
L 221.771293 140.398644 
L 221.771293 139.743498 
L 221.934618 139.743498 
L 221.934618 139.088352 
L 222.050749 139.088352 
L 222.050749 138.433206 
L 222.167503 138.433206 
L 222.167503 137.778059 
L 222.597028 137.778059 
L 222.634982 135.812621 
L 222.758212 135.812621 
L 222.758212 135.157475 
L 222.903259 135.157475 
L 222.903259 134.502329 
L 223.090695 134.502329 
L 223.146885 133.192037 
L 223.239555 133.192037 
L 223.239555 132.536891 
L 223.601542 132.536891 
L 223.656965 131.226598 
L 223.830614 131.226598 
L 223.849147 129.916306 
L 224.163715 129.916306 
L 224.171155 128.606014 
L 224.302497 128.606014 
L 224.341011 127.295722 
L 224.490573 127.295722 
L 224.587286 125.98543 
L 224.609869 125.98543 
L 224.609869 125.330284 
L 224.803049 125.330284 
L 224.895671 123.364845 
L 224.955829 123.364845 
L 225.004359 121.399407 
L 225.101407 121.399407 
L 225.101407 120.744261 
L 225.35965 120.744261 
L 225.443992 118.778823 
L 225.511479 118.778823 
L 225.542833 117.46853 
L 225.796551 117.46853 
L 225.799563 116.158238 
L 226.252141 116.158238 
L 226.252141 115.503092 
L 226.619443 115.503092 
L 226.658905 114.1928 
L 226.84248 114.1928 
L 226.84248 113.537654 
L 227.001318 113.537654 
L 227.043081 112.227362 
L 227.224758 112.227362 
L 227.319896 110.261923 
L 227.363313 110.261923 
L 227.468991 107.641339 
L 227.554982 107.641339 
L 227.599856 106.331047 
L 228.146643 106.331047 
L 228.146643 105.675901 
L 228.580466 105.675901 
L 228.661798 103.710462 
L 228.701047 103.710462 
L 228.774204 101.745024 
L 229.111499 101.745024 
L 229.111499 101.089878 
L 229.291756 101.089878 
L 229.353272 99.779586 
L 229.433226 99.779586 
L 229.444531 98.469293 
L 229.67453 98.469293 
L 229.67453 97.814147 
L 229.787503 97.814147 
L 229.787503 97.159001 
L 230.100636 97.159001 
L 230.100636 96.503855 
L 230.313481 96.503855 
L 230.313481 95.848709 
L 230.475746 95.848709 
L 230.475746 95.193563 
L 230.641933 95.193563 
L 230.673274 93.228125 
L 230.86127 93.228125 
L 230.86859 91.917832 
L 231.152262 91.917832 
L 231.169977 90.60754 
L 231.279469 90.60754 
L 231.279469 89.952394 
L 231.738024 89.952394 
L 231.739363 88.642102 
L 231.86583 88.642102 
L 231.975807 87.33181 
L 232.020395 87.33181 
L 232.087457 85.366371 
L 232.169684 85.366371 
L 232.279844 83.400933 
L 232.770287 83.400933 
L 232.770287 82.745787 
L 233.024865 82.745787 
L 233.024865 82.090641 
L 233.748906 82.090641 
L 233.857622 80.780349 
L 233.873978 80.780349 
L 233.93429 78.159764 
L 234.553119 78.159764 
L 234.553119 77.504618 
L 234.693834 77.504618 
L 234.790315 74.228888 
L 234.860536 74.228888 
L 234.860536 73.573742 
L 235.00502 73.573742 
L 235.081017 71.608303 
L 235.231148 71.608303 
L 235.293068 69.642865 
L 235.832629 69.642865 
L 235.832629 68.987719 
L 235.96826 68.987719 
L 236.0117 67.677427 
L 236.090539 67.677427 
L 236.126181 66.367135 
L 236.55826 66.367135 
L 236.55826 65.711988 
L 236.693827 65.711988 
L 236.693827 65.056842 
L 236.87768 65.056842 
L 236.928065 63.74655 
L 237.194488 63.74655 
L 237.194488 63.091404 
L 237.309075 63.091404 
L 237.418467 60.47082 
L 237.445322 60.47082 
L 237.529483 59.160527 
L 237.584344 59.160527 
L 237.681747 57.850235 
L 238.018249 57.850235 
L 238.018249 57.195089 
L 238.146862 57.195089 
L 238.146862 56.539943 
L 238.478412 56.539943 
L 238.561546 54.574505 
L 238.89373 54.574505 
L 238.972613 53.264213 
L 239.076125 53.264213 
L 239.076125 52.609066 
L 239.520339 52.609066 
L 239.520339 51.95392 
L 239.837605 51.95392 
L 239.837605 51.298774 
L 240.041407 51.298774 
L 240.041407 50.643628 
L 240.206311 50.643628 
L 240.206311 49.988482 
L 240.327337 49.988482 
L 240.327337 49.333336 
L 240.61767 49.333336 
L 240.61767 48.67819 
L 241.205401 48.67819 
L 241.218312 47.367898 
L 241.801962 47.367898 
L 241.801962 46.712752 
L 242.056489 46.712752 
L 242.056489 46.057605 
L 242.381407 46.057605 
L 242.381407 45.402459 
L 242.524247 45.402459 
L 242.610886 44.092167 
L 242.695096 44.092167 
L 242.695096 43.437021 
L 243.869075 43.437021 
L 243.869075 42.781875 
L 244.305937 42.781875 
L 244.305937 42.126729 
L 244.622583 42.126729 
L 244.622583 41.471583 
L 245.064405 41.471583 
L 245.07924 40.161291 
L 246.181045 40.161291 
L 246.181045 39.506144 
L 248.251714 39.506144 
L 248.251714 38.850998 
L 248.590095 38.850998 
L 248.692906 36.88556 
L 249.151451 36.88556 
L 249.259253 35.575268 
L 250.344749 35.575268 
L 250.344749 34.920122 
L 250.571313 34.920122 
L 250.571313 34.264976 
L 250.885513 34.264976 
L 250.885513 33.60983 
L 251.447677 33.60983 
L 251.447677 32.954683 
L 252.410743 32.954683 
L 252.410743 32.299537 
L 253.545208 32.299537 
L 253.600338 30.989245 
L 255.452421 30.989245 
L 255.452421 30.334099 
L 338.688 30.334099 
L 338.688 30.334099 
" style="fill:none;stroke:#ff7500;stroke-linecap:square;stroke-width:1.5;"/>
   </g>
   <g id="line2d_41">
    <defs>
     <path d="M 0 -6 
L -1.347084 -1.854102 
L -5.706339 -1.854102 
L -2.179628 0.708204 
L -3.526712 4.854102 
L -0 2.291796 
L 3.526712 4.854102 
L 2.179628 0.708204 
L 5.706339 -1.854102 
L 1.347084 -1.854102 
z
" id="m676252a569" style="stroke:#ff7500;stroke-linejoin:bevel;stroke-width:1.5;"/>
    </defs>
    <g>
     <use style="fill-opacity:0;stroke:#ff7500;stroke-linejoin:bevel;stroke-width:1.5;" x="175.883143" xlink:href="#m676252a569" y="262.255818"/>
     <use style="fill-opacity:0;stroke:#ff7500;stroke-linejoin:bevel;stroke-width:1.5;" x="214.188711" xlink:href="#m676252a569" y="182.98314"/>
     <use style="fill-opacity:0;stroke:#ff7500;stroke-linejoin:bevel;stroke-width:1.5;" x="250.571313" xlink:href="#m676252a569" y="34.264976"/>
     <use style="fill-opacity:0;stroke:#ff7500;stroke-linejoin:bevel;stroke-width:1.5;" x="255.452421" xlink:href="#m676252a569" y="30.334099"/>
     <use style="fill-opacity:0;stroke:#ff7500;stroke-linejoin:bevel;stroke-width:1.5;" x="338.688" xlink:href="#m676252a569" y="30.334099"/>
    </g>
   </g>
   <g id="line2d_42">
    <path style="fill:none;stroke:#ff7500;stroke-linecap:square;stroke-width:1.5;"/>
    <g/>
   </g>
   <g id="line2d_43">
    <path clip-path="url(#p76da7414d5)" d="M 209.95996 211.809569 
" style="fill:none;stroke:#ff7500;stroke-linecap:square;stroke-width:1.5;"/>
    <defs>
     <path d="M -12 12 
L 12 -12 
M -12 -12 
L 12 12 
" id="ma927a79eea" style="stroke:#ff7500;"/>
    </defs>
    <g clip-path="url(#p76da7414d5)">
     <use style="fill:#ff7500;stroke:#ff7500;" x="209.95996" xlink:href="#ma927a79eea" y="211.809569"/>
    </g>
   </g>
   <g id="line2d_44">
    <defs>
     <path d="M 0 1.5 
C 0.397805 1.5 0.77937 1.341951 1.06066 1.06066 
C 1.341951 0.77937 1.5 0.397805 1.5 0 
C 1.5 -0.397805 1.341951 -0.77937 1.06066 -1.06066 
C 0.77937 -1.341951 0.397805 -1.5 0 -1.5 
C -0.397805 -1.5 -0.77937 -1.341951 -1.06066 -1.06066 
C -1.341951 -0.77937 -1.5 -0.397805 -1.5 0 
C -1.5 0.397805 -1.341951 0.77937 -1.06066 1.06066 
C -0.77937 1.341951 -0.397805 1.5 0 1.5 
z
" id="mdbf11bdd24" style="stroke:#6495ed;"/>
    </defs>
    <g>
     <use style="fill:#6495ed;stroke:#6495ed;" x="237.896207" xlink:href="#mdbf11bdd24" y="30.334099"/>
     <use style="fill:#6495ed;stroke:#6495ed;" x="237.896207" xlink:href="#mdbf11bdd24" y="30.334099"/>
    </g>
   </g>
   <g id="line2d_45">
    <path d="M 38.440992 298.944 
L 38.440992 295.66827 
L 50.52898 295.66827 
L 50.52898 295.013123 
L 62.616969 295.013123 
L 62.616969 293.047685 
L 99.938184 293.047685 
L 99.938184 292.392539 
L 100.934985 292.392539 
L 100.934985 291.737393 
L 108.006005 291.737393 
L 108.006005 291.082247 
L 109.252198 291.082247 
L 109.252198 290.427101 
L 109.843417 290.427101 
L 109.843417 289.771955 
L 111.505558 289.771955 
L 111.505558 287.806516 
L 113.965867 287.806516 
L 113.965867 287.15137 
L 114.860386 287.15137 
L 114.860386 286.496224 
L 115.291007 286.496224 
L 115.291007 285.841078 
L 115.711251 285.841078 
L 115.711251 283.87564 
L 116.914437 283.87564 
L 116.914437 282.565348 
L 119.43583 282.565348 
L 119.43583 281.910201 
L 120.728219 281.910201 
L 120.728219 280.599909 
L 121.036887 280.599909 
L 121.036887 278.634471 
L 122.219665 278.634471 
L 122.219665 277.324179 
L 122.503236 277.324179 
L 122.503236 275.35874 
L 123.056911 275.35874 
L 123.056911 274.703594 
L 123.855796 274.703594 
L 123.855796 274.048448 
L 125.351508 274.048448 
L 125.351508 273.393302 
L 126.281824 273.393302 
L 126.281824 272.738156 
L 129.574256 272.738156 
L 129.574256 272.08301 
L 130.30865 272.08301 
L 130.30865 271.427864 
L 131.185181 271.427864 
L 131.185181 270.772718 
L 134.164119 270.772718 
L 134.164119 270.117572 
L 135.813153 270.117572 
L 135.813153 269.462426 
L 139.572998 269.462426 
L 139.572998 268.807279 
L 141.47371 268.807279 
L 141.47371 267.496987 
L 142.124852 267.496987 
L 142.124852 266.186695 
L 143.611807 266.186695 
L 143.611807 264.876403 
L 144.510517 264.876403 
L 144.510517 264.221257 
L 145.665858 264.221257 
L 145.665858 263.566111 
L 145.814278 263.566111 
L 145.814278 262.910965 
L 147.96658 262.910965 
L 147.96658 262.255818 
L 148.919783 262.255818 
L 148.919783 261.600672 
L 149.587107 261.600672 
L 149.587107 260.945526 
L 149.998846 260.945526 
L 149.998846 260.29038 
L 151.233007 260.29038 
L 151.233007 259.635234 
L 152.181601 259.635234 
L 152.181601 258.980088 
L 152.486669 258.980088 
L 152.486669 258.324942 
L 153.032466 258.324942 
L 153.032466 257.669796 
L 154.484627 257.669796 
L 154.484627 256.359504 
L 155.189341 256.359504 
L 155.189341 255.704357 
L 156.236431 255.704357 
L 156.236431 255.049211 
L 156.717545 255.049211 
L 156.717545 254.394065 
L 157.753847 254.394065 
L 157.753847 253.738919 
L 158.195371 253.738919 
L 158.267884 252.428627 
L 159.320876 252.428627 
L 159.320876 251.118335 
L 159.591258 251.118335 
L 159.591258 249.152896 
L 160.914762 249.152896 
L 160.914762 247.842604 
L 163.402046 247.842604 
L 163.402046 245.877166 
L 163.959089 245.877166 
L 163.959089 244.566874 
L 170.72284 244.566874 
L 170.72284 243.911728 
L 173.01052 243.911728 
L 173.01052 242.601435 
L 173.962814 242.601435 
L 173.962814 241.946289 
L 175.101646 241.946289 
L 175.101646 241.291143 
L 175.962024 241.291143 
L 176.066647 239.980851 
L 176.376802 239.980851 
L 176.402401 238.670559 
L 176.580549 238.670559 
L 176.580549 238.015413 
L 176.794453 238.015413 
L 176.794453 237.360267 
L 177.202336 237.360267 
L 177.202336 236.705121 
L 177.408792 236.705121 
L 177.408792 236.049974 
L 177.565038 236.049974 
L 177.565038 235.394828 
L 177.920349 235.394828 
L 177.920349 232.774244 
L 178.654985 232.774244 
L 178.654985 232.119098 
L 178.794926 232.119098 
L 178.794926 231.463952 
L 178.961385 231.463952 
L 179.049518 229.498513 
L 179.403048 229.498513 
L 179.403048 228.188221 
L 179.995881 228.188221 
L 179.995881 227.533075 
L 180.197673 227.533075 
L 180.197673 226.877929 
L 180.386982 226.877929 
L 180.473278 224.912491 
L 180.61951 224.912491 
L 180.729632 223.602199 
L 181.192474 223.602199 
L 181.192474 221.63676 
L 181.850459 221.63676 
L 181.869165 219.671322 
L 182.726484 219.671322 
L 182.726484 219.016176 
L 189.250575 219.016176 
L 189.250575 218.36103 
L 194.3134 218.36103 
L 194.3134 217.705884 
L 194.450251 217.705884 
L 194.450251 217.050738 
L 194.960706 217.050738 
L 194.960706 216.395591 
L 197.264005 216.395591 
L 197.264005 215.740445 
L 197.448631 215.740445 
L 197.448631 211.809569 
L 197.81212 211.809569 
L 197.871972 210.499277 
L 198.009597 210.499277 
L 198.050304 209.188984 
L 198.142469 209.188984 
L 198.219512 206.5684 
L 198.455845 206.5684 
L 198.455845 204.602962 
L 198.660487 204.602962 
L 198.745939 202.637523 
L 198.869811 202.637523 
L 198.869811 201.327231 
L 199.017305 201.327231 
L 199.052239 199.361793 
L 200.011289 199.361793 
L 200.011289 198.706647 
L 200.335278 198.706647 
L 200.335278 198.051501 
L 200.634245 198.051501 
L 200.634245 197.396355 
L 200.786568 197.396355 
L 200.887382 193.465478 
L 201.071745 193.465478 
L 201.136898 191.50004 
L 201.232633 191.50004 
L 201.260329 190.189747 
L 201.443854 190.189747 
L 201.495504 188.224309 
L 201.649541 188.224309 
L 201.654051 186.914017 
L 201.797757 186.914017 
L 201.873622 184.948579 
L 201.935852 184.948579 
L 201.935852 184.293433 
L 202.176742 184.293433 
L 202.22336 182.327994 
L 202.382664 182.327994 
L 202.440233 181.017702 
L 204.200458 181.017702 
L 204.210846 179.052264 
L 204.324711 179.052264 
L 204.324711 178.397118 
L 204.468562 178.397118 
L 204.47112 176.431679 
L 204.631523 176.431679 
L 204.692243 174.466241 
L 204.923064 174.466241 
L 205.024954 171.190511 
L 205.037339 171.190511 
L 205.037339 170.535364 
L 205.202455 170.535364 
L 205.202455 169.880218 
L 205.346572 169.880218 
L 205.400007 167.91478 
L 206.027605 167.91478 
L 206.027605 166.604488 
L 207.376551 166.604488 
L 207.473718 164.63905 
L 207.670701 164.63905 
L 207.670701 163.983903 
L 207.793753 163.983903 
L 207.793753 163.328757 
L 207.924337 163.328757 
L 207.924337 162.673611 
L 208.168131 162.673611 
L 208.244524 159.397881 
L 208.353372 159.397881 
L 208.433036 157.432442 
L 208.621549 157.432442 
L 208.621549 156.12215 
L 208.764108 156.12215 
L 208.867783 152.84642 
L 209.006379 152.84642 
L 209.018208 150.880981 
L 209.242413 150.880981 
L 209.30553 147.605251 
L 209.558606 147.605251 
L 209.558606 146.950105 
L 209.754298 146.950105 
L 209.827826 144.984667 
L 210.035417 144.984667 
L 210.072559 143.019228 
L 210.176139 143.019228 
L 210.201938 141.708936 
L 210.306585 141.708936 
L 210.337675 140.398644 
L 213.633477 140.398644 
L 213.731514 134.502329 
L 213.751055 134.502329 
L 213.826012 129.916306 
L 213.942304 129.916306 
L 214.050443 123.364845 
L 214.071106 123.364845 
L 214.115301 122.054553 
L 214.197499 122.054553 
L 214.235532 116.813384 
L 214.309893 116.813384 
L 214.360743 113.537654 
L 214.477859 113.537654 
L 214.477859 111.572215 
L 214.589898 111.572215 
L 214.589898 109.606777 
L 215.00305 109.606777 
L 215.00305 108.951631 
L 215.732845 108.951631 
L 215.829128 103.710462 
L 215.900993 103.710462 
L 216.008239 101.745024 
L 216.114829 101.745024 
L 216.143012 97.814147 
L 216.344211 97.814147 
L 216.382365 93.883271 
L 216.50082 93.883271 
L 216.584029 91.917832 
L 216.660487 91.917832 
L 216.660487 91.262686 
L 216.795379 91.262686 
L 216.813034 89.952394 
L 217.367535 89.952394 
L 217.436993 88.642102 
L 217.542476 88.642102 
L 217.641317 86.021518 
L 217.71927 86.021518 
L 217.815926 80.780349 
L 217.852777 80.780349 
L 217.936885 78.159764 
L 217.971122 78.159764 
L 218.078123 74.884034 
L 218.127287 74.884034 
L 218.186801 72.918596 
L 218.454996 72.918596 
L 218.454996 71.608303 
L 218.716869 71.608303 
L 218.716869 70.953157 
L 219.394025 70.953157 
L 219.443957 68.987719 
L 219.774651 68.987719 
L 219.774651 68.332573 
L 219.932406 68.332573 
L 219.932406 67.677427 
L 220.212612 67.677427 
L 220.212612 67.022281 
L 220.4178 67.022281 
L 220.4178 66.367135 
L 222.606524 66.367135 
L 222.713788 63.74655 
L 222.840033 63.74655 
L 222.907703 62.436258 
L 222.966257 62.436258 
L 223.054602 60.47082 
L 223.166159 60.47082 
L 223.166159 59.815674 
L 223.469096 59.815674 
L 223.469096 59.160527 
L 223.793066 59.160527 
L 223.793066 58.505381 
L 223.935236 58.505381 
L 224.030487 57.195089 
L 224.075009 57.195089 
L 224.15172 54.574505 
L 224.254028 54.574505 
L 224.305778 52.609066 
L 224.913502 52.609066 
L 224.988592 51.298774 
L 225.045287 51.298774 
L 225.045287 50.643628 
L 225.191682 50.643628 
L 225.25083 48.023044 
L 225.312875 48.023044 
L 225.377785 46.712752 
L 225.487735 46.712752 
L 225.487735 46.057605 
L 225.608417 46.057605 
L 225.608417 45.402459 
L 225.743383 45.402459 
L 225.743383 44.747313 
L 226.246639 44.747313 
L 226.246639 44.092167 
L 226.476274 44.092167 
L 226.476274 43.437021 
L 226.647793 43.437021 
L 226.647793 42.781875 
L 227.056396 42.781875 
L 227.056396 42.126729 
L 228.39461 42.126729 
L 228.411471 40.816437 
L 228.690526 40.816437 
L 228.75356 39.506144 
L 228.80243 39.506144 
L 228.80243 38.850998 
L 229.184197 38.850998 
L 229.184197 38.195852 
L 229.444531 38.195852 
L 229.462238 36.88556 
L 229.722092 36.88556 
L 229.722092 36.230414 
L 231.479839 36.230414 
L 231.580654 34.920122 
L 232.913569 34.920122 
L 232.913569 34.264976 
L 233.740313 34.264976 
L 233.740313 33.60983 
L 234.20814 33.60983 
L 234.20814 32.954683 
L 234.398619 32.954683 
L 234.398619 32.299537 
L 234.547421 32.299537 
L 234.547421 31.644391 
L 236.741329 31.644391 
L 236.741329 30.989245 
L 237.896207 30.989245 
L 237.896207 30.334099 
L 338.688 30.334099 
L 338.688 30.334099 
" style="fill:none;stroke:#6495ed;stroke-linecap:square;stroke-width:1.5;"/>
   </g>
   <g id="line2d_46">
    <defs>
     <path d="M -0 6 
L 6 -6 
L -6 -6 
z
" id="m6ac18f2cee" style="stroke:#6495ed;stroke-linejoin:miter;stroke-width:1.5;"/>
    </defs>
    <g>
     <use style="fill-opacity:0;stroke:#6495ed;stroke-linejoin:miter;stroke-width:1.5;" x="100.934985" xlink:href="#m6ac18f2cee" y="291.737393"/>
     <use style="fill-opacity:0;stroke:#6495ed;stroke-linejoin:miter;stroke-width:1.5;" x="179.049518" xlink:href="#m6ac18f2cee" y="229.498513"/>
     <use style="fill-opacity:0;stroke:#6495ed;stroke-linejoin:miter;stroke-width:1.5;" x="218.078123" xlink:href="#m6ac18f2cee" y="75.53918"/>
     <use style="fill-opacity:0;stroke:#6495ed;stroke-linejoin:miter;stroke-width:1.5;" x="237.896207" xlink:href="#m6ac18f2cee" y="30.989245"/>
     <use style="fill-opacity:0;stroke:#6495ed;stroke-linejoin:miter;stroke-width:1.5;" x="237.896207" xlink:href="#m6ac18f2cee" y="30.334099"/>
     <use style="fill-opacity:0;stroke:#6495ed;stroke-linejoin:miter;stroke-width:1.5;" x="338.688" xlink:href="#m6ac18f2cee" y="30.334099"/>
    </g>
   </g>
   <g id="line2d_47">
    <path style="fill:none;stroke:#6495ed;stroke-linecap:square;stroke-width:1.5;"/>
    <g/>
   </g>
   <g id="line2d_48">
    <path clip-path="url(#p76da7414d5)" d="M 206.705557 166.604488 
" style="fill:none;stroke:#6495ed;stroke-linecap:square;stroke-width:1.5;"/>
    <defs>
     <path d="M -12 12 
L 12 -12 
M -12 -12 
L 12 12 
" id="mbd005a773a" style="stroke:#6495ed;"/>
    </defs>
    <g clip-path="url(#p76da7414d5)">
     <use style="fill:#6495ed;stroke:#6495ed;" x="206.705557" xlink:href="#mbd005a773a" y="166.604488"/>
    </g>
   </g>
   <g id="line2d_49">
    <path d="M 338.688 30.334099 
L 369.60768 293.571802 
" style="fill:none;stroke:#000080;stroke-linecap:square;stroke-width:1.5;"/>
    <g>
     <use style="fill-opacity:0;stroke:#000080;stroke-width:1.5;" x="338.688" xlink:href="#mc091df72f2" y="30.334099"/>
     <use style="fill-opacity:0;stroke:#000080;stroke-width:1.5;" x="369.60768" xlink:href="#mc091df72f2" y="293.571802"/>
    </g>
   </g>
   <g id="line2d_50">
    <path d="M 338.688 30.334099 
L 369.60768 207.616634 
" style="fill:none;stroke:#ff00ff;stroke-linecap:square;stroke-width:1.5;"/>
    <g>
     <use style="fill-opacity:0;stroke:#ff00ff;stroke-linejoin:miter;stroke-width:1.5;" x="338.688" xlink:href="#m539a006a0d" y="30.334099"/>
     <use style="fill-opacity:0;stroke:#ff00ff;stroke-linejoin:miter;stroke-width:1.5;" x="369.60768" xlink:href="#m539a006a0d" y="207.616634"/>
    </g>
   </g>
   <g id="line2d_51">
    <path d="M 338.688 30.334099 
L 369.60768 121.661465 
" style="fill:none;stroke:#ff7500;stroke-linecap:square;stroke-width:1.5;"/>
    <g>
     <use style="fill-opacity:0;stroke:#ff7500;stroke-linejoin:bevel;stroke-width:1.5;" x="338.688" xlink:href="#m676252a569" y="30.334099"/>
     <use style="fill-opacity:0;stroke:#ff7500;stroke-linejoin:bevel;stroke-width:1.5;" x="369.60768" xlink:href="#m676252a569" y="121.661465"/>
    </g>
   </g>
   <g id="line2d_52">
    <path d="M 338.688 30.334099 
L 369.60768 35.706297 
" style="fill:none;stroke:#6495ed;stroke-linecap:square;stroke-width:1.5;"/>
    <g>
     <use style="fill-opacity:0;stroke:#6495ed;stroke-linejoin:miter;stroke-width:1.5;" x="338.688" xlink:href="#m6ac18f2cee" y="30.334099"/>
     <use style="fill-opacity:0;stroke:#6495ed;stroke-linejoin:miter;stroke-width:1.5;" x="369.60768" xlink:href="#m6ac18f2cee" y="35.706297"/>
    </g>
   </g>
   <g id="line2d_53">
    <path d="M 338.688 298.944 
L 338.688 30.334099 
" style="fill:none;stroke:#000000;stroke-linecap:square;stroke-width:1.5;"/>
   </g>
   <g id="patch_3">
    <path d="M 57.6 298.944 
L 57.6 27.648 
" style="fill:none;stroke:#000000;stroke-linecap:square;stroke-linejoin:miter;stroke-width:0.8;"/>
   </g>
   <g id="patch_4">
    <path d="M 338.688 298.944 
L 338.688 27.648 
" style="fill:none;stroke:#000000;stroke-linecap:square;stroke-linejoin:miter;stroke-width:0.8;"/>
   </g>
   <g id="patch_5">
    <path d="M 57.6 298.944 
L 338.688 298.944 
" style="fill:none;stroke:#000000;stroke-linecap:square;stroke-linejoin:miter;stroke-width:0.8;"/>
   </g>
   <g id="patch_6">
    <path d="M 57.6 27.648 
L 338.688 27.648 
" style="fill:none;stroke:#000000;stroke-linecap:square;stroke-linejoin:miter;stroke-width:0.8;"/>
   </g>
   <g id="text_13">
    <!-- al01 -->
    <g transform="translate(375.22944 298.262739)scale(0.17 -0.17)">
     <use xlink:href="#DejaVuSans-97"/>
     <use x="61.279297" xlink:href="#DejaVuSans-108"/>
     <use x="89.0625" xlink:href="#DejaVuSans-48"/>
     <use x="152.685547" xlink:href="#DejaVuSans-49"/>
    </g>
   </g>
   <g id="text_14">
    <!-- alN1 -->
    <g transform="translate(375.22944 212.307571)scale(0.17 -0.17)">
     <defs>
      <path d="M 9.8125 72.90625 
L 23.09375 72.90625 
L 55.421875 11.921875 
L 55.421875 72.90625 
L 64.984375 72.90625 
L 64.984375 0 
L 51.703125 0 
L 19.390625 60.984375 
L 19.390625 0 
L 9.8125 0 
z
" id="DejaVuSans-78"/>
     </defs>
     <use xlink:href="#DejaVuSans-97"/>
     <use x="61.279297" xlink:href="#DejaVuSans-108"/>
     <use x="89.0625" xlink:href="#DejaVuSans-78"/>
     <use x="163.867188" xlink:href="#DejaVuSans-49"/>
    </g>
   </g>
   <g id="text_15">
    <!-- alN5 -->
    <g transform="translate(375.22944 126.352403)scale(0.17 -0.17)">
     <defs>
      <path d="M 10.796875 72.90625 
L 49.515625 72.90625 
L 49.515625 64.59375 
L 19.828125 64.59375 
L 19.828125 46.734375 
Q 21.96875 47.46875 24.109375 47.828125 
Q 26.265625 48.1875 28.421875 48.1875 
Q 40.625 48.1875 47.75 41.5 
Q 54.890625 34.8125 54.890625 23.390625 
Q 54.890625 11.625 47.5625 5.09375 
Q 40.234375 -1.421875 26.90625 -1.421875 
Q 22.3125 -1.421875 17.546875 -0.640625 
Q 12.796875 0.140625 7.71875 1.703125 
L 7.71875 11.625 
Q 12.109375 9.234375 16.796875 8.0625 
Q 21.484375 6.890625 26.703125 6.890625 
Q 35.15625 6.890625 40.078125 11.328125 
Q 45.015625 15.765625 45.015625 23.390625 
Q 45.015625 31 40.078125 35.4375 
Q 35.15625 39.890625 26.703125 39.890625 
Q 22.75 39.890625 18.8125 39.015625 
Q 14.890625 38.140625 10.796875 36.28125 
z
" id="DejaVuSans-53"/>
     </defs>
     <use xlink:href="#DejaVuSans-97"/>
     <use x="61.279297" xlink:href="#DejaVuSans-108"/>
     <use x="89.0625" xlink:href="#DejaVuSans-78"/>
     <use x="163.867188" xlink:href="#DejaVuSans-53"/>
    </g>
   </g>
   <g id="text_16">
    <!-- alO5 -->
    <g transform="translate(375.22944 40.397235)scale(0.17 -0.17)">
     <defs>
      <path d="M 39.40625 66.21875 
Q 28.65625 66.21875 22.328125 58.203125 
Q 16.015625 50.203125 16.015625 36.375 
Q 16.015625 22.609375 22.328125 14.59375 
Q 28.65625 6.59375 39.40625 6.59375 
Q 50.140625 6.59375 56.421875 14.59375 
Q 62.703125 22.609375 62.703125 36.375 
Q 62.703125 50.203125 56.421875 58.203125 
Q 50.140625 66.21875 39.40625 66.21875 
z
M 39.40625 74.21875 
Q 54.734375 74.21875 63.90625 63.9375 
Q 73.09375 53.65625 73.09375 36.375 
Q 73.09375 19.140625 63.90625 8.859375 
Q 54.734375 -1.421875 39.40625 -1.421875 
Q 24.03125 -1.421875 14.8125 8.828125 
Q 5.609375 19.09375 5.609375 36.375 
Q 5.609375 53.65625 14.8125 63.9375 
Q 24.03125 74.21875 39.40625 74.21875 
z
" id="DejaVuSans-79"/>
     </defs>
     <use xlink:href="#DejaVuSans-97"/>
     <use x="61.279297" xlink:href="#DejaVuSans-108"/>
     <use x="89.0625" xlink:href="#DejaVuSans-79"/>
     <use x="167.773438" xlink:href="#DejaVuSans-53"/>
    </g>
   </g>
   <g id="text_17">
    <!-- bbob-constrained f43, 3-D -->
    <g transform="translate(60.41088 38.111366)scale(0.102 -0.102)">
     <defs>
      <path d="M 48.6875 27.296875 
Q 48.6875 37.203125 44.609375 42.84375 
Q 40.53125 48.484375 33.40625 48.484375 
Q 26.265625 48.484375 22.1875 42.84375 
Q 18.109375 37.203125 18.109375 27.296875 
Q 18.109375 17.390625 22.1875 11.75 
Q 26.265625 6.109375 33.40625 6.109375 
Q 40.53125 6.109375 44.609375 11.75 
Q 48.6875 17.390625 48.6875 27.296875 
z
M 18.109375 46.390625 
Q 20.953125 51.265625 25.265625 53.625 
Q 29.59375 56 35.59375 56 
Q 45.5625 56 51.78125 48.09375 
Q 58.015625 40.1875 58.015625 27.296875 
Q 58.015625 14.40625 51.78125 6.484375 
Q 45.5625 -1.421875 35.59375 -1.421875 
Q 29.59375 -1.421875 25.265625 0.953125 
Q 20.953125 3.328125 18.109375 8.203125 
L 18.109375 0 
L 9.078125 0 
L 9.078125 75.984375 
L 18.109375 75.984375 
z
" id="DejaVuSans-98"/>
      <path d="M 40.578125 39.3125 
Q 47.65625 37.796875 51.625 33 
Q 55.609375 28.21875 55.609375 21.1875 
Q 55.609375 10.40625 48.1875 4.484375 
Q 40.765625 -1.421875 27.09375 -1.421875 
Q 22.515625 -1.421875 17.65625 -0.515625 
Q 12.796875 0.390625 7.625 2.203125 
L 7.625 11.71875 
Q 11.71875 9.328125 16.59375 8.109375 
Q 21.484375 6.890625 26.8125 6.890625 
Q 36.078125 6.890625 40.9375 10.546875 
Q 45.796875 14.203125 45.796875 21.1875 
Q 45.796875 27.640625 41.28125 31.265625 
Q 36.765625 34.90625 28.71875 34.90625 
L 20.21875 34.90625 
L 20.21875 43.015625 
L 29.109375 43.015625 
Q 36.375 43.015625 40.234375 45.921875 
Q 44.09375 48.828125 44.09375 54.296875 
Q 44.09375 59.90625 40.109375 62.90625 
Q 36.140625 65.921875 28.71875 65.921875 
Q 24.65625 65.921875 20.015625 65.03125 
Q 15.375 64.15625 9.8125 62.3125 
L 9.8125 71.09375 
Q 15.4375 72.65625 20.34375 73.4375 
Q 25.25 74.21875 29.59375 74.21875 
Q 40.828125 74.21875 47.359375 69.109375 
Q 53.90625 64.015625 53.90625 55.328125 
Q 53.90625 49.265625 50.4375 45.09375 
Q 46.96875 40.921875 40.578125 39.3125 
z
" id="DejaVuSans-51"/>
      <path d="M 19.671875 64.796875 
L 19.671875 8.109375 
L 31.59375 8.109375 
Q 46.6875 8.109375 53.6875 14.9375 
Q 60.6875 21.78125 60.6875 36.53125 
Q 60.6875 51.171875 53.6875 57.984375 
Q 46.6875 64.796875 31.59375 64.796875 
z
M 9.8125 72.90625 
L 30.078125 72.90625 
Q 51.265625 72.90625 61.171875 64.09375 
Q 71.09375 55.28125 71.09375 36.53125 
Q 71.09375 17.671875 61.125 8.828125 
Q 51.171875 0 30.078125 0 
L 9.8125 0 
z
" id="DejaVuSans-68"/>
     </defs>
     <use xlink:href="#DejaVuSans-98"/>
     <use x="63.476562" xlink:href="#DejaVuSans-98"/>
     <use x="126.953125" xlink:href="#DejaVuSans-111"/>
     <use x="188.134766" xlink:href="#DejaVuSans-98"/>
     <use x="251.611328" xlink:href="#DejaVuSans-45"/>
     <use x="287.695312" xlink:href="#DejaVuSans-99"/>
     <use x="342.675781" xlink:href="#DejaVuSans-111"/>
     <use x="403.857422" xlink:href="#DejaVuSans-110"/>
     <use x="467.236328" xlink:href="#DejaVuSans-115"/>
     <use x="519.335938" xlink:href="#DejaVuSans-116"/>
     <use x="558.544922" xlink:href="#DejaVuSans-114"/>
     <use x="599.658203" xlink:href="#DejaVuSans-97"/>
     <use x="660.9375" xlink:href="#DejaVuSans-105"/>
     <use x="688.720703" xlink:href="#DejaVuSans-110"/>
     <use x="752.099609" xlink:href="#DejaVuSans-101"/>
     <use x="813.623047" xlink:href="#DejaVuSans-100"/>
     <use x="877.099609" xlink:href="#DejaVuSans-32"/>
     <use x="908.886719" xlink:href="#DejaVuSans-102"/>
     <use x="944.091797" xlink:href="#DejaVuSans-52"/>
     <use x="1007.714844" xlink:href="#DejaVuSans-51"/>
     <use x="1071.337891" xlink:href="#DejaVuSans-44"/>
     <use x="1103.125" xlink:href="#DejaVuSans-32"/>
     <use x="1134.912109" xlink:href="#DejaVuSans-51"/>
     <use x="1198.535156" xlink:href="#DejaVuSans-45"/>
     <use x="1234.619141" xlink:href="#DejaVuSans-68"/>
    </g>
    <!-- 41 targets: 100..1e-06 -->
    <g transform="translate(60.41088 49.533135)scale(0.102 -0.102)">
     <defs>
      <path d="M 11.71875 12.40625 
L 22.015625 12.40625 
L 22.015625 0 
L 11.71875 0 
z
M 11.71875 51.703125 
L 22.015625 51.703125 
L 22.015625 39.3125 
L 11.71875 39.3125 
z
" id="DejaVuSans-58"/>
     </defs>
     <use xlink:href="#DejaVuSans-52"/>
     <use x="63.623047" xlink:href="#DejaVuSans-49"/>
     <use x="127.246094" xlink:href="#DejaVuSans-32"/>
     <use x="159.033203" xlink:href="#DejaVuSans-116"/>
     <use x="198.242188" xlink:href="#DejaVuSans-97"/>
     <use x="259.521484" xlink:href="#DejaVuSans-114"/>
     <use x="298.884766" xlink:href="#DejaVuSans-103"/>
     <use x="362.361328" xlink:href="#DejaVuSans-101"/>
     <use x="423.884766" xlink:href="#DejaVuSans-116"/>
     <use x="463.09375" xlink:href="#DejaVuSans-115"/>
     <use x="515.193359" xlink:href="#DejaVuSans-58"/>
     <use x="548.884766" xlink:href="#DejaVuSans-32"/>
     <use x="580.671875" xlink:href="#DejaVuSans-49"/>
     <use x="644.294922" xlink:href="#DejaVuSans-48"/>
     <use x="707.917969" xlink:href="#DejaVuSans-48"/>
     <use x="771.541016" xlink:href="#DejaVuSans-46"/>
     <use x="803.328125" xlink:href="#DejaVuSans-46"/>
     <use x="835.115234" xlink:href="#DejaVuSans-49"/>
     <use x="898.738281" xlink:href="#DejaVuSans-101"/>
     <use x="960.261719" xlink:href="#DejaVuSans-45"/>
     <use x="996.345703" xlink:href="#DejaVuSans-48"/>
     <use x="1059.96875" xlink:href="#DejaVuSans-54"/>
    </g>
    <!-- 15 instances -->
    <g transform="translate(60.41088 60.954904)scale(0.102 -0.102)">
     <use xlink:href="#DejaVuSans-49"/>
     <use x="63.623047" xlink:href="#DejaVuSans-53"/>
     <use x="127.246094" xlink:href="#DejaVuSans-32"/>
     <use x="159.033203" xlink:href="#DejaVuSans-105"/>
     <use x="186.816406" xlink:href="#DejaVuSans-110"/>
     <use x="250.195312" xlink:href="#DejaVuSans-115"/>
     <use x="302.294922" xlink:href="#DejaVuSans-116"/>
     <use x="341.503906" xlink:href="#DejaVuSans-97"/>
     <use x="402.783203" xlink:href="#DejaVuSans-110"/>
     <use x="466.162109" xlink:href="#DejaVuSans-99"/>
     <use x="521.142578" xlink:href="#DejaVuSans-101"/>
     <use x="582.666016" xlink:href="#DejaVuSans-115"/>
    </g>
   </g>
   <g id="text_18">
    <!-- v5z33 -->
    <g style="fill:#808080;" transform="translate(183.016656 294.151352)scale(0.1 -0.1)">
     <defs>
      <path d="M 5.515625 54.6875 
L 48.1875 54.6875 
L 48.1875 46.484375 
L 14.40625 7.171875 
L 48.1875 7.171875 
L 48.1875 0 
L 4.296875 0 
L 4.296875 8.203125 
L 38.09375 47.515625 
L 5.515625 47.515625 
z
" id="DejaVuSans-122"/>
     </defs>
     <use xlink:href="#DejaVuSans-118"/>
     <use x="59.179688" xlink:href="#DejaVuSans-53"/>
     <use x="122.802734" xlink:href="#DejaVuSans-122"/>
     <use x="175.292969" xlink:href="#DejaVuSans-51"/>
     <use x="238.916016" xlink:href="#DejaVuSans-51"/>
    </g>
   </g>
   <g id="text_19">
    <!-- 43 Separable Rastrigin, 1 constraint -->
    <g transform="translate(17.97525 21.648)scale(0.2 -0.2)">
     <defs>
      <path d="M 53.515625 70.515625 
L 53.515625 60.890625 
Q 47.90625 63.578125 42.921875 64.890625 
Q 37.9375 66.21875 33.296875 66.21875 
Q 25.25 66.21875 20.875 63.09375 
Q 16.5 59.96875 16.5 54.203125 
Q 16.5 49.359375 19.40625 46.890625 
Q 22.3125 44.4375 30.421875 42.921875 
L 36.375 41.703125 
Q 47.40625 39.59375 52.65625 34.296875 
Q 57.90625 29 57.90625 20.125 
Q 57.90625 9.515625 50.796875 4.046875 
Q 43.703125 -1.421875 29.984375 -1.421875 
Q 24.8125 -1.421875 18.96875 -0.25 
Q 13.140625 0.921875 6.890625 3.21875 
L 6.890625 13.375 
Q 12.890625 10.015625 18.65625 8.296875 
Q 24.421875 6.59375 29.984375 6.59375 
Q 38.421875 6.59375 43.015625 9.90625 
Q 47.609375 13.234375 47.609375 19.390625 
Q 47.609375 24.75 44.3125 27.78125 
Q 41.015625 30.8125 33.5 32.328125 
L 27.484375 33.5 
Q 16.453125 35.6875 11.515625 40.375 
Q 6.59375 45.0625 6.59375 53.421875 
Q 6.59375 63.09375 13.40625 68.65625 
Q 20.21875 74.21875 32.171875 74.21875 
Q 37.3125 74.21875 42.625 73.28125 
Q 47.953125 72.359375 53.515625 70.515625 
z
" id="DejaVuSans-83"/>
      <path d="M 44.390625 34.1875 
Q 47.5625 33.109375 50.5625 29.59375 
Q 53.5625 26.078125 56.59375 19.921875 
L 66.609375 0 
L 56 0 
L 46.6875 18.703125 
Q 43.0625 26.03125 39.671875 28.421875 
Q 36.28125 30.8125 30.421875 30.8125 
L 19.671875 30.8125 
L 19.671875 0 
L 9.8125 0 
L 9.8125 72.90625 
L 32.078125 72.90625 
Q 44.578125 72.90625 50.734375 67.671875 
Q 56.890625 62.453125 56.890625 51.90625 
Q 56.890625 45.015625 53.6875 40.46875 
Q 50.484375 35.9375 44.390625 34.1875 
z
M 19.671875 64.796875 
L 19.671875 38.921875 
L 32.078125 38.921875 
Q 39.203125 38.921875 42.84375 42.21875 
Q 46.484375 45.515625 46.484375 51.90625 
Q 46.484375 58.296875 42.84375 61.546875 
Q 39.203125 64.796875 32.078125 64.796875 
z
" id="DejaVuSans-82"/>
     </defs>
     <use xlink:href="#DejaVuSans-52"/>
     <use x="63.623047" xlink:href="#DejaVuSans-51"/>
     <use x="127.246094" xlink:href="#DejaVuSans-32"/>
     <use x="159.033203" xlink:href="#DejaVuSans-83"/>
     <use x="222.509766" xlink:href="#DejaVuSans-101"/>
     <use x="284.033203" xlink:href="#DejaVuSans-112"/>
     <use x="347.509766" xlink:href="#DejaVuSans-97"/>
     <use x="408.789062" xlink:href="#DejaVuSans-114"/>
     <use x="449.902344" xlink:href="#DejaVuSans-97"/>
     <use x="511.181641" xlink:href="#DejaVuSans-98"/>
     <use x="574.658203" xlink:href="#DejaVuSans-108"/>
     <use x="602.441406" xlink:href="#DejaVuSans-101"/>
     <use x="663.964844" xlink:href="#DejaVuSans-32"/>
     <use x="695.751953" xlink:href="#DejaVuSans-82"/>
     <use x="762.984375" xlink:href="#DejaVuSans-97"/>
     <use x="824.263672" xlink:href="#DejaVuSans-115"/>
     <use x="876.363281" xlink:href="#DejaVuSans-116"/>
     <use x="915.572266" xlink:href="#DejaVuSans-114"/>
     <use x="956.685547" xlink:href="#DejaVuSans-105"/>
     <use x="984.46875" xlink:href="#DejaVuSans-103"/>
     <use x="1047.945312" xlink:href="#DejaVuSans-105"/>
     <use x="1075.728516" xlink:href="#DejaVuSans-110"/>
     <use x="1139.107422" xlink:href="#DejaVuSans-44"/>
     <use x="1170.894531" xlink:href="#DejaVuSans-32"/>
     <use x="1202.681641" xlink:href="#DejaVuSans-49"/>
     <use x="1266.304688" xlink:href="#DejaVuSans-32"/>
     <use x="1298.091797" xlink:href="#DejaVuSans-99"/>
     <use x="1353.072266" xlink:href="#DejaVuSans-111"/>
     <use x="1414.253906" xlink:href="#DejaVuSans-110"/>
     <use x="1477.632812" xlink:href="#DejaVuSans-115"/>
     <use x="1529.732422" xlink:href="#DejaVuSans-116"/>
     <use x="1568.941406" xlink:href="#DejaVuSans-114"/>
     <use x="1610.054688" xlink:href="#DejaVuSans-97"/>
     <use x="1671.333984" xlink:href="#DejaVuSans-105"/>
     <use x="1699.117188" xlink:href="#DejaVuSans-110"/>
     <use x="1762.496094" xlink:href="#DejaVuSans-116"/>
    </g>
   </g>
  </g>
 </g>
 <defs>
  <clipPath id="p76da7414d5">
   <rect height="271.296" width="281.088" x="57.6" y="27.648"/>
  </clipPath>
 </defs>
</svg>
