<?xml version="1.0" encoding="utf-8" standalone="no"?>
<!DOCTYPE svg PUBLIC "-//W3C//DTD SVG 1.1//EN"
  "http://www.w3.org/Graphics/SVG/1.1/DTD/svg11.dtd">
<!-- Created with matplotlib (https://matplotlib.org/) -->
<svg height="345.6pt" version="1.1" viewBox="0 0 460.8 345.6" width="460.8pt" xmlns="http://www.w3.org/2000/svg" xmlns:xlink="http://www.w3.org/1999/xlink">
 <metadata>
  <rdf:RDF xmlns:cc="http://creativecommons.org/ns#" xmlns:dc="http://purl.org/dc/elements/1.1/" xmlns:rdf="http://www.w3.org/1999/02/22-rdf-syntax-ns#">
   <cc:Work>
    <dc:type rdf:resource="http://purl.org/dc/dcmitype/StillImage"/>
    <dc:date>2021-03-16T10:43:51.590291</dc:date>
    <dc:format>image/svg+xml</dc:format>
    <dc:creator>
     <cc:Agent>
      <dc:title>Matplotlib v3.3.3, https://matplotlib.org/</dc:title>
     </cc:Agent>
    </dc:creator>
   </cc:Work>
  </rdf:RDF>
 </metadata>
 <defs>
  <style type="text/css">*{stroke-linecap:butt;stroke-linejoin:round;}</style>
 </defs>
 <g id="figure_1">
  <g id="patch_1">
   <path d="M 0 345.6 
L 460.8 345.6 
L 460.8 0 
L 0 0 
z
" style="fill:#ffffff;"/>
  </g>
  <g id="axes_1">
   <g id="patch_2">
    <path d="M 57.6 298.944 
L 338.688 298.944 
L 338.688 27.648 
L 57.6 27.648 
z
" style="fill:#ffffff;"/>
   </g>
   <g id="matplotlib.axis_1">
    <g id="xtick_1">
     <g id="line2d_1">
      <path clip-path="url(#p9653bca6c4)" d="M 57.6 298.944 
L 57.6 27.648 
" style="fill:none;stroke:#b0b0b0;stroke-linecap:square;stroke-width:0.8;"/>
     </g>
     <g id="line2d_2">
      <defs>
       <path d="M 0 0 
L 0 3.5 
" id="m26b1f66f63" style="stroke:#000000;stroke-width:0.8;"/>
      </defs>
      <g>
       <use style="stroke:#000000;stroke-width:0.8;" x="57.6" xlink:href="#m26b1f66f63" y="298.944"/>
      </g>
     </g>
     <g id="text_1">
      <!-- 0 -->
      <g transform="translate(51.2375 321.140875)scale(0.2 -0.2)">
       <defs>
        <path d="M 31.78125 66.40625 
Q 24.171875 66.40625 20.328125 58.90625 
Q 16.5 51.421875 16.5 36.375 
Q 16.5 21.390625 20.328125 13.890625 
Q 24.171875 6.390625 31.78125 6.390625 
Q 39.453125 6.390625 43.28125 13.890625 
Q 47.125 21.390625 47.125 36.375 
Q 47.125 51.421875 43.28125 58.90625 
Q 39.453125 66.40625 31.78125 66.40625 
z
M 31.78125 74.21875 
Q 44.046875 74.21875 50.515625 64.515625 
Q 56.984375 54.828125 56.984375 36.375 
Q 56.984375 17.96875 50.515625 8.265625 
Q 44.046875 -1.421875 31.78125 -1.421875 
Q 19.53125 -1.421875 13.0625 8.265625 
Q 6.59375 17.96875 6.59375 36.375 
Q 6.59375 54.828125 13.0625 64.515625 
Q 19.53125 74.21875 31.78125 74.21875 
z
" id="DejaVuSans-48"/>
       </defs>
       <use xlink:href="#DejaVuSans-48"/>
      </g>
     </g>
    </g>
    <g id="xtick_2">
     <g id="line2d_3">
      <path clip-path="url(#p9653bca6c4)" d="M 137.910857 298.944 
L 137.910857 27.648 
" style="fill:none;stroke:#b0b0b0;stroke-linecap:square;stroke-width:0.8;"/>
     </g>
     <g id="line2d_4">
      <g>
       <use style="stroke:#000000;stroke-width:0.8;" x="137.910857" xlink:href="#m26b1f66f63" y="298.944"/>
      </g>
     </g>
     <g id="text_2">
      <!-- 2 -->
      <g transform="translate(131.548357 321.140875)scale(0.2 -0.2)">
       <defs>
        <path d="M 19.1875 8.296875 
L 53.609375 8.296875 
L 53.609375 0 
L 7.328125 0 
L 7.328125 8.296875 
Q 12.9375 14.109375 22.625 23.890625 
Q 32.328125 33.6875 34.8125 36.53125 
Q 39.546875 41.84375 41.421875 45.53125 
Q 43.3125 49.21875 43.3125 52.78125 
Q 43.3125 58.59375 39.234375 62.25 
Q 35.15625 65.921875 28.609375 65.921875 
Q 23.96875 65.921875 18.8125 64.3125 
Q 13.671875 62.703125 7.8125 59.421875 
L 7.8125 69.390625 
Q 13.765625 71.78125 18.9375 73 
Q 24.125 74.21875 28.421875 74.21875 
Q 39.75 74.21875 46.484375 68.546875 
Q 53.21875 62.890625 53.21875 53.421875 
Q 53.21875 48.921875 51.53125 44.890625 
Q 49.859375 40.875 45.40625 35.40625 
Q 44.1875 33.984375 37.640625 27.21875 
Q 31.109375 20.453125 19.1875 8.296875 
z
" id="DejaVuSans-50"/>
       </defs>
       <use xlink:href="#DejaVuSans-50"/>
      </g>
     </g>
    </g>
    <g id="xtick_3">
     <g id="line2d_5">
      <path clip-path="url(#p9653bca6c4)" d="M 218.221714 298.944 
L 218.221714 27.648 
" style="fill:none;stroke:#b0b0b0;stroke-linecap:square;stroke-width:0.8;"/>
     </g>
     <g id="line2d_6">
      <g>
       <use style="stroke:#000000;stroke-width:0.8;" x="218.221714" xlink:href="#m26b1f66f63" y="298.944"/>
      </g>
     </g>
     <g id="text_3">
      <!-- 4 -->
      <g transform="translate(211.859214 321.140875)scale(0.2 -0.2)">
       <defs>
        <path d="M 37.796875 64.3125 
L 12.890625 25.390625 
L 37.796875 25.390625 
z
M 35.203125 72.90625 
L 47.609375 72.90625 
L 47.609375 25.390625 
L 58.015625 25.390625 
L 58.015625 17.1875 
L 47.609375 17.1875 
L 47.609375 0 
L 37.796875 0 
L 37.796875 17.1875 
L 4.890625 17.1875 
L 4.890625 26.703125 
z
" id="DejaVuSans-52"/>
       </defs>
       <use xlink:href="#DejaVuSans-52"/>
      </g>
     </g>
    </g>
    <g id="xtick_4">
     <g id="line2d_7">
      <path clip-path="url(#p9653bca6c4)" d="M 298.532571 298.944 
L 298.532571 27.648 
" style="fill:none;stroke:#b0b0b0;stroke-linecap:square;stroke-width:0.8;"/>
     </g>
     <g id="line2d_8">
      <g>
       <use style="stroke:#000000;stroke-width:0.8;" x="298.532571" xlink:href="#m26b1f66f63" y="298.944"/>
      </g>
     </g>
     <g id="text_4">
      <!-- 6 -->
      <g transform="translate(292.170071 321.140875)scale(0.2 -0.2)">
       <defs>
        <path d="M 33.015625 40.375 
Q 26.375 40.375 22.484375 35.828125 
Q 18.609375 31.296875 18.609375 23.390625 
Q 18.609375 15.53125 22.484375 10.953125 
Q 26.375 6.390625 33.015625 6.390625 
Q 39.65625 6.390625 43.53125 10.953125 
Q 47.40625 15.53125 47.40625 23.390625 
Q 47.40625 31.296875 43.53125 35.828125 
Q 39.65625 40.375 33.015625 40.375 
z
M 52.59375 71.296875 
L 52.59375 62.3125 
Q 48.875 64.0625 45.09375 64.984375 
Q 41.3125 65.921875 37.59375 65.921875 
Q 27.828125 65.921875 22.671875 59.328125 
Q 17.53125 52.734375 16.796875 39.40625 
Q 19.671875 43.65625 24.015625 45.921875 
Q 28.375 48.1875 33.59375 48.1875 
Q 44.578125 48.1875 50.953125 41.515625 
Q 57.328125 34.859375 57.328125 23.390625 
Q 57.328125 12.15625 50.6875 5.359375 
Q 44.046875 -1.421875 33.015625 -1.421875 
Q 20.359375 -1.421875 13.671875 8.265625 
Q 6.984375 17.96875 6.984375 36.375 
Q 6.984375 53.65625 15.1875 63.9375 
Q 23.390625 74.21875 37.203125 74.21875 
Q 40.921875 74.21875 44.703125 73.484375 
Q 48.484375 72.75 52.59375 71.296875 
z
" id="DejaVuSans-54"/>
       </defs>
       <use xlink:href="#DejaVuSans-54"/>
      </g>
     </g>
    </g>
    <g id="xtick_5">
     <g id="line2d_9">
      <path clip-path="url(#p9653bca6c4)" d="M 97.755429 298.944 
L 97.755429 27.648 
" style="fill:none;stroke:#b0b0b0;stroke-linecap:square;stroke-width:0.8;"/>
     </g>
     <g id="line2d_10">
      <defs>
       <path d="M 0 0 
L 0 2 
" id="m075f6cbd6b" style="stroke:#000000;stroke-width:0.6;"/>
      </defs>
      <g>
       <use style="stroke:#000000;stroke-width:0.6;" x="97.755429" xlink:href="#m075f6cbd6b" y="298.944"/>
      </g>
     </g>
    </g>
    <g id="xtick_6">
     <g id="line2d_11">
      <path clip-path="url(#p9653bca6c4)" d="M 178.066286 298.944 
L 178.066286 27.648 
" style="fill:none;stroke:#b0b0b0;stroke-linecap:square;stroke-width:0.8;"/>
     </g>
     <g id="line2d_12">
      <g>
       <use style="stroke:#000000;stroke-width:0.6;" x="178.066286" xlink:href="#m075f6cbd6b" y="298.944"/>
      </g>
     </g>
    </g>
    <g id="xtick_7">
     <g id="line2d_13">
      <path clip-path="url(#p9653bca6c4)" d="M 258.377143 298.944 
L 258.377143 27.648 
" style="fill:none;stroke:#b0b0b0;stroke-linecap:square;stroke-width:0.8;"/>
     </g>
     <g id="line2d_14">
      <g>
       <use style="stroke:#000000;stroke-width:0.6;" x="258.377143" xlink:href="#m075f6cbd6b" y="298.944"/>
      </g>
     </g>
    </g>
    <g id="xtick_8">
     <g id="line2d_15">
      <path clip-path="url(#p9653bca6c4)" d="M 338.688 298.944 
L 338.688 27.648 
" style="fill:none;stroke:#b0b0b0;stroke-linecap:square;stroke-width:0.8;"/>
     </g>
     <g id="line2d_16">
      <g>
       <use style="stroke:#000000;stroke-width:0.6;" x="338.688" xlink:href="#m075f6cbd6b" y="298.944"/>
      </g>
     </g>
    </g>
    <g id="text_5">
     <!-- log10(# (f+g)-evals / dimension) -->
     <g transform="translate(58.145016 342.217594)scale(0.17 -0.17)">
      <defs>
       <path d="M 9.421875 75.984375 
L 18.40625 75.984375 
L 18.40625 0 
L 9.421875 0 
z
" id="DejaVuSans-108"/>
       <path d="M 30.609375 48.390625 
Q 23.390625 48.390625 19.1875 42.75 
Q 14.984375 37.109375 14.984375 27.296875 
Q 14.984375 17.484375 19.15625 11.84375 
Q 23.34375 6.203125 30.609375 6.203125 
Q 37.796875 6.203125 41.984375 11.859375 
Q 46.1875 17.53125 46.1875 27.296875 
Q 46.1875 37.015625 41.984375 42.703125 
Q 37.796875 48.390625 30.609375 48.390625 
z
M 30.609375 56 
Q 42.328125 56 49.015625 48.375 
Q 55.71875 40.765625 55.71875 27.296875 
Q 55.71875 13.875 49.015625 6.21875 
Q 42.328125 -1.421875 30.609375 -1.421875 
Q 18.84375 -1.421875 12.171875 6.21875 
Q 5.515625 13.875 5.515625 27.296875 
Q 5.515625 40.765625 12.171875 48.375 
Q 18.84375 56 30.609375 56 
z
" id="DejaVuSans-111"/>
       <path d="M 45.40625 27.984375 
Q 45.40625 37.75 41.375 43.109375 
Q 37.359375 48.484375 30.078125 48.484375 
Q 22.859375 48.484375 18.828125 43.109375 
Q 14.796875 37.75 14.796875 27.984375 
Q 14.796875 18.265625 18.828125 12.890625 
Q 22.859375 7.515625 30.078125 7.515625 
Q 37.359375 7.515625 41.375 12.890625 
Q 45.40625 18.265625 45.40625 27.984375 
z
M 54.390625 6.78125 
Q 54.390625 -7.171875 48.1875 -13.984375 
Q 42 -20.796875 29.203125 -20.796875 
Q 24.46875 -20.796875 20.265625 -20.09375 
Q 16.0625 -19.390625 12.109375 -17.921875 
L 12.109375 -9.1875 
Q 16.0625 -11.328125 19.921875 -12.34375 
Q 23.78125 -13.375 27.78125 -13.375 
Q 36.625 -13.375 41.015625 -8.765625 
Q 45.40625 -4.15625 45.40625 5.171875 
L 45.40625 9.625 
Q 42.625 4.78125 38.28125 2.390625 
Q 33.9375 0 27.875 0 
Q 17.828125 0 11.671875 7.65625 
Q 5.515625 15.328125 5.515625 27.984375 
Q 5.515625 40.671875 11.671875 48.328125 
Q 17.828125 56 27.875 56 
Q 33.9375 56 38.28125 53.609375 
Q 42.625 51.21875 45.40625 46.390625 
L 45.40625 54.6875 
L 54.390625 54.6875 
z
" id="DejaVuSans-103"/>
       <path d="M 12.40625 8.296875 
L 28.515625 8.296875 
L 28.515625 63.921875 
L 10.984375 60.40625 
L 10.984375 69.390625 
L 28.421875 72.90625 
L 38.28125 72.90625 
L 38.28125 8.296875 
L 54.390625 8.296875 
L 54.390625 0 
L 12.40625 0 
z
" id="DejaVuSans-49"/>
       <path d="M 31 75.875 
Q 24.46875 64.65625 21.28125 53.65625 
Q 18.109375 42.671875 18.109375 31.390625 
Q 18.109375 20.125 21.3125 9.0625 
Q 24.515625 -2 31 -13.1875 
L 23.1875 -13.1875 
Q 15.875 -1.703125 12.234375 9.375 
Q 8.59375 20.453125 8.59375 31.390625 
Q 8.59375 42.28125 12.203125 53.3125 
Q 15.828125 64.359375 23.1875 75.875 
z
" id="DejaVuSans-40"/>
       <path d="M 51.125 44 
L 36.921875 44 
L 32.8125 27.6875 
L 47.125 27.6875 
z
M 43.796875 71.78125 
L 38.71875 51.515625 
L 52.984375 51.515625 
L 58.109375 71.78125 
L 65.921875 71.78125 
L 60.890625 51.515625 
L 76.125 51.515625 
L 76.125 44 
L 58.984375 44 
L 54.984375 27.6875 
L 70.515625 27.6875 
L 70.515625 20.21875 
L 53.078125 20.21875 
L 48 0 
L 40.1875 0 
L 45.21875 20.21875 
L 30.90625 20.21875 
L 25.875 0 
L 18.015625 0 
L 23.09375 20.21875 
L 7.71875 20.21875 
L 7.71875 27.6875 
L 24.90625 27.6875 
L 29 44 
L 13.28125 44 
L 13.28125 51.515625 
L 30.90625 51.515625 
L 35.890625 71.78125 
z
" id="DejaVuSans-35"/>
       <path id="DejaVuSans-32"/>
       <path d="M 37.109375 75.984375 
L 37.109375 68.5 
L 28.515625 68.5 
Q 23.6875 68.5 21.796875 66.546875 
Q 19.921875 64.59375 19.921875 59.515625 
L 19.921875 54.6875 
L 34.71875 54.6875 
L 34.71875 47.703125 
L 19.921875 47.703125 
L 19.921875 0 
L 10.890625 0 
L 10.890625 47.703125 
L 2.296875 47.703125 
L 2.296875 54.6875 
L 10.890625 54.6875 
L 10.890625 58.5 
Q 10.890625 67.625 15.140625 71.796875 
Q 19.390625 75.984375 28.609375 75.984375 
z
" id="DejaVuSans-102"/>
       <path d="M 46 62.703125 
L 46 35.5 
L 73.1875 35.5 
L 73.1875 27.203125 
L 46 27.203125 
L 46 0 
L 37.796875 0 
L 37.796875 27.203125 
L 10.59375 27.203125 
L 10.59375 35.5 
L 37.796875 35.5 
L 37.796875 62.703125 
z
" id="DejaVuSans-43"/>
       <path d="M 8.015625 75.875 
L 15.828125 75.875 
Q 23.140625 64.359375 26.78125 53.3125 
Q 30.421875 42.28125 30.421875 31.390625 
Q 30.421875 20.453125 26.78125 9.375 
Q 23.140625 -1.703125 15.828125 -13.1875 
L 8.015625 -13.1875 
Q 14.5 -2 17.703125 9.0625 
Q 20.90625 20.125 20.90625 31.390625 
Q 20.90625 42.671875 17.703125 53.65625 
Q 14.5 64.65625 8.015625 75.875 
z
" id="DejaVuSans-41"/>
       <path d="M 4.890625 31.390625 
L 31.203125 31.390625 
L 31.203125 23.390625 
L 4.890625 23.390625 
z
" id="DejaVuSans-45"/>
       <path d="M 56.203125 29.59375 
L 56.203125 25.203125 
L 14.890625 25.203125 
Q 15.484375 15.921875 20.484375 11.0625 
Q 25.484375 6.203125 34.421875 6.203125 
Q 39.59375 6.203125 44.453125 7.46875 
Q 49.3125 8.734375 54.109375 11.28125 
L 54.109375 2.78125 
Q 49.265625 0.734375 44.1875 -0.34375 
Q 39.109375 -1.421875 33.890625 -1.421875 
Q 20.796875 -1.421875 13.15625 6.1875 
Q 5.515625 13.8125 5.515625 26.8125 
Q 5.515625 40.234375 12.765625 48.109375 
Q 20.015625 56 32.328125 56 
Q 43.359375 56 49.78125 48.890625 
Q 56.203125 41.796875 56.203125 29.59375 
z
M 47.21875 32.234375 
Q 47.125 39.59375 43.09375 43.984375 
Q 39.0625 48.390625 32.421875 48.390625 
Q 24.90625 48.390625 20.390625 44.140625 
Q 15.875 39.890625 15.1875 32.171875 
z
" id="DejaVuSans-101"/>
       <path d="M 2.984375 54.6875 
L 12.5 54.6875 
L 29.59375 8.796875 
L 46.6875 54.6875 
L 56.203125 54.6875 
L 35.6875 0 
L 23.484375 0 
z
" id="DejaVuSans-118"/>
       <path d="M 34.28125 27.484375 
Q 23.390625 27.484375 19.1875 25 
Q 14.984375 22.515625 14.984375 16.5 
Q 14.984375 11.71875 18.140625 8.90625 
Q 21.296875 6.109375 26.703125 6.109375 
Q 34.1875 6.109375 38.703125 11.40625 
Q 43.21875 16.703125 43.21875 25.484375 
L 43.21875 27.484375 
z
M 52.203125 31.203125 
L 52.203125 0 
L 43.21875 0 
L 43.21875 8.296875 
Q 40.140625 3.328125 35.546875 0.953125 
Q 30.953125 -1.421875 24.3125 -1.421875 
Q 15.921875 -1.421875 10.953125 3.296875 
Q 6 8.015625 6 15.921875 
Q 6 25.140625 12.171875 29.828125 
Q 18.359375 34.515625 30.609375 34.515625 
L 43.21875 34.515625 
L 43.21875 35.40625 
Q 43.21875 41.609375 39.140625 45 
Q 35.0625 48.390625 27.6875 48.390625 
Q 23 48.390625 18.546875 47.265625 
Q 14.109375 46.140625 10.015625 43.890625 
L 10.015625 52.203125 
Q 14.9375 54.109375 19.578125 55.046875 
Q 24.21875 56 28.609375 56 
Q 40.484375 56 46.34375 49.84375 
Q 52.203125 43.703125 52.203125 31.203125 
z
" id="DejaVuSans-97"/>
       <path d="M 44.28125 53.078125 
L 44.28125 44.578125 
Q 40.484375 46.53125 36.375 47.5 
Q 32.28125 48.484375 27.875 48.484375 
Q 21.1875 48.484375 17.84375 46.4375 
Q 14.5 44.390625 14.5 40.28125 
Q 14.5 37.15625 16.890625 35.375 
Q 19.28125 33.59375 26.515625 31.984375 
L 29.59375 31.296875 
Q 39.15625 29.25 43.1875 25.515625 
Q 47.21875 21.78125 47.21875 15.09375 
Q 47.21875 7.46875 41.1875 3.015625 
Q 35.15625 -1.421875 24.609375 -1.421875 
Q 20.21875 -1.421875 15.453125 -0.5625 
Q 10.6875 0.296875 5.421875 2 
L 5.421875 11.28125 
Q 10.40625 8.6875 15.234375 7.390625 
Q 20.0625 6.109375 24.8125 6.109375 
Q 31.15625 6.109375 34.5625 8.28125 
Q 37.984375 10.453125 37.984375 14.40625 
Q 37.984375 18.0625 35.515625 20.015625 
Q 33.0625 21.96875 24.703125 23.78125 
L 21.578125 24.515625 
Q 13.234375 26.265625 9.515625 29.90625 
Q 5.8125 33.546875 5.8125 39.890625 
Q 5.8125 47.609375 11.28125 51.796875 
Q 16.75 56 26.8125 56 
Q 31.78125 56 36.171875 55.265625 
Q 40.578125 54.546875 44.28125 53.078125 
z
" id="DejaVuSans-115"/>
       <path d="M 25.390625 72.90625 
L 33.6875 72.90625 
L 8.296875 -9.28125 
L 0 -9.28125 
z
" id="DejaVuSans-47"/>
       <path d="M 45.40625 46.390625 
L 45.40625 75.984375 
L 54.390625 75.984375 
L 54.390625 0 
L 45.40625 0 
L 45.40625 8.203125 
Q 42.578125 3.328125 38.25 0.953125 
Q 33.9375 -1.421875 27.875 -1.421875 
Q 17.96875 -1.421875 11.734375 6.484375 
Q 5.515625 14.40625 5.515625 27.296875 
Q 5.515625 40.1875 11.734375 48.09375 
Q 17.96875 56 27.875 56 
Q 33.9375 56 38.25 53.625 
Q 42.578125 51.265625 45.40625 46.390625 
z
M 14.796875 27.296875 
Q 14.796875 17.390625 18.875 11.75 
Q 22.953125 6.109375 30.078125 6.109375 
Q 37.203125 6.109375 41.296875 11.75 
Q 45.40625 17.390625 45.40625 27.296875 
Q 45.40625 37.203125 41.296875 42.84375 
Q 37.203125 48.484375 30.078125 48.484375 
Q 22.953125 48.484375 18.875 42.84375 
Q 14.796875 37.203125 14.796875 27.296875 
z
" id="DejaVuSans-100"/>
       <path d="M 9.421875 54.6875 
L 18.40625 54.6875 
L 18.40625 0 
L 9.421875 0 
z
M 9.421875 75.984375 
L 18.40625 75.984375 
L 18.40625 64.59375 
L 9.421875 64.59375 
z
" id="DejaVuSans-105"/>
       <path d="M 52 44.1875 
Q 55.375 50.25 60.0625 53.125 
Q 64.75 56 71.09375 56 
Q 79.640625 56 84.28125 50.015625 
Q 88.921875 44.046875 88.921875 33.015625 
L 88.921875 0 
L 79.890625 0 
L 79.890625 32.71875 
Q 79.890625 40.578125 77.09375 44.375 
Q 74.3125 48.1875 68.609375 48.1875 
Q 61.625 48.1875 57.5625 43.546875 
Q 53.515625 38.921875 53.515625 30.90625 
L 53.515625 0 
L 44.484375 0 
L 44.484375 32.71875 
Q 44.484375 40.625 41.703125 44.40625 
Q 38.921875 48.1875 33.109375 48.1875 
Q 26.21875 48.1875 22.15625 43.53125 
Q 18.109375 38.875 18.109375 30.90625 
L 18.109375 0 
L 9.078125 0 
L 9.078125 54.6875 
L 18.109375 54.6875 
L 18.109375 46.1875 
Q 21.1875 51.21875 25.484375 53.609375 
Q 29.78125 56 35.6875 56 
Q 41.65625 56 45.828125 52.96875 
Q 50 49.953125 52 44.1875 
z
" id="DejaVuSans-109"/>
       <path d="M 54.890625 33.015625 
L 54.890625 0 
L 45.90625 0 
L 45.90625 32.71875 
Q 45.90625 40.484375 42.875 44.328125 
Q 39.84375 48.1875 33.796875 48.1875 
Q 26.515625 48.1875 22.3125 43.546875 
Q 18.109375 38.921875 18.109375 30.90625 
L 18.109375 0 
L 9.078125 0 
L 9.078125 54.6875 
L 18.109375 54.6875 
L 18.109375 46.1875 
Q 21.34375 51.125 25.703125 53.5625 
Q 30.078125 56 35.796875 56 
Q 45.21875 56 50.046875 50.171875 
Q 54.890625 44.34375 54.890625 33.015625 
z
" id="DejaVuSans-110"/>
      </defs>
      <use xlink:href="#DejaVuSans-108"/>
      <use x="27.783203" xlink:href="#DejaVuSans-111"/>
      <use x="88.964844" xlink:href="#DejaVuSans-103"/>
      <use x="152.441406" xlink:href="#DejaVuSans-49"/>
      <use x="216.064453" xlink:href="#DejaVuSans-48"/>
      <use x="279.6875" xlink:href="#DejaVuSans-40"/>
      <use x="318.701172" xlink:href="#DejaVuSans-35"/>
      <use x="402.490234" xlink:href="#DejaVuSans-32"/>
      <use x="434.277344" xlink:href="#DejaVuSans-40"/>
      <use x="473.291016" xlink:href="#DejaVuSans-102"/>
      <use x="508.496094" xlink:href="#DejaVuSans-43"/>
      <use x="592.285156" xlink:href="#DejaVuSans-103"/>
      <use x="655.761719" xlink:href="#DejaVuSans-41"/>
      <use x="694.775391" xlink:href="#DejaVuSans-45"/>
      <use x="730.859375" xlink:href="#DejaVuSans-101"/>
      <use x="792.382812" xlink:href="#DejaVuSans-118"/>
      <use x="851.5625" xlink:href="#DejaVuSans-97"/>
      <use x="912.841797" xlink:href="#DejaVuSans-108"/>
      <use x="940.625" xlink:href="#DejaVuSans-115"/>
      <use x="992.724609" xlink:href="#DejaVuSans-32"/>
      <use x="1024.511719" xlink:href="#DejaVuSans-47"/>
      <use x="1058.203125" xlink:href="#DejaVuSans-32"/>
      <use x="1089.990234" xlink:href="#DejaVuSans-100"/>
      <use x="1153.466797" xlink:href="#DejaVuSans-105"/>
      <use x="1181.25" xlink:href="#DejaVuSans-109"/>
      <use x="1278.662109" xlink:href="#DejaVuSans-101"/>
      <use x="1340.185547" xlink:href="#DejaVuSans-110"/>
      <use x="1403.564453" xlink:href="#DejaVuSans-115"/>
      <use x="1455.664062" xlink:href="#DejaVuSans-105"/>
      <use x="1483.447266" xlink:href="#DejaVuSans-111"/>
      <use x="1544.628906" xlink:href="#DejaVuSans-110"/>
      <use x="1608.007812" xlink:href="#DejaVuSans-41"/>
     </g>
    </g>
   </g>
   <g id="matplotlib.axis_2">
    <g id="ytick_1">
     <g id="line2d_17">
      <path clip-path="url(#p9653bca6c4)" d="M 57.6 298.944 
L 338.688 298.944 
" style="fill:none;stroke:#b0b0b0;stroke-linecap:square;stroke-width:0.8;"/>
     </g>
     <g id="line2d_18">
      <defs>
       <path d="M 0 0 
L -3.5 0 
" id="mc3bde6e4b9" style="stroke:#000000;stroke-width:0.8;"/>
      </defs>
      <g>
       <use style="stroke:#000000;stroke-width:0.8;" x="57.6" xlink:href="#mc3bde6e4b9" y="298.944"/>
      </g>
     </g>
     <g id="text_6">
      <!-- 0.0 -->
      <g transform="translate(25.155 305.02275)scale(0.16 -0.16)">
       <defs>
        <path d="M 10.6875 12.40625 
L 21 12.40625 
L 21 0 
L 10.6875 0 
z
" id="DejaVuSans-46"/>
       </defs>
       <use xlink:href="#DejaVuSans-48"/>
       <use x="63.623047" xlink:href="#DejaVuSans-46"/>
       <use x="95.410156" xlink:href="#DejaVuSans-48"/>
      </g>
     </g>
    </g>
    <g id="ytick_2">
     <g id="line2d_19">
      <path clip-path="url(#p9653bca6c4)" d="M 57.6 245.22202 
L 338.688 245.22202 
" style="fill:none;stroke:#b0b0b0;stroke-linecap:square;stroke-width:0.8;"/>
     </g>
     <g id="line2d_20">
      <g>
       <use style="stroke:#000000;stroke-width:0.8;" x="57.6" xlink:href="#mc3bde6e4b9" y="245.22202"/>
      </g>
     </g>
     <g id="text_7">
      <!-- 0.2 -->
      <g transform="translate(25.155 251.30077)scale(0.16 -0.16)">
       <use xlink:href="#DejaVuSans-48"/>
       <use x="63.623047" xlink:href="#DejaVuSans-46"/>
       <use x="95.410156" xlink:href="#DejaVuSans-50"/>
      </g>
     </g>
    </g>
    <g id="ytick_3">
     <g id="line2d_21">
      <path clip-path="url(#p9653bca6c4)" d="M 57.6 191.50004 
L 338.688 191.50004 
" style="fill:none;stroke:#b0b0b0;stroke-linecap:square;stroke-width:0.8;"/>
     </g>
     <g id="line2d_22">
      <g>
       <use style="stroke:#000000;stroke-width:0.8;" x="57.6" xlink:href="#mc3bde6e4b9" y="191.50004"/>
      </g>
     </g>
     <g id="text_8">
      <!-- 0.4 -->
      <g transform="translate(25.155 197.57879)scale(0.16 -0.16)">
       <use xlink:href="#DejaVuSans-48"/>
       <use x="63.623047" xlink:href="#DejaVuSans-46"/>
       <use x="95.410156" xlink:href="#DejaVuSans-52"/>
      </g>
     </g>
    </g>
    <g id="ytick_4">
     <g id="line2d_23">
      <path clip-path="url(#p9653bca6c4)" d="M 57.6 137.778059 
L 338.688 137.778059 
" style="fill:none;stroke:#b0b0b0;stroke-linecap:square;stroke-width:0.8;"/>
     </g>
     <g id="line2d_24">
      <g>
       <use style="stroke:#000000;stroke-width:0.8;" x="57.6" xlink:href="#mc3bde6e4b9" y="137.778059"/>
      </g>
     </g>
     <g id="text_9">
      <!-- 0.6 -->
      <g transform="translate(25.155 143.856809)scale(0.16 -0.16)">
       <use xlink:href="#DejaVuSans-48"/>
       <use x="63.623047" xlink:href="#DejaVuSans-46"/>
       <use x="95.410156" xlink:href="#DejaVuSans-54"/>
      </g>
     </g>
    </g>
    <g id="ytick_5">
     <g id="line2d_25">
      <path clip-path="url(#p9653bca6c4)" d="M 57.6 84.056079 
L 338.688 84.056079 
" style="fill:none;stroke:#b0b0b0;stroke-linecap:square;stroke-width:0.8;"/>
     </g>
     <g id="line2d_26">
      <g>
       <use style="stroke:#000000;stroke-width:0.8;" x="57.6" xlink:href="#mc3bde6e4b9" y="84.056079"/>
      </g>
     </g>
     <g id="text_10">
      <!-- 0.8 -->
      <g transform="translate(25.155 90.134829)scale(0.16 -0.16)">
       <defs>
        <path d="M 31.78125 34.625 
Q 24.75 34.625 20.71875 30.859375 
Q 16.703125 27.09375 16.703125 20.515625 
Q 16.703125 13.921875 20.71875 10.15625 
Q 24.75 6.390625 31.78125 6.390625 
Q 38.8125 6.390625 42.859375 10.171875 
Q 46.921875 13.96875 46.921875 20.515625 
Q 46.921875 27.09375 42.890625 30.859375 
Q 38.875 34.625 31.78125 34.625 
z
M 21.921875 38.8125 
Q 15.578125 40.375 12.03125 44.71875 
Q 8.5 49.078125 8.5 55.328125 
Q 8.5 64.0625 14.71875 69.140625 
Q 20.953125 74.21875 31.78125 74.21875 
Q 42.671875 74.21875 48.875 69.140625 
Q 55.078125 64.0625 55.078125 55.328125 
Q 55.078125 49.078125 51.53125 44.71875 
Q 48 40.375 41.703125 38.8125 
Q 48.828125 37.15625 52.796875 32.3125 
Q 56.78125 27.484375 56.78125 20.515625 
Q 56.78125 9.90625 50.3125 4.234375 
Q 43.84375 -1.421875 31.78125 -1.421875 
Q 19.734375 -1.421875 13.25 4.234375 
Q 6.78125 9.90625 6.78125 20.515625 
Q 6.78125 27.484375 10.78125 32.3125 
Q 14.796875 37.15625 21.921875 38.8125 
z
M 18.3125 54.390625 
Q 18.3125 48.734375 21.84375 45.5625 
Q 25.390625 42.390625 31.78125 42.390625 
Q 38.140625 42.390625 41.71875 45.5625 
Q 45.3125 48.734375 45.3125 54.390625 
Q 45.3125 60.0625 41.71875 63.234375 
Q 38.140625 66.40625 31.78125 66.40625 
Q 25.390625 66.40625 21.84375 63.234375 
Q 18.3125 60.0625 18.3125 54.390625 
z
" id="DejaVuSans-56"/>
       </defs>
       <use xlink:href="#DejaVuSans-48"/>
       <use x="63.623047" xlink:href="#DejaVuSans-46"/>
       <use x="95.410156" xlink:href="#DejaVuSans-56"/>
      </g>
     </g>
    </g>
    <g id="ytick_6">
     <g id="line2d_27">
      <path clip-path="url(#p9653bca6c4)" d="M 57.6 30.334099 
L 338.688 30.334099 
" style="fill:none;stroke:#b0b0b0;stroke-linecap:square;stroke-width:0.8;"/>
     </g>
     <g id="line2d_28">
      <g>
       <use style="stroke:#000000;stroke-width:0.8;" x="57.6" xlink:href="#mc3bde6e4b9" y="30.334099"/>
      </g>
     </g>
     <g id="text_11">
      <!-- 1.0 -->
      <g transform="translate(25.155 36.412849)scale(0.16 -0.16)">
       <use xlink:href="#DejaVuSans-49"/>
       <use x="63.623047" xlink:href="#DejaVuSans-46"/>
       <use x="95.410156" xlink:href="#DejaVuSans-48"/>
      </g>
     </g>
    </g>
    <g id="text_12">
     <!-- Fraction of function,target pairs -->
     <g transform="translate(17.619531 297.681)rotate(-90)scale(0.17 -0.17)">
      <defs>
       <path d="M 9.8125 72.90625 
L 51.703125 72.90625 
L 51.703125 64.59375 
L 19.671875 64.59375 
L 19.671875 43.109375 
L 48.578125 43.109375 
L 48.578125 34.8125 
L 19.671875 34.8125 
L 19.671875 0 
L 9.8125 0 
z
" id="DejaVuSans-70"/>
       <path d="M 41.109375 46.296875 
Q 39.59375 47.171875 37.8125 47.578125 
Q 36.03125 48 33.890625 48 
Q 26.265625 48 22.1875 43.046875 
Q 18.109375 38.09375 18.109375 28.8125 
L 18.109375 0 
L 9.078125 0 
L 9.078125 54.6875 
L 18.109375 54.6875 
L 18.109375 46.1875 
Q 20.953125 51.171875 25.484375 53.578125 
Q 30.03125 56 36.53125 56 
Q 37.453125 56 38.578125 55.875 
Q 39.703125 55.765625 41.0625 55.515625 
z
" id="DejaVuSans-114"/>
       <path d="M 48.78125 52.59375 
L 48.78125 44.1875 
Q 44.96875 46.296875 41.140625 47.34375 
Q 37.3125 48.390625 33.40625 48.390625 
Q 24.65625 48.390625 19.8125 42.84375 
Q 14.984375 37.3125 14.984375 27.296875 
Q 14.984375 17.28125 19.8125 11.734375 
Q 24.65625 6.203125 33.40625 6.203125 
Q 37.3125 6.203125 41.140625 7.25 
Q 44.96875 8.296875 48.78125 10.40625 
L 48.78125 2.09375 
Q 45.015625 0.34375 40.984375 -0.53125 
Q 36.96875 -1.421875 32.421875 -1.421875 
Q 20.0625 -1.421875 12.78125 6.34375 
Q 5.515625 14.109375 5.515625 27.296875 
Q 5.515625 40.671875 12.859375 48.328125 
Q 20.21875 56 33.015625 56 
Q 37.15625 56 41.109375 55.140625 
Q 45.0625 54.296875 48.78125 52.59375 
z
" id="DejaVuSans-99"/>
       <path d="M 18.3125 70.21875 
L 18.3125 54.6875 
L 36.8125 54.6875 
L 36.8125 47.703125 
L 18.3125 47.703125 
L 18.3125 18.015625 
Q 18.3125 11.328125 20.140625 9.421875 
Q 21.96875 7.515625 27.59375 7.515625 
L 36.8125 7.515625 
L 36.8125 0 
L 27.59375 0 
Q 17.1875 0 13.234375 3.875 
Q 9.28125 7.765625 9.28125 18.015625 
L 9.28125 47.703125 
L 2.6875 47.703125 
L 2.6875 54.6875 
L 9.28125 54.6875 
L 9.28125 70.21875 
z
" id="DejaVuSans-116"/>
       <path d="M 8.5 21.578125 
L 8.5 54.6875 
L 17.484375 54.6875 
L 17.484375 21.921875 
Q 17.484375 14.15625 20.5 10.265625 
Q 23.53125 6.390625 29.59375 6.390625 
Q 36.859375 6.390625 41.078125 11.03125 
Q 45.3125 15.671875 45.3125 23.6875 
L 45.3125 54.6875 
L 54.296875 54.6875 
L 54.296875 0 
L 45.3125 0 
L 45.3125 8.40625 
Q 42.046875 3.421875 37.71875 1 
Q 33.40625 -1.421875 27.6875 -1.421875 
Q 18.265625 -1.421875 13.375 4.4375 
Q 8.5 10.296875 8.5 21.578125 
z
M 31.109375 56 
z
" id="DejaVuSans-117"/>
       <path d="M 11.71875 12.40625 
L 22.015625 12.40625 
L 22.015625 4 
L 14.015625 -11.625 
L 7.71875 -11.625 
L 11.71875 4 
z
" id="DejaVuSans-44"/>
       <path d="M 18.109375 8.203125 
L 18.109375 -20.796875 
L 9.078125 -20.796875 
L 9.078125 54.6875 
L 18.109375 54.6875 
L 18.109375 46.390625 
Q 20.953125 51.265625 25.265625 53.625 
Q 29.59375 56 35.59375 56 
Q 45.5625 56 51.78125 48.09375 
Q 58.015625 40.1875 58.015625 27.296875 
Q 58.015625 14.40625 51.78125 6.484375 
Q 45.5625 -1.421875 35.59375 -1.421875 
Q 29.59375 -1.421875 25.265625 0.953125 
Q 20.953125 3.328125 18.109375 8.203125 
z
M 48.6875 27.296875 
Q 48.6875 37.203125 44.609375 42.84375 
Q 40.53125 48.484375 33.40625 48.484375 
Q 26.265625 48.484375 22.1875 42.84375 
Q 18.109375 37.203125 18.109375 27.296875 
Q 18.109375 17.390625 22.1875 11.75 
Q 26.265625 6.109375 33.40625 6.109375 
Q 40.53125 6.109375 44.609375 11.75 
Q 48.6875 17.390625 48.6875 27.296875 
z
" id="DejaVuSans-112"/>
      </defs>
      <use xlink:href="#DejaVuSans-70"/>
      <use x="50.269531" xlink:href="#DejaVuSans-114"/>
      <use x="91.382812" xlink:href="#DejaVuSans-97"/>
      <use x="152.662109" xlink:href="#DejaVuSans-99"/>
      <use x="207.642578" xlink:href="#DejaVuSans-116"/>
      <use x="246.851562" xlink:href="#DejaVuSans-105"/>
      <use x="274.634766" xlink:href="#DejaVuSans-111"/>
      <use x="335.816406" xlink:href="#DejaVuSans-110"/>
      <use x="399.195312" xlink:href="#DejaVuSans-32"/>
      <use x="430.982422" xlink:href="#DejaVuSans-111"/>
      <use x="492.164062" xlink:href="#DejaVuSans-102"/>
      <use x="527.369141" xlink:href="#DejaVuSans-32"/>
      <use x="559.15625" xlink:href="#DejaVuSans-102"/>
      <use x="594.361328" xlink:href="#DejaVuSans-117"/>
      <use x="657.740234" xlink:href="#DejaVuSans-110"/>
      <use x="721.119141" xlink:href="#DejaVuSans-99"/>
      <use x="776.099609" xlink:href="#DejaVuSans-116"/>
      <use x="815.308594" xlink:href="#DejaVuSans-105"/>
      <use x="843.091797" xlink:href="#DejaVuSans-111"/>
      <use x="904.273438" xlink:href="#DejaVuSans-110"/>
      <use x="967.652344" xlink:href="#DejaVuSans-44"/>
      <use x="999.439453" xlink:href="#DejaVuSans-116"/>
      <use x="1038.648438" xlink:href="#DejaVuSans-97"/>
      <use x="1099.927734" xlink:href="#DejaVuSans-114"/>
      <use x="1139.291016" xlink:href="#DejaVuSans-103"/>
      <use x="1202.767578" xlink:href="#DejaVuSans-101"/>
      <use x="1264.291016" xlink:href="#DejaVuSans-116"/>
      <use x="1303.5" xlink:href="#DejaVuSans-32"/>
      <use x="1335.287109" xlink:href="#DejaVuSans-112"/>
      <use x="1398.763672" xlink:href="#DejaVuSans-97"/>
      <use x="1460.042969" xlink:href="#DejaVuSans-105"/>
      <use x="1487.826172" xlink:href="#DejaVuSans-114"/>
      <use x="1528.939453" xlink:href="#DejaVuSans-115"/>
     </g>
    </g>
   </g>
   <g id="line2d_29">
    <defs>
     <path d="M 0 1.5 
C 0.397805 1.5 0.77937 1.341951 1.06066 1.06066 
C 1.341951 0.77937 1.5 0.397805 1.5 0 
C 1.5 -0.397805 1.341951 -0.77937 1.06066 -1.06066 
C 0.77937 -1.341951 0.397805 -1.5 0 -1.5 
C -0.397805 -1.5 -0.77937 -1.341951 -1.06066 -1.06066 
C -1.341951 -0.77937 -1.5 -0.397805 -1.5 0 
C -1.5 0.397805 -1.341951 0.77937 -1.06066 1.06066 
C -0.77937 1.341951 -0.397805 1.5 0 1.5 
z
" id="m4cbc0dcc73" style="stroke:#000080;"/>
    </defs>
    <g>
     <use style="fill:#000080;stroke:#000080;" x="262.298687" xlink:href="#m4cbc0dcc73" y="239.980851"/>
     <use style="fill:#000080;stroke:#000080;" x="262.298687" xlink:href="#m4cbc0dcc73" y="239.980851"/>
    </g>
   </g>
   <g id="line2d_30">
    <path d="M 29.53256 298.944 
L 29.53256 298.288854 
L 53.708537 298.288854 
L 53.708537 297.633708 
L 69.687988 297.633708 
L 69.687988 296.978562 
L 97.755429 296.978562 
L 97.755429 296.323416 
L 99.731799 296.323416 
L 99.731799 295.66827 
L 100.343767 295.66827 
L 100.343767 295.013123 
L 105.51043 295.013123 
L 105.51043 294.357977 
L 109.131511 294.357977 
L 109.131511 293.702831 
L 111.819788 293.702831 
L 111.819788 293.047685 
L 113.873839 293.047685 
L 113.873839 292.392539 
L 116.202531 292.392539 
L 116.202531 291.737393 
L 120.093994 291.737393 
L 120.093994 290.427101 
L 120.665825 290.427101 
L 120.665825 289.771955 
L 121.219499 289.771955 
L 121.219499 289.116809 
L 122.615387 289.116809 
L 122.615387 288.461662 
L 125.110962 288.461662 
L 125.110962 287.806516 
L 130.978796 287.806516 
L 130.978796 287.15137 
L 131.590764 287.15137 
L 131.590764 286.496224 
L 131.790072 286.496224 
L 131.888878 285.185932 
L 132.659801 285.185932 
L 132.659801 284.530786 
L 132.847322 284.530786 
L 132.847322 283.87564 
L 134.450015 283.87564 
L 134.450015 283.220494 
L 142.215919 283.220494 
L 142.215919 282.565348 
L 145.755062 282.565348 
L 145.755062 281.910201 
L 147.888024 281.910201 
L 147.888024 281.255055 
L 149.030744 281.255055 
L 149.030744 280.599909 
L 149.177602 280.599909 
L 149.177602 279.944763 
L 150.749772 279.944763 
L 150.749772 279.289617 
L 153.032466 279.289617 
L 153.032466 278.634471 
L 155.691409 278.634471 
L 155.691409 277.979325 
L 157.208825 277.979325 
L 157.208825 276.669033 
L 158.983842 276.669033 
L 158.983842 276.013887 
L 168.109685 276.013887 
L 168.109685 275.35874 
L 171.376477 275.35874 
L 171.376477 274.703594 
L 171.559782 274.703594 
L 171.559782 274.048448 
L 172.52532 274.048448 
L 172.52532 273.393302 
L 174.558593 273.393302 
L 174.558593 272.738156 
L 175.162175 272.738156 
L 175.162175 272.08301 
L 177.079739 272.08301 
L 177.079739 271.427864 
L 177.256007 271.427864 
L 177.256007 270.772718 
L 182.458327 270.772718 
L 182.458327 270.117572 
L 185.923832 270.117572 
L 185.923832 269.462426 
L 186.646581 269.462426 
L 186.646581 268.807279 
L 188.011931 268.807279 
L 188.011931 268.152133 
L 189.828626 268.152133 
L 189.828626 267.496987 
L 193.908475 267.496987 
L 193.908475 266.186695 
L 194.649043 266.186695 
L 194.692116 264.876403 
L 195.187802 264.876403 
L 195.187802 264.221257 
L 195.306309 264.221257 
L 195.306309 263.566111 
L 196.264565 263.566111 
L 196.264565 262.910965 
L 198.012931 262.910965 
L 198.012931 262.255818 
L 198.818599 262.255818 
L 198.818599 261.600672 
L 199.275211 261.600672 
L 199.275211 260.945526 
L 199.762442 260.945526 
L 199.762442 260.29038 
L 200.849645 260.29038 
L 200.934439 258.980088 
L 202.632003 258.980088 
L 202.632003 258.324942 
L 202.887633 258.324942 
L 202.887633 257.669796 
L 209.382322 257.669796 
L 209.382322 257.01465 
L 210.418067 257.01465 
L 210.418067 256.359504 
L 211.175615 256.359504 
L 211.175615 255.704357 
L 214.065352 255.704357 
L 214.065352 255.049211 
L 215.062375 255.049211 
L 215.062375 254.394065 
L 215.430942 254.394065 
L 215.498349 253.083773 
L 215.554526 253.083773 
L 215.554526 252.428627 
L 217.948226 252.428627 
L 217.948226 251.773481 
L 218.363787 251.773481 
L 218.363787 251.118335 
L 223.368297 251.118335 
L 223.368297 250.463189 
L 223.754506 250.463189 
L 223.754506 249.808043 
L 224.774008 249.808043 
L 224.774008 249.152896 
L 225.444376 249.152896 
L 225.444376 248.49775 
L 226.705998 248.49775 
L 226.705998 247.842604 
L 227.596528 247.842604 
L 227.596528 247.187458 
L 232.125424 247.187458 
L 232.125424 246.532312 
L 233.213439 246.532312 
L 233.213439 245.877166 
L 233.452162 245.877166 
L 233.452162 245.22202 
L 237.69161 245.22202 
L 237.69161 244.566874 
L 239.45574 244.566874 
L 239.45574 243.911728 
L 242.802092 243.911728 
L 242.802092 243.256582 
L 243.9666 243.256582 
L 244.074808 241.946289 
L 249.297785 241.946289 
L 249.297785 241.291143 
L 250.761807 241.291143 
L 250.761807 240.635997 
L 262.298687 240.635997 
L 262.298687 239.980851 
L 338.688 239.980851 
L 338.688 239.980851 
" style="fill:none;stroke:#000080;stroke-linecap:square;stroke-width:1.5;"/>
   </g>
   <g id="line2d_31">
    <defs>
     <path d="M 0 6 
C 1.591219 6 3.117479 5.367802 4.242641 4.242641 
C 5.367802 3.117479 6 1.591219 6 0 
C 6 -1.591219 5.367802 -3.117479 4.242641 -4.242641 
C 3.117479 -5.367802 1.591219 -6 0 -6 
C -1.591219 -6 -3.117479 -5.367802 -4.242641 -4.242641 
C -5.367802 -3.117479 -6 -1.591219 -6 0 
C -6 1.591219 -5.367802 3.117479 -4.242641 4.242641 
C -3.117479 5.367802 -1.591219 6 0 6 
z
" id="m17d092988f" style="stroke:#000080;stroke-width:1.5;"/>
    </defs>
    <g>
     <use style="fill-opacity:0;stroke:#000080;stroke-width:1.5;" x="105.51043" xlink:href="#m17d092988f" y="295.013123"/>
     <use style="fill-opacity:0;stroke:#000080;stroke-width:1.5;" x="158.983842" xlink:href="#m17d092988f" y="276.013887"/>
     <use style="fill-opacity:0;stroke:#000080;stroke-width:1.5;" x="199.762442" xlink:href="#m17d092988f" y="260.29038"/>
     <use style="fill-opacity:0;stroke:#000080;stroke-width:1.5;" x="244.074808" xlink:href="#m17d092988f" y="242.601435"/>
     <use style="fill-opacity:0;stroke:#000080;stroke-width:1.5;" x="262.298687" xlink:href="#m17d092988f" y="239.980851"/>
     <use style="fill-opacity:0;stroke:#000080;stroke-width:1.5;" x="338.688" xlink:href="#m17d092988f" y="239.980851"/>
    </g>
   </g>
   <g id="line2d_32">
    <path style="fill:none;stroke:#000080;stroke-linecap:square;stroke-width:1.5;"/>
    <g/>
   </g>
   <g id="line2d_33">
    <path clip-path="url(#p9653bca6c4)" d="M 206.734336 257.669796 
" style="fill:none;stroke:#000080;stroke-linecap:square;stroke-width:1.5;"/>
    <defs>
     <path d="M -12 12 
L 12 -12 
M -12 -12 
L 12 12 
" id="m56165a425c" style="stroke:#000080;"/>
    </defs>
    <g clip-path="url(#p9653bca6c4)">
     <use style="fill:#000080;stroke:#000080;" x="206.734336" xlink:href="#m56165a425c" y="257.669796"/>
    </g>
   </g>
   <g id="line2d_34">
    <defs>
     <path d="M 0 1.5 
C 0.397805 1.5 0.77937 1.341951 1.06066 1.06066 
C 1.341951 0.77937 1.5 0.397805 1.5 0 
C 1.5 -0.397805 1.341951 -0.77937 1.06066 -1.06066 
C 0.77937 -1.341951 0.397805 -1.5 0 -1.5 
C -0.397805 -1.5 -0.77937 -1.341951 -1.06066 -1.06066 
C -1.341951 -0.77937 -1.5 -0.397805 -1.5 0 
C -1.5 0.397805 -1.341951 0.77937 -1.06066 1.06066 
C -0.77937 1.341951 -0.397805 1.5 0 1.5 
z
" id="m3d132386d5" style="stroke:#ff00ff;"/>
    </defs>
    <g>
     <use style="fill:#ff00ff;stroke:#ff00ff;" x="274.960264" xlink:href="#m3d132386d5" y="239.980851"/>
     <use style="fill:#ff00ff;stroke:#ff00ff;" x="274.960264" xlink:href="#m3d132386d5" y="239.980851"/>
    </g>
   </g>
   <g id="line2d_35">
    <path d="M 60.779557 298.944 
L 60.779557 298.288854 
L 65.796525 298.288854 
L 65.796525 297.633708 
L 72.867545 297.633708 
L 72.867545 296.978562 
L 75.555822 296.978562 
L 75.555822 296.323416 
L 79.938565 296.323416 
L 79.938565 295.66827 
L 86.351421 295.66827 
L 86.351421 295.013123 
L 94.714831 295.013123 
L 94.714831 294.357977 
L 102.060491 294.357977 
L 102.060491 293.047685 
L 105.057436 293.047685 
L 105.057436 291.737393 
L 115.460322 291.737393 
L 115.460322 291.082247 
L 116.680349 291.082247 
L 116.680349 290.427101 
L 117.145424 290.427101 
L 117.145424 289.771955 
L 118.681952 289.771955 
L 118.681952 289.116809 
L 121.756135 289.116809 
L 121.756135 288.461662 
L 124.216444 288.461662 
L 124.216444 287.806516 
L 125.110962 287.806516 
L 125.110962 287.15137 
L 125.682793 287.15137 
L 125.682793 286.496224 
L 126.236468 286.496224 
L 126.236468 285.841078 
L 129.118302 285.841078 
L 129.118302 285.185932 
L 130.76994 285.185932 
L 130.76994 284.530786 
L 136.073445 284.530786 
L 136.073445 283.87564 
L 138.460171 283.87564 
L 138.460171 283.220494 
L 139.253002 283.220494 
L 139.253002 282.565348 
L 139.509467 282.565348 
L 139.509467 281.910201 
L 143.375453 281.910201 
L 143.375453 281.255055 
L 147.082371 281.255055 
L 147.082371 280.599909 
L 148.161434 280.599909 
L 148.161434 279.944763 
L 148.506778 279.944763 
L 148.506778 279.289617 
L 168.763962 279.289617 
L 168.763962 278.634471 
L 169.00019 278.634471 
L 169.00019 277.979325 
L 170.483844 277.979325 
L 170.494616 276.669033 
L 171.711078 276.669033 
L 171.771231 274.703594 
L 172.078757 274.703594 
L 172.078757 274.048448 
L 172.52532 274.048448 
L 172.52532 273.393302 
L 173.64813 273.393302 
L 173.64813 272.738156 
L 174.369919 272.738156 
L 174.455933 271.427864 
L 175.013227 271.427864 
L 175.013227 270.772718 
L 175.633646 270.772718 
L 175.633646 270.117572 
L 175.912107 270.117572 
L 175.912107 269.462426 
L 176.721769 269.462426 
L 176.721769 268.807279 
L 178.88723 268.807279 
L 178.88723 268.152133 
L 183.949061 268.152133 
L 183.949061 267.496987 
L 193.247876 267.496987 
L 193.247876 266.186695 
L 193.541857 266.186695 
L 193.563384 264.876403 
L 193.757362 264.876403 
L 193.757362 264.221257 
L 200.013931 264.221257 
L 200.013931 262.910965 
L 200.226644 262.910965 
L 200.226644 262.255818 
L 200.917513 262.255818 
L 200.917513 261.600672 
L 201.87481 261.600672 
L 201.87481 260.945526 
L 203.152818 260.945526 
L 203.152818 260.29038 
L 203.820175 260.29038 
L 203.820175 259.635234 
L 207.780006 259.635234 
L 207.780006 258.980088 
L 207.974416 258.980088 
L 207.974416 258.324942 
L 209.200728 258.324942 
L 209.200728 257.669796 
L 209.395055 257.669796 
L 209.395055 257.01465 
L 211.003937 257.01465 
L 211.109664 255.704357 
L 213.340937 255.704357 
L 213.340937 255.049211 
L 213.569228 255.049211 
L 213.569228 254.394065 
L 215.126638 254.394065 
L 215.213059 253.083773 
L 216.300003 253.083773 
L 216.300003 252.428627 
L 216.751669 252.428627 
L 216.751669 251.773481 
L 223.846957 251.773481 
L 223.846957 251.118335 
L 225.011449 251.118335 
L 225.011449 250.463189 
L 225.379713 250.463189 
L 225.379713 249.808043 
L 227.634791 249.808043 
L 227.634791 249.152896 
L 227.877865 249.152896 
L 227.877865 248.49775 
L 228.117598 248.49775 
L 228.117598 247.842604 
L 237.205217 247.842604 
L 237.205217 247.187458 
L 237.567942 247.187458 
L 237.567942 246.532312 
L 239.035252 246.532312 
L 239.035252 245.877166 
L 241.196872 245.877166 
L 241.196872 245.22202 
L 247.813905 245.22202 
L 247.813905 244.566874 
L 251.54925 244.566874 
L 251.54925 243.911728 
L 253.307265 243.911728 
L 253.307265 243.256582 
L 259.634242 243.256582 
L 259.634242 242.601435 
L 263.073624 242.601435 
L 263.073624 241.946289 
L 268.898416 241.946289 
L 268.898416 241.291143 
L 272.1549 241.291143 
L 272.1549 240.635997 
L 274.960264 240.635997 
L 274.960264 239.980851 
L 338.688 239.980851 
L 338.688 239.980851 
" style="fill:none;stroke:#ff00ff;stroke-linecap:square;stroke-width:1.5;"/>
   </g>
   <g id="line2d_36">
    <defs>
     <path d="M -0 8.485281 
L 5.091169 0 
L 0 -8.485281 
L -5.091169 -0 
z
" id="md7a3d2609b" style="stroke:#ff00ff;stroke-linejoin:miter;stroke-width:1.5;"/>
    </defs>
    <g>
     <use style="fill-opacity:0;stroke:#ff00ff;stroke-linejoin:miter;stroke-width:1.5;" x="125.110962" xlink:href="#md7a3d2609b" y="287.806516"/>
     <use style="fill-opacity:0;stroke:#ff00ff;stroke-linejoin:miter;stroke-width:1.5;" x="207.780006" xlink:href="#md7a3d2609b" y="258.980088"/>
     <use style="fill-opacity:0;stroke:#ff00ff;stroke-linejoin:miter;stroke-width:1.5;" x="274.960264" xlink:href="#md7a3d2609b" y="240.635997"/>
     <use style="fill-opacity:0;stroke:#ff00ff;stroke-linejoin:miter;stroke-width:1.5;" x="274.960264" xlink:href="#md7a3d2609b" y="239.980851"/>
     <use style="fill-opacity:0;stroke:#ff00ff;stroke-linejoin:miter;stroke-width:1.5;" x="338.688" xlink:href="#md7a3d2609b" y="239.980851"/>
    </g>
   </g>
   <g id="line2d_37">
    <path style="fill:none;stroke:#ff00ff;stroke-linecap:square;stroke-width:1.5;"/>
    <g/>
   </g>
   <g id="line2d_38">
    <path clip-path="url(#p9653bca6c4)" d="M 208.587444 258.324942 
" style="fill:none;stroke:#ff00ff;stroke-linecap:square;stroke-width:1.5;"/>
    <defs>
     <path d="M -12 12 
L 12 -12 
M -12 -12 
L 12 12 
" id="mb56c842626" style="stroke:#ff00ff;"/>
    </defs>
    <g clip-path="url(#p9653bca6c4)">
     <use style="fill:#ff00ff;stroke:#ff00ff;" x="208.587444" xlink:href="#mb56c842626" y="258.324942"/>
    </g>
   </g>
   <g id="line2d_39">
    <defs>
     <path d="M 0 1.5 
C 0.397805 1.5 0.77937 1.341951 1.06066 1.06066 
C 1.341951 0.77937 1.5 0.397805 1.5 0 
C 1.5 -0.397805 1.341951 -0.77937 1.06066 -1.06066 
C 0.77937 -1.341951 0.397805 -1.5 0 -1.5 
C -0.397805 -1.5 -0.77937 -1.341951 -1.06066 -1.06066 
C -1.341951 -0.77937 -1.5 -0.397805 -1.5 0 
C -1.5 0.397805 -1.341951 0.77937 -1.06066 1.06066 
C -0.77937 1.341951 -0.397805 1.5 0 1.5 
z
" id="m4f2e4d875f" style="stroke:#ff7500;"/>
    </defs>
    <g>
     <use style="fill:#ff7500;stroke:#ff7500;" x="290.190839" xlink:href="#m4f2e4d875f" y="30.334099"/>
     <use style="fill:#ff7500;stroke:#ff7500;" x="290.190839" xlink:href="#m4f2e4d875f" y="30.334099"/>
    </g>
   </g>
   <g id="line2d_40">
    <path d="M 29.53256 298.944 
L 29.53256 298.288854 
L 69.687988 298.288854 
L 69.687988 297.633708 
L 87.643811 297.633708 
L 87.643811 296.978562 
L 89.972502 296.978562 
L 89.972502 296.323416 
L 101.506816 296.323416 
L 101.506816 295.66827 
L 106.382575 295.66827 
L 106.382575 294.357977 
L 108.764355 294.357977 
L 108.764355 293.702831 
L 111.185562 293.702831 
L 111.185562 293.047685 
L 114.685115 293.047685 
L 114.685115 292.392539 
L 115.205729 292.392539 
L 115.205729 291.737393 
L 116.443076 291.737393 
L 116.443076 291.082247 
L 117.373392 291.082247 
L 117.373392 290.427101 
L 117.598418 290.427101 
L 117.598418 289.771955 
L 118.256582 289.771955 
L 118.256582 288.461662 
L 119.89914 288.461662 
L 119.89914 287.806516 
L 122.44689 287.806516 
L 122.44689 287.15137 
L 124.669438 287.15137 
L 124.669438 285.841078 
L 125.399222 285.841078 
L 125.399222 285.185932 
L 126.372183 285.185932 
L 126.372183 284.530786 
L 126.773103 284.530786 
L 126.773103 283.87564 
L 131.287464 283.87564 
L 131.287464 283.220494 
L 139.058148 283.220494 
L 139.058148 282.565348 
L 144.366588 282.565348 
L 144.366588 281.910201 
L 147.082371 281.910201 
L 147.082371 281.255055 
L 147.368603 281.255055 
L 147.368603 280.599909 
L 155.232454 280.599909 
L 155.232454 279.944763 
L 158.0201 279.944763 
L 158.0201 279.289617 
L 158.497919 279.289617 
L 158.497919 278.634471 
L 160.422949 278.634471 
L 160.422949 277.324179 
L 161.64531 277.324179 
L 161.64531 276.669033 
L 164.233648 276.669033 
L 164.233648 276.013887 
L 167.397779 276.013887 
L 167.397779 275.35874 
L 169.371623 275.35874 
L 169.371623 274.703594 
L 171.232562 274.703594 
L 171.232562 274.048448 
L 171.549649 274.048448 
L 171.640636 272.738156 
L 171.8212 272.738156 
L 171.920711 271.427864 
L 172.400273 271.427864 
L 172.400273 270.772718 
L 172.734918 270.772718 
L 172.734918 270.117572 
L 173.128197 270.117572 
L 173.165193 268.807279 
L 173.284893 268.807279 
L 173.284893 268.152133 
L 173.449287 268.152133 
L 173.449287 267.496987 
L 174.144277 267.496987 
L 174.144277 266.841841 
L 174.404376 266.841841 
L 174.404376 266.186695 
L 174.541525 266.186695 
L 174.575644 264.876403 
L 174.711458 264.876403 
L 174.787391 263.566111 
L 176.162868 263.566111 
L 176.162868 262.910965 
L 177.588952 262.910965 
L 177.588952 262.255818 
L 186.917422 262.255818 
L 186.917422 261.600672 
L 187.430501 261.600672 
L 187.430501 260.945526 
L 187.586781 260.945526 
L 187.586781 260.29038 
L 197.858897 260.29038 
L 197.858897 259.635234 
L 205.220106 259.635234 
L 205.259756 258.324942 
L 205.492885 258.324942 
L 205.492885 257.669796 
L 207.337749 257.669796 
L 207.337749 257.01465 
L 209.970413 257.01465 
L 209.970413 256.359504 
L 211.40553 256.359504 
L 211.40553 255.704357 
L 213.487973 255.704357 
L 213.487973 255.049211 
L 216.994346 255.049211 
L 217.05822 253.738919 
L 217.222615 253.738919 
L 217.315444 251.118335 
L 217.342609 251.118335 
L 217.434803 247.842604 
L 217.466155 247.842604 
L 217.577255 243.911728 
L 217.598956 243.911728 
L 217.684773 240.635997 
L 219.515026 240.635997 
L 219.515026 239.980851 
L 219.893365 239.980851 
L 219.893365 239.325705 
L 221.785041 239.325705 
L 221.785041 238.670559 
L 224.54373 238.670559 
L 224.648998 236.049974 
L 224.678408 236.049974 
L 224.782151 234.084536 
L 224.855741 234.084536 
L 224.931395 230.808806 
L 224.994427 230.808806 
L 224.996556 229.498513 
L 225.859614 229.498513 
L 225.869515 228.188221 
L 225.990572 228.188221 
L 226.089482 226.222783 
L 226.226226 226.222783 
L 226.226226 225.567637 
L 226.373931 225.567637 
L 226.373931 224.912491 
L 227.617705 224.912491 
L 227.617705 224.257345 
L 229.858338 224.257345 
L 229.916583 222.947052 
L 229.994534 222.947052 
L 230.033911 220.981614 
L 230.111693 220.981614 
L 230.211418 217.050738 
L 230.22772 217.050738 
L 230.33323 214.430153 
L 230.3788 214.430153 
L 230.3788 213.775007 
L 230.854961 213.775007 
L 230.956082 211.154423 
L 231.239778 211.154423 
L 231.239778 210.499277 
L 231.648618 210.499277 
L 231.648618 209.84413 
L 232.583877 209.84413 
L 232.583877 209.188984 
L 233.677888 209.188984 
L 233.677888 208.533838 
L 233.880421 208.533838 
L 233.880421 207.878692 
L 234.051665 207.878692 
L 234.095794 205.913254 
L 234.197119 205.913254 
L 234.197119 205.258108 
L 234.463149 205.258108 
L 234.555124 203.947816 
L 234.609996 203.947816 
L 234.62321 202.637523 
L 234.73912 202.637523 
L 234.80218 201.327231 
L 234.852518 201.327231 
L 234.929895 200.016939 
L 235.071287 200.016939 
L 235.071287 199.361793 
L 235.36517 199.361793 
L 235.36517 198.706647 
L 235.499594 198.706647 
L 235.499594 198.051501 
L 235.750826 198.051501 
L 235.750826 197.396355 
L 235.873831 197.396355 
L 235.902327 196.086062 
L 236.705111 196.086062 
L 236.705111 195.430916 
L 237.093175 195.430916 
L 237.093175 194.77577 
L 237.269455 194.77577 
L 237.283957 193.465478 
L 237.381769 193.465478 
L 237.385256 192.155186 
L 237.648386 192.155186 
L 237.648386 191.50004 
L 237.831636 191.50004 
L 237.904671 190.189747 
L 238.087717 190.189747 
L 238.087717 189.534601 
L 238.651998 189.534601 
L 238.713715 186.914017 
L 238.845587 186.914017 
L 238.845587 186.258871 
L 238.964263 186.258871 
L 238.964263 185.603725 
L 239.985891 185.603725 
L 240.039278 182.98314 
L 240.200048 182.98314 
L 240.200048 182.327994 
L 240.487075 182.327994 
L 240.566382 179.70741 
L 240.607206 179.70741 
L 240.684238 177.086825 
L 240.819449 177.086825 
L 240.819449 176.431679 
L 241.148417 176.431679 
L 241.148417 175.776533 
L 241.261766 175.776533 
L 241.363098 173.155949 
L 241.400254 173.155949 
L 241.400254 172.500803 
L 241.98378 172.500803 
L 241.98378 171.845657 
L 242.37291 171.845657 
L 242.37291 171.190511 
L 242.562151 171.190511 
L 242.562151 170.535364 
L 242.891914 170.535364 
L 242.983721 168.569926 
L 243.10463 168.569926 
L 243.10463 167.91478 
L 243.494862 167.91478 
L 243.584616 166.604488 
L 243.802537 166.604488 
L 243.84111 165.294196 
L 244.010934 165.294196 
L 244.010934 164.63905 
L 244.246304 164.63905 
L 244.246304 163.983903 
L 244.528847 163.983903 
L 244.61506 162.018465 
L 244.643601 162.018465 
L 244.643601 161.363319 
L 244.790094 161.363319 
L 244.845575 160.053027 
L 244.902089 160.053027 
L 244.991741 158.742735 
L 245.423983 158.742735 
L 245.515301 156.777296 
L 245.859431 156.777296 
L 245.859431 156.12215 
L 246.320447 156.12215 
L 246.386403 154.811858 
L 246.781936 154.811858 
L 246.794206 152.84642 
L 247.004364 152.84642 
L 247.115089 150.225835 
L 247.42305 150.225835 
L 247.42305 149.570689 
L 247.666337 149.570689 
L 247.679095 148.260397 
L 247.838687 148.260397 
L 247.905958 146.950105 
L 248.279098 146.950105 
L 248.279098 146.294959 
L 248.613738 146.294959 
L 248.613738 145.639813 
L 248.902431 145.639813 
L 248.902431 144.984667 
L 249.017764 144.984667 
L 249.017764 144.32952 
L 249.147327 144.32952 
L 249.152418 143.019228 
L 249.498565 143.019228 
L 249.498565 142.364082 
L 249.63913 142.364082 
L 249.63913 141.708936 
L 249.90075 141.708936 
L 249.90075 141.05379 
L 250.040767 141.05379 
L 250.040767 140.398644 
L 250.158393 140.398644 
L 250.158393 139.743498 
L 250.290154 139.743498 
L 250.290154 139.088352 
L 250.637326 139.088352 
L 250.683365 137.778059 
L 250.901156 137.778059 
L 250.902923 136.467767 
L 251.315363 136.467767 
L 251.379822 134.502329 
L 251.519559 134.502329 
L 251.519559 133.847183 
L 251.838801 133.847183 
L 251.838801 133.192037 
L 252.182779 133.192037 
L 252.182779 132.536891 
L 252.338357 132.536891 
L 252.42331 131.226598 
L 252.693358 131.226598 
L 252.758609 128.606014 
L 252.927186 128.606014 
L 252.976601 127.295722 
L 253.320041 127.295722 
L 253.320041 126.640576 
L 253.464081 126.640576 
L 253.464081 125.98543 
L 253.599329 125.98543 
L 253.702189 124.675137 
L 253.793155 124.675137 
L 253.793155 124.019991 
L 253.945097 124.019991 
L 253.945097 123.364845 
L 254.057744 123.364845 
L 254.057744 122.709699 
L 254.384457 122.709699 
L 254.473642 121.399407 
L 254.516215 121.399407 
L 254.615683 119.433969 
L 254.708476 119.433969 
L 254.708476 118.778823 
L 254.897405 118.778823 
L 254.965275 117.46853 
L 255.170751 117.46853 
L 255.170751 116.813384 
L 255.445779 116.813384 
L 255.445779 116.158238 
L 255.590014 116.158238 
L 255.65655 114.1928 
L 256.167825 114.1928 
L 256.167825 113.537654 
L 256.337037 113.537654 
L 256.337037 112.882508 
L 256.777066 112.882508 
L 256.84167 110.917069 
L 256.939095 110.917069 
L 256.983014 108.951631 
L 257.091223 108.951631 
L 257.163764 107.641339 
L 257.249107 107.641339 
L 257.249107 106.986193 
L 257.545879 106.986193 
L 257.636984 105.020754 
L 257.676314 105.020754 
L 257.676314 104.365608 
L 258.372957 104.365608 
L 258.372957 103.710462 
L 258.58665 103.710462 
L 258.612168 102.40017 
L 258.806437 102.40017 
L 258.806437 101.745024 
L 259.027454 101.745024 
L 259.027454 101.089878 
L 259.16768 101.089878 
L 259.192229 99.12444 
L 259.457258 99.12444 
L 259.457258 98.469293 
L 259.672235 98.469293 
L 259.728264 97.159001 
L 259.834619 97.159001 
L 259.91844 95.848709 
L 260.102964 95.848709 
L 260.102964 95.193563 
L 260.305427 95.193563 
L 260.305427 94.538417 
L 260.52926 94.538417 
L 260.52926 93.883271 
L 260.666311 93.883271 
L 260.666311 93.228125 
L 260.976873 93.228125 
L 261.057815 91.262686 
L 261.125993 91.262686 
L 261.193877 89.952394 
L 261.801449 89.952394 
L 261.891269 87.33181 
L 261.929719 87.33181 
L 262.011181 85.366371 
L 262.058634 85.366371 
L 262.058634 84.711225 
L 262.276333 84.711225 
L 262.345559 83.400933 
L 262.801446 83.400933 
L 262.801446 82.745787 
L 262.947918 82.745787 
L 263.017662 81.435495 
L 263.681398 81.435495 
L 263.791158 78.81491 
L 263.795069 78.81491 
L 263.866554 76.849472 
L 263.983631 76.849472 
L 263.983631 76.194326 
L 264.177956 76.194326 
L 264.177956 75.53918 
L 264.463388 75.53918 
L 264.500107 74.228888 
L 264.599502 74.228888 
L 264.599502 73.573742 
L 264.718639 73.573742 
L 264.768151 71.608303 
L 265.047562 71.608303 
L 265.086206 70.298011 
L 265.173044 70.298011 
L 265.277706 68.987719 
L 265.454928 68.987719 
L 265.508213 67.677427 
L 265.891143 67.677427 
L 265.995336 66.367135 
L 266.282855 66.367135 
L 266.282855 65.711988 
L 266.431769 65.711988 
L 266.536264 64.401696 
L 266.561784 64.401696 
L 266.561784 63.74655 
L 266.677688 63.74655 
L 266.707307 62.436258 
L 266.986927 62.436258 
L 266.986927 61.781112 
L 267.216707 61.781112 
L 267.216707 61.125966 
L 267.692912 61.125966 
L 267.799183 58.505381 
L 267.928283 58.505381 
L 267.999197 56.539943 
L 268.58968 56.539943 
L 268.652505 55.229651 
L 269.236247 55.229651 
L 269.236247 54.574505 
L 269.510592 54.574505 
L 269.510592 53.919359 
L 269.748174 53.919359 
L 269.796316 52.609066 
L 269.880665 52.609066 
L 269.881584 51.298774 
L 269.998011 51.298774 
L 270.090624 49.333336 
L 270.437887 49.333336 
L 270.437887 48.67819 
L 270.698247 48.67819 
L 270.713073 47.367898 
L 271.026878 47.367898 
L 271.026878 46.712752 
L 271.234089 46.712752 
L 271.234089 46.057605 
L 271.437498 46.057605 
L 271.437498 45.402459 
L 272.34756 45.402459 
L 272.445036 44.092167 
L 272.769129 44.092167 
L 272.800488 42.781875 
L 272.920394 42.781875 
L 272.920394 42.126729 
L 273.069669 42.126729 
L 273.069669 41.471583 
L 273.518861 41.471583 
L 273.518861 40.816437 
L 274.106474 40.816437 
L 274.106474 40.161291 
L 275.057684 40.161291 
L 275.057684 39.506144 
L 275.370867 39.506144 
L 275.370867 38.850998 
L 276.062134 38.850998 
L 276.062134 38.195852 
L 276.224681 38.195852 
L 276.224681 37.540706 
L 277.094198 37.540706 
L 277.094198 36.88556 
L 277.478553 36.88556 
L 277.478553 36.230414 
L 279.142906 36.230414 
L 279.23245 34.920122 
L 280.21105 34.920122 
L 280.21105 34.264976 
L 281.085446 34.264976 
L 281.090757 32.954683 
L 282.591505 32.954683 
L 282.591505 32.299537 
L 283.891486 32.299537 
L 283.891486 31.644391 
L 285.215627 31.644391 
L 285.215627 30.989245 
L 290.190839 30.989245 
L 290.190839 30.334099 
L 338.688 30.334099 
L 338.688 30.334099 
" style="fill:none;stroke:#ff7500;stroke-linecap:square;stroke-width:1.5;"/>
   </g>
   <g id="line2d_41">
    <defs>
     <path d="M 0 -6 
L -1.347084 -1.854102 
L -5.706339 -1.854102 
L -2.179628 0.708204 
L -3.526712 4.854102 
L -0 2.291796 
L 3.526712 4.854102 
L 2.179628 0.708204 
L 5.706339 -1.854102 
L 1.347084 -1.854102 
z
" id="m1728107eba" style="stroke:#ff7500;stroke-linejoin:bevel;stroke-width:1.5;"/>
    </defs>
    <g>
     <use style="fill-opacity:0;stroke:#ff7500;stroke-linejoin:bevel;stroke-width:1.5;" x="108.764355" xlink:href="#m1728107eba" y="293.702831"/>
     <use style="fill-opacity:0;stroke:#ff7500;stroke-linejoin:bevel;stroke-width:1.5;" x="217.598956" xlink:href="#m1728107eba" y="242.601435"/>
     <use style="fill-opacity:0;stroke:#ff7500;stroke-linejoin:bevel;stroke-width:1.5;" x="249.152418" xlink:href="#m1728107eba" y="143.019228"/>
     <use style="fill-opacity:0;stroke:#ff7500;stroke-linejoin:bevel;stroke-width:1.5;" x="277.478553" xlink:href="#m1728107eba" y="36.88556"/>
     <use style="fill-opacity:0;stroke:#ff7500;stroke-linejoin:bevel;stroke-width:1.5;" x="290.190839" xlink:href="#m1728107eba" y="30.334099"/>
     <use style="fill-opacity:0;stroke:#ff7500;stroke-linejoin:bevel;stroke-width:1.5;" x="338.688" xlink:href="#m1728107eba" y="30.334099"/>
    </g>
   </g>
   <g id="line2d_42">
    <path style="fill:none;stroke:#ff7500;stroke-linecap:square;stroke-width:1.5;"/>
    <g/>
   </g>
   <g id="line2d_43">
    <path clip-path="url(#p9653bca6c4)" d="M 206.584752 257.669796 
" style="fill:none;stroke:#ff7500;stroke-linecap:square;stroke-width:1.5;"/>
    <defs>
     <path d="M -12 12 
L 12 -12 
M -12 -12 
L 12 12 
" id="mcb4ea7cc76" style="stroke:#ff7500;"/>
    </defs>
    <g clip-path="url(#p9653bca6c4)">
     <use style="fill:#ff7500;stroke:#ff7500;" x="206.584752" xlink:href="#mcb4ea7cc76" y="257.669796"/>
    </g>
   </g>
   <g id="line2d_44">
    <defs>
     <path d="M 0 1.5 
C 0.397805 1.5 0.77937 1.341951 1.06066 1.06066 
C 1.341951 0.77937 1.5 0.397805 1.5 0 
C 1.5 -0.397805 1.341951 -0.77937 1.06066 -1.06066 
C 0.77937 -1.341951 0.397805 -1.5 0 -1.5 
C -0.397805 -1.5 -0.77937 -1.341951 -1.06066 -1.06066 
C -1.341951 -0.77937 -1.5 -0.397805 -1.5 0 
C -1.5 0.397805 -1.341951 0.77937 -1.06066 1.06066 
C -0.77937 1.341951 -0.397805 1.5 0 1.5 
z
" id="m3348bfff30" style="stroke:#6495ed;"/>
    </defs>
    <g>
     <use style="fill:#6495ed;stroke:#6495ed;" x="272.375357" xlink:href="#m3348bfff30" y="246.532312"/>
     <use style="fill:#6495ed;stroke:#6495ed;" x="272.375357" xlink:href="#m3348bfff30" y="246.532312"/>
    </g>
   </g>
   <g id="line2d_45">
    <path d="M 41.620548 298.944 
L 41.620548 298.288854 
L 60.779557 298.288854 
L 60.779557 297.633708 
L 83.438118 297.633708 
L 83.438118 296.978562 
L 86.351421 296.978562 
L 86.351421 296.323416 
L 92.969447 296.323416 
L 92.969447 295.013123 
L 100.343767 295.013123 
L 100.343767 294.357977 
L 112.128456 294.357977 
L 112.128456 293.702831 
L 114.947365 293.702831 
L 114.947365 293.047685 
L 115.460322 293.047685 
L 115.460322 292.392539 
L 120.093994 292.392539 
L 120.093994 291.737393 
L 121.756135 291.737393 
L 121.756135 291.082247 
L 122.276749 291.082247 
L 122.276749 290.427101 
L 123.273551 290.427101 
L 123.273551 289.771955 
L 123.593547 289.771955 
L 123.593547 289.116809 
L 124.669438 289.116809 
L 124.669438 287.806516 
L 127.54831 287.806516 
L 127.54831 287.15137 
L 129.347769 287.15137 
L 129.347769 286.496224 
L 130.344571 286.496224 
L 130.344571 285.841078 
L 135.280614 285.841078 
L 135.280614 285.185932 
L 136.227776 285.185932 
L 136.227776 284.530786 
L 142.593291 284.530786 
L 142.646541 282.565348 
L 143.87806 282.565348 
L 143.87806 281.255055 
L 144.747789 281.255055 
L 144.747789 280.599909 
L 145.02832 280.599909 
L 145.02832 279.944763 
L 145.665858 279.944763 
L 145.665858 279.289617 
L 147.61026 279.289617 
L 147.61026 278.634471 
L 149.214124 278.634471 
L 149.214124 277.324179 
L 168.964959 277.324179 
L 168.964959 276.669033 
L 170.04743 276.669033 
L 170.04743 276.013887 
L 171.180875 276.013887 
L 171.180875 275.35874 
L 181.505489 275.35874 
L 181.505489 274.703594 
L 181.963328 274.703594 
L 181.963328 274.048448 
L 183.515577 274.048448 
L 183.515577 273.393302 
L 184.912642 273.393302 
L 184.912642 272.738156 
L 185.128002 272.738156 
L 185.146604 271.427864 
L 185.455272 271.427864 
L 185.455272 270.772718 
L 187.148935 270.772718 
L 187.250164 268.807279 
L 188.557408 268.807279 
L 188.557408 268.152133 
L 188.815407 268.152133 
L 188.815407 267.496987 
L 189.002707 267.496987 
L 189.002707 266.841841 
L 189.11783 266.841841 
L 189.151111 265.531549 
L 191.884454 265.531549 
L 191.884454 264.876403 
L 195.657072 264.876403 
L 195.657072 264.221257 
L 197.241563 264.221257 
L 197.331928 262.910965 
L 197.387306 262.910965 
L 197.387306 262.255818 
L 204.144515 262.255818 
L 204.144515 261.600672 
L 209.174965 261.600672 
L 209.174965 260.945526 
L 209.675146 260.945526 
L 209.675146 260.29038 
L 211.344066 260.29038 
L 211.344066 259.635234 
L 211.57536 259.635234 
L 211.57536 258.980088 
L 213.593349 258.980088 
L 213.593349 258.324942 
L 214.514566 258.324942 
L 214.514566 257.669796 
L 214.820744 257.669796 
L 214.820744 257.01465 
L 215.043971 257.01465 
L 215.043971 256.359504 
L 217.903882 256.359504 
L 217.935112 255.049211 
L 219.251039 255.049211 
L 219.251039 254.394065 
L 223.2372 254.394065 
L 223.2372 253.738919 
L 223.595307 253.738919 
L 223.595307 253.083773 
L 229.247885 253.083773 
L 229.247885 252.428627 
L 237.875652 252.428627 
L 237.875652 251.773481 
L 240.806462 251.773481 
L 240.806462 251.118335 
L 243.734265 251.118335 
L 243.734265 250.463189 
L 245.119469 250.463189 
L 245.119469 249.808043 
L 253.720329 249.808043 
L 253.720329 249.152896 
L 257.212194 249.152896 
L 257.212194 248.49775 
L 258.284925 248.49775 
L 258.284925 247.842604 
L 261.890242 247.842604 
L 261.890242 247.187458 
L 272.375357 247.187458 
L 272.375357 246.532312 
L 338.688 246.532312 
L 338.688 246.532312 
" style="fill:none;stroke:#6495ed;stroke-linecap:square;stroke-width:1.5;"/>
   </g>
   <g id="line2d_46">
    <defs>
     <path d="M -0 6 
L 6 -6 
L -6 -6 
z
" id="md86c06f4f4" style="stroke:#6495ed;stroke-linejoin:miter;stroke-width:1.5;"/>
    </defs>
    <g>
     <use style="fill-opacity:0;stroke:#6495ed;stroke-linejoin:miter;stroke-width:1.5;" x="100.343767" xlink:href="#md86c06f4f4" y="295.013123"/>
     <use style="fill-opacity:0;stroke:#6495ed;stroke-linejoin:miter;stroke-width:1.5;" x="149.214124" xlink:href="#md86c06f4f4" y="278.634471"/>
     <use style="fill-opacity:0;stroke:#6495ed;stroke-linejoin:miter;stroke-width:1.5;" x="215.043971" xlink:href="#md86c06f4f4" y="256.359504"/>
     <use style="fill-opacity:0;stroke:#6495ed;stroke-linejoin:miter;stroke-width:1.5;" x="272.375357" xlink:href="#md86c06f4f4" y="247.187458"/>
     <use style="fill-opacity:0;stroke:#6495ed;stroke-linejoin:miter;stroke-width:1.5;" x="272.375357" xlink:href="#md86c06f4f4" y="246.532312"/>
     <use style="fill-opacity:0;stroke:#6495ed;stroke-linejoin:miter;stroke-width:1.5;" x="338.688" xlink:href="#md86c06f4f4" y="246.532312"/>
    </g>
   </g>
   <g id="line2d_47">
    <path style="fill:none;stroke:#6495ed;stroke-linecap:square;stroke-width:1.5;"/>
    <g/>
   </g>
   <g id="line2d_48">
    <path clip-path="url(#p9653bca6c4)" d="M 206.850542 261.600672 
" style="fill:none;stroke:#6495ed;stroke-linecap:square;stroke-width:1.5;"/>
    <defs>
     <path d="M -12 12 
L 12 -12 
M -12 -12 
L 12 12 
" id="md655025b2b" style="stroke:#6495ed;"/>
    </defs>
    <g clip-path="url(#p9653bca6c4)">
     <use style="fill:#6495ed;stroke:#6495ed;" x="206.850542" xlink:href="#md655025b2b" y="261.600672"/>
    </g>
   </g>
   <g id="line2d_49">
    <path d="M 338.688 246.532312 
L 369.60768 293.571802 
" style="fill:none;stroke:#6495ed;stroke-linecap:square;stroke-width:1.5;"/>
    <g>
     <use style="fill-opacity:0;stroke:#6495ed;stroke-linejoin:miter;stroke-width:1.5;" x="338.688" xlink:href="#md86c06f4f4" y="246.532312"/>
     <use style="fill-opacity:0;stroke:#6495ed;stroke-linejoin:miter;stroke-width:1.5;" x="369.60768" xlink:href="#md86c06f4f4" y="293.571802"/>
    </g>
   </g>
   <g id="line2d_50">
    <path d="M 338.688 239.980851 
L 369.60768 207.616634 
" style="fill:none;stroke:#ff00ff;stroke-linecap:square;stroke-width:1.5;"/>
    <g>
     <use style="fill-opacity:0;stroke:#ff00ff;stroke-linejoin:miter;stroke-width:1.5;" x="338.688" xlink:href="#md7a3d2609b" y="239.980851"/>
     <use style="fill-opacity:0;stroke:#ff00ff;stroke-linejoin:miter;stroke-width:1.5;" x="369.60768" xlink:href="#md7a3d2609b" y="207.616634"/>
    </g>
   </g>
   <g id="line2d_51">
    <path d="M 338.688 239.980851 
L 369.60768 121.661465 
" style="fill:none;stroke:#000080;stroke-linecap:square;stroke-width:1.5;"/>
    <g>
     <use style="fill-opacity:0;stroke:#000080;stroke-width:1.5;" x="338.688" xlink:href="#m17d092988f" y="239.980851"/>
     <use style="fill-opacity:0;stroke:#000080;stroke-width:1.5;" x="369.60768" xlink:href="#m17d092988f" y="121.661465"/>
    </g>
   </g>
   <g id="line2d_52">
    <path d="M 338.688 30.334099 
L 369.60768 35.706297 
" style="fill:none;stroke:#ff7500;stroke-linecap:square;stroke-width:1.5;"/>
    <g>
     <use style="fill-opacity:0;stroke:#ff7500;stroke-linejoin:bevel;stroke-width:1.5;" x="338.688" xlink:href="#m1728107eba" y="30.334099"/>
     <use style="fill-opacity:0;stroke:#ff7500;stroke-linejoin:bevel;stroke-width:1.5;" x="369.60768" xlink:href="#m1728107eba" y="35.706297"/>
    </g>
   </g>
   <g id="line2d_53">
    <path d="M 338.688 298.944 
L 338.688 30.334099 
" style="fill:none;stroke:#000000;stroke-linecap:square;stroke-width:1.5;"/>
   </g>
   <g id="patch_3">
    <path d="M 57.6 298.944 
L 57.6 27.648 
" style="fill:none;stroke:#000000;stroke-linecap:square;stroke-linejoin:miter;stroke-width:0.8;"/>
   </g>
   <g id="patch_4">
    <path d="M 338.688 298.944 
L 338.688 27.648 
" style="fill:none;stroke:#000000;stroke-linecap:square;stroke-linejoin:miter;stroke-width:0.8;"/>
   </g>
   <g id="patch_5">
    <path d="M 57.6 298.944 
L 338.688 298.944 
" style="fill:none;stroke:#000000;stroke-linecap:square;stroke-linejoin:miter;stroke-width:0.8;"/>
   </g>
   <g id="patch_6">
    <path d="M 57.6 27.648 
L 338.688 27.648 
" style="fill:none;stroke:#000000;stroke-linecap:square;stroke-linejoin:miter;stroke-width:0.8;"/>
   </g>
   <g id="text_13">
    <!-- alO5 -->
    <g transform="translate(375.22944 298.262739)scale(0.17 -0.17)">
     <defs>
      <path d="M 39.40625 66.21875 
Q 28.65625 66.21875 22.328125 58.203125 
Q 16.015625 50.203125 16.015625 36.375 
Q 16.015625 22.609375 22.328125 14.59375 
Q 28.65625 6.59375 39.40625 6.59375 
Q 50.140625 6.59375 56.421875 14.59375 
Q 62.703125 22.609375 62.703125 36.375 
Q 62.703125 50.203125 56.421875 58.203125 
Q 50.140625 66.21875 39.40625 66.21875 
z
M 39.40625 74.21875 
Q 54.734375 74.21875 63.90625 63.9375 
Q 73.09375 53.65625 73.09375 36.375 
Q 73.09375 19.140625 63.90625 8.859375 
Q 54.734375 -1.421875 39.40625 -1.421875 
Q 24.03125 -1.421875 14.8125 8.828125 
Q 5.609375 19.09375 5.609375 36.375 
Q 5.609375 53.65625 14.8125 63.9375 
Q 24.03125 74.21875 39.40625 74.21875 
z
" id="DejaVuSans-79"/>
      <path d="M 10.796875 72.90625 
L 49.515625 72.90625 
L 49.515625 64.59375 
L 19.828125 64.59375 
L 19.828125 46.734375 
Q 21.96875 47.46875 24.109375 47.828125 
Q 26.265625 48.1875 28.421875 48.1875 
Q 40.625 48.1875 47.75 41.5 
Q 54.890625 34.8125 54.890625 23.390625 
Q 54.890625 11.625 47.5625 5.09375 
Q 40.234375 -1.421875 26.90625 -1.421875 
Q 22.3125 -1.421875 17.546875 -0.640625 
Q 12.796875 0.140625 7.71875 1.703125 
L 7.71875 11.625 
Q 12.109375 9.234375 16.796875 8.0625 
Q 21.484375 6.890625 26.703125 6.890625 
Q 35.15625 6.890625 40.078125 11.328125 
Q 45.015625 15.765625 45.015625 23.390625 
Q 45.015625 31 40.078125 35.4375 
Q 35.15625 39.890625 26.703125 39.890625 
Q 22.75 39.890625 18.8125 39.015625 
Q 14.890625 38.140625 10.796875 36.28125 
z
" id="DejaVuSans-53"/>
     </defs>
     <use xlink:href="#DejaVuSans-97"/>
     <use x="61.279297" xlink:href="#DejaVuSans-108"/>
     <use x="89.0625" xlink:href="#DejaVuSans-79"/>
     <use x="167.773438" xlink:href="#DejaVuSans-53"/>
    </g>
   </g>
   <g id="text_14">
    <!-- alN1 -->
    <g transform="translate(375.22944 212.307571)scale(0.17 -0.17)">
     <defs>
      <path d="M 9.8125 72.90625 
L 23.09375 72.90625 
L 55.421875 11.921875 
L 55.421875 72.90625 
L 64.984375 72.90625 
L 64.984375 0 
L 51.703125 0 
L 19.390625 60.984375 
L 19.390625 0 
L 9.8125 0 
z
" id="DejaVuSans-78"/>
     </defs>
     <use xlink:href="#DejaVuSans-97"/>
     <use x="61.279297" xlink:href="#DejaVuSans-108"/>
     <use x="89.0625" xlink:href="#DejaVuSans-78"/>
     <use x="163.867188" xlink:href="#DejaVuSans-49"/>
    </g>
   </g>
   <g id="text_15">
    <!-- al01 -->
    <g transform="translate(375.22944 126.352403)scale(0.17 -0.17)">
     <use xlink:href="#DejaVuSans-97"/>
     <use x="61.279297" xlink:href="#DejaVuSans-108"/>
     <use x="89.0625" xlink:href="#DejaVuSans-48"/>
     <use x="152.685547" xlink:href="#DejaVuSans-49"/>
    </g>
   </g>
   <g id="text_16">
    <!-- alN5 -->
    <g transform="translate(375.22944 40.397235)scale(0.17 -0.17)">
     <use xlink:href="#DejaVuSans-97"/>
     <use x="61.279297" xlink:href="#DejaVuSans-108"/>
     <use x="89.0625" xlink:href="#DejaVuSans-78"/>
     <use x="163.867188" xlink:href="#DejaVuSans-53"/>
    </g>
   </g>
   <g id="text_17">
    <!-- bbob-constrained f44, 5-D -->
    <g transform="translate(60.41088 38.111366)scale(0.102 -0.102)">
     <defs>
      <path d="M 48.6875 27.296875 
Q 48.6875 37.203125 44.609375 42.84375 
Q 40.53125 48.484375 33.40625 48.484375 
Q 26.265625 48.484375 22.1875 42.84375 
Q 18.109375 37.203125 18.109375 27.296875 
Q 18.109375 17.390625 22.1875 11.75 
Q 26.265625 6.109375 33.40625 6.109375 
Q 40.53125 6.109375 44.609375 11.75 
Q 48.6875 17.390625 48.6875 27.296875 
z
M 18.109375 46.390625 
Q 20.953125 51.265625 25.265625 53.625 
Q 29.59375 56 35.59375 56 
Q 45.5625 56 51.78125 48.09375 
Q 58.015625 40.1875 58.015625 27.296875 
Q 58.015625 14.40625 51.78125 6.484375 
Q 45.5625 -1.421875 35.59375 -1.421875 
Q 29.59375 -1.421875 25.265625 0.953125 
Q 20.953125 3.328125 18.109375 8.203125 
L 18.109375 0 
L 9.078125 0 
L 9.078125 75.984375 
L 18.109375 75.984375 
z
" id="DejaVuSans-98"/>
      <path d="M 19.671875 64.796875 
L 19.671875 8.109375 
L 31.59375 8.109375 
Q 46.6875 8.109375 53.6875 14.9375 
Q 60.6875 21.78125 60.6875 36.53125 
Q 60.6875 51.171875 53.6875 57.984375 
Q 46.6875 64.796875 31.59375 64.796875 
z
M 9.8125 72.90625 
L 30.078125 72.90625 
Q 51.265625 72.90625 61.171875 64.09375 
Q 71.09375 55.28125 71.09375 36.53125 
Q 71.09375 17.671875 61.125 8.828125 
Q 51.171875 0 30.078125 0 
L 9.8125 0 
z
" id="DejaVuSans-68"/>
     </defs>
     <use xlink:href="#DejaVuSans-98"/>
     <use x="63.476562" xlink:href="#DejaVuSans-98"/>
     <use x="126.953125" xlink:href="#DejaVuSans-111"/>
     <use x="188.134766" xlink:href="#DejaVuSans-98"/>
     <use x="251.611328" xlink:href="#DejaVuSans-45"/>
     <use x="287.695312" xlink:href="#DejaVuSans-99"/>
     <use x="342.675781" xlink:href="#DejaVuSans-111"/>
     <use x="403.857422" xlink:href="#DejaVuSans-110"/>
     <use x="467.236328" xlink:href="#DejaVuSans-115"/>
     <use x="519.335938" xlink:href="#DejaVuSans-116"/>
     <use x="558.544922" xlink:href="#DejaVuSans-114"/>
     <use x="599.658203" xlink:href="#DejaVuSans-97"/>
     <use x="660.9375" xlink:href="#DejaVuSans-105"/>
     <use x="688.720703" xlink:href="#DejaVuSans-110"/>
     <use x="752.099609" xlink:href="#DejaVuSans-101"/>
     <use x="813.623047" xlink:href="#DejaVuSans-100"/>
     <use x="877.099609" xlink:href="#DejaVuSans-32"/>
     <use x="908.886719" xlink:href="#DejaVuSans-102"/>
     <use x="944.091797" xlink:href="#DejaVuSans-52"/>
     <use x="1007.714844" xlink:href="#DejaVuSans-52"/>
     <use x="1071.337891" xlink:href="#DejaVuSans-44"/>
     <use x="1103.125" xlink:href="#DejaVuSans-32"/>
     <use x="1134.912109" xlink:href="#DejaVuSans-53"/>
     <use x="1198.535156" xlink:href="#DejaVuSans-45"/>
     <use x="1234.619141" xlink:href="#DejaVuSans-68"/>
    </g>
    <!-- 41 targets: 100..1e-06 -->
    <g transform="translate(60.41088 49.533135)scale(0.102 -0.102)">
     <defs>
      <path d="M 11.71875 12.40625 
L 22.015625 12.40625 
L 22.015625 0 
L 11.71875 0 
z
M 11.71875 51.703125 
L 22.015625 51.703125 
L 22.015625 39.3125 
L 11.71875 39.3125 
z
" id="DejaVuSans-58"/>
     </defs>
     <use xlink:href="#DejaVuSans-52"/>
     <use x="63.623047" xlink:href="#DejaVuSans-49"/>
     <use x="127.246094" xlink:href="#DejaVuSans-32"/>
     <use x="159.033203" xlink:href="#DejaVuSans-116"/>
     <use x="198.242188" xlink:href="#DejaVuSans-97"/>
     <use x="259.521484" xlink:href="#DejaVuSans-114"/>
     <use x="298.884766" xlink:href="#DejaVuSans-103"/>
     <use x="362.361328" xlink:href="#DejaVuSans-101"/>
     <use x="423.884766" xlink:href="#DejaVuSans-116"/>
     <use x="463.09375" xlink:href="#DejaVuSans-115"/>
     <use x="515.193359" xlink:href="#DejaVuSans-58"/>
     <use x="548.884766" xlink:href="#DejaVuSans-32"/>
     <use x="580.671875" xlink:href="#DejaVuSans-49"/>
     <use x="644.294922" xlink:href="#DejaVuSans-48"/>
     <use x="707.917969" xlink:href="#DejaVuSans-48"/>
     <use x="771.541016" xlink:href="#DejaVuSans-46"/>
     <use x="803.328125" xlink:href="#DejaVuSans-46"/>
     <use x="835.115234" xlink:href="#DejaVuSans-49"/>
     <use x="898.738281" xlink:href="#DejaVuSans-101"/>
     <use x="960.261719" xlink:href="#DejaVuSans-45"/>
     <use x="996.345703" xlink:href="#DejaVuSans-48"/>
     <use x="1059.96875" xlink:href="#DejaVuSans-54"/>
    </g>
    <!-- 15 instances -->
    <g transform="translate(60.41088 60.954904)scale(0.102 -0.102)">
     <use xlink:href="#DejaVuSans-49"/>
     <use x="63.623047" xlink:href="#DejaVuSans-53"/>
     <use x="127.246094" xlink:href="#DejaVuSans-32"/>
     <use x="159.033203" xlink:href="#DejaVuSans-105"/>
     <use x="186.816406" xlink:href="#DejaVuSans-110"/>
     <use x="250.195312" xlink:href="#DejaVuSans-115"/>
     <use x="302.294922" xlink:href="#DejaVuSans-116"/>
     <use x="341.503906" xlink:href="#DejaVuSans-97"/>
     <use x="402.783203" xlink:href="#DejaVuSans-110"/>
     <use x="466.162109" xlink:href="#DejaVuSans-99"/>
     <use x="521.142578" xlink:href="#DejaVuSans-101"/>
     <use x="582.666016" xlink:href="#DejaVuSans-115"/>
    </g>
   </g>
   <g id="text_18">
    <!-- v5z33 -->
    <g style="fill:#808080;" transform="translate(183.016656 294.151352)scale(0.1 -0.1)">
     <defs>
      <path d="M 5.515625 54.6875 
L 48.1875 54.6875 
L 48.1875 46.484375 
L 14.40625 7.171875 
L 48.1875 7.171875 
L 48.1875 0 
L 4.296875 0 
L 4.296875 8.203125 
L 38.09375 47.515625 
L 5.515625 47.515625 
z
" id="DejaVuSans-122"/>
      <path d="M 40.578125 39.3125 
Q 47.65625 37.796875 51.625 33 
Q 55.609375 28.21875 55.609375 21.1875 
Q 55.609375 10.40625 48.1875 4.484375 
Q 40.765625 -1.421875 27.09375 -1.421875 
Q 22.515625 -1.421875 17.65625 -0.515625 
Q 12.796875 0.390625 7.625 2.203125 
L 7.625 11.71875 
Q 11.71875 9.328125 16.59375 8.109375 
Q 21.484375 6.890625 26.8125 6.890625 
Q 36.078125 6.890625 40.9375 10.546875 
Q 45.796875 14.203125 45.796875 21.1875 
Q 45.796875 27.640625 41.28125 31.265625 
Q 36.765625 34.90625 28.71875 34.90625 
L 20.21875 34.90625 
L 20.21875 43.015625 
L 29.109375 43.015625 
Q 36.375 43.015625 40.234375 45.921875 
Q 44.09375 48.828125 44.09375 54.296875 
Q 44.09375 59.90625 40.109375 62.90625 
Q 36.140625 65.921875 28.71875 65.921875 
Q 24.65625 65.921875 20.015625 65.03125 
Q 15.375 64.15625 9.8125 62.3125 
L 9.8125 71.09375 
Q 15.4375 72.65625 20.34375 73.4375 
Q 25.25 74.21875 29.59375 74.21875 
Q 40.828125 74.21875 47.359375 69.109375 
Q 53.90625 64.015625 53.90625 55.328125 
Q 53.90625 49.265625 50.4375 45.09375 
Q 46.96875 40.921875 40.578125 39.3125 
z
" id="DejaVuSans-51"/>
     </defs>
     <use xlink:href="#DejaVuSans-118"/>
     <use x="59.179688" xlink:href="#DejaVuSans-53"/>
     <use x="122.802734" xlink:href="#DejaVuSans-122"/>
     <use x="175.292969" xlink:href="#DejaVuSans-51"/>
     <use x="238.916016" xlink:href="#DejaVuSans-51"/>
    </g>
   </g>
   <g id="text_19">
    <!-- 44 Separable Rastrigin, 2 constraints -->
    <g transform="translate(12.765875 21.648)scale(0.2 -0.2)">
     <defs>
      <path d="M 53.515625 70.515625 
L 53.515625 60.890625 
Q 47.90625 63.578125 42.921875 64.890625 
Q 37.9375 66.21875 33.296875 66.21875 
Q 25.25 66.21875 20.875 63.09375 
Q 16.5 59.96875 16.5 54.203125 
Q 16.5 49.359375 19.40625 46.890625 
Q 22.3125 44.4375 30.421875 42.921875 
L 36.375 41.703125 
Q 47.40625 39.59375 52.65625 34.296875 
Q 57.90625 29 57.90625 20.125 
Q 57.90625 9.515625 50.796875 4.046875 
Q 43.703125 -1.421875 29.984375 -1.421875 
Q 24.8125 -1.421875 18.96875 -0.25 
Q 13.140625 0.921875 6.890625 3.21875 
L 6.890625 13.375 
Q 12.890625 10.015625 18.65625 8.296875 
Q 24.421875 6.59375 29.984375 6.59375 
Q 38.421875 6.59375 43.015625 9.90625 
Q 47.609375 13.234375 47.609375 19.390625 
Q 47.609375 24.75 44.3125 27.78125 
Q 41.015625 30.8125 33.5 32.328125 
L 27.484375 33.5 
Q 16.453125 35.6875 11.515625 40.375 
Q 6.59375 45.0625 6.59375 53.421875 
Q 6.59375 63.09375 13.40625 68.65625 
Q 20.21875 74.21875 32.171875 74.21875 
Q 37.3125 74.21875 42.625 73.28125 
Q 47.953125 72.359375 53.515625 70.515625 
z
" id="DejaVuSans-83"/>
      <path d="M 44.390625 34.1875 
Q 47.5625 33.109375 50.5625 29.59375 
Q 53.5625 26.078125 56.59375 19.921875 
L 66.609375 0 
L 56 0 
L 46.6875 18.703125 
Q 43.0625 26.03125 39.671875 28.421875 
Q 36.28125 30.8125 30.421875 30.8125 
L 19.671875 30.8125 
L 19.671875 0 
L 9.8125 0 
L 9.8125 72.90625 
L 32.078125 72.90625 
Q 44.578125 72.90625 50.734375 67.671875 
Q 56.890625 62.453125 56.890625 51.90625 
Q 56.890625 45.015625 53.6875 40.46875 
Q 50.484375 35.9375 44.390625 34.1875 
z
M 19.671875 64.796875 
L 19.671875 38.921875 
L 32.078125 38.921875 
Q 39.203125 38.921875 42.84375 42.21875 
Q 46.484375 45.515625 46.484375 51.90625 
Q 46.484375 58.296875 42.84375 61.546875 
Q 39.203125 64.796875 32.078125 64.796875 
z
" id="DejaVuSans-82"/>
     </defs>
     <use xlink:href="#DejaVuSans-52"/>
     <use x="63.623047" xlink:href="#DejaVuSans-52"/>
     <use x="127.246094" xlink:href="#DejaVuSans-32"/>
     <use x="159.033203" xlink:href="#DejaVuSans-83"/>
     <use x="222.509766" xlink:href="#DejaVuSans-101"/>
     <use x="284.033203" xlink:href="#DejaVuSans-112"/>
     <use x="347.509766" xlink:href="#DejaVuSans-97"/>
     <use x="408.789062" xlink:href="#DejaVuSans-114"/>
     <use x="449.902344" xlink:href="#DejaVuSans-97"/>
     <use x="511.181641" xlink:href="#DejaVuSans-98"/>
     <use x="574.658203" xlink:href="#DejaVuSans-108"/>
     <use x="602.441406" xlink:href="#DejaVuSans-101"/>
     <use x="663.964844" xlink:href="#DejaVuSans-32"/>
     <use x="695.751953" xlink:href="#DejaVuSans-82"/>
     <use x="762.984375" xlink:href="#DejaVuSans-97"/>
     <use x="824.263672" xlink:href="#DejaVuSans-115"/>
     <use x="876.363281" xlink:href="#DejaVuSans-116"/>
     <use x="915.572266" xlink:href="#DejaVuSans-114"/>
     <use x="956.685547" xlink:href="#DejaVuSans-105"/>
     <use x="984.46875" xlink:href="#DejaVuSans-103"/>
     <use x="1047.945312" xlink:href="#DejaVuSans-105"/>
     <use x="1075.728516" xlink:href="#DejaVuSans-110"/>
     <use x="1139.107422" xlink:href="#DejaVuSans-44"/>
     <use x="1170.894531" xlink:href="#DejaVuSans-32"/>
     <use x="1202.681641" xlink:href="#DejaVuSans-50"/>
     <use x="1266.304688" xlink:href="#DejaVuSans-32"/>
     <use x="1298.091797" xlink:href="#DejaVuSans-99"/>
     <use x="1353.072266" xlink:href="#DejaVuSans-111"/>
     <use x="1414.253906" xlink:href="#DejaVuSans-110"/>
     <use x="1477.632812" xlink:href="#DejaVuSans-115"/>
     <use x="1529.732422" xlink:href="#DejaVuSans-116"/>
     <use x="1568.941406" xlink:href="#DejaVuSans-114"/>
     <use x="1610.054688" xlink:href="#DejaVuSans-97"/>
     <use x="1671.333984" xlink:href="#DejaVuSans-105"/>
     <use x="1699.117188" xlink:href="#DejaVuSans-110"/>
     <use x="1762.496094" xlink:href="#DejaVuSans-116"/>
     <use x="1801.705078" xlink:href="#DejaVuSans-115"/>
    </g>
   </g>
  </g>
 </g>
 <defs>
  <clipPath id="p9653bca6c4">
   <rect height="271.296" width="281.088" x="57.6" y="27.648"/>
  </clipPath>
 </defs>
</svg>
