<?xml version="1.0" encoding="utf-8" standalone="no"?>
<!DOCTYPE svg PUBLIC "-//W3C//DTD SVG 1.1//EN"
  "http://www.w3.org/Graphics/SVG/1.1/DTD/svg11.dtd">
<!-- Created with matplotlib (https://matplotlib.org/) -->
<svg height="345.6pt" version="1.1" viewBox="0 0 460.8 345.6" width="460.8pt" xmlns="http://www.w3.org/2000/svg" xmlns:xlink="http://www.w3.org/1999/xlink">
 <metadata>
  <rdf:RDF xmlns:cc="http://creativecommons.org/ns#" xmlns:dc="http://purl.org/dc/elements/1.1/" xmlns:rdf="http://www.w3.org/1999/02/22-rdf-syntax-ns#">
   <cc:Work>
    <dc:type rdf:resource="http://purl.org/dc/dcmitype/StillImage"/>
    <dc:date>2021-06-24T15:49:12.461592</dc:date>
    <dc:format>image/svg+xml</dc:format>
    <dc:creator>
     <cc:Agent>
      <dc:title>Matplotlib v3.3.3, https://matplotlib.org/</dc:title>
     </cc:Agent>
    </dc:creator>
   </cc:Work>
  </rdf:RDF>
 </metadata>
 <defs>
  <style type="text/css">*{stroke-linecap:butt;stroke-linejoin:round;}</style>
 </defs>
 <g id="figure_1">
  <g id="patch_1">
   <path d="M 0 345.6 
L 460.8 345.6 
L 460.8 0 
L 0 0 
z
" style="fill:#ffffff;"/>
  </g>
  <g id="axes_1">
   <g id="patch_2">
    <path d="M 57.6 298.944 
L 338.688 298.944 
L 338.688 27.648 
L 57.6 27.648 
z
" style="fill:#ffffff;"/>
   </g>
   <g id="matplotlib.axis_1">
    <g id="xtick_1">
     <g id="line2d_1">
      <path clip-path="url(#p9d7474ae27)" d="M 57.6 298.944 
L 57.6 27.648 
" style="fill:none;stroke:#b0b0b0;stroke-linecap:square;stroke-width:0.8;"/>
     </g>
     <g id="line2d_2">
      <defs>
       <path d="M 0 0 
L 0 3.5 
" id="mcd649b9e3c" style="stroke:#000000;stroke-width:0.8;"/>
      </defs>
      <g>
       <use style="stroke:#000000;stroke-width:0.8;" x="57.6" xlink:href="#mcd649b9e3c" y="298.944"/>
      </g>
     </g>
     <g id="text_1">
      <!-- 0 -->
      <g transform="translate(51.2375 321.140875)scale(0.2 -0.2)">
       <defs>
        <path d="M 31.78125 66.40625 
Q 24.171875 66.40625 20.328125 58.90625 
Q 16.5 51.421875 16.5 36.375 
Q 16.5 21.390625 20.328125 13.890625 
Q 24.171875 6.390625 31.78125 6.390625 
Q 39.453125 6.390625 43.28125 13.890625 
Q 47.125 21.390625 47.125 36.375 
Q 47.125 51.421875 43.28125 58.90625 
Q 39.453125 66.40625 31.78125 66.40625 
z
M 31.78125 74.21875 
Q 44.046875 74.21875 50.515625 64.515625 
Q 56.984375 54.828125 56.984375 36.375 
Q 56.984375 17.96875 50.515625 8.265625 
Q 44.046875 -1.421875 31.78125 -1.421875 
Q 19.53125 -1.421875 13.0625 8.265625 
Q 6.59375 17.96875 6.59375 36.375 
Q 6.59375 54.828125 13.0625 64.515625 
Q 19.53125 74.21875 31.78125 74.21875 
z
" id="DejaVuSans-48"/>
       </defs>
       <use xlink:href="#DejaVuSans-48"/>
      </g>
     </g>
    </g>
    <g id="xtick_2">
     <g id="line2d_3">
      <path clip-path="url(#p9d7474ae27)" d="M 137.910857 298.944 
L 137.910857 27.648 
" style="fill:none;stroke:#b0b0b0;stroke-linecap:square;stroke-width:0.8;"/>
     </g>
     <g id="line2d_4">
      <g>
       <use style="stroke:#000000;stroke-width:0.8;" x="137.910857" xlink:href="#mcd649b9e3c" y="298.944"/>
      </g>
     </g>
     <g id="text_2">
      <!-- 2 -->
      <g transform="translate(131.548357 321.140875)scale(0.2 -0.2)">
       <defs>
        <path d="M 19.1875 8.296875 
L 53.609375 8.296875 
L 53.609375 0 
L 7.328125 0 
L 7.328125 8.296875 
Q 12.9375 14.109375 22.625 23.890625 
Q 32.328125 33.6875 34.8125 36.53125 
Q 39.546875 41.84375 41.421875 45.53125 
Q 43.3125 49.21875 43.3125 52.78125 
Q 43.3125 58.59375 39.234375 62.25 
Q 35.15625 65.921875 28.609375 65.921875 
Q 23.96875 65.921875 18.8125 64.3125 
Q 13.671875 62.703125 7.8125 59.421875 
L 7.8125 69.390625 
Q 13.765625 71.78125 18.9375 73 
Q 24.125 74.21875 28.421875 74.21875 
Q 39.75 74.21875 46.484375 68.546875 
Q 53.21875 62.890625 53.21875 53.421875 
Q 53.21875 48.921875 51.53125 44.890625 
Q 49.859375 40.875 45.40625 35.40625 
Q 44.1875 33.984375 37.640625 27.21875 
Q 31.109375 20.453125 19.1875 8.296875 
z
" id="DejaVuSans-50"/>
       </defs>
       <use xlink:href="#DejaVuSans-50"/>
      </g>
     </g>
    </g>
    <g id="xtick_3">
     <g id="line2d_5">
      <path clip-path="url(#p9d7474ae27)" d="M 218.221714 298.944 
L 218.221714 27.648 
" style="fill:none;stroke:#b0b0b0;stroke-linecap:square;stroke-width:0.8;"/>
     </g>
     <g id="line2d_6">
      <g>
       <use style="stroke:#000000;stroke-width:0.8;" x="218.221714" xlink:href="#mcd649b9e3c" y="298.944"/>
      </g>
     </g>
     <g id="text_3">
      <!-- 4 -->
      <g transform="translate(211.859214 321.140875)scale(0.2 -0.2)">
       <defs>
        <path d="M 37.796875 64.3125 
L 12.890625 25.390625 
L 37.796875 25.390625 
z
M 35.203125 72.90625 
L 47.609375 72.90625 
L 47.609375 25.390625 
L 58.015625 25.390625 
L 58.015625 17.1875 
L 47.609375 17.1875 
L 47.609375 0 
L 37.796875 0 
L 37.796875 17.1875 
L 4.890625 17.1875 
L 4.890625 26.703125 
z
" id="DejaVuSans-52"/>
       </defs>
       <use xlink:href="#DejaVuSans-52"/>
      </g>
     </g>
    </g>
    <g id="xtick_4">
     <g id="line2d_7">
      <path clip-path="url(#p9d7474ae27)" d="M 298.532571 298.944 
L 298.532571 27.648 
" style="fill:none;stroke:#b0b0b0;stroke-linecap:square;stroke-width:0.8;"/>
     </g>
     <g id="line2d_8">
      <g>
       <use style="stroke:#000000;stroke-width:0.8;" x="298.532571" xlink:href="#mcd649b9e3c" y="298.944"/>
      </g>
     </g>
     <g id="text_4">
      <!-- 6 -->
      <g transform="translate(292.170071 321.140875)scale(0.2 -0.2)">
       <defs>
        <path d="M 33.015625 40.375 
Q 26.375 40.375 22.484375 35.828125 
Q 18.609375 31.296875 18.609375 23.390625 
Q 18.609375 15.53125 22.484375 10.953125 
Q 26.375 6.390625 33.015625 6.390625 
Q 39.65625 6.390625 43.53125 10.953125 
Q 47.40625 15.53125 47.40625 23.390625 
Q 47.40625 31.296875 43.53125 35.828125 
Q 39.65625 40.375 33.015625 40.375 
z
M 52.59375 71.296875 
L 52.59375 62.3125 
Q 48.875 64.0625 45.09375 64.984375 
Q 41.3125 65.921875 37.59375 65.921875 
Q 27.828125 65.921875 22.671875 59.328125 
Q 17.53125 52.734375 16.796875 39.40625 
Q 19.671875 43.65625 24.015625 45.921875 
Q 28.375 48.1875 33.59375 48.1875 
Q 44.578125 48.1875 50.953125 41.515625 
Q 57.328125 34.859375 57.328125 23.390625 
Q 57.328125 12.15625 50.6875 5.359375 
Q 44.046875 -1.421875 33.015625 -1.421875 
Q 20.359375 -1.421875 13.671875 8.265625 
Q 6.984375 17.96875 6.984375 36.375 
Q 6.984375 53.65625 15.1875 63.9375 
Q 23.390625 74.21875 37.203125 74.21875 
Q 40.921875 74.21875 44.703125 73.484375 
Q 48.484375 72.75 52.59375 71.296875 
z
" id="DejaVuSans-54"/>
       </defs>
       <use xlink:href="#DejaVuSans-54"/>
      </g>
     </g>
    </g>
    <g id="xtick_5">
     <g id="line2d_9">
      <path clip-path="url(#p9d7474ae27)" d="M 97.755429 298.944 
L 97.755429 27.648 
" style="fill:none;stroke:#b0b0b0;stroke-linecap:square;stroke-width:0.8;"/>
     </g>
     <g id="line2d_10">
      <defs>
       <path d="M 0 0 
L 0 2 
" id="md380ec187a" style="stroke:#000000;stroke-width:0.6;"/>
      </defs>
      <g>
       <use style="stroke:#000000;stroke-width:0.6;" x="97.755429" xlink:href="#md380ec187a" y="298.944"/>
      </g>
     </g>
    </g>
    <g id="xtick_6">
     <g id="line2d_11">
      <path clip-path="url(#p9d7474ae27)" d="M 178.066286 298.944 
L 178.066286 27.648 
" style="fill:none;stroke:#b0b0b0;stroke-linecap:square;stroke-width:0.8;"/>
     </g>
     <g id="line2d_12">
      <g>
       <use style="stroke:#000000;stroke-width:0.6;" x="178.066286" xlink:href="#md380ec187a" y="298.944"/>
      </g>
     </g>
    </g>
    <g id="xtick_7">
     <g id="line2d_13">
      <path clip-path="url(#p9d7474ae27)" d="M 258.377143 298.944 
L 258.377143 27.648 
" style="fill:none;stroke:#b0b0b0;stroke-linecap:square;stroke-width:0.8;"/>
     </g>
     <g id="line2d_14">
      <g>
       <use style="stroke:#000000;stroke-width:0.6;" x="258.377143" xlink:href="#md380ec187a" y="298.944"/>
      </g>
     </g>
    </g>
    <g id="xtick_8">
     <g id="line2d_15">
      <path clip-path="url(#p9d7474ae27)" d="M 338.688 298.944 
L 338.688 27.648 
" style="fill:none;stroke:#b0b0b0;stroke-linecap:square;stroke-width:0.8;"/>
     </g>
     <g id="line2d_16">
      <g>
       <use style="stroke:#000000;stroke-width:0.6;" x="338.688" xlink:href="#md380ec187a" y="298.944"/>
      </g>
     </g>
    </g>
    <g id="text_5">
     <!-- log10(# (f+g)-evals / dimension) -->
     <g transform="translate(58.145016 342.217594)scale(0.17 -0.17)">
      <defs>
       <path d="M 9.421875 75.984375 
L 18.40625 75.984375 
L 18.40625 0 
L 9.421875 0 
z
" id="DejaVuSans-108"/>
       <path d="M 30.609375 48.390625 
Q 23.390625 48.390625 19.1875 42.75 
Q 14.984375 37.109375 14.984375 27.296875 
Q 14.984375 17.484375 19.15625 11.84375 
Q 23.34375 6.203125 30.609375 6.203125 
Q 37.796875 6.203125 41.984375 11.859375 
Q 46.1875 17.53125 46.1875 27.296875 
Q 46.1875 37.015625 41.984375 42.703125 
Q 37.796875 48.390625 30.609375 48.390625 
z
M 30.609375 56 
Q 42.328125 56 49.015625 48.375 
Q 55.71875 40.765625 55.71875 27.296875 
Q 55.71875 13.875 49.015625 6.21875 
Q 42.328125 -1.421875 30.609375 -1.421875 
Q 18.84375 -1.421875 12.171875 6.21875 
Q 5.515625 13.875 5.515625 27.296875 
Q 5.515625 40.765625 12.171875 48.375 
Q 18.84375 56 30.609375 56 
z
" id="DejaVuSans-111"/>
       <path d="M 45.40625 27.984375 
Q 45.40625 37.75 41.375 43.109375 
Q 37.359375 48.484375 30.078125 48.484375 
Q 22.859375 48.484375 18.828125 43.109375 
Q 14.796875 37.75 14.796875 27.984375 
Q 14.796875 18.265625 18.828125 12.890625 
Q 22.859375 7.515625 30.078125 7.515625 
Q 37.359375 7.515625 41.375 12.890625 
Q 45.40625 18.265625 45.40625 27.984375 
z
M 54.390625 6.78125 
Q 54.390625 -7.171875 48.1875 -13.984375 
Q 42 -20.796875 29.203125 -20.796875 
Q 24.46875 -20.796875 20.265625 -20.09375 
Q 16.0625 -19.390625 12.109375 -17.921875 
L 12.109375 -9.1875 
Q 16.0625 -11.328125 19.921875 -12.34375 
Q 23.78125 -13.375 27.78125 -13.375 
Q 36.625 -13.375 41.015625 -8.765625 
Q 45.40625 -4.15625 45.40625 5.171875 
L 45.40625 9.625 
Q 42.625 4.78125 38.28125 2.390625 
Q 33.9375 0 27.875 0 
Q 17.828125 0 11.671875 7.65625 
Q 5.515625 15.328125 5.515625 27.984375 
Q 5.515625 40.671875 11.671875 48.328125 
Q 17.828125 56 27.875 56 
Q 33.9375 56 38.28125 53.609375 
Q 42.625 51.21875 45.40625 46.390625 
L 45.40625 54.6875 
L 54.390625 54.6875 
z
" id="DejaVuSans-103"/>
       <path d="M 12.40625 8.296875 
L 28.515625 8.296875 
L 28.515625 63.921875 
L 10.984375 60.40625 
L 10.984375 69.390625 
L 28.421875 72.90625 
L 38.28125 72.90625 
L 38.28125 8.296875 
L 54.390625 8.296875 
L 54.390625 0 
L 12.40625 0 
z
" id="DejaVuSans-49"/>
       <path d="M 31 75.875 
Q 24.46875 64.65625 21.28125 53.65625 
Q 18.109375 42.671875 18.109375 31.390625 
Q 18.109375 20.125 21.3125 9.0625 
Q 24.515625 -2 31 -13.1875 
L 23.1875 -13.1875 
Q 15.875 -1.703125 12.234375 9.375 
Q 8.59375 20.453125 8.59375 31.390625 
Q 8.59375 42.28125 12.203125 53.3125 
Q 15.828125 64.359375 23.1875 75.875 
z
" id="DejaVuSans-40"/>
       <path d="M 51.125 44 
L 36.921875 44 
L 32.8125 27.6875 
L 47.125 27.6875 
z
M 43.796875 71.78125 
L 38.71875 51.515625 
L 52.984375 51.515625 
L 58.109375 71.78125 
L 65.921875 71.78125 
L 60.890625 51.515625 
L 76.125 51.515625 
L 76.125 44 
L 58.984375 44 
L 54.984375 27.6875 
L 70.515625 27.6875 
L 70.515625 20.21875 
L 53.078125 20.21875 
L 48 0 
L 40.1875 0 
L 45.21875 20.21875 
L 30.90625 20.21875 
L 25.875 0 
L 18.015625 0 
L 23.09375 20.21875 
L 7.71875 20.21875 
L 7.71875 27.6875 
L 24.90625 27.6875 
L 29 44 
L 13.28125 44 
L 13.28125 51.515625 
L 30.90625 51.515625 
L 35.890625 71.78125 
z
" id="DejaVuSans-35"/>
       <path id="DejaVuSans-32"/>
       <path d="M 37.109375 75.984375 
L 37.109375 68.5 
L 28.515625 68.5 
Q 23.6875 68.5 21.796875 66.546875 
Q 19.921875 64.59375 19.921875 59.515625 
L 19.921875 54.6875 
L 34.71875 54.6875 
L 34.71875 47.703125 
L 19.921875 47.703125 
L 19.921875 0 
L 10.890625 0 
L 10.890625 47.703125 
L 2.296875 47.703125 
L 2.296875 54.6875 
L 10.890625 54.6875 
L 10.890625 58.5 
Q 10.890625 67.625 15.140625 71.796875 
Q 19.390625 75.984375 28.609375 75.984375 
z
" id="DejaVuSans-102"/>
       <path d="M 46 62.703125 
L 46 35.5 
L 73.1875 35.5 
L 73.1875 27.203125 
L 46 27.203125 
L 46 0 
L 37.796875 0 
L 37.796875 27.203125 
L 10.59375 27.203125 
L 10.59375 35.5 
L 37.796875 35.5 
L 37.796875 62.703125 
z
" id="DejaVuSans-43"/>
       <path d="M 8.015625 75.875 
L 15.828125 75.875 
Q 23.140625 64.359375 26.78125 53.3125 
Q 30.421875 42.28125 30.421875 31.390625 
Q 30.421875 20.453125 26.78125 9.375 
Q 23.140625 -1.703125 15.828125 -13.1875 
L 8.015625 -13.1875 
Q 14.5 -2 17.703125 9.0625 
Q 20.90625 20.125 20.90625 31.390625 
Q 20.90625 42.671875 17.703125 53.65625 
Q 14.5 64.65625 8.015625 75.875 
z
" id="DejaVuSans-41"/>
       <path d="M 4.890625 31.390625 
L 31.203125 31.390625 
L 31.203125 23.390625 
L 4.890625 23.390625 
z
" id="DejaVuSans-45"/>
       <path d="M 56.203125 29.59375 
L 56.203125 25.203125 
L 14.890625 25.203125 
Q 15.484375 15.921875 20.484375 11.0625 
Q 25.484375 6.203125 34.421875 6.203125 
Q 39.59375 6.203125 44.453125 7.46875 
Q 49.3125 8.734375 54.109375 11.28125 
L 54.109375 2.78125 
Q 49.265625 0.734375 44.1875 -0.34375 
Q 39.109375 -1.421875 33.890625 -1.421875 
Q 20.796875 -1.421875 13.15625 6.1875 
Q 5.515625 13.8125 5.515625 26.8125 
Q 5.515625 40.234375 12.765625 48.109375 
Q 20.015625 56 32.328125 56 
Q 43.359375 56 49.78125 48.890625 
Q 56.203125 41.796875 56.203125 29.59375 
z
M 47.21875 32.234375 
Q 47.125 39.59375 43.09375 43.984375 
Q 39.0625 48.390625 32.421875 48.390625 
Q 24.90625 48.390625 20.390625 44.140625 
Q 15.875 39.890625 15.1875 32.171875 
z
" id="DejaVuSans-101"/>
       <path d="M 2.984375 54.6875 
L 12.5 54.6875 
L 29.59375 8.796875 
L 46.6875 54.6875 
L 56.203125 54.6875 
L 35.6875 0 
L 23.484375 0 
z
" id="DejaVuSans-118"/>
       <path d="M 34.28125 27.484375 
Q 23.390625 27.484375 19.1875 25 
Q 14.984375 22.515625 14.984375 16.5 
Q 14.984375 11.71875 18.140625 8.90625 
Q 21.296875 6.109375 26.703125 6.109375 
Q 34.1875 6.109375 38.703125 11.40625 
Q 43.21875 16.703125 43.21875 25.484375 
L 43.21875 27.484375 
z
M 52.203125 31.203125 
L 52.203125 0 
L 43.21875 0 
L 43.21875 8.296875 
Q 40.140625 3.328125 35.546875 0.953125 
Q 30.953125 -1.421875 24.3125 -1.421875 
Q 15.921875 -1.421875 10.953125 3.296875 
Q 6 8.015625 6 15.921875 
Q 6 25.140625 12.171875 29.828125 
Q 18.359375 34.515625 30.609375 34.515625 
L 43.21875 34.515625 
L 43.21875 35.40625 
Q 43.21875 41.609375 39.140625 45 
Q 35.0625 48.390625 27.6875 48.390625 
Q 23 48.390625 18.546875 47.265625 
Q 14.109375 46.140625 10.015625 43.890625 
L 10.015625 52.203125 
Q 14.9375 54.109375 19.578125 55.046875 
Q 24.21875 56 28.609375 56 
Q 40.484375 56 46.34375 49.84375 
Q 52.203125 43.703125 52.203125 31.203125 
z
" id="DejaVuSans-97"/>
       <path d="M 44.28125 53.078125 
L 44.28125 44.578125 
Q 40.484375 46.53125 36.375 47.5 
Q 32.28125 48.484375 27.875 48.484375 
Q 21.1875 48.484375 17.84375 46.4375 
Q 14.5 44.390625 14.5 40.28125 
Q 14.5 37.15625 16.890625 35.375 
Q 19.28125 33.59375 26.515625 31.984375 
L 29.59375 31.296875 
Q 39.15625 29.25 43.1875 25.515625 
Q 47.21875 21.78125 47.21875 15.09375 
Q 47.21875 7.46875 41.1875 3.015625 
Q 35.15625 -1.421875 24.609375 -1.421875 
Q 20.21875 -1.421875 15.453125 -0.5625 
Q 10.6875 0.296875 5.421875 2 
L 5.421875 11.28125 
Q 10.40625 8.6875 15.234375 7.390625 
Q 20.0625 6.109375 24.8125 6.109375 
Q 31.15625 6.109375 34.5625 8.28125 
Q 37.984375 10.453125 37.984375 14.40625 
Q 37.984375 18.0625 35.515625 20.015625 
Q 33.0625 21.96875 24.703125 23.78125 
L 21.578125 24.515625 
Q 13.234375 26.265625 9.515625 29.90625 
Q 5.8125 33.546875 5.8125 39.890625 
Q 5.8125 47.609375 11.28125 51.796875 
Q 16.75 56 26.8125 56 
Q 31.78125 56 36.171875 55.265625 
Q 40.578125 54.546875 44.28125 53.078125 
z
" id="DejaVuSans-115"/>
       <path d="M 25.390625 72.90625 
L 33.6875 72.90625 
L 8.296875 -9.28125 
L 0 -9.28125 
z
" id="DejaVuSans-47"/>
       <path d="M 45.40625 46.390625 
L 45.40625 75.984375 
L 54.390625 75.984375 
L 54.390625 0 
L 45.40625 0 
L 45.40625 8.203125 
Q 42.578125 3.328125 38.25 0.953125 
Q 33.9375 -1.421875 27.875 -1.421875 
Q 17.96875 -1.421875 11.734375 6.484375 
Q 5.515625 14.40625 5.515625 27.296875 
Q 5.515625 40.1875 11.734375 48.09375 
Q 17.96875 56 27.875 56 
Q 33.9375 56 38.25 53.625 
Q 42.578125 51.265625 45.40625 46.390625 
z
M 14.796875 27.296875 
Q 14.796875 17.390625 18.875 11.75 
Q 22.953125 6.109375 30.078125 6.109375 
Q 37.203125 6.109375 41.296875 11.75 
Q 45.40625 17.390625 45.40625 27.296875 
Q 45.40625 37.203125 41.296875 42.84375 
Q 37.203125 48.484375 30.078125 48.484375 
Q 22.953125 48.484375 18.875 42.84375 
Q 14.796875 37.203125 14.796875 27.296875 
z
" id="DejaVuSans-100"/>
       <path d="M 9.421875 54.6875 
L 18.40625 54.6875 
L 18.40625 0 
L 9.421875 0 
z
M 9.421875 75.984375 
L 18.40625 75.984375 
L 18.40625 64.59375 
L 9.421875 64.59375 
z
" id="DejaVuSans-105"/>
       <path d="M 52 44.1875 
Q 55.375 50.25 60.0625 53.125 
Q 64.75 56 71.09375 56 
Q 79.640625 56 84.28125 50.015625 
Q 88.921875 44.046875 88.921875 33.015625 
L 88.921875 0 
L 79.890625 0 
L 79.890625 32.71875 
Q 79.890625 40.578125 77.09375 44.375 
Q 74.3125 48.1875 68.609375 48.1875 
Q 61.625 48.1875 57.5625 43.546875 
Q 53.515625 38.921875 53.515625 30.90625 
L 53.515625 0 
L 44.484375 0 
L 44.484375 32.71875 
Q 44.484375 40.625 41.703125 44.40625 
Q 38.921875 48.1875 33.109375 48.1875 
Q 26.21875 48.1875 22.15625 43.53125 
Q 18.109375 38.875 18.109375 30.90625 
L 18.109375 0 
L 9.078125 0 
L 9.078125 54.6875 
L 18.109375 54.6875 
L 18.109375 46.1875 
Q 21.1875 51.21875 25.484375 53.609375 
Q 29.78125 56 35.6875 56 
Q 41.65625 56 45.828125 52.96875 
Q 50 49.953125 52 44.1875 
z
" id="DejaVuSans-109"/>
       <path d="M 54.890625 33.015625 
L 54.890625 0 
L 45.90625 0 
L 45.90625 32.71875 
Q 45.90625 40.484375 42.875 44.328125 
Q 39.84375 48.1875 33.796875 48.1875 
Q 26.515625 48.1875 22.3125 43.546875 
Q 18.109375 38.921875 18.109375 30.90625 
L 18.109375 0 
L 9.078125 0 
L 9.078125 54.6875 
L 18.109375 54.6875 
L 18.109375 46.1875 
Q 21.34375 51.125 25.703125 53.5625 
Q 30.078125 56 35.796875 56 
Q 45.21875 56 50.046875 50.171875 
Q 54.890625 44.34375 54.890625 33.015625 
z
" id="DejaVuSans-110"/>
      </defs>
      <use xlink:href="#DejaVuSans-108"/>
      <use x="27.783203" xlink:href="#DejaVuSans-111"/>
      <use x="88.964844" xlink:href="#DejaVuSans-103"/>
      <use x="152.441406" xlink:href="#DejaVuSans-49"/>
      <use x="216.064453" xlink:href="#DejaVuSans-48"/>
      <use x="279.6875" xlink:href="#DejaVuSans-40"/>
      <use x="318.701172" xlink:href="#DejaVuSans-35"/>
      <use x="402.490234" xlink:href="#DejaVuSans-32"/>
      <use x="434.277344" xlink:href="#DejaVuSans-40"/>
      <use x="473.291016" xlink:href="#DejaVuSans-102"/>
      <use x="508.496094" xlink:href="#DejaVuSans-43"/>
      <use x="592.285156" xlink:href="#DejaVuSans-103"/>
      <use x="655.761719" xlink:href="#DejaVuSans-41"/>
      <use x="694.775391" xlink:href="#DejaVuSans-45"/>
      <use x="730.859375" xlink:href="#DejaVuSans-101"/>
      <use x="792.382812" xlink:href="#DejaVuSans-118"/>
      <use x="851.5625" xlink:href="#DejaVuSans-97"/>
      <use x="912.841797" xlink:href="#DejaVuSans-108"/>
      <use x="940.625" xlink:href="#DejaVuSans-115"/>
      <use x="992.724609" xlink:href="#DejaVuSans-32"/>
      <use x="1024.511719" xlink:href="#DejaVuSans-47"/>
      <use x="1058.203125" xlink:href="#DejaVuSans-32"/>
      <use x="1089.990234" xlink:href="#DejaVuSans-100"/>
      <use x="1153.466797" xlink:href="#DejaVuSans-105"/>
      <use x="1181.25" xlink:href="#DejaVuSans-109"/>
      <use x="1278.662109" xlink:href="#DejaVuSans-101"/>
      <use x="1340.185547" xlink:href="#DejaVuSans-110"/>
      <use x="1403.564453" xlink:href="#DejaVuSans-115"/>
      <use x="1455.664062" xlink:href="#DejaVuSans-105"/>
      <use x="1483.447266" xlink:href="#DejaVuSans-111"/>
      <use x="1544.628906" xlink:href="#DejaVuSans-110"/>
      <use x="1608.007812" xlink:href="#DejaVuSans-41"/>
     </g>
    </g>
   </g>
   <g id="matplotlib.axis_2">
    <g id="ytick_1">
     <g id="line2d_17">
      <path clip-path="url(#p9d7474ae27)" d="M 57.6 298.944 
L 338.688 298.944 
" style="fill:none;stroke:#b0b0b0;stroke-linecap:square;stroke-width:0.8;"/>
     </g>
     <g id="line2d_18">
      <defs>
       <path d="M 0 0 
L -3.5 0 
" id="mb3600ca6ec" style="stroke:#000000;stroke-width:0.8;"/>
      </defs>
      <g>
       <use style="stroke:#000000;stroke-width:0.8;" x="57.6" xlink:href="#mb3600ca6ec" y="298.944"/>
      </g>
     </g>
     <g id="text_6">
      <!-- 0.0 -->
      <g transform="translate(25.155 305.02275)scale(0.16 -0.16)">
       <defs>
        <path d="M 10.6875 12.40625 
L 21 12.40625 
L 21 0 
L 10.6875 0 
z
" id="DejaVuSans-46"/>
       </defs>
       <use xlink:href="#DejaVuSans-48"/>
       <use x="63.623047" xlink:href="#DejaVuSans-46"/>
       <use x="95.410156" xlink:href="#DejaVuSans-48"/>
      </g>
     </g>
    </g>
    <g id="ytick_2">
     <g id="line2d_19">
      <path clip-path="url(#p9d7474ae27)" d="M 57.6 245.22202 
L 338.688 245.22202 
" style="fill:none;stroke:#b0b0b0;stroke-linecap:square;stroke-width:0.8;"/>
     </g>
     <g id="line2d_20">
      <g>
       <use style="stroke:#000000;stroke-width:0.8;" x="57.6" xlink:href="#mb3600ca6ec" y="245.22202"/>
      </g>
     </g>
     <g id="text_7">
      <!-- 0.2 -->
      <g transform="translate(25.155 251.30077)scale(0.16 -0.16)">
       <use xlink:href="#DejaVuSans-48"/>
       <use x="63.623047" xlink:href="#DejaVuSans-46"/>
       <use x="95.410156" xlink:href="#DejaVuSans-50"/>
      </g>
     </g>
    </g>
    <g id="ytick_3">
     <g id="line2d_21">
      <path clip-path="url(#p9d7474ae27)" d="M 57.6 191.50004 
L 338.688 191.50004 
" style="fill:none;stroke:#b0b0b0;stroke-linecap:square;stroke-width:0.8;"/>
     </g>
     <g id="line2d_22">
      <g>
       <use style="stroke:#000000;stroke-width:0.8;" x="57.6" xlink:href="#mb3600ca6ec" y="191.50004"/>
      </g>
     </g>
     <g id="text_8">
      <!-- 0.4 -->
      <g transform="translate(25.155 197.57879)scale(0.16 -0.16)">
       <use xlink:href="#DejaVuSans-48"/>
       <use x="63.623047" xlink:href="#DejaVuSans-46"/>
       <use x="95.410156" xlink:href="#DejaVuSans-52"/>
      </g>
     </g>
    </g>
    <g id="ytick_4">
     <g id="line2d_23">
      <path clip-path="url(#p9d7474ae27)" d="M 57.6 137.778059 
L 338.688 137.778059 
" style="fill:none;stroke:#b0b0b0;stroke-linecap:square;stroke-width:0.8;"/>
     </g>
     <g id="line2d_24">
      <g>
       <use style="stroke:#000000;stroke-width:0.8;" x="57.6" xlink:href="#mb3600ca6ec" y="137.778059"/>
      </g>
     </g>
     <g id="text_9">
      <!-- 0.6 -->
      <g transform="translate(25.155 143.856809)scale(0.16 -0.16)">
       <use xlink:href="#DejaVuSans-48"/>
       <use x="63.623047" xlink:href="#DejaVuSans-46"/>
       <use x="95.410156" xlink:href="#DejaVuSans-54"/>
      </g>
     </g>
    </g>
    <g id="ytick_5">
     <g id="line2d_25">
      <path clip-path="url(#p9d7474ae27)" d="M 57.6 84.056079 
L 338.688 84.056079 
" style="fill:none;stroke:#b0b0b0;stroke-linecap:square;stroke-width:0.8;"/>
     </g>
     <g id="line2d_26">
      <g>
       <use style="stroke:#000000;stroke-width:0.8;" x="57.6" xlink:href="#mb3600ca6ec" y="84.056079"/>
      </g>
     </g>
     <g id="text_10">
      <!-- 0.8 -->
      <g transform="translate(25.155 90.134829)scale(0.16 -0.16)">
       <defs>
        <path d="M 31.78125 34.625 
Q 24.75 34.625 20.71875 30.859375 
Q 16.703125 27.09375 16.703125 20.515625 
Q 16.703125 13.921875 20.71875 10.15625 
Q 24.75 6.390625 31.78125 6.390625 
Q 38.8125 6.390625 42.859375 10.171875 
Q 46.921875 13.96875 46.921875 20.515625 
Q 46.921875 27.09375 42.890625 30.859375 
Q 38.875 34.625 31.78125 34.625 
z
M 21.921875 38.8125 
Q 15.578125 40.375 12.03125 44.71875 
Q 8.5 49.078125 8.5 55.328125 
Q 8.5 64.0625 14.71875 69.140625 
Q 20.953125 74.21875 31.78125 74.21875 
Q 42.671875 74.21875 48.875 69.140625 
Q 55.078125 64.0625 55.078125 55.328125 
Q 55.078125 49.078125 51.53125 44.71875 
Q 48 40.375 41.703125 38.8125 
Q 48.828125 37.15625 52.796875 32.3125 
Q 56.78125 27.484375 56.78125 20.515625 
Q 56.78125 9.90625 50.3125 4.234375 
Q 43.84375 -1.421875 31.78125 -1.421875 
Q 19.734375 -1.421875 13.25 4.234375 
Q 6.78125 9.90625 6.78125 20.515625 
Q 6.78125 27.484375 10.78125 32.3125 
Q 14.796875 37.15625 21.921875 38.8125 
z
M 18.3125 54.390625 
Q 18.3125 48.734375 21.84375 45.5625 
Q 25.390625 42.390625 31.78125 42.390625 
Q 38.140625 42.390625 41.71875 45.5625 
Q 45.3125 48.734375 45.3125 54.390625 
Q 45.3125 60.0625 41.71875 63.234375 
Q 38.140625 66.40625 31.78125 66.40625 
Q 25.390625 66.40625 21.84375 63.234375 
Q 18.3125 60.0625 18.3125 54.390625 
z
" id="DejaVuSans-56"/>
       </defs>
       <use xlink:href="#DejaVuSans-48"/>
       <use x="63.623047" xlink:href="#DejaVuSans-46"/>
       <use x="95.410156" xlink:href="#DejaVuSans-56"/>
      </g>
     </g>
    </g>
    <g id="ytick_6">
     <g id="line2d_27">
      <path clip-path="url(#p9d7474ae27)" d="M 57.6 30.334099 
L 338.688 30.334099 
" style="fill:none;stroke:#b0b0b0;stroke-linecap:square;stroke-width:0.8;"/>
     </g>
     <g id="line2d_28">
      <g>
       <use style="stroke:#000000;stroke-width:0.8;" x="57.6" xlink:href="#mb3600ca6ec" y="30.334099"/>
      </g>
     </g>
     <g id="text_11">
      <!-- 1.0 -->
      <g transform="translate(25.155 36.412849)scale(0.16 -0.16)">
       <use xlink:href="#DejaVuSans-49"/>
       <use x="63.623047" xlink:href="#DejaVuSans-46"/>
       <use x="95.410156" xlink:href="#DejaVuSans-48"/>
      </g>
     </g>
    </g>
    <g id="text_12">
     <!-- Fraction of function,target pairs -->
     <g transform="translate(17.619531 297.681)rotate(-90)scale(0.17 -0.17)">
      <defs>
       <path d="M 9.8125 72.90625 
L 51.703125 72.90625 
L 51.703125 64.59375 
L 19.671875 64.59375 
L 19.671875 43.109375 
L 48.578125 43.109375 
L 48.578125 34.8125 
L 19.671875 34.8125 
L 19.671875 0 
L 9.8125 0 
z
" id="DejaVuSans-70"/>
       <path d="M 41.109375 46.296875 
Q 39.59375 47.171875 37.8125 47.578125 
Q 36.03125 48 33.890625 48 
Q 26.265625 48 22.1875 43.046875 
Q 18.109375 38.09375 18.109375 28.8125 
L 18.109375 0 
L 9.078125 0 
L 9.078125 54.6875 
L 18.109375 54.6875 
L 18.109375 46.1875 
Q 20.953125 51.171875 25.484375 53.578125 
Q 30.03125 56 36.53125 56 
Q 37.453125 56 38.578125 55.875 
Q 39.703125 55.765625 41.0625 55.515625 
z
" id="DejaVuSans-114"/>
       <path d="M 48.78125 52.59375 
L 48.78125 44.1875 
Q 44.96875 46.296875 41.140625 47.34375 
Q 37.3125 48.390625 33.40625 48.390625 
Q 24.65625 48.390625 19.8125 42.84375 
Q 14.984375 37.3125 14.984375 27.296875 
Q 14.984375 17.28125 19.8125 11.734375 
Q 24.65625 6.203125 33.40625 6.203125 
Q 37.3125 6.203125 41.140625 7.25 
Q 44.96875 8.296875 48.78125 10.40625 
L 48.78125 2.09375 
Q 45.015625 0.34375 40.984375 -0.53125 
Q 36.96875 -1.421875 32.421875 -1.421875 
Q 20.0625 -1.421875 12.78125 6.34375 
Q 5.515625 14.109375 5.515625 27.296875 
Q 5.515625 40.671875 12.859375 48.328125 
Q 20.21875 56 33.015625 56 
Q 37.15625 56 41.109375 55.140625 
Q 45.0625 54.296875 48.78125 52.59375 
z
" id="DejaVuSans-99"/>
       <path d="M 18.3125 70.21875 
L 18.3125 54.6875 
L 36.8125 54.6875 
L 36.8125 47.703125 
L 18.3125 47.703125 
L 18.3125 18.015625 
Q 18.3125 11.328125 20.140625 9.421875 
Q 21.96875 7.515625 27.59375 7.515625 
L 36.8125 7.515625 
L 36.8125 0 
L 27.59375 0 
Q 17.1875 0 13.234375 3.875 
Q 9.28125 7.765625 9.28125 18.015625 
L 9.28125 47.703125 
L 2.6875 47.703125 
L 2.6875 54.6875 
L 9.28125 54.6875 
L 9.28125 70.21875 
z
" id="DejaVuSans-116"/>
       <path d="M 8.5 21.578125 
L 8.5 54.6875 
L 17.484375 54.6875 
L 17.484375 21.921875 
Q 17.484375 14.15625 20.5 10.265625 
Q 23.53125 6.390625 29.59375 6.390625 
Q 36.859375 6.390625 41.078125 11.03125 
Q 45.3125 15.671875 45.3125 23.6875 
L 45.3125 54.6875 
L 54.296875 54.6875 
L 54.296875 0 
L 45.3125 0 
L 45.3125 8.40625 
Q 42.046875 3.421875 37.71875 1 
Q 33.40625 -1.421875 27.6875 -1.421875 
Q 18.265625 -1.421875 13.375 4.4375 
Q 8.5 10.296875 8.5 21.578125 
z
M 31.109375 56 
z
" id="DejaVuSans-117"/>
       <path d="M 11.71875 12.40625 
L 22.015625 12.40625 
L 22.015625 4 
L 14.015625 -11.625 
L 7.71875 -11.625 
L 11.71875 4 
z
" id="DejaVuSans-44"/>
       <path d="M 18.109375 8.203125 
L 18.109375 -20.796875 
L 9.078125 -20.796875 
L 9.078125 54.6875 
L 18.109375 54.6875 
L 18.109375 46.390625 
Q 20.953125 51.265625 25.265625 53.625 
Q 29.59375 56 35.59375 56 
Q 45.5625 56 51.78125 48.09375 
Q 58.015625 40.1875 58.015625 27.296875 
Q 58.015625 14.40625 51.78125 6.484375 
Q 45.5625 -1.421875 35.59375 -1.421875 
Q 29.59375 -1.421875 25.265625 0.953125 
Q 20.953125 3.328125 18.109375 8.203125 
z
M 48.6875 27.296875 
Q 48.6875 37.203125 44.609375 42.84375 
Q 40.53125 48.484375 33.40625 48.484375 
Q 26.265625 48.484375 22.1875 42.84375 
Q 18.109375 37.203125 18.109375 27.296875 
Q 18.109375 17.390625 22.1875 11.75 
Q 26.265625 6.109375 33.40625 6.109375 
Q 40.53125 6.109375 44.609375 11.75 
Q 48.6875 17.390625 48.6875 27.296875 
z
" id="DejaVuSans-112"/>
      </defs>
      <use xlink:href="#DejaVuSans-70"/>
      <use x="50.269531" xlink:href="#DejaVuSans-114"/>
      <use x="91.382812" xlink:href="#DejaVuSans-97"/>
      <use x="152.662109" xlink:href="#DejaVuSans-99"/>
      <use x="207.642578" xlink:href="#DejaVuSans-116"/>
      <use x="246.851562" xlink:href="#DejaVuSans-105"/>
      <use x="274.634766" xlink:href="#DejaVuSans-111"/>
      <use x="335.816406" xlink:href="#DejaVuSans-110"/>
      <use x="399.195312" xlink:href="#DejaVuSans-32"/>
      <use x="430.982422" xlink:href="#DejaVuSans-111"/>
      <use x="492.164062" xlink:href="#DejaVuSans-102"/>
      <use x="527.369141" xlink:href="#DejaVuSans-32"/>
      <use x="559.15625" xlink:href="#DejaVuSans-102"/>
      <use x="594.361328" xlink:href="#DejaVuSans-117"/>
      <use x="657.740234" xlink:href="#DejaVuSans-110"/>
      <use x="721.119141" xlink:href="#DejaVuSans-99"/>
      <use x="776.099609" xlink:href="#DejaVuSans-116"/>
      <use x="815.308594" xlink:href="#DejaVuSans-105"/>
      <use x="843.091797" xlink:href="#DejaVuSans-111"/>
      <use x="904.273438" xlink:href="#DejaVuSans-110"/>
      <use x="967.652344" xlink:href="#DejaVuSans-44"/>
      <use x="999.439453" xlink:href="#DejaVuSans-116"/>
      <use x="1038.648438" xlink:href="#DejaVuSans-97"/>
      <use x="1099.927734" xlink:href="#DejaVuSans-114"/>
      <use x="1139.291016" xlink:href="#DejaVuSans-103"/>
      <use x="1202.767578" xlink:href="#DejaVuSans-101"/>
      <use x="1264.291016" xlink:href="#DejaVuSans-116"/>
      <use x="1303.5" xlink:href="#DejaVuSans-32"/>
      <use x="1335.287109" xlink:href="#DejaVuSans-112"/>
      <use x="1398.763672" xlink:href="#DejaVuSans-97"/>
      <use x="1460.042969" xlink:href="#DejaVuSans-105"/>
      <use x="1487.826172" xlink:href="#DejaVuSans-114"/>
      <use x="1528.939453" xlink:href="#DejaVuSans-115"/>
     </g>
    </g>
   </g>
   <g id="line2d_29">
    <defs>
     <path d="M 0 1.5 
C 0.397805 1.5 0.77937 1.341951 1.06066 1.06066 
C 1.341951 0.77937 1.5 0.397805 1.5 0 
C 1.5 -0.397805 1.341951 -0.77937 1.06066 -1.06066 
C 0.77937 -1.341951 0.397805 -1.5 0 -1.5 
C -0.397805 -1.5 -0.77937 -1.341951 -1.06066 -1.06066 
C -1.341951 -0.77937 -1.5 -0.397805 -1.5 0 
C -1.5 0.397805 -1.341951 0.77937 -1.06066 1.06066 
C -0.77937 1.341951 -0.397805 1.5 0 1.5 
z
" id="m025700cf7e" style="stroke:#000080;"/>
    </defs>
    <g>
     <use style="fill:#000080;stroke:#000080;" x="75.241593" xlink:href="#m025700cf7e" y="30.334099"/>
     <use style="fill:#000080;stroke:#000080;" x="75.241593" xlink:href="#m025700cf7e" y="30.334099"/>
    </g>
   </g>
   <g id="line2d_30">
    <path d="M 5.356583 298.944 
L 5.356583 283.220494 
L 43.6746 283.220494 
L 43.6746 282.565348 
L 58.450865 282.565348 
L 58.450865 281.910201 
L 60.037348 281.910201 
L 60.037348 280.599909 
L 61.491463 280.599909 
L 61.491463 279.944763 
L 67.359297 279.944763 
L 67.359297 279.289617 
L 68.328395 279.289617 
L 68.328395 277.324179 
L 69.246464 277.324179 
L 69.246464 276.013887 
L 70.11861 276.013887 
L 70.11861 274.048448 
L 70.949209 274.048448 
L 70.949209 273.393302 
L 71.74204 273.393302 
L 71.74204 219.016176 
L 72.500389 219.016176 
L 72.500389 152.191274 
L 73.227131 152.191274 
L 73.227131 112.227362 
L 73.924795 112.227362 
L 73.924795 88.642102 
L 74.595619 88.642102 
L 74.595619 47.367898 
L 75.241593 47.367898 
L 75.241593 30.334099 
L 338.688 30.334099 
" style="fill:none;stroke:#000080;stroke-linecap:square;stroke-width:1.5;"/>
   </g>
   <g id="line2d_31">
    <defs>
     <path d="M 0 6 
C 1.591219 6 3.117479 5.367802 4.242641 4.242641 
C 5.367802 3.117479 6 1.591219 6 0 
C 6 -1.591219 5.367802 -3.117479 4.242641 -4.242641 
C 3.117479 -5.367802 1.591219 -6 0 -6 
C -1.591219 -6 -3.117479 -5.367802 -4.242641 -4.242641 
C -5.367802 -3.117479 -6 -1.591219 -6 0 
C -6 1.591219 -5.367802 3.117479 -4.242641 4.242641 
C -3.117479 5.367802 -1.591219 6 0 6 
z
" id="me954a3a24b" style="stroke:#000080;stroke-width:1.5;"/>
    </defs>
    <g>
     <use style="fill-opacity:0;stroke:#000080;stroke-width:1.5;" x="71.74204" xlink:href="#me954a3a24b" y="219.016176"/>
     <use style="fill-opacity:0;stroke:#000080;stroke-width:1.5;" x="74.595619" xlink:href="#me954a3a24b" y="47.367898"/>
     <use style="fill-opacity:0;stroke:#000080;stroke-width:1.5;" x="75.241593" xlink:href="#me954a3a24b" y="47.367898"/>
     <use style="fill-opacity:0;stroke:#000080;stroke-width:1.5;" x="75.241593" xlink:href="#me954a3a24b" y="30.334099"/>
     <use style="fill-opacity:0;stroke:#000080;stroke-width:1.5;" x="75.241593" xlink:href="#me954a3a24b" y="30.334099"/>
     <use style="fill-opacity:0;stroke:#000080;stroke-width:1.5;" x="338.688" xlink:href="#me954a3a24b" y="30.334099"/>
    </g>
   </g>
   <g id="line2d_32">
    <path style="fill:none;stroke:#000080;stroke-linecap:square;stroke-width:1.5;"/>
    <g/>
   </g>
   <g id="line2d_33">
    <defs>
     <path d="M 0 1.5 
C 0.397805 1.5 0.77937 1.341951 1.06066 1.06066 
C 1.341951 0.77937 1.5 0.397805 1.5 0 
C 1.5 -0.397805 1.341951 -0.77937 1.06066 -1.06066 
C 0.77937 -1.341951 0.397805 -1.5 0 -1.5 
C -0.397805 -1.5 -0.77937 -1.341951 -1.06066 -1.06066 
C -1.341951 -0.77937 -1.5 -0.397805 -1.5 0 
C -1.5 0.397805 -1.341951 0.77937 -1.06066 1.06066 
C -0.77937 1.341951 -0.397805 1.5 0 1.5 
z
" id="m5f4494e976" style="stroke:#ff00ff;"/>
    </defs>
    <g>
     <use style="fill:#ff00ff;stroke:#ff00ff;" x="175.553262" xlink:href="#m5f4494e976" y="30.334099"/>
     <use style="fill:#ff00ff;stroke:#ff00ff;" x="175.553262" xlink:href="#m5f4494e976" y="30.334099"/>
    </g>
   </g>
   <g id="line2d_34">
    <path d="M 5.356583 298.944 
L 5.356583 285.185932 
L 17.444571 285.185932 
L 17.444571 284.530786 
L 36.60358 284.530786 
L 36.60358 283.220494 
L 72.867545 283.220494 
L 72.867545 282.565348 
L 81.775977 282.565348 
L 81.775977 281.910201 
L 82.206598 281.910201 
L 82.206598 281.255055 
L 87.009585 281.255055 
L 87.009585 280.599909 
L 90.771388 280.599909 
L 90.771388 279.289617 
L 93.644601 279.289617 
L 93.644601 277.979325 
L 93.863965 277.979325 
L 93.863965 277.324179 
L 94.714831 277.324179 
L 94.714831 276.669033 
L 95.125186 276.669033 
L 95.125186 274.703594 
L 95.326798 274.703594 
L 95.326798 274.048448 
L 96.489848 274.048448 
L 96.489848 273.393302 
L 96.86091 273.393302 
L 96.86091 271.427864 
L 98.606294 271.427864 
L 98.606294 270.117572 
L 98.771596 270.117572 
L 98.771596 269.462426 
L 98.935347 269.462426 
L 98.935347 268.807279 
L 100.040467 268.807279 
L 100.040467 268.152133 
L 100.641881 268.152133 
L 100.641881 266.841841 
L 100.789049 266.841841 
L 100.789049 266.186695 
L 100.934985 266.186695 
L 100.934985 265.531549 
L 101.923711 265.531549 
L 101.923711 264.876403 
L 102.330873 264.876403 
L 102.330873 262.910965 
L 102.464508 262.910965 
L 102.464508 260.29038 
L 102.859376 260.29038 
L 102.859376 258.324942 
L 102.989037 258.324942 
L 102.989037 257.669796 
L 103.117741 257.669796 
L 103.117741 257.01465 
L 103.245502 257.01465 
L 103.245502 255.704357 
L 103.372333 255.704357 
L 103.372333 255.049211 
L 103.623262 255.049211 
L 103.623262 253.738919 
L 103.747386 253.738919 
L 103.747386 252.428627 
L 103.993014 252.428627 
L 103.993014 251.118335 
L 104.114542 251.118335 
L 104.114542 250.463189 
L 104.23523 250.463189 
L 104.23523 248.49775 
L 104.355088 248.49775 
L 104.355088 247.842604 
L 104.709797 247.842604 
L 104.709797 247.187458 
L 104.826449 247.187458 
L 104.826449 246.532312 
L 105.057436 246.532312 
L 105.057436 243.256582 
L 105.621863 243.256582 
L 105.621863 242.601435 
L 105.842616 242.601435 
L 105.951954 239.980851 
L 106.168594 239.980851 
L 106.275913 237.360267 
L 106.593963 237.360267 
L 106.593963 236.705121 
L 106.906317 236.705121 
L 107.009204 232.119098 
L 107.213174 232.119098 
L 107.213174 228.843367 
L 107.614095 228.843367 
L 107.614095 226.222783 
L 107.90885 226.222783 
L 107.90885 225.567637 
L 108.764355 225.567637 
L 108.764355 224.912491 
L 109.040444 224.912491 
L 109.131511 220.981614 
L 109.930396 220.981614 
L 109.930396 220.326468 
L 110.274038 220.326468 
L 110.274038 219.671322 
L 110.527398 219.671322 
L 110.61104 216.395591 
L 110.859585 216.395591 
L 110.941652 213.775007 
L 111.346294 213.775007 
L 111.346294 213.119861 
L 111.505558 213.119861 
L 111.505558 212.464715 
L 111.663381 212.464715 
L 111.663381 211.154423 
L 112.128456 211.154423 
L 112.204777 207.878692 
L 112.356423 207.878692 
L 112.431755 206.5684 
L 112.72987 206.5684 
L 112.72987 205.258108 
L 113.524343 205.258108 
L 113.524343 203.947816 
L 113.873839 203.947816 
L 113.873839 202.637523 
L 114.0117 202.637523 
L 114.0117 200.672085 
L 115.077025 200.672085 
L 115.077025 199.361793 
L 116.914437 199.361793 
L 116.914437 198.051501 
L 117.259781 198.051501 
L 117.259781 195.430916 
L 118.523652 195.430916 
L 118.523652 190.844894 
L 119.702083 190.844894 
L 119.702083 188.224309 
L 123.394238 188.224309 
L 123.394238 187.569163 
L 123.672636 187.569163 
L 123.712047 183.638286 
L 125.001625 183.638286 
L 125.001625 182.327994 
L 125.717918 182.327994 
L 125.717918 181.017702 
L 126.50685 181.017702 
L 126.50685 180.362556 
L 129.489668 180.362556 
L 129.489668 177.086825 
L 130.874681 177.086825 
L 130.874681 175.121387 
L 132.060454 175.121387 
L 132.060454 174.466241 
L 133.284766 174.466241 
L 133.284766 167.259634 
L 133.600213 167.259634 
L 133.600213 163.983903 
L 134.703375 163.983903 
L 134.703375 161.363319 
L 135.240011 161.363319 
L 135.240011 160.708173 
L 135.701341 160.708173 
L 135.701341 158.087589 
L 136.68274 158.087589 
L 136.68274 157.432442 
L 140.011351 157.432442 
L 140.011351 156.777296 
L 140.438956 156.777296 
L 140.438956 155.467004 
L 140.79731 155.467004 
L 140.856326 151.536128 
L 141.407239 151.536128 
L 141.478449 148.915543 
L 142.324576 148.915543 
L 142.324576 147.605251 
L 145.051495 147.605251 
L 145.051495 146.950105 
L 145.281568 146.950105 
L 145.281568 144.32952 
L 146.388493 144.32952 
L 146.388493 141.708936 
L 146.569876 141.708936 
L 146.569876 140.398644 
L 146.927079 140.398644 
L 146.927079 138.433206 
L 147.56019 138.433206 
L 147.56019 137.122913 
L 147.700024 137.122913 
L 147.700024 136.467767 
L 148.229122 136.467767 
L 148.286932 127.295722 
L 148.516274 127.295722 
L 148.516274 126.640576 
L 148.723886 126.640576 
L 148.723886 123.364845 
L 150.716332 123.364845 
L 150.716332 122.709699 
L 150.899466 122.709699 
L 150.899466 118.778823 
L 151.292481 118.778823 
L 151.292481 118.123676 
L 152.283884 118.123676 
L 152.306816 114.847946 
L 152.405838 114.847946 
L 152.405838 113.537654 
L 153.771317 113.537654 
L 153.771317 112.882508 
L 154.945917 112.882508 
L 154.945917 111.572215 
L 155.258271 111.572215 
L 155.258271 109.606777 
L 156.114049 109.606777 
L 156.114049 106.986193 
L 156.394253 106.986193 
L 156.394253 106.331047 
L 157.162628 106.331047 
L 157.162628 105.675901 
L 157.312322 105.675901 
L 157.329512 103.710462 
L 157.826359 103.710462 
L 157.826359 103.055316 
L 157.992555 103.055316 
L 157.992555 102.40017 
L 158.146254 102.40017 
L 158.146254 101.745024 
L 158.395856 101.745024 
L 158.395856 101.089878 
L 158.842632 101.089878 
L 158.842632 99.779586 
L 159.897102 99.779586 
L 160.000599 98.469293 
L 160.079044 98.469293 
L 160.098601 97.159001 
L 160.872745 97.159001 
L 160.933404 95.848709 
L 161.876297 95.848709 
L 161.876297 94.538417 
L 161.990653 94.538417 
L 161.990653 92.572979 
L 162.104265 92.572979 
L 162.104265 91.917832 
L 162.329291 91.917832 
L 162.329291 89.952394 
L 162.474869 89.952394 
L 162.517456 87.986956 
L 162.728843 87.986956 
L 162.728843 87.33181 
L 163.412824 87.33181 
L 163.457215 82.745787 
L 163.621681 82.745787 
L 163.621681 82.090641 
L 163.828065 82.090641 
L 163.828065 81.435495 
L 164.183463 81.435495 
L 164.19892 74.228888 
L 164.776357 74.228888 
L 164.839766 71.608303 
L 164.921483 71.608303 
L 164.921483 70.953157 
L 165.138764 70.953157 
L 165.138764 67.022281 
L 165.411116 67.022281 
L 165.490206 63.74655 
L 165.522458 63.74655 
L 165.536773 61.781112 
L 165.953865 61.781112 
L 166.054862 60.47082 
L 166.941739 60.47082 
L 167.050313 55.229651 
L 167.484374 55.229651 
L 167.484374 53.919359 
L 168.084975 53.919359 
L 168.084975 53.264213 
L 168.27557 53.264213 
L 168.27557 51.95392 
L 168.560621 51.95392 
L 168.560621 50.643628 
L 168.909031 50.643628 
L 168.909031 49.988482 
L 169.061673 49.988482 
L 169.137496 46.057605 
L 169.288161 46.057605 
L 169.288161 43.437021 
L 169.788654 43.437021 
L 169.788654 42.126729 
L 170.236975 42.126729 
L 170.307866 39.506144 
L 171.32008 39.506144 
L 171.338045 38.195852 
L 171.511597 38.195852 
L 171.564846 34.264976 
L 172.056618 34.264976 
L 172.056618 33.60983 
L 172.184146 33.60983 
L 172.184146 32.954683 
L 175.02984 32.954683 
L 175.02984 31.644391 
L 175.232072 31.644391 
L 175.232072 30.989245 
L 175.553262 30.989245 
L 175.553262 30.334099 
L 338.688 30.334099 
L 338.688 30.334099 
" style="fill:none;stroke:#ff00ff;stroke-linecap:square;stroke-width:1.5;"/>
   </g>
   <g id="line2d_35">
    <defs>
     <path d="M -0 8.485281 
L 5.091169 0 
L 0 -8.485281 
L -5.091169 -0 
z
" id="mde9af0f552" style="stroke:#ff00ff;stroke-linejoin:miter;stroke-width:1.5;"/>
    </defs>
    <g>
     <use style="fill-opacity:0;stroke:#ff00ff;stroke-linejoin:miter;stroke-width:1.5;" x="87.009585" xlink:href="#mde9af0f552" y="280.599909"/>
     <use style="fill-opacity:0;stroke:#ff00ff;stroke-linejoin:miter;stroke-width:1.5;" x="118.523652" xlink:href="#mde9af0f552" y="190.844894"/>
     <use style="fill-opacity:0;stroke:#ff00ff;stroke-linejoin:miter;stroke-width:1.5;" x="172.184146" xlink:href="#mde9af0f552" y="32.954683"/>
     <use style="fill-opacity:0;stroke:#ff00ff;stroke-linejoin:miter;stroke-width:1.5;" x="175.553262" xlink:href="#mde9af0f552" y="30.334099"/>
     <use style="fill-opacity:0;stroke:#ff00ff;stroke-linejoin:miter;stroke-width:1.5;" x="175.553262" xlink:href="#mde9af0f552" y="30.334099"/>
     <use style="fill-opacity:0;stroke:#ff00ff;stroke-linejoin:miter;stroke-width:1.5;" x="338.688" xlink:href="#mde9af0f552" y="30.334099"/>
    </g>
   </g>
   <g id="line2d_36">
    <path style="fill:none;stroke:#ff00ff;stroke-linecap:square;stroke-width:1.5;"/>
    <g/>
   </g>
   <g id="line2d_37">
    <defs>
     <path d="M 0 1.5 
C 0.397805 1.5 0.77937 1.341951 1.06066 1.06066 
C 1.341951 0.77937 1.5 0.397805 1.5 0 
C 1.5 -0.397805 1.341951 -0.77937 1.06066 -1.06066 
C 0.77937 -1.341951 0.397805 -1.5 0 -1.5 
C -0.397805 -1.5 -0.77937 -1.341951 -1.06066 -1.06066 
C -1.341951 -0.77937 -1.5 -0.397805 -1.5 0 
C -1.5 0.397805 -1.341951 0.77937 -1.06066 1.06066 
C -0.77937 1.341951 -0.397805 1.5 0 1.5 
z
" id="mee3d0aa3ec" style="stroke:#ff7500;"/>
    </defs>
    <g>
     <use style="fill:#ff7500;stroke:#ff7500;" x="310.776531" xlink:href="#mee3d0aa3ec" y="63.091404"/>
     <use style="fill:#ff7500;stroke:#ff7500;" x="310.776531" xlink:href="#mee3d0aa3ec" y="63.091404"/>
    </g>
   </g>
   <g id="line2d_38">
    <path d="M 5.356583 298.944 
L 5.356583 285.185932 
L 137.936996 285.185932 
L 138.01518 253.738919 
L 138.067109 253.738919 
L 138.170504 247.842604 
L 138.196257 247.842604 
L 138.239095 243.911728 
L 138.315939 243.911728 
L 138.315939 243.256582 
L 138.45172 243.256582 
L 138.552866 239.980851 
L 138.578062 239.980851 
L 138.670134 237.360267 
L 138.736791 237.360267 
L 138.736791 235.394828 
L 138.927025 235.394828 
L 139.017278 228.843367 
L 139.244927 228.843367 
L 139.244927 226.222783 
L 139.37369 226.222783 
L 139.37369 225.567637 
L 139.493548 225.567637 
L 139.493548 223.602199 
L 139.667863 223.602199 
L 139.667863 222.947052 
L 140.134598 222.947052 
L 140.134598 222.291906 
L 140.272217 222.291906 
L 140.272217 221.63676 
L 140.730677 221.63676 
L 140.730677 220.326468 
L 140.863689 220.326468 
L 140.944478 217.705884 
L 141.177393 217.705884 
L 141.177393 217.050738 
L 141.71841 217.050738 
L 141.71841 216.395591 
L 141.913576 216.395591 
L 141.913576 215.740445 
L 142.398886 215.740445 
L 142.398886 215.085299 
L 143.445426 215.085299 
L 143.445426 214.430153 
L 143.559326 214.430153 
L 143.65995 213.119861 
L 144.59393 213.119861 
L 144.59393 212.464715 
L 144.853518 212.464715 
L 144.853518 210.499277 
L 147.419225 210.499277 
L 147.419225 209.84413 
L 152.733151 209.84413 
L 152.733151 207.223546 
L 153.254533 207.223546 
L 153.254533 206.5684 
L 154.029268 206.5684 
L 154.029268 205.913254 
L 156.25776 205.913254 
L 156.25776 205.258108 
L 157.85139 205.258108 
L 157.85139 204.602962 
L 161.519653 204.602962 
L 161.519653 203.292669 
L 164.144761 203.292669 
L 164.144761 201.982377 
L 164.620589 201.982377 
L 164.620589 201.327231 
L 165.257306 201.327231 
L 165.257306 200.672085 
L 165.751867 200.672085 
L 165.751867 200.016939 
L 166.759266 200.016939 
L 166.759266 199.361793 
L 167.843764 199.361793 
L 167.879768 197.396355 
L 170.720626 197.396355 
L 170.720626 196.741208 
L 171.683438 196.741208 
L 171.683438 194.77577 
L 173.377555 194.77577 
L 173.377555 190.844894 
L 174.641561 190.844894 
L 174.641561 189.534601 
L 178.875579 189.534601 
L 178.875579 188.879455 
L 180.005247 188.879455 
L 180.005247 188.224309 
L 182.259268 188.224309 
L 182.259268 186.914017 
L 184.202355 186.914017 
L 184.202355 184.948579 
L 184.652801 184.948579 
L 184.66714 183.638286 
L 184.982574 183.638286 
L 184.982574 181.672848 
L 185.258378 181.672848 
L 185.258378 181.017702 
L 188.715317 181.017702 
L 188.715317 180.362556 
L 193.966383 180.362556 
L 193.966383 179.70741 
L 196.343316 179.70741 
L 196.343316 177.086825 
L 196.4667 177.086825 
L 196.4667 176.431679 
L 196.837644 176.431679 
L 196.837644 175.776533 
L 199.158272 175.776533 
L 199.158272 175.121387 
L 199.454407 175.121387 
L 199.454407 174.466241 
L 202.669906 174.466241 
L 202.734239 171.845657 
L 205.032015 171.845657 
L 205.032015 170.535364 
L 206.809824 170.535364 
L 206.809824 169.880218 
L 207.294891 169.880218 
L 207.294891 167.91478 
L 212.312308 167.91478 
L 212.312308 163.983903 
L 212.614249 163.983903 
L 212.614249 163.328757 
L 213.177519 163.328757 
L 213.177519 162.673611 
L 213.843393 162.673611 
L 213.843729 158.087589 
L 214.003603 158.087589 
L 214.003603 157.432442 
L 215.346625 157.432442 
L 215.346625 156.777296 
L 217.710024 156.777296 
L 217.710024 156.12215 
L 218.821819 156.12215 
L 218.821819 153.501566 
L 220.607122 153.501566 
L 220.607122 152.84642 
L 221.20889 152.84642 
L 221.20889 150.225835 
L 223.253674 150.225835 
L 223.284097 148.915543 
L 223.404934 148.915543 
L 223.404934 147.605251 
L 225.871483 147.605251 
L 225.871483 145.639813 
L 226.18325 145.639813 
L 226.18325 144.984667 
L 227.352004 144.984667 
L 227.352004 144.32952 
L 229.850462 144.32952 
L 229.850462 143.674374 
L 234.643659 143.674374 
L 234.643659 143.019228 
L 235.746709 143.019228 
L 235.746709 140.398644 
L 238.107328 140.398644 
L 238.107328 139.743498 
L 239.038768 139.743498 
L 239.038768 139.088352 
L 239.749392 139.088352 
L 239.749392 137.122913 
L 241.675541 137.122913 
L 241.736259 135.812621 
L 241.932183 135.812621 
L 241.932183 135.157475 
L 242.248362 135.157475 
L 242.248362 134.502329 
L 242.464182 134.502329 
L 242.500649 133.192037 
L 242.790202 133.192037 
L 242.85356 131.881745 
L 243.11298 131.881745 
L 243.11298 131.226598 
L 244.163643 131.226598 
L 244.163643 129.916306 
L 247.903081 129.916306 
L 247.903081 129.26116 
L 248.303088 129.26116 
L 248.303088 128.606014 
L 248.55722 128.606014 
L 248.55722 127.950868 
L 249.294028 127.950868 
L 249.294028 127.295722 
L 249.871379 127.295722 
L 249.871379 122.709699 
L 250.613389 122.709699 
L 250.613389 122.054553 
L 251.286685 122.054553 
L 251.286685 121.399407 
L 251.53587 121.399407 
L 251.53587 120.744261 
L 251.70965 120.744261 
L 251.70965 119.433969 
L 252.11597 119.433969 
L 252.11597 118.778823 
L 252.468116 118.778823 
L 252.468116 118.123676 
L 252.950709 118.123676 
L 252.950709 117.46853 
L 253.701654 117.46853 
L 253.701654 116.158238 
L 254.474842 116.158238 
L 254.483173 114.847946 
L 256.114833 114.847946 
L 256.114833 114.1928 
L 256.339831 114.1928 
L 256.339831 113.537654 
L 257.229208 113.537654 
L 257.229208 112.882508 
L 257.634218 112.882508 
L 257.634218 112.227362 
L 257.996995 112.227362 
L 257.996995 111.572215 
L 258.169518 111.572215 
L 258.169518 110.917069 
L 258.404327 110.917069 
L 258.404327 110.261923 
L 258.660055 110.261923 
L 258.660055 109.606777 
L 259.222958 109.606777 
L 259.222958 108.951631 
L 260.312795 108.951631 
L 260.312795 108.296485 
L 260.448981 108.296485 
L 260.515783 106.331047 
L 260.899682 106.331047 
L 260.899682 105.675901 
L 261.074093 105.675901 
L 261.074093 105.020754 
L 261.664742 105.020754 
L 261.664742 104.365608 
L 261.898189 104.365608 
L 261.898189 103.055316 
L 262.47315 103.055316 
L 262.47315 102.40017 
L 262.635103 102.40017 
L 262.635103 101.745024 
L 263.62573 101.745024 
L 263.62573 101.089878 
L 263.778265 101.089878 
L 263.791343 99.779586 
L 264.093967 99.779586 
L 264.093967 99.12444 
L 264.20992 99.12444 
L 264.20992 98.469293 
L 264.623452 98.469293 
L 264.645177 96.503855 
L 265.695967 96.503855 
L 265.695967 95.848709 
L 265.974175 95.848709 
L 265.974175 95.193563 
L 266.47261 95.193563 
L 266.47261 94.538417 
L 267.541858 94.538417 
L 267.541858 93.883271 
L 267.983396 93.883271 
L 267.983396 93.228125 
L 268.870334 93.228125 
L 268.870334 92.572979 
L 269.874735 92.572979 
L 269.874735 91.917832 
L 270.453395 91.917832 
L 270.511193 90.60754 
L 272.524352 90.60754 
L 272.524352 89.952394 
L 273.183784 89.952394 
L 273.183784 89.297248 
L 273.570632 89.297248 
L 273.570632 88.642102 
L 273.916204 88.642102 
L 273.954851 87.33181 
L 274.44864 87.33181 
L 274.44864 86.676664 
L 274.854837 86.676664 
L 274.854837 86.021518 
L 275.061708 86.021518 
L 275.061708 85.366371 
L 275.413562 85.366371 
L 275.413562 84.711225 
L 276.064844 84.711225 
L 276.064844 84.056079 
L 276.279351 84.056079 
L 276.279351 83.400933 
L 276.940879 83.400933 
L 276.940879 82.745787 
L 278.598614 82.745787 
L 278.598614 82.090641 
L 281.884477 82.090641 
L 281.981238 80.780349 
L 283.087589 80.780349 
L 283.087589 80.125203 
L 283.51692 80.125203 
L 283.51692 79.470057 
L 284.016209 79.470057 
L 284.016209 78.81491 
L 284.552934 78.81491 
L 284.552934 78.159764 
L 284.670724 78.159764 
L 284.670724 77.504618 
L 285.44642 77.504618 
L 285.44642 76.849472 
L 285.740078 76.849472 
L 285.740078 76.194326 
L 286.551721 76.194326 
L 286.551721 75.53918 
L 286.903255 75.53918 
L 286.903255 74.884034 
L 287.243472 74.884034 
L 287.300072 73.573742 
L 287.560875 73.573742 
L 287.560875 72.918596 
L 287.727442 72.918596 
L 287.783222 71.608303 
L 290.120677 71.608303 
L 290.125428 70.298011 
L 290.323012 70.298011 
L 290.323012 69.642865 
L 291.657526 69.642865 
L 291.657526 68.987719 
L 292.073394 68.987719 
L 292.073394 68.332573 
L 292.992196 68.332573 
L 292.992196 67.677427 
L 293.761536 67.677427 
L 293.761536 67.022281 
L 295.061801 67.022281 
L 295.061801 66.367135 
L 297.967985 66.367135 
L 297.967985 65.711988 
L 301.772916 65.711988 
L 301.772916 65.056842 
L 302.690397 65.056842 
L 302.690397 64.401696 
L 303.466269 64.401696 
L 303.466269 63.74655 
L 310.776531 63.74655 
L 310.776531 63.091404 
L 338.688 63.091404 
L 338.688 63.091404 
" style="fill:none;stroke:#ff7500;stroke-linecap:square;stroke-width:1.5;"/>
   </g>
   <g id="line2d_39">
    <defs>
     <path d="M 0 -6 
L -1.347084 -1.854102 
L -5.706339 -1.854102 
L -2.179628 0.708204 
L -3.526712 4.854102 
L -0 2.291796 
L 3.526712 4.854102 
L 2.179628 0.708204 
L 5.706339 -1.854102 
L 1.347084 -1.854102 
z
" id="m17c86d01cb" style="stroke:#ff7500;stroke-linejoin:bevel;stroke-width:1.5;"/>
    </defs>
    <g>
     <use style="fill-opacity:0;stroke:#ff7500;stroke-linejoin:bevel;stroke-width:1.5;" x="202.734239" xlink:href="#m17c86d01cb" y="173.155949"/>
     <use style="fill-opacity:0;stroke:#ff7500;stroke-linejoin:bevel;stroke-width:1.5;" x="244.163643" xlink:href="#m17c86d01cb" y="129.916306"/>
     <use style="fill-opacity:0;stroke:#ff7500;stroke-linejoin:bevel;stroke-width:1.5;" x="310.776531" xlink:href="#m17c86d01cb" y="63.091404"/>
     <use style="fill-opacity:0;stroke:#ff7500;stroke-linejoin:bevel;stroke-width:1.5;" x="310.776531" xlink:href="#m17c86d01cb" y="63.091404"/>
     <use style="fill-opacity:0;stroke:#ff7500;stroke-linejoin:bevel;stroke-width:1.5;" x="338.688" xlink:href="#m17c86d01cb" y="63.091404"/>
    </g>
   </g>
   <g id="line2d_40">
    <path style="fill:none;stroke:#ff7500;stroke-linecap:square;stroke-width:1.5;"/>
    <g/>
   </g>
   <g id="line2d_41">
    <path clip-path="url(#p9d7474ae27)" d="M 242.499414 133.847183 
" style="fill:none;stroke:#ff7500;stroke-linecap:square;stroke-width:1.5;"/>
    <defs>
     <path d="M -12 12 
L 12 -12 
M -12 -12 
L 12 12 
" id="m84d7a050ac" style="stroke:#ff7500;"/>
    </defs>
    <g clip-path="url(#p9d7474ae27)">
     <use style="fill:#ff7500;stroke:#ff7500;" x="242.499414" xlink:href="#m84d7a050ac" y="133.847183"/>
    </g>
   </g>
   <g id="line2d_42">
    <defs>
     <path d="M 0 1.5 
C 0.397805 1.5 0.77937 1.341951 1.06066 1.06066 
C 1.341951 0.77937 1.5 0.397805 1.5 0 
C 1.5 -0.397805 1.341951 -0.77937 1.06066 -1.06066 
C 0.77937 -1.341951 0.397805 -1.5 0 -1.5 
C -0.397805 -1.5 -0.77937 -1.341951 -1.06066 -1.06066 
C -1.341951 -0.77937 -1.5 -0.397805 -1.5 0 
C -1.5 0.397805 -1.341951 0.77937 -1.06066 1.06066 
C -0.77937 1.341951 -0.397805 1.5 0 1.5 
z
" id="mec55ecc470" style="stroke:#6495ed;"/>
    </defs>
    <g>
     <use style="fill:#6495ed;stroke:#6495ed;" x="95.426737" xlink:href="#mec55ecc470" y="30.334099"/>
     <use style="fill:#6495ed;stroke:#6495ed;" x="95.426737" xlink:href="#mec55ecc470" y="30.334099"/>
    </g>
   </g>
   <g id="line2d_43">
    <path d="M 5.356583 298.944 
L 5.356583 288.461662 
L 72.125336 288.461662 
L 72.125336 101.745024 
L 72.867545 101.745024 
L 72.867545 101.089878 
L 75.555822 101.089878 
L 75.555822 100.434732 
L 76.16779 100.434732 
L 76.16779 99.779586 
L 77.330839 99.779586 
L 77.330839 98.469293 
L 77.609874 98.469293 
L 77.609874 97.814147 
L 78.154896 97.814147 
L 78.154896 96.503855 
L 78.421149 96.503855 
L 78.421149 94.538417 
L 83.635174 94.538417 
L 83.635174 58.505381 
L 90.509138 58.505381 
L 90.509138 41.471583 
L 95.426737 41.471583 
L 95.426737 30.334099 
L 338.688 30.334099 
" style="fill:none;stroke:#6495ed;stroke-linecap:square;stroke-width:1.5;"/>
   </g>
   <g id="line2d_44">
    <defs>
     <path d="M -0 6 
L 6 -6 
L -6 -6 
z
" id="m3dd216692e" style="stroke:#6495ed;stroke-linejoin:miter;stroke-width:1.5;"/>
    </defs>
    <g>
     <use style="fill-opacity:0;stroke:#6495ed;stroke-linejoin:miter;stroke-width:1.5;" x="83.635174" xlink:href="#m3dd216692e" y="58.505381"/>
     <use style="fill-opacity:0;stroke:#6495ed;stroke-linejoin:miter;stroke-width:1.5;" x="95.426737" xlink:href="#m3dd216692e" y="41.471583"/>
     <use style="fill-opacity:0;stroke:#6495ed;stroke-linejoin:miter;stroke-width:1.5;" x="95.426737" xlink:href="#m3dd216692e" y="30.334099"/>
     <use style="fill-opacity:0;stroke:#6495ed;stroke-linejoin:miter;stroke-width:1.5;" x="95.426737" xlink:href="#m3dd216692e" y="30.334099"/>
     <use style="fill-opacity:0;stroke:#6495ed;stroke-linejoin:miter;stroke-width:1.5;" x="338.688" xlink:href="#m3dd216692e" y="30.334099"/>
    </g>
   </g>
   <g id="line2d_45">
    <path style="fill:none;stroke:#6495ed;stroke-linecap:square;stroke-width:1.5;"/>
    <g/>
   </g>
   <g id="line2d_46">
    <defs>
     <path d="M 0 1.5 
C 0.397805 1.5 0.77937 1.341951 1.06066 1.06066 
C 1.341951 0.77937 1.5 0.397805 1.5 0 
C 1.5 -0.397805 1.341951 -0.77937 1.06066 -1.06066 
C 0.77937 -1.341951 0.397805 -1.5 0 -1.5 
C -0.397805 -1.5 -0.77937 -1.341951 -1.06066 -1.06066 
C -1.341951 -0.77937 -1.5 -0.397805 -1.5 0 
C -1.5 0.397805 -1.341951 0.77937 -1.06066 1.06066 
C -0.77937 1.341951 -0.397805 1.5 0 1.5 
z
" id="mc3a8648976" style="stroke:#ff0000;"/>
    </defs>
    <g>
     <use style="fill:#ff0000;stroke:#ff0000;" x="154.661269" xlink:href="#mc3a8648976" y="30.334099"/>
     <use style="fill:#ff0000;stroke:#ff0000;" x="154.661269" xlink:href="#mc3a8648976" y="30.334099"/>
    </g>
   </g>
   <g id="line2d_47">
    <path d="M 5.356583 298.944 
L 5.356583 287.15137 
L 71.35013 287.15137 
L 71.35013 282.565348 
L 83.037197 282.565348 
L 83.037197 206.5684 
L 89.972502 206.5684 
L 89.972502 183.638286 
L 94.921215 183.638286 
L 94.921215 163.983903 
L 98.771596 163.983903 
L 98.771596 143.019228 
L 101.923711 143.019228 
L 101.923711 121.399407 
L 104.592361 121.399407 
L 104.592361 101.745024 
L 106.906317 101.745024 
L 106.906317 78.159764 
L 107.614095 78.159764 
L 107.614095 77.504618 
L 108.948899 77.504618 
L 108.948899 55.884797 
L 109.401893 55.884797 
L 109.401893 55.229651 
L 109.668146 55.229651 
L 109.668146 54.574505 
L 109.756002 54.574505 
L 109.756002 53.919359 
L 110.77713 53.919359 
L 110.77713 37.540706 
L 111.426108 37.540706 
L 111.426108 36.88556 
L 111.545148 36.88556 
L 111.545148 36.230414 
L 113.167699 36.230414 
L 113.167699 35.575268 
L 117.820578 35.575268 
L 117.820578 33.60983 
L 118.310324 33.60983 
L 118.310324 32.954683 
L 119.40226 32.954683 
L 119.40226 32.299537 
L 137.478274 32.299537 
L 137.478274 31.644391 
L 153.806399 31.644391 
L 153.806399 30.989245 
L 154.661269 30.989245 
L 154.661269 30.334099 
L 338.688 30.334099 
" style="fill:none;stroke:#ff0000;stroke-linecap:square;stroke-width:1.5;"/>
   </g>
   <g id="line2d_48">
    <defs>
     <path d="M 0 -6 
L -5.196152 -3 
L -5.196152 3 
L -0 6 
L 5.196152 3 
L 5.196152 -3 
z
" id="mcfd7654874" style="stroke:#ff0000;stroke-linejoin:miter;stroke-width:1.5;"/>
    </defs>
    <g>
     <use style="fill-opacity:0;stroke:#ff0000;stroke-linejoin:miter;stroke-width:1.5;" x="98.771596" xlink:href="#mcfd7654874" y="163.983903"/>
     <use style="fill-opacity:0;stroke:#ff0000;stroke-linejoin:miter;stroke-width:1.5;" x="137.478274" xlink:href="#mcfd7654874" y="31.644391"/>
     <use style="fill-opacity:0;stroke:#ff0000;stroke-linejoin:miter;stroke-width:1.5;" x="154.661269" xlink:href="#mcfd7654874" y="30.334099"/>
     <use style="fill-opacity:0;stroke:#ff0000;stroke-linejoin:miter;stroke-width:1.5;" x="154.661269" xlink:href="#mcfd7654874" y="30.334099"/>
     <use style="fill-opacity:0;stroke:#ff0000;stroke-linejoin:miter;stroke-width:1.5;" x="338.688" xlink:href="#mcfd7654874" y="30.334099"/>
    </g>
   </g>
   <g id="line2d_49">
    <path style="fill:none;stroke:#ff0000;stroke-linecap:square;stroke-width:1.5;"/>
    <g/>
   </g>
   <g id="line2d_50">
    <path d="M 338.688 63.091404 
L 369.60768 293.571802 
" style="fill:none;stroke:#ff7500;stroke-linecap:square;stroke-width:1.5;"/>
    <g>
     <use style="fill-opacity:0;stroke:#ff7500;stroke-linejoin:bevel;stroke-width:1.5;" x="338.688" xlink:href="#m17c86d01cb" y="63.091404"/>
     <use style="fill-opacity:0;stroke:#ff7500;stroke-linejoin:bevel;stroke-width:1.5;" x="369.60768" xlink:href="#m17c86d01cb" y="293.571802"/>
    </g>
   </g>
   <g id="line2d_51">
    <path d="M 338.688 30.334099 
L 369.60768 229.105426 
" style="fill:none;stroke:#ff00ff;stroke-linecap:square;stroke-width:1.5;"/>
    <g>
     <use style="fill-opacity:0;stroke:#ff00ff;stroke-linejoin:miter;stroke-width:1.5;" x="338.688" xlink:href="#mde9af0f552" y="30.334099"/>
     <use style="fill-opacity:0;stroke:#ff00ff;stroke-linejoin:miter;stroke-width:1.5;" x="369.60768" xlink:href="#mde9af0f552" y="229.105426"/>
    </g>
   </g>
   <g id="line2d_52">
    <path d="M 338.688 30.334099 
L 369.60768 164.63905 
" style="fill:none;stroke:#ff0000;stroke-linecap:square;stroke-width:1.5;"/>
    <g>
     <use style="fill-opacity:0;stroke:#ff0000;stroke-linejoin:miter;stroke-width:1.5;" x="338.688" xlink:href="#mcfd7654874" y="30.334099"/>
     <use style="fill-opacity:0;stroke:#ff0000;stroke-linejoin:miter;stroke-width:1.5;" x="369.60768" xlink:href="#mcfd7654874" y="164.63905"/>
    </g>
   </g>
   <g id="line2d_53">
    <path d="M 338.688 30.334099 
L 369.60768 100.172673 
" style="fill:none;stroke:#6495ed;stroke-linecap:square;stroke-width:1.5;"/>
    <g>
     <use style="fill-opacity:0;stroke:#6495ed;stroke-linejoin:miter;stroke-width:1.5;" x="338.688" xlink:href="#m3dd216692e" y="30.334099"/>
     <use style="fill-opacity:0;stroke:#6495ed;stroke-linejoin:miter;stroke-width:1.5;" x="369.60768" xlink:href="#m3dd216692e" y="100.172673"/>
    </g>
   </g>
   <g id="line2d_54">
    <path d="M 338.688 30.334099 
L 369.60768 35.706297 
" style="fill:none;stroke:#000080;stroke-linecap:square;stroke-width:1.5;"/>
    <g>
     <use style="fill-opacity:0;stroke:#000080;stroke-width:1.5;" x="338.688" xlink:href="#me954a3a24b" y="30.334099"/>
     <use style="fill-opacity:0;stroke:#000080;stroke-width:1.5;" x="369.60768" xlink:href="#me954a3a24b" y="35.706297"/>
    </g>
   </g>
   <g id="line2d_55">
    <path d="M 338.688 298.944 
L 338.688 30.334099 
" style="fill:none;stroke:#000000;stroke-linecap:square;stroke-width:1.5;"/>
   </g>
   <g id="patch_3">
    <path d="M 57.6 298.944 
L 57.6 27.648 
" style="fill:none;stroke:#000000;stroke-linecap:square;stroke-linejoin:miter;stroke-width:0.8;"/>
   </g>
   <g id="patch_4">
    <path d="M 338.688 298.944 
L 338.688 27.648 
" style="fill:none;stroke:#000000;stroke-linecap:square;stroke-linejoin:miter;stroke-width:0.8;"/>
   </g>
   <g id="patch_5">
    <path d="M 57.6 298.944 
L 338.688 298.944 
" style="fill:none;stroke:#000000;stroke-linecap:square;stroke-linejoin:miter;stroke-width:0.8;"/>
   </g>
   <g id="patch_6">
    <path d="M 57.6 27.648 
L 338.688 27.648 
" style="fill:none;stroke:#000000;stroke-linecap:square;stroke-linejoin:miter;stroke-width:0.8;"/>
   </g>
   <g id="text_13">
    <!-- rs -->
    <g transform="translate(375.22944 298.262739)scale(0.17 -0.17)">
     <use xlink:href="#DejaVuSans-114"/>
     <use x="41.113281" xlink:href="#DejaVuSans-115"/>
    </g>
   </g>
   <g id="text_14">
    <!-- NAL -->
    <g transform="translate(375.22944 233.796363)scale(0.17 -0.17)">
     <defs>
      <path d="M 9.8125 72.90625 
L 23.09375 72.90625 
L 55.421875 11.921875 
L 55.421875 72.90625 
L 64.984375 72.90625 
L 64.984375 0 
L 51.703125 0 
L 19.390625 60.984375 
L 19.390625 0 
L 9.8125 0 
z
" id="DejaVuSans-78"/>
      <path d="M 34.1875 63.1875 
L 20.796875 26.90625 
L 47.609375 26.90625 
z
M 28.609375 72.90625 
L 39.796875 72.90625 
L 67.578125 0 
L 57.328125 0 
L 50.6875 18.703125 
L 17.828125 18.703125 
L 11.1875 0 
L 0.78125 0 
z
" id="DejaVuSans-65"/>
      <path d="M 9.8125 72.90625 
L 19.671875 72.90625 
L 19.671875 8.296875 
L 55.171875 8.296875 
L 55.171875 0 
L 9.8125 0 
z
" id="DejaVuSans-76"/>
     </defs>
     <use xlink:href="#DejaVuSans-78"/>
     <use x="74.804688" xlink:href="#DejaVuSans-65"/>
     <use x="143.212891" xlink:href="#DejaVuSans-76"/>
    </g>
   </g>
   <g id="text_15">
    <!-- trust-con -->
    <g transform="translate(375.22944 169.329987)scale(0.17 -0.17)">
     <use xlink:href="#DejaVuSans-116"/>
     <use x="39.208984" xlink:href="#DejaVuSans-114"/>
     <use x="80.322266" xlink:href="#DejaVuSans-117"/>
     <use x="143.701172" xlink:href="#DejaVuSans-115"/>
     <use x="195.800781" xlink:href="#DejaVuSans-116"/>
     <use x="235.009766" xlink:href="#DejaVuSans-45"/>
     <use x="271.09375" xlink:href="#DejaVuSans-99"/>
     <use x="326.074219" xlink:href="#DejaVuSans-111"/>
     <use x="387.255859" xlink:href="#DejaVuSans-110"/>
    </g>
   </g>
   <g id="text_16">
    <!-- slsqp -->
    <g transform="translate(375.22944 104.863611)scale(0.17 -0.17)">
     <defs>
      <path d="M 14.796875 27.296875 
Q 14.796875 17.390625 18.875 11.75 
Q 22.953125 6.109375 30.078125 6.109375 
Q 37.203125 6.109375 41.296875 11.75 
Q 45.40625 17.390625 45.40625 27.296875 
Q 45.40625 37.203125 41.296875 42.84375 
Q 37.203125 48.484375 30.078125 48.484375 
Q 22.953125 48.484375 18.875 42.84375 
Q 14.796875 37.203125 14.796875 27.296875 
z
M 45.40625 8.203125 
Q 42.578125 3.328125 38.25 0.953125 
Q 33.9375 -1.421875 27.875 -1.421875 
Q 17.96875 -1.421875 11.734375 6.484375 
Q 5.515625 14.40625 5.515625 27.296875 
Q 5.515625 40.1875 11.734375 48.09375 
Q 17.96875 56 27.875 56 
Q 33.9375 56 38.25 53.625 
Q 42.578125 51.265625 45.40625 46.390625 
L 45.40625 54.6875 
L 54.390625 54.6875 
L 54.390625 -20.796875 
L 45.40625 -20.796875 
z
" id="DejaVuSans-113"/>
     </defs>
     <use xlink:href="#DejaVuSans-115"/>
     <use x="52.099609" xlink:href="#DejaVuSans-108"/>
     <use x="79.882812" xlink:href="#DejaVuSans-115"/>
     <use x="131.982422" xlink:href="#DejaVuSans-113"/>
     <use x="195.458984" xlink:href="#DejaVuSans-112"/>
    </g>
   </g>
   <g id="text_17">
    <!-- cobyla -->
    <g transform="translate(375.22944 40.397235)scale(0.17 -0.17)">
     <defs>
      <path d="M 48.6875 27.296875 
Q 48.6875 37.203125 44.609375 42.84375 
Q 40.53125 48.484375 33.40625 48.484375 
Q 26.265625 48.484375 22.1875 42.84375 
Q 18.109375 37.203125 18.109375 27.296875 
Q 18.109375 17.390625 22.1875 11.75 
Q 26.265625 6.109375 33.40625 6.109375 
Q 40.53125 6.109375 44.609375 11.75 
Q 48.6875 17.390625 48.6875 27.296875 
z
M 18.109375 46.390625 
Q 20.953125 51.265625 25.265625 53.625 
Q 29.59375 56 35.59375 56 
Q 45.5625 56 51.78125 48.09375 
Q 58.015625 40.1875 58.015625 27.296875 
Q 58.015625 14.40625 51.78125 6.484375 
Q 45.5625 -1.421875 35.59375 -1.421875 
Q 29.59375 -1.421875 25.265625 0.953125 
Q 20.953125 3.328125 18.109375 8.203125 
L 18.109375 0 
L 9.078125 0 
L 9.078125 75.984375 
L 18.109375 75.984375 
z
" id="DejaVuSans-98"/>
      <path d="M 32.171875 -5.078125 
Q 28.375 -14.84375 24.75 -17.8125 
Q 21.140625 -20.796875 15.09375 -20.796875 
L 7.90625 -20.796875 
L 7.90625 -13.28125 
L 13.1875 -13.28125 
Q 16.890625 -13.28125 18.9375 -11.515625 
Q 21 -9.765625 23.484375 -3.21875 
L 25.09375 0.875 
L 2.984375 54.6875 
L 12.5 54.6875 
L 29.59375 11.921875 
L 46.6875 54.6875 
L 56.203125 54.6875 
z
" id="DejaVuSans-121"/>
     </defs>
     <use xlink:href="#DejaVuSans-99"/>
     <use x="54.980469" xlink:href="#DejaVuSans-111"/>
     <use x="116.162109" xlink:href="#DejaVuSans-98"/>
     <use x="179.638672" xlink:href="#DejaVuSans-121"/>
     <use x="238.818359" xlink:href="#DejaVuSans-108"/>
     <use x="266.601562" xlink:href="#DejaVuSans-97"/>
    </g>
   </g>
   <g id="text_18">
    <!-- bbob-constrained f13, 20-D -->
    <g transform="translate(60.41088 38.111366)scale(0.102 -0.102)">
     <defs>
      <path d="M 40.578125 39.3125 
Q 47.65625 37.796875 51.625 33 
Q 55.609375 28.21875 55.609375 21.1875 
Q 55.609375 10.40625 48.1875 4.484375 
Q 40.765625 -1.421875 27.09375 -1.421875 
Q 22.515625 -1.421875 17.65625 -0.515625 
Q 12.796875 0.390625 7.625 2.203125 
L 7.625 11.71875 
Q 11.71875 9.328125 16.59375 8.109375 
Q 21.484375 6.890625 26.8125 6.890625 
Q 36.078125 6.890625 40.9375 10.546875 
Q 45.796875 14.203125 45.796875 21.1875 
Q 45.796875 27.640625 41.28125 31.265625 
Q 36.765625 34.90625 28.71875 34.90625 
L 20.21875 34.90625 
L 20.21875 43.015625 
L 29.109375 43.015625 
Q 36.375 43.015625 40.234375 45.921875 
Q 44.09375 48.828125 44.09375 54.296875 
Q 44.09375 59.90625 40.109375 62.90625 
Q 36.140625 65.921875 28.71875 65.921875 
Q 24.65625 65.921875 20.015625 65.03125 
Q 15.375 64.15625 9.8125 62.3125 
L 9.8125 71.09375 
Q 15.4375 72.65625 20.34375 73.4375 
Q 25.25 74.21875 29.59375 74.21875 
Q 40.828125 74.21875 47.359375 69.109375 
Q 53.90625 64.015625 53.90625 55.328125 
Q 53.90625 49.265625 50.4375 45.09375 
Q 46.96875 40.921875 40.578125 39.3125 
z
" id="DejaVuSans-51"/>
      <path d="M 19.671875 64.796875 
L 19.671875 8.109375 
L 31.59375 8.109375 
Q 46.6875 8.109375 53.6875 14.9375 
Q 60.6875 21.78125 60.6875 36.53125 
Q 60.6875 51.171875 53.6875 57.984375 
Q 46.6875 64.796875 31.59375 64.796875 
z
M 9.8125 72.90625 
L 30.078125 72.90625 
Q 51.265625 72.90625 61.171875 64.09375 
Q 71.09375 55.28125 71.09375 36.53125 
Q 71.09375 17.671875 61.125 8.828125 
Q 51.171875 0 30.078125 0 
L 9.8125 0 
z
" id="DejaVuSans-68"/>
     </defs>
     <use xlink:href="#DejaVuSans-98"/>
     <use x="63.476562" xlink:href="#DejaVuSans-98"/>
     <use x="126.953125" xlink:href="#DejaVuSans-111"/>
     <use x="188.134766" xlink:href="#DejaVuSans-98"/>
     <use x="251.611328" xlink:href="#DejaVuSans-45"/>
     <use x="287.695312" xlink:href="#DejaVuSans-99"/>
     <use x="342.675781" xlink:href="#DejaVuSans-111"/>
     <use x="403.857422" xlink:href="#DejaVuSans-110"/>
     <use x="467.236328" xlink:href="#DejaVuSans-115"/>
     <use x="519.335938" xlink:href="#DejaVuSans-116"/>
     <use x="558.544922" xlink:href="#DejaVuSans-114"/>
     <use x="599.658203" xlink:href="#DejaVuSans-97"/>
     <use x="660.9375" xlink:href="#DejaVuSans-105"/>
     <use x="688.720703" xlink:href="#DejaVuSans-110"/>
     <use x="752.099609" xlink:href="#DejaVuSans-101"/>
     <use x="813.623047" xlink:href="#DejaVuSans-100"/>
     <use x="877.099609" xlink:href="#DejaVuSans-32"/>
     <use x="908.886719" xlink:href="#DejaVuSans-102"/>
     <use x="944.091797" xlink:href="#DejaVuSans-49"/>
     <use x="1007.714844" xlink:href="#DejaVuSans-51"/>
     <use x="1071.337891" xlink:href="#DejaVuSans-44"/>
     <use x="1103.125" xlink:href="#DejaVuSans-32"/>
     <use x="1134.912109" xlink:href="#DejaVuSans-50"/>
     <use x="1198.535156" xlink:href="#DejaVuSans-48"/>
     <use x="1262.158203" xlink:href="#DejaVuSans-45"/>
     <use x="1298.242188" xlink:href="#DejaVuSans-68"/>
    </g>
    <!-- 41 targets: 100..1e-06 -->
    <g transform="translate(60.41088 49.533135)scale(0.102 -0.102)">
     <defs>
      <path d="M 11.71875 12.40625 
L 22.015625 12.40625 
L 22.015625 0 
L 11.71875 0 
z
M 11.71875 51.703125 
L 22.015625 51.703125 
L 22.015625 39.3125 
L 11.71875 39.3125 
z
" id="DejaVuSans-58"/>
     </defs>
     <use xlink:href="#DejaVuSans-52"/>
     <use x="63.623047" xlink:href="#DejaVuSans-49"/>
     <use x="127.246094" xlink:href="#DejaVuSans-32"/>
     <use x="159.033203" xlink:href="#DejaVuSans-116"/>
     <use x="198.242188" xlink:href="#DejaVuSans-97"/>
     <use x="259.521484" xlink:href="#DejaVuSans-114"/>
     <use x="298.884766" xlink:href="#DejaVuSans-103"/>
     <use x="362.361328" xlink:href="#DejaVuSans-101"/>
     <use x="423.884766" xlink:href="#DejaVuSans-116"/>
     <use x="463.09375" xlink:href="#DejaVuSans-115"/>
     <use x="515.193359" xlink:href="#DejaVuSans-58"/>
     <use x="548.884766" xlink:href="#DejaVuSans-32"/>
     <use x="580.671875" xlink:href="#DejaVuSans-49"/>
     <use x="644.294922" xlink:href="#DejaVuSans-48"/>
     <use x="707.917969" xlink:href="#DejaVuSans-48"/>
     <use x="771.541016" xlink:href="#DejaVuSans-46"/>
     <use x="803.328125" xlink:href="#DejaVuSans-46"/>
     <use x="835.115234" xlink:href="#DejaVuSans-49"/>
     <use x="898.738281" xlink:href="#DejaVuSans-101"/>
     <use x="960.261719" xlink:href="#DejaVuSans-45"/>
     <use x="996.345703" xlink:href="#DejaVuSans-48"/>
     <use x="1059.96875" xlink:href="#DejaVuSans-54"/>
    </g>
    <!-- 15 instances -->
    <g transform="translate(60.41088 60.954904)scale(0.102 -0.102)">
     <defs>
      <path d="M 10.796875 72.90625 
L 49.515625 72.90625 
L 49.515625 64.59375 
L 19.828125 64.59375 
L 19.828125 46.734375 
Q 21.96875 47.46875 24.109375 47.828125 
Q 26.265625 48.1875 28.421875 48.1875 
Q 40.625 48.1875 47.75 41.5 
Q 54.890625 34.8125 54.890625 23.390625 
Q 54.890625 11.625 47.5625 5.09375 
Q 40.234375 -1.421875 26.90625 -1.421875 
Q 22.3125 -1.421875 17.546875 -0.640625 
Q 12.796875 0.140625 7.71875 1.703125 
L 7.71875 11.625 
Q 12.109375 9.234375 16.796875 8.0625 
Q 21.484375 6.890625 26.703125 6.890625 
Q 35.15625 6.890625 40.078125 11.328125 
Q 45.015625 15.765625 45.015625 23.390625 
Q 45.015625 31 40.078125 35.4375 
Q 35.15625 39.890625 26.703125 39.890625 
Q 22.75 39.890625 18.8125 39.015625 
Q 14.890625 38.140625 10.796875 36.28125 
z
" id="DejaVuSans-53"/>
     </defs>
     <use xlink:href="#DejaVuSans-49"/>
     <use x="63.623047" xlink:href="#DejaVuSans-53"/>
     <use x="127.246094" xlink:href="#DejaVuSans-32"/>
     <use x="159.033203" xlink:href="#DejaVuSans-105"/>
     <use x="186.816406" xlink:href="#DejaVuSans-110"/>
     <use x="250.195312" xlink:href="#DejaVuSans-115"/>
     <use x="302.294922" xlink:href="#DejaVuSans-116"/>
     <use x="341.503906" xlink:href="#DejaVuSans-97"/>
     <use x="402.783203" xlink:href="#DejaVuSans-110"/>
     <use x="466.162109" xlink:href="#DejaVuSans-99"/>
     <use x="521.142578" xlink:href="#DejaVuSans-101"/>
     <use x="582.666016" xlink:href="#DejaVuSans-115"/>
    </g>
   </g>
   <g id="text_19">
    <!-- v5z33 -->
    <g style="fill:#808080;" transform="translate(183.016656 294.151352)scale(0.1 -0.1)">
     <defs>
      <path d="M 5.515625 54.6875 
L 48.1875 54.6875 
L 48.1875 46.484375 
L 14.40625 7.171875 
L 48.1875 7.171875 
L 48.1875 0 
L 4.296875 0 
L 4.296875 8.203125 
L 38.09375 47.515625 
L 5.515625 47.515625 
z
" id="DejaVuSans-122"/>
     </defs>
     <use xlink:href="#DejaVuSans-118"/>
     <use x="59.179688" xlink:href="#DejaVuSans-53"/>
     <use x="122.802734" xlink:href="#DejaVuSans-122"/>
     <use x="175.292969" xlink:href="#DejaVuSans-51"/>
     <use x="238.916016" xlink:href="#DejaVuSans-51"/>
    </g>
   </g>
   <g id="text_20">
    <!-- 13 Linear Slope, 1 constraint -->
    <g transform="translate(53.979937 21.648)scale(0.2 -0.2)">
     <defs>
      <path d="M 53.515625 70.515625 
L 53.515625 60.890625 
Q 47.90625 63.578125 42.921875 64.890625 
Q 37.9375 66.21875 33.296875 66.21875 
Q 25.25 66.21875 20.875 63.09375 
Q 16.5 59.96875 16.5 54.203125 
Q 16.5 49.359375 19.40625 46.890625 
Q 22.3125 44.4375 30.421875 42.921875 
L 36.375 41.703125 
Q 47.40625 39.59375 52.65625 34.296875 
Q 57.90625 29 57.90625 20.125 
Q 57.90625 9.515625 50.796875 4.046875 
Q 43.703125 -1.421875 29.984375 -1.421875 
Q 24.8125 -1.421875 18.96875 -0.25 
Q 13.140625 0.921875 6.890625 3.21875 
L 6.890625 13.375 
Q 12.890625 10.015625 18.65625 8.296875 
Q 24.421875 6.59375 29.984375 6.59375 
Q 38.421875 6.59375 43.015625 9.90625 
Q 47.609375 13.234375 47.609375 19.390625 
Q 47.609375 24.75 44.3125 27.78125 
Q 41.015625 30.8125 33.5 32.328125 
L 27.484375 33.5 
Q 16.453125 35.6875 11.515625 40.375 
Q 6.59375 45.0625 6.59375 53.421875 
Q 6.59375 63.09375 13.40625 68.65625 
Q 20.21875 74.21875 32.171875 74.21875 
Q 37.3125 74.21875 42.625 73.28125 
Q 47.953125 72.359375 53.515625 70.515625 
z
" id="DejaVuSans-83"/>
     </defs>
     <use xlink:href="#DejaVuSans-49"/>
     <use x="63.623047" xlink:href="#DejaVuSans-51"/>
     <use x="127.246094" xlink:href="#DejaVuSans-32"/>
     <use x="159.033203" xlink:href="#DejaVuSans-76"/>
     <use x="214.746094" xlink:href="#DejaVuSans-105"/>
     <use x="242.529297" xlink:href="#DejaVuSans-110"/>
     <use x="305.908203" xlink:href="#DejaVuSans-101"/>
     <use x="367.431641" xlink:href="#DejaVuSans-97"/>
     <use x="428.710938" xlink:href="#DejaVuSans-114"/>
     <use x="469.824219" xlink:href="#DejaVuSans-32"/>
     <use x="501.611328" xlink:href="#DejaVuSans-83"/>
     <use x="565.087891" xlink:href="#DejaVuSans-108"/>
     <use x="592.871094" xlink:href="#DejaVuSans-111"/>
     <use x="654.052734" xlink:href="#DejaVuSans-112"/>
     <use x="717.529297" xlink:href="#DejaVuSans-101"/>
     <use x="779.052734" xlink:href="#DejaVuSans-44"/>
     <use x="810.839844" xlink:href="#DejaVuSans-32"/>
     <use x="842.626953" xlink:href="#DejaVuSans-49"/>
     <use x="906.25" xlink:href="#DejaVuSans-32"/>
     <use x="938.037109" xlink:href="#DejaVuSans-99"/>
     <use x="993.017578" xlink:href="#DejaVuSans-111"/>
     <use x="1054.199219" xlink:href="#DejaVuSans-110"/>
     <use x="1117.578125" xlink:href="#DejaVuSans-115"/>
     <use x="1169.677734" xlink:href="#DejaVuSans-116"/>
     <use x="1208.886719" xlink:href="#DejaVuSans-114"/>
     <use x="1250" xlink:href="#DejaVuSans-97"/>
     <use x="1311.279297" xlink:href="#DejaVuSans-105"/>
     <use x="1339.0625" xlink:href="#DejaVuSans-110"/>
     <use x="1402.441406" xlink:href="#DejaVuSans-116"/>
    </g>
   </g>
  </g>
 </g>
 <defs>
  <clipPath id="p9d7474ae27">
   <rect height="271.296" width="281.088" x="57.6" y="27.648"/>
  </clipPath>
 </defs>
</svg>
