<?xml version="1.0" encoding="utf-8" standalone="no"?>
<!DOCTYPE svg PUBLIC "-//W3C//DTD SVG 1.1//EN"
  "http://www.w3.org/Graphics/SVG/1.1/DTD/svg11.dtd">
<!-- Created with matplotlib (https://matplotlib.org/) -->
<svg height="345.6pt" version="1.1" viewBox="0 0 460.8 345.6" width="460.8pt" xmlns="http://www.w3.org/2000/svg" xmlns:xlink="http://www.w3.org/1999/xlink">
 <metadata>
  <rdf:RDF xmlns:cc="http://creativecommons.org/ns#" xmlns:dc="http://purl.org/dc/elements/1.1/" xmlns:rdf="http://www.w3.org/1999/02/22-rdf-syntax-ns#">
   <cc:Work>
    <dc:type rdf:resource="http://purl.org/dc/dcmitype/StillImage"/>
    <dc:date>2021-06-24T15:49:05.390138</dc:date>
    <dc:format>image/svg+xml</dc:format>
    <dc:creator>
     <cc:Agent>
      <dc:title>Matplotlib v3.3.3, https://matplotlib.org/</dc:title>
     </cc:Agent>
    </dc:creator>
   </cc:Work>
  </rdf:RDF>
 </metadata>
 <defs>
  <style type="text/css">*{stroke-linecap:butt;stroke-linejoin:round;}</style>
 </defs>
 <g id="figure_1">
  <g id="patch_1">
   <path d="M 0 345.6 
L 460.8 345.6 
L 460.8 0 
L 0 0 
z
" style="fill:#ffffff;"/>
  </g>
  <g id="axes_1">
   <g id="patch_2">
    <path d="M 57.6 298.944 
L 338.688 298.944 
L 338.688 27.648 
L 57.6 27.648 
z
" style="fill:#ffffff;"/>
   </g>
   <g id="matplotlib.axis_1">
    <g id="xtick_1">
     <g id="line2d_1">
      <path clip-path="url(#pd8e43a1721)" d="M 57.6 298.944 
L 57.6 27.648 
" style="fill:none;stroke:#b0b0b0;stroke-linecap:square;stroke-width:0.8;"/>
     </g>
     <g id="line2d_2">
      <defs>
       <path d="M 0 0 
L 0 3.5 
" id="mf1012c88a3" style="stroke:#000000;stroke-width:0.8;"/>
      </defs>
      <g>
       <use style="stroke:#000000;stroke-width:0.8;" x="57.6" xlink:href="#mf1012c88a3" y="298.944"/>
      </g>
     </g>
     <g id="text_1">
      <!-- 0 -->
      <g transform="translate(51.2375 321.140875)scale(0.2 -0.2)">
       <defs>
        <path d="M 31.78125 66.40625 
Q 24.171875 66.40625 20.328125 58.90625 
Q 16.5 51.421875 16.5 36.375 
Q 16.5 21.390625 20.328125 13.890625 
Q 24.171875 6.390625 31.78125 6.390625 
Q 39.453125 6.390625 43.28125 13.890625 
Q 47.125 21.390625 47.125 36.375 
Q 47.125 51.421875 43.28125 58.90625 
Q 39.453125 66.40625 31.78125 66.40625 
z
M 31.78125 74.21875 
Q 44.046875 74.21875 50.515625 64.515625 
Q 56.984375 54.828125 56.984375 36.375 
Q 56.984375 17.96875 50.515625 8.265625 
Q 44.046875 -1.421875 31.78125 -1.421875 
Q 19.53125 -1.421875 13.0625 8.265625 
Q 6.59375 17.96875 6.59375 36.375 
Q 6.59375 54.828125 13.0625 64.515625 
Q 19.53125 74.21875 31.78125 74.21875 
z
" id="DejaVuSans-48"/>
       </defs>
       <use xlink:href="#DejaVuSans-48"/>
      </g>
     </g>
    </g>
    <g id="xtick_2">
     <g id="line2d_3">
      <path clip-path="url(#pd8e43a1721)" d="M 137.910857 298.944 
L 137.910857 27.648 
" style="fill:none;stroke:#b0b0b0;stroke-linecap:square;stroke-width:0.8;"/>
     </g>
     <g id="line2d_4">
      <g>
       <use style="stroke:#000000;stroke-width:0.8;" x="137.910857" xlink:href="#mf1012c88a3" y="298.944"/>
      </g>
     </g>
     <g id="text_2">
      <!-- 2 -->
      <g transform="translate(131.548357 321.140875)scale(0.2 -0.2)">
       <defs>
        <path d="M 19.1875 8.296875 
L 53.609375 8.296875 
L 53.609375 0 
L 7.328125 0 
L 7.328125 8.296875 
Q 12.9375 14.109375 22.625 23.890625 
Q 32.328125 33.6875 34.8125 36.53125 
Q 39.546875 41.84375 41.421875 45.53125 
Q 43.3125 49.21875 43.3125 52.78125 
Q 43.3125 58.59375 39.234375 62.25 
Q 35.15625 65.921875 28.609375 65.921875 
Q 23.96875 65.921875 18.8125 64.3125 
Q 13.671875 62.703125 7.8125 59.421875 
L 7.8125 69.390625 
Q 13.765625 71.78125 18.9375 73 
Q 24.125 74.21875 28.421875 74.21875 
Q 39.75 74.21875 46.484375 68.546875 
Q 53.21875 62.890625 53.21875 53.421875 
Q 53.21875 48.921875 51.53125 44.890625 
Q 49.859375 40.875 45.40625 35.40625 
Q 44.1875 33.984375 37.640625 27.21875 
Q 31.109375 20.453125 19.1875 8.296875 
z
" id="DejaVuSans-50"/>
       </defs>
       <use xlink:href="#DejaVuSans-50"/>
      </g>
     </g>
    </g>
    <g id="xtick_3">
     <g id="line2d_5">
      <path clip-path="url(#pd8e43a1721)" d="M 218.221714 298.944 
L 218.221714 27.648 
" style="fill:none;stroke:#b0b0b0;stroke-linecap:square;stroke-width:0.8;"/>
     </g>
     <g id="line2d_6">
      <g>
       <use style="stroke:#000000;stroke-width:0.8;" x="218.221714" xlink:href="#mf1012c88a3" y="298.944"/>
      </g>
     </g>
     <g id="text_3">
      <!-- 4 -->
      <g transform="translate(211.859214 321.140875)scale(0.2 -0.2)">
       <defs>
        <path d="M 37.796875 64.3125 
L 12.890625 25.390625 
L 37.796875 25.390625 
z
M 35.203125 72.90625 
L 47.609375 72.90625 
L 47.609375 25.390625 
L 58.015625 25.390625 
L 58.015625 17.1875 
L 47.609375 17.1875 
L 47.609375 0 
L 37.796875 0 
L 37.796875 17.1875 
L 4.890625 17.1875 
L 4.890625 26.703125 
z
" id="DejaVuSans-52"/>
       </defs>
       <use xlink:href="#DejaVuSans-52"/>
      </g>
     </g>
    </g>
    <g id="xtick_4">
     <g id="line2d_7">
      <path clip-path="url(#pd8e43a1721)" d="M 298.532571 298.944 
L 298.532571 27.648 
" style="fill:none;stroke:#b0b0b0;stroke-linecap:square;stroke-width:0.8;"/>
     </g>
     <g id="line2d_8">
      <g>
       <use style="stroke:#000000;stroke-width:0.8;" x="298.532571" xlink:href="#mf1012c88a3" y="298.944"/>
      </g>
     </g>
     <g id="text_4">
      <!-- 6 -->
      <g transform="translate(292.170071 321.140875)scale(0.2 -0.2)">
       <defs>
        <path d="M 33.015625 40.375 
Q 26.375 40.375 22.484375 35.828125 
Q 18.609375 31.296875 18.609375 23.390625 
Q 18.609375 15.53125 22.484375 10.953125 
Q 26.375 6.390625 33.015625 6.390625 
Q 39.65625 6.390625 43.53125 10.953125 
Q 47.40625 15.53125 47.40625 23.390625 
Q 47.40625 31.296875 43.53125 35.828125 
Q 39.65625 40.375 33.015625 40.375 
z
M 52.59375 71.296875 
L 52.59375 62.3125 
Q 48.875 64.0625 45.09375 64.984375 
Q 41.3125 65.921875 37.59375 65.921875 
Q 27.828125 65.921875 22.671875 59.328125 
Q 17.53125 52.734375 16.796875 39.40625 
Q 19.671875 43.65625 24.015625 45.921875 
Q 28.375 48.1875 33.59375 48.1875 
Q 44.578125 48.1875 50.953125 41.515625 
Q 57.328125 34.859375 57.328125 23.390625 
Q 57.328125 12.15625 50.6875 5.359375 
Q 44.046875 -1.421875 33.015625 -1.421875 
Q 20.359375 -1.421875 13.671875 8.265625 
Q 6.984375 17.96875 6.984375 36.375 
Q 6.984375 53.65625 15.1875 63.9375 
Q 23.390625 74.21875 37.203125 74.21875 
Q 40.921875 74.21875 44.703125 73.484375 
Q 48.484375 72.75 52.59375 71.296875 
z
" id="DejaVuSans-54"/>
       </defs>
       <use xlink:href="#DejaVuSans-54"/>
      </g>
     </g>
    </g>
    <g id="xtick_5">
     <g id="line2d_9">
      <path clip-path="url(#pd8e43a1721)" d="M 97.755429 298.944 
L 97.755429 27.648 
" style="fill:none;stroke:#b0b0b0;stroke-linecap:square;stroke-width:0.8;"/>
     </g>
     <g id="line2d_10">
      <defs>
       <path d="M 0 0 
L 0 2 
" id="m7a67918582" style="stroke:#000000;stroke-width:0.6;"/>
      </defs>
      <g>
       <use style="stroke:#000000;stroke-width:0.6;" x="97.755429" xlink:href="#m7a67918582" y="298.944"/>
      </g>
     </g>
    </g>
    <g id="xtick_6">
     <g id="line2d_11">
      <path clip-path="url(#pd8e43a1721)" d="M 178.066286 298.944 
L 178.066286 27.648 
" style="fill:none;stroke:#b0b0b0;stroke-linecap:square;stroke-width:0.8;"/>
     </g>
     <g id="line2d_12">
      <g>
       <use style="stroke:#000000;stroke-width:0.6;" x="178.066286" xlink:href="#m7a67918582" y="298.944"/>
      </g>
     </g>
    </g>
    <g id="xtick_7">
     <g id="line2d_13">
      <path clip-path="url(#pd8e43a1721)" d="M 258.377143 298.944 
L 258.377143 27.648 
" style="fill:none;stroke:#b0b0b0;stroke-linecap:square;stroke-width:0.8;"/>
     </g>
     <g id="line2d_14">
      <g>
       <use style="stroke:#000000;stroke-width:0.6;" x="258.377143" xlink:href="#m7a67918582" y="298.944"/>
      </g>
     </g>
    </g>
    <g id="xtick_8">
     <g id="line2d_15">
      <path clip-path="url(#pd8e43a1721)" d="M 338.688 298.944 
L 338.688 27.648 
" style="fill:none;stroke:#b0b0b0;stroke-linecap:square;stroke-width:0.8;"/>
     </g>
     <g id="line2d_16">
      <g>
       <use style="stroke:#000000;stroke-width:0.6;" x="338.688" xlink:href="#m7a67918582" y="298.944"/>
      </g>
     </g>
    </g>
    <g id="text_5">
     <!-- log10(# (f+g)-evals / dimension) -->
     <g transform="translate(58.145016 342.217594)scale(0.17 -0.17)">
      <defs>
       <path d="M 9.421875 75.984375 
L 18.40625 75.984375 
L 18.40625 0 
L 9.421875 0 
z
" id="DejaVuSans-108"/>
       <path d="M 30.609375 48.390625 
Q 23.390625 48.390625 19.1875 42.75 
Q 14.984375 37.109375 14.984375 27.296875 
Q 14.984375 17.484375 19.15625 11.84375 
Q 23.34375 6.203125 30.609375 6.203125 
Q 37.796875 6.203125 41.984375 11.859375 
Q 46.1875 17.53125 46.1875 27.296875 
Q 46.1875 37.015625 41.984375 42.703125 
Q 37.796875 48.390625 30.609375 48.390625 
z
M 30.609375 56 
Q 42.328125 56 49.015625 48.375 
Q 55.71875 40.765625 55.71875 27.296875 
Q 55.71875 13.875 49.015625 6.21875 
Q 42.328125 -1.421875 30.609375 -1.421875 
Q 18.84375 -1.421875 12.171875 6.21875 
Q 5.515625 13.875 5.515625 27.296875 
Q 5.515625 40.765625 12.171875 48.375 
Q 18.84375 56 30.609375 56 
z
" id="DejaVuSans-111"/>
       <path d="M 45.40625 27.984375 
Q 45.40625 37.75 41.375 43.109375 
Q 37.359375 48.484375 30.078125 48.484375 
Q 22.859375 48.484375 18.828125 43.109375 
Q 14.796875 37.75 14.796875 27.984375 
Q 14.796875 18.265625 18.828125 12.890625 
Q 22.859375 7.515625 30.078125 7.515625 
Q 37.359375 7.515625 41.375 12.890625 
Q 45.40625 18.265625 45.40625 27.984375 
z
M 54.390625 6.78125 
Q 54.390625 -7.171875 48.1875 -13.984375 
Q 42 -20.796875 29.203125 -20.796875 
Q 24.46875 -20.796875 20.265625 -20.09375 
Q 16.0625 -19.390625 12.109375 -17.921875 
L 12.109375 -9.1875 
Q 16.0625 -11.328125 19.921875 -12.34375 
Q 23.78125 -13.375 27.78125 -13.375 
Q 36.625 -13.375 41.015625 -8.765625 
Q 45.40625 -4.15625 45.40625 5.171875 
L 45.40625 9.625 
Q 42.625 4.78125 38.28125 2.390625 
Q 33.9375 0 27.875 0 
Q 17.828125 0 11.671875 7.65625 
Q 5.515625 15.328125 5.515625 27.984375 
Q 5.515625 40.671875 11.671875 48.328125 
Q 17.828125 56 27.875 56 
Q 33.9375 56 38.28125 53.609375 
Q 42.625 51.21875 45.40625 46.390625 
L 45.40625 54.6875 
L 54.390625 54.6875 
z
" id="DejaVuSans-103"/>
       <path d="M 12.40625 8.296875 
L 28.515625 8.296875 
L 28.515625 63.921875 
L 10.984375 60.40625 
L 10.984375 69.390625 
L 28.421875 72.90625 
L 38.28125 72.90625 
L 38.28125 8.296875 
L 54.390625 8.296875 
L 54.390625 0 
L 12.40625 0 
z
" id="DejaVuSans-49"/>
       <path d="M 31 75.875 
Q 24.46875 64.65625 21.28125 53.65625 
Q 18.109375 42.671875 18.109375 31.390625 
Q 18.109375 20.125 21.3125 9.0625 
Q 24.515625 -2 31 -13.1875 
L 23.1875 -13.1875 
Q 15.875 -1.703125 12.234375 9.375 
Q 8.59375 20.453125 8.59375 31.390625 
Q 8.59375 42.28125 12.203125 53.3125 
Q 15.828125 64.359375 23.1875 75.875 
z
" id="DejaVuSans-40"/>
       <path d="M 51.125 44 
L 36.921875 44 
L 32.8125 27.6875 
L 47.125 27.6875 
z
M 43.796875 71.78125 
L 38.71875 51.515625 
L 52.984375 51.515625 
L 58.109375 71.78125 
L 65.921875 71.78125 
L 60.890625 51.515625 
L 76.125 51.515625 
L 76.125 44 
L 58.984375 44 
L 54.984375 27.6875 
L 70.515625 27.6875 
L 70.515625 20.21875 
L 53.078125 20.21875 
L 48 0 
L 40.1875 0 
L 45.21875 20.21875 
L 30.90625 20.21875 
L 25.875 0 
L 18.015625 0 
L 23.09375 20.21875 
L 7.71875 20.21875 
L 7.71875 27.6875 
L 24.90625 27.6875 
L 29 44 
L 13.28125 44 
L 13.28125 51.515625 
L 30.90625 51.515625 
L 35.890625 71.78125 
z
" id="DejaVuSans-35"/>
       <path id="DejaVuSans-32"/>
       <path d="M 37.109375 75.984375 
L 37.109375 68.5 
L 28.515625 68.5 
Q 23.6875 68.5 21.796875 66.546875 
Q 19.921875 64.59375 19.921875 59.515625 
L 19.921875 54.6875 
L 34.71875 54.6875 
L 34.71875 47.703125 
L 19.921875 47.703125 
L 19.921875 0 
L 10.890625 0 
L 10.890625 47.703125 
L 2.296875 47.703125 
L 2.296875 54.6875 
L 10.890625 54.6875 
L 10.890625 58.5 
Q 10.890625 67.625 15.140625 71.796875 
Q 19.390625 75.984375 28.609375 75.984375 
z
" id="DejaVuSans-102"/>
       <path d="M 46 62.703125 
L 46 35.5 
L 73.1875 35.5 
L 73.1875 27.203125 
L 46 27.203125 
L 46 0 
L 37.796875 0 
L 37.796875 27.203125 
L 10.59375 27.203125 
L 10.59375 35.5 
L 37.796875 35.5 
L 37.796875 62.703125 
z
" id="DejaVuSans-43"/>
       <path d="M 8.015625 75.875 
L 15.828125 75.875 
Q 23.140625 64.359375 26.78125 53.3125 
Q 30.421875 42.28125 30.421875 31.390625 
Q 30.421875 20.453125 26.78125 9.375 
Q 23.140625 -1.703125 15.828125 -13.1875 
L 8.015625 -13.1875 
Q 14.5 -2 17.703125 9.0625 
Q 20.90625 20.125 20.90625 31.390625 
Q 20.90625 42.671875 17.703125 53.65625 
Q 14.5 64.65625 8.015625 75.875 
z
" id="DejaVuSans-41"/>
       <path d="M 4.890625 31.390625 
L 31.203125 31.390625 
L 31.203125 23.390625 
L 4.890625 23.390625 
z
" id="DejaVuSans-45"/>
       <path d="M 56.203125 29.59375 
L 56.203125 25.203125 
L 14.890625 25.203125 
Q 15.484375 15.921875 20.484375 11.0625 
Q 25.484375 6.203125 34.421875 6.203125 
Q 39.59375 6.203125 44.453125 7.46875 
Q 49.3125 8.734375 54.109375 11.28125 
L 54.109375 2.78125 
Q 49.265625 0.734375 44.1875 -0.34375 
Q 39.109375 -1.421875 33.890625 -1.421875 
Q 20.796875 -1.421875 13.15625 6.1875 
Q 5.515625 13.8125 5.515625 26.8125 
Q 5.515625 40.234375 12.765625 48.109375 
Q 20.015625 56 32.328125 56 
Q 43.359375 56 49.78125 48.890625 
Q 56.203125 41.796875 56.203125 29.59375 
z
M 47.21875 32.234375 
Q 47.125 39.59375 43.09375 43.984375 
Q 39.0625 48.390625 32.421875 48.390625 
Q 24.90625 48.390625 20.390625 44.140625 
Q 15.875 39.890625 15.1875 32.171875 
z
" id="DejaVuSans-101"/>
       <path d="M 2.984375 54.6875 
L 12.5 54.6875 
L 29.59375 8.796875 
L 46.6875 54.6875 
L 56.203125 54.6875 
L 35.6875 0 
L 23.484375 0 
z
" id="DejaVuSans-118"/>
       <path d="M 34.28125 27.484375 
Q 23.390625 27.484375 19.1875 25 
Q 14.984375 22.515625 14.984375 16.5 
Q 14.984375 11.71875 18.140625 8.90625 
Q 21.296875 6.109375 26.703125 6.109375 
Q 34.1875 6.109375 38.703125 11.40625 
Q 43.21875 16.703125 43.21875 25.484375 
L 43.21875 27.484375 
z
M 52.203125 31.203125 
L 52.203125 0 
L 43.21875 0 
L 43.21875 8.296875 
Q 40.140625 3.328125 35.546875 0.953125 
Q 30.953125 -1.421875 24.3125 -1.421875 
Q 15.921875 -1.421875 10.953125 3.296875 
Q 6 8.015625 6 15.921875 
Q 6 25.140625 12.171875 29.828125 
Q 18.359375 34.515625 30.609375 34.515625 
L 43.21875 34.515625 
L 43.21875 35.40625 
Q 43.21875 41.609375 39.140625 45 
Q 35.0625 48.390625 27.6875 48.390625 
Q 23 48.390625 18.546875 47.265625 
Q 14.109375 46.140625 10.015625 43.890625 
L 10.015625 52.203125 
Q 14.9375 54.109375 19.578125 55.046875 
Q 24.21875 56 28.609375 56 
Q 40.484375 56 46.34375 49.84375 
Q 52.203125 43.703125 52.203125 31.203125 
z
" id="DejaVuSans-97"/>
       <path d="M 44.28125 53.078125 
L 44.28125 44.578125 
Q 40.484375 46.53125 36.375 47.5 
Q 32.28125 48.484375 27.875 48.484375 
Q 21.1875 48.484375 17.84375 46.4375 
Q 14.5 44.390625 14.5 40.28125 
Q 14.5 37.15625 16.890625 35.375 
Q 19.28125 33.59375 26.515625 31.984375 
L 29.59375 31.296875 
Q 39.15625 29.25 43.1875 25.515625 
Q 47.21875 21.78125 47.21875 15.09375 
Q 47.21875 7.46875 41.1875 3.015625 
Q 35.15625 -1.421875 24.609375 -1.421875 
Q 20.21875 -1.421875 15.453125 -0.5625 
Q 10.6875 0.296875 5.421875 2 
L 5.421875 11.28125 
Q 10.40625 8.6875 15.234375 7.390625 
Q 20.0625 6.109375 24.8125 6.109375 
Q 31.15625 6.109375 34.5625 8.28125 
Q 37.984375 10.453125 37.984375 14.40625 
Q 37.984375 18.0625 35.515625 20.015625 
Q 33.0625 21.96875 24.703125 23.78125 
L 21.578125 24.515625 
Q 13.234375 26.265625 9.515625 29.90625 
Q 5.8125 33.546875 5.8125 39.890625 
Q 5.8125 47.609375 11.28125 51.796875 
Q 16.75 56 26.8125 56 
Q 31.78125 56 36.171875 55.265625 
Q 40.578125 54.546875 44.28125 53.078125 
z
" id="DejaVuSans-115"/>
       <path d="M 25.390625 72.90625 
L 33.6875 72.90625 
L 8.296875 -9.28125 
L 0 -9.28125 
z
" id="DejaVuSans-47"/>
       <path d="M 45.40625 46.390625 
L 45.40625 75.984375 
L 54.390625 75.984375 
L 54.390625 0 
L 45.40625 0 
L 45.40625 8.203125 
Q 42.578125 3.328125 38.25 0.953125 
Q 33.9375 -1.421875 27.875 -1.421875 
Q 17.96875 -1.421875 11.734375 6.484375 
Q 5.515625 14.40625 5.515625 27.296875 
Q 5.515625 40.1875 11.734375 48.09375 
Q 17.96875 56 27.875 56 
Q 33.9375 56 38.25 53.625 
Q 42.578125 51.265625 45.40625 46.390625 
z
M 14.796875 27.296875 
Q 14.796875 17.390625 18.875 11.75 
Q 22.953125 6.109375 30.078125 6.109375 
Q 37.203125 6.109375 41.296875 11.75 
Q 45.40625 17.390625 45.40625 27.296875 
Q 45.40625 37.203125 41.296875 42.84375 
Q 37.203125 48.484375 30.078125 48.484375 
Q 22.953125 48.484375 18.875 42.84375 
Q 14.796875 37.203125 14.796875 27.296875 
z
" id="DejaVuSans-100"/>
       <path d="M 9.421875 54.6875 
L 18.40625 54.6875 
L 18.40625 0 
L 9.421875 0 
z
M 9.421875 75.984375 
L 18.40625 75.984375 
L 18.40625 64.59375 
L 9.421875 64.59375 
z
" id="DejaVuSans-105"/>
       <path d="M 52 44.1875 
Q 55.375 50.25 60.0625 53.125 
Q 64.75 56 71.09375 56 
Q 79.640625 56 84.28125 50.015625 
Q 88.921875 44.046875 88.921875 33.015625 
L 88.921875 0 
L 79.890625 0 
L 79.890625 32.71875 
Q 79.890625 40.578125 77.09375 44.375 
Q 74.3125 48.1875 68.609375 48.1875 
Q 61.625 48.1875 57.5625 43.546875 
Q 53.515625 38.921875 53.515625 30.90625 
L 53.515625 0 
L 44.484375 0 
L 44.484375 32.71875 
Q 44.484375 40.625 41.703125 44.40625 
Q 38.921875 48.1875 33.109375 48.1875 
Q 26.21875 48.1875 22.15625 43.53125 
Q 18.109375 38.875 18.109375 30.90625 
L 18.109375 0 
L 9.078125 0 
L 9.078125 54.6875 
L 18.109375 54.6875 
L 18.109375 46.1875 
Q 21.1875 51.21875 25.484375 53.609375 
Q 29.78125 56 35.6875 56 
Q 41.65625 56 45.828125 52.96875 
Q 50 49.953125 52 44.1875 
z
" id="DejaVuSans-109"/>
       <path d="M 54.890625 33.015625 
L 54.890625 0 
L 45.90625 0 
L 45.90625 32.71875 
Q 45.90625 40.484375 42.875 44.328125 
Q 39.84375 48.1875 33.796875 48.1875 
Q 26.515625 48.1875 22.3125 43.546875 
Q 18.109375 38.921875 18.109375 30.90625 
L 18.109375 0 
L 9.078125 0 
L 9.078125 54.6875 
L 18.109375 54.6875 
L 18.109375 46.1875 
Q 21.34375 51.125 25.703125 53.5625 
Q 30.078125 56 35.796875 56 
Q 45.21875 56 50.046875 50.171875 
Q 54.890625 44.34375 54.890625 33.015625 
z
" id="DejaVuSans-110"/>
      </defs>
      <use xlink:href="#DejaVuSans-108"/>
      <use x="27.783203" xlink:href="#DejaVuSans-111"/>
      <use x="88.964844" xlink:href="#DejaVuSans-103"/>
      <use x="152.441406" xlink:href="#DejaVuSans-49"/>
      <use x="216.064453" xlink:href="#DejaVuSans-48"/>
      <use x="279.6875" xlink:href="#DejaVuSans-40"/>
      <use x="318.701172" xlink:href="#DejaVuSans-35"/>
      <use x="402.490234" xlink:href="#DejaVuSans-32"/>
      <use x="434.277344" xlink:href="#DejaVuSans-40"/>
      <use x="473.291016" xlink:href="#DejaVuSans-102"/>
      <use x="508.496094" xlink:href="#DejaVuSans-43"/>
      <use x="592.285156" xlink:href="#DejaVuSans-103"/>
      <use x="655.761719" xlink:href="#DejaVuSans-41"/>
      <use x="694.775391" xlink:href="#DejaVuSans-45"/>
      <use x="730.859375" xlink:href="#DejaVuSans-101"/>
      <use x="792.382812" xlink:href="#DejaVuSans-118"/>
      <use x="851.5625" xlink:href="#DejaVuSans-97"/>
      <use x="912.841797" xlink:href="#DejaVuSans-108"/>
      <use x="940.625" xlink:href="#DejaVuSans-115"/>
      <use x="992.724609" xlink:href="#DejaVuSans-32"/>
      <use x="1024.511719" xlink:href="#DejaVuSans-47"/>
      <use x="1058.203125" xlink:href="#DejaVuSans-32"/>
      <use x="1089.990234" xlink:href="#DejaVuSans-100"/>
      <use x="1153.466797" xlink:href="#DejaVuSans-105"/>
      <use x="1181.25" xlink:href="#DejaVuSans-109"/>
      <use x="1278.662109" xlink:href="#DejaVuSans-101"/>
      <use x="1340.185547" xlink:href="#DejaVuSans-110"/>
      <use x="1403.564453" xlink:href="#DejaVuSans-115"/>
      <use x="1455.664062" xlink:href="#DejaVuSans-105"/>
      <use x="1483.447266" xlink:href="#DejaVuSans-111"/>
      <use x="1544.628906" xlink:href="#DejaVuSans-110"/>
      <use x="1608.007812" xlink:href="#DejaVuSans-41"/>
     </g>
    </g>
   </g>
   <g id="matplotlib.axis_2">
    <g id="ytick_1">
     <g id="line2d_17">
      <path clip-path="url(#pd8e43a1721)" d="M 57.6 298.944 
L 338.688 298.944 
" style="fill:none;stroke:#b0b0b0;stroke-linecap:square;stroke-width:0.8;"/>
     </g>
     <g id="line2d_18">
      <defs>
       <path d="M 0 0 
L -3.5 0 
" id="m5bd016fdf1" style="stroke:#000000;stroke-width:0.8;"/>
      </defs>
      <g>
       <use style="stroke:#000000;stroke-width:0.8;" x="57.6" xlink:href="#m5bd016fdf1" y="298.944"/>
      </g>
     </g>
     <g id="text_6">
      <!-- 0.0 -->
      <g transform="translate(25.155 305.02275)scale(0.16 -0.16)">
       <defs>
        <path d="M 10.6875 12.40625 
L 21 12.40625 
L 21 0 
L 10.6875 0 
z
" id="DejaVuSans-46"/>
       </defs>
       <use xlink:href="#DejaVuSans-48"/>
       <use x="63.623047" xlink:href="#DejaVuSans-46"/>
       <use x="95.410156" xlink:href="#DejaVuSans-48"/>
      </g>
     </g>
    </g>
    <g id="ytick_2">
     <g id="line2d_19">
      <path clip-path="url(#pd8e43a1721)" d="M 57.6 245.22202 
L 338.688 245.22202 
" style="fill:none;stroke:#b0b0b0;stroke-linecap:square;stroke-width:0.8;"/>
     </g>
     <g id="line2d_20">
      <g>
       <use style="stroke:#000000;stroke-width:0.8;" x="57.6" xlink:href="#m5bd016fdf1" y="245.22202"/>
      </g>
     </g>
     <g id="text_7">
      <!-- 0.2 -->
      <g transform="translate(25.155 251.30077)scale(0.16 -0.16)">
       <use xlink:href="#DejaVuSans-48"/>
       <use x="63.623047" xlink:href="#DejaVuSans-46"/>
       <use x="95.410156" xlink:href="#DejaVuSans-50"/>
      </g>
     </g>
    </g>
    <g id="ytick_3">
     <g id="line2d_21">
      <path clip-path="url(#pd8e43a1721)" d="M 57.6 191.50004 
L 338.688 191.50004 
" style="fill:none;stroke:#b0b0b0;stroke-linecap:square;stroke-width:0.8;"/>
     </g>
     <g id="line2d_22">
      <g>
       <use style="stroke:#000000;stroke-width:0.8;" x="57.6" xlink:href="#m5bd016fdf1" y="191.50004"/>
      </g>
     </g>
     <g id="text_8">
      <!-- 0.4 -->
      <g transform="translate(25.155 197.57879)scale(0.16 -0.16)">
       <use xlink:href="#DejaVuSans-48"/>
       <use x="63.623047" xlink:href="#DejaVuSans-46"/>
       <use x="95.410156" xlink:href="#DejaVuSans-52"/>
      </g>
     </g>
    </g>
    <g id="ytick_4">
     <g id="line2d_23">
      <path clip-path="url(#pd8e43a1721)" d="M 57.6 137.778059 
L 338.688 137.778059 
" style="fill:none;stroke:#b0b0b0;stroke-linecap:square;stroke-width:0.8;"/>
     </g>
     <g id="line2d_24">
      <g>
       <use style="stroke:#000000;stroke-width:0.8;" x="57.6" xlink:href="#m5bd016fdf1" y="137.778059"/>
      </g>
     </g>
     <g id="text_9">
      <!-- 0.6 -->
      <g transform="translate(25.155 143.856809)scale(0.16 -0.16)">
       <use xlink:href="#DejaVuSans-48"/>
       <use x="63.623047" xlink:href="#DejaVuSans-46"/>
       <use x="95.410156" xlink:href="#DejaVuSans-54"/>
      </g>
     </g>
    </g>
    <g id="ytick_5">
     <g id="line2d_25">
      <path clip-path="url(#pd8e43a1721)" d="M 57.6 84.056079 
L 338.688 84.056079 
" style="fill:none;stroke:#b0b0b0;stroke-linecap:square;stroke-width:0.8;"/>
     </g>
     <g id="line2d_26">
      <g>
       <use style="stroke:#000000;stroke-width:0.8;" x="57.6" xlink:href="#m5bd016fdf1" y="84.056079"/>
      </g>
     </g>
     <g id="text_10">
      <!-- 0.8 -->
      <g transform="translate(25.155 90.134829)scale(0.16 -0.16)">
       <defs>
        <path d="M 31.78125 34.625 
Q 24.75 34.625 20.71875 30.859375 
Q 16.703125 27.09375 16.703125 20.515625 
Q 16.703125 13.921875 20.71875 10.15625 
Q 24.75 6.390625 31.78125 6.390625 
Q 38.8125 6.390625 42.859375 10.171875 
Q 46.921875 13.96875 46.921875 20.515625 
Q 46.921875 27.09375 42.890625 30.859375 
Q 38.875 34.625 31.78125 34.625 
z
M 21.921875 38.8125 
Q 15.578125 40.375 12.03125 44.71875 
Q 8.5 49.078125 8.5 55.328125 
Q 8.5 64.0625 14.71875 69.140625 
Q 20.953125 74.21875 31.78125 74.21875 
Q 42.671875 74.21875 48.875 69.140625 
Q 55.078125 64.0625 55.078125 55.328125 
Q 55.078125 49.078125 51.53125 44.71875 
Q 48 40.375 41.703125 38.8125 
Q 48.828125 37.15625 52.796875 32.3125 
Q 56.78125 27.484375 56.78125 20.515625 
Q 56.78125 9.90625 50.3125 4.234375 
Q 43.84375 -1.421875 31.78125 -1.421875 
Q 19.734375 -1.421875 13.25 4.234375 
Q 6.78125 9.90625 6.78125 20.515625 
Q 6.78125 27.484375 10.78125 32.3125 
Q 14.796875 37.15625 21.921875 38.8125 
z
M 18.3125 54.390625 
Q 18.3125 48.734375 21.84375 45.5625 
Q 25.390625 42.390625 31.78125 42.390625 
Q 38.140625 42.390625 41.71875 45.5625 
Q 45.3125 48.734375 45.3125 54.390625 
Q 45.3125 60.0625 41.71875 63.234375 
Q 38.140625 66.40625 31.78125 66.40625 
Q 25.390625 66.40625 21.84375 63.234375 
Q 18.3125 60.0625 18.3125 54.390625 
z
" id="DejaVuSans-56"/>
       </defs>
       <use xlink:href="#DejaVuSans-48"/>
       <use x="63.623047" xlink:href="#DejaVuSans-46"/>
       <use x="95.410156" xlink:href="#DejaVuSans-56"/>
      </g>
     </g>
    </g>
    <g id="ytick_6">
     <g id="line2d_27">
      <path clip-path="url(#pd8e43a1721)" d="M 57.6 30.334099 
L 338.688 30.334099 
" style="fill:none;stroke:#b0b0b0;stroke-linecap:square;stroke-width:0.8;"/>
     </g>
     <g id="line2d_28">
      <g>
       <use style="stroke:#000000;stroke-width:0.8;" x="57.6" xlink:href="#m5bd016fdf1" y="30.334099"/>
      </g>
     </g>
     <g id="text_11">
      <!-- 1.0 -->
      <g transform="translate(25.155 36.412849)scale(0.16 -0.16)">
       <use xlink:href="#DejaVuSans-49"/>
       <use x="63.623047" xlink:href="#DejaVuSans-46"/>
       <use x="95.410156" xlink:href="#DejaVuSans-48"/>
      </g>
     </g>
    </g>
    <g id="text_12">
     <!-- Fraction of function,target pairs -->
     <g transform="translate(17.619531 297.681)rotate(-90)scale(0.17 -0.17)">
      <defs>
       <path d="M 9.8125 72.90625 
L 51.703125 72.90625 
L 51.703125 64.59375 
L 19.671875 64.59375 
L 19.671875 43.109375 
L 48.578125 43.109375 
L 48.578125 34.8125 
L 19.671875 34.8125 
L 19.671875 0 
L 9.8125 0 
z
" id="DejaVuSans-70"/>
       <path d="M 41.109375 46.296875 
Q 39.59375 47.171875 37.8125 47.578125 
Q 36.03125 48 33.890625 48 
Q 26.265625 48 22.1875 43.046875 
Q 18.109375 38.09375 18.109375 28.8125 
L 18.109375 0 
L 9.078125 0 
L 9.078125 54.6875 
L 18.109375 54.6875 
L 18.109375 46.1875 
Q 20.953125 51.171875 25.484375 53.578125 
Q 30.03125 56 36.53125 56 
Q 37.453125 56 38.578125 55.875 
Q 39.703125 55.765625 41.0625 55.515625 
z
" id="DejaVuSans-114"/>
       <path d="M 48.78125 52.59375 
L 48.78125 44.1875 
Q 44.96875 46.296875 41.140625 47.34375 
Q 37.3125 48.390625 33.40625 48.390625 
Q 24.65625 48.390625 19.8125 42.84375 
Q 14.984375 37.3125 14.984375 27.296875 
Q 14.984375 17.28125 19.8125 11.734375 
Q 24.65625 6.203125 33.40625 6.203125 
Q 37.3125 6.203125 41.140625 7.25 
Q 44.96875 8.296875 48.78125 10.40625 
L 48.78125 2.09375 
Q 45.015625 0.34375 40.984375 -0.53125 
Q 36.96875 -1.421875 32.421875 -1.421875 
Q 20.0625 -1.421875 12.78125 6.34375 
Q 5.515625 14.109375 5.515625 27.296875 
Q 5.515625 40.671875 12.859375 48.328125 
Q 20.21875 56 33.015625 56 
Q 37.15625 56 41.109375 55.140625 
Q 45.0625 54.296875 48.78125 52.59375 
z
" id="DejaVuSans-99"/>
       <path d="M 18.3125 70.21875 
L 18.3125 54.6875 
L 36.8125 54.6875 
L 36.8125 47.703125 
L 18.3125 47.703125 
L 18.3125 18.015625 
Q 18.3125 11.328125 20.140625 9.421875 
Q 21.96875 7.515625 27.59375 7.515625 
L 36.8125 7.515625 
L 36.8125 0 
L 27.59375 0 
Q 17.1875 0 13.234375 3.875 
Q 9.28125 7.765625 9.28125 18.015625 
L 9.28125 47.703125 
L 2.6875 47.703125 
L 2.6875 54.6875 
L 9.28125 54.6875 
L 9.28125 70.21875 
z
" id="DejaVuSans-116"/>
       <path d="M 8.5 21.578125 
L 8.5 54.6875 
L 17.484375 54.6875 
L 17.484375 21.921875 
Q 17.484375 14.15625 20.5 10.265625 
Q 23.53125 6.390625 29.59375 6.390625 
Q 36.859375 6.390625 41.078125 11.03125 
Q 45.3125 15.671875 45.3125 23.6875 
L 45.3125 54.6875 
L 54.296875 54.6875 
L 54.296875 0 
L 45.3125 0 
L 45.3125 8.40625 
Q 42.046875 3.421875 37.71875 1 
Q 33.40625 -1.421875 27.6875 -1.421875 
Q 18.265625 -1.421875 13.375 4.4375 
Q 8.5 10.296875 8.5 21.578125 
z
M 31.109375 56 
z
" id="DejaVuSans-117"/>
       <path d="M 11.71875 12.40625 
L 22.015625 12.40625 
L 22.015625 4 
L 14.015625 -11.625 
L 7.71875 -11.625 
L 11.71875 4 
z
" id="DejaVuSans-44"/>
       <path d="M 18.109375 8.203125 
L 18.109375 -20.796875 
L 9.078125 -20.796875 
L 9.078125 54.6875 
L 18.109375 54.6875 
L 18.109375 46.390625 
Q 20.953125 51.265625 25.265625 53.625 
Q 29.59375 56 35.59375 56 
Q 45.5625 56 51.78125 48.09375 
Q 58.015625 40.1875 58.015625 27.296875 
Q 58.015625 14.40625 51.78125 6.484375 
Q 45.5625 -1.421875 35.59375 -1.421875 
Q 29.59375 -1.421875 25.265625 0.953125 
Q 20.953125 3.328125 18.109375 8.203125 
z
M 48.6875 27.296875 
Q 48.6875 37.203125 44.609375 42.84375 
Q 40.53125 48.484375 33.40625 48.484375 
Q 26.265625 48.484375 22.1875 42.84375 
Q 18.109375 37.203125 18.109375 27.296875 
Q 18.109375 17.390625 22.1875 11.75 
Q 26.265625 6.109375 33.40625 6.109375 
Q 40.53125 6.109375 44.609375 11.75 
Q 48.6875 17.390625 48.6875 27.296875 
z
" id="DejaVuSans-112"/>
      </defs>
      <use xlink:href="#DejaVuSans-70"/>
      <use x="50.269531" xlink:href="#DejaVuSans-114"/>
      <use x="91.382812" xlink:href="#DejaVuSans-97"/>
      <use x="152.662109" xlink:href="#DejaVuSans-99"/>
      <use x="207.642578" xlink:href="#DejaVuSans-116"/>
      <use x="246.851562" xlink:href="#DejaVuSans-105"/>
      <use x="274.634766" xlink:href="#DejaVuSans-111"/>
      <use x="335.816406" xlink:href="#DejaVuSans-110"/>
      <use x="399.195312" xlink:href="#DejaVuSans-32"/>
      <use x="430.982422" xlink:href="#DejaVuSans-111"/>
      <use x="492.164062" xlink:href="#DejaVuSans-102"/>
      <use x="527.369141" xlink:href="#DejaVuSans-32"/>
      <use x="559.15625" xlink:href="#DejaVuSans-102"/>
      <use x="594.361328" xlink:href="#DejaVuSans-117"/>
      <use x="657.740234" xlink:href="#DejaVuSans-110"/>
      <use x="721.119141" xlink:href="#DejaVuSans-99"/>
      <use x="776.099609" xlink:href="#DejaVuSans-116"/>
      <use x="815.308594" xlink:href="#DejaVuSans-105"/>
      <use x="843.091797" xlink:href="#DejaVuSans-111"/>
      <use x="904.273438" xlink:href="#DejaVuSans-110"/>
      <use x="967.652344" xlink:href="#DejaVuSans-44"/>
      <use x="999.439453" xlink:href="#DejaVuSans-116"/>
      <use x="1038.648438" xlink:href="#DejaVuSans-97"/>
      <use x="1099.927734" xlink:href="#DejaVuSans-114"/>
      <use x="1139.291016" xlink:href="#DejaVuSans-103"/>
      <use x="1202.767578" xlink:href="#DejaVuSans-101"/>
      <use x="1264.291016" xlink:href="#DejaVuSans-116"/>
      <use x="1303.5" xlink:href="#DejaVuSans-32"/>
      <use x="1335.287109" xlink:href="#DejaVuSans-112"/>
      <use x="1398.763672" xlink:href="#DejaVuSans-97"/>
      <use x="1460.042969" xlink:href="#DejaVuSans-105"/>
      <use x="1487.826172" xlink:href="#DejaVuSans-114"/>
      <use x="1528.939453" xlink:href="#DejaVuSans-115"/>
     </g>
    </g>
   </g>
   <g id="line2d_29">
    <defs>
     <path d="M 0 1.5 
C 0.397805 1.5 0.77937 1.341951 1.06066 1.06066 
C 1.341951 0.77937 1.5 0.397805 1.5 0 
C 1.5 -0.397805 1.341951 -0.77937 1.06066 -1.06066 
C 0.77937 -1.341951 0.397805 -1.5 0 -1.5 
C -0.397805 -1.5 -0.77937 -1.341951 -1.06066 -1.06066 
C -1.341951 -0.77937 -1.5 -0.397805 -1.5 0 
C -1.5 0.397805 -1.341951 0.77937 -1.06066 1.06066 
C -0.77937 1.341951 -0.397805 1.5 0 1.5 
z
" id="m19bc76d435" style="stroke:#000080;"/>
    </defs>
    <g>
     <use style="fill:#000080;stroke:#000080;" x="236.788301" xlink:href="#m19bc76d435" y="148.260397"/>
     <use style="fill:#000080;stroke:#000080;" x="236.788301" xlink:href="#m19bc76d435" y="148.260397"/>
    </g>
   </g>
   <g id="line2d_30">
    <path d="M 74.921597 298.944 
L 74.921597 296.978562 
L 77.330839 296.978562 
L 77.330839 295.013123 
L 84.588378 295.013123 
L 84.588378 294.357977 
L 87.329581 294.357977 
L 87.329581 293.047685 
L 91.782644 293.047685 
L 91.782644 289.116809 
L 92.267099 289.116809 
L 92.267099 287.15137 
L 92.73846 287.15137 
L 92.73846 286.496224 
L 93.197415 286.496224 
L 93.197415 285.841078 
L 93.644601 285.841078 
L 93.644601 285.185932 
L 94.505975 285.185932 
L 94.505975 284.530786 
L 95.723163 284.530786 
L 95.723163 283.220494 
L 96.110718 283.220494 
L 96.110718 282.565348 
L 96.489848 282.565348 
L 96.489848 280.599909 
L 97.928955 280.599909 
L 97.928955 277.979325 
L 99.575392 277.979325 
L 99.575392 277.324179 
L 99.886816 277.324179 
L 99.886816 276.013887 
L 100.493461 276.013887 
L 100.493461 271.427864 
L 100.789049 271.427864 
L 100.789049 269.462426 
L 101.079711 269.462426 
L 101.079711 268.807279 
L 101.646892 268.807279 
L 101.646892 267.496987 
L 102.196206 267.496987 
L 102.196206 264.221257 
L 102.464508 264.221257 
L 102.464508 262.255818 
L 102.728744 262.255818 
L 102.728744 260.945526 
L 102.989037 260.945526 
L 102.989037 259.635234 
L 103.245502 259.635234 
L 103.245502 258.980088 
L 103.747386 258.980088 
L 103.747386 258.324942 
L 104.474128 258.324942 
L 104.474128 257.669796 
L 105.171792 257.669796 
L 105.171792 256.359504 
L 105.621863 256.359504 
L 105.621863 254.394065 
L 106.275913 254.394065 
L 106.275913 251.773481 
L 106.698704 251.773481 
L 106.698704 251.118335 
L 106.906317 251.118335 
L 106.906317 250.463189 
L 107.111487 250.463189 
L 107.111487 249.808043 
L 107.314272 249.808043 
L 107.314272 247.842604 
L 107.514726 247.842604 
L 107.514726 245.877166 
L 108.483824 245.877166 
L 108.483824 245.22202 
L 108.671345 245.22202 
L 108.671345 243.911728 
L 109.401893 243.911728 
L 109.401893 241.291143 
L 109.930396 241.291143 
L 109.930396 238.670559 
L 110.443353 238.670559 
L 110.443353 236.705121 
L 111.104637 236.705121 
L 111.104637 236.049974 
L 111.74176 236.049974 
L 111.74176 235.394828 
L 111.897469 235.394828 
L 111.897469 234.739682 
L 112.204777 234.739682 
L 112.204777 231.463952 
L 112.655818 231.463952 
L 112.655818 230.808806 
L 113.382559 230.808806 
L 113.382559 230.15366 
L 113.664983 230.15366 
L 113.664983 228.843367 
L 113.804498 228.843367 
L 113.804498 226.222783 
L 114.080224 226.222783 
L 114.080224 225.567637 
L 114.351658 225.567637 
L 114.351658 224.912491 
L 114.751048 224.912491 
L 114.751048 224.257345 
L 115.523393 224.257345 
L 115.523393 223.602199 
L 116.621333 223.602199 
L 116.621333 222.947052 
L 117.087964 222.947052 
L 117.087964 222.291906 
L 117.316679 222.291906 
L 117.316679 221.63676 
L 117.765302 221.63676 
L 117.765302 220.981614 
L 118.838828 220.981614 
L 118.838828 220.326468 
L 120.524615 220.326468 
L 120.524615 219.671322 
L 121.174025 219.671322 
L 121.174025 219.016176 
L 132.963507 219.016176 
L 132.963507 218.36103 
L 135.178927 218.36103 
L 135.178927 217.705884 
L 135.421987 217.705884 
L 135.421987 217.050738 
L 138.067109 217.050738 
L 138.067109 216.395591 
L 142.147664 216.395591 
L 142.147664 215.740445 
L 144.062866 215.740445 
L 144.062866 214.430153 
L 144.59393 214.430153 
L 144.59393 213.775007 
L 150.267081 213.775007 
L 150.267081 212.464715 
L 150.891184 212.464715 
L 150.891184 211.809569 
L 151.905007 211.809569 
L 151.905007 211.154423 
L 152.981099 211.154423 
L 152.981099 210.499277 
L 153.715038 210.499277 
L 153.715038 209.84413 
L 154.324333 209.84413 
L 154.324333 209.188984 
L 155.722837 209.188984 
L 155.722837 208.533838 
L 157.624812 208.533838 
L 157.624812 207.223546 
L 157.781772 207.223546 
L 157.781772 206.5684 
L 158.957778 206.5684 
L 158.957778 204.602962 
L 159.216679 204.602962 
L 159.216679 203.947816 
L 159.842643 203.947816 
L 159.842643 203.292669 
L 159.971091 203.292669 
L 159.971091 202.637523 
L 162.03881 202.637523 
L 162.03881 201.982377 
L 163.0577 201.982377 
L 163.090659 200.016939 
L 163.800424 200.016939 
L 163.800424 199.361793 
L 164.641313 199.361793 
L 164.641313 198.706647 
L 164.976981 198.706647 
L 164.976981 198.051501 
L 165.138764 198.051501 
L 165.138764 197.396355 
L 166.839125 197.396355 
L 166.839125 196.741208 
L 168.593675 196.741208 
L 168.593675 196.086062 
L 169.523133 196.086062 
L 169.523133 195.430916 
L 170.620687 195.430916 
L 170.620687 194.77577 
L 171.592674 194.77577 
L 171.602783 193.465478 
L 172.235384 193.465478 
L 172.281613 192.155186 
L 172.412336 192.155186 
L 172.498943 190.189747 
L 172.554051 190.189747 
L 172.554051 189.534601 
L 173.456103 189.534601 
L 173.456103 188.879455 
L 174.755793 188.879455 
L 174.755793 188.224309 
L 177.843388 188.224309 
L 177.843388 187.569163 
L 178.3911 187.569163 
L 178.3911 186.914017 
L 179.244574 186.914017 
L 179.306404 182.98314 
L 179.380959 182.98314 
L 179.487375 179.70741 
L 179.516285 179.70741 
L 179.516285 179.052264 
L 180.366615 179.052264 
L 180.409359 177.741972 
L 181.076443 177.741972 
L 181.076443 177.086825 
L 183.271451 177.086825 
L 183.303769 175.121387 
L 183.44526 175.121387 
L 183.44526 174.466241 
L 183.800322 174.466241 
L 183.800322 173.811095 
L 184.105179 173.811095 
L 184.105179 173.155949 
L 185.899365 173.155949 
L 185.899365 172.500803 
L 187.947727 172.500803 
L 187.947727 171.845657 
L 188.621315 171.845657 
L 188.621315 171.190511 
L 189.545608 171.190511 
L 189.545608 170.535364 
L 190.466246 170.535364 
L 190.466246 169.880218 
L 192.45384 169.880218 
L 192.550629 168.569926 
L 192.937709 168.569926 
L 192.937709 167.91478 
L 193.311291 167.91478 
L 193.422256 165.949342 
L 193.80835 165.949342 
L 193.80835 165.294196 
L 194.181236 165.294196 
L 194.207519 163.983903 
L 194.528005 163.983903 
L 194.528005 163.328757 
L 194.812025 163.328757 
L 194.812025 162.673611 
L 195.04808 162.673611 
L 195.04808 162.018465 
L 195.954087 162.018465 
L 195.954087 161.363319 
L 196.267636 161.363319 
L 196.267636 160.708173 
L 196.37966 160.708173 
L 196.37966 160.053027 
L 198.166168 160.053027 
L 198.166168 159.397881 
L 202.807623 159.397881 
L 202.807623 158.742735 
L 203.132115 158.742735 
L 203.132115 158.087589 
L 205.406554 158.087589 
L 205.406554 157.432442 
L 206.934693 157.432442 
L 206.934693 156.777296 
L 208.008592 156.777296 
L 208.008592 156.12215 
L 209.750141 156.12215 
L 209.750141 155.467004 
L 212.356426 155.467004 
L 212.373018 154.156712 
L 215.453031 154.156712 
L 215.453031 153.501566 
L 218.609237 153.501566 
L 218.609237 152.84642 
L 220.396415 152.84642 
L 220.396415 152.191274 
L 221.828064 152.191274 
L 221.828064 151.536128 
L 222.999218 151.536128 
L 222.999218 150.880981 
L 225.391278 150.880981 
L 225.391278 150.225835 
L 227.015964 150.225835 
L 227.015964 149.570689 
L 233.458641 149.570689 
L 233.458641 148.915543 
L 236.788301 148.915543 
L 236.788301 148.260397 
L 338.688 148.260397 
L 338.688 148.260397 
" style="fill:none;stroke:#000080;stroke-linecap:square;stroke-width:1.5;"/>
   </g>
   <g id="line2d_31">
    <defs>
     <path d="M 0 6 
C 1.591219 6 3.117479 5.367802 4.242641 4.242641 
C 5.367802 3.117479 6 1.591219 6 0 
C 6 -1.591219 5.367802 -3.117479 4.242641 -4.242641 
C 3.117479 -5.367802 1.591219 -6 0 -6 
C -1.591219 -6 -3.117479 -5.367802 -4.242641 -4.242641 
C -5.367802 -3.117479 -6 -1.591219 -6 0 
C -6 1.591219 -5.367802 3.117479 -4.242641 4.242641 
C -3.117479 5.367802 -1.591219 6 0 6 
z
" id="mb07c6811b9" style="stroke:#000080;stroke-width:1.5;"/>
    </defs>
    <g>
     <use style="fill-opacity:0;stroke:#000080;stroke-width:1.5;" x="116.621333" xlink:href="#mb07c6811b9" y="222.947052"/>
     <use style="fill-opacity:0;stroke:#000080;stroke-width:1.5;" x="174.755793" xlink:href="#mb07c6811b9" y="188.879455"/>
     <use style="fill-opacity:0;stroke:#000080;stroke-width:1.5;" x="236.788301" xlink:href="#mb07c6811b9" y="148.915543"/>
     <use style="fill-opacity:0;stroke:#000080;stroke-width:1.5;" x="236.788301" xlink:href="#mb07c6811b9" y="148.260397"/>
     <use style="fill-opacity:0;stroke:#000080;stroke-width:1.5;" x="338.688" xlink:href="#mb07c6811b9" y="148.260397"/>
    </g>
   </g>
   <g id="line2d_32">
    <path style="fill:none;stroke:#000080;stroke-linecap:square;stroke-width:1.5;"/>
    <g/>
   </g>
   <g id="line2d_33">
    <path clip-path="url(#pd8e43a1721)" d="M 174.014959 188.879455 
" style="fill:none;stroke:#000080;stroke-linecap:square;stroke-width:1.5;"/>
    <defs>
     <path d="M -12 12 
L 12 -12 
M -12 -12 
L 12 12 
" id="me97332c83c" style="stroke:#000080;"/>
    </defs>
    <g clip-path="url(#pd8e43a1721)">
     <use style="fill:#000080;stroke:#000080;" x="174.014959" xlink:href="#me97332c83c" y="188.879455"/>
    </g>
   </g>
   <g id="line2d_34">
    <defs>
     <path d="M 0 1.5 
C 0.397805 1.5 0.77937 1.341951 1.06066 1.06066 
C 1.341951 0.77937 1.5 0.397805 1.5 0 
C 1.5 -0.397805 1.341951 -0.77937 1.06066 -1.06066 
C 0.77937 -1.341951 0.397805 -1.5 0 -1.5 
C -0.397805 -1.5 -0.77937 -1.341951 -1.06066 -1.06066 
C -1.341951 -0.77937 -1.5 -0.397805 -1.5 0 
C -1.5 0.397805 -1.341951 0.77937 -1.06066 1.06066 
C -0.77937 1.341951 -0.397805 1.5 0 1.5 
z
" id="mce7ec253d2" style="stroke:#ff00ff;"/>
    </defs>
    <g>
     <use style="fill:#ff00ff;stroke:#ff00ff;" x="226.252875" xlink:href="#mce7ec253d2" y="30.334099"/>
     <use style="fill:#ff00ff;stroke:#ff00ff;" x="226.252875" xlink:href="#mce7ec253d2" y="30.334099"/>
    </g>
   </g>
   <g id="line2d_35">
    <path d="M 109.131511 298.944 
L 109.131511 298.288854 
L 111.663381 298.288854 
L 111.663381 297.633708 
L 112.431755 297.633708 
L 112.431755 296.978562 
L 113.167699 296.978562 
L 113.167699 296.323416 
L 114.284194 296.323416 
L 114.284194 293.702831 
L 115.077025 293.702831 
L 115.077025 293.047685 
L 115.586238 293.047685 
L 115.586238 292.392539 
L 117.709852 292.392539 
L 117.709852 290.427101 
L 118.256582 290.427101 
L 118.256582 289.771955 
L 118.576578 289.771955 
L 118.576578 289.116809 
L 118.994305 289.116809 
L 118.994305 288.461662 
L 119.301163 288.461662 
L 119.301163 286.496224 
L 119.602714 286.496224 
L 119.602714 285.841078 
L 119.996839 285.841078 
L 119.996839 285.185932 
L 120.47729 285.185932 
L 120.47729 283.87564 
L 121.84399 283.87564 
L 121.84399 283.220494 
L 122.865118 283.220494 
L 122.947573 281.910201 
L 123.273551 281.910201 
L 123.354102 279.944763 
L 125.470548 279.944763 
L 125.470548 278.634471 
L 125.612332 278.634471 
L 125.612332 276.669033 
L 126.099688 276.669033 
L 126.099688 276.013887 
L 127.293718 276.013887 
L 127.293718 275.35874 
L 128.168991 275.35874 
L 128.168991 274.703594 
L 128.411207 274.703594 
L 128.411207 274.048448 
L 128.827155 274.048448 
L 128.827155 271.427864 
L 130.127931 271.427864 
L 130.236587 270.117572 
L 130.61164 270.117572 
L 130.61164 269.462426 
L 130.76994 269.462426 
L 130.76994 268.807279 
L 132.422528 268.807279 
L 132.422528 268.152133 
L 132.893889 268.152133 
L 132.893889 267.496987 
L 133.352844 267.496987 
L 133.352844 266.841841 
L 133.488207 266.841841 
L 133.533096 265.531549 
L 134.321942 265.531549 
L 134.321942 264.221257 
L 134.661403 264.221257 
L 134.661403 263.566111 
L 134.828688 263.566111 
L 134.828688 262.255818 
L 135.280614 262.255818 
L 135.361539 260.945526 
L 135.482227 260.945526 
L 135.482227 260.29038 
L 135.681535 260.29038 
L 135.681535 258.980088 
L 135.956794 258.980088 
L 135.956794 257.669796 
L 136.227776 257.669796 
L 136.227776 256.359504 
L 137.558536 256.359504 
L 137.558536 255.704357 
L 138.221972 255.704357 
L 138.221972 255.049211 
L 139.188293 255.049211 
L 139.188293 254.394065 
L 139.317473 254.394065 
L 139.317473 253.083773 
L 139.793552 253.083773 
L 139.793552 252.428627 
L 140.915143 252.428627 
L 140.944478 251.118335 
L 141.292695 251.118335 
L 141.292695 250.463189 
L 141.46423 250.463189 
L 141.46423 249.808043 
L 142.593291 249.808043 
L 142.593291 248.49775 
L 143.298796 248.49775 
L 143.298796 247.842604 
L 143.778691 247.842604 
L 143.778691 247.187458 
L 144.075117 247.187458 
L 144.075117 246.532312 
L 144.865226 246.532312 
L 144.865226 245.22202 
L 145.097753 245.22202 
L 145.097753 244.566874 
L 145.235796 244.566874 
L 145.235796 243.911728 
L 146.172658 243.911728 
L 146.172658 243.256582 
L 146.749392 243.256582 
L 146.749392 242.601435 
L 147.102973 242.601435 
L 147.164632 241.291143 
L 147.327999 241.291143 
L 147.327999 240.635997 
L 147.449528 240.635997 
L 147.449528 239.980851 
L 148.200145 239.980851 
L 148.200145 239.325705 
L 148.411533 239.325705 
L 148.48777 237.360267 
L 148.601505 237.360267 
L 148.601505 236.705121 
L 148.901221 236.705121 
L 148.901221 236.049974 
L 149.214124 236.049974 
L 149.214124 235.394828 
L 149.413639 235.394828 
L 149.413639 234.739682 
L 149.646525 234.739682 
L 149.646525 234.084536 
L 149.823575 234.084536 
L 149.841182 232.774244 
L 150.206871 232.774244 
L 150.206871 232.119098 
L 150.766468 232.119098 
L 150.766468 230.808806 
L 150.982078 230.808806 
L 150.982078 230.15366 
L 151.1298 230.15366 
L 151.1298 229.498513 
L 151.61336 229.498513 
L 151.660987 227.533075 
L 151.834513 227.533075 
L 151.850203 226.222783 
L 152.037389 226.222783 
L 152.037389 225.567637 
L 152.191856 225.567637 
L 152.299175 224.257345 
L 152.375429 224.257345 
L 152.375429 223.602199 
L 152.55709 223.602199 
L 152.587184 222.291906 
L 152.766663 222.291906 
L 152.766663 221.63676 
L 152.944315 221.63676 
L 152.944315 220.981614 
L 153.395042 220.981614 
L 153.395042 220.326468 
L 153.637357 220.326468 
L 153.637357 219.671322 
L 153.946025 219.671322 
L 153.946025 219.016176 
L 154.654594 219.016176 
L 154.761093 217.050738 
L 155.024532 217.050738 
L 155.024532 216.395591 
L 155.193657 216.395591 
L 155.193657 215.740445 
L 155.450689 215.740445 
L 155.450689 215.085299 
L 155.691409 215.085299 
L 155.691409 214.430153 
L 155.904009 214.430153 
L 155.966049 213.119861 
L 156.370066 213.119861 
L 156.370066 212.464715 
L 156.502685 212.464715 
L 156.502685 211.154423 
L 156.634302 211.154423 
L 156.634302 209.84413 
L 156.764934 209.84413 
L 156.764934 209.188984 
L 157.277891 209.188984 
L 157.277891 208.533838 
L 157.60791 208.533838 
L 157.60791 207.878692 
L 157.77619 207.878692 
L 157.854169 205.913254 
L 157.898572 205.913254 
L 158.009087 204.602962 
L 158.173558 204.602962 
L 158.173558 203.947816 
L 158.314856 203.947816 
L 158.314856 203.292669 
L 158.497919 203.292669 
L 158.497919 202.637523 
L 158.742573 202.637523 
L 158.742573 201.982377 
L 158.973421 201.982377 
L 158.973421 201.327231 
L 159.39565 201.327231 
L 159.466728 200.016939 
L 159.537516 200.016939 
L 159.638147 198.051501 
L 159.708245 198.051501 
L 159.708245 197.396355 
L 159.877318 197.396355 
L 159.936602 196.086062 
L 160.132771 196.086062 
L 160.200913 194.77577 
L 160.307457 194.77577 
L 160.307457 194.120624 
L 161.274728 194.120624 
L 161.274728 193.465478 
L 161.474555 193.465478 
L 161.53766 192.155186 
L 161.814408 192.155186 
L 161.814408 191.50004 
L 162.00818 191.50004 
L 162.078112 188.879455 
L 162.286241 188.879455 
L 162.29486 187.569163 
L 162.576903 187.569163 
L 162.610782 185.603725 
L 162.762429 185.603725 
L 162.762429 184.948579 
L 162.896128 184.948579 
L 162.946002 183.638286 
L 163.185069 183.638286 
L 163.185069 182.98314 
L 163.339941 182.98314 
L 163.339941 182.327994 
L 163.637643 182.327994 
L 163.637643 181.672848 
L 163.828065 181.672848 
L 163.828065 181.017702 
L 164.140886 181.017702 
L 164.140886 179.70741 
L 164.432956 179.70741 
L 164.471025 178.397118 
L 164.780093 178.397118 
L 164.780093 177.741972 
L 164.921483 177.741972 
L 164.928893 175.776533 
L 165.331666 175.776533 
L 165.425523 173.811095 
L 165.647318 173.811095 
L 165.647318 173.155949 
L 165.795979 173.155949 
L 165.795979 172.500803 
L 165.957358 172.500803 
L 165.957358 171.845657 
L 166.337313 171.845657 
L 166.412321 170.535364 
L 166.493781 170.535364 
L 166.601807 169.225072 
L 166.928532 169.225072 
L 166.981298 167.91478 
L 167.275171 167.91478 
L 167.288118 165.949342 
L 167.429901 165.949342 
L 167.500363 164.63905 
L 167.595991 164.63905 
L 167.595991 163.983903 
L 167.728995 163.983903 
L 167.791975 162.673611 
L 167.917258 162.673611 
L 167.917258 162.018465 
L 168.035449 162.018465 
L 168.140524 160.708173 
L 168.391365 160.708173 
L 168.391365 160.053027 
L 168.787729 160.053027 
L 168.805533 158.742735 
L 169.428951 158.742735 
L 169.457545 157.432442 
L 169.740933 157.432442 
L 169.740933 156.777296 
L 170.04743 156.777296 
L 170.04743 156.12215 
L 170.168537 156.12215 
L 170.168537 155.467004 
L 170.553741 155.467004 
L 170.553741 154.811858 
L 170.819995 154.811858 
L 170.899085 153.501566 
L 170.993522 153.501566 
L 171.050982 152.191274 
L 171.340609 152.191274 
L 171.340609 151.536128 
L 171.86605 151.536128 
L 171.86605 150.880981 
L 172.152351 150.880981 
L 172.152351 150.225835 
L 172.44366 150.225835 
L 172.549266 148.915543 
L 172.616138 148.915543 
L 172.658992 147.605251 
L 173.307818 147.605251 
L 173.307818 146.950105 
L 173.471997 146.950105 
L 173.471997 146.294959 
L 174.100548 146.294959 
L 174.100548 145.639813 
L 175.079583 145.639813 
L 175.079583 144.984667 
L 175.379171 144.984667 
L 175.379171 144.32952 
L 175.709669 144.32952 
L 175.709669 143.674374 
L 176.041856 143.674374 
L 176.061431 141.708936 
L 176.448384 141.708936 
L 176.517133 140.398644 
L 176.562816 140.398644 
L 176.604586 138.433206 
L 176.687829 138.433206 
L 176.78945 136.467767 
L 176.901672 136.467767 
L 176.957514 134.502329 
L 177.035393 134.502329 
L 177.035393 133.847183 
L 177.204779 133.847183 
L 177.241386 132.536891 
L 177.31801 132.536891 
L 177.31801 131.881745 
L 177.499105 131.881745 
L 177.499105 131.226598 
L 177.678338 131.226598 
L 177.681904 129.916306 
L 177.813334 129.916306 
L 177.813334 129.26116 
L 178.325932 129.26116 
L 178.325932 128.606014 
L 178.483291 128.606014 
L 178.483291 125.98543 
L 178.723416 125.98543 
L 178.723416 125.330284 
L 178.966907 125.330284 
L 178.999998 122.054553 
L 179.138301 122.054553 
L 179.210311 118.778823 
L 179.30478 118.778823 
L 179.340479 116.158238 
L 179.734767 116.158238 
L 179.734767 115.503092 
L 179.936452 115.503092 
L 179.942718 114.1928 
L 180.329895 114.1928 
L 180.406309 111.572215 
L 180.5006 111.572215 
L 180.5006 110.917069 
L 180.860867 110.917069 
L 180.860867 110.261923 
L 181.216753 110.261923 
L 181.216753 109.606777 
L 181.399213 109.606777 
L 181.471092 107.641339 
L 181.522662 107.641339 
L 181.522662 106.986193 
L 181.670792 106.986193 
L 181.704798 105.675901 
L 181.800789 105.675901 
L 181.800789 105.020754 
L 182.281194 105.020754 
L 182.281194 104.365608 
L 182.598749 104.365608 
L 182.598749 102.40017 
L 182.878894 102.40017 
L 182.878894 101.089878 
L 183.152004 101.089878 
L 183.222213 98.469293 
L 183.268863 98.469293 
L 183.268863 97.814147 
L 183.49515 97.814147 
L 183.49515 97.159001 
L 183.642705 97.159001 
L 183.642705 96.503855 
L 183.929136 96.503855 
L 184.038443 93.883271 
L 184.237892 93.883271 
L 184.333115 92.572979 
L 184.696974 92.572979 
L 184.699358 91.262686 
L 184.860746 91.262686 
L 184.900861 88.642102 
L 185.121021 88.642102 
L 185.121021 87.986956 
L 185.257801 87.986956 
L 185.257801 87.33181 
L 185.395807 87.33181 
L 185.480369 84.711225 
L 185.52136 84.711225 
L 185.52136 82.745787 
L 185.894913 82.745787 
L 185.894913 82.090641 
L 186.058892 82.090641 
L 186.058892 81.435495 
L 186.419063 81.435495 
L 186.447126 80.125203 
L 186.58677 80.125203 
L 186.58677 79.470057 
L 187.028348 79.470057 
L 187.117828 78.159764 
L 187.252224 78.159764 
L 187.285147 76.849472 
L 187.44884 76.849472 
L 187.44884 76.194326 
L 187.576675 76.194326 
L 187.576675 75.53918 
L 187.749681 75.53918 
L 187.827576 74.228888 
L 187.865398 74.228888 
L 187.865398 73.573742 
L 187.996149 73.573742 
L 187.996149 72.918596 
L 188.157243 72.918596 
L 188.157243 72.263449 
L 188.311048 72.263449 
L 188.311048 71.608303 
L 188.616554 71.608303 
L 188.688782 70.298011 
L 188.732354 70.298011 
L 188.732354 69.642865 
L 188.877439 69.642865 
L 188.877439 68.987719 
L 189.4841 68.987719 
L 189.545608 67.677427 
L 189.874762 67.677427 
L 189.874762 67.022281 
L 190.084377 67.022281 
L 190.084377 65.711988 
L 190.666372 65.711988 
L 190.666372 65.056842 
L 190.813084 65.056842 
L 190.813084 64.401696 
L 191.073103 64.401696 
L 191.073103 63.091404 
L 192.141541 63.091404 
L 192.141541 62.436258 
L 192.763647 62.436258 
L 192.763647 61.781112 
L 193.303286 61.781112 
L 193.303286 61.125966 
L 194.574761 61.125966 
L 194.574761 60.47082 
L 194.812693 60.47082 
L 194.895274 58.505381 
L 197.4471 58.505381 
L 197.4471 57.850235 
L 197.653647 57.850235 
L 197.653647 56.539943 
L 198.007374 56.539943 
L 198.007374 55.884797 
L 198.142469 55.884797 
L 198.142469 55.229651 
L 198.405212 55.229651 
L 198.405212 54.574505 
L 198.735636 54.574505 
L 198.735636 53.919359 
L 199.00751 53.919359 
L 199.00751 53.264213 
L 199.304131 53.264213 
L 199.304131 52.609066 
L 199.448011 52.609066 
L 199.448011 51.95392 
L 199.835668 51.95392 
L 199.835668 51.298774 
L 200.163888 51.298774 
L 200.163888 49.988482 
L 201.208594 49.988482 
L 201.208594 49.333336 
L 201.365175 49.333336 
L 201.365175 48.67819 
L 202.511357 48.67819 
L 202.542239 47.367898 
L 203.719522 47.367898 
L 203.719522 46.712752 
L 204.178102 46.712752 
L 204.178102 46.057605 
L 205.116888 46.057605 
L 205.116888 45.402459 
L 205.843223 45.402459 
L 205.843223 44.747313 
L 206.739727 44.747313 
L 206.739727 44.092167 
L 208.395497 44.092167 
L 208.395497 43.437021 
L 208.618323 43.437021 
L 208.618323 42.781875 
L 208.921769 42.781875 
L 208.921769 42.126729 
L 209.284193 42.126729 
L 209.284193 41.471583 
L 210.760607 41.471583 
L 210.760607 40.816437 
L 212.957927 40.816437 
L 212.957927 40.161291 
L 213.215439 40.161291 
L 213.215439 39.506144 
L 214.499892 39.506144 
L 214.499892 38.850998 
L 215.688133 38.850998 
L 215.688133 38.195852 
L 216.56972 38.195852 
L 216.56972 37.540706 
L 216.998087 37.540706 
L 216.998087 36.88556 
L 220.506753 36.88556 
L 220.506753 36.230414 
L 221.494034 36.230414 
L 221.494034 35.575268 
L 223.028499 35.575268 
L 223.028499 34.920122 
L 224.864083 34.920122 
L 224.918809 33.60983 
L 225.370919 33.60983 
L 225.370919 32.954683 
L 225.621428 32.954683 
L 225.621428 32.299537 
L 225.763689 32.299537 
L 225.839795 30.989245 
L 226.252875 30.989245 
L 226.252875 30.334099 
L 338.688 30.334099 
L 338.688 30.334099 
" style="fill:none;stroke:#ff00ff;stroke-linecap:square;stroke-width:1.5;"/>
   </g>
   <g id="line2d_36">
    <defs>
     <path d="M -0 8.485281 
L 5.091169 0 
L 0 -8.485281 
L -5.091169 -0 
z
" id="m96404637ae" style="stroke:#ff00ff;stroke-linejoin:miter;stroke-width:1.5;"/>
    </defs>
    <g>
     <use style="fill-opacity:0;stroke:#ff00ff;stroke-linejoin:miter;stroke-width:1.5;" x="182.598749" xlink:href="#m96404637ae" y="104.365608"/>
     <use style="fill-opacity:0;stroke:#ff00ff;stroke-linejoin:miter;stroke-width:1.5;" x="226.252875" xlink:href="#m96404637ae" y="30.989245"/>
     <use style="fill-opacity:0;stroke:#ff00ff;stroke-linejoin:miter;stroke-width:1.5;" x="226.252875" xlink:href="#m96404637ae" y="30.334099"/>
     <use style="fill-opacity:0;stroke:#ff00ff;stroke-linejoin:miter;stroke-width:1.5;" x="226.252875" xlink:href="#m96404637ae" y="30.334099"/>
     <use style="fill-opacity:0;stroke:#ff00ff;stroke-linejoin:miter;stroke-width:1.5;" x="338.688" xlink:href="#m96404637ae" y="30.334099"/>
    </g>
   </g>
   <g id="line2d_37">
    <path style="fill:none;stroke:#ff00ff;stroke-linecap:square;stroke-width:1.5;"/>
    <g/>
   </g>
   <g id="line2d_38">
    <path clip-path="url(#pd8e43a1721)" d="M 223.437228 34.920122 
" style="fill:none;stroke:#ff00ff;stroke-linecap:square;stroke-width:1.5;"/>
    <defs>
     <path d="M -12 12 
L 12 -12 
M -12 -12 
L 12 12 
" id="mf93ab861a6" style="stroke:#ff00ff;"/>
    </defs>
    <g clip-path="url(#pd8e43a1721)">
     <use style="fill:#ff00ff;stroke:#ff00ff;" x="223.437228" xlink:href="#mf93ab861a6" y="34.920122"/>
    </g>
   </g>
   <g id="line2d_39">
    <defs>
     <path d="M 0 1.5 
C 0.397805 1.5 0.77937 1.341951 1.06066 1.06066 
C 1.341951 0.77937 1.5 0.397805 1.5 0 
C 1.5 -0.397805 1.341951 -0.77937 1.06066 -1.06066 
C 0.77937 -1.341951 0.397805 -1.5 0 -1.5 
C -0.397805 -1.5 -0.77937 -1.341951 -1.06066 -1.06066 
C -1.341951 -0.77937 -1.5 -0.397805 -1.5 0 
C -1.5 0.397805 -1.341951 0.77937 -1.06066 1.06066 
C -0.77937 1.341951 -0.397805 1.5 0 1.5 
z
" id="m8a594fb9bf" style="stroke:#ff7500;"/>
    </defs>
    <g>
     <use style="fill:#ff7500;stroke:#ff7500;" x="284.893025" xlink:href="#m8a594fb9bf" y="292.392539"/>
     <use style="fill:#ff7500;stroke:#ff7500;" x="284.893025" xlink:href="#m8a594fb9bf" y="292.392539"/>
    </g>
   </g>
   <g id="line2d_40">
    <path d="M 186.348706 298.944 
L 186.348706 298.288854 
L 215.189211 298.288854 
L 215.189211 297.633708 
L 222.749067 297.633708 
L 222.749067 296.978562 
L 239.8513 296.978562 
L 239.8513 296.323416 
L 261.299708 296.323416 
L 261.299708 295.66827 
L 267.348403 295.66827 
L 267.348403 295.013123 
L 273.218152 295.013123 
L 273.218152 294.357977 
L 280.659638 294.357977 
L 280.659638 293.702831 
L 284.307275 293.702831 
L 284.307275 293.047685 
L 284.893025 293.047685 
L 284.893025 292.392539 
L 338.688 292.392539 
" style="fill:none;stroke:#ff7500;stroke-linecap:square;stroke-width:1.5;"/>
   </g>
   <g id="line2d_41">
    <defs>
     <path d="M 0 -6 
L -1.347084 -1.854102 
L -5.706339 -1.854102 
L -2.179628 0.708204 
L -3.526712 4.854102 
L -0 2.291796 
L 3.526712 4.854102 
L 2.179628 0.708204 
L 5.706339 -1.854102 
L 1.347084 -1.854102 
z
" id="m4b9d3e2d97" style="stroke:#ff7500;stroke-linejoin:bevel;stroke-width:1.5;"/>
    </defs>
    <g>
     <use style="fill-opacity:0;stroke:#ff7500;stroke-linejoin:bevel;stroke-width:1.5;" x="239.8513" xlink:href="#m4b9d3e2d97" y="296.978562"/>
     <use style="fill-opacity:0;stroke:#ff7500;stroke-linejoin:bevel;stroke-width:1.5;" x="284.893025" xlink:href="#m4b9d3e2d97" y="293.047685"/>
     <use style="fill-opacity:0;stroke:#ff7500;stroke-linejoin:bevel;stroke-width:1.5;" x="284.893025" xlink:href="#m4b9d3e2d97" y="292.392539"/>
     <use style="fill-opacity:0;stroke:#ff7500;stroke-linejoin:bevel;stroke-width:1.5;" x="338.688" xlink:href="#m4b9d3e2d97" y="292.392539"/>
    </g>
   </g>
   <g id="line2d_42">
    <path style="fill:none;stroke:#ff7500;stroke-linecap:square;stroke-width:1.5;"/>
    <g/>
   </g>
   <g id="line2d_43">
    <path clip-path="url(#pd8e43a1721)" d="M 246.289399 296.323416 
" style="fill:none;stroke:#ff7500;stroke-linecap:square;stroke-width:1.5;"/>
    <defs>
     <path d="M -12 12 
L 12 -12 
M -12 -12 
L 12 12 
" id="m2b537695a0" style="stroke:#ff7500;"/>
    </defs>
    <g clip-path="url(#pd8e43a1721)">
     <use style="fill:#ff7500;stroke:#ff7500;" x="246.289399" xlink:href="#m2b537695a0" y="296.323416"/>
    </g>
   </g>
   <g id="line2d_44">
    <defs>
     <path d="M 0 1.5 
C 0.397805 1.5 0.77937 1.341951 1.06066 1.06066 
C 1.341951 0.77937 1.5 0.397805 1.5 0 
C 1.5 -0.397805 1.341951 -0.77937 1.06066 -1.06066 
C 0.77937 -1.341951 0.397805 -1.5 0 -1.5 
C -0.397805 -1.5 -0.77937 -1.341951 -1.06066 -1.06066 
C -1.341951 -0.77937 -1.5 -0.397805 -1.5 0 
C -1.5 0.397805 -1.341951 0.77937 -1.06066 1.06066 
C -0.77937 1.341951 -0.397805 1.5 0 1.5 
z
" id="mf33076cacf" style="stroke:#6495ed;"/>
    </defs>
    <g>
     <use style="fill:#6495ed;stroke:#6495ed;" x="250.152329" xlink:href="#mf33076cacf" y="135.157475"/>
     <use style="fill:#6495ed;stroke:#6495ed;" x="250.152329" xlink:href="#mf33076cacf" y="135.157475"/>
    </g>
   </g>
   <g id="line2d_45">
    <path d="M 101.785851 298.944 
L 101.785851 298.288854 
L 104.942325 298.288854 
L 104.942325 296.978562 
L 111.819788 296.978562 
L 111.819788 296.323416 
L 111.974805 296.323416 
L 111.974805 295.66827 
L 112.58145 295.66827 
L 112.58145 295.013123 
L 113.524343 295.013123 
L 113.524343 294.357977 
L 114.216469 294.357977 
L 114.216469 292.392539 
L 115.460322 292.392539 
L 115.460322 290.427101 
L 115.958621 290.427101 
L 115.958621 288.461662 
L 116.141872 288.461662 
L 116.141872 287.806516 
L 116.972471 287.806516 
L 116.972471 286.496224 
L 118.363901 286.496224 
L 118.363901 285.841078 
L 118.576578 285.841078 
L 118.576578 285.185932 
L 119.552816 285.185932 
L 119.552816 284.530786 
L 120.045484 284.530786 
L 120.045484 283.87564 
L 120.190611 283.87564 
L 120.190611 283.220494 
L 120.665825 283.220494 
L 120.665825 279.944763 
L 124.557288 279.944763 
L 124.557288 279.289617 
L 126.372183 279.289617 
L 126.372183 276.669033 
L 126.904721 276.669033 
L 126.904721 276.013887 
L 128.709321 276.013887 
L 128.797771 274.703594 
L 129.06046 274.703594 
L 129.06046 274.048448 
L 129.433047 274.048448 
L 129.433047 272.738156 
L 130.127931 272.738156 
L 130.127931 272.08301 
L 130.505303 272.08301 
L 130.61164 270.772718 
L 130.900768 270.772718 
L 130.900768 270.117572 
L 131.159516 270.117572 
L 131.210808 268.152133 
L 131.640805 268.152133 
L 131.640805 267.496987 
L 133.46572 267.496987 
L 133.46572 266.841841 
L 134.062938 266.841841 
L 134.062938 266.186695 
L 135.158519 266.186695 
L 135.158519 265.531549 
L 136.20856 265.531549 
L 136.2853 262.910965 
L 137.253364 262.910965 
L 137.307607 258.324942 
L 137.505069 258.324942 
L 137.505069 256.359504 
L 138.256201 256.359504 
L 138.256201 255.704357 
L 143.170282 255.704357 
L 143.170282 255.049211 
L 143.927534 255.049211 
L 143.976867 251.773481 
L 144.93531 251.773481 
L 144.93531 249.152896 
L 146.280909 249.152896 
L 146.280909 248.49775 
L 148.17112 248.49775 
L 148.17112 247.842604 
L 150.741418 247.842604 
L 150.741418 247.187458 
L 150.858013 247.187458 
L 150.858013 246.532312 
L 151.080698 246.532312 
L 151.080698 245.877166 
L 151.763734 245.877166 
L 151.763734 245.22202 
L 151.951845 245.22202 
L 151.951845 242.601435 
L 152.237931 242.601435 
L 152.306816 241.291143 
L 152.413432 241.291143 
L 152.466496 237.360267 
L 152.617226 237.360267 
L 152.699575 236.049974 
L 157.870833 236.049974 
L 157.870833 235.394828 
L 158.271501 235.394828 
L 158.271501 234.739682 
L 158.562073 234.739682 
L 158.562073 233.42939 
L 160.157138 233.42939 
L 160.166875 230.808806 
L 160.811875 230.808806 
L 160.821253 229.498513 
L 161.141761 229.498513 
L 161.247301 228.188221 
L 161.352206 228.188221 
L 161.352206 226.222783 
L 161.465522 226.222783 
L 161.465522 225.567637 
L 162.199823 225.567637 
L 162.199823 222.291906 
L 162.631923 222.291906 
L 162.631923 221.63676 
L 164.191193 221.63676 
L 164.287532 218.36103 
L 164.839766 218.36103 
L 164.839766 217.705884 
L 165.803027 217.705884 
L 165.803027 215.740445 
L 166.945039 215.740445 
L 166.945039 215.085299 
L 169.836245 215.085299 
L 169.905996 212.464715 
L 170.04743 212.464715 
L 170.04743 211.809569 
L 170.190466 211.809569 
L 170.190466 211.154423 
L 170.337772 211.154423 
L 170.337772 210.499277 
L 170.631374 210.499277 
L 170.631374 208.533838 
L 174.074257 208.533838 
L 174.074257 207.223546 
L 176.503787 207.223546 
L 176.562816 204.602962 
L 178.356832 204.602962 
L 178.356832 203.292669 
L 179.089033 203.292669 
L 179.089033 201.982377 
L 179.332372 201.982377 
L 179.332372 201.327231 
L 181.338605 201.327231 
L 181.363162 199.361793 
L 181.849991 199.361793 
L 181.849991 198.706647 
L 182.024587 198.706647 
L 182.024587 198.051501 
L 182.913267 198.051501 
L 182.946255 196.741208 
L 185.545227 196.741208 
L 185.547498 195.430916 
L 185.805629 195.430916 
L 185.833579 194.120624 
L 186.074324 194.120624 
L 186.074324 192.810332 
L 187.983316 192.810332 
L 187.983316 191.50004 
L 188.199236 191.50004 
L 188.199236 190.844894 
L 188.533502 190.844894 
L 188.573645 189.534601 
L 188.785252 189.534601 
L 188.785252 188.879455 
L 190.067735 188.879455 
L 190.067735 188.224309 
L 190.833224 188.224309 
L 190.833224 187.569163 
L 191.627527 187.569163 
L 191.627527 186.914017 
L 192.512587 186.914017 
L 192.512587 186.258871 
L 192.922092 186.258871 
L 192.922092 185.603725 
L 193.382448 185.603725 
L 193.382448 184.948579 
L 193.696264 184.948579 
L 193.696264 184.293433 
L 194.184696 184.293433 
L 194.184696 183.638286 
L 194.587614 183.638286 
L 194.673285 181.672848 
L 195.201517 181.672848 
L 195.201517 181.017702 
L 195.562049 181.017702 
L 195.562049 180.362556 
L 196.158596 180.362556 
L 196.203033 179.052264 
L 196.976471 179.052264 
L 196.976471 178.397118 
L 197.312852 178.397118 
L 197.312852 177.741972 
L 197.714798 177.741972 
L 197.74755 176.431679 
L 197.963409 176.431679 
L 197.963409 175.776533 
L 198.470826 175.776533 
L 198.470826 175.121387 
L 200.133409 175.121387 
L 200.133409 174.466241 
L 200.619098 174.466241 
L 200.619098 173.811095 
L 200.871354 173.811095 
L 200.954635 171.845657 
L 201.290284 171.845657 
L 201.290284 171.190511 
L 201.866793 171.190511 
L 201.904617 169.880218 
L 203.701888 169.880218 
L 203.701888 169.225072 
L 204.967248 169.225072 
L 204.967248 168.569926 
L 205.160462 168.569926 
L 205.160462 167.91478 
L 205.445419 167.91478 
L 205.445419 167.259634 
L 205.934129 167.259634 
L 205.934129 166.604488 
L 208.056138 166.604488 
L 208.145873 165.294196 
L 210.445599 165.294196 
L 210.445599 164.63905 
L 210.881634 164.63905 
L 210.881634 163.983903 
L 211.203542 163.983903 
L 211.261084 162.673611 
L 211.471657 162.673611 
L 211.471657 162.018465 
L 212.233694 162.018465 
L 212.233694 161.363319 
L 212.826781 161.363319 
L 212.826781 160.708173 
L 213.343705 160.708173 
L 213.343705 160.053027 
L 213.473096 160.053027 
L 213.473096 159.397881 
L 213.589483 159.397881 
L 213.589483 158.742735 
L 213.826012 158.742735 
L 213.826012 158.087589 
L 214.494279 158.087589 
L 214.494279 157.432442 
L 214.842772 157.432442 
L 214.842772 156.777296 
L 215.719161 156.777296 
L 215.785666 155.467004 
L 217.489632 155.467004 
L 217.489632 154.811858 
L 219.013852 154.811858 
L 219.013852 154.156712 
L 220.522502 154.156712 
L 220.522502 153.501566 
L 220.98849 153.501566 
L 221.030107 152.191274 
L 222.309067 152.191274 
L 222.309067 151.536128 
L 222.975333 151.536128 
L 222.975333 150.880981 
L 223.275093 150.880981 
L 223.379329 148.915543 
L 223.389057 148.915543 
L 223.389057 148.260397 
L 224.91073 148.260397 
L 224.91073 147.605251 
L 227.260383 147.605251 
L 227.260383 146.950105 
L 228.015358 146.950105 
L 228.015358 146.294959 
L 229.957827 146.294959 
L 229.957827 145.639813 
L 231.1848 145.639813 
L 231.1848 144.984667 
L 231.371548 144.984667 
L 231.371548 144.32952 
L 232.112218 144.32952 
L 232.112218 143.674374 
L 233.098637 143.674374 
L 233.098637 143.019228 
L 233.369682 143.019228 
L 233.369682 142.364082 
L 234.295015 142.364082 
L 234.295015 141.708936 
L 235.019314 141.708936 
L 235.019314 141.05379 
L 235.601603 141.05379 
L 235.601603 140.398644 
L 235.977209 140.398644 
L 235.977209 139.743498 
L 236.479901 139.743498 
L 236.479901 139.088352 
L 237.52343 139.088352 
L 237.52343 138.433206 
L 238.590225 138.433206 
L 238.590225 137.778059 
L 242.271674 137.778059 
L 242.271674 137.122913 
L 247.805849 137.122913 
L 247.805849 136.467767 
L 248.789685 136.467767 
L 248.789685 135.812621 
L 250.152329 135.812621 
L 250.152329 135.157475 
L 338.688 135.157475 
L 338.688 135.157475 
" style="fill:none;stroke:#6495ed;stroke-linecap:square;stroke-width:1.5;"/>
   </g>
   <g id="line2d_46">
    <defs>
     <path d="M -0 6 
L 6 -6 
L -6 -6 
z
" id="md906b0e733" style="stroke:#6495ed;stroke-linejoin:miter;stroke-width:1.5;"/>
    </defs>
    <g>
     <use style="fill-opacity:0;stroke:#6495ed;stroke-linejoin:miter;stroke-width:1.5;" x="181.849991" xlink:href="#md906b0e733" y="199.361793"/>
     <use style="fill-opacity:0;stroke:#6495ed;stroke-linejoin:miter;stroke-width:1.5;" x="228.015358" xlink:href="#md906b0e733" y="146.950105"/>
     <use style="fill-opacity:0;stroke:#6495ed;stroke-linejoin:miter;stroke-width:1.5;" x="250.152329" xlink:href="#md906b0e733" y="135.157475"/>
     <use style="fill-opacity:0;stroke:#6495ed;stroke-linejoin:miter;stroke-width:1.5;" x="250.152329" xlink:href="#md906b0e733" y="135.157475"/>
     <use style="fill-opacity:0;stroke:#6495ed;stroke-linejoin:miter;stroke-width:1.5;" x="338.688" xlink:href="#md906b0e733" y="135.157475"/>
    </g>
   </g>
   <g id="line2d_47">
    <path style="fill:none;stroke:#6495ed;stroke-linecap:square;stroke-width:1.5;"/>
    <g/>
   </g>
   <g id="line2d_48">
    <path clip-path="url(#pd8e43a1721)" d="M 185.545227 196.086062 
" style="fill:none;stroke:#6495ed;stroke-linecap:square;stroke-width:1.5;"/>
    <defs>
     <path d="M -12 12 
L 12 -12 
M -12 -12 
L 12 12 
" id="md230c4d3d5" style="stroke:#6495ed;"/>
    </defs>
    <g clip-path="url(#pd8e43a1721)">
     <use style="fill:#6495ed;stroke:#6495ed;" x="185.545227" xlink:href="#md230c4d3d5" y="196.086062"/>
    </g>
   </g>
   <g id="line2d_49">
    <defs>
     <path d="M 0 1.5 
C 0.397805 1.5 0.77937 1.341951 1.06066 1.06066 
C 1.341951 0.77937 1.5 0.397805 1.5 0 
C 1.5 -0.397805 1.341951 -0.77937 1.06066 -1.06066 
C 0.77937 -1.341951 0.397805 -1.5 0 -1.5 
C -0.397805 -1.5 -0.77937 -1.341951 -1.06066 -1.06066 
C -1.341951 -0.77937 -1.5 -0.397805 -1.5 0 
C -1.5 0.397805 -1.341951 0.77937 -1.06066 1.06066 
C -0.77937 1.341951 -0.397805 1.5 0 1.5 
z
" id="m740e36482f" style="stroke:#ff0000;"/>
    </defs>
    <g>
     <use style="fill:#ff0000;stroke:#ff0000;" x="272.659626" xlink:href="#m740e36482f" y="213.775007"/>
     <use style="fill:#ff0000;stroke:#ff0000;" x="272.659626" xlink:href="#m740e36482f" y="213.775007"/>
    </g>
   </g>
   <g id="line2d_50">
    <path d="M 91.029752 298.944 
L 91.029752 298.288854 
L 99.731799 298.288854 
L 99.731799 296.978562 
L 102.859376 296.978562 
L 102.859376 295.66827 
L 107.811151 295.66827 
L 107.811151 293.702831 
L 109.843417 293.702831 
L 109.843417 293.047685 
L 116.202531 293.047685 
L 116.202531 291.737393 
L 119.80089 291.737393 
L 119.80089 290.427101 
L 120.852343 290.427101 
L 120.852343 289.771955 
L 127.54831 289.771955 
L 127.54831 289.116809 
L 130.127931 289.116809 
L 130.127931 288.461662 
L 131.839545 288.461662 
L 131.839545 287.806516 
L 132.893889 287.806516 
L 132.893889 287.15137 
L 136.979586 287.15137 
L 136.979586 286.496224 
L 141.577657 286.496224 
L 141.577657 285.841078 
L 148.219468 285.841078 
L 148.219468 285.185932 
L 150.598782 285.185932 
L 150.598782 284.530786 
L 150.965587 284.530786 
L 150.965587 283.87564 
L 151.324836 283.87564 
L 151.324836 283.220494 
L 152.191856 283.220494 
L 152.191856 282.565348 
L 152.526944 282.565348 
L 152.526944 281.910201 
L 153.178403 281.910201 
L 153.178403 281.255055 
L 154.707925 281.255055 
L 154.707925 280.599909 
L 156.906335 280.599909 
L 156.906335 279.944763 
L 157.787352 279.944763 
L 157.787352 279.289617 
L 158.858379 279.289617 
L 158.858379 278.634471 
L 160.924085 278.634471 
L 160.924085 277.979325 
L 164.102088 277.979325 
L 164.102088 277.324179 
L 165.178976 277.324179 
L 165.178976 276.669033 
L 165.810071 276.669033 
L 165.810071 276.013887 
L 166.344146 276.013887 
L 166.344146 275.35874 
L 167.151695 275.35874 
L 167.151695 274.703594 
L 167.854729 274.703594 
L 167.854729 274.048448 
L 169.86976 274.048448 
L 169.86976 273.393302 
L 171.340609 273.393302 
L 171.340609 272.738156 
L 172.32772 272.738156 
L 172.32772 272.08301 
L 174.052318 272.08301 
L 174.052318 271.427864 
L 174.62245 271.427864 
L 174.62245 270.772718 
L 177.029842 270.772718 
L 177.029842 270.117572 
L 177.263313 270.117572 
L 177.263313 269.462426 
L 179.308028 269.462426 
L 179.308028 268.807279 
L 180.648609 268.807279 
L 180.648609 268.152133 
L 186.258451 268.152133 
L 186.282419 266.841841 
L 187.350809 266.841841 
L 187.350809 266.186695 
L 187.861421 266.186695 
L 187.861421 265.531549 
L 190.154274 265.531549 
L 190.154274 264.876403 
L 191.974238 264.876403 
L 191.974238 264.221257 
L 194.525969 264.221257 
L 194.525969 263.566111 
L 195.999672 263.566111 
L 195.999672 262.910965 
L 196.177125 262.910965 
L 196.177125 262.255818 
L 197.858897 262.255818 
L 197.858897 261.600672 
L 198.68973 261.600672 
L 198.68973 260.945526 
L 199.096505 260.945526 
L 199.096505 260.29038 
L 199.550061 260.29038 
L 199.550061 259.635234 
L 199.959351 259.635234 
L 199.959351 258.980088 
L 200.348567 258.980088 
L 200.4126 257.669796 
L 200.465782 257.669796 
L 200.465782 257.01465 
L 201.040322 257.01465 
L 201.040322 256.359504 
L 201.476684 256.359504 
L 201.476684 255.704357 
L 201.951671 255.704357 
L 201.951671 253.738919 
L 203.535493 253.738919 
L 203.535493 253.083773 
L 204.302126 253.083773 
L 204.302126 252.428627 
L 207.635643 252.428627 
L 207.635643 251.773481 
L 209.325195 251.773481 
L 209.325195 251.118335 
L 210.020445 251.118335 
L 210.020445 250.463189 
L 210.486952 250.463189 
L 210.486952 249.808043 
L 211.491678 249.808043 
L 211.491678 249.152896 
L 212.890347 249.152896 
L 212.890347 248.49775 
L 213.337475 248.49775 
L 213.337475 247.842604 
L 213.808501 247.842604 
L 213.823319 245.22202 
L 215.242875 245.22202 
L 215.242875 244.566874 
L 216.257505 244.566874 
L 216.259652 243.256582 
L 217.508173 243.256582 
L 217.508173 242.601435 
L 217.895533 242.601435 
L 217.895533 241.946289 
L 218.8649 241.946289 
L 218.8649 241.291143 
L 219.067264 241.291143 
L 219.067264 240.635997 
L 219.878147 240.635997 
L 219.878147 239.980851 
L 220.342604 239.980851 
L 220.342604 239.325705 
L 220.887755 239.325705 
L 220.887755 238.670559 
L 222.38258 238.670559 
L 222.470143 237.360267 
L 222.564747 237.360267 
L 222.564747 236.705121 
L 223.231967 236.705121 
L 223.232098 235.394828 
L 225.420502 235.394828 
L 225.420502 234.739682 
L 226.098032 234.739682 
L 226.098032 234.084536 
L 228.041992 234.084536 
L 228.041992 233.42939 
L 228.544804 233.42939 
L 228.544804 232.774244 
L 229.040934 232.774244 
L 229.040934 232.119098 
L 230.233852 232.119098 
L 230.297229 230.808806 
L 230.432132 230.808806 
L 230.432132 230.15366 
L 230.575362 230.15366 
L 230.575362 229.498513 
L 231.236389 229.498513 
L 231.236389 228.843367 
L 231.890482 228.843367 
L 231.890482 228.188221 
L 232.537204 228.188221 
L 232.537204 227.533075 
L 233.521202 227.533075 
L 233.521202 226.877929 
L 234.142681 226.877929 
L 234.142681 226.222783 
L 235.27974 226.222783 
L 235.27974 225.567637 
L 238.245036 225.567637 
L 238.278473 224.257345 
L 239.088516 224.257345 
L 239.088516 223.602199 
L 241.89417 223.602199 
L 241.89417 222.947052 
L 242.90818 222.947052 
L 242.90818 222.291906 
L 244.702682 222.291906 
L 244.702682 221.63676 
L 246.915793 221.63676 
L 246.915793 220.981614 
L 247.127692 220.981614 
L 247.127692 220.326468 
L 250.071455 220.326468 
L 250.071455 219.671322 
L 252.6418 219.671322 
L 252.6418 219.016176 
L 254.753443 219.016176 
L 254.753443 218.36103 
L 255.257328 218.36103 
L 255.257328 217.705884 
L 256.452082 217.705884 
L 256.452082 217.050738 
L 256.98001 217.050738 
L 256.98001 216.395591 
L 257.35951 216.395591 
L 257.35951 215.740445 
L 262.487106 215.740445 
L 262.487106 215.085299 
L 268.044768 215.085299 
L 268.044768 214.430153 
L 272.659626 214.430153 
L 272.659626 213.775007 
L 338.688 213.775007 
L 338.688 213.775007 
" style="fill:none;stroke:#ff0000;stroke-linecap:square;stroke-width:1.5;"/>
   </g>
   <g id="line2d_51">
    <defs>
     <path d="M 0 -6 
L -5.196152 -3 
L -5.196152 3 
L -0 6 
L 5.196152 3 
L 5.196152 -3 
z
" id="m34e388a04b" style="stroke:#ff0000;stroke-linejoin:miter;stroke-width:1.5;"/>
    </defs>
    <g>
     <use style="fill-opacity:0;stroke:#ff0000;stroke-linejoin:miter;stroke-width:1.5;" x="179.308028" xlink:href="#m34e388a04b" y="269.462426"/>
     <use style="fill-opacity:0;stroke:#ff0000;stroke-linejoin:miter;stroke-width:1.5;" x="235.27974" xlink:href="#m34e388a04b" y="226.222783"/>
     <use style="fill-opacity:0;stroke:#ff0000;stroke-linejoin:miter;stroke-width:1.5;" x="272.659626" xlink:href="#m34e388a04b" y="213.775007"/>
     <use style="fill-opacity:0;stroke:#ff0000;stroke-linejoin:miter;stroke-width:1.5;" x="272.659626" xlink:href="#m34e388a04b" y="213.775007"/>
     <use style="fill-opacity:0;stroke:#ff0000;stroke-linejoin:miter;stroke-width:1.5;" x="338.688" xlink:href="#m34e388a04b" y="213.775007"/>
    </g>
   </g>
   <g id="line2d_52">
    <path style="fill:none;stroke:#ff0000;stroke-linecap:square;stroke-width:1.5;"/>
    <g/>
   </g>
   <g id="line2d_53">
    <path clip-path="url(#pd8e43a1721)" d="M 211.429488 249.808043 
" style="fill:none;stroke:#ff0000;stroke-linecap:square;stroke-width:1.5;"/>
    <defs>
     <path d="M -12 12 
L 12 -12 
M -12 -12 
L 12 12 
" id="m679da3dcee" style="stroke:#ff0000;"/>
    </defs>
    <g clip-path="url(#pd8e43a1721)">
     <use style="fill:#ff0000;stroke:#ff0000;" x="211.429488" xlink:href="#m679da3dcee" y="249.808043"/>
    </g>
   </g>
   <g id="line2d_54">
    <path d="M 338.688 292.392539 
L 369.60768 293.571802 
" style="fill:none;stroke:#ff7500;stroke-linecap:square;stroke-width:1.5;"/>
    <g>
     <use style="fill-opacity:0;stroke:#ff7500;stroke-linejoin:bevel;stroke-width:1.5;" x="338.688" xlink:href="#m4b9d3e2d97" y="292.392539"/>
     <use style="fill-opacity:0;stroke:#ff7500;stroke-linejoin:bevel;stroke-width:1.5;" x="369.60768" xlink:href="#m4b9d3e2d97" y="293.571802"/>
    </g>
   </g>
   <g id="line2d_55">
    <path d="M 338.688 213.775007 
L 369.60768 229.105426 
" style="fill:none;stroke:#ff0000;stroke-linecap:square;stroke-width:1.5;"/>
    <g>
     <use style="fill-opacity:0;stroke:#ff0000;stroke-linejoin:miter;stroke-width:1.5;" x="338.688" xlink:href="#m34e388a04b" y="213.775007"/>
     <use style="fill-opacity:0;stroke:#ff0000;stroke-linejoin:miter;stroke-width:1.5;" x="369.60768" xlink:href="#m34e388a04b" y="229.105426"/>
    </g>
   </g>
   <g id="line2d_56">
    <path d="M 338.688 148.260397 
L 369.60768 164.63905 
" style="fill:none;stroke:#000080;stroke-linecap:square;stroke-width:1.5;"/>
    <g>
     <use style="fill-opacity:0;stroke:#000080;stroke-width:1.5;" x="338.688" xlink:href="#mb07c6811b9" y="148.260397"/>
     <use style="fill-opacity:0;stroke:#000080;stroke-width:1.5;" x="369.60768" xlink:href="#mb07c6811b9" y="164.63905"/>
    </g>
   </g>
   <g id="line2d_57">
    <path d="M 338.688 135.157475 
L 369.60768 100.172673 
" style="fill:none;stroke:#6495ed;stroke-linecap:square;stroke-width:1.5;"/>
    <g>
     <use style="fill-opacity:0;stroke:#6495ed;stroke-linejoin:miter;stroke-width:1.5;" x="338.688" xlink:href="#md906b0e733" y="135.157475"/>
     <use style="fill-opacity:0;stroke:#6495ed;stroke-linejoin:miter;stroke-width:1.5;" x="369.60768" xlink:href="#md906b0e733" y="100.172673"/>
    </g>
   </g>
   <g id="line2d_58">
    <path d="M 338.688 30.334099 
L 369.60768 35.706297 
" style="fill:none;stroke:#ff00ff;stroke-linecap:square;stroke-width:1.5;"/>
    <g>
     <use style="fill-opacity:0;stroke:#ff00ff;stroke-linejoin:miter;stroke-width:1.5;" x="338.688" xlink:href="#m96404637ae" y="30.334099"/>
     <use style="fill-opacity:0;stroke:#ff00ff;stroke-linejoin:miter;stroke-width:1.5;" x="369.60768" xlink:href="#m96404637ae" y="35.706297"/>
    </g>
   </g>
   <g id="line2d_59">
    <path d="M 338.688 298.944 
L 338.688 30.334099 
" style="fill:none;stroke:#000000;stroke-linecap:square;stroke-width:1.5;"/>
   </g>
   <g id="patch_3">
    <path d="M 57.6 298.944 
L 57.6 27.648 
" style="fill:none;stroke:#000000;stroke-linecap:square;stroke-linejoin:miter;stroke-width:0.8;"/>
   </g>
   <g id="patch_4">
    <path d="M 338.688 298.944 
L 338.688 27.648 
" style="fill:none;stroke:#000000;stroke-linecap:square;stroke-linejoin:miter;stroke-width:0.8;"/>
   </g>
   <g id="patch_5">
    <path d="M 57.6 298.944 
L 338.688 298.944 
" style="fill:none;stroke:#000000;stroke-linecap:square;stroke-linejoin:miter;stroke-width:0.8;"/>
   </g>
   <g id="patch_6">
    <path d="M 57.6 27.648 
L 338.688 27.648 
" style="fill:none;stroke:#000000;stroke-linecap:square;stroke-linejoin:miter;stroke-width:0.8;"/>
   </g>
   <g id="text_13">
    <!-- rs -->
    <g transform="translate(375.22944 298.262739)scale(0.17 -0.17)">
     <use xlink:href="#DejaVuSans-114"/>
     <use x="41.113281" xlink:href="#DejaVuSans-115"/>
    </g>
   </g>
   <g id="text_14">
    <!-- trust-con -->
    <g transform="translate(375.22944 233.796363)scale(0.17 -0.17)">
     <use xlink:href="#DejaVuSans-116"/>
     <use x="39.208984" xlink:href="#DejaVuSans-114"/>
     <use x="80.322266" xlink:href="#DejaVuSans-117"/>
     <use x="143.701172" xlink:href="#DejaVuSans-115"/>
     <use x="195.800781" xlink:href="#DejaVuSans-116"/>
     <use x="235.009766" xlink:href="#DejaVuSans-45"/>
     <use x="271.09375" xlink:href="#DejaVuSans-99"/>
     <use x="326.074219" xlink:href="#DejaVuSans-111"/>
     <use x="387.255859" xlink:href="#DejaVuSans-110"/>
    </g>
   </g>
   <g id="text_15">
    <!-- cobyla -->
    <g transform="translate(375.22944 169.329987)scale(0.17 -0.17)">
     <defs>
      <path d="M 48.6875 27.296875 
Q 48.6875 37.203125 44.609375 42.84375 
Q 40.53125 48.484375 33.40625 48.484375 
Q 26.265625 48.484375 22.1875 42.84375 
Q 18.109375 37.203125 18.109375 27.296875 
Q 18.109375 17.390625 22.1875 11.75 
Q 26.265625 6.109375 33.40625 6.109375 
Q 40.53125 6.109375 44.609375 11.75 
Q 48.6875 17.390625 48.6875 27.296875 
z
M 18.109375 46.390625 
Q 20.953125 51.265625 25.265625 53.625 
Q 29.59375 56 35.59375 56 
Q 45.5625 56 51.78125 48.09375 
Q 58.015625 40.1875 58.015625 27.296875 
Q 58.015625 14.40625 51.78125 6.484375 
Q 45.5625 -1.421875 35.59375 -1.421875 
Q 29.59375 -1.421875 25.265625 0.953125 
Q 20.953125 3.328125 18.109375 8.203125 
L 18.109375 0 
L 9.078125 0 
L 9.078125 75.984375 
L 18.109375 75.984375 
z
" id="DejaVuSans-98"/>
      <path d="M 32.171875 -5.078125 
Q 28.375 -14.84375 24.75 -17.8125 
Q 21.140625 -20.796875 15.09375 -20.796875 
L 7.90625 -20.796875 
L 7.90625 -13.28125 
L 13.1875 -13.28125 
Q 16.890625 -13.28125 18.9375 -11.515625 
Q 21 -9.765625 23.484375 -3.21875 
L 25.09375 0.875 
L 2.984375 54.6875 
L 12.5 54.6875 
L 29.59375 11.921875 
L 46.6875 54.6875 
L 56.203125 54.6875 
z
" id="DejaVuSans-121"/>
     </defs>
     <use xlink:href="#DejaVuSans-99"/>
     <use x="54.980469" xlink:href="#DejaVuSans-111"/>
     <use x="116.162109" xlink:href="#DejaVuSans-98"/>
     <use x="179.638672" xlink:href="#DejaVuSans-121"/>
     <use x="238.818359" xlink:href="#DejaVuSans-108"/>
     <use x="266.601562" xlink:href="#DejaVuSans-97"/>
    </g>
   </g>
   <g id="text_16">
    <!-- slsqp -->
    <g transform="translate(375.22944 104.863611)scale(0.17 -0.17)">
     <defs>
      <path d="M 14.796875 27.296875 
Q 14.796875 17.390625 18.875 11.75 
Q 22.953125 6.109375 30.078125 6.109375 
Q 37.203125 6.109375 41.296875 11.75 
Q 45.40625 17.390625 45.40625 27.296875 
Q 45.40625 37.203125 41.296875 42.84375 
Q 37.203125 48.484375 30.078125 48.484375 
Q 22.953125 48.484375 18.875 42.84375 
Q 14.796875 37.203125 14.796875 27.296875 
z
M 45.40625 8.203125 
Q 42.578125 3.328125 38.25 0.953125 
Q 33.9375 -1.421875 27.875 -1.421875 
Q 17.96875 -1.421875 11.734375 6.484375 
Q 5.515625 14.40625 5.515625 27.296875 
Q 5.515625 40.1875 11.734375 48.09375 
Q 17.96875 56 27.875 56 
Q 33.9375 56 38.25 53.625 
Q 42.578125 51.265625 45.40625 46.390625 
L 45.40625 54.6875 
L 54.390625 54.6875 
L 54.390625 -20.796875 
L 45.40625 -20.796875 
z
" id="DejaVuSans-113"/>
     </defs>
     <use xlink:href="#DejaVuSans-115"/>
     <use x="52.099609" xlink:href="#DejaVuSans-108"/>
     <use x="79.882812" xlink:href="#DejaVuSans-115"/>
     <use x="131.982422" xlink:href="#DejaVuSans-113"/>
     <use x="195.458984" xlink:href="#DejaVuSans-112"/>
    </g>
   </g>
   <g id="text_17">
    <!-- NAL -->
    <g transform="translate(375.22944 40.397235)scale(0.17 -0.17)">
     <defs>
      <path d="M 9.8125 72.90625 
L 23.09375 72.90625 
L 55.421875 11.921875 
L 55.421875 72.90625 
L 64.984375 72.90625 
L 64.984375 0 
L 51.703125 0 
L 19.390625 60.984375 
L 19.390625 0 
L 9.8125 0 
z
" id="DejaVuSans-78"/>
      <path d="M 34.1875 63.1875 
L 20.796875 26.90625 
L 47.609375 26.90625 
z
M 28.609375 72.90625 
L 39.796875 72.90625 
L 67.578125 0 
L 57.328125 0 
L 50.6875 18.703125 
L 17.828125 18.703125 
L 11.1875 0 
L 0.78125 0 
z
" id="DejaVuSans-65"/>
      <path d="M 9.8125 72.90625 
L 19.671875 72.90625 
L 19.671875 8.296875 
L 55.171875 8.296875 
L 55.171875 0 
L 9.8125 0 
z
" id="DejaVuSans-76"/>
     </defs>
     <use xlink:href="#DejaVuSans-78"/>
     <use x="74.804688" xlink:href="#DejaVuSans-65"/>
     <use x="143.212891" xlink:href="#DejaVuSans-76"/>
    </g>
   </g>
   <g id="text_18">
    <!-- bbob-constrained f9, 10-D -->
    <g transform="translate(60.41088 38.111366)scale(0.102 -0.102)">
     <defs>
      <path d="M 10.984375 1.515625 
L 10.984375 10.5 
Q 14.703125 8.734375 18.5 7.8125 
Q 22.3125 6.890625 25.984375 6.890625 
Q 35.75 6.890625 40.890625 13.453125 
Q 46.046875 20.015625 46.78125 33.40625 
Q 43.953125 29.203125 39.59375 26.953125 
Q 35.25 24.703125 29.984375 24.703125 
Q 19.046875 24.703125 12.671875 31.3125 
Q 6.296875 37.9375 6.296875 49.421875 
Q 6.296875 60.640625 12.9375 67.421875 
Q 19.578125 74.21875 30.609375 74.21875 
Q 43.265625 74.21875 49.921875 64.515625 
Q 56.59375 54.828125 56.59375 36.375 
Q 56.59375 19.140625 48.40625 8.859375 
Q 40.234375 -1.421875 26.421875 -1.421875 
Q 22.703125 -1.421875 18.890625 -0.6875 
Q 15.09375 0.046875 10.984375 1.515625 
z
M 30.609375 32.421875 
Q 37.25 32.421875 41.125 36.953125 
Q 45.015625 41.5 45.015625 49.421875 
Q 45.015625 57.28125 41.125 61.84375 
Q 37.25 66.40625 30.609375 66.40625 
Q 23.96875 66.40625 20.09375 61.84375 
Q 16.21875 57.28125 16.21875 49.421875 
Q 16.21875 41.5 20.09375 36.953125 
Q 23.96875 32.421875 30.609375 32.421875 
z
" id="DejaVuSans-57"/>
      <path d="M 19.671875 64.796875 
L 19.671875 8.109375 
L 31.59375 8.109375 
Q 46.6875 8.109375 53.6875 14.9375 
Q 60.6875 21.78125 60.6875 36.53125 
Q 60.6875 51.171875 53.6875 57.984375 
Q 46.6875 64.796875 31.59375 64.796875 
z
M 9.8125 72.90625 
L 30.078125 72.90625 
Q 51.265625 72.90625 61.171875 64.09375 
Q 71.09375 55.28125 71.09375 36.53125 
Q 71.09375 17.671875 61.125 8.828125 
Q 51.171875 0 30.078125 0 
L 9.8125 0 
z
" id="DejaVuSans-68"/>
     </defs>
     <use xlink:href="#DejaVuSans-98"/>
     <use x="63.476562" xlink:href="#DejaVuSans-98"/>
     <use x="126.953125" xlink:href="#DejaVuSans-111"/>
     <use x="188.134766" xlink:href="#DejaVuSans-98"/>
     <use x="251.611328" xlink:href="#DejaVuSans-45"/>
     <use x="287.695312" xlink:href="#DejaVuSans-99"/>
     <use x="342.675781" xlink:href="#DejaVuSans-111"/>
     <use x="403.857422" xlink:href="#DejaVuSans-110"/>
     <use x="467.236328" xlink:href="#DejaVuSans-115"/>
     <use x="519.335938" xlink:href="#DejaVuSans-116"/>
     <use x="558.544922" xlink:href="#DejaVuSans-114"/>
     <use x="599.658203" xlink:href="#DejaVuSans-97"/>
     <use x="660.9375" xlink:href="#DejaVuSans-105"/>
     <use x="688.720703" xlink:href="#DejaVuSans-110"/>
     <use x="752.099609" xlink:href="#DejaVuSans-101"/>
     <use x="813.623047" xlink:href="#DejaVuSans-100"/>
     <use x="877.099609" xlink:href="#DejaVuSans-32"/>
     <use x="908.886719" xlink:href="#DejaVuSans-102"/>
     <use x="944.091797" xlink:href="#DejaVuSans-57"/>
     <use x="1007.714844" xlink:href="#DejaVuSans-44"/>
     <use x="1039.501953" xlink:href="#DejaVuSans-32"/>
     <use x="1071.289062" xlink:href="#DejaVuSans-49"/>
     <use x="1134.912109" xlink:href="#DejaVuSans-48"/>
     <use x="1198.535156" xlink:href="#DejaVuSans-45"/>
     <use x="1234.619141" xlink:href="#DejaVuSans-68"/>
    </g>
    <!-- 41 targets: 100..1e-06 -->
    <g transform="translate(60.41088 49.533135)scale(0.102 -0.102)">
     <defs>
      <path d="M 11.71875 12.40625 
L 22.015625 12.40625 
L 22.015625 0 
L 11.71875 0 
z
M 11.71875 51.703125 
L 22.015625 51.703125 
L 22.015625 39.3125 
L 11.71875 39.3125 
z
" id="DejaVuSans-58"/>
     </defs>
     <use xlink:href="#DejaVuSans-52"/>
     <use x="63.623047" xlink:href="#DejaVuSans-49"/>
     <use x="127.246094" xlink:href="#DejaVuSans-32"/>
     <use x="159.033203" xlink:href="#DejaVuSans-116"/>
     <use x="198.242188" xlink:href="#DejaVuSans-97"/>
     <use x="259.521484" xlink:href="#DejaVuSans-114"/>
     <use x="298.884766" xlink:href="#DejaVuSans-103"/>
     <use x="362.361328" xlink:href="#DejaVuSans-101"/>
     <use x="423.884766" xlink:href="#DejaVuSans-116"/>
     <use x="463.09375" xlink:href="#DejaVuSans-115"/>
     <use x="515.193359" xlink:href="#DejaVuSans-58"/>
     <use x="548.884766" xlink:href="#DejaVuSans-32"/>
     <use x="580.671875" xlink:href="#DejaVuSans-49"/>
     <use x="644.294922" xlink:href="#DejaVuSans-48"/>
     <use x="707.917969" xlink:href="#DejaVuSans-48"/>
     <use x="771.541016" xlink:href="#DejaVuSans-46"/>
     <use x="803.328125" xlink:href="#DejaVuSans-46"/>
     <use x="835.115234" xlink:href="#DejaVuSans-49"/>
     <use x="898.738281" xlink:href="#DejaVuSans-101"/>
     <use x="960.261719" xlink:href="#DejaVuSans-45"/>
     <use x="996.345703" xlink:href="#DejaVuSans-48"/>
     <use x="1059.96875" xlink:href="#DejaVuSans-54"/>
    </g>
    <!-- 15 instances -->
    <g transform="translate(60.41088 60.954904)scale(0.102 -0.102)">
     <defs>
      <path d="M 10.796875 72.90625 
L 49.515625 72.90625 
L 49.515625 64.59375 
L 19.828125 64.59375 
L 19.828125 46.734375 
Q 21.96875 47.46875 24.109375 47.828125 
Q 26.265625 48.1875 28.421875 48.1875 
Q 40.625 48.1875 47.75 41.5 
Q 54.890625 34.8125 54.890625 23.390625 
Q 54.890625 11.625 47.5625 5.09375 
Q 40.234375 -1.421875 26.90625 -1.421875 
Q 22.3125 -1.421875 17.546875 -0.640625 
Q 12.796875 0.140625 7.71875 1.703125 
L 7.71875 11.625 
Q 12.109375 9.234375 16.796875 8.0625 
Q 21.484375 6.890625 26.703125 6.890625 
Q 35.15625 6.890625 40.078125 11.328125 
Q 45.015625 15.765625 45.015625 23.390625 
Q 45.015625 31 40.078125 35.4375 
Q 35.15625 39.890625 26.703125 39.890625 
Q 22.75 39.890625 18.8125 39.015625 
Q 14.890625 38.140625 10.796875 36.28125 
z
" id="DejaVuSans-53"/>
     </defs>
     <use xlink:href="#DejaVuSans-49"/>
     <use x="63.623047" xlink:href="#DejaVuSans-53"/>
     <use x="127.246094" xlink:href="#DejaVuSans-32"/>
     <use x="159.033203" xlink:href="#DejaVuSans-105"/>
     <use x="186.816406" xlink:href="#DejaVuSans-110"/>
     <use x="250.195312" xlink:href="#DejaVuSans-115"/>
     <use x="302.294922" xlink:href="#DejaVuSans-116"/>
     <use x="341.503906" xlink:href="#DejaVuSans-97"/>
     <use x="402.783203" xlink:href="#DejaVuSans-110"/>
     <use x="466.162109" xlink:href="#DejaVuSans-99"/>
     <use x="521.142578" xlink:href="#DejaVuSans-101"/>
     <use x="582.666016" xlink:href="#DejaVuSans-115"/>
    </g>
   </g>
   <g id="text_19">
    <!-- v5z33 -->
    <g style="fill:#808080;" transform="translate(183.016656 294.151352)scale(0.1 -0.1)">
     <defs>
      <path d="M 5.515625 54.6875 
L 48.1875 54.6875 
L 48.1875 46.484375 
L 14.40625 7.171875 
L 48.1875 7.171875 
L 48.1875 0 
L 4.296875 0 
L 4.296875 8.203125 
L 38.09375 47.515625 
L 5.515625 47.515625 
z
" id="DejaVuSans-122"/>
      <path d="M 40.578125 39.3125 
Q 47.65625 37.796875 51.625 33 
Q 55.609375 28.21875 55.609375 21.1875 
Q 55.609375 10.40625 48.1875 4.484375 
Q 40.765625 -1.421875 27.09375 -1.421875 
Q 22.515625 -1.421875 17.65625 -0.515625 
Q 12.796875 0.390625 7.625 2.203125 
L 7.625 11.71875 
Q 11.71875 9.328125 16.59375 8.109375 
Q 21.484375 6.890625 26.8125 6.890625 
Q 36.078125 6.890625 40.9375 10.546875 
Q 45.796875 14.203125 45.796875 21.1875 
Q 45.796875 27.640625 41.28125 31.265625 
Q 36.765625 34.90625 28.71875 34.90625 
L 20.21875 34.90625 
L 20.21875 43.015625 
L 29.109375 43.015625 
Q 36.375 43.015625 40.234375 45.921875 
Q 44.09375 48.828125 44.09375 54.296875 
Q 44.09375 59.90625 40.109375 62.90625 
Q 36.140625 65.921875 28.71875 65.921875 
Q 24.65625 65.921875 20.015625 65.03125 
Q 15.375 64.15625 9.8125 62.3125 
L 9.8125 71.09375 
Q 15.4375 72.65625 20.34375 73.4375 
Q 25.25 74.21875 29.59375 74.21875 
Q 40.828125 74.21875 47.359375 69.109375 
Q 53.90625 64.015625 53.90625 55.328125 
Q 53.90625 49.265625 50.4375 45.09375 
Q 46.96875 40.921875 40.578125 39.3125 
z
" id="DejaVuSans-51"/>
     </defs>
     <use xlink:href="#DejaVuSans-118"/>
     <use x="59.179688" xlink:href="#DejaVuSans-53"/>
     <use x="122.802734" xlink:href="#DejaVuSans-122"/>
     <use x="175.292969" xlink:href="#DejaVuSans-51"/>
     <use x="238.916016" xlink:href="#DejaVuSans-51"/>
    </g>
   </g>
   <g id="text_20">
    <!-- 9 Sep. Ellipsoid, 6 constraints -->
    <g transform="translate(50.47525 21.648)scale(0.2 -0.2)">
     <defs>
      <path d="M 53.515625 70.515625 
L 53.515625 60.890625 
Q 47.90625 63.578125 42.921875 64.890625 
Q 37.9375 66.21875 33.296875 66.21875 
Q 25.25 66.21875 20.875 63.09375 
Q 16.5 59.96875 16.5 54.203125 
Q 16.5 49.359375 19.40625 46.890625 
Q 22.3125 44.4375 30.421875 42.921875 
L 36.375 41.703125 
Q 47.40625 39.59375 52.65625 34.296875 
Q 57.90625 29 57.90625 20.125 
Q 57.90625 9.515625 50.796875 4.046875 
Q 43.703125 -1.421875 29.984375 -1.421875 
Q 24.8125 -1.421875 18.96875 -0.25 
Q 13.140625 0.921875 6.890625 3.21875 
L 6.890625 13.375 
Q 12.890625 10.015625 18.65625 8.296875 
Q 24.421875 6.59375 29.984375 6.59375 
Q 38.421875 6.59375 43.015625 9.90625 
Q 47.609375 13.234375 47.609375 19.390625 
Q 47.609375 24.75 44.3125 27.78125 
Q 41.015625 30.8125 33.5 32.328125 
L 27.484375 33.5 
Q 16.453125 35.6875 11.515625 40.375 
Q 6.59375 45.0625 6.59375 53.421875 
Q 6.59375 63.09375 13.40625 68.65625 
Q 20.21875 74.21875 32.171875 74.21875 
Q 37.3125 74.21875 42.625 73.28125 
Q 47.953125 72.359375 53.515625 70.515625 
z
" id="DejaVuSans-83"/>
      <path d="M 9.8125 72.90625 
L 55.90625 72.90625 
L 55.90625 64.59375 
L 19.671875 64.59375 
L 19.671875 43.015625 
L 54.390625 43.015625 
L 54.390625 34.71875 
L 19.671875 34.71875 
L 19.671875 8.296875 
L 56.78125 8.296875 
L 56.78125 0 
L 9.8125 0 
z
" id="DejaVuSans-69"/>
     </defs>
     <use xlink:href="#DejaVuSans-57"/>
     <use x="63.623047" xlink:href="#DejaVuSans-32"/>
     <use x="95.410156" xlink:href="#DejaVuSans-83"/>
     <use x="158.886719" xlink:href="#DejaVuSans-101"/>
     <use x="220.410156" xlink:href="#DejaVuSans-112"/>
     <use x="283.886719" xlink:href="#DejaVuSans-46"/>
     <use x="315.673828" xlink:href="#DejaVuSans-32"/>
     <use x="347.460938" xlink:href="#DejaVuSans-69"/>
     <use x="410.644531" xlink:href="#DejaVuSans-108"/>
     <use x="438.427734" xlink:href="#DejaVuSans-108"/>
     <use x="466.210938" xlink:href="#DejaVuSans-105"/>
     <use x="493.994141" xlink:href="#DejaVuSans-112"/>
     <use x="557.470703" xlink:href="#DejaVuSans-115"/>
     <use x="609.570312" xlink:href="#DejaVuSans-111"/>
     <use x="670.751953" xlink:href="#DejaVuSans-105"/>
     <use x="698.535156" xlink:href="#DejaVuSans-100"/>
     <use x="762.011719" xlink:href="#DejaVuSans-44"/>
     <use x="793.798828" xlink:href="#DejaVuSans-32"/>
     <use x="825.585938" xlink:href="#DejaVuSans-54"/>
     <use x="889.208984" xlink:href="#DejaVuSans-32"/>
     <use x="920.996094" xlink:href="#DejaVuSans-99"/>
     <use x="975.976562" xlink:href="#DejaVuSans-111"/>
     <use x="1037.158203" xlink:href="#DejaVuSans-110"/>
     <use x="1100.537109" xlink:href="#DejaVuSans-115"/>
     <use x="1152.636719" xlink:href="#DejaVuSans-116"/>
     <use x="1191.845703" xlink:href="#DejaVuSans-114"/>
     <use x="1232.958984" xlink:href="#DejaVuSans-97"/>
     <use x="1294.238281" xlink:href="#DejaVuSans-105"/>
     <use x="1322.021484" xlink:href="#DejaVuSans-110"/>
     <use x="1385.400391" xlink:href="#DejaVuSans-116"/>
     <use x="1424.609375" xlink:href="#DejaVuSans-115"/>
    </g>
   </g>
  </g>
 </g>
 <defs>
  <clipPath id="pd8e43a1721">
   <rect height="271.296" width="281.088" x="57.6" y="27.648"/>
  </clipPath>
 </defs>
</svg>
