<?xml version="1.0" encoding="utf-8" standalone="no"?>
<!DOCTYPE svg PUBLIC "-//W3C//DTD SVG 1.1//EN"
  "http://www.w3.org/Graphics/SVG/1.1/DTD/svg11.dtd">
<!-- Created with matplotlib (https://matplotlib.org/) -->
<svg height="345.6pt" version="1.1" viewBox="0 0 460.8 345.6" width="460.8pt" xmlns="http://www.w3.org/2000/svg" xmlns:xlink="http://www.w3.org/1999/xlink">
 <metadata>
  <rdf:RDF xmlns:cc="http://creativecommons.org/ns#" xmlns:dc="http://purl.org/dc/elements/1.1/" xmlns:rdf="http://www.w3.org/1999/02/22-rdf-syntax-ns#">
   <cc:Work>
    <dc:type rdf:resource="http://purl.org/dc/dcmitype/StillImage"/>
    <dc:date>2021-06-24T15:49:38.395948</dc:date>
    <dc:format>image/svg+xml</dc:format>
    <dc:creator>
     <cc:Agent>
      <dc:title>Matplotlib v3.3.3, https://matplotlib.org/</dc:title>
     </cc:Agent>
    </dc:creator>
   </cc:Work>
  </rdf:RDF>
 </metadata>
 <defs>
  <style type="text/css">*{stroke-linecap:butt;stroke-linejoin:round;}</style>
 </defs>
 <g id="figure_1">
  <g id="patch_1">
   <path d="M 0 345.6 
L 460.8 345.6 
L 460.8 0 
L 0 0 
z
" style="fill:#ffffff;"/>
  </g>
  <g id="axes_1">
   <g id="patch_2">
    <path d="M 57.6 298.944 
L 338.688 298.944 
L 338.688 27.648 
L 57.6 27.648 
z
" style="fill:#ffffff;"/>
   </g>
   <g id="matplotlib.axis_1">
    <g id="xtick_1">
     <g id="line2d_1">
      <path clip-path="url(#pe5d9cba2eb)" d="M 57.6 298.944 
L 57.6 27.648 
" style="fill:none;stroke:#b0b0b0;stroke-linecap:square;stroke-width:0.8;"/>
     </g>
     <g id="line2d_2">
      <defs>
       <path d="M 0 0 
L 0 3.5 
" id="m3e806e78ae" style="stroke:#000000;stroke-width:0.8;"/>
      </defs>
      <g>
       <use style="stroke:#000000;stroke-width:0.8;" x="57.6" xlink:href="#m3e806e78ae" y="298.944"/>
      </g>
     </g>
     <g id="text_1">
      <!-- 0 -->
      <g transform="translate(51.2375 321.140875)scale(0.2 -0.2)">
       <defs>
        <path d="M 31.78125 66.40625 
Q 24.171875 66.40625 20.328125 58.90625 
Q 16.5 51.421875 16.5 36.375 
Q 16.5 21.390625 20.328125 13.890625 
Q 24.171875 6.390625 31.78125 6.390625 
Q 39.453125 6.390625 43.28125 13.890625 
Q 47.125 21.390625 47.125 36.375 
Q 47.125 51.421875 43.28125 58.90625 
Q 39.453125 66.40625 31.78125 66.40625 
z
M 31.78125 74.21875 
Q 44.046875 74.21875 50.515625 64.515625 
Q 56.984375 54.828125 56.984375 36.375 
Q 56.984375 17.96875 50.515625 8.265625 
Q 44.046875 -1.421875 31.78125 -1.421875 
Q 19.53125 -1.421875 13.0625 8.265625 
Q 6.59375 17.96875 6.59375 36.375 
Q 6.59375 54.828125 13.0625 64.515625 
Q 19.53125 74.21875 31.78125 74.21875 
z
" id="DejaVuSans-48"/>
       </defs>
       <use xlink:href="#DejaVuSans-48"/>
      </g>
     </g>
    </g>
    <g id="xtick_2">
     <g id="line2d_3">
      <path clip-path="url(#pe5d9cba2eb)" d="M 137.910857 298.944 
L 137.910857 27.648 
" style="fill:none;stroke:#b0b0b0;stroke-linecap:square;stroke-width:0.8;"/>
     </g>
     <g id="line2d_4">
      <g>
       <use style="stroke:#000000;stroke-width:0.8;" x="137.910857" xlink:href="#m3e806e78ae" y="298.944"/>
      </g>
     </g>
     <g id="text_2">
      <!-- 2 -->
      <g transform="translate(131.548357 321.140875)scale(0.2 -0.2)">
       <defs>
        <path d="M 19.1875 8.296875 
L 53.609375 8.296875 
L 53.609375 0 
L 7.328125 0 
L 7.328125 8.296875 
Q 12.9375 14.109375 22.625 23.890625 
Q 32.328125 33.6875 34.8125 36.53125 
Q 39.546875 41.84375 41.421875 45.53125 
Q 43.3125 49.21875 43.3125 52.78125 
Q 43.3125 58.59375 39.234375 62.25 
Q 35.15625 65.921875 28.609375 65.921875 
Q 23.96875 65.921875 18.8125 64.3125 
Q 13.671875 62.703125 7.8125 59.421875 
L 7.8125 69.390625 
Q 13.765625 71.78125 18.9375 73 
Q 24.125 74.21875 28.421875 74.21875 
Q 39.75 74.21875 46.484375 68.546875 
Q 53.21875 62.890625 53.21875 53.421875 
Q 53.21875 48.921875 51.53125 44.890625 
Q 49.859375 40.875 45.40625 35.40625 
Q 44.1875 33.984375 37.640625 27.21875 
Q 31.109375 20.453125 19.1875 8.296875 
z
" id="DejaVuSans-50"/>
       </defs>
       <use xlink:href="#DejaVuSans-50"/>
      </g>
     </g>
    </g>
    <g id="xtick_3">
     <g id="line2d_5">
      <path clip-path="url(#pe5d9cba2eb)" d="M 218.221714 298.944 
L 218.221714 27.648 
" style="fill:none;stroke:#b0b0b0;stroke-linecap:square;stroke-width:0.8;"/>
     </g>
     <g id="line2d_6">
      <g>
       <use style="stroke:#000000;stroke-width:0.8;" x="218.221714" xlink:href="#m3e806e78ae" y="298.944"/>
      </g>
     </g>
     <g id="text_3">
      <!-- 4 -->
      <g transform="translate(211.859214 321.140875)scale(0.2 -0.2)">
       <defs>
        <path d="M 37.796875 64.3125 
L 12.890625 25.390625 
L 37.796875 25.390625 
z
M 35.203125 72.90625 
L 47.609375 72.90625 
L 47.609375 25.390625 
L 58.015625 25.390625 
L 58.015625 17.1875 
L 47.609375 17.1875 
L 47.609375 0 
L 37.796875 0 
L 37.796875 17.1875 
L 4.890625 17.1875 
L 4.890625 26.703125 
z
" id="DejaVuSans-52"/>
       </defs>
       <use xlink:href="#DejaVuSans-52"/>
      </g>
     </g>
    </g>
    <g id="xtick_4">
     <g id="line2d_7">
      <path clip-path="url(#pe5d9cba2eb)" d="M 298.532571 298.944 
L 298.532571 27.648 
" style="fill:none;stroke:#b0b0b0;stroke-linecap:square;stroke-width:0.8;"/>
     </g>
     <g id="line2d_8">
      <g>
       <use style="stroke:#000000;stroke-width:0.8;" x="298.532571" xlink:href="#m3e806e78ae" y="298.944"/>
      </g>
     </g>
     <g id="text_4">
      <!-- 6 -->
      <g transform="translate(292.170071 321.140875)scale(0.2 -0.2)">
       <defs>
        <path d="M 33.015625 40.375 
Q 26.375 40.375 22.484375 35.828125 
Q 18.609375 31.296875 18.609375 23.390625 
Q 18.609375 15.53125 22.484375 10.953125 
Q 26.375 6.390625 33.015625 6.390625 
Q 39.65625 6.390625 43.53125 10.953125 
Q 47.40625 15.53125 47.40625 23.390625 
Q 47.40625 31.296875 43.53125 35.828125 
Q 39.65625 40.375 33.015625 40.375 
z
M 52.59375 71.296875 
L 52.59375 62.3125 
Q 48.875 64.0625 45.09375 64.984375 
Q 41.3125 65.921875 37.59375 65.921875 
Q 27.828125 65.921875 22.671875 59.328125 
Q 17.53125 52.734375 16.796875 39.40625 
Q 19.671875 43.65625 24.015625 45.921875 
Q 28.375 48.1875 33.59375 48.1875 
Q 44.578125 48.1875 50.953125 41.515625 
Q 57.328125 34.859375 57.328125 23.390625 
Q 57.328125 12.15625 50.6875 5.359375 
Q 44.046875 -1.421875 33.015625 -1.421875 
Q 20.359375 -1.421875 13.671875 8.265625 
Q 6.984375 17.96875 6.984375 36.375 
Q 6.984375 53.65625 15.1875 63.9375 
Q 23.390625 74.21875 37.203125 74.21875 
Q 40.921875 74.21875 44.703125 73.484375 
Q 48.484375 72.75 52.59375 71.296875 
z
" id="DejaVuSans-54"/>
       </defs>
       <use xlink:href="#DejaVuSans-54"/>
      </g>
     </g>
    </g>
    <g id="xtick_5">
     <g id="line2d_9">
      <path clip-path="url(#pe5d9cba2eb)" d="M 97.755429 298.944 
L 97.755429 27.648 
" style="fill:none;stroke:#b0b0b0;stroke-linecap:square;stroke-width:0.8;"/>
     </g>
     <g id="line2d_10">
      <defs>
       <path d="M 0 0 
L 0 2 
" id="m26b830d214" style="stroke:#000000;stroke-width:0.6;"/>
      </defs>
      <g>
       <use style="stroke:#000000;stroke-width:0.6;" x="97.755429" xlink:href="#m26b830d214" y="298.944"/>
      </g>
     </g>
    </g>
    <g id="xtick_6">
     <g id="line2d_11">
      <path clip-path="url(#pe5d9cba2eb)" d="M 178.066286 298.944 
L 178.066286 27.648 
" style="fill:none;stroke:#b0b0b0;stroke-linecap:square;stroke-width:0.8;"/>
     </g>
     <g id="line2d_12">
      <g>
       <use style="stroke:#000000;stroke-width:0.6;" x="178.066286" xlink:href="#m26b830d214" y="298.944"/>
      </g>
     </g>
    </g>
    <g id="xtick_7">
     <g id="line2d_13">
      <path clip-path="url(#pe5d9cba2eb)" d="M 258.377143 298.944 
L 258.377143 27.648 
" style="fill:none;stroke:#b0b0b0;stroke-linecap:square;stroke-width:0.8;"/>
     </g>
     <g id="line2d_14">
      <g>
       <use style="stroke:#000000;stroke-width:0.6;" x="258.377143" xlink:href="#m26b830d214" y="298.944"/>
      </g>
     </g>
    </g>
    <g id="xtick_8">
     <g id="line2d_15">
      <path clip-path="url(#pe5d9cba2eb)" d="M 338.688 298.944 
L 338.688 27.648 
" style="fill:none;stroke:#b0b0b0;stroke-linecap:square;stroke-width:0.8;"/>
     </g>
     <g id="line2d_16">
      <g>
       <use style="stroke:#000000;stroke-width:0.6;" x="338.688" xlink:href="#m26b830d214" y="298.944"/>
      </g>
     </g>
    </g>
    <g id="text_5">
     <!-- log10(# (f+g)-evals / dimension) -->
     <g transform="translate(58.145016 342.217594)scale(0.17 -0.17)">
      <defs>
       <path d="M 9.421875 75.984375 
L 18.40625 75.984375 
L 18.40625 0 
L 9.421875 0 
z
" id="DejaVuSans-108"/>
       <path d="M 30.609375 48.390625 
Q 23.390625 48.390625 19.1875 42.75 
Q 14.984375 37.109375 14.984375 27.296875 
Q 14.984375 17.484375 19.15625 11.84375 
Q 23.34375 6.203125 30.609375 6.203125 
Q 37.796875 6.203125 41.984375 11.859375 
Q 46.1875 17.53125 46.1875 27.296875 
Q 46.1875 37.015625 41.984375 42.703125 
Q 37.796875 48.390625 30.609375 48.390625 
z
M 30.609375 56 
Q 42.328125 56 49.015625 48.375 
Q 55.71875 40.765625 55.71875 27.296875 
Q 55.71875 13.875 49.015625 6.21875 
Q 42.328125 -1.421875 30.609375 -1.421875 
Q 18.84375 -1.421875 12.171875 6.21875 
Q 5.515625 13.875 5.515625 27.296875 
Q 5.515625 40.765625 12.171875 48.375 
Q 18.84375 56 30.609375 56 
z
" id="DejaVuSans-111"/>
       <path d="M 45.40625 27.984375 
Q 45.40625 37.75 41.375 43.109375 
Q 37.359375 48.484375 30.078125 48.484375 
Q 22.859375 48.484375 18.828125 43.109375 
Q 14.796875 37.75 14.796875 27.984375 
Q 14.796875 18.265625 18.828125 12.890625 
Q 22.859375 7.515625 30.078125 7.515625 
Q 37.359375 7.515625 41.375 12.890625 
Q 45.40625 18.265625 45.40625 27.984375 
z
M 54.390625 6.78125 
Q 54.390625 -7.171875 48.1875 -13.984375 
Q 42 -20.796875 29.203125 -20.796875 
Q 24.46875 -20.796875 20.265625 -20.09375 
Q 16.0625 -19.390625 12.109375 -17.921875 
L 12.109375 -9.1875 
Q 16.0625 -11.328125 19.921875 -12.34375 
Q 23.78125 -13.375 27.78125 -13.375 
Q 36.625 -13.375 41.015625 -8.765625 
Q 45.40625 -4.15625 45.40625 5.171875 
L 45.40625 9.625 
Q 42.625 4.78125 38.28125 2.390625 
Q 33.9375 0 27.875 0 
Q 17.828125 0 11.671875 7.65625 
Q 5.515625 15.328125 5.515625 27.984375 
Q 5.515625 40.671875 11.671875 48.328125 
Q 17.828125 56 27.875 56 
Q 33.9375 56 38.28125 53.609375 
Q 42.625 51.21875 45.40625 46.390625 
L 45.40625 54.6875 
L 54.390625 54.6875 
z
" id="DejaVuSans-103"/>
       <path d="M 12.40625 8.296875 
L 28.515625 8.296875 
L 28.515625 63.921875 
L 10.984375 60.40625 
L 10.984375 69.390625 
L 28.421875 72.90625 
L 38.28125 72.90625 
L 38.28125 8.296875 
L 54.390625 8.296875 
L 54.390625 0 
L 12.40625 0 
z
" id="DejaVuSans-49"/>
       <path d="M 31 75.875 
Q 24.46875 64.65625 21.28125 53.65625 
Q 18.109375 42.671875 18.109375 31.390625 
Q 18.109375 20.125 21.3125 9.0625 
Q 24.515625 -2 31 -13.1875 
L 23.1875 -13.1875 
Q 15.875 -1.703125 12.234375 9.375 
Q 8.59375 20.453125 8.59375 31.390625 
Q 8.59375 42.28125 12.203125 53.3125 
Q 15.828125 64.359375 23.1875 75.875 
z
" id="DejaVuSans-40"/>
       <path d="M 51.125 44 
L 36.921875 44 
L 32.8125 27.6875 
L 47.125 27.6875 
z
M 43.796875 71.78125 
L 38.71875 51.515625 
L 52.984375 51.515625 
L 58.109375 71.78125 
L 65.921875 71.78125 
L 60.890625 51.515625 
L 76.125 51.515625 
L 76.125 44 
L 58.984375 44 
L 54.984375 27.6875 
L 70.515625 27.6875 
L 70.515625 20.21875 
L 53.078125 20.21875 
L 48 0 
L 40.1875 0 
L 45.21875 20.21875 
L 30.90625 20.21875 
L 25.875 0 
L 18.015625 0 
L 23.09375 20.21875 
L 7.71875 20.21875 
L 7.71875 27.6875 
L 24.90625 27.6875 
L 29 44 
L 13.28125 44 
L 13.28125 51.515625 
L 30.90625 51.515625 
L 35.890625 71.78125 
z
" id="DejaVuSans-35"/>
       <path id="DejaVuSans-32"/>
       <path d="M 37.109375 75.984375 
L 37.109375 68.5 
L 28.515625 68.5 
Q 23.6875 68.5 21.796875 66.546875 
Q 19.921875 64.59375 19.921875 59.515625 
L 19.921875 54.6875 
L 34.71875 54.6875 
L 34.71875 47.703125 
L 19.921875 47.703125 
L 19.921875 0 
L 10.890625 0 
L 10.890625 47.703125 
L 2.296875 47.703125 
L 2.296875 54.6875 
L 10.890625 54.6875 
L 10.890625 58.5 
Q 10.890625 67.625 15.140625 71.796875 
Q 19.390625 75.984375 28.609375 75.984375 
z
" id="DejaVuSans-102"/>
       <path d="M 46 62.703125 
L 46 35.5 
L 73.1875 35.5 
L 73.1875 27.203125 
L 46 27.203125 
L 46 0 
L 37.796875 0 
L 37.796875 27.203125 
L 10.59375 27.203125 
L 10.59375 35.5 
L 37.796875 35.5 
L 37.796875 62.703125 
z
" id="DejaVuSans-43"/>
       <path d="M 8.015625 75.875 
L 15.828125 75.875 
Q 23.140625 64.359375 26.78125 53.3125 
Q 30.421875 42.28125 30.421875 31.390625 
Q 30.421875 20.453125 26.78125 9.375 
Q 23.140625 -1.703125 15.828125 -13.1875 
L 8.015625 -13.1875 
Q 14.5 -2 17.703125 9.0625 
Q 20.90625 20.125 20.90625 31.390625 
Q 20.90625 42.671875 17.703125 53.65625 
Q 14.5 64.65625 8.015625 75.875 
z
" id="DejaVuSans-41"/>
       <path d="M 4.890625 31.390625 
L 31.203125 31.390625 
L 31.203125 23.390625 
L 4.890625 23.390625 
z
" id="DejaVuSans-45"/>
       <path d="M 56.203125 29.59375 
L 56.203125 25.203125 
L 14.890625 25.203125 
Q 15.484375 15.921875 20.484375 11.0625 
Q 25.484375 6.203125 34.421875 6.203125 
Q 39.59375 6.203125 44.453125 7.46875 
Q 49.3125 8.734375 54.109375 11.28125 
L 54.109375 2.78125 
Q 49.265625 0.734375 44.1875 -0.34375 
Q 39.109375 -1.421875 33.890625 -1.421875 
Q 20.796875 -1.421875 13.15625 6.1875 
Q 5.515625 13.8125 5.515625 26.8125 
Q 5.515625 40.234375 12.765625 48.109375 
Q 20.015625 56 32.328125 56 
Q 43.359375 56 49.78125 48.890625 
Q 56.203125 41.796875 56.203125 29.59375 
z
M 47.21875 32.234375 
Q 47.125 39.59375 43.09375 43.984375 
Q 39.0625 48.390625 32.421875 48.390625 
Q 24.90625 48.390625 20.390625 44.140625 
Q 15.875 39.890625 15.1875 32.171875 
z
" id="DejaVuSans-101"/>
       <path d="M 2.984375 54.6875 
L 12.5 54.6875 
L 29.59375 8.796875 
L 46.6875 54.6875 
L 56.203125 54.6875 
L 35.6875 0 
L 23.484375 0 
z
" id="DejaVuSans-118"/>
       <path d="M 34.28125 27.484375 
Q 23.390625 27.484375 19.1875 25 
Q 14.984375 22.515625 14.984375 16.5 
Q 14.984375 11.71875 18.140625 8.90625 
Q 21.296875 6.109375 26.703125 6.109375 
Q 34.1875 6.109375 38.703125 11.40625 
Q 43.21875 16.703125 43.21875 25.484375 
L 43.21875 27.484375 
z
M 52.203125 31.203125 
L 52.203125 0 
L 43.21875 0 
L 43.21875 8.296875 
Q 40.140625 3.328125 35.546875 0.953125 
Q 30.953125 -1.421875 24.3125 -1.421875 
Q 15.921875 -1.421875 10.953125 3.296875 
Q 6 8.015625 6 15.921875 
Q 6 25.140625 12.171875 29.828125 
Q 18.359375 34.515625 30.609375 34.515625 
L 43.21875 34.515625 
L 43.21875 35.40625 
Q 43.21875 41.609375 39.140625 45 
Q 35.0625 48.390625 27.6875 48.390625 
Q 23 48.390625 18.546875 47.265625 
Q 14.109375 46.140625 10.015625 43.890625 
L 10.015625 52.203125 
Q 14.9375 54.109375 19.578125 55.046875 
Q 24.21875 56 28.609375 56 
Q 40.484375 56 46.34375 49.84375 
Q 52.203125 43.703125 52.203125 31.203125 
z
" id="DejaVuSans-97"/>
       <path d="M 44.28125 53.078125 
L 44.28125 44.578125 
Q 40.484375 46.53125 36.375 47.5 
Q 32.28125 48.484375 27.875 48.484375 
Q 21.1875 48.484375 17.84375 46.4375 
Q 14.5 44.390625 14.5 40.28125 
Q 14.5 37.15625 16.890625 35.375 
Q 19.28125 33.59375 26.515625 31.984375 
L 29.59375 31.296875 
Q 39.15625 29.25 43.1875 25.515625 
Q 47.21875 21.78125 47.21875 15.09375 
Q 47.21875 7.46875 41.1875 3.015625 
Q 35.15625 -1.421875 24.609375 -1.421875 
Q 20.21875 -1.421875 15.453125 -0.5625 
Q 10.6875 0.296875 5.421875 2 
L 5.421875 11.28125 
Q 10.40625 8.6875 15.234375 7.390625 
Q 20.0625 6.109375 24.8125 6.109375 
Q 31.15625 6.109375 34.5625 8.28125 
Q 37.984375 10.453125 37.984375 14.40625 
Q 37.984375 18.0625 35.515625 20.015625 
Q 33.0625 21.96875 24.703125 23.78125 
L 21.578125 24.515625 
Q 13.234375 26.265625 9.515625 29.90625 
Q 5.8125 33.546875 5.8125 39.890625 
Q 5.8125 47.609375 11.28125 51.796875 
Q 16.75 56 26.8125 56 
Q 31.78125 56 36.171875 55.265625 
Q 40.578125 54.546875 44.28125 53.078125 
z
" id="DejaVuSans-115"/>
       <path d="M 25.390625 72.90625 
L 33.6875 72.90625 
L 8.296875 -9.28125 
L 0 -9.28125 
z
" id="DejaVuSans-47"/>
       <path d="M 45.40625 46.390625 
L 45.40625 75.984375 
L 54.390625 75.984375 
L 54.390625 0 
L 45.40625 0 
L 45.40625 8.203125 
Q 42.578125 3.328125 38.25 0.953125 
Q 33.9375 -1.421875 27.875 -1.421875 
Q 17.96875 -1.421875 11.734375 6.484375 
Q 5.515625 14.40625 5.515625 27.296875 
Q 5.515625 40.1875 11.734375 48.09375 
Q 17.96875 56 27.875 56 
Q 33.9375 56 38.25 53.625 
Q 42.578125 51.265625 45.40625 46.390625 
z
M 14.796875 27.296875 
Q 14.796875 17.390625 18.875 11.75 
Q 22.953125 6.109375 30.078125 6.109375 
Q 37.203125 6.109375 41.296875 11.75 
Q 45.40625 17.390625 45.40625 27.296875 
Q 45.40625 37.203125 41.296875 42.84375 
Q 37.203125 48.484375 30.078125 48.484375 
Q 22.953125 48.484375 18.875 42.84375 
Q 14.796875 37.203125 14.796875 27.296875 
z
" id="DejaVuSans-100"/>
       <path d="M 9.421875 54.6875 
L 18.40625 54.6875 
L 18.40625 0 
L 9.421875 0 
z
M 9.421875 75.984375 
L 18.40625 75.984375 
L 18.40625 64.59375 
L 9.421875 64.59375 
z
" id="DejaVuSans-105"/>
       <path d="M 52 44.1875 
Q 55.375 50.25 60.0625 53.125 
Q 64.75 56 71.09375 56 
Q 79.640625 56 84.28125 50.015625 
Q 88.921875 44.046875 88.921875 33.015625 
L 88.921875 0 
L 79.890625 0 
L 79.890625 32.71875 
Q 79.890625 40.578125 77.09375 44.375 
Q 74.3125 48.1875 68.609375 48.1875 
Q 61.625 48.1875 57.5625 43.546875 
Q 53.515625 38.921875 53.515625 30.90625 
L 53.515625 0 
L 44.484375 0 
L 44.484375 32.71875 
Q 44.484375 40.625 41.703125 44.40625 
Q 38.921875 48.1875 33.109375 48.1875 
Q 26.21875 48.1875 22.15625 43.53125 
Q 18.109375 38.875 18.109375 30.90625 
L 18.109375 0 
L 9.078125 0 
L 9.078125 54.6875 
L 18.109375 54.6875 
L 18.109375 46.1875 
Q 21.1875 51.21875 25.484375 53.609375 
Q 29.78125 56 35.6875 56 
Q 41.65625 56 45.828125 52.96875 
Q 50 49.953125 52 44.1875 
z
" id="DejaVuSans-109"/>
       <path d="M 54.890625 33.015625 
L 54.890625 0 
L 45.90625 0 
L 45.90625 32.71875 
Q 45.90625 40.484375 42.875 44.328125 
Q 39.84375 48.1875 33.796875 48.1875 
Q 26.515625 48.1875 22.3125 43.546875 
Q 18.109375 38.921875 18.109375 30.90625 
L 18.109375 0 
L 9.078125 0 
L 9.078125 54.6875 
L 18.109375 54.6875 
L 18.109375 46.1875 
Q 21.34375 51.125 25.703125 53.5625 
Q 30.078125 56 35.796875 56 
Q 45.21875 56 50.046875 50.171875 
Q 54.890625 44.34375 54.890625 33.015625 
z
" id="DejaVuSans-110"/>
      </defs>
      <use xlink:href="#DejaVuSans-108"/>
      <use x="27.783203" xlink:href="#DejaVuSans-111"/>
      <use x="88.964844" xlink:href="#DejaVuSans-103"/>
      <use x="152.441406" xlink:href="#DejaVuSans-49"/>
      <use x="216.064453" xlink:href="#DejaVuSans-48"/>
      <use x="279.6875" xlink:href="#DejaVuSans-40"/>
      <use x="318.701172" xlink:href="#DejaVuSans-35"/>
      <use x="402.490234" xlink:href="#DejaVuSans-32"/>
      <use x="434.277344" xlink:href="#DejaVuSans-40"/>
      <use x="473.291016" xlink:href="#DejaVuSans-102"/>
      <use x="508.496094" xlink:href="#DejaVuSans-43"/>
      <use x="592.285156" xlink:href="#DejaVuSans-103"/>
      <use x="655.761719" xlink:href="#DejaVuSans-41"/>
      <use x="694.775391" xlink:href="#DejaVuSans-45"/>
      <use x="730.859375" xlink:href="#DejaVuSans-101"/>
      <use x="792.382812" xlink:href="#DejaVuSans-118"/>
      <use x="851.5625" xlink:href="#DejaVuSans-97"/>
      <use x="912.841797" xlink:href="#DejaVuSans-108"/>
      <use x="940.625" xlink:href="#DejaVuSans-115"/>
      <use x="992.724609" xlink:href="#DejaVuSans-32"/>
      <use x="1024.511719" xlink:href="#DejaVuSans-47"/>
      <use x="1058.203125" xlink:href="#DejaVuSans-32"/>
      <use x="1089.990234" xlink:href="#DejaVuSans-100"/>
      <use x="1153.466797" xlink:href="#DejaVuSans-105"/>
      <use x="1181.25" xlink:href="#DejaVuSans-109"/>
      <use x="1278.662109" xlink:href="#DejaVuSans-101"/>
      <use x="1340.185547" xlink:href="#DejaVuSans-110"/>
      <use x="1403.564453" xlink:href="#DejaVuSans-115"/>
      <use x="1455.664062" xlink:href="#DejaVuSans-105"/>
      <use x="1483.447266" xlink:href="#DejaVuSans-111"/>
      <use x="1544.628906" xlink:href="#DejaVuSans-110"/>
      <use x="1608.007812" xlink:href="#DejaVuSans-41"/>
     </g>
    </g>
   </g>
   <g id="matplotlib.axis_2">
    <g id="ytick_1">
     <g id="line2d_17">
      <path clip-path="url(#pe5d9cba2eb)" d="M 57.6 298.944 
L 338.688 298.944 
" style="fill:none;stroke:#b0b0b0;stroke-linecap:square;stroke-width:0.8;"/>
     </g>
     <g id="line2d_18">
      <defs>
       <path d="M 0 0 
L -3.5 0 
" id="mc43e73ca03" style="stroke:#000000;stroke-width:0.8;"/>
      </defs>
      <g>
       <use style="stroke:#000000;stroke-width:0.8;" x="57.6" xlink:href="#mc43e73ca03" y="298.944"/>
      </g>
     </g>
     <g id="text_6">
      <!-- 0.0 -->
      <g transform="translate(25.155 305.02275)scale(0.16 -0.16)">
       <defs>
        <path d="M 10.6875 12.40625 
L 21 12.40625 
L 21 0 
L 10.6875 0 
z
" id="DejaVuSans-46"/>
       </defs>
       <use xlink:href="#DejaVuSans-48"/>
       <use x="63.623047" xlink:href="#DejaVuSans-46"/>
       <use x="95.410156" xlink:href="#DejaVuSans-48"/>
      </g>
     </g>
    </g>
    <g id="ytick_2">
     <g id="line2d_19">
      <path clip-path="url(#pe5d9cba2eb)" d="M 57.6 245.22202 
L 338.688 245.22202 
" style="fill:none;stroke:#b0b0b0;stroke-linecap:square;stroke-width:0.8;"/>
     </g>
     <g id="line2d_20">
      <g>
       <use style="stroke:#000000;stroke-width:0.8;" x="57.6" xlink:href="#mc43e73ca03" y="245.22202"/>
      </g>
     </g>
     <g id="text_7">
      <!-- 0.2 -->
      <g transform="translate(25.155 251.30077)scale(0.16 -0.16)">
       <use xlink:href="#DejaVuSans-48"/>
       <use x="63.623047" xlink:href="#DejaVuSans-46"/>
       <use x="95.410156" xlink:href="#DejaVuSans-50"/>
      </g>
     </g>
    </g>
    <g id="ytick_3">
     <g id="line2d_21">
      <path clip-path="url(#pe5d9cba2eb)" d="M 57.6 191.50004 
L 338.688 191.50004 
" style="fill:none;stroke:#b0b0b0;stroke-linecap:square;stroke-width:0.8;"/>
     </g>
     <g id="line2d_22">
      <g>
       <use style="stroke:#000000;stroke-width:0.8;" x="57.6" xlink:href="#mc43e73ca03" y="191.50004"/>
      </g>
     </g>
     <g id="text_8">
      <!-- 0.4 -->
      <g transform="translate(25.155 197.57879)scale(0.16 -0.16)">
       <use xlink:href="#DejaVuSans-48"/>
       <use x="63.623047" xlink:href="#DejaVuSans-46"/>
       <use x="95.410156" xlink:href="#DejaVuSans-52"/>
      </g>
     </g>
    </g>
    <g id="ytick_4">
     <g id="line2d_23">
      <path clip-path="url(#pe5d9cba2eb)" d="M 57.6 137.778059 
L 338.688 137.778059 
" style="fill:none;stroke:#b0b0b0;stroke-linecap:square;stroke-width:0.8;"/>
     </g>
     <g id="line2d_24">
      <g>
       <use style="stroke:#000000;stroke-width:0.8;" x="57.6" xlink:href="#mc43e73ca03" y="137.778059"/>
      </g>
     </g>
     <g id="text_9">
      <!-- 0.6 -->
      <g transform="translate(25.155 143.856809)scale(0.16 -0.16)">
       <use xlink:href="#DejaVuSans-48"/>
       <use x="63.623047" xlink:href="#DejaVuSans-46"/>
       <use x="95.410156" xlink:href="#DejaVuSans-54"/>
      </g>
     </g>
    </g>
    <g id="ytick_5">
     <g id="line2d_25">
      <path clip-path="url(#pe5d9cba2eb)" d="M 57.6 84.056079 
L 338.688 84.056079 
" style="fill:none;stroke:#b0b0b0;stroke-linecap:square;stroke-width:0.8;"/>
     </g>
     <g id="line2d_26">
      <g>
       <use style="stroke:#000000;stroke-width:0.8;" x="57.6" xlink:href="#mc43e73ca03" y="84.056079"/>
      </g>
     </g>
     <g id="text_10">
      <!-- 0.8 -->
      <g transform="translate(25.155 90.134829)scale(0.16 -0.16)">
       <defs>
        <path d="M 31.78125 34.625 
Q 24.75 34.625 20.71875 30.859375 
Q 16.703125 27.09375 16.703125 20.515625 
Q 16.703125 13.921875 20.71875 10.15625 
Q 24.75 6.390625 31.78125 6.390625 
Q 38.8125 6.390625 42.859375 10.171875 
Q 46.921875 13.96875 46.921875 20.515625 
Q 46.921875 27.09375 42.890625 30.859375 
Q 38.875 34.625 31.78125 34.625 
z
M 21.921875 38.8125 
Q 15.578125 40.375 12.03125 44.71875 
Q 8.5 49.078125 8.5 55.328125 
Q 8.5 64.0625 14.71875 69.140625 
Q 20.953125 74.21875 31.78125 74.21875 
Q 42.671875 74.21875 48.875 69.140625 
Q 55.078125 64.0625 55.078125 55.328125 
Q 55.078125 49.078125 51.53125 44.71875 
Q 48 40.375 41.703125 38.8125 
Q 48.828125 37.15625 52.796875 32.3125 
Q 56.78125 27.484375 56.78125 20.515625 
Q 56.78125 9.90625 50.3125 4.234375 
Q 43.84375 -1.421875 31.78125 -1.421875 
Q 19.734375 -1.421875 13.25 4.234375 
Q 6.78125 9.90625 6.78125 20.515625 
Q 6.78125 27.484375 10.78125 32.3125 
Q 14.796875 37.15625 21.921875 38.8125 
z
M 18.3125 54.390625 
Q 18.3125 48.734375 21.84375 45.5625 
Q 25.390625 42.390625 31.78125 42.390625 
Q 38.140625 42.390625 41.71875 45.5625 
Q 45.3125 48.734375 45.3125 54.390625 
Q 45.3125 60.0625 41.71875 63.234375 
Q 38.140625 66.40625 31.78125 66.40625 
Q 25.390625 66.40625 21.84375 63.234375 
Q 18.3125 60.0625 18.3125 54.390625 
z
" id="DejaVuSans-56"/>
       </defs>
       <use xlink:href="#DejaVuSans-48"/>
       <use x="63.623047" xlink:href="#DejaVuSans-46"/>
       <use x="95.410156" xlink:href="#DejaVuSans-56"/>
      </g>
     </g>
    </g>
    <g id="ytick_6">
     <g id="line2d_27">
      <path clip-path="url(#pe5d9cba2eb)" d="M 57.6 30.334099 
L 338.688 30.334099 
" style="fill:none;stroke:#b0b0b0;stroke-linecap:square;stroke-width:0.8;"/>
     </g>
     <g id="line2d_28">
      <g>
       <use style="stroke:#000000;stroke-width:0.8;" x="57.6" xlink:href="#mc43e73ca03" y="30.334099"/>
      </g>
     </g>
     <g id="text_11">
      <!-- 1.0 -->
      <g transform="translate(25.155 36.412849)scale(0.16 -0.16)">
       <use xlink:href="#DejaVuSans-49"/>
       <use x="63.623047" xlink:href="#DejaVuSans-46"/>
       <use x="95.410156" xlink:href="#DejaVuSans-48"/>
      </g>
     </g>
    </g>
    <g id="text_12">
     <!-- Fraction of function,target pairs -->
     <g transform="translate(17.619531 297.681)rotate(-90)scale(0.17 -0.17)">
      <defs>
       <path d="M 9.8125 72.90625 
L 51.703125 72.90625 
L 51.703125 64.59375 
L 19.671875 64.59375 
L 19.671875 43.109375 
L 48.578125 43.109375 
L 48.578125 34.8125 
L 19.671875 34.8125 
L 19.671875 0 
L 9.8125 0 
z
" id="DejaVuSans-70"/>
       <path d="M 41.109375 46.296875 
Q 39.59375 47.171875 37.8125 47.578125 
Q 36.03125 48 33.890625 48 
Q 26.265625 48 22.1875 43.046875 
Q 18.109375 38.09375 18.109375 28.8125 
L 18.109375 0 
L 9.078125 0 
L 9.078125 54.6875 
L 18.109375 54.6875 
L 18.109375 46.1875 
Q 20.953125 51.171875 25.484375 53.578125 
Q 30.03125 56 36.53125 56 
Q 37.453125 56 38.578125 55.875 
Q 39.703125 55.765625 41.0625 55.515625 
z
" id="DejaVuSans-114"/>
       <path d="M 48.78125 52.59375 
L 48.78125 44.1875 
Q 44.96875 46.296875 41.140625 47.34375 
Q 37.3125 48.390625 33.40625 48.390625 
Q 24.65625 48.390625 19.8125 42.84375 
Q 14.984375 37.3125 14.984375 27.296875 
Q 14.984375 17.28125 19.8125 11.734375 
Q 24.65625 6.203125 33.40625 6.203125 
Q 37.3125 6.203125 41.140625 7.25 
Q 44.96875 8.296875 48.78125 10.40625 
L 48.78125 2.09375 
Q 45.015625 0.34375 40.984375 -0.53125 
Q 36.96875 -1.421875 32.421875 -1.421875 
Q 20.0625 -1.421875 12.78125 6.34375 
Q 5.515625 14.109375 5.515625 27.296875 
Q 5.515625 40.671875 12.859375 48.328125 
Q 20.21875 56 33.015625 56 
Q 37.15625 56 41.109375 55.140625 
Q 45.0625 54.296875 48.78125 52.59375 
z
" id="DejaVuSans-99"/>
       <path d="M 18.3125 70.21875 
L 18.3125 54.6875 
L 36.8125 54.6875 
L 36.8125 47.703125 
L 18.3125 47.703125 
L 18.3125 18.015625 
Q 18.3125 11.328125 20.140625 9.421875 
Q 21.96875 7.515625 27.59375 7.515625 
L 36.8125 7.515625 
L 36.8125 0 
L 27.59375 0 
Q 17.1875 0 13.234375 3.875 
Q 9.28125 7.765625 9.28125 18.015625 
L 9.28125 47.703125 
L 2.6875 47.703125 
L 2.6875 54.6875 
L 9.28125 54.6875 
L 9.28125 70.21875 
z
" id="DejaVuSans-116"/>
       <path d="M 8.5 21.578125 
L 8.5 54.6875 
L 17.484375 54.6875 
L 17.484375 21.921875 
Q 17.484375 14.15625 20.5 10.265625 
Q 23.53125 6.390625 29.59375 6.390625 
Q 36.859375 6.390625 41.078125 11.03125 
Q 45.3125 15.671875 45.3125 23.6875 
L 45.3125 54.6875 
L 54.296875 54.6875 
L 54.296875 0 
L 45.3125 0 
L 45.3125 8.40625 
Q 42.046875 3.421875 37.71875 1 
Q 33.40625 -1.421875 27.6875 -1.421875 
Q 18.265625 -1.421875 13.375 4.4375 
Q 8.5 10.296875 8.5 21.578125 
z
M 31.109375 56 
z
" id="DejaVuSans-117"/>
       <path d="M 11.71875 12.40625 
L 22.015625 12.40625 
L 22.015625 4 
L 14.015625 -11.625 
L 7.71875 -11.625 
L 11.71875 4 
z
" id="DejaVuSans-44"/>
       <path d="M 18.109375 8.203125 
L 18.109375 -20.796875 
L 9.078125 -20.796875 
L 9.078125 54.6875 
L 18.109375 54.6875 
L 18.109375 46.390625 
Q 20.953125 51.265625 25.265625 53.625 
Q 29.59375 56 35.59375 56 
Q 45.5625 56 51.78125 48.09375 
Q 58.015625 40.1875 58.015625 27.296875 
Q 58.015625 14.40625 51.78125 6.484375 
Q 45.5625 -1.421875 35.59375 -1.421875 
Q 29.59375 -1.421875 25.265625 0.953125 
Q 20.953125 3.328125 18.109375 8.203125 
z
M 48.6875 27.296875 
Q 48.6875 37.203125 44.609375 42.84375 
Q 40.53125 48.484375 33.40625 48.484375 
Q 26.265625 48.484375 22.1875 42.84375 
Q 18.109375 37.203125 18.109375 27.296875 
Q 18.109375 17.390625 22.1875 11.75 
Q 26.265625 6.109375 33.40625 6.109375 
Q 40.53125 6.109375 44.609375 11.75 
Q 48.6875 17.390625 48.6875 27.296875 
z
" id="DejaVuSans-112"/>
      </defs>
      <use xlink:href="#DejaVuSans-70"/>
      <use x="50.269531" xlink:href="#DejaVuSans-114"/>
      <use x="91.382812" xlink:href="#DejaVuSans-97"/>
      <use x="152.662109" xlink:href="#DejaVuSans-99"/>
      <use x="207.642578" xlink:href="#DejaVuSans-116"/>
      <use x="246.851562" xlink:href="#DejaVuSans-105"/>
      <use x="274.634766" xlink:href="#DejaVuSans-111"/>
      <use x="335.816406" xlink:href="#DejaVuSans-110"/>
      <use x="399.195312" xlink:href="#DejaVuSans-32"/>
      <use x="430.982422" xlink:href="#DejaVuSans-111"/>
      <use x="492.164062" xlink:href="#DejaVuSans-102"/>
      <use x="527.369141" xlink:href="#DejaVuSans-32"/>
      <use x="559.15625" xlink:href="#DejaVuSans-102"/>
      <use x="594.361328" xlink:href="#DejaVuSans-117"/>
      <use x="657.740234" xlink:href="#DejaVuSans-110"/>
      <use x="721.119141" xlink:href="#DejaVuSans-99"/>
      <use x="776.099609" xlink:href="#DejaVuSans-116"/>
      <use x="815.308594" xlink:href="#DejaVuSans-105"/>
      <use x="843.091797" xlink:href="#DejaVuSans-111"/>
      <use x="904.273438" xlink:href="#DejaVuSans-110"/>
      <use x="967.652344" xlink:href="#DejaVuSans-44"/>
      <use x="999.439453" xlink:href="#DejaVuSans-116"/>
      <use x="1038.648438" xlink:href="#DejaVuSans-97"/>
      <use x="1099.927734" xlink:href="#DejaVuSans-114"/>
      <use x="1139.291016" xlink:href="#DejaVuSans-103"/>
      <use x="1202.767578" xlink:href="#DejaVuSans-101"/>
      <use x="1264.291016" xlink:href="#DejaVuSans-116"/>
      <use x="1303.5" xlink:href="#DejaVuSans-32"/>
      <use x="1335.287109" xlink:href="#DejaVuSans-112"/>
      <use x="1398.763672" xlink:href="#DejaVuSans-97"/>
      <use x="1460.042969" xlink:href="#DejaVuSans-105"/>
      <use x="1487.826172" xlink:href="#DejaVuSans-114"/>
      <use x="1528.939453" xlink:href="#DejaVuSans-115"/>
     </g>
    </g>
   </g>
   <g id="line2d_29">
    <defs>
     <path d="M 0 1.5 
C 0.397805 1.5 0.77937 1.341951 1.06066 1.06066 
C 1.341951 0.77937 1.5 0.397805 1.5 0 
C 1.5 -0.397805 1.341951 -0.77937 1.06066 -1.06066 
C 0.77937 -1.341951 0.397805 -1.5 0 -1.5 
C -0.397805 -1.5 -0.77937 -1.341951 -1.06066 -1.06066 
C -1.341951 -0.77937 -1.5 -0.397805 -1.5 0 
C -1.5 0.397805 -1.341951 0.77937 -1.06066 1.06066 
C -0.77937 1.341951 -0.397805 1.5 0 1.5 
z
" id="m5602735672" style="stroke:#000080;"/>
    </defs>
    <g>
     <use style="fill:#000080;stroke:#000080;" x="240.493301" xlink:href="#m5602735672" y="82.745787"/>
     <use style="fill:#000080;stroke:#000080;" x="240.493301" xlink:href="#m5602735672" y="82.745787"/>
    </g>
   </g>
   <g id="line2d_30">
    <path d="M 80.650472 298.944 
L 80.650472 297.633708 
L 84.401859 297.633708 
L 84.401859 296.978562 
L 84.772922 296.978562 
L 84.772922 296.323416 
L 87.170317 296.323416 
L 87.170317 295.66827 
L 87.487404 295.66827 
L 87.487404 295.013123 
L 89.558903 295.013123 
L 89.558903 293.702831 
L 92.147241 293.702831 
L 92.147241 291.737393 
L 95.226283 291.737393 
L 95.226283 291.082247 
L 95.624913 291.082247 
L 95.624913 289.771955 
L 98.015075 289.771955 
L 98.015075 289.116809 
L 99.016649 289.116809 
L 99.016649 288.461662 
L 99.178125 288.461662 
L 99.178125 287.15137 
L 99.80948 287.15137 
L 99.80948 286.496224 
L 99.963811 286.496224 
L 99.963811 285.185932 
L 100.268435 285.185932 
L 100.268435 284.530786 
L 100.418775 284.530786 
L 100.418775 283.87564 
L 100.715621 283.87564 
L 100.715621 283.220494 
L 101.436355 283.220494 
L 101.436355 282.565348 
L 101.576995 282.565348 
L 101.576995 281.910201 
L 102.263669 281.910201 
L 102.263669 280.599909 
L 102.794183 280.599909 
L 102.794183 279.944763 
L 103.809118 279.944763 
L 103.809118 278.634471 
L 103.93193 278.634471 
L 103.93193 277.324179 
L 104.414709 277.324179 
L 104.414709 275.35874 
L 105.341933 275.35874 
L 105.341933 274.703594 
L 105.454445 274.703594 
L 105.454445 272.08301 
L 106.006367 272.08301 
L 106.006367 271.427864 
L 106.222336 271.427864 
L 106.329326 270.117572 
L 106.646412 270.117572 
L 106.646412 268.807279 
L 106.854645 268.807279 
L 106.957836 264.221257 
L 107.162405 264.221257 
L 107.162405 263.566111 
L 108.246551 263.566111 
L 108.246551 262.910965 
L 108.530893 262.910965 
L 108.530893 262.255818 
L 108.810674 262.255818 
L 108.810674 260.29038 
L 108.994731 260.29038 
L 108.994731 259.635234 
L 109.267226 259.635234 
L 109.267226 258.980088 
L 109.71213 258.980088 
L 109.71213 257.669796 
L 110.145965 257.669796 
L 110.145965 257.01465 
L 110.316522 257.01465 
L 110.316522 255.049211 
L 110.900667 255.049211 
L 110.982542 253.738919 
L 111.386247 253.738919 
L 111.465878 251.773481 
L 111.545148 251.773481 
L 111.624059 249.808043 
L 111.936179 249.808043 
L 111.936179 249.152896 
L 112.09017 249.152896 
L 112.09017 247.187458 
L 112.618673 247.187458 
L 112.618673 246.532312 
L 112.766778 246.532312 
L 112.766778 244.566874 
L 113.13163 244.566874 
L 113.13163 242.601435 
L 113.489005 242.601435 
L 113.55961 240.635997 
L 113.629929 240.635997 
L 113.699967 239.325705 
L 113.908407 239.325705 
L 113.908407 238.670559 
L 114.114385 238.670559 
L 114.114385 238.015413 
L 114.385292 238.015413 
L 114.385292 237.360267 
L 114.519183 237.360267 
L 114.585746 235.394828 
L 114.783921 235.394828 
L 114.783921 234.739682 
L 115.173642 234.739682 
L 115.237757 233.42939 
L 115.617575 233.42939 
L 115.617575 231.463952 
L 115.804426 231.463952 
L 115.866268 229.498513 
L 116.111464 229.498513 
L 116.111464 228.188221 
L 116.232781 228.188221 
L 116.232781 227.533075 
L 116.35326 227.533075 
L 116.35326 224.912491 
L 117.174084 224.912491 
L 117.174084 223.602199 
L 117.345058 223.602199 
L 117.345058 222.947052 
L 117.84815 222.947052 
L 117.84815 222.291906 
L 118.229649 222.291906 
L 118.337133 219.016176 
L 118.708196 219.016176 
L 118.708196 217.050738 
L 118.91674 217.050738 
L 118.968488 213.775007 
L 120.166507 213.775007 
L 120.166507 212.464715 
L 120.310634 212.464715 
L 120.406061 209.84413 
L 120.736003 209.84413 
L 120.736003 207.878692 
L 120.921776 207.878692 
L 120.921776 205.258108 
L 121.332668 205.258108 
L 121.332668 204.602962 
L 122.510267 204.602962 
L 122.510267 202.637523 
L 125.594671 202.637523 
L 125.594671 201.982377 
L 137.797132 201.982377 
L 137.849713 200.672085 
L 138.60322 200.672085 
L 138.60322 200.016939 
L 140.234098 200.016939 
L 140.234098 199.361793 
L 140.370937 199.361793 
L 140.370937 198.706647 
L 140.611586 198.706647 
L 140.611586 197.396355 
L 141.097679 197.396355 
L 141.126708 196.086062 
L 141.584721 196.086062 
L 141.612952 193.465478 
L 141.781381 193.465478 
L 141.864989 191.50004 
L 142.22273 191.50004 
L 142.331344 188.879455 
L 142.53319 188.879455 
L 142.53319 187.569163 
L 142.811906 187.569163 
L 142.811906 185.603725 
L 143.138005 185.603725 
L 143.2025 183.638286 
L 143.27958 183.638286 
L 143.292393 181.672848 
L 143.458119 181.672848 
L 143.534079 179.70741 
L 143.859472 179.70741 
L 143.859472 179.052264 
L 146.670421 179.052264 
L 146.670421 178.397118 
L 152.295354 178.397118 
L 152.325902 175.776533 
L 152.628478 175.776533 
L 152.703309 174.466241 
L 152.740604 174.466241 
L 152.814956 171.190511 
L 156.583568 171.190511 
L 156.583568 169.880218 
L 156.879909 169.880218 
L 156.93272 168.569926 
L 157.014554 168.569926 
L 157.078583 163.983903 
L 157.326648 163.983903 
L 157.349546 161.363319 
L 158.000823 161.363319 
L 158.006333 160.053027 
L 158.192646 160.053027 
L 158.241633 158.087589 
L 158.409319 158.087589 
L 158.409319 157.432442 
L 158.618015 157.432442 
L 158.618015 156.12215 
L 160.884427 156.12215 
L 160.884427 155.467004 
L 161.736738 155.467004 
L 161.736738 154.811858 
L 164.415798 154.811858 
L 164.514701 152.84642 
L 164.947404 152.84642 
L 164.947404 152.191274 
L 165.083779 152.191274 
L 165.098459 150.880981 
L 165.518877 150.880981 
L 165.520668 149.570689 
L 165.709414 149.570689 
L 165.815353 148.260397 
L 166.352682 148.260397 
L 166.420824 146.950105 
L 166.49886 146.950105 
L 166.576548 143.674374 
L 166.940088 143.674374 
L 167.035547 142.364082 
L 167.133751 142.364082 
L 167.133751 141.05379 
L 167.263834 141.05379 
L 167.263834 140.398644 
L 167.727417 140.398644 
L 167.758939 139.088352 
L 167.865688 139.088352 
L 167.928178 137.778059 
L 168.208177 137.778059 
L 168.244969 135.812621 
L 168.348793 135.812621 
L 168.348793 135.157475 
L 169.03974 135.157475 
L 169.127309 133.192037 
L 169.237602 133.192037 
L 169.254953 131.226598 
L 169.358698 131.226598 
L 169.375929 127.295722 
L 169.846027 127.295722 
L 169.846027 126.640576 
L 170.309227 126.640576 
L 170.309227 125.98543 
L 170.469022 125.98543 
L 170.477109 120.744261 
L 170.584568 120.744261 
L 170.584568 120.089115 
L 170.983054 120.089115 
L 170.983054 119.433969 
L 172.545676 119.433969 
L 172.545676 118.778823 
L 172.749118 118.778823 
L 172.749118 118.123676 
L 173.016733 118.123676 
L 173.016733 117.46853 
L 173.146705 117.46853 
L 173.146705 116.813384 
L 173.406055 116.813384 
L 173.406055 116.158238 
L 174.606507 116.158238 
L 174.683956 114.847946 
L 176.182307 114.847946 
L 176.182307 114.1928 
L 176.661386 114.1928 
L 176.661386 113.537654 
L 177.131335 113.537654 
L 177.131335 112.227362 
L 177.861043 112.227362 
L 177.861043 111.572215 
L 178.024381 111.572215 
L 178.071517 110.261923 
L 178.638398 110.261923 
L 178.638398 109.606777 
L 178.984288 109.606777 
L 178.984288 108.951631 
L 179.21276 108.951631 
L 179.21276 108.296485 
L 179.389043 108.296485 
L 179.392276 106.986193 
L 179.785408 106.986193 
L 179.785408 106.331047 
L 179.984949 106.331047 
L 179.984949 105.020754 
L 180.463401 105.020754 
L 180.494532 103.710462 
L 180.770002 103.710462 
L 180.848977 102.40017 
L 182.668539 102.40017 
L 182.668539 101.745024 
L 184.207874 101.745024 
L 184.207874 101.089878 
L 184.755301 101.089878 
L 184.807511 99.779586 
L 185.291829 99.779586 
L 185.361982 97.814147 
L 186.353586 97.814147 
L 186.353586 97.159001 
L 189.060828 97.159001 
L 189.060828 96.503855 
L 192.086992 96.503855 
L 192.086992 95.848709 
L 192.511064 95.848709 
L 192.511064 95.193563 
L 193.940786 95.193563 
L 193.940786 94.538417 
L 194.786304 94.538417 
L 194.786304 93.883271 
L 195.304686 93.883271 
L 195.304686 93.228125 
L 195.457179 93.228125 
L 195.457179 92.572979 
L 195.736709 92.572979 
L 195.736709 91.917832 
L 196.547869 91.917832 
L 196.547869 91.262686 
L 200.028292 91.262686 
L 200.028292 90.60754 
L 200.769181 90.60754 
L 200.769181 89.952394 
L 200.983244 89.952394 
L 200.983244 89.297248 
L 204.41604 89.297248 
L 204.41604 88.642102 
L 206.703982 88.642102 
L 206.703982 87.986956 
L 209.087294 87.986956 
L 209.087294 87.33181 
L 217.768023 87.33181 
L 217.768023 86.676664 
L 219.201238 86.676664 
L 219.201238 86.021518 
L 224.562653 86.021518 
L 224.577861 84.711225 
L 224.750997 84.711225 
L 224.847871 83.400933 
L 240.493301 83.400933 
L 240.493301 82.745787 
L 338.688 82.745787 
L 338.688 82.745787 
" style="fill:none;stroke:#000080;stroke-linecap:square;stroke-width:1.5;"/>
   </g>
   <g id="line2d_31">
    <defs>
     <path d="M 0 6 
C 1.591219 6 3.117479 5.367802 4.242641 4.242641 
C 5.367802 3.117479 6 1.591219 6 0 
C 6 -1.591219 5.367802 -3.117479 4.242641 -4.242641 
C 3.117479 -5.367802 1.591219 -6 0 -6 
C -1.591219 -6 -3.117479 -5.367802 -4.242641 -4.242641 
C -5.367802 -3.117479 -6 -1.591219 -6 0 
C -6 1.591219 -5.367802 3.117479 -4.242641 4.242641 
C -3.117479 5.367802 -1.591219 6 0 6 
z
" id="m2b2971b09e" style="stroke:#000080;stroke-width:1.5;"/>
    </defs>
    <g>
     <use style="fill-opacity:0;stroke:#000080;stroke-width:1.5;" x="116.35326" xlink:href="#m2b2971b09e" y="227.533075"/>
     <use style="fill-opacity:0;stroke:#000080;stroke-width:1.5;" x="157.026213" xlink:href="#m2b2971b09e" y="166.604488"/>
     <use style="fill-opacity:0;stroke:#000080;stroke-width:1.5;" x="224.847871" xlink:href="#m2b2971b09e" y="83.400933"/>
     <use style="fill-opacity:0;stroke:#000080;stroke-width:1.5;" x="240.493301" xlink:href="#m2b2971b09e" y="82.745787"/>
     <use style="fill-opacity:0;stroke:#000080;stroke-width:1.5;" x="338.688" xlink:href="#m2b2971b09e" y="82.745787"/>
    </g>
   </g>
   <g id="line2d_32">
    <path style="fill:none;stroke:#000080;stroke-linecap:square;stroke-width:1.5;"/>
    <g/>
   </g>
   <g id="line2d_33">
    <path clip-path="url(#pe5d9cba2eb)" d="M 165.995728 148.260397 
" style="fill:none;stroke:#000080;stroke-linecap:square;stroke-width:1.5;"/>
    <defs>
     <path d="M -12 12 
L 12 -12 
M -12 -12 
L 12 12 
" id="m26cff946ed" style="stroke:#000080;"/>
    </defs>
    <g clip-path="url(#pe5d9cba2eb)">
     <use style="fill:#000080;stroke:#000080;" x="165.995728" xlink:href="#m26cff946ed" y="148.260397"/>
    </g>
   </g>
   <g id="line2d_34">
    <defs>
     <path d="M 0 1.5 
C 0.397805 1.5 0.77937 1.341951 1.06066 1.06066 
C 1.341951 0.77937 1.5 0.397805 1.5 0 
C 1.5 -0.397805 1.341951 -0.77937 1.06066 -1.06066 
C 0.77937 -1.341951 0.397805 -1.5 0 -1.5 
C -0.397805 -1.5 -0.77937 -1.341951 -1.06066 -1.06066 
C -1.341951 -0.77937 -1.5 -0.397805 -1.5 0 
C -1.5 0.397805 -1.341951 0.77937 -1.06066 1.06066 
C -0.77937 1.341951 -0.397805 1.5 0 1.5 
z
" id="md320e2049b" style="stroke:#ff00ff;"/>
    </defs>
    <g>
     <use style="fill:#ff00ff;stroke:#ff00ff;" x="305.555933" xlink:href="#md320e2049b" y="49.988482"/>
     <use style="fill:#ff00ff;stroke:#ff00ff;" x="305.555933" xlink:href="#md320e2049b" y="49.988482"/>
    </g>
   </g>
   <g id="line2d_35">
    <path d="M 106.802819 298.944 
L 106.802819 298.288854 
L 112.204777 298.288854 
L 112.204777 297.633708 
L 113.524343 297.633708 
L 113.524343 296.978562 
L 115.711251 296.978562 
L 115.711251 296.323416 
L 116.856209 296.323416 
L 116.856209 295.66827 
L 117.542433 295.66827 
L 117.542433 293.702831 
L 118.256582 293.702831 
L 118.256582 293.047685 
L 119.097192 293.047685 
L 119.097192 292.392539 
L 119.552816 292.392539 
L 119.552816 291.737393 
L 119.850084 291.737393 
L 119.850084 289.771955 
L 120.142369 289.771955 
L 120.142369 287.806516 
L 120.759333 287.806516 
L 120.8059 286.496224 
L 120.898662 286.496224 
L 120.944859 284.530786 
L 121.489881 284.530786 
L 121.489881 282.565348 
L 122.061712 282.565348 
L 122.061712 281.910201 
L 122.191052 281.910201 
L 122.191052 281.255055 
L 122.615387 281.255055 
L 122.615387 280.599909 
L 122.782271 280.599909 
L 122.782271 279.944763 
L 123.152022 279.944763 
L 123.152022 277.324179 
L 123.313873 277.324179 
L 123.313873 276.669033 
L 124.062793 276.669033 
L 124.062793 273.393302 
L 124.743806 273.393302 
L 124.743806 272.738156 
L 126.133984 272.738156 
L 126.133984 272.08301 
L 126.773103 272.08301 
L 126.773103 271.427864 
L 127.293718 271.427864 
L 127.357715 269.462426 
L 127.705564 269.462426 
L 127.76807 267.496987 
L 127.830353 267.496987 
L 127.830353 266.186695 
L 128.046609 266.186695 
L 128.046609 264.876403 
L 128.168991 264.876403 
L 128.168991 264.221257 
L 128.32077 264.221257 
L 128.32077 262.910965 
L 128.531065 262.910965 
L 128.560901 261.600672 
L 128.944197 261.600672 
L 128.944197 260.29038 
L 129.06046 260.29038 
L 129.118302 258.980088 
L 129.31925 258.980088 
L 129.31925 257.669796 
L 129.602362 257.669796 
L 129.686407 255.049211 
L 129.963666 255.049211 
L 130.045992 253.738919 
L 130.236587 253.738919 
L 130.290663 251.773481 
L 130.638123 251.773481 
L 130.743656 250.463189 
L 130.978796 250.463189 
L 130.978796 249.152896 
L 131.159516 249.152896 
L 131.159516 248.49775 
L 131.389151 248.49775 
L 131.490249 245.22202 
L 131.615802 245.22202 
L 131.715598 243.911728 
L 131.962617 243.911728 
L 131.962617 241.291143 
L 132.254495 241.291143 
L 132.254495 240.635997 
L 132.683351 240.635997 
L 132.683351 239.980851 
L 132.986651 239.980851 
L 133.0559 236.705121 
L 133.284766 236.705121 
L 133.284766 234.739682 
L 133.57787 234.739682 
L 133.57787 233.42939 
L 133.844123 233.42939 
L 133.866129 229.498513 
L 133.997581 229.498513 
L 134.106373 227.533075 
L 134.149701 227.533075 
L 134.214491 226.222783 
L 134.703375 226.222783 
L 134.787017 222.947052 
L 134.849486 222.947052 
L 134.849486 222.291906 
L 135.178927 222.291906 
L 135.178927 220.326468 
L 135.300881 220.326468 
L 135.300881 219.016176 
L 135.421987 219.016176 
L 135.46217 214.430153 
L 136.418789 214.430153 
L 136.418789 213.119861 
L 136.776048 213.119861 
L 136.813232 209.84413 
L 136.924311 209.84413 
L 136.924311 209.188984 
L 137.307607 209.188984 
L 137.39764 201.982377 
L 137.664982 201.982377 
L 137.717962 198.051501 
L 137.928288 198.051501 
L 137.928288 197.396355 
L 138.375473 197.396355 
L 138.375473 196.741208 
L 138.778323 196.741208 
L 138.778323 194.120624 
L 139.041811 194.120624 
L 139.041811 192.810332 
L 139.317473 192.810332 
L 139.317473 190.844894 
L 139.509467 190.844894 
L 139.509467 190.189747 
L 139.667863 190.189747 
L 139.667863 189.534601 
L 140.103868 189.534601 
L 140.103868 188.879455 
L 140.782525 188.879455 
L 140.841591 181.017702 
L 141.032186 181.017702 
L 141.032186 177.741972 
L 141.235139 177.741972 
L 141.235139 177.086825 
L 141.774395 177.086825 
L 141.774395 176.431679 
L 143.451774 176.431679 
L 143.451774 175.776533 
L 144.294175 175.776533 
L 144.306265 172.500803 
L 145.143889 172.500803 
L 145.143889 171.845657 
L 146.172658 171.845657 
L 146.172658 169.225072 
L 147.838747 169.225072 
L 147.838747 167.91478 
L 148.864037 167.91478 
L 148.966103 165.949342 
L 149.021524 165.949342 
L 149.021524 165.294196 
L 149.395596 165.294196 
L 149.395596 164.63905 
L 149.593058 164.63905 
L 149.593058 163.983903 
L 149.805951 163.983903 
L 149.805951 163.328757 
L 150.059777 163.328757 
L 150.137805 162.018465 
L 151.072501 162.018465 
L 151.072501 161.363319 
L 153.221946 161.363319 
L 153.221946 160.708173 
L 153.644434 160.708173 
L 153.644434 160.053027 
L 154.029268 160.053027 
L 154.132765 156.777296 
L 155.167744 156.777296 
L 155.167744 156.12215 
L 155.290488 156.12215 
L 155.290488 154.811858 
L 155.82927 154.811858 
L 155.82927 153.501566 
L 156.705677 153.501566 
L 156.705677 152.191274 
L 157.116308 152.191274 
L 157.116308 151.536128 
L 157.323784 151.536128 
L 157.323784 150.225835 
L 157.826359 150.225835 
L 157.826359 149.570689 
L 158.24435 149.570689 
L 158.24435 148.260397 
L 158.438903 148.260397 
L 158.438903 147.605251 
L 158.673779 147.605251 
L 158.673779 146.294959 
L 159.46166 146.294959 
L 159.46166 145.639813 
L 159.936602 145.639813 
L 159.936602 144.984667 
L 160.494745 144.984667 
L 160.494745 143.674374 
L 162.393666 143.674374 
L 162.393666 143.019228 
L 164.701462 143.019228 
L 164.701462 142.364082 
L 165.017568 142.364082 
L 165.017568 141.708936 
L 166.398707 141.708936 
L 166.442913 140.398644 
L 169.749363 140.398644 
L 169.749363 139.743498 
L 177.77791 139.743498 
L 177.77791 139.088352 
L 178.58177 139.088352 
L 178.58177 138.433206 
L 178.711656 138.433206 
L 178.711656 137.778059 
L 179.13174 137.778059 
L 179.13174 137.122913 
L 179.963064 137.122913 
L 179.963064 136.467767 
L 184.367171 136.467767 
L 184.367171 135.812621 
L 185.061571 135.812621 
L 185.061571 135.157475 
L 185.280878 135.157475 
L 185.280878 134.502329 
L 186.694496 134.502329 
L 186.694496 133.847183 
L 187.784677 133.847183 
L 187.784677 133.192037 
L 191.523849 133.192037 
L 191.523849 132.536891 
L 191.794206 132.536891 
L 191.794206 131.881745 
L 194.450478 131.881745 
L 194.450478 131.226598 
L 197.024756 131.226598 
L 197.024756 130.571452 
L 199.754399 130.571452 
L 199.754399 129.916306 
L 199.945928 129.916306 
L 199.945928 129.26116 
L 202.734451 129.26116 
L 202.734451 128.606014 
L 205.038329 128.606014 
L 205.038329 127.950868 
L 206.055072 127.950868 
L 206.055072 127.295722 
L 206.924697 127.295722 
L 206.924697 126.640576 
L 208.030191 126.640576 
L 208.037698 125.330284 
L 208.574713 125.330284 
L 208.574713 124.675137 
L 209.968174 124.675137 
L 209.968174 124.019991 
L 210.311344 124.019991 
L 210.311344 123.364845 
L 210.60071 123.364845 
L 210.60071 122.709699 
L 211.373017 122.709699 
L 211.373017 122.054553 
L 212.060504 122.054553 
L 212.060504 121.399407 
L 212.541939 121.399407 
L 212.541939 120.744261 
L 215.314102 120.744261 
L 215.330165 119.433969 
L 215.878667 119.433969 
L 215.878667 118.778823 
L 215.99695 118.778823 
L 215.99695 118.123676 
L 217.101045 118.123676 
L 217.127061 116.813384 
L 219.521502 116.813384 
L 219.531049 115.503092 
L 220.438699 115.503092 
L 220.438699 114.847946 
L 220.678462 114.847946 
L 220.678462 114.1928 
L 221.597374 114.1928 
L 221.597374 113.537654 
L 223.420409 113.537654 
L 223.420409 112.882508 
L 224.985792 112.882508 
L 224.985792 112.227362 
L 227.018702 112.227362 
L 227.125995 110.261923 
L 227.598871 110.261923 
L 227.598871 109.606777 
L 228.305826 109.606777 
L 228.305826 108.951631 
L 228.653011 108.951631 
L 228.653011 108.296485 
L 229.018131 108.296485 
L 229.018131 107.641339 
L 229.811207 107.641339 
L 229.811207 106.986193 
L 230.097753 106.986193 
L 230.097753 106.331047 
L 230.284747 106.331047 
L 230.284747 105.675901 
L 230.792733 105.675901 
L 230.792733 105.020754 
L 230.932539 105.020754 
L 230.999133 103.710462 
L 232.24882 103.710462 
L 232.24882 103.055316 
L 233.150725 103.055316 
L 233.150725 102.40017 
L 233.443348 102.40017 
L 233.443348 101.745024 
L 233.847066 101.745024 
L 233.847066 101.089878 
L 234.02364 101.089878 
L 234.02364 100.434732 
L 235.171339 100.434732 
L 235.182552 99.12444 
L 235.513445 99.12444 
L 235.513445 98.469293 
L 235.935135 98.469293 
L 235.935135 97.814147 
L 236.090309 97.814147 
L 236.164515 96.503855 
L 236.206536 96.503855 
L 236.206536 95.848709 
L 236.490793 95.848709 
L 236.490793 95.193563 
L 236.690844 95.193563 
L 236.690844 94.538417 
L 237.568287 94.538417 
L 237.568287 93.883271 
L 239.588132 93.883271 
L 239.588132 93.228125 
L 239.981434 93.228125 
L 239.981434 92.572979 
L 241.440923 92.572979 
L 241.440923 91.917832 
L 243.399581 91.917832 
L 243.399581 91.262686 
L 243.537755 91.262686 
L 243.537755 90.60754 
L 243.668318 90.60754 
L 243.728408 89.297248 
L 244.038416 89.297248 
L 244.038416 88.642102 
L 244.376047 88.642102 
L 244.376047 87.986956 
L 244.557953 87.986956 
L 244.557953 87.33181 
L 244.7734 87.33181 
L 244.7734 86.676664 
L 245.209201 86.676664 
L 245.209201 86.021518 
L 245.361047 86.021518 
L 245.361047 85.366371 
L 247.859291 85.366371 
L 247.859291 84.711225 
L 248.034709 84.711225 
L 248.034709 84.056079 
L 248.198254 84.056079 
L 248.198254 83.400933 
L 251.366637 83.400933 
L 251.366637 82.745787 
L 252.012618 82.745787 
L 252.012618 82.090641 
L 252.280864 82.090641 
L 252.369888 80.780349 
L 252.946578 80.780349 
L 253.050155 79.470057 
L 253.476813 79.470057 
L 253.476813 78.81491 
L 253.88164 78.81491 
L 253.88164 78.159764 
L 254.651284 78.159764 
L 254.651284 77.504618 
L 254.848796 77.504618 
L 254.848796 76.849472 
L 255.072532 76.849472 
L 255.072532 76.194326 
L 255.379302 76.194326 
L 255.379302 75.53918 
L 255.519278 75.53918 
L 255.519278 74.884034 
L 257.756824 74.884034 
L 257.756824 74.228888 
L 258.148645 74.228888 
L 258.148645 73.573742 
L 258.651405 73.573742 
L 258.651405 72.918596 
L 259.161379 72.918596 
L 259.161379 72.263449 
L 259.379173 72.263449 
L 259.379173 71.608303 
L 259.720515 71.608303 
L 259.720515 70.953157 
L 259.972968 70.953157 
L 259.972968 70.298011 
L 262.993776 70.298011 
L 262.993776 69.642865 
L 263.475988 69.642865 
L 263.475988 68.987719 
L 263.850672 68.987719 
L 263.922044 67.677427 
L 266.231054 67.677427 
L 266.231054 67.022281 
L 266.851378 67.022281 
L 266.851378 66.367135 
L 267.129772 66.367135 
L 267.229739 64.401696 
L 267.550914 64.401696 
L 267.550914 63.74655 
L 268.851056 63.74655 
L 268.851056 63.091404 
L 269.315483 63.091404 
L 269.315483 62.436258 
L 271.827046 62.436258 
L 271.827046 61.781112 
L 272.557306 61.781112 
L 272.557306 61.125966 
L 273.43821 61.125966 
L 273.43821 60.47082 
L 274.07397 60.47082 
L 274.07397 59.815674 
L 274.273259 59.815674 
L 274.273259 59.160527 
L 275.913025 59.160527 
L 275.913025 58.505381 
L 277.315415 58.505381 
L 277.315415 57.850235 
L 277.484548 57.850235 
L 277.484548 57.195089 
L 277.759874 57.195089 
L 277.759874 56.539943 
L 279.234418 56.539943 
L 279.234418 55.884797 
L 279.430385 55.884797 
L 279.430385 55.229651 
L 282.155108 55.229651 
L 282.155108 54.574505 
L 283.400796 54.574505 
L 283.400796 53.919359 
L 285.554033 53.919359 
L 285.554033 53.264213 
L 286.479681 53.264213 
L 286.479681 52.609066 
L 287.484781 52.609066 
L 287.484781 51.95392 
L 291.64993 51.95392 
L 291.71725 50.643628 
L 305.555933 50.643628 
L 305.555933 49.988482 
L 338.688 49.988482 
L 338.688 49.988482 
" style="fill:none;stroke:#ff00ff;stroke-linecap:square;stroke-width:1.5;"/>
   </g>
   <g id="line2d_36">
    <defs>
     <path d="M -0 8.485281 
L 5.091169 0 
L 0 -8.485281 
L -5.091169 -0 
z
" id="mc4b56734fb" style="stroke:#ff00ff;stroke-linejoin:miter;stroke-width:1.5;"/>
    </defs>
    <g>
     <use style="fill-opacity:0;stroke:#ff00ff;stroke-linejoin:miter;stroke-width:1.5;" x="130.045992" xlink:href="#mc4b56734fb" y="254.394065"/>
     <use style="fill-opacity:0;stroke:#ff00ff;stroke-linejoin:miter;stroke-width:1.5;" x="206.055072" xlink:href="#mc4b56734fb" y="127.950868"/>
     <use style="fill-opacity:0;stroke:#ff00ff;stroke-linejoin:miter;stroke-width:1.5;" x="274.07397" xlink:href="#mc4b56734fb" y="60.47082"/>
     <use style="fill-opacity:0;stroke:#ff00ff;stroke-linejoin:miter;stroke-width:1.5;" x="305.555933" xlink:href="#mc4b56734fb" y="49.988482"/>
     <use style="fill-opacity:0;stroke:#ff00ff;stroke-linejoin:miter;stroke-width:1.5;" x="338.688" xlink:href="#mc4b56734fb" y="49.988482"/>
    </g>
   </g>
   <g id="line2d_37">
    <path style="fill:none;stroke:#ff00ff;stroke-linecap:square;stroke-width:1.5;"/>
    <g/>
   </g>
   <g id="line2d_38">
    <path clip-path="url(#pe5d9cba2eb)" d="M 236.369615 95.848709 
" style="fill:none;stroke:#ff00ff;stroke-linecap:square;stroke-width:1.5;"/>
    <defs>
     <path d="M -12 12 
L 12 -12 
M -12 -12 
L 12 12 
" id="mfed2eee5c1" style="stroke:#ff00ff;"/>
    </defs>
    <g clip-path="url(#pe5d9cba2eb)">
     <use style="fill:#ff00ff;stroke:#ff00ff;" x="236.369615" xlink:href="#mfed2eee5c1" y="95.848709"/>
    </g>
   </g>
   <g id="line2d_39">
    <path clip-path="url(#pe5d9cba2eb)" d="M 57.6 298.944 
L 57.6 298.944 
L 57.6 298.944 
L 57.6 298.944 
L 338.688 298.944 
" style="fill:none;stroke:#ff7500;stroke-linecap:square;stroke-width:1.5;"/>
   </g>
   <g id="line2d_40">
    <defs>
     <path d="M 0 -6 
L -1.347084 -1.854102 
L -5.706339 -1.854102 
L -2.179628 0.708204 
L -3.526712 4.854102 
L -0 2.291796 
L 3.526712 4.854102 
L 2.179628 0.708204 
L 5.706339 -1.854102 
L 1.347084 -1.854102 
z
" id="md2d33310d3" style="stroke:#ff7500;stroke-linejoin:bevel;stroke-width:1.5;"/>
    </defs>
    <g clip-path="url(#pe5d9cba2eb)">
     <use style="fill-opacity:0;stroke:#ff7500;stroke-linejoin:bevel;stroke-width:1.5;" x="57.6" xlink:href="#md2d33310d3" y="298.944"/>
    </g>
   </g>
   <g id="line2d_41">
    <path clip-path="url(#pe5d9cba2eb)" style="fill:none;stroke:#ff7500;stroke-linecap:square;stroke-width:1.5;"/>
    <g clip-path="url(#pe5d9cba2eb)">
     <use style="fill-opacity:0;stroke:#ff7500;stroke-linejoin:bevel;stroke-width:1.5;" x="-1" xlink:href="#md2d33310d3" y="567.553901"/>
     <use style="fill-opacity:0;stroke:#ff7500;stroke-linejoin:bevel;stroke-width:1.5;" x="338.688" xlink:href="#md2d33310d3" y="567.553901"/>
    </g>
   </g>
   <g id="line2d_42">
    <defs>
     <path d="M 0 1.5 
C 0.397805 1.5 0.77937 1.341951 1.06066 1.06066 
C 1.341951 0.77937 1.5 0.397805 1.5 0 
C 1.5 -0.397805 1.341951 -0.77937 1.06066 -1.06066 
C 0.77937 -1.341951 0.397805 -1.5 0 -1.5 
C -0.397805 -1.5 -0.77937 -1.341951 -1.06066 -1.06066 
C -1.341951 -0.77937 -1.5 -0.397805 -1.5 0 
C -1.5 0.397805 -1.341951 0.77937 -1.06066 1.06066 
C -0.77937 1.341951 -0.397805 1.5 0 1.5 
z
" id="m02cc7b6b19" style="stroke:#6495ed;"/>
    </defs>
    <g>
     <use style="fill:#6495ed;stroke:#6495ed;" x="250.952005" xlink:href="#m02cc7b6b19" y="43.437021"/>
     <use style="fill:#6495ed;stroke:#6495ed;" x="250.952005" xlink:href="#m02cc7b6b19" y="43.437021"/>
    </g>
   </g>
   <g id="line2d_43">
    <path d="M 99.258306 298.944 
L 99.258306 297.633708 
L 99.41757 297.633708 
L 99.41757 296.978562 
L 102.397818 296.978562 
L 102.397818 295.013123 
L 102.530943 295.013123 
L 102.530943 291.737393 
L 105.057436 291.737393 
L 105.057436 289.771955 
L 105.171792 289.771955 
L 105.171792 282.565348 
L 107.364602 282.565348 
L 107.464828 268.152133 
L 107.564481 268.152133 
L 107.614095 266.186695 
L 107.762095 266.186695 
L 107.762095 265.531549 
L 109.491096 265.531549 
L 109.579846 259.635234 
L 109.668146 259.635234 
L 109.668146 257.669796 
L 109.843417 257.669796 
L 109.843417 256.359504 
L 110.188761 256.359504 
L 110.188761 255.049211 
L 111.30625 255.049211 
L 111.386247 246.532312 
L 111.465878 246.532312 
L 111.465878 243.256582 
L 111.624059 243.256582 
L 111.702614 241.291143 
L 111.858671 241.291143 
L 111.858671 240.635997 
L 112.013345 240.635997 
L 112.09017 239.325705 
L 112.950158 239.325705 
L 113.022974 230.808806 
L 113.095487 230.808806 
L 113.095487 225.567637 
L 113.239614 225.567637 
L 113.27546 222.291906 
L 113.453595 222.291906 
L 113.524343 216.395591 
L 114.452366 216.395591 
L 114.452366 211.154423 
L 114.585746 211.154423 
L 114.585746 210.499277 
L 114.718113 210.499277 
L 114.718113 205.913254 
L 114.914798 205.913254 
L 114.914798 200.016939 
L 115.10929 200.016939 
L 115.205729 198.051501 
L 116.739166 198.051501 
L 116.739166 196.741208 
L 117.40168 196.741208 
L 117.40168 196.086062 
L 117.930605 196.086062 
L 117.930605 195.430916 
L 118.786692 195.430916 
L 118.786692 194.77577 
L 119.199476 194.77577 
L 119.199476 194.120624 
L 119.502775 194.120624 
L 119.502775 193.465478 
L 119.874629 193.465478 
L 119.874629 192.155186 
L 120.898662 192.155186 
L 120.898662 186.258871 
L 121.355214 186.258871 
L 121.355214 185.603725 
L 121.623516 185.603725 
L 121.623516 184.293433 
L 121.77814 184.293433 
L 121.865885 180.362556 
L 121.931406 180.362556 
L 121.931406 179.70741 
L 122.148045 179.70741 
L 122.212516 177.086825 
L 122.340747 177.086825 
L 122.340747 176.431679 
L 123.233135 176.431679 
L 123.233135 173.811095 
L 124.082074 173.811095 
L 124.082074 172.500803 
L 124.891598 172.500803 
L 124.891598 169.225072 
L 125.255688 169.225072 
L 125.255688 167.91478 
L 126.47328 167.91478 
L 126.52361 163.983903 
L 126.904721 163.983903 
L 126.904721 162.673611 
L 128.32077 162.673611 
L 128.32077 159.397881 
L 128.900399 159.397881 
L 128.92961 158.087589 
L 129.219065 158.087589 
L 129.276384 155.467004 
L 131.802453 155.467004 
L 131.802453 154.811858 
L 133.284766 154.811858 
L 133.284766 154.156712 
L 133.566687 154.156712 
L 133.566687 153.501566 
L 133.766885 153.501566 
L 133.766885 152.84642 
L 135.199312 152.84642 
L 135.199312 152.191274 
L 136.160425 152.191274 
L 136.160425 151.536128 
L 141.54229 151.536128 
L 141.54229 150.880981 
L 142.579953 150.880981 
L 142.579953 150.225835 
L 142.785553 150.225835 
L 142.785553 149.570689 
L 145.429504 149.570689 
L 145.429504 146.294959 
L 145.626688 146.294959 
L 145.626688 145.639813 
L 146.638733 145.639813 
L 146.638733 144.984667 
L 147.338159 144.984667 
L 147.338159 143.674374 
L 147.555175 143.674374 
L 147.565203 137.778059 
L 147.779429 137.778059 
L 147.779429 137.122913 
L 150.309961 137.122913 
L 150.309961 136.467767 
L 154.039645 136.467767 
L 154.039645 133.847183 
L 154.187714 133.847183 
L 154.19457 125.330284 
L 154.334536 125.330284 
L 154.341335 124.019991 
L 154.824021 124.019991 
L 154.824021 122.709699 
L 155.047394 122.709699 
L 155.047394 122.054553 
L 155.187182 122.054553 
L 155.187182 118.123676 
L 155.469814 118.123676 
L 155.469814 117.46853 
L 155.766741 117.46853 
L 155.766741 116.813384 
L 156.285144 116.813384 
L 156.294262 114.847946 
L 158.393162 114.847946 
L 158.393162 114.1928 
L 159.162628 114.1928 
L 159.178088 110.917069 
L 160.865732 110.917069 
L 160.884427 108.951631 
L 163.129716 108.951631 
L 163.129716 108.296485 
L 164.682688 108.296485 
L 164.682688 107.641339 
L 166.734234 107.641339 
L 166.805895 102.40017 
L 167.965564 102.40017 
L 167.965564 101.745024 
L 170.424481 101.745024 
L 170.424481 99.779586 
L 171.202861 99.779586 
L 171.202861 99.12444 
L 173.839177 99.12444 
L 173.839177 97.814147 
L 174.749466 97.814147 
L 174.751575 94.538417 
L 176.448384 94.538417 
L 176.448384 93.883271 
L 179.347773 93.883271 
L 179.347773 93.228125 
L 180.736367 93.228125 
L 180.736367 92.572979 
L 180.88017 92.572979 
L 180.949782 91.262686 
L 182.899394 91.262686 
L 182.899394 90.60754 
L 183.21183 90.60754 
L 183.21183 89.952394 
L 183.547446 89.952394 
L 183.547446 89.297248 
L 183.664857 89.297248 
L 183.664857 88.642102 
L 184.139683 88.642102 
L 184.139683 87.986956 
L 184.282516 87.986956 
L 184.282516 87.33181 
L 185.142537 87.33181 
L 185.142537 86.676664 
L 186.822684 86.676664 
L 186.822684 86.021518 
L 187.548855 86.021518 
L 187.548855 85.366371 
L 188.61703 85.366371 
L 188.61703 84.711225 
L 189.195848 84.711225 
L 189.195848 84.056079 
L 189.322516 84.056079 
L 189.354953 82.745787 
L 190.230839 82.745787 
L 190.230839 82.090641 
L 190.524391 82.090641 
L 190.524391 81.435495 
L 191.031279 81.435495 
L 191.031279 80.780349 
L 191.298299 80.780349 
L 191.298299 80.125203 
L 191.635939 80.125203 
L 191.635939 79.470057 
L 191.978558 79.470057 
L 192.020916 77.504618 
L 192.106104 77.504618 
L 192.106104 76.849472 
L 192.387223 76.849472 
L 192.387223 76.194326 
L 193.652796 76.194326 
L 193.75488 74.884034 
L 193.889481 74.884034 
L 193.889481 74.228888 
L 194.352741 74.228888 
L 194.352741 73.573742 
L 195.356528 73.573742 
L 195.433681 72.263449 
L 196.800456 72.263449 
L 196.800456 71.608303 
L 197.960902 71.608303 
L 197.960902 70.953157 
L 198.235703 70.953157 
L 198.235703 70.298011 
L 198.808516 70.298011 
L 198.808516 69.642865 
L 202.199266 69.642865 
L 202.199266 68.987719 
L 202.602346 68.987719 
L 202.630724 67.677427 
L 203.694468 67.677427 
L 203.694468 67.022281 
L 204.061048 67.022281 
L 204.061048 66.367135 
L 204.455638 66.367135 
L 204.455638 65.711988 
L 205.802569 65.711988 
L 205.802569 65.056842 
L 207.007496 65.056842 
L 207.007496 64.401696 
L 207.587897 64.401696 
L 207.587897 63.74655 
L 208.870566 63.74655 
L 208.870566 63.091404 
L 209.560038 63.091404 
L 209.560038 62.436258 
L 210.274936 62.436258 
L 210.274936 61.781112 
L 210.82629 61.781112 
L 210.82629 61.125966 
L 213.078963 61.125966 
L 213.078963 60.47082 
L 213.789511 60.47082 
L 213.789511 59.815674 
L 215.652301 59.815674 
L 215.652301 59.160527 
L 215.858808 59.160527 
L 215.858808 58.505381 
L 215.971274 58.505381 
L 215.971274 57.850235 
L 216.92385 57.850235 
L 216.92385 57.195089 
L 217.902284 57.195089 
L 217.902284 56.539943 
L 218.253338 56.539943 
L 218.253338 55.884797 
L 218.684972 55.884797 
L 218.684972 55.229651 
L 219.511787 55.229651 
L 219.569833 53.919359 
L 221.299025 53.919359 
L 221.299025 53.264213 
L 221.863906 53.264213 
L 221.892682 51.95392 
L 226.278714 51.95392 
L 226.289258 50.643628 
L 226.431587 50.643628 
L 226.431587 49.988482 
L 226.547897 49.988482 
L 226.547897 49.333336 
L 227.794362 49.333336 
L 227.794362 48.67819 
L 229.919571 48.67819 
L 229.919571 48.023044 
L 232.217505 48.023044 
L 232.217505 47.367898 
L 234.330953 47.367898 
L 234.330953 46.712752 
L 237.787963 46.712752 
L 237.787963 46.057605 
L 237.985741 46.057605 
L 237.985741 45.402459 
L 241.967298 45.402459 
L 241.967298 44.747313 
L 246.724624 44.747313 
L 246.724624 44.092167 
L 250.952005 44.092167 
L 250.952005 43.437021 
L 338.688 43.437021 
L 338.688 43.437021 
" style="fill:none;stroke:#6495ed;stroke-linecap:square;stroke-width:1.5;"/>
   </g>
   <g id="line2d_44">
    <defs>
     <path d="M -0 6 
L 6 -6 
L -6 -6 
z
" id="m80ce454484" style="stroke:#6495ed;stroke-linejoin:miter;stroke-width:1.5;"/>
    </defs>
    <g>
     <use style="fill-opacity:0;stroke:#6495ed;stroke-linejoin:miter;stroke-width:1.5;" x="159.162628" xlink:href="#m80ce454484" y="114.1928"/>
     <use style="fill-opacity:0;stroke:#6495ed;stroke-linejoin:miter;stroke-width:1.5;" x="221.892682" xlink:href="#m80ce454484" y="51.95392"/>
     <use style="fill-opacity:0;stroke:#6495ed;stroke-linejoin:miter;stroke-width:1.5;" x="250.952005" xlink:href="#m80ce454484" y="43.437021"/>
     <use style="fill-opacity:0;stroke:#6495ed;stroke-linejoin:miter;stroke-width:1.5;" x="250.952005" xlink:href="#m80ce454484" y="43.437021"/>
     <use style="fill-opacity:0;stroke:#6495ed;stroke-linejoin:miter;stroke-width:1.5;" x="338.688" xlink:href="#m80ce454484" y="43.437021"/>
    </g>
   </g>
   <g id="line2d_45">
    <path style="fill:none;stroke:#6495ed;stroke-linecap:square;stroke-width:1.5;"/>
    <g/>
   </g>
   <g id="line2d_46">
    <path clip-path="url(#pe5d9cba2eb)" d="M 182.355673 91.262686 
" style="fill:none;stroke:#6495ed;stroke-linecap:square;stroke-width:1.5;"/>
    <defs>
     <path d="M -12 12 
L 12 -12 
M -12 -12 
L 12 12 
" id="mef0cf11a94" style="stroke:#6495ed;"/>
    </defs>
    <g clip-path="url(#pe5d9cba2eb)">
     <use style="fill:#6495ed;stroke:#6495ed;" x="182.355673" xlink:href="#mef0cf11a94" y="91.262686"/>
    </g>
   </g>
   <g id="line2d_47">
    <defs>
     <path d="M 0 1.5 
C 0.397805 1.5 0.77937 1.341951 1.06066 1.06066 
C 1.341951 0.77937 1.5 0.397805 1.5 0 
C 1.5 -0.397805 1.341951 -0.77937 1.06066 -1.06066 
C 0.77937 -1.341951 0.397805 -1.5 0 -1.5 
C -0.397805 -1.5 -0.77937 -1.341951 -1.06066 -1.06066 
C -1.341951 -0.77937 -1.5 -0.397805 -1.5 0 
C -1.5 0.397805 -1.341951 0.77937 -1.06066 1.06066 
C -0.77937 1.341951 -0.397805 1.5 0 1.5 
z
" id="mf047e8a669" style="stroke:#ff0000;"/>
    </defs>
    <g>
     <use style="fill:#ff0000;stroke:#ff0000;" x="289.102511" xlink:href="#mf047e8a669" y="108.951631"/>
     <use style="fill:#ff0000;stroke:#ff0000;" x="289.102511" xlink:href="#mf047e8a669" y="108.951631"/>
    </g>
   </g>
   <g id="line2d_48">
    <path d="M 112.431755 298.944 
L 112.431755 298.288854 
L 115.33349 298.288854 
L 115.33349 296.978562 
L 118.942633 296.978562 
L 118.942633 296.323416 
L 123.672636 296.323416 
L 123.672636 295.66827 
L 125.255688 295.66827 
L 125.255688 295.013123 
L 126.70692 295.013123 
L 126.70692 294.357977 
L 128.046609 294.357977 
L 128.046609 293.702831 
L 129.290685 293.702831 
L 129.290685 292.392539 
L 133.997581 292.392539 
L 133.997581 291.737393 
L 135.740886 291.737393 
L 135.740886 291.082247 
L 136.942755 291.082247 
L 136.942755 290.427101 
L 137.325651 290.427101 
L 137.325651 289.771955 
L 140.752916 289.771955 
L 140.752916 289.116809 
L 141.364373 289.116809 
L 141.364373 287.806516 
L 151.541675 287.806516 
L 151.541675 287.15137 
L 152.037389 287.15137 
L 152.037389 286.496224 
L 152.833495 286.496224 
L 152.833495 285.841078 
L 153.445207 285.841078 
L 153.445207 285.185932 
L 154.747816 285.185932 
L 154.747816 284.530786 
L 163.02881 284.530786 
L 163.02881 283.87564 
L 165.14974 283.87564 
L 165.14974 283.220494 
L 165.753633 283.220494 
L 165.753633 282.565348 
L 174.496641 282.565348 
L 174.496641 281.910201 
L 177.876917 281.910201 
L 177.876917 281.255055 
L 179.669668 281.255055 
L 179.669668 280.599909 
L 183.574171 280.599909 
L 183.574171 279.944763 
L 184.074314 279.944763 
L 184.074314 279.289617 
L 184.585731 279.289617 
L 184.585731 278.634471 
L 187.756686 278.634471 
L 187.756686 277.979325 
L 190.221287 277.979325 
L 190.221287 277.324179 
L 192.267132 277.324179 
L 192.267132 276.669033 
L 192.778656 276.669033 
L 192.778656 276.013887 
L 193.684161 276.013887 
L 193.684161 275.35874 
L 194.083366 275.35874 
L 194.083366 274.703594 
L 197.830846 274.703594 
L 197.830846 274.048448 
L 198.111556 274.048448 
L 198.111556 273.393302 
L 198.569592 273.393302 
L 198.569592 272.738156 
L 198.80533 272.738156 
L 198.827616 271.427864 
L 199.081878 271.427864 
L 199.081878 270.772718 
L 200.104849 270.772718 
L 200.197746 269.462426 
L 206.554647 269.462426 
L 206.597493 267.496987 
L 206.936525 267.496987 
L 206.936525 266.841841 
L 207.862484 266.841841 
L 207.862484 266.186695 
L 210.01863 266.186695 
L 210.01863 265.531549 
L 211.794931 265.531549 
L 211.794931 264.876403 
L 212.000439 264.876403 
L 212.104768 262.910965 
L 214.771397 262.910965 
L 214.771397 262.255818 
L 214.909113 262.255818 
L 214.975412 260.945526 
L 215.089737 260.945526 
L 215.194606 256.359504 
L 215.20767 256.359504 
L 215.20767 254.394065 
L 215.467027 254.394065 
L 215.467027 253.738919 
L 215.586604 253.738919 
L 215.675827 251.773481 
L 217.837511 251.773481 
L 217.837511 251.118335 
L 218.61009 251.118335 
L 218.61009 250.463189 
L 219.0031 250.463189 
L 219.0031 249.808043 
L 220.955722 249.808043 
L 220.955722 249.152896 
L 222.04216 249.152896 
L 222.11248 247.842604 
L 222.782127 247.842604 
L 222.782127 247.187458 
L 222.939444 247.187458 
L 222.939444 246.532312 
L 223.198701 246.532312 
L 223.274244 243.256582 
L 223.319414 243.256582 
L 223.344003 239.325705 
L 224.558106 239.325705 
L 224.558106 238.670559 
L 225.54797 238.670559 
L 225.557592 237.360267 
L 225.84616 237.360267 
L 225.879242 235.394828 
L 226.092758 235.394828 
L 226.148637 234.084536 
L 226.70691 234.084536 
L 226.70691 233.42939 
L 227.86528 233.42939 
L 227.86528 232.774244 
L 228.151479 232.774244 
L 228.151479 232.119098 
L 228.863215 232.119098 
L 228.863215 231.463952 
L 230.091265 231.463952 
L 230.120907 230.15366 
L 230.519882 230.15366 
L 230.519882 229.498513 
L 230.864635 229.498513 
L 230.950451 227.533075 
L 231.542226 227.533075 
L 231.542226 226.877929 
L 231.678189 226.877929 
L 231.678189 226.222783 
L 232.089793 226.222783 
L 232.089793 225.567637 
L 232.48702 225.567637 
L 232.48702 224.912491 
L 233.007631 224.912491 
L 233.079641 223.602199 
L 233.424578 223.602199 
L 233.424578 222.947052 
L 234.222394 222.947052 
L 234.222394 222.291906 
L 234.895473 222.291906 
L 234.895473 221.63676 
L 235.943123 221.63676 
L 235.943123 220.981614 
L 236.277959 220.981614 
L 236.278609 219.671322 
L 236.433378 219.671322 
L 236.433378 219.016176 
L 236.610285 219.016176 
L 236.610285 218.36103 
L 237.13809 218.36103 
L 237.237571 217.050738 
L 237.418061 217.050738 
L 237.418061 216.395591 
L 237.541928 216.395591 
L 237.642574 215.085299 
L 237.833958 215.085299 
L 237.833958 214.430153 
L 238.166193 214.430153 
L 238.211064 213.119861 
L 238.553984 213.119861 
L 238.644484 211.809569 
L 238.866739 211.809569 
L 238.866739 211.154423 
L 239.429865 211.154423 
L 239.429865 210.499277 
L 239.836991 210.499277 
L 239.836991 209.84413 
L 240.109014 209.84413 
L 240.109014 209.188984 
L 240.343833 209.188984 
L 240.343833 208.533838 
L 240.503777 208.533838 
L 240.503777 207.878692 
L 240.744523 207.878692 
L 240.744523 207.223546 
L 241.12238 207.223546 
L 241.12238 206.5684 
L 241.423159 206.5684 
L 241.423159 205.913254 
L 241.94259 205.913254 
L 241.972123 204.602962 
L 242.396623 204.602962 
L 242.466093 202.637523 
L 242.599685 202.637523 
L 242.599685 201.982377 
L 243.296035 201.982377 
L 243.296035 201.327231 
L 243.583211 201.327231 
L 243.619954 200.016939 
L 243.760231 200.016939 
L 243.78181 198.706647 
L 244.203765 198.706647 
L 244.293531 197.396355 
L 244.373439 197.396355 
L 244.373439 196.741208 
L 244.773058 196.741208 
L 244.774655 194.77577 
L 244.972475 194.77577 
L 244.972475 194.120624 
L 245.595895 194.120624 
L 245.595895 193.465478 
L 246.015666 193.465478 
L 246.015666 192.810332 
L 246.263587 192.810332 
L 246.263587 192.155186 
L 246.774661 192.155186 
L 246.774661 191.50004 
L 247.013049 191.50004 
L 247.072691 189.534601 
L 247.236102 189.534601 
L 247.329835 188.224309 
L 247.475183 188.224309 
L 247.475183 187.569163 
L 248.397408 187.569163 
L 248.402955 186.258871 
L 248.818415 186.258871 
L 248.929282 184.948579 
L 249.178385 184.948579 
L 249.276478 182.327994 
L 249.316839 182.327994 
L 249.316839 181.672848 
L 249.725766 181.672848 
L 249.725766 181.017702 
L 249.947175 181.017702 
L 249.948985 179.70741 
L 250.117093 179.70741 
L 250.136531 178.397118 
L 250.26382 178.397118 
L 250.338003 177.086825 
L 250.964814 177.086825 
L 250.964814 176.431679 
L 251.204878 176.431679 
L 251.204878 175.776533 
L 251.829779 175.776533 
L 251.891558 173.811095 
L 251.995352 173.811095 
L 251.995352 173.155949 
L 252.169005 173.155949 
L 252.239963 171.845657 
L 252.665626 171.845657 
L 252.717657 170.535364 
L 252.934859 170.535364 
L 252.934859 169.880218 
L 253.132142 169.880218 
L 253.132142 169.225072 
L 253.643596 169.225072 
L 253.739895 167.259634 
L 254.079579 167.259634 
L 254.159776 165.949342 
L 254.349285 165.949342 
L 254.349285 165.294196 
L 254.750405 165.294196 
L 254.784424 163.983903 
L 255.480931 163.983903 
L 255.480931 163.328757 
L 255.694951 163.328757 
L 255.747154 162.018465 
L 256.283703 162.018465 
L 256.346944 160.708173 
L 256.633236 160.708173 
L 256.633236 160.053027 
L 257.035357 160.053027 
L 257.035357 159.397881 
L 257.6995 159.397881 
L 257.6995 158.742735 
L 257.970373 158.742735 
L 257.970373 158.087589 
L 258.17774 158.087589 
L 258.17774 157.432442 
L 258.324353 157.432442 
L 258.324353 156.777296 
L 258.516353 156.777296 
L 258.516353 156.12215 
L 258.822246 156.12215 
L 258.822246 155.467004 
L 258.963813 155.467004 
L 258.963813 154.811858 
L 259.394018 154.811858 
L 259.394018 154.156712 
L 259.531323 154.156712 
L 259.531323 153.501566 
L 259.648345 153.501566 
L 259.648345 152.84642 
L 259.876356 152.84642 
L 259.876356 152.191274 
L 260.129891 152.191274 
L 260.129891 151.536128 
L 260.758002 151.536128 
L 260.776067 150.225835 
L 261.089982 150.225835 
L 261.168485 148.915543 
L 261.391907 148.915543 
L 261.482425 147.605251 
L 261.53413 147.605251 
L 261.53413 146.950105 
L 261.850861 146.950105 
L 261.937989 144.984667 
L 262.088867 144.984667 
L 262.088867 144.32952 
L 262.861019 144.32952 
L 262.861019 143.674374 
L 263.47576 143.674374 
L 263.47576 143.019228 
L 264.31885 143.019228 
L 264.31885 142.364082 
L 264.646955 142.364082 
L 264.656033 141.05379 
L 264.915088 141.05379 
L 265.016253 138.433206 
L 265.107257 138.433206 
L 265.107257 137.778059 
L 266.24611 137.778059 
L 266.24611 137.122913 
L 266.575586 137.122913 
L 266.575586 136.467767 
L 266.906462 136.467767 
L 266.980315 135.157475 
L 267.397061 135.157475 
L 267.397061 134.502329 
L 267.963409 134.502329 
L 268.028501 133.192037 
L 268.247641 133.192037 
L 268.341314 131.226598 
L 268.90474 131.226598 
L 268.90474 130.571452 
L 269.066676 130.571452 
L 269.066676 129.916306 
L 269.529495 129.916306 
L 269.610476 127.950868 
L 269.651879 127.950868 
L 269.737718 126.640576 
L 269.867053 126.640576 
L 269.867053 125.98543 
L 270.268114 125.98543 
L 270.268114 125.330284 
L 270.478742 125.330284 
L 270.478742 124.675137 
L 270.794323 124.675137 
L 270.794323 124.019991 
L 270.97548 124.019991 
L 270.97548 123.364845 
L 271.341775 123.364845 
L 271.341775 122.709699 
L 271.526008 122.709699 
L 271.526008 122.054553 
L 271.683886 122.054553 
L 271.683886 121.399407 
L 272.31416 121.399407 
L 272.360126 120.089115 
L 272.539958 120.089115 
L 272.539958 119.433969 
L 272.760657 119.433969 
L 272.761941 118.123676 
L 273.371333 118.123676 
L 273.446727 116.813384 
L 274.036645 116.813384 
L 274.036645 116.158238 
L 274.256236 116.158238 
L 274.311529 114.847946 
L 274.452112 114.847946 
L 274.452112 114.1928 
L 275.069504 114.1928 
L 275.069504 113.537654 
L 276.949941 113.537654 
L 276.949941 112.882508 
L 277.563469 112.882508 
L 277.563469 112.227362 
L 277.736277 112.227362 
L 277.736277 111.572215 
L 279.186921 111.572215 
L 279.186921 110.917069 
L 279.71676 110.917069 
L 279.789214 109.606777 
L 289.102511 109.606777 
L 289.102511 108.951631 
L 338.688 108.951631 
L 338.688 108.951631 
" style="fill:none;stroke:#ff0000;stroke-linecap:square;stroke-width:1.5;"/>
   </g>
   <g id="line2d_49">
    <defs>
     <path d="M 0 -6 
L -5.196152 -3 
L -5.196152 3 
L -0 6 
L 5.196152 3 
L 5.196152 -3 
z
" id="mfc6af581d5" style="stroke:#ff0000;stroke-linejoin:miter;stroke-width:1.5;"/>
    </defs>
    <g>
     <use style="fill-opacity:0;stroke:#ff0000;stroke-linejoin:miter;stroke-width:1.5;" x="192.778656" xlink:href="#mfc6af581d5" y="276.013887"/>
     <use style="fill-opacity:0;stroke:#ff0000;stroke-linejoin:miter;stroke-width:1.5;" x="247.475183" xlink:href="#mfc6af581d5" y="187.569163"/>
     <use style="fill-opacity:0;stroke:#ff0000;stroke-linejoin:miter;stroke-width:1.5;" x="279.789214" xlink:href="#mfc6af581d5" y="110.261923"/>
     <use style="fill-opacity:0;stroke:#ff0000;stroke-linejoin:miter;stroke-width:1.5;" x="289.102511" xlink:href="#mfc6af581d5" y="108.951631"/>
     <use style="fill-opacity:0;stroke:#ff0000;stroke-linejoin:miter;stroke-width:1.5;" x="338.688" xlink:href="#mfc6af581d5" y="108.951631"/>
    </g>
   </g>
   <g id="line2d_50">
    <path style="fill:none;stroke:#ff0000;stroke-linecap:square;stroke-width:1.5;"/>
    <g/>
   </g>
   <g id="line2d_51">
    <path clip-path="url(#pe5d9cba2eb)" d="M 211.800224 264.876403 
" style="fill:none;stroke:#ff0000;stroke-linecap:square;stroke-width:1.5;"/>
    <defs>
     <path d="M -12 12 
L 12 -12 
M -12 -12 
L 12 12 
" id="m2d1eed4868" style="stroke:#ff0000;"/>
    </defs>
    <g clip-path="url(#pe5d9cba2eb)">
     <use style="fill:#ff0000;stroke:#ff0000;" x="211.800224" xlink:href="#m2d1eed4868" y="264.876403"/>
    </g>
   </g>
   <g id="line2d_52">
    <path d="M 338.688 298.944 
L 369.60768 293.571802 
" style="fill:none;stroke:#ff7500;stroke-linecap:square;stroke-width:1.5;"/>
    <g>
     <use style="fill-opacity:0;stroke:#ff7500;stroke-linejoin:bevel;stroke-width:1.5;" x="338.688" xlink:href="#md2d33310d3" y="298.944"/>
     <use style="fill-opacity:0;stroke:#ff7500;stroke-linejoin:bevel;stroke-width:1.5;" x="369.60768" xlink:href="#md2d33310d3" y="293.571802"/>
    </g>
   </g>
   <g id="line2d_53">
    <path d="M 338.688 108.951631 
L 369.60768 229.105426 
" style="fill:none;stroke:#ff0000;stroke-linecap:square;stroke-width:1.5;"/>
    <g>
     <use style="fill-opacity:0;stroke:#ff0000;stroke-linejoin:miter;stroke-width:1.5;" x="338.688" xlink:href="#mfc6af581d5" y="108.951631"/>
     <use style="fill-opacity:0;stroke:#ff0000;stroke-linejoin:miter;stroke-width:1.5;" x="369.60768" xlink:href="#mfc6af581d5" y="229.105426"/>
    </g>
   </g>
   <g id="line2d_54">
    <path d="M 338.688 82.745787 
L 369.60768 164.63905 
" style="fill:none;stroke:#000080;stroke-linecap:square;stroke-width:1.5;"/>
    <g>
     <use style="fill-opacity:0;stroke:#000080;stroke-width:1.5;" x="338.688" xlink:href="#m2b2971b09e" y="82.745787"/>
     <use style="fill-opacity:0;stroke:#000080;stroke-width:1.5;" x="369.60768" xlink:href="#m2b2971b09e" y="164.63905"/>
    </g>
   </g>
   <g id="line2d_55">
    <path d="M 338.688 49.988482 
L 369.60768 100.172673 
" style="fill:none;stroke:#ff00ff;stroke-linecap:square;stroke-width:1.5;"/>
    <g>
     <use style="fill-opacity:0;stroke:#ff00ff;stroke-linejoin:miter;stroke-width:1.5;" x="338.688" xlink:href="#mc4b56734fb" y="49.988482"/>
     <use style="fill-opacity:0;stroke:#ff00ff;stroke-linejoin:miter;stroke-width:1.5;" x="369.60768" xlink:href="#mc4b56734fb" y="100.172673"/>
    </g>
   </g>
   <g id="line2d_56">
    <path d="M 338.688 43.437021 
L 369.60768 35.706297 
" style="fill:none;stroke:#6495ed;stroke-linecap:square;stroke-width:1.5;"/>
    <g>
     <use style="fill-opacity:0;stroke:#6495ed;stroke-linejoin:miter;stroke-width:1.5;" x="338.688" xlink:href="#m80ce454484" y="43.437021"/>
     <use style="fill-opacity:0;stroke:#6495ed;stroke-linejoin:miter;stroke-width:1.5;" x="369.60768" xlink:href="#m80ce454484" y="35.706297"/>
    </g>
   </g>
   <g id="line2d_57">
    <path d="M 338.688 298.944 
L 338.688 30.334099 
" style="fill:none;stroke:#000000;stroke-linecap:square;stroke-width:1.5;"/>
   </g>
   <g id="patch_3">
    <path d="M 57.6 298.944 
L 57.6 27.648 
" style="fill:none;stroke:#000000;stroke-linecap:square;stroke-linejoin:miter;stroke-width:0.8;"/>
   </g>
   <g id="patch_4">
    <path d="M 338.688 298.944 
L 338.688 27.648 
" style="fill:none;stroke:#000000;stroke-linecap:square;stroke-linejoin:miter;stroke-width:0.8;"/>
   </g>
   <g id="patch_5">
    <path d="M 57.6 298.944 
L 338.688 298.944 
" style="fill:none;stroke:#000000;stroke-linecap:square;stroke-linejoin:miter;stroke-width:0.8;"/>
   </g>
   <g id="patch_6">
    <path d="M 57.6 27.648 
L 338.688 27.648 
" style="fill:none;stroke:#000000;stroke-linecap:square;stroke-linejoin:miter;stroke-width:0.8;"/>
   </g>
   <g id="text_13">
    <!-- rs -->
    <g transform="translate(375.22944 298.262739)scale(0.17 -0.17)">
     <use xlink:href="#DejaVuSans-114"/>
     <use x="41.113281" xlink:href="#DejaVuSans-115"/>
    </g>
   </g>
   <g id="text_14">
    <!-- trust-con -->
    <g transform="translate(375.22944 233.796363)scale(0.17 -0.17)">
     <use xlink:href="#DejaVuSans-116"/>
     <use x="39.208984" xlink:href="#DejaVuSans-114"/>
     <use x="80.322266" xlink:href="#DejaVuSans-117"/>
     <use x="143.701172" xlink:href="#DejaVuSans-115"/>
     <use x="195.800781" xlink:href="#DejaVuSans-116"/>
     <use x="235.009766" xlink:href="#DejaVuSans-45"/>
     <use x="271.09375" xlink:href="#DejaVuSans-99"/>
     <use x="326.074219" xlink:href="#DejaVuSans-111"/>
     <use x="387.255859" xlink:href="#DejaVuSans-110"/>
    </g>
   </g>
   <g id="text_15">
    <!-- cobyla -->
    <g transform="translate(375.22944 169.329987)scale(0.17 -0.17)">
     <defs>
      <path d="M 48.6875 27.296875 
Q 48.6875 37.203125 44.609375 42.84375 
Q 40.53125 48.484375 33.40625 48.484375 
Q 26.265625 48.484375 22.1875 42.84375 
Q 18.109375 37.203125 18.109375 27.296875 
Q 18.109375 17.390625 22.1875 11.75 
Q 26.265625 6.109375 33.40625 6.109375 
Q 40.53125 6.109375 44.609375 11.75 
Q 48.6875 17.390625 48.6875 27.296875 
z
M 18.109375 46.390625 
Q 20.953125 51.265625 25.265625 53.625 
Q 29.59375 56 35.59375 56 
Q 45.5625 56 51.78125 48.09375 
Q 58.015625 40.1875 58.015625 27.296875 
Q 58.015625 14.40625 51.78125 6.484375 
Q 45.5625 -1.421875 35.59375 -1.421875 
Q 29.59375 -1.421875 25.265625 0.953125 
Q 20.953125 3.328125 18.109375 8.203125 
L 18.109375 0 
L 9.078125 0 
L 9.078125 75.984375 
L 18.109375 75.984375 
z
" id="DejaVuSans-98"/>
      <path d="M 32.171875 -5.078125 
Q 28.375 -14.84375 24.75 -17.8125 
Q 21.140625 -20.796875 15.09375 -20.796875 
L 7.90625 -20.796875 
L 7.90625 -13.28125 
L 13.1875 -13.28125 
Q 16.890625 -13.28125 18.9375 -11.515625 
Q 21 -9.765625 23.484375 -3.21875 
L 25.09375 0.875 
L 2.984375 54.6875 
L 12.5 54.6875 
L 29.59375 11.921875 
L 46.6875 54.6875 
L 56.203125 54.6875 
z
" id="DejaVuSans-121"/>
     </defs>
     <use xlink:href="#DejaVuSans-99"/>
     <use x="54.980469" xlink:href="#DejaVuSans-111"/>
     <use x="116.162109" xlink:href="#DejaVuSans-98"/>
     <use x="179.638672" xlink:href="#DejaVuSans-121"/>
     <use x="238.818359" xlink:href="#DejaVuSans-108"/>
     <use x="266.601562" xlink:href="#DejaVuSans-97"/>
    </g>
   </g>
   <g id="text_16">
    <!-- NAL -->
    <g transform="translate(375.22944 104.863611)scale(0.17 -0.17)">
     <defs>
      <path d="M 9.8125 72.90625 
L 23.09375 72.90625 
L 55.421875 11.921875 
L 55.421875 72.90625 
L 64.984375 72.90625 
L 64.984375 0 
L 51.703125 0 
L 19.390625 60.984375 
L 19.390625 0 
L 9.8125 0 
z
" id="DejaVuSans-78"/>
      <path d="M 34.1875 63.1875 
L 20.796875 26.90625 
L 47.609375 26.90625 
z
M 28.609375 72.90625 
L 39.796875 72.90625 
L 67.578125 0 
L 57.328125 0 
L 50.6875 18.703125 
L 17.828125 18.703125 
L 11.1875 0 
L 0.78125 0 
z
" id="DejaVuSans-65"/>
      <path d="M 9.8125 72.90625 
L 19.671875 72.90625 
L 19.671875 8.296875 
L 55.171875 8.296875 
L 55.171875 0 
L 9.8125 0 
z
" id="DejaVuSans-76"/>
     </defs>
     <use xlink:href="#DejaVuSans-78"/>
     <use x="74.804688" xlink:href="#DejaVuSans-65"/>
     <use x="143.212891" xlink:href="#DejaVuSans-76"/>
    </g>
   </g>
   <g id="text_17">
    <!-- slsqp -->
    <g transform="translate(375.22944 40.397235)scale(0.17 -0.17)">
     <defs>
      <path d="M 14.796875 27.296875 
Q 14.796875 17.390625 18.875 11.75 
Q 22.953125 6.109375 30.078125 6.109375 
Q 37.203125 6.109375 41.296875 11.75 
Q 45.40625 17.390625 45.40625 27.296875 
Q 45.40625 37.203125 41.296875 42.84375 
Q 37.203125 48.484375 30.078125 48.484375 
Q 22.953125 48.484375 18.875 42.84375 
Q 14.796875 37.203125 14.796875 27.296875 
z
M 45.40625 8.203125 
Q 42.578125 3.328125 38.25 0.953125 
Q 33.9375 -1.421875 27.875 -1.421875 
Q 17.96875 -1.421875 11.734375 6.484375 
Q 5.515625 14.40625 5.515625 27.296875 
Q 5.515625 40.1875 11.734375 48.09375 
Q 17.96875 56 27.875 56 
Q 33.9375 56 38.25 53.625 
Q 42.578125 51.265625 45.40625 46.390625 
L 45.40625 54.6875 
L 54.390625 54.6875 
L 54.390625 -20.796875 
L 45.40625 -20.796875 
z
" id="DejaVuSans-113"/>
     </defs>
     <use xlink:href="#DejaVuSans-115"/>
     <use x="52.099609" xlink:href="#DejaVuSans-108"/>
     <use x="79.882812" xlink:href="#DejaVuSans-115"/>
     <use x="131.982422" xlink:href="#DejaVuSans-113"/>
     <use x="195.458984" xlink:href="#DejaVuSans-112"/>
    </g>
   </g>
   <g id="text_18">
    <!-- bbob-constrained f28, 20-D -->
    <g transform="translate(60.41088 38.111366)scale(0.102 -0.102)">
     <defs>
      <path d="M 19.671875 64.796875 
L 19.671875 8.109375 
L 31.59375 8.109375 
Q 46.6875 8.109375 53.6875 14.9375 
Q 60.6875 21.78125 60.6875 36.53125 
Q 60.6875 51.171875 53.6875 57.984375 
Q 46.6875 64.796875 31.59375 64.796875 
z
M 9.8125 72.90625 
L 30.078125 72.90625 
Q 51.265625 72.90625 61.171875 64.09375 
Q 71.09375 55.28125 71.09375 36.53125 
Q 71.09375 17.671875 61.125 8.828125 
Q 51.171875 0 30.078125 0 
L 9.8125 0 
z
" id="DejaVuSans-68"/>
     </defs>
     <use xlink:href="#DejaVuSans-98"/>
     <use x="63.476562" xlink:href="#DejaVuSans-98"/>
     <use x="126.953125" xlink:href="#DejaVuSans-111"/>
     <use x="188.134766" xlink:href="#DejaVuSans-98"/>
     <use x="251.611328" xlink:href="#DejaVuSans-45"/>
     <use x="287.695312" xlink:href="#DejaVuSans-99"/>
     <use x="342.675781" xlink:href="#DejaVuSans-111"/>
     <use x="403.857422" xlink:href="#DejaVuSans-110"/>
     <use x="467.236328" xlink:href="#DejaVuSans-115"/>
     <use x="519.335938" xlink:href="#DejaVuSans-116"/>
     <use x="558.544922" xlink:href="#DejaVuSans-114"/>
     <use x="599.658203" xlink:href="#DejaVuSans-97"/>
     <use x="660.9375" xlink:href="#DejaVuSans-105"/>
     <use x="688.720703" xlink:href="#DejaVuSans-110"/>
     <use x="752.099609" xlink:href="#DejaVuSans-101"/>
     <use x="813.623047" xlink:href="#DejaVuSans-100"/>
     <use x="877.099609" xlink:href="#DejaVuSans-32"/>
     <use x="908.886719" xlink:href="#DejaVuSans-102"/>
     <use x="944.091797" xlink:href="#DejaVuSans-50"/>
     <use x="1007.714844" xlink:href="#DejaVuSans-56"/>
     <use x="1071.337891" xlink:href="#DejaVuSans-44"/>
     <use x="1103.125" xlink:href="#DejaVuSans-32"/>
     <use x="1134.912109" xlink:href="#DejaVuSans-50"/>
     <use x="1198.535156" xlink:href="#DejaVuSans-48"/>
     <use x="1262.158203" xlink:href="#DejaVuSans-45"/>
     <use x="1298.242188" xlink:href="#DejaVuSans-68"/>
    </g>
    <!-- 41 targets: 100..1e-06 -->
    <g transform="translate(60.41088 49.533135)scale(0.102 -0.102)">
     <defs>
      <path d="M 11.71875 12.40625 
L 22.015625 12.40625 
L 22.015625 0 
L 11.71875 0 
z
M 11.71875 51.703125 
L 22.015625 51.703125 
L 22.015625 39.3125 
L 11.71875 39.3125 
z
" id="DejaVuSans-58"/>
     </defs>
     <use xlink:href="#DejaVuSans-52"/>
     <use x="63.623047" xlink:href="#DejaVuSans-49"/>
     <use x="127.246094" xlink:href="#DejaVuSans-32"/>
     <use x="159.033203" xlink:href="#DejaVuSans-116"/>
     <use x="198.242188" xlink:href="#DejaVuSans-97"/>
     <use x="259.521484" xlink:href="#DejaVuSans-114"/>
     <use x="298.884766" xlink:href="#DejaVuSans-103"/>
     <use x="362.361328" xlink:href="#DejaVuSans-101"/>
     <use x="423.884766" xlink:href="#DejaVuSans-116"/>
     <use x="463.09375" xlink:href="#DejaVuSans-115"/>
     <use x="515.193359" xlink:href="#DejaVuSans-58"/>
     <use x="548.884766" xlink:href="#DejaVuSans-32"/>
     <use x="580.671875" xlink:href="#DejaVuSans-49"/>
     <use x="644.294922" xlink:href="#DejaVuSans-48"/>
     <use x="707.917969" xlink:href="#DejaVuSans-48"/>
     <use x="771.541016" xlink:href="#DejaVuSans-46"/>
     <use x="803.328125" xlink:href="#DejaVuSans-46"/>
     <use x="835.115234" xlink:href="#DejaVuSans-49"/>
     <use x="898.738281" xlink:href="#DejaVuSans-101"/>
     <use x="960.261719" xlink:href="#DejaVuSans-45"/>
     <use x="996.345703" xlink:href="#DejaVuSans-48"/>
     <use x="1059.96875" xlink:href="#DejaVuSans-54"/>
    </g>
    <!-- 15 instances -->
    <g transform="translate(60.41088 60.954904)scale(0.102 -0.102)">
     <defs>
      <path d="M 10.796875 72.90625 
L 49.515625 72.90625 
L 49.515625 64.59375 
L 19.828125 64.59375 
L 19.828125 46.734375 
Q 21.96875 47.46875 24.109375 47.828125 
Q 26.265625 48.1875 28.421875 48.1875 
Q 40.625 48.1875 47.75 41.5 
Q 54.890625 34.8125 54.890625 23.390625 
Q 54.890625 11.625 47.5625 5.09375 
Q 40.234375 -1.421875 26.90625 -1.421875 
Q 22.3125 -1.421875 17.546875 -0.640625 
Q 12.796875 0.140625 7.71875 1.703125 
L 7.71875 11.625 
Q 12.109375 9.234375 16.796875 8.0625 
Q 21.484375 6.890625 26.703125 6.890625 
Q 35.15625 6.890625 40.078125 11.328125 
Q 45.015625 15.765625 45.015625 23.390625 
Q 45.015625 31 40.078125 35.4375 
Q 35.15625 39.890625 26.703125 39.890625 
Q 22.75 39.890625 18.8125 39.015625 
Q 14.890625 38.140625 10.796875 36.28125 
z
" id="DejaVuSans-53"/>
     </defs>
     <use xlink:href="#DejaVuSans-49"/>
     <use x="63.623047" xlink:href="#DejaVuSans-53"/>
     <use x="127.246094" xlink:href="#DejaVuSans-32"/>
     <use x="159.033203" xlink:href="#DejaVuSans-105"/>
     <use x="186.816406" xlink:href="#DejaVuSans-110"/>
     <use x="250.195312" xlink:href="#DejaVuSans-115"/>
     <use x="302.294922" xlink:href="#DejaVuSans-116"/>
     <use x="341.503906" xlink:href="#DejaVuSans-97"/>
     <use x="402.783203" xlink:href="#DejaVuSans-110"/>
     <use x="466.162109" xlink:href="#DejaVuSans-99"/>
     <use x="521.142578" xlink:href="#DejaVuSans-101"/>
     <use x="582.666016" xlink:href="#DejaVuSans-115"/>
    </g>
   </g>
   <g id="text_19">
    <!-- v5z33 -->
    <g style="fill:#808080;" transform="translate(183.016656 294.151352)scale(0.1 -0.1)">
     <defs>
      <path d="M 5.515625 54.6875 
L 48.1875 54.6875 
L 48.1875 46.484375 
L 14.40625 7.171875 
L 48.1875 7.171875 
L 48.1875 0 
L 4.296875 0 
L 4.296875 8.203125 
L 38.09375 47.515625 
L 5.515625 47.515625 
z
" id="DejaVuSans-122"/>
      <path d="M 40.578125 39.3125 
Q 47.65625 37.796875 51.625 33 
Q 55.609375 28.21875 55.609375 21.1875 
Q 55.609375 10.40625 48.1875 4.484375 
Q 40.765625 -1.421875 27.09375 -1.421875 
Q 22.515625 -1.421875 17.65625 -0.515625 
Q 12.796875 0.390625 7.625 2.203125 
L 7.625 11.71875 
Q 11.71875 9.328125 16.59375 8.109375 
Q 21.484375 6.890625 26.8125 6.890625 
Q 36.078125 6.890625 40.9375 10.546875 
Q 45.796875 14.203125 45.796875 21.1875 
Q 45.796875 27.640625 41.28125 31.265625 
Q 36.765625 34.90625 28.71875 34.90625 
L 20.21875 34.90625 
L 20.21875 43.015625 
L 29.109375 43.015625 
Q 36.375 43.015625 40.234375 45.921875 
Q 44.09375 48.828125 44.09375 54.296875 
Q 44.09375 59.90625 40.109375 62.90625 
Q 36.140625 65.921875 28.71875 65.921875 
Q 24.65625 65.921875 20.015625 65.03125 
Q 15.375 64.15625 9.8125 62.3125 
L 9.8125 71.09375 
Q 15.4375 72.65625 20.34375 73.4375 
Q 25.25 74.21875 29.59375 74.21875 
Q 40.828125 74.21875 47.359375 69.109375 
Q 53.90625 64.015625 53.90625 55.328125 
Q 53.90625 49.265625 50.4375 45.09375 
Q 46.96875 40.921875 40.578125 39.3125 
z
" id="DejaVuSans-51"/>
     </defs>
     <use xlink:href="#DejaVuSans-118"/>
     <use x="59.179688" xlink:href="#DejaVuSans-53"/>
     <use x="122.802734" xlink:href="#DejaVuSans-122"/>
     <use x="175.292969" xlink:href="#DejaVuSans-51"/>
     <use x="238.916016" xlink:href="#DejaVuSans-51"/>
    </g>
   </g>
   <g id="text_20">
    <!-- 28 Discus, n/2+6 constraints -->
    <g transform="translate(53.594 21.648)scale(0.2 -0.2)">
     <use xlink:href="#DejaVuSans-50"/>
     <use x="63.623047" xlink:href="#DejaVuSans-56"/>
     <use x="127.246094" xlink:href="#DejaVuSans-32"/>
     <use x="159.033203" xlink:href="#DejaVuSans-68"/>
     <use x="236.035156" xlink:href="#DejaVuSans-105"/>
     <use x="263.818359" xlink:href="#DejaVuSans-115"/>
     <use x="315.917969" xlink:href="#DejaVuSans-99"/>
     <use x="370.898438" xlink:href="#DejaVuSans-117"/>
     <use x="434.277344" xlink:href="#DejaVuSans-115"/>
     <use x="486.376953" xlink:href="#DejaVuSans-44"/>
     <use x="518.164062" xlink:href="#DejaVuSans-32"/>
     <use x="549.951172" xlink:href="#DejaVuSans-110"/>
     <use x="613.330078" xlink:href="#DejaVuSans-47"/>
     <use x="647.021484" xlink:href="#DejaVuSans-50"/>
     <use x="710.644531" xlink:href="#DejaVuSans-43"/>
     <use x="794.433594" xlink:href="#DejaVuSans-54"/>
     <use x="858.056641" xlink:href="#DejaVuSans-32"/>
     <use x="889.84375" xlink:href="#DejaVuSans-99"/>
     <use x="944.824219" xlink:href="#DejaVuSans-111"/>
     <use x="1006.005859" xlink:href="#DejaVuSans-110"/>
     <use x="1069.384766" xlink:href="#DejaVuSans-115"/>
     <use x="1121.484375" xlink:href="#DejaVuSans-116"/>
     <use x="1160.693359" xlink:href="#DejaVuSans-114"/>
     <use x="1201.806641" xlink:href="#DejaVuSans-97"/>
     <use x="1263.085938" xlink:href="#DejaVuSans-105"/>
     <use x="1290.869141" xlink:href="#DejaVuSans-110"/>
     <use x="1354.248047" xlink:href="#DejaVuSans-116"/>
     <use x="1393.457031" xlink:href="#DejaVuSans-115"/>
    </g>
   </g>
  </g>
 </g>
 <defs>
  <clipPath id="pe5d9cba2eb">
   <rect height="271.296" width="281.088" x="57.6" y="27.648"/>
  </clipPath>
 </defs>
</svg>
