<?xml version="1.0" encoding="utf-8" standalone="no"?>
<!DOCTYPE svg PUBLIC "-//W3C//DTD SVG 1.1//EN"
  "http://www.w3.org/Graphics/SVG/1.1/DTD/svg11.dtd">
<!-- Created with matplotlib (https://matplotlib.org/) -->
<svg height="345.6pt" version="1.1" viewBox="0 0 460.8 345.6" width="460.8pt" xmlns="http://www.w3.org/2000/svg" xmlns:xlink="http://www.w3.org/1999/xlink">
 <metadata>
  <rdf:RDF xmlns:cc="http://creativecommons.org/ns#" xmlns:dc="http://purl.org/dc/elements/1.1/" xmlns:rdf="http://www.w3.org/1999/02/22-rdf-syntax-ns#">
   <cc:Work>
    <dc:type rdf:resource="http://purl.org/dc/dcmitype/StillImage"/>
    <dc:date>2021-06-24T15:49:03.182825</dc:date>
    <dc:format>image/svg+xml</dc:format>
    <dc:creator>
     <cc:Agent>
      <dc:title>Matplotlib v3.3.3, https://matplotlib.org/</dc:title>
     </cc:Agent>
    </dc:creator>
   </cc:Work>
  </rdf:RDF>
 </metadata>
 <defs>
  <style type="text/css">*{stroke-linecap:butt;stroke-linejoin:round;}</style>
 </defs>
 <g id="figure_1">
  <g id="patch_1">
   <path d="M 0 345.6 
L 460.8 345.6 
L 460.8 0 
L 0 0 
z
" style="fill:#ffffff;"/>
  </g>
  <g id="axes_1">
   <g id="patch_2">
    <path d="M 57.6 298.944 
L 338.688 298.944 
L 338.688 27.648 
L 57.6 27.648 
z
" style="fill:#ffffff;"/>
   </g>
   <g id="matplotlib.axis_1">
    <g id="xtick_1">
     <g id="line2d_1">
      <path clip-path="url(#p46dd5a2ea5)" d="M 57.6 298.944 
L 57.6 27.648 
" style="fill:none;stroke:#b0b0b0;stroke-linecap:square;stroke-width:0.8;"/>
     </g>
     <g id="line2d_2">
      <defs>
       <path d="M 0 0 
L 0 3.5 
" id="md9330d69f3" style="stroke:#000000;stroke-width:0.8;"/>
      </defs>
      <g>
       <use style="stroke:#000000;stroke-width:0.8;" x="57.6" xlink:href="#md9330d69f3" y="298.944"/>
      </g>
     </g>
     <g id="text_1">
      <!-- 0 -->
      <g transform="translate(51.2375 321.140875)scale(0.2 -0.2)">
       <defs>
        <path d="M 31.78125 66.40625 
Q 24.171875 66.40625 20.328125 58.90625 
Q 16.5 51.421875 16.5 36.375 
Q 16.5 21.390625 20.328125 13.890625 
Q 24.171875 6.390625 31.78125 6.390625 
Q 39.453125 6.390625 43.28125 13.890625 
Q 47.125 21.390625 47.125 36.375 
Q 47.125 51.421875 43.28125 58.90625 
Q 39.453125 66.40625 31.78125 66.40625 
z
M 31.78125 74.21875 
Q 44.046875 74.21875 50.515625 64.515625 
Q 56.984375 54.828125 56.984375 36.375 
Q 56.984375 17.96875 50.515625 8.265625 
Q 44.046875 -1.421875 31.78125 -1.421875 
Q 19.53125 -1.421875 13.0625 8.265625 
Q 6.59375 17.96875 6.59375 36.375 
Q 6.59375 54.828125 13.0625 64.515625 
Q 19.53125 74.21875 31.78125 74.21875 
z
" id="DejaVuSans-48"/>
       </defs>
       <use xlink:href="#DejaVuSans-48"/>
      </g>
     </g>
    </g>
    <g id="xtick_2">
     <g id="line2d_3">
      <path clip-path="url(#p46dd5a2ea5)" d="M 137.910857 298.944 
L 137.910857 27.648 
" style="fill:none;stroke:#b0b0b0;stroke-linecap:square;stroke-width:0.8;"/>
     </g>
     <g id="line2d_4">
      <g>
       <use style="stroke:#000000;stroke-width:0.8;" x="137.910857" xlink:href="#md9330d69f3" y="298.944"/>
      </g>
     </g>
     <g id="text_2">
      <!-- 2 -->
      <g transform="translate(131.548357 321.140875)scale(0.2 -0.2)">
       <defs>
        <path d="M 19.1875 8.296875 
L 53.609375 8.296875 
L 53.609375 0 
L 7.328125 0 
L 7.328125 8.296875 
Q 12.9375 14.109375 22.625 23.890625 
Q 32.328125 33.6875 34.8125 36.53125 
Q 39.546875 41.84375 41.421875 45.53125 
Q 43.3125 49.21875 43.3125 52.78125 
Q 43.3125 58.59375 39.234375 62.25 
Q 35.15625 65.921875 28.609375 65.921875 
Q 23.96875 65.921875 18.8125 64.3125 
Q 13.671875 62.703125 7.8125 59.421875 
L 7.8125 69.390625 
Q 13.765625 71.78125 18.9375 73 
Q 24.125 74.21875 28.421875 74.21875 
Q 39.75 74.21875 46.484375 68.546875 
Q 53.21875 62.890625 53.21875 53.421875 
Q 53.21875 48.921875 51.53125 44.890625 
Q 49.859375 40.875 45.40625 35.40625 
Q 44.1875 33.984375 37.640625 27.21875 
Q 31.109375 20.453125 19.1875 8.296875 
z
" id="DejaVuSans-50"/>
       </defs>
       <use xlink:href="#DejaVuSans-50"/>
      </g>
     </g>
    </g>
    <g id="xtick_3">
     <g id="line2d_5">
      <path clip-path="url(#p46dd5a2ea5)" d="M 218.221714 298.944 
L 218.221714 27.648 
" style="fill:none;stroke:#b0b0b0;stroke-linecap:square;stroke-width:0.8;"/>
     </g>
     <g id="line2d_6">
      <g>
       <use style="stroke:#000000;stroke-width:0.8;" x="218.221714" xlink:href="#md9330d69f3" y="298.944"/>
      </g>
     </g>
     <g id="text_3">
      <!-- 4 -->
      <g transform="translate(211.859214 321.140875)scale(0.2 -0.2)">
       <defs>
        <path d="M 37.796875 64.3125 
L 12.890625 25.390625 
L 37.796875 25.390625 
z
M 35.203125 72.90625 
L 47.609375 72.90625 
L 47.609375 25.390625 
L 58.015625 25.390625 
L 58.015625 17.1875 
L 47.609375 17.1875 
L 47.609375 0 
L 37.796875 0 
L 37.796875 17.1875 
L 4.890625 17.1875 
L 4.890625 26.703125 
z
" id="DejaVuSans-52"/>
       </defs>
       <use xlink:href="#DejaVuSans-52"/>
      </g>
     </g>
    </g>
    <g id="xtick_4">
     <g id="line2d_7">
      <path clip-path="url(#p46dd5a2ea5)" d="M 298.532571 298.944 
L 298.532571 27.648 
" style="fill:none;stroke:#b0b0b0;stroke-linecap:square;stroke-width:0.8;"/>
     </g>
     <g id="line2d_8">
      <g>
       <use style="stroke:#000000;stroke-width:0.8;" x="298.532571" xlink:href="#md9330d69f3" y="298.944"/>
      </g>
     </g>
     <g id="text_4">
      <!-- 6 -->
      <g transform="translate(292.170071 321.140875)scale(0.2 -0.2)">
       <defs>
        <path d="M 33.015625 40.375 
Q 26.375 40.375 22.484375 35.828125 
Q 18.609375 31.296875 18.609375 23.390625 
Q 18.609375 15.53125 22.484375 10.953125 
Q 26.375 6.390625 33.015625 6.390625 
Q 39.65625 6.390625 43.53125 10.953125 
Q 47.40625 15.53125 47.40625 23.390625 
Q 47.40625 31.296875 43.53125 35.828125 
Q 39.65625 40.375 33.015625 40.375 
z
M 52.59375 71.296875 
L 52.59375 62.3125 
Q 48.875 64.0625 45.09375 64.984375 
Q 41.3125 65.921875 37.59375 65.921875 
Q 27.828125 65.921875 22.671875 59.328125 
Q 17.53125 52.734375 16.796875 39.40625 
Q 19.671875 43.65625 24.015625 45.921875 
Q 28.375 48.1875 33.59375 48.1875 
Q 44.578125 48.1875 50.953125 41.515625 
Q 57.328125 34.859375 57.328125 23.390625 
Q 57.328125 12.15625 50.6875 5.359375 
Q 44.046875 -1.421875 33.015625 -1.421875 
Q 20.359375 -1.421875 13.671875 8.265625 
Q 6.984375 17.96875 6.984375 36.375 
Q 6.984375 53.65625 15.1875 63.9375 
Q 23.390625 74.21875 37.203125 74.21875 
Q 40.921875 74.21875 44.703125 73.484375 
Q 48.484375 72.75 52.59375 71.296875 
z
" id="DejaVuSans-54"/>
       </defs>
       <use xlink:href="#DejaVuSans-54"/>
      </g>
     </g>
    </g>
    <g id="xtick_5">
     <g id="line2d_9">
      <path clip-path="url(#p46dd5a2ea5)" d="M 97.755429 298.944 
L 97.755429 27.648 
" style="fill:none;stroke:#b0b0b0;stroke-linecap:square;stroke-width:0.8;"/>
     </g>
     <g id="line2d_10">
      <defs>
       <path d="M 0 0 
L 0 2 
" id="mbc94ff09dd" style="stroke:#000000;stroke-width:0.6;"/>
      </defs>
      <g>
       <use style="stroke:#000000;stroke-width:0.6;" x="97.755429" xlink:href="#mbc94ff09dd" y="298.944"/>
      </g>
     </g>
    </g>
    <g id="xtick_6">
     <g id="line2d_11">
      <path clip-path="url(#p46dd5a2ea5)" d="M 178.066286 298.944 
L 178.066286 27.648 
" style="fill:none;stroke:#b0b0b0;stroke-linecap:square;stroke-width:0.8;"/>
     </g>
     <g id="line2d_12">
      <g>
       <use style="stroke:#000000;stroke-width:0.6;" x="178.066286" xlink:href="#mbc94ff09dd" y="298.944"/>
      </g>
     </g>
    </g>
    <g id="xtick_7">
     <g id="line2d_13">
      <path clip-path="url(#p46dd5a2ea5)" d="M 258.377143 298.944 
L 258.377143 27.648 
" style="fill:none;stroke:#b0b0b0;stroke-linecap:square;stroke-width:0.8;"/>
     </g>
     <g id="line2d_14">
      <g>
       <use style="stroke:#000000;stroke-width:0.6;" x="258.377143" xlink:href="#mbc94ff09dd" y="298.944"/>
      </g>
     </g>
    </g>
    <g id="xtick_8">
     <g id="line2d_15">
      <path clip-path="url(#p46dd5a2ea5)" d="M 338.688 298.944 
L 338.688 27.648 
" style="fill:none;stroke:#b0b0b0;stroke-linecap:square;stroke-width:0.8;"/>
     </g>
     <g id="line2d_16">
      <g>
       <use style="stroke:#000000;stroke-width:0.6;" x="338.688" xlink:href="#mbc94ff09dd" y="298.944"/>
      </g>
     </g>
    </g>
    <g id="text_5">
     <!-- log10(# (f+g)-evals / dimension) -->
     <g transform="translate(58.145016 342.217594)scale(0.17 -0.17)">
      <defs>
       <path d="M 9.421875 75.984375 
L 18.40625 75.984375 
L 18.40625 0 
L 9.421875 0 
z
" id="DejaVuSans-108"/>
       <path d="M 30.609375 48.390625 
Q 23.390625 48.390625 19.1875 42.75 
Q 14.984375 37.109375 14.984375 27.296875 
Q 14.984375 17.484375 19.15625 11.84375 
Q 23.34375 6.203125 30.609375 6.203125 
Q 37.796875 6.203125 41.984375 11.859375 
Q 46.1875 17.53125 46.1875 27.296875 
Q 46.1875 37.015625 41.984375 42.703125 
Q 37.796875 48.390625 30.609375 48.390625 
z
M 30.609375 56 
Q 42.328125 56 49.015625 48.375 
Q 55.71875 40.765625 55.71875 27.296875 
Q 55.71875 13.875 49.015625 6.21875 
Q 42.328125 -1.421875 30.609375 -1.421875 
Q 18.84375 -1.421875 12.171875 6.21875 
Q 5.515625 13.875 5.515625 27.296875 
Q 5.515625 40.765625 12.171875 48.375 
Q 18.84375 56 30.609375 56 
z
" id="DejaVuSans-111"/>
       <path d="M 45.40625 27.984375 
Q 45.40625 37.75 41.375 43.109375 
Q 37.359375 48.484375 30.078125 48.484375 
Q 22.859375 48.484375 18.828125 43.109375 
Q 14.796875 37.75 14.796875 27.984375 
Q 14.796875 18.265625 18.828125 12.890625 
Q 22.859375 7.515625 30.078125 7.515625 
Q 37.359375 7.515625 41.375 12.890625 
Q 45.40625 18.265625 45.40625 27.984375 
z
M 54.390625 6.78125 
Q 54.390625 -7.171875 48.1875 -13.984375 
Q 42 -20.796875 29.203125 -20.796875 
Q 24.46875 -20.796875 20.265625 -20.09375 
Q 16.0625 -19.390625 12.109375 -17.921875 
L 12.109375 -9.1875 
Q 16.0625 -11.328125 19.921875 -12.34375 
Q 23.78125 -13.375 27.78125 -13.375 
Q 36.625 -13.375 41.015625 -8.765625 
Q 45.40625 -4.15625 45.40625 5.171875 
L 45.40625 9.625 
Q 42.625 4.78125 38.28125 2.390625 
Q 33.9375 0 27.875 0 
Q 17.828125 0 11.671875 7.65625 
Q 5.515625 15.328125 5.515625 27.984375 
Q 5.515625 40.671875 11.671875 48.328125 
Q 17.828125 56 27.875 56 
Q 33.9375 56 38.28125 53.609375 
Q 42.625 51.21875 45.40625 46.390625 
L 45.40625 54.6875 
L 54.390625 54.6875 
z
" id="DejaVuSans-103"/>
       <path d="M 12.40625 8.296875 
L 28.515625 8.296875 
L 28.515625 63.921875 
L 10.984375 60.40625 
L 10.984375 69.390625 
L 28.421875 72.90625 
L 38.28125 72.90625 
L 38.28125 8.296875 
L 54.390625 8.296875 
L 54.390625 0 
L 12.40625 0 
z
" id="DejaVuSans-49"/>
       <path d="M 31 75.875 
Q 24.46875 64.65625 21.28125 53.65625 
Q 18.109375 42.671875 18.109375 31.390625 
Q 18.109375 20.125 21.3125 9.0625 
Q 24.515625 -2 31 -13.1875 
L 23.1875 -13.1875 
Q 15.875 -1.703125 12.234375 9.375 
Q 8.59375 20.453125 8.59375 31.390625 
Q 8.59375 42.28125 12.203125 53.3125 
Q 15.828125 64.359375 23.1875 75.875 
z
" id="DejaVuSans-40"/>
       <path d="M 51.125 44 
L 36.921875 44 
L 32.8125 27.6875 
L 47.125 27.6875 
z
M 43.796875 71.78125 
L 38.71875 51.515625 
L 52.984375 51.515625 
L 58.109375 71.78125 
L 65.921875 71.78125 
L 60.890625 51.515625 
L 76.125 51.515625 
L 76.125 44 
L 58.984375 44 
L 54.984375 27.6875 
L 70.515625 27.6875 
L 70.515625 20.21875 
L 53.078125 20.21875 
L 48 0 
L 40.1875 0 
L 45.21875 20.21875 
L 30.90625 20.21875 
L 25.875 0 
L 18.015625 0 
L 23.09375 20.21875 
L 7.71875 20.21875 
L 7.71875 27.6875 
L 24.90625 27.6875 
L 29 44 
L 13.28125 44 
L 13.28125 51.515625 
L 30.90625 51.515625 
L 35.890625 71.78125 
z
" id="DejaVuSans-35"/>
       <path id="DejaVuSans-32"/>
       <path d="M 37.109375 75.984375 
L 37.109375 68.5 
L 28.515625 68.5 
Q 23.6875 68.5 21.796875 66.546875 
Q 19.921875 64.59375 19.921875 59.515625 
L 19.921875 54.6875 
L 34.71875 54.6875 
L 34.71875 47.703125 
L 19.921875 47.703125 
L 19.921875 0 
L 10.890625 0 
L 10.890625 47.703125 
L 2.296875 47.703125 
L 2.296875 54.6875 
L 10.890625 54.6875 
L 10.890625 58.5 
Q 10.890625 67.625 15.140625 71.796875 
Q 19.390625 75.984375 28.609375 75.984375 
z
" id="DejaVuSans-102"/>
       <path d="M 46 62.703125 
L 46 35.5 
L 73.1875 35.5 
L 73.1875 27.203125 
L 46 27.203125 
L 46 0 
L 37.796875 0 
L 37.796875 27.203125 
L 10.59375 27.203125 
L 10.59375 35.5 
L 37.796875 35.5 
L 37.796875 62.703125 
z
" id="DejaVuSans-43"/>
       <path d="M 8.015625 75.875 
L 15.828125 75.875 
Q 23.140625 64.359375 26.78125 53.3125 
Q 30.421875 42.28125 30.421875 31.390625 
Q 30.421875 20.453125 26.78125 9.375 
Q 23.140625 -1.703125 15.828125 -13.1875 
L 8.015625 -13.1875 
Q 14.5 -2 17.703125 9.0625 
Q 20.90625 20.125 20.90625 31.390625 
Q 20.90625 42.671875 17.703125 53.65625 
Q 14.5 64.65625 8.015625 75.875 
z
" id="DejaVuSans-41"/>
       <path d="M 4.890625 31.390625 
L 31.203125 31.390625 
L 31.203125 23.390625 
L 4.890625 23.390625 
z
" id="DejaVuSans-45"/>
       <path d="M 56.203125 29.59375 
L 56.203125 25.203125 
L 14.890625 25.203125 
Q 15.484375 15.921875 20.484375 11.0625 
Q 25.484375 6.203125 34.421875 6.203125 
Q 39.59375 6.203125 44.453125 7.46875 
Q 49.3125 8.734375 54.109375 11.28125 
L 54.109375 2.78125 
Q 49.265625 0.734375 44.1875 -0.34375 
Q 39.109375 -1.421875 33.890625 -1.421875 
Q 20.796875 -1.421875 13.15625 6.1875 
Q 5.515625 13.8125 5.515625 26.8125 
Q 5.515625 40.234375 12.765625 48.109375 
Q 20.015625 56 32.328125 56 
Q 43.359375 56 49.78125 48.890625 
Q 56.203125 41.796875 56.203125 29.59375 
z
M 47.21875 32.234375 
Q 47.125 39.59375 43.09375 43.984375 
Q 39.0625 48.390625 32.421875 48.390625 
Q 24.90625 48.390625 20.390625 44.140625 
Q 15.875 39.890625 15.1875 32.171875 
z
" id="DejaVuSans-101"/>
       <path d="M 2.984375 54.6875 
L 12.5 54.6875 
L 29.59375 8.796875 
L 46.6875 54.6875 
L 56.203125 54.6875 
L 35.6875 0 
L 23.484375 0 
z
" id="DejaVuSans-118"/>
       <path d="M 34.28125 27.484375 
Q 23.390625 27.484375 19.1875 25 
Q 14.984375 22.515625 14.984375 16.5 
Q 14.984375 11.71875 18.140625 8.90625 
Q 21.296875 6.109375 26.703125 6.109375 
Q 34.1875 6.109375 38.703125 11.40625 
Q 43.21875 16.703125 43.21875 25.484375 
L 43.21875 27.484375 
z
M 52.203125 31.203125 
L 52.203125 0 
L 43.21875 0 
L 43.21875 8.296875 
Q 40.140625 3.328125 35.546875 0.953125 
Q 30.953125 -1.421875 24.3125 -1.421875 
Q 15.921875 -1.421875 10.953125 3.296875 
Q 6 8.015625 6 15.921875 
Q 6 25.140625 12.171875 29.828125 
Q 18.359375 34.515625 30.609375 34.515625 
L 43.21875 34.515625 
L 43.21875 35.40625 
Q 43.21875 41.609375 39.140625 45 
Q 35.0625 48.390625 27.6875 48.390625 
Q 23 48.390625 18.546875 47.265625 
Q 14.109375 46.140625 10.015625 43.890625 
L 10.015625 52.203125 
Q 14.9375 54.109375 19.578125 55.046875 
Q 24.21875 56 28.609375 56 
Q 40.484375 56 46.34375 49.84375 
Q 52.203125 43.703125 52.203125 31.203125 
z
" id="DejaVuSans-97"/>
       <path d="M 44.28125 53.078125 
L 44.28125 44.578125 
Q 40.484375 46.53125 36.375 47.5 
Q 32.28125 48.484375 27.875 48.484375 
Q 21.1875 48.484375 17.84375 46.4375 
Q 14.5 44.390625 14.5 40.28125 
Q 14.5 37.15625 16.890625 35.375 
Q 19.28125 33.59375 26.515625 31.984375 
L 29.59375 31.296875 
Q 39.15625 29.25 43.1875 25.515625 
Q 47.21875 21.78125 47.21875 15.09375 
Q 47.21875 7.46875 41.1875 3.015625 
Q 35.15625 -1.421875 24.609375 -1.421875 
Q 20.21875 -1.421875 15.453125 -0.5625 
Q 10.6875 0.296875 5.421875 2 
L 5.421875 11.28125 
Q 10.40625 8.6875 15.234375 7.390625 
Q 20.0625 6.109375 24.8125 6.109375 
Q 31.15625 6.109375 34.5625 8.28125 
Q 37.984375 10.453125 37.984375 14.40625 
Q 37.984375 18.0625 35.515625 20.015625 
Q 33.0625 21.96875 24.703125 23.78125 
L 21.578125 24.515625 
Q 13.234375 26.265625 9.515625 29.90625 
Q 5.8125 33.546875 5.8125 39.890625 
Q 5.8125 47.609375 11.28125 51.796875 
Q 16.75 56 26.8125 56 
Q 31.78125 56 36.171875 55.265625 
Q 40.578125 54.546875 44.28125 53.078125 
z
" id="DejaVuSans-115"/>
       <path d="M 25.390625 72.90625 
L 33.6875 72.90625 
L 8.296875 -9.28125 
L 0 -9.28125 
z
" id="DejaVuSans-47"/>
       <path d="M 45.40625 46.390625 
L 45.40625 75.984375 
L 54.390625 75.984375 
L 54.390625 0 
L 45.40625 0 
L 45.40625 8.203125 
Q 42.578125 3.328125 38.25 0.953125 
Q 33.9375 -1.421875 27.875 -1.421875 
Q 17.96875 -1.421875 11.734375 6.484375 
Q 5.515625 14.40625 5.515625 27.296875 
Q 5.515625 40.1875 11.734375 48.09375 
Q 17.96875 56 27.875 56 
Q 33.9375 56 38.25 53.625 
Q 42.578125 51.265625 45.40625 46.390625 
z
M 14.796875 27.296875 
Q 14.796875 17.390625 18.875 11.75 
Q 22.953125 6.109375 30.078125 6.109375 
Q 37.203125 6.109375 41.296875 11.75 
Q 45.40625 17.390625 45.40625 27.296875 
Q 45.40625 37.203125 41.296875 42.84375 
Q 37.203125 48.484375 30.078125 48.484375 
Q 22.953125 48.484375 18.875 42.84375 
Q 14.796875 37.203125 14.796875 27.296875 
z
" id="DejaVuSans-100"/>
       <path d="M 9.421875 54.6875 
L 18.40625 54.6875 
L 18.40625 0 
L 9.421875 0 
z
M 9.421875 75.984375 
L 18.40625 75.984375 
L 18.40625 64.59375 
L 9.421875 64.59375 
z
" id="DejaVuSans-105"/>
       <path d="M 52 44.1875 
Q 55.375 50.25 60.0625 53.125 
Q 64.75 56 71.09375 56 
Q 79.640625 56 84.28125 50.015625 
Q 88.921875 44.046875 88.921875 33.015625 
L 88.921875 0 
L 79.890625 0 
L 79.890625 32.71875 
Q 79.890625 40.578125 77.09375 44.375 
Q 74.3125 48.1875 68.609375 48.1875 
Q 61.625 48.1875 57.5625 43.546875 
Q 53.515625 38.921875 53.515625 30.90625 
L 53.515625 0 
L 44.484375 0 
L 44.484375 32.71875 
Q 44.484375 40.625 41.703125 44.40625 
Q 38.921875 48.1875 33.109375 48.1875 
Q 26.21875 48.1875 22.15625 43.53125 
Q 18.109375 38.875 18.109375 30.90625 
L 18.109375 0 
L 9.078125 0 
L 9.078125 54.6875 
L 18.109375 54.6875 
L 18.109375 46.1875 
Q 21.1875 51.21875 25.484375 53.609375 
Q 29.78125 56 35.6875 56 
Q 41.65625 56 45.828125 52.96875 
Q 50 49.953125 52 44.1875 
z
" id="DejaVuSans-109"/>
       <path d="M 54.890625 33.015625 
L 54.890625 0 
L 45.90625 0 
L 45.90625 32.71875 
Q 45.90625 40.484375 42.875 44.328125 
Q 39.84375 48.1875 33.796875 48.1875 
Q 26.515625 48.1875 22.3125 43.546875 
Q 18.109375 38.921875 18.109375 30.90625 
L 18.109375 0 
L 9.078125 0 
L 9.078125 54.6875 
L 18.109375 54.6875 
L 18.109375 46.1875 
Q 21.34375 51.125 25.703125 53.5625 
Q 30.078125 56 35.796875 56 
Q 45.21875 56 50.046875 50.171875 
Q 54.890625 44.34375 54.890625 33.015625 
z
" id="DejaVuSans-110"/>
      </defs>
      <use xlink:href="#DejaVuSans-108"/>
      <use x="27.783203" xlink:href="#DejaVuSans-111"/>
      <use x="88.964844" xlink:href="#DejaVuSans-103"/>
      <use x="152.441406" xlink:href="#DejaVuSans-49"/>
      <use x="216.064453" xlink:href="#DejaVuSans-48"/>
      <use x="279.6875" xlink:href="#DejaVuSans-40"/>
      <use x="318.701172" xlink:href="#DejaVuSans-35"/>
      <use x="402.490234" xlink:href="#DejaVuSans-32"/>
      <use x="434.277344" xlink:href="#DejaVuSans-40"/>
      <use x="473.291016" xlink:href="#DejaVuSans-102"/>
      <use x="508.496094" xlink:href="#DejaVuSans-43"/>
      <use x="592.285156" xlink:href="#DejaVuSans-103"/>
      <use x="655.761719" xlink:href="#DejaVuSans-41"/>
      <use x="694.775391" xlink:href="#DejaVuSans-45"/>
      <use x="730.859375" xlink:href="#DejaVuSans-101"/>
      <use x="792.382812" xlink:href="#DejaVuSans-118"/>
      <use x="851.5625" xlink:href="#DejaVuSans-97"/>
      <use x="912.841797" xlink:href="#DejaVuSans-108"/>
      <use x="940.625" xlink:href="#DejaVuSans-115"/>
      <use x="992.724609" xlink:href="#DejaVuSans-32"/>
      <use x="1024.511719" xlink:href="#DejaVuSans-47"/>
      <use x="1058.203125" xlink:href="#DejaVuSans-32"/>
      <use x="1089.990234" xlink:href="#DejaVuSans-100"/>
      <use x="1153.466797" xlink:href="#DejaVuSans-105"/>
      <use x="1181.25" xlink:href="#DejaVuSans-109"/>
      <use x="1278.662109" xlink:href="#DejaVuSans-101"/>
      <use x="1340.185547" xlink:href="#DejaVuSans-110"/>
      <use x="1403.564453" xlink:href="#DejaVuSans-115"/>
      <use x="1455.664062" xlink:href="#DejaVuSans-105"/>
      <use x="1483.447266" xlink:href="#DejaVuSans-111"/>
      <use x="1544.628906" xlink:href="#DejaVuSans-110"/>
      <use x="1608.007812" xlink:href="#DejaVuSans-41"/>
     </g>
    </g>
   </g>
   <g id="matplotlib.axis_2">
    <g id="ytick_1">
     <g id="line2d_17">
      <path clip-path="url(#p46dd5a2ea5)" d="M 57.6 298.944 
L 338.688 298.944 
" style="fill:none;stroke:#b0b0b0;stroke-linecap:square;stroke-width:0.8;"/>
     </g>
     <g id="line2d_18">
      <defs>
       <path d="M 0 0 
L -3.5 0 
" id="m39ffaaa459" style="stroke:#000000;stroke-width:0.8;"/>
      </defs>
      <g>
       <use style="stroke:#000000;stroke-width:0.8;" x="57.6" xlink:href="#m39ffaaa459" y="298.944"/>
      </g>
     </g>
     <g id="text_6">
      <!-- 0.0 -->
      <g transform="translate(25.155 305.02275)scale(0.16 -0.16)">
       <defs>
        <path d="M 10.6875 12.40625 
L 21 12.40625 
L 21 0 
L 10.6875 0 
z
" id="DejaVuSans-46"/>
       </defs>
       <use xlink:href="#DejaVuSans-48"/>
       <use x="63.623047" xlink:href="#DejaVuSans-46"/>
       <use x="95.410156" xlink:href="#DejaVuSans-48"/>
      </g>
     </g>
    </g>
    <g id="ytick_2">
     <g id="line2d_19">
      <path clip-path="url(#p46dd5a2ea5)" d="M 57.6 245.22202 
L 338.688 245.22202 
" style="fill:none;stroke:#b0b0b0;stroke-linecap:square;stroke-width:0.8;"/>
     </g>
     <g id="line2d_20">
      <g>
       <use style="stroke:#000000;stroke-width:0.8;" x="57.6" xlink:href="#m39ffaaa459" y="245.22202"/>
      </g>
     </g>
     <g id="text_7">
      <!-- 0.2 -->
      <g transform="translate(25.155 251.30077)scale(0.16 -0.16)">
       <use xlink:href="#DejaVuSans-48"/>
       <use x="63.623047" xlink:href="#DejaVuSans-46"/>
       <use x="95.410156" xlink:href="#DejaVuSans-50"/>
      </g>
     </g>
    </g>
    <g id="ytick_3">
     <g id="line2d_21">
      <path clip-path="url(#p46dd5a2ea5)" d="M 57.6 191.50004 
L 338.688 191.50004 
" style="fill:none;stroke:#b0b0b0;stroke-linecap:square;stroke-width:0.8;"/>
     </g>
     <g id="line2d_22">
      <g>
       <use style="stroke:#000000;stroke-width:0.8;" x="57.6" xlink:href="#m39ffaaa459" y="191.50004"/>
      </g>
     </g>
     <g id="text_8">
      <!-- 0.4 -->
      <g transform="translate(25.155 197.57879)scale(0.16 -0.16)">
       <use xlink:href="#DejaVuSans-48"/>
       <use x="63.623047" xlink:href="#DejaVuSans-46"/>
       <use x="95.410156" xlink:href="#DejaVuSans-52"/>
      </g>
     </g>
    </g>
    <g id="ytick_4">
     <g id="line2d_23">
      <path clip-path="url(#p46dd5a2ea5)" d="M 57.6 137.778059 
L 338.688 137.778059 
" style="fill:none;stroke:#b0b0b0;stroke-linecap:square;stroke-width:0.8;"/>
     </g>
     <g id="line2d_24">
      <g>
       <use style="stroke:#000000;stroke-width:0.8;" x="57.6" xlink:href="#m39ffaaa459" y="137.778059"/>
      </g>
     </g>
     <g id="text_9">
      <!-- 0.6 -->
      <g transform="translate(25.155 143.856809)scale(0.16 -0.16)">
       <use xlink:href="#DejaVuSans-48"/>
       <use x="63.623047" xlink:href="#DejaVuSans-46"/>
       <use x="95.410156" xlink:href="#DejaVuSans-54"/>
      </g>
     </g>
    </g>
    <g id="ytick_5">
     <g id="line2d_25">
      <path clip-path="url(#p46dd5a2ea5)" d="M 57.6 84.056079 
L 338.688 84.056079 
" style="fill:none;stroke:#b0b0b0;stroke-linecap:square;stroke-width:0.8;"/>
     </g>
     <g id="line2d_26">
      <g>
       <use style="stroke:#000000;stroke-width:0.8;" x="57.6" xlink:href="#m39ffaaa459" y="84.056079"/>
      </g>
     </g>
     <g id="text_10">
      <!-- 0.8 -->
      <g transform="translate(25.155 90.134829)scale(0.16 -0.16)">
       <defs>
        <path d="M 31.78125 34.625 
Q 24.75 34.625 20.71875 30.859375 
Q 16.703125 27.09375 16.703125 20.515625 
Q 16.703125 13.921875 20.71875 10.15625 
Q 24.75 6.390625 31.78125 6.390625 
Q 38.8125 6.390625 42.859375 10.171875 
Q 46.921875 13.96875 46.921875 20.515625 
Q 46.921875 27.09375 42.890625 30.859375 
Q 38.875 34.625 31.78125 34.625 
z
M 21.921875 38.8125 
Q 15.578125 40.375 12.03125 44.71875 
Q 8.5 49.078125 8.5 55.328125 
Q 8.5 64.0625 14.71875 69.140625 
Q 20.953125 74.21875 31.78125 74.21875 
Q 42.671875 74.21875 48.875 69.140625 
Q 55.078125 64.0625 55.078125 55.328125 
Q 55.078125 49.078125 51.53125 44.71875 
Q 48 40.375 41.703125 38.8125 
Q 48.828125 37.15625 52.796875 32.3125 
Q 56.78125 27.484375 56.78125 20.515625 
Q 56.78125 9.90625 50.3125 4.234375 
Q 43.84375 -1.421875 31.78125 -1.421875 
Q 19.734375 -1.421875 13.25 4.234375 
Q 6.78125 9.90625 6.78125 20.515625 
Q 6.78125 27.484375 10.78125 32.3125 
Q 14.796875 37.15625 21.921875 38.8125 
z
M 18.3125 54.390625 
Q 18.3125 48.734375 21.84375 45.5625 
Q 25.390625 42.390625 31.78125 42.390625 
Q 38.140625 42.390625 41.71875 45.5625 
Q 45.3125 48.734375 45.3125 54.390625 
Q 45.3125 60.0625 41.71875 63.234375 
Q 38.140625 66.40625 31.78125 66.40625 
Q 25.390625 66.40625 21.84375 63.234375 
Q 18.3125 60.0625 18.3125 54.390625 
z
" id="DejaVuSans-56"/>
       </defs>
       <use xlink:href="#DejaVuSans-48"/>
       <use x="63.623047" xlink:href="#DejaVuSans-46"/>
       <use x="95.410156" xlink:href="#DejaVuSans-56"/>
      </g>
     </g>
    </g>
    <g id="ytick_6">
     <g id="line2d_27">
      <path clip-path="url(#p46dd5a2ea5)" d="M 57.6 30.334099 
L 338.688 30.334099 
" style="fill:none;stroke:#b0b0b0;stroke-linecap:square;stroke-width:0.8;"/>
     </g>
     <g id="line2d_28">
      <g>
       <use style="stroke:#000000;stroke-width:0.8;" x="57.6" xlink:href="#m39ffaaa459" y="30.334099"/>
      </g>
     </g>
     <g id="text_11">
      <!-- 1.0 -->
      <g transform="translate(25.155 36.412849)scale(0.16 -0.16)">
       <use xlink:href="#DejaVuSans-49"/>
       <use x="63.623047" xlink:href="#DejaVuSans-46"/>
       <use x="95.410156" xlink:href="#DejaVuSans-48"/>
      </g>
     </g>
    </g>
    <g id="text_12">
     <!-- Fraction of function,target pairs -->
     <g transform="translate(17.619531 297.681)rotate(-90)scale(0.17 -0.17)">
      <defs>
       <path d="M 9.8125 72.90625 
L 51.703125 72.90625 
L 51.703125 64.59375 
L 19.671875 64.59375 
L 19.671875 43.109375 
L 48.578125 43.109375 
L 48.578125 34.8125 
L 19.671875 34.8125 
L 19.671875 0 
L 9.8125 0 
z
" id="DejaVuSans-70"/>
       <path d="M 41.109375 46.296875 
Q 39.59375 47.171875 37.8125 47.578125 
Q 36.03125 48 33.890625 48 
Q 26.265625 48 22.1875 43.046875 
Q 18.109375 38.09375 18.109375 28.8125 
L 18.109375 0 
L 9.078125 0 
L 9.078125 54.6875 
L 18.109375 54.6875 
L 18.109375 46.1875 
Q 20.953125 51.171875 25.484375 53.578125 
Q 30.03125 56 36.53125 56 
Q 37.453125 56 38.578125 55.875 
Q 39.703125 55.765625 41.0625 55.515625 
z
" id="DejaVuSans-114"/>
       <path d="M 48.78125 52.59375 
L 48.78125 44.1875 
Q 44.96875 46.296875 41.140625 47.34375 
Q 37.3125 48.390625 33.40625 48.390625 
Q 24.65625 48.390625 19.8125 42.84375 
Q 14.984375 37.3125 14.984375 27.296875 
Q 14.984375 17.28125 19.8125 11.734375 
Q 24.65625 6.203125 33.40625 6.203125 
Q 37.3125 6.203125 41.140625 7.25 
Q 44.96875 8.296875 48.78125 10.40625 
L 48.78125 2.09375 
Q 45.015625 0.34375 40.984375 -0.53125 
Q 36.96875 -1.421875 32.421875 -1.421875 
Q 20.0625 -1.421875 12.78125 6.34375 
Q 5.515625 14.109375 5.515625 27.296875 
Q 5.515625 40.671875 12.859375 48.328125 
Q 20.21875 56 33.015625 56 
Q 37.15625 56 41.109375 55.140625 
Q 45.0625 54.296875 48.78125 52.59375 
z
" id="DejaVuSans-99"/>
       <path d="M 18.3125 70.21875 
L 18.3125 54.6875 
L 36.8125 54.6875 
L 36.8125 47.703125 
L 18.3125 47.703125 
L 18.3125 18.015625 
Q 18.3125 11.328125 20.140625 9.421875 
Q 21.96875 7.515625 27.59375 7.515625 
L 36.8125 7.515625 
L 36.8125 0 
L 27.59375 0 
Q 17.1875 0 13.234375 3.875 
Q 9.28125 7.765625 9.28125 18.015625 
L 9.28125 47.703125 
L 2.6875 47.703125 
L 2.6875 54.6875 
L 9.28125 54.6875 
L 9.28125 70.21875 
z
" id="DejaVuSans-116"/>
       <path d="M 8.5 21.578125 
L 8.5 54.6875 
L 17.484375 54.6875 
L 17.484375 21.921875 
Q 17.484375 14.15625 20.5 10.265625 
Q 23.53125 6.390625 29.59375 6.390625 
Q 36.859375 6.390625 41.078125 11.03125 
Q 45.3125 15.671875 45.3125 23.6875 
L 45.3125 54.6875 
L 54.296875 54.6875 
L 54.296875 0 
L 45.3125 0 
L 45.3125 8.40625 
Q 42.046875 3.421875 37.71875 1 
Q 33.40625 -1.421875 27.6875 -1.421875 
Q 18.265625 -1.421875 13.375 4.4375 
Q 8.5 10.296875 8.5 21.578125 
z
M 31.109375 56 
z
" id="DejaVuSans-117"/>
       <path d="M 11.71875 12.40625 
L 22.015625 12.40625 
L 22.015625 4 
L 14.015625 -11.625 
L 7.71875 -11.625 
L 11.71875 4 
z
" id="DejaVuSans-44"/>
       <path d="M 18.109375 8.203125 
L 18.109375 -20.796875 
L 9.078125 -20.796875 
L 9.078125 54.6875 
L 18.109375 54.6875 
L 18.109375 46.390625 
Q 20.953125 51.265625 25.265625 53.625 
Q 29.59375 56 35.59375 56 
Q 45.5625 56 51.78125 48.09375 
Q 58.015625 40.1875 58.015625 27.296875 
Q 58.015625 14.40625 51.78125 6.484375 
Q 45.5625 -1.421875 35.59375 -1.421875 
Q 29.59375 -1.421875 25.265625 0.953125 
Q 20.953125 3.328125 18.109375 8.203125 
z
M 48.6875 27.296875 
Q 48.6875 37.203125 44.609375 42.84375 
Q 40.53125 48.484375 33.40625 48.484375 
Q 26.265625 48.484375 22.1875 42.84375 
Q 18.109375 37.203125 18.109375 27.296875 
Q 18.109375 17.390625 22.1875 11.75 
Q 26.265625 6.109375 33.40625 6.109375 
Q 40.53125 6.109375 44.609375 11.75 
Q 48.6875 17.390625 48.6875 27.296875 
z
" id="DejaVuSans-112"/>
      </defs>
      <use xlink:href="#DejaVuSans-70"/>
      <use x="50.269531" xlink:href="#DejaVuSans-114"/>
      <use x="91.382812" xlink:href="#DejaVuSans-97"/>
      <use x="152.662109" xlink:href="#DejaVuSans-99"/>
      <use x="207.642578" xlink:href="#DejaVuSans-116"/>
      <use x="246.851562" xlink:href="#DejaVuSans-105"/>
      <use x="274.634766" xlink:href="#DejaVuSans-111"/>
      <use x="335.816406" xlink:href="#DejaVuSans-110"/>
      <use x="399.195312" xlink:href="#DejaVuSans-32"/>
      <use x="430.982422" xlink:href="#DejaVuSans-111"/>
      <use x="492.164062" xlink:href="#DejaVuSans-102"/>
      <use x="527.369141" xlink:href="#DejaVuSans-32"/>
      <use x="559.15625" xlink:href="#DejaVuSans-102"/>
      <use x="594.361328" xlink:href="#DejaVuSans-117"/>
      <use x="657.740234" xlink:href="#DejaVuSans-110"/>
      <use x="721.119141" xlink:href="#DejaVuSans-99"/>
      <use x="776.099609" xlink:href="#DejaVuSans-116"/>
      <use x="815.308594" xlink:href="#DejaVuSans-105"/>
      <use x="843.091797" xlink:href="#DejaVuSans-111"/>
      <use x="904.273438" xlink:href="#DejaVuSans-110"/>
      <use x="967.652344" xlink:href="#DejaVuSans-44"/>
      <use x="999.439453" xlink:href="#DejaVuSans-116"/>
      <use x="1038.648438" xlink:href="#DejaVuSans-97"/>
      <use x="1099.927734" xlink:href="#DejaVuSans-114"/>
      <use x="1139.291016" xlink:href="#DejaVuSans-103"/>
      <use x="1202.767578" xlink:href="#DejaVuSans-101"/>
      <use x="1264.291016" xlink:href="#DejaVuSans-116"/>
      <use x="1303.5" xlink:href="#DejaVuSans-32"/>
      <use x="1335.287109" xlink:href="#DejaVuSans-112"/>
      <use x="1398.763672" xlink:href="#DejaVuSans-97"/>
      <use x="1460.042969" xlink:href="#DejaVuSans-105"/>
      <use x="1487.826172" xlink:href="#DejaVuSans-114"/>
      <use x="1528.939453" xlink:href="#DejaVuSans-115"/>
     </g>
    </g>
   </g>
   <g id="line2d_29">
    <defs>
     <path d="M 0 1.5 
C 0.397805 1.5 0.77937 1.341951 1.06066 1.06066 
C 1.341951 0.77937 1.5 0.397805 1.5 0 
C 1.5 -0.397805 1.341951 -0.77937 1.06066 -1.06066 
C 0.77937 -1.341951 0.397805 -1.5 0 -1.5 
C -0.397805 -1.5 -0.77937 -1.341951 -1.06066 -1.06066 
C -1.341951 -0.77937 -1.5 -0.397805 -1.5 0 
C -1.5 0.397805 -1.341951 0.77937 -1.06066 1.06066 
C -0.77937 1.341951 -0.397805 1.5 0 1.5 
z
" id="mc2f3ee14aa" style="stroke:#000080;"/>
    </defs>
    <g>
     <use style="fill:#000080;stroke:#000080;" x="255.258795" xlink:href="#mc2f3ee14aa" y="36.88556"/>
     <use style="fill:#000080;stroke:#000080;" x="255.258795" xlink:href="#mc2f3ee14aa" y="36.88556"/>
    </g>
   </g>
   <g id="line2d_30">
    <path d="M 80.258561 298.944 
L 80.258561 297.633708 
L 83.171864 297.633708 
L 83.171864 287.806516 
L 85.66744 287.806516 
L 85.66744 283.87564 
L 87.850195 283.87564 
L 87.850195 282.565348 
L 89.78989 282.565348 
L 89.78989 277.979325 
L 91.535274 277.979325 
L 91.535274 266.841841 
L 93.121756 266.841841 
L 93.121756 258.980088 
L 94.575872 258.980088 
L 94.575872 255.704357 
L 95.918017 255.704357 
L 95.918017 252.428627 
L 97.16421 252.428627 
L 97.16421 247.842604 
L 98.32726 247.842604 
L 98.32726 245.877166 
L 99.41757 245.877166 
L 99.41757 241.946289 
L 100.443706 241.946289 
L 100.443706 238.670559 
L 101.412804 238.670559 
L 101.412804 234.084536 
L 102.330873 234.084536 
L 102.330873 228.843367 
L 103.203018 228.843367 
L 103.203018 226.222783 
L 104.033617 226.222783 
L 104.033617 224.912491 
L 105.584798 224.912491 
L 105.584798 220.981614 
L 106.311539 220.981614 
L 106.311539 220.326468 
L 107.009204 220.326468 
L 107.009204 219.671322 
L 107.680028 219.671322 
L 107.680028 219.016176 
L 108.326001 219.016176 
L 108.326001 216.395591 
L 108.948899 216.395591 
L 108.948899 212.464715 
L 109.550313 212.464715 
L 109.550313 209.84413 
L 110.131676 209.84413 
L 110.131676 205.258108 
L 110.694282 205.258108 
L 110.694282 204.602962 
L 111.239304 204.602962 
L 111.239304 201.327231 
L 111.767808 201.327231 
L 111.767808 196.741208 
L 112.280765 196.741208 
L 112.280765 194.120624 
L 113.26352 194.120624 
L 113.26352 188.879455 
L 113.73488 188.879455 
L 113.73488 184.948579 
L 114.193835 184.948579 
L 114.193835 181.017702 
L 115.077025 181.017702 
L 115.077025 163.983903 
L 115.502395 163.983903 
L 115.502395 162.673611 
L 115.917635 162.673611 
L 115.917635 162.018465 
L 116.323218 162.018465 
L 116.323218 159.397881 
L 116.719583 159.397881 
L 116.719583 158.742735 
L 117.107138 158.742735 
L 117.107138 156.12215 
L 117.486268 156.12215 
L 117.486268 154.811858 
L 117.857331 154.811858 
L 117.857331 154.156712 
L 118.220662 154.156712 
L 118.220662 153.501566 
L 118.925375 153.501566 
L 118.925375 152.84642 
L 119.602714 152.84642 
L 119.602714 152.191274 
L 120.254726 152.191274 
L 120.254726 150.880981 
L 120.571812 150.880981 
L 120.571812 149.570689 
L 121.189196 149.570689 
L 121.189196 148.915543 
L 121.489881 148.915543 
L 121.489881 148.260397 
L 121.785469 148.260397 
L 121.785469 146.294959 
L 122.362027 146.294959 
L 122.362027 145.639813 
L 122.920132 145.639813 
L 122.920132 144.984667 
L 124.494669 144.984667 
L 124.494669 143.019228 
L 129.667765 143.019228 
L 129.667765 142.364082 
L 136.137916 142.364082 
L 136.137916 141.708936 
L 136.519813 141.708936 
L 136.519813 141.05379 
L 136.769843 141.05379 
L 136.769843 140.398644 
L 137.259399 140.398644 
L 137.259399 139.743498 
L 139.835248 139.743498 
L 139.939053 137.778059 
L 141.33096 137.778059 
L 141.33096 137.122913 
L 141.615302 137.122913 
L 141.615302 134.502329 
L 142.441528 134.502329 
L 142.441528 133.847183 
L 146.216039 133.847183 
L 146.216039 133.192037 
L 146.714338 133.192037 
L 146.714338 132.536891 
L 147.402367 132.536891 
L 147.402367 131.881745 
L 149.735275 131.881745 
L 149.735275 131.226598 
L 152.309362 131.226598 
L 152.309362 130.571452 
L 155.762564 130.571452 
L 155.762564 129.916306 
L 156.134506 129.916306 
L 156.134506 129.26116 
L 156.297301 129.26116 
L 156.297301 128.606014 
L 156.45859 128.606014 
L 156.538679 127.295722 
L 157.166482 127.295722 
L 157.166482 126.640576 
L 158.086033 126.640576 
L 158.086033 125.98543 
L 158.625992 125.98543 
L 158.625992 125.330284 
L 159.028927 125.330284 
L 159.028927 123.364845 
L 165.518877 123.364845 
L 165.518877 121.399407 
L 165.685193 121.399407 
L 165.685193 120.744261 
L 165.920069 120.744261 
L 165.920069 120.089115 
L 167.158215 120.089115 
L 167.158215 116.813384 
L 168.354881 116.813384 
L 168.354881 116.158238 
L 171.721118 116.158238 
L 171.8212 112.227362 
L 171.904165 112.227362 
L 171.904165 110.917069 
L 172.13439 110.917069 
L 172.13439 110.261923 
L 172.83878 110.261923 
L 172.83878 109.606777 
L 173.55351 109.606777 
L 173.628647 107.641339 
L 173.777957 107.641339 
L 173.866933 106.331047 
L 174.123884 106.331047 
L 174.123884 105.675901 
L 175.537141 105.675901 
L 175.537141 105.020754 
L 176.806955 105.020754 
L 176.806955 104.365608 
L 177.908622 104.365608 
L 177.908622 103.710462 
L 182.547572 103.710462 
L 182.547572 103.055316 
L 183.411492 103.055316 
L 183.488336 101.745024 
L 184.570125 101.745024 
L 184.570125 100.434732 
L 185.32234 100.434732 
L 185.32234 99.779586 
L 186.411139 99.779586 
L 186.511716 97.814147 
L 186.526037 97.814147 
L 186.611716 94.538417 
L 186.661502 94.538417 
L 186.661502 93.883271 
L 187.507125 93.883271 
L 187.507125 93.228125 
L 190.433955 93.228125 
L 190.433955 90.60754 
L 190.787877 90.60754 
L 190.787877 89.952394 
L 191.501801 89.952394 
L 191.501801 89.297248 
L 192.375456 89.297248 
L 192.406137 84.711225 
L 193.360454 84.711225 
L 193.428039 83.400933 
L 194.504692 83.400933 
L 194.595051 82.090641 
L 195.142881 82.090641 
L 195.142881 81.435495 
L 195.413699 81.435495 
L 195.413699 80.780349 
L 195.934693 80.780349 
L 195.934693 80.125203 
L 196.565788 80.125203 
L 196.565788 79.470057 
L 197.0226 79.470057 
L 197.0226 78.81491 
L 197.184555 78.81491 
L 197.215603 76.194326 
L 197.712537 76.194326 
L 197.712537 75.53918 
L 198.248773 75.53918 
L 198.248773 74.884034 
L 198.811524 74.884034 
L 198.830974 73.573742 
L 200.567183 73.573742 
L 200.567183 72.918596 
L 202.207349 72.918596 
L 202.207349 72.263449 
L 203.674332 72.263449 
L 203.674332 71.608303 
L 203.995326 71.608303 
L 203.995326 70.298011 
L 204.741423 70.298011 
L 204.741423 69.642865 
L 204.914339 69.642865 
L 205.022476 68.332573 
L 205.751721 68.332573 
L 205.751721 67.677427 
L 206.804287 67.677427 
L 206.804287 67.022281 
L 207.289723 67.022281 
L 207.289723 66.367135 
L 208.733085 66.367135 
L 208.733085 65.711988 
L 209.458969 65.711988 
L 209.458969 65.056842 
L 209.773181 65.056842 
L 209.773181 64.401696 
L 209.97116 64.401696 
L 209.97116 63.74655 
L 211.335441 63.74655 
L 211.335441 63.091404 
L 211.659405 63.091404 
L 211.659405 62.436258 
L 212.438661 62.436258 
L 212.438661 61.781112 
L 214.577723 61.781112 
L 214.577723 61.125966 
L 215.029597 61.125966 
L 215.029597 60.47082 
L 215.862436 60.47082 
L 215.862436 59.815674 
L 216.445555 59.815674 
L 216.445555 59.160527 
L 217.780786 59.160527 
L 217.780786 58.505381 
L 218.68916 58.505381 
L 218.68916 57.850235 
L 218.914078 57.850235 
L 218.914078 57.195089 
L 219.313944 57.195089 
L 219.349944 55.884797 
L 219.908675 55.884797 
L 219.908675 55.229651 
L 221.143601 55.229651 
L 221.143601 54.574505 
L 221.757535 54.574505 
L 221.757535 53.919359 
L 222.91259 53.919359 
L 222.966257 52.609066 
L 226.94254 52.609066 
L 226.94254 51.95392 
L 227.067601 51.95392 
L 227.067601 51.298774 
L 227.952753 51.298774 
L 227.952753 50.643628 
L 229.280043 50.643628 
L 229.280043 49.988482 
L 231.457266 49.988482 
L 231.457266 49.333336 
L 232.027244 49.333336 
L 232.027244 48.67819 
L 232.354709 48.67819 
L 232.354709 48.023044 
L 232.62531 48.023044 
L 232.62531 47.367898 
L 233.179891 47.367898 
L 233.179891 46.712752 
L 233.729089 46.712752 
L 233.729089 46.057605 
L 234.554486 46.057605 
L 234.554486 45.402459 
L 234.989248 45.402459 
L 234.989248 44.747313 
L 235.237722 44.747313 
L 235.237722 44.092167 
L 236.928662 44.092167 
L 237.004857 42.781875 
L 237.134848 42.781875 
L 237.134848 42.126729 
L 239.055542 42.126729 
L 239.055542 41.471583 
L 240.109478 41.471583 
L 240.109478 40.816437 
L 240.2808 40.816437 
L 240.2808 40.161291 
L 244.135239 40.161291 
L 244.135239 39.506144 
L 246.328407 39.506144 
L 246.328407 38.850998 
L 249.713365 38.850998 
L 249.713365 38.195852 
L 252.95859 38.195852 
L 252.95859 37.540706 
L 255.258795 37.540706 
L 255.258795 36.88556 
L 338.688 36.88556 
L 338.688 36.88556 
" style="fill:none;stroke:#000080;stroke-linecap:square;stroke-width:1.5;"/>
   </g>
   <g id="line2d_31">
    <defs>
     <path d="M 0 6 
C 1.591219 6 3.117479 5.367802 4.242641 4.242641 
C 5.367802 3.117479 6 1.591219 6 0 
C 6 -1.591219 5.367802 -3.117479 4.242641 -4.242641 
C 3.117479 -5.367802 1.591219 -6 0 -6 
C -1.591219 -6 -3.117479 -5.367802 -4.242641 -4.242641 
C -5.367802 -3.117479 -6 -1.591219 -6 0 
C -6 1.591219 -5.367802 3.117479 -4.242641 4.242641 
C -3.117479 5.367802 -1.591219 6 0 6 
z
" id="m45da03d30d" style="stroke:#000080;stroke-width:1.5;"/>
    </defs>
    <g>
     <use style="fill-opacity:0;stroke:#000080;stroke-width:1.5;" x="114.193835" xlink:href="#m45da03d30d" y="181.017702"/>
     <use style="fill-opacity:0;stroke:#000080;stroke-width:1.5;" x="193.428039" xlink:href="#m45da03d30d" y="83.400933"/>
     <use style="fill-opacity:0;stroke:#000080;stroke-width:1.5;" x="255.258795" xlink:href="#m45da03d30d" y="36.88556"/>
     <use style="fill-opacity:0;stroke:#000080;stroke-width:1.5;" x="255.258795" xlink:href="#m45da03d30d" y="36.88556"/>
     <use style="fill-opacity:0;stroke:#000080;stroke-width:1.5;" x="338.688" xlink:href="#m45da03d30d" y="36.88556"/>
    </g>
   </g>
   <g id="line2d_32">
    <path style="fill:none;stroke:#000080;stroke-linecap:square;stroke-width:1.5;"/>
    <g/>
   </g>
   <g id="line2d_33">
    <path clip-path="url(#p46dd5a2ea5)" d="M 187.601592 93.228125 
" style="fill:none;stroke:#000080;stroke-linecap:square;stroke-width:1.5;"/>
    <defs>
     <path d="M -12 12 
L 12 -12 
M -12 -12 
L 12 12 
" id="m1ee37a4ce6" style="stroke:#000080;"/>
    </defs>
    <g clip-path="url(#p46dd5a2ea5)">
     <use style="fill:#000080;stroke:#000080;" x="187.601592" xlink:href="#m1ee37a4ce6" y="93.228125"/>
    </g>
   </g>
   <g id="line2d_34">
    <defs>
     <path d="M 0 1.5 
C 0.397805 1.5 0.77937 1.341951 1.06066 1.06066 
C 1.341951 0.77937 1.5 0.397805 1.5 0 
C 1.5 -0.397805 1.341951 -0.77937 1.06066 -1.06066 
C 0.77937 -1.341951 0.397805 -1.5 0 -1.5 
C -0.397805 -1.5 -0.77937 -1.341951 -1.06066 -1.06066 
C -1.341951 -0.77937 -1.5 -0.397805 -1.5 0 
C -1.5 0.397805 -1.341951 0.77937 -1.06066 1.06066 
C -0.77937 1.341951 -0.397805 1.5 0 1.5 
z
" id="mc79a5a518c" style="stroke:#ff00ff;"/>
    </defs>
    <g>
     <use style="fill:#ff00ff;stroke:#ff00ff;" x="176.447109" xlink:href="#mc79a5a518c" y="30.334099"/>
     <use style="fill:#ff00ff;stroke:#ff00ff;" x="176.447109" xlink:href="#mc79a5a518c" y="30.334099"/>
    </g>
   </g>
   <g id="line2d_35">
    <path d="M 99.938184 298.944 
L 99.938184 298.288854 
L 106.66386 298.288854 
L 106.66386 296.978562 
L 107.347841 296.978562 
L 107.347841 296.323416 
L 108.006005 296.323416 
L 108.006005 293.702831 
L 110.968922 293.702831 
L 110.968922 293.047685 
L 114.860386 293.047685 
L 114.860386 291.082247 
L 116.121606 291.082247 
L 116.121606 290.427101 
L 118.399528 290.427101 
L 118.399528 289.116809 
L 119.097192 289.116809 
L 119.097192 283.220494 
L 119.768017 283.220494 
L 119.768017 280.599909 
L 121.036887 280.599909 
L 121.036887 279.944763 
L 122.219665 279.944763 
L 122.219665 279.289617 
L 123.593547 279.289617 
L 123.593547 278.634471 
L 124.114161 278.634471 
L 124.114161 277.324179 
L 125.351508 277.324179 
L 125.351508 276.669033 
L 126.281824 276.669033 
L 126.281824 272.738156 
L 127.590383 272.738156 
L 127.590383 272.08301 
L 127.799239 272.08301 
L 127.799239 271.427864 
L 128.209594 271.427864 
L 128.209594 270.772718 
L 128.411207 270.772718 
L 128.411207 267.496987 
L 130.30865 267.496987 
L 130.30865 266.186695 
L 130.487516 266.186695 
L 130.487516 262.255818 
L 130.664567 262.255818 
L 130.664567 260.945526 
L 130.839837 260.945526 
L 130.839837 260.29038 
L 131.185181 260.29038 
L 131.185181 259.635234 
L 131.355321 259.635234 
L 131.355321 258.324942 
L 132.342714 258.324942 
L 132.342714 256.359504 
L 132.659801 256.359504 
L 132.659801 255.704357 
L 133.72629 255.704357 
L 133.72629 253.083773 
L 134.164119 253.083773 
L 134.164119 252.428627 
L 134.307653 252.428627 
L 134.307653 251.118335 
L 134.591225 251.118335 
L 134.591225 249.808043 
L 134.7313 249.808043 
L 134.7313 249.152896 
L 135.415281 249.152896 
L 135.415281 247.187458 
L 135.548916 247.187458 
L 135.548916 246.532312 
L 136.582658 246.532312 
L 136.582658 245.877166 
L 137.794206 245.877166 
L 137.794206 244.566874 
L 138.141844 244.566874 
L 138.141844 243.911728 
L 138.369812 243.911728 
L 138.369812 243.256582 
L 138.594838 243.256582 
L 138.594838 241.946289 
L 139.253002 241.946289 
L 139.253002 239.980851 
L 139.783113 239.980851 
L 139.783113 238.670559 
L 140.499195 238.670559 
L 140.499195 235.394828 
L 141.090414 235.394828 
L 141.090414 233.42939 
L 142.306513 233.42939 
L 142.306513 232.774244 
L 142.486301 232.774244 
L 142.486301 232.119098 
L 142.664255 232.119098 
L 142.752555 230.808806 
L 143.101352 230.808806 
L 143.101352 230.15366 
L 143.273169 230.15366 
L 143.273169 228.843367 
L 143.44331 228.843367 
L 143.44331 228.188221 
L 143.611807 228.188221 
L 143.611807 227.533075 
L 144.430703 227.533075 
L 144.430703 226.877929 
L 144.904196 226.877929 
L 144.904196 224.912491 
L 145.289185 224.912491 
L 145.289185 222.291906 
L 145.961446 222.291906 
L 145.961446 221.63676 
L 146.179895 221.63676 
L 146.179895 219.671322 
L 146.324022 219.671322 
L 146.395642 217.050738 
L 146.749392 217.050738 
L 146.749392 216.395591 
L 147.096109 216.395591 
L 147.096109 215.740445 
L 147.232888 215.740445 
L 147.232888 213.775007 
L 147.570215 213.775007 
L 147.570215 211.154423 
L 147.769524 211.154423 
L 147.835457 207.878692 
L 148.354135 207.878692 
L 148.354135 206.5684 
L 148.733265 206.5684 
L 148.79566 204.602962 
L 149.104327 204.602962 
L 149.104327 203.292669 
L 149.286939 203.292669 
L 149.347388 200.672085 
L 149.467659 200.672085 
L 149.467659 200.016939 
L 149.587107 200.016939 
L 149.587107 199.361793 
L 150.114722 199.361793 
L 150.114722 198.706647 
L 150.229833 198.706647 
L 150.229833 198.051501 
L 150.682827 198.051501 
L 150.738632 196.741208 
L 150.849711 196.741208 
L 150.849711 194.77577 
L 151.554972 194.77577 
L 151.554972 194.120624 
L 152.283884 194.120624 
L 152.334802 192.155186 
L 152.587184 192.155186 
L 152.587184 191.50004 
L 152.786492 191.50004 
L 152.786492 190.844894 
L 153.371104 190.844894 
L 153.418948 189.534601 
L 154.167129 189.534601 
L 154.167129 188.879455 
L 154.303908 188.879455 
L 154.394502 184.948579 
L 154.529516 184.948579 
L 154.529516 184.293433 
L 154.752243 184.293433 
L 154.752243 183.638286 
L 155.146121 183.638286 
L 155.146121 182.98314 
L 155.488919 182.98314 
L 155.488919 182.327994 
L 156.031982 182.327994 
L 156.031982 181.017702 
L 156.757045 181.017702 
L 156.796456 179.70741 
L 156.953214 179.70741 
L 156.953214 178.397118 
L 157.185742 178.397118 
L 157.185742 177.741972 
L 157.528821 177.741972 
L 157.528821 177.086825 
L 157.79107 177.086825 
L 157.86528 175.776533 
L 157.902267 175.776533 
L 157.976006 173.811095 
L 158.195371 173.811095 
L 158.195371 173.155949 
L 158.340096 173.155949 
L 158.447857 170.535364 
L 158.48363 170.535364 
L 158.554957 167.91478 
L 158.69674 167.91478 
L 158.69674 165.949342 
L 158.976895 165.949342 
L 159.046236 162.018465 
L 159.149734 162.018465 
L 159.149734 161.363319 
L 159.354904 161.363319 
L 159.354904 158.742735 
L 159.624763 158.742735 
L 159.624763 157.432442 
L 159.857512 157.432442 
L 159.956318 152.84642 
L 160.087195 152.84642 
L 160.087195 152.191274 
L 160.217098 152.191274 
L 160.313893 150.880981 
L 160.505887 150.880981 
L 160.505887 150.225835 
L 160.632719 150.225835 
L 160.69579 144.984667 
L 161.131018 144.984667 
L 161.131018 144.32952 
L 161.852746 144.32952 
L 161.911563 141.708936 
L 161.970183 141.708936 
L 161.970183 141.05379 
L 162.144868 141.05379 
L 162.144868 140.398644 
L 162.260361 140.398644 
L 162.260361 137.122913 
L 162.403659 137.122913 
L 162.432178 135.157475 
L 162.574077 135.157475 
L 162.574077 134.502329 
L 162.68677 134.502329 
L 162.770815 131.881745 
L 162.79874 131.881745 
L 162.79874 131.226598 
L 162.992975 131.226598 
L 162.992975 129.916306 
L 163.428979 129.916306 
L 163.428979 127.295722 
L 163.642961 127.295722 
L 163.642961 125.330284 
L 164.063205 125.330284 
L 164.089137 123.364845 
L 164.192481 123.364845 
L 164.192481 122.709699 
L 164.42279 122.709699 
L 164.524182 120.089115 
L 164.675172 120.089115 
L 164.775111 118.123676 
L 164.899235 118.123676 
L 164.997901 116.158238 
L 165.363008 116.158238 
L 165.363008 115.503092 
L 165.602233 115.503092 
L 165.697012 109.606777 
L 165.720627 109.606777 
L 165.814766 106.331047 
L 165.838222 106.331047 
L 165.93173 103.710462 
L 166.186323 103.710462 
L 166.232216 100.434732 
L 166.505065 100.434732 
L 166.505065 99.779586 
L 166.639906 99.779586 
L 166.729224 97.159001 
L 166.928532 97.159001 
L 166.950537 93.228125 
L 167.103803 93.228125 
L 167.103803 91.262686 
L 167.491837 91.262686 
L 167.513144 89.297248 
L 168.140524 89.297248 
L 168.140524 87.986956 
L 168.283721 87.986956 
L 168.283721 87.33181 
L 168.466121 87.33181 
L 168.506396 85.366371 
L 168.626667 85.366371 
L 168.726264 82.745787 
L 168.765944 82.745787 
L 168.765944 82.090641 
L 168.884444 82.090641 
L 168.923766 77.504618 
L 169.23519 77.504618 
L 169.23519 76.849472 
L 169.54115 76.849472 
L 169.560096 74.884034 
L 169.654516 74.884034 
L 169.654516 72.918596 
L 169.804532 72.918596 
L 169.860457 69.642865 
L 169.934746 69.642865 
L 170.045589 66.367135 
L 170.265184 66.367135 
L 170.337772 63.74655 
L 170.464079 63.74655 
L 170.464079 63.091404 
L 170.696249 63.091404 
L 170.784729 61.125966 
L 170.942869 61.125966 
L 170.977818 59.160527 
L 171.116915 59.160527 
L 171.116915 57.850235 
L 171.54458 57.850235 
L 171.612043 53.919359 
L 171.962007 53.919359 
L 171.962007 51.298774 
L 172.077118 51.298774 
L 172.109868 49.333336 
L 172.20775 49.333336 
L 172.288901 47.367898 
L 172.337411 47.367898 
L 172.434028 46.057605 
L 172.514135 46.057605 
L 172.546075 44.092167 
L 173.033809 44.092167 
L 173.09576 42.126729 
L 173.219006 42.126729 
L 173.219006 40.161291 
L 173.371849 40.161291 
L 173.371849 39.506144 
L 173.538444 39.506144 
L 173.538444 38.195852 
L 173.837325 38.195852 
L 173.940735 35.575268 
L 174.218366 35.575268 
L 174.276256 34.264976 
L 174.333954 34.264976 
L 174.348349 32.954683 
L 174.520166 32.954683 
L 174.520166 32.299537 
L 175.080963 32.299537 
L 175.080963 31.644391 
L 175.530419 31.644391 
L 175.530419 30.989245 
L 176.447109 30.989245 
L 176.447109 30.334099 
L 338.688 30.334099 
L 338.688 30.334099 
" style="fill:none;stroke:#ff00ff;stroke-linecap:square;stroke-width:1.5;"/>
   </g>
   <g id="line2d_36">
    <defs>
     <path d="M -0 8.485281 
L 5.091169 0 
L 0 -8.485281 
L -5.091169 -0 
z
" id="m8d92cad47c" style="stroke:#ff00ff;stroke-linejoin:miter;stroke-width:1.5;"/>
    </defs>
    <g>
     <use style="fill-opacity:0;stroke:#ff00ff;stroke-linejoin:miter;stroke-width:1.5;" x="149.286939" xlink:href="#m8d92cad47c" y="201.982377"/>
     <use style="fill-opacity:0;stroke:#ff00ff;stroke-linejoin:miter;stroke-width:1.5;" x="168.884444" xlink:href="#m8d92cad47c" y="79.470057"/>
     <use style="fill-opacity:0;stroke:#ff00ff;stroke-linejoin:miter;stroke-width:1.5;" x="176.447109" xlink:href="#m8d92cad47c" y="30.334099"/>
     <use style="fill-opacity:0;stroke:#ff00ff;stroke-linejoin:miter;stroke-width:1.5;" x="176.447109" xlink:href="#m8d92cad47c" y="30.334099"/>
     <use style="fill-opacity:0;stroke:#ff00ff;stroke-linejoin:miter;stroke-width:1.5;" x="338.688" xlink:href="#m8d92cad47c" y="30.334099"/>
    </g>
   </g>
   <g id="line2d_37">
    <path style="fill:none;stroke:#ff00ff;stroke-linecap:square;stroke-width:1.5;"/>
    <g/>
   </g>
   <g id="line2d_38">
    <defs>
     <path d="M 0 1.5 
C 0.397805 1.5 0.77937 1.341951 1.06066 1.06066 
C 1.341951 0.77937 1.5 0.397805 1.5 0 
C 1.5 -0.397805 1.341951 -0.77937 1.06066 -1.06066 
C 0.77937 -1.341951 0.397805 -1.5 0 -1.5 
C -0.397805 -1.5 -0.77937 -1.341951 -1.06066 -1.06066 
C -1.341951 -0.77937 -1.5 -0.397805 -1.5 0 
C -1.5 0.397805 -1.341951 0.77937 -1.06066 1.06066 
C -0.77937 1.341951 -0.397805 1.5 0 1.5 
z
" id="m02767c7265" style="stroke:#ff7500;"/>
    </defs>
    <g>
     <use style="fill:#ff7500;stroke:#ff7500;" x="326.836318" xlink:href="#m02767c7265" y="220.326468"/>
     <use style="fill:#ff7500;stroke:#ff7500;" x="326.836318" xlink:href="#m02767c7265" y="220.326468"/>
    </g>
   </g>
   <g id="line2d_39">
    <path d="M 204.083162 298.944 
L 204.17446 283.220494 
L 204.199159 283.220494 
L 204.305354 279.289617 
L 204.316971 279.289617 
L 204.413473 277.324179 
L 204.508169 277.324179 
L 204.508169 276.669033 
L 204.62265 276.669033 
L 204.664439 274.703594 
L 204.806781 274.703594 
L 204.806781 274.048448 
L 205.824061 274.048448 
L 205.824061 273.393302 
L 205.998338 273.393302 
L 206.090656 272.08301 
L 206.246137 272.08301 
L 206.246137 270.772718 
L 206.547325 270.772718 
L 206.63566 268.152133 
L 207.186051 268.152133 
L 207.186051 267.496987 
L 216.225987 267.496987 
L 216.225987 266.841841 
L 216.444268 266.841841 
L 216.444268 266.186695 
L 217.058344 266.186695 
L 217.152544 262.255818 
L 226.403701 262.255818 
L 226.403701 261.600672 
L 226.613336 261.600672 
L 226.613336 259.635234 
L 228.730665 259.635234 
L 228.730665 258.980088 
L 230.787333 258.980088 
L 230.787333 258.324942 
L 232.237737 258.324942 
L 232.237737 257.669796 
L 232.650997 257.669796 
L 232.650997 256.359504 
L 233.003211 256.359504 
L 233.003211 255.704357 
L 233.404765 255.704357 
L 233.50548 253.083773 
L 241.484959 253.083773 
L 241.484959 252.428627 
L 243.808329 252.428627 
L 243.808329 251.773481 
L 245.554829 251.773481 
L 245.554829 251.118335 
L 248.167257 251.118335 
L 248.250259 249.808043 
L 249.145925 249.808043 
L 249.145925 249.152896 
L 250.98385 249.152896 
L 250.98385 248.49775 
L 253.441368 248.49775 
L 253.441368 247.842604 
L 253.576929 247.842604 
L 253.576929 247.187458 
L 255.284426 247.187458 
L 255.284426 246.532312 
L 256.59094 246.532312 
L 256.59094 245.877166 
L 256.945381 245.877166 
L 256.945381 245.22202 
L 257.754626 245.22202 
L 257.754626 244.566874 
L 260.400474 244.566874 
L 260.400474 243.911728 
L 260.859572 243.911728 
L 260.859572 242.601435 
L 263.530216 242.601435 
L 263.530216 241.946289 
L 264.685075 241.946289 
L 264.685075 241.291143 
L 270.099756 241.291143 
L 270.099756 240.635997 
L 270.377599 240.635997 
L 270.377599 239.980851 
L 270.943525 239.980851 
L 270.943525 239.325705 
L 271.544853 239.325705 
L 271.544853 238.670559 
L 274.681683 238.670559 
L 274.681683 238.015413 
L 275.246834 238.015413 
L 275.246834 237.360267 
L 281.6427 237.360267 
L 281.6427 236.705121 
L 282.068735 236.705121 
L 282.068735 236.049974 
L 284.165488 236.049974 
L 284.165488 235.394828 
L 285.23275 235.394828 
L 285.23275 234.739682 
L 286.532372 234.739682 
L 286.532372 234.084536 
L 289.065024 234.084536 
L 289.065024 233.42939 
L 289.838923 233.42939 
L 289.838923 232.774244 
L 291.297005 232.774244 
L 291.297005 232.119098 
L 291.43987 232.119098 
L 291.43987 231.463952 
L 292.011525 231.463952 
L 292.011525 230.808806 
L 292.68364 230.808806 
L 292.68364 230.15366 
L 293.763012 230.15366 
L 293.763012 229.498513 
L 298.165089 229.498513 
L 298.165089 228.843367 
L 300.035896 228.843367 
L 300.035896 228.188221 
L 300.490601 228.188221 
L 300.490601 227.533075 
L 302.68068 227.533075 
L 302.68068 226.877929 
L 303.299159 226.877929 
L 303.304514 225.567637 
L 303.653443 225.567637 
L 303.653443 224.912491 
L 304.715358 224.912491 
L 304.715358 224.257345 
L 305.801336 224.257345 
L 305.801336 223.602199 
L 306.075112 223.602199 
L 306.075112 222.947052 
L 312.722724 222.947052 
L 312.722724 222.291906 
L 315.379753 222.291906 
L 315.379753 221.63676 
L 316.477647 221.63676 
L 316.477647 220.981614 
L 326.836318 220.981614 
L 326.836318 220.326468 
L 338.688 220.326468 
L 338.688 220.326468 
" style="fill:none;stroke:#ff7500;stroke-linecap:square;stroke-width:1.5;"/>
   </g>
   <g id="line2d_40">
    <defs>
     <path d="M 0 -6 
L -1.347084 -1.854102 
L -5.706339 -1.854102 
L -2.179628 0.708204 
L -3.526712 4.854102 
L -0 2.291796 
L 3.526712 4.854102 
L 2.179628 0.708204 
L 5.706339 -1.854102 
L 1.347084 -1.854102 
z
" id="m39d2433ae6" style="stroke:#ff7500;stroke-linejoin:bevel;stroke-width:1.5;"/>
    </defs>
    <g>
     <use style="fill-opacity:0;stroke:#ff7500;stroke-linejoin:bevel;stroke-width:1.5;" x="260.400474" xlink:href="#m39d2433ae6" y="244.566874"/>
     <use style="fill-opacity:0;stroke:#ff7500;stroke-linejoin:bevel;stroke-width:1.5;" x="316.477647" xlink:href="#m39d2433ae6" y="221.63676"/>
     <use style="fill-opacity:0;stroke:#ff7500;stroke-linejoin:bevel;stroke-width:1.5;" x="326.836318" xlink:href="#m39d2433ae6" y="220.326468"/>
     <use style="fill-opacity:0;stroke:#ff7500;stroke-linejoin:bevel;stroke-width:1.5;" x="338.688" xlink:href="#m39d2433ae6" y="220.326468"/>
    </g>
   </g>
   <g id="line2d_41">
    <path style="fill:none;stroke:#ff7500;stroke-linecap:square;stroke-width:1.5;"/>
    <g/>
   </g>
   <g id="line2d_42">
    <path clip-path="url(#p46dd5a2ea5)" d="M 248.250259 249.808043 
" style="fill:none;stroke:#ff7500;stroke-linecap:square;stroke-width:1.5;"/>
    <defs>
     <path d="M -12 12 
L 12 -12 
M -12 -12 
L 12 12 
" id="m937fe3daa0" style="stroke:#ff7500;"/>
    </defs>
    <g clip-path="url(#p46dd5a2ea5)">
     <use style="fill:#ff7500;stroke:#ff7500;" x="248.250259" xlink:href="#m937fe3daa0" y="249.808043"/>
    </g>
   </g>
   <g id="line2d_43">
    <defs>
     <path d="M 0 1.5 
C 0.397805 1.5 0.77937 1.341951 1.06066 1.06066 
C 1.341951 0.77937 1.5 0.397805 1.5 0 
C 1.5 -0.397805 1.341951 -0.77937 1.06066 -1.06066 
C 0.77937 -1.341951 0.397805 -1.5 0 -1.5 
C -0.397805 -1.5 -0.77937 -1.341951 -1.06066 -1.06066 
C -1.341951 -0.77937 -1.5 -0.397805 -1.5 0 
C -1.5 0.397805 -1.341951 0.77937 -1.06066 1.06066 
C -0.77937 1.341951 -0.397805 1.5 0 1.5 
z
" id="m35f9eda471" style="stroke:#6495ed;"/>
    </defs>
    <g>
     <use style="fill:#6495ed;stroke:#6495ed;" x="233.930748" xlink:href="#m35f9eda471" y="30.334099"/>
     <use style="fill:#6495ed;stroke:#6495ed;" x="233.930748" xlink:href="#m35f9eda471" y="30.334099"/>
    </g>
   </g>
   <g id="line2d_44">
    <path d="M 81.775977 298.944 
L 81.775977 290.427101 
L 84.464254 290.427101 
L 84.464254 287.806516 
L 91.535274 287.806516 
L 91.535274 274.703594 
L 93.121756 274.703594 
L 93.121756 267.496987 
L 97.755429 267.496987 
L 97.755429 254.394065 
L 98.880934 254.394065 
L 98.880934 248.49775 
L 102.330873 248.49775 
L 102.330873 234.084536 
L 103.203018 234.084536 
L 103.203018 230.808806 
L 105.951954 230.808806 
L 105.951954 220.981614 
L 106.66386 220.981614 
L 106.66386 219.671322 
L 107.347841 219.671322 
L 107.347841 216.395591 
L 108.006005 216.395591 
L 108.006005 215.740445 
L 108.948899 215.740445 
L 108.948899 215.085299 
L 110.131676 215.085299 
L 110.131676 214.430153 
L 110.694282 214.430153 
L 110.694282 210.499277 
L 111.505558 210.499277 
L 111.505558 209.84413 
L 112.026172 209.84413 
L 112.026172 206.5684 
L 112.531694 206.5684 
L 112.531694 201.982377 
L 113.022974 201.982377 
L 113.022974 200.672085 
L 113.500792 200.672085 
L 113.500792 200.016939 
L 115.077025 200.016939 
L 115.077025 199.361793 
L 115.502395 199.361793 
L 115.502395 197.396355 
L 116.914437 197.396355 
L 116.914437 194.77577 
L 118.576578 194.77577 
L 118.576578 192.810332 
L 119.768017 192.810332 
L 119.768017 192.155186 
L 121.189196 192.155186 
L 121.189196 190.189747 
L 121.340187 190.189747 
L 121.340187 188.879455 
L 121.489881 188.879455 
L 121.489881 185.603725 
L 123.056911 185.603725 
L 123.056911 184.948579 
L 124.114161 184.948579 
L 124.114161 184.293433 
L 124.743806 184.293433 
L 124.743806 183.638286 
L 125.23165 183.638286 
L 125.23165 181.017702 
L 125.822869 181.017702 
L 125.822869 180.362556 
L 126.50685 180.362556 
L 126.50685 179.70741 
L 127.695124 179.70741 
L 127.695124 175.776533 
L 128.807571 175.776533 
L 128.807571 172.500803 
L 129.099042 172.500803 
L 129.195127 169.880218 
L 130.664567 169.880218 
L 130.664567 167.259634 
L 130.839837 167.259634 
L 130.839837 166.604488 
L 131.439773 166.604488 
L 131.439773 165.949342 
L 132.181982 165.949342 
L 132.181982 165.294196 
L 134.019394 165.294196 
L 134.019394 162.018465 
L 134.661403 162.018465 
L 134.661403 160.053027 
L 135.415281 160.053027 
L 135.415281 159.397881 
L 138.199116 159.397881 
L 138.199116 158.087589 
L 138.706272 158.087589 
L 138.706272 157.432442 
L 138.927025 157.432442 
L 138.927025 156.12215 
L 141.615302 156.12215 
L 141.615302 154.811858 
L 142.215919 154.811858 
L 142.215919 152.191274 
L 145.740226 152.191274 
L 145.777292 148.260397 
L 147.670154 148.260397 
L 147.670154 145.639813 
L 148.064279 145.639813 
L 148.064279 143.674374 
L 148.919783 143.674374 
L 148.919783 143.019228 
L 149.31719 143.019228 
L 149.31719 141.708936 
L 149.676158 141.708936 
L 149.705742 135.157475 
L 150.344189 135.157475 
L 150.344189 133.847183 
L 151.528368 133.847183 
L 151.528368 133.192037 
L 152.811246 133.192037 
L 152.811246 132.536891 
L 152.934492 132.536891 
L 152.934492 131.881745 
L 153.49047 131.881745 
L 153.49047 131.226598 
L 154.235652 131.226598 
L 154.235652 129.916306 
L 155.015814 129.916306 
L 155.015814 127.295722 
L 155.361158 127.295722 
L 155.361158 126.640576 
L 156.175347 126.640576 
L 156.175347 125.98543 
L 156.297301 125.98543 
L 156.378132 124.675137 
L 158.412011 124.675137 
L 158.412011 124.019991 
L 160.217098 124.019991 
L 160.217098 123.364845 
L 161.940898 123.364845 
L 161.999419 120.744261 
L 166.840232 120.744261 
L 166.840232 118.778823 
L 168.13025 118.778823 
L 168.13025 117.46853 
L 169.331381 117.46853 
L 169.331381 116.813384 
L 171.099589 116.813384 
L 171.099589 113.537654 
L 171.434392 113.537654 
L 171.434392 112.227362 
L 174.997985 112.227362 
L 174.997985 110.917069 
L 175.177275 110.917069 
L 175.266234 109.606777 
L 175.617599 109.606777 
L 175.704345 108.296485 
L 175.843568 108.296485 
L 175.843568 106.986193 
L 176.144704 106.986193 
L 176.144704 105.675901 
L 180.135832 105.675901 
L 180.135832 105.020754 
L 181.553151 105.020754 
L 181.64335 103.055316 
L 181.775431 103.055316 
L 181.794218 100.434732 
L 182.073625 100.434732 
L 182.073625 99.779586 
L 182.466459 99.779586 
L 182.561055 96.503855 
L 182.601439 96.503855 
L 182.659607 93.883271 
L 182.828533 93.883271 
L 182.828533 89.952394 
L 183.118098 89.952394 
L 183.118098 87.986956 
L 186.039767 87.986956 
L 186.039767 86.676664 
L 186.160784 86.676664 
L 186.160784 86.021518 
L 186.974717 86.021518 
L 186.974717 84.056079 
L 188.551037 84.056079 
L 188.551037 83.400933 
L 188.715948 83.400933 
L 188.785252 81.435495 
L 189.056649 81.435495 
L 189.056649 80.780349 
L 191.339624 80.780349 
L 191.339624 80.125203 
L 191.752884 80.125203 
L 191.752884 79.470057 
L 192.267647 79.470057 
L 192.270222 78.159764 
L 193.065341 78.159764 
L 193.10956 73.573742 
L 193.384622 73.573742 
L 193.384622 72.918596 
L 193.636379 72.918596 
L 193.714758 68.987719 
L 193.785707 68.987719 
L 193.823429 67.022281 
L 194.024798 67.022281 
L 194.024798 66.367135 
L 194.738659 66.367135 
L 194.738659 65.711988 
L 197.042193 65.711988 
L 197.059807 62.436258 
L 197.289121 62.436258 
L 197.289121 61.781112 
L 198.153496 61.781112 
L 198.153496 61.125966 
L 198.31807 61.125966 
L 198.378027 59.815674 
L 199.958358 59.815674 
L 199.958358 57.195089 
L 203.603236 57.195089 
L 203.603236 56.539943 
L 204.109296 56.539943 
L 204.109296 55.884797 
L 204.5324 55.884797 
L 204.5324 55.229651 
L 204.650521 55.229651 
L 204.663174 53.919359 
L 205.313701 53.919359 
L 205.313701 53.264213 
L 205.57375 53.264213 
L 205.614521 51.95392 
L 206.110458 51.95392 
L 206.110458 51.298774 
L 207.180577 51.298774 
L 207.180577 50.643628 
L 207.555351 50.643628 
L 207.555351 49.988482 
L 209.048728 49.988482 
L 209.048728 49.333336 
L 209.330713 49.333336 
L 209.334584 48.023044 
L 209.651976 48.023044 
L 209.651976 47.367898 
L 210.191808 47.367898 
L 210.191808 46.712752 
L 210.657222 46.712752 
L 210.657222 46.057605 
L 211.05276 46.057605 
L 211.05276 45.402459 
L 211.598321 45.402459 
L 211.654323 44.092167 
L 211.833837 44.092167 
L 211.833837 43.437021 
L 211.958323 43.437021 
L 211.958323 42.781875 
L 212.44352 42.781875 
L 212.44352 42.126729 
L 213.175268 42.126729 
L 213.175268 41.471583 
L 214.115301 41.471583 
L 214.115301 40.816437 
L 214.556218 40.816437 
L 214.556218 39.506144 
L 214.733203 39.506144 
L 214.738882 38.195852 
L 215.301117 38.195852 
L 215.301117 37.540706 
L 216.024071 37.540706 
L 216.024071 36.88556 
L 217.97407 36.88556 
L 217.97407 36.230414 
L 218.980434 36.230414 
L 218.980434 35.575268 
L 219.20165 35.575268 
L 219.20165 34.920122 
L 220.781967 34.920122 
L 220.781967 34.264976 
L 221.462685 34.264976 
L 221.462685 33.60983 
L 222.460345 33.60983 
L 222.460345 32.954683 
L 222.948978 32.954683 
L 222.948978 32.299537 
L 225.392049 32.299537 
L 225.392049 31.644391 
L 227.785933 31.644391 
L 227.785933 30.989245 
L 233.930748 30.989245 
L 233.930748 30.334099 
L 338.688 30.334099 
L 338.688 30.334099 
" style="fill:none;stroke:#6495ed;stroke-linecap:square;stroke-width:1.5;"/>
   </g>
   <g id="line2d_45">
    <defs>
     <path d="M -0 6 
L 6 -6 
L -6 -6 
z
" id="m0fe98232c5" style="stroke:#6495ed;stroke-linejoin:miter;stroke-width:1.5;"/>
    </defs>
    <g>
     <use style="fill-opacity:0;stroke:#6495ed;stroke-linejoin:miter;stroke-width:1.5;" x="103.203018" xlink:href="#m0fe98232c5" y="234.084536"/>
     <use style="fill-opacity:0;stroke:#6495ed;stroke-linejoin:miter;stroke-width:1.5;" x="175.843568" xlink:href="#m0fe98232c5" y="108.296485"/>
     <use style="fill-opacity:0;stroke:#6495ed;stroke-linejoin:miter;stroke-width:1.5;" x="233.930748" xlink:href="#m0fe98232c5" y="30.989245"/>
     <use style="fill-opacity:0;stroke:#6495ed;stroke-linejoin:miter;stroke-width:1.5;" x="233.930748" xlink:href="#m0fe98232c5" y="30.334099"/>
     <use style="fill-opacity:0;stroke:#6495ed;stroke-linejoin:miter;stroke-width:1.5;" x="338.688" xlink:href="#m0fe98232c5" y="30.334099"/>
    </g>
   </g>
   <g id="line2d_46">
    <path style="fill:none;stroke:#6495ed;stroke-linecap:square;stroke-width:1.5;"/>
    <g/>
   </g>
   <g id="line2d_47">
    <path clip-path="url(#p46dd5a2ea5)" d="M 192.894791 78.159764 
" style="fill:none;stroke:#6495ed;stroke-linecap:square;stroke-width:1.5;"/>
    <defs>
     <path d="M -12 12 
L 12 -12 
M -12 -12 
L 12 12 
" id="m73795d6498" style="stroke:#6495ed;"/>
    </defs>
    <g clip-path="url(#p46dd5a2ea5)">
     <use style="fill:#6495ed;stroke:#6495ed;" x="192.894791" xlink:href="#m73795d6498" y="78.159764"/>
    </g>
   </g>
   <g id="line2d_48">
    <defs>
     <path d="M 0 1.5 
C 0.397805 1.5 0.77937 1.341951 1.06066 1.06066 
C 1.341951 0.77937 1.5 0.397805 1.5 0 
C 1.5 -0.397805 1.341951 -0.77937 1.06066 -1.06066 
C 0.77937 -1.341951 0.397805 -1.5 0 -1.5 
C -0.397805 -1.5 -0.77937 -1.341951 -1.06066 -1.06066 
C -1.341951 -0.77937 -1.5 -0.397805 -1.5 0 
C -1.5 0.397805 -1.341951 0.77937 -1.06066 1.06066 
C -0.77937 1.341951 -0.397805 1.5 0 1.5 
z
" id="m64856ecbd9" style="stroke:#ff0000;"/>
    </defs>
    <g>
     <use style="fill:#ff0000;stroke:#ff0000;" x="276.523832" xlink:href="#m64856ecbd9" y="102.40017"/>
     <use style="fill:#ff0000;stroke:#ff0000;" x="276.523832" xlink:href="#m64856ecbd9" y="102.40017"/>
    </g>
   </g>
   <g id="line2d_49">
    <path d="M 88.846997 298.944 
L 88.846997 295.013123 
L 95.259853 295.013123 
L 95.259853 289.771955 
L 99.938184 289.771955 
L 99.938184 285.841078 
L 103.623262 285.841078 
L 103.623262 283.87564 
L 106.66386 283.87564 
L 106.66386 275.35874 
L 109.252198 275.35874 
L 109.252198 268.152133 
L 111.505558 268.152133 
L 111.505558 264.876403 
L 113.500792 264.876403 
L 113.500792 261.600672 
L 115.291007 261.600672 
L 115.291007 257.01465 
L 116.914437 257.01465 
L 116.914437 255.704357 
L 118.399528 255.704357 
L 118.399528 253.083773 
L 119.768017 253.083773 
L 119.768017 251.118335 
L 122.219665 251.118335 
L 122.219665 249.152896 
L 123.327293 249.152896 
L 123.327293 247.842604 
L 125.351508 247.842604 
L 125.351508 246.532312 
L 126.281824 246.532312 
L 126.281824 245.877166 
L 127.165014 245.877166 
L 127.165014 245.22202 
L 128.005624 245.22202 
L 128.005624 244.566874 
L 129.574256 244.566874 
L 129.574256 243.911728 
L 131.013364 243.911728 
L 131.013364 242.601435 
L 133.57787 242.601435 
L 133.57787 241.946289 
L 134.164119 241.946289 
L 134.164119 241.291143 
L 135.280614 241.291143 
L 135.280614 240.635997 
L 135.813153 240.635997 
L 135.813153 239.980851 
L 136.32991 239.980851 
L 136.32991 239.325705 
L 137.794206 239.325705 
L 137.794206 238.670559 
L 141.941279 238.670559 
L 141.941279 237.360267 
L 143.695448 237.360267 
L 143.695448 236.705121 
L 144.026061 236.705121 
L 144.026061 235.394828 
L 144.470655 235.394828 
L 144.470655 234.739682 
L 144.669057 234.739682 
L 144.669057 234.084536 
L 145.888018 234.084536 
L 145.888018 233.42939 
L 146.179895 233.42939 
L 146.179895 231.463952 
L 147.027314 231.463952 
L 147.027314 230.808806 
L 147.570215 230.808806 
L 147.570215 230.15366 
L 147.835457 230.15366 
L 147.835457 229.498513 
L 148.857832 229.498513 
L 148.857832 228.843367 
L 149.347388 228.843367 
L 149.347388 228.188221 
L 150.51433 228.188221 
L 150.51433 227.533075 
L 150.960087 227.533075 
L 150.960087 226.877929 
L 152.436193 226.877929 
L 152.436193 226.222783 
L 152.835965 226.222783 
L 152.835965 225.567637 
L 153.609024 225.567637 
L 153.609024 224.912491 
L 153.983071 224.912491 
L 153.983071 224.257345 
L 154.167129 224.257345 
L 154.167129 222.947052 
L 154.349264 222.947052 
L 154.349264 221.63676 
L 155.908152 221.63676 
L 155.908152 220.981614 
L 159.354904 220.981614 
L 159.354904 220.326468 
L 161.64531 220.326468 
L 161.64531 219.016176 
L 163.669525 219.016176 
L 163.775378 217.705884 
L 163.880593 217.705884 
L 163.880593 217.050738 
L 164.599841 217.050738 
L 164.700211 215.740445 
L 165.290595 215.740445 
L 165.290595 215.085299 
L 167.975417 215.085299 
L 167.975417 214.430153 
L 168.140524 214.430153 
L 168.140524 213.775007 
L 168.546579 213.775007 
L 168.546579 213.119861 
L 169.635673 213.119861 
L 169.635673 212.464715 
L 170.446091 212.464715 
L 170.446091 211.809569 
L 171.357698 211.809569 
L 171.357698 211.154423 
L 172.9872 211.154423 
L 172.9872 210.499277 
L 173.295595 210.499277 
L 173.295595 209.84413 
L 173.417442 209.84413 
L 173.417442 209.188984 
L 173.837325 209.188984 
L 173.837325 208.533838 
L 174.47737 208.533838 
L 174.47737 207.878692 
L 174.59126 207.878692 
L 174.59126 207.223546 
L 174.872772 207.223546 
L 174.872772 206.5684 
L 175.204695 206.5684 
L 175.313947 204.602962 
L 175.530419 204.602962 
L 175.530419 203.292669 
L 175.955464 203.292669 
L 175.955464 201.982377 
L 177.31801 201.982377 
L 177.31801 201.327231 
L 178.354545 201.327231 
L 178.44579 200.016939 
L 178.626862 200.016939 
L 178.626862 199.361793 
L 179.202687 199.361793 
L 179.202687 198.706647 
L 179.376106 198.706647 
L 179.376106 198.051501 
L 180.704665 198.051501 
L 180.744595 196.741208 
L 181.600682 196.741208 
L 181.600682 196.086062 
L 181.751918 196.086062 
L 181.751918 195.430916 
L 182.344078 195.430916 
L 182.344078 194.77577 
L 182.632784 194.77577 
L 182.632784 194.120624 
L 184.303871 194.120624 
L 184.303871 193.465478 
L 184.65798 193.465478 
L 184.65798 192.810332 
L 184.973775 192.810332 
L 185.067409 191.50004 
L 185.436997 191.50004 
L 185.528183 190.189747 
L 187.503741 190.189747 
L 187.503741 189.534601 
L 187.745678 189.534601 
L 187.745678 188.879455 
L 188.528717 188.879455 
L 188.528717 188.224309 
L 189.056649 188.224309 
L 189.056649 187.569163 
L 191.153982 187.569163 
L 191.153982 186.914017 
L 191.651817 186.914017 
L 191.651817 186.258871 
L 192.424009 186.258871 
L 192.424009 185.603725 
L 193.740806 185.603725 
L 193.740806 184.948579 
L 194.041086 184.948579 
L 194.041086 184.293433 
L 194.189309 184.293433 
L 194.281313 182.98314 
L 194.409309 182.98314 
L 194.409309 181.672848 
L 195.537945 181.672848 
L 195.537945 181.017702 
L 196.142108 181.017702 
L 196.142108 180.362556 
L 196.549682 180.362556 
L 196.646098 179.052264 
L 197.089125 179.052264 
L 197.089125 178.397118 
L 197.275602 178.397118 
L 197.275602 177.741972 
L 197.398821 177.741972 
L 197.460105 176.431679 
L 197.718189 176.431679 
L 197.718189 175.776533 
L 197.868237 175.776533 
L 197.868237 175.121387 
L 198.193869 175.121387 
L 198.223172 173.811095 
L 198.455845 173.811095 
L 198.455845 173.155949 
L 199.094068 173.155949 
L 199.094068 172.500803 
L 199.466084 172.500803 
L 199.466084 171.845657 
L 200.2524 171.845657 
L 200.2524 171.190511 
L 200.420991 171.190511 
L 200.420991 170.535364 
L 200.702637 170.535364 
L 200.702637 169.880218 
L 201.557584 169.880218 
L 201.629984 168.569926 
L 201.999335 168.569926 
L 201.999335 167.91478 
L 202.861846 167.91478 
L 202.861846 167.259634 
L 203.040454 167.259634 
L 203.040454 166.604488 
L 203.206254 166.604488 
L 203.206254 165.949342 
L 203.403156 165.949342 
L 203.403156 165.294196 
L 203.769122 165.294196 
L 203.769122 164.63905 
L 204.022904 164.63905 
L 204.022904 163.983903 
L 204.427582 163.983903 
L 204.458326 162.673611 
L 206.570018 162.673611 
L 206.636789 161.363319 
L 206.688672 161.363319 
L 206.783017 156.12215 
L 206.841167 156.12215 
L 206.841167 155.467004 
L 207.010039 155.467004 
L 207.010039 154.811858 
L 208.218753 154.811858 
L 208.218753 154.156712 
L 209.72215 154.156712 
L 209.744849 152.191274 
L 210.559175 152.191274 
L 210.559175 151.536128 
L 211.078171 151.536128 
L 211.078171 150.880981 
L 211.554924 150.880981 
L 211.554924 150.225835 
L 213.284397 150.225835 
L 213.329089 148.260397 
L 214.354214 148.260397 
L 214.354214 147.605251 
L 215.133301 147.605251 
L 215.209467 146.294959 
L 215.647485 146.294959 
L 215.721443 144.32952 
L 215.777709 144.32952 
L 215.777709 143.674374 
L 216.141703 143.674374 
L 216.25269 141.05379 
L 216.268302 141.05379 
L 216.268302 140.398644 
L 216.516212 140.398644 
L 216.516212 139.743498 
L 216.633765 139.743498 
L 216.633765 139.088352 
L 216.86652 139.088352 
L 216.924226 137.778059 
L 218.3399 137.778059 
L 218.442947 135.812621 
L 218.664808 135.812621 
L 218.664808 135.157475 
L 220.456198 135.157475 
L 220.509302 133.847183 
L 221.203477 133.847183 
L 221.203477 133.192037 
L 221.710959 133.192037 
L 221.710959 132.536891 
L 222.9667 132.536891 
L 222.9667 131.881745 
L 223.125835 131.881745 
L 223.132416 130.571452 
L 224.011311 130.571452 
L 224.011311 129.916306 
L 224.272939 129.916306 
L 224.37454 128.606014 
L 224.433263 128.606014 
L 224.433263 127.950868 
L 225.515688 127.950868 
L 225.515688 127.295722 
L 225.772815 127.295722 
L 225.772815 126.640576 
L 227.100474 126.640576 
L 227.100474 125.98543 
L 227.33955 125.98543 
L 227.33955 125.330284 
L 228.015855 125.330284 
L 228.03739 124.019991 
L 228.511002 124.019991 
L 228.511002 123.364845 
L 229.176755 123.364845 
L 229.176755 122.709699 
L 229.670309 122.709699 
L 229.670309 122.054553 
L 229.797383 122.054553 
L 229.797383 121.399407 
L 230.515143 121.399407 
L 230.515143 120.744261 
L 233.270385 120.744261 
L 233.270385 120.089115 
L 233.421794 120.089115 
L 233.421794 119.433969 
L 234.252478 119.433969 
L 234.252478 118.778823 
L 235.459358 118.778823 
L 235.459358 118.123676 
L 235.948919 118.123676 
L 235.948919 117.46853 
L 238.437608 117.46853 
L 238.437608 116.813384 
L 238.809133 116.813384 
L 238.847119 115.503092 
L 238.94624 115.503092 
L 238.94624 114.847946 
L 239.892051 114.847946 
L 239.892051 114.1928 
L 240.271937 114.1928 
L 240.271937 113.537654 
L 240.435824 113.537654 
L 240.435824 112.882508 
L 240.701161 112.882508 
L 240.701161 112.227362 
L 240.884714 112.227362 
L 240.884714 111.572215 
L 241.404223 111.572215 
L 241.404223 110.917069 
L 241.828408 110.917069 
L 241.90691 109.606777 
L 244.179251 109.606777 
L 244.179251 108.951631 
L 251.661466 108.951631 
L 251.661466 108.296485 
L 253.789132 108.296485 
L 253.789132 107.641339 
L 256.947211 107.641339 
L 256.947211 106.986193 
L 257.339342 106.986193 
L 257.339342 106.331047 
L 258.607499 106.331047 
L 258.607499 105.675901 
L 261.600485 105.675901 
L 261.600485 105.020754 
L 263.136824 105.020754 
L 263.136824 104.365608 
L 268.906796 104.365608 
L 268.906796 103.710462 
L 269.399854 103.710462 
L 269.399854 103.055316 
L 276.523832 103.055316 
L 276.523832 102.40017 
L 338.688 102.40017 
L 338.688 102.40017 
" style="fill:none;stroke:#ff0000;stroke-linecap:square;stroke-width:1.5;"/>
   </g>
   <g id="line2d_50">
    <defs>
     <path d="M 0 -6 
L -5.196152 -3 
L -5.196152 3 
L -0 6 
L 5.196152 3 
L 5.196152 -3 
z
" id="m6d42d7994e" style="stroke:#ff0000;stroke-linejoin:miter;stroke-width:1.5;"/>
    </defs>
    <g>
     <use style="fill-opacity:0;stroke:#ff0000;stroke-linejoin:miter;stroke-width:1.5;" x="175.530419" xlink:href="#m6d42d7994e" y="204.602962"/>
     <use style="fill-opacity:0;stroke:#ff0000;stroke-linejoin:miter;stroke-width:1.5;" x="224.433263" xlink:href="#m6d42d7994e" y="127.950868"/>
     <use style="fill-opacity:0;stroke:#ff0000;stroke-linejoin:miter;stroke-width:1.5;" x="276.523832" xlink:href="#m6d42d7994e" y="102.40017"/>
     <use style="fill-opacity:0;stroke:#ff0000;stroke-linejoin:miter;stroke-width:1.5;" x="276.523832" xlink:href="#m6d42d7994e" y="102.40017"/>
     <use style="fill-opacity:0;stroke:#ff0000;stroke-linejoin:miter;stroke-width:1.5;" x="338.688" xlink:href="#m6d42d7994e" y="102.40017"/>
    </g>
   </g>
   <g id="line2d_51">
    <path style="fill:none;stroke:#ff0000;stroke-linecap:square;stroke-width:1.5;"/>
    <g/>
   </g>
   <g id="line2d_52">
    <path clip-path="url(#p46dd5a2ea5)" d="M 206.141862 162.673611 
" style="fill:none;stroke:#ff0000;stroke-linecap:square;stroke-width:1.5;"/>
    <defs>
     <path d="M -12 12 
L 12 -12 
M -12 -12 
L 12 12 
" id="mdc50a5d8cd" style="stroke:#ff0000;"/>
    </defs>
    <g clip-path="url(#p46dd5a2ea5)">
     <use style="fill:#ff0000;stroke:#ff0000;" x="206.141862" xlink:href="#mdc50a5d8cd" y="162.673611"/>
    </g>
   </g>
   <g id="line2d_53">
    <path d="M 338.688 220.326468 
L 369.60768 293.571802 
" style="fill:none;stroke:#ff7500;stroke-linecap:square;stroke-width:1.5;"/>
    <g>
     <use style="fill-opacity:0;stroke:#ff7500;stroke-linejoin:bevel;stroke-width:1.5;" x="338.688" xlink:href="#m39d2433ae6" y="220.326468"/>
     <use style="fill-opacity:0;stroke:#ff7500;stroke-linejoin:bevel;stroke-width:1.5;" x="369.60768" xlink:href="#m39d2433ae6" y="293.571802"/>
    </g>
   </g>
   <g id="line2d_54">
    <path d="M 338.688 102.40017 
L 369.60768 229.105426 
" style="fill:none;stroke:#ff0000;stroke-linecap:square;stroke-width:1.5;"/>
    <g>
     <use style="fill-opacity:0;stroke:#ff0000;stroke-linejoin:miter;stroke-width:1.5;" x="338.688" xlink:href="#m6d42d7994e" y="102.40017"/>
     <use style="fill-opacity:0;stroke:#ff0000;stroke-linejoin:miter;stroke-width:1.5;" x="369.60768" xlink:href="#m6d42d7994e" y="229.105426"/>
    </g>
   </g>
   <g id="line2d_55">
    <path d="M 338.688 36.88556 
L 369.60768 164.63905 
" style="fill:none;stroke:#000080;stroke-linecap:square;stroke-width:1.5;"/>
    <g>
     <use style="fill-opacity:0;stroke:#000080;stroke-width:1.5;" x="338.688" xlink:href="#m45da03d30d" y="36.88556"/>
     <use style="fill-opacity:0;stroke:#000080;stroke-width:1.5;" x="369.60768" xlink:href="#m45da03d30d" y="164.63905"/>
    </g>
   </g>
   <g id="line2d_56">
    <path d="M 338.688 30.334099 
L 369.60768 100.172673 
" style="fill:none;stroke:#6495ed;stroke-linecap:square;stroke-width:1.5;"/>
    <g>
     <use style="fill-opacity:0;stroke:#6495ed;stroke-linejoin:miter;stroke-width:1.5;" x="338.688" xlink:href="#m0fe98232c5" y="30.334099"/>
     <use style="fill-opacity:0;stroke:#6495ed;stroke-linejoin:miter;stroke-width:1.5;" x="369.60768" xlink:href="#m0fe98232c5" y="100.172673"/>
    </g>
   </g>
   <g id="line2d_57">
    <path d="M 338.688 30.334099 
L 369.60768 35.706297 
" style="fill:none;stroke:#ff00ff;stroke-linecap:square;stroke-width:1.5;"/>
    <g>
     <use style="fill-opacity:0;stroke:#ff00ff;stroke-linejoin:miter;stroke-width:1.5;" x="338.688" xlink:href="#m8d92cad47c" y="30.334099"/>
     <use style="fill-opacity:0;stroke:#ff00ff;stroke-linejoin:miter;stroke-width:1.5;" x="369.60768" xlink:href="#m8d92cad47c" y="35.706297"/>
    </g>
   </g>
   <g id="line2d_58">
    <path d="M 338.688 298.944 
L 338.688 30.334099 
" style="fill:none;stroke:#000000;stroke-linecap:square;stroke-width:1.5;"/>
   </g>
   <g id="patch_3">
    <path d="M 57.6 298.944 
L 57.6 27.648 
" style="fill:none;stroke:#000000;stroke-linecap:square;stroke-linejoin:miter;stroke-width:0.8;"/>
   </g>
   <g id="patch_4">
    <path d="M 338.688 298.944 
L 338.688 27.648 
" style="fill:none;stroke:#000000;stroke-linecap:square;stroke-linejoin:miter;stroke-width:0.8;"/>
   </g>
   <g id="patch_5">
    <path d="M 57.6 298.944 
L 338.688 298.944 
" style="fill:none;stroke:#000000;stroke-linecap:square;stroke-linejoin:miter;stroke-width:0.8;"/>
   </g>
   <g id="patch_6">
    <path d="M 57.6 27.648 
L 338.688 27.648 
" style="fill:none;stroke:#000000;stroke-linecap:square;stroke-linejoin:miter;stroke-width:0.8;"/>
   </g>
   <g id="text_13">
    <!-- rs -->
    <g transform="translate(375.22944 298.262739)scale(0.17 -0.17)">
     <use xlink:href="#DejaVuSans-114"/>
     <use x="41.113281" xlink:href="#DejaVuSans-115"/>
    </g>
   </g>
   <g id="text_14">
    <!-- trust-con -->
    <g transform="translate(375.22944 233.796363)scale(0.17 -0.17)">
     <use xlink:href="#DejaVuSans-116"/>
     <use x="39.208984" xlink:href="#DejaVuSans-114"/>
     <use x="80.322266" xlink:href="#DejaVuSans-117"/>
     <use x="143.701172" xlink:href="#DejaVuSans-115"/>
     <use x="195.800781" xlink:href="#DejaVuSans-116"/>
     <use x="235.009766" xlink:href="#DejaVuSans-45"/>
     <use x="271.09375" xlink:href="#DejaVuSans-99"/>
     <use x="326.074219" xlink:href="#DejaVuSans-111"/>
     <use x="387.255859" xlink:href="#DejaVuSans-110"/>
    </g>
   </g>
   <g id="text_15">
    <!-- cobyla -->
    <g transform="translate(375.22944 169.329987)scale(0.17 -0.17)">
     <defs>
      <path d="M 48.6875 27.296875 
Q 48.6875 37.203125 44.609375 42.84375 
Q 40.53125 48.484375 33.40625 48.484375 
Q 26.265625 48.484375 22.1875 42.84375 
Q 18.109375 37.203125 18.109375 27.296875 
Q 18.109375 17.390625 22.1875 11.75 
Q 26.265625 6.109375 33.40625 6.109375 
Q 40.53125 6.109375 44.609375 11.75 
Q 48.6875 17.390625 48.6875 27.296875 
z
M 18.109375 46.390625 
Q 20.953125 51.265625 25.265625 53.625 
Q 29.59375 56 35.59375 56 
Q 45.5625 56 51.78125 48.09375 
Q 58.015625 40.1875 58.015625 27.296875 
Q 58.015625 14.40625 51.78125 6.484375 
Q 45.5625 -1.421875 35.59375 -1.421875 
Q 29.59375 -1.421875 25.265625 0.953125 
Q 20.953125 3.328125 18.109375 8.203125 
L 18.109375 0 
L 9.078125 0 
L 9.078125 75.984375 
L 18.109375 75.984375 
z
" id="DejaVuSans-98"/>
      <path d="M 32.171875 -5.078125 
Q 28.375 -14.84375 24.75 -17.8125 
Q 21.140625 -20.796875 15.09375 -20.796875 
L 7.90625 -20.796875 
L 7.90625 -13.28125 
L 13.1875 -13.28125 
Q 16.890625 -13.28125 18.9375 -11.515625 
Q 21 -9.765625 23.484375 -3.21875 
L 25.09375 0.875 
L 2.984375 54.6875 
L 12.5 54.6875 
L 29.59375 11.921875 
L 46.6875 54.6875 
L 56.203125 54.6875 
z
" id="DejaVuSans-121"/>
     </defs>
     <use xlink:href="#DejaVuSans-99"/>
     <use x="54.980469" xlink:href="#DejaVuSans-111"/>
     <use x="116.162109" xlink:href="#DejaVuSans-98"/>
     <use x="179.638672" xlink:href="#DejaVuSans-121"/>
     <use x="238.818359" xlink:href="#DejaVuSans-108"/>
     <use x="266.601562" xlink:href="#DejaVuSans-97"/>
    </g>
   </g>
   <g id="text_16">
    <!-- slsqp -->
    <g transform="translate(375.22944 104.863611)scale(0.17 -0.17)">
     <defs>
      <path d="M 14.796875 27.296875 
Q 14.796875 17.390625 18.875 11.75 
Q 22.953125 6.109375 30.078125 6.109375 
Q 37.203125 6.109375 41.296875 11.75 
Q 45.40625 17.390625 45.40625 27.296875 
Q 45.40625 37.203125 41.296875 42.84375 
Q 37.203125 48.484375 30.078125 48.484375 
Q 22.953125 48.484375 18.875 42.84375 
Q 14.796875 37.203125 14.796875 27.296875 
z
M 45.40625 8.203125 
Q 42.578125 3.328125 38.25 0.953125 
Q 33.9375 -1.421875 27.875 -1.421875 
Q 17.96875 -1.421875 11.734375 6.484375 
Q 5.515625 14.40625 5.515625 27.296875 
Q 5.515625 40.1875 11.734375 48.09375 
Q 17.96875 56 27.875 56 
Q 33.9375 56 38.25 53.625 
Q 42.578125 51.265625 45.40625 46.390625 
L 45.40625 54.6875 
L 54.390625 54.6875 
L 54.390625 -20.796875 
L 45.40625 -20.796875 
z
" id="DejaVuSans-113"/>
     </defs>
     <use xlink:href="#DejaVuSans-115"/>
     <use x="52.099609" xlink:href="#DejaVuSans-108"/>
     <use x="79.882812" xlink:href="#DejaVuSans-115"/>
     <use x="131.982422" xlink:href="#DejaVuSans-113"/>
     <use x="195.458984" xlink:href="#DejaVuSans-112"/>
    </g>
   </g>
   <g id="text_17">
    <!-- NAL -->
    <g transform="translate(375.22944 40.397235)scale(0.17 -0.17)">
     <defs>
      <path d="M 9.8125 72.90625 
L 23.09375 72.90625 
L 55.421875 11.921875 
L 55.421875 72.90625 
L 64.984375 72.90625 
L 64.984375 0 
L 51.703125 0 
L 19.390625 60.984375 
L 19.390625 0 
L 9.8125 0 
z
" id="DejaVuSans-78"/>
      <path d="M 34.1875 63.1875 
L 20.796875 26.90625 
L 47.609375 26.90625 
z
M 28.609375 72.90625 
L 39.796875 72.90625 
L 67.578125 0 
L 57.328125 0 
L 50.6875 18.703125 
L 17.828125 18.703125 
L 11.1875 0 
L 0.78125 0 
z
" id="DejaVuSans-65"/>
      <path d="M 9.8125 72.90625 
L 19.671875 72.90625 
L 19.671875 8.296875 
L 55.171875 8.296875 
L 55.171875 0 
L 9.8125 0 
z
" id="DejaVuSans-76"/>
     </defs>
     <use xlink:href="#DejaVuSans-78"/>
     <use x="74.804688" xlink:href="#DejaVuSans-65"/>
     <use x="143.212891" xlink:href="#DejaVuSans-76"/>
    </g>
   </g>
   <g id="text_18">
    <!-- bbob-constrained f8, 3-D -->
    <g transform="translate(60.41088 38.111366)scale(0.102 -0.102)">
     <defs>
      <path d="M 40.578125 39.3125 
Q 47.65625 37.796875 51.625 33 
Q 55.609375 28.21875 55.609375 21.1875 
Q 55.609375 10.40625 48.1875 4.484375 
Q 40.765625 -1.421875 27.09375 -1.421875 
Q 22.515625 -1.421875 17.65625 -0.515625 
Q 12.796875 0.390625 7.625 2.203125 
L 7.625 11.71875 
Q 11.71875 9.328125 16.59375 8.109375 
Q 21.484375 6.890625 26.8125 6.890625 
Q 36.078125 6.890625 40.9375 10.546875 
Q 45.796875 14.203125 45.796875 21.1875 
Q 45.796875 27.640625 41.28125 31.265625 
Q 36.765625 34.90625 28.71875 34.90625 
L 20.21875 34.90625 
L 20.21875 43.015625 
L 29.109375 43.015625 
Q 36.375 43.015625 40.234375 45.921875 
Q 44.09375 48.828125 44.09375 54.296875 
Q 44.09375 59.90625 40.109375 62.90625 
Q 36.140625 65.921875 28.71875 65.921875 
Q 24.65625 65.921875 20.015625 65.03125 
Q 15.375 64.15625 9.8125 62.3125 
L 9.8125 71.09375 
Q 15.4375 72.65625 20.34375 73.4375 
Q 25.25 74.21875 29.59375 74.21875 
Q 40.828125 74.21875 47.359375 69.109375 
Q 53.90625 64.015625 53.90625 55.328125 
Q 53.90625 49.265625 50.4375 45.09375 
Q 46.96875 40.921875 40.578125 39.3125 
z
" id="DejaVuSans-51"/>
      <path d="M 19.671875 64.796875 
L 19.671875 8.109375 
L 31.59375 8.109375 
Q 46.6875 8.109375 53.6875 14.9375 
Q 60.6875 21.78125 60.6875 36.53125 
Q 60.6875 51.171875 53.6875 57.984375 
Q 46.6875 64.796875 31.59375 64.796875 
z
M 9.8125 72.90625 
L 30.078125 72.90625 
Q 51.265625 72.90625 61.171875 64.09375 
Q 71.09375 55.28125 71.09375 36.53125 
Q 71.09375 17.671875 61.125 8.828125 
Q 51.171875 0 30.078125 0 
L 9.8125 0 
z
" id="DejaVuSans-68"/>
     </defs>
     <use xlink:href="#DejaVuSans-98"/>
     <use x="63.476562" xlink:href="#DejaVuSans-98"/>
     <use x="126.953125" xlink:href="#DejaVuSans-111"/>
     <use x="188.134766" xlink:href="#DejaVuSans-98"/>
     <use x="251.611328" xlink:href="#DejaVuSans-45"/>
     <use x="287.695312" xlink:href="#DejaVuSans-99"/>
     <use x="342.675781" xlink:href="#DejaVuSans-111"/>
     <use x="403.857422" xlink:href="#DejaVuSans-110"/>
     <use x="467.236328" xlink:href="#DejaVuSans-115"/>
     <use x="519.335938" xlink:href="#DejaVuSans-116"/>
     <use x="558.544922" xlink:href="#DejaVuSans-114"/>
     <use x="599.658203" xlink:href="#DejaVuSans-97"/>
     <use x="660.9375" xlink:href="#DejaVuSans-105"/>
     <use x="688.720703" xlink:href="#DejaVuSans-110"/>
     <use x="752.099609" xlink:href="#DejaVuSans-101"/>
     <use x="813.623047" xlink:href="#DejaVuSans-100"/>
     <use x="877.099609" xlink:href="#DejaVuSans-32"/>
     <use x="908.886719" xlink:href="#DejaVuSans-102"/>
     <use x="944.091797" xlink:href="#DejaVuSans-56"/>
     <use x="1007.714844" xlink:href="#DejaVuSans-44"/>
     <use x="1039.501953" xlink:href="#DejaVuSans-32"/>
     <use x="1071.289062" xlink:href="#DejaVuSans-51"/>
     <use x="1134.912109" xlink:href="#DejaVuSans-45"/>
     <use x="1170.996094" xlink:href="#DejaVuSans-68"/>
    </g>
    <!-- 41 targets: 100..1e-06 -->
    <g transform="translate(60.41088 49.533135)scale(0.102 -0.102)">
     <defs>
      <path d="M 11.71875 12.40625 
L 22.015625 12.40625 
L 22.015625 0 
L 11.71875 0 
z
M 11.71875 51.703125 
L 22.015625 51.703125 
L 22.015625 39.3125 
L 11.71875 39.3125 
z
" id="DejaVuSans-58"/>
     </defs>
     <use xlink:href="#DejaVuSans-52"/>
     <use x="63.623047" xlink:href="#DejaVuSans-49"/>
     <use x="127.246094" xlink:href="#DejaVuSans-32"/>
     <use x="159.033203" xlink:href="#DejaVuSans-116"/>
     <use x="198.242188" xlink:href="#DejaVuSans-97"/>
     <use x="259.521484" xlink:href="#DejaVuSans-114"/>
     <use x="298.884766" xlink:href="#DejaVuSans-103"/>
     <use x="362.361328" xlink:href="#DejaVuSans-101"/>
     <use x="423.884766" xlink:href="#DejaVuSans-116"/>
     <use x="463.09375" xlink:href="#DejaVuSans-115"/>
     <use x="515.193359" xlink:href="#DejaVuSans-58"/>
     <use x="548.884766" xlink:href="#DejaVuSans-32"/>
     <use x="580.671875" xlink:href="#DejaVuSans-49"/>
     <use x="644.294922" xlink:href="#DejaVuSans-48"/>
     <use x="707.917969" xlink:href="#DejaVuSans-48"/>
     <use x="771.541016" xlink:href="#DejaVuSans-46"/>
     <use x="803.328125" xlink:href="#DejaVuSans-46"/>
     <use x="835.115234" xlink:href="#DejaVuSans-49"/>
     <use x="898.738281" xlink:href="#DejaVuSans-101"/>
     <use x="960.261719" xlink:href="#DejaVuSans-45"/>
     <use x="996.345703" xlink:href="#DejaVuSans-48"/>
     <use x="1059.96875" xlink:href="#DejaVuSans-54"/>
    </g>
    <!-- 15 instances -->
    <g transform="translate(60.41088 60.954904)scale(0.102 -0.102)">
     <defs>
      <path d="M 10.796875 72.90625 
L 49.515625 72.90625 
L 49.515625 64.59375 
L 19.828125 64.59375 
L 19.828125 46.734375 
Q 21.96875 47.46875 24.109375 47.828125 
Q 26.265625 48.1875 28.421875 48.1875 
Q 40.625 48.1875 47.75 41.5 
Q 54.890625 34.8125 54.890625 23.390625 
Q 54.890625 11.625 47.5625 5.09375 
Q 40.234375 -1.421875 26.90625 -1.421875 
Q 22.3125 -1.421875 17.546875 -0.640625 
Q 12.796875 0.140625 7.71875 1.703125 
L 7.71875 11.625 
Q 12.109375 9.234375 16.796875 8.0625 
Q 21.484375 6.890625 26.703125 6.890625 
Q 35.15625 6.890625 40.078125 11.328125 
Q 45.015625 15.765625 45.015625 23.390625 
Q 45.015625 31 40.078125 35.4375 
Q 35.15625 39.890625 26.703125 39.890625 
Q 22.75 39.890625 18.8125 39.015625 
Q 14.890625 38.140625 10.796875 36.28125 
z
" id="DejaVuSans-53"/>
     </defs>
     <use xlink:href="#DejaVuSans-49"/>
     <use x="63.623047" xlink:href="#DejaVuSans-53"/>
     <use x="127.246094" xlink:href="#DejaVuSans-32"/>
     <use x="159.033203" xlink:href="#DejaVuSans-105"/>
     <use x="186.816406" xlink:href="#DejaVuSans-110"/>
     <use x="250.195312" xlink:href="#DejaVuSans-115"/>
     <use x="302.294922" xlink:href="#DejaVuSans-116"/>
     <use x="341.503906" xlink:href="#DejaVuSans-97"/>
     <use x="402.783203" xlink:href="#DejaVuSans-110"/>
     <use x="466.162109" xlink:href="#DejaVuSans-99"/>
     <use x="521.142578" xlink:href="#DejaVuSans-101"/>
     <use x="582.666016" xlink:href="#DejaVuSans-115"/>
    </g>
   </g>
   <g id="text_19">
    <!-- v5z33 -->
    <g style="fill:#808080;" transform="translate(183.016656 294.151352)scale(0.1 -0.1)">
     <defs>
      <path d="M 5.515625 54.6875 
L 48.1875 54.6875 
L 48.1875 46.484375 
L 14.40625 7.171875 
L 48.1875 7.171875 
L 48.1875 0 
L 4.296875 0 
L 4.296875 8.203125 
L 38.09375 47.515625 
L 5.515625 47.515625 
z
" id="DejaVuSans-122"/>
     </defs>
     <use xlink:href="#DejaVuSans-118"/>
     <use x="59.179688" xlink:href="#DejaVuSans-53"/>
     <use x="122.802734" xlink:href="#DejaVuSans-122"/>
     <use x="175.292969" xlink:href="#DejaVuSans-51"/>
     <use x="238.916016" xlink:href="#DejaVuSans-51"/>
    </g>
   </g>
   <g id="text_20">
    <!-- 8 Sep. Ellipsoid, 2 constraints -->
    <g transform="translate(50.47525 21.648)scale(0.2 -0.2)">
     <defs>
      <path d="M 53.515625 70.515625 
L 53.515625 60.890625 
Q 47.90625 63.578125 42.921875 64.890625 
Q 37.9375 66.21875 33.296875 66.21875 
Q 25.25 66.21875 20.875 63.09375 
Q 16.5 59.96875 16.5 54.203125 
Q 16.5 49.359375 19.40625 46.890625 
Q 22.3125 44.4375 30.421875 42.921875 
L 36.375 41.703125 
Q 47.40625 39.59375 52.65625 34.296875 
Q 57.90625 29 57.90625 20.125 
Q 57.90625 9.515625 50.796875 4.046875 
Q 43.703125 -1.421875 29.984375 -1.421875 
Q 24.8125 -1.421875 18.96875 -0.25 
Q 13.140625 0.921875 6.890625 3.21875 
L 6.890625 13.375 
Q 12.890625 10.015625 18.65625 8.296875 
Q 24.421875 6.59375 29.984375 6.59375 
Q 38.421875 6.59375 43.015625 9.90625 
Q 47.609375 13.234375 47.609375 19.390625 
Q 47.609375 24.75 44.3125 27.78125 
Q 41.015625 30.8125 33.5 32.328125 
L 27.484375 33.5 
Q 16.453125 35.6875 11.515625 40.375 
Q 6.59375 45.0625 6.59375 53.421875 
Q 6.59375 63.09375 13.40625 68.65625 
Q 20.21875 74.21875 32.171875 74.21875 
Q 37.3125 74.21875 42.625 73.28125 
Q 47.953125 72.359375 53.515625 70.515625 
z
" id="DejaVuSans-83"/>
      <path d="M 9.8125 72.90625 
L 55.90625 72.90625 
L 55.90625 64.59375 
L 19.671875 64.59375 
L 19.671875 43.015625 
L 54.390625 43.015625 
L 54.390625 34.71875 
L 19.671875 34.71875 
L 19.671875 8.296875 
L 56.78125 8.296875 
L 56.78125 0 
L 9.8125 0 
z
" id="DejaVuSans-69"/>
     </defs>
     <use xlink:href="#DejaVuSans-56"/>
     <use x="63.623047" xlink:href="#DejaVuSans-32"/>
     <use x="95.410156" xlink:href="#DejaVuSans-83"/>
     <use x="158.886719" xlink:href="#DejaVuSans-101"/>
     <use x="220.410156" xlink:href="#DejaVuSans-112"/>
     <use x="283.886719" xlink:href="#DejaVuSans-46"/>
     <use x="315.673828" xlink:href="#DejaVuSans-32"/>
     <use x="347.460938" xlink:href="#DejaVuSans-69"/>
     <use x="410.644531" xlink:href="#DejaVuSans-108"/>
     <use x="438.427734" xlink:href="#DejaVuSans-108"/>
     <use x="466.210938" xlink:href="#DejaVuSans-105"/>
     <use x="493.994141" xlink:href="#DejaVuSans-112"/>
     <use x="557.470703" xlink:href="#DejaVuSans-115"/>
     <use x="609.570312" xlink:href="#DejaVuSans-111"/>
     <use x="670.751953" xlink:href="#DejaVuSans-105"/>
     <use x="698.535156" xlink:href="#DejaVuSans-100"/>
     <use x="762.011719" xlink:href="#DejaVuSans-44"/>
     <use x="793.798828" xlink:href="#DejaVuSans-32"/>
     <use x="825.585938" xlink:href="#DejaVuSans-50"/>
     <use x="889.208984" xlink:href="#DejaVuSans-32"/>
     <use x="920.996094" xlink:href="#DejaVuSans-99"/>
     <use x="975.976562" xlink:href="#DejaVuSans-111"/>
     <use x="1037.158203" xlink:href="#DejaVuSans-110"/>
     <use x="1100.537109" xlink:href="#DejaVuSans-115"/>
     <use x="1152.636719" xlink:href="#DejaVuSans-116"/>
     <use x="1191.845703" xlink:href="#DejaVuSans-114"/>
     <use x="1232.958984" xlink:href="#DejaVuSans-97"/>
     <use x="1294.238281" xlink:href="#DejaVuSans-105"/>
     <use x="1322.021484" xlink:href="#DejaVuSans-110"/>
     <use x="1385.400391" xlink:href="#DejaVuSans-116"/>
     <use x="1424.609375" xlink:href="#DejaVuSans-115"/>
    </g>
   </g>
  </g>
 </g>
 <defs>
  <clipPath id="p46dd5a2ea5">
   <rect height="271.296" width="281.088" x="57.6" y="27.648"/>
  </clipPath>
 </defs>
</svg>
