<?xml version="1.0" encoding="utf-8" standalone="no"?>
<!DOCTYPE svg PUBLIC "-//W3C//DTD SVG 1.1//EN"
  "http://www.w3.org/Graphics/SVG/1.1/DTD/svg11.dtd">
<!-- Created with matplotlib (https://matplotlib.org/) -->
<svg height="345.6pt" version="1.1" viewBox="0 0 460.8 345.6" width="460.8pt" xmlns="http://www.w3.org/2000/svg" xmlns:xlink="http://www.w3.org/1999/xlink">
 <metadata>
  <rdf:RDF xmlns:cc="http://creativecommons.org/ns#" xmlns:dc="http://purl.org/dc/elements/1.1/" xmlns:rdf="http://www.w3.org/1999/02/22-rdf-syntax-ns#">
   <cc:Work>
    <dc:type rdf:resource="http://purl.org/dc/dcmitype/StillImage"/>
    <dc:date>2021-06-24T15:49:33.894145</dc:date>
    <dc:format>image/svg+xml</dc:format>
    <dc:creator>
     <cc:Agent>
      <dc:title>Matplotlib v3.3.3, https://matplotlib.org/</dc:title>
     </cc:Agent>
    </dc:creator>
   </cc:Work>
  </rdf:RDF>
 </metadata>
 <defs>
  <style type="text/css">*{stroke-linecap:butt;stroke-linejoin:round;}</style>
 </defs>
 <g id="figure_1">
  <g id="patch_1">
   <path d="M 0 345.6 
L 460.8 345.6 
L 460.8 0 
L 0 0 
z
" style="fill:#ffffff;"/>
  </g>
  <g id="axes_1">
   <g id="patch_2">
    <path d="M 57.6 298.944 
L 338.688 298.944 
L 338.688 27.648 
L 57.6 27.648 
z
" style="fill:#ffffff;"/>
   </g>
   <g id="matplotlib.axis_1">
    <g id="xtick_1">
     <g id="line2d_1">
      <path clip-path="url(#p0c04be2388)" d="M 57.6 298.944 
L 57.6 27.648 
" style="fill:none;stroke:#b0b0b0;stroke-linecap:square;stroke-width:0.8;"/>
     </g>
     <g id="line2d_2">
      <defs>
       <path d="M 0 0 
L 0 3.5 
" id="mf4c89787d2" style="stroke:#000000;stroke-width:0.8;"/>
      </defs>
      <g>
       <use style="stroke:#000000;stroke-width:0.8;" x="57.6" xlink:href="#mf4c89787d2" y="298.944"/>
      </g>
     </g>
     <g id="text_1">
      <!-- 0 -->
      <g transform="translate(51.2375 321.140875)scale(0.2 -0.2)">
       <defs>
        <path d="M 31.78125 66.40625 
Q 24.171875 66.40625 20.328125 58.90625 
Q 16.5 51.421875 16.5 36.375 
Q 16.5 21.390625 20.328125 13.890625 
Q 24.171875 6.390625 31.78125 6.390625 
Q 39.453125 6.390625 43.28125 13.890625 
Q 47.125 21.390625 47.125 36.375 
Q 47.125 51.421875 43.28125 58.90625 
Q 39.453125 66.40625 31.78125 66.40625 
z
M 31.78125 74.21875 
Q 44.046875 74.21875 50.515625 64.515625 
Q 56.984375 54.828125 56.984375 36.375 
Q 56.984375 17.96875 50.515625 8.265625 
Q 44.046875 -1.421875 31.78125 -1.421875 
Q 19.53125 -1.421875 13.0625 8.265625 
Q 6.59375 17.96875 6.59375 36.375 
Q 6.59375 54.828125 13.0625 64.515625 
Q 19.53125 74.21875 31.78125 74.21875 
z
" id="DejaVuSans-48"/>
       </defs>
       <use xlink:href="#DejaVuSans-48"/>
      </g>
     </g>
    </g>
    <g id="xtick_2">
     <g id="line2d_3">
      <path clip-path="url(#p0c04be2388)" d="M 137.910857 298.944 
L 137.910857 27.648 
" style="fill:none;stroke:#b0b0b0;stroke-linecap:square;stroke-width:0.8;"/>
     </g>
     <g id="line2d_4">
      <g>
       <use style="stroke:#000000;stroke-width:0.8;" x="137.910857" xlink:href="#mf4c89787d2" y="298.944"/>
      </g>
     </g>
     <g id="text_2">
      <!-- 2 -->
      <g transform="translate(131.548357 321.140875)scale(0.2 -0.2)">
       <defs>
        <path d="M 19.1875 8.296875 
L 53.609375 8.296875 
L 53.609375 0 
L 7.328125 0 
L 7.328125 8.296875 
Q 12.9375 14.109375 22.625 23.890625 
Q 32.328125 33.6875 34.8125 36.53125 
Q 39.546875 41.84375 41.421875 45.53125 
Q 43.3125 49.21875 43.3125 52.78125 
Q 43.3125 58.59375 39.234375 62.25 
Q 35.15625 65.921875 28.609375 65.921875 
Q 23.96875 65.921875 18.8125 64.3125 
Q 13.671875 62.703125 7.8125 59.421875 
L 7.8125 69.390625 
Q 13.765625 71.78125 18.9375 73 
Q 24.125 74.21875 28.421875 74.21875 
Q 39.75 74.21875 46.484375 68.546875 
Q 53.21875 62.890625 53.21875 53.421875 
Q 53.21875 48.921875 51.53125 44.890625 
Q 49.859375 40.875 45.40625 35.40625 
Q 44.1875 33.984375 37.640625 27.21875 
Q 31.109375 20.453125 19.1875 8.296875 
z
" id="DejaVuSans-50"/>
       </defs>
       <use xlink:href="#DejaVuSans-50"/>
      </g>
     </g>
    </g>
    <g id="xtick_3">
     <g id="line2d_5">
      <path clip-path="url(#p0c04be2388)" d="M 218.221714 298.944 
L 218.221714 27.648 
" style="fill:none;stroke:#b0b0b0;stroke-linecap:square;stroke-width:0.8;"/>
     </g>
     <g id="line2d_6">
      <g>
       <use style="stroke:#000000;stroke-width:0.8;" x="218.221714" xlink:href="#mf4c89787d2" y="298.944"/>
      </g>
     </g>
     <g id="text_3">
      <!-- 4 -->
      <g transform="translate(211.859214 321.140875)scale(0.2 -0.2)">
       <defs>
        <path d="M 37.796875 64.3125 
L 12.890625 25.390625 
L 37.796875 25.390625 
z
M 35.203125 72.90625 
L 47.609375 72.90625 
L 47.609375 25.390625 
L 58.015625 25.390625 
L 58.015625 17.1875 
L 47.609375 17.1875 
L 47.609375 0 
L 37.796875 0 
L 37.796875 17.1875 
L 4.890625 17.1875 
L 4.890625 26.703125 
z
" id="DejaVuSans-52"/>
       </defs>
       <use xlink:href="#DejaVuSans-52"/>
      </g>
     </g>
    </g>
    <g id="xtick_4">
     <g id="line2d_7">
      <path clip-path="url(#p0c04be2388)" d="M 298.532571 298.944 
L 298.532571 27.648 
" style="fill:none;stroke:#b0b0b0;stroke-linecap:square;stroke-width:0.8;"/>
     </g>
     <g id="line2d_8">
      <g>
       <use style="stroke:#000000;stroke-width:0.8;" x="298.532571" xlink:href="#mf4c89787d2" y="298.944"/>
      </g>
     </g>
     <g id="text_4">
      <!-- 6 -->
      <g transform="translate(292.170071 321.140875)scale(0.2 -0.2)">
       <defs>
        <path d="M 33.015625 40.375 
Q 26.375 40.375 22.484375 35.828125 
Q 18.609375 31.296875 18.609375 23.390625 
Q 18.609375 15.53125 22.484375 10.953125 
Q 26.375 6.390625 33.015625 6.390625 
Q 39.65625 6.390625 43.53125 10.953125 
Q 47.40625 15.53125 47.40625 23.390625 
Q 47.40625 31.296875 43.53125 35.828125 
Q 39.65625 40.375 33.015625 40.375 
z
M 52.59375 71.296875 
L 52.59375 62.3125 
Q 48.875 64.0625 45.09375 64.984375 
Q 41.3125 65.921875 37.59375 65.921875 
Q 27.828125 65.921875 22.671875 59.328125 
Q 17.53125 52.734375 16.796875 39.40625 
Q 19.671875 43.65625 24.015625 45.921875 
Q 28.375 48.1875 33.59375 48.1875 
Q 44.578125 48.1875 50.953125 41.515625 
Q 57.328125 34.859375 57.328125 23.390625 
Q 57.328125 12.15625 50.6875 5.359375 
Q 44.046875 -1.421875 33.015625 -1.421875 
Q 20.359375 -1.421875 13.671875 8.265625 
Q 6.984375 17.96875 6.984375 36.375 
Q 6.984375 53.65625 15.1875 63.9375 
Q 23.390625 74.21875 37.203125 74.21875 
Q 40.921875 74.21875 44.703125 73.484375 
Q 48.484375 72.75 52.59375 71.296875 
z
" id="DejaVuSans-54"/>
       </defs>
       <use xlink:href="#DejaVuSans-54"/>
      </g>
     </g>
    </g>
    <g id="xtick_5">
     <g id="line2d_9">
      <path clip-path="url(#p0c04be2388)" d="M 97.755429 298.944 
L 97.755429 27.648 
" style="fill:none;stroke:#b0b0b0;stroke-linecap:square;stroke-width:0.8;"/>
     </g>
     <g id="line2d_10">
      <defs>
       <path d="M 0 0 
L 0 2 
" id="m163665104c" style="stroke:#000000;stroke-width:0.6;"/>
      </defs>
      <g>
       <use style="stroke:#000000;stroke-width:0.6;" x="97.755429" xlink:href="#m163665104c" y="298.944"/>
      </g>
     </g>
    </g>
    <g id="xtick_6">
     <g id="line2d_11">
      <path clip-path="url(#p0c04be2388)" d="M 178.066286 298.944 
L 178.066286 27.648 
" style="fill:none;stroke:#b0b0b0;stroke-linecap:square;stroke-width:0.8;"/>
     </g>
     <g id="line2d_12">
      <g>
       <use style="stroke:#000000;stroke-width:0.6;" x="178.066286" xlink:href="#m163665104c" y="298.944"/>
      </g>
     </g>
    </g>
    <g id="xtick_7">
     <g id="line2d_13">
      <path clip-path="url(#p0c04be2388)" d="M 258.377143 298.944 
L 258.377143 27.648 
" style="fill:none;stroke:#b0b0b0;stroke-linecap:square;stroke-width:0.8;"/>
     </g>
     <g id="line2d_14">
      <g>
       <use style="stroke:#000000;stroke-width:0.6;" x="258.377143" xlink:href="#m163665104c" y="298.944"/>
      </g>
     </g>
    </g>
    <g id="xtick_8">
     <g id="line2d_15">
      <path clip-path="url(#p0c04be2388)" d="M 338.688 298.944 
L 338.688 27.648 
" style="fill:none;stroke:#b0b0b0;stroke-linecap:square;stroke-width:0.8;"/>
     </g>
     <g id="line2d_16">
      <g>
       <use style="stroke:#000000;stroke-width:0.6;" x="338.688" xlink:href="#m163665104c" y="298.944"/>
      </g>
     </g>
    </g>
    <g id="text_5">
     <!-- log10(# (f+g)-evals / dimension) -->
     <g transform="translate(58.145016 342.217594)scale(0.17 -0.17)">
      <defs>
       <path d="M 9.421875 75.984375 
L 18.40625 75.984375 
L 18.40625 0 
L 9.421875 0 
z
" id="DejaVuSans-108"/>
       <path d="M 30.609375 48.390625 
Q 23.390625 48.390625 19.1875 42.75 
Q 14.984375 37.109375 14.984375 27.296875 
Q 14.984375 17.484375 19.15625 11.84375 
Q 23.34375 6.203125 30.609375 6.203125 
Q 37.796875 6.203125 41.984375 11.859375 
Q 46.1875 17.53125 46.1875 27.296875 
Q 46.1875 37.015625 41.984375 42.703125 
Q 37.796875 48.390625 30.609375 48.390625 
z
M 30.609375 56 
Q 42.328125 56 49.015625 48.375 
Q 55.71875 40.765625 55.71875 27.296875 
Q 55.71875 13.875 49.015625 6.21875 
Q 42.328125 -1.421875 30.609375 -1.421875 
Q 18.84375 -1.421875 12.171875 6.21875 
Q 5.515625 13.875 5.515625 27.296875 
Q 5.515625 40.765625 12.171875 48.375 
Q 18.84375 56 30.609375 56 
z
" id="DejaVuSans-111"/>
       <path d="M 45.40625 27.984375 
Q 45.40625 37.75 41.375 43.109375 
Q 37.359375 48.484375 30.078125 48.484375 
Q 22.859375 48.484375 18.828125 43.109375 
Q 14.796875 37.75 14.796875 27.984375 
Q 14.796875 18.265625 18.828125 12.890625 
Q 22.859375 7.515625 30.078125 7.515625 
Q 37.359375 7.515625 41.375 12.890625 
Q 45.40625 18.265625 45.40625 27.984375 
z
M 54.390625 6.78125 
Q 54.390625 -7.171875 48.1875 -13.984375 
Q 42 -20.796875 29.203125 -20.796875 
Q 24.46875 -20.796875 20.265625 -20.09375 
Q 16.0625 -19.390625 12.109375 -17.921875 
L 12.109375 -9.1875 
Q 16.0625 -11.328125 19.921875 -12.34375 
Q 23.78125 -13.375 27.78125 -13.375 
Q 36.625 -13.375 41.015625 -8.765625 
Q 45.40625 -4.15625 45.40625 5.171875 
L 45.40625 9.625 
Q 42.625 4.78125 38.28125 2.390625 
Q 33.9375 0 27.875 0 
Q 17.828125 0 11.671875 7.65625 
Q 5.515625 15.328125 5.515625 27.984375 
Q 5.515625 40.671875 11.671875 48.328125 
Q 17.828125 56 27.875 56 
Q 33.9375 56 38.28125 53.609375 
Q 42.625 51.21875 45.40625 46.390625 
L 45.40625 54.6875 
L 54.390625 54.6875 
z
" id="DejaVuSans-103"/>
       <path d="M 12.40625 8.296875 
L 28.515625 8.296875 
L 28.515625 63.921875 
L 10.984375 60.40625 
L 10.984375 69.390625 
L 28.421875 72.90625 
L 38.28125 72.90625 
L 38.28125 8.296875 
L 54.390625 8.296875 
L 54.390625 0 
L 12.40625 0 
z
" id="DejaVuSans-49"/>
       <path d="M 31 75.875 
Q 24.46875 64.65625 21.28125 53.65625 
Q 18.109375 42.671875 18.109375 31.390625 
Q 18.109375 20.125 21.3125 9.0625 
Q 24.515625 -2 31 -13.1875 
L 23.1875 -13.1875 
Q 15.875 -1.703125 12.234375 9.375 
Q 8.59375 20.453125 8.59375 31.390625 
Q 8.59375 42.28125 12.203125 53.3125 
Q 15.828125 64.359375 23.1875 75.875 
z
" id="DejaVuSans-40"/>
       <path d="M 51.125 44 
L 36.921875 44 
L 32.8125 27.6875 
L 47.125 27.6875 
z
M 43.796875 71.78125 
L 38.71875 51.515625 
L 52.984375 51.515625 
L 58.109375 71.78125 
L 65.921875 71.78125 
L 60.890625 51.515625 
L 76.125 51.515625 
L 76.125 44 
L 58.984375 44 
L 54.984375 27.6875 
L 70.515625 27.6875 
L 70.515625 20.21875 
L 53.078125 20.21875 
L 48 0 
L 40.1875 0 
L 45.21875 20.21875 
L 30.90625 20.21875 
L 25.875 0 
L 18.015625 0 
L 23.09375 20.21875 
L 7.71875 20.21875 
L 7.71875 27.6875 
L 24.90625 27.6875 
L 29 44 
L 13.28125 44 
L 13.28125 51.515625 
L 30.90625 51.515625 
L 35.890625 71.78125 
z
" id="DejaVuSans-35"/>
       <path id="DejaVuSans-32"/>
       <path d="M 37.109375 75.984375 
L 37.109375 68.5 
L 28.515625 68.5 
Q 23.6875 68.5 21.796875 66.546875 
Q 19.921875 64.59375 19.921875 59.515625 
L 19.921875 54.6875 
L 34.71875 54.6875 
L 34.71875 47.703125 
L 19.921875 47.703125 
L 19.921875 0 
L 10.890625 0 
L 10.890625 47.703125 
L 2.296875 47.703125 
L 2.296875 54.6875 
L 10.890625 54.6875 
L 10.890625 58.5 
Q 10.890625 67.625 15.140625 71.796875 
Q 19.390625 75.984375 28.609375 75.984375 
z
" id="DejaVuSans-102"/>
       <path d="M 46 62.703125 
L 46 35.5 
L 73.1875 35.5 
L 73.1875 27.203125 
L 46 27.203125 
L 46 0 
L 37.796875 0 
L 37.796875 27.203125 
L 10.59375 27.203125 
L 10.59375 35.5 
L 37.796875 35.5 
L 37.796875 62.703125 
z
" id="DejaVuSans-43"/>
       <path d="M 8.015625 75.875 
L 15.828125 75.875 
Q 23.140625 64.359375 26.78125 53.3125 
Q 30.421875 42.28125 30.421875 31.390625 
Q 30.421875 20.453125 26.78125 9.375 
Q 23.140625 -1.703125 15.828125 -13.1875 
L 8.015625 -13.1875 
Q 14.5 -2 17.703125 9.0625 
Q 20.90625 20.125 20.90625 31.390625 
Q 20.90625 42.671875 17.703125 53.65625 
Q 14.5 64.65625 8.015625 75.875 
z
" id="DejaVuSans-41"/>
       <path d="M 4.890625 31.390625 
L 31.203125 31.390625 
L 31.203125 23.390625 
L 4.890625 23.390625 
z
" id="DejaVuSans-45"/>
       <path d="M 56.203125 29.59375 
L 56.203125 25.203125 
L 14.890625 25.203125 
Q 15.484375 15.921875 20.484375 11.0625 
Q 25.484375 6.203125 34.421875 6.203125 
Q 39.59375 6.203125 44.453125 7.46875 
Q 49.3125 8.734375 54.109375 11.28125 
L 54.109375 2.78125 
Q 49.265625 0.734375 44.1875 -0.34375 
Q 39.109375 -1.421875 33.890625 -1.421875 
Q 20.796875 -1.421875 13.15625 6.1875 
Q 5.515625 13.8125 5.515625 26.8125 
Q 5.515625 40.234375 12.765625 48.109375 
Q 20.015625 56 32.328125 56 
Q 43.359375 56 49.78125 48.890625 
Q 56.203125 41.796875 56.203125 29.59375 
z
M 47.21875 32.234375 
Q 47.125 39.59375 43.09375 43.984375 
Q 39.0625 48.390625 32.421875 48.390625 
Q 24.90625 48.390625 20.390625 44.140625 
Q 15.875 39.890625 15.1875 32.171875 
z
" id="DejaVuSans-101"/>
       <path d="M 2.984375 54.6875 
L 12.5 54.6875 
L 29.59375 8.796875 
L 46.6875 54.6875 
L 56.203125 54.6875 
L 35.6875 0 
L 23.484375 0 
z
" id="DejaVuSans-118"/>
       <path d="M 34.28125 27.484375 
Q 23.390625 27.484375 19.1875 25 
Q 14.984375 22.515625 14.984375 16.5 
Q 14.984375 11.71875 18.140625 8.90625 
Q 21.296875 6.109375 26.703125 6.109375 
Q 34.1875 6.109375 38.703125 11.40625 
Q 43.21875 16.703125 43.21875 25.484375 
L 43.21875 27.484375 
z
M 52.203125 31.203125 
L 52.203125 0 
L 43.21875 0 
L 43.21875 8.296875 
Q 40.140625 3.328125 35.546875 0.953125 
Q 30.953125 -1.421875 24.3125 -1.421875 
Q 15.921875 -1.421875 10.953125 3.296875 
Q 6 8.015625 6 15.921875 
Q 6 25.140625 12.171875 29.828125 
Q 18.359375 34.515625 30.609375 34.515625 
L 43.21875 34.515625 
L 43.21875 35.40625 
Q 43.21875 41.609375 39.140625 45 
Q 35.0625 48.390625 27.6875 48.390625 
Q 23 48.390625 18.546875 47.265625 
Q 14.109375 46.140625 10.015625 43.890625 
L 10.015625 52.203125 
Q 14.9375 54.109375 19.578125 55.046875 
Q 24.21875 56 28.609375 56 
Q 40.484375 56 46.34375 49.84375 
Q 52.203125 43.703125 52.203125 31.203125 
z
" id="DejaVuSans-97"/>
       <path d="M 44.28125 53.078125 
L 44.28125 44.578125 
Q 40.484375 46.53125 36.375 47.5 
Q 32.28125 48.484375 27.875 48.484375 
Q 21.1875 48.484375 17.84375 46.4375 
Q 14.5 44.390625 14.5 40.28125 
Q 14.5 37.15625 16.890625 35.375 
Q 19.28125 33.59375 26.515625 31.984375 
L 29.59375 31.296875 
Q 39.15625 29.25 43.1875 25.515625 
Q 47.21875 21.78125 47.21875 15.09375 
Q 47.21875 7.46875 41.1875 3.015625 
Q 35.15625 -1.421875 24.609375 -1.421875 
Q 20.21875 -1.421875 15.453125 -0.5625 
Q 10.6875 0.296875 5.421875 2 
L 5.421875 11.28125 
Q 10.40625 8.6875 15.234375 7.390625 
Q 20.0625 6.109375 24.8125 6.109375 
Q 31.15625 6.109375 34.5625 8.28125 
Q 37.984375 10.453125 37.984375 14.40625 
Q 37.984375 18.0625 35.515625 20.015625 
Q 33.0625 21.96875 24.703125 23.78125 
L 21.578125 24.515625 
Q 13.234375 26.265625 9.515625 29.90625 
Q 5.8125 33.546875 5.8125 39.890625 
Q 5.8125 47.609375 11.28125 51.796875 
Q 16.75 56 26.8125 56 
Q 31.78125 56 36.171875 55.265625 
Q 40.578125 54.546875 44.28125 53.078125 
z
" id="DejaVuSans-115"/>
       <path d="M 25.390625 72.90625 
L 33.6875 72.90625 
L 8.296875 -9.28125 
L 0 -9.28125 
z
" id="DejaVuSans-47"/>
       <path d="M 45.40625 46.390625 
L 45.40625 75.984375 
L 54.390625 75.984375 
L 54.390625 0 
L 45.40625 0 
L 45.40625 8.203125 
Q 42.578125 3.328125 38.25 0.953125 
Q 33.9375 -1.421875 27.875 -1.421875 
Q 17.96875 -1.421875 11.734375 6.484375 
Q 5.515625 14.40625 5.515625 27.296875 
Q 5.515625 40.1875 11.734375 48.09375 
Q 17.96875 56 27.875 56 
Q 33.9375 56 38.25 53.625 
Q 42.578125 51.265625 45.40625 46.390625 
z
M 14.796875 27.296875 
Q 14.796875 17.390625 18.875 11.75 
Q 22.953125 6.109375 30.078125 6.109375 
Q 37.203125 6.109375 41.296875 11.75 
Q 45.40625 17.390625 45.40625 27.296875 
Q 45.40625 37.203125 41.296875 42.84375 
Q 37.203125 48.484375 30.078125 48.484375 
Q 22.953125 48.484375 18.875 42.84375 
Q 14.796875 37.203125 14.796875 27.296875 
z
" id="DejaVuSans-100"/>
       <path d="M 9.421875 54.6875 
L 18.40625 54.6875 
L 18.40625 0 
L 9.421875 0 
z
M 9.421875 75.984375 
L 18.40625 75.984375 
L 18.40625 64.59375 
L 9.421875 64.59375 
z
" id="DejaVuSans-105"/>
       <path d="M 52 44.1875 
Q 55.375 50.25 60.0625 53.125 
Q 64.75 56 71.09375 56 
Q 79.640625 56 84.28125 50.015625 
Q 88.921875 44.046875 88.921875 33.015625 
L 88.921875 0 
L 79.890625 0 
L 79.890625 32.71875 
Q 79.890625 40.578125 77.09375 44.375 
Q 74.3125 48.1875 68.609375 48.1875 
Q 61.625 48.1875 57.5625 43.546875 
Q 53.515625 38.921875 53.515625 30.90625 
L 53.515625 0 
L 44.484375 0 
L 44.484375 32.71875 
Q 44.484375 40.625 41.703125 44.40625 
Q 38.921875 48.1875 33.109375 48.1875 
Q 26.21875 48.1875 22.15625 43.53125 
Q 18.109375 38.875 18.109375 30.90625 
L 18.109375 0 
L 9.078125 0 
L 9.078125 54.6875 
L 18.109375 54.6875 
L 18.109375 46.1875 
Q 21.1875 51.21875 25.484375 53.609375 
Q 29.78125 56 35.6875 56 
Q 41.65625 56 45.828125 52.96875 
Q 50 49.953125 52 44.1875 
z
" id="DejaVuSans-109"/>
       <path d="M 54.890625 33.015625 
L 54.890625 0 
L 45.90625 0 
L 45.90625 32.71875 
Q 45.90625 40.484375 42.875 44.328125 
Q 39.84375 48.1875 33.796875 48.1875 
Q 26.515625 48.1875 22.3125 43.546875 
Q 18.109375 38.921875 18.109375 30.90625 
L 18.109375 0 
L 9.078125 0 
L 9.078125 54.6875 
L 18.109375 54.6875 
L 18.109375 46.1875 
Q 21.34375 51.125 25.703125 53.5625 
Q 30.078125 56 35.796875 56 
Q 45.21875 56 50.046875 50.171875 
Q 54.890625 44.34375 54.890625 33.015625 
z
" id="DejaVuSans-110"/>
      </defs>
      <use xlink:href="#DejaVuSans-108"/>
      <use x="27.783203" xlink:href="#DejaVuSans-111"/>
      <use x="88.964844" xlink:href="#DejaVuSans-103"/>
      <use x="152.441406" xlink:href="#DejaVuSans-49"/>
      <use x="216.064453" xlink:href="#DejaVuSans-48"/>
      <use x="279.6875" xlink:href="#DejaVuSans-40"/>
      <use x="318.701172" xlink:href="#DejaVuSans-35"/>
      <use x="402.490234" xlink:href="#DejaVuSans-32"/>
      <use x="434.277344" xlink:href="#DejaVuSans-40"/>
      <use x="473.291016" xlink:href="#DejaVuSans-102"/>
      <use x="508.496094" xlink:href="#DejaVuSans-43"/>
      <use x="592.285156" xlink:href="#DejaVuSans-103"/>
      <use x="655.761719" xlink:href="#DejaVuSans-41"/>
      <use x="694.775391" xlink:href="#DejaVuSans-45"/>
      <use x="730.859375" xlink:href="#DejaVuSans-101"/>
      <use x="792.382812" xlink:href="#DejaVuSans-118"/>
      <use x="851.5625" xlink:href="#DejaVuSans-97"/>
      <use x="912.841797" xlink:href="#DejaVuSans-108"/>
      <use x="940.625" xlink:href="#DejaVuSans-115"/>
      <use x="992.724609" xlink:href="#DejaVuSans-32"/>
      <use x="1024.511719" xlink:href="#DejaVuSans-47"/>
      <use x="1058.203125" xlink:href="#DejaVuSans-32"/>
      <use x="1089.990234" xlink:href="#DejaVuSans-100"/>
      <use x="1153.466797" xlink:href="#DejaVuSans-105"/>
      <use x="1181.25" xlink:href="#DejaVuSans-109"/>
      <use x="1278.662109" xlink:href="#DejaVuSans-101"/>
      <use x="1340.185547" xlink:href="#DejaVuSans-110"/>
      <use x="1403.564453" xlink:href="#DejaVuSans-115"/>
      <use x="1455.664062" xlink:href="#DejaVuSans-105"/>
      <use x="1483.447266" xlink:href="#DejaVuSans-111"/>
      <use x="1544.628906" xlink:href="#DejaVuSans-110"/>
      <use x="1608.007812" xlink:href="#DejaVuSans-41"/>
     </g>
    </g>
   </g>
   <g id="matplotlib.axis_2">
    <g id="ytick_1">
     <g id="line2d_17">
      <path clip-path="url(#p0c04be2388)" d="M 57.6 298.944 
L 338.688 298.944 
" style="fill:none;stroke:#b0b0b0;stroke-linecap:square;stroke-width:0.8;"/>
     </g>
     <g id="line2d_18">
      <defs>
       <path d="M 0 0 
L -3.5 0 
" id="mef2c7c56c3" style="stroke:#000000;stroke-width:0.8;"/>
      </defs>
      <g>
       <use style="stroke:#000000;stroke-width:0.8;" x="57.6" xlink:href="#mef2c7c56c3" y="298.944"/>
      </g>
     </g>
     <g id="text_6">
      <!-- 0.0 -->
      <g transform="translate(25.155 305.02275)scale(0.16 -0.16)">
       <defs>
        <path d="M 10.6875 12.40625 
L 21 12.40625 
L 21 0 
L 10.6875 0 
z
" id="DejaVuSans-46"/>
       </defs>
       <use xlink:href="#DejaVuSans-48"/>
       <use x="63.623047" xlink:href="#DejaVuSans-46"/>
       <use x="95.410156" xlink:href="#DejaVuSans-48"/>
      </g>
     </g>
    </g>
    <g id="ytick_2">
     <g id="line2d_19">
      <path clip-path="url(#p0c04be2388)" d="M 57.6 245.22202 
L 338.688 245.22202 
" style="fill:none;stroke:#b0b0b0;stroke-linecap:square;stroke-width:0.8;"/>
     </g>
     <g id="line2d_20">
      <g>
       <use style="stroke:#000000;stroke-width:0.8;" x="57.6" xlink:href="#mef2c7c56c3" y="245.22202"/>
      </g>
     </g>
     <g id="text_7">
      <!-- 0.2 -->
      <g transform="translate(25.155 251.30077)scale(0.16 -0.16)">
       <use xlink:href="#DejaVuSans-48"/>
       <use x="63.623047" xlink:href="#DejaVuSans-46"/>
       <use x="95.410156" xlink:href="#DejaVuSans-50"/>
      </g>
     </g>
    </g>
    <g id="ytick_3">
     <g id="line2d_21">
      <path clip-path="url(#p0c04be2388)" d="M 57.6 191.50004 
L 338.688 191.50004 
" style="fill:none;stroke:#b0b0b0;stroke-linecap:square;stroke-width:0.8;"/>
     </g>
     <g id="line2d_22">
      <g>
       <use style="stroke:#000000;stroke-width:0.8;" x="57.6" xlink:href="#mef2c7c56c3" y="191.50004"/>
      </g>
     </g>
     <g id="text_8">
      <!-- 0.4 -->
      <g transform="translate(25.155 197.57879)scale(0.16 -0.16)">
       <use xlink:href="#DejaVuSans-48"/>
       <use x="63.623047" xlink:href="#DejaVuSans-46"/>
       <use x="95.410156" xlink:href="#DejaVuSans-52"/>
      </g>
     </g>
    </g>
    <g id="ytick_4">
     <g id="line2d_23">
      <path clip-path="url(#p0c04be2388)" d="M 57.6 137.778059 
L 338.688 137.778059 
" style="fill:none;stroke:#b0b0b0;stroke-linecap:square;stroke-width:0.8;"/>
     </g>
     <g id="line2d_24">
      <g>
       <use style="stroke:#000000;stroke-width:0.8;" x="57.6" xlink:href="#mef2c7c56c3" y="137.778059"/>
      </g>
     </g>
     <g id="text_9">
      <!-- 0.6 -->
      <g transform="translate(25.155 143.856809)scale(0.16 -0.16)">
       <use xlink:href="#DejaVuSans-48"/>
       <use x="63.623047" xlink:href="#DejaVuSans-46"/>
       <use x="95.410156" xlink:href="#DejaVuSans-54"/>
      </g>
     </g>
    </g>
    <g id="ytick_5">
     <g id="line2d_25">
      <path clip-path="url(#p0c04be2388)" d="M 57.6 84.056079 
L 338.688 84.056079 
" style="fill:none;stroke:#b0b0b0;stroke-linecap:square;stroke-width:0.8;"/>
     </g>
     <g id="line2d_26">
      <g>
       <use style="stroke:#000000;stroke-width:0.8;" x="57.6" xlink:href="#mef2c7c56c3" y="84.056079"/>
      </g>
     </g>
     <g id="text_10">
      <!-- 0.8 -->
      <g transform="translate(25.155 90.134829)scale(0.16 -0.16)">
       <defs>
        <path d="M 31.78125 34.625 
Q 24.75 34.625 20.71875 30.859375 
Q 16.703125 27.09375 16.703125 20.515625 
Q 16.703125 13.921875 20.71875 10.15625 
Q 24.75 6.390625 31.78125 6.390625 
Q 38.8125 6.390625 42.859375 10.171875 
Q 46.921875 13.96875 46.921875 20.515625 
Q 46.921875 27.09375 42.890625 30.859375 
Q 38.875 34.625 31.78125 34.625 
z
M 21.921875 38.8125 
Q 15.578125 40.375 12.03125 44.71875 
Q 8.5 49.078125 8.5 55.328125 
Q 8.5 64.0625 14.71875 69.140625 
Q 20.953125 74.21875 31.78125 74.21875 
Q 42.671875 74.21875 48.875 69.140625 
Q 55.078125 64.0625 55.078125 55.328125 
Q 55.078125 49.078125 51.53125 44.71875 
Q 48 40.375 41.703125 38.8125 
Q 48.828125 37.15625 52.796875 32.3125 
Q 56.78125 27.484375 56.78125 20.515625 
Q 56.78125 9.90625 50.3125 4.234375 
Q 43.84375 -1.421875 31.78125 -1.421875 
Q 19.734375 -1.421875 13.25 4.234375 
Q 6.78125 9.90625 6.78125 20.515625 
Q 6.78125 27.484375 10.78125 32.3125 
Q 14.796875 37.15625 21.921875 38.8125 
z
M 18.3125 54.390625 
Q 18.3125 48.734375 21.84375 45.5625 
Q 25.390625 42.390625 31.78125 42.390625 
Q 38.140625 42.390625 41.71875 45.5625 
Q 45.3125 48.734375 45.3125 54.390625 
Q 45.3125 60.0625 41.71875 63.234375 
Q 38.140625 66.40625 31.78125 66.40625 
Q 25.390625 66.40625 21.84375 63.234375 
Q 18.3125 60.0625 18.3125 54.390625 
z
" id="DejaVuSans-56"/>
       </defs>
       <use xlink:href="#DejaVuSans-48"/>
       <use x="63.623047" xlink:href="#DejaVuSans-46"/>
       <use x="95.410156" xlink:href="#DejaVuSans-56"/>
      </g>
     </g>
    </g>
    <g id="ytick_6">
     <g id="line2d_27">
      <path clip-path="url(#p0c04be2388)" d="M 57.6 30.334099 
L 338.688 30.334099 
" style="fill:none;stroke:#b0b0b0;stroke-linecap:square;stroke-width:0.8;"/>
     </g>
     <g id="line2d_28">
      <g>
       <use style="stroke:#000000;stroke-width:0.8;" x="57.6" xlink:href="#mef2c7c56c3" y="30.334099"/>
      </g>
     </g>
     <g id="text_11">
      <!-- 1.0 -->
      <g transform="translate(25.155 36.412849)scale(0.16 -0.16)">
       <use xlink:href="#DejaVuSans-49"/>
       <use x="63.623047" xlink:href="#DejaVuSans-46"/>
       <use x="95.410156" xlink:href="#DejaVuSans-48"/>
      </g>
     </g>
    </g>
    <g id="text_12">
     <!-- Fraction of function,target pairs -->
     <g transform="translate(17.619531 297.681)rotate(-90)scale(0.17 -0.17)">
      <defs>
       <path d="M 9.8125 72.90625 
L 51.703125 72.90625 
L 51.703125 64.59375 
L 19.671875 64.59375 
L 19.671875 43.109375 
L 48.578125 43.109375 
L 48.578125 34.8125 
L 19.671875 34.8125 
L 19.671875 0 
L 9.8125 0 
z
" id="DejaVuSans-70"/>
       <path d="M 41.109375 46.296875 
Q 39.59375 47.171875 37.8125 47.578125 
Q 36.03125 48 33.890625 48 
Q 26.265625 48 22.1875 43.046875 
Q 18.109375 38.09375 18.109375 28.8125 
L 18.109375 0 
L 9.078125 0 
L 9.078125 54.6875 
L 18.109375 54.6875 
L 18.109375 46.1875 
Q 20.953125 51.171875 25.484375 53.578125 
Q 30.03125 56 36.53125 56 
Q 37.453125 56 38.578125 55.875 
Q 39.703125 55.765625 41.0625 55.515625 
z
" id="DejaVuSans-114"/>
       <path d="M 48.78125 52.59375 
L 48.78125 44.1875 
Q 44.96875 46.296875 41.140625 47.34375 
Q 37.3125 48.390625 33.40625 48.390625 
Q 24.65625 48.390625 19.8125 42.84375 
Q 14.984375 37.3125 14.984375 27.296875 
Q 14.984375 17.28125 19.8125 11.734375 
Q 24.65625 6.203125 33.40625 6.203125 
Q 37.3125 6.203125 41.140625 7.25 
Q 44.96875 8.296875 48.78125 10.40625 
L 48.78125 2.09375 
Q 45.015625 0.34375 40.984375 -0.53125 
Q 36.96875 -1.421875 32.421875 -1.421875 
Q 20.0625 -1.421875 12.78125 6.34375 
Q 5.515625 14.109375 5.515625 27.296875 
Q 5.515625 40.671875 12.859375 48.328125 
Q 20.21875 56 33.015625 56 
Q 37.15625 56 41.109375 55.140625 
Q 45.0625 54.296875 48.78125 52.59375 
z
" id="DejaVuSans-99"/>
       <path d="M 18.3125 70.21875 
L 18.3125 54.6875 
L 36.8125 54.6875 
L 36.8125 47.703125 
L 18.3125 47.703125 
L 18.3125 18.015625 
Q 18.3125 11.328125 20.140625 9.421875 
Q 21.96875 7.515625 27.59375 7.515625 
L 36.8125 7.515625 
L 36.8125 0 
L 27.59375 0 
Q 17.1875 0 13.234375 3.875 
Q 9.28125 7.765625 9.28125 18.015625 
L 9.28125 47.703125 
L 2.6875 47.703125 
L 2.6875 54.6875 
L 9.28125 54.6875 
L 9.28125 70.21875 
z
" id="DejaVuSans-116"/>
       <path d="M 8.5 21.578125 
L 8.5 54.6875 
L 17.484375 54.6875 
L 17.484375 21.921875 
Q 17.484375 14.15625 20.5 10.265625 
Q 23.53125 6.390625 29.59375 6.390625 
Q 36.859375 6.390625 41.078125 11.03125 
Q 45.3125 15.671875 45.3125 23.6875 
L 45.3125 54.6875 
L 54.296875 54.6875 
L 54.296875 0 
L 45.3125 0 
L 45.3125 8.40625 
Q 42.046875 3.421875 37.71875 1 
Q 33.40625 -1.421875 27.6875 -1.421875 
Q 18.265625 -1.421875 13.375 4.4375 
Q 8.5 10.296875 8.5 21.578125 
z
M 31.109375 56 
z
" id="DejaVuSans-117"/>
       <path d="M 11.71875 12.40625 
L 22.015625 12.40625 
L 22.015625 4 
L 14.015625 -11.625 
L 7.71875 -11.625 
L 11.71875 4 
z
" id="DejaVuSans-44"/>
       <path d="M 18.109375 8.203125 
L 18.109375 -20.796875 
L 9.078125 -20.796875 
L 9.078125 54.6875 
L 18.109375 54.6875 
L 18.109375 46.390625 
Q 20.953125 51.265625 25.265625 53.625 
Q 29.59375 56 35.59375 56 
Q 45.5625 56 51.78125 48.09375 
Q 58.015625 40.1875 58.015625 27.296875 
Q 58.015625 14.40625 51.78125 6.484375 
Q 45.5625 -1.421875 35.59375 -1.421875 
Q 29.59375 -1.421875 25.265625 0.953125 
Q 20.953125 3.328125 18.109375 8.203125 
z
M 48.6875 27.296875 
Q 48.6875 37.203125 44.609375 42.84375 
Q 40.53125 48.484375 33.40625 48.484375 
Q 26.265625 48.484375 22.1875 42.84375 
Q 18.109375 37.203125 18.109375 27.296875 
Q 18.109375 17.390625 22.1875 11.75 
Q 26.265625 6.109375 33.40625 6.109375 
Q 40.53125 6.109375 44.609375 11.75 
Q 48.6875 17.390625 48.6875 27.296875 
z
" id="DejaVuSans-112"/>
      </defs>
      <use xlink:href="#DejaVuSans-70"/>
      <use x="50.269531" xlink:href="#DejaVuSans-114"/>
      <use x="91.382812" xlink:href="#DejaVuSans-97"/>
      <use x="152.662109" xlink:href="#DejaVuSans-99"/>
      <use x="207.642578" xlink:href="#DejaVuSans-116"/>
      <use x="246.851562" xlink:href="#DejaVuSans-105"/>
      <use x="274.634766" xlink:href="#DejaVuSans-111"/>
      <use x="335.816406" xlink:href="#DejaVuSans-110"/>
      <use x="399.195312" xlink:href="#DejaVuSans-32"/>
      <use x="430.982422" xlink:href="#DejaVuSans-111"/>
      <use x="492.164062" xlink:href="#DejaVuSans-102"/>
      <use x="527.369141" xlink:href="#DejaVuSans-32"/>
      <use x="559.15625" xlink:href="#DejaVuSans-102"/>
      <use x="594.361328" xlink:href="#DejaVuSans-117"/>
      <use x="657.740234" xlink:href="#DejaVuSans-110"/>
      <use x="721.119141" xlink:href="#DejaVuSans-99"/>
      <use x="776.099609" xlink:href="#DejaVuSans-116"/>
      <use x="815.308594" xlink:href="#DejaVuSans-105"/>
      <use x="843.091797" xlink:href="#DejaVuSans-111"/>
      <use x="904.273438" xlink:href="#DejaVuSans-110"/>
      <use x="967.652344" xlink:href="#DejaVuSans-44"/>
      <use x="999.439453" xlink:href="#DejaVuSans-116"/>
      <use x="1038.648438" xlink:href="#DejaVuSans-97"/>
      <use x="1099.927734" xlink:href="#DejaVuSans-114"/>
      <use x="1139.291016" xlink:href="#DejaVuSans-103"/>
      <use x="1202.767578" xlink:href="#DejaVuSans-101"/>
      <use x="1264.291016" xlink:href="#DejaVuSans-116"/>
      <use x="1303.5" xlink:href="#DejaVuSans-32"/>
      <use x="1335.287109" xlink:href="#DejaVuSans-112"/>
      <use x="1398.763672" xlink:href="#DejaVuSans-97"/>
      <use x="1460.042969" xlink:href="#DejaVuSans-105"/>
      <use x="1487.826172" xlink:href="#DejaVuSans-114"/>
      <use x="1528.939453" xlink:href="#DejaVuSans-115"/>
     </g>
    </g>
   </g>
   <g id="line2d_29">
    <defs>
     <path d="M 0 1.5 
C 0.397805 1.5 0.77937 1.341951 1.06066 1.06066 
C 1.341951 0.77937 1.5 0.397805 1.5 0 
C 1.5 -0.397805 1.341951 -0.77937 1.06066 -1.06066 
C 0.77937 -1.341951 0.397805 -1.5 0 -1.5 
C -0.397805 -1.5 -0.77937 -1.341951 -1.06066 -1.06066 
C -1.341951 -0.77937 -1.5 -0.397805 -1.5 0 
C -1.5 0.397805 -1.341951 0.77937 -1.06066 1.06066 
C -0.77937 1.341951 -0.397805 1.5 0 1.5 
z
" id="m7903a22af1" style="stroke:#000080;"/>
    </defs>
    <g>
     <use style="fill:#000080;stroke:#000080;" x="215.586739" xlink:href="#m7903a22af1" y="30.334099"/>
     <use style="fill:#000080;stroke:#000080;" x="215.586739" xlink:href="#m7903a22af1" y="30.334099"/>
    </g>
   </g>
   <g id="line2d_30">
    <path d="M 80.258561 298.944 
L 80.258561 296.978562 
L 83.171864 296.978562 
L 83.171864 294.357977 
L 85.66744 294.357977 
L 85.66744 289.771955 
L 87.850195 289.771955 
L 87.850195 287.806516 
L 89.78989 287.806516 
L 89.78989 285.841078 
L 91.535274 285.841078 
L 91.535274 273.393302 
L 93.121756 273.393302 
L 93.121756 270.117572 
L 94.575872 270.117572 
L 94.575872 269.462426 
L 95.918017 269.462426 
L 95.918017 261.600672 
L 97.16421 261.600672 
L 97.16421 256.359504 
L 98.32726 256.359504 
L 98.32726 251.773481 
L 99.41757 251.773481 
L 99.41757 251.118335 
L 101.412804 251.118335 
L 101.412804 249.808043 
L 102.330873 249.808043 
L 102.330873 247.187458 
L 103.203018 247.187458 
L 103.203018 246.532312 
L 104.033617 246.532312 
L 104.033617 243.256582 
L 104.826449 243.256582 
L 104.826449 239.980851 
L 105.584798 239.980851 
L 105.584798 238.670559 
L 106.311539 238.670559 
L 106.311539 234.739682 
L 107.009204 234.739682 
L 107.009204 231.463952 
L 107.680028 231.463952 
L 107.680028 226.877929 
L 108.326001 226.877929 
L 108.326001 225.567637 
L 108.948899 225.567637 
L 108.948899 215.085299 
L 109.550313 215.085299 
L 109.550313 211.154423 
L 110.131676 211.154423 
L 110.131676 203.947816 
L 110.694282 203.947816 
L 110.694282 187.569163 
L 111.239304 187.569163 
L 111.239304 184.948579 
L 111.767808 184.948579 
L 111.767808 178.397118 
L 112.280765 178.397118 
L 112.280765 174.466241 
L 112.779064 174.466241 
L 112.779064 172.500803 
L 113.26352 172.500803 
L 113.26352 169.225072 
L 113.73488 169.225072 
L 113.73488 164.63905 
L 114.193835 164.63905 
L 114.193835 156.777296 
L 114.641021 156.777296 
L 114.641021 146.294959 
L 115.077025 146.294959 
L 115.077025 144.32952 
L 115.502395 144.32952 
L 115.502395 135.812621 
L 115.917635 135.812621 
L 115.917635 133.847183 
L 116.323218 133.847183 
L 116.323218 126.640576 
L 116.719583 126.640576 
L 116.719583 122.054553 
L 117.107138 122.054553 
L 117.107138 115.503092 
L 117.486268 115.503092 
L 117.486268 110.917069 
L 117.857331 110.917069 
L 117.857331 108.296485 
L 118.220662 108.296485 
L 118.220662 104.365608 
L 118.576578 104.365608 
L 118.576578 101.745024 
L 119.267333 101.745024 
L 119.267333 99.12444 
L 119.602714 99.12444 
L 119.602714 98.469293 
L 119.931767 98.469293 
L 119.931767 93.228125 
L 120.571812 93.228125 
L 120.571812 91.917832 
L 121.189196 91.917832 
L 121.189196 91.262686 
L 121.489881 91.262686 
L 121.489881 86.021518 
L 123.192626 86.021518 
L 123.192626 85.366371 
L 130.752422 85.366371 
L 130.752422 84.711225 
L 132.101058 84.711225 
L 132.101058 84.056079 
L 132.581068 84.056079 
L 132.581068 83.400933 
L 132.893889 83.400933 
L 132.893889 82.090641 
L 133.04822 82.090641 
L 133.04822 81.435495 
L 133.800029 81.435495 
L 133.800029 79.470057 
L 133.946579 79.470057 
L 133.946579 77.504618 
L 134.236034 77.504618 
L 134.236034 76.849472 
L 134.661403 76.849472 
L 134.661403 74.884034 
L 135.482227 74.884034 
L 135.482227 71.608303 
L 140.44901 71.608303 
L 140.44901 70.953157 
L 143.31586 70.953157 
L 143.31586 69.642865 
L 143.569835 69.642865 
L 143.569835 68.987719 
L 145.251067 68.987719 
L 145.251067 68.332573 
L 145.703082 68.332573 
L 145.703082 67.677427 
L 145.924771 67.677427 
L 145.924771 65.056842 
L 146.784375 65.056842 
L 146.784375 64.401696 
L 150.085825 64.401696 
L 150.085825 63.74655 
L 150.201126 63.74655 
L 150.201126 63.091404 
L 150.542526 63.091404 
L 150.542526 62.436258 
L 151.634543 62.436258 
L 151.634543 61.781112 
L 152.309362 61.781112 
L 152.360205 60.47082 
L 153.936752 60.47082 
L 153.936752 59.815674 
L 154.167129 59.815674 
L 154.167129 59.160527 
L 154.46214 59.160527 
L 154.46214 58.505381 
L 155.970177 58.505381 
L 155.970177 57.850235 
L 158.959517 57.850235 
L 159.046236 56.539943 
L 160.680044 56.539943 
L 160.680044 55.884797 
L 162.854457 55.884797 
L 162.854457 55.229651 
L 163.103002 55.229651 
L 163.103002 54.574505 
L 164.166702 54.574505 
L 164.166702 53.919359 
L 164.42279 53.919359 
L 164.524182 52.609066 
L 164.800007 52.609066 
L 164.800007 51.95392 
L 167.320442 51.95392 
L 167.320442 51.298774 
L 167.682664 51.298774 
L 167.682664 50.643628 
L 167.954668 50.643628 
L 167.954668 49.988482 
L 169.041203 49.988482 
L 169.109344 48.67819 
L 171.485334 48.67819 
L 171.485334 48.023044 
L 172.893608 48.023044 
L 172.893608 47.367898 
L 173.829915 47.367898 
L 173.829915 46.712752 
L 174.816832 46.712752 
L 174.816832 46.057605 
L 175.684365 46.057605 
L 175.684365 45.402459 
L 176.125223 45.402459 
L 176.125223 44.747313 
L 178.966907 44.747313 
L 178.966907 44.092167 
L 179.159062 44.092167 
L 179.159062 43.437021 
L 180.341123 43.437021 
L 180.341123 42.781875 
L 181.742504 42.781875 
L 181.742504 42.126729 
L 182.225412 42.126729 
L 182.225412 41.471583 
L 182.60592 41.471583 
L 182.60592 40.816437 
L 182.84622 40.816437 
L 182.84622 40.161291 
L 186.389511 40.161291 
L 186.389511 39.506144 
L 188.960428 39.506144 
L 188.960428 38.850998 
L 189.363471 38.850998 
L 189.363471 38.195852 
L 191.35591 38.195852 
L 191.35591 37.540706 
L 191.552844 37.540706 
L 191.552844 36.88556 
L 192.039578 36.88556 
L 192.039578 36.230414 
L 192.218657 36.230414 
L 192.218657 35.575268 
L 193.018544 35.575268 
L 193.018544 34.920122 
L 196.218231 34.920122 
L 196.218231 34.264976 
L 196.819506 34.264976 
L 196.819506 33.60983 
L 199.88365 33.60983 
L 199.88365 32.954683 
L 200.15439 32.954683 
L 200.15439 32.299537 
L 207.028825 32.299537 
L 207.028825 31.644391 
L 210.715429 31.644391 
L 210.715429 30.989245 
L 215.586739 30.989245 
L 215.586739 30.334099 
L 338.688 30.334099 
L 338.688 30.334099 
" style="fill:none;stroke:#000080;stroke-linecap:square;stroke-width:1.5;"/>
   </g>
   <g id="line2d_31">
    <defs>
     <path d="M 0 6 
C 1.591219 6 3.117479 5.367802 4.242641 4.242641 
C 5.367802 3.117479 6 1.591219 6 0 
C 6 -1.591219 5.367802 -3.117479 4.242641 -4.242641 
C 3.117479 -5.367802 1.591219 -6 0 -6 
C -1.591219 -6 -3.117479 -5.367802 -4.242641 -4.242641 
C -5.367802 -3.117479 -6 -1.591219 -6 0 
C -6 1.591219 -5.367802 3.117479 -4.242641 4.242641 
C -3.117479 5.367802 -1.591219 6 0 6 
z
" id="mca2da880f5" style="stroke:#000080;stroke-width:1.5;"/>
    </defs>
    <g>
     <use style="fill-opacity:0;stroke:#000080;stroke-width:1.5;" x="110.131676" xlink:href="#mca2da880f5" y="203.947816"/>
     <use style="fill-opacity:0;stroke:#000080;stroke-width:1.5;" x="135.482227" xlink:href="#mca2da880f5" y="71.608303"/>
     <use style="fill-opacity:0;stroke:#000080;stroke-width:1.5;" x="215.586739" xlink:href="#mca2da880f5" y="30.989245"/>
     <use style="fill-opacity:0;stroke:#000080;stroke-width:1.5;" x="215.586739" xlink:href="#mca2da880f5" y="30.334099"/>
     <use style="fill-opacity:0;stroke:#000080;stroke-width:1.5;" x="338.688" xlink:href="#mca2da880f5" y="30.334099"/>
    </g>
   </g>
   <g id="line2d_32">
    <path style="fill:none;stroke:#000080;stroke-linecap:square;stroke-width:1.5;"/>
    <g/>
   </g>
   <g id="line2d_33">
    <path clip-path="url(#p0c04be2388)" d="M 161.054091 55.884797 
" style="fill:none;stroke:#000080;stroke-linecap:square;stroke-width:1.5;"/>
    <defs>
     <path d="M -12 12 
L 12 -12 
M -12 -12 
L 12 12 
" id="m0935f53c55" style="stroke:#000080;"/>
    </defs>
    <g clip-path="url(#p0c04be2388)">
     <use style="fill:#000080;stroke:#000080;" x="161.054091" xlink:href="#m0935f53c55" y="55.884797"/>
    </g>
   </g>
   <g id="line2d_34">
    <defs>
     <path d="M 0 1.5 
C 0.397805 1.5 0.77937 1.341951 1.06066 1.06066 
C 1.341951 0.77937 1.5 0.397805 1.5 0 
C 1.5 -0.397805 1.341951 -0.77937 1.06066 -1.06066 
C 0.77937 -1.341951 0.397805 -1.5 0 -1.5 
C -0.397805 -1.5 -0.77937 -1.341951 -1.06066 -1.06066 
C -1.341951 -0.77937 -1.5 -0.397805 -1.5 0 
C -1.5 0.397805 -1.341951 0.77937 -1.06066 1.06066 
C -0.77937 1.341951 -0.397805 1.5 0 1.5 
z
" id="m785c11be77" style="stroke:#ff00ff;"/>
    </defs>
    <g>
     <use style="fill:#ff00ff;stroke:#ff00ff;" x="277.341885" xlink:href="#m785c11be77" y="56.539943"/>
     <use style="fill:#ff00ff;stroke:#ff00ff;" x="277.341885" xlink:href="#m785c11be77" y="56.539943"/>
    </g>
   </g>
   <g id="line2d_35">
    <path d="M 107.347841 298.944 
L 107.347841 297.633708 
L 110.415248 297.633708 
L 110.415248 295.66827 
L 112.531694 295.66827 
L 112.531694 295.013123 
L 120.728219 295.013123 
L 120.728219 291.082247 
L 121.340187 291.082247 
L 121.340187 290.427101 
L 122.503236 290.427101 
L 122.503236 289.116809 
L 124.619683 289.116809 
L 124.619683 287.15137 
L 124.867052 287.15137 
L 124.867052 285.841078 
L 125.822869 285.841078 
L 125.822869 285.185932 
L 126.50685 285.185932 
L 126.50685 281.255055 
L 126.948374 281.255055 
L 126.948374 280.599909 
L 127.590383 280.599909 
L 127.590383 279.944763 
L 127.799239 279.944763 
L 127.799239 277.979325 
L 128.610515 277.979325 
L 128.610515 274.048448 
L 129.195127 274.048448 
L 129.195127 272.08301 
L 129.385722 272.08301 
L 129.385722 270.117572 
L 130.487516 270.117572 
L 130.487516 269.462426 
L 131.856005 269.462426 
L 131.856005 266.186695 
L 132.019755 266.186695 
L 132.019755 265.531549 
L 132.181982 265.531549 
L 132.181982 263.566111 
L 132.971225 263.566111 
L 132.971225 261.600672 
L 133.72629 261.600672 
L 133.72629 259.635234 
L 134.019394 259.635234 
L 134.019394 258.980088 
L 134.870259 258.980088 
L 134.870259 257.01465 
L 135.280614 257.01465 
L 135.280614 256.359504 
L 135.548916 256.359504 
L 135.548916 255.049211 
L 136.073445 255.049211 
L 136.073445 254.394065 
L 137.077422 254.394065 
L 137.077422 253.083773 
L 137.910857 253.083773 
L 137.910857 251.118335 
L 138.026733 251.118335 
L 138.026733 249.808043 
L 138.369812 249.808043 
L 138.369812 249.152896 
L 139.145019 249.152896 
L 139.145019 247.842604 
L 139.466984 247.842604 
L 139.466984 244.566874 
L 140.297583 244.566874 
L 140.297583 243.256582 
L 140.499195 243.256582 
L 140.499195 241.291143 
L 141.568232 241.291143 
L 141.568232 239.325705 
L 142.215919 239.325705 
L 142.306513 235.394828 
L 142.840411 235.394828 
L 142.840411 234.739682 
L 143.187472 234.739682 
L 143.187472 234.084536 
L 144.189046 234.084536 
L 144.189046 233.42939 
L 144.350522 233.42939 
L 144.350522 232.774244 
L 144.589967 232.774244 
L 144.589967 230.808806 
L 145.365173 230.808806 
L 145.440832 229.498513 
L 145.888018 229.498513 
L 145.888018 224.912491 
L 146.034567 224.912491 
L 146.034567 223.602199 
L 146.538004 223.602199 
L 146.608752 222.291906 
L 146.679213 222.291906 
L 146.679213 221.63676 
L 146.819289 221.63676 
L 146.888907 219.016176 
L 147.096109 219.016176 
L 147.096109 217.705884 
L 147.300877 217.705884 
L 147.368603 215.085299 
L 147.769524 215.085299 
L 147.769524 214.430153 
L 148.290138 214.430153 
L 148.354135 212.464715 
L 148.48143 212.464715 
L 148.48143 210.499277 
L 148.79566 210.499277 
L 148.79566 209.84413 
L 149.043029 209.84413 
L 149.043029 209.188984 
L 149.226281 209.188984 
L 149.226281 207.878692 
L 149.467659 207.878692 
L 149.467659 206.5684 
L 149.587107 206.5684 
L 149.587107 205.258108 
L 150.626842 205.258108 
L 150.682827 202.637523 
L 150.79426 202.637523 
L 150.79426 201.327231 
L 151.287083 201.327231 
L 151.287083 200.016939 
L 151.554972 200.016939 
L 151.554972 198.706647 
L 151.818809 198.706647 
L 151.818809 198.051501 
L 152.027042 198.051501 
L 152.027042 196.086062 
L 153.178403 196.086062 
L 153.226778 194.77577 
L 153.514245 194.77577 
L 153.561699 188.224309 
L 154.303908 188.224309 
L 154.394502 185.603725 
L 155.015814 185.603725 
L 155.059358 183.638286 
L 155.146121 183.638286 
L 155.232454 179.70741 
L 155.403849 179.70741 
L 155.403849 177.741972 
L 155.86668 177.741972 
L 155.86668 176.431679 
L 156.154939 176.431679 
L 156.154939 174.466241 
L 156.317544 174.466241 
L 156.317544 173.811095 
L 157.031069 173.811095 
L 157.031069 173.155949 
L 157.224197 173.155949 
L 157.300853 171.190511 
L 157.641697 171.190511 
L 157.641697 170.535364 
L 157.86528 170.535364 
L 157.976006 167.259634 
L 158.086033 167.259634 
L 158.195371 163.983903 
L 158.231665 163.983903 
L 158.231665 163.328757 
L 159.0116 163.328757 
L 159.115303 160.053027 
L 159.388866 160.053027 
L 159.388866 158.742735 
L 159.758143 158.742735 
L 159.758143 158.087589 
L 160.087195 158.087589 
L 160.184713 155.467004 
L 160.378126 155.467004 
L 160.378126 154.811858 
L 160.632719 154.811858 
L 160.632719 154.156712 
L 161.131018 154.156712 
L 161.192316 152.191274 
L 161.253399 152.191274 
L 161.253399 149.570689 
L 161.435376 149.570689 
L 161.465522 145.639813 
L 161.734513 145.639813 
L 161.734513 144.984667 
L 161.940898 144.984667 
L 161.940898 144.32952 
L 162.144868 144.32952 
L 162.231559 142.364082 
L 162.289115 142.364082 
L 162.346481 141.05379 
L 162.658665 141.05379 
L 162.658665 140.398644 
L 163.21234 140.398644 
L 163.293895 139.088352 
L 163.428979 139.088352 
L 163.482721 137.122913 
L 163.696049 137.122913 
L 163.801742 135.157475 
L 163.854349 135.157475 
L 163.854349 133.847183 
L 163.985177 133.847183 
L 163.985177 133.192037 
L 165.483031 133.192037 
L 165.483031 131.226598 
L 166.369174 131.226598 
L 166.369174 129.916306 
L 166.928532 129.916306 
L 166.928532 127.950868 
L 167.384913 127.950868 
L 167.384913 127.295722 
L 167.661564 127.295722 
L 167.661564 125.98543 
L 168.058166 125.98543 
L 168.058166 125.330284 
L 168.445948 125.330284 
L 168.445948 123.364845 
L 168.566635 123.364845 
L 168.666574 120.744261 
L 168.805533 120.744261 
L 168.825295 118.778823 
L 169.804532 118.778823 
L 169.804532 118.123676 
L 171.340609 118.123676 
L 171.340609 116.813384 
L 174.732584 116.813384 
L 174.732584 116.158238 
L 177.511111 116.158238 
L 177.511111 115.503092 
L 186.493798 115.503092 
L 186.493798 114.847946 
L 188.445566 114.847946 
L 188.445566 114.1928 
L 193.42081 114.1928 
L 193.42081 113.537654 
L 193.821074 113.537654 
L 193.821074 112.882508 
L 196.067723 112.882508 
L 196.067723 112.227362 
L 196.545653 112.227362 
L 196.545653 111.572215 
L 197.43332 111.572215 
L 197.43332 110.917069 
L 198.599705 110.917069 
L 198.599705 110.261923 
L 199.034781 110.261923 
L 199.034781 109.606777 
L 202.358139 109.606777 
L 202.358139 108.951631 
L 204.381365 108.951631 
L 204.381365 108.296485 
L 205.273441 108.296485 
L 205.273441 107.641339 
L 205.650416 107.641339 
L 205.650416 106.986193 
L 206.094152 106.986193 
L 206.094152 106.331047 
L 206.456258 106.331047 
L 206.456258 105.675901 
L 207.88232 105.675901 
L 207.88232 105.020754 
L 208.957007 105.020754 
L 208.957007 104.365608 
L 209.482972 104.365608 
L 209.569111 103.055316 
L 210.047497 103.055316 
L 210.047497 102.40017 
L 210.28369 102.40017 
L 210.28369 101.745024 
L 210.395135 101.745024 
L 210.466016 100.434732 
L 210.693065 100.434732 
L 210.693065 99.779586 
L 210.817937 99.779586 
L 210.817937 99.12444 
L 211.338029 99.12444 
L 211.338029 98.469293 
L 211.547255 98.469293 
L 211.576211 96.503855 
L 211.669565 96.503855 
L 211.686484 95.193563 
L 211.964982 95.193563 
L 211.964982 94.538417 
L 212.143814 94.538417 
L 212.24893 93.228125 
L 212.306148 93.228125 
L 212.306148 92.572979 
L 215.4993 92.572979 
L 215.4993 91.917832 
L 215.924883 91.917832 
L 215.924883 91.262686 
L 217.625684 91.262686 
L 217.625684 90.60754 
L 217.762294 90.60754 
L 217.762294 89.952394 
L 218.172816 89.952394 
L 218.172816 89.297248 
L 219.264186 89.297248 
L 219.264186 88.642102 
L 219.542316 88.642102 
L 219.625112 87.33181 
L 219.911314 87.33181 
L 219.988178 86.021518 
L 220.231271 86.021518 
L 220.231271 85.366371 
L 221.383823 85.366371 
L 221.383823 84.711225 
L 222.155909 84.711225 
L 222.227205 83.400933 
L 222.488586 83.400933 
L 222.488586 82.745787 
L 222.625501 82.745787 
L 222.625501 82.090641 
L 222.897925 82.090641 
L 222.897925 81.435495 
L 223.219489 81.435495 
L 223.219489 80.780349 
L 225.770553 80.780349 
L 225.833785 79.470057 
L 226.324251 79.470057 
L 226.324251 78.81491 
L 227.873721 78.81491 
L 227.873721 78.159764 
L 228.841681 78.159764 
L 228.889674 76.849472 
L 229.430476 76.849472 
L 229.430476 76.194326 
L 229.620792 76.194326 
L 229.620792 75.53918 
L 230.117396 75.53918 
L 230.117396 74.884034 
L 230.360783 74.884034 
L 230.360783 74.228888 
L 231.319289 74.228888 
L 231.319289 73.573742 
L 231.871677 73.573742 
L 231.871677 72.918596 
L 233.779425 72.918596 
L 233.779425 72.263449 
L 234.605225 72.263449 
L 234.605225 71.608303 
L 235.712574 71.608303 
L 235.712574 70.953157 
L 237.912002 70.953157 
L 237.912002 70.298011 
L 238.561003 70.298011 
L 238.561003 69.642865 
L 241.441261 69.642865 
L 241.441261 68.987719 
L 242.147984 68.987719 
L 242.147984 68.332573 
L 244.522133 68.332573 
L 244.522133 67.677427 
L 245.065278 67.677427 
L 245.065278 67.022281 
L 245.873606 67.022281 
L 245.873606 66.367135 
L 246.071791 66.367135 
L 246.071791 65.711988 
L 246.274034 65.711988 
L 246.274034 65.056842 
L 246.475799 65.056842 
L 246.475799 64.401696 
L 247.710136 64.401696 
L 247.710136 63.74655 
L 248.722053 63.74655 
L 248.722053 63.091404 
L 250.262645 63.091404 
L 250.262645 62.436258 
L 252.080086 62.436258 
L 252.080086 61.781112 
L 252.746651 61.781112 
L 252.746651 61.125966 
L 255.71307 61.125966 
L 255.71307 60.47082 
L 260.129313 60.47082 
L 260.129313 59.815674 
L 260.309028 59.815674 
L 260.309028 59.160527 
L 260.803366 59.160527 
L 260.803366 58.505381 
L 264.764975 58.505381 
L 264.764975 57.850235 
L 265.740005 57.850235 
L 265.740005 57.195089 
L 277.341885 57.195089 
L 277.341885 56.539943 
L 338.688 56.539943 
L 338.688 56.539943 
" style="fill:none;stroke:#ff00ff;stroke-linecap:square;stroke-width:1.5;"/>
   </g>
   <g id="line2d_36">
    <defs>
     <path d="M -0 8.485281 
L 5.091169 0 
L 0 -8.485281 
L -5.091169 -0 
z
" id="m6f53781c80" style="stroke:#ff00ff;stroke-linejoin:miter;stroke-width:1.5;"/>
    </defs>
    <g>
     <use style="fill-opacity:0;stroke:#ff00ff;stroke-linejoin:miter;stroke-width:1.5;" x="166.369174" xlink:href="#m6f53781c80" y="129.916306"/>
     <use style="fill-opacity:0;stroke:#ff00ff;stroke-linejoin:miter;stroke-width:1.5;" x="252.746651" xlink:href="#m6f53781c80" y="61.125966"/>
     <use style="fill-opacity:0;stroke:#ff00ff;stroke-linejoin:miter;stroke-width:1.5;" x="277.341885" xlink:href="#m6f53781c80" y="56.539943"/>
     <use style="fill-opacity:0;stroke:#ff00ff;stroke-linejoin:miter;stroke-width:1.5;" x="277.341885" xlink:href="#m6f53781c80" y="56.539943"/>
     <use style="fill-opacity:0;stroke:#ff00ff;stroke-linejoin:miter;stroke-width:1.5;" x="338.688" xlink:href="#m6f53781c80" y="56.539943"/>
    </g>
   </g>
   <g id="line2d_37">
    <path style="fill:none;stroke:#ff00ff;stroke-linecap:square;stroke-width:1.5;"/>
    <g/>
   </g>
   <g id="line2d_38">
    <path clip-path="url(#p0c04be2388)" d="M 206.581353 105.675901 
" style="fill:none;stroke:#ff00ff;stroke-linecap:square;stroke-width:1.5;"/>
    <defs>
     <path d="M -12 12 
L 12 -12 
M -12 -12 
L 12 12 
" id="mdfb956639e" style="stroke:#ff00ff;"/>
    </defs>
    <g clip-path="url(#p0c04be2388)">
     <use style="fill:#ff00ff;stroke:#ff00ff;" x="206.581353" xlink:href="#mdfb956639e" y="105.675901"/>
    </g>
   </g>
   <g id="line2d_39">
    <defs>
     <path d="M 0 1.5 
C 0.397805 1.5 0.77937 1.341951 1.06066 1.06066 
C 1.341951 0.77937 1.5 0.397805 1.5 0 
C 1.5 -0.397805 1.341951 -0.77937 1.06066 -1.06066 
C 0.77937 -1.341951 0.397805 -1.5 0 -1.5 
C -0.397805 -1.5 -0.77937 -1.341951 -1.06066 -1.06066 
C -1.341951 -0.77937 -1.5 -0.397805 -1.5 0 
C -1.5 0.397805 -1.341951 0.77937 -1.06066 1.06066 
C -0.77937 1.341951 -0.397805 1.5 0 1.5 
z
" id="m729faa61e5" style="stroke:#ff7500;"/>
    </defs>
    <g>
     <use style="fill:#ff7500;stroke:#ff7500;" x="297.438456" xlink:href="#m729faa61e5" y="220.326468"/>
     <use style="fill:#ff7500;stroke:#ff7500;" x="297.438456" xlink:href="#m729faa61e5" y="220.326468"/>
    </g>
   </g>
   <g id="line2d_40">
    <path d="M 204.083162 298.944 
L 204.187464 278.634471 
L 204.365932 278.634471 
L 204.451925 276.669033 
L 204.495402 276.669033 
L 204.546413 275.35874 
L 204.96787 275.35874 
L 204.986505 274.048448 
L 205.122556 274.048448 
L 205.122556 273.393302 
L 205.443605 273.393302 
L 205.553328 272.08301 
L 206.617576 272.08301 
L 206.617576 270.772718 
L 206.945794 270.772718 
L 206.945794 269.462426 
L 207.704733 269.462426 
L 207.704733 268.152133 
L 209.181995 268.152133 
L 209.181995 267.496987 
L 216.897278 267.496987 
L 216.997339 266.186695 
L 217.388889 266.186695 
L 217.388889 265.531549 
L 217.659937 265.531549 
L 217.659937 264.876403 
L 217.87058 264.876403 
L 217.87058 263.566111 
L 223.430761 263.566111 
L 223.430761 262.910965 
L 224.055883 262.910965 
L 224.161234 261.600672 
L 224.321765 261.600672 
L 224.321765 260.945526 
L 229.304385 260.945526 
L 229.338221 259.635234 
L 229.680558 259.635234 
L 229.680558 258.980088 
L 232.745029 258.980088 
L 232.745029 258.324942 
L 233.005701 258.324942 
L 233.005701 257.669796 
L 233.330618 257.669796 
L 233.330618 256.359504 
L 235.881899 256.359504 
L 235.881899 255.704357 
L 236.286399 255.704357 
L 236.286399 255.049211 
L 236.797921 255.049211 
L 236.797921 254.394065 
L 237.658878 254.394065 
L 237.658878 253.738919 
L 241.655331 253.738919 
L 241.655331 253.083773 
L 243.715194 253.083773 
L 243.715194 252.428627 
L 244.290559 252.428627 
L 244.290559 251.773481 
L 246.021924 251.773481 
L 246.021924 251.118335 
L 247.238288 251.118335 
L 247.238288 250.463189 
L 247.859418 250.463189 
L 247.859418 249.808043 
L 248.878194 249.808043 
L 248.878194 248.49775 
L 249.118071 248.49775 
L 249.118071 247.187458 
L 251.661807 247.187458 
L 251.661807 246.532312 
L 252.985853 246.532312 
L 252.985853 245.877166 
L 254.781156 245.877166 
L 254.781156 245.22202 
L 255.110662 245.22202 
L 255.110662 244.566874 
L 255.944704 244.566874 
L 255.944704 243.911728 
L 256.990632 243.911728 
L 256.990632 243.256582 
L 257.353711 243.256582 
L 257.353711 241.946289 
L 258.221649 241.946289 
L 258.221649 239.980851 
L 260.556359 239.980851 
L 260.556359 239.325705 
L 262.618964 239.325705 
L 262.618964 238.670559 
L 263.132355 238.670559 
L 263.132355 238.015413 
L 265.079859 238.015413 
L 265.079859 237.360267 
L 265.255503 237.360267 
L 265.275397 236.049974 
L 266.34525 236.049974 
L 266.34525 235.394828 
L 266.8015 235.394828 
L 266.8015 234.739682 
L 268.00885 234.739682 
L 268.00885 234.084536 
L 269.51659 234.084536 
L 269.51659 233.42939 
L 270.672956 233.42939 
L 270.672956 232.774244 
L 272.905764 232.774244 
L 272.905764 232.119098 
L 274.700046 232.119098 
L 274.700046 231.463952 
L 275.377697 231.463952 
L 275.377697 230.808806 
L 276.958197 230.808806 
L 276.958197 230.15366 
L 277.554163 230.15366 
L 277.554163 229.498513 
L 279.765111 229.498513 
L 279.765111 228.843367 
L 280.168533 228.843367 
L 280.168533 228.188221 
L 281.121737 228.188221 
L 281.121737 227.533075 
L 281.474196 227.533075 
L 281.474196 226.877929 
L 282.615513 226.877929 
L 282.615513 226.222783 
L 282.933108 226.222783 
L 282.933108 225.567637 
L 283.512655 225.567637 
L 283.512655 224.912491 
L 286.210672 224.912491 
L 286.210672 224.257345 
L 289.37683 224.257345 
L 289.37683 223.602199 
L 290.878428 223.602199 
L 290.878428 222.947052 
L 291.806707 222.947052 
L 291.806707 222.291906 
L 291.967103 222.291906 
L 291.967103 221.63676 
L 293.595825 221.63676 
L 293.595825 220.981614 
L 297.438456 220.981614 
L 297.438456 220.326468 
L 338.688 220.326468 
L 338.688 220.326468 
" style="fill:none;stroke:#ff7500;stroke-linecap:square;stroke-width:1.5;"/>
   </g>
   <g id="line2d_41">
    <defs>
     <path d="M 0 -6 
L -1.347084 -1.854102 
L -5.706339 -1.854102 
L -2.179628 0.708204 
L -3.526712 4.854102 
L -0 2.291796 
L 3.526712 4.854102 
L 2.179628 0.708204 
L 5.706339 -1.854102 
L 1.347084 -1.854102 
z
" id="mfcd735b3ed" style="stroke:#ff7500;stroke-linejoin:bevel;stroke-width:1.5;"/>
    </defs>
    <g>
     <use style="fill-opacity:0;stroke:#ff7500;stroke-linejoin:bevel;stroke-width:1.5;" x="233.330618" xlink:href="#mfcd735b3ed" y="256.359504"/>
     <use style="fill-opacity:0;stroke:#ff7500;stroke-linejoin:bevel;stroke-width:1.5;" x="297.438456" xlink:href="#mfcd735b3ed" y="220.981614"/>
     <use style="fill-opacity:0;stroke:#ff7500;stroke-linejoin:bevel;stroke-width:1.5;" x="297.438456" xlink:href="#mfcd735b3ed" y="220.326468"/>
     <use style="fill-opacity:0;stroke:#ff7500;stroke-linejoin:bevel;stroke-width:1.5;" x="338.688" xlink:href="#mfcd735b3ed" y="220.326468"/>
    </g>
   </g>
   <g id="line2d_42">
    <path style="fill:none;stroke:#ff7500;stroke-linecap:square;stroke-width:1.5;"/>
    <g/>
   </g>
   <g id="line2d_43">
    <path clip-path="url(#p0c04be2388)" d="M 244.290559 251.773481 
" style="fill:none;stroke:#ff7500;stroke-linecap:square;stroke-width:1.5;"/>
    <defs>
     <path d="M -12 12 
L 12 -12 
M -12 -12 
L 12 12 
" id="m5d403a74bd" style="stroke:#ff7500;"/>
    </defs>
    <g clip-path="url(#p0c04be2388)">
     <use style="fill:#ff7500;stroke:#ff7500;" x="244.290559" xlink:href="#m5d403a74bd" y="251.773481"/>
    </g>
   </g>
   <g id="line2d_44">
    <defs>
     <path d="M 0 1.5 
C 0.397805 1.5 0.77937 1.341951 1.06066 1.06066 
C 1.341951 0.77937 1.5 0.397805 1.5 0 
C 1.5 -0.397805 1.341951 -0.77937 1.06066 -1.06066 
C 0.77937 -1.341951 0.397805 -1.5 0 -1.5 
C -0.397805 -1.5 -0.77937 -1.341951 -1.06066 -1.06066 
C -1.341951 -0.77937 -1.5 -0.397805 -1.5 0 
C -1.5 0.397805 -1.341951 0.77937 -1.06066 1.06066 
C -0.77937 1.341951 -0.397805 1.5 0 1.5 
z
" id="md5ca81f221" style="stroke:#6495ed;"/>
    </defs>
    <g>
     <use style="fill:#6495ed;stroke:#6495ed;" x="209.63201" xlink:href="#md5ca81f221" y="30.334099"/>
     <use style="fill:#6495ed;stroke:#6495ed;" x="209.63201" xlink:href="#md5ca81f221" y="30.334099"/>
    </g>
   </g>
   <g id="line2d_45">
    <path d="M 81.775977 298.944 
L 81.775977 294.357977 
L 91.535274 294.357977 
L 91.535274 285.841078 
L 93.121756 285.841078 
L 93.121756 285.185932 
L 97.755429 285.185932 
L 97.755429 281.255055 
L 98.880934 281.255055 
L 98.880934 280.599909 
L 102.330873 280.599909 
L 102.330873 255.049211 
L 104.033617 255.049211 
L 104.033617 251.773481 
L 104.826449 251.773481 
L 104.826449 251.118335 
L 105.951954 251.118335 
L 105.951954 228.843367 
L 106.66386 228.843367 
L 106.66386 226.877929 
L 107.347841 226.877929 
L 107.347841 222.291906 
L 108.006005 222.291906 
L 108.006005 221.63676 
L 108.948899 221.63676 
L 108.948899 208.533838 
L 109.550313 208.533838 
L 109.550313 202.637523 
L 110.131676 202.637523 
L 110.131676 200.016939 
L 111.239304 200.016939 
L 111.239304 194.120624 
L 111.505558 194.120624 
L 111.505558 179.052264 
L 112.026172 179.052264 
L 112.026172 167.91478 
L 112.531694 167.91478 
L 112.531694 161.363319 
L 113.022974 161.363319 
L 113.022974 159.397881 
L 113.500792 159.397881 
L 113.500792 154.811858 
L 114.193835 154.811858 
L 114.193835 151.536128 
L 114.641021 151.536128 
L 114.641021 146.950105 
L 115.291007 146.950105 
L 115.291007 146.294959 
L 115.502395 146.294959 
L 115.502395 141.05379 
L 117.107138 141.05379 
L 117.107138 140.398644 
L 117.297733 140.398644 
L 117.297733 139.743498 
L 117.672786 139.743498 
L 117.672786 139.088352 
L 118.925375 139.088352 
L 118.925375 132.536891 
L 119.43583 132.536891 
L 119.43583 129.26116 
L 120.883236 129.26116 
L 120.883236 126.640576 
L 122.219665 126.640576 
L 122.219665 124.675137 
L 122.920132 124.675137 
L 122.920132 124.019991 
L 124.867052 124.019991 
L 124.867052 123.364845 
L 125.706218 123.364845 
L 125.706218 122.709699 
L 126.729009 122.709699 
L 126.729009 122.054553 
L 127.378995 122.054553 
L 127.378995 120.089115 
L 128.107907 120.089115 
L 128.107907 119.433969 
L 128.807571 119.433969 
L 128.807571 118.778823 
L 130.036864 118.778823 
L 130.036864 118.123676 
L 130.218525 118.123676 
L 130.30865 116.158238 
L 131.856005 116.158238 
L 131.856005 112.227362 
L 132.101058 112.227362 
L 132.101058 111.572215 
L 132.971225 111.572215 
L 132.971225 110.917069 
L 133.652238 110.917069 
L 133.652238 108.951631 
L 134.091907 108.951631 
L 134.091907 108.296485 
L 134.307653 108.296485 
L 134.307653 103.710462 
L 134.591225 103.710462 
L 134.591225 103.055316 
L 135.348078 103.055316 
L 135.348078 102.40017 
L 135.615352 102.40017 
L 135.615352 101.745024 
L 136.073445 101.745024 
L 136.073445 101.089878 
L 137.016339 101.089878 
L 137.016339 100.434732 
L 137.439497 100.434732 
L 137.439497 99.779586 
L 138.084384 99.779586 
L 138.084384 99.12444 
L 138.313099 99.12444 
L 138.313099 98.469293 
L 139.306744 98.469293 
L 139.306744 97.814147 
L 139.887228 97.814147 
L 139.887228 97.159001 
L 140.64889 97.159001 
L 140.64889 96.503855 
L 141.521035 96.503855 
L 141.521035 95.193563 
L 142.53096 95.193563 
L 142.53096 94.538417 
L 143.485587 94.538417 
L 143.485587 93.883271 
L 143.653678 93.883271 
L 143.653678 93.228125 
L 144.550287 93.228125 
L 144.550287 92.572979 
L 144.826168 92.572979 
L 144.826168 91.262686 
L 145.403044 91.262686 
L 145.403044 90.60754 
L 145.665858 90.60754 
L 145.665858 89.297248 
L 147.232888 89.297248 
L 147.232888 87.986956 
L 147.736463 87.986956 
L 147.736463 87.33181 
L 147.96658 87.33181 
L 147.96658 86.676664 
L 149.467659 86.676664 
L 149.467659 86.021518 
L 150.114722 86.021518 
L 150.114722 85.366371 
L 150.31567 85.366371 
L 150.31567 84.711225 
L 150.738632 84.711225 
L 150.738632 84.056079 
L 151.818809 84.056079 
L 151.818809 83.400933 
L 152.486669 83.400933 
L 152.486669 82.745787 
L 152.761703 82.745787 
L 152.761703 82.090641 
L 153.29909 82.090641 
L 153.29909 81.435495 
L 153.466662 81.435495 
L 153.466662 80.780349 
L 154.075343 80.780349 
L 154.075343 80.125203 
L 154.57429 80.125203 
L 154.57429 79.470057 
L 155.825108 79.470057 
L 155.825108 78.81491 
L 161.630398 78.81491 
L 161.630398 76.194326 
L 162.672723 76.194326 
L 162.672723 74.884034 
L 162.840544 74.884034 
L 162.840544 74.228888 
L 163.469301 74.228888 
L 163.469301 71.608303 
L 163.589711 71.608303 
L 163.589711 69.642865 
L 163.828065 69.642865 
L 163.880593 67.677427 
L 164.11503 67.677427 
L 164.11503 66.367135 
L 164.75018 66.367135 
L 164.75018 65.056842 
L 165.230021 65.056842 
L 165.230021 63.74655 
L 166.266556 63.74655 
L 166.266556 61.125966 
L 171.391826 61.125966 
L 171.391826 59.160527 
L 176.079681 59.160527 
L 176.079681 57.850235 
L 176.389606 57.850235 
L 176.389606 56.539943 
L 177.547081 56.539943 
L 177.547081 55.884797 
L 185.58871 55.884797 
L 185.682864 53.264213 
L 187.364457 53.264213 
L 187.425744 51.95392 
L 187.87865 51.95392 
L 187.87865 51.298774 
L 189.075212 51.298774 
L 189.103018 49.333336 
L 189.463549 49.333336 
L 189.490743 48.023044 
L 189.807884 48.023044 
L 189.905451 46.712752 
L 190.066859 46.712752 
L 190.066859 46.057605 
L 190.390997 46.057605 
L 190.390997 43.437021 
L 190.67258 43.437021 
L 190.67258 42.781875 
L 194.778837 42.781875 
L 194.778837 42.126729 
L 196.585901 42.126729 
L 196.585901 40.816437 
L 196.736007 40.816437 
L 196.736007 40.161291 
L 199.778518 40.161291 
L 199.778518 39.506144 
L 200.753361 39.506144 
L 200.753361 38.850998 
L 202.471816 38.850998 
L 202.581906 36.88556 
L 202.616079 36.88556 
L 202.616079 36.230414 
L 203.612643 36.230414 
L 203.612643 35.575268 
L 203.877961 35.575268 
L 203.877961 34.920122 
L 204.727566 34.920122 
L 204.727566 34.264976 
L 205.495538 34.264976 
L 205.495538 33.60983 
L 208.039366 33.60983 
L 208.121511 32.299537 
L 209.250194 32.299537 
L 209.258943 30.989245 
L 209.63201 30.989245 
L 209.63201 30.334099 
L 338.688 30.334099 
L 338.688 30.334099 
" style="fill:none;stroke:#6495ed;stroke-linecap:square;stroke-width:1.5;"/>
   </g>
   <g id="line2d_46">
    <defs>
     <path d="M -0 6 
L 6 -6 
L -6 -6 
z
" id="mf00bfa7031" style="stroke:#6495ed;stroke-linejoin:miter;stroke-width:1.5;"/>
    </defs>
    <g>
     <use style="fill-opacity:0;stroke:#6495ed;stroke-linejoin:miter;stroke-width:1.5;" x="133.652238" xlink:href="#mf00bfa7031" y="110.917069"/>
     <use style="fill-opacity:0;stroke:#6495ed;stroke-linejoin:miter;stroke-width:1.5;" x="209.63201" xlink:href="#mf00bfa7031" y="30.989245"/>
     <use style="fill-opacity:0;stroke:#6495ed;stroke-linejoin:miter;stroke-width:1.5;" x="209.63201" xlink:href="#mf00bfa7031" y="30.334099"/>
     <use style="fill-opacity:0;stroke:#6495ed;stroke-linejoin:miter;stroke-width:1.5;" x="209.63201" xlink:href="#mf00bfa7031" y="30.334099"/>
     <use style="fill-opacity:0;stroke:#6495ed;stroke-linejoin:miter;stroke-width:1.5;" x="338.688" xlink:href="#mf00bfa7031" y="30.334099"/>
    </g>
   </g>
   <g id="line2d_47">
    <path style="fill:none;stroke:#6495ed;stroke-linecap:square;stroke-width:1.5;"/>
    <g/>
   </g>
   <g id="line2d_48">
    <path clip-path="url(#p0c04be2388)" d="M 196.603982 40.816437 
" style="fill:none;stroke:#6495ed;stroke-linecap:square;stroke-width:1.5;"/>
    <defs>
     <path d="M -12 12 
L 12 -12 
M -12 -12 
L 12 12 
" id="m9f8d5d4961" style="stroke:#6495ed;"/>
    </defs>
    <g clip-path="url(#p0c04be2388)">
     <use style="fill:#6495ed;stroke:#6495ed;" x="196.603982" xlink:href="#m9f8d5d4961" y="40.816437"/>
    </g>
   </g>
   <g id="line2d_49">
    <defs>
     <path d="M 0 1.5 
C 0.397805 1.5 0.77937 1.341951 1.06066 1.06066 
C 1.341951 0.77937 1.5 0.397805 1.5 0 
C 1.5 -0.397805 1.341951 -0.77937 1.06066 -1.06066 
C 0.77937 -1.341951 0.397805 -1.5 0 -1.5 
C -0.397805 -1.5 -0.77937 -1.341951 -1.06066 -1.06066 
C -1.341951 -0.77937 -1.5 -0.397805 -1.5 0 
C -1.5 0.397805 -1.341951 0.77937 -1.06066 1.06066 
C -0.77937 1.341951 -0.397805 1.5 0 1.5 
z
" id="m233ecac044" style="stroke:#ff0000;"/>
    </defs>
    <g>
     <use style="fill:#ff0000;stroke:#ff0000;" x="239.743944" xlink:href="#m233ecac044" y="30.334099"/>
     <use style="fill:#ff0000;stroke:#ff0000;" x="239.743944" xlink:href="#m233ecac044" y="30.334099"/>
    </g>
   </g>
   <g id="line2d_50">
    <path d="M 88.846997 298.944 
L 88.846997 297.633708 
L 95.259853 297.633708 
L 95.259853 294.357977 
L 99.938184 294.357977 
L 99.938184 283.220494 
L 103.623262 283.220494 
L 103.623262 275.35874 
L 106.66386 275.35874 
L 106.66386 269.462426 
L 109.252198 269.462426 
L 109.252198 262.255818 
L 111.505558 262.255818 
L 111.505558 257.669796 
L 113.500792 257.669796 
L 113.500792 245.877166 
L 115.291007 245.877166 
L 115.291007 235.394828 
L 116.914437 235.394828 
L 116.914437 222.947052 
L 118.399528 222.947052 
L 118.399528 215.740445 
L 119.768017 215.740445 
L 119.768017 206.5684 
L 121.036887 206.5684 
L 121.036887 198.706647 
L 122.219665 198.706647 
L 122.219665 188.224309 
L 123.327293 188.224309 
L 123.327293 180.362556 
L 124.368753 180.362556 
L 124.368753 175.121387 
L 124.743806 175.121387 
L 124.743806 174.466241 
L 125.351508 174.466241 
L 125.351508 171.845657 
L 126.281824 171.845657 
L 126.281824 167.91478 
L 127.48501 167.91478 
L 127.48501 167.259634 
L 128.005624 167.259634 
L 128.005624 165.949342 
L 131.690703 165.949342 
L 131.690703 165.294196 
L 132.342714 165.294196 
L 132.342714 164.63905 
L 134.164119 164.63905 
L 134.164119 163.983903 
L 134.37898 163.983903 
L 134.37898 163.328757 
L 138.706272 163.328757 
L 138.706272 162.018465 
L 141.568232 162.018465 
L 141.568232 161.363319 
L 143.358447 161.363319 
L 143.358447 160.708173 
L 143.695448 160.708173 
L 143.695448 160.053027 
L 144.669057 160.053027 
L 144.669057 158.742735 
L 144.981877 158.742735 
L 144.981877 158.087589 
L 145.289185 158.087589 
L 145.289185 157.432442 
L 148.354135 157.432442 
L 148.354135 155.467004 
L 148.607802 155.467004 
L 148.607802 154.156712 
L 148.857832 154.156712 
L 148.857832 152.84642 
L 149.347388 152.84642 
L 149.347388 151.536128 
L 149.587107 151.536128 
L 149.587107 150.880981 
L 149.823575 150.880981 
L 149.823575 149.570689 
L 150.05688 149.570689 
L 150.05688 146.950105 
L 150.287105 146.950105 
L 150.287105 145.639813 
L 150.51433 145.639813 
L 150.51433 144.984667 
L 151.394733 144.984667 
L 151.394733 144.32952 
L 152.232818 144.32952 
L 152.232818 143.674374 
L 153.418948 143.674374 
L 153.418948 143.019228 
L 153.79705 143.019228 
L 153.79705 141.708936 
L 154.349264 141.708936 
L 154.349264 140.398644 
L 154.707925 140.398644 
L 154.707925 137.778059 
L 154.884527 137.778059 
L 154.928399 136.467767 
L 156.717545 136.467767 
L 156.717545 135.812621 
L 157.339055 135.812621 
L 157.339055 135.157475 
L 158.802326 135.157475 
L 158.802326 134.502329 
L 160.914762 134.502329 
L 160.914762 133.847183 
L 162.115875 133.847183 
L 162.115875 132.536891 
L 162.46065 132.536891 
L 162.46065 131.226598 
L 162.68677 131.226598 
L 162.68677 129.26116 
L 162.909996 129.26116 
L 162.909996 127.950868 
L 163.130401 127.950868 
L 163.130401 126.640576 
L 163.348054 126.640576 
L 163.455871 125.330284 
L 163.563025 125.330284 
L 163.563025 124.019991 
L 164.308016 124.019991 
L 164.410075 122.054553 
L 164.899235 122.054553 
L 164.899235 121.399407 
L 165.59035 121.399407 
L 165.673366 119.433969 
L 166.232216 119.433969 
L 166.232216 118.778823 
L 166.414589 118.778823 
L 166.414589 117.46853 
L 167.566296 117.46853 
L 167.651004 115.503092 
L 167.735303 115.503092 
L 167.735303 114.847946 
L 169.78585 114.847946 
L 169.78585 112.882508 
L 171.229121 112.882508 
L 171.297814 110.917069 
L 171.366236 110.917069 
L 171.434392 109.606777 
L 174.872772 109.606777 
L 174.872772 108.951631 
L 175.590821 108.951631 
L 175.697687 106.986193 
L 179.633043 106.986193 
L 179.633043 106.331047 
L 181.409774 106.331047 
L 181.409774 105.675901 
L 181.524569 105.675901 
L 181.562667 103.055316 
L 181.638614 103.055316 
L 181.714232 99.12444 
L 181.789523 99.12444 
L 181.86449 97.159001 
L 183.204904 97.159001 
L 183.204904 96.503855 
L 189.022567 96.503855 
L 189.022567 95.848709 
L 191.461398 95.848709 
L 191.525998 92.572979 
L 192.010859 92.572979 
L 192.010859 91.917832 
L 192.566329 91.917832 
L 192.566329 91.262686 
L 193.667297 91.262686 
L 193.743172 87.986956 
L 194.769916 87.986956 
L 194.769916 87.33181 
L 195.693075 87.33181 
L 195.794332 81.435495 
L 195.811151 81.435495 
L 195.876172 77.504618 
L 196.616026 77.504618 
L 196.632071 75.53918 
L 197.291052 75.53918 
L 197.291052 74.884034 
L 197.414162 74.884034 
L 197.460105 72.918596 
L 197.55163 72.918596 
L 197.644569 67.677427 
L 197.793374 67.677427 
L 197.793374 67.022281 
L 198.428739 67.022281 
L 198.428739 66.367135 
L 198.742387 66.367135 
L 198.742387 65.711988 
L 199.601878 65.711988 
L 199.601878 65.056842 
L 201.004787 65.056842 
L 201.004787 64.401696 
L 206.287673 64.401696 
L 206.370449 62.436258 
L 206.530286 62.436258 
L 206.530286 61.781112 
L 207.596024 61.781112 
L 207.596024 61.125966 
L 207.957879 61.125966 
L 207.957879 60.47082 
L 209.128223 60.47082 
L 209.128223 59.815674 
L 209.895424 59.815674 
L 209.895424 59.160527 
L 210.369621 59.160527 
L 210.376914 56.539943 
L 212.960443 56.539943 
L 213.024777 46.712752 
L 213.129401 46.712752 
L 213.129401 45.402459 
L 213.522712 45.402459 
L 213.541729 42.781875 
L 214.112358 42.781875 
L 214.112358 42.126729 
L 218.300594 42.126729 
L 218.343941 40.816437 
L 218.822774 40.816437 
L 218.822774 40.161291 
L 220.475109 40.161291 
L 220.475109 39.506144 
L 222.003547 39.506144 
L 222.007291 37.540706 
L 222.317067 37.540706 
L 222.318446 36.230414 
L 223.737227 36.230414 
L 223.737227 35.575268 
L 224.705123 35.575268 
L 224.705123 34.920122 
L 225.070818 34.920122 
L 225.070818 34.264976 
L 227.096281 34.264976 
L 227.096281 33.60983 
L 227.974366 33.60983 
L 227.974366 32.954683 
L 230.787333 32.954683 
L 230.787333 32.299537 
L 232.531141 32.299537 
L 232.531141 31.644391 
L 238.781796 31.644391 
L 238.781796 30.989245 
L 239.743944 30.989245 
L 239.743944 30.334099 
L 338.688 30.334099 
L 338.688 30.334099 
" style="fill:none;stroke:#ff0000;stroke-linecap:square;stroke-width:1.5;"/>
   </g>
   <g id="line2d_51">
    <defs>
     <path d="M 0 -6 
L -5.196152 -3 
L -5.196152 3 
L -0 6 
L 5.196152 3 
L 5.196152 -3 
z
" id="ma17bc97d43" style="stroke:#ff0000;stroke-linejoin:miter;stroke-width:1.5;"/>
    </defs>
    <g>
     <use style="fill-opacity:0;stroke:#ff0000;stroke-linejoin:miter;stroke-width:1.5;" x="122.219665" xlink:href="#ma17bc97d43" y="188.224309"/>
     <use style="fill-opacity:0;stroke:#ff0000;stroke-linejoin:miter;stroke-width:1.5;" x="192.010859" xlink:href="#ma17bc97d43" y="91.917832"/>
     <use style="fill-opacity:0;stroke:#ff0000;stroke-linejoin:miter;stroke-width:1.5;" x="239.743944" xlink:href="#ma17bc97d43" y="30.989245"/>
     <use style="fill-opacity:0;stroke:#ff0000;stroke-linejoin:miter;stroke-width:1.5;" x="239.743944" xlink:href="#ma17bc97d43" y="30.334099"/>
     <use style="fill-opacity:0;stroke:#ff0000;stroke-linejoin:miter;stroke-width:1.5;" x="338.688" xlink:href="#ma17bc97d43" y="30.334099"/>
    </g>
   </g>
   <g id="line2d_52">
    <path style="fill:none;stroke:#ff0000;stroke-linecap:square;stroke-width:1.5;"/>
    <g/>
   </g>
   <g id="line2d_53">
    <path clip-path="url(#p0c04be2388)" d="M 206.1407 64.401696 
" style="fill:none;stroke:#ff0000;stroke-linecap:square;stroke-width:1.5;"/>
    <defs>
     <path d="M -12 12 
L 12 -12 
M -12 -12 
L 12 12 
" id="m13bb790d45" style="stroke:#ff0000;"/>
    </defs>
    <g clip-path="url(#p0c04be2388)">
     <use style="fill:#ff0000;stroke:#ff0000;" x="206.1407" xlink:href="#m13bb790d45" y="64.401696"/>
    </g>
   </g>
   <g id="line2d_54">
    <path d="M 338.688 220.326468 
L 369.60768 293.571802 
" style="fill:none;stroke:#ff7500;stroke-linecap:square;stroke-width:1.5;"/>
    <g>
     <use style="fill-opacity:0;stroke:#ff7500;stroke-linejoin:bevel;stroke-width:1.5;" x="338.688" xlink:href="#mfcd735b3ed" y="220.326468"/>
     <use style="fill-opacity:0;stroke:#ff7500;stroke-linejoin:bevel;stroke-width:1.5;" x="369.60768" xlink:href="#mfcd735b3ed" y="293.571802"/>
    </g>
   </g>
   <g id="line2d_55">
    <path d="M 338.688 56.539943 
L 369.60768 229.105426 
" style="fill:none;stroke:#ff00ff;stroke-linecap:square;stroke-width:1.5;"/>
    <g>
     <use style="fill-opacity:0;stroke:#ff00ff;stroke-linejoin:miter;stroke-width:1.5;" x="338.688" xlink:href="#m6f53781c80" y="56.539943"/>
     <use style="fill-opacity:0;stroke:#ff00ff;stroke-linejoin:miter;stroke-width:1.5;" x="369.60768" xlink:href="#m6f53781c80" y="229.105426"/>
    </g>
   </g>
   <g id="line2d_56">
    <path d="M 338.688 30.334099 
L 369.60768 164.63905 
" style="fill:none;stroke:#ff0000;stroke-linecap:square;stroke-width:1.5;"/>
    <g>
     <use style="fill-opacity:0;stroke:#ff0000;stroke-linejoin:miter;stroke-width:1.5;" x="338.688" xlink:href="#ma17bc97d43" y="30.334099"/>
     <use style="fill-opacity:0;stroke:#ff0000;stroke-linejoin:miter;stroke-width:1.5;" x="369.60768" xlink:href="#ma17bc97d43" y="164.63905"/>
    </g>
   </g>
   <g id="line2d_57">
    <path d="M 338.688 30.334099 
L 369.60768 100.172673 
" style="fill:none;stroke:#000080;stroke-linecap:square;stroke-width:1.5;"/>
    <g>
     <use style="fill-opacity:0;stroke:#000080;stroke-width:1.5;" x="338.688" xlink:href="#mca2da880f5" y="30.334099"/>
     <use style="fill-opacity:0;stroke:#000080;stroke-width:1.5;" x="369.60768" xlink:href="#mca2da880f5" y="100.172673"/>
    </g>
   </g>
   <g id="line2d_58">
    <path d="M 338.688 30.334099 
L 369.60768 35.706297 
" style="fill:none;stroke:#6495ed;stroke-linecap:square;stroke-width:1.5;"/>
    <g>
     <use style="fill-opacity:0;stroke:#6495ed;stroke-linejoin:miter;stroke-width:1.5;" x="338.688" xlink:href="#mf00bfa7031" y="30.334099"/>
     <use style="fill-opacity:0;stroke:#6495ed;stroke-linejoin:miter;stroke-width:1.5;" x="369.60768" xlink:href="#mf00bfa7031" y="35.706297"/>
    </g>
   </g>
   <g id="line2d_59">
    <path d="M 338.688 298.944 
L 338.688 30.334099 
" style="fill:none;stroke:#000000;stroke-linecap:square;stroke-width:1.5;"/>
   </g>
   <g id="patch_3">
    <path d="M 57.6 298.944 
L 57.6 27.648 
" style="fill:none;stroke:#000000;stroke-linecap:square;stroke-linejoin:miter;stroke-width:0.8;"/>
   </g>
   <g id="patch_4">
    <path d="M 338.688 298.944 
L 338.688 27.648 
" style="fill:none;stroke:#000000;stroke-linecap:square;stroke-linejoin:miter;stroke-width:0.8;"/>
   </g>
   <g id="patch_5">
    <path d="M 57.6 298.944 
L 338.688 298.944 
" style="fill:none;stroke:#000000;stroke-linecap:square;stroke-linejoin:miter;stroke-width:0.8;"/>
   </g>
   <g id="patch_6">
    <path d="M 57.6 27.648 
L 338.688 27.648 
" style="fill:none;stroke:#000000;stroke-linecap:square;stroke-linejoin:miter;stroke-width:0.8;"/>
   </g>
   <g id="text_13">
    <!-- rs -->
    <g transform="translate(375.22944 298.262739)scale(0.17 -0.17)">
     <use xlink:href="#DejaVuSans-114"/>
     <use x="41.113281" xlink:href="#DejaVuSans-115"/>
    </g>
   </g>
   <g id="text_14">
    <!-- NAL -->
    <g transform="translate(375.22944 233.796363)scale(0.17 -0.17)">
     <defs>
      <path d="M 9.8125 72.90625 
L 23.09375 72.90625 
L 55.421875 11.921875 
L 55.421875 72.90625 
L 64.984375 72.90625 
L 64.984375 0 
L 51.703125 0 
L 19.390625 60.984375 
L 19.390625 0 
L 9.8125 0 
z
" id="DejaVuSans-78"/>
      <path d="M 34.1875 63.1875 
L 20.796875 26.90625 
L 47.609375 26.90625 
z
M 28.609375 72.90625 
L 39.796875 72.90625 
L 67.578125 0 
L 57.328125 0 
L 50.6875 18.703125 
L 17.828125 18.703125 
L 11.1875 0 
L 0.78125 0 
z
" id="DejaVuSans-65"/>
      <path d="M 9.8125 72.90625 
L 19.671875 72.90625 
L 19.671875 8.296875 
L 55.171875 8.296875 
L 55.171875 0 
L 9.8125 0 
z
" id="DejaVuSans-76"/>
     </defs>
     <use xlink:href="#DejaVuSans-78"/>
     <use x="74.804688" xlink:href="#DejaVuSans-65"/>
     <use x="143.212891" xlink:href="#DejaVuSans-76"/>
    </g>
   </g>
   <g id="text_15">
    <!-- trust-con -->
    <g transform="translate(375.22944 169.329987)scale(0.17 -0.17)">
     <use xlink:href="#DejaVuSans-116"/>
     <use x="39.208984" xlink:href="#DejaVuSans-114"/>
     <use x="80.322266" xlink:href="#DejaVuSans-117"/>
     <use x="143.701172" xlink:href="#DejaVuSans-115"/>
     <use x="195.800781" xlink:href="#DejaVuSans-116"/>
     <use x="235.009766" xlink:href="#DejaVuSans-45"/>
     <use x="271.09375" xlink:href="#DejaVuSans-99"/>
     <use x="326.074219" xlink:href="#DejaVuSans-111"/>
     <use x="387.255859" xlink:href="#DejaVuSans-110"/>
    </g>
   </g>
   <g id="text_16">
    <!-- cobyla -->
    <g transform="translate(375.22944 104.863611)scale(0.17 -0.17)">
     <defs>
      <path d="M 48.6875 27.296875 
Q 48.6875 37.203125 44.609375 42.84375 
Q 40.53125 48.484375 33.40625 48.484375 
Q 26.265625 48.484375 22.1875 42.84375 
Q 18.109375 37.203125 18.109375 27.296875 
Q 18.109375 17.390625 22.1875 11.75 
Q 26.265625 6.109375 33.40625 6.109375 
Q 40.53125 6.109375 44.609375 11.75 
Q 48.6875 17.390625 48.6875 27.296875 
z
M 18.109375 46.390625 
Q 20.953125 51.265625 25.265625 53.625 
Q 29.59375 56 35.59375 56 
Q 45.5625 56 51.78125 48.09375 
Q 58.015625 40.1875 58.015625 27.296875 
Q 58.015625 14.40625 51.78125 6.484375 
Q 45.5625 -1.421875 35.59375 -1.421875 
Q 29.59375 -1.421875 25.265625 0.953125 
Q 20.953125 3.328125 18.109375 8.203125 
L 18.109375 0 
L 9.078125 0 
L 9.078125 75.984375 
L 18.109375 75.984375 
z
" id="DejaVuSans-98"/>
      <path d="M 32.171875 -5.078125 
Q 28.375 -14.84375 24.75 -17.8125 
Q 21.140625 -20.796875 15.09375 -20.796875 
L 7.90625 -20.796875 
L 7.90625 -13.28125 
L 13.1875 -13.28125 
Q 16.890625 -13.28125 18.9375 -11.515625 
Q 21 -9.765625 23.484375 -3.21875 
L 25.09375 0.875 
L 2.984375 54.6875 
L 12.5 54.6875 
L 29.59375 11.921875 
L 46.6875 54.6875 
L 56.203125 54.6875 
z
" id="DejaVuSans-121"/>
     </defs>
     <use xlink:href="#DejaVuSans-99"/>
     <use x="54.980469" xlink:href="#DejaVuSans-111"/>
     <use x="116.162109" xlink:href="#DejaVuSans-98"/>
     <use x="179.638672" xlink:href="#DejaVuSans-121"/>
     <use x="238.818359" xlink:href="#DejaVuSans-108"/>
     <use x="266.601562" xlink:href="#DejaVuSans-97"/>
    </g>
   </g>
   <g id="text_17">
    <!-- slsqp -->
    <g transform="translate(375.22944 40.397235)scale(0.17 -0.17)">
     <defs>
      <path d="M 14.796875 27.296875 
Q 14.796875 17.390625 18.875 11.75 
Q 22.953125 6.109375 30.078125 6.109375 
Q 37.203125 6.109375 41.296875 11.75 
Q 45.40625 17.390625 45.40625 27.296875 
Q 45.40625 37.203125 41.296875 42.84375 
Q 37.203125 48.484375 30.078125 48.484375 
Q 22.953125 48.484375 18.875 42.84375 
Q 14.796875 37.203125 14.796875 27.296875 
z
M 45.40625 8.203125 
Q 42.578125 3.328125 38.25 0.953125 
Q 33.9375 -1.421875 27.875 -1.421875 
Q 17.96875 -1.421875 11.734375 6.484375 
Q 5.515625 14.40625 5.515625 27.296875 
Q 5.515625 40.1875 11.734375 48.09375 
Q 17.96875 56 27.875 56 
Q 33.9375 56 38.25 53.625 
Q 42.578125 51.265625 45.40625 46.390625 
L 45.40625 54.6875 
L 54.390625 54.6875 
L 54.390625 -20.796875 
L 45.40625 -20.796875 
z
" id="DejaVuSans-113"/>
     </defs>
     <use xlink:href="#DejaVuSans-115"/>
     <use x="52.099609" xlink:href="#DejaVuSans-108"/>
     <use x="79.882812" xlink:href="#DejaVuSans-115"/>
     <use x="131.982422" xlink:href="#DejaVuSans-113"/>
     <use x="195.458984" xlink:href="#DejaVuSans-112"/>
    </g>
   </g>
   <g id="text_18">
    <!-- bbob-constrained f26, 3-D -->
    <g transform="translate(60.41088 38.111366)scale(0.102 -0.102)">
     <defs>
      <path d="M 40.578125 39.3125 
Q 47.65625 37.796875 51.625 33 
Q 55.609375 28.21875 55.609375 21.1875 
Q 55.609375 10.40625 48.1875 4.484375 
Q 40.765625 -1.421875 27.09375 -1.421875 
Q 22.515625 -1.421875 17.65625 -0.515625 
Q 12.796875 0.390625 7.625 2.203125 
L 7.625 11.71875 
Q 11.71875 9.328125 16.59375 8.109375 
Q 21.484375 6.890625 26.8125 6.890625 
Q 36.078125 6.890625 40.9375 10.546875 
Q 45.796875 14.203125 45.796875 21.1875 
Q 45.796875 27.640625 41.28125 31.265625 
Q 36.765625 34.90625 28.71875 34.90625 
L 20.21875 34.90625 
L 20.21875 43.015625 
L 29.109375 43.015625 
Q 36.375 43.015625 40.234375 45.921875 
Q 44.09375 48.828125 44.09375 54.296875 
Q 44.09375 59.90625 40.109375 62.90625 
Q 36.140625 65.921875 28.71875 65.921875 
Q 24.65625 65.921875 20.015625 65.03125 
Q 15.375 64.15625 9.8125 62.3125 
L 9.8125 71.09375 
Q 15.4375 72.65625 20.34375 73.4375 
Q 25.25 74.21875 29.59375 74.21875 
Q 40.828125 74.21875 47.359375 69.109375 
Q 53.90625 64.015625 53.90625 55.328125 
Q 53.90625 49.265625 50.4375 45.09375 
Q 46.96875 40.921875 40.578125 39.3125 
z
" id="DejaVuSans-51"/>
      <path d="M 19.671875 64.796875 
L 19.671875 8.109375 
L 31.59375 8.109375 
Q 46.6875 8.109375 53.6875 14.9375 
Q 60.6875 21.78125 60.6875 36.53125 
Q 60.6875 51.171875 53.6875 57.984375 
Q 46.6875 64.796875 31.59375 64.796875 
z
M 9.8125 72.90625 
L 30.078125 72.90625 
Q 51.265625 72.90625 61.171875 64.09375 
Q 71.09375 55.28125 71.09375 36.53125 
Q 71.09375 17.671875 61.125 8.828125 
Q 51.171875 0 30.078125 0 
L 9.8125 0 
z
" id="DejaVuSans-68"/>
     </defs>
     <use xlink:href="#DejaVuSans-98"/>
     <use x="63.476562" xlink:href="#DejaVuSans-98"/>
     <use x="126.953125" xlink:href="#DejaVuSans-111"/>
     <use x="188.134766" xlink:href="#DejaVuSans-98"/>
     <use x="251.611328" xlink:href="#DejaVuSans-45"/>
     <use x="287.695312" xlink:href="#DejaVuSans-99"/>
     <use x="342.675781" xlink:href="#DejaVuSans-111"/>
     <use x="403.857422" xlink:href="#DejaVuSans-110"/>
     <use x="467.236328" xlink:href="#DejaVuSans-115"/>
     <use x="519.335938" xlink:href="#DejaVuSans-116"/>
     <use x="558.544922" xlink:href="#DejaVuSans-114"/>
     <use x="599.658203" xlink:href="#DejaVuSans-97"/>
     <use x="660.9375" xlink:href="#DejaVuSans-105"/>
     <use x="688.720703" xlink:href="#DejaVuSans-110"/>
     <use x="752.099609" xlink:href="#DejaVuSans-101"/>
     <use x="813.623047" xlink:href="#DejaVuSans-100"/>
     <use x="877.099609" xlink:href="#DejaVuSans-32"/>
     <use x="908.886719" xlink:href="#DejaVuSans-102"/>
     <use x="944.091797" xlink:href="#DejaVuSans-50"/>
     <use x="1007.714844" xlink:href="#DejaVuSans-54"/>
     <use x="1071.337891" xlink:href="#DejaVuSans-44"/>
     <use x="1103.125" xlink:href="#DejaVuSans-32"/>
     <use x="1134.912109" xlink:href="#DejaVuSans-51"/>
     <use x="1198.535156" xlink:href="#DejaVuSans-45"/>
     <use x="1234.619141" xlink:href="#DejaVuSans-68"/>
    </g>
    <!-- 41 targets: 100..1e-06 -->
    <g transform="translate(60.41088 49.533135)scale(0.102 -0.102)">
     <defs>
      <path d="M 11.71875 12.40625 
L 22.015625 12.40625 
L 22.015625 0 
L 11.71875 0 
z
M 11.71875 51.703125 
L 22.015625 51.703125 
L 22.015625 39.3125 
L 11.71875 39.3125 
z
" id="DejaVuSans-58"/>
     </defs>
     <use xlink:href="#DejaVuSans-52"/>
     <use x="63.623047" xlink:href="#DejaVuSans-49"/>
     <use x="127.246094" xlink:href="#DejaVuSans-32"/>
     <use x="159.033203" xlink:href="#DejaVuSans-116"/>
     <use x="198.242188" xlink:href="#DejaVuSans-97"/>
     <use x="259.521484" xlink:href="#DejaVuSans-114"/>
     <use x="298.884766" xlink:href="#DejaVuSans-103"/>
     <use x="362.361328" xlink:href="#DejaVuSans-101"/>
     <use x="423.884766" xlink:href="#DejaVuSans-116"/>
     <use x="463.09375" xlink:href="#DejaVuSans-115"/>
     <use x="515.193359" xlink:href="#DejaVuSans-58"/>
     <use x="548.884766" xlink:href="#DejaVuSans-32"/>
     <use x="580.671875" xlink:href="#DejaVuSans-49"/>
     <use x="644.294922" xlink:href="#DejaVuSans-48"/>
     <use x="707.917969" xlink:href="#DejaVuSans-48"/>
     <use x="771.541016" xlink:href="#DejaVuSans-46"/>
     <use x="803.328125" xlink:href="#DejaVuSans-46"/>
     <use x="835.115234" xlink:href="#DejaVuSans-49"/>
     <use x="898.738281" xlink:href="#DejaVuSans-101"/>
     <use x="960.261719" xlink:href="#DejaVuSans-45"/>
     <use x="996.345703" xlink:href="#DejaVuSans-48"/>
     <use x="1059.96875" xlink:href="#DejaVuSans-54"/>
    </g>
    <!-- 15 instances -->
    <g transform="translate(60.41088 60.954904)scale(0.102 -0.102)">
     <defs>
      <path d="M 10.796875 72.90625 
L 49.515625 72.90625 
L 49.515625 64.59375 
L 19.828125 64.59375 
L 19.828125 46.734375 
Q 21.96875 47.46875 24.109375 47.828125 
Q 26.265625 48.1875 28.421875 48.1875 
Q 40.625 48.1875 47.75 41.5 
Q 54.890625 34.8125 54.890625 23.390625 
Q 54.890625 11.625 47.5625 5.09375 
Q 40.234375 -1.421875 26.90625 -1.421875 
Q 22.3125 -1.421875 17.546875 -0.640625 
Q 12.796875 0.140625 7.71875 1.703125 
L 7.71875 11.625 
Q 12.109375 9.234375 16.796875 8.0625 
Q 21.484375 6.890625 26.703125 6.890625 
Q 35.15625 6.890625 40.078125 11.328125 
Q 45.015625 15.765625 45.015625 23.390625 
Q 45.015625 31 40.078125 35.4375 
Q 35.15625 39.890625 26.703125 39.890625 
Q 22.75 39.890625 18.8125 39.015625 
Q 14.890625 38.140625 10.796875 36.28125 
z
" id="DejaVuSans-53"/>
     </defs>
     <use xlink:href="#DejaVuSans-49"/>
     <use x="63.623047" xlink:href="#DejaVuSans-53"/>
     <use x="127.246094" xlink:href="#DejaVuSans-32"/>
     <use x="159.033203" xlink:href="#DejaVuSans-105"/>
     <use x="186.816406" xlink:href="#DejaVuSans-110"/>
     <use x="250.195312" xlink:href="#DejaVuSans-115"/>
     <use x="302.294922" xlink:href="#DejaVuSans-116"/>
     <use x="341.503906" xlink:href="#DejaVuSans-97"/>
     <use x="402.783203" xlink:href="#DejaVuSans-110"/>
     <use x="466.162109" xlink:href="#DejaVuSans-99"/>
     <use x="521.142578" xlink:href="#DejaVuSans-101"/>
     <use x="582.666016" xlink:href="#DejaVuSans-115"/>
    </g>
   </g>
   <g id="text_19">
    <!-- v5z33 -->
    <g style="fill:#808080;" transform="translate(183.016656 294.151352)scale(0.1 -0.1)">
     <defs>
      <path d="M 5.515625 54.6875 
L 48.1875 54.6875 
L 48.1875 46.484375 
L 14.40625 7.171875 
L 48.1875 7.171875 
L 48.1875 0 
L 4.296875 0 
L 4.296875 8.203125 
L 38.09375 47.515625 
L 5.515625 47.515625 
z
" id="DejaVuSans-122"/>
     </defs>
     <use xlink:href="#DejaVuSans-118"/>
     <use x="59.179688" xlink:href="#DejaVuSans-53"/>
     <use x="122.802734" xlink:href="#DejaVuSans-122"/>
     <use x="175.292969" xlink:href="#DejaVuSans-51"/>
     <use x="238.916016" xlink:href="#DejaVuSans-51"/>
    </g>
   </g>
   <g id="text_20">
    <!-- 26 Discus, 2 constraints -->
    <g transform="translate(78.042437 21.648)scale(0.2 -0.2)">
     <use xlink:href="#DejaVuSans-50"/>
     <use x="63.623047" xlink:href="#DejaVuSans-54"/>
     <use x="127.246094" xlink:href="#DejaVuSans-32"/>
     <use x="159.033203" xlink:href="#DejaVuSans-68"/>
     <use x="236.035156" xlink:href="#DejaVuSans-105"/>
     <use x="263.818359" xlink:href="#DejaVuSans-115"/>
     <use x="315.917969" xlink:href="#DejaVuSans-99"/>
     <use x="370.898438" xlink:href="#DejaVuSans-117"/>
     <use x="434.277344" xlink:href="#DejaVuSans-115"/>
     <use x="486.376953" xlink:href="#DejaVuSans-44"/>
     <use x="518.164062" xlink:href="#DejaVuSans-32"/>
     <use x="549.951172" xlink:href="#DejaVuSans-50"/>
     <use x="613.574219" xlink:href="#DejaVuSans-32"/>
     <use x="645.361328" xlink:href="#DejaVuSans-99"/>
     <use x="700.341797" xlink:href="#DejaVuSans-111"/>
     <use x="761.523438" xlink:href="#DejaVuSans-110"/>
     <use x="824.902344" xlink:href="#DejaVuSans-115"/>
     <use x="877.001953" xlink:href="#DejaVuSans-116"/>
     <use x="916.210938" xlink:href="#DejaVuSans-114"/>
     <use x="957.324219" xlink:href="#DejaVuSans-97"/>
     <use x="1018.603516" xlink:href="#DejaVuSans-105"/>
     <use x="1046.386719" xlink:href="#DejaVuSans-110"/>
     <use x="1109.765625" xlink:href="#DejaVuSans-116"/>
     <use x="1148.974609" xlink:href="#DejaVuSans-115"/>
    </g>
   </g>
  </g>
 </g>
 <defs>
  <clipPath id="p0c04be2388">
   <rect height="271.296" width="281.088" x="57.6" y="27.648"/>
  </clipPath>
 </defs>
</svg>
