<?xml version="1.0" encoding="utf-8" standalone="no"?>
<!DOCTYPE svg PUBLIC "-//W3C//DTD SVG 1.1//EN"
  "http://www.w3.org/Graphics/SVG/1.1/DTD/svg11.dtd">
<!-- Created with matplotlib (https://matplotlib.org/) -->
<svg height="345.6pt" version="1.1" viewBox="0 0 460.8 345.6" width="460.8pt" xmlns="http://www.w3.org/2000/svg" xmlns:xlink="http://www.w3.org/1999/xlink">
 <metadata>
  <rdf:RDF xmlns:cc="http://creativecommons.org/ns#" xmlns:dc="http://purl.org/dc/elements/1.1/" xmlns:rdf="http://www.w3.org/1999/02/22-rdf-syntax-ns#">
   <cc:Work>
    <dc:type rdf:resource="http://purl.org/dc/dcmitype/StillImage"/>
    <dc:date>2021-06-24T15:49:01.779125</dc:date>
    <dc:format>image/svg+xml</dc:format>
    <dc:creator>
     <cc:Agent>
      <dc:title>Matplotlib v3.3.3, https://matplotlib.org/</dc:title>
     </cc:Agent>
    </dc:creator>
   </cc:Work>
  </rdf:RDF>
 </metadata>
 <defs>
  <style type="text/css">*{stroke-linecap:butt;stroke-linejoin:round;}</style>
 </defs>
 <g id="figure_1">
  <g id="patch_1">
   <path d="M 0 345.6 
L 460.8 345.6 
L 460.8 0 
L 0 0 
z
" style="fill:#ffffff;"/>
  </g>
  <g id="axes_1">
   <g id="patch_2">
    <path d="M 57.6 298.944 
L 338.688 298.944 
L 338.688 27.648 
L 57.6 27.648 
z
" style="fill:#ffffff;"/>
   </g>
   <g id="matplotlib.axis_1">
    <g id="xtick_1">
     <g id="line2d_1">
      <path clip-path="url(#p1fcdef0eaf)" d="M 57.6 298.944 
L 57.6 27.648 
" style="fill:none;stroke:#b0b0b0;stroke-linecap:square;stroke-width:0.8;"/>
     </g>
     <g id="line2d_2">
      <defs>
       <path d="M 0 0 
L 0 3.5 
" id="m8b2c392b41" style="stroke:#000000;stroke-width:0.8;"/>
      </defs>
      <g>
       <use style="stroke:#000000;stroke-width:0.8;" x="57.6" xlink:href="#m8b2c392b41" y="298.944"/>
      </g>
     </g>
     <g id="text_1">
      <!-- 0 -->
      <g transform="translate(51.2375 321.140875)scale(0.2 -0.2)">
       <defs>
        <path d="M 31.78125 66.40625 
Q 24.171875 66.40625 20.328125 58.90625 
Q 16.5 51.421875 16.5 36.375 
Q 16.5 21.390625 20.328125 13.890625 
Q 24.171875 6.390625 31.78125 6.390625 
Q 39.453125 6.390625 43.28125 13.890625 
Q 47.125 21.390625 47.125 36.375 
Q 47.125 51.421875 43.28125 58.90625 
Q 39.453125 66.40625 31.78125 66.40625 
z
M 31.78125 74.21875 
Q 44.046875 74.21875 50.515625 64.515625 
Q 56.984375 54.828125 56.984375 36.375 
Q 56.984375 17.96875 50.515625 8.265625 
Q 44.046875 -1.421875 31.78125 -1.421875 
Q 19.53125 -1.421875 13.0625 8.265625 
Q 6.59375 17.96875 6.59375 36.375 
Q 6.59375 54.828125 13.0625 64.515625 
Q 19.53125 74.21875 31.78125 74.21875 
z
" id="DejaVuSans-48"/>
       </defs>
       <use xlink:href="#DejaVuSans-48"/>
      </g>
     </g>
    </g>
    <g id="xtick_2">
     <g id="line2d_3">
      <path clip-path="url(#p1fcdef0eaf)" d="M 137.910857 298.944 
L 137.910857 27.648 
" style="fill:none;stroke:#b0b0b0;stroke-linecap:square;stroke-width:0.8;"/>
     </g>
     <g id="line2d_4">
      <g>
       <use style="stroke:#000000;stroke-width:0.8;" x="137.910857" xlink:href="#m8b2c392b41" y="298.944"/>
      </g>
     </g>
     <g id="text_2">
      <!-- 2 -->
      <g transform="translate(131.548357 321.140875)scale(0.2 -0.2)">
       <defs>
        <path d="M 19.1875 8.296875 
L 53.609375 8.296875 
L 53.609375 0 
L 7.328125 0 
L 7.328125 8.296875 
Q 12.9375 14.109375 22.625 23.890625 
Q 32.328125 33.6875 34.8125 36.53125 
Q 39.546875 41.84375 41.421875 45.53125 
Q 43.3125 49.21875 43.3125 52.78125 
Q 43.3125 58.59375 39.234375 62.25 
Q 35.15625 65.921875 28.609375 65.921875 
Q 23.96875 65.921875 18.8125 64.3125 
Q 13.671875 62.703125 7.8125 59.421875 
L 7.8125 69.390625 
Q 13.765625 71.78125 18.9375 73 
Q 24.125 74.21875 28.421875 74.21875 
Q 39.75 74.21875 46.484375 68.546875 
Q 53.21875 62.890625 53.21875 53.421875 
Q 53.21875 48.921875 51.53125 44.890625 
Q 49.859375 40.875 45.40625 35.40625 
Q 44.1875 33.984375 37.640625 27.21875 
Q 31.109375 20.453125 19.1875 8.296875 
z
" id="DejaVuSans-50"/>
       </defs>
       <use xlink:href="#DejaVuSans-50"/>
      </g>
     </g>
    </g>
    <g id="xtick_3">
     <g id="line2d_5">
      <path clip-path="url(#p1fcdef0eaf)" d="M 218.221714 298.944 
L 218.221714 27.648 
" style="fill:none;stroke:#b0b0b0;stroke-linecap:square;stroke-width:0.8;"/>
     </g>
     <g id="line2d_6">
      <g>
       <use style="stroke:#000000;stroke-width:0.8;" x="218.221714" xlink:href="#m8b2c392b41" y="298.944"/>
      </g>
     </g>
     <g id="text_3">
      <!-- 4 -->
      <g transform="translate(211.859214 321.140875)scale(0.2 -0.2)">
       <defs>
        <path d="M 37.796875 64.3125 
L 12.890625 25.390625 
L 37.796875 25.390625 
z
M 35.203125 72.90625 
L 47.609375 72.90625 
L 47.609375 25.390625 
L 58.015625 25.390625 
L 58.015625 17.1875 
L 47.609375 17.1875 
L 47.609375 0 
L 37.796875 0 
L 37.796875 17.1875 
L 4.890625 17.1875 
L 4.890625 26.703125 
z
" id="DejaVuSans-52"/>
       </defs>
       <use xlink:href="#DejaVuSans-52"/>
      </g>
     </g>
    </g>
    <g id="xtick_4">
     <g id="line2d_7">
      <path clip-path="url(#p1fcdef0eaf)" d="M 298.532571 298.944 
L 298.532571 27.648 
" style="fill:none;stroke:#b0b0b0;stroke-linecap:square;stroke-width:0.8;"/>
     </g>
     <g id="line2d_8">
      <g>
       <use style="stroke:#000000;stroke-width:0.8;" x="298.532571" xlink:href="#m8b2c392b41" y="298.944"/>
      </g>
     </g>
     <g id="text_4">
      <!-- 6 -->
      <g transform="translate(292.170071 321.140875)scale(0.2 -0.2)">
       <defs>
        <path d="M 33.015625 40.375 
Q 26.375 40.375 22.484375 35.828125 
Q 18.609375 31.296875 18.609375 23.390625 
Q 18.609375 15.53125 22.484375 10.953125 
Q 26.375 6.390625 33.015625 6.390625 
Q 39.65625 6.390625 43.53125 10.953125 
Q 47.40625 15.53125 47.40625 23.390625 
Q 47.40625 31.296875 43.53125 35.828125 
Q 39.65625 40.375 33.015625 40.375 
z
M 52.59375 71.296875 
L 52.59375 62.3125 
Q 48.875 64.0625 45.09375 64.984375 
Q 41.3125 65.921875 37.59375 65.921875 
Q 27.828125 65.921875 22.671875 59.328125 
Q 17.53125 52.734375 16.796875 39.40625 
Q 19.671875 43.65625 24.015625 45.921875 
Q 28.375 48.1875 33.59375 48.1875 
Q 44.578125 48.1875 50.953125 41.515625 
Q 57.328125 34.859375 57.328125 23.390625 
Q 57.328125 12.15625 50.6875 5.359375 
Q 44.046875 -1.421875 33.015625 -1.421875 
Q 20.359375 -1.421875 13.671875 8.265625 
Q 6.984375 17.96875 6.984375 36.375 
Q 6.984375 53.65625 15.1875 63.9375 
Q 23.390625 74.21875 37.203125 74.21875 
Q 40.921875 74.21875 44.703125 73.484375 
Q 48.484375 72.75 52.59375 71.296875 
z
" id="DejaVuSans-54"/>
       </defs>
       <use xlink:href="#DejaVuSans-54"/>
      </g>
     </g>
    </g>
    <g id="xtick_5">
     <g id="line2d_9">
      <path clip-path="url(#p1fcdef0eaf)" d="M 97.755429 298.944 
L 97.755429 27.648 
" style="fill:none;stroke:#b0b0b0;stroke-linecap:square;stroke-width:0.8;"/>
     </g>
     <g id="line2d_10">
      <defs>
       <path d="M 0 0 
L 0 2 
" id="m8ad41b05e0" style="stroke:#000000;stroke-width:0.6;"/>
      </defs>
      <g>
       <use style="stroke:#000000;stroke-width:0.6;" x="97.755429" xlink:href="#m8ad41b05e0" y="298.944"/>
      </g>
     </g>
    </g>
    <g id="xtick_6">
     <g id="line2d_11">
      <path clip-path="url(#p1fcdef0eaf)" d="M 178.066286 298.944 
L 178.066286 27.648 
" style="fill:none;stroke:#b0b0b0;stroke-linecap:square;stroke-width:0.8;"/>
     </g>
     <g id="line2d_12">
      <g>
       <use style="stroke:#000000;stroke-width:0.6;" x="178.066286" xlink:href="#m8ad41b05e0" y="298.944"/>
      </g>
     </g>
    </g>
    <g id="xtick_7">
     <g id="line2d_13">
      <path clip-path="url(#p1fcdef0eaf)" d="M 258.377143 298.944 
L 258.377143 27.648 
" style="fill:none;stroke:#b0b0b0;stroke-linecap:square;stroke-width:0.8;"/>
     </g>
     <g id="line2d_14">
      <g>
       <use style="stroke:#000000;stroke-width:0.6;" x="258.377143" xlink:href="#m8ad41b05e0" y="298.944"/>
      </g>
     </g>
    </g>
    <g id="xtick_8">
     <g id="line2d_15">
      <path clip-path="url(#p1fcdef0eaf)" d="M 338.688 298.944 
L 338.688 27.648 
" style="fill:none;stroke:#b0b0b0;stroke-linecap:square;stroke-width:0.8;"/>
     </g>
     <g id="line2d_16">
      <g>
       <use style="stroke:#000000;stroke-width:0.6;" x="338.688" xlink:href="#m8ad41b05e0" y="298.944"/>
      </g>
     </g>
    </g>
    <g id="text_5">
     <!-- log10(# (f+g)-evals / dimension) -->
     <g transform="translate(58.145016 342.217594)scale(0.17 -0.17)">
      <defs>
       <path d="M 9.421875 75.984375 
L 18.40625 75.984375 
L 18.40625 0 
L 9.421875 0 
z
" id="DejaVuSans-108"/>
       <path d="M 30.609375 48.390625 
Q 23.390625 48.390625 19.1875 42.75 
Q 14.984375 37.109375 14.984375 27.296875 
Q 14.984375 17.484375 19.15625 11.84375 
Q 23.34375 6.203125 30.609375 6.203125 
Q 37.796875 6.203125 41.984375 11.859375 
Q 46.1875 17.53125 46.1875 27.296875 
Q 46.1875 37.015625 41.984375 42.703125 
Q 37.796875 48.390625 30.609375 48.390625 
z
M 30.609375 56 
Q 42.328125 56 49.015625 48.375 
Q 55.71875 40.765625 55.71875 27.296875 
Q 55.71875 13.875 49.015625 6.21875 
Q 42.328125 -1.421875 30.609375 -1.421875 
Q 18.84375 -1.421875 12.171875 6.21875 
Q 5.515625 13.875 5.515625 27.296875 
Q 5.515625 40.765625 12.171875 48.375 
Q 18.84375 56 30.609375 56 
z
" id="DejaVuSans-111"/>
       <path d="M 45.40625 27.984375 
Q 45.40625 37.75 41.375 43.109375 
Q 37.359375 48.484375 30.078125 48.484375 
Q 22.859375 48.484375 18.828125 43.109375 
Q 14.796875 37.75 14.796875 27.984375 
Q 14.796875 18.265625 18.828125 12.890625 
Q 22.859375 7.515625 30.078125 7.515625 
Q 37.359375 7.515625 41.375 12.890625 
Q 45.40625 18.265625 45.40625 27.984375 
z
M 54.390625 6.78125 
Q 54.390625 -7.171875 48.1875 -13.984375 
Q 42 -20.796875 29.203125 -20.796875 
Q 24.46875 -20.796875 20.265625 -20.09375 
Q 16.0625 -19.390625 12.109375 -17.921875 
L 12.109375 -9.1875 
Q 16.0625 -11.328125 19.921875 -12.34375 
Q 23.78125 -13.375 27.78125 -13.375 
Q 36.625 -13.375 41.015625 -8.765625 
Q 45.40625 -4.15625 45.40625 5.171875 
L 45.40625 9.625 
Q 42.625 4.78125 38.28125 2.390625 
Q 33.9375 0 27.875 0 
Q 17.828125 0 11.671875 7.65625 
Q 5.515625 15.328125 5.515625 27.984375 
Q 5.515625 40.671875 11.671875 48.328125 
Q 17.828125 56 27.875 56 
Q 33.9375 56 38.28125 53.609375 
Q 42.625 51.21875 45.40625 46.390625 
L 45.40625 54.6875 
L 54.390625 54.6875 
z
" id="DejaVuSans-103"/>
       <path d="M 12.40625 8.296875 
L 28.515625 8.296875 
L 28.515625 63.921875 
L 10.984375 60.40625 
L 10.984375 69.390625 
L 28.421875 72.90625 
L 38.28125 72.90625 
L 38.28125 8.296875 
L 54.390625 8.296875 
L 54.390625 0 
L 12.40625 0 
z
" id="DejaVuSans-49"/>
       <path d="M 31 75.875 
Q 24.46875 64.65625 21.28125 53.65625 
Q 18.109375 42.671875 18.109375 31.390625 
Q 18.109375 20.125 21.3125 9.0625 
Q 24.515625 -2 31 -13.1875 
L 23.1875 -13.1875 
Q 15.875 -1.703125 12.234375 9.375 
Q 8.59375 20.453125 8.59375 31.390625 
Q 8.59375 42.28125 12.203125 53.3125 
Q 15.828125 64.359375 23.1875 75.875 
z
" id="DejaVuSans-40"/>
       <path d="M 51.125 44 
L 36.921875 44 
L 32.8125 27.6875 
L 47.125 27.6875 
z
M 43.796875 71.78125 
L 38.71875 51.515625 
L 52.984375 51.515625 
L 58.109375 71.78125 
L 65.921875 71.78125 
L 60.890625 51.515625 
L 76.125 51.515625 
L 76.125 44 
L 58.984375 44 
L 54.984375 27.6875 
L 70.515625 27.6875 
L 70.515625 20.21875 
L 53.078125 20.21875 
L 48 0 
L 40.1875 0 
L 45.21875 20.21875 
L 30.90625 20.21875 
L 25.875 0 
L 18.015625 0 
L 23.09375 20.21875 
L 7.71875 20.21875 
L 7.71875 27.6875 
L 24.90625 27.6875 
L 29 44 
L 13.28125 44 
L 13.28125 51.515625 
L 30.90625 51.515625 
L 35.890625 71.78125 
z
" id="DejaVuSans-35"/>
       <path id="DejaVuSans-32"/>
       <path d="M 37.109375 75.984375 
L 37.109375 68.5 
L 28.515625 68.5 
Q 23.6875 68.5 21.796875 66.546875 
Q 19.921875 64.59375 19.921875 59.515625 
L 19.921875 54.6875 
L 34.71875 54.6875 
L 34.71875 47.703125 
L 19.921875 47.703125 
L 19.921875 0 
L 10.890625 0 
L 10.890625 47.703125 
L 2.296875 47.703125 
L 2.296875 54.6875 
L 10.890625 54.6875 
L 10.890625 58.5 
Q 10.890625 67.625 15.140625 71.796875 
Q 19.390625 75.984375 28.609375 75.984375 
z
" id="DejaVuSans-102"/>
       <path d="M 46 62.703125 
L 46 35.5 
L 73.1875 35.5 
L 73.1875 27.203125 
L 46 27.203125 
L 46 0 
L 37.796875 0 
L 37.796875 27.203125 
L 10.59375 27.203125 
L 10.59375 35.5 
L 37.796875 35.5 
L 37.796875 62.703125 
z
" id="DejaVuSans-43"/>
       <path d="M 8.015625 75.875 
L 15.828125 75.875 
Q 23.140625 64.359375 26.78125 53.3125 
Q 30.421875 42.28125 30.421875 31.390625 
Q 30.421875 20.453125 26.78125 9.375 
Q 23.140625 -1.703125 15.828125 -13.1875 
L 8.015625 -13.1875 
Q 14.5 -2 17.703125 9.0625 
Q 20.90625 20.125 20.90625 31.390625 
Q 20.90625 42.671875 17.703125 53.65625 
Q 14.5 64.65625 8.015625 75.875 
z
" id="DejaVuSans-41"/>
       <path d="M 4.890625 31.390625 
L 31.203125 31.390625 
L 31.203125 23.390625 
L 4.890625 23.390625 
z
" id="DejaVuSans-45"/>
       <path d="M 56.203125 29.59375 
L 56.203125 25.203125 
L 14.890625 25.203125 
Q 15.484375 15.921875 20.484375 11.0625 
Q 25.484375 6.203125 34.421875 6.203125 
Q 39.59375 6.203125 44.453125 7.46875 
Q 49.3125 8.734375 54.109375 11.28125 
L 54.109375 2.78125 
Q 49.265625 0.734375 44.1875 -0.34375 
Q 39.109375 -1.421875 33.890625 -1.421875 
Q 20.796875 -1.421875 13.15625 6.1875 
Q 5.515625 13.8125 5.515625 26.8125 
Q 5.515625 40.234375 12.765625 48.109375 
Q 20.015625 56 32.328125 56 
Q 43.359375 56 49.78125 48.890625 
Q 56.203125 41.796875 56.203125 29.59375 
z
M 47.21875 32.234375 
Q 47.125 39.59375 43.09375 43.984375 
Q 39.0625 48.390625 32.421875 48.390625 
Q 24.90625 48.390625 20.390625 44.140625 
Q 15.875 39.890625 15.1875 32.171875 
z
" id="DejaVuSans-101"/>
       <path d="M 2.984375 54.6875 
L 12.5 54.6875 
L 29.59375 8.796875 
L 46.6875 54.6875 
L 56.203125 54.6875 
L 35.6875 0 
L 23.484375 0 
z
" id="DejaVuSans-118"/>
       <path d="M 34.28125 27.484375 
Q 23.390625 27.484375 19.1875 25 
Q 14.984375 22.515625 14.984375 16.5 
Q 14.984375 11.71875 18.140625 8.90625 
Q 21.296875 6.109375 26.703125 6.109375 
Q 34.1875 6.109375 38.703125 11.40625 
Q 43.21875 16.703125 43.21875 25.484375 
L 43.21875 27.484375 
z
M 52.203125 31.203125 
L 52.203125 0 
L 43.21875 0 
L 43.21875 8.296875 
Q 40.140625 3.328125 35.546875 0.953125 
Q 30.953125 -1.421875 24.3125 -1.421875 
Q 15.921875 -1.421875 10.953125 3.296875 
Q 6 8.015625 6 15.921875 
Q 6 25.140625 12.171875 29.828125 
Q 18.359375 34.515625 30.609375 34.515625 
L 43.21875 34.515625 
L 43.21875 35.40625 
Q 43.21875 41.609375 39.140625 45 
Q 35.0625 48.390625 27.6875 48.390625 
Q 23 48.390625 18.546875 47.265625 
Q 14.109375 46.140625 10.015625 43.890625 
L 10.015625 52.203125 
Q 14.9375 54.109375 19.578125 55.046875 
Q 24.21875 56 28.609375 56 
Q 40.484375 56 46.34375 49.84375 
Q 52.203125 43.703125 52.203125 31.203125 
z
" id="DejaVuSans-97"/>
       <path d="M 44.28125 53.078125 
L 44.28125 44.578125 
Q 40.484375 46.53125 36.375 47.5 
Q 32.28125 48.484375 27.875 48.484375 
Q 21.1875 48.484375 17.84375 46.4375 
Q 14.5 44.390625 14.5 40.28125 
Q 14.5 37.15625 16.890625 35.375 
Q 19.28125 33.59375 26.515625 31.984375 
L 29.59375 31.296875 
Q 39.15625 29.25 43.1875 25.515625 
Q 47.21875 21.78125 47.21875 15.09375 
Q 47.21875 7.46875 41.1875 3.015625 
Q 35.15625 -1.421875 24.609375 -1.421875 
Q 20.21875 -1.421875 15.453125 -0.5625 
Q 10.6875 0.296875 5.421875 2 
L 5.421875 11.28125 
Q 10.40625 8.6875 15.234375 7.390625 
Q 20.0625 6.109375 24.8125 6.109375 
Q 31.15625 6.109375 34.5625 8.28125 
Q 37.984375 10.453125 37.984375 14.40625 
Q 37.984375 18.0625 35.515625 20.015625 
Q 33.0625 21.96875 24.703125 23.78125 
L 21.578125 24.515625 
Q 13.234375 26.265625 9.515625 29.90625 
Q 5.8125 33.546875 5.8125 39.890625 
Q 5.8125 47.609375 11.28125 51.796875 
Q 16.75 56 26.8125 56 
Q 31.78125 56 36.171875 55.265625 
Q 40.578125 54.546875 44.28125 53.078125 
z
" id="DejaVuSans-115"/>
       <path d="M 25.390625 72.90625 
L 33.6875 72.90625 
L 8.296875 -9.28125 
L 0 -9.28125 
z
" id="DejaVuSans-47"/>
       <path d="M 45.40625 46.390625 
L 45.40625 75.984375 
L 54.390625 75.984375 
L 54.390625 0 
L 45.40625 0 
L 45.40625 8.203125 
Q 42.578125 3.328125 38.25 0.953125 
Q 33.9375 -1.421875 27.875 -1.421875 
Q 17.96875 -1.421875 11.734375 6.484375 
Q 5.515625 14.40625 5.515625 27.296875 
Q 5.515625 40.1875 11.734375 48.09375 
Q 17.96875 56 27.875 56 
Q 33.9375 56 38.25 53.625 
Q 42.578125 51.265625 45.40625 46.390625 
z
M 14.796875 27.296875 
Q 14.796875 17.390625 18.875 11.75 
Q 22.953125 6.109375 30.078125 6.109375 
Q 37.203125 6.109375 41.296875 11.75 
Q 45.40625 17.390625 45.40625 27.296875 
Q 45.40625 37.203125 41.296875 42.84375 
Q 37.203125 48.484375 30.078125 48.484375 
Q 22.953125 48.484375 18.875 42.84375 
Q 14.796875 37.203125 14.796875 27.296875 
z
" id="DejaVuSans-100"/>
       <path d="M 9.421875 54.6875 
L 18.40625 54.6875 
L 18.40625 0 
L 9.421875 0 
z
M 9.421875 75.984375 
L 18.40625 75.984375 
L 18.40625 64.59375 
L 9.421875 64.59375 
z
" id="DejaVuSans-105"/>
       <path d="M 52 44.1875 
Q 55.375 50.25 60.0625 53.125 
Q 64.75 56 71.09375 56 
Q 79.640625 56 84.28125 50.015625 
Q 88.921875 44.046875 88.921875 33.015625 
L 88.921875 0 
L 79.890625 0 
L 79.890625 32.71875 
Q 79.890625 40.578125 77.09375 44.375 
Q 74.3125 48.1875 68.609375 48.1875 
Q 61.625 48.1875 57.5625 43.546875 
Q 53.515625 38.921875 53.515625 30.90625 
L 53.515625 0 
L 44.484375 0 
L 44.484375 32.71875 
Q 44.484375 40.625 41.703125 44.40625 
Q 38.921875 48.1875 33.109375 48.1875 
Q 26.21875 48.1875 22.15625 43.53125 
Q 18.109375 38.875 18.109375 30.90625 
L 18.109375 0 
L 9.078125 0 
L 9.078125 54.6875 
L 18.109375 54.6875 
L 18.109375 46.1875 
Q 21.1875 51.21875 25.484375 53.609375 
Q 29.78125 56 35.6875 56 
Q 41.65625 56 45.828125 52.96875 
Q 50 49.953125 52 44.1875 
z
" id="DejaVuSans-109"/>
       <path d="M 54.890625 33.015625 
L 54.890625 0 
L 45.90625 0 
L 45.90625 32.71875 
Q 45.90625 40.484375 42.875 44.328125 
Q 39.84375 48.1875 33.796875 48.1875 
Q 26.515625 48.1875 22.3125 43.546875 
Q 18.109375 38.921875 18.109375 30.90625 
L 18.109375 0 
L 9.078125 0 
L 9.078125 54.6875 
L 18.109375 54.6875 
L 18.109375 46.1875 
Q 21.34375 51.125 25.703125 53.5625 
Q 30.078125 56 35.796875 56 
Q 45.21875 56 50.046875 50.171875 
Q 54.890625 44.34375 54.890625 33.015625 
z
" id="DejaVuSans-110"/>
      </defs>
      <use xlink:href="#DejaVuSans-108"/>
      <use x="27.783203" xlink:href="#DejaVuSans-111"/>
      <use x="88.964844" xlink:href="#DejaVuSans-103"/>
      <use x="152.441406" xlink:href="#DejaVuSans-49"/>
      <use x="216.064453" xlink:href="#DejaVuSans-48"/>
      <use x="279.6875" xlink:href="#DejaVuSans-40"/>
      <use x="318.701172" xlink:href="#DejaVuSans-35"/>
      <use x="402.490234" xlink:href="#DejaVuSans-32"/>
      <use x="434.277344" xlink:href="#DejaVuSans-40"/>
      <use x="473.291016" xlink:href="#DejaVuSans-102"/>
      <use x="508.496094" xlink:href="#DejaVuSans-43"/>
      <use x="592.285156" xlink:href="#DejaVuSans-103"/>
      <use x="655.761719" xlink:href="#DejaVuSans-41"/>
      <use x="694.775391" xlink:href="#DejaVuSans-45"/>
      <use x="730.859375" xlink:href="#DejaVuSans-101"/>
      <use x="792.382812" xlink:href="#DejaVuSans-118"/>
      <use x="851.5625" xlink:href="#DejaVuSans-97"/>
      <use x="912.841797" xlink:href="#DejaVuSans-108"/>
      <use x="940.625" xlink:href="#DejaVuSans-115"/>
      <use x="992.724609" xlink:href="#DejaVuSans-32"/>
      <use x="1024.511719" xlink:href="#DejaVuSans-47"/>
      <use x="1058.203125" xlink:href="#DejaVuSans-32"/>
      <use x="1089.990234" xlink:href="#DejaVuSans-100"/>
      <use x="1153.466797" xlink:href="#DejaVuSans-105"/>
      <use x="1181.25" xlink:href="#DejaVuSans-109"/>
      <use x="1278.662109" xlink:href="#DejaVuSans-101"/>
      <use x="1340.185547" xlink:href="#DejaVuSans-110"/>
      <use x="1403.564453" xlink:href="#DejaVuSans-115"/>
      <use x="1455.664062" xlink:href="#DejaVuSans-105"/>
      <use x="1483.447266" xlink:href="#DejaVuSans-111"/>
      <use x="1544.628906" xlink:href="#DejaVuSans-110"/>
      <use x="1608.007812" xlink:href="#DejaVuSans-41"/>
     </g>
    </g>
   </g>
   <g id="matplotlib.axis_2">
    <g id="ytick_1">
     <g id="line2d_17">
      <path clip-path="url(#p1fcdef0eaf)" d="M 57.6 298.944 
L 338.688 298.944 
" style="fill:none;stroke:#b0b0b0;stroke-linecap:square;stroke-width:0.8;"/>
     </g>
     <g id="line2d_18">
      <defs>
       <path d="M 0 0 
L -3.5 0 
" id="m84733125b1" style="stroke:#000000;stroke-width:0.8;"/>
      </defs>
      <g>
       <use style="stroke:#000000;stroke-width:0.8;" x="57.6" xlink:href="#m84733125b1" y="298.944"/>
      </g>
     </g>
     <g id="text_6">
      <!-- 0.0 -->
      <g transform="translate(25.155 305.02275)scale(0.16 -0.16)">
       <defs>
        <path d="M 10.6875 12.40625 
L 21 12.40625 
L 21 0 
L 10.6875 0 
z
" id="DejaVuSans-46"/>
       </defs>
       <use xlink:href="#DejaVuSans-48"/>
       <use x="63.623047" xlink:href="#DejaVuSans-46"/>
       <use x="95.410156" xlink:href="#DejaVuSans-48"/>
      </g>
     </g>
    </g>
    <g id="ytick_2">
     <g id="line2d_19">
      <path clip-path="url(#p1fcdef0eaf)" d="M 57.6 245.22202 
L 338.688 245.22202 
" style="fill:none;stroke:#b0b0b0;stroke-linecap:square;stroke-width:0.8;"/>
     </g>
     <g id="line2d_20">
      <g>
       <use style="stroke:#000000;stroke-width:0.8;" x="57.6" xlink:href="#m84733125b1" y="245.22202"/>
      </g>
     </g>
     <g id="text_7">
      <!-- 0.2 -->
      <g transform="translate(25.155 251.30077)scale(0.16 -0.16)">
       <use xlink:href="#DejaVuSans-48"/>
       <use x="63.623047" xlink:href="#DejaVuSans-46"/>
       <use x="95.410156" xlink:href="#DejaVuSans-50"/>
      </g>
     </g>
    </g>
    <g id="ytick_3">
     <g id="line2d_21">
      <path clip-path="url(#p1fcdef0eaf)" d="M 57.6 191.50004 
L 338.688 191.50004 
" style="fill:none;stroke:#b0b0b0;stroke-linecap:square;stroke-width:0.8;"/>
     </g>
     <g id="line2d_22">
      <g>
       <use style="stroke:#000000;stroke-width:0.8;" x="57.6" xlink:href="#m84733125b1" y="191.50004"/>
      </g>
     </g>
     <g id="text_8">
      <!-- 0.4 -->
      <g transform="translate(25.155 197.57879)scale(0.16 -0.16)">
       <use xlink:href="#DejaVuSans-48"/>
       <use x="63.623047" xlink:href="#DejaVuSans-46"/>
       <use x="95.410156" xlink:href="#DejaVuSans-52"/>
      </g>
     </g>
    </g>
    <g id="ytick_4">
     <g id="line2d_23">
      <path clip-path="url(#p1fcdef0eaf)" d="M 57.6 137.778059 
L 338.688 137.778059 
" style="fill:none;stroke:#b0b0b0;stroke-linecap:square;stroke-width:0.8;"/>
     </g>
     <g id="line2d_24">
      <g>
       <use style="stroke:#000000;stroke-width:0.8;" x="57.6" xlink:href="#m84733125b1" y="137.778059"/>
      </g>
     </g>
     <g id="text_9">
      <!-- 0.6 -->
      <g transform="translate(25.155 143.856809)scale(0.16 -0.16)">
       <use xlink:href="#DejaVuSans-48"/>
       <use x="63.623047" xlink:href="#DejaVuSans-46"/>
       <use x="95.410156" xlink:href="#DejaVuSans-54"/>
      </g>
     </g>
    </g>
    <g id="ytick_5">
     <g id="line2d_25">
      <path clip-path="url(#p1fcdef0eaf)" d="M 57.6 84.056079 
L 338.688 84.056079 
" style="fill:none;stroke:#b0b0b0;stroke-linecap:square;stroke-width:0.8;"/>
     </g>
     <g id="line2d_26">
      <g>
       <use style="stroke:#000000;stroke-width:0.8;" x="57.6" xlink:href="#m84733125b1" y="84.056079"/>
      </g>
     </g>
     <g id="text_10">
      <!-- 0.8 -->
      <g transform="translate(25.155 90.134829)scale(0.16 -0.16)">
       <defs>
        <path d="M 31.78125 34.625 
Q 24.75 34.625 20.71875 30.859375 
Q 16.703125 27.09375 16.703125 20.515625 
Q 16.703125 13.921875 20.71875 10.15625 
Q 24.75 6.390625 31.78125 6.390625 
Q 38.8125 6.390625 42.859375 10.171875 
Q 46.921875 13.96875 46.921875 20.515625 
Q 46.921875 27.09375 42.890625 30.859375 
Q 38.875 34.625 31.78125 34.625 
z
M 21.921875 38.8125 
Q 15.578125 40.375 12.03125 44.71875 
Q 8.5 49.078125 8.5 55.328125 
Q 8.5 64.0625 14.71875 69.140625 
Q 20.953125 74.21875 31.78125 74.21875 
Q 42.671875 74.21875 48.875 69.140625 
Q 55.078125 64.0625 55.078125 55.328125 
Q 55.078125 49.078125 51.53125 44.71875 
Q 48 40.375 41.703125 38.8125 
Q 48.828125 37.15625 52.796875 32.3125 
Q 56.78125 27.484375 56.78125 20.515625 
Q 56.78125 9.90625 50.3125 4.234375 
Q 43.84375 -1.421875 31.78125 -1.421875 
Q 19.734375 -1.421875 13.25 4.234375 
Q 6.78125 9.90625 6.78125 20.515625 
Q 6.78125 27.484375 10.78125 32.3125 
Q 14.796875 37.15625 21.921875 38.8125 
z
M 18.3125 54.390625 
Q 18.3125 48.734375 21.84375 45.5625 
Q 25.390625 42.390625 31.78125 42.390625 
Q 38.140625 42.390625 41.71875 45.5625 
Q 45.3125 48.734375 45.3125 54.390625 
Q 45.3125 60.0625 41.71875 63.234375 
Q 38.140625 66.40625 31.78125 66.40625 
Q 25.390625 66.40625 21.84375 63.234375 
Q 18.3125 60.0625 18.3125 54.390625 
z
" id="DejaVuSans-56"/>
       </defs>
       <use xlink:href="#DejaVuSans-48"/>
       <use x="63.623047" xlink:href="#DejaVuSans-46"/>
       <use x="95.410156" xlink:href="#DejaVuSans-56"/>
      </g>
     </g>
    </g>
    <g id="ytick_6">
     <g id="line2d_27">
      <path clip-path="url(#p1fcdef0eaf)" d="M 57.6 30.334099 
L 338.688 30.334099 
" style="fill:none;stroke:#b0b0b0;stroke-linecap:square;stroke-width:0.8;"/>
     </g>
     <g id="line2d_28">
      <g>
       <use style="stroke:#000000;stroke-width:0.8;" x="57.6" xlink:href="#m84733125b1" y="30.334099"/>
      </g>
     </g>
     <g id="text_11">
      <!-- 1.0 -->
      <g transform="translate(25.155 36.412849)scale(0.16 -0.16)">
       <use xlink:href="#DejaVuSans-49"/>
       <use x="63.623047" xlink:href="#DejaVuSans-46"/>
       <use x="95.410156" xlink:href="#DejaVuSans-48"/>
      </g>
     </g>
    </g>
    <g id="text_12">
     <!-- Fraction of function,target pairs -->
     <g transform="translate(17.619531 297.681)rotate(-90)scale(0.17 -0.17)">
      <defs>
       <path d="M 9.8125 72.90625 
L 51.703125 72.90625 
L 51.703125 64.59375 
L 19.671875 64.59375 
L 19.671875 43.109375 
L 48.578125 43.109375 
L 48.578125 34.8125 
L 19.671875 34.8125 
L 19.671875 0 
L 9.8125 0 
z
" id="DejaVuSans-70"/>
       <path d="M 41.109375 46.296875 
Q 39.59375 47.171875 37.8125 47.578125 
Q 36.03125 48 33.890625 48 
Q 26.265625 48 22.1875 43.046875 
Q 18.109375 38.09375 18.109375 28.8125 
L 18.109375 0 
L 9.078125 0 
L 9.078125 54.6875 
L 18.109375 54.6875 
L 18.109375 46.1875 
Q 20.953125 51.171875 25.484375 53.578125 
Q 30.03125 56 36.53125 56 
Q 37.453125 56 38.578125 55.875 
Q 39.703125 55.765625 41.0625 55.515625 
z
" id="DejaVuSans-114"/>
       <path d="M 48.78125 52.59375 
L 48.78125 44.1875 
Q 44.96875 46.296875 41.140625 47.34375 
Q 37.3125 48.390625 33.40625 48.390625 
Q 24.65625 48.390625 19.8125 42.84375 
Q 14.984375 37.3125 14.984375 27.296875 
Q 14.984375 17.28125 19.8125 11.734375 
Q 24.65625 6.203125 33.40625 6.203125 
Q 37.3125 6.203125 41.140625 7.25 
Q 44.96875 8.296875 48.78125 10.40625 
L 48.78125 2.09375 
Q 45.015625 0.34375 40.984375 -0.53125 
Q 36.96875 -1.421875 32.421875 -1.421875 
Q 20.0625 -1.421875 12.78125 6.34375 
Q 5.515625 14.109375 5.515625 27.296875 
Q 5.515625 40.671875 12.859375 48.328125 
Q 20.21875 56 33.015625 56 
Q 37.15625 56 41.109375 55.140625 
Q 45.0625 54.296875 48.78125 52.59375 
z
" id="DejaVuSans-99"/>
       <path d="M 18.3125 70.21875 
L 18.3125 54.6875 
L 36.8125 54.6875 
L 36.8125 47.703125 
L 18.3125 47.703125 
L 18.3125 18.015625 
Q 18.3125 11.328125 20.140625 9.421875 
Q 21.96875 7.515625 27.59375 7.515625 
L 36.8125 7.515625 
L 36.8125 0 
L 27.59375 0 
Q 17.1875 0 13.234375 3.875 
Q 9.28125 7.765625 9.28125 18.015625 
L 9.28125 47.703125 
L 2.6875 47.703125 
L 2.6875 54.6875 
L 9.28125 54.6875 
L 9.28125 70.21875 
z
" id="DejaVuSans-116"/>
       <path d="M 8.5 21.578125 
L 8.5 54.6875 
L 17.484375 54.6875 
L 17.484375 21.921875 
Q 17.484375 14.15625 20.5 10.265625 
Q 23.53125 6.390625 29.59375 6.390625 
Q 36.859375 6.390625 41.078125 11.03125 
Q 45.3125 15.671875 45.3125 23.6875 
L 45.3125 54.6875 
L 54.296875 54.6875 
L 54.296875 0 
L 45.3125 0 
L 45.3125 8.40625 
Q 42.046875 3.421875 37.71875 1 
Q 33.40625 -1.421875 27.6875 -1.421875 
Q 18.265625 -1.421875 13.375 4.4375 
Q 8.5 10.296875 8.5 21.578125 
z
M 31.109375 56 
z
" id="DejaVuSans-117"/>
       <path d="M 11.71875 12.40625 
L 22.015625 12.40625 
L 22.015625 4 
L 14.015625 -11.625 
L 7.71875 -11.625 
L 11.71875 4 
z
" id="DejaVuSans-44"/>
       <path d="M 18.109375 8.203125 
L 18.109375 -20.796875 
L 9.078125 -20.796875 
L 9.078125 54.6875 
L 18.109375 54.6875 
L 18.109375 46.390625 
Q 20.953125 51.265625 25.265625 53.625 
Q 29.59375 56 35.59375 56 
Q 45.5625 56 51.78125 48.09375 
Q 58.015625 40.1875 58.015625 27.296875 
Q 58.015625 14.40625 51.78125 6.484375 
Q 45.5625 -1.421875 35.59375 -1.421875 
Q 29.59375 -1.421875 25.265625 0.953125 
Q 20.953125 3.328125 18.109375 8.203125 
z
M 48.6875 27.296875 
Q 48.6875 37.203125 44.609375 42.84375 
Q 40.53125 48.484375 33.40625 48.484375 
Q 26.265625 48.484375 22.1875 42.84375 
Q 18.109375 37.203125 18.109375 27.296875 
Q 18.109375 17.390625 22.1875 11.75 
Q 26.265625 6.109375 33.40625 6.109375 
Q 40.53125 6.109375 44.609375 11.75 
Q 48.6875 17.390625 48.6875 27.296875 
z
" id="DejaVuSans-112"/>
      </defs>
      <use xlink:href="#DejaVuSans-70"/>
      <use x="50.269531" xlink:href="#DejaVuSans-114"/>
      <use x="91.382812" xlink:href="#DejaVuSans-97"/>
      <use x="152.662109" xlink:href="#DejaVuSans-99"/>
      <use x="207.642578" xlink:href="#DejaVuSans-116"/>
      <use x="246.851562" xlink:href="#DejaVuSans-105"/>
      <use x="274.634766" xlink:href="#DejaVuSans-111"/>
      <use x="335.816406" xlink:href="#DejaVuSans-110"/>
      <use x="399.195312" xlink:href="#DejaVuSans-32"/>
      <use x="430.982422" xlink:href="#DejaVuSans-111"/>
      <use x="492.164062" xlink:href="#DejaVuSans-102"/>
      <use x="527.369141" xlink:href="#DejaVuSans-32"/>
      <use x="559.15625" xlink:href="#DejaVuSans-102"/>
      <use x="594.361328" xlink:href="#DejaVuSans-117"/>
      <use x="657.740234" xlink:href="#DejaVuSans-110"/>
      <use x="721.119141" xlink:href="#DejaVuSans-99"/>
      <use x="776.099609" xlink:href="#DejaVuSans-116"/>
      <use x="815.308594" xlink:href="#DejaVuSans-105"/>
      <use x="843.091797" xlink:href="#DejaVuSans-111"/>
      <use x="904.273438" xlink:href="#DejaVuSans-110"/>
      <use x="967.652344" xlink:href="#DejaVuSans-44"/>
      <use x="999.439453" xlink:href="#DejaVuSans-116"/>
      <use x="1038.648438" xlink:href="#DejaVuSans-97"/>
      <use x="1099.927734" xlink:href="#DejaVuSans-114"/>
      <use x="1139.291016" xlink:href="#DejaVuSans-103"/>
      <use x="1202.767578" xlink:href="#DejaVuSans-101"/>
      <use x="1264.291016" xlink:href="#DejaVuSans-116"/>
      <use x="1303.5" xlink:href="#DejaVuSans-32"/>
      <use x="1335.287109" xlink:href="#DejaVuSans-112"/>
      <use x="1398.763672" xlink:href="#DejaVuSans-97"/>
      <use x="1460.042969" xlink:href="#DejaVuSans-105"/>
      <use x="1487.826172" xlink:href="#DejaVuSans-114"/>
      <use x="1528.939453" xlink:href="#DejaVuSans-115"/>
     </g>
    </g>
   </g>
   <g id="line2d_29">
    <defs>
     <path d="M 0 1.5 
C 0.397805 1.5 0.77937 1.341951 1.06066 1.06066 
C 1.341951 0.77937 1.5 0.397805 1.5 0 
C 1.5 -0.397805 1.341951 -0.77937 1.06066 -1.06066 
C 0.77937 -1.341951 0.397805 -1.5 0 -1.5 
C -0.397805 -1.5 -0.77937 -1.341951 -1.06066 -1.06066 
C -1.341951 -0.77937 -1.5 -0.397805 -1.5 0 
C -1.5 0.397805 -1.341951 0.77937 -1.06066 1.06066 
C -0.77937 1.341951 -0.397805 1.5 0 1.5 
z
" id="m712fbfd11e" style="stroke:#000080;"/>
    </defs>
    <g>
     <use style="fill:#000080;stroke:#000080;" x="232.093021" xlink:href="#m712fbfd11e" y="95.848709"/>
     <use style="fill:#000080;stroke:#000080;" x="232.093021" xlink:href="#m712fbfd11e" y="95.848709"/>
    </g>
   </g>
   <g id="line2d_30">
    <path d="M 74.263433 298.944 
L 74.263433 298.288854 
L 76.759008 298.288854 
L 76.759008 290.427101 
L 78.941764 290.427101 
L 78.941764 283.220494 
L 80.881459 283.220494 
L 80.881459 279.944763 
L 82.626842 279.944763 
L 82.626842 275.35874 
L 85.66744 275.35874 
L 85.66744 274.048448 
L 87.009585 274.048448 
L 87.009585 266.841841 
L 88.255778 266.841841 
L 88.255778 256.359504 
L 89.418828 256.359504 
L 89.418828 250.463189 
L 90.509138 250.463189 
L 90.509138 244.566874 
L 91.535274 244.566874 
L 91.535274 242.601435 
L 92.504372 242.601435 
L 92.504372 234.739682 
L 93.422441 234.739682 
L 93.422441 230.808806 
L 94.294587 230.808806 
L 94.294587 223.602199 
L 95.125186 223.602199 
L 95.125186 217.050738 
L 95.918017 217.050738 
L 95.918017 216.395591 
L 96.676366 216.395591 
L 96.676366 213.775007 
L 97.403108 213.775007 
L 97.403108 208.533838 
L 98.100772 208.533838 
L 98.100772 207.878692 
L 98.771596 207.878692 
L 98.771596 206.5684 
L 100.040467 206.5684 
L 100.040467 205.913254 
L 100.641881 205.913254 
L 100.641881 205.258108 
L 101.785851 205.258108 
L 101.785851 203.292669 
L 102.330873 203.292669 
L 102.330873 202.637523 
L 102.859376 202.637523 
L 102.859376 196.086062 
L 103.372333 196.086062 
L 103.372333 194.120624 
L 103.870632 194.120624 
L 103.870632 192.810332 
L 104.355088 192.810332 
L 104.355088 190.844894 
L 104.826449 190.844894 
L 104.826449 190.189747 
L 105.285403 190.189747 
L 105.285403 189.534601 
L 106.168594 189.534601 
L 106.168594 186.914017 
L 106.593963 186.914017 
L 106.593963 185.603725 
L 107.811151 185.603725 
L 107.811151 184.948579 
L 108.198707 184.948579 
L 108.198707 183.638286 
L 109.668146 183.638286 
L 109.668146 182.98314 
L 110.358901 182.98314 
L 110.358901 182.327994 
L 111.023335 182.327994 
L 111.023335 181.672848 
L 111.663381 181.672848 
L 111.663381 181.017702 
L 111.974805 181.017702 
L 111.974805 180.362556 
L 112.280765 180.362556 
L 112.280765 177.086825 
L 112.877038 177.086825 
L 112.877038 175.121387 
L 113.453595 175.121387 
L 113.453595 174.466241 
L 114.0117 174.466241 
L 114.0117 173.811095 
L 114.552496 173.811095 
L 114.552496 173.155949 
L 114.816733 173.155949 
L 114.816733 171.190511 
L 116.797786 171.190511 
L 116.797786 169.880218 
L 117.486268 169.880218 
L 117.486268 169.225072 
L 117.930605 169.225072 
L 117.930605 168.569926 
L 118.363901 168.569926 
L 118.363901 167.91478 
L 118.576578 167.91478 
L 118.576578 167.259634 
L 122.018385 167.259634 
L 122.018385 166.604488 
L 127.100304 166.604488 
L 127.100304 165.949342 
L 129.742212 165.949342 
L 129.742212 165.294196 
L 130.822389 165.294196 
L 130.822389 163.983903 
L 131.338382 163.983903 
L 131.338382 163.328757 
L 132.422528 163.328757 
L 132.422528 162.673611 
L 132.70687 162.673611 
L 132.70687 161.363319 
L 136.189322 161.363319 
L 136.189322 160.708173 
L 136.418789 160.708173 
L 136.418789 160.053027 
L 138.153314 160.053027 
L 138.153314 159.397881 
L 141.002999 159.397881 
L 141.002999 157.432442 
L 141.858037 157.432442 
L 141.968939 156.12215 
L 142.243147 156.12215 
L 142.243147 155.467004 
L 142.51311 155.467004 
L 142.51311 154.156712 
L 143.196061 154.156712 
L 143.196061 153.501566 
L 156.753099 153.501566 
L 156.753099 152.84642 
L 158.379686 152.84642 
L 158.379686 152.191274 
L 158.508628 152.191274 
L 158.508628 150.880981 
L 161.402155 150.880981 
L 161.402155 150.225835 
L 161.582595 150.225835 
L 161.582595 149.570689 
L 161.920369 149.570689 
L 161.920369 148.915543 
L 162.043181 148.915543 
L 162.043181 148.260397 
L 162.862799 148.260397 
L 162.862799 147.605251 
L 163.070067 147.605251 
L 163.070067 146.950105 
L 164.546914 146.950105 
L 164.546914 146.294959 
L 166.935137 146.294959 
L 166.941739 144.984667 
L 167.545055 144.984667 
L 167.545055 144.32952 
L 167.898523 144.32952 
L 167.898523 143.674374 
L 168.097334 143.674374 
L 168.097334 143.019228 
L 170.456886 143.019228 
L 170.456886 142.364082 
L 171.871027 142.364082 
L 171.871027 141.708936 
L 172.078757 141.708936 
L 172.142557 140.398644 
L 172.904553 140.398644 
L 172.904553 139.743498 
L 173.016733 139.743498 
L 173.016733 139.088352 
L 175.399504 139.088352 
L 175.504853 137.122913 
L 175.753531 137.122913 
L 175.753531 136.467767 
L 177.288859 136.467767 
L 177.288859 135.812621 
L 178.452615 135.812621 
L 178.452615 135.157475 
L 179.970883 135.157475 
L 179.970883 134.502329 
L 181.559813 134.502329 
L 181.559813 133.847183 
L 182.579912 133.847183 
L 182.649777 132.536891 
L 182.958115 132.536891 
L 183.00022 131.226598 
L 183.084126 131.226598 
L 183.084126 130.571452 
L 183.743743 130.571452 
L 183.834181 129.26116 
L 184.048346 129.26116 
L 184.048346 128.606014 
L 184.181489 128.606014 
L 184.181489 127.950868 
L 185.952703 127.950868 
L 185.997027 126.640576 
L 186.3758 126.640576 
L 186.3758 125.98543 
L 187.723639 125.98543 
L 187.795661 124.675137 
L 187.996149 124.675137 
L 187.996149 124.019991 
L 188.168972 124.019991 
L 188.168972 123.364845 
L 188.681193 123.364845 
L 188.681193 122.709699 
L 189.901323 122.709699 
L 189.901323 122.054553 
L 190.274192 122.054553 
L 190.274192 121.399407 
L 191.892348 121.399407 
L 191.892348 120.744261 
L 194.429337 120.744261 
L 194.429337 120.089115 
L 195.474219 120.089115 
L 195.474219 119.433969 
L 196.617229 119.433969 
L 196.617229 118.778823 
L 196.887204 118.778823 
L 196.887204 118.123676 
L 197.093421 118.123676 
L 197.093421 117.46853 
L 198.90117 117.46853 
L 198.90117 116.813384 
L 199.29897 116.813384 
L 199.29897 116.158238 
L 200.306722 116.158238 
L 200.306722 115.503092 
L 203.047394 115.503092 
L 203.047394 114.847946 
L 203.52861 114.847946 
L 203.52861 114.1928 
L 204.317229 114.1928 
L 204.317229 113.537654 
L 205.008592 113.537654 
L 205.008592 112.882508 
L 206.868609 112.882508 
L 206.868609 112.227362 
L 207.346861 112.227362 
L 207.346861 111.572215 
L 207.719602 111.572215 
L 207.779371 110.261923 
L 209.398526 110.261923 
L 209.398526 109.606777 
L 210.72258 109.606777 
L 210.72258 108.951631 
L 212.016501 108.951631 
L 212.016501 108.296485 
L 212.248438 108.296485 
L 212.248438 107.641339 
L 212.814421 107.641339 
L 212.814421 106.986193 
L 213.319698 106.986193 
L 213.319698 106.331047 
L 213.576968 106.331047 
L 213.576968 105.675901 
L 213.825563 105.675901 
L 213.825563 105.020754 
L 215.674818 105.020754 
L 215.674818 104.365608 
L 217.062321 104.365608 
L 217.062321 103.710462 
L 217.740078 103.710462 
L 217.740078 103.055316 
L 218.234963 103.055316 
L 218.234963 102.40017 
L 218.751077 102.40017 
L 218.751077 101.745024 
L 221.538789 101.745024 
L 221.538789 101.089878 
L 222.071273 101.089878 
L 222.071273 100.434732 
L 222.230255 100.434732 
L 222.230255 99.779586 
L 225.75033 99.779586 
L 225.75033 99.12444 
L 226.220054 99.12444 
L 226.220054 98.469293 
L 228.746822 98.469293 
L 228.746822 97.814147 
L 230.35916 97.814147 
L 230.35916 97.159001 
L 230.669573 97.159001 
L 230.669573 96.503855 
L 232.093021 96.503855 
L 232.093021 95.848709 
L 338.688 95.848709 
L 338.688 95.848709 
" style="fill:none;stroke:#000080;stroke-linecap:square;stroke-width:1.5;"/>
   </g>
   <g id="line2d_31">
    <defs>
     <path d="M 0 6 
C 1.591219 6 3.117479 5.367802 4.242641 4.242641 
C 5.367802 3.117479 6 1.591219 6 0 
C 6 -1.591219 5.367802 -3.117479 4.242641 -4.242641 
C 3.117479 -5.367802 1.591219 -6 0 -6 
C -1.591219 -6 -3.117479 -5.367802 -4.242641 -4.242641 
C -5.367802 -3.117479 -6 -1.591219 -6 0 
C -6 1.591219 -5.367802 3.117479 -4.242641 4.242641 
C -3.117479 5.367802 -1.591219 6 0 6 
z
" id="m187a9f0047" style="stroke:#000080;stroke-width:1.5;"/>
    </defs>
    <g>
     <use style="fill-opacity:0;stroke:#000080;stroke-width:1.5;" x="92.504372" xlink:href="#m187a9f0047" y="242.601435"/>
     <use style="fill-opacity:0;stroke:#000080;stroke-width:1.5;" x="141.968939" xlink:href="#m187a9f0047" y="156.12215"/>
     <use style="fill-opacity:0;stroke:#000080;stroke-width:1.5;" x="232.093021" xlink:href="#m187a9f0047" y="96.503855"/>
     <use style="fill-opacity:0;stroke:#000080;stroke-width:1.5;" x="232.093021" xlink:href="#m187a9f0047" y="95.848709"/>
     <use style="fill-opacity:0;stroke:#000080;stroke-width:1.5;" x="338.688" xlink:href="#m187a9f0047" y="95.848709"/>
    </g>
   </g>
   <g id="line2d_32">
    <path style="fill:none;stroke:#000080;stroke-linecap:square;stroke-width:1.5;"/>
    <g/>
   </g>
   <g id="line2d_33">
    <path clip-path="url(#p1fcdef0eaf)" d="M 177.710406 135.812621 
" style="fill:none;stroke:#000080;stroke-linecap:square;stroke-width:1.5;"/>
    <defs>
     <path d="M -12 12 
L 12 -12 
M -12 -12 
L 12 12 
" id="mea61e5c412" style="stroke:#000080;"/>
    </defs>
    <g clip-path="url(#p1fcdef0eaf)">
     <use style="fill:#000080;stroke:#000080;" x="177.710406" xlink:href="#mea61e5c412" y="135.812621"/>
    </g>
   </g>
   <g id="line2d_34">
    <defs>
     <path d="M 0 1.5 
C 0.397805 1.5 0.77937 1.341951 1.06066 1.06066 
C 1.341951 0.77937 1.5 0.397805 1.5 0 
C 1.5 -0.397805 1.341951 -0.77937 1.06066 -1.06066 
C 0.77937 -1.341951 0.397805 -1.5 0 -1.5 
C -0.397805 -1.5 -0.77937 -1.341951 -1.06066 -1.06066 
C -1.341951 -0.77937 -1.5 -0.397805 -1.5 0 
C -1.5 0.397805 -1.341951 0.77937 -1.06066 1.06066 
C -0.77937 1.341951 -0.397805 1.5 0 1.5 
z
" id="mabc2afee36" style="stroke:#ff00ff;"/>
    </defs>
    <g>
     <use style="fill:#ff00ff;stroke:#ff00ff;" x="176.352448" xlink:href="#mabc2afee36" y="30.334099"/>
     <use style="fill:#ff00ff;stroke:#ff00ff;" x="176.352448" xlink:href="#mabc2afee36" y="30.334099"/>
    </g>
   </g>
   <g id="line2d_35">
    <path d="M 83.438118 298.944 
L 83.438118 298.288854 
L 95.526106 298.288854 
L 95.526106 293.047685 
L 102.060491 293.047685 
L 102.060491 292.392539 
L 103.117741 292.392539 
L 103.117741 291.737393 
L 104.114542 291.737393 
L 104.114542 291.082247 
L 105.51043 291.082247 
L 105.51043 289.771955 
L 107.213174 289.771955 
L 107.213174 289.116809 
L 108.389302 289.116809 
L 108.389302 288.461662 
L 108.764355 288.461662 
L 108.764355 286.496224 
L 109.843417 286.496224 
L 109.843417 284.530786 
L 110.188761 284.530786 
L 110.188761 283.87564 
L 111.505558 283.87564 
L 111.505558 282.565348 
L 111.819788 282.565348 
L 111.819788 281.910201 
L 112.431755 281.910201 
L 112.431755 279.289617 
L 112.72987 279.289617 
L 112.72987 278.634471 
L 114.418861 278.634471 
L 114.418861 276.013887 
L 115.958621 276.013887 
L 115.958621 275.35874 
L 116.443076 275.35874 
L 116.443076 274.703594 
L 117.145424 274.703594 
L 117.145424 274.048448 
L 117.820578 274.048448 
L 117.820578 273.393302 
L 118.039942 273.393302 
L 118.039942 272.738156 
L 118.470564 272.738156 
L 118.470564 271.427864 
L 119.301163 271.427864 
L 119.301163 270.772718 
L 119.502775 270.772718 
L 119.502775 270.117572 
L 119.702083 270.117572 
L 119.702083 268.152133 
L 120.286695 268.152133 
L 120.286695 266.841841 
L 121.036887 266.841841 
L 121.036887 266.186695 
L 122.104932 266.186695 
L 122.104932 264.876403 
L 122.276749 264.876403 
L 122.276749 261.600672 
L 123.434283 261.600672 
L 123.434283 260.945526 
L 123.751369 260.945526 
L 123.751369 259.635234 
L 123.907776 259.635234 
L 123.907776 258.980088 
L 125.255688 258.980088 
L 125.255688 258.324942 
L 125.399222 258.324942 
L 125.399222 256.359504 
L 125.682793 256.359504 
L 125.682793 255.704357 
L 126.50685 255.704357 
L 126.50685 251.773481 
L 127.674226 251.773481 
L 127.674226 251.118335 
L 127.923363 251.118335 
L 127.923363 249.808043 
L 128.885774 249.808043 
L 128.885774 248.49775 
L 129.79784 248.49775 
L 129.908566 247.187458 
L 130.344571 247.187458 
L 130.344571 244.566874 
L 130.558552 244.566874 
L 130.558552 243.911728 
L 131.185181 243.911728 
L 131.185181 242.601435 
L 131.790072 242.601435 
L 131.888878 238.015413 
L 132.278599 238.015413 
L 132.278599 237.360267 
L 132.565279 237.360267 
L 132.565279 236.049974 
L 133.124876 236.049974 
L 133.124876 235.394828 
L 134.364738 235.394828 
L 134.364738 231.463952 
L 135.035562 231.463952 
L 135.035562 229.498513 
L 135.839358 229.498513 
L 135.839358 228.843367 
L 136.073445 228.843367 
L 136.073445 228.188221 
L 136.757427 228.188221 
L 136.757427 227.533075 
L 137.126135 227.533075 
L 137.126135 226.222783 
L 137.343676 226.222783 
L 137.415591 224.257345 
L 138.392446 224.257345 
L 138.392446 221.63676 
L 138.927025 221.63676 
L 138.927025 220.981614 
L 140.378508 220.981614 
L 140.438956 219.016176 
L 140.915143 219.016176 
L 140.915143 218.36103 
L 141.032186 218.36103 
L 141.032186 217.705884 
L 141.435758 217.705884 
L 141.435758 215.740445 
L 141.996555 215.740445 
L 141.996555 214.430153 
L 143.42637 214.430153 
L 143.42637 211.809569 
L 143.828447 211.809569 
L 143.828447 210.499277 
L 144.888619 210.499277 
L 144.888619 208.533838 
L 145.120836 208.533838 
L 145.212864 204.602962 
L 146.324022 204.602962 
L 146.324022 203.947816 
L 146.538004 203.947816 
L 146.538004 202.637523 
L 146.707319 202.637523 
L 146.707319 201.327231 
L 147.530079 201.327231 
L 147.530079 200.672085 
L 147.848613 200.672085 
L 147.848613 199.361793 
L 147.96658 199.361793 
L 147.96658 198.051501 
L 148.845415 198.051501 
L 148.882639 195.430916 
L 149.395596 195.430916 
L 149.503579 190.844894 
L 149.823575 190.844894 
L 149.823575 189.534601 
L 150.137805 189.534601 
L 150.137805 188.879455 
L 150.51433 188.879455 
L 150.581924 187.569163 
L 150.749772 187.569163 
L 150.783149 184.948579 
L 151.080698 184.948579 
L 151.080698 184.293433 
L 151.340991 184.293433 
L 151.340991 183.638286 
L 151.565603 183.638286 
L 151.565603 182.327994 
L 151.787359 182.327994 
L 151.787359 181.672848 
L 151.912822 181.672848 
L 151.912822 179.70741 
L 152.466496 179.70741 
L 152.466496 177.741972 
L 153.265382 177.741972 
L 153.265382 176.431679 
L 153.495227 176.431679 
L 153.523746 174.466241 
L 153.778339 174.466241 
L 153.806399 173.155949 
L 154.029268 173.155949 
L 154.029268 171.845657 
L 154.358321 171.845657 
L 154.358321 171.190511 
L 154.520548 171.190511 
L 154.520548 169.880218 
L 154.761093 169.880218 
L 154.761093 168.569926 
L 155.076745 168.569926 
L 155.076745 167.91478 
L 155.691409 167.91478 
L 155.691409 167.259634 
L 156.212023 167.259634 
L 156.212023 165.949342 
L 156.382164 165.949342 
L 156.382164 164.63905 
L 156.574599 164.63905 
L 156.574599 163.983903 
L 156.788581 163.983903 
L 156.812195 162.673611 
L 156.999969 162.673611 
L 157.023299 160.053027 
L 157.116308 160.053027 
L 157.208825 158.742735 
L 157.300853 158.742735 
L 157.323784 156.12215 
L 157.596634 156.12215 
L 157.664184 154.811858 
L 157.709073 154.811858 
L 157.798506 152.84642 
L 158.064083 152.84642 
L 158.064083 152.191274 
L 158.217157 152.191274 
L 158.217157 150.880981 
L 158.412011 150.880981 
L 158.497919 149.570689 
L 158.604712 149.570689 
L 158.710855 148.260397 
L 158.858379 148.260397 
L 158.858379 147.605251 
L 158.983842 147.605251 
L 158.983842 146.950105 
L 159.17036 146.950105 
L 159.252621 144.984667 
L 159.638147 144.984667 
L 159.698248 141.708936 
L 159.916863 141.708936 
L 159.976013 140.398644 
L 160.054568 140.398644 
L 160.054568 139.743498 
L 160.210625 139.743498 
L 160.268789 137.778059 
L 160.422949 137.778059 
L 160.48041 136.467767 
L 160.933404 136.467767 
L 160.933404 135.157475 
L 161.210663 135.157475 
L 161.26559 133.847183 
L 161.591568 133.847183 
L 161.591568 133.192037 
L 161.7523 133.192037 
L 161.7523 132.536891 
L 161.911563 132.536891 
L 161.911563 131.881745 
L 162.069386 131.881745 
L 162.069386 131.226598 
L 162.602318 131.226598 
L 162.602318 130.571452 
L 162.754039 130.571452 
L 162.837761 129.26116 
L 163.135875 129.26116 
L 163.135875 128.606014 
L 163.283043 128.606014 
L 163.331824 124.019991 
L 163.428979 124.019991 
L 163.428979 123.364845 
L 163.573705 123.364845 
L 163.573705 122.709699 
L 164.140886 122.709699 
L 164.140886 120.744261 
L 164.279845 120.744261 
L 164.310575 118.123676 
L 164.417705 118.123676 
L 164.417705 117.46853 
L 164.675172 117.46853 
L 164.705214 116.158238 
L 164.824867 116.158238 
L 164.824867 114.847946 
L 164.973287 114.847946 
L 165.032303 111.572215 
L 165.367825 111.572215 
L 165.439918 108.951631 
L 165.922402 108.951631 
L 165.922402 108.296485 
L 166.089553 108.296485 
L 166.117256 106.986193 
L 166.608536 106.986193 
L 166.715855 104.365608 
L 166.729224 104.365608 
L 166.835805 101.089878 
L 167.06015 101.089878 
L 167.06015 100.434732 
L 167.359153 100.434732 
L 167.410635 97.814147 
L 167.55143 97.814147 
L 167.55143 95.193563 
L 167.779397 95.193563 
L 167.779397 91.917832 
L 168.091155 91.917832 
L 168.091155 90.60754 
L 168.226583 90.60754 
L 168.33661 87.33181 
L 168.373132 87.33181 
L 168.470152 85.366371 
L 168.710367 85.366371 
L 168.710367 84.056079 
L 169.087957 84.056079 
L 169.192698 80.780349 
L 169.388841 80.780349 
L 169.388841 79.470057 
L 169.503198 79.470057 
L 169.525979 75.53918 
L 169.62813 75.53918 
L 169.62813 74.884034 
L 170.446091 74.884034 
L 170.446091 74.228888 
L 170.660731 74.228888 
L 170.692701 72.918596 
L 170.788258 72.918596 
L 170.819995 70.953157 
L 170.904345 70.953157 
L 170.904345 70.298011 
L 171.050982 70.298011 
L 171.050982 68.987719 
L 171.268652 68.987719 
L 171.350865 65.056842 
L 171.391826 65.056842 
L 171.463278 63.091404 
L 171.534438 63.091404 
L 171.534438 61.781112 
L 171.746192 61.781112 
L 171.81621 58.505381 
L 171.955406 58.505381 
L 171.955406 57.195089 
L 172.142557 57.195089 
L 172.22076 55.884797 
L 172.337411 55.884797 
L 172.395445 51.95392 
L 172.501342 51.95392 
L 172.510938 50.643628 
L 172.616138 50.643628 
L 172.663747 49.333336 
L 172.786927 49.333336 
L 172.796366 45.402459 
L 173.067909 45.402459 
L 173.067909 44.747313 
L 173.197501 44.747313 
L 173.271123 42.126729 
L 173.344436 42.126729 
L 173.417442 38.195852 
L 173.481073 38.195852 
L 173.481073 37.540706 
L 174.443058 37.540706 
L 174.520166 34.264976 
L 174.579904 34.264976 
L 174.579904 32.299537 
L 175.709669 32.299537 
L 175.709669 31.644391 
L 176.352448 31.644391 
L 176.352448 30.334099 
L 338.688 30.334099 
L 338.688 30.334099 
" style="fill:none;stroke:#ff00ff;stroke-linecap:square;stroke-width:1.5;"/>
   </g>
   <g id="line2d_36">
    <defs>
     <path d="M -0 8.485281 
L 5.091169 0 
L 0 -8.485281 
L -5.091169 -0 
z
" id="m19ecb2d9df" style="stroke:#ff00ff;stroke-linejoin:miter;stroke-width:1.5;"/>
    </defs>
    <g>
     <use style="fill-opacity:0;stroke:#ff00ff;stroke-linejoin:miter;stroke-width:1.5;" x="148.882639" xlink:href="#m19ecb2d9df" y="197.396355"/>
     <use style="fill-opacity:0;stroke:#ff00ff;stroke-linejoin:miter;stroke-width:1.5;" x="176.352448" xlink:href="#m19ecb2d9df" y="31.644391"/>
     <use style="fill-opacity:0;stroke:#ff00ff;stroke-linejoin:miter;stroke-width:1.5;" x="176.352448" xlink:href="#m19ecb2d9df" y="30.334099"/>
     <use style="fill-opacity:0;stroke:#ff00ff;stroke-linejoin:miter;stroke-width:1.5;" x="176.352448" xlink:href="#m19ecb2d9df" y="30.334099"/>
     <use style="fill-opacity:0;stroke:#ff00ff;stroke-linejoin:miter;stroke-width:1.5;" x="338.688" xlink:href="#m19ecb2d9df" y="30.334099"/>
    </g>
   </g>
   <g id="line2d_37">
    <path style="fill:none;stroke:#ff00ff;stroke-linecap:square;stroke-width:1.5;"/>
    <g/>
   </g>
   <g id="line2d_38">
    <defs>
     <path d="M 0 1.5 
C 0.397805 1.5 0.77937 1.341951 1.06066 1.06066 
C 1.341951 0.77937 1.5 0.397805 1.5 0 
C 1.5 -0.397805 1.341951 -0.77937 1.06066 -1.06066 
C 0.77937 -1.341951 0.397805 -1.5 0 -1.5 
C -0.397805 -1.5 -0.77937 -1.341951 -1.06066 -1.06066 
C -1.341951 -0.77937 -1.5 -0.397805 -1.5 0 
C -1.5 0.397805 -1.341951 0.77937 -1.06066 1.06066 
C -0.77937 1.341951 -0.397805 1.5 0 1.5 
z
" id="m9f1b8f23d5" style="stroke:#ff7500;"/>
    </defs>
    <g>
     <use style="fill:#ff7500;stroke:#ff7500;" x="323.523841" xlink:href="#m9f1b8f23d5" y="174.466241"/>
     <use style="fill:#ff7500;stroke:#ff7500;" x="323.523841" xlink:href="#m9f1b8f23d5" y="174.466241"/>
    </g>
   </g>
   <g id="line2d_39">
    <path d="M 186.26935 298.944 
L 186.343282 268.152133 
L 186.390954 268.152133 
L 186.490213 261.600672 
L 186.546066 261.600672 
L 186.58249 260.29038 
L 186.699812 260.29038 
L 186.754999 255.704357 
L 186.829016 255.704357 
L 186.900618 251.118335 
L 186.950984 251.118335 
L 186.965647 249.152896 
L 187.070024 249.152896 
L 187.142718 245.877166 
L 187.231615 245.877166 
L 187.231615 243.911728 
L 187.546323 243.911728 
L 187.594861 242.601435 
L 187.769688 242.601435 
L 187.769688 241.946289 
L 187.920988 241.946289 
L 187.920988 241.291143 
L 188.386481 241.291143 
L 188.386481 239.980851 
L 188.666005 239.980851 
L 188.666005 239.325705 
L 188.899941 239.325705 
L 188.899941 238.670559 
L 189.121531 238.670559 
L 189.121531 238.015413 
L 189.305589 238.015413 
L 189.305589 236.705121 
L 190.576387 236.705121 
L 190.576387 236.049974 
L 192.966675 236.049974 
L 192.966675 234.739682 
L 199.879656 234.739682 
L 199.879656 234.084536 
L 200.389343 234.084536 
L 200.460954 231.463952 
L 200.692157 231.463952 
L 200.692157 230.808806 
L 201.633596 230.808806 
L 201.633596 229.498513 
L 204.205393 229.498513 
L 204.205393 228.843367 
L 207.471995 228.843367 
L 207.471995 228.188221 
L 207.862958 228.188221 
L 207.862958 227.533075 
L 213.996605 227.533075 
L 213.996605 226.877929 
L 214.345068 226.877929 
L 214.345068 226.222783 
L 215.747321 226.222783 
L 215.747321 222.947052 
L 218.330891 222.947052 
L 218.330891 222.291906 
L 219.475146 222.291906 
L 219.475146 221.63676 
L 220.259326 221.63676 
L 220.259326 220.981614 
L 221.252404 220.981614 
L 221.252404 220.326468 
L 226.951916 220.326468 
L 226.951916 218.36103 
L 227.34017 218.36103 
L 227.34017 217.705884 
L 227.974034 217.705884 
L 228.05837 216.395591 
L 228.782264 216.395591 
L 228.782264 215.740445 
L 233.409146 215.740445 
L 233.409146 213.775007 
L 235.757718 213.775007 
L 235.757718 213.119861 
L 240.910657 213.119861 
L 240.910657 212.464715 
L 241.560536 212.464715 
L 241.560536 211.809569 
L 244.404632 211.809569 
L 244.404632 210.499277 
L 244.581857 210.499277 
L 244.581857 209.84413 
L 245.815333 209.84413 
L 245.859717 208.533838 
L 246.432404 208.533838 
L 246.432404 207.878692 
L 247.238332 207.878692 
L 247.238332 205.913254 
L 248.147975 205.913254 
L 248.147975 205.258108 
L 250.144753 205.258108 
L 250.144753 204.602962 
L 251.031536 204.602962 
L 251.041047 202.637523 
L 253.413619 202.637523 
L 253.413619 201.982377 
L 255.487858 201.982377 
L 255.487858 201.327231 
L 255.959654 201.327231 
L 255.959654 200.672085 
L 256.602979 200.672085 
L 256.602979 200.016939 
L 259.005935 200.016939 
L 259.005935 199.361793 
L 261.641712 199.361793 
L 261.748433 198.051501 
L 262.461433 198.051501 
L 262.461433 197.396355 
L 263.589837 197.396355 
L 263.589837 196.741208 
L 264.208041 196.741208 
L 264.208041 196.086062 
L 268.507303 196.086062 
L 268.507303 195.430916 
L 270.98957 195.430916 
L 270.98957 194.77577 
L 272.455759 194.77577 
L 272.455759 194.120624 
L 274.313096 194.120624 
L 274.384001 192.810332 
L 276.326138 192.810332 
L 276.326138 192.155186 
L 276.859947 192.155186 
L 276.859947 191.50004 
L 277.774434 191.50004 
L 277.774434 190.844894 
L 279.158867 190.844894 
L 279.158867 190.189747 
L 281.385374 190.189747 
L 281.385374 189.534601 
L 282.5851 189.534601 
L 282.5851 188.879455 
L 282.866291 188.879455 
L 282.866291 188.224309 
L 284.186724 188.224309 
L 284.186724 187.569163 
L 286.657502 187.569163 
L 286.657502 186.914017 
L 287.690586 186.914017 
L 287.690586 186.258871 
L 289.721816 186.258871 
L 289.721816 185.603725 
L 292.96674 185.603725 
L 292.96674 184.948579 
L 293.281034 184.948579 
L 293.281034 184.293433 
L 293.528861 184.293433 
L 293.528861 183.638286 
L 296.184752 183.638286 
L 296.184752 182.98314 
L 296.37625 182.98314 
L 296.37625 182.327994 
L 297.304226 182.327994 
L 297.304226 181.672848 
L 297.483164 181.672848 
L 297.483164 181.017702 
L 298.169179 181.017702 
L 298.169179 180.362556 
L 298.721638 180.362556 
L 298.721638 179.70741 
L 302.230584 179.70741 
L 302.230584 179.052264 
L 302.379173 179.052264 
L 302.379173 178.397118 
L 304.79141 178.397118 
L 304.79141 177.741972 
L 311.949585 177.741972 
L 312.024153 176.431679 
L 314.680079 176.431679 
L 314.680079 175.776533 
L 318.069124 175.776533 
L 318.069124 175.121387 
L 323.523841 175.121387 
L 323.523841 174.466241 
L 338.688 174.466241 
L 338.688 174.466241 
" style="fill:none;stroke:#ff7500;stroke-linecap:square;stroke-width:1.5;"/>
   </g>
   <g id="line2d_40">
    <defs>
     <path d="M 0 -6 
L -1.347084 -1.854102 
L -5.706339 -1.854102 
L -2.179628 0.708204 
L -3.526712 4.854102 
L -0 2.291796 
L 3.526712 4.854102 
L 2.179628 0.708204 
L 5.706339 -1.854102 
L 1.347084 -1.854102 
z
" id="m0ca95fb4b2" style="stroke:#ff7500;stroke-linejoin:bevel;stroke-width:1.5;"/>
    </defs>
    <g>
     <use style="fill-opacity:0;stroke:#ff7500;stroke-linejoin:bevel;stroke-width:1.5;" x="218.330891" xlink:href="#m0ca95fb4b2" y="222.947052"/>
     <use style="fill-opacity:0;stroke:#ff7500;stroke-linejoin:bevel;stroke-width:1.5;" x="274.384001" xlink:href="#m0ca95fb4b2" y="193.465478"/>
     <use style="fill-opacity:0;stroke:#ff7500;stroke-linejoin:bevel;stroke-width:1.5;" x="323.523841" xlink:href="#m0ca95fb4b2" y="174.466241"/>
     <use style="fill-opacity:0;stroke:#ff7500;stroke-linejoin:bevel;stroke-width:1.5;" x="338.688" xlink:href="#m0ca95fb4b2" y="174.466241"/>
    </g>
   </g>
   <g id="line2d_41">
    <path style="fill:none;stroke:#ff7500;stroke-linecap:square;stroke-width:1.5;"/>
    <g/>
   </g>
   <g id="line2d_42">
    <path clip-path="url(#p1fcdef0eaf)" d="M 247.238332 205.913254 
" style="fill:none;stroke:#ff7500;stroke-linecap:square;stroke-width:1.5;"/>
    <defs>
     <path d="M -12 12 
L 12 -12 
M -12 -12 
L 12 12 
" id="m0f61d001de" style="stroke:#ff7500;"/>
    </defs>
    <g clip-path="url(#p1fcdef0eaf)">
     <use style="fill:#ff7500;stroke:#ff7500;" x="247.238332" xlink:href="#m0f61d001de" y="205.913254"/>
    </g>
   </g>
   <g id="line2d_43">
    <defs>
     <path d="M 0 1.5 
C 0.397805 1.5 0.77937 1.341951 1.06066 1.06066 
C 1.341951 0.77937 1.5 0.397805 1.5 0 
C 1.5 -0.397805 1.341951 -0.77937 1.06066 -1.06066 
C 0.77937 -1.341951 0.397805 -1.5 0 -1.5 
C -0.397805 -1.5 -0.77937 -1.341951 -1.06066 -1.06066 
C -1.341951 -0.77937 -1.5 -0.397805 -1.5 0 
C -1.5 0.397805 -1.341951 0.77937 -1.06066 1.06066 
C -0.77937 1.341951 -0.397805 1.5 0 1.5 
z
" id="ma3802e62fe" style="stroke:#6495ed;"/>
    </defs>
    <g>
     <use style="fill:#6495ed;stroke:#6495ed;" x="196.619637" xlink:href="#ma3802e62fe" y="30.334099"/>
     <use style="fill:#6495ed;stroke:#6495ed;" x="196.619637" xlink:href="#ma3802e62fe" y="30.334099"/>
    </g>
   </g>
   <g id="line2d_44">
    <path d="M 77.884514 298.944 
L 77.884514 296.978562 
L 79.938565 296.978562 
L 79.938565 296.323416 
L 88.255778 296.323416 
L 88.255778 291.737393 
L 89.418828 291.737393 
L 89.418828 291.082247 
L 94.714831 291.082247 
L 94.714831 287.806516 
L 95.526106 287.806516 
L 95.526106 281.910201 
L 97.043522 281.910201 
L 97.043522 279.289617 
L 99.41757 279.289617 
L 99.41757 270.772718 
L 100.040467 270.772718 
L 100.040467 266.841841 
L 100.641881 266.841841 
L 100.641881 263.566111 
L 101.223245 263.566111 
L 101.223245 261.600672 
L 103.117741 261.600672 
L 103.117741 243.911728 
L 103.623262 243.911728 
L 103.623262 230.15366 
L 104.592361 230.15366 
L 104.592361 224.912491 
L 106.168594 224.912491 
L 106.168594 223.602199 
L 106.593963 223.602199 
L 106.593963 220.326468 
L 107.009204 220.326468 
L 107.009204 217.705884 
L 107.414787 217.705884 
L 107.414787 214.430153 
L 108.764355 214.430153 
L 108.764355 213.119861 
L 109.131511 213.119861 
L 109.131511 206.5684 
L 109.491096 206.5684 
L 109.491096 204.602962 
L 109.843417 204.602962 
L 109.843417 199.361793 
L 110.188761 199.361793 
L 110.188761 198.706647 
L 111.023335 198.706647 
L 111.023335 188.224309 
L 111.346294 188.224309 
L 111.346294 186.258871 
L 111.663381 186.258871 
L 111.663381 185.603725 
L 112.280765 185.603725 
L 112.280765 179.052264 
L 113.594805 179.052264 
L 113.594805 178.397118 
L 113.873839 178.397118 
L 113.873839 175.121387 
L 114.418861 175.121387 
L 114.418861 169.880218 
L 115.835374 169.880218 
L 115.835374 165.949342 
L 116.081002 165.949342 
L 116.081002 164.63905 
L 116.323218 164.63905 
L 116.323218 163.983903 
L 117.598418 163.983903 
L 117.598418 161.363319 
L 117.820578 161.363319 
L 117.820578 157.432442 
L 118.576578 157.432442 
L 118.576578 154.811858 
L 118.786692 154.811858 
L 118.786692 153.501566 
L 119.602714 153.501566 
L 119.602714 152.191274 
L 119.89914 152.191274 
L 119.89914 150.225835 
L 120.286695 150.225835 
L 120.286695 145.639813 
L 120.47729 145.639813 
L 120.47729 144.984667 
L 120.665825 144.984667 
L 120.665825 143.019228 
L 121.489881 143.019228 
L 121.489881 138.433206 
L 122.018385 138.433206 
L 122.018385 137.778059 
L 122.782271 137.778059 
L 122.782271 137.122913 
L 122.947573 137.122913 
L 122.947573 130.571452 
L 123.273551 130.571452 
L 123.273551 127.950868 
L 123.985457 127.950868 
L 123.985457 127.295722 
L 124.139788 127.295722 
L 124.139788 126.640576 
L 124.292765 126.640576 
L 124.292765 125.98543 
L 124.444412 125.98543 
L 124.444412 124.019991 
L 124.594752 124.019991 
L 124.594752 123.364845 
L 125.110962 123.364845 
L 125.110962 122.709699 
L 125.541584 122.709699 
L 125.541584 121.399407 
L 125.682793 121.399407 
L 125.682793 120.744261 
L 126.168212 120.744261 
L 126.168212 118.123676 
L 126.573795 118.123676 
L 126.573795 116.158238 
L 128.168991 116.158238 
L 128.168991 113.537654 
L 128.350967 113.537654 
L 128.350967 112.227362 
L 128.471239 112.227362 
L 128.471239 110.261923 
L 129.347769 110.261923 
L 129.347769 109.606777 
L 130.018593 109.606777 
L 130.018593 106.986193 
L 130.182344 106.986193 
L 130.182344 105.020754 
L 130.664567 105.020754 
L 130.664567 103.055316 
L 130.978796 103.055316 
L 130.978796 101.745024 
L 131.236397 101.745024 
L 131.236397 100.434732 
L 131.640805 100.434732 
L 131.740458 95.848709 
L 131.839545 95.848709 
L 131.888878 94.538417 
L 132.986651 94.538417 
L 133.078923 92.572979 
L 133.170708 92.572979 
L 133.170708 91.917832 
L 133.975741 91.917832 
L 133.975741 91.262686 
L 134.534878 91.262686 
L 134.534878 90.60754 
L 134.703375 90.60754 
L 134.703375 89.952394 
L 134.870259 89.952394 
L 134.953107 83.400933 
L 134.994383 83.400933 
L 134.994383 82.745787 
L 135.721125 82.745787 
L 135.721125 82.090641 
L 136.5324 82.090641 
L 136.570107 79.470057 
L 136.645276 79.470057 
L 136.68274 75.53918 
L 137.162581 75.53918 
L 137.271464 73.573742 
L 137.52291 73.573742 
L 137.594091 72.263449 
L 137.735587 72.263449 
L 137.84096 68.987719 
L 138.049816 68.987719 
L 138.049816 67.677427 
L 138.493936 67.677427 
L 138.493936 67.022281 
L 139.317473 67.022281 
L 139.413734 63.74655 
L 139.730821 63.74655 
L 139.730821 63.091404 
L 140.469102 63.091404 
L 140.469102 61.125966 
L 141.20629 61.125966 
L 141.20629 59.815674 
L 141.71841 59.815674 
L 141.71841 59.160527 
L 141.996555 59.160527 
L 141.996555 58.505381 
L 143.87806 58.505381 
L 143.87806 57.195089 
L 144.582038 57.195089 
L 144.582038 56.539943 
L 144.93531 56.539943 
L 144.93531 53.919359 
L 145.732804 53.919359 
L 145.732804 53.264213 
L 146.019967 53.264213 
L 146.019967 51.95392 
L 146.237689 51.95392 
L 146.237689 51.298774 
L 148.373289 51.298774 
L 148.373289 50.643628 
L 150.446473 50.643628 
L 150.446473 49.988482 
L 150.849711 49.988482 
L 150.849711 48.67819 
L 150.965587 48.67819 
L 150.965587 46.057605 
L 152.451351 46.057605 
L 152.451351 45.402459 
L 155.141793 45.402459 
L 155.141793 43.437021 
L 155.425155 43.437021 
L 155.425155 41.471583 
L 158.910765 41.471583 
L 158.910765 40.816437 
L 159.242359 40.816437 
L 159.242359 40.161291 
L 159.797958 40.161291 
L 159.797958 39.506144 
L 168.004423 39.506144 
L 168.004423 38.195852 
L 169.707168 38.195852 
L 169.707168 37.540706 
L 170.740545 37.540706 
L 170.740545 36.88556 
L 173.634644 36.88556 
L 173.715403 34.920122 
L 173.782417 34.920122 
L 173.782417 34.264976 
L 173.924525 34.264976 
L 173.924525 33.60983 
L 174.109302 33.60983 
L 174.109302 32.954683 
L 186.971927 32.954683 
L 186.971927 32.299537 
L 190.43281 32.299537 
L 190.43281 31.644391 
L 193.785707 31.644391 
L 193.785707 30.989245 
L 196.619637 30.989245 
L 196.619637 30.334099 
L 338.688 30.334099 
L 338.688 30.334099 
" style="fill:none;stroke:#6495ed;stroke-linecap:square;stroke-width:1.5;"/>
   </g>
   <g id="line2d_45">
    <defs>
     <path d="M -0 6 
L 6 -6 
L -6 -6 
z
" id="m81873c72cc" style="stroke:#6495ed;stroke-linejoin:miter;stroke-width:1.5;"/>
    </defs>
    <g>
     <use style="fill-opacity:0;stroke:#6495ed;stroke-linejoin:miter;stroke-width:1.5;" x="125.110962" xlink:href="#m81873c72cc" y="123.364845"/>
     <use style="fill-opacity:0;stroke:#6495ed;stroke-linejoin:miter;stroke-width:1.5;" x="174.109302" xlink:href="#m81873c72cc" y="33.60983"/>
     <use style="fill-opacity:0;stroke:#6495ed;stroke-linejoin:miter;stroke-width:1.5;" x="196.619637" xlink:href="#m81873c72cc" y="30.334099"/>
     <use style="fill-opacity:0;stroke:#6495ed;stroke-linejoin:miter;stroke-width:1.5;" x="196.619637" xlink:href="#m81873c72cc" y="30.334099"/>
     <use style="fill-opacity:0;stroke:#6495ed;stroke-linejoin:miter;stroke-width:1.5;" x="338.688" xlink:href="#m81873c72cc" y="30.334099"/>
    </g>
   </g>
   <g id="line2d_46">
    <path style="fill:none;stroke:#6495ed;stroke-linecap:square;stroke-width:1.5;"/>
    <g/>
   </g>
   <g id="line2d_47">
    <path clip-path="url(#p1fcdef0eaf)" d="M 195.954712 30.989245 
" style="fill:none;stroke:#6495ed;stroke-linecap:square;stroke-width:1.5;"/>
    <defs>
     <path d="M -12 12 
L 12 -12 
M -12 -12 
L 12 12 
" id="mbd0b6e3156" style="stroke:#6495ed;"/>
    </defs>
    <g clip-path="url(#p1fcdef0eaf)">
     <use style="fill:#6495ed;stroke:#6495ed;" x="195.954712" xlink:href="#mbd0b6e3156" y="30.989245"/>
    </g>
   </g>
   <g id="line2d_48">
    <defs>
     <path d="M 0 1.5 
C 0.397805 1.5 0.77937 1.341951 1.06066 1.06066 
C 1.341951 0.77937 1.5 0.397805 1.5 0 
C 1.5 -0.397805 1.341951 -0.77937 1.06066 -1.06066 
C 0.77937 -1.341951 0.397805 -1.5 0 -1.5 
C -0.397805 -1.5 -0.77937 -1.341951 -1.06066 -1.06066 
C -1.341951 -0.77937 -1.5 -0.397805 -1.5 0 
C -1.5 0.397805 -1.341951 0.77937 -1.06066 1.06066 
C -0.77937 1.341951 -0.397805 1.5 0 1.5 
z
" id="m8b404df23e" style="stroke:#ff0000;"/>
    </defs>
    <g>
     <use style="fill:#ff0000;stroke:#ff0000;" x="267.087417" xlink:href="#m8b404df23e" y="95.848709"/>
     <use style="fill:#ff0000;stroke:#ff0000;" x="267.087417" xlink:href="#m8b404df23e" y="95.848709"/>
    </g>
   </g>
   <g id="line2d_49">
    <path d="M 75.555822 298.944 
L 75.555822 297.633708 
L 86.351421 297.633708 
L 86.351421 291.082247 
L 92.969447 291.082247 
L 92.969447 275.35874 
L 97.755429 275.35874 
L 97.755429 259.635234 
L 101.506816 259.635234 
L 101.506816 243.256582 
L 104.592361 243.256582 
L 104.592361 240.635997 
L 107.213174 240.635997 
L 107.213174 233.42939 
L 109.491096 233.42939 
L 109.491096 228.188221 
L 111.505558 228.188221 
L 111.505558 225.567637 
L 113.311233 225.567637 
L 113.311233 222.291906 
L 114.947365 222.291906 
L 114.947365 219.016176 
L 116.443076 219.016176 
L 116.443076 218.36103 
L 119.097192 218.36103 
L 119.097192 217.705884 
L 121.400219 217.705884 
L 121.400219 216.395591 
L 123.434283 216.395591 
L 123.434283 215.740445 
L 125.255688 215.740445 
L 125.255688 215.085299 
L 126.099688 215.085299 
L 126.099688 213.775007 
L 126.904721 213.775007 
L 126.904721 213.119861 
L 127.674226 213.119861 
L 127.674226 212.464715 
L 128.411207 212.464715 
L 128.411207 211.809569 
L 129.79784 211.809569 
L 129.79784 211.154423 
L 130.45189 211.154423 
L 130.45189 210.499277 
L 132.278599 210.499277 
L 132.278599 207.878692 
L 133.398082 207.878692 
L 133.398082 207.223546 
L 133.931979 207.223546 
L 133.931979 206.5684 
L 134.450015 206.5684 
L 134.450015 205.913254 
L 135.44209 205.913254 
L 135.44209 204.602962 
L 138.527635 204.602962 
L 138.527635 203.292669 
L 140.438956 203.292669 
L 140.438956 202.637523 
L 142.161336 202.637523 
L 142.161336 201.982377 
L 142.805321 201.982377 
L 142.805321 200.672085 
L 143.42637 200.672085 
L 143.42637 200.016939 
L 143.728793 200.016939 
L 143.728793 199.361793 
L 144.026061 199.361793 
L 144.026061 198.706647 
L 145.710517 198.706647 
L 145.710517 198.051501 
L 148.200145 198.051501 
L 148.200145 197.396355 
L 150.172372 197.396355 
L 150.172372 196.741208 
L 150.581924 196.741208 
L 150.581924 195.430916 
L 151.373256 195.430916 
L 151.373256 194.77577 
L 151.755852 194.77577 
L 151.755852 194.120624 
L 151.944047 194.120624 
L 151.944047 193.465478 
L 153.207444 193.465478 
L 153.207444 192.810332 
L 153.552218 192.810332 
L 153.552218 192.155186 
L 154.056927 192.155186 
L 154.056927 190.844894 
L 155.791779 190.844894 
L 155.791779 190.189747 
L 156.236431 190.189747 
L 156.236431 189.534601 
L 157.506157 189.534601 
L 157.506157 188.879455 
L 157.641697 188.879455 
L 157.641697 188.224309 
L 158.042106 188.224309 
L 158.042106 186.914017 
L 158.433528 186.914017 
L 158.433528 184.948579 
L 158.816356 184.948579 
L 158.816356 184.293433 
L 158.942121 184.293433 
L 158.942121 183.638286 
L 159.190962 183.638286 
L 159.190962 182.327994 
L 159.314063 182.327994 
L 159.314063 181.672848 
L 161.716709 181.672848 
L 161.716709 181.017702 
L 162.139074 181.017702 
L 162.139074 180.362556 
L 163.053576 180.362556 
L 163.053576 179.70741 
L 163.922502 179.70741 
L 164.01643 178.397118 
L 164.109855 178.397118 
L 164.109855 177.741972 
L 164.295217 177.741972 
L 164.295217 176.431679 
L 164.928893 176.431679 
L 164.928893 175.776533 
L 165.54035 175.776533 
L 165.625977 174.466241 
L 165.711185 174.466241 
L 165.711185 173.811095 
L 165.880363 173.811095 
L 165.880363 173.155949 
L 166.378267 173.155949 
L 166.378267 172.500803 
L 166.862349 172.500803 
L 166.862349 171.190511 
L 167.099442 171.190511 
L 167.099442 170.535364 
L 169.919913 170.535364 
L 169.919913 169.880218 
L 172.054157 169.880218 
L 172.11314 168.569926 
L 172.171924 168.569926 
L 172.230511 166.604488 
L 172.635197 166.604488 
L 172.635197 165.949342 
L 173.252747 165.949342 
L 173.252747 165.294196 
L 174.783181 165.294196 
L 174.783181 163.983903 
L 175.476552 163.983903 
L 175.476552 163.328757 
L 175.621612 163.328757 
L 175.621612 162.673611 
L 178.336238 162.673611 
L 178.336238 162.018465 
L 179.492196 162.018465 
L 179.492196 161.363319 
L 179.645791 161.363319 
L 179.645791 160.708173 
L 180.357442 160.708173 
L 180.357442 160.053027 
L 182.168531 160.053027 
L 182.168531 159.397881 
L 182.365897 159.397881 
L 182.398576 158.087589 
L 182.913267 158.087589 
L 182.944937 156.777296 
L 185.253182 156.777296 
L 185.253182 156.12215 
L 185.473528 156.12215 
L 185.473528 155.467004 
L 187.51186 155.467004 
L 187.51186 154.811858 
L 187.849483 154.811858 
L 187.849483 153.501566 
L 188.086702 153.501566 
L 188.086702 152.191274 
L 188.597496 152.191274 
L 188.597496 151.536128 
L 190.358853 151.536128 
L 190.358853 150.880981 
L 190.848313 150.880981 
L 190.848313 148.260397 
L 191.363505 148.260397 
L 191.363505 147.605251 
L 192.533901 147.605251 
L 192.624952 144.984667 
L 195.126279 144.984667 
L 195.126279 143.019228 
L 195.312797 143.019228 
L 195.312797 142.364082 
L 195.9397 142.364082 
L 195.9397 141.05379 
L 196.443005 141.05379 
L 196.443005 139.088352 
L 207.868643 139.088352 
L 207.881268 137.778059 
L 208.469479 137.778059 
L 208.524304 136.467767 
L 208.601376 136.467767 
L 208.601376 135.812621 
L 210.790542 135.812621 
L 210.791076 134.502329 
L 211.376116 134.502329 
L 211.376116 133.847183 
L 212.206139 133.847183 
L 212.206139 133.192037 
L 212.89082 133.192037 
L 212.89082 132.536891 
L 213.090903 132.536891 
L 213.090903 131.881745 
L 213.38978 131.881745 
L 213.444909 130.571452 
L 213.577424 130.571452 
L 213.577424 129.916306 
L 213.701257 129.916306 
L 213.701257 129.26116 
L 214.21477 129.26116 
L 214.21477 128.606014 
L 214.724254 128.606014 
L 214.724254 127.950868 
L 215.45017 127.950868 
L 215.48448 126.640576 
L 218.863387 126.640576 
L 218.863387 125.98543 
L 219.419226 125.98543 
L 219.527652 124.019991 
L 220.498184 124.019991 
L 220.524489 122.709699 
L 221.076215 122.709699 
L 221.136225 121.399407 
L 221.52523 121.399407 
L 221.52523 120.744261 
L 222.414148 120.744261 
L 222.414148 120.089115 
L 224.645379 120.089115 
L 224.645379 119.433969 
L 225.191058 119.433969 
L 225.191058 118.778823 
L 225.889974 118.778823 
L 225.889974 118.123676 
L 226.156882 118.123676 
L 226.156882 117.46853 
L 226.835032 117.46853 
L 226.835032 116.813384 
L 227.501526 116.813384 
L 227.501526 116.158238 
L 227.911514 116.158238 
L 227.911514 115.503092 
L 228.0889 115.503092 
L 228.0889 114.847946 
L 229.235463 114.847946 
L 229.235463 114.1928 
L 230.83805 114.1928 
L 230.83805 113.537654 
L 231.318795 113.537654 
L 231.318795 112.882508 
L 231.553232 112.882508 
L 231.553232 112.227362 
L 232.04083 112.227362 
L 232.04083 111.572215 
L 232.438312 111.572215 
L 232.438312 110.917069 
L 234.908607 110.917069 
L 234.908607 110.261923 
L 235.429781 110.261923 
L 235.429781 109.606777 
L 236.993964 109.606777 
L 236.993964 108.951631 
L 238.593316 108.951631 
L 238.593316 108.296485 
L 239.07834 108.296485 
L 239.07834 107.641339 
L 239.892924 107.641339 
L 239.892924 106.986193 
L 240.584484 106.986193 
L 240.584484 106.331047 
L 241.308329 106.331047 
L 241.308329 105.675901 
L 241.734402 105.675901 
L 241.734402 105.020754 
L 243.127976 105.020754 
L 243.127976 104.365608 
L 244.417062 104.365608 
L 244.417062 103.710462 
L 244.880776 103.710462 
L 244.880776 103.055316 
L 245.192867 103.055316 
L 245.192867 102.40017 
L 246.164753 102.40017 
L 246.164753 101.745024 
L 246.619514 101.745024 
L 246.619514 101.089878 
L 246.834953 101.089878 
L 246.834953 100.434732 
L 247.105439 100.434732 
L 247.105439 99.779586 
L 249.479695 99.779586 
L 249.479695 99.12444 
L 250.075891 99.12444 
L 250.075891 98.469293 
L 254.654371 98.469293 
L 254.654371 97.814147 
L 258.729734 97.814147 
L 258.729734 97.159001 
L 261.937399 97.159001 
L 261.937399 96.503855 
L 267.087417 96.503855 
L 267.087417 95.848709 
L 338.688 95.848709 
L 338.688 95.848709 
" style="fill:none;stroke:#ff0000;stroke-linecap:square;stroke-width:1.5;"/>
   </g>
   <g id="line2d_50">
    <defs>
     <path d="M 0 -6 
L -5.196152 -3 
L -5.196152 3 
L -0 6 
L 5.196152 3 
L 5.196152 -3 
z
" id="m276df6bb6e" style="stroke:#ff0000;stroke-linejoin:miter;stroke-width:1.5;"/>
    </defs>
    <g>
     <use style="fill-opacity:0;stroke:#ff0000;stroke-linejoin:miter;stroke-width:1.5;" x="158.942121" xlink:href="#m276df6bb6e" y="184.293433"/>
     <use style="fill-opacity:0;stroke:#ff0000;stroke-linejoin:miter;stroke-width:1.5;" x="219.527652" xlink:href="#m276df6bb6e" y="124.019991"/>
     <use style="fill-opacity:0;stroke:#ff0000;stroke-linejoin:miter;stroke-width:1.5;" x="267.087417" xlink:href="#m276df6bb6e" y="95.848709"/>
     <use style="fill-opacity:0;stroke:#ff0000;stroke-linejoin:miter;stroke-width:1.5;" x="267.087417" xlink:href="#m276df6bb6e" y="95.848709"/>
     <use style="fill-opacity:0;stroke:#ff0000;stroke-linejoin:miter;stroke-width:1.5;" x="338.688" xlink:href="#m276df6bb6e" y="95.848709"/>
    </g>
   </g>
   <g id="line2d_51">
    <path style="fill:none;stroke:#ff0000;stroke-linecap:square;stroke-width:1.5;"/>
    <g/>
   </g>
   <g id="line2d_52">
    <path clip-path="url(#p1fcdef0eaf)" d="M 206.141397 139.088352 
" style="fill:none;stroke:#ff0000;stroke-linecap:square;stroke-width:1.5;"/>
    <defs>
     <path d="M -12 12 
L 12 -12 
M -12 -12 
L 12 12 
" id="madbd8ac6ab" style="stroke:#ff0000;"/>
    </defs>
    <g clip-path="url(#p1fcdef0eaf)">
     <use style="fill:#ff0000;stroke:#ff0000;" x="206.141397" xlink:href="#madbd8ac6ab" y="139.088352"/>
    </g>
   </g>
   <g id="line2d_53">
    <path d="M 338.688 174.466241 
L 369.60768 293.571802 
" style="fill:none;stroke:#ff7500;stroke-linecap:square;stroke-width:1.5;"/>
    <g>
     <use style="fill-opacity:0;stroke:#ff7500;stroke-linejoin:bevel;stroke-width:1.5;" x="338.688" xlink:href="#m0ca95fb4b2" y="174.466241"/>
     <use style="fill-opacity:0;stroke:#ff7500;stroke-linejoin:bevel;stroke-width:1.5;" x="369.60768" xlink:href="#m0ca95fb4b2" y="293.571802"/>
    </g>
   </g>
   <g id="line2d_54">
    <path d="M 338.688 95.848709 
L 369.60768 229.105426 
" style="fill:none;stroke:#ff0000;stroke-linecap:square;stroke-width:1.5;"/>
    <g>
     <use style="fill-opacity:0;stroke:#ff0000;stroke-linejoin:miter;stroke-width:1.5;" x="338.688" xlink:href="#m276df6bb6e" y="95.848709"/>
     <use style="fill-opacity:0;stroke:#ff0000;stroke-linejoin:miter;stroke-width:1.5;" x="369.60768" xlink:href="#m276df6bb6e" y="229.105426"/>
    </g>
   </g>
   <g id="line2d_55">
    <path d="M 338.688 95.848709 
L 369.60768 164.63905 
" style="fill:none;stroke:#000080;stroke-linecap:square;stroke-width:1.5;"/>
    <g>
     <use style="fill-opacity:0;stroke:#000080;stroke-width:1.5;" x="338.688" xlink:href="#m187a9f0047" y="95.848709"/>
     <use style="fill-opacity:0;stroke:#000080;stroke-width:1.5;" x="369.60768" xlink:href="#m187a9f0047" y="164.63905"/>
    </g>
   </g>
   <g id="line2d_56">
    <path d="M 338.688 30.334099 
L 369.60768 100.172673 
" style="fill:none;stroke:#6495ed;stroke-linecap:square;stroke-width:1.5;"/>
    <g>
     <use style="fill-opacity:0;stroke:#6495ed;stroke-linejoin:miter;stroke-width:1.5;" x="338.688" xlink:href="#m81873c72cc" y="30.334099"/>
     <use style="fill-opacity:0;stroke:#6495ed;stroke-linejoin:miter;stroke-width:1.5;" x="369.60768" xlink:href="#m81873c72cc" y="100.172673"/>
    </g>
   </g>
   <g id="line2d_57">
    <path d="M 338.688 30.334099 
L 369.60768 35.706297 
" style="fill:none;stroke:#ff00ff;stroke-linecap:square;stroke-width:1.5;"/>
    <g>
     <use style="fill-opacity:0;stroke:#ff00ff;stroke-linejoin:miter;stroke-width:1.5;" x="338.688" xlink:href="#m19ecb2d9df" y="30.334099"/>
     <use style="fill-opacity:0;stroke:#ff00ff;stroke-linejoin:miter;stroke-width:1.5;" x="369.60768" xlink:href="#m19ecb2d9df" y="35.706297"/>
    </g>
   </g>
   <g id="line2d_58">
    <path d="M 338.688 298.944 
L 338.688 30.334099 
" style="fill:none;stroke:#000000;stroke-linecap:square;stroke-width:1.5;"/>
   </g>
   <g id="patch_3">
    <path d="M 57.6 298.944 
L 57.6 27.648 
" style="fill:none;stroke:#000000;stroke-linecap:square;stroke-linejoin:miter;stroke-width:0.8;"/>
   </g>
   <g id="patch_4">
    <path d="M 338.688 298.944 
L 338.688 27.648 
" style="fill:none;stroke:#000000;stroke-linecap:square;stroke-linejoin:miter;stroke-width:0.8;"/>
   </g>
   <g id="patch_5">
    <path d="M 57.6 298.944 
L 338.688 298.944 
" style="fill:none;stroke:#000000;stroke-linecap:square;stroke-linejoin:miter;stroke-width:0.8;"/>
   </g>
   <g id="patch_6">
    <path d="M 57.6 27.648 
L 338.688 27.648 
" style="fill:none;stroke:#000000;stroke-linecap:square;stroke-linejoin:miter;stroke-width:0.8;"/>
   </g>
   <g id="text_13">
    <!-- rs -->
    <g transform="translate(375.22944 298.262739)scale(0.17 -0.17)">
     <use xlink:href="#DejaVuSans-114"/>
     <use x="41.113281" xlink:href="#DejaVuSans-115"/>
    </g>
   </g>
   <g id="text_14">
    <!-- trust-con -->
    <g transform="translate(375.22944 233.796363)scale(0.17 -0.17)">
     <use xlink:href="#DejaVuSans-116"/>
     <use x="39.208984" xlink:href="#DejaVuSans-114"/>
     <use x="80.322266" xlink:href="#DejaVuSans-117"/>
     <use x="143.701172" xlink:href="#DejaVuSans-115"/>
     <use x="195.800781" xlink:href="#DejaVuSans-116"/>
     <use x="235.009766" xlink:href="#DejaVuSans-45"/>
     <use x="271.09375" xlink:href="#DejaVuSans-99"/>
     <use x="326.074219" xlink:href="#DejaVuSans-111"/>
     <use x="387.255859" xlink:href="#DejaVuSans-110"/>
    </g>
   </g>
   <g id="text_15">
    <!-- cobyla -->
    <g transform="translate(375.22944 169.329987)scale(0.17 -0.17)">
     <defs>
      <path d="M 48.6875 27.296875 
Q 48.6875 37.203125 44.609375 42.84375 
Q 40.53125 48.484375 33.40625 48.484375 
Q 26.265625 48.484375 22.1875 42.84375 
Q 18.109375 37.203125 18.109375 27.296875 
Q 18.109375 17.390625 22.1875 11.75 
Q 26.265625 6.109375 33.40625 6.109375 
Q 40.53125 6.109375 44.609375 11.75 
Q 48.6875 17.390625 48.6875 27.296875 
z
M 18.109375 46.390625 
Q 20.953125 51.265625 25.265625 53.625 
Q 29.59375 56 35.59375 56 
Q 45.5625 56 51.78125 48.09375 
Q 58.015625 40.1875 58.015625 27.296875 
Q 58.015625 14.40625 51.78125 6.484375 
Q 45.5625 -1.421875 35.59375 -1.421875 
Q 29.59375 -1.421875 25.265625 0.953125 
Q 20.953125 3.328125 18.109375 8.203125 
L 18.109375 0 
L 9.078125 0 
L 9.078125 75.984375 
L 18.109375 75.984375 
z
" id="DejaVuSans-98"/>
      <path d="M 32.171875 -5.078125 
Q 28.375 -14.84375 24.75 -17.8125 
Q 21.140625 -20.796875 15.09375 -20.796875 
L 7.90625 -20.796875 
L 7.90625 -13.28125 
L 13.1875 -13.28125 
Q 16.890625 -13.28125 18.9375 -11.515625 
Q 21 -9.765625 23.484375 -3.21875 
L 25.09375 0.875 
L 2.984375 54.6875 
L 12.5 54.6875 
L 29.59375 11.921875 
L 46.6875 54.6875 
L 56.203125 54.6875 
z
" id="DejaVuSans-121"/>
     </defs>
     <use xlink:href="#DejaVuSans-99"/>
     <use x="54.980469" xlink:href="#DejaVuSans-111"/>
     <use x="116.162109" xlink:href="#DejaVuSans-98"/>
     <use x="179.638672" xlink:href="#DejaVuSans-121"/>
     <use x="238.818359" xlink:href="#DejaVuSans-108"/>
     <use x="266.601562" xlink:href="#DejaVuSans-97"/>
    </g>
   </g>
   <g id="text_16">
    <!-- slsqp -->
    <g transform="translate(375.22944 104.863611)scale(0.17 -0.17)">
     <defs>
      <path d="M 14.796875 27.296875 
Q 14.796875 17.390625 18.875 11.75 
Q 22.953125 6.109375 30.078125 6.109375 
Q 37.203125 6.109375 41.296875 11.75 
Q 45.40625 17.390625 45.40625 27.296875 
Q 45.40625 37.203125 41.296875 42.84375 
Q 37.203125 48.484375 30.078125 48.484375 
Q 22.953125 48.484375 18.875 42.84375 
Q 14.796875 37.203125 14.796875 27.296875 
z
M 45.40625 8.203125 
Q 42.578125 3.328125 38.25 0.953125 
Q 33.9375 -1.421875 27.875 -1.421875 
Q 17.96875 -1.421875 11.734375 6.484375 
Q 5.515625 14.40625 5.515625 27.296875 
Q 5.515625 40.1875 11.734375 48.09375 
Q 17.96875 56 27.875 56 
Q 33.9375 56 38.25 53.625 
Q 42.578125 51.265625 45.40625 46.390625 
L 45.40625 54.6875 
L 54.390625 54.6875 
L 54.390625 -20.796875 
L 45.40625 -20.796875 
z
" id="DejaVuSans-113"/>
     </defs>
     <use xlink:href="#DejaVuSans-115"/>
     <use x="52.099609" xlink:href="#DejaVuSans-108"/>
     <use x="79.882812" xlink:href="#DejaVuSans-115"/>
     <use x="131.982422" xlink:href="#DejaVuSans-113"/>
     <use x="195.458984" xlink:href="#DejaVuSans-112"/>
    </g>
   </g>
   <g id="text_17">
    <!-- NAL -->
    <g transform="translate(375.22944 40.397235)scale(0.17 -0.17)">
     <defs>
      <path d="M 9.8125 72.90625 
L 23.09375 72.90625 
L 55.421875 11.921875 
L 55.421875 72.90625 
L 64.984375 72.90625 
L 64.984375 0 
L 51.703125 0 
L 19.390625 60.984375 
L 19.390625 0 
L 9.8125 0 
z
" id="DejaVuSans-78"/>
      <path d="M 34.1875 63.1875 
L 20.796875 26.90625 
L 47.609375 26.90625 
z
M 28.609375 72.90625 
L 39.796875 72.90625 
L 67.578125 0 
L 57.328125 0 
L 50.6875 18.703125 
L 17.828125 18.703125 
L 11.1875 0 
L 0.78125 0 
z
" id="DejaVuSans-65"/>
      <path d="M 9.8125 72.90625 
L 19.671875 72.90625 
L 19.671875 8.296875 
L 55.171875 8.296875 
L 55.171875 0 
L 9.8125 0 
z
" id="DejaVuSans-76"/>
     </defs>
     <use xlink:href="#DejaVuSans-78"/>
     <use x="74.804688" xlink:href="#DejaVuSans-65"/>
     <use x="143.212891" xlink:href="#DejaVuSans-76"/>
    </g>
   </g>
   <g id="text_18">
    <!-- bbob-constrained f7, 5-D -->
    <g transform="translate(60.41088 38.111366)scale(0.102 -0.102)">
     <defs>
      <path d="M 8.203125 72.90625 
L 55.078125 72.90625 
L 55.078125 68.703125 
L 28.609375 0 
L 18.3125 0 
L 43.21875 64.59375 
L 8.203125 64.59375 
z
" id="DejaVuSans-55"/>
      <path d="M 10.796875 72.90625 
L 49.515625 72.90625 
L 49.515625 64.59375 
L 19.828125 64.59375 
L 19.828125 46.734375 
Q 21.96875 47.46875 24.109375 47.828125 
Q 26.265625 48.1875 28.421875 48.1875 
Q 40.625 48.1875 47.75 41.5 
Q 54.890625 34.8125 54.890625 23.390625 
Q 54.890625 11.625 47.5625 5.09375 
Q 40.234375 -1.421875 26.90625 -1.421875 
Q 22.3125 -1.421875 17.546875 -0.640625 
Q 12.796875 0.140625 7.71875 1.703125 
L 7.71875 11.625 
Q 12.109375 9.234375 16.796875 8.0625 
Q 21.484375 6.890625 26.703125 6.890625 
Q 35.15625 6.890625 40.078125 11.328125 
Q 45.015625 15.765625 45.015625 23.390625 
Q 45.015625 31 40.078125 35.4375 
Q 35.15625 39.890625 26.703125 39.890625 
Q 22.75 39.890625 18.8125 39.015625 
Q 14.890625 38.140625 10.796875 36.28125 
z
" id="DejaVuSans-53"/>
      <path d="M 19.671875 64.796875 
L 19.671875 8.109375 
L 31.59375 8.109375 
Q 46.6875 8.109375 53.6875 14.9375 
Q 60.6875 21.78125 60.6875 36.53125 
Q 60.6875 51.171875 53.6875 57.984375 
Q 46.6875 64.796875 31.59375 64.796875 
z
M 9.8125 72.90625 
L 30.078125 72.90625 
Q 51.265625 72.90625 61.171875 64.09375 
Q 71.09375 55.28125 71.09375 36.53125 
Q 71.09375 17.671875 61.125 8.828125 
Q 51.171875 0 30.078125 0 
L 9.8125 0 
z
" id="DejaVuSans-68"/>
     </defs>
     <use xlink:href="#DejaVuSans-98"/>
     <use x="63.476562" xlink:href="#DejaVuSans-98"/>
     <use x="126.953125" xlink:href="#DejaVuSans-111"/>
     <use x="188.134766" xlink:href="#DejaVuSans-98"/>
     <use x="251.611328" xlink:href="#DejaVuSans-45"/>
     <use x="287.695312" xlink:href="#DejaVuSans-99"/>
     <use x="342.675781" xlink:href="#DejaVuSans-111"/>
     <use x="403.857422" xlink:href="#DejaVuSans-110"/>
     <use x="467.236328" xlink:href="#DejaVuSans-115"/>
     <use x="519.335938" xlink:href="#DejaVuSans-116"/>
     <use x="558.544922" xlink:href="#DejaVuSans-114"/>
     <use x="599.658203" xlink:href="#DejaVuSans-97"/>
     <use x="660.9375" xlink:href="#DejaVuSans-105"/>
     <use x="688.720703" xlink:href="#DejaVuSans-110"/>
     <use x="752.099609" xlink:href="#DejaVuSans-101"/>
     <use x="813.623047" xlink:href="#DejaVuSans-100"/>
     <use x="877.099609" xlink:href="#DejaVuSans-32"/>
     <use x="908.886719" xlink:href="#DejaVuSans-102"/>
     <use x="944.091797" xlink:href="#DejaVuSans-55"/>
     <use x="1007.714844" xlink:href="#DejaVuSans-44"/>
     <use x="1039.501953" xlink:href="#DejaVuSans-32"/>
     <use x="1071.289062" xlink:href="#DejaVuSans-53"/>
     <use x="1134.912109" xlink:href="#DejaVuSans-45"/>
     <use x="1170.996094" xlink:href="#DejaVuSans-68"/>
    </g>
    <!-- 41 targets: 100..1e-06 -->
    <g transform="translate(60.41088 49.533135)scale(0.102 -0.102)">
     <defs>
      <path d="M 11.71875 12.40625 
L 22.015625 12.40625 
L 22.015625 0 
L 11.71875 0 
z
M 11.71875 51.703125 
L 22.015625 51.703125 
L 22.015625 39.3125 
L 11.71875 39.3125 
z
" id="DejaVuSans-58"/>
     </defs>
     <use xlink:href="#DejaVuSans-52"/>
     <use x="63.623047" xlink:href="#DejaVuSans-49"/>
     <use x="127.246094" xlink:href="#DejaVuSans-32"/>
     <use x="159.033203" xlink:href="#DejaVuSans-116"/>
     <use x="198.242188" xlink:href="#DejaVuSans-97"/>
     <use x="259.521484" xlink:href="#DejaVuSans-114"/>
     <use x="298.884766" xlink:href="#DejaVuSans-103"/>
     <use x="362.361328" xlink:href="#DejaVuSans-101"/>
     <use x="423.884766" xlink:href="#DejaVuSans-116"/>
     <use x="463.09375" xlink:href="#DejaVuSans-115"/>
     <use x="515.193359" xlink:href="#DejaVuSans-58"/>
     <use x="548.884766" xlink:href="#DejaVuSans-32"/>
     <use x="580.671875" xlink:href="#DejaVuSans-49"/>
     <use x="644.294922" xlink:href="#DejaVuSans-48"/>
     <use x="707.917969" xlink:href="#DejaVuSans-48"/>
     <use x="771.541016" xlink:href="#DejaVuSans-46"/>
     <use x="803.328125" xlink:href="#DejaVuSans-46"/>
     <use x="835.115234" xlink:href="#DejaVuSans-49"/>
     <use x="898.738281" xlink:href="#DejaVuSans-101"/>
     <use x="960.261719" xlink:href="#DejaVuSans-45"/>
     <use x="996.345703" xlink:href="#DejaVuSans-48"/>
     <use x="1059.96875" xlink:href="#DejaVuSans-54"/>
    </g>
    <!-- 15 instances -->
    <g transform="translate(60.41088 60.954904)scale(0.102 -0.102)">
     <use xlink:href="#DejaVuSans-49"/>
     <use x="63.623047" xlink:href="#DejaVuSans-53"/>
     <use x="127.246094" xlink:href="#DejaVuSans-32"/>
     <use x="159.033203" xlink:href="#DejaVuSans-105"/>
     <use x="186.816406" xlink:href="#DejaVuSans-110"/>
     <use x="250.195312" xlink:href="#DejaVuSans-115"/>
     <use x="302.294922" xlink:href="#DejaVuSans-116"/>
     <use x="341.503906" xlink:href="#DejaVuSans-97"/>
     <use x="402.783203" xlink:href="#DejaVuSans-110"/>
     <use x="466.162109" xlink:href="#DejaVuSans-99"/>
     <use x="521.142578" xlink:href="#DejaVuSans-101"/>
     <use x="582.666016" xlink:href="#DejaVuSans-115"/>
    </g>
   </g>
   <g id="text_19">
    <!-- v5z33 -->
    <g style="fill:#808080;" transform="translate(183.016656 294.151352)scale(0.1 -0.1)">
     <defs>
      <path d="M 5.515625 54.6875 
L 48.1875 54.6875 
L 48.1875 46.484375 
L 14.40625 7.171875 
L 48.1875 7.171875 
L 48.1875 0 
L 4.296875 0 
L 4.296875 8.203125 
L 38.09375 47.515625 
L 5.515625 47.515625 
z
" id="DejaVuSans-122"/>
      <path d="M 40.578125 39.3125 
Q 47.65625 37.796875 51.625 33 
Q 55.609375 28.21875 55.609375 21.1875 
Q 55.609375 10.40625 48.1875 4.484375 
Q 40.765625 -1.421875 27.09375 -1.421875 
Q 22.515625 -1.421875 17.65625 -0.515625 
Q 12.796875 0.390625 7.625 2.203125 
L 7.625 11.71875 
Q 11.71875 9.328125 16.59375 8.109375 
Q 21.484375 6.890625 26.8125 6.890625 
Q 36.078125 6.890625 40.9375 10.546875 
Q 45.796875 14.203125 45.796875 21.1875 
Q 45.796875 27.640625 41.28125 31.265625 
Q 36.765625 34.90625 28.71875 34.90625 
L 20.21875 34.90625 
L 20.21875 43.015625 
L 29.109375 43.015625 
Q 36.375 43.015625 40.234375 45.921875 
Q 44.09375 48.828125 44.09375 54.296875 
Q 44.09375 59.90625 40.109375 62.90625 
Q 36.140625 65.921875 28.71875 65.921875 
Q 24.65625 65.921875 20.015625 65.03125 
Q 15.375 64.15625 9.8125 62.3125 
L 9.8125 71.09375 
Q 15.4375 72.65625 20.34375 73.4375 
Q 25.25 74.21875 29.59375 74.21875 
Q 40.828125 74.21875 47.359375 69.109375 
Q 53.90625 64.015625 53.90625 55.328125 
Q 53.90625 49.265625 50.4375 45.09375 
Q 46.96875 40.921875 40.578125 39.3125 
z
" id="DejaVuSans-51"/>
     </defs>
     <use xlink:href="#DejaVuSans-118"/>
     <use x="59.179688" xlink:href="#DejaVuSans-53"/>
     <use x="122.802734" xlink:href="#DejaVuSans-122"/>
     <use x="175.292969" xlink:href="#DejaVuSans-51"/>
     <use x="238.916016" xlink:href="#DejaVuSans-51"/>
    </g>
   </g>
   <g id="text_20">
    <!-- 7 Sep. Ellipsoid, 1 constraint -->
    <g transform="translate(55.684625 21.648)scale(0.2 -0.2)">
     <defs>
      <path d="M 53.515625 70.515625 
L 53.515625 60.890625 
Q 47.90625 63.578125 42.921875 64.890625 
Q 37.9375 66.21875 33.296875 66.21875 
Q 25.25 66.21875 20.875 63.09375 
Q 16.5 59.96875 16.5 54.203125 
Q 16.5 49.359375 19.40625 46.890625 
Q 22.3125 44.4375 30.421875 42.921875 
L 36.375 41.703125 
Q 47.40625 39.59375 52.65625 34.296875 
Q 57.90625 29 57.90625 20.125 
Q 57.90625 9.515625 50.796875 4.046875 
Q 43.703125 -1.421875 29.984375 -1.421875 
Q 24.8125 -1.421875 18.96875 -0.25 
Q 13.140625 0.921875 6.890625 3.21875 
L 6.890625 13.375 
Q 12.890625 10.015625 18.65625 8.296875 
Q 24.421875 6.59375 29.984375 6.59375 
Q 38.421875 6.59375 43.015625 9.90625 
Q 47.609375 13.234375 47.609375 19.390625 
Q 47.609375 24.75 44.3125 27.78125 
Q 41.015625 30.8125 33.5 32.328125 
L 27.484375 33.5 
Q 16.453125 35.6875 11.515625 40.375 
Q 6.59375 45.0625 6.59375 53.421875 
Q 6.59375 63.09375 13.40625 68.65625 
Q 20.21875 74.21875 32.171875 74.21875 
Q 37.3125 74.21875 42.625 73.28125 
Q 47.953125 72.359375 53.515625 70.515625 
z
" id="DejaVuSans-83"/>
      <path d="M 9.8125 72.90625 
L 55.90625 72.90625 
L 55.90625 64.59375 
L 19.671875 64.59375 
L 19.671875 43.015625 
L 54.390625 43.015625 
L 54.390625 34.71875 
L 19.671875 34.71875 
L 19.671875 8.296875 
L 56.78125 8.296875 
L 56.78125 0 
L 9.8125 0 
z
" id="DejaVuSans-69"/>
     </defs>
     <use xlink:href="#DejaVuSans-55"/>
     <use x="63.623047" xlink:href="#DejaVuSans-32"/>
     <use x="95.410156" xlink:href="#DejaVuSans-83"/>
     <use x="158.886719" xlink:href="#DejaVuSans-101"/>
     <use x="220.410156" xlink:href="#DejaVuSans-112"/>
     <use x="283.886719" xlink:href="#DejaVuSans-46"/>
     <use x="315.673828" xlink:href="#DejaVuSans-32"/>
     <use x="347.460938" xlink:href="#DejaVuSans-69"/>
     <use x="410.644531" xlink:href="#DejaVuSans-108"/>
     <use x="438.427734" xlink:href="#DejaVuSans-108"/>
     <use x="466.210938" xlink:href="#DejaVuSans-105"/>
     <use x="493.994141" xlink:href="#DejaVuSans-112"/>
     <use x="557.470703" xlink:href="#DejaVuSans-115"/>
     <use x="609.570312" xlink:href="#DejaVuSans-111"/>
     <use x="670.751953" xlink:href="#DejaVuSans-105"/>
     <use x="698.535156" xlink:href="#DejaVuSans-100"/>
     <use x="762.011719" xlink:href="#DejaVuSans-44"/>
     <use x="793.798828" xlink:href="#DejaVuSans-32"/>
     <use x="825.585938" xlink:href="#DejaVuSans-49"/>
     <use x="889.208984" xlink:href="#DejaVuSans-32"/>
     <use x="920.996094" xlink:href="#DejaVuSans-99"/>
     <use x="975.976562" xlink:href="#DejaVuSans-111"/>
     <use x="1037.158203" xlink:href="#DejaVuSans-110"/>
     <use x="1100.537109" xlink:href="#DejaVuSans-115"/>
     <use x="1152.636719" xlink:href="#DejaVuSans-116"/>
     <use x="1191.845703" xlink:href="#DejaVuSans-114"/>
     <use x="1232.958984" xlink:href="#DejaVuSans-97"/>
     <use x="1294.238281" xlink:href="#DejaVuSans-105"/>
     <use x="1322.021484" xlink:href="#DejaVuSans-110"/>
     <use x="1385.400391" xlink:href="#DejaVuSans-116"/>
    </g>
   </g>
  </g>
 </g>
 <defs>
  <clipPath id="p1fcdef0eaf">
   <rect height="271.296" width="281.088" x="57.6" y="27.648"/>
  </clipPath>
 </defs>
</svg>
