<?xml version="1.0" encoding="utf-8" standalone="no"?>
<!DOCTYPE svg PUBLIC "-//W3C//DTD SVG 1.1//EN"
  "http://www.w3.org/Graphics/SVG/1.1/DTD/svg11.dtd">
<!-- Created with matplotlib (https://matplotlib.org/) -->
<svg height="345.6pt" version="1.1" viewBox="0 0 460.8 345.6" width="460.8pt" xmlns="http://www.w3.org/2000/svg" xmlns:xlink="http://www.w3.org/1999/xlink">
 <metadata>
  <rdf:RDF xmlns:cc="http://creativecommons.org/ns#" xmlns:dc="http://purl.org/dc/elements/1.1/" xmlns:rdf="http://www.w3.org/1999/02/22-rdf-syntax-ns#">
   <cc:Work>
    <dc:type rdf:resource="http://purl.org/dc/dcmitype/StillImage"/>
    <dc:date>2021-06-24T15:49:29.465757</dc:date>
    <dc:format>image/svg+xml</dc:format>
    <dc:creator>
     <cc:Agent>
      <dc:title>Matplotlib v3.3.3, https://matplotlib.org/</dc:title>
     </cc:Agent>
    </dc:creator>
   </cc:Work>
  </rdf:RDF>
 </metadata>
 <defs>
  <style type="text/css">*{stroke-linecap:butt;stroke-linejoin:round;}</style>
 </defs>
 <g id="figure_1">
  <g id="patch_1">
   <path d="M 0 345.6 
L 460.8 345.6 
L 460.8 0 
L 0 0 
z
" style="fill:#ffffff;"/>
  </g>
  <g id="axes_1">
   <g id="patch_2">
    <path d="M 57.6 298.944 
L 338.688 298.944 
L 338.688 27.648 
L 57.6 27.648 
z
" style="fill:#ffffff;"/>
   </g>
   <g id="matplotlib.axis_1">
    <g id="xtick_1">
     <g id="line2d_1">
      <path clip-path="url(#p8311e7a3a1)" d="M 57.6 298.944 
L 57.6 27.648 
" style="fill:none;stroke:#b0b0b0;stroke-linecap:square;stroke-width:0.8;"/>
     </g>
     <g id="line2d_2">
      <defs>
       <path d="M 0 0 
L 0 3.5 
" id="ma978379190" style="stroke:#000000;stroke-width:0.8;"/>
      </defs>
      <g>
       <use style="stroke:#000000;stroke-width:0.8;" x="57.6" xlink:href="#ma978379190" y="298.944"/>
      </g>
     </g>
     <g id="text_1">
      <!-- 0 -->
      <g transform="translate(51.2375 321.140875)scale(0.2 -0.2)">
       <defs>
        <path d="M 31.78125 66.40625 
Q 24.171875 66.40625 20.328125 58.90625 
Q 16.5 51.421875 16.5 36.375 
Q 16.5 21.390625 20.328125 13.890625 
Q 24.171875 6.390625 31.78125 6.390625 
Q 39.453125 6.390625 43.28125 13.890625 
Q 47.125 21.390625 47.125 36.375 
Q 47.125 51.421875 43.28125 58.90625 
Q 39.453125 66.40625 31.78125 66.40625 
z
M 31.78125 74.21875 
Q 44.046875 74.21875 50.515625 64.515625 
Q 56.984375 54.828125 56.984375 36.375 
Q 56.984375 17.96875 50.515625 8.265625 
Q 44.046875 -1.421875 31.78125 -1.421875 
Q 19.53125 -1.421875 13.0625 8.265625 
Q 6.59375 17.96875 6.59375 36.375 
Q 6.59375 54.828125 13.0625 64.515625 
Q 19.53125 74.21875 31.78125 74.21875 
z
" id="DejaVuSans-48"/>
       </defs>
       <use xlink:href="#DejaVuSans-48"/>
      </g>
     </g>
    </g>
    <g id="xtick_2">
     <g id="line2d_3">
      <path clip-path="url(#p8311e7a3a1)" d="M 137.910857 298.944 
L 137.910857 27.648 
" style="fill:none;stroke:#b0b0b0;stroke-linecap:square;stroke-width:0.8;"/>
     </g>
     <g id="line2d_4">
      <g>
       <use style="stroke:#000000;stroke-width:0.8;" x="137.910857" xlink:href="#ma978379190" y="298.944"/>
      </g>
     </g>
     <g id="text_2">
      <!-- 2 -->
      <g transform="translate(131.548357 321.140875)scale(0.2 -0.2)">
       <defs>
        <path d="M 19.1875 8.296875 
L 53.609375 8.296875 
L 53.609375 0 
L 7.328125 0 
L 7.328125 8.296875 
Q 12.9375 14.109375 22.625 23.890625 
Q 32.328125 33.6875 34.8125 36.53125 
Q 39.546875 41.84375 41.421875 45.53125 
Q 43.3125 49.21875 43.3125 52.78125 
Q 43.3125 58.59375 39.234375 62.25 
Q 35.15625 65.921875 28.609375 65.921875 
Q 23.96875 65.921875 18.8125 64.3125 
Q 13.671875 62.703125 7.8125 59.421875 
L 7.8125 69.390625 
Q 13.765625 71.78125 18.9375 73 
Q 24.125 74.21875 28.421875 74.21875 
Q 39.75 74.21875 46.484375 68.546875 
Q 53.21875 62.890625 53.21875 53.421875 
Q 53.21875 48.921875 51.53125 44.890625 
Q 49.859375 40.875 45.40625 35.40625 
Q 44.1875 33.984375 37.640625 27.21875 
Q 31.109375 20.453125 19.1875 8.296875 
z
" id="DejaVuSans-50"/>
       </defs>
       <use xlink:href="#DejaVuSans-50"/>
      </g>
     </g>
    </g>
    <g id="xtick_3">
     <g id="line2d_5">
      <path clip-path="url(#p8311e7a3a1)" d="M 218.221714 298.944 
L 218.221714 27.648 
" style="fill:none;stroke:#b0b0b0;stroke-linecap:square;stroke-width:0.8;"/>
     </g>
     <g id="line2d_6">
      <g>
       <use style="stroke:#000000;stroke-width:0.8;" x="218.221714" xlink:href="#ma978379190" y="298.944"/>
      </g>
     </g>
     <g id="text_3">
      <!-- 4 -->
      <g transform="translate(211.859214 321.140875)scale(0.2 -0.2)">
       <defs>
        <path d="M 37.796875 64.3125 
L 12.890625 25.390625 
L 37.796875 25.390625 
z
M 35.203125 72.90625 
L 47.609375 72.90625 
L 47.609375 25.390625 
L 58.015625 25.390625 
L 58.015625 17.1875 
L 47.609375 17.1875 
L 47.609375 0 
L 37.796875 0 
L 37.796875 17.1875 
L 4.890625 17.1875 
L 4.890625 26.703125 
z
" id="DejaVuSans-52"/>
       </defs>
       <use xlink:href="#DejaVuSans-52"/>
      </g>
     </g>
    </g>
    <g id="xtick_4">
     <g id="line2d_7">
      <path clip-path="url(#p8311e7a3a1)" d="M 298.532571 298.944 
L 298.532571 27.648 
" style="fill:none;stroke:#b0b0b0;stroke-linecap:square;stroke-width:0.8;"/>
     </g>
     <g id="line2d_8">
      <g>
       <use style="stroke:#000000;stroke-width:0.8;" x="298.532571" xlink:href="#ma978379190" y="298.944"/>
      </g>
     </g>
     <g id="text_4">
      <!-- 6 -->
      <g transform="translate(292.170071 321.140875)scale(0.2 -0.2)">
       <defs>
        <path d="M 33.015625 40.375 
Q 26.375 40.375 22.484375 35.828125 
Q 18.609375 31.296875 18.609375 23.390625 
Q 18.609375 15.53125 22.484375 10.953125 
Q 26.375 6.390625 33.015625 6.390625 
Q 39.65625 6.390625 43.53125 10.953125 
Q 47.40625 15.53125 47.40625 23.390625 
Q 47.40625 31.296875 43.53125 35.828125 
Q 39.65625 40.375 33.015625 40.375 
z
M 52.59375 71.296875 
L 52.59375 62.3125 
Q 48.875 64.0625 45.09375 64.984375 
Q 41.3125 65.921875 37.59375 65.921875 
Q 27.828125 65.921875 22.671875 59.328125 
Q 17.53125 52.734375 16.796875 39.40625 
Q 19.671875 43.65625 24.015625 45.921875 
Q 28.375 48.1875 33.59375 48.1875 
Q 44.578125 48.1875 50.953125 41.515625 
Q 57.328125 34.859375 57.328125 23.390625 
Q 57.328125 12.15625 50.6875 5.359375 
Q 44.046875 -1.421875 33.015625 -1.421875 
Q 20.359375 -1.421875 13.671875 8.265625 
Q 6.984375 17.96875 6.984375 36.375 
Q 6.984375 53.65625 15.1875 63.9375 
Q 23.390625 74.21875 37.203125 74.21875 
Q 40.921875 74.21875 44.703125 73.484375 
Q 48.484375 72.75 52.59375 71.296875 
z
" id="DejaVuSans-54"/>
       </defs>
       <use xlink:href="#DejaVuSans-54"/>
      </g>
     </g>
    </g>
    <g id="xtick_5">
     <g id="line2d_9">
      <path clip-path="url(#p8311e7a3a1)" d="M 97.755429 298.944 
L 97.755429 27.648 
" style="fill:none;stroke:#b0b0b0;stroke-linecap:square;stroke-width:0.8;"/>
     </g>
     <g id="line2d_10">
      <defs>
       <path d="M 0 0 
L 0 2 
" id="m540cf4eb54" style="stroke:#000000;stroke-width:0.6;"/>
      </defs>
      <g>
       <use style="stroke:#000000;stroke-width:0.6;" x="97.755429" xlink:href="#m540cf4eb54" y="298.944"/>
      </g>
     </g>
    </g>
    <g id="xtick_6">
     <g id="line2d_11">
      <path clip-path="url(#p8311e7a3a1)" d="M 178.066286 298.944 
L 178.066286 27.648 
" style="fill:none;stroke:#b0b0b0;stroke-linecap:square;stroke-width:0.8;"/>
     </g>
     <g id="line2d_12">
      <g>
       <use style="stroke:#000000;stroke-width:0.6;" x="178.066286" xlink:href="#m540cf4eb54" y="298.944"/>
      </g>
     </g>
    </g>
    <g id="xtick_7">
     <g id="line2d_13">
      <path clip-path="url(#p8311e7a3a1)" d="M 258.377143 298.944 
L 258.377143 27.648 
" style="fill:none;stroke:#b0b0b0;stroke-linecap:square;stroke-width:0.8;"/>
     </g>
     <g id="line2d_14">
      <g>
       <use style="stroke:#000000;stroke-width:0.6;" x="258.377143" xlink:href="#m540cf4eb54" y="298.944"/>
      </g>
     </g>
    </g>
    <g id="xtick_8">
     <g id="line2d_15">
      <path clip-path="url(#p8311e7a3a1)" d="M 338.688 298.944 
L 338.688 27.648 
" style="fill:none;stroke:#b0b0b0;stroke-linecap:square;stroke-width:0.8;"/>
     </g>
     <g id="line2d_16">
      <g>
       <use style="stroke:#000000;stroke-width:0.6;" x="338.688" xlink:href="#m540cf4eb54" y="298.944"/>
      </g>
     </g>
    </g>
    <g id="text_5">
     <!-- log10(# (f+g)-evals / dimension) -->
     <g transform="translate(58.145016 342.217594)scale(0.17 -0.17)">
      <defs>
       <path d="M 9.421875 75.984375 
L 18.40625 75.984375 
L 18.40625 0 
L 9.421875 0 
z
" id="DejaVuSans-108"/>
       <path d="M 30.609375 48.390625 
Q 23.390625 48.390625 19.1875 42.75 
Q 14.984375 37.109375 14.984375 27.296875 
Q 14.984375 17.484375 19.15625 11.84375 
Q 23.34375 6.203125 30.609375 6.203125 
Q 37.796875 6.203125 41.984375 11.859375 
Q 46.1875 17.53125 46.1875 27.296875 
Q 46.1875 37.015625 41.984375 42.703125 
Q 37.796875 48.390625 30.609375 48.390625 
z
M 30.609375 56 
Q 42.328125 56 49.015625 48.375 
Q 55.71875 40.765625 55.71875 27.296875 
Q 55.71875 13.875 49.015625 6.21875 
Q 42.328125 -1.421875 30.609375 -1.421875 
Q 18.84375 -1.421875 12.171875 6.21875 
Q 5.515625 13.875 5.515625 27.296875 
Q 5.515625 40.765625 12.171875 48.375 
Q 18.84375 56 30.609375 56 
z
" id="DejaVuSans-111"/>
       <path d="M 45.40625 27.984375 
Q 45.40625 37.75 41.375 43.109375 
Q 37.359375 48.484375 30.078125 48.484375 
Q 22.859375 48.484375 18.828125 43.109375 
Q 14.796875 37.75 14.796875 27.984375 
Q 14.796875 18.265625 18.828125 12.890625 
Q 22.859375 7.515625 30.078125 7.515625 
Q 37.359375 7.515625 41.375 12.890625 
Q 45.40625 18.265625 45.40625 27.984375 
z
M 54.390625 6.78125 
Q 54.390625 -7.171875 48.1875 -13.984375 
Q 42 -20.796875 29.203125 -20.796875 
Q 24.46875 -20.796875 20.265625 -20.09375 
Q 16.0625 -19.390625 12.109375 -17.921875 
L 12.109375 -9.1875 
Q 16.0625 -11.328125 19.921875 -12.34375 
Q 23.78125 -13.375 27.78125 -13.375 
Q 36.625 -13.375 41.015625 -8.765625 
Q 45.40625 -4.15625 45.40625 5.171875 
L 45.40625 9.625 
Q 42.625 4.78125 38.28125 2.390625 
Q 33.9375 0 27.875 0 
Q 17.828125 0 11.671875 7.65625 
Q 5.515625 15.328125 5.515625 27.984375 
Q 5.515625 40.671875 11.671875 48.328125 
Q 17.828125 56 27.875 56 
Q 33.9375 56 38.28125 53.609375 
Q 42.625 51.21875 45.40625 46.390625 
L 45.40625 54.6875 
L 54.390625 54.6875 
z
" id="DejaVuSans-103"/>
       <path d="M 12.40625 8.296875 
L 28.515625 8.296875 
L 28.515625 63.921875 
L 10.984375 60.40625 
L 10.984375 69.390625 
L 28.421875 72.90625 
L 38.28125 72.90625 
L 38.28125 8.296875 
L 54.390625 8.296875 
L 54.390625 0 
L 12.40625 0 
z
" id="DejaVuSans-49"/>
       <path d="M 31 75.875 
Q 24.46875 64.65625 21.28125 53.65625 
Q 18.109375 42.671875 18.109375 31.390625 
Q 18.109375 20.125 21.3125 9.0625 
Q 24.515625 -2 31 -13.1875 
L 23.1875 -13.1875 
Q 15.875 -1.703125 12.234375 9.375 
Q 8.59375 20.453125 8.59375 31.390625 
Q 8.59375 42.28125 12.203125 53.3125 
Q 15.828125 64.359375 23.1875 75.875 
z
" id="DejaVuSans-40"/>
       <path d="M 51.125 44 
L 36.921875 44 
L 32.8125 27.6875 
L 47.125 27.6875 
z
M 43.796875 71.78125 
L 38.71875 51.515625 
L 52.984375 51.515625 
L 58.109375 71.78125 
L 65.921875 71.78125 
L 60.890625 51.515625 
L 76.125 51.515625 
L 76.125 44 
L 58.984375 44 
L 54.984375 27.6875 
L 70.515625 27.6875 
L 70.515625 20.21875 
L 53.078125 20.21875 
L 48 0 
L 40.1875 0 
L 45.21875 20.21875 
L 30.90625 20.21875 
L 25.875 0 
L 18.015625 0 
L 23.09375 20.21875 
L 7.71875 20.21875 
L 7.71875 27.6875 
L 24.90625 27.6875 
L 29 44 
L 13.28125 44 
L 13.28125 51.515625 
L 30.90625 51.515625 
L 35.890625 71.78125 
z
" id="DejaVuSans-35"/>
       <path id="DejaVuSans-32"/>
       <path d="M 37.109375 75.984375 
L 37.109375 68.5 
L 28.515625 68.5 
Q 23.6875 68.5 21.796875 66.546875 
Q 19.921875 64.59375 19.921875 59.515625 
L 19.921875 54.6875 
L 34.71875 54.6875 
L 34.71875 47.703125 
L 19.921875 47.703125 
L 19.921875 0 
L 10.890625 0 
L 10.890625 47.703125 
L 2.296875 47.703125 
L 2.296875 54.6875 
L 10.890625 54.6875 
L 10.890625 58.5 
Q 10.890625 67.625 15.140625 71.796875 
Q 19.390625 75.984375 28.609375 75.984375 
z
" id="DejaVuSans-102"/>
       <path d="M 46 62.703125 
L 46 35.5 
L 73.1875 35.5 
L 73.1875 27.203125 
L 46 27.203125 
L 46 0 
L 37.796875 0 
L 37.796875 27.203125 
L 10.59375 27.203125 
L 10.59375 35.5 
L 37.796875 35.5 
L 37.796875 62.703125 
z
" id="DejaVuSans-43"/>
       <path d="M 8.015625 75.875 
L 15.828125 75.875 
Q 23.140625 64.359375 26.78125 53.3125 
Q 30.421875 42.28125 30.421875 31.390625 
Q 30.421875 20.453125 26.78125 9.375 
Q 23.140625 -1.703125 15.828125 -13.1875 
L 8.015625 -13.1875 
Q 14.5 -2 17.703125 9.0625 
Q 20.90625 20.125 20.90625 31.390625 
Q 20.90625 42.671875 17.703125 53.65625 
Q 14.5 64.65625 8.015625 75.875 
z
" id="DejaVuSans-41"/>
       <path d="M 4.890625 31.390625 
L 31.203125 31.390625 
L 31.203125 23.390625 
L 4.890625 23.390625 
z
" id="DejaVuSans-45"/>
       <path d="M 56.203125 29.59375 
L 56.203125 25.203125 
L 14.890625 25.203125 
Q 15.484375 15.921875 20.484375 11.0625 
Q 25.484375 6.203125 34.421875 6.203125 
Q 39.59375 6.203125 44.453125 7.46875 
Q 49.3125 8.734375 54.109375 11.28125 
L 54.109375 2.78125 
Q 49.265625 0.734375 44.1875 -0.34375 
Q 39.109375 -1.421875 33.890625 -1.421875 
Q 20.796875 -1.421875 13.15625 6.1875 
Q 5.515625 13.8125 5.515625 26.8125 
Q 5.515625 40.234375 12.765625 48.109375 
Q 20.015625 56 32.328125 56 
Q 43.359375 56 49.78125 48.890625 
Q 56.203125 41.796875 56.203125 29.59375 
z
M 47.21875 32.234375 
Q 47.125 39.59375 43.09375 43.984375 
Q 39.0625 48.390625 32.421875 48.390625 
Q 24.90625 48.390625 20.390625 44.140625 
Q 15.875 39.890625 15.1875 32.171875 
z
" id="DejaVuSans-101"/>
       <path d="M 2.984375 54.6875 
L 12.5 54.6875 
L 29.59375 8.796875 
L 46.6875 54.6875 
L 56.203125 54.6875 
L 35.6875 0 
L 23.484375 0 
z
" id="DejaVuSans-118"/>
       <path d="M 34.28125 27.484375 
Q 23.390625 27.484375 19.1875 25 
Q 14.984375 22.515625 14.984375 16.5 
Q 14.984375 11.71875 18.140625 8.90625 
Q 21.296875 6.109375 26.703125 6.109375 
Q 34.1875 6.109375 38.703125 11.40625 
Q 43.21875 16.703125 43.21875 25.484375 
L 43.21875 27.484375 
z
M 52.203125 31.203125 
L 52.203125 0 
L 43.21875 0 
L 43.21875 8.296875 
Q 40.140625 3.328125 35.546875 0.953125 
Q 30.953125 -1.421875 24.3125 -1.421875 
Q 15.921875 -1.421875 10.953125 3.296875 
Q 6 8.015625 6 15.921875 
Q 6 25.140625 12.171875 29.828125 
Q 18.359375 34.515625 30.609375 34.515625 
L 43.21875 34.515625 
L 43.21875 35.40625 
Q 43.21875 41.609375 39.140625 45 
Q 35.0625 48.390625 27.6875 48.390625 
Q 23 48.390625 18.546875 47.265625 
Q 14.109375 46.140625 10.015625 43.890625 
L 10.015625 52.203125 
Q 14.9375 54.109375 19.578125 55.046875 
Q 24.21875 56 28.609375 56 
Q 40.484375 56 46.34375 49.84375 
Q 52.203125 43.703125 52.203125 31.203125 
z
" id="DejaVuSans-97"/>
       <path d="M 44.28125 53.078125 
L 44.28125 44.578125 
Q 40.484375 46.53125 36.375 47.5 
Q 32.28125 48.484375 27.875 48.484375 
Q 21.1875 48.484375 17.84375 46.4375 
Q 14.5 44.390625 14.5 40.28125 
Q 14.5 37.15625 16.890625 35.375 
Q 19.28125 33.59375 26.515625 31.984375 
L 29.59375 31.296875 
Q 39.15625 29.25 43.1875 25.515625 
Q 47.21875 21.78125 47.21875 15.09375 
Q 47.21875 7.46875 41.1875 3.015625 
Q 35.15625 -1.421875 24.609375 -1.421875 
Q 20.21875 -1.421875 15.453125 -0.5625 
Q 10.6875 0.296875 5.421875 2 
L 5.421875 11.28125 
Q 10.40625 8.6875 15.234375 7.390625 
Q 20.0625 6.109375 24.8125 6.109375 
Q 31.15625 6.109375 34.5625 8.28125 
Q 37.984375 10.453125 37.984375 14.40625 
Q 37.984375 18.0625 35.515625 20.015625 
Q 33.0625 21.96875 24.703125 23.78125 
L 21.578125 24.515625 
Q 13.234375 26.265625 9.515625 29.90625 
Q 5.8125 33.546875 5.8125 39.890625 
Q 5.8125 47.609375 11.28125 51.796875 
Q 16.75 56 26.8125 56 
Q 31.78125 56 36.171875 55.265625 
Q 40.578125 54.546875 44.28125 53.078125 
z
" id="DejaVuSans-115"/>
       <path d="M 25.390625 72.90625 
L 33.6875 72.90625 
L 8.296875 -9.28125 
L 0 -9.28125 
z
" id="DejaVuSans-47"/>
       <path d="M 45.40625 46.390625 
L 45.40625 75.984375 
L 54.390625 75.984375 
L 54.390625 0 
L 45.40625 0 
L 45.40625 8.203125 
Q 42.578125 3.328125 38.25 0.953125 
Q 33.9375 -1.421875 27.875 -1.421875 
Q 17.96875 -1.421875 11.734375 6.484375 
Q 5.515625 14.40625 5.515625 27.296875 
Q 5.515625 40.1875 11.734375 48.09375 
Q 17.96875 56 27.875 56 
Q 33.9375 56 38.25 53.625 
Q 42.578125 51.265625 45.40625 46.390625 
z
M 14.796875 27.296875 
Q 14.796875 17.390625 18.875 11.75 
Q 22.953125 6.109375 30.078125 6.109375 
Q 37.203125 6.109375 41.296875 11.75 
Q 45.40625 17.390625 45.40625 27.296875 
Q 45.40625 37.203125 41.296875 42.84375 
Q 37.203125 48.484375 30.078125 48.484375 
Q 22.953125 48.484375 18.875 42.84375 
Q 14.796875 37.203125 14.796875 27.296875 
z
" id="DejaVuSans-100"/>
       <path d="M 9.421875 54.6875 
L 18.40625 54.6875 
L 18.40625 0 
L 9.421875 0 
z
M 9.421875 75.984375 
L 18.40625 75.984375 
L 18.40625 64.59375 
L 9.421875 64.59375 
z
" id="DejaVuSans-105"/>
       <path d="M 52 44.1875 
Q 55.375 50.25 60.0625 53.125 
Q 64.75 56 71.09375 56 
Q 79.640625 56 84.28125 50.015625 
Q 88.921875 44.046875 88.921875 33.015625 
L 88.921875 0 
L 79.890625 0 
L 79.890625 32.71875 
Q 79.890625 40.578125 77.09375 44.375 
Q 74.3125 48.1875 68.609375 48.1875 
Q 61.625 48.1875 57.5625 43.546875 
Q 53.515625 38.921875 53.515625 30.90625 
L 53.515625 0 
L 44.484375 0 
L 44.484375 32.71875 
Q 44.484375 40.625 41.703125 44.40625 
Q 38.921875 48.1875 33.109375 48.1875 
Q 26.21875 48.1875 22.15625 43.53125 
Q 18.109375 38.875 18.109375 30.90625 
L 18.109375 0 
L 9.078125 0 
L 9.078125 54.6875 
L 18.109375 54.6875 
L 18.109375 46.1875 
Q 21.1875 51.21875 25.484375 53.609375 
Q 29.78125 56 35.6875 56 
Q 41.65625 56 45.828125 52.96875 
Q 50 49.953125 52 44.1875 
z
" id="DejaVuSans-109"/>
       <path d="M 54.890625 33.015625 
L 54.890625 0 
L 45.90625 0 
L 45.90625 32.71875 
Q 45.90625 40.484375 42.875 44.328125 
Q 39.84375 48.1875 33.796875 48.1875 
Q 26.515625 48.1875 22.3125 43.546875 
Q 18.109375 38.921875 18.109375 30.90625 
L 18.109375 0 
L 9.078125 0 
L 9.078125 54.6875 
L 18.109375 54.6875 
L 18.109375 46.1875 
Q 21.34375 51.125 25.703125 53.5625 
Q 30.078125 56 35.796875 56 
Q 45.21875 56 50.046875 50.171875 
Q 54.890625 44.34375 54.890625 33.015625 
z
" id="DejaVuSans-110"/>
      </defs>
      <use xlink:href="#DejaVuSans-108"/>
      <use x="27.783203" xlink:href="#DejaVuSans-111"/>
      <use x="88.964844" xlink:href="#DejaVuSans-103"/>
      <use x="152.441406" xlink:href="#DejaVuSans-49"/>
      <use x="216.064453" xlink:href="#DejaVuSans-48"/>
      <use x="279.6875" xlink:href="#DejaVuSans-40"/>
      <use x="318.701172" xlink:href="#DejaVuSans-35"/>
      <use x="402.490234" xlink:href="#DejaVuSans-32"/>
      <use x="434.277344" xlink:href="#DejaVuSans-40"/>
      <use x="473.291016" xlink:href="#DejaVuSans-102"/>
      <use x="508.496094" xlink:href="#DejaVuSans-43"/>
      <use x="592.285156" xlink:href="#DejaVuSans-103"/>
      <use x="655.761719" xlink:href="#DejaVuSans-41"/>
      <use x="694.775391" xlink:href="#DejaVuSans-45"/>
      <use x="730.859375" xlink:href="#DejaVuSans-101"/>
      <use x="792.382812" xlink:href="#DejaVuSans-118"/>
      <use x="851.5625" xlink:href="#DejaVuSans-97"/>
      <use x="912.841797" xlink:href="#DejaVuSans-108"/>
      <use x="940.625" xlink:href="#DejaVuSans-115"/>
      <use x="992.724609" xlink:href="#DejaVuSans-32"/>
      <use x="1024.511719" xlink:href="#DejaVuSans-47"/>
      <use x="1058.203125" xlink:href="#DejaVuSans-32"/>
      <use x="1089.990234" xlink:href="#DejaVuSans-100"/>
      <use x="1153.466797" xlink:href="#DejaVuSans-105"/>
      <use x="1181.25" xlink:href="#DejaVuSans-109"/>
      <use x="1278.662109" xlink:href="#DejaVuSans-101"/>
      <use x="1340.185547" xlink:href="#DejaVuSans-110"/>
      <use x="1403.564453" xlink:href="#DejaVuSans-115"/>
      <use x="1455.664062" xlink:href="#DejaVuSans-105"/>
      <use x="1483.447266" xlink:href="#DejaVuSans-111"/>
      <use x="1544.628906" xlink:href="#DejaVuSans-110"/>
      <use x="1608.007812" xlink:href="#DejaVuSans-41"/>
     </g>
    </g>
   </g>
   <g id="matplotlib.axis_2">
    <g id="ytick_1">
     <g id="line2d_17">
      <path clip-path="url(#p8311e7a3a1)" d="M 57.6 298.944 
L 338.688 298.944 
" style="fill:none;stroke:#b0b0b0;stroke-linecap:square;stroke-width:0.8;"/>
     </g>
     <g id="line2d_18">
      <defs>
       <path d="M 0 0 
L -3.5 0 
" id="ma2aa0ba119" style="stroke:#000000;stroke-width:0.8;"/>
      </defs>
      <g>
       <use style="stroke:#000000;stroke-width:0.8;" x="57.6" xlink:href="#ma2aa0ba119" y="298.944"/>
      </g>
     </g>
     <g id="text_6">
      <!-- 0.0 -->
      <g transform="translate(25.155 305.02275)scale(0.16 -0.16)">
       <defs>
        <path d="M 10.6875 12.40625 
L 21 12.40625 
L 21 0 
L 10.6875 0 
z
" id="DejaVuSans-46"/>
       </defs>
       <use xlink:href="#DejaVuSans-48"/>
       <use x="63.623047" xlink:href="#DejaVuSans-46"/>
       <use x="95.410156" xlink:href="#DejaVuSans-48"/>
      </g>
     </g>
    </g>
    <g id="ytick_2">
     <g id="line2d_19">
      <path clip-path="url(#p8311e7a3a1)" d="M 57.6 245.22202 
L 338.688 245.22202 
" style="fill:none;stroke:#b0b0b0;stroke-linecap:square;stroke-width:0.8;"/>
     </g>
     <g id="line2d_20">
      <g>
       <use style="stroke:#000000;stroke-width:0.8;" x="57.6" xlink:href="#ma2aa0ba119" y="245.22202"/>
      </g>
     </g>
     <g id="text_7">
      <!-- 0.2 -->
      <g transform="translate(25.155 251.30077)scale(0.16 -0.16)">
       <use xlink:href="#DejaVuSans-48"/>
       <use x="63.623047" xlink:href="#DejaVuSans-46"/>
       <use x="95.410156" xlink:href="#DejaVuSans-50"/>
      </g>
     </g>
    </g>
    <g id="ytick_3">
     <g id="line2d_21">
      <path clip-path="url(#p8311e7a3a1)" d="M 57.6 191.50004 
L 338.688 191.50004 
" style="fill:none;stroke:#b0b0b0;stroke-linecap:square;stroke-width:0.8;"/>
     </g>
     <g id="line2d_22">
      <g>
       <use style="stroke:#000000;stroke-width:0.8;" x="57.6" xlink:href="#ma2aa0ba119" y="191.50004"/>
      </g>
     </g>
     <g id="text_8">
      <!-- 0.4 -->
      <g transform="translate(25.155 197.57879)scale(0.16 -0.16)">
       <use xlink:href="#DejaVuSans-48"/>
       <use x="63.623047" xlink:href="#DejaVuSans-46"/>
       <use x="95.410156" xlink:href="#DejaVuSans-52"/>
      </g>
     </g>
    </g>
    <g id="ytick_4">
     <g id="line2d_23">
      <path clip-path="url(#p8311e7a3a1)" d="M 57.6 137.778059 
L 338.688 137.778059 
" style="fill:none;stroke:#b0b0b0;stroke-linecap:square;stroke-width:0.8;"/>
     </g>
     <g id="line2d_24">
      <g>
       <use style="stroke:#000000;stroke-width:0.8;" x="57.6" xlink:href="#ma2aa0ba119" y="137.778059"/>
      </g>
     </g>
     <g id="text_9">
      <!-- 0.6 -->
      <g transform="translate(25.155 143.856809)scale(0.16 -0.16)">
       <use xlink:href="#DejaVuSans-48"/>
       <use x="63.623047" xlink:href="#DejaVuSans-46"/>
       <use x="95.410156" xlink:href="#DejaVuSans-54"/>
      </g>
     </g>
    </g>
    <g id="ytick_5">
     <g id="line2d_25">
      <path clip-path="url(#p8311e7a3a1)" d="M 57.6 84.056079 
L 338.688 84.056079 
" style="fill:none;stroke:#b0b0b0;stroke-linecap:square;stroke-width:0.8;"/>
     </g>
     <g id="line2d_26">
      <g>
       <use style="stroke:#000000;stroke-width:0.8;" x="57.6" xlink:href="#ma2aa0ba119" y="84.056079"/>
      </g>
     </g>
     <g id="text_10">
      <!-- 0.8 -->
      <g transform="translate(25.155 90.134829)scale(0.16 -0.16)">
       <defs>
        <path d="M 31.78125 34.625 
Q 24.75 34.625 20.71875 30.859375 
Q 16.703125 27.09375 16.703125 20.515625 
Q 16.703125 13.921875 20.71875 10.15625 
Q 24.75 6.390625 31.78125 6.390625 
Q 38.8125 6.390625 42.859375 10.171875 
Q 46.921875 13.96875 46.921875 20.515625 
Q 46.921875 27.09375 42.890625 30.859375 
Q 38.875 34.625 31.78125 34.625 
z
M 21.921875 38.8125 
Q 15.578125 40.375 12.03125 44.71875 
Q 8.5 49.078125 8.5 55.328125 
Q 8.5 64.0625 14.71875 69.140625 
Q 20.953125 74.21875 31.78125 74.21875 
Q 42.671875 74.21875 48.875 69.140625 
Q 55.078125 64.0625 55.078125 55.328125 
Q 55.078125 49.078125 51.53125 44.71875 
Q 48 40.375 41.703125 38.8125 
Q 48.828125 37.15625 52.796875 32.3125 
Q 56.78125 27.484375 56.78125 20.515625 
Q 56.78125 9.90625 50.3125 4.234375 
Q 43.84375 -1.421875 31.78125 -1.421875 
Q 19.734375 -1.421875 13.25 4.234375 
Q 6.78125 9.90625 6.78125 20.515625 
Q 6.78125 27.484375 10.78125 32.3125 
Q 14.796875 37.15625 21.921875 38.8125 
z
M 18.3125 54.390625 
Q 18.3125 48.734375 21.84375 45.5625 
Q 25.390625 42.390625 31.78125 42.390625 
Q 38.140625 42.390625 41.71875 45.5625 
Q 45.3125 48.734375 45.3125 54.390625 
Q 45.3125 60.0625 41.71875 63.234375 
Q 38.140625 66.40625 31.78125 66.40625 
Q 25.390625 66.40625 21.84375 63.234375 
Q 18.3125 60.0625 18.3125 54.390625 
z
" id="DejaVuSans-56"/>
       </defs>
       <use xlink:href="#DejaVuSans-48"/>
       <use x="63.623047" xlink:href="#DejaVuSans-46"/>
       <use x="95.410156" xlink:href="#DejaVuSans-56"/>
      </g>
     </g>
    </g>
    <g id="ytick_6">
     <g id="line2d_27">
      <path clip-path="url(#p8311e7a3a1)" d="M 57.6 30.334099 
L 338.688 30.334099 
" style="fill:none;stroke:#b0b0b0;stroke-linecap:square;stroke-width:0.8;"/>
     </g>
     <g id="line2d_28">
      <g>
       <use style="stroke:#000000;stroke-width:0.8;" x="57.6" xlink:href="#ma2aa0ba119" y="30.334099"/>
      </g>
     </g>
     <g id="text_11">
      <!-- 1.0 -->
      <g transform="translate(25.155 36.412849)scale(0.16 -0.16)">
       <use xlink:href="#DejaVuSans-49"/>
       <use x="63.623047" xlink:href="#DejaVuSans-46"/>
       <use x="95.410156" xlink:href="#DejaVuSans-48"/>
      </g>
     </g>
    </g>
    <g id="text_12">
     <!-- Fraction of function,target pairs -->
     <g transform="translate(17.619531 297.681)rotate(-90)scale(0.17 -0.17)">
      <defs>
       <path d="M 9.8125 72.90625 
L 51.703125 72.90625 
L 51.703125 64.59375 
L 19.671875 64.59375 
L 19.671875 43.109375 
L 48.578125 43.109375 
L 48.578125 34.8125 
L 19.671875 34.8125 
L 19.671875 0 
L 9.8125 0 
z
" id="DejaVuSans-70"/>
       <path d="M 41.109375 46.296875 
Q 39.59375 47.171875 37.8125 47.578125 
Q 36.03125 48 33.890625 48 
Q 26.265625 48 22.1875 43.046875 
Q 18.109375 38.09375 18.109375 28.8125 
L 18.109375 0 
L 9.078125 0 
L 9.078125 54.6875 
L 18.109375 54.6875 
L 18.109375 46.1875 
Q 20.953125 51.171875 25.484375 53.578125 
Q 30.03125 56 36.53125 56 
Q 37.453125 56 38.578125 55.875 
Q 39.703125 55.765625 41.0625 55.515625 
z
" id="DejaVuSans-114"/>
       <path d="M 48.78125 52.59375 
L 48.78125 44.1875 
Q 44.96875 46.296875 41.140625 47.34375 
Q 37.3125 48.390625 33.40625 48.390625 
Q 24.65625 48.390625 19.8125 42.84375 
Q 14.984375 37.3125 14.984375 27.296875 
Q 14.984375 17.28125 19.8125 11.734375 
Q 24.65625 6.203125 33.40625 6.203125 
Q 37.3125 6.203125 41.140625 7.25 
Q 44.96875 8.296875 48.78125 10.40625 
L 48.78125 2.09375 
Q 45.015625 0.34375 40.984375 -0.53125 
Q 36.96875 -1.421875 32.421875 -1.421875 
Q 20.0625 -1.421875 12.78125 6.34375 
Q 5.515625 14.109375 5.515625 27.296875 
Q 5.515625 40.671875 12.859375 48.328125 
Q 20.21875 56 33.015625 56 
Q 37.15625 56 41.109375 55.140625 
Q 45.0625 54.296875 48.78125 52.59375 
z
" id="DejaVuSans-99"/>
       <path d="M 18.3125 70.21875 
L 18.3125 54.6875 
L 36.8125 54.6875 
L 36.8125 47.703125 
L 18.3125 47.703125 
L 18.3125 18.015625 
Q 18.3125 11.328125 20.140625 9.421875 
Q 21.96875 7.515625 27.59375 7.515625 
L 36.8125 7.515625 
L 36.8125 0 
L 27.59375 0 
Q 17.1875 0 13.234375 3.875 
Q 9.28125 7.765625 9.28125 18.015625 
L 9.28125 47.703125 
L 2.6875 47.703125 
L 2.6875 54.6875 
L 9.28125 54.6875 
L 9.28125 70.21875 
z
" id="DejaVuSans-116"/>
       <path d="M 8.5 21.578125 
L 8.5 54.6875 
L 17.484375 54.6875 
L 17.484375 21.921875 
Q 17.484375 14.15625 20.5 10.265625 
Q 23.53125 6.390625 29.59375 6.390625 
Q 36.859375 6.390625 41.078125 11.03125 
Q 45.3125 15.671875 45.3125 23.6875 
L 45.3125 54.6875 
L 54.296875 54.6875 
L 54.296875 0 
L 45.3125 0 
L 45.3125 8.40625 
Q 42.046875 3.421875 37.71875 1 
Q 33.40625 -1.421875 27.6875 -1.421875 
Q 18.265625 -1.421875 13.375 4.4375 
Q 8.5 10.296875 8.5 21.578125 
z
M 31.109375 56 
z
" id="DejaVuSans-117"/>
       <path d="M 11.71875 12.40625 
L 22.015625 12.40625 
L 22.015625 4 
L 14.015625 -11.625 
L 7.71875 -11.625 
L 11.71875 4 
z
" id="DejaVuSans-44"/>
       <path d="M 18.109375 8.203125 
L 18.109375 -20.796875 
L 9.078125 -20.796875 
L 9.078125 54.6875 
L 18.109375 54.6875 
L 18.109375 46.390625 
Q 20.953125 51.265625 25.265625 53.625 
Q 29.59375 56 35.59375 56 
Q 45.5625 56 51.78125 48.09375 
Q 58.015625 40.1875 58.015625 27.296875 
Q 58.015625 14.40625 51.78125 6.484375 
Q 45.5625 -1.421875 35.59375 -1.421875 
Q 29.59375 -1.421875 25.265625 0.953125 
Q 20.953125 3.328125 18.109375 8.203125 
z
M 48.6875 27.296875 
Q 48.6875 37.203125 44.609375 42.84375 
Q 40.53125 48.484375 33.40625 48.484375 
Q 26.265625 48.484375 22.1875 42.84375 
Q 18.109375 37.203125 18.109375 27.296875 
Q 18.109375 17.390625 22.1875 11.75 
Q 26.265625 6.109375 33.40625 6.109375 
Q 40.53125 6.109375 44.609375 11.75 
Q 48.6875 17.390625 48.6875 27.296875 
z
" id="DejaVuSans-112"/>
      </defs>
      <use xlink:href="#DejaVuSans-70"/>
      <use x="50.269531" xlink:href="#DejaVuSans-114"/>
      <use x="91.382812" xlink:href="#DejaVuSans-97"/>
      <use x="152.662109" xlink:href="#DejaVuSans-99"/>
      <use x="207.642578" xlink:href="#DejaVuSans-116"/>
      <use x="246.851562" xlink:href="#DejaVuSans-105"/>
      <use x="274.634766" xlink:href="#DejaVuSans-111"/>
      <use x="335.816406" xlink:href="#DejaVuSans-110"/>
      <use x="399.195312" xlink:href="#DejaVuSans-32"/>
      <use x="430.982422" xlink:href="#DejaVuSans-111"/>
      <use x="492.164062" xlink:href="#DejaVuSans-102"/>
      <use x="527.369141" xlink:href="#DejaVuSans-32"/>
      <use x="559.15625" xlink:href="#DejaVuSans-102"/>
      <use x="594.361328" xlink:href="#DejaVuSans-117"/>
      <use x="657.740234" xlink:href="#DejaVuSans-110"/>
      <use x="721.119141" xlink:href="#DejaVuSans-99"/>
      <use x="776.099609" xlink:href="#DejaVuSans-116"/>
      <use x="815.308594" xlink:href="#DejaVuSans-105"/>
      <use x="843.091797" xlink:href="#DejaVuSans-111"/>
      <use x="904.273438" xlink:href="#DejaVuSans-110"/>
      <use x="967.652344" xlink:href="#DejaVuSans-44"/>
      <use x="999.439453" xlink:href="#DejaVuSans-116"/>
      <use x="1038.648438" xlink:href="#DejaVuSans-97"/>
      <use x="1099.927734" xlink:href="#DejaVuSans-114"/>
      <use x="1139.291016" xlink:href="#DejaVuSans-103"/>
      <use x="1202.767578" xlink:href="#DejaVuSans-101"/>
      <use x="1264.291016" xlink:href="#DejaVuSans-116"/>
      <use x="1303.5" xlink:href="#DejaVuSans-32"/>
      <use x="1335.287109" xlink:href="#DejaVuSans-112"/>
      <use x="1398.763672" xlink:href="#DejaVuSans-97"/>
      <use x="1460.042969" xlink:href="#DejaVuSans-105"/>
      <use x="1487.826172" xlink:href="#DejaVuSans-114"/>
      <use x="1528.939453" xlink:href="#DejaVuSans-115"/>
     </g>
    </g>
   </g>
   <g id="line2d_29">
    <defs>
     <path d="M 0 1.5 
C 0.397805 1.5 0.77937 1.341951 1.06066 1.06066 
C 1.341951 0.77937 1.5 0.397805 1.5 0 
C 1.5 -0.397805 1.341951 -0.77937 1.06066 -1.06066 
C 0.77937 -1.341951 0.397805 -1.5 0 -1.5 
C -0.397805 -1.5 -0.77937 -1.341951 -1.06066 -1.06066 
C -1.341951 -0.77937 -1.5 -0.397805 -1.5 0 
C -1.5 0.397805 -1.341951 0.77937 -1.06066 1.06066 
C -0.77937 1.341951 -0.397805 1.5 0 1.5 
z
" id="m6e247daef5" style="stroke:#000080;"/>
    </defs>
    <g>
     <use style="fill:#000080;stroke:#000080;" x="222.95115" xlink:href="#m6e247daef5" y="128.606014"/>
     <use style="fill:#000080;stroke:#000080;" x="222.95115" xlink:href="#m6e247daef5" y="128.606014"/>
    </g>
   </g>
   <g id="line2d_30">
    <path d="M 88.701061 298.944 
L 88.701061 297.633708 
L 89.277618 297.633708 
L 89.277618 295.013123 
L 90.376519 295.013123 
L 90.376519 294.357977 
L 92.854336 294.357977 
L 92.854336 293.702831 
L 93.083804 293.702831 
L 93.083804 293.047685 
L 94.610715 293.047685 
L 94.610715 292.392539 
L 94.818328 292.392539 
L 94.818328 291.082247 
L 95.426737 291.082247 
L 95.426737 286.496224 
L 95.624913 286.496224 
L 95.624913 283.220494 
L 95.820862 283.220494 
L 95.820862 281.255055 
L 96.014634 281.255055 
L 96.014634 279.944763 
L 96.395835 279.944763 
L 96.395835 276.013887 
L 97.313904 276.013887 
L 97.313904 274.703594 
L 98.853664 274.703594 
L 98.853664 273.393302 
L 99.016649 273.393302 
L 99.016649 270.117572 
L 99.178125 270.117572 
L 99.178125 268.807279 
L 99.496659 268.807279 
L 99.496659 268.152133 
L 99.653771 268.152133 
L 99.653771 266.186695 
L 99.80948 266.186695 
L 99.80948 264.221257 
L 100.268435 264.221257 
L 100.268435 262.910965 
L 100.418775 262.910965 
L 100.418775 258.324942 
L 100.567829 258.324942 
L 100.567829 253.083773 
L 101.992235 253.083773 
L 101.992235 249.152896 
L 102.12848 249.152896 
L 102.12848 247.842604 
L 102.66306 247.842604 
L 102.66306 247.187458 
L 102.924327 247.187458 
L 102.924327 243.911728 
L 103.181738 243.911728 
L 103.181738 241.946289 
L 103.309033 241.946289 
L 103.309033 239.980851 
L 103.809118 239.980851 
L 103.809118 238.015413 
L 103.93193 238.015413 
L 103.93193 234.739682 
L 104.651178 234.739682 
L 104.651178 234.084536 
L 104.999975 234.084536 
L 104.999975 229.498513 
L 105.341933 229.498513 
L 105.341933 228.843367 
L 105.454445 228.843367 
L 105.454445 228.188221 
L 105.566235 228.188221 
L 105.677314 226.222783 
L 105.787689 226.222783 
L 105.897371 222.947052 
L 106.006367 222.947052 
L 106.006367 220.326468 
L 106.222336 220.326468 
L 106.222336 217.050738 
L 106.435663 217.050738 
L 106.435663 216.395591 
L 106.957836 216.395591 
L 106.957836 214.430153 
L 107.957496 214.430153 
L 108.054381 212.464715 
L 108.150731 212.464715 
L 108.246551 209.84413 
L 108.624653 209.84413 
L 108.717912 208.533838 
L 108.902946 208.533838 
L 108.902946 207.878692 
L 110.569269 207.878692 
L 110.569269 207.223546 
L 110.818406 207.223546 
L 110.818406 206.5684 
L 111.858671 206.5684 
L 111.858671 205.913254 
L 113.769724 205.913254 
L 113.769724 205.258108 
L 114.182507 205.258108 
L 114.182507 203.947816 
L 114.519183 203.947816 
L 114.519183 203.292669 
L 114.914798 203.292669 
L 114.914798 201.982377 
L 116.232781 201.982377 
L 116.232781 200.016939 
L 117.345058 200.016939 
L 117.40168 198.706647 
L 117.626343 198.706647 
L 117.626343 196.741208 
L 117.903163 196.741208 
L 117.903163 196.086062 
L 118.337133 196.086062 
L 118.337133 195.430916 
L 118.550135 195.430916 
L 118.550135 194.77577 
L 119.173961 194.77577 
L 119.173961 194.120624 
L 121.105591 194.120624 
L 121.105591 193.465478 
L 125.97912 193.465478 
L 125.97912 190.844894 
L 126.490073 190.844894 
L 126.490073 188.224309 
L 127.213389 188.224309 
L 127.213389 187.569163 
L 129.074938 187.569163 
L 129.074938 186.914017 
L 129.700375 186.914017 
L 129.700375 186.258871 
L 129.811719 186.258871 
L 129.811719 185.603725 
L 133.22783 185.603725 
L 133.22783 183.638286 
L 136.785352 183.638286 
L 136.785352 182.98314 
L 137.043853 182.98314 
L 137.043853 182.327994 
L 137.849713 182.327994 
L 137.849713 181.672848 
L 138.736791 181.672848 
L 138.736791 181.017702 
L 139.066311 181.017702 
L 139.066311 179.70741 
L 139.628399 179.70741 
L 139.628399 179.052264 
L 140.937149 179.052264 
L 140.937149 177.741972 
L 142.539878 177.741972 
L 142.539878 177.086825 
L 143.305197 177.086825 
L 143.305197 176.431679 
L 143.797366 176.431679 
L 143.797366 175.776533 
L 148.392421 175.776533 
L 148.392421 175.121387 
L 151.199125 175.121387 
L 151.199125 174.466241 
L 151.489719 174.466241 
L 151.569588 170.535364 
L 151.967429 170.535364 
L 151.967429 169.880218 
L 153.182035 169.880218 
L 153.182035 169.225072 
L 155.744803 169.225072 
L 155.744803 168.569926 
L 156.248622 168.569926 
L 156.248622 167.91478 
L 158.991653 167.91478 
L 159.087709 166.604488 
L 160.312284 166.604488 
L 160.312284 165.949342 
L 160.842337 165.949342 
L 160.842337 165.294196 
L 162.674129 165.294196 
L 162.674129 164.63905 
L 164.193125 164.63905 
L 164.193125 163.983903 
L 164.837904 163.983903 
L 164.837904 163.328757 
L 169.527402 163.328757 
L 169.527402 160.708173 
L 171.874758 160.708173 
L 171.874758 160.053027 
L 172.614946 160.053027 
L 172.704113 158.742735 
L 172.811694 158.742735 
L 172.811694 158.087589 
L 173.462916 158.087589 
L 173.462916 156.12215 
L 174.360216 156.12215 
L 174.360216 155.467004 
L 175.413723 155.467004 
L 175.413723 154.811858 
L 177.039093 154.811858 
L 177.039093 154.156712 
L 177.421464 154.156712 
L 177.421464 153.501566 
L 178.552115 153.501566 
L 178.552115 152.84642 
L 179.416503 152.84642 
L 179.494607 151.536128 
L 180.592876 151.536128 
L 180.592876 150.880981 
L 181.904653 150.880981 
L 181.904653 150.225835 
L 182.316082 150.225835 
L 182.316082 149.570689 
L 184.040919 149.570689 
L 184.040919 148.915543 
L 184.401161 148.915543 
L 184.401161 148.260397 
L 184.562316 148.260397 
L 184.562316 147.605251 
L 184.9497 147.605251 
L 184.9497 146.950105 
L 185.15009 146.950105 
L 185.15009 146.294959 
L 185.783237 146.294959 
L 185.783237 145.639813 
L 185.928832 145.639813 
L 185.928832 144.984667 
L 186.077629 144.984667 
L 186.077629 144.32952 
L 186.526216 144.32952 
L 186.526216 143.674374 
L 187.451386 143.674374 
L 187.451386 143.019228 
L 188.351223 143.019228 
L 188.351223 142.364082 
L 190.714147 142.364082 
L 190.714147 141.708936 
L 191.584604 141.708936 
L 191.584604 141.05379 
L 193.274145 141.05379 
L 193.274145 140.398644 
L 194.118829 140.398644 
L 194.170504 139.088352 
L 194.483503 139.088352 
L 194.483503 138.433206 
L 197.385866 138.433206 
L 197.385866 137.778059 
L 198.256537 137.778059 
L 198.256537 137.122913 
L 198.7399 137.122913 
L 198.768124 135.812621 
L 198.873954 135.812621 
L 198.873954 135.157475 
L 203.944784 135.157475 
L 203.955853 133.847183 
L 206.585602 133.847183 
L 206.585602 133.192037 
L 206.891166 133.192037 
L 206.891166 132.536891 
L 207.00252 132.536891 
L 207.00252 131.881745 
L 207.586132 131.881745 
L 207.586132 131.226598 
L 208.411114 131.226598 
L 208.411114 130.571452 
L 215.74913 130.571452 
L 215.74913 129.916306 
L 219.099631 129.916306 
L 219.099631 129.26116 
L 222.95115 129.26116 
L 222.95115 128.606014 
L 338.688 128.606014 
L 338.688 128.606014 
" style="fill:none;stroke:#000080;stroke-linecap:square;stroke-width:1.5;"/>
   </g>
   <g id="line2d_31">
    <defs>
     <path d="M 0 6 
C 1.591219 6 3.117479 5.367802 4.242641 4.242641 
C 5.367802 3.117479 6 1.591219 6 0 
C 6 -1.591219 5.367802 -3.117479 4.242641 -4.242641 
C 3.117479 -5.367802 1.591219 -6 0 -6 
C -1.591219 -6 -3.117479 -5.367802 -4.242641 -4.242641 
C -5.367802 -3.117479 -6 -1.591219 -6 0 
C -6 1.591219 -5.367802 3.117479 -4.242641 4.242641 
C -3.117479 5.367802 -1.591219 6 0 6 
z
" id="mba96e44ed6" style="stroke:#000080;stroke-width:1.5;"/>
    </defs>
    <g>
     <use style="fill-opacity:0;stroke:#000080;stroke-width:1.5;" x="103.93193" xlink:href="#mba96e44ed6" y="238.015413"/>
     <use style="fill-opacity:0;stroke:#000080;stroke-width:1.5;" x="169.527402" xlink:href="#mba96e44ed6" y="160.708173"/>
     <use style="fill-opacity:0;stroke:#000080;stroke-width:1.5;" x="222.95115" xlink:href="#mba96e44ed6" y="129.26116"/>
     <use style="fill-opacity:0;stroke:#000080;stroke-width:1.5;" x="222.95115" xlink:href="#mba96e44ed6" y="128.606014"/>
     <use style="fill-opacity:0;stroke:#000080;stroke-width:1.5;" x="338.688" xlink:href="#mba96e44ed6" y="128.606014"/>
    </g>
   </g>
   <g id="line2d_32">
    <path style="fill:none;stroke:#000080;stroke-linecap:square;stroke-width:1.5;"/>
    <g/>
   </g>
   <g id="line2d_33">
    <path clip-path="url(#p8311e7a3a1)" d="M 142.127135 177.741972 
" style="fill:none;stroke:#000080;stroke-linecap:square;stroke-width:1.5;"/>
    <defs>
     <path d="M -12 12 
L 12 -12 
M -12 -12 
L 12 12 
" id="m2c2698dfd6" style="stroke:#000080;"/>
    </defs>
    <g clip-path="url(#p8311e7a3a1)">
     <use style="fill:#000080;stroke:#000080;" x="142.127135" xlink:href="#m2c2698dfd6" y="177.741972"/>
    </g>
   </g>
   <g id="line2d_34">
    <defs>
     <path d="M 0 1.5 
C 0.397805 1.5 0.77937 1.341951 1.06066 1.06066 
C 1.341951 0.77937 1.5 0.397805 1.5 0 
C 1.5 -0.397805 1.341951 -0.77937 1.06066 -1.06066 
C 0.77937 -1.341951 0.397805 -1.5 0 -1.5 
C -0.397805 -1.5 -0.77937 -1.341951 -1.06066 -1.06066 
C -1.341951 -0.77937 -1.5 -0.397805 -1.5 0 
C -1.5 0.397805 -1.341951 0.77937 -1.06066 1.06066 
C -0.77937 1.341951 -0.397805 1.5 0 1.5 
z
" id="m7c555d979c" style="stroke:#ff00ff;"/>
    </defs>
    <g>
     <use style="fill:#ff00ff;stroke:#ff00ff;" x="270.404792" xlink:href="#m7c555d979c" y="30.334099"/>
     <use style="fill:#ff00ff;stroke:#ff00ff;" x="270.404792" xlink:href="#m7c555d979c" y="30.334099"/>
    </g>
   </g>
   <g id="line2d_35">
    <path d="M 115.141496 298.944 
L 115.141496 298.288854 
L 118.681952 298.288854 
L 118.681952 297.633708 
L 120.286695 297.633708 
L 120.286695 296.978562 
L 121.974949 296.978562 
L 121.974949 296.323416 
L 122.615387 296.323416 
L 122.615387 295.66827 
L 126.904721 295.66827 
L 126.904721 295.013123 
L 127.642832 295.013123 
L 127.642832 294.357977 
L 127.76807 294.357977 
L 127.799239 293.047685 
L 128.168991 293.047685 
L 128.168991 292.392539 
L 128.885774 292.392539 
L 128.885774 291.737393 
L 131.465029 291.737393 
L 131.465029 291.082247 
L 132.060454 291.082247 
L 132.060454 290.427101 
L 132.374684 290.427101 
L 132.374684 289.771955 
L 133.443203 289.771955 
L 133.443203 289.116809 
L 134.149701 289.116809 
L 134.149701 288.461662 
L 135.138086 288.461662 
L 135.138086 287.806516 
L 135.401861 287.806516 
L 135.401861 287.15137 
L 135.800036 287.15137 
L 135.800036 286.496224 
L 136.361705 286.496224 
L 136.361705 285.841078 
L 136.757427 285.841078 
L 136.757427 285.185932 
L 137.016339 285.185932 
L 137.126135 283.87564 
L 137.235245 283.87564 
L 137.235245 283.220494 
L 137.433523 283.220494 
L 137.505069 281.255055 
L 137.70032 281.255055 
L 137.70032 280.599909 
L 138.153314 280.599909 
L 138.153314 279.289617 
L 138.811478 279.289617 
L 138.877599 277.324179 
L 139.02546 277.324179 
L 139.02546 276.669033 
L 139.155847 276.669033 
L 139.155847 276.013887 
L 139.349619 276.013887 
L 139.445704 274.703594 
L 140.11924 274.703594 
L 140.11924 273.393302 
L 140.559227 273.393302 
L 140.559227 272.738156 
L 141.032186 272.738156 
L 141.119455 271.427864 
L 142.147664 271.427864 
L 142.147664 270.772718 
L 142.311031 270.772718 
L 142.392144 269.462426 
L 142.659828 269.462426 
L 142.659828 268.807279 
L 143.741281 268.807279 
L 143.741281 268.152133 
L 144.77134 268.152133 
L 144.77134 267.496987 
L 145.109299 267.496987 
L 145.143889 266.186695 
L 145.338615 266.186695 
L 145.372754 263.566111 
L 146.161795 263.566111 
L 146.161795 262.910965 
L 146.791364 262.910965 
L 146.791364 262.255818 
L 147.570215 262.255818 
L 147.570215 261.600672 
L 147.917524 261.600672 
L 148.025265 260.29038 
L 148.78943 260.29038 
L 148.78943 259.635234 
L 149.673197 259.635234 
L 149.673197 258.980088 
L 149.805951 258.980088 
L 149.805951 258.324942 
L 150.016276 258.324942 
L 150.016276 257.669796 
L 150.38688 257.669796 
L 150.437972 256.359504 
L 150.573489 256.359504 
L 150.682827 255.049211 
L 151.006785 255.049211 
L 151.006785 254.394065 
L 151.178764 254.394065 
L 151.219462 253.083773 
L 151.60541 253.083773 
L 151.60541 252.428627 
L 151.84236 252.428627 
L 151.84236 251.773481 
L 152.045145 251.773481 
L 152.045145 251.118335 
L 152.936949 251.118335 
L 153.01047 249.808043 
L 153.120174 249.808043 
L 153.120174 249.152896 
L 153.952977 249.152896 
L 154.022346 247.842604 
L 154.221969 247.842604 
L 154.221969 247.187458 
L 154.57429 247.187458 
L 154.57429 246.532312 
L 155.996986 246.532312 
L 156.077167 245.22202 
L 157.534482 245.22202 
L 157.60791 243.911728 
L 157.697862 243.911728 
L 157.697862 243.256582 
L 157.820792 243.256582 
L 157.820792 241.946289 
L 158.009087 241.946289 
L 158.042106 240.635997 
L 158.465753 240.635997 
L 158.481843 239.325705 
L 158.673779 239.325705 
L 158.673779 238.670559 
L 158.879352 238.670559 
L 158.879352 238.015413 
L 159.283369 238.015413 
L 159.283369 237.360267 
L 159.703247 237.360267 
L 159.703247 236.705121 
L 160.000599 236.705121 
L 160.039866 235.394828 
L 160.379729 235.394828 
L 160.48519 234.084536 
L 160.750792 234.084536 
L 160.750792 232.119098 
L 160.979921 232.119098 
L 161.026314 230.808806 
L 161.164758 230.808806 
L 161.164758 230.15366 
L 162.056289 230.15366 
L 162.056289 229.498513 
L 162.256044 229.498513 
L 162.256044 228.843367 
L 162.462072 228.843367 
L 162.462072 228.188221 
L 162.821048 228.188221 
L 162.821048 227.533075 
L 163.319642 227.533075 
L 163.319642 226.877929 
L 163.717238 226.877929 
L 163.725178 225.567637 
L 164.22208 225.567637 
L 164.22208 224.912491 
L 164.482429 224.912491 
L 164.531763 223.602199 
L 164.891812 223.602199 
L 164.891812 222.947052 
L 166.24825 222.947052 
L 166.354389 220.981614 
L 166.595075 220.981614 
L 166.595075 220.326468 
L 166.878918 220.326468 
L 166.878918 219.671322 
L 167.141909 219.671322 
L 167.141909 219.016176 
L 167.346259 219.016176 
L 167.346259 218.36103 
L 167.656285 218.36103 
L 167.738456 217.050738 
L 167.860992 217.050738 
L 167.860992 216.395591 
L 169.108373 216.395591 
L 169.108373 215.740445 
L 169.417501 215.740445 
L 169.417501 215.085299 
L 169.543046 215.085299 
L 169.543046 214.430153 
L 169.972696 214.430153 
L 169.972696 213.775007 
L 170.236975 213.775007 
L 170.236975 213.119861 
L 170.748506 213.119861 
L 170.748506 212.464715 
L 171.097855 212.464715 
L 171.097855 211.809569 
L 172.088588 211.809569 
L 172.088588 211.154423 
L 172.344676 211.154423 
L 172.344676 210.499277 
L 173.04234 210.499277 
L 173.04234 209.84413 
L 173.528644 209.84413 
L 173.528644 209.188984 
L 173.849174 209.188984 
L 173.944417 207.878692 
L 174.867186 207.878692 
L 174.867186 207.223546 
L 175.683698 207.223546 
L 175.683698 206.5684 
L 175.838945 206.5684 
L 175.838945 205.913254 
L 175.979068 205.913254 
L 175.979068 205.258108 
L 176.43307 205.258108 
L 176.43307 204.602962 
L 177.033543 204.602962 
L 177.109241 203.292669 
L 177.664067 203.292669 
L 177.664067 202.637523 
L 178.397946 202.637523 
L 178.461141 201.327231 
L 178.966907 201.327231 
L 178.966907 200.672085 
L 179.872104 200.672085 
L 179.872104 200.016939 
L 180.199217 200.016939 
L 180.293096 198.051501 
L 180.328363 198.051501 
L 180.328363 197.396355 
L 180.846003 197.396355 
L 180.846003 196.741208 
L 181.035305 196.741208 
L 181.092577 195.430916 
L 183.206636 195.430916 
L 183.206636 194.77577 
L 183.406785 194.77577 
L 183.50792 193.465478 
L 183.987601 193.465478 
L 183.987601 192.810332 
L 184.991369 192.810332 
L 184.991369 192.155186 
L 185.110545 192.155186 
L 185.110545 191.50004 
L 185.45413 191.50004 
L 185.483789 190.189747 
L 186.327 190.189747 
L 186.327 189.534601 
L 186.616701 189.534601 
L 186.616701 188.879455 
L 187.754685 188.879455 
L 187.754685 188.224309 
L 188.854907 188.224309 
L 188.854907 187.569163 
L 189.112277 187.569163 
L 189.112277 186.914017 
L 189.26618 186.914017 
L 189.26618 186.258871 
L 189.481381 186.258871 
L 189.481381 185.603725 
L 190.069488 185.603725 
L 190.069488 184.948579 
L 190.281119 184.948579 
L 190.319165 183.638286 
L 190.453394 183.638286 
L 190.453394 182.98314 
L 191.213986 182.98314 
L 191.213986 182.327994 
L 191.802934 182.327994 
L 191.802934 181.672848 
L 191.943574 181.672848 
L 191.943574 181.017702 
L 192.279488 181.017702 
L 192.279488 180.362556 
L 193.458367 180.362556 
L 193.458367 179.70741 
L 194.19784 179.70741 
L 194.19784 179.052264 
L 195.406604 179.052264 
L 195.406604 178.397118 
L 196.206731 178.397118 
L 196.206731 177.741972 
L 196.35218 177.741972 
L 196.448476 176.431679 
L 196.478838 176.431679 
L 196.478838 175.776533 
L 197.122682 175.776533 
L 197.122682 175.121387 
L 197.358485 175.121387 
L 197.467751 173.811095 
L 197.528985 173.811095 
L 197.528985 173.155949 
L 198.594869 173.155949 
L 198.594869 172.500803 
L 199.062008 172.500803 
L 199.062008 171.845657 
L 199.705555 171.845657 
L 199.705555 171.190511 
L 200.12652 171.190511 
L 200.12652 170.535364 
L 200.643485 170.535364 
L 200.643485 169.880218 
L 200.820342 169.880218 
L 200.857199 168.569926 
L 201.125126 168.569926 
L 201.125126 167.91478 
L 201.767617 167.91478 
L 201.835582 166.604488 
L 202.072716 166.604488 
L 202.164923 165.294196 
L 202.433479 165.294196 
L 202.433479 164.63905 
L 202.769172 164.63905 
L 202.769172 163.983903 
L 203.292946 163.983903 
L 203.292946 163.328757 
L 204.291275 163.328757 
L 204.291275 162.673611 
L 205.307363 162.673611 
L 205.307363 162.018465 
L 205.729009 162.018465 
L 205.729009 161.363319 
L 205.963739 161.363319 
L 205.963739 160.708173 
L 206.367237 160.708173 
L 206.378246 159.397881 
L 206.545281 159.397881 
L 206.617011 157.432442 
L 207.29179 157.432442 
L 207.379365 156.12215 
L 207.471349 156.12215 
L 207.551921 154.811858 
L 207.895461 154.811858 
L 207.895461 154.156712 
L 208.015795 154.156712 
L 208.015795 153.501566 
L 208.127527 153.501566 
L 208.127527 152.84642 
L 208.368209 152.84642 
L 208.368209 152.191274 
L 208.513353 152.191274 
L 208.513353 151.536128 
L 208.929793 151.536128 
L 208.958589 150.225835 
L 209.552013 150.225835 
L 209.552013 149.570689 
L 209.946325 149.570689 
L 209.946325 148.915543 
L 210.074229 148.915543 
L 210.143375 146.950105 
L 210.9164 146.950105 
L 210.9164 146.294959 
L 211.184755 146.294959 
L 211.184755 145.639813 
L 211.394183 145.639813 
L 211.394183 144.984667 
L 211.520385 144.984667 
L 211.520385 144.32952 
L 212.064228 144.32952 
L 212.064228 143.674374 
L 212.616413 143.674374 
L 212.616413 143.019228 
L 213.384487 143.019228 
L 213.424715 141.708936 
L 213.515633 141.708936 
L 213.515633 141.05379 
L 213.89588 141.05379 
L 213.89588 140.398644 
L 214.361831 140.398644 
L 214.361831 139.743498 
L 214.71722 139.743498 
L 214.71722 139.088352 
L 214.860967 139.088352 
L 214.915859 137.778059 
L 215.004797 137.778059 
L 215.004797 137.122913 
L 215.125596 137.122913 
L 215.125596 136.467767 
L 216.494211 136.467767 
L 216.494211 135.812621 
L 216.742939 135.812621 
L 216.742939 135.157475 
L 216.89019 135.157475 
L 216.89019 134.502329 
L 217.139312 134.502329 
L 217.139312 133.847183 
L 217.726627 133.847183 
L 217.726627 133.192037 
L 217.981321 133.192037 
L 218.073023 131.881745 
L 218.152693 131.881745 
L 218.152693 131.226598 
L 218.432842 131.226598 
L 218.432842 130.571452 
L 218.734997 130.571452 
L 218.734997 129.916306 
L 218.997012 129.916306 
L 218.997012 129.26116 
L 219.651481 129.26116 
L 219.73099 127.295722 
L 219.80759 127.295722 
L 219.906195 125.98543 
L 220.060992 125.98543 
L 220.060992 125.330284 
L 220.179546 125.330284 
L 220.246754 124.019991 
L 220.324373 124.019991 
L 220.360045 122.709699 
L 220.882066 122.709699 
L 220.882066 122.054553 
L 221.36228 122.054553 
L 221.36228 121.399407 
L 221.612025 121.399407 
L 221.675945 120.089115 
L 221.793995 120.089115 
L 221.821681 118.778823 
L 221.985333 118.778823 
L 221.985333 118.123676 
L 222.159713 118.123676 
L 222.24203 116.158238 
L 222.73911 116.158238 
L 222.73911 115.503092 
L 223.060505 115.503092 
L 223.060505 114.847946 
L 223.251583 114.847946 
L 223.251583 114.1928 
L 223.400205 114.1928 
L 223.422351 112.227362 
L 223.679552 112.227362 
L 223.727565 110.917069 
L 224.189537 110.917069 
L 224.189537 110.261923 
L 224.543487 110.261923 
L 224.543487 109.606777 
L 224.694899 109.606777 
L 224.801534 107.641339 
L 224.911562 107.641339 
L 224.911562 106.986193 
L 225.275868 106.986193 
L 225.329318 104.365608 
L 225.49421 104.365608 
L 225.49421 103.710462 
L 225.656989 103.710462 
L 225.691454 102.40017 
L 226.189269 102.40017 
L 226.189269 101.745024 
L 226.77213 101.745024 
L 226.819274 99.779586 
L 226.950013 99.779586 
L 226.950013 99.12444 
L 227.09677 99.12444 
L 227.179186 97.159001 
L 227.5495 97.159001 
L 227.642819 95.848709 
L 227.669216 95.848709 
L 227.669216 95.193563 
L 227.791542 95.193563 
L 227.897402 93.883271 
L 228.165881 93.883271 
L 228.165881 93.228125 
L 228.396849 93.228125 
L 228.396849 92.572979 
L 228.573436 92.572979 
L 228.578829 91.262686 
L 229.098511 91.262686 
L 229.098511 90.60754 
L 229.358737 90.60754 
L 229.455249 89.297248 
L 229.857533 89.297248 
L 229.92755 87.986956 
L 230.138835 87.986956 
L 230.138835 87.33181 
L 230.658124 87.33181 
L 230.658124 86.676664 
L 230.965826 86.676664 
L 231.055617 84.711225 
L 231.108838 84.711225 
L 231.108838 84.056079 
L 231.240357 84.056079 
L 231.280156 82.745787 
L 231.398602 82.745787 
L 231.502899 81.435495 
L 231.605362 81.435495 
L 231.678713 80.125203 
L 231.851255 80.125203 
L 231.852931 78.81491 
L 232.661769 78.81491 
L 232.661769 78.159764 
L 233.255761 78.159764 
L 233.360827 76.849472 
L 233.409219 76.849472 
L 233.409219 76.194326 
L 233.732361 76.194326 
L 233.745183 74.884034 
L 233.959959 74.884034 
L 234.018918 72.918596 
L 234.132319 72.918596 
L 234.132319 72.263449 
L 234.252084 72.263449 
L 234.252084 71.608303 
L 234.370686 71.608303 
L 234.46844 70.298011 
L 234.642197 70.298011 
L 234.642197 69.642865 
L 234.867229 69.642865 
L 234.867229 68.987719 
L 235.022709 68.987719 
L 235.022709 68.332573 
L 235.457194 68.332573 
L 235.457194 67.677427 
L 236.103262 67.677427 
L 236.193349 66.367135 
L 236.466245 66.367135 
L 236.466245 65.711988 
L 242.360069 65.711988 
L 242.360069 65.056842 
L 242.509987 65.056842 
L 242.509987 64.401696 
L 242.877159 64.401696 
L 242.923078 63.091404 
L 243.24266 63.091404 
L 243.24266 62.436258 
L 244.0429 62.436258 
L 244.0429 61.781112 
L 244.427854 61.781112 
L 244.427854 61.125966 
L 244.627878 61.125966 
L 244.709289 58.505381 
L 244.855537 58.505381 
L 244.914019 56.539943 
L 245.309029 56.539943 
L 245.406491 54.574505 
L 245.54845 54.574505 
L 245.65128 53.264213 
L 245.661082 53.264213 
L 245.661082 52.609066 
L 245.948717 52.609066 
L 245.948717 51.95392 
L 246.360092 51.95392 
L 246.360092 51.298774 
L 246.891483 51.298774 
L 246.891483 50.643628 
L 247.329589 50.643628 
L 247.392956 48.67819 
L 247.789855 48.67819 
L 247.789855 48.023044 
L 252.580365 48.023044 
L 252.580365 47.367898 
L 253.283599 47.367898 
L 253.283599 46.712752 
L 253.436739 46.712752 
L 253.436739 46.057605 
L 253.73374 46.057605 
L 253.742864 44.747313 
L 254.162097 44.747313 
L 254.172553 43.437021 
L 254.65517 43.437021 
L 254.65517 42.781875 
L 254.871135 42.781875 
L 254.871135 42.126729 
L 255.243537 42.126729 
L 255.243537 41.471583 
L 258.396525 41.471583 
L 258.396525 40.816437 
L 258.775766 40.816437 
L 258.775766 40.161291 
L 259.302489 40.161291 
L 259.302489 39.506144 
L 259.56687 39.506144 
L 259.595141 38.195852 
L 259.769902 38.195852 
L 259.769902 37.540706 
L 259.966792 37.540706 
L 259.966792 36.88556 
L 263.042155 36.88556 
L 263.082707 35.575268 
L 263.619107 35.575268 
L 263.620786 34.264976 
L 264.031577 34.264976 
L 264.031577 33.60983 
L 266.972114 33.60983 
L 267.032616 32.299537 
L 267.234472 32.299537 
L 267.234472 31.644391 
L 269.534522 31.644391 
L 269.534522 30.989245 
L 270.404792 30.989245 
L 270.404792 30.334099 
L 338.688 30.334099 
L 338.688 30.334099 
" style="fill:none;stroke:#ff00ff;stroke-linecap:square;stroke-width:1.5;"/>
   </g>
   <g id="line2d_36">
    <defs>
     <path d="M -0 8.485281 
L 5.091169 0 
L 0 -8.485281 
L -5.091169 -0 
z
" id="m10ffa4f1ec" style="stroke:#ff00ff;stroke-linejoin:miter;stroke-width:1.5;"/>
    </defs>
    <g>
     <use style="fill-opacity:0;stroke:#ff00ff;stroke-linejoin:miter;stroke-width:1.5;" x="145.143889" xlink:href="#m10ffa4f1ec" y="266.186695"/>
     <use style="fill-opacity:0;stroke:#ff00ff;stroke-linejoin:miter;stroke-width:1.5;" x="211.520385" xlink:href="#m10ffa4f1ec" y="144.32952"/>
     <use style="fill-opacity:0;stroke:#ff00ff;stroke-linejoin:miter;stroke-width:1.5;" x="236.466245" xlink:href="#m10ffa4f1ec" y="65.711988"/>
     <use style="fill-opacity:0;stroke:#ff00ff;stroke-linejoin:miter;stroke-width:1.5;" x="270.404792" xlink:href="#m10ffa4f1ec" y="30.334099"/>
     <use style="fill-opacity:0;stroke:#ff00ff;stroke-linejoin:miter;stroke-width:1.5;" x="338.688" xlink:href="#m10ffa4f1ec" y="30.334099"/>
    </g>
   </g>
   <g id="line2d_37">
    <path style="fill:none;stroke:#ff00ff;stroke-linecap:square;stroke-width:1.5;"/>
    <g/>
   </g>
   <g id="line2d_38">
    <path clip-path="url(#p8311e7a3a1)" d="M 236.553628 65.711988 
" style="fill:none;stroke:#ff00ff;stroke-linecap:square;stroke-width:1.5;"/>
    <defs>
     <path d="M -12 12 
L 12 -12 
M -12 -12 
L 12 12 
" id="m80a9733428" style="stroke:#ff00ff;"/>
    </defs>
    <g clip-path="url(#p8311e7a3a1)">
     <use style="fill:#ff00ff;stroke:#ff00ff;" x="236.553628" xlink:href="#m80a9733428" y="65.711988"/>
    </g>
   </g>
   <g id="line2d_39">
    <path clip-path="url(#p8311e7a3a1)" d="M 57.6 298.944 
L 57.6 298.944 
L 57.6 298.944 
L 57.6 298.944 
L 338.688 298.944 
" style="fill:none;stroke:#ff7500;stroke-linecap:square;stroke-width:1.5;"/>
   </g>
   <g id="line2d_40">
    <defs>
     <path d="M 0 -6 
L -1.347084 -1.854102 
L -5.706339 -1.854102 
L -2.179628 0.708204 
L -3.526712 4.854102 
L -0 2.291796 
L 3.526712 4.854102 
L 2.179628 0.708204 
L 5.706339 -1.854102 
L 1.347084 -1.854102 
z
" id="mf107679306" style="stroke:#ff7500;stroke-linejoin:bevel;stroke-width:1.5;"/>
    </defs>
    <g clip-path="url(#p8311e7a3a1)">
     <use style="fill-opacity:0;stroke:#ff7500;stroke-linejoin:bevel;stroke-width:1.5;" x="57.6" xlink:href="#mf107679306" y="298.944"/>
    </g>
   </g>
   <g id="line2d_41">
    <path clip-path="url(#p8311e7a3a1)" style="fill:none;stroke:#ff7500;stroke-linecap:square;stroke-width:1.5;"/>
    <g clip-path="url(#p8311e7a3a1)">
     <use style="fill-opacity:0;stroke:#ff7500;stroke-linejoin:bevel;stroke-width:1.5;" x="-1" xlink:href="#mf107679306" y="567.553901"/>
     <use style="fill-opacity:0;stroke:#ff7500;stroke-linejoin:bevel;stroke-width:1.5;" x="338.688" xlink:href="#mf107679306" y="567.553901"/>
    </g>
   </g>
   <g id="line2d_42">
    <defs>
     <path d="M 0 1.5 
C 0.397805 1.5 0.77937 1.341951 1.06066 1.06066 
C 1.341951 0.77937 1.5 0.397805 1.5 0 
C 1.5 -0.397805 1.341951 -0.77937 1.06066 -1.06066 
C 0.77937 -1.341951 0.397805 -1.5 0 -1.5 
C -0.397805 -1.5 -0.77937 -1.341951 -1.06066 -1.06066 
C -1.341951 -0.77937 -1.5 -0.397805 -1.5 0 
C -1.5 0.397805 -1.341951 0.77937 -1.06066 1.06066 
C -0.77937 1.341951 -0.397805 1.5 0 1.5 
z
" id="me6ed7e3406" style="stroke:#6495ed;"/>
    </defs>
    <g>
     <use style="fill:#6495ed;stroke:#6495ed;" x="181.120411" xlink:href="#me6ed7e3406" y="30.334099"/>
     <use style="fill:#6495ed;stroke:#6495ed;" x="181.120411" xlink:href="#me6ed7e3406" y="30.334099"/>
    </g>
   </g>
   <g id="line2d_43">
    <path d="M 99.41757 298.944 
L 99.41757 298.288854 
L 102.530943 298.288854 
L 102.530943 295.66827 
L 105.057436 295.66827 
L 105.057436 293.702831 
L 105.171792 293.702831 
L 105.171792 293.047685 
L 107.364602 293.047685 
L 107.464828 287.806516 
L 107.564481 287.806516 
L 107.564481 285.185932 
L 109.401893 285.185932 
L 109.491096 282.565348 
L 109.668146 282.565348 
L 109.756002 280.599909 
L 111.30625 280.599909 
L 111.386247 276.669033 
L 111.465878 276.669033 
L 111.545148 271.427864 
L 111.702614 271.427864 
L 111.702614 270.772718 
L 112.877038 270.772718 
L 112.950158 269.462426 
L 113.167699 269.462426 
L 113.167699 266.841841 
L 113.311233 266.841841 
L 113.311233 266.186695 
L 114.452366 266.186695 
L 114.452366 264.876403 
L 114.652055 264.876403 
L 114.718113 258.324942 
L 114.849483 258.324942 
L 114.849483 257.669796 
L 115.10929 257.669796 
L 115.10929 255.704357 
L 115.773423 255.704357 
L 115.835374 251.773481 
L 115.897107 251.773481 
L 115.897107 251.118335 
L 116.019919 251.118335 
L 116.019919 248.49775 
L 116.262979 248.49775 
L 116.262979 247.842604 
L 116.443076 247.842604 
L 116.443076 245.877166 
L 117.174084 245.877166 
L 117.174084 245.22202 
L 117.288253 245.22202 
L 117.345058 239.980851 
L 118.363901 239.980851 
L 118.470564 236.049974 
L 118.523652 236.049974 
L 118.629344 227.533075 
L 118.786692 227.533075 
L 118.786692 226.877929 
L 118.942633 226.877929 
L 118.942633 222.947052 
L 119.577783 222.947052 
L 119.62761 219.671322 
L 119.825504 219.671322 
L 119.825504 219.016176 
L 120.214681 219.016176 
L 120.214681 218.36103 
L 120.618882 218.36103 
L 120.712642 214.430153 
L 120.736003 214.430153 
L 120.8059 211.809569 
L 120.898662 211.809569 
L 120.944859 209.188984 
L 121.264855 209.188984 
L 121.264855 208.533838 
L 121.53454 208.533838 
L 121.601315 204.602962 
L 121.645689 204.602962 
L 121.734102 201.327231 
L 121.822068 201.327231 
L 121.909593 198.051501 
L 121.953191 198.051501 
L 122.018385 196.741208 
L 122.255364 196.741208 
L 122.255364 195.430916 
L 122.468041 195.430916 
L 122.468041 194.77577 
L 122.594413 194.77577 
L 122.594413 194.120624 
L 122.740699 194.120624 
L 122.823744 189.534601 
L 122.865118 189.534601 
L 122.865118 188.224309 
L 122.988655 188.224309 
L 122.988655 186.258871 
L 123.111324 186.258871 
L 123.111324 184.293433 
L 123.354102 184.293433 
L 123.354102 182.327994 
L 123.533993 182.327994 
L 123.613353 178.397118 
L 123.652898 178.397118 
L 123.731719 174.466241 
L 123.849288 174.466241 
L 123.849288 172.500803 
L 123.966069 172.500803 
L 124.004823 168.569926 
L 124.273716 168.569926 
L 124.368753 162.673611 
L 124.519744 162.673611 
L 124.557288 160.053027 
L 124.669438 160.053027 
L 124.669438 155.467004 
L 124.780872 155.467004 
L 124.836322 151.536128 
L 125.309651 151.536128 
L 125.345535 148.260397 
L 125.452744 148.260397 
L 125.559298 144.32952 
L 125.665205 144.32952 
L 125.665205 143.674374 
L 125.927192 143.674374 
L 125.927192 141.05379 
L 126.099688 141.05379 
L 126.116845 135.812621 
L 126.25349 135.812621 
L 126.304457 133.847183 
L 126.372183 133.847183 
L 126.372183 133.192037 
L 126.673734 133.192037 
L 126.673734 129.916306 
L 126.78961 129.916306 
L 126.839037 120.744261 
L 127.213389 120.744261 
L 127.213389 119.433969 
L 127.341738 119.433969 
L 127.373678 116.813384 
L 127.48501 116.813384 
L 127.595635 114.847946 
L 127.674226 114.847946 
L 127.674226 114.1928 
L 128.015879 114.1928 
L 128.015879 112.882508 
L 128.560901 112.882508 
L 128.560901 112.227362 
L 128.958773 112.227362 
L 128.973336 110.261923 
L 129.089405 110.261923 
L 129.118302 106.331047 
L 129.204706 106.331047 
L 129.204706 105.675901 
L 129.546106 105.675901 
L 129.546106 104.365608 
L 130.14155 104.365608 
L 130.14155 103.710462 
L 130.45189 103.710462 
L 130.45189 100.434732 
L 131.030622 100.434732 
L 131.030622 99.12444 
L 132.036046 99.12444 
L 132.109167 95.193563 
L 132.624415 95.193563 
L 132.624415 93.883271 
L 133.910056 93.883271 
L 133.910056 91.917832 
L 136.664018 91.917832 
L 136.664018 91.262686 
L 139.36567 91.262686 
L 139.36567 89.952394 
L 139.628399 89.952394 
L 139.628399 89.297248 
L 140.234098 89.297248 
L 140.234098 88.642102 
L 140.574203 88.642102 
L 140.574203 86.676664 
L 141.54229 86.676664 
L 141.54229 85.366371 
L 141.844124 85.366371 
L 141.844124 82.090641 
L 142.140824 82.090641 
L 142.140824 80.780349 
L 142.44601 80.780349 
L 142.44601 78.81491 
L 143.305197 78.81491 
L 143.305197 78.159764 
L 143.590833 78.159764 
L 143.590833 77.504618 
L 143.871866 77.504618 
L 143.871866 76.849472 
L 144.528424 76.849472 
L 144.528424 76.194326 
L 144.724207 76.194326 
L 144.724207 74.884034 
L 145.704941 74.884034 
L 145.704941 71.608303 
L 146.188938 71.608303 
L 146.188938 70.953157 
L 146.420639 70.953157 
L 146.420639 68.332573 
L 146.649302 68.332573 
L 146.649302 67.677427 
L 146.875005 67.677427 
L 146.875005 67.022281 
L 147.097825 67.022281 
L 147.097825 65.711988 
L 147.317833 65.711988 
L 147.317833 64.401696 
L 148.45922 64.401696 
L 148.45922 63.091404 
L 148.662803 63.091404 
L 148.662803 59.160527 
L 151.799159 59.160527 
L 151.799159 58.505381 
L 151.967429 58.505381 
L 151.967429 57.850235 
L 152.134091 57.850235 
L 152.134091 57.195089 
L 152.47028 57.195089 
L 152.47028 54.574505 
L 153.31592 54.574505 
L 153.31592 53.919359 
L 153.823913 53.919359 
L 153.823913 53.264213 
L 154.101781 53.264213 
L 154.101781 51.298774 
L 154.409179 51.298774 
L 154.409179 50.643628 
L 154.56087 50.643628 
L 154.56087 49.988482 
L 157.426604 49.988482 
L 157.426604 49.333336 
L 157.548627 49.333336 
L 157.548627 48.67819 
L 157.711875 48.67819 
L 157.711875 48.023044 
L 158.198096 48.023044 
L 158.198096 47.367898 
L 158.3662 47.367898 
L 158.441589 46.057605 
L 158.76896 46.057605 
L 158.842632 40.816437 
L 158.955169 40.816437 
L 158.955169 39.506144 
L 160.793103 39.506144 
L 160.793103 38.850998 
L 162.44286 38.850998 
L 162.44286 38.195852 
L 163.051513 38.195852 
L 163.148187 36.230414 
L 168.498851 36.230414 
L 168.498851 35.575268 
L 169.036813 35.575268 
L 169.036813 34.920122 
L 174.604381 34.920122 
L 174.604381 34.264976 
L 175.616595 34.264976 
L 175.616595 32.299537 
L 176.531422 32.299537 
L 176.531422 31.644391 
L 179.748233 31.644391 
L 179.748233 30.989245 
L 181.120411 30.989245 
L 181.120411 30.334099 
L 338.688 30.334099 
L 338.688 30.334099 
" style="fill:none;stroke:#6495ed;stroke-linecap:square;stroke-width:1.5;"/>
   </g>
   <g id="line2d_44">
    <defs>
     <path d="M -0 6 
L 6 -6 
L -6 -6 
z
" id="m20b6dba3a0" style="stroke:#6495ed;stroke-linejoin:miter;stroke-width:1.5;"/>
    </defs>
    <g>
     <use style="fill-opacity:0;stroke:#6495ed;stroke-linejoin:miter;stroke-width:1.5;" x="123.111324" xlink:href="#m20b6dba3a0" y="186.258871"/>
     <use style="fill-opacity:0;stroke:#6495ed;stroke-linejoin:miter;stroke-width:1.5;" x="169.036813" xlink:href="#m20b6dba3a0" y="35.575268"/>
     <use style="fill-opacity:0;stroke:#6495ed;stroke-linejoin:miter;stroke-width:1.5;" x="181.120411" xlink:href="#m20b6dba3a0" y="30.334099"/>
     <use style="fill-opacity:0;stroke:#6495ed;stroke-linejoin:miter;stroke-width:1.5;" x="181.120411" xlink:href="#m20b6dba3a0" y="30.334099"/>
     <use style="fill-opacity:0;stroke:#6495ed;stroke-linejoin:miter;stroke-width:1.5;" x="338.688" xlink:href="#m20b6dba3a0" y="30.334099"/>
    </g>
   </g>
   <g id="line2d_45">
    <path style="fill:none;stroke:#6495ed;stroke-linecap:square;stroke-width:1.5;"/>
    <g/>
   </g>
   <g id="line2d_46">
    <path clip-path="url(#p8311e7a3a1)" d="M 173.440194 34.920122 
" style="fill:none;stroke:#6495ed;stroke-linecap:square;stroke-width:1.5;"/>
    <defs>
     <path d="M -12 12 
L 12 -12 
M -12 -12 
L 12 12 
" id="m45676456dd" style="stroke:#6495ed;"/>
    </defs>
    <g clip-path="url(#p8311e7a3a1)">
     <use style="fill:#6495ed;stroke:#6495ed;" x="173.440194" xlink:href="#m45676456dd" y="34.920122"/>
    </g>
   </g>
   <g id="line2d_47">
    <defs>
     <path d="M 0 1.5 
C 0.397805 1.5 0.77937 1.341951 1.06066 1.06066 
C 1.341951 0.77937 1.5 0.397805 1.5 0 
C 1.5 -0.397805 1.341951 -0.77937 1.06066 -1.06066 
C 0.77937 -1.341951 0.397805 -1.5 0 -1.5 
C -0.397805 -1.5 -0.77937 -1.341951 -1.06066 -1.06066 
C -1.341951 -0.77937 -1.5 -0.397805 -1.5 0 
C -1.5 0.397805 -1.341951 0.77937 -1.06066 1.06066 
C -0.77937 1.341951 -0.397805 1.5 0 1.5 
z
" id="m20cf6dfe64" style="stroke:#ff0000;"/>
    </defs>
    <g>
     <use style="fill:#ff0000;stroke:#ff0000;" x="276.928619" xlink:href="#m20cf6dfe64" y="233.42939"/>
     <use style="fill:#ff0000;stroke:#ff0000;" x="276.928619" xlink:href="#m20cf6dfe64" y="233.42939"/>
    </g>
   </g>
   <g id="line2d_48">
    <path d="M 106.906317 298.944 
L 106.906317 298.288854 
L 108.948899 298.288854 
L 108.948899 296.978562 
L 110.77713 296.978562 
L 110.77713 296.323416 
L 117.820578 296.323416 
L 117.820578 295.66827 
L 118.942633 295.66827 
L 118.942633 295.013123 
L 121.931406 295.013123 
L 121.931406 294.357977 
L 136.942755 294.357977 
L 136.942755 293.702831 
L 158.042106 293.702831 
L 158.042106 293.047685 
L 165.302685 293.047685 
L 165.302685 292.392539 
L 165.974809 292.392539 
L 165.974809 291.737393 
L 169.836245 291.737393 
L 169.836245 291.082247 
L 171.514136 291.082247 
L 171.514136 290.427101 
L 171.726136 290.427101 
L 171.726136 289.771955 
L 176.084892 289.771955 
L 176.084892 289.116809 
L 177.274266 289.116809 
L 177.274266 288.461662 
L 178.602076 288.461662 
L 178.602076 287.806516 
L 179.126818 287.806516 
L 179.126818 287.15137 
L 185.755205 287.15137 
L 185.755205 286.496224 
L 187.417244 286.496224 
L 187.417244 285.841078 
L 188.875562 285.841078 
L 188.875562 285.185932 
L 189.627582 285.185932 
L 189.627582 284.530786 
L 191.436571 284.530786 
L 191.436571 283.87564 
L 192.604507 283.87564 
L 192.604507 283.220494 
L 192.778656 283.220494 
L 192.778656 282.565348 
L 193.654223 282.565348 
L 193.654223 281.910201 
L 194.502201 281.910201 
L 194.502201 281.255055 
L 195.392403 281.255055 
L 195.392403 280.599909 
L 196.329552 280.599909 
L 196.329552 279.944763 
L 198.146329 279.944763 
L 198.146329 279.289617 
L 205.108937 279.289617 
L 205.108937 278.634471 
L 209.41356 278.634471 
L 209.41356 277.979325 
L 210.387212 277.979325 
L 210.387212 277.324179 
L 210.600845 277.324179 
L 210.600845 276.669033 
L 210.982424 276.669033 
L 210.982424 276.013887 
L 212.378261 276.013887 
L 212.378261 275.35874 
L 212.642488 275.35874 
L 212.642488 274.703594 
L 213.66823 274.703594 
L 213.66823 274.048448 
L 214.614472 274.048448 
L 214.614472 273.393302 
L 215.229526 273.393302 
L 215.229526 272.738156 
L 217.44365 272.738156 
L 217.44365 272.08301 
L 217.889668 272.08301 
L 217.889668 271.427864 
L 218.353925 271.427864 
L 218.353925 270.772718 
L 218.487889 270.772718 
L 218.487889 270.117572 
L 219.715229 270.117572 
L 219.81746 268.807279 
L 220.746418 268.807279 
L 220.746418 268.152133 
L 221.598092 268.152133 
L 221.625373 266.841841 
L 222.652079 266.841841 
L 222.652079 266.186695 
L 224.885994 266.186695 
L 224.885994 265.531549 
L 225.021667 265.531549 
L 225.021667 264.876403 
L 225.535994 264.876403 
L 225.535994 264.221257 
L 226.81464 264.221257 
L 226.81464 263.566111 
L 227.389002 263.566111 
L 227.389002 262.910965 
L 227.505521 262.910965 
L 227.505521 262.255818 
L 228.3689 262.255818 
L 228.3689 261.600672 
L 229.288659 261.600672 
L 229.288659 260.945526 
L 229.719266 260.945526 
L 229.719266 260.29038 
L 231.180197 260.29038 
L 231.180197 259.635234 
L 231.475558 259.635234 
L 231.475558 258.980088 
L 233.601382 258.980088 
L 233.601382 258.324942 
L 233.720749 258.324942 
L 233.720749 257.669796 
L 235.76196 257.669796 
L 235.76196 257.01465 
L 235.939208 257.01465 
L 235.939208 256.359504 
L 236.150079 256.359504 
L 236.247372 255.049211 
L 236.973388 255.049211 
L 236.973388 254.394065 
L 237.565498 254.394065 
L 237.565498 253.738919 
L 238.430968 253.738919 
L 238.430968 253.083773 
L 238.815122 253.083773 
L 238.815122 252.428627 
L 239.369598 252.428627 
L 239.369598 251.773481 
L 240.980028 251.773481 
L 240.980028 251.118335 
L 241.754589 251.118335 
L 241.777779 249.808043 
L 243.180452 249.808043 
L 243.180452 249.152896 
L 243.364577 249.152896 
L 243.364577 248.49775 
L 244.978003 248.49775 
L 244.978003 247.842604 
L 245.732941 247.842604 
L 245.732941 247.187458 
L 246.265788 247.187458 
L 246.265788 246.532312 
L 247.616276 246.532312 
L 247.616276 245.877166 
L 248.00197 245.877166 
L 248.00197 245.22202 
L 250.06119 245.22202 
L 250.135944 243.911728 
L 250.580532 243.911728 
L 250.580532 243.256582 
L 251.205746 243.256582 
L 251.205746 242.601435 
L 251.470561 242.601435 
L 251.470561 241.946289 
L 252.320004 241.946289 
L 252.320004 241.291143 
L 255.537225 241.291143 
L 255.537225 240.635997 
L 260.67829 240.635997 
L 260.67829 239.980851 
L 262.473619 239.980851 
L 262.473619 239.325705 
L 262.939717 239.325705 
L 262.939717 238.670559 
L 263.409364 238.670559 
L 263.409364 238.015413 
L 267.873061 238.015413 
L 267.873061 237.360267 
L 268.556052 237.360267 
L 268.556052 236.705121 
L 269.447919 236.705121 
L 269.447919 236.049974 
L 270.92055 236.049974 
L 270.92055 235.394828 
L 271.052072 235.394828 
L 271.052072 234.739682 
L 274.214096 234.739682 
L 274.214096 234.084536 
L 276.928619 234.084536 
L 276.928619 233.42939 
L 338.688 233.42939 
L 338.688 233.42939 
" style="fill:none;stroke:#ff0000;stroke-linecap:square;stroke-width:1.5;"/>
   </g>
   <g id="line2d_49">
    <defs>
     <path d="M 0 -6 
L -5.196152 -3 
L -5.196152 3 
L -0 6 
L 5.196152 3 
L 5.196152 -3 
z
" id="m5d24683184" style="stroke:#ff0000;stroke-linejoin:miter;stroke-width:1.5;"/>
    </defs>
    <g>
     <use style="fill-opacity:0;stroke:#ff0000;stroke-linejoin:miter;stroke-width:1.5;" x="198.146329" xlink:href="#m5d24683184" y="279.289617"/>
     <use style="fill-opacity:0;stroke:#ff0000;stroke-linejoin:miter;stroke-width:1.5;" x="262.473619" xlink:href="#m5d24683184" y="239.980851"/>
     <use style="fill-opacity:0;stroke:#ff0000;stroke-linejoin:miter;stroke-width:1.5;" x="276.928619" xlink:href="#m5d24683184" y="233.42939"/>
     <use style="fill-opacity:0;stroke:#ff0000;stroke-linejoin:miter;stroke-width:1.5;" x="276.928619" xlink:href="#m5d24683184" y="233.42939"/>
     <use style="fill-opacity:0;stroke:#ff0000;stroke-linejoin:miter;stroke-width:1.5;" x="338.688" xlink:href="#m5d24683184" y="233.42939"/>
    </g>
   </g>
   <g id="line2d_50">
    <path style="fill:none;stroke:#ff0000;stroke-linecap:square;stroke-width:1.5;"/>
    <g/>
   </g>
   <g id="line2d_51">
    <path clip-path="url(#p8311e7a3a1)" d="M 206.138259 278.634471 
" style="fill:none;stroke:#ff0000;stroke-linecap:square;stroke-width:1.5;"/>
    <defs>
     <path d="M -12 12 
L 12 -12 
M -12 -12 
L 12 12 
" id="mf8849cdc14" style="stroke:#ff0000;"/>
    </defs>
    <g clip-path="url(#p8311e7a3a1)">
     <use style="fill:#ff0000;stroke:#ff0000;" x="206.138259" xlink:href="#mf8849cdc14" y="278.634471"/>
    </g>
   </g>
   <g id="line2d_52">
    <path d="M 338.688 298.944 
L 369.60768 293.571802 
" style="fill:none;stroke:#ff7500;stroke-linecap:square;stroke-width:1.5;"/>
    <g>
     <use style="fill-opacity:0;stroke:#ff7500;stroke-linejoin:bevel;stroke-width:1.5;" x="338.688" xlink:href="#mf107679306" y="298.944"/>
     <use style="fill-opacity:0;stroke:#ff7500;stroke-linejoin:bevel;stroke-width:1.5;" x="369.60768" xlink:href="#mf107679306" y="293.571802"/>
    </g>
   </g>
   <g id="line2d_53">
    <path d="M 338.688 233.42939 
L 369.60768 229.105426 
" style="fill:none;stroke:#ff0000;stroke-linecap:square;stroke-width:1.5;"/>
    <g>
     <use style="fill-opacity:0;stroke:#ff0000;stroke-linejoin:miter;stroke-width:1.5;" x="338.688" xlink:href="#m5d24683184" y="233.42939"/>
     <use style="fill-opacity:0;stroke:#ff0000;stroke-linejoin:miter;stroke-width:1.5;" x="369.60768" xlink:href="#m5d24683184" y="229.105426"/>
    </g>
   </g>
   <g id="line2d_54">
    <path d="M 338.688 128.606014 
L 369.60768 164.63905 
" style="fill:none;stroke:#000080;stroke-linecap:square;stroke-width:1.5;"/>
    <g>
     <use style="fill-opacity:0;stroke:#000080;stroke-width:1.5;" x="338.688" xlink:href="#mba96e44ed6" y="128.606014"/>
     <use style="fill-opacity:0;stroke:#000080;stroke-width:1.5;" x="369.60768" xlink:href="#mba96e44ed6" y="164.63905"/>
    </g>
   </g>
   <g id="line2d_55">
    <path d="M 338.688 30.334099 
L 369.60768 100.172673 
" style="fill:none;stroke:#ff00ff;stroke-linecap:square;stroke-width:1.5;"/>
    <g>
     <use style="fill-opacity:0;stroke:#ff00ff;stroke-linejoin:miter;stroke-width:1.5;" x="338.688" xlink:href="#m10ffa4f1ec" y="30.334099"/>
     <use style="fill-opacity:0;stroke:#ff00ff;stroke-linejoin:miter;stroke-width:1.5;" x="369.60768" xlink:href="#m10ffa4f1ec" y="100.172673"/>
    </g>
   </g>
   <g id="line2d_56">
    <path d="M 338.688 30.334099 
L 369.60768 35.706297 
" style="fill:none;stroke:#6495ed;stroke-linecap:square;stroke-width:1.5;"/>
    <g>
     <use style="fill-opacity:0;stroke:#6495ed;stroke-linejoin:miter;stroke-width:1.5;" x="338.688" xlink:href="#m20b6dba3a0" y="30.334099"/>
     <use style="fill-opacity:0;stroke:#6495ed;stroke-linejoin:miter;stroke-width:1.5;" x="369.60768" xlink:href="#m20b6dba3a0" y="35.706297"/>
    </g>
   </g>
   <g id="line2d_57">
    <path d="M 338.688 298.944 
L 338.688 30.334099 
" style="fill:none;stroke:#000000;stroke-linecap:square;stroke-width:1.5;"/>
   </g>
   <g id="patch_3">
    <path d="M 57.6 298.944 
L 57.6 27.648 
" style="fill:none;stroke:#000000;stroke-linecap:square;stroke-linejoin:miter;stroke-width:0.8;"/>
   </g>
   <g id="patch_4">
    <path d="M 338.688 298.944 
L 338.688 27.648 
" style="fill:none;stroke:#000000;stroke-linecap:square;stroke-linejoin:miter;stroke-width:0.8;"/>
   </g>
   <g id="patch_5">
    <path d="M 57.6 298.944 
L 338.688 298.944 
" style="fill:none;stroke:#000000;stroke-linecap:square;stroke-linejoin:miter;stroke-width:0.8;"/>
   </g>
   <g id="patch_6">
    <path d="M 57.6 27.648 
L 338.688 27.648 
" style="fill:none;stroke:#000000;stroke-linecap:square;stroke-linejoin:miter;stroke-width:0.8;"/>
   </g>
   <g id="text_13">
    <!-- rs -->
    <g transform="translate(375.22944 298.262739)scale(0.17 -0.17)">
     <use xlink:href="#DejaVuSans-114"/>
     <use x="41.113281" xlink:href="#DejaVuSans-115"/>
    </g>
   </g>
   <g id="text_14">
    <!-- trust-con -->
    <g transform="translate(375.22944 233.796363)scale(0.17 -0.17)">
     <use xlink:href="#DejaVuSans-116"/>
     <use x="39.208984" xlink:href="#DejaVuSans-114"/>
     <use x="80.322266" xlink:href="#DejaVuSans-117"/>
     <use x="143.701172" xlink:href="#DejaVuSans-115"/>
     <use x="195.800781" xlink:href="#DejaVuSans-116"/>
     <use x="235.009766" xlink:href="#DejaVuSans-45"/>
     <use x="271.09375" xlink:href="#DejaVuSans-99"/>
     <use x="326.074219" xlink:href="#DejaVuSans-111"/>
     <use x="387.255859" xlink:href="#DejaVuSans-110"/>
    </g>
   </g>
   <g id="text_15">
    <!-- cobyla -->
    <g transform="translate(375.22944 169.329987)scale(0.17 -0.17)">
     <defs>
      <path d="M 48.6875 27.296875 
Q 48.6875 37.203125 44.609375 42.84375 
Q 40.53125 48.484375 33.40625 48.484375 
Q 26.265625 48.484375 22.1875 42.84375 
Q 18.109375 37.203125 18.109375 27.296875 
Q 18.109375 17.390625 22.1875 11.75 
Q 26.265625 6.109375 33.40625 6.109375 
Q 40.53125 6.109375 44.609375 11.75 
Q 48.6875 17.390625 48.6875 27.296875 
z
M 18.109375 46.390625 
Q 20.953125 51.265625 25.265625 53.625 
Q 29.59375 56 35.59375 56 
Q 45.5625 56 51.78125 48.09375 
Q 58.015625 40.1875 58.015625 27.296875 
Q 58.015625 14.40625 51.78125 6.484375 
Q 45.5625 -1.421875 35.59375 -1.421875 
Q 29.59375 -1.421875 25.265625 0.953125 
Q 20.953125 3.328125 18.109375 8.203125 
L 18.109375 0 
L 9.078125 0 
L 9.078125 75.984375 
L 18.109375 75.984375 
z
" id="DejaVuSans-98"/>
      <path d="M 32.171875 -5.078125 
Q 28.375 -14.84375 24.75 -17.8125 
Q 21.140625 -20.796875 15.09375 -20.796875 
L 7.90625 -20.796875 
L 7.90625 -13.28125 
L 13.1875 -13.28125 
Q 16.890625 -13.28125 18.9375 -11.515625 
Q 21 -9.765625 23.484375 -3.21875 
L 25.09375 0.875 
L 2.984375 54.6875 
L 12.5 54.6875 
L 29.59375 11.921875 
L 46.6875 54.6875 
L 56.203125 54.6875 
z
" id="DejaVuSans-121"/>
     </defs>
     <use xlink:href="#DejaVuSans-99"/>
     <use x="54.980469" xlink:href="#DejaVuSans-111"/>
     <use x="116.162109" xlink:href="#DejaVuSans-98"/>
     <use x="179.638672" xlink:href="#DejaVuSans-121"/>
     <use x="238.818359" xlink:href="#DejaVuSans-108"/>
     <use x="266.601562" xlink:href="#DejaVuSans-97"/>
    </g>
   </g>
   <g id="text_16">
    <!-- NAL -->
    <g transform="translate(375.22944 104.863611)scale(0.17 -0.17)">
     <defs>
      <path d="M 9.8125 72.90625 
L 23.09375 72.90625 
L 55.421875 11.921875 
L 55.421875 72.90625 
L 64.984375 72.90625 
L 64.984375 0 
L 51.703125 0 
L 19.390625 60.984375 
L 19.390625 0 
L 9.8125 0 
z
" id="DejaVuSans-78"/>
      <path d="M 34.1875 63.1875 
L 20.796875 26.90625 
L 47.609375 26.90625 
z
M 28.609375 72.90625 
L 39.796875 72.90625 
L 67.578125 0 
L 57.328125 0 
L 50.6875 18.703125 
L 17.828125 18.703125 
L 11.1875 0 
L 0.78125 0 
z
" id="DejaVuSans-65"/>
      <path d="M 9.8125 72.90625 
L 19.671875 72.90625 
L 19.671875 8.296875 
L 55.171875 8.296875 
L 55.171875 0 
L 9.8125 0 
z
" id="DejaVuSans-76"/>
     </defs>
     <use xlink:href="#DejaVuSans-78"/>
     <use x="74.804688" xlink:href="#DejaVuSans-65"/>
     <use x="143.212891" xlink:href="#DejaVuSans-76"/>
    </g>
   </g>
   <g id="text_17">
    <!-- slsqp -->
    <g transform="translate(375.22944 40.397235)scale(0.17 -0.17)">
     <defs>
      <path d="M 14.796875 27.296875 
Q 14.796875 17.390625 18.875 11.75 
Q 22.953125 6.109375 30.078125 6.109375 
Q 37.203125 6.109375 41.296875 11.75 
Q 45.40625 17.390625 45.40625 27.296875 
Q 45.40625 37.203125 41.296875 42.84375 
Q 37.203125 48.484375 30.078125 48.484375 
Q 22.953125 48.484375 18.875 42.84375 
Q 14.796875 37.203125 14.796875 27.296875 
z
M 45.40625 8.203125 
Q 42.578125 3.328125 38.25 0.953125 
Q 33.9375 -1.421875 27.875 -1.421875 
Q 17.96875 -1.421875 11.734375 6.484375 
Q 5.515625 14.40625 5.515625 27.296875 
Q 5.515625 40.1875 11.734375 48.09375 
Q 17.96875 56 27.875 56 
Q 33.9375 56 38.25 53.625 
Q 42.578125 51.265625 45.40625 46.390625 
L 45.40625 54.6875 
L 54.390625 54.6875 
L 54.390625 -20.796875 
L 45.40625 -20.796875 
z
" id="DejaVuSans-113"/>
     </defs>
     <use xlink:href="#DejaVuSans-115"/>
     <use x="52.099609" xlink:href="#DejaVuSans-108"/>
     <use x="79.882812" xlink:href="#DejaVuSans-115"/>
     <use x="131.982422" xlink:href="#DejaVuSans-113"/>
     <use x="195.458984" xlink:href="#DejaVuSans-112"/>
    </g>
   </g>
   <g id="text_18">
    <!-- bbob-constrained f23, 20-D -->
    <g transform="translate(60.41088 38.111366)scale(0.102 -0.102)">
     <defs>
      <path d="M 40.578125 39.3125 
Q 47.65625 37.796875 51.625 33 
Q 55.609375 28.21875 55.609375 21.1875 
Q 55.609375 10.40625 48.1875 4.484375 
Q 40.765625 -1.421875 27.09375 -1.421875 
Q 22.515625 -1.421875 17.65625 -0.515625 
Q 12.796875 0.390625 7.625 2.203125 
L 7.625 11.71875 
Q 11.71875 9.328125 16.59375 8.109375 
Q 21.484375 6.890625 26.8125 6.890625 
Q 36.078125 6.890625 40.9375 10.546875 
Q 45.796875 14.203125 45.796875 21.1875 
Q 45.796875 27.640625 41.28125 31.265625 
Q 36.765625 34.90625 28.71875 34.90625 
L 20.21875 34.90625 
L 20.21875 43.015625 
L 29.109375 43.015625 
Q 36.375 43.015625 40.234375 45.921875 
Q 44.09375 48.828125 44.09375 54.296875 
Q 44.09375 59.90625 40.109375 62.90625 
Q 36.140625 65.921875 28.71875 65.921875 
Q 24.65625 65.921875 20.015625 65.03125 
Q 15.375 64.15625 9.8125 62.3125 
L 9.8125 71.09375 
Q 15.4375 72.65625 20.34375 73.4375 
Q 25.25 74.21875 29.59375 74.21875 
Q 40.828125 74.21875 47.359375 69.109375 
Q 53.90625 64.015625 53.90625 55.328125 
Q 53.90625 49.265625 50.4375 45.09375 
Q 46.96875 40.921875 40.578125 39.3125 
z
" id="DejaVuSans-51"/>
      <path d="M 19.671875 64.796875 
L 19.671875 8.109375 
L 31.59375 8.109375 
Q 46.6875 8.109375 53.6875 14.9375 
Q 60.6875 21.78125 60.6875 36.53125 
Q 60.6875 51.171875 53.6875 57.984375 
Q 46.6875 64.796875 31.59375 64.796875 
z
M 9.8125 72.90625 
L 30.078125 72.90625 
Q 51.265625 72.90625 61.171875 64.09375 
Q 71.09375 55.28125 71.09375 36.53125 
Q 71.09375 17.671875 61.125 8.828125 
Q 51.171875 0 30.078125 0 
L 9.8125 0 
z
" id="DejaVuSans-68"/>
     </defs>
     <use xlink:href="#DejaVuSans-98"/>
     <use x="63.476562" xlink:href="#DejaVuSans-98"/>
     <use x="126.953125" xlink:href="#DejaVuSans-111"/>
     <use x="188.134766" xlink:href="#DejaVuSans-98"/>
     <use x="251.611328" xlink:href="#DejaVuSans-45"/>
     <use x="287.695312" xlink:href="#DejaVuSans-99"/>
     <use x="342.675781" xlink:href="#DejaVuSans-111"/>
     <use x="403.857422" xlink:href="#DejaVuSans-110"/>
     <use x="467.236328" xlink:href="#DejaVuSans-115"/>
     <use x="519.335938" xlink:href="#DejaVuSans-116"/>
     <use x="558.544922" xlink:href="#DejaVuSans-114"/>
     <use x="599.658203" xlink:href="#DejaVuSans-97"/>
     <use x="660.9375" xlink:href="#DejaVuSans-105"/>
     <use x="688.720703" xlink:href="#DejaVuSans-110"/>
     <use x="752.099609" xlink:href="#DejaVuSans-101"/>
     <use x="813.623047" xlink:href="#DejaVuSans-100"/>
     <use x="877.099609" xlink:href="#DejaVuSans-32"/>
     <use x="908.886719" xlink:href="#DejaVuSans-102"/>
     <use x="944.091797" xlink:href="#DejaVuSans-50"/>
     <use x="1007.714844" xlink:href="#DejaVuSans-51"/>
     <use x="1071.337891" xlink:href="#DejaVuSans-44"/>
     <use x="1103.125" xlink:href="#DejaVuSans-32"/>
     <use x="1134.912109" xlink:href="#DejaVuSans-50"/>
     <use x="1198.535156" xlink:href="#DejaVuSans-48"/>
     <use x="1262.158203" xlink:href="#DejaVuSans-45"/>
     <use x="1298.242188" xlink:href="#DejaVuSans-68"/>
    </g>
    <!-- 41 targets: 100..1e-06 -->
    <g transform="translate(60.41088 49.533135)scale(0.102 -0.102)">
     <defs>
      <path d="M 11.71875 12.40625 
L 22.015625 12.40625 
L 22.015625 0 
L 11.71875 0 
z
M 11.71875 51.703125 
L 22.015625 51.703125 
L 22.015625 39.3125 
L 11.71875 39.3125 
z
" id="DejaVuSans-58"/>
     </defs>
     <use xlink:href="#DejaVuSans-52"/>
     <use x="63.623047" xlink:href="#DejaVuSans-49"/>
     <use x="127.246094" xlink:href="#DejaVuSans-32"/>
     <use x="159.033203" xlink:href="#DejaVuSans-116"/>
     <use x="198.242188" xlink:href="#DejaVuSans-97"/>
     <use x="259.521484" xlink:href="#DejaVuSans-114"/>
     <use x="298.884766" xlink:href="#DejaVuSans-103"/>
     <use x="362.361328" xlink:href="#DejaVuSans-101"/>
     <use x="423.884766" xlink:href="#DejaVuSans-116"/>
     <use x="463.09375" xlink:href="#DejaVuSans-115"/>
     <use x="515.193359" xlink:href="#DejaVuSans-58"/>
     <use x="548.884766" xlink:href="#DejaVuSans-32"/>
     <use x="580.671875" xlink:href="#DejaVuSans-49"/>
     <use x="644.294922" xlink:href="#DejaVuSans-48"/>
     <use x="707.917969" xlink:href="#DejaVuSans-48"/>
     <use x="771.541016" xlink:href="#DejaVuSans-46"/>
     <use x="803.328125" xlink:href="#DejaVuSans-46"/>
     <use x="835.115234" xlink:href="#DejaVuSans-49"/>
     <use x="898.738281" xlink:href="#DejaVuSans-101"/>
     <use x="960.261719" xlink:href="#DejaVuSans-45"/>
     <use x="996.345703" xlink:href="#DejaVuSans-48"/>
     <use x="1059.96875" xlink:href="#DejaVuSans-54"/>
    </g>
    <!-- 15 instances -->
    <g transform="translate(60.41088 60.954904)scale(0.102 -0.102)">
     <defs>
      <path d="M 10.796875 72.90625 
L 49.515625 72.90625 
L 49.515625 64.59375 
L 19.828125 64.59375 
L 19.828125 46.734375 
Q 21.96875 47.46875 24.109375 47.828125 
Q 26.265625 48.1875 28.421875 48.1875 
Q 40.625 48.1875 47.75 41.5 
Q 54.890625 34.8125 54.890625 23.390625 
Q 54.890625 11.625 47.5625 5.09375 
Q 40.234375 -1.421875 26.90625 -1.421875 
Q 22.3125 -1.421875 17.546875 -0.640625 
Q 12.796875 0.140625 7.71875 1.703125 
L 7.71875 11.625 
Q 12.109375 9.234375 16.796875 8.0625 
Q 21.484375 6.890625 26.703125 6.890625 
Q 35.15625 6.890625 40.078125 11.328125 
Q 45.015625 15.765625 45.015625 23.390625 
Q 45.015625 31 40.078125 35.4375 
Q 35.15625 39.890625 26.703125 39.890625 
Q 22.75 39.890625 18.8125 39.015625 
Q 14.890625 38.140625 10.796875 36.28125 
z
" id="DejaVuSans-53"/>
     </defs>
     <use xlink:href="#DejaVuSans-49"/>
     <use x="63.623047" xlink:href="#DejaVuSans-53"/>
     <use x="127.246094" xlink:href="#DejaVuSans-32"/>
     <use x="159.033203" xlink:href="#DejaVuSans-105"/>
     <use x="186.816406" xlink:href="#DejaVuSans-110"/>
     <use x="250.195312" xlink:href="#DejaVuSans-115"/>
     <use x="302.294922" xlink:href="#DejaVuSans-116"/>
     <use x="341.503906" xlink:href="#DejaVuSans-97"/>
     <use x="402.783203" xlink:href="#DejaVuSans-110"/>
     <use x="466.162109" xlink:href="#DejaVuSans-99"/>
     <use x="521.142578" xlink:href="#DejaVuSans-101"/>
     <use x="582.666016" xlink:href="#DejaVuSans-115"/>
    </g>
   </g>
   <g id="text_19">
    <!-- v5z33 -->
    <g style="fill:#808080;" transform="translate(183.016656 294.151352)scale(0.1 -0.1)">
     <defs>
      <path d="M 5.515625 54.6875 
L 48.1875 54.6875 
L 48.1875 46.484375 
L 14.40625 7.171875 
L 48.1875 7.171875 
L 48.1875 0 
L 4.296875 0 
L 4.296875 8.203125 
L 38.09375 47.515625 
L 5.515625 47.515625 
z
" id="DejaVuSans-122"/>
     </defs>
     <use xlink:href="#DejaVuSans-118"/>
     <use x="59.179688" xlink:href="#DejaVuSans-53"/>
     <use x="122.802734" xlink:href="#DejaVuSans-122"/>
     <use x="175.292969" xlink:href="#DejaVuSans-51"/>
     <use x="238.916016" xlink:href="#DejaVuSans-51"/>
    </g>
   </g>
   <g id="text_20">
    <!-- 23 Rotated Ellipsoid, n+6 constraints -->
    <g transform="translate(12.336187 21.648)scale(0.2 -0.2)">
     <defs>
      <path d="M 44.390625 34.1875 
Q 47.5625 33.109375 50.5625 29.59375 
Q 53.5625 26.078125 56.59375 19.921875 
L 66.609375 0 
L 56 0 
L 46.6875 18.703125 
Q 43.0625 26.03125 39.671875 28.421875 
Q 36.28125 30.8125 30.421875 30.8125 
L 19.671875 30.8125 
L 19.671875 0 
L 9.8125 0 
L 9.8125 72.90625 
L 32.078125 72.90625 
Q 44.578125 72.90625 50.734375 67.671875 
Q 56.890625 62.453125 56.890625 51.90625 
Q 56.890625 45.015625 53.6875 40.46875 
Q 50.484375 35.9375 44.390625 34.1875 
z
M 19.671875 64.796875 
L 19.671875 38.921875 
L 32.078125 38.921875 
Q 39.203125 38.921875 42.84375 42.21875 
Q 46.484375 45.515625 46.484375 51.90625 
Q 46.484375 58.296875 42.84375 61.546875 
Q 39.203125 64.796875 32.078125 64.796875 
z
" id="DejaVuSans-82"/>
      <path d="M 9.8125 72.90625 
L 55.90625 72.90625 
L 55.90625 64.59375 
L 19.671875 64.59375 
L 19.671875 43.015625 
L 54.390625 43.015625 
L 54.390625 34.71875 
L 19.671875 34.71875 
L 19.671875 8.296875 
L 56.78125 8.296875 
L 56.78125 0 
L 9.8125 0 
z
" id="DejaVuSans-69"/>
     </defs>
     <use xlink:href="#DejaVuSans-50"/>
     <use x="63.623047" xlink:href="#DejaVuSans-51"/>
     <use x="127.246094" xlink:href="#DejaVuSans-32"/>
     <use x="159.033203" xlink:href="#DejaVuSans-82"/>
     <use x="224.015625" xlink:href="#DejaVuSans-111"/>
     <use x="285.197266" xlink:href="#DejaVuSans-116"/>
     <use x="324.40625" xlink:href="#DejaVuSans-97"/>
     <use x="385.685547" xlink:href="#DejaVuSans-116"/>
     <use x="424.894531" xlink:href="#DejaVuSans-101"/>
     <use x="486.417969" xlink:href="#DejaVuSans-100"/>
     <use x="549.894531" xlink:href="#DejaVuSans-32"/>
     <use x="581.681641" xlink:href="#DejaVuSans-69"/>
     <use x="644.865234" xlink:href="#DejaVuSans-108"/>
     <use x="672.648438" xlink:href="#DejaVuSans-108"/>
     <use x="700.431641" xlink:href="#DejaVuSans-105"/>
     <use x="728.214844" xlink:href="#DejaVuSans-112"/>
     <use x="791.691406" xlink:href="#DejaVuSans-115"/>
     <use x="843.791016" xlink:href="#DejaVuSans-111"/>
     <use x="904.972656" xlink:href="#DejaVuSans-105"/>
     <use x="932.755859" xlink:href="#DejaVuSans-100"/>
     <use x="996.232422" xlink:href="#DejaVuSans-44"/>
     <use x="1028.019531" xlink:href="#DejaVuSans-32"/>
     <use x="1059.806641" xlink:href="#DejaVuSans-110"/>
     <use x="1123.185547" xlink:href="#DejaVuSans-43"/>
     <use x="1206.974609" xlink:href="#DejaVuSans-54"/>
     <use x="1270.597656" xlink:href="#DejaVuSans-32"/>
     <use x="1302.384766" xlink:href="#DejaVuSans-99"/>
     <use x="1357.365234" xlink:href="#DejaVuSans-111"/>
     <use x="1418.546875" xlink:href="#DejaVuSans-110"/>
     <use x="1481.925781" xlink:href="#DejaVuSans-115"/>
     <use x="1534.025391" xlink:href="#DejaVuSans-116"/>
     <use x="1573.234375" xlink:href="#DejaVuSans-114"/>
     <use x="1614.347656" xlink:href="#DejaVuSans-97"/>
     <use x="1675.626953" xlink:href="#DejaVuSans-105"/>
     <use x="1703.410156" xlink:href="#DejaVuSans-110"/>
     <use x="1766.789062" xlink:href="#DejaVuSans-116"/>
     <use x="1805.998047" xlink:href="#DejaVuSans-115"/>
    </g>
   </g>
  </g>
 </g>
 <defs>
  <clipPath id="p8311e7a3a1">
   <rect height="271.296" width="281.088" x="57.6" y="27.648"/>
  </clipPath>
 </defs>
</svg>
