<?xml version="1.0" encoding="utf-8" standalone="no"?>
<!DOCTYPE svg PUBLIC "-//W3C//DTD SVG 1.1//EN"
  "http://www.w3.org/Graphics/SVG/1.1/DTD/svg11.dtd">
<!-- Created with matplotlib (https://matplotlib.org/) -->
<svg height="345.6pt" version="1.1" viewBox="0 0 460.8 345.6" width="460.8pt" xmlns="http://www.w3.org/2000/svg" xmlns:xlink="http://www.w3.org/1999/xlink">
 <metadata>
  <rdf:RDF xmlns:cc="http://creativecommons.org/ns#" xmlns:dc="http://purl.org/dc/elements/1.1/" xmlns:rdf="http://www.w3.org/1999/02/22-rdf-syntax-ns#">
   <cc:Work>
    <dc:type rdf:resource="http://purl.org/dc/dcmitype/StillImage"/>
    <dc:date>2021-06-24T15:49:36.654718</dc:date>
    <dc:format>image/svg+xml</dc:format>
    <dc:creator>
     <cc:Agent>
      <dc:title>Matplotlib v3.3.3, https://matplotlib.org/</dc:title>
     </cc:Agent>
    </dc:creator>
   </cc:Work>
  </rdf:RDF>
 </metadata>
 <defs>
  <style type="text/css">*{stroke-linecap:butt;stroke-linejoin:round;}</style>
 </defs>
 <g id="figure_1">
  <g id="patch_1">
   <path d="M 0 345.6 
L 460.8 345.6 
L 460.8 0 
L 0 0 
z
" style="fill:#ffffff;"/>
  </g>
  <g id="axes_1">
   <g id="patch_2">
    <path d="M 57.6 298.944 
L 338.688 298.944 
L 338.688 27.648 
L 57.6 27.648 
z
" style="fill:#ffffff;"/>
   </g>
   <g id="matplotlib.axis_1">
    <g id="xtick_1">
     <g id="line2d_1">
      <path clip-path="url(#p4f110b07fb)" d="M 57.6 298.944 
L 57.6 27.648 
" style="fill:none;stroke:#b0b0b0;stroke-linecap:square;stroke-width:0.8;"/>
     </g>
     <g id="line2d_2">
      <defs>
       <path d="M 0 0 
L 0 3.5 
" id="maa062762d5" style="stroke:#000000;stroke-width:0.8;"/>
      </defs>
      <g>
       <use style="stroke:#000000;stroke-width:0.8;" x="57.6" xlink:href="#maa062762d5" y="298.944"/>
      </g>
     </g>
     <g id="text_1">
      <!-- 0 -->
      <g transform="translate(51.2375 321.140875)scale(0.2 -0.2)">
       <defs>
        <path d="M 31.78125 66.40625 
Q 24.171875 66.40625 20.328125 58.90625 
Q 16.5 51.421875 16.5 36.375 
Q 16.5 21.390625 20.328125 13.890625 
Q 24.171875 6.390625 31.78125 6.390625 
Q 39.453125 6.390625 43.28125 13.890625 
Q 47.125 21.390625 47.125 36.375 
Q 47.125 51.421875 43.28125 58.90625 
Q 39.453125 66.40625 31.78125 66.40625 
z
M 31.78125 74.21875 
Q 44.046875 74.21875 50.515625 64.515625 
Q 56.984375 54.828125 56.984375 36.375 
Q 56.984375 17.96875 50.515625 8.265625 
Q 44.046875 -1.421875 31.78125 -1.421875 
Q 19.53125 -1.421875 13.0625 8.265625 
Q 6.59375 17.96875 6.59375 36.375 
Q 6.59375 54.828125 13.0625 64.515625 
Q 19.53125 74.21875 31.78125 74.21875 
z
" id="DejaVuSans-48"/>
       </defs>
       <use xlink:href="#DejaVuSans-48"/>
      </g>
     </g>
    </g>
    <g id="xtick_2">
     <g id="line2d_3">
      <path clip-path="url(#p4f110b07fb)" d="M 137.910857 298.944 
L 137.910857 27.648 
" style="fill:none;stroke:#b0b0b0;stroke-linecap:square;stroke-width:0.8;"/>
     </g>
     <g id="line2d_4">
      <g>
       <use style="stroke:#000000;stroke-width:0.8;" x="137.910857" xlink:href="#maa062762d5" y="298.944"/>
      </g>
     </g>
     <g id="text_2">
      <!-- 2 -->
      <g transform="translate(131.548357 321.140875)scale(0.2 -0.2)">
       <defs>
        <path d="M 19.1875 8.296875 
L 53.609375 8.296875 
L 53.609375 0 
L 7.328125 0 
L 7.328125 8.296875 
Q 12.9375 14.109375 22.625 23.890625 
Q 32.328125 33.6875 34.8125 36.53125 
Q 39.546875 41.84375 41.421875 45.53125 
Q 43.3125 49.21875 43.3125 52.78125 
Q 43.3125 58.59375 39.234375 62.25 
Q 35.15625 65.921875 28.609375 65.921875 
Q 23.96875 65.921875 18.8125 64.3125 
Q 13.671875 62.703125 7.8125 59.421875 
L 7.8125 69.390625 
Q 13.765625 71.78125 18.9375 73 
Q 24.125 74.21875 28.421875 74.21875 
Q 39.75 74.21875 46.484375 68.546875 
Q 53.21875 62.890625 53.21875 53.421875 
Q 53.21875 48.921875 51.53125 44.890625 
Q 49.859375 40.875 45.40625 35.40625 
Q 44.1875 33.984375 37.640625 27.21875 
Q 31.109375 20.453125 19.1875 8.296875 
z
" id="DejaVuSans-50"/>
       </defs>
       <use xlink:href="#DejaVuSans-50"/>
      </g>
     </g>
    </g>
    <g id="xtick_3">
     <g id="line2d_5">
      <path clip-path="url(#p4f110b07fb)" d="M 218.221714 298.944 
L 218.221714 27.648 
" style="fill:none;stroke:#b0b0b0;stroke-linecap:square;stroke-width:0.8;"/>
     </g>
     <g id="line2d_6">
      <g>
       <use style="stroke:#000000;stroke-width:0.8;" x="218.221714" xlink:href="#maa062762d5" y="298.944"/>
      </g>
     </g>
     <g id="text_3">
      <!-- 4 -->
      <g transform="translate(211.859214 321.140875)scale(0.2 -0.2)">
       <defs>
        <path d="M 37.796875 64.3125 
L 12.890625 25.390625 
L 37.796875 25.390625 
z
M 35.203125 72.90625 
L 47.609375 72.90625 
L 47.609375 25.390625 
L 58.015625 25.390625 
L 58.015625 17.1875 
L 47.609375 17.1875 
L 47.609375 0 
L 37.796875 0 
L 37.796875 17.1875 
L 4.890625 17.1875 
L 4.890625 26.703125 
z
" id="DejaVuSans-52"/>
       </defs>
       <use xlink:href="#DejaVuSans-52"/>
      </g>
     </g>
    </g>
    <g id="xtick_4">
     <g id="line2d_7">
      <path clip-path="url(#p4f110b07fb)" d="M 298.532571 298.944 
L 298.532571 27.648 
" style="fill:none;stroke:#b0b0b0;stroke-linecap:square;stroke-width:0.8;"/>
     </g>
     <g id="line2d_8">
      <g>
       <use style="stroke:#000000;stroke-width:0.8;" x="298.532571" xlink:href="#maa062762d5" y="298.944"/>
      </g>
     </g>
     <g id="text_4">
      <!-- 6 -->
      <g transform="translate(292.170071 321.140875)scale(0.2 -0.2)">
       <defs>
        <path d="M 33.015625 40.375 
Q 26.375 40.375 22.484375 35.828125 
Q 18.609375 31.296875 18.609375 23.390625 
Q 18.609375 15.53125 22.484375 10.953125 
Q 26.375 6.390625 33.015625 6.390625 
Q 39.65625 6.390625 43.53125 10.953125 
Q 47.40625 15.53125 47.40625 23.390625 
Q 47.40625 31.296875 43.53125 35.828125 
Q 39.65625 40.375 33.015625 40.375 
z
M 52.59375 71.296875 
L 52.59375 62.3125 
Q 48.875 64.0625 45.09375 64.984375 
Q 41.3125 65.921875 37.59375 65.921875 
Q 27.828125 65.921875 22.671875 59.328125 
Q 17.53125 52.734375 16.796875 39.40625 
Q 19.671875 43.65625 24.015625 45.921875 
Q 28.375 48.1875 33.59375 48.1875 
Q 44.578125 48.1875 50.953125 41.515625 
Q 57.328125 34.859375 57.328125 23.390625 
Q 57.328125 12.15625 50.6875 5.359375 
Q 44.046875 -1.421875 33.015625 -1.421875 
Q 20.359375 -1.421875 13.671875 8.265625 
Q 6.984375 17.96875 6.984375 36.375 
Q 6.984375 53.65625 15.1875 63.9375 
Q 23.390625 74.21875 37.203125 74.21875 
Q 40.921875 74.21875 44.703125 73.484375 
Q 48.484375 72.75 52.59375 71.296875 
z
" id="DejaVuSans-54"/>
       </defs>
       <use xlink:href="#DejaVuSans-54"/>
      </g>
     </g>
    </g>
    <g id="xtick_5">
     <g id="line2d_9">
      <path clip-path="url(#p4f110b07fb)" d="M 97.755429 298.944 
L 97.755429 27.648 
" style="fill:none;stroke:#b0b0b0;stroke-linecap:square;stroke-width:0.8;"/>
     </g>
     <g id="line2d_10">
      <defs>
       <path d="M 0 0 
L 0 2 
" id="mc1fe52c262" style="stroke:#000000;stroke-width:0.6;"/>
      </defs>
      <g>
       <use style="stroke:#000000;stroke-width:0.6;" x="97.755429" xlink:href="#mc1fe52c262" y="298.944"/>
      </g>
     </g>
    </g>
    <g id="xtick_6">
     <g id="line2d_11">
      <path clip-path="url(#p4f110b07fb)" d="M 178.066286 298.944 
L 178.066286 27.648 
" style="fill:none;stroke:#b0b0b0;stroke-linecap:square;stroke-width:0.8;"/>
     </g>
     <g id="line2d_12">
      <g>
       <use style="stroke:#000000;stroke-width:0.6;" x="178.066286" xlink:href="#mc1fe52c262" y="298.944"/>
      </g>
     </g>
    </g>
    <g id="xtick_7">
     <g id="line2d_13">
      <path clip-path="url(#p4f110b07fb)" d="M 258.377143 298.944 
L 258.377143 27.648 
" style="fill:none;stroke:#b0b0b0;stroke-linecap:square;stroke-width:0.8;"/>
     </g>
     <g id="line2d_14">
      <g>
       <use style="stroke:#000000;stroke-width:0.6;" x="258.377143" xlink:href="#mc1fe52c262" y="298.944"/>
      </g>
     </g>
    </g>
    <g id="xtick_8">
     <g id="line2d_15">
      <path clip-path="url(#p4f110b07fb)" d="M 338.688 298.944 
L 338.688 27.648 
" style="fill:none;stroke:#b0b0b0;stroke-linecap:square;stroke-width:0.8;"/>
     </g>
     <g id="line2d_16">
      <g>
       <use style="stroke:#000000;stroke-width:0.6;" x="338.688" xlink:href="#mc1fe52c262" y="298.944"/>
      </g>
     </g>
    </g>
    <g id="text_5">
     <!-- log10(# (f+g)-evals / dimension) -->
     <g transform="translate(58.145016 342.217594)scale(0.17 -0.17)">
      <defs>
       <path d="M 9.421875 75.984375 
L 18.40625 75.984375 
L 18.40625 0 
L 9.421875 0 
z
" id="DejaVuSans-108"/>
       <path d="M 30.609375 48.390625 
Q 23.390625 48.390625 19.1875 42.75 
Q 14.984375 37.109375 14.984375 27.296875 
Q 14.984375 17.484375 19.15625 11.84375 
Q 23.34375 6.203125 30.609375 6.203125 
Q 37.796875 6.203125 41.984375 11.859375 
Q 46.1875 17.53125 46.1875 27.296875 
Q 46.1875 37.015625 41.984375 42.703125 
Q 37.796875 48.390625 30.609375 48.390625 
z
M 30.609375 56 
Q 42.328125 56 49.015625 48.375 
Q 55.71875 40.765625 55.71875 27.296875 
Q 55.71875 13.875 49.015625 6.21875 
Q 42.328125 -1.421875 30.609375 -1.421875 
Q 18.84375 -1.421875 12.171875 6.21875 
Q 5.515625 13.875 5.515625 27.296875 
Q 5.515625 40.765625 12.171875 48.375 
Q 18.84375 56 30.609375 56 
z
" id="DejaVuSans-111"/>
       <path d="M 45.40625 27.984375 
Q 45.40625 37.75 41.375 43.109375 
Q 37.359375 48.484375 30.078125 48.484375 
Q 22.859375 48.484375 18.828125 43.109375 
Q 14.796875 37.75 14.796875 27.984375 
Q 14.796875 18.265625 18.828125 12.890625 
Q 22.859375 7.515625 30.078125 7.515625 
Q 37.359375 7.515625 41.375 12.890625 
Q 45.40625 18.265625 45.40625 27.984375 
z
M 54.390625 6.78125 
Q 54.390625 -7.171875 48.1875 -13.984375 
Q 42 -20.796875 29.203125 -20.796875 
Q 24.46875 -20.796875 20.265625 -20.09375 
Q 16.0625 -19.390625 12.109375 -17.921875 
L 12.109375 -9.1875 
Q 16.0625 -11.328125 19.921875 -12.34375 
Q 23.78125 -13.375 27.78125 -13.375 
Q 36.625 -13.375 41.015625 -8.765625 
Q 45.40625 -4.15625 45.40625 5.171875 
L 45.40625 9.625 
Q 42.625 4.78125 38.28125 2.390625 
Q 33.9375 0 27.875 0 
Q 17.828125 0 11.671875 7.65625 
Q 5.515625 15.328125 5.515625 27.984375 
Q 5.515625 40.671875 11.671875 48.328125 
Q 17.828125 56 27.875 56 
Q 33.9375 56 38.28125 53.609375 
Q 42.625 51.21875 45.40625 46.390625 
L 45.40625 54.6875 
L 54.390625 54.6875 
z
" id="DejaVuSans-103"/>
       <path d="M 12.40625 8.296875 
L 28.515625 8.296875 
L 28.515625 63.921875 
L 10.984375 60.40625 
L 10.984375 69.390625 
L 28.421875 72.90625 
L 38.28125 72.90625 
L 38.28125 8.296875 
L 54.390625 8.296875 
L 54.390625 0 
L 12.40625 0 
z
" id="DejaVuSans-49"/>
       <path d="M 31 75.875 
Q 24.46875 64.65625 21.28125 53.65625 
Q 18.109375 42.671875 18.109375 31.390625 
Q 18.109375 20.125 21.3125 9.0625 
Q 24.515625 -2 31 -13.1875 
L 23.1875 -13.1875 
Q 15.875 -1.703125 12.234375 9.375 
Q 8.59375 20.453125 8.59375 31.390625 
Q 8.59375 42.28125 12.203125 53.3125 
Q 15.828125 64.359375 23.1875 75.875 
z
" id="DejaVuSans-40"/>
       <path d="M 51.125 44 
L 36.921875 44 
L 32.8125 27.6875 
L 47.125 27.6875 
z
M 43.796875 71.78125 
L 38.71875 51.515625 
L 52.984375 51.515625 
L 58.109375 71.78125 
L 65.921875 71.78125 
L 60.890625 51.515625 
L 76.125 51.515625 
L 76.125 44 
L 58.984375 44 
L 54.984375 27.6875 
L 70.515625 27.6875 
L 70.515625 20.21875 
L 53.078125 20.21875 
L 48 0 
L 40.1875 0 
L 45.21875 20.21875 
L 30.90625 20.21875 
L 25.875 0 
L 18.015625 0 
L 23.09375 20.21875 
L 7.71875 20.21875 
L 7.71875 27.6875 
L 24.90625 27.6875 
L 29 44 
L 13.28125 44 
L 13.28125 51.515625 
L 30.90625 51.515625 
L 35.890625 71.78125 
z
" id="DejaVuSans-35"/>
       <path id="DejaVuSans-32"/>
       <path d="M 37.109375 75.984375 
L 37.109375 68.5 
L 28.515625 68.5 
Q 23.6875 68.5 21.796875 66.546875 
Q 19.921875 64.59375 19.921875 59.515625 
L 19.921875 54.6875 
L 34.71875 54.6875 
L 34.71875 47.703125 
L 19.921875 47.703125 
L 19.921875 0 
L 10.890625 0 
L 10.890625 47.703125 
L 2.296875 47.703125 
L 2.296875 54.6875 
L 10.890625 54.6875 
L 10.890625 58.5 
Q 10.890625 67.625 15.140625 71.796875 
Q 19.390625 75.984375 28.609375 75.984375 
z
" id="DejaVuSans-102"/>
       <path d="M 46 62.703125 
L 46 35.5 
L 73.1875 35.5 
L 73.1875 27.203125 
L 46 27.203125 
L 46 0 
L 37.796875 0 
L 37.796875 27.203125 
L 10.59375 27.203125 
L 10.59375 35.5 
L 37.796875 35.5 
L 37.796875 62.703125 
z
" id="DejaVuSans-43"/>
       <path d="M 8.015625 75.875 
L 15.828125 75.875 
Q 23.140625 64.359375 26.78125 53.3125 
Q 30.421875 42.28125 30.421875 31.390625 
Q 30.421875 20.453125 26.78125 9.375 
Q 23.140625 -1.703125 15.828125 -13.1875 
L 8.015625 -13.1875 
Q 14.5 -2 17.703125 9.0625 
Q 20.90625 20.125 20.90625 31.390625 
Q 20.90625 42.671875 17.703125 53.65625 
Q 14.5 64.65625 8.015625 75.875 
z
" id="DejaVuSans-41"/>
       <path d="M 4.890625 31.390625 
L 31.203125 31.390625 
L 31.203125 23.390625 
L 4.890625 23.390625 
z
" id="DejaVuSans-45"/>
       <path d="M 56.203125 29.59375 
L 56.203125 25.203125 
L 14.890625 25.203125 
Q 15.484375 15.921875 20.484375 11.0625 
Q 25.484375 6.203125 34.421875 6.203125 
Q 39.59375 6.203125 44.453125 7.46875 
Q 49.3125 8.734375 54.109375 11.28125 
L 54.109375 2.78125 
Q 49.265625 0.734375 44.1875 -0.34375 
Q 39.109375 -1.421875 33.890625 -1.421875 
Q 20.796875 -1.421875 13.15625 6.1875 
Q 5.515625 13.8125 5.515625 26.8125 
Q 5.515625 40.234375 12.765625 48.109375 
Q 20.015625 56 32.328125 56 
Q 43.359375 56 49.78125 48.890625 
Q 56.203125 41.796875 56.203125 29.59375 
z
M 47.21875 32.234375 
Q 47.125 39.59375 43.09375 43.984375 
Q 39.0625 48.390625 32.421875 48.390625 
Q 24.90625 48.390625 20.390625 44.140625 
Q 15.875 39.890625 15.1875 32.171875 
z
" id="DejaVuSans-101"/>
       <path d="M 2.984375 54.6875 
L 12.5 54.6875 
L 29.59375 8.796875 
L 46.6875 54.6875 
L 56.203125 54.6875 
L 35.6875 0 
L 23.484375 0 
z
" id="DejaVuSans-118"/>
       <path d="M 34.28125 27.484375 
Q 23.390625 27.484375 19.1875 25 
Q 14.984375 22.515625 14.984375 16.5 
Q 14.984375 11.71875 18.140625 8.90625 
Q 21.296875 6.109375 26.703125 6.109375 
Q 34.1875 6.109375 38.703125 11.40625 
Q 43.21875 16.703125 43.21875 25.484375 
L 43.21875 27.484375 
z
M 52.203125 31.203125 
L 52.203125 0 
L 43.21875 0 
L 43.21875 8.296875 
Q 40.140625 3.328125 35.546875 0.953125 
Q 30.953125 -1.421875 24.3125 -1.421875 
Q 15.921875 -1.421875 10.953125 3.296875 
Q 6 8.015625 6 15.921875 
Q 6 25.140625 12.171875 29.828125 
Q 18.359375 34.515625 30.609375 34.515625 
L 43.21875 34.515625 
L 43.21875 35.40625 
Q 43.21875 41.609375 39.140625 45 
Q 35.0625 48.390625 27.6875 48.390625 
Q 23 48.390625 18.546875 47.265625 
Q 14.109375 46.140625 10.015625 43.890625 
L 10.015625 52.203125 
Q 14.9375 54.109375 19.578125 55.046875 
Q 24.21875 56 28.609375 56 
Q 40.484375 56 46.34375 49.84375 
Q 52.203125 43.703125 52.203125 31.203125 
z
" id="DejaVuSans-97"/>
       <path d="M 44.28125 53.078125 
L 44.28125 44.578125 
Q 40.484375 46.53125 36.375 47.5 
Q 32.28125 48.484375 27.875 48.484375 
Q 21.1875 48.484375 17.84375 46.4375 
Q 14.5 44.390625 14.5 40.28125 
Q 14.5 37.15625 16.890625 35.375 
Q 19.28125 33.59375 26.515625 31.984375 
L 29.59375 31.296875 
Q 39.15625 29.25 43.1875 25.515625 
Q 47.21875 21.78125 47.21875 15.09375 
Q 47.21875 7.46875 41.1875 3.015625 
Q 35.15625 -1.421875 24.609375 -1.421875 
Q 20.21875 -1.421875 15.453125 -0.5625 
Q 10.6875 0.296875 5.421875 2 
L 5.421875 11.28125 
Q 10.40625 8.6875 15.234375 7.390625 
Q 20.0625 6.109375 24.8125 6.109375 
Q 31.15625 6.109375 34.5625 8.28125 
Q 37.984375 10.453125 37.984375 14.40625 
Q 37.984375 18.0625 35.515625 20.015625 
Q 33.0625 21.96875 24.703125 23.78125 
L 21.578125 24.515625 
Q 13.234375 26.265625 9.515625 29.90625 
Q 5.8125 33.546875 5.8125 39.890625 
Q 5.8125 47.609375 11.28125 51.796875 
Q 16.75 56 26.8125 56 
Q 31.78125 56 36.171875 55.265625 
Q 40.578125 54.546875 44.28125 53.078125 
z
" id="DejaVuSans-115"/>
       <path d="M 25.390625 72.90625 
L 33.6875 72.90625 
L 8.296875 -9.28125 
L 0 -9.28125 
z
" id="DejaVuSans-47"/>
       <path d="M 45.40625 46.390625 
L 45.40625 75.984375 
L 54.390625 75.984375 
L 54.390625 0 
L 45.40625 0 
L 45.40625 8.203125 
Q 42.578125 3.328125 38.25 0.953125 
Q 33.9375 -1.421875 27.875 -1.421875 
Q 17.96875 -1.421875 11.734375 6.484375 
Q 5.515625 14.40625 5.515625 27.296875 
Q 5.515625 40.1875 11.734375 48.09375 
Q 17.96875 56 27.875 56 
Q 33.9375 56 38.25 53.625 
Q 42.578125 51.265625 45.40625 46.390625 
z
M 14.796875 27.296875 
Q 14.796875 17.390625 18.875 11.75 
Q 22.953125 6.109375 30.078125 6.109375 
Q 37.203125 6.109375 41.296875 11.75 
Q 45.40625 17.390625 45.40625 27.296875 
Q 45.40625 37.203125 41.296875 42.84375 
Q 37.203125 48.484375 30.078125 48.484375 
Q 22.953125 48.484375 18.875 42.84375 
Q 14.796875 37.203125 14.796875 27.296875 
z
" id="DejaVuSans-100"/>
       <path d="M 9.421875 54.6875 
L 18.40625 54.6875 
L 18.40625 0 
L 9.421875 0 
z
M 9.421875 75.984375 
L 18.40625 75.984375 
L 18.40625 64.59375 
L 9.421875 64.59375 
z
" id="DejaVuSans-105"/>
       <path d="M 52 44.1875 
Q 55.375 50.25 60.0625 53.125 
Q 64.75 56 71.09375 56 
Q 79.640625 56 84.28125 50.015625 
Q 88.921875 44.046875 88.921875 33.015625 
L 88.921875 0 
L 79.890625 0 
L 79.890625 32.71875 
Q 79.890625 40.578125 77.09375 44.375 
Q 74.3125 48.1875 68.609375 48.1875 
Q 61.625 48.1875 57.5625 43.546875 
Q 53.515625 38.921875 53.515625 30.90625 
L 53.515625 0 
L 44.484375 0 
L 44.484375 32.71875 
Q 44.484375 40.625 41.703125 44.40625 
Q 38.921875 48.1875 33.109375 48.1875 
Q 26.21875 48.1875 22.15625 43.53125 
Q 18.109375 38.875 18.109375 30.90625 
L 18.109375 0 
L 9.078125 0 
L 9.078125 54.6875 
L 18.109375 54.6875 
L 18.109375 46.1875 
Q 21.1875 51.21875 25.484375 53.609375 
Q 29.78125 56 35.6875 56 
Q 41.65625 56 45.828125 52.96875 
Q 50 49.953125 52 44.1875 
z
" id="DejaVuSans-109"/>
       <path d="M 54.890625 33.015625 
L 54.890625 0 
L 45.90625 0 
L 45.90625 32.71875 
Q 45.90625 40.484375 42.875 44.328125 
Q 39.84375 48.1875 33.796875 48.1875 
Q 26.515625 48.1875 22.3125 43.546875 
Q 18.109375 38.921875 18.109375 30.90625 
L 18.109375 0 
L 9.078125 0 
L 9.078125 54.6875 
L 18.109375 54.6875 
L 18.109375 46.1875 
Q 21.34375 51.125 25.703125 53.5625 
Q 30.078125 56 35.796875 56 
Q 45.21875 56 50.046875 50.171875 
Q 54.890625 44.34375 54.890625 33.015625 
z
" id="DejaVuSans-110"/>
      </defs>
      <use xlink:href="#DejaVuSans-108"/>
      <use x="27.783203" xlink:href="#DejaVuSans-111"/>
      <use x="88.964844" xlink:href="#DejaVuSans-103"/>
      <use x="152.441406" xlink:href="#DejaVuSans-49"/>
      <use x="216.064453" xlink:href="#DejaVuSans-48"/>
      <use x="279.6875" xlink:href="#DejaVuSans-40"/>
      <use x="318.701172" xlink:href="#DejaVuSans-35"/>
      <use x="402.490234" xlink:href="#DejaVuSans-32"/>
      <use x="434.277344" xlink:href="#DejaVuSans-40"/>
      <use x="473.291016" xlink:href="#DejaVuSans-102"/>
      <use x="508.496094" xlink:href="#DejaVuSans-43"/>
      <use x="592.285156" xlink:href="#DejaVuSans-103"/>
      <use x="655.761719" xlink:href="#DejaVuSans-41"/>
      <use x="694.775391" xlink:href="#DejaVuSans-45"/>
      <use x="730.859375" xlink:href="#DejaVuSans-101"/>
      <use x="792.382812" xlink:href="#DejaVuSans-118"/>
      <use x="851.5625" xlink:href="#DejaVuSans-97"/>
      <use x="912.841797" xlink:href="#DejaVuSans-108"/>
      <use x="940.625" xlink:href="#DejaVuSans-115"/>
      <use x="992.724609" xlink:href="#DejaVuSans-32"/>
      <use x="1024.511719" xlink:href="#DejaVuSans-47"/>
      <use x="1058.203125" xlink:href="#DejaVuSans-32"/>
      <use x="1089.990234" xlink:href="#DejaVuSans-100"/>
      <use x="1153.466797" xlink:href="#DejaVuSans-105"/>
      <use x="1181.25" xlink:href="#DejaVuSans-109"/>
      <use x="1278.662109" xlink:href="#DejaVuSans-101"/>
      <use x="1340.185547" xlink:href="#DejaVuSans-110"/>
      <use x="1403.564453" xlink:href="#DejaVuSans-115"/>
      <use x="1455.664062" xlink:href="#DejaVuSans-105"/>
      <use x="1483.447266" xlink:href="#DejaVuSans-111"/>
      <use x="1544.628906" xlink:href="#DejaVuSans-110"/>
      <use x="1608.007812" xlink:href="#DejaVuSans-41"/>
     </g>
    </g>
   </g>
   <g id="matplotlib.axis_2">
    <g id="ytick_1">
     <g id="line2d_17">
      <path clip-path="url(#p4f110b07fb)" d="M 57.6 298.944 
L 338.688 298.944 
" style="fill:none;stroke:#b0b0b0;stroke-linecap:square;stroke-width:0.8;"/>
     </g>
     <g id="line2d_18">
      <defs>
       <path d="M 0 0 
L -3.5 0 
" id="ma0dd0e1e5f" style="stroke:#000000;stroke-width:0.8;"/>
      </defs>
      <g>
       <use style="stroke:#000000;stroke-width:0.8;" x="57.6" xlink:href="#ma0dd0e1e5f" y="298.944"/>
      </g>
     </g>
     <g id="text_6">
      <!-- 0.0 -->
      <g transform="translate(25.155 305.02275)scale(0.16 -0.16)">
       <defs>
        <path d="M 10.6875 12.40625 
L 21 12.40625 
L 21 0 
L 10.6875 0 
z
" id="DejaVuSans-46"/>
       </defs>
       <use xlink:href="#DejaVuSans-48"/>
       <use x="63.623047" xlink:href="#DejaVuSans-46"/>
       <use x="95.410156" xlink:href="#DejaVuSans-48"/>
      </g>
     </g>
    </g>
    <g id="ytick_2">
     <g id="line2d_19">
      <path clip-path="url(#p4f110b07fb)" d="M 57.6 245.22202 
L 338.688 245.22202 
" style="fill:none;stroke:#b0b0b0;stroke-linecap:square;stroke-width:0.8;"/>
     </g>
     <g id="line2d_20">
      <g>
       <use style="stroke:#000000;stroke-width:0.8;" x="57.6" xlink:href="#ma0dd0e1e5f" y="245.22202"/>
      </g>
     </g>
     <g id="text_7">
      <!-- 0.2 -->
      <g transform="translate(25.155 251.30077)scale(0.16 -0.16)">
       <use xlink:href="#DejaVuSans-48"/>
       <use x="63.623047" xlink:href="#DejaVuSans-46"/>
       <use x="95.410156" xlink:href="#DejaVuSans-50"/>
      </g>
     </g>
    </g>
    <g id="ytick_3">
     <g id="line2d_21">
      <path clip-path="url(#p4f110b07fb)" d="M 57.6 191.50004 
L 338.688 191.50004 
" style="fill:none;stroke:#b0b0b0;stroke-linecap:square;stroke-width:0.8;"/>
     </g>
     <g id="line2d_22">
      <g>
       <use style="stroke:#000000;stroke-width:0.8;" x="57.6" xlink:href="#ma0dd0e1e5f" y="191.50004"/>
      </g>
     </g>
     <g id="text_8">
      <!-- 0.4 -->
      <g transform="translate(25.155 197.57879)scale(0.16 -0.16)">
       <use xlink:href="#DejaVuSans-48"/>
       <use x="63.623047" xlink:href="#DejaVuSans-46"/>
       <use x="95.410156" xlink:href="#DejaVuSans-52"/>
      </g>
     </g>
    </g>
    <g id="ytick_4">
     <g id="line2d_23">
      <path clip-path="url(#p4f110b07fb)" d="M 57.6 137.778059 
L 338.688 137.778059 
" style="fill:none;stroke:#b0b0b0;stroke-linecap:square;stroke-width:0.8;"/>
     </g>
     <g id="line2d_24">
      <g>
       <use style="stroke:#000000;stroke-width:0.8;" x="57.6" xlink:href="#ma0dd0e1e5f" y="137.778059"/>
      </g>
     </g>
     <g id="text_9">
      <!-- 0.6 -->
      <g transform="translate(25.155 143.856809)scale(0.16 -0.16)">
       <use xlink:href="#DejaVuSans-48"/>
       <use x="63.623047" xlink:href="#DejaVuSans-46"/>
       <use x="95.410156" xlink:href="#DejaVuSans-54"/>
      </g>
     </g>
    </g>
    <g id="ytick_5">
     <g id="line2d_25">
      <path clip-path="url(#p4f110b07fb)" d="M 57.6 84.056079 
L 338.688 84.056079 
" style="fill:none;stroke:#b0b0b0;stroke-linecap:square;stroke-width:0.8;"/>
     </g>
     <g id="line2d_26">
      <g>
       <use style="stroke:#000000;stroke-width:0.8;" x="57.6" xlink:href="#ma0dd0e1e5f" y="84.056079"/>
      </g>
     </g>
     <g id="text_10">
      <!-- 0.8 -->
      <g transform="translate(25.155 90.134829)scale(0.16 -0.16)">
       <defs>
        <path d="M 31.78125 34.625 
Q 24.75 34.625 20.71875 30.859375 
Q 16.703125 27.09375 16.703125 20.515625 
Q 16.703125 13.921875 20.71875 10.15625 
Q 24.75 6.390625 31.78125 6.390625 
Q 38.8125 6.390625 42.859375 10.171875 
Q 46.921875 13.96875 46.921875 20.515625 
Q 46.921875 27.09375 42.890625 30.859375 
Q 38.875 34.625 31.78125 34.625 
z
M 21.921875 38.8125 
Q 15.578125 40.375 12.03125 44.71875 
Q 8.5 49.078125 8.5 55.328125 
Q 8.5 64.0625 14.71875 69.140625 
Q 20.953125 74.21875 31.78125 74.21875 
Q 42.671875 74.21875 48.875 69.140625 
Q 55.078125 64.0625 55.078125 55.328125 
Q 55.078125 49.078125 51.53125 44.71875 
Q 48 40.375 41.703125 38.8125 
Q 48.828125 37.15625 52.796875 32.3125 
Q 56.78125 27.484375 56.78125 20.515625 
Q 56.78125 9.90625 50.3125 4.234375 
Q 43.84375 -1.421875 31.78125 -1.421875 
Q 19.734375 -1.421875 13.25 4.234375 
Q 6.78125 9.90625 6.78125 20.515625 
Q 6.78125 27.484375 10.78125 32.3125 
Q 14.796875 37.15625 21.921875 38.8125 
z
M 18.3125 54.390625 
Q 18.3125 48.734375 21.84375 45.5625 
Q 25.390625 42.390625 31.78125 42.390625 
Q 38.140625 42.390625 41.71875 45.5625 
Q 45.3125 48.734375 45.3125 54.390625 
Q 45.3125 60.0625 41.71875 63.234375 
Q 38.140625 66.40625 31.78125 66.40625 
Q 25.390625 66.40625 21.84375 63.234375 
Q 18.3125 60.0625 18.3125 54.390625 
z
" id="DejaVuSans-56"/>
       </defs>
       <use xlink:href="#DejaVuSans-48"/>
       <use x="63.623047" xlink:href="#DejaVuSans-46"/>
       <use x="95.410156" xlink:href="#DejaVuSans-56"/>
      </g>
     </g>
    </g>
    <g id="ytick_6">
     <g id="line2d_27">
      <path clip-path="url(#p4f110b07fb)" d="M 57.6 30.334099 
L 338.688 30.334099 
" style="fill:none;stroke:#b0b0b0;stroke-linecap:square;stroke-width:0.8;"/>
     </g>
     <g id="line2d_28">
      <g>
       <use style="stroke:#000000;stroke-width:0.8;" x="57.6" xlink:href="#ma0dd0e1e5f" y="30.334099"/>
      </g>
     </g>
     <g id="text_11">
      <!-- 1.0 -->
      <g transform="translate(25.155 36.412849)scale(0.16 -0.16)">
       <use xlink:href="#DejaVuSans-49"/>
       <use x="63.623047" xlink:href="#DejaVuSans-46"/>
       <use x="95.410156" xlink:href="#DejaVuSans-48"/>
      </g>
     </g>
    </g>
    <g id="text_12">
     <!-- Fraction of function,target pairs -->
     <g transform="translate(17.619531 297.681)rotate(-90)scale(0.17 -0.17)">
      <defs>
       <path d="M 9.8125 72.90625 
L 51.703125 72.90625 
L 51.703125 64.59375 
L 19.671875 64.59375 
L 19.671875 43.109375 
L 48.578125 43.109375 
L 48.578125 34.8125 
L 19.671875 34.8125 
L 19.671875 0 
L 9.8125 0 
z
" id="DejaVuSans-70"/>
       <path d="M 41.109375 46.296875 
Q 39.59375 47.171875 37.8125 47.578125 
Q 36.03125 48 33.890625 48 
Q 26.265625 48 22.1875 43.046875 
Q 18.109375 38.09375 18.109375 28.8125 
L 18.109375 0 
L 9.078125 0 
L 9.078125 54.6875 
L 18.109375 54.6875 
L 18.109375 46.1875 
Q 20.953125 51.171875 25.484375 53.578125 
Q 30.03125 56 36.53125 56 
Q 37.453125 56 38.578125 55.875 
Q 39.703125 55.765625 41.0625 55.515625 
z
" id="DejaVuSans-114"/>
       <path d="M 48.78125 52.59375 
L 48.78125 44.1875 
Q 44.96875 46.296875 41.140625 47.34375 
Q 37.3125 48.390625 33.40625 48.390625 
Q 24.65625 48.390625 19.8125 42.84375 
Q 14.984375 37.3125 14.984375 27.296875 
Q 14.984375 17.28125 19.8125 11.734375 
Q 24.65625 6.203125 33.40625 6.203125 
Q 37.3125 6.203125 41.140625 7.25 
Q 44.96875 8.296875 48.78125 10.40625 
L 48.78125 2.09375 
Q 45.015625 0.34375 40.984375 -0.53125 
Q 36.96875 -1.421875 32.421875 -1.421875 
Q 20.0625 -1.421875 12.78125 6.34375 
Q 5.515625 14.109375 5.515625 27.296875 
Q 5.515625 40.671875 12.859375 48.328125 
Q 20.21875 56 33.015625 56 
Q 37.15625 56 41.109375 55.140625 
Q 45.0625 54.296875 48.78125 52.59375 
z
" id="DejaVuSans-99"/>
       <path d="M 18.3125 70.21875 
L 18.3125 54.6875 
L 36.8125 54.6875 
L 36.8125 47.703125 
L 18.3125 47.703125 
L 18.3125 18.015625 
Q 18.3125 11.328125 20.140625 9.421875 
Q 21.96875 7.515625 27.59375 7.515625 
L 36.8125 7.515625 
L 36.8125 0 
L 27.59375 0 
Q 17.1875 0 13.234375 3.875 
Q 9.28125 7.765625 9.28125 18.015625 
L 9.28125 47.703125 
L 2.6875 47.703125 
L 2.6875 54.6875 
L 9.28125 54.6875 
L 9.28125 70.21875 
z
" id="DejaVuSans-116"/>
       <path d="M 8.5 21.578125 
L 8.5 54.6875 
L 17.484375 54.6875 
L 17.484375 21.921875 
Q 17.484375 14.15625 20.5 10.265625 
Q 23.53125 6.390625 29.59375 6.390625 
Q 36.859375 6.390625 41.078125 11.03125 
Q 45.3125 15.671875 45.3125 23.6875 
L 45.3125 54.6875 
L 54.296875 54.6875 
L 54.296875 0 
L 45.3125 0 
L 45.3125 8.40625 
Q 42.046875 3.421875 37.71875 1 
Q 33.40625 -1.421875 27.6875 -1.421875 
Q 18.265625 -1.421875 13.375 4.4375 
Q 8.5 10.296875 8.5 21.578125 
z
M 31.109375 56 
z
" id="DejaVuSans-117"/>
       <path d="M 11.71875 12.40625 
L 22.015625 12.40625 
L 22.015625 4 
L 14.015625 -11.625 
L 7.71875 -11.625 
L 11.71875 4 
z
" id="DejaVuSans-44"/>
       <path d="M 18.109375 8.203125 
L 18.109375 -20.796875 
L 9.078125 -20.796875 
L 9.078125 54.6875 
L 18.109375 54.6875 
L 18.109375 46.390625 
Q 20.953125 51.265625 25.265625 53.625 
Q 29.59375 56 35.59375 56 
Q 45.5625 56 51.78125 48.09375 
Q 58.015625 40.1875 58.015625 27.296875 
Q 58.015625 14.40625 51.78125 6.484375 
Q 45.5625 -1.421875 35.59375 -1.421875 
Q 29.59375 -1.421875 25.265625 0.953125 
Q 20.953125 3.328125 18.109375 8.203125 
z
M 48.6875 27.296875 
Q 48.6875 37.203125 44.609375 42.84375 
Q 40.53125 48.484375 33.40625 48.484375 
Q 26.265625 48.484375 22.1875 42.84375 
Q 18.109375 37.203125 18.109375 27.296875 
Q 18.109375 17.390625 22.1875 11.75 
Q 26.265625 6.109375 33.40625 6.109375 
Q 40.53125 6.109375 44.609375 11.75 
Q 48.6875 17.390625 48.6875 27.296875 
z
" id="DejaVuSans-112"/>
      </defs>
      <use xlink:href="#DejaVuSans-70"/>
      <use x="50.269531" xlink:href="#DejaVuSans-114"/>
      <use x="91.382812" xlink:href="#DejaVuSans-97"/>
      <use x="152.662109" xlink:href="#DejaVuSans-99"/>
      <use x="207.642578" xlink:href="#DejaVuSans-116"/>
      <use x="246.851562" xlink:href="#DejaVuSans-105"/>
      <use x="274.634766" xlink:href="#DejaVuSans-111"/>
      <use x="335.816406" xlink:href="#DejaVuSans-110"/>
      <use x="399.195312" xlink:href="#DejaVuSans-32"/>
      <use x="430.982422" xlink:href="#DejaVuSans-111"/>
      <use x="492.164062" xlink:href="#DejaVuSans-102"/>
      <use x="527.369141" xlink:href="#DejaVuSans-32"/>
      <use x="559.15625" xlink:href="#DejaVuSans-102"/>
      <use x="594.361328" xlink:href="#DejaVuSans-117"/>
      <use x="657.740234" xlink:href="#DejaVuSans-110"/>
      <use x="721.119141" xlink:href="#DejaVuSans-99"/>
      <use x="776.099609" xlink:href="#DejaVuSans-116"/>
      <use x="815.308594" xlink:href="#DejaVuSans-105"/>
      <use x="843.091797" xlink:href="#DejaVuSans-111"/>
      <use x="904.273438" xlink:href="#DejaVuSans-110"/>
      <use x="967.652344" xlink:href="#DejaVuSans-44"/>
      <use x="999.439453" xlink:href="#DejaVuSans-116"/>
      <use x="1038.648438" xlink:href="#DejaVuSans-97"/>
      <use x="1099.927734" xlink:href="#DejaVuSans-114"/>
      <use x="1139.291016" xlink:href="#DejaVuSans-103"/>
      <use x="1202.767578" xlink:href="#DejaVuSans-101"/>
      <use x="1264.291016" xlink:href="#DejaVuSans-116"/>
      <use x="1303.5" xlink:href="#DejaVuSans-32"/>
      <use x="1335.287109" xlink:href="#DejaVuSans-112"/>
      <use x="1398.763672" xlink:href="#DejaVuSans-97"/>
      <use x="1460.042969" xlink:href="#DejaVuSans-105"/>
      <use x="1487.826172" xlink:href="#DejaVuSans-114"/>
      <use x="1528.939453" xlink:href="#DejaVuSans-115"/>
     </g>
    </g>
   </g>
   <g id="line2d_29">
    <defs>
     <path d="M 0 1.5 
C 0.397805 1.5 0.77937 1.341951 1.06066 1.06066 
C 1.341951 0.77937 1.5 0.397805 1.5 0 
C 1.5 -0.397805 1.341951 -0.77937 1.06066 -1.06066 
C 0.77937 -1.341951 0.397805 -1.5 0 -1.5 
C -0.397805 -1.5 -0.77937 -1.341951 -1.06066 -1.06066 
C -1.341951 -0.77937 -1.5 -0.397805 -1.5 0 
C -1.5 0.397805 -1.341951 0.77937 -1.06066 1.06066 
C -0.77937 1.341951 -0.397805 1.5 0 1.5 
z
" id="m78f51262de" style="stroke:#000080;"/>
    </defs>
    <g>
     <use style="fill:#000080;stroke:#000080;" x="216.806037" xlink:href="#m78f51262de" y="95.848709"/>
     <use style="fill:#000080;stroke:#000080;" x="216.806037" xlink:href="#m78f51262de" y="95.848709"/>
    </g>
   </g>
   <g id="line2d_30">
    <path d="M 71.74204 298.944 
L 71.74204 296.978562 
L 76.465904 296.978562 
L 76.465904 296.323416 
L 77.609874 296.323416 
L 77.609874 295.66827 
L 78.683399 295.66827 
L 78.683399 294.357977 
L 81.556612 294.357977 
L 81.556612 293.702831 
L 81.992617 293.702831 
L 81.992617 293.047685 
L 82.417986 293.047685 
L 82.417986 292.392539 
L 85.136253 292.392539 
L 85.136253 291.737393 
L 85.492169 291.737393 
L 85.492169 290.427101 
L 85.840967 290.427101 
L 85.840967 288.461662 
L 86.518305 288.461662 
L 86.518305 286.496224 
L 88.991722 286.496224 
L 88.991722 285.185932 
L 89.835723 285.185932 
L 89.835723 283.87564 
L 90.640756 283.87564 
L 90.640756 283.220494 
L 91.410261 283.220494 
L 91.410261 282.565348 
L 92.147241 282.565348 
L 92.147241 281.910201 
L 92.386139 281.910201 
L 92.386139 280.599909 
L 92.621809 280.599909 
L 92.621809 279.944763 
L 93.310291 279.944763 
L 93.310291 279.289617 
L 93.754628 279.289617 
L 93.754628 277.979325 
L 94.400601 277.979325 
L 94.400601 277.324179 
L 94.610715 277.324179 
L 94.610715 276.013887 
L 94.818328 276.013887 
L 94.818328 275.35874 
L 95.426737 275.35874 
L 95.426737 273.393302 
L 95.820862 273.393302 
L 95.820862 271.427864 
L 96.014634 271.427864 
L 96.014634 270.772718 
L 96.206276 270.772718 
L 96.206276 270.117572 
L 96.395835 270.117572 
L 96.395835 268.807279 
L 97.491858 268.807279 
L 97.491858 268.152133 
L 97.842408 268.152133 
L 97.842408 266.841841 
L 98.015075 266.841841 
L 98.015075 265.531549 
L 98.18605 265.531549 
L 98.18605 264.876403 
L 98.355365 264.876403 
L 98.355365 263.566111 
L 98.523051 263.566111 
L 98.523051 260.945526 
L 99.178125 260.945526 
L 99.178125 260.29038 
L 99.338119 260.29038 
L 99.338119 259.635234 
L 99.80948 259.635234 
L 99.80948 258.324942 
L 100.418775 258.324942 
L 100.418775 257.669796 
L 101.576995 257.669796 
L 101.576995 255.049211 
L 101.992235 255.049211 
L 101.992235 253.738919 
L 102.12848 253.738919 
L 102.12848 253.083773 
L 102.263669 253.083773 
L 102.263669 250.463189 
L 102.397818 250.463189 
L 102.397818 247.842604 
L 102.530943 247.842604 
L 102.530943 246.532312 
L 102.66306 246.532312 
L 102.66306 241.291143 
L 102.794183 241.291143 
L 102.794183 238.670559 
L 103.181738 238.670559 
L 103.181738 237.360267 
L 103.309033 237.360267 
L 103.309033 236.705121 
L 103.435405 236.705121 
L 103.435405 235.394828 
L 103.809118 235.394828 
L 103.809118 234.739682 
L 104.053884 234.739682 
L 104.053884 234.084536 
L 105.114708 234.084536 
L 105.114708 233.42939 
L 105.22869 233.42939 
L 105.22869 231.463952 
L 105.341933 231.463952 
L 105.341933 230.808806 
L 105.677314 230.808806 
L 105.677314 230.15366 
L 105.897371 230.15366 
L 106.006367 228.843367 
L 106.222336 228.843367 
L 106.329326 226.877929 
L 106.646412 226.877929 
L 106.750839 223.602199 
L 106.957836 223.602199 
L 106.957836 222.291906 
L 107.464828 222.291906 
L 107.464828 220.981614 
L 108.054381 220.981614 
L 108.054381 220.326468 
L 108.246551 220.326468 
L 108.341848 217.705884 
L 108.436627 217.705884 
L 108.530893 213.119861 
L 108.717912 213.119861 
L 108.810674 211.809569 
L 108.902946 211.809569 
L 108.902946 211.154423 
L 109.267226 211.154423 
L 109.267226 209.84413 
L 109.446552 209.84413 
L 109.446552 208.533838 
L 109.624052 208.533838 
L 109.71213 202.637523 
L 109.799764 202.637523 
L 109.886961 199.361793 
L 109.973724 199.361793 
L 109.973724 196.086062 
L 110.145965 196.086062 
L 110.145965 195.430916 
L 110.485426 195.430916 
L 110.569269 191.50004 
L 110.818406 191.50004 
L 110.900667 189.534601 
L 110.982542 189.534601 
L 111.064034 184.948579 
L 111.225884 184.948579 
L 111.225884 183.638286 
L 111.386247 183.638286 
L 111.465878 181.672848 
L 111.545148 181.672848 
L 111.545148 178.397118 
L 111.780817 178.397118 
L 111.780817 177.741972 
L 111.936179 177.741972 
L 112.013345 175.776533 
L 112.166658 175.776533 
L 112.166658 174.466241 
L 112.318635 174.466241 
L 112.318635 173.811095 
L 112.544146 173.811095 
L 112.618673 171.845657 
L 112.692883 171.845657 
L 112.692883 171.190511 
L 112.913636 171.190511 
L 112.913636 170.535364 
L 113.13163 170.535364 
L 113.13163 169.880218 
L 113.27546 169.880218 
L 113.27546 169.225072 
L 113.839203 169.225072 
L 113.908407 166.604488 
L 114.045996 166.604488 
L 114.114385 160.053027 
L 114.182507 160.053027 
L 114.182507 159.397881 
L 114.385292 159.397881 
L 114.452366 153.501566 
L 114.519183 153.501566 
L 114.519183 152.84642 
L 114.849483 152.84642 
L 114.914798 151.536128 
L 115.237757 151.536128 
L 115.237757 150.880981 
L 115.866268 150.880981 
L 115.866268 149.570689 
L 115.989297 149.570689 
L 115.989297 148.915543 
L 116.293125 148.915543 
L 116.293125 148.260397 
L 116.532432 148.260397 
L 116.532432 147.605251 
L 116.709783 147.605251 
L 116.709783 146.950105 
L 116.885347 146.950105 
L 116.885347 146.294959 
L 117.001416 146.294959 
L 117.059162 144.32952 
L 117.345058 144.32952 
L 117.345058 143.674374 
L 117.84815 143.674374 
L 117.84815 143.019228 
L 125.665205 143.019228 
L 125.665205 142.364082 
L 130.887729 142.364082 
L 130.887729 141.708936 
L 134.138879 141.708936 
L 134.138879 140.398644 
L 134.859876 140.398644 
L 134.859876 139.088352 
L 135.311005 139.088352 
L 135.311005 138.433206 
L 136.333092 138.433206 
L 136.333092 137.778059 
L 137.884679 137.778059 
L 137.884679 137.122913 
L 139.596763 137.122913 
L 139.596763 136.467767 
L 140.966446 136.467767 
L 140.966446 135.812621 
L 141.809295 135.812621 
L 141.809295 135.157475 
L 147.424279 135.157475 
L 147.515004 133.847183 
L 148.933692 133.847183 
L 148.989216 127.950868 
L 149.191307 127.950868 
L 149.191307 126.640576 
L 149.959563 126.640576 
L 149.959563 125.98543 
L 154.78099 125.98543 
L 154.78099 125.330284 
L 155.119054 125.330284 
L 155.119054 124.675137 
L 160.384537 124.675137 
L 160.384537 124.019991 
L 162.357216 124.019991 
L 162.357216 123.364845 
L 162.964668 123.364845 
L 162.964668 122.709699 
L 163.150238 122.709699 
L 163.260639 119.433969 
L 163.358191 119.433969 
L 163.455199 117.46853 
L 164.45771 117.46853 
L 164.5507 116.158238 
L 164.652607 116.158238 
L 164.682688 114.1928 
L 164.776357 114.1928 
L 164.776357 113.537654 
L 165.547501 113.537654 
L 165.547501 112.882508 
L 166.663955 112.882508 
L 166.663955 111.572215 
L 169.014849 111.572215 
L 169.087957 110.261923 
L 169.128764 110.261923 
L 169.230367 108.296485 
L 169.256398 108.296485 
L 169.325624 106.331047 
L 169.388841 106.331047 
L 169.388841 105.675901 
L 170.474414 105.675901 
L 170.474414 105.020754 
L 171.00529 105.020754 
L 171.090052 103.710462 
L 173.945521 103.710462 
L 173.949938 102.40017 
L 174.13117 102.40017 
L 174.13117 101.745024 
L 177.929726 101.745024 
L 177.929726 101.089878 
L 178.07936 101.089878 
L 178.07936 100.434732 
L 183.101774 100.434732 
L 183.101774 99.779586 
L 186.411499 99.779586 
L 186.411499 99.12444 
L 196.92746 99.12444 
L 196.92746 98.469293 
L 204.328063 98.469293 
L 204.328063 97.814147 
L 213.122588 97.814147 
L 213.122588 97.159001 
L 216.334044 97.159001 
L 216.334044 96.503855 
L 216.806037 96.503855 
L 216.806037 95.848709 
L 338.688 95.848709 
L 338.688 95.848709 
" style="fill:none;stroke:#000080;stroke-linecap:square;stroke-width:1.5;"/>
   </g>
   <g id="line2d_31">
    <defs>
     <path d="M 0 6 
C 1.591219 6 3.117479 5.367802 4.242641 4.242641 
C 5.367802 3.117479 6 1.591219 6 0 
C 6 -1.591219 5.367802 -3.117479 4.242641 -4.242641 
C 3.117479 -5.367802 1.591219 -6 0 -6 
C -1.591219 -6 -3.117479 -5.367802 -4.242641 -4.242641 
C -5.367802 -3.117479 -6 -1.591219 -6 0 
C -6 1.591219 -5.367802 3.117479 -4.242641 4.242641 
C -3.117479 5.367802 -1.591219 6 0 6 
z
" id="mae6be2f4a1" style="stroke:#000080;stroke-width:1.5;"/>
    </defs>
    <g>
     <use style="fill-opacity:0;stroke:#000080;stroke-width:1.5;" x="109.624052" xlink:href="#mae6be2f4a1" y="206.5684"/>
     <use style="fill-opacity:0;stroke:#000080;stroke-width:1.5;" x="148.989216" xlink:href="#mae6be2f4a1" y="133.192037"/>
     <use style="fill-opacity:0;stroke:#000080;stroke-width:1.5;" x="216.806037" xlink:href="#mae6be2f4a1" y="96.503855"/>
     <use style="fill-opacity:0;stroke:#000080;stroke-width:1.5;" x="216.806037" xlink:href="#mae6be2f4a1" y="95.848709"/>
     <use style="fill-opacity:0;stroke:#000080;stroke-width:1.5;" x="338.688" xlink:href="#mae6be2f4a1" y="95.848709"/>
    </g>
   </g>
   <g id="line2d_32">
    <path style="fill:none;stroke:#000080;stroke-linecap:square;stroke-width:1.5;"/>
    <g/>
   </g>
   <g id="line2d_33">
    <path clip-path="url(#p4f110b07fb)" d="M 153.420143 125.98543 
" style="fill:none;stroke:#000080;stroke-linecap:square;stroke-width:1.5;"/>
    <defs>
     <path d="M -12 12 
L 12 -12 
M -12 -12 
L 12 12 
" id="m6d29a1a8eb" style="stroke:#000080;"/>
    </defs>
    <g clip-path="url(#p4f110b07fb)">
     <use style="fill:#000080;stroke:#000080;" x="153.420143" xlink:href="#m6d29a1a8eb" y="125.98543"/>
    </g>
   </g>
   <g id="line2d_34">
    <defs>
     <path d="M 0 1.5 
C 0.397805 1.5 0.77937 1.341951 1.06066 1.06066 
C 1.341951 0.77937 1.5 0.397805 1.5 0 
C 1.5 -0.397805 1.341951 -0.77937 1.06066 -1.06066 
C 0.77937 -1.341951 0.397805 -1.5 0 -1.5 
C -0.397805 -1.5 -0.77937 -1.341951 -1.06066 -1.06066 
C -1.341951 -0.77937 -1.5 -0.397805 -1.5 0 
C -1.5 0.397805 -1.341951 0.77937 -1.06066 1.06066 
C -0.77937 1.341951 -0.397805 1.5 0 1.5 
z
" id="m3a39cb92b7" style="stroke:#ff00ff;"/>
    </defs>
    <g>
     <use style="fill:#ff00ff;stroke:#ff00ff;" x="284.722993" xlink:href="#m3a39cb92b7" y="82.745787"/>
     <use style="fill:#ff00ff;stroke:#ff00ff;" x="284.722993" xlink:href="#m3a39cb92b7" y="82.745787"/>
    </g>
   </g>
   <g id="line2d_35">
    <path d="M 90.771388 298.944 
L 90.771388 298.288854 
L 92.267099 298.288854 
L 92.267099 297.633708 
L 95.125186 297.633708 
L 95.125186 296.323416 
L 98.270913 296.323416 
L 98.270913 295.013123 
L 102.464508 295.013123 
L 102.464508 294.357977 
L 104.23523 294.357977 
L 104.23523 293.702831 
L 105.51043 293.702831 
L 105.51043 290.427101 
L 105.732589 290.427101 
L 105.732589 289.771955 
L 106.168594 289.771955 
L 106.168594 287.15137 
L 106.48859 287.15137 
L 106.48859 285.185932 
L 106.906317 285.185932 
L 106.906317 283.87564 
L 107.614095 283.87564 
L 107.614095 282.565348 
L 108.294265 282.565348 
L 108.294265 281.910201 
L 108.671345 281.910201 
L 108.764355 280.599909 
L 108.856871 280.599909 
L 108.948899 277.979325 
L 109.930396 277.979325 
L 109.930396 277.324179 
L 110.527398 277.324179 
L 110.61104 273.393302 
L 110.694282 273.393302 
L 110.694282 272.08301 
L 111.266113 272.08301 
L 111.266113 271.427864 
L 111.819788 271.427864 
L 111.819788 270.772718 
L 112.58145 270.772718 
L 112.655818 266.841841 
L 113.664983 266.841841 
L 113.664983 263.566111 
L 114.418861 263.566111 
L 114.418861 262.910965 
L 114.685115 262.910965 
L 114.685115 262.255818 
L 114.816733 262.255818 
L 114.816733 261.600672 
L 116.019919 261.600672 
L 116.081002 258.980088 
L 116.262979 258.980088 
L 116.323218 254.394065 
L 116.443076 254.394065 
L 116.443076 253.738919 
L 116.797786 253.738919 
L 116.856209 249.808043 
L 116.972471 249.808043 
L 116.972471 245.877166 
L 117.202696 245.877166 
L 117.202696 245.22202 
L 118.310324 245.22202 
L 118.310324 244.566874 
L 118.629344 244.566874 
L 118.629344 242.601435 
L 118.994305 242.601435 
L 118.994305 241.291143 
L 119.148409 241.291143 
L 119.148409 240.635997 
L 119.65247 240.635997 
L 119.65247 239.980851 
L 121.264855 239.980851 
L 121.264855 238.670559 
L 121.445108 238.670559 
L 121.445108 238.015413 
L 121.974949 238.015413 
L 121.974949 236.049974 
L 122.615387 236.049974 
L 122.615387 234.739682 
L 123.152022 234.739682 
L 123.233135 230.15366 
L 123.394238 230.15366 
L 123.394238 229.498513 
L 124.780872 229.498513 
L 124.780872 228.843367 
L 125.147256 228.843367 
L 125.147256 227.533075 
L 125.961828 227.533075 
L 125.961828 226.877929 
L 126.372183 226.877929 
L 126.372183 224.912491 
L 128.015879 224.912491 
L 128.015879 223.602199 
L 128.560901 223.602199 
L 128.560901 222.947052 
L 128.856489 222.947052 
L 128.856489 220.981614 
L 129.06046 220.981614 
L 129.06046 215.740445 
L 130.045992 215.740445 
L 130.127931 211.809569 
L 132.060454 211.809569 
L 132.060454 211.154423 
L 132.422528 211.154423 
L 132.517825 208.533838 
L 132.683351 208.533838 
L 132.683351 207.223546 
L 133.555497 207.223546 
L 133.555497 204.602962 
L 133.931979 204.602962 
L 133.931979 203.947816 
L 134.428735 203.947816 
L 134.428735 201.327231 
L 135.721125 201.327231 
L 135.721125 199.361793 
L 137.664982 199.361793 
L 137.664982 197.396355 
L 137.928288 197.396355 
L 137.928288 196.741208 
L 141.032186 196.741208 
L 141.032186 194.77577 
L 141.407239 194.77577 
L 141.407239 190.844894 
L 142.133981 190.844894 
L 142.133981 189.534601 
L 143.260342 189.534601 
L 143.260342 188.879455 
L 143.716296 188.879455 
L 143.716296 187.569163 
L 144.221461 187.569163 
L 144.221461 186.914017 
L 144.414696 186.914017 
L 144.414696 184.293433 
L 145.463466 184.293433 
L 145.463466 182.98314 
L 146.324022 182.98314 
L 146.324022 182.327994 
L 146.654584 182.327994 
L 146.654584 181.672848 
L 147.759612 181.672848 
L 147.759612 181.017702 
L 148.27731 181.017702 
L 148.27731 179.70741 
L 148.506778 179.70741 
L 148.506778 178.397118 
L 150.899466 178.397118 
L 150.899466 176.431679 
L 151.975216 176.431679 
L 151.975216 174.466241 
L 153.178403 174.466241 
L 153.178403 173.155949 
L 153.495227 173.155949 
L 153.495227 171.845657 
L 153.679772 171.845657 
L 153.679772 171.190511 
L 155.367568 171.190511 
L 155.412374 168.569926 
L 156.918066 168.569926 
L 156.918066 167.91478 
L 157.837488 167.91478 
L 157.837488 167.259634 
L 157.98704 167.259634 
L 158.058592 164.63905 
L 159.857512 164.63905 
L 159.857512 163.983903 
L 160.157138 163.983903 
L 160.157138 163.328757 
L 160.750792 163.328757 
L 160.750792 162.673611 
L 160.984566 162.673611 
L 160.984566 162.018465 
L 162.230118 162.018465 
L 162.230118 161.363319 
L 162.716232 161.363319 
L 162.716232 160.708173 
L 163.094774 160.708173 
L 163.094774 160.053027 
L 164.082658 160.053027 
L 164.082658 159.397881 
L 164.341251 159.397881 
L 164.341251 158.742735 
L 164.459613 158.742735 
L 164.459613 157.432442 
L 167.554616 157.432442 
L 167.580089 156.12215 
L 168.554604 156.12215 
L 168.563628 154.811858 
L 168.790698 154.811858 
L 168.790698 154.156712 
L 169.886494 154.156712 
L 169.886494 153.501566 
L 172.407511 153.501566 
L 172.417158 152.191274 
L 178.111569 152.191274 
L 178.111569 151.536128 
L 179.642605 151.536128 
L 179.642605 150.880981 
L 181.282137 150.880981 
L 181.316908 149.570689 
L 184.890251 149.570689 
L 184.890251 148.915543 
L 185.215028 148.915543 
L 185.215028 148.260397 
L 187.482411 148.260397 
L 187.55341 146.950105 
L 189.226682 146.950105 
L 189.226682 146.294959 
L 189.466875 146.294959 
L 189.466875 145.639813 
L 189.817073 145.639813 
L 189.817073 144.984667 
L 191.599458 144.984667 
L 191.599458 144.32952 
L 191.792618 144.32952 
L 191.792618 143.674374 
L 192.237754 143.674374 
L 192.237754 143.019228 
L 193.304013 143.019228 
L 193.304013 142.364082 
L 193.963229 142.364082 
L 193.963229 141.708936 
L 194.808019 141.708936 
L 194.808019 141.05379 
L 195.605479 141.05379 
L 195.605479 140.398644 
L 196.109707 140.398644 
L 196.109707 139.743498 
L 196.247358 139.743498 
L 196.247358 139.088352 
L 196.536383 139.088352 
L 196.536383 138.433206 
L 196.737203 138.433206 
L 196.737203 137.778059 
L 198.952842 137.778059 
L 198.952842 137.122913 
L 199.400354 137.122913 
L 199.400354 136.467767 
L 200.509174 136.467767 
L 200.509174 135.812621 
L 200.710255 135.812621 
L 200.710255 135.157475 
L 202.261 135.157475 
L 202.261 134.502329 
L 202.538811 134.502329 
L 202.538811 133.847183 
L 203.169775 133.847183 
L 203.169775 133.192037 
L 204.534184 133.192037 
L 204.534184 132.536891 
L 205.181839 132.536891 
L 205.181839 131.881745 
L 205.36833 131.881745 
L 205.36833 131.226598 
L 206.648533 131.226598 
L 206.648533 130.571452 
L 208.323045 130.571452 
L 208.323045 129.916306 
L 210.154457 129.916306 
L 210.154457 129.26116 
L 211.746839 129.26116 
L 211.746839 128.606014 
L 212.271267 128.606014 
L 212.271267 127.950868 
L 213.342551 127.950868 
L 213.342551 127.295722 
L 215.064883 127.295722 
L 215.064883 126.640576 
L 215.453849 126.640576 
L 215.453849 125.98543 
L 220.089531 125.98543 
L 220.089531 125.330284 
L 220.800879 125.330284 
L 220.800879 124.675137 
L 221.414055 124.675137 
L 221.414055 124.019991 
L 222.419907 124.019991 
L 222.419907 123.364845 
L 223.253282 123.364845 
L 223.253282 122.709699 
L 223.388149 122.709699 
L 223.388149 122.054553 
L 223.612342 122.054553 
L 223.612342 121.399407 
L 224.85276 121.399407 
L 224.85276 120.744261 
L 225.164609 120.744261 
L 225.164609 120.089115 
L 225.843963 120.089115 
L 225.843963 119.433969 
L 227.738067 119.433969 
L 227.738067 118.778823 
L 228.485075 118.778823 
L 228.572087 117.46853 
L 229.103091 117.46853 
L 229.103091 116.813384 
L 232.726946 116.813384 
L 232.726946 116.158238 
L 234.649541 116.158238 
L 234.649541 115.503092 
L 235.626884 115.503092 
L 235.626884 114.847946 
L 235.753826 114.847946 
L 235.788252 113.537654 
L 236.326317 113.537654 
L 236.404016 112.227362 
L 236.639787 112.227362 
L 236.639787 111.572215 
L 237.702741 111.572215 
L 237.702741 110.917069 
L 238.396507 110.917069 
L 238.396507 110.261923 
L 238.672631 110.261923 
L 238.672631 109.606777 
L 239.043181 109.606777 
L 239.043181 108.951631 
L 239.66362 108.951631 
L 239.66362 108.296485 
L 240.513567 108.296485 
L 240.559456 106.986193 
L 240.935518 106.986193 
L 240.935518 106.331047 
L 242.434319 106.331047 
L 242.434319 105.675901 
L 243.330495 105.675901 
L 243.330495 105.020754 
L 244.1729 105.020754 
L 244.1729 104.365608 
L 244.7533 104.365608 
L 244.7533 103.710462 
L 245.005563 103.710462 
L 245.005563 103.055316 
L 246.096471 103.055316 
L 246.110889 101.745024 
L 246.46748 101.745024 
L 246.46748 101.089878 
L 248.366845 101.089878 
L 248.366845 100.434732 
L 248.546237 100.434732 
L 248.63052 99.12444 
L 248.998784 99.12444 
L 249.074135 97.159001 
L 249.510225 97.159001 
L 249.510225 96.503855 
L 250.258265 96.503855 
L 250.258265 95.848709 
L 250.904074 95.848709 
L 250.904074 95.193563 
L 251.874159 95.193563 
L 251.874159 94.538417 
L 252.191086 94.538417 
L 252.252914 93.228125 
L 254.112304 93.228125 
L 254.112304 92.572979 
L 259.24066 92.572979 
L 259.295393 91.262686 
L 260.260981 91.262686 
L 260.260981 90.60754 
L 262.399148 90.60754 
L 262.399148 89.952394 
L 262.601088 89.952394 
L 262.670293 88.642102 
L 262.839996 88.642102 
L 262.839996 87.986956 
L 263.336541 87.986956 
L 263.336541 87.33181 
L 264.339205 87.33181 
L 264.339205 86.676664 
L 267.611632 86.676664 
L 267.611632 86.021518 
L 269.717556 86.021518 
L 269.717556 85.366371 
L 270.075998 85.366371 
L 270.075998 84.711225 
L 272.648089 84.711225 
L 272.648089 84.056079 
L 279.686002 84.056079 
L 279.686002 83.400933 
L 284.722993 83.400933 
L 284.722993 82.745787 
L 338.688 82.745787 
L 338.688 82.745787 
" style="fill:none;stroke:#ff00ff;stroke-linecap:square;stroke-width:1.5;"/>
   </g>
   <g id="line2d_36">
    <defs>
     <path d="M -0 8.485281 
L 5.091169 0 
L 0 -8.485281 
L -5.091169 -0 
z
" id="mf2156bacd4" style="stroke:#ff00ff;stroke-linejoin:miter;stroke-width:1.5;"/>
    </defs>
    <g>
     <use style="fill-opacity:0;stroke:#ff00ff;stroke-linejoin:miter;stroke-width:1.5;" x="178.111569" xlink:href="#mf2156bacd4" y="151.536128"/>
     <use style="fill-opacity:0;stroke:#ff00ff;stroke-linejoin:miter;stroke-width:1.5;" x="240.935518" xlink:href="#mf2156bacd4" y="106.986193"/>
     <use style="fill-opacity:0;stroke:#ff00ff;stroke-linejoin:miter;stroke-width:1.5;" x="284.722993" xlink:href="#mf2156bacd4" y="82.745787"/>
     <use style="fill-opacity:0;stroke:#ff00ff;stroke-linejoin:miter;stroke-width:1.5;" x="284.722993" xlink:href="#mf2156bacd4" y="82.745787"/>
     <use style="fill-opacity:0;stroke:#ff00ff;stroke-linejoin:miter;stroke-width:1.5;" x="338.688" xlink:href="#mf2156bacd4" y="82.745787"/>
    </g>
   </g>
   <g id="line2d_37">
    <path style="fill:none;stroke:#ff00ff;stroke-linecap:square;stroke-width:1.5;"/>
    <g/>
   </g>
   <g id="line2d_38">
    <path clip-path="url(#p4f110b07fb)" d="M 236.370169 112.882508 
" style="fill:none;stroke:#ff00ff;stroke-linecap:square;stroke-width:1.5;"/>
    <defs>
     <path d="M -12 12 
L 12 -12 
M -12 -12 
L 12 12 
" id="m9eb4fc56e5" style="stroke:#ff00ff;"/>
    </defs>
    <g clip-path="url(#p4f110b07fb)">
     <use style="fill:#ff00ff;stroke:#ff00ff;" x="236.370169" xlink:href="#m9eb4fc56e5" y="112.882508"/>
    </g>
   </g>
   <g id="line2d_39">
    <path clip-path="url(#p4f110b07fb)" d="M 57.6 298.944 
L 57.6 298.944 
L 57.6 298.944 
L 57.6 298.944 
L 338.688 298.944 
" style="fill:none;stroke:#ff7500;stroke-linecap:square;stroke-width:1.5;"/>
   </g>
   <g id="line2d_40">
    <defs>
     <path d="M 0 -6 
L -1.347084 -1.854102 
L -5.706339 -1.854102 
L -2.179628 0.708204 
L -3.526712 4.854102 
L -0 2.291796 
L 3.526712 4.854102 
L 2.179628 0.708204 
L 5.706339 -1.854102 
L 1.347084 -1.854102 
z
" id="m5f57514eeb" style="stroke:#ff7500;stroke-linejoin:bevel;stroke-width:1.5;"/>
    </defs>
    <g clip-path="url(#p4f110b07fb)">
     <use style="fill-opacity:0;stroke:#ff7500;stroke-linejoin:bevel;stroke-width:1.5;" x="57.6" xlink:href="#m5f57514eeb" y="298.944"/>
    </g>
   </g>
   <g id="line2d_41">
    <path clip-path="url(#p4f110b07fb)" style="fill:none;stroke:#ff7500;stroke-linecap:square;stroke-width:1.5;"/>
    <g clip-path="url(#p4f110b07fb)">
     <use style="fill-opacity:0;stroke:#ff7500;stroke-linejoin:bevel;stroke-width:1.5;" x="-1" xlink:href="#m5f57514eeb" y="567.553901"/>
     <use style="fill-opacity:0;stroke:#ff7500;stroke-linejoin:bevel;stroke-width:1.5;" x="338.688" xlink:href="#m5f57514eeb" y="567.553901"/>
    </g>
   </g>
   <g id="line2d_42">
    <defs>
     <path d="M 0 1.5 
C 0.397805 1.5 0.77937 1.341951 1.06066 1.06066 
C 1.341951 0.77937 1.5 0.397805 1.5 0 
C 1.5 -0.397805 1.341951 -0.77937 1.06066 -1.06066 
C 0.77937 -1.341951 0.397805 -1.5 0 -1.5 
C -0.397805 -1.5 -0.77937 -1.341951 -1.06066 -1.06066 
C -1.341951 -0.77937 -1.5 -0.397805 -1.5 0 
C -1.5 0.397805 -1.341951 0.77937 -1.06066 1.06066 
C -0.77937 1.341951 -0.397805 1.5 0 1.5 
z
" id="m4a879e0d09" style="stroke:#6495ed;"/>
    </defs>
    <g>
     <use style="fill:#6495ed;stroke:#6495ed;" x="233.640325" xlink:href="#m4a879e0d09" y="56.539943"/>
     <use style="fill:#6495ed;stroke:#6495ed;" x="233.640325" xlink:href="#m4a879e0d09" y="56.539943"/>
    </g>
   </g>
   <g id="line2d_43">
    <path d="M 83.635174 298.944 
L 83.635174 294.357977 
L 90.509138 294.357977 
L 90.509138 286.496224 
L 95.426737 286.496224 
L 95.426737 263.566111 
L 99.258306 263.566111 
L 99.258306 219.671322 
L 99.41757 219.671322 
L 99.41757 216.395591 
L 102.397818 216.395591 
L 102.397818 187.569163 
L 102.530943 187.569163 
L 102.530943 186.914017 
L 102.66306 186.914017 
L 102.66306 186.258871 
L 103.245502 186.258871 
L 103.245502 185.603725 
L 103.498249 185.603725 
L 103.498249 184.948579 
L 105.057436 184.948579 
L 105.057436 170.535364 
L 105.171792 170.535364 
L 105.171792 163.983903 
L 105.285403 163.983903 
L 105.285403 161.363319 
L 105.51043 161.363319 
L 105.51043 160.708173 
L 105.732589 160.708173 
L 105.732589 160.053027 
L 107.364602 160.053027 
L 107.464828 144.984667 
L 107.564481 144.984667 
L 107.663568 136.467767 
L 109.491096 136.467767 
L 109.579846 129.916306 
L 110.103064 129.916306 
L 110.103064 129.26116 
L 110.274038 129.26116 
L 110.274038 128.606014 
L 111.30625 128.606014 
L 111.30625 120.744261 
L 113.059268 120.744261 
L 113.059268 120.089115 
L 113.311233 120.089115 
L 113.311233 119.433969 
L 114.519183 119.433969 
L 114.519183 117.46853 
L 115.897107 117.46853 
L 115.958621 110.261923 
L 127.76807 110.261923 
L 127.76807 109.606777 
L 130.478617 109.606777 
L 130.478617 108.951631 
L 134.04118 108.951631 
L 134.04118 107.641339 
L 136.86886 107.641339 
L 136.86886 105.675901 
L 137.936996 105.675901 
L 137.936996 105.020754 
L 140.073083 105.020754 
L 140.073083 104.365608 
L 141.54229 104.365608 
L 141.54229 103.055316 
L 142.871056 103.055316 
L 142.871056 102.40017 
L 146.989362 102.40017 
L 146.989362 101.745024 
L 148.098345 101.745024 
L 148.098345 100.434732 
L 149.735275 100.434732 
L 149.735275 99.779586 
L 151.641158 99.779586 
L 151.641158 97.814147 
L 157.85139 97.814147 
L 157.85139 97.159001 
L 163.236166 97.159001 
L 163.236166 96.503855 
L 166.10341 96.503855 
L 166.10341 95.848709 
L 167.291353 95.848709 
L 167.291353 95.193563 
L 171.082245 95.193563 
L 171.082245 94.538417 
L 179.031377 94.538417 
L 179.066817 92.572979 
L 180.733374 92.572979 
L 180.733374 91.917832 
L 181.216025 91.917832 
L 181.297358 90.60754 
L 181.399213 90.60754 
L 181.484716 88.642102 
L 181.569801 88.642102 
L 181.569801 87.33181 
L 181.74933 87.33181 
L 181.840161 84.056079 
L 181.901854 84.056079 
L 181.993289 81.435495 
L 182.916569 81.435495 
L 182.916569 80.780349 
L 183.266275 80.780349 
L 183.266275 80.125203 
L 187.339541 80.125203 
L 187.339541 79.470057 
L 192.780907 79.470057 
L 192.780907 78.81491 
L 193.378824 78.81491 
L 193.378824 78.159764 
L 193.608148 78.159764 
L 193.608148 77.504618 
L 193.806582 77.504618 
L 193.806582 76.849472 
L 196.812067 76.849472 
L 196.812067 76.194326 
L 197.265068 76.194326 
L 197.265068 75.53918 
L 197.59285 75.53918 
L 197.59285 74.884034 
L 197.966752 74.884034 
L 197.966752 74.228888 
L 199.633046 74.228888 
L 199.633046 73.573742 
L 199.852177 73.573742 
L 199.852177 72.918596 
L 200.429297 72.918596 
L 200.429297 72.263449 
L 200.872769 72.263449 
L 200.872769 71.608303 
L 202.470525 71.608303 
L 202.470525 70.953157 
L 203.410361 70.953157 
L 203.410361 70.298011 
L 205.398188 70.298011 
L 205.398188 69.642865 
L 206.716804 69.642865 
L 206.816701 68.332573 
L 207.348976 68.332573 
L 207.348976 67.677427 
L 207.525051 67.677427 
L 207.525051 67.022281 
L 208.403001 67.022281 
L 208.403001 66.367135 
L 210.184482 66.367135 
L 210.184482 65.711988 
L 212.592467 65.711988 
L 212.592467 65.056842 
L 213.519173 65.056842 
L 213.575261 63.74655 
L 213.884255 63.74655 
L 213.884255 63.091404 
L 215.796792 63.091404 
L 215.900993 61.781112 
L 216.053619 61.781112 
L 216.053619 61.125966 
L 216.627524 61.125966 
L 216.627524 60.47082 
L 217.730395 60.47082 
L 217.730395 59.815674 
L 217.889846 59.815674 
L 217.889846 59.160527 
L 219.131442 59.160527 
L 219.131442 58.505381 
L 220.900322 58.505381 
L 220.900322 57.850235 
L 223.19385 57.850235 
L 223.19385 57.195089 
L 233.640325 57.195089 
L 233.640325 56.539943 
L 338.688 56.539943 
L 338.688 56.539943 
" style="fill:none;stroke:#6495ed;stroke-linecap:square;stroke-width:1.5;"/>
   </g>
   <g id="line2d_44">
    <defs>
     <path d="M -0 6 
L 6 -6 
L -6 -6 
z
" id="m9f3e2a75d9" style="stroke:#6495ed;stroke-linejoin:miter;stroke-width:1.5;"/>
    </defs>
    <g>
     <use style="fill-opacity:0;stroke:#6495ed;stroke-linejoin:miter;stroke-width:1.5;" x="115.958621" xlink:href="#m9f3e2a75d9" y="113.537654"/>
     <use style="fill-opacity:0;stroke:#6495ed;stroke-linejoin:miter;stroke-width:1.5;" x="216.053619" xlink:href="#m9f3e2a75d9" y="61.125966"/>
     <use style="fill-opacity:0;stroke:#6495ed;stroke-linejoin:miter;stroke-width:1.5;" x="233.640325" xlink:href="#m9f3e2a75d9" y="56.539943"/>
     <use style="fill-opacity:0;stroke:#6495ed;stroke-linejoin:miter;stroke-width:1.5;" x="233.640325" xlink:href="#m9f3e2a75d9" y="56.539943"/>
     <use style="fill-opacity:0;stroke:#6495ed;stroke-linejoin:miter;stroke-width:1.5;" x="338.688" xlink:href="#m9f3e2a75d9" y="56.539943"/>
    </g>
   </g>
   <g id="line2d_45">
    <path style="fill:none;stroke:#6495ed;stroke-linecap:square;stroke-width:1.5;"/>
    <g/>
   </g>
   <g id="line2d_46">
    <path clip-path="url(#p4f110b07fb)" d="M 181.107232 91.917832 
" style="fill:none;stroke:#6495ed;stroke-linecap:square;stroke-width:1.5;"/>
    <defs>
     <path d="M -12 12 
L 12 -12 
M -12 -12 
L 12 12 
" id="mbba00bf14f" style="stroke:#6495ed;"/>
    </defs>
    <g clip-path="url(#p4f110b07fb)">
     <use style="fill:#6495ed;stroke:#6495ed;" x="181.107232" xlink:href="#mbba00bf14f" y="91.917832"/>
    </g>
   </g>
   <g id="line2d_47">
    <defs>
     <path d="M 0 1.5 
C 0.397805 1.5 0.77937 1.341951 1.06066 1.06066 
C 1.341951 0.77937 1.5 0.397805 1.5 0 
C 1.5 -0.397805 1.341951 -0.77937 1.06066 -1.06066 
C 0.77937 -1.341951 0.397805 -1.5 0 -1.5 
C -0.397805 -1.5 -0.77937 -1.341951 -1.06066 -1.06066 
C -1.341951 -0.77937 -1.5 -0.397805 -1.5 0 
C -1.5 0.397805 -1.341951 0.77937 -1.06066 1.06066 
C -0.77937 1.341951 -0.397805 1.5 0 1.5 
z
" id="m45dd6fd910" style="stroke:#ff0000;"/>
    </defs>
    <g>
     <use style="fill:#ff0000;stroke:#ff0000;" x="286.831071" xlink:href="#m45dd6fd910" y="76.194326"/>
     <use style="fill:#ff0000;stroke:#ff0000;" x="286.831071" xlink:href="#m45dd6fd910" y="76.194326"/>
    </g>
   </g>
   <g id="line2d_48">
    <path d="M 94.921215 298.944 
L 94.921215 297.633708 
L 101.923711 297.633708 
L 101.923711 296.978562 
L 104.592361 296.978562 
L 104.592361 296.323416 
L 106.906317 296.323416 
L 106.906317 294.357977 
L 108.948899 294.357977 
L 108.948899 292.392539 
L 110.77713 292.392539 
L 110.77713 287.806516 
L 112.431755 287.806516 
L 112.431755 284.530786 
L 113.942906 284.530786 
L 113.942906 281.255055 
L 115.33349 281.255055 
L 115.33349 277.979325 
L 116.621333 277.979325 
L 116.621333 272.738156 
L 117.820578 272.738156 
L 117.820578 271.427864 
L 118.942633 271.427864 
L 118.942633 270.117572 
L 119.996839 270.117572 
L 119.996839 269.462426 
L 121.931406 269.462426 
L 121.931406 268.807279 
L 125.996395 268.807279 
L 125.996395 267.496987 
L 126.70692 267.496987 
L 126.70692 266.841841 
L 127.389626 266.841841 
L 127.389626 266.186695 
L 133.0559 266.186695 
L 133.0559 265.531549 
L 133.997581 265.531549 
L 133.997581 264.876403 
L 135.740886 264.876403 
L 135.740886 264.221257 
L 136.942755 264.221257 
L 136.942755 263.566111 
L 138.426341 263.566111 
L 138.426341 262.910965 
L 142.526499 262.910965 
L 142.526499 262.255818 
L 143.615998 262.255818 
L 143.615998 261.600672 
L 144.641416 261.600672 
L 144.641416 260.945526 
L 145.132366 260.945526 
L 145.132366 260.29038 
L 146.074653 260.29038 
L 146.074653 259.635234 
L 146.302479 259.635234 
L 146.302479 258.980088 
L 148.629823 258.980088 
L 148.629823 258.324942 
L 149.779481 258.324942 
L 149.779481 257.669796 
L 150.146453 257.669796 
L 150.146453 257.01465 
L 150.682827 257.01465 
L 150.682827 256.359504 
L 151.541675 256.359504 
L 151.541675 255.704357 
L 151.708484 255.704357 
L 151.708484 255.049211 
L 152.037389 255.049211 
L 152.037389 254.394065 
L 152.199544 254.394065 
L 152.199544 253.738919 
L 152.360205 253.738919 
L 152.360205 252.428627 
L 152.677155 252.428627 
L 152.677155 251.118335 
L 152.833495 251.118335 
L 152.833495 250.463189 
L 152.988446 250.463189 
L 152.988446 248.49775 
L 153.294279 248.49775 
L 153.294279 247.842604 
L 153.445207 247.842604 
L 153.445207 246.532312 
L 153.59484 246.532312 
L 153.59484 245.877166 
L 160.210625 245.877166 
L 160.210625 244.566874 
L 161.104901 244.566874 
L 161.104901 243.911728 
L 162.678343 243.911728 
L 162.678343 243.256582 
L 163.957784 243.256582 
L 163.957784 242.601435 
L 164.364222 242.601435 
L 164.364222 241.946289 
L 166.551253 241.946289 
L 166.551253 241.291143 
L 166.7626 241.291143 
L 166.7626 240.635997 
L 167.109252 240.635997 
L 167.109252 239.325705 
L 167.449146 239.325705 
L 167.449146 238.015413 
L 168.746115 238.015413 
L 168.746115 237.360267 
L 169.055827 237.360267 
L 169.117115 235.394828 
L 169.360135 235.394828 
L 169.360135 234.084536 
L 169.540203 234.084536 
L 169.540203 231.463952 
L 169.71843 231.463952 
L 169.777437 226.222783 
L 169.836245 226.222783 
L 169.894855 224.257345 
L 169.953269 224.257345 
L 170.011487 222.291906 
L 170.069512 222.291906 
L 170.069512 220.326468 
L 171.027499 220.326468 
L 171.027499 219.671322 
L 171.726136 219.671322 
L 171.726136 219.016176 
L 173.855836 219.016176 
L 173.855836 218.36103 
L 174.133355 218.36103 
L 174.133355 217.705884 
L 174.270476 217.705884 
L 174.270476 216.395591 
L 174.406527 216.395591 
L 174.496641 213.775007 
L 174.675486 213.775007 
L 174.675486 213.119861 
L 174.852514 213.119861 
L 174.852514 212.464715 
L 175.415753 212.464715 
L 175.415753 211.809569 
L 176.964946 211.809569 
L 176.964946 211.154423 
L 177.540492 211.154423 
L 177.540492 210.499277 
L 178.31562 210.499277 
L 178.31562 209.84413 
L 178.566525 209.84413 
L 178.566525 209.188984 
L 179.298281 209.188984 
L 179.298281 208.533838 
L 182.357718 208.533838 
L 182.386328 207.223546 
L 182.500302 207.223546 
L 182.500302 206.5684 
L 186.49344 206.5684 
L 186.49344 205.913254 
L 187.201688 205.913254 
L 187.201688 205.258108 
L 187.923961 205.258108 
L 187.923961 204.602962 
L 190.148169 204.602962 
L 190.148169 203.947816 
L 190.830708 203.947816 
L 190.830708 203.292669 
L 192.120521 203.292669 
L 192.120521 202.637523 
L 192.460716 202.637523 
L 192.460716 201.982377 
L 192.841555 201.982377 
L 192.841555 201.327231 
L 193.60922 201.327231 
L 193.60922 200.672085 
L 193.833082 200.672085 
L 193.833082 200.016939 
L 194.952982 200.016939 
L 194.952982 199.361793 
L 195.608031 199.361793 
L 195.608031 198.706647 
L 195.887055 198.706647 
L 195.992187 196.086062 
L 196.018371 196.086062 
L 196.122716 188.879455 
L 196.135715 188.879455 
L 196.135715 188.224309 
L 196.432057 188.224309 
L 196.432057 186.914017 
L 196.635278 186.914017 
L 196.685715 182.327994 
L 196.748558 182.327994 
L 196.811174 177.741972 
L 199.364911 177.741972 
L 199.364911 177.086825 
L 201.012274 177.086825 
L 201.012274 176.431679 
L 201.468255 176.431679 
L 201.544656 169.225072 
L 203.387921 169.225072 
L 203.387921 168.569926 
L 203.74414 168.569926 
L 203.74414 167.91478 
L 204.289919 167.91478 
L 204.289919 167.259634 
L 206.215325 167.259634 
L 206.324338 165.949342 
L 206.964483 165.949342 
L 207.047756 158.087589 
L 207.350927 158.087589 
L 207.378229 156.777296 
L 207.60185 156.777296 
L 207.60185 156.12215 
L 208.152242 156.12215 
L 208.171803 154.811858 
L 208.532969 154.811858 
L 208.532969 154.156712 
L 208.817568 154.156712 
L 208.817568 153.501566 
L 209.995447 153.501566 
L 210.053766 152.191274 
L 210.544059 152.191274 
L 210.544059 151.536128 
L 210.943819 151.536128 
L 210.943819 150.880981 
L 211.794931 150.880981 
L 211.794931 150.225835 
L 212.378261 150.225835 
L 212.378261 149.570689 
L 212.858 149.570689 
L 212.947311 143.674374 
L 212.986911 143.674374 
L 213.081305 139.088352 
L 213.105057 139.088352 
L 213.12469 136.467767 
L 213.266604 136.467767 
L 213.290915 134.502329 
L 213.556243 134.502329 
L 213.565812 133.192037 
L 214.162686 133.192037 
L 214.172037 131.881745 
L 214.406165 131.881745 
L 214.406165 131.226598 
L 215.616497 131.226598 
L 215.629249 129.26116 
L 215.777442 129.26116 
L 215.777442 128.606014 
L 216.04068 128.606014 
L 216.061615 125.98543 
L 216.21412 125.98543 
L 216.21412 125.330284 
L 216.835706 125.330284 
L 216.930612 118.778823 
L 217.324626 118.778823 
L 217.324626 118.123676 
L 219.37072 118.123676 
L 219.455984 116.813384 
L 219.483259 116.813384 
L 219.483259 116.158238 
L 220.272588 116.158238 
L 220.32646 114.1928 
L 220.870983 114.1928 
L 220.883563 112.882508 
L 221.281401 112.882508 
L 221.281401 112.227362 
L 221.516498 112.227362 
L 221.516498 111.572215 
L 222.406056 111.572215 
L 222.406056 110.917069 
L 222.552372 110.917069 
L 222.556861 109.606777 
L 222.852608 109.606777 
L 222.852608 108.951631 
L 223.78261 108.951631 
L 223.78261 108.296485 
L 224.466067 108.296485 
L 224.542638 106.986193 
L 225.000458 106.986193 
L 225.000458 106.331047 
L 225.509431 106.331047 
L 225.509431 105.675901 
L 225.663136 105.675901 
L 225.663136 105.020754 
L 226.144098 105.020754 
L 226.144098 104.365608 
L 226.621041 104.365608 
L 226.691197 103.055316 
L 227.045745 103.055316 
L 227.105312 101.745024 
L 227.186436 101.745024 
L 227.186436 101.089878 
L 227.995355 101.089878 
L 227.995355 100.434732 
L 228.14763 100.434732 
L 228.201391 99.12444 
L 228.398503 99.12444 
L 228.398503 98.469293 
L 228.64601 98.469293 
L 228.64601 97.814147 
L 230.286624 97.814147 
L 230.286624 97.159001 
L 230.887004 97.159001 
L 230.887004 96.503855 
L 231.732279 96.503855 
L 231.732279 95.848709 
L 233.84824 95.848709 
L 233.84824 95.193563 
L 235.940629 95.193563 
L 235.940629 94.538417 
L 236.201872 94.538417 
L 236.201872 93.883271 
L 237.452801 93.883271 
L 237.452801 93.228125 
L 240.230287 93.228125 
L 240.230287 92.572979 
L 240.598 92.572979 
L 240.598 91.917832 
L 243.965086 91.917832 
L 243.965086 91.262686 
L 244.900163 91.262686 
L 244.900163 90.60754 
L 245.743579 90.60754 
L 245.743579 89.952394 
L 247.287347 89.952394 
L 247.287347 89.297248 
L 247.443726 89.297248 
L 247.443726 88.642102 
L 248.144793 88.642102 
L 248.144793 87.986956 
L 248.382706 87.986956 
L 248.382706 87.33181 
L 249.677771 87.33181 
L 249.677771 86.676664 
L 250.214097 86.676664 
L 250.214097 86.021518 
L 253.11345 86.021518 
L 253.11345 85.366371 
L 253.519352 85.366371 
L 253.519352 84.711225 
L 254.084543 84.711225 
L 254.084543 84.056079 
L 255.621629 84.056079 
L 255.67345 82.745787 
L 257.75124 82.745787 
L 257.75124 82.090641 
L 258.598226 82.090641 
L 258.598226 81.435495 
L 260.3754 81.435495 
L 260.3754 80.780349 
L 261.048122 80.780349 
L 261.048122 80.125203 
L 262.137508 80.125203 
L 262.137508 79.470057 
L 262.977675 79.470057 
L 262.977675 78.81491 
L 268.658463 78.81491 
L 268.658463 78.159764 
L 269.011272 78.159764 
L 269.011272 77.504618 
L 276.747331 77.504618 
L 276.747331 76.849472 
L 286.831071 76.849472 
L 286.831071 76.194326 
L 338.688 76.194326 
L 338.688 76.194326 
" style="fill:none;stroke:#ff0000;stroke-linecap:square;stroke-width:1.5;"/>
   </g>
   <g id="line2d_49">
    <defs>
     <path d="M 0 -6 
L -5.196152 -3 
L -5.196152 3 
L -0 6 
L 5.196152 3 
L 5.196152 -3 
z
" id="mdd662c243d" style="stroke:#ff0000;stroke-linejoin:miter;stroke-width:1.5;"/>
    </defs>
    <g>
     <use style="fill-opacity:0;stroke:#ff0000;stroke-linejoin:miter;stroke-width:1.5;" x="150.682827" xlink:href="#mdd662c243d" y="256.359504"/>
     <use style="fill-opacity:0;stroke:#ff0000;stroke-linejoin:miter;stroke-width:1.5;" x="210.544059" xlink:href="#mdd662c243d" y="152.191274"/>
     <use style="fill-opacity:0;stroke:#ff0000;stroke-linejoin:miter;stroke-width:1.5;" x="286.831071" xlink:href="#mdd662c243d" y="76.849472"/>
     <use style="fill-opacity:0;stroke:#ff0000;stroke-linejoin:miter;stroke-width:1.5;" x="286.831071" xlink:href="#mdd662c243d" y="76.194326"/>
     <use style="fill-opacity:0;stroke:#ff0000;stroke-linejoin:miter;stroke-width:1.5;" x="338.688" xlink:href="#mdd662c243d" y="76.194326"/>
    </g>
   </g>
   <g id="line2d_50">
    <path style="fill:none;stroke:#ff0000;stroke-linecap:square;stroke-width:1.5;"/>
    <g/>
   </g>
   <g id="line2d_51">
    <path clip-path="url(#p4f110b07fb)" d="M 211.76844 150.880981 
" style="fill:none;stroke:#ff0000;stroke-linecap:square;stroke-width:1.5;"/>
    <defs>
     <path d="M -12 12 
L 12 -12 
M -12 -12 
L 12 12 
" id="m60f4efaa89" style="stroke:#ff0000;"/>
    </defs>
    <g clip-path="url(#p4f110b07fb)">
     <use style="fill:#ff0000;stroke:#ff0000;" x="211.76844" xlink:href="#m60f4efaa89" y="150.880981"/>
    </g>
   </g>
   <g id="line2d_52">
    <path d="M 338.688 298.944 
L 369.60768 293.571802 
" style="fill:none;stroke:#ff7500;stroke-linecap:square;stroke-width:1.5;"/>
    <g>
     <use style="fill-opacity:0;stroke:#ff7500;stroke-linejoin:bevel;stroke-width:1.5;" x="338.688" xlink:href="#m5f57514eeb" y="298.944"/>
     <use style="fill-opacity:0;stroke:#ff7500;stroke-linejoin:bevel;stroke-width:1.5;" x="369.60768" xlink:href="#m5f57514eeb" y="293.571802"/>
    </g>
   </g>
   <g id="line2d_53">
    <path d="M 338.688 95.848709 
L 369.60768 229.105426 
" style="fill:none;stroke:#000080;stroke-linecap:square;stroke-width:1.5;"/>
    <g>
     <use style="fill-opacity:0;stroke:#000080;stroke-width:1.5;" x="338.688" xlink:href="#mae6be2f4a1" y="95.848709"/>
     <use style="fill-opacity:0;stroke:#000080;stroke-width:1.5;" x="369.60768" xlink:href="#mae6be2f4a1" y="229.105426"/>
    </g>
   </g>
   <g id="line2d_54">
    <path d="M 338.688 82.745787 
L 369.60768 164.63905 
" style="fill:none;stroke:#ff00ff;stroke-linecap:square;stroke-width:1.5;"/>
    <g>
     <use style="fill-opacity:0;stroke:#ff00ff;stroke-linejoin:miter;stroke-width:1.5;" x="338.688" xlink:href="#mf2156bacd4" y="82.745787"/>
     <use style="fill-opacity:0;stroke:#ff00ff;stroke-linejoin:miter;stroke-width:1.5;" x="369.60768" xlink:href="#mf2156bacd4" y="164.63905"/>
    </g>
   </g>
   <g id="line2d_55">
    <path d="M 338.688 76.194326 
L 369.60768 100.172673 
" style="fill:none;stroke:#ff0000;stroke-linecap:square;stroke-width:1.5;"/>
    <g>
     <use style="fill-opacity:0;stroke:#ff0000;stroke-linejoin:miter;stroke-width:1.5;" x="338.688" xlink:href="#mdd662c243d" y="76.194326"/>
     <use style="fill-opacity:0;stroke:#ff0000;stroke-linejoin:miter;stroke-width:1.5;" x="369.60768" xlink:href="#mdd662c243d" y="100.172673"/>
    </g>
   </g>
   <g id="line2d_56">
    <path d="M 338.688 56.539943 
L 369.60768 35.706297 
" style="fill:none;stroke:#6495ed;stroke-linecap:square;stroke-width:1.5;"/>
    <g>
     <use style="fill-opacity:0;stroke:#6495ed;stroke-linejoin:miter;stroke-width:1.5;" x="338.688" xlink:href="#m9f3e2a75d9" y="56.539943"/>
     <use style="fill-opacity:0;stroke:#6495ed;stroke-linejoin:miter;stroke-width:1.5;" x="369.60768" xlink:href="#m9f3e2a75d9" y="35.706297"/>
    </g>
   </g>
   <g id="line2d_57">
    <path d="M 338.688 298.944 
L 338.688 30.334099 
" style="fill:none;stroke:#000000;stroke-linecap:square;stroke-width:1.5;"/>
   </g>
   <g id="patch_3">
    <path d="M 57.6 298.944 
L 57.6 27.648 
" style="fill:none;stroke:#000000;stroke-linecap:square;stroke-linejoin:miter;stroke-width:0.8;"/>
   </g>
   <g id="patch_4">
    <path d="M 338.688 298.944 
L 338.688 27.648 
" style="fill:none;stroke:#000000;stroke-linecap:square;stroke-linejoin:miter;stroke-width:0.8;"/>
   </g>
   <g id="patch_5">
    <path d="M 57.6 298.944 
L 338.688 298.944 
" style="fill:none;stroke:#000000;stroke-linecap:square;stroke-linejoin:miter;stroke-width:0.8;"/>
   </g>
   <g id="patch_6">
    <path d="M 57.6 27.648 
L 338.688 27.648 
" style="fill:none;stroke:#000000;stroke-linecap:square;stroke-linejoin:miter;stroke-width:0.8;"/>
   </g>
   <g id="text_13">
    <!-- rs -->
    <g transform="translate(375.22944 298.262739)scale(0.17 -0.17)">
     <use xlink:href="#DejaVuSans-114"/>
     <use x="41.113281" xlink:href="#DejaVuSans-115"/>
    </g>
   </g>
   <g id="text_14">
    <!-- cobyla -->
    <g transform="translate(375.22944 233.796363)scale(0.17 -0.17)">
     <defs>
      <path d="M 48.6875 27.296875 
Q 48.6875 37.203125 44.609375 42.84375 
Q 40.53125 48.484375 33.40625 48.484375 
Q 26.265625 48.484375 22.1875 42.84375 
Q 18.109375 37.203125 18.109375 27.296875 
Q 18.109375 17.390625 22.1875 11.75 
Q 26.265625 6.109375 33.40625 6.109375 
Q 40.53125 6.109375 44.609375 11.75 
Q 48.6875 17.390625 48.6875 27.296875 
z
M 18.109375 46.390625 
Q 20.953125 51.265625 25.265625 53.625 
Q 29.59375 56 35.59375 56 
Q 45.5625 56 51.78125 48.09375 
Q 58.015625 40.1875 58.015625 27.296875 
Q 58.015625 14.40625 51.78125 6.484375 
Q 45.5625 -1.421875 35.59375 -1.421875 
Q 29.59375 -1.421875 25.265625 0.953125 
Q 20.953125 3.328125 18.109375 8.203125 
L 18.109375 0 
L 9.078125 0 
L 9.078125 75.984375 
L 18.109375 75.984375 
z
" id="DejaVuSans-98"/>
      <path d="M 32.171875 -5.078125 
Q 28.375 -14.84375 24.75 -17.8125 
Q 21.140625 -20.796875 15.09375 -20.796875 
L 7.90625 -20.796875 
L 7.90625 -13.28125 
L 13.1875 -13.28125 
Q 16.890625 -13.28125 18.9375 -11.515625 
Q 21 -9.765625 23.484375 -3.21875 
L 25.09375 0.875 
L 2.984375 54.6875 
L 12.5 54.6875 
L 29.59375 11.921875 
L 46.6875 54.6875 
L 56.203125 54.6875 
z
" id="DejaVuSans-121"/>
     </defs>
     <use xlink:href="#DejaVuSans-99"/>
     <use x="54.980469" xlink:href="#DejaVuSans-111"/>
     <use x="116.162109" xlink:href="#DejaVuSans-98"/>
     <use x="179.638672" xlink:href="#DejaVuSans-121"/>
     <use x="238.818359" xlink:href="#DejaVuSans-108"/>
     <use x="266.601562" xlink:href="#DejaVuSans-97"/>
    </g>
   </g>
   <g id="text_15">
    <!-- NAL -->
    <g transform="translate(375.22944 169.329987)scale(0.17 -0.17)">
     <defs>
      <path d="M 9.8125 72.90625 
L 23.09375 72.90625 
L 55.421875 11.921875 
L 55.421875 72.90625 
L 64.984375 72.90625 
L 64.984375 0 
L 51.703125 0 
L 19.390625 60.984375 
L 19.390625 0 
L 9.8125 0 
z
" id="DejaVuSans-78"/>
      <path d="M 34.1875 63.1875 
L 20.796875 26.90625 
L 47.609375 26.90625 
z
M 28.609375 72.90625 
L 39.796875 72.90625 
L 67.578125 0 
L 57.328125 0 
L 50.6875 18.703125 
L 17.828125 18.703125 
L 11.1875 0 
L 0.78125 0 
z
" id="DejaVuSans-65"/>
      <path d="M 9.8125 72.90625 
L 19.671875 72.90625 
L 19.671875 8.296875 
L 55.171875 8.296875 
L 55.171875 0 
L 9.8125 0 
z
" id="DejaVuSans-76"/>
     </defs>
     <use xlink:href="#DejaVuSans-78"/>
     <use x="74.804688" xlink:href="#DejaVuSans-65"/>
     <use x="143.212891" xlink:href="#DejaVuSans-76"/>
    </g>
   </g>
   <g id="text_16">
    <!-- trust-con -->
    <g transform="translate(375.22944 104.863611)scale(0.17 -0.17)">
     <use xlink:href="#DejaVuSans-116"/>
     <use x="39.208984" xlink:href="#DejaVuSans-114"/>
     <use x="80.322266" xlink:href="#DejaVuSans-117"/>
     <use x="143.701172" xlink:href="#DejaVuSans-115"/>
     <use x="195.800781" xlink:href="#DejaVuSans-116"/>
     <use x="235.009766" xlink:href="#DejaVuSans-45"/>
     <use x="271.09375" xlink:href="#DejaVuSans-99"/>
     <use x="326.074219" xlink:href="#DejaVuSans-111"/>
     <use x="387.255859" xlink:href="#DejaVuSans-110"/>
    </g>
   </g>
   <g id="text_17">
    <!-- slsqp -->
    <g transform="translate(375.22944 40.397235)scale(0.17 -0.17)">
     <defs>
      <path d="M 14.796875 27.296875 
Q 14.796875 17.390625 18.875 11.75 
Q 22.953125 6.109375 30.078125 6.109375 
Q 37.203125 6.109375 41.296875 11.75 
Q 45.40625 17.390625 45.40625 27.296875 
Q 45.40625 37.203125 41.296875 42.84375 
Q 37.203125 48.484375 30.078125 48.484375 
Q 22.953125 48.484375 18.875 42.84375 
Q 14.796875 37.203125 14.796875 27.296875 
z
M 45.40625 8.203125 
Q 42.578125 3.328125 38.25 0.953125 
Q 33.9375 -1.421875 27.875 -1.421875 
Q 17.96875 -1.421875 11.734375 6.484375 
Q 5.515625 14.40625 5.515625 27.296875 
Q 5.515625 40.1875 11.734375 48.09375 
Q 17.96875 56 27.875 56 
Q 33.9375 56 38.25 53.625 
Q 42.578125 51.265625 45.40625 46.390625 
L 45.40625 54.6875 
L 54.390625 54.6875 
L 54.390625 -20.796875 
L 45.40625 -20.796875 
z
" id="DejaVuSans-113"/>
     </defs>
     <use xlink:href="#DejaVuSans-115"/>
     <use x="52.099609" xlink:href="#DejaVuSans-108"/>
     <use x="79.882812" xlink:href="#DejaVuSans-115"/>
     <use x="131.982422" xlink:href="#DejaVuSans-113"/>
     <use x="195.458984" xlink:href="#DejaVuSans-112"/>
    </g>
   </g>
   <g id="text_18">
    <!-- bbob-constrained f27, 20-D -->
    <g transform="translate(60.41088 38.111366)scale(0.102 -0.102)">
     <defs>
      <path d="M 8.203125 72.90625 
L 55.078125 72.90625 
L 55.078125 68.703125 
L 28.609375 0 
L 18.3125 0 
L 43.21875 64.59375 
L 8.203125 64.59375 
z
" id="DejaVuSans-55"/>
      <path d="M 19.671875 64.796875 
L 19.671875 8.109375 
L 31.59375 8.109375 
Q 46.6875 8.109375 53.6875 14.9375 
Q 60.6875 21.78125 60.6875 36.53125 
Q 60.6875 51.171875 53.6875 57.984375 
Q 46.6875 64.796875 31.59375 64.796875 
z
M 9.8125 72.90625 
L 30.078125 72.90625 
Q 51.265625 72.90625 61.171875 64.09375 
Q 71.09375 55.28125 71.09375 36.53125 
Q 71.09375 17.671875 61.125 8.828125 
Q 51.171875 0 30.078125 0 
L 9.8125 0 
z
" id="DejaVuSans-68"/>
     </defs>
     <use xlink:href="#DejaVuSans-98"/>
     <use x="63.476562" xlink:href="#DejaVuSans-98"/>
     <use x="126.953125" xlink:href="#DejaVuSans-111"/>
     <use x="188.134766" xlink:href="#DejaVuSans-98"/>
     <use x="251.611328" xlink:href="#DejaVuSans-45"/>
     <use x="287.695312" xlink:href="#DejaVuSans-99"/>
     <use x="342.675781" xlink:href="#DejaVuSans-111"/>
     <use x="403.857422" xlink:href="#DejaVuSans-110"/>
     <use x="467.236328" xlink:href="#DejaVuSans-115"/>
     <use x="519.335938" xlink:href="#DejaVuSans-116"/>
     <use x="558.544922" xlink:href="#DejaVuSans-114"/>
     <use x="599.658203" xlink:href="#DejaVuSans-97"/>
     <use x="660.9375" xlink:href="#DejaVuSans-105"/>
     <use x="688.720703" xlink:href="#DejaVuSans-110"/>
     <use x="752.099609" xlink:href="#DejaVuSans-101"/>
     <use x="813.623047" xlink:href="#DejaVuSans-100"/>
     <use x="877.099609" xlink:href="#DejaVuSans-32"/>
     <use x="908.886719" xlink:href="#DejaVuSans-102"/>
     <use x="944.091797" xlink:href="#DejaVuSans-50"/>
     <use x="1007.714844" xlink:href="#DejaVuSans-55"/>
     <use x="1071.337891" xlink:href="#DejaVuSans-44"/>
     <use x="1103.125" xlink:href="#DejaVuSans-32"/>
     <use x="1134.912109" xlink:href="#DejaVuSans-50"/>
     <use x="1198.535156" xlink:href="#DejaVuSans-48"/>
     <use x="1262.158203" xlink:href="#DejaVuSans-45"/>
     <use x="1298.242188" xlink:href="#DejaVuSans-68"/>
    </g>
    <!-- 41 targets: 100..1e-06 -->
    <g transform="translate(60.41088 49.533135)scale(0.102 -0.102)">
     <defs>
      <path d="M 11.71875 12.40625 
L 22.015625 12.40625 
L 22.015625 0 
L 11.71875 0 
z
M 11.71875 51.703125 
L 22.015625 51.703125 
L 22.015625 39.3125 
L 11.71875 39.3125 
z
" id="DejaVuSans-58"/>
     </defs>
     <use xlink:href="#DejaVuSans-52"/>
     <use x="63.623047" xlink:href="#DejaVuSans-49"/>
     <use x="127.246094" xlink:href="#DejaVuSans-32"/>
     <use x="159.033203" xlink:href="#DejaVuSans-116"/>
     <use x="198.242188" xlink:href="#DejaVuSans-97"/>
     <use x="259.521484" xlink:href="#DejaVuSans-114"/>
     <use x="298.884766" xlink:href="#DejaVuSans-103"/>
     <use x="362.361328" xlink:href="#DejaVuSans-101"/>
     <use x="423.884766" xlink:href="#DejaVuSans-116"/>
     <use x="463.09375" xlink:href="#DejaVuSans-115"/>
     <use x="515.193359" xlink:href="#DejaVuSans-58"/>
     <use x="548.884766" xlink:href="#DejaVuSans-32"/>
     <use x="580.671875" xlink:href="#DejaVuSans-49"/>
     <use x="644.294922" xlink:href="#DejaVuSans-48"/>
     <use x="707.917969" xlink:href="#DejaVuSans-48"/>
     <use x="771.541016" xlink:href="#DejaVuSans-46"/>
     <use x="803.328125" xlink:href="#DejaVuSans-46"/>
     <use x="835.115234" xlink:href="#DejaVuSans-49"/>
     <use x="898.738281" xlink:href="#DejaVuSans-101"/>
     <use x="960.261719" xlink:href="#DejaVuSans-45"/>
     <use x="996.345703" xlink:href="#DejaVuSans-48"/>
     <use x="1059.96875" xlink:href="#DejaVuSans-54"/>
    </g>
    <!-- 15 instances -->
    <g transform="translate(60.41088 60.954904)scale(0.102 -0.102)">
     <defs>
      <path d="M 10.796875 72.90625 
L 49.515625 72.90625 
L 49.515625 64.59375 
L 19.828125 64.59375 
L 19.828125 46.734375 
Q 21.96875 47.46875 24.109375 47.828125 
Q 26.265625 48.1875 28.421875 48.1875 
Q 40.625 48.1875 47.75 41.5 
Q 54.890625 34.8125 54.890625 23.390625 
Q 54.890625 11.625 47.5625 5.09375 
Q 40.234375 -1.421875 26.90625 -1.421875 
Q 22.3125 -1.421875 17.546875 -0.640625 
Q 12.796875 0.140625 7.71875 1.703125 
L 7.71875 11.625 
Q 12.109375 9.234375 16.796875 8.0625 
Q 21.484375 6.890625 26.703125 6.890625 
Q 35.15625 6.890625 40.078125 11.328125 
Q 45.015625 15.765625 45.015625 23.390625 
Q 45.015625 31 40.078125 35.4375 
Q 35.15625 39.890625 26.703125 39.890625 
Q 22.75 39.890625 18.8125 39.015625 
Q 14.890625 38.140625 10.796875 36.28125 
z
" id="DejaVuSans-53"/>
     </defs>
     <use xlink:href="#DejaVuSans-49"/>
     <use x="63.623047" xlink:href="#DejaVuSans-53"/>
     <use x="127.246094" xlink:href="#DejaVuSans-32"/>
     <use x="159.033203" xlink:href="#DejaVuSans-105"/>
     <use x="186.816406" xlink:href="#DejaVuSans-110"/>
     <use x="250.195312" xlink:href="#DejaVuSans-115"/>
     <use x="302.294922" xlink:href="#DejaVuSans-116"/>
     <use x="341.503906" xlink:href="#DejaVuSans-97"/>
     <use x="402.783203" xlink:href="#DejaVuSans-110"/>
     <use x="466.162109" xlink:href="#DejaVuSans-99"/>
     <use x="521.142578" xlink:href="#DejaVuSans-101"/>
     <use x="582.666016" xlink:href="#DejaVuSans-115"/>
    </g>
   </g>
   <g id="text_19">
    <!-- v5z33 -->
    <g style="fill:#808080;" transform="translate(183.016656 294.151352)scale(0.1 -0.1)">
     <defs>
      <path d="M 5.515625 54.6875 
L 48.1875 54.6875 
L 48.1875 46.484375 
L 14.40625 7.171875 
L 48.1875 7.171875 
L 48.1875 0 
L 4.296875 0 
L 4.296875 8.203125 
L 38.09375 47.515625 
L 5.515625 47.515625 
z
" id="DejaVuSans-122"/>
      <path d="M 40.578125 39.3125 
Q 47.65625 37.796875 51.625 33 
Q 55.609375 28.21875 55.609375 21.1875 
Q 55.609375 10.40625 48.1875 4.484375 
Q 40.765625 -1.421875 27.09375 -1.421875 
Q 22.515625 -1.421875 17.65625 -0.515625 
Q 12.796875 0.390625 7.625 2.203125 
L 7.625 11.71875 
Q 11.71875 9.328125 16.59375 8.109375 
Q 21.484375 6.890625 26.8125 6.890625 
Q 36.078125 6.890625 40.9375 10.546875 
Q 45.796875 14.203125 45.796875 21.1875 
Q 45.796875 27.640625 41.28125 31.265625 
Q 36.765625 34.90625 28.71875 34.90625 
L 20.21875 34.90625 
L 20.21875 43.015625 
L 29.109375 43.015625 
Q 36.375 43.015625 40.234375 45.921875 
Q 44.09375 48.828125 44.09375 54.296875 
Q 44.09375 59.90625 40.109375 62.90625 
Q 36.140625 65.921875 28.71875 65.921875 
Q 24.65625 65.921875 20.015625 65.03125 
Q 15.375 64.15625 9.8125 62.3125 
L 9.8125 71.09375 
Q 15.4375 72.65625 20.34375 73.4375 
Q 25.25 74.21875 29.59375 74.21875 
Q 40.828125 74.21875 47.359375 69.109375 
Q 53.90625 64.015625 53.90625 55.328125 
Q 53.90625 49.265625 50.4375 45.09375 
Q 46.96875 40.921875 40.578125 39.3125 
z
" id="DejaVuSans-51"/>
     </defs>
     <use xlink:href="#DejaVuSans-118"/>
     <use x="59.179688" xlink:href="#DejaVuSans-53"/>
     <use x="122.802734" xlink:href="#DejaVuSans-122"/>
     <use x="175.292969" xlink:href="#DejaVuSans-51"/>
     <use x="238.916016" xlink:href="#DejaVuSans-51"/>
    </g>
   </g>
   <g id="text_20">
    <!-- 27 Discus, 6 constraints -->
    <g transform="translate(78.042437 21.648)scale(0.2 -0.2)">
     <use xlink:href="#DejaVuSans-50"/>
     <use x="63.623047" xlink:href="#DejaVuSans-55"/>
     <use x="127.246094" xlink:href="#DejaVuSans-32"/>
     <use x="159.033203" xlink:href="#DejaVuSans-68"/>
     <use x="236.035156" xlink:href="#DejaVuSans-105"/>
     <use x="263.818359" xlink:href="#DejaVuSans-115"/>
     <use x="315.917969" xlink:href="#DejaVuSans-99"/>
     <use x="370.898438" xlink:href="#DejaVuSans-117"/>
     <use x="434.277344" xlink:href="#DejaVuSans-115"/>
     <use x="486.376953" xlink:href="#DejaVuSans-44"/>
     <use x="518.164062" xlink:href="#DejaVuSans-32"/>
     <use x="549.951172" xlink:href="#DejaVuSans-54"/>
     <use x="613.574219" xlink:href="#DejaVuSans-32"/>
     <use x="645.361328" xlink:href="#DejaVuSans-99"/>
     <use x="700.341797" xlink:href="#DejaVuSans-111"/>
     <use x="761.523438" xlink:href="#DejaVuSans-110"/>
     <use x="824.902344" xlink:href="#DejaVuSans-115"/>
     <use x="877.001953" xlink:href="#DejaVuSans-116"/>
     <use x="916.210938" xlink:href="#DejaVuSans-114"/>
     <use x="957.324219" xlink:href="#DejaVuSans-97"/>
     <use x="1018.603516" xlink:href="#DejaVuSans-105"/>
     <use x="1046.386719" xlink:href="#DejaVuSans-110"/>
     <use x="1109.765625" xlink:href="#DejaVuSans-116"/>
     <use x="1148.974609" xlink:href="#DejaVuSans-115"/>
    </g>
   </g>
  </g>
 </g>
 <defs>
  <clipPath id="p4f110b07fb">
   <rect height="271.296" width="281.088" x="57.6" y="27.648"/>
  </clipPath>
 </defs>
</svg>
