<?xml version="1.0" encoding="utf-8" standalone="no"?>
<!DOCTYPE svg PUBLIC "-//W3C//DTD SVG 1.1//EN"
  "http://www.w3.org/Graphics/SVG/1.1/DTD/svg11.dtd">
<!-- Created with matplotlib (https://matplotlib.org/) -->
<svg height="345.6pt" version="1.1" viewBox="0 0 460.8 345.6" width="460.8pt" xmlns="http://www.w3.org/2000/svg" xmlns:xlink="http://www.w3.org/1999/xlink">
 <metadata>
  <rdf:RDF xmlns:cc="http://creativecommons.org/ns#" xmlns:dc="http://purl.org/dc/elements/1.1/" xmlns:rdf="http://www.w3.org/1999/02/22-rdf-syntax-ns#">
   <cc:Work>
    <dc:type rdf:resource="http://purl.org/dc/dcmitype/StillImage"/>
    <dc:date>2021-04-09T10:16:13.803702</dc:date>
    <dc:format>image/svg+xml</dc:format>
    <dc:creator>
     <cc:Agent>
      <dc:title>Matplotlib v3.3.3, https://matplotlib.org/</dc:title>
     </cc:Agent>
    </dc:creator>
   </cc:Work>
  </rdf:RDF>
 </metadata>
 <defs>
  <style type="text/css">*{stroke-linecap:butt;stroke-linejoin:round;}</style>
 </defs>
 <g id="figure_1">
  <g id="patch_1">
   <path d="M 0 345.6 
L 460.8 345.6 
L 460.8 0 
L 0 0 
z
" style="fill:#ffffff;"/>
  </g>
  <g id="axes_1">
   <g id="patch_2">
    <path d="M 57.6 298.944 
L 338.688 298.944 
L 338.688 27.648 
L 57.6 27.648 
z
" style="fill:#ffffff;"/>
   </g>
   <g id="matplotlib.axis_1">
    <g id="xtick_1">
     <g id="line2d_1">
      <path clip-path="url(#pfce809d18b)" d="M 57.6 298.944 
L 57.6 27.648 
" style="fill:none;stroke:#b0b0b0;stroke-linecap:square;stroke-width:0.8;"/>
     </g>
     <g id="line2d_2">
      <defs>
       <path d="M 0 0 
L 0 3.5 
" id="m32a95a3031" style="stroke:#000000;stroke-width:0.8;"/>
      </defs>
      <g>
       <use style="stroke:#000000;stroke-width:0.8;" x="57.6" xlink:href="#m32a95a3031" y="298.944"/>
      </g>
     </g>
     <g id="text_1">
      <!-- 0 -->
      <g transform="translate(51.2375 321.140875)scale(0.2 -0.2)">
       <defs>
        <path d="M 31.78125 66.40625 
Q 24.171875 66.40625 20.328125 58.90625 
Q 16.5 51.421875 16.5 36.375 
Q 16.5 21.390625 20.328125 13.890625 
Q 24.171875 6.390625 31.78125 6.390625 
Q 39.453125 6.390625 43.28125 13.890625 
Q 47.125 21.390625 47.125 36.375 
Q 47.125 51.421875 43.28125 58.90625 
Q 39.453125 66.40625 31.78125 66.40625 
z
M 31.78125 74.21875 
Q 44.046875 74.21875 50.515625 64.515625 
Q 56.984375 54.828125 56.984375 36.375 
Q 56.984375 17.96875 50.515625 8.265625 
Q 44.046875 -1.421875 31.78125 -1.421875 
Q 19.53125 -1.421875 13.0625 8.265625 
Q 6.59375 17.96875 6.59375 36.375 
Q 6.59375 54.828125 13.0625 64.515625 
Q 19.53125 74.21875 31.78125 74.21875 
z
" id="DejaVuSans-48"/>
       </defs>
       <use xlink:href="#DejaVuSans-48"/>
      </g>
     </g>
    </g>
    <g id="xtick_2">
     <g id="line2d_3">
      <path clip-path="url(#pfce809d18b)" d="M 137.910857 298.944 
L 137.910857 27.648 
" style="fill:none;stroke:#b0b0b0;stroke-linecap:square;stroke-width:0.8;"/>
     </g>
     <g id="line2d_4">
      <g>
       <use style="stroke:#000000;stroke-width:0.8;" x="137.910857" xlink:href="#m32a95a3031" y="298.944"/>
      </g>
     </g>
     <g id="text_2">
      <!-- 2 -->
      <g transform="translate(131.548357 321.140875)scale(0.2 -0.2)">
       <defs>
        <path d="M 19.1875 8.296875 
L 53.609375 8.296875 
L 53.609375 0 
L 7.328125 0 
L 7.328125 8.296875 
Q 12.9375 14.109375 22.625 23.890625 
Q 32.328125 33.6875 34.8125 36.53125 
Q 39.546875 41.84375 41.421875 45.53125 
Q 43.3125 49.21875 43.3125 52.78125 
Q 43.3125 58.59375 39.234375 62.25 
Q 35.15625 65.921875 28.609375 65.921875 
Q 23.96875 65.921875 18.8125 64.3125 
Q 13.671875 62.703125 7.8125 59.421875 
L 7.8125 69.390625 
Q 13.765625 71.78125 18.9375 73 
Q 24.125 74.21875 28.421875 74.21875 
Q 39.75 74.21875 46.484375 68.546875 
Q 53.21875 62.890625 53.21875 53.421875 
Q 53.21875 48.921875 51.53125 44.890625 
Q 49.859375 40.875 45.40625 35.40625 
Q 44.1875 33.984375 37.640625 27.21875 
Q 31.109375 20.453125 19.1875 8.296875 
z
" id="DejaVuSans-50"/>
       </defs>
       <use xlink:href="#DejaVuSans-50"/>
      </g>
     </g>
    </g>
    <g id="xtick_3">
     <g id="line2d_5">
      <path clip-path="url(#pfce809d18b)" d="M 218.221714 298.944 
L 218.221714 27.648 
" style="fill:none;stroke:#b0b0b0;stroke-linecap:square;stroke-width:0.8;"/>
     </g>
     <g id="line2d_6">
      <g>
       <use style="stroke:#000000;stroke-width:0.8;" x="218.221714" xlink:href="#m32a95a3031" y="298.944"/>
      </g>
     </g>
     <g id="text_3">
      <!-- 4 -->
      <g transform="translate(211.859214 321.140875)scale(0.2 -0.2)">
       <defs>
        <path d="M 37.796875 64.3125 
L 12.890625 25.390625 
L 37.796875 25.390625 
z
M 35.203125 72.90625 
L 47.609375 72.90625 
L 47.609375 25.390625 
L 58.015625 25.390625 
L 58.015625 17.1875 
L 47.609375 17.1875 
L 47.609375 0 
L 37.796875 0 
L 37.796875 17.1875 
L 4.890625 17.1875 
L 4.890625 26.703125 
z
" id="DejaVuSans-52"/>
       </defs>
       <use xlink:href="#DejaVuSans-52"/>
      </g>
     </g>
    </g>
    <g id="xtick_4">
     <g id="line2d_7">
      <path clip-path="url(#pfce809d18b)" d="M 298.532571 298.944 
L 298.532571 27.648 
" style="fill:none;stroke:#b0b0b0;stroke-linecap:square;stroke-width:0.8;"/>
     </g>
     <g id="line2d_8">
      <g>
       <use style="stroke:#000000;stroke-width:0.8;" x="298.532571" xlink:href="#m32a95a3031" y="298.944"/>
      </g>
     </g>
     <g id="text_4">
      <!-- 6 -->
      <g transform="translate(292.170071 321.140875)scale(0.2 -0.2)">
       <defs>
        <path d="M 33.015625 40.375 
Q 26.375 40.375 22.484375 35.828125 
Q 18.609375 31.296875 18.609375 23.390625 
Q 18.609375 15.53125 22.484375 10.953125 
Q 26.375 6.390625 33.015625 6.390625 
Q 39.65625 6.390625 43.53125 10.953125 
Q 47.40625 15.53125 47.40625 23.390625 
Q 47.40625 31.296875 43.53125 35.828125 
Q 39.65625 40.375 33.015625 40.375 
z
M 52.59375 71.296875 
L 52.59375 62.3125 
Q 48.875 64.0625 45.09375 64.984375 
Q 41.3125 65.921875 37.59375 65.921875 
Q 27.828125 65.921875 22.671875 59.328125 
Q 17.53125 52.734375 16.796875 39.40625 
Q 19.671875 43.65625 24.015625 45.921875 
Q 28.375 48.1875 33.59375 48.1875 
Q 44.578125 48.1875 50.953125 41.515625 
Q 57.328125 34.859375 57.328125 23.390625 
Q 57.328125 12.15625 50.6875 5.359375 
Q 44.046875 -1.421875 33.015625 -1.421875 
Q 20.359375 -1.421875 13.671875 8.265625 
Q 6.984375 17.96875 6.984375 36.375 
Q 6.984375 53.65625 15.1875 63.9375 
Q 23.390625 74.21875 37.203125 74.21875 
Q 40.921875 74.21875 44.703125 73.484375 
Q 48.484375 72.75 52.59375 71.296875 
z
" id="DejaVuSans-54"/>
       </defs>
       <use xlink:href="#DejaVuSans-54"/>
      </g>
     </g>
    </g>
    <g id="xtick_5">
     <g id="line2d_9">
      <path clip-path="url(#pfce809d18b)" d="M 97.755429 298.944 
L 97.755429 27.648 
" style="fill:none;stroke:#b0b0b0;stroke-linecap:square;stroke-width:0.8;"/>
     </g>
     <g id="line2d_10">
      <defs>
       <path d="M 0 0 
L 0 2 
" id="m613129f39a" style="stroke:#000000;stroke-width:0.6;"/>
      </defs>
      <g>
       <use style="stroke:#000000;stroke-width:0.6;" x="97.755429" xlink:href="#m613129f39a" y="298.944"/>
      </g>
     </g>
    </g>
    <g id="xtick_6">
     <g id="line2d_11">
      <path clip-path="url(#pfce809d18b)" d="M 178.066286 298.944 
L 178.066286 27.648 
" style="fill:none;stroke:#b0b0b0;stroke-linecap:square;stroke-width:0.8;"/>
     </g>
     <g id="line2d_12">
      <g>
       <use style="stroke:#000000;stroke-width:0.6;" x="178.066286" xlink:href="#m613129f39a" y="298.944"/>
      </g>
     </g>
    </g>
    <g id="xtick_7">
     <g id="line2d_13">
      <path clip-path="url(#pfce809d18b)" d="M 258.377143 298.944 
L 258.377143 27.648 
" style="fill:none;stroke:#b0b0b0;stroke-linecap:square;stroke-width:0.8;"/>
     </g>
     <g id="line2d_14">
      <g>
       <use style="stroke:#000000;stroke-width:0.6;" x="258.377143" xlink:href="#m613129f39a" y="298.944"/>
      </g>
     </g>
    </g>
    <g id="xtick_8">
     <g id="line2d_15">
      <path clip-path="url(#pfce809d18b)" d="M 338.688 298.944 
L 338.688 27.648 
" style="fill:none;stroke:#b0b0b0;stroke-linecap:square;stroke-width:0.8;"/>
     </g>
     <g id="line2d_16">
      <g>
       <use style="stroke:#000000;stroke-width:0.6;" x="338.688" xlink:href="#m613129f39a" y="298.944"/>
      </g>
     </g>
    </g>
    <g id="text_5">
     <!-- log10(# (f+g)-evals / dimension) -->
     <g transform="translate(58.145016 342.217594)scale(0.17 -0.17)">
      <defs>
       <path d="M 9.421875 75.984375 
L 18.40625 75.984375 
L 18.40625 0 
L 9.421875 0 
z
" id="DejaVuSans-108"/>
       <path d="M 30.609375 48.390625 
Q 23.390625 48.390625 19.1875 42.75 
Q 14.984375 37.109375 14.984375 27.296875 
Q 14.984375 17.484375 19.15625 11.84375 
Q 23.34375 6.203125 30.609375 6.203125 
Q 37.796875 6.203125 41.984375 11.859375 
Q 46.1875 17.53125 46.1875 27.296875 
Q 46.1875 37.015625 41.984375 42.703125 
Q 37.796875 48.390625 30.609375 48.390625 
z
M 30.609375 56 
Q 42.328125 56 49.015625 48.375 
Q 55.71875 40.765625 55.71875 27.296875 
Q 55.71875 13.875 49.015625 6.21875 
Q 42.328125 -1.421875 30.609375 -1.421875 
Q 18.84375 -1.421875 12.171875 6.21875 
Q 5.515625 13.875 5.515625 27.296875 
Q 5.515625 40.765625 12.171875 48.375 
Q 18.84375 56 30.609375 56 
z
" id="DejaVuSans-111"/>
       <path d="M 45.40625 27.984375 
Q 45.40625 37.75 41.375 43.109375 
Q 37.359375 48.484375 30.078125 48.484375 
Q 22.859375 48.484375 18.828125 43.109375 
Q 14.796875 37.75 14.796875 27.984375 
Q 14.796875 18.265625 18.828125 12.890625 
Q 22.859375 7.515625 30.078125 7.515625 
Q 37.359375 7.515625 41.375 12.890625 
Q 45.40625 18.265625 45.40625 27.984375 
z
M 54.390625 6.78125 
Q 54.390625 -7.171875 48.1875 -13.984375 
Q 42 -20.796875 29.203125 -20.796875 
Q 24.46875 -20.796875 20.265625 -20.09375 
Q 16.0625 -19.390625 12.109375 -17.921875 
L 12.109375 -9.1875 
Q 16.0625 -11.328125 19.921875 -12.34375 
Q 23.78125 -13.375 27.78125 -13.375 
Q 36.625 -13.375 41.015625 -8.765625 
Q 45.40625 -4.15625 45.40625 5.171875 
L 45.40625 9.625 
Q 42.625 4.78125 38.28125 2.390625 
Q 33.9375 0 27.875 0 
Q 17.828125 0 11.671875 7.65625 
Q 5.515625 15.328125 5.515625 27.984375 
Q 5.515625 40.671875 11.671875 48.328125 
Q 17.828125 56 27.875 56 
Q 33.9375 56 38.28125 53.609375 
Q 42.625 51.21875 45.40625 46.390625 
L 45.40625 54.6875 
L 54.390625 54.6875 
z
" id="DejaVuSans-103"/>
       <path d="M 12.40625 8.296875 
L 28.515625 8.296875 
L 28.515625 63.921875 
L 10.984375 60.40625 
L 10.984375 69.390625 
L 28.421875 72.90625 
L 38.28125 72.90625 
L 38.28125 8.296875 
L 54.390625 8.296875 
L 54.390625 0 
L 12.40625 0 
z
" id="DejaVuSans-49"/>
       <path d="M 31 75.875 
Q 24.46875 64.65625 21.28125 53.65625 
Q 18.109375 42.671875 18.109375 31.390625 
Q 18.109375 20.125 21.3125 9.0625 
Q 24.515625 -2 31 -13.1875 
L 23.1875 -13.1875 
Q 15.875 -1.703125 12.234375 9.375 
Q 8.59375 20.453125 8.59375 31.390625 
Q 8.59375 42.28125 12.203125 53.3125 
Q 15.828125 64.359375 23.1875 75.875 
z
" id="DejaVuSans-40"/>
       <path d="M 51.125 44 
L 36.921875 44 
L 32.8125 27.6875 
L 47.125 27.6875 
z
M 43.796875 71.78125 
L 38.71875 51.515625 
L 52.984375 51.515625 
L 58.109375 71.78125 
L 65.921875 71.78125 
L 60.890625 51.515625 
L 76.125 51.515625 
L 76.125 44 
L 58.984375 44 
L 54.984375 27.6875 
L 70.515625 27.6875 
L 70.515625 20.21875 
L 53.078125 20.21875 
L 48 0 
L 40.1875 0 
L 45.21875 20.21875 
L 30.90625 20.21875 
L 25.875 0 
L 18.015625 0 
L 23.09375 20.21875 
L 7.71875 20.21875 
L 7.71875 27.6875 
L 24.90625 27.6875 
L 29 44 
L 13.28125 44 
L 13.28125 51.515625 
L 30.90625 51.515625 
L 35.890625 71.78125 
z
" id="DejaVuSans-35"/>
       <path id="DejaVuSans-32"/>
       <path d="M 37.109375 75.984375 
L 37.109375 68.5 
L 28.515625 68.5 
Q 23.6875 68.5 21.796875 66.546875 
Q 19.921875 64.59375 19.921875 59.515625 
L 19.921875 54.6875 
L 34.71875 54.6875 
L 34.71875 47.703125 
L 19.921875 47.703125 
L 19.921875 0 
L 10.890625 0 
L 10.890625 47.703125 
L 2.296875 47.703125 
L 2.296875 54.6875 
L 10.890625 54.6875 
L 10.890625 58.5 
Q 10.890625 67.625 15.140625 71.796875 
Q 19.390625 75.984375 28.609375 75.984375 
z
" id="DejaVuSans-102"/>
       <path d="M 46 62.703125 
L 46 35.5 
L 73.1875 35.5 
L 73.1875 27.203125 
L 46 27.203125 
L 46 0 
L 37.796875 0 
L 37.796875 27.203125 
L 10.59375 27.203125 
L 10.59375 35.5 
L 37.796875 35.5 
L 37.796875 62.703125 
z
" id="DejaVuSans-43"/>
       <path d="M 8.015625 75.875 
L 15.828125 75.875 
Q 23.140625 64.359375 26.78125 53.3125 
Q 30.421875 42.28125 30.421875 31.390625 
Q 30.421875 20.453125 26.78125 9.375 
Q 23.140625 -1.703125 15.828125 -13.1875 
L 8.015625 -13.1875 
Q 14.5 -2 17.703125 9.0625 
Q 20.90625 20.125 20.90625 31.390625 
Q 20.90625 42.671875 17.703125 53.65625 
Q 14.5 64.65625 8.015625 75.875 
z
" id="DejaVuSans-41"/>
       <path d="M 4.890625 31.390625 
L 31.203125 31.390625 
L 31.203125 23.390625 
L 4.890625 23.390625 
z
" id="DejaVuSans-45"/>
       <path d="M 56.203125 29.59375 
L 56.203125 25.203125 
L 14.890625 25.203125 
Q 15.484375 15.921875 20.484375 11.0625 
Q 25.484375 6.203125 34.421875 6.203125 
Q 39.59375 6.203125 44.453125 7.46875 
Q 49.3125 8.734375 54.109375 11.28125 
L 54.109375 2.78125 
Q 49.265625 0.734375 44.1875 -0.34375 
Q 39.109375 -1.421875 33.890625 -1.421875 
Q 20.796875 -1.421875 13.15625 6.1875 
Q 5.515625 13.8125 5.515625 26.8125 
Q 5.515625 40.234375 12.765625 48.109375 
Q 20.015625 56 32.328125 56 
Q 43.359375 56 49.78125 48.890625 
Q 56.203125 41.796875 56.203125 29.59375 
z
M 47.21875 32.234375 
Q 47.125 39.59375 43.09375 43.984375 
Q 39.0625 48.390625 32.421875 48.390625 
Q 24.90625 48.390625 20.390625 44.140625 
Q 15.875 39.890625 15.1875 32.171875 
z
" id="DejaVuSans-101"/>
       <path d="M 2.984375 54.6875 
L 12.5 54.6875 
L 29.59375 8.796875 
L 46.6875 54.6875 
L 56.203125 54.6875 
L 35.6875 0 
L 23.484375 0 
z
" id="DejaVuSans-118"/>
       <path d="M 34.28125 27.484375 
Q 23.390625 27.484375 19.1875 25 
Q 14.984375 22.515625 14.984375 16.5 
Q 14.984375 11.71875 18.140625 8.90625 
Q 21.296875 6.109375 26.703125 6.109375 
Q 34.1875 6.109375 38.703125 11.40625 
Q 43.21875 16.703125 43.21875 25.484375 
L 43.21875 27.484375 
z
M 52.203125 31.203125 
L 52.203125 0 
L 43.21875 0 
L 43.21875 8.296875 
Q 40.140625 3.328125 35.546875 0.953125 
Q 30.953125 -1.421875 24.3125 -1.421875 
Q 15.921875 -1.421875 10.953125 3.296875 
Q 6 8.015625 6 15.921875 
Q 6 25.140625 12.171875 29.828125 
Q 18.359375 34.515625 30.609375 34.515625 
L 43.21875 34.515625 
L 43.21875 35.40625 
Q 43.21875 41.609375 39.140625 45 
Q 35.0625 48.390625 27.6875 48.390625 
Q 23 48.390625 18.546875 47.265625 
Q 14.109375 46.140625 10.015625 43.890625 
L 10.015625 52.203125 
Q 14.9375 54.109375 19.578125 55.046875 
Q 24.21875 56 28.609375 56 
Q 40.484375 56 46.34375 49.84375 
Q 52.203125 43.703125 52.203125 31.203125 
z
" id="DejaVuSans-97"/>
       <path d="M 44.28125 53.078125 
L 44.28125 44.578125 
Q 40.484375 46.53125 36.375 47.5 
Q 32.28125 48.484375 27.875 48.484375 
Q 21.1875 48.484375 17.84375 46.4375 
Q 14.5 44.390625 14.5 40.28125 
Q 14.5 37.15625 16.890625 35.375 
Q 19.28125 33.59375 26.515625 31.984375 
L 29.59375 31.296875 
Q 39.15625 29.25 43.1875 25.515625 
Q 47.21875 21.78125 47.21875 15.09375 
Q 47.21875 7.46875 41.1875 3.015625 
Q 35.15625 -1.421875 24.609375 -1.421875 
Q 20.21875 -1.421875 15.453125 -0.5625 
Q 10.6875 0.296875 5.421875 2 
L 5.421875 11.28125 
Q 10.40625 8.6875 15.234375 7.390625 
Q 20.0625 6.109375 24.8125 6.109375 
Q 31.15625 6.109375 34.5625 8.28125 
Q 37.984375 10.453125 37.984375 14.40625 
Q 37.984375 18.0625 35.515625 20.015625 
Q 33.0625 21.96875 24.703125 23.78125 
L 21.578125 24.515625 
Q 13.234375 26.265625 9.515625 29.90625 
Q 5.8125 33.546875 5.8125 39.890625 
Q 5.8125 47.609375 11.28125 51.796875 
Q 16.75 56 26.8125 56 
Q 31.78125 56 36.171875 55.265625 
Q 40.578125 54.546875 44.28125 53.078125 
z
" id="DejaVuSans-115"/>
       <path d="M 25.390625 72.90625 
L 33.6875 72.90625 
L 8.296875 -9.28125 
L 0 -9.28125 
z
" id="DejaVuSans-47"/>
       <path d="M 45.40625 46.390625 
L 45.40625 75.984375 
L 54.390625 75.984375 
L 54.390625 0 
L 45.40625 0 
L 45.40625 8.203125 
Q 42.578125 3.328125 38.25 0.953125 
Q 33.9375 -1.421875 27.875 -1.421875 
Q 17.96875 -1.421875 11.734375 6.484375 
Q 5.515625 14.40625 5.515625 27.296875 
Q 5.515625 40.1875 11.734375 48.09375 
Q 17.96875 56 27.875 56 
Q 33.9375 56 38.25 53.625 
Q 42.578125 51.265625 45.40625 46.390625 
z
M 14.796875 27.296875 
Q 14.796875 17.390625 18.875 11.75 
Q 22.953125 6.109375 30.078125 6.109375 
Q 37.203125 6.109375 41.296875 11.75 
Q 45.40625 17.390625 45.40625 27.296875 
Q 45.40625 37.203125 41.296875 42.84375 
Q 37.203125 48.484375 30.078125 48.484375 
Q 22.953125 48.484375 18.875 42.84375 
Q 14.796875 37.203125 14.796875 27.296875 
z
" id="DejaVuSans-100"/>
       <path d="M 9.421875 54.6875 
L 18.40625 54.6875 
L 18.40625 0 
L 9.421875 0 
z
M 9.421875 75.984375 
L 18.40625 75.984375 
L 18.40625 64.59375 
L 9.421875 64.59375 
z
" id="DejaVuSans-105"/>
       <path d="M 52 44.1875 
Q 55.375 50.25 60.0625 53.125 
Q 64.75 56 71.09375 56 
Q 79.640625 56 84.28125 50.015625 
Q 88.921875 44.046875 88.921875 33.015625 
L 88.921875 0 
L 79.890625 0 
L 79.890625 32.71875 
Q 79.890625 40.578125 77.09375 44.375 
Q 74.3125 48.1875 68.609375 48.1875 
Q 61.625 48.1875 57.5625 43.546875 
Q 53.515625 38.921875 53.515625 30.90625 
L 53.515625 0 
L 44.484375 0 
L 44.484375 32.71875 
Q 44.484375 40.625 41.703125 44.40625 
Q 38.921875 48.1875 33.109375 48.1875 
Q 26.21875 48.1875 22.15625 43.53125 
Q 18.109375 38.875 18.109375 30.90625 
L 18.109375 0 
L 9.078125 0 
L 9.078125 54.6875 
L 18.109375 54.6875 
L 18.109375 46.1875 
Q 21.1875 51.21875 25.484375 53.609375 
Q 29.78125 56 35.6875 56 
Q 41.65625 56 45.828125 52.96875 
Q 50 49.953125 52 44.1875 
z
" id="DejaVuSans-109"/>
       <path d="M 54.890625 33.015625 
L 54.890625 0 
L 45.90625 0 
L 45.90625 32.71875 
Q 45.90625 40.484375 42.875 44.328125 
Q 39.84375 48.1875 33.796875 48.1875 
Q 26.515625 48.1875 22.3125 43.546875 
Q 18.109375 38.921875 18.109375 30.90625 
L 18.109375 0 
L 9.078125 0 
L 9.078125 54.6875 
L 18.109375 54.6875 
L 18.109375 46.1875 
Q 21.34375 51.125 25.703125 53.5625 
Q 30.078125 56 35.796875 56 
Q 45.21875 56 50.046875 50.171875 
Q 54.890625 44.34375 54.890625 33.015625 
z
" id="DejaVuSans-110"/>
      </defs>
      <use xlink:href="#DejaVuSans-108"/>
      <use x="27.783203" xlink:href="#DejaVuSans-111"/>
      <use x="88.964844" xlink:href="#DejaVuSans-103"/>
      <use x="152.441406" xlink:href="#DejaVuSans-49"/>
      <use x="216.064453" xlink:href="#DejaVuSans-48"/>
      <use x="279.6875" xlink:href="#DejaVuSans-40"/>
      <use x="318.701172" xlink:href="#DejaVuSans-35"/>
      <use x="402.490234" xlink:href="#DejaVuSans-32"/>
      <use x="434.277344" xlink:href="#DejaVuSans-40"/>
      <use x="473.291016" xlink:href="#DejaVuSans-102"/>
      <use x="508.496094" xlink:href="#DejaVuSans-43"/>
      <use x="592.285156" xlink:href="#DejaVuSans-103"/>
      <use x="655.761719" xlink:href="#DejaVuSans-41"/>
      <use x="694.775391" xlink:href="#DejaVuSans-45"/>
      <use x="730.859375" xlink:href="#DejaVuSans-101"/>
      <use x="792.382812" xlink:href="#DejaVuSans-118"/>
      <use x="851.5625" xlink:href="#DejaVuSans-97"/>
      <use x="912.841797" xlink:href="#DejaVuSans-108"/>
      <use x="940.625" xlink:href="#DejaVuSans-115"/>
      <use x="992.724609" xlink:href="#DejaVuSans-32"/>
      <use x="1024.511719" xlink:href="#DejaVuSans-47"/>
      <use x="1058.203125" xlink:href="#DejaVuSans-32"/>
      <use x="1089.990234" xlink:href="#DejaVuSans-100"/>
      <use x="1153.466797" xlink:href="#DejaVuSans-105"/>
      <use x="1181.25" xlink:href="#DejaVuSans-109"/>
      <use x="1278.662109" xlink:href="#DejaVuSans-101"/>
      <use x="1340.185547" xlink:href="#DejaVuSans-110"/>
      <use x="1403.564453" xlink:href="#DejaVuSans-115"/>
      <use x="1455.664062" xlink:href="#DejaVuSans-105"/>
      <use x="1483.447266" xlink:href="#DejaVuSans-111"/>
      <use x="1544.628906" xlink:href="#DejaVuSans-110"/>
      <use x="1608.007812" xlink:href="#DejaVuSans-41"/>
     </g>
    </g>
   </g>
   <g id="matplotlib.axis_2">
    <g id="ytick_1">
     <g id="line2d_17">
      <path clip-path="url(#pfce809d18b)" d="M 57.6 298.944 
L 338.688 298.944 
" style="fill:none;stroke:#b0b0b0;stroke-linecap:square;stroke-width:0.8;"/>
     </g>
     <g id="line2d_18">
      <defs>
       <path d="M 0 0 
L -3.5 0 
" id="mee420b0eec" style="stroke:#000000;stroke-width:0.8;"/>
      </defs>
      <g>
       <use style="stroke:#000000;stroke-width:0.8;" x="57.6" xlink:href="#mee420b0eec" y="298.944"/>
      </g>
     </g>
     <g id="text_6">
      <!-- 0.0 -->
      <g transform="translate(25.155 305.02275)scale(0.16 -0.16)">
       <defs>
        <path d="M 10.6875 12.40625 
L 21 12.40625 
L 21 0 
L 10.6875 0 
z
" id="DejaVuSans-46"/>
       </defs>
       <use xlink:href="#DejaVuSans-48"/>
       <use x="63.623047" xlink:href="#DejaVuSans-46"/>
       <use x="95.410156" xlink:href="#DejaVuSans-48"/>
      </g>
     </g>
    </g>
    <g id="ytick_2">
     <g id="line2d_19">
      <path clip-path="url(#pfce809d18b)" d="M 57.6 245.22202 
L 338.688 245.22202 
" style="fill:none;stroke:#b0b0b0;stroke-linecap:square;stroke-width:0.8;"/>
     </g>
     <g id="line2d_20">
      <g>
       <use style="stroke:#000000;stroke-width:0.8;" x="57.6" xlink:href="#mee420b0eec" y="245.22202"/>
      </g>
     </g>
     <g id="text_7">
      <!-- 0.2 -->
      <g transform="translate(25.155 251.30077)scale(0.16 -0.16)">
       <use xlink:href="#DejaVuSans-48"/>
       <use x="63.623047" xlink:href="#DejaVuSans-46"/>
       <use x="95.410156" xlink:href="#DejaVuSans-50"/>
      </g>
     </g>
    </g>
    <g id="ytick_3">
     <g id="line2d_21">
      <path clip-path="url(#pfce809d18b)" d="M 57.6 191.50004 
L 338.688 191.50004 
" style="fill:none;stroke:#b0b0b0;stroke-linecap:square;stroke-width:0.8;"/>
     </g>
     <g id="line2d_22">
      <g>
       <use style="stroke:#000000;stroke-width:0.8;" x="57.6" xlink:href="#mee420b0eec" y="191.50004"/>
      </g>
     </g>
     <g id="text_8">
      <!-- 0.4 -->
      <g transform="translate(25.155 197.57879)scale(0.16 -0.16)">
       <use xlink:href="#DejaVuSans-48"/>
       <use x="63.623047" xlink:href="#DejaVuSans-46"/>
       <use x="95.410156" xlink:href="#DejaVuSans-52"/>
      </g>
     </g>
    </g>
    <g id="ytick_4">
     <g id="line2d_23">
      <path clip-path="url(#pfce809d18b)" d="M 57.6 137.778059 
L 338.688 137.778059 
" style="fill:none;stroke:#b0b0b0;stroke-linecap:square;stroke-width:0.8;"/>
     </g>
     <g id="line2d_24">
      <g>
       <use style="stroke:#000000;stroke-width:0.8;" x="57.6" xlink:href="#mee420b0eec" y="137.778059"/>
      </g>
     </g>
     <g id="text_9">
      <!-- 0.6 -->
      <g transform="translate(25.155 143.856809)scale(0.16 -0.16)">
       <use xlink:href="#DejaVuSans-48"/>
       <use x="63.623047" xlink:href="#DejaVuSans-46"/>
       <use x="95.410156" xlink:href="#DejaVuSans-54"/>
      </g>
     </g>
    </g>
    <g id="ytick_5">
     <g id="line2d_25">
      <path clip-path="url(#pfce809d18b)" d="M 57.6 84.056079 
L 338.688 84.056079 
" style="fill:none;stroke:#b0b0b0;stroke-linecap:square;stroke-width:0.8;"/>
     </g>
     <g id="line2d_26">
      <g>
       <use style="stroke:#000000;stroke-width:0.8;" x="57.6" xlink:href="#mee420b0eec" y="84.056079"/>
      </g>
     </g>
     <g id="text_10">
      <!-- 0.8 -->
      <g transform="translate(25.155 90.134829)scale(0.16 -0.16)">
       <defs>
        <path d="M 31.78125 34.625 
Q 24.75 34.625 20.71875 30.859375 
Q 16.703125 27.09375 16.703125 20.515625 
Q 16.703125 13.921875 20.71875 10.15625 
Q 24.75 6.390625 31.78125 6.390625 
Q 38.8125 6.390625 42.859375 10.171875 
Q 46.921875 13.96875 46.921875 20.515625 
Q 46.921875 27.09375 42.890625 30.859375 
Q 38.875 34.625 31.78125 34.625 
z
M 21.921875 38.8125 
Q 15.578125 40.375 12.03125 44.71875 
Q 8.5 49.078125 8.5 55.328125 
Q 8.5 64.0625 14.71875 69.140625 
Q 20.953125 74.21875 31.78125 74.21875 
Q 42.671875 74.21875 48.875 69.140625 
Q 55.078125 64.0625 55.078125 55.328125 
Q 55.078125 49.078125 51.53125 44.71875 
Q 48 40.375 41.703125 38.8125 
Q 48.828125 37.15625 52.796875 32.3125 
Q 56.78125 27.484375 56.78125 20.515625 
Q 56.78125 9.90625 50.3125 4.234375 
Q 43.84375 -1.421875 31.78125 -1.421875 
Q 19.734375 -1.421875 13.25 4.234375 
Q 6.78125 9.90625 6.78125 20.515625 
Q 6.78125 27.484375 10.78125 32.3125 
Q 14.796875 37.15625 21.921875 38.8125 
z
M 18.3125 54.390625 
Q 18.3125 48.734375 21.84375 45.5625 
Q 25.390625 42.390625 31.78125 42.390625 
Q 38.140625 42.390625 41.71875 45.5625 
Q 45.3125 48.734375 45.3125 54.390625 
Q 45.3125 60.0625 41.71875 63.234375 
Q 38.140625 66.40625 31.78125 66.40625 
Q 25.390625 66.40625 21.84375 63.234375 
Q 18.3125 60.0625 18.3125 54.390625 
z
" id="DejaVuSans-56"/>
       </defs>
       <use xlink:href="#DejaVuSans-48"/>
       <use x="63.623047" xlink:href="#DejaVuSans-46"/>
       <use x="95.410156" xlink:href="#DejaVuSans-56"/>
      </g>
     </g>
    </g>
    <g id="ytick_6">
     <g id="line2d_27">
      <path clip-path="url(#pfce809d18b)" d="M 57.6 30.334099 
L 338.688 30.334099 
" style="fill:none;stroke:#b0b0b0;stroke-linecap:square;stroke-width:0.8;"/>
     </g>
     <g id="line2d_28">
      <g>
       <use style="stroke:#000000;stroke-width:0.8;" x="57.6" xlink:href="#mee420b0eec" y="30.334099"/>
      </g>
     </g>
     <g id="text_11">
      <!-- 1.0 -->
      <g transform="translate(25.155 36.412849)scale(0.16 -0.16)">
       <use xlink:href="#DejaVuSans-49"/>
       <use x="63.623047" xlink:href="#DejaVuSans-46"/>
       <use x="95.410156" xlink:href="#DejaVuSans-48"/>
      </g>
     </g>
    </g>
    <g id="text_12">
     <!-- Fraction of function,target pairs -->
     <g transform="translate(17.619531 297.681)rotate(-90)scale(0.17 -0.17)">
      <defs>
       <path d="M 9.8125 72.90625 
L 51.703125 72.90625 
L 51.703125 64.59375 
L 19.671875 64.59375 
L 19.671875 43.109375 
L 48.578125 43.109375 
L 48.578125 34.8125 
L 19.671875 34.8125 
L 19.671875 0 
L 9.8125 0 
z
" id="DejaVuSans-70"/>
       <path d="M 41.109375 46.296875 
Q 39.59375 47.171875 37.8125 47.578125 
Q 36.03125 48 33.890625 48 
Q 26.265625 48 22.1875 43.046875 
Q 18.109375 38.09375 18.109375 28.8125 
L 18.109375 0 
L 9.078125 0 
L 9.078125 54.6875 
L 18.109375 54.6875 
L 18.109375 46.1875 
Q 20.953125 51.171875 25.484375 53.578125 
Q 30.03125 56 36.53125 56 
Q 37.453125 56 38.578125 55.875 
Q 39.703125 55.765625 41.0625 55.515625 
z
" id="DejaVuSans-114"/>
       <path d="M 48.78125 52.59375 
L 48.78125 44.1875 
Q 44.96875 46.296875 41.140625 47.34375 
Q 37.3125 48.390625 33.40625 48.390625 
Q 24.65625 48.390625 19.8125 42.84375 
Q 14.984375 37.3125 14.984375 27.296875 
Q 14.984375 17.28125 19.8125 11.734375 
Q 24.65625 6.203125 33.40625 6.203125 
Q 37.3125 6.203125 41.140625 7.25 
Q 44.96875 8.296875 48.78125 10.40625 
L 48.78125 2.09375 
Q 45.015625 0.34375 40.984375 -0.53125 
Q 36.96875 -1.421875 32.421875 -1.421875 
Q 20.0625 -1.421875 12.78125 6.34375 
Q 5.515625 14.109375 5.515625 27.296875 
Q 5.515625 40.671875 12.859375 48.328125 
Q 20.21875 56 33.015625 56 
Q 37.15625 56 41.109375 55.140625 
Q 45.0625 54.296875 48.78125 52.59375 
z
" id="DejaVuSans-99"/>
       <path d="M 18.3125 70.21875 
L 18.3125 54.6875 
L 36.8125 54.6875 
L 36.8125 47.703125 
L 18.3125 47.703125 
L 18.3125 18.015625 
Q 18.3125 11.328125 20.140625 9.421875 
Q 21.96875 7.515625 27.59375 7.515625 
L 36.8125 7.515625 
L 36.8125 0 
L 27.59375 0 
Q 17.1875 0 13.234375 3.875 
Q 9.28125 7.765625 9.28125 18.015625 
L 9.28125 47.703125 
L 2.6875 47.703125 
L 2.6875 54.6875 
L 9.28125 54.6875 
L 9.28125 70.21875 
z
" id="DejaVuSans-116"/>
       <path d="M 8.5 21.578125 
L 8.5 54.6875 
L 17.484375 54.6875 
L 17.484375 21.921875 
Q 17.484375 14.15625 20.5 10.265625 
Q 23.53125 6.390625 29.59375 6.390625 
Q 36.859375 6.390625 41.078125 11.03125 
Q 45.3125 15.671875 45.3125 23.6875 
L 45.3125 54.6875 
L 54.296875 54.6875 
L 54.296875 0 
L 45.3125 0 
L 45.3125 8.40625 
Q 42.046875 3.421875 37.71875 1 
Q 33.40625 -1.421875 27.6875 -1.421875 
Q 18.265625 -1.421875 13.375 4.4375 
Q 8.5 10.296875 8.5 21.578125 
z
M 31.109375 56 
z
" id="DejaVuSans-117"/>
       <path d="M 11.71875 12.40625 
L 22.015625 12.40625 
L 22.015625 4 
L 14.015625 -11.625 
L 7.71875 -11.625 
L 11.71875 4 
z
" id="DejaVuSans-44"/>
       <path d="M 18.109375 8.203125 
L 18.109375 -20.796875 
L 9.078125 -20.796875 
L 9.078125 54.6875 
L 18.109375 54.6875 
L 18.109375 46.390625 
Q 20.953125 51.265625 25.265625 53.625 
Q 29.59375 56 35.59375 56 
Q 45.5625 56 51.78125 48.09375 
Q 58.015625 40.1875 58.015625 27.296875 
Q 58.015625 14.40625 51.78125 6.484375 
Q 45.5625 -1.421875 35.59375 -1.421875 
Q 29.59375 -1.421875 25.265625 0.953125 
Q 20.953125 3.328125 18.109375 8.203125 
z
M 48.6875 27.296875 
Q 48.6875 37.203125 44.609375 42.84375 
Q 40.53125 48.484375 33.40625 48.484375 
Q 26.265625 48.484375 22.1875 42.84375 
Q 18.109375 37.203125 18.109375 27.296875 
Q 18.109375 17.390625 22.1875 11.75 
Q 26.265625 6.109375 33.40625 6.109375 
Q 40.53125 6.109375 44.609375 11.75 
Q 48.6875 17.390625 48.6875 27.296875 
z
" id="DejaVuSans-112"/>
      </defs>
      <use xlink:href="#DejaVuSans-70"/>
      <use x="50.269531" xlink:href="#DejaVuSans-114"/>
      <use x="91.382812" xlink:href="#DejaVuSans-97"/>
      <use x="152.662109" xlink:href="#DejaVuSans-99"/>
      <use x="207.642578" xlink:href="#DejaVuSans-116"/>
      <use x="246.851562" xlink:href="#DejaVuSans-105"/>
      <use x="274.634766" xlink:href="#DejaVuSans-111"/>
      <use x="335.816406" xlink:href="#DejaVuSans-110"/>
      <use x="399.195312" xlink:href="#DejaVuSans-32"/>
      <use x="430.982422" xlink:href="#DejaVuSans-111"/>
      <use x="492.164062" xlink:href="#DejaVuSans-102"/>
      <use x="527.369141" xlink:href="#DejaVuSans-32"/>
      <use x="559.15625" xlink:href="#DejaVuSans-102"/>
      <use x="594.361328" xlink:href="#DejaVuSans-117"/>
      <use x="657.740234" xlink:href="#DejaVuSans-110"/>
      <use x="721.119141" xlink:href="#DejaVuSans-99"/>
      <use x="776.099609" xlink:href="#DejaVuSans-116"/>
      <use x="815.308594" xlink:href="#DejaVuSans-105"/>
      <use x="843.091797" xlink:href="#DejaVuSans-111"/>
      <use x="904.273438" xlink:href="#DejaVuSans-110"/>
      <use x="967.652344" xlink:href="#DejaVuSans-44"/>
      <use x="999.439453" xlink:href="#DejaVuSans-116"/>
      <use x="1038.648438" xlink:href="#DejaVuSans-97"/>
      <use x="1099.927734" xlink:href="#DejaVuSans-114"/>
      <use x="1139.291016" xlink:href="#DejaVuSans-103"/>
      <use x="1202.767578" xlink:href="#DejaVuSans-101"/>
      <use x="1264.291016" xlink:href="#DejaVuSans-116"/>
      <use x="1303.5" xlink:href="#DejaVuSans-32"/>
      <use x="1335.287109" xlink:href="#DejaVuSans-112"/>
      <use x="1398.763672" xlink:href="#DejaVuSans-97"/>
      <use x="1460.042969" xlink:href="#DejaVuSans-105"/>
      <use x="1487.826172" xlink:href="#DejaVuSans-114"/>
      <use x="1528.939453" xlink:href="#DejaVuSans-115"/>
     </g>
    </g>
   </g>
   <g id="line2d_29">
    <defs>
     <path d="M 0 1.5 
C 0.397805 1.5 0.77937 1.341951 1.06066 1.06066 
C 1.341951 0.77937 1.5 0.397805 1.5 0 
C 1.5 -0.397805 1.341951 -0.77937 1.06066 -1.06066 
C 0.77937 -1.341951 0.397805 -1.5 0 -1.5 
C -0.397805 -1.5 -0.77937 -1.341951 -1.06066 -1.06066 
C -1.341951 -0.77937 -1.5 -0.397805 -1.5 0 
C -1.5 0.397805 -1.341951 0.77937 -1.06066 1.06066 
C -0.77937 1.341951 -0.397805 1.5 0 1.5 
z
" id="me76b964cab" style="stroke:#000080;"/>
    </defs>
    <g>
     <use style="fill:#000080;stroke:#000080;" x="208.069565" xlink:href="#me76b964cab" y="30.334099"/>
     <use style="fill:#000080;stroke:#000080;" x="208.069565" xlink:href="#me76b964cab" y="30.334099"/>
    </g>
   </g>
   <g id="line2d_30">
    <path d="M 116.323218 298.944 
L 116.323218 298.288854 
L 117.486268 298.288854 
L 117.486268 295.013123 
L 120.093994 295.013123 
L 120.093994 293.047685 
L 120.571812 293.047685 
L 120.571812 291.082247 
L 123.192626 291.082247 
L 123.192626 289.771955 
L 124.368753 289.771955 
L 124.368753 289.116809 
L 125.822869 289.116809 
L 125.822869 285.185932 
L 126.50685 285.185932 
L 126.50685 284.530786 
L 126.839037 284.530786 
L 126.839037 282.565348 
L 127.165014 282.565348 
L 127.165014 277.979325 
L 129.290685 277.979325 
L 129.290685 275.35874 
L 129.574256 275.35874 
L 129.574256 274.048448 
L 131.185181 274.048448 
L 131.185181 273.393302 
L 131.690703 273.393302 
L 131.690703 266.841841 
L 131.938072 266.841841 
L 131.938072 265.531549 
L 132.422528 265.531549 
L 132.422528 262.910965 
L 133.800029 262.910965 
L 133.800029 260.945526 
L 134.450015 260.945526 
L 134.450015 259.635234 
L 134.870259 259.635234 
L 134.870259 255.049211 
L 135.482227 255.049211 
L 135.482227 254.394065 
L 135.681535 254.394065 
L 135.681535 253.738919 
L 136.266147 253.738919 
L 136.266147 253.083773 
L 137.198951 253.083773 
L 137.198951 249.808043 
L 137.735587 249.808043 
L 137.735587 249.152896 
L 139.413734 249.152896 
L 139.413734 248.49775 
L 140.499195 248.49775 
L 140.499195 247.187458 
L 140.64889 247.187458 
L 140.64889 246.532312 
L 141.090414 246.532312 
L 141.090414 245.877166 
L 141.378673 245.877166 
L 141.378673 245.22202 
L 142.07914 245.22202 
L 142.07914 243.256582 
L 142.351634 243.256582 
L 142.351634 240.635997 
L 142.486301 240.635997 
L 142.486301 238.015413 
L 143.653678 238.015413 
L 143.653678 236.049974 
L 143.902815 236.049974 
L 143.902815 234.739682 
L 144.865226 234.739682 
L 144.865226 232.774244 
L 145.777292 232.774244 
L 145.888018 231.463952 
L 146.107383 231.463952 
L 146.107383 230.808806 
L 147.061745 230.808806 
L 147.061745 228.843367 
L 147.96658 228.843367 
L 147.96658 228.188221 
L 148.639252 228.188221 
L 148.639252 227.533075 
L 149.911431 227.533075 
L 149.998846 226.222783 
L 150.344189 226.222783 
L 150.344189 225.567637 
L 151.740076 225.567637 
L 151.740076 224.912491 
L 151.897188 224.912491 
L 151.897188 223.602199 
L 152.052897 223.602199 
L 152.130233 221.63676 
L 153.250915 221.63676 
L 153.250915 220.981614 
L 153.609024 220.981614 
L 153.609024 219.671322 
L 154.707925 219.671322 
L 154.77436 218.36103 
L 155.102793 218.36103 
L 155.102793 217.050738 
L 155.488919 217.050738 
L 155.55245 215.740445 
L 156.776762 215.740445 
L 156.776762 215.085299 
L 158.784773 215.085299 
L 158.784773 213.775007 
L 159.098062 213.775007 
L 159.098062 213.119861 
L 159.252621 213.119861 
L 159.252621 212.464715 
L 159.807898 212.464715 
L 159.857512 210.499277 
L 160.249422 210.499277 
L 160.249422 209.84413 
L 161.054091 209.84413 
L 161.054091 209.188984 
L 161.465522 209.188984 
L 161.465522 208.533838 
L 161.689969 208.533838 
L 161.689969 207.878692 
L 161.911563 207.878692 
L 161.955547 205.258108 
L 162.559939 205.258108 
L 162.559939 204.602962 
L 162.854457 204.602962 
L 162.854457 203.292669 
L 163.061823 203.292669 
L 163.061823 202.637523 
L 163.469301 202.637523 
L 163.469301 201.327231 
L 163.748975 201.327231 
L 163.748975 200.672085 
L 164.140886 200.672085 
L 164.140886 200.016939 
L 164.675172 200.016939 
L 164.675172 199.361793 
L 164.9363 199.361793 
L 164.9363 198.051501 
L 165.625977 198.051501 
L 165.625977 196.741208 
L 167.288118 196.741208 
L 167.288118 196.086062 
L 167.449146 196.086062 
L 167.449146 195.430916 
L 167.576907 195.430916 
L 167.640438 194.120624 
L 167.76681 194.120624 
L 167.76681 193.465478 
L 168.01684 193.465478 
L 168.078792 189.534601 
L 168.385289 189.534601 
L 168.385289 188.879455 
L 169.011918 188.879455 
L 169.041203 184.948579 
L 169.244833 184.948579 
L 169.302579 183.638286 
L 169.417501 183.638286 
L 169.417501 182.327994 
L 169.701534 182.327994 
L 169.701534 181.017702 
L 170.256089 181.017702 
L 170.364915 179.70741 
L 170.419074 179.70741 
L 170.473066 177.741972 
L 170.553741 177.741972 
L 170.553741 177.086825 
L 170.819995 177.086825 
L 170.819995 176.431679 
L 171.519214 176.431679 
L 171.569909 175.121387 
L 171.721118 175.121387 
L 171.8212 173.811095 
L 172.044307 173.811095 
L 172.093501 172.500803 
L 172.385786 172.500803 
L 172.385786 171.845657 
L 172.530112 171.845657 
L 172.530112 171.190511 
L 172.83878 171.190511 
L 172.885786 169.880218 
L 173.072554 169.880218 
L 173.072554 168.569926 
L 173.394661 168.569926 
L 173.440194 164.63905 
L 173.710926 164.63905 
L 173.710926 163.983903 
L 173.844732 163.983903 
L 173.933369 162.673611 
L 174.087407 162.673611 
L 174.174823 158.742735 
L 174.626698 158.742735 
L 174.626698 158.087589 
L 174.753684 158.087589 
L 174.774759 156.12215 
L 174.900675 156.12215 
L 174.942445 154.156712 
L 175.08786 154.156712 
L 175.08786 153.501566 
L 175.313947 153.501566 
L 175.313947 152.84642 
L 175.496772 152.84642 
L 175.537141 151.536128 
L 175.994786 151.536128 
L 175.994786 150.880981 
L 176.131719 150.880981 
L 176.131719 149.570689 
L 176.286908 149.570689 
L 176.286908 148.915543 
L 176.459861 148.915543 
L 176.459861 147.605251 
L 176.631116 147.605251 
L 176.725536 145.639813 
L 176.744358 145.639813 
L 176.744358 144.32952 
L 176.875552 144.32952 
L 176.894213 143.019228 
L 177.372536 143.019228 
L 177.390674 140.398644 
L 178.048838 140.398644 
L 178.048838 139.743498 
L 178.479885 139.743498 
L 178.547874 138.433206 
L 178.598693 138.433206 
L 178.699888 137.122913 
L 178.966907 137.122913 
L 178.966907 136.467767 
L 179.537135 136.467767 
L 179.537135 135.812621 
L 179.807517 135.812621 
L 179.807517 134.502329 
L 180.397157 134.502329 
L 180.397157 133.847183 
L 180.579292 133.847183 
L 180.684666 132.536891 
L 180.759545 132.536891 
L 180.804318 129.916306 
L 180.967511 129.916306 
L 180.967511 129.26116 
L 181.114555 129.26116 
L 181.114555 128.606014 
L 181.733085 128.606014 
L 181.733085 127.295722 
L 181.915844 127.295722 
L 182.013465 125.330284 
L 182.151983 125.330284 
L 182.151983 124.019991 
L 182.507063 124.019991 
L 182.507063 123.364845 
L 182.65514 123.364845 
L 182.722034 121.399407 
L 182.828533 121.399407 
L 182.92119 119.433969 
L 183.338605 119.433969 
L 183.338605 118.778823 
L 183.467024 118.778823 
L 183.467024 117.46853 
L 183.834181 117.46853 
L 183.89671 116.158238 
L 184.04587 116.158238 
L 184.144607 114.847946 
L 184.218294 114.847946 
L 184.218294 114.1928 
L 184.425399 114.1928 
L 184.425399 113.537654 
L 184.594129 113.537654 
L 184.618101 111.572215 
L 184.962035 111.572215 
L 185.044047 110.261923 
L 185.079078 110.261923 
L 185.114038 108.951631 
L 185.206924 108.951631 
L 185.206924 107.641339 
L 185.505431 107.641339 
L 185.562255 105.675901 
L 185.697882 105.675901 
L 185.697882 105.020754 
L 185.91049 105.020754 
L 185.91049 103.055316 
L 186.34979 103.055316 
L 186.436338 101.089878 
L 186.543922 101.089878 
L 186.543922 100.434732 
L 186.704063 100.434732 
L 186.74652 99.12444 
L 187.381503 99.12444 
L 187.483428 97.814147 
L 187.875338 97.814147 
L 187.875338 97.159001 
L 188.131803 97.159001 
L 188.131803 96.503855 
L 188.278065 96.503855 
L 188.278065 95.848709 
L 188.490389 95.848709 
L 188.566961 94.538417 
L 189.323888 94.538417 
L 189.351301 92.572979 
L 189.523924 92.572979 
L 189.523924 91.917832 
L 189.694854 91.917832 
L 189.694854 91.262686 
L 190.005407 91.262686 
L 190.005407 90.60754 
L 190.119361 90.60754 
L 190.197818 89.297248 
L 190.293233 89.297248 
L 190.293233 88.642102 
L 190.413921 88.642102 
L 190.439674 86.676664 
L 190.695137 86.676664 
L 190.762633 85.366371 
L 190.946912 85.366371 
L 190.946912 84.711225 
L 191.186886 84.711225 
L 191.186886 82.090641 
L 191.350483 82.090641 
L 191.423604 80.780349 
L 191.585005 80.780349 
L 191.633136 78.81491 
L 191.744926 78.81491 
L 191.744926 78.159764 
L 191.871816 78.159764 
L 191.871816 75.53918 
L 192.208326 75.53918 
L 192.208326 74.884034 
L 192.44696 74.884034 
L 192.44696 74.228888 
L 193.143875 74.228888 
L 193.143875 73.573742 
L 193.614942 73.573742 
L 193.614942 72.918596 
L 193.849315 72.918596 
L 193.849315 72.263449 
L 194.198532 72.263449 
L 194.198532 71.608303 
L 194.391081 71.608303 
L 194.391081 70.953157 
L 194.94967 70.953157 
L 194.94967 70.298011 
L 195.329654 70.298011 
L 195.329654 69.642865 
L 195.516586 69.642865 
L 195.548614 68.332573 
L 195.637981 68.332573 
L 195.637981 67.677427 
L 196.158596 67.677427 
L 196.158596 67.022281 
L 196.275617 67.022281 
L 196.275617 65.056842 
L 196.434491 65.056842 
L 196.434491 64.401696 
L 196.973522 64.401696 
L 197.079358 63.091404 
L 197.242725 63.091404 
L 197.242725 62.436258 
L 197.364253 62.436258 
L 197.364253 61.781112 
L 197.633216 61.781112 
L 197.633216 61.125966 
L 197.813994 61.125966 
L 197.813994 60.47082 
L 198.192036 60.47082 
L 198.246945 59.160527 
L 198.594331 59.160527 
L 198.626547 57.850235 
L 199.055729 57.850235 
L 199.081878 56.539943 
L 199.438797 56.539943 
L 199.438797 55.229651 
L 199.657586 55.229651 
L 199.657586 53.264213 
L 199.988151 53.264213 
L 200.012941 50.643628 
L 200.472539 50.643628 
L 200.472539 49.988482 
L 200.592761 49.988482 
L 200.592761 49.333336 
L 201.004787 49.333336 
L 201.004787 48.67819 
L 201.283376 48.67819 
L 201.283376 48.023044 
L 201.525814 48.023044 
L 201.525814 47.367898 
L 201.965408 47.367898 
L 201.987542 45.402459 
L 202.480419 45.402459 
L 202.480419 43.437021 
L 202.888474 43.437021 
L 202.917857 42.126729 
L 203.147023 42.126729 
L 203.147023 41.471583 
L 203.761132 41.471583 
L 203.761132 40.816437 
L 204.980295 40.816437 
L 204.980295 40.161291 
L 205.294192 40.161291 
L 205.294192 39.506144 
L 205.559337 39.506144 
L 205.559337 38.850998 
L 206.147672 38.850998 
L 206.241516 37.540706 
L 206.444841 37.540706 
L 206.523466 36.230414 
L 207.414402 36.230414 
L 207.44031 34.920122 
L 208.000759 34.920122 
L 208.069565 30.334099 
L 338.688 30.334099 
L 338.688 30.334099 
" style="fill:none;stroke:#000080;stroke-linecap:square;stroke-width:1.5;"/>
   </g>
   <g id="line2d_31">
    <defs>
     <path d="M 0 6 
C 1.591219 6 3.117479 5.367802 4.242641 4.242641 
C 5.367802 3.117479 6 1.591219 6 0 
C 6 -1.591219 5.367802 -3.117479 4.242641 -4.242641 
C 3.117479 -5.367802 1.591219 -6 0 -6 
C -1.591219 -6 -3.117479 -5.367802 -4.242641 -4.242641 
C -5.367802 -3.117479 -6 -1.591219 -6 0 
C -6 1.591219 -5.367802 3.117479 -4.242641 4.242641 
C -3.117479 5.367802 -1.591219 6 0 6 
z
" id="mf6d18c1e36" style="stroke:#000080;stroke-width:1.5;"/>
    </defs>
    <g>
     <use style="fill-opacity:0;stroke:#000080;stroke-width:1.5;" x="173.394661" xlink:href="#mf6d18c1e36" y="168.569926"/>
     <use style="fill-opacity:0;stroke:#000080;stroke-width:1.5;" x="196.434491" xlink:href="#mf6d18c1e36" y="64.401696"/>
     <use style="fill-opacity:0;stroke:#000080;stroke-width:1.5;" x="208.069565" xlink:href="#mf6d18c1e36" y="30.334099"/>
     <use style="fill-opacity:0;stroke:#000080;stroke-width:1.5;" x="208.069565" xlink:href="#mf6d18c1e36" y="30.334099"/>
     <use style="fill-opacity:0;stroke:#000080;stroke-width:1.5;" x="338.688" xlink:href="#mf6d18c1e36" y="30.334099"/>
    </g>
   </g>
   <g id="line2d_32">
    <path style="fill:none;stroke:#000080;stroke-linecap:square;stroke-width:1.5;"/>
    <g/>
   </g>
   <g id="line2d_33">
    <defs>
     <path d="M 0 1.5 
C 0.397805 1.5 0.77937 1.341951 1.06066 1.06066 
C 1.341951 0.77937 1.5 0.397805 1.5 0 
C 1.5 -0.397805 1.341951 -0.77937 1.06066 -1.06066 
C 0.77937 -1.341951 0.397805 -1.5 0 -1.5 
C -0.397805 -1.5 -0.77937 -1.341951 -1.06066 -1.06066 
C -1.341951 -0.77937 -1.5 -0.397805 -1.5 0 
C -1.5 0.397805 -1.341951 0.77937 -1.06066 1.06066 
C -0.77937 1.341951 -0.397805 1.5 0 1.5 
z
" id="mf03da85471" style="stroke:#ff00ff;"/>
    </defs>
    <g>
     <use style="fill:#ff00ff;stroke:#ff00ff;" x="184.316062" xlink:href="#mf03da85471" y="174.466241"/>
     <use style="fill:#ff00ff;stroke:#ff00ff;" x="184.316062" xlink:href="#mf03da85471" y="174.466241"/>
    </g>
   </g>
   <g id="line2d_34">
    <path d="M 83.830028 298.944 
L 83.830028 289.116809 
L 94.921215 289.116809 
L 94.921215 285.841078 
L 111.897469 285.841078 
L 111.897469 285.185932 
L 113.022974 285.185932 
L 113.022974 283.87564 
L 114.418861 283.87564 
L 114.418861 283.220494 
L 115.397021 283.220494 
L 115.397021 282.565348 
L 115.711251 282.565348 
L 115.711251 281.910201 
L 116.621333 281.910201 
L 116.621333 281.255055 
L 117.486268 281.255055 
L 117.486268 280.599909 
L 118.039942 280.599909 
L 118.039942 279.944763 
L 118.310324 279.944763 
L 118.310324 278.634471 
L 119.351785 278.634471 
L 119.351785 277.979325 
L 121.036887 277.979325 
L 121.036887 277.324179 
L 122.148045 277.324179 
L 122.148045 276.013887 
L 122.782271 276.013887 
L 122.782271 274.703594 
L 123.593547 274.703594 
L 123.593547 274.048448 
L 123.985457 274.048448 
L 123.985457 273.393302 
L 124.368753 273.393302 
L 124.368753 272.738156 
L 124.92835 272.738156 
L 124.92835 272.08301 
L 125.291682 272.08301 
L 125.291682 271.427864 
L 126.673734 271.427864 
L 126.673734 270.772718 
L 129.147151 270.772718 
L 129.147151 270.117572 
L 129.714332 270.117572 
L 129.714332 269.462426 
L 130.127931 269.462426 
L 130.127931 268.807279 
L 130.664567 268.807279 
L 130.664567 268.152133 
L 130.796184 268.152133 
L 130.796184 267.496987 
L 132.060454 267.496987 
L 132.060454 266.841841 
L 132.181982 266.841841 
L 132.181982 266.186695 
L 132.30267 266.186695 
L 132.30267 264.876403 
L 132.541568 264.876403 
L 132.541568 264.221257 
L 133.352844 264.221257 
L 133.352844 263.566111 
L 133.46572 263.566111 
L 133.46572 262.910965 
L 133.57787 262.910965 
L 133.57787 262.255818 
L 134.55603 262.255818 
L 134.55603 261.600672 
L 134.870259 261.600672 
L 134.870259 260.945526 
L 136.738785 260.945526 
L 136.738785 260.29038 
L 138.084384 260.29038 
L 138.084384 258.980088 
L 138.256201 258.980088 
L 138.256201 258.324942 
L 138.510793 258.324942 
L 138.510793 257.669796 
L 138.84457 257.669796 
L 138.84457 256.359504 
L 139.572998 256.359504 
L 139.572998 255.704357 
L 139.887228 255.704357 
L 139.887228 255.049211 
L 140.79731 255.049211 
L 140.79731 254.394065 
L 141.378673 254.394065 
L 141.378673 253.738919 
L 142.010346 253.738919 
L 142.010346 253.083773 
L 142.351634 253.083773 
L 142.351634 252.428627 
L 143.144465 252.428627 
L 143.144465 251.773481 
L 143.273169 251.773481 
L 143.273169 251.118335 
L 143.464461 251.118335 
L 143.527762 249.808043 
L 143.840863 249.808043 
L 143.840863 249.152896 
L 144.026061 249.152896 
L 144.026061 247.842604 
L 144.148442 247.842604 
L 144.148442 247.187458 
L 144.330419 247.187458 
L 144.330419 246.532312 
L 144.45069 246.532312 
L 144.45069 245.877166 
L 144.570138 245.877166 
L 144.570138 245.22202 
L 144.688773 245.22202 
L 144.688773 244.566874 
L 145.039911 244.566874 
L 145.039911 243.911728 
L 145.553708 243.911728 
L 145.609873 242.601435 
L 145.943118 242.601435 
L 145.943118 241.946289 
L 146.161795 241.946289 
L 146.216039 240.635997 
L 146.538004 240.635997 
L 146.644018 239.325705 
L 146.906268 239.325705 
L 146.958248 238.015413 
L 147.164632 238.015413 
L 147.164632 236.705121 
L 147.368603 236.705121 
L 147.368603 236.049974 
L 147.620256 236.049974 
L 147.670154 234.739682 
L 147.86833 234.739682 
L 147.86833 234.084536 
L 148.780082 234.084536 
L 148.87334 232.119098 
L 149.377533 232.119098 
L 149.467659 230.808806 
L 150.172372 230.808806 
L 150.172372 230.15366 
L 150.429467 230.15366 
L 150.429467 229.498513 
L 151.260066 229.498513 
L 151.260066 228.843367 
L 151.501723 228.843367 
L 151.501723 228.188221 
L 151.740076 228.188221 
L 151.740076 227.533075 
L 151.897188 227.533075 
L 151.897188 226.877929 
L 152.245598 226.877929 
L 152.245598 226.222783 
L 152.662192 226.222783 
L 152.662192 225.567637 
L 152.774102 225.567637 
L 152.774102 224.257345 
L 153.032466 224.257345 
L 153.032466 223.602199 
L 153.502361 223.602199 
L 153.502361 222.947052 
L 153.715038 222.947052 
L 153.715038 222.291906 
L 153.994632 222.291906 
L 154.098334 220.981614 
L 155.61575 220.981614 
L 155.61575 220.326468 
L 155.804285 220.326468 
L 155.83551 219.016176 
L 155.959855 219.016176 
L 155.959855 218.36103 
L 156.266892 218.36103 
L 156.266892 217.705884 
L 156.478647 217.705884 
L 156.478647 217.050738 
L 156.717545 217.050738 
L 156.776762 214.430153 
L 156.923929 214.430153 
L 156.923929 213.775007 
L 157.040776 213.775007 
L 157.040776 213.119861 
L 157.358125 213.119861 
L 157.358125 212.464715 
L 157.613546 212.464715 
L 157.641697 211.154423 
L 158.385078 211.154423 
L 158.385078 210.499277 
L 159.149734 210.499277 
L 159.226956 209.188984 
L 159.380382 209.188984 
L 159.456591 207.878692 
L 159.608019 207.878692 
L 159.608019 207.223546 
L 160.442124 207.223546 
L 160.466062 205.913254 
L 160.680044 205.913254 
L 160.680044 205.258108 
L 161.054091 205.258108 
L 161.054091 204.602962 
L 161.238149 204.602962 
L 161.238149 203.947816 
L 161.64531 203.947816 
L 161.64531 203.292669 
L 161.801118 203.292669 
L 161.84538 201.982377 
L 161.933569 201.982377 
L 161.933569 201.327231 
L 162.367945 201.327231 
L 162.367945 200.672085 
L 162.644595 200.672085 
L 162.644595 200.016939 
L 162.833584 200.016939 
L 162.875305 198.706647 
L 162.958448 198.706647 
L 162.958448 198.051501 
L 163.408783 198.051501 
L 163.408783 197.396355 
L 164.218222 197.396355 
L 164.237502 196.086062 
L 164.371873 196.086062 
L 164.371873 195.430916 
L 164.880672 195.430916 
L 164.973287 194.120624 
L 165.010195 194.120624 
L 165.047026 192.810332 
L 166.323641 192.810332 
L 166.323641 192.155186 
L 166.476842 192.155186 
L 166.476842 191.50004 
L 168.109685 191.50004 
L 168.109685 190.844894 
L 168.263336 190.844894 
L 168.263336 190.189747 
L 168.46108 190.189747 
L 168.566635 188.879455 
L 168.701418 188.879455 
L 168.701418 188.224309 
L 169.316986 188.224309 
L 169.316986 187.569163 
L 169.75779 187.569163 
L 169.75779 186.914017 
L 170.713981 186.914017 
L 170.740545 185.603725 
L 171.030109 185.603725 
L 171.030109 184.948579 
L 171.982619 184.948579 
L 171.982619 184.293433 
L 172.708856 184.293433 
L 172.708856 183.638286 
L 172.944366 183.638286 
L 172.97942 182.327994 
L 173.118935 182.327994 
L 173.14208 181.017702 
L 173.911252 181.017702 
L 173.911252 180.362556 
L 174.03255 180.362556 
L 174.03255 179.70741 
L 174.434469 179.70741 
L 174.434469 179.052264 
L 174.952873 179.052264 
L 174.952873 178.397118 
L 175.221811 178.397118 
L 175.221811 177.741972 
L 176.004603 177.741972 
L 176.004603 177.086825 
L 179.440696 177.086825 
L 179.440696 176.431679 
L 179.70463 176.431679 
L 179.70463 175.776533 
L 181.90885 175.776533 
L 181.90885 175.121387 
L 184.316062 175.121387 
L 184.316062 174.466241 
L 338.688 174.466241 
L 338.688 174.466241 
" style="fill:none;stroke:#ff00ff;stroke-linecap:square;stroke-width:1.5;"/>
   </g>
   <g id="line2d_35">
    <defs>
     <path d="M -0 8.485281 
L 5.091169 0 
L 0 -8.485281 
L -5.091169 -0 
z
" id="me2933d0d47" style="stroke:#ff00ff;stroke-linejoin:miter;stroke-width:1.5;"/>
    </defs>
    <g>
     <use style="fill-opacity:0;stroke:#ff00ff;stroke-linejoin:miter;stroke-width:1.5;" x="147.164632" xlink:href="#me2933d0d47" y="236.705121"/>
     <use style="fill-opacity:0;stroke:#ff00ff;stroke-linejoin:miter;stroke-width:1.5;" x="184.316062" xlink:href="#me2933d0d47" y="175.121387"/>
     <use style="fill-opacity:0;stroke:#ff00ff;stroke-linejoin:miter;stroke-width:1.5;" x="184.316062" xlink:href="#me2933d0d47" y="174.466241"/>
     <use style="fill-opacity:0;stroke:#ff00ff;stroke-linejoin:miter;stroke-width:1.5;" x="184.316062" xlink:href="#me2933d0d47" y="174.466241"/>
     <use style="fill-opacity:0;stroke:#ff00ff;stroke-linejoin:miter;stroke-width:1.5;" x="338.688" xlink:href="#me2933d0d47" y="174.466241"/>
    </g>
   </g>
   <g id="line2d_36">
    <path style="fill:none;stroke:#ff00ff;stroke-linecap:square;stroke-width:1.5;"/>
    <g/>
   </g>
   <g id="line2d_37">
    <path clip-path="url(#pfce809d18b)" d="M 109.401893 285.841078 
" style="fill:none;stroke:#ff00ff;stroke-linecap:square;stroke-width:1.5;"/>
    <defs>
     <path d="M -12 12 
L 12 -12 
M -12 -12 
L 12 12 
" id="mbfb35ccb3e" style="stroke:#ff00ff;"/>
    </defs>
    <g clip-path="url(#pfce809d18b)">
     <use style="fill:#ff00ff;stroke:#ff00ff;" x="109.401893" xlink:href="#mbfb35ccb3e" y="285.841078"/>
    </g>
   </g>
   <g id="line2d_38">
    <defs>
     <path d="M 0 1.5 
C 0.397805 1.5 0.77937 1.341951 1.06066 1.06066 
C 1.341951 0.77937 1.5 0.397805 1.5 0 
C 1.5 -0.397805 1.341951 -0.77937 1.06066 -1.06066 
C 0.77937 -1.341951 0.397805 -1.5 0 -1.5 
C -0.397805 -1.5 -0.77937 -1.341951 -1.06066 -1.06066 
C -1.341951 -0.77937 -1.5 -0.397805 -1.5 0 
C -1.5 0.397805 -1.341951 0.77937 -1.06066 1.06066 
C -0.77937 1.341951 -0.397805 1.5 0 1.5 
z
" id="m21177ab6de" style="stroke:#ff7500;"/>
    </defs>
    <g>
     <use style="fill:#ff7500;stroke:#ff7500;" x="181.483999" xlink:href="#m21177ab6de" y="30.334099"/>
     <use style="fill:#ff7500;stroke:#ff7500;" x="181.483999" xlink:href="#m21177ab6de" y="30.334099"/>
    </g>
   </g>
   <g id="line2d_39">
    <path d="M 127.165014 298.944 
L 127.165014 298.288854 
L 128.411207 298.288854 
L 128.411207 296.978562 
L 128.856489 296.978562 
L 128.856489 293.047685 
L 129.147151 293.047685 
L 129.147151 292.392539 
L 129.433047 292.392539 
L 129.433047 287.806516 
L 131.185181 287.806516 
L 131.185181 287.15137 
L 132.30267 287.15137 
L 132.30267 285.185932 
L 133.009765 285.185932 
L 133.009765 283.220494 
L 133.800029 283.220494 
L 133.800029 282.565348 
L 134.019394 282.565348 
L 134.019394 281.910201 
L 134.236034 281.910201 
L 134.236034 281.255055 
L 134.450015 281.255055 
L 134.450015 279.289617 
L 134.870259 279.289617 
L 134.870259 276.669033 
L 135.178927 276.669033 
L 135.178927 276.013887 
L 135.381712 276.013887 
L 135.381712 274.703594 
L 135.780341 274.703594 
L 135.780341 270.117572 
L 136.170062 270.117572 
L 136.170062 269.462426 
L 137.647286 269.462426 
L 137.647286 268.807279 
L 137.997836 268.807279 
L 137.997836 265.531549 
L 139.090775 265.531549 
L 139.090775 264.876403 
L 139.572998 264.876403 
L 139.572998 264.221257 
L 139.8092 264.221257 
L 139.8092 263.566111 
L 141.090414 263.566111 
L 141.090414 262.910965 
L 141.521035 262.910965 
L 141.521035 262.255818 
L 142.283909 262.255818 
L 142.283909 260.945526 
L 142.752555 260.945526 
L 142.752555 259.635234 
L 142.884173 259.635234 
L 142.884173 258.980088 
L 143.014805 258.980088 
L 143.014805 257.669796 
L 143.464461 257.669796 
L 143.464461 257.01465 
L 144.087359 257.01465 
L 144.087359 256.359504 
L 144.269971 256.359504 
L 144.269971 252.428627 
L 144.390658 252.428627 
L 144.390658 251.773481 
L 144.865226 251.773481 
L 144.865226 251.118335 
L 145.155404 251.118335 
L 145.155404 250.463189 
L 145.384119 250.463189 
L 145.384119 249.808043 
L 145.609873 249.808043 
L 145.609873 249.152896 
L 146.107383 249.152896 
L 146.107383 248.49775 
L 146.591092 248.49775 
L 146.591092 247.842604 
L 147.368603 247.842604 
L 147.4697 246.532312 
L 147.818997 246.532312 
L 147.917524 243.911728 
L 148.306159 243.911728 
L 148.306159 242.601435 
L 148.449693 242.601435 
L 148.449693 241.946289 
L 149.15016 241.946289 
L 149.15016 241.291143 
L 149.332295 241.291143 
L 149.422654 238.670559 
L 149.512548 238.670559 
L 149.512548 237.360267 
L 149.646525 237.360267 
L 149.646525 236.705121 
L 150.085825 236.705121 
L 150.085825 236.049974 
L 150.38688 236.049974 
L 150.38688 235.394828 
L 150.556607 235.394828 
L 150.556607 234.739682 
L 150.766468 234.739682 
L 150.766468 233.42939 
L 151.178764 233.42939 
L 151.178764 230.15366 
L 151.381313 230.15366 
L 151.381313 229.498513 
L 151.975216 229.498513 
L 151.975216 228.843367 
L 152.130233 228.843367 
L 152.130233 228.188221 
L 152.699575 228.188221 
L 152.699575 226.877929 
L 152.811246 226.877929 
L 152.885298 224.257345 
L 153.359122 224.257345 
L 153.359122 223.602199 
L 153.890309 223.602199 
L 153.890309 222.947052 
L 154.201424 222.947052 
L 154.269814 220.326468 
L 154.54072 220.326468 
L 154.641235 219.016176 
L 155.741666 219.016176 
L 155.741666 218.36103 
L 155.897793 218.36103 
L 155.959855 216.395591 
L 156.418408 216.395591 
L 156.418408 215.085299 
L 157.1279 215.085299 
L 157.185742 213.775007 
L 157.243392 213.775007 
L 157.300853 212.464715 
L 157.358125 212.464715 
L 157.358125 211.809569 
L 157.500487 211.809569 
L 157.557108 209.188984 
L 157.613546 209.188984 
L 157.613546 208.533838 
L 158.625992 208.533838 
L 158.625992 207.878692 
L 158.784773 207.878692 
L 158.784773 205.913254 
L 158.968208 205.913254 
L 158.968208 204.602962 
L 159.201253 204.602962 
L 159.201253 203.947816 
L 159.354904 203.947816 
L 159.354904 203.292669 
L 159.683242 203.292669 
L 159.683242 202.637523 
L 159.956318 202.637523 
L 160.054568 200.672085 
L 160.225184 200.672085 
L 160.321935 198.706647 
L 160.585265 198.706647 
L 160.680044 197.396355 
L 160.727241 197.396355 
L 160.727241 196.086062 
L 160.844678 196.086062 
L 160.891432 194.120624 
L 161.100288 194.120624 
L 161.100288 193.465478 
L 161.283861 193.465478 
L 161.329454 192.155186 
L 161.578106 192.155186 
L 161.578106 191.50004 
L 161.823263 191.50004 
L 161.823263 190.844894 
L 161.977497 190.844894 
L 161.977497 189.534601 
L 162.19549 189.534601 
L 162.303474 187.569163 
L 162.432178 187.569163 
L 162.474869 186.258871 
L 162.854457 186.258871 
L 162.9377 183.638286 
L 163.020547 183.638286 
L 163.082425 181.672848 
L 163.205526 181.672848 
L 163.205526 180.362556 
L 163.469301 180.362556 
L 163.469301 179.052264 
L 163.689421 179.052264 
L 163.729146 177.741972 
L 163.946031 177.741972 
L 163.946031 177.086825 
L 164.063205 177.086825 
L 164.160252 175.776533 
L 164.237502 175.776533 
L 164.276 172.500803 
L 164.371873 172.500803 
L 164.371873 171.845657 
L 164.693955 171.845657 
L 164.768882 169.880218 
L 164.973287 169.880218 
L 164.973287 168.569926 
L 165.102127 168.569926 
L 165.175324 167.259634 
L 165.248216 167.259634 
L 165.338904 163.983903 
L 165.375047 163.983903 
L 165.375047 162.673611 
L 165.518877 162.673611 
L 165.608172 161.363319 
L 165.643763 161.363319 
L 165.643763 160.708173 
L 165.943384 160.708173 
L 166.030537 158.742735 
L 166.099947 158.742735 
L 166.134549 157.432442 
L 166.323641 157.432442 
L 166.357802 156.12215 
L 166.476842 156.12215 
L 166.476842 155.467004 
L 166.645502 155.467004 
L 166.645502 154.156712 
L 166.978005 154.156712 
L 167.043752 150.225835 
L 167.255733 150.225835 
L 167.336582 147.605251 
L 167.43311 147.605251 
L 167.497166 146.294959 
L 167.640438 146.294959 
L 167.672117 143.674374 
L 167.813965 143.674374 
L 167.813965 143.019228 
L 168.248032 143.019228 
L 168.309168 141.05379 
L 168.506396 141.05379 
L 168.506396 139.743498 
L 168.746115 139.743498 
L 168.746115 139.088352 
L 168.894283 139.088352 
L 168.967898 135.812621 
L 169.085039 135.812621 
L 169.085039 135.157475 
L 169.244833 135.157475 
L 169.316986 133.192037 
L 169.403177 133.192037 
L 169.503198 131.226598 
L 169.560096 131.226598 
L 169.645097 129.26116 
L 169.687442 129.26116 
L 169.715615 127.950868 
L 169.799863 127.950868 
L 169.799863 127.295722 
L 169.953269 127.295722 
L 170.050192 125.330284 
L 170.077786 125.330284 
L 170.132843 124.019991 
L 170.228776 124.019991 
L 170.228776 123.364845 
L 170.432588 123.364845 
L 170.51345 121.399407 
L 170.660731 121.399407 
L 170.660731 120.089115 
L 170.780315 120.089115 
L 170.885928 116.158238 
L 170.951613 116.158238 
L 170.951613 115.503092 
L 171.095254 115.503092 
L 171.198983 113.537654 
L 171.263501 113.537654 
L 171.314944 112.227362 
L 171.531901 112.227362 
L 171.531901 111.572215 
L 171.883461 111.572215 
L 171.970255 108.951631 
L 171.994974 108.951631 
L 172.105778 106.331047 
L 172.203683 106.331047 
L 172.313173 101.745024 
L 172.337411 101.745024 
L 172.446067 98.469293 
L 172.470121 98.469293 
L 172.494143 97.159001 
L 172.708856 97.159001 
L 172.803442 94.538417 
L 172.862299 94.538417 
L 172.885786 93.228125 
L 173.014404 93.228125 
L 173.014404 91.262686 
L 173.165193 91.262686 
L 173.257343 88.642102 
L 173.31469 88.642102 
L 173.406055 84.056079 
L 173.654869 84.056079 
L 173.722116 81.435495 
L 173.866933 81.435495 
L 173.944417 80.125203 
L 174.087407 80.125203 
L 174.15301 78.159764 
L 174.229235 78.159764 
L 174.229235 77.504618 
L 174.391462 77.504618 
L 174.466655 76.194326 
L 174.827334 76.194326 
L 174.827334 75.53918 
L 174.984116 75.53918 
L 174.984116 73.573742 
L 175.118863 73.573742 
L 175.211544 72.263449 
L 175.252577 72.263449 
L 175.252577 71.608303 
L 175.456309 71.608303 
L 175.567356 67.677427 
L 175.62763 67.677427 
L 175.647675 65.056842 
L 175.757513 65.056842 
L 175.866664 61.781112 
L 175.955464 61.781112 
L 175.955464 61.125966 
L 176.286908 61.125966 
L 176.392805 59.815674 
L 176.459861 59.815674 
L 176.564717 56.539943 
L 176.659495 56.539943 
L 176.659495 55.884797 
L 176.781943 55.884797 
L 176.847522 53.919359 
L 176.931477 53.919359 
L 177.005766 51.95392 
L 177.088964 51.95392 
L 177.171768 50.643628 
L 177.308905 50.643628 
L 177.381607 46.712752 
L 177.642639 46.712752 
L 177.731751 44.092167 
L 177.829252 44.092167 
L 177.891015 42.126729 
L 178.005141 42.126729 
L 178.005141 41.471583 
L 178.135904 41.471583 
L 178.135904 40.816437 
L 178.505412 40.816437 
L 178.505412 40.161291 
L 178.833909 40.161291 
L 178.833909 39.506144 
L 178.958624 39.506144 
L 179.065994 37.540706 
L 179.123536 37.540706 
L 179.123536 36.88556 
L 179.529118 36.88556 
L 179.545147 34.920122 
L 179.783827 34.920122 
L 179.783827 34.264976 
L 180.089306 34.264976 
L 180.089306 32.954683 
L 180.389527 32.954683 
L 180.389527 32.299537 
L 180.960126 32.299537 
L 181.011755 30.989245 
L 181.483999 30.989245 
L 181.483999 30.334099 
L 338.688 30.334099 
L 338.688 30.334099 
" style="fill:none;stroke:#ff7500;stroke-linecap:square;stroke-width:1.5;"/>
   </g>
   <g id="line2d_40">
    <defs>
     <path d="M 0 -6 
L -1.347084 -1.854102 
L -5.706339 -1.854102 
L -2.179628 0.708204 
L -3.526712 4.854102 
L -0 2.291796 
L 3.526712 4.854102 
L 2.179628 0.708204 
L 5.706339 -1.854102 
L 1.347084 -1.854102 
z
" id="m693d0c80fb" style="stroke:#ff7500;stroke-linejoin:bevel;stroke-width:1.5;"/>
    </defs>
    <g>
     <use style="fill-opacity:0;stroke:#ff7500;stroke-linejoin:bevel;stroke-width:1.5;" x="172.446067" xlink:href="#m693d0c80fb" y="99.12444"/>
     <use style="fill-opacity:0;stroke:#ff7500;stroke-linejoin:bevel;stroke-width:1.5;" x="181.483999" xlink:href="#m693d0c80fb" y="30.989245"/>
     <use style="fill-opacity:0;stroke:#ff7500;stroke-linejoin:bevel;stroke-width:1.5;" x="181.483999" xlink:href="#m693d0c80fb" y="30.334099"/>
     <use style="fill-opacity:0;stroke:#ff7500;stroke-linejoin:bevel;stroke-width:1.5;" x="181.483999" xlink:href="#m693d0c80fb" y="30.334099"/>
     <use style="fill-opacity:0;stroke:#ff7500;stroke-linejoin:bevel;stroke-width:1.5;" x="338.688" xlink:href="#m693d0c80fb" y="30.334099"/>
    </g>
   </g>
   <g id="line2d_41">
    <path style="fill:none;stroke:#ff7500;stroke-linecap:square;stroke-width:1.5;"/>
    <g/>
   </g>
   <g id="line2d_42">
    <path clip-path="url(#pfce809d18b)" d="M 57.6 298.944 
L 57.6 298.944 
L 57.6 298.944 
L 57.6 298.944 
L 338.688 298.944 
" style="fill:none;stroke:#6495ed;stroke-linecap:square;stroke-width:1.5;"/>
   </g>
   <g id="line2d_43">
    <defs>
     <path d="M -0 6 
L 6 -6 
L -6 -6 
z
" id="m58fc442e42" style="stroke:#6495ed;stroke-linejoin:miter;stroke-width:1.5;"/>
    </defs>
    <g clip-path="url(#pfce809d18b)">
     <use style="fill-opacity:0;stroke:#6495ed;stroke-linejoin:miter;stroke-width:1.5;" x="57.6" xlink:href="#m58fc442e42" y="298.944"/>
    </g>
   </g>
   <g id="line2d_44">
    <path clip-path="url(#pfce809d18b)" style="fill:none;stroke:#6495ed;stroke-linecap:square;stroke-width:1.5;"/>
    <g clip-path="url(#pfce809d18b)">
     <use style="fill-opacity:0;stroke:#6495ed;stroke-linejoin:miter;stroke-width:1.5;" x="-1" xlink:href="#m58fc442e42" y="567.553901"/>
     <use style="fill-opacity:0;stroke:#6495ed;stroke-linejoin:miter;stroke-width:1.5;" x="338.688" xlink:href="#m58fc442e42" y="567.553901"/>
    </g>
   </g>
   <g id="line2d_45">
    <path d="M 338.688 298.944 
L 369.60768 293.571802 
" style="fill:none;stroke:#6495ed;stroke-linecap:square;stroke-width:1.5;"/>
    <g>
     <use style="fill-opacity:0;stroke:#6495ed;stroke-linejoin:miter;stroke-width:1.5;" x="338.688" xlink:href="#m58fc442e42" y="298.944"/>
     <use style="fill-opacity:0;stroke:#6495ed;stroke-linejoin:miter;stroke-width:1.5;" x="369.60768" xlink:href="#m58fc442e42" y="293.571802"/>
    </g>
   </g>
   <g id="line2d_46">
    <path d="M 338.688 174.466241 
L 369.60768 207.616634 
" style="fill:none;stroke:#ff00ff;stroke-linecap:square;stroke-width:1.5;"/>
    <g>
     <use style="fill-opacity:0;stroke:#ff00ff;stroke-linejoin:miter;stroke-width:1.5;" x="338.688" xlink:href="#me2933d0d47" y="174.466241"/>
     <use style="fill-opacity:0;stroke:#ff00ff;stroke-linejoin:miter;stroke-width:1.5;" x="369.60768" xlink:href="#me2933d0d47" y="207.616634"/>
    </g>
   </g>
   <g id="line2d_47">
    <path d="M 338.688 30.334099 
L 369.60768 121.661465 
" style="fill:none;stroke:#000080;stroke-linecap:square;stroke-width:1.5;"/>
    <g>
     <use style="fill-opacity:0;stroke:#000080;stroke-width:1.5;" x="338.688" xlink:href="#mf6d18c1e36" y="30.334099"/>
     <use style="fill-opacity:0;stroke:#000080;stroke-width:1.5;" x="369.60768" xlink:href="#mf6d18c1e36" y="121.661465"/>
    </g>
   </g>
   <g id="line2d_48">
    <path d="M 338.688 30.334099 
L 369.60768 35.706297 
" style="fill:none;stroke:#ff7500;stroke-linecap:square;stroke-width:1.5;"/>
    <g>
     <use style="fill-opacity:0;stroke:#ff7500;stroke-linejoin:bevel;stroke-width:1.5;" x="338.688" xlink:href="#m693d0c80fb" y="30.334099"/>
     <use style="fill-opacity:0;stroke:#ff7500;stroke-linejoin:bevel;stroke-width:1.5;" x="369.60768" xlink:href="#m693d0c80fb" y="35.706297"/>
    </g>
   </g>
   <g id="line2d_49">
    <path d="M 338.688 298.944 
L 338.688 30.334099 
" style="fill:none;stroke:#000000;stroke-linecap:square;stroke-width:1.5;"/>
   </g>
   <g id="patch_3">
    <path d="M 57.6 298.944 
L 57.6 27.648 
" style="fill:none;stroke:#000000;stroke-linecap:square;stroke-linejoin:miter;stroke-width:0.8;"/>
   </g>
   <g id="patch_4">
    <path d="M 338.688 298.944 
L 338.688 27.648 
" style="fill:none;stroke:#000000;stroke-linecap:square;stroke-linejoin:miter;stroke-width:0.8;"/>
   </g>
   <g id="patch_5">
    <path d="M 57.6 298.944 
L 338.688 298.944 
" style="fill:none;stroke:#000000;stroke-linecap:square;stroke-linejoin:miter;stroke-width:0.8;"/>
   </g>
   <g id="patch_6">
    <path d="M 57.6 27.648 
L 338.688 27.648 
" style="fill:none;stroke:#000000;stroke-linecap:square;stroke-linejoin:miter;stroke-width:0.8;"/>
   </g>
   <g id="text_13">
    <!-- slsqp -->
    <g transform="translate(375.22944 298.262739)scale(0.17 -0.17)">
     <defs>
      <path d="M 14.796875 27.296875 
Q 14.796875 17.390625 18.875 11.75 
Q 22.953125 6.109375 30.078125 6.109375 
Q 37.203125 6.109375 41.296875 11.75 
Q 45.40625 17.390625 45.40625 27.296875 
Q 45.40625 37.203125 41.296875 42.84375 
Q 37.203125 48.484375 30.078125 48.484375 
Q 22.953125 48.484375 18.875 42.84375 
Q 14.796875 37.203125 14.796875 27.296875 
z
M 45.40625 8.203125 
Q 42.578125 3.328125 38.25 0.953125 
Q 33.9375 -1.421875 27.875 -1.421875 
Q 17.96875 -1.421875 11.734375 6.484375 
Q 5.515625 14.40625 5.515625 27.296875 
Q 5.515625 40.1875 11.734375 48.09375 
Q 17.96875 56 27.875 56 
Q 33.9375 56 38.25 53.625 
Q 42.578125 51.265625 45.40625 46.390625 
L 45.40625 54.6875 
L 54.390625 54.6875 
L 54.390625 -20.796875 
L 45.40625 -20.796875 
z
" id="DejaVuSans-113"/>
     </defs>
     <use xlink:href="#DejaVuSans-115"/>
     <use x="52.099609" xlink:href="#DejaVuSans-108"/>
     <use x="79.882812" xlink:href="#DejaVuSans-115"/>
     <use x="131.982422" xlink:href="#DejaVuSans-113"/>
     <use x="195.458984" xlink:href="#DejaVuSans-112"/>
    </g>
   </g>
   <g id="text_14">
    <!-- cobyla -->
    <g transform="translate(375.22944 212.307571)scale(0.17 -0.17)">
     <defs>
      <path d="M 48.6875 27.296875 
Q 48.6875 37.203125 44.609375 42.84375 
Q 40.53125 48.484375 33.40625 48.484375 
Q 26.265625 48.484375 22.1875 42.84375 
Q 18.109375 37.203125 18.109375 27.296875 
Q 18.109375 17.390625 22.1875 11.75 
Q 26.265625 6.109375 33.40625 6.109375 
Q 40.53125 6.109375 44.609375 11.75 
Q 48.6875 17.390625 48.6875 27.296875 
z
M 18.109375 46.390625 
Q 20.953125 51.265625 25.265625 53.625 
Q 29.59375 56 35.59375 56 
Q 45.5625 56 51.78125 48.09375 
Q 58.015625 40.1875 58.015625 27.296875 
Q 58.015625 14.40625 51.78125 6.484375 
Q 45.5625 -1.421875 35.59375 -1.421875 
Q 29.59375 -1.421875 25.265625 0.953125 
Q 20.953125 3.328125 18.109375 8.203125 
L 18.109375 0 
L 9.078125 0 
L 9.078125 75.984375 
L 18.109375 75.984375 
z
" id="DejaVuSans-98"/>
      <path d="M 32.171875 -5.078125 
Q 28.375 -14.84375 24.75 -17.8125 
Q 21.140625 -20.796875 15.09375 -20.796875 
L 7.90625 -20.796875 
L 7.90625 -13.28125 
L 13.1875 -13.28125 
Q 16.890625 -13.28125 18.9375 -11.515625 
Q 21 -9.765625 23.484375 -3.21875 
L 25.09375 0.875 
L 2.984375 54.6875 
L 12.5 54.6875 
L 29.59375 11.921875 
L 46.6875 54.6875 
L 56.203125 54.6875 
z
" id="DejaVuSans-121"/>
     </defs>
     <use xlink:href="#DejaVuSans-99"/>
     <use x="54.980469" xlink:href="#DejaVuSans-111"/>
     <use x="116.162109" xlink:href="#DejaVuSans-98"/>
     <use x="179.638672" xlink:href="#DejaVuSans-121"/>
     <use x="238.818359" xlink:href="#DejaVuSans-108"/>
     <use x="266.601562" xlink:href="#DejaVuSans-97"/>
    </g>
   </g>
   <g id="text_15">
    <!-- alN5 -->
    <g transform="translate(375.22944 126.352403)scale(0.17 -0.17)">
     <defs>
      <path d="M 9.8125 72.90625 
L 23.09375 72.90625 
L 55.421875 11.921875 
L 55.421875 72.90625 
L 64.984375 72.90625 
L 64.984375 0 
L 51.703125 0 
L 19.390625 60.984375 
L 19.390625 0 
L 9.8125 0 
z
" id="DejaVuSans-78"/>
      <path d="M 10.796875 72.90625 
L 49.515625 72.90625 
L 49.515625 64.59375 
L 19.828125 64.59375 
L 19.828125 46.734375 
Q 21.96875 47.46875 24.109375 47.828125 
Q 26.265625 48.1875 28.421875 48.1875 
Q 40.625 48.1875 47.75 41.5 
Q 54.890625 34.8125 54.890625 23.390625 
Q 54.890625 11.625 47.5625 5.09375 
Q 40.234375 -1.421875 26.90625 -1.421875 
Q 22.3125 -1.421875 17.546875 -0.640625 
Q 12.796875 0.140625 7.71875 1.703125 
L 7.71875 11.625 
Q 12.109375 9.234375 16.796875 8.0625 
Q 21.484375 6.890625 26.703125 6.890625 
Q 35.15625 6.890625 40.078125 11.328125 
Q 45.015625 15.765625 45.015625 23.390625 
Q 45.015625 31 40.078125 35.4375 
Q 35.15625 39.890625 26.703125 39.890625 
Q 22.75 39.890625 18.8125 39.015625 
Q 14.890625 38.140625 10.796875 36.28125 
z
" id="DejaVuSans-53"/>
     </defs>
     <use xlink:href="#DejaVuSans-97"/>
     <use x="61.279297" xlink:href="#DejaVuSans-108"/>
     <use x="89.0625" xlink:href="#DejaVuSans-78"/>
     <use x="163.867188" xlink:href="#DejaVuSans-53"/>
    </g>
   </g>
   <g id="text_16">
    <!-- l1p-cmaes -->
    <g transform="translate(375.22944 40.397235)scale(0.17 -0.17)">
     <use xlink:href="#DejaVuSans-108"/>
     <use x="27.783203" xlink:href="#DejaVuSans-49"/>
     <use x="91.40625" xlink:href="#DejaVuSans-112"/>
     <use x="154.882812" xlink:href="#DejaVuSans-45"/>
     <use x="190.966797" xlink:href="#DejaVuSans-99"/>
     <use x="245.947266" xlink:href="#DejaVuSans-109"/>
     <use x="343.359375" xlink:href="#DejaVuSans-97"/>
     <use x="404.638672" xlink:href="#DejaVuSans-101"/>
     <use x="466.162109" xlink:href="#DejaVuSans-115"/>
    </g>
   </g>
   <g id="text_17">
    <!-- bbob-constrained f4, 2-D -->
    <g transform="translate(60.41088 38.111366)scale(0.102 -0.102)">
     <defs>
      <path d="M 19.671875 64.796875 
L 19.671875 8.109375 
L 31.59375 8.109375 
Q 46.6875 8.109375 53.6875 14.9375 
Q 60.6875 21.78125 60.6875 36.53125 
Q 60.6875 51.171875 53.6875 57.984375 
Q 46.6875 64.796875 31.59375 64.796875 
z
M 9.8125 72.90625 
L 30.078125 72.90625 
Q 51.265625 72.90625 61.171875 64.09375 
Q 71.09375 55.28125 71.09375 36.53125 
Q 71.09375 17.671875 61.125 8.828125 
Q 51.171875 0 30.078125 0 
L 9.8125 0 
z
" id="DejaVuSans-68"/>
     </defs>
     <use xlink:href="#DejaVuSans-98"/>
     <use x="63.476562" xlink:href="#DejaVuSans-98"/>
     <use x="126.953125" xlink:href="#DejaVuSans-111"/>
     <use x="188.134766" xlink:href="#DejaVuSans-98"/>
     <use x="251.611328" xlink:href="#DejaVuSans-45"/>
     <use x="287.695312" xlink:href="#DejaVuSans-99"/>
     <use x="342.675781" xlink:href="#DejaVuSans-111"/>
     <use x="403.857422" xlink:href="#DejaVuSans-110"/>
     <use x="467.236328" xlink:href="#DejaVuSans-115"/>
     <use x="519.335938" xlink:href="#DejaVuSans-116"/>
     <use x="558.544922" xlink:href="#DejaVuSans-114"/>
     <use x="599.658203" xlink:href="#DejaVuSans-97"/>
     <use x="660.9375" xlink:href="#DejaVuSans-105"/>
     <use x="688.720703" xlink:href="#DejaVuSans-110"/>
     <use x="752.099609" xlink:href="#DejaVuSans-101"/>
     <use x="813.623047" xlink:href="#DejaVuSans-100"/>
     <use x="877.099609" xlink:href="#DejaVuSans-32"/>
     <use x="908.886719" xlink:href="#DejaVuSans-102"/>
     <use x="944.091797" xlink:href="#DejaVuSans-52"/>
     <use x="1007.714844" xlink:href="#DejaVuSans-44"/>
     <use x="1039.501953" xlink:href="#DejaVuSans-32"/>
     <use x="1071.289062" xlink:href="#DejaVuSans-50"/>
     <use x="1134.912109" xlink:href="#DejaVuSans-45"/>
     <use x="1170.996094" xlink:href="#DejaVuSans-68"/>
    </g>
    <!-- 41 targets: 100..1e-06 -->
    <g transform="translate(60.41088 49.533135)scale(0.102 -0.102)">
     <defs>
      <path d="M 11.71875 12.40625 
L 22.015625 12.40625 
L 22.015625 0 
L 11.71875 0 
z
M 11.71875 51.703125 
L 22.015625 51.703125 
L 22.015625 39.3125 
L 11.71875 39.3125 
z
" id="DejaVuSans-58"/>
     </defs>
     <use xlink:href="#DejaVuSans-52"/>
     <use x="63.623047" xlink:href="#DejaVuSans-49"/>
     <use x="127.246094" xlink:href="#DejaVuSans-32"/>
     <use x="159.033203" xlink:href="#DejaVuSans-116"/>
     <use x="198.242188" xlink:href="#DejaVuSans-97"/>
     <use x="259.521484" xlink:href="#DejaVuSans-114"/>
     <use x="298.884766" xlink:href="#DejaVuSans-103"/>
     <use x="362.361328" xlink:href="#DejaVuSans-101"/>
     <use x="423.884766" xlink:href="#DejaVuSans-116"/>
     <use x="463.09375" xlink:href="#DejaVuSans-115"/>
     <use x="515.193359" xlink:href="#DejaVuSans-58"/>
     <use x="548.884766" xlink:href="#DejaVuSans-32"/>
     <use x="580.671875" xlink:href="#DejaVuSans-49"/>
     <use x="644.294922" xlink:href="#DejaVuSans-48"/>
     <use x="707.917969" xlink:href="#DejaVuSans-48"/>
     <use x="771.541016" xlink:href="#DejaVuSans-46"/>
     <use x="803.328125" xlink:href="#DejaVuSans-46"/>
     <use x="835.115234" xlink:href="#DejaVuSans-49"/>
     <use x="898.738281" xlink:href="#DejaVuSans-101"/>
     <use x="960.261719" xlink:href="#DejaVuSans-45"/>
     <use x="996.345703" xlink:href="#DejaVuSans-48"/>
     <use x="1059.96875" xlink:href="#DejaVuSans-54"/>
    </g>
    <!-- 30, 15 instances -->
    <g transform="translate(60.41088 60.954904)scale(0.102 -0.102)">
     <defs>
      <path d="M 40.578125 39.3125 
Q 47.65625 37.796875 51.625 33 
Q 55.609375 28.21875 55.609375 21.1875 
Q 55.609375 10.40625 48.1875 4.484375 
Q 40.765625 -1.421875 27.09375 -1.421875 
Q 22.515625 -1.421875 17.65625 -0.515625 
Q 12.796875 0.390625 7.625 2.203125 
L 7.625 11.71875 
Q 11.71875 9.328125 16.59375 8.109375 
Q 21.484375 6.890625 26.8125 6.890625 
Q 36.078125 6.890625 40.9375 10.546875 
Q 45.796875 14.203125 45.796875 21.1875 
Q 45.796875 27.640625 41.28125 31.265625 
Q 36.765625 34.90625 28.71875 34.90625 
L 20.21875 34.90625 
L 20.21875 43.015625 
L 29.109375 43.015625 
Q 36.375 43.015625 40.234375 45.921875 
Q 44.09375 48.828125 44.09375 54.296875 
Q 44.09375 59.90625 40.109375 62.90625 
Q 36.140625 65.921875 28.71875 65.921875 
Q 24.65625 65.921875 20.015625 65.03125 
Q 15.375 64.15625 9.8125 62.3125 
L 9.8125 71.09375 
Q 15.4375 72.65625 20.34375 73.4375 
Q 25.25 74.21875 29.59375 74.21875 
Q 40.828125 74.21875 47.359375 69.109375 
Q 53.90625 64.015625 53.90625 55.328125 
Q 53.90625 49.265625 50.4375 45.09375 
Q 46.96875 40.921875 40.578125 39.3125 
z
" id="DejaVuSans-51"/>
     </defs>
     <use xlink:href="#DejaVuSans-51"/>
     <use x="63.623047" xlink:href="#DejaVuSans-48"/>
     <use x="127.246094" xlink:href="#DejaVuSans-44"/>
     <use x="159.033203" xlink:href="#DejaVuSans-32"/>
     <use x="190.820312" xlink:href="#DejaVuSans-49"/>
     <use x="254.443359" xlink:href="#DejaVuSans-53"/>
     <use x="318.066406" xlink:href="#DejaVuSans-32"/>
     <use x="349.853516" xlink:href="#DejaVuSans-105"/>
     <use x="377.636719" xlink:href="#DejaVuSans-110"/>
     <use x="441.015625" xlink:href="#DejaVuSans-115"/>
     <use x="493.115234" xlink:href="#DejaVuSans-116"/>
     <use x="532.324219" xlink:href="#DejaVuSans-97"/>
     <use x="593.603516" xlink:href="#DejaVuSans-110"/>
     <use x="656.982422" xlink:href="#DejaVuSans-99"/>
     <use x="711.962891" xlink:href="#DejaVuSans-101"/>
     <use x="773.486328" xlink:href="#DejaVuSans-115"/>
    </g>
   </g>
   <g id="text_18">
    <!-- v5z33 -->
    <g style="fill:#808080;" transform="translate(183.016656 294.151352)scale(0.1 -0.1)">
     <defs>
      <path d="M 5.515625 54.6875 
L 48.1875 54.6875 
L 48.1875 46.484375 
L 14.40625 7.171875 
L 48.1875 7.171875 
L 48.1875 0 
L 4.296875 0 
L 4.296875 8.203125 
L 38.09375 47.515625 
L 5.515625 47.515625 
z
" id="DejaVuSans-122"/>
     </defs>
     <use xlink:href="#DejaVuSans-118"/>
     <use x="59.179688" xlink:href="#DejaVuSans-53"/>
     <use x="122.802734" xlink:href="#DejaVuSans-122"/>
     <use x="175.292969" xlink:href="#DejaVuSans-51"/>
     <use x="238.916016" xlink:href="#DejaVuSans-51"/>
    </g>
   </g>
   <g id="text_19">
    <!-- 4 Sphere, n/2+6 constraints -->
    <g transform="translate(57.46275 21.648)scale(0.2 -0.2)">
     <defs>
      <path d="M 53.515625 70.515625 
L 53.515625 60.890625 
Q 47.90625 63.578125 42.921875 64.890625 
Q 37.9375 66.21875 33.296875 66.21875 
Q 25.25 66.21875 20.875 63.09375 
Q 16.5 59.96875 16.5 54.203125 
Q 16.5 49.359375 19.40625 46.890625 
Q 22.3125 44.4375 30.421875 42.921875 
L 36.375 41.703125 
Q 47.40625 39.59375 52.65625 34.296875 
Q 57.90625 29 57.90625 20.125 
Q 57.90625 9.515625 50.796875 4.046875 
Q 43.703125 -1.421875 29.984375 -1.421875 
Q 24.8125 -1.421875 18.96875 -0.25 
Q 13.140625 0.921875 6.890625 3.21875 
L 6.890625 13.375 
Q 12.890625 10.015625 18.65625 8.296875 
Q 24.421875 6.59375 29.984375 6.59375 
Q 38.421875 6.59375 43.015625 9.90625 
Q 47.609375 13.234375 47.609375 19.390625 
Q 47.609375 24.75 44.3125 27.78125 
Q 41.015625 30.8125 33.5 32.328125 
L 27.484375 33.5 
Q 16.453125 35.6875 11.515625 40.375 
Q 6.59375 45.0625 6.59375 53.421875 
Q 6.59375 63.09375 13.40625 68.65625 
Q 20.21875 74.21875 32.171875 74.21875 
Q 37.3125 74.21875 42.625 73.28125 
Q 47.953125 72.359375 53.515625 70.515625 
z
" id="DejaVuSans-83"/>
      <path d="M 54.890625 33.015625 
L 54.890625 0 
L 45.90625 0 
L 45.90625 32.71875 
Q 45.90625 40.484375 42.875 44.328125 
Q 39.84375 48.1875 33.796875 48.1875 
Q 26.515625 48.1875 22.3125 43.546875 
Q 18.109375 38.921875 18.109375 30.90625 
L 18.109375 0 
L 9.078125 0 
L 9.078125 75.984375 
L 18.109375 75.984375 
L 18.109375 46.1875 
Q 21.34375 51.125 25.703125 53.5625 
Q 30.078125 56 35.796875 56 
Q 45.21875 56 50.046875 50.171875 
Q 54.890625 44.34375 54.890625 33.015625 
z
" id="DejaVuSans-104"/>
     </defs>
     <use xlink:href="#DejaVuSans-52"/>
     <use x="63.623047" xlink:href="#DejaVuSans-32"/>
     <use x="95.410156" xlink:href="#DejaVuSans-83"/>
     <use x="158.886719" xlink:href="#DejaVuSans-112"/>
     <use x="222.363281" xlink:href="#DejaVuSans-104"/>
     <use x="285.742188" xlink:href="#DejaVuSans-101"/>
     <use x="347.265625" xlink:href="#DejaVuSans-114"/>
     <use x="386.128906" xlink:href="#DejaVuSans-101"/>
     <use x="447.652344" xlink:href="#DejaVuSans-44"/>
     <use x="479.439453" xlink:href="#DejaVuSans-32"/>
     <use x="511.226562" xlink:href="#DejaVuSans-110"/>
     <use x="574.605469" xlink:href="#DejaVuSans-47"/>
     <use x="608.296875" xlink:href="#DejaVuSans-50"/>
     <use x="671.919922" xlink:href="#DejaVuSans-43"/>
     <use x="755.708984" xlink:href="#DejaVuSans-54"/>
     <use x="819.332031" xlink:href="#DejaVuSans-32"/>
     <use x="851.119141" xlink:href="#DejaVuSans-99"/>
     <use x="906.099609" xlink:href="#DejaVuSans-111"/>
     <use x="967.28125" xlink:href="#DejaVuSans-110"/>
     <use x="1030.660156" xlink:href="#DejaVuSans-115"/>
     <use x="1082.759766" xlink:href="#DejaVuSans-116"/>
     <use x="1121.96875" xlink:href="#DejaVuSans-114"/>
     <use x="1163.082031" xlink:href="#DejaVuSans-97"/>
     <use x="1224.361328" xlink:href="#DejaVuSans-105"/>
     <use x="1252.144531" xlink:href="#DejaVuSans-110"/>
     <use x="1315.523438" xlink:href="#DejaVuSans-116"/>
     <use x="1354.732422" xlink:href="#DejaVuSans-115"/>
    </g>
   </g>
  </g>
 </g>
 <defs>
  <clipPath id="pfce809d18b">
   <rect height="271.296" width="281.088" x="57.6" y="27.648"/>
  </clipPath>
 </defs>
</svg>
