<?xml version="1.0" encoding="utf-8" standalone="no"?>
<!DOCTYPE svg PUBLIC "-//W3C//DTD SVG 1.1//EN"
  "http://www.w3.org/Graphics/SVG/1.1/DTD/svg11.dtd">
<!-- Created with matplotlib (https://matplotlib.org/) -->
<svg height="345.6pt" version="1.1" viewBox="0 0 460.8 345.6" width="460.8pt" xmlns="http://www.w3.org/2000/svg" xmlns:xlink="http://www.w3.org/1999/xlink">
 <metadata>
  <rdf:RDF xmlns:cc="http://creativecommons.org/ns#" xmlns:dc="http://purl.org/dc/elements/1.1/" xmlns:rdf="http://www.w3.org/1999/02/22-rdf-syntax-ns#">
   <cc:Work>
    <dc:type rdf:resource="http://purl.org/dc/dcmitype/StillImage"/>
    <dc:date>2021-04-09T10:17:15.066714</dc:date>
    <dc:format>image/svg+xml</dc:format>
    <dc:creator>
     <cc:Agent>
      <dc:title>Matplotlib v3.3.3, https://matplotlib.org/</dc:title>
     </cc:Agent>
    </dc:creator>
   </cc:Work>
  </rdf:RDF>
 </metadata>
 <defs>
  <style type="text/css">*{stroke-linecap:butt;stroke-linejoin:round;}</style>
 </defs>
 <g id="figure_1">
  <g id="patch_1">
   <path d="M 0 345.6 
L 460.8 345.6 
L 460.8 0 
L 0 0 
z
" style="fill:#ffffff;"/>
  </g>
  <g id="axes_1">
   <g id="patch_2">
    <path d="M 57.6 298.944 
L 338.688 298.944 
L 338.688 27.648 
L 57.6 27.648 
z
" style="fill:#ffffff;"/>
   </g>
   <g id="matplotlib.axis_1">
    <g id="xtick_1">
     <g id="line2d_1">
      <path clip-path="url(#p98234f5959)" d="M 57.6 298.944 
L 57.6 27.648 
" style="fill:none;stroke:#b0b0b0;stroke-linecap:square;stroke-width:0.8;"/>
     </g>
     <g id="line2d_2">
      <defs>
       <path d="M 0 0 
L 0 3.5 
" id="m25074e73bd" style="stroke:#000000;stroke-width:0.8;"/>
      </defs>
      <g>
       <use style="stroke:#000000;stroke-width:0.8;" x="57.6" xlink:href="#m25074e73bd" y="298.944"/>
      </g>
     </g>
     <g id="text_1">
      <!-- 0 -->
      <g transform="translate(51.2375 321.140875)scale(0.2 -0.2)">
       <defs>
        <path d="M 31.78125 66.40625 
Q 24.171875 66.40625 20.328125 58.90625 
Q 16.5 51.421875 16.5 36.375 
Q 16.5 21.390625 20.328125 13.890625 
Q 24.171875 6.390625 31.78125 6.390625 
Q 39.453125 6.390625 43.28125 13.890625 
Q 47.125 21.390625 47.125 36.375 
Q 47.125 51.421875 43.28125 58.90625 
Q 39.453125 66.40625 31.78125 66.40625 
z
M 31.78125 74.21875 
Q 44.046875 74.21875 50.515625 64.515625 
Q 56.984375 54.828125 56.984375 36.375 
Q 56.984375 17.96875 50.515625 8.265625 
Q 44.046875 -1.421875 31.78125 -1.421875 
Q 19.53125 -1.421875 13.0625 8.265625 
Q 6.59375 17.96875 6.59375 36.375 
Q 6.59375 54.828125 13.0625 64.515625 
Q 19.53125 74.21875 31.78125 74.21875 
z
" id="DejaVuSans-48"/>
       </defs>
       <use xlink:href="#DejaVuSans-48"/>
      </g>
     </g>
    </g>
    <g id="xtick_2">
     <g id="line2d_3">
      <path clip-path="url(#p98234f5959)" d="M 137.910857 298.944 
L 137.910857 27.648 
" style="fill:none;stroke:#b0b0b0;stroke-linecap:square;stroke-width:0.8;"/>
     </g>
     <g id="line2d_4">
      <g>
       <use style="stroke:#000000;stroke-width:0.8;" x="137.910857" xlink:href="#m25074e73bd" y="298.944"/>
      </g>
     </g>
     <g id="text_2">
      <!-- 2 -->
      <g transform="translate(131.548357 321.140875)scale(0.2 -0.2)">
       <defs>
        <path d="M 19.1875 8.296875 
L 53.609375 8.296875 
L 53.609375 0 
L 7.328125 0 
L 7.328125 8.296875 
Q 12.9375 14.109375 22.625 23.890625 
Q 32.328125 33.6875 34.8125 36.53125 
Q 39.546875 41.84375 41.421875 45.53125 
Q 43.3125 49.21875 43.3125 52.78125 
Q 43.3125 58.59375 39.234375 62.25 
Q 35.15625 65.921875 28.609375 65.921875 
Q 23.96875 65.921875 18.8125 64.3125 
Q 13.671875 62.703125 7.8125 59.421875 
L 7.8125 69.390625 
Q 13.765625 71.78125 18.9375 73 
Q 24.125 74.21875 28.421875 74.21875 
Q 39.75 74.21875 46.484375 68.546875 
Q 53.21875 62.890625 53.21875 53.421875 
Q 53.21875 48.921875 51.53125 44.890625 
Q 49.859375 40.875 45.40625 35.40625 
Q 44.1875 33.984375 37.640625 27.21875 
Q 31.109375 20.453125 19.1875 8.296875 
z
" id="DejaVuSans-50"/>
       </defs>
       <use xlink:href="#DejaVuSans-50"/>
      </g>
     </g>
    </g>
    <g id="xtick_3">
     <g id="line2d_5">
      <path clip-path="url(#p98234f5959)" d="M 218.221714 298.944 
L 218.221714 27.648 
" style="fill:none;stroke:#b0b0b0;stroke-linecap:square;stroke-width:0.8;"/>
     </g>
     <g id="line2d_6">
      <g>
       <use style="stroke:#000000;stroke-width:0.8;" x="218.221714" xlink:href="#m25074e73bd" y="298.944"/>
      </g>
     </g>
     <g id="text_3">
      <!-- 4 -->
      <g transform="translate(211.859214 321.140875)scale(0.2 -0.2)">
       <defs>
        <path d="M 37.796875 64.3125 
L 12.890625 25.390625 
L 37.796875 25.390625 
z
M 35.203125 72.90625 
L 47.609375 72.90625 
L 47.609375 25.390625 
L 58.015625 25.390625 
L 58.015625 17.1875 
L 47.609375 17.1875 
L 47.609375 0 
L 37.796875 0 
L 37.796875 17.1875 
L 4.890625 17.1875 
L 4.890625 26.703125 
z
" id="DejaVuSans-52"/>
       </defs>
       <use xlink:href="#DejaVuSans-52"/>
      </g>
     </g>
    </g>
    <g id="xtick_4">
     <g id="line2d_7">
      <path clip-path="url(#p98234f5959)" d="M 298.532571 298.944 
L 298.532571 27.648 
" style="fill:none;stroke:#b0b0b0;stroke-linecap:square;stroke-width:0.8;"/>
     </g>
     <g id="line2d_8">
      <g>
       <use style="stroke:#000000;stroke-width:0.8;" x="298.532571" xlink:href="#m25074e73bd" y="298.944"/>
      </g>
     </g>
     <g id="text_4">
      <!-- 6 -->
      <g transform="translate(292.170071 321.140875)scale(0.2 -0.2)">
       <defs>
        <path d="M 33.015625 40.375 
Q 26.375 40.375 22.484375 35.828125 
Q 18.609375 31.296875 18.609375 23.390625 
Q 18.609375 15.53125 22.484375 10.953125 
Q 26.375 6.390625 33.015625 6.390625 
Q 39.65625 6.390625 43.53125 10.953125 
Q 47.40625 15.53125 47.40625 23.390625 
Q 47.40625 31.296875 43.53125 35.828125 
Q 39.65625 40.375 33.015625 40.375 
z
M 52.59375 71.296875 
L 52.59375 62.3125 
Q 48.875 64.0625 45.09375 64.984375 
Q 41.3125 65.921875 37.59375 65.921875 
Q 27.828125 65.921875 22.671875 59.328125 
Q 17.53125 52.734375 16.796875 39.40625 
Q 19.671875 43.65625 24.015625 45.921875 
Q 28.375 48.1875 33.59375 48.1875 
Q 44.578125 48.1875 50.953125 41.515625 
Q 57.328125 34.859375 57.328125 23.390625 
Q 57.328125 12.15625 50.6875 5.359375 
Q 44.046875 -1.421875 33.015625 -1.421875 
Q 20.359375 -1.421875 13.671875 8.265625 
Q 6.984375 17.96875 6.984375 36.375 
Q 6.984375 53.65625 15.1875 63.9375 
Q 23.390625 74.21875 37.203125 74.21875 
Q 40.921875 74.21875 44.703125 73.484375 
Q 48.484375 72.75 52.59375 71.296875 
z
" id="DejaVuSans-54"/>
       </defs>
       <use xlink:href="#DejaVuSans-54"/>
      </g>
     </g>
    </g>
    <g id="xtick_5">
     <g id="line2d_9">
      <path clip-path="url(#p98234f5959)" d="M 97.755429 298.944 
L 97.755429 27.648 
" style="fill:none;stroke:#b0b0b0;stroke-linecap:square;stroke-width:0.8;"/>
     </g>
     <g id="line2d_10">
      <defs>
       <path d="M 0 0 
L 0 2 
" id="m0e87abf5e0" style="stroke:#000000;stroke-width:0.6;"/>
      </defs>
      <g>
       <use style="stroke:#000000;stroke-width:0.6;" x="97.755429" xlink:href="#m0e87abf5e0" y="298.944"/>
      </g>
     </g>
    </g>
    <g id="xtick_6">
     <g id="line2d_11">
      <path clip-path="url(#p98234f5959)" d="M 178.066286 298.944 
L 178.066286 27.648 
" style="fill:none;stroke:#b0b0b0;stroke-linecap:square;stroke-width:0.8;"/>
     </g>
     <g id="line2d_12">
      <g>
       <use style="stroke:#000000;stroke-width:0.6;" x="178.066286" xlink:href="#m0e87abf5e0" y="298.944"/>
      </g>
     </g>
    </g>
    <g id="xtick_7">
     <g id="line2d_13">
      <path clip-path="url(#p98234f5959)" d="M 258.377143 298.944 
L 258.377143 27.648 
" style="fill:none;stroke:#b0b0b0;stroke-linecap:square;stroke-width:0.8;"/>
     </g>
     <g id="line2d_14">
      <g>
       <use style="stroke:#000000;stroke-width:0.6;" x="258.377143" xlink:href="#m0e87abf5e0" y="298.944"/>
      </g>
     </g>
    </g>
    <g id="xtick_8">
     <g id="line2d_15">
      <path clip-path="url(#p98234f5959)" d="M 338.688 298.944 
L 338.688 27.648 
" style="fill:none;stroke:#b0b0b0;stroke-linecap:square;stroke-width:0.8;"/>
     </g>
     <g id="line2d_16">
      <g>
       <use style="stroke:#000000;stroke-width:0.6;" x="338.688" xlink:href="#m0e87abf5e0" y="298.944"/>
      </g>
     </g>
    </g>
    <g id="text_5">
     <!-- log10(# (f+g)-evals / dimension) -->
     <g transform="translate(58.145016 342.217594)scale(0.17 -0.17)">
      <defs>
       <path d="M 9.421875 75.984375 
L 18.40625 75.984375 
L 18.40625 0 
L 9.421875 0 
z
" id="DejaVuSans-108"/>
       <path d="M 30.609375 48.390625 
Q 23.390625 48.390625 19.1875 42.75 
Q 14.984375 37.109375 14.984375 27.296875 
Q 14.984375 17.484375 19.15625 11.84375 
Q 23.34375 6.203125 30.609375 6.203125 
Q 37.796875 6.203125 41.984375 11.859375 
Q 46.1875 17.53125 46.1875 27.296875 
Q 46.1875 37.015625 41.984375 42.703125 
Q 37.796875 48.390625 30.609375 48.390625 
z
M 30.609375 56 
Q 42.328125 56 49.015625 48.375 
Q 55.71875 40.765625 55.71875 27.296875 
Q 55.71875 13.875 49.015625 6.21875 
Q 42.328125 -1.421875 30.609375 -1.421875 
Q 18.84375 -1.421875 12.171875 6.21875 
Q 5.515625 13.875 5.515625 27.296875 
Q 5.515625 40.765625 12.171875 48.375 
Q 18.84375 56 30.609375 56 
z
" id="DejaVuSans-111"/>
       <path d="M 45.40625 27.984375 
Q 45.40625 37.75 41.375 43.109375 
Q 37.359375 48.484375 30.078125 48.484375 
Q 22.859375 48.484375 18.828125 43.109375 
Q 14.796875 37.75 14.796875 27.984375 
Q 14.796875 18.265625 18.828125 12.890625 
Q 22.859375 7.515625 30.078125 7.515625 
Q 37.359375 7.515625 41.375 12.890625 
Q 45.40625 18.265625 45.40625 27.984375 
z
M 54.390625 6.78125 
Q 54.390625 -7.171875 48.1875 -13.984375 
Q 42 -20.796875 29.203125 -20.796875 
Q 24.46875 -20.796875 20.265625 -20.09375 
Q 16.0625 -19.390625 12.109375 -17.921875 
L 12.109375 -9.1875 
Q 16.0625 -11.328125 19.921875 -12.34375 
Q 23.78125 -13.375 27.78125 -13.375 
Q 36.625 -13.375 41.015625 -8.765625 
Q 45.40625 -4.15625 45.40625 5.171875 
L 45.40625 9.625 
Q 42.625 4.78125 38.28125 2.390625 
Q 33.9375 0 27.875 0 
Q 17.828125 0 11.671875 7.65625 
Q 5.515625 15.328125 5.515625 27.984375 
Q 5.515625 40.671875 11.671875 48.328125 
Q 17.828125 56 27.875 56 
Q 33.9375 56 38.28125 53.609375 
Q 42.625 51.21875 45.40625 46.390625 
L 45.40625 54.6875 
L 54.390625 54.6875 
z
" id="DejaVuSans-103"/>
       <path d="M 12.40625 8.296875 
L 28.515625 8.296875 
L 28.515625 63.921875 
L 10.984375 60.40625 
L 10.984375 69.390625 
L 28.421875 72.90625 
L 38.28125 72.90625 
L 38.28125 8.296875 
L 54.390625 8.296875 
L 54.390625 0 
L 12.40625 0 
z
" id="DejaVuSans-49"/>
       <path d="M 31 75.875 
Q 24.46875 64.65625 21.28125 53.65625 
Q 18.109375 42.671875 18.109375 31.390625 
Q 18.109375 20.125 21.3125 9.0625 
Q 24.515625 -2 31 -13.1875 
L 23.1875 -13.1875 
Q 15.875 -1.703125 12.234375 9.375 
Q 8.59375 20.453125 8.59375 31.390625 
Q 8.59375 42.28125 12.203125 53.3125 
Q 15.828125 64.359375 23.1875 75.875 
z
" id="DejaVuSans-40"/>
       <path d="M 51.125 44 
L 36.921875 44 
L 32.8125 27.6875 
L 47.125 27.6875 
z
M 43.796875 71.78125 
L 38.71875 51.515625 
L 52.984375 51.515625 
L 58.109375 71.78125 
L 65.921875 71.78125 
L 60.890625 51.515625 
L 76.125 51.515625 
L 76.125 44 
L 58.984375 44 
L 54.984375 27.6875 
L 70.515625 27.6875 
L 70.515625 20.21875 
L 53.078125 20.21875 
L 48 0 
L 40.1875 0 
L 45.21875 20.21875 
L 30.90625 20.21875 
L 25.875 0 
L 18.015625 0 
L 23.09375 20.21875 
L 7.71875 20.21875 
L 7.71875 27.6875 
L 24.90625 27.6875 
L 29 44 
L 13.28125 44 
L 13.28125 51.515625 
L 30.90625 51.515625 
L 35.890625 71.78125 
z
" id="DejaVuSans-35"/>
       <path id="DejaVuSans-32"/>
       <path d="M 37.109375 75.984375 
L 37.109375 68.5 
L 28.515625 68.5 
Q 23.6875 68.5 21.796875 66.546875 
Q 19.921875 64.59375 19.921875 59.515625 
L 19.921875 54.6875 
L 34.71875 54.6875 
L 34.71875 47.703125 
L 19.921875 47.703125 
L 19.921875 0 
L 10.890625 0 
L 10.890625 47.703125 
L 2.296875 47.703125 
L 2.296875 54.6875 
L 10.890625 54.6875 
L 10.890625 58.5 
Q 10.890625 67.625 15.140625 71.796875 
Q 19.390625 75.984375 28.609375 75.984375 
z
" id="DejaVuSans-102"/>
       <path d="M 46 62.703125 
L 46 35.5 
L 73.1875 35.5 
L 73.1875 27.203125 
L 46 27.203125 
L 46 0 
L 37.796875 0 
L 37.796875 27.203125 
L 10.59375 27.203125 
L 10.59375 35.5 
L 37.796875 35.5 
L 37.796875 62.703125 
z
" id="DejaVuSans-43"/>
       <path d="M 8.015625 75.875 
L 15.828125 75.875 
Q 23.140625 64.359375 26.78125 53.3125 
Q 30.421875 42.28125 30.421875 31.390625 
Q 30.421875 20.453125 26.78125 9.375 
Q 23.140625 -1.703125 15.828125 -13.1875 
L 8.015625 -13.1875 
Q 14.5 -2 17.703125 9.0625 
Q 20.90625 20.125 20.90625 31.390625 
Q 20.90625 42.671875 17.703125 53.65625 
Q 14.5 64.65625 8.015625 75.875 
z
" id="DejaVuSans-41"/>
       <path d="M 4.890625 31.390625 
L 31.203125 31.390625 
L 31.203125 23.390625 
L 4.890625 23.390625 
z
" id="DejaVuSans-45"/>
       <path d="M 56.203125 29.59375 
L 56.203125 25.203125 
L 14.890625 25.203125 
Q 15.484375 15.921875 20.484375 11.0625 
Q 25.484375 6.203125 34.421875 6.203125 
Q 39.59375 6.203125 44.453125 7.46875 
Q 49.3125 8.734375 54.109375 11.28125 
L 54.109375 2.78125 
Q 49.265625 0.734375 44.1875 -0.34375 
Q 39.109375 -1.421875 33.890625 -1.421875 
Q 20.796875 -1.421875 13.15625 6.1875 
Q 5.515625 13.8125 5.515625 26.8125 
Q 5.515625 40.234375 12.765625 48.109375 
Q 20.015625 56 32.328125 56 
Q 43.359375 56 49.78125 48.890625 
Q 56.203125 41.796875 56.203125 29.59375 
z
M 47.21875 32.234375 
Q 47.125 39.59375 43.09375 43.984375 
Q 39.0625 48.390625 32.421875 48.390625 
Q 24.90625 48.390625 20.390625 44.140625 
Q 15.875 39.890625 15.1875 32.171875 
z
" id="DejaVuSans-101"/>
       <path d="M 2.984375 54.6875 
L 12.5 54.6875 
L 29.59375 8.796875 
L 46.6875 54.6875 
L 56.203125 54.6875 
L 35.6875 0 
L 23.484375 0 
z
" id="DejaVuSans-118"/>
       <path d="M 34.28125 27.484375 
Q 23.390625 27.484375 19.1875 25 
Q 14.984375 22.515625 14.984375 16.5 
Q 14.984375 11.71875 18.140625 8.90625 
Q 21.296875 6.109375 26.703125 6.109375 
Q 34.1875 6.109375 38.703125 11.40625 
Q 43.21875 16.703125 43.21875 25.484375 
L 43.21875 27.484375 
z
M 52.203125 31.203125 
L 52.203125 0 
L 43.21875 0 
L 43.21875 8.296875 
Q 40.140625 3.328125 35.546875 0.953125 
Q 30.953125 -1.421875 24.3125 -1.421875 
Q 15.921875 -1.421875 10.953125 3.296875 
Q 6 8.015625 6 15.921875 
Q 6 25.140625 12.171875 29.828125 
Q 18.359375 34.515625 30.609375 34.515625 
L 43.21875 34.515625 
L 43.21875 35.40625 
Q 43.21875 41.609375 39.140625 45 
Q 35.0625 48.390625 27.6875 48.390625 
Q 23 48.390625 18.546875 47.265625 
Q 14.109375 46.140625 10.015625 43.890625 
L 10.015625 52.203125 
Q 14.9375 54.109375 19.578125 55.046875 
Q 24.21875 56 28.609375 56 
Q 40.484375 56 46.34375 49.84375 
Q 52.203125 43.703125 52.203125 31.203125 
z
" id="DejaVuSans-97"/>
       <path d="M 44.28125 53.078125 
L 44.28125 44.578125 
Q 40.484375 46.53125 36.375 47.5 
Q 32.28125 48.484375 27.875 48.484375 
Q 21.1875 48.484375 17.84375 46.4375 
Q 14.5 44.390625 14.5 40.28125 
Q 14.5 37.15625 16.890625 35.375 
Q 19.28125 33.59375 26.515625 31.984375 
L 29.59375 31.296875 
Q 39.15625 29.25 43.1875 25.515625 
Q 47.21875 21.78125 47.21875 15.09375 
Q 47.21875 7.46875 41.1875 3.015625 
Q 35.15625 -1.421875 24.609375 -1.421875 
Q 20.21875 -1.421875 15.453125 -0.5625 
Q 10.6875 0.296875 5.421875 2 
L 5.421875 11.28125 
Q 10.40625 8.6875 15.234375 7.390625 
Q 20.0625 6.109375 24.8125 6.109375 
Q 31.15625 6.109375 34.5625 8.28125 
Q 37.984375 10.453125 37.984375 14.40625 
Q 37.984375 18.0625 35.515625 20.015625 
Q 33.0625 21.96875 24.703125 23.78125 
L 21.578125 24.515625 
Q 13.234375 26.265625 9.515625 29.90625 
Q 5.8125 33.546875 5.8125 39.890625 
Q 5.8125 47.609375 11.28125 51.796875 
Q 16.75 56 26.8125 56 
Q 31.78125 56 36.171875 55.265625 
Q 40.578125 54.546875 44.28125 53.078125 
z
" id="DejaVuSans-115"/>
       <path d="M 25.390625 72.90625 
L 33.6875 72.90625 
L 8.296875 -9.28125 
L 0 -9.28125 
z
" id="DejaVuSans-47"/>
       <path d="M 45.40625 46.390625 
L 45.40625 75.984375 
L 54.390625 75.984375 
L 54.390625 0 
L 45.40625 0 
L 45.40625 8.203125 
Q 42.578125 3.328125 38.25 0.953125 
Q 33.9375 -1.421875 27.875 -1.421875 
Q 17.96875 -1.421875 11.734375 6.484375 
Q 5.515625 14.40625 5.515625 27.296875 
Q 5.515625 40.1875 11.734375 48.09375 
Q 17.96875 56 27.875 56 
Q 33.9375 56 38.25 53.625 
Q 42.578125 51.265625 45.40625 46.390625 
z
M 14.796875 27.296875 
Q 14.796875 17.390625 18.875 11.75 
Q 22.953125 6.109375 30.078125 6.109375 
Q 37.203125 6.109375 41.296875 11.75 
Q 45.40625 17.390625 45.40625 27.296875 
Q 45.40625 37.203125 41.296875 42.84375 
Q 37.203125 48.484375 30.078125 48.484375 
Q 22.953125 48.484375 18.875 42.84375 
Q 14.796875 37.203125 14.796875 27.296875 
z
" id="DejaVuSans-100"/>
       <path d="M 9.421875 54.6875 
L 18.40625 54.6875 
L 18.40625 0 
L 9.421875 0 
z
M 9.421875 75.984375 
L 18.40625 75.984375 
L 18.40625 64.59375 
L 9.421875 64.59375 
z
" id="DejaVuSans-105"/>
       <path d="M 52 44.1875 
Q 55.375 50.25 60.0625 53.125 
Q 64.75 56 71.09375 56 
Q 79.640625 56 84.28125 50.015625 
Q 88.921875 44.046875 88.921875 33.015625 
L 88.921875 0 
L 79.890625 0 
L 79.890625 32.71875 
Q 79.890625 40.578125 77.09375 44.375 
Q 74.3125 48.1875 68.609375 48.1875 
Q 61.625 48.1875 57.5625 43.546875 
Q 53.515625 38.921875 53.515625 30.90625 
L 53.515625 0 
L 44.484375 0 
L 44.484375 32.71875 
Q 44.484375 40.625 41.703125 44.40625 
Q 38.921875 48.1875 33.109375 48.1875 
Q 26.21875 48.1875 22.15625 43.53125 
Q 18.109375 38.875 18.109375 30.90625 
L 18.109375 0 
L 9.078125 0 
L 9.078125 54.6875 
L 18.109375 54.6875 
L 18.109375 46.1875 
Q 21.1875 51.21875 25.484375 53.609375 
Q 29.78125 56 35.6875 56 
Q 41.65625 56 45.828125 52.96875 
Q 50 49.953125 52 44.1875 
z
" id="DejaVuSans-109"/>
       <path d="M 54.890625 33.015625 
L 54.890625 0 
L 45.90625 0 
L 45.90625 32.71875 
Q 45.90625 40.484375 42.875 44.328125 
Q 39.84375 48.1875 33.796875 48.1875 
Q 26.515625 48.1875 22.3125 43.546875 
Q 18.109375 38.921875 18.109375 30.90625 
L 18.109375 0 
L 9.078125 0 
L 9.078125 54.6875 
L 18.109375 54.6875 
L 18.109375 46.1875 
Q 21.34375 51.125 25.703125 53.5625 
Q 30.078125 56 35.796875 56 
Q 45.21875 56 50.046875 50.171875 
Q 54.890625 44.34375 54.890625 33.015625 
z
" id="DejaVuSans-110"/>
      </defs>
      <use xlink:href="#DejaVuSans-108"/>
      <use x="27.783203" xlink:href="#DejaVuSans-111"/>
      <use x="88.964844" xlink:href="#DejaVuSans-103"/>
      <use x="152.441406" xlink:href="#DejaVuSans-49"/>
      <use x="216.064453" xlink:href="#DejaVuSans-48"/>
      <use x="279.6875" xlink:href="#DejaVuSans-40"/>
      <use x="318.701172" xlink:href="#DejaVuSans-35"/>
      <use x="402.490234" xlink:href="#DejaVuSans-32"/>
      <use x="434.277344" xlink:href="#DejaVuSans-40"/>
      <use x="473.291016" xlink:href="#DejaVuSans-102"/>
      <use x="508.496094" xlink:href="#DejaVuSans-43"/>
      <use x="592.285156" xlink:href="#DejaVuSans-103"/>
      <use x="655.761719" xlink:href="#DejaVuSans-41"/>
      <use x="694.775391" xlink:href="#DejaVuSans-45"/>
      <use x="730.859375" xlink:href="#DejaVuSans-101"/>
      <use x="792.382812" xlink:href="#DejaVuSans-118"/>
      <use x="851.5625" xlink:href="#DejaVuSans-97"/>
      <use x="912.841797" xlink:href="#DejaVuSans-108"/>
      <use x="940.625" xlink:href="#DejaVuSans-115"/>
      <use x="992.724609" xlink:href="#DejaVuSans-32"/>
      <use x="1024.511719" xlink:href="#DejaVuSans-47"/>
      <use x="1058.203125" xlink:href="#DejaVuSans-32"/>
      <use x="1089.990234" xlink:href="#DejaVuSans-100"/>
      <use x="1153.466797" xlink:href="#DejaVuSans-105"/>
      <use x="1181.25" xlink:href="#DejaVuSans-109"/>
      <use x="1278.662109" xlink:href="#DejaVuSans-101"/>
      <use x="1340.185547" xlink:href="#DejaVuSans-110"/>
      <use x="1403.564453" xlink:href="#DejaVuSans-115"/>
      <use x="1455.664062" xlink:href="#DejaVuSans-105"/>
      <use x="1483.447266" xlink:href="#DejaVuSans-111"/>
      <use x="1544.628906" xlink:href="#DejaVuSans-110"/>
      <use x="1608.007812" xlink:href="#DejaVuSans-41"/>
     </g>
    </g>
   </g>
   <g id="matplotlib.axis_2">
    <g id="ytick_1">
     <g id="line2d_17">
      <path clip-path="url(#p98234f5959)" d="M 57.6 298.944 
L 338.688 298.944 
" style="fill:none;stroke:#b0b0b0;stroke-linecap:square;stroke-width:0.8;"/>
     </g>
     <g id="line2d_18">
      <defs>
       <path d="M 0 0 
L -3.5 0 
" id="ma7365dfa0d" style="stroke:#000000;stroke-width:0.8;"/>
      </defs>
      <g>
       <use style="stroke:#000000;stroke-width:0.8;" x="57.6" xlink:href="#ma7365dfa0d" y="298.944"/>
      </g>
     </g>
     <g id="text_6">
      <!-- 0.0 -->
      <g transform="translate(25.155 305.02275)scale(0.16 -0.16)">
       <defs>
        <path d="M 10.6875 12.40625 
L 21 12.40625 
L 21 0 
L 10.6875 0 
z
" id="DejaVuSans-46"/>
       </defs>
       <use xlink:href="#DejaVuSans-48"/>
       <use x="63.623047" xlink:href="#DejaVuSans-46"/>
       <use x="95.410156" xlink:href="#DejaVuSans-48"/>
      </g>
     </g>
    </g>
    <g id="ytick_2">
     <g id="line2d_19">
      <path clip-path="url(#p98234f5959)" d="M 57.6 245.22202 
L 338.688 245.22202 
" style="fill:none;stroke:#b0b0b0;stroke-linecap:square;stroke-width:0.8;"/>
     </g>
     <g id="line2d_20">
      <g>
       <use style="stroke:#000000;stroke-width:0.8;" x="57.6" xlink:href="#ma7365dfa0d" y="245.22202"/>
      </g>
     </g>
     <g id="text_7">
      <!-- 0.2 -->
      <g transform="translate(25.155 251.30077)scale(0.16 -0.16)">
       <use xlink:href="#DejaVuSans-48"/>
       <use x="63.623047" xlink:href="#DejaVuSans-46"/>
       <use x="95.410156" xlink:href="#DejaVuSans-50"/>
      </g>
     </g>
    </g>
    <g id="ytick_3">
     <g id="line2d_21">
      <path clip-path="url(#p98234f5959)" d="M 57.6 191.50004 
L 338.688 191.50004 
" style="fill:none;stroke:#b0b0b0;stroke-linecap:square;stroke-width:0.8;"/>
     </g>
     <g id="line2d_22">
      <g>
       <use style="stroke:#000000;stroke-width:0.8;" x="57.6" xlink:href="#ma7365dfa0d" y="191.50004"/>
      </g>
     </g>
     <g id="text_8">
      <!-- 0.4 -->
      <g transform="translate(25.155 197.57879)scale(0.16 -0.16)">
       <use xlink:href="#DejaVuSans-48"/>
       <use x="63.623047" xlink:href="#DejaVuSans-46"/>
       <use x="95.410156" xlink:href="#DejaVuSans-52"/>
      </g>
     </g>
    </g>
    <g id="ytick_4">
     <g id="line2d_23">
      <path clip-path="url(#p98234f5959)" d="M 57.6 137.778059 
L 338.688 137.778059 
" style="fill:none;stroke:#b0b0b0;stroke-linecap:square;stroke-width:0.8;"/>
     </g>
     <g id="line2d_24">
      <g>
       <use style="stroke:#000000;stroke-width:0.8;" x="57.6" xlink:href="#ma7365dfa0d" y="137.778059"/>
      </g>
     </g>
     <g id="text_9">
      <!-- 0.6 -->
      <g transform="translate(25.155 143.856809)scale(0.16 -0.16)">
       <use xlink:href="#DejaVuSans-48"/>
       <use x="63.623047" xlink:href="#DejaVuSans-46"/>
       <use x="95.410156" xlink:href="#DejaVuSans-54"/>
      </g>
     </g>
    </g>
    <g id="ytick_5">
     <g id="line2d_25">
      <path clip-path="url(#p98234f5959)" d="M 57.6 84.056079 
L 338.688 84.056079 
" style="fill:none;stroke:#b0b0b0;stroke-linecap:square;stroke-width:0.8;"/>
     </g>
     <g id="line2d_26">
      <g>
       <use style="stroke:#000000;stroke-width:0.8;" x="57.6" xlink:href="#ma7365dfa0d" y="84.056079"/>
      </g>
     </g>
     <g id="text_10">
      <!-- 0.8 -->
      <g transform="translate(25.155 90.134829)scale(0.16 -0.16)">
       <defs>
        <path d="M 31.78125 34.625 
Q 24.75 34.625 20.71875 30.859375 
Q 16.703125 27.09375 16.703125 20.515625 
Q 16.703125 13.921875 20.71875 10.15625 
Q 24.75 6.390625 31.78125 6.390625 
Q 38.8125 6.390625 42.859375 10.171875 
Q 46.921875 13.96875 46.921875 20.515625 
Q 46.921875 27.09375 42.890625 30.859375 
Q 38.875 34.625 31.78125 34.625 
z
M 21.921875 38.8125 
Q 15.578125 40.375 12.03125 44.71875 
Q 8.5 49.078125 8.5 55.328125 
Q 8.5 64.0625 14.71875 69.140625 
Q 20.953125 74.21875 31.78125 74.21875 
Q 42.671875 74.21875 48.875 69.140625 
Q 55.078125 64.0625 55.078125 55.328125 
Q 55.078125 49.078125 51.53125 44.71875 
Q 48 40.375 41.703125 38.8125 
Q 48.828125 37.15625 52.796875 32.3125 
Q 56.78125 27.484375 56.78125 20.515625 
Q 56.78125 9.90625 50.3125 4.234375 
Q 43.84375 -1.421875 31.78125 -1.421875 
Q 19.734375 -1.421875 13.25 4.234375 
Q 6.78125 9.90625 6.78125 20.515625 
Q 6.78125 27.484375 10.78125 32.3125 
Q 14.796875 37.15625 21.921875 38.8125 
z
M 18.3125 54.390625 
Q 18.3125 48.734375 21.84375 45.5625 
Q 25.390625 42.390625 31.78125 42.390625 
Q 38.140625 42.390625 41.71875 45.5625 
Q 45.3125 48.734375 45.3125 54.390625 
Q 45.3125 60.0625 41.71875 63.234375 
Q 38.140625 66.40625 31.78125 66.40625 
Q 25.390625 66.40625 21.84375 63.234375 
Q 18.3125 60.0625 18.3125 54.390625 
z
" id="DejaVuSans-56"/>
       </defs>
       <use xlink:href="#DejaVuSans-48"/>
       <use x="63.623047" xlink:href="#DejaVuSans-46"/>
       <use x="95.410156" xlink:href="#DejaVuSans-56"/>
      </g>
     </g>
    </g>
    <g id="ytick_6">
     <g id="line2d_27">
      <path clip-path="url(#p98234f5959)" d="M 57.6 30.334099 
L 338.688 30.334099 
" style="fill:none;stroke:#b0b0b0;stroke-linecap:square;stroke-width:0.8;"/>
     </g>
     <g id="line2d_28">
      <g>
       <use style="stroke:#000000;stroke-width:0.8;" x="57.6" xlink:href="#ma7365dfa0d" y="30.334099"/>
      </g>
     </g>
     <g id="text_11">
      <!-- 1.0 -->
      <g transform="translate(25.155 36.412849)scale(0.16 -0.16)">
       <use xlink:href="#DejaVuSans-49"/>
       <use x="63.623047" xlink:href="#DejaVuSans-46"/>
       <use x="95.410156" xlink:href="#DejaVuSans-48"/>
      </g>
     </g>
    </g>
    <g id="text_12">
     <!-- Fraction of function,target pairs -->
     <g transform="translate(17.619531 297.681)rotate(-90)scale(0.17 -0.17)">
      <defs>
       <path d="M 9.8125 72.90625 
L 51.703125 72.90625 
L 51.703125 64.59375 
L 19.671875 64.59375 
L 19.671875 43.109375 
L 48.578125 43.109375 
L 48.578125 34.8125 
L 19.671875 34.8125 
L 19.671875 0 
L 9.8125 0 
z
" id="DejaVuSans-70"/>
       <path d="M 41.109375 46.296875 
Q 39.59375 47.171875 37.8125 47.578125 
Q 36.03125 48 33.890625 48 
Q 26.265625 48 22.1875 43.046875 
Q 18.109375 38.09375 18.109375 28.8125 
L 18.109375 0 
L 9.078125 0 
L 9.078125 54.6875 
L 18.109375 54.6875 
L 18.109375 46.1875 
Q 20.953125 51.171875 25.484375 53.578125 
Q 30.03125 56 36.53125 56 
Q 37.453125 56 38.578125 55.875 
Q 39.703125 55.765625 41.0625 55.515625 
z
" id="DejaVuSans-114"/>
       <path d="M 48.78125 52.59375 
L 48.78125 44.1875 
Q 44.96875 46.296875 41.140625 47.34375 
Q 37.3125 48.390625 33.40625 48.390625 
Q 24.65625 48.390625 19.8125 42.84375 
Q 14.984375 37.3125 14.984375 27.296875 
Q 14.984375 17.28125 19.8125 11.734375 
Q 24.65625 6.203125 33.40625 6.203125 
Q 37.3125 6.203125 41.140625 7.25 
Q 44.96875 8.296875 48.78125 10.40625 
L 48.78125 2.09375 
Q 45.015625 0.34375 40.984375 -0.53125 
Q 36.96875 -1.421875 32.421875 -1.421875 
Q 20.0625 -1.421875 12.78125 6.34375 
Q 5.515625 14.109375 5.515625 27.296875 
Q 5.515625 40.671875 12.859375 48.328125 
Q 20.21875 56 33.015625 56 
Q 37.15625 56 41.109375 55.140625 
Q 45.0625 54.296875 48.78125 52.59375 
z
" id="DejaVuSans-99"/>
       <path d="M 18.3125 70.21875 
L 18.3125 54.6875 
L 36.8125 54.6875 
L 36.8125 47.703125 
L 18.3125 47.703125 
L 18.3125 18.015625 
Q 18.3125 11.328125 20.140625 9.421875 
Q 21.96875 7.515625 27.59375 7.515625 
L 36.8125 7.515625 
L 36.8125 0 
L 27.59375 0 
Q 17.1875 0 13.234375 3.875 
Q 9.28125 7.765625 9.28125 18.015625 
L 9.28125 47.703125 
L 2.6875 47.703125 
L 2.6875 54.6875 
L 9.28125 54.6875 
L 9.28125 70.21875 
z
" id="DejaVuSans-116"/>
       <path d="M 8.5 21.578125 
L 8.5 54.6875 
L 17.484375 54.6875 
L 17.484375 21.921875 
Q 17.484375 14.15625 20.5 10.265625 
Q 23.53125 6.390625 29.59375 6.390625 
Q 36.859375 6.390625 41.078125 11.03125 
Q 45.3125 15.671875 45.3125 23.6875 
L 45.3125 54.6875 
L 54.296875 54.6875 
L 54.296875 0 
L 45.3125 0 
L 45.3125 8.40625 
Q 42.046875 3.421875 37.71875 1 
Q 33.40625 -1.421875 27.6875 -1.421875 
Q 18.265625 -1.421875 13.375 4.4375 
Q 8.5 10.296875 8.5 21.578125 
z
M 31.109375 56 
z
" id="DejaVuSans-117"/>
       <path d="M 11.71875 12.40625 
L 22.015625 12.40625 
L 22.015625 4 
L 14.015625 -11.625 
L 7.71875 -11.625 
L 11.71875 4 
z
" id="DejaVuSans-44"/>
       <path d="M 18.109375 8.203125 
L 18.109375 -20.796875 
L 9.078125 -20.796875 
L 9.078125 54.6875 
L 18.109375 54.6875 
L 18.109375 46.390625 
Q 20.953125 51.265625 25.265625 53.625 
Q 29.59375 56 35.59375 56 
Q 45.5625 56 51.78125 48.09375 
Q 58.015625 40.1875 58.015625 27.296875 
Q 58.015625 14.40625 51.78125 6.484375 
Q 45.5625 -1.421875 35.59375 -1.421875 
Q 29.59375 -1.421875 25.265625 0.953125 
Q 20.953125 3.328125 18.109375 8.203125 
z
M 48.6875 27.296875 
Q 48.6875 37.203125 44.609375 42.84375 
Q 40.53125 48.484375 33.40625 48.484375 
Q 26.265625 48.484375 22.1875 42.84375 
Q 18.109375 37.203125 18.109375 27.296875 
Q 18.109375 17.390625 22.1875 11.75 
Q 26.265625 6.109375 33.40625 6.109375 
Q 40.53125 6.109375 44.609375 11.75 
Q 48.6875 17.390625 48.6875 27.296875 
z
" id="DejaVuSans-112"/>
      </defs>
      <use xlink:href="#DejaVuSans-70"/>
      <use x="50.269531" xlink:href="#DejaVuSans-114"/>
      <use x="91.382812" xlink:href="#DejaVuSans-97"/>
      <use x="152.662109" xlink:href="#DejaVuSans-99"/>
      <use x="207.642578" xlink:href="#DejaVuSans-116"/>
      <use x="246.851562" xlink:href="#DejaVuSans-105"/>
      <use x="274.634766" xlink:href="#DejaVuSans-111"/>
      <use x="335.816406" xlink:href="#DejaVuSans-110"/>
      <use x="399.195312" xlink:href="#DejaVuSans-32"/>
      <use x="430.982422" xlink:href="#DejaVuSans-111"/>
      <use x="492.164062" xlink:href="#DejaVuSans-102"/>
      <use x="527.369141" xlink:href="#DejaVuSans-32"/>
      <use x="559.15625" xlink:href="#DejaVuSans-102"/>
      <use x="594.361328" xlink:href="#DejaVuSans-117"/>
      <use x="657.740234" xlink:href="#DejaVuSans-110"/>
      <use x="721.119141" xlink:href="#DejaVuSans-99"/>
      <use x="776.099609" xlink:href="#DejaVuSans-116"/>
      <use x="815.308594" xlink:href="#DejaVuSans-105"/>
      <use x="843.091797" xlink:href="#DejaVuSans-111"/>
      <use x="904.273438" xlink:href="#DejaVuSans-110"/>
      <use x="967.652344" xlink:href="#DejaVuSans-44"/>
      <use x="999.439453" xlink:href="#DejaVuSans-116"/>
      <use x="1038.648438" xlink:href="#DejaVuSans-97"/>
      <use x="1099.927734" xlink:href="#DejaVuSans-114"/>
      <use x="1139.291016" xlink:href="#DejaVuSans-103"/>
      <use x="1202.767578" xlink:href="#DejaVuSans-101"/>
      <use x="1264.291016" xlink:href="#DejaVuSans-116"/>
      <use x="1303.5" xlink:href="#DejaVuSans-32"/>
      <use x="1335.287109" xlink:href="#DejaVuSans-112"/>
      <use x="1398.763672" xlink:href="#DejaVuSans-97"/>
      <use x="1460.042969" xlink:href="#DejaVuSans-105"/>
      <use x="1487.826172" xlink:href="#DejaVuSans-114"/>
      <use x="1528.939453" xlink:href="#DejaVuSans-115"/>
     </g>
    </g>
   </g>
   <g id="line2d_29">
    <defs>
     <path d="M 0 1.5 
C 0.397805 1.5 0.77937 1.341951 1.06066 1.06066 
C 1.341951 0.77937 1.5 0.397805 1.5 0 
C 1.5 -0.397805 1.341951 -0.77937 1.06066 -1.06066 
C 0.77937 -1.341951 0.397805 -1.5 0 -1.5 
C -0.397805 -1.5 -0.77937 -1.341951 -1.06066 -1.06066 
C -1.341951 -0.77937 -1.5 -0.397805 -1.5 0 
C -1.5 0.397805 -1.341951 0.77937 -1.06066 1.06066 
C -0.77937 1.341951 -0.397805 1.5 0 1.5 
z
" id="mbc5a63d570" style="stroke:#000080;"/>
    </defs>
    <g>
     <use style="fill:#000080;stroke:#000080;" x="241.105603" xlink:href="#mbc5a63d570" y="30.334099"/>
     <use style="fill:#000080;stroke:#000080;" x="241.105603" xlink:href="#mbc5a63d570" y="30.334099"/>
    </g>
   </g>
   <g id="line2d_30">
    <path d="M 45.512012 298.944 
L 45.512012 297.633708 
L 95.918017 297.633708 
L 95.918017 296.323416 
L 116.323218 296.323416 
L 116.323218 295.66827 
L 119.097192 295.66827 
L 119.097192 293.702831 
L 119.602714 293.702831 
L 119.602714 293.047685 
L 120.571812 293.047685 
L 120.571812 292.392539 
L 121.036887 292.392539 
L 121.036887 291.082247 
L 123.593547 291.082247 
L 123.593547 289.771955 
L 125.470548 289.771955 
L 125.470548 289.116809 
L 126.168212 289.116809 
L 126.168212 287.15137 
L 126.839037 287.15137 
L 126.839037 285.841078 
L 128.107907 285.841078 
L 128.107907 283.87564 
L 128.411207 283.87564 
L 128.411207 279.944763 
L 128.709321 279.944763 
L 128.709321 278.634471 
L 129.290685 278.634471 
L 129.290685 276.013887 
L 129.853291 276.013887 
L 129.853291 272.738156 
L 130.664567 272.738156 
L 130.664567 270.772718 
L 130.926816 270.772718 
L 130.926816 270.117572 
L 131.185181 270.117572 
L 131.185181 268.807279 
L 131.439773 268.807279 
L 131.439773 268.152133 
L 132.893889 268.152133 
L 132.893889 267.496987 
L 133.800029 267.496987 
L 133.800029 266.841841 
L 136.645276 266.841841 
L 136.645276 264.221257 
L 137.735587 264.221257 
L 137.735587 263.566111 
L 140.64889 263.566111 
L 140.64889 262.910965 
L 140.79731 262.910965 
L 140.79731 262.255818 
L 141.090414 262.255818 
L 141.090414 260.945526 
L 142.215919 260.945526 
L 142.215919 260.29038 
L 143.653678 260.29038 
L 143.653678 259.635234 
L 143.902815 259.635234 
L 143.902815 258.324942 
L 144.629556 258.324942 
L 144.629556 257.669796 
L 146.107383 257.669796 
L 146.107383 255.704357 
L 148.639252 255.704357 
L 148.639252 255.049211 
L 150.172372 255.049211 
L 150.172372 253.738919 
L 159.098062 253.738919 
L 159.098062 253.083773 
L 159.931669 253.083773 
L 159.931669 252.428627 
L 162.453536 252.428627 
L 162.474869 251.118335 
L 163.082425 251.118335 
L 163.082425 250.463189 
L 163.205526 250.463189 
L 163.205526 249.808043 
L 163.348054 249.808043 
L 163.348054 249.152896 
L 163.906798 249.152896 
L 163.906798 248.49775 
L 164.043731 248.49775 
L 164.043731 247.842604 
L 164.410075 247.842604 
L 164.410075 247.187458 
L 164.580957 247.187458 
L 164.580957 245.877166 
L 165.102127 245.877166 
L 165.102127 245.22202 
L 165.925901 245.22202 
L 165.925901 244.566874 
L 166.169082 244.566874 
L 166.203547 243.256582 
L 167.84533 243.256582 
L 167.84533 242.601435 
L 170.674059 242.601435 
L 170.674059 241.946289 
L 172.744386 241.946289 
L 172.744386 241.291143 
L 173.037687 241.291143 
L 173.037687 240.635997 
L 173.800244 240.635997 
L 173.800244 239.980851 
L 174.743137 239.980851 
L 174.816832 238.670559 
L 174.973708 238.670559 
L 174.973708 238.015413 
L 175.283289 238.015413 
L 175.283289 237.360267 
L 175.436043 237.360267 
L 175.436043 236.705121 
L 175.886437 236.705121 
L 175.886437 236.049974 
L 176.257915 236.049974 
L 176.257915 235.394828 
L 176.411991 235.394828 
L 176.431155 234.084536 
L 177.290683 234.084536 
L 177.290683 233.42939 
L 177.749519 233.42939 
L 177.749519 232.774244 
L 178.991731 232.774244 
L 178.991731 232.119098 
L 179.648977 232.119098 
L 179.664896 230.808806 
L 179.815406 230.808806 
L 179.815406 230.15366 
L 180.120337 230.15366 
L 180.120337 229.498513 
L 180.305371 229.498513 
L 180.389527 228.188221 
L 180.796864 228.188221 
L 180.796864 227.533075 
L 181.151123 227.533075 
L 181.151123 226.877929 
L 181.633877 226.877929 
L 181.633877 226.222783 
L 182.041257 226.222783 
L 182.041257 225.567637 
L 182.289409 225.567637 
L 182.289409 224.912491 
L 182.567792 224.912491 
L 182.567792 224.257345 
L 182.74872 224.257345 
L 182.74872 223.602199 
L 182.88154 223.602199 
L 182.954163 222.291906 
L 183.383659 222.291906 
L 183.383659 221.63676 
L 183.664224 221.63676 
L 183.664224 220.981614 
L 184.291671 220.981614 
L 184.38903 217.050738 
L 184.570125 217.050738 
L 184.570125 216.395591 
L 184.749358 216.395591 
L 184.749358 215.740445 
L 185.241629 215.740445 
L 185.241629 215.085299 
L 185.368293 215.085299 
L 185.368293 214.430153 
L 185.810104 214.430153 
L 185.838047 211.809569 
L 186.382296 211.809569 
L 186.382296 211.154423 
L 186.554643 211.154423 
L 186.645515 209.84413 
L 186.815293 209.84413 
L 186.894312 207.878692 
L 187.040861 207.878692 
L 187.040861 207.223546 
L 187.201688 207.223546 
L 187.201688 206.5684 
L 187.46309 206.5684 
L 187.5291 205.258108 
L 187.700569 205.258108 
L 187.700569 204.602962 
L 188.297475 204.602962 
L 188.394199 201.982377 
L 188.681193 201.982377 
L 188.723837 200.672085 
L 188.893381 200.672085 
L 188.977538 199.361793 
L 189.005501 199.361793 
L 189.107648 198.051501 
L 189.351301 198.051501 
L 189.351301 196.741208 
L 189.667976 196.741208 
L 189.667976 196.086062 
L 189.948149 196.086062 
L 189.948149 195.430916 
L 190.062477 195.430916 
L 190.119361 194.120624 
L 190.202166 194.120624 
L 190.275924 192.155186 
L 190.357991 192.155186 
L 190.357991 191.50004 
L 190.48679 191.50004 
L 190.495343 190.189747 
L 191.046612 190.189747 
L 191.046612 189.534601 
L 191.378955 189.534601 
L 191.378955 188.879455 
L 191.540769 188.879455 
L 191.540769 188.224309 
L 191.740946 188.224309 
L 191.768789 186.914017 
L 192.001711 186.914017 
L 192.001711 186.258871 
L 192.169529 186.258871 
L 192.169529 185.603725 
L 192.648397 185.603725 
L 192.648397 184.948579 
L 192.81762 184.948579 
L 192.81762 184.293433 
L 193.1255 184.293433 
L 193.206204 182.327994 
L 193.297461 182.327994 
L 193.402725 179.70741 
L 193.478556 179.70741 
L 193.557646 178.397118 
L 193.675612 178.397118 
L 193.750268 176.431679 
L 193.881033 176.431679 
L 193.881033 175.776533 
L 194.153527 175.776533 
L 194.153527 175.121387 
L 194.445707 175.121387 
L 194.445707 174.466241 
L 194.899924 174.466241 
L 195.002577 173.155949 
L 195.025673 173.155949 
L 195.025673 172.500803 
L 195.193028 172.500803 
L 195.193028 171.845657 
L 195.316688 171.845657 
L 195.316688 171.190511 
L 195.462003 171.190511 
L 195.542213 168.569926 
L 195.953462 168.569926 
L 195.987819 167.259634 
L 196.192551 167.259634 
L 196.247973 165.949342 
L 196.537592 165.949342 
L 196.537592 165.294196 
L 196.67312 165.294196 
L 196.67312 164.63905 
L 197.085219 164.63905 
L 197.187468 163.328757 
L 197.207846 163.328757 
L 197.207846 162.673611 
L 197.439063 162.673611 
L 197.439063 162.018465 
L 197.627536 162.018465 
L 197.726663 159.397881 
L 197.771792 159.397881 
L 197.82523 156.777296 
L 197.992917 156.777296 
L 197.992917 156.12215 
L 198.109346 156.12215 
L 198.186535 154.811858 
L 198.255167 154.811858 
L 198.301683 153.501566 
L 198.508131 153.501566 
L 198.51893 152.191274 
L 198.768124 152.191274 
L 198.768124 151.536128 
L 198.919114 151.536128 
L 198.966525 150.225835 
L 199.418305 150.225835 
L 199.418305 149.570689 
L 199.566334 149.570689 
L 199.581576 147.605251 
L 199.745848 147.605251 
L 199.745848 146.950105 
L 199.921044 146.950105 
L 199.958358 145.639813 
L 200.084631 145.639813 
L 200.18058 144.32952 
L 200.378187 144.32952 
L 200.378187 143.674374 
L 200.513507 143.674374 
L 200.539965 142.364082 
L 200.709779 142.364082 
L 200.750195 141.05379 
L 200.84256 141.05379 
L 200.84256 140.398644 
L 200.979026 140.398644 
L 200.979026 139.743498 
L 201.144638 139.743498 
L 201.188691 138.433206 
L 201.269552 138.433206 
L 201.269552 137.778059 
L 201.393577 137.778059 
L 201.393577 137.122913 
L 201.845397 137.122913 
L 201.845397 136.467767 
L 202.170177 136.467767 
L 202.246622 135.157475 
L 202.359582 135.157475 
L 202.359582 134.502329 
L 202.675011 134.502329 
L 202.675011 133.192037 
L 202.938816 133.192037 
L 202.938816 132.536891 
L 203.387512 132.536891 
L 203.489282 131.226598 
L 203.727131 131.226598 
L 203.79706 129.916306 
L 203.973627 129.916306 
L 204.04061 127.950868 
L 204.22058 127.950868 
L 204.22058 127.295722 
L 204.394858 127.295722 
L 204.394858 126.640576 
L 204.675819 126.640576 
L 204.774133 125.330284 
L 204.905609 125.330284 
L 204.965383 124.019991 
L 205.231863 124.019991 
L 205.231863 123.364845 
L 205.412734 123.364845 
L 205.49795 122.054553 
L 205.668934 122.054553 
L 205.735076 120.089115 
L 205.813407 120.089115 
L 205.813407 119.433969 
L 205.967261 119.433969 
L 206.063829 118.123676 
L 206.415694 118.123676 
L 206.513231 115.503092 
L 206.540511 115.503092 
L 206.540511 114.847946 
L 206.738716 114.847946 
L 206.802609 113.537654 
L 206.891333 113.537654 
L 206.987913 112.227362 
L 207.077354 112.227362 
L 207.077354 111.572215 
L 207.298969 111.572215 
L 207.344583 109.606777 
L 207.446781 109.606777 
L 207.493624 108.296485 
L 207.631802 108.296485 
L 207.631802 107.641339 
L 207.795867 107.641339 
L 207.832293 106.331047 
L 207.958402 106.331047 
L 208.019551 105.020754 
L 208.086725 105.020754 
L 208.086725 104.365608 
L 208.232674 104.365608 
L 208.243494 102.40017 
L 208.755107 102.40017 
L 208.755107 101.745024 
L 209.070355 101.745024 
L 209.151219 100.434732 
L 209.212717 100.434732 
L 209.228788 99.12444 
L 209.378558 99.12444 
L 209.378558 98.469293 
L 209.535663 98.469293 
L 209.575793 97.159001 
L 209.728301 97.159001 
L 209.728301 96.503855 
L 209.949688 96.503855 
L 210.021003 94.538417 
L 210.209763 94.538417 
L 210.296515 93.228125 
L 210.489126 93.228125 
L 210.567742 91.262686 
L 210.624451 91.262686 
L 210.624451 90.60754 
L 211.045305 90.60754 
L 211.1411 89.297248 
L 211.190759 89.297248 
L 211.190759 88.642102 
L 211.496038 88.642102 
L 211.553646 87.33181 
L 211.672104 87.33181 
L 211.746839 86.021518 
L 211.870272 86.021518 
L 211.870272 85.366371 
L 212.12692 85.366371 
L 212.12692 84.711225 
L 212.396902 84.711225 
L 212.42975 82.090641 
L 212.877321 82.090641 
L 212.984792 79.470057 
L 213.068186 79.470057 
L 213.068186 78.81491 
L 213.21753 78.81491 
L 213.21753 78.159764 
L 213.403578 78.159764 
L 213.403578 77.504618 
L 213.553508 77.504618 
L 213.553508 76.849472 
L 213.72813 76.849472 
L 213.833863 75.53918 
L 213.934501 75.53918 
L 213.934501 74.884034 
L 214.526426 74.884034 
L 214.526426 74.228888 
L 214.718286 74.228888 
L 214.790622 72.918596 
L 214.830914 72.918596 
L 214.91333 70.953157 
L 215.019472 70.953157 
L 215.078045 69.642865 
L 215.504056 69.642865 
L 215.504056 68.987719 
L 215.813118 68.987719 
L 215.915928 67.022281 
L 216.157087 67.022281 
L 216.228594 65.711988 
L 216.311487 65.711988 
L 216.311487 65.056842 
L 216.470318 65.056842 
L 216.470318 64.401696 
L 216.684946 64.401696 
L 216.706835 63.091404 
L 216.90637 63.091404 
L 216.90637 62.436258 
L 217.289523 62.436258 
L 217.365704 61.125966 
L 217.66984 61.125966 
L 217.677038 59.815674 
L 217.975839 59.815674 
L 217.975839 59.160527 
L 218.09921 59.160527 
L 218.09921 58.505381 
L 218.332104 58.505381 
L 218.332104 57.850235 
L 218.648933 57.850235 
L 218.648933 57.195089 
L 218.982661 57.195089 
L 218.982661 56.539943 
L 219.198352 56.539943 
L 219.198352 55.884797 
L 219.490233 55.884797 
L 219.490233 55.229651 
L 219.692563 55.229651 
L 219.692563 54.574505 
L 219.880684 54.574505 
L 219.96689 51.95392 
L 220.170035 51.95392 
L 220.170035 51.298774 
L 220.538848 51.298774 
L 220.538848 50.643628 
L 220.902266 50.643628 
L 220.902266 49.988482 
L 221.278035 49.988482 
L 221.286083 48.67819 
L 221.785752 48.67819 
L 221.785752 48.023044 
L 222.302582 48.023044 
L 222.302582 47.367898 
L 222.927465 47.367898 
L 223.037631 45.402459 
L 223.606452 45.402459 
L 223.684398 44.092167 
L 224.197586 44.092167 
L 224.197586 43.437021 
L 224.473318 43.437021 
L 224.480019 41.471583 
L 224.843457 41.471583 
L 224.886946 40.161291 
L 225.347292 40.161291 
L 225.347292 39.506144 
L 225.731294 39.506144 
L 225.731294 38.850998 
L 225.995151 38.850998 
L 226.019702 37.540706 
L 228.013368 37.540706 
L 228.013368 36.88556 
L 228.165881 36.88556 
L 228.165881 36.230414 
L 228.326843 36.230414 
L 228.326843 35.575268 
L 228.881159 35.575268 
L 228.881159 34.920122 
L 229.177685 34.920122 
L 229.177685 34.264976 
L 229.814436 34.264976 
L 229.814436 33.60983 
L 231.424305 33.60983 
L 231.424305 32.954683 
L 233.516124 32.954683 
L 233.516124 32.299537 
L 236.383716 32.299537 
L 236.383716 31.644391 
L 237.587312 31.644391 
L 237.587312 30.989245 
L 241.105603 30.989245 
L 241.105603 30.334099 
L 338.688 30.334099 
L 338.688 30.334099 
" style="fill:none;stroke:#000080;stroke-linecap:square;stroke-width:1.5;"/>
   </g>
   <g id="line2d_31">
    <defs>
     <path d="M 0 6 
C 1.591219 6 3.117479 5.367802 4.242641 4.242641 
C 5.367802 3.117479 6 1.591219 6 0 
C 6 -1.591219 5.367802 -3.117479 4.242641 -4.242641 
C 3.117479 -5.367802 1.591219 -6 0 -6 
C -1.591219 -6 -3.117479 -5.367802 -4.242641 -4.242641 
C -5.367802 -3.117479 -6 -1.591219 -6 0 
C -6 1.591219 -5.367802 3.117479 -4.242641 4.242641 
C -3.117479 5.367802 -1.591219 6 0 6 
z
" id="ma98c5b1a6d" style="stroke:#000080;stroke-width:1.5;"/>
    </defs>
    <g>
     <use style="fill-opacity:0;stroke:#000080;stroke-width:1.5;" x="146.107383" xlink:href="#ma98c5b1a6d" y="255.704357"/>
     <use style="fill-opacity:0;stroke:#000080;stroke-width:1.5;" x="197.439063" xlink:href="#ma98c5b1a6d" y="162.018465"/>
     <use style="fill-opacity:0;stroke:#000080;stroke-width:1.5;" x="216.684946" xlink:href="#ma98c5b1a6d" y="63.74655"/>
     <use style="fill-opacity:0;stroke:#000080;stroke-width:1.5;" x="241.105603" xlink:href="#ma98c5b1a6d" y="30.334099"/>
     <use style="fill-opacity:0;stroke:#000080;stroke-width:1.5;" x="241.105603" xlink:href="#ma98c5b1a6d" y="30.334099"/>
     <use style="fill-opacity:0;stroke:#000080;stroke-width:1.5;" x="338.688" xlink:href="#ma98c5b1a6d" y="30.334099"/>
    </g>
   </g>
   <g id="line2d_32">
    <path style="fill:none;stroke:#000080;stroke-linecap:square;stroke-width:1.5;"/>
    <g/>
   </g>
   <g id="line2d_33">
    <path clip-path="url(#p98234f5959)" d="M 159.807898 253.083773 
" style="fill:none;stroke:#000080;stroke-linecap:square;stroke-width:1.5;"/>
    <defs>
     <path d="M -12 12 
L 12 -12 
M -12 -12 
L 12 12 
" id="m627a30e0f8" style="stroke:#000080;"/>
    </defs>
    <g clip-path="url(#p98234f5959)">
     <use style="fill:#000080;stroke:#000080;" x="159.807898" xlink:href="#m627a30e0f8" y="253.083773"/>
    </g>
   </g>
   <g id="line2d_34">
    <defs>
     <path d="M 0 1.5 
C 0.397805 1.5 0.77937 1.341951 1.06066 1.06066 
C 1.341951 0.77937 1.5 0.397805 1.5 0 
C 1.5 -0.397805 1.341951 -0.77937 1.06066 -1.06066 
C 0.77937 -1.341951 0.397805 -1.5 0 -1.5 
C -0.397805 -1.5 -0.77937 -1.341951 -1.06066 -1.06066 
C -1.341951 -0.77937 -1.5 -0.397805 -1.5 0 
C -1.5 0.397805 -1.341951 0.77937 -1.06066 1.06066 
C -0.77937 1.341951 -0.397805 1.5 0 1.5 
z
" id="m4d22a61b5a" style="stroke:#ff00ff;"/>
    </defs>
    <g>
     <use style="fill:#ff00ff;stroke:#ff00ff;" x="184.255021" xlink:href="#m4d22a61b5a" y="272.738156"/>
     <use style="fill:#ff00ff;stroke:#ff00ff;" x="184.255021" xlink:href="#m4d22a61b5a" y="272.738156"/>
    </g>
   </g>
   <g id="line2d_35">
    <path d="M 45.512012 298.944 
L 45.512012 296.978562 
L 94.921215 296.978562 
L 94.921215 296.323416 
L 110.274038 296.323416 
L 110.274038 295.66827 
L 111.897469 295.66827 
L 111.897469 295.013123 
L 116.323218 295.013123 
L 116.323218 294.357977 
L 117.202696 294.357977 
L 117.202696 293.702831 
L 120.33454 293.702831 
L 120.33454 293.047685 
L 126.50685 293.047685 
L 126.50685 292.392539 
L 127.799239 292.392539 
L 127.799239 291.737393 
L 128.260216 291.737393 
L 128.260216 291.082247 
L 129.574256 291.082247 
L 129.574256 290.427101 
L 130.926816 290.427101 
L 130.926816 289.771955 
L 132.893889 289.771955 
L 132.893889 289.116809 
L 133.689303 289.116809 
L 133.689303 288.461662 
L 134.450015 288.461662 
L 134.450015 287.806516 
L 136.551264 287.806516 
L 136.551264 287.15137 
L 137.016339 287.15137 
L 137.016339 286.496224 
L 141.871938 286.496224 
L 141.871938 285.841078 
L 142.419098 285.841078 
L 142.419098 285.185932 
L 143.40093 285.185932 
L 143.40093 284.530786 
L 143.590833 284.530786 
L 143.590833 283.87564 
L 144.087359 283.87564 
L 144.087359 283.220494 
L 146.324022 283.220494 
L 146.324022 282.565348 
L 146.749392 282.565348 
L 146.749392 281.910201 
L 147.164632 281.910201 
L 147.164632 281.255055 
L 151.818809 281.255055 
L 151.818809 280.599909 
L 151.897188 280.599909 
L 151.897188 279.944763 
L 156.717545 279.944763 
L 156.717545 279.289617 
L 156.776762 279.289617 
L 156.776762 278.634471 
L 157.528821 278.634471 
L 157.528821 277.979325 
L 158.276927 277.979325 
L 158.276927 277.324179 
L 161.054091 277.324179 
L 161.054091 276.669033 
L 164.618704 276.669033 
L 164.618704 276.013887 
L 164.712717 276.013887 
L 164.712717 275.35874 
L 165.157053 275.35874 
L 165.157053 274.703594 
L 166.425924 274.703594 
L 166.425924 274.048448 
L 168.805533 274.048448 
L 168.805533 273.393302 
L 184.255021 273.393302 
L 184.255021 272.738156 
L 338.688 272.738156 
" style="fill:none;stroke:#ff00ff;stroke-linecap:square;stroke-width:1.5;"/>
   </g>
   <g id="line2d_36">
    <defs>
     <path d="M -0 8.485281 
L 5.091169 0 
L 0 -8.485281 
L -5.091169 -0 
z
" id="md155dae765" style="stroke:#ff00ff;stroke-linejoin:miter;stroke-width:1.5;"/>
    </defs>
    <g>
     <use style="fill-opacity:0;stroke:#ff00ff;stroke-linejoin:miter;stroke-width:1.5;" x="134.450015" xlink:href="#md155dae765" y="288.461662"/>
     <use style="fill-opacity:0;stroke:#ff00ff;stroke-linejoin:miter;stroke-width:1.5;" x="184.255021" xlink:href="#md155dae765" y="273.393302"/>
     <use style="fill-opacity:0;stroke:#ff00ff;stroke-linejoin:miter;stroke-width:1.5;" x="184.255021" xlink:href="#md155dae765" y="272.738156"/>
     <use style="fill-opacity:0;stroke:#ff00ff;stroke-linejoin:miter;stroke-width:1.5;" x="184.255021" xlink:href="#md155dae765" y="272.738156"/>
     <use style="fill-opacity:0;stroke:#ff00ff;stroke-linejoin:miter;stroke-width:1.5;" x="184.255021" xlink:href="#md155dae765" y="272.738156"/>
     <use style="fill-opacity:0;stroke:#ff00ff;stroke-linejoin:miter;stroke-width:1.5;" x="338.688" xlink:href="#md155dae765" y="272.738156"/>
    </g>
   </g>
   <g id="line2d_37">
    <path style="fill:none;stroke:#ff00ff;stroke-linecap:square;stroke-width:1.5;"/>
    <g/>
   </g>
   <g id="line2d_38">
    <path clip-path="url(#p98234f5959)" d="M 111.897469 295.013123 
" style="fill:none;stroke:#ff00ff;stroke-linecap:square;stroke-width:1.5;"/>
    <defs>
     <path d="M -12 12 
L 12 -12 
M -12 -12 
L 12 12 
" id="meb66498a63" style="stroke:#ff00ff;"/>
    </defs>
    <g clip-path="url(#p98234f5959)">
     <use style="fill:#ff00ff;stroke:#ff00ff;" x="111.897469" xlink:href="#meb66498a63" y="295.013123"/>
    </g>
   </g>
   <g id="line2d_39">
    <defs>
     <path d="M 0 1.5 
C 0.397805 1.5 0.77937 1.341951 1.06066 1.06066 
C 1.341951 0.77937 1.5 0.397805 1.5 0 
C 1.5 -0.397805 1.341951 -0.77937 1.06066 -1.06066 
C 0.77937 -1.341951 0.397805 -1.5 0 -1.5 
C -0.397805 -1.5 -0.77937 -1.341951 -1.06066 -1.06066 
C -1.341951 -0.77937 -1.5 -0.397805 -1.5 0 
C -1.5 0.397805 -1.341951 0.77937 -1.06066 1.06066 
C -0.77937 1.341951 -0.397805 1.5 0 1.5 
z
" id="m9f819b278c" style="stroke:#ff7500;"/>
    </defs>
    <g>
     <use style="fill:#ff7500;stroke:#ff7500;" x="238.96421" xlink:href="#m9f819b278c" y="30.334099"/>
     <use style="fill:#ff7500;stroke:#ff7500;" x="238.96421" xlink:href="#m9f819b278c" y="30.334099"/>
    </g>
   </g>
   <g id="line2d_40">
    <path d="M 45.512012 298.944 
L 45.512012 296.978562 
L 94.921215 296.978562 
L 94.921215 296.323416 
L 111.897469 296.323416 
L 111.897469 295.66827 
L 128.411207 295.66827 
L 128.411207 295.013123 
L 128.856489 295.013123 
L 128.856489 293.702831 
L 129.147151 293.702831 
L 129.147151 293.047685 
L 130.263646 293.047685 
L 130.263646 292.392539 
L 130.926816 292.392539 
L 130.926816 290.427101 
L 131.439773 290.427101 
L 131.439773 287.15137 
L 131.690703 287.15137 
L 131.690703 286.496224 
L 132.30267 286.496224 
L 132.30267 285.185932 
L 133.46572 285.185932 
L 133.46572 284.530786 
L 134.019394 284.530786 
L 134.019394 283.220494 
L 134.236034 283.220494 
L 134.236034 282.565348 
L 134.450015 282.565348 
L 134.450015 281.910201 
L 134.661403 281.910201 
L 134.661403 281.255055 
L 135.178927 281.255055 
L 135.178927 280.599909 
L 135.582166 280.599909 
L 135.582166 278.634471 
L 135.780341 278.634471 
L 135.780341 277.324179 
L 136.170062 277.324179 
L 136.170062 276.669033 
L 137.016339 276.669033 
L 137.016339 276.013887 
L 137.647286 276.013887 
L 137.647286 274.703594 
L 139.413734 274.703594 
L 139.413734 274.048448 
L 139.8092 274.048448 
L 139.8092 272.738156 
L 140.11924 272.738156 
L 140.11924 272.08301 
L 142.010346 272.08301 
L 142.010346 270.772718 
L 142.147664 270.772718 
L 142.147664 270.117572 
L 143.464461 270.117572 
L 143.464461 269.462426 
L 144.087359 269.462426 
L 144.087359 268.807279 
L 144.390658 268.807279 
L 144.390658 268.152133 
L 145.039911 268.152133 
L 145.039911 267.496987 
L 147.4697 267.496987 
L 147.4697 266.841841 
L 147.917524 266.841841 
L 147.917524 266.186695 
L 148.54473 266.186695 
L 148.639252 264.876403 
L 149.15016 264.876403 
L 149.15016 264.221257 
L 150.085825 264.221257 
L 150.085825 263.566111 
L 150.301393 263.566111 
L 150.301393 262.910965 
L 150.556607 262.910965 
L 150.556607 262.255818 
L 151.015013 262.255818 
L 151.015013 261.600672 
L 152.624728 261.600672 
L 152.699575 258.980088 
L 152.959038 258.980088 
L 152.959038 258.324942 
L 154.906477 258.324942 
L 154.906477 257.01465 
L 155.741666 257.01465 
L 155.741666 256.359504 
L 156.478647 256.359504 
L 156.478647 253.738919 
L 157.443681 253.738919 
L 157.500487 252.428627 
L 157.613546 252.428627 
L 157.613546 251.118335 
L 159.072168 251.118335 
L 159.072168 250.463189 
L 159.956318 250.463189 
L 159.956318 249.808043 
L 162.559939 249.808043 
L 162.602318 248.49775 
L 163.388564 248.49775 
L 163.388564 247.842604 
L 163.748975 247.842604 
L 163.748975 247.187458 
L 164.562052 247.187458 
L 164.562052 246.532312 
L 165.157053 246.532312 
L 165.157053 245.877166 
L 165.838222 245.877166 
L 165.838222 245.22202 
L 166.220754 245.22202 
L 166.220754 244.566874 
L 166.895472 244.566874 
L 166.895472 243.911728 
L 167.545055 243.911728 
L 167.545055 243.256582 
L 168.125111 243.256582 
L 168.125111 242.601435 
L 168.521475 242.601435 
L 168.521475 241.946289 
L 168.86475 241.946289 
L 168.894283 239.980851 
L 169.099626 239.980851 
L 169.172381 238.670559 
L 169.574291 238.670559 
L 169.574291 238.015413 
L 169.855803 238.015413 
L 169.855803 237.360267 
L 170.872762 237.360267 
L 170.885928 236.049974 
L 171.93311 236.049974 
L 171.93311 235.394828 
L 172.696997 235.394828 
L 172.779844 234.084536 
L 173.451559 234.084536 
L 173.451559 233.42939 
L 173.722116 233.42939 
L 173.722116 232.774244 
L 173.900183 232.774244 
L 173.900183 232.119098 
L 174.879752 232.119098 
L 174.952873 230.808806 
L 175.149812 230.808806 
L 175.149812 230.15366 
L 175.547218 230.15366 
L 175.547218 229.498513 
L 175.767465 229.498513 
L 175.767465 228.843367 
L 175.886437 228.843367 
L 175.886437 228.188221 
L 176.082938 228.188221 
L 176.082938 227.533075 
L 176.24824 227.533075 
L 176.24824 226.877929 
L 176.659495 226.877929 
L 176.659495 226.222783 
L 176.866214 226.222783 
L 176.912855 224.257345 
L 176.996497 224.257345 
L 177.024289 222.947052 
L 177.50811 222.947052 
L 177.50811 222.291906 
L 178.471368 222.291906 
L 178.471368 221.63676 
L 178.89222 221.63676 
L 178.89222 220.981614 
L 179.024776 220.981614 
L 179.123536 219.671322 
L 179.521099 219.671322 
L 179.521099 219.016176 
L 179.995881 219.016176 
L 179.995881 218.36103 
L 180.243911 218.36103 
L 180.313038 216.395591 
L 180.526366 216.395591 
L 180.571741 215.085299 
L 180.699667 215.085299 
L 180.699667 214.430153 
L 180.945347 214.430153 
L 180.945347 213.775007 
L 181.274884 213.775007 
L 181.274884 213.119861 
L 181.747212 213.119861 
L 181.81064 211.154423 
L 181.999553 211.154423 
L 182.062072 209.84413 
L 182.145083 209.84413 
L 182.193325 208.533838 
L 182.53408 208.533838 
L 182.53408 207.878692 
L 182.762047 207.878692 
L 182.762047 207.223546 
L 183.150701 207.223546 
L 183.150701 206.5684 
L 183.383659 206.5684 
L 183.460626 205.258108 
L 183.68319 205.258108 
L 183.739965 203.947816 
L 184.867832 203.947816 
L 184.938532 201.327231 
L 185.183749 201.327231 
L 185.276265 200.016939 
L 185.305076 200.016939 
L 185.305076 199.361793 
L 185.954922 199.361793 
L 185.993706 198.051501 
L 186.862747 198.051501 
L 186.936309 196.086062 
L 187.18102 196.086062 
L 187.18102 195.430916 
L 187.335442 195.430916 
L 187.427443 194.120624 
L 187.569598 194.120624 
L 187.569598 193.465478 
L 187.725644 193.465478 
L 187.725644 192.810332 
L 188.581281 192.810332 
L 188.62893 191.50004 
L 188.775817 191.50004 
L 188.832347 190.189747 
L 189.047361 190.189747 
L 189.047361 189.534601 
L 189.487724 189.534601 
L 189.487724 188.879455 
L 189.948149 188.879455 
L 189.965787 187.569163 
L 190.245591 187.569163 
L 190.323484 186.258871 
L 190.555096 186.258871 
L 190.580642 184.948579 
L 190.728918 184.948579 
L 190.817282 182.98314 
L 190.846637 182.98314 
L 190.846637 182.327994 
L 190.959405 182.327994 
L 190.959405 181.672848 
L 191.24432 181.672848 
L 191.24432 181.017702 
L 191.693113 181.017702 
L 191.693113 180.362556 
L 191.867864 180.362556 
L 191.91128 179.052264 
L 192.01739 179.052264 
L 192.095575 177.741972 
L 192.146209 177.741972 
L 192.20445 175.776533 
L 192.549869 175.776533 
L 192.648397 173.811095 
L 192.727572 173.811095 
L 192.727572 173.155949 
L 192.866203 173.155949 
L 192.866203 172.500803 
L 193.409962 172.500803 
L 193.409962 171.845657 
L 193.799862 171.845657 
L 193.842259 170.535364 
L 194.035271 170.535364 
L 194.094499 169.225072 
L 194.257209 169.225072 
L 194.257209 168.569926 
L 194.442298 168.569926 
L 194.45593 167.259634 
L 194.662515 167.259634 
L 194.662515 166.604488 
L 194.926473 166.604488 
L 194.926473 165.949342 
L 195.235432 165.949342 
L 195.332894 164.63905 
L 195.471648 164.63905 
L 195.503759 162.673611 
L 195.622056 162.673611 
L 195.622056 162.018465 
L 195.843692 162.018465 
L 195.843692 161.363319 
L 195.962839 161.363319 
L 195.962839 160.708173 
L 196.321595 160.708173 
L 196.321595 160.053027 
L 196.516415 160.053027 
L 196.516415 159.397881 
L 196.688114 159.397881 
L 196.688114 158.742735 
L 196.955821 158.742735 
L 197.052959 157.432442 
L 197.234012 157.432442 
L 197.234012 156.777296 
L 197.749242 156.777296 
L 197.749242 156.12215 
L 198.225002 156.12215 
L 198.225002 155.467004 
L 198.656025 155.467004 
L 198.701485 154.156712 
L 198.826556 154.156712 
L 198.905922 152.84642 
L 199.034781 152.84642 
L 199.074038 151.536128 
L 199.219821 151.536128 
L 199.219821 150.880981 
L 199.500131 150.880981 
L 199.556165 149.570689 
L 199.68285 149.570689 
L 199.725714 148.260397 
L 199.975743 148.260397 
L 200.003029 146.950105 
L 200.202647 146.950105 
L 200.202647 146.294959 
L 200.443562 146.294959 
L 200.5111 144.984667 
L 200.90622 144.984667 
L 200.90622 144.32952 
L 201.025836 144.32952 
L 201.123732 142.364082 
L 201.228013 142.364082 
L 201.251102 141.05379 
L 201.903283 141.05379 
L 201.980905 139.743498 
L 202.018482 139.743498 
L 202.06479 137.778059 
L 202.342251 137.778059 
L 202.426578 136.467767 
L 202.670757 136.467767 
L 202.749279 134.502329 
L 202.848516 134.502329 
L 202.848516 133.847183 
L 203.068197 133.847183 
L 203.165641 132.536891 
L 203.283091 132.536891 
L 203.324115 131.226598 
L 203.65491 131.226598 
L 203.727131 129.916306 
L 203.805034 129.916306 
L 203.805034 129.26116 
L 203.938061 129.26116 
L 203.938061 128.606014 
L 204.050439 128.606014 
L 204.152332 126.640576 
L 204.542592 126.640576 
L 204.576948 124.675137 
L 204.715589 124.675137 
L 204.798625 122.709699 
L 205.021237 122.709699 
L 205.089877 120.744261 
L 205.230027 120.744261 
L 205.274051 119.433969 
L 205.358123 119.433969 
L 205.358123 118.778823 
L 205.6241 118.778823 
L 205.6241 118.123676 
L 206.32796 118.123676 
L 206.420841 116.813384 
L 206.664442 116.813384 
L 206.664442 116.158238 
L 206.996213 116.158238 
L 207.069091 114.847946 
L 207.269583 114.847946 
L 207.269583 114.1928 
L 207.588539 114.1928 
L 207.643001 112.882508 
L 207.74029 112.882508 
L 207.74029 112.227362 
L 208.178474 112.227362 
L 208.209466 110.917069 
L 208.328274 110.917069 
L 208.42947 109.606777 
L 208.643712 109.606777 
L 208.696488 108.296485 
L 208.762608 108.296485 
L 208.776102 105.675901 
L 208.96541 105.675901 
L 208.96541 105.020754 
L 209.647224 105.020754 
L 209.691365 103.710462 
L 209.93567 103.710462 
L 209.93567 103.055316 
L 210.164148 103.055316 
L 210.263517 101.089878 
L 210.334934 101.089878 
L 210.411518 99.12444 
L 210.456491 99.12444 
L 210.490484 97.814147 
L 210.913218 97.814147 
L 211.00974 95.848709 
L 211.190759 95.848709 
L 211.270179 94.538417 
L 211.309106 94.538417 
L 211.309106 93.883271 
L 211.553646 93.883271 
L 211.637795 92.572979 
L 212.047588 92.572979 
L 212.047588 91.917832 
L 212.485572 91.917832 
L 212.576203 90.60754 
L 212.609919 90.60754 
L 212.609919 89.952394 
L 212.809664 89.952394 
L 212.809664 89.297248 
L 212.93173 89.297248 
L 212.93173 88.642102 
L 213.210558 88.642102 
L 213.291725 87.33181 
L 213.838348 87.33181 
L 213.908837 86.021518 
L 214.350948 86.021518 
L 214.405296 84.711225 
L 214.539354 84.711225 
L 214.64993 81.435495 
L 215.047737 81.435495 
L 215.047737 80.780349 
L 215.468355 80.780349 
L 215.563059 78.81491 
L 215.580315 78.81491 
L 215.63906 77.504618 
L 215.750938 77.504618 
L 215.750938 76.849472 
L 215.883055 76.849472 
L 215.887043 75.53918 
L 216.122699 75.53918 
L 216.122699 74.884034 
L 216.677326 74.884034 
L 216.677326 74.228888 
L 216.801686 74.228888 
L 216.801686 73.573742 
L 217.141724 73.573742 
L 217.147289 72.263449 
L 217.572368 72.263449 
L 217.572368 71.608303 
L 217.815034 71.608303 
L 217.815034 70.953157 
L 217.956373 70.953157 
L 217.956373 70.298011 
L 218.459871 70.298011 
L 218.480502 68.987719 
L 218.626796 68.987719 
L 218.626796 68.332573 
L 218.776942 68.332573 
L 218.789607 67.022281 
L 218.996011 67.022281 
L 218.996011 66.367135 
L 219.206595 66.367135 
L 219.206595 65.711988 
L 219.347765 65.711988 
L 219.347765 65.056842 
L 219.710987 65.056842 
L 219.82112 63.091404 
L 219.98345 63.091404 
L 219.98345 62.436258 
L 220.173154 62.436258 
L 220.173154 61.781112 
L 220.334573 61.781112 
L 220.404726 59.160527 
L 220.48226 59.160527 
L 220.518987 57.850235 
L 220.715837 57.850235 
L 220.715837 57.195089 
L 220.892543 57.195089 
L 220.892543 56.539943 
L 221.206907 56.539943 
L 221.206907 55.884797 
L 221.44409 55.884797 
L 221.534462 53.919359 
L 221.661634 53.919359 
L 221.661634 53.264213 
L 221.812741 53.264213 
L 221.812741 52.609066 
L 222.08665 52.609066 
L 222.08665 51.95392 
L 222.854747 51.95392 
L 222.892145 50.643628 
L 223.050196 50.643628 
L 223.050196 49.988482 
L 223.560288 49.988482 
L 223.601969 48.67819 
L 223.737863 48.67819 
L 223.830403 46.712752 
L 223.973942 46.712752 
L 223.973942 46.057605 
L 224.111334 46.057605 
L 224.111334 45.402459 
L 224.385974 45.402459 
L 224.385974 44.747313 
L 224.553558 44.747313 
L 224.553558 44.092167 
L 225.256073 44.092167 
L 225.256073 43.437021 
L 225.459929 43.437021 
L 225.459929 42.781875 
L 225.747159 42.781875 
L 225.747159 42.126729 
L 226.131416 42.126729 
L 226.131416 41.471583 
L 226.43077 41.471583 
L 226.434037 40.161291 
L 226.849924 40.161291 
L 226.849924 39.506144 
L 227.31006 39.506144 
L 227.31006 38.850998 
L 227.900606 38.850998 
L 227.959074 37.540706 
L 228.998119 37.540706 
L 228.998119 36.88556 
L 229.560517 36.88556 
L 229.560517 36.230414 
L 229.889629 36.230414 
L 229.939578 34.920122 
L 230.336713 34.920122 
L 230.336713 34.264976 
L 231.247547 34.264976 
L 231.247547 33.60983 
L 232.327676 33.60983 
L 232.327676 32.954683 
L 235.152391 32.954683 
L 235.152391 32.299537 
L 235.326889 32.299537 
L 235.326889 31.644391 
L 236.400019 31.644391 
L 236.400019 30.989245 
L 238.96421 30.989245 
L 238.96421 30.334099 
L 338.688 30.334099 
L 338.688 30.334099 
" style="fill:none;stroke:#ff7500;stroke-linecap:square;stroke-width:1.5;"/>
   </g>
   <g id="line2d_41">
    <defs>
     <path d="M 0 -6 
L -1.347084 -1.854102 
L -5.706339 -1.854102 
L -2.179628 0.708204 
L -3.526712 4.854102 
L -0 2.291796 
L 3.526712 4.854102 
L 2.179628 0.708204 
L 5.706339 -1.854102 
L 1.347084 -1.854102 
z
" id="m421500ecae" style="stroke:#ff7500;stroke-linejoin:bevel;stroke-width:1.5;"/>
    </defs>
    <g>
     <use style="fill-opacity:0;stroke:#ff7500;stroke-linejoin:bevel;stroke-width:1.5;" x="150.556607" xlink:href="#m421500ecae" y="262.255818"/>
     <use style="fill-opacity:0;stroke:#ff7500;stroke-linejoin:bevel;stroke-width:1.5;" x="202.749279" xlink:href="#m421500ecae" y="135.157475"/>
     <use style="fill-opacity:0;stroke:#ff7500;stroke-linejoin:bevel;stroke-width:1.5;" x="238.96421" xlink:href="#m421500ecae" y="30.989245"/>
     <use style="fill-opacity:0;stroke:#ff7500;stroke-linejoin:bevel;stroke-width:1.5;" x="238.96421" xlink:href="#m421500ecae" y="30.334099"/>
     <use style="fill-opacity:0;stroke:#ff7500;stroke-linejoin:bevel;stroke-width:1.5;" x="238.96421" xlink:href="#m421500ecae" y="30.334099"/>
     <use style="fill-opacity:0;stroke:#ff7500;stroke-linejoin:bevel;stroke-width:1.5;" x="338.688" xlink:href="#m421500ecae" y="30.334099"/>
    </g>
   </g>
   <g id="line2d_42">
    <path style="fill:none;stroke:#ff7500;stroke-linecap:square;stroke-width:1.5;"/>
    <g/>
   </g>
   <g id="line2d_43">
    <path clip-path="url(#p98234f5959)" d="M 158.438903 251.118335 
" style="fill:none;stroke:#ff7500;stroke-linecap:square;stroke-width:1.5;"/>
    <defs>
     <path d="M -12 12 
L 12 -12 
M -12 -12 
L 12 12 
" id="maf3d380e71" style="stroke:#ff7500;"/>
    </defs>
    <g clip-path="url(#p98234f5959)">
     <use style="fill:#ff7500;stroke:#ff7500;" x="158.438903" xlink:href="#maf3d380e71" y="251.118335"/>
    </g>
   </g>
   <g id="line2d_44">
    <defs>
     <path d="M 0 1.5 
C 0.397805 1.5 0.77937 1.341951 1.06066 1.06066 
C 1.341951 0.77937 1.5 0.397805 1.5 0 
C 1.5 -0.397805 1.341951 -0.77937 1.06066 -1.06066 
C 0.77937 -1.341951 0.397805 -1.5 0 -1.5 
C -0.397805 -1.5 -0.77937 -1.341951 -1.06066 -1.06066 
C -1.341951 -0.77937 -1.5 -0.397805 -1.5 0 
C -1.5 0.397805 -1.341951 0.77937 -1.06066 1.06066 
C -0.77937 1.341951 -0.397805 1.5 0 1.5 
z
" id="m61f30ea6c8" style="stroke:#6495ed;"/>
    </defs>
    <g>
     <use style="fill:#6495ed;stroke:#6495ed;" x="179.553156" xlink:href="#m61f30ea6c8" y="266.186695"/>
     <use style="fill:#6495ed;stroke:#6495ed;" x="179.553156" xlink:href="#m61f30ea6c8" y="266.186695"/>
    </g>
   </g>
   <g id="line2d_45">
    <path d="M 45.512012 298.944 
L 45.512012 296.978562 
L 97.755429 296.978562 
L 97.755429 296.323416 
L 102.330873 296.323416 
L 102.330873 295.66827 
L 104.23523 295.66827 
L 104.23523 295.013123 
L 108.006005 295.013123 
L 108.006005 294.357977 
L 113.73488 294.357977 
L 113.73488 293.702831 
L 118.576578 293.702831 
L 118.576578 293.047685 
L 121.489881 293.047685 
L 121.489881 292.392539 
L 122.573415 292.392539 
L 122.573415 291.737393 
L 125.291682 291.737393 
L 125.291682 291.082247 
L 131.814826 291.082247 
L 131.814826 290.427101 
L 133.910056 290.427101 
L 133.910056 289.771955 
L 134.55603 289.771955 
L 134.55603 289.116809 
L 136.645276 289.116809 
L 136.645276 288.461662 
L 137.198951 288.461662 
L 137.198951 287.806516 
L 137.647286 287.806516 
L 137.647286 287.15137 
L 138.67848 287.15137 
L 138.67848 285.841078 
L 141.732423 285.841078 
L 141.732423 285.185932 
L 145.212864 285.185932 
L 145.212864 284.530786 
L 145.384119 284.530786 
L 145.384119 283.87564 
L 145.998045 283.87564 
L 145.998045 283.220494 
L 146.161795 283.220494 
L 146.161795 282.565348 
L 146.324022 282.565348 
L 146.324022 281.910201 
L 147.164632 281.910201 
L 147.164632 281.255055 
L 148.639252 281.255055 
L 148.639252 280.599909 
L 152.283884 280.599909 
L 152.283884 279.944763 
L 154.707925 279.944763 
L 154.707925 279.289617 
L 155.264719 279.289617 
L 155.264719 278.634471 
L 156.598505 278.634471 
L 156.598505 277.979325 
L 157.185742 277.979325 
L 157.185742 277.324179 
L 157.893028 277.324179 
L 157.893028 276.669033 
L 158.915995 276.669033 
L 158.915995 276.013887 
L 159.123917 276.013887 
L 159.123917 275.35874 
L 159.882266 275.35874 
L 159.882266 274.703594 
L 160.914762 274.703594 
L 160.914762 274.048448 
L 162.152109 274.048448 
L 162.152109 273.393302 
L 162.453536 273.393302 
L 162.453536 272.738156 
L 163.609699 272.738156 
L 163.609699 272.08301 
L 163.867476 272.08301 
L 163.867476 271.427864 
L 166.047915 271.427864 
L 166.047915 270.772718 
L 167.672117 270.772718 
L 167.672117 270.117572 
L 168.155922 270.117572 
L 168.155922 269.462426 
L 168.909031 269.462426 
L 168.909031 268.807279 
L 170.187727 268.807279 
L 170.187727 268.152133 
L 177.426892 268.152133 
L 177.426892 267.496987 
L 178.640929 267.496987 
L 178.640929 266.841841 
L 179.553156 266.841841 
L 179.553156 266.186695 
L 338.688 266.186695 
" style="fill:none;stroke:#6495ed;stroke-linecap:square;stroke-width:1.5;"/>
   </g>
   <g id="line2d_46">
    <defs>
     <path d="M -0 6 
L 6 -6 
L -6 -6 
z
" id="m8a46ead2b9" style="stroke:#6495ed;stroke-linejoin:miter;stroke-width:1.5;"/>
    </defs>
    <g>
     <use style="fill-opacity:0;stroke:#6495ed;stroke-linejoin:miter;stroke-width:1.5;" x="113.73488" xlink:href="#m8a46ead2b9" y="293.702831"/>
     <use style="fill-opacity:0;stroke:#6495ed;stroke-linejoin:miter;stroke-width:1.5;" x="170.187727" xlink:href="#m8a46ead2b9" y="268.807279"/>
     <use style="fill-opacity:0;stroke:#6495ed;stroke-linejoin:miter;stroke-width:1.5;" x="179.553156" xlink:href="#m8a46ead2b9" y="266.841841"/>
     <use style="fill-opacity:0;stroke:#6495ed;stroke-linejoin:miter;stroke-width:1.5;" x="179.553156" xlink:href="#m8a46ead2b9" y="266.186695"/>
     <use style="fill-opacity:0;stroke:#6495ed;stroke-linejoin:miter;stroke-width:1.5;" x="179.553156" xlink:href="#m8a46ead2b9" y="266.186695"/>
     <use style="fill-opacity:0;stroke:#6495ed;stroke-linejoin:miter;stroke-width:1.5;" x="338.688" xlink:href="#m8a46ead2b9" y="266.186695"/>
    </g>
   </g>
   <g id="line2d_47">
    <path style="fill:none;stroke:#6495ed;stroke-linecap:square;stroke-width:1.5;"/>
    <g/>
   </g>
   <g id="line2d_48">
    <path clip-path="url(#p98234f5959)" d="M 108.948899 294.357977 
" style="fill:none;stroke:#6495ed;stroke-linecap:square;stroke-width:1.5;"/>
    <defs>
     <path d="M -12 12 
L 12 -12 
M -12 -12 
L 12 12 
" id="md4470ae04d" style="stroke:#6495ed;"/>
    </defs>
    <g clip-path="url(#p98234f5959)">
     <use style="fill:#6495ed;stroke:#6495ed;" x="108.948899" xlink:href="#md4470ae04d" y="294.357977"/>
    </g>
   </g>
   <g id="line2d_49">
    <path d="M 338.688 272.738156 
L 369.60768 293.571802 
" style="fill:none;stroke:#ff00ff;stroke-linecap:square;stroke-width:1.5;"/>
    <g>
     <use style="fill-opacity:0;stroke:#ff00ff;stroke-linejoin:miter;stroke-width:1.5;" x="338.688" xlink:href="#md155dae765" y="272.738156"/>
     <use style="fill-opacity:0;stroke:#ff00ff;stroke-linejoin:miter;stroke-width:1.5;" x="369.60768" xlink:href="#md155dae765" y="293.571802"/>
    </g>
   </g>
   <g id="line2d_50">
    <path d="M 338.688 266.186695 
L 369.60768 207.616634 
" style="fill:none;stroke:#6495ed;stroke-linecap:square;stroke-width:1.5;"/>
    <g>
     <use style="fill-opacity:0;stroke:#6495ed;stroke-linejoin:miter;stroke-width:1.5;" x="338.688" xlink:href="#m8a46ead2b9" y="266.186695"/>
     <use style="fill-opacity:0;stroke:#6495ed;stroke-linejoin:miter;stroke-width:1.5;" x="369.60768" xlink:href="#m8a46ead2b9" y="207.616634"/>
    </g>
   </g>
   <g id="line2d_51">
    <path d="M 338.688 30.334099 
L 369.60768 121.661465 
" style="fill:none;stroke:#000080;stroke-linecap:square;stroke-width:1.5;"/>
    <g>
     <use style="fill-opacity:0;stroke:#000080;stroke-width:1.5;" x="338.688" xlink:href="#ma98c5b1a6d" y="30.334099"/>
     <use style="fill-opacity:0;stroke:#000080;stroke-width:1.5;" x="369.60768" xlink:href="#ma98c5b1a6d" y="121.661465"/>
    </g>
   </g>
   <g id="line2d_52">
    <path d="M 338.688 30.334099 
L 369.60768 35.706297 
" style="fill:none;stroke:#ff7500;stroke-linecap:square;stroke-width:1.5;"/>
    <g>
     <use style="fill-opacity:0;stroke:#ff7500;stroke-linejoin:bevel;stroke-width:1.5;" x="338.688" xlink:href="#m421500ecae" y="30.334099"/>
     <use style="fill-opacity:0;stroke:#ff7500;stroke-linejoin:bevel;stroke-width:1.5;" x="369.60768" xlink:href="#m421500ecae" y="35.706297"/>
    </g>
   </g>
   <g id="line2d_53">
    <path d="M 338.688 298.944 
L 338.688 30.334099 
" style="fill:none;stroke:#000000;stroke-linecap:square;stroke-width:1.5;"/>
   </g>
   <g id="patch_3">
    <path d="M 57.6 298.944 
L 57.6 27.648 
" style="fill:none;stroke:#000000;stroke-linecap:square;stroke-linejoin:miter;stroke-width:0.8;"/>
   </g>
   <g id="patch_4">
    <path d="M 338.688 298.944 
L 338.688 27.648 
" style="fill:none;stroke:#000000;stroke-linecap:square;stroke-linejoin:miter;stroke-width:0.8;"/>
   </g>
   <g id="patch_5">
    <path d="M 57.6 298.944 
L 338.688 298.944 
" style="fill:none;stroke:#000000;stroke-linecap:square;stroke-linejoin:miter;stroke-width:0.8;"/>
   </g>
   <g id="patch_6">
    <path d="M 57.6 27.648 
L 338.688 27.648 
" style="fill:none;stroke:#000000;stroke-linecap:square;stroke-linejoin:miter;stroke-width:0.8;"/>
   </g>
   <g id="text_13">
    <!-- cobyla -->
    <g transform="translate(375.22944 298.262739)scale(0.17 -0.17)">
     <defs>
      <path d="M 48.6875 27.296875 
Q 48.6875 37.203125 44.609375 42.84375 
Q 40.53125 48.484375 33.40625 48.484375 
Q 26.265625 48.484375 22.1875 42.84375 
Q 18.109375 37.203125 18.109375 27.296875 
Q 18.109375 17.390625 22.1875 11.75 
Q 26.265625 6.109375 33.40625 6.109375 
Q 40.53125 6.109375 44.609375 11.75 
Q 48.6875 17.390625 48.6875 27.296875 
z
M 18.109375 46.390625 
Q 20.953125 51.265625 25.265625 53.625 
Q 29.59375 56 35.59375 56 
Q 45.5625 56 51.78125 48.09375 
Q 58.015625 40.1875 58.015625 27.296875 
Q 58.015625 14.40625 51.78125 6.484375 
Q 45.5625 -1.421875 35.59375 -1.421875 
Q 29.59375 -1.421875 25.265625 0.953125 
Q 20.953125 3.328125 18.109375 8.203125 
L 18.109375 0 
L 9.078125 0 
L 9.078125 75.984375 
L 18.109375 75.984375 
z
" id="DejaVuSans-98"/>
      <path d="M 32.171875 -5.078125 
Q 28.375 -14.84375 24.75 -17.8125 
Q 21.140625 -20.796875 15.09375 -20.796875 
L 7.90625 -20.796875 
L 7.90625 -13.28125 
L 13.1875 -13.28125 
Q 16.890625 -13.28125 18.9375 -11.515625 
Q 21 -9.765625 23.484375 -3.21875 
L 25.09375 0.875 
L 2.984375 54.6875 
L 12.5 54.6875 
L 29.59375 11.921875 
L 46.6875 54.6875 
L 56.203125 54.6875 
z
" id="DejaVuSans-121"/>
     </defs>
     <use xlink:href="#DejaVuSans-99"/>
     <use x="54.980469" xlink:href="#DejaVuSans-111"/>
     <use x="116.162109" xlink:href="#DejaVuSans-98"/>
     <use x="179.638672" xlink:href="#DejaVuSans-121"/>
     <use x="238.818359" xlink:href="#DejaVuSans-108"/>
     <use x="266.601562" xlink:href="#DejaVuSans-97"/>
    </g>
   </g>
   <g id="text_14">
    <!-- slsqp -->
    <g transform="translate(375.22944 212.307571)scale(0.17 -0.17)">
     <defs>
      <path d="M 14.796875 27.296875 
Q 14.796875 17.390625 18.875 11.75 
Q 22.953125 6.109375 30.078125 6.109375 
Q 37.203125 6.109375 41.296875 11.75 
Q 45.40625 17.390625 45.40625 27.296875 
Q 45.40625 37.203125 41.296875 42.84375 
Q 37.203125 48.484375 30.078125 48.484375 
Q 22.953125 48.484375 18.875 42.84375 
Q 14.796875 37.203125 14.796875 27.296875 
z
M 45.40625 8.203125 
Q 42.578125 3.328125 38.25 0.953125 
Q 33.9375 -1.421875 27.875 -1.421875 
Q 17.96875 -1.421875 11.734375 6.484375 
Q 5.515625 14.40625 5.515625 27.296875 
Q 5.515625 40.1875 11.734375 48.09375 
Q 17.96875 56 27.875 56 
Q 33.9375 56 38.25 53.625 
Q 42.578125 51.265625 45.40625 46.390625 
L 45.40625 54.6875 
L 54.390625 54.6875 
L 54.390625 -20.796875 
L 45.40625 -20.796875 
z
" id="DejaVuSans-113"/>
     </defs>
     <use xlink:href="#DejaVuSans-115"/>
     <use x="52.099609" xlink:href="#DejaVuSans-108"/>
     <use x="79.882812" xlink:href="#DejaVuSans-115"/>
     <use x="131.982422" xlink:href="#DejaVuSans-113"/>
     <use x="195.458984" xlink:href="#DejaVuSans-112"/>
    </g>
   </g>
   <g id="text_15">
    <!-- alN5 -->
    <g transform="translate(375.22944 126.352403)scale(0.17 -0.17)">
     <defs>
      <path d="M 9.8125 72.90625 
L 23.09375 72.90625 
L 55.421875 11.921875 
L 55.421875 72.90625 
L 64.984375 72.90625 
L 64.984375 0 
L 51.703125 0 
L 19.390625 60.984375 
L 19.390625 0 
L 9.8125 0 
z
" id="DejaVuSans-78"/>
      <path d="M 10.796875 72.90625 
L 49.515625 72.90625 
L 49.515625 64.59375 
L 19.828125 64.59375 
L 19.828125 46.734375 
Q 21.96875 47.46875 24.109375 47.828125 
Q 26.265625 48.1875 28.421875 48.1875 
Q 40.625 48.1875 47.75 41.5 
Q 54.890625 34.8125 54.890625 23.390625 
Q 54.890625 11.625 47.5625 5.09375 
Q 40.234375 -1.421875 26.90625 -1.421875 
Q 22.3125 -1.421875 17.546875 -0.640625 
Q 12.796875 0.140625 7.71875 1.703125 
L 7.71875 11.625 
Q 12.109375 9.234375 16.796875 8.0625 
Q 21.484375 6.890625 26.703125 6.890625 
Q 35.15625 6.890625 40.078125 11.328125 
Q 45.015625 15.765625 45.015625 23.390625 
Q 45.015625 31 40.078125 35.4375 
Q 35.15625 39.890625 26.703125 39.890625 
Q 22.75 39.890625 18.8125 39.015625 
Q 14.890625 38.140625 10.796875 36.28125 
z
" id="DejaVuSans-53"/>
     </defs>
     <use xlink:href="#DejaVuSans-97"/>
     <use x="61.279297" xlink:href="#DejaVuSans-108"/>
     <use x="89.0625" xlink:href="#DejaVuSans-78"/>
     <use x="163.867188" xlink:href="#DejaVuSans-53"/>
    </g>
   </g>
   <g id="text_16">
    <!-- l1p-cmaes -->
    <g transform="translate(375.22944 40.397235)scale(0.17 -0.17)">
     <use xlink:href="#DejaVuSans-108"/>
     <use x="27.783203" xlink:href="#DejaVuSans-49"/>
     <use x="91.40625" xlink:href="#DejaVuSans-112"/>
     <use x="154.882812" xlink:href="#DejaVuSans-45"/>
     <use x="190.966797" xlink:href="#DejaVuSans-99"/>
     <use x="245.947266" xlink:href="#DejaVuSans-109"/>
     <use x="343.359375" xlink:href="#DejaVuSans-97"/>
     <use x="404.638672" xlink:href="#DejaVuSans-101"/>
     <use x="466.162109" xlink:href="#DejaVuSans-115"/>
    </g>
   </g>
   <g id="text_17">
    <!-- bbob-constrained f46, 2-D -->
    <g transform="translate(60.41088 38.111366)scale(0.102 -0.102)">
     <defs>
      <path d="M 19.671875 64.796875 
L 19.671875 8.109375 
L 31.59375 8.109375 
Q 46.6875 8.109375 53.6875 14.9375 
Q 60.6875 21.78125 60.6875 36.53125 
Q 60.6875 51.171875 53.6875 57.984375 
Q 46.6875 64.796875 31.59375 64.796875 
z
M 9.8125 72.90625 
L 30.078125 72.90625 
Q 51.265625 72.90625 61.171875 64.09375 
Q 71.09375 55.28125 71.09375 36.53125 
Q 71.09375 17.671875 61.125 8.828125 
Q 51.171875 0 30.078125 0 
L 9.8125 0 
z
" id="DejaVuSans-68"/>
     </defs>
     <use xlink:href="#DejaVuSans-98"/>
     <use x="63.476562" xlink:href="#DejaVuSans-98"/>
     <use x="126.953125" xlink:href="#DejaVuSans-111"/>
     <use x="188.134766" xlink:href="#DejaVuSans-98"/>
     <use x="251.611328" xlink:href="#DejaVuSans-45"/>
     <use x="287.695312" xlink:href="#DejaVuSans-99"/>
     <use x="342.675781" xlink:href="#DejaVuSans-111"/>
     <use x="403.857422" xlink:href="#DejaVuSans-110"/>
     <use x="467.236328" xlink:href="#DejaVuSans-115"/>
     <use x="519.335938" xlink:href="#DejaVuSans-116"/>
     <use x="558.544922" xlink:href="#DejaVuSans-114"/>
     <use x="599.658203" xlink:href="#DejaVuSans-97"/>
     <use x="660.9375" xlink:href="#DejaVuSans-105"/>
     <use x="688.720703" xlink:href="#DejaVuSans-110"/>
     <use x="752.099609" xlink:href="#DejaVuSans-101"/>
     <use x="813.623047" xlink:href="#DejaVuSans-100"/>
     <use x="877.099609" xlink:href="#DejaVuSans-32"/>
     <use x="908.886719" xlink:href="#DejaVuSans-102"/>
     <use x="944.091797" xlink:href="#DejaVuSans-52"/>
     <use x="1007.714844" xlink:href="#DejaVuSans-54"/>
     <use x="1071.337891" xlink:href="#DejaVuSans-44"/>
     <use x="1103.125" xlink:href="#DejaVuSans-32"/>
     <use x="1134.912109" xlink:href="#DejaVuSans-50"/>
     <use x="1198.535156" xlink:href="#DejaVuSans-45"/>
     <use x="1234.619141" xlink:href="#DejaVuSans-68"/>
    </g>
    <!-- 41 targets: 100..1e-06 -->
    <g transform="translate(60.41088 49.533135)scale(0.102 -0.102)">
     <defs>
      <path d="M 11.71875 12.40625 
L 22.015625 12.40625 
L 22.015625 0 
L 11.71875 0 
z
M 11.71875 51.703125 
L 22.015625 51.703125 
L 22.015625 39.3125 
L 11.71875 39.3125 
z
" id="DejaVuSans-58"/>
     </defs>
     <use xlink:href="#DejaVuSans-52"/>
     <use x="63.623047" xlink:href="#DejaVuSans-49"/>
     <use x="127.246094" xlink:href="#DejaVuSans-32"/>
     <use x="159.033203" xlink:href="#DejaVuSans-116"/>
     <use x="198.242188" xlink:href="#DejaVuSans-97"/>
     <use x="259.521484" xlink:href="#DejaVuSans-114"/>
     <use x="298.884766" xlink:href="#DejaVuSans-103"/>
     <use x="362.361328" xlink:href="#DejaVuSans-101"/>
     <use x="423.884766" xlink:href="#DejaVuSans-116"/>
     <use x="463.09375" xlink:href="#DejaVuSans-115"/>
     <use x="515.193359" xlink:href="#DejaVuSans-58"/>
     <use x="548.884766" xlink:href="#DejaVuSans-32"/>
     <use x="580.671875" xlink:href="#DejaVuSans-49"/>
     <use x="644.294922" xlink:href="#DejaVuSans-48"/>
     <use x="707.917969" xlink:href="#DejaVuSans-48"/>
     <use x="771.541016" xlink:href="#DejaVuSans-46"/>
     <use x="803.328125" xlink:href="#DejaVuSans-46"/>
     <use x="835.115234" xlink:href="#DejaVuSans-49"/>
     <use x="898.738281" xlink:href="#DejaVuSans-101"/>
     <use x="960.261719" xlink:href="#DejaVuSans-45"/>
     <use x="996.345703" xlink:href="#DejaVuSans-48"/>
     <use x="1059.96875" xlink:href="#DejaVuSans-54"/>
    </g>
    <!-- 30, 15 instances -->
    <g transform="translate(60.41088 60.954904)scale(0.102 -0.102)">
     <defs>
      <path d="M 40.578125 39.3125 
Q 47.65625 37.796875 51.625 33 
Q 55.609375 28.21875 55.609375 21.1875 
Q 55.609375 10.40625 48.1875 4.484375 
Q 40.765625 -1.421875 27.09375 -1.421875 
Q 22.515625 -1.421875 17.65625 -0.515625 
Q 12.796875 0.390625 7.625 2.203125 
L 7.625 11.71875 
Q 11.71875 9.328125 16.59375 8.109375 
Q 21.484375 6.890625 26.8125 6.890625 
Q 36.078125 6.890625 40.9375 10.546875 
Q 45.796875 14.203125 45.796875 21.1875 
Q 45.796875 27.640625 41.28125 31.265625 
Q 36.765625 34.90625 28.71875 34.90625 
L 20.21875 34.90625 
L 20.21875 43.015625 
L 29.109375 43.015625 
Q 36.375 43.015625 40.234375 45.921875 
Q 44.09375 48.828125 44.09375 54.296875 
Q 44.09375 59.90625 40.109375 62.90625 
Q 36.140625 65.921875 28.71875 65.921875 
Q 24.65625 65.921875 20.015625 65.03125 
Q 15.375 64.15625 9.8125 62.3125 
L 9.8125 71.09375 
Q 15.4375 72.65625 20.34375 73.4375 
Q 25.25 74.21875 29.59375 74.21875 
Q 40.828125 74.21875 47.359375 69.109375 
Q 53.90625 64.015625 53.90625 55.328125 
Q 53.90625 49.265625 50.4375 45.09375 
Q 46.96875 40.921875 40.578125 39.3125 
z
" id="DejaVuSans-51"/>
     </defs>
     <use xlink:href="#DejaVuSans-51"/>
     <use x="63.623047" xlink:href="#DejaVuSans-48"/>
     <use x="127.246094" xlink:href="#DejaVuSans-44"/>
     <use x="159.033203" xlink:href="#DejaVuSans-32"/>
     <use x="190.820312" xlink:href="#DejaVuSans-49"/>
     <use x="254.443359" xlink:href="#DejaVuSans-53"/>
     <use x="318.066406" xlink:href="#DejaVuSans-32"/>
     <use x="349.853516" xlink:href="#DejaVuSans-105"/>
     <use x="377.636719" xlink:href="#DejaVuSans-110"/>
     <use x="441.015625" xlink:href="#DejaVuSans-115"/>
     <use x="493.115234" xlink:href="#DejaVuSans-116"/>
     <use x="532.324219" xlink:href="#DejaVuSans-97"/>
     <use x="593.603516" xlink:href="#DejaVuSans-110"/>
     <use x="656.982422" xlink:href="#DejaVuSans-99"/>
     <use x="711.962891" xlink:href="#DejaVuSans-101"/>
     <use x="773.486328" xlink:href="#DejaVuSans-115"/>
    </g>
   </g>
   <g id="text_18">
    <!-- v5z33 -->
    <g style="fill:#808080;" transform="translate(183.016656 294.151352)scale(0.1 -0.1)">
     <defs>
      <path d="M 5.515625 54.6875 
L 48.1875 54.6875 
L 48.1875 46.484375 
L 14.40625 7.171875 
L 48.1875 7.171875 
L 48.1875 0 
L 4.296875 0 
L 4.296875 8.203125 
L 38.09375 47.515625 
L 5.515625 47.515625 
z
" id="DejaVuSans-122"/>
     </defs>
     <use xlink:href="#DejaVuSans-118"/>
     <use x="59.179688" xlink:href="#DejaVuSans-53"/>
     <use x="122.802734" xlink:href="#DejaVuSans-122"/>
     <use x="175.292969" xlink:href="#DejaVuSans-51"/>
     <use x="238.916016" xlink:href="#DejaVuSans-51"/>
    </g>
   </g>
   <g id="text_19">
    <!-- 46 Separable Rastrigin, n/2+6 constraints -->
    <g transform="translate(-11.682563 21.648)scale(0.2 -0.2)">
     <defs>
      <path d="M 53.515625 70.515625 
L 53.515625 60.890625 
Q 47.90625 63.578125 42.921875 64.890625 
Q 37.9375 66.21875 33.296875 66.21875 
Q 25.25 66.21875 20.875 63.09375 
Q 16.5 59.96875 16.5 54.203125 
Q 16.5 49.359375 19.40625 46.890625 
Q 22.3125 44.4375 30.421875 42.921875 
L 36.375 41.703125 
Q 47.40625 39.59375 52.65625 34.296875 
Q 57.90625 29 57.90625 20.125 
Q 57.90625 9.515625 50.796875 4.046875 
Q 43.703125 -1.421875 29.984375 -1.421875 
Q 24.8125 -1.421875 18.96875 -0.25 
Q 13.140625 0.921875 6.890625 3.21875 
L 6.890625 13.375 
Q 12.890625 10.015625 18.65625 8.296875 
Q 24.421875 6.59375 29.984375 6.59375 
Q 38.421875 6.59375 43.015625 9.90625 
Q 47.609375 13.234375 47.609375 19.390625 
Q 47.609375 24.75 44.3125 27.78125 
Q 41.015625 30.8125 33.5 32.328125 
L 27.484375 33.5 
Q 16.453125 35.6875 11.515625 40.375 
Q 6.59375 45.0625 6.59375 53.421875 
Q 6.59375 63.09375 13.40625 68.65625 
Q 20.21875 74.21875 32.171875 74.21875 
Q 37.3125 74.21875 42.625 73.28125 
Q 47.953125 72.359375 53.515625 70.515625 
z
" id="DejaVuSans-83"/>
      <path d="M 44.390625 34.1875 
Q 47.5625 33.109375 50.5625 29.59375 
Q 53.5625 26.078125 56.59375 19.921875 
L 66.609375 0 
L 56 0 
L 46.6875 18.703125 
Q 43.0625 26.03125 39.671875 28.421875 
Q 36.28125 30.8125 30.421875 30.8125 
L 19.671875 30.8125 
L 19.671875 0 
L 9.8125 0 
L 9.8125 72.90625 
L 32.078125 72.90625 
Q 44.578125 72.90625 50.734375 67.671875 
Q 56.890625 62.453125 56.890625 51.90625 
Q 56.890625 45.015625 53.6875 40.46875 
Q 50.484375 35.9375 44.390625 34.1875 
z
M 19.671875 64.796875 
L 19.671875 38.921875 
L 32.078125 38.921875 
Q 39.203125 38.921875 42.84375 42.21875 
Q 46.484375 45.515625 46.484375 51.90625 
Q 46.484375 58.296875 42.84375 61.546875 
Q 39.203125 64.796875 32.078125 64.796875 
z
" id="DejaVuSans-82"/>
     </defs>
     <use xlink:href="#DejaVuSans-52"/>
     <use x="63.623047" xlink:href="#DejaVuSans-54"/>
     <use x="127.246094" xlink:href="#DejaVuSans-32"/>
     <use x="159.033203" xlink:href="#DejaVuSans-83"/>
     <use x="222.509766" xlink:href="#DejaVuSans-101"/>
     <use x="284.033203" xlink:href="#DejaVuSans-112"/>
     <use x="347.509766" xlink:href="#DejaVuSans-97"/>
     <use x="408.789062" xlink:href="#DejaVuSans-114"/>
     <use x="449.902344" xlink:href="#DejaVuSans-97"/>
     <use x="511.181641" xlink:href="#DejaVuSans-98"/>
     <use x="574.658203" xlink:href="#DejaVuSans-108"/>
     <use x="602.441406" xlink:href="#DejaVuSans-101"/>
     <use x="663.964844" xlink:href="#DejaVuSans-32"/>
     <use x="695.751953" xlink:href="#DejaVuSans-82"/>
     <use x="762.984375" xlink:href="#DejaVuSans-97"/>
     <use x="824.263672" xlink:href="#DejaVuSans-115"/>
     <use x="876.363281" xlink:href="#DejaVuSans-116"/>
     <use x="915.572266" xlink:href="#DejaVuSans-114"/>
     <use x="956.685547" xlink:href="#DejaVuSans-105"/>
     <use x="984.46875" xlink:href="#DejaVuSans-103"/>
     <use x="1047.945312" xlink:href="#DejaVuSans-105"/>
     <use x="1075.728516" xlink:href="#DejaVuSans-110"/>
     <use x="1139.107422" xlink:href="#DejaVuSans-44"/>
     <use x="1170.894531" xlink:href="#DejaVuSans-32"/>
     <use x="1202.681641" xlink:href="#DejaVuSans-110"/>
     <use x="1266.060547" xlink:href="#DejaVuSans-47"/>
     <use x="1299.751953" xlink:href="#DejaVuSans-50"/>
     <use x="1363.375" xlink:href="#DejaVuSans-43"/>
     <use x="1447.164062" xlink:href="#DejaVuSans-54"/>
     <use x="1510.787109" xlink:href="#DejaVuSans-32"/>
     <use x="1542.574219" xlink:href="#DejaVuSans-99"/>
     <use x="1597.554688" xlink:href="#DejaVuSans-111"/>
     <use x="1658.736328" xlink:href="#DejaVuSans-110"/>
     <use x="1722.115234" xlink:href="#DejaVuSans-115"/>
     <use x="1774.214844" xlink:href="#DejaVuSans-116"/>
     <use x="1813.423828" xlink:href="#DejaVuSans-114"/>
     <use x="1854.537109" xlink:href="#DejaVuSans-97"/>
     <use x="1915.816406" xlink:href="#DejaVuSans-105"/>
     <use x="1943.599609" xlink:href="#DejaVuSans-110"/>
     <use x="2006.978516" xlink:href="#DejaVuSans-116"/>
     <use x="2046.1875" xlink:href="#DejaVuSans-115"/>
    </g>
   </g>
  </g>
 </g>
 <defs>
  <clipPath id="p98234f5959">
   <rect height="271.296" width="281.088" x="57.6" y="27.648"/>
  </clipPath>
 </defs>
</svg>
