<?xml version="1.0" encoding="utf-8" standalone="no"?>
<!DOCTYPE svg PUBLIC "-//W3C//DTD SVG 1.1//EN"
  "http://www.w3.org/Graphics/SVG/1.1/DTD/svg11.dtd">
<!-- Created with matplotlib (https://matplotlib.org/) -->
<svg height="345.6pt" version="1.1" viewBox="0 0 460.8 345.6" width="460.8pt" xmlns="http://www.w3.org/2000/svg" xmlns:xlink="http://www.w3.org/1999/xlink">
 <metadata>
  <rdf:RDF xmlns:cc="http://creativecommons.org/ns#" xmlns:dc="http://purl.org/dc/elements/1.1/" xmlns:rdf="http://www.w3.org/1999/02/22-rdf-syntax-ns#">
   <cc:Work>
    <dc:type rdf:resource="http://purl.org/dc/dcmitype/StillImage"/>
    <dc:date>2021-04-09T10:16:14.046611</dc:date>
    <dc:format>image/svg+xml</dc:format>
    <dc:creator>
     <cc:Agent>
      <dc:title>Matplotlib v3.3.3, https://matplotlib.org/</dc:title>
     </cc:Agent>
    </dc:creator>
   </cc:Work>
  </rdf:RDF>
 </metadata>
 <defs>
  <style type="text/css">*{stroke-linecap:butt;stroke-linejoin:round;}</style>
 </defs>
 <g id="figure_1">
  <g id="patch_1">
   <path d="M 0 345.6 
L 460.8 345.6 
L 460.8 0 
L 0 0 
z
" style="fill:#ffffff;"/>
  </g>
  <g id="axes_1">
   <g id="patch_2">
    <path d="M 57.6 298.944 
L 338.688 298.944 
L 338.688 27.648 
L 57.6 27.648 
z
" style="fill:#ffffff;"/>
   </g>
   <g id="matplotlib.axis_1">
    <g id="xtick_1">
     <g id="line2d_1">
      <path clip-path="url(#pd07d21d69f)" d="M 57.6 298.944 
L 57.6 27.648 
" style="fill:none;stroke:#b0b0b0;stroke-linecap:square;stroke-width:0.8;"/>
     </g>
     <g id="line2d_2">
      <defs>
       <path d="M 0 0 
L 0 3.5 
" id="m14a65fca5a" style="stroke:#000000;stroke-width:0.8;"/>
      </defs>
      <g>
       <use style="stroke:#000000;stroke-width:0.8;" x="57.6" xlink:href="#m14a65fca5a" y="298.944"/>
      </g>
     </g>
     <g id="text_1">
      <!-- 0 -->
      <g transform="translate(51.2375 321.140875)scale(0.2 -0.2)">
       <defs>
        <path d="M 31.78125 66.40625 
Q 24.171875 66.40625 20.328125 58.90625 
Q 16.5 51.421875 16.5 36.375 
Q 16.5 21.390625 20.328125 13.890625 
Q 24.171875 6.390625 31.78125 6.390625 
Q 39.453125 6.390625 43.28125 13.890625 
Q 47.125 21.390625 47.125 36.375 
Q 47.125 51.421875 43.28125 58.90625 
Q 39.453125 66.40625 31.78125 66.40625 
z
M 31.78125 74.21875 
Q 44.046875 74.21875 50.515625 64.515625 
Q 56.984375 54.828125 56.984375 36.375 
Q 56.984375 17.96875 50.515625 8.265625 
Q 44.046875 -1.421875 31.78125 -1.421875 
Q 19.53125 -1.421875 13.0625 8.265625 
Q 6.59375 17.96875 6.59375 36.375 
Q 6.59375 54.828125 13.0625 64.515625 
Q 19.53125 74.21875 31.78125 74.21875 
z
" id="DejaVuSans-48"/>
       </defs>
       <use xlink:href="#DejaVuSans-48"/>
      </g>
     </g>
    </g>
    <g id="xtick_2">
     <g id="line2d_3">
      <path clip-path="url(#pd07d21d69f)" d="M 137.910857 298.944 
L 137.910857 27.648 
" style="fill:none;stroke:#b0b0b0;stroke-linecap:square;stroke-width:0.8;"/>
     </g>
     <g id="line2d_4">
      <g>
       <use style="stroke:#000000;stroke-width:0.8;" x="137.910857" xlink:href="#m14a65fca5a" y="298.944"/>
      </g>
     </g>
     <g id="text_2">
      <!-- 2 -->
      <g transform="translate(131.548357 321.140875)scale(0.2 -0.2)">
       <defs>
        <path d="M 19.1875 8.296875 
L 53.609375 8.296875 
L 53.609375 0 
L 7.328125 0 
L 7.328125 8.296875 
Q 12.9375 14.109375 22.625 23.890625 
Q 32.328125 33.6875 34.8125 36.53125 
Q 39.546875 41.84375 41.421875 45.53125 
Q 43.3125 49.21875 43.3125 52.78125 
Q 43.3125 58.59375 39.234375 62.25 
Q 35.15625 65.921875 28.609375 65.921875 
Q 23.96875 65.921875 18.8125 64.3125 
Q 13.671875 62.703125 7.8125 59.421875 
L 7.8125 69.390625 
Q 13.765625 71.78125 18.9375 73 
Q 24.125 74.21875 28.421875 74.21875 
Q 39.75 74.21875 46.484375 68.546875 
Q 53.21875 62.890625 53.21875 53.421875 
Q 53.21875 48.921875 51.53125 44.890625 
Q 49.859375 40.875 45.40625 35.40625 
Q 44.1875 33.984375 37.640625 27.21875 
Q 31.109375 20.453125 19.1875 8.296875 
z
" id="DejaVuSans-50"/>
       </defs>
       <use xlink:href="#DejaVuSans-50"/>
      </g>
     </g>
    </g>
    <g id="xtick_3">
     <g id="line2d_5">
      <path clip-path="url(#pd07d21d69f)" d="M 218.221714 298.944 
L 218.221714 27.648 
" style="fill:none;stroke:#b0b0b0;stroke-linecap:square;stroke-width:0.8;"/>
     </g>
     <g id="line2d_6">
      <g>
       <use style="stroke:#000000;stroke-width:0.8;" x="218.221714" xlink:href="#m14a65fca5a" y="298.944"/>
      </g>
     </g>
     <g id="text_3">
      <!-- 4 -->
      <g transform="translate(211.859214 321.140875)scale(0.2 -0.2)">
       <defs>
        <path d="M 37.796875 64.3125 
L 12.890625 25.390625 
L 37.796875 25.390625 
z
M 35.203125 72.90625 
L 47.609375 72.90625 
L 47.609375 25.390625 
L 58.015625 25.390625 
L 58.015625 17.1875 
L 47.609375 17.1875 
L 47.609375 0 
L 37.796875 0 
L 37.796875 17.1875 
L 4.890625 17.1875 
L 4.890625 26.703125 
z
" id="DejaVuSans-52"/>
       </defs>
       <use xlink:href="#DejaVuSans-52"/>
      </g>
     </g>
    </g>
    <g id="xtick_4">
     <g id="line2d_7">
      <path clip-path="url(#pd07d21d69f)" d="M 298.532571 298.944 
L 298.532571 27.648 
" style="fill:none;stroke:#b0b0b0;stroke-linecap:square;stroke-width:0.8;"/>
     </g>
     <g id="line2d_8">
      <g>
       <use style="stroke:#000000;stroke-width:0.8;" x="298.532571" xlink:href="#m14a65fca5a" y="298.944"/>
      </g>
     </g>
     <g id="text_4">
      <!-- 6 -->
      <g transform="translate(292.170071 321.140875)scale(0.2 -0.2)">
       <defs>
        <path d="M 33.015625 40.375 
Q 26.375 40.375 22.484375 35.828125 
Q 18.609375 31.296875 18.609375 23.390625 
Q 18.609375 15.53125 22.484375 10.953125 
Q 26.375 6.390625 33.015625 6.390625 
Q 39.65625 6.390625 43.53125 10.953125 
Q 47.40625 15.53125 47.40625 23.390625 
Q 47.40625 31.296875 43.53125 35.828125 
Q 39.65625 40.375 33.015625 40.375 
z
M 52.59375 71.296875 
L 52.59375 62.3125 
Q 48.875 64.0625 45.09375 64.984375 
Q 41.3125 65.921875 37.59375 65.921875 
Q 27.828125 65.921875 22.671875 59.328125 
Q 17.53125 52.734375 16.796875 39.40625 
Q 19.671875 43.65625 24.015625 45.921875 
Q 28.375 48.1875 33.59375 48.1875 
Q 44.578125 48.1875 50.953125 41.515625 
Q 57.328125 34.859375 57.328125 23.390625 
Q 57.328125 12.15625 50.6875 5.359375 
Q 44.046875 -1.421875 33.015625 -1.421875 
Q 20.359375 -1.421875 13.671875 8.265625 
Q 6.984375 17.96875 6.984375 36.375 
Q 6.984375 53.65625 15.1875 63.9375 
Q 23.390625 74.21875 37.203125 74.21875 
Q 40.921875 74.21875 44.703125 73.484375 
Q 48.484375 72.75 52.59375 71.296875 
z
" id="DejaVuSans-54"/>
       </defs>
       <use xlink:href="#DejaVuSans-54"/>
      </g>
     </g>
    </g>
    <g id="xtick_5">
     <g id="line2d_9">
      <path clip-path="url(#pd07d21d69f)" d="M 97.755429 298.944 
L 97.755429 27.648 
" style="fill:none;stroke:#b0b0b0;stroke-linecap:square;stroke-width:0.8;"/>
     </g>
     <g id="line2d_10">
      <defs>
       <path d="M 0 0 
L 0 2 
" id="mba936776dd" style="stroke:#000000;stroke-width:0.6;"/>
      </defs>
      <g>
       <use style="stroke:#000000;stroke-width:0.6;" x="97.755429" xlink:href="#mba936776dd" y="298.944"/>
      </g>
     </g>
    </g>
    <g id="xtick_6">
     <g id="line2d_11">
      <path clip-path="url(#pd07d21d69f)" d="M 178.066286 298.944 
L 178.066286 27.648 
" style="fill:none;stroke:#b0b0b0;stroke-linecap:square;stroke-width:0.8;"/>
     </g>
     <g id="line2d_12">
      <g>
       <use style="stroke:#000000;stroke-width:0.6;" x="178.066286" xlink:href="#mba936776dd" y="298.944"/>
      </g>
     </g>
    </g>
    <g id="xtick_7">
     <g id="line2d_13">
      <path clip-path="url(#pd07d21d69f)" d="M 258.377143 298.944 
L 258.377143 27.648 
" style="fill:none;stroke:#b0b0b0;stroke-linecap:square;stroke-width:0.8;"/>
     </g>
     <g id="line2d_14">
      <g>
       <use style="stroke:#000000;stroke-width:0.6;" x="258.377143" xlink:href="#mba936776dd" y="298.944"/>
      </g>
     </g>
    </g>
    <g id="xtick_8">
     <g id="line2d_15">
      <path clip-path="url(#pd07d21d69f)" d="M 338.688 298.944 
L 338.688 27.648 
" style="fill:none;stroke:#b0b0b0;stroke-linecap:square;stroke-width:0.8;"/>
     </g>
     <g id="line2d_16">
      <g>
       <use style="stroke:#000000;stroke-width:0.6;" x="338.688" xlink:href="#mba936776dd" y="298.944"/>
      </g>
     </g>
    </g>
    <g id="text_5">
     <!-- log10(# (f+g)-evals / dimension) -->
     <g transform="translate(58.145016 342.217594)scale(0.17 -0.17)">
      <defs>
       <path d="M 9.421875 75.984375 
L 18.40625 75.984375 
L 18.40625 0 
L 9.421875 0 
z
" id="DejaVuSans-108"/>
       <path d="M 30.609375 48.390625 
Q 23.390625 48.390625 19.1875 42.75 
Q 14.984375 37.109375 14.984375 27.296875 
Q 14.984375 17.484375 19.15625 11.84375 
Q 23.34375 6.203125 30.609375 6.203125 
Q 37.796875 6.203125 41.984375 11.859375 
Q 46.1875 17.53125 46.1875 27.296875 
Q 46.1875 37.015625 41.984375 42.703125 
Q 37.796875 48.390625 30.609375 48.390625 
z
M 30.609375 56 
Q 42.328125 56 49.015625 48.375 
Q 55.71875 40.765625 55.71875 27.296875 
Q 55.71875 13.875 49.015625 6.21875 
Q 42.328125 -1.421875 30.609375 -1.421875 
Q 18.84375 -1.421875 12.171875 6.21875 
Q 5.515625 13.875 5.515625 27.296875 
Q 5.515625 40.765625 12.171875 48.375 
Q 18.84375 56 30.609375 56 
z
" id="DejaVuSans-111"/>
       <path d="M 45.40625 27.984375 
Q 45.40625 37.75 41.375 43.109375 
Q 37.359375 48.484375 30.078125 48.484375 
Q 22.859375 48.484375 18.828125 43.109375 
Q 14.796875 37.75 14.796875 27.984375 
Q 14.796875 18.265625 18.828125 12.890625 
Q 22.859375 7.515625 30.078125 7.515625 
Q 37.359375 7.515625 41.375 12.890625 
Q 45.40625 18.265625 45.40625 27.984375 
z
M 54.390625 6.78125 
Q 54.390625 -7.171875 48.1875 -13.984375 
Q 42 -20.796875 29.203125 -20.796875 
Q 24.46875 -20.796875 20.265625 -20.09375 
Q 16.0625 -19.390625 12.109375 -17.921875 
L 12.109375 -9.1875 
Q 16.0625 -11.328125 19.921875 -12.34375 
Q 23.78125 -13.375 27.78125 -13.375 
Q 36.625 -13.375 41.015625 -8.765625 
Q 45.40625 -4.15625 45.40625 5.171875 
L 45.40625 9.625 
Q 42.625 4.78125 38.28125 2.390625 
Q 33.9375 0 27.875 0 
Q 17.828125 0 11.671875 7.65625 
Q 5.515625 15.328125 5.515625 27.984375 
Q 5.515625 40.671875 11.671875 48.328125 
Q 17.828125 56 27.875 56 
Q 33.9375 56 38.28125 53.609375 
Q 42.625 51.21875 45.40625 46.390625 
L 45.40625 54.6875 
L 54.390625 54.6875 
z
" id="DejaVuSans-103"/>
       <path d="M 12.40625 8.296875 
L 28.515625 8.296875 
L 28.515625 63.921875 
L 10.984375 60.40625 
L 10.984375 69.390625 
L 28.421875 72.90625 
L 38.28125 72.90625 
L 38.28125 8.296875 
L 54.390625 8.296875 
L 54.390625 0 
L 12.40625 0 
z
" id="DejaVuSans-49"/>
       <path d="M 31 75.875 
Q 24.46875 64.65625 21.28125 53.65625 
Q 18.109375 42.671875 18.109375 31.390625 
Q 18.109375 20.125 21.3125 9.0625 
Q 24.515625 -2 31 -13.1875 
L 23.1875 -13.1875 
Q 15.875 -1.703125 12.234375 9.375 
Q 8.59375 20.453125 8.59375 31.390625 
Q 8.59375 42.28125 12.203125 53.3125 
Q 15.828125 64.359375 23.1875 75.875 
z
" id="DejaVuSans-40"/>
       <path d="M 51.125 44 
L 36.921875 44 
L 32.8125 27.6875 
L 47.125 27.6875 
z
M 43.796875 71.78125 
L 38.71875 51.515625 
L 52.984375 51.515625 
L 58.109375 71.78125 
L 65.921875 71.78125 
L 60.890625 51.515625 
L 76.125 51.515625 
L 76.125 44 
L 58.984375 44 
L 54.984375 27.6875 
L 70.515625 27.6875 
L 70.515625 20.21875 
L 53.078125 20.21875 
L 48 0 
L 40.1875 0 
L 45.21875 20.21875 
L 30.90625 20.21875 
L 25.875 0 
L 18.015625 0 
L 23.09375 20.21875 
L 7.71875 20.21875 
L 7.71875 27.6875 
L 24.90625 27.6875 
L 29 44 
L 13.28125 44 
L 13.28125 51.515625 
L 30.90625 51.515625 
L 35.890625 71.78125 
z
" id="DejaVuSans-35"/>
       <path id="DejaVuSans-32"/>
       <path d="M 37.109375 75.984375 
L 37.109375 68.5 
L 28.515625 68.5 
Q 23.6875 68.5 21.796875 66.546875 
Q 19.921875 64.59375 19.921875 59.515625 
L 19.921875 54.6875 
L 34.71875 54.6875 
L 34.71875 47.703125 
L 19.921875 47.703125 
L 19.921875 0 
L 10.890625 0 
L 10.890625 47.703125 
L 2.296875 47.703125 
L 2.296875 54.6875 
L 10.890625 54.6875 
L 10.890625 58.5 
Q 10.890625 67.625 15.140625 71.796875 
Q 19.390625 75.984375 28.609375 75.984375 
z
" id="DejaVuSans-102"/>
       <path d="M 46 62.703125 
L 46 35.5 
L 73.1875 35.5 
L 73.1875 27.203125 
L 46 27.203125 
L 46 0 
L 37.796875 0 
L 37.796875 27.203125 
L 10.59375 27.203125 
L 10.59375 35.5 
L 37.796875 35.5 
L 37.796875 62.703125 
z
" id="DejaVuSans-43"/>
       <path d="M 8.015625 75.875 
L 15.828125 75.875 
Q 23.140625 64.359375 26.78125 53.3125 
Q 30.421875 42.28125 30.421875 31.390625 
Q 30.421875 20.453125 26.78125 9.375 
Q 23.140625 -1.703125 15.828125 -13.1875 
L 8.015625 -13.1875 
Q 14.5 -2 17.703125 9.0625 
Q 20.90625 20.125 20.90625 31.390625 
Q 20.90625 42.671875 17.703125 53.65625 
Q 14.5 64.65625 8.015625 75.875 
z
" id="DejaVuSans-41"/>
       <path d="M 4.890625 31.390625 
L 31.203125 31.390625 
L 31.203125 23.390625 
L 4.890625 23.390625 
z
" id="DejaVuSans-45"/>
       <path d="M 56.203125 29.59375 
L 56.203125 25.203125 
L 14.890625 25.203125 
Q 15.484375 15.921875 20.484375 11.0625 
Q 25.484375 6.203125 34.421875 6.203125 
Q 39.59375 6.203125 44.453125 7.46875 
Q 49.3125 8.734375 54.109375 11.28125 
L 54.109375 2.78125 
Q 49.265625 0.734375 44.1875 -0.34375 
Q 39.109375 -1.421875 33.890625 -1.421875 
Q 20.796875 -1.421875 13.15625 6.1875 
Q 5.515625 13.8125 5.515625 26.8125 
Q 5.515625 40.234375 12.765625 48.109375 
Q 20.015625 56 32.328125 56 
Q 43.359375 56 49.78125 48.890625 
Q 56.203125 41.796875 56.203125 29.59375 
z
M 47.21875 32.234375 
Q 47.125 39.59375 43.09375 43.984375 
Q 39.0625 48.390625 32.421875 48.390625 
Q 24.90625 48.390625 20.390625 44.140625 
Q 15.875 39.890625 15.1875 32.171875 
z
" id="DejaVuSans-101"/>
       <path d="M 2.984375 54.6875 
L 12.5 54.6875 
L 29.59375 8.796875 
L 46.6875 54.6875 
L 56.203125 54.6875 
L 35.6875 0 
L 23.484375 0 
z
" id="DejaVuSans-118"/>
       <path d="M 34.28125 27.484375 
Q 23.390625 27.484375 19.1875 25 
Q 14.984375 22.515625 14.984375 16.5 
Q 14.984375 11.71875 18.140625 8.90625 
Q 21.296875 6.109375 26.703125 6.109375 
Q 34.1875 6.109375 38.703125 11.40625 
Q 43.21875 16.703125 43.21875 25.484375 
L 43.21875 27.484375 
z
M 52.203125 31.203125 
L 52.203125 0 
L 43.21875 0 
L 43.21875 8.296875 
Q 40.140625 3.328125 35.546875 0.953125 
Q 30.953125 -1.421875 24.3125 -1.421875 
Q 15.921875 -1.421875 10.953125 3.296875 
Q 6 8.015625 6 15.921875 
Q 6 25.140625 12.171875 29.828125 
Q 18.359375 34.515625 30.609375 34.515625 
L 43.21875 34.515625 
L 43.21875 35.40625 
Q 43.21875 41.609375 39.140625 45 
Q 35.0625 48.390625 27.6875 48.390625 
Q 23 48.390625 18.546875 47.265625 
Q 14.109375 46.140625 10.015625 43.890625 
L 10.015625 52.203125 
Q 14.9375 54.109375 19.578125 55.046875 
Q 24.21875 56 28.609375 56 
Q 40.484375 56 46.34375 49.84375 
Q 52.203125 43.703125 52.203125 31.203125 
z
" id="DejaVuSans-97"/>
       <path d="M 44.28125 53.078125 
L 44.28125 44.578125 
Q 40.484375 46.53125 36.375 47.5 
Q 32.28125 48.484375 27.875 48.484375 
Q 21.1875 48.484375 17.84375 46.4375 
Q 14.5 44.390625 14.5 40.28125 
Q 14.5 37.15625 16.890625 35.375 
Q 19.28125 33.59375 26.515625 31.984375 
L 29.59375 31.296875 
Q 39.15625 29.25 43.1875 25.515625 
Q 47.21875 21.78125 47.21875 15.09375 
Q 47.21875 7.46875 41.1875 3.015625 
Q 35.15625 -1.421875 24.609375 -1.421875 
Q 20.21875 -1.421875 15.453125 -0.5625 
Q 10.6875 0.296875 5.421875 2 
L 5.421875 11.28125 
Q 10.40625 8.6875 15.234375 7.390625 
Q 20.0625 6.109375 24.8125 6.109375 
Q 31.15625 6.109375 34.5625 8.28125 
Q 37.984375 10.453125 37.984375 14.40625 
Q 37.984375 18.0625 35.515625 20.015625 
Q 33.0625 21.96875 24.703125 23.78125 
L 21.578125 24.515625 
Q 13.234375 26.265625 9.515625 29.90625 
Q 5.8125 33.546875 5.8125 39.890625 
Q 5.8125 47.609375 11.28125 51.796875 
Q 16.75 56 26.8125 56 
Q 31.78125 56 36.171875 55.265625 
Q 40.578125 54.546875 44.28125 53.078125 
z
" id="DejaVuSans-115"/>
       <path d="M 25.390625 72.90625 
L 33.6875 72.90625 
L 8.296875 -9.28125 
L 0 -9.28125 
z
" id="DejaVuSans-47"/>
       <path d="M 45.40625 46.390625 
L 45.40625 75.984375 
L 54.390625 75.984375 
L 54.390625 0 
L 45.40625 0 
L 45.40625 8.203125 
Q 42.578125 3.328125 38.25 0.953125 
Q 33.9375 -1.421875 27.875 -1.421875 
Q 17.96875 -1.421875 11.734375 6.484375 
Q 5.515625 14.40625 5.515625 27.296875 
Q 5.515625 40.1875 11.734375 48.09375 
Q 17.96875 56 27.875 56 
Q 33.9375 56 38.25 53.625 
Q 42.578125 51.265625 45.40625 46.390625 
z
M 14.796875 27.296875 
Q 14.796875 17.390625 18.875 11.75 
Q 22.953125 6.109375 30.078125 6.109375 
Q 37.203125 6.109375 41.296875 11.75 
Q 45.40625 17.390625 45.40625 27.296875 
Q 45.40625 37.203125 41.296875 42.84375 
Q 37.203125 48.484375 30.078125 48.484375 
Q 22.953125 48.484375 18.875 42.84375 
Q 14.796875 37.203125 14.796875 27.296875 
z
" id="DejaVuSans-100"/>
       <path d="M 9.421875 54.6875 
L 18.40625 54.6875 
L 18.40625 0 
L 9.421875 0 
z
M 9.421875 75.984375 
L 18.40625 75.984375 
L 18.40625 64.59375 
L 9.421875 64.59375 
z
" id="DejaVuSans-105"/>
       <path d="M 52 44.1875 
Q 55.375 50.25 60.0625 53.125 
Q 64.75 56 71.09375 56 
Q 79.640625 56 84.28125 50.015625 
Q 88.921875 44.046875 88.921875 33.015625 
L 88.921875 0 
L 79.890625 0 
L 79.890625 32.71875 
Q 79.890625 40.578125 77.09375 44.375 
Q 74.3125 48.1875 68.609375 48.1875 
Q 61.625 48.1875 57.5625 43.546875 
Q 53.515625 38.921875 53.515625 30.90625 
L 53.515625 0 
L 44.484375 0 
L 44.484375 32.71875 
Q 44.484375 40.625 41.703125 44.40625 
Q 38.921875 48.1875 33.109375 48.1875 
Q 26.21875 48.1875 22.15625 43.53125 
Q 18.109375 38.875 18.109375 30.90625 
L 18.109375 0 
L 9.078125 0 
L 9.078125 54.6875 
L 18.109375 54.6875 
L 18.109375 46.1875 
Q 21.1875 51.21875 25.484375 53.609375 
Q 29.78125 56 35.6875 56 
Q 41.65625 56 45.828125 52.96875 
Q 50 49.953125 52 44.1875 
z
" id="DejaVuSans-109"/>
       <path d="M 54.890625 33.015625 
L 54.890625 0 
L 45.90625 0 
L 45.90625 32.71875 
Q 45.90625 40.484375 42.875 44.328125 
Q 39.84375 48.1875 33.796875 48.1875 
Q 26.515625 48.1875 22.3125 43.546875 
Q 18.109375 38.921875 18.109375 30.90625 
L 18.109375 0 
L 9.078125 0 
L 9.078125 54.6875 
L 18.109375 54.6875 
L 18.109375 46.1875 
Q 21.34375 51.125 25.703125 53.5625 
Q 30.078125 56 35.796875 56 
Q 45.21875 56 50.046875 50.171875 
Q 54.890625 44.34375 54.890625 33.015625 
z
" id="DejaVuSans-110"/>
      </defs>
      <use xlink:href="#DejaVuSans-108"/>
      <use x="27.783203" xlink:href="#DejaVuSans-111"/>
      <use x="88.964844" xlink:href="#DejaVuSans-103"/>
      <use x="152.441406" xlink:href="#DejaVuSans-49"/>
      <use x="216.064453" xlink:href="#DejaVuSans-48"/>
      <use x="279.6875" xlink:href="#DejaVuSans-40"/>
      <use x="318.701172" xlink:href="#DejaVuSans-35"/>
      <use x="402.490234" xlink:href="#DejaVuSans-32"/>
      <use x="434.277344" xlink:href="#DejaVuSans-40"/>
      <use x="473.291016" xlink:href="#DejaVuSans-102"/>
      <use x="508.496094" xlink:href="#DejaVuSans-43"/>
      <use x="592.285156" xlink:href="#DejaVuSans-103"/>
      <use x="655.761719" xlink:href="#DejaVuSans-41"/>
      <use x="694.775391" xlink:href="#DejaVuSans-45"/>
      <use x="730.859375" xlink:href="#DejaVuSans-101"/>
      <use x="792.382812" xlink:href="#DejaVuSans-118"/>
      <use x="851.5625" xlink:href="#DejaVuSans-97"/>
      <use x="912.841797" xlink:href="#DejaVuSans-108"/>
      <use x="940.625" xlink:href="#DejaVuSans-115"/>
      <use x="992.724609" xlink:href="#DejaVuSans-32"/>
      <use x="1024.511719" xlink:href="#DejaVuSans-47"/>
      <use x="1058.203125" xlink:href="#DejaVuSans-32"/>
      <use x="1089.990234" xlink:href="#DejaVuSans-100"/>
      <use x="1153.466797" xlink:href="#DejaVuSans-105"/>
      <use x="1181.25" xlink:href="#DejaVuSans-109"/>
      <use x="1278.662109" xlink:href="#DejaVuSans-101"/>
      <use x="1340.185547" xlink:href="#DejaVuSans-110"/>
      <use x="1403.564453" xlink:href="#DejaVuSans-115"/>
      <use x="1455.664062" xlink:href="#DejaVuSans-105"/>
      <use x="1483.447266" xlink:href="#DejaVuSans-111"/>
      <use x="1544.628906" xlink:href="#DejaVuSans-110"/>
      <use x="1608.007812" xlink:href="#DejaVuSans-41"/>
     </g>
    </g>
   </g>
   <g id="matplotlib.axis_2">
    <g id="ytick_1">
     <g id="line2d_17">
      <path clip-path="url(#pd07d21d69f)" d="M 57.6 298.944 
L 338.688 298.944 
" style="fill:none;stroke:#b0b0b0;stroke-linecap:square;stroke-width:0.8;"/>
     </g>
     <g id="line2d_18">
      <defs>
       <path d="M 0 0 
L -3.5 0 
" id="m339444f2c4" style="stroke:#000000;stroke-width:0.8;"/>
      </defs>
      <g>
       <use style="stroke:#000000;stroke-width:0.8;" x="57.6" xlink:href="#m339444f2c4" y="298.944"/>
      </g>
     </g>
     <g id="text_6">
      <!-- 0.0 -->
      <g transform="translate(25.155 305.02275)scale(0.16 -0.16)">
       <defs>
        <path d="M 10.6875 12.40625 
L 21 12.40625 
L 21 0 
L 10.6875 0 
z
" id="DejaVuSans-46"/>
       </defs>
       <use xlink:href="#DejaVuSans-48"/>
       <use x="63.623047" xlink:href="#DejaVuSans-46"/>
       <use x="95.410156" xlink:href="#DejaVuSans-48"/>
      </g>
     </g>
    </g>
    <g id="ytick_2">
     <g id="line2d_19">
      <path clip-path="url(#pd07d21d69f)" d="M 57.6 245.22202 
L 338.688 245.22202 
" style="fill:none;stroke:#b0b0b0;stroke-linecap:square;stroke-width:0.8;"/>
     </g>
     <g id="line2d_20">
      <g>
       <use style="stroke:#000000;stroke-width:0.8;" x="57.6" xlink:href="#m339444f2c4" y="245.22202"/>
      </g>
     </g>
     <g id="text_7">
      <!-- 0.2 -->
      <g transform="translate(25.155 251.30077)scale(0.16 -0.16)">
       <use xlink:href="#DejaVuSans-48"/>
       <use x="63.623047" xlink:href="#DejaVuSans-46"/>
       <use x="95.410156" xlink:href="#DejaVuSans-50"/>
      </g>
     </g>
    </g>
    <g id="ytick_3">
     <g id="line2d_21">
      <path clip-path="url(#pd07d21d69f)" d="M 57.6 191.50004 
L 338.688 191.50004 
" style="fill:none;stroke:#b0b0b0;stroke-linecap:square;stroke-width:0.8;"/>
     </g>
     <g id="line2d_22">
      <g>
       <use style="stroke:#000000;stroke-width:0.8;" x="57.6" xlink:href="#m339444f2c4" y="191.50004"/>
      </g>
     </g>
     <g id="text_8">
      <!-- 0.4 -->
      <g transform="translate(25.155 197.57879)scale(0.16 -0.16)">
       <use xlink:href="#DejaVuSans-48"/>
       <use x="63.623047" xlink:href="#DejaVuSans-46"/>
       <use x="95.410156" xlink:href="#DejaVuSans-52"/>
      </g>
     </g>
    </g>
    <g id="ytick_4">
     <g id="line2d_23">
      <path clip-path="url(#pd07d21d69f)" d="M 57.6 137.778059 
L 338.688 137.778059 
" style="fill:none;stroke:#b0b0b0;stroke-linecap:square;stroke-width:0.8;"/>
     </g>
     <g id="line2d_24">
      <g>
       <use style="stroke:#000000;stroke-width:0.8;" x="57.6" xlink:href="#m339444f2c4" y="137.778059"/>
      </g>
     </g>
     <g id="text_9">
      <!-- 0.6 -->
      <g transform="translate(25.155 143.856809)scale(0.16 -0.16)">
       <use xlink:href="#DejaVuSans-48"/>
       <use x="63.623047" xlink:href="#DejaVuSans-46"/>
       <use x="95.410156" xlink:href="#DejaVuSans-54"/>
      </g>
     </g>
    </g>
    <g id="ytick_5">
     <g id="line2d_25">
      <path clip-path="url(#pd07d21d69f)" d="M 57.6 84.056079 
L 338.688 84.056079 
" style="fill:none;stroke:#b0b0b0;stroke-linecap:square;stroke-width:0.8;"/>
     </g>
     <g id="line2d_26">
      <g>
       <use style="stroke:#000000;stroke-width:0.8;" x="57.6" xlink:href="#m339444f2c4" y="84.056079"/>
      </g>
     </g>
     <g id="text_10">
      <!-- 0.8 -->
      <g transform="translate(25.155 90.134829)scale(0.16 -0.16)">
       <defs>
        <path d="M 31.78125 34.625 
Q 24.75 34.625 20.71875 30.859375 
Q 16.703125 27.09375 16.703125 20.515625 
Q 16.703125 13.921875 20.71875 10.15625 
Q 24.75 6.390625 31.78125 6.390625 
Q 38.8125 6.390625 42.859375 10.171875 
Q 46.921875 13.96875 46.921875 20.515625 
Q 46.921875 27.09375 42.890625 30.859375 
Q 38.875 34.625 31.78125 34.625 
z
M 21.921875 38.8125 
Q 15.578125 40.375 12.03125 44.71875 
Q 8.5 49.078125 8.5 55.328125 
Q 8.5 64.0625 14.71875 69.140625 
Q 20.953125 74.21875 31.78125 74.21875 
Q 42.671875 74.21875 48.875 69.140625 
Q 55.078125 64.0625 55.078125 55.328125 
Q 55.078125 49.078125 51.53125 44.71875 
Q 48 40.375 41.703125 38.8125 
Q 48.828125 37.15625 52.796875 32.3125 
Q 56.78125 27.484375 56.78125 20.515625 
Q 56.78125 9.90625 50.3125 4.234375 
Q 43.84375 -1.421875 31.78125 -1.421875 
Q 19.734375 -1.421875 13.25 4.234375 
Q 6.78125 9.90625 6.78125 20.515625 
Q 6.78125 27.484375 10.78125 32.3125 
Q 14.796875 37.15625 21.921875 38.8125 
z
M 18.3125 54.390625 
Q 18.3125 48.734375 21.84375 45.5625 
Q 25.390625 42.390625 31.78125 42.390625 
Q 38.140625 42.390625 41.71875 45.5625 
Q 45.3125 48.734375 45.3125 54.390625 
Q 45.3125 60.0625 41.71875 63.234375 
Q 38.140625 66.40625 31.78125 66.40625 
Q 25.390625 66.40625 21.84375 63.234375 
Q 18.3125 60.0625 18.3125 54.390625 
z
" id="DejaVuSans-56"/>
       </defs>
       <use xlink:href="#DejaVuSans-48"/>
       <use x="63.623047" xlink:href="#DejaVuSans-46"/>
       <use x="95.410156" xlink:href="#DejaVuSans-56"/>
      </g>
     </g>
    </g>
    <g id="ytick_6">
     <g id="line2d_27">
      <path clip-path="url(#pd07d21d69f)" d="M 57.6 30.334099 
L 338.688 30.334099 
" style="fill:none;stroke:#b0b0b0;stroke-linecap:square;stroke-width:0.8;"/>
     </g>
     <g id="line2d_28">
      <g>
       <use style="stroke:#000000;stroke-width:0.8;" x="57.6" xlink:href="#m339444f2c4" y="30.334099"/>
      </g>
     </g>
     <g id="text_11">
      <!-- 1.0 -->
      <g transform="translate(25.155 36.412849)scale(0.16 -0.16)">
       <use xlink:href="#DejaVuSans-49"/>
       <use x="63.623047" xlink:href="#DejaVuSans-46"/>
       <use x="95.410156" xlink:href="#DejaVuSans-48"/>
      </g>
     </g>
    </g>
    <g id="text_12">
     <!-- Fraction of function,target pairs -->
     <g transform="translate(17.619531 297.681)rotate(-90)scale(0.17 -0.17)">
      <defs>
       <path d="M 9.8125 72.90625 
L 51.703125 72.90625 
L 51.703125 64.59375 
L 19.671875 64.59375 
L 19.671875 43.109375 
L 48.578125 43.109375 
L 48.578125 34.8125 
L 19.671875 34.8125 
L 19.671875 0 
L 9.8125 0 
z
" id="DejaVuSans-70"/>
       <path d="M 41.109375 46.296875 
Q 39.59375 47.171875 37.8125 47.578125 
Q 36.03125 48 33.890625 48 
Q 26.265625 48 22.1875 43.046875 
Q 18.109375 38.09375 18.109375 28.8125 
L 18.109375 0 
L 9.078125 0 
L 9.078125 54.6875 
L 18.109375 54.6875 
L 18.109375 46.1875 
Q 20.953125 51.171875 25.484375 53.578125 
Q 30.03125 56 36.53125 56 
Q 37.453125 56 38.578125 55.875 
Q 39.703125 55.765625 41.0625 55.515625 
z
" id="DejaVuSans-114"/>
       <path d="M 48.78125 52.59375 
L 48.78125 44.1875 
Q 44.96875 46.296875 41.140625 47.34375 
Q 37.3125 48.390625 33.40625 48.390625 
Q 24.65625 48.390625 19.8125 42.84375 
Q 14.984375 37.3125 14.984375 27.296875 
Q 14.984375 17.28125 19.8125 11.734375 
Q 24.65625 6.203125 33.40625 6.203125 
Q 37.3125 6.203125 41.140625 7.25 
Q 44.96875 8.296875 48.78125 10.40625 
L 48.78125 2.09375 
Q 45.015625 0.34375 40.984375 -0.53125 
Q 36.96875 -1.421875 32.421875 -1.421875 
Q 20.0625 -1.421875 12.78125 6.34375 
Q 5.515625 14.109375 5.515625 27.296875 
Q 5.515625 40.671875 12.859375 48.328125 
Q 20.21875 56 33.015625 56 
Q 37.15625 56 41.109375 55.140625 
Q 45.0625 54.296875 48.78125 52.59375 
z
" id="DejaVuSans-99"/>
       <path d="M 18.3125 70.21875 
L 18.3125 54.6875 
L 36.8125 54.6875 
L 36.8125 47.703125 
L 18.3125 47.703125 
L 18.3125 18.015625 
Q 18.3125 11.328125 20.140625 9.421875 
Q 21.96875 7.515625 27.59375 7.515625 
L 36.8125 7.515625 
L 36.8125 0 
L 27.59375 0 
Q 17.1875 0 13.234375 3.875 
Q 9.28125 7.765625 9.28125 18.015625 
L 9.28125 47.703125 
L 2.6875 47.703125 
L 2.6875 54.6875 
L 9.28125 54.6875 
L 9.28125 70.21875 
z
" id="DejaVuSans-116"/>
       <path d="M 8.5 21.578125 
L 8.5 54.6875 
L 17.484375 54.6875 
L 17.484375 21.921875 
Q 17.484375 14.15625 20.5 10.265625 
Q 23.53125 6.390625 29.59375 6.390625 
Q 36.859375 6.390625 41.078125 11.03125 
Q 45.3125 15.671875 45.3125 23.6875 
L 45.3125 54.6875 
L 54.296875 54.6875 
L 54.296875 0 
L 45.3125 0 
L 45.3125 8.40625 
Q 42.046875 3.421875 37.71875 1 
Q 33.40625 -1.421875 27.6875 -1.421875 
Q 18.265625 -1.421875 13.375 4.4375 
Q 8.5 10.296875 8.5 21.578125 
z
M 31.109375 56 
z
" id="DejaVuSans-117"/>
       <path d="M 11.71875 12.40625 
L 22.015625 12.40625 
L 22.015625 4 
L 14.015625 -11.625 
L 7.71875 -11.625 
L 11.71875 4 
z
" id="DejaVuSans-44"/>
       <path d="M 18.109375 8.203125 
L 18.109375 -20.796875 
L 9.078125 -20.796875 
L 9.078125 54.6875 
L 18.109375 54.6875 
L 18.109375 46.390625 
Q 20.953125 51.265625 25.265625 53.625 
Q 29.59375 56 35.59375 56 
Q 45.5625 56 51.78125 48.09375 
Q 58.015625 40.1875 58.015625 27.296875 
Q 58.015625 14.40625 51.78125 6.484375 
Q 45.5625 -1.421875 35.59375 -1.421875 
Q 29.59375 -1.421875 25.265625 0.953125 
Q 20.953125 3.328125 18.109375 8.203125 
z
M 48.6875 27.296875 
Q 48.6875 37.203125 44.609375 42.84375 
Q 40.53125 48.484375 33.40625 48.484375 
Q 26.265625 48.484375 22.1875 42.84375 
Q 18.109375 37.203125 18.109375 27.296875 
Q 18.109375 17.390625 22.1875 11.75 
Q 26.265625 6.109375 33.40625 6.109375 
Q 40.53125 6.109375 44.609375 11.75 
Q 48.6875 17.390625 48.6875 27.296875 
z
" id="DejaVuSans-112"/>
      </defs>
      <use xlink:href="#DejaVuSans-70"/>
      <use x="50.269531" xlink:href="#DejaVuSans-114"/>
      <use x="91.382812" xlink:href="#DejaVuSans-97"/>
      <use x="152.662109" xlink:href="#DejaVuSans-99"/>
      <use x="207.642578" xlink:href="#DejaVuSans-116"/>
      <use x="246.851562" xlink:href="#DejaVuSans-105"/>
      <use x="274.634766" xlink:href="#DejaVuSans-111"/>
      <use x="335.816406" xlink:href="#DejaVuSans-110"/>
      <use x="399.195312" xlink:href="#DejaVuSans-32"/>
      <use x="430.982422" xlink:href="#DejaVuSans-111"/>
      <use x="492.164062" xlink:href="#DejaVuSans-102"/>
      <use x="527.369141" xlink:href="#DejaVuSans-32"/>
      <use x="559.15625" xlink:href="#DejaVuSans-102"/>
      <use x="594.361328" xlink:href="#DejaVuSans-117"/>
      <use x="657.740234" xlink:href="#DejaVuSans-110"/>
      <use x="721.119141" xlink:href="#DejaVuSans-99"/>
      <use x="776.099609" xlink:href="#DejaVuSans-116"/>
      <use x="815.308594" xlink:href="#DejaVuSans-105"/>
      <use x="843.091797" xlink:href="#DejaVuSans-111"/>
      <use x="904.273438" xlink:href="#DejaVuSans-110"/>
      <use x="967.652344" xlink:href="#DejaVuSans-44"/>
      <use x="999.439453" xlink:href="#DejaVuSans-116"/>
      <use x="1038.648438" xlink:href="#DejaVuSans-97"/>
      <use x="1099.927734" xlink:href="#DejaVuSans-114"/>
      <use x="1139.291016" xlink:href="#DejaVuSans-103"/>
      <use x="1202.767578" xlink:href="#DejaVuSans-101"/>
      <use x="1264.291016" xlink:href="#DejaVuSans-116"/>
      <use x="1303.5" xlink:href="#DejaVuSans-32"/>
      <use x="1335.287109" xlink:href="#DejaVuSans-112"/>
      <use x="1398.763672" xlink:href="#DejaVuSans-97"/>
      <use x="1460.042969" xlink:href="#DejaVuSans-105"/>
      <use x="1487.826172" xlink:href="#DejaVuSans-114"/>
      <use x="1528.939453" xlink:href="#DejaVuSans-115"/>
     </g>
    </g>
   </g>
   <g id="line2d_29">
    <defs>
     <path d="M 0 1.5 
C 0.397805 1.5 0.77937 1.341951 1.06066 1.06066 
C 1.341951 0.77937 1.5 0.397805 1.5 0 
C 1.5 -0.397805 1.341951 -0.77937 1.06066 -1.06066 
C 0.77937 -1.341951 0.397805 -1.5 0 -1.5 
C -0.397805 -1.5 -0.77937 -1.341951 -1.06066 -1.06066 
C -1.341951 -0.77937 -1.5 -0.397805 -1.5 0 
C -1.5 0.397805 -1.341951 0.77937 -1.06066 1.06066 
C -0.77937 1.341951 -0.397805 1.5 0 1.5 
z
" id="mcd6859e079" style="stroke:#000080;"/>
    </defs>
    <g>
     <use style="fill:#000080;stroke:#000080;" x="219.919754" xlink:href="#mcd6859e079" y="30.334099"/>
     <use style="fill:#000080;stroke:#000080;" x="219.919754" xlink:href="#mcd6859e079" y="30.334099"/>
    </g>
   </g>
   <g id="line2d_30">
    <path d="M 112.026172 298.944 
L 112.026172 298.288854 
L 112.531694 298.288854 
L 112.531694 297.633708 
L 113.022974 297.633708 
L 113.022974 295.66827 
L 116.522527 295.66827 
L 116.522527 295.013123 
L 118.039942 295.013123 
L 118.039942 293.047685 
L 120.728219 293.047685 
L 120.728219 290.427101 
L 121.036887 290.427101 
L 121.036887 289.771955 
L 121.931406 289.771955 
L 121.931406 288.461662 
L 122.219665 288.461662 
L 122.219665 287.806516 
L 123.327293 287.806516 
L 123.327293 286.496224 
L 123.593547 286.496224 
L 123.593547 285.841078 
L 125.110962 285.841078 
L 125.110962 285.185932 
L 125.822869 285.185932 
L 125.822869 284.530786 
L 126.053856 284.530786 
L 126.053856 283.220494 
L 126.729009 283.220494 
L 126.729009 282.565348 
L 128.209594 282.565348 
L 128.209594 279.289617 
L 128.411207 279.289617 
L 128.411207 278.634471 
L 128.610515 278.634471 
L 128.610515 272.738156 
L 129.002426 272.738156 
L 129.002426 272.08301 
L 129.760775 272.08301 
L 129.760775 269.462426 
L 129.945319 269.462426 
L 129.945319 268.807279 
L 132.816208 268.807279 
L 132.816208 264.876403 
L 132.971225 264.876403 
L 132.971225 264.221257 
L 133.124876 264.221257 
L 133.124876 262.910965 
L 133.277185 262.910965 
L 133.277185 260.29038 
L 134.307653 260.29038 
L 134.307653 259.635234 
L 134.450015 259.635234 
L 134.450015 258.980088 
L 135.00812 258.980088 
L 135.00812 258.324942 
L 135.813153 258.324942 
L 135.813153 257.669796 
L 137.077422 257.669796 
L 137.077422 255.049211 
L 137.910857 255.049211 
L 137.910857 254.394065 
L 138.482688 254.394065 
L 138.482688 253.738919 
L 139.783113 253.738919 
L 139.783113 253.083773 
L 139.990725 253.083773 
L 139.990725 252.428627 
L 140.297583 252.428627 
L 140.297583 251.773481 
L 141.47371 251.773481 
L 141.47371 251.118335 
L 141.941279 251.118335 
L 141.941279 249.808043 
L 142.486301 249.808043 
L 142.486301 249.152896 
L 143.014805 249.152896 
L 143.014805 248.49775 
L 143.358447 248.49775 
L 143.358447 247.842604 
L 144.026061 247.842604 
L 144.026061 246.532312 
L 144.430703 246.532312 
L 144.430703 245.877166 
L 145.059213 245.877166 
L 145.059213 243.911728 
L 145.365173 243.911728 
L 145.365173 243.256582 
L 145.665858 243.256582 
L 145.665858 242.601435 
L 145.888018 242.601435 
L 145.888018 241.946289 
L 146.466968 241.946289 
L 146.466968 241.291143 
L 147.636905 241.291143 
L 147.636905 240.635997 
L 148.096724 240.635997 
L 148.161434 239.325705 
L 148.225905 239.325705 
L 148.225905 238.670559 
L 149.286939 238.670559 
L 149.347388 237.360267 
L 149.882194 237.360267 
L 149.882194 236.049974 
L 150.287105 236.049974 
L 150.287105 235.394828 
L 150.51433 235.394828 
L 150.51433 234.739682 
L 151.76636 234.739682 
L 151.76636 233.42939 
L 151.975216 233.42939 
L 151.975216 232.774244 
L 152.736878 232.774244 
L 152.786492 231.463952 
L 153.081247 231.463952 
L 153.081247 230.15366 
L 153.656221 230.15366 
L 153.656221 228.843367 
L 153.890309 228.843367 
L 153.890309 228.188221 
L 154.349264 228.188221 
L 154.349264 226.222783 
L 155.102793 226.222783 
L 155.102793 225.567637 
L 155.318362 225.567637 
L 155.318362 224.912491 
L 156.558644 224.912491 
L 156.558644 224.257345 
L 156.717545 224.257345 
L 156.717545 223.602199 
L 156.835778 223.602199 
L 156.835778 222.947052 
L 157.185742 222.947052 
L 157.185742 221.63676 
L 157.604152 221.63676 
L 157.604152 220.981614 
L 159.046236 220.981614 
L 159.046236 219.671322 
L 159.857512 219.671322 
L 159.857512 219.016176 
L 160.537682 219.016176 
L 160.537682 217.050738 
L 160.976823 217.050738 
L 160.976823 215.740445 
L 161.253399 215.740445 
L 161.253399 214.430153 
L 161.374928 214.430153 
L 161.405178 213.119861 
L 161.999419 213.119861 
L 162.086834 211.809569 
L 162.115875 211.809569 
L 162.115875 211.154423 
L 162.346481 211.154423 
L 162.346481 210.499277 
L 162.517456 210.499277 
L 162.517456 209.84413 
L 162.71483 209.84413 
L 162.79874 207.878692 
L 162.9377 207.878692 
L 162.9377 207.223546 
L 163.07556 207.223546 
L 163.07556 206.5684 
L 163.21234 206.5684 
L 163.239567 204.602962 
L 163.536298 204.602962 
L 163.536298 203.292669 
L 164.063205 203.292669 
L 164.140886 201.327231 
L 164.269589 201.327231 
L 164.269589 200.672085 
L 164.624987 200.672085 
L 164.624987 200.016939 
L 165.338904 200.016939 
L 165.338904 199.361793 
L 165.578458 199.361793 
L 165.578458 198.706647 
L 165.720627 198.706647 
L 165.744209 197.396355 
L 166.163331 197.396355 
L 166.209284 196.086062 
L 166.346422 196.086062 
L 166.346422 195.430916 
L 166.527611 195.430916 
L 166.550128 193.465478 
L 166.662278 193.465478 
L 166.706937 192.155186 
L 166.795913 192.155186 
L 166.795913 191.50004 
L 166.928532 191.50004 
L 166.950537 188.879455 
L 167.125588 188.879455 
L 167.125588 188.224309 
L 167.341959 188.224309 
L 167.449146 185.603725 
L 167.787784 185.603725 
L 167.787784 184.948579 
L 167.975417 184.948579 
L 167.975417 184.293433 
L 168.11997 184.293433 
L 168.11997 183.638286 
L 168.283721 183.638286 
L 168.365023 181.672848 
L 168.48627 181.672848 
L 168.48627 181.017702 
L 168.845033 181.017702 
L 168.923766 179.052264 
L 169.897641 179.052264 
L 169.897641 178.397118 
L 170.24699 178.397118 
L 170.28336 175.776533 
L 170.392016 175.776533 
L 170.41006 173.811095 
L 170.535846 173.811095 
L 170.535846 173.155949 
L 170.837602 173.155949 
L 170.837602 171.845657 
L 170.960352 171.845657 
L 171.064884 169.880218 
L 171.151517 169.880218 
L 171.151517 168.569926 
L 171.49381 168.569926 
L 171.578344 167.259634 
L 171.72948 167.259634 
L 171.72948 166.604488 
L 171.994974 166.604488 
L 171.994974 165.949342 
L 172.369676 165.949342 
L 172.466115 164.63905 
L 172.482136 164.63905 
L 172.577957 161.363319 
L 172.815229 161.363319 
L 172.815229 160.708173 
L 173.172891 160.708173 
L 173.188276 157.432442 
L 173.523365 157.432442 
L 173.583604 155.467004 
L 173.984866 155.467004 
L 174.087407 153.501566 
L 174.116595 153.501566 
L 174.116595 152.84642 
L 174.232857 152.84642 
L 174.232857 152.191274 
L 174.420145 152.191274 
L 174.491647 149.570689 
L 174.605444 149.570689 
L 174.605444 148.915543 
L 174.774759 148.915543 
L 174.774759 146.950105 
L 175.025688 146.950105 
L 175.025688 144.984667 
L 175.381884 144.984667 
L 175.449557 143.674374 
L 175.597519 143.674374 
L 175.597519 141.708936 
L 175.85017 141.708936 
L 175.9292 140.398644 
L 176.319066 140.398644 
L 176.319066 139.088352 
L 176.586878 139.088352 
L 176.586878 138.433206 
L 176.775685 138.433206 
L 176.800705 137.122913 
L 177.171768 137.122913 
L 177.269398 134.502329 
L 177.31801 134.502329 
L 177.330141 133.192037 
L 177.820411 133.192037 
L 177.867512 131.226598 
L 178.170609 131.226598 
L 178.170609 130.571452 
L 178.320204 130.571452 
L 178.423024 128.606014 
L 178.939282 128.606014 
L 178.939282 127.950868 
L 179.115327 127.950868 
L 179.115327 127.295722 
L 179.875772 127.295722 
L 179.875772 125.98543 
L 180.084129 125.98543 
L 180.084129 125.330284 
L 180.784433 125.330284 
L 180.873738 123.364845 
L 181.119435 123.364845 
L 181.119435 122.709699 
L 181.265209 122.709699 
L 181.265209 122.054553 
L 181.798912 122.054553 
L 181.798912 121.399407 
L 181.994913 121.399407 
L 181.994913 120.744261 
L 182.280281 120.744261 
L 182.280281 118.778823 
L 182.61488 118.778823 
L 182.61488 118.123676 
L 183.118098 118.123676 
L 183.118098 116.813384 
L 183.411492 116.813384 
L 183.411492 115.503092 
L 183.700032 115.503092 
L 183.700032 114.847946 
L 183.925813 114.847946 
L 183.925813 114.1928 
L 184.246866 114.1928 
L 184.246866 113.537654 
L 185.01285 113.537654 
L 185.121797 111.572215 
L 185.452227 111.572215 
L 185.452227 110.917069 
L 185.618894 110.917069 
L 185.618894 110.261923 
L 185.739114 110.261923 
L 185.739114 109.606777 
L 186.175396 109.606777 
L 186.284597 108.296485 
L 186.636627 108.296485 
L 186.686342 106.986193 
L 186.96774 106.986193 
L 186.974717 105.675901 
L 187.429142 105.675901 
L 187.429142 105.020754 
L 187.705587 105.020754 
L 187.772353 103.710462 
L 188.030326 103.710462 
L 188.030326 103.055316 
L 188.271591 103.055316 
L 188.30394 101.089878 
L 188.655873 101.089878 
L 188.700159 99.779586 
L 188.775817 99.779586 
L 188.882442 97.814147 
L 189.424193 97.814147 
L 189.424193 97.159001 
L 189.653026 97.159001 
L 189.694854 95.848709 
L 189.973131 95.848709 
L 189.973131 95.193563 
L 190.119361 95.193563 
L 190.119361 92.572979 
L 190.453965 92.572979 
L 190.453965 91.917832 
L 190.641517 91.917832 
L 190.641517 91.262686 
L 191.148492 91.262686 
L 191.148492 90.60754 
L 191.415495 90.60754 
L 191.415495 89.952394 
L 191.576971 89.952394 
L 191.598388 88.642102 
L 191.779384 88.642102 
L 191.779384 87.986956 
L 191.979474 87.986956 
L 191.979474 87.33181 
L 192.707498 87.33181 
L 192.707498 86.676664 
L 192.946874 86.676664 
L 192.946874 86.021518 
L 193.197662 86.021518 
L 193.304741 84.711225 
L 193.468945 84.711225 
L 193.468945 84.056079 
L 193.645898 84.056079 
L 193.721866 82.745787 
L 193.910349 82.745787 
L 193.910349 82.090641 
L 194.239972 82.090641 
L 194.239972 81.435495 
L 194.359137 81.435495 
L 194.413862 79.470057 
L 194.500162 79.470057 
L 194.500162 78.81491 
L 194.698389 78.81491 
L 194.774377 74.884034 
L 194.814473 74.884034 
L 194.814473 74.228888 
L 195.140697 74.228888 
L 195.140697 73.573742 
L 195.465219 73.573742 
L 195.465219 72.918596 
L 195.716332 72.918596 
L 195.771179 71.608303 
L 195.846837 71.608303 
L 195.871984 70.298011 
L 196.013802 70.298011 
L 196.013802 69.642865 
L 196.137984 69.642865 
L 196.199745 67.677427 
L 196.294023 67.677427 
L 196.36338 66.367135 
L 196.614019 66.367135 
L 196.614019 65.711988 
L 196.785757 65.711988 
L 196.785757 64.401696 
L 197.018679 64.401696 
L 197.034358 63.091404 
L 197.14372 63.091404 
L 197.14372 62.436258 
L 197.368098 62.436258 
L 197.368098 61.781112 
L 197.509741 61.781112 
L 197.509741 61.125966 
L 197.729487 61.125966 
L 197.729487 60.47082 
L 198.649776 60.47082 
L 198.649776 59.815674 
L 199.013807 59.815674 
L 199.013807 59.160527 
L 199.540901 59.160527 
L 199.568028 57.850235 
L 199.686215 57.850235 
L 199.686215 57.195089 
L 199.820313 57.195089 
L 199.820313 56.539943 
L 199.999724 56.539943 
L 200.042641 55.229651 
L 200.174036 55.229651 
L 200.278444 53.919359 
L 200.310943 53.919359 
L 200.323926 52.609066 
L 200.488616 52.609066 
L 200.488616 51.95392 
L 200.803937 51.95392 
L 200.838623 50.643628 
L 200.936005 50.643628 
L 200.936005 49.988482 
L 201.067082 49.988482 
L 201.067082 49.333336 
L 201.274161 49.333336 
L 201.378313 48.023044 
L 201.430157 48.023044 
L 201.430157 47.367898 
L 201.741015 47.367898 
L 201.741015 46.712752 
L 202.175284 46.712752 
L 202.175284 46.057605 
L 202.340806 46.057605 
L 202.340806 44.747313 
L 202.458903 44.747313 
L 202.458903 44.092167 
L 202.6587 44.092167 
L 202.769031 41.471583 
L 203.126314 41.471583 
L 203.198001 39.506144 
L 203.247459 39.506144 
L 203.247459 38.850998 
L 203.707768 38.850998 
L 203.707768 38.195852 
L 206.339454 38.195852 
L 206.339454 37.540706 
L 206.871284 37.540706 
L 206.871284 36.88556 
L 207.367888 36.88556 
L 207.367888 36.230414 
L 208.404481 36.230414 
L 208.404481 35.575268 
L 208.659813 35.575268 
L 208.659813 34.920122 
L 213.158179 34.920122 
L 213.158179 34.264976 
L 213.39438 34.264976 
L 213.39438 33.60983 
L 213.633477 33.60983 
L 213.633477 32.954683 
L 214.728232 32.954683 
L 214.824558 30.989245 
L 219.919754 30.989245 
L 219.919754 30.334099 
L 338.688 30.334099 
L 338.688 30.334099 
" style="fill:none;stroke:#000080;stroke-linecap:square;stroke-width:1.5;"/>
   </g>
   <g id="line2d_31">
    <defs>
     <path d="M 0 6 
C 1.591219 6 3.117479 5.367802 4.242641 4.242641 
C 5.367802 3.117479 6 1.591219 6 0 
C 6 -1.591219 5.367802 -3.117479 4.242641 -4.242641 
C 3.117479 -5.367802 1.591219 -6 0 -6 
C -1.591219 -6 -3.117479 -5.367802 -4.242641 -4.242641 
C -5.367802 -3.117479 -6 -1.591219 -6 0 
C -6 1.591219 -5.367802 3.117479 -4.242641 4.242641 
C -3.117479 5.367802 -1.591219 6 0 6 
z
" id="mbbcd011272" style="stroke:#000080;stroke-width:1.5;"/>
    </defs>
    <g>
     <use style="fill-opacity:0;stroke:#000080;stroke-width:1.5;" x="135.813153" xlink:href="#mbbcd011272" y="257.669796"/>
     <use style="fill-opacity:0;stroke:#000080;stroke-width:1.5;" x="183.118098" xlink:href="#mbbcd011272" y="118.123676"/>
     <use style="fill-opacity:0;stroke:#000080;stroke-width:1.5;" x="203.707768" xlink:href="#mbbcd011272" y="38.195852"/>
     <use style="fill-opacity:0;stroke:#000080;stroke-width:1.5;" x="219.919754" xlink:href="#mbbcd011272" y="30.334099"/>
     <use style="fill-opacity:0;stroke:#000080;stroke-width:1.5;" x="338.688" xlink:href="#mbbcd011272" y="30.334099"/>
    </g>
   </g>
   <g id="line2d_32">
    <path style="fill:none;stroke:#000080;stroke-linecap:square;stroke-width:1.5;"/>
    <g/>
   </g>
   <g id="line2d_33">
    <path clip-path="url(#pd07d21d69f)" d="M 204.273046 38.195852 
" style="fill:none;stroke:#000080;stroke-linecap:square;stroke-width:1.5;"/>
    <defs>
     <path d="M -12 12 
L 12 -12 
M -12 -12 
L 12 12 
" id="m7fee7f61ef" style="stroke:#000080;"/>
    </defs>
    <g clip-path="url(#pd07d21d69f)">
     <use style="fill:#000080;stroke:#000080;" x="204.273046" xlink:href="#m7fee7f61ef" y="38.195852"/>
    </g>
   </g>
   <g id="line2d_34">
    <defs>
     <path d="M 0 1.5 
C 0.397805 1.5 0.77937 1.341951 1.06066 1.06066 
C 1.341951 0.77937 1.5 0.397805 1.5 0 
C 1.5 -0.397805 1.341951 -0.77937 1.06066 -1.06066 
C 0.77937 -1.341951 0.397805 -1.5 0 -1.5 
C -0.397805 -1.5 -0.77937 -1.341951 -1.06066 -1.06066 
C -1.341951 -0.77937 -1.5 -0.397805 -1.5 0 
C -1.5 0.397805 -1.341951 0.77937 -1.06066 1.06066 
C -0.77937 1.341951 -0.397805 1.5 0 1.5 
z
" id="m45d79dcf11" style="stroke:#ff00ff;"/>
    </defs>
    <g>
     <use style="fill:#ff00ff;stroke:#ff00ff;" x="181.031383" xlink:href="#m45d79dcf11" y="272.738156"/>
     <use style="fill:#ff00ff;stroke:#ff00ff;" x="181.031383" xlink:href="#m45d79dcf11" y="272.738156"/>
    </g>
   </g>
   <g id="line2d_35">
    <path d="M 85.66744 298.944 
L 85.66744 296.978562 
L 87.850195 296.978562 
L 87.850195 296.323416 
L 102.772397 296.323416 
L 102.772397 295.66827 
L 118.925375 295.66827 
L 118.925375 295.013123 
L 123.985457 295.013123 
L 123.985457 294.357977 
L 125.938745 294.357977 
L 125.938745 293.702831 
L 128.005624 293.702831 
L 128.005624 293.047685 
L 131.099484 293.047685 
L 131.099484 292.392539 
L 131.77355 292.392539 
L 131.77355 291.737393 
L 132.893889 291.737393 
L 132.893889 291.082247 
L 133.946579 291.082247 
L 133.946579 290.427101 
L 134.019394 290.427101 
L 134.019394 289.771955 
L 136.831795 289.771955 
L 136.831795 289.116809 
L 137.794206 289.116809 
L 137.794206 288.461662 
L 138.084384 288.461662 
L 138.084384 287.806516 
L 139.572998 287.806516 
L 139.572998 287.15137 
L 139.678372 287.15137 
L 139.678372 286.496224 
L 139.783113 286.496224 
L 139.783113 285.841078 
L 140.348205 285.841078 
L 140.348205 285.185932 
L 140.39868 285.185932 
L 140.39868 284.530786 
L 141.426256 284.530786 
L 141.426256 283.87564 
L 144.787023 283.87564 
L 144.787023 283.220494 
L 145.740226 283.220494 
L 145.740226 282.565348 
L 149.407627 282.565348 
L 149.407627 281.910201 
L 150.229833 281.910201 
L 150.229833 281.255055 
L 150.710752 281.255055 
L 150.710752 280.599909 
L 150.932558 280.599909 
L 150.932558 279.944763 
L 150.960087 279.944763 
L 150.960087 279.289617 
L 152.761703 279.289617 
L 152.761703 278.634471 
L 153.032466 278.634471 
L 153.032466 277.979325 
L 153.202607 277.979325 
L 153.202607 277.324179 
L 156.796456 277.324179 
L 156.796456 276.669033 
L 157.434196 276.669033 
L 157.434196 276.013887 
L 161.734513 276.013887 
L 161.734513 275.35874 
L 165.625977 275.35874 
L 165.625977 274.703594 
L 165.685193 274.703594 
L 165.685193 274.048448 
L 178.343106 274.048448 
L 178.343106 273.393302 
L 181.031383 273.393302 
L 181.031383 272.738156 
L 338.688 272.738156 
" style="fill:none;stroke:#ff00ff;stroke-linecap:square;stroke-width:1.5;"/>
   </g>
   <g id="line2d_36">
    <defs>
     <path d="M -0 8.485281 
L 5.091169 0 
L 0 -8.485281 
L -5.091169 -0 
z
" id="me9ab5eb81e" style="stroke:#ff00ff;stroke-linejoin:miter;stroke-width:1.5;"/>
    </defs>
    <g>
     <use style="fill-opacity:0;stroke:#ff00ff;stroke-linejoin:miter;stroke-width:1.5;" x="157.434196" xlink:href="#me9ab5eb81e" y="276.669033"/>
     <use style="fill-opacity:0;stroke:#ff00ff;stroke-linejoin:miter;stroke-width:1.5;" x="181.031383" xlink:href="#me9ab5eb81e" y="273.393302"/>
     <use style="fill-opacity:0;stroke:#ff00ff;stroke-linejoin:miter;stroke-width:1.5;" x="181.031383" xlink:href="#me9ab5eb81e" y="272.738156"/>
     <use style="fill-opacity:0;stroke:#ff00ff;stroke-linejoin:miter;stroke-width:1.5;" x="181.031383" xlink:href="#me9ab5eb81e" y="272.738156"/>
     <use style="fill-opacity:0;stroke:#ff00ff;stroke-linejoin:miter;stroke-width:1.5;" x="338.688" xlink:href="#me9ab5eb81e" y="272.738156"/>
    </g>
   </g>
   <g id="line2d_37">
    <path style="fill:none;stroke:#ff00ff;stroke-linecap:square;stroke-width:1.5;"/>
    <g/>
   </g>
   <g id="line2d_38">
    <path clip-path="url(#pd07d21d69f)" d="M 107.680028 295.66827 
" style="fill:none;stroke:#ff00ff;stroke-linecap:square;stroke-width:1.5;"/>
    <defs>
     <path d="M -12 12 
L 12 -12 
M -12 -12 
L 12 12 
" id="m4937c0c2fa" style="stroke:#ff00ff;"/>
    </defs>
    <g clip-path="url(#pd07d21d69f)">
     <use style="fill:#ff00ff;stroke:#ff00ff;" x="107.680028" xlink:href="#m4937c0c2fa" y="295.66827"/>
    </g>
   </g>
   <g id="line2d_39">
    <defs>
     <path d="M 0 1.5 
C 0.397805 1.5 0.77937 1.341951 1.06066 1.06066 
C 1.341951 0.77937 1.5 0.397805 1.5 0 
C 1.5 -0.397805 1.341951 -0.77937 1.06066 -1.06066 
C 0.77937 -1.341951 0.397805 -1.5 0 -1.5 
C -0.397805 -1.5 -0.77937 -1.341951 -1.06066 -1.06066 
C -1.341951 -0.77937 -1.5 -0.397805 -1.5 0 
C -1.5 0.397805 -1.341951 0.77937 -1.06066 1.06066 
C -0.77937 1.341951 -0.397805 1.5 0 1.5 
z
" id="mf642783541" style="stroke:#ff7500;"/>
    </defs>
    <g>
     <use style="fill:#ff7500;stroke:#ff7500;" x="182.493539" xlink:href="#mf642783541" y="30.334099"/>
     <use style="fill:#ff7500;stroke:#ff7500;" x="182.493539" xlink:href="#mf642783541" y="30.334099"/>
    </g>
   </g>
   <g id="line2d_40">
    <path d="M 122.219665 298.944 
L 122.219665 297.633708 
L 123.327293 297.633708 
L 123.327293 296.978562 
L 128.709321 296.978562 
L 128.709321 291.082247 
L 128.905271 291.082247 
L 128.905271 290.427101 
L 130.127931 290.427101 
L 130.127931 289.771955 
L 130.576266 289.771955 
L 130.576266 288.461662 
L 130.752422 288.461662 
L 130.752422 287.806516 
L 130.926816 287.806516 
L 130.926816 283.220494 
L 131.60746 283.220494 
L 131.60746 282.565348 
L 132.181982 282.565348 
L 132.181982 281.910201 
L 132.501978 281.910201 
L 132.501978 280.599909 
L 132.659801 280.599909 
L 132.659801 279.289617 
L 133.04822 279.289617 
L 133.04822 276.669033 
L 133.503183 276.669033 
L 133.503183 275.35874 
L 133.652238 275.35874 
L 133.652238 274.703594 
L 134.450015 274.703594 
L 134.450015 271.427864 
L 135.482227 271.427864 
L 135.482227 270.772718 
L 136.707671 270.772718 
L 136.707671 268.152133 
L 136.831795 268.152133 
L 136.831795 267.496987 
L 137.138292 267.496987 
L 137.138292 265.531549 
L 137.37967 265.531549 
L 137.37967 264.221257 
L 138.369812 264.221257 
L 138.369812 263.566111 
L 138.872098 263.566111 
L 138.872098 262.255818 
L 139.678372 262.255818 
L 139.678372 261.600672 
L 140.195896 261.600672 
L 140.195896 260.945526 
L 140.846504 260.945526 
L 140.846504 259.635234 
L 142.351634 259.635234 
L 142.351634 258.980088 
L 142.752555 258.980088 
L 142.840411 257.669796 
L 143.014805 257.669796 
L 143.014805 257.01465 
L 144.629556 257.01465 
L 144.629556 256.359504 
L 144.94308 256.359504 
L 144.94308 255.704357 
L 145.212864 255.704357 
L 145.212864 255.049211 
L 145.998045 255.049211 
L 145.998045 254.394065 
L 146.179895 254.394065 
L 146.179895 253.738919 
L 146.714338 253.738919 
L 146.714338 253.083773 
L 147.061745 253.083773 
L 147.061745 252.428627 
L 147.570215 252.428627 
L 147.636905 251.118335 
L 147.736463 251.118335 
L 147.736463 250.463189 
L 148.064279 250.463189 
L 148.064279 249.808043 
L 148.888835 249.808043 
L 148.888835 249.152896 
L 149.165411 249.152896 
L 149.226281 247.842604 
L 150.287105 247.842604 
L 150.287105 247.187458 
L 150.542526 247.187458 
L 150.542526 246.532312 
L 150.822008 246.532312 
L 150.822008 245.877166 
L 150.960087 245.877166 
L 150.960087 245.22202 
L 151.475037 245.22202 
L 151.475037 244.566874 
L 151.818809 244.566874 
L 151.923236 242.601435 
L 151.975216 242.601435 
L 151.975216 241.946289 
L 152.155936 241.946289 
L 152.207228 239.980851 
L 152.309362 239.980851 
L 152.309362 239.325705 
L 152.587184 239.325705 
L 152.587184 238.015413 
L 152.909913 238.015413 
L 153.008024 236.049974 
L 153.154164 236.049974 
L 153.154164 235.394828 
L 153.773658 235.394828 
L 153.820412 234.084536 
L 154.029268 234.084536 
L 154.121296 231.463952 
L 154.551917 231.463952 
L 154.618949 230.15366 
L 154.796449 230.15366 
L 154.884527 227.533075 
L 154.994001 227.533075 
L 155.081089 224.912491 
L 155.210911 224.912491 
L 155.210911 224.257345 
L 155.678822 224.257345 
L 155.678822 222.947052 
L 155.908152 222.947052 
L 155.908152 222.291906 
L 156.216093 222.291906 
L 156.216093 220.981614 
L 156.816128 220.981614 
L 156.894595 219.671322 
L 156.933697 219.671322 
L 156.972711 217.705884 
L 157.339055 217.705884 
L 157.339055 217.050738 
L 157.472107 217.050738 
L 157.472107 215.085299 
L 157.902267 215.085299 
L 157.902267 214.430153 
L 158.177196 214.430153 
L 158.231665 212.464715 
L 158.340096 212.464715 
L 158.340096 211.809569 
L 158.501489 211.809569 
L 158.608261 210.499277 
L 159.166924 210.499277 
L 159.166924 209.188984 
L 159.54088 209.188984 
L 159.608019 207.878692 
L 159.824452 207.878692 
L 159.824452 207.223546 
L 160.070889 207.223546 
L 160.136022 205.913254 
L 160.233268 205.913254 
L 160.313893 203.947816 
L 160.410154 203.947816 
L 160.410154 203.292669 
L 160.521792 203.292669 
L 160.616915 201.327231 
L 160.758635 201.327231 
L 160.758635 200.016939 
L 160.883648 200.016939 
L 160.914762 198.706647 
L 161.146363 198.706647 
L 161.146363 198.051501 
L 161.283861 198.051501 
L 161.283861 197.396355 
L 161.450455 197.396355 
L 161.510643 196.086062 
L 161.600536 196.086062 
L 161.70483 194.120624 
L 161.955547 194.120624 
L 162.014019 192.810332 
L 162.173813 192.810332 
L 162.173813 190.844894 
L 162.602318 190.844894 
L 162.602318 190.189747 
L 162.71483 190.189747 
L 162.71483 188.879455 
L 162.868358 188.879455 
L 162.868358 188.224309 
L 163.020547 188.224309 
L 163.020547 187.569163 
L 163.33453 187.569163 
L 163.33453 186.914017 
L 163.482721 186.914017 
L 163.482721 186.258871 
L 163.629664 186.258871 
L 163.735759 184.293433 
L 163.880593 184.293433 
L 163.906798 182.98314 
L 164.050224 182.98314 
L 164.050224 181.672848 
L 164.192481 181.672848 
L 164.192481 181.017702 
L 164.35912 181.017702 
L 164.460881 179.70741 
L 164.574657 179.70741 
L 164.675172 177.741972 
L 164.997901 177.741972 
L 165.022481 176.431679 
L 165.132663 176.431679 
L 165.132663 175.776533 
L 165.387079 175.776533 
L 165.494988 173.155949 
L 165.673366 173.155949 
L 165.697012 171.190511 
L 165.849938 171.190511 
L 165.849938 170.535364 
L 166.001534 170.535364 
L 166.001534 169.880218 
L 166.174831 169.880218 
L 166.174831 169.225072 
L 166.346422 169.225072 
L 166.369174 167.91478 
L 166.628709 167.91478 
L 166.684622 165.949342 
L 166.795913 165.949342 
L 166.795913 165.294196 
L 166.917519 165.294196 
L 167.016388 162.673611 
L 167.08199 162.673611 
L 167.08199 162.018465 
L 167.201624 162.018465 
L 167.288118 160.053027 
L 167.341959 160.053027 
L 167.449146 158.087589 
L 167.502494 158.087589 
L 167.545055 156.777296 
L 167.724788 156.777296 
L 167.819196 155.467004 
L 167.923499 155.467004 
L 168.01684 152.84642 
L 168.435853 152.84642 
L 168.435853 152.191274 
L 168.626667 152.191274 
L 168.666574 150.880981 
L 168.884444 150.880981 
L 168.904116 149.570689 
L 169.031447 149.570689 
L 169.089902 147.605251 
L 169.321786 147.605251 
L 169.3984 146.294959 
L 169.54115 146.294959 
L 169.579021 144.32952 
L 169.767149 144.32952 
L 169.767149 143.674374 
L 169.962523 143.674374 
L 169.962523 142.364082 
L 170.164879 142.364082 
L 170.219663 141.05379 
L 170.508968 141.05379 
L 170.607318 139.743498 
L 170.660731 139.743498 
L 170.740545 137.778059 
L 170.775901 137.778059 
L 170.775901 137.122913 
L 170.925369 137.122913 
L 171.021405 133.847183 
L 171.263501 133.847183 
L 171.280666 132.536891 
L 171.374771 132.536891 
L 171.425887 130.571452 
L 171.502282 130.571452 
L 171.569909 127.950868 
L 171.945501 127.950868 
L 172.036094 125.98543 
L 172.068921 125.98543 
L 172.175184 123.364845 
L 172.401882 123.364845 
L 172.474127 120.089115 
L 172.60978 120.089115 
L 172.673253 117.46853 
L 172.728604 117.46853 
L 172.728604 116.813384 
L 172.846623 116.813384 
L 172.948265 113.537654 
L 173.064812 113.537654 
L 173.09576 112.227362 
L 173.211329 112.227362 
L 173.295595 110.261923 
L 173.500721 110.261923 
L 173.598631 107.641339 
L 173.681051 107.641339 
L 173.681051 106.331047 
L 173.918627 106.331047 
L 174.014225 104.365608 
L 174.080103 104.365608 
L 174.167555 103.055316 
L 174.203864 103.055316 
L 174.297915 100.434732 
L 174.420145 100.434732 
L 174.420145 99.779586 
L 174.541525 99.779586 
L 174.619617 97.159001 
L 174.676192 97.159001 
L 174.781778 94.538417 
L 174.830834 94.538417 
L 174.872772 93.228125 
L 174.949398 93.228125 
L 175.018766 91.917832 
L 175.273058 91.917832 
L 175.347948 90.60754 
L 175.490035 90.60754 
L 175.550576 89.297248 
L 175.604215 89.297248 
L 175.617599 87.986956 
L 175.730949 87.986956 
L 175.817135 84.056079 
L 175.876553 84.056079 
L 175.975136 80.780349 
L 175.988239 80.780349 
L 176.099213 78.159764 
L 176.338333 78.159764 
L 176.338333 77.504618 
L 176.459861 77.504618 
L 176.459861 76.194326 
L 176.731812 76.194326 
L 176.731812 75.53918 
L 176.850639 75.53918 
L 176.931477 73.573742 
L 176.981038 73.573742 
L 177.048955 71.608303 
L 177.165647 71.608303 
L 177.257224 68.987719 
L 177.336204 68.987719 
L 177.402755 66.367135 
L 177.457017 66.367135 
L 177.559054 61.781112 
L 177.684281 61.781112 
L 177.737676 59.815674 
L 177.814514 59.815674 
L 177.914487 57.850235 
L 177.961335 57.850235 
L 178.025547 55.884797 
L 178.077908 55.884797 
L 178.135904 53.919359 
L 178.394524 53.919359 
L 178.44579 51.95392 
L 178.530902 51.95392 
L 178.6156 50.643628 
L 178.677451 50.643628 
L 178.722297 48.67819 
L 178.856145 48.67819 
L 178.950337 46.712752 
L 179.076969 46.712752 
L 179.148138 45.402459 
L 179.24077 45.402459 
L 179.289612 43.437021 
L 179.499694 43.437021 
L 179.579826 41.471583 
L 179.712566 41.471583 
L 179.712566 40.816437 
L 179.839052 40.816437 
L 179.89672 39.506144 
L 180.182234 39.506144 
L 180.23878 38.195852 
L 180.574258 38.195852 
L 180.574258 37.540706 
L 181.109673 37.540706 
L 181.109673 36.88556 
L 181.255528 36.88556 
L 181.36653 34.920122 
L 181.581685 34.920122 
L 181.685914 32.954683 
L 182.073625 32.954683 
L 182.082862 31.644391 
L 182.484517 31.644391 
L 182.493539 30.334099 
L 338.688 30.334099 
L 338.688 30.334099 
" style="fill:none;stroke:#ff7500;stroke-linecap:square;stroke-width:1.5;"/>
   </g>
   <g id="line2d_41">
    <defs>
     <path d="M 0 -6 
L -1.347084 -1.854102 
L -5.706339 -1.854102 
L -2.179628 0.708204 
L -3.526712 4.854102 
L -0 2.291796 
L 3.526712 4.854102 
L 2.179628 0.708204 
L 5.706339 -1.854102 
L 1.347084 -1.854102 
z
" id="m95efab7920" style="stroke:#ff7500;stroke-linejoin:bevel;stroke-width:1.5;"/>
    </defs>
    <g>
     <use style="fill-opacity:0;stroke:#ff7500;stroke-linejoin:bevel;stroke-width:1.5;" x="157.472107" xlink:href="#m95efab7920" y="217.050738"/>
     <use style="fill-opacity:0;stroke:#ff7500;stroke-linejoin:bevel;stroke-width:1.5;" x="175.902897" xlink:href="#m95efab7920" y="82.745787"/>
     <use style="fill-opacity:0;stroke:#ff7500;stroke-linejoin:bevel;stroke-width:1.5;" x="182.493539" xlink:href="#m95efab7920" y="30.334099"/>
     <use style="fill-opacity:0;stroke:#ff7500;stroke-linejoin:bevel;stroke-width:1.5;" x="182.493539" xlink:href="#m95efab7920" y="30.334099"/>
     <use style="fill-opacity:0;stroke:#ff7500;stroke-linejoin:bevel;stroke-width:1.5;" x="338.688" xlink:href="#m95efab7920" y="30.334099"/>
    </g>
   </g>
   <g id="line2d_42">
    <path style="fill:none;stroke:#ff7500;stroke-linecap:square;stroke-width:1.5;"/>
    <g/>
   </g>
   <g id="line2d_43">
    <path clip-path="url(#pd07d21d69f)" d="M 57.6 298.944 
L 57.6 298.944 
L 57.6 298.944 
L 57.6 298.944 
L 338.688 298.944 
" style="fill:none;stroke:#6495ed;stroke-linecap:square;stroke-width:1.5;"/>
   </g>
   <g id="line2d_44">
    <defs>
     <path d="M -0 6 
L 6 -6 
L -6 -6 
z
" id="mff4217d839" style="stroke:#6495ed;stroke-linejoin:miter;stroke-width:1.5;"/>
    </defs>
    <g clip-path="url(#pd07d21d69f)">
     <use style="fill-opacity:0;stroke:#6495ed;stroke-linejoin:miter;stroke-width:1.5;" x="57.6" xlink:href="#mff4217d839" y="298.944"/>
    </g>
   </g>
   <g id="line2d_45">
    <path clip-path="url(#pd07d21d69f)" style="fill:none;stroke:#6495ed;stroke-linecap:square;stroke-width:1.5;"/>
    <g clip-path="url(#pd07d21d69f)">
     <use style="fill-opacity:0;stroke:#6495ed;stroke-linejoin:miter;stroke-width:1.5;" x="-1" xlink:href="#mff4217d839" y="567.553901"/>
     <use style="fill-opacity:0;stroke:#6495ed;stroke-linejoin:miter;stroke-width:1.5;" x="338.688" xlink:href="#mff4217d839" y="567.553901"/>
    </g>
   </g>
   <g id="line2d_46">
    <path d="M 338.688 298.944 
L 369.60768 293.571802 
" style="fill:none;stroke:#6495ed;stroke-linecap:square;stroke-width:1.5;"/>
    <g>
     <use style="fill-opacity:0;stroke:#6495ed;stroke-linejoin:miter;stroke-width:1.5;" x="338.688" xlink:href="#mff4217d839" y="298.944"/>
     <use style="fill-opacity:0;stroke:#6495ed;stroke-linejoin:miter;stroke-width:1.5;" x="369.60768" xlink:href="#mff4217d839" y="293.571802"/>
    </g>
   </g>
   <g id="line2d_47">
    <path d="M 338.688 272.738156 
L 369.60768 207.616634 
" style="fill:none;stroke:#ff00ff;stroke-linecap:square;stroke-width:1.5;"/>
    <g>
     <use style="fill-opacity:0;stroke:#ff00ff;stroke-linejoin:miter;stroke-width:1.5;" x="338.688" xlink:href="#me9ab5eb81e" y="272.738156"/>
     <use style="fill-opacity:0;stroke:#ff00ff;stroke-linejoin:miter;stroke-width:1.5;" x="369.60768" xlink:href="#me9ab5eb81e" y="207.616634"/>
    </g>
   </g>
   <g id="line2d_48">
    <path d="M 338.688 30.334099 
L 369.60768 121.661465 
" style="fill:none;stroke:#000080;stroke-linecap:square;stroke-width:1.5;"/>
    <g>
     <use style="fill-opacity:0;stroke:#000080;stroke-width:1.5;" x="338.688" xlink:href="#mbbcd011272" y="30.334099"/>
     <use style="fill-opacity:0;stroke:#000080;stroke-width:1.5;" x="369.60768" xlink:href="#mbbcd011272" y="121.661465"/>
    </g>
   </g>
   <g id="line2d_49">
    <path d="M 338.688 30.334099 
L 369.60768 35.706297 
" style="fill:none;stroke:#ff7500;stroke-linecap:square;stroke-width:1.5;"/>
    <g>
     <use style="fill-opacity:0;stroke:#ff7500;stroke-linejoin:bevel;stroke-width:1.5;" x="338.688" xlink:href="#m95efab7920" y="30.334099"/>
     <use style="fill-opacity:0;stroke:#ff7500;stroke-linejoin:bevel;stroke-width:1.5;" x="369.60768" xlink:href="#m95efab7920" y="35.706297"/>
    </g>
   </g>
   <g id="line2d_50">
    <path d="M 338.688 298.944 
L 338.688 30.334099 
" style="fill:none;stroke:#000000;stroke-linecap:square;stroke-width:1.5;"/>
   </g>
   <g id="patch_3">
    <path d="M 57.6 298.944 
L 57.6 27.648 
" style="fill:none;stroke:#000000;stroke-linecap:square;stroke-linejoin:miter;stroke-width:0.8;"/>
   </g>
   <g id="patch_4">
    <path d="M 338.688 298.944 
L 338.688 27.648 
" style="fill:none;stroke:#000000;stroke-linecap:square;stroke-linejoin:miter;stroke-width:0.8;"/>
   </g>
   <g id="patch_5">
    <path d="M 57.6 298.944 
L 338.688 298.944 
" style="fill:none;stroke:#000000;stroke-linecap:square;stroke-linejoin:miter;stroke-width:0.8;"/>
   </g>
   <g id="patch_6">
    <path d="M 57.6 27.648 
L 338.688 27.648 
" style="fill:none;stroke:#000000;stroke-linecap:square;stroke-linejoin:miter;stroke-width:0.8;"/>
   </g>
   <g id="text_13">
    <!-- slsqp -->
    <g transform="translate(375.22944 298.262739)scale(0.17 -0.17)">
     <defs>
      <path d="M 14.796875 27.296875 
Q 14.796875 17.390625 18.875 11.75 
Q 22.953125 6.109375 30.078125 6.109375 
Q 37.203125 6.109375 41.296875 11.75 
Q 45.40625 17.390625 45.40625 27.296875 
Q 45.40625 37.203125 41.296875 42.84375 
Q 37.203125 48.484375 30.078125 48.484375 
Q 22.953125 48.484375 18.875 42.84375 
Q 14.796875 37.203125 14.796875 27.296875 
z
M 45.40625 8.203125 
Q 42.578125 3.328125 38.25 0.953125 
Q 33.9375 -1.421875 27.875 -1.421875 
Q 17.96875 -1.421875 11.734375 6.484375 
Q 5.515625 14.40625 5.515625 27.296875 
Q 5.515625 40.1875 11.734375 48.09375 
Q 17.96875 56 27.875 56 
Q 33.9375 56 38.25 53.625 
Q 42.578125 51.265625 45.40625 46.390625 
L 45.40625 54.6875 
L 54.390625 54.6875 
L 54.390625 -20.796875 
L 45.40625 -20.796875 
z
" id="DejaVuSans-113"/>
     </defs>
     <use xlink:href="#DejaVuSans-115"/>
     <use x="52.099609" xlink:href="#DejaVuSans-108"/>
     <use x="79.882812" xlink:href="#DejaVuSans-115"/>
     <use x="131.982422" xlink:href="#DejaVuSans-113"/>
     <use x="195.458984" xlink:href="#DejaVuSans-112"/>
    </g>
   </g>
   <g id="text_14">
    <!-- cobyla -->
    <g transform="translate(375.22944 212.307571)scale(0.17 -0.17)">
     <defs>
      <path d="M 48.6875 27.296875 
Q 48.6875 37.203125 44.609375 42.84375 
Q 40.53125 48.484375 33.40625 48.484375 
Q 26.265625 48.484375 22.1875 42.84375 
Q 18.109375 37.203125 18.109375 27.296875 
Q 18.109375 17.390625 22.1875 11.75 
Q 26.265625 6.109375 33.40625 6.109375 
Q 40.53125 6.109375 44.609375 11.75 
Q 48.6875 17.390625 48.6875 27.296875 
z
M 18.109375 46.390625 
Q 20.953125 51.265625 25.265625 53.625 
Q 29.59375 56 35.59375 56 
Q 45.5625 56 51.78125 48.09375 
Q 58.015625 40.1875 58.015625 27.296875 
Q 58.015625 14.40625 51.78125 6.484375 
Q 45.5625 -1.421875 35.59375 -1.421875 
Q 29.59375 -1.421875 25.265625 0.953125 
Q 20.953125 3.328125 18.109375 8.203125 
L 18.109375 0 
L 9.078125 0 
L 9.078125 75.984375 
L 18.109375 75.984375 
z
" id="DejaVuSans-98"/>
      <path d="M 32.171875 -5.078125 
Q 28.375 -14.84375 24.75 -17.8125 
Q 21.140625 -20.796875 15.09375 -20.796875 
L 7.90625 -20.796875 
L 7.90625 -13.28125 
L 13.1875 -13.28125 
Q 16.890625 -13.28125 18.9375 -11.515625 
Q 21 -9.765625 23.484375 -3.21875 
L 25.09375 0.875 
L 2.984375 54.6875 
L 12.5 54.6875 
L 29.59375 11.921875 
L 46.6875 54.6875 
L 56.203125 54.6875 
z
" id="DejaVuSans-121"/>
     </defs>
     <use xlink:href="#DejaVuSans-99"/>
     <use x="54.980469" xlink:href="#DejaVuSans-111"/>
     <use x="116.162109" xlink:href="#DejaVuSans-98"/>
     <use x="179.638672" xlink:href="#DejaVuSans-121"/>
     <use x="238.818359" xlink:href="#DejaVuSans-108"/>
     <use x="266.601562" xlink:href="#DejaVuSans-97"/>
    </g>
   </g>
   <g id="text_15">
    <!-- alN5 -->
    <g transform="translate(375.22944 126.352403)scale(0.17 -0.17)">
     <defs>
      <path d="M 9.8125 72.90625 
L 23.09375 72.90625 
L 55.421875 11.921875 
L 55.421875 72.90625 
L 64.984375 72.90625 
L 64.984375 0 
L 51.703125 0 
L 19.390625 60.984375 
L 19.390625 0 
L 9.8125 0 
z
" id="DejaVuSans-78"/>
      <path d="M 10.796875 72.90625 
L 49.515625 72.90625 
L 49.515625 64.59375 
L 19.828125 64.59375 
L 19.828125 46.734375 
Q 21.96875 47.46875 24.109375 47.828125 
Q 26.265625 48.1875 28.421875 48.1875 
Q 40.625 48.1875 47.75 41.5 
Q 54.890625 34.8125 54.890625 23.390625 
Q 54.890625 11.625 47.5625 5.09375 
Q 40.234375 -1.421875 26.90625 -1.421875 
Q 22.3125 -1.421875 17.546875 -0.640625 
Q 12.796875 0.140625 7.71875 1.703125 
L 7.71875 11.625 
Q 12.109375 9.234375 16.796875 8.0625 
Q 21.484375 6.890625 26.703125 6.890625 
Q 35.15625 6.890625 40.078125 11.328125 
Q 45.015625 15.765625 45.015625 23.390625 
Q 45.015625 31 40.078125 35.4375 
Q 35.15625 39.890625 26.703125 39.890625 
Q 22.75 39.890625 18.8125 39.015625 
Q 14.890625 38.140625 10.796875 36.28125 
z
" id="DejaVuSans-53"/>
     </defs>
     <use xlink:href="#DejaVuSans-97"/>
     <use x="61.279297" xlink:href="#DejaVuSans-108"/>
     <use x="89.0625" xlink:href="#DejaVuSans-78"/>
     <use x="163.867188" xlink:href="#DejaVuSans-53"/>
    </g>
   </g>
   <g id="text_16">
    <!-- l1p-cmaes -->
    <g transform="translate(375.22944 40.397235)scale(0.17 -0.17)">
     <use xlink:href="#DejaVuSans-108"/>
     <use x="27.783203" xlink:href="#DejaVuSans-49"/>
     <use x="91.40625" xlink:href="#DejaVuSans-112"/>
     <use x="154.882812" xlink:href="#DejaVuSans-45"/>
     <use x="190.966797" xlink:href="#DejaVuSans-99"/>
     <use x="245.947266" xlink:href="#DejaVuSans-109"/>
     <use x="343.359375" xlink:href="#DejaVuSans-97"/>
     <use x="404.638672" xlink:href="#DejaVuSans-101"/>
     <use x="466.162109" xlink:href="#DejaVuSans-115"/>
    </g>
   </g>
   <g id="text_17">
    <!-- bbob-constrained f4, 3-D -->
    <g transform="translate(60.41088 38.111366)scale(0.102 -0.102)">
     <defs>
      <path d="M 40.578125 39.3125 
Q 47.65625 37.796875 51.625 33 
Q 55.609375 28.21875 55.609375 21.1875 
Q 55.609375 10.40625 48.1875 4.484375 
Q 40.765625 -1.421875 27.09375 -1.421875 
Q 22.515625 -1.421875 17.65625 -0.515625 
Q 12.796875 0.390625 7.625 2.203125 
L 7.625 11.71875 
Q 11.71875 9.328125 16.59375 8.109375 
Q 21.484375 6.890625 26.8125 6.890625 
Q 36.078125 6.890625 40.9375 10.546875 
Q 45.796875 14.203125 45.796875 21.1875 
Q 45.796875 27.640625 41.28125 31.265625 
Q 36.765625 34.90625 28.71875 34.90625 
L 20.21875 34.90625 
L 20.21875 43.015625 
L 29.109375 43.015625 
Q 36.375 43.015625 40.234375 45.921875 
Q 44.09375 48.828125 44.09375 54.296875 
Q 44.09375 59.90625 40.109375 62.90625 
Q 36.140625 65.921875 28.71875 65.921875 
Q 24.65625 65.921875 20.015625 65.03125 
Q 15.375 64.15625 9.8125 62.3125 
L 9.8125 71.09375 
Q 15.4375 72.65625 20.34375 73.4375 
Q 25.25 74.21875 29.59375 74.21875 
Q 40.828125 74.21875 47.359375 69.109375 
Q 53.90625 64.015625 53.90625 55.328125 
Q 53.90625 49.265625 50.4375 45.09375 
Q 46.96875 40.921875 40.578125 39.3125 
z
" id="DejaVuSans-51"/>
      <path d="M 19.671875 64.796875 
L 19.671875 8.109375 
L 31.59375 8.109375 
Q 46.6875 8.109375 53.6875 14.9375 
Q 60.6875 21.78125 60.6875 36.53125 
Q 60.6875 51.171875 53.6875 57.984375 
Q 46.6875 64.796875 31.59375 64.796875 
z
M 9.8125 72.90625 
L 30.078125 72.90625 
Q 51.265625 72.90625 61.171875 64.09375 
Q 71.09375 55.28125 71.09375 36.53125 
Q 71.09375 17.671875 61.125 8.828125 
Q 51.171875 0 30.078125 0 
L 9.8125 0 
z
" id="DejaVuSans-68"/>
     </defs>
     <use xlink:href="#DejaVuSans-98"/>
     <use x="63.476562" xlink:href="#DejaVuSans-98"/>
     <use x="126.953125" xlink:href="#DejaVuSans-111"/>
     <use x="188.134766" xlink:href="#DejaVuSans-98"/>
     <use x="251.611328" xlink:href="#DejaVuSans-45"/>
     <use x="287.695312" xlink:href="#DejaVuSans-99"/>
     <use x="342.675781" xlink:href="#DejaVuSans-111"/>
     <use x="403.857422" xlink:href="#DejaVuSans-110"/>
     <use x="467.236328" xlink:href="#DejaVuSans-115"/>
     <use x="519.335938" xlink:href="#DejaVuSans-116"/>
     <use x="558.544922" xlink:href="#DejaVuSans-114"/>
     <use x="599.658203" xlink:href="#DejaVuSans-97"/>
     <use x="660.9375" xlink:href="#DejaVuSans-105"/>
     <use x="688.720703" xlink:href="#DejaVuSans-110"/>
     <use x="752.099609" xlink:href="#DejaVuSans-101"/>
     <use x="813.623047" xlink:href="#DejaVuSans-100"/>
     <use x="877.099609" xlink:href="#DejaVuSans-32"/>
     <use x="908.886719" xlink:href="#DejaVuSans-102"/>
     <use x="944.091797" xlink:href="#DejaVuSans-52"/>
     <use x="1007.714844" xlink:href="#DejaVuSans-44"/>
     <use x="1039.501953" xlink:href="#DejaVuSans-32"/>
     <use x="1071.289062" xlink:href="#DejaVuSans-51"/>
     <use x="1134.912109" xlink:href="#DejaVuSans-45"/>
     <use x="1170.996094" xlink:href="#DejaVuSans-68"/>
    </g>
    <!-- 41 targets: 100..1e-06 -->
    <g transform="translate(60.41088 49.533135)scale(0.102 -0.102)">
     <defs>
      <path d="M 11.71875 12.40625 
L 22.015625 12.40625 
L 22.015625 0 
L 11.71875 0 
z
M 11.71875 51.703125 
L 22.015625 51.703125 
L 22.015625 39.3125 
L 11.71875 39.3125 
z
" id="DejaVuSans-58"/>
     </defs>
     <use xlink:href="#DejaVuSans-52"/>
     <use x="63.623047" xlink:href="#DejaVuSans-49"/>
     <use x="127.246094" xlink:href="#DejaVuSans-32"/>
     <use x="159.033203" xlink:href="#DejaVuSans-116"/>
     <use x="198.242188" xlink:href="#DejaVuSans-97"/>
     <use x="259.521484" xlink:href="#DejaVuSans-114"/>
     <use x="298.884766" xlink:href="#DejaVuSans-103"/>
     <use x="362.361328" xlink:href="#DejaVuSans-101"/>
     <use x="423.884766" xlink:href="#DejaVuSans-116"/>
     <use x="463.09375" xlink:href="#DejaVuSans-115"/>
     <use x="515.193359" xlink:href="#DejaVuSans-58"/>
     <use x="548.884766" xlink:href="#DejaVuSans-32"/>
     <use x="580.671875" xlink:href="#DejaVuSans-49"/>
     <use x="644.294922" xlink:href="#DejaVuSans-48"/>
     <use x="707.917969" xlink:href="#DejaVuSans-48"/>
     <use x="771.541016" xlink:href="#DejaVuSans-46"/>
     <use x="803.328125" xlink:href="#DejaVuSans-46"/>
     <use x="835.115234" xlink:href="#DejaVuSans-49"/>
     <use x="898.738281" xlink:href="#DejaVuSans-101"/>
     <use x="960.261719" xlink:href="#DejaVuSans-45"/>
     <use x="996.345703" xlink:href="#DejaVuSans-48"/>
     <use x="1059.96875" xlink:href="#DejaVuSans-54"/>
    </g>
    <!-- 30, 15 instances -->
    <g transform="translate(60.41088 60.954904)scale(0.102 -0.102)">
     <use xlink:href="#DejaVuSans-51"/>
     <use x="63.623047" xlink:href="#DejaVuSans-48"/>
     <use x="127.246094" xlink:href="#DejaVuSans-44"/>
     <use x="159.033203" xlink:href="#DejaVuSans-32"/>
     <use x="190.820312" xlink:href="#DejaVuSans-49"/>
     <use x="254.443359" xlink:href="#DejaVuSans-53"/>
     <use x="318.066406" xlink:href="#DejaVuSans-32"/>
     <use x="349.853516" xlink:href="#DejaVuSans-105"/>
     <use x="377.636719" xlink:href="#DejaVuSans-110"/>
     <use x="441.015625" xlink:href="#DejaVuSans-115"/>
     <use x="493.115234" xlink:href="#DejaVuSans-116"/>
     <use x="532.324219" xlink:href="#DejaVuSans-97"/>
     <use x="593.603516" xlink:href="#DejaVuSans-110"/>
     <use x="656.982422" xlink:href="#DejaVuSans-99"/>
     <use x="711.962891" xlink:href="#DejaVuSans-101"/>
     <use x="773.486328" xlink:href="#DejaVuSans-115"/>
    </g>
   </g>
   <g id="text_18">
    <!-- v5z33 -->
    <g style="fill:#808080;" transform="translate(183.016656 294.151352)scale(0.1 -0.1)">
     <defs>
      <path d="M 5.515625 54.6875 
L 48.1875 54.6875 
L 48.1875 46.484375 
L 14.40625 7.171875 
L 48.1875 7.171875 
L 48.1875 0 
L 4.296875 0 
L 4.296875 8.203125 
L 38.09375 47.515625 
L 5.515625 47.515625 
z
" id="DejaVuSans-122"/>
     </defs>
     <use xlink:href="#DejaVuSans-118"/>
     <use x="59.179688" xlink:href="#DejaVuSans-53"/>
     <use x="122.802734" xlink:href="#DejaVuSans-122"/>
     <use x="175.292969" xlink:href="#DejaVuSans-51"/>
     <use x="238.916016" xlink:href="#DejaVuSans-51"/>
    </g>
   </g>
   <g id="text_19">
    <!-- 4 Sphere, n/2+6 constraints -->
    <g transform="translate(57.46275 21.648)scale(0.2 -0.2)">
     <defs>
      <path d="M 53.515625 70.515625 
L 53.515625 60.890625 
Q 47.90625 63.578125 42.921875 64.890625 
Q 37.9375 66.21875 33.296875 66.21875 
Q 25.25 66.21875 20.875 63.09375 
Q 16.5 59.96875 16.5 54.203125 
Q 16.5 49.359375 19.40625 46.890625 
Q 22.3125 44.4375 30.421875 42.921875 
L 36.375 41.703125 
Q 47.40625 39.59375 52.65625 34.296875 
Q 57.90625 29 57.90625 20.125 
Q 57.90625 9.515625 50.796875 4.046875 
Q 43.703125 -1.421875 29.984375 -1.421875 
Q 24.8125 -1.421875 18.96875 -0.25 
Q 13.140625 0.921875 6.890625 3.21875 
L 6.890625 13.375 
Q 12.890625 10.015625 18.65625 8.296875 
Q 24.421875 6.59375 29.984375 6.59375 
Q 38.421875 6.59375 43.015625 9.90625 
Q 47.609375 13.234375 47.609375 19.390625 
Q 47.609375 24.75 44.3125 27.78125 
Q 41.015625 30.8125 33.5 32.328125 
L 27.484375 33.5 
Q 16.453125 35.6875 11.515625 40.375 
Q 6.59375 45.0625 6.59375 53.421875 
Q 6.59375 63.09375 13.40625 68.65625 
Q 20.21875 74.21875 32.171875 74.21875 
Q 37.3125 74.21875 42.625 73.28125 
Q 47.953125 72.359375 53.515625 70.515625 
z
" id="DejaVuSans-83"/>
      <path d="M 54.890625 33.015625 
L 54.890625 0 
L 45.90625 0 
L 45.90625 32.71875 
Q 45.90625 40.484375 42.875 44.328125 
Q 39.84375 48.1875 33.796875 48.1875 
Q 26.515625 48.1875 22.3125 43.546875 
Q 18.109375 38.921875 18.109375 30.90625 
L 18.109375 0 
L 9.078125 0 
L 9.078125 75.984375 
L 18.109375 75.984375 
L 18.109375 46.1875 
Q 21.34375 51.125 25.703125 53.5625 
Q 30.078125 56 35.796875 56 
Q 45.21875 56 50.046875 50.171875 
Q 54.890625 44.34375 54.890625 33.015625 
z
" id="DejaVuSans-104"/>
     </defs>
     <use xlink:href="#DejaVuSans-52"/>
     <use x="63.623047" xlink:href="#DejaVuSans-32"/>
     <use x="95.410156" xlink:href="#DejaVuSans-83"/>
     <use x="158.886719" xlink:href="#DejaVuSans-112"/>
     <use x="222.363281" xlink:href="#DejaVuSans-104"/>
     <use x="285.742188" xlink:href="#DejaVuSans-101"/>
     <use x="347.265625" xlink:href="#DejaVuSans-114"/>
     <use x="386.128906" xlink:href="#DejaVuSans-101"/>
     <use x="447.652344" xlink:href="#DejaVuSans-44"/>
     <use x="479.439453" xlink:href="#DejaVuSans-32"/>
     <use x="511.226562" xlink:href="#DejaVuSans-110"/>
     <use x="574.605469" xlink:href="#DejaVuSans-47"/>
     <use x="608.296875" xlink:href="#DejaVuSans-50"/>
     <use x="671.919922" xlink:href="#DejaVuSans-43"/>
     <use x="755.708984" xlink:href="#DejaVuSans-54"/>
     <use x="819.332031" xlink:href="#DejaVuSans-32"/>
     <use x="851.119141" xlink:href="#DejaVuSans-99"/>
     <use x="906.099609" xlink:href="#DejaVuSans-111"/>
     <use x="967.28125" xlink:href="#DejaVuSans-110"/>
     <use x="1030.660156" xlink:href="#DejaVuSans-115"/>
     <use x="1082.759766" xlink:href="#DejaVuSans-116"/>
     <use x="1121.96875" xlink:href="#DejaVuSans-114"/>
     <use x="1163.082031" xlink:href="#DejaVuSans-97"/>
     <use x="1224.361328" xlink:href="#DejaVuSans-105"/>
     <use x="1252.144531" xlink:href="#DejaVuSans-110"/>
     <use x="1315.523438" xlink:href="#DejaVuSans-116"/>
     <use x="1354.732422" xlink:href="#DejaVuSans-115"/>
    </g>
   </g>
  </g>
 </g>
 <defs>
  <clipPath id="pd07d21d69f">
   <rect height="271.296" width="281.088" x="57.6" y="27.648"/>
  </clipPath>
 </defs>
</svg>
