<?xml version="1.0" encoding="utf-8" standalone="no"?>
<!DOCTYPE svg PUBLIC "-//W3C//DTD SVG 1.1//EN"
  "http://www.w3.org/Graphics/SVG/1.1/DTD/svg11.dtd">
<!-- Created with matplotlib (https://matplotlib.org/) -->
<svg height="345.6pt" version="1.1" viewBox="0 0 460.8 345.6" width="460.8pt" xmlns="http://www.w3.org/2000/svg" xmlns:xlink="http://www.w3.org/1999/xlink">
 <metadata>
  <rdf:RDF xmlns:cc="http://creativecommons.org/ns#" xmlns:dc="http://purl.org/dc/elements/1.1/" xmlns:rdf="http://www.w3.org/1999/02/22-rdf-syntax-ns#">
   <cc:Work>
    <dc:type rdf:resource="http://purl.org/dc/dcmitype/StillImage"/>
    <dc:date>2021-04-09T10:16:57.117592</dc:date>
    <dc:format>image/svg+xml</dc:format>
    <dc:creator>
     <cc:Agent>
      <dc:title>Matplotlib v3.3.3, https://matplotlib.org/</dc:title>
     </cc:Agent>
    </dc:creator>
   </cc:Work>
  </rdf:RDF>
 </metadata>
 <defs>
  <style type="text/css">*{stroke-linecap:butt;stroke-linejoin:round;}</style>
 </defs>
 <g id="figure_1">
  <g id="patch_1">
   <path d="M 0 345.6 
L 460.8 345.6 
L 460.8 0 
L 0 0 
z
" style="fill:#ffffff;"/>
  </g>
  <g id="axes_1">
   <g id="patch_2">
    <path d="M 57.6 298.944 
L 338.688 298.944 
L 338.688 27.648 
L 57.6 27.648 
z
" style="fill:#ffffff;"/>
   </g>
   <g id="matplotlib.axis_1">
    <g id="xtick_1">
     <g id="line2d_1">
      <path clip-path="url(#p5d0fd7d408)" d="M 57.6 298.944 
L 57.6 27.648 
" style="fill:none;stroke:#b0b0b0;stroke-linecap:square;stroke-width:0.8;"/>
     </g>
     <g id="line2d_2">
      <defs>
       <path d="M 0 0 
L 0 3.5 
" id="m3aebc9255c" style="stroke:#000000;stroke-width:0.8;"/>
      </defs>
      <g>
       <use style="stroke:#000000;stroke-width:0.8;" x="57.6" xlink:href="#m3aebc9255c" y="298.944"/>
      </g>
     </g>
     <g id="text_1">
      <!-- 0 -->
      <g transform="translate(51.2375 321.140875)scale(0.2 -0.2)">
       <defs>
        <path d="M 31.78125 66.40625 
Q 24.171875 66.40625 20.328125 58.90625 
Q 16.5 51.421875 16.5 36.375 
Q 16.5 21.390625 20.328125 13.890625 
Q 24.171875 6.390625 31.78125 6.390625 
Q 39.453125 6.390625 43.28125 13.890625 
Q 47.125 21.390625 47.125 36.375 
Q 47.125 51.421875 43.28125 58.90625 
Q 39.453125 66.40625 31.78125 66.40625 
z
M 31.78125 74.21875 
Q 44.046875 74.21875 50.515625 64.515625 
Q 56.984375 54.828125 56.984375 36.375 
Q 56.984375 17.96875 50.515625 8.265625 
Q 44.046875 -1.421875 31.78125 -1.421875 
Q 19.53125 -1.421875 13.0625 8.265625 
Q 6.59375 17.96875 6.59375 36.375 
Q 6.59375 54.828125 13.0625 64.515625 
Q 19.53125 74.21875 31.78125 74.21875 
z
" id="DejaVuSans-48"/>
       </defs>
       <use xlink:href="#DejaVuSans-48"/>
      </g>
     </g>
    </g>
    <g id="xtick_2">
     <g id="line2d_3">
      <path clip-path="url(#p5d0fd7d408)" d="M 137.910857 298.944 
L 137.910857 27.648 
" style="fill:none;stroke:#b0b0b0;stroke-linecap:square;stroke-width:0.8;"/>
     </g>
     <g id="line2d_4">
      <g>
       <use style="stroke:#000000;stroke-width:0.8;" x="137.910857" xlink:href="#m3aebc9255c" y="298.944"/>
      </g>
     </g>
     <g id="text_2">
      <!-- 2 -->
      <g transform="translate(131.548357 321.140875)scale(0.2 -0.2)">
       <defs>
        <path d="M 19.1875 8.296875 
L 53.609375 8.296875 
L 53.609375 0 
L 7.328125 0 
L 7.328125 8.296875 
Q 12.9375 14.109375 22.625 23.890625 
Q 32.328125 33.6875 34.8125 36.53125 
Q 39.546875 41.84375 41.421875 45.53125 
Q 43.3125 49.21875 43.3125 52.78125 
Q 43.3125 58.59375 39.234375 62.25 
Q 35.15625 65.921875 28.609375 65.921875 
Q 23.96875 65.921875 18.8125 64.3125 
Q 13.671875 62.703125 7.8125 59.421875 
L 7.8125 69.390625 
Q 13.765625 71.78125 18.9375 73 
Q 24.125 74.21875 28.421875 74.21875 
Q 39.75 74.21875 46.484375 68.546875 
Q 53.21875 62.890625 53.21875 53.421875 
Q 53.21875 48.921875 51.53125 44.890625 
Q 49.859375 40.875 45.40625 35.40625 
Q 44.1875 33.984375 37.640625 27.21875 
Q 31.109375 20.453125 19.1875 8.296875 
z
" id="DejaVuSans-50"/>
       </defs>
       <use xlink:href="#DejaVuSans-50"/>
      </g>
     </g>
    </g>
    <g id="xtick_3">
     <g id="line2d_5">
      <path clip-path="url(#p5d0fd7d408)" d="M 218.221714 298.944 
L 218.221714 27.648 
" style="fill:none;stroke:#b0b0b0;stroke-linecap:square;stroke-width:0.8;"/>
     </g>
     <g id="line2d_6">
      <g>
       <use style="stroke:#000000;stroke-width:0.8;" x="218.221714" xlink:href="#m3aebc9255c" y="298.944"/>
      </g>
     </g>
     <g id="text_3">
      <!-- 4 -->
      <g transform="translate(211.859214 321.140875)scale(0.2 -0.2)">
       <defs>
        <path d="M 37.796875 64.3125 
L 12.890625 25.390625 
L 37.796875 25.390625 
z
M 35.203125 72.90625 
L 47.609375 72.90625 
L 47.609375 25.390625 
L 58.015625 25.390625 
L 58.015625 17.1875 
L 47.609375 17.1875 
L 47.609375 0 
L 37.796875 0 
L 37.796875 17.1875 
L 4.890625 17.1875 
L 4.890625 26.703125 
z
" id="DejaVuSans-52"/>
       </defs>
       <use xlink:href="#DejaVuSans-52"/>
      </g>
     </g>
    </g>
    <g id="xtick_4">
     <g id="line2d_7">
      <path clip-path="url(#p5d0fd7d408)" d="M 298.532571 298.944 
L 298.532571 27.648 
" style="fill:none;stroke:#b0b0b0;stroke-linecap:square;stroke-width:0.8;"/>
     </g>
     <g id="line2d_8">
      <g>
       <use style="stroke:#000000;stroke-width:0.8;" x="298.532571" xlink:href="#m3aebc9255c" y="298.944"/>
      </g>
     </g>
     <g id="text_4">
      <!-- 6 -->
      <g transform="translate(292.170071 321.140875)scale(0.2 -0.2)">
       <defs>
        <path d="M 33.015625 40.375 
Q 26.375 40.375 22.484375 35.828125 
Q 18.609375 31.296875 18.609375 23.390625 
Q 18.609375 15.53125 22.484375 10.953125 
Q 26.375 6.390625 33.015625 6.390625 
Q 39.65625 6.390625 43.53125 10.953125 
Q 47.40625 15.53125 47.40625 23.390625 
Q 47.40625 31.296875 43.53125 35.828125 
Q 39.65625 40.375 33.015625 40.375 
z
M 52.59375 71.296875 
L 52.59375 62.3125 
Q 48.875 64.0625 45.09375 64.984375 
Q 41.3125 65.921875 37.59375 65.921875 
Q 27.828125 65.921875 22.671875 59.328125 
Q 17.53125 52.734375 16.796875 39.40625 
Q 19.671875 43.65625 24.015625 45.921875 
Q 28.375 48.1875 33.59375 48.1875 
Q 44.578125 48.1875 50.953125 41.515625 
Q 57.328125 34.859375 57.328125 23.390625 
Q 57.328125 12.15625 50.6875 5.359375 
Q 44.046875 -1.421875 33.015625 -1.421875 
Q 20.359375 -1.421875 13.671875 8.265625 
Q 6.984375 17.96875 6.984375 36.375 
Q 6.984375 53.65625 15.1875 63.9375 
Q 23.390625 74.21875 37.203125 74.21875 
Q 40.921875 74.21875 44.703125 73.484375 
Q 48.484375 72.75 52.59375 71.296875 
z
" id="DejaVuSans-54"/>
       </defs>
       <use xlink:href="#DejaVuSans-54"/>
      </g>
     </g>
    </g>
    <g id="xtick_5">
     <g id="line2d_9">
      <path clip-path="url(#p5d0fd7d408)" d="M 97.755429 298.944 
L 97.755429 27.648 
" style="fill:none;stroke:#b0b0b0;stroke-linecap:square;stroke-width:0.8;"/>
     </g>
     <g id="line2d_10">
      <defs>
       <path d="M 0 0 
L 0 2 
" id="m04cbdb85c0" style="stroke:#000000;stroke-width:0.6;"/>
      </defs>
      <g>
       <use style="stroke:#000000;stroke-width:0.6;" x="97.755429" xlink:href="#m04cbdb85c0" y="298.944"/>
      </g>
     </g>
    </g>
    <g id="xtick_6">
     <g id="line2d_11">
      <path clip-path="url(#p5d0fd7d408)" d="M 178.066286 298.944 
L 178.066286 27.648 
" style="fill:none;stroke:#b0b0b0;stroke-linecap:square;stroke-width:0.8;"/>
     </g>
     <g id="line2d_12">
      <g>
       <use style="stroke:#000000;stroke-width:0.6;" x="178.066286" xlink:href="#m04cbdb85c0" y="298.944"/>
      </g>
     </g>
    </g>
    <g id="xtick_7">
     <g id="line2d_13">
      <path clip-path="url(#p5d0fd7d408)" d="M 258.377143 298.944 
L 258.377143 27.648 
" style="fill:none;stroke:#b0b0b0;stroke-linecap:square;stroke-width:0.8;"/>
     </g>
     <g id="line2d_14">
      <g>
       <use style="stroke:#000000;stroke-width:0.6;" x="258.377143" xlink:href="#m04cbdb85c0" y="298.944"/>
      </g>
     </g>
    </g>
    <g id="xtick_8">
     <g id="line2d_15">
      <path clip-path="url(#p5d0fd7d408)" d="M 338.688 298.944 
L 338.688 27.648 
" style="fill:none;stroke:#b0b0b0;stroke-linecap:square;stroke-width:0.8;"/>
     </g>
     <g id="line2d_16">
      <g>
       <use style="stroke:#000000;stroke-width:0.6;" x="338.688" xlink:href="#m04cbdb85c0" y="298.944"/>
      </g>
     </g>
    </g>
    <g id="text_5">
     <!-- log10(# (f+g)-evals / dimension) -->
     <g transform="translate(58.145016 342.217594)scale(0.17 -0.17)">
      <defs>
       <path d="M 9.421875 75.984375 
L 18.40625 75.984375 
L 18.40625 0 
L 9.421875 0 
z
" id="DejaVuSans-108"/>
       <path d="M 30.609375 48.390625 
Q 23.390625 48.390625 19.1875 42.75 
Q 14.984375 37.109375 14.984375 27.296875 
Q 14.984375 17.484375 19.15625 11.84375 
Q 23.34375 6.203125 30.609375 6.203125 
Q 37.796875 6.203125 41.984375 11.859375 
Q 46.1875 17.53125 46.1875 27.296875 
Q 46.1875 37.015625 41.984375 42.703125 
Q 37.796875 48.390625 30.609375 48.390625 
z
M 30.609375 56 
Q 42.328125 56 49.015625 48.375 
Q 55.71875 40.765625 55.71875 27.296875 
Q 55.71875 13.875 49.015625 6.21875 
Q 42.328125 -1.421875 30.609375 -1.421875 
Q 18.84375 -1.421875 12.171875 6.21875 
Q 5.515625 13.875 5.515625 27.296875 
Q 5.515625 40.765625 12.171875 48.375 
Q 18.84375 56 30.609375 56 
z
" id="DejaVuSans-111"/>
       <path d="M 45.40625 27.984375 
Q 45.40625 37.75 41.375 43.109375 
Q 37.359375 48.484375 30.078125 48.484375 
Q 22.859375 48.484375 18.828125 43.109375 
Q 14.796875 37.75 14.796875 27.984375 
Q 14.796875 18.265625 18.828125 12.890625 
Q 22.859375 7.515625 30.078125 7.515625 
Q 37.359375 7.515625 41.375 12.890625 
Q 45.40625 18.265625 45.40625 27.984375 
z
M 54.390625 6.78125 
Q 54.390625 -7.171875 48.1875 -13.984375 
Q 42 -20.796875 29.203125 -20.796875 
Q 24.46875 -20.796875 20.265625 -20.09375 
Q 16.0625 -19.390625 12.109375 -17.921875 
L 12.109375 -9.1875 
Q 16.0625 -11.328125 19.921875 -12.34375 
Q 23.78125 -13.375 27.78125 -13.375 
Q 36.625 -13.375 41.015625 -8.765625 
Q 45.40625 -4.15625 45.40625 5.171875 
L 45.40625 9.625 
Q 42.625 4.78125 38.28125 2.390625 
Q 33.9375 0 27.875 0 
Q 17.828125 0 11.671875 7.65625 
Q 5.515625 15.328125 5.515625 27.984375 
Q 5.515625 40.671875 11.671875 48.328125 
Q 17.828125 56 27.875 56 
Q 33.9375 56 38.28125 53.609375 
Q 42.625 51.21875 45.40625 46.390625 
L 45.40625 54.6875 
L 54.390625 54.6875 
z
" id="DejaVuSans-103"/>
       <path d="M 12.40625 8.296875 
L 28.515625 8.296875 
L 28.515625 63.921875 
L 10.984375 60.40625 
L 10.984375 69.390625 
L 28.421875 72.90625 
L 38.28125 72.90625 
L 38.28125 8.296875 
L 54.390625 8.296875 
L 54.390625 0 
L 12.40625 0 
z
" id="DejaVuSans-49"/>
       <path d="M 31 75.875 
Q 24.46875 64.65625 21.28125 53.65625 
Q 18.109375 42.671875 18.109375 31.390625 
Q 18.109375 20.125 21.3125 9.0625 
Q 24.515625 -2 31 -13.1875 
L 23.1875 -13.1875 
Q 15.875 -1.703125 12.234375 9.375 
Q 8.59375 20.453125 8.59375 31.390625 
Q 8.59375 42.28125 12.203125 53.3125 
Q 15.828125 64.359375 23.1875 75.875 
z
" id="DejaVuSans-40"/>
       <path d="M 51.125 44 
L 36.921875 44 
L 32.8125 27.6875 
L 47.125 27.6875 
z
M 43.796875 71.78125 
L 38.71875 51.515625 
L 52.984375 51.515625 
L 58.109375 71.78125 
L 65.921875 71.78125 
L 60.890625 51.515625 
L 76.125 51.515625 
L 76.125 44 
L 58.984375 44 
L 54.984375 27.6875 
L 70.515625 27.6875 
L 70.515625 20.21875 
L 53.078125 20.21875 
L 48 0 
L 40.1875 0 
L 45.21875 20.21875 
L 30.90625 20.21875 
L 25.875 0 
L 18.015625 0 
L 23.09375 20.21875 
L 7.71875 20.21875 
L 7.71875 27.6875 
L 24.90625 27.6875 
L 29 44 
L 13.28125 44 
L 13.28125 51.515625 
L 30.90625 51.515625 
L 35.890625 71.78125 
z
" id="DejaVuSans-35"/>
       <path id="DejaVuSans-32"/>
       <path d="M 37.109375 75.984375 
L 37.109375 68.5 
L 28.515625 68.5 
Q 23.6875 68.5 21.796875 66.546875 
Q 19.921875 64.59375 19.921875 59.515625 
L 19.921875 54.6875 
L 34.71875 54.6875 
L 34.71875 47.703125 
L 19.921875 47.703125 
L 19.921875 0 
L 10.890625 0 
L 10.890625 47.703125 
L 2.296875 47.703125 
L 2.296875 54.6875 
L 10.890625 54.6875 
L 10.890625 58.5 
Q 10.890625 67.625 15.140625 71.796875 
Q 19.390625 75.984375 28.609375 75.984375 
z
" id="DejaVuSans-102"/>
       <path d="M 46 62.703125 
L 46 35.5 
L 73.1875 35.5 
L 73.1875 27.203125 
L 46 27.203125 
L 46 0 
L 37.796875 0 
L 37.796875 27.203125 
L 10.59375 27.203125 
L 10.59375 35.5 
L 37.796875 35.5 
L 37.796875 62.703125 
z
" id="DejaVuSans-43"/>
       <path d="M 8.015625 75.875 
L 15.828125 75.875 
Q 23.140625 64.359375 26.78125 53.3125 
Q 30.421875 42.28125 30.421875 31.390625 
Q 30.421875 20.453125 26.78125 9.375 
Q 23.140625 -1.703125 15.828125 -13.1875 
L 8.015625 -13.1875 
Q 14.5 -2 17.703125 9.0625 
Q 20.90625 20.125 20.90625 31.390625 
Q 20.90625 42.671875 17.703125 53.65625 
Q 14.5 64.65625 8.015625 75.875 
z
" id="DejaVuSans-41"/>
       <path d="M 4.890625 31.390625 
L 31.203125 31.390625 
L 31.203125 23.390625 
L 4.890625 23.390625 
z
" id="DejaVuSans-45"/>
       <path d="M 56.203125 29.59375 
L 56.203125 25.203125 
L 14.890625 25.203125 
Q 15.484375 15.921875 20.484375 11.0625 
Q 25.484375 6.203125 34.421875 6.203125 
Q 39.59375 6.203125 44.453125 7.46875 
Q 49.3125 8.734375 54.109375 11.28125 
L 54.109375 2.78125 
Q 49.265625 0.734375 44.1875 -0.34375 
Q 39.109375 -1.421875 33.890625 -1.421875 
Q 20.796875 -1.421875 13.15625 6.1875 
Q 5.515625 13.8125 5.515625 26.8125 
Q 5.515625 40.234375 12.765625 48.109375 
Q 20.015625 56 32.328125 56 
Q 43.359375 56 49.78125 48.890625 
Q 56.203125 41.796875 56.203125 29.59375 
z
M 47.21875 32.234375 
Q 47.125 39.59375 43.09375 43.984375 
Q 39.0625 48.390625 32.421875 48.390625 
Q 24.90625 48.390625 20.390625 44.140625 
Q 15.875 39.890625 15.1875 32.171875 
z
" id="DejaVuSans-101"/>
       <path d="M 2.984375 54.6875 
L 12.5 54.6875 
L 29.59375 8.796875 
L 46.6875 54.6875 
L 56.203125 54.6875 
L 35.6875 0 
L 23.484375 0 
z
" id="DejaVuSans-118"/>
       <path d="M 34.28125 27.484375 
Q 23.390625 27.484375 19.1875 25 
Q 14.984375 22.515625 14.984375 16.5 
Q 14.984375 11.71875 18.140625 8.90625 
Q 21.296875 6.109375 26.703125 6.109375 
Q 34.1875 6.109375 38.703125 11.40625 
Q 43.21875 16.703125 43.21875 25.484375 
L 43.21875 27.484375 
z
M 52.203125 31.203125 
L 52.203125 0 
L 43.21875 0 
L 43.21875 8.296875 
Q 40.140625 3.328125 35.546875 0.953125 
Q 30.953125 -1.421875 24.3125 -1.421875 
Q 15.921875 -1.421875 10.953125 3.296875 
Q 6 8.015625 6 15.921875 
Q 6 25.140625 12.171875 29.828125 
Q 18.359375 34.515625 30.609375 34.515625 
L 43.21875 34.515625 
L 43.21875 35.40625 
Q 43.21875 41.609375 39.140625 45 
Q 35.0625 48.390625 27.6875 48.390625 
Q 23 48.390625 18.546875 47.265625 
Q 14.109375 46.140625 10.015625 43.890625 
L 10.015625 52.203125 
Q 14.9375 54.109375 19.578125 55.046875 
Q 24.21875 56 28.609375 56 
Q 40.484375 56 46.34375 49.84375 
Q 52.203125 43.703125 52.203125 31.203125 
z
" id="DejaVuSans-97"/>
       <path d="M 44.28125 53.078125 
L 44.28125 44.578125 
Q 40.484375 46.53125 36.375 47.5 
Q 32.28125 48.484375 27.875 48.484375 
Q 21.1875 48.484375 17.84375 46.4375 
Q 14.5 44.390625 14.5 40.28125 
Q 14.5 37.15625 16.890625 35.375 
Q 19.28125 33.59375 26.515625 31.984375 
L 29.59375 31.296875 
Q 39.15625 29.25 43.1875 25.515625 
Q 47.21875 21.78125 47.21875 15.09375 
Q 47.21875 7.46875 41.1875 3.015625 
Q 35.15625 -1.421875 24.609375 -1.421875 
Q 20.21875 -1.421875 15.453125 -0.5625 
Q 10.6875 0.296875 5.421875 2 
L 5.421875 11.28125 
Q 10.40625 8.6875 15.234375 7.390625 
Q 20.0625 6.109375 24.8125 6.109375 
Q 31.15625 6.109375 34.5625 8.28125 
Q 37.984375 10.453125 37.984375 14.40625 
Q 37.984375 18.0625 35.515625 20.015625 
Q 33.0625 21.96875 24.703125 23.78125 
L 21.578125 24.515625 
Q 13.234375 26.265625 9.515625 29.90625 
Q 5.8125 33.546875 5.8125 39.890625 
Q 5.8125 47.609375 11.28125 51.796875 
Q 16.75 56 26.8125 56 
Q 31.78125 56 36.171875 55.265625 
Q 40.578125 54.546875 44.28125 53.078125 
z
" id="DejaVuSans-115"/>
       <path d="M 25.390625 72.90625 
L 33.6875 72.90625 
L 8.296875 -9.28125 
L 0 -9.28125 
z
" id="DejaVuSans-47"/>
       <path d="M 45.40625 46.390625 
L 45.40625 75.984375 
L 54.390625 75.984375 
L 54.390625 0 
L 45.40625 0 
L 45.40625 8.203125 
Q 42.578125 3.328125 38.25 0.953125 
Q 33.9375 -1.421875 27.875 -1.421875 
Q 17.96875 -1.421875 11.734375 6.484375 
Q 5.515625 14.40625 5.515625 27.296875 
Q 5.515625 40.1875 11.734375 48.09375 
Q 17.96875 56 27.875 56 
Q 33.9375 56 38.25 53.625 
Q 42.578125 51.265625 45.40625 46.390625 
z
M 14.796875 27.296875 
Q 14.796875 17.390625 18.875 11.75 
Q 22.953125 6.109375 30.078125 6.109375 
Q 37.203125 6.109375 41.296875 11.75 
Q 45.40625 17.390625 45.40625 27.296875 
Q 45.40625 37.203125 41.296875 42.84375 
Q 37.203125 48.484375 30.078125 48.484375 
Q 22.953125 48.484375 18.875 42.84375 
Q 14.796875 37.203125 14.796875 27.296875 
z
" id="DejaVuSans-100"/>
       <path d="M 9.421875 54.6875 
L 18.40625 54.6875 
L 18.40625 0 
L 9.421875 0 
z
M 9.421875 75.984375 
L 18.40625 75.984375 
L 18.40625 64.59375 
L 9.421875 64.59375 
z
" id="DejaVuSans-105"/>
       <path d="M 52 44.1875 
Q 55.375 50.25 60.0625 53.125 
Q 64.75 56 71.09375 56 
Q 79.640625 56 84.28125 50.015625 
Q 88.921875 44.046875 88.921875 33.015625 
L 88.921875 0 
L 79.890625 0 
L 79.890625 32.71875 
Q 79.890625 40.578125 77.09375 44.375 
Q 74.3125 48.1875 68.609375 48.1875 
Q 61.625 48.1875 57.5625 43.546875 
Q 53.515625 38.921875 53.515625 30.90625 
L 53.515625 0 
L 44.484375 0 
L 44.484375 32.71875 
Q 44.484375 40.625 41.703125 44.40625 
Q 38.921875 48.1875 33.109375 48.1875 
Q 26.21875 48.1875 22.15625 43.53125 
Q 18.109375 38.875 18.109375 30.90625 
L 18.109375 0 
L 9.078125 0 
L 9.078125 54.6875 
L 18.109375 54.6875 
L 18.109375 46.1875 
Q 21.1875 51.21875 25.484375 53.609375 
Q 29.78125 56 35.6875 56 
Q 41.65625 56 45.828125 52.96875 
Q 50 49.953125 52 44.1875 
z
" id="DejaVuSans-109"/>
       <path d="M 54.890625 33.015625 
L 54.890625 0 
L 45.90625 0 
L 45.90625 32.71875 
Q 45.90625 40.484375 42.875 44.328125 
Q 39.84375 48.1875 33.796875 48.1875 
Q 26.515625 48.1875 22.3125 43.546875 
Q 18.109375 38.921875 18.109375 30.90625 
L 18.109375 0 
L 9.078125 0 
L 9.078125 54.6875 
L 18.109375 54.6875 
L 18.109375 46.1875 
Q 21.34375 51.125 25.703125 53.5625 
Q 30.078125 56 35.796875 56 
Q 45.21875 56 50.046875 50.171875 
Q 54.890625 44.34375 54.890625 33.015625 
z
" id="DejaVuSans-110"/>
      </defs>
      <use xlink:href="#DejaVuSans-108"/>
      <use x="27.783203" xlink:href="#DejaVuSans-111"/>
      <use x="88.964844" xlink:href="#DejaVuSans-103"/>
      <use x="152.441406" xlink:href="#DejaVuSans-49"/>
      <use x="216.064453" xlink:href="#DejaVuSans-48"/>
      <use x="279.6875" xlink:href="#DejaVuSans-40"/>
      <use x="318.701172" xlink:href="#DejaVuSans-35"/>
      <use x="402.490234" xlink:href="#DejaVuSans-32"/>
      <use x="434.277344" xlink:href="#DejaVuSans-40"/>
      <use x="473.291016" xlink:href="#DejaVuSans-102"/>
      <use x="508.496094" xlink:href="#DejaVuSans-43"/>
      <use x="592.285156" xlink:href="#DejaVuSans-103"/>
      <use x="655.761719" xlink:href="#DejaVuSans-41"/>
      <use x="694.775391" xlink:href="#DejaVuSans-45"/>
      <use x="730.859375" xlink:href="#DejaVuSans-101"/>
      <use x="792.382812" xlink:href="#DejaVuSans-118"/>
      <use x="851.5625" xlink:href="#DejaVuSans-97"/>
      <use x="912.841797" xlink:href="#DejaVuSans-108"/>
      <use x="940.625" xlink:href="#DejaVuSans-115"/>
      <use x="992.724609" xlink:href="#DejaVuSans-32"/>
      <use x="1024.511719" xlink:href="#DejaVuSans-47"/>
      <use x="1058.203125" xlink:href="#DejaVuSans-32"/>
      <use x="1089.990234" xlink:href="#DejaVuSans-100"/>
      <use x="1153.466797" xlink:href="#DejaVuSans-105"/>
      <use x="1181.25" xlink:href="#DejaVuSans-109"/>
      <use x="1278.662109" xlink:href="#DejaVuSans-101"/>
      <use x="1340.185547" xlink:href="#DejaVuSans-110"/>
      <use x="1403.564453" xlink:href="#DejaVuSans-115"/>
      <use x="1455.664062" xlink:href="#DejaVuSans-105"/>
      <use x="1483.447266" xlink:href="#DejaVuSans-111"/>
      <use x="1544.628906" xlink:href="#DejaVuSans-110"/>
      <use x="1608.007812" xlink:href="#DejaVuSans-41"/>
     </g>
    </g>
   </g>
   <g id="matplotlib.axis_2">
    <g id="ytick_1">
     <g id="line2d_17">
      <path clip-path="url(#p5d0fd7d408)" d="M 57.6 298.944 
L 338.688 298.944 
" style="fill:none;stroke:#b0b0b0;stroke-linecap:square;stroke-width:0.8;"/>
     </g>
     <g id="line2d_18">
      <defs>
       <path d="M 0 0 
L -3.5 0 
" id="m53b56c505e" style="stroke:#000000;stroke-width:0.8;"/>
      </defs>
      <g>
       <use style="stroke:#000000;stroke-width:0.8;" x="57.6" xlink:href="#m53b56c505e" y="298.944"/>
      </g>
     </g>
     <g id="text_6">
      <!-- 0.0 -->
      <g transform="translate(25.155 305.02275)scale(0.16 -0.16)">
       <defs>
        <path d="M 10.6875 12.40625 
L 21 12.40625 
L 21 0 
L 10.6875 0 
z
" id="DejaVuSans-46"/>
       </defs>
       <use xlink:href="#DejaVuSans-48"/>
       <use x="63.623047" xlink:href="#DejaVuSans-46"/>
       <use x="95.410156" xlink:href="#DejaVuSans-48"/>
      </g>
     </g>
    </g>
    <g id="ytick_2">
     <g id="line2d_19">
      <path clip-path="url(#p5d0fd7d408)" d="M 57.6 245.22202 
L 338.688 245.22202 
" style="fill:none;stroke:#b0b0b0;stroke-linecap:square;stroke-width:0.8;"/>
     </g>
     <g id="line2d_20">
      <g>
       <use style="stroke:#000000;stroke-width:0.8;" x="57.6" xlink:href="#m53b56c505e" y="245.22202"/>
      </g>
     </g>
     <g id="text_7">
      <!-- 0.2 -->
      <g transform="translate(25.155 251.30077)scale(0.16 -0.16)">
       <use xlink:href="#DejaVuSans-48"/>
       <use x="63.623047" xlink:href="#DejaVuSans-46"/>
       <use x="95.410156" xlink:href="#DejaVuSans-50"/>
      </g>
     </g>
    </g>
    <g id="ytick_3">
     <g id="line2d_21">
      <path clip-path="url(#p5d0fd7d408)" d="M 57.6 191.50004 
L 338.688 191.50004 
" style="fill:none;stroke:#b0b0b0;stroke-linecap:square;stroke-width:0.8;"/>
     </g>
     <g id="line2d_22">
      <g>
       <use style="stroke:#000000;stroke-width:0.8;" x="57.6" xlink:href="#m53b56c505e" y="191.50004"/>
      </g>
     </g>
     <g id="text_8">
      <!-- 0.4 -->
      <g transform="translate(25.155 197.57879)scale(0.16 -0.16)">
       <use xlink:href="#DejaVuSans-48"/>
       <use x="63.623047" xlink:href="#DejaVuSans-46"/>
       <use x="95.410156" xlink:href="#DejaVuSans-52"/>
      </g>
     </g>
    </g>
    <g id="ytick_4">
     <g id="line2d_23">
      <path clip-path="url(#p5d0fd7d408)" d="M 57.6 137.778059 
L 338.688 137.778059 
" style="fill:none;stroke:#b0b0b0;stroke-linecap:square;stroke-width:0.8;"/>
     </g>
     <g id="line2d_24">
      <g>
       <use style="stroke:#000000;stroke-width:0.8;" x="57.6" xlink:href="#m53b56c505e" y="137.778059"/>
      </g>
     </g>
     <g id="text_9">
      <!-- 0.6 -->
      <g transform="translate(25.155 143.856809)scale(0.16 -0.16)">
       <use xlink:href="#DejaVuSans-48"/>
       <use x="63.623047" xlink:href="#DejaVuSans-46"/>
       <use x="95.410156" xlink:href="#DejaVuSans-54"/>
      </g>
     </g>
    </g>
    <g id="ytick_5">
     <g id="line2d_25">
      <path clip-path="url(#p5d0fd7d408)" d="M 57.6 84.056079 
L 338.688 84.056079 
" style="fill:none;stroke:#b0b0b0;stroke-linecap:square;stroke-width:0.8;"/>
     </g>
     <g id="line2d_26">
      <g>
       <use style="stroke:#000000;stroke-width:0.8;" x="57.6" xlink:href="#m53b56c505e" y="84.056079"/>
      </g>
     </g>
     <g id="text_10">
      <!-- 0.8 -->
      <g transform="translate(25.155 90.134829)scale(0.16 -0.16)">
       <defs>
        <path d="M 31.78125 34.625 
Q 24.75 34.625 20.71875 30.859375 
Q 16.703125 27.09375 16.703125 20.515625 
Q 16.703125 13.921875 20.71875 10.15625 
Q 24.75 6.390625 31.78125 6.390625 
Q 38.8125 6.390625 42.859375 10.171875 
Q 46.921875 13.96875 46.921875 20.515625 
Q 46.921875 27.09375 42.890625 30.859375 
Q 38.875 34.625 31.78125 34.625 
z
M 21.921875 38.8125 
Q 15.578125 40.375 12.03125 44.71875 
Q 8.5 49.078125 8.5 55.328125 
Q 8.5 64.0625 14.71875 69.140625 
Q 20.953125 74.21875 31.78125 74.21875 
Q 42.671875 74.21875 48.875 69.140625 
Q 55.078125 64.0625 55.078125 55.328125 
Q 55.078125 49.078125 51.53125 44.71875 
Q 48 40.375 41.703125 38.8125 
Q 48.828125 37.15625 52.796875 32.3125 
Q 56.78125 27.484375 56.78125 20.515625 
Q 56.78125 9.90625 50.3125 4.234375 
Q 43.84375 -1.421875 31.78125 -1.421875 
Q 19.734375 -1.421875 13.25 4.234375 
Q 6.78125 9.90625 6.78125 20.515625 
Q 6.78125 27.484375 10.78125 32.3125 
Q 14.796875 37.15625 21.921875 38.8125 
z
M 18.3125 54.390625 
Q 18.3125 48.734375 21.84375 45.5625 
Q 25.390625 42.390625 31.78125 42.390625 
Q 38.140625 42.390625 41.71875 45.5625 
Q 45.3125 48.734375 45.3125 54.390625 
Q 45.3125 60.0625 41.71875 63.234375 
Q 38.140625 66.40625 31.78125 66.40625 
Q 25.390625 66.40625 21.84375 63.234375 
Q 18.3125 60.0625 18.3125 54.390625 
z
" id="DejaVuSans-56"/>
       </defs>
       <use xlink:href="#DejaVuSans-48"/>
       <use x="63.623047" xlink:href="#DejaVuSans-46"/>
       <use x="95.410156" xlink:href="#DejaVuSans-56"/>
      </g>
     </g>
    </g>
    <g id="ytick_6">
     <g id="line2d_27">
      <path clip-path="url(#p5d0fd7d408)" d="M 57.6 30.334099 
L 338.688 30.334099 
" style="fill:none;stroke:#b0b0b0;stroke-linecap:square;stroke-width:0.8;"/>
     </g>
     <g id="line2d_28">
      <g>
       <use style="stroke:#000000;stroke-width:0.8;" x="57.6" xlink:href="#m53b56c505e" y="30.334099"/>
      </g>
     </g>
     <g id="text_11">
      <!-- 1.0 -->
      <g transform="translate(25.155 36.412849)scale(0.16 -0.16)">
       <use xlink:href="#DejaVuSans-49"/>
       <use x="63.623047" xlink:href="#DejaVuSans-46"/>
       <use x="95.410156" xlink:href="#DejaVuSans-48"/>
      </g>
     </g>
    </g>
    <g id="text_12">
     <!-- Fraction of function,target pairs -->
     <g transform="translate(17.619531 297.681)rotate(-90)scale(0.17 -0.17)">
      <defs>
       <path d="M 9.8125 72.90625 
L 51.703125 72.90625 
L 51.703125 64.59375 
L 19.671875 64.59375 
L 19.671875 43.109375 
L 48.578125 43.109375 
L 48.578125 34.8125 
L 19.671875 34.8125 
L 19.671875 0 
L 9.8125 0 
z
" id="DejaVuSans-70"/>
       <path d="M 41.109375 46.296875 
Q 39.59375 47.171875 37.8125 47.578125 
Q 36.03125 48 33.890625 48 
Q 26.265625 48 22.1875 43.046875 
Q 18.109375 38.09375 18.109375 28.8125 
L 18.109375 0 
L 9.078125 0 
L 9.078125 54.6875 
L 18.109375 54.6875 
L 18.109375 46.1875 
Q 20.953125 51.171875 25.484375 53.578125 
Q 30.03125 56 36.53125 56 
Q 37.453125 56 38.578125 55.875 
Q 39.703125 55.765625 41.0625 55.515625 
z
" id="DejaVuSans-114"/>
       <path d="M 48.78125 52.59375 
L 48.78125 44.1875 
Q 44.96875 46.296875 41.140625 47.34375 
Q 37.3125 48.390625 33.40625 48.390625 
Q 24.65625 48.390625 19.8125 42.84375 
Q 14.984375 37.3125 14.984375 27.296875 
Q 14.984375 17.28125 19.8125 11.734375 
Q 24.65625 6.203125 33.40625 6.203125 
Q 37.3125 6.203125 41.140625 7.25 
Q 44.96875 8.296875 48.78125 10.40625 
L 48.78125 2.09375 
Q 45.015625 0.34375 40.984375 -0.53125 
Q 36.96875 -1.421875 32.421875 -1.421875 
Q 20.0625 -1.421875 12.78125 6.34375 
Q 5.515625 14.109375 5.515625 27.296875 
Q 5.515625 40.671875 12.859375 48.328125 
Q 20.21875 56 33.015625 56 
Q 37.15625 56 41.109375 55.140625 
Q 45.0625 54.296875 48.78125 52.59375 
z
" id="DejaVuSans-99"/>
       <path d="M 18.3125 70.21875 
L 18.3125 54.6875 
L 36.8125 54.6875 
L 36.8125 47.703125 
L 18.3125 47.703125 
L 18.3125 18.015625 
Q 18.3125 11.328125 20.140625 9.421875 
Q 21.96875 7.515625 27.59375 7.515625 
L 36.8125 7.515625 
L 36.8125 0 
L 27.59375 0 
Q 17.1875 0 13.234375 3.875 
Q 9.28125 7.765625 9.28125 18.015625 
L 9.28125 47.703125 
L 2.6875 47.703125 
L 2.6875 54.6875 
L 9.28125 54.6875 
L 9.28125 70.21875 
z
" id="DejaVuSans-116"/>
       <path d="M 8.5 21.578125 
L 8.5 54.6875 
L 17.484375 54.6875 
L 17.484375 21.921875 
Q 17.484375 14.15625 20.5 10.265625 
Q 23.53125 6.390625 29.59375 6.390625 
Q 36.859375 6.390625 41.078125 11.03125 
Q 45.3125 15.671875 45.3125 23.6875 
L 45.3125 54.6875 
L 54.296875 54.6875 
L 54.296875 0 
L 45.3125 0 
L 45.3125 8.40625 
Q 42.046875 3.421875 37.71875 1 
Q 33.40625 -1.421875 27.6875 -1.421875 
Q 18.265625 -1.421875 13.375 4.4375 
Q 8.5 10.296875 8.5 21.578125 
z
M 31.109375 56 
z
" id="DejaVuSans-117"/>
       <path d="M 11.71875 12.40625 
L 22.015625 12.40625 
L 22.015625 4 
L 14.015625 -11.625 
L 7.71875 -11.625 
L 11.71875 4 
z
" id="DejaVuSans-44"/>
       <path d="M 18.109375 8.203125 
L 18.109375 -20.796875 
L 9.078125 -20.796875 
L 9.078125 54.6875 
L 18.109375 54.6875 
L 18.109375 46.390625 
Q 20.953125 51.265625 25.265625 53.625 
Q 29.59375 56 35.59375 56 
Q 45.5625 56 51.78125 48.09375 
Q 58.015625 40.1875 58.015625 27.296875 
Q 58.015625 14.40625 51.78125 6.484375 
Q 45.5625 -1.421875 35.59375 -1.421875 
Q 29.59375 -1.421875 25.265625 0.953125 
Q 20.953125 3.328125 18.109375 8.203125 
z
M 48.6875 27.296875 
Q 48.6875 37.203125 44.609375 42.84375 
Q 40.53125 48.484375 33.40625 48.484375 
Q 26.265625 48.484375 22.1875 42.84375 
Q 18.109375 37.203125 18.109375 27.296875 
Q 18.109375 17.390625 22.1875 11.75 
Q 26.265625 6.109375 33.40625 6.109375 
Q 40.53125 6.109375 44.609375 11.75 
Q 48.6875 17.390625 48.6875 27.296875 
z
" id="DejaVuSans-112"/>
      </defs>
      <use xlink:href="#DejaVuSans-70"/>
      <use x="50.269531" xlink:href="#DejaVuSans-114"/>
      <use x="91.382812" xlink:href="#DejaVuSans-97"/>
      <use x="152.662109" xlink:href="#DejaVuSans-99"/>
      <use x="207.642578" xlink:href="#DejaVuSans-116"/>
      <use x="246.851562" xlink:href="#DejaVuSans-105"/>
      <use x="274.634766" xlink:href="#DejaVuSans-111"/>
      <use x="335.816406" xlink:href="#DejaVuSans-110"/>
      <use x="399.195312" xlink:href="#DejaVuSans-32"/>
      <use x="430.982422" xlink:href="#DejaVuSans-111"/>
      <use x="492.164062" xlink:href="#DejaVuSans-102"/>
      <use x="527.369141" xlink:href="#DejaVuSans-32"/>
      <use x="559.15625" xlink:href="#DejaVuSans-102"/>
      <use x="594.361328" xlink:href="#DejaVuSans-117"/>
      <use x="657.740234" xlink:href="#DejaVuSans-110"/>
      <use x="721.119141" xlink:href="#DejaVuSans-99"/>
      <use x="776.099609" xlink:href="#DejaVuSans-116"/>
      <use x="815.308594" xlink:href="#DejaVuSans-105"/>
      <use x="843.091797" xlink:href="#DejaVuSans-111"/>
      <use x="904.273438" xlink:href="#DejaVuSans-110"/>
      <use x="967.652344" xlink:href="#DejaVuSans-44"/>
      <use x="999.439453" xlink:href="#DejaVuSans-116"/>
      <use x="1038.648438" xlink:href="#DejaVuSans-97"/>
      <use x="1099.927734" xlink:href="#DejaVuSans-114"/>
      <use x="1139.291016" xlink:href="#DejaVuSans-103"/>
      <use x="1202.767578" xlink:href="#DejaVuSans-101"/>
      <use x="1264.291016" xlink:href="#DejaVuSans-116"/>
      <use x="1303.5" xlink:href="#DejaVuSans-32"/>
      <use x="1335.287109" xlink:href="#DejaVuSans-112"/>
      <use x="1398.763672" xlink:href="#DejaVuSans-97"/>
      <use x="1460.042969" xlink:href="#DejaVuSans-105"/>
      <use x="1487.826172" xlink:href="#DejaVuSans-114"/>
      <use x="1528.939453" xlink:href="#DejaVuSans-115"/>
     </g>
    </g>
   </g>
   <g id="line2d_29">
    <defs>
     <path d="M 0 1.5 
C 0.397805 1.5 0.77937 1.341951 1.06066 1.06066 
C 1.341951 0.77937 1.5 0.397805 1.5 0 
C 1.5 -0.397805 1.341951 -0.77937 1.06066 -1.06066 
C 0.77937 -1.341951 0.397805 -1.5 0 -1.5 
C -0.397805 -1.5 -0.77937 -1.341951 -1.06066 -1.06066 
C -1.341951 -0.77937 -1.5 -0.397805 -1.5 0 
C -1.5 0.397805 -1.341951 0.77937 -1.06066 1.06066 
C -0.77937 1.341951 -0.397805 1.5 0 1.5 
z
" id="ma7992c2623" style="stroke:#000080;"/>
    </defs>
    <g>
     <use style="fill:#000080;stroke:#000080;" x="237.865704" xlink:href="#ma7992c2623" y="30.334099"/>
     <use style="fill:#000080;stroke:#000080;" x="237.865704" xlink:href="#ma7992c2623" y="30.334099"/>
    </g>
   </g>
   <g id="line2d_30">
    <path d="M 123.273551 298.944 
L 123.273551 298.288854 
L 124.368753 298.288854 
L 124.368753 296.323416 
L 128.885774 296.323416 
L 128.885774 295.66827 
L 132.470242 295.66827 
L 132.470242 295.013123 
L 133.216421 295.013123 
L 133.216421 294.357977 
L 133.398082 294.357977 
L 133.398082 293.702831 
L 134.870259 293.702831 
L 134.870259 293.047685 
L 136.607732 293.047685 
L 136.607732 292.392539 
L 137.48721 292.392539 
L 137.48721 291.737393 
L 137.84096 291.737393 
L 137.84096 291.082247 
L 138.324456 291.082247 
L 138.324456 290.427101 
L 139.762215 290.427101 
L 139.762215 289.771955 
L 141.549369 289.771955 
L 141.549369 289.116809 
L 141.941279 289.116809 
L 141.941279 287.806516 
L 142.161336 287.806516 
L 142.161336 287.15137 
L 142.486301 287.15137 
L 142.486301 286.496224 
L 143.927534 286.496224 
L 143.927534 285.841078 
L 144.981877 285.841078 
L 145.074639 284.530786 
L 146.40993 284.530786 
L 146.452726 282.565348 
L 147.12355 282.565348 
L 147.12355 281.910201 
L 147.61026 281.910201 
L 147.650212 280.599909 
L 148.808112 280.599909 
L 148.808112 279.944763 
L 148.956849 279.944763 
L 148.956849 279.289617 
L 149.214124 279.289617 
L 149.214124 278.634471 
L 149.85877 278.634471 
L 149.85877 277.979325 
L 150.581924 277.979325 
L 150.615623 276.669033 
L 150.749772 276.669033 
L 150.749772 276.013887 
L 151.047887 276.013887 
L 151.047887 275.35874 
L 151.62925 275.35874 
L 151.62925 274.703594 
L 152.496747 274.703594 
L 152.496747 274.048448 
L 153.032466 274.048448 
L 153.032466 273.393302 
L 153.438049 273.393302 
L 153.438049 272.738156 
L 153.637357 272.738156 
L 153.722083 271.427864 
L 153.806399 271.427864 
L 153.806399 270.772718 
L 154.056927 270.772718 
L 154.167129 269.462426 
L 154.707925 269.462426 
L 154.761093 267.496987 
L 155.666226 267.496987 
L 155.666226 266.841841 
L 155.816782 266.841841 
L 155.816782 266.186695 
L 155.990803 266.186695 
L 155.990803 265.531549 
L 156.260804 265.531549 
L 156.260804 264.876403 
L 156.430472 264.876403 
L 156.430472 264.221257 
L 156.812195 264.221257 
L 156.812195 263.566111 
L 157.2549 263.566111 
L 157.346685 261.600672 
L 157.641697 261.600672 
L 157.641697 260.945526 
L 157.998067 260.945526 
L 158.0201 259.635234 
L 158.173558 259.635234 
L 158.260646 258.324942 
L 158.51933 258.324942 
L 158.604712 257.01465 
L 159.476858 257.01465 
L 159.476858 256.359504 
L 160.518612 256.359504 
L 160.518612 255.704357 
L 160.858717 255.704357 
L 160.914762 254.394065 
L 161.173949 254.394065 
L 161.283861 253.083773 
L 161.356752 253.083773 
L 161.356752 252.428627 
L 161.501628 252.428627 
L 161.501628 251.773481 
L 162.312084 251.773481 
L 162.312084 251.118335 
L 162.466339 251.118335 
L 162.466339 250.463189 
L 162.602318 250.463189 
L 162.602318 249.808043 
L 162.9377 249.808043 
L 162.9377 248.49775 
L 163.053576 248.49775 
L 163.103002 246.532312 
L 163.299319 246.532312 
L 163.299319 245.877166 
L 163.573705 245.877166 
L 163.669525 244.566874 
L 164.00081 244.566874 
L 164.109855 241.291143 
L 164.218222 241.291143 
L 164.310575 239.980851 
L 164.371873 239.980851 
L 164.371873 239.325705 
L 164.854652 239.325705 
L 164.958502 236.705121 
L 165.193576 236.705121 
L 165.266391 235.394828 
L 165.35337 235.394828 
L 165.35337 234.739682 
L 165.526038 234.739682 
L 165.526038 234.084536 
L 165.781875 234.084536 
L 165.781875 232.774244 
L 165.992243 232.774244 
L 166.020101 231.463952 
L 166.117256 231.463952 
L 166.158729 228.843367 
L 166.364626 228.843367 
L 166.364626 228.188221 
L 166.608536 228.188221 
L 166.608536 227.533075 
L 166.729224 227.533075 
L 166.809221 226.222783 
L 167.047033 226.222783 
L 167.047033 224.912491 
L 167.333356 224.912491 
L 167.333356 224.257345 
L 167.691097 224.257345 
L 167.691097 222.947052 
L 167.804544 222.947052 
L 167.90477 220.326468 
L 168.115857 220.326468 
L 168.115857 219.671322 
L 168.433833 219.671322 
L 168.482242 218.36103 
L 168.554604 218.36103 
L 168.554604 217.705884 
L 169.064596 217.705884 
L 169.087957 216.395591 
L 169.181091 216.395591 
L 169.250616 215.085299 
L 169.468969 215.085299 
L 169.468969 214.430153 
L 169.752173 214.430153 
L 169.752173 213.775007 
L 170.019789 213.775007 
L 170.119095 212.464715 
L 170.28336 212.464715 
L 170.370339 211.154423 
L 170.413666 211.154423 
L 170.521516 209.84413 
L 170.798844 209.84413 
L 170.798844 208.533838 
L 170.956857 208.533838 
L 170.956857 205.913254 
L 171.092653 205.913254 
L 171.092653 204.602962 
L 171.258348 204.602962 
L 171.258348 203.292669 
L 171.483639 203.292669 
L 171.483639 201.982377 
L 172.07384 201.982377 
L 172.07384 201.327231 
L 172.6066 201.327231 
L 172.6066 200.672085 
L 172.777482 200.672085 
L 172.777482 200.016939 
L 173.225146 200.016939 
L 173.289481 197.396355 
L 173.390101 197.396355 
L 173.390101 196.741208 
L 173.964285 196.741208 
L 174.034747 195.430916 
L 174.104926 195.430916 
L 174.157375 192.810332 
L 174.227062 192.810332 
L 174.227062 192.155186 
L 174.460223 192.155186 
L 174.460223 191.50004 
L 174.630946 191.50004 
L 174.630946 189.534601 
L 175.025688 189.534601 
L 175.025688 188.879455 
L 175.199215 188.879455 
L 175.215651 186.258871 
L 175.844889 186.258871 
L 175.844889 184.948579 
L 176.360142 184.948579 
L 176.467508 181.672848 
L 176.513321 181.672848 
L 176.513321 181.017702 
L 176.680278 181.017702 
L 176.680278 180.362556 
L 177.090809 180.362556 
L 177.090809 179.052264 
L 177.252352 179.052264 
L 177.252352 177.086825 
L 177.383421 177.086825 
L 177.383421 175.776533 
L 177.756621 175.776533 
L 177.756621 175.121387 
L 177.975365 175.121387 
L 177.975365 174.466241 
L 178.101129 174.466241 
L 178.101129 173.811095 
L 178.26052 173.811095 
L 178.356832 171.190511 
L 178.466255 171.190511 
L 178.534298 169.225072 
L 178.877244 169.225072 
L 178.930433 167.259634 
L 179.324261 167.259634 
L 179.324261 166.604488 
L 179.505048 166.604488 
L 179.505048 165.949342 
L 179.626665 165.949342 
L 179.626665 165.294196 
L 180.017725 165.294196 
L 180.017725 163.983903 
L 180.160595 163.983903 
L 180.246989 162.673611 
L 180.290026 162.673611 
L 180.296166 161.363319 
L 180.552093 161.363319 
L 180.582312 160.053027 
L 180.917233 160.053027 
L 180.929076 158.742735 
L 181.327037 158.742735 
L 181.419369 156.12215 
L 181.653764 156.12215 
L 181.653764 154.811858 
L 181.806419 154.811858 
L 181.806419 154.156712 
L 181.957749 154.156712 
L 182.035702 152.84642 
L 182.113309 152.84642 
L 182.212584 150.225835 
L 182.732713 150.225835 
L 182.732713 149.570689 
L 182.934387 149.570689 
L 182.981812 148.260397 
L 183.299894 148.260397 
L 183.346337 146.294959 
L 183.49004 146.294959 
L 183.53598 144.984667 
L 183.859219 144.984667 
L 183.919165 143.674374 
L 184.09284 143.674374 
L 184.107646 142.364082 
L 184.269691 142.364082 
L 184.328244 140.398644 
L 184.502736 140.398644 
L 184.570125 139.088352 
L 184.727947 139.088352 
L 184.737466 137.778059 
L 185.303924 137.778059 
L 185.395807 133.847183 
L 185.700133 133.847183 
L 185.798914 132.536891 
L 186.284597 132.536891 
L 186.371467 129.916306 
L 186.595327 129.916306 
L 186.706188 128.606014 
L 186.710438 128.606014 
L 186.820572 126.640576 
L 187.001205 126.640576 
L 187.001205 125.98543 
L 187.515918 125.98543 
L 187.552398 124.019991 
L 188.137677 124.019991 
L 188.188503 122.709699 
L 188.328485 122.709699 
L 188.328485 122.054553 
L 188.608933 122.054553 
L 188.608933 120.744261 
L 188.997117 120.744261 
L 188.997117 120.089115 
L 189.292768 120.089115 
L 189.325717 118.778823 
L 189.572675 118.778823 
L 189.572675 118.123676 
L 189.92961 118.123676 
L 189.92961 117.46853 
L 190.115866 117.46853 
L 190.196078 116.158238 
L 190.296693 116.158238 
L 190.296693 115.503092 
L 190.420792 115.503092 
L 190.420792 114.847946 
L 190.686682 114.847946 
L 190.794602 113.537654 
L 190.828191 113.537654 
L 190.908541 112.227362 
L 191.011782 112.227362 
L 191.107812 109.606777 
L 191.259058 109.606777 
L 191.259058 108.951631 
L 191.512559 108.951631 
L 191.583399 106.986193 
L 191.724219 106.986193 
L 191.784679 105.020754 
L 191.857587 105.020754 
L 191.895505 103.055316 
L 192.0401 103.055316 
L 192.0401 102.40017 
L 192.310337 102.40017 
L 192.310337 101.745024 
L 192.567342 101.745024 
L 192.567342 100.434732 
L 192.925068 100.434732 
L 192.925068 99.779586 
L 193.105634 99.779586 
L 193.105634 99.12444 
L 193.348358 99.12444 
L 193.348358 98.469293 
L 193.495843 98.469293 
L 193.596341 95.848709 
L 194.062471 95.848709 
L 194.062471 95.193563 
L 194.239972 95.193563 
L 194.281313 93.883271 
L 194.53818 93.883271 
L 194.627466 91.917832 
L 195.253015 91.917832 
L 195.253015 91.262686 
L 195.403377 91.262686 
L 195.498625 89.952394 
L 195.555013 89.952394 
L 195.61632 88.642102 
L 195.9397 88.642102 
L 195.9397 87.986956 
L 196.347901 87.986956 
L 196.347901 87.33181 
L 196.744375 87.33181 
L 196.744375 86.676664 
L 196.969984 86.676664 
L 196.969984 86.021518 
L 197.625264 86.021518 
L 197.625264 85.366371 
L 198.252427 85.366371 
L 198.252427 84.711225 
L 198.50489 84.711225 
L 198.50489 84.056079 
L 199.616075 84.056079 
L 199.616075 83.400933 
L 199.74937 83.400933 
L 199.74937 82.745787 
L 200.536119 82.745787 
L 200.536119 82.090641 
L 200.833582 82.090641 
L 200.833582 81.435495 
L 201.689488 81.435495 
L 201.689488 80.780349 
L 202.184618 80.780349 
L 202.184618 80.125203 
L 202.306669 80.125203 
L 202.306669 79.470057 
L 202.789887 79.470057 
L 202.884272 77.504618 
L 203.738739 77.504618 
L 203.818582 76.194326 
L 204.755269 76.194326 
L 204.854638 74.884034 
L 204.942992 74.884034 
L 204.942992 74.228888 
L 205.172996 74.228888 
L 205.172996 73.573742 
L 205.369423 73.573742 
L 205.369423 72.918596 
L 205.849605 72.918596 
L 205.910475 71.608303 
L 206.224175 71.608303 
L 206.224175 70.953157 
L 206.411919 70.953157 
L 206.411919 70.298011 
L 206.759927 70.298011 
L 206.759927 69.642865 
L 207.429304 69.642865 
L 207.486202 68.332573 
L 207.700483 68.332573 
L 207.700483 67.677427 
L 207.822481 67.677427 
L 207.822481 67.022281 
L 208.14494 67.022281 
L 208.156125 65.711988 
L 208.424882 65.711988 
L 208.424882 65.056842 
L 208.8228 65.056842 
L 208.8228 64.401696 
L 209.498317 64.401696 
L 209.498317 63.74655 
L 210.135336 63.74655 
L 210.135336 63.091404 
L 212.039387 63.091404 
L 212.108854 61.125966 
L 212.202691 61.125966 
L 212.259734 59.160527 
L 212.367408 59.160527 
L 212.472482 57.850235 
L 212.518979 57.850235 
L 212.629876 56.539943 
L 212.779193 56.539943 
L 212.78491 55.229651 
L 213.078729 55.229651 
L 213.078729 54.574505 
L 213.270658 54.574505 
L 213.327088 52.609066 
L 213.388859 52.609066 
L 213.388859 51.95392 
L 213.80895 51.95392 
L 213.80895 51.298774 
L 214.26123 51.298774 
L 214.26123 50.643628 
L 214.38336 50.643628 
L 214.38336 49.988482 
L 214.647361 49.988482 
L 214.647361 49.333336 
L 214.925974 49.333336 
L 214.925974 48.67819 
L 215.368615 48.67819 
L 215.466108 47.367898 
L 215.662705 47.367898 
L 215.662705 46.712752 
L 217.18416 46.712752 
L 217.18416 46.057605 
L 219.876244 46.057605 
L 219.876244 45.402459 
L 220.617157 45.402459 
L 220.617157 44.747313 
L 221.251231 44.747313 
L 221.251231 44.092167 
L 221.73122 44.092167 
L 221.73122 43.437021 
L 221.876073 43.437021 
L 221.876073 42.781875 
L 222.914811 42.781875 
L 222.915877 41.471583 
L 223.192407 41.471583 
L 223.192407 40.816437 
L 224.060625 40.816437 
L 224.096024 39.506144 
L 224.482212 39.506144 
L 224.524544 38.195852 
L 225.07796 38.195852 
L 225.097253 36.88556 
L 225.360499 36.88556 
L 225.360499 36.230414 
L 225.590597 36.230414 
L 225.590597 35.575268 
L 225.942698 35.575268 
L 225.942698 34.920122 
L 229.328323 34.920122 
L 229.328323 34.264976 
L 230.29784 34.264976 
L 230.402581 32.954683 
L 231.039569 32.954683 
L 231.039569 32.299537 
L 234.314917 32.299537 
L 234.314917 31.644391 
L 237.754766 31.644391 
L 237.865704 30.334099 
L 338.688 30.334099 
L 338.688 30.334099 
" style="fill:none;stroke:#000080;stroke-linecap:square;stroke-width:1.5;"/>
   </g>
   <g id="line2d_31">
    <defs>
     <path d="M 0 6 
C 1.591219 6 3.117479 5.367802 4.242641 4.242641 
C 5.367802 3.117479 6 1.591219 6 0 
C 6 -1.591219 5.367802 -3.117479 4.242641 -4.242641 
C 3.117479 -5.367802 1.591219 -6 0 -6 
C -1.591219 -6 -3.117479 -5.367802 -4.242641 -4.242641 
C -5.367802 -3.117479 -6 -1.591219 -6 0 
C -6 1.591219 -5.367802 3.117479 -4.242641 4.242641 
C -3.117479 5.367802 -1.591219 6 0 6 
z
" id="m2a16a13a67" style="stroke:#000080;stroke-width:1.5;"/>
    </defs>
    <g>
     <use style="fill-opacity:0;stroke:#000080;stroke-width:1.5;" x="163.299319" xlink:href="#m2a16a13a67" y="246.532312"/>
     <use style="fill-opacity:0;stroke:#000080;stroke-width:1.5;" x="189.92961" xlink:href="#m2a16a13a67" y="118.123676"/>
     <use style="fill-opacity:0;stroke:#000080;stroke-width:1.5;" x="237.865704" xlink:href="#m2a16a13a67" y="30.989245"/>
     <use style="fill-opacity:0;stroke:#000080;stroke-width:1.5;" x="237.865704" xlink:href="#m2a16a13a67" y="30.334099"/>
     <use style="fill-opacity:0;stroke:#000080;stroke-width:1.5;" x="338.688" xlink:href="#m2a16a13a67" y="30.334099"/>
    </g>
   </g>
   <g id="line2d_32">
    <path style="fill:none;stroke:#000080;stroke-linecap:square;stroke-width:1.5;"/>
    <g/>
   </g>
   <g id="line2d_33">
    <path clip-path="url(#p5d0fd7d408)" d="M 209.868229 63.74655 
" style="fill:none;stroke:#000080;stroke-linecap:square;stroke-width:1.5;"/>
    <defs>
     <path d="M -12 12 
L 12 -12 
M -12 -12 
L 12 12 
" id="m0c527d44d1" style="stroke:#000080;"/>
    </defs>
    <g clip-path="url(#p5d0fd7d408)">
     <use style="fill:#000080;stroke:#000080;" x="209.868229" xlink:href="#m0c527d44d1" y="63.74655"/>
    </g>
   </g>
   <g id="line2d_34">
    <path clip-path="url(#p5d0fd7d408)" d="M 57.6 298.944 
L 57.6 298.944 
L 57.6 298.944 
L 57.6 298.944 
L 338.688 298.944 
" style="fill:none;stroke:#ff00ff;stroke-linecap:square;stroke-width:1.5;"/>
   </g>
   <g id="line2d_35">
    <defs>
     <path d="M -0 8.485281 
L 5.091169 0 
L 0 -8.485281 
L -5.091169 -0 
z
" id="m050cb5e35a" style="stroke:#ff00ff;stroke-linejoin:miter;stroke-width:1.5;"/>
    </defs>
    <g clip-path="url(#p5d0fd7d408)">
     <use style="fill-opacity:0;stroke:#ff00ff;stroke-linejoin:miter;stroke-width:1.5;" x="57.6" xlink:href="#m050cb5e35a" y="298.944"/>
    </g>
   </g>
   <g id="line2d_36">
    <path clip-path="url(#p5d0fd7d408)" style="fill:none;stroke:#ff00ff;stroke-linecap:square;stroke-width:1.5;"/>
    <g clip-path="url(#p5d0fd7d408)">
     <use style="fill-opacity:0;stroke:#ff00ff;stroke-linejoin:miter;stroke-width:1.5;" x="-1" xlink:href="#m050cb5e35a" y="567.553901"/>
     <use style="fill-opacity:0;stroke:#ff00ff;stroke-linejoin:miter;stroke-width:1.5;" x="338.688" xlink:href="#m050cb5e35a" y="567.553901"/>
    </g>
   </g>
   <g id="line2d_37">
    <defs>
     <path d="M 0 1.5 
C 0.397805 1.5 0.77937 1.341951 1.06066 1.06066 
C 1.341951 0.77937 1.5 0.397805 1.5 0 
C 1.5 -0.397805 1.341951 -0.77937 1.06066 -1.06066 
C 0.77937 -1.341951 0.397805 -1.5 0 -1.5 
C -0.397805 -1.5 -0.77937 -1.341951 -1.06066 -1.06066 
C -1.341951 -0.77937 -1.5 -0.397805 -1.5 0 
C -1.5 0.397805 -1.341951 0.77937 -1.06066 1.06066 
C -0.77937 1.341951 -0.397805 1.5 0 1.5 
z
" id="m2719e53ac3" style="stroke:#ff7500;"/>
    </defs>
    <g>
     <use style="fill:#ff7500;stroke:#ff7500;" x="227.116259" xlink:href="#m2719e53ac3" y="30.334099"/>
     <use style="fill:#ff7500;stroke:#ff7500;" x="227.116259" xlink:href="#m2719e53ac3" y="30.334099"/>
    </g>
   </g>
   <g id="line2d_38">
    <path d="M 134.149701 298.944 
L 134.149701 298.288854 
L 134.703375 298.288854 
L 134.703375 297.633708 
L 135.839358 297.633708 
L 135.917737 296.323416 
L 137.016339 296.323416 
L 137.016339 295.66827 
L 139.445704 295.66827 
L 139.445704 295.013123 
L 141.662245 295.013123 
L 141.662245 294.357977 
L 142.486301 294.357977 
L 142.486301 293.702831 
L 143.853271 293.702831 
L 143.853271 293.047685 
L 144.001481 293.047685 
L 144.001481 292.392539 
L 144.221461 292.392539 
L 144.221461 291.737393 
L 144.629556 291.737393 
L 144.629556 291.082247 
L 144.865226 291.082247 
L 144.865226 290.427101 
L 145.688202 290.427101 
L 145.688202 289.771955 
L 146.388493 289.771955 
L 146.495417 288.461662 
L 146.707319 288.461662 
L 146.791364 287.15137 
L 148.48777 287.15137 
L 148.54473 285.841078 
L 148.808112 285.841078 
L 148.808112 285.185932 
L 149.25057 285.185932 
L 149.25057 284.530786 
L 149.485628 284.530786 
L 149.521512 282.565348 
L 149.928949 282.565348 
L 149.928949 281.910201 
L 150.120495 281.910201 
L 150.18963 280.599909 
L 150.833094 280.599909 
L 150.833094 279.944763 
L 151.501723 279.944763 
L 151.501723 279.289617 
L 151.803091 279.289617 
L 151.803091 278.634471 
L 152.09934 278.634471 
L 152.09934 277.979325 
L 152.222586 277.979325 
L 152.299175 276.669033 
L 152.647216 276.669033 
L 152.647216 276.013887 
L 152.811246 276.013887 
L 152.840905 274.703594 
L 153.017805 274.703594 
L 153.017805 274.048448 
L 153.265382 274.048448 
L 153.265382 273.393302 
L 153.876352 273.393302 
L 153.876352 272.738156 
L 154.029268 272.738156 
L 154.056927 271.427864 
L 154.167129 271.427864 
L 154.167129 270.772718 
L 154.453136 270.772718 
L 154.453136 270.117572 
L 154.57429 270.117572 
L 154.57429 269.462426 
L 154.721232 269.462426 
L 154.721232 268.152133 
L 154.880133 268.152133 
L 154.880133 267.496987 
L 155.102793 267.496987 
L 155.102793 266.841841 
L 155.412374 266.841841 
L 155.412374 265.531549 
L 155.678822 265.531549 
L 155.678822 264.876403 
L 156.101764 264.876403 
L 156.101764 264.221257 
L 156.30945 264.221257 
L 156.30945 263.566111 
L 156.466616 263.566111 
L 156.466616 262.910965 
L 156.646219 262.910965 
L 156.670026 261.600672 
L 156.941506 261.600672 
L 156.941506 260.945526 
L 157.069866 260.945526 
L 157.069866 260.29038 
L 157.289376 260.29038 
L 157.289376 259.635234 
L 157.483465 259.635234 
L 157.483465 258.980088 
L 157.765022 258.980088 
L 157.765022 258.324942 
L 157.909655 258.324942 
L 157.953917 257.01465 
L 158.075062 257.01465 
L 158.075062 256.359504 
L 158.347301 256.359504 
L 158.347301 255.704357 
L 158.562073 255.704357 
L 158.583406 254.394065 
L 158.784773 254.394065 
L 158.784773 253.738919 
L 158.942121 253.738919 
L 158.942121 253.083773 
L 159.354904 253.083773 
L 159.354904 252.428627 
L 159.507213 252.428627 
L 159.618067 251.118335 
L 160.346039 251.118335 
L 160.451703 247.842604 
L 160.585265 247.842604 
L 160.689494 245.22202 
L 160.727241 245.22202 
L 160.793103 243.911728 
L 160.933404 243.911728 
L 160.933404 243.256582 
L 161.283861 243.256582 
L 161.356752 241.946289 
L 161.7078 241.946289 
L 161.7078 239.980851 
L 161.981883 239.980851 
L 162.02569 238.670559 
L 162.095552 238.670559 
L 162.130378 237.360267 
L 162.208484 237.360267 
L 162.208484 236.049974 
L 162.355069 236.049974 
L 162.355069 235.394828 
L 162.610782 235.394828 
L 162.610782 234.739682 
L 162.929393 234.739682 
L 163.020547 232.119098 
L 163.17688 232.119098 
L 163.17688 231.463952 
L 163.485404 231.463952 
L 163.485404 230.15366 
L 163.7569 230.15366 
L 163.7569 229.498513 
L 163.938192 229.498513 
L 163.938192 228.843367 
L 164.187328 228.843367 
L 164.287532 226.877929 
L 164.318249 226.877929 
L 164.371873 225.567637 
L 164.448194 225.567637 
L 164.448194 224.912491 
L 164.577177 224.912491 
L 164.577177 224.257345 
L 164.705214 224.257345 
L 164.705214 223.602199 
L 164.817412 223.602199 
L 164.899235 221.63676 
L 165.024937 221.63676 
L 165.024937 220.981614 
L 165.382267 220.981614 
L 165.382267 220.326468 
L 165.533195 220.326468 
L 165.533195 219.671322 
L 165.845252 219.671322 
L 165.845252 219.016176 
L 166.220754 219.016176 
L 166.220754 218.36103 
L 166.337313 218.36103 
L 166.337313 217.050738 
L 166.493781 217.050738 
L 166.507321 215.740445 
L 166.648858 215.740445 
L 166.648858 215.085299 
L 166.908703 215.085299 
L 166.987883 213.119861 
L 167.033906 213.119861 
L 167.11252 210.499277 
L 167.378477 210.499277 
L 167.391347 209.188984 
L 167.570541 209.188984 
L 167.595991 207.878692 
L 167.848464 207.878692 
L 167.848464 207.223546 
L 167.96712 207.223546 
L 168.060229 205.258108 
L 168.103511 205.258108 
L 168.165155 202.637523 
L 168.415645 202.637523 
L 168.415645 201.982377 
L 168.632659 201.982377 
L 168.668567 200.672085 
L 168.758015 200.672085 
L 168.793666 199.361793 
L 168.870661 199.361793 
L 168.947317 197.396355 
L 169.023638 197.396355 
L 169.134586 196.086062 
L 169.181091 196.086062 
L 169.192698 194.77577 
L 169.474679 194.77577 
L 169.474679 194.120624 
L 169.611146 194.120624 
L 169.633787 192.810332 
L 169.847424 192.810332 
L 169.908781 190.189747 
L 170.02532 190.189747 
L 170.108089 188.879455 
L 170.28336 188.879455 
L 170.37576 187.569163 
L 170.397431 187.569163 
L 170.499999 186.258871 
L 170.521516 186.258871 
L 170.559106 184.293433 
L 170.650062 184.293433 
L 170.650062 183.638286 
L 170.793552 183.638286 
L 170.841121 182.327994 
L 170.998753 182.327994 
L 171.061409 179.052264 
L 171.284097 179.052264 
L 171.284097 178.397118 
L 171.402051 178.397118 
L 171.402051 177.086825 
L 171.696007 177.086825 
L 171.791236 175.121387 
L 171.831177 175.121387 
L 171.831177 174.466241 
L 172.176814 174.466241 
L 172.249996 173.155949 
L 172.376122 173.155949 
L 172.405099 171.845657 
L 172.58751 171.845657 
L 172.58751 171.190511 
L 172.810515 171.190511 
L 172.862299 169.225072 
L 173.091121 169.225072 
L 173.155951 165.949342 
L 173.266531 165.949342 
L 173.303236 163.983903 
L 173.412888 163.983903 
L 173.490144 162.673611 
L 173.558028 162.673611 
L 173.634644 160.708173 
L 173.679556 160.708173 
L 173.679556 160.053027 
L 173.822502 160.053027 
L 173.862495 158.087589 
L 173.937789 158.087589 
L 174.021557 156.777296 
L 174.104926 156.777296 
L 174.179182 155.467004 
L 174.235754 155.467004 
L 174.235754 154.811858 
L 174.434469 154.811858 
L 174.434469 154.156712 
L 174.690307 154.156712 
L 174.724137 152.191274 
L 174.992439 152.191274 
L 175.063018 149.570689 
L 175.141564 149.570689 
L 175.141564 148.915543 
L 175.273058 148.915543 
L 175.350666 147.605251 
L 175.403568 147.605251 
L 175.496772 144.32952 
L 175.60957 144.32952 
L 175.6777 143.019228 
L 175.72962 143.019228 
L 175.836964 140.398644 
L 175.85677 140.398644 
L 175.963336 138.433206 
L 175.979068 138.433206 
L 175.979068 137.778059 
L 176.162868 137.778059 
L 176.255981 136.467767 
L 176.321636 136.467767 
L 176.321636 135.812621 
L 176.49043 135.812621 
L 176.498063 133.847183 
L 176.684054 133.847183 
L 176.684054 133.192037 
L 176.845652 133.192037 
L 176.868082 130.571452 
L 176.964946 130.571452 
L 177.05758 129.26116 
L 177.127655 129.26116 
L 177.182778 127.950868 
L 177.328929 127.950868 
L 177.390674 125.98543 
L 177.452201 125.98543 
L 177.452201 125.330284 
L 177.574607 125.330284 
L 177.681904 122.054553 
L 177.728195 122.054553 
L 177.728195 121.399407 
L 177.915659 121.399407 
L 178.020885 119.433969 
L 178.07326 119.433969 
L 178.160204 118.123676 
L 178.225994 118.123676 
L 178.322496 115.503092 
L 178.438964 115.503092 
L 178.438964 114.847946 
L 178.554659 114.847946 
L 178.598693 113.537654 
L 178.676329 113.537654 
L 178.676329 112.882508 
L 178.833909 112.882508 
L 178.923793 110.917069 
L 178.980151 110.917069 
L 178.980151 110.261923 
L 179.17107 110.261923 
L 179.18416 108.951631 
L 179.379341 108.951631 
L 179.379341 108.296485 
L 179.521099 108.296485 
L 179.604326 106.986193 
L 179.97401 106.986193 
L 180.079986 105.020754 
L 180.274668 105.020754 
L 180.280813 103.710462 
L 180.476316 103.710462 
L 180.555117 102.40017 
L 180.600418 102.40017 
L 180.651617 100.434732 
L 180.783438 100.434732 
L 180.860867 98.469293 
L 180.905381 98.469293 
L 180.973417 97.159001 
L 181.085245 97.159001 
L 181.146739 95.848709 
L 181.277785 95.848709 
L 181.338605 93.228125 
L 181.576933 93.228125 
L 181.576933 92.572979 
L 181.704798 92.572979 
L 181.795157 91.262686 
L 181.823298 91.262686 
L 181.907451 89.952394 
L 181.949376 89.952394 
L 182.013465 88.642102 
L 182.132657 88.642102 
L 182.237315 85.366371 
L 182.289409 85.366371 
L 182.319498 83.400933 
L 182.401296 83.400933 
L 182.401296 82.745787 
L 182.571833 82.745787 
L 182.571833 82.090641 
L 182.8126 82.090641 
L 182.884187 80.780349 
L 183.052709 80.780349 
L 183.052709 80.125203 
L 183.185844 80.125203 
L 183.185844 79.470057 
L 183.338605 79.470057 
L 183.338605 78.81491 
L 183.622426 78.81491 
L 183.698348 76.849472 
L 183.766397 76.849472 
L 183.874225 75.53918 
L 183.879224 75.53918 
L 183.916672 73.573742 
L 184.159369 73.573742 
L 184.206035 72.263449 
L 184.33068 72.263449 
L 184.401161 70.953157 
L 184.473775 70.953157 
L 184.473775 70.298011 
L 184.954987 70.298011 
L 184.954987 69.642865 
L 185.188386 69.642865 
L 185.202291 67.677427 
L 185.384348 67.677427 
L 185.384348 67.022281 
L 185.509984 67.022281 
L 185.557716 65.711988 
L 186.039031 65.711988 
L 186.063302 64.401696 
L 186.238816 64.401696 
L 186.275886 63.091404 
L 186.580349 63.091404 
L 186.580349 62.436258 
L 186.864853 62.436258 
L 186.917422 61.125966 
L 187.17378 61.125966 
L 187.196524 59.160527 
L 187.352857 59.160527 
L 187.352857 58.505381 
L 187.586781 58.505381 
L 187.651319 56.539943 
L 187.70358 56.539943 
L 187.70358 55.884797 
L 188.211912 55.884797 
L 188.211912 55.229651 
L 188.785252 55.229651 
L 188.785252 54.574505 
L 189.017604 54.574505 
L 189.112277 52.609066 
L 189.178797 52.609066 
L 189.178797 51.95392 
L 190.341609 51.95392 
L 190.341609 51.298774 
L 191.713059 51.298774 
L 191.713059 50.643628 
L 192.30263 50.643628 
L 192.30263 49.988482 
L 192.514111 49.988482 
L 192.514111 49.333336 
L 193.514551 49.333336 
L 193.514551 48.67819 
L 194.653086 48.67819 
L 194.653086 48.023044 
L 195.055323 48.023044 
L 195.055323 47.367898 
L 195.762331 47.367898 
L 195.762331 46.712752 
L 196.875346 46.712752 
L 196.875346 46.057605 
L 197.572917 46.057605 
L 197.572917 45.402459 
L 198.372585 45.402459 
L 198.372585 44.747313 
L 199.686888 44.747313 
L 199.735281 43.437021 
L 199.840672 43.437021 
L 199.840672 42.781875 
L 201.512181 42.781875 
L 201.512181 42.126729 
L 202.415789 42.126729 
L 202.487299 40.816437 
L 204.57466 40.816437 
L 204.57466 40.161291 
L 206.445526 40.161291 
L 206.445526 39.506144 
L 209.93567 39.506144 
L 209.93567 38.850998 
L 210.129235 38.850998 
L 210.129235 38.195852 
L 211.123293 38.195852 
L 211.123293 37.540706 
L 212.138541 37.540706 
L 212.138541 36.88556 
L 212.441901 36.88556 
L 212.441901 36.230414 
L 213.796817 36.230414 
L 213.796817 35.575268 
L 214.242836 35.575268 
L 214.242836 34.920122 
L 217.578702 34.920122 
L 217.578702 34.264976 
L 222.484763 34.264976 
L 222.484763 33.60983 
L 222.905215 33.60983 
L 222.905215 32.954683 
L 224.330776 32.954683 
L 224.330776 32.299537 
L 224.470272 32.299537 
L 224.470272 31.644391 
L 226.475695 31.644391 
L 226.475695 30.989245 
L 227.116259 30.989245 
L 227.116259 30.334099 
L 338.688 30.334099 
L 338.688 30.334099 
" style="fill:none;stroke:#ff7500;stroke-linecap:square;stroke-width:1.5;"/>
   </g>
   <g id="line2d_39">
    <defs>
     <path d="M 0 -6 
L -1.347084 -1.854102 
L -5.706339 -1.854102 
L -2.179628 0.708204 
L -3.526712 4.854102 
L -0 2.291796 
L 3.526712 4.854102 
L 2.179628 0.708204 
L 5.706339 -1.854102 
L 1.347084 -1.854102 
z
" id="ma7ae339628" style="stroke:#ff7500;stroke-linejoin:bevel;stroke-width:1.5;"/>
    </defs>
    <g>
     <use style="fill-opacity:0;stroke:#ff7500;stroke-linejoin:bevel;stroke-width:1.5;" x="169.908781" xlink:href="#ma7ae339628" y="191.50004"/>
     <use style="fill-opacity:0;stroke:#ff7500;stroke-linejoin:bevel;stroke-width:1.5;" x="183.185844" xlink:href="#ma7ae339628" y="80.125203"/>
     <use style="fill-opacity:0;stroke:#ff7500;stroke-linejoin:bevel;stroke-width:1.5;" x="227.116259" xlink:href="#ma7ae339628" y="30.989245"/>
     <use style="fill-opacity:0;stroke:#ff7500;stroke-linejoin:bevel;stroke-width:1.5;" x="227.116259" xlink:href="#ma7ae339628" y="30.334099"/>
     <use style="fill-opacity:0;stroke:#ff7500;stroke-linejoin:bevel;stroke-width:1.5;" x="338.688" xlink:href="#ma7ae339628" y="30.334099"/>
    </g>
   </g>
   <g id="line2d_40">
    <path style="fill:none;stroke:#ff7500;stroke-linecap:square;stroke-width:1.5;"/>
    <g/>
   </g>
   <g id="line2d_41">
    <path clip-path="url(#p5d0fd7d408)" d="M 208.448722 39.506144 
" style="fill:none;stroke:#ff7500;stroke-linecap:square;stroke-width:1.5;"/>
    <defs>
     <path d="M -12 12 
L 12 -12 
M -12 -12 
L 12 12 
" id="mb2e2c52d5a" style="stroke:#ff7500;"/>
    </defs>
    <g clip-path="url(#p5d0fd7d408)">
     <use style="fill:#ff7500;stroke:#ff7500;" x="208.448722" xlink:href="#mb2e2c52d5a" y="39.506144"/>
    </g>
   </g>
   <g id="line2d_42">
    <path clip-path="url(#p5d0fd7d408)" d="M 57.6 298.944 
L 57.6 298.944 
L 57.6 298.944 
L 57.6 298.944 
L 338.688 298.944 
" style="fill:none;stroke:#6495ed;stroke-linecap:square;stroke-width:1.5;"/>
   </g>
   <g id="line2d_43">
    <defs>
     <path d="M -0 6 
L 6 -6 
L -6 -6 
z
" id="m1888cd7cea" style="stroke:#6495ed;stroke-linejoin:miter;stroke-width:1.5;"/>
    </defs>
    <g clip-path="url(#p5d0fd7d408)">
     <use style="fill-opacity:0;stroke:#6495ed;stroke-linejoin:miter;stroke-width:1.5;" x="57.6" xlink:href="#m1888cd7cea" y="298.944"/>
    </g>
   </g>
   <g id="line2d_44">
    <path clip-path="url(#p5d0fd7d408)" style="fill:none;stroke:#6495ed;stroke-linecap:square;stroke-width:1.5;"/>
    <g clip-path="url(#p5d0fd7d408)">
     <use style="fill-opacity:0;stroke:#6495ed;stroke-linejoin:miter;stroke-width:1.5;" x="-1" xlink:href="#m1888cd7cea" y="567.553901"/>
     <use style="fill-opacity:0;stroke:#6495ed;stroke-linejoin:miter;stroke-width:1.5;" x="338.688" xlink:href="#m1888cd7cea" y="567.553901"/>
    </g>
   </g>
   <g id="line2d_45">
    <path d="M 338.688 298.944 
L 369.60768 293.571802 
" style="fill:none;stroke:#6495ed;stroke-linecap:square;stroke-width:1.5;"/>
    <g>
     <use style="fill-opacity:0;stroke:#6495ed;stroke-linejoin:miter;stroke-width:1.5;" x="338.688" xlink:href="#m1888cd7cea" y="298.944"/>
     <use style="fill-opacity:0;stroke:#6495ed;stroke-linejoin:miter;stroke-width:1.5;" x="369.60768" xlink:href="#m1888cd7cea" y="293.571802"/>
    </g>
   </g>
   <g id="line2d_46">
    <path d="M 338.688 298.944 
L 369.60768 207.616634 
" style="fill:none;stroke:#ff00ff;stroke-linecap:square;stroke-width:1.5;"/>
    <g>
     <use style="fill-opacity:0;stroke:#ff00ff;stroke-linejoin:miter;stroke-width:1.5;" x="338.688" xlink:href="#m050cb5e35a" y="298.944"/>
     <use style="fill-opacity:0;stroke:#ff00ff;stroke-linejoin:miter;stroke-width:1.5;" x="369.60768" xlink:href="#m050cb5e35a" y="207.616634"/>
    </g>
   </g>
   <g id="line2d_47">
    <path d="M 338.688 30.334099 
L 369.60768 121.661465 
" style="fill:none;stroke:#000080;stroke-linecap:square;stroke-width:1.5;"/>
    <g>
     <use style="fill-opacity:0;stroke:#000080;stroke-width:1.5;" x="338.688" xlink:href="#m2a16a13a67" y="30.334099"/>
     <use style="fill-opacity:0;stroke:#000080;stroke-width:1.5;" x="369.60768" xlink:href="#m2a16a13a67" y="121.661465"/>
    </g>
   </g>
   <g id="line2d_48">
    <path d="M 338.688 30.334099 
L 369.60768 35.706297 
" style="fill:none;stroke:#ff7500;stroke-linecap:square;stroke-width:1.5;"/>
    <g>
     <use style="fill-opacity:0;stroke:#ff7500;stroke-linejoin:bevel;stroke-width:1.5;" x="338.688" xlink:href="#ma7ae339628" y="30.334099"/>
     <use style="fill-opacity:0;stroke:#ff7500;stroke-linejoin:bevel;stroke-width:1.5;" x="369.60768" xlink:href="#ma7ae339628" y="35.706297"/>
    </g>
   </g>
   <g id="line2d_49">
    <path d="M 338.688 298.944 
L 338.688 30.334099 
" style="fill:none;stroke:#000000;stroke-linecap:square;stroke-width:1.5;"/>
   </g>
   <g id="patch_3">
    <path d="M 57.6 298.944 
L 57.6 27.648 
" style="fill:none;stroke:#000000;stroke-linecap:square;stroke-linejoin:miter;stroke-width:0.8;"/>
   </g>
   <g id="patch_4">
    <path d="M 338.688 298.944 
L 338.688 27.648 
" style="fill:none;stroke:#000000;stroke-linecap:square;stroke-linejoin:miter;stroke-width:0.8;"/>
   </g>
   <g id="patch_5">
    <path d="M 57.6 298.944 
L 338.688 298.944 
" style="fill:none;stroke:#000000;stroke-linecap:square;stroke-linejoin:miter;stroke-width:0.8;"/>
   </g>
   <g id="patch_6">
    <path d="M 57.6 27.648 
L 338.688 27.648 
" style="fill:none;stroke:#000000;stroke-linecap:square;stroke-linejoin:miter;stroke-width:0.8;"/>
   </g>
   <g id="text_13">
    <!-- slsqp -->
    <g transform="translate(375.22944 298.262739)scale(0.17 -0.17)">
     <defs>
      <path d="M 14.796875 27.296875 
Q 14.796875 17.390625 18.875 11.75 
Q 22.953125 6.109375 30.078125 6.109375 
Q 37.203125 6.109375 41.296875 11.75 
Q 45.40625 17.390625 45.40625 27.296875 
Q 45.40625 37.203125 41.296875 42.84375 
Q 37.203125 48.484375 30.078125 48.484375 
Q 22.953125 48.484375 18.875 42.84375 
Q 14.796875 37.203125 14.796875 27.296875 
z
M 45.40625 8.203125 
Q 42.578125 3.328125 38.25 0.953125 
Q 33.9375 -1.421875 27.875 -1.421875 
Q 17.96875 -1.421875 11.734375 6.484375 
Q 5.515625 14.40625 5.515625 27.296875 
Q 5.515625 40.1875 11.734375 48.09375 
Q 17.96875 56 27.875 56 
Q 33.9375 56 38.25 53.625 
Q 42.578125 51.265625 45.40625 46.390625 
L 45.40625 54.6875 
L 54.390625 54.6875 
L 54.390625 -20.796875 
L 45.40625 -20.796875 
z
" id="DejaVuSans-113"/>
     </defs>
     <use xlink:href="#DejaVuSans-115"/>
     <use x="52.099609" xlink:href="#DejaVuSans-108"/>
     <use x="79.882812" xlink:href="#DejaVuSans-115"/>
     <use x="131.982422" xlink:href="#DejaVuSans-113"/>
     <use x="195.458984" xlink:href="#DejaVuSans-112"/>
    </g>
   </g>
   <g id="text_14">
    <!-- cobyla -->
    <g transform="translate(375.22944 212.307571)scale(0.17 -0.17)">
     <defs>
      <path d="M 48.6875 27.296875 
Q 48.6875 37.203125 44.609375 42.84375 
Q 40.53125 48.484375 33.40625 48.484375 
Q 26.265625 48.484375 22.1875 42.84375 
Q 18.109375 37.203125 18.109375 27.296875 
Q 18.109375 17.390625 22.1875 11.75 
Q 26.265625 6.109375 33.40625 6.109375 
Q 40.53125 6.109375 44.609375 11.75 
Q 48.6875 17.390625 48.6875 27.296875 
z
M 18.109375 46.390625 
Q 20.953125 51.265625 25.265625 53.625 
Q 29.59375 56 35.59375 56 
Q 45.5625 56 51.78125 48.09375 
Q 58.015625 40.1875 58.015625 27.296875 
Q 58.015625 14.40625 51.78125 6.484375 
Q 45.5625 -1.421875 35.59375 -1.421875 
Q 29.59375 -1.421875 25.265625 0.953125 
Q 20.953125 3.328125 18.109375 8.203125 
L 18.109375 0 
L 9.078125 0 
L 9.078125 75.984375 
L 18.109375 75.984375 
z
" id="DejaVuSans-98"/>
      <path d="M 32.171875 -5.078125 
Q 28.375 -14.84375 24.75 -17.8125 
Q 21.140625 -20.796875 15.09375 -20.796875 
L 7.90625 -20.796875 
L 7.90625 -13.28125 
L 13.1875 -13.28125 
Q 16.890625 -13.28125 18.9375 -11.515625 
Q 21 -9.765625 23.484375 -3.21875 
L 25.09375 0.875 
L 2.984375 54.6875 
L 12.5 54.6875 
L 29.59375 11.921875 
L 46.6875 54.6875 
L 56.203125 54.6875 
z
" id="DejaVuSans-121"/>
     </defs>
     <use xlink:href="#DejaVuSans-99"/>
     <use x="54.980469" xlink:href="#DejaVuSans-111"/>
     <use x="116.162109" xlink:href="#DejaVuSans-98"/>
     <use x="179.638672" xlink:href="#DejaVuSans-121"/>
     <use x="238.818359" xlink:href="#DejaVuSans-108"/>
     <use x="266.601562" xlink:href="#DejaVuSans-97"/>
    </g>
   </g>
   <g id="text_15">
    <!-- alN5 -->
    <g transform="translate(375.22944 126.352403)scale(0.17 -0.17)">
     <defs>
      <path d="M 9.8125 72.90625 
L 23.09375 72.90625 
L 55.421875 11.921875 
L 55.421875 72.90625 
L 64.984375 72.90625 
L 64.984375 0 
L 51.703125 0 
L 19.390625 60.984375 
L 19.390625 0 
L 9.8125 0 
z
" id="DejaVuSans-78"/>
      <path d="M 10.796875 72.90625 
L 49.515625 72.90625 
L 49.515625 64.59375 
L 19.828125 64.59375 
L 19.828125 46.734375 
Q 21.96875 47.46875 24.109375 47.828125 
Q 26.265625 48.1875 28.421875 48.1875 
Q 40.625 48.1875 47.75 41.5 
Q 54.890625 34.8125 54.890625 23.390625 
Q 54.890625 11.625 47.5625 5.09375 
Q 40.234375 -1.421875 26.90625 -1.421875 
Q 22.3125 -1.421875 17.546875 -0.640625 
Q 12.796875 0.140625 7.71875 1.703125 
L 7.71875 11.625 
Q 12.109375 9.234375 16.796875 8.0625 
Q 21.484375 6.890625 26.703125 6.890625 
Q 35.15625 6.890625 40.078125 11.328125 
Q 45.015625 15.765625 45.015625 23.390625 
Q 45.015625 31 40.078125 35.4375 
Q 35.15625 39.890625 26.703125 39.890625 
Q 22.75 39.890625 18.8125 39.015625 
Q 14.890625 38.140625 10.796875 36.28125 
z
" id="DejaVuSans-53"/>
     </defs>
     <use xlink:href="#DejaVuSans-97"/>
     <use x="61.279297" xlink:href="#DejaVuSans-108"/>
     <use x="89.0625" xlink:href="#DejaVuSans-78"/>
     <use x="163.867188" xlink:href="#DejaVuSans-53"/>
    </g>
   </g>
   <g id="text_16">
    <!-- l1p-cmaes -->
    <g transform="translate(375.22944 40.397235)scale(0.17 -0.17)">
     <use xlink:href="#DejaVuSans-108"/>
     <use x="27.783203" xlink:href="#DejaVuSans-49"/>
     <use x="91.40625" xlink:href="#DejaVuSans-112"/>
     <use x="154.882812" xlink:href="#DejaVuSans-45"/>
     <use x="190.966797" xlink:href="#DejaVuSans-99"/>
     <use x="245.947266" xlink:href="#DejaVuSans-109"/>
     <use x="343.359375" xlink:href="#DejaVuSans-97"/>
     <use x="404.638672" xlink:href="#DejaVuSans-101"/>
     <use x="466.162109" xlink:href="#DejaVuSans-115"/>
    </g>
   </g>
   <g id="text_17">
    <!-- bbob-constrained f34, 5-D -->
    <g transform="translate(60.41088 38.111366)scale(0.102 -0.102)">
     <defs>
      <path d="M 40.578125 39.3125 
Q 47.65625 37.796875 51.625 33 
Q 55.609375 28.21875 55.609375 21.1875 
Q 55.609375 10.40625 48.1875 4.484375 
Q 40.765625 -1.421875 27.09375 -1.421875 
Q 22.515625 -1.421875 17.65625 -0.515625 
Q 12.796875 0.390625 7.625 2.203125 
L 7.625 11.71875 
Q 11.71875 9.328125 16.59375 8.109375 
Q 21.484375 6.890625 26.8125 6.890625 
Q 36.078125 6.890625 40.9375 10.546875 
Q 45.796875 14.203125 45.796875 21.1875 
Q 45.796875 27.640625 41.28125 31.265625 
Q 36.765625 34.90625 28.71875 34.90625 
L 20.21875 34.90625 
L 20.21875 43.015625 
L 29.109375 43.015625 
Q 36.375 43.015625 40.234375 45.921875 
Q 44.09375 48.828125 44.09375 54.296875 
Q 44.09375 59.90625 40.109375 62.90625 
Q 36.140625 65.921875 28.71875 65.921875 
Q 24.65625 65.921875 20.015625 65.03125 
Q 15.375 64.15625 9.8125 62.3125 
L 9.8125 71.09375 
Q 15.4375 72.65625 20.34375 73.4375 
Q 25.25 74.21875 29.59375 74.21875 
Q 40.828125 74.21875 47.359375 69.109375 
Q 53.90625 64.015625 53.90625 55.328125 
Q 53.90625 49.265625 50.4375 45.09375 
Q 46.96875 40.921875 40.578125 39.3125 
z
" id="DejaVuSans-51"/>
      <path d="M 19.671875 64.796875 
L 19.671875 8.109375 
L 31.59375 8.109375 
Q 46.6875 8.109375 53.6875 14.9375 
Q 60.6875 21.78125 60.6875 36.53125 
Q 60.6875 51.171875 53.6875 57.984375 
Q 46.6875 64.796875 31.59375 64.796875 
z
M 9.8125 72.90625 
L 30.078125 72.90625 
Q 51.265625 72.90625 61.171875 64.09375 
Q 71.09375 55.28125 71.09375 36.53125 
Q 71.09375 17.671875 61.125 8.828125 
Q 51.171875 0 30.078125 0 
L 9.8125 0 
z
" id="DejaVuSans-68"/>
     </defs>
     <use xlink:href="#DejaVuSans-98"/>
     <use x="63.476562" xlink:href="#DejaVuSans-98"/>
     <use x="126.953125" xlink:href="#DejaVuSans-111"/>
     <use x="188.134766" xlink:href="#DejaVuSans-98"/>
     <use x="251.611328" xlink:href="#DejaVuSans-45"/>
     <use x="287.695312" xlink:href="#DejaVuSans-99"/>
     <use x="342.675781" xlink:href="#DejaVuSans-111"/>
     <use x="403.857422" xlink:href="#DejaVuSans-110"/>
     <use x="467.236328" xlink:href="#DejaVuSans-115"/>
     <use x="519.335938" xlink:href="#DejaVuSans-116"/>
     <use x="558.544922" xlink:href="#DejaVuSans-114"/>
     <use x="599.658203" xlink:href="#DejaVuSans-97"/>
     <use x="660.9375" xlink:href="#DejaVuSans-105"/>
     <use x="688.720703" xlink:href="#DejaVuSans-110"/>
     <use x="752.099609" xlink:href="#DejaVuSans-101"/>
     <use x="813.623047" xlink:href="#DejaVuSans-100"/>
     <use x="877.099609" xlink:href="#DejaVuSans-32"/>
     <use x="908.886719" xlink:href="#DejaVuSans-102"/>
     <use x="944.091797" xlink:href="#DejaVuSans-51"/>
     <use x="1007.714844" xlink:href="#DejaVuSans-52"/>
     <use x="1071.337891" xlink:href="#DejaVuSans-44"/>
     <use x="1103.125" xlink:href="#DejaVuSans-32"/>
     <use x="1134.912109" xlink:href="#DejaVuSans-53"/>
     <use x="1198.535156" xlink:href="#DejaVuSans-45"/>
     <use x="1234.619141" xlink:href="#DejaVuSans-68"/>
    </g>
    <!-- 41 targets: 100..1e-06 -->
    <g transform="translate(60.41088 49.533135)scale(0.102 -0.102)">
     <defs>
      <path d="M 11.71875 12.40625 
L 22.015625 12.40625 
L 22.015625 0 
L 11.71875 0 
z
M 11.71875 51.703125 
L 22.015625 51.703125 
L 22.015625 39.3125 
L 11.71875 39.3125 
z
" id="DejaVuSans-58"/>
     </defs>
     <use xlink:href="#DejaVuSans-52"/>
     <use x="63.623047" xlink:href="#DejaVuSans-49"/>
     <use x="127.246094" xlink:href="#DejaVuSans-32"/>
     <use x="159.033203" xlink:href="#DejaVuSans-116"/>
     <use x="198.242188" xlink:href="#DejaVuSans-97"/>
     <use x="259.521484" xlink:href="#DejaVuSans-114"/>
     <use x="298.884766" xlink:href="#DejaVuSans-103"/>
     <use x="362.361328" xlink:href="#DejaVuSans-101"/>
     <use x="423.884766" xlink:href="#DejaVuSans-116"/>
     <use x="463.09375" xlink:href="#DejaVuSans-115"/>
     <use x="515.193359" xlink:href="#DejaVuSans-58"/>
     <use x="548.884766" xlink:href="#DejaVuSans-32"/>
     <use x="580.671875" xlink:href="#DejaVuSans-49"/>
     <use x="644.294922" xlink:href="#DejaVuSans-48"/>
     <use x="707.917969" xlink:href="#DejaVuSans-48"/>
     <use x="771.541016" xlink:href="#DejaVuSans-46"/>
     <use x="803.328125" xlink:href="#DejaVuSans-46"/>
     <use x="835.115234" xlink:href="#DejaVuSans-49"/>
     <use x="898.738281" xlink:href="#DejaVuSans-101"/>
     <use x="960.261719" xlink:href="#DejaVuSans-45"/>
     <use x="996.345703" xlink:href="#DejaVuSans-48"/>
     <use x="1059.96875" xlink:href="#DejaVuSans-54"/>
    </g>
    <!-- 30, 15 instances -->
    <g transform="translate(60.41088 60.954904)scale(0.102 -0.102)">
     <use xlink:href="#DejaVuSans-51"/>
     <use x="63.623047" xlink:href="#DejaVuSans-48"/>
     <use x="127.246094" xlink:href="#DejaVuSans-44"/>
     <use x="159.033203" xlink:href="#DejaVuSans-32"/>
     <use x="190.820312" xlink:href="#DejaVuSans-49"/>
     <use x="254.443359" xlink:href="#DejaVuSans-53"/>
     <use x="318.066406" xlink:href="#DejaVuSans-32"/>
     <use x="349.853516" xlink:href="#DejaVuSans-105"/>
     <use x="377.636719" xlink:href="#DejaVuSans-110"/>
     <use x="441.015625" xlink:href="#DejaVuSans-115"/>
     <use x="493.115234" xlink:href="#DejaVuSans-116"/>
     <use x="532.324219" xlink:href="#DejaVuSans-97"/>
     <use x="593.603516" xlink:href="#DejaVuSans-110"/>
     <use x="656.982422" xlink:href="#DejaVuSans-99"/>
     <use x="711.962891" xlink:href="#DejaVuSans-101"/>
     <use x="773.486328" xlink:href="#DejaVuSans-115"/>
    </g>
   </g>
   <g id="text_18">
    <!-- v5z33 -->
    <g style="fill:#808080;" transform="translate(183.016656 294.151352)scale(0.1 -0.1)">
     <defs>
      <path d="M 5.515625 54.6875 
L 48.1875 54.6875 
L 48.1875 46.484375 
L 14.40625 7.171875 
L 48.1875 7.171875 
L 48.1875 0 
L 4.296875 0 
L 4.296875 8.203125 
L 38.09375 47.515625 
L 5.515625 47.515625 
z
" id="DejaVuSans-122"/>
     </defs>
     <use xlink:href="#DejaVuSans-118"/>
     <use x="59.179688" xlink:href="#DejaVuSans-53"/>
     <use x="122.802734" xlink:href="#DejaVuSans-122"/>
     <use x="175.292969" xlink:href="#DejaVuSans-51"/>
     <use x="238.916016" xlink:href="#DejaVuSans-51"/>
    </g>
   </g>
   <g id="text_19">
    <!-- 34 Bent Cigar, n/2+6 constraints -->
    <g transform="translate(33.528375 21.648)scale(0.2 -0.2)">
     <defs>
      <path d="M 19.671875 34.8125 
L 19.671875 8.109375 
L 35.5 8.109375 
Q 43.453125 8.109375 47.28125 11.40625 
Q 51.125 14.703125 51.125 21.484375 
Q 51.125 28.328125 47.28125 31.5625 
Q 43.453125 34.8125 35.5 34.8125 
z
M 19.671875 64.796875 
L 19.671875 42.828125 
L 34.28125 42.828125 
Q 41.5 42.828125 45.03125 45.53125 
Q 48.578125 48.25 48.578125 53.8125 
Q 48.578125 59.328125 45.03125 62.0625 
Q 41.5 64.796875 34.28125 64.796875 
z
M 9.8125 72.90625 
L 35.015625 72.90625 
Q 46.296875 72.90625 52.390625 68.21875 
Q 58.5 63.53125 58.5 54.890625 
Q 58.5 48.1875 55.375 44.234375 
Q 52.25 40.28125 46.1875 39.3125 
Q 53.46875 37.75 57.5 32.78125 
Q 61.53125 27.828125 61.53125 20.40625 
Q 61.53125 10.640625 54.890625 5.3125 
Q 48.25 0 35.984375 0 
L 9.8125 0 
z
" id="DejaVuSans-66"/>
      <path d="M 64.40625 67.28125 
L 64.40625 56.890625 
Q 59.421875 61.53125 53.78125 63.8125 
Q 48.140625 66.109375 41.796875 66.109375 
Q 29.296875 66.109375 22.65625 58.46875 
Q 16.015625 50.828125 16.015625 36.375 
Q 16.015625 21.96875 22.65625 14.328125 
Q 29.296875 6.6875 41.796875 6.6875 
Q 48.140625 6.6875 53.78125 8.984375 
Q 59.421875 11.28125 64.40625 15.921875 
L 64.40625 5.609375 
Q 59.234375 2.09375 53.4375 0.328125 
Q 47.65625 -1.421875 41.21875 -1.421875 
Q 24.65625 -1.421875 15.125 8.703125 
Q 5.609375 18.84375 5.609375 36.375 
Q 5.609375 53.953125 15.125 64.078125 
Q 24.65625 74.21875 41.21875 74.21875 
Q 47.75 74.21875 53.53125 72.484375 
Q 59.328125 70.75 64.40625 67.28125 
z
" id="DejaVuSans-67"/>
     </defs>
     <use xlink:href="#DejaVuSans-51"/>
     <use x="63.623047" xlink:href="#DejaVuSans-52"/>
     <use x="127.246094" xlink:href="#DejaVuSans-32"/>
     <use x="159.033203" xlink:href="#DejaVuSans-66"/>
     <use x="227.636719" xlink:href="#DejaVuSans-101"/>
     <use x="289.160156" xlink:href="#DejaVuSans-110"/>
     <use x="352.539062" xlink:href="#DejaVuSans-116"/>
     <use x="391.748047" xlink:href="#DejaVuSans-32"/>
     <use x="423.535156" xlink:href="#DejaVuSans-67"/>
     <use x="493.359375" xlink:href="#DejaVuSans-105"/>
     <use x="521.142578" xlink:href="#DejaVuSans-103"/>
     <use x="584.619141" xlink:href="#DejaVuSans-97"/>
     <use x="645.898438" xlink:href="#DejaVuSans-114"/>
     <use x="687.011719" xlink:href="#DejaVuSans-44"/>
     <use x="718.798828" xlink:href="#DejaVuSans-32"/>
     <use x="750.585938" xlink:href="#DejaVuSans-110"/>
     <use x="813.964844" xlink:href="#DejaVuSans-47"/>
     <use x="847.65625" xlink:href="#DejaVuSans-50"/>
     <use x="911.279297" xlink:href="#DejaVuSans-43"/>
     <use x="995.068359" xlink:href="#DejaVuSans-54"/>
     <use x="1058.691406" xlink:href="#DejaVuSans-32"/>
     <use x="1090.478516" xlink:href="#DejaVuSans-99"/>
     <use x="1145.458984" xlink:href="#DejaVuSans-111"/>
     <use x="1206.640625" xlink:href="#DejaVuSans-110"/>
     <use x="1270.019531" xlink:href="#DejaVuSans-115"/>
     <use x="1322.119141" xlink:href="#DejaVuSans-116"/>
     <use x="1361.328125" xlink:href="#DejaVuSans-114"/>
     <use x="1402.441406" xlink:href="#DejaVuSans-97"/>
     <use x="1463.720703" xlink:href="#DejaVuSans-105"/>
     <use x="1491.503906" xlink:href="#DejaVuSans-110"/>
     <use x="1554.882812" xlink:href="#DejaVuSans-116"/>
     <use x="1594.091797" xlink:href="#DejaVuSans-115"/>
    </g>
   </g>
  </g>
 </g>
 <defs>
  <clipPath id="p5d0fd7d408">
   <rect height="271.296" width="281.088" x="57.6" y="27.648"/>
  </clipPath>
 </defs>
</svg>
