<?xml version="1.0" encoding="utf-8" standalone="no"?>
<!DOCTYPE svg PUBLIC "-//W3C//DTD SVG 1.1//EN"
  "http://www.w3.org/Graphics/SVG/1.1/DTD/svg11.dtd">
<!-- Created with matplotlib (https://matplotlib.org/) -->
<svg height="345.6pt" version="1.1" viewBox="0 0 460.8 345.6" width="460.8pt" xmlns="http://www.w3.org/2000/svg" xmlns:xlink="http://www.w3.org/1999/xlink">
 <metadata>
  <rdf:RDF xmlns:cc="http://creativecommons.org/ns#" xmlns:dc="http://purl.org/dc/elements/1.1/" xmlns:rdf="http://www.w3.org/1999/02/22-rdf-syntax-ns#">
   <cc:Work>
    <dc:type rdf:resource="http://purl.org/dc/dcmitype/StillImage"/>
    <dc:date>2021-04-09T10:16:53.469058</dc:date>
    <dc:format>image/svg+xml</dc:format>
    <dc:creator>
     <cc:Agent>
      <dc:title>Matplotlib v3.3.3, https://matplotlib.org/</dc:title>
     </cc:Agent>
    </dc:creator>
   </cc:Work>
  </rdf:RDF>
 </metadata>
 <defs>
  <style type="text/css">*{stroke-linecap:butt;stroke-linejoin:round;}</style>
 </defs>
 <g id="figure_1">
  <g id="patch_1">
   <path d="M 0 345.6 
L 460.8 345.6 
L 460.8 0 
L 0 0 
z
" style="fill:#ffffff;"/>
  </g>
  <g id="axes_1">
   <g id="patch_2">
    <path d="M 57.6 298.944 
L 338.688 298.944 
L 338.688 27.648 
L 57.6 27.648 
z
" style="fill:#ffffff;"/>
   </g>
   <g id="matplotlib.axis_1">
    <g id="xtick_1">
     <g id="line2d_1">
      <path clip-path="url(#p7773b49952)" d="M 57.6 298.944 
L 57.6 27.648 
" style="fill:none;stroke:#b0b0b0;stroke-linecap:square;stroke-width:0.8;"/>
     </g>
     <g id="line2d_2">
      <defs>
       <path d="M 0 0 
L 0 3.5 
" id="m341dbd4045" style="stroke:#000000;stroke-width:0.8;"/>
      </defs>
      <g>
       <use style="stroke:#000000;stroke-width:0.8;" x="57.6" xlink:href="#m341dbd4045" y="298.944"/>
      </g>
     </g>
     <g id="text_1">
      <!-- 0 -->
      <g transform="translate(51.2375 321.140875)scale(0.2 -0.2)">
       <defs>
        <path d="M 31.78125 66.40625 
Q 24.171875 66.40625 20.328125 58.90625 
Q 16.5 51.421875 16.5 36.375 
Q 16.5 21.390625 20.328125 13.890625 
Q 24.171875 6.390625 31.78125 6.390625 
Q 39.453125 6.390625 43.28125 13.890625 
Q 47.125 21.390625 47.125 36.375 
Q 47.125 51.421875 43.28125 58.90625 
Q 39.453125 66.40625 31.78125 66.40625 
z
M 31.78125 74.21875 
Q 44.046875 74.21875 50.515625 64.515625 
Q 56.984375 54.828125 56.984375 36.375 
Q 56.984375 17.96875 50.515625 8.265625 
Q 44.046875 -1.421875 31.78125 -1.421875 
Q 19.53125 -1.421875 13.0625 8.265625 
Q 6.59375 17.96875 6.59375 36.375 
Q 6.59375 54.828125 13.0625 64.515625 
Q 19.53125 74.21875 31.78125 74.21875 
z
" id="DejaVuSans-48"/>
       </defs>
       <use xlink:href="#DejaVuSans-48"/>
      </g>
     </g>
    </g>
    <g id="xtick_2">
     <g id="line2d_3">
      <path clip-path="url(#p7773b49952)" d="M 137.910857 298.944 
L 137.910857 27.648 
" style="fill:none;stroke:#b0b0b0;stroke-linecap:square;stroke-width:0.8;"/>
     </g>
     <g id="line2d_4">
      <g>
       <use style="stroke:#000000;stroke-width:0.8;" x="137.910857" xlink:href="#m341dbd4045" y="298.944"/>
      </g>
     </g>
     <g id="text_2">
      <!-- 2 -->
      <g transform="translate(131.548357 321.140875)scale(0.2 -0.2)">
       <defs>
        <path d="M 19.1875 8.296875 
L 53.609375 8.296875 
L 53.609375 0 
L 7.328125 0 
L 7.328125 8.296875 
Q 12.9375 14.109375 22.625 23.890625 
Q 32.328125 33.6875 34.8125 36.53125 
Q 39.546875 41.84375 41.421875 45.53125 
Q 43.3125 49.21875 43.3125 52.78125 
Q 43.3125 58.59375 39.234375 62.25 
Q 35.15625 65.921875 28.609375 65.921875 
Q 23.96875 65.921875 18.8125 64.3125 
Q 13.671875 62.703125 7.8125 59.421875 
L 7.8125 69.390625 
Q 13.765625 71.78125 18.9375 73 
Q 24.125 74.21875 28.421875 74.21875 
Q 39.75 74.21875 46.484375 68.546875 
Q 53.21875 62.890625 53.21875 53.421875 
Q 53.21875 48.921875 51.53125 44.890625 
Q 49.859375 40.875 45.40625 35.40625 
Q 44.1875 33.984375 37.640625 27.21875 
Q 31.109375 20.453125 19.1875 8.296875 
z
" id="DejaVuSans-50"/>
       </defs>
       <use xlink:href="#DejaVuSans-50"/>
      </g>
     </g>
    </g>
    <g id="xtick_3">
     <g id="line2d_5">
      <path clip-path="url(#p7773b49952)" d="M 218.221714 298.944 
L 218.221714 27.648 
" style="fill:none;stroke:#b0b0b0;stroke-linecap:square;stroke-width:0.8;"/>
     </g>
     <g id="line2d_6">
      <g>
       <use style="stroke:#000000;stroke-width:0.8;" x="218.221714" xlink:href="#m341dbd4045" y="298.944"/>
      </g>
     </g>
     <g id="text_3">
      <!-- 4 -->
      <g transform="translate(211.859214 321.140875)scale(0.2 -0.2)">
       <defs>
        <path d="M 37.796875 64.3125 
L 12.890625 25.390625 
L 37.796875 25.390625 
z
M 35.203125 72.90625 
L 47.609375 72.90625 
L 47.609375 25.390625 
L 58.015625 25.390625 
L 58.015625 17.1875 
L 47.609375 17.1875 
L 47.609375 0 
L 37.796875 0 
L 37.796875 17.1875 
L 4.890625 17.1875 
L 4.890625 26.703125 
z
" id="DejaVuSans-52"/>
       </defs>
       <use xlink:href="#DejaVuSans-52"/>
      </g>
     </g>
    </g>
    <g id="xtick_4">
     <g id="line2d_7">
      <path clip-path="url(#p7773b49952)" d="M 298.532571 298.944 
L 298.532571 27.648 
" style="fill:none;stroke:#b0b0b0;stroke-linecap:square;stroke-width:0.8;"/>
     </g>
     <g id="line2d_8">
      <g>
       <use style="stroke:#000000;stroke-width:0.8;" x="298.532571" xlink:href="#m341dbd4045" y="298.944"/>
      </g>
     </g>
     <g id="text_4">
      <!-- 6 -->
      <g transform="translate(292.170071 321.140875)scale(0.2 -0.2)">
       <defs>
        <path d="M 33.015625 40.375 
Q 26.375 40.375 22.484375 35.828125 
Q 18.609375 31.296875 18.609375 23.390625 
Q 18.609375 15.53125 22.484375 10.953125 
Q 26.375 6.390625 33.015625 6.390625 
Q 39.65625 6.390625 43.53125 10.953125 
Q 47.40625 15.53125 47.40625 23.390625 
Q 47.40625 31.296875 43.53125 35.828125 
Q 39.65625 40.375 33.015625 40.375 
z
M 52.59375 71.296875 
L 52.59375 62.3125 
Q 48.875 64.0625 45.09375 64.984375 
Q 41.3125 65.921875 37.59375 65.921875 
Q 27.828125 65.921875 22.671875 59.328125 
Q 17.53125 52.734375 16.796875 39.40625 
Q 19.671875 43.65625 24.015625 45.921875 
Q 28.375 48.1875 33.59375 48.1875 
Q 44.578125 48.1875 50.953125 41.515625 
Q 57.328125 34.859375 57.328125 23.390625 
Q 57.328125 12.15625 50.6875 5.359375 
Q 44.046875 -1.421875 33.015625 -1.421875 
Q 20.359375 -1.421875 13.671875 8.265625 
Q 6.984375 17.96875 6.984375 36.375 
Q 6.984375 53.65625 15.1875 63.9375 
Q 23.390625 74.21875 37.203125 74.21875 
Q 40.921875 74.21875 44.703125 73.484375 
Q 48.484375 72.75 52.59375 71.296875 
z
" id="DejaVuSans-54"/>
       </defs>
       <use xlink:href="#DejaVuSans-54"/>
      </g>
     </g>
    </g>
    <g id="xtick_5">
     <g id="line2d_9">
      <path clip-path="url(#p7773b49952)" d="M 97.755429 298.944 
L 97.755429 27.648 
" style="fill:none;stroke:#b0b0b0;stroke-linecap:square;stroke-width:0.8;"/>
     </g>
     <g id="line2d_10">
      <defs>
       <path d="M 0 0 
L 0 2 
" id="m9572e57a76" style="stroke:#000000;stroke-width:0.6;"/>
      </defs>
      <g>
       <use style="stroke:#000000;stroke-width:0.6;" x="97.755429" xlink:href="#m9572e57a76" y="298.944"/>
      </g>
     </g>
    </g>
    <g id="xtick_6">
     <g id="line2d_11">
      <path clip-path="url(#p7773b49952)" d="M 178.066286 298.944 
L 178.066286 27.648 
" style="fill:none;stroke:#b0b0b0;stroke-linecap:square;stroke-width:0.8;"/>
     </g>
     <g id="line2d_12">
      <g>
       <use style="stroke:#000000;stroke-width:0.6;" x="178.066286" xlink:href="#m9572e57a76" y="298.944"/>
      </g>
     </g>
    </g>
    <g id="xtick_7">
     <g id="line2d_13">
      <path clip-path="url(#p7773b49952)" d="M 258.377143 298.944 
L 258.377143 27.648 
" style="fill:none;stroke:#b0b0b0;stroke-linecap:square;stroke-width:0.8;"/>
     </g>
     <g id="line2d_14">
      <g>
       <use style="stroke:#000000;stroke-width:0.6;" x="258.377143" xlink:href="#m9572e57a76" y="298.944"/>
      </g>
     </g>
    </g>
    <g id="xtick_8">
     <g id="line2d_15">
      <path clip-path="url(#p7773b49952)" d="M 338.688 298.944 
L 338.688 27.648 
" style="fill:none;stroke:#b0b0b0;stroke-linecap:square;stroke-width:0.8;"/>
     </g>
     <g id="line2d_16">
      <g>
       <use style="stroke:#000000;stroke-width:0.6;" x="338.688" xlink:href="#m9572e57a76" y="298.944"/>
      </g>
     </g>
    </g>
    <g id="text_5">
     <!-- log10(# (f+g)-evals / dimension) -->
     <g transform="translate(58.145016 342.217594)scale(0.17 -0.17)">
      <defs>
       <path d="M 9.421875 75.984375 
L 18.40625 75.984375 
L 18.40625 0 
L 9.421875 0 
z
" id="DejaVuSans-108"/>
       <path d="M 30.609375 48.390625 
Q 23.390625 48.390625 19.1875 42.75 
Q 14.984375 37.109375 14.984375 27.296875 
Q 14.984375 17.484375 19.15625 11.84375 
Q 23.34375 6.203125 30.609375 6.203125 
Q 37.796875 6.203125 41.984375 11.859375 
Q 46.1875 17.53125 46.1875 27.296875 
Q 46.1875 37.015625 41.984375 42.703125 
Q 37.796875 48.390625 30.609375 48.390625 
z
M 30.609375 56 
Q 42.328125 56 49.015625 48.375 
Q 55.71875 40.765625 55.71875 27.296875 
Q 55.71875 13.875 49.015625 6.21875 
Q 42.328125 -1.421875 30.609375 -1.421875 
Q 18.84375 -1.421875 12.171875 6.21875 
Q 5.515625 13.875 5.515625 27.296875 
Q 5.515625 40.765625 12.171875 48.375 
Q 18.84375 56 30.609375 56 
z
" id="DejaVuSans-111"/>
       <path d="M 45.40625 27.984375 
Q 45.40625 37.75 41.375 43.109375 
Q 37.359375 48.484375 30.078125 48.484375 
Q 22.859375 48.484375 18.828125 43.109375 
Q 14.796875 37.75 14.796875 27.984375 
Q 14.796875 18.265625 18.828125 12.890625 
Q 22.859375 7.515625 30.078125 7.515625 
Q 37.359375 7.515625 41.375 12.890625 
Q 45.40625 18.265625 45.40625 27.984375 
z
M 54.390625 6.78125 
Q 54.390625 -7.171875 48.1875 -13.984375 
Q 42 -20.796875 29.203125 -20.796875 
Q 24.46875 -20.796875 20.265625 -20.09375 
Q 16.0625 -19.390625 12.109375 -17.921875 
L 12.109375 -9.1875 
Q 16.0625 -11.328125 19.921875 -12.34375 
Q 23.78125 -13.375 27.78125 -13.375 
Q 36.625 -13.375 41.015625 -8.765625 
Q 45.40625 -4.15625 45.40625 5.171875 
L 45.40625 9.625 
Q 42.625 4.78125 38.28125 2.390625 
Q 33.9375 0 27.875 0 
Q 17.828125 0 11.671875 7.65625 
Q 5.515625 15.328125 5.515625 27.984375 
Q 5.515625 40.671875 11.671875 48.328125 
Q 17.828125 56 27.875 56 
Q 33.9375 56 38.28125 53.609375 
Q 42.625 51.21875 45.40625 46.390625 
L 45.40625 54.6875 
L 54.390625 54.6875 
z
" id="DejaVuSans-103"/>
       <path d="M 12.40625 8.296875 
L 28.515625 8.296875 
L 28.515625 63.921875 
L 10.984375 60.40625 
L 10.984375 69.390625 
L 28.421875 72.90625 
L 38.28125 72.90625 
L 38.28125 8.296875 
L 54.390625 8.296875 
L 54.390625 0 
L 12.40625 0 
z
" id="DejaVuSans-49"/>
       <path d="M 31 75.875 
Q 24.46875 64.65625 21.28125 53.65625 
Q 18.109375 42.671875 18.109375 31.390625 
Q 18.109375 20.125 21.3125 9.0625 
Q 24.515625 -2 31 -13.1875 
L 23.1875 -13.1875 
Q 15.875 -1.703125 12.234375 9.375 
Q 8.59375 20.453125 8.59375 31.390625 
Q 8.59375 42.28125 12.203125 53.3125 
Q 15.828125 64.359375 23.1875 75.875 
z
" id="DejaVuSans-40"/>
       <path d="M 51.125 44 
L 36.921875 44 
L 32.8125 27.6875 
L 47.125 27.6875 
z
M 43.796875 71.78125 
L 38.71875 51.515625 
L 52.984375 51.515625 
L 58.109375 71.78125 
L 65.921875 71.78125 
L 60.890625 51.515625 
L 76.125 51.515625 
L 76.125 44 
L 58.984375 44 
L 54.984375 27.6875 
L 70.515625 27.6875 
L 70.515625 20.21875 
L 53.078125 20.21875 
L 48 0 
L 40.1875 0 
L 45.21875 20.21875 
L 30.90625 20.21875 
L 25.875 0 
L 18.015625 0 
L 23.09375 20.21875 
L 7.71875 20.21875 
L 7.71875 27.6875 
L 24.90625 27.6875 
L 29 44 
L 13.28125 44 
L 13.28125 51.515625 
L 30.90625 51.515625 
L 35.890625 71.78125 
z
" id="DejaVuSans-35"/>
       <path id="DejaVuSans-32"/>
       <path d="M 37.109375 75.984375 
L 37.109375 68.5 
L 28.515625 68.5 
Q 23.6875 68.5 21.796875 66.546875 
Q 19.921875 64.59375 19.921875 59.515625 
L 19.921875 54.6875 
L 34.71875 54.6875 
L 34.71875 47.703125 
L 19.921875 47.703125 
L 19.921875 0 
L 10.890625 0 
L 10.890625 47.703125 
L 2.296875 47.703125 
L 2.296875 54.6875 
L 10.890625 54.6875 
L 10.890625 58.5 
Q 10.890625 67.625 15.140625 71.796875 
Q 19.390625 75.984375 28.609375 75.984375 
z
" id="DejaVuSans-102"/>
       <path d="M 46 62.703125 
L 46 35.5 
L 73.1875 35.5 
L 73.1875 27.203125 
L 46 27.203125 
L 46 0 
L 37.796875 0 
L 37.796875 27.203125 
L 10.59375 27.203125 
L 10.59375 35.5 
L 37.796875 35.5 
L 37.796875 62.703125 
z
" id="DejaVuSans-43"/>
       <path d="M 8.015625 75.875 
L 15.828125 75.875 
Q 23.140625 64.359375 26.78125 53.3125 
Q 30.421875 42.28125 30.421875 31.390625 
Q 30.421875 20.453125 26.78125 9.375 
Q 23.140625 -1.703125 15.828125 -13.1875 
L 8.015625 -13.1875 
Q 14.5 -2 17.703125 9.0625 
Q 20.90625 20.125 20.90625 31.390625 
Q 20.90625 42.671875 17.703125 53.65625 
Q 14.5 64.65625 8.015625 75.875 
z
" id="DejaVuSans-41"/>
       <path d="M 4.890625 31.390625 
L 31.203125 31.390625 
L 31.203125 23.390625 
L 4.890625 23.390625 
z
" id="DejaVuSans-45"/>
       <path d="M 56.203125 29.59375 
L 56.203125 25.203125 
L 14.890625 25.203125 
Q 15.484375 15.921875 20.484375 11.0625 
Q 25.484375 6.203125 34.421875 6.203125 
Q 39.59375 6.203125 44.453125 7.46875 
Q 49.3125 8.734375 54.109375 11.28125 
L 54.109375 2.78125 
Q 49.265625 0.734375 44.1875 -0.34375 
Q 39.109375 -1.421875 33.890625 -1.421875 
Q 20.796875 -1.421875 13.15625 6.1875 
Q 5.515625 13.8125 5.515625 26.8125 
Q 5.515625 40.234375 12.765625 48.109375 
Q 20.015625 56 32.328125 56 
Q 43.359375 56 49.78125 48.890625 
Q 56.203125 41.796875 56.203125 29.59375 
z
M 47.21875 32.234375 
Q 47.125 39.59375 43.09375 43.984375 
Q 39.0625 48.390625 32.421875 48.390625 
Q 24.90625 48.390625 20.390625 44.140625 
Q 15.875 39.890625 15.1875 32.171875 
z
" id="DejaVuSans-101"/>
       <path d="M 2.984375 54.6875 
L 12.5 54.6875 
L 29.59375 8.796875 
L 46.6875 54.6875 
L 56.203125 54.6875 
L 35.6875 0 
L 23.484375 0 
z
" id="DejaVuSans-118"/>
       <path d="M 34.28125 27.484375 
Q 23.390625 27.484375 19.1875 25 
Q 14.984375 22.515625 14.984375 16.5 
Q 14.984375 11.71875 18.140625 8.90625 
Q 21.296875 6.109375 26.703125 6.109375 
Q 34.1875 6.109375 38.703125 11.40625 
Q 43.21875 16.703125 43.21875 25.484375 
L 43.21875 27.484375 
z
M 52.203125 31.203125 
L 52.203125 0 
L 43.21875 0 
L 43.21875 8.296875 
Q 40.140625 3.328125 35.546875 0.953125 
Q 30.953125 -1.421875 24.3125 -1.421875 
Q 15.921875 -1.421875 10.953125 3.296875 
Q 6 8.015625 6 15.921875 
Q 6 25.140625 12.171875 29.828125 
Q 18.359375 34.515625 30.609375 34.515625 
L 43.21875 34.515625 
L 43.21875 35.40625 
Q 43.21875 41.609375 39.140625 45 
Q 35.0625 48.390625 27.6875 48.390625 
Q 23 48.390625 18.546875 47.265625 
Q 14.109375 46.140625 10.015625 43.890625 
L 10.015625 52.203125 
Q 14.9375 54.109375 19.578125 55.046875 
Q 24.21875 56 28.609375 56 
Q 40.484375 56 46.34375 49.84375 
Q 52.203125 43.703125 52.203125 31.203125 
z
" id="DejaVuSans-97"/>
       <path d="M 44.28125 53.078125 
L 44.28125 44.578125 
Q 40.484375 46.53125 36.375 47.5 
Q 32.28125 48.484375 27.875 48.484375 
Q 21.1875 48.484375 17.84375 46.4375 
Q 14.5 44.390625 14.5 40.28125 
Q 14.5 37.15625 16.890625 35.375 
Q 19.28125 33.59375 26.515625 31.984375 
L 29.59375 31.296875 
Q 39.15625 29.25 43.1875 25.515625 
Q 47.21875 21.78125 47.21875 15.09375 
Q 47.21875 7.46875 41.1875 3.015625 
Q 35.15625 -1.421875 24.609375 -1.421875 
Q 20.21875 -1.421875 15.453125 -0.5625 
Q 10.6875 0.296875 5.421875 2 
L 5.421875 11.28125 
Q 10.40625 8.6875 15.234375 7.390625 
Q 20.0625 6.109375 24.8125 6.109375 
Q 31.15625 6.109375 34.5625 8.28125 
Q 37.984375 10.453125 37.984375 14.40625 
Q 37.984375 18.0625 35.515625 20.015625 
Q 33.0625 21.96875 24.703125 23.78125 
L 21.578125 24.515625 
Q 13.234375 26.265625 9.515625 29.90625 
Q 5.8125 33.546875 5.8125 39.890625 
Q 5.8125 47.609375 11.28125 51.796875 
Q 16.75 56 26.8125 56 
Q 31.78125 56 36.171875 55.265625 
Q 40.578125 54.546875 44.28125 53.078125 
z
" id="DejaVuSans-115"/>
       <path d="M 25.390625 72.90625 
L 33.6875 72.90625 
L 8.296875 -9.28125 
L 0 -9.28125 
z
" id="DejaVuSans-47"/>
       <path d="M 45.40625 46.390625 
L 45.40625 75.984375 
L 54.390625 75.984375 
L 54.390625 0 
L 45.40625 0 
L 45.40625 8.203125 
Q 42.578125 3.328125 38.25 0.953125 
Q 33.9375 -1.421875 27.875 -1.421875 
Q 17.96875 -1.421875 11.734375 6.484375 
Q 5.515625 14.40625 5.515625 27.296875 
Q 5.515625 40.1875 11.734375 48.09375 
Q 17.96875 56 27.875 56 
Q 33.9375 56 38.25 53.625 
Q 42.578125 51.265625 45.40625 46.390625 
z
M 14.796875 27.296875 
Q 14.796875 17.390625 18.875 11.75 
Q 22.953125 6.109375 30.078125 6.109375 
Q 37.203125 6.109375 41.296875 11.75 
Q 45.40625 17.390625 45.40625 27.296875 
Q 45.40625 37.203125 41.296875 42.84375 
Q 37.203125 48.484375 30.078125 48.484375 
Q 22.953125 48.484375 18.875 42.84375 
Q 14.796875 37.203125 14.796875 27.296875 
z
" id="DejaVuSans-100"/>
       <path d="M 9.421875 54.6875 
L 18.40625 54.6875 
L 18.40625 0 
L 9.421875 0 
z
M 9.421875 75.984375 
L 18.40625 75.984375 
L 18.40625 64.59375 
L 9.421875 64.59375 
z
" id="DejaVuSans-105"/>
       <path d="M 52 44.1875 
Q 55.375 50.25 60.0625 53.125 
Q 64.75 56 71.09375 56 
Q 79.640625 56 84.28125 50.015625 
Q 88.921875 44.046875 88.921875 33.015625 
L 88.921875 0 
L 79.890625 0 
L 79.890625 32.71875 
Q 79.890625 40.578125 77.09375 44.375 
Q 74.3125 48.1875 68.609375 48.1875 
Q 61.625 48.1875 57.5625 43.546875 
Q 53.515625 38.921875 53.515625 30.90625 
L 53.515625 0 
L 44.484375 0 
L 44.484375 32.71875 
Q 44.484375 40.625 41.703125 44.40625 
Q 38.921875 48.1875 33.109375 48.1875 
Q 26.21875 48.1875 22.15625 43.53125 
Q 18.109375 38.875 18.109375 30.90625 
L 18.109375 0 
L 9.078125 0 
L 9.078125 54.6875 
L 18.109375 54.6875 
L 18.109375 46.1875 
Q 21.1875 51.21875 25.484375 53.609375 
Q 29.78125 56 35.6875 56 
Q 41.65625 56 45.828125 52.96875 
Q 50 49.953125 52 44.1875 
z
" id="DejaVuSans-109"/>
       <path d="M 54.890625 33.015625 
L 54.890625 0 
L 45.90625 0 
L 45.90625 32.71875 
Q 45.90625 40.484375 42.875 44.328125 
Q 39.84375 48.1875 33.796875 48.1875 
Q 26.515625 48.1875 22.3125 43.546875 
Q 18.109375 38.921875 18.109375 30.90625 
L 18.109375 0 
L 9.078125 0 
L 9.078125 54.6875 
L 18.109375 54.6875 
L 18.109375 46.1875 
Q 21.34375 51.125 25.703125 53.5625 
Q 30.078125 56 35.796875 56 
Q 45.21875 56 50.046875 50.171875 
Q 54.890625 44.34375 54.890625 33.015625 
z
" id="DejaVuSans-110"/>
      </defs>
      <use xlink:href="#DejaVuSans-108"/>
      <use x="27.783203" xlink:href="#DejaVuSans-111"/>
      <use x="88.964844" xlink:href="#DejaVuSans-103"/>
      <use x="152.441406" xlink:href="#DejaVuSans-49"/>
      <use x="216.064453" xlink:href="#DejaVuSans-48"/>
      <use x="279.6875" xlink:href="#DejaVuSans-40"/>
      <use x="318.701172" xlink:href="#DejaVuSans-35"/>
      <use x="402.490234" xlink:href="#DejaVuSans-32"/>
      <use x="434.277344" xlink:href="#DejaVuSans-40"/>
      <use x="473.291016" xlink:href="#DejaVuSans-102"/>
      <use x="508.496094" xlink:href="#DejaVuSans-43"/>
      <use x="592.285156" xlink:href="#DejaVuSans-103"/>
      <use x="655.761719" xlink:href="#DejaVuSans-41"/>
      <use x="694.775391" xlink:href="#DejaVuSans-45"/>
      <use x="730.859375" xlink:href="#DejaVuSans-101"/>
      <use x="792.382812" xlink:href="#DejaVuSans-118"/>
      <use x="851.5625" xlink:href="#DejaVuSans-97"/>
      <use x="912.841797" xlink:href="#DejaVuSans-108"/>
      <use x="940.625" xlink:href="#DejaVuSans-115"/>
      <use x="992.724609" xlink:href="#DejaVuSans-32"/>
      <use x="1024.511719" xlink:href="#DejaVuSans-47"/>
      <use x="1058.203125" xlink:href="#DejaVuSans-32"/>
      <use x="1089.990234" xlink:href="#DejaVuSans-100"/>
      <use x="1153.466797" xlink:href="#DejaVuSans-105"/>
      <use x="1181.25" xlink:href="#DejaVuSans-109"/>
      <use x="1278.662109" xlink:href="#DejaVuSans-101"/>
      <use x="1340.185547" xlink:href="#DejaVuSans-110"/>
      <use x="1403.564453" xlink:href="#DejaVuSans-115"/>
      <use x="1455.664062" xlink:href="#DejaVuSans-105"/>
      <use x="1483.447266" xlink:href="#DejaVuSans-111"/>
      <use x="1544.628906" xlink:href="#DejaVuSans-110"/>
      <use x="1608.007812" xlink:href="#DejaVuSans-41"/>
     </g>
    </g>
   </g>
   <g id="matplotlib.axis_2">
    <g id="ytick_1">
     <g id="line2d_17">
      <path clip-path="url(#p7773b49952)" d="M 57.6 298.944 
L 338.688 298.944 
" style="fill:none;stroke:#b0b0b0;stroke-linecap:square;stroke-width:0.8;"/>
     </g>
     <g id="line2d_18">
      <defs>
       <path d="M 0 0 
L -3.5 0 
" id="mf583ab13b1" style="stroke:#000000;stroke-width:0.8;"/>
      </defs>
      <g>
       <use style="stroke:#000000;stroke-width:0.8;" x="57.6" xlink:href="#mf583ab13b1" y="298.944"/>
      </g>
     </g>
     <g id="text_6">
      <!-- 0.0 -->
      <g transform="translate(25.155 305.02275)scale(0.16 -0.16)">
       <defs>
        <path d="M 10.6875 12.40625 
L 21 12.40625 
L 21 0 
L 10.6875 0 
z
" id="DejaVuSans-46"/>
       </defs>
       <use xlink:href="#DejaVuSans-48"/>
       <use x="63.623047" xlink:href="#DejaVuSans-46"/>
       <use x="95.410156" xlink:href="#DejaVuSans-48"/>
      </g>
     </g>
    </g>
    <g id="ytick_2">
     <g id="line2d_19">
      <path clip-path="url(#p7773b49952)" d="M 57.6 245.22202 
L 338.688 245.22202 
" style="fill:none;stroke:#b0b0b0;stroke-linecap:square;stroke-width:0.8;"/>
     </g>
     <g id="line2d_20">
      <g>
       <use style="stroke:#000000;stroke-width:0.8;" x="57.6" xlink:href="#mf583ab13b1" y="245.22202"/>
      </g>
     </g>
     <g id="text_7">
      <!-- 0.2 -->
      <g transform="translate(25.155 251.30077)scale(0.16 -0.16)">
       <use xlink:href="#DejaVuSans-48"/>
       <use x="63.623047" xlink:href="#DejaVuSans-46"/>
       <use x="95.410156" xlink:href="#DejaVuSans-50"/>
      </g>
     </g>
    </g>
    <g id="ytick_3">
     <g id="line2d_21">
      <path clip-path="url(#p7773b49952)" d="M 57.6 191.50004 
L 338.688 191.50004 
" style="fill:none;stroke:#b0b0b0;stroke-linecap:square;stroke-width:0.8;"/>
     </g>
     <g id="line2d_22">
      <g>
       <use style="stroke:#000000;stroke-width:0.8;" x="57.6" xlink:href="#mf583ab13b1" y="191.50004"/>
      </g>
     </g>
     <g id="text_8">
      <!-- 0.4 -->
      <g transform="translate(25.155 197.57879)scale(0.16 -0.16)">
       <use xlink:href="#DejaVuSans-48"/>
       <use x="63.623047" xlink:href="#DejaVuSans-46"/>
       <use x="95.410156" xlink:href="#DejaVuSans-52"/>
      </g>
     </g>
    </g>
    <g id="ytick_4">
     <g id="line2d_23">
      <path clip-path="url(#p7773b49952)" d="M 57.6 137.778059 
L 338.688 137.778059 
" style="fill:none;stroke:#b0b0b0;stroke-linecap:square;stroke-width:0.8;"/>
     </g>
     <g id="line2d_24">
      <g>
       <use style="stroke:#000000;stroke-width:0.8;" x="57.6" xlink:href="#mf583ab13b1" y="137.778059"/>
      </g>
     </g>
     <g id="text_9">
      <!-- 0.6 -->
      <g transform="translate(25.155 143.856809)scale(0.16 -0.16)">
       <use xlink:href="#DejaVuSans-48"/>
       <use x="63.623047" xlink:href="#DejaVuSans-46"/>
       <use x="95.410156" xlink:href="#DejaVuSans-54"/>
      </g>
     </g>
    </g>
    <g id="ytick_5">
     <g id="line2d_25">
      <path clip-path="url(#p7773b49952)" d="M 57.6 84.056079 
L 338.688 84.056079 
" style="fill:none;stroke:#b0b0b0;stroke-linecap:square;stroke-width:0.8;"/>
     </g>
     <g id="line2d_26">
      <g>
       <use style="stroke:#000000;stroke-width:0.8;" x="57.6" xlink:href="#mf583ab13b1" y="84.056079"/>
      </g>
     </g>
     <g id="text_10">
      <!-- 0.8 -->
      <g transform="translate(25.155 90.134829)scale(0.16 -0.16)">
       <defs>
        <path d="M 31.78125 34.625 
Q 24.75 34.625 20.71875 30.859375 
Q 16.703125 27.09375 16.703125 20.515625 
Q 16.703125 13.921875 20.71875 10.15625 
Q 24.75 6.390625 31.78125 6.390625 
Q 38.8125 6.390625 42.859375 10.171875 
Q 46.921875 13.96875 46.921875 20.515625 
Q 46.921875 27.09375 42.890625 30.859375 
Q 38.875 34.625 31.78125 34.625 
z
M 21.921875 38.8125 
Q 15.578125 40.375 12.03125 44.71875 
Q 8.5 49.078125 8.5 55.328125 
Q 8.5 64.0625 14.71875 69.140625 
Q 20.953125 74.21875 31.78125 74.21875 
Q 42.671875 74.21875 48.875 69.140625 
Q 55.078125 64.0625 55.078125 55.328125 
Q 55.078125 49.078125 51.53125 44.71875 
Q 48 40.375 41.703125 38.8125 
Q 48.828125 37.15625 52.796875 32.3125 
Q 56.78125 27.484375 56.78125 20.515625 
Q 56.78125 9.90625 50.3125 4.234375 
Q 43.84375 -1.421875 31.78125 -1.421875 
Q 19.734375 -1.421875 13.25 4.234375 
Q 6.78125 9.90625 6.78125 20.515625 
Q 6.78125 27.484375 10.78125 32.3125 
Q 14.796875 37.15625 21.921875 38.8125 
z
M 18.3125 54.390625 
Q 18.3125 48.734375 21.84375 45.5625 
Q 25.390625 42.390625 31.78125 42.390625 
Q 38.140625 42.390625 41.71875 45.5625 
Q 45.3125 48.734375 45.3125 54.390625 
Q 45.3125 60.0625 41.71875 63.234375 
Q 38.140625 66.40625 31.78125 66.40625 
Q 25.390625 66.40625 21.84375 63.234375 
Q 18.3125 60.0625 18.3125 54.390625 
z
" id="DejaVuSans-56"/>
       </defs>
       <use xlink:href="#DejaVuSans-48"/>
       <use x="63.623047" xlink:href="#DejaVuSans-46"/>
       <use x="95.410156" xlink:href="#DejaVuSans-56"/>
      </g>
     </g>
    </g>
    <g id="ytick_6">
     <g id="line2d_27">
      <path clip-path="url(#p7773b49952)" d="M 57.6 30.334099 
L 338.688 30.334099 
" style="fill:none;stroke:#b0b0b0;stroke-linecap:square;stroke-width:0.8;"/>
     </g>
     <g id="line2d_28">
      <g>
       <use style="stroke:#000000;stroke-width:0.8;" x="57.6" xlink:href="#mf583ab13b1" y="30.334099"/>
      </g>
     </g>
     <g id="text_11">
      <!-- 1.0 -->
      <g transform="translate(25.155 36.412849)scale(0.16 -0.16)">
       <use xlink:href="#DejaVuSans-49"/>
       <use x="63.623047" xlink:href="#DejaVuSans-46"/>
       <use x="95.410156" xlink:href="#DejaVuSans-48"/>
      </g>
     </g>
    </g>
    <g id="text_12">
     <!-- Fraction of function,target pairs -->
     <g transform="translate(17.619531 297.681)rotate(-90)scale(0.17 -0.17)">
      <defs>
       <path d="M 9.8125 72.90625 
L 51.703125 72.90625 
L 51.703125 64.59375 
L 19.671875 64.59375 
L 19.671875 43.109375 
L 48.578125 43.109375 
L 48.578125 34.8125 
L 19.671875 34.8125 
L 19.671875 0 
L 9.8125 0 
z
" id="DejaVuSans-70"/>
       <path d="M 41.109375 46.296875 
Q 39.59375 47.171875 37.8125 47.578125 
Q 36.03125 48 33.890625 48 
Q 26.265625 48 22.1875 43.046875 
Q 18.109375 38.09375 18.109375 28.8125 
L 18.109375 0 
L 9.078125 0 
L 9.078125 54.6875 
L 18.109375 54.6875 
L 18.109375 46.1875 
Q 20.953125 51.171875 25.484375 53.578125 
Q 30.03125 56 36.53125 56 
Q 37.453125 56 38.578125 55.875 
Q 39.703125 55.765625 41.0625 55.515625 
z
" id="DejaVuSans-114"/>
       <path d="M 48.78125 52.59375 
L 48.78125 44.1875 
Q 44.96875 46.296875 41.140625 47.34375 
Q 37.3125 48.390625 33.40625 48.390625 
Q 24.65625 48.390625 19.8125 42.84375 
Q 14.984375 37.3125 14.984375 27.296875 
Q 14.984375 17.28125 19.8125 11.734375 
Q 24.65625 6.203125 33.40625 6.203125 
Q 37.3125 6.203125 41.140625 7.25 
Q 44.96875 8.296875 48.78125 10.40625 
L 48.78125 2.09375 
Q 45.015625 0.34375 40.984375 -0.53125 
Q 36.96875 -1.421875 32.421875 -1.421875 
Q 20.0625 -1.421875 12.78125 6.34375 
Q 5.515625 14.109375 5.515625 27.296875 
Q 5.515625 40.671875 12.859375 48.328125 
Q 20.21875 56 33.015625 56 
Q 37.15625 56 41.109375 55.140625 
Q 45.0625 54.296875 48.78125 52.59375 
z
" id="DejaVuSans-99"/>
       <path d="M 18.3125 70.21875 
L 18.3125 54.6875 
L 36.8125 54.6875 
L 36.8125 47.703125 
L 18.3125 47.703125 
L 18.3125 18.015625 
Q 18.3125 11.328125 20.140625 9.421875 
Q 21.96875 7.515625 27.59375 7.515625 
L 36.8125 7.515625 
L 36.8125 0 
L 27.59375 0 
Q 17.1875 0 13.234375 3.875 
Q 9.28125 7.765625 9.28125 18.015625 
L 9.28125 47.703125 
L 2.6875 47.703125 
L 2.6875 54.6875 
L 9.28125 54.6875 
L 9.28125 70.21875 
z
" id="DejaVuSans-116"/>
       <path d="M 8.5 21.578125 
L 8.5 54.6875 
L 17.484375 54.6875 
L 17.484375 21.921875 
Q 17.484375 14.15625 20.5 10.265625 
Q 23.53125 6.390625 29.59375 6.390625 
Q 36.859375 6.390625 41.078125 11.03125 
Q 45.3125 15.671875 45.3125 23.6875 
L 45.3125 54.6875 
L 54.296875 54.6875 
L 54.296875 0 
L 45.3125 0 
L 45.3125 8.40625 
Q 42.046875 3.421875 37.71875 1 
Q 33.40625 -1.421875 27.6875 -1.421875 
Q 18.265625 -1.421875 13.375 4.4375 
Q 8.5 10.296875 8.5 21.578125 
z
M 31.109375 56 
z
" id="DejaVuSans-117"/>
       <path d="M 11.71875 12.40625 
L 22.015625 12.40625 
L 22.015625 4 
L 14.015625 -11.625 
L 7.71875 -11.625 
L 11.71875 4 
z
" id="DejaVuSans-44"/>
       <path d="M 18.109375 8.203125 
L 18.109375 -20.796875 
L 9.078125 -20.796875 
L 9.078125 54.6875 
L 18.109375 54.6875 
L 18.109375 46.390625 
Q 20.953125 51.265625 25.265625 53.625 
Q 29.59375 56 35.59375 56 
Q 45.5625 56 51.78125 48.09375 
Q 58.015625 40.1875 58.015625 27.296875 
Q 58.015625 14.40625 51.78125 6.484375 
Q 45.5625 -1.421875 35.59375 -1.421875 
Q 29.59375 -1.421875 25.265625 0.953125 
Q 20.953125 3.328125 18.109375 8.203125 
z
M 48.6875 27.296875 
Q 48.6875 37.203125 44.609375 42.84375 
Q 40.53125 48.484375 33.40625 48.484375 
Q 26.265625 48.484375 22.1875 42.84375 
Q 18.109375 37.203125 18.109375 27.296875 
Q 18.109375 17.390625 22.1875 11.75 
Q 26.265625 6.109375 33.40625 6.109375 
Q 40.53125 6.109375 44.609375 11.75 
Q 48.6875 17.390625 48.6875 27.296875 
z
" id="DejaVuSans-112"/>
      </defs>
      <use xlink:href="#DejaVuSans-70"/>
      <use x="50.269531" xlink:href="#DejaVuSans-114"/>
      <use x="91.382812" xlink:href="#DejaVuSans-97"/>
      <use x="152.662109" xlink:href="#DejaVuSans-99"/>
      <use x="207.642578" xlink:href="#DejaVuSans-116"/>
      <use x="246.851562" xlink:href="#DejaVuSans-105"/>
      <use x="274.634766" xlink:href="#DejaVuSans-111"/>
      <use x="335.816406" xlink:href="#DejaVuSans-110"/>
      <use x="399.195312" xlink:href="#DejaVuSans-32"/>
      <use x="430.982422" xlink:href="#DejaVuSans-111"/>
      <use x="492.164062" xlink:href="#DejaVuSans-102"/>
      <use x="527.369141" xlink:href="#DejaVuSans-32"/>
      <use x="559.15625" xlink:href="#DejaVuSans-102"/>
      <use x="594.361328" xlink:href="#DejaVuSans-117"/>
      <use x="657.740234" xlink:href="#DejaVuSans-110"/>
      <use x="721.119141" xlink:href="#DejaVuSans-99"/>
      <use x="776.099609" xlink:href="#DejaVuSans-116"/>
      <use x="815.308594" xlink:href="#DejaVuSans-105"/>
      <use x="843.091797" xlink:href="#DejaVuSans-111"/>
      <use x="904.273438" xlink:href="#DejaVuSans-110"/>
      <use x="967.652344" xlink:href="#DejaVuSans-44"/>
      <use x="999.439453" xlink:href="#DejaVuSans-116"/>
      <use x="1038.648438" xlink:href="#DejaVuSans-97"/>
      <use x="1099.927734" xlink:href="#DejaVuSans-114"/>
      <use x="1139.291016" xlink:href="#DejaVuSans-103"/>
      <use x="1202.767578" xlink:href="#DejaVuSans-101"/>
      <use x="1264.291016" xlink:href="#DejaVuSans-116"/>
      <use x="1303.5" xlink:href="#DejaVuSans-32"/>
      <use x="1335.287109" xlink:href="#DejaVuSans-112"/>
      <use x="1398.763672" xlink:href="#DejaVuSans-97"/>
      <use x="1460.042969" xlink:href="#DejaVuSans-105"/>
      <use x="1487.826172" xlink:href="#DejaVuSans-114"/>
      <use x="1528.939453" xlink:href="#DejaVuSans-115"/>
     </g>
    </g>
   </g>
   <g id="line2d_29">
    <defs>
     <path d="M 0 1.5 
C 0.397805 1.5 0.77937 1.341951 1.06066 1.06066 
C 1.341951 0.77937 1.5 0.397805 1.5 0 
C 1.5 -0.397805 1.341951 -0.77937 1.06066 -1.06066 
C 0.77937 -1.341951 0.397805 -1.5 0 -1.5 
C -0.397805 -1.5 -0.77937 -1.341951 -1.06066 -1.06066 
C -1.341951 -0.77937 -1.5 -0.397805 -1.5 0 
C -1.5 0.397805 -1.341951 0.77937 -1.06066 1.06066 
C -0.77937 1.341951 -0.397805 1.5 0 1.5 
z
" id="m1e4bd54318" style="stroke:#000080;"/>
    </defs>
    <g>
     <use style="fill:#000080;stroke:#000080;" x="221.926629" xlink:href="#m1e4bd54318" y="30.334099"/>
     <use style="fill:#000080;stroke:#000080;" x="221.926629" xlink:href="#m1e4bd54318" y="30.334099"/>
    </g>
   </g>
   <g id="line2d_30">
    <path d="M 45.512012 298.944 
L 45.512012 297.633708 
L 93.863965 297.633708 
L 93.863965 296.323416 
L 95.918017 296.323416 
L 95.918017 295.66827 
L 97.755429 295.66827 
L 97.755429 294.357977 
L 100.934985 294.357977 
L 100.934985 293.047685 
L 103.623262 293.047685 
L 103.623262 291.737393 
L 105.951954 291.737393 
L 105.951954 290.427101 
L 107.009204 290.427101 
L 107.009204 289.771955 
L 111.505558 289.771955 
L 111.505558 287.15137 
L 115.077025 287.15137 
L 115.077025 285.185932 
L 119.097192 285.185932 
L 119.097192 284.530786 
L 119.602714 284.530786 
L 119.602714 283.220494 
L 121.931406 283.220494 
L 121.931406 280.599909 
L 122.782271 280.599909 
L 122.782271 278.634471 
L 125.470548 278.634471 
L 125.470548 277.324179 
L 125.822869 277.324179 
L 125.822869 276.669033 
L 126.50685 276.669033 
L 126.50685 272.08301 
L 126.839037 272.08301 
L 126.839037 268.152133 
L 127.799239 268.152133 
L 127.799239 266.841841 
L 130.926816 266.841841 
L 130.926816 266.186695 
L 131.690703 266.186695 
L 131.690703 265.531549 
L 132.422528 265.531549 
L 132.422528 264.876403 
L 132.659801 264.876403 
L 132.659801 263.566111 
L 133.352844 263.566111 
L 133.352844 262.255818 
L 133.800029 262.255818 
L 133.800029 261.600672 
L 135.878591 261.600672 
L 135.878591 255.704357 
L 136.073445 255.704357 
L 136.073445 255.049211 
L 136.456742 255.049211 
L 136.456742 253.083773 
L 137.910857 253.083773 
L 137.910857 251.773481 
L 138.426341 251.773481 
L 138.426341 250.463189 
L 138.594838 250.463189 
L 138.594838 249.808043 
L 138.761723 249.808043 
L 138.761723 249.152896 
L 139.090775 249.152896 
L 139.090775 247.842604 
L 139.253002 247.842604 
L 139.253002 247.187458 
L 139.730821 247.187458 
L 139.730821 243.911728 
L 140.944478 243.911728 
L 140.944478 243.256582 
L 141.378673 243.256582 
L 141.378673 236.049974 
L 142.07914 236.049974 
L 142.07914 235.394828 
L 142.351634 235.394828 
L 142.351634 234.084536 
L 142.619936 234.084536 
L 142.619936 230.808806 
L 142.884173 230.808806 
L 142.884173 230.15366 
L 143.144465 230.15366 
L 143.144465 229.498513 
L 143.653678 229.498513 
L 143.653678 228.843367 
L 143.778691 228.843367 
L 143.778691 228.188221 
L 145.212864 228.188221 
L 145.212864 224.912491 
L 145.665858 224.912491 
L 145.665858 224.257345 
L 146.107383 224.257345 
L 146.216039 222.947052 
L 146.324022 222.947052 
L 146.324022 221.63676 
L 146.538004 221.63676 
L 146.538004 220.326468 
L 146.854132 220.326468 
L 146.854132 219.016176 
L 147.266916 219.016176 
L 147.266916 216.395591 
L 147.769524 216.395591 
L 147.86833 213.119861 
L 147.96658 213.119861 
L 147.96658 209.84413 
L 148.161434 209.84413 
L 148.161434 207.878692 
L 150.258492 207.878692 
L 150.258492 207.223546 
L 150.932558 207.223546 
L 150.932558 206.5684 
L 151.260066 206.5684 
L 151.260066 203.947816 
L 151.818809 203.947816 
L 151.818809 203.292669 
L 152.283884 203.292669 
L 152.283884 202.637523 
L 152.587184 202.637523 
L 152.662192 190.844894 
L 152.811246 190.844894 
L 152.811246 189.534601 
L 153.750233 189.534601 
L 153.750233 188.879455 
L 154.029268 188.879455 
L 154.029268 188.224309 
L 154.906477 188.224309 
L 154.972161 186.914017 
L 155.0376 186.914017 
L 155.0376 184.948579 
L 155.296925 184.948579 
L 155.361158 182.327994 
L 155.804285 182.327994 
L 155.804285 181.672848 
L 156.052535 181.672848 
L 156.114049 180.362556 
L 156.236431 180.362556 
L 156.236431 179.70741 
L 156.717545 179.70741 
L 156.717545 177.741972 
L 157.011638 177.741972 
L 157.069866 175.121387 
L 157.185742 175.121387 
L 157.185742 173.811095 
L 157.58535 173.811095 
L 157.58535 173.155949 
L 157.809652 173.155949 
L 157.920731 167.91478 
L 158.195371 167.91478 
L 158.195371 167.259634 
L 158.572743 167.259634 
L 158.572743 165.949342 
L 159.046236 165.949342 
L 159.098062 163.328757 
L 159.906985 163.328757 
L 159.956318 158.742735 
L 160.103486 158.742735 
L 160.200913 154.156712 
L 160.442124 154.156712 
L 160.442124 153.501566 
L 161.420284 153.501566 
L 161.465522 150.880981 
L 161.600536 150.880981 
L 161.600536 150.225835 
L 161.911563 150.225835 
L 161.911563 148.260397 
L 162.346481 148.260397 
L 162.346481 147.605251 
L 162.68677 147.605251 
L 162.770815 144.32952 
L 163.469301 144.32952 
L 163.469301 143.019228 
L 163.788565 143.019228 
L 163.788565 142.364082 
L 164.599841 142.364082 
L 164.599841 141.708936 
L 164.86209 141.708936 
L 164.9363 139.743498 
L 165.047026 139.743498 
L 165.047026 139.088352 
L 165.193576 139.088352 
L 165.193576 137.778059 
L 165.55465 137.778059 
L 165.55465 137.122913 
L 165.838222 137.122913 
L 165.838222 135.812621 
L 165.978297 135.812621 
L 165.978297 135.157475 
L 166.117256 135.157475 
L 166.117256 133.192037 
L 166.391896 133.192037 
L 166.391896 131.881745 
L 166.527611 131.881745 
L 166.527611 131.226598 
L 166.695783 131.226598 
L 166.695783 130.571452 
L 166.96153 130.571452 
L 166.994465 127.950868 
L 167.0929 127.950868 
L 167.0929 126.640576 
L 167.352708 126.640576 
L 167.417059 124.675137 
L 167.481174 124.675137 
L 167.576907 121.399407 
L 167.829655 121.399407 
L 167.860992 118.778823 
L 168.202038 118.778823 
L 168.263336 117.46853 
L 168.445948 117.46853 
L 168.445948 116.158238 
L 168.686493 116.158238 
L 168.686493 115.503092 
L 168.805533 115.503092 
L 168.805533 114.1928 
L 168.982583 114.1928 
L 169.011918 111.572215 
L 169.186895 111.572215 
L 169.186895 108.951631 
L 169.302579 108.951631 
L 169.302579 107.641339 
L 169.953269 107.641339 
L 170.036379 104.365608 
L 170.364915 104.365608 
L 170.364915 103.055316 
L 170.607318 103.055316 
L 170.607318 99.12444 
L 170.872762 99.12444 
L 170.951613 96.503855 
L 171.003983 96.503855 
L 171.030109 94.538417 
L 171.134225 94.538417 
L 171.134225 91.917832 
L 171.366236 91.917832 
L 171.366236 91.262686 
L 171.49381 91.262686 
L 171.49381 87.986956 
L 171.8212 87.986956 
L 171.8212 87.33181 
L 172.288901 87.33181 
L 172.288901 86.676664 
L 172.885786 86.676664 
L 172.97942 83.400933 
L 173.00275 83.400933 
L 173.026049 78.81491 
L 173.188276 78.81491 
L 173.188276 78.159764 
L 173.621148 78.159764 
L 173.688525 76.194326 
L 173.733298 76.194326 
L 173.822502 74.884034 
L 174.240098 74.884034 
L 174.240098 74.228888 
L 174.434469 74.228888 
L 174.434469 72.918596 
L 174.753684 72.918596 
L 174.83783 71.608303 
L 175.004915 71.608303 
L 175.004915 70.298011 
L 176.170646 70.298011 
L 176.170646 68.332573 
L 176.383205 68.332573 
L 176.383205 67.677427 
L 176.631116 67.677427 
L 176.706692 66.367135 
L 176.781943 66.367135 
L 176.781943 65.711988 
L 176.912855 65.711988 
L 176.912855 65.056842 
L 177.024289 65.056842 
L 177.024289 64.401696 
L 177.588952 64.401696 
L 177.696161 62.436258 
L 178.900534 62.436258 
L 178.900534 61.781112 
L 179.19724 61.781112 
L 179.19724 61.125966 
L 179.744273 61.125966 
L 179.744273 60.47082 
L 180.503634 60.47082 
L 180.503634 59.815674 
L 181.873839 59.815674 
L 181.873839 59.160527 
L 185.2185 59.160527 
L 185.2185 58.505381 
L 185.921609 58.505381 
L 185.921609 57.850235 
L 186.05448 57.850235 
L 186.05448 57.195089 
L 186.757118 57.195089 
L 186.757118 56.539943 
L 187.072105 56.539943 
L 187.072105 55.884797 
L 187.554422 55.884797 
L 187.554422 55.229651 
L 188.239182 55.229651 
L 188.239182 54.574505 
L 190.44825 54.574505 
L 190.44825 53.919359 
L 192.401027 53.919359 
L 192.401027 53.264213 
L 192.621925 53.264213 
L 192.621925 52.609066 
L 193.348358 52.609066 
L 193.370125 51.298774 
L 193.884553 51.298774 
L 193.884553 50.643628 
L 194.856696 50.643628 
L 194.856696 49.988482 
L 194.969529 49.988482 
L 194.969529 49.333336 
L 195.147247 49.333336 
L 195.173422 48.023044 
L 195.316688 48.023044 
L 195.381422 46.712752 
L 195.682494 46.712752 
L 195.682494 46.057605 
L 195.809049 46.057605 
L 195.809049 45.402459 
L 195.990939 45.402459 
L 195.990939 44.747313 
L 196.115283 44.747313 
L 196.115283 44.092167 
L 196.330776 44.092167 
L 196.385761 42.781875 
L 196.961723 42.781875 
L 196.961723 42.126729 
L 197.926036 42.126729 
L 197.926036 41.471583 
L 198.241462 41.471583 
L 198.241462 40.816437 
L 199.366967 40.816437 
L 199.366967 40.161291 
L 200.273563 40.161291 
L 200.273563 39.506144 
L 201.004787 39.506144 
L 201.004787 38.850998 
L 203.896475 38.850998 
L 203.896475 38.195852 
L 205.0138 38.195852 
L 205.0138 37.540706 
L 205.15087 37.540706 
L 205.217165 36.230414 
L 206.496158 36.230414 
L 206.496158 35.575268 
L 206.974623 35.575268 
L 206.974623 34.920122 
L 207.169625 34.920122 
L 207.169625 34.264976 
L 207.355968 34.264976 
L 207.355968 33.60983 
L 209.452242 33.60983 
L 209.452242 32.954683 
L 209.825945 32.954683 
L 209.825945 32.299537 
L 212.735774 32.299537 
L 212.735774 31.644391 
L 213.125508 31.644391 
L 213.125508 30.989245 
L 221.926629 30.989245 
L 221.926629 30.334099 
L 338.688 30.334099 
L 338.688 30.334099 
" style="fill:none;stroke:#000080;stroke-linecap:square;stroke-width:1.5;"/>
   </g>
   <g id="line2d_31">
    <defs>
     <path d="M 0 6 
C 1.591219 6 3.117479 5.367802 4.242641 4.242641 
C 5.367802 3.117479 6 1.591219 6 0 
C 6 -1.591219 5.367802 -3.117479 4.242641 -4.242641 
C 3.117479 -5.367802 1.591219 -6 0 -6 
C -1.591219 -6 -3.117479 -5.367802 -4.242641 -4.242641 
C -5.367802 -3.117479 -6 -1.591219 -6 0 
C -6 1.591219 -5.367802 3.117479 -4.242641 4.242641 
C -3.117479 5.367802 -1.591219 6 0 6 
z
" id="mf2803b4671" style="stroke:#000080;stroke-width:1.5;"/>
    </defs>
    <g>
     <use style="fill-opacity:0;stroke:#000080;stroke-width:1.5;" x="142.07914" xlink:href="#mf2803b4671" y="235.394828"/>
     <use style="fill-opacity:0;stroke:#000080;stroke-width:1.5;" x="162.770815" xlink:href="#mf2803b4671" y="146.950105"/>
     <use style="fill-opacity:0;stroke:#000080;stroke-width:1.5;" x="193.884553" xlink:href="#mf2803b4671" y="50.643628"/>
     <use style="fill-opacity:0;stroke:#000080;stroke-width:1.5;" x="221.926629" xlink:href="#mf2803b4671" y="30.334099"/>
     <use style="fill-opacity:0;stroke:#000080;stroke-width:1.5;" x="221.926629" xlink:href="#mf2803b4671" y="30.334099"/>
     <use style="fill-opacity:0;stroke:#000080;stroke-width:1.5;" x="338.688" xlink:href="#mf2803b4671" y="30.334099"/>
    </g>
   </g>
   <g id="line2d_32">
    <path style="fill:none;stroke:#000080;stroke-linecap:square;stroke-width:1.5;"/>
    <g/>
   </g>
   <g id="line2d_33">
    <path clip-path="url(#p7773b49952)" d="M 190.720479 53.919359 
" style="fill:none;stroke:#000080;stroke-linecap:square;stroke-width:1.5;"/>
    <defs>
     <path d="M -12 12 
L 12 -12 
M -12 -12 
L 12 12 
" id="m8de72f8b56" style="stroke:#000080;"/>
    </defs>
    <g clip-path="url(#p7773b49952)">
     <use style="fill:#000080;stroke:#000080;" x="190.720479" xlink:href="#m8de72f8b56" y="53.919359"/>
    </g>
   </g>
   <g id="line2d_34">
    <defs>
     <path d="M 0 1.5 
C 0.397805 1.5 0.77937 1.341951 1.06066 1.06066 
C 1.341951 0.77937 1.5 0.397805 1.5 0 
C 1.5 -0.397805 1.341951 -0.77937 1.06066 -1.06066 
C 0.77937 -1.341951 0.397805 -1.5 0 -1.5 
C -0.397805 -1.5 -0.77937 -1.341951 -1.06066 -1.06066 
C -1.341951 -0.77937 -1.5 -0.397805 -1.5 0 
C -1.5 0.397805 -1.341951 0.77937 -1.06066 1.06066 
C -0.77937 1.341951 -0.397805 1.5 0 1.5 
z
" id="mbb5454ab40" style="stroke:#ff00ff;"/>
    </defs>
    <g>
     <use style="fill:#ff00ff;stroke:#ff00ff;" x="158.222599" xlink:href="#mbb5454ab40" y="272.738156"/>
     <use style="fill:#ff00ff;stroke:#ff00ff;" x="158.222599" xlink:href="#mbb5454ab40" y="272.738156"/>
    </g>
   </g>
   <g id="line2d_35">
    <path d="M 45.512012 298.944 
L 45.512012 297.633708 
L 83.830028 297.633708 
L 83.830028 295.66827 
L 90.242884 295.66827 
L 90.242884 295.013123 
L 92.73846 295.013123 
L 92.73846 293.047685 
L 106.48859 293.047685 
L 106.48859 292.392539 
L 109.401893 292.392539 
L 109.401893 291.737393 
L 111.104637 291.737393 
L 111.104637 291.082247 
L 112.655818 291.082247 
L 112.655818 289.771955 
L 119.097192 289.771955 
L 119.097192 288.461662 
L 119.850084 288.461662 
L 119.850084 287.806516 
L 121.264855 287.806516 
L 121.264855 287.15137 
L 122.782271 287.15137 
L 122.782271 286.496224 
L 122.988655 286.496224 
L 122.988655 285.841078 
L 123.394238 285.841078 
L 123.394238 285.185932 
L 125.996395 285.185932 
L 125.996395 284.530786 
L 126.168212 284.530786 
L 126.168212 283.87564 
L 126.839037 283.87564 
L 126.839037 283.220494 
L 127.325746 283.220494 
L 127.325746 282.565348 
L 127.799239 282.565348 
L 127.799239 281.910201 
L 129.290685 281.910201 
L 129.290685 281.255055 
L 129.714332 281.255055 
L 129.714332 280.599909 
L 132.777237 280.599909 
L 132.777237 279.944763 
L 137.558536 279.944763 
L 137.558536 279.289617 
L 137.997836 279.289617 
L 137.997836 278.634471 
L 138.426341 278.634471 
L 138.426341 277.979325 
L 141.521035 277.979325 
L 141.521035 277.324179 
L 141.80232 277.324179 
L 141.80232 276.669033 
L 142.486301 276.669033 
L 142.486301 276.013887 
L 145.665858 276.013887 
L 145.665858 275.35874 
L 149.467659 275.35874 
L 149.467659 274.703594 
L 149.867558 274.703594 
L 149.867558 274.048448 
L 157.809652 274.048448 
L 157.809652 273.393302 
L 158.222599 273.393302 
L 158.222599 272.738156 
L 338.688 272.738156 
" style="fill:none;stroke:#ff00ff;stroke-linecap:square;stroke-width:1.5;"/>
   </g>
   <g id="line2d_36">
    <defs>
     <path d="M -0 8.485281 
L 5.091169 0 
L 0 -8.485281 
L -5.091169 -0 
z
" id="mb36d5390c1" style="stroke:#ff00ff;stroke-linejoin:miter;stroke-width:1.5;"/>
    </defs>
    <g>
     <use style="fill-opacity:0;stroke:#ff00ff;stroke-linejoin:miter;stroke-width:1.5;" x="112.655818" xlink:href="#mb36d5390c1" y="291.082247"/>
     <use style="fill-opacity:0;stroke:#ff00ff;stroke-linejoin:miter;stroke-width:1.5;" x="158.222599" xlink:href="#mb36d5390c1" y="273.393302"/>
     <use style="fill-opacity:0;stroke:#ff00ff;stroke-linejoin:miter;stroke-width:1.5;" x="158.222599" xlink:href="#mb36d5390c1" y="273.393302"/>
     <use style="fill-opacity:0;stroke:#ff00ff;stroke-linejoin:miter;stroke-width:1.5;" x="158.222599" xlink:href="#mb36d5390c1" y="272.738156"/>
     <use style="fill-opacity:0;stroke:#ff00ff;stroke-linejoin:miter;stroke-width:1.5;" x="158.222599" xlink:href="#mb36d5390c1" y="272.738156"/>
     <use style="fill-opacity:0;stroke:#ff00ff;stroke-linejoin:miter;stroke-width:1.5;" x="338.688" xlink:href="#mb36d5390c1" y="272.738156"/>
    </g>
   </g>
   <g id="line2d_37">
    <path style="fill:none;stroke:#ff00ff;stroke-linecap:square;stroke-width:1.5;"/>
    <g/>
   </g>
   <g id="line2d_38">
    <path clip-path="url(#p7773b49952)" d="M 107.009204 292.392539 
" style="fill:none;stroke:#ff00ff;stroke-linecap:square;stroke-width:1.5;"/>
    <defs>
     <path d="M -12 12 
L 12 -12 
M -12 -12 
L 12 12 
" id="m549ff3c880" style="stroke:#ff00ff;"/>
    </defs>
    <g clip-path="url(#p7773b49952)">
     <use style="fill:#ff00ff;stroke:#ff00ff;" x="107.009204" xlink:href="#m549ff3c880" y="292.392539"/>
    </g>
   </g>
   <g id="line2d_39">
    <defs>
     <path d="M 0 1.5 
C 0.397805 1.5 0.77937 1.341951 1.06066 1.06066 
C 1.341951 0.77937 1.5 0.397805 1.5 0 
C 1.5 -0.397805 1.341951 -0.77937 1.06066 -1.06066 
C 0.77937 -1.341951 0.397805 -1.5 0 -1.5 
C -0.397805 -1.5 -0.77937 -1.341951 -1.06066 -1.06066 
C -1.341951 -0.77937 -1.5 -0.397805 -1.5 0 
C -1.5 0.397805 -1.341951 0.77937 -1.06066 1.06066 
C -0.77937 1.341951 -0.397805 1.5 0 1.5 
z
" id="m2a8dbea703" style="stroke:#ff7500;"/>
    </defs>
    <g>
     <use style="fill:#ff7500;stroke:#ff7500;" x="214.413976" xlink:href="#m2a8dbea703" y="30.334099"/>
     <use style="fill:#ff7500;stroke:#ff7500;" x="214.413976" xlink:href="#m2a8dbea703" y="30.334099"/>
    </g>
   </g>
   <g id="line2d_40">
    <path d="M 45.512012 298.944 
L 45.512012 296.978562 
L 118.838828 296.978562 
L 118.838828 295.013123 
L 119.850084 295.013123 
L 119.850084 294.357977 
L 121.931406 294.357977 
L 121.931406 293.047685 
L 122.362027 293.047685 
L 122.362027 291.737393 
L 123.593547 291.737393 
L 123.593547 290.427101 
L 123.985457 290.427101 
L 123.985457 289.771955 
L 125.647598 289.771955 
L 125.647598 289.116809 
L 127.165014 289.116809 
L 127.165014 287.15137 
L 127.48501 287.15137 
L 127.48501 285.841078 
L 128.107907 285.841078 
L 128.107907 285.185932 
L 129.147151 285.185932 
L 129.147151 283.220494 
L 129.433047 283.220494 
L 129.433047 281.910201 
L 129.991152 281.910201 
L 129.991152 281.255055 
L 131.938072 281.255055 
L 131.938072 280.599909 
L 132.30267 280.599909 
L 132.30267 278.634471 
L 132.777237 278.634471 
L 132.777237 276.669033 
L 133.46572 276.669033 
L 133.46572 274.048448 
L 134.236034 274.048448 
L 134.236034 273.393302 
L 134.661403 273.393302 
L 134.661403 271.427864 
L 136.170062 271.427864 
L 136.170062 270.117572 
L 136.645276 270.117572 
L 136.645276 269.462426 
L 137.647286 269.462426 
L 137.647286 268.807279 
L 137.997836 268.807279 
L 137.997836 268.152133 
L 138.341479 268.152133 
L 138.341479 267.496987 
L 138.510793 267.496987 
L 138.510793 266.841841 
L 138.927025 266.841841 
L 138.927025 266.186695 
L 139.253002 266.186695 
L 139.253002 263.566111 
L 139.572998 263.566111 
L 139.572998 262.910965 
L 139.964909 262.910965 
L 139.964909 262.255818 
L 140.11924 262.255818 
L 140.11924 261.600672 
L 140.574203 261.600672 
L 140.574203 260.945526 
L 140.79731 260.945526 
L 140.79731 258.980088 
L 140.944478 258.980088 
L 140.944478 258.324942 
L 141.378673 258.324942 
L 141.378673 257.669796 
L 142.752555 257.669796 
L 142.752555 257.01465 
L 143.144465 257.01465 
L 143.144465 256.359504 
L 144.087359 256.359504 
L 144.087359 255.704357 
L 144.510517 255.704357 
L 144.510517 254.394065 
L 144.865226 254.394065 
L 144.865226 253.738919 
L 145.270136 253.738919 
L 145.270136 253.083773 
L 146.591092 253.083773 
L 146.591092 252.428627 
L 146.801841 252.428627 
L 146.906268 251.118335 
L 147.010073 251.118335 
L 147.010073 250.463189 
L 147.164632 250.463189 
L 147.164632 249.808043 
L 147.368603 249.808043 
L 147.368603 249.152896 
L 147.570215 249.152896 
L 147.670154 247.187458 
L 147.818997 247.187458 
L 147.818997 243.911728 
L 148.306159 243.911728 
L 148.306159 242.601435 
L 148.639252 242.601435 
L 148.639252 240.635997 
L 148.826773 240.635997 
L 148.826773 239.325705 
L 149.15016 239.325705 
L 149.241465 237.360267 
L 149.646525 237.360267 
L 149.735275 234.739682 
L 150.38688 234.739682 
L 150.47195 232.119098 
L 150.849711 232.119098 
L 150.932558 230.15366 
L 151.015013 230.15366 
L 151.097081 228.843367 
L 151.178764 228.843367 
L 151.178764 228.188221 
L 151.818809 228.188221 
L 151.897188 226.222783 
L 151.975216 226.222783 
L 151.975216 224.912491 
L 152.130233 224.912491 
L 152.130233 222.947052 
L 152.474064 222.947052 
L 152.549559 221.63676 
L 152.699575 221.63676 
L 152.699575 220.981614 
L 152.811246 220.981614 
L 152.811246 219.016176 
L 153.105587 219.016176 
L 153.105587 218.36103 
L 153.573542 218.36103 
L 153.644434 215.085299 
L 153.820412 215.085299 
L 153.890309 210.499277 
L 154.201424 210.499277 
L 154.201424 206.5684 
L 154.405793 206.5684 
L 154.473387 205.258108 
L 154.641235 205.258108 
L 154.641235 204.602962 
L 155.070227 204.602962 
L 155.070227 203.292669 
L 155.200129 203.292669 
L 155.200129 201.327231 
L 155.488919 201.327231 
L 155.488919 200.672085 
L 155.678822 200.672085 
L 155.741666 199.361793 
L 155.804285 199.361793 
L 155.897793 195.430916 
L 156.083319 195.430916 
L 156.083319 194.77577 
L 156.297301 194.77577 
L 156.297301 192.155186 
L 156.418408 192.155186 
L 156.478647 188.224309 
L 156.538679 188.224309 
L 156.538679 185.603725 
L 156.687861 185.603725 
L 156.687861 184.948579 
L 156.923929 184.948579 
L 156.923929 182.98314 
L 157.069866 182.98314 
L 157.1279 179.052264 
L 157.185742 179.052264 
L 157.243392 177.086825 
L 157.358125 177.086825 
L 157.443681 175.121387 
L 157.809652 175.121387 
L 157.809652 174.466241 
L 157.976006 174.466241 
L 157.976006 173.811095 
L 158.222599 173.811095 
L 158.331086 171.190511 
L 158.51933 171.190511 
L 158.51933 168.569926 
L 158.968208 168.569926 
L 158.968208 167.91478 
L 159.123917 167.91478 
L 159.123917 166.604488 
L 159.532469 166.604488 
L 159.582872 165.294196 
L 160.054568 165.294196 
L 160.103486 163.983903 
L 160.37011 163.983903 
L 160.37011 163.328757 
L 160.585265 163.328757 
L 160.632719 158.087589 
L 160.727241 158.087589 
L 160.797798 156.777296 
L 160.891432 156.777296 
L 160.984566 154.156712 
L 161.146363 154.156712 
L 161.146363 152.84642 
L 161.488097 152.84642 
L 161.488097 152.191274 
L 161.734513 152.191274 
L 161.823263 148.915543 
L 161.867469 148.915543 
L 161.867469 146.294959 
L 162.065021 146.294959 
L 162.10862 144.32952 
L 162.303474 144.32952 
L 162.303474 143.674374 
L 162.581141 143.674374 
L 162.581141 143.019228 
L 162.707819 143.019228 
L 162.749842 141.708936 
L 162.979172 141.708936 
L 163.082425 139.088352 
L 163.287113 139.088352 
L 163.388564 133.192037 
L 163.50953 133.192037 
L 163.50953 131.881745 
L 163.729146 131.881745 
L 163.768781 129.916306 
L 163.867476 129.916306 
L 163.867476 129.26116 
L 164.410075 129.26116 
L 164.486229 127.950868 
L 164.731458 127.950868 
L 164.731458 127.295722 
L 165.010195 127.295722 
L 165.010195 126.640576 
L 165.211808 126.640576 
L 165.211808 125.330284 
L 165.338904 125.330284 
L 165.338904 124.675137 
L 165.518877 124.675137 
L 165.518877 124.019991 
L 165.643763 124.019991 
L 165.7501 120.744261 
L 165.838222 120.744261 
L 165.873346 119.433969 
L 166.065276 119.433969 
L 166.065276 118.778823 
L 166.289413 118.778823 
L 166.357802 117.46853 
L 166.510705 117.46853 
L 166.510705 115.503092 
L 166.795913 115.503092 
L 166.862349 112.227362 
L 166.978005 112.227362 
L 166.978005 111.572215 
L 167.158215 111.572215 
L 167.190782 109.606777 
L 167.545055 109.606777 
L 167.576907 108.296485 
L 168.01684 108.296485 
L 168.047843 106.986193 
L 168.217383 106.986193 
L 168.309168 104.365608 
L 168.701418 104.365608 
L 168.746115 103.055316 
L 169.055827 103.055316 
L 169.055827 100.434732 
L 169.186895 100.434732 
L 169.27373 99.12444 
L 169.616809 99.12444 
L 169.616809 97.814147 
L 169.743743 97.814147 
L 169.743743 96.503855 
L 169.953269 96.503855 
L 169.953269 95.848709 
L 170.40555 95.848709 
L 170.486538 94.538417 
L 170.58055 94.538417 
L 170.660731 93.228125 
L 170.925369 93.228125 
L 170.925369 91.262686 
L 171.531901 91.262686 
L 171.531901 90.60754 
L 171.783736 90.60754 
L 171.883461 89.297248 
L 172.130306 89.297248 
L 172.240256 86.676664 
L 173.360433 86.676664 
L 173.360433 86.021518 
L 173.609893 86.021518 
L 173.609893 84.056079 
L 173.800244 84.056079 
L 173.800244 83.400933 
L 175.385274 83.400933 
L 175.456309 80.780349 
L 175.567356 80.780349 
L 175.6777 78.81491 
L 175.807212 78.81491 
L 175.807212 78.159764 
L 175.93577 78.159764 
L 175.93577 77.504618 
L 176.141459 77.504618 
L 176.24824 75.53918 
L 176.392805 75.53918 
L 176.392805 74.884034 
L 176.536182 74.884034 
L 176.564717 73.573742 
L 177.308905 73.573742 
L 177.308905 72.918596 
L 177.731751 72.918596 
L 177.731751 72.263449 
L 177.943781 72.263449 
L 177.943781 71.608303 
L 178.213893 71.608303 
L 178.213893 70.953157 
L 178.56483 70.953157 
L 178.6156 69.642865 
L 178.850589 69.642865 
L 178.89222 68.332573 
L 178.999998 68.332573 
L 178.999998 67.677427 
L 179.19724 67.677427 
L 179.213577 66.367135 
L 179.335615 66.367135 
L 179.335615 65.711988 
L 179.513075 65.711988 
L 179.617095 62.436258 
L 179.633043 62.436258 
L 179.736352 60.47082 
L 179.839052 60.47082 
L 179.941152 59.160527 
L 180.159048 59.160527 
L 180.159048 58.505381 
L 180.473278 58.505381 
L 180.473278 56.539943 
L 180.669651 56.539943 
L 180.669651 55.884797 
L 180.915752 55.884797 
L 180.915752 55.229651 
L 181.041188 55.229651 
L 181.121875 53.264213 
L 181.231304 53.264213 
L 181.296633 51.298774 
L 181.74015 51.298774 
L 181.831732 49.988482 
L 182.213959 49.988482 
L 182.213959 49.333336 
L 183.556359 49.333336 
L 183.556359 48.67819 
L 183.695823 48.67819 
L 183.695823 48.023044 
L 183.815378 48.023044 
L 183.859219 46.712752 
L 184.861927 46.712752 
L 184.861927 46.057605 
L 185.17795 46.057605 
L 185.17795 44.747313 
L 187.447822 44.747313 
L 187.447822 44.092167 
L 188.590821 44.092167 
L 188.590821 43.437021 
L 189.08912 43.437021 
L 189.08912 42.781875 
L 193.582736 42.781875 
L 193.582736 42.126729 
L 194.969529 42.126729 
L 194.969529 41.471583 
L 195.12759 41.471583 
L 195.12759 40.816437 
L 195.241946 40.816437 
L 195.241946 40.161291 
L 195.953462 40.161291 
L 195.994058 38.850998 
L 196.576853 38.850998 
L 196.640088 37.540706 
L 196.733018 37.540706 
L 196.733018 36.88556 
L 197.111569 36.88556 
L 197.111569 36.230414 
L 201.446136 36.230414 
L 201.446136 35.575268 
L 202.411472 35.575268 
L 202.420105 34.264976 
L 202.594017 34.264976 
L 202.594017 33.60983 
L 203.799054 33.60983 
L 203.799054 32.954683 
L 208.822501 32.954683 
L 208.822501 32.299537 
L 210.418339 32.299537 
L 210.418339 31.644391 
L 211.725338 31.644391 
L 211.725338 30.989245 
L 214.413976 30.989245 
L 214.413976 30.334099 
L 338.688 30.334099 
L 338.688 30.334099 
" style="fill:none;stroke:#ff7500;stroke-linecap:square;stroke-width:1.5;"/>
   </g>
   <g id="line2d_41">
    <defs>
     <path d="M 0 -6 
L -1.347084 -1.854102 
L -5.706339 -1.854102 
L -2.179628 0.708204 
L -3.526712 4.854102 
L -0 2.291796 
L 3.526712 4.854102 
L 2.179628 0.708204 
L 5.706339 -1.854102 
L 1.347084 -1.854102 
z
" id="m11b561865c" style="stroke:#ff7500;stroke-linejoin:bevel;stroke-width:1.5;"/>
    </defs>
    <g>
     <use style="fill-opacity:0;stroke:#ff7500;stroke-linejoin:bevel;stroke-width:1.5;" x="138.510793" xlink:href="#m11b561865c" y="266.841841"/>
     <use style="fill-opacity:0;stroke:#ff7500;stroke-linejoin:bevel;stroke-width:1.5;" x="165.873346" xlink:href="#m11b561865c" y="120.089115"/>
     <use style="fill-opacity:0;stroke:#ff7500;stroke-linejoin:bevel;stroke-width:1.5;" x="203.799054" xlink:href="#m11b561865c" y="33.60983"/>
     <use style="fill-opacity:0;stroke:#ff7500;stroke-linejoin:bevel;stroke-width:1.5;" x="214.413976" xlink:href="#m11b561865c" y="30.334099"/>
     <use style="fill-opacity:0;stroke:#ff7500;stroke-linejoin:bevel;stroke-width:1.5;" x="214.413976" xlink:href="#m11b561865c" y="30.334099"/>
     <use style="fill-opacity:0;stroke:#ff7500;stroke-linejoin:bevel;stroke-width:1.5;" x="338.688" xlink:href="#m11b561865c" y="30.334099"/>
    </g>
   </g>
   <g id="line2d_42">
    <path style="fill:none;stroke:#ff7500;stroke-linecap:square;stroke-width:1.5;"/>
    <g/>
   </g>
   <g id="line2d_43">
    <path clip-path="url(#p7773b49952)" d="M 190.062477 42.781875 
" style="fill:none;stroke:#ff7500;stroke-linecap:square;stroke-width:1.5;"/>
    <defs>
     <path d="M -12 12 
L 12 -12 
M -12 -12 
L 12 12 
" id="mb4b1cb2d77" style="stroke:#ff7500;"/>
    </defs>
    <g clip-path="url(#p7773b49952)">
     <use style="fill:#ff7500;stroke:#ff7500;" x="190.062477" xlink:href="#mb4b1cb2d77" y="42.781875"/>
    </g>
   </g>
   <g id="line2d_44">
    <defs>
     <path d="M 0 1.5 
C 0.397805 1.5 0.77937 1.341951 1.06066 1.06066 
C 1.341951 0.77937 1.5 0.397805 1.5 0 
C 1.5 -0.397805 1.341951 -0.77937 1.06066 -1.06066 
C 0.77937 -1.341951 0.397805 -1.5 0 -1.5 
C -0.397805 -1.5 -0.77937 -1.341951 -1.06066 -1.06066 
C -1.341951 -0.77937 -1.5 -0.397805 -1.5 0 
C -1.5 0.397805 -1.341951 0.77937 -1.06066 1.06066 
C -0.77937 1.341951 -0.397805 1.5 0 1.5 
z
" id="m8c319353c4" style="stroke:#6495ed;"/>
    </defs>
    <g>
     <use style="fill:#6495ed;stroke:#6495ed;" x="187.361046" xlink:href="#m8c319353c4" y="95.848709"/>
     <use style="fill:#6495ed;stroke:#6495ed;" x="187.361046" xlink:href="#m8c319353c4" y="95.848709"/>
    </g>
   </g>
   <g id="line2d_45">
    <path d="M 45.512012 298.944 
L 45.512012 298.288854 
L 85.66744 298.288854 
L 85.66744 287.806516 
L 91.535274 287.806516 
L 91.535274 287.15137 
L 100.192776 287.15137 
L 100.192776 285.841078 
L 101.646892 285.841078 
L 101.646892 285.185932 
L 102.989037 285.185932 
L 102.989037 283.87564 
L 103.623262 283.87564 
L 103.623262 281.910201 
L 104.826449 281.910201 
L 104.826449 281.255055 
L 105.398279 281.255055 
L 105.398279 279.289617 
L 107.514726 279.289617 
L 107.514726 276.013887 
L 110.694282 276.013887 
L 110.694282 275.35874 
L 111.104637 275.35874 
L 111.104637 274.703594 
L 111.897469 274.703594 
L 111.897469 274.048448 
L 112.280765 274.048448 
L 112.280765 273.393302 
L 113.022974 273.393302 
L 113.022974 272.738156 
L 113.382559 272.738156 
L 113.382559 272.08301 
L 114.080224 272.08301 
L 114.080224 271.427864 
L 114.751048 271.427864 
L 114.751048 270.117572 
L 115.397021 270.117572 
L 115.397021 268.152133 
L 115.711251 268.152133 
L 115.711251 266.186695 
L 116.323218 266.186695 
L 116.323218 264.876403 
L 118.039942 264.876403 
L 118.039942 264.221257 
L 118.310324 264.221257 
L 118.310324 263.566111 
L 118.576578 263.566111 
L 118.576578 262.910965 
L 119.602714 262.910965 
L 119.602714 261.600672 
L 121.036887 261.600672 
L 121.036887 260.29038 
L 121.264855 260.29038 
L 121.264855 258.980088 
L 121.489881 258.980088 
L 121.489881 258.324942 
L 121.931406 258.324942 
L 121.931406 257.01465 
L 122.573415 257.01465 
L 122.573415 256.359504 
L 122.988655 256.359504 
L 122.988655 255.704357 
L 123.192626 255.704357 
L 123.192626 254.394065 
L 123.985457 254.394065 
L 123.985457 253.738919 
L 124.368753 253.738919 
L 124.368753 252.428627 
L 126.168212 252.428627 
L 126.168212 251.773481 
L 126.338353 251.773481 
L 126.338353 251.118335 
L 126.673734 251.118335 
L 126.673734 250.463189 
L 126.839037 250.463189 
L 126.839037 249.808043 
L 127.48501 249.808043 
L 127.48501 249.152896 
L 127.799239 249.152896 
L 127.799239 248.49775 
L 127.954256 248.49775 
L 127.954256 247.187458 
L 128.560901 247.187458 
L 128.560901 246.532312 
L 128.709321 246.532312 
L 128.709321 245.877166 
L 129.002426 245.877166 
L 129.002426 245.22202 
L 129.290685 245.22202 
L 129.290685 244.566874 
L 130.127931 244.566874 
L 130.127931 243.911728 
L 130.796184 243.911728 
L 130.796184 243.256582 
L 130.926816 243.256582 
L 130.926816 241.946289 
L 131.185181 241.946289 
L 131.185181 241.291143 
L 131.690703 241.291143 
L 131.690703 240.635997 
L 131.938072 240.635997 
L 131.938072 239.980851 
L 132.659801 239.980851 
L 132.659801 239.325705 
L 133.57787 239.325705 
L 133.57787 238.670559 
L 134.019394 238.670559 
L 134.019394 238.015413 
L 134.870259 238.015413 
L 134.870259 237.360267 
L 135.381712 237.360267 
L 135.381712 236.049974 
L 135.97629 236.049974 
L 135.97629 235.394828 
L 136.170062 235.394828 
L 136.266147 234.084536 
L 136.645276 234.084536 
L 136.738785 232.119098 
L 136.924311 232.119098 
L 136.924311 231.463952 
L 137.37967 231.463952 
L 137.37967 230.808806 
L 137.910857 230.808806 
L 137.910857 230.15366 
L 138.426341 230.15366 
L 138.426341 229.498513 
L 138.594838 229.498513 
L 138.594838 228.843367 
L 138.84457 228.843367 
L 138.84457 228.188221 
L 139.009092 228.188221 
L 139.009092 226.877929 
L 139.253002 226.877929 
L 139.253002 226.222783 
L 139.413734 226.222783 
L 139.413734 225.567637 
L 139.652088 225.567637 
L 139.652088 224.912491 
L 140.042245 224.912491 
L 140.042245 224.257345 
L 140.348205 224.257345 
L 140.423864 222.947052 
L 140.871049 222.947052 
L 140.871049 221.63676 
L 141.307054 221.63676 
L 141.307054 220.981614 
L 141.45 220.981614 
L 141.521035 219.671322 
L 142.486301 219.671322 
L 142.486301 219.016176 
L 142.686372 219.016176 
L 142.686372 218.36103 
L 142.818488 218.36103 
L 142.818488 217.705884 
L 143.464461 217.705884 
L 143.464461 217.050738 
L 143.778691 217.050738 
L 143.778691 216.395591 
L 143.902815 216.395591 
L 143.902815 215.740445 
L 144.510517 215.740445 
L 144.570138 213.775007 
L 144.629556 213.775007 
L 144.629556 213.119861 
L 145.039911 213.119861 
L 145.039911 212.464715 
L 146.484754 212.464715 
L 146.484754 211.809569 
L 146.801841 211.809569 
L 146.906268 210.499277 
L 146.958248 210.499277 
L 146.958248 209.84413 
L 147.266916 209.84413 
L 147.266916 209.188984 
L 147.670154 209.188984 
L 147.769524 207.878692 
L 148.015498 207.878692 
L 148.015498 207.223546 
L 148.449693 207.223546 
L 148.497276 205.913254 
L 148.639252 205.913254 
L 148.686322 204.602962 
L 149.422654 204.602962 
L 149.467659 203.292669 
L 149.557321 203.292669 
L 149.557321 202.637523 
L 149.823575 202.637523 
L 149.823575 201.982377 
L 149.955193 201.982377 
L 149.955193 201.327231 
L 150.258492 201.327231 
L 150.301393 200.016939 
L 150.38688 200.016939 
L 150.38688 199.361793 
L 150.51433 199.361793 
L 150.51433 198.706647 
L 150.640855 198.706647 
L 150.724698 196.086062 
L 150.766468 196.086062 
L 150.766468 195.430916 
L 150.891184 195.430916 
L 150.973835 192.155186 
L 151.015013 192.155186 
L 151.015013 190.189747 
L 151.13797 190.189747 
L 151.13797 188.879455 
L 151.300575 188.879455 
L 151.300575 188.224309 
L 151.461678 188.224309 
L 151.501723 186.914017 
L 152.0141 186.914017 
L 152.0141 186.258871 
L 152.245598 186.258871 
L 152.245598 185.603725 
L 152.587184 185.603725 
L 152.624728 184.293433 
L 153.287059 184.293433 
L 153.287059 183.638286 
L 153.925152 183.638286 
L 153.925152 182.98314 
L 154.371897 182.98314 
L 154.371897 182.327994 
L 154.641235 182.327994 
L 154.707925 180.362556 
L 154.807483 180.362556 
L 154.906477 179.052264 
L 154.972161 179.052264 
L 154.972161 178.397118 
L 155.296925 178.397118 
L 155.296925 177.741972 
L 155.488919 177.741972 
L 155.55245 175.121387 
L 155.710272 175.121387 
L 155.804285 173.811095 
L 155.897793 173.811095 
L 155.897793 173.155949 
L 156.021696 173.155949 
L 156.021696 172.500803 
L 156.144725 172.500803 
L 156.144725 171.845657 
L 156.628341 171.845657 
L 156.628341 171.190511 
L 156.747178 171.190511 
L 156.835778 169.880218 
L 156.865211 169.880218 
L 156.865211 169.225072 
L 157.214591 169.225072 
L 157.214591 168.569926 
L 157.443681 168.569926 
L 157.443681 167.91478 
L 157.641697 167.91478 
L 157.697862 166.604488 
L 157.837488 166.604488 
L 157.86528 165.294196 
L 158.113432 165.294196 
L 158.168101 163.983903 
L 158.358103 163.983903 
L 158.438903 162.673611 
L 158.51933 162.673611 
L 158.51933 162.018465 
L 159.072168 162.018465 
L 159.072168 161.363319 
L 159.226956 161.363319 
L 159.226956 160.708173 
L 159.481921 160.708173 
L 159.532469 157.432442 
L 159.658204 157.432442 
L 159.708245 155.467004 
L 160.225184 155.467004 
L 160.225184 154.811858 
L 160.632719 154.811858 
L 160.656397 152.84642 
L 160.797798 152.84642 
L 160.821253 150.880981 
L 161.030947 150.880981 
L 161.030947 150.225835 
L 161.146363 150.225835 
L 161.146363 149.570689 
L 161.352206 149.570689 
L 161.352206 148.915543 
L 161.555647 148.915543 
L 161.578106 146.950105 
L 161.667653 146.950105 
L 161.667653 146.294959 
L 161.999419 146.294959 
L 161.999419 145.639813 
L 162.173813 145.639813 
L 162.173813 144.984667 
L 162.517456 144.984667 
L 162.581141 143.674374 
L 162.68677 143.674374 
L 162.707819 142.364082 
L 162.812686 142.364082 
L 162.875305 141.05379 
L 162.999872 141.05379 
L 163.082425 139.743498 
L 163.123555 139.743498 
L 163.123555 138.433206 
L 163.368321 138.433206 
L 163.368321 137.778059 
L 163.569701 137.778059 
L 163.629664 135.812621 
L 163.985177 135.812621 
L 163.985177 135.157475 
L 164.562052 135.157475 
L 164.562052 134.502329 
L 165.083779 134.502329 
L 165.083779 133.847183 
L 165.320804 133.847183 
L 165.320804 133.192037 
L 165.643763 133.192037 
L 165.643763 132.536891 
L 165.995728 132.536891 
L 165.995728 131.881745 
L 166.34073 131.881745 
L 166.34073 131.226598 
L 166.862349 131.226598 
L 166.895472 129.26116 
L 167.223287 129.26116 
L 167.223287 128.606014 
L 167.352708 128.606014 
L 167.449146 126.640576 
L 167.576907 126.640576 
L 167.576907 125.98543 
L 167.798261 125.98543 
L 167.907893 124.675137 
L 168.232714 124.675137 
L 168.232714 124.019991 
L 168.656606 124.019991 
L 168.656606 123.364845 
L 168.77585 123.364845 
L 168.86475 122.054553 
L 169.244833 122.054553 
L 169.244833 121.399407 
L 169.75779 121.399407 
L 169.75779 120.744261 
L 169.911564 120.744261 
L 170.022555 119.433969 
L 170.063995 119.433969 
L 170.119095 118.123676 
L 170.324185 118.123676 
L 170.378471 116.813384 
L 170.499999 116.813384 
L 170.499999 116.158238 
L 170.727268 116.158238 
L 170.727268 115.503092 
L 171.030109 115.503092 
L 171.030109 114.847946 
L 171.379036 114.847946 
L 171.379036 114.1928 
L 171.54458 114.1928 
L 171.54458 113.537654 
L 171.73366 113.537654 
L 171.8212 112.227362 
L 171.846131 112.227362 
L 171.883461 110.917069 
L 171.994974 110.917069 
L 172.00732 109.606777 
L 172.566008 109.606777 
L 172.566008 108.951631 
L 173.440194 108.951631 
L 173.440194 108.296485 
L 175.036065 108.296485 
L 175.046437 106.986193 
L 175.313947 106.986193 
L 175.313947 106.331047 
L 176.092705 106.331047 
L 176.092705 105.675901 
L 176.922168 105.675901 
L 176.922168 105.020754 
L 177.579988 105.020754 
L 177.579988 104.365608 
L 177.767269 104.365608 
L 177.767269 103.710462 
L 179.448753 103.710462 
L 179.497017 102.40017 
L 179.593145 102.40017 
L 179.593145 101.745024 
L 180.789406 101.745024 
L 180.789406 101.089878 
L 181.20219 101.089878 
L 181.20219 100.434732 
L 181.747212 100.434732 
L 181.747212 99.779586 
L 182.61488 99.779586 
L 182.61488 99.12444 
L 183.402933 99.12444 
L 183.402933 98.469293 
L 184.285568 98.469293 
L 184.285568 97.814147 
L 185.143118 97.814147 
L 185.143118 97.159001 
L 186.468683 97.159001 
L 186.468683 96.503855 
L 187.361046 96.503855 
L 187.361046 95.848709 
L 338.688 95.848709 
L 338.688 95.848709 
" style="fill:none;stroke:#6495ed;stroke-linecap:square;stroke-width:1.5;"/>
   </g>
   <g id="line2d_46">
    <defs>
     <path d="M -0 6 
L 6 -6 
L -6 -6 
z
" id="m5fe92e74f6" style="stroke:#6495ed;stroke-linejoin:miter;stroke-width:1.5;"/>
    </defs>
    <g>
     <use style="fill-opacity:0;stroke:#6495ed;stroke-linejoin:miter;stroke-width:1.5;" x="91.535274" xlink:href="#m5fe92e74f6" y="287.806516"/>
     <use style="fill-opacity:0;stroke:#6495ed;stroke-linejoin:miter;stroke-width:1.5;" x="148.686322" xlink:href="#m5fe92e74f6" y="205.258108"/>
     <use style="fill-opacity:0;stroke:#6495ed;stroke-linejoin:miter;stroke-width:1.5;" x="184.285568" xlink:href="#m5fe92e74f6" y="97.814147"/>
     <use style="fill-opacity:0;stroke:#6495ed;stroke-linejoin:miter;stroke-width:1.5;" x="187.361046" xlink:href="#m5fe92e74f6" y="95.848709"/>
     <use style="fill-opacity:0;stroke:#6495ed;stroke-linejoin:miter;stroke-width:1.5;" x="187.361046" xlink:href="#m5fe92e74f6" y="95.848709"/>
     <use style="fill-opacity:0;stroke:#6495ed;stroke-linejoin:miter;stroke-width:1.5;" x="338.688" xlink:href="#m5fe92e74f6" y="95.848709"/>
    </g>
   </g>
   <g id="line2d_47">
    <path style="fill:none;stroke:#6495ed;stroke-linecap:square;stroke-width:1.5;"/>
    <g/>
   </g>
   <g id="line2d_48">
    <path clip-path="url(#p7773b49952)" d="M 98.606294 287.15137 
" style="fill:none;stroke:#6495ed;stroke-linecap:square;stroke-width:1.5;"/>
    <defs>
     <path d="M -12 12 
L 12 -12 
M -12 -12 
L 12 12 
" id="mee0327411f" style="stroke:#6495ed;"/>
    </defs>
    <g clip-path="url(#p7773b49952)">
     <use style="fill:#6495ed;stroke:#6495ed;" x="98.606294" xlink:href="#mee0327411f" y="287.15137"/>
    </g>
   </g>
   <g id="line2d_49">
    <path d="M 338.688 272.738156 
L 369.60768 293.571802 
" style="fill:none;stroke:#ff00ff;stroke-linecap:square;stroke-width:1.5;"/>
    <g>
     <use style="fill-opacity:0;stroke:#ff00ff;stroke-linejoin:miter;stroke-width:1.5;" x="338.688" xlink:href="#mb36d5390c1" y="272.738156"/>
     <use style="fill-opacity:0;stroke:#ff00ff;stroke-linejoin:miter;stroke-width:1.5;" x="369.60768" xlink:href="#mb36d5390c1" y="293.571802"/>
    </g>
   </g>
   <g id="line2d_50">
    <path d="M 338.688 95.848709 
L 369.60768 207.616634 
" style="fill:none;stroke:#6495ed;stroke-linecap:square;stroke-width:1.5;"/>
    <g>
     <use style="fill-opacity:0;stroke:#6495ed;stroke-linejoin:miter;stroke-width:1.5;" x="338.688" xlink:href="#m5fe92e74f6" y="95.848709"/>
     <use style="fill-opacity:0;stroke:#6495ed;stroke-linejoin:miter;stroke-width:1.5;" x="369.60768" xlink:href="#m5fe92e74f6" y="207.616634"/>
    </g>
   </g>
   <g id="line2d_51">
    <path d="M 338.688 30.334099 
L 369.60768 121.661465 
" style="fill:none;stroke:#000080;stroke-linecap:square;stroke-width:1.5;"/>
    <g>
     <use style="fill-opacity:0;stroke:#000080;stroke-width:1.5;" x="338.688" xlink:href="#mf2803b4671" y="30.334099"/>
     <use style="fill-opacity:0;stroke:#000080;stroke-width:1.5;" x="369.60768" xlink:href="#mf2803b4671" y="121.661465"/>
    </g>
   </g>
   <g id="line2d_52">
    <path d="M 338.688 30.334099 
L 369.60768 35.706297 
" style="fill:none;stroke:#ff7500;stroke-linecap:square;stroke-width:1.5;"/>
    <g>
     <use style="fill-opacity:0;stroke:#ff7500;stroke-linejoin:bevel;stroke-width:1.5;" x="338.688" xlink:href="#m11b561865c" y="30.334099"/>
     <use style="fill-opacity:0;stroke:#ff7500;stroke-linejoin:bevel;stroke-width:1.5;" x="369.60768" xlink:href="#m11b561865c" y="35.706297"/>
    </g>
   </g>
   <g id="line2d_53">
    <path d="M 338.688 298.944 
L 338.688 30.334099 
" style="fill:none;stroke:#000000;stroke-linecap:square;stroke-width:1.5;"/>
   </g>
   <g id="patch_3">
    <path d="M 57.6 298.944 
L 57.6 27.648 
" style="fill:none;stroke:#000000;stroke-linecap:square;stroke-linejoin:miter;stroke-width:0.8;"/>
   </g>
   <g id="patch_4">
    <path d="M 338.688 298.944 
L 338.688 27.648 
" style="fill:none;stroke:#000000;stroke-linecap:square;stroke-linejoin:miter;stroke-width:0.8;"/>
   </g>
   <g id="patch_5">
    <path d="M 57.6 298.944 
L 338.688 298.944 
" style="fill:none;stroke:#000000;stroke-linecap:square;stroke-linejoin:miter;stroke-width:0.8;"/>
   </g>
   <g id="patch_6">
    <path d="M 57.6 27.648 
L 338.688 27.648 
" style="fill:none;stroke:#000000;stroke-linecap:square;stroke-linejoin:miter;stroke-width:0.8;"/>
   </g>
   <g id="text_13">
    <!-- cobyla -->
    <g transform="translate(375.22944 298.262739)scale(0.17 -0.17)">
     <defs>
      <path d="M 48.6875 27.296875 
Q 48.6875 37.203125 44.609375 42.84375 
Q 40.53125 48.484375 33.40625 48.484375 
Q 26.265625 48.484375 22.1875 42.84375 
Q 18.109375 37.203125 18.109375 27.296875 
Q 18.109375 17.390625 22.1875 11.75 
Q 26.265625 6.109375 33.40625 6.109375 
Q 40.53125 6.109375 44.609375 11.75 
Q 48.6875 17.390625 48.6875 27.296875 
z
M 18.109375 46.390625 
Q 20.953125 51.265625 25.265625 53.625 
Q 29.59375 56 35.59375 56 
Q 45.5625 56 51.78125 48.09375 
Q 58.015625 40.1875 58.015625 27.296875 
Q 58.015625 14.40625 51.78125 6.484375 
Q 45.5625 -1.421875 35.59375 -1.421875 
Q 29.59375 -1.421875 25.265625 0.953125 
Q 20.953125 3.328125 18.109375 8.203125 
L 18.109375 0 
L 9.078125 0 
L 9.078125 75.984375 
L 18.109375 75.984375 
z
" id="DejaVuSans-98"/>
      <path d="M 32.171875 -5.078125 
Q 28.375 -14.84375 24.75 -17.8125 
Q 21.140625 -20.796875 15.09375 -20.796875 
L 7.90625 -20.796875 
L 7.90625 -13.28125 
L 13.1875 -13.28125 
Q 16.890625 -13.28125 18.9375 -11.515625 
Q 21 -9.765625 23.484375 -3.21875 
L 25.09375 0.875 
L 2.984375 54.6875 
L 12.5 54.6875 
L 29.59375 11.921875 
L 46.6875 54.6875 
L 56.203125 54.6875 
z
" id="DejaVuSans-121"/>
     </defs>
     <use xlink:href="#DejaVuSans-99"/>
     <use x="54.980469" xlink:href="#DejaVuSans-111"/>
     <use x="116.162109" xlink:href="#DejaVuSans-98"/>
     <use x="179.638672" xlink:href="#DejaVuSans-121"/>
     <use x="238.818359" xlink:href="#DejaVuSans-108"/>
     <use x="266.601562" xlink:href="#DejaVuSans-97"/>
    </g>
   </g>
   <g id="text_14">
    <!-- slsqp -->
    <g transform="translate(375.22944 212.307571)scale(0.17 -0.17)">
     <defs>
      <path d="M 14.796875 27.296875 
Q 14.796875 17.390625 18.875 11.75 
Q 22.953125 6.109375 30.078125 6.109375 
Q 37.203125 6.109375 41.296875 11.75 
Q 45.40625 17.390625 45.40625 27.296875 
Q 45.40625 37.203125 41.296875 42.84375 
Q 37.203125 48.484375 30.078125 48.484375 
Q 22.953125 48.484375 18.875 42.84375 
Q 14.796875 37.203125 14.796875 27.296875 
z
M 45.40625 8.203125 
Q 42.578125 3.328125 38.25 0.953125 
Q 33.9375 -1.421875 27.875 -1.421875 
Q 17.96875 -1.421875 11.734375 6.484375 
Q 5.515625 14.40625 5.515625 27.296875 
Q 5.515625 40.1875 11.734375 48.09375 
Q 17.96875 56 27.875 56 
Q 33.9375 56 38.25 53.625 
Q 42.578125 51.265625 45.40625 46.390625 
L 45.40625 54.6875 
L 54.390625 54.6875 
L 54.390625 -20.796875 
L 45.40625 -20.796875 
z
" id="DejaVuSans-113"/>
     </defs>
     <use xlink:href="#DejaVuSans-115"/>
     <use x="52.099609" xlink:href="#DejaVuSans-108"/>
     <use x="79.882812" xlink:href="#DejaVuSans-115"/>
     <use x="131.982422" xlink:href="#DejaVuSans-113"/>
     <use x="195.458984" xlink:href="#DejaVuSans-112"/>
    </g>
   </g>
   <g id="text_15">
    <!-- alN5 -->
    <g transform="translate(375.22944 126.352403)scale(0.17 -0.17)">
     <defs>
      <path d="M 9.8125 72.90625 
L 23.09375 72.90625 
L 55.421875 11.921875 
L 55.421875 72.90625 
L 64.984375 72.90625 
L 64.984375 0 
L 51.703125 0 
L 19.390625 60.984375 
L 19.390625 0 
L 9.8125 0 
z
" id="DejaVuSans-78"/>
      <path d="M 10.796875 72.90625 
L 49.515625 72.90625 
L 49.515625 64.59375 
L 19.828125 64.59375 
L 19.828125 46.734375 
Q 21.96875 47.46875 24.109375 47.828125 
Q 26.265625 48.1875 28.421875 48.1875 
Q 40.625 48.1875 47.75 41.5 
Q 54.890625 34.8125 54.890625 23.390625 
Q 54.890625 11.625 47.5625 5.09375 
Q 40.234375 -1.421875 26.90625 -1.421875 
Q 22.3125 -1.421875 17.546875 -0.640625 
Q 12.796875 0.140625 7.71875 1.703125 
L 7.71875 11.625 
Q 12.109375 9.234375 16.796875 8.0625 
Q 21.484375 6.890625 26.703125 6.890625 
Q 35.15625 6.890625 40.078125 11.328125 
Q 45.015625 15.765625 45.015625 23.390625 
Q 45.015625 31 40.078125 35.4375 
Q 35.15625 39.890625 26.703125 39.890625 
Q 22.75 39.890625 18.8125 39.015625 
Q 14.890625 38.140625 10.796875 36.28125 
z
" id="DejaVuSans-53"/>
     </defs>
     <use xlink:href="#DejaVuSans-97"/>
     <use x="61.279297" xlink:href="#DejaVuSans-108"/>
     <use x="89.0625" xlink:href="#DejaVuSans-78"/>
     <use x="163.867188" xlink:href="#DejaVuSans-53"/>
    </g>
   </g>
   <g id="text_16">
    <!-- l1p-cmaes -->
    <g transform="translate(375.22944 40.397235)scale(0.17 -0.17)">
     <use xlink:href="#DejaVuSans-108"/>
     <use x="27.783203" xlink:href="#DejaVuSans-49"/>
     <use x="91.40625" xlink:href="#DejaVuSans-112"/>
     <use x="154.882812" xlink:href="#DejaVuSans-45"/>
     <use x="190.966797" xlink:href="#DejaVuSans-99"/>
     <use x="245.947266" xlink:href="#DejaVuSans-109"/>
     <use x="343.359375" xlink:href="#DejaVuSans-97"/>
     <use x="404.638672" xlink:href="#DejaVuSans-101"/>
     <use x="466.162109" xlink:href="#DejaVuSans-115"/>
    </g>
   </g>
   <g id="text_17">
    <!-- bbob-constrained f32, 2-D -->
    <g transform="translate(60.41088 38.111366)scale(0.102 -0.102)">
     <defs>
      <path d="M 40.578125 39.3125 
Q 47.65625 37.796875 51.625 33 
Q 55.609375 28.21875 55.609375 21.1875 
Q 55.609375 10.40625 48.1875 4.484375 
Q 40.765625 -1.421875 27.09375 -1.421875 
Q 22.515625 -1.421875 17.65625 -0.515625 
Q 12.796875 0.390625 7.625 2.203125 
L 7.625 11.71875 
Q 11.71875 9.328125 16.59375 8.109375 
Q 21.484375 6.890625 26.8125 6.890625 
Q 36.078125 6.890625 40.9375 10.546875 
Q 45.796875 14.203125 45.796875 21.1875 
Q 45.796875 27.640625 41.28125 31.265625 
Q 36.765625 34.90625 28.71875 34.90625 
L 20.21875 34.90625 
L 20.21875 43.015625 
L 29.109375 43.015625 
Q 36.375 43.015625 40.234375 45.921875 
Q 44.09375 48.828125 44.09375 54.296875 
Q 44.09375 59.90625 40.109375 62.90625 
Q 36.140625 65.921875 28.71875 65.921875 
Q 24.65625 65.921875 20.015625 65.03125 
Q 15.375 64.15625 9.8125 62.3125 
L 9.8125 71.09375 
Q 15.4375 72.65625 20.34375 73.4375 
Q 25.25 74.21875 29.59375 74.21875 
Q 40.828125 74.21875 47.359375 69.109375 
Q 53.90625 64.015625 53.90625 55.328125 
Q 53.90625 49.265625 50.4375 45.09375 
Q 46.96875 40.921875 40.578125 39.3125 
z
" id="DejaVuSans-51"/>
      <path d="M 19.671875 64.796875 
L 19.671875 8.109375 
L 31.59375 8.109375 
Q 46.6875 8.109375 53.6875 14.9375 
Q 60.6875 21.78125 60.6875 36.53125 
Q 60.6875 51.171875 53.6875 57.984375 
Q 46.6875 64.796875 31.59375 64.796875 
z
M 9.8125 72.90625 
L 30.078125 72.90625 
Q 51.265625 72.90625 61.171875 64.09375 
Q 71.09375 55.28125 71.09375 36.53125 
Q 71.09375 17.671875 61.125 8.828125 
Q 51.171875 0 30.078125 0 
L 9.8125 0 
z
" id="DejaVuSans-68"/>
     </defs>
     <use xlink:href="#DejaVuSans-98"/>
     <use x="63.476562" xlink:href="#DejaVuSans-98"/>
     <use x="126.953125" xlink:href="#DejaVuSans-111"/>
     <use x="188.134766" xlink:href="#DejaVuSans-98"/>
     <use x="251.611328" xlink:href="#DejaVuSans-45"/>
     <use x="287.695312" xlink:href="#DejaVuSans-99"/>
     <use x="342.675781" xlink:href="#DejaVuSans-111"/>
     <use x="403.857422" xlink:href="#DejaVuSans-110"/>
     <use x="467.236328" xlink:href="#DejaVuSans-115"/>
     <use x="519.335938" xlink:href="#DejaVuSans-116"/>
     <use x="558.544922" xlink:href="#DejaVuSans-114"/>
     <use x="599.658203" xlink:href="#DejaVuSans-97"/>
     <use x="660.9375" xlink:href="#DejaVuSans-105"/>
     <use x="688.720703" xlink:href="#DejaVuSans-110"/>
     <use x="752.099609" xlink:href="#DejaVuSans-101"/>
     <use x="813.623047" xlink:href="#DejaVuSans-100"/>
     <use x="877.099609" xlink:href="#DejaVuSans-32"/>
     <use x="908.886719" xlink:href="#DejaVuSans-102"/>
     <use x="944.091797" xlink:href="#DejaVuSans-51"/>
     <use x="1007.714844" xlink:href="#DejaVuSans-50"/>
     <use x="1071.337891" xlink:href="#DejaVuSans-44"/>
     <use x="1103.125" xlink:href="#DejaVuSans-32"/>
     <use x="1134.912109" xlink:href="#DejaVuSans-50"/>
     <use x="1198.535156" xlink:href="#DejaVuSans-45"/>
     <use x="1234.619141" xlink:href="#DejaVuSans-68"/>
    </g>
    <!-- 41 targets: 100..1e-06 -->
    <g transform="translate(60.41088 49.533135)scale(0.102 -0.102)">
     <defs>
      <path d="M 11.71875 12.40625 
L 22.015625 12.40625 
L 22.015625 0 
L 11.71875 0 
z
M 11.71875 51.703125 
L 22.015625 51.703125 
L 22.015625 39.3125 
L 11.71875 39.3125 
z
" id="DejaVuSans-58"/>
     </defs>
     <use xlink:href="#DejaVuSans-52"/>
     <use x="63.623047" xlink:href="#DejaVuSans-49"/>
     <use x="127.246094" xlink:href="#DejaVuSans-32"/>
     <use x="159.033203" xlink:href="#DejaVuSans-116"/>
     <use x="198.242188" xlink:href="#DejaVuSans-97"/>
     <use x="259.521484" xlink:href="#DejaVuSans-114"/>
     <use x="298.884766" xlink:href="#DejaVuSans-103"/>
     <use x="362.361328" xlink:href="#DejaVuSans-101"/>
     <use x="423.884766" xlink:href="#DejaVuSans-116"/>
     <use x="463.09375" xlink:href="#DejaVuSans-115"/>
     <use x="515.193359" xlink:href="#DejaVuSans-58"/>
     <use x="548.884766" xlink:href="#DejaVuSans-32"/>
     <use x="580.671875" xlink:href="#DejaVuSans-49"/>
     <use x="644.294922" xlink:href="#DejaVuSans-48"/>
     <use x="707.917969" xlink:href="#DejaVuSans-48"/>
     <use x="771.541016" xlink:href="#DejaVuSans-46"/>
     <use x="803.328125" xlink:href="#DejaVuSans-46"/>
     <use x="835.115234" xlink:href="#DejaVuSans-49"/>
     <use x="898.738281" xlink:href="#DejaVuSans-101"/>
     <use x="960.261719" xlink:href="#DejaVuSans-45"/>
     <use x="996.345703" xlink:href="#DejaVuSans-48"/>
     <use x="1059.96875" xlink:href="#DejaVuSans-54"/>
    </g>
    <!-- 30, 15 instances -->
    <g transform="translate(60.41088 60.954904)scale(0.102 -0.102)">
     <use xlink:href="#DejaVuSans-51"/>
     <use x="63.623047" xlink:href="#DejaVuSans-48"/>
     <use x="127.246094" xlink:href="#DejaVuSans-44"/>
     <use x="159.033203" xlink:href="#DejaVuSans-32"/>
     <use x="190.820312" xlink:href="#DejaVuSans-49"/>
     <use x="254.443359" xlink:href="#DejaVuSans-53"/>
     <use x="318.066406" xlink:href="#DejaVuSans-32"/>
     <use x="349.853516" xlink:href="#DejaVuSans-105"/>
     <use x="377.636719" xlink:href="#DejaVuSans-110"/>
     <use x="441.015625" xlink:href="#DejaVuSans-115"/>
     <use x="493.115234" xlink:href="#DejaVuSans-116"/>
     <use x="532.324219" xlink:href="#DejaVuSans-97"/>
     <use x="593.603516" xlink:href="#DejaVuSans-110"/>
     <use x="656.982422" xlink:href="#DejaVuSans-99"/>
     <use x="711.962891" xlink:href="#DejaVuSans-101"/>
     <use x="773.486328" xlink:href="#DejaVuSans-115"/>
    </g>
   </g>
   <g id="text_18">
    <!-- v5z33 -->
    <g style="fill:#808080;" transform="translate(183.016656 294.151352)scale(0.1 -0.1)">
     <defs>
      <path d="M 5.515625 54.6875 
L 48.1875 54.6875 
L 48.1875 46.484375 
L 14.40625 7.171875 
L 48.1875 7.171875 
L 48.1875 0 
L 4.296875 0 
L 4.296875 8.203125 
L 38.09375 47.515625 
L 5.515625 47.515625 
z
" id="DejaVuSans-122"/>
     </defs>
     <use xlink:href="#DejaVuSans-118"/>
     <use x="59.179688" xlink:href="#DejaVuSans-53"/>
     <use x="122.802734" xlink:href="#DejaVuSans-122"/>
     <use x="175.292969" xlink:href="#DejaVuSans-51"/>
     <use x="238.916016" xlink:href="#DejaVuSans-51"/>
    </g>
   </g>
   <g id="text_19">
    <!-- 32 Bent Cigar, 2 constraints -->
    <g transform="translate(57.976812 21.648)scale(0.2 -0.2)">
     <defs>
      <path d="M 19.671875 34.8125 
L 19.671875 8.109375 
L 35.5 8.109375 
Q 43.453125 8.109375 47.28125 11.40625 
Q 51.125 14.703125 51.125 21.484375 
Q 51.125 28.328125 47.28125 31.5625 
Q 43.453125 34.8125 35.5 34.8125 
z
M 19.671875 64.796875 
L 19.671875 42.828125 
L 34.28125 42.828125 
Q 41.5 42.828125 45.03125 45.53125 
Q 48.578125 48.25 48.578125 53.8125 
Q 48.578125 59.328125 45.03125 62.0625 
Q 41.5 64.796875 34.28125 64.796875 
z
M 9.8125 72.90625 
L 35.015625 72.90625 
Q 46.296875 72.90625 52.390625 68.21875 
Q 58.5 63.53125 58.5 54.890625 
Q 58.5 48.1875 55.375 44.234375 
Q 52.25 40.28125 46.1875 39.3125 
Q 53.46875 37.75 57.5 32.78125 
Q 61.53125 27.828125 61.53125 20.40625 
Q 61.53125 10.640625 54.890625 5.3125 
Q 48.25 0 35.984375 0 
L 9.8125 0 
z
" id="DejaVuSans-66"/>
      <path d="M 64.40625 67.28125 
L 64.40625 56.890625 
Q 59.421875 61.53125 53.78125 63.8125 
Q 48.140625 66.109375 41.796875 66.109375 
Q 29.296875 66.109375 22.65625 58.46875 
Q 16.015625 50.828125 16.015625 36.375 
Q 16.015625 21.96875 22.65625 14.328125 
Q 29.296875 6.6875 41.796875 6.6875 
Q 48.140625 6.6875 53.78125 8.984375 
Q 59.421875 11.28125 64.40625 15.921875 
L 64.40625 5.609375 
Q 59.234375 2.09375 53.4375 0.328125 
Q 47.65625 -1.421875 41.21875 -1.421875 
Q 24.65625 -1.421875 15.125 8.703125 
Q 5.609375 18.84375 5.609375 36.375 
Q 5.609375 53.953125 15.125 64.078125 
Q 24.65625 74.21875 41.21875 74.21875 
Q 47.75 74.21875 53.53125 72.484375 
Q 59.328125 70.75 64.40625 67.28125 
z
" id="DejaVuSans-67"/>
     </defs>
     <use xlink:href="#DejaVuSans-51"/>
     <use x="63.623047" xlink:href="#DejaVuSans-50"/>
     <use x="127.246094" xlink:href="#DejaVuSans-32"/>
     <use x="159.033203" xlink:href="#DejaVuSans-66"/>
     <use x="227.636719" xlink:href="#DejaVuSans-101"/>
     <use x="289.160156" xlink:href="#DejaVuSans-110"/>
     <use x="352.539062" xlink:href="#DejaVuSans-116"/>
     <use x="391.748047" xlink:href="#DejaVuSans-32"/>
     <use x="423.535156" xlink:href="#DejaVuSans-67"/>
     <use x="493.359375" xlink:href="#DejaVuSans-105"/>
     <use x="521.142578" xlink:href="#DejaVuSans-103"/>
     <use x="584.619141" xlink:href="#DejaVuSans-97"/>
     <use x="645.898438" xlink:href="#DejaVuSans-114"/>
     <use x="687.011719" xlink:href="#DejaVuSans-44"/>
     <use x="718.798828" xlink:href="#DejaVuSans-32"/>
     <use x="750.585938" xlink:href="#DejaVuSans-50"/>
     <use x="814.208984" xlink:href="#DejaVuSans-32"/>
     <use x="845.996094" xlink:href="#DejaVuSans-99"/>
     <use x="900.976562" xlink:href="#DejaVuSans-111"/>
     <use x="962.158203" xlink:href="#DejaVuSans-110"/>
     <use x="1025.537109" xlink:href="#DejaVuSans-115"/>
     <use x="1077.636719" xlink:href="#DejaVuSans-116"/>
     <use x="1116.845703" xlink:href="#DejaVuSans-114"/>
     <use x="1157.958984" xlink:href="#DejaVuSans-97"/>
     <use x="1219.238281" xlink:href="#DejaVuSans-105"/>
     <use x="1247.021484" xlink:href="#DejaVuSans-110"/>
     <use x="1310.400391" xlink:href="#DejaVuSans-116"/>
     <use x="1349.609375" xlink:href="#DejaVuSans-115"/>
    </g>
   </g>
  </g>
 </g>
 <defs>
  <clipPath id="p7773b49952">
   <rect height="271.296" width="281.088" x="57.6" y="27.648"/>
  </clipPath>
 </defs>
</svg>
