<?xml version="1.0" encoding="utf-8" standalone="no"?>
<!DOCTYPE svg PUBLIC "-//W3C//DTD SVG 1.1//EN"
  "http://www.w3.org/Graphics/SVG/1.1/DTD/svg11.dtd">
<!-- Created with matplotlib (https://matplotlib.org/) -->
<svg height="345.6pt" version="1.1" viewBox="0 0 460.8 345.6" width="460.8pt" xmlns="http://www.w3.org/2000/svg" xmlns:xlink="http://www.w3.org/1999/xlink">
 <metadata>
  <rdf:RDF xmlns:cc="http://creativecommons.org/ns#" xmlns:dc="http://purl.org/dc/elements/1.1/" xmlns:rdf="http://www.w3.org/1999/02/22-rdf-syntax-ns#">
   <cc:Work>
    <dc:type rdf:resource="http://purl.org/dc/dcmitype/StillImage"/>
    <dc:date>2021-04-09T10:16:19.883052</dc:date>
    <dc:format>image/svg+xml</dc:format>
    <dc:creator>
     <cc:Agent>
      <dc:title>Matplotlib v3.3.3, https://matplotlib.org/</dc:title>
     </cc:Agent>
    </dc:creator>
   </cc:Work>
  </rdf:RDF>
 </metadata>
 <defs>
  <style type="text/css">*{stroke-linecap:butt;stroke-linejoin:round;}</style>
 </defs>
 <g id="figure_1">
  <g id="patch_1">
   <path d="M 0 345.6 
L 460.8 345.6 
L 460.8 0 
L 0 0 
z
" style="fill:#ffffff;"/>
  </g>
  <g id="axes_1">
   <g id="patch_2">
    <path d="M 57.6 298.944 
L 338.688 298.944 
L 338.688 27.648 
L 57.6 27.648 
z
" style="fill:#ffffff;"/>
   </g>
   <g id="matplotlib.axis_1">
    <g id="xtick_1">
     <g id="line2d_1">
      <path clip-path="url(#p56c2b66f0b)" d="M 57.6 298.944 
L 57.6 27.648 
" style="fill:none;stroke:#b0b0b0;stroke-linecap:square;stroke-width:0.8;"/>
     </g>
     <g id="line2d_2">
      <defs>
       <path d="M 0 0 
L 0 3.5 
" id="m84f0e768f5" style="stroke:#000000;stroke-width:0.8;"/>
      </defs>
      <g>
       <use style="stroke:#000000;stroke-width:0.8;" x="57.6" xlink:href="#m84f0e768f5" y="298.944"/>
      </g>
     </g>
     <g id="text_1">
      <!-- 0 -->
      <g transform="translate(51.2375 321.140875)scale(0.2 -0.2)">
       <defs>
        <path d="M 31.78125 66.40625 
Q 24.171875 66.40625 20.328125 58.90625 
Q 16.5 51.421875 16.5 36.375 
Q 16.5 21.390625 20.328125 13.890625 
Q 24.171875 6.390625 31.78125 6.390625 
Q 39.453125 6.390625 43.28125 13.890625 
Q 47.125 21.390625 47.125 36.375 
Q 47.125 51.421875 43.28125 58.90625 
Q 39.453125 66.40625 31.78125 66.40625 
z
M 31.78125 74.21875 
Q 44.046875 74.21875 50.515625 64.515625 
Q 56.984375 54.828125 56.984375 36.375 
Q 56.984375 17.96875 50.515625 8.265625 
Q 44.046875 -1.421875 31.78125 -1.421875 
Q 19.53125 -1.421875 13.0625 8.265625 
Q 6.59375 17.96875 6.59375 36.375 
Q 6.59375 54.828125 13.0625 64.515625 
Q 19.53125 74.21875 31.78125 74.21875 
z
" id="DejaVuSans-48"/>
       </defs>
       <use xlink:href="#DejaVuSans-48"/>
      </g>
     </g>
    </g>
    <g id="xtick_2">
     <g id="line2d_3">
      <path clip-path="url(#p56c2b66f0b)" d="M 137.910857 298.944 
L 137.910857 27.648 
" style="fill:none;stroke:#b0b0b0;stroke-linecap:square;stroke-width:0.8;"/>
     </g>
     <g id="line2d_4">
      <g>
       <use style="stroke:#000000;stroke-width:0.8;" x="137.910857" xlink:href="#m84f0e768f5" y="298.944"/>
      </g>
     </g>
     <g id="text_2">
      <!-- 2 -->
      <g transform="translate(131.548357 321.140875)scale(0.2 -0.2)">
       <defs>
        <path d="M 19.1875 8.296875 
L 53.609375 8.296875 
L 53.609375 0 
L 7.328125 0 
L 7.328125 8.296875 
Q 12.9375 14.109375 22.625 23.890625 
Q 32.328125 33.6875 34.8125 36.53125 
Q 39.546875 41.84375 41.421875 45.53125 
Q 43.3125 49.21875 43.3125 52.78125 
Q 43.3125 58.59375 39.234375 62.25 
Q 35.15625 65.921875 28.609375 65.921875 
Q 23.96875 65.921875 18.8125 64.3125 
Q 13.671875 62.703125 7.8125 59.421875 
L 7.8125 69.390625 
Q 13.765625 71.78125 18.9375 73 
Q 24.125 74.21875 28.421875 74.21875 
Q 39.75 74.21875 46.484375 68.546875 
Q 53.21875 62.890625 53.21875 53.421875 
Q 53.21875 48.921875 51.53125 44.890625 
Q 49.859375 40.875 45.40625 35.40625 
Q 44.1875 33.984375 37.640625 27.21875 
Q 31.109375 20.453125 19.1875 8.296875 
z
" id="DejaVuSans-50"/>
       </defs>
       <use xlink:href="#DejaVuSans-50"/>
      </g>
     </g>
    </g>
    <g id="xtick_3">
     <g id="line2d_5">
      <path clip-path="url(#p56c2b66f0b)" d="M 218.221714 298.944 
L 218.221714 27.648 
" style="fill:none;stroke:#b0b0b0;stroke-linecap:square;stroke-width:0.8;"/>
     </g>
     <g id="line2d_6">
      <g>
       <use style="stroke:#000000;stroke-width:0.8;" x="218.221714" xlink:href="#m84f0e768f5" y="298.944"/>
      </g>
     </g>
     <g id="text_3">
      <!-- 4 -->
      <g transform="translate(211.859214 321.140875)scale(0.2 -0.2)">
       <defs>
        <path d="M 37.796875 64.3125 
L 12.890625 25.390625 
L 37.796875 25.390625 
z
M 35.203125 72.90625 
L 47.609375 72.90625 
L 47.609375 25.390625 
L 58.015625 25.390625 
L 58.015625 17.1875 
L 47.609375 17.1875 
L 47.609375 0 
L 37.796875 0 
L 37.796875 17.1875 
L 4.890625 17.1875 
L 4.890625 26.703125 
z
" id="DejaVuSans-52"/>
       </defs>
       <use xlink:href="#DejaVuSans-52"/>
      </g>
     </g>
    </g>
    <g id="xtick_4">
     <g id="line2d_7">
      <path clip-path="url(#p56c2b66f0b)" d="M 298.532571 298.944 
L 298.532571 27.648 
" style="fill:none;stroke:#b0b0b0;stroke-linecap:square;stroke-width:0.8;"/>
     </g>
     <g id="line2d_8">
      <g>
       <use style="stroke:#000000;stroke-width:0.8;" x="298.532571" xlink:href="#m84f0e768f5" y="298.944"/>
      </g>
     </g>
     <g id="text_4">
      <!-- 6 -->
      <g transform="translate(292.170071 321.140875)scale(0.2 -0.2)">
       <defs>
        <path d="M 33.015625 40.375 
Q 26.375 40.375 22.484375 35.828125 
Q 18.609375 31.296875 18.609375 23.390625 
Q 18.609375 15.53125 22.484375 10.953125 
Q 26.375 6.390625 33.015625 6.390625 
Q 39.65625 6.390625 43.53125 10.953125 
Q 47.40625 15.53125 47.40625 23.390625 
Q 47.40625 31.296875 43.53125 35.828125 
Q 39.65625 40.375 33.015625 40.375 
z
M 52.59375 71.296875 
L 52.59375 62.3125 
Q 48.875 64.0625 45.09375 64.984375 
Q 41.3125 65.921875 37.59375 65.921875 
Q 27.828125 65.921875 22.671875 59.328125 
Q 17.53125 52.734375 16.796875 39.40625 
Q 19.671875 43.65625 24.015625 45.921875 
Q 28.375 48.1875 33.59375 48.1875 
Q 44.578125 48.1875 50.953125 41.515625 
Q 57.328125 34.859375 57.328125 23.390625 
Q 57.328125 12.15625 50.6875 5.359375 
Q 44.046875 -1.421875 33.015625 -1.421875 
Q 20.359375 -1.421875 13.671875 8.265625 
Q 6.984375 17.96875 6.984375 36.375 
Q 6.984375 53.65625 15.1875 63.9375 
Q 23.390625 74.21875 37.203125 74.21875 
Q 40.921875 74.21875 44.703125 73.484375 
Q 48.484375 72.75 52.59375 71.296875 
z
" id="DejaVuSans-54"/>
       </defs>
       <use xlink:href="#DejaVuSans-54"/>
      </g>
     </g>
    </g>
    <g id="xtick_5">
     <g id="line2d_9">
      <path clip-path="url(#p56c2b66f0b)" d="M 97.755429 298.944 
L 97.755429 27.648 
" style="fill:none;stroke:#b0b0b0;stroke-linecap:square;stroke-width:0.8;"/>
     </g>
     <g id="line2d_10">
      <defs>
       <path d="M 0 0 
L 0 2 
" id="maad083e7d9" style="stroke:#000000;stroke-width:0.6;"/>
      </defs>
      <g>
       <use style="stroke:#000000;stroke-width:0.6;" x="97.755429" xlink:href="#maad083e7d9" y="298.944"/>
      </g>
     </g>
    </g>
    <g id="xtick_6">
     <g id="line2d_11">
      <path clip-path="url(#p56c2b66f0b)" d="M 178.066286 298.944 
L 178.066286 27.648 
" style="fill:none;stroke:#b0b0b0;stroke-linecap:square;stroke-width:0.8;"/>
     </g>
     <g id="line2d_12">
      <g>
       <use style="stroke:#000000;stroke-width:0.6;" x="178.066286" xlink:href="#maad083e7d9" y="298.944"/>
      </g>
     </g>
    </g>
    <g id="xtick_7">
     <g id="line2d_13">
      <path clip-path="url(#p56c2b66f0b)" d="M 258.377143 298.944 
L 258.377143 27.648 
" style="fill:none;stroke:#b0b0b0;stroke-linecap:square;stroke-width:0.8;"/>
     </g>
     <g id="line2d_14">
      <g>
       <use style="stroke:#000000;stroke-width:0.6;" x="258.377143" xlink:href="#maad083e7d9" y="298.944"/>
      </g>
     </g>
    </g>
    <g id="xtick_8">
     <g id="line2d_15">
      <path clip-path="url(#p56c2b66f0b)" d="M 338.688 298.944 
L 338.688 27.648 
" style="fill:none;stroke:#b0b0b0;stroke-linecap:square;stroke-width:0.8;"/>
     </g>
     <g id="line2d_16">
      <g>
       <use style="stroke:#000000;stroke-width:0.6;" x="338.688" xlink:href="#maad083e7d9" y="298.944"/>
      </g>
     </g>
    </g>
    <g id="text_5">
     <!-- log10(# (f+g)-evals / dimension) -->
     <g transform="translate(58.145016 342.217594)scale(0.17 -0.17)">
      <defs>
       <path d="M 9.421875 75.984375 
L 18.40625 75.984375 
L 18.40625 0 
L 9.421875 0 
z
" id="DejaVuSans-108"/>
       <path d="M 30.609375 48.390625 
Q 23.390625 48.390625 19.1875 42.75 
Q 14.984375 37.109375 14.984375 27.296875 
Q 14.984375 17.484375 19.15625 11.84375 
Q 23.34375 6.203125 30.609375 6.203125 
Q 37.796875 6.203125 41.984375 11.859375 
Q 46.1875 17.53125 46.1875 27.296875 
Q 46.1875 37.015625 41.984375 42.703125 
Q 37.796875 48.390625 30.609375 48.390625 
z
M 30.609375 56 
Q 42.328125 56 49.015625 48.375 
Q 55.71875 40.765625 55.71875 27.296875 
Q 55.71875 13.875 49.015625 6.21875 
Q 42.328125 -1.421875 30.609375 -1.421875 
Q 18.84375 -1.421875 12.171875 6.21875 
Q 5.515625 13.875 5.515625 27.296875 
Q 5.515625 40.765625 12.171875 48.375 
Q 18.84375 56 30.609375 56 
z
" id="DejaVuSans-111"/>
       <path d="M 45.40625 27.984375 
Q 45.40625 37.75 41.375 43.109375 
Q 37.359375 48.484375 30.078125 48.484375 
Q 22.859375 48.484375 18.828125 43.109375 
Q 14.796875 37.75 14.796875 27.984375 
Q 14.796875 18.265625 18.828125 12.890625 
Q 22.859375 7.515625 30.078125 7.515625 
Q 37.359375 7.515625 41.375 12.890625 
Q 45.40625 18.265625 45.40625 27.984375 
z
M 54.390625 6.78125 
Q 54.390625 -7.171875 48.1875 -13.984375 
Q 42 -20.796875 29.203125 -20.796875 
Q 24.46875 -20.796875 20.265625 -20.09375 
Q 16.0625 -19.390625 12.109375 -17.921875 
L 12.109375 -9.1875 
Q 16.0625 -11.328125 19.921875 -12.34375 
Q 23.78125 -13.375 27.78125 -13.375 
Q 36.625 -13.375 41.015625 -8.765625 
Q 45.40625 -4.15625 45.40625 5.171875 
L 45.40625 9.625 
Q 42.625 4.78125 38.28125 2.390625 
Q 33.9375 0 27.875 0 
Q 17.828125 0 11.671875 7.65625 
Q 5.515625 15.328125 5.515625 27.984375 
Q 5.515625 40.671875 11.671875 48.328125 
Q 17.828125 56 27.875 56 
Q 33.9375 56 38.28125 53.609375 
Q 42.625 51.21875 45.40625 46.390625 
L 45.40625 54.6875 
L 54.390625 54.6875 
z
" id="DejaVuSans-103"/>
       <path d="M 12.40625 8.296875 
L 28.515625 8.296875 
L 28.515625 63.921875 
L 10.984375 60.40625 
L 10.984375 69.390625 
L 28.421875 72.90625 
L 38.28125 72.90625 
L 38.28125 8.296875 
L 54.390625 8.296875 
L 54.390625 0 
L 12.40625 0 
z
" id="DejaVuSans-49"/>
       <path d="M 31 75.875 
Q 24.46875 64.65625 21.28125 53.65625 
Q 18.109375 42.671875 18.109375 31.390625 
Q 18.109375 20.125 21.3125 9.0625 
Q 24.515625 -2 31 -13.1875 
L 23.1875 -13.1875 
Q 15.875 -1.703125 12.234375 9.375 
Q 8.59375 20.453125 8.59375 31.390625 
Q 8.59375 42.28125 12.203125 53.3125 
Q 15.828125 64.359375 23.1875 75.875 
z
" id="DejaVuSans-40"/>
       <path d="M 51.125 44 
L 36.921875 44 
L 32.8125 27.6875 
L 47.125 27.6875 
z
M 43.796875 71.78125 
L 38.71875 51.515625 
L 52.984375 51.515625 
L 58.109375 71.78125 
L 65.921875 71.78125 
L 60.890625 51.515625 
L 76.125 51.515625 
L 76.125 44 
L 58.984375 44 
L 54.984375 27.6875 
L 70.515625 27.6875 
L 70.515625 20.21875 
L 53.078125 20.21875 
L 48 0 
L 40.1875 0 
L 45.21875 20.21875 
L 30.90625 20.21875 
L 25.875 0 
L 18.015625 0 
L 23.09375 20.21875 
L 7.71875 20.21875 
L 7.71875 27.6875 
L 24.90625 27.6875 
L 29 44 
L 13.28125 44 
L 13.28125 51.515625 
L 30.90625 51.515625 
L 35.890625 71.78125 
z
" id="DejaVuSans-35"/>
       <path id="DejaVuSans-32"/>
       <path d="M 37.109375 75.984375 
L 37.109375 68.5 
L 28.515625 68.5 
Q 23.6875 68.5 21.796875 66.546875 
Q 19.921875 64.59375 19.921875 59.515625 
L 19.921875 54.6875 
L 34.71875 54.6875 
L 34.71875 47.703125 
L 19.921875 47.703125 
L 19.921875 0 
L 10.890625 0 
L 10.890625 47.703125 
L 2.296875 47.703125 
L 2.296875 54.6875 
L 10.890625 54.6875 
L 10.890625 58.5 
Q 10.890625 67.625 15.140625 71.796875 
Q 19.390625 75.984375 28.609375 75.984375 
z
" id="DejaVuSans-102"/>
       <path d="M 46 62.703125 
L 46 35.5 
L 73.1875 35.5 
L 73.1875 27.203125 
L 46 27.203125 
L 46 0 
L 37.796875 0 
L 37.796875 27.203125 
L 10.59375 27.203125 
L 10.59375 35.5 
L 37.796875 35.5 
L 37.796875 62.703125 
z
" id="DejaVuSans-43"/>
       <path d="M 8.015625 75.875 
L 15.828125 75.875 
Q 23.140625 64.359375 26.78125 53.3125 
Q 30.421875 42.28125 30.421875 31.390625 
Q 30.421875 20.453125 26.78125 9.375 
Q 23.140625 -1.703125 15.828125 -13.1875 
L 8.015625 -13.1875 
Q 14.5 -2 17.703125 9.0625 
Q 20.90625 20.125 20.90625 31.390625 
Q 20.90625 42.671875 17.703125 53.65625 
Q 14.5 64.65625 8.015625 75.875 
z
" id="DejaVuSans-41"/>
       <path d="M 4.890625 31.390625 
L 31.203125 31.390625 
L 31.203125 23.390625 
L 4.890625 23.390625 
z
" id="DejaVuSans-45"/>
       <path d="M 56.203125 29.59375 
L 56.203125 25.203125 
L 14.890625 25.203125 
Q 15.484375 15.921875 20.484375 11.0625 
Q 25.484375 6.203125 34.421875 6.203125 
Q 39.59375 6.203125 44.453125 7.46875 
Q 49.3125 8.734375 54.109375 11.28125 
L 54.109375 2.78125 
Q 49.265625 0.734375 44.1875 -0.34375 
Q 39.109375 -1.421875 33.890625 -1.421875 
Q 20.796875 -1.421875 13.15625 6.1875 
Q 5.515625 13.8125 5.515625 26.8125 
Q 5.515625 40.234375 12.765625 48.109375 
Q 20.015625 56 32.328125 56 
Q 43.359375 56 49.78125 48.890625 
Q 56.203125 41.796875 56.203125 29.59375 
z
M 47.21875 32.234375 
Q 47.125 39.59375 43.09375 43.984375 
Q 39.0625 48.390625 32.421875 48.390625 
Q 24.90625 48.390625 20.390625 44.140625 
Q 15.875 39.890625 15.1875 32.171875 
z
" id="DejaVuSans-101"/>
       <path d="M 2.984375 54.6875 
L 12.5 54.6875 
L 29.59375 8.796875 
L 46.6875 54.6875 
L 56.203125 54.6875 
L 35.6875 0 
L 23.484375 0 
z
" id="DejaVuSans-118"/>
       <path d="M 34.28125 27.484375 
Q 23.390625 27.484375 19.1875 25 
Q 14.984375 22.515625 14.984375 16.5 
Q 14.984375 11.71875 18.140625 8.90625 
Q 21.296875 6.109375 26.703125 6.109375 
Q 34.1875 6.109375 38.703125 11.40625 
Q 43.21875 16.703125 43.21875 25.484375 
L 43.21875 27.484375 
z
M 52.203125 31.203125 
L 52.203125 0 
L 43.21875 0 
L 43.21875 8.296875 
Q 40.140625 3.328125 35.546875 0.953125 
Q 30.953125 -1.421875 24.3125 -1.421875 
Q 15.921875 -1.421875 10.953125 3.296875 
Q 6 8.015625 6 15.921875 
Q 6 25.140625 12.171875 29.828125 
Q 18.359375 34.515625 30.609375 34.515625 
L 43.21875 34.515625 
L 43.21875 35.40625 
Q 43.21875 41.609375 39.140625 45 
Q 35.0625 48.390625 27.6875 48.390625 
Q 23 48.390625 18.546875 47.265625 
Q 14.109375 46.140625 10.015625 43.890625 
L 10.015625 52.203125 
Q 14.9375 54.109375 19.578125 55.046875 
Q 24.21875 56 28.609375 56 
Q 40.484375 56 46.34375 49.84375 
Q 52.203125 43.703125 52.203125 31.203125 
z
" id="DejaVuSans-97"/>
       <path d="M 44.28125 53.078125 
L 44.28125 44.578125 
Q 40.484375 46.53125 36.375 47.5 
Q 32.28125 48.484375 27.875 48.484375 
Q 21.1875 48.484375 17.84375 46.4375 
Q 14.5 44.390625 14.5 40.28125 
Q 14.5 37.15625 16.890625 35.375 
Q 19.28125 33.59375 26.515625 31.984375 
L 29.59375 31.296875 
Q 39.15625 29.25 43.1875 25.515625 
Q 47.21875 21.78125 47.21875 15.09375 
Q 47.21875 7.46875 41.1875 3.015625 
Q 35.15625 -1.421875 24.609375 -1.421875 
Q 20.21875 -1.421875 15.453125 -0.5625 
Q 10.6875 0.296875 5.421875 2 
L 5.421875 11.28125 
Q 10.40625 8.6875 15.234375 7.390625 
Q 20.0625 6.109375 24.8125 6.109375 
Q 31.15625 6.109375 34.5625 8.28125 
Q 37.984375 10.453125 37.984375 14.40625 
Q 37.984375 18.0625 35.515625 20.015625 
Q 33.0625 21.96875 24.703125 23.78125 
L 21.578125 24.515625 
Q 13.234375 26.265625 9.515625 29.90625 
Q 5.8125 33.546875 5.8125 39.890625 
Q 5.8125 47.609375 11.28125 51.796875 
Q 16.75 56 26.8125 56 
Q 31.78125 56 36.171875 55.265625 
Q 40.578125 54.546875 44.28125 53.078125 
z
" id="DejaVuSans-115"/>
       <path d="M 25.390625 72.90625 
L 33.6875 72.90625 
L 8.296875 -9.28125 
L 0 -9.28125 
z
" id="DejaVuSans-47"/>
       <path d="M 45.40625 46.390625 
L 45.40625 75.984375 
L 54.390625 75.984375 
L 54.390625 0 
L 45.40625 0 
L 45.40625 8.203125 
Q 42.578125 3.328125 38.25 0.953125 
Q 33.9375 -1.421875 27.875 -1.421875 
Q 17.96875 -1.421875 11.734375 6.484375 
Q 5.515625 14.40625 5.515625 27.296875 
Q 5.515625 40.1875 11.734375 48.09375 
Q 17.96875 56 27.875 56 
Q 33.9375 56 38.25 53.625 
Q 42.578125 51.265625 45.40625 46.390625 
z
M 14.796875 27.296875 
Q 14.796875 17.390625 18.875 11.75 
Q 22.953125 6.109375 30.078125 6.109375 
Q 37.203125 6.109375 41.296875 11.75 
Q 45.40625 17.390625 45.40625 27.296875 
Q 45.40625 37.203125 41.296875 42.84375 
Q 37.203125 48.484375 30.078125 48.484375 
Q 22.953125 48.484375 18.875 42.84375 
Q 14.796875 37.203125 14.796875 27.296875 
z
" id="DejaVuSans-100"/>
       <path d="M 9.421875 54.6875 
L 18.40625 54.6875 
L 18.40625 0 
L 9.421875 0 
z
M 9.421875 75.984375 
L 18.40625 75.984375 
L 18.40625 64.59375 
L 9.421875 64.59375 
z
" id="DejaVuSans-105"/>
       <path d="M 52 44.1875 
Q 55.375 50.25 60.0625 53.125 
Q 64.75 56 71.09375 56 
Q 79.640625 56 84.28125 50.015625 
Q 88.921875 44.046875 88.921875 33.015625 
L 88.921875 0 
L 79.890625 0 
L 79.890625 32.71875 
Q 79.890625 40.578125 77.09375 44.375 
Q 74.3125 48.1875 68.609375 48.1875 
Q 61.625 48.1875 57.5625 43.546875 
Q 53.515625 38.921875 53.515625 30.90625 
L 53.515625 0 
L 44.484375 0 
L 44.484375 32.71875 
Q 44.484375 40.625 41.703125 44.40625 
Q 38.921875 48.1875 33.109375 48.1875 
Q 26.21875 48.1875 22.15625 43.53125 
Q 18.109375 38.875 18.109375 30.90625 
L 18.109375 0 
L 9.078125 0 
L 9.078125 54.6875 
L 18.109375 54.6875 
L 18.109375 46.1875 
Q 21.1875 51.21875 25.484375 53.609375 
Q 29.78125 56 35.6875 56 
Q 41.65625 56 45.828125 52.96875 
Q 50 49.953125 52 44.1875 
z
" id="DejaVuSans-109"/>
       <path d="M 54.890625 33.015625 
L 54.890625 0 
L 45.90625 0 
L 45.90625 32.71875 
Q 45.90625 40.484375 42.875 44.328125 
Q 39.84375 48.1875 33.796875 48.1875 
Q 26.515625 48.1875 22.3125 43.546875 
Q 18.109375 38.921875 18.109375 30.90625 
L 18.109375 0 
L 9.078125 0 
L 9.078125 54.6875 
L 18.109375 54.6875 
L 18.109375 46.1875 
Q 21.34375 51.125 25.703125 53.5625 
Q 30.078125 56 35.796875 56 
Q 45.21875 56 50.046875 50.171875 
Q 54.890625 44.34375 54.890625 33.015625 
z
" id="DejaVuSans-110"/>
      </defs>
      <use xlink:href="#DejaVuSans-108"/>
      <use x="27.783203" xlink:href="#DejaVuSans-111"/>
      <use x="88.964844" xlink:href="#DejaVuSans-103"/>
      <use x="152.441406" xlink:href="#DejaVuSans-49"/>
      <use x="216.064453" xlink:href="#DejaVuSans-48"/>
      <use x="279.6875" xlink:href="#DejaVuSans-40"/>
      <use x="318.701172" xlink:href="#DejaVuSans-35"/>
      <use x="402.490234" xlink:href="#DejaVuSans-32"/>
      <use x="434.277344" xlink:href="#DejaVuSans-40"/>
      <use x="473.291016" xlink:href="#DejaVuSans-102"/>
      <use x="508.496094" xlink:href="#DejaVuSans-43"/>
      <use x="592.285156" xlink:href="#DejaVuSans-103"/>
      <use x="655.761719" xlink:href="#DejaVuSans-41"/>
      <use x="694.775391" xlink:href="#DejaVuSans-45"/>
      <use x="730.859375" xlink:href="#DejaVuSans-101"/>
      <use x="792.382812" xlink:href="#DejaVuSans-118"/>
      <use x="851.5625" xlink:href="#DejaVuSans-97"/>
      <use x="912.841797" xlink:href="#DejaVuSans-108"/>
      <use x="940.625" xlink:href="#DejaVuSans-115"/>
      <use x="992.724609" xlink:href="#DejaVuSans-32"/>
      <use x="1024.511719" xlink:href="#DejaVuSans-47"/>
      <use x="1058.203125" xlink:href="#DejaVuSans-32"/>
      <use x="1089.990234" xlink:href="#DejaVuSans-100"/>
      <use x="1153.466797" xlink:href="#DejaVuSans-105"/>
      <use x="1181.25" xlink:href="#DejaVuSans-109"/>
      <use x="1278.662109" xlink:href="#DejaVuSans-101"/>
      <use x="1340.185547" xlink:href="#DejaVuSans-110"/>
      <use x="1403.564453" xlink:href="#DejaVuSans-115"/>
      <use x="1455.664062" xlink:href="#DejaVuSans-105"/>
      <use x="1483.447266" xlink:href="#DejaVuSans-111"/>
      <use x="1544.628906" xlink:href="#DejaVuSans-110"/>
      <use x="1608.007812" xlink:href="#DejaVuSans-41"/>
     </g>
    </g>
   </g>
   <g id="matplotlib.axis_2">
    <g id="ytick_1">
     <g id="line2d_17">
      <path clip-path="url(#p56c2b66f0b)" d="M 57.6 298.944 
L 338.688 298.944 
" style="fill:none;stroke:#b0b0b0;stroke-linecap:square;stroke-width:0.8;"/>
     </g>
     <g id="line2d_18">
      <defs>
       <path d="M 0 0 
L -3.5 0 
" id="m0a34035969" style="stroke:#000000;stroke-width:0.8;"/>
      </defs>
      <g>
       <use style="stroke:#000000;stroke-width:0.8;" x="57.6" xlink:href="#m0a34035969" y="298.944"/>
      </g>
     </g>
     <g id="text_6">
      <!-- 0.0 -->
      <g transform="translate(25.155 305.02275)scale(0.16 -0.16)">
       <defs>
        <path d="M 10.6875 12.40625 
L 21 12.40625 
L 21 0 
L 10.6875 0 
z
" id="DejaVuSans-46"/>
       </defs>
       <use xlink:href="#DejaVuSans-48"/>
       <use x="63.623047" xlink:href="#DejaVuSans-46"/>
       <use x="95.410156" xlink:href="#DejaVuSans-48"/>
      </g>
     </g>
    </g>
    <g id="ytick_2">
     <g id="line2d_19">
      <path clip-path="url(#p56c2b66f0b)" d="M 57.6 245.22202 
L 338.688 245.22202 
" style="fill:none;stroke:#b0b0b0;stroke-linecap:square;stroke-width:0.8;"/>
     </g>
     <g id="line2d_20">
      <g>
       <use style="stroke:#000000;stroke-width:0.8;" x="57.6" xlink:href="#m0a34035969" y="245.22202"/>
      </g>
     </g>
     <g id="text_7">
      <!-- 0.2 -->
      <g transform="translate(25.155 251.30077)scale(0.16 -0.16)">
       <use xlink:href="#DejaVuSans-48"/>
       <use x="63.623047" xlink:href="#DejaVuSans-46"/>
       <use x="95.410156" xlink:href="#DejaVuSans-50"/>
      </g>
     </g>
    </g>
    <g id="ytick_3">
     <g id="line2d_21">
      <path clip-path="url(#p56c2b66f0b)" d="M 57.6 191.50004 
L 338.688 191.50004 
" style="fill:none;stroke:#b0b0b0;stroke-linecap:square;stroke-width:0.8;"/>
     </g>
     <g id="line2d_22">
      <g>
       <use style="stroke:#000000;stroke-width:0.8;" x="57.6" xlink:href="#m0a34035969" y="191.50004"/>
      </g>
     </g>
     <g id="text_8">
      <!-- 0.4 -->
      <g transform="translate(25.155 197.57879)scale(0.16 -0.16)">
       <use xlink:href="#DejaVuSans-48"/>
       <use x="63.623047" xlink:href="#DejaVuSans-46"/>
       <use x="95.410156" xlink:href="#DejaVuSans-52"/>
      </g>
     </g>
    </g>
    <g id="ytick_4">
     <g id="line2d_23">
      <path clip-path="url(#p56c2b66f0b)" d="M 57.6 137.778059 
L 338.688 137.778059 
" style="fill:none;stroke:#b0b0b0;stroke-linecap:square;stroke-width:0.8;"/>
     </g>
     <g id="line2d_24">
      <g>
       <use style="stroke:#000000;stroke-width:0.8;" x="57.6" xlink:href="#m0a34035969" y="137.778059"/>
      </g>
     </g>
     <g id="text_9">
      <!-- 0.6 -->
      <g transform="translate(25.155 143.856809)scale(0.16 -0.16)">
       <use xlink:href="#DejaVuSans-48"/>
       <use x="63.623047" xlink:href="#DejaVuSans-46"/>
       <use x="95.410156" xlink:href="#DejaVuSans-54"/>
      </g>
     </g>
    </g>
    <g id="ytick_5">
     <g id="line2d_25">
      <path clip-path="url(#p56c2b66f0b)" d="M 57.6 84.056079 
L 338.688 84.056079 
" style="fill:none;stroke:#b0b0b0;stroke-linecap:square;stroke-width:0.8;"/>
     </g>
     <g id="line2d_26">
      <g>
       <use style="stroke:#000000;stroke-width:0.8;" x="57.6" xlink:href="#m0a34035969" y="84.056079"/>
      </g>
     </g>
     <g id="text_10">
      <!-- 0.8 -->
      <g transform="translate(25.155 90.134829)scale(0.16 -0.16)">
       <defs>
        <path d="M 31.78125 34.625 
Q 24.75 34.625 20.71875 30.859375 
Q 16.703125 27.09375 16.703125 20.515625 
Q 16.703125 13.921875 20.71875 10.15625 
Q 24.75 6.390625 31.78125 6.390625 
Q 38.8125 6.390625 42.859375 10.171875 
Q 46.921875 13.96875 46.921875 20.515625 
Q 46.921875 27.09375 42.890625 30.859375 
Q 38.875 34.625 31.78125 34.625 
z
M 21.921875 38.8125 
Q 15.578125 40.375 12.03125 44.71875 
Q 8.5 49.078125 8.5 55.328125 
Q 8.5 64.0625 14.71875 69.140625 
Q 20.953125 74.21875 31.78125 74.21875 
Q 42.671875 74.21875 48.875 69.140625 
Q 55.078125 64.0625 55.078125 55.328125 
Q 55.078125 49.078125 51.53125 44.71875 
Q 48 40.375 41.703125 38.8125 
Q 48.828125 37.15625 52.796875 32.3125 
Q 56.78125 27.484375 56.78125 20.515625 
Q 56.78125 9.90625 50.3125 4.234375 
Q 43.84375 -1.421875 31.78125 -1.421875 
Q 19.734375 -1.421875 13.25 4.234375 
Q 6.78125 9.90625 6.78125 20.515625 
Q 6.78125 27.484375 10.78125 32.3125 
Q 14.796875 37.15625 21.921875 38.8125 
z
M 18.3125 54.390625 
Q 18.3125 48.734375 21.84375 45.5625 
Q 25.390625 42.390625 31.78125 42.390625 
Q 38.140625 42.390625 41.71875 45.5625 
Q 45.3125 48.734375 45.3125 54.390625 
Q 45.3125 60.0625 41.71875 63.234375 
Q 38.140625 66.40625 31.78125 66.40625 
Q 25.390625 66.40625 21.84375 63.234375 
Q 18.3125 60.0625 18.3125 54.390625 
z
" id="DejaVuSans-56"/>
       </defs>
       <use xlink:href="#DejaVuSans-48"/>
       <use x="63.623047" xlink:href="#DejaVuSans-46"/>
       <use x="95.410156" xlink:href="#DejaVuSans-56"/>
      </g>
     </g>
    </g>
    <g id="ytick_6">
     <g id="line2d_27">
      <path clip-path="url(#p56c2b66f0b)" d="M 57.6 30.334099 
L 338.688 30.334099 
" style="fill:none;stroke:#b0b0b0;stroke-linecap:square;stroke-width:0.8;"/>
     </g>
     <g id="line2d_28">
      <g>
       <use style="stroke:#000000;stroke-width:0.8;" x="57.6" xlink:href="#m0a34035969" y="30.334099"/>
      </g>
     </g>
     <g id="text_11">
      <!-- 1.0 -->
      <g transform="translate(25.155 36.412849)scale(0.16 -0.16)">
       <use xlink:href="#DejaVuSans-49"/>
       <use x="63.623047" xlink:href="#DejaVuSans-46"/>
       <use x="95.410156" xlink:href="#DejaVuSans-48"/>
      </g>
     </g>
    </g>
    <g id="text_12">
     <!-- Fraction of function,target pairs -->
     <g transform="translate(17.619531 297.681)rotate(-90)scale(0.17 -0.17)">
      <defs>
       <path d="M 9.8125 72.90625 
L 51.703125 72.90625 
L 51.703125 64.59375 
L 19.671875 64.59375 
L 19.671875 43.109375 
L 48.578125 43.109375 
L 48.578125 34.8125 
L 19.671875 34.8125 
L 19.671875 0 
L 9.8125 0 
z
" id="DejaVuSans-70"/>
       <path d="M 41.109375 46.296875 
Q 39.59375 47.171875 37.8125 47.578125 
Q 36.03125 48 33.890625 48 
Q 26.265625 48 22.1875 43.046875 
Q 18.109375 38.09375 18.109375 28.8125 
L 18.109375 0 
L 9.078125 0 
L 9.078125 54.6875 
L 18.109375 54.6875 
L 18.109375 46.1875 
Q 20.953125 51.171875 25.484375 53.578125 
Q 30.03125 56 36.53125 56 
Q 37.453125 56 38.578125 55.875 
Q 39.703125 55.765625 41.0625 55.515625 
z
" id="DejaVuSans-114"/>
       <path d="M 48.78125 52.59375 
L 48.78125 44.1875 
Q 44.96875 46.296875 41.140625 47.34375 
Q 37.3125 48.390625 33.40625 48.390625 
Q 24.65625 48.390625 19.8125 42.84375 
Q 14.984375 37.3125 14.984375 27.296875 
Q 14.984375 17.28125 19.8125 11.734375 
Q 24.65625 6.203125 33.40625 6.203125 
Q 37.3125 6.203125 41.140625 7.25 
Q 44.96875 8.296875 48.78125 10.40625 
L 48.78125 2.09375 
Q 45.015625 0.34375 40.984375 -0.53125 
Q 36.96875 -1.421875 32.421875 -1.421875 
Q 20.0625 -1.421875 12.78125 6.34375 
Q 5.515625 14.109375 5.515625 27.296875 
Q 5.515625 40.671875 12.859375 48.328125 
Q 20.21875 56 33.015625 56 
Q 37.15625 56 41.109375 55.140625 
Q 45.0625 54.296875 48.78125 52.59375 
z
" id="DejaVuSans-99"/>
       <path d="M 18.3125 70.21875 
L 18.3125 54.6875 
L 36.8125 54.6875 
L 36.8125 47.703125 
L 18.3125 47.703125 
L 18.3125 18.015625 
Q 18.3125 11.328125 20.140625 9.421875 
Q 21.96875 7.515625 27.59375 7.515625 
L 36.8125 7.515625 
L 36.8125 0 
L 27.59375 0 
Q 17.1875 0 13.234375 3.875 
Q 9.28125 7.765625 9.28125 18.015625 
L 9.28125 47.703125 
L 2.6875 47.703125 
L 2.6875 54.6875 
L 9.28125 54.6875 
L 9.28125 70.21875 
z
" id="DejaVuSans-116"/>
       <path d="M 8.5 21.578125 
L 8.5 54.6875 
L 17.484375 54.6875 
L 17.484375 21.921875 
Q 17.484375 14.15625 20.5 10.265625 
Q 23.53125 6.390625 29.59375 6.390625 
Q 36.859375 6.390625 41.078125 11.03125 
Q 45.3125 15.671875 45.3125 23.6875 
L 45.3125 54.6875 
L 54.296875 54.6875 
L 54.296875 0 
L 45.3125 0 
L 45.3125 8.40625 
Q 42.046875 3.421875 37.71875 1 
Q 33.40625 -1.421875 27.6875 -1.421875 
Q 18.265625 -1.421875 13.375 4.4375 
Q 8.5 10.296875 8.5 21.578125 
z
M 31.109375 56 
z
" id="DejaVuSans-117"/>
       <path d="M 11.71875 12.40625 
L 22.015625 12.40625 
L 22.015625 4 
L 14.015625 -11.625 
L 7.71875 -11.625 
L 11.71875 4 
z
" id="DejaVuSans-44"/>
       <path d="M 18.109375 8.203125 
L 18.109375 -20.796875 
L 9.078125 -20.796875 
L 9.078125 54.6875 
L 18.109375 54.6875 
L 18.109375 46.390625 
Q 20.953125 51.265625 25.265625 53.625 
Q 29.59375 56 35.59375 56 
Q 45.5625 56 51.78125 48.09375 
Q 58.015625 40.1875 58.015625 27.296875 
Q 58.015625 14.40625 51.78125 6.484375 
Q 45.5625 -1.421875 35.59375 -1.421875 
Q 29.59375 -1.421875 25.265625 0.953125 
Q 20.953125 3.328125 18.109375 8.203125 
z
M 48.6875 27.296875 
Q 48.6875 37.203125 44.609375 42.84375 
Q 40.53125 48.484375 33.40625 48.484375 
Q 26.265625 48.484375 22.1875 42.84375 
Q 18.109375 37.203125 18.109375 27.296875 
Q 18.109375 17.390625 22.1875 11.75 
Q 26.265625 6.109375 33.40625 6.109375 
Q 40.53125 6.109375 44.609375 11.75 
Q 48.6875 17.390625 48.6875 27.296875 
z
" id="DejaVuSans-112"/>
      </defs>
      <use xlink:href="#DejaVuSans-70"/>
      <use x="50.269531" xlink:href="#DejaVuSans-114"/>
      <use x="91.382812" xlink:href="#DejaVuSans-97"/>
      <use x="152.662109" xlink:href="#DejaVuSans-99"/>
      <use x="207.642578" xlink:href="#DejaVuSans-116"/>
      <use x="246.851562" xlink:href="#DejaVuSans-105"/>
      <use x="274.634766" xlink:href="#DejaVuSans-111"/>
      <use x="335.816406" xlink:href="#DejaVuSans-110"/>
      <use x="399.195312" xlink:href="#DejaVuSans-32"/>
      <use x="430.982422" xlink:href="#DejaVuSans-111"/>
      <use x="492.164062" xlink:href="#DejaVuSans-102"/>
      <use x="527.369141" xlink:href="#DejaVuSans-32"/>
      <use x="559.15625" xlink:href="#DejaVuSans-102"/>
      <use x="594.361328" xlink:href="#DejaVuSans-117"/>
      <use x="657.740234" xlink:href="#DejaVuSans-110"/>
      <use x="721.119141" xlink:href="#DejaVuSans-99"/>
      <use x="776.099609" xlink:href="#DejaVuSans-116"/>
      <use x="815.308594" xlink:href="#DejaVuSans-105"/>
      <use x="843.091797" xlink:href="#DejaVuSans-111"/>
      <use x="904.273438" xlink:href="#DejaVuSans-110"/>
      <use x="967.652344" xlink:href="#DejaVuSans-44"/>
      <use x="999.439453" xlink:href="#DejaVuSans-116"/>
      <use x="1038.648438" xlink:href="#DejaVuSans-97"/>
      <use x="1099.927734" xlink:href="#DejaVuSans-114"/>
      <use x="1139.291016" xlink:href="#DejaVuSans-103"/>
      <use x="1202.767578" xlink:href="#DejaVuSans-101"/>
      <use x="1264.291016" xlink:href="#DejaVuSans-116"/>
      <use x="1303.5" xlink:href="#DejaVuSans-32"/>
      <use x="1335.287109" xlink:href="#DejaVuSans-112"/>
      <use x="1398.763672" xlink:href="#DejaVuSans-97"/>
      <use x="1460.042969" xlink:href="#DejaVuSans-105"/>
      <use x="1487.826172" xlink:href="#DejaVuSans-114"/>
      <use x="1528.939453" xlink:href="#DejaVuSans-115"/>
     </g>
    </g>
   </g>
   <g id="line2d_29">
    <defs>
     <path d="M 0 1.5 
C 0.397805 1.5 0.77937 1.341951 1.06066 1.06066 
C 1.341951 0.77937 1.5 0.397805 1.5 0 
C 1.5 -0.397805 1.341951 -0.77937 1.06066 -1.06066 
C 0.77937 -1.341951 0.397805 -1.5 0 -1.5 
C -0.397805 -1.5 -0.77937 -1.341951 -1.06066 -1.06066 
C -1.341951 -0.77937 -1.5 -0.397805 -1.5 0 
C -1.5 0.397805 -1.341951 0.77937 -1.06066 1.06066 
C -0.77937 1.341951 -0.397805 1.5 0 1.5 
z
" id="m26438acf92" style="stroke:#000080;"/>
    </defs>
    <g>
     <use style="fill:#000080;stroke:#000080;" x="196.811174" xlink:href="#m26438acf92" y="30.334099"/>
     <use style="fill:#000080;stroke:#000080;" x="196.811174" xlink:href="#m26438acf92" y="30.334099"/>
    </g>
   </g>
   <g id="line2d_30">
    <path d="M 67.850577 298.944 
L 67.850577 297.633708 
L 75.555822 297.633708 
L 75.555822 296.978562 
L 90.509138 296.978562 
L 90.509138 296.323416 
L 91.535274 296.323416 
L 91.535274 293.702831 
L 95.918017 293.702831 
L 95.918017 293.047685 
L 96.301313 293.047685 
L 96.301313 291.737393 
L 100.343767 291.737393 
L 100.343767 290.427101 
L 102.330873 290.427101 
L 102.330873 289.771955 
L 103.623262 289.771955 
L 103.623262 289.116809 
L 105.057436 289.116809 
L 105.057436 287.806516 
L 107.614095 287.806516 
L 107.614095 287.15137 
L 107.811151 287.15137 
L 107.811151 285.841078 
L 108.198707 285.841078 
L 108.198707 285.185932 
L 109.131511 285.185932 
L 109.131511 284.530786 
L 109.668146 284.530786 
L 109.668146 283.87564 
L 111.505558 283.87564 
L 111.505558 282.565348 
L 113.873839 282.565348 
L 113.873839 280.599909 
L 115.460322 280.599909 
L 115.460322 279.944763 
L 116.081002 279.944763 
L 116.081002 279.289617 
L 116.443076 279.289617 
L 116.443076 278.634471 
L 116.680349 278.634471 
L 116.680349 276.669033 
L 116.797786 276.669033 
L 116.797786 276.013887 
L 117.598418 276.013887 
L 117.598418 275.35874 
L 118.039942 275.35874 
L 118.039942 272.738156 
L 118.470564 272.738156 
L 118.576578 270.772718 
L 120.286695 270.772718 
L 120.286695 268.807279 
L 120.944859 268.807279 
L 120.944859 268.152133 
L 121.579085 268.152133 
L 121.579085 267.496987 
L 122.44689 267.496987 
L 122.44689 266.841841 
L 123.907776 266.841841 
L 123.907776 266.186695 
L 124.444412 266.186695 
L 124.444412 265.531549 
L 125.255688 265.531549 
L 125.255688 264.876403 
L 125.961828 264.876403 
L 125.961828 264.221257 
L 126.439646 264.221257 
L 126.439646 263.566111 
L 128.411207 263.566111 
L 128.411207 262.910965 
L 129.347769 262.910965 
L 129.347769 261.600672 
L 130.290663 261.600672 
L 130.290663 260.945526 
L 130.664567 260.945526 
L 130.717333 259.635234 
L 131.082294 259.635234 
L 131.082294 258.980088 
L 133.755823 258.980088 
L 133.755823 258.324942 
L 134.192921 258.324942 
L 134.192921 257.01465 
L 134.953107 257.01465 
L 134.953107 256.359504 
L 136.034648 256.359504 
L 136.034648 255.704357 
L 136.942755 255.704357 
L 136.942755 255.049211 
L 137.307607 255.049211 
L 137.307607 254.394065 
L 137.875944 254.394065 
L 137.875944 253.738919 
L 138.01518 253.738919 
L 138.01518 253.083773 
L 138.761723 253.083773 
L 138.761723 252.428627 
L 139.090775 252.428627 
L 139.090775 251.773481 
L 139.381706 251.773481 
L 139.381706 251.118335 
L 139.572998 251.118335 
L 139.572998 250.463189 
L 140.256979 250.463189 
L 140.256979 249.808043 
L 140.915143 249.808043 
L 140.915143 248.49775 
L 141.350061 248.49775 
L 141.435758 247.187458 
L 142.161336 247.187458 
L 142.161336 245.877166 
L 142.726112 245.877166 
L 142.726112 245.22202 
L 142.857929 245.22202 
L 142.857929 244.566874 
L 143.60342 244.566874 
L 143.60342 242.601435 
L 144.605813 242.601435 
L 144.605813 241.946289 
L 144.93531 241.946289 
L 145.02832 240.635997 
L 145.418169 240.635997 
L 145.418169 239.980851 
L 145.843812 239.980851 
L 145.932112 238.670559 
L 145.976095 238.670559 
L 145.976095 238.015413 
L 146.644018 238.015413 
L 146.644018 237.360267 
L 146.875005 237.360267 
L 146.875005 236.705121 
L 147.061745 236.705121 
L 147.061745 236.049974 
L 147.670154 236.049974 
L 147.670154 235.394828 
L 148.770728 235.394828 
L 148.826773 232.774244 
L 148.919783 232.774244 
L 149.012299 231.463952 
L 149.232356 231.463952 
L 149.232356 230.808806 
L 149.485628 230.808806 
L 149.485628 230.15366 
L 149.628721 230.15366 
L 149.628721 229.498513 
L 150.051085 229.498513 
L 150.051085 228.843367 
L 150.292822 228.843367 
L 150.37835 227.533075 
L 150.615623 227.533075 
L 150.615623 226.877929 
L 150.882897 226.877929 
L 150.965587 224.912491 
L 151.031458 224.912491 
L 151.031458 224.257345 
L 151.453659 224.257345 
L 151.485716 222.947052 
L 152.00633 222.947052 
L 152.037389 221.63676 
L 152.145659 221.63676 
L 152.145659 220.981614 
L 152.511852 220.981614 
L 152.602211 219.671322 
L 152.677155 219.671322 
L 152.677155 218.36103 
L 152.811246 218.36103 
L 152.811246 217.705884 
L 153.236437 217.705884 
L 153.323128 215.085299 
L 153.40939 215.085299 
L 153.509492 212.464715 
L 153.609024 212.464715 
L 153.609024 211.809569 
L 154.098334 211.809569 
L 154.098334 211.154423 
L 154.601099 211.154423 
L 154.601099 210.499277 
L 154.77436 210.499277 
L 154.77436 209.84413 
L 155.180705 209.84413 
L 155.271165 208.533838 
L 155.450689 208.533838 
L 155.450689 207.878692 
L 155.766741 207.878692 
L 155.82927 205.913254 
L 156.027868 205.913254 
L 156.027868 205.258108 
L 156.236431 205.258108 
L 156.236431 204.602962 
L 156.370066 204.602962 
L 156.370066 203.292669 
L 156.502685 203.292669 
L 156.502685 202.637523 
L 156.800392 202.637523 
L 156.800392 201.982377 
L 157.023299 201.982377 
L 157.069866 200.016939 
L 157.139484 200.016939 
L 157.15106 198.706647 
L 157.2549 198.706647 
L 157.300853 196.741208 
L 157.403807 196.741208 
L 157.403807 196.086062 
L 157.77619 196.086062 
L 157.77619 195.430916 
L 157.898572 195.430916 
L 157.898572 194.77577 
L 158.096998 194.77577 
L 158.096998 194.120624 
L 158.228039 194.120624 
L 158.314856 192.810332 
L 158.347301 192.810332 
L 158.347301 191.50004 
L 158.551397 191.50004 
L 158.551397 190.844894 
L 158.67908 190.844894 
L 158.67908 190.189747 
L 158.962994 190.189747 
L 158.962994 188.879455 
L 159.07735 188.879455 
L 159.108409 187.569163 
L 159.303838 187.569163 
L 159.303838 186.914017 
L 159.415988 186.914017 
L 159.415988 186.258871 
L 159.748174 186.258871 
L 159.748174 185.603725 
L 160.403753 185.603725 
L 160.403753 184.948579 
L 160.556731 184.948579 
L 160.566247 182.98314 
L 160.793103 182.98314 
L 160.793103 182.327994 
L 161.017045 182.327994 
L 161.017045 181.672848 
L 161.320345 181.672848 
L 161.420284 180.362556 
L 161.600536 180.362556 
L 161.600536 179.70741 
L 161.832113 179.70741 
L 161.832113 179.052264 
L 162.016937 179.052264 
L 162.051921 177.741972 
L 162.147765 177.741972 
L 162.243086 175.121387 
L 162.389382 175.121387 
L 162.432178 173.811095 
L 162.610782 173.811095 
L 162.712026 172.500803 
L 162.812686 172.500803 
L 162.829407 171.190511 
L 163.037069 171.190511 
L 163.144084 169.880218 
L 163.36427 169.880218 
L 163.396654 168.569926 
L 163.517565 168.569926 
L 163.517565 167.91478 
L 164.202782 167.91478 
L 164.264459 166.604488 
L 164.516598 166.604488 
L 164.516598 165.949342 
L 164.720216 165.949342 
L 164.817412 163.983903 
L 164.884386 163.983903 
L 164.951104 161.363319 
L 165.00282 161.363319 
L 165.113126 158.087589 
L 165.331666 158.087589 
L 165.331666 157.432442 
L 165.568939 157.432442 
L 165.568939 156.777296 
L 165.957358 156.777296 
L 165.957358 156.12215 
L 166.186323 156.12215 
L 166.261982 154.811858 
L 166.316801 154.811858 
L 166.364626 153.501566 
L 166.473452 153.501566 
L 166.520851 152.191274 
L 166.58834 152.191274 
L 166.601807 150.880981 
L 166.735904 150.880981 
L 166.7626 149.570689 
L 166.895472 149.570689 
L 166.974711 147.605251 
L 167.073257 147.605251 
L 167.0929 146.294959 
L 167.223287 146.294959 
L 167.236273 144.984667 
L 167.697419 144.984667 
L 167.697419 144.32952 
L 167.860992 144.32952 
L 167.860992 143.674374 
L 168.103511 143.674374 
L 168.103511 142.364082 
L 168.287795 142.364082 
L 168.391365 140.398644 
L 168.403509 140.398644 
L 168.403509 139.743498 
L 168.518461 139.743498 
L 168.518461 139.088352 
L 168.674545 139.088352 
L 168.674545 138.433206 
L 168.964959 138.433206 
L 168.964959 137.778059 
L 169.337135 137.778059 
L 169.417501 136.467767 
L 169.662047 136.467767 
L 169.746554 132.536891 
L 169.969922 132.536891 
L 169.969922 131.881745 
L 170.294256 131.881745 
L 170.332339 130.571452 
L 170.761767 130.571452 
L 170.835842 128.606014 
L 170.951613 128.606014 
L 171.050982 127.295722 
L 171.165339 127.295722 
L 171.2274 125.98543 
L 171.463278 125.98543 
L 171.473461 124.675137 
L 171.574971 124.675137 
L 171.574971 124.019991 
L 171.711078 124.019991 
L 171.726136 122.054553 
L 171.895887 122.054553 
L 171.895887 120.089115 
L 172.054157 120.089115 
L 172.16214 116.813384 
L 172.274322 116.813384 
L 172.274322 116.158238 
L 172.48694 116.158238 
L 172.597058 112.882508 
L 172.644719 112.882508 
L 172.644719 112.227362 
L 172.758578 112.227362 
L 172.758578 111.572215 
L 172.9233 111.572215 
L 172.988756 110.261923 
L 173.197501 110.261923 
L 173.206721 108.951631 
L 173.335289 108.951631 
L 173.335289 108.296485 
L 173.508272 108.296485 
L 173.589616 106.986193 
L 173.657115 106.986193 
L 173.679556 105.675901 
L 174.091789 105.675901 
L 174.091789 105.020754 
L 174.270476 105.020754 
L 174.32243 103.055316 
L 174.404376 103.055316 
L 174.404376 102.40017 
L 174.550061 102.40017 
L 174.550061 101.089878 
L 174.719912 101.089878 
L 174.762117 98.469293 
L 174.929925 98.469293 
L 174.929925 97.159001 
L 175.071303 97.159001 
L 175.071303 96.503855 
L 175.211544 96.503855 
L 175.260772 93.883271 
L 175.456309 93.883271 
L 175.541172 92.572979 
L 175.697687 92.572979 
L 175.749548 91.262686 
L 175.844889 91.262686 
L 175.844889 90.60754 
L 175.998714 90.60754 
L 176.061431 88.642102 
L 176.162868 88.642102 
L 176.162868 87.986956 
L 176.30621 87.986956 
L 176.406237 85.366371 
L 176.638688 85.366371 
L 176.729302 82.090641 
L 176.770676 82.090641 
L 176.860608 79.470057 
L 176.935199 79.470057 
L 176.987223 76.194326 
L 177.138693 76.194326 
L 177.175439 72.263449 
L 177.361644 72.263449 
L 177.408792 69.642865 
L 177.671204 69.642865 
L 177.767269 66.367135 
L 177.788545 66.367135 
L 177.880443 64.401696 
L 178.225994 64.401696 
L 178.274311 61.781112 
L 179.340479 61.781112 
L 179.340479 60.47082 
L 179.553156 60.47082 
L 179.642605 58.505381 
L 179.718912 58.505381 
L 179.731597 56.539943 
L 179.870531 56.539943 
L 179.870531 55.884797 
L 180.061331 55.884797 
L 180.061331 54.574505 
L 180.234673 54.574505 
L 180.311505 53.264213 
L 180.366615 53.264213 
L 180.366615 52.609066 
L 180.777468 52.609066 
L 180.777468 51.95392 
L 181.152584 51.95392 
L 181.152584 49.988482 
L 181.358831 49.988482 
L 181.410734 46.712752 
L 181.673628 46.712752 
L 181.704798 44.092167 
L 181.971695 44.092167 
L 181.971695 43.437021 
L 182.493539 43.437021 
L 182.493539 42.781875 
L 182.878894 42.781875 
L 182.984443 41.471583 
L 183.279213 41.471583 
L 183.279213 40.816437 
L 183.426033 40.816437 
L 183.426033 40.161291 
L 184.213391 40.161291 
L 184.225646 38.195852 
L 184.461693 38.195852 
L 184.461693 36.230414 
L 184.898504 36.230414 
L 184.898504 34.920122 
L 185.514535 34.920122 
L 185.596261 33.60983 
L 187.877325 33.60983 
L 187.877325 32.954683 
L 189.693064 32.954683 
L 189.693064 32.299537 
L 190.896847 32.299537 
L 190.896847 31.644391 
L 191.8069 31.644391 
L 191.8069 30.989245 
L 196.811174 30.989245 
L 196.811174 30.334099 
L 338.688 30.334099 
L 338.688 30.334099 
" style="fill:none;stroke:#000080;stroke-linecap:square;stroke-width:1.5;"/>
   </g>
   <g id="line2d_31">
    <defs>
     <path d="M 0 6 
C 1.591219 6 3.117479 5.367802 4.242641 4.242641 
C 5.367802 3.117479 6 1.591219 6 0 
C 6 -1.591219 5.367802 -3.117479 4.242641 -4.242641 
C 3.117479 -5.367802 1.591219 -6 0 -6 
C -1.591219 -6 -3.117479 -5.367802 -4.242641 -4.242641 
C -5.367802 -3.117479 -6 -1.591219 -6 0 
C -6 1.591219 -5.367802 3.117479 -4.242641 4.242641 
C -3.117479 5.367802 -1.591219 6 0 6 
z
" id="mf35e831b97" style="stroke:#000080;stroke-width:1.5;"/>
    </defs>
    <g>
     <use style="fill-opacity:0;stroke:#000080;stroke-width:1.5;" x="162.812686" xlink:href="#mf35e831b97" y="171.845657"/>
     <use style="fill-opacity:0;stroke:#000080;stroke-width:1.5;" x="176.96123" xlink:href="#mf35e831b97" y="78.159764"/>
     <use style="fill-opacity:0;stroke:#000080;stroke-width:1.5;" x="196.811174" xlink:href="#mf35e831b97" y="30.334099"/>
     <use style="fill-opacity:0;stroke:#000080;stroke-width:1.5;" x="196.811174" xlink:href="#mf35e831b97" y="30.334099"/>
     <use style="fill-opacity:0;stroke:#000080;stroke-width:1.5;" x="338.688" xlink:href="#mf35e831b97" y="30.334099"/>
    </g>
   </g>
   <g id="line2d_32">
    <path style="fill:none;stroke:#000080;stroke-linecap:square;stroke-width:1.5;"/>
    <g/>
   </g>
   <g id="line2d_33">
    <defs>
     <path d="M 0 1.5 
C 0.397805 1.5 0.77937 1.341951 1.06066 1.06066 
C 1.341951 0.77937 1.5 0.397805 1.5 0 
C 1.5 -0.397805 1.341951 -0.77937 1.06066 -1.06066 
C 0.77937 -1.341951 0.397805 -1.5 0 -1.5 
C -0.397805 -1.5 -0.77937 -1.341951 -1.06066 -1.06066 
C -1.341951 -0.77937 -1.5 -0.397805 -1.5 0 
C -1.5 0.397805 -1.341951 0.77937 -1.06066 1.06066 
C -0.77937 1.341951 -0.397805 1.5 0 1.5 
z
" id="ma79ec6244f" style="stroke:#ff00ff;"/>
    </defs>
    <g>
     <use style="fill:#ff00ff;stroke:#ff00ff;" x="246.975919" xlink:href="#ma79ec6244f" y="259.635234"/>
     <use style="fill:#ff00ff;stroke:#ff00ff;" x="246.975919" xlink:href="#ma79ec6244f" y="259.635234"/>
    </g>
   </g>
   <g id="line2d_34">
    <path d="M 17.444571 298.944 
L 17.444571 298.288854 
L 74.921597 298.288854 
L 74.921597 297.633708 
L 76.16779 297.633708 
L 76.16779 295.66827 
L 77.330839 295.66827 
L 77.330839 293.047685 
L 178.069773 293.047685 
L 178.069773 292.392539 
L 178.115047 292.392539 
L 178.115047 291.737393 
L 178.118525 291.737393 
L 178.118525 291.082247 
L 178.122002 291.082247 
L 178.122002 289.116809 
L 190.181284 289.116809 
L 190.181284 287.806516 
L 190.183025 287.806516 
L 190.183025 283.87564 
L 197.242725 283.87564 
L 197.242725 283.220494 
L 197.243886 283.220494 
L 197.243886 282.565348 
L 197.245048 282.565348 
L 197.245048 281.910201 
L 202.255773 281.910201 
L 202.255773 281.255055 
L 202.256644 281.255055 
L 202.256644 280.599909 
L 202.257515 280.599909 
L 202.257515 279.944763 
L 206.14558 279.944763 
L 206.14558 279.289617 
L 206.146278 279.289617 
L 206.146278 276.669033 
L 209.315317 276.669033 
L 209.315317 276.013887 
L 209.324034 276.013887 
L 209.324034 274.048448 
L 212.010526 274.048448 
L 212.010526 273.393302 
L 212.011024 273.393302 
L 212.011024 272.08301 
L 214.338751 272.08301 
L 214.338751 271.427864 
L 216.391664 271.427864 
L 216.391664 270.772718 
L 216.392052 270.772718 
L 216.392052 270.117572 
L 218.223633 270.117572 
L 218.223633 269.462426 
L 218.228863 269.462426 
L 218.228863 268.152133 
L 219.890513 268.152133 
L 219.890513 267.496987 
L 221.407519 267.496987 
L 221.407519 266.841841 
L 225.298081 266.841841 
L 225.298081 266.186695 
L 226.423362 266.186695 
L 226.423362 265.531549 
L 228.477038 265.531549 
L 228.477038 264.876403 
L 230.314149 264.876403 
L 230.314149 264.221257 
L 231.164886 264.221257 
L 231.164886 263.566111 
L 235.547057 263.566111 
L 235.547057 262.910965 
L 238.509661 262.910965 
L 238.509661 262.255818 
L 239.04614 262.255818 
L 239.04614 261.600672 
L 241.506339 261.600672 
L 241.506339 260.945526 
L 246.975919 260.945526 
L 246.975919 259.635234 
L 338.688 259.635234 
" style="fill:none;stroke:#ff00ff;stroke-linecap:square;stroke-width:1.5;"/>
   </g>
   <g id="line2d_35">
    <defs>
     <path d="M -0 8.485281 
L 5.091169 0 
L 0 -8.485281 
L -5.091169 -0 
z
" id="m3708afeb18" style="stroke:#ff00ff;stroke-linejoin:miter;stroke-width:1.5;"/>
    </defs>
    <g>
     <use style="fill-opacity:0;stroke:#ff00ff;stroke-linejoin:miter;stroke-width:1.5;" x="77.330839" xlink:href="#m3708afeb18" y="295.66827"/>
     <use style="fill-opacity:0;stroke:#ff00ff;stroke-linejoin:miter;stroke-width:1.5;" x="77.330839" xlink:href="#m3708afeb18" y="293.047685"/>
     <use style="fill-opacity:0;stroke:#ff00ff;stroke-linejoin:miter;stroke-width:1.5;" x="231.164886" xlink:href="#m3708afeb18" y="264.221257"/>
     <use style="fill-opacity:0;stroke:#ff00ff;stroke-linejoin:miter;stroke-width:1.5;" x="246.975919" xlink:href="#m3708afeb18" y="259.635234"/>
     <use style="fill-opacity:0;stroke:#ff00ff;stroke-linejoin:miter;stroke-width:1.5;" x="246.975919" xlink:href="#m3708afeb18" y="259.635234"/>
     <use style="fill-opacity:0;stroke:#ff00ff;stroke-linejoin:miter;stroke-width:1.5;" x="338.688" xlink:href="#m3708afeb18" y="259.635234"/>
    </g>
   </g>
   <g id="line2d_36">
    <path style="fill:none;stroke:#ff00ff;stroke-linecap:square;stroke-width:1.5;"/>
    <g/>
   </g>
   <g id="line2d_37">
    <path clip-path="url(#p56c2b66f0b)" d="M 178.06803 293.047685 
" style="fill:none;stroke:#ff00ff;stroke-linecap:square;stroke-width:1.5;"/>
    <defs>
     <path d="M -12 12 
L 12 -12 
M -12 -12 
L 12 12 
" id="mc9eb9e2ff3" style="stroke:#ff00ff;"/>
    </defs>
    <g clip-path="url(#p56c2b66f0b)">
     <use style="fill:#ff00ff;stroke:#ff00ff;" x="178.06803" xlink:href="#mc9eb9e2ff3" y="293.047685"/>
    </g>
   </g>
   <g id="line2d_38">
    <defs>
     <path d="M 0 1.5 
C 0.397805 1.5 0.77937 1.341951 1.06066 1.06066 
C 1.341951 0.77937 1.5 0.397805 1.5 0 
C 1.5 -0.397805 1.341951 -0.77937 1.06066 -1.06066 
C 0.77937 -1.341951 0.397805 -1.5 0 -1.5 
C -0.397805 -1.5 -0.77937 -1.341951 -1.06066 -1.06066 
C -1.341951 -0.77937 -1.5 -0.397805 -1.5 0 
C -1.5 0.397805 -1.341951 0.77937 -1.06066 1.06066 
C -0.77937 1.341951 -0.397805 1.5 0 1.5 
z
" id="mff16316175" style="stroke:#ff7500;"/>
    </defs>
    <g>
     <use style="fill:#ff7500;stroke:#ff7500;" x="287.283935" xlink:href="#mff16316175" y="63.091404"/>
     <use style="fill:#ff7500;stroke:#ff7500;" x="287.283935" xlink:href="#mff16316175" y="63.091404"/>
    </g>
   </g>
   <g id="line2d_39">
    <path d="M 17.444571 298.944 
L 17.444571 297.633708 
L 112.506763 297.633708 
L 112.506763 296.978562 
L 114.685115 296.978562 
L 114.685115 296.323416 
L 116.262979 296.323416 
L 116.262979 295.66827 
L 117.985359 295.66827 
L 117.985359 295.013123 
L 120.33454 295.013123 
L 120.429836 293.047685 
L 122.740699 293.047685 
L 122.740699 292.392539 
L 122.865118 292.392539 
L 122.865118 291.082247 
L 123.273551 291.082247 
L 123.354102 289.771955 
L 123.868806 289.771955 
L 123.868806 289.116809 
L 125.038147 289.116809 
L 125.038147 287.806516 
L 126.236468 287.806516 
L 126.236468 285.841078 
L 126.50685 285.841078 
L 126.50685 284.530786 
L 127.48501 284.530786 
L 127.48501 283.87564 
L 127.611382 283.87564 
L 127.611382 283.220494 
L 128.260216 283.220494 
L 128.260216 282.565348 
L 128.381113 282.565348 
L 128.381113 281.910201 
L 128.560901 281.910201 
L 128.560901 281.255055 
L 129.118302 281.255055 
L 129.118302 280.599909 
L 129.233413 280.599909 
L 129.233413 279.944763 
L 129.602362 279.944763 
L 129.602362 278.634471 
L 130.478617 278.634471 
L 130.478617 277.979325 
L 130.638123 277.979325 
L 130.638123 277.324179 
L 131.185181 277.324179 
L 131.185181 276.669033 
L 131.665771 276.669033 
L 131.765283 274.703594 
L 131.814826 274.703594 
L 131.814826 273.393302 
L 132.133473 273.393302 
L 132.133473 272.738156 
L 132.326708 272.738156 
L 132.326708 271.427864 
L 133.262014 271.427864 
L 133.262014 270.772718 
L 133.398082 270.772718 
L 133.398082 270.117572 
L 133.600213 270.117572 
L 133.600213 269.462426 
L 133.910056 269.462426 
L 134.019394 268.152133 
L 134.47127 268.152133 
L 134.47127 267.496987 
L 134.598256 267.496987 
L 134.598256 266.841841 
L 135.199312 266.841841 
L 135.199312 265.531549 
L 135.760625 265.531549 
L 135.760625 264.876403 
L 136.607732 264.876403 
L 136.607732 264.221257 
L 136.905847 264.221257 
L 136.905847 263.566111 
L 137.034686 263.566111 
L 137.034686 262.910965 
L 137.180776 262.910965 
L 137.180776 262.255818 
L 138.392446 262.255818 
L 138.392446 261.600672 
L 138.510793 261.600672 
L 138.510793 260.945526 
L 138.794909 260.945526 
L 138.794909 260.29038 
L 139.090775 260.29038 
L 139.090775 259.635234 
L 139.509467 259.635234 
L 139.572998 258.324942 
L 139.730821 258.324942 
L 139.730821 257.669796 
L 140.454035 257.669796 
L 140.454035 257.01465 
L 140.944478 257.01465 
L 140.944478 256.359504 
L 141.871938 256.359504 
L 141.871938 255.704357 
L 142.311031 255.704357 
L 142.311031 255.049211 
L 142.673105 255.049211 
L 142.673105 254.394065 
L 142.818488 254.394065 
L 142.818488 253.738919 
L 143.11861 253.738919 
L 143.11861 253.083773 
L 143.298796 253.083773 
L 143.298796 252.428627 
L 143.915178 252.428627 
L 143.915178 251.773481 
L 144.474645 251.773481 
L 144.474645 251.118335 
L 145.143889 251.118335 
L 145.143889 250.463189 
L 145.281568 250.463189 
L 145.281568 249.808043 
L 146.442037 249.808043 
L 146.442037 249.152896 
L 146.843687 249.152896 
L 146.843687 248.49775 
L 147.297484 248.49775 
L 147.317833 247.187458 
L 147.409112 247.187458 
L 147.4697 245.877166 
L 148.411533 245.877166 
L 148.45922 244.566874 
L 148.891932 244.566874 
L 148.891932 243.256582 
L 149.049169 243.256582 
L 149.067574 241.291143 
L 150.352736 241.291143 
L 150.352736 240.635997 
L 151.260066 240.635997 
L 151.260066 239.980851 
L 152.137948 239.980851 
L 152.137948 239.325705 
L 152.526944 239.325705 
L 152.526944 238.670559 
L 152.744329 238.670559 
L 152.744329 238.015413 
L 152.995791 238.015413 
L 152.995791 237.360267 
L 153.192929 237.360267 
L 153.192929 236.049974 
L 153.430889 236.049974 
L 153.430889 235.394828 
L 153.925152 235.394828 
L 153.925152 234.739682 
L 154.385464 234.739682 
L 154.385464 234.084536 
L 154.919633 234.084536 
L 154.919633 233.42939 
L 155.316219 233.42939 
L 155.316219 232.774244 
L 155.935057 232.774244 
L 155.935057 232.119098 
L 156.412372 232.119098 
L 156.412372 231.463952 
L 156.550661 231.463952 
L 156.616413 230.15366 
L 156.776762 230.15366 
L 156.876971 228.843367 
L 156.935649 228.843367 
L 156.935649 228.188221 
L 157.658565 228.188221 
L 157.658565 226.877929 
L 158.0201 226.877929 
L 158.031107 225.567637 
L 158.647247 225.567637 
L 158.647247 224.912491 
L 159.537516 224.912491 
L 159.633129 223.602199 
L 159.778062 223.602199 
L 159.882266 222.291906 
L 160.816565 222.291906 
L 160.816565 221.63676 
L 161.137157 221.63676 
L 161.137157 220.981614 
L 161.492608 220.981614 
L 161.596053 219.671322 
L 162.212813 219.671322 
L 162.212813 219.016176 
L 162.466339 219.016176 
L 162.547205 217.705884 
L 162.741445 217.705884 
L 162.741445 217.050738 
L 162.891965 217.050738 
L 162.987455 215.740445 
L 163.408783 215.740445 
L 163.501492 213.775007 
L 163.729146 213.775007 
L 163.729146 213.119861 
L 164.074879 213.119861 
L 164.074879 212.464715 
L 164.455807 212.464715 
L 164.455807 211.809569 
L 164.921483 211.809569 
L 164.921483 211.154423 
L 165.160709 211.154423 
L 165.160709 210.499277 
L 165.342521 210.499277 
L 165.342521 209.84413 
L 165.46508 209.84413 
L 165.561796 208.533838 
L 165.778348 208.533838 
L 165.845252 207.223546 
L 166.323641 207.223546 
L 166.34073 205.913254 
L 166.658924 205.913254 
L 166.702476 203.947816 
L 167.001045 203.947816 
L 167.069981 202.637523 
L 167.119055 202.637523 
L 167.119055 201.982377 
L 167.710056 201.982377 
L 167.710056 201.327231 
L 167.96712 201.327231 
L 168.026147 200.016939 
L 168.33661 200.016939 
L 168.418678 198.706647 
L 169.125853 198.706647 
L 169.125853 198.051501 
L 169.678981 198.051501 
L 169.678981 197.396355 
L 170.261547 197.396355 
L 170.261547 196.741208 
L 170.819995 196.741208 
L 170.819995 196.086062 
L 171.011825 196.086062 
L 171.056197 194.77577 
L 171.224819 194.77577 
L 171.224819 194.120624 
L 172.02459 194.120624 
L 172.132757 192.810332 
L 173.374132 192.810332 
L 173.374132 192.155186 
L 174.560725 192.155186 
L 174.560725 191.50004 
L 174.804221 191.50004 
L 174.804221 190.844894 
L 175.953496 190.844894 
L 175.953496 190.189747 
L 176.702921 190.189747 
L 176.702921 189.534601 
L 177.511711 189.534601 
L 177.511711 188.879455 
L 178.029625 188.879455 
L 178.029625 188.224309 
L 178.607149 188.224309 
L 178.607149 187.569163 
L 179.051166 187.569163 
L 179.051166 186.914017 
L 179.744273 186.914017 
L 179.744273 186.258871 
L 179.988073 186.258871 
L 180.014607 184.948579 
L 180.262372 184.948579 
L 180.262372 184.293433 
L 181.924233 184.293433 
L 181.924233 183.638286 
L 183.768912 183.638286 
L 183.845453 182.327994 
L 183.993809 182.327994 
L 184.080492 179.70741 
L 184.24034 179.70741 
L 184.24034 179.052264 
L 184.479812 179.052264 
L 184.479812 178.397118 
L 184.729137 178.397118 
L 184.729137 177.741972 
L 185.908266 177.741972 
L 185.908266 177.086825 
L 187.57162 177.086825 
L 187.57162 176.431679 
L 187.906115 176.431679 
L 187.906115 175.776533 
L 188.104364 175.776533 
L 188.213861 174.466241 
L 188.622267 174.466241 
L 188.622267 173.811095 
L 190.464533 173.811095 
L 190.464533 173.155949 
L 190.643495 173.155949 
L 190.725543 171.845657 
L 191.049926 171.845657 
L 191.049926 171.190511 
L 191.928616 171.190511 
L 191.928616 170.535364 
L 192.139207 170.535364 
L 192.139207 169.880218 
L 192.270994 169.880218 
L 192.296462 168.569926 
L 192.445431 168.569926 
L 192.445431 167.91478 
L 192.631762 167.91478 
L 192.631762 167.259634 
L 192.749376 167.259634 
L 192.779407 165.949342 
L 193.180566 165.949342 
L 193.223762 164.63905 
L 193.434542 164.63905 
L 193.53252 163.328757 
L 193.618516 163.328757 
L 193.618516 162.673611 
L 194.184004 162.673611 
L 194.184004 162.018465 
L 194.618018 162.018465 
L 194.723681 160.708173 
L 194.806684 160.708173 
L 194.806684 160.053027 
L 194.933767 160.053027 
L 194.933767 159.397881 
L 195.387237 159.397881 
L 195.387237 158.742735 
L 195.528123 158.742735 
L 195.583139 157.432442 
L 195.974084 157.432442 
L 196.007154 156.12215 
L 197.847682 156.12215 
L 197.847682 155.467004 
L 198.650133 155.467004 
L 198.650133 154.811858 
L 198.972311 154.811858 
L 198.972311 154.156712 
L 199.379302 154.156712 
L 199.379302 153.501566 
L 199.813131 153.501566 
L 199.813131 152.84642 
L 200.030272 152.84642 
L 200.030272 152.191274 
L 200.497132 152.191274 
L 200.497132 151.536128 
L 201.31559 151.536128 
L 201.31559 150.880981 
L 202.17893 150.880981 
L 202.201232 149.570689 
L 202.421832 149.570689 
L 202.517795 148.260397 
L 204.036677 148.260397 
L 204.036677 147.605251 
L 204.511614 147.605251 
L 204.511614 146.950105 
L 205.38108 146.950105 
L 205.38108 146.294959 
L 205.656392 146.294959 
L 205.656392 145.639813 
L 206.538467 145.639813 
L 206.538467 144.984667 
L 207.263373 144.984667 
L 207.263373 144.32952 
L 208.171648 144.32952 
L 208.171648 143.674374 
L 208.380785 143.674374 
L 208.385384 142.364082 
L 208.886657 142.364082 
L 208.959479 141.05379 
L 209.296998 141.05379 
L 209.296998 140.398644 
L 210.749903 140.398644 
L 210.749903 139.743498 
L 210.914809 139.743498 
L 210.914809 139.088352 
L 211.242098 139.088352 
L 211.242098 138.433206 
L 211.899867 138.433206 
L 211.899867 137.778059 
L 212.149414 137.778059 
L 212.149414 137.122913 
L 212.413699 137.122913 
L 212.413699 136.467767 
L 212.997503 136.467767 
L 212.997503 135.812621 
L 213.228215 135.812621 
L 213.270195 134.502329 
L 213.39093 134.502329 
L 213.491633 133.192037 
L 213.718875 133.192037 
L 213.776127 131.881745 
L 215.106633 131.881745 
L 215.106633 131.226598 
L 215.778846 131.226598 
L 215.778846 130.571452 
L 215.982877 130.571452 
L 215.982877 129.916306 
L 216.317324 129.916306 
L 216.317324 129.26116 
L 217.125018 129.26116 
L 217.125018 128.606014 
L 217.352511 128.606014 
L 217.352511 127.950868 
L 217.78019 127.950868 
L 217.78019 127.295722 
L 218.059298 127.295722 
L 218.059298 126.640576 
L 218.303834 126.640576 
L 218.303834 125.98543 
L 218.647061 125.98543 
L 218.683783 124.675137 
L 218.982661 124.675137 
L 218.982661 124.019991 
L 219.51875 124.019991 
L 219.51875 123.364845 
L 219.650357 123.364845 
L 219.650357 122.709699 
L 220.365752 122.709699 
L 220.365752 122.054553 
L 220.708277 122.054553 
L 220.708277 121.399407 
L 221.333854 121.399407 
L 221.333854 120.744261 
L 221.5771 120.744261 
L 221.5771 120.089115 
L 222.012577 120.089115 
L 222.012577 119.433969 
L 222.294714 119.433969 
L 222.294714 118.778823 
L 222.440457 118.778823 
L 222.440457 118.123676 
L 222.572223 118.123676 
L 222.572223 117.46853 
L 222.977458 117.46853 
L 222.977458 116.813384 
L 223.256549 116.813384 
L 223.256549 116.158238 
L 223.97808 116.158238 
L 223.97808 115.503092 
L 224.215156 115.503092 
L 224.215156 114.847946 
L 224.410205 114.847946 
L 224.430373 113.537654 
L 226.166394 113.537654 
L 226.166394 112.882508 
L 228.044772 112.882508 
L 228.077011 111.572215 
L 229.830307 111.572215 
L 229.830307 110.917069 
L 230.474767 110.917069 
L 230.474767 110.261923 
L 231.274134 110.261923 
L 231.274134 109.606777 
L 231.739711 109.606777 
L 231.739711 108.951631 
L 232.365847 108.951631 
L 232.365847 108.296485 
L 232.759254 108.296485 
L 232.759254 107.641339 
L 232.883527 107.641339 
L 232.883527 106.986193 
L 233.101981 106.986193 
L 233.211593 105.675901 
L 233.906903 105.675901 
L 233.906903 105.020754 
L 234.664016 105.020754 
L 234.664016 104.365608 
L 235.042329 104.365608 
L 235.042329 103.710462 
L 235.377498 103.710462 
L 235.377498 103.055316 
L 235.571127 103.055316 
L 235.571127 102.40017 
L 235.782455 102.40017 
L 235.782455 101.745024 
L 236.058419 101.745024 
L 236.058419 101.089878 
L 236.169563 101.089878 
L 236.169563 100.434732 
L 236.702452 100.434732 
L 236.71236 99.12444 
L 237.942087 99.12444 
L 237.942087 98.469293 
L 238.417444 98.469293 
L 238.417444 97.814147 
L 238.53993 97.814147 
L 238.53993 97.159001 
L 239.876105 97.159001 
L 239.876105 96.503855 
L 240.762129 96.503855 
L 240.762129 95.848709 
L 241.402423 95.848709 
L 241.402423 95.193563 
L 242.268512 95.193563 
L 242.268512 94.538417 
L 242.645694 94.538417 
L 242.645694 93.883271 
L 243.163896 93.883271 
L 243.274406 92.572979 
L 244.025951 92.572979 
L 244.025951 91.917832 
L 244.979714 91.917832 
L 244.979714 91.262686 
L 245.645165 91.262686 
L 245.745162 89.952394 
L 246.681316 89.952394 
L 246.681316 89.297248 
L 247.974585 89.297248 
L 247.974585 88.642102 
L 249.629341 88.642102 
L 249.673003 87.33181 
L 250.33698 87.33181 
L 250.33698 86.676664 
L 251.374091 86.676664 
L 251.374091 86.021518 
L 251.87031 86.021518 
L 251.87031 85.366371 
L 252.334091 85.366371 
L 252.334091 84.711225 
L 252.552453 84.711225 
L 252.552453 84.056079 
L 253.379742 84.056079 
L 253.379742 83.400933 
L 253.879203 83.400933 
L 253.879203 82.745787 
L 257.450617 82.745787 
L 257.450617 82.090641 
L 257.591965 82.090641 
L 257.591965 81.435495 
L 258.292234 81.435495 
L 258.292234 80.780349 
L 258.48053 80.780349 
L 258.48053 80.125203 
L 258.804838 80.125203 
L 258.804838 79.470057 
L 259.00183 79.470057 
L 259.00183 78.81491 
L 259.498795 78.81491 
L 259.498795 78.159764 
L 259.801479 78.159764 
L 259.801479 77.504618 
L 260.49445 77.504618 
L 260.49445 76.849472 
L 262.410056 76.849472 
L 262.410056 76.194326 
L 262.522589 76.194326 
L 262.522589 75.53918 
L 263.439877 75.53918 
L 263.439877 74.884034 
L 263.709783 74.884034 
L 263.709783 74.228888 
L 264.018622 74.228888 
L 264.052157 72.918596 
L 266.513224 72.918596 
L 266.601375 71.608303 
L 268.925839 71.608303 
L 268.925839 70.953157 
L 269.674526 70.953157 
L 269.674526 70.298011 
L 270.426426 70.298011 
L 270.426426 69.642865 
L 271.187177 69.642865 
L 271.187177 68.987719 
L 271.675428 68.987719 
L 271.675428 68.332573 
L 272.406565 68.332573 
L 272.406565 67.677427 
L 272.721417 67.677427 
L 272.721417 67.022281 
L 273.561158 67.022281 
L 273.561158 66.367135 
L 274.86647 66.367135 
L 274.86647 65.711988 
L 275.592944 65.711988 
L 275.592944 65.056842 
L 282.372427 65.056842 
L 282.372427 64.401696 
L 282.848322 64.401696 
L 282.848322 63.74655 
L 287.283935 63.74655 
L 287.283935 63.091404 
L 338.688 63.091404 
L 338.688 63.091404 
" style="fill:none;stroke:#ff7500;stroke-linecap:square;stroke-width:1.5;"/>
   </g>
   <g id="line2d_40">
    <defs>
     <path d="M 0 -6 
L -1.347084 -1.854102 
L -5.706339 -1.854102 
L -2.179628 0.708204 
L -3.526712 4.854102 
L -0 2.291796 
L 3.526712 4.854102 
L 2.179628 0.708204 
L 5.706339 -1.854102 
L 1.347084 -1.854102 
z
" id="m50aa9b02a6" style="stroke:#ff7500;stroke-linejoin:bevel;stroke-width:1.5;"/>
    </defs>
    <g>
     <use style="fill-opacity:0;stroke:#ff7500;stroke-linejoin:bevel;stroke-width:1.5;" x="145.281568" xlink:href="#m50aa9b02a6" y="249.808043"/>
     <use style="fill-opacity:0;stroke:#ff7500;stroke-linejoin:bevel;stroke-width:1.5;" x="207.263373" xlink:href="#m50aa9b02a6" y="144.984667"/>
     <use style="fill-opacity:0;stroke:#ff7500;stroke-linejoin:bevel;stroke-width:1.5;" x="243.274406" xlink:href="#m50aa9b02a6" y="93.228125"/>
     <use style="fill-opacity:0;stroke:#ff7500;stroke-linejoin:bevel;stroke-width:1.5;" x="287.283935" xlink:href="#m50aa9b02a6" y="63.091404"/>
     <use style="fill-opacity:0;stroke:#ff7500;stroke-linejoin:bevel;stroke-width:1.5;" x="338.688" xlink:href="#m50aa9b02a6" y="63.091404"/>
    </g>
   </g>
   <g id="line2d_41">
    <path style="fill:none;stroke:#ff7500;stroke-linecap:square;stroke-width:1.5;"/>
    <g/>
   </g>
   <g id="line2d_42">
    <path clip-path="url(#p56c2b66f0b)" d="M 226.544435 112.882508 
" style="fill:none;stroke:#ff7500;stroke-linecap:square;stroke-width:1.5;"/>
    <defs>
     <path d="M -12 12 
L 12 -12 
M -12 -12 
L 12 12 
" id="m9a00f5fc55" style="stroke:#ff7500;"/>
    </defs>
    <g clip-path="url(#p56c2b66f0b)">
     <use style="fill:#ff7500;stroke:#ff7500;" x="226.544435" xlink:href="#m9a00f5fc55" y="112.882508"/>
    </g>
   </g>
   <g id="line2d_43">
    <defs>
     <path d="M 0 1.5 
C 0.397805 1.5 0.77937 1.341951 1.06066 1.06066 
C 1.341951 0.77937 1.5 0.397805 1.5 0 
C 1.5 -0.397805 1.341951 -0.77937 1.06066 -1.06066 
C 0.77937 -1.341951 0.397805 -1.5 0 -1.5 
C -0.397805 -1.5 -0.77937 -1.341951 -1.06066 -1.06066 
C -1.341951 -0.77937 -1.5 -0.397805 -1.5 0 
C -1.5 0.397805 -1.341951 0.77937 -1.06066 1.06066 
C -0.77937 1.341951 -0.397805 1.5 0 1.5 
z
" id="me3beb8b840" style="stroke:#6495ed;"/>
    </defs>
    <g>
     <use style="fill:#6495ed;stroke:#6495ed;" x="199.951895" xlink:href="#me3beb8b840" y="292.392539"/>
     <use style="fill:#6495ed;stroke:#6495ed;" x="199.951895" xlink:href="#me3beb8b840" y="292.392539"/>
    </g>
   </g>
   <g id="line2d_44">
    <path d="M 17.444571 298.944 
L 17.444571 298.288854 
L 132.870621 298.288854 
L 132.870621 297.633708 
L 155.076745 297.633708 
L 155.076745 296.978562 
L 159.405822 296.978562 
L 159.405822 296.323416 
L 167.646779 296.323416 
L 167.646779 295.66827 
L 174.021557 295.66827 
L 174.021557 295.013123 
L 176.180364 295.013123 
L 176.180364 294.357977 
L 190.275058 294.357977 
L 190.275058 293.702831 
L 191.111114 293.702831 
L 191.111114 293.047685 
L 199.951895 293.047685 
L 199.951895 292.392539 
L 338.688 292.392539 
" style="fill:none;stroke:#6495ed;stroke-linecap:square;stroke-width:1.5;"/>
   </g>
   <g id="line2d_45">
    <defs>
     <path d="M -0 6 
L 6 -6 
L -6 -6 
z
" id="mffc67fa580" style="stroke:#6495ed;stroke-linejoin:miter;stroke-width:1.5;"/>
    </defs>
    <g>
     <use style="fill-opacity:0;stroke:#6495ed;stroke-linejoin:miter;stroke-width:1.5;" x="176.180364" xlink:href="#mffc67fa580" y="295.013123"/>
     <use style="fill-opacity:0;stroke:#6495ed;stroke-linejoin:miter;stroke-width:1.5;" x="199.951895" xlink:href="#mffc67fa580" y="293.047685"/>
     <use style="fill-opacity:0;stroke:#6495ed;stroke-linejoin:miter;stroke-width:1.5;" x="199.951895" xlink:href="#mffc67fa580" y="292.392539"/>
     <use style="fill-opacity:0;stroke:#6495ed;stroke-linejoin:miter;stroke-width:1.5;" x="199.951895" xlink:href="#mffc67fa580" y="292.392539"/>
     <use style="fill-opacity:0;stroke:#6495ed;stroke-linejoin:miter;stroke-width:1.5;" x="338.688" xlink:href="#mffc67fa580" y="292.392539"/>
    </g>
   </g>
   <g id="line2d_46">
    <path style="fill:none;stroke:#6495ed;stroke-linecap:square;stroke-width:1.5;"/>
    <g/>
   </g>
   <g id="line2d_47">
    <path clip-path="url(#p56c2b66f0b)" d="M 130.874681 298.288854 
" style="fill:none;stroke:#6495ed;stroke-linecap:square;stroke-width:1.5;"/>
    <defs>
     <path d="M -12 12 
L 12 -12 
M -12 -12 
L 12 12 
" id="m07f17e00ae" style="stroke:#6495ed;"/>
    </defs>
    <g clip-path="url(#p56c2b66f0b)">
     <use style="fill:#6495ed;stroke:#6495ed;" x="130.874681" xlink:href="#m07f17e00ae" y="298.288854"/>
    </g>
   </g>
   <g id="line2d_48">
    <path d="M 338.688 292.392539 
L 369.60768 293.571802 
" style="fill:none;stroke:#6495ed;stroke-linecap:square;stroke-width:1.5;"/>
    <g>
     <use style="fill-opacity:0;stroke:#6495ed;stroke-linejoin:miter;stroke-width:1.5;" x="338.688" xlink:href="#mffc67fa580" y="292.392539"/>
     <use style="fill-opacity:0;stroke:#6495ed;stroke-linejoin:miter;stroke-width:1.5;" x="369.60768" xlink:href="#mffc67fa580" y="293.571802"/>
    </g>
   </g>
   <g id="line2d_49">
    <path d="M 338.688 259.635234 
L 369.60768 207.616634 
" style="fill:none;stroke:#ff00ff;stroke-linecap:square;stroke-width:1.5;"/>
    <g>
     <use style="fill-opacity:0;stroke:#ff00ff;stroke-linejoin:miter;stroke-width:1.5;" x="338.688" xlink:href="#m3708afeb18" y="259.635234"/>
     <use style="fill-opacity:0;stroke:#ff00ff;stroke-linejoin:miter;stroke-width:1.5;" x="369.60768" xlink:href="#m3708afeb18" y="207.616634"/>
    </g>
   </g>
   <g id="line2d_50">
    <path d="M 338.688 63.091404 
L 369.60768 121.661465 
" style="fill:none;stroke:#ff7500;stroke-linecap:square;stroke-width:1.5;"/>
    <g>
     <use style="fill-opacity:0;stroke:#ff7500;stroke-linejoin:bevel;stroke-width:1.5;" x="338.688" xlink:href="#m50aa9b02a6" y="63.091404"/>
     <use style="fill-opacity:0;stroke:#ff7500;stroke-linejoin:bevel;stroke-width:1.5;" x="369.60768" xlink:href="#m50aa9b02a6" y="121.661465"/>
    </g>
   </g>
   <g id="line2d_51">
    <path d="M 338.688 30.334099 
L 369.60768 35.706297 
" style="fill:none;stroke:#000080;stroke-linecap:square;stroke-width:1.5;"/>
    <g>
     <use style="fill-opacity:0;stroke:#000080;stroke-width:1.5;" x="338.688" xlink:href="#mf35e831b97" y="30.334099"/>
     <use style="fill-opacity:0;stroke:#000080;stroke-width:1.5;" x="369.60768" xlink:href="#mf35e831b97" y="35.706297"/>
    </g>
   </g>
   <g id="line2d_52">
    <path d="M 338.688 298.944 
L 338.688 30.334099 
" style="fill:none;stroke:#000000;stroke-linecap:square;stroke-width:1.5;"/>
   </g>
   <g id="patch_3">
    <path d="M 57.6 298.944 
L 57.6 27.648 
" style="fill:none;stroke:#000000;stroke-linecap:square;stroke-linejoin:miter;stroke-width:0.8;"/>
   </g>
   <g id="patch_4">
    <path d="M 338.688 298.944 
L 338.688 27.648 
" style="fill:none;stroke:#000000;stroke-linecap:square;stroke-linejoin:miter;stroke-width:0.8;"/>
   </g>
   <g id="patch_5">
    <path d="M 57.6 298.944 
L 338.688 298.944 
" style="fill:none;stroke:#000000;stroke-linecap:square;stroke-linejoin:miter;stroke-width:0.8;"/>
   </g>
   <g id="patch_6">
    <path d="M 57.6 27.648 
L 338.688 27.648 
" style="fill:none;stroke:#000000;stroke-linecap:square;stroke-linejoin:miter;stroke-width:0.8;"/>
   </g>
   <g id="text_13">
    <!-- slsqp -->
    <g transform="translate(375.22944 298.262739)scale(0.17 -0.17)">
     <defs>
      <path d="M 14.796875 27.296875 
Q 14.796875 17.390625 18.875 11.75 
Q 22.953125 6.109375 30.078125 6.109375 
Q 37.203125 6.109375 41.296875 11.75 
Q 45.40625 17.390625 45.40625 27.296875 
Q 45.40625 37.203125 41.296875 42.84375 
Q 37.203125 48.484375 30.078125 48.484375 
Q 22.953125 48.484375 18.875 42.84375 
Q 14.796875 37.203125 14.796875 27.296875 
z
M 45.40625 8.203125 
Q 42.578125 3.328125 38.25 0.953125 
Q 33.9375 -1.421875 27.875 -1.421875 
Q 17.96875 -1.421875 11.734375 6.484375 
Q 5.515625 14.40625 5.515625 27.296875 
Q 5.515625 40.1875 11.734375 48.09375 
Q 17.96875 56 27.875 56 
Q 33.9375 56 38.25 53.625 
Q 42.578125 51.265625 45.40625 46.390625 
L 45.40625 54.6875 
L 54.390625 54.6875 
L 54.390625 -20.796875 
L 45.40625 -20.796875 
z
" id="DejaVuSans-113"/>
     </defs>
     <use xlink:href="#DejaVuSans-115"/>
     <use x="52.099609" xlink:href="#DejaVuSans-108"/>
     <use x="79.882812" xlink:href="#DejaVuSans-115"/>
     <use x="131.982422" xlink:href="#DejaVuSans-113"/>
     <use x="195.458984" xlink:href="#DejaVuSans-112"/>
    </g>
   </g>
   <g id="text_14">
    <!-- cobyla -->
    <g transform="translate(375.22944 212.307571)scale(0.17 -0.17)">
     <defs>
      <path d="M 48.6875 27.296875 
Q 48.6875 37.203125 44.609375 42.84375 
Q 40.53125 48.484375 33.40625 48.484375 
Q 26.265625 48.484375 22.1875 42.84375 
Q 18.109375 37.203125 18.109375 27.296875 
Q 18.109375 17.390625 22.1875 11.75 
Q 26.265625 6.109375 33.40625 6.109375 
Q 40.53125 6.109375 44.609375 11.75 
Q 48.6875 17.390625 48.6875 27.296875 
z
M 18.109375 46.390625 
Q 20.953125 51.265625 25.265625 53.625 
Q 29.59375 56 35.59375 56 
Q 45.5625 56 51.78125 48.09375 
Q 58.015625 40.1875 58.015625 27.296875 
Q 58.015625 14.40625 51.78125 6.484375 
Q 45.5625 -1.421875 35.59375 -1.421875 
Q 29.59375 -1.421875 25.265625 0.953125 
Q 20.953125 3.328125 18.109375 8.203125 
L 18.109375 0 
L 9.078125 0 
L 9.078125 75.984375 
L 18.109375 75.984375 
z
" id="DejaVuSans-98"/>
      <path d="M 32.171875 -5.078125 
Q 28.375 -14.84375 24.75 -17.8125 
Q 21.140625 -20.796875 15.09375 -20.796875 
L 7.90625 -20.796875 
L 7.90625 -13.28125 
L 13.1875 -13.28125 
Q 16.890625 -13.28125 18.9375 -11.515625 
Q 21 -9.765625 23.484375 -3.21875 
L 25.09375 0.875 
L 2.984375 54.6875 
L 12.5 54.6875 
L 29.59375 11.921875 
L 46.6875 54.6875 
L 56.203125 54.6875 
z
" id="DejaVuSans-121"/>
     </defs>
     <use xlink:href="#DejaVuSans-99"/>
     <use x="54.980469" xlink:href="#DejaVuSans-111"/>
     <use x="116.162109" xlink:href="#DejaVuSans-98"/>
     <use x="179.638672" xlink:href="#DejaVuSans-121"/>
     <use x="238.818359" xlink:href="#DejaVuSans-108"/>
     <use x="266.601562" xlink:href="#DejaVuSans-97"/>
    </g>
   </g>
   <g id="text_15">
    <!-- l1p-cmaes -->
    <g transform="translate(375.22944 126.352403)scale(0.17 -0.17)">
     <use xlink:href="#DejaVuSans-108"/>
     <use x="27.783203" xlink:href="#DejaVuSans-49"/>
     <use x="91.40625" xlink:href="#DejaVuSans-112"/>
     <use x="154.882812" xlink:href="#DejaVuSans-45"/>
     <use x="190.966797" xlink:href="#DejaVuSans-99"/>
     <use x="245.947266" xlink:href="#DejaVuSans-109"/>
     <use x="343.359375" xlink:href="#DejaVuSans-97"/>
     <use x="404.638672" xlink:href="#DejaVuSans-101"/>
     <use x="466.162109" xlink:href="#DejaVuSans-115"/>
    </g>
   </g>
   <g id="text_16">
    <!-- alN5 -->
    <g transform="translate(375.22944 40.397235)scale(0.17 -0.17)">
     <defs>
      <path d="M 9.8125 72.90625 
L 23.09375 72.90625 
L 55.421875 11.921875 
L 55.421875 72.90625 
L 64.984375 72.90625 
L 64.984375 0 
L 51.703125 0 
L 19.390625 60.984375 
L 19.390625 0 
L 9.8125 0 
z
" id="DejaVuSans-78"/>
      <path d="M 10.796875 72.90625 
L 49.515625 72.90625 
L 49.515625 64.59375 
L 19.828125 64.59375 
L 19.828125 46.734375 
Q 21.96875 47.46875 24.109375 47.828125 
Q 26.265625 48.1875 28.421875 48.1875 
Q 40.625 48.1875 47.75 41.5 
Q 54.890625 34.8125 54.890625 23.390625 
Q 54.890625 11.625 47.5625 5.09375 
Q 40.234375 -1.421875 26.90625 -1.421875 
Q 22.3125 -1.421875 17.546875 -0.640625 
Q 12.796875 0.140625 7.71875 1.703125 
L 7.71875 11.625 
Q 12.109375 9.234375 16.796875 8.0625 
Q 21.484375 6.890625 26.703125 6.890625 
Q 35.15625 6.890625 40.078125 11.328125 
Q 45.015625 15.765625 45.015625 23.390625 
Q 45.015625 31 40.078125 35.4375 
Q 35.15625 39.890625 26.703125 39.890625 
Q 22.75 39.890625 18.8125 39.015625 
Q 14.890625 38.140625 10.796875 36.28125 
z
" id="DejaVuSans-53"/>
     </defs>
     <use xlink:href="#DejaVuSans-97"/>
     <use x="61.279297" xlink:href="#DejaVuSans-108"/>
     <use x="89.0625" xlink:href="#DejaVuSans-78"/>
     <use x="163.867188" xlink:href="#DejaVuSans-53"/>
    </g>
   </g>
   <g id="text_17">
    <!-- bbob-constrained f8, 10-D -->
    <g transform="translate(60.41088 38.111366)scale(0.102 -0.102)">
     <defs>
      <path d="M 19.671875 64.796875 
L 19.671875 8.109375 
L 31.59375 8.109375 
Q 46.6875 8.109375 53.6875 14.9375 
Q 60.6875 21.78125 60.6875 36.53125 
Q 60.6875 51.171875 53.6875 57.984375 
Q 46.6875 64.796875 31.59375 64.796875 
z
M 9.8125 72.90625 
L 30.078125 72.90625 
Q 51.265625 72.90625 61.171875 64.09375 
Q 71.09375 55.28125 71.09375 36.53125 
Q 71.09375 17.671875 61.125 8.828125 
Q 51.171875 0 30.078125 0 
L 9.8125 0 
z
" id="DejaVuSans-68"/>
     </defs>
     <use xlink:href="#DejaVuSans-98"/>
     <use x="63.476562" xlink:href="#DejaVuSans-98"/>
     <use x="126.953125" xlink:href="#DejaVuSans-111"/>
     <use x="188.134766" xlink:href="#DejaVuSans-98"/>
     <use x="251.611328" xlink:href="#DejaVuSans-45"/>
     <use x="287.695312" xlink:href="#DejaVuSans-99"/>
     <use x="342.675781" xlink:href="#DejaVuSans-111"/>
     <use x="403.857422" xlink:href="#DejaVuSans-110"/>
     <use x="467.236328" xlink:href="#DejaVuSans-115"/>
     <use x="519.335938" xlink:href="#DejaVuSans-116"/>
     <use x="558.544922" xlink:href="#DejaVuSans-114"/>
     <use x="599.658203" xlink:href="#DejaVuSans-97"/>
     <use x="660.9375" xlink:href="#DejaVuSans-105"/>
     <use x="688.720703" xlink:href="#DejaVuSans-110"/>
     <use x="752.099609" xlink:href="#DejaVuSans-101"/>
     <use x="813.623047" xlink:href="#DejaVuSans-100"/>
     <use x="877.099609" xlink:href="#DejaVuSans-32"/>
     <use x="908.886719" xlink:href="#DejaVuSans-102"/>
     <use x="944.091797" xlink:href="#DejaVuSans-56"/>
     <use x="1007.714844" xlink:href="#DejaVuSans-44"/>
     <use x="1039.501953" xlink:href="#DejaVuSans-32"/>
     <use x="1071.289062" xlink:href="#DejaVuSans-49"/>
     <use x="1134.912109" xlink:href="#DejaVuSans-48"/>
     <use x="1198.535156" xlink:href="#DejaVuSans-45"/>
     <use x="1234.619141" xlink:href="#DejaVuSans-68"/>
    </g>
    <!-- 41 targets: 100..1e-06 -->
    <g transform="translate(60.41088 49.533135)scale(0.102 -0.102)">
     <defs>
      <path d="M 11.71875 12.40625 
L 22.015625 12.40625 
L 22.015625 0 
L 11.71875 0 
z
M 11.71875 51.703125 
L 22.015625 51.703125 
L 22.015625 39.3125 
L 11.71875 39.3125 
z
" id="DejaVuSans-58"/>
     </defs>
     <use xlink:href="#DejaVuSans-52"/>
     <use x="63.623047" xlink:href="#DejaVuSans-49"/>
     <use x="127.246094" xlink:href="#DejaVuSans-32"/>
     <use x="159.033203" xlink:href="#DejaVuSans-116"/>
     <use x="198.242188" xlink:href="#DejaVuSans-97"/>
     <use x="259.521484" xlink:href="#DejaVuSans-114"/>
     <use x="298.884766" xlink:href="#DejaVuSans-103"/>
     <use x="362.361328" xlink:href="#DejaVuSans-101"/>
     <use x="423.884766" xlink:href="#DejaVuSans-116"/>
     <use x="463.09375" xlink:href="#DejaVuSans-115"/>
     <use x="515.193359" xlink:href="#DejaVuSans-58"/>
     <use x="548.884766" xlink:href="#DejaVuSans-32"/>
     <use x="580.671875" xlink:href="#DejaVuSans-49"/>
     <use x="644.294922" xlink:href="#DejaVuSans-48"/>
     <use x="707.917969" xlink:href="#DejaVuSans-48"/>
     <use x="771.541016" xlink:href="#DejaVuSans-46"/>
     <use x="803.328125" xlink:href="#DejaVuSans-46"/>
     <use x="835.115234" xlink:href="#DejaVuSans-49"/>
     <use x="898.738281" xlink:href="#DejaVuSans-101"/>
     <use x="960.261719" xlink:href="#DejaVuSans-45"/>
     <use x="996.345703" xlink:href="#DejaVuSans-48"/>
     <use x="1059.96875" xlink:href="#DejaVuSans-54"/>
    </g>
    <!-- 30, 15 instances -->
    <g transform="translate(60.41088 60.954904)scale(0.102 -0.102)">
     <defs>
      <path d="M 40.578125 39.3125 
Q 47.65625 37.796875 51.625 33 
Q 55.609375 28.21875 55.609375 21.1875 
Q 55.609375 10.40625 48.1875 4.484375 
Q 40.765625 -1.421875 27.09375 -1.421875 
Q 22.515625 -1.421875 17.65625 -0.515625 
Q 12.796875 0.390625 7.625 2.203125 
L 7.625 11.71875 
Q 11.71875 9.328125 16.59375 8.109375 
Q 21.484375 6.890625 26.8125 6.890625 
Q 36.078125 6.890625 40.9375 10.546875 
Q 45.796875 14.203125 45.796875 21.1875 
Q 45.796875 27.640625 41.28125 31.265625 
Q 36.765625 34.90625 28.71875 34.90625 
L 20.21875 34.90625 
L 20.21875 43.015625 
L 29.109375 43.015625 
Q 36.375 43.015625 40.234375 45.921875 
Q 44.09375 48.828125 44.09375 54.296875 
Q 44.09375 59.90625 40.109375 62.90625 
Q 36.140625 65.921875 28.71875 65.921875 
Q 24.65625 65.921875 20.015625 65.03125 
Q 15.375 64.15625 9.8125 62.3125 
L 9.8125 71.09375 
Q 15.4375 72.65625 20.34375 73.4375 
Q 25.25 74.21875 29.59375 74.21875 
Q 40.828125 74.21875 47.359375 69.109375 
Q 53.90625 64.015625 53.90625 55.328125 
Q 53.90625 49.265625 50.4375 45.09375 
Q 46.96875 40.921875 40.578125 39.3125 
z
" id="DejaVuSans-51"/>
     </defs>
     <use xlink:href="#DejaVuSans-51"/>
     <use x="63.623047" xlink:href="#DejaVuSans-48"/>
     <use x="127.246094" xlink:href="#DejaVuSans-44"/>
     <use x="159.033203" xlink:href="#DejaVuSans-32"/>
     <use x="190.820312" xlink:href="#DejaVuSans-49"/>
     <use x="254.443359" xlink:href="#DejaVuSans-53"/>
     <use x="318.066406" xlink:href="#DejaVuSans-32"/>
     <use x="349.853516" xlink:href="#DejaVuSans-105"/>
     <use x="377.636719" xlink:href="#DejaVuSans-110"/>
     <use x="441.015625" xlink:href="#DejaVuSans-115"/>
     <use x="493.115234" xlink:href="#DejaVuSans-116"/>
     <use x="532.324219" xlink:href="#DejaVuSans-97"/>
     <use x="593.603516" xlink:href="#DejaVuSans-110"/>
     <use x="656.982422" xlink:href="#DejaVuSans-99"/>
     <use x="711.962891" xlink:href="#DejaVuSans-101"/>
     <use x="773.486328" xlink:href="#DejaVuSans-115"/>
    </g>
   </g>
   <g id="text_18">
    <!-- v5z33 -->
    <g style="fill:#808080;" transform="translate(183.016656 294.151352)scale(0.1 -0.1)">
     <defs>
      <path d="M 5.515625 54.6875 
L 48.1875 54.6875 
L 48.1875 46.484375 
L 14.40625 7.171875 
L 48.1875 7.171875 
L 48.1875 0 
L 4.296875 0 
L 4.296875 8.203125 
L 38.09375 47.515625 
L 5.515625 47.515625 
z
" id="DejaVuSans-122"/>
     </defs>
     <use xlink:href="#DejaVuSans-118"/>
     <use x="59.179688" xlink:href="#DejaVuSans-53"/>
     <use x="122.802734" xlink:href="#DejaVuSans-122"/>
     <use x="175.292969" xlink:href="#DejaVuSans-51"/>
     <use x="238.916016" xlink:href="#DejaVuSans-51"/>
    </g>
   </g>
   <g id="text_19">
    <!-- 8 Sep. Ellipsoid, 2 constraints -->
    <g transform="translate(50.47525 21.648)scale(0.2 -0.2)">
     <defs>
      <path d="M 53.515625 70.515625 
L 53.515625 60.890625 
Q 47.90625 63.578125 42.921875 64.890625 
Q 37.9375 66.21875 33.296875 66.21875 
Q 25.25 66.21875 20.875 63.09375 
Q 16.5 59.96875 16.5 54.203125 
Q 16.5 49.359375 19.40625 46.890625 
Q 22.3125 44.4375 30.421875 42.921875 
L 36.375 41.703125 
Q 47.40625 39.59375 52.65625 34.296875 
Q 57.90625 29 57.90625 20.125 
Q 57.90625 9.515625 50.796875 4.046875 
Q 43.703125 -1.421875 29.984375 -1.421875 
Q 24.8125 -1.421875 18.96875 -0.25 
Q 13.140625 0.921875 6.890625 3.21875 
L 6.890625 13.375 
Q 12.890625 10.015625 18.65625 8.296875 
Q 24.421875 6.59375 29.984375 6.59375 
Q 38.421875 6.59375 43.015625 9.90625 
Q 47.609375 13.234375 47.609375 19.390625 
Q 47.609375 24.75 44.3125 27.78125 
Q 41.015625 30.8125 33.5 32.328125 
L 27.484375 33.5 
Q 16.453125 35.6875 11.515625 40.375 
Q 6.59375 45.0625 6.59375 53.421875 
Q 6.59375 63.09375 13.40625 68.65625 
Q 20.21875 74.21875 32.171875 74.21875 
Q 37.3125 74.21875 42.625 73.28125 
Q 47.953125 72.359375 53.515625 70.515625 
z
" id="DejaVuSans-83"/>
      <path d="M 9.8125 72.90625 
L 55.90625 72.90625 
L 55.90625 64.59375 
L 19.671875 64.59375 
L 19.671875 43.015625 
L 54.390625 43.015625 
L 54.390625 34.71875 
L 19.671875 34.71875 
L 19.671875 8.296875 
L 56.78125 8.296875 
L 56.78125 0 
L 9.8125 0 
z
" id="DejaVuSans-69"/>
     </defs>
     <use xlink:href="#DejaVuSans-56"/>
     <use x="63.623047" xlink:href="#DejaVuSans-32"/>
     <use x="95.410156" xlink:href="#DejaVuSans-83"/>
     <use x="158.886719" xlink:href="#DejaVuSans-101"/>
     <use x="220.410156" xlink:href="#DejaVuSans-112"/>
     <use x="283.886719" xlink:href="#DejaVuSans-46"/>
     <use x="315.673828" xlink:href="#DejaVuSans-32"/>
     <use x="347.460938" xlink:href="#DejaVuSans-69"/>
     <use x="410.644531" xlink:href="#DejaVuSans-108"/>
     <use x="438.427734" xlink:href="#DejaVuSans-108"/>
     <use x="466.210938" xlink:href="#DejaVuSans-105"/>
     <use x="493.994141" xlink:href="#DejaVuSans-112"/>
     <use x="557.470703" xlink:href="#DejaVuSans-115"/>
     <use x="609.570312" xlink:href="#DejaVuSans-111"/>
     <use x="670.751953" xlink:href="#DejaVuSans-105"/>
     <use x="698.535156" xlink:href="#DejaVuSans-100"/>
     <use x="762.011719" xlink:href="#DejaVuSans-44"/>
     <use x="793.798828" xlink:href="#DejaVuSans-32"/>
     <use x="825.585938" xlink:href="#DejaVuSans-50"/>
     <use x="889.208984" xlink:href="#DejaVuSans-32"/>
     <use x="920.996094" xlink:href="#DejaVuSans-99"/>
     <use x="975.976562" xlink:href="#DejaVuSans-111"/>
     <use x="1037.158203" xlink:href="#DejaVuSans-110"/>
     <use x="1100.537109" xlink:href="#DejaVuSans-115"/>
     <use x="1152.636719" xlink:href="#DejaVuSans-116"/>
     <use x="1191.845703" xlink:href="#DejaVuSans-114"/>
     <use x="1232.958984" xlink:href="#DejaVuSans-97"/>
     <use x="1294.238281" xlink:href="#DejaVuSans-105"/>
     <use x="1322.021484" xlink:href="#DejaVuSans-110"/>
     <use x="1385.400391" xlink:href="#DejaVuSans-116"/>
     <use x="1424.609375" xlink:href="#DejaVuSans-115"/>
    </g>
   </g>
  </g>
 </g>
 <defs>
  <clipPath id="p56c2b66f0b">
   <rect height="271.296" width="281.088" x="57.6" y="27.648"/>
  </clipPath>
 </defs>
</svg>
