<?xml version="1.0" encoding="utf-8" standalone="no"?>
<!DOCTYPE svg PUBLIC "-//W3C//DTD SVG 1.1//EN"
  "http://www.w3.org/Graphics/SVG/1.1/DTD/svg11.dtd">
<!-- Created with matplotlib (https://matplotlib.org/) -->
<svg height="345.6pt" version="1.1" viewBox="0 0 460.8 345.6" width="460.8pt" xmlns="http://www.w3.org/2000/svg" xmlns:xlink="http://www.w3.org/1999/xlink">
 <metadata>
  <rdf:RDF xmlns:cc="http://creativecommons.org/ns#" xmlns:dc="http://purl.org/dc/elements/1.1/" xmlns:rdf="http://www.w3.org/1999/02/22-rdf-syntax-ns#">
   <cc:Work>
    <dc:type rdf:resource="http://purl.org/dc/dcmitype/StillImage"/>
    <dc:date>2021-04-09T10:16:44.505923</dc:date>
    <dc:format>image/svg+xml</dc:format>
    <dc:creator>
     <cc:Agent>
      <dc:title>Matplotlib v3.3.3, https://matplotlib.org/</dc:title>
     </cc:Agent>
    </dc:creator>
   </cc:Work>
  </rdf:RDF>
 </metadata>
 <defs>
  <style type="text/css">*{stroke-linecap:butt;stroke-linejoin:round;}</style>
 </defs>
 <g id="figure_1">
  <g id="patch_1">
   <path d="M 0 345.6 
L 460.8 345.6 
L 460.8 0 
L 0 0 
z
" style="fill:#ffffff;"/>
  </g>
  <g id="axes_1">
   <g id="patch_2">
    <path d="M 57.6 298.944 
L 338.688 298.944 
L 338.688 27.648 
L 57.6 27.648 
z
" style="fill:#ffffff;"/>
   </g>
   <g id="matplotlib.axis_1">
    <g id="xtick_1">
     <g id="line2d_1">
      <path clip-path="url(#p0401fb6367)" d="M 57.6 298.944 
L 57.6 27.648 
" style="fill:none;stroke:#b0b0b0;stroke-linecap:square;stroke-width:0.8;"/>
     </g>
     <g id="line2d_2">
      <defs>
       <path d="M 0 0 
L 0 3.5 
" id="me14984c1ec" style="stroke:#000000;stroke-width:0.8;"/>
      </defs>
      <g>
       <use style="stroke:#000000;stroke-width:0.8;" x="57.6" xlink:href="#me14984c1ec" y="298.944"/>
      </g>
     </g>
     <g id="text_1">
      <!-- 0 -->
      <g transform="translate(51.2375 321.140875)scale(0.2 -0.2)">
       <defs>
        <path d="M 31.78125 66.40625 
Q 24.171875 66.40625 20.328125 58.90625 
Q 16.5 51.421875 16.5 36.375 
Q 16.5 21.390625 20.328125 13.890625 
Q 24.171875 6.390625 31.78125 6.390625 
Q 39.453125 6.390625 43.28125 13.890625 
Q 47.125 21.390625 47.125 36.375 
Q 47.125 51.421875 43.28125 58.90625 
Q 39.453125 66.40625 31.78125 66.40625 
z
M 31.78125 74.21875 
Q 44.046875 74.21875 50.515625 64.515625 
Q 56.984375 54.828125 56.984375 36.375 
Q 56.984375 17.96875 50.515625 8.265625 
Q 44.046875 -1.421875 31.78125 -1.421875 
Q 19.53125 -1.421875 13.0625 8.265625 
Q 6.59375 17.96875 6.59375 36.375 
Q 6.59375 54.828125 13.0625 64.515625 
Q 19.53125 74.21875 31.78125 74.21875 
z
" id="DejaVuSans-48"/>
       </defs>
       <use xlink:href="#DejaVuSans-48"/>
      </g>
     </g>
    </g>
    <g id="xtick_2">
     <g id="line2d_3">
      <path clip-path="url(#p0401fb6367)" d="M 137.910857 298.944 
L 137.910857 27.648 
" style="fill:none;stroke:#b0b0b0;stroke-linecap:square;stroke-width:0.8;"/>
     </g>
     <g id="line2d_4">
      <g>
       <use style="stroke:#000000;stroke-width:0.8;" x="137.910857" xlink:href="#me14984c1ec" y="298.944"/>
      </g>
     </g>
     <g id="text_2">
      <!-- 2 -->
      <g transform="translate(131.548357 321.140875)scale(0.2 -0.2)">
       <defs>
        <path d="M 19.1875 8.296875 
L 53.609375 8.296875 
L 53.609375 0 
L 7.328125 0 
L 7.328125 8.296875 
Q 12.9375 14.109375 22.625 23.890625 
Q 32.328125 33.6875 34.8125 36.53125 
Q 39.546875 41.84375 41.421875 45.53125 
Q 43.3125 49.21875 43.3125 52.78125 
Q 43.3125 58.59375 39.234375 62.25 
Q 35.15625 65.921875 28.609375 65.921875 
Q 23.96875 65.921875 18.8125 64.3125 
Q 13.671875 62.703125 7.8125 59.421875 
L 7.8125 69.390625 
Q 13.765625 71.78125 18.9375 73 
Q 24.125 74.21875 28.421875 74.21875 
Q 39.75 74.21875 46.484375 68.546875 
Q 53.21875 62.890625 53.21875 53.421875 
Q 53.21875 48.921875 51.53125 44.890625 
Q 49.859375 40.875 45.40625 35.40625 
Q 44.1875 33.984375 37.640625 27.21875 
Q 31.109375 20.453125 19.1875 8.296875 
z
" id="DejaVuSans-50"/>
       </defs>
       <use xlink:href="#DejaVuSans-50"/>
      </g>
     </g>
    </g>
    <g id="xtick_3">
     <g id="line2d_5">
      <path clip-path="url(#p0401fb6367)" d="M 218.221714 298.944 
L 218.221714 27.648 
" style="fill:none;stroke:#b0b0b0;stroke-linecap:square;stroke-width:0.8;"/>
     </g>
     <g id="line2d_6">
      <g>
       <use style="stroke:#000000;stroke-width:0.8;" x="218.221714" xlink:href="#me14984c1ec" y="298.944"/>
      </g>
     </g>
     <g id="text_3">
      <!-- 4 -->
      <g transform="translate(211.859214 321.140875)scale(0.2 -0.2)">
       <defs>
        <path d="M 37.796875 64.3125 
L 12.890625 25.390625 
L 37.796875 25.390625 
z
M 35.203125 72.90625 
L 47.609375 72.90625 
L 47.609375 25.390625 
L 58.015625 25.390625 
L 58.015625 17.1875 
L 47.609375 17.1875 
L 47.609375 0 
L 37.796875 0 
L 37.796875 17.1875 
L 4.890625 17.1875 
L 4.890625 26.703125 
z
" id="DejaVuSans-52"/>
       </defs>
       <use xlink:href="#DejaVuSans-52"/>
      </g>
     </g>
    </g>
    <g id="xtick_4">
     <g id="line2d_7">
      <path clip-path="url(#p0401fb6367)" d="M 298.532571 298.944 
L 298.532571 27.648 
" style="fill:none;stroke:#b0b0b0;stroke-linecap:square;stroke-width:0.8;"/>
     </g>
     <g id="line2d_8">
      <g>
       <use style="stroke:#000000;stroke-width:0.8;" x="298.532571" xlink:href="#me14984c1ec" y="298.944"/>
      </g>
     </g>
     <g id="text_4">
      <!-- 6 -->
      <g transform="translate(292.170071 321.140875)scale(0.2 -0.2)">
       <defs>
        <path d="M 33.015625 40.375 
Q 26.375 40.375 22.484375 35.828125 
Q 18.609375 31.296875 18.609375 23.390625 
Q 18.609375 15.53125 22.484375 10.953125 
Q 26.375 6.390625 33.015625 6.390625 
Q 39.65625 6.390625 43.53125 10.953125 
Q 47.40625 15.53125 47.40625 23.390625 
Q 47.40625 31.296875 43.53125 35.828125 
Q 39.65625 40.375 33.015625 40.375 
z
M 52.59375 71.296875 
L 52.59375 62.3125 
Q 48.875 64.0625 45.09375 64.984375 
Q 41.3125 65.921875 37.59375 65.921875 
Q 27.828125 65.921875 22.671875 59.328125 
Q 17.53125 52.734375 16.796875 39.40625 
Q 19.671875 43.65625 24.015625 45.921875 
Q 28.375 48.1875 33.59375 48.1875 
Q 44.578125 48.1875 50.953125 41.515625 
Q 57.328125 34.859375 57.328125 23.390625 
Q 57.328125 12.15625 50.6875 5.359375 
Q 44.046875 -1.421875 33.015625 -1.421875 
Q 20.359375 -1.421875 13.671875 8.265625 
Q 6.984375 17.96875 6.984375 36.375 
Q 6.984375 53.65625 15.1875 63.9375 
Q 23.390625 74.21875 37.203125 74.21875 
Q 40.921875 74.21875 44.703125 73.484375 
Q 48.484375 72.75 52.59375 71.296875 
z
" id="DejaVuSans-54"/>
       </defs>
       <use xlink:href="#DejaVuSans-54"/>
      </g>
     </g>
    </g>
    <g id="xtick_5">
     <g id="line2d_9">
      <path clip-path="url(#p0401fb6367)" d="M 97.755429 298.944 
L 97.755429 27.648 
" style="fill:none;stroke:#b0b0b0;stroke-linecap:square;stroke-width:0.8;"/>
     </g>
     <g id="line2d_10">
      <defs>
       <path d="M 0 0 
L 0 2 
" id="m2cf439b803" style="stroke:#000000;stroke-width:0.6;"/>
      </defs>
      <g>
       <use style="stroke:#000000;stroke-width:0.6;" x="97.755429" xlink:href="#m2cf439b803" y="298.944"/>
      </g>
     </g>
    </g>
    <g id="xtick_6">
     <g id="line2d_11">
      <path clip-path="url(#p0401fb6367)" d="M 178.066286 298.944 
L 178.066286 27.648 
" style="fill:none;stroke:#b0b0b0;stroke-linecap:square;stroke-width:0.8;"/>
     </g>
     <g id="line2d_12">
      <g>
       <use style="stroke:#000000;stroke-width:0.6;" x="178.066286" xlink:href="#m2cf439b803" y="298.944"/>
      </g>
     </g>
    </g>
    <g id="xtick_7">
     <g id="line2d_13">
      <path clip-path="url(#p0401fb6367)" d="M 258.377143 298.944 
L 258.377143 27.648 
" style="fill:none;stroke:#b0b0b0;stroke-linecap:square;stroke-width:0.8;"/>
     </g>
     <g id="line2d_14">
      <g>
       <use style="stroke:#000000;stroke-width:0.6;" x="258.377143" xlink:href="#m2cf439b803" y="298.944"/>
      </g>
     </g>
    </g>
    <g id="xtick_8">
     <g id="line2d_15">
      <path clip-path="url(#p0401fb6367)" d="M 338.688 298.944 
L 338.688 27.648 
" style="fill:none;stroke:#b0b0b0;stroke-linecap:square;stroke-width:0.8;"/>
     </g>
     <g id="line2d_16">
      <g>
       <use style="stroke:#000000;stroke-width:0.6;" x="338.688" xlink:href="#m2cf439b803" y="298.944"/>
      </g>
     </g>
    </g>
    <g id="text_5">
     <!-- log10(# (f+g)-evals / dimension) -->
     <g transform="translate(58.145016 342.217594)scale(0.17 -0.17)">
      <defs>
       <path d="M 9.421875 75.984375 
L 18.40625 75.984375 
L 18.40625 0 
L 9.421875 0 
z
" id="DejaVuSans-108"/>
       <path d="M 30.609375 48.390625 
Q 23.390625 48.390625 19.1875 42.75 
Q 14.984375 37.109375 14.984375 27.296875 
Q 14.984375 17.484375 19.15625 11.84375 
Q 23.34375 6.203125 30.609375 6.203125 
Q 37.796875 6.203125 41.984375 11.859375 
Q 46.1875 17.53125 46.1875 27.296875 
Q 46.1875 37.015625 41.984375 42.703125 
Q 37.796875 48.390625 30.609375 48.390625 
z
M 30.609375 56 
Q 42.328125 56 49.015625 48.375 
Q 55.71875 40.765625 55.71875 27.296875 
Q 55.71875 13.875 49.015625 6.21875 
Q 42.328125 -1.421875 30.609375 -1.421875 
Q 18.84375 -1.421875 12.171875 6.21875 
Q 5.515625 13.875 5.515625 27.296875 
Q 5.515625 40.765625 12.171875 48.375 
Q 18.84375 56 30.609375 56 
z
" id="DejaVuSans-111"/>
       <path d="M 45.40625 27.984375 
Q 45.40625 37.75 41.375 43.109375 
Q 37.359375 48.484375 30.078125 48.484375 
Q 22.859375 48.484375 18.828125 43.109375 
Q 14.796875 37.75 14.796875 27.984375 
Q 14.796875 18.265625 18.828125 12.890625 
Q 22.859375 7.515625 30.078125 7.515625 
Q 37.359375 7.515625 41.375 12.890625 
Q 45.40625 18.265625 45.40625 27.984375 
z
M 54.390625 6.78125 
Q 54.390625 -7.171875 48.1875 -13.984375 
Q 42 -20.796875 29.203125 -20.796875 
Q 24.46875 -20.796875 20.265625 -20.09375 
Q 16.0625 -19.390625 12.109375 -17.921875 
L 12.109375 -9.1875 
Q 16.0625 -11.328125 19.921875 -12.34375 
Q 23.78125 -13.375 27.78125 -13.375 
Q 36.625 -13.375 41.015625 -8.765625 
Q 45.40625 -4.15625 45.40625 5.171875 
L 45.40625 9.625 
Q 42.625 4.78125 38.28125 2.390625 
Q 33.9375 0 27.875 0 
Q 17.828125 0 11.671875 7.65625 
Q 5.515625 15.328125 5.515625 27.984375 
Q 5.515625 40.671875 11.671875 48.328125 
Q 17.828125 56 27.875 56 
Q 33.9375 56 38.28125 53.609375 
Q 42.625 51.21875 45.40625 46.390625 
L 45.40625 54.6875 
L 54.390625 54.6875 
z
" id="DejaVuSans-103"/>
       <path d="M 12.40625 8.296875 
L 28.515625 8.296875 
L 28.515625 63.921875 
L 10.984375 60.40625 
L 10.984375 69.390625 
L 28.421875 72.90625 
L 38.28125 72.90625 
L 38.28125 8.296875 
L 54.390625 8.296875 
L 54.390625 0 
L 12.40625 0 
z
" id="DejaVuSans-49"/>
       <path d="M 31 75.875 
Q 24.46875 64.65625 21.28125 53.65625 
Q 18.109375 42.671875 18.109375 31.390625 
Q 18.109375 20.125 21.3125 9.0625 
Q 24.515625 -2 31 -13.1875 
L 23.1875 -13.1875 
Q 15.875 -1.703125 12.234375 9.375 
Q 8.59375 20.453125 8.59375 31.390625 
Q 8.59375 42.28125 12.203125 53.3125 
Q 15.828125 64.359375 23.1875 75.875 
z
" id="DejaVuSans-40"/>
       <path d="M 51.125 44 
L 36.921875 44 
L 32.8125 27.6875 
L 47.125 27.6875 
z
M 43.796875 71.78125 
L 38.71875 51.515625 
L 52.984375 51.515625 
L 58.109375 71.78125 
L 65.921875 71.78125 
L 60.890625 51.515625 
L 76.125 51.515625 
L 76.125 44 
L 58.984375 44 
L 54.984375 27.6875 
L 70.515625 27.6875 
L 70.515625 20.21875 
L 53.078125 20.21875 
L 48 0 
L 40.1875 0 
L 45.21875 20.21875 
L 30.90625 20.21875 
L 25.875 0 
L 18.015625 0 
L 23.09375 20.21875 
L 7.71875 20.21875 
L 7.71875 27.6875 
L 24.90625 27.6875 
L 29 44 
L 13.28125 44 
L 13.28125 51.515625 
L 30.90625 51.515625 
L 35.890625 71.78125 
z
" id="DejaVuSans-35"/>
       <path id="DejaVuSans-32"/>
       <path d="M 37.109375 75.984375 
L 37.109375 68.5 
L 28.515625 68.5 
Q 23.6875 68.5 21.796875 66.546875 
Q 19.921875 64.59375 19.921875 59.515625 
L 19.921875 54.6875 
L 34.71875 54.6875 
L 34.71875 47.703125 
L 19.921875 47.703125 
L 19.921875 0 
L 10.890625 0 
L 10.890625 47.703125 
L 2.296875 47.703125 
L 2.296875 54.6875 
L 10.890625 54.6875 
L 10.890625 58.5 
Q 10.890625 67.625 15.140625 71.796875 
Q 19.390625 75.984375 28.609375 75.984375 
z
" id="DejaVuSans-102"/>
       <path d="M 46 62.703125 
L 46 35.5 
L 73.1875 35.5 
L 73.1875 27.203125 
L 46 27.203125 
L 46 0 
L 37.796875 0 
L 37.796875 27.203125 
L 10.59375 27.203125 
L 10.59375 35.5 
L 37.796875 35.5 
L 37.796875 62.703125 
z
" id="DejaVuSans-43"/>
       <path d="M 8.015625 75.875 
L 15.828125 75.875 
Q 23.140625 64.359375 26.78125 53.3125 
Q 30.421875 42.28125 30.421875 31.390625 
Q 30.421875 20.453125 26.78125 9.375 
Q 23.140625 -1.703125 15.828125 -13.1875 
L 8.015625 -13.1875 
Q 14.5 -2 17.703125 9.0625 
Q 20.90625 20.125 20.90625 31.390625 
Q 20.90625 42.671875 17.703125 53.65625 
Q 14.5 64.65625 8.015625 75.875 
z
" id="DejaVuSans-41"/>
       <path d="M 4.890625 31.390625 
L 31.203125 31.390625 
L 31.203125 23.390625 
L 4.890625 23.390625 
z
" id="DejaVuSans-45"/>
       <path d="M 56.203125 29.59375 
L 56.203125 25.203125 
L 14.890625 25.203125 
Q 15.484375 15.921875 20.484375 11.0625 
Q 25.484375 6.203125 34.421875 6.203125 
Q 39.59375 6.203125 44.453125 7.46875 
Q 49.3125 8.734375 54.109375 11.28125 
L 54.109375 2.78125 
Q 49.265625 0.734375 44.1875 -0.34375 
Q 39.109375 -1.421875 33.890625 -1.421875 
Q 20.796875 -1.421875 13.15625 6.1875 
Q 5.515625 13.8125 5.515625 26.8125 
Q 5.515625 40.234375 12.765625 48.109375 
Q 20.015625 56 32.328125 56 
Q 43.359375 56 49.78125 48.890625 
Q 56.203125 41.796875 56.203125 29.59375 
z
M 47.21875 32.234375 
Q 47.125 39.59375 43.09375 43.984375 
Q 39.0625 48.390625 32.421875 48.390625 
Q 24.90625 48.390625 20.390625 44.140625 
Q 15.875 39.890625 15.1875 32.171875 
z
" id="DejaVuSans-101"/>
       <path d="M 2.984375 54.6875 
L 12.5 54.6875 
L 29.59375 8.796875 
L 46.6875 54.6875 
L 56.203125 54.6875 
L 35.6875 0 
L 23.484375 0 
z
" id="DejaVuSans-118"/>
       <path d="M 34.28125 27.484375 
Q 23.390625 27.484375 19.1875 25 
Q 14.984375 22.515625 14.984375 16.5 
Q 14.984375 11.71875 18.140625 8.90625 
Q 21.296875 6.109375 26.703125 6.109375 
Q 34.1875 6.109375 38.703125 11.40625 
Q 43.21875 16.703125 43.21875 25.484375 
L 43.21875 27.484375 
z
M 52.203125 31.203125 
L 52.203125 0 
L 43.21875 0 
L 43.21875 8.296875 
Q 40.140625 3.328125 35.546875 0.953125 
Q 30.953125 -1.421875 24.3125 -1.421875 
Q 15.921875 -1.421875 10.953125 3.296875 
Q 6 8.015625 6 15.921875 
Q 6 25.140625 12.171875 29.828125 
Q 18.359375 34.515625 30.609375 34.515625 
L 43.21875 34.515625 
L 43.21875 35.40625 
Q 43.21875 41.609375 39.140625 45 
Q 35.0625 48.390625 27.6875 48.390625 
Q 23 48.390625 18.546875 47.265625 
Q 14.109375 46.140625 10.015625 43.890625 
L 10.015625 52.203125 
Q 14.9375 54.109375 19.578125 55.046875 
Q 24.21875 56 28.609375 56 
Q 40.484375 56 46.34375 49.84375 
Q 52.203125 43.703125 52.203125 31.203125 
z
" id="DejaVuSans-97"/>
       <path d="M 44.28125 53.078125 
L 44.28125 44.578125 
Q 40.484375 46.53125 36.375 47.5 
Q 32.28125 48.484375 27.875 48.484375 
Q 21.1875 48.484375 17.84375 46.4375 
Q 14.5 44.390625 14.5 40.28125 
Q 14.5 37.15625 16.890625 35.375 
Q 19.28125 33.59375 26.515625 31.984375 
L 29.59375 31.296875 
Q 39.15625 29.25 43.1875 25.515625 
Q 47.21875 21.78125 47.21875 15.09375 
Q 47.21875 7.46875 41.1875 3.015625 
Q 35.15625 -1.421875 24.609375 -1.421875 
Q 20.21875 -1.421875 15.453125 -0.5625 
Q 10.6875 0.296875 5.421875 2 
L 5.421875 11.28125 
Q 10.40625 8.6875 15.234375 7.390625 
Q 20.0625 6.109375 24.8125 6.109375 
Q 31.15625 6.109375 34.5625 8.28125 
Q 37.984375 10.453125 37.984375 14.40625 
Q 37.984375 18.0625 35.515625 20.015625 
Q 33.0625 21.96875 24.703125 23.78125 
L 21.578125 24.515625 
Q 13.234375 26.265625 9.515625 29.90625 
Q 5.8125 33.546875 5.8125 39.890625 
Q 5.8125 47.609375 11.28125 51.796875 
Q 16.75 56 26.8125 56 
Q 31.78125 56 36.171875 55.265625 
Q 40.578125 54.546875 44.28125 53.078125 
z
" id="DejaVuSans-115"/>
       <path d="M 25.390625 72.90625 
L 33.6875 72.90625 
L 8.296875 -9.28125 
L 0 -9.28125 
z
" id="DejaVuSans-47"/>
       <path d="M 45.40625 46.390625 
L 45.40625 75.984375 
L 54.390625 75.984375 
L 54.390625 0 
L 45.40625 0 
L 45.40625 8.203125 
Q 42.578125 3.328125 38.25 0.953125 
Q 33.9375 -1.421875 27.875 -1.421875 
Q 17.96875 -1.421875 11.734375 6.484375 
Q 5.515625 14.40625 5.515625 27.296875 
Q 5.515625 40.1875 11.734375 48.09375 
Q 17.96875 56 27.875 56 
Q 33.9375 56 38.25 53.625 
Q 42.578125 51.265625 45.40625 46.390625 
z
M 14.796875 27.296875 
Q 14.796875 17.390625 18.875 11.75 
Q 22.953125 6.109375 30.078125 6.109375 
Q 37.203125 6.109375 41.296875 11.75 
Q 45.40625 17.390625 45.40625 27.296875 
Q 45.40625 37.203125 41.296875 42.84375 
Q 37.203125 48.484375 30.078125 48.484375 
Q 22.953125 48.484375 18.875 42.84375 
Q 14.796875 37.203125 14.796875 27.296875 
z
" id="DejaVuSans-100"/>
       <path d="M 9.421875 54.6875 
L 18.40625 54.6875 
L 18.40625 0 
L 9.421875 0 
z
M 9.421875 75.984375 
L 18.40625 75.984375 
L 18.40625 64.59375 
L 9.421875 64.59375 
z
" id="DejaVuSans-105"/>
       <path d="M 52 44.1875 
Q 55.375 50.25 60.0625 53.125 
Q 64.75 56 71.09375 56 
Q 79.640625 56 84.28125 50.015625 
Q 88.921875 44.046875 88.921875 33.015625 
L 88.921875 0 
L 79.890625 0 
L 79.890625 32.71875 
Q 79.890625 40.578125 77.09375 44.375 
Q 74.3125 48.1875 68.609375 48.1875 
Q 61.625 48.1875 57.5625 43.546875 
Q 53.515625 38.921875 53.515625 30.90625 
L 53.515625 0 
L 44.484375 0 
L 44.484375 32.71875 
Q 44.484375 40.625 41.703125 44.40625 
Q 38.921875 48.1875 33.109375 48.1875 
Q 26.21875 48.1875 22.15625 43.53125 
Q 18.109375 38.875 18.109375 30.90625 
L 18.109375 0 
L 9.078125 0 
L 9.078125 54.6875 
L 18.109375 54.6875 
L 18.109375 46.1875 
Q 21.1875 51.21875 25.484375 53.609375 
Q 29.78125 56 35.6875 56 
Q 41.65625 56 45.828125 52.96875 
Q 50 49.953125 52 44.1875 
z
" id="DejaVuSans-109"/>
       <path d="M 54.890625 33.015625 
L 54.890625 0 
L 45.90625 0 
L 45.90625 32.71875 
Q 45.90625 40.484375 42.875 44.328125 
Q 39.84375 48.1875 33.796875 48.1875 
Q 26.515625 48.1875 22.3125 43.546875 
Q 18.109375 38.921875 18.109375 30.90625 
L 18.109375 0 
L 9.078125 0 
L 9.078125 54.6875 
L 18.109375 54.6875 
L 18.109375 46.1875 
Q 21.34375 51.125 25.703125 53.5625 
Q 30.078125 56 35.796875 56 
Q 45.21875 56 50.046875 50.171875 
Q 54.890625 44.34375 54.890625 33.015625 
z
" id="DejaVuSans-110"/>
      </defs>
      <use xlink:href="#DejaVuSans-108"/>
      <use x="27.783203" xlink:href="#DejaVuSans-111"/>
      <use x="88.964844" xlink:href="#DejaVuSans-103"/>
      <use x="152.441406" xlink:href="#DejaVuSans-49"/>
      <use x="216.064453" xlink:href="#DejaVuSans-48"/>
      <use x="279.6875" xlink:href="#DejaVuSans-40"/>
      <use x="318.701172" xlink:href="#DejaVuSans-35"/>
      <use x="402.490234" xlink:href="#DejaVuSans-32"/>
      <use x="434.277344" xlink:href="#DejaVuSans-40"/>
      <use x="473.291016" xlink:href="#DejaVuSans-102"/>
      <use x="508.496094" xlink:href="#DejaVuSans-43"/>
      <use x="592.285156" xlink:href="#DejaVuSans-103"/>
      <use x="655.761719" xlink:href="#DejaVuSans-41"/>
      <use x="694.775391" xlink:href="#DejaVuSans-45"/>
      <use x="730.859375" xlink:href="#DejaVuSans-101"/>
      <use x="792.382812" xlink:href="#DejaVuSans-118"/>
      <use x="851.5625" xlink:href="#DejaVuSans-97"/>
      <use x="912.841797" xlink:href="#DejaVuSans-108"/>
      <use x="940.625" xlink:href="#DejaVuSans-115"/>
      <use x="992.724609" xlink:href="#DejaVuSans-32"/>
      <use x="1024.511719" xlink:href="#DejaVuSans-47"/>
      <use x="1058.203125" xlink:href="#DejaVuSans-32"/>
      <use x="1089.990234" xlink:href="#DejaVuSans-100"/>
      <use x="1153.466797" xlink:href="#DejaVuSans-105"/>
      <use x="1181.25" xlink:href="#DejaVuSans-109"/>
      <use x="1278.662109" xlink:href="#DejaVuSans-101"/>
      <use x="1340.185547" xlink:href="#DejaVuSans-110"/>
      <use x="1403.564453" xlink:href="#DejaVuSans-115"/>
      <use x="1455.664062" xlink:href="#DejaVuSans-105"/>
      <use x="1483.447266" xlink:href="#DejaVuSans-111"/>
      <use x="1544.628906" xlink:href="#DejaVuSans-110"/>
      <use x="1608.007812" xlink:href="#DejaVuSans-41"/>
     </g>
    </g>
   </g>
   <g id="matplotlib.axis_2">
    <g id="ytick_1">
     <g id="line2d_17">
      <path clip-path="url(#p0401fb6367)" d="M 57.6 298.944 
L 338.688 298.944 
" style="fill:none;stroke:#b0b0b0;stroke-linecap:square;stroke-width:0.8;"/>
     </g>
     <g id="line2d_18">
      <defs>
       <path d="M 0 0 
L -3.5 0 
" id="mde83a3a0fd" style="stroke:#000000;stroke-width:0.8;"/>
      </defs>
      <g>
       <use style="stroke:#000000;stroke-width:0.8;" x="57.6" xlink:href="#mde83a3a0fd" y="298.944"/>
      </g>
     </g>
     <g id="text_6">
      <!-- 0.0 -->
      <g transform="translate(25.155 305.02275)scale(0.16 -0.16)">
       <defs>
        <path d="M 10.6875 12.40625 
L 21 12.40625 
L 21 0 
L 10.6875 0 
z
" id="DejaVuSans-46"/>
       </defs>
       <use xlink:href="#DejaVuSans-48"/>
       <use x="63.623047" xlink:href="#DejaVuSans-46"/>
       <use x="95.410156" xlink:href="#DejaVuSans-48"/>
      </g>
     </g>
    </g>
    <g id="ytick_2">
     <g id="line2d_19">
      <path clip-path="url(#p0401fb6367)" d="M 57.6 245.22202 
L 338.688 245.22202 
" style="fill:none;stroke:#b0b0b0;stroke-linecap:square;stroke-width:0.8;"/>
     </g>
     <g id="line2d_20">
      <g>
       <use style="stroke:#000000;stroke-width:0.8;" x="57.6" xlink:href="#mde83a3a0fd" y="245.22202"/>
      </g>
     </g>
     <g id="text_7">
      <!-- 0.2 -->
      <g transform="translate(25.155 251.30077)scale(0.16 -0.16)">
       <use xlink:href="#DejaVuSans-48"/>
       <use x="63.623047" xlink:href="#DejaVuSans-46"/>
       <use x="95.410156" xlink:href="#DejaVuSans-50"/>
      </g>
     </g>
    </g>
    <g id="ytick_3">
     <g id="line2d_21">
      <path clip-path="url(#p0401fb6367)" d="M 57.6 191.50004 
L 338.688 191.50004 
" style="fill:none;stroke:#b0b0b0;stroke-linecap:square;stroke-width:0.8;"/>
     </g>
     <g id="line2d_22">
      <g>
       <use style="stroke:#000000;stroke-width:0.8;" x="57.6" xlink:href="#mde83a3a0fd" y="191.50004"/>
      </g>
     </g>
     <g id="text_8">
      <!-- 0.4 -->
      <g transform="translate(25.155 197.57879)scale(0.16 -0.16)">
       <use xlink:href="#DejaVuSans-48"/>
       <use x="63.623047" xlink:href="#DejaVuSans-46"/>
       <use x="95.410156" xlink:href="#DejaVuSans-52"/>
      </g>
     </g>
    </g>
    <g id="ytick_4">
     <g id="line2d_23">
      <path clip-path="url(#p0401fb6367)" d="M 57.6 137.778059 
L 338.688 137.778059 
" style="fill:none;stroke:#b0b0b0;stroke-linecap:square;stroke-width:0.8;"/>
     </g>
     <g id="line2d_24">
      <g>
       <use style="stroke:#000000;stroke-width:0.8;" x="57.6" xlink:href="#mde83a3a0fd" y="137.778059"/>
      </g>
     </g>
     <g id="text_9">
      <!-- 0.6 -->
      <g transform="translate(25.155 143.856809)scale(0.16 -0.16)">
       <use xlink:href="#DejaVuSans-48"/>
       <use x="63.623047" xlink:href="#DejaVuSans-46"/>
       <use x="95.410156" xlink:href="#DejaVuSans-54"/>
      </g>
     </g>
    </g>
    <g id="ytick_5">
     <g id="line2d_25">
      <path clip-path="url(#p0401fb6367)" d="M 57.6 84.056079 
L 338.688 84.056079 
" style="fill:none;stroke:#b0b0b0;stroke-linecap:square;stroke-width:0.8;"/>
     </g>
     <g id="line2d_26">
      <g>
       <use style="stroke:#000000;stroke-width:0.8;" x="57.6" xlink:href="#mde83a3a0fd" y="84.056079"/>
      </g>
     </g>
     <g id="text_10">
      <!-- 0.8 -->
      <g transform="translate(25.155 90.134829)scale(0.16 -0.16)">
       <defs>
        <path d="M 31.78125 34.625 
Q 24.75 34.625 20.71875 30.859375 
Q 16.703125 27.09375 16.703125 20.515625 
Q 16.703125 13.921875 20.71875 10.15625 
Q 24.75 6.390625 31.78125 6.390625 
Q 38.8125 6.390625 42.859375 10.171875 
Q 46.921875 13.96875 46.921875 20.515625 
Q 46.921875 27.09375 42.890625 30.859375 
Q 38.875 34.625 31.78125 34.625 
z
M 21.921875 38.8125 
Q 15.578125 40.375 12.03125 44.71875 
Q 8.5 49.078125 8.5 55.328125 
Q 8.5 64.0625 14.71875 69.140625 
Q 20.953125 74.21875 31.78125 74.21875 
Q 42.671875 74.21875 48.875 69.140625 
Q 55.078125 64.0625 55.078125 55.328125 
Q 55.078125 49.078125 51.53125 44.71875 
Q 48 40.375 41.703125 38.8125 
Q 48.828125 37.15625 52.796875 32.3125 
Q 56.78125 27.484375 56.78125 20.515625 
Q 56.78125 9.90625 50.3125 4.234375 
Q 43.84375 -1.421875 31.78125 -1.421875 
Q 19.734375 -1.421875 13.25 4.234375 
Q 6.78125 9.90625 6.78125 20.515625 
Q 6.78125 27.484375 10.78125 32.3125 
Q 14.796875 37.15625 21.921875 38.8125 
z
M 18.3125 54.390625 
Q 18.3125 48.734375 21.84375 45.5625 
Q 25.390625 42.390625 31.78125 42.390625 
Q 38.140625 42.390625 41.71875 45.5625 
Q 45.3125 48.734375 45.3125 54.390625 
Q 45.3125 60.0625 41.71875 63.234375 
Q 38.140625 66.40625 31.78125 66.40625 
Q 25.390625 66.40625 21.84375 63.234375 
Q 18.3125 60.0625 18.3125 54.390625 
z
" id="DejaVuSans-56"/>
       </defs>
       <use xlink:href="#DejaVuSans-48"/>
       <use x="63.623047" xlink:href="#DejaVuSans-46"/>
       <use x="95.410156" xlink:href="#DejaVuSans-56"/>
      </g>
     </g>
    </g>
    <g id="ytick_6">
     <g id="line2d_27">
      <path clip-path="url(#p0401fb6367)" d="M 57.6 30.334099 
L 338.688 30.334099 
" style="fill:none;stroke:#b0b0b0;stroke-linecap:square;stroke-width:0.8;"/>
     </g>
     <g id="line2d_28">
      <g>
       <use style="stroke:#000000;stroke-width:0.8;" x="57.6" xlink:href="#mde83a3a0fd" y="30.334099"/>
      </g>
     </g>
     <g id="text_11">
      <!-- 1.0 -->
      <g transform="translate(25.155 36.412849)scale(0.16 -0.16)">
       <use xlink:href="#DejaVuSans-49"/>
       <use x="63.623047" xlink:href="#DejaVuSans-46"/>
       <use x="95.410156" xlink:href="#DejaVuSans-48"/>
      </g>
     </g>
    </g>
    <g id="text_12">
     <!-- Fraction of function,target pairs -->
     <g transform="translate(17.619531 297.681)rotate(-90)scale(0.17 -0.17)">
      <defs>
       <path d="M 9.8125 72.90625 
L 51.703125 72.90625 
L 51.703125 64.59375 
L 19.671875 64.59375 
L 19.671875 43.109375 
L 48.578125 43.109375 
L 48.578125 34.8125 
L 19.671875 34.8125 
L 19.671875 0 
L 9.8125 0 
z
" id="DejaVuSans-70"/>
       <path d="M 41.109375 46.296875 
Q 39.59375 47.171875 37.8125 47.578125 
Q 36.03125 48 33.890625 48 
Q 26.265625 48 22.1875 43.046875 
Q 18.109375 38.09375 18.109375 28.8125 
L 18.109375 0 
L 9.078125 0 
L 9.078125 54.6875 
L 18.109375 54.6875 
L 18.109375 46.1875 
Q 20.953125 51.171875 25.484375 53.578125 
Q 30.03125 56 36.53125 56 
Q 37.453125 56 38.578125 55.875 
Q 39.703125 55.765625 41.0625 55.515625 
z
" id="DejaVuSans-114"/>
       <path d="M 48.78125 52.59375 
L 48.78125 44.1875 
Q 44.96875 46.296875 41.140625 47.34375 
Q 37.3125 48.390625 33.40625 48.390625 
Q 24.65625 48.390625 19.8125 42.84375 
Q 14.984375 37.3125 14.984375 27.296875 
Q 14.984375 17.28125 19.8125 11.734375 
Q 24.65625 6.203125 33.40625 6.203125 
Q 37.3125 6.203125 41.140625 7.25 
Q 44.96875 8.296875 48.78125 10.40625 
L 48.78125 2.09375 
Q 45.015625 0.34375 40.984375 -0.53125 
Q 36.96875 -1.421875 32.421875 -1.421875 
Q 20.0625 -1.421875 12.78125 6.34375 
Q 5.515625 14.109375 5.515625 27.296875 
Q 5.515625 40.671875 12.859375 48.328125 
Q 20.21875 56 33.015625 56 
Q 37.15625 56 41.109375 55.140625 
Q 45.0625 54.296875 48.78125 52.59375 
z
" id="DejaVuSans-99"/>
       <path d="M 18.3125 70.21875 
L 18.3125 54.6875 
L 36.8125 54.6875 
L 36.8125 47.703125 
L 18.3125 47.703125 
L 18.3125 18.015625 
Q 18.3125 11.328125 20.140625 9.421875 
Q 21.96875 7.515625 27.59375 7.515625 
L 36.8125 7.515625 
L 36.8125 0 
L 27.59375 0 
Q 17.1875 0 13.234375 3.875 
Q 9.28125 7.765625 9.28125 18.015625 
L 9.28125 47.703125 
L 2.6875 47.703125 
L 2.6875 54.6875 
L 9.28125 54.6875 
L 9.28125 70.21875 
z
" id="DejaVuSans-116"/>
       <path d="M 8.5 21.578125 
L 8.5 54.6875 
L 17.484375 54.6875 
L 17.484375 21.921875 
Q 17.484375 14.15625 20.5 10.265625 
Q 23.53125 6.390625 29.59375 6.390625 
Q 36.859375 6.390625 41.078125 11.03125 
Q 45.3125 15.671875 45.3125 23.6875 
L 45.3125 54.6875 
L 54.296875 54.6875 
L 54.296875 0 
L 45.3125 0 
L 45.3125 8.40625 
Q 42.046875 3.421875 37.71875 1 
Q 33.40625 -1.421875 27.6875 -1.421875 
Q 18.265625 -1.421875 13.375 4.4375 
Q 8.5 10.296875 8.5 21.578125 
z
M 31.109375 56 
z
" id="DejaVuSans-117"/>
       <path d="M 11.71875 12.40625 
L 22.015625 12.40625 
L 22.015625 4 
L 14.015625 -11.625 
L 7.71875 -11.625 
L 11.71875 4 
z
" id="DejaVuSans-44"/>
       <path d="M 18.109375 8.203125 
L 18.109375 -20.796875 
L 9.078125 -20.796875 
L 9.078125 54.6875 
L 18.109375 54.6875 
L 18.109375 46.390625 
Q 20.953125 51.265625 25.265625 53.625 
Q 29.59375 56 35.59375 56 
Q 45.5625 56 51.78125 48.09375 
Q 58.015625 40.1875 58.015625 27.296875 
Q 58.015625 14.40625 51.78125 6.484375 
Q 45.5625 -1.421875 35.59375 -1.421875 
Q 29.59375 -1.421875 25.265625 0.953125 
Q 20.953125 3.328125 18.109375 8.203125 
z
M 48.6875 27.296875 
Q 48.6875 37.203125 44.609375 42.84375 
Q 40.53125 48.484375 33.40625 48.484375 
Q 26.265625 48.484375 22.1875 42.84375 
Q 18.109375 37.203125 18.109375 27.296875 
Q 18.109375 17.390625 22.1875 11.75 
Q 26.265625 6.109375 33.40625 6.109375 
Q 40.53125 6.109375 44.609375 11.75 
Q 48.6875 17.390625 48.6875 27.296875 
z
" id="DejaVuSans-112"/>
      </defs>
      <use xlink:href="#DejaVuSans-70"/>
      <use x="50.269531" xlink:href="#DejaVuSans-114"/>
      <use x="91.382812" xlink:href="#DejaVuSans-97"/>
      <use x="152.662109" xlink:href="#DejaVuSans-99"/>
      <use x="207.642578" xlink:href="#DejaVuSans-116"/>
      <use x="246.851562" xlink:href="#DejaVuSans-105"/>
      <use x="274.634766" xlink:href="#DejaVuSans-111"/>
      <use x="335.816406" xlink:href="#DejaVuSans-110"/>
      <use x="399.195312" xlink:href="#DejaVuSans-32"/>
      <use x="430.982422" xlink:href="#DejaVuSans-111"/>
      <use x="492.164062" xlink:href="#DejaVuSans-102"/>
      <use x="527.369141" xlink:href="#DejaVuSans-32"/>
      <use x="559.15625" xlink:href="#DejaVuSans-102"/>
      <use x="594.361328" xlink:href="#DejaVuSans-117"/>
      <use x="657.740234" xlink:href="#DejaVuSans-110"/>
      <use x="721.119141" xlink:href="#DejaVuSans-99"/>
      <use x="776.099609" xlink:href="#DejaVuSans-116"/>
      <use x="815.308594" xlink:href="#DejaVuSans-105"/>
      <use x="843.091797" xlink:href="#DejaVuSans-111"/>
      <use x="904.273438" xlink:href="#DejaVuSans-110"/>
      <use x="967.652344" xlink:href="#DejaVuSans-44"/>
      <use x="999.439453" xlink:href="#DejaVuSans-116"/>
      <use x="1038.648438" xlink:href="#DejaVuSans-97"/>
      <use x="1099.927734" xlink:href="#DejaVuSans-114"/>
      <use x="1139.291016" xlink:href="#DejaVuSans-103"/>
      <use x="1202.767578" xlink:href="#DejaVuSans-101"/>
      <use x="1264.291016" xlink:href="#DejaVuSans-116"/>
      <use x="1303.5" xlink:href="#DejaVuSans-32"/>
      <use x="1335.287109" xlink:href="#DejaVuSans-112"/>
      <use x="1398.763672" xlink:href="#DejaVuSans-97"/>
      <use x="1460.042969" xlink:href="#DejaVuSans-105"/>
      <use x="1487.826172" xlink:href="#DejaVuSans-114"/>
      <use x="1528.939453" xlink:href="#DejaVuSans-115"/>
     </g>
    </g>
   </g>
   <g id="line2d_29">
    <defs>
     <path d="M 0 1.5 
C 0.397805 1.5 0.77937 1.341951 1.06066 1.06066 
C 1.341951 0.77937 1.5 0.397805 1.5 0 
C 1.5 -0.397805 1.341951 -0.77937 1.06066 -1.06066 
C 0.77937 -1.341951 0.397805 -1.5 0 -1.5 
C -0.397805 -1.5 -0.77937 -1.341951 -1.06066 -1.06066 
C -1.341951 -0.77937 -1.5 -0.397805 -1.5 0 
C -1.5 0.397805 -1.341951 0.77937 -1.06066 1.06066 
C -0.77937 1.341951 -0.397805 1.5 0 1.5 
z
" id="m25849fc44a" style="stroke:#000080;"/>
    </defs>
    <g>
     <use style="fill:#000080;stroke:#000080;" x="236.825248" xlink:href="#m25849fc44a" y="30.334099"/>
     <use style="fill:#000080;stroke:#000080;" x="236.825248" xlink:href="#m25849fc44a" y="30.334099"/>
    </g>
   </g>
   <g id="line2d_30">
    <path d="M 76.759008 298.944 
L 76.759008 297.633708 
L 108.948899 297.633708 
L 108.948899 296.978562 
L 111.505558 296.978562 
L 111.505558 295.66827 
L 113.022974 295.66827 
L 113.022974 291.737393 
L 118.039942 291.737393 
L 118.039942 291.082247 
L 118.576578 291.082247 
L 118.576578 290.427101 
L 121.036887 290.427101 
L 121.036887 289.116809 
L 121.931406 289.116809 
L 121.931406 287.15137 
L 122.782271 287.15137 
L 122.782271 286.496224 
L 123.192626 286.496224 
L 123.192626 285.185932 
L 123.985457 285.185932 
L 123.985457 284.530786 
L 125.110962 284.530786 
L 125.110962 282.565348 
L 125.470548 282.565348 
L 125.470548 281.910201 
L 125.822869 281.910201 
L 125.822869 279.944763 
L 126.168212 279.944763 
L 126.168212 279.289617 
L 126.839037 279.289617 
L 126.839037 278.634471 
L 127.48501 278.634471 
L 127.48501 277.979325 
L 127.799239 277.979325 
L 127.799239 276.013887 
L 132.181982 276.013887 
L 132.181982 275.35874 
L 133.124876 275.35874 
L 133.124876 274.703594 
L 133.352844 274.703594 
L 133.352844 274.048448 
L 133.800029 274.048448 
L 133.800029 272.738156 
L 134.019394 272.738156 
L 134.019394 272.08301 
L 134.236034 272.08301 
L 134.236034 271.427864 
L 134.870259 271.427864 
L 134.870259 268.807279 
L 135.076644 268.807279 
L 135.076644 266.841841 
L 135.878591 266.841841 
L 135.878591 266.186695 
L 137.37967 266.186695 
L 137.37967 265.531549 
L 137.735587 265.531549 
L 137.735587 264.876403 
L 139.090775 264.876403 
L 139.090775 264.221257 
L 139.253002 264.221257 
L 139.253002 263.566111 
L 139.572998 263.566111 
L 139.572998 262.910965 
L 139.730821 262.910965 
L 139.730821 262.255818 
L 139.887228 262.255818 
L 139.887228 259.635234 
L 140.348205 259.635234 
L 140.348205 258.980088 
L 141.090414 258.980088 
L 141.090414 255.049211 
L 141.235139 255.049211 
L 141.235139 254.394065 
L 141.521035 254.394065 
L 141.521035 253.738919 
L 142.07914 253.738919 
L 142.07914 252.428627 
L 142.215919 252.428627 
L 142.215919 247.842604 
L 142.752555 247.842604 
L 142.752555 245.22202 
L 142.884173 245.22202 
L 142.884173 243.256582 
L 143.144465 243.256582 
L 143.144465 240.635997 
L 143.273169 240.635997 
L 143.273169 239.325705 
L 143.527762 239.325705 
L 143.527762 238.015413 
L 143.778691 238.015413 
L 143.778691 237.360267 
L 145.097753 237.360267 
L 145.097753 236.049974 
L 145.553708 236.049974 
L 145.553708 234.084536 
L 145.665858 234.084536 
L 145.665858 231.463952 
L 146.107383 231.463952 
L 146.107383 229.498513 
L 146.324022 229.498513 
L 146.431341 226.877929 
L 146.749392 226.877929 
L 146.854132 219.671322 
L 147.164632 219.671322 
L 147.164632 215.085299 
L 147.368603 215.085299 
L 147.368603 214.430153 
L 147.570215 214.430153 
L 147.670154 207.223546 
L 148.064279 207.223546 
L 148.064279 205.913254 
L 148.733265 205.913254 
L 148.733265 205.258108 
L 148.919783 205.258108 
L 148.919783 204.602962 
L 150.429467 204.602962 
L 150.51433 202.637523 
L 150.849711 202.637523 
L 150.849711 200.016939 
L 151.421542 200.016939 
L 151.501723 198.051501 
L 151.975216 198.051501 
L 151.975216 197.396355 
L 152.130233 197.396355 
L 152.130233 196.086062 
L 152.436193 196.086062 
L 152.436193 195.430916 
L 153.032466 195.430916 
L 153.032466 192.810332 
L 153.466662 192.810332 
L 153.466662 192.155186 
L 153.750233 192.155186 
L 153.820412 189.534601 
L 154.507086 189.534601 
L 154.507086 188.879455 
L 154.972161 188.879455 
L 154.972161 188.224309 
L 155.102793 188.224309 
L 155.102793 187.569163 
L 155.296925 187.569163 
L 155.296925 186.914017 
L 155.425155 186.914017 
L 155.488919 184.293433 
L 155.61575 184.293433 
L 155.61575 182.98314 
L 155.86668 182.98314 
L 155.86668 181.672848 
L 155.990803 181.672848 
L 155.990803 179.70741 
L 156.114049 179.70741 
L 156.175347 175.776533 
L 156.598505 175.776533 
L 156.598505 175.121387 
L 156.776762 175.121387 
L 156.776762 173.811095 
L 157.243392 173.811095 
L 157.300853 172.500803 
L 157.528821 172.500803 
L 157.528821 171.190511 
L 157.809652 171.190511 
L 157.809652 169.880218 
L 158.140788 169.880218 
L 158.140788 169.225072 
L 158.304027 169.225072 
L 158.304027 168.569926 
L 158.51933 168.569926 
L 158.51933 167.91478 
L 159.201253 167.91478 
L 159.201253 166.604488 
L 159.405822 166.604488 
L 159.405822 163.983903 
L 160.005512 163.983903 
L 160.005512 163.328757 
L 160.200913 163.328757 
L 160.200913 162.018465 
L 160.394148 162.018465 
L 160.394148 161.363319 
L 160.632719 161.363319 
L 160.632719 160.708173 
L 161.007772 160.708173 
L 161.100288 156.777296 
L 161.238149 156.777296 
L 161.238149 154.156712 
L 161.420284 154.156712 
L 161.420284 151.536128 
L 161.555647 151.536128 
L 161.64531 150.225835 
L 161.734513 150.225835 
L 161.823263 148.260397 
L 161.911563 148.260397 
L 161.911563 146.950105 
L 162.086834 146.950105 
L 162.086834 146.294959 
L 162.68677 146.294959 
L 162.68677 145.639813 
L 163.061823 145.639813 
L 163.061823 144.984667 
L 163.906798 144.984667 
L 163.906798 144.32952 
L 164.063205 144.32952 
L 164.102088 142.364082 
L 164.637547 142.364082 
L 164.637547 141.05379 
L 164.86209 141.05379 
L 164.86209 139.743498 
L 165.120455 139.743498 
L 165.120455 136.467767 
L 165.302685 136.467767 
L 165.302685 135.157475 
L 165.483031 135.157475 
L 165.483031 134.502329 
L 166.391896 134.502329 
L 166.391896 133.847183 
L 167.417059 133.847183 
L 167.417059 133.192037 
L 167.640438 133.192037 
L 167.640438 131.881745 
L 168.01684 131.881745 
L 168.01684 131.226598 
L 168.232714 131.226598 
L 168.232714 129.916306 
L 169.331381 129.916306 
L 169.331381 129.26116 
L 169.503198 129.26116 
L 169.503198 128.606014 
L 169.953269 128.606014 
L 170.008719 125.98543 
L 170.228776 125.98543 
L 170.228776 125.330284 
L 171.211906 125.330284 
L 171.211906 124.019991 
L 172.361615 124.019991 
L 172.361615 123.364845 
L 172.83878 123.364845 
L 172.885786 121.399407 
L 173.026049 121.399407 
L 173.026049 120.089115 
L 173.643636 120.089115 
L 173.643636 119.433969 
L 174.021557 119.433969 
L 174.065485 116.813384 
L 174.15301 116.813384 
L 174.15301 116.158238 
L 174.711458 116.158238 
L 174.711458 115.503092 
L 174.921573 115.503092 
L 174.921573 114.847946 
L 175.046437 114.847946 
L 175.046437 114.1928 
L 175.293514 114.1928 
L 175.313947 110.917069 
L 175.436043 110.917069 
L 175.436043 110.261923 
L 175.577416 110.261923 
L 175.577416 109.606777 
L 176.209486 109.606777 
L 176.209486 108.951631 
L 176.517133 108.951631 
L 176.517133 106.986193 
L 177.190115 106.986193 
L 177.190115 104.365608 
L 177.588952 104.365608 
L 177.588952 101.745024 
L 177.785001 101.745024 
L 177.855749 99.12444 
L 177.908622 99.12444 
L 177.908622 94.538417 
L 178.118525 94.538417 
L 178.118525 93.883271 
L 178.343106 93.883271 
L 178.343106 93.228125 
L 178.56483 93.228125 
L 178.58177 87.986956 
L 178.98346 87.986956 
L 178.98346 87.33181 
L 179.27877 87.33181 
L 179.27877 86.676664 
L 179.456806 86.676664 
L 179.456806 86.021518 
L 179.601132 86.021518 
L 179.601132 84.711225 
L 180.259296 84.711225 
L 180.259296 82.745787 
L 182.193325 82.745787 
L 182.193325 82.090641 
L 182.561055 82.090641 
L 182.561055 80.780349 
L 183.390086 80.780349 
L 183.390086 80.125203 
L 184.267247 80.125203 
L 184.267247 79.470057 
L 188.869931 79.470057 
L 188.869931 78.81491 
L 190.988523 78.81491 
L 190.988523 78.159764 
L 193.271957 78.159764 
L 193.271957 77.504618 
L 194.010824 77.504618 
L 194.010824 76.849472 
L 194.295072 76.849472 
L 194.295072 76.194326 
L 195.400796 76.194326 
L 195.474862 74.884034 
L 195.593355 74.884034 
L 195.593355 74.228888 
L 195.922169 74.228888 
L 195.922169 73.573742 
L 196.158596 73.573742 
L 196.158596 72.918596 
L 196.855169 72.918596 
L 196.855169 72.263449 
L 197.137879 72.263449 
L 197.137879 71.608303 
L 197.830846 71.608303 
L 197.830846 70.953157 
L 198.181033 70.953157 
L 198.181033 70.298011 
L 198.334443 70.298011 
L 198.334443 69.642865 
L 198.505431 69.642865 
L 198.505431 68.332573 
L 198.714833 68.332573 
L 198.714833 67.677427 
L 199.09755 67.677427 
L 199.149685 65.711988 
L 199.873664 65.711988 
L 199.873664 65.056842 
L 202.381222 65.056842 
L 202.381222 64.401696 
L 202.608965 64.401696 
L 202.608965 63.74655 
L 203.04323 63.74655 
L 203.04323 63.091404 
L 203.90044 63.091404 
L 203.90044 62.436258 
L 204.062226 62.436258 
L 204.062226 61.781112 
L 204.199159 61.781112 
L 204.199159 61.125966 
L 204.485182 61.125966 
L 204.550233 59.815674 
L 204.62265 59.815674 
L 204.62265 59.160527 
L 205.325273 59.160527 
L 205.325273 58.505381 
L 205.591749 58.505381 
L 205.591749 57.850235 
L 205.784964 57.850235 
L 205.889619 56.539943 
L 205.916127 56.539943 
L 205.916127 55.229651 
L 206.654289 55.229651 
L 206.698242 53.264213 
L 207.313644 53.264213 
L 207.313644 52.609066 
L 207.527467 52.609066 
L 207.527467 51.95392 
L 207.857588 51.95392 
L 207.917516 50.643628 
L 208.221847 50.643628 
L 208.221847 49.988482 
L 208.362071 49.988482 
L 208.362071 49.333336 
L 208.728076 49.333336 
L 208.728076 48.67819 
L 208.931278 48.67819 
L 208.931278 48.023044 
L 209.668597 48.023044 
L 209.668597 47.367898 
L 209.789216 47.367898 
L 209.789216 46.712752 
L 210.578558 46.712752 
L 210.578558 46.057605 
L 210.874726 46.057605 
L 210.874726 45.402459 
L 211.199891 45.402459 
L 211.199891 44.747313 
L 211.354411 44.747313 
L 211.354411 44.092167 
L 211.632707 44.092167 
L 211.632707 43.437021 
L 212.96948 43.437021 
L 212.96948 42.781875 
L 213.479277 42.781875 
L 213.479277 42.126729 
L 213.694249 42.126729 
L 213.694249 41.471583 
L 214.406382 41.471583 
L 214.406382 40.816437 
L 214.67132 40.816437 
L 214.67132 40.161291 
L 215.511188 40.161291 
L 215.511188 39.506144 
L 216.362975 39.506144 
L 216.362975 38.850998 
L 216.521339 38.850998 
L 216.521339 38.195852 
L 216.659215 38.195852 
L 216.659215 37.540706 
L 216.833818 37.540706 
L 216.833818 36.88556 
L 219.538004 36.88556 
L 219.538004 36.230414 
L 220.138815 36.230414 
L 220.207425 34.920122 
L 222.074769 34.920122 
L 222.074769 34.264976 
L 226.336301 34.264976 
L 226.336301 33.60983 
L 227.154544 33.60983 
L 227.154544 32.954683 
L 228.735278 32.954683 
L 228.735278 32.299537 
L 230.99578 32.299537 
L 230.99578 31.644391 
L 231.638925 31.644391 
L 231.638925 30.989245 
L 236.825248 30.989245 
L 236.825248 30.334099 
L 338.688 30.334099 
L 338.688 30.334099 
" style="fill:none;stroke:#000080;stroke-linecap:square;stroke-width:1.5;"/>
   </g>
   <g id="line2d_31">
    <defs>
     <path d="M 0 6 
C 1.591219 6 3.117479 5.367802 4.242641 4.242641 
C 5.367802 3.117479 6 1.591219 6 0 
C 6 -1.591219 5.367802 -3.117479 4.242641 -4.242641 
C 3.117479 -5.367802 1.591219 -6 0 -6 
C -1.591219 -6 -3.117479 -5.367802 -4.242641 -4.242641 
C -5.367802 -3.117479 -6 -1.591219 -6 0 
C -6 1.591219 -5.367802 3.117479 -4.242641 4.242641 
C -3.117479 5.367802 -1.591219 6 0 6 
z
" id="m49df21b458" style="stroke:#000080;stroke-width:1.5;"/>
    </defs>
    <g>
     <use style="fill-opacity:0;stroke:#000080;stroke-width:1.5;" x="142.215919" xlink:href="#m49df21b458" y="247.842604"/>
     <use style="fill-opacity:0;stroke:#000080;stroke-width:1.5;" x="177.855749" xlink:href="#m49df21b458" y="99.12444"/>
     <use style="fill-opacity:0;stroke:#000080;stroke-width:1.5;" x="236.825248" xlink:href="#m49df21b458" y="30.989245"/>
     <use style="fill-opacity:0;stroke:#000080;stroke-width:1.5;" x="236.825248" xlink:href="#m49df21b458" y="30.334099"/>
     <use style="fill-opacity:0;stroke:#000080;stroke-width:1.5;" x="338.688" xlink:href="#m49df21b458" y="30.334099"/>
    </g>
   </g>
   <g id="line2d_32">
    <path style="fill:none;stroke:#000080;stroke-linecap:square;stroke-width:1.5;"/>
    <g/>
   </g>
   <g id="line2d_33">
    <path clip-path="url(#p0401fb6367)" d="M 189.701567 78.81491 
" style="fill:none;stroke:#000080;stroke-linecap:square;stroke-width:1.5;"/>
    <defs>
     <path d="M -12 12 
L 12 -12 
M -12 -12 
L 12 12 
" id="m1eeae9298c" style="stroke:#000080;"/>
    </defs>
    <g clip-path="url(#p0401fb6367)">
     <use style="fill:#000080;stroke:#000080;" x="189.701567" xlink:href="#m1eeae9298c" y="78.81491"/>
    </g>
   </g>
   <g id="line2d_34">
    <defs>
     <path d="M 0 1.5 
C 0.397805 1.5 0.77937 1.341951 1.06066 1.06066 
C 1.341951 0.77937 1.5 0.397805 1.5 0 
C 1.5 -0.397805 1.341951 -0.77937 1.06066 -1.06066 
C 0.77937 -1.341951 0.397805 -1.5 0 -1.5 
C -0.397805 -1.5 -0.77937 -1.341951 -1.06066 -1.06066 
C -1.341951 -0.77937 -1.5 -0.397805 -1.5 0 
C -1.5 0.397805 -1.341951 0.77937 -1.06066 1.06066 
C -0.77937 1.341951 -0.397805 1.5 0 1.5 
z
" id="m5e7e39fbd5" style="stroke:#ff00ff;"/>
    </defs>
    <g>
     <use style="fill:#ff00ff;stroke:#ff00ff;" x="137.558536" xlink:href="#m5e7e39fbd5" y="292.392539"/>
     <use style="fill:#ff00ff;stroke:#ff00ff;" x="137.558536" xlink:href="#m5e7e39fbd5" y="292.392539"/>
    </g>
   </g>
   <g id="line2d_35">
    <path d="M 79.447285 298.944 
L 79.447285 298.288854 
L 83.830028 298.288854 
L 83.830028 296.978562 
L 111.104637 296.978562 
L 111.104637 296.323416 
L 114.080224 296.323416 
L 114.080224 295.66827 
L 118.576578 295.66827 
L 118.576578 295.013123 
L 130.926816 295.013123 
L 130.926816 294.357977 
L 131.439773 294.357977 
L 131.439773 293.702831 
L 136.456742 293.702831 
L 136.456742 293.047685 
L 137.558536 293.047685 
L 137.558536 292.392539 
L 338.688 292.392539 
" style="fill:none;stroke:#ff00ff;stroke-linecap:square;stroke-width:1.5;"/>
   </g>
   <g id="line2d_36">
    <defs>
     <path d="M -0 8.485281 
L 5.091169 0 
L 0 -8.485281 
L -5.091169 -0 
z
" id="mcf39fde8af" style="stroke:#ff00ff;stroke-linejoin:miter;stroke-width:1.5;"/>
    </defs>
    <g>
     <use style="fill-opacity:0;stroke:#ff00ff;stroke-linejoin:miter;stroke-width:1.5;" x="137.558536" xlink:href="#mcf39fde8af" y="293.047685"/>
     <use style="fill-opacity:0;stroke:#ff00ff;stroke-linejoin:miter;stroke-width:1.5;" x="137.558536" xlink:href="#mcf39fde8af" y="293.047685"/>
     <use style="fill-opacity:0;stroke:#ff00ff;stroke-linejoin:miter;stroke-width:1.5;" x="137.558536" xlink:href="#mcf39fde8af" y="292.392539"/>
     <use style="fill-opacity:0;stroke:#ff00ff;stroke-linejoin:miter;stroke-width:1.5;" x="137.558536" xlink:href="#mcf39fde8af" y="292.392539"/>
     <use style="fill-opacity:0;stroke:#ff00ff;stroke-linejoin:miter;stroke-width:1.5;" x="338.688" xlink:href="#mcf39fde8af" y="292.392539"/>
    </g>
   </g>
   <g id="line2d_37">
    <path style="fill:none;stroke:#ff00ff;stroke-linecap:square;stroke-width:1.5;"/>
    <g/>
   </g>
   <g id="line2d_38">
    <path clip-path="url(#p0401fb6367)" d="M 108.006005 296.978562 
" style="fill:none;stroke:#ff00ff;stroke-linecap:square;stroke-width:1.5;"/>
    <defs>
     <path d="M -12 12 
L 12 -12 
M -12 -12 
L 12 12 
" id="mf1d1084a01" style="stroke:#ff00ff;"/>
    </defs>
    <g clip-path="url(#p0401fb6367)">
     <use style="fill:#ff00ff;stroke:#ff00ff;" x="108.006005" xlink:href="#mf1d1084a01" y="296.978562"/>
    </g>
   </g>
   <g id="line2d_39">
    <defs>
     <path d="M 0 1.5 
C 0.397805 1.5 0.77937 1.341951 1.06066 1.06066 
C 1.341951 0.77937 1.5 0.397805 1.5 0 
C 1.5 -0.397805 1.341951 -0.77937 1.06066 -1.06066 
C 0.77937 -1.341951 0.397805 -1.5 0 -1.5 
C -0.397805 -1.5 -0.77937 -1.341951 -1.06066 -1.06066 
C -1.341951 -0.77937 -1.5 -0.397805 -1.5 0 
C -1.5 0.397805 -1.341951 0.77937 -1.06066 1.06066 
C -0.77937 1.341951 -0.397805 1.5 0 1.5 
z
" id="m7c529c6cd1" style="stroke:#ff7500;"/>
    </defs>
    <g>
     <use style="fill:#ff7500;stroke:#ff7500;" x="262.511338" xlink:href="#m7c529c6cd1" y="30.334099"/>
     <use style="fill:#ff7500;stroke:#ff7500;" x="262.511338" xlink:href="#m7c529c6cd1" y="30.334099"/>
    </g>
   </g>
   <g id="line2d_40">
    <path d="M 126.839037 298.944 
L 126.839037 296.978562 
L 127.165014 296.978562 
L 127.165014 294.357977 
L 129.433047 294.357977 
L 129.433047 293.047685 
L 130.926816 293.047685 
L 130.926816 292.392539 
L 131.439773 292.392539 
L 131.439773 291.737393 
L 132.777237 291.737393 
L 132.777237 290.427101 
L 133.009765 290.427101 
L 133.009765 286.496224 
L 133.800029 286.496224 
L 133.800029 285.841078 
L 134.019394 285.841078 
L 134.019394 283.87564 
L 135.780341 283.87564 
L 135.780341 283.220494 
L 136.170062 283.220494 
L 136.170062 281.910201 
L 136.456742 281.910201 
L 136.456742 280.599909 
L 137.198951 280.599909 
L 137.198951 279.944763 
L 137.647286 279.944763 
L 137.647286 277.324179 
L 137.823442 277.324179 
L 137.823442 276.669033 
L 138.927025 276.669033 
L 138.927025 276.013887 
L 139.413734 276.013887 
L 139.413734 273.393302 
L 139.8092 273.393302 
L 139.8092 269.462426 
L 140.272217 269.462426 
L 140.272217 266.841841 
L 140.574203 266.841841 
L 140.574203 266.186695 
L 140.944478 266.186695 
L 140.944478 265.531549 
L 141.378673 265.531549 
L 141.378673 264.221257 
L 141.521035 264.221257 
L 141.521035 262.910965 
L 142.010346 262.910965 
L 142.010346 261.600672 
L 142.147664 261.600672 
L 142.147664 260.945526 
L 142.884173 260.945526 
L 142.884173 258.980088 
L 144.390658 258.980088 
L 144.390658 258.324942 
L 144.629556 258.324942 
L 144.629556 257.01465 
L 145.270136 257.01465 
L 145.270136 256.359504 
L 145.777292 256.359504 
L 145.777292 255.704357 
L 146.591092 255.704357 
L 146.591092 253.738919 
L 147.164632 253.738919 
L 147.266916 251.773481 
L 147.4697 251.773481 
L 147.4697 249.808043 
L 148.015498 249.808043 
L 148.015498 249.152896 
L 148.639252 249.152896 
L 148.733265 245.22202 
L 148.826773 245.22202 
L 148.826773 243.256582 
L 149.241465 243.256582 
L 149.332295 239.980851 
L 149.422654 239.980851 
L 149.512548 235.394828 
L 149.646525 235.394828 
L 149.646525 234.739682 
L 149.823575 234.739682 
L 149.823575 230.15366 
L 150.085825 230.15366 
L 150.085825 228.843367 
L 150.38688 228.843367 
L 150.38688 227.533075 
L 150.556607 227.533075 
L 150.556607 224.912491 
L 150.766468 224.912491 
L 150.766468 222.947052 
L 151.097081 222.947052 
L 151.097081 222.291906 
L 151.300575 222.291906 
L 151.381313 219.671322 
L 151.818809 219.671322 
L 151.818809 218.36103 
L 151.975216 218.36103 
L 151.975216 217.705884 
L 152.322086 217.705884 
L 152.398241 216.395591 
L 152.549559 216.395591 
L 152.549559 215.740445 
L 152.699575 215.740445 
L 152.699575 213.775007 
L 153.105587 213.775007 
L 153.105587 212.464715 
L 153.359122 212.464715 
L 153.359122 211.809569 
L 153.644434 211.809569 
L 153.750233 209.84413 
L 153.820412 209.84413 
L 153.820412 209.188984 
L 154.098334 209.188984 
L 154.098334 207.223546 
L 154.405793 207.223546 
L 154.473387 205.258108 
L 154.54072 205.258108 
L 154.54072 203.947816 
L 154.707925 203.947816 
L 154.707925 203.292669 
L 154.972161 203.292669 
L 154.972161 202.637523 
L 155.264719 202.637523 
L 155.264719 201.982377 
L 155.393186 201.982377 
L 155.488919 199.361793 
L 155.55245 199.361793 
L 155.61575 198.051501 
L 155.678822 198.051501 
L 155.741666 196.741208 
L 156.083319 196.741208 
L 156.144725 192.810332 
L 156.297301 192.810332 
L 156.297301 190.189747 
L 156.478647 190.189747 
L 156.478647 186.914017 
L 156.598505 186.914017 
L 156.598505 186.258871 
L 156.98245 186.258871 
L 156.98245 184.293433 
L 157.500487 184.293433 
L 157.500487 183.638286 
L 157.613546 183.638286 
L 157.613546 181.672848 
L 157.725877 181.672848 
L 157.725877 181.017702 
L 158.276927 181.017702 
L 158.385078 177.741972 
L 158.51933 177.741972 
L 158.572743 175.776533 
L 158.732007 175.776533 
L 158.732007 173.811095 
L 158.863624 173.811095 
L 158.863624 173.155949 
L 159.201253 173.155949 
L 159.252621 170.535364 
L 159.405822 170.535364 
L 159.405822 167.91478 
L 159.532469 167.91478 
L 159.532469 164.63905 
L 159.956318 164.63905 
L 159.956318 162.673611 
L 160.103486 162.673611 
L 160.176607 161.363319 
L 160.418152 161.363319 
L 160.418152 160.708173 
L 160.585265 160.708173 
L 160.585265 160.053027 
L 160.844678 160.053027 
L 160.891432 158.087589 
L 161.030947 158.087589 
L 161.030947 157.432442 
L 161.192316 157.432442 
L 161.192316 156.777296 
L 161.488097 156.777296 
L 161.488097 154.811858 
L 161.622937 154.811858 
L 161.622937 154.156712 
L 161.867469 154.156712 
L 161.911563 151.536128 
L 162.021314 151.536128 
L 162.10862 149.570689 
L 162.474869 149.570689 
L 162.474869 148.915543 
L 162.62347 148.915543 
L 162.665696 147.605251 
L 162.812686 147.605251 
L 162.812686 146.950105 
L 162.979172 146.950105 
L 163.082425 144.984667 
L 163.205526 144.984667 
L 163.205526 144.32952 
L 163.428979 144.32952 
L 163.469301 141.708936 
L 163.549667 141.708936 
L 163.649606 139.743498 
L 163.689421 139.743498 
L 163.768781 137.122913 
L 164.237502 137.122913 
L 164.314412 134.502329 
L 164.448194 134.502329 
L 164.448194 131.881745 
L 164.768882 131.881745 
L 164.768882 130.571452 
L 164.899235 130.571452 
L 165.010195 127.950868 
L 165.248216 127.950868 
L 165.338904 125.98543 
L 165.411116 125.98543 
L 165.411116 125.330284 
L 165.643763 125.330284 
L 165.643763 124.675137 
L 166.099947 124.675137 
L 166.169082 122.054553 
L 166.357802 122.054553 
L 166.357802 120.089115 
L 166.476842 120.089115 
L 166.476842 118.778823 
L 166.829163 118.778823 
L 166.91201 115.503092 
L 166.945039 115.503092 
L 166.978005 113.537654 
L 167.125588 113.537654 
L 167.125588 112.227362 
L 167.703739 112.227362 
L 167.782543 109.606777 
L 168.047843 109.606777 
L 168.155922 107.641339 
L 168.551595 107.641339 
L 168.551595 106.986193 
L 168.746115 106.986193 
L 168.746115 106.331047 
L 169.186895 106.331047 
L 169.186895 105.675901 
L 169.827856 105.675901 
L 169.897641 104.365608 
L 169.953269 104.365608 
L 169.953269 103.055316 
L 170.132843 103.055316 
L 170.160306 101.745024 
L 170.977818 101.745024 
L 171.030109 100.434732 
L 171.83367 100.434732 
L 171.83367 99.779586 
L 171.970255 99.779586 
L 171.994974 98.469293 
L 172.288901 98.469293 
L 172.288901 97.814147 
L 172.885786 97.814147 
L 172.885786 96.503855 
L 173.130511 96.503855 
L 173.130511 95.193563 
L 174.626698 95.193563 
L 174.626698 94.538417 
L 174.785287 94.538417 
L 174.785287 93.883271 
L 183.518129 93.883271 
L 183.518129 93.228125 
L 183.983875 93.228125 
L 183.996292 91.917832 
L 185.877092 91.917832 
L 185.938273 90.60754 
L 185.993706 90.60754 
L 185.993706 89.952394 
L 186.284597 89.952394 
L 186.284597 89.297248 
L 186.479451 89.297248 
L 186.479451 88.642102 
L 186.878537 88.642102 
L 186.878537 87.986956 
L 187.206852 87.986956 
L 187.206852 87.33181 
L 188.495185 87.33181 
L 188.495185 86.676664 
L 190.132461 86.676664 
L 190.132461 86.021518 
L 190.413921 86.021518 
L 190.413921 85.366371 
L 191.625123 85.366371 
L 191.625123 84.711225 
L 191.986017 84.711225 
L 191.986017 84.056079 
L 192.188938 84.056079 
L 192.235432 82.745787 
L 192.473699 82.745787 
L 192.473699 82.090641 
L 192.671055 82.090641 
L 192.731333 80.780349 
L 193.187895 80.780349 
L 193.264664 78.159764 
L 193.322928 78.159764 
L 193.322928 77.504618 
L 194.174313 77.504618 
L 194.174313 76.849472 
L 194.959602 76.849472 
L 194.959602 76.194326 
L 195.969087 76.194326 
L 195.969087 75.53918 
L 196.952869 75.53918 
L 196.952869 74.884034 
L 198.301683 74.884034 
L 198.301683 74.228888 
L 198.990182 74.228888 
L 198.990182 73.573742 
L 199.325788 73.573742 
L 199.325788 72.918596 
L 199.935979 72.918596 
L 199.960842 71.608303 
L 200.788147 71.608303 
L 200.788147 70.953157 
L 201.780604 70.953157 
L 201.780604 70.298011 
L 203.078589 70.298011 
L 203.078589 69.642865 
L 203.588444 69.642865 
L 203.588444 68.987719 
L 204.69098 68.987719 
L 204.69098 68.332573 
L 205.056518 68.332573 
L 205.139796 67.022281 
L 205.252053 67.022281 
L 205.252053 66.367135 
L 205.525059 66.367135 
L 205.525059 65.711988 
L 205.939067 65.711988 
L 205.939067 65.056842 
L 206.80093 65.056842 
L 206.80093 64.401696 
L 207.618995 64.401696 
L 207.716417 63.091404 
L 208.215658 63.091404 
L 208.221847 61.781112 
L 209.005393 61.781112 
L 209.005393 61.125966 
L 209.963694 61.125966 
L 210.023794 59.815674 
L 210.155842 59.815674 
L 210.212523 58.505381 
L 212.485572 58.505381 
L 212.485572 57.850235 
L 212.620742 57.850235 
L 212.624348 56.539943 
L 212.762029 56.539943 
L 212.762029 55.884797 
L 213.676153 55.884797 
L 213.676153 55.229651 
L 213.928925 55.229651 
L 213.928925 54.574505 
L 214.258165 54.574505 
L 214.258165 53.919359 
L 215.821125 53.919359 
L 215.821125 53.264213 
L 216.387209 53.264213 
L 216.387209 52.609066 
L 216.643949 52.609066 
L 216.720145 51.298774 
L 217.125018 51.298774 
L 217.125018 50.643628 
L 218.008529 50.643628 
L 218.008529 49.988482 
L 219.490233 49.988482 
L 219.490233 49.333336 
L 219.61787 49.333336 
L 219.61787 48.67819 
L 219.754964 48.67819 
L 219.754964 48.023044 
L 221.866595 48.023044 
L 221.866595 47.367898 
L 222.000505 47.367898 
L 222.000505 46.712752 
L 222.727935 46.712752 
L 222.727935 46.057605 
L 224.03965 46.057605 
L 224.03965 45.402459 
L 225.01204 45.402459 
L 225.01204 44.747313 
L 227.967054 44.747313 
L 227.967054 44.092167 
L 230.603679 44.092167 
L 230.603679 43.437021 
L 230.985298 43.437021 
L 230.985298 42.781875 
L 231.952412 42.781875 
L 231.952412 42.126729 
L 232.135557 42.126729 
L 232.135557 41.471583 
L 232.527302 41.471583 
L 232.527302 40.816437 
L 236.390178 40.816437 
L 236.390178 40.161291 
L 236.870798 40.161291 
L 236.870798 39.506144 
L 237.380723 39.506144 
L 237.380723 38.850998 
L 238.085094 38.850998 
L 238.085094 38.195852 
L 238.971906 38.195852 
L 238.971906 37.540706 
L 240.412389 37.540706 
L 240.412389 36.88556 
L 240.532888 36.88556 
L 240.532888 36.230414 
L 244.915981 36.230414 
L 244.915981 35.575268 
L 245.425999 35.575268 
L 245.425999 34.920122 
L 249.448645 34.920122 
L 249.448645 34.264976 
L 250.203204 34.264976 
L 250.214765 32.954683 
L 250.896497 32.954683 
L 250.896497 32.299537 
L 251.331174 32.299537 
L 251.331174 31.644391 
L 253.09259 31.644391 
L 253.09259 30.989245 
L 262.511338 30.989245 
L 262.511338 30.334099 
L 338.688 30.334099 
L 338.688 30.334099 
" style="fill:none;stroke:#ff7500;stroke-linecap:square;stroke-width:1.5;"/>
   </g>
   <g id="line2d_41">
    <defs>
     <path d="M 0 -6 
L -1.347084 -1.854102 
L -5.706339 -1.854102 
L -2.179628 0.708204 
L -3.526712 4.854102 
L -0 2.291796 
L 3.526712 4.854102 
L 2.179628 0.708204 
L 5.706339 -1.854102 
L 1.347084 -1.854102 
z
" id="mf4373fbd4d" style="stroke:#ff7500;stroke-linejoin:bevel;stroke-width:1.5;"/>
    </defs>
    <g>
     <use style="fill-opacity:0;stroke:#ff7500;stroke-linejoin:bevel;stroke-width:1.5;" x="168.047843" xlink:href="#mf4373fbd4d" y="108.296485"/>
     <use style="fill-opacity:0;stroke:#ff7500;stroke-linejoin:bevel;stroke-width:1.5;" x="232.135557" xlink:href="#mf4373fbd4d" y="41.471583"/>
     <use style="fill-opacity:0;stroke:#ff7500;stroke-linejoin:bevel;stroke-width:1.5;" x="262.511338" xlink:href="#mf4373fbd4d" y="30.334099"/>
     <use style="fill-opacity:0;stroke:#ff7500;stroke-linejoin:bevel;stroke-width:1.5;" x="262.511338" xlink:href="#mf4373fbd4d" y="30.334099"/>
     <use style="fill-opacity:0;stroke:#ff7500;stroke-linejoin:bevel;stroke-width:1.5;" x="338.688" xlink:href="#mf4373fbd4d" y="30.334099"/>
    </g>
   </g>
   <g id="line2d_42">
    <path style="fill:none;stroke:#ff7500;stroke-linecap:square;stroke-width:1.5;"/>
    <g/>
   </g>
   <g id="line2d_43">
    <path clip-path="url(#p0401fb6367)" d="M 181.852798 93.883271 
" style="fill:none;stroke:#ff7500;stroke-linecap:square;stroke-width:1.5;"/>
    <defs>
     <path d="M -12 12 
L 12 -12 
M -12 -12 
L 12 12 
" id="m1236e427e3" style="stroke:#ff7500;"/>
    </defs>
    <g clip-path="url(#p0401fb6367)">
     <use style="fill:#ff7500;stroke:#ff7500;" x="181.852798" xlink:href="#m1236e427e3" y="93.883271"/>
    </g>
   </g>
   <g id="line2d_44">
    <path clip-path="url(#p0401fb6367)" d="M 57.6 298.944 
L 57.6 298.944 
L 57.6 298.944 
L 57.6 298.944 
L 338.688 298.944 
" style="fill:none;stroke:#6495ed;stroke-linecap:square;stroke-width:1.5;"/>
   </g>
   <g id="line2d_45">
    <defs>
     <path d="M -0 6 
L 6 -6 
L -6 -6 
z
" id="mee2b04b023" style="stroke:#6495ed;stroke-linejoin:miter;stroke-width:1.5;"/>
    </defs>
    <g clip-path="url(#p0401fb6367)">
     <use style="fill-opacity:0;stroke:#6495ed;stroke-linejoin:miter;stroke-width:1.5;" x="57.6" xlink:href="#mee2b04b023" y="298.944"/>
    </g>
   </g>
   <g id="line2d_46">
    <path clip-path="url(#p0401fb6367)" style="fill:none;stroke:#6495ed;stroke-linecap:square;stroke-width:1.5;"/>
    <g clip-path="url(#p0401fb6367)">
     <use style="fill-opacity:0;stroke:#6495ed;stroke-linejoin:miter;stroke-width:1.5;" x="-1" xlink:href="#mee2b04b023" y="567.553901"/>
     <use style="fill-opacity:0;stroke:#6495ed;stroke-linejoin:miter;stroke-width:1.5;" x="338.688" xlink:href="#mee2b04b023" y="567.553901"/>
    </g>
   </g>
   <g id="line2d_47">
    <path d="M 338.688 298.944 
L 369.60768 293.571802 
" style="fill:none;stroke:#6495ed;stroke-linecap:square;stroke-width:1.5;"/>
    <g>
     <use style="fill-opacity:0;stroke:#6495ed;stroke-linejoin:miter;stroke-width:1.5;" x="338.688" xlink:href="#mee2b04b023" y="298.944"/>
     <use style="fill-opacity:0;stroke:#6495ed;stroke-linejoin:miter;stroke-width:1.5;" x="369.60768" xlink:href="#mee2b04b023" y="293.571802"/>
    </g>
   </g>
   <g id="line2d_48">
    <path d="M 338.688 292.392539 
L 369.60768 207.616634 
" style="fill:none;stroke:#ff00ff;stroke-linecap:square;stroke-width:1.5;"/>
    <g>
     <use style="fill-opacity:0;stroke:#ff00ff;stroke-linejoin:miter;stroke-width:1.5;" x="338.688" xlink:href="#mcf39fde8af" y="292.392539"/>
     <use style="fill-opacity:0;stroke:#ff00ff;stroke-linejoin:miter;stroke-width:1.5;" x="369.60768" xlink:href="#mcf39fde8af" y="207.616634"/>
    </g>
   </g>
   <g id="line2d_49">
    <path d="M 338.688 30.334099 
L 369.60768 121.661465 
" style="fill:none;stroke:#ff7500;stroke-linecap:square;stroke-width:1.5;"/>
    <g>
     <use style="fill-opacity:0;stroke:#ff7500;stroke-linejoin:bevel;stroke-width:1.5;" x="338.688" xlink:href="#mf4373fbd4d" y="30.334099"/>
     <use style="fill-opacity:0;stroke:#ff7500;stroke-linejoin:bevel;stroke-width:1.5;" x="369.60768" xlink:href="#mf4373fbd4d" y="121.661465"/>
    </g>
   </g>
   <g id="line2d_50">
    <path d="M 338.688 30.334099 
L 369.60768 35.706297 
" style="fill:none;stroke:#000080;stroke-linecap:square;stroke-width:1.5;"/>
    <g>
     <use style="fill-opacity:0;stroke:#000080;stroke-width:1.5;" x="338.688" xlink:href="#m49df21b458" y="30.334099"/>
     <use style="fill-opacity:0;stroke:#000080;stroke-width:1.5;" x="369.60768" xlink:href="#m49df21b458" y="35.706297"/>
    </g>
   </g>
   <g id="line2d_51">
    <path d="M 338.688 298.944 
L 338.688 30.334099 
" style="fill:none;stroke:#000000;stroke-linecap:square;stroke-width:1.5;"/>
   </g>
   <g id="patch_3">
    <path d="M 57.6 298.944 
L 57.6 27.648 
" style="fill:none;stroke:#000000;stroke-linecap:square;stroke-linejoin:miter;stroke-width:0.8;"/>
   </g>
   <g id="patch_4">
    <path d="M 338.688 298.944 
L 338.688 27.648 
" style="fill:none;stroke:#000000;stroke-linecap:square;stroke-linejoin:miter;stroke-width:0.8;"/>
   </g>
   <g id="patch_5">
    <path d="M 57.6 298.944 
L 338.688 298.944 
" style="fill:none;stroke:#000000;stroke-linecap:square;stroke-linejoin:miter;stroke-width:0.8;"/>
   </g>
   <g id="patch_6">
    <path d="M 57.6 27.648 
L 338.688 27.648 
" style="fill:none;stroke:#000000;stroke-linecap:square;stroke-linejoin:miter;stroke-width:0.8;"/>
   </g>
   <g id="text_13">
    <!-- slsqp -->
    <g transform="translate(375.22944 298.262739)scale(0.17 -0.17)">
     <defs>
      <path d="M 14.796875 27.296875 
Q 14.796875 17.390625 18.875 11.75 
Q 22.953125 6.109375 30.078125 6.109375 
Q 37.203125 6.109375 41.296875 11.75 
Q 45.40625 17.390625 45.40625 27.296875 
Q 45.40625 37.203125 41.296875 42.84375 
Q 37.203125 48.484375 30.078125 48.484375 
Q 22.953125 48.484375 18.875 42.84375 
Q 14.796875 37.203125 14.796875 27.296875 
z
M 45.40625 8.203125 
Q 42.578125 3.328125 38.25 0.953125 
Q 33.9375 -1.421875 27.875 -1.421875 
Q 17.96875 -1.421875 11.734375 6.484375 
Q 5.515625 14.40625 5.515625 27.296875 
Q 5.515625 40.1875 11.734375 48.09375 
Q 17.96875 56 27.875 56 
Q 33.9375 56 38.25 53.625 
Q 42.578125 51.265625 45.40625 46.390625 
L 45.40625 54.6875 
L 54.390625 54.6875 
L 54.390625 -20.796875 
L 45.40625 -20.796875 
z
" id="DejaVuSans-113"/>
     </defs>
     <use xlink:href="#DejaVuSans-115"/>
     <use x="52.099609" xlink:href="#DejaVuSans-108"/>
     <use x="79.882812" xlink:href="#DejaVuSans-115"/>
     <use x="131.982422" xlink:href="#DejaVuSans-113"/>
     <use x="195.458984" xlink:href="#DejaVuSans-112"/>
    </g>
   </g>
   <g id="text_14">
    <!-- cobyla -->
    <g transform="translate(375.22944 212.307571)scale(0.17 -0.17)">
     <defs>
      <path d="M 48.6875 27.296875 
Q 48.6875 37.203125 44.609375 42.84375 
Q 40.53125 48.484375 33.40625 48.484375 
Q 26.265625 48.484375 22.1875 42.84375 
Q 18.109375 37.203125 18.109375 27.296875 
Q 18.109375 17.390625 22.1875 11.75 
Q 26.265625 6.109375 33.40625 6.109375 
Q 40.53125 6.109375 44.609375 11.75 
Q 48.6875 17.390625 48.6875 27.296875 
z
M 18.109375 46.390625 
Q 20.953125 51.265625 25.265625 53.625 
Q 29.59375 56 35.59375 56 
Q 45.5625 56 51.78125 48.09375 
Q 58.015625 40.1875 58.015625 27.296875 
Q 58.015625 14.40625 51.78125 6.484375 
Q 45.5625 -1.421875 35.59375 -1.421875 
Q 29.59375 -1.421875 25.265625 0.953125 
Q 20.953125 3.328125 18.109375 8.203125 
L 18.109375 0 
L 9.078125 0 
L 9.078125 75.984375 
L 18.109375 75.984375 
z
" id="DejaVuSans-98"/>
      <path d="M 32.171875 -5.078125 
Q 28.375 -14.84375 24.75 -17.8125 
Q 21.140625 -20.796875 15.09375 -20.796875 
L 7.90625 -20.796875 
L 7.90625 -13.28125 
L 13.1875 -13.28125 
Q 16.890625 -13.28125 18.9375 -11.515625 
Q 21 -9.765625 23.484375 -3.21875 
L 25.09375 0.875 
L 2.984375 54.6875 
L 12.5 54.6875 
L 29.59375 11.921875 
L 46.6875 54.6875 
L 56.203125 54.6875 
z
" id="DejaVuSans-121"/>
     </defs>
     <use xlink:href="#DejaVuSans-99"/>
     <use x="54.980469" xlink:href="#DejaVuSans-111"/>
     <use x="116.162109" xlink:href="#DejaVuSans-98"/>
     <use x="179.638672" xlink:href="#DejaVuSans-121"/>
     <use x="238.818359" xlink:href="#DejaVuSans-108"/>
     <use x="266.601562" xlink:href="#DejaVuSans-97"/>
    </g>
   </g>
   <g id="text_15">
    <!-- l1p-cmaes -->
    <g transform="translate(375.22944 126.352403)scale(0.17 -0.17)">
     <use xlink:href="#DejaVuSans-108"/>
     <use x="27.783203" xlink:href="#DejaVuSans-49"/>
     <use x="91.40625" xlink:href="#DejaVuSans-112"/>
     <use x="154.882812" xlink:href="#DejaVuSans-45"/>
     <use x="190.966797" xlink:href="#DejaVuSans-99"/>
     <use x="245.947266" xlink:href="#DejaVuSans-109"/>
     <use x="343.359375" xlink:href="#DejaVuSans-97"/>
     <use x="404.638672" xlink:href="#DejaVuSans-101"/>
     <use x="466.162109" xlink:href="#DejaVuSans-115"/>
    </g>
   </g>
   <g id="text_16">
    <!-- alN5 -->
    <g transform="translate(375.22944 40.397235)scale(0.17 -0.17)">
     <defs>
      <path d="M 9.8125 72.90625 
L 23.09375 72.90625 
L 55.421875 11.921875 
L 55.421875 72.90625 
L 64.984375 72.90625 
L 64.984375 0 
L 51.703125 0 
L 19.390625 60.984375 
L 19.390625 0 
L 9.8125 0 
z
" id="DejaVuSans-78"/>
      <path d="M 10.796875 72.90625 
L 49.515625 72.90625 
L 49.515625 64.59375 
L 19.828125 64.59375 
L 19.828125 46.734375 
Q 21.96875 47.46875 24.109375 47.828125 
Q 26.265625 48.1875 28.421875 48.1875 
Q 40.625 48.1875 47.75 41.5 
Q 54.890625 34.8125 54.890625 23.390625 
Q 54.890625 11.625 47.5625 5.09375 
Q 40.234375 -1.421875 26.90625 -1.421875 
Q 22.3125 -1.421875 17.546875 -0.640625 
Q 12.796875 0.140625 7.71875 1.703125 
L 7.71875 11.625 
Q 12.109375 9.234375 16.796875 8.0625 
Q 21.484375 6.890625 26.703125 6.890625 
Q 35.15625 6.890625 40.078125 11.328125 
Q 45.015625 15.765625 45.015625 23.390625 
Q 45.015625 31 40.078125 35.4375 
Q 35.15625 39.890625 26.703125 39.890625 
Q 22.75 39.890625 18.8125 39.015625 
Q 14.890625 38.140625 10.796875 36.28125 
z
" id="DejaVuSans-53"/>
     </defs>
     <use xlink:href="#DejaVuSans-97"/>
     <use x="61.279297" xlink:href="#DejaVuSans-108"/>
     <use x="89.0625" xlink:href="#DejaVuSans-78"/>
     <use x="163.867188" xlink:href="#DejaVuSans-53"/>
    </g>
   </g>
   <g id="text_17">
    <!-- bbob-constrained f26, 2-D -->
    <g transform="translate(60.41088 38.111366)scale(0.102 -0.102)">
     <defs>
      <path d="M 19.671875 64.796875 
L 19.671875 8.109375 
L 31.59375 8.109375 
Q 46.6875 8.109375 53.6875 14.9375 
Q 60.6875 21.78125 60.6875 36.53125 
Q 60.6875 51.171875 53.6875 57.984375 
Q 46.6875 64.796875 31.59375 64.796875 
z
M 9.8125 72.90625 
L 30.078125 72.90625 
Q 51.265625 72.90625 61.171875 64.09375 
Q 71.09375 55.28125 71.09375 36.53125 
Q 71.09375 17.671875 61.125 8.828125 
Q 51.171875 0 30.078125 0 
L 9.8125 0 
z
" id="DejaVuSans-68"/>
     </defs>
     <use xlink:href="#DejaVuSans-98"/>
     <use x="63.476562" xlink:href="#DejaVuSans-98"/>
     <use x="126.953125" xlink:href="#DejaVuSans-111"/>
     <use x="188.134766" xlink:href="#DejaVuSans-98"/>
     <use x="251.611328" xlink:href="#DejaVuSans-45"/>
     <use x="287.695312" xlink:href="#DejaVuSans-99"/>
     <use x="342.675781" xlink:href="#DejaVuSans-111"/>
     <use x="403.857422" xlink:href="#DejaVuSans-110"/>
     <use x="467.236328" xlink:href="#DejaVuSans-115"/>
     <use x="519.335938" xlink:href="#DejaVuSans-116"/>
     <use x="558.544922" xlink:href="#DejaVuSans-114"/>
     <use x="599.658203" xlink:href="#DejaVuSans-97"/>
     <use x="660.9375" xlink:href="#DejaVuSans-105"/>
     <use x="688.720703" xlink:href="#DejaVuSans-110"/>
     <use x="752.099609" xlink:href="#DejaVuSans-101"/>
     <use x="813.623047" xlink:href="#DejaVuSans-100"/>
     <use x="877.099609" xlink:href="#DejaVuSans-32"/>
     <use x="908.886719" xlink:href="#DejaVuSans-102"/>
     <use x="944.091797" xlink:href="#DejaVuSans-50"/>
     <use x="1007.714844" xlink:href="#DejaVuSans-54"/>
     <use x="1071.337891" xlink:href="#DejaVuSans-44"/>
     <use x="1103.125" xlink:href="#DejaVuSans-32"/>
     <use x="1134.912109" xlink:href="#DejaVuSans-50"/>
     <use x="1198.535156" xlink:href="#DejaVuSans-45"/>
     <use x="1234.619141" xlink:href="#DejaVuSans-68"/>
    </g>
    <!-- 41 targets: 100..1e-06 -->
    <g transform="translate(60.41088 49.533135)scale(0.102 -0.102)">
     <defs>
      <path d="M 11.71875 12.40625 
L 22.015625 12.40625 
L 22.015625 0 
L 11.71875 0 
z
M 11.71875 51.703125 
L 22.015625 51.703125 
L 22.015625 39.3125 
L 11.71875 39.3125 
z
" id="DejaVuSans-58"/>
     </defs>
     <use xlink:href="#DejaVuSans-52"/>
     <use x="63.623047" xlink:href="#DejaVuSans-49"/>
     <use x="127.246094" xlink:href="#DejaVuSans-32"/>
     <use x="159.033203" xlink:href="#DejaVuSans-116"/>
     <use x="198.242188" xlink:href="#DejaVuSans-97"/>
     <use x="259.521484" xlink:href="#DejaVuSans-114"/>
     <use x="298.884766" xlink:href="#DejaVuSans-103"/>
     <use x="362.361328" xlink:href="#DejaVuSans-101"/>
     <use x="423.884766" xlink:href="#DejaVuSans-116"/>
     <use x="463.09375" xlink:href="#DejaVuSans-115"/>
     <use x="515.193359" xlink:href="#DejaVuSans-58"/>
     <use x="548.884766" xlink:href="#DejaVuSans-32"/>
     <use x="580.671875" xlink:href="#DejaVuSans-49"/>
     <use x="644.294922" xlink:href="#DejaVuSans-48"/>
     <use x="707.917969" xlink:href="#DejaVuSans-48"/>
     <use x="771.541016" xlink:href="#DejaVuSans-46"/>
     <use x="803.328125" xlink:href="#DejaVuSans-46"/>
     <use x="835.115234" xlink:href="#DejaVuSans-49"/>
     <use x="898.738281" xlink:href="#DejaVuSans-101"/>
     <use x="960.261719" xlink:href="#DejaVuSans-45"/>
     <use x="996.345703" xlink:href="#DejaVuSans-48"/>
     <use x="1059.96875" xlink:href="#DejaVuSans-54"/>
    </g>
    <!-- 30, 15 instances -->
    <g transform="translate(60.41088 60.954904)scale(0.102 -0.102)">
     <defs>
      <path d="M 40.578125 39.3125 
Q 47.65625 37.796875 51.625 33 
Q 55.609375 28.21875 55.609375 21.1875 
Q 55.609375 10.40625 48.1875 4.484375 
Q 40.765625 -1.421875 27.09375 -1.421875 
Q 22.515625 -1.421875 17.65625 -0.515625 
Q 12.796875 0.390625 7.625 2.203125 
L 7.625 11.71875 
Q 11.71875 9.328125 16.59375 8.109375 
Q 21.484375 6.890625 26.8125 6.890625 
Q 36.078125 6.890625 40.9375 10.546875 
Q 45.796875 14.203125 45.796875 21.1875 
Q 45.796875 27.640625 41.28125 31.265625 
Q 36.765625 34.90625 28.71875 34.90625 
L 20.21875 34.90625 
L 20.21875 43.015625 
L 29.109375 43.015625 
Q 36.375 43.015625 40.234375 45.921875 
Q 44.09375 48.828125 44.09375 54.296875 
Q 44.09375 59.90625 40.109375 62.90625 
Q 36.140625 65.921875 28.71875 65.921875 
Q 24.65625 65.921875 20.015625 65.03125 
Q 15.375 64.15625 9.8125 62.3125 
L 9.8125 71.09375 
Q 15.4375 72.65625 20.34375 73.4375 
Q 25.25 74.21875 29.59375 74.21875 
Q 40.828125 74.21875 47.359375 69.109375 
Q 53.90625 64.015625 53.90625 55.328125 
Q 53.90625 49.265625 50.4375 45.09375 
Q 46.96875 40.921875 40.578125 39.3125 
z
" id="DejaVuSans-51"/>
     </defs>
     <use xlink:href="#DejaVuSans-51"/>
     <use x="63.623047" xlink:href="#DejaVuSans-48"/>
     <use x="127.246094" xlink:href="#DejaVuSans-44"/>
     <use x="159.033203" xlink:href="#DejaVuSans-32"/>
     <use x="190.820312" xlink:href="#DejaVuSans-49"/>
     <use x="254.443359" xlink:href="#DejaVuSans-53"/>
     <use x="318.066406" xlink:href="#DejaVuSans-32"/>
     <use x="349.853516" xlink:href="#DejaVuSans-105"/>
     <use x="377.636719" xlink:href="#DejaVuSans-110"/>
     <use x="441.015625" xlink:href="#DejaVuSans-115"/>
     <use x="493.115234" xlink:href="#DejaVuSans-116"/>
     <use x="532.324219" xlink:href="#DejaVuSans-97"/>
     <use x="593.603516" xlink:href="#DejaVuSans-110"/>
     <use x="656.982422" xlink:href="#DejaVuSans-99"/>
     <use x="711.962891" xlink:href="#DejaVuSans-101"/>
     <use x="773.486328" xlink:href="#DejaVuSans-115"/>
    </g>
   </g>
   <g id="text_18">
    <!-- v5z33 -->
    <g style="fill:#808080;" transform="translate(183.016656 294.151352)scale(0.1 -0.1)">
     <defs>
      <path d="M 5.515625 54.6875 
L 48.1875 54.6875 
L 48.1875 46.484375 
L 14.40625 7.171875 
L 48.1875 7.171875 
L 48.1875 0 
L 4.296875 0 
L 4.296875 8.203125 
L 38.09375 47.515625 
L 5.515625 47.515625 
z
" id="DejaVuSans-122"/>
     </defs>
     <use xlink:href="#DejaVuSans-118"/>
     <use x="59.179688" xlink:href="#DejaVuSans-53"/>
     <use x="122.802734" xlink:href="#DejaVuSans-122"/>
     <use x="175.292969" xlink:href="#DejaVuSans-51"/>
     <use x="238.916016" xlink:href="#DejaVuSans-51"/>
    </g>
   </g>
   <g id="text_19">
    <!-- 26 Discus, 2 constraints -->
    <g transform="translate(78.042437 21.648)scale(0.2 -0.2)">
     <use xlink:href="#DejaVuSans-50"/>
     <use x="63.623047" xlink:href="#DejaVuSans-54"/>
     <use x="127.246094" xlink:href="#DejaVuSans-32"/>
     <use x="159.033203" xlink:href="#DejaVuSans-68"/>
     <use x="236.035156" xlink:href="#DejaVuSans-105"/>
     <use x="263.818359" xlink:href="#DejaVuSans-115"/>
     <use x="315.917969" xlink:href="#DejaVuSans-99"/>
     <use x="370.898438" xlink:href="#DejaVuSans-117"/>
     <use x="434.277344" xlink:href="#DejaVuSans-115"/>
     <use x="486.376953" xlink:href="#DejaVuSans-44"/>
     <use x="518.164062" xlink:href="#DejaVuSans-32"/>
     <use x="549.951172" xlink:href="#DejaVuSans-50"/>
     <use x="613.574219" xlink:href="#DejaVuSans-32"/>
     <use x="645.361328" xlink:href="#DejaVuSans-99"/>
     <use x="700.341797" xlink:href="#DejaVuSans-111"/>
     <use x="761.523438" xlink:href="#DejaVuSans-110"/>
     <use x="824.902344" xlink:href="#DejaVuSans-115"/>
     <use x="877.001953" xlink:href="#DejaVuSans-116"/>
     <use x="916.210938" xlink:href="#DejaVuSans-114"/>
     <use x="957.324219" xlink:href="#DejaVuSans-97"/>
     <use x="1018.603516" xlink:href="#DejaVuSans-105"/>
     <use x="1046.386719" xlink:href="#DejaVuSans-110"/>
     <use x="1109.765625" xlink:href="#DejaVuSans-116"/>
     <use x="1148.974609" xlink:href="#DejaVuSans-115"/>
    </g>
   </g>
  </g>
 </g>
 <defs>
  <clipPath id="p0401fb6367">
   <rect height="271.296" width="281.088" x="57.6" y="27.648"/>
  </clipPath>
 </defs>
</svg>
