<?xml version="1.0" encoding="utf-8" standalone="no"?>
<!DOCTYPE svg PUBLIC "-//W3C//DTD SVG 1.1//EN"
  "http://www.w3.org/Graphics/SVG/1.1/DTD/svg11.dtd">
<!-- Created with matplotlib (https://matplotlib.org/) -->
<svg height="345.6pt" version="1.1" viewBox="0 0 460.8 345.6" width="460.8pt" xmlns="http://www.w3.org/2000/svg" xmlns:xlink="http://www.w3.org/1999/xlink">
 <metadata>
  <rdf:RDF xmlns:cc="http://creativecommons.org/ns#" xmlns:dc="http://purl.org/dc/elements/1.1/" xmlns:rdf="http://www.w3.org/1999/02/22-rdf-syntax-ns#">
   <cc:Work>
    <dc:type rdf:resource="http://purl.org/dc/dcmitype/StillImage"/>
    <dc:date>2021-04-09T10:16:11.106328</dc:date>
    <dc:format>image/svg+xml</dc:format>
    <dc:creator>
     <cc:Agent>
      <dc:title>Matplotlib v3.3.3, https://matplotlib.org/</dc:title>
     </cc:Agent>
    </dc:creator>
   </cc:Work>
  </rdf:RDF>
 </metadata>
 <defs>
  <style type="text/css">*{stroke-linecap:butt;stroke-linejoin:round;}</style>
 </defs>
 <g id="figure_1">
  <g id="patch_1">
   <path d="M 0 345.6 
L 460.8 345.6 
L 460.8 0 
L 0 0 
z
" style="fill:#ffffff;"/>
  </g>
  <g id="axes_1">
   <g id="patch_2">
    <path d="M 57.6 298.944 
L 338.688 298.944 
L 338.688 27.648 
L 57.6 27.648 
z
" style="fill:#ffffff;"/>
   </g>
   <g id="matplotlib.axis_1">
    <g id="xtick_1">
     <g id="line2d_1">
      <path clip-path="url(#p7a1d1f4c4a)" d="M 57.6 298.944 
L 57.6 27.648 
" style="fill:none;stroke:#b0b0b0;stroke-linecap:square;stroke-width:0.8;"/>
     </g>
     <g id="line2d_2">
      <defs>
       <path d="M 0 0 
L 0 3.5 
" id="m5558fee65f" style="stroke:#000000;stroke-width:0.8;"/>
      </defs>
      <g>
       <use style="stroke:#000000;stroke-width:0.8;" x="57.6" xlink:href="#m5558fee65f" y="298.944"/>
      </g>
     </g>
     <g id="text_1">
      <!-- 0 -->
      <g transform="translate(51.2375 321.140875)scale(0.2 -0.2)">
       <defs>
        <path d="M 31.78125 66.40625 
Q 24.171875 66.40625 20.328125 58.90625 
Q 16.5 51.421875 16.5 36.375 
Q 16.5 21.390625 20.328125 13.890625 
Q 24.171875 6.390625 31.78125 6.390625 
Q 39.453125 6.390625 43.28125 13.890625 
Q 47.125 21.390625 47.125 36.375 
Q 47.125 51.421875 43.28125 58.90625 
Q 39.453125 66.40625 31.78125 66.40625 
z
M 31.78125 74.21875 
Q 44.046875 74.21875 50.515625 64.515625 
Q 56.984375 54.828125 56.984375 36.375 
Q 56.984375 17.96875 50.515625 8.265625 
Q 44.046875 -1.421875 31.78125 -1.421875 
Q 19.53125 -1.421875 13.0625 8.265625 
Q 6.59375 17.96875 6.59375 36.375 
Q 6.59375 54.828125 13.0625 64.515625 
Q 19.53125 74.21875 31.78125 74.21875 
z
" id="DejaVuSans-48"/>
       </defs>
       <use xlink:href="#DejaVuSans-48"/>
      </g>
     </g>
    </g>
    <g id="xtick_2">
     <g id="line2d_3">
      <path clip-path="url(#p7a1d1f4c4a)" d="M 137.910857 298.944 
L 137.910857 27.648 
" style="fill:none;stroke:#b0b0b0;stroke-linecap:square;stroke-width:0.8;"/>
     </g>
     <g id="line2d_4">
      <g>
       <use style="stroke:#000000;stroke-width:0.8;" x="137.910857" xlink:href="#m5558fee65f" y="298.944"/>
      </g>
     </g>
     <g id="text_2">
      <!-- 2 -->
      <g transform="translate(131.548357 321.140875)scale(0.2 -0.2)">
       <defs>
        <path d="M 19.1875 8.296875 
L 53.609375 8.296875 
L 53.609375 0 
L 7.328125 0 
L 7.328125 8.296875 
Q 12.9375 14.109375 22.625 23.890625 
Q 32.328125 33.6875 34.8125 36.53125 
Q 39.546875 41.84375 41.421875 45.53125 
Q 43.3125 49.21875 43.3125 52.78125 
Q 43.3125 58.59375 39.234375 62.25 
Q 35.15625 65.921875 28.609375 65.921875 
Q 23.96875 65.921875 18.8125 64.3125 
Q 13.671875 62.703125 7.8125 59.421875 
L 7.8125 69.390625 
Q 13.765625 71.78125 18.9375 73 
Q 24.125 74.21875 28.421875 74.21875 
Q 39.75 74.21875 46.484375 68.546875 
Q 53.21875 62.890625 53.21875 53.421875 
Q 53.21875 48.921875 51.53125 44.890625 
Q 49.859375 40.875 45.40625 35.40625 
Q 44.1875 33.984375 37.640625 27.21875 
Q 31.109375 20.453125 19.1875 8.296875 
z
" id="DejaVuSans-50"/>
       </defs>
       <use xlink:href="#DejaVuSans-50"/>
      </g>
     </g>
    </g>
    <g id="xtick_3">
     <g id="line2d_5">
      <path clip-path="url(#p7a1d1f4c4a)" d="M 218.221714 298.944 
L 218.221714 27.648 
" style="fill:none;stroke:#b0b0b0;stroke-linecap:square;stroke-width:0.8;"/>
     </g>
     <g id="line2d_6">
      <g>
       <use style="stroke:#000000;stroke-width:0.8;" x="218.221714" xlink:href="#m5558fee65f" y="298.944"/>
      </g>
     </g>
     <g id="text_3">
      <!-- 4 -->
      <g transform="translate(211.859214 321.140875)scale(0.2 -0.2)">
       <defs>
        <path d="M 37.796875 64.3125 
L 12.890625 25.390625 
L 37.796875 25.390625 
z
M 35.203125 72.90625 
L 47.609375 72.90625 
L 47.609375 25.390625 
L 58.015625 25.390625 
L 58.015625 17.1875 
L 47.609375 17.1875 
L 47.609375 0 
L 37.796875 0 
L 37.796875 17.1875 
L 4.890625 17.1875 
L 4.890625 26.703125 
z
" id="DejaVuSans-52"/>
       </defs>
       <use xlink:href="#DejaVuSans-52"/>
      </g>
     </g>
    </g>
    <g id="xtick_4">
     <g id="line2d_7">
      <path clip-path="url(#p7a1d1f4c4a)" d="M 298.532571 298.944 
L 298.532571 27.648 
" style="fill:none;stroke:#b0b0b0;stroke-linecap:square;stroke-width:0.8;"/>
     </g>
     <g id="line2d_8">
      <g>
       <use style="stroke:#000000;stroke-width:0.8;" x="298.532571" xlink:href="#m5558fee65f" y="298.944"/>
      </g>
     </g>
     <g id="text_4">
      <!-- 6 -->
      <g transform="translate(292.170071 321.140875)scale(0.2 -0.2)">
       <defs>
        <path d="M 33.015625 40.375 
Q 26.375 40.375 22.484375 35.828125 
Q 18.609375 31.296875 18.609375 23.390625 
Q 18.609375 15.53125 22.484375 10.953125 
Q 26.375 6.390625 33.015625 6.390625 
Q 39.65625 6.390625 43.53125 10.953125 
Q 47.40625 15.53125 47.40625 23.390625 
Q 47.40625 31.296875 43.53125 35.828125 
Q 39.65625 40.375 33.015625 40.375 
z
M 52.59375 71.296875 
L 52.59375 62.3125 
Q 48.875 64.0625 45.09375 64.984375 
Q 41.3125 65.921875 37.59375 65.921875 
Q 27.828125 65.921875 22.671875 59.328125 
Q 17.53125 52.734375 16.796875 39.40625 
Q 19.671875 43.65625 24.015625 45.921875 
Q 28.375 48.1875 33.59375 48.1875 
Q 44.578125 48.1875 50.953125 41.515625 
Q 57.328125 34.859375 57.328125 23.390625 
Q 57.328125 12.15625 50.6875 5.359375 
Q 44.046875 -1.421875 33.015625 -1.421875 
Q 20.359375 -1.421875 13.671875 8.265625 
Q 6.984375 17.96875 6.984375 36.375 
Q 6.984375 53.65625 15.1875 63.9375 
Q 23.390625 74.21875 37.203125 74.21875 
Q 40.921875 74.21875 44.703125 73.484375 
Q 48.484375 72.75 52.59375 71.296875 
z
" id="DejaVuSans-54"/>
       </defs>
       <use xlink:href="#DejaVuSans-54"/>
      </g>
     </g>
    </g>
    <g id="xtick_5">
     <g id="line2d_9">
      <path clip-path="url(#p7a1d1f4c4a)" d="M 97.755429 298.944 
L 97.755429 27.648 
" style="fill:none;stroke:#b0b0b0;stroke-linecap:square;stroke-width:0.8;"/>
     </g>
     <g id="line2d_10">
      <defs>
       <path d="M 0 0 
L 0 2 
" id="m20dab06ea1" style="stroke:#000000;stroke-width:0.6;"/>
      </defs>
      <g>
       <use style="stroke:#000000;stroke-width:0.6;" x="97.755429" xlink:href="#m20dab06ea1" y="298.944"/>
      </g>
     </g>
    </g>
    <g id="xtick_6">
     <g id="line2d_11">
      <path clip-path="url(#p7a1d1f4c4a)" d="M 178.066286 298.944 
L 178.066286 27.648 
" style="fill:none;stroke:#b0b0b0;stroke-linecap:square;stroke-width:0.8;"/>
     </g>
     <g id="line2d_12">
      <g>
       <use style="stroke:#000000;stroke-width:0.6;" x="178.066286" xlink:href="#m20dab06ea1" y="298.944"/>
      </g>
     </g>
    </g>
    <g id="xtick_7">
     <g id="line2d_13">
      <path clip-path="url(#p7a1d1f4c4a)" d="M 258.377143 298.944 
L 258.377143 27.648 
" style="fill:none;stroke:#b0b0b0;stroke-linecap:square;stroke-width:0.8;"/>
     </g>
     <g id="line2d_14">
      <g>
       <use style="stroke:#000000;stroke-width:0.6;" x="258.377143" xlink:href="#m20dab06ea1" y="298.944"/>
      </g>
     </g>
    </g>
    <g id="xtick_8">
     <g id="line2d_15">
      <path clip-path="url(#p7a1d1f4c4a)" d="M 338.688 298.944 
L 338.688 27.648 
" style="fill:none;stroke:#b0b0b0;stroke-linecap:square;stroke-width:0.8;"/>
     </g>
     <g id="line2d_16">
      <g>
       <use style="stroke:#000000;stroke-width:0.6;" x="338.688" xlink:href="#m20dab06ea1" y="298.944"/>
      </g>
     </g>
    </g>
    <g id="text_5">
     <!-- log10(# (f+g)-evals / dimension) -->
     <g transform="translate(58.145016 342.217594)scale(0.17 -0.17)">
      <defs>
       <path d="M 9.421875 75.984375 
L 18.40625 75.984375 
L 18.40625 0 
L 9.421875 0 
z
" id="DejaVuSans-108"/>
       <path d="M 30.609375 48.390625 
Q 23.390625 48.390625 19.1875 42.75 
Q 14.984375 37.109375 14.984375 27.296875 
Q 14.984375 17.484375 19.15625 11.84375 
Q 23.34375 6.203125 30.609375 6.203125 
Q 37.796875 6.203125 41.984375 11.859375 
Q 46.1875 17.53125 46.1875 27.296875 
Q 46.1875 37.015625 41.984375 42.703125 
Q 37.796875 48.390625 30.609375 48.390625 
z
M 30.609375 56 
Q 42.328125 56 49.015625 48.375 
Q 55.71875 40.765625 55.71875 27.296875 
Q 55.71875 13.875 49.015625 6.21875 
Q 42.328125 -1.421875 30.609375 -1.421875 
Q 18.84375 -1.421875 12.171875 6.21875 
Q 5.515625 13.875 5.515625 27.296875 
Q 5.515625 40.765625 12.171875 48.375 
Q 18.84375 56 30.609375 56 
z
" id="DejaVuSans-111"/>
       <path d="M 45.40625 27.984375 
Q 45.40625 37.75 41.375 43.109375 
Q 37.359375 48.484375 30.078125 48.484375 
Q 22.859375 48.484375 18.828125 43.109375 
Q 14.796875 37.75 14.796875 27.984375 
Q 14.796875 18.265625 18.828125 12.890625 
Q 22.859375 7.515625 30.078125 7.515625 
Q 37.359375 7.515625 41.375 12.890625 
Q 45.40625 18.265625 45.40625 27.984375 
z
M 54.390625 6.78125 
Q 54.390625 -7.171875 48.1875 -13.984375 
Q 42 -20.796875 29.203125 -20.796875 
Q 24.46875 -20.796875 20.265625 -20.09375 
Q 16.0625 -19.390625 12.109375 -17.921875 
L 12.109375 -9.1875 
Q 16.0625 -11.328125 19.921875 -12.34375 
Q 23.78125 -13.375 27.78125 -13.375 
Q 36.625 -13.375 41.015625 -8.765625 
Q 45.40625 -4.15625 45.40625 5.171875 
L 45.40625 9.625 
Q 42.625 4.78125 38.28125 2.390625 
Q 33.9375 0 27.875 0 
Q 17.828125 0 11.671875 7.65625 
Q 5.515625 15.328125 5.515625 27.984375 
Q 5.515625 40.671875 11.671875 48.328125 
Q 17.828125 56 27.875 56 
Q 33.9375 56 38.28125 53.609375 
Q 42.625 51.21875 45.40625 46.390625 
L 45.40625 54.6875 
L 54.390625 54.6875 
z
" id="DejaVuSans-103"/>
       <path d="M 12.40625 8.296875 
L 28.515625 8.296875 
L 28.515625 63.921875 
L 10.984375 60.40625 
L 10.984375 69.390625 
L 28.421875 72.90625 
L 38.28125 72.90625 
L 38.28125 8.296875 
L 54.390625 8.296875 
L 54.390625 0 
L 12.40625 0 
z
" id="DejaVuSans-49"/>
       <path d="M 31 75.875 
Q 24.46875 64.65625 21.28125 53.65625 
Q 18.109375 42.671875 18.109375 31.390625 
Q 18.109375 20.125 21.3125 9.0625 
Q 24.515625 -2 31 -13.1875 
L 23.1875 -13.1875 
Q 15.875 -1.703125 12.234375 9.375 
Q 8.59375 20.453125 8.59375 31.390625 
Q 8.59375 42.28125 12.203125 53.3125 
Q 15.828125 64.359375 23.1875 75.875 
z
" id="DejaVuSans-40"/>
       <path d="M 51.125 44 
L 36.921875 44 
L 32.8125 27.6875 
L 47.125 27.6875 
z
M 43.796875 71.78125 
L 38.71875 51.515625 
L 52.984375 51.515625 
L 58.109375 71.78125 
L 65.921875 71.78125 
L 60.890625 51.515625 
L 76.125 51.515625 
L 76.125 44 
L 58.984375 44 
L 54.984375 27.6875 
L 70.515625 27.6875 
L 70.515625 20.21875 
L 53.078125 20.21875 
L 48 0 
L 40.1875 0 
L 45.21875 20.21875 
L 30.90625 20.21875 
L 25.875 0 
L 18.015625 0 
L 23.09375 20.21875 
L 7.71875 20.21875 
L 7.71875 27.6875 
L 24.90625 27.6875 
L 29 44 
L 13.28125 44 
L 13.28125 51.515625 
L 30.90625 51.515625 
L 35.890625 71.78125 
z
" id="DejaVuSans-35"/>
       <path id="DejaVuSans-32"/>
       <path d="M 37.109375 75.984375 
L 37.109375 68.5 
L 28.515625 68.5 
Q 23.6875 68.5 21.796875 66.546875 
Q 19.921875 64.59375 19.921875 59.515625 
L 19.921875 54.6875 
L 34.71875 54.6875 
L 34.71875 47.703125 
L 19.921875 47.703125 
L 19.921875 0 
L 10.890625 0 
L 10.890625 47.703125 
L 2.296875 47.703125 
L 2.296875 54.6875 
L 10.890625 54.6875 
L 10.890625 58.5 
Q 10.890625 67.625 15.140625 71.796875 
Q 19.390625 75.984375 28.609375 75.984375 
z
" id="DejaVuSans-102"/>
       <path d="M 46 62.703125 
L 46 35.5 
L 73.1875 35.5 
L 73.1875 27.203125 
L 46 27.203125 
L 46 0 
L 37.796875 0 
L 37.796875 27.203125 
L 10.59375 27.203125 
L 10.59375 35.5 
L 37.796875 35.5 
L 37.796875 62.703125 
z
" id="DejaVuSans-43"/>
       <path d="M 8.015625 75.875 
L 15.828125 75.875 
Q 23.140625 64.359375 26.78125 53.3125 
Q 30.421875 42.28125 30.421875 31.390625 
Q 30.421875 20.453125 26.78125 9.375 
Q 23.140625 -1.703125 15.828125 -13.1875 
L 8.015625 -13.1875 
Q 14.5 -2 17.703125 9.0625 
Q 20.90625 20.125 20.90625 31.390625 
Q 20.90625 42.671875 17.703125 53.65625 
Q 14.5 64.65625 8.015625 75.875 
z
" id="DejaVuSans-41"/>
       <path d="M 4.890625 31.390625 
L 31.203125 31.390625 
L 31.203125 23.390625 
L 4.890625 23.390625 
z
" id="DejaVuSans-45"/>
       <path d="M 56.203125 29.59375 
L 56.203125 25.203125 
L 14.890625 25.203125 
Q 15.484375 15.921875 20.484375 11.0625 
Q 25.484375 6.203125 34.421875 6.203125 
Q 39.59375 6.203125 44.453125 7.46875 
Q 49.3125 8.734375 54.109375 11.28125 
L 54.109375 2.78125 
Q 49.265625 0.734375 44.1875 -0.34375 
Q 39.109375 -1.421875 33.890625 -1.421875 
Q 20.796875 -1.421875 13.15625 6.1875 
Q 5.515625 13.8125 5.515625 26.8125 
Q 5.515625 40.234375 12.765625 48.109375 
Q 20.015625 56 32.328125 56 
Q 43.359375 56 49.78125 48.890625 
Q 56.203125 41.796875 56.203125 29.59375 
z
M 47.21875 32.234375 
Q 47.125 39.59375 43.09375 43.984375 
Q 39.0625 48.390625 32.421875 48.390625 
Q 24.90625 48.390625 20.390625 44.140625 
Q 15.875 39.890625 15.1875 32.171875 
z
" id="DejaVuSans-101"/>
       <path d="M 2.984375 54.6875 
L 12.5 54.6875 
L 29.59375 8.796875 
L 46.6875 54.6875 
L 56.203125 54.6875 
L 35.6875 0 
L 23.484375 0 
z
" id="DejaVuSans-118"/>
       <path d="M 34.28125 27.484375 
Q 23.390625 27.484375 19.1875 25 
Q 14.984375 22.515625 14.984375 16.5 
Q 14.984375 11.71875 18.140625 8.90625 
Q 21.296875 6.109375 26.703125 6.109375 
Q 34.1875 6.109375 38.703125 11.40625 
Q 43.21875 16.703125 43.21875 25.484375 
L 43.21875 27.484375 
z
M 52.203125 31.203125 
L 52.203125 0 
L 43.21875 0 
L 43.21875 8.296875 
Q 40.140625 3.328125 35.546875 0.953125 
Q 30.953125 -1.421875 24.3125 -1.421875 
Q 15.921875 -1.421875 10.953125 3.296875 
Q 6 8.015625 6 15.921875 
Q 6 25.140625 12.171875 29.828125 
Q 18.359375 34.515625 30.609375 34.515625 
L 43.21875 34.515625 
L 43.21875 35.40625 
Q 43.21875 41.609375 39.140625 45 
Q 35.0625 48.390625 27.6875 48.390625 
Q 23 48.390625 18.546875 47.265625 
Q 14.109375 46.140625 10.015625 43.890625 
L 10.015625 52.203125 
Q 14.9375 54.109375 19.578125 55.046875 
Q 24.21875 56 28.609375 56 
Q 40.484375 56 46.34375 49.84375 
Q 52.203125 43.703125 52.203125 31.203125 
z
" id="DejaVuSans-97"/>
       <path d="M 44.28125 53.078125 
L 44.28125 44.578125 
Q 40.484375 46.53125 36.375 47.5 
Q 32.28125 48.484375 27.875 48.484375 
Q 21.1875 48.484375 17.84375 46.4375 
Q 14.5 44.390625 14.5 40.28125 
Q 14.5 37.15625 16.890625 35.375 
Q 19.28125 33.59375 26.515625 31.984375 
L 29.59375 31.296875 
Q 39.15625 29.25 43.1875 25.515625 
Q 47.21875 21.78125 47.21875 15.09375 
Q 47.21875 7.46875 41.1875 3.015625 
Q 35.15625 -1.421875 24.609375 -1.421875 
Q 20.21875 -1.421875 15.453125 -0.5625 
Q 10.6875 0.296875 5.421875 2 
L 5.421875 11.28125 
Q 10.40625 8.6875 15.234375 7.390625 
Q 20.0625 6.109375 24.8125 6.109375 
Q 31.15625 6.109375 34.5625 8.28125 
Q 37.984375 10.453125 37.984375 14.40625 
Q 37.984375 18.0625 35.515625 20.015625 
Q 33.0625 21.96875 24.703125 23.78125 
L 21.578125 24.515625 
Q 13.234375 26.265625 9.515625 29.90625 
Q 5.8125 33.546875 5.8125 39.890625 
Q 5.8125 47.609375 11.28125 51.796875 
Q 16.75 56 26.8125 56 
Q 31.78125 56 36.171875 55.265625 
Q 40.578125 54.546875 44.28125 53.078125 
z
" id="DejaVuSans-115"/>
       <path d="M 25.390625 72.90625 
L 33.6875 72.90625 
L 8.296875 -9.28125 
L 0 -9.28125 
z
" id="DejaVuSans-47"/>
       <path d="M 45.40625 46.390625 
L 45.40625 75.984375 
L 54.390625 75.984375 
L 54.390625 0 
L 45.40625 0 
L 45.40625 8.203125 
Q 42.578125 3.328125 38.25 0.953125 
Q 33.9375 -1.421875 27.875 -1.421875 
Q 17.96875 -1.421875 11.734375 6.484375 
Q 5.515625 14.40625 5.515625 27.296875 
Q 5.515625 40.1875 11.734375 48.09375 
Q 17.96875 56 27.875 56 
Q 33.9375 56 38.25 53.625 
Q 42.578125 51.265625 45.40625 46.390625 
z
M 14.796875 27.296875 
Q 14.796875 17.390625 18.875 11.75 
Q 22.953125 6.109375 30.078125 6.109375 
Q 37.203125 6.109375 41.296875 11.75 
Q 45.40625 17.390625 45.40625 27.296875 
Q 45.40625 37.203125 41.296875 42.84375 
Q 37.203125 48.484375 30.078125 48.484375 
Q 22.953125 48.484375 18.875 42.84375 
Q 14.796875 37.203125 14.796875 27.296875 
z
" id="DejaVuSans-100"/>
       <path d="M 9.421875 54.6875 
L 18.40625 54.6875 
L 18.40625 0 
L 9.421875 0 
z
M 9.421875 75.984375 
L 18.40625 75.984375 
L 18.40625 64.59375 
L 9.421875 64.59375 
z
" id="DejaVuSans-105"/>
       <path d="M 52 44.1875 
Q 55.375 50.25 60.0625 53.125 
Q 64.75 56 71.09375 56 
Q 79.640625 56 84.28125 50.015625 
Q 88.921875 44.046875 88.921875 33.015625 
L 88.921875 0 
L 79.890625 0 
L 79.890625 32.71875 
Q 79.890625 40.578125 77.09375 44.375 
Q 74.3125 48.1875 68.609375 48.1875 
Q 61.625 48.1875 57.5625 43.546875 
Q 53.515625 38.921875 53.515625 30.90625 
L 53.515625 0 
L 44.484375 0 
L 44.484375 32.71875 
Q 44.484375 40.625 41.703125 44.40625 
Q 38.921875 48.1875 33.109375 48.1875 
Q 26.21875 48.1875 22.15625 43.53125 
Q 18.109375 38.875 18.109375 30.90625 
L 18.109375 0 
L 9.078125 0 
L 9.078125 54.6875 
L 18.109375 54.6875 
L 18.109375 46.1875 
Q 21.1875 51.21875 25.484375 53.609375 
Q 29.78125 56 35.6875 56 
Q 41.65625 56 45.828125 52.96875 
Q 50 49.953125 52 44.1875 
z
" id="DejaVuSans-109"/>
       <path d="M 54.890625 33.015625 
L 54.890625 0 
L 45.90625 0 
L 45.90625 32.71875 
Q 45.90625 40.484375 42.875 44.328125 
Q 39.84375 48.1875 33.796875 48.1875 
Q 26.515625 48.1875 22.3125 43.546875 
Q 18.109375 38.921875 18.109375 30.90625 
L 18.109375 0 
L 9.078125 0 
L 9.078125 54.6875 
L 18.109375 54.6875 
L 18.109375 46.1875 
Q 21.34375 51.125 25.703125 53.5625 
Q 30.078125 56 35.796875 56 
Q 45.21875 56 50.046875 50.171875 
Q 54.890625 44.34375 54.890625 33.015625 
z
" id="DejaVuSans-110"/>
      </defs>
      <use xlink:href="#DejaVuSans-108"/>
      <use x="27.783203" xlink:href="#DejaVuSans-111"/>
      <use x="88.964844" xlink:href="#DejaVuSans-103"/>
      <use x="152.441406" xlink:href="#DejaVuSans-49"/>
      <use x="216.064453" xlink:href="#DejaVuSans-48"/>
      <use x="279.6875" xlink:href="#DejaVuSans-40"/>
      <use x="318.701172" xlink:href="#DejaVuSans-35"/>
      <use x="402.490234" xlink:href="#DejaVuSans-32"/>
      <use x="434.277344" xlink:href="#DejaVuSans-40"/>
      <use x="473.291016" xlink:href="#DejaVuSans-102"/>
      <use x="508.496094" xlink:href="#DejaVuSans-43"/>
      <use x="592.285156" xlink:href="#DejaVuSans-103"/>
      <use x="655.761719" xlink:href="#DejaVuSans-41"/>
      <use x="694.775391" xlink:href="#DejaVuSans-45"/>
      <use x="730.859375" xlink:href="#DejaVuSans-101"/>
      <use x="792.382812" xlink:href="#DejaVuSans-118"/>
      <use x="851.5625" xlink:href="#DejaVuSans-97"/>
      <use x="912.841797" xlink:href="#DejaVuSans-108"/>
      <use x="940.625" xlink:href="#DejaVuSans-115"/>
      <use x="992.724609" xlink:href="#DejaVuSans-32"/>
      <use x="1024.511719" xlink:href="#DejaVuSans-47"/>
      <use x="1058.203125" xlink:href="#DejaVuSans-32"/>
      <use x="1089.990234" xlink:href="#DejaVuSans-100"/>
      <use x="1153.466797" xlink:href="#DejaVuSans-105"/>
      <use x="1181.25" xlink:href="#DejaVuSans-109"/>
      <use x="1278.662109" xlink:href="#DejaVuSans-101"/>
      <use x="1340.185547" xlink:href="#DejaVuSans-110"/>
      <use x="1403.564453" xlink:href="#DejaVuSans-115"/>
      <use x="1455.664062" xlink:href="#DejaVuSans-105"/>
      <use x="1483.447266" xlink:href="#DejaVuSans-111"/>
      <use x="1544.628906" xlink:href="#DejaVuSans-110"/>
      <use x="1608.007812" xlink:href="#DejaVuSans-41"/>
     </g>
    </g>
   </g>
   <g id="matplotlib.axis_2">
    <g id="ytick_1">
     <g id="line2d_17">
      <path clip-path="url(#p7a1d1f4c4a)" d="M 57.6 298.944 
L 338.688 298.944 
" style="fill:none;stroke:#b0b0b0;stroke-linecap:square;stroke-width:0.8;"/>
     </g>
     <g id="line2d_18">
      <defs>
       <path d="M 0 0 
L -3.5 0 
" id="mb5b4876d96" style="stroke:#000000;stroke-width:0.8;"/>
      </defs>
      <g>
       <use style="stroke:#000000;stroke-width:0.8;" x="57.6" xlink:href="#mb5b4876d96" y="298.944"/>
      </g>
     </g>
     <g id="text_6">
      <!-- 0.0 -->
      <g transform="translate(25.155 305.02275)scale(0.16 -0.16)">
       <defs>
        <path d="M 10.6875 12.40625 
L 21 12.40625 
L 21 0 
L 10.6875 0 
z
" id="DejaVuSans-46"/>
       </defs>
       <use xlink:href="#DejaVuSans-48"/>
       <use x="63.623047" xlink:href="#DejaVuSans-46"/>
       <use x="95.410156" xlink:href="#DejaVuSans-48"/>
      </g>
     </g>
    </g>
    <g id="ytick_2">
     <g id="line2d_19">
      <path clip-path="url(#p7a1d1f4c4a)" d="M 57.6 245.22202 
L 338.688 245.22202 
" style="fill:none;stroke:#b0b0b0;stroke-linecap:square;stroke-width:0.8;"/>
     </g>
     <g id="line2d_20">
      <g>
       <use style="stroke:#000000;stroke-width:0.8;" x="57.6" xlink:href="#mb5b4876d96" y="245.22202"/>
      </g>
     </g>
     <g id="text_7">
      <!-- 0.2 -->
      <g transform="translate(25.155 251.30077)scale(0.16 -0.16)">
       <use xlink:href="#DejaVuSans-48"/>
       <use x="63.623047" xlink:href="#DejaVuSans-46"/>
       <use x="95.410156" xlink:href="#DejaVuSans-50"/>
      </g>
     </g>
    </g>
    <g id="ytick_3">
     <g id="line2d_21">
      <path clip-path="url(#p7a1d1f4c4a)" d="M 57.6 191.50004 
L 338.688 191.50004 
" style="fill:none;stroke:#b0b0b0;stroke-linecap:square;stroke-width:0.8;"/>
     </g>
     <g id="line2d_22">
      <g>
       <use style="stroke:#000000;stroke-width:0.8;" x="57.6" xlink:href="#mb5b4876d96" y="191.50004"/>
      </g>
     </g>
     <g id="text_8">
      <!-- 0.4 -->
      <g transform="translate(25.155 197.57879)scale(0.16 -0.16)">
       <use xlink:href="#DejaVuSans-48"/>
       <use x="63.623047" xlink:href="#DejaVuSans-46"/>
       <use x="95.410156" xlink:href="#DejaVuSans-52"/>
      </g>
     </g>
    </g>
    <g id="ytick_4">
     <g id="line2d_23">
      <path clip-path="url(#p7a1d1f4c4a)" d="M 57.6 137.778059 
L 338.688 137.778059 
" style="fill:none;stroke:#b0b0b0;stroke-linecap:square;stroke-width:0.8;"/>
     </g>
     <g id="line2d_24">
      <g>
       <use style="stroke:#000000;stroke-width:0.8;" x="57.6" xlink:href="#mb5b4876d96" y="137.778059"/>
      </g>
     </g>
     <g id="text_9">
      <!-- 0.6 -->
      <g transform="translate(25.155 143.856809)scale(0.16 -0.16)">
       <use xlink:href="#DejaVuSans-48"/>
       <use x="63.623047" xlink:href="#DejaVuSans-46"/>
       <use x="95.410156" xlink:href="#DejaVuSans-54"/>
      </g>
     </g>
    </g>
    <g id="ytick_5">
     <g id="line2d_25">
      <path clip-path="url(#p7a1d1f4c4a)" d="M 57.6 84.056079 
L 338.688 84.056079 
" style="fill:none;stroke:#b0b0b0;stroke-linecap:square;stroke-width:0.8;"/>
     </g>
     <g id="line2d_26">
      <g>
       <use style="stroke:#000000;stroke-width:0.8;" x="57.6" xlink:href="#mb5b4876d96" y="84.056079"/>
      </g>
     </g>
     <g id="text_10">
      <!-- 0.8 -->
      <g transform="translate(25.155 90.134829)scale(0.16 -0.16)">
       <defs>
        <path d="M 31.78125 34.625 
Q 24.75 34.625 20.71875 30.859375 
Q 16.703125 27.09375 16.703125 20.515625 
Q 16.703125 13.921875 20.71875 10.15625 
Q 24.75 6.390625 31.78125 6.390625 
Q 38.8125 6.390625 42.859375 10.171875 
Q 46.921875 13.96875 46.921875 20.515625 
Q 46.921875 27.09375 42.890625 30.859375 
Q 38.875 34.625 31.78125 34.625 
z
M 21.921875 38.8125 
Q 15.578125 40.375 12.03125 44.71875 
Q 8.5 49.078125 8.5 55.328125 
Q 8.5 64.0625 14.71875 69.140625 
Q 20.953125 74.21875 31.78125 74.21875 
Q 42.671875 74.21875 48.875 69.140625 
Q 55.078125 64.0625 55.078125 55.328125 
Q 55.078125 49.078125 51.53125 44.71875 
Q 48 40.375 41.703125 38.8125 
Q 48.828125 37.15625 52.796875 32.3125 
Q 56.78125 27.484375 56.78125 20.515625 
Q 56.78125 9.90625 50.3125 4.234375 
Q 43.84375 -1.421875 31.78125 -1.421875 
Q 19.734375 -1.421875 13.25 4.234375 
Q 6.78125 9.90625 6.78125 20.515625 
Q 6.78125 27.484375 10.78125 32.3125 
Q 14.796875 37.15625 21.921875 38.8125 
z
M 18.3125 54.390625 
Q 18.3125 48.734375 21.84375 45.5625 
Q 25.390625 42.390625 31.78125 42.390625 
Q 38.140625 42.390625 41.71875 45.5625 
Q 45.3125 48.734375 45.3125 54.390625 
Q 45.3125 60.0625 41.71875 63.234375 
Q 38.140625 66.40625 31.78125 66.40625 
Q 25.390625 66.40625 21.84375 63.234375 
Q 18.3125 60.0625 18.3125 54.390625 
z
" id="DejaVuSans-56"/>
       </defs>
       <use xlink:href="#DejaVuSans-48"/>
       <use x="63.623047" xlink:href="#DejaVuSans-46"/>
       <use x="95.410156" xlink:href="#DejaVuSans-56"/>
      </g>
     </g>
    </g>
    <g id="ytick_6">
     <g id="line2d_27">
      <path clip-path="url(#p7a1d1f4c4a)" d="M 57.6 30.334099 
L 338.688 30.334099 
" style="fill:none;stroke:#b0b0b0;stroke-linecap:square;stroke-width:0.8;"/>
     </g>
     <g id="line2d_28">
      <g>
       <use style="stroke:#000000;stroke-width:0.8;" x="57.6" xlink:href="#mb5b4876d96" y="30.334099"/>
      </g>
     </g>
     <g id="text_11">
      <!-- 1.0 -->
      <g transform="translate(25.155 36.412849)scale(0.16 -0.16)">
       <use xlink:href="#DejaVuSans-49"/>
       <use x="63.623047" xlink:href="#DejaVuSans-46"/>
       <use x="95.410156" xlink:href="#DejaVuSans-48"/>
      </g>
     </g>
    </g>
    <g id="text_12">
     <!-- Fraction of function,target pairs -->
     <g transform="translate(17.619531 297.681)rotate(-90)scale(0.17 -0.17)">
      <defs>
       <path d="M 9.8125 72.90625 
L 51.703125 72.90625 
L 51.703125 64.59375 
L 19.671875 64.59375 
L 19.671875 43.109375 
L 48.578125 43.109375 
L 48.578125 34.8125 
L 19.671875 34.8125 
L 19.671875 0 
L 9.8125 0 
z
" id="DejaVuSans-70"/>
       <path d="M 41.109375 46.296875 
Q 39.59375 47.171875 37.8125 47.578125 
Q 36.03125 48 33.890625 48 
Q 26.265625 48 22.1875 43.046875 
Q 18.109375 38.09375 18.109375 28.8125 
L 18.109375 0 
L 9.078125 0 
L 9.078125 54.6875 
L 18.109375 54.6875 
L 18.109375 46.1875 
Q 20.953125 51.171875 25.484375 53.578125 
Q 30.03125 56 36.53125 56 
Q 37.453125 56 38.578125 55.875 
Q 39.703125 55.765625 41.0625 55.515625 
z
" id="DejaVuSans-114"/>
       <path d="M 48.78125 52.59375 
L 48.78125 44.1875 
Q 44.96875 46.296875 41.140625 47.34375 
Q 37.3125 48.390625 33.40625 48.390625 
Q 24.65625 48.390625 19.8125 42.84375 
Q 14.984375 37.3125 14.984375 27.296875 
Q 14.984375 17.28125 19.8125 11.734375 
Q 24.65625 6.203125 33.40625 6.203125 
Q 37.3125 6.203125 41.140625 7.25 
Q 44.96875 8.296875 48.78125 10.40625 
L 48.78125 2.09375 
Q 45.015625 0.34375 40.984375 -0.53125 
Q 36.96875 -1.421875 32.421875 -1.421875 
Q 20.0625 -1.421875 12.78125 6.34375 
Q 5.515625 14.109375 5.515625 27.296875 
Q 5.515625 40.671875 12.859375 48.328125 
Q 20.21875 56 33.015625 56 
Q 37.15625 56 41.109375 55.140625 
Q 45.0625 54.296875 48.78125 52.59375 
z
" id="DejaVuSans-99"/>
       <path d="M 18.3125 70.21875 
L 18.3125 54.6875 
L 36.8125 54.6875 
L 36.8125 47.703125 
L 18.3125 47.703125 
L 18.3125 18.015625 
Q 18.3125 11.328125 20.140625 9.421875 
Q 21.96875 7.515625 27.59375 7.515625 
L 36.8125 7.515625 
L 36.8125 0 
L 27.59375 0 
Q 17.1875 0 13.234375 3.875 
Q 9.28125 7.765625 9.28125 18.015625 
L 9.28125 47.703125 
L 2.6875 47.703125 
L 2.6875 54.6875 
L 9.28125 54.6875 
L 9.28125 70.21875 
z
" id="DejaVuSans-116"/>
       <path d="M 8.5 21.578125 
L 8.5 54.6875 
L 17.484375 54.6875 
L 17.484375 21.921875 
Q 17.484375 14.15625 20.5 10.265625 
Q 23.53125 6.390625 29.59375 6.390625 
Q 36.859375 6.390625 41.078125 11.03125 
Q 45.3125 15.671875 45.3125 23.6875 
L 45.3125 54.6875 
L 54.296875 54.6875 
L 54.296875 0 
L 45.3125 0 
L 45.3125 8.40625 
Q 42.046875 3.421875 37.71875 1 
Q 33.40625 -1.421875 27.6875 -1.421875 
Q 18.265625 -1.421875 13.375 4.4375 
Q 8.5 10.296875 8.5 21.578125 
z
M 31.109375 56 
z
" id="DejaVuSans-117"/>
       <path d="M 11.71875 12.40625 
L 22.015625 12.40625 
L 22.015625 4 
L 14.015625 -11.625 
L 7.71875 -11.625 
L 11.71875 4 
z
" id="DejaVuSans-44"/>
       <path d="M 18.109375 8.203125 
L 18.109375 -20.796875 
L 9.078125 -20.796875 
L 9.078125 54.6875 
L 18.109375 54.6875 
L 18.109375 46.390625 
Q 20.953125 51.265625 25.265625 53.625 
Q 29.59375 56 35.59375 56 
Q 45.5625 56 51.78125 48.09375 
Q 58.015625 40.1875 58.015625 27.296875 
Q 58.015625 14.40625 51.78125 6.484375 
Q 45.5625 -1.421875 35.59375 -1.421875 
Q 29.59375 -1.421875 25.265625 0.953125 
Q 20.953125 3.328125 18.109375 8.203125 
z
M 48.6875 27.296875 
Q 48.6875 37.203125 44.609375 42.84375 
Q 40.53125 48.484375 33.40625 48.484375 
Q 26.265625 48.484375 22.1875 42.84375 
Q 18.109375 37.203125 18.109375 27.296875 
Q 18.109375 17.390625 22.1875 11.75 
Q 26.265625 6.109375 33.40625 6.109375 
Q 40.53125 6.109375 44.609375 11.75 
Q 48.6875 17.390625 48.6875 27.296875 
z
" id="DejaVuSans-112"/>
      </defs>
      <use xlink:href="#DejaVuSans-70"/>
      <use x="50.269531" xlink:href="#DejaVuSans-114"/>
      <use x="91.382812" xlink:href="#DejaVuSans-97"/>
      <use x="152.662109" xlink:href="#DejaVuSans-99"/>
      <use x="207.642578" xlink:href="#DejaVuSans-116"/>
      <use x="246.851562" xlink:href="#DejaVuSans-105"/>
      <use x="274.634766" xlink:href="#DejaVuSans-111"/>
      <use x="335.816406" xlink:href="#DejaVuSans-110"/>
      <use x="399.195312" xlink:href="#DejaVuSans-32"/>
      <use x="430.982422" xlink:href="#DejaVuSans-111"/>
      <use x="492.164062" xlink:href="#DejaVuSans-102"/>
      <use x="527.369141" xlink:href="#DejaVuSans-32"/>
      <use x="559.15625" xlink:href="#DejaVuSans-102"/>
      <use x="594.361328" xlink:href="#DejaVuSans-117"/>
      <use x="657.740234" xlink:href="#DejaVuSans-110"/>
      <use x="721.119141" xlink:href="#DejaVuSans-99"/>
      <use x="776.099609" xlink:href="#DejaVuSans-116"/>
      <use x="815.308594" xlink:href="#DejaVuSans-105"/>
      <use x="843.091797" xlink:href="#DejaVuSans-111"/>
      <use x="904.273438" xlink:href="#DejaVuSans-110"/>
      <use x="967.652344" xlink:href="#DejaVuSans-44"/>
      <use x="999.439453" xlink:href="#DejaVuSans-116"/>
      <use x="1038.648438" xlink:href="#DejaVuSans-97"/>
      <use x="1099.927734" xlink:href="#DejaVuSans-114"/>
      <use x="1139.291016" xlink:href="#DejaVuSans-103"/>
      <use x="1202.767578" xlink:href="#DejaVuSans-101"/>
      <use x="1264.291016" xlink:href="#DejaVuSans-116"/>
      <use x="1303.5" xlink:href="#DejaVuSans-32"/>
      <use x="1335.287109" xlink:href="#DejaVuSans-112"/>
      <use x="1398.763672" xlink:href="#DejaVuSans-97"/>
      <use x="1460.042969" xlink:href="#DejaVuSans-105"/>
      <use x="1487.826172" xlink:href="#DejaVuSans-114"/>
      <use x="1528.939453" xlink:href="#DejaVuSans-115"/>
     </g>
    </g>
   </g>
   <g id="line2d_29">
    <defs>
     <path d="M 0 1.5 
C 0.397805 1.5 0.77937 1.341951 1.06066 1.06066 
C 1.341951 0.77937 1.5 0.397805 1.5 0 
C 1.5 -0.397805 1.341951 -0.77937 1.06066 -1.06066 
C 0.77937 -1.341951 0.397805 -1.5 0 -1.5 
C -0.397805 -1.5 -0.77937 -1.341951 -1.06066 -1.06066 
C -1.341951 -0.77937 -1.5 -0.397805 -1.5 0 
C -1.5 0.397805 -1.341951 0.77937 -1.06066 1.06066 
C -0.77937 1.341951 -0.397805 1.5 0 1.5 
z
" id="m3679e3ae87" style="stroke:#000080;"/>
    </defs>
    <g>
     <use style="fill:#000080;stroke:#000080;" x="217.943974" xlink:href="#m3679e3ae87" y="30.334099"/>
     <use style="fill:#000080;stroke:#000080;" x="217.943974" xlink:href="#m3679e3ae87" y="30.334099"/>
    </g>
   </g>
   <g id="line2d_30">
    <path d="M 45.512012 298.944 
L 45.512012 295.013123 
L 99.41757 295.013123 
L 99.41757 294.357977 
L 111.505558 294.357977 
L 111.505558 293.047685 
L 116.323218 293.047685 
L 116.323218 290.427101 
L 117.486268 290.427101 
L 117.486268 286.496224 
L 118.039942 286.496224 
L 118.039942 285.185932 
L 119.097192 285.185932 
L 119.097192 284.530786 
L 122.362027 284.530786 
L 122.362027 280.599909 
L 122.782271 280.599909 
L 122.782271 279.289617 
L 123.192626 279.289617 
L 123.192626 278.634471 
L 123.593547 278.634471 
L 123.593547 277.324179 
L 123.985457 277.324179 
L 123.985457 274.048448 
L 124.368753 274.048448 
L 124.368753 272.08301 
L 125.110962 272.08301 
L 125.110962 266.841841 
L 125.470548 266.841841 
L 125.470548 266.186695 
L 126.168212 266.186695 
L 126.168212 264.876403 
L 126.839037 264.876403 
L 126.839037 264.221257 
L 127.48501 264.221257 
L 127.48501 262.910965 
L 128.411207 262.910965 
L 128.411207 257.669796 
L 129.574256 257.669796 
L 129.574256 253.738919 
L 130.398313 253.738919 
L 130.398313 252.428627 
L 131.185181 252.428627 
L 131.185181 249.808043 
L 131.938072 249.808043 
L 131.938072 248.49775 
L 132.181982 248.49775 
L 132.181982 247.187458 
L 132.422528 247.187458 
L 132.422528 246.532312 
L 134.236034 246.532312 
L 134.236034 245.877166 
L 134.450015 245.877166 
L 134.450015 243.911728 
L 134.661403 243.911728 
L 134.661403 243.256582 
L 135.076644 243.256582 
L 135.076644 242.601435 
L 135.482227 242.601435 
L 135.482227 238.670559 
L 136.073445 238.670559 
L 136.073445 238.015413 
L 136.456742 238.015413 
L 136.456742 236.705121 
L 136.645276 236.705121 
L 136.645276 235.394828 
L 136.831795 235.394828 
L 136.831795 232.119098 
L 137.016339 232.119098 
L 137.016339 230.808806 
L 137.735587 230.808806 
L 137.735587 228.188221 
L 137.910857 228.188221 
L 137.910857 226.877929 
L 138.426341 226.877929 
L 138.426341 226.222783 
L 140.79731 226.222783 
L 140.79731 225.567637 
L 141.090414 225.567637 
L 141.090414 224.912491 
L 141.378673 224.912491 
L 141.378673 222.291906 
L 141.662245 222.291906 
L 141.662245 221.63676 
L 142.07914 221.63676 
L 142.07914 220.981614 
L 144.026061 220.981614 
L 144.026061 220.326468 
L 144.269971 220.326468 
L 144.269971 218.36103 
L 144.629556 218.36103 
L 144.629556 217.705884 
L 144.865226 217.705884 
L 144.865226 217.050738 
L 144.981877 217.050738 
L 144.981877 216.395591 
L 145.327221 216.395591 
L 145.327221 215.740445 
L 145.440832 215.740445 
L 145.440832 215.085299 
L 145.665858 215.085299 
L 145.665858 214.430153 
L 147.061745 214.430153 
L 147.061745 213.775007 
L 147.4697 213.775007 
L 147.4697 213.119861 
L 148.54473 213.119861 
L 148.54473 211.154423 
L 148.733265 211.154423 
L 148.733265 210.499277 
L 149.012299 210.499277 
L 149.012299 209.188984 
L 149.911431 209.188984 
L 149.911431 207.878692 
L 150.766468 207.878692 
L 150.766468 205.258108 
L 151.421542 205.258108 
L 151.501723 203.292669 
L 151.581536 203.292669 
L 151.660987 200.016939 
L 152.130233 200.016939 
L 152.207228 198.706647 
L 152.283884 198.706647 
L 152.283884 198.051501 
L 153.679772 198.051501 
L 153.679772 197.396355 
L 153.820412 197.396355 
L 153.820412 196.086062 
L 154.507086 196.086062 
L 154.507086 195.430916 
L 155.102793 195.430916 
L 155.102793 194.77577 
L 155.55245 194.77577 
L 155.55245 194.120624 
L 155.678822 194.120624 
L 155.678822 193.465478 
L 155.990803 193.465478 
L 155.990803 192.810332 
L 156.357959 192.810332 
L 156.418408 191.50004 
L 156.478647 191.50004 
L 156.478647 188.879455 
L 158.249784 188.879455 
L 158.304027 187.569163 
L 158.67908 187.569163 
L 158.67908 186.914017 
L 159.046236 186.914017 
L 159.046236 185.603725 
L 159.608019 185.603725 
L 159.608019 184.293433 
L 160.054568 184.293433 
L 160.054568 183.638286 
L 160.394148 183.638286 
L 160.442124 182.327994 
L 161.329454 182.327994 
L 161.329454 181.017702 
L 161.734513 181.017702 
L 161.823263 179.70741 
L 162.346481 179.70741 
L 162.432178 177.741972 
L 162.68677 177.741972 
L 162.68677 173.811095 
L 162.812686 173.811095 
L 162.854457 171.190511 
L 162.9377 171.190511 
L 163.020547 169.880218 
L 163.225959 169.880218 
L 163.225959 169.225072 
L 164.140886 169.225072 
L 164.179597 167.91478 
L 164.333587 167.91478 
L 164.333587 165.949342 
L 164.448194 165.949342 
L 164.448194 165.294196 
L 164.562052 165.294196 
L 164.562052 164.63905 
L 164.712717 164.63905 
L 164.712717 162.673611 
L 165.010195 162.673611 
L 165.010195 161.363319 
L 165.302685 161.363319 
L 165.302685 160.708173 
L 165.447111 160.708173 
L 165.483031 159.397881 
L 165.697012 159.397881 
L 165.697012 158.742735 
L 166.117256 158.742735 
L 166.117256 158.087589 
L 166.459886 158.087589 
L 166.459886 157.432442 
L 166.895472 157.432442 
L 166.895472 156.12215 
L 167.0929 156.12215 
L 167.125588 153.501566 
L 167.320442 153.501566 
L 167.320442 152.84642 
L 167.481174 152.84642 
L 167.545055 150.880981 
L 168.078792 150.880981 
L 168.078792 150.225835 
L 168.263336 150.225835 
L 168.263336 149.570689 
L 168.476198 149.570689 
L 168.476198 148.915543 
L 168.894283 148.915543 
L 168.9532 145.639813 
L 169.186895 145.639813 
L 169.186895 144.984667 
L 169.388841 144.984667 
L 169.388841 143.019228 
L 169.560096 143.019228 
L 169.616809 139.743498 
L 170.14658 139.743498 
L 170.14658 138.433206 
L 170.337772 138.433206 
L 170.337772 137.778059 
L 170.473066 137.778059 
L 170.526891 134.502329 
L 170.660731 134.502329 
L 170.660731 133.847183 
L 171.846131 133.847183 
L 171.920711 131.881745 
L 172.044307 131.881745 
L 172.118046 129.26116 
L 172.62567 129.26116 
L 172.696997 124.019991 
L 172.815229 124.019991 
L 172.862299 122.709699 
L 173.049317 122.709699 
L 173.118935 121.399407 
L 173.977519 121.399407 
L 173.977519 120.744261 
L 174.326753 120.744261 
L 174.369919 119.433969 
L 174.626698 119.433969 
L 174.626698 118.778823 
L 174.879752 118.778823 
L 174.879752 118.123676 
L 175.004915 118.123676 
L 175.004915 117.46853 
L 175.149812 117.46853 
L 175.232072 116.158238 
L 175.757513 116.158238 
L 175.757513 115.503092 
L 175.955464 115.503092 
L 176.053603 113.537654 
L 176.574218 113.537654 
L 176.650041 112.227362 
L 176.687829 112.227362 
L 176.687829 111.572215 
L 177.061275 111.572215 
L 177.061275 110.917069 
L 177.390674 110.917069 
L 177.390674 110.261923 
L 177.678338 110.261923 
L 177.767269 108.951631 
L 177.92621 108.951631 
L 177.92621 108.296485 
L 178.222537 108.296485 
L 178.222537 107.641339 
L 178.479885 107.641339 
L 178.58177 106.331047 
L 178.850589 106.331047 
L 178.850589 105.675901 
L 179.01652 105.675901 
L 179.098898 103.710462 
L 179.164521 103.710462 
L 179.246204 102.40017 
L 179.392276 102.40017 
L 179.392276 101.745024 
L 179.521099 101.745024 
L 179.521099 101.089878 
L 179.648977 101.089878 
L 179.744273 99.12444 
L 179.791727 99.12444 
L 179.791727 98.469293 
L 180.151313 98.469293 
L 180.151313 97.159001 
L 180.45808 97.159001 
L 180.45808 95.848709 
L 180.952739 95.848709 
L 180.952739 95.193563 
L 181.187615 95.193563 
L 181.289386 92.572979 
L 181.390568 92.572979 
L 181.47683 91.262686 
L 181.54839 91.262686 
L 181.633877 87.986956 
L 182.668539 87.986956 
L 182.668539 87.33181 
L 182.868304 87.33181 
L 182.868304 86.676664 
L 183.144185 86.676664 
L 183.144185 86.021518 
L 183.299894 86.021518 
L 183.338605 84.711225 
L 183.594505 84.711225 
L 183.594505 84.056079 
L 183.809106 84.056079 
L 183.809106 83.400933 
L 184.509968 83.400933 
L 184.570125 82.090641 
L 185.008946 82.090641 
L 185.102392 80.780349 
L 185.562255 80.780349 
L 185.618894 79.470057 
L 185.943825 79.470057 
L 185.966012 78.159764 
L 186.131524 78.159764 
L 186.175396 76.849472 
L 186.425543 76.849472 
L 186.425543 76.194326 
L 186.576068 76.194326 
L 186.682796 74.228888 
L 187.340566 74.228888 
L 187.340566 73.573742 
L 187.875338 73.573742 
L 187.934858 72.263449 
L 188.326548 72.263449 
L 188.394199 69.642865 
L 188.747484 69.642865 
L 188.747484 68.987719 
L 188.879315 68.987719 
L 188.879315 68.332573 
L 189.268932 68.332573 
L 189.268932 67.677427 
L 189.578083 67.677427 
L 189.578083 67.022281 
L 189.71275 67.022281 
L 189.71275 66.367135 
L 190.084377 66.367135 
L 190.084377 65.056842 
L 190.405328 65.056842 
L 190.405328 64.401696 
L 190.661291 64.401696 
L 190.661291 63.74655 
L 190.787877 63.74655 
L 190.855016 62.436258 
L 191.195103 62.436258 
L 191.195103 60.47082 
L 191.317886 60.47082 
L 191.317886 59.815674 
L 191.760838 59.815674 
L 191.832262 58.505381 
L 191.895505 58.505381 
L 191.919162 57.195089 
L 192.161759 57.195089 
L 192.247037 55.884797 
L 192.674828 55.884797 
L 192.674828 55.229651 
L 193.528928 55.229651 
L 193.528928 54.574505 
L 193.721866 54.574505 
L 193.799862 51.95392 
L 193.849315 51.95392 
L 193.849315 51.298774 
L 194.349999 51.298774 
L 194.349999 50.643628 
L 194.635561 50.643628 
L 194.635561 49.988482 
L 195.225655 49.988482 
L 195.225655 49.333336 
L 195.790124 49.333336 
L 195.790124 48.67819 
L 196.003413 48.67819 
L 196.003413 48.023044 
L 197.570638 48.023044 
L 197.667255 45.402459 
L 197.68991 45.402459 
L 197.68991 44.747313 
L 197.948358 44.747313 
L 197.948358 44.092167 
L 198.334443 44.092167 
L 198.334443 43.437021 
L 198.594331 43.437021 
L 198.594331 42.781875 
L 198.940202 42.781875 
L 198.940202 42.126729 
L 200.249142 42.126729 
L 200.2882 40.816437 
L 200.702637 40.816437 
L 200.740694 39.506144 
L 201.616432 39.506144 
L 201.616432 38.850998 
L 202.566222 38.850998 
L 202.566222 38.195852 
L 202.926244 38.195852 
L 202.926244 37.540706 
L 204.089699 37.540706 
L 204.089699 36.88556 
L 204.280806 36.88556 
L 204.280806 35.575268 
L 207.19918 35.575268 
L 207.19918 34.920122 
L 211.242878 34.920122 
L 211.242878 34.264976 
L 211.447242 34.264976 
L 211.447242 33.60983 
L 212.22435 33.60983 
L 212.22435 32.954683 
L 212.407859 32.954683 
L 212.407859 32.299537 
L 215.465291 32.299537 
L 215.465291 31.644391 
L 216.26375 31.644391 
L 216.26375 30.989245 
L 217.943974 30.989245 
L 217.943974 30.334099 
L 338.688 30.334099 
L 338.688 30.334099 
" style="fill:none;stroke:#000080;stroke-linecap:square;stroke-width:1.5;"/>
   </g>
   <g id="line2d_31">
    <defs>
     <path d="M 0 6 
C 1.591219 6 3.117479 5.367802 4.242641 4.242641 
C 5.367802 3.117479 6 1.591219 6 0 
C 6 -1.591219 5.367802 -3.117479 4.242641 -4.242641 
C 3.117479 -5.367802 1.591219 -6 0 -6 
C -1.591219 -6 -3.117479 -5.367802 -4.242641 -4.242641 
C -5.367802 -3.117479 -6 -1.591219 -6 0 
C -6 1.591219 -5.367802 3.117479 -4.242641 4.242641 
C -3.117479 5.367802 -1.591219 6 0 6 
z
" id="m0c6028fe41" style="stroke:#000080;stroke-width:1.5;"/>
    </defs>
    <g>
     <use style="fill-opacity:0;stroke:#000080;stroke-width:1.5;" x="119.097192" xlink:href="#m0c6028fe41" y="284.530786"/>
     <use style="fill-opacity:0;stroke:#000080;stroke-width:1.5;" x="156.478647" xlink:href="#m0c6028fe41" y="188.879455"/>
     <use style="fill-opacity:0;stroke:#000080;stroke-width:1.5;" x="184.509968" xlink:href="#m0c6028fe41" y="82.745787"/>
     <use style="fill-opacity:0;stroke:#000080;stroke-width:1.5;" x="217.943974" xlink:href="#m0c6028fe41" y="30.989245"/>
     <use style="fill-opacity:0;stroke:#000080;stroke-width:1.5;" x="217.943974" xlink:href="#m0c6028fe41" y="30.334099"/>
     <use style="fill-opacity:0;stroke:#000080;stroke-width:1.5;" x="338.688" xlink:href="#m0c6028fe41" y="30.334099"/>
    </g>
   </g>
   <g id="line2d_32">
    <path style="fill:none;stroke:#000080;stroke-linecap:square;stroke-width:1.5;"/>
    <g/>
   </g>
   <g id="line2d_33">
    <path clip-path="url(#p7a1d1f4c4a)" d="M 208.910469 34.920122 
" style="fill:none;stroke:#000080;stroke-linecap:square;stroke-width:1.5;"/>
    <defs>
     <path d="M -12 12 
L 12 -12 
M -12 -12 
L 12 12 
" id="m746c3a8018" style="stroke:#000080;"/>
    </defs>
    <g clip-path="url(#p7a1d1f4c4a)">
     <use style="fill:#000080;stroke:#000080;" x="208.910469" xlink:href="#m746c3a8018" y="34.920122"/>
    </g>
   </g>
   <g id="line2d_34">
    <defs>
     <path d="M 0 1.5 
C 0.397805 1.5 0.77937 1.341951 1.06066 1.06066 
C 1.341951 0.77937 1.5 0.397805 1.5 0 
C 1.5 -0.397805 1.341951 -0.77937 1.06066 -1.06066 
C 0.77937 -1.341951 0.397805 -1.5 0 -1.5 
C -0.397805 -1.5 -0.77937 -1.341951 -1.06066 -1.06066 
C -1.341951 -0.77937 -1.5 -0.397805 -1.5 0 
C -1.5 0.397805 -1.341951 0.77937 -1.06066 1.06066 
C -0.77937 1.341951 -0.397805 1.5 0 1.5 
z
" id="mdc54c2f264" style="stroke:#ff00ff;"/>
    </defs>
    <g>
     <use style="fill:#ff00ff;stroke:#ff00ff;" x="183.280506" xlink:href="#mdc54c2f264" y="226.877929"/>
     <use style="fill:#ff00ff;stroke:#ff00ff;" x="183.280506" xlink:href="#mdc54c2f264" y="226.877929"/>
    </g>
   </g>
   <g id="line2d_35">
    <path d="M 45.512012 298.944 
L 45.512012 294.357977 
L 83.830028 294.357977 
L 83.830028 293.047685 
L 87.329581 293.047685 
L 87.329581 291.737393 
L 92.73846 291.737393 
L 92.73846 287.806516 
L 108.483824 287.806516 
L 108.483824 285.841078 
L 108.948899 285.841078 
L 108.948899 284.530786 
L 110.274038 284.530786 
L 110.274038 283.87564 
L 110.694282 283.87564 
L 110.694282 283.220494 
L 112.655818 283.220494 
L 112.655818 282.565348 
L 114.080224 282.565348 
L 114.080224 280.599909 
L 114.418861 280.599909 
L 114.418861 278.634471 
L 115.711251 278.634471 
L 115.711251 277.324179 
L 116.323218 277.324179 
L 116.323218 276.669033 
L 117.202696 276.669033 
L 117.202696 276.013887 
L 118.039942 276.013887 
L 118.039942 275.35874 
L 120.571812 275.35874 
L 120.571812 274.703594 
L 121.489881 274.703594 
L 121.489881 274.048448 
L 121.712041 274.048448 
L 121.712041 272.738156 
L 122.573415 272.738156 
L 122.573415 272.08301 
L 122.988655 272.08301 
L 122.988655 271.427864 
L 123.192626 271.427864 
L 123.192626 270.117572 
L 123.394238 270.117572 
L 123.394238 269.462426 
L 123.790603 269.462426 
L 123.790603 268.807279 
L 124.368753 268.807279 
L 124.368753 268.152133 
L 124.92835 268.152133 
L 124.92835 267.496987 
L 125.470548 267.496987 
L 125.470548 266.841841 
L 127.48501 266.841841 
L 127.48501 266.186695 
L 129.853291 266.186695 
L 129.853291 265.531549 
L 129.991152 265.531549 
L 129.991152 264.876403 
L 130.796184 264.876403 
L 130.796184 264.221257 
L 131.056477 264.221257 
L 131.056477 263.566111 
L 131.690703 263.566111 
L 131.690703 262.910965 
L 133.009765 262.910965 
L 133.009765 261.600672 
L 133.124876 261.600672 
L 133.124876 260.945526 
L 134.55603 260.945526 
L 134.55603 260.29038 
L 135.076644 260.29038 
L 135.076644 259.635234 
L 135.878591 259.635234 
L 135.878591 258.980088 
L 137.107884 258.980088 
L 137.107884 258.324942 
L 137.37967 258.324942 
L 137.469333 257.01465 
L 138.426341 257.01465 
L 138.510793 254.394065 
L 138.84457 254.394065 
L 138.84457 253.738919 
L 139.172077 253.738919 
L 139.172077 252.428627 
L 141.591783 252.428627 
L 141.591783 251.773481 
L 141.80232 251.773481 
L 141.80232 251.118335 
L 143.014805 251.118335 
L 143.014805 250.463189 
L 143.464461 250.463189 
L 143.527762 249.152896 
L 143.653678 249.152896 
L 143.653678 248.49775 
L 144.026061 248.49775 
L 144.026061 247.842604 
L 144.269971 247.842604 
L 144.269971 247.187458 
L 144.688773 247.187458 
L 144.688773 246.532312 
L 144.923649 246.532312 
L 144.923649 245.877166 
L 145.155404 245.877166 
L 145.155404 245.22202 
L 145.384119 245.22202 
L 145.384119 244.566874 
L 146.906268 244.566874 
L 146.906268 243.911728 
L 147.266916 243.911728 
L 147.266916 243.256582 
L 147.818997 243.256582 
L 147.818997 242.601435 
L 148.780082 242.601435 
L 148.780082 241.946289 
L 148.919783 241.946289 
L 148.919783 241.291143 
L 151.340991 241.291143 
L 151.340991 240.635997 
L 151.501723 240.635997 
L 151.581536 239.325705 
L 151.818809 239.325705 
L 151.818809 238.670559 
L 152.959038 238.670559 
L 152.959038 238.015413 
L 153.785358 238.015413 
L 153.785358 237.360267 
L 154.337936 237.360267 
L 154.337936 236.705121 
L 155.710272 236.705121 
L 155.710272 236.049974 
L 156.776762 236.049974 
L 156.865211 234.739682 
L 158.546057 234.739682 
L 158.546057 234.084536 
L 159.201253 234.084536 
L 159.201253 233.42939 
L 160.054568 233.42939 
L 160.054568 232.774244 
L 162.875305 232.774244 
L 162.875305 232.119098 
L 164.675172 232.119098 
L 164.675172 230.808806 
L 165.375047 230.808806 
L 165.375047 230.15366 
L 167.672117 230.15366 
L 167.672117 229.498513 
L 168.491304 229.498513 
L 168.491304 228.843367 
L 171.366236 228.843367 
L 171.366236 228.188221 
L 174.250953 228.188221 
L 174.250953 227.533075 
L 183.280506 227.533075 
L 183.280506 226.877929 
L 338.688 226.877929 
L 338.688 226.877929 
" style="fill:none;stroke:#ff00ff;stroke-linecap:square;stroke-width:1.5;"/>
   </g>
   <g id="line2d_36">
    <defs>
     <path d="M -0 8.485281 
L 5.091169 0 
L 0 -8.485281 
L -5.091169 -0 
z
" id="mb2086aa514" style="stroke:#ff00ff;stroke-linejoin:miter;stroke-width:1.5;"/>
    </defs>
    <g>
     <use style="fill-opacity:0;stroke:#ff00ff;stroke-linejoin:miter;stroke-width:1.5;" x="92.73846" xlink:href="#mb2086aa514" y="291.737393"/>
     <use style="fill-opacity:0;stroke:#ff00ff;stroke-linejoin:miter;stroke-width:1.5;" x="138.84457" xlink:href="#mb2086aa514" y="253.738919"/>
     <use style="fill-opacity:0;stroke:#ff00ff;stroke-linejoin:miter;stroke-width:1.5;" x="183.280506" xlink:href="#mb2086aa514" y="227.533075"/>
     <use style="fill-opacity:0;stroke:#ff00ff;stroke-linejoin:miter;stroke-width:1.5;" x="183.280506" xlink:href="#mb2086aa514" y="226.877929"/>
     <use style="fill-opacity:0;stroke:#ff00ff;stroke-linejoin:miter;stroke-width:1.5;" x="183.280506" xlink:href="#mb2086aa514" y="226.877929"/>
     <use style="fill-opacity:0;stroke:#ff00ff;stroke-linejoin:miter;stroke-width:1.5;" x="338.688" xlink:href="#mb2086aa514" y="226.877929"/>
    </g>
   </g>
   <g id="line2d_37">
    <path style="fill:none;stroke:#ff00ff;stroke-linecap:square;stroke-width:1.5;"/>
    <g/>
   </g>
   <g id="line2d_38">
    <path clip-path="url(#p7a1d1f4c4a)" d="M 110.274038 283.87564 
" style="fill:none;stroke:#ff00ff;stroke-linecap:square;stroke-width:1.5;"/>
    <defs>
     <path d="M -12 12 
L 12 -12 
M -12 -12 
L 12 12 
" id="m995807849d" style="stroke:#ff00ff;"/>
    </defs>
    <g clip-path="url(#p7a1d1f4c4a)">
     <use style="fill:#ff00ff;stroke:#ff00ff;" x="110.274038" xlink:href="#m995807849d" y="283.87564"/>
    </g>
   </g>
   <g id="line2d_39">
    <defs>
     <path d="M 0 1.5 
C 0.397805 1.5 0.77937 1.341951 1.06066 1.06066 
C 1.341951 0.77937 1.5 0.397805 1.5 0 
C 1.5 -0.397805 1.341951 -0.77937 1.06066 -1.06066 
C 0.77937 -1.341951 0.397805 -1.5 0 -1.5 
C -0.397805 -1.5 -0.77937 -1.341951 -1.06066 -1.06066 
C -1.341951 -0.77937 -1.5 -0.397805 -1.5 0 
C -1.5 0.397805 -1.341951 0.77937 -1.06066 1.06066 
C -0.77937 1.341951 -0.397805 1.5 0 1.5 
z
" id="me406add79e" style="stroke:#ff7500;"/>
    </defs>
    <g>
     <use style="fill:#ff7500;stroke:#ff7500;" x="177.263313" xlink:href="#me406add79e" y="30.334099"/>
     <use style="fill:#ff7500;stroke:#ff7500;" x="177.263313" xlink:href="#me406add79e" y="30.334099"/>
    </g>
   </g>
   <g id="line2d_40">
    <path d="M 45.512012 298.944 
L 45.512012 293.047685 
L 118.838828 293.047685 
L 118.838828 292.392539 
L 121.264855 292.392539 
L 121.264855 291.082247 
L 121.931406 291.082247 
L 121.931406 289.771955 
L 122.362027 289.771955 
L 122.362027 288.461662 
L 123.192626 288.461662 
L 123.192626 287.806516 
L 124.557288 287.806516 
L 124.557288 287.15137 
L 125.291682 287.15137 
L 125.291682 286.496224 
L 125.996395 286.496224 
L 125.996395 283.220494 
L 128.107907 283.220494 
L 128.107907 282.565348 
L 129.147151 282.565348 
L 129.147151 281.910201 
L 129.433047 281.910201 
L 129.433047 281.255055 
L 129.714332 281.255055 
L 129.714332 279.944763 
L 130.263646 279.944763 
L 130.263646 279.289617 
L 130.664567 279.289617 
L 130.664567 276.669033 
L 130.926816 276.669033 
L 130.926816 275.35874 
L 131.439773 275.35874 
L 131.439773 273.393302 
L 131.690703 273.393302 
L 131.690703 272.738156 
L 132.30267 272.738156 
L 132.30267 270.117572 
L 132.541568 270.117572 
L 132.541568 268.152133 
L 132.777237 268.152133 
L 132.777237 267.496987 
L 133.009765 267.496987 
L 133.009765 266.841841 
L 133.239232 266.841841 
L 133.239232 266.186695 
L 133.46572 266.186695 
L 133.46572 265.531549 
L 133.800029 265.531549 
L 133.800029 264.221257 
L 134.019394 264.221257 
L 134.019394 261.600672 
L 134.870259 261.600672 
L 134.870259 260.945526 
L 135.178927 260.945526 
L 135.178927 259.635234 
L 135.381712 259.635234 
L 135.381712 257.01465 
L 135.582166 257.01465 
L 135.582166 255.049211 
L 135.780341 255.049211 
L 135.780341 254.394065 
L 136.456742 254.394065 
L 136.456742 253.083773 
L 136.645276 253.083773 
L 136.645276 251.773481 
L 137.198951 251.773481 
L 137.198951 250.463189 
L 137.997836 250.463189 
L 137.997836 249.808043 
L 138.761723 249.808043 
L 138.761723 249.152896 
L 138.927025 249.152896 
L 138.927025 248.49775 
L 139.090775 248.49775 
L 139.090775 247.187458 
L 139.413734 247.187458 
L 139.413734 246.532312 
L 139.572998 246.532312 
L 139.572998 245.877166 
L 139.8092 245.877166 
L 139.8092 245.22202 
L 140.79731 245.22202 
L 140.79731 244.566874 
L 141.235139 244.566874 
L 141.235139 243.911728 
L 141.378673 243.911728 
L 141.378673 243.256582 
L 141.521035 243.256582 
L 141.521035 242.601435 
L 141.732423 242.601435 
L 141.732423 241.946289 
L 142.283909 241.946289 
L 142.283909 240.635997 
L 142.419098 240.635997 
L 142.419098 239.980851 
L 142.619936 239.980851 
L 142.619936 239.325705 
L 143.273169 239.325705 
L 143.273169 238.015413 
L 143.840863 238.015413 
L 143.840863 236.705121 
L 144.269971 236.705121 
L 144.269971 236.049974 
L 144.865226 236.049974 
L 144.865226 235.394828 
L 145.155404 235.394828 
L 145.155404 234.739682 
L 145.270136 234.739682 
L 145.270136 234.084536 
L 145.497361 234.084536 
L 145.497361 233.42939 
L 145.609873 233.42939 
L 145.609873 232.774244 
L 145.777292 232.774244 
L 145.888018 230.808806 
L 145.998045 230.808806 
L 145.998045 230.15366 
L 146.591092 230.15366 
L 146.591092 228.188221 
L 147.164632 228.188221 
L 147.164632 227.533075 
L 147.368603 227.533075 
L 147.368603 226.877929 
L 147.570215 226.877929 
L 147.570215 226.222783 
L 147.818997 226.222783 
L 147.917524 224.257345 
L 148.015498 224.257345 
L 148.015498 223.602199 
L 148.449693 223.602199 
L 148.449693 221.63676 
L 148.919783 221.63676 
L 148.919783 219.671322 
L 149.422654 219.671322 
L 149.422654 219.016176 
L 149.646525 219.016176 
L 149.735275 217.705884 
L 149.823575 217.705884 
L 149.823575 217.050738 
L 149.998846 217.050738 
L 149.998846 215.740445 
L 150.38688 215.740445 
L 150.38688 215.085299 
L 150.640855 215.085299 
L 150.640855 214.430153 
L 151.700576 214.430153 
L 151.700576 213.119861 
L 151.818809 213.119861 
L 151.818809 212.464715 
L 152.130233 212.464715 
L 152.207228 209.188984 
L 152.322086 209.188984 
L 152.322086 207.878692 
L 152.811246 207.878692 
L 152.811246 207.223546 
L 152.959038 207.223546 
L 152.959038 206.5684 
L 153.430889 206.5684 
L 153.430889 205.913254 
L 153.573542 205.913254 
L 153.573542 201.982377 
L 153.820412 201.982377 
L 153.890309 200.672085 
L 154.098334 200.672085 
L 154.098334 200.016939 
L 154.337936 200.016939 
L 154.337936 198.706647 
L 154.707925 198.706647 
L 154.707925 198.051501 
L 154.972161 198.051501 
L 154.972161 197.396355 
L 155.135299 197.396355 
L 155.200129 194.77577 
L 155.393186 194.77577 
L 155.488919 192.810332 
L 155.61575 192.810332 
L 155.678822 190.189747 
L 155.897793 190.189747 
L 155.959855 188.879455 
L 156.021696 188.879455 
L 156.021696 186.914017 
L 156.297301 186.914017 
L 156.297301 186.258871 
L 156.418408 186.258871 
L 156.418408 185.603725 
L 156.598505 185.603725 
L 156.598505 184.293433 
L 156.747178 184.293433 
L 156.747178 183.638286 
L 156.865211 183.638286 
L 156.865211 182.98314 
L 157.069866 182.98314 
L 157.1279 181.017702 
L 157.243392 181.017702 
L 157.243392 179.70741 
L 157.443681 179.70741 
L 157.443681 179.052264 
L 157.613546 179.052264 
L 157.613546 177.086825 
L 157.725877 177.086825 
L 157.725877 175.776533 
L 157.86528 175.776533 
L 157.976006 173.811095 
L 158.086033 173.811095 
L 158.086033 173.155949 
L 158.51933 173.155949 
L 158.51933 171.845657 
L 158.732007 171.845657 
L 158.732007 171.190511 
L 158.915995 171.190511 
L 159.020266 169.880218 
L 159.201253 169.880218 
L 159.252621 167.91478 
L 159.405822 167.91478 
L 159.456591 166.604488 
L 159.783038 166.604488 
L 159.783038 165.949342 
L 159.906985 165.949342 
L 159.956318 164.63905 
L 160.103486 164.63905 
L 160.103486 163.983903 
L 160.273627 163.983903 
L 160.37011 162.018465 
L 160.537682 162.018465 
L 160.537682 161.363319 
L 160.727241 161.363319 
L 160.797798 160.053027 
L 160.891432 160.053027 
L 160.891432 159.397881 
L 161.488097 159.397881 
L 161.53316 157.432442 
L 161.823263 157.432442 
L 161.823263 156.12215 
L 161.977497 156.12215 
L 162.021314 154.811858 
L 162.10862 154.811858 
L 162.10862 154.156712 
L 162.389382 154.156712 
L 162.474869 150.880981 
L 162.53871 150.880981 
L 162.62347 149.570689 
L 162.665696 149.570689 
L 162.665696 148.260397 
L 162.854457 148.260397 
L 162.9377 146.294959 
L 162.979172 146.294959 
L 162.979172 145.639813 
L 163.123555 145.639813 
L 163.164589 143.674374 
L 163.246367 143.674374 
L 163.246367 143.019228 
L 163.50953 143.019228 
L 163.609699 141.708936 
L 163.649606 141.708936 
L 163.729146 140.398644 
L 163.808326 140.398644 
L 163.808326 139.743498 
L 163.946031 139.743498 
L 163.985177 138.433206 
L 164.160252 138.433206 
L 164.160252 137.778059 
L 164.371873 137.778059 
L 164.371873 136.467767 
L 164.562052 136.467767 
L 164.618704 134.502329 
L 164.86209 134.502329 
L 164.86209 133.192037 
L 165.010195 133.192037 
L 165.010195 131.881745 
L 165.138764 131.881745 
L 165.138764 131.226598 
L 165.338904 131.226598 
L 165.338904 130.571452 
L 165.518877 130.571452 
L 165.608172 128.606014 
L 165.643763 128.606014 
L 165.7501 125.330284 
L 165.803027 125.330284 
L 165.873346 123.364845 
L 166.065276 123.364845 
L 166.169082 120.744261 
L 166.323641 120.744261 
L 166.391896 119.433969 
L 166.476842 119.433969 
L 166.544502 117.46853 
L 166.645502 117.46853 
L 166.645502 116.813384 
L 166.978005 116.813384 
L 167.043752 114.847946 
L 167.158215 114.847946 
L 167.158215 114.1928 
L 167.43311 114.1928 
L 167.43311 113.537654 
L 167.545055 113.537654 
L 167.640438 112.227362 
L 167.672117 112.227362 
L 167.782543 110.261923 
L 167.813965 110.261923 
L 167.87664 107.641339 
L 168.047843 107.641339 
L 168.078792 105.675901 
L 168.248032 105.675901 
L 168.354881 100.434732 
L 168.476198 100.434732 
L 168.506396 96.503855 
L 168.641643 96.503855 
L 168.746115 95.193563 
L 168.77585 95.193563 
L 168.805533 93.228125 
L 168.938489 93.228125 
L 169.026567 90.60754 
L 169.157854 90.60754 
L 169.157854 89.952394 
L 169.345764 89.952394 
L 169.431813 88.642102 
L 169.460402 88.642102 
L 169.560096 86.676664 
L 169.588476 86.676664 
L 169.645097 84.711225 
L 169.715615 84.711225 
L 169.715615 83.400933 
L 169.827856 83.400933 
L 169.925477 79.470057 
L 169.953269 79.470057 
L 169.953269 78.81491 
L 170.077786 78.81491 
L 170.077786 78.159764 
L 170.310587 78.159764 
L 170.310587 76.849472 
L 170.459584 76.849472 
L 170.540321 72.918596 
L 170.607318 72.918596 
L 170.687376 70.953157 
L 170.753812 70.953157 
L 170.780315 68.987719 
L 170.885928 68.987719 
L 170.925369 67.022281 
L 171.224819 67.022281 
L 171.289242 65.711988 
L 171.340609 65.711988 
L 171.391826 64.401696 
L 171.481095 64.401696 
L 171.557249 63.091404 
L 171.595202 63.091404 
L 171.696007 60.47082 
L 171.783736 60.47082 
L 171.883461 56.539943 
L 171.945501 56.539943 
L 172.044307 54.574505 
L 172.105778 54.574505 
L 172.179258 51.298774 
L 172.361615 51.298774 
L 172.446067 48.67819 
L 172.518131 48.67819 
L 172.62567 46.057605 
L 172.732551 46.057605 
L 172.732551 45.402459 
L 172.885786 45.402459 
L 172.885786 44.747313 
L 173.014404 44.747313 
L 173.06094 42.781875 
L 173.165193 42.781875 
L 173.188276 40.816437 
L 173.922314 40.816437 
L 174.010558 39.506144 
L 174.087407 39.506144 
L 174.087407 38.850998 
L 174.509477 38.850998 
L 174.530849 37.540706 
L 174.647927 37.540706 
L 174.647927 36.88556 
L 174.764225 36.88556 
L 174.764225 36.230414 
L 175.015304 36.230414 
L 175.036065 34.920122 
L 175.19099 34.920122 
L 175.19099 34.264976 
L 175.77741 34.264976 
L 175.77741 33.60983 
L 176.373599 33.60983 
L 176.373599 32.299537 
L 176.847522 32.299537 
L 176.847522 31.644391 
L 177.088964 31.644391 
L 177.088964 30.989245 
L 177.263313 30.989245 
L 177.263313 30.334099 
L 338.688 30.334099 
L 338.688 30.334099 
" style="fill:none;stroke:#ff7500;stroke-linecap:square;stroke-width:1.5;"/>
   </g>
   <g id="line2d_41">
    <defs>
     <path d="M 0 -6 
L -1.347084 -1.854102 
L -5.706339 -1.854102 
L -2.179628 0.708204 
L -3.526712 4.854102 
L -0 2.291796 
L 3.526712 4.854102 
L 2.179628 0.708204 
L 5.706339 -1.854102 
L 1.347084 -1.854102 
z
" id="m77daf409f8" style="stroke:#ff7500;stroke-linejoin:bevel;stroke-width:1.5;"/>
    </defs>
    <g>
     <use style="fill-opacity:0;stroke:#ff7500;stroke-linejoin:bevel;stroke-width:1.5;" x="142.419098" xlink:href="#m77daf409f8" y="240.635997"/>
     <use style="fill-opacity:0;stroke:#ff7500;stroke-linejoin:bevel;stroke-width:1.5;" x="165.518877" xlink:href="#m77daf409f8" y="130.571452"/>
     <use style="fill-opacity:0;stroke:#ff7500;stroke-linejoin:bevel;stroke-width:1.5;" x="177.263313" xlink:href="#m77daf409f8" y="30.989245"/>
     <use style="fill-opacity:0;stroke:#ff7500;stroke-linejoin:bevel;stroke-width:1.5;" x="177.263313" xlink:href="#m77daf409f8" y="30.334099"/>
     <use style="fill-opacity:0;stroke:#ff7500;stroke-linejoin:bevel;stroke-width:1.5;" x="177.263313" xlink:href="#m77daf409f8" y="30.334099"/>
     <use style="fill-opacity:0;stroke:#ff7500;stroke-linejoin:bevel;stroke-width:1.5;" x="338.688" xlink:href="#m77daf409f8" y="30.334099"/>
    </g>
   </g>
   <g id="line2d_42">
    <path style="fill:none;stroke:#ff7500;stroke-linecap:square;stroke-width:1.5;"/>
    <g/>
   </g>
   <g id="line2d_43">
    <defs>
     <path d="M 0 1.5 
C 0.397805 1.5 0.77937 1.341951 1.06066 1.06066 
C 1.341951 0.77937 1.5 0.397805 1.5 0 
C 1.5 -0.397805 1.341951 -0.77937 1.06066 -1.06066 
C 0.77937 -1.341951 0.397805 -1.5 0 -1.5 
C -0.397805 -1.5 -0.77937 -1.341951 -1.06066 -1.06066 
C -1.341951 -0.77937 -1.5 -0.397805 -1.5 0 
C -1.5 0.397805 -1.341951 0.77937 -1.06066 1.06066 
C -0.77937 1.341951 -0.397805 1.5 0 1.5 
z
" id="ma827500187" style="stroke:#6495ed;"/>
    </defs>
    <g>
     <use style="fill:#6495ed;stroke:#6495ed;" x="160.37011" xlink:href="#ma827500187" y="253.083773"/>
     <use style="fill:#6495ed;stroke:#6495ed;" x="160.37011" xlink:href="#ma827500187" y="253.083773"/>
    </g>
   </g>
   <g id="line2d_44">
    <path d="M 45.512012 298.944 
L 45.512012 291.737393 
L 83.830028 291.737393 
L 83.830028 291.082247 
L 96.86091 291.082247 
L 96.86091 288.461662 
L 97.755429 288.461662 
L 97.755429 287.15137 
L 98.606294 287.15137 
L 98.606294 286.496224 
L 100.192776 286.496224 
L 100.192776 285.185932 
L 102.330873 285.185932 
L 102.330873 283.220494 
L 105.398279 283.220494 
L 105.398279 282.565348 
L 105.951954 282.565348 
L 105.951954 281.255055 
L 107.009204 281.255055 
L 107.009204 279.944763 
L 108.483824 279.944763 
L 108.483824 279.289617 
L 110.694282 279.289617 
L 110.694282 277.979325 
L 111.505558 277.979325 
L 111.505558 277.324179 
L 112.655818 277.324179 
L 112.655818 275.35874 
L 114.751048 275.35874 
L 114.751048 274.703594 
L 120.8059 274.703594 
L 120.8059 274.048448 
L 122.988655 274.048448 
L 122.988655 273.393302 
L 123.593547 273.393302 
L 123.593547 272.738156 
L 123.985457 272.738156 
L 123.985457 272.08301 
L 124.557288 272.08301 
L 124.557288 271.427864 
L 124.92835 271.427864 
L 124.92835 270.772718 
L 125.996395 270.772718 
L 125.996395 270.117572 
L 126.168212 270.117572 
L 126.168212 269.462426 
L 126.673734 269.462426 
L 126.673734 268.807279 
L 127.325746 268.807279 
L 127.325746 268.152133 
L 127.48501 268.152133 
L 127.48501 267.496987 
L 127.642832 267.496987 
L 127.642832 266.841841 
L 128.107907 266.841841 
L 128.107907 266.186695 
L 130.263646 266.186695 
L 130.263646 265.531549 
L 132.422528 265.531549 
L 132.422528 264.876403 
L 134.236034 264.876403 
L 134.236034 264.221257 
L 134.766144 264.221257 
L 134.766144 263.566111 
L 138.84457 263.566111 
L 138.84457 262.910965 
L 139.090775 262.910965 
L 139.090775 262.255818 
L 141.521035 262.255818 
L 141.521035 261.600672 
L 141.662245 261.600672 
L 141.662245 260.945526 
L 142.010346 260.945526 
L 142.010346 260.29038 
L 142.147664 260.29038 
L 142.147664 259.635234 
L 142.619936 259.635234 
L 142.619936 258.980088 
L 146.696785 258.980088 
L 146.696785 258.324942 
L 146.749392 258.324942 
L 146.749392 257.669796 
L 147.818997 257.669796 
L 147.818997 257.01465 
L 150.724698 257.01465 
L 150.724698 256.359504 
L 151.740076 256.359504 
L 151.740076 255.704357 
L 154.371897 255.704357 
L 154.371897 255.049211 
L 158.358103 255.049211 
L 158.358103 254.394065 
L 158.67908 254.394065 
L 158.67908 253.738919 
L 160.37011 253.738919 
L 160.37011 253.083773 
L 338.688 253.083773 
" style="fill:none;stroke:#6495ed;stroke-linecap:square;stroke-width:1.5;"/>
   </g>
   <g id="line2d_45">
    <defs>
     <path d="M -0 6 
L 6 -6 
L -6 -6 
z
" id="m0f78560122" style="stroke:#6495ed;stroke-linejoin:miter;stroke-width:1.5;"/>
    </defs>
    <g>
     <use style="fill-opacity:0;stroke:#6495ed;stroke-linejoin:miter;stroke-width:1.5;" x="108.483824" xlink:href="#m0f78560122" y="279.289617"/>
     <use style="fill-opacity:0;stroke:#6495ed;stroke-linejoin:miter;stroke-width:1.5;" x="154.371897" xlink:href="#m0f78560122" y="255.704357"/>
     <use style="fill-opacity:0;stroke:#6495ed;stroke-linejoin:miter;stroke-width:1.5;" x="160.37011" xlink:href="#m0f78560122" y="253.738919"/>
     <use style="fill-opacity:0;stroke:#6495ed;stroke-linejoin:miter;stroke-width:1.5;" x="160.37011" xlink:href="#m0f78560122" y="253.083773"/>
     <use style="fill-opacity:0;stroke:#6495ed;stroke-linejoin:miter;stroke-width:1.5;" x="160.37011" xlink:href="#m0f78560122" y="253.083773"/>
     <use style="fill-opacity:0;stroke:#6495ed;stroke-linejoin:miter;stroke-width:1.5;" x="338.688" xlink:href="#m0f78560122" y="253.083773"/>
    </g>
   </g>
   <g id="line2d_46">
    <path style="fill:none;stroke:#6495ed;stroke-linecap:square;stroke-width:1.5;"/>
    <g/>
   </g>
   <g id="line2d_47">
    <path clip-path="url(#p7a1d1f4c4a)" d="M 81.775977 291.737393 
" style="fill:none;stroke:#6495ed;stroke-linecap:square;stroke-width:1.5;"/>
    <defs>
     <path d="M -12 12 
L 12 -12 
M -12 -12 
L 12 12 
" id="mceeb76994e" style="stroke:#6495ed;"/>
    </defs>
    <g clip-path="url(#p7a1d1f4c4a)">
     <use style="fill:#6495ed;stroke:#6495ed;" x="81.775977" xlink:href="#mceeb76994e" y="291.737393"/>
    </g>
   </g>
   <g id="line2d_48">
    <path d="M 338.688 253.083773 
L 369.60768 293.571802 
" style="fill:none;stroke:#6495ed;stroke-linecap:square;stroke-width:1.5;"/>
    <g>
     <use style="fill-opacity:0;stroke:#6495ed;stroke-linejoin:miter;stroke-width:1.5;" x="338.688" xlink:href="#m0f78560122" y="253.083773"/>
     <use style="fill-opacity:0;stroke:#6495ed;stroke-linejoin:miter;stroke-width:1.5;" x="369.60768" xlink:href="#m0f78560122" y="293.571802"/>
    </g>
   </g>
   <g id="line2d_49">
    <path d="M 338.688 226.877929 
L 369.60768 207.616634 
" style="fill:none;stroke:#ff00ff;stroke-linecap:square;stroke-width:1.5;"/>
    <g>
     <use style="fill-opacity:0;stroke:#ff00ff;stroke-linejoin:miter;stroke-width:1.5;" x="338.688" xlink:href="#mb2086aa514" y="226.877929"/>
     <use style="fill-opacity:0;stroke:#ff00ff;stroke-linejoin:miter;stroke-width:1.5;" x="369.60768" xlink:href="#mb2086aa514" y="207.616634"/>
    </g>
   </g>
   <g id="line2d_50">
    <path d="M 338.688 30.334099 
L 369.60768 121.661465 
" style="fill:none;stroke:#000080;stroke-linecap:square;stroke-width:1.5;"/>
    <g>
     <use style="fill-opacity:0;stroke:#000080;stroke-width:1.5;" x="338.688" xlink:href="#m0c6028fe41" y="30.334099"/>
     <use style="fill-opacity:0;stroke:#000080;stroke-width:1.5;" x="369.60768" xlink:href="#m0c6028fe41" y="121.661465"/>
    </g>
   </g>
   <g id="line2d_51">
    <path d="M 338.688 30.334099 
L 369.60768 35.706297 
" style="fill:none;stroke:#ff7500;stroke-linecap:square;stroke-width:1.5;"/>
    <g>
     <use style="fill-opacity:0;stroke:#ff7500;stroke-linejoin:bevel;stroke-width:1.5;" x="338.688" xlink:href="#m77daf409f8" y="30.334099"/>
     <use style="fill-opacity:0;stroke:#ff7500;stroke-linejoin:bevel;stroke-width:1.5;" x="369.60768" xlink:href="#m77daf409f8" y="35.706297"/>
    </g>
   </g>
   <g id="line2d_52">
    <path d="M 338.688 298.944 
L 338.688 30.334099 
" style="fill:none;stroke:#000000;stroke-linecap:square;stroke-width:1.5;"/>
   </g>
   <g id="patch_3">
    <path d="M 57.6 298.944 
L 57.6 27.648 
" style="fill:none;stroke:#000000;stroke-linecap:square;stroke-linejoin:miter;stroke-width:0.8;"/>
   </g>
   <g id="patch_4">
    <path d="M 338.688 298.944 
L 338.688 27.648 
" style="fill:none;stroke:#000000;stroke-linecap:square;stroke-linejoin:miter;stroke-width:0.8;"/>
   </g>
   <g id="patch_5">
    <path d="M 57.6 298.944 
L 338.688 298.944 
" style="fill:none;stroke:#000000;stroke-linecap:square;stroke-linejoin:miter;stroke-width:0.8;"/>
   </g>
   <g id="patch_6">
    <path d="M 57.6 27.648 
L 338.688 27.648 
" style="fill:none;stroke:#000000;stroke-linecap:square;stroke-linejoin:miter;stroke-width:0.8;"/>
   </g>
   <g id="text_13">
    <!-- slsqp -->
    <g transform="translate(375.22944 298.262739)scale(0.17 -0.17)">
     <defs>
      <path d="M 14.796875 27.296875 
Q 14.796875 17.390625 18.875 11.75 
Q 22.953125 6.109375 30.078125 6.109375 
Q 37.203125 6.109375 41.296875 11.75 
Q 45.40625 17.390625 45.40625 27.296875 
Q 45.40625 37.203125 41.296875 42.84375 
Q 37.203125 48.484375 30.078125 48.484375 
Q 22.953125 48.484375 18.875 42.84375 
Q 14.796875 37.203125 14.796875 27.296875 
z
M 45.40625 8.203125 
Q 42.578125 3.328125 38.25 0.953125 
Q 33.9375 -1.421875 27.875 -1.421875 
Q 17.96875 -1.421875 11.734375 6.484375 
Q 5.515625 14.40625 5.515625 27.296875 
Q 5.515625 40.1875 11.734375 48.09375 
Q 17.96875 56 27.875 56 
Q 33.9375 56 38.25 53.625 
Q 42.578125 51.265625 45.40625 46.390625 
L 45.40625 54.6875 
L 54.390625 54.6875 
L 54.390625 -20.796875 
L 45.40625 -20.796875 
z
" id="DejaVuSans-113"/>
     </defs>
     <use xlink:href="#DejaVuSans-115"/>
     <use x="52.099609" xlink:href="#DejaVuSans-108"/>
     <use x="79.882812" xlink:href="#DejaVuSans-115"/>
     <use x="131.982422" xlink:href="#DejaVuSans-113"/>
     <use x="195.458984" xlink:href="#DejaVuSans-112"/>
    </g>
   </g>
   <g id="text_14">
    <!-- cobyla -->
    <g transform="translate(375.22944 212.307571)scale(0.17 -0.17)">
     <defs>
      <path d="M 48.6875 27.296875 
Q 48.6875 37.203125 44.609375 42.84375 
Q 40.53125 48.484375 33.40625 48.484375 
Q 26.265625 48.484375 22.1875 42.84375 
Q 18.109375 37.203125 18.109375 27.296875 
Q 18.109375 17.390625 22.1875 11.75 
Q 26.265625 6.109375 33.40625 6.109375 
Q 40.53125 6.109375 44.609375 11.75 
Q 48.6875 17.390625 48.6875 27.296875 
z
M 18.109375 46.390625 
Q 20.953125 51.265625 25.265625 53.625 
Q 29.59375 56 35.59375 56 
Q 45.5625 56 51.78125 48.09375 
Q 58.015625 40.1875 58.015625 27.296875 
Q 58.015625 14.40625 51.78125 6.484375 
Q 45.5625 -1.421875 35.59375 -1.421875 
Q 29.59375 -1.421875 25.265625 0.953125 
Q 20.953125 3.328125 18.109375 8.203125 
L 18.109375 0 
L 9.078125 0 
L 9.078125 75.984375 
L 18.109375 75.984375 
z
" id="DejaVuSans-98"/>
      <path d="M 32.171875 -5.078125 
Q 28.375 -14.84375 24.75 -17.8125 
Q 21.140625 -20.796875 15.09375 -20.796875 
L 7.90625 -20.796875 
L 7.90625 -13.28125 
L 13.1875 -13.28125 
Q 16.890625 -13.28125 18.9375 -11.515625 
Q 21 -9.765625 23.484375 -3.21875 
L 25.09375 0.875 
L 2.984375 54.6875 
L 12.5 54.6875 
L 29.59375 11.921875 
L 46.6875 54.6875 
L 56.203125 54.6875 
z
" id="DejaVuSans-121"/>
     </defs>
     <use xlink:href="#DejaVuSans-99"/>
     <use x="54.980469" xlink:href="#DejaVuSans-111"/>
     <use x="116.162109" xlink:href="#DejaVuSans-98"/>
     <use x="179.638672" xlink:href="#DejaVuSans-121"/>
     <use x="238.818359" xlink:href="#DejaVuSans-108"/>
     <use x="266.601562" xlink:href="#DejaVuSans-97"/>
    </g>
   </g>
   <g id="text_15">
    <!-- alN5 -->
    <g transform="translate(375.22944 126.352403)scale(0.17 -0.17)">
     <defs>
      <path d="M 9.8125 72.90625 
L 23.09375 72.90625 
L 55.421875 11.921875 
L 55.421875 72.90625 
L 64.984375 72.90625 
L 64.984375 0 
L 51.703125 0 
L 19.390625 60.984375 
L 19.390625 0 
L 9.8125 0 
z
" id="DejaVuSans-78"/>
      <path d="M 10.796875 72.90625 
L 49.515625 72.90625 
L 49.515625 64.59375 
L 19.828125 64.59375 
L 19.828125 46.734375 
Q 21.96875 47.46875 24.109375 47.828125 
Q 26.265625 48.1875 28.421875 48.1875 
Q 40.625 48.1875 47.75 41.5 
Q 54.890625 34.8125 54.890625 23.390625 
Q 54.890625 11.625 47.5625 5.09375 
Q 40.234375 -1.421875 26.90625 -1.421875 
Q 22.3125 -1.421875 17.546875 -0.640625 
Q 12.796875 0.140625 7.71875 1.703125 
L 7.71875 11.625 
Q 12.109375 9.234375 16.796875 8.0625 
Q 21.484375 6.890625 26.703125 6.890625 
Q 35.15625 6.890625 40.078125 11.328125 
Q 45.015625 15.765625 45.015625 23.390625 
Q 45.015625 31 40.078125 35.4375 
Q 35.15625 39.890625 26.703125 39.890625 
Q 22.75 39.890625 18.8125 39.015625 
Q 14.890625 38.140625 10.796875 36.28125 
z
" id="DejaVuSans-53"/>
     </defs>
     <use xlink:href="#DejaVuSans-97"/>
     <use x="61.279297" xlink:href="#DejaVuSans-108"/>
     <use x="89.0625" xlink:href="#DejaVuSans-78"/>
     <use x="163.867188" xlink:href="#DejaVuSans-53"/>
    </g>
   </g>
   <g id="text_16">
    <!-- l1p-cmaes -->
    <g transform="translate(375.22944 40.397235)scale(0.17 -0.17)">
     <use xlink:href="#DejaVuSans-108"/>
     <use x="27.783203" xlink:href="#DejaVuSans-49"/>
     <use x="91.40625" xlink:href="#DejaVuSans-112"/>
     <use x="154.882812" xlink:href="#DejaVuSans-45"/>
     <use x="190.966797" xlink:href="#DejaVuSans-99"/>
     <use x="245.947266" xlink:href="#DejaVuSans-109"/>
     <use x="343.359375" xlink:href="#DejaVuSans-97"/>
     <use x="404.638672" xlink:href="#DejaVuSans-101"/>
     <use x="466.162109" xlink:href="#DejaVuSans-115"/>
    </g>
   </g>
   <g id="text_17">
    <!-- bbob-constrained f2, 2-D -->
    <g transform="translate(60.41088 38.111366)scale(0.102 -0.102)">
     <defs>
      <path d="M 19.671875 64.796875 
L 19.671875 8.109375 
L 31.59375 8.109375 
Q 46.6875 8.109375 53.6875 14.9375 
Q 60.6875 21.78125 60.6875 36.53125 
Q 60.6875 51.171875 53.6875 57.984375 
Q 46.6875 64.796875 31.59375 64.796875 
z
M 9.8125 72.90625 
L 30.078125 72.90625 
Q 51.265625 72.90625 61.171875 64.09375 
Q 71.09375 55.28125 71.09375 36.53125 
Q 71.09375 17.671875 61.125 8.828125 
Q 51.171875 0 30.078125 0 
L 9.8125 0 
z
" id="DejaVuSans-68"/>
     </defs>
     <use xlink:href="#DejaVuSans-98"/>
     <use x="63.476562" xlink:href="#DejaVuSans-98"/>
     <use x="126.953125" xlink:href="#DejaVuSans-111"/>
     <use x="188.134766" xlink:href="#DejaVuSans-98"/>
     <use x="251.611328" xlink:href="#DejaVuSans-45"/>
     <use x="287.695312" xlink:href="#DejaVuSans-99"/>
     <use x="342.675781" xlink:href="#DejaVuSans-111"/>
     <use x="403.857422" xlink:href="#DejaVuSans-110"/>
     <use x="467.236328" xlink:href="#DejaVuSans-115"/>
     <use x="519.335938" xlink:href="#DejaVuSans-116"/>
     <use x="558.544922" xlink:href="#DejaVuSans-114"/>
     <use x="599.658203" xlink:href="#DejaVuSans-97"/>
     <use x="660.9375" xlink:href="#DejaVuSans-105"/>
     <use x="688.720703" xlink:href="#DejaVuSans-110"/>
     <use x="752.099609" xlink:href="#DejaVuSans-101"/>
     <use x="813.623047" xlink:href="#DejaVuSans-100"/>
     <use x="877.099609" xlink:href="#DejaVuSans-32"/>
     <use x="908.886719" xlink:href="#DejaVuSans-102"/>
     <use x="944.091797" xlink:href="#DejaVuSans-50"/>
     <use x="1007.714844" xlink:href="#DejaVuSans-44"/>
     <use x="1039.501953" xlink:href="#DejaVuSans-32"/>
     <use x="1071.289062" xlink:href="#DejaVuSans-50"/>
     <use x="1134.912109" xlink:href="#DejaVuSans-45"/>
     <use x="1170.996094" xlink:href="#DejaVuSans-68"/>
    </g>
    <!-- 41 targets: 100..1e-06 -->
    <g transform="translate(60.41088 49.533135)scale(0.102 -0.102)">
     <defs>
      <path d="M 11.71875 12.40625 
L 22.015625 12.40625 
L 22.015625 0 
L 11.71875 0 
z
M 11.71875 51.703125 
L 22.015625 51.703125 
L 22.015625 39.3125 
L 11.71875 39.3125 
z
" id="DejaVuSans-58"/>
     </defs>
     <use xlink:href="#DejaVuSans-52"/>
     <use x="63.623047" xlink:href="#DejaVuSans-49"/>
     <use x="127.246094" xlink:href="#DejaVuSans-32"/>
     <use x="159.033203" xlink:href="#DejaVuSans-116"/>
     <use x="198.242188" xlink:href="#DejaVuSans-97"/>
     <use x="259.521484" xlink:href="#DejaVuSans-114"/>
     <use x="298.884766" xlink:href="#DejaVuSans-103"/>
     <use x="362.361328" xlink:href="#DejaVuSans-101"/>
     <use x="423.884766" xlink:href="#DejaVuSans-116"/>
     <use x="463.09375" xlink:href="#DejaVuSans-115"/>
     <use x="515.193359" xlink:href="#DejaVuSans-58"/>
     <use x="548.884766" xlink:href="#DejaVuSans-32"/>
     <use x="580.671875" xlink:href="#DejaVuSans-49"/>
     <use x="644.294922" xlink:href="#DejaVuSans-48"/>
     <use x="707.917969" xlink:href="#DejaVuSans-48"/>
     <use x="771.541016" xlink:href="#DejaVuSans-46"/>
     <use x="803.328125" xlink:href="#DejaVuSans-46"/>
     <use x="835.115234" xlink:href="#DejaVuSans-49"/>
     <use x="898.738281" xlink:href="#DejaVuSans-101"/>
     <use x="960.261719" xlink:href="#DejaVuSans-45"/>
     <use x="996.345703" xlink:href="#DejaVuSans-48"/>
     <use x="1059.96875" xlink:href="#DejaVuSans-54"/>
    </g>
    <!-- 30, 15 instances -->
    <g transform="translate(60.41088 60.954904)scale(0.102 -0.102)">
     <defs>
      <path d="M 40.578125 39.3125 
Q 47.65625 37.796875 51.625 33 
Q 55.609375 28.21875 55.609375 21.1875 
Q 55.609375 10.40625 48.1875 4.484375 
Q 40.765625 -1.421875 27.09375 -1.421875 
Q 22.515625 -1.421875 17.65625 -0.515625 
Q 12.796875 0.390625 7.625 2.203125 
L 7.625 11.71875 
Q 11.71875 9.328125 16.59375 8.109375 
Q 21.484375 6.890625 26.8125 6.890625 
Q 36.078125 6.890625 40.9375 10.546875 
Q 45.796875 14.203125 45.796875 21.1875 
Q 45.796875 27.640625 41.28125 31.265625 
Q 36.765625 34.90625 28.71875 34.90625 
L 20.21875 34.90625 
L 20.21875 43.015625 
L 29.109375 43.015625 
Q 36.375 43.015625 40.234375 45.921875 
Q 44.09375 48.828125 44.09375 54.296875 
Q 44.09375 59.90625 40.109375 62.90625 
Q 36.140625 65.921875 28.71875 65.921875 
Q 24.65625 65.921875 20.015625 65.03125 
Q 15.375 64.15625 9.8125 62.3125 
L 9.8125 71.09375 
Q 15.4375 72.65625 20.34375 73.4375 
Q 25.25 74.21875 29.59375 74.21875 
Q 40.828125 74.21875 47.359375 69.109375 
Q 53.90625 64.015625 53.90625 55.328125 
Q 53.90625 49.265625 50.4375 45.09375 
Q 46.96875 40.921875 40.578125 39.3125 
z
" id="DejaVuSans-51"/>
     </defs>
     <use xlink:href="#DejaVuSans-51"/>
     <use x="63.623047" xlink:href="#DejaVuSans-48"/>
     <use x="127.246094" xlink:href="#DejaVuSans-44"/>
     <use x="159.033203" xlink:href="#DejaVuSans-32"/>
     <use x="190.820312" xlink:href="#DejaVuSans-49"/>
     <use x="254.443359" xlink:href="#DejaVuSans-53"/>
     <use x="318.066406" xlink:href="#DejaVuSans-32"/>
     <use x="349.853516" xlink:href="#DejaVuSans-105"/>
     <use x="377.636719" xlink:href="#DejaVuSans-110"/>
     <use x="441.015625" xlink:href="#DejaVuSans-115"/>
     <use x="493.115234" xlink:href="#DejaVuSans-116"/>
     <use x="532.324219" xlink:href="#DejaVuSans-97"/>
     <use x="593.603516" xlink:href="#DejaVuSans-110"/>
     <use x="656.982422" xlink:href="#DejaVuSans-99"/>
     <use x="711.962891" xlink:href="#DejaVuSans-101"/>
     <use x="773.486328" xlink:href="#DejaVuSans-115"/>
    </g>
   </g>
   <g id="text_18">
    <!-- v5z33 -->
    <g style="fill:#808080;" transform="translate(183.016656 294.151352)scale(0.1 -0.1)">
     <defs>
      <path d="M 5.515625 54.6875 
L 48.1875 54.6875 
L 48.1875 46.484375 
L 14.40625 7.171875 
L 48.1875 7.171875 
L 48.1875 0 
L 4.296875 0 
L 4.296875 8.203125 
L 38.09375 47.515625 
L 5.515625 47.515625 
z
" id="DejaVuSans-122"/>
     </defs>
     <use xlink:href="#DejaVuSans-118"/>
     <use x="59.179688" xlink:href="#DejaVuSans-53"/>
     <use x="122.802734" xlink:href="#DejaVuSans-122"/>
     <use x="175.292969" xlink:href="#DejaVuSans-51"/>
     <use x="238.916016" xlink:href="#DejaVuSans-51"/>
    </g>
   </g>
   <g id="text_19">
    <!-- 2 Sphere, 2 constraints -->
    <g transform="translate(81.911187 21.648)scale(0.2 -0.2)">
     <defs>
      <path d="M 53.515625 70.515625 
L 53.515625 60.890625 
Q 47.90625 63.578125 42.921875 64.890625 
Q 37.9375 66.21875 33.296875 66.21875 
Q 25.25 66.21875 20.875 63.09375 
Q 16.5 59.96875 16.5 54.203125 
Q 16.5 49.359375 19.40625 46.890625 
Q 22.3125 44.4375 30.421875 42.921875 
L 36.375 41.703125 
Q 47.40625 39.59375 52.65625 34.296875 
Q 57.90625 29 57.90625 20.125 
Q 57.90625 9.515625 50.796875 4.046875 
Q 43.703125 -1.421875 29.984375 -1.421875 
Q 24.8125 -1.421875 18.96875 -0.25 
Q 13.140625 0.921875 6.890625 3.21875 
L 6.890625 13.375 
Q 12.890625 10.015625 18.65625 8.296875 
Q 24.421875 6.59375 29.984375 6.59375 
Q 38.421875 6.59375 43.015625 9.90625 
Q 47.609375 13.234375 47.609375 19.390625 
Q 47.609375 24.75 44.3125 27.78125 
Q 41.015625 30.8125 33.5 32.328125 
L 27.484375 33.5 
Q 16.453125 35.6875 11.515625 40.375 
Q 6.59375 45.0625 6.59375 53.421875 
Q 6.59375 63.09375 13.40625 68.65625 
Q 20.21875 74.21875 32.171875 74.21875 
Q 37.3125 74.21875 42.625 73.28125 
Q 47.953125 72.359375 53.515625 70.515625 
z
" id="DejaVuSans-83"/>
      <path d="M 54.890625 33.015625 
L 54.890625 0 
L 45.90625 0 
L 45.90625 32.71875 
Q 45.90625 40.484375 42.875 44.328125 
Q 39.84375 48.1875 33.796875 48.1875 
Q 26.515625 48.1875 22.3125 43.546875 
Q 18.109375 38.921875 18.109375 30.90625 
L 18.109375 0 
L 9.078125 0 
L 9.078125 75.984375 
L 18.109375 75.984375 
L 18.109375 46.1875 
Q 21.34375 51.125 25.703125 53.5625 
Q 30.078125 56 35.796875 56 
Q 45.21875 56 50.046875 50.171875 
Q 54.890625 44.34375 54.890625 33.015625 
z
" id="DejaVuSans-104"/>
     </defs>
     <use xlink:href="#DejaVuSans-50"/>
     <use x="63.623047" xlink:href="#DejaVuSans-32"/>
     <use x="95.410156" xlink:href="#DejaVuSans-83"/>
     <use x="158.886719" xlink:href="#DejaVuSans-112"/>
     <use x="222.363281" xlink:href="#DejaVuSans-104"/>
     <use x="285.742188" xlink:href="#DejaVuSans-101"/>
     <use x="347.265625" xlink:href="#DejaVuSans-114"/>
     <use x="386.128906" xlink:href="#DejaVuSans-101"/>
     <use x="447.652344" xlink:href="#DejaVuSans-44"/>
     <use x="479.439453" xlink:href="#DejaVuSans-32"/>
     <use x="511.226562" xlink:href="#DejaVuSans-50"/>
     <use x="574.849609" xlink:href="#DejaVuSans-32"/>
     <use x="606.636719" xlink:href="#DejaVuSans-99"/>
     <use x="661.617188" xlink:href="#DejaVuSans-111"/>
     <use x="722.798828" xlink:href="#DejaVuSans-110"/>
     <use x="786.177734" xlink:href="#DejaVuSans-115"/>
     <use x="838.277344" xlink:href="#DejaVuSans-116"/>
     <use x="877.486328" xlink:href="#DejaVuSans-114"/>
     <use x="918.599609" xlink:href="#DejaVuSans-97"/>
     <use x="979.878906" xlink:href="#DejaVuSans-105"/>
     <use x="1007.662109" xlink:href="#DejaVuSans-110"/>
     <use x="1071.041016" xlink:href="#DejaVuSans-116"/>
     <use x="1110.25" xlink:href="#DejaVuSans-115"/>
    </g>
   </g>
  </g>
 </g>
 <defs>
  <clipPath id="p7a1d1f4c4a">
   <rect height="271.296" width="281.088" x="57.6" y="27.648"/>
  </clipPath>
 </defs>
</svg>
