<?xml version="1.0" encoding="utf-8" standalone="no"?>
<!DOCTYPE svg PUBLIC "-//W3C//DTD SVG 1.1//EN"
  "http://www.w3.org/Graphics/SVG/1.1/DTD/svg11.dtd">
<!-- Created with matplotlib (https://matplotlib.org/) -->
<svg height="345.6pt" version="1.1" viewBox="0 0 460.8 345.6" width="460.8pt" xmlns="http://www.w3.org/2000/svg" xmlns:xlink="http://www.w3.org/1999/xlink">
 <metadata>
  <rdf:RDF xmlns:cc="http://creativecommons.org/ns#" xmlns:dc="http://purl.org/dc/elements/1.1/" xmlns:rdf="http://www.w3.org/1999/02/22-rdf-syntax-ns#">
   <cc:Work>
    <dc:type rdf:resource="http://purl.org/dc/dcmitype/StillImage"/>
    <dc:date>2021-04-09T10:16:36.962889</dc:date>
    <dc:format>image/svg+xml</dc:format>
    <dc:creator>
     <cc:Agent>
      <dc:title>Matplotlib v3.3.3, https://matplotlib.org/</dc:title>
     </cc:Agent>
    </dc:creator>
   </cc:Work>
  </rdf:RDF>
 </metadata>
 <defs>
  <style type="text/css">*{stroke-linecap:butt;stroke-linejoin:round;}</style>
 </defs>
 <g id="figure_1">
  <g id="patch_1">
   <path d="M 0 345.6 
L 460.8 345.6 
L 460.8 0 
L 0 0 
z
" style="fill:#ffffff;"/>
  </g>
  <g id="axes_1">
   <g id="patch_2">
    <path d="M 57.6 298.944 
L 338.688 298.944 
L 338.688 27.648 
L 57.6 27.648 
z
" style="fill:#ffffff;"/>
   </g>
   <g id="matplotlib.axis_1">
    <g id="xtick_1">
     <g id="line2d_1">
      <path clip-path="url(#p8ed9dac74c)" d="M 57.6 298.944 
L 57.6 27.648 
" style="fill:none;stroke:#b0b0b0;stroke-linecap:square;stroke-width:0.8;"/>
     </g>
     <g id="line2d_2">
      <defs>
       <path d="M 0 0 
L 0 3.5 
" id="m8079f6cce9" style="stroke:#000000;stroke-width:0.8;"/>
      </defs>
      <g>
       <use style="stroke:#000000;stroke-width:0.8;" x="57.6" xlink:href="#m8079f6cce9" y="298.944"/>
      </g>
     </g>
     <g id="text_1">
      <!-- 0 -->
      <g transform="translate(51.2375 321.140875)scale(0.2 -0.2)">
       <defs>
        <path d="M 31.78125 66.40625 
Q 24.171875 66.40625 20.328125 58.90625 
Q 16.5 51.421875 16.5 36.375 
Q 16.5 21.390625 20.328125 13.890625 
Q 24.171875 6.390625 31.78125 6.390625 
Q 39.453125 6.390625 43.28125 13.890625 
Q 47.125 21.390625 47.125 36.375 
Q 47.125 51.421875 43.28125 58.90625 
Q 39.453125 66.40625 31.78125 66.40625 
z
M 31.78125 74.21875 
Q 44.046875 74.21875 50.515625 64.515625 
Q 56.984375 54.828125 56.984375 36.375 
Q 56.984375 17.96875 50.515625 8.265625 
Q 44.046875 -1.421875 31.78125 -1.421875 
Q 19.53125 -1.421875 13.0625 8.265625 
Q 6.59375 17.96875 6.59375 36.375 
Q 6.59375 54.828125 13.0625 64.515625 
Q 19.53125 74.21875 31.78125 74.21875 
z
" id="DejaVuSans-48"/>
       </defs>
       <use xlink:href="#DejaVuSans-48"/>
      </g>
     </g>
    </g>
    <g id="xtick_2">
     <g id="line2d_3">
      <path clip-path="url(#p8ed9dac74c)" d="M 137.910857 298.944 
L 137.910857 27.648 
" style="fill:none;stroke:#b0b0b0;stroke-linecap:square;stroke-width:0.8;"/>
     </g>
     <g id="line2d_4">
      <g>
       <use style="stroke:#000000;stroke-width:0.8;" x="137.910857" xlink:href="#m8079f6cce9" y="298.944"/>
      </g>
     </g>
     <g id="text_2">
      <!-- 2 -->
      <g transform="translate(131.548357 321.140875)scale(0.2 -0.2)">
       <defs>
        <path d="M 19.1875 8.296875 
L 53.609375 8.296875 
L 53.609375 0 
L 7.328125 0 
L 7.328125 8.296875 
Q 12.9375 14.109375 22.625 23.890625 
Q 32.328125 33.6875 34.8125 36.53125 
Q 39.546875 41.84375 41.421875 45.53125 
Q 43.3125 49.21875 43.3125 52.78125 
Q 43.3125 58.59375 39.234375 62.25 
Q 35.15625 65.921875 28.609375 65.921875 
Q 23.96875 65.921875 18.8125 64.3125 
Q 13.671875 62.703125 7.8125 59.421875 
L 7.8125 69.390625 
Q 13.765625 71.78125 18.9375 73 
Q 24.125 74.21875 28.421875 74.21875 
Q 39.75 74.21875 46.484375 68.546875 
Q 53.21875 62.890625 53.21875 53.421875 
Q 53.21875 48.921875 51.53125 44.890625 
Q 49.859375 40.875 45.40625 35.40625 
Q 44.1875 33.984375 37.640625 27.21875 
Q 31.109375 20.453125 19.1875 8.296875 
z
" id="DejaVuSans-50"/>
       </defs>
       <use xlink:href="#DejaVuSans-50"/>
      </g>
     </g>
    </g>
    <g id="xtick_3">
     <g id="line2d_5">
      <path clip-path="url(#p8ed9dac74c)" d="M 218.221714 298.944 
L 218.221714 27.648 
" style="fill:none;stroke:#b0b0b0;stroke-linecap:square;stroke-width:0.8;"/>
     </g>
     <g id="line2d_6">
      <g>
       <use style="stroke:#000000;stroke-width:0.8;" x="218.221714" xlink:href="#m8079f6cce9" y="298.944"/>
      </g>
     </g>
     <g id="text_3">
      <!-- 4 -->
      <g transform="translate(211.859214 321.140875)scale(0.2 -0.2)">
       <defs>
        <path d="M 37.796875 64.3125 
L 12.890625 25.390625 
L 37.796875 25.390625 
z
M 35.203125 72.90625 
L 47.609375 72.90625 
L 47.609375 25.390625 
L 58.015625 25.390625 
L 58.015625 17.1875 
L 47.609375 17.1875 
L 47.609375 0 
L 37.796875 0 
L 37.796875 17.1875 
L 4.890625 17.1875 
L 4.890625 26.703125 
z
" id="DejaVuSans-52"/>
       </defs>
       <use xlink:href="#DejaVuSans-52"/>
      </g>
     </g>
    </g>
    <g id="xtick_4">
     <g id="line2d_7">
      <path clip-path="url(#p8ed9dac74c)" d="M 298.532571 298.944 
L 298.532571 27.648 
" style="fill:none;stroke:#b0b0b0;stroke-linecap:square;stroke-width:0.8;"/>
     </g>
     <g id="line2d_8">
      <g>
       <use style="stroke:#000000;stroke-width:0.8;" x="298.532571" xlink:href="#m8079f6cce9" y="298.944"/>
      </g>
     </g>
     <g id="text_4">
      <!-- 6 -->
      <g transform="translate(292.170071 321.140875)scale(0.2 -0.2)">
       <defs>
        <path d="M 33.015625 40.375 
Q 26.375 40.375 22.484375 35.828125 
Q 18.609375 31.296875 18.609375 23.390625 
Q 18.609375 15.53125 22.484375 10.953125 
Q 26.375 6.390625 33.015625 6.390625 
Q 39.65625 6.390625 43.53125 10.953125 
Q 47.40625 15.53125 47.40625 23.390625 
Q 47.40625 31.296875 43.53125 35.828125 
Q 39.65625 40.375 33.015625 40.375 
z
M 52.59375 71.296875 
L 52.59375 62.3125 
Q 48.875 64.0625 45.09375 64.984375 
Q 41.3125 65.921875 37.59375 65.921875 
Q 27.828125 65.921875 22.671875 59.328125 
Q 17.53125 52.734375 16.796875 39.40625 
Q 19.671875 43.65625 24.015625 45.921875 
Q 28.375 48.1875 33.59375 48.1875 
Q 44.578125 48.1875 50.953125 41.515625 
Q 57.328125 34.859375 57.328125 23.390625 
Q 57.328125 12.15625 50.6875 5.359375 
Q 44.046875 -1.421875 33.015625 -1.421875 
Q 20.359375 -1.421875 13.671875 8.265625 
Q 6.984375 17.96875 6.984375 36.375 
Q 6.984375 53.65625 15.1875 63.9375 
Q 23.390625 74.21875 37.203125 74.21875 
Q 40.921875 74.21875 44.703125 73.484375 
Q 48.484375 72.75 52.59375 71.296875 
z
" id="DejaVuSans-54"/>
       </defs>
       <use xlink:href="#DejaVuSans-54"/>
      </g>
     </g>
    </g>
    <g id="xtick_5">
     <g id="line2d_9">
      <path clip-path="url(#p8ed9dac74c)" d="M 97.755429 298.944 
L 97.755429 27.648 
" style="fill:none;stroke:#b0b0b0;stroke-linecap:square;stroke-width:0.8;"/>
     </g>
     <g id="line2d_10">
      <defs>
       <path d="M 0 0 
L 0 2 
" id="mc527311593" style="stroke:#000000;stroke-width:0.6;"/>
      </defs>
      <g>
       <use style="stroke:#000000;stroke-width:0.6;" x="97.755429" xlink:href="#mc527311593" y="298.944"/>
      </g>
     </g>
    </g>
    <g id="xtick_6">
     <g id="line2d_11">
      <path clip-path="url(#p8ed9dac74c)" d="M 178.066286 298.944 
L 178.066286 27.648 
" style="fill:none;stroke:#b0b0b0;stroke-linecap:square;stroke-width:0.8;"/>
     </g>
     <g id="line2d_12">
      <g>
       <use style="stroke:#000000;stroke-width:0.6;" x="178.066286" xlink:href="#mc527311593" y="298.944"/>
      </g>
     </g>
    </g>
    <g id="xtick_7">
     <g id="line2d_13">
      <path clip-path="url(#p8ed9dac74c)" d="M 258.377143 298.944 
L 258.377143 27.648 
" style="fill:none;stroke:#b0b0b0;stroke-linecap:square;stroke-width:0.8;"/>
     </g>
     <g id="line2d_14">
      <g>
       <use style="stroke:#000000;stroke-width:0.6;" x="258.377143" xlink:href="#mc527311593" y="298.944"/>
      </g>
     </g>
    </g>
    <g id="xtick_8">
     <g id="line2d_15">
      <path clip-path="url(#p8ed9dac74c)" d="M 338.688 298.944 
L 338.688 27.648 
" style="fill:none;stroke:#b0b0b0;stroke-linecap:square;stroke-width:0.8;"/>
     </g>
     <g id="line2d_16">
      <g>
       <use style="stroke:#000000;stroke-width:0.6;" x="338.688" xlink:href="#mc527311593" y="298.944"/>
      </g>
     </g>
    </g>
    <g id="text_5">
     <!-- log10(# (f+g)-evals / dimension) -->
     <g transform="translate(58.145016 342.217594)scale(0.17 -0.17)">
      <defs>
       <path d="M 9.421875 75.984375 
L 18.40625 75.984375 
L 18.40625 0 
L 9.421875 0 
z
" id="DejaVuSans-108"/>
       <path d="M 30.609375 48.390625 
Q 23.390625 48.390625 19.1875 42.75 
Q 14.984375 37.109375 14.984375 27.296875 
Q 14.984375 17.484375 19.15625 11.84375 
Q 23.34375 6.203125 30.609375 6.203125 
Q 37.796875 6.203125 41.984375 11.859375 
Q 46.1875 17.53125 46.1875 27.296875 
Q 46.1875 37.015625 41.984375 42.703125 
Q 37.796875 48.390625 30.609375 48.390625 
z
M 30.609375 56 
Q 42.328125 56 49.015625 48.375 
Q 55.71875 40.765625 55.71875 27.296875 
Q 55.71875 13.875 49.015625 6.21875 
Q 42.328125 -1.421875 30.609375 -1.421875 
Q 18.84375 -1.421875 12.171875 6.21875 
Q 5.515625 13.875 5.515625 27.296875 
Q 5.515625 40.765625 12.171875 48.375 
Q 18.84375 56 30.609375 56 
z
" id="DejaVuSans-111"/>
       <path d="M 45.40625 27.984375 
Q 45.40625 37.75 41.375 43.109375 
Q 37.359375 48.484375 30.078125 48.484375 
Q 22.859375 48.484375 18.828125 43.109375 
Q 14.796875 37.75 14.796875 27.984375 
Q 14.796875 18.265625 18.828125 12.890625 
Q 22.859375 7.515625 30.078125 7.515625 
Q 37.359375 7.515625 41.375 12.890625 
Q 45.40625 18.265625 45.40625 27.984375 
z
M 54.390625 6.78125 
Q 54.390625 -7.171875 48.1875 -13.984375 
Q 42 -20.796875 29.203125 -20.796875 
Q 24.46875 -20.796875 20.265625 -20.09375 
Q 16.0625 -19.390625 12.109375 -17.921875 
L 12.109375 -9.1875 
Q 16.0625 -11.328125 19.921875 -12.34375 
Q 23.78125 -13.375 27.78125 -13.375 
Q 36.625 -13.375 41.015625 -8.765625 
Q 45.40625 -4.15625 45.40625 5.171875 
L 45.40625 9.625 
Q 42.625 4.78125 38.28125 2.390625 
Q 33.9375 0 27.875 0 
Q 17.828125 0 11.671875 7.65625 
Q 5.515625 15.328125 5.515625 27.984375 
Q 5.515625 40.671875 11.671875 48.328125 
Q 17.828125 56 27.875 56 
Q 33.9375 56 38.28125 53.609375 
Q 42.625 51.21875 45.40625 46.390625 
L 45.40625 54.6875 
L 54.390625 54.6875 
z
" id="DejaVuSans-103"/>
       <path d="M 12.40625 8.296875 
L 28.515625 8.296875 
L 28.515625 63.921875 
L 10.984375 60.40625 
L 10.984375 69.390625 
L 28.421875 72.90625 
L 38.28125 72.90625 
L 38.28125 8.296875 
L 54.390625 8.296875 
L 54.390625 0 
L 12.40625 0 
z
" id="DejaVuSans-49"/>
       <path d="M 31 75.875 
Q 24.46875 64.65625 21.28125 53.65625 
Q 18.109375 42.671875 18.109375 31.390625 
Q 18.109375 20.125 21.3125 9.0625 
Q 24.515625 -2 31 -13.1875 
L 23.1875 -13.1875 
Q 15.875 -1.703125 12.234375 9.375 
Q 8.59375 20.453125 8.59375 31.390625 
Q 8.59375 42.28125 12.203125 53.3125 
Q 15.828125 64.359375 23.1875 75.875 
z
" id="DejaVuSans-40"/>
       <path d="M 51.125 44 
L 36.921875 44 
L 32.8125 27.6875 
L 47.125 27.6875 
z
M 43.796875 71.78125 
L 38.71875 51.515625 
L 52.984375 51.515625 
L 58.109375 71.78125 
L 65.921875 71.78125 
L 60.890625 51.515625 
L 76.125 51.515625 
L 76.125 44 
L 58.984375 44 
L 54.984375 27.6875 
L 70.515625 27.6875 
L 70.515625 20.21875 
L 53.078125 20.21875 
L 48 0 
L 40.1875 0 
L 45.21875 20.21875 
L 30.90625 20.21875 
L 25.875 0 
L 18.015625 0 
L 23.09375 20.21875 
L 7.71875 20.21875 
L 7.71875 27.6875 
L 24.90625 27.6875 
L 29 44 
L 13.28125 44 
L 13.28125 51.515625 
L 30.90625 51.515625 
L 35.890625 71.78125 
z
" id="DejaVuSans-35"/>
       <path id="DejaVuSans-32"/>
       <path d="M 37.109375 75.984375 
L 37.109375 68.5 
L 28.515625 68.5 
Q 23.6875 68.5 21.796875 66.546875 
Q 19.921875 64.59375 19.921875 59.515625 
L 19.921875 54.6875 
L 34.71875 54.6875 
L 34.71875 47.703125 
L 19.921875 47.703125 
L 19.921875 0 
L 10.890625 0 
L 10.890625 47.703125 
L 2.296875 47.703125 
L 2.296875 54.6875 
L 10.890625 54.6875 
L 10.890625 58.5 
Q 10.890625 67.625 15.140625 71.796875 
Q 19.390625 75.984375 28.609375 75.984375 
z
" id="DejaVuSans-102"/>
       <path d="M 46 62.703125 
L 46 35.5 
L 73.1875 35.5 
L 73.1875 27.203125 
L 46 27.203125 
L 46 0 
L 37.796875 0 
L 37.796875 27.203125 
L 10.59375 27.203125 
L 10.59375 35.5 
L 37.796875 35.5 
L 37.796875 62.703125 
z
" id="DejaVuSans-43"/>
       <path d="M 8.015625 75.875 
L 15.828125 75.875 
Q 23.140625 64.359375 26.78125 53.3125 
Q 30.421875 42.28125 30.421875 31.390625 
Q 30.421875 20.453125 26.78125 9.375 
Q 23.140625 -1.703125 15.828125 -13.1875 
L 8.015625 -13.1875 
Q 14.5 -2 17.703125 9.0625 
Q 20.90625 20.125 20.90625 31.390625 
Q 20.90625 42.671875 17.703125 53.65625 
Q 14.5 64.65625 8.015625 75.875 
z
" id="DejaVuSans-41"/>
       <path d="M 4.890625 31.390625 
L 31.203125 31.390625 
L 31.203125 23.390625 
L 4.890625 23.390625 
z
" id="DejaVuSans-45"/>
       <path d="M 56.203125 29.59375 
L 56.203125 25.203125 
L 14.890625 25.203125 
Q 15.484375 15.921875 20.484375 11.0625 
Q 25.484375 6.203125 34.421875 6.203125 
Q 39.59375 6.203125 44.453125 7.46875 
Q 49.3125 8.734375 54.109375 11.28125 
L 54.109375 2.78125 
Q 49.265625 0.734375 44.1875 -0.34375 
Q 39.109375 -1.421875 33.890625 -1.421875 
Q 20.796875 -1.421875 13.15625 6.1875 
Q 5.515625 13.8125 5.515625 26.8125 
Q 5.515625 40.234375 12.765625 48.109375 
Q 20.015625 56 32.328125 56 
Q 43.359375 56 49.78125 48.890625 
Q 56.203125 41.796875 56.203125 29.59375 
z
M 47.21875 32.234375 
Q 47.125 39.59375 43.09375 43.984375 
Q 39.0625 48.390625 32.421875 48.390625 
Q 24.90625 48.390625 20.390625 44.140625 
Q 15.875 39.890625 15.1875 32.171875 
z
" id="DejaVuSans-101"/>
       <path d="M 2.984375 54.6875 
L 12.5 54.6875 
L 29.59375 8.796875 
L 46.6875 54.6875 
L 56.203125 54.6875 
L 35.6875 0 
L 23.484375 0 
z
" id="DejaVuSans-118"/>
       <path d="M 34.28125 27.484375 
Q 23.390625 27.484375 19.1875 25 
Q 14.984375 22.515625 14.984375 16.5 
Q 14.984375 11.71875 18.140625 8.90625 
Q 21.296875 6.109375 26.703125 6.109375 
Q 34.1875 6.109375 38.703125 11.40625 
Q 43.21875 16.703125 43.21875 25.484375 
L 43.21875 27.484375 
z
M 52.203125 31.203125 
L 52.203125 0 
L 43.21875 0 
L 43.21875 8.296875 
Q 40.140625 3.328125 35.546875 0.953125 
Q 30.953125 -1.421875 24.3125 -1.421875 
Q 15.921875 -1.421875 10.953125 3.296875 
Q 6 8.015625 6 15.921875 
Q 6 25.140625 12.171875 29.828125 
Q 18.359375 34.515625 30.609375 34.515625 
L 43.21875 34.515625 
L 43.21875 35.40625 
Q 43.21875 41.609375 39.140625 45 
Q 35.0625 48.390625 27.6875 48.390625 
Q 23 48.390625 18.546875 47.265625 
Q 14.109375 46.140625 10.015625 43.890625 
L 10.015625 52.203125 
Q 14.9375 54.109375 19.578125 55.046875 
Q 24.21875 56 28.609375 56 
Q 40.484375 56 46.34375 49.84375 
Q 52.203125 43.703125 52.203125 31.203125 
z
" id="DejaVuSans-97"/>
       <path d="M 44.28125 53.078125 
L 44.28125 44.578125 
Q 40.484375 46.53125 36.375 47.5 
Q 32.28125 48.484375 27.875 48.484375 
Q 21.1875 48.484375 17.84375 46.4375 
Q 14.5 44.390625 14.5 40.28125 
Q 14.5 37.15625 16.890625 35.375 
Q 19.28125 33.59375 26.515625 31.984375 
L 29.59375 31.296875 
Q 39.15625 29.25 43.1875 25.515625 
Q 47.21875 21.78125 47.21875 15.09375 
Q 47.21875 7.46875 41.1875 3.015625 
Q 35.15625 -1.421875 24.609375 -1.421875 
Q 20.21875 -1.421875 15.453125 -0.5625 
Q 10.6875 0.296875 5.421875 2 
L 5.421875 11.28125 
Q 10.40625 8.6875 15.234375 7.390625 
Q 20.0625 6.109375 24.8125 6.109375 
Q 31.15625 6.109375 34.5625 8.28125 
Q 37.984375 10.453125 37.984375 14.40625 
Q 37.984375 18.0625 35.515625 20.015625 
Q 33.0625 21.96875 24.703125 23.78125 
L 21.578125 24.515625 
Q 13.234375 26.265625 9.515625 29.90625 
Q 5.8125 33.546875 5.8125 39.890625 
Q 5.8125 47.609375 11.28125 51.796875 
Q 16.75 56 26.8125 56 
Q 31.78125 56 36.171875 55.265625 
Q 40.578125 54.546875 44.28125 53.078125 
z
" id="DejaVuSans-115"/>
       <path d="M 25.390625 72.90625 
L 33.6875 72.90625 
L 8.296875 -9.28125 
L 0 -9.28125 
z
" id="DejaVuSans-47"/>
       <path d="M 45.40625 46.390625 
L 45.40625 75.984375 
L 54.390625 75.984375 
L 54.390625 0 
L 45.40625 0 
L 45.40625 8.203125 
Q 42.578125 3.328125 38.25 0.953125 
Q 33.9375 -1.421875 27.875 -1.421875 
Q 17.96875 -1.421875 11.734375 6.484375 
Q 5.515625 14.40625 5.515625 27.296875 
Q 5.515625 40.1875 11.734375 48.09375 
Q 17.96875 56 27.875 56 
Q 33.9375 56 38.25 53.625 
Q 42.578125 51.265625 45.40625 46.390625 
z
M 14.796875 27.296875 
Q 14.796875 17.390625 18.875 11.75 
Q 22.953125 6.109375 30.078125 6.109375 
Q 37.203125 6.109375 41.296875 11.75 
Q 45.40625 17.390625 45.40625 27.296875 
Q 45.40625 37.203125 41.296875 42.84375 
Q 37.203125 48.484375 30.078125 48.484375 
Q 22.953125 48.484375 18.875 42.84375 
Q 14.796875 37.203125 14.796875 27.296875 
z
" id="DejaVuSans-100"/>
       <path d="M 9.421875 54.6875 
L 18.40625 54.6875 
L 18.40625 0 
L 9.421875 0 
z
M 9.421875 75.984375 
L 18.40625 75.984375 
L 18.40625 64.59375 
L 9.421875 64.59375 
z
" id="DejaVuSans-105"/>
       <path d="M 52 44.1875 
Q 55.375 50.25 60.0625 53.125 
Q 64.75 56 71.09375 56 
Q 79.640625 56 84.28125 50.015625 
Q 88.921875 44.046875 88.921875 33.015625 
L 88.921875 0 
L 79.890625 0 
L 79.890625 32.71875 
Q 79.890625 40.578125 77.09375 44.375 
Q 74.3125 48.1875 68.609375 48.1875 
Q 61.625 48.1875 57.5625 43.546875 
Q 53.515625 38.921875 53.515625 30.90625 
L 53.515625 0 
L 44.484375 0 
L 44.484375 32.71875 
Q 44.484375 40.625 41.703125 44.40625 
Q 38.921875 48.1875 33.109375 48.1875 
Q 26.21875 48.1875 22.15625 43.53125 
Q 18.109375 38.875 18.109375 30.90625 
L 18.109375 0 
L 9.078125 0 
L 9.078125 54.6875 
L 18.109375 54.6875 
L 18.109375 46.1875 
Q 21.1875 51.21875 25.484375 53.609375 
Q 29.78125 56 35.6875 56 
Q 41.65625 56 45.828125 52.96875 
Q 50 49.953125 52 44.1875 
z
" id="DejaVuSans-109"/>
       <path d="M 54.890625 33.015625 
L 54.890625 0 
L 45.90625 0 
L 45.90625 32.71875 
Q 45.90625 40.484375 42.875 44.328125 
Q 39.84375 48.1875 33.796875 48.1875 
Q 26.515625 48.1875 22.3125 43.546875 
Q 18.109375 38.921875 18.109375 30.90625 
L 18.109375 0 
L 9.078125 0 
L 9.078125 54.6875 
L 18.109375 54.6875 
L 18.109375 46.1875 
Q 21.34375 51.125 25.703125 53.5625 
Q 30.078125 56 35.796875 56 
Q 45.21875 56 50.046875 50.171875 
Q 54.890625 44.34375 54.890625 33.015625 
z
" id="DejaVuSans-110"/>
      </defs>
      <use xlink:href="#DejaVuSans-108"/>
      <use x="27.783203" xlink:href="#DejaVuSans-111"/>
      <use x="88.964844" xlink:href="#DejaVuSans-103"/>
      <use x="152.441406" xlink:href="#DejaVuSans-49"/>
      <use x="216.064453" xlink:href="#DejaVuSans-48"/>
      <use x="279.6875" xlink:href="#DejaVuSans-40"/>
      <use x="318.701172" xlink:href="#DejaVuSans-35"/>
      <use x="402.490234" xlink:href="#DejaVuSans-32"/>
      <use x="434.277344" xlink:href="#DejaVuSans-40"/>
      <use x="473.291016" xlink:href="#DejaVuSans-102"/>
      <use x="508.496094" xlink:href="#DejaVuSans-43"/>
      <use x="592.285156" xlink:href="#DejaVuSans-103"/>
      <use x="655.761719" xlink:href="#DejaVuSans-41"/>
      <use x="694.775391" xlink:href="#DejaVuSans-45"/>
      <use x="730.859375" xlink:href="#DejaVuSans-101"/>
      <use x="792.382812" xlink:href="#DejaVuSans-118"/>
      <use x="851.5625" xlink:href="#DejaVuSans-97"/>
      <use x="912.841797" xlink:href="#DejaVuSans-108"/>
      <use x="940.625" xlink:href="#DejaVuSans-115"/>
      <use x="992.724609" xlink:href="#DejaVuSans-32"/>
      <use x="1024.511719" xlink:href="#DejaVuSans-47"/>
      <use x="1058.203125" xlink:href="#DejaVuSans-32"/>
      <use x="1089.990234" xlink:href="#DejaVuSans-100"/>
      <use x="1153.466797" xlink:href="#DejaVuSans-105"/>
      <use x="1181.25" xlink:href="#DejaVuSans-109"/>
      <use x="1278.662109" xlink:href="#DejaVuSans-101"/>
      <use x="1340.185547" xlink:href="#DejaVuSans-110"/>
      <use x="1403.564453" xlink:href="#DejaVuSans-115"/>
      <use x="1455.664062" xlink:href="#DejaVuSans-105"/>
      <use x="1483.447266" xlink:href="#DejaVuSans-111"/>
      <use x="1544.628906" xlink:href="#DejaVuSans-110"/>
      <use x="1608.007812" xlink:href="#DejaVuSans-41"/>
     </g>
    </g>
   </g>
   <g id="matplotlib.axis_2">
    <g id="ytick_1">
     <g id="line2d_17">
      <path clip-path="url(#p8ed9dac74c)" d="M 57.6 298.944 
L 338.688 298.944 
" style="fill:none;stroke:#b0b0b0;stroke-linecap:square;stroke-width:0.8;"/>
     </g>
     <g id="line2d_18">
      <defs>
       <path d="M 0 0 
L -3.5 0 
" id="m2bba8fc6e5" style="stroke:#000000;stroke-width:0.8;"/>
      </defs>
      <g>
       <use style="stroke:#000000;stroke-width:0.8;" x="57.6" xlink:href="#m2bba8fc6e5" y="298.944"/>
      </g>
     </g>
     <g id="text_6">
      <!-- 0.0 -->
      <g transform="translate(25.155 305.02275)scale(0.16 -0.16)">
       <defs>
        <path d="M 10.6875 12.40625 
L 21 12.40625 
L 21 0 
L 10.6875 0 
z
" id="DejaVuSans-46"/>
       </defs>
       <use xlink:href="#DejaVuSans-48"/>
       <use x="63.623047" xlink:href="#DejaVuSans-46"/>
       <use x="95.410156" xlink:href="#DejaVuSans-48"/>
      </g>
     </g>
    </g>
    <g id="ytick_2">
     <g id="line2d_19">
      <path clip-path="url(#p8ed9dac74c)" d="M 57.6 245.22202 
L 338.688 245.22202 
" style="fill:none;stroke:#b0b0b0;stroke-linecap:square;stroke-width:0.8;"/>
     </g>
     <g id="line2d_20">
      <g>
       <use style="stroke:#000000;stroke-width:0.8;" x="57.6" xlink:href="#m2bba8fc6e5" y="245.22202"/>
      </g>
     </g>
     <g id="text_7">
      <!-- 0.2 -->
      <g transform="translate(25.155 251.30077)scale(0.16 -0.16)">
       <use xlink:href="#DejaVuSans-48"/>
       <use x="63.623047" xlink:href="#DejaVuSans-46"/>
       <use x="95.410156" xlink:href="#DejaVuSans-50"/>
      </g>
     </g>
    </g>
    <g id="ytick_3">
     <g id="line2d_21">
      <path clip-path="url(#p8ed9dac74c)" d="M 57.6 191.50004 
L 338.688 191.50004 
" style="fill:none;stroke:#b0b0b0;stroke-linecap:square;stroke-width:0.8;"/>
     </g>
     <g id="line2d_22">
      <g>
       <use style="stroke:#000000;stroke-width:0.8;" x="57.6" xlink:href="#m2bba8fc6e5" y="191.50004"/>
      </g>
     </g>
     <g id="text_8">
      <!-- 0.4 -->
      <g transform="translate(25.155 197.57879)scale(0.16 -0.16)">
       <use xlink:href="#DejaVuSans-48"/>
       <use x="63.623047" xlink:href="#DejaVuSans-46"/>
       <use x="95.410156" xlink:href="#DejaVuSans-52"/>
      </g>
     </g>
    </g>
    <g id="ytick_4">
     <g id="line2d_23">
      <path clip-path="url(#p8ed9dac74c)" d="M 57.6 137.778059 
L 338.688 137.778059 
" style="fill:none;stroke:#b0b0b0;stroke-linecap:square;stroke-width:0.8;"/>
     </g>
     <g id="line2d_24">
      <g>
       <use style="stroke:#000000;stroke-width:0.8;" x="57.6" xlink:href="#m2bba8fc6e5" y="137.778059"/>
      </g>
     </g>
     <g id="text_9">
      <!-- 0.6 -->
      <g transform="translate(25.155 143.856809)scale(0.16 -0.16)">
       <use xlink:href="#DejaVuSans-48"/>
       <use x="63.623047" xlink:href="#DejaVuSans-46"/>
       <use x="95.410156" xlink:href="#DejaVuSans-54"/>
      </g>
     </g>
    </g>
    <g id="ytick_5">
     <g id="line2d_25">
      <path clip-path="url(#p8ed9dac74c)" d="M 57.6 84.056079 
L 338.688 84.056079 
" style="fill:none;stroke:#b0b0b0;stroke-linecap:square;stroke-width:0.8;"/>
     </g>
     <g id="line2d_26">
      <g>
       <use style="stroke:#000000;stroke-width:0.8;" x="57.6" xlink:href="#m2bba8fc6e5" y="84.056079"/>
      </g>
     </g>
     <g id="text_10">
      <!-- 0.8 -->
      <g transform="translate(25.155 90.134829)scale(0.16 -0.16)">
       <defs>
        <path d="M 31.78125 34.625 
Q 24.75 34.625 20.71875 30.859375 
Q 16.703125 27.09375 16.703125 20.515625 
Q 16.703125 13.921875 20.71875 10.15625 
Q 24.75 6.390625 31.78125 6.390625 
Q 38.8125 6.390625 42.859375 10.171875 
Q 46.921875 13.96875 46.921875 20.515625 
Q 46.921875 27.09375 42.890625 30.859375 
Q 38.875 34.625 31.78125 34.625 
z
M 21.921875 38.8125 
Q 15.578125 40.375 12.03125 44.71875 
Q 8.5 49.078125 8.5 55.328125 
Q 8.5 64.0625 14.71875 69.140625 
Q 20.953125 74.21875 31.78125 74.21875 
Q 42.671875 74.21875 48.875 69.140625 
Q 55.078125 64.0625 55.078125 55.328125 
Q 55.078125 49.078125 51.53125 44.71875 
Q 48 40.375 41.703125 38.8125 
Q 48.828125 37.15625 52.796875 32.3125 
Q 56.78125 27.484375 56.78125 20.515625 
Q 56.78125 9.90625 50.3125 4.234375 
Q 43.84375 -1.421875 31.78125 -1.421875 
Q 19.734375 -1.421875 13.25 4.234375 
Q 6.78125 9.90625 6.78125 20.515625 
Q 6.78125 27.484375 10.78125 32.3125 
Q 14.796875 37.15625 21.921875 38.8125 
z
M 18.3125 54.390625 
Q 18.3125 48.734375 21.84375 45.5625 
Q 25.390625 42.390625 31.78125 42.390625 
Q 38.140625 42.390625 41.71875 45.5625 
Q 45.3125 48.734375 45.3125 54.390625 
Q 45.3125 60.0625 41.71875 63.234375 
Q 38.140625 66.40625 31.78125 66.40625 
Q 25.390625 66.40625 21.84375 63.234375 
Q 18.3125 60.0625 18.3125 54.390625 
z
" id="DejaVuSans-56"/>
       </defs>
       <use xlink:href="#DejaVuSans-48"/>
       <use x="63.623047" xlink:href="#DejaVuSans-46"/>
       <use x="95.410156" xlink:href="#DejaVuSans-56"/>
      </g>
     </g>
    </g>
    <g id="ytick_6">
     <g id="line2d_27">
      <path clip-path="url(#p8ed9dac74c)" d="M 57.6 30.334099 
L 338.688 30.334099 
" style="fill:none;stroke:#b0b0b0;stroke-linecap:square;stroke-width:0.8;"/>
     </g>
     <g id="line2d_28">
      <g>
       <use style="stroke:#000000;stroke-width:0.8;" x="57.6" xlink:href="#m2bba8fc6e5" y="30.334099"/>
      </g>
     </g>
     <g id="text_11">
      <!-- 1.0 -->
      <g transform="translate(25.155 36.412849)scale(0.16 -0.16)">
       <use xlink:href="#DejaVuSans-49"/>
       <use x="63.623047" xlink:href="#DejaVuSans-46"/>
       <use x="95.410156" xlink:href="#DejaVuSans-48"/>
      </g>
     </g>
    </g>
    <g id="text_12">
     <!-- Fraction of function,target pairs -->
     <g transform="translate(17.619531 297.681)rotate(-90)scale(0.17 -0.17)">
      <defs>
       <path d="M 9.8125 72.90625 
L 51.703125 72.90625 
L 51.703125 64.59375 
L 19.671875 64.59375 
L 19.671875 43.109375 
L 48.578125 43.109375 
L 48.578125 34.8125 
L 19.671875 34.8125 
L 19.671875 0 
L 9.8125 0 
z
" id="DejaVuSans-70"/>
       <path d="M 41.109375 46.296875 
Q 39.59375 47.171875 37.8125 47.578125 
Q 36.03125 48 33.890625 48 
Q 26.265625 48 22.1875 43.046875 
Q 18.109375 38.09375 18.109375 28.8125 
L 18.109375 0 
L 9.078125 0 
L 9.078125 54.6875 
L 18.109375 54.6875 
L 18.109375 46.1875 
Q 20.953125 51.171875 25.484375 53.578125 
Q 30.03125 56 36.53125 56 
Q 37.453125 56 38.578125 55.875 
Q 39.703125 55.765625 41.0625 55.515625 
z
" id="DejaVuSans-114"/>
       <path d="M 48.78125 52.59375 
L 48.78125 44.1875 
Q 44.96875 46.296875 41.140625 47.34375 
Q 37.3125 48.390625 33.40625 48.390625 
Q 24.65625 48.390625 19.8125 42.84375 
Q 14.984375 37.3125 14.984375 27.296875 
Q 14.984375 17.28125 19.8125 11.734375 
Q 24.65625 6.203125 33.40625 6.203125 
Q 37.3125 6.203125 41.140625 7.25 
Q 44.96875 8.296875 48.78125 10.40625 
L 48.78125 2.09375 
Q 45.015625 0.34375 40.984375 -0.53125 
Q 36.96875 -1.421875 32.421875 -1.421875 
Q 20.0625 -1.421875 12.78125 6.34375 
Q 5.515625 14.109375 5.515625 27.296875 
Q 5.515625 40.671875 12.859375 48.328125 
Q 20.21875 56 33.015625 56 
Q 37.15625 56 41.109375 55.140625 
Q 45.0625 54.296875 48.78125 52.59375 
z
" id="DejaVuSans-99"/>
       <path d="M 18.3125 70.21875 
L 18.3125 54.6875 
L 36.8125 54.6875 
L 36.8125 47.703125 
L 18.3125 47.703125 
L 18.3125 18.015625 
Q 18.3125 11.328125 20.140625 9.421875 
Q 21.96875 7.515625 27.59375 7.515625 
L 36.8125 7.515625 
L 36.8125 0 
L 27.59375 0 
Q 17.1875 0 13.234375 3.875 
Q 9.28125 7.765625 9.28125 18.015625 
L 9.28125 47.703125 
L 2.6875 47.703125 
L 2.6875 54.6875 
L 9.28125 54.6875 
L 9.28125 70.21875 
z
" id="DejaVuSans-116"/>
       <path d="M 8.5 21.578125 
L 8.5 54.6875 
L 17.484375 54.6875 
L 17.484375 21.921875 
Q 17.484375 14.15625 20.5 10.265625 
Q 23.53125 6.390625 29.59375 6.390625 
Q 36.859375 6.390625 41.078125 11.03125 
Q 45.3125 15.671875 45.3125 23.6875 
L 45.3125 54.6875 
L 54.296875 54.6875 
L 54.296875 0 
L 45.3125 0 
L 45.3125 8.40625 
Q 42.046875 3.421875 37.71875 1 
Q 33.40625 -1.421875 27.6875 -1.421875 
Q 18.265625 -1.421875 13.375 4.4375 
Q 8.5 10.296875 8.5 21.578125 
z
M 31.109375 56 
z
" id="DejaVuSans-117"/>
       <path d="M 11.71875 12.40625 
L 22.015625 12.40625 
L 22.015625 4 
L 14.015625 -11.625 
L 7.71875 -11.625 
L 11.71875 4 
z
" id="DejaVuSans-44"/>
       <path d="M 18.109375 8.203125 
L 18.109375 -20.796875 
L 9.078125 -20.796875 
L 9.078125 54.6875 
L 18.109375 54.6875 
L 18.109375 46.390625 
Q 20.953125 51.265625 25.265625 53.625 
Q 29.59375 56 35.59375 56 
Q 45.5625 56 51.78125 48.09375 
Q 58.015625 40.1875 58.015625 27.296875 
Q 58.015625 14.40625 51.78125 6.484375 
Q 45.5625 -1.421875 35.59375 -1.421875 
Q 29.59375 -1.421875 25.265625 0.953125 
Q 20.953125 3.328125 18.109375 8.203125 
z
M 48.6875 27.296875 
Q 48.6875 37.203125 44.609375 42.84375 
Q 40.53125 48.484375 33.40625 48.484375 
Q 26.265625 48.484375 22.1875 42.84375 
Q 18.109375 37.203125 18.109375 27.296875 
Q 18.109375 17.390625 22.1875 11.75 
Q 26.265625 6.109375 33.40625 6.109375 
Q 40.53125 6.109375 44.609375 11.75 
Q 48.6875 17.390625 48.6875 27.296875 
z
" id="DejaVuSans-112"/>
      </defs>
      <use xlink:href="#DejaVuSans-70"/>
      <use x="50.269531" xlink:href="#DejaVuSans-114"/>
      <use x="91.382812" xlink:href="#DejaVuSans-97"/>
      <use x="152.662109" xlink:href="#DejaVuSans-99"/>
      <use x="207.642578" xlink:href="#DejaVuSans-116"/>
      <use x="246.851562" xlink:href="#DejaVuSans-105"/>
      <use x="274.634766" xlink:href="#DejaVuSans-111"/>
      <use x="335.816406" xlink:href="#DejaVuSans-110"/>
      <use x="399.195312" xlink:href="#DejaVuSans-32"/>
      <use x="430.982422" xlink:href="#DejaVuSans-111"/>
      <use x="492.164062" xlink:href="#DejaVuSans-102"/>
      <use x="527.369141" xlink:href="#DejaVuSans-32"/>
      <use x="559.15625" xlink:href="#DejaVuSans-102"/>
      <use x="594.361328" xlink:href="#DejaVuSans-117"/>
      <use x="657.740234" xlink:href="#DejaVuSans-110"/>
      <use x="721.119141" xlink:href="#DejaVuSans-99"/>
      <use x="776.099609" xlink:href="#DejaVuSans-116"/>
      <use x="815.308594" xlink:href="#DejaVuSans-105"/>
      <use x="843.091797" xlink:href="#DejaVuSans-111"/>
      <use x="904.273438" xlink:href="#DejaVuSans-110"/>
      <use x="967.652344" xlink:href="#DejaVuSans-44"/>
      <use x="999.439453" xlink:href="#DejaVuSans-116"/>
      <use x="1038.648438" xlink:href="#DejaVuSans-97"/>
      <use x="1099.927734" xlink:href="#DejaVuSans-114"/>
      <use x="1139.291016" xlink:href="#DejaVuSans-103"/>
      <use x="1202.767578" xlink:href="#DejaVuSans-101"/>
      <use x="1264.291016" xlink:href="#DejaVuSans-116"/>
      <use x="1303.5" xlink:href="#DejaVuSans-32"/>
      <use x="1335.287109" xlink:href="#DejaVuSans-112"/>
      <use x="1398.763672" xlink:href="#DejaVuSans-97"/>
      <use x="1460.042969" xlink:href="#DejaVuSans-105"/>
      <use x="1487.826172" xlink:href="#DejaVuSans-114"/>
      <use x="1528.939453" xlink:href="#DejaVuSans-115"/>
     </g>
    </g>
   </g>
   <g id="line2d_29">
    <defs>
     <path d="M 0 1.5 
C 0.397805 1.5 0.77937 1.341951 1.06066 1.06066 
C 1.341951 0.77937 1.5 0.397805 1.5 0 
C 1.5 -0.397805 1.341951 -0.77937 1.06066 -1.06066 
C 0.77937 -1.341951 0.397805 -1.5 0 -1.5 
C -0.397805 -1.5 -0.77937 -1.341951 -1.06066 -1.06066 
C -1.341951 -0.77937 -1.5 -0.397805 -1.5 0 
C -1.5 0.397805 -1.341951 0.77937 -1.06066 1.06066 
C -0.77937 1.341951 -0.397805 1.5 0 1.5 
z
" id="m427f2e4e86" style="stroke:#000080;"/>
    </defs>
    <g>
     <use style="fill:#000080;stroke:#000080;" x="286.735438" xlink:href="#m427f2e4e86" y="30.334099"/>
     <use style="fill:#000080;stroke:#000080;" x="286.735438" xlink:href="#m427f2e4e86" y="30.334099"/>
    </g>
   </g>
   <g id="line2d_30">
    <path d="M 96.676366 298.944 
L 96.676366 298.288854 
L 102.060491 298.288854 
L 102.060491 297.633708 
L 103.117741 297.633708 
L 103.117741 296.978562 
L 105.51043 296.978562 
L 105.51043 296.323416 
L 107.811151 296.323416 
L 107.811151 294.357977 
L 108.389302 294.357977 
L 108.389302 293.047685 
L 109.843417 293.047685 
L 109.843417 292.392539 
L 110.358901 292.392539 
L 110.358901 291.737393 
L 110.694282 291.737393 
L 110.694282 291.082247 
L 110.859585 291.082247 
L 110.859585 289.116809 
L 112.128456 289.116809 
L 112.128456 288.461662 
L 112.280765 288.461662 
L 112.280765 287.806516 
L 112.877038 287.806516 
L 112.877038 287.15137 
L 113.022974 287.15137 
L 113.022974 286.496224 
L 114.552496 286.496224 
L 114.552496 285.841078 
L 114.685115 285.841078 
L 114.685115 285.185932 
L 115.460322 285.185932 
L 115.460322 284.530786 
L 115.958621 284.530786 
L 115.958621 283.220494 
L 116.202531 283.220494 
L 116.202531 282.565348 
L 118.148599 282.565348 
L 118.148599 281.910201 
L 118.994305 281.910201 
L 118.994305 281.255055 
L 119.199476 281.255055 
L 119.199476 280.599909 
L 119.80089 280.599909 
L 119.80089 279.944763 
L 119.996839 279.944763 
L 119.996839 279.289617 
L 120.286695 279.289617 
L 120.286695 278.634471 
L 121.128432 278.634471 
L 121.219499 277.324179 
L 122.276749 277.324179 
L 122.276749 276.669033 
L 122.865118 276.669033 
L 122.865118 274.703594 
L 124.216444 274.703594 
L 124.216444 274.048448 
L 124.743806 274.048448 
L 124.743806 273.393302 
L 125.892487 273.393302 
L 125.892487 272.738156 
L 126.773103 272.738156 
L 126.773103 272.08301 
L 127.421479 272.08301 
L 127.421479 271.427864 
L 128.411207 271.427864 
L 128.411207 270.772718 
L 129.175952 270.772718 
L 129.175952 270.117572 
L 129.79784 270.117572 
L 129.79784 269.462426 
L 130.236587 269.462426 
L 130.236587 268.807279 
L 131.185181 268.807279 
L 131.185181 268.152133 
L 131.439773 268.152133 
L 131.439773 267.496987 
L 132.940331 267.496987 
L 132.940331 266.841841 
L 133.398082 266.841841 
L 133.488207 265.531549 
L 133.755823 265.531549 
L 133.844123 262.910965 
L 133.931979 262.910965 
L 133.931979 262.255818 
L 134.062938 262.255818 
L 134.062938 261.600672 
L 134.787017 261.600672 
L 134.787017 260.945526 
L 135.240011 260.945526 
L 135.240011 260.29038 
L 135.641855 260.29038 
L 135.641855 259.635234 
L 135.956794 259.635234 
L 135.956794 258.980088 
L 136.073445 258.980088 
L 136.073445 258.324942 
L 136.5324 258.324942 
L 136.5324 257.669796 
L 137.70032 257.669796 
L 137.735587 255.704357 
L 137.875944 255.704357 
L 137.875944 255.049211 
L 139.285267 255.049211 
L 139.381706 251.773481 
L 139.980403 251.773481 
L 139.980403 251.118335 
L 140.134598 251.118335 
L 140.226464 249.808043 
L 140.529237 249.808043 
L 140.619053 248.49775 
L 142.133981 248.49775 
L 142.133981 247.842604 
L 142.459451 247.842604 
L 142.459451 247.187458 
L 142.619936 247.187458 
L 142.619936 246.532312 
L 142.857929 246.532312 
L 142.857929 245.877166 
L 143.273169 245.877166 
L 143.273169 245.22202 
L 144.148442 245.22202 
L 144.148442 244.566874 
L 144.55823 244.566874 
L 144.55823 243.911728 
L 144.676946 243.911728 
L 144.676946 243.256582 
L 144.93531 243.256582 
L 144.93531 241.946289 
L 145.281568 241.946289 
L 145.281568 241.291143 
L 145.440832 241.291143 
L 145.440832 239.325705 
L 145.843812 239.325705 
L 145.843812 238.670559 
L 146.622867 238.670559 
L 146.707319 237.360267 
L 147.02042 237.360267 
L 147.02042 236.705121 
L 147.226074 236.705121 
L 147.287301 233.42939 
L 147.986163 233.42939 
L 147.986163 232.774244 
L 148.733265 232.774244 
L 148.770728 231.463952 
L 149.25057 231.463952 
L 149.25057 230.808806 
L 149.431665 230.808806 
L 149.521512 228.843367 
L 149.557321 228.843367 
L 149.557321 228.188221 
L 150.120495 228.188221 
L 150.206871 226.877929 
L 150.649257 226.877929 
L 150.649257 226.222783 
L 151.227591 226.222783 
L 151.227591 225.567637 
L 151.834513 225.567637 
L 151.881541 224.257345 
L 152.222586 224.257345 
L 152.222586 223.602199 
L 152.617226 223.602199 
L 152.617226 222.947052 
L 153.265382 222.947052 
L 153.265382 222.291906 
L 153.452361 222.291906 
L 153.452361 221.63676 
L 153.792374 221.63676 
L 153.792374 220.981614 
L 153.946025 220.981614 
L 153.946025 220.326468 
L 154.098334 220.326468 
L 154.098334 217.705884 
L 154.303908 217.705884 
L 154.303908 217.050738 
L 154.694607 217.050738 
L 154.694607 216.395591 
L 154.945917 216.395591 
L 154.985269 215.085299 
L 155.258271 215.085299 
L 155.258271 214.430153 
L 155.577798 214.430153 
L 155.641006 213.119861 
L 155.741666 213.119861 
L 155.741666 212.464715 
L 155.879132 212.464715 
L 155.879132 211.809569 
L 156.49067 211.809569 
L 156.49067 211.154423 
L 156.634302 211.154423 
L 156.705677 209.84413 
L 156.871092 209.84413 
L 156.871092 209.188984 
L 157.208825 209.188984 
L 157.277891 207.878692 
L 158.0201 207.878692 
L 158.0201 207.223546 
L 158.497919 207.223546 
L 158.497919 206.5684 
L 158.615355 206.5684 
L 158.615355 205.913254 
L 159.638147 205.913254 
L 159.638147 205.258108 
L 160.623238 205.258108 
L 160.623238 204.602962 
L 160.746084 204.602962 
L 160.746084 203.947816 
L 160.961329 203.947816 
L 160.961329 201.982377 
L 161.338558 201.982377 
L 161.347658 200.016939 
L 161.546656 200.016939 
L 161.618459 198.706647 
L 161.689969 198.706647 
L 161.689969 198.051501 
L 162.095552 198.051501 
L 162.095552 197.396355 
L 162.312084 197.396355 
L 162.320689 196.086062 
L 162.962595 196.086062 
L 162.962595 195.430916 
L 163.717238 195.430916 
L 163.748975 194.120624 
L 163.875347 194.120624 
L 163.89108 192.810332 
L 164.310575 192.810332 
L 164.417705 190.189747 
L 164.727712 190.189747 
L 164.802494 188.879455 
L 164.839766 188.879455 
L 164.928893 187.569163 
L 165.215452 187.569163 
L 165.215452 186.914017 
L 165.338904 186.914017 
L 165.425523 185.603725 
L 165.647318 185.603725 
L 165.647318 184.948579 
L 165.957358 184.948579 
L 165.957358 184.293433 
L 166.144916 184.293433 
L 166.144916 183.638286 
L 166.487008 183.638286 
L 166.487008 182.98314 
L 166.729224 182.98314 
L 166.729224 182.327994 
L 167.145172 182.327994 
L 167.249248 181.017702 
L 167.262214 181.017702 
L 167.301055 179.052264 
L 167.410635 179.052264 
L 167.410635 178.397118 
L 167.615054 178.397118 
L 167.615054 177.741972 
L 167.829655 177.741972 
L 167.917258 175.776533 
L 168.257216 175.776533 
L 168.257216 175.121387 
L 168.566635 175.121387 
L 168.566635 173.811095 
L 168.763962 173.811095 
L 168.852923 172.500803 
L 168.941432 172.500803 
L 169.023638 168.569926 
L 170.719297 168.569926 
L 170.745853 166.604488 
L 170.935871 166.604488 
L 170.993522 165.294196 
L 171.585089 165.294196 
L 171.585089 164.63905 
L 171.935589 164.63905 
L 171.935589 163.983903 
L 172.342255 163.983903 
L 172.342255 163.328757 
L 172.796366 163.328757 
L 172.796366 162.673611 
L 173.303236 162.673611 
L 173.303236 162.018465 
L 173.755642 162.018465 
L 173.755642 161.363319 
L 173.951042 161.363319 
L 173.951042 160.708173 
L 174.240098 160.708173 
L 174.240098 160.053027 
L 174.579904 160.053027 
L 174.677604 158.742735 
L 174.988278 158.742735 
L 174.988278 158.087589 
L 175.789337 158.087589 
L 175.801256 156.777296 
L 176.467508 156.777296 
L 176.467508 156.12215 
L 177.142371 156.12215 
L 177.142371 155.467004 
L 177.624761 155.467004 
L 177.735306 154.156712 
L 177.788545 154.156712 
L 177.852218 152.84642 
L 179.642605 152.84642 
L 179.642605 152.191274 
L 180.061331 152.191274 
L 180.154407 150.880981 
L 181.491165 150.880981 
L 181.491165 150.225835 
L 182.044034 150.225835 
L 182.044034 149.570689 
L 183.237777 149.570689 
L 183.237777 148.915543 
L 183.675606 148.915543 
L 183.675606 148.260397 
L 184.174119 148.260397 
L 184.174119 147.605251 
L 184.543681 147.605251 
L 184.543681 146.950105 
L 185.280878 146.950105 
L 185.280878 146.294959 
L 185.459838 146.294959 
L 185.459838 144.32952 
L 186.30418 144.32952 
L 186.30418 143.674374 
L 186.659371 143.674374 
L 186.659371 143.019228 
L 189.300095 143.019228 
L 189.300095 142.364082 
L 189.810849 142.364082 
L 189.810849 141.708936 
L 190.260331 141.708936 
L 190.260331 141.05379 
L 190.396731 141.05379 
L 190.396731 140.398644 
L 190.644343 140.398644 
L 190.644343 139.743498 
L 192.298004 139.743498 
L 192.298004 139.088352 
L 192.667281 139.088352 
L 192.736598 137.778059 
L 193.243495 137.778059 
L 193.243495 137.122913 
L 193.709069 137.122913 
L 193.818247 135.812621 
L 194.155607 135.812621 
L 194.22755 134.502329 
L 194.524611 134.502329 
L 194.524611 133.847183 
L 195.026332 133.847183 
L 195.026332 133.192037 
L 195.607393 133.192037 
L 195.6736 131.881745 
L 196.76468 131.881745 
L 196.76468 131.226598 
L 197.148392 131.226598 
L 197.148392 130.571452 
L 198.046238 130.571452 
L 198.046238 129.916306 
L 198.36823 129.916306 
L 198.36823 129.26116 
L 199.282446 129.26116 
L 199.282446 128.606014 
L 200.458056 128.606014 
L 200.458056 127.950868 
L 200.67404 127.950868 
L 200.67404 127.295722 
L 201.197488 127.295722 
L 201.197488 126.640576 
L 201.621854 126.640576 
L 201.644428 125.330284 
L 201.944133 125.330284 
L 201.944133 124.675137 
L 202.250109 124.675137 
L 202.250109 123.364845 
L 202.723003 123.364845 
L 202.808467 122.054553 
L 203.178455 122.054553 
L 203.178455 121.399407 
L 203.560978 121.399407 
L 203.649683 120.089115 
L 204.040217 120.089115 
L 204.040217 119.433969 
L 204.768098 119.433969 
L 204.768098 118.778823 
L 205.079135 118.778823 
L 205.173733 117.46853 
L 205.308094 117.46853 
L 205.308094 116.813384 
L 206.144186 116.813384 
L 206.144186 116.158238 
L 206.814353 116.158238 
L 206.814353 115.503092 
L 207.144628 115.503092 
L 207.144628 114.847946 
L 207.615471 114.847946 
L 207.615471 113.537654 
L 208.002639 113.537654 
L 208.098882 111.572215 
L 208.831766 111.572215 
L 208.868777 110.261923 
L 209.323743 110.261923 
L 209.326067 108.951631 
L 209.466653 108.951631 
L 209.535089 107.641339 
L 209.882863 107.641339 
L 209.882863 106.986193 
L 210.062539 106.986193 
L 210.062539 106.331047 
L 210.202859 106.331047 
L 210.202859 105.675901 
L 210.556649 105.675901 
L 210.559897 104.365608 
L 211.119101 104.365608 
L 211.119101 103.710462 
L 211.336303 103.710462 
L 211.336303 103.055316 
L 211.510906 103.055316 
L 211.510906 102.40017 
L 211.689359 102.40017 
L 211.693924 101.089878 
L 212.320505 101.089878 
L 212.320505 100.434732 
L 212.599089 100.434732 
L 212.599089 99.779586 
L 212.837233 99.779586 
L 212.837233 99.12444 
L 213.013967 99.12444 
L 213.099795 97.814147 
L 213.213115 97.814147 
L 213.213115 97.159001 
L 213.593349 97.159001 
L 213.593349 96.503855 
L 213.790972 96.503855 
L 213.790972 95.848709 
L 213.936062 95.848709 
L 213.936062 95.193563 
L 214.267356 95.193563 
L 214.305819 93.883271 
L 214.609216 93.883271 
L 214.670892 92.572979 
L 215.56509 92.572979 
L 215.56509 91.917832 
L 215.812717 91.917832 
L 215.812717 91.262686 
L 216.161994 91.262686 
L 216.167488 89.952394 
L 216.624084 89.952394 
L 216.669131 88.642102 
L 217.070519 88.642102 
L 217.091372 87.33181 
L 217.40705 87.33181 
L 217.40705 86.676664 
L 218.08867 86.676664 
L 218.08867 86.021518 
L 218.218226 86.021518 
L 218.306611 84.711225 
L 218.648252 84.711225 
L 218.648252 84.056079 
L 218.769676 84.056079 
L 218.781165 82.745787 
L 219.07723 82.745787 
L 219.07723 82.090641 
L 219.191425 82.090641 
L 219.191425 81.435495 
L 219.341878 81.435495 
L 219.407173 79.470057 
L 219.675885 79.470057 
L 219.752727 77.504618 
L 220.370687 77.504618 
L 220.370687 76.849472 
L 220.614725 76.849472 
L 220.672402 75.53918 
L 220.849697 75.53918 
L 220.932598 74.228888 
L 221.501549 74.228888 
L 221.501549 73.573742 
L 221.638854 73.573742 
L 221.638854 72.918596 
L 222.160548 72.918596 
L 222.239675 71.608303 
L 222.310171 71.608303 
L 222.310171 70.953157 
L 222.487221 70.953157 
L 222.487221 70.298011 
L 222.965106 70.298011 
L 223.066318 68.332573 
L 223.418338 68.332573 
L 223.418338 67.677427 
L 223.814592 67.677427 
L 223.814592 67.022281 
L 224.366123 67.022281 
L 224.366123 66.367135 
L 224.635482 66.367135 
L 224.635482 65.711988 
L 224.860985 65.711988 
L 224.860985 65.056842 
L 225.024677 65.056842 
L 225.109241 63.74655 
L 225.308539 63.74655 
L 225.308539 63.091404 
L 225.633746 63.091404 
L 225.727212 61.781112 
L 225.943146 61.781112 
L 225.943146 61.125966 
L 226.062805 61.125966 
L 226.062805 60.47082 
L 226.466784 60.47082 
L 226.466784 59.815674 
L 231.453074 59.815674 
L 231.453074 59.160527 
L 232.629127 59.160527 
L 232.629127 58.505381 
L 233.155318 58.505381 
L 233.155318 57.850235 
L 233.656886 57.850235 
L 233.656886 57.195089 
L 234.326279 57.195089 
L 234.326279 56.539943 
L 234.881525 56.539943 
L 234.881525 55.884797 
L 235.039404 55.884797 
L 235.039404 55.229651 
L 235.498557 55.229651 
L 235.498557 54.574505 
L 235.70993 54.574505 
L 235.738312 53.264213 
L 235.881434 53.264213 
L 235.881434 52.609066 
L 236.004782 52.609066 
L 236.004782 51.95392 
L 236.698341 51.95392 
L 236.698341 51.298774 
L 236.954812 51.298774 
L 236.954812 50.643628 
L 237.694693 50.643628 
L 237.694693 49.988482 
L 241.919909 49.988482 
L 241.919909 49.333336 
L 242.054266 49.333336 
L 242.054266 48.67819 
L 242.293004 48.67819 
L 242.293004 48.023044 
L 242.645393 48.023044 
L 242.645393 47.367898 
L 242.806266 47.367898 
L 242.806266 46.712752 
L 243.538939 46.712752 
L 243.538939 46.057605 
L 244.32229 46.057605 
L 244.32229 45.402459 
L 244.94976 45.402459 
L 244.94976 44.747313 
L 246.605682 44.747313 
L 246.605682 44.092167 
L 247.290641 44.092167 
L 247.290641 43.437021 
L 248.56691 43.437021 
L 248.56691 42.781875 
L 248.905553 42.781875 
L 248.905553 42.126729 
L 249.040299 42.126729 
L 249.040299 41.471583 
L 249.473942 41.471583 
L 249.498043 40.161291 
L 252.839676 40.161291 
L 252.839676 39.506144 
L 253.28967 39.506144 
L 253.28967 38.850998 
L 257.076536 38.850998 
L 257.076536 38.195852 
L 258.563442 38.195852 
L 258.563442 37.540706 
L 263.760959 37.540706 
L 263.760959 36.88556 
L 264.912757 36.88556 
L 264.964041 34.920122 
L 266.201428 34.920122 
L 266.290545 33.60983 
L 271.952162 33.60983 
L 271.952162 32.954683 
L 272.225827 32.954683 
L 272.225827 32.299537 
L 275.85622 32.299537 
L 275.85622 31.644391 
L 279.083652 31.644391 
L 279.083652 30.989245 
L 286.735438 30.989245 
L 286.735438 30.334099 
L 338.688 30.334099 
L 338.688 30.334099 
" style="fill:none;stroke:#000080;stroke-linecap:square;stroke-width:1.5;"/>
   </g>
   <g id="line2d_31">
    <defs>
     <path d="M 0 6 
C 1.591219 6 3.117479 5.367802 4.242641 4.242641 
C 5.367802 3.117479 6 1.591219 6 0 
C 6 -1.591219 5.367802 -3.117479 4.242641 -4.242641 
C 3.117479 -5.367802 1.591219 -6 0 -6 
C -1.591219 -6 -3.117479 -5.367802 -4.242641 -4.242641 
C -5.367802 -3.117479 -6 -1.591219 -6 0 
C -6 1.591219 -5.367802 3.117479 -4.242641 4.242641 
C -3.117479 5.367802 -1.591219 6 0 6 
z
" id="mb29e11bf93" style="stroke:#000080;stroke-width:1.5;"/>
    </defs>
    <g>
     <use style="fill-opacity:0;stroke:#000080;stroke-width:1.5;" x="164.928893" xlink:href="#mb29e11bf93" y="187.569163"/>
     <use style="fill-opacity:0;stroke:#000080;stroke-width:1.5;" x="212.837233" xlink:href="#mb29e11bf93" y="99.779586"/>
     <use style="fill-opacity:0;stroke:#000080;stroke-width:1.5;" x="286.735438" xlink:href="#mb29e11bf93" y="30.989245"/>
     <use style="fill-opacity:0;stroke:#000080;stroke-width:1.5;" x="286.735438" xlink:href="#mb29e11bf93" y="30.334099"/>
     <use style="fill-opacity:0;stroke:#000080;stroke-width:1.5;" x="338.688" xlink:href="#mb29e11bf93" y="30.334099"/>
    </g>
   </g>
   <g id="line2d_32">
    <path style="fill:none;stroke:#000080;stroke-linecap:square;stroke-width:1.5;"/>
    <g/>
   </g>
   <g id="line2d_33">
    <path clip-path="url(#p8ed9dac74c)" d="M 226.32184 60.47082 
" style="fill:none;stroke:#000080;stroke-linecap:square;stroke-width:1.5;"/>
    <defs>
     <path d="M -12 12 
L 12 -12 
M -12 -12 
L 12 12 
" id="m018555bee4" style="stroke:#000080;"/>
    </defs>
    <g clip-path="url(#p8ed9dac74c)">
     <use style="fill:#000080;stroke:#000080;" x="226.32184" xlink:href="#m018555bee4" y="60.47082"/>
    </g>
   </g>
   <g id="line2d_34">
    <defs>
     <path d="M 0 1.5 
C 0.397805 1.5 0.77937 1.341951 1.06066 1.06066 
C 1.341951 0.77937 1.5 0.397805 1.5 0 
C 1.5 -0.397805 1.341951 -0.77937 1.06066 -1.06066 
C 0.77937 -1.341951 0.397805 -1.5 0 -1.5 
C -0.397805 -1.5 -0.77937 -1.341951 -1.06066 -1.06066 
C -1.341951 -0.77937 -1.5 -0.397805 -1.5 0 
C -1.5 0.397805 -1.341951 0.77937 -1.06066 1.06066 
C -0.77937 1.341951 -0.397805 1.5 0 1.5 
z
" id="meb587c3e4a" style="stroke:#ff00ff;"/>
    </defs>
    <g>
     <use style="fill:#ff00ff;stroke:#ff00ff;" x="241.958939" xlink:href="#meb587c3e4a" y="285.841078"/>
     <use style="fill:#ff00ff;stroke:#ff00ff;" x="241.958939" xlink:href="#meb587c3e4a" y="285.841078"/>
    </g>
   </g>
   <g id="line2d_35">
    <path d="M 72.125336 298.944 
L 72.125336 298.288854 
L 178.10809 298.288854 
L 178.10809 297.633708 
L 190.181284 297.633708 
L 190.181284 296.323416 
L 197.088735 296.323416 
L 197.088735 295.66827 
L 197.240402 295.66827 
L 197.240402 294.357977 
L 206.143489 294.357977 
L 206.143489 292.392539 
L 214.337008 292.392539 
L 214.337008 291.082247 
L 216.391664 291.082247 
L 216.391664 290.427101 
L 221.406357 290.427101 
L 221.406357 289.771955 
L 226.423144 289.771955 
L 226.423144 289.116809 
L 228.476844 289.116809 
L 228.476844 288.461662 
L 231.164222 288.461662 
L 231.164222 287.806516 
L 231.975411 287.806516 
L 231.975411 287.15137 
L 232.750993 287.15137 
L 232.750993 286.496224 
L 241.958939 286.496224 
L 241.958939 285.841078 
L 338.688 285.841078 
" style="fill:none;stroke:#ff00ff;stroke-linecap:square;stroke-width:1.5;"/>
   </g>
   <g id="line2d_36">
    <defs>
     <path d="M -0 8.485281 
L 5.091169 0 
L 0 -8.485281 
L -5.091169 -0 
z
" id="m81a40fe714" style="stroke:#ff00ff;stroke-linejoin:miter;stroke-width:1.5;"/>
    </defs>
    <g>
     <use style="fill-opacity:0;stroke:#ff00ff;stroke-linejoin:miter;stroke-width:1.5;" x="72.125336" xlink:href="#m81a40fe714" y="298.288854"/>
     <use style="fill-opacity:0;stroke:#ff00ff;stroke-linejoin:miter;stroke-width:1.5;" x="241.958939" xlink:href="#m81a40fe714" y="286.496224"/>
     <use style="fill-opacity:0;stroke:#ff00ff;stroke-linejoin:miter;stroke-width:1.5;" x="241.958939" xlink:href="#m81a40fe714" y="285.841078"/>
     <use style="fill-opacity:0;stroke:#ff00ff;stroke-linejoin:miter;stroke-width:1.5;" x="241.958939" xlink:href="#m81a40fe714" y="285.841078"/>
     <use style="fill-opacity:0;stroke:#ff00ff;stroke-linejoin:miter;stroke-width:1.5;" x="338.688" xlink:href="#m81a40fe714" y="285.841078"/>
    </g>
   </g>
   <g id="line2d_37">
    <path style="fill:none;stroke:#ff00ff;stroke-linecap:square;stroke-width:1.5;"/>
    <g/>
   </g>
   <g id="line2d_38">
    <path clip-path="url(#p8ed9dac74c)" d="M 178.06803 298.288854 
" style="fill:none;stroke:#ff00ff;stroke-linecap:square;stroke-width:1.5;"/>
    <defs>
     <path d="M -12 12 
L 12 -12 
M -12 -12 
L 12 12 
" id="madb7bf0c91" style="stroke:#ff00ff;"/>
    </defs>
    <g clip-path="url(#p8ed9dac74c)">
     <use style="fill:#ff00ff;stroke:#ff00ff;" x="178.06803" xlink:href="#madb7bf0c91" y="298.288854"/>
    </g>
   </g>
   <g id="line2d_39">
    <defs>
     <path d="M 0 1.5 
C 0.397805 1.5 0.77937 1.341951 1.06066 1.06066 
C 1.341951 0.77937 1.5 0.397805 1.5 0 
C 1.5 -0.397805 1.341951 -0.77937 1.06066 -1.06066 
C 0.77937 -1.341951 0.397805 -1.5 0 -1.5 
C -0.397805 -1.5 -0.77937 -1.341951 -1.06066 -1.06066 
C -1.341951 -0.77937 -1.5 -0.397805 -1.5 0 
C -1.5 0.397805 -1.341951 0.77937 -1.06066 1.06066 
C -0.77937 1.341951 -0.397805 1.5 0 1.5 
z
" id="m9c80166292" style="stroke:#ff7500;"/>
    </defs>
    <g>
     <use style="fill:#ff7500;stroke:#ff7500;" x="303.554578" xlink:href="#m9c80166292" y="154.811858"/>
     <use style="fill:#ff7500;stroke:#ff7500;" x="303.554578" xlink:href="#m9c80166292" y="154.811858"/>
    </g>
   </g>
   <g id="line2d_40">
    <path d="M 118.094355 298.944 
L 118.094355 298.288854 
L 118.417314 298.288854 
L 118.417314 297.633708 
L 119.097192 297.633708 
L 119.097192 296.323416 
L 119.301163 296.323416 
L 119.301163 295.66827 
L 120.045484 295.66827 
L 120.045484 295.013123 
L 120.429836 295.013123 
L 120.429836 294.357977 
L 121.667835 294.357977 
L 121.667835 293.702831 
L 122.865118 293.702831 
L 122.865118 293.047685 
L 123.790603 293.047685 
L 123.790603 292.392539 
L 124.101333 292.392539 
L 124.101333 291.737393 
L 124.743806 291.737393 
L 124.743806 291.082247 
L 125.110962 291.082247 
L 125.183475 289.771955 
L 125.291682 289.771955 
L 125.291682 289.116809 
L 125.434921 289.116809 
L 125.434921 288.461662 
L 125.857712 288.461662 
L 125.857712 287.15137 
L 126.030894 287.15137 
L 126.030894 285.841078 
L 126.168212 285.841078 
L 126.168212 285.185932 
L 126.573795 285.185932 
L 126.573795 284.530786 
L 126.740043 284.530786 
L 126.806101 281.910201 
L 127.067859 281.910201 
L 127.067859 281.255055 
L 128.138476 281.255055 
L 128.138476 280.599909 
L 128.32077 280.599909 
L 128.32077 279.944763 
L 128.827155 279.944763 
L 128.827155 279.289617 
L 129.376241 279.289617 
L 129.376241 278.634471 
L 129.489668 278.634471 
L 129.546106 277.324179 
L 131.715598 277.324179 
L 131.715598 276.669033 
L 132.917126 276.669033 
L 132.917126 276.013887 
L 134.106373 276.013887 
L 134.106373 275.35874 
L 134.364738 275.35874 
L 134.364738 274.703594 
L 134.640379 274.703594 
L 134.640379 274.048448 
L 135.421987 274.048448 
L 135.421987 273.393302 
L 136.034648 273.393302 
L 136.034648 272.738156 
L 136.570107 272.738156 
L 136.570107 272.08301 
L 136.831795 272.08301 
L 136.831795 271.427864 
L 136.997972 271.427864 
L 136.997972 270.772718 
L 137.928288 270.772718 
L 137.928288 270.117572 
L 138.290362 270.117572 
L 138.290362 269.462426 
L 138.89409 269.462426 
L 138.89409 268.807279 
L 139.69937 268.807279 
L 139.69937 268.152133 
L 140.378508 268.152133 
L 140.378508 266.841841 
L 140.544239 266.841841 
L 140.544239 266.186695 
L 141.788363 266.186695 
L 141.816266 264.221257 
L 141.927433 264.221257 
L 141.927433 263.566111 
L 142.07914 263.566111 
L 142.161336 262.255818 
L 143.027814 262.255818 
L 143.027814 261.600672 
L 143.170282 261.600672 
L 143.273169 258.324942 
L 143.464461 258.324942 
L 143.464461 257.669796 
L 143.853271 257.669796 
L 143.853271 257.01465 
L 144.148442 257.01465 
L 144.148442 255.704357 
L 144.474645 255.704357 
L 144.474645 255.049211 
L 144.700592 255.049211 
L 144.700592 253.738919 
L 145.166911 253.738919 
L 145.166911 253.083773 
L 145.281568 253.083773 
L 145.281568 252.428627 
L 145.876977 252.428627 
L 145.899052 251.118335 
L 146.107383 251.118335 
L 146.107383 249.808043 
L 146.60169 249.808043 
L 146.60169 249.152896 
L 146.78088 249.152896 
L 146.843687 247.842604 
L 147.256714 247.842604 
L 147.297484 246.532312 
L 147.570215 246.532312 
L 147.570215 245.877166 
L 147.739772 245.877166 
L 147.739772 245.22202 
L 148.676918 245.22202 
L 148.676918 244.566874 
L 149.259669 244.566874 
L 149.259669 243.911728 
L 150.691209 243.911728 
L 150.691209 242.601435 
L 152.253262 242.601435 
L 152.253262 241.946289 
L 152.684631 241.946289 
L 152.684631 241.291143 
L 153.658577 241.291143 
L 153.658577 240.635997 
L 156.120189 240.635997 
L 156.120189 239.980851 
L 157.84861 239.980851 
L 157.84861 239.325705 
L 158.957778 239.325705 
L 158.957778 238.670559 
L 159.380382 238.670559 
L 159.380382 238.015413 
L 159.613044 238.015413 
L 159.613044 237.360267 
L 160.336402 237.360267 
L 160.336402 236.705121 
L 161.555647 236.705121 
L 161.555647 236.049974 
L 161.893939 236.049974 
L 161.893939 235.394828 
L 163.119446 235.394828 
L 163.119446 234.739682 
L 163.50953 234.739682 
L 163.50953 234.084536 
L 164.187328 234.084536 
L 164.187328 233.42939 
L 165.894387 233.42939 
L 165.894387 232.774244 
L 166.051389 232.774244 
L 166.051389 232.119098 
L 168.162078 232.119098 
L 168.189752 230.808806 
L 171.605309 230.808806 
L 171.605309 230.15366 
L 172.419569 230.15366 
L 172.419569 229.498513 
L 172.77512 229.498513 
L 172.77512 228.843367 
L 173.03536 228.843367 
L 173.03536 228.188221 
L 174.690307 228.188221 
L 174.690307 227.533075 
L 175.933799 227.533075 
L 175.933799 226.877929 
L 176.642473 226.877929 
L 176.642473 226.222783 
L 177.740637 226.222783 
L 177.740637 225.567637 
L 178.867253 225.567637 
L 178.867253 224.912491 
L 179.100542 224.912491 
L 179.100542 224.257345 
L 180.817728 224.257345 
L 180.817728 223.602199 
L 181.149662 223.602199 
L 181.149662 222.947052 
L 181.852798 222.947052 
L 181.852798 222.291906 
L 182.335888 222.291906 
L 182.335888 221.63676 
L 182.645754 221.63676 
L 182.645754 220.981614 
L 184.281906 220.981614 
L 184.281906 220.326468 
L 184.858384 220.326468 
L 184.858384 219.671322 
L 185.711387 219.671322 
L 185.711387 219.016176 
L 186.700875 219.016176 
L 186.700875 218.36103 
L 187.052324 218.36103 
L 187.117828 217.050738 
L 187.543285 217.050738 
L 187.543285 216.395591 
L 188.996185 216.395591 
L 188.996185 215.740445 
L 190.154274 215.740445 
L 190.154274 215.085299 
L 190.614645 215.085299 
L 190.662985 213.775007 
L 190.90186 213.775007 
L 190.90186 213.119861 
L 191.308912 213.119861 
L 191.308912 212.464715 
L 197.214246 212.464715 
L 197.214246 211.809569 
L 197.940548 211.809569 
L 197.940548 211.154423 
L 198.376939 211.154423 
L 198.376939 210.499277 
L 199.126243 210.499277 
L 199.126243 209.84413 
L 199.77902 209.84413 
L 199.77902 209.188984 
L 200.975276 209.188984 
L 200.975276 208.533838 
L 201.671929 208.533838 
L 201.671929 207.878692 
L 202.608538 207.878692 
L 202.608538 207.223546 
L 203.251026 207.223546 
L 203.251026 206.5684 
L 203.942016 206.5684 
L 203.942016 205.913254 
L 205.3059 205.913254 
L 205.3059 205.258108 
L 205.465001 205.258108 
L 205.465001 204.602962 
L 206.758918 204.602962 
L 206.797909 203.292669 
L 207.330586 203.292669 
L 207.330586 202.637523 
L 207.595276 202.637523 
L 207.595276 201.982377 
L 207.826596 201.982377 
L 207.891047 200.672085 
L 208.495085 200.672085 
L 208.495085 200.016939 
L 208.958886 200.016939 
L 208.958886 199.361793 
L 209.4332 199.361793 
L 209.4332 198.706647 
L 209.936512 198.706647 
L 209.936512 198.051501 
L 210.189596 198.051501 
L 210.189596 197.396355 
L 210.381745 197.396355 
L 210.381745 196.741208 
L 217.292283 196.741208 
L 217.292283 196.086062 
L 217.48745 196.086062 
L 217.48745 195.430916 
L 218.477581 195.430916 
L 218.477581 194.77577 
L 219.152451 194.77577 
L 219.152451 194.120624 
L 219.413689 194.120624 
L 219.413689 193.465478 
L 222.076167 193.465478 
L 222.076167 192.810332 
L 222.636922 192.810332 
L 222.636922 192.155186 
L 222.943037 192.155186 
L 222.943037 191.50004 
L 223.192932 191.50004 
L 223.192932 190.844894 
L 223.399039 190.844894 
L 223.399039 190.189747 
L 224.55186 190.189747 
L 224.55186 189.534601 
L 224.996083 189.534601 
L 224.996083 188.879455 
L 227.847565 188.879455 
L 227.847565 188.224309 
L 229.316881 188.224309 
L 229.316881 187.569163 
L 230.239193 187.569163 
L 230.239193 186.914017 
L 230.75087 186.914017 
L 230.846592 185.603725 
L 232.492022 185.603725 
L 232.492022 184.948579 
L 232.659635 184.948579 
L 232.659635 184.293433 
L 233.726484 184.293433 
L 233.726484 183.638286 
L 233.867058 183.638286 
L 233.867058 182.98314 
L 235.454143 182.98314 
L 235.454143 182.327994 
L 237.463479 182.327994 
L 237.463479 181.672848 
L 241.033101 181.672848 
L 241.033101 181.017702 
L 242.476903 181.017702 
L 242.476903 180.362556 
L 243.310108 180.362556 
L 243.310108 179.70741 
L 243.66471 179.70741 
L 243.66471 179.052264 
L 244.003102 179.052264 
L 244.003102 178.397118 
L 244.348819 178.397118 
L 244.348819 177.741972 
L 246.817333 177.741972 
L 246.817333 177.086825 
L 248.148289 177.086825 
L 248.148289 176.431679 
L 249.793982 176.431679 
L 249.793982 175.776533 
L 249.993167 175.776533 
L 250.10052 174.466241 
L 250.351934 174.466241 
L 250.351934 173.811095 
L 250.553678 173.811095 
L 250.553678 173.155949 
L 251.969811 173.155949 
L 251.969811 172.500803 
L 252.162443 172.500803 
L 252.162443 171.845657 
L 254.384435 171.845657 
L 254.384435 171.190511 
L 254.999174 171.190511 
L 254.999174 170.535364 
L 257.371301 170.535364 
L 257.371301 169.880218 
L 257.709016 169.880218 
L 257.709016 169.225072 
L 258.04938 169.225072 
L 258.04938 168.569926 
L 258.823597 168.569926 
L 258.823597 167.91478 
L 258.951162 167.91478 
L 258.951162 167.259634 
L 259.259205 167.259634 
L 259.259205 166.604488 
L 265.060608 166.604488 
L 265.060608 165.949342 
L 265.19474 165.949342 
L 265.19474 165.294196 
L 265.799797 165.294196 
L 265.799797 164.63905 
L 268.319742 164.63905 
L 268.319742 163.983903 
L 271.511315 163.983903 
L 271.511315 163.328757 
L 272.085964 163.328757 
L 272.085964 162.673611 
L 273.132556 162.673611 
L 273.132556 162.018465 
L 273.678067 162.018465 
L 273.678067 161.363319 
L 277.475007 161.363319 
L 277.475007 160.708173 
L 280.635259 160.708173 
L 280.635259 160.053027 
L 282.73693 160.053027 
L 282.76895 158.742735 
L 283.388183 158.742735 
L 283.388183 158.087589 
L 283.628206 158.087589 
L 283.628206 157.432442 
L 283.770708 157.432442 
L 283.770708 156.777296 
L 291.312051 156.777296 
L 291.312051 156.12215 
L 292.055413 156.12215 
L 292.055413 155.467004 
L 303.554578 155.467004 
L 303.554578 154.811858 
L 338.688 154.811858 
L 338.688 154.811858 
" style="fill:none;stroke:#ff7500;stroke-linecap:square;stroke-width:1.5;"/>
   </g>
   <g id="line2d_41">
    <defs>
     <path d="M 0 -6 
L -1.347084 -1.854102 
L -5.706339 -1.854102 
L -2.179628 0.708204 
L -3.526712 4.854102 
L -0 2.291796 
L 3.526712 4.854102 
L 2.179628 0.708204 
L 5.706339 -1.854102 
L 1.347084 -1.854102 
z
" id="m22dbd4b4b5" style="stroke:#ff7500;stroke-linejoin:bevel;stroke-width:1.5;"/>
    </defs>
    <g>
     <use style="fill-opacity:0;stroke:#ff7500;stroke-linejoin:bevel;stroke-width:1.5;" x="202.608538" xlink:href="#m22dbd4b4b5" y="207.878692"/>
     <use style="fill-opacity:0;stroke:#ff7500;stroke-linejoin:bevel;stroke-width:1.5;" x="257.709016" xlink:href="#m22dbd4b4b5" y="169.880218"/>
     <use style="fill-opacity:0;stroke:#ff7500;stroke-linejoin:bevel;stroke-width:1.5;" x="303.554578" xlink:href="#m22dbd4b4b5" y="154.811858"/>
     <use style="fill-opacity:0;stroke:#ff7500;stroke-linejoin:bevel;stroke-width:1.5;" x="303.554578" xlink:href="#m22dbd4b4b5" y="154.811858"/>
     <use style="fill-opacity:0;stroke:#ff7500;stroke-linejoin:bevel;stroke-width:1.5;" x="338.688" xlink:href="#m22dbd4b4b5" y="154.811858"/>
    </g>
   </g>
   <g id="line2d_42">
    <path style="fill:none;stroke:#ff7500;stroke-linecap:square;stroke-width:1.5;"/>
    <g/>
   </g>
   <g id="line2d_43">
    <path clip-path="url(#p8ed9dac74c)" d="M 226.576651 188.879455 
" style="fill:none;stroke:#ff7500;stroke-linecap:square;stroke-width:1.5;"/>
    <defs>
     <path d="M -12 12 
L 12 -12 
M -12 -12 
L 12 12 
" id="md949fbc095" style="stroke:#ff7500;"/>
    </defs>
    <g clip-path="url(#p8ed9dac74c)">
     <use style="fill:#ff7500;stroke:#ff7500;" x="226.576651" xlink:href="#md949fbc095" y="188.879455"/>
    </g>
   </g>
   <g id="line2d_44">
    <path clip-path="url(#p8ed9dac74c)" d="M 57.6 298.944 
L 57.6 298.944 
L 57.6 298.944 
L 57.6 298.944 
L 338.688 298.944 
" style="fill:none;stroke:#6495ed;stroke-linecap:square;stroke-width:1.5;"/>
   </g>
   <g id="line2d_45">
    <defs>
     <path d="M -0 6 
L 6 -6 
L -6 -6 
z
" id="mcca277b39f" style="stroke:#6495ed;stroke-linejoin:miter;stroke-width:1.5;"/>
    </defs>
    <g clip-path="url(#p8ed9dac74c)">
     <use style="fill-opacity:0;stroke:#6495ed;stroke-linejoin:miter;stroke-width:1.5;" x="57.6" xlink:href="#mcca277b39f" y="298.944"/>
    </g>
   </g>
   <g id="line2d_46">
    <path clip-path="url(#p8ed9dac74c)" style="fill:none;stroke:#6495ed;stroke-linecap:square;stroke-width:1.5;"/>
    <g clip-path="url(#p8ed9dac74c)">
     <use style="fill-opacity:0;stroke:#6495ed;stroke-linejoin:miter;stroke-width:1.5;" x="-1" xlink:href="#mcca277b39f" y="567.553901"/>
     <use style="fill-opacity:0;stroke:#6495ed;stroke-linejoin:miter;stroke-width:1.5;" x="338.688" xlink:href="#mcca277b39f" y="567.553901"/>
    </g>
   </g>
   <g id="line2d_47">
    <path d="M 338.688 298.944 
L 369.60768 293.571802 
" style="fill:none;stroke:#6495ed;stroke-linecap:square;stroke-width:1.5;"/>
    <g>
     <use style="fill-opacity:0;stroke:#6495ed;stroke-linejoin:miter;stroke-width:1.5;" x="338.688" xlink:href="#mcca277b39f" y="298.944"/>
     <use style="fill-opacity:0;stroke:#6495ed;stroke-linejoin:miter;stroke-width:1.5;" x="369.60768" xlink:href="#mcca277b39f" y="293.571802"/>
    </g>
   </g>
   <g id="line2d_48">
    <path d="M 338.688 285.841078 
L 369.60768 207.616634 
" style="fill:none;stroke:#ff00ff;stroke-linecap:square;stroke-width:1.5;"/>
    <g>
     <use style="fill-opacity:0;stroke:#ff00ff;stroke-linejoin:miter;stroke-width:1.5;" x="338.688" xlink:href="#m81a40fe714" y="285.841078"/>
     <use style="fill-opacity:0;stroke:#ff00ff;stroke-linejoin:miter;stroke-width:1.5;" x="369.60768" xlink:href="#m81a40fe714" y="207.616634"/>
    </g>
   </g>
   <g id="line2d_49">
    <path d="M 338.688 154.811858 
L 369.60768 121.661465 
" style="fill:none;stroke:#ff7500;stroke-linecap:square;stroke-width:1.5;"/>
    <g>
     <use style="fill-opacity:0;stroke:#ff7500;stroke-linejoin:bevel;stroke-width:1.5;" x="338.688" xlink:href="#m22dbd4b4b5" y="154.811858"/>
     <use style="fill-opacity:0;stroke:#ff7500;stroke-linejoin:bevel;stroke-width:1.5;" x="369.60768" xlink:href="#m22dbd4b4b5" y="121.661465"/>
    </g>
   </g>
   <g id="line2d_50">
    <path d="M 338.688 30.334099 
L 369.60768 35.706297 
" style="fill:none;stroke:#000080;stroke-linecap:square;stroke-width:1.5;"/>
    <g>
     <use style="fill-opacity:0;stroke:#000080;stroke-width:1.5;" x="338.688" xlink:href="#mb29e11bf93" y="30.334099"/>
     <use style="fill-opacity:0;stroke:#000080;stroke-width:1.5;" x="369.60768" xlink:href="#mb29e11bf93" y="35.706297"/>
    </g>
   </g>
   <g id="line2d_51">
    <path d="M 338.688 298.944 
L 338.688 30.334099 
" style="fill:none;stroke:#000000;stroke-linecap:square;stroke-width:1.5;"/>
   </g>
   <g id="patch_3">
    <path d="M 57.6 298.944 
L 57.6 27.648 
" style="fill:none;stroke:#000000;stroke-linecap:square;stroke-linejoin:miter;stroke-width:0.8;"/>
   </g>
   <g id="patch_4">
    <path d="M 338.688 298.944 
L 338.688 27.648 
" style="fill:none;stroke:#000000;stroke-linecap:square;stroke-linejoin:miter;stroke-width:0.8;"/>
   </g>
   <g id="patch_5">
    <path d="M 57.6 298.944 
L 338.688 298.944 
" style="fill:none;stroke:#000000;stroke-linecap:square;stroke-linejoin:miter;stroke-width:0.8;"/>
   </g>
   <g id="patch_6">
    <path d="M 57.6 27.648 
L 338.688 27.648 
" style="fill:none;stroke:#000000;stroke-linecap:square;stroke-linejoin:miter;stroke-width:0.8;"/>
   </g>
   <g id="text_13">
    <!-- slsqp -->
    <g transform="translate(375.22944 298.262739)scale(0.17 -0.17)">
     <defs>
      <path d="M 14.796875 27.296875 
Q 14.796875 17.390625 18.875 11.75 
Q 22.953125 6.109375 30.078125 6.109375 
Q 37.203125 6.109375 41.296875 11.75 
Q 45.40625 17.390625 45.40625 27.296875 
Q 45.40625 37.203125 41.296875 42.84375 
Q 37.203125 48.484375 30.078125 48.484375 
Q 22.953125 48.484375 18.875 42.84375 
Q 14.796875 37.203125 14.796875 27.296875 
z
M 45.40625 8.203125 
Q 42.578125 3.328125 38.25 0.953125 
Q 33.9375 -1.421875 27.875 -1.421875 
Q 17.96875 -1.421875 11.734375 6.484375 
Q 5.515625 14.40625 5.515625 27.296875 
Q 5.515625 40.1875 11.734375 48.09375 
Q 17.96875 56 27.875 56 
Q 33.9375 56 38.25 53.625 
Q 42.578125 51.265625 45.40625 46.390625 
L 45.40625 54.6875 
L 54.390625 54.6875 
L 54.390625 -20.796875 
L 45.40625 -20.796875 
z
" id="DejaVuSans-113"/>
     </defs>
     <use xlink:href="#DejaVuSans-115"/>
     <use x="52.099609" xlink:href="#DejaVuSans-108"/>
     <use x="79.882812" xlink:href="#DejaVuSans-115"/>
     <use x="131.982422" xlink:href="#DejaVuSans-113"/>
     <use x="195.458984" xlink:href="#DejaVuSans-112"/>
    </g>
   </g>
   <g id="text_14">
    <!-- cobyla -->
    <g transform="translate(375.22944 212.307571)scale(0.17 -0.17)">
     <defs>
      <path d="M 48.6875 27.296875 
Q 48.6875 37.203125 44.609375 42.84375 
Q 40.53125 48.484375 33.40625 48.484375 
Q 26.265625 48.484375 22.1875 42.84375 
Q 18.109375 37.203125 18.109375 27.296875 
Q 18.109375 17.390625 22.1875 11.75 
Q 26.265625 6.109375 33.40625 6.109375 
Q 40.53125 6.109375 44.609375 11.75 
Q 48.6875 17.390625 48.6875 27.296875 
z
M 18.109375 46.390625 
Q 20.953125 51.265625 25.265625 53.625 
Q 29.59375 56 35.59375 56 
Q 45.5625 56 51.78125 48.09375 
Q 58.015625 40.1875 58.015625 27.296875 
Q 58.015625 14.40625 51.78125 6.484375 
Q 45.5625 -1.421875 35.59375 -1.421875 
Q 29.59375 -1.421875 25.265625 0.953125 
Q 20.953125 3.328125 18.109375 8.203125 
L 18.109375 0 
L 9.078125 0 
L 9.078125 75.984375 
L 18.109375 75.984375 
z
" id="DejaVuSans-98"/>
      <path d="M 32.171875 -5.078125 
Q 28.375 -14.84375 24.75 -17.8125 
Q 21.140625 -20.796875 15.09375 -20.796875 
L 7.90625 -20.796875 
L 7.90625 -13.28125 
L 13.1875 -13.28125 
Q 16.890625 -13.28125 18.9375 -11.515625 
Q 21 -9.765625 23.484375 -3.21875 
L 25.09375 0.875 
L 2.984375 54.6875 
L 12.5 54.6875 
L 29.59375 11.921875 
L 46.6875 54.6875 
L 56.203125 54.6875 
z
" id="DejaVuSans-121"/>
     </defs>
     <use xlink:href="#DejaVuSans-99"/>
     <use x="54.980469" xlink:href="#DejaVuSans-111"/>
     <use x="116.162109" xlink:href="#DejaVuSans-98"/>
     <use x="179.638672" xlink:href="#DejaVuSans-121"/>
     <use x="238.818359" xlink:href="#DejaVuSans-108"/>
     <use x="266.601562" xlink:href="#DejaVuSans-97"/>
    </g>
   </g>
   <g id="text_15">
    <!-- l1p-cmaes -->
    <g transform="translate(375.22944 126.352403)scale(0.17 -0.17)">
     <use xlink:href="#DejaVuSans-108"/>
     <use x="27.783203" xlink:href="#DejaVuSans-49"/>
     <use x="91.40625" xlink:href="#DejaVuSans-112"/>
     <use x="154.882812" xlink:href="#DejaVuSans-45"/>
     <use x="190.966797" xlink:href="#DejaVuSans-99"/>
     <use x="245.947266" xlink:href="#DejaVuSans-109"/>
     <use x="343.359375" xlink:href="#DejaVuSans-97"/>
     <use x="404.638672" xlink:href="#DejaVuSans-101"/>
     <use x="466.162109" xlink:href="#DejaVuSans-115"/>
    </g>
   </g>
   <g id="text_16">
    <!-- alN5 -->
    <g transform="translate(375.22944 40.397235)scale(0.17 -0.17)">
     <defs>
      <path d="M 9.8125 72.90625 
L 23.09375 72.90625 
L 55.421875 11.921875 
L 55.421875 72.90625 
L 64.984375 72.90625 
L 64.984375 0 
L 51.703125 0 
L 19.390625 60.984375 
L 19.390625 0 
L 9.8125 0 
z
" id="DejaVuSans-78"/>
      <path d="M 10.796875 72.90625 
L 49.515625 72.90625 
L 49.515625 64.59375 
L 19.828125 64.59375 
L 19.828125 46.734375 
Q 21.96875 47.46875 24.109375 47.828125 
Q 26.265625 48.1875 28.421875 48.1875 
Q 40.625 48.1875 47.75 41.5 
Q 54.890625 34.8125 54.890625 23.390625 
Q 54.890625 11.625 47.5625 5.09375 
Q 40.234375 -1.421875 26.90625 -1.421875 
Q 22.3125 -1.421875 17.546875 -0.640625 
Q 12.796875 0.140625 7.71875 1.703125 
L 7.71875 11.625 
Q 12.109375 9.234375 16.796875 8.0625 
Q 21.484375 6.890625 26.703125 6.890625 
Q 35.15625 6.890625 40.078125 11.328125 
Q 45.015625 15.765625 45.015625 23.390625 
Q 45.015625 31 40.078125 35.4375 
Q 35.15625 39.890625 26.703125 39.890625 
Q 22.75 39.890625 18.8125 39.015625 
Q 14.890625 38.140625 10.796875 36.28125 
z
" id="DejaVuSans-53"/>
     </defs>
     <use xlink:href="#DejaVuSans-97"/>
     <use x="61.279297" xlink:href="#DejaVuSans-108"/>
     <use x="89.0625" xlink:href="#DejaVuSans-78"/>
     <use x="163.867188" xlink:href="#DejaVuSans-53"/>
    </g>
   </g>
   <g id="text_17">
    <!-- bbob-constrained f20, 10-D -->
    <g transform="translate(60.41088 38.111366)scale(0.102 -0.102)">
     <defs>
      <path d="M 19.671875 64.796875 
L 19.671875 8.109375 
L 31.59375 8.109375 
Q 46.6875 8.109375 53.6875 14.9375 
Q 60.6875 21.78125 60.6875 36.53125 
Q 60.6875 51.171875 53.6875 57.984375 
Q 46.6875 64.796875 31.59375 64.796875 
z
M 9.8125 72.90625 
L 30.078125 72.90625 
Q 51.265625 72.90625 61.171875 64.09375 
Q 71.09375 55.28125 71.09375 36.53125 
Q 71.09375 17.671875 61.125 8.828125 
Q 51.171875 0 30.078125 0 
L 9.8125 0 
z
" id="DejaVuSans-68"/>
     </defs>
     <use xlink:href="#DejaVuSans-98"/>
     <use x="63.476562" xlink:href="#DejaVuSans-98"/>
     <use x="126.953125" xlink:href="#DejaVuSans-111"/>
     <use x="188.134766" xlink:href="#DejaVuSans-98"/>
     <use x="251.611328" xlink:href="#DejaVuSans-45"/>
     <use x="287.695312" xlink:href="#DejaVuSans-99"/>
     <use x="342.675781" xlink:href="#DejaVuSans-111"/>
     <use x="403.857422" xlink:href="#DejaVuSans-110"/>
     <use x="467.236328" xlink:href="#DejaVuSans-115"/>
     <use x="519.335938" xlink:href="#DejaVuSans-116"/>
     <use x="558.544922" xlink:href="#DejaVuSans-114"/>
     <use x="599.658203" xlink:href="#DejaVuSans-97"/>
     <use x="660.9375" xlink:href="#DejaVuSans-105"/>
     <use x="688.720703" xlink:href="#DejaVuSans-110"/>
     <use x="752.099609" xlink:href="#DejaVuSans-101"/>
     <use x="813.623047" xlink:href="#DejaVuSans-100"/>
     <use x="877.099609" xlink:href="#DejaVuSans-32"/>
     <use x="908.886719" xlink:href="#DejaVuSans-102"/>
     <use x="944.091797" xlink:href="#DejaVuSans-50"/>
     <use x="1007.714844" xlink:href="#DejaVuSans-48"/>
     <use x="1071.337891" xlink:href="#DejaVuSans-44"/>
     <use x="1103.125" xlink:href="#DejaVuSans-32"/>
     <use x="1134.912109" xlink:href="#DejaVuSans-49"/>
     <use x="1198.535156" xlink:href="#DejaVuSans-48"/>
     <use x="1262.158203" xlink:href="#DejaVuSans-45"/>
     <use x="1298.242188" xlink:href="#DejaVuSans-68"/>
    </g>
    <!-- 41 targets: 100..1e-06 -->
    <g transform="translate(60.41088 49.533135)scale(0.102 -0.102)">
     <defs>
      <path d="M 11.71875 12.40625 
L 22.015625 12.40625 
L 22.015625 0 
L 11.71875 0 
z
M 11.71875 51.703125 
L 22.015625 51.703125 
L 22.015625 39.3125 
L 11.71875 39.3125 
z
" id="DejaVuSans-58"/>
     </defs>
     <use xlink:href="#DejaVuSans-52"/>
     <use x="63.623047" xlink:href="#DejaVuSans-49"/>
     <use x="127.246094" xlink:href="#DejaVuSans-32"/>
     <use x="159.033203" xlink:href="#DejaVuSans-116"/>
     <use x="198.242188" xlink:href="#DejaVuSans-97"/>
     <use x="259.521484" xlink:href="#DejaVuSans-114"/>
     <use x="298.884766" xlink:href="#DejaVuSans-103"/>
     <use x="362.361328" xlink:href="#DejaVuSans-101"/>
     <use x="423.884766" xlink:href="#DejaVuSans-116"/>
     <use x="463.09375" xlink:href="#DejaVuSans-115"/>
     <use x="515.193359" xlink:href="#DejaVuSans-58"/>
     <use x="548.884766" xlink:href="#DejaVuSans-32"/>
     <use x="580.671875" xlink:href="#DejaVuSans-49"/>
     <use x="644.294922" xlink:href="#DejaVuSans-48"/>
     <use x="707.917969" xlink:href="#DejaVuSans-48"/>
     <use x="771.541016" xlink:href="#DejaVuSans-46"/>
     <use x="803.328125" xlink:href="#DejaVuSans-46"/>
     <use x="835.115234" xlink:href="#DejaVuSans-49"/>
     <use x="898.738281" xlink:href="#DejaVuSans-101"/>
     <use x="960.261719" xlink:href="#DejaVuSans-45"/>
     <use x="996.345703" xlink:href="#DejaVuSans-48"/>
     <use x="1059.96875" xlink:href="#DejaVuSans-54"/>
    </g>
    <!-- 30, 15 instances -->
    <g transform="translate(60.41088 60.954904)scale(0.102 -0.102)">
     <defs>
      <path d="M 40.578125 39.3125 
Q 47.65625 37.796875 51.625 33 
Q 55.609375 28.21875 55.609375 21.1875 
Q 55.609375 10.40625 48.1875 4.484375 
Q 40.765625 -1.421875 27.09375 -1.421875 
Q 22.515625 -1.421875 17.65625 -0.515625 
Q 12.796875 0.390625 7.625 2.203125 
L 7.625 11.71875 
Q 11.71875 9.328125 16.59375 8.109375 
Q 21.484375 6.890625 26.8125 6.890625 
Q 36.078125 6.890625 40.9375 10.546875 
Q 45.796875 14.203125 45.796875 21.1875 
Q 45.796875 27.640625 41.28125 31.265625 
Q 36.765625 34.90625 28.71875 34.90625 
L 20.21875 34.90625 
L 20.21875 43.015625 
L 29.109375 43.015625 
Q 36.375 43.015625 40.234375 45.921875 
Q 44.09375 48.828125 44.09375 54.296875 
Q 44.09375 59.90625 40.109375 62.90625 
Q 36.140625 65.921875 28.71875 65.921875 
Q 24.65625 65.921875 20.015625 65.03125 
Q 15.375 64.15625 9.8125 62.3125 
L 9.8125 71.09375 
Q 15.4375 72.65625 20.34375 73.4375 
Q 25.25 74.21875 29.59375 74.21875 
Q 40.828125 74.21875 47.359375 69.109375 
Q 53.90625 64.015625 53.90625 55.328125 
Q 53.90625 49.265625 50.4375 45.09375 
Q 46.96875 40.921875 40.578125 39.3125 
z
" id="DejaVuSans-51"/>
     </defs>
     <use xlink:href="#DejaVuSans-51"/>
     <use x="63.623047" xlink:href="#DejaVuSans-48"/>
     <use x="127.246094" xlink:href="#DejaVuSans-44"/>
     <use x="159.033203" xlink:href="#DejaVuSans-32"/>
     <use x="190.820312" xlink:href="#DejaVuSans-49"/>
     <use x="254.443359" xlink:href="#DejaVuSans-53"/>
     <use x="318.066406" xlink:href="#DejaVuSans-32"/>
     <use x="349.853516" xlink:href="#DejaVuSans-105"/>
     <use x="377.636719" xlink:href="#DejaVuSans-110"/>
     <use x="441.015625" xlink:href="#DejaVuSans-115"/>
     <use x="493.115234" xlink:href="#DejaVuSans-116"/>
     <use x="532.324219" xlink:href="#DejaVuSans-97"/>
     <use x="593.603516" xlink:href="#DejaVuSans-110"/>
     <use x="656.982422" xlink:href="#DejaVuSans-99"/>
     <use x="711.962891" xlink:href="#DejaVuSans-101"/>
     <use x="773.486328" xlink:href="#DejaVuSans-115"/>
    </g>
   </g>
   <g id="text_18">
    <!-- v5z33 -->
    <g style="fill:#808080;" transform="translate(183.016656 294.151352)scale(0.1 -0.1)">
     <defs>
      <path d="M 5.515625 54.6875 
L 48.1875 54.6875 
L 48.1875 46.484375 
L 14.40625 7.171875 
L 48.1875 7.171875 
L 48.1875 0 
L 4.296875 0 
L 4.296875 8.203125 
L 38.09375 47.515625 
L 5.515625 47.515625 
z
" id="DejaVuSans-122"/>
     </defs>
     <use xlink:href="#DejaVuSans-118"/>
     <use x="59.179688" xlink:href="#DejaVuSans-53"/>
     <use x="122.802734" xlink:href="#DejaVuSans-122"/>
     <use x="175.292969" xlink:href="#DejaVuSans-51"/>
     <use x="238.916016" xlink:href="#DejaVuSans-51"/>
    </g>
   </g>
   <g id="text_19">
    <!-- 20 Rotated Ellipsoid, 2 constraints -->
    <g transform="translate(27.053375 21.648)scale(0.2 -0.2)">
     <defs>
      <path d="M 44.390625 34.1875 
Q 47.5625 33.109375 50.5625 29.59375 
Q 53.5625 26.078125 56.59375 19.921875 
L 66.609375 0 
L 56 0 
L 46.6875 18.703125 
Q 43.0625 26.03125 39.671875 28.421875 
Q 36.28125 30.8125 30.421875 30.8125 
L 19.671875 30.8125 
L 19.671875 0 
L 9.8125 0 
L 9.8125 72.90625 
L 32.078125 72.90625 
Q 44.578125 72.90625 50.734375 67.671875 
Q 56.890625 62.453125 56.890625 51.90625 
Q 56.890625 45.015625 53.6875 40.46875 
Q 50.484375 35.9375 44.390625 34.1875 
z
M 19.671875 64.796875 
L 19.671875 38.921875 
L 32.078125 38.921875 
Q 39.203125 38.921875 42.84375 42.21875 
Q 46.484375 45.515625 46.484375 51.90625 
Q 46.484375 58.296875 42.84375 61.546875 
Q 39.203125 64.796875 32.078125 64.796875 
z
" id="DejaVuSans-82"/>
      <path d="M 9.8125 72.90625 
L 55.90625 72.90625 
L 55.90625 64.59375 
L 19.671875 64.59375 
L 19.671875 43.015625 
L 54.390625 43.015625 
L 54.390625 34.71875 
L 19.671875 34.71875 
L 19.671875 8.296875 
L 56.78125 8.296875 
L 56.78125 0 
L 9.8125 0 
z
" id="DejaVuSans-69"/>
     </defs>
     <use xlink:href="#DejaVuSans-50"/>
     <use x="63.623047" xlink:href="#DejaVuSans-48"/>
     <use x="127.246094" xlink:href="#DejaVuSans-32"/>
     <use x="159.033203" xlink:href="#DejaVuSans-82"/>
     <use x="224.015625" xlink:href="#DejaVuSans-111"/>
     <use x="285.197266" xlink:href="#DejaVuSans-116"/>
     <use x="324.40625" xlink:href="#DejaVuSans-97"/>
     <use x="385.685547" xlink:href="#DejaVuSans-116"/>
     <use x="424.894531" xlink:href="#DejaVuSans-101"/>
     <use x="486.417969" xlink:href="#DejaVuSans-100"/>
     <use x="549.894531" xlink:href="#DejaVuSans-32"/>
     <use x="581.681641" xlink:href="#DejaVuSans-69"/>
     <use x="644.865234" xlink:href="#DejaVuSans-108"/>
     <use x="672.648438" xlink:href="#DejaVuSans-108"/>
     <use x="700.431641" xlink:href="#DejaVuSans-105"/>
     <use x="728.214844" xlink:href="#DejaVuSans-112"/>
     <use x="791.691406" xlink:href="#DejaVuSans-115"/>
     <use x="843.791016" xlink:href="#DejaVuSans-111"/>
     <use x="904.972656" xlink:href="#DejaVuSans-105"/>
     <use x="932.755859" xlink:href="#DejaVuSans-100"/>
     <use x="996.232422" xlink:href="#DejaVuSans-44"/>
     <use x="1028.019531" xlink:href="#DejaVuSans-32"/>
     <use x="1059.806641" xlink:href="#DejaVuSans-50"/>
     <use x="1123.429688" xlink:href="#DejaVuSans-32"/>
     <use x="1155.216797" xlink:href="#DejaVuSans-99"/>
     <use x="1210.197266" xlink:href="#DejaVuSans-111"/>
     <use x="1271.378906" xlink:href="#DejaVuSans-110"/>
     <use x="1334.757812" xlink:href="#DejaVuSans-115"/>
     <use x="1386.857422" xlink:href="#DejaVuSans-116"/>
     <use x="1426.066406" xlink:href="#DejaVuSans-114"/>
     <use x="1467.179688" xlink:href="#DejaVuSans-97"/>
     <use x="1528.458984" xlink:href="#DejaVuSans-105"/>
     <use x="1556.242188" xlink:href="#DejaVuSans-110"/>
     <use x="1619.621094" xlink:href="#DejaVuSans-116"/>
     <use x="1658.830078" xlink:href="#DejaVuSans-115"/>
    </g>
   </g>
  </g>
 </g>
 <defs>
  <clipPath id="p8ed9dac74c">
   <rect height="271.296" width="281.088" x="57.6" y="27.648"/>
  </clipPath>
 </defs>
</svg>
