<?xml version="1.0" encoding="utf-8" standalone="no"?>
<!DOCTYPE svg PUBLIC "-//W3C//DTD SVG 1.1//EN"
  "http://www.w3.org/Graphics/SVG/1.1/DTD/svg11.dtd">
<!-- Created with matplotlib (https://matplotlib.org/) -->
<svg height="345.6pt" version="1.1" viewBox="0 0 460.8 345.6" width="460.8pt" xmlns="http://www.w3.org/2000/svg" xmlns:xlink="http://www.w3.org/1999/xlink">
 <metadata>
  <rdf:RDF xmlns:cc="http://creativecommons.org/ns#" xmlns:dc="http://purl.org/dc/elements/1.1/" xmlns:rdf="http://www.w3.org/1999/02/22-rdf-syntax-ns#">
   <cc:Work>
    <dc:type rdf:resource="http://purl.org/dc/dcmitype/StillImage"/>
    <dc:date>2021-03-16T15:06:46.925812</dc:date>
    <dc:format>image/svg+xml</dc:format>
    <dc:creator>
     <cc:Agent>
      <dc:title>Matplotlib v3.3.3, https://matplotlib.org/</dc:title>
     </cc:Agent>
    </dc:creator>
   </cc:Work>
  </rdf:RDF>
 </metadata>
 <defs>
  <style type="text/css">*{stroke-linecap:butt;stroke-linejoin:round;}</style>
 </defs>
 <g id="figure_1">
  <g id="patch_1">
   <path d="M 0 345.6 
L 460.8 345.6 
L 460.8 0 
L 0 0 
z
" style="fill:#ffffff;"/>
  </g>
  <g id="axes_1">
   <g id="patch_2">
    <path d="M 57.6 298.944 
L 338.688 298.944 
L 338.688 27.648 
L 57.6 27.648 
z
" style="fill:#ffffff;"/>
   </g>
   <g id="matplotlib.axis_1">
    <g id="xtick_1">
     <g id="line2d_1">
      <path clip-path="url(#p152af7f9b1)" d="M 57.6 298.944 
L 57.6 27.648 
" style="fill:none;stroke:#b0b0b0;stroke-linecap:square;stroke-width:0.8;"/>
     </g>
     <g id="line2d_2">
      <defs>
       <path d="M 0 0 
L 0 3.5 
" id="mbf39b78b5d" style="stroke:#000000;stroke-width:0.8;"/>
      </defs>
      <g>
       <use style="stroke:#000000;stroke-width:0.8;" x="57.6" xlink:href="#mbf39b78b5d" y="298.944"/>
      </g>
     </g>
     <g id="text_1">
      <!-- 0 -->
      <g transform="translate(51.2375 321.140875)scale(0.2 -0.2)">
       <defs>
        <path d="M 31.78125 66.40625 
Q 24.171875 66.40625 20.328125 58.90625 
Q 16.5 51.421875 16.5 36.375 
Q 16.5 21.390625 20.328125 13.890625 
Q 24.171875 6.390625 31.78125 6.390625 
Q 39.453125 6.390625 43.28125 13.890625 
Q 47.125 21.390625 47.125 36.375 
Q 47.125 51.421875 43.28125 58.90625 
Q 39.453125 66.40625 31.78125 66.40625 
z
M 31.78125 74.21875 
Q 44.046875 74.21875 50.515625 64.515625 
Q 56.984375 54.828125 56.984375 36.375 
Q 56.984375 17.96875 50.515625 8.265625 
Q 44.046875 -1.421875 31.78125 -1.421875 
Q 19.53125 -1.421875 13.0625 8.265625 
Q 6.59375 17.96875 6.59375 36.375 
Q 6.59375 54.828125 13.0625 64.515625 
Q 19.53125 74.21875 31.78125 74.21875 
z
" id="DejaVuSans-48"/>
       </defs>
       <use xlink:href="#DejaVuSans-48"/>
      </g>
     </g>
    </g>
    <g id="xtick_2">
     <g id="line2d_3">
      <path clip-path="url(#p152af7f9b1)" d="M 137.910857 298.944 
L 137.910857 27.648 
" style="fill:none;stroke:#b0b0b0;stroke-linecap:square;stroke-width:0.8;"/>
     </g>
     <g id="line2d_4">
      <g>
       <use style="stroke:#000000;stroke-width:0.8;" x="137.910857" xlink:href="#mbf39b78b5d" y="298.944"/>
      </g>
     </g>
     <g id="text_2">
      <!-- 2 -->
      <g transform="translate(131.548357 321.140875)scale(0.2 -0.2)">
       <defs>
        <path d="M 19.1875 8.296875 
L 53.609375 8.296875 
L 53.609375 0 
L 7.328125 0 
L 7.328125 8.296875 
Q 12.9375 14.109375 22.625 23.890625 
Q 32.328125 33.6875 34.8125 36.53125 
Q 39.546875 41.84375 41.421875 45.53125 
Q 43.3125 49.21875 43.3125 52.78125 
Q 43.3125 58.59375 39.234375 62.25 
Q 35.15625 65.921875 28.609375 65.921875 
Q 23.96875 65.921875 18.8125 64.3125 
Q 13.671875 62.703125 7.8125 59.421875 
L 7.8125 69.390625 
Q 13.765625 71.78125 18.9375 73 
Q 24.125 74.21875 28.421875 74.21875 
Q 39.75 74.21875 46.484375 68.546875 
Q 53.21875 62.890625 53.21875 53.421875 
Q 53.21875 48.921875 51.53125 44.890625 
Q 49.859375 40.875 45.40625 35.40625 
Q 44.1875 33.984375 37.640625 27.21875 
Q 31.109375 20.453125 19.1875 8.296875 
z
" id="DejaVuSans-50"/>
       </defs>
       <use xlink:href="#DejaVuSans-50"/>
      </g>
     </g>
    </g>
    <g id="xtick_3">
     <g id="line2d_5">
      <path clip-path="url(#p152af7f9b1)" d="M 218.221714 298.944 
L 218.221714 27.648 
" style="fill:none;stroke:#b0b0b0;stroke-linecap:square;stroke-width:0.8;"/>
     </g>
     <g id="line2d_6">
      <g>
       <use style="stroke:#000000;stroke-width:0.8;" x="218.221714" xlink:href="#mbf39b78b5d" y="298.944"/>
      </g>
     </g>
     <g id="text_3">
      <!-- 4 -->
      <g transform="translate(211.859214 321.140875)scale(0.2 -0.2)">
       <defs>
        <path d="M 37.796875 64.3125 
L 12.890625 25.390625 
L 37.796875 25.390625 
z
M 35.203125 72.90625 
L 47.609375 72.90625 
L 47.609375 25.390625 
L 58.015625 25.390625 
L 58.015625 17.1875 
L 47.609375 17.1875 
L 47.609375 0 
L 37.796875 0 
L 37.796875 17.1875 
L 4.890625 17.1875 
L 4.890625 26.703125 
z
" id="DejaVuSans-52"/>
       </defs>
       <use xlink:href="#DejaVuSans-52"/>
      </g>
     </g>
    </g>
    <g id="xtick_4">
     <g id="line2d_7">
      <path clip-path="url(#p152af7f9b1)" d="M 298.532571 298.944 
L 298.532571 27.648 
" style="fill:none;stroke:#b0b0b0;stroke-linecap:square;stroke-width:0.8;"/>
     </g>
     <g id="line2d_8">
      <g>
       <use style="stroke:#000000;stroke-width:0.8;" x="298.532571" xlink:href="#mbf39b78b5d" y="298.944"/>
      </g>
     </g>
     <g id="text_4">
      <!-- 6 -->
      <g transform="translate(292.170071 321.140875)scale(0.2 -0.2)">
       <defs>
        <path d="M 33.015625 40.375 
Q 26.375 40.375 22.484375 35.828125 
Q 18.609375 31.296875 18.609375 23.390625 
Q 18.609375 15.53125 22.484375 10.953125 
Q 26.375 6.390625 33.015625 6.390625 
Q 39.65625 6.390625 43.53125 10.953125 
Q 47.40625 15.53125 47.40625 23.390625 
Q 47.40625 31.296875 43.53125 35.828125 
Q 39.65625 40.375 33.015625 40.375 
z
M 52.59375 71.296875 
L 52.59375 62.3125 
Q 48.875 64.0625 45.09375 64.984375 
Q 41.3125 65.921875 37.59375 65.921875 
Q 27.828125 65.921875 22.671875 59.328125 
Q 17.53125 52.734375 16.796875 39.40625 
Q 19.671875 43.65625 24.015625 45.921875 
Q 28.375 48.1875 33.59375 48.1875 
Q 44.578125 48.1875 50.953125 41.515625 
Q 57.328125 34.859375 57.328125 23.390625 
Q 57.328125 12.15625 50.6875 5.359375 
Q 44.046875 -1.421875 33.015625 -1.421875 
Q 20.359375 -1.421875 13.671875 8.265625 
Q 6.984375 17.96875 6.984375 36.375 
Q 6.984375 53.65625 15.1875 63.9375 
Q 23.390625 74.21875 37.203125 74.21875 
Q 40.921875 74.21875 44.703125 73.484375 
Q 48.484375 72.75 52.59375 71.296875 
z
" id="DejaVuSans-54"/>
       </defs>
       <use xlink:href="#DejaVuSans-54"/>
      </g>
     </g>
    </g>
    <g id="xtick_5">
     <g id="line2d_9">
      <path clip-path="url(#p152af7f9b1)" d="M 97.755429 298.944 
L 97.755429 27.648 
" style="fill:none;stroke:#b0b0b0;stroke-linecap:square;stroke-width:0.8;"/>
     </g>
     <g id="line2d_10">
      <defs>
       <path d="M 0 0 
L 0 2 
" id="m05e25e05c8" style="stroke:#000000;stroke-width:0.6;"/>
      </defs>
      <g>
       <use style="stroke:#000000;stroke-width:0.6;" x="97.755429" xlink:href="#m05e25e05c8" y="298.944"/>
      </g>
     </g>
    </g>
    <g id="xtick_6">
     <g id="line2d_11">
      <path clip-path="url(#p152af7f9b1)" d="M 178.066286 298.944 
L 178.066286 27.648 
" style="fill:none;stroke:#b0b0b0;stroke-linecap:square;stroke-width:0.8;"/>
     </g>
     <g id="line2d_12">
      <g>
       <use style="stroke:#000000;stroke-width:0.6;" x="178.066286" xlink:href="#m05e25e05c8" y="298.944"/>
      </g>
     </g>
    </g>
    <g id="xtick_7">
     <g id="line2d_13">
      <path clip-path="url(#p152af7f9b1)" d="M 258.377143 298.944 
L 258.377143 27.648 
" style="fill:none;stroke:#b0b0b0;stroke-linecap:square;stroke-width:0.8;"/>
     </g>
     <g id="line2d_14">
      <g>
       <use style="stroke:#000000;stroke-width:0.6;" x="258.377143" xlink:href="#m05e25e05c8" y="298.944"/>
      </g>
     </g>
    </g>
    <g id="xtick_8">
     <g id="line2d_15">
      <path clip-path="url(#p152af7f9b1)" d="M 338.688 298.944 
L 338.688 27.648 
" style="fill:none;stroke:#b0b0b0;stroke-linecap:square;stroke-width:0.8;"/>
     </g>
     <g id="line2d_16">
      <g>
       <use style="stroke:#000000;stroke-width:0.6;" x="338.688" xlink:href="#m05e25e05c8" y="298.944"/>
      </g>
     </g>
    </g>
    <g id="text_5">
     <!-- log10(# (f+g)-evals / dimension) -->
     <g transform="translate(58.145016 342.217594)scale(0.17 -0.17)">
      <defs>
       <path d="M 9.421875 75.984375 
L 18.40625 75.984375 
L 18.40625 0 
L 9.421875 0 
z
" id="DejaVuSans-108"/>
       <path d="M 30.609375 48.390625 
Q 23.390625 48.390625 19.1875 42.75 
Q 14.984375 37.109375 14.984375 27.296875 
Q 14.984375 17.484375 19.15625 11.84375 
Q 23.34375 6.203125 30.609375 6.203125 
Q 37.796875 6.203125 41.984375 11.859375 
Q 46.1875 17.53125 46.1875 27.296875 
Q 46.1875 37.015625 41.984375 42.703125 
Q 37.796875 48.390625 30.609375 48.390625 
z
M 30.609375 56 
Q 42.328125 56 49.015625 48.375 
Q 55.71875 40.765625 55.71875 27.296875 
Q 55.71875 13.875 49.015625 6.21875 
Q 42.328125 -1.421875 30.609375 -1.421875 
Q 18.84375 -1.421875 12.171875 6.21875 
Q 5.515625 13.875 5.515625 27.296875 
Q 5.515625 40.765625 12.171875 48.375 
Q 18.84375 56 30.609375 56 
z
" id="DejaVuSans-111"/>
       <path d="M 45.40625 27.984375 
Q 45.40625 37.75 41.375 43.109375 
Q 37.359375 48.484375 30.078125 48.484375 
Q 22.859375 48.484375 18.828125 43.109375 
Q 14.796875 37.75 14.796875 27.984375 
Q 14.796875 18.265625 18.828125 12.890625 
Q 22.859375 7.515625 30.078125 7.515625 
Q 37.359375 7.515625 41.375 12.890625 
Q 45.40625 18.265625 45.40625 27.984375 
z
M 54.390625 6.78125 
Q 54.390625 -7.171875 48.1875 -13.984375 
Q 42 -20.796875 29.203125 -20.796875 
Q 24.46875 -20.796875 20.265625 -20.09375 
Q 16.0625 -19.390625 12.109375 -17.921875 
L 12.109375 -9.1875 
Q 16.0625 -11.328125 19.921875 -12.34375 
Q 23.78125 -13.375 27.78125 -13.375 
Q 36.625 -13.375 41.015625 -8.765625 
Q 45.40625 -4.15625 45.40625 5.171875 
L 45.40625 9.625 
Q 42.625 4.78125 38.28125 2.390625 
Q 33.9375 0 27.875 0 
Q 17.828125 0 11.671875 7.65625 
Q 5.515625 15.328125 5.515625 27.984375 
Q 5.515625 40.671875 11.671875 48.328125 
Q 17.828125 56 27.875 56 
Q 33.9375 56 38.28125 53.609375 
Q 42.625 51.21875 45.40625 46.390625 
L 45.40625 54.6875 
L 54.390625 54.6875 
z
" id="DejaVuSans-103"/>
       <path d="M 12.40625 8.296875 
L 28.515625 8.296875 
L 28.515625 63.921875 
L 10.984375 60.40625 
L 10.984375 69.390625 
L 28.421875 72.90625 
L 38.28125 72.90625 
L 38.28125 8.296875 
L 54.390625 8.296875 
L 54.390625 0 
L 12.40625 0 
z
" id="DejaVuSans-49"/>
       <path d="M 31 75.875 
Q 24.46875 64.65625 21.28125 53.65625 
Q 18.109375 42.671875 18.109375 31.390625 
Q 18.109375 20.125 21.3125 9.0625 
Q 24.515625 -2 31 -13.1875 
L 23.1875 -13.1875 
Q 15.875 -1.703125 12.234375 9.375 
Q 8.59375 20.453125 8.59375 31.390625 
Q 8.59375 42.28125 12.203125 53.3125 
Q 15.828125 64.359375 23.1875 75.875 
z
" id="DejaVuSans-40"/>
       <path d="M 51.125 44 
L 36.921875 44 
L 32.8125 27.6875 
L 47.125 27.6875 
z
M 43.796875 71.78125 
L 38.71875 51.515625 
L 52.984375 51.515625 
L 58.109375 71.78125 
L 65.921875 71.78125 
L 60.890625 51.515625 
L 76.125 51.515625 
L 76.125 44 
L 58.984375 44 
L 54.984375 27.6875 
L 70.515625 27.6875 
L 70.515625 20.21875 
L 53.078125 20.21875 
L 48 0 
L 40.1875 0 
L 45.21875 20.21875 
L 30.90625 20.21875 
L 25.875 0 
L 18.015625 0 
L 23.09375 20.21875 
L 7.71875 20.21875 
L 7.71875 27.6875 
L 24.90625 27.6875 
L 29 44 
L 13.28125 44 
L 13.28125 51.515625 
L 30.90625 51.515625 
L 35.890625 71.78125 
z
" id="DejaVuSans-35"/>
       <path id="DejaVuSans-32"/>
       <path d="M 37.109375 75.984375 
L 37.109375 68.5 
L 28.515625 68.5 
Q 23.6875 68.5 21.796875 66.546875 
Q 19.921875 64.59375 19.921875 59.515625 
L 19.921875 54.6875 
L 34.71875 54.6875 
L 34.71875 47.703125 
L 19.921875 47.703125 
L 19.921875 0 
L 10.890625 0 
L 10.890625 47.703125 
L 2.296875 47.703125 
L 2.296875 54.6875 
L 10.890625 54.6875 
L 10.890625 58.5 
Q 10.890625 67.625 15.140625 71.796875 
Q 19.390625 75.984375 28.609375 75.984375 
z
" id="DejaVuSans-102"/>
       <path d="M 46 62.703125 
L 46 35.5 
L 73.1875 35.5 
L 73.1875 27.203125 
L 46 27.203125 
L 46 0 
L 37.796875 0 
L 37.796875 27.203125 
L 10.59375 27.203125 
L 10.59375 35.5 
L 37.796875 35.5 
L 37.796875 62.703125 
z
" id="DejaVuSans-43"/>
       <path d="M 8.015625 75.875 
L 15.828125 75.875 
Q 23.140625 64.359375 26.78125 53.3125 
Q 30.421875 42.28125 30.421875 31.390625 
Q 30.421875 20.453125 26.78125 9.375 
Q 23.140625 -1.703125 15.828125 -13.1875 
L 8.015625 -13.1875 
Q 14.5 -2 17.703125 9.0625 
Q 20.90625 20.125 20.90625 31.390625 
Q 20.90625 42.671875 17.703125 53.65625 
Q 14.5 64.65625 8.015625 75.875 
z
" id="DejaVuSans-41"/>
       <path d="M 4.890625 31.390625 
L 31.203125 31.390625 
L 31.203125 23.390625 
L 4.890625 23.390625 
z
" id="DejaVuSans-45"/>
       <path d="M 56.203125 29.59375 
L 56.203125 25.203125 
L 14.890625 25.203125 
Q 15.484375 15.921875 20.484375 11.0625 
Q 25.484375 6.203125 34.421875 6.203125 
Q 39.59375 6.203125 44.453125 7.46875 
Q 49.3125 8.734375 54.109375 11.28125 
L 54.109375 2.78125 
Q 49.265625 0.734375 44.1875 -0.34375 
Q 39.109375 -1.421875 33.890625 -1.421875 
Q 20.796875 -1.421875 13.15625 6.1875 
Q 5.515625 13.8125 5.515625 26.8125 
Q 5.515625 40.234375 12.765625 48.109375 
Q 20.015625 56 32.328125 56 
Q 43.359375 56 49.78125 48.890625 
Q 56.203125 41.796875 56.203125 29.59375 
z
M 47.21875 32.234375 
Q 47.125 39.59375 43.09375 43.984375 
Q 39.0625 48.390625 32.421875 48.390625 
Q 24.90625 48.390625 20.390625 44.140625 
Q 15.875 39.890625 15.1875 32.171875 
z
" id="DejaVuSans-101"/>
       <path d="M 2.984375 54.6875 
L 12.5 54.6875 
L 29.59375 8.796875 
L 46.6875 54.6875 
L 56.203125 54.6875 
L 35.6875 0 
L 23.484375 0 
z
" id="DejaVuSans-118"/>
       <path d="M 34.28125 27.484375 
Q 23.390625 27.484375 19.1875 25 
Q 14.984375 22.515625 14.984375 16.5 
Q 14.984375 11.71875 18.140625 8.90625 
Q 21.296875 6.109375 26.703125 6.109375 
Q 34.1875 6.109375 38.703125 11.40625 
Q 43.21875 16.703125 43.21875 25.484375 
L 43.21875 27.484375 
z
M 52.203125 31.203125 
L 52.203125 0 
L 43.21875 0 
L 43.21875 8.296875 
Q 40.140625 3.328125 35.546875 0.953125 
Q 30.953125 -1.421875 24.3125 -1.421875 
Q 15.921875 -1.421875 10.953125 3.296875 
Q 6 8.015625 6 15.921875 
Q 6 25.140625 12.171875 29.828125 
Q 18.359375 34.515625 30.609375 34.515625 
L 43.21875 34.515625 
L 43.21875 35.40625 
Q 43.21875 41.609375 39.140625 45 
Q 35.0625 48.390625 27.6875 48.390625 
Q 23 48.390625 18.546875 47.265625 
Q 14.109375 46.140625 10.015625 43.890625 
L 10.015625 52.203125 
Q 14.9375 54.109375 19.578125 55.046875 
Q 24.21875 56 28.609375 56 
Q 40.484375 56 46.34375 49.84375 
Q 52.203125 43.703125 52.203125 31.203125 
z
" id="DejaVuSans-97"/>
       <path d="M 44.28125 53.078125 
L 44.28125 44.578125 
Q 40.484375 46.53125 36.375 47.5 
Q 32.28125 48.484375 27.875 48.484375 
Q 21.1875 48.484375 17.84375 46.4375 
Q 14.5 44.390625 14.5 40.28125 
Q 14.5 37.15625 16.890625 35.375 
Q 19.28125 33.59375 26.515625 31.984375 
L 29.59375 31.296875 
Q 39.15625 29.25 43.1875 25.515625 
Q 47.21875 21.78125 47.21875 15.09375 
Q 47.21875 7.46875 41.1875 3.015625 
Q 35.15625 -1.421875 24.609375 -1.421875 
Q 20.21875 -1.421875 15.453125 -0.5625 
Q 10.6875 0.296875 5.421875 2 
L 5.421875 11.28125 
Q 10.40625 8.6875 15.234375 7.390625 
Q 20.0625 6.109375 24.8125 6.109375 
Q 31.15625 6.109375 34.5625 8.28125 
Q 37.984375 10.453125 37.984375 14.40625 
Q 37.984375 18.0625 35.515625 20.015625 
Q 33.0625 21.96875 24.703125 23.78125 
L 21.578125 24.515625 
Q 13.234375 26.265625 9.515625 29.90625 
Q 5.8125 33.546875 5.8125 39.890625 
Q 5.8125 47.609375 11.28125 51.796875 
Q 16.75 56 26.8125 56 
Q 31.78125 56 36.171875 55.265625 
Q 40.578125 54.546875 44.28125 53.078125 
z
" id="DejaVuSans-115"/>
       <path d="M 25.390625 72.90625 
L 33.6875 72.90625 
L 8.296875 -9.28125 
L 0 -9.28125 
z
" id="DejaVuSans-47"/>
       <path d="M 45.40625 46.390625 
L 45.40625 75.984375 
L 54.390625 75.984375 
L 54.390625 0 
L 45.40625 0 
L 45.40625 8.203125 
Q 42.578125 3.328125 38.25 0.953125 
Q 33.9375 -1.421875 27.875 -1.421875 
Q 17.96875 -1.421875 11.734375 6.484375 
Q 5.515625 14.40625 5.515625 27.296875 
Q 5.515625 40.1875 11.734375 48.09375 
Q 17.96875 56 27.875 56 
Q 33.9375 56 38.25 53.625 
Q 42.578125 51.265625 45.40625 46.390625 
z
M 14.796875 27.296875 
Q 14.796875 17.390625 18.875 11.75 
Q 22.953125 6.109375 30.078125 6.109375 
Q 37.203125 6.109375 41.296875 11.75 
Q 45.40625 17.390625 45.40625 27.296875 
Q 45.40625 37.203125 41.296875 42.84375 
Q 37.203125 48.484375 30.078125 48.484375 
Q 22.953125 48.484375 18.875 42.84375 
Q 14.796875 37.203125 14.796875 27.296875 
z
" id="DejaVuSans-100"/>
       <path d="M 9.421875 54.6875 
L 18.40625 54.6875 
L 18.40625 0 
L 9.421875 0 
z
M 9.421875 75.984375 
L 18.40625 75.984375 
L 18.40625 64.59375 
L 9.421875 64.59375 
z
" id="DejaVuSans-105"/>
       <path d="M 52 44.1875 
Q 55.375 50.25 60.0625 53.125 
Q 64.75 56 71.09375 56 
Q 79.640625 56 84.28125 50.015625 
Q 88.921875 44.046875 88.921875 33.015625 
L 88.921875 0 
L 79.890625 0 
L 79.890625 32.71875 
Q 79.890625 40.578125 77.09375 44.375 
Q 74.3125 48.1875 68.609375 48.1875 
Q 61.625 48.1875 57.5625 43.546875 
Q 53.515625 38.921875 53.515625 30.90625 
L 53.515625 0 
L 44.484375 0 
L 44.484375 32.71875 
Q 44.484375 40.625 41.703125 44.40625 
Q 38.921875 48.1875 33.109375 48.1875 
Q 26.21875 48.1875 22.15625 43.53125 
Q 18.109375 38.875 18.109375 30.90625 
L 18.109375 0 
L 9.078125 0 
L 9.078125 54.6875 
L 18.109375 54.6875 
L 18.109375 46.1875 
Q 21.1875 51.21875 25.484375 53.609375 
Q 29.78125 56 35.6875 56 
Q 41.65625 56 45.828125 52.96875 
Q 50 49.953125 52 44.1875 
z
" id="DejaVuSans-109"/>
       <path d="M 54.890625 33.015625 
L 54.890625 0 
L 45.90625 0 
L 45.90625 32.71875 
Q 45.90625 40.484375 42.875 44.328125 
Q 39.84375 48.1875 33.796875 48.1875 
Q 26.515625 48.1875 22.3125 43.546875 
Q 18.109375 38.921875 18.109375 30.90625 
L 18.109375 0 
L 9.078125 0 
L 9.078125 54.6875 
L 18.109375 54.6875 
L 18.109375 46.1875 
Q 21.34375 51.125 25.703125 53.5625 
Q 30.078125 56 35.796875 56 
Q 45.21875 56 50.046875 50.171875 
Q 54.890625 44.34375 54.890625 33.015625 
z
" id="DejaVuSans-110"/>
      </defs>
      <use xlink:href="#DejaVuSans-108"/>
      <use x="27.783203" xlink:href="#DejaVuSans-111"/>
      <use x="88.964844" xlink:href="#DejaVuSans-103"/>
      <use x="152.441406" xlink:href="#DejaVuSans-49"/>
      <use x="216.064453" xlink:href="#DejaVuSans-48"/>
      <use x="279.6875" xlink:href="#DejaVuSans-40"/>
      <use x="318.701172" xlink:href="#DejaVuSans-35"/>
      <use x="402.490234" xlink:href="#DejaVuSans-32"/>
      <use x="434.277344" xlink:href="#DejaVuSans-40"/>
      <use x="473.291016" xlink:href="#DejaVuSans-102"/>
      <use x="508.496094" xlink:href="#DejaVuSans-43"/>
      <use x="592.285156" xlink:href="#DejaVuSans-103"/>
      <use x="655.761719" xlink:href="#DejaVuSans-41"/>
      <use x="694.775391" xlink:href="#DejaVuSans-45"/>
      <use x="730.859375" xlink:href="#DejaVuSans-101"/>
      <use x="792.382812" xlink:href="#DejaVuSans-118"/>
      <use x="851.5625" xlink:href="#DejaVuSans-97"/>
      <use x="912.841797" xlink:href="#DejaVuSans-108"/>
      <use x="940.625" xlink:href="#DejaVuSans-115"/>
      <use x="992.724609" xlink:href="#DejaVuSans-32"/>
      <use x="1024.511719" xlink:href="#DejaVuSans-47"/>
      <use x="1058.203125" xlink:href="#DejaVuSans-32"/>
      <use x="1089.990234" xlink:href="#DejaVuSans-100"/>
      <use x="1153.466797" xlink:href="#DejaVuSans-105"/>
      <use x="1181.25" xlink:href="#DejaVuSans-109"/>
      <use x="1278.662109" xlink:href="#DejaVuSans-101"/>
      <use x="1340.185547" xlink:href="#DejaVuSans-110"/>
      <use x="1403.564453" xlink:href="#DejaVuSans-115"/>
      <use x="1455.664062" xlink:href="#DejaVuSans-105"/>
      <use x="1483.447266" xlink:href="#DejaVuSans-111"/>
      <use x="1544.628906" xlink:href="#DejaVuSans-110"/>
      <use x="1608.007812" xlink:href="#DejaVuSans-41"/>
     </g>
    </g>
   </g>
   <g id="matplotlib.axis_2">
    <g id="ytick_1">
     <g id="line2d_17">
      <path clip-path="url(#p152af7f9b1)" d="M 57.6 298.944 
L 338.688 298.944 
" style="fill:none;stroke:#b0b0b0;stroke-linecap:square;stroke-width:0.8;"/>
     </g>
     <g id="line2d_18">
      <defs>
       <path d="M 0 0 
L -3.5 0 
" id="m6b030caa85" style="stroke:#000000;stroke-width:0.8;"/>
      </defs>
      <g>
       <use style="stroke:#000000;stroke-width:0.8;" x="57.6" xlink:href="#m6b030caa85" y="298.944"/>
      </g>
     </g>
     <g id="text_6">
      <!-- 0.0 -->
      <g transform="translate(25.155 305.02275)scale(0.16 -0.16)">
       <defs>
        <path d="M 10.6875 12.40625 
L 21 12.40625 
L 21 0 
L 10.6875 0 
z
" id="DejaVuSans-46"/>
       </defs>
       <use xlink:href="#DejaVuSans-48"/>
       <use x="63.623047" xlink:href="#DejaVuSans-46"/>
       <use x="95.410156" xlink:href="#DejaVuSans-48"/>
      </g>
     </g>
    </g>
    <g id="ytick_2">
     <g id="line2d_19">
      <path clip-path="url(#p152af7f9b1)" d="M 57.6 245.22202 
L 338.688 245.22202 
" style="fill:none;stroke:#b0b0b0;stroke-linecap:square;stroke-width:0.8;"/>
     </g>
     <g id="line2d_20">
      <g>
       <use style="stroke:#000000;stroke-width:0.8;" x="57.6" xlink:href="#m6b030caa85" y="245.22202"/>
      </g>
     </g>
     <g id="text_7">
      <!-- 0.2 -->
      <g transform="translate(25.155 251.30077)scale(0.16 -0.16)">
       <use xlink:href="#DejaVuSans-48"/>
       <use x="63.623047" xlink:href="#DejaVuSans-46"/>
       <use x="95.410156" xlink:href="#DejaVuSans-50"/>
      </g>
     </g>
    </g>
    <g id="ytick_3">
     <g id="line2d_21">
      <path clip-path="url(#p152af7f9b1)" d="M 57.6 191.50004 
L 338.688 191.50004 
" style="fill:none;stroke:#b0b0b0;stroke-linecap:square;stroke-width:0.8;"/>
     </g>
     <g id="line2d_22">
      <g>
       <use style="stroke:#000000;stroke-width:0.8;" x="57.6" xlink:href="#m6b030caa85" y="191.50004"/>
      </g>
     </g>
     <g id="text_8">
      <!-- 0.4 -->
      <g transform="translate(25.155 197.57879)scale(0.16 -0.16)">
       <use xlink:href="#DejaVuSans-48"/>
       <use x="63.623047" xlink:href="#DejaVuSans-46"/>
       <use x="95.410156" xlink:href="#DejaVuSans-52"/>
      </g>
     </g>
    </g>
    <g id="ytick_4">
     <g id="line2d_23">
      <path clip-path="url(#p152af7f9b1)" d="M 57.6 137.778059 
L 338.688 137.778059 
" style="fill:none;stroke:#b0b0b0;stroke-linecap:square;stroke-width:0.8;"/>
     </g>
     <g id="line2d_24">
      <g>
       <use style="stroke:#000000;stroke-width:0.8;" x="57.6" xlink:href="#m6b030caa85" y="137.778059"/>
      </g>
     </g>
     <g id="text_9">
      <!-- 0.6 -->
      <g transform="translate(25.155 143.856809)scale(0.16 -0.16)">
       <use xlink:href="#DejaVuSans-48"/>
       <use x="63.623047" xlink:href="#DejaVuSans-46"/>
       <use x="95.410156" xlink:href="#DejaVuSans-54"/>
      </g>
     </g>
    </g>
    <g id="ytick_5">
     <g id="line2d_25">
      <path clip-path="url(#p152af7f9b1)" d="M 57.6 84.056079 
L 338.688 84.056079 
" style="fill:none;stroke:#b0b0b0;stroke-linecap:square;stroke-width:0.8;"/>
     </g>
     <g id="line2d_26">
      <g>
       <use style="stroke:#000000;stroke-width:0.8;" x="57.6" xlink:href="#m6b030caa85" y="84.056079"/>
      </g>
     </g>
     <g id="text_10">
      <!-- 0.8 -->
      <g transform="translate(25.155 90.134829)scale(0.16 -0.16)">
       <defs>
        <path d="M 31.78125 34.625 
Q 24.75 34.625 20.71875 30.859375 
Q 16.703125 27.09375 16.703125 20.515625 
Q 16.703125 13.921875 20.71875 10.15625 
Q 24.75 6.390625 31.78125 6.390625 
Q 38.8125 6.390625 42.859375 10.171875 
Q 46.921875 13.96875 46.921875 20.515625 
Q 46.921875 27.09375 42.890625 30.859375 
Q 38.875 34.625 31.78125 34.625 
z
M 21.921875 38.8125 
Q 15.578125 40.375 12.03125 44.71875 
Q 8.5 49.078125 8.5 55.328125 
Q 8.5 64.0625 14.71875 69.140625 
Q 20.953125 74.21875 31.78125 74.21875 
Q 42.671875 74.21875 48.875 69.140625 
Q 55.078125 64.0625 55.078125 55.328125 
Q 55.078125 49.078125 51.53125 44.71875 
Q 48 40.375 41.703125 38.8125 
Q 48.828125 37.15625 52.796875 32.3125 
Q 56.78125 27.484375 56.78125 20.515625 
Q 56.78125 9.90625 50.3125 4.234375 
Q 43.84375 -1.421875 31.78125 -1.421875 
Q 19.734375 -1.421875 13.25 4.234375 
Q 6.78125 9.90625 6.78125 20.515625 
Q 6.78125 27.484375 10.78125 32.3125 
Q 14.796875 37.15625 21.921875 38.8125 
z
M 18.3125 54.390625 
Q 18.3125 48.734375 21.84375 45.5625 
Q 25.390625 42.390625 31.78125 42.390625 
Q 38.140625 42.390625 41.71875 45.5625 
Q 45.3125 48.734375 45.3125 54.390625 
Q 45.3125 60.0625 41.71875 63.234375 
Q 38.140625 66.40625 31.78125 66.40625 
Q 25.390625 66.40625 21.84375 63.234375 
Q 18.3125 60.0625 18.3125 54.390625 
z
" id="DejaVuSans-56"/>
       </defs>
       <use xlink:href="#DejaVuSans-48"/>
       <use x="63.623047" xlink:href="#DejaVuSans-46"/>
       <use x="95.410156" xlink:href="#DejaVuSans-56"/>
      </g>
     </g>
    </g>
    <g id="ytick_6">
     <g id="line2d_27">
      <path clip-path="url(#p152af7f9b1)" d="M 57.6 30.334099 
L 338.688 30.334099 
" style="fill:none;stroke:#b0b0b0;stroke-linecap:square;stroke-width:0.8;"/>
     </g>
     <g id="line2d_28">
      <g>
       <use style="stroke:#000000;stroke-width:0.8;" x="57.6" xlink:href="#m6b030caa85" y="30.334099"/>
      </g>
     </g>
     <g id="text_11">
      <!-- 1.0 -->
      <g transform="translate(25.155 36.412849)scale(0.16 -0.16)">
       <use xlink:href="#DejaVuSans-49"/>
       <use x="63.623047" xlink:href="#DejaVuSans-46"/>
       <use x="95.410156" xlink:href="#DejaVuSans-48"/>
      </g>
     </g>
    </g>
    <g id="text_12">
     <!-- Fraction of function,target pairs -->
     <g transform="translate(17.619531 297.681)rotate(-90)scale(0.17 -0.17)">
      <defs>
       <path d="M 9.8125 72.90625 
L 51.703125 72.90625 
L 51.703125 64.59375 
L 19.671875 64.59375 
L 19.671875 43.109375 
L 48.578125 43.109375 
L 48.578125 34.8125 
L 19.671875 34.8125 
L 19.671875 0 
L 9.8125 0 
z
" id="DejaVuSans-70"/>
       <path d="M 41.109375 46.296875 
Q 39.59375 47.171875 37.8125 47.578125 
Q 36.03125 48 33.890625 48 
Q 26.265625 48 22.1875 43.046875 
Q 18.109375 38.09375 18.109375 28.8125 
L 18.109375 0 
L 9.078125 0 
L 9.078125 54.6875 
L 18.109375 54.6875 
L 18.109375 46.1875 
Q 20.953125 51.171875 25.484375 53.578125 
Q 30.03125 56 36.53125 56 
Q 37.453125 56 38.578125 55.875 
Q 39.703125 55.765625 41.0625 55.515625 
z
" id="DejaVuSans-114"/>
       <path d="M 48.78125 52.59375 
L 48.78125 44.1875 
Q 44.96875 46.296875 41.140625 47.34375 
Q 37.3125 48.390625 33.40625 48.390625 
Q 24.65625 48.390625 19.8125 42.84375 
Q 14.984375 37.3125 14.984375 27.296875 
Q 14.984375 17.28125 19.8125 11.734375 
Q 24.65625 6.203125 33.40625 6.203125 
Q 37.3125 6.203125 41.140625 7.25 
Q 44.96875 8.296875 48.78125 10.40625 
L 48.78125 2.09375 
Q 45.015625 0.34375 40.984375 -0.53125 
Q 36.96875 -1.421875 32.421875 -1.421875 
Q 20.0625 -1.421875 12.78125 6.34375 
Q 5.515625 14.109375 5.515625 27.296875 
Q 5.515625 40.671875 12.859375 48.328125 
Q 20.21875 56 33.015625 56 
Q 37.15625 56 41.109375 55.140625 
Q 45.0625 54.296875 48.78125 52.59375 
z
" id="DejaVuSans-99"/>
       <path d="M 18.3125 70.21875 
L 18.3125 54.6875 
L 36.8125 54.6875 
L 36.8125 47.703125 
L 18.3125 47.703125 
L 18.3125 18.015625 
Q 18.3125 11.328125 20.140625 9.421875 
Q 21.96875 7.515625 27.59375 7.515625 
L 36.8125 7.515625 
L 36.8125 0 
L 27.59375 0 
Q 17.1875 0 13.234375 3.875 
Q 9.28125 7.765625 9.28125 18.015625 
L 9.28125 47.703125 
L 2.6875 47.703125 
L 2.6875 54.6875 
L 9.28125 54.6875 
L 9.28125 70.21875 
z
" id="DejaVuSans-116"/>
       <path d="M 8.5 21.578125 
L 8.5 54.6875 
L 17.484375 54.6875 
L 17.484375 21.921875 
Q 17.484375 14.15625 20.5 10.265625 
Q 23.53125 6.390625 29.59375 6.390625 
Q 36.859375 6.390625 41.078125 11.03125 
Q 45.3125 15.671875 45.3125 23.6875 
L 45.3125 54.6875 
L 54.296875 54.6875 
L 54.296875 0 
L 45.3125 0 
L 45.3125 8.40625 
Q 42.046875 3.421875 37.71875 1 
Q 33.40625 -1.421875 27.6875 -1.421875 
Q 18.265625 -1.421875 13.375 4.4375 
Q 8.5 10.296875 8.5 21.578125 
z
M 31.109375 56 
z
" id="DejaVuSans-117"/>
       <path d="M 11.71875 12.40625 
L 22.015625 12.40625 
L 22.015625 4 
L 14.015625 -11.625 
L 7.71875 -11.625 
L 11.71875 4 
z
" id="DejaVuSans-44"/>
       <path d="M 18.109375 8.203125 
L 18.109375 -20.796875 
L 9.078125 -20.796875 
L 9.078125 54.6875 
L 18.109375 54.6875 
L 18.109375 46.390625 
Q 20.953125 51.265625 25.265625 53.625 
Q 29.59375 56 35.59375 56 
Q 45.5625 56 51.78125 48.09375 
Q 58.015625 40.1875 58.015625 27.296875 
Q 58.015625 14.40625 51.78125 6.484375 
Q 45.5625 -1.421875 35.59375 -1.421875 
Q 29.59375 -1.421875 25.265625 0.953125 
Q 20.953125 3.328125 18.109375 8.203125 
z
M 48.6875 27.296875 
Q 48.6875 37.203125 44.609375 42.84375 
Q 40.53125 48.484375 33.40625 48.484375 
Q 26.265625 48.484375 22.1875 42.84375 
Q 18.109375 37.203125 18.109375 27.296875 
Q 18.109375 17.390625 22.1875 11.75 
Q 26.265625 6.109375 33.40625 6.109375 
Q 40.53125 6.109375 44.609375 11.75 
Q 48.6875 17.390625 48.6875 27.296875 
z
" id="DejaVuSans-112"/>
      </defs>
      <use xlink:href="#DejaVuSans-70"/>
      <use x="50.269531" xlink:href="#DejaVuSans-114"/>
      <use x="91.382812" xlink:href="#DejaVuSans-97"/>
      <use x="152.662109" xlink:href="#DejaVuSans-99"/>
      <use x="207.642578" xlink:href="#DejaVuSans-116"/>
      <use x="246.851562" xlink:href="#DejaVuSans-105"/>
      <use x="274.634766" xlink:href="#DejaVuSans-111"/>
      <use x="335.816406" xlink:href="#DejaVuSans-110"/>
      <use x="399.195312" xlink:href="#DejaVuSans-32"/>
      <use x="430.982422" xlink:href="#DejaVuSans-111"/>
      <use x="492.164062" xlink:href="#DejaVuSans-102"/>
      <use x="527.369141" xlink:href="#DejaVuSans-32"/>
      <use x="559.15625" xlink:href="#DejaVuSans-102"/>
      <use x="594.361328" xlink:href="#DejaVuSans-117"/>
      <use x="657.740234" xlink:href="#DejaVuSans-110"/>
      <use x="721.119141" xlink:href="#DejaVuSans-99"/>
      <use x="776.099609" xlink:href="#DejaVuSans-116"/>
      <use x="815.308594" xlink:href="#DejaVuSans-105"/>
      <use x="843.091797" xlink:href="#DejaVuSans-111"/>
      <use x="904.273438" xlink:href="#DejaVuSans-110"/>
      <use x="967.652344" xlink:href="#DejaVuSans-44"/>
      <use x="999.439453" xlink:href="#DejaVuSans-116"/>
      <use x="1038.648438" xlink:href="#DejaVuSans-97"/>
      <use x="1099.927734" xlink:href="#DejaVuSans-114"/>
      <use x="1139.291016" xlink:href="#DejaVuSans-103"/>
      <use x="1202.767578" xlink:href="#DejaVuSans-101"/>
      <use x="1264.291016" xlink:href="#DejaVuSans-116"/>
      <use x="1303.5" xlink:href="#DejaVuSans-32"/>
      <use x="1335.287109" xlink:href="#DejaVuSans-112"/>
      <use x="1398.763672" xlink:href="#DejaVuSans-97"/>
      <use x="1460.042969" xlink:href="#DejaVuSans-105"/>
      <use x="1487.826172" xlink:href="#DejaVuSans-114"/>
      <use x="1528.939453" xlink:href="#DejaVuSans-115"/>
     </g>
    </g>
   </g>
   <g id="line2d_29">
    <defs>
     <path d="M 0 1.5 
C 0.397805 1.5 0.77937 1.341951 1.06066 1.06066 
C 1.341951 0.77937 1.5 0.397805 1.5 0 
C 1.5 -0.397805 1.341951 -0.77937 1.06066 -1.06066 
C 0.77937 -1.341951 0.397805 -1.5 0 -1.5 
C -0.397805 -1.5 -0.77937 -1.341951 -1.06066 -1.06066 
C -1.341951 -0.77937 -1.5 -0.397805 -1.5 0 
C -1.5 0.397805 -1.341951 0.77937 -1.06066 1.06066 
C -0.77937 1.341951 -0.397805 1.5 0 1.5 
z
" id="me4472afd69" style="stroke:#00bfbf;"/>
    </defs>
    <g>
     <use style="fill:#00bfbf;stroke:#00bfbf;" x="276.717071" xlink:href="#me4472afd69" y="161.363319"/>
     <use style="fill:#00bfbf;stroke:#00bfbf;" x="276.717071" xlink:href="#me4472afd69" y="161.363319"/>
    </g>
   </g>
   <g id="line2d_30">
    <path d="M 45.512012 298.944 
L 45.512012 292.392539 
L 107.514726 292.392539 
L 107.514726 289.116809 
L 113.382559 289.116809 
L 113.382559 283.87564 
L 123.394238 283.87564 
L 123.394238 281.910201 
L 124.557288 281.910201 
L 124.557288 277.324179 
L 128.560901 277.324179 
L 128.560901 275.35874 
L 129.147151 275.35874 
L 129.147151 274.048448 
L 131.312942 274.048448 
L 131.312942 273.393302 
L 134.12805 273.393302 
L 134.12805 272.08301 
L 135.381712 272.08301 
L 135.381712 270.772718 
L 138.341479 270.772718 
L 138.341479 269.462426 
L 140.272217 269.462426 
L 140.272217 268.807279 
L 141.017599 268.807279 
L 141.017599 266.186695 
L 141.591783 266.186695 
L 141.591783 264.876403 
L 151.056095 264.876403 
L 151.056095 262.255818 
L 156.021696 262.255818 
L 156.021696 260.945526 
L 157.329512 260.945526 
L 157.329512 260.29038 
L 158.331086 260.29038 
L 158.331086 258.324942 
L 159.020266 258.324942 
L 159.020266 257.669796 
L 159.226956 257.669796 
L 159.226956 256.359504 
L 160.656397 256.359504 
L 160.656397 254.394065 
L 162.791763 254.394065 
L 162.791763 250.463189 
L 165.714726 250.463189 
L 165.714726 249.152896 
L 167.656285 249.152896 
L 167.656285 246.532312 
L 170.727268 246.532312 
L 170.727268 245.877166 
L 176.23856 245.877166 
L 176.23856 245.22202 
L 178.265693 245.22202 
L 178.265693 244.566874 
L 178.657795 244.566874 
L 178.657795 237.360267 
L 180.707163 237.360267 
L 180.707163 236.705121 
L 183.815378 236.705121 
L 183.815378 236.049974 
L 185.826875 236.049974 
L 185.826875 235.394828 
L 187.549361 235.394828 
L 187.549361 234.084536 
L 191.796587 234.084536 
L 191.796587 232.119098 
L 194.132716 232.119098 
L 194.146593 227.533075 
L 195.519792 227.533075 
L 195.532608 224.257345 
L 195.761698 224.257345 
L 195.761698 222.291906 
L 199.507783 222.291906 
L 199.507783 221.63676 
L 204.433351 221.63676 
L 204.529213 217.050738 
L 205.939067 217.050738 
L 205.939067 215.085299 
L 206.864596 215.085299 
L 206.864596 214.430153 
L 207.537124 214.430153 
L 207.537124 213.775007 
L 209.417606 213.775007 
L 209.427715 211.154423 
L 210.899955 211.154423 
L 210.899955 210.499277 
L 211.563868 210.499277 
L 211.563868 209.84413 
L 211.971638 209.84413 
L 211.971638 209.188984 
L 213.24191 209.188984 
L 213.24191 208.533838 
L 214.575932 208.533838 
L 214.575932 207.223546 
L 215.349504 207.223546 
L 215.349504 206.5684 
L 216.338707 206.5684 
L 216.338707 205.258108 
L 217.33729 205.258108 
L 217.356543 201.327231 
L 218.127287 201.327231 
L 218.127287 200.016939 
L 218.802263 200.016939 
L 218.802263 199.361793 
L 219.943206 199.361793 
L 219.943206 198.706647 
L 220.201199 198.706647 
L 220.201199 198.051501 
L 220.769414 198.051501 
L 220.769414 197.396355 
L 220.998458 197.396355 
L 221.065255 196.086062 
L 222.441415 196.086062 
L 222.441415 195.430916 
L 223.355569 195.430916 
L 223.355569 194.77577 
L 224.245182 194.77577 
L 224.249503 193.465478 
L 224.711135 193.465478 
L 224.718946 192.155186 
L 226.202186 192.155186 
L 226.202186 191.50004 
L 228.677445 191.50004 
L 228.677445 190.844894 
L 228.943038 190.844894 
L 228.943038 190.189747 
L 229.885162 190.189747 
L 229.885162 189.534601 
L 230.043033 189.534601 
L 230.043033 188.879455 
L 233.864142 188.879455 
L 233.864142 188.224309 
L 234.970457 188.224309 
L 234.970457 187.569163 
L 235.109403 187.569163 
L 235.109403 186.914017 
L 235.277773 186.914017 
L 235.277773 186.258871 
L 236.898907 186.258871 
L 236.898907 185.603725 
L 237.40454 185.603725 
L 237.40454 184.948579 
L 239.026474 184.948579 
L 239.026474 184.293433 
L 239.908319 184.293433 
L 239.986091 182.98314 
L 241.734311 182.98314 
L 241.734311 182.327994 
L 241.862684 182.327994 
L 241.862684 181.672848 
L 242.821506 181.672848 
L 242.821506 181.017702 
L 242.976553 181.017702 
L 242.979505 179.70741 
L 243.66398 179.70741 
L 243.66398 179.052264 
L 246.581073 179.052264 
L 246.684862 177.741972 
L 246.936206 177.741972 
L 246.936206 177.086825 
L 247.944953 177.086825 
L 247.944953 176.431679 
L 248.779498 176.431679 
L 248.779498 175.776533 
L 249.279049 175.776533 
L 249.279049 175.121387 
L 250.189126 175.121387 
L 250.189126 174.466241 
L 251.637869 174.466241 
L 251.637869 173.811095 
L 252.140039 173.811095 
L 252.234173 172.500803 
L 253.048261 172.500803 
L 253.048261 171.845657 
L 254.504744 171.845657 
L 254.504744 171.190511 
L 254.649491 171.190511 
L 254.687673 169.880218 
L 256.516754 169.880218 
L 256.516754 169.225072 
L 257.112875 169.225072 
L 257.112875 168.569926 
L 258.479992 168.569926 
L 258.479992 167.91478 
L 260.464646 167.91478 
L 260.464646 167.259634 
L 260.588828 167.259634 
L 260.588828 166.604488 
L 260.861211 166.604488 
L 260.861211 165.949342 
L 262.072537 165.949342 
L 262.072537 165.294196 
L 263.324017 165.294196 
L 263.324017 164.63905 
L 265.659175 164.63905 
L 265.659175 163.983903 
L 267.501543 163.983903 
L 267.501543 163.328757 
L 270.820175 163.328757 
L 270.820175 162.673611 
L 270.96876 162.673611 
L 270.96876 162.018465 
L 276.717071 162.018465 
L 276.717071 161.363319 
L 338.688 161.363319 
L 338.688 161.363319 
" style="fill:none;stroke:#00bfbf;stroke-linecap:square;stroke-width:1.5;"/>
   </g>
   <g id="line2d_31">
    <defs>
     <path d="M -6 0 
L 6 0 
M 0 6 
L 0 -6 
" id="m575aa2ed0e" style="stroke:#00bfbf;stroke-width:1.5;"/>
    </defs>
    <g>
     <use style="fill-opacity:0;stroke:#00bfbf;stroke-width:1.5;" x="113.382559" xlink:href="#m575aa2ed0e" y="283.87564"/>
     <use style="fill-opacity:0;stroke:#00bfbf;stroke-width:1.5;" x="167.656285" xlink:href="#m575aa2ed0e" y="249.152896"/>
     <use style="fill-opacity:0;stroke:#00bfbf;stroke-width:1.5;" x="217.356543" xlink:href="#m575aa2ed0e" y="201.327231"/>
     <use style="fill-opacity:0;stroke:#00bfbf;stroke-width:1.5;" x="267.501543" xlink:href="#m575aa2ed0e" y="163.328757"/>
     <use style="fill-opacity:0;stroke:#00bfbf;stroke-width:1.5;" x="276.717071" xlink:href="#m575aa2ed0e" y="161.363319"/>
     <use style="fill-opacity:0;stroke:#00bfbf;stroke-width:1.5;" x="338.688" xlink:href="#m575aa2ed0e" y="161.363319"/>
    </g>
   </g>
   <g id="line2d_32">
    <path style="fill:none;stroke:#00bfbf;stroke-linecap:square;stroke-width:1.5;"/>
    <g/>
   </g>
   <g id="line2d_33">
    <path clip-path="url(#p152af7f9b1)" d="M 206.161606 215.085299 
" style="fill:none;stroke:#00bfbf;stroke-linecap:square;stroke-width:1.5;"/>
    <defs>
     <path d="M -12 12 
L 12 -12 
M -12 -12 
L 12 12 
" id="m3ef6e368ac" style="stroke:#00bfbf;"/>
    </defs>
    <g clip-path="url(#p152af7f9b1)">
     <use style="fill:#00bfbf;stroke:#00bfbf;" x="206.161606" xlink:href="#m3ef6e368ac" y="215.085299"/>
    </g>
   </g>
   <g id="line2d_34">
    <defs>
     <path d="M 0 1.5 
C 0.397805 1.5 0.77937 1.341951 1.06066 1.06066 
C 1.341951 0.77937 1.5 0.397805 1.5 0 
C 1.5 -0.397805 1.341951 -0.77937 1.06066 -1.06066 
C 0.77937 -1.341951 0.397805 -1.5 0 -1.5 
C -0.397805 -1.5 -0.77937 -1.341951 -1.06066 -1.06066 
C -1.341951 -0.77937 -1.5 -0.397805 -1.5 0 
C -1.5 0.397805 -1.341951 0.77937 -1.06066 1.06066 
C -0.77937 1.341951 -0.397805 1.5 0 1.5 
z
" id="m6b2808e39a" style="stroke:#008000;"/>
    </defs>
    <g>
     <use style="fill:#008000;stroke:#008000;" x="282.753791" xlink:href="#m6b2808e39a" y="181.017702"/>
     <use style="fill:#008000;stroke:#008000;" x="282.753791" xlink:href="#m6b2808e39a" y="181.017702"/>
    </g>
   </g>
   <g id="line2d_35">
    <path d="M 38.440992 298.944 
L 38.440992 284.530786 
L 107.680028 284.530786 
L 107.680028 283.220494 
L 108.948899 283.220494 
L 108.948899 277.324179 
L 113.73488 277.324179 
L 113.73488 275.35874 
L 124.241922 275.35874 
L 124.241922 274.703594 
L 128.709321 274.703594 
L 128.709321 273.393302 
L 134.091907 273.393302 
L 134.091907 272.738156 
L 140.144829 272.738156 
L 140.144829 270.772718 
L 142.07914 270.772718 
L 142.07914 270.117572 
L 146.502522 270.117572 
L 146.502522 269.462426 
L 147.402367 269.462426 
L 147.402367 268.152133 
L 152.155936 268.152133 
L 152.155936 264.876403 
L 152.761703 264.876403 
L 152.761703 264.221257 
L 154.05232 264.221257 
L 154.05232 263.566111 
L 155.6368 263.566111 
L 155.6368 261.600672 
L 156.737306 261.600672 
L 156.737306 258.980088 
L 157.434196 258.980088 
L 157.434196 258.324942 
L 158.285965 258.324942 
L 158.285965 256.359504 
L 160.426146 256.359504 
L 160.426146 255.704357 
L 160.680044 255.704357 
L 160.680044 255.049211 
L 164.51154 255.049211 
L 164.51154 253.738919 
L 165.566558 253.738919 
L 165.566558 252.428627 
L 168.047843 252.428627 
L 168.150791 250.463189 
L 168.253135 250.463189 
L 168.253135 249.152896 
L 168.696445 249.152896 
L 168.696445 248.49775 
L 172.696997 248.49775 
L 172.696997 247.842604 
L 177.251134 247.842604 
L 177.251134 247.187458 
L 181.681189 247.187458 
L 181.681189 245.877166 
L 182.403109 245.877166 
L 182.403109 244.566874 
L 184.267247 244.566874 
L 184.267247 243.911728 
L 184.397118 243.911728 
L 184.397118 241.946289 
L 184.638052 241.946289 
L 184.638052 239.325705 
L 185.024556 239.325705 
L 185.024556 235.394828 
L 185.921609 235.394828 
L 185.921609 234.084536 
L 188.013903 234.084536 
L 188.013903 233.42939 
L 188.480794 233.42939 
L 188.480794 232.774244 
L 190.145552 232.774244 
L 190.145552 230.808806 
L 190.42251 230.808806 
L 190.42251 230.15366 
L 197.870105 230.15366 
L 197.870105 229.498513 
L 198.722837 229.498513 
L 198.722837 226.222783 
L 199.45074 226.222783 
L 199.45074 224.257345 
L 201.146185 224.257345 
L 201.146185 223.602199 
L 203.585753 223.602199 
L 203.585753 220.981614 
L 204.826842 220.981614 
L 204.826842 219.016176 
L 207.15757 219.016176 
L 207.15757 218.36103 
L 208.272314 218.36103 
L 208.272314 217.050738 
L 208.904519 217.050738 
L 208.904519 216.395591 
L 211.238541 216.395591 
L 211.341479 215.085299 
L 212.628755 215.085299 
L 212.628755 213.775007 
L 212.794594 213.775007 
L 212.794594 210.499277 
L 216.898533 210.499277 
L 216.898533 209.84413 
L 217.58835 209.84413 
L 217.594377 208.533838 
L 218.119103 208.533838 
L 218.119103 207.878692 
L 219.456959 207.878692 
L 219.456959 207.223546 
L 220.013375 207.223546 
L 220.013375 206.5684 
L 220.257154 206.5684 
L 220.257154 205.913254 
L 220.4137 205.913254 
L 220.4137 205.258108 
L 220.67927 205.258108 
L 220.67927 204.602962 
L 220.879071 204.602962 
L 220.879071 203.947816 
L 221.055375 203.947816 
L 221.055375 203.292669 
L 221.780776 203.292669 
L 221.780776 202.637523 
L 221.91064 202.637523 
L 221.91064 201.982377 
L 223.51679 201.982377 
L 223.51679 201.327231 
L 224.514497 201.327231 
L 224.514497 200.672085 
L 225.427464 200.672085 
L 225.427464 200.016939 
L 225.633138 200.016939 
L 225.633138 199.361793 
L 225.973734 199.361793 
L 225.973734 198.706647 
L 227.466939 198.706647 
L 227.466939 198.051501 
L 228.391042 198.051501 
L 228.391042 197.396355 
L 228.700729 197.396355 
L 228.700729 196.741208 
L 230.054982 196.741208 
L 230.062354 195.430916 
L 232.145894 195.430916 
L 232.145894 194.77577 
L 233.977444 194.77577 
L 233.977444 194.120624 
L 236.000798 194.120624 
L 236.000798 193.465478 
L 236.34325 193.465478 
L 236.34325 192.810332 
L 237.044805 192.810332 
L 237.044805 192.155186 
L 239.922896 192.155186 
L 239.922896 191.50004 
L 242.18686 191.50004 
L 242.18686 190.844894 
L 244.912333 190.844894 
L 244.912333 190.189747 
L 245.454378 190.189747 
L 245.454378 189.534601 
L 249.005809 189.534601 
L 249.005809 188.879455 
L 250.235129 188.879455 
L 250.235129 188.224309 
L 252.746892 188.224309 
L 252.746892 187.569163 
L 253.468734 187.569163 
L 253.468734 186.914017 
L 258.383536 186.914017 
L 258.383536 186.258871 
L 266.496474 186.258871 
L 266.496474 185.603725 
L 267.805697 185.603725 
L 267.805697 184.948579 
L 268.426365 184.948579 
L 268.426365 184.293433 
L 272.090664 184.293433 
L 272.090664 183.638286 
L 273.779898 183.638286 
L 273.779898 182.98314 
L 277.245904 182.98314 
L 277.245904 182.327994 
L 277.970345 182.327994 
L 277.970345 181.672848 
L 282.753791 181.672848 
L 282.753791 181.017702 
L 338.688 181.017702 
L 338.688 181.017702 
" style="fill:none;stroke:#008000;stroke-linecap:square;stroke-width:1.5;"/>
   </g>
   <g id="line2d_36">
    <defs>
     <path d="M -0 6 
L 6 -6 
L -6 -6 
z
" id="m9c87db01ea" style="stroke:#008000;stroke-linejoin:miter;stroke-width:1.5;"/>
    </defs>
    <g>
     <use style="fill-opacity:0;stroke:#008000;stroke-linejoin:miter;stroke-width:1.5;" x="113.73488" xlink:href="#m9c87db01ea" y="277.324179"/>
     <use style="fill-opacity:0;stroke:#008000;stroke-linejoin:miter;stroke-width:1.5;" x="177.251134" xlink:href="#m9c87db01ea" y="247.842604"/>
     <use style="fill-opacity:0;stroke:#008000;stroke-linejoin:miter;stroke-width:1.5;" x="232.145894" xlink:href="#m9c87db01ea" y="195.430916"/>
     <use style="fill-opacity:0;stroke:#008000;stroke-linejoin:miter;stroke-width:1.5;" x="282.753791" xlink:href="#m9c87db01ea" y="181.672848"/>
     <use style="fill-opacity:0;stroke:#008000;stroke-linejoin:miter;stroke-width:1.5;" x="282.753791" xlink:href="#m9c87db01ea" y="181.017702"/>
     <use style="fill-opacity:0;stroke:#008000;stroke-linejoin:miter;stroke-width:1.5;" x="338.688" xlink:href="#m9c87db01ea" y="181.017702"/>
    </g>
   </g>
   <g id="line2d_37">
    <path style="fill:none;stroke:#008000;stroke-linecap:square;stroke-width:1.5;"/>
    <g/>
   </g>
   <g id="line2d_38">
    <path clip-path="url(#p152af7f9b1)" d="M 207.15757 218.36103 
" style="fill:none;stroke:#008000;stroke-linecap:square;stroke-width:1.5;"/>
    <defs>
     <path d="M -12 12 
L 12 -12 
M -12 -12 
L 12 12 
" id="m291eb5ba9d" style="stroke:#008000;"/>
    </defs>
    <g clip-path="url(#p152af7f9b1)">
     <use style="fill:#008000;stroke:#008000;" x="207.15757" xlink:href="#m291eb5ba9d" y="218.36103"/>
    </g>
   </g>
   <g id="line2d_39">
    <defs>
     <path d="M 0 1.5 
C 0.397805 1.5 0.77937 1.341951 1.06066 1.06066 
C 1.341951 0.77937 1.5 0.397805 1.5 0 
C 1.5 -0.397805 1.341951 -0.77937 1.06066 -1.06066 
C 0.77937 -1.341951 0.397805 -1.5 0 -1.5 
C -0.397805 -1.5 -0.77937 -1.341951 -1.06066 -1.06066 
C -1.341951 -0.77937 -1.5 -0.397805 -1.5 0 
C -1.5 0.397805 -1.341951 0.77937 -1.06066 1.06066 
C -0.77937 1.341951 -0.397805 1.5 0 1.5 
z
" id="m3592d25a88" style="stroke:#0000ff;"/>
    </defs>
    <g>
     <use style="fill:#0000ff;stroke:#0000ff;" x="282.129321" xlink:href="#m3592d25a88" y="181.017702"/>
     <use style="fill:#0000ff;stroke:#0000ff;" x="282.129321" xlink:href="#m3592d25a88" y="181.017702"/>
    </g>
   </g>
   <g id="line2d_40">
    <path d="M 29.53256 298.944 
L 29.53256 295.66827 
L 100.641881 295.66827 
L 100.641881 289.116809 
L 104.355088 289.116809 
L 104.355088 288.461662 
L 114.284194 288.461662 
L 114.284194 287.806516 
L 114.552496 287.806516 
L 114.552496 285.841078 
L 119.602714 285.841078 
L 119.602714 283.220494 
L 125.752972 283.220494 
L 125.752972 282.565348 
L 128.590686 282.565348 
L 128.590686 281.910201 
L 131.640805 281.910201 
L 131.640805 280.599909 
L 137.162581 280.599909 
L 137.235245 277.979325 
L 137.664982 277.979325 
L 137.664982 277.324179 
L 140.469102 277.324179 
L 140.469102 276.669033 
L 140.64889 276.669033 
L 140.64889 273.393302 
L 142.133981 273.393302 
L 142.133981 270.772718 
L 144.099593 270.772718 
L 144.099593 269.462426 
L 146.041862 269.462426 
L 146.041862 268.807279 
L 148.563676 268.807279 
L 148.563676 268.152133 
L 152.083873 268.152133 
L 152.083873 267.496987 
L 157.787352 267.496987 
L 157.787352 266.841841 
L 161.274728 266.841841 
L 161.274728 265.531549 
L 162.929393 265.531549 
L 162.929393 264.876403 
L 163.883215 264.876403 
L 163.883215 263.566111 
L 164.024234 263.566111 
L 164.024234 262.910965 
L 171.304668 262.910965 
L 171.304668 259.635234 
L 172.137657 259.635234 
L 172.176814 255.704357 
L 173.303236 255.704357 
L 173.303236 255.049211 
L 174.60119 255.049211 
L 174.60119 254.394065 
L 174.996598 254.394065 
L 174.996598 253.738919 
L 177.753071 253.738919 
L 177.753071 251.118335 
L 178.807187 251.118335 
L 178.807187 248.49775 
L 178.953652 248.49775 
L 178.953652 242.601435 
L 184.345286 242.601435 
L 184.345286 239.980851 
L 184.677886 239.980851 
L 184.677886 238.670559 
L 185.338437 238.670559 
L 185.338437 237.360267 
L 186.045654 237.360267 
L 186.045654 236.049974 
L 188.526803 236.049974 
L 188.526803 235.394828 
L 192.704987 235.394828 
L 192.704987 233.42939 
L 193.640663 233.42939 
L 193.640663 232.774244 
L 195.435614 232.774244 
L 195.435614 232.119098 
L 195.597185 232.119098 
L 195.597185 231.463952 
L 198.218414 231.463952 
L 198.218414 228.843367 
L 200.59851 228.843367 
L 200.59851 228.188221 
L 204.498978 228.188221 
L 204.498978 226.222783 
L 204.671268 226.222783 
L 204.671268 224.912491 
L 205.058373 224.912491 
L 205.058373 223.602199 
L 206.729618 223.602199 
L 206.729618 222.947052 
L 207.11498 222.947052 
L 207.11498 219.671322 
L 207.991982 219.671322 
L 207.991982 219.016176 
L 208.40101 219.016176 
L 208.40101 217.705884 
L 209.459161 217.705884 
L 209.459161 217.050738 
L 210.085355 217.050738 
L 210.085355 216.395591 
L 210.254708 216.395591 
L 210.254708 215.740445 
L 210.928857 215.740445 
L 210.928857 214.430153 
L 213.179149 214.430153 
L 213.179149 213.775007 
L 215.176549 213.775007 
L 215.176549 213.119861 
L 215.893421 213.119861 
L 215.893421 211.809569 
L 217.507628 211.809569 
L 217.507628 211.154423 
L 217.680097 211.154423 
L 217.680097 209.84413 
L 219.395112 209.84413 
L 219.395112 209.188984 
L 223.78318 209.188984 
L 223.78318 208.533838 
L 224.03965 208.533838 
L 224.03965 207.878692 
L 224.658405 207.878692 
L 224.658405 207.223546 
L 224.77832 207.223546 
L 224.77832 206.5684 
L 224.936142 206.5684 
L 224.936142 205.913254 
L 225.109241 205.913254 
L 225.109241 205.258108 
L 225.506733 205.258108 
L 225.506733 204.602962 
L 225.752142 204.602962 
L 225.774549 203.292669 
L 226.108575 203.292669 
L 226.108575 202.637523 
L 228.429415 202.637523 
L 228.429415 201.982377 
L 229.778876 201.982377 
L 229.84097 200.672085 
L 230.546483 200.672085 
L 230.546483 200.016939 
L 233.356508 200.016939 
L 233.356508 199.361793 
L 234.125665 199.361793 
L 234.125665 198.706647 
L 234.598681 198.706647 
L 234.613266 197.396355 
L 234.881659 197.396355 
L 234.881659 196.741208 
L 236.051394 196.741208 
L 236.051394 196.086062 
L 236.46453 196.086062 
L 236.46453 195.430916 
L 237.033503 195.430916 
L 237.033503 194.77577 
L 237.306973 194.77577 
L 237.306973 194.120624 
L 240.291298 194.120624 
L 240.291298 193.465478 
L 241.768877 193.465478 
L 241.768877 192.810332 
L 245.719451 192.810332 
L 245.719451 192.155186 
L 247.699953 192.155186 
L 247.699953 191.50004 
L 248.096293 191.50004 
L 248.096293 190.844894 
L 249.201835 190.844894 
L 249.201835 190.189747 
L 250.587948 190.189747 
L 250.587948 189.534601 
L 251.858529 189.534601 
L 251.858529 188.879455 
L 254.107671 188.879455 
L 254.107671 188.224309 
L 257.18794 188.224309 
L 257.18794 187.569163 
L 258.142018 187.569163 
L 258.142018 186.914017 
L 259.337977 186.914017 
L 259.337977 186.258871 
L 260.612424 186.258871 
L 260.612424 185.603725 
L 261.750876 185.603725 
L 261.750876 184.948579 
L 263.497845 184.948579 
L 263.598346 183.638286 
L 264.366231 183.638286 
L 264.366231 182.98314 
L 267.348945 182.98314 
L 267.348945 182.327994 
L 269.155353 182.327994 
L 269.155353 181.672848 
L 282.129321 181.672848 
L 282.129321 181.017702 
L 338.688 181.017702 
L 338.688 181.017702 
" style="fill:none;stroke:#0000ff;stroke-linecap:square;stroke-width:1.5;"/>
   </g>
   <g id="line2d_41">
    <defs>
     <path d="M 0 -6 
L -1.347084 -1.854102 
L -5.706339 -1.854102 
L -2.179628 0.708204 
L -3.526712 4.854102 
L -0 2.291796 
L 3.526712 4.854102 
L 2.179628 0.708204 
L 5.706339 -1.854102 
L 1.347084 -1.854102 
z
" id="mee1ecdcae2" style="stroke:#0000ff;stroke-linejoin:bevel;stroke-width:1.5;"/>
    </defs>
    <g>
     <use style="fill-opacity:0;stroke:#0000ff;stroke-linejoin:bevel;stroke-width:1.5;" x="152.083873" xlink:href="#mee1ecdcae2" y="268.152133"/>
     <use style="fill-opacity:0;stroke:#0000ff;stroke-linejoin:bevel;stroke-width:1.5;" x="219.395112" xlink:href="#mee1ecdcae2" y="209.188984"/>
     <use style="fill-opacity:0;stroke:#0000ff;stroke-linejoin:bevel;stroke-width:1.5;" x="269.155353" xlink:href="#mee1ecdcae2" y="182.327994"/>
     <use style="fill-opacity:0;stroke:#0000ff;stroke-linejoin:bevel;stroke-width:1.5;" x="282.129321" xlink:href="#mee1ecdcae2" y="181.017702"/>
     <use style="fill-opacity:0;stroke:#0000ff;stroke-linejoin:bevel;stroke-width:1.5;" x="338.688" xlink:href="#mee1ecdcae2" y="181.017702"/>
    </g>
   </g>
   <g id="line2d_42">
    <path style="fill:none;stroke:#0000ff;stroke-linecap:square;stroke-width:1.5;"/>
    <g/>
   </g>
   <g id="line2d_43">
    <path clip-path="url(#p152af7f9b1)" d="M 206.15464 223.602199 
" style="fill:none;stroke:#0000ff;stroke-linecap:square;stroke-width:1.5;"/>
    <defs>
     <path d="M -12 12 
L 12 -12 
M -12 -12 
L 12 12 
" id="me28a461ced" style="stroke:#0000ff;"/>
    </defs>
    <g clip-path="url(#p152af7f9b1)">
     <use style="fill:#0000ff;stroke:#0000ff;" x="206.15464" xlink:href="#me28a461ced" y="223.602199"/>
    </g>
   </g>
   <g id="line2d_44">
    <defs>
     <path d="M 0 1.5 
C 0.397805 1.5 0.77937 1.341951 1.06066 1.06066 
C 1.341951 0.77937 1.5 0.397805 1.5 0 
C 1.5 -0.397805 1.341951 -0.77937 1.06066 -1.06066 
C 0.77937 -1.341951 0.397805 -1.5 0 -1.5 
C -0.397805 -1.5 -0.77937 -1.341951 -1.06066 -1.06066 
C -1.341951 -0.77937 -1.5 -0.397805 -1.5 0 
C -1.5 0.397805 -1.341951 0.77937 -1.06066 1.06066 
C -0.77937 1.341951 -0.397805 1.5 0 1.5 
z
" id="md58f45e1fa" style="stroke:#000000;"/>
    </defs>
    <g>
     <use style="stroke:#000000;" x="284.990657" xlink:href="#md58f45e1fa" y="30.334099"/>
     <use style="stroke:#000000;" x="284.990657" xlink:href="#md58f45e1fa" y="30.334099"/>
    </g>
   </g>
   <g id="line2d_45">
    <path d="M 17.444571 298.944 
L 17.444571 285.841078 
L 74.921597 285.841078 
L 74.921597 279.289617 
L 76.759008 279.289617 
L 76.759008 278.634471 
L 81.334453 278.634471 
L 81.334453 273.393302 
L 101.365607 273.393302 
L 101.365607 272.738156 
L 109.579846 272.738156 
L 109.579846 272.08301 
L 113.524343 272.08301 
L 113.524343 270.772718 
L 122.740699 270.772718 
L 122.823744 269.462426 
L 127.197279 269.462426 
L 127.197279 268.807279 
L 128.620421 268.807279 
L 128.620421 267.496987 
L 131.363785 267.496987 
L 131.363785 264.876403 
L 138.711825 264.876403 
L 138.711825 260.945526 
L 140.900458 260.945526 
L 140.988387 258.980088 
L 142.89728 258.980088 
L 142.89728 256.359504 
L 145.039911 256.359504 
L 145.039911 255.704357 
L 146.947864 255.704357 
L 146.947864 253.083773 
L 149.386567 253.083773 
L 149.386567 252.428627 
L 149.637625 252.428627 
L 149.637625 251.118335 
L 151.332915 251.118335 
L 151.332915 248.49775 
L 152.936949 248.49775 
L 152.936949 247.187458 
L 157.249147 247.187458 
L 157.249147 244.566874 
L 158.395856 244.566874 
L 158.395856 241.946289 
L 159.410906 241.946289 
L 159.410906 241.291143 
L 162.186823 241.291143 
L 162.186823 239.325705 
L 164.505216 239.325705 
L 164.505216 238.670559 
L 165.371436 238.670559 
L 165.371436 238.015413 
L 166.422524 238.015413 
L 166.422524 237.360267 
L 167.161475 237.360267 
L 167.161475 235.394828 
L 167.44594 235.394828 
L 167.477974 232.119098 
L 176.215305 232.119098 
L 176.215305 231.463952 
L 177.396111 231.463952 
L 177.396111 230.808806 
L 181.849991 230.808806 
L 181.849991 230.15366 
L 187.127166 230.15366 
L 187.127166 228.843367 
L 190.921063 228.843367 
L 190.921063 227.533075 
L 191.951442 227.533075 
L 191.951442 225.567637 
L 192.854257 225.567637 
L 192.854257 224.912491 
L 196.266407 224.912491 
L 196.266407 224.257345 
L 197.193293 224.257345 
L 197.193293 222.947052 
L 198.056772 222.947052 
L 198.056772 221.63676 
L 199.281929 221.63676 
L 199.281929 220.981614 
L 200.26917 220.981614 
L 200.26917 220.326468 
L 200.957451 220.326468 
L 200.957451 219.016176 
L 201.475318 219.016176 
L 201.475318 218.36103 
L 203.051973 218.36103 
L 203.051973 217.050738 
L 205.548159 217.050738 
L 205.548159 215.085299 
L 206.147323 215.085299 
L 206.165785 207.223546 
L 208.076743 207.223546 
L 208.088907 202.637523 
L 211.69367 202.637523 
L 211.763263 200.016939 
L 212.272248 200.016939 
L 212.27887 197.396355 
L 212.445787 197.396355 
L 212.445787 196.741208 
L 213.16657 196.741208 
L 213.175423 195.430916 
L 214.326763 195.430916 
L 214.326763 194.77577 
L 214.961962 194.77577 
L 214.961962 194.120624 
L 217.402847 194.120624 
L 217.409974 190.189747 
L 217.937771 190.189747 
L 218.038691 188.879455 
L 218.2381 188.879455 
L 218.241061 186.914017 
L 219.222246 186.914017 
L 219.231135 183.638286 
L 220.269564 183.638286 
L 220.269564 182.98314 
L 221.229817 182.98314 
L 221.233779 181.672848 
L 222.09559 181.672848 
L 222.09559 180.362556 
L 222.392057 180.362556 
L 222.392057 179.70741 
L 223.739897 179.70741 
L 223.739897 179.052264 
L 224.137937 179.052264 
L 224.137937 178.397118 
L 225.258869 178.397118 
L 225.30819 176.431679 
L 225.443915 176.431679 
L 225.443915 175.776533 
L 225.668712 175.776533 
L 225.668712 175.121387 
L 226.413552 175.121387 
L 226.413552 174.466241 
L 226.685724 174.466241 
L 226.689051 172.500803 
L 226.872027 172.500803 
L 226.872027 171.845657 
L 227.303431 171.845657 
L 227.358563 170.535364 
L 227.803023 170.535364 
L 227.803023 169.880218 
L 227.978021 169.880218 
L 227.978021 169.225072 
L 228.61471 169.225072 
L 228.61471 168.569926 
L 229.217742 168.569926 
L 229.236761 167.259634 
L 229.430965 167.259634 
L 229.430965 166.604488 
L 229.746305 166.604488 
L 229.757558 165.294196 
L 229.911767 165.294196 
L 229.911767 164.63905 
L 230.427022 164.63905 
L 230.427022 163.983903 
L 230.827557 163.983903 
L 230.827557 163.328757 
L 231.882437 163.328757 
L 231.882437 162.673611 
L 232.363677 162.673611 
L 232.451967 161.363319 
L 233.00087 161.363319 
L 233.00087 160.708173 
L 233.280561 160.708173 
L 233.280561 160.053027 
L 233.398631 160.053027 
L 233.398631 159.397881 
L 235.135209 159.397881 
L 235.135209 158.742735 
L 235.321657 158.742735 
L 235.321657 158.087589 
L 235.487481 158.087589 
L 235.563774 156.12215 
L 235.691431 156.12215 
L 235.691431 155.467004 
L 236.345081 155.467004 
L 236.345081 154.811858 
L 236.802549 154.811858 
L 236.802549 154.156712 
L 237.007272 154.156712 
L 237.007272 153.501566 
L 237.121046 153.501566 
L 237.121046 152.84642 
L 237.861689 152.84642 
L 237.861689 152.191274 
L 238.298173 152.191274 
L 238.298173 151.536128 
L 238.423468 151.536128 
L 238.52834 149.570689 
L 238.609034 149.570689 
L 238.609034 148.915543 
L 238.777308 148.915543 
L 238.777308 148.260397 
L 239.423765 148.260397 
L 239.53026 146.294959 
L 239.726083 146.294959 
L 239.726083 145.639813 
L 239.84691 145.639813 
L 239.84691 144.984667 
L 240.15935 144.984667 
L 240.15935 144.32952 
L 240.428943 144.32952 
L 240.428943 143.674374 
L 241.102363 143.674374 
L 241.102363 143.019228 
L 241.546168 143.019228 
L 241.643726 141.708936 
L 241.835914 141.708936 
L 241.944313 139.088352 
L 241.969577 139.088352 
L 241.969577 138.433206 
L 242.929633 138.433206 
L 242.938385 137.122913 
L 243.066322 137.122913 
L 243.09261 135.812621 
L 243.536326 135.812621 
L 243.536326 135.157475 
L 243.762065 135.157475 
L 243.812992 133.847183 
L 243.972218 133.847183 
L 244.032225 132.536891 
L 244.298771 132.536891 
L 244.298771 131.881745 
L 244.487399 131.881745 
L 244.487399 131.226598 
L 244.982985 131.226598 
L 245.089082 129.916306 
L 245.105029 129.916306 
L 245.184954 127.950868 
L 245.270209 127.950868 
L 245.325476 126.640576 
L 245.76947 126.640576 
L 245.799987 125.330284 
L 246.081582 125.330284 
L 246.138387 124.019991 
L 246.609415 124.019991 
L 246.609415 123.364845 
L 247.311244 123.364845 
L 247.397637 122.054553 
L 247.803867 122.054553 
L 247.896832 120.089115 
L 247.975978 120.089115 
L 248.007897 118.778823 
L 248.226742 118.778823 
L 248.303166 116.813384 
L 248.476505 116.813384 
L 248.476505 116.158238 
L 248.616089 116.158238 
L 248.669968 114.847946 
L 249.101822 114.847946 
L 249.154224 113.537654 
L 249.466211 113.537654 
L 249.552567 112.227362 
L 249.808896 112.227362 
L 249.808896 111.572215 
L 249.937515 111.572215 
L 249.937515 110.917069 
L 250.343394 110.917069 
L 250.343394 110.261923 
L 250.708992 110.261923 
L 250.724794 108.296485 
L 250.991043 108.296485 
L 251.011275 106.986193 
L 251.251137 106.986193 
L 251.251137 106.331047 
L 251.365724 106.331047 
L 251.365724 105.675901 
L 251.535986 105.675901 
L 251.535986 105.020754 
L 251.722975 105.020754 
L 251.830426 103.055316 
L 251.916242 103.055316 
L 251.92917 101.745024 
L 252.421175 101.745024 
L 252.421175 101.089878 
L 252.565015 101.089878 
L 252.66461 99.779586 
L 252.688332 99.779586 
L 252.688332 99.12444 
L 252.873566 99.12444 
L 252.873566 98.469293 
L 253.161001 98.469293 
L 253.161001 97.814147 
L 253.46697 97.814147 
L 253.46697 97.159001 
L 253.693318 97.159001 
L 253.693318 96.503855 
L 254.245066 96.503855 
L 254.300542 94.538417 
L 254.802255 94.538417 
L 254.802255 93.883271 
L 255.065849 93.883271 
L 255.144259 91.917832 
L 255.483761 91.917832 
L 255.483761 91.262686 
L 255.797603 91.262686 
L 255.836805 89.952394 
L 255.954425 89.952394 
L 255.954425 89.297248 
L 256.332253 89.297248 
L 256.332253 88.642102 
L 256.542676 88.642102 
L 256.542676 87.986956 
L 256.694773 87.986956 
L 256.741686 85.366371 
L 256.987604 85.366371 
L 256.990965 84.056079 
L 258.000123 84.056079 
L 258.026192 82.745787 
L 258.516275 82.745787 
L 258.516275 82.090641 
L 259.129623 82.090641 
L 259.129623 81.435495 
L 260.080487 81.435495 
L 260.080487 80.780349 
L 260.196525 80.780349 
L 260.196525 80.125203 
L 260.49204 80.125203 
L 260.49204 79.470057 
L 260.667413 79.470057 
L 260.768679 78.159764 
L 260.801444 78.159764 
L 260.900459 76.194326 
L 261.297466 76.194326 
L 261.297466 75.53918 
L 261.527552 75.53918 
L 261.578427 74.228888 
L 262.269066 74.228888 
L 262.269066 73.573742 
L 262.981499 73.573742 
L 262.981499 72.918596 
L 263.227756 72.918596 
L 263.227756 72.263449 
L 263.628401 72.263449 
L 263.628401 71.608303 
L 263.864492 71.608303 
L 263.965262 70.298011 
L 264.01606 70.298011 
L 264.075443 68.987719 
L 264.223912 68.987719 
L 264.223912 68.332573 
L 264.363336 68.332573 
L 264.391015 67.022281 
L 264.675671 67.022281 
L 264.777082 63.74655 
L 264.857642 63.74655 
L 264.927281 62.436258 
L 265.000926 62.436258 
L 265.071992 61.125966 
L 265.185442 61.125966 
L 265.185442 60.47082 
L 265.488494 60.47082 
L 265.498362 59.160527 
L 265.738903 59.160527 
L 265.833457 57.850235 
L 266.019026 57.850235 
L 266.019026 57.195089 
L 266.460502 57.195089 
L 266.460502 56.539943 
L 266.658587 56.539943 
L 266.658587 55.884797 
L 267.185258 55.884797 
L 267.185258 55.229651 
L 267.450797 55.229651 
L 267.450797 54.574505 
L 267.646299 54.574505 
L 267.646299 53.919359 
L 267.812243 53.919359 
L 267.812243 53.264213 
L 268.072585 53.264213 
L 268.072585 52.609066 
L 268.200945 52.609066 
L 268.200945 51.95392 
L 268.878143 51.95392 
L 268.878143 51.298774 
L 269.014627 51.298774 
L 269.014627 50.643628 
L 269.130915 50.643628 
L 269.130915 49.988482 
L 269.320865 49.988482 
L 269.320865 49.333336 
L 269.708434 49.333336 
L 269.783218 48.023044 
L 269.979784 48.023044 
L 269.979784 47.367898 
L 270.428584 47.367898 
L 270.428584 46.712752 
L 270.658227 46.712752 
L 270.719709 45.402459 
L 271.102627 45.402459 
L 271.102627 44.747313 
L 271.219407 44.747313 
L 271.219407 44.092167 
L 271.522521 44.092167 
L 271.522521 43.437021 
L 272.067488 43.437021 
L 272.067488 42.781875 
L 272.66646 42.781875 
L 272.66646 42.126729 
L 272.921841 42.126729 
L 272.921841 41.471583 
L 273.24644 41.471583 
L 273.352338 40.161291 
L 273.492654 40.161291 
L 273.492654 39.506144 
L 274.859199 39.506144 
L 274.859199 38.850998 
L 275.698139 38.850998 
L 275.698139 38.195852 
L 275.924448 38.195852 
L 275.924448 37.540706 
L 276.280375 37.540706 
L 276.280375 36.88556 
L 277.225481 36.88556 
L 277.225481 36.230414 
L 277.508273 36.230414 
L 277.508273 35.575268 
L 278.700644 35.575268 
L 278.730987 34.264976 
L 279.840088 34.264976 
L 279.840088 33.60983 
L 280.201538 33.60983 
L 280.310282 32.299537 
L 281.520761 32.299537 
L 281.520761 31.644391 
L 284.516418 31.644391 
L 284.516418 30.989245 
L 284.990657 30.989245 
L 284.990657 30.334099 
L 338.688 30.334099 
L 338.688 30.334099 
" style="fill:none;stroke:#000000;stroke-linecap:square;stroke-width:1.5;"/>
   </g>
   <g id="line2d_46">
    <defs>
     <path d="M 0 6 
C 1.591219 6 3.117479 5.367802 4.242641 4.242641 
C 5.367802 3.117479 6 1.591219 6 0 
C 6 -1.591219 5.367802 -3.117479 4.242641 -4.242641 
C 3.117479 -5.367802 1.591219 -6 0 -6 
C -1.591219 -6 -3.117479 -5.367802 -4.242641 -4.242641 
C -5.367802 -3.117479 -6 -1.591219 -6 0 
C -6 1.591219 -5.367802 3.117479 -4.242641 4.242641 
C -3.117479 5.367802 -1.591219 6 0 6 
z
" id="m22344244b0" style="stroke:#000000;stroke-width:1.5;"/>
    </defs>
    <g>
     <use style="fill-opacity:0;stroke:#000000;stroke-width:1.5;" x="81.334453" xlink:href="#m22344244b0" y="278.634471"/>
     <use style="fill-opacity:0;stroke:#000000;stroke-width:1.5;" x="167.477974" xlink:href="#m22344244b0" y="232.119098"/>
     <use style="fill-opacity:0;stroke:#000000;stroke-width:1.5;" x="237.007272" xlink:href="#m22344244b0" y="153.501566"/>
     <use style="fill-opacity:0;stroke:#000000;stroke-width:1.5;" x="284.990657" xlink:href="#m22344244b0" y="30.989245"/>
     <use style="fill-opacity:0;stroke:#000000;stroke-width:1.5;" x="284.990657" xlink:href="#m22344244b0" y="30.334099"/>
     <use style="fill-opacity:0;stroke:#000000;stroke-width:1.5;" x="338.688" xlink:href="#m22344244b0" y="30.334099"/>
    </g>
   </g>
   <g id="line2d_47">
    <path style="fill:none;stroke:#000000;stroke-linecap:square;stroke-width:1.5;"/>
    <g/>
   </g>
   <g id="line2d_48">
    <path clip-path="url(#p152af7f9b1)" d="M 208.076743 204.602962 
" style="fill:none;stroke:#000000;stroke-linecap:square;stroke-width:1.5;"/>
    <defs>
     <path d="M -12 12 
L 12 -12 
M -12 -12 
L 12 12 
" id="mcb657bce30" style="stroke:#000000;"/>
    </defs>
    <g clip-path="url(#p152af7f9b1)">
     <use style="stroke:#000000;" x="208.076743" xlink:href="#mcb657bce30" y="204.602962"/>
    </g>
   </g>
   <g id="line2d_49">
    <path d="M 338.688 181.017702 
L 369.60768 293.571802 
" style="fill:none;stroke:#008000;stroke-linecap:square;stroke-width:1.5;"/>
    <g>
     <use style="fill-opacity:0;stroke:#008000;stroke-linejoin:miter;stroke-width:1.5;" x="338.688" xlink:href="#m9c87db01ea" y="181.017702"/>
     <use style="fill-opacity:0;stroke:#008000;stroke-linejoin:miter;stroke-width:1.5;" x="369.60768" xlink:href="#m9c87db01ea" y="293.571802"/>
    </g>
   </g>
   <g id="line2d_50">
    <path d="M 338.688 181.017702 
L 369.60768 207.616634 
" style="fill:none;stroke:#0000ff;stroke-linecap:square;stroke-width:1.5;"/>
    <g>
     <use style="fill-opacity:0;stroke:#0000ff;stroke-linejoin:bevel;stroke-width:1.5;" x="338.688" xlink:href="#mee1ecdcae2" y="181.017702"/>
     <use style="fill-opacity:0;stroke:#0000ff;stroke-linejoin:bevel;stroke-width:1.5;" x="369.60768" xlink:href="#mee1ecdcae2" y="207.616634"/>
    </g>
   </g>
   <g id="line2d_51">
    <path d="M 338.688 161.363319 
L 369.60768 121.661465 
" style="fill:none;stroke:#00bfbf;stroke-linecap:square;stroke-width:1.5;"/>
    <g>
     <use style="fill-opacity:0;stroke:#00bfbf;stroke-width:1.5;" x="338.688" xlink:href="#m575aa2ed0e" y="161.363319"/>
     <use style="fill-opacity:0;stroke:#00bfbf;stroke-width:1.5;" x="369.60768" xlink:href="#m575aa2ed0e" y="121.661465"/>
    </g>
   </g>
   <g id="line2d_52">
    <path d="M 338.688 30.334099 
L 369.60768 35.706297 
" style="fill:none;stroke:#000000;stroke-linecap:square;stroke-width:1.5;"/>
    <g>
     <use style="fill-opacity:0;stroke:#000000;stroke-width:1.5;" x="338.688" xlink:href="#m22344244b0" y="30.334099"/>
     <use style="fill-opacity:0;stroke:#000000;stroke-width:1.5;" x="369.60768" xlink:href="#m22344244b0" y="35.706297"/>
    </g>
   </g>
   <g id="line2d_53">
    <path d="M 338.688 298.944 
L 338.688 30.334099 
" style="fill:none;stroke:#000000;stroke-linecap:square;stroke-width:1.5;"/>
   </g>
   <g id="patch_3">
    <path d="M 57.6 298.944 
L 57.6 27.648 
" style="fill:none;stroke:#000000;stroke-linecap:square;stroke-linejoin:miter;stroke-width:0.8;"/>
   </g>
   <g id="patch_4">
    <path d="M 338.688 298.944 
L 338.688 27.648 
" style="fill:none;stroke:#000000;stroke-linecap:square;stroke-linejoin:miter;stroke-width:0.8;"/>
   </g>
   <g id="patch_5">
    <path d="M 57.6 298.944 
L 338.688 298.944 
" style="fill:none;stroke:#000000;stroke-linecap:square;stroke-linejoin:miter;stroke-width:0.8;"/>
   </g>
   <g id="patch_6">
    <path d="M 57.6 27.648 
L 338.688 27.648 
" style="fill:none;stroke:#000000;stroke-linecap:square;stroke-linejoin:miter;stroke-width:0.8;"/>
   </g>
   <g id="text_13">
    <!-- 3-D -->
    <g transform="translate(375.22944 298.262739)scale(0.17 -0.17)">
     <defs>
      <path d="M 40.578125 39.3125 
Q 47.65625 37.796875 51.625 33 
Q 55.609375 28.21875 55.609375 21.1875 
Q 55.609375 10.40625 48.1875 4.484375 
Q 40.765625 -1.421875 27.09375 -1.421875 
Q 22.515625 -1.421875 17.65625 -0.515625 
Q 12.796875 0.390625 7.625 2.203125 
L 7.625 11.71875 
Q 11.71875 9.328125 16.59375 8.109375 
Q 21.484375 6.890625 26.8125 6.890625 
Q 36.078125 6.890625 40.9375 10.546875 
Q 45.796875 14.203125 45.796875 21.1875 
Q 45.796875 27.640625 41.28125 31.265625 
Q 36.765625 34.90625 28.71875 34.90625 
L 20.21875 34.90625 
L 20.21875 43.015625 
L 29.109375 43.015625 
Q 36.375 43.015625 40.234375 45.921875 
Q 44.09375 48.828125 44.09375 54.296875 
Q 44.09375 59.90625 40.109375 62.90625 
Q 36.140625 65.921875 28.71875 65.921875 
Q 24.65625 65.921875 20.015625 65.03125 
Q 15.375 64.15625 9.8125 62.3125 
L 9.8125 71.09375 
Q 15.4375 72.65625 20.34375 73.4375 
Q 25.25 74.21875 29.59375 74.21875 
Q 40.828125 74.21875 47.359375 69.109375 
Q 53.90625 64.015625 53.90625 55.328125 
Q 53.90625 49.265625 50.4375 45.09375 
Q 46.96875 40.921875 40.578125 39.3125 
z
" id="DejaVuSans-51"/>
      <path d="M 19.671875 64.796875 
L 19.671875 8.109375 
L 31.59375 8.109375 
Q 46.6875 8.109375 53.6875 14.9375 
Q 60.6875 21.78125 60.6875 36.53125 
Q 60.6875 51.171875 53.6875 57.984375 
Q 46.6875 64.796875 31.59375 64.796875 
z
M 9.8125 72.90625 
L 30.078125 72.90625 
Q 51.265625 72.90625 61.171875 64.09375 
Q 71.09375 55.28125 71.09375 36.53125 
Q 71.09375 17.671875 61.125 8.828125 
Q 51.171875 0 30.078125 0 
L 9.8125 0 
z
" id="DejaVuSans-68"/>
     </defs>
     <use xlink:href="#DejaVuSans-51"/>
     <use x="63.623047" xlink:href="#DejaVuSans-45"/>
     <use x="99.707031" xlink:href="#DejaVuSans-68"/>
    </g>
   </g>
   <g id="text_14">
    <!-- 5-D -->
    <g transform="translate(375.22944 212.307571)scale(0.17 -0.17)">
     <defs>
      <path d="M 10.796875 72.90625 
L 49.515625 72.90625 
L 49.515625 64.59375 
L 19.828125 64.59375 
L 19.828125 46.734375 
Q 21.96875 47.46875 24.109375 47.828125 
Q 26.265625 48.1875 28.421875 48.1875 
Q 40.625 48.1875 47.75 41.5 
Q 54.890625 34.8125 54.890625 23.390625 
Q 54.890625 11.625 47.5625 5.09375 
Q 40.234375 -1.421875 26.90625 -1.421875 
Q 22.3125 -1.421875 17.546875 -0.640625 
Q 12.796875 0.140625 7.71875 1.703125 
L 7.71875 11.625 
Q 12.109375 9.234375 16.796875 8.0625 
Q 21.484375 6.890625 26.703125 6.890625 
Q 35.15625 6.890625 40.078125 11.328125 
Q 45.015625 15.765625 45.015625 23.390625 
Q 45.015625 31 40.078125 35.4375 
Q 35.15625 39.890625 26.703125 39.890625 
Q 22.75 39.890625 18.8125 39.015625 
Q 14.890625 38.140625 10.796875 36.28125 
z
" id="DejaVuSans-53"/>
     </defs>
     <use xlink:href="#DejaVuSans-53"/>
     <use x="63.623047" xlink:href="#DejaVuSans-45"/>
     <use x="99.707031" xlink:href="#DejaVuSans-68"/>
    </g>
   </g>
   <g id="text_15">
    <!-- 2-D -->
    <g transform="translate(375.22944 126.352403)scale(0.17 -0.17)">
     <use xlink:href="#DejaVuSans-50"/>
     <use x="63.623047" xlink:href="#DejaVuSans-45"/>
     <use x="99.707031" xlink:href="#DejaVuSans-68"/>
    </g>
   </g>
   <g id="text_16">
    <!-- 10-D -->
    <g transform="translate(375.22944 40.397235)scale(0.17 -0.17)">
     <use xlink:href="#DejaVuSans-49"/>
     <use x="63.623047" xlink:href="#DejaVuSans-48"/>
     <use x="127.246094" xlink:href="#DejaVuSans-45"/>
     <use x="163.330078" xlink:href="#DejaVuSans-68"/>
    </g>
   </g>
   <g id="text_17">
    <!-- bbob-constrained f14 -->
    <g transform="translate(60.41088 38.111366)scale(0.102 -0.102)">
     <defs>
      <path d="M 48.6875 27.296875 
Q 48.6875 37.203125 44.609375 42.84375 
Q 40.53125 48.484375 33.40625 48.484375 
Q 26.265625 48.484375 22.1875 42.84375 
Q 18.109375 37.203125 18.109375 27.296875 
Q 18.109375 17.390625 22.1875 11.75 
Q 26.265625 6.109375 33.40625 6.109375 
Q 40.53125 6.109375 44.609375 11.75 
Q 48.6875 17.390625 48.6875 27.296875 
z
M 18.109375 46.390625 
Q 20.953125 51.265625 25.265625 53.625 
Q 29.59375 56 35.59375 56 
Q 45.5625 56 51.78125 48.09375 
Q 58.015625 40.1875 58.015625 27.296875 
Q 58.015625 14.40625 51.78125 6.484375 
Q 45.5625 -1.421875 35.59375 -1.421875 
Q 29.59375 -1.421875 25.265625 0.953125 
Q 20.953125 3.328125 18.109375 8.203125 
L 18.109375 0 
L 9.078125 0 
L 9.078125 75.984375 
L 18.109375 75.984375 
z
" id="DejaVuSans-98"/>
     </defs>
     <use xlink:href="#DejaVuSans-98"/>
     <use x="63.476562" xlink:href="#DejaVuSans-98"/>
     <use x="126.953125" xlink:href="#DejaVuSans-111"/>
     <use x="188.134766" xlink:href="#DejaVuSans-98"/>
     <use x="251.611328" xlink:href="#DejaVuSans-45"/>
     <use x="287.695312" xlink:href="#DejaVuSans-99"/>
     <use x="342.675781" xlink:href="#DejaVuSans-111"/>
     <use x="403.857422" xlink:href="#DejaVuSans-110"/>
     <use x="467.236328" xlink:href="#DejaVuSans-115"/>
     <use x="519.335938" xlink:href="#DejaVuSans-116"/>
     <use x="558.544922" xlink:href="#DejaVuSans-114"/>
     <use x="599.658203" xlink:href="#DejaVuSans-97"/>
     <use x="660.9375" xlink:href="#DejaVuSans-105"/>
     <use x="688.720703" xlink:href="#DejaVuSans-110"/>
     <use x="752.099609" xlink:href="#DejaVuSans-101"/>
     <use x="813.623047" xlink:href="#DejaVuSans-100"/>
     <use x="877.099609" xlink:href="#DejaVuSans-32"/>
     <use x="908.886719" xlink:href="#DejaVuSans-102"/>
     <use x="944.091797" xlink:href="#DejaVuSans-49"/>
     <use x="1007.714844" xlink:href="#DejaVuSans-52"/>
    </g>
    <!-- 41 targets: 100..1e-06 -->
    <g transform="translate(60.41088 49.533135)scale(0.102 -0.102)">
     <defs>
      <path d="M 11.71875 12.40625 
L 22.015625 12.40625 
L 22.015625 0 
L 11.71875 0 
z
M 11.71875 51.703125 
L 22.015625 51.703125 
L 22.015625 39.3125 
L 11.71875 39.3125 
z
" id="DejaVuSans-58"/>
     </defs>
     <use xlink:href="#DejaVuSans-52"/>
     <use x="63.623047" xlink:href="#DejaVuSans-49"/>
     <use x="127.246094" xlink:href="#DejaVuSans-32"/>
     <use x="159.033203" xlink:href="#DejaVuSans-116"/>
     <use x="198.242188" xlink:href="#DejaVuSans-97"/>
     <use x="259.521484" xlink:href="#DejaVuSans-114"/>
     <use x="298.884766" xlink:href="#DejaVuSans-103"/>
     <use x="362.361328" xlink:href="#DejaVuSans-101"/>
     <use x="423.884766" xlink:href="#DejaVuSans-116"/>
     <use x="463.09375" xlink:href="#DejaVuSans-115"/>
     <use x="515.193359" xlink:href="#DejaVuSans-58"/>
     <use x="548.884766" xlink:href="#DejaVuSans-32"/>
     <use x="580.671875" xlink:href="#DejaVuSans-49"/>
     <use x="644.294922" xlink:href="#DejaVuSans-48"/>
     <use x="707.917969" xlink:href="#DejaVuSans-48"/>
     <use x="771.541016" xlink:href="#DejaVuSans-46"/>
     <use x="803.328125" xlink:href="#DejaVuSans-46"/>
     <use x="835.115234" xlink:href="#DejaVuSans-49"/>
     <use x="898.738281" xlink:href="#DejaVuSans-101"/>
     <use x="960.261719" xlink:href="#DejaVuSans-45"/>
     <use x="996.345703" xlink:href="#DejaVuSans-48"/>
     <use x="1059.96875" xlink:href="#DejaVuSans-54"/>
    </g>
    <!-- 15 instances -->
    <g transform="translate(60.41088 60.954904)scale(0.102 -0.102)">
     <use xlink:href="#DejaVuSans-49"/>
     <use x="63.623047" xlink:href="#DejaVuSans-53"/>
     <use x="127.246094" xlink:href="#DejaVuSans-32"/>
     <use x="159.033203" xlink:href="#DejaVuSans-105"/>
     <use x="186.816406" xlink:href="#DejaVuSans-110"/>
     <use x="250.195312" xlink:href="#DejaVuSans-115"/>
     <use x="302.294922" xlink:href="#DejaVuSans-116"/>
     <use x="341.503906" xlink:href="#DejaVuSans-97"/>
     <use x="402.783203" xlink:href="#DejaVuSans-110"/>
     <use x="466.162109" xlink:href="#DejaVuSans-99"/>
     <use x="521.142578" xlink:href="#DejaVuSans-101"/>
     <use x="582.666016" xlink:href="#DejaVuSans-115"/>
    </g>
   </g>
   <g id="text_18">
    <!-- v5z33 -->
    <g style="fill:#808080;" transform="translate(183.016656 294.151352)scale(0.1 -0.1)">
     <defs>
      <path d="M 5.515625 54.6875 
L 48.1875 54.6875 
L 48.1875 46.484375 
L 14.40625 7.171875 
L 48.1875 7.171875 
L 48.1875 0 
L 4.296875 0 
L 4.296875 8.203125 
L 38.09375 47.515625 
L 5.515625 47.515625 
z
" id="DejaVuSans-122"/>
     </defs>
     <use xlink:href="#DejaVuSans-118"/>
     <use x="59.179688" xlink:href="#DejaVuSans-53"/>
     <use x="122.802734" xlink:href="#DejaVuSans-122"/>
     <use x="175.292969" xlink:href="#DejaVuSans-51"/>
     <use x="238.916016" xlink:href="#DejaVuSans-51"/>
    </g>
   </g>
   <g id="text_19">
    <!-- 14 Linear Slope, 2 constraints -->
    <g transform="translate(48.770562 21.648)scale(0.2 -0.2)">
     <defs>
      <path d="M 9.8125 72.90625 
L 19.671875 72.90625 
L 19.671875 8.296875 
L 55.171875 8.296875 
L 55.171875 0 
L 9.8125 0 
z
" id="DejaVuSans-76"/>
      <path d="M 53.515625 70.515625 
L 53.515625 60.890625 
Q 47.90625 63.578125 42.921875 64.890625 
Q 37.9375 66.21875 33.296875 66.21875 
Q 25.25 66.21875 20.875 63.09375 
Q 16.5 59.96875 16.5 54.203125 
Q 16.5 49.359375 19.40625 46.890625 
Q 22.3125 44.4375 30.421875 42.921875 
L 36.375 41.703125 
Q 47.40625 39.59375 52.65625 34.296875 
Q 57.90625 29 57.90625 20.125 
Q 57.90625 9.515625 50.796875 4.046875 
Q 43.703125 -1.421875 29.984375 -1.421875 
Q 24.8125 -1.421875 18.96875 -0.25 
Q 13.140625 0.921875 6.890625 3.21875 
L 6.890625 13.375 
Q 12.890625 10.015625 18.65625 8.296875 
Q 24.421875 6.59375 29.984375 6.59375 
Q 38.421875 6.59375 43.015625 9.90625 
Q 47.609375 13.234375 47.609375 19.390625 
Q 47.609375 24.75 44.3125 27.78125 
Q 41.015625 30.8125 33.5 32.328125 
L 27.484375 33.5 
Q 16.453125 35.6875 11.515625 40.375 
Q 6.59375 45.0625 6.59375 53.421875 
Q 6.59375 63.09375 13.40625 68.65625 
Q 20.21875 74.21875 32.171875 74.21875 
Q 37.3125 74.21875 42.625 73.28125 
Q 47.953125 72.359375 53.515625 70.515625 
z
" id="DejaVuSans-83"/>
     </defs>
     <use xlink:href="#DejaVuSans-49"/>
     <use x="63.623047" xlink:href="#DejaVuSans-52"/>
     <use x="127.246094" xlink:href="#DejaVuSans-32"/>
     <use x="159.033203" xlink:href="#DejaVuSans-76"/>
     <use x="214.746094" xlink:href="#DejaVuSans-105"/>
     <use x="242.529297" xlink:href="#DejaVuSans-110"/>
     <use x="305.908203" xlink:href="#DejaVuSans-101"/>
     <use x="367.431641" xlink:href="#DejaVuSans-97"/>
     <use x="428.710938" xlink:href="#DejaVuSans-114"/>
     <use x="469.824219" xlink:href="#DejaVuSans-32"/>
     <use x="501.611328" xlink:href="#DejaVuSans-83"/>
     <use x="565.087891" xlink:href="#DejaVuSans-108"/>
     <use x="592.871094" xlink:href="#DejaVuSans-111"/>
     <use x="654.052734" xlink:href="#DejaVuSans-112"/>
     <use x="717.529297" xlink:href="#DejaVuSans-101"/>
     <use x="779.052734" xlink:href="#DejaVuSans-44"/>
     <use x="810.839844" xlink:href="#DejaVuSans-32"/>
     <use x="842.626953" xlink:href="#DejaVuSans-50"/>
     <use x="906.25" xlink:href="#DejaVuSans-32"/>
     <use x="938.037109" xlink:href="#DejaVuSans-99"/>
     <use x="993.017578" xlink:href="#DejaVuSans-111"/>
     <use x="1054.199219" xlink:href="#DejaVuSans-110"/>
     <use x="1117.578125" xlink:href="#DejaVuSans-115"/>
     <use x="1169.677734" xlink:href="#DejaVuSans-116"/>
     <use x="1208.886719" xlink:href="#DejaVuSans-114"/>
     <use x="1250" xlink:href="#DejaVuSans-97"/>
     <use x="1311.279297" xlink:href="#DejaVuSans-105"/>
     <use x="1339.0625" xlink:href="#DejaVuSans-110"/>
     <use x="1402.441406" xlink:href="#DejaVuSans-116"/>
     <use x="1441.650391" xlink:href="#DejaVuSans-115"/>
    </g>
   </g>
  </g>
 </g>
 <defs>
  <clipPath id="p152af7f9b1">
   <rect height="271.296" width="281.088" x="57.6" y="27.648"/>
  </clipPath>
 </defs>
</svg>
