<?xml version="1.0" encoding="utf-8" standalone="no"?>
<!DOCTYPE svg PUBLIC "-//W3C//DTD SVG 1.1//EN"
  "http://www.w3.org/Graphics/SVG/1.1/DTD/svg11.dtd">
<!-- Created with matplotlib (https://matplotlib.org/) -->
<svg height="345.6pt" version="1.1" viewBox="0 0 460.8 345.6" width="460.8pt" xmlns="http://www.w3.org/2000/svg" xmlns:xlink="http://www.w3.org/1999/xlink">
 <metadata>
  <rdf:RDF xmlns:cc="http://creativecommons.org/ns#" xmlns:dc="http://purl.org/dc/elements/1.1/" xmlns:rdf="http://www.w3.org/1999/02/22-rdf-syntax-ns#">
   <cc:Work>
    <dc:type rdf:resource="http://purl.org/dc/dcmitype/StillImage"/>
    <dc:date>2021-04-09T10:16:03.531146</dc:date>
    <dc:format>image/svg+xml</dc:format>
    <dc:creator>
     <cc:Agent>
      <dc:title>Matplotlib v3.3.3, https://matplotlib.org/</dc:title>
     </cc:Agent>
    </dc:creator>
   </cc:Work>
  </rdf:RDF>
 </metadata>
 <defs>
  <style type="text/css">*{stroke-linecap:butt;stroke-linejoin:round;}</style>
 </defs>
 <g id="figure_1">
  <g id="patch_1">
   <path d="M 0 345.6 
L 460.8 345.6 
L 460.8 0 
L 0 0 
z
" style="fill:#ffffff;"/>
  </g>
  <g id="axes_1">
   <g id="patch_2">
    <path d="M 57.6 298.944 
L 338.688 298.944 
L 338.688 3.456 
L 57.6 3.456 
z
" style="fill:#ffffff;"/>
   </g>
   <g id="matplotlib.axis_1">
    <g id="xtick_1">
     <g id="line2d_1">
      <path clip-path="url(#p09f60974d8)" d="M 57.6 298.944 
L 57.6 3.456 
" style="fill:none;stroke:#b0b0b0;stroke-linecap:square;stroke-width:0.8;"/>
     </g>
     <g id="line2d_2">
      <defs>
       <path d="M 0 0 
L 0 3.5 
" id="m4a436d3bfa" style="stroke:#000000;stroke-width:0.8;"/>
      </defs>
      <g>
       <use style="stroke:#000000;stroke-width:0.8;" x="57.6" xlink:href="#m4a436d3bfa" y="298.944"/>
      </g>
     </g>
     <g id="text_1">
      <!-- 0 -->
      <g transform="translate(51.2375 321.140875)scale(0.2 -0.2)">
       <defs>
        <path d="M 31.78125 66.40625 
Q 24.171875 66.40625 20.328125 58.90625 
Q 16.5 51.421875 16.5 36.375 
Q 16.5 21.390625 20.328125 13.890625 
Q 24.171875 6.390625 31.78125 6.390625 
Q 39.453125 6.390625 43.28125 13.890625 
Q 47.125 21.390625 47.125 36.375 
Q 47.125 51.421875 43.28125 58.90625 
Q 39.453125 66.40625 31.78125 66.40625 
z
M 31.78125 74.21875 
Q 44.046875 74.21875 50.515625 64.515625 
Q 56.984375 54.828125 56.984375 36.375 
Q 56.984375 17.96875 50.515625 8.265625 
Q 44.046875 -1.421875 31.78125 -1.421875 
Q 19.53125 -1.421875 13.0625 8.265625 
Q 6.59375 17.96875 6.59375 36.375 
Q 6.59375 54.828125 13.0625 64.515625 
Q 19.53125 74.21875 31.78125 74.21875 
z
" id="DejaVuSans-48"/>
       </defs>
       <use xlink:href="#DejaVuSans-48"/>
      </g>
     </g>
    </g>
    <g id="xtick_2">
     <g id="line2d_3">
      <path clip-path="url(#p09f60974d8)" d="M 137.910857 298.944 
L 137.910857 3.456 
" style="fill:none;stroke:#b0b0b0;stroke-linecap:square;stroke-width:0.8;"/>
     </g>
     <g id="line2d_4">
      <g>
       <use style="stroke:#000000;stroke-width:0.8;" x="137.910857" xlink:href="#m4a436d3bfa" y="298.944"/>
      </g>
     </g>
     <g id="text_2">
      <!-- 2 -->
      <g transform="translate(131.548357 321.140875)scale(0.2 -0.2)">
       <defs>
        <path d="M 19.1875 8.296875 
L 53.609375 8.296875 
L 53.609375 0 
L 7.328125 0 
L 7.328125 8.296875 
Q 12.9375 14.109375 22.625 23.890625 
Q 32.328125 33.6875 34.8125 36.53125 
Q 39.546875 41.84375 41.421875 45.53125 
Q 43.3125 49.21875 43.3125 52.78125 
Q 43.3125 58.59375 39.234375 62.25 
Q 35.15625 65.921875 28.609375 65.921875 
Q 23.96875 65.921875 18.8125 64.3125 
Q 13.671875 62.703125 7.8125 59.421875 
L 7.8125 69.390625 
Q 13.765625 71.78125 18.9375 73 
Q 24.125 74.21875 28.421875 74.21875 
Q 39.75 74.21875 46.484375 68.546875 
Q 53.21875 62.890625 53.21875 53.421875 
Q 53.21875 48.921875 51.53125 44.890625 
Q 49.859375 40.875 45.40625 35.40625 
Q 44.1875 33.984375 37.640625 27.21875 
Q 31.109375 20.453125 19.1875 8.296875 
z
" id="DejaVuSans-50"/>
       </defs>
       <use xlink:href="#DejaVuSans-50"/>
      </g>
     </g>
    </g>
    <g id="xtick_3">
     <g id="line2d_5">
      <path clip-path="url(#p09f60974d8)" d="M 218.221714 298.944 
L 218.221714 3.456 
" style="fill:none;stroke:#b0b0b0;stroke-linecap:square;stroke-width:0.8;"/>
     </g>
     <g id="line2d_6">
      <g>
       <use style="stroke:#000000;stroke-width:0.8;" x="218.221714" xlink:href="#m4a436d3bfa" y="298.944"/>
      </g>
     </g>
     <g id="text_3">
      <!-- 4 -->
      <g transform="translate(211.859214 321.140875)scale(0.2 -0.2)">
       <defs>
        <path d="M 37.796875 64.3125 
L 12.890625 25.390625 
L 37.796875 25.390625 
z
M 35.203125 72.90625 
L 47.609375 72.90625 
L 47.609375 25.390625 
L 58.015625 25.390625 
L 58.015625 17.1875 
L 47.609375 17.1875 
L 47.609375 0 
L 37.796875 0 
L 37.796875 17.1875 
L 4.890625 17.1875 
L 4.890625 26.703125 
z
" id="DejaVuSans-52"/>
       </defs>
       <use xlink:href="#DejaVuSans-52"/>
      </g>
     </g>
    </g>
    <g id="xtick_4">
     <g id="line2d_7">
      <path clip-path="url(#p09f60974d8)" d="M 298.532571 298.944 
L 298.532571 3.456 
" style="fill:none;stroke:#b0b0b0;stroke-linecap:square;stroke-width:0.8;"/>
     </g>
     <g id="line2d_8">
      <g>
       <use style="stroke:#000000;stroke-width:0.8;" x="298.532571" xlink:href="#m4a436d3bfa" y="298.944"/>
      </g>
     </g>
     <g id="text_4">
      <!-- 6 -->
      <g transform="translate(292.170071 321.140875)scale(0.2 -0.2)">
       <defs>
        <path d="M 33.015625 40.375 
Q 26.375 40.375 22.484375 35.828125 
Q 18.609375 31.296875 18.609375 23.390625 
Q 18.609375 15.53125 22.484375 10.953125 
Q 26.375 6.390625 33.015625 6.390625 
Q 39.65625 6.390625 43.53125 10.953125 
Q 47.40625 15.53125 47.40625 23.390625 
Q 47.40625 31.296875 43.53125 35.828125 
Q 39.65625 40.375 33.015625 40.375 
z
M 52.59375 71.296875 
L 52.59375 62.3125 
Q 48.875 64.0625 45.09375 64.984375 
Q 41.3125 65.921875 37.59375 65.921875 
Q 27.828125 65.921875 22.671875 59.328125 
Q 17.53125 52.734375 16.796875 39.40625 
Q 19.671875 43.65625 24.015625 45.921875 
Q 28.375 48.1875 33.59375 48.1875 
Q 44.578125 48.1875 50.953125 41.515625 
Q 57.328125 34.859375 57.328125 23.390625 
Q 57.328125 12.15625 50.6875 5.359375 
Q 44.046875 -1.421875 33.015625 -1.421875 
Q 20.359375 -1.421875 13.671875 8.265625 
Q 6.984375 17.96875 6.984375 36.375 
Q 6.984375 53.65625 15.1875 63.9375 
Q 23.390625 74.21875 37.203125 74.21875 
Q 40.921875 74.21875 44.703125 73.484375 
Q 48.484375 72.75 52.59375 71.296875 
z
" id="DejaVuSans-54"/>
       </defs>
       <use xlink:href="#DejaVuSans-54"/>
      </g>
     </g>
    </g>
    <g id="xtick_5">
     <g id="line2d_9">
      <path clip-path="url(#p09f60974d8)" d="M 97.755429 298.944 
L 97.755429 3.456 
" style="fill:none;stroke:#b0b0b0;stroke-linecap:square;stroke-width:0.8;"/>
     </g>
     <g id="line2d_10">
      <defs>
       <path d="M 0 0 
L 0 2 
" id="m8708832d7c" style="stroke:#000000;stroke-width:0.6;"/>
      </defs>
      <g>
       <use style="stroke:#000000;stroke-width:0.6;" x="97.755429" xlink:href="#m8708832d7c" y="298.944"/>
      </g>
     </g>
    </g>
    <g id="xtick_6">
     <g id="line2d_11">
      <path clip-path="url(#p09f60974d8)" d="M 178.066286 298.944 
L 178.066286 3.456 
" style="fill:none;stroke:#b0b0b0;stroke-linecap:square;stroke-width:0.8;"/>
     </g>
     <g id="line2d_12">
      <g>
       <use style="stroke:#000000;stroke-width:0.6;" x="178.066286" xlink:href="#m8708832d7c" y="298.944"/>
      </g>
     </g>
    </g>
    <g id="xtick_7">
     <g id="line2d_13">
      <path clip-path="url(#p09f60974d8)" d="M 258.377143 298.944 
L 258.377143 3.456 
" style="fill:none;stroke:#b0b0b0;stroke-linecap:square;stroke-width:0.8;"/>
     </g>
     <g id="line2d_14">
      <g>
       <use style="stroke:#000000;stroke-width:0.6;" x="258.377143" xlink:href="#m8708832d7c" y="298.944"/>
      </g>
     </g>
    </g>
    <g id="xtick_8">
     <g id="line2d_15">
      <path clip-path="url(#p09f60974d8)" d="M 338.688 298.944 
L 338.688 3.456 
" style="fill:none;stroke:#b0b0b0;stroke-linecap:square;stroke-width:0.8;"/>
     </g>
     <g id="line2d_16">
      <g>
       <use style="stroke:#000000;stroke-width:0.6;" x="338.688" xlink:href="#m8708832d7c" y="298.944"/>
      </g>
     </g>
    </g>
    <g id="text_5">
     <!-- log10(# (f+g)-evals / dimension) -->
     <g transform="translate(58.145016 342.217594)scale(0.17 -0.17)">
      <defs>
       <path d="M 9.421875 75.984375 
L 18.40625 75.984375 
L 18.40625 0 
L 9.421875 0 
z
" id="DejaVuSans-108"/>
       <path d="M 30.609375 48.390625 
Q 23.390625 48.390625 19.1875 42.75 
Q 14.984375 37.109375 14.984375 27.296875 
Q 14.984375 17.484375 19.15625 11.84375 
Q 23.34375 6.203125 30.609375 6.203125 
Q 37.796875 6.203125 41.984375 11.859375 
Q 46.1875 17.53125 46.1875 27.296875 
Q 46.1875 37.015625 41.984375 42.703125 
Q 37.796875 48.390625 30.609375 48.390625 
z
M 30.609375 56 
Q 42.328125 56 49.015625 48.375 
Q 55.71875 40.765625 55.71875 27.296875 
Q 55.71875 13.875 49.015625 6.21875 
Q 42.328125 -1.421875 30.609375 -1.421875 
Q 18.84375 -1.421875 12.171875 6.21875 
Q 5.515625 13.875 5.515625 27.296875 
Q 5.515625 40.765625 12.171875 48.375 
Q 18.84375 56 30.609375 56 
z
" id="DejaVuSans-111"/>
       <path d="M 45.40625 27.984375 
Q 45.40625 37.75 41.375 43.109375 
Q 37.359375 48.484375 30.078125 48.484375 
Q 22.859375 48.484375 18.828125 43.109375 
Q 14.796875 37.75 14.796875 27.984375 
Q 14.796875 18.265625 18.828125 12.890625 
Q 22.859375 7.515625 30.078125 7.515625 
Q 37.359375 7.515625 41.375 12.890625 
Q 45.40625 18.265625 45.40625 27.984375 
z
M 54.390625 6.78125 
Q 54.390625 -7.171875 48.1875 -13.984375 
Q 42 -20.796875 29.203125 -20.796875 
Q 24.46875 -20.796875 20.265625 -20.09375 
Q 16.0625 -19.390625 12.109375 -17.921875 
L 12.109375 -9.1875 
Q 16.0625 -11.328125 19.921875 -12.34375 
Q 23.78125 -13.375 27.78125 -13.375 
Q 36.625 -13.375 41.015625 -8.765625 
Q 45.40625 -4.15625 45.40625 5.171875 
L 45.40625 9.625 
Q 42.625 4.78125 38.28125 2.390625 
Q 33.9375 0 27.875 0 
Q 17.828125 0 11.671875 7.65625 
Q 5.515625 15.328125 5.515625 27.984375 
Q 5.515625 40.671875 11.671875 48.328125 
Q 17.828125 56 27.875 56 
Q 33.9375 56 38.28125 53.609375 
Q 42.625 51.21875 45.40625 46.390625 
L 45.40625 54.6875 
L 54.390625 54.6875 
z
" id="DejaVuSans-103"/>
       <path d="M 12.40625 8.296875 
L 28.515625 8.296875 
L 28.515625 63.921875 
L 10.984375 60.40625 
L 10.984375 69.390625 
L 28.421875 72.90625 
L 38.28125 72.90625 
L 38.28125 8.296875 
L 54.390625 8.296875 
L 54.390625 0 
L 12.40625 0 
z
" id="DejaVuSans-49"/>
       <path d="M 31 75.875 
Q 24.46875 64.65625 21.28125 53.65625 
Q 18.109375 42.671875 18.109375 31.390625 
Q 18.109375 20.125 21.3125 9.0625 
Q 24.515625 -2 31 -13.1875 
L 23.1875 -13.1875 
Q 15.875 -1.703125 12.234375 9.375 
Q 8.59375 20.453125 8.59375 31.390625 
Q 8.59375 42.28125 12.203125 53.3125 
Q 15.828125 64.359375 23.1875 75.875 
z
" id="DejaVuSans-40"/>
       <path d="M 51.125 44 
L 36.921875 44 
L 32.8125 27.6875 
L 47.125 27.6875 
z
M 43.796875 71.78125 
L 38.71875 51.515625 
L 52.984375 51.515625 
L 58.109375 71.78125 
L 65.921875 71.78125 
L 60.890625 51.515625 
L 76.125 51.515625 
L 76.125 44 
L 58.984375 44 
L 54.984375 27.6875 
L 70.515625 27.6875 
L 70.515625 20.21875 
L 53.078125 20.21875 
L 48 0 
L 40.1875 0 
L 45.21875 20.21875 
L 30.90625 20.21875 
L 25.875 0 
L 18.015625 0 
L 23.09375 20.21875 
L 7.71875 20.21875 
L 7.71875 27.6875 
L 24.90625 27.6875 
L 29 44 
L 13.28125 44 
L 13.28125 51.515625 
L 30.90625 51.515625 
L 35.890625 71.78125 
z
" id="DejaVuSans-35"/>
       <path id="DejaVuSans-32"/>
       <path d="M 37.109375 75.984375 
L 37.109375 68.5 
L 28.515625 68.5 
Q 23.6875 68.5 21.796875 66.546875 
Q 19.921875 64.59375 19.921875 59.515625 
L 19.921875 54.6875 
L 34.71875 54.6875 
L 34.71875 47.703125 
L 19.921875 47.703125 
L 19.921875 0 
L 10.890625 0 
L 10.890625 47.703125 
L 2.296875 47.703125 
L 2.296875 54.6875 
L 10.890625 54.6875 
L 10.890625 58.5 
Q 10.890625 67.625 15.140625 71.796875 
Q 19.390625 75.984375 28.609375 75.984375 
z
" id="DejaVuSans-102"/>
       <path d="M 46 62.703125 
L 46 35.5 
L 73.1875 35.5 
L 73.1875 27.203125 
L 46 27.203125 
L 46 0 
L 37.796875 0 
L 37.796875 27.203125 
L 10.59375 27.203125 
L 10.59375 35.5 
L 37.796875 35.5 
L 37.796875 62.703125 
z
" id="DejaVuSans-43"/>
       <path d="M 8.015625 75.875 
L 15.828125 75.875 
Q 23.140625 64.359375 26.78125 53.3125 
Q 30.421875 42.28125 30.421875 31.390625 
Q 30.421875 20.453125 26.78125 9.375 
Q 23.140625 -1.703125 15.828125 -13.1875 
L 8.015625 -13.1875 
Q 14.5 -2 17.703125 9.0625 
Q 20.90625 20.125 20.90625 31.390625 
Q 20.90625 42.671875 17.703125 53.65625 
Q 14.5 64.65625 8.015625 75.875 
z
" id="DejaVuSans-41"/>
       <path d="M 4.890625 31.390625 
L 31.203125 31.390625 
L 31.203125 23.390625 
L 4.890625 23.390625 
z
" id="DejaVuSans-45"/>
       <path d="M 56.203125 29.59375 
L 56.203125 25.203125 
L 14.890625 25.203125 
Q 15.484375 15.921875 20.484375 11.0625 
Q 25.484375 6.203125 34.421875 6.203125 
Q 39.59375 6.203125 44.453125 7.46875 
Q 49.3125 8.734375 54.109375 11.28125 
L 54.109375 2.78125 
Q 49.265625 0.734375 44.1875 -0.34375 
Q 39.109375 -1.421875 33.890625 -1.421875 
Q 20.796875 -1.421875 13.15625 6.1875 
Q 5.515625 13.8125 5.515625 26.8125 
Q 5.515625 40.234375 12.765625 48.109375 
Q 20.015625 56 32.328125 56 
Q 43.359375 56 49.78125 48.890625 
Q 56.203125 41.796875 56.203125 29.59375 
z
M 47.21875 32.234375 
Q 47.125 39.59375 43.09375 43.984375 
Q 39.0625 48.390625 32.421875 48.390625 
Q 24.90625 48.390625 20.390625 44.140625 
Q 15.875 39.890625 15.1875 32.171875 
z
" id="DejaVuSans-101"/>
       <path d="M 2.984375 54.6875 
L 12.5 54.6875 
L 29.59375 8.796875 
L 46.6875 54.6875 
L 56.203125 54.6875 
L 35.6875 0 
L 23.484375 0 
z
" id="DejaVuSans-118"/>
       <path d="M 34.28125 27.484375 
Q 23.390625 27.484375 19.1875 25 
Q 14.984375 22.515625 14.984375 16.5 
Q 14.984375 11.71875 18.140625 8.90625 
Q 21.296875 6.109375 26.703125 6.109375 
Q 34.1875 6.109375 38.703125 11.40625 
Q 43.21875 16.703125 43.21875 25.484375 
L 43.21875 27.484375 
z
M 52.203125 31.203125 
L 52.203125 0 
L 43.21875 0 
L 43.21875 8.296875 
Q 40.140625 3.328125 35.546875 0.953125 
Q 30.953125 -1.421875 24.3125 -1.421875 
Q 15.921875 -1.421875 10.953125 3.296875 
Q 6 8.015625 6 15.921875 
Q 6 25.140625 12.171875 29.828125 
Q 18.359375 34.515625 30.609375 34.515625 
L 43.21875 34.515625 
L 43.21875 35.40625 
Q 43.21875 41.609375 39.140625 45 
Q 35.0625 48.390625 27.6875 48.390625 
Q 23 48.390625 18.546875 47.265625 
Q 14.109375 46.140625 10.015625 43.890625 
L 10.015625 52.203125 
Q 14.9375 54.109375 19.578125 55.046875 
Q 24.21875 56 28.609375 56 
Q 40.484375 56 46.34375 49.84375 
Q 52.203125 43.703125 52.203125 31.203125 
z
" id="DejaVuSans-97"/>
       <path d="M 44.28125 53.078125 
L 44.28125 44.578125 
Q 40.484375 46.53125 36.375 47.5 
Q 32.28125 48.484375 27.875 48.484375 
Q 21.1875 48.484375 17.84375 46.4375 
Q 14.5 44.390625 14.5 40.28125 
Q 14.5 37.15625 16.890625 35.375 
Q 19.28125 33.59375 26.515625 31.984375 
L 29.59375 31.296875 
Q 39.15625 29.25 43.1875 25.515625 
Q 47.21875 21.78125 47.21875 15.09375 
Q 47.21875 7.46875 41.1875 3.015625 
Q 35.15625 -1.421875 24.609375 -1.421875 
Q 20.21875 -1.421875 15.453125 -0.5625 
Q 10.6875 0.296875 5.421875 2 
L 5.421875 11.28125 
Q 10.40625 8.6875 15.234375 7.390625 
Q 20.0625 6.109375 24.8125 6.109375 
Q 31.15625 6.109375 34.5625 8.28125 
Q 37.984375 10.453125 37.984375 14.40625 
Q 37.984375 18.0625 35.515625 20.015625 
Q 33.0625 21.96875 24.703125 23.78125 
L 21.578125 24.515625 
Q 13.234375 26.265625 9.515625 29.90625 
Q 5.8125 33.546875 5.8125 39.890625 
Q 5.8125 47.609375 11.28125 51.796875 
Q 16.75 56 26.8125 56 
Q 31.78125 56 36.171875 55.265625 
Q 40.578125 54.546875 44.28125 53.078125 
z
" id="DejaVuSans-115"/>
       <path d="M 25.390625 72.90625 
L 33.6875 72.90625 
L 8.296875 -9.28125 
L 0 -9.28125 
z
" id="DejaVuSans-47"/>
       <path d="M 45.40625 46.390625 
L 45.40625 75.984375 
L 54.390625 75.984375 
L 54.390625 0 
L 45.40625 0 
L 45.40625 8.203125 
Q 42.578125 3.328125 38.25 0.953125 
Q 33.9375 -1.421875 27.875 -1.421875 
Q 17.96875 -1.421875 11.734375 6.484375 
Q 5.515625 14.40625 5.515625 27.296875 
Q 5.515625 40.1875 11.734375 48.09375 
Q 17.96875 56 27.875 56 
Q 33.9375 56 38.25 53.625 
Q 42.578125 51.265625 45.40625 46.390625 
z
M 14.796875 27.296875 
Q 14.796875 17.390625 18.875 11.75 
Q 22.953125 6.109375 30.078125 6.109375 
Q 37.203125 6.109375 41.296875 11.75 
Q 45.40625 17.390625 45.40625 27.296875 
Q 45.40625 37.203125 41.296875 42.84375 
Q 37.203125 48.484375 30.078125 48.484375 
Q 22.953125 48.484375 18.875 42.84375 
Q 14.796875 37.203125 14.796875 27.296875 
z
" id="DejaVuSans-100"/>
       <path d="M 9.421875 54.6875 
L 18.40625 54.6875 
L 18.40625 0 
L 9.421875 0 
z
M 9.421875 75.984375 
L 18.40625 75.984375 
L 18.40625 64.59375 
L 9.421875 64.59375 
z
" id="DejaVuSans-105"/>
       <path d="M 52 44.1875 
Q 55.375 50.25 60.0625 53.125 
Q 64.75 56 71.09375 56 
Q 79.640625 56 84.28125 50.015625 
Q 88.921875 44.046875 88.921875 33.015625 
L 88.921875 0 
L 79.890625 0 
L 79.890625 32.71875 
Q 79.890625 40.578125 77.09375 44.375 
Q 74.3125 48.1875 68.609375 48.1875 
Q 61.625 48.1875 57.5625 43.546875 
Q 53.515625 38.921875 53.515625 30.90625 
L 53.515625 0 
L 44.484375 0 
L 44.484375 32.71875 
Q 44.484375 40.625 41.703125 44.40625 
Q 38.921875 48.1875 33.109375 48.1875 
Q 26.21875 48.1875 22.15625 43.53125 
Q 18.109375 38.875 18.109375 30.90625 
L 18.109375 0 
L 9.078125 0 
L 9.078125 54.6875 
L 18.109375 54.6875 
L 18.109375 46.1875 
Q 21.1875 51.21875 25.484375 53.609375 
Q 29.78125 56 35.6875 56 
Q 41.65625 56 45.828125 52.96875 
Q 50 49.953125 52 44.1875 
z
" id="DejaVuSans-109"/>
       <path d="M 54.890625 33.015625 
L 54.890625 0 
L 45.90625 0 
L 45.90625 32.71875 
Q 45.90625 40.484375 42.875 44.328125 
Q 39.84375 48.1875 33.796875 48.1875 
Q 26.515625 48.1875 22.3125 43.546875 
Q 18.109375 38.921875 18.109375 30.90625 
L 18.109375 0 
L 9.078125 0 
L 9.078125 54.6875 
L 18.109375 54.6875 
L 18.109375 46.1875 
Q 21.34375 51.125 25.703125 53.5625 
Q 30.078125 56 35.796875 56 
Q 45.21875 56 50.046875 50.171875 
Q 54.890625 44.34375 54.890625 33.015625 
z
" id="DejaVuSans-110"/>
      </defs>
      <use xlink:href="#DejaVuSans-108"/>
      <use x="27.783203" xlink:href="#DejaVuSans-111"/>
      <use x="88.964844" xlink:href="#DejaVuSans-103"/>
      <use x="152.441406" xlink:href="#DejaVuSans-49"/>
      <use x="216.064453" xlink:href="#DejaVuSans-48"/>
      <use x="279.6875" xlink:href="#DejaVuSans-40"/>
      <use x="318.701172" xlink:href="#DejaVuSans-35"/>
      <use x="402.490234" xlink:href="#DejaVuSans-32"/>
      <use x="434.277344" xlink:href="#DejaVuSans-40"/>
      <use x="473.291016" xlink:href="#DejaVuSans-102"/>
      <use x="508.496094" xlink:href="#DejaVuSans-43"/>
      <use x="592.285156" xlink:href="#DejaVuSans-103"/>
      <use x="655.761719" xlink:href="#DejaVuSans-41"/>
      <use x="694.775391" xlink:href="#DejaVuSans-45"/>
      <use x="730.859375" xlink:href="#DejaVuSans-101"/>
      <use x="792.382812" xlink:href="#DejaVuSans-118"/>
      <use x="851.5625" xlink:href="#DejaVuSans-97"/>
      <use x="912.841797" xlink:href="#DejaVuSans-108"/>
      <use x="940.625" xlink:href="#DejaVuSans-115"/>
      <use x="992.724609" xlink:href="#DejaVuSans-32"/>
      <use x="1024.511719" xlink:href="#DejaVuSans-47"/>
      <use x="1058.203125" xlink:href="#DejaVuSans-32"/>
      <use x="1089.990234" xlink:href="#DejaVuSans-100"/>
      <use x="1153.466797" xlink:href="#DejaVuSans-105"/>
      <use x="1181.25" xlink:href="#DejaVuSans-109"/>
      <use x="1278.662109" xlink:href="#DejaVuSans-101"/>
      <use x="1340.185547" xlink:href="#DejaVuSans-110"/>
      <use x="1403.564453" xlink:href="#DejaVuSans-115"/>
      <use x="1455.664062" xlink:href="#DejaVuSans-105"/>
      <use x="1483.447266" xlink:href="#DejaVuSans-111"/>
      <use x="1544.628906" xlink:href="#DejaVuSans-110"/>
      <use x="1608.007812" xlink:href="#DejaVuSans-41"/>
     </g>
    </g>
   </g>
   <g id="matplotlib.axis_2">
    <g id="ytick_1">
     <g id="line2d_17">
      <path clip-path="url(#p09f60974d8)" d="M 57.6 298.944 
L 338.688 298.944 
" style="fill:none;stroke:#b0b0b0;stroke-linecap:square;stroke-width:0.8;"/>
     </g>
     <g id="line2d_18">
      <defs>
       <path d="M 0 0 
L -3.5 0 
" id="mcbbc55872c" style="stroke:#000000;stroke-width:0.8;"/>
      </defs>
      <g>
       <use style="stroke:#000000;stroke-width:0.8;" x="57.6" xlink:href="#mcbbc55872c" y="298.944"/>
      </g>
     </g>
     <g id="text_6">
      <!-- 0.0 -->
      <g transform="translate(25.155 305.02275)scale(0.16 -0.16)">
       <defs>
        <path d="M 10.6875 12.40625 
L 21 12.40625 
L 21 0 
L 10.6875 0 
z
" id="DejaVuSans-46"/>
       </defs>
       <use xlink:href="#DejaVuSans-48"/>
       <use x="63.623047" xlink:href="#DejaVuSans-46"/>
       <use x="95.410156" xlink:href="#DejaVuSans-48"/>
      </g>
     </g>
    </g>
    <g id="ytick_2">
     <g id="line2d_19">
      <path clip-path="url(#p09f60974d8)" d="M 57.6 240.431525 
L 338.688 240.431525 
" style="fill:none;stroke:#b0b0b0;stroke-linecap:square;stroke-width:0.8;"/>
     </g>
     <g id="line2d_20">
      <g>
       <use style="stroke:#000000;stroke-width:0.8;" x="57.6" xlink:href="#mcbbc55872c" y="240.431525"/>
      </g>
     </g>
     <g id="text_7">
      <!-- 0.2 -->
      <g transform="translate(25.155 246.510275)scale(0.16 -0.16)">
       <use xlink:href="#DejaVuSans-48"/>
       <use x="63.623047" xlink:href="#DejaVuSans-46"/>
       <use x="95.410156" xlink:href="#DejaVuSans-50"/>
      </g>
     </g>
    </g>
    <g id="ytick_3">
     <g id="line2d_21">
      <path clip-path="url(#p09f60974d8)" d="M 57.6 181.91905 
L 338.688 181.91905 
" style="fill:none;stroke:#b0b0b0;stroke-linecap:square;stroke-width:0.8;"/>
     </g>
     <g id="line2d_22">
      <g>
       <use style="stroke:#000000;stroke-width:0.8;" x="57.6" xlink:href="#mcbbc55872c" y="181.91905"/>
      </g>
     </g>
     <g id="text_8">
      <!-- 0.4 -->
      <g transform="translate(25.155 187.9978)scale(0.16 -0.16)">
       <use xlink:href="#DejaVuSans-48"/>
       <use x="63.623047" xlink:href="#DejaVuSans-46"/>
       <use x="95.410156" xlink:href="#DejaVuSans-52"/>
      </g>
     </g>
    </g>
    <g id="ytick_4">
     <g id="line2d_23">
      <path clip-path="url(#p09f60974d8)" d="M 57.6 123.406574 
L 338.688 123.406574 
" style="fill:none;stroke:#b0b0b0;stroke-linecap:square;stroke-width:0.8;"/>
     </g>
     <g id="line2d_24">
      <g>
       <use style="stroke:#000000;stroke-width:0.8;" x="57.6" xlink:href="#mcbbc55872c" y="123.406574"/>
      </g>
     </g>
     <g id="text_9">
      <!-- 0.6 -->
      <g transform="translate(25.155 129.485324)scale(0.16 -0.16)">
       <use xlink:href="#DejaVuSans-48"/>
       <use x="63.623047" xlink:href="#DejaVuSans-46"/>
       <use x="95.410156" xlink:href="#DejaVuSans-54"/>
      </g>
     </g>
    </g>
    <g id="ytick_5">
     <g id="line2d_25">
      <path clip-path="url(#p09f60974d8)" d="M 57.6 64.894099 
L 338.688 64.894099 
" style="fill:none;stroke:#b0b0b0;stroke-linecap:square;stroke-width:0.8;"/>
     </g>
     <g id="line2d_26">
      <g>
       <use style="stroke:#000000;stroke-width:0.8;" x="57.6" xlink:href="#mcbbc55872c" y="64.894099"/>
      </g>
     </g>
     <g id="text_10">
      <!-- 0.8 -->
      <g transform="translate(25.155 70.972849)scale(0.16 -0.16)">
       <defs>
        <path d="M 31.78125 34.625 
Q 24.75 34.625 20.71875 30.859375 
Q 16.703125 27.09375 16.703125 20.515625 
Q 16.703125 13.921875 20.71875 10.15625 
Q 24.75 6.390625 31.78125 6.390625 
Q 38.8125 6.390625 42.859375 10.171875 
Q 46.921875 13.96875 46.921875 20.515625 
Q 46.921875 27.09375 42.890625 30.859375 
Q 38.875 34.625 31.78125 34.625 
z
M 21.921875 38.8125 
Q 15.578125 40.375 12.03125 44.71875 
Q 8.5 49.078125 8.5 55.328125 
Q 8.5 64.0625 14.71875 69.140625 
Q 20.953125 74.21875 31.78125 74.21875 
Q 42.671875 74.21875 48.875 69.140625 
Q 55.078125 64.0625 55.078125 55.328125 
Q 55.078125 49.078125 51.53125 44.71875 
Q 48 40.375 41.703125 38.8125 
Q 48.828125 37.15625 52.796875 32.3125 
Q 56.78125 27.484375 56.78125 20.515625 
Q 56.78125 9.90625 50.3125 4.234375 
Q 43.84375 -1.421875 31.78125 -1.421875 
Q 19.734375 -1.421875 13.25 4.234375 
Q 6.78125 9.90625 6.78125 20.515625 
Q 6.78125 27.484375 10.78125 32.3125 
Q 14.796875 37.15625 21.921875 38.8125 
z
M 18.3125 54.390625 
Q 18.3125 48.734375 21.84375 45.5625 
Q 25.390625 42.390625 31.78125 42.390625 
Q 38.140625 42.390625 41.71875 45.5625 
Q 45.3125 48.734375 45.3125 54.390625 
Q 45.3125 60.0625 41.71875 63.234375 
Q 38.140625 66.40625 31.78125 66.40625 
Q 25.390625 66.40625 21.84375 63.234375 
Q 18.3125 60.0625 18.3125 54.390625 
z
" id="DejaVuSans-56"/>
       </defs>
       <use xlink:href="#DejaVuSans-48"/>
       <use x="63.623047" xlink:href="#DejaVuSans-46"/>
       <use x="95.410156" xlink:href="#DejaVuSans-56"/>
      </g>
     </g>
    </g>
    <g id="ytick_6">
     <g id="line2d_27">
      <path clip-path="url(#p09f60974d8)" d="M 57.6 6.381624 
L 338.688 6.381624 
" style="fill:none;stroke:#b0b0b0;stroke-linecap:square;stroke-width:0.8;"/>
     </g>
     <g id="line2d_28">
      <g>
       <use style="stroke:#000000;stroke-width:0.8;" x="57.6" xlink:href="#mcbbc55872c" y="6.381624"/>
      </g>
     </g>
     <g id="text_11">
      <!-- 1.0 -->
      <g transform="translate(25.155 12.460374)scale(0.16 -0.16)">
       <use xlink:href="#DejaVuSans-49"/>
       <use x="63.623047" xlink:href="#DejaVuSans-46"/>
       <use x="95.410156" xlink:href="#DejaVuSans-48"/>
      </g>
     </g>
    </g>
    <g id="text_12">
     <!-- Fraction of function,target pairs -->
     <g transform="translate(17.619531 285.585)rotate(-90)scale(0.17 -0.17)">
      <defs>
       <path d="M 9.8125 72.90625 
L 51.703125 72.90625 
L 51.703125 64.59375 
L 19.671875 64.59375 
L 19.671875 43.109375 
L 48.578125 43.109375 
L 48.578125 34.8125 
L 19.671875 34.8125 
L 19.671875 0 
L 9.8125 0 
z
" id="DejaVuSans-70"/>
       <path d="M 41.109375 46.296875 
Q 39.59375 47.171875 37.8125 47.578125 
Q 36.03125 48 33.890625 48 
Q 26.265625 48 22.1875 43.046875 
Q 18.109375 38.09375 18.109375 28.8125 
L 18.109375 0 
L 9.078125 0 
L 9.078125 54.6875 
L 18.109375 54.6875 
L 18.109375 46.1875 
Q 20.953125 51.171875 25.484375 53.578125 
Q 30.03125 56 36.53125 56 
Q 37.453125 56 38.578125 55.875 
Q 39.703125 55.765625 41.0625 55.515625 
z
" id="DejaVuSans-114"/>
       <path d="M 48.78125 52.59375 
L 48.78125 44.1875 
Q 44.96875 46.296875 41.140625 47.34375 
Q 37.3125 48.390625 33.40625 48.390625 
Q 24.65625 48.390625 19.8125 42.84375 
Q 14.984375 37.3125 14.984375 27.296875 
Q 14.984375 17.28125 19.8125 11.734375 
Q 24.65625 6.203125 33.40625 6.203125 
Q 37.3125 6.203125 41.140625 7.25 
Q 44.96875 8.296875 48.78125 10.40625 
L 48.78125 2.09375 
Q 45.015625 0.34375 40.984375 -0.53125 
Q 36.96875 -1.421875 32.421875 -1.421875 
Q 20.0625 -1.421875 12.78125 6.34375 
Q 5.515625 14.109375 5.515625 27.296875 
Q 5.515625 40.671875 12.859375 48.328125 
Q 20.21875 56 33.015625 56 
Q 37.15625 56 41.109375 55.140625 
Q 45.0625 54.296875 48.78125 52.59375 
z
" id="DejaVuSans-99"/>
       <path d="M 18.3125 70.21875 
L 18.3125 54.6875 
L 36.8125 54.6875 
L 36.8125 47.703125 
L 18.3125 47.703125 
L 18.3125 18.015625 
Q 18.3125 11.328125 20.140625 9.421875 
Q 21.96875 7.515625 27.59375 7.515625 
L 36.8125 7.515625 
L 36.8125 0 
L 27.59375 0 
Q 17.1875 0 13.234375 3.875 
Q 9.28125 7.765625 9.28125 18.015625 
L 9.28125 47.703125 
L 2.6875 47.703125 
L 2.6875 54.6875 
L 9.28125 54.6875 
L 9.28125 70.21875 
z
" id="DejaVuSans-116"/>
       <path d="M 8.5 21.578125 
L 8.5 54.6875 
L 17.484375 54.6875 
L 17.484375 21.921875 
Q 17.484375 14.15625 20.5 10.265625 
Q 23.53125 6.390625 29.59375 6.390625 
Q 36.859375 6.390625 41.078125 11.03125 
Q 45.3125 15.671875 45.3125 23.6875 
L 45.3125 54.6875 
L 54.296875 54.6875 
L 54.296875 0 
L 45.3125 0 
L 45.3125 8.40625 
Q 42.046875 3.421875 37.71875 1 
Q 33.40625 -1.421875 27.6875 -1.421875 
Q 18.265625 -1.421875 13.375 4.4375 
Q 8.5 10.296875 8.5 21.578125 
z
M 31.109375 56 
z
" id="DejaVuSans-117"/>
       <path d="M 11.71875 12.40625 
L 22.015625 12.40625 
L 22.015625 4 
L 14.015625 -11.625 
L 7.71875 -11.625 
L 11.71875 4 
z
" id="DejaVuSans-44"/>
       <path d="M 18.109375 8.203125 
L 18.109375 -20.796875 
L 9.078125 -20.796875 
L 9.078125 54.6875 
L 18.109375 54.6875 
L 18.109375 46.390625 
Q 20.953125 51.265625 25.265625 53.625 
Q 29.59375 56 35.59375 56 
Q 45.5625 56 51.78125 48.09375 
Q 58.015625 40.1875 58.015625 27.296875 
Q 58.015625 14.40625 51.78125 6.484375 
Q 45.5625 -1.421875 35.59375 -1.421875 
Q 29.59375 -1.421875 25.265625 0.953125 
Q 20.953125 3.328125 18.109375 8.203125 
z
M 48.6875 27.296875 
Q 48.6875 37.203125 44.609375 42.84375 
Q 40.53125 48.484375 33.40625 48.484375 
Q 26.265625 48.484375 22.1875 42.84375 
Q 18.109375 37.203125 18.109375 27.296875 
Q 18.109375 17.390625 22.1875 11.75 
Q 26.265625 6.109375 33.40625 6.109375 
Q 40.53125 6.109375 44.609375 11.75 
Q 48.6875 17.390625 48.6875 27.296875 
z
" id="DejaVuSans-112"/>
      </defs>
      <use xlink:href="#DejaVuSans-70"/>
      <use x="50.269531" xlink:href="#DejaVuSans-114"/>
      <use x="91.382812" xlink:href="#DejaVuSans-97"/>
      <use x="152.662109" xlink:href="#DejaVuSans-99"/>
      <use x="207.642578" xlink:href="#DejaVuSans-116"/>
      <use x="246.851562" xlink:href="#DejaVuSans-105"/>
      <use x="274.634766" xlink:href="#DejaVuSans-111"/>
      <use x="335.816406" xlink:href="#DejaVuSans-110"/>
      <use x="399.195312" xlink:href="#DejaVuSans-32"/>
      <use x="430.982422" xlink:href="#DejaVuSans-111"/>
      <use x="492.164062" xlink:href="#DejaVuSans-102"/>
      <use x="527.369141" xlink:href="#DejaVuSans-32"/>
      <use x="559.15625" xlink:href="#DejaVuSans-102"/>
      <use x="594.361328" xlink:href="#DejaVuSans-117"/>
      <use x="657.740234" xlink:href="#DejaVuSans-110"/>
      <use x="721.119141" xlink:href="#DejaVuSans-99"/>
      <use x="776.099609" xlink:href="#DejaVuSans-116"/>
      <use x="815.308594" xlink:href="#DejaVuSans-105"/>
      <use x="843.091797" xlink:href="#DejaVuSans-111"/>
      <use x="904.273438" xlink:href="#DejaVuSans-110"/>
      <use x="967.652344" xlink:href="#DejaVuSans-44"/>
      <use x="999.439453" xlink:href="#DejaVuSans-116"/>
      <use x="1038.648438" xlink:href="#DejaVuSans-97"/>
      <use x="1099.927734" xlink:href="#DejaVuSans-114"/>
      <use x="1139.291016" xlink:href="#DejaVuSans-103"/>
      <use x="1202.767578" xlink:href="#DejaVuSans-101"/>
      <use x="1264.291016" xlink:href="#DejaVuSans-116"/>
      <use x="1303.5" xlink:href="#DejaVuSans-32"/>
      <use x="1335.287109" xlink:href="#DejaVuSans-112"/>
      <use x="1398.763672" xlink:href="#DejaVuSans-97"/>
      <use x="1460.042969" xlink:href="#DejaVuSans-105"/>
      <use x="1487.826172" xlink:href="#DejaVuSans-114"/>
      <use x="1528.939453" xlink:href="#DejaVuSans-115"/>
     </g>
    </g>
   </g>
   <g id="line2d_29">
    <defs>
     <path d="M 0 1.5 
C 0.397805 1.5 0.77937 1.341951 1.06066 1.06066 
C 1.341951 0.77937 1.5 0.397805 1.5 0 
C 1.5 -0.397805 1.341951 -0.77937 1.06066 -1.06066 
C 0.77937 -1.341951 0.397805 -1.5 0 -1.5 
C -0.397805 -1.5 -0.77937 -1.341951 -1.06066 -1.06066 
C -1.341951 -0.77937 -1.5 -0.397805 -1.5 0 
C -1.5 0.397805 -1.341951 0.77937 -1.06066 1.06066 
C -0.77937 1.341951 -0.397805 1.5 0 1.5 
z
" id="m237cd5bbbf" style="stroke:#000080;"/>
    </defs>
    <g>
     <use style="fill:#000080;stroke:#000080;" x="236.579089" xlink:href="#m237cd5bbbf" y="241.858658"/>
     <use style="fill:#000080;stroke:#000080;" x="236.579089" xlink:href="#m237cd5bbbf" y="241.858658"/>
    </g>
   </g>
   <g id="line2d_30">
    <path d="M 29.53256 298.944 
L 29.53256 298.468289 
L 41.620548 298.468289 
L 41.620548 298.349361 
L 53.708537 298.349361 
L 53.708537 298.111505 
L 60.779557 298.111505 
L 60.779557 297.87365 
L 75.555822 297.87365 
L 75.555822 297.754722 
L 77.884514 297.754722 
L 77.884514 297.635794 
L 83.438118 297.635794 
L 83.438118 297.397939 
L 86.351421 297.397939 
L 86.351421 297.279011 
L 87.643811 297.279011 
L 87.643811 297.160083 
L 89.972502 297.160083 
L 89.972502 297.041155 
L 95.526106 297.041155 
L 95.526106 296.922227 
L 102.060491 296.922227 
L 102.060491 296.8033 
L 104.114542 296.8033 
L 104.114542 296.565444 
L 104.592361 296.565444 
L 104.592361 296.446516 
L 108.006005 296.446516 
L 108.006005 296.208661 
L 109.491096 296.208661 
L 109.491096 296.089733 
L 111.185562 296.089733 
L 111.185562 295.970805 
L 112.431755 295.970805 
L 112.431755 295.614022 
L 113.873839 295.614022 
L 113.873839 295.495094 
L 114.148479 295.495094 
L 114.148479 295.376166 
L 114.418861 295.376166 
L 114.418861 295.019383 
L 114.947365 295.019383 
L 114.947365 294.900455 
L 115.958621 294.900455 
L 115.958621 294.781527 
L 116.202531 294.781527 
L 116.202531 293.711177 
L 116.680349 293.711177 
L 116.680349 293.354394 
L 116.914437 293.354394 
L 116.914437 293.235466 
L 118.256582 293.235466 
L 118.256582 292.878682 
L 118.890808 292.878682 
L 118.890808 292.759755 
L 119.097192 292.759755 
L 119.097192 292.640827 
L 119.89914 292.640827 
L 119.89914 292.521899 
L 120.093994 292.521899 
L 120.093994 292.284043 
L 121.219499 292.284043 
L 121.219499 292.165116 
L 121.579085 292.165116 
L 121.579085 292.046188 
L 121.756135 292.046188 
L 121.756135 291.808332 
L 122.104932 291.808332 
L 122.104932 291.689404 
L 122.276749 291.689404 
L 122.276749 291.570477 
L 123.273551 291.570477 
L 123.273551 291.451549 
L 123.751369 291.451549 
L 123.751369 291.213693 
L 124.062793 291.213693 
L 124.062793 291.094766 
L 124.669438 291.094766 
L 124.669438 290.975838 
L 125.399222 290.975838 
L 125.399222 290.737982 
L 125.822869 290.737982 
L 125.822869 290.619054 
L 125.961828 290.619054 
L 125.961828 290.143343 
L 126.099688 290.143343 
L 126.099688 290.024415 
L 126.236468 290.024415 
L 126.236468 289.905488 
L 126.640485 289.905488 
L 126.640485 289.667632 
L 126.773103 289.667632 
L 126.773103 289.429776 
L 127.421479 289.429776 
L 127.421479 289.310849 
L 128.046609 289.310849 
L 128.046609 289.191921 
L 128.290519 289.191921 
L 128.290519 289.072993 
L 128.411207 289.072993 
L 128.411207 288.954065 
L 128.768338 288.954065 
L 128.768338 288.835137 
L 129.233413 288.835137 
L 129.233413 288.71621 
L 129.347769 288.71621 
L 129.347769 288.597282 
L 129.46138 288.597282 
L 129.46138 287.645859 
L 129.686407 287.645859 
L 129.686407 287.526932 
L 129.79784 287.526932 
L 129.79784 287.289076 
L 130.127931 287.289076 
L 130.127931 287.170148 
L 130.344571 287.170148 
L 130.344571 287.05122 
L 131.082294 287.05122 
L 131.082294 286.932293 
L 131.389151 286.932293 
L 131.490249 286.694437 
L 131.987128 286.694437 
L 131.987128 286.456582 
L 132.181982 286.456582 
L 132.181982 286.337654 
L 132.659801 286.337654 
L 132.753813 286.099798 
L 133.032848 286.099798 
L 133.032848 285.861943 
L 133.216421 285.861943 
L 133.216421 285.743015 
L 133.398082 285.743015 
L 133.398082 285.624087 
L 134.703375 285.624087 
L 134.703375 285.505159 
L 134.870259 285.505159 
L 134.870259 285.386231 
L 135.117629 285.386231 
L 135.117629 285.267304 
L 135.361539 285.267304 
L 135.361539 285.029448 
L 135.522271 285.029448 
L 135.522271 284.91052 
L 135.760625 284.91052 
L 135.760625 284.791592 
L 136.073445 284.791592 
L 136.073445 284.672665 
L 136.380754 284.672665 
L 136.456742 284.434809 
L 136.831795 284.434809 
L 136.831795 284.315881 
L 136.979586 284.315881 
L 136.979586 284.196953 
L 137.198951 284.196953 
L 137.198951 284.078026 
L 137.415591 284.078026 
L 137.415591 283.959098 
L 138.049816 283.959098 
L 138.118883 283.602314 
L 138.324456 283.602314 
L 138.324456 283.483387 
L 138.661784 283.483387 
L 138.661784 283.364459 
L 138.99271 283.364459 
L 138.99271 283.126603 
L 139.253002 283.126603 
L 139.253002 283.007675 
L 139.572998 283.007675 
L 139.572998 282.888748 
L 139.762215 282.888748 
L 139.762215 282.76982 
L 139.887228 282.76982 
L 139.887228 282.650892 
L 140.317849 282.650892 
L 140.378508 282.056253 
L 141.435758 282.056253 
L 141.435758 281.937325 
L 141.662245 281.937325 
L 141.662245 281.818397 
L 142.051655 281.818397 
L 142.051655 281.69947 
L 142.215919 281.69947 
L 142.215919 281.580542 
L 142.432559 281.580542 
L 142.486301 281.223759 
L 142.910378 281.223759 
L 142.962669 280.985903 
L 143.628567 280.985903 
L 143.628567 280.748047 
L 143.87806 280.748047 
L 143.87806 280.62912 
L 144.075117 280.62912 
L 144.075117 280.391264 
L 144.221461 280.391264 
L 144.221461 280.272336 
L 144.653267 280.272336 
L 144.653267 280.153408 
L 144.981877 280.153408 
L 144.981877 280.034481 
L 145.531191 280.034481 
L 145.621085 279.677697 
L 146.237689 279.677697 
L 146.237689 279.439842 
L 146.622867 279.439842 
L 146.622867 279.320914 
L 147.082371 279.320914 
L 147.082371 279.201986 
L 147.205618 279.201986 
L 147.205618 278.845203 
L 147.96658 278.845203 
L 147.96658 278.726275 
L 148.468742 278.726275 
L 148.468742 278.607347 
L 149.610898 278.607347 
L 149.610898 278.488419 
L 149.823575 278.488419 
L 149.823575 278.369491 
L 149.963932 278.369491 
L 149.963932 278.250564 
L 150.783149 278.250564 
L 150.783149 278.131636 
L 151.21133 278.131636 
L 151.243836 277.89378 
L 151.565603 277.89378 
L 151.565603 277.774852 
L 151.787359 277.774852 
L 151.787359 277.655925 
L 152.130233 277.655925 
L 152.130233 277.536997 
L 152.405838 277.536997 
L 152.466496 277.299141 
L 154.19457 277.299141 
L 154.19457 277.180213 
L 154.439623 277.180213 
L 154.520548 276.942358 
L 155.024532 276.942358 
L 155.024532 276.82343 
L 156.040206 276.82343 
L 156.040206 276.704502 
L 156.538679 276.704502 
L 156.538679 276.585574 
L 157.551454 276.585574 
L 157.551454 276.466647 
L 157.942862 276.466647 
L 157.942862 276.347719 
L 158.293192 276.347719 
L 158.325678 276.109863 
L 158.868869 276.109863 
L 158.868869 275.990936 
L 159.201253 275.990936 
L 159.201253 275.872008 
L 159.936602 275.872008 
L 159.936602 275.75308 
L 160.528149 275.75308 
L 160.547209 275.396297 
L 160.783709 275.396297 
L 160.783709 275.277369 
L 160.952025 275.277369 
L 160.952025 275.158441 
L 161.210663 275.158441 
L 161.210663 275.039513 
L 161.627414 275.039513 
L 161.627414 274.920585 
L 162.02569 274.920585 
L 162.02569 274.801658 
L 162.644595 274.801658 
L 162.644595 274.68273 
L 163.020547 274.68273 
L 163.020547 274.563802 
L 163.299319 274.563802 
L 163.388564 274.088091 
L 163.677486 274.088091 
L 163.677486 273.969163 
L 164.164122 273.969163 
L 164.225937 273.731307 
L 164.645079 273.731307 
L 164.645079 273.61238 
L 164.780093 273.61238 
L 164.817412 273.255596 
L 165.317182 273.255596 
L 165.367825 273.017741 
L 165.561796 273.017741 
L 165.561796 272.898813 
L 166.110335 272.898813 
L 166.193215 272.660957 
L 166.268843 272.660957 
L 166.268843 272.542029 
L 166.527611 272.542029 
L 166.621987 272.304174 
L 166.921925 272.304174 
L 166.954935 272.066318 
L 167.04047 272.066318 
L 167.04047 271.94739 
L 167.164734 271.94739 
L 167.164734 271.828463 
L 167.333356 271.828463 
L 167.333356 271.709535 
L 167.449146 271.709535 
L 167.449146 271.590607 
L 167.615054 271.590607 
L 167.678446 271.233824 
L 167.911015 271.233824 
L 167.991998 270.995968 
L 168.183606 270.995968 
L 168.251094 270.758113 
L 168.42171 270.758113 
L 168.42171 270.639185 
L 169.27373 270.639185 
L 169.27373 270.520257 
L 169.819463 270.520257 
L 169.925477 270.163474 
L 169.98656 270.163474 
L 169.98656 270.044546 
L 170.510761 270.044546 
L 170.510761 269.925618 
L 170.655397 269.925618 
L 170.671394 269.687762 
L 170.920115 269.687762 
L 170.920115 269.449907 
L 171.129034 269.449907 
L 171.232562 269.093123 
L 171.27895 269.093123 
L 171.27895 268.974196 
L 171.483639 268.974196 
L 171.483639 268.855268 
L 171.731152 268.855268 
L 171.731152 268.73634 
L 171.955406 268.73634 
L 172.014724 268.379557 
L 172.068921 268.379557 
L 172.093501 268.022773 
L 172.230511 268.022773 
L 172.230511 267.903845 
L 172.530112 267.903845 
L 172.573178 267.66599 
L 173.24815 267.66599 
L 173.257343 267.428134 
L 173.417442 267.428134 
L 173.417442 267.309206 
L 173.585107 267.309206 
L 173.585107 267.190279 
L 174.13554 267.190279 
L 174.214017 266.833495 
L 174.7916 266.833495 
L 174.7916 266.714567 
L 175.34659 266.714567 
L 175.34659 266.59564 
L 175.693692 266.59564 
L 175.693692 266.476712 
L 176.482793 266.476712 
L 176.551406 266.238856 
L 176.725536 266.238856 
L 176.725536 266.119929 
L 176.860608 266.119929 
L 176.860608 266.001001 
L 177.039093 266.001001 
L 177.039093 265.882073 
L 177.171768 265.882073 
L 177.171768 265.763145 
L 177.32529 265.763145 
L 177.426892 265.52529 
L 177.437743 265.52529 
L 177.437743 265.406362 
L 177.745967 265.406362 
L 177.785001 265.168506 
L 177.869864 265.168506 
L 177.869864 265.049578 
L 178.122002 265.049578 
L 178.187935 264.811723 
L 178.325932 264.811723 
L 178.332804 264.573867 
L 178.645991 264.573867 
L 178.645991 264.454939 
L 179.25598 264.454939 
L 179.25598 264.336012 
L 179.942718 264.336012 
L 179.942718 264.217084 
L 180.055109 264.217084 
L 180.132734 263.979228 
L 180.271595 263.979228 
L 180.326831 263.741373 
L 180.503634 263.741373 
L 180.503634 263.622445 
L 180.831127 263.622445 
L 180.831127 263.503517 
L 181.263273 263.503517 
L 181.263273 263.384589 
L 181.379034 263.384589 
L 181.379034 263.265661 
L 181.913047 263.265661 
L 181.974482 263.027806 
L 182.113309 263.027806 
L 182.212584 262.78995 
L 182.823224 262.78995 
L 182.823224 262.671022 
L 183.71097 262.671022 
L 183.71097 262.552095 
L 184.038443 262.552095 
L 184.038443 262.433167 
L 184.286789 262.433167 
L 184.296552 262.195311 
L 184.406012 262.195311 
L 184.406012 262.076383 
L 184.534056 262.076383 
L 184.534056 261.957456 
L 184.973775 261.957456 
L 184.973775 261.838528 
L 185.546363 261.838528 
L 185.546363 261.7196 
L 186.15128 261.7196 
L 186.188536 261.481745 
L 186.457908 261.481745 
L 186.457908 261.362817 
L 186.646581 261.362817 
L 186.646581 261.243889 
L 186.765592 261.243889 
L 186.765592 261.006033 
L 187.121979 261.006033 
L 187.121979 260.887106 
L 187.524031 260.887106 
L 187.524031 260.768178 
L 187.697558 260.768178 
L 187.697558 260.64925 
L 187.861421 260.64925 
L 187.970473 260.411394 
L 188.419259 260.411394 
L 188.419259 260.292467 
L 188.965407 260.292467 
L 189.065933 259.816755 
L 189.364079 259.816755 
L 189.387785 259.5789 
L 189.641057 259.5789 
L 189.641057 259.459972 
L 189.825072 259.459972 
L 189.825072 259.341044 
L 190.13508 259.341044 
L 190.13508 259.222116 
L 190.260331 259.222116 
L 190.260331 259.103189 
L 190.44139 259.103189 
L 190.491067 258.865333 
L 190.686682 258.865333 
L 190.786195 258.627477 
L 191.255784 258.627477 
L 191.358623 258.270694 
L 191.44629 258.270694 
L 191.44629 258.151766 
L 191.639543 258.151766 
L 191.639543 258.032838 
L 192.291834 258.032838 
L 192.291834 257.913911 
L 192.50954 257.913911 
L 192.594655 257.438199 
L 192.632518 257.438199 
L 192.632518 257.319272 
L 193.364323 257.319272 
L 193.364323 257.200344 
L 193.554776 257.200344 
L 193.624949 256.84356 
L 193.974439 256.84356 
L 193.974439 256.724633 
L 194.111186 256.724633 
L 194.219264 256.486777 
L 194.392449 256.486777 
L 194.392449 256.367849 
L 194.689427 256.367849 
L 194.776607 256.129994 
L 195.03688 256.129994 
L 195.042151 255.892138 
L 195.303713 255.892138 
L 195.303713 255.77321 
L 195.816613 255.77321 
L 195.816613 255.654283 
L 196.432057 255.654283 
L 196.447868 255.416427 
L 197.153062 255.416427 
L 197.224132 255.178571 
L 197.516984 255.178571 
L 197.516984 255.059644 
L 197.675187 255.059644 
L 197.675187 254.940716 
L 197.911511 254.940716 
L 198.018487 254.465005 
L 198.046238 254.465005 
L 198.046238 254.346077 
L 198.215119 254.346077 
L 198.215119 254.227149 
L 198.333352 254.227149 
L 198.333352 254.108221 
L 198.737768 254.108221 
L 198.798427 253.870366 
L 199.209967 253.870366 
L 199.209967 253.751438 
L 199.429579 253.751438 
L 199.429579 253.63251 
L 199.832665 253.63251 
L 199.832665 253.513582 
L 199.962333 253.513582 
L 200.014922 252.918943 
L 200.243276 252.918943 
L 200.243276 252.800015 
L 200.624361 252.800015 
L 200.705494 252.56216 
L 201.04219 252.56216 
L 201.04219 252.443232 
L 201.153921 252.443232 
L 201.153921 252.324304 
L 202.041431 252.324304 
L 202.041431 252.205376 
L 202.559373 252.205376 
L 202.595298 251.967521 
L 202.747585 251.967521 
L 202.811843 251.49181 
L 203.536708 251.49181 
L 203.605387 251.253954 
L 203.6529 251.253954 
L 203.668173 251.016099 
L 204.650014 251.016099 
L 204.650014 250.897171 
L 205.195095 250.897171 
L 205.260489 250.659315 
L 205.309557 250.659315 
L 205.309557 250.540387 
L 205.491438 250.540387 
L 205.514582 250.183604 
L 205.698639 250.183604 
L 205.698639 250.064676 
L 205.921777 250.064676 
L 205.921777 249.945748 
L 206.565028 249.945748 
L 206.654627 249.588965 
L 207.113661 249.588965 
L 207.199837 249.351109 
L 207.633403 249.351109 
L 207.650037 249.113254 
L 208.147426 249.113254 
L 208.147426 248.994326 
L 208.370357 248.994326 
L 208.370357 248.875398 
L 208.518221 248.875398 
L 208.518221 248.75647 
L 208.674492 248.75647 
L 208.674492 248.637543 
L 208.843116 248.637543 
L 208.85983 248.399687 
L 209.162656 248.399687 
L 209.162656 248.280759 
L 209.622114 248.280759 
L 209.622114 248.161831 
L 209.892988 248.161831 
L 209.973212 247.68612 
L 211.056618 247.68612 
L 211.134294 247.448265 
L 211.442098 247.448265 
L 211.442098 247.329337 
L 211.57587 247.329337 
L 211.57587 247.210409 
L 212.031927 247.210409 
L 212.100929 246.972553 
L 212.289165 246.972553 
L 212.367408 246.734698 
L 212.408345 246.734698 
L 212.408345 246.61577 
L 212.53735 246.61577 
L 212.553288 246.377915 
L 212.696557 246.377915 
L 212.696557 246.258987 
L 212.943299 246.258987 
L 212.943299 246.140059 
L 213.536862 246.140059 
L 213.596077 245.902203 
L 214.508525 245.902203 
L 214.508525 245.783276 
L 214.714874 245.783276 
L 214.798263 245.426492 
L 215.388732 245.426492 
L 215.388732 245.307564 
L 215.649371 245.307564 
L 215.649371 245.188637 
L 215.784262 245.188637 
L 215.784262 245.069709 
L 216.638603 245.069709 
L 216.638603 244.950781 
L 217.232953 244.950781 
L 217.232953 244.831853 
L 217.572187 244.831853 
L 217.572187 244.712925 
L 217.830914 244.712925 
L 217.830914 244.593998 
L 217.974778 244.593998 
L 217.974778 244.47507 
L 218.124131 244.47507 
L 218.124131 244.356142 
L 218.263518 244.356142 
L 218.263518 244.237214 
L 218.462107 244.237214 
L 218.462107 244.118286 
L 218.584488 244.118286 
L 218.584488 243.999359 
L 218.79332 243.999359 
L 218.79332 243.880431 
L 219.127303 243.880431 
L 219.127303 243.761503 
L 219.318312 243.761503 
L 219.318312 243.642575 
L 221.661777 243.642575 
L 221.661777 243.523647 
L 222.071832 243.523647 
L 222.071832 243.40472 
L 222.329197 243.40472 
L 222.329197 243.285792 
L 222.473833 243.285792 
L 222.539851 243.047936 
L 223.144343 243.047936 
L 223.144343 242.929008 
L 224.171817 242.929008 
L 224.171817 242.810081 
L 225.796927 242.810081 
L 225.796927 242.691153 
L 226.011559 242.691153 
L 226.011559 242.572225 
L 226.56736 242.572225 
L 226.56736 242.453297 
L 226.690982 242.453297 
L 226.690982 242.334369 
L 233.041921 242.334369 
L 233.041921 242.215442 
L 235.068632 242.215442 
L 235.068632 242.096514 
L 235.853538 242.096514 
L 235.853538 241.977586 
L 236.579089 241.977586 
L 236.579089 241.858658 
L 338.688 241.858658 
L 338.688 241.858658 
" style="fill:none;stroke:#000080;stroke-linecap:square;stroke-width:1.5;"/>
   </g>
   <g id="line2d_31">
    <defs>
     <path d="M 0 6 
C 1.591219 6 3.117479 5.367802 4.242641 4.242641 
C 5.367802 3.117479 6 1.591219 6 0 
C 6 -1.591219 5.367802 -3.117479 4.242641 -4.242641 
C 3.117479 -5.367802 1.591219 -6 0 -6 
C -1.591219 -6 -3.117479 -5.367802 -4.242641 -4.242641 
C -5.367802 -3.117479 -6 -1.591219 -6 0 
C -6 1.591219 -5.367802 3.117479 -4.242641 4.242641 
C -3.117479 5.367802 -1.591219 6 0 6 
z
" id="m833c5c813c" style="stroke:#000080;stroke-width:1.5;"/>
    </defs>
    <g>
     <use style="fill-opacity:0;stroke:#000080;stroke-width:1.5;" x="121.579085" xlink:href="#m833c5c813c" y="292.046188"/>
     <use style="fill-opacity:0;stroke:#000080;stroke-width:1.5;" x="167.333356" xlink:href="#m833c5c813c" y="271.828463"/>
     <use style="fill-opacity:0;stroke:#000080;stroke-width:1.5;" x="202.747585" xlink:href="#m833c5c813c" y="251.967521"/>
     <use style="fill-opacity:0;stroke:#000080;stroke-width:1.5;" x="236.579089" xlink:href="#m833c5c813c" y="241.977586"/>
     <use style="fill-opacity:0;stroke:#000080;stroke-width:1.5;" x="236.579089" xlink:href="#m833c5c813c" y="241.858658"/>
     <use style="fill-opacity:0;stroke:#000080;stroke-width:1.5;" x="338.688" xlink:href="#m833c5c813c" y="241.858658"/>
    </g>
   </g>
   <g id="line2d_32">
    <path style="fill:none;stroke:#000080;stroke-linecap:square;stroke-width:1.5;"/>
    <g/>
   </g>
   <g id="line2d_33">
    <path clip-path="url(#p09f60974d8)" d="M 159.557689 275.872008 
" style="fill:none;stroke:#000080;stroke-linecap:square;stroke-width:1.5;"/>
    <defs>
     <path d="M -12 12 
L 12 -12 
M -12 -12 
L 12 12 
" id="m7bc6c7feb9" style="stroke:#000080;"/>
    </defs>
    <g clip-path="url(#p09f60974d8)">
     <use style="fill:#000080;stroke:#000080;" x="159.557689" xlink:href="#m7bc6c7feb9" y="275.872008"/>
    </g>
   </g>
   <g id="line2d_34">
    <defs>
     <path d="M 0 1.5 
C 0.397805 1.5 0.77937 1.341951 1.06066 1.06066 
C 1.341951 0.77937 1.5 0.397805 1.5 0 
C 1.5 -0.397805 1.341951 -0.77937 1.06066 -1.06066 
C 0.77937 -1.341951 0.397805 -1.5 0 -1.5 
C -0.397805 -1.5 -0.77937 -1.341951 -1.06066 -1.06066 
C -1.341951 -0.77937 -1.5 -0.397805 -1.5 0 
C -1.5 0.397805 -1.341951 0.77937 -1.06066 1.06066 
C -0.77937 1.341951 -0.397805 1.5 0 1.5 
z
" id="m922244d78e" style="stroke:#ff00ff;"/>
    </defs>
    <g>
     <use style="fill:#ff00ff;stroke:#ff00ff;" x="198.558825" xlink:href="#m922244d78e" y="288.240498"/>
     <use style="fill:#ff00ff;stroke:#ff00ff;" x="198.558825" xlink:href="#m922244d78e" y="288.240498"/>
    </g>
   </g>
   <g id="line2d_35">
    <path d="M 29.53256 298.944 
L 29.53256 298.468289 
L 57.6 298.468289 
L 57.6 298.230433 
L 63.467834 298.230433 
L 63.467834 298.111505 
L 71.35013 298.111505 
L 71.35013 297.992578 
L 76.759008 297.992578 
L 76.759008 297.87365 
L 78.941764 297.87365 
L 78.941764 297.635794 
L 82.626842 297.635794 
L 82.626842 297.397939 
L 85.66744 297.397939 
L 85.66744 297.279011 
L 99.41757 297.279011 
L 99.41757 297.160083 
L 109.31223 297.160083 
L 109.31223 297.041155 
L 110.358901 297.041155 
L 110.358901 296.922227 
L 111.023335 296.922227 
L 111.023335 296.8033 
L 111.185562 296.8033 
L 111.185562 296.684372 
L 111.346294 296.684372 
L 111.346294 296.565444 
L 111.505558 296.565444 
L 111.505558 296.446516 
L 111.974805 296.446516 
L 111.974805 296.327589 
L 113.453595 296.327589 
L 113.453595 296.208661 
L 113.594805 296.208661 
L 113.594805 296.089733 
L 113.73488 296.089733 
L 113.73488 295.970805 
L 114.284194 295.970805 
L 114.284194 295.851877 
L 114.552496 295.851877 
L 114.552496 295.73295 
L 120.190611 295.73295 
L 120.190611 295.614022 
L 121.84399 295.614022 
L 121.84399 295.495094 
L 123.111324 295.495094 
L 123.111324 295.376166 
L 123.672636 295.376166 
L 123.672636 295.257238 
L 124.669438 295.257238 
L 124.743806 295.019383 
L 125.892487 295.019383 
L 125.892487 294.900455 
L 127.035353 294.900455 
L 127.035353 294.781527 
L 130.45189 294.781527 
L 130.45189 294.662599 
L 130.822389 294.662599 
L 130.822389 294.543672 
L 131.185181 294.543672 
L 131.185181 294.424744 
L 131.490249 294.424744 
L 131.490249 294.305816 
L 131.640805 294.305816 
L 131.640805 294.186888 
L 135.956794 294.186888 
L 135.956794 294.06796 
L 138.861092 294.06796 
L 138.861092 293.949033 
L 142.831645 293.949033 
L 142.831645 293.711177 
L 143.066785 293.711177 
L 143.066785 293.592249 
L 143.553018 293.592249 
L 143.553018 293.473321 
L 146.280909 293.473321 
L 146.280909 293.354394 
L 147.907696 293.354394 
L 147.907696 293.235466 
L 148.064279 293.235466 
L 148.064279 293.116538 
L 148.411533 293.116538 
L 148.411533 292.99761 
L 148.826773 292.99761 
L 148.826773 292.878682 
L 149.928949 292.878682 
L 149.928949 292.759755 
L 150.292822 292.759755 
L 150.292822 292.640827 
L 151.373256 292.640827 
L 151.373256 292.521899 
L 152.751777 292.521899 
L 152.751777 292.402971 
L 153.423725 292.402971 
L 153.423725 292.284043 
L 153.918189 292.284043 
L 153.918189 292.165116 
L 155.916435 292.165116 
L 155.916435 292.046188 
L 156.370066 292.046188 
L 156.370066 291.92726 
L 157.011638 291.92726 
L 157.011638 291.808332 
L 157.84305 291.808332 
L 157.84305 291.689404 
L 158.826871 291.689404 
L 158.826871 291.570477 
L 159.17036 291.570477 
L 159.201253 291.332621 
L 159.738201 291.332621 
L 159.738201 291.213693 
L 159.926735 291.213693 
L 159.926735 291.094766 
L 160.054568 291.094766 
L 160.054568 290.975838 
L 161.627414 290.975838 
L 161.627414 290.85691 
L 162.38081 290.85691 
L 162.38081 290.737982 
L 163.242288 290.737982 
L 163.242288 290.619054 
L 163.557683 290.619054 
L 163.557683 290.500127 
L 164.554485 290.500127 
L 164.554485 290.381199 
L 166.675688 290.381199 
L 166.749257 290.143343 
L 167.223287 290.143343 
L 167.223287 290.024415 
L 169.070439 290.024415 
L 169.070439 289.905488 
L 170.019789 289.905488 
L 170.019789 289.78656 
L 170.451489 289.78656 
L 170.451489 289.667632 
L 171.945501 289.667632 
L 171.945501 289.548704 
L 172.132757 289.548704 
L 172.132757 289.429776 
L 172.288901 289.429776 
L 172.288901 289.310849 
L 172.630434 289.310849 
L 172.630434 289.191921 
L 173.786875 289.191921 
L 173.786875 289.072993 
L 174.724137 289.072993 
L 174.724137 288.954065 
L 175.440098 288.954065 
L 175.440098 288.835137 
L 176.053603 288.835137 
L 176.053603 288.71621 
L 178.21908 288.71621 
L 178.21908 288.597282 
L 182.04681 288.597282 
L 182.04681 288.478354 
L 186.32157 288.478354 
L 186.32157 288.359426 
L 198.558825 288.359426 
L 198.558825 288.240498 
L 338.688 288.240498 
L 338.688 288.240498 
" style="fill:none;stroke:#ff00ff;stroke-linecap:square;stroke-width:1.5;"/>
   </g>
   <g id="line2d_36">
    <defs>
     <path d="M -0 8.485281 
L 5.091169 0 
L 0 -8.485281 
L -5.091169 -0 
z
" id="mc479753055" style="stroke:#ff00ff;stroke-linejoin:miter;stroke-width:1.5;"/>
    </defs>
    <g>
     <use style="fill-opacity:0;stroke:#ff00ff;stroke-linejoin:miter;stroke-width:1.5;" x="99.41757" xlink:href="#mc479753055" y="297.160083"/>
     <use style="fill-opacity:0;stroke:#ff00ff;stroke-linejoin:miter;stroke-width:1.5;" x="178.21908" xlink:href="#mc479753055" y="288.71621"/>
     <use style="fill-opacity:0;stroke:#ff00ff;stroke-linejoin:miter;stroke-width:1.5;" x="198.558825" xlink:href="#mc479753055" y="288.359426"/>
     <use style="fill-opacity:0;stroke:#ff00ff;stroke-linejoin:miter;stroke-width:1.5;" x="198.558825" xlink:href="#mc479753055" y="288.240498"/>
     <use style="fill-opacity:0;stroke:#ff00ff;stroke-linejoin:miter;stroke-width:1.5;" x="198.558825" xlink:href="#mc479753055" y="288.240498"/>
     <use style="fill-opacity:0;stroke:#ff00ff;stroke-linejoin:miter;stroke-width:1.5;" x="338.688" xlink:href="#mc479753055" y="288.240498"/>
    </g>
   </g>
   <g id="line2d_37">
    <path style="fill:none;stroke:#ff00ff;stroke-linecap:square;stroke-width:1.5;"/>
    <g/>
   </g>
   <g id="line2d_38">
    <path clip-path="url(#p09f60974d8)" d="M 114.947365 295.73295 
" style="fill:none;stroke:#ff00ff;stroke-linecap:square;stroke-width:1.5;"/>
    <defs>
     <path d="M -12 12 
L 12 -12 
M -12 -12 
L 12 12 
" id="mba7ada811e" style="stroke:#ff00ff;"/>
    </defs>
    <g clip-path="url(#p09f60974d8)">
     <use style="fill:#ff00ff;stroke:#ff00ff;" x="114.947365" xlink:href="#mba7ada811e" y="295.73295"/>
    </g>
   </g>
   <g id="line2d_39">
    <defs>
     <path d="M 0 1.5 
C 0.397805 1.5 0.77937 1.341951 1.06066 1.06066 
C 1.341951 0.77937 1.5 0.397805 1.5 0 
C 1.5 -0.397805 1.341951 -0.77937 1.06066 -1.06066 
C 0.77937 -1.341951 0.397805 -1.5 0 -1.5 
C -0.397805 -1.5 -0.77937 -1.341951 -1.06066 -1.06066 
C -1.341951 -0.77937 -1.5 -0.397805 -1.5 0 
C -1.5 0.397805 -1.341951 0.77937 -1.06066 1.06066 
C -0.77937 1.341951 -0.397805 1.5 0 1.5 
z
" id="ma75c9c0078" style="stroke:#ff7500;"/>
    </defs>
    <g>
     <use style="fill:#ff7500;stroke:#ff7500;" x="261.947605" xlink:href="#ma75c9c0078" y="203.801764"/>
     <use style="fill:#ff7500;stroke:#ff7500;" x="261.947605" xlink:href="#ma75c9c0078" y="203.801764"/>
    </g>
   </g>
   <g id="line2d_40">
    <path d="M 29.53256 298.944 
L 29.53256 298.468289 
L 41.620548 298.468289 
L 41.620548 298.349361 
L 107.811151 298.349361 
L 107.811151 298.230433 
L 110.527398 298.230433 
L 110.527398 298.111505 
L 111.505558 298.111505 
L 111.505558 297.992578 
L 114.0117 297.992578 
L 114.0117 297.87365 
L 115.077025 297.87365 
L 115.077025 297.754722 
L 116.443076 297.754722 
L 116.443076 297.516866 
L 117.709852 297.516866 
L 117.709852 297.279011 
L 117.930605 297.279011 
L 117.930605 297.160083 
L 118.148599 297.160083 
L 118.148599 297.041155 
L 118.786692 297.041155 
L 118.786692 296.922227 
L 119.702083 296.922227 
L 119.702083 296.8033 
L 120.665825 296.8033 
L 120.665825 296.684372 
L 122.191052 296.684372 
L 122.191052 296.565444 
L 122.782271 296.565444 
L 122.782271 296.446516 
L 123.111324 296.446516 
L 123.111324 296.327589 
L 123.985457 296.327589 
L 123.985457 296.208661 
L 124.139788 296.208661 
L 124.139788 296.089733 
L 124.292765 296.089733 
L 124.292765 295.970805 
L 124.594752 295.970805 
L 124.594752 295.851877 
L 125.110962 295.851877 
L 125.110962 295.73295 
L 125.541584 295.73295 
L 125.541584 295.614022 
L 126.439646 295.614022 
L 126.439646 295.495094 
L 126.573795 295.495094 
L 126.573795 295.376166 
L 126.839037 295.376166 
L 126.839037 295.257238 
L 127.923363 295.257238 
L 127.923363 295.138311 
L 128.168991 295.138311 
L 128.168991 294.900455 
L 128.290519 294.900455 
L 128.290519 294.662599 
L 128.471239 294.662599 
L 128.471239 294.543672 
L 128.590686 294.543672 
L 128.590686 294.424744 
L 128.827155 294.424744 
L 128.827155 294.305816 
L 129.175952 294.305816 
L 129.175952 294.186888 
L 129.46138 294.186888 
L 129.46138 293.949033 
L 129.908566 293.949033 
L 130.018593 293.473321 
L 130.398313 293.473321 
L 130.505303 293.235466 
L 130.926816 293.235466 
L 130.926816 293.116538 
L 131.690703 293.116538 
L 131.690703 292.878682 
L 132.230358 292.878682 
L 132.230358 292.759755 
L 133.711505 292.759755 
L 133.800029 292.165116 
L 134.149701 292.165116 
L 134.149701 292.046188 
L 134.953107 292.046188 
L 134.953107 291.92726 
L 135.240011 291.92726 
L 135.240011 291.808332 
L 135.401861 291.808332 
L 135.401861 291.689404 
L 135.995765 291.689404 
L 135.995765 291.570477 
L 136.494612 291.570477 
L 136.494612 291.451549 
L 137.198951 291.451549 
L 137.198951 291.213693 
L 137.415591 291.213693 
L 137.48721 290.975838 
L 137.805906 290.975838 
L 137.805906 290.85691 
L 138.324456 290.85691 
L 138.392446 290.500127 
L 138.460171 290.500127 
L 138.460171 290.381199 
L 138.728473 290.381199 
L 138.728473 289.905488 
L 139.02546 289.905488 
L 139.02546 289.78656 
L 139.285267 289.78656 
L 139.285267 289.667632 
L 139.509467 289.667632 
L 139.509467 289.548704 
L 139.69937 289.548704 
L 139.69937 289.429776 
L 139.824833 289.429776 
L 139.824833 288.835137 
L 140.042245 288.835137 
L 140.042245 288.71621 
L 140.165274 288.71621 
L 140.165274 288.597282 
L 140.287441 288.597282 
L 140.287441 288.478354 
L 141.002999 288.478354 
L 141.002999 288.359426 
L 141.119455 288.359426 
L 141.119455 288.240498 
L 141.292695 288.240498 
L 141.350061 287.883715 
L 141.492656 287.883715 
L 141.492656 287.764787 
L 142.297475 287.764787 
L 142.297475 287.526932 
L 142.432559 287.526932 
L 142.432559 287.408004 
L 142.884173 287.408004 
L 142.884173 287.289076 
L 143.092717 287.289076 
L 143.196061 286.575509 
L 143.375453 286.575509 
L 143.47714 285.98087 
L 143.578237 285.98087 
L 143.578237 285.861943 
L 144.318346 285.861943 
L 144.318346 285.743015 
L 144.462672 285.743015 
L 144.510517 285.505159 
L 144.582038 285.505159 
L 144.629556 285.267304 
L 145.02832 285.267304 
L 145.02832 285.148376 
L 145.212864 285.148376 
L 145.304409 284.91052 
L 145.372754 284.91052 
L 145.372754 284.791592 
L 145.688202 284.791592 
L 145.755062 284.553737 
L 145.932112 284.553737 
L 146.019967 284.315881 
L 146.06373 284.315881 
L 146.06373 284.196953 
L 146.345539 284.196953 
L 146.345539 283.84017 
L 146.538004 283.84017 
L 146.580487 283.483387 
L 147.061745 283.483387 
L 147.144103 283.245531 
L 147.287301 283.245531 
L 147.287301 283.007675 
L 147.550159 283.007675 
L 147.550159 282.888748 
L 147.78933 282.888748 
L 147.888024 282.531964 
L 147.927346 282.531964 
L 148.005725 282.294109 
L 148.044783 282.294109 
L 148.044783 282.175181 
L 148.258051 282.175181 
L 148.258051 282.056253 
L 148.695721 282.056253 
L 148.695721 281.937325 
L 149.395596 281.937325 
L 149.395596 281.818397 
L 149.628721 281.818397 
L 149.628721 281.69947 
L 149.788308 281.69947 
L 149.788308 281.580542 
L 150.085825 281.580542 
L 150.085825 281.461614 
L 150.412445 281.461614 
L 150.446473 281.104831 
L 150.699587 281.104831 
L 150.766468 280.866975 
L 150.899466 280.866975 
L 150.899466 280.748047 
L 151.357131 280.748047 
L 151.357131 280.62912 
L 151.660987 280.62912 
L 151.660987 280.510192 
L 151.834513 280.510192 
L 151.834513 280.272336 
L 151.959639 280.272336 
L 151.959639 280.153408 
L 152.191856 280.153408 
L 152.299175 279.915553 
L 152.39064 279.915553 
L 152.451351 279.558769 
L 152.511852 279.558769 
L 152.55709 279.320914 
L 152.707042 279.320914 
L 152.736878 279.083058 
L 152.840905 279.083058 
L 152.840905 278.96413 
L 153.308709 278.96413 
L 153.308709 278.845203 
L 153.722083 278.845203 
L 153.792374 278.607347 
L 154.112115 278.607347 
L 154.139643 278.369491 
L 154.317527 278.369491 
L 154.399019 278.131636 
L 154.547439 278.131636 
L 154.601099 277.89378 
L 154.747816 277.89378 
L 154.85375 277.655925 
L 154.906477 277.655925 
L 154.906477 277.536997 
L 155.050658 277.536997 
L 155.050658 277.418069 
L 155.219531 277.418069 
L 155.219531 277.299141 
L 156.027868 277.299141 
L 156.027868 277.180213 
L 156.150854 277.180213 
L 156.150854 277.061286 
L 157.243392 277.061286 
L 157.243392 276.942358 
L 157.720277 276.942358 
L 157.720277 276.82343 
L 158.217157 276.82343 
L 158.217157 276.704502 
L 158.647247 276.704502 
L 158.742573 276.466647 
L 158.962994 276.466647 
L 158.962994 276.347719 
L 159.098062 276.347719 
L 159.098062 276.228791 
L 159.293606 276.228791 
L 159.303838 275.990936 
L 160.689494 275.990936 
L 160.689494 275.872008 
L 160.933404 275.872008 
L 160.989209 275.515224 
L 161.483584 275.515224 
L 161.546656 275.277369 
L 161.7523 275.277369 
L 161.7523 275.158441 
L 162.812686 275.158441 
L 162.812686 275.039513 
L 162.962595 275.039513 
L 163.070067 274.801658 
L 163.748975 274.801658 
L 163.748975 274.68273 
L 163.883215 274.68273 
L 163.914652 274.444874 
L 164.164122 274.444874 
L 164.210504 274.207019 
L 164.310575 274.207019 
L 164.371873 273.850235 
L 164.425332 273.850235 
L 164.509011 273.61238 
L 164.622474 273.61238 
L 164.622474 273.493452 
L 164.928893 273.493452 
L 165.024937 273.017741 
L 165.178976 273.017741 
L 165.178976 272.898813 
L 165.682828 272.898813 
L 165.682828 272.779885 
L 166.10341 272.779885 
L 166.193215 272.423102 
L 166.309958 272.423102 
L 166.378267 272.066318 
L 166.621987 272.066318 
L 166.621987 271.94739 
L 166.795913 271.94739 
L 166.795913 271.828463 
L 166.994465 271.828463 
L 167.014197 271.590607 
L 167.391347 271.590607 
L 167.410635 271.352752 
L 167.570541 271.352752 
L 167.634096 271.114896 
L 168.232714 271.114896 
L 168.232714 270.995968 
L 168.60868 270.995968 
L 168.60868 270.87704 
L 168.793666 270.87704 
L 168.793666 270.758113 
L 168.9532 270.758113 
L 168.9532 270.639185 
L 169.163666 270.639185 
L 169.163666 270.520257 
L 169.291045 270.520257 
L 169.291045 270.401329 
L 170.294256 270.401329 
L 170.294256 270.282401 
L 171.077038 270.282401 
L 171.077038 270.163474 
L 172.127854 270.163474 
L 172.127854 270.044546 
L 172.303468 270.044546 
L 172.303468 269.925618 
L 172.419569 269.925618 
L 172.419569 269.80669 
L 172.678005 269.80669 
L 172.725446 269.568835 
L 172.885786 269.568835 
L 172.885786 269.449907 
L 173.132825 269.449907 
L 173.132825 269.330979 
L 173.598631 269.330979 
L 173.598631 269.212051 
L 174.139909 269.212051 
L 174.170462 268.974196 
L 174.460223 268.974196 
L 174.460223 268.855268 
L 174.778971 268.855268 
L 174.787391 268.617412 
L 175.330276 268.617412 
L 175.330276 268.498484 
L 175.817135 268.498484 
L 175.817135 268.379557 
L 175.955464 268.379557 
L 175.955464 268.260629 
L 176.1473 268.260629 
L 176.240496 267.66599 
L 176.478973 267.66599 
L 176.478973 267.547062 
L 176.890483 267.547062 
L 176.890483 267.428134 
L 177.068663 267.428134 
L 177.142371 266.952423 
L 177.307084 266.952423 
L 177.307084 266.833495 
L 177.642639 266.833495 
L 177.642639 266.714567 
L 177.855749 266.714567 
L 177.855749 266.59564 
L 177.978871 266.59564 
L 177.978871 266.476712 
L 178.094166 266.476712 
L 178.094166 266.357784 
L 178.767027 266.357784 
L 178.767027 266.238856 
L 178.88723 266.238856 
L 178.88723 266.119929 
L 179.187431 266.119929 
L 179.193971 265.882073 
L 179.408431 265.882073 
L 179.408431 265.763145 
L 179.629855 265.763145 
L 179.629855 265.644217 
L 179.750608 265.644217 
L 179.76327 265.406362 
L 180.191499 265.406362 
L 180.191499 265.287434 
L 180.515761 265.287434 
L 180.515761 265.168506 
L 180.905381 265.168506 
L 180.905381 265.049578 
L 181.108697 265.049578 
L 181.108697 264.930651 
L 181.453868 264.930651 
L 181.54839 264.692795 
L 182.160259 264.692795 
L 182.160259 264.573867 
L 182.931748 264.573867 
L 182.931748 264.454939 
L 183.063188 264.454939 
L 183.063188 264.336012 
L 183.320551 264.336012 
L 183.395226 264.098156 
L 184.038443 264.098156 
L 184.058243 263.8603 
L 184.33068 263.8603 
L 184.413285 263.503517 
L 184.546087 263.503517 
L 184.546087 263.384589 
L 184.784985 263.384589 
L 184.825274 263.146734 
L 184.905574 263.146734 
L 184.905574 263.027806 
L 185.039371 263.027806 
L 185.039371 262.908878 
L 185.434711 262.908878 
L 185.471247 262.671022 
L 185.657304 262.671022 
L 185.657304 262.552095 
L 186.201667 262.552095 
L 186.201667 262.433167 
L 186.727427 262.433167 
L 186.727427 262.314239 
L 186.839564 262.314239 
L 186.948888 261.838528 
L 187.070024 261.838528 
L 187.070024 261.7196 
L 187.377414 261.7196 
L 187.377414 261.600672 
L 188.432739 261.600672 
L 188.432739 261.481745 
L 188.719104 261.481745 
L 188.811641 261.243889 
L 188.914926 261.243889 
L 188.914926 261.124961 
L 189.23036 261.124961 
L 189.23036 261.006033 
L 189.523924 261.006033 
L 189.58349 260.768178 
L 189.707383 260.768178 
L 189.746701 260.530322 
L 189.945502 260.530322 
L 189.98957 260.292467 
L 190.355406 260.292467 
L 190.355406 260.173539 
L 190.504746 260.173539 
L 190.504746 260.054611 
L 190.87176 260.054611 
L 190.968562 259.816755 
L 191.339081 259.816755 
L 191.381394 259.5789 
L 191.773557 259.5789 
L 191.773557 259.459972 
L 191.927041 259.459972 
L 192.000926 259.103189 
L 192.086992 259.103189 
L 192.15243 258.865333 
L 192.248583 258.865333 
L 192.271767 258.627477 
L 192.469881 258.627477 
L 192.469881 258.50855 
L 192.810134 258.50855 
L 192.825103 258.270694 
L 192.984476 258.270694 
L 193.080585 258.032838 
L 193.244955 258.032838 
L 193.244955 257.913911 
L 193.428039 257.913911 
L 193.515989 257.676055 
L 193.743172 257.676055 
L 193.743172 257.557127 
L 194.044342 257.557127 
L 194.047132 257.319272 
L 194.815363 257.319272 
L 194.815363 257.200344 
L 194.994651 257.200344 
L 194.994651 257.081416 
L 195.327062 257.081416 
L 195.327062 256.962488 
L 195.61632 256.962488 
L 195.650711 256.724633 
L 195.781286 256.724633 
L 195.81031 256.486777 
L 195.953462 256.486777 
L 196.04576 256.129994 
L 196.136334 256.129994 
L 196.236287 255.892138 
L 196.302606 255.892138 
L 196.302606 255.77321 
L 196.540011 255.77321 
L 196.635278 255.416427 
L 196.660515 255.416427 
L 196.660515 255.297499 
L 197.068803 255.297499 
L 197.068803 255.178571 
L 197.217154 255.178571 
L 197.217154 255.059644 
L 197.50097 255.059644 
L 197.50097 254.940716 
L 197.634351 254.940716 
L 197.643434 254.70286 
L 197.963967 254.70286 
L 198.020709 254.465005 
L 198.077267 254.465005 
L 198.114871 254.227149 
L 198.324621 254.227149 
L 198.324621 254.108221 
L 198.510291 254.108221 
L 198.544818 253.870366 
L 199.058869 253.870366 
L 199.058869 253.751438 
L 199.350508 253.751438 
L 199.432652 253.394654 
L 200.003029 253.394654 
L 200.109776 253.156799 
L 200.431958 253.156799 
L 200.431958 253.037871 
L 200.733089 253.037871 
L 200.825072 252.800015 
L 200.852478 252.800015 
L 200.852478 252.681088 
L 201.130703 252.681088 
L 201.152065 252.443232 
L 201.285218 252.443232 
L 201.285218 252.324304 
L 201.453892 252.324304 
L 201.540345 251.967521 
L 202.17149 251.967521 
L 202.17149 251.848593 
L 202.331845 251.848593 
L 202.331845 251.729665 
L 202.45718 251.729665 
L 202.45718 251.610738 
L 202.637118 251.610738 
L 202.637118 251.49181 
L 202.790732 251.49181 
L 202.850622 251.253954 
L 203.008217 251.253954 
L 203.10807 251.016099 
L 203.150335 251.016099 
L 203.150335 250.897171 
L 203.456374 250.897171 
L 203.538327 250.659315 
L 203.574717 250.659315 
L 203.622313 250.42146 
L 203.777109 250.42146 
L 203.854392 250.183604 
L 203.983494 250.183604 
L 204.092052 249.826821 
L 204.108512 249.826821 
L 204.199939 249.588965 
L 204.389847 249.588965 
L 204.389847 249.470037 
L 204.731094 249.470037 
L 204.731094 249.351109 
L 204.904112 249.351109 
L 204.953445 249.113254 
L 205.127977 249.113254 
L 205.166361 248.875398 
L 205.326369 248.875398 
L 205.326369 248.75647 
L 205.534808 248.75647 
L 205.534808 248.637543 
L 205.689339 248.637543 
L 205.789945 248.161831 
L 206.020352 248.161831 
L 206.020352 248.042904 
L 206.140003 248.042904 
L 206.21029 247.805048 
L 206.413292 247.805048 
L 206.413292 247.68612 
L 206.648533 247.68612 
L 206.739727 247.210409 
L 206.92203 247.210409 
L 206.92203 247.091481 
L 207.211644 247.091481 
L 207.211644 246.972553 
L 207.864853 246.972553 
L 207.864853 246.853626 
L 208.127527 246.853626 
L 208.236075 246.377915 
L 208.245966 246.377915 
L 208.245966 246.258987 
L 208.789286 246.258987 
L 208.889636 246.021131 
L 208.921769 246.021131 
L 208.921769 245.902203 
L 209.165588 245.902203 
L 209.267299 245.307564 
L 209.280117 245.307564 
L 209.280117 245.188637 
L 209.749008 245.188637 
L 209.76884 244.950781 
L 210.014583 244.950781 
L 210.070333 244.593998 
L 210.191255 244.593998 
L 210.224389 244.237214 
L 210.477439 244.237214 
L 210.504063 243.999359 
L 210.799085 243.999359 
L 210.799085 243.880431 
L 211.044515 243.880431 
L 211.066083 243.642575 
L 211.209018 243.642575 
L 211.308328 243.166864 
L 211.669565 243.166864 
L 211.669565 243.047936 
L 211.833334 243.047936 
L 211.850933 242.810081 
L 212.0811 242.810081 
L 212.093496 242.572225 
L 212.269059 242.572225 
L 212.315612 242.334369 
L 212.400555 242.334369 
L 212.420511 242.096514 
L 212.667325 242.096514 
L 212.667325 241.977586 
L 213.066546 241.977586 
L 213.118499 241.620803 
L 213.317388 241.620803 
L 213.421041 241.264019 
L 213.787374 241.264019 
L 213.828704 240.907236 
L 214.038773 240.907236 
L 214.046751 240.66938 
L 214.156742 240.66938 
L 214.23144 240.431525 
L 214.358132 240.431525 
L 214.360308 240.193669 
L 214.578726 240.193669 
L 214.666189 239.836886 
L 215.090363 239.836886 
L 215.090363 239.717958 
L 215.234184 239.717958 
L 215.234184 239.59903 
L 215.362453 239.59903 
L 215.362453 239.480102 
L 215.597554 239.480102 
L 215.637645 239.123319 
L 215.833528 239.123319 
L 215.930452 238.647608 
L 216.00309 238.647608 
L 216.104987 238.171897 
L 216.250867 238.171897 
L 216.250867 238.052969 
L 216.364915 238.052969 
L 216.364915 237.934041 
L 216.515571 237.934041 
L 216.515571 237.815113 
L 216.661504 237.815113 
L 216.674468 237.577258 
L 216.909943 237.577258 
L 217.004073 237.101546 
L 217.382181 237.101546 
L 217.48654 236.863691 
L 217.759787 236.863691 
L 217.811999 236.625835 
L 217.88398 236.625835 
L 217.98468 236.269052 
L 218.212992 236.269052 
L 218.212992 236.150124 
L 218.375892 236.150124 
L 218.375892 236.031196 
L 218.496131 236.031196 
L 218.496131 235.912269 
L 218.627818 235.912269 
L 218.665602 235.674413 
L 218.82502 235.674413 
L 218.82502 235.555485 
L 219.013352 235.555485 
L 219.047316 235.31763 
L 219.144844 235.31763 
L 219.214834 235.079774 
L 219.359205 235.079774 
L 219.434524 234.841918 
L 219.525386 234.841918 
L 219.618353 234.604063 
L 219.666577 234.604063 
L 219.666577 234.485135 
L 219.805361 234.485135 
L 219.90477 234.247279 
L 220.040107 234.247279 
L 220.149436 233.890496 
L 220.160051 233.890496 
L 220.160051 233.771568 
L 220.367295 233.771568 
L 220.46264 233.533713 
L 220.519293 233.533713 
L 220.583074 233.176929 
L 220.832589 233.176929 
L 220.832589 233.058001 
L 221.03827 233.058001 
L 221.03827 232.939074 
L 221.180729 232.939074 
L 221.180729 232.820146 
L 221.41057 232.820146 
L 221.469731 232.58229 
L 221.778501 232.58229 
L 221.87381 232.344435 
L 222.001769 232.344435 
L 222.001769 232.225507 
L 222.220551 232.225507 
L 222.27869 231.868723 
L 222.416891 231.868723 
L 222.484216 231.630868 
L 222.557541 231.630868 
L 222.557541 231.51194 
L 222.934787 231.51194 
L 223.027175 231.274085 
L 223.060241 231.274085 
L 223.126449 231.036229 
L 223.21102 231.036229 
L 223.277703 230.798373 
L 223.536259 230.798373 
L 223.579923 230.44159 
L 223.717896 230.44159 
L 223.717896 230.322662 
L 223.887582 230.322662 
L 223.887582 230.203734 
L 224.295851 230.203734 
L 224.406781 229.965879 
L 224.434648 229.965879 
L 224.539846 229.37124 
L 224.833792 229.37124 
L 224.902647 229.133384 
L 225.259685 229.133384 
L 225.329434 228.895529 
L 225.493406 228.895529 
L 225.564289 228.657673 
L 225.778168 228.657673 
L 225.833935 228.30089 
L 226.034527 228.30089 
L 226.034527 228.181962 
L 226.14825 228.181962 
L 226.255295 227.944106 
L 226.360595 227.944106 
L 226.360595 227.825178 
L 226.561524 227.825178 
L 226.561524 227.706251 
L 226.936052 227.706251 
L 226.99436 227.468395 
L 227.198583 227.468395 
L 227.264537 226.992684 
L 227.327967 226.992684 
L 227.408888 226.754828 
L 227.452496 226.754828 
L 227.528752 226.398045 
L 227.613024 226.398045 
L 227.680271 226.160189 
L 227.877865 226.160189 
L 227.877865 226.041262 
L 228.040701 226.041262 
L 228.150986 225.446623 
L 228.158287 225.446623 
L 228.158287 225.327695 
L 228.316973 225.327695 
L 228.316973 225.208767 
L 228.475585 225.208767 
L 228.475585 225.089839 
L 228.712072 225.089839 
L 228.750637 224.733056 
L 229.017098 224.733056 
L 229.05537 224.4952 
L 229.135765 224.4952 
L 229.22396 224.138417 
L 229.50125 224.138417 
L 229.50125 224.019489 
L 229.615772 224.019489 
L 229.690197 223.42485 
L 229.730627 223.42485 
L 229.806181 222.949139 
L 229.927639 222.949139 
L 230.020264 222.592355 
L 230.045955 222.592355 
L 230.052858 222.3545 
L 230.190535 222.3545 
L 230.264651 222.116644 
L 230.344895 222.116644 
L 230.394947 221.878789 
L 230.57811 221.878789 
L 230.685453 221.403078 
L 230.892275 221.403078 
L 230.961962 220.808439 
L 231.478861 220.808439 
L 231.484242 220.570583 
L 231.680406 220.570583 
L 231.771734 220.332727 
L 231.862267 220.332727 
L 231.918652 219.975944 
L 232.232584 219.975944 
L 232.279377 219.738088 
L 232.354296 219.738088 
L 232.354296 219.619161 
L 232.481324 219.619161 
L 232.481324 219.500233 
L 232.599483 219.500233 
L 232.695415 219.024522 
L 232.800197 219.024522 
L 232.862374 218.54881 
L 233.159909 218.54881 
L 233.192756 218.310955 
L 233.579854 218.310955 
L 233.657318 217.954171 
L 233.705325 217.954171 
L 233.705325 217.835244 
L 233.886814 217.835244 
L 233.886814 217.716316 
L 234.012079 217.716316 
L 234.084281 217.359532 
L 234.222638 217.359532 
L 234.222638 217.240605 
L 234.415532 217.240605 
L 234.450776 216.883821 
L 234.564282 216.883821 
L 234.564282 216.764894 
L 234.841091 216.764894 
L 234.911956 216.40811 
L 235.13144 216.40811 
L 235.13144 216.289182 
L 235.25835 216.289182 
L 235.25835 216.170255 
L 235.381475 216.170255 
L 235.465241 215.932399 
L 235.640699 215.932399 
L 235.641983 215.694543 
L 235.986657 215.694543 
L 236.059046 215.456688 
L 236.117892 215.456688 
L 236.158966 215.218832 
L 236.317855 215.218832 
L 236.317855 215.099904 
L 236.662639 215.099904 
L 236.680439 214.862049 
L 236.867266 214.862049 
L 236.95231 214.505265 
L 237.046899 214.505265 
L 237.105108 214.26741 
L 237.280333 214.26741 
L 237.280333 214.148482 
L 237.396411 214.148482 
L 237.396411 214.029554 
L 237.583923 214.029554 
L 237.583923 213.910626 
L 237.819849 213.910626 
L 237.819849 213.791699 
L 238.153463 213.791699 
L 238.232917 213.434915 
L 238.30705 213.434915 
L 238.31697 213.19706 
L 238.771029 213.19706 
L 238.771029 213.078132 
L 239.014409 213.078132 
L 239.014409 212.959204 
L 239.256633 212.959204 
L 239.256633 212.840276 
L 239.382093 212.840276 
L 239.382093 212.721348 
L 239.817363 212.721348 
L 239.871268 212.364565 
L 239.941176 212.364565 
L 239.941176 212.245637 
L 240.186196 212.245637 
L 240.226733 212.007782 
L 240.497774 212.007782 
L 240.497774 211.888854 
L 240.812097 211.888854 
L 240.916733 211.650998 
L 241.018008 211.650998 
L 241.018008 211.532071 
L 241.133704 211.532071 
L 241.239882 211.294215 
L 241.342082 211.294215 
L 241.342082 211.175287 
L 241.613334 211.175287 
L 241.656695 210.937432 
L 241.872347 210.937432 
L 241.872347 210.818504 
L 242.683778 210.818504 
L 242.683778 210.699576 
L 242.833756 210.699576 
L 242.921047 210.46172 
L 243.01489 210.46172 
L 243.01489 210.342793 
L 243.211147 210.342793 
L 243.211147 210.223865 
L 243.486426 210.223865 
L 243.530362 209.867081 
L 243.873508 209.867081 
L 243.873508 209.748154 
L 244.038258 209.748154 
L 244.038258 209.629226 
L 244.257672 209.629226 
L 244.312136 209.272442 
L 244.408828 209.272442 
L 244.485503 208.915659 
L 244.659615 208.915659 
L 244.659615 208.796731 
L 244.998578 208.796731 
L 245.020123 208.439948 
L 245.571143 208.439948 
L 245.571143 208.32102 
L 245.887935 208.32102 
L 245.887935 208.202092 
L 246.242424 208.202092 
L 246.29027 207.964237 
L 246.374745 207.964237 
L 246.374745 207.845309 
L 246.515437 207.845309 
L 246.600407 207.25067 
L 246.79285 207.25067 
L 246.79285 207.131742 
L 247.290707 207.131742 
L 247.290707 207.012814 
L 247.408141 207.012814 
L 247.408141 206.893887 
L 247.673297 206.893887 
L 247.673297 206.774959 
L 248.286751 206.774959 
L 248.377647 206.418175 
L 248.532411 206.418175 
L 248.532411 206.299248 
L 248.942678 206.299248 
L 249.041252 206.061392 
L 249.327229 206.061392 
L 249.328753 205.823536 
L 249.448063 205.823536 
L 249.448063 205.704609 
L 249.621217 205.704609 
L 249.623234 205.466753 
L 249.997735 205.466753 
L 250.079035 205.228897 
L 251.19489 205.228897 
L 251.278774 204.991042 
L 251.511857 204.991042 
L 251.511857 204.872114 
L 251.862229 204.872114 
L 251.970994 204.634258 
L 252.181934 204.634258 
L 252.181934 204.515331 
L 252.490555 204.515331 
L 252.490555 204.396403 
L 254.137629 204.396403 
L 254.137629 204.277475 
L 254.322031 204.277475 
L 254.322031 204.158547 
L 257.451721 204.158547 
L 257.451721 204.039619 
L 258.768793 204.039619 
L 258.768793 203.920692 
L 261.947605 203.920692 
L 261.947605 203.801764 
L 338.688 203.801764 
L 338.688 203.801764 
" style="fill:none;stroke:#ff7500;stroke-linecap:square;stroke-width:1.5;"/>
   </g>
   <g id="line2d_41">
    <defs>
     <path d="M 0 -6 
L -1.347084 -1.854102 
L -5.706339 -1.854102 
L -2.179628 0.708204 
L -3.526712 4.854102 
L -0 2.291796 
L 3.526712 4.854102 
L 2.179628 0.708204 
L 5.706339 -1.854102 
L 1.347084 -1.854102 
z
" id="md9ef745314" style="stroke:#ff7500;stroke-linejoin:bevel;stroke-width:1.5;"/>
    </defs>
    <g>
     <use style="fill-opacity:0;stroke:#ff7500;stroke-linejoin:bevel;stroke-width:1.5;" x="147.287301" xlink:href="#md9ef745314" y="283.245531"/>
     <use style="fill-opacity:0;stroke:#ff7500;stroke-linejoin:bevel;stroke-width:1.5;" x="206.020352" xlink:href="#md9ef745314" y="248.161831"/>
     <use style="fill-opacity:0;stroke:#ff7500;stroke-linejoin:bevel;stroke-width:1.5;" x="261.947605" xlink:href="#md9ef745314" y="203.920692"/>
     <use style="fill-opacity:0;stroke:#ff7500;stroke-linejoin:bevel;stroke-width:1.5;" x="261.947605" xlink:href="#md9ef745314" y="203.801764"/>
     <use style="fill-opacity:0;stroke:#ff7500;stroke-linejoin:bevel;stroke-width:1.5;" x="338.688" xlink:href="#md9ef745314" y="203.801764"/>
    </g>
   </g>
   <g id="line2d_42">
    <path style="fill:none;stroke:#ff7500;stroke-linecap:square;stroke-width:1.5;"/>
    <g/>
   </g>
   <g id="line2d_43">
    <path clip-path="url(#p09f60974d8)" d="M 159.303838 275.990936 
" style="fill:none;stroke:#ff7500;stroke-linecap:square;stroke-width:1.5;"/>
    <defs>
     <path d="M -12 12 
L 12 -12 
M -12 -12 
L 12 12 
" id="m5a679adcdf" style="stroke:#ff7500;"/>
    </defs>
    <g clip-path="url(#p09f60974d8)">
     <use style="fill:#ff7500;stroke:#ff7500;" x="159.303838" xlink:href="#m5a679adcdf" y="275.990936"/>
    </g>
   </g>
   <g id="line2d_44">
    <defs>
     <path d="M 0 1.5 
C 0.397805 1.5 0.77937 1.341951 1.06066 1.06066 
C 1.341951 0.77937 1.5 0.397805 1.5 0 
C 1.5 -0.397805 1.341951 -0.77937 1.06066 -1.06066 
C 0.77937 -1.341951 0.397805 -1.5 0 -1.5 
C -0.397805 -1.5 -0.77937 -1.341951 -1.06066 -1.06066 
C -1.341951 -0.77937 -1.5 -0.397805 -1.5 0 
C -1.5 0.397805 -1.341951 0.77937 -1.06066 1.06066 
C -0.77937 1.341951 -0.397805 1.5 0 1.5 
z
" id="m6d7114dce8" style="stroke:#6495ed;"/>
    </defs>
    <g>
     <use style="fill:#6495ed;stroke:#6495ed;" x="174.842027" xlink:href="#m6d7114dce8" y="295.376166"/>
     <use style="fill:#6495ed;stroke:#6495ed;" x="174.842027" xlink:href="#m6d7114dce8" y="295.376166"/>
    </g>
   </g>
   <g id="line2d_45">
    <path d="M 29.53256 298.944 
L 29.53256 298.706144 
L 83.438118 298.706144 
L 83.438118 298.587217 
L 84.955534 298.587217 
L 84.955534 298.468289 
L 102.060491 298.468289 
L 102.060491 298.349361 
L 106.168594 298.349361 
L 106.168594 298.230433 
L 110.188761 298.230433 
L 110.188761 298.111505 
L 111.185562 298.111505 
L 111.185562 297.992578 
L 114.148479 297.992578 
L 114.148479 297.87365 
L 115.835374 297.87365 
L 115.835374 297.754722 
L 116.562116 297.754722 
L 116.562116 297.635794 
L 118.994305 297.635794 
L 118.994305 297.516866 
L 121.667835 297.516866 
L 121.667835 297.397939 
L 124.139788 297.397939 
L 124.139788 297.279011 
L 125.892487 297.279011 
L 125.892487 297.160083 
L 127.165014 297.160083 
L 127.165014 297.041155 
L 135.839358 297.041155 
L 135.839358 296.922227 
L 139.381706 296.922227 
L 139.381706 296.8033 
L 139.793552 296.8033 
L 139.793552 296.684372 
L 139.918342 296.684372 
L 139.918342 296.565444 
L 141.20629 296.565444 
L 141.20629 296.446516 
L 144.148442 296.446516 
L 144.148442 296.327589 
L 145.954117 296.327589 
L 145.954117 296.208661 
L 148.582601 296.208661 
L 148.582601 296.089733 
L 151.740076 296.089733 
L 151.740076 295.970805 
L 153.149313 295.970805 
L 153.149313 295.851877 
L 154.167129 295.851877 
L 154.167129 295.73295 
L 161.137157 295.73295 
L 161.137157 295.614022 
L 168.614678 295.614022 
L 168.614678 295.495094 
L 174.842027 295.495094 
L 174.842027 295.376166 
L 338.688 295.376166 
" style="fill:none;stroke:#6495ed;stroke-linecap:square;stroke-width:1.5;"/>
   </g>
   <g id="line2d_46">
    <defs>
     <path d="M -0 6 
L 6 -6 
L -6 -6 
z
" id="m27f103148f" style="stroke:#6495ed;stroke-linejoin:miter;stroke-width:1.5;"/>
    </defs>
    <g>
     <use style="fill-opacity:0;stroke:#6495ed;stroke-linejoin:miter;stroke-width:1.5;" x="84.955534" xlink:href="#m27f103148f" y="298.587217"/>
     <use style="fill-opacity:0;stroke:#6495ed;stroke-linejoin:miter;stroke-width:1.5;" x="144.148442" xlink:href="#m27f103148f" y="296.327589"/>
     <use style="fill-opacity:0;stroke:#6495ed;stroke-linejoin:miter;stroke-width:1.5;" x="174.842027" xlink:href="#m27f103148f" y="295.495094"/>
     <use style="fill-opacity:0;stroke:#6495ed;stroke-linejoin:miter;stroke-width:1.5;" x="174.842027" xlink:href="#m27f103148f" y="295.376166"/>
     <use style="fill-opacity:0;stroke:#6495ed;stroke-linejoin:miter;stroke-width:1.5;" x="174.842027" xlink:href="#m27f103148f" y="295.376166"/>
     <use style="fill-opacity:0;stroke:#6495ed;stroke-linejoin:miter;stroke-width:1.5;" x="338.688" xlink:href="#m27f103148f" y="295.376166"/>
    </g>
   </g>
   <g id="line2d_47">
    <path style="fill:none;stroke:#6495ed;stroke-linecap:square;stroke-width:1.5;"/>
    <g/>
   </g>
   <g id="line2d_48">
    <path clip-path="url(#p09f60974d8)" d="M 114.947365 297.87365 
" style="fill:none;stroke:#6495ed;stroke-linecap:square;stroke-width:1.5;"/>
    <defs>
     <path d="M -12 12 
L 12 -12 
M -12 -12 
L 12 12 
" id="m4c7e4cd442" style="stroke:#6495ed;"/>
    </defs>
    <g clip-path="url(#p09f60974d8)">
     <use style="fill:#6495ed;stroke:#6495ed;" x="114.947365" xlink:href="#m4c7e4cd442" y="297.87365"/>
    </g>
   </g>
   <g id="line2d_49">
    <path d="M 338.688 295.376166 
L 369.60768 293.092752 
" style="fill:none;stroke:#6495ed;stroke-linecap:square;stroke-width:1.5;"/>
    <g>
     <use style="fill-opacity:0;stroke:#6495ed;stroke-linejoin:miter;stroke-width:1.5;" x="338.688" xlink:href="#m27f103148f" y="295.376166"/>
     <use style="fill-opacity:0;stroke:#6495ed;stroke-linejoin:miter;stroke-width:1.5;" x="369.60768" xlink:href="#m27f103148f" y="293.092752"/>
    </g>
   </g>
   <g id="line2d_50">
    <path d="M 338.688 288.240498 
L 369.60768 199.472792 
" style="fill:none;stroke:#ff00ff;stroke-linecap:square;stroke-width:1.5;"/>
    <g>
     <use style="fill-opacity:0;stroke:#ff00ff;stroke-linejoin:miter;stroke-width:1.5;" x="338.688" xlink:href="#mc479753055" y="288.240498"/>
     <use style="fill-opacity:0;stroke:#ff00ff;stroke-linejoin:miter;stroke-width:1.5;" x="369.60768" xlink:href="#mc479753055" y="199.472792"/>
    </g>
   </g>
   <g id="line2d_51">
    <path d="M 338.688 241.858658 
L 369.60768 105.852832 
" style="fill:none;stroke:#000080;stroke-linecap:square;stroke-width:1.5;"/>
    <g>
     <use style="fill-opacity:0;stroke:#000080;stroke-width:1.5;" x="338.688" xlink:href="#m833c5c813c" y="241.858658"/>
     <use style="fill-opacity:0;stroke:#000080;stroke-width:1.5;" x="369.60768" xlink:href="#m833c5c813c" y="105.852832"/>
    </g>
   </g>
   <g id="line2d_52">
    <path d="M 338.688 203.801764 
L 369.60768 12.232871 
" style="fill:none;stroke:#ff7500;stroke-linecap:square;stroke-width:1.5;"/>
    <g>
     <use style="fill-opacity:0;stroke:#ff7500;stroke-linejoin:bevel;stroke-width:1.5;" x="338.688" xlink:href="#md9ef745314" y="203.801764"/>
     <use style="fill-opacity:0;stroke:#ff7500;stroke-linejoin:bevel;stroke-width:1.5;" x="369.60768" xlink:href="#md9ef745314" y="12.232871"/>
    </g>
   </g>
   <g id="line2d_53">
    <path d="M 338.688 298.944 
L 338.688 6.381624 
" style="fill:none;stroke:#000000;stroke-linecap:square;stroke-width:1.5;"/>
   </g>
   <g id="patch_3">
    <path d="M 57.6 298.944 
L 57.6 3.456 
" style="fill:none;stroke:#000000;stroke-linecap:square;stroke-linejoin:miter;stroke-width:0.8;"/>
   </g>
   <g id="patch_4">
    <path d="M 338.688 298.944 
L 338.688 3.456 
" style="fill:none;stroke:#000000;stroke-linecap:square;stroke-linejoin:miter;stroke-width:0.8;"/>
   </g>
   <g id="patch_5">
    <path d="M 57.6 298.944 
L 338.688 298.944 
" style="fill:none;stroke:#000000;stroke-linecap:square;stroke-linejoin:miter;stroke-width:0.8;"/>
   </g>
   <g id="patch_6">
    <path d="M 57.6 3.456 
L 338.688 3.456 
" style="fill:none;stroke:#000000;stroke-linecap:square;stroke-linejoin:miter;stroke-width:0.8;"/>
   </g>
   <g id="text_13">
    <!-- slsqp -->
    <g transform="translate(375.22944 297.78369)scale(0.17 -0.17)">
     <defs>
      <path d="M 14.796875 27.296875 
Q 14.796875 17.390625 18.875 11.75 
Q 22.953125 6.109375 30.078125 6.109375 
Q 37.203125 6.109375 41.296875 11.75 
Q 45.40625 17.390625 45.40625 27.296875 
Q 45.40625 37.203125 41.296875 42.84375 
Q 37.203125 48.484375 30.078125 48.484375 
Q 22.953125 48.484375 18.875 42.84375 
Q 14.796875 37.203125 14.796875 27.296875 
z
M 45.40625 8.203125 
Q 42.578125 3.328125 38.25 0.953125 
Q 33.9375 -1.421875 27.875 -1.421875 
Q 17.96875 -1.421875 11.734375 6.484375 
Q 5.515625 14.40625 5.515625 27.296875 
Q 5.515625 40.1875 11.734375 48.09375 
Q 17.96875 56 27.875 56 
Q 33.9375 56 38.25 53.625 
Q 42.578125 51.265625 45.40625 46.390625 
L 45.40625 54.6875 
L 54.390625 54.6875 
L 54.390625 -20.796875 
L 45.40625 -20.796875 
z
" id="DejaVuSans-113"/>
     </defs>
     <use xlink:href="#DejaVuSans-115"/>
     <use x="52.099609" xlink:href="#DejaVuSans-108"/>
     <use x="79.882812" xlink:href="#DejaVuSans-115"/>
     <use x="131.982422" xlink:href="#DejaVuSans-113"/>
     <use x="195.458984" xlink:href="#DejaVuSans-112"/>
    </g>
   </g>
   <g id="text_14">
    <!-- cobyla -->
    <g transform="translate(375.22944 204.16373)scale(0.17 -0.17)">
     <defs>
      <path d="M 48.6875 27.296875 
Q 48.6875 37.203125 44.609375 42.84375 
Q 40.53125 48.484375 33.40625 48.484375 
Q 26.265625 48.484375 22.1875 42.84375 
Q 18.109375 37.203125 18.109375 27.296875 
Q 18.109375 17.390625 22.1875 11.75 
Q 26.265625 6.109375 33.40625 6.109375 
Q 40.53125 6.109375 44.609375 11.75 
Q 48.6875 17.390625 48.6875 27.296875 
z
M 18.109375 46.390625 
Q 20.953125 51.265625 25.265625 53.625 
Q 29.59375 56 35.59375 56 
Q 45.5625 56 51.78125 48.09375 
Q 58.015625 40.1875 58.015625 27.296875 
Q 58.015625 14.40625 51.78125 6.484375 
Q 45.5625 -1.421875 35.59375 -1.421875 
Q 29.59375 -1.421875 25.265625 0.953125 
Q 20.953125 3.328125 18.109375 8.203125 
L 18.109375 0 
L 9.078125 0 
L 9.078125 75.984375 
L 18.109375 75.984375 
z
" id="DejaVuSans-98"/>
      <path d="M 32.171875 -5.078125 
Q 28.375 -14.84375 24.75 -17.8125 
Q 21.140625 -20.796875 15.09375 -20.796875 
L 7.90625 -20.796875 
L 7.90625 -13.28125 
L 13.1875 -13.28125 
Q 16.890625 -13.28125 18.9375 -11.515625 
Q 21 -9.765625 23.484375 -3.21875 
L 25.09375 0.875 
L 2.984375 54.6875 
L 12.5 54.6875 
L 29.59375 11.921875 
L 46.6875 54.6875 
L 56.203125 54.6875 
z
" id="DejaVuSans-121"/>
     </defs>
     <use xlink:href="#DejaVuSans-99"/>
     <use x="54.980469" xlink:href="#DejaVuSans-111"/>
     <use x="116.162109" xlink:href="#DejaVuSans-98"/>
     <use x="179.638672" xlink:href="#DejaVuSans-121"/>
     <use x="238.818359" xlink:href="#DejaVuSans-108"/>
     <use x="266.601562" xlink:href="#DejaVuSans-97"/>
    </g>
   </g>
   <g id="text_15">
    <!-- alN5 -->
    <g transform="translate(375.22944 110.543769)scale(0.17 -0.17)">
     <defs>
      <path d="M 9.8125 72.90625 
L 23.09375 72.90625 
L 55.421875 11.921875 
L 55.421875 72.90625 
L 64.984375 72.90625 
L 64.984375 0 
L 51.703125 0 
L 19.390625 60.984375 
L 19.390625 0 
L 9.8125 0 
z
" id="DejaVuSans-78"/>
      <path d="M 10.796875 72.90625 
L 49.515625 72.90625 
L 49.515625 64.59375 
L 19.828125 64.59375 
L 19.828125 46.734375 
Q 21.96875 47.46875 24.109375 47.828125 
Q 26.265625 48.1875 28.421875 48.1875 
Q 40.625 48.1875 47.75 41.5 
Q 54.890625 34.8125 54.890625 23.390625 
Q 54.890625 11.625 47.5625 5.09375 
Q 40.234375 -1.421875 26.90625 -1.421875 
Q 22.3125 -1.421875 17.546875 -0.640625 
Q 12.796875 0.140625 7.71875 1.703125 
L 7.71875 11.625 
Q 12.109375 9.234375 16.796875 8.0625 
Q 21.484375 6.890625 26.703125 6.890625 
Q 35.15625 6.890625 40.078125 11.328125 
Q 45.015625 15.765625 45.015625 23.390625 
Q 45.015625 31 40.078125 35.4375 
Q 35.15625 39.890625 26.703125 39.890625 
Q 22.75 39.890625 18.8125 39.015625 
Q 14.890625 38.140625 10.796875 36.28125 
z
" id="DejaVuSans-53"/>
     </defs>
     <use xlink:href="#DejaVuSans-97"/>
     <use x="61.279297" xlink:href="#DejaVuSans-108"/>
     <use x="89.0625" xlink:href="#DejaVuSans-78"/>
     <use x="163.867188" xlink:href="#DejaVuSans-53"/>
    </g>
   </g>
   <g id="text_16">
    <!-- l1p-cmaes -->
    <g transform="translate(375.22944 16.923809)scale(0.17 -0.17)">
     <use xlink:href="#DejaVuSans-108"/>
     <use x="27.783203" xlink:href="#DejaVuSans-49"/>
     <use x="91.40625" xlink:href="#DejaVuSans-112"/>
     <use x="154.882812" xlink:href="#DejaVuSans-45"/>
     <use x="190.966797" xlink:href="#DejaVuSans-99"/>
     <use x="245.947266" xlink:href="#DejaVuSans-109"/>
     <use x="343.359375" xlink:href="#DejaVuSans-97"/>
     <use x="404.638672" xlink:href="#DejaVuSans-101"/>
     <use x="466.162109" xlink:href="#DejaVuSans-115"/>
    </g>
   </g>
   <g id="text_17">
    <!-- bbob-constrained f43-f48, 5-D -->
    <g transform="translate(60.41088 14.161286)scale(0.102 -0.102)">
     <defs>
      <path d="M 40.578125 39.3125 
Q 47.65625 37.796875 51.625 33 
Q 55.609375 28.21875 55.609375 21.1875 
Q 55.609375 10.40625 48.1875 4.484375 
Q 40.765625 -1.421875 27.09375 -1.421875 
Q 22.515625 -1.421875 17.65625 -0.515625 
Q 12.796875 0.390625 7.625 2.203125 
L 7.625 11.71875 
Q 11.71875 9.328125 16.59375 8.109375 
Q 21.484375 6.890625 26.8125 6.890625 
Q 36.078125 6.890625 40.9375 10.546875 
Q 45.796875 14.203125 45.796875 21.1875 
Q 45.796875 27.640625 41.28125 31.265625 
Q 36.765625 34.90625 28.71875 34.90625 
L 20.21875 34.90625 
L 20.21875 43.015625 
L 29.109375 43.015625 
Q 36.375 43.015625 40.234375 45.921875 
Q 44.09375 48.828125 44.09375 54.296875 
Q 44.09375 59.90625 40.109375 62.90625 
Q 36.140625 65.921875 28.71875 65.921875 
Q 24.65625 65.921875 20.015625 65.03125 
Q 15.375 64.15625 9.8125 62.3125 
L 9.8125 71.09375 
Q 15.4375 72.65625 20.34375 73.4375 
Q 25.25 74.21875 29.59375 74.21875 
Q 40.828125 74.21875 47.359375 69.109375 
Q 53.90625 64.015625 53.90625 55.328125 
Q 53.90625 49.265625 50.4375 45.09375 
Q 46.96875 40.921875 40.578125 39.3125 
z
" id="DejaVuSans-51"/>
      <path d="M 19.671875 64.796875 
L 19.671875 8.109375 
L 31.59375 8.109375 
Q 46.6875 8.109375 53.6875 14.9375 
Q 60.6875 21.78125 60.6875 36.53125 
Q 60.6875 51.171875 53.6875 57.984375 
Q 46.6875 64.796875 31.59375 64.796875 
z
M 9.8125 72.90625 
L 30.078125 72.90625 
Q 51.265625 72.90625 61.171875 64.09375 
Q 71.09375 55.28125 71.09375 36.53125 
Q 71.09375 17.671875 61.125 8.828125 
Q 51.171875 0 30.078125 0 
L 9.8125 0 
z
" id="DejaVuSans-68"/>
     </defs>
     <use xlink:href="#DejaVuSans-98"/>
     <use x="63.476562" xlink:href="#DejaVuSans-98"/>
     <use x="126.953125" xlink:href="#DejaVuSans-111"/>
     <use x="188.134766" xlink:href="#DejaVuSans-98"/>
     <use x="251.611328" xlink:href="#DejaVuSans-45"/>
     <use x="287.695312" xlink:href="#DejaVuSans-99"/>
     <use x="342.675781" xlink:href="#DejaVuSans-111"/>
     <use x="403.857422" xlink:href="#DejaVuSans-110"/>
     <use x="467.236328" xlink:href="#DejaVuSans-115"/>
     <use x="519.335938" xlink:href="#DejaVuSans-116"/>
     <use x="558.544922" xlink:href="#DejaVuSans-114"/>
     <use x="599.658203" xlink:href="#DejaVuSans-97"/>
     <use x="660.9375" xlink:href="#DejaVuSans-105"/>
     <use x="688.720703" xlink:href="#DejaVuSans-110"/>
     <use x="752.099609" xlink:href="#DejaVuSans-101"/>
     <use x="813.623047" xlink:href="#DejaVuSans-100"/>
     <use x="877.099609" xlink:href="#DejaVuSans-32"/>
     <use x="908.886719" xlink:href="#DejaVuSans-102"/>
     <use x="944.091797" xlink:href="#DejaVuSans-52"/>
     <use x="1007.714844" xlink:href="#DejaVuSans-51"/>
     <use x="1071.337891" xlink:href="#DejaVuSans-45"/>
     <use x="1107.421875" xlink:href="#DejaVuSans-102"/>
     <use x="1142.626953" xlink:href="#DejaVuSans-52"/>
     <use x="1206.25" xlink:href="#DejaVuSans-56"/>
     <use x="1269.873047" xlink:href="#DejaVuSans-44"/>
     <use x="1301.660156" xlink:href="#DejaVuSans-32"/>
     <use x="1333.447266" xlink:href="#DejaVuSans-53"/>
     <use x="1397.070312" xlink:href="#DejaVuSans-45"/>
     <use x="1433.154297" xlink:href="#DejaVuSans-68"/>
    </g>
    <!-- 41 targets: 100..1e-06 -->
    <g transform="translate(60.41088 25.583055)scale(0.102 -0.102)">
     <defs>
      <path d="M 11.71875 12.40625 
L 22.015625 12.40625 
L 22.015625 0 
L 11.71875 0 
z
M 11.71875 51.703125 
L 22.015625 51.703125 
L 22.015625 39.3125 
L 11.71875 39.3125 
z
" id="DejaVuSans-58"/>
     </defs>
     <use xlink:href="#DejaVuSans-52"/>
     <use x="63.623047" xlink:href="#DejaVuSans-49"/>
     <use x="127.246094" xlink:href="#DejaVuSans-32"/>
     <use x="159.033203" xlink:href="#DejaVuSans-116"/>
     <use x="198.242188" xlink:href="#DejaVuSans-97"/>
     <use x="259.521484" xlink:href="#DejaVuSans-114"/>
     <use x="298.884766" xlink:href="#DejaVuSans-103"/>
     <use x="362.361328" xlink:href="#DejaVuSans-101"/>
     <use x="423.884766" xlink:href="#DejaVuSans-116"/>
     <use x="463.09375" xlink:href="#DejaVuSans-115"/>
     <use x="515.193359" xlink:href="#DejaVuSans-58"/>
     <use x="548.884766" xlink:href="#DejaVuSans-32"/>
     <use x="580.671875" xlink:href="#DejaVuSans-49"/>
     <use x="644.294922" xlink:href="#DejaVuSans-48"/>
     <use x="707.917969" xlink:href="#DejaVuSans-48"/>
     <use x="771.541016" xlink:href="#DejaVuSans-46"/>
     <use x="803.328125" xlink:href="#DejaVuSans-46"/>
     <use x="835.115234" xlink:href="#DejaVuSans-49"/>
     <use x="898.738281" xlink:href="#DejaVuSans-101"/>
     <use x="960.261719" xlink:href="#DejaVuSans-45"/>
     <use x="996.345703" xlink:href="#DejaVuSans-48"/>
     <use x="1059.96875" xlink:href="#DejaVuSans-54"/>
    </g>
    <!-- 30, 15 instances -->
    <g transform="translate(60.41088 37.004824)scale(0.102 -0.102)">
     <use xlink:href="#DejaVuSans-51"/>
     <use x="63.623047" xlink:href="#DejaVuSans-48"/>
     <use x="127.246094" xlink:href="#DejaVuSans-44"/>
     <use x="159.033203" xlink:href="#DejaVuSans-32"/>
     <use x="190.820312" xlink:href="#DejaVuSans-49"/>
     <use x="254.443359" xlink:href="#DejaVuSans-53"/>
     <use x="318.066406" xlink:href="#DejaVuSans-32"/>
     <use x="349.853516" xlink:href="#DejaVuSans-105"/>
     <use x="377.636719" xlink:href="#DejaVuSans-110"/>
     <use x="441.015625" xlink:href="#DejaVuSans-115"/>
     <use x="493.115234" xlink:href="#DejaVuSans-116"/>
     <use x="532.324219" xlink:href="#DejaVuSans-97"/>
     <use x="593.603516" xlink:href="#DejaVuSans-110"/>
     <use x="656.982422" xlink:href="#DejaVuSans-99"/>
     <use x="711.962891" xlink:href="#DejaVuSans-101"/>
     <use x="773.486328" xlink:href="#DejaVuSans-115"/>
    </g>
   </g>
   <g id="text_18">
    <!-- v5z33 -->
    <g style="fill:#808080;" transform="translate(183.016656 293.909432)scale(0.1 -0.1)">
     <defs>
      <path d="M 5.515625 54.6875 
L 48.1875 54.6875 
L 48.1875 46.484375 
L 14.40625 7.171875 
L 48.1875 7.171875 
L 48.1875 0 
L 4.296875 0 
L 4.296875 8.203125 
L 38.09375 47.515625 
L 5.515625 47.515625 
z
" id="DejaVuSans-122"/>
     </defs>
     <use xlink:href="#DejaVuSans-118"/>
     <use x="59.179688" xlink:href="#DejaVuSans-53"/>
     <use x="122.802734" xlink:href="#DejaVuSans-122"/>
     <use x="175.292969" xlink:href="#DejaVuSans-51"/>
     <use x="238.916016" xlink:href="#DejaVuSans-51"/>
    </g>
   </g>
  </g>
 </g>
 <defs>
  <clipPath id="p09f60974d8">
   <rect height="295.488" width="281.088" x="57.6" y="3.456"/>
  </clipPath>
 </defs>
</svg>
