<?xml version="1.0" encoding="utf-8" standalone="no"?>
<!DOCTYPE svg PUBLIC "-//W3C//DTD SVG 1.1//EN"
  "http://www.w3.org/Graphics/SVG/1.1/DTD/svg11.dtd">
<!-- Created with matplotlib (https://matplotlib.org/) -->
<svg height="345.6pt" version="1.1" viewBox="0 0 460.8 345.6" width="460.8pt" xmlns="http://www.w3.org/2000/svg" xmlns:xlink="http://www.w3.org/1999/xlink">
 <metadata>
  <rdf:RDF xmlns:cc="http://creativecommons.org/ns#" xmlns:dc="http://purl.org/dc/elements/1.1/" xmlns:rdf="http://www.w3.org/1999/02/22-rdf-syntax-ns#">
   <cc:Work>
    <dc:type rdf:resource="http://purl.org/dc/dcmitype/StillImage"/>
    <dc:date>2021-04-07T09:51:07.501041</dc:date>
    <dc:format>image/svg+xml</dc:format>
    <dc:creator>
     <cc:Agent>
      <dc:title>Matplotlib v3.3.3, https://matplotlib.org/</dc:title>
     </cc:Agent>
    </dc:creator>
   </cc:Work>
  </rdf:RDF>
 </metadata>
 <defs>
  <style type="text/css">*{stroke-linecap:butt;stroke-linejoin:round;}</style>
 </defs>
 <g id="figure_1">
  <g id="patch_1">
   <path d="M 0 345.6 
L 460.8 345.6 
L 460.8 0 
L 0 0 
z
" style="fill:#ffffff;"/>
  </g>
  <g id="axes_1">
   <g id="patch_2">
    <path d="M 57.6 298.944 
L 338.688 298.944 
L 338.688 27.648 
L 57.6 27.648 
z
" style="fill:#ffffff;"/>
   </g>
   <g id="matplotlib.axis_1">
    <g id="xtick_1">
     <g id="line2d_1">
      <path clip-path="url(#p84eab12084)" d="M 57.6 298.944 
L 57.6 27.648 
" style="fill:none;stroke:#b0b0b0;stroke-linecap:square;stroke-width:0.8;"/>
     </g>
     <g id="line2d_2">
      <defs>
       <path d="M 0 0 
L 0 3.5 
" id="me7cd109d39" style="stroke:#000000;stroke-width:0.8;"/>
      </defs>
      <g>
       <use style="stroke:#000000;stroke-width:0.8;" x="57.6" xlink:href="#me7cd109d39" y="298.944"/>
      </g>
     </g>
     <g id="text_1">
      <!-- 0 -->
      <g transform="translate(51.2375 321.140875)scale(0.2 -0.2)">
       <defs>
        <path d="M 31.78125 66.40625 
Q 24.171875 66.40625 20.328125 58.90625 
Q 16.5 51.421875 16.5 36.375 
Q 16.5 21.390625 20.328125 13.890625 
Q 24.171875 6.390625 31.78125 6.390625 
Q 39.453125 6.390625 43.28125 13.890625 
Q 47.125 21.390625 47.125 36.375 
Q 47.125 51.421875 43.28125 58.90625 
Q 39.453125 66.40625 31.78125 66.40625 
z
M 31.78125 74.21875 
Q 44.046875 74.21875 50.515625 64.515625 
Q 56.984375 54.828125 56.984375 36.375 
Q 56.984375 17.96875 50.515625 8.265625 
Q 44.046875 -1.421875 31.78125 -1.421875 
Q 19.53125 -1.421875 13.0625 8.265625 
Q 6.59375 17.96875 6.59375 36.375 
Q 6.59375 54.828125 13.0625 64.515625 
Q 19.53125 74.21875 31.78125 74.21875 
z
" id="DejaVuSans-48"/>
       </defs>
       <use xlink:href="#DejaVuSans-48"/>
      </g>
     </g>
    </g>
    <g id="xtick_2">
     <g id="line2d_3">
      <path clip-path="url(#p84eab12084)" d="M 137.910857 298.944 
L 137.910857 27.648 
" style="fill:none;stroke:#b0b0b0;stroke-linecap:square;stroke-width:0.8;"/>
     </g>
     <g id="line2d_4">
      <g>
       <use style="stroke:#000000;stroke-width:0.8;" x="137.910857" xlink:href="#me7cd109d39" y="298.944"/>
      </g>
     </g>
     <g id="text_2">
      <!-- 2 -->
      <g transform="translate(131.548357 321.140875)scale(0.2 -0.2)">
       <defs>
        <path d="M 19.1875 8.296875 
L 53.609375 8.296875 
L 53.609375 0 
L 7.328125 0 
L 7.328125 8.296875 
Q 12.9375 14.109375 22.625 23.890625 
Q 32.328125 33.6875 34.8125 36.53125 
Q 39.546875 41.84375 41.421875 45.53125 
Q 43.3125 49.21875 43.3125 52.78125 
Q 43.3125 58.59375 39.234375 62.25 
Q 35.15625 65.921875 28.609375 65.921875 
Q 23.96875 65.921875 18.8125 64.3125 
Q 13.671875 62.703125 7.8125 59.421875 
L 7.8125 69.390625 
Q 13.765625 71.78125 18.9375 73 
Q 24.125 74.21875 28.421875 74.21875 
Q 39.75 74.21875 46.484375 68.546875 
Q 53.21875 62.890625 53.21875 53.421875 
Q 53.21875 48.921875 51.53125 44.890625 
Q 49.859375 40.875 45.40625 35.40625 
Q 44.1875 33.984375 37.640625 27.21875 
Q 31.109375 20.453125 19.1875 8.296875 
z
" id="DejaVuSans-50"/>
       </defs>
       <use xlink:href="#DejaVuSans-50"/>
      </g>
     </g>
    </g>
    <g id="xtick_3">
     <g id="line2d_5">
      <path clip-path="url(#p84eab12084)" d="M 218.221714 298.944 
L 218.221714 27.648 
" style="fill:none;stroke:#b0b0b0;stroke-linecap:square;stroke-width:0.8;"/>
     </g>
     <g id="line2d_6">
      <g>
       <use style="stroke:#000000;stroke-width:0.8;" x="218.221714" xlink:href="#me7cd109d39" y="298.944"/>
      </g>
     </g>
     <g id="text_3">
      <!-- 4 -->
      <g transform="translate(211.859214 321.140875)scale(0.2 -0.2)">
       <defs>
        <path d="M 37.796875 64.3125 
L 12.890625 25.390625 
L 37.796875 25.390625 
z
M 35.203125 72.90625 
L 47.609375 72.90625 
L 47.609375 25.390625 
L 58.015625 25.390625 
L 58.015625 17.1875 
L 47.609375 17.1875 
L 47.609375 0 
L 37.796875 0 
L 37.796875 17.1875 
L 4.890625 17.1875 
L 4.890625 26.703125 
z
" id="DejaVuSans-52"/>
       </defs>
       <use xlink:href="#DejaVuSans-52"/>
      </g>
     </g>
    </g>
    <g id="xtick_4">
     <g id="line2d_7">
      <path clip-path="url(#p84eab12084)" d="M 298.532571 298.944 
L 298.532571 27.648 
" style="fill:none;stroke:#b0b0b0;stroke-linecap:square;stroke-width:0.8;"/>
     </g>
     <g id="line2d_8">
      <g>
       <use style="stroke:#000000;stroke-width:0.8;" x="298.532571" xlink:href="#me7cd109d39" y="298.944"/>
      </g>
     </g>
     <g id="text_4">
      <!-- 6 -->
      <g transform="translate(292.170071 321.140875)scale(0.2 -0.2)">
       <defs>
        <path d="M 33.015625 40.375 
Q 26.375 40.375 22.484375 35.828125 
Q 18.609375 31.296875 18.609375 23.390625 
Q 18.609375 15.53125 22.484375 10.953125 
Q 26.375 6.390625 33.015625 6.390625 
Q 39.65625 6.390625 43.53125 10.953125 
Q 47.40625 15.53125 47.40625 23.390625 
Q 47.40625 31.296875 43.53125 35.828125 
Q 39.65625 40.375 33.015625 40.375 
z
M 52.59375 71.296875 
L 52.59375 62.3125 
Q 48.875 64.0625 45.09375 64.984375 
Q 41.3125 65.921875 37.59375 65.921875 
Q 27.828125 65.921875 22.671875 59.328125 
Q 17.53125 52.734375 16.796875 39.40625 
Q 19.671875 43.65625 24.015625 45.921875 
Q 28.375 48.1875 33.59375 48.1875 
Q 44.578125 48.1875 50.953125 41.515625 
Q 57.328125 34.859375 57.328125 23.390625 
Q 57.328125 12.15625 50.6875 5.359375 
Q 44.046875 -1.421875 33.015625 -1.421875 
Q 20.359375 -1.421875 13.671875 8.265625 
Q 6.984375 17.96875 6.984375 36.375 
Q 6.984375 53.65625 15.1875 63.9375 
Q 23.390625 74.21875 37.203125 74.21875 
Q 40.921875 74.21875 44.703125 73.484375 
Q 48.484375 72.75 52.59375 71.296875 
z
" id="DejaVuSans-54"/>
       </defs>
       <use xlink:href="#DejaVuSans-54"/>
      </g>
     </g>
    </g>
    <g id="xtick_5">
     <g id="line2d_9">
      <path clip-path="url(#p84eab12084)" d="M 97.755429 298.944 
L 97.755429 27.648 
" style="fill:none;stroke:#b0b0b0;stroke-linecap:square;stroke-width:0.8;"/>
     </g>
     <g id="line2d_10">
      <defs>
       <path d="M 0 0 
L 0 2 
" id="m1bfcbb2ad3" style="stroke:#000000;stroke-width:0.6;"/>
      </defs>
      <g>
       <use style="stroke:#000000;stroke-width:0.6;" x="97.755429" xlink:href="#m1bfcbb2ad3" y="298.944"/>
      </g>
     </g>
    </g>
    <g id="xtick_6">
     <g id="line2d_11">
      <path clip-path="url(#p84eab12084)" d="M 178.066286 298.944 
L 178.066286 27.648 
" style="fill:none;stroke:#b0b0b0;stroke-linecap:square;stroke-width:0.8;"/>
     </g>
     <g id="line2d_12">
      <g>
       <use style="stroke:#000000;stroke-width:0.6;" x="178.066286" xlink:href="#m1bfcbb2ad3" y="298.944"/>
      </g>
     </g>
    </g>
    <g id="xtick_7">
     <g id="line2d_13">
      <path clip-path="url(#p84eab12084)" d="M 258.377143 298.944 
L 258.377143 27.648 
" style="fill:none;stroke:#b0b0b0;stroke-linecap:square;stroke-width:0.8;"/>
     </g>
     <g id="line2d_14">
      <g>
       <use style="stroke:#000000;stroke-width:0.6;" x="258.377143" xlink:href="#m1bfcbb2ad3" y="298.944"/>
      </g>
     </g>
    </g>
    <g id="xtick_8">
     <g id="line2d_15">
      <path clip-path="url(#p84eab12084)" d="M 338.688 298.944 
L 338.688 27.648 
" style="fill:none;stroke:#b0b0b0;stroke-linecap:square;stroke-width:0.8;"/>
     </g>
     <g id="line2d_16">
      <g>
       <use style="stroke:#000000;stroke-width:0.6;" x="338.688" xlink:href="#m1bfcbb2ad3" y="298.944"/>
      </g>
     </g>
    </g>
    <g id="text_5">
     <!-- log10(# (f+g)-evals / dimension) -->
     <g transform="translate(58.145016 342.217594)scale(0.17 -0.17)">
      <defs>
       <path d="M 9.421875 75.984375 
L 18.40625 75.984375 
L 18.40625 0 
L 9.421875 0 
z
" id="DejaVuSans-108"/>
       <path d="M 30.609375 48.390625 
Q 23.390625 48.390625 19.1875 42.75 
Q 14.984375 37.109375 14.984375 27.296875 
Q 14.984375 17.484375 19.15625 11.84375 
Q 23.34375 6.203125 30.609375 6.203125 
Q 37.796875 6.203125 41.984375 11.859375 
Q 46.1875 17.53125 46.1875 27.296875 
Q 46.1875 37.015625 41.984375 42.703125 
Q 37.796875 48.390625 30.609375 48.390625 
z
M 30.609375 56 
Q 42.328125 56 49.015625 48.375 
Q 55.71875 40.765625 55.71875 27.296875 
Q 55.71875 13.875 49.015625 6.21875 
Q 42.328125 -1.421875 30.609375 -1.421875 
Q 18.84375 -1.421875 12.171875 6.21875 
Q 5.515625 13.875 5.515625 27.296875 
Q 5.515625 40.765625 12.171875 48.375 
Q 18.84375 56 30.609375 56 
z
" id="DejaVuSans-111"/>
       <path d="M 45.40625 27.984375 
Q 45.40625 37.75 41.375 43.109375 
Q 37.359375 48.484375 30.078125 48.484375 
Q 22.859375 48.484375 18.828125 43.109375 
Q 14.796875 37.75 14.796875 27.984375 
Q 14.796875 18.265625 18.828125 12.890625 
Q 22.859375 7.515625 30.078125 7.515625 
Q 37.359375 7.515625 41.375 12.890625 
Q 45.40625 18.265625 45.40625 27.984375 
z
M 54.390625 6.78125 
Q 54.390625 -7.171875 48.1875 -13.984375 
Q 42 -20.796875 29.203125 -20.796875 
Q 24.46875 -20.796875 20.265625 -20.09375 
Q 16.0625 -19.390625 12.109375 -17.921875 
L 12.109375 -9.1875 
Q 16.0625 -11.328125 19.921875 -12.34375 
Q 23.78125 -13.375 27.78125 -13.375 
Q 36.625 -13.375 41.015625 -8.765625 
Q 45.40625 -4.15625 45.40625 5.171875 
L 45.40625 9.625 
Q 42.625 4.78125 38.28125 2.390625 
Q 33.9375 0 27.875 0 
Q 17.828125 0 11.671875 7.65625 
Q 5.515625 15.328125 5.515625 27.984375 
Q 5.515625 40.671875 11.671875 48.328125 
Q 17.828125 56 27.875 56 
Q 33.9375 56 38.28125 53.609375 
Q 42.625 51.21875 45.40625 46.390625 
L 45.40625 54.6875 
L 54.390625 54.6875 
z
" id="DejaVuSans-103"/>
       <path d="M 12.40625 8.296875 
L 28.515625 8.296875 
L 28.515625 63.921875 
L 10.984375 60.40625 
L 10.984375 69.390625 
L 28.421875 72.90625 
L 38.28125 72.90625 
L 38.28125 8.296875 
L 54.390625 8.296875 
L 54.390625 0 
L 12.40625 0 
z
" id="DejaVuSans-49"/>
       <path d="M 31 75.875 
Q 24.46875 64.65625 21.28125 53.65625 
Q 18.109375 42.671875 18.109375 31.390625 
Q 18.109375 20.125 21.3125 9.0625 
Q 24.515625 -2 31 -13.1875 
L 23.1875 -13.1875 
Q 15.875 -1.703125 12.234375 9.375 
Q 8.59375 20.453125 8.59375 31.390625 
Q 8.59375 42.28125 12.203125 53.3125 
Q 15.828125 64.359375 23.1875 75.875 
z
" id="DejaVuSans-40"/>
       <path d="M 51.125 44 
L 36.921875 44 
L 32.8125 27.6875 
L 47.125 27.6875 
z
M 43.796875 71.78125 
L 38.71875 51.515625 
L 52.984375 51.515625 
L 58.109375 71.78125 
L 65.921875 71.78125 
L 60.890625 51.515625 
L 76.125 51.515625 
L 76.125 44 
L 58.984375 44 
L 54.984375 27.6875 
L 70.515625 27.6875 
L 70.515625 20.21875 
L 53.078125 20.21875 
L 48 0 
L 40.1875 0 
L 45.21875 20.21875 
L 30.90625 20.21875 
L 25.875 0 
L 18.015625 0 
L 23.09375 20.21875 
L 7.71875 20.21875 
L 7.71875 27.6875 
L 24.90625 27.6875 
L 29 44 
L 13.28125 44 
L 13.28125 51.515625 
L 30.90625 51.515625 
L 35.890625 71.78125 
z
" id="DejaVuSans-35"/>
       <path id="DejaVuSans-32"/>
       <path d="M 37.109375 75.984375 
L 37.109375 68.5 
L 28.515625 68.5 
Q 23.6875 68.5 21.796875 66.546875 
Q 19.921875 64.59375 19.921875 59.515625 
L 19.921875 54.6875 
L 34.71875 54.6875 
L 34.71875 47.703125 
L 19.921875 47.703125 
L 19.921875 0 
L 10.890625 0 
L 10.890625 47.703125 
L 2.296875 47.703125 
L 2.296875 54.6875 
L 10.890625 54.6875 
L 10.890625 58.5 
Q 10.890625 67.625 15.140625 71.796875 
Q 19.390625 75.984375 28.609375 75.984375 
z
" id="DejaVuSans-102"/>
       <path d="M 46 62.703125 
L 46 35.5 
L 73.1875 35.5 
L 73.1875 27.203125 
L 46 27.203125 
L 46 0 
L 37.796875 0 
L 37.796875 27.203125 
L 10.59375 27.203125 
L 10.59375 35.5 
L 37.796875 35.5 
L 37.796875 62.703125 
z
" id="DejaVuSans-43"/>
       <path d="M 8.015625 75.875 
L 15.828125 75.875 
Q 23.140625 64.359375 26.78125 53.3125 
Q 30.421875 42.28125 30.421875 31.390625 
Q 30.421875 20.453125 26.78125 9.375 
Q 23.140625 -1.703125 15.828125 -13.1875 
L 8.015625 -13.1875 
Q 14.5 -2 17.703125 9.0625 
Q 20.90625 20.125 20.90625 31.390625 
Q 20.90625 42.671875 17.703125 53.65625 
Q 14.5 64.65625 8.015625 75.875 
z
" id="DejaVuSans-41"/>
       <path d="M 4.890625 31.390625 
L 31.203125 31.390625 
L 31.203125 23.390625 
L 4.890625 23.390625 
z
" id="DejaVuSans-45"/>
       <path d="M 56.203125 29.59375 
L 56.203125 25.203125 
L 14.890625 25.203125 
Q 15.484375 15.921875 20.484375 11.0625 
Q 25.484375 6.203125 34.421875 6.203125 
Q 39.59375 6.203125 44.453125 7.46875 
Q 49.3125 8.734375 54.109375 11.28125 
L 54.109375 2.78125 
Q 49.265625 0.734375 44.1875 -0.34375 
Q 39.109375 -1.421875 33.890625 -1.421875 
Q 20.796875 -1.421875 13.15625 6.1875 
Q 5.515625 13.8125 5.515625 26.8125 
Q 5.515625 40.234375 12.765625 48.109375 
Q 20.015625 56 32.328125 56 
Q 43.359375 56 49.78125 48.890625 
Q 56.203125 41.796875 56.203125 29.59375 
z
M 47.21875 32.234375 
Q 47.125 39.59375 43.09375 43.984375 
Q 39.0625 48.390625 32.421875 48.390625 
Q 24.90625 48.390625 20.390625 44.140625 
Q 15.875 39.890625 15.1875 32.171875 
z
" id="DejaVuSans-101"/>
       <path d="M 2.984375 54.6875 
L 12.5 54.6875 
L 29.59375 8.796875 
L 46.6875 54.6875 
L 56.203125 54.6875 
L 35.6875 0 
L 23.484375 0 
z
" id="DejaVuSans-118"/>
       <path d="M 34.28125 27.484375 
Q 23.390625 27.484375 19.1875 25 
Q 14.984375 22.515625 14.984375 16.5 
Q 14.984375 11.71875 18.140625 8.90625 
Q 21.296875 6.109375 26.703125 6.109375 
Q 34.1875 6.109375 38.703125 11.40625 
Q 43.21875 16.703125 43.21875 25.484375 
L 43.21875 27.484375 
z
M 52.203125 31.203125 
L 52.203125 0 
L 43.21875 0 
L 43.21875 8.296875 
Q 40.140625 3.328125 35.546875 0.953125 
Q 30.953125 -1.421875 24.3125 -1.421875 
Q 15.921875 -1.421875 10.953125 3.296875 
Q 6 8.015625 6 15.921875 
Q 6 25.140625 12.171875 29.828125 
Q 18.359375 34.515625 30.609375 34.515625 
L 43.21875 34.515625 
L 43.21875 35.40625 
Q 43.21875 41.609375 39.140625 45 
Q 35.0625 48.390625 27.6875 48.390625 
Q 23 48.390625 18.546875 47.265625 
Q 14.109375 46.140625 10.015625 43.890625 
L 10.015625 52.203125 
Q 14.9375 54.109375 19.578125 55.046875 
Q 24.21875 56 28.609375 56 
Q 40.484375 56 46.34375 49.84375 
Q 52.203125 43.703125 52.203125 31.203125 
z
" id="DejaVuSans-97"/>
       <path d="M 44.28125 53.078125 
L 44.28125 44.578125 
Q 40.484375 46.53125 36.375 47.5 
Q 32.28125 48.484375 27.875 48.484375 
Q 21.1875 48.484375 17.84375 46.4375 
Q 14.5 44.390625 14.5 40.28125 
Q 14.5 37.15625 16.890625 35.375 
Q 19.28125 33.59375 26.515625 31.984375 
L 29.59375 31.296875 
Q 39.15625 29.25 43.1875 25.515625 
Q 47.21875 21.78125 47.21875 15.09375 
Q 47.21875 7.46875 41.1875 3.015625 
Q 35.15625 -1.421875 24.609375 -1.421875 
Q 20.21875 -1.421875 15.453125 -0.5625 
Q 10.6875 0.296875 5.421875 2 
L 5.421875 11.28125 
Q 10.40625 8.6875 15.234375 7.390625 
Q 20.0625 6.109375 24.8125 6.109375 
Q 31.15625 6.109375 34.5625 8.28125 
Q 37.984375 10.453125 37.984375 14.40625 
Q 37.984375 18.0625 35.515625 20.015625 
Q 33.0625 21.96875 24.703125 23.78125 
L 21.578125 24.515625 
Q 13.234375 26.265625 9.515625 29.90625 
Q 5.8125 33.546875 5.8125 39.890625 
Q 5.8125 47.609375 11.28125 51.796875 
Q 16.75 56 26.8125 56 
Q 31.78125 56 36.171875 55.265625 
Q 40.578125 54.546875 44.28125 53.078125 
z
" id="DejaVuSans-115"/>
       <path d="M 25.390625 72.90625 
L 33.6875 72.90625 
L 8.296875 -9.28125 
L 0 -9.28125 
z
" id="DejaVuSans-47"/>
       <path d="M 45.40625 46.390625 
L 45.40625 75.984375 
L 54.390625 75.984375 
L 54.390625 0 
L 45.40625 0 
L 45.40625 8.203125 
Q 42.578125 3.328125 38.25 0.953125 
Q 33.9375 -1.421875 27.875 -1.421875 
Q 17.96875 -1.421875 11.734375 6.484375 
Q 5.515625 14.40625 5.515625 27.296875 
Q 5.515625 40.1875 11.734375 48.09375 
Q 17.96875 56 27.875 56 
Q 33.9375 56 38.25 53.625 
Q 42.578125 51.265625 45.40625 46.390625 
z
M 14.796875 27.296875 
Q 14.796875 17.390625 18.875 11.75 
Q 22.953125 6.109375 30.078125 6.109375 
Q 37.203125 6.109375 41.296875 11.75 
Q 45.40625 17.390625 45.40625 27.296875 
Q 45.40625 37.203125 41.296875 42.84375 
Q 37.203125 48.484375 30.078125 48.484375 
Q 22.953125 48.484375 18.875 42.84375 
Q 14.796875 37.203125 14.796875 27.296875 
z
" id="DejaVuSans-100"/>
       <path d="M 9.421875 54.6875 
L 18.40625 54.6875 
L 18.40625 0 
L 9.421875 0 
z
M 9.421875 75.984375 
L 18.40625 75.984375 
L 18.40625 64.59375 
L 9.421875 64.59375 
z
" id="DejaVuSans-105"/>
       <path d="M 52 44.1875 
Q 55.375 50.25 60.0625 53.125 
Q 64.75 56 71.09375 56 
Q 79.640625 56 84.28125 50.015625 
Q 88.921875 44.046875 88.921875 33.015625 
L 88.921875 0 
L 79.890625 0 
L 79.890625 32.71875 
Q 79.890625 40.578125 77.09375 44.375 
Q 74.3125 48.1875 68.609375 48.1875 
Q 61.625 48.1875 57.5625 43.546875 
Q 53.515625 38.921875 53.515625 30.90625 
L 53.515625 0 
L 44.484375 0 
L 44.484375 32.71875 
Q 44.484375 40.625 41.703125 44.40625 
Q 38.921875 48.1875 33.109375 48.1875 
Q 26.21875 48.1875 22.15625 43.53125 
Q 18.109375 38.875 18.109375 30.90625 
L 18.109375 0 
L 9.078125 0 
L 9.078125 54.6875 
L 18.109375 54.6875 
L 18.109375 46.1875 
Q 21.1875 51.21875 25.484375 53.609375 
Q 29.78125 56 35.6875 56 
Q 41.65625 56 45.828125 52.96875 
Q 50 49.953125 52 44.1875 
z
" id="DejaVuSans-109"/>
       <path d="M 54.890625 33.015625 
L 54.890625 0 
L 45.90625 0 
L 45.90625 32.71875 
Q 45.90625 40.484375 42.875 44.328125 
Q 39.84375 48.1875 33.796875 48.1875 
Q 26.515625 48.1875 22.3125 43.546875 
Q 18.109375 38.921875 18.109375 30.90625 
L 18.109375 0 
L 9.078125 0 
L 9.078125 54.6875 
L 18.109375 54.6875 
L 18.109375 46.1875 
Q 21.34375 51.125 25.703125 53.5625 
Q 30.078125 56 35.796875 56 
Q 45.21875 56 50.046875 50.171875 
Q 54.890625 44.34375 54.890625 33.015625 
z
" id="DejaVuSans-110"/>
      </defs>
      <use xlink:href="#DejaVuSans-108"/>
      <use x="27.783203" xlink:href="#DejaVuSans-111"/>
      <use x="88.964844" xlink:href="#DejaVuSans-103"/>
      <use x="152.441406" xlink:href="#DejaVuSans-49"/>
      <use x="216.064453" xlink:href="#DejaVuSans-48"/>
      <use x="279.6875" xlink:href="#DejaVuSans-40"/>
      <use x="318.701172" xlink:href="#DejaVuSans-35"/>
      <use x="402.490234" xlink:href="#DejaVuSans-32"/>
      <use x="434.277344" xlink:href="#DejaVuSans-40"/>
      <use x="473.291016" xlink:href="#DejaVuSans-102"/>
      <use x="508.496094" xlink:href="#DejaVuSans-43"/>
      <use x="592.285156" xlink:href="#DejaVuSans-103"/>
      <use x="655.761719" xlink:href="#DejaVuSans-41"/>
      <use x="694.775391" xlink:href="#DejaVuSans-45"/>
      <use x="730.859375" xlink:href="#DejaVuSans-101"/>
      <use x="792.382812" xlink:href="#DejaVuSans-118"/>
      <use x="851.5625" xlink:href="#DejaVuSans-97"/>
      <use x="912.841797" xlink:href="#DejaVuSans-108"/>
      <use x="940.625" xlink:href="#DejaVuSans-115"/>
      <use x="992.724609" xlink:href="#DejaVuSans-32"/>
      <use x="1024.511719" xlink:href="#DejaVuSans-47"/>
      <use x="1058.203125" xlink:href="#DejaVuSans-32"/>
      <use x="1089.990234" xlink:href="#DejaVuSans-100"/>
      <use x="1153.466797" xlink:href="#DejaVuSans-105"/>
      <use x="1181.25" xlink:href="#DejaVuSans-109"/>
      <use x="1278.662109" xlink:href="#DejaVuSans-101"/>
      <use x="1340.185547" xlink:href="#DejaVuSans-110"/>
      <use x="1403.564453" xlink:href="#DejaVuSans-115"/>
      <use x="1455.664062" xlink:href="#DejaVuSans-105"/>
      <use x="1483.447266" xlink:href="#DejaVuSans-111"/>
      <use x="1544.628906" xlink:href="#DejaVuSans-110"/>
      <use x="1608.007812" xlink:href="#DejaVuSans-41"/>
     </g>
    </g>
   </g>
   <g id="matplotlib.axis_2">
    <g id="ytick_1">
     <g id="line2d_17">
      <path clip-path="url(#p84eab12084)" d="M 57.6 298.944 
L 338.688 298.944 
" style="fill:none;stroke:#b0b0b0;stroke-linecap:square;stroke-width:0.8;"/>
     </g>
     <g id="line2d_18">
      <defs>
       <path d="M 0 0 
L -3.5 0 
" id="m766634120e" style="stroke:#000000;stroke-width:0.8;"/>
      </defs>
      <g>
       <use style="stroke:#000000;stroke-width:0.8;" x="57.6" xlink:href="#m766634120e" y="298.944"/>
      </g>
     </g>
     <g id="text_6">
      <!-- 0.0 -->
      <g transform="translate(25.155 305.02275)scale(0.16 -0.16)">
       <defs>
        <path d="M 10.6875 12.40625 
L 21 12.40625 
L 21 0 
L 10.6875 0 
z
" id="DejaVuSans-46"/>
       </defs>
       <use xlink:href="#DejaVuSans-48"/>
       <use x="63.623047" xlink:href="#DejaVuSans-46"/>
       <use x="95.410156" xlink:href="#DejaVuSans-48"/>
      </g>
     </g>
    </g>
    <g id="ytick_2">
     <g id="line2d_19">
      <path clip-path="url(#p84eab12084)" d="M 57.6 245.22202 
L 338.688 245.22202 
" style="fill:none;stroke:#b0b0b0;stroke-linecap:square;stroke-width:0.8;"/>
     </g>
     <g id="line2d_20">
      <g>
       <use style="stroke:#000000;stroke-width:0.8;" x="57.6" xlink:href="#m766634120e" y="245.22202"/>
      </g>
     </g>
     <g id="text_7">
      <!-- 0.2 -->
      <g transform="translate(25.155 251.30077)scale(0.16 -0.16)">
       <use xlink:href="#DejaVuSans-48"/>
       <use x="63.623047" xlink:href="#DejaVuSans-46"/>
       <use x="95.410156" xlink:href="#DejaVuSans-50"/>
      </g>
     </g>
    </g>
    <g id="ytick_3">
     <g id="line2d_21">
      <path clip-path="url(#p84eab12084)" d="M 57.6 191.50004 
L 338.688 191.50004 
" style="fill:none;stroke:#b0b0b0;stroke-linecap:square;stroke-width:0.8;"/>
     </g>
     <g id="line2d_22">
      <g>
       <use style="stroke:#000000;stroke-width:0.8;" x="57.6" xlink:href="#m766634120e" y="191.50004"/>
      </g>
     </g>
     <g id="text_8">
      <!-- 0.4 -->
      <g transform="translate(25.155 197.57879)scale(0.16 -0.16)">
       <use xlink:href="#DejaVuSans-48"/>
       <use x="63.623047" xlink:href="#DejaVuSans-46"/>
       <use x="95.410156" xlink:href="#DejaVuSans-52"/>
      </g>
     </g>
    </g>
    <g id="ytick_4">
     <g id="line2d_23">
      <path clip-path="url(#p84eab12084)" d="M 57.6 137.778059 
L 338.688 137.778059 
" style="fill:none;stroke:#b0b0b0;stroke-linecap:square;stroke-width:0.8;"/>
     </g>
     <g id="line2d_24">
      <g>
       <use style="stroke:#000000;stroke-width:0.8;" x="57.6" xlink:href="#m766634120e" y="137.778059"/>
      </g>
     </g>
     <g id="text_9">
      <!-- 0.6 -->
      <g transform="translate(25.155 143.856809)scale(0.16 -0.16)">
       <use xlink:href="#DejaVuSans-48"/>
       <use x="63.623047" xlink:href="#DejaVuSans-46"/>
       <use x="95.410156" xlink:href="#DejaVuSans-54"/>
      </g>
     </g>
    </g>
    <g id="ytick_5">
     <g id="line2d_25">
      <path clip-path="url(#p84eab12084)" d="M 57.6 84.056079 
L 338.688 84.056079 
" style="fill:none;stroke:#b0b0b0;stroke-linecap:square;stroke-width:0.8;"/>
     </g>
     <g id="line2d_26">
      <g>
       <use style="stroke:#000000;stroke-width:0.8;" x="57.6" xlink:href="#m766634120e" y="84.056079"/>
      </g>
     </g>
     <g id="text_10">
      <!-- 0.8 -->
      <g transform="translate(25.155 90.134829)scale(0.16 -0.16)">
       <defs>
        <path d="M 31.78125 34.625 
Q 24.75 34.625 20.71875 30.859375 
Q 16.703125 27.09375 16.703125 20.515625 
Q 16.703125 13.921875 20.71875 10.15625 
Q 24.75 6.390625 31.78125 6.390625 
Q 38.8125 6.390625 42.859375 10.171875 
Q 46.921875 13.96875 46.921875 20.515625 
Q 46.921875 27.09375 42.890625 30.859375 
Q 38.875 34.625 31.78125 34.625 
z
M 21.921875 38.8125 
Q 15.578125 40.375 12.03125 44.71875 
Q 8.5 49.078125 8.5 55.328125 
Q 8.5 64.0625 14.71875 69.140625 
Q 20.953125 74.21875 31.78125 74.21875 
Q 42.671875 74.21875 48.875 69.140625 
Q 55.078125 64.0625 55.078125 55.328125 
Q 55.078125 49.078125 51.53125 44.71875 
Q 48 40.375 41.703125 38.8125 
Q 48.828125 37.15625 52.796875 32.3125 
Q 56.78125 27.484375 56.78125 20.515625 
Q 56.78125 9.90625 50.3125 4.234375 
Q 43.84375 -1.421875 31.78125 -1.421875 
Q 19.734375 -1.421875 13.25 4.234375 
Q 6.78125 9.90625 6.78125 20.515625 
Q 6.78125 27.484375 10.78125 32.3125 
Q 14.796875 37.15625 21.921875 38.8125 
z
M 18.3125 54.390625 
Q 18.3125 48.734375 21.84375 45.5625 
Q 25.390625 42.390625 31.78125 42.390625 
Q 38.140625 42.390625 41.71875 45.5625 
Q 45.3125 48.734375 45.3125 54.390625 
Q 45.3125 60.0625 41.71875 63.234375 
Q 38.140625 66.40625 31.78125 66.40625 
Q 25.390625 66.40625 21.84375 63.234375 
Q 18.3125 60.0625 18.3125 54.390625 
z
" id="DejaVuSans-56"/>
       </defs>
       <use xlink:href="#DejaVuSans-48"/>
       <use x="63.623047" xlink:href="#DejaVuSans-46"/>
       <use x="95.410156" xlink:href="#DejaVuSans-56"/>
      </g>
     </g>
    </g>
    <g id="ytick_6">
     <g id="line2d_27">
      <path clip-path="url(#p84eab12084)" d="M 57.6 30.334099 
L 338.688 30.334099 
" style="fill:none;stroke:#b0b0b0;stroke-linecap:square;stroke-width:0.8;"/>
     </g>
     <g id="line2d_28">
      <g>
       <use style="stroke:#000000;stroke-width:0.8;" x="57.6" xlink:href="#m766634120e" y="30.334099"/>
      </g>
     </g>
     <g id="text_11">
      <!-- 1.0 -->
      <g transform="translate(25.155 36.412849)scale(0.16 -0.16)">
       <use xlink:href="#DejaVuSans-49"/>
       <use x="63.623047" xlink:href="#DejaVuSans-46"/>
       <use x="95.410156" xlink:href="#DejaVuSans-48"/>
      </g>
     </g>
    </g>
    <g id="text_12">
     <!-- Fraction of function,target pairs -->
     <g transform="translate(17.619531 297.681)rotate(-90)scale(0.17 -0.17)">
      <defs>
       <path d="M 9.8125 72.90625 
L 51.703125 72.90625 
L 51.703125 64.59375 
L 19.671875 64.59375 
L 19.671875 43.109375 
L 48.578125 43.109375 
L 48.578125 34.8125 
L 19.671875 34.8125 
L 19.671875 0 
L 9.8125 0 
z
" id="DejaVuSans-70"/>
       <path d="M 41.109375 46.296875 
Q 39.59375 47.171875 37.8125 47.578125 
Q 36.03125 48 33.890625 48 
Q 26.265625 48 22.1875 43.046875 
Q 18.109375 38.09375 18.109375 28.8125 
L 18.109375 0 
L 9.078125 0 
L 9.078125 54.6875 
L 18.109375 54.6875 
L 18.109375 46.1875 
Q 20.953125 51.171875 25.484375 53.578125 
Q 30.03125 56 36.53125 56 
Q 37.453125 56 38.578125 55.875 
Q 39.703125 55.765625 41.0625 55.515625 
z
" id="DejaVuSans-114"/>
       <path d="M 48.78125 52.59375 
L 48.78125 44.1875 
Q 44.96875 46.296875 41.140625 47.34375 
Q 37.3125 48.390625 33.40625 48.390625 
Q 24.65625 48.390625 19.8125 42.84375 
Q 14.984375 37.3125 14.984375 27.296875 
Q 14.984375 17.28125 19.8125 11.734375 
Q 24.65625 6.203125 33.40625 6.203125 
Q 37.3125 6.203125 41.140625 7.25 
Q 44.96875 8.296875 48.78125 10.40625 
L 48.78125 2.09375 
Q 45.015625 0.34375 40.984375 -0.53125 
Q 36.96875 -1.421875 32.421875 -1.421875 
Q 20.0625 -1.421875 12.78125 6.34375 
Q 5.515625 14.109375 5.515625 27.296875 
Q 5.515625 40.671875 12.859375 48.328125 
Q 20.21875 56 33.015625 56 
Q 37.15625 56 41.109375 55.140625 
Q 45.0625 54.296875 48.78125 52.59375 
z
" id="DejaVuSans-99"/>
       <path d="M 18.3125 70.21875 
L 18.3125 54.6875 
L 36.8125 54.6875 
L 36.8125 47.703125 
L 18.3125 47.703125 
L 18.3125 18.015625 
Q 18.3125 11.328125 20.140625 9.421875 
Q 21.96875 7.515625 27.59375 7.515625 
L 36.8125 7.515625 
L 36.8125 0 
L 27.59375 0 
Q 17.1875 0 13.234375 3.875 
Q 9.28125 7.765625 9.28125 18.015625 
L 9.28125 47.703125 
L 2.6875 47.703125 
L 2.6875 54.6875 
L 9.28125 54.6875 
L 9.28125 70.21875 
z
" id="DejaVuSans-116"/>
       <path d="M 8.5 21.578125 
L 8.5 54.6875 
L 17.484375 54.6875 
L 17.484375 21.921875 
Q 17.484375 14.15625 20.5 10.265625 
Q 23.53125 6.390625 29.59375 6.390625 
Q 36.859375 6.390625 41.078125 11.03125 
Q 45.3125 15.671875 45.3125 23.6875 
L 45.3125 54.6875 
L 54.296875 54.6875 
L 54.296875 0 
L 45.3125 0 
L 45.3125 8.40625 
Q 42.046875 3.421875 37.71875 1 
Q 33.40625 -1.421875 27.6875 -1.421875 
Q 18.265625 -1.421875 13.375 4.4375 
Q 8.5 10.296875 8.5 21.578125 
z
M 31.109375 56 
z
" id="DejaVuSans-117"/>
       <path d="M 11.71875 12.40625 
L 22.015625 12.40625 
L 22.015625 4 
L 14.015625 -11.625 
L 7.71875 -11.625 
L 11.71875 4 
z
" id="DejaVuSans-44"/>
       <path d="M 18.109375 8.203125 
L 18.109375 -20.796875 
L 9.078125 -20.796875 
L 9.078125 54.6875 
L 18.109375 54.6875 
L 18.109375 46.390625 
Q 20.953125 51.265625 25.265625 53.625 
Q 29.59375 56 35.59375 56 
Q 45.5625 56 51.78125 48.09375 
Q 58.015625 40.1875 58.015625 27.296875 
Q 58.015625 14.40625 51.78125 6.484375 
Q 45.5625 -1.421875 35.59375 -1.421875 
Q 29.59375 -1.421875 25.265625 0.953125 
Q 20.953125 3.328125 18.109375 8.203125 
z
M 48.6875 27.296875 
Q 48.6875 37.203125 44.609375 42.84375 
Q 40.53125 48.484375 33.40625 48.484375 
Q 26.265625 48.484375 22.1875 42.84375 
Q 18.109375 37.203125 18.109375 27.296875 
Q 18.109375 17.390625 22.1875 11.75 
Q 26.265625 6.109375 33.40625 6.109375 
Q 40.53125 6.109375 44.609375 11.75 
Q 48.6875 17.390625 48.6875 27.296875 
z
" id="DejaVuSans-112"/>
      </defs>
      <use xlink:href="#DejaVuSans-70"/>
      <use x="50.269531" xlink:href="#DejaVuSans-114"/>
      <use x="91.382812" xlink:href="#DejaVuSans-97"/>
      <use x="152.662109" xlink:href="#DejaVuSans-99"/>
      <use x="207.642578" xlink:href="#DejaVuSans-116"/>
      <use x="246.851562" xlink:href="#DejaVuSans-105"/>
      <use x="274.634766" xlink:href="#DejaVuSans-111"/>
      <use x="335.816406" xlink:href="#DejaVuSans-110"/>
      <use x="399.195312" xlink:href="#DejaVuSans-32"/>
      <use x="430.982422" xlink:href="#DejaVuSans-111"/>
      <use x="492.164062" xlink:href="#DejaVuSans-102"/>
      <use x="527.369141" xlink:href="#DejaVuSans-32"/>
      <use x="559.15625" xlink:href="#DejaVuSans-102"/>
      <use x="594.361328" xlink:href="#DejaVuSans-117"/>
      <use x="657.740234" xlink:href="#DejaVuSans-110"/>
      <use x="721.119141" xlink:href="#DejaVuSans-99"/>
      <use x="776.099609" xlink:href="#DejaVuSans-116"/>
      <use x="815.308594" xlink:href="#DejaVuSans-105"/>
      <use x="843.091797" xlink:href="#DejaVuSans-111"/>
      <use x="904.273438" xlink:href="#DejaVuSans-110"/>
      <use x="967.652344" xlink:href="#DejaVuSans-44"/>
      <use x="999.439453" xlink:href="#DejaVuSans-116"/>
      <use x="1038.648438" xlink:href="#DejaVuSans-97"/>
      <use x="1099.927734" xlink:href="#DejaVuSans-114"/>
      <use x="1139.291016" xlink:href="#DejaVuSans-103"/>
      <use x="1202.767578" xlink:href="#DejaVuSans-101"/>
      <use x="1264.291016" xlink:href="#DejaVuSans-116"/>
      <use x="1303.5" xlink:href="#DejaVuSans-32"/>
      <use x="1335.287109" xlink:href="#DejaVuSans-112"/>
      <use x="1398.763672" xlink:href="#DejaVuSans-97"/>
      <use x="1460.042969" xlink:href="#DejaVuSans-105"/>
      <use x="1487.826172" xlink:href="#DejaVuSans-114"/>
      <use x="1528.939453" xlink:href="#DejaVuSans-115"/>
     </g>
    </g>
   </g>
   <g id="line2d_29">
    <defs>
     <path d="M 0 1.5 
C 0.397805 1.5 0.77937 1.341951 1.06066 1.06066 
C 1.341951 0.77937 1.5 0.397805 1.5 0 
C 1.5 -0.397805 1.341951 -0.77937 1.06066 -1.06066 
C 0.77937 -1.341951 0.397805 -1.5 0 -1.5 
C -0.397805 -1.5 -0.77937 -1.341951 -1.06066 -1.06066 
C -1.341951 -0.77937 -1.5 -0.397805 -1.5 0 
C -1.5 0.397805 -1.341951 0.77937 -1.06066 1.06066 
C -0.77937 1.341951 -0.397805 1.5 0 1.5 
z
" id="m7154c49398" style="stroke:#000080;"/>
    </defs>
    <g>
     <use style="fill:#000080;stroke:#000080;" x="263.582037" xlink:href="#m7154c49398" y="82.745787"/>
     <use style="fill:#000080;stroke:#000080;" x="263.582037" xlink:href="#m7154c49398" y="82.745787"/>
    </g>
   </g>
   <g id="line2d_30">
    <path d="M 110.358901 298.944 
L 110.358901 298.288854 
L 116.202531 298.288854 
L 116.202531 295.013123 
L 118.681952 295.013123 
L 118.786692 293.702831 
L 119.996839 293.702831 
L 119.996839 293.047685 
L 123.829748 293.047685 
L 123.829748 292.392539 
L 124.891598 292.392539 
L 124.891598 291.737393 
L 127.611382 291.737393 
L 127.611382 290.427101 
L 128.650105 290.427101 
L 128.650105 289.771955 
L 131.839545 289.771955 
L 131.839545 288.461662 
L 135.076644 288.461662 
L 135.117629 287.15137 
L 136.150782 287.15137 
L 136.150782 286.496224 
L 136.68274 286.496224 
L 136.68274 285.841078 
L 136.79465 285.841078 
L 136.79465 285.185932 
L 137.126135 285.185932 
L 137.126135 284.530786 
L 137.52291 284.530786 
L 137.629572 283.220494 
L 137.770782 283.220494 
L 137.770782 282.565348 
L 138.049816 282.565348 
L 138.049816 280.599909 
L 138.290362 280.599909 
L 138.290362 279.944763 
L 138.661784 279.944763 
L 138.661784 276.669033 
L 139.381706 276.669033 
L 139.381706 276.013887 
L 139.636299 276.013887 
L 139.636299 275.35874 
L 139.9494 275.35874 
L 139.9494 274.703594 
L 140.589166 274.703594 
L 140.589166 274.048448 
L 141.549369 274.048448 
L 141.549369 273.393302 
L 142.161336 273.393302 
L 142.161336 272.738156 
L 143.144465 272.738156 
L 143.144465 272.08301 
L 143.375453 272.08301 
L 143.375453 271.427864 
L 146.129168 271.427864 
L 146.129168 270.772718 
L 146.516724 270.772718 
L 146.538004 269.462426 
L 146.916676 269.462426 
L 146.916676 268.807279 
L 148.714503 268.807279 
L 148.714503 268.152133 
L 149.232356 268.152133 
L 149.232356 267.496987 
L 150.068464 267.496987 
L 150.068464 266.841841 
L 150.849711 266.841841 
L 150.932558 265.531549 
L 151.818809 265.531549 
L 151.818809 264.876403 
L 152.26858 264.876403 
L 152.26858 264.221257 
L 152.572143 264.221257 
L 152.572143 263.566111 
L 152.870513 263.566111 
L 152.870513 262.255818 
L 153.693887 262.255818 
L 153.693887 261.600672 
L 153.918189 261.600672 
L 153.918189 260.945526 
L 154.19457 260.945526 
L 154.208275 259.635234 
L 156.175347 259.635234 
L 156.175347 258.980088 
L 156.370066 258.980088 
L 156.370066 258.324942 
L 157.023299 258.324942 
L 157.093102 257.01465 
L 159.324282 257.01465 
L 159.375289 255.704357 
L 159.728221 255.704357 
L 159.788013 253.083773 
L 160.093714 253.083773 
L 160.093714 252.428627 
L 162.00818 252.428627 
L 162.112973 251.118335 
L 162.644595 251.118335 
L 162.644595 250.463189 
L 162.929393 250.463189 
L 162.929393 249.808043 
L 163.597709 249.808043 
L 163.597709 249.152896 
L 164.622474 249.152896 
L 164.622474 248.49775 
L 165.950372 248.49775 
L 165.950372 247.842604 
L 166.213873 247.842604 
L 166.213873 247.187458 
L 167.06015 247.187458 
L 167.06015 246.532312 
L 167.190782 246.532312 
L 167.190782 245.877166 
L 168.554604 245.877166 
L 168.554604 245.22202 
L 168.692465 245.22202 
L 168.692465 244.566874 
L 169.27373 244.566874 
L 169.27373 243.256582 
L 170.435289 243.256582 
L 170.435289 242.601435 
L 170.612667 242.601435 
L 170.612667 241.946289 
L 171.473461 241.946289 
L 171.473461 241.291143 
L 171.585089 241.291143 
L 171.585089 240.635997 
L 172.078757 240.635997 
L 172.078757 239.980851 
L 172.83878 239.980851 
L 172.83878 239.325705 
L 173.067909 239.325705 
L 173.067909 238.670559 
L 173.458374 238.670559 
L 173.535429 237.360267 
L 174.579904 237.360267 
L 174.579904 236.049974 
L 174.83783 236.049974 
L 174.904856 234.739682 
L 175.85677 234.739682 
L 175.85677 234.084536 
L 176.313925 234.084536 
L 176.313925 233.42939 
L 178.232904 233.42939 
L 178.232904 232.119098 
L 179.835901 232.119098 
L 179.835901 231.463952 
L 180.014607 231.463952 
L 180.014607 230.808806 
L 182.220831 230.808806 
L 182.220831 228.843367 
L 182.466459 228.843367 
L 182.496245 226.877929 
L 182.660501 226.877929 
L 182.723369 225.567637 
L 183.976421 225.567637 
L 183.976421 224.912491 
L 184.689818 224.912491 
L 184.689818 224.257345 
L 185.2901 224.257345 
L 185.368293 222.291906 
L 185.498599 222.291906 
L 185.498599 221.63676 
L 185.724881 221.63676 
L 185.724881 220.981614 
L 185.917162 220.981614 
L 185.917162 219.671322 
L 186.102947 219.671322 
L 186.184157 218.36103 
L 186.740158 218.36103 
L 186.776179 217.050738 
L 187.011649 217.050738 
L 187.047114 214.430153 
L 187.22749 214.430153 
L 187.26046 211.809569 
L 187.344664 211.809569 
L 187.344664 211.154423 
L 187.530114 211.154423 
L 187.530114 210.499277 
L 187.657357 210.499277 
L 187.657357 209.84413 
L 188.441398 209.84413 
L 188.522973 207.223546 
L 188.681193 207.223546 
L 188.681193 206.5684 
L 189.246901 206.5684 
L 189.246901 205.913254 
L 189.945502 205.913254 
L 189.945502 205.258108 
L 190.252529 205.258108 
L 190.252529 204.602962 
L 190.456822 204.602962 
L 190.526099 203.292669 
L 190.686682 203.292669 
L 190.696828 201.327231 
L 190.893504 201.327231 
L 190.965233 200.016939 
L 191.615503 200.016939 
L 191.665149 198.706647 
L 191.873396 198.706647 
L 191.873396 198.051501 
L 192.511064 198.051501 
L 192.528575 196.741208 
L 192.637057 196.741208 
L 192.637057 196.086062 
L 193.66706 196.086062 
L 193.72755 194.77577 
L 194.319124 194.77577 
L 194.319124 194.120624 
L 195.043469 194.120624 
L 195.043469 193.465478 
L 195.253015 193.465478 
L 195.253015 192.810332 
L 195.627791 192.810332 
L 195.640528 191.50004 
L 196.209812 191.50004 
L 196.209812 190.844894 
L 196.655711 190.844894 
L 196.655711 190.189747 
L 196.883647 190.189747 
L 196.883647 189.534601 
L 197.33886 189.534601 
L 197.426426 188.224309 
L 197.809497 188.224309 
L 197.913746 186.258871 
L 198.091654 186.258871 
L 198.156803 184.948579 
L 198.217316 184.948579 
L 198.220061 183.638286 
L 198.486515 183.638286 
L 198.588956 181.672848 
L 198.728171 181.672848 
L 198.728171 181.017702 
L 199.134061 181.017702 
L 199.134061 180.362556 
L 199.317025 180.362556 
L 199.317025 179.70741 
L 199.585638 179.70741 
L 199.607964 178.397118 
L 199.722188 178.397118 
L 199.786048 176.431679 
L 199.93349 176.431679 
L 199.93349 175.776533 
L 200.719773 175.776533 
L 200.719773 175.121387 
L 201.030043 175.121387 
L 201.030043 174.466241 
L 201.43244 174.466241 
L 201.43244 173.811095 
L 201.967623 173.811095 
L 201.967623 173.155949 
L 202.208223 173.155949 
L 202.208223 172.500803 
L 202.558517 172.500803 
L 202.558517 171.845657 
L 203.122998 171.845657 
L 203.223023 170.535364 
L 203.295409 170.535364 
L 203.383021 169.225072 
L 203.705095 169.225072 
L 203.705095 168.569926 
L 204.074791 168.569926 
L 204.164831 167.259634 
L 205.260856 167.259634 
L 205.36505 165.294196 
L 205.38545 165.294196 
L 205.417459 163.983903 
L 205.498673 163.983903 
L 205.498673 163.328757 
L 206.987248 163.328757 
L 207.083961 160.708173 
L 207.125527 160.708173 
L 207.125527 160.053027 
L 207.476517 160.053027 
L 207.476517 159.397881 
L 207.729153 159.397881 
L 207.734245 158.087589 
L 207.962485 158.087589 
L 207.962485 157.432442 
L 208.429164 157.432442 
L 208.429164 156.777296 
L 208.765908 156.777296 
L 208.819212 155.467004 
L 208.932763 155.467004 
L 209.002435 154.156712 
L 209.28594 154.156712 
L 209.28594 153.501566 
L 210.001455 153.501566 
L 210.001455 152.84642 
L 210.42134 152.84642 
L 210.436881 151.536128 
L 210.66619 151.536128 
L 210.750974 149.570689 
L 211.304958 149.570689 
L 211.304958 148.915543 
L 211.52653 148.915543 
L 211.599341 147.605251 
L 211.670072 147.605251 
L 211.670072 146.950105 
L 212.05057 146.950105 
L 212.05057 146.294959 
L 212.29725 146.294959 
L 212.29725 145.639813 
L 212.918734 145.639813 
L 212.918734 144.984667 
L 213.137417 144.984667 
L 213.137417 144.32952 
L 213.374588 144.32952 
L 213.374588 143.674374 
L 213.556015 143.674374 
L 213.659624 142.364082 
L 213.948544 142.364082 
L 213.948544 141.708936 
L 214.32262 141.708936 
L 214.32262 141.05379 
L 214.487151 141.05379 
L 214.536123 139.743498 
L 214.692043 139.743498 
L 214.797839 138.433206 
L 215.320076 138.433206 
L 215.320076 137.778059 
L 216.437701 137.778059 
L 216.466075 136.467767 
L 216.576429 136.467767 
L 216.576429 135.812621 
L 216.798091 135.812621 
L 216.798091 135.157475 
L 217.08188 135.157475 
L 217.090255 133.847183 
L 217.218182 133.847183 
L 217.218182 133.192037 
L 217.67182 133.192037 
L 217.67182 132.536891 
L 217.944682 132.536891 
L 217.972301 131.226598 
L 218.117816 131.226598 
L 218.117816 130.571452 
L 218.244022 130.571452 
L 218.244022 129.916306 
L 218.50231 129.916306 
L 218.572699 127.295722 
L 218.888583 127.295722 
L 218.888583 126.640576 
L 219.037 126.640576 
L 219.112727 125.330284 
L 219.65887 125.330284 
L 219.76997 124.019991 
L 220.136628 124.019991 
L 220.136628 123.364845 
L 220.709185 123.364845 
L 220.766701 122.054553 
L 221.066737 122.054553 
L 221.066737 121.399407 
L 221.414781 121.399407 
L 221.414781 120.744261 
L 221.653614 120.744261 
L 221.653614 120.089115 
L 221.976336 120.089115 
L 221.976336 119.433969 
L 222.268046 119.433969 
L 222.268046 118.778823 
L 222.566922 118.778823 
L 222.618771 117.46853 
L 222.743551 117.46853 
L 222.82102 116.158238 
L 223.352061 116.158238 
L 223.352061 115.503092 
L 225.108184 115.503092 
L 225.108184 114.847946 
L 225.857025 114.847946 
L 225.880872 113.537654 
L 226.4093 113.537654 
L 226.4093 112.882508 
L 228.077011 112.882508 
L 228.077011 112.227362 
L 229.73234 112.227362 
L 229.73234 111.572215 
L 230.198961 111.572215 
L 230.279332 110.261923 
L 230.805112 110.261923 
L 230.805112 109.606777 
L 231.113418 109.606777 
L 231.113418 108.951631 
L 231.235975 108.951631 
L 231.235975 108.296485 
L 231.496302 108.296485 
L 231.496302 107.641339 
L 231.620655 107.641339 
L 231.620655 106.986193 
L 231.897728 106.986193 
L 231.897728 106.331047 
L 232.269717 106.331047 
L 232.269717 105.675901 
L 232.400609 105.675901 
L 232.400609 105.020754 
L 232.553006 105.020754 
L 232.611179 103.710462 
L 232.938435 103.710462 
L 232.938435 103.055316 
L 233.492239 103.055316 
L 233.492239 102.40017 
L 233.898885 102.40017 
L 233.898885 101.745024 
L 234.130919 101.745024 
L 234.130919 101.089878 
L 234.802922 101.089878 
L 234.832414 99.779586 
L 235.771366 99.779586 
L 235.771366 99.12444 
L 236.441662 99.12444 
L 236.441662 98.469293 
L 236.620975 98.469293 
L 236.688364 97.159001 
L 237.992842 97.159001 
L 237.992842 96.503855 
L 239.134943 96.503855 
L 239.151966 95.193563 
L 240.719795 95.193563 
L 240.829803 93.883271 
L 241.914442 93.883271 
L 241.914442 93.228125 
L 242.756152 93.228125 
L 242.756152 92.572979 
L 244.448487 92.572979 
L 244.448487 91.917832 
L 244.885729 91.917832 
L 244.885729 91.262686 
L 246.262661 91.262686 
L 246.262661 90.60754 
L 247.189444 90.60754 
L 247.189444 89.952394 
L 248.007391 89.952394 
L 248.007391 89.297248 
L 249.891334 89.297248 
L 249.891334 88.642102 
L 250.153056 88.642102 
L 250.153056 87.986956 
L 250.66264 87.986956 
L 250.66264 87.33181 
L 251.226322 87.33181 
L 251.226322 86.676664 
L 251.682343 86.676664 
L 251.682343 86.021518 
L 252.23075 86.021518 
L 252.23075 85.366371 
L 255.503637 85.366371 
L 255.503637 84.711225 
L 258.619943 84.711225 
L 258.619943 84.056079 
L 262.084427 84.056079 
L 262.084427 83.400933 
L 263.582037 83.400933 
L 263.582037 82.745787 
L 338.688 82.745787 
L 338.688 82.745787 
" style="fill:none;stroke:#000080;stroke-linecap:square;stroke-width:1.5;"/>
   </g>
   <g id="line2d_31">
    <defs>
     <path d="M 0 6 
C 1.591219 6 3.117479 5.367802 4.242641 4.242641 
C 5.367802 3.117479 6 1.591219 6 0 
C 6 -1.591219 5.367802 -3.117479 4.242641 -4.242641 
C 3.117479 -5.367802 1.591219 -6 0 -6 
C -1.591219 -6 -3.117479 -5.367802 -4.242641 -4.242641 
C -5.367802 -3.117479 -6 -1.591219 -6 0 
C -6 1.591219 -5.367802 3.117479 -4.242641 4.242641 
C -3.117479 5.367802 -1.591219 6 0 6 
z
" id="me938982daf" style="stroke:#000080;stroke-width:1.5;"/>
    </defs>
    <g>
     <use style="fill-opacity:0;stroke:#000080;stroke-width:1.5;" x="164.622474" xlink:href="#me938982daf" y="248.49775"/>
     <use style="fill-opacity:0;stroke:#000080;stroke-width:1.5;" x="199.585638" xlink:href="#me938982daf" y="179.052264"/>
     <use style="fill-opacity:0;stroke:#000080;stroke-width:1.5;" x="252.23075" xlink:href="#me938982daf" y="86.021518"/>
     <use style="fill-opacity:0;stroke:#000080;stroke-width:1.5;" x="263.582037" xlink:href="#me938982daf" y="82.745787"/>
     <use style="fill-opacity:0;stroke:#000080;stroke-width:1.5;" x="338.688" xlink:href="#me938982daf" y="82.745787"/>
    </g>
   </g>
   <g id="line2d_32">
    <path style="fill:none;stroke:#000080;stroke-linecap:square;stroke-width:1.5;"/>
    <g/>
   </g>
   <g id="line2d_33">
    <path clip-path="url(#p84eab12084)" d="M 197.233431 189.534601 
" style="fill:none;stroke:#000080;stroke-linecap:square;stroke-width:1.5;"/>
    <defs>
     <path d="M -12 12 
L 12 -12 
M -12 -12 
L 12 12 
" id="mfe6a28b7c7" style="stroke:#000080;"/>
    </defs>
    <g clip-path="url(#p84eab12084)">
     <use style="fill:#000080;stroke:#000080;" x="197.233431" xlink:href="#mfe6a28b7c7" y="189.534601"/>
    </g>
   </g>
   <g id="line2d_34">
    <defs>
     <path d="M 0 1.5 
C 0.397805 1.5 0.77937 1.341951 1.06066 1.06066 
C 1.341951 0.77937 1.5 0.397805 1.5 0 
C 1.5 -0.397805 1.341951 -0.77937 1.06066 -1.06066 
C 0.77937 -1.341951 0.397805 -1.5 0 -1.5 
C -0.397805 -1.5 -0.77937 -1.341951 -1.06066 -1.06066 
C -1.341951 -0.77937 -1.5 -0.397805 -1.5 0 
C -1.5 0.397805 -1.341951 0.77937 -1.06066 1.06066 
C -0.77937 1.341951 -0.397805 1.5 0 1.5 
z
" id="m831cc501cf" style="stroke:#ff00ff;"/>
    </defs>
    <g>
     <use style="fill:#ff00ff;stroke:#ff00ff;" x="265.725818" xlink:href="#m831cc501cf" y="30.334099"/>
     <use style="fill:#ff00ff;stroke:#ff00ff;" x="265.725818" xlink:href="#m831cc501cf" y="30.334099"/>
    </g>
   </g>
   <g id="line2d_35">
    <path d="M 111.663381 298.944 
L 111.663381 298.288854 
L 113.022974 298.288854 
L 113.022974 297.633708 
L 113.453595 297.633708 
L 113.453595 296.978562 
L 118.786692 296.978562 
L 118.786692 296.323416 
L 118.994305 296.323416 
L 118.994305 295.66827 
L 120.852343 295.66827 
L 120.852343 294.357977 
L 122.362027 294.357977 
L 122.362027 293.702831 
L 122.782271 293.702831 
L 122.782271 293.047685 
L 123.029641 293.047685 
L 123.111324 291.737393 
L 126.304457 291.737393 
L 126.304457 291.082247 
L 126.439646 291.082247 
L 126.439646 290.427101 
L 126.773103 290.427101 
L 126.773103 289.771955 
L 127.165014 289.771955 
L 127.165014 289.116809 
L 127.736845 289.116809 
L 127.736845 288.461662 
L 128.046609 288.461662 
L 128.046609 287.15137 
L 128.650105 287.15137 
L 128.650105 286.496224 
L 129.963666 286.496224 
L 129.963666 285.841078 
L 130.76994 285.841078 
L 130.76994 285.185932 
L 131.287464 285.185932 
L 131.287464 284.530786 
L 131.938072 284.530786 
L 131.938072 283.87564 
L 132.986651 283.87564 
L 132.986651 283.220494 
L 133.398082 283.220494 
L 133.398082 282.565348 
L 133.711505 282.565348 
L 133.711505 281.910201 
L 135.035562 281.910201 
L 135.035562 281.255055 
L 135.321124 281.255055 
L 135.321124 280.599909 
L 135.641855 280.599909 
L 135.641855 279.944763 
L 136.720123 279.944763 
L 136.720123 278.634471 
L 136.979586 278.634471 
L 136.979586 277.979325 
L 137.271464 277.979325 
L 137.271464 276.669033 
L 137.70032 276.669033 
L 137.70032 276.013887 
L 138.084384 276.013887 
L 138.084384 275.35874 
L 138.561269 275.35874 
L 138.661784 274.048448 
L 139.058148 274.048448 
L 139.058148 273.393302 
L 139.604677 273.393302 
L 139.604677 272.738156 
L 140.317849 272.738156 
L 140.317849 272.08301 
L 140.589166 272.08301 
L 140.589166 270.772718 
L 141.177393 270.772718 
L 141.20629 269.462426 
L 141.435758 269.462426 
L 141.435758 268.807279 
L 141.968939 268.807279 
L 141.968939 268.152133 
L 142.188649 268.152133 
L 142.188649 267.496987 
L 142.486301 267.496987 
L 142.486301 266.841841 
L 142.962669 266.841841 
L 143.066785 265.531549 
L 143.778691 265.531549 
L 143.778691 264.221257 
L 144.438701 264.221257 
L 144.438701 263.566111 
L 144.794859 263.566111 
L 144.841802 262.255818 
L 145.395476 262.255818 
L 145.395476 260.945526 
L 145.777292 260.945526 
L 145.799493 259.635234 
L 146.999721 259.635234 
L 146.999721 258.980088 
L 147.348313 258.980088 
L 147.348313 258.324942 
L 148.044783 258.324942 
L 148.044783 257.669796 
L 148.161434 257.669796 
L 148.161434 257.01465 
L 148.582601 257.01465 
L 148.582601 256.359504 
L 148.826773 256.359504 
L 148.826773 255.704357 
L 149.735275 255.704357 
L 149.735275 255.049211 
L 150.598782 255.049211 
L 150.598782 254.394065 
L 151.080698 254.394065 
L 151.080698 253.738919 
L 151.292481 253.738919 
L 151.357131 251.773481 
L 151.724287 251.773481 
L 151.724287 251.118335 
L 152.207228 251.118335 
L 152.207228 250.463189 
L 153.003132 250.463189 
L 153.003132 249.808043 
L 153.178403 249.808043 
L 153.178403 249.152896 
L 154.098334 249.152896 
L 154.098334 247.842604 
L 154.221969 247.842604 
L 154.221969 247.187458 
L 154.493614 247.187458 
L 154.587699 245.877166 
L 155.296925 245.877166 
L 155.296925 245.22202 
L 155.854218 245.22202 
L 155.854218 244.566874 
L 156.064855 244.566874 
L 156.064855 241.946289 
L 156.526689 241.946289 
L 156.526689 239.980851 
L 156.646219 239.980851 
L 156.681918 238.670559 
L 157.093102 238.670559 
L 157.093102 238.015413 
L 157.820792 238.015413 
L 157.820792 237.360267 
L 158.075062 237.360267 
L 158.075062 236.705121 
L 158.540715 236.705121 
L 158.540715 236.049974 
L 158.868869 236.049974 
L 158.868869 235.394828 
L 159.507213 235.394828 
L 159.507213 234.739682 
L 160.566247 234.739682 
L 160.566247 234.084536 
L 160.970627 234.084536 
L 160.970627 233.42939 
L 161.091058 233.42939 
L 161.091058 232.774244 
L 161.555647 232.774244 
L 161.555647 232.119098 
L 161.743409 232.119098 
L 161.743409 231.463952 
L 161.955547 231.463952 
L 162.02569 230.15366 
L 162.779197 230.15366 
L 162.779197 229.498513 
L 163.764822 229.498513 
L 163.764822 228.843367 
L 163.938192 228.843367 
L 163.938192 228.188221 
L 164.675172 228.188221 
L 164.675172 227.533075 
L 165.682828 227.533075 
L 165.682828 226.877929 
L 166.608536 226.877929 
L 166.702476 225.567637 
L 166.928532 225.567637 
L 166.928532 224.912491 
L 167.785687 224.912491 
L 167.785687 224.257345 
L 168.103511 224.257345 
L 168.103511 223.602199 
L 168.638649 223.602199 
L 168.638649 222.947052 
L 169.802665 222.947052 
L 169.802665 222.291906 
L 169.914348 222.291906 
L 169.914348 221.63676 
L 170.354063 221.63676 
L 170.354063 220.981614 
L 170.81471 220.981614 
L 170.81471 220.326468 
L 171.077038 220.326468 
L 171.118647 218.36103 
L 171.49381 218.36103 
L 171.49381 217.705884 
L 172.298614 217.705884 
L 172.298614 217.050738 
L 172.534903 217.050738 
L 172.62567 213.119861 
L 172.647099 213.119861 
L 172.647099 212.464715 
L 172.984089 212.464715 
L 172.984089 211.154423 
L 174.639439 211.154423 
L 174.639439 210.499277 
L 174.842027 210.499277 
L 174.858804 209.188984 
L 176.217244 209.188984 
L 176.313925 207.878692 
L 176.456036 207.878692 
L 176.456036 207.223546 
L 177.288859 207.223546 
L 177.288859 206.5684 
L 180.409359 206.5684 
L 180.409359 205.913254 
L 180.896488 205.913254 
L 180.896488 205.258108 
L 181.525523 205.258108 
L 181.525523 203.292669 
L 181.642403 203.292669 
L 181.642403 202.637523 
L 182.598749 202.637523 
L 182.649777 199.361793 
L 182.831188 199.361793 
L 182.831188 198.706647 
L 183.140275 198.706647 
L 183.206636 196.741208 
L 183.511749 196.741208 
L 183.543625 193.465478 
L 183.693297 193.465478 
L 183.693297 192.810332 
L 184.822907 192.810332 
L 184.822907 192.155186 
L 184.980815 192.155186 
L 184.980815 191.50004 
L 185.502015 191.50004 
L 185.502015 190.844894 
L 186.963553 190.844894 
L 186.994935 189.534601 
L 187.869375 189.534601 
L 187.869375 188.879455 
L 188.292624 188.879455 
L 188.292624 188.224309 
L 188.854907 188.224309 
L 188.854907 187.569163 
L 189.440551 187.569163 
L 189.440551 186.914017 
L 189.671562 186.914017 
L 189.671562 186.258871 
L 190.107124 186.258871 
L 190.161249 184.948579 
L 191.164683 184.948579 
L 191.164683 184.293433 
L 191.986802 184.293433 
L 192.016606 182.98314 
L 192.353435 182.98314 
L 192.353435 182.327994 
L 192.508017 182.327994 
L 192.508017 181.672848 
L 192.968159 181.672848 
L 192.968159 181.017702 
L 194.014318 181.017702 
L 194.016415 179.70741 
L 194.840708 179.70741 
L 194.895274 178.397118 
L 195.393049 178.397118 
L 195.393049 177.741972 
L 195.785074 177.741972 
L 195.785074 177.086825 
L 197.414929 177.086825 
L 197.488377 175.776533 
L 197.957279 175.776533 
L 197.957279 175.121387 
L 198.165617 175.121387 
L 198.257906 173.155949 
L 198.586806 173.155949 
L 198.586806 172.500803 
L 198.792051 172.500803 
L 198.864167 171.190511 
L 198.984402 171.190511 
L 199.050494 169.880218 
L 199.160093 169.880218 
L 199.24728 168.569926 
L 199.414203 168.569926 
L 199.414203 167.91478 
L 199.543955 167.91478 
L 199.543955 167.259634 
L 200.243765 167.259634 
L 200.243765 166.604488 
L 200.751144 166.604488 
L 200.751144 165.949342 
L 201.022564 165.949342 
L 201.07019 163.983903 
L 201.253871 163.983903 
L 201.328459 162.673611 
L 201.419191 162.673611 
L 201.460277 161.363319 
L 201.556677 161.363319 
L 201.556677 160.708173 
L 201.740716 160.708173 
L 201.740716 160.053027 
L 201.957876 160.053027 
L 201.957876 159.397881 
L 202.289285 159.397881 
L 202.36218 158.087589 
L 202.426146 158.087589 
L 202.490308 156.12215 
L 202.585041 156.12215 
L 202.628592 154.811858 
L 202.792422 154.811858 
L 202.858199 152.191274 
L 203.029067 152.191274 
L 203.070692 150.225835 
L 203.267477 150.225835 
L 203.371991 148.260397 
L 203.623924 148.260397 
L 203.623924 147.605251 
L 203.86949 147.605251 
L 203.902025 146.294959 
L 204.298639 146.294959 
L 204.298639 145.639813 
L 204.65533 145.639813 
L 204.65533 144.984667 
L 204.936269 144.984667 
L 204.936269 144.32952 
L 205.146072 144.32952 
L 205.146072 143.674374 
L 205.494332 143.674374 
L 205.494332 143.019228 
L 205.746492 143.019228 
L 205.746492 142.364082 
L 205.980285 142.364082 
L 205.980285 141.708936 
L 206.112786 141.708936 
L 206.112786 141.05379 
L 206.527558 141.05379 
L 206.527558 140.398644 
L 207.606498 140.398644 
L 207.676236 138.433206 
L 207.873694 138.433206 
L 207.873694 137.778059 
L 208.08766 137.778059 
L 208.093584 136.467767 
L 208.198935 136.467767 
L 208.198935 135.812621 
L 208.67811 135.812621 
L 208.711838 134.502329 
L 209.102157 134.502329 
L 209.208332 133.192037 
L 209.933988 133.192037 
L 210.00397 131.881745 
L 210.082574 131.881745 
L 210.082574 131.226598 
L 210.376003 131.226598 
L 210.455674 129.916306 
L 210.88854 129.916306 
L 210.989686 124.675137 
L 211.046094 124.675137 
L 211.106517 122.709699 
L 211.190759 122.709699 
L 211.190759 122.054553 
L 211.41893 122.054553 
L 211.41893 121.399407 
L 211.624308 121.399407 
L 211.624308 120.744261 
L 211.770838 120.744261 
L 211.770838 120.089115 
L 212.149908 120.089115 
L 212.191112 118.778823 
L 212.902181 118.778823 
L 212.946603 117.46853 
L 213.029005 117.46853 
L 213.029005 116.813384 
L 213.844402 116.813384 
L 213.90437 115.503092 
L 214.239988 115.503092 
L 214.326327 113.537654 
L 214.762999 113.537654 
L 214.838115 111.572215 
L 214.928502 111.572215 
L 215.032458 110.261923 
L 215.572806 110.261923 
L 215.572806 109.606777 
L 215.995166 109.606777 
L 215.995166 108.951631 
L 216.112074 108.951631 
L 216.209228 106.986193 
L 216.254772 106.986193 
L 216.33929 104.365608 
L 216.400959 104.365608 
L 216.407153 103.055316 
L 216.877009 103.055316 
L 216.877009 102.40017 
L 217.130032 102.40017 
L 217.226308 101.089878 
L 217.33417 101.089878 
L 217.33417 100.434732 
L 217.700233 100.434732 
L 217.700233 99.779586 
L 217.86619 99.779586 
L 217.86619 99.12444 
L 218.600536 99.12444 
L 218.600536 98.469293 
L 218.747354 98.469293 
L 218.747354 97.814147 
L 218.868765 97.814147 
L 218.868765 97.159001 
L 219.573707 97.159001 
L 219.610624 95.193563 
L 219.857518 95.193563 
L 219.857518 94.538417 
L 220.120995 94.538417 
L 220.120995 93.883271 
L 220.265532 93.883271 
L 220.305194 91.917832 
L 220.453436 91.917832 
L 220.507671 90.60754 
L 220.628099 90.60754 
L 220.628099 89.952394 
L 220.93633 89.952394 
L 220.960492 88.642102 
L 221.583429 88.642102 
L 221.583429 87.986956 
L 221.74405 87.986956 
L 221.802945 86.676664 
L 222.122383 86.676664 
L 222.227067 85.366371 
L 222.340217 85.366371 
L 222.340217 84.711225 
L 222.698954 84.711225 
L 222.698954 84.056079 
L 222.981838 84.056079 
L 223.070677 82.745787 
L 223.165371 82.745787 
L 223.213377 81.435495 
L 223.421962 81.435495 
L 223.421962 80.780349 
L 223.628849 80.780349 
L 223.628849 80.125203 
L 223.780644 80.125203 
L 223.780644 79.470057 
L 224.033153 79.470057 
L 224.033153 78.81491 
L 224.389402 78.81491 
L 224.440753 77.504618 
L 225.246401 77.504618 
L 225.331523 75.53918 
L 225.921179 75.53918 
L 226.011559 74.228888 
L 226.476346 74.228888 
L 226.476346 73.573742 
L 226.678423 73.573742 
L 226.678423 72.918596 
L 226.812669 72.918596 
L 226.812669 72.263449 
L 228.339246 72.263449 
L 228.339246 71.608303 
L 228.575266 71.608303 
L 228.668058 69.642865 
L 229.271963 69.642865 
L 229.271963 68.987719 
L 229.67257 68.987719 
L 229.67257 68.332573 
L 230.214048 68.332573 
L 230.214048 67.677427 
L 231.198312 67.677427 
L 231.208916 66.367135 
L 231.448174 66.367135 
L 231.448174 65.711988 
L 232.256932 65.711988 
L 232.256932 65.056842 
L 232.451042 65.056842 
L 232.451042 64.401696 
L 232.572393 64.401696 
L 232.627677 63.091404 
L 232.720796 63.091404 
L 232.77917 61.781112 
L 233.27659 61.781112 
L 233.310099 60.47082 
L 233.7718 60.47082 
L 233.7718 59.815674 
L 234.258134 59.815674 
L 234.258134 59.160527 
L 234.512761 59.160527 
L 234.512761 58.505381 
L 234.83645 58.505381 
L 234.83645 57.850235 
L 235.654439 57.850235 
L 235.756697 56.539943 
L 235.874338 56.539943 
L 235.874338 55.884797 
L 236.200939 55.884797 
L 236.200939 55.229651 
L 236.35803 55.229651 
L 236.386116 53.919359 
L 236.916886 53.919359 
L 236.916886 53.264213 
L 237.316428 53.264213 
L 237.34313 51.95392 
L 237.430122 51.95392 
L 237.430122 51.298774 
L 237.546535 51.298774 
L 237.546535 50.643628 
L 238.508244 50.643628 
L 238.508244 49.988482 
L 238.641943 49.988482 
L 238.730617 48.67819 
L 239.008374 48.67819 
L 239.099212 47.367898 
L 239.265087 47.367898 
L 239.357509 46.057605 
L 240.392249 46.057605 
L 240.392249 45.402459 
L 240.586999 45.402459 
L 240.586999 44.747313 
L 241.608454 44.747313 
L 241.608454 44.092167 
L 242.388751 44.092167 
L 242.388751 43.437021 
L 242.624189 43.437021 
L 242.666184 41.471583 
L 243.268766 41.471583 
L 243.268766 40.816437 
L 245.307627 40.816437 
L 245.307627 40.161291 
L 246.369399 40.161291 
L 246.369399 39.506144 
L 246.676439 39.506144 
L 246.676439 38.850998 
L 248.339268 38.850998 
L 248.339268 38.195852 
L 248.592602 38.195852 
L 248.592602 37.540706 
L 249.592554 37.540706 
L 249.603633 36.230414 
L 249.960815 36.230414 
L 249.960815 35.575268 
L 250.570221 35.575268 
L 250.570221 34.920122 
L 251.088762 34.920122 
L 251.088762 34.264976 
L 255.445841 34.264976 
L 255.445841 33.60983 
L 258.712961 33.60983 
L 258.712961 32.954683 
L 259.811938 32.954683 
L 259.811938 32.299537 
L 260.328567 32.299537 
L 260.328567 31.644391 
L 263.120946 31.644391 
L 263.120946 30.989245 
L 265.725818 30.989245 
L 265.725818 30.334099 
L 338.688 30.334099 
L 338.688 30.334099 
" style="fill:none;stroke:#ff00ff;stroke-linecap:square;stroke-width:1.5;"/>
   </g>
   <g id="line2d_36">
    <defs>
     <path d="M -0 8.485281 
L 5.091169 0 
L 0 -8.485281 
L -5.091169 -0 
z
" id="mc97e1b9d17" style="stroke:#ff00ff;stroke-linejoin:miter;stroke-width:1.5;"/>
    </defs>
    <g>
     <use style="fill-opacity:0;stroke:#ff00ff;stroke-linejoin:miter;stroke-width:1.5;" x="198.257906" xlink:href="#mc97e1b9d17" y="173.155949"/>
     <use style="fill-opacity:0;stroke:#ff00ff;stroke-linejoin:miter;stroke-width:1.5;" x="246.676439" xlink:href="#mc97e1b9d17" y="39.506144"/>
     <use style="fill-opacity:0;stroke:#ff00ff;stroke-linejoin:miter;stroke-width:1.5;" x="265.725818" xlink:href="#mc97e1b9d17" y="30.334099"/>
     <use style="fill-opacity:0;stroke:#ff00ff;stroke-linejoin:miter;stroke-width:1.5;" x="265.725818" xlink:href="#mc97e1b9d17" y="30.334099"/>
     <use style="fill-opacity:0;stroke:#ff00ff;stroke-linejoin:miter;stroke-width:1.5;" x="338.688" xlink:href="#mc97e1b9d17" y="30.334099"/>
    </g>
   </g>
   <g id="line2d_37">
    <path style="fill:none;stroke:#ff00ff;stroke-linecap:square;stroke-width:1.5;"/>
    <g/>
   </g>
   <g id="line2d_38">
    <path clip-path="url(#p84eab12084)" d="M 195.301117 178.397118 
" style="fill:none;stroke:#ff00ff;stroke-linecap:square;stroke-width:1.5;"/>
    <defs>
     <path d="M -12 12 
L 12 -12 
M -12 -12 
L 12 12 
" id="mb7134af65b" style="stroke:#ff00ff;"/>
    </defs>
    <g clip-path="url(#p84eab12084)">
     <use style="fill:#ff00ff;stroke:#ff00ff;" x="195.301117" xlink:href="#mb7134af65b" y="178.397118"/>
    </g>
   </g>
   <g id="line2d_39">
    <path d="M 338.688 82.745787 
L 369.60768 293.571802 
" style="fill:none;stroke:#000080;stroke-linecap:square;stroke-width:1.5;"/>
    <g>
     <use style="fill-opacity:0;stroke:#000080;stroke-width:1.5;" x="338.688" xlink:href="#me938982daf" y="82.745787"/>
     <use style="fill-opacity:0;stroke:#000080;stroke-width:1.5;" x="369.60768" xlink:href="#me938982daf" y="293.571802"/>
    </g>
   </g>
   <g id="line2d_40">
    <path d="M 338.688 30.334099 
L 369.60768 35.706297 
" style="fill:none;stroke:#ff00ff;stroke-linecap:square;stroke-width:1.5;"/>
    <g>
     <use style="fill-opacity:0;stroke:#ff00ff;stroke-linejoin:miter;stroke-width:1.5;" x="338.688" xlink:href="#mc97e1b9d17" y="30.334099"/>
     <use style="fill-opacity:0;stroke:#ff00ff;stroke-linejoin:miter;stroke-width:1.5;" x="369.60768" xlink:href="#mc97e1b9d17" y="35.706297"/>
    </g>
   </g>
   <g id="line2d_41">
    <path d="M 338.688 298.944 
L 338.688 30.334099 
" style="fill:none;stroke:#000000;stroke-linecap:square;stroke-width:1.5;"/>
   </g>
   <g id="patch_3">
    <path d="M 57.6 298.944 
L 57.6 27.648 
" style="fill:none;stroke:#000000;stroke-linecap:square;stroke-linejoin:miter;stroke-width:0.8;"/>
   </g>
   <g id="patch_4">
    <path d="M 338.688 298.944 
L 338.688 27.648 
" style="fill:none;stroke:#000000;stroke-linecap:square;stroke-linejoin:miter;stroke-width:0.8;"/>
   </g>
   <g id="patch_5">
    <path d="M 57.6 298.944 
L 338.688 298.944 
" style="fill:none;stroke:#000000;stroke-linecap:square;stroke-linejoin:miter;stroke-width:0.8;"/>
   </g>
   <g id="patch_6">
    <path d="M 57.6 27.648 
L 338.688 27.648 
" style="fill:none;stroke:#000000;stroke-linecap:square;stroke-linejoin:miter;stroke-width:0.8;"/>
   </g>
   <g id="text_13">
    <!-- sqp fmincon on bbob-constrained -->
    <g transform="translate(375.22944 298.262739)scale(0.17 -0.17)">
     <defs>
      <path d="M 14.796875 27.296875 
Q 14.796875 17.390625 18.875 11.75 
Q 22.953125 6.109375 30.078125 6.109375 
Q 37.203125 6.109375 41.296875 11.75 
Q 45.40625 17.390625 45.40625 27.296875 
Q 45.40625 37.203125 41.296875 42.84375 
Q 37.203125 48.484375 30.078125 48.484375 
Q 22.953125 48.484375 18.875 42.84375 
Q 14.796875 37.203125 14.796875 27.296875 
z
M 45.40625 8.203125 
Q 42.578125 3.328125 38.25 0.953125 
Q 33.9375 -1.421875 27.875 -1.421875 
Q 17.96875 -1.421875 11.734375 6.484375 
Q 5.515625 14.40625 5.515625 27.296875 
Q 5.515625 40.1875 11.734375 48.09375 
Q 17.96875 56 27.875 56 
Q 33.9375 56 38.25 53.625 
Q 42.578125 51.265625 45.40625 46.390625 
L 45.40625 54.6875 
L 54.390625 54.6875 
L 54.390625 -20.796875 
L 45.40625 -20.796875 
z
" id="DejaVuSans-113"/>
      <path d="M 48.6875 27.296875 
Q 48.6875 37.203125 44.609375 42.84375 
Q 40.53125 48.484375 33.40625 48.484375 
Q 26.265625 48.484375 22.1875 42.84375 
Q 18.109375 37.203125 18.109375 27.296875 
Q 18.109375 17.390625 22.1875 11.75 
Q 26.265625 6.109375 33.40625 6.109375 
Q 40.53125 6.109375 44.609375 11.75 
Q 48.6875 17.390625 48.6875 27.296875 
z
M 18.109375 46.390625 
Q 20.953125 51.265625 25.265625 53.625 
Q 29.59375 56 35.59375 56 
Q 45.5625 56 51.78125 48.09375 
Q 58.015625 40.1875 58.015625 27.296875 
Q 58.015625 14.40625 51.78125 6.484375 
Q 45.5625 -1.421875 35.59375 -1.421875 
Q 29.59375 -1.421875 25.265625 0.953125 
Q 20.953125 3.328125 18.109375 8.203125 
L 18.109375 0 
L 9.078125 0 
L 9.078125 75.984375 
L 18.109375 75.984375 
z
" id="DejaVuSans-98"/>
     </defs>
     <use xlink:href="#DejaVuSans-115"/>
     <use x="52.099609" xlink:href="#DejaVuSans-113"/>
     <use x="115.576172" xlink:href="#DejaVuSans-112"/>
     <use x="179.052734" xlink:href="#DejaVuSans-32"/>
     <use x="210.839844" xlink:href="#DejaVuSans-102"/>
     <use x="246.044922" xlink:href="#DejaVuSans-109"/>
     <use x="343.457031" xlink:href="#DejaVuSans-105"/>
     <use x="371.240234" xlink:href="#DejaVuSans-110"/>
     <use x="434.619141" xlink:href="#DejaVuSans-99"/>
     <use x="489.599609" xlink:href="#DejaVuSans-111"/>
     <use x="550.78125" xlink:href="#DejaVuSans-110"/>
     <use x="614.160156" xlink:href="#DejaVuSans-32"/>
     <use x="645.947266" xlink:href="#DejaVuSans-111"/>
     <use x="707.128906" xlink:href="#DejaVuSans-110"/>
     <use x="770.507812" xlink:href="#DejaVuSans-32"/>
     <use x="802.294922" xlink:href="#DejaVuSans-98"/>
     <use x="865.771484" xlink:href="#DejaVuSans-98"/>
     <use x="929.248047" xlink:href="#DejaVuSans-111"/>
     <use x="990.429688" xlink:href="#DejaVuSans-98"/>
     <use x="1053.90625" xlink:href="#DejaVuSans-45"/>
     <use x="1089.990234" xlink:href="#DejaVuSans-99"/>
     <use x="1144.970703" xlink:href="#DejaVuSans-111"/>
     <use x="1206.152344" xlink:href="#DejaVuSans-110"/>
     <use x="1269.53125" xlink:href="#DejaVuSans-115"/>
     <use x="1321.630859" xlink:href="#DejaVuSans-116"/>
     <use x="1360.839844" xlink:href="#DejaVuSans-114"/>
     <use x="1401.953125" xlink:href="#DejaVuSans-97"/>
     <use x="1463.232422" xlink:href="#DejaVuSans-105"/>
     <use x="1491.015625" xlink:href="#DejaVuSans-110"/>
     <use x="1554.394531" xlink:href="#DejaVuSans-101"/>
     <use x="1615.917969" xlink:href="#DejaVuSans-100"/>
    </g>
   </g>
   <g id="text_14">
    <!-- sqp fmincon on bbob-constrained-ac -->
    <g transform="translate(375.22944 40.397235)scale(0.17 -0.17)">
     <use xlink:href="#DejaVuSans-115"/>
     <use x="52.099609" xlink:href="#DejaVuSans-113"/>
     <use x="115.576172" xlink:href="#DejaVuSans-112"/>
     <use x="179.052734" xlink:href="#DejaVuSans-32"/>
     <use x="210.839844" xlink:href="#DejaVuSans-102"/>
     <use x="246.044922" xlink:href="#DejaVuSans-109"/>
     <use x="343.457031" xlink:href="#DejaVuSans-105"/>
     <use x="371.240234" xlink:href="#DejaVuSans-110"/>
     <use x="434.619141" xlink:href="#DejaVuSans-99"/>
     <use x="489.599609" xlink:href="#DejaVuSans-111"/>
     <use x="550.78125" xlink:href="#DejaVuSans-110"/>
     <use x="614.160156" xlink:href="#DejaVuSans-32"/>
     <use x="645.947266" xlink:href="#DejaVuSans-111"/>
     <use x="707.128906" xlink:href="#DejaVuSans-110"/>
     <use x="770.507812" xlink:href="#DejaVuSans-32"/>
     <use x="802.294922" xlink:href="#DejaVuSans-98"/>
     <use x="865.771484" xlink:href="#DejaVuSans-98"/>
     <use x="929.248047" xlink:href="#DejaVuSans-111"/>
     <use x="990.429688" xlink:href="#DejaVuSans-98"/>
     <use x="1053.90625" xlink:href="#DejaVuSans-45"/>
     <use x="1089.990234" xlink:href="#DejaVuSans-99"/>
     <use x="1144.970703" xlink:href="#DejaVuSans-111"/>
     <use x="1206.152344" xlink:href="#DejaVuSans-110"/>
     <use x="1269.53125" xlink:href="#DejaVuSans-115"/>
     <use x="1321.630859" xlink:href="#DejaVuSans-116"/>
     <use x="1360.839844" xlink:href="#DejaVuSans-114"/>
     <use x="1401.953125" xlink:href="#DejaVuSans-97"/>
     <use x="1463.232422" xlink:href="#DejaVuSans-105"/>
     <use x="1491.015625" xlink:href="#DejaVuSans-110"/>
     <use x="1554.394531" xlink:href="#DejaVuSans-101"/>
     <use x="1615.917969" xlink:href="#DejaVuSans-100"/>
     <use x="1679.394531" xlink:href="#DejaVuSans-45"/>
     <use x="1715.478516" xlink:href="#DejaVuSans-97"/>
     <use x="1776.757812" xlink:href="#DejaVuSans-99"/>
    </g>
   </g>
   <g id="text_15">
    <!-- bbob-constrained f23, 10-D -->
    <g transform="translate(60.41088 38.111366)scale(0.102 -0.102)">
     <defs>
      <path d="M 40.578125 39.3125 
Q 47.65625 37.796875 51.625 33 
Q 55.609375 28.21875 55.609375 21.1875 
Q 55.609375 10.40625 48.1875 4.484375 
Q 40.765625 -1.421875 27.09375 -1.421875 
Q 22.515625 -1.421875 17.65625 -0.515625 
Q 12.796875 0.390625 7.625 2.203125 
L 7.625 11.71875 
Q 11.71875 9.328125 16.59375 8.109375 
Q 21.484375 6.890625 26.8125 6.890625 
Q 36.078125 6.890625 40.9375 10.546875 
Q 45.796875 14.203125 45.796875 21.1875 
Q 45.796875 27.640625 41.28125 31.265625 
Q 36.765625 34.90625 28.71875 34.90625 
L 20.21875 34.90625 
L 20.21875 43.015625 
L 29.109375 43.015625 
Q 36.375 43.015625 40.234375 45.921875 
Q 44.09375 48.828125 44.09375 54.296875 
Q 44.09375 59.90625 40.109375 62.90625 
Q 36.140625 65.921875 28.71875 65.921875 
Q 24.65625 65.921875 20.015625 65.03125 
Q 15.375 64.15625 9.8125 62.3125 
L 9.8125 71.09375 
Q 15.4375 72.65625 20.34375 73.4375 
Q 25.25 74.21875 29.59375 74.21875 
Q 40.828125 74.21875 47.359375 69.109375 
Q 53.90625 64.015625 53.90625 55.328125 
Q 53.90625 49.265625 50.4375 45.09375 
Q 46.96875 40.921875 40.578125 39.3125 
z
" id="DejaVuSans-51"/>
      <path d="M 19.671875 64.796875 
L 19.671875 8.109375 
L 31.59375 8.109375 
Q 46.6875 8.109375 53.6875 14.9375 
Q 60.6875 21.78125 60.6875 36.53125 
Q 60.6875 51.171875 53.6875 57.984375 
Q 46.6875 64.796875 31.59375 64.796875 
z
M 9.8125 72.90625 
L 30.078125 72.90625 
Q 51.265625 72.90625 61.171875 64.09375 
Q 71.09375 55.28125 71.09375 36.53125 
Q 71.09375 17.671875 61.125 8.828125 
Q 51.171875 0 30.078125 0 
L 9.8125 0 
z
" id="DejaVuSans-68"/>
     </defs>
     <use xlink:href="#DejaVuSans-98"/>
     <use x="63.476562" xlink:href="#DejaVuSans-98"/>
     <use x="126.953125" xlink:href="#DejaVuSans-111"/>
     <use x="188.134766" xlink:href="#DejaVuSans-98"/>
     <use x="251.611328" xlink:href="#DejaVuSans-45"/>
     <use x="287.695312" xlink:href="#DejaVuSans-99"/>
     <use x="342.675781" xlink:href="#DejaVuSans-111"/>
     <use x="403.857422" xlink:href="#DejaVuSans-110"/>
     <use x="467.236328" xlink:href="#DejaVuSans-115"/>
     <use x="519.335938" xlink:href="#DejaVuSans-116"/>
     <use x="558.544922" xlink:href="#DejaVuSans-114"/>
     <use x="599.658203" xlink:href="#DejaVuSans-97"/>
     <use x="660.9375" xlink:href="#DejaVuSans-105"/>
     <use x="688.720703" xlink:href="#DejaVuSans-110"/>
     <use x="752.099609" xlink:href="#DejaVuSans-101"/>
     <use x="813.623047" xlink:href="#DejaVuSans-100"/>
     <use x="877.099609" xlink:href="#DejaVuSans-32"/>
     <use x="908.886719" xlink:href="#DejaVuSans-102"/>
     <use x="944.091797" xlink:href="#DejaVuSans-50"/>
     <use x="1007.714844" xlink:href="#DejaVuSans-51"/>
     <use x="1071.337891" xlink:href="#DejaVuSans-44"/>
     <use x="1103.125" xlink:href="#DejaVuSans-32"/>
     <use x="1134.912109" xlink:href="#DejaVuSans-49"/>
     <use x="1198.535156" xlink:href="#DejaVuSans-48"/>
     <use x="1262.158203" xlink:href="#DejaVuSans-45"/>
     <use x="1298.242188" xlink:href="#DejaVuSans-68"/>
    </g>
    <!-- 41 targets: 100..1e-06 -->
    <g transform="translate(60.41088 49.533135)scale(0.102 -0.102)">
     <defs>
      <path d="M 11.71875 12.40625 
L 22.015625 12.40625 
L 22.015625 0 
L 11.71875 0 
z
M 11.71875 51.703125 
L 22.015625 51.703125 
L 22.015625 39.3125 
L 11.71875 39.3125 
z
" id="DejaVuSans-58"/>
     </defs>
     <use xlink:href="#DejaVuSans-52"/>
     <use x="63.623047" xlink:href="#DejaVuSans-49"/>
     <use x="127.246094" xlink:href="#DejaVuSans-32"/>
     <use x="159.033203" xlink:href="#DejaVuSans-116"/>
     <use x="198.242188" xlink:href="#DejaVuSans-97"/>
     <use x="259.521484" xlink:href="#DejaVuSans-114"/>
     <use x="298.884766" xlink:href="#DejaVuSans-103"/>
     <use x="362.361328" xlink:href="#DejaVuSans-101"/>
     <use x="423.884766" xlink:href="#DejaVuSans-116"/>
     <use x="463.09375" xlink:href="#DejaVuSans-115"/>
     <use x="515.193359" xlink:href="#DejaVuSans-58"/>
     <use x="548.884766" xlink:href="#DejaVuSans-32"/>
     <use x="580.671875" xlink:href="#DejaVuSans-49"/>
     <use x="644.294922" xlink:href="#DejaVuSans-48"/>
     <use x="707.917969" xlink:href="#DejaVuSans-48"/>
     <use x="771.541016" xlink:href="#DejaVuSans-46"/>
     <use x="803.328125" xlink:href="#DejaVuSans-46"/>
     <use x="835.115234" xlink:href="#DejaVuSans-49"/>
     <use x="898.738281" xlink:href="#DejaVuSans-101"/>
     <use x="960.261719" xlink:href="#DejaVuSans-45"/>
     <use x="996.345703" xlink:href="#DejaVuSans-48"/>
     <use x="1059.96875" xlink:href="#DejaVuSans-54"/>
    </g>
    <!-- 15 instances -->
    <g transform="translate(60.41088 60.954904)scale(0.102 -0.102)">
     <defs>
      <path d="M 10.796875 72.90625 
L 49.515625 72.90625 
L 49.515625 64.59375 
L 19.828125 64.59375 
L 19.828125 46.734375 
Q 21.96875 47.46875 24.109375 47.828125 
Q 26.265625 48.1875 28.421875 48.1875 
Q 40.625 48.1875 47.75 41.5 
Q 54.890625 34.8125 54.890625 23.390625 
Q 54.890625 11.625 47.5625 5.09375 
Q 40.234375 -1.421875 26.90625 -1.421875 
Q 22.3125 -1.421875 17.546875 -0.640625 
Q 12.796875 0.140625 7.71875 1.703125 
L 7.71875 11.625 
Q 12.109375 9.234375 16.796875 8.0625 
Q 21.484375 6.890625 26.703125 6.890625 
Q 35.15625 6.890625 40.078125 11.328125 
Q 45.015625 15.765625 45.015625 23.390625 
Q 45.015625 31 40.078125 35.4375 
Q 35.15625 39.890625 26.703125 39.890625 
Q 22.75 39.890625 18.8125 39.015625 
Q 14.890625 38.140625 10.796875 36.28125 
z
" id="DejaVuSans-53"/>
     </defs>
     <use xlink:href="#DejaVuSans-49"/>
     <use x="63.623047" xlink:href="#DejaVuSans-53"/>
     <use x="127.246094" xlink:href="#DejaVuSans-32"/>
     <use x="159.033203" xlink:href="#DejaVuSans-105"/>
     <use x="186.816406" xlink:href="#DejaVuSans-110"/>
     <use x="250.195312" xlink:href="#DejaVuSans-115"/>
     <use x="302.294922" xlink:href="#DejaVuSans-116"/>
     <use x="341.503906" xlink:href="#DejaVuSans-97"/>
     <use x="402.783203" xlink:href="#DejaVuSans-110"/>
     <use x="466.162109" xlink:href="#DejaVuSans-99"/>
     <use x="521.142578" xlink:href="#DejaVuSans-101"/>
     <use x="582.666016" xlink:href="#DejaVuSans-115"/>
    </g>
   </g>
   <g id="text_16">
    <!-- v5z33 -->
    <g style="fill:#808080;" transform="translate(183.016656 294.151352)scale(0.1 -0.1)">
     <defs>
      <path d="M 5.515625 54.6875 
L 48.1875 54.6875 
L 48.1875 46.484375 
L 14.40625 7.171875 
L 48.1875 7.171875 
L 48.1875 0 
L 4.296875 0 
L 4.296875 8.203125 
L 38.09375 47.515625 
L 5.515625 47.515625 
z
" id="DejaVuSans-122"/>
     </defs>
     <use xlink:href="#DejaVuSans-118"/>
     <use x="59.179688" xlink:href="#DejaVuSans-53"/>
     <use x="122.802734" xlink:href="#DejaVuSans-122"/>
     <use x="175.292969" xlink:href="#DejaVuSans-51"/>
     <use x="238.916016" xlink:href="#DejaVuSans-51"/>
    </g>
   </g>
   <g id="text_17">
    <!-- 23 Rotated Ellipsoid, n+6 constraints -->
    <g transform="translate(12.336187 21.648)scale(0.2 -0.2)">
     <defs>
      <path d="M 44.390625 34.1875 
Q 47.5625 33.109375 50.5625 29.59375 
Q 53.5625 26.078125 56.59375 19.921875 
L 66.609375 0 
L 56 0 
L 46.6875 18.703125 
Q 43.0625 26.03125 39.671875 28.421875 
Q 36.28125 30.8125 30.421875 30.8125 
L 19.671875 30.8125 
L 19.671875 0 
L 9.8125 0 
L 9.8125 72.90625 
L 32.078125 72.90625 
Q 44.578125 72.90625 50.734375 67.671875 
Q 56.890625 62.453125 56.890625 51.90625 
Q 56.890625 45.015625 53.6875 40.46875 
Q 50.484375 35.9375 44.390625 34.1875 
z
M 19.671875 64.796875 
L 19.671875 38.921875 
L 32.078125 38.921875 
Q 39.203125 38.921875 42.84375 42.21875 
Q 46.484375 45.515625 46.484375 51.90625 
Q 46.484375 58.296875 42.84375 61.546875 
Q 39.203125 64.796875 32.078125 64.796875 
z
" id="DejaVuSans-82"/>
      <path d="M 9.8125 72.90625 
L 55.90625 72.90625 
L 55.90625 64.59375 
L 19.671875 64.59375 
L 19.671875 43.015625 
L 54.390625 43.015625 
L 54.390625 34.71875 
L 19.671875 34.71875 
L 19.671875 8.296875 
L 56.78125 8.296875 
L 56.78125 0 
L 9.8125 0 
z
" id="DejaVuSans-69"/>
     </defs>
     <use xlink:href="#DejaVuSans-50"/>
     <use x="63.623047" xlink:href="#DejaVuSans-51"/>
     <use x="127.246094" xlink:href="#DejaVuSans-32"/>
     <use x="159.033203" xlink:href="#DejaVuSans-82"/>
     <use x="224.015625" xlink:href="#DejaVuSans-111"/>
     <use x="285.197266" xlink:href="#DejaVuSans-116"/>
     <use x="324.40625" xlink:href="#DejaVuSans-97"/>
     <use x="385.685547" xlink:href="#DejaVuSans-116"/>
     <use x="424.894531" xlink:href="#DejaVuSans-101"/>
     <use x="486.417969" xlink:href="#DejaVuSans-100"/>
     <use x="549.894531" xlink:href="#DejaVuSans-32"/>
     <use x="581.681641" xlink:href="#DejaVuSans-69"/>
     <use x="644.865234" xlink:href="#DejaVuSans-108"/>
     <use x="672.648438" xlink:href="#DejaVuSans-108"/>
     <use x="700.431641" xlink:href="#DejaVuSans-105"/>
     <use x="728.214844" xlink:href="#DejaVuSans-112"/>
     <use x="791.691406" xlink:href="#DejaVuSans-115"/>
     <use x="843.791016" xlink:href="#DejaVuSans-111"/>
     <use x="904.972656" xlink:href="#DejaVuSans-105"/>
     <use x="932.755859" xlink:href="#DejaVuSans-100"/>
     <use x="996.232422" xlink:href="#DejaVuSans-44"/>
     <use x="1028.019531" xlink:href="#DejaVuSans-32"/>
     <use x="1059.806641" xlink:href="#DejaVuSans-110"/>
     <use x="1123.185547" xlink:href="#DejaVuSans-43"/>
     <use x="1206.974609" xlink:href="#DejaVuSans-54"/>
     <use x="1270.597656" xlink:href="#DejaVuSans-32"/>
     <use x="1302.384766" xlink:href="#DejaVuSans-99"/>
     <use x="1357.365234" xlink:href="#DejaVuSans-111"/>
     <use x="1418.546875" xlink:href="#DejaVuSans-110"/>
     <use x="1481.925781" xlink:href="#DejaVuSans-115"/>
     <use x="1534.025391" xlink:href="#DejaVuSans-116"/>
     <use x="1573.234375" xlink:href="#DejaVuSans-114"/>
     <use x="1614.347656" xlink:href="#DejaVuSans-97"/>
     <use x="1675.626953" xlink:href="#DejaVuSans-105"/>
     <use x="1703.410156" xlink:href="#DejaVuSans-110"/>
     <use x="1766.789062" xlink:href="#DejaVuSans-116"/>
     <use x="1805.998047" xlink:href="#DejaVuSans-115"/>
    </g>
   </g>
  </g>
 </g>
 <defs>
  <clipPath id="p84eab12084">
   <rect height="271.296" width="281.088" x="57.6" y="27.648"/>
  </clipPath>
 </defs>
</svg>
