<?xml version="1.0" encoding="utf-8" standalone="no"?>
<!DOCTYPE svg PUBLIC "-//W3C//DTD SVG 1.1//EN"
  "http://www.w3.org/Graphics/SVG/1.1/DTD/svg11.dtd">
<!-- Created with matplotlib (https://matplotlib.org/) -->
<svg height="345.6pt" version="1.1" viewBox="0 0 460.8 345.6" width="460.8pt" xmlns="http://www.w3.org/2000/svg" xmlns:xlink="http://www.w3.org/1999/xlink">
 <metadata>
  <rdf:RDF xmlns:cc="http://creativecommons.org/ns#" xmlns:dc="http://purl.org/dc/elements/1.1/" xmlns:rdf="http://www.w3.org/1999/02/22-rdf-syntax-ns#">
   <cc:Work>
    <dc:type rdf:resource="http://purl.org/dc/dcmitype/StillImage"/>
    <dc:date>2021-04-07T09:51:34.892707</dc:date>
    <dc:format>image/svg+xml</dc:format>
    <dc:creator>
     <cc:Agent>
      <dc:title>Matplotlib v3.3.3, https://matplotlib.org/</dc:title>
     </cc:Agent>
    </dc:creator>
   </cc:Work>
  </rdf:RDF>
 </metadata>
 <defs>
  <style type="text/css">*{stroke-linecap:butt;stroke-linejoin:round;}</style>
 </defs>
 <g id="figure_1">
  <g id="patch_1">
   <path d="M 0 345.6 
L 460.8 345.6 
L 460.8 0 
L 0 0 
z
" style="fill:#ffffff;"/>
  </g>
  <g id="axes_1">
   <g id="patch_2">
    <path d="M 57.6 298.944 
L 338.688 298.944 
L 338.688 27.648 
L 57.6 27.648 
z
" style="fill:#ffffff;"/>
   </g>
   <g id="matplotlib.axis_1">
    <g id="xtick_1">
     <g id="line2d_1">
      <path clip-path="url(#p80c8d15899)" d="M 57.6 298.944 
L 57.6 27.648 
" style="fill:none;stroke:#b0b0b0;stroke-linecap:square;stroke-width:0.8;"/>
     </g>
     <g id="line2d_2">
      <defs>
       <path d="M 0 0 
L 0 3.5 
" id="mfbdd8cd1b2" style="stroke:#000000;stroke-width:0.8;"/>
      </defs>
      <g>
       <use style="stroke:#000000;stroke-width:0.8;" x="57.6" xlink:href="#mfbdd8cd1b2" y="298.944"/>
      </g>
     </g>
     <g id="text_1">
      <!-- 0 -->
      <g transform="translate(51.2375 321.140875)scale(0.2 -0.2)">
       <defs>
        <path d="M 31.78125 66.40625 
Q 24.171875 66.40625 20.328125 58.90625 
Q 16.5 51.421875 16.5 36.375 
Q 16.5 21.390625 20.328125 13.890625 
Q 24.171875 6.390625 31.78125 6.390625 
Q 39.453125 6.390625 43.28125 13.890625 
Q 47.125 21.390625 47.125 36.375 
Q 47.125 51.421875 43.28125 58.90625 
Q 39.453125 66.40625 31.78125 66.40625 
z
M 31.78125 74.21875 
Q 44.046875 74.21875 50.515625 64.515625 
Q 56.984375 54.828125 56.984375 36.375 
Q 56.984375 17.96875 50.515625 8.265625 
Q 44.046875 -1.421875 31.78125 -1.421875 
Q 19.53125 -1.421875 13.0625 8.265625 
Q 6.59375 17.96875 6.59375 36.375 
Q 6.59375 54.828125 13.0625 64.515625 
Q 19.53125 74.21875 31.78125 74.21875 
z
" id="DejaVuSans-48"/>
       </defs>
       <use xlink:href="#DejaVuSans-48"/>
      </g>
     </g>
    </g>
    <g id="xtick_2">
     <g id="line2d_3">
      <path clip-path="url(#p80c8d15899)" d="M 137.910857 298.944 
L 137.910857 27.648 
" style="fill:none;stroke:#b0b0b0;stroke-linecap:square;stroke-width:0.8;"/>
     </g>
     <g id="line2d_4">
      <g>
       <use style="stroke:#000000;stroke-width:0.8;" x="137.910857" xlink:href="#mfbdd8cd1b2" y="298.944"/>
      </g>
     </g>
     <g id="text_2">
      <!-- 2 -->
      <g transform="translate(131.548357 321.140875)scale(0.2 -0.2)">
       <defs>
        <path d="M 19.1875 8.296875 
L 53.609375 8.296875 
L 53.609375 0 
L 7.328125 0 
L 7.328125 8.296875 
Q 12.9375 14.109375 22.625 23.890625 
Q 32.328125 33.6875 34.8125 36.53125 
Q 39.546875 41.84375 41.421875 45.53125 
Q 43.3125 49.21875 43.3125 52.78125 
Q 43.3125 58.59375 39.234375 62.25 
Q 35.15625 65.921875 28.609375 65.921875 
Q 23.96875 65.921875 18.8125 64.3125 
Q 13.671875 62.703125 7.8125 59.421875 
L 7.8125 69.390625 
Q 13.765625 71.78125 18.9375 73 
Q 24.125 74.21875 28.421875 74.21875 
Q 39.75 74.21875 46.484375 68.546875 
Q 53.21875 62.890625 53.21875 53.421875 
Q 53.21875 48.921875 51.53125 44.890625 
Q 49.859375 40.875 45.40625 35.40625 
Q 44.1875 33.984375 37.640625 27.21875 
Q 31.109375 20.453125 19.1875 8.296875 
z
" id="DejaVuSans-50"/>
       </defs>
       <use xlink:href="#DejaVuSans-50"/>
      </g>
     </g>
    </g>
    <g id="xtick_3">
     <g id="line2d_5">
      <path clip-path="url(#p80c8d15899)" d="M 218.221714 298.944 
L 218.221714 27.648 
" style="fill:none;stroke:#b0b0b0;stroke-linecap:square;stroke-width:0.8;"/>
     </g>
     <g id="line2d_6">
      <g>
       <use style="stroke:#000000;stroke-width:0.8;" x="218.221714" xlink:href="#mfbdd8cd1b2" y="298.944"/>
      </g>
     </g>
     <g id="text_3">
      <!-- 4 -->
      <g transform="translate(211.859214 321.140875)scale(0.2 -0.2)">
       <defs>
        <path d="M 37.796875 64.3125 
L 12.890625 25.390625 
L 37.796875 25.390625 
z
M 35.203125 72.90625 
L 47.609375 72.90625 
L 47.609375 25.390625 
L 58.015625 25.390625 
L 58.015625 17.1875 
L 47.609375 17.1875 
L 47.609375 0 
L 37.796875 0 
L 37.796875 17.1875 
L 4.890625 17.1875 
L 4.890625 26.703125 
z
" id="DejaVuSans-52"/>
       </defs>
       <use xlink:href="#DejaVuSans-52"/>
      </g>
     </g>
    </g>
    <g id="xtick_4">
     <g id="line2d_7">
      <path clip-path="url(#p80c8d15899)" d="M 298.532571 298.944 
L 298.532571 27.648 
" style="fill:none;stroke:#b0b0b0;stroke-linecap:square;stroke-width:0.8;"/>
     </g>
     <g id="line2d_8">
      <g>
       <use style="stroke:#000000;stroke-width:0.8;" x="298.532571" xlink:href="#mfbdd8cd1b2" y="298.944"/>
      </g>
     </g>
     <g id="text_4">
      <!-- 6 -->
      <g transform="translate(292.170071 321.140875)scale(0.2 -0.2)">
       <defs>
        <path d="M 33.015625 40.375 
Q 26.375 40.375 22.484375 35.828125 
Q 18.609375 31.296875 18.609375 23.390625 
Q 18.609375 15.53125 22.484375 10.953125 
Q 26.375 6.390625 33.015625 6.390625 
Q 39.65625 6.390625 43.53125 10.953125 
Q 47.40625 15.53125 47.40625 23.390625 
Q 47.40625 31.296875 43.53125 35.828125 
Q 39.65625 40.375 33.015625 40.375 
z
M 52.59375 71.296875 
L 52.59375 62.3125 
Q 48.875 64.0625 45.09375 64.984375 
Q 41.3125 65.921875 37.59375 65.921875 
Q 27.828125 65.921875 22.671875 59.328125 
Q 17.53125 52.734375 16.796875 39.40625 
Q 19.671875 43.65625 24.015625 45.921875 
Q 28.375 48.1875 33.59375 48.1875 
Q 44.578125 48.1875 50.953125 41.515625 
Q 57.328125 34.859375 57.328125 23.390625 
Q 57.328125 12.15625 50.6875 5.359375 
Q 44.046875 -1.421875 33.015625 -1.421875 
Q 20.359375 -1.421875 13.671875 8.265625 
Q 6.984375 17.96875 6.984375 36.375 
Q 6.984375 53.65625 15.1875 63.9375 
Q 23.390625 74.21875 37.203125 74.21875 
Q 40.921875 74.21875 44.703125 73.484375 
Q 48.484375 72.75 52.59375 71.296875 
z
" id="DejaVuSans-54"/>
       </defs>
       <use xlink:href="#DejaVuSans-54"/>
      </g>
     </g>
    </g>
    <g id="xtick_5">
     <g id="line2d_9">
      <path clip-path="url(#p80c8d15899)" d="M 97.755429 298.944 
L 97.755429 27.648 
" style="fill:none;stroke:#b0b0b0;stroke-linecap:square;stroke-width:0.8;"/>
     </g>
     <g id="line2d_10">
      <defs>
       <path d="M 0 0 
L 0 2 
" id="m3f8f3df2c8" style="stroke:#000000;stroke-width:0.6;"/>
      </defs>
      <g>
       <use style="stroke:#000000;stroke-width:0.6;" x="97.755429" xlink:href="#m3f8f3df2c8" y="298.944"/>
      </g>
     </g>
    </g>
    <g id="xtick_6">
     <g id="line2d_11">
      <path clip-path="url(#p80c8d15899)" d="M 178.066286 298.944 
L 178.066286 27.648 
" style="fill:none;stroke:#b0b0b0;stroke-linecap:square;stroke-width:0.8;"/>
     </g>
     <g id="line2d_12">
      <g>
       <use style="stroke:#000000;stroke-width:0.6;" x="178.066286" xlink:href="#m3f8f3df2c8" y="298.944"/>
      </g>
     </g>
    </g>
    <g id="xtick_7">
     <g id="line2d_13">
      <path clip-path="url(#p80c8d15899)" d="M 258.377143 298.944 
L 258.377143 27.648 
" style="fill:none;stroke:#b0b0b0;stroke-linecap:square;stroke-width:0.8;"/>
     </g>
     <g id="line2d_14">
      <g>
       <use style="stroke:#000000;stroke-width:0.6;" x="258.377143" xlink:href="#m3f8f3df2c8" y="298.944"/>
      </g>
     </g>
    </g>
    <g id="xtick_8">
     <g id="line2d_15">
      <path clip-path="url(#p80c8d15899)" d="M 338.688 298.944 
L 338.688 27.648 
" style="fill:none;stroke:#b0b0b0;stroke-linecap:square;stroke-width:0.8;"/>
     </g>
     <g id="line2d_16">
      <g>
       <use style="stroke:#000000;stroke-width:0.6;" x="338.688" xlink:href="#m3f8f3df2c8" y="298.944"/>
      </g>
     </g>
    </g>
    <g id="text_5">
     <!-- log10(# (f+g)-evals / dimension) -->
     <g transform="translate(58.145016 342.217594)scale(0.17 -0.17)">
      <defs>
       <path d="M 9.421875 75.984375 
L 18.40625 75.984375 
L 18.40625 0 
L 9.421875 0 
z
" id="DejaVuSans-108"/>
       <path d="M 30.609375 48.390625 
Q 23.390625 48.390625 19.1875 42.75 
Q 14.984375 37.109375 14.984375 27.296875 
Q 14.984375 17.484375 19.15625 11.84375 
Q 23.34375 6.203125 30.609375 6.203125 
Q 37.796875 6.203125 41.984375 11.859375 
Q 46.1875 17.53125 46.1875 27.296875 
Q 46.1875 37.015625 41.984375 42.703125 
Q 37.796875 48.390625 30.609375 48.390625 
z
M 30.609375 56 
Q 42.328125 56 49.015625 48.375 
Q 55.71875 40.765625 55.71875 27.296875 
Q 55.71875 13.875 49.015625 6.21875 
Q 42.328125 -1.421875 30.609375 -1.421875 
Q 18.84375 -1.421875 12.171875 6.21875 
Q 5.515625 13.875 5.515625 27.296875 
Q 5.515625 40.765625 12.171875 48.375 
Q 18.84375 56 30.609375 56 
z
" id="DejaVuSans-111"/>
       <path d="M 45.40625 27.984375 
Q 45.40625 37.75 41.375 43.109375 
Q 37.359375 48.484375 30.078125 48.484375 
Q 22.859375 48.484375 18.828125 43.109375 
Q 14.796875 37.75 14.796875 27.984375 
Q 14.796875 18.265625 18.828125 12.890625 
Q 22.859375 7.515625 30.078125 7.515625 
Q 37.359375 7.515625 41.375 12.890625 
Q 45.40625 18.265625 45.40625 27.984375 
z
M 54.390625 6.78125 
Q 54.390625 -7.171875 48.1875 -13.984375 
Q 42 -20.796875 29.203125 -20.796875 
Q 24.46875 -20.796875 20.265625 -20.09375 
Q 16.0625 -19.390625 12.109375 -17.921875 
L 12.109375 -9.1875 
Q 16.0625 -11.328125 19.921875 -12.34375 
Q 23.78125 -13.375 27.78125 -13.375 
Q 36.625 -13.375 41.015625 -8.765625 
Q 45.40625 -4.15625 45.40625 5.171875 
L 45.40625 9.625 
Q 42.625 4.78125 38.28125 2.390625 
Q 33.9375 0 27.875 0 
Q 17.828125 0 11.671875 7.65625 
Q 5.515625 15.328125 5.515625 27.984375 
Q 5.515625 40.671875 11.671875 48.328125 
Q 17.828125 56 27.875 56 
Q 33.9375 56 38.28125 53.609375 
Q 42.625 51.21875 45.40625 46.390625 
L 45.40625 54.6875 
L 54.390625 54.6875 
z
" id="DejaVuSans-103"/>
       <path d="M 12.40625 8.296875 
L 28.515625 8.296875 
L 28.515625 63.921875 
L 10.984375 60.40625 
L 10.984375 69.390625 
L 28.421875 72.90625 
L 38.28125 72.90625 
L 38.28125 8.296875 
L 54.390625 8.296875 
L 54.390625 0 
L 12.40625 0 
z
" id="DejaVuSans-49"/>
       <path d="M 31 75.875 
Q 24.46875 64.65625 21.28125 53.65625 
Q 18.109375 42.671875 18.109375 31.390625 
Q 18.109375 20.125 21.3125 9.0625 
Q 24.515625 -2 31 -13.1875 
L 23.1875 -13.1875 
Q 15.875 -1.703125 12.234375 9.375 
Q 8.59375 20.453125 8.59375 31.390625 
Q 8.59375 42.28125 12.203125 53.3125 
Q 15.828125 64.359375 23.1875 75.875 
z
" id="DejaVuSans-40"/>
       <path d="M 51.125 44 
L 36.921875 44 
L 32.8125 27.6875 
L 47.125 27.6875 
z
M 43.796875 71.78125 
L 38.71875 51.515625 
L 52.984375 51.515625 
L 58.109375 71.78125 
L 65.921875 71.78125 
L 60.890625 51.515625 
L 76.125 51.515625 
L 76.125 44 
L 58.984375 44 
L 54.984375 27.6875 
L 70.515625 27.6875 
L 70.515625 20.21875 
L 53.078125 20.21875 
L 48 0 
L 40.1875 0 
L 45.21875 20.21875 
L 30.90625 20.21875 
L 25.875 0 
L 18.015625 0 
L 23.09375 20.21875 
L 7.71875 20.21875 
L 7.71875 27.6875 
L 24.90625 27.6875 
L 29 44 
L 13.28125 44 
L 13.28125 51.515625 
L 30.90625 51.515625 
L 35.890625 71.78125 
z
" id="DejaVuSans-35"/>
       <path id="DejaVuSans-32"/>
       <path d="M 37.109375 75.984375 
L 37.109375 68.5 
L 28.515625 68.5 
Q 23.6875 68.5 21.796875 66.546875 
Q 19.921875 64.59375 19.921875 59.515625 
L 19.921875 54.6875 
L 34.71875 54.6875 
L 34.71875 47.703125 
L 19.921875 47.703125 
L 19.921875 0 
L 10.890625 0 
L 10.890625 47.703125 
L 2.296875 47.703125 
L 2.296875 54.6875 
L 10.890625 54.6875 
L 10.890625 58.5 
Q 10.890625 67.625 15.140625 71.796875 
Q 19.390625 75.984375 28.609375 75.984375 
z
" id="DejaVuSans-102"/>
       <path d="M 46 62.703125 
L 46 35.5 
L 73.1875 35.5 
L 73.1875 27.203125 
L 46 27.203125 
L 46 0 
L 37.796875 0 
L 37.796875 27.203125 
L 10.59375 27.203125 
L 10.59375 35.5 
L 37.796875 35.5 
L 37.796875 62.703125 
z
" id="DejaVuSans-43"/>
       <path d="M 8.015625 75.875 
L 15.828125 75.875 
Q 23.140625 64.359375 26.78125 53.3125 
Q 30.421875 42.28125 30.421875 31.390625 
Q 30.421875 20.453125 26.78125 9.375 
Q 23.140625 -1.703125 15.828125 -13.1875 
L 8.015625 -13.1875 
Q 14.5 -2 17.703125 9.0625 
Q 20.90625 20.125 20.90625 31.390625 
Q 20.90625 42.671875 17.703125 53.65625 
Q 14.5 64.65625 8.015625 75.875 
z
" id="DejaVuSans-41"/>
       <path d="M 4.890625 31.390625 
L 31.203125 31.390625 
L 31.203125 23.390625 
L 4.890625 23.390625 
z
" id="DejaVuSans-45"/>
       <path d="M 56.203125 29.59375 
L 56.203125 25.203125 
L 14.890625 25.203125 
Q 15.484375 15.921875 20.484375 11.0625 
Q 25.484375 6.203125 34.421875 6.203125 
Q 39.59375 6.203125 44.453125 7.46875 
Q 49.3125 8.734375 54.109375 11.28125 
L 54.109375 2.78125 
Q 49.265625 0.734375 44.1875 -0.34375 
Q 39.109375 -1.421875 33.890625 -1.421875 
Q 20.796875 -1.421875 13.15625 6.1875 
Q 5.515625 13.8125 5.515625 26.8125 
Q 5.515625 40.234375 12.765625 48.109375 
Q 20.015625 56 32.328125 56 
Q 43.359375 56 49.78125 48.890625 
Q 56.203125 41.796875 56.203125 29.59375 
z
M 47.21875 32.234375 
Q 47.125 39.59375 43.09375 43.984375 
Q 39.0625 48.390625 32.421875 48.390625 
Q 24.90625 48.390625 20.390625 44.140625 
Q 15.875 39.890625 15.1875 32.171875 
z
" id="DejaVuSans-101"/>
       <path d="M 2.984375 54.6875 
L 12.5 54.6875 
L 29.59375 8.796875 
L 46.6875 54.6875 
L 56.203125 54.6875 
L 35.6875 0 
L 23.484375 0 
z
" id="DejaVuSans-118"/>
       <path d="M 34.28125 27.484375 
Q 23.390625 27.484375 19.1875 25 
Q 14.984375 22.515625 14.984375 16.5 
Q 14.984375 11.71875 18.140625 8.90625 
Q 21.296875 6.109375 26.703125 6.109375 
Q 34.1875 6.109375 38.703125 11.40625 
Q 43.21875 16.703125 43.21875 25.484375 
L 43.21875 27.484375 
z
M 52.203125 31.203125 
L 52.203125 0 
L 43.21875 0 
L 43.21875 8.296875 
Q 40.140625 3.328125 35.546875 0.953125 
Q 30.953125 -1.421875 24.3125 -1.421875 
Q 15.921875 -1.421875 10.953125 3.296875 
Q 6 8.015625 6 15.921875 
Q 6 25.140625 12.171875 29.828125 
Q 18.359375 34.515625 30.609375 34.515625 
L 43.21875 34.515625 
L 43.21875 35.40625 
Q 43.21875 41.609375 39.140625 45 
Q 35.0625 48.390625 27.6875 48.390625 
Q 23 48.390625 18.546875 47.265625 
Q 14.109375 46.140625 10.015625 43.890625 
L 10.015625 52.203125 
Q 14.9375 54.109375 19.578125 55.046875 
Q 24.21875 56 28.609375 56 
Q 40.484375 56 46.34375 49.84375 
Q 52.203125 43.703125 52.203125 31.203125 
z
" id="DejaVuSans-97"/>
       <path d="M 44.28125 53.078125 
L 44.28125 44.578125 
Q 40.484375 46.53125 36.375 47.5 
Q 32.28125 48.484375 27.875 48.484375 
Q 21.1875 48.484375 17.84375 46.4375 
Q 14.5 44.390625 14.5 40.28125 
Q 14.5 37.15625 16.890625 35.375 
Q 19.28125 33.59375 26.515625 31.984375 
L 29.59375 31.296875 
Q 39.15625 29.25 43.1875 25.515625 
Q 47.21875 21.78125 47.21875 15.09375 
Q 47.21875 7.46875 41.1875 3.015625 
Q 35.15625 -1.421875 24.609375 -1.421875 
Q 20.21875 -1.421875 15.453125 -0.5625 
Q 10.6875 0.296875 5.421875 2 
L 5.421875 11.28125 
Q 10.40625 8.6875 15.234375 7.390625 
Q 20.0625 6.109375 24.8125 6.109375 
Q 31.15625 6.109375 34.5625 8.28125 
Q 37.984375 10.453125 37.984375 14.40625 
Q 37.984375 18.0625 35.515625 20.015625 
Q 33.0625 21.96875 24.703125 23.78125 
L 21.578125 24.515625 
Q 13.234375 26.265625 9.515625 29.90625 
Q 5.8125 33.546875 5.8125 39.890625 
Q 5.8125 47.609375 11.28125 51.796875 
Q 16.75 56 26.8125 56 
Q 31.78125 56 36.171875 55.265625 
Q 40.578125 54.546875 44.28125 53.078125 
z
" id="DejaVuSans-115"/>
       <path d="M 25.390625 72.90625 
L 33.6875 72.90625 
L 8.296875 -9.28125 
L 0 -9.28125 
z
" id="DejaVuSans-47"/>
       <path d="M 45.40625 46.390625 
L 45.40625 75.984375 
L 54.390625 75.984375 
L 54.390625 0 
L 45.40625 0 
L 45.40625 8.203125 
Q 42.578125 3.328125 38.25 0.953125 
Q 33.9375 -1.421875 27.875 -1.421875 
Q 17.96875 -1.421875 11.734375 6.484375 
Q 5.515625 14.40625 5.515625 27.296875 
Q 5.515625 40.1875 11.734375 48.09375 
Q 17.96875 56 27.875 56 
Q 33.9375 56 38.25 53.625 
Q 42.578125 51.265625 45.40625 46.390625 
z
M 14.796875 27.296875 
Q 14.796875 17.390625 18.875 11.75 
Q 22.953125 6.109375 30.078125 6.109375 
Q 37.203125 6.109375 41.296875 11.75 
Q 45.40625 17.390625 45.40625 27.296875 
Q 45.40625 37.203125 41.296875 42.84375 
Q 37.203125 48.484375 30.078125 48.484375 
Q 22.953125 48.484375 18.875 42.84375 
Q 14.796875 37.203125 14.796875 27.296875 
z
" id="DejaVuSans-100"/>
       <path d="M 9.421875 54.6875 
L 18.40625 54.6875 
L 18.40625 0 
L 9.421875 0 
z
M 9.421875 75.984375 
L 18.40625 75.984375 
L 18.40625 64.59375 
L 9.421875 64.59375 
z
" id="DejaVuSans-105"/>
       <path d="M 52 44.1875 
Q 55.375 50.25 60.0625 53.125 
Q 64.75 56 71.09375 56 
Q 79.640625 56 84.28125 50.015625 
Q 88.921875 44.046875 88.921875 33.015625 
L 88.921875 0 
L 79.890625 0 
L 79.890625 32.71875 
Q 79.890625 40.578125 77.09375 44.375 
Q 74.3125 48.1875 68.609375 48.1875 
Q 61.625 48.1875 57.5625 43.546875 
Q 53.515625 38.921875 53.515625 30.90625 
L 53.515625 0 
L 44.484375 0 
L 44.484375 32.71875 
Q 44.484375 40.625 41.703125 44.40625 
Q 38.921875 48.1875 33.109375 48.1875 
Q 26.21875 48.1875 22.15625 43.53125 
Q 18.109375 38.875 18.109375 30.90625 
L 18.109375 0 
L 9.078125 0 
L 9.078125 54.6875 
L 18.109375 54.6875 
L 18.109375 46.1875 
Q 21.1875 51.21875 25.484375 53.609375 
Q 29.78125 56 35.6875 56 
Q 41.65625 56 45.828125 52.96875 
Q 50 49.953125 52 44.1875 
z
" id="DejaVuSans-109"/>
       <path d="M 54.890625 33.015625 
L 54.890625 0 
L 45.90625 0 
L 45.90625 32.71875 
Q 45.90625 40.484375 42.875 44.328125 
Q 39.84375 48.1875 33.796875 48.1875 
Q 26.515625 48.1875 22.3125 43.546875 
Q 18.109375 38.921875 18.109375 30.90625 
L 18.109375 0 
L 9.078125 0 
L 9.078125 54.6875 
L 18.109375 54.6875 
L 18.109375 46.1875 
Q 21.34375 51.125 25.703125 53.5625 
Q 30.078125 56 35.796875 56 
Q 45.21875 56 50.046875 50.171875 
Q 54.890625 44.34375 54.890625 33.015625 
z
" id="DejaVuSans-110"/>
      </defs>
      <use xlink:href="#DejaVuSans-108"/>
      <use x="27.783203" xlink:href="#DejaVuSans-111"/>
      <use x="88.964844" xlink:href="#DejaVuSans-103"/>
      <use x="152.441406" xlink:href="#DejaVuSans-49"/>
      <use x="216.064453" xlink:href="#DejaVuSans-48"/>
      <use x="279.6875" xlink:href="#DejaVuSans-40"/>
      <use x="318.701172" xlink:href="#DejaVuSans-35"/>
      <use x="402.490234" xlink:href="#DejaVuSans-32"/>
      <use x="434.277344" xlink:href="#DejaVuSans-40"/>
      <use x="473.291016" xlink:href="#DejaVuSans-102"/>
      <use x="508.496094" xlink:href="#DejaVuSans-43"/>
      <use x="592.285156" xlink:href="#DejaVuSans-103"/>
      <use x="655.761719" xlink:href="#DejaVuSans-41"/>
      <use x="694.775391" xlink:href="#DejaVuSans-45"/>
      <use x="730.859375" xlink:href="#DejaVuSans-101"/>
      <use x="792.382812" xlink:href="#DejaVuSans-118"/>
      <use x="851.5625" xlink:href="#DejaVuSans-97"/>
      <use x="912.841797" xlink:href="#DejaVuSans-108"/>
      <use x="940.625" xlink:href="#DejaVuSans-115"/>
      <use x="992.724609" xlink:href="#DejaVuSans-32"/>
      <use x="1024.511719" xlink:href="#DejaVuSans-47"/>
      <use x="1058.203125" xlink:href="#DejaVuSans-32"/>
      <use x="1089.990234" xlink:href="#DejaVuSans-100"/>
      <use x="1153.466797" xlink:href="#DejaVuSans-105"/>
      <use x="1181.25" xlink:href="#DejaVuSans-109"/>
      <use x="1278.662109" xlink:href="#DejaVuSans-101"/>
      <use x="1340.185547" xlink:href="#DejaVuSans-110"/>
      <use x="1403.564453" xlink:href="#DejaVuSans-115"/>
      <use x="1455.664062" xlink:href="#DejaVuSans-105"/>
      <use x="1483.447266" xlink:href="#DejaVuSans-111"/>
      <use x="1544.628906" xlink:href="#DejaVuSans-110"/>
      <use x="1608.007812" xlink:href="#DejaVuSans-41"/>
     </g>
    </g>
   </g>
   <g id="matplotlib.axis_2">
    <g id="ytick_1">
     <g id="line2d_17">
      <path clip-path="url(#p80c8d15899)" d="M 57.6 298.944 
L 338.688 298.944 
" style="fill:none;stroke:#b0b0b0;stroke-linecap:square;stroke-width:0.8;"/>
     </g>
     <g id="line2d_18">
      <defs>
       <path d="M 0 0 
L -3.5 0 
" id="m7de2beeaf0" style="stroke:#000000;stroke-width:0.8;"/>
      </defs>
      <g>
       <use style="stroke:#000000;stroke-width:0.8;" x="57.6" xlink:href="#m7de2beeaf0" y="298.944"/>
      </g>
     </g>
     <g id="text_6">
      <!-- 0.0 -->
      <g transform="translate(25.155 305.02275)scale(0.16 -0.16)">
       <defs>
        <path d="M 10.6875 12.40625 
L 21 12.40625 
L 21 0 
L 10.6875 0 
z
" id="DejaVuSans-46"/>
       </defs>
       <use xlink:href="#DejaVuSans-48"/>
       <use x="63.623047" xlink:href="#DejaVuSans-46"/>
       <use x="95.410156" xlink:href="#DejaVuSans-48"/>
      </g>
     </g>
    </g>
    <g id="ytick_2">
     <g id="line2d_19">
      <path clip-path="url(#p80c8d15899)" d="M 57.6 245.22202 
L 338.688 245.22202 
" style="fill:none;stroke:#b0b0b0;stroke-linecap:square;stroke-width:0.8;"/>
     </g>
     <g id="line2d_20">
      <g>
       <use style="stroke:#000000;stroke-width:0.8;" x="57.6" xlink:href="#m7de2beeaf0" y="245.22202"/>
      </g>
     </g>
     <g id="text_7">
      <!-- 0.2 -->
      <g transform="translate(25.155 251.30077)scale(0.16 -0.16)">
       <use xlink:href="#DejaVuSans-48"/>
       <use x="63.623047" xlink:href="#DejaVuSans-46"/>
       <use x="95.410156" xlink:href="#DejaVuSans-50"/>
      </g>
     </g>
    </g>
    <g id="ytick_3">
     <g id="line2d_21">
      <path clip-path="url(#p80c8d15899)" d="M 57.6 191.50004 
L 338.688 191.50004 
" style="fill:none;stroke:#b0b0b0;stroke-linecap:square;stroke-width:0.8;"/>
     </g>
     <g id="line2d_22">
      <g>
       <use style="stroke:#000000;stroke-width:0.8;" x="57.6" xlink:href="#m7de2beeaf0" y="191.50004"/>
      </g>
     </g>
     <g id="text_8">
      <!-- 0.4 -->
      <g transform="translate(25.155 197.57879)scale(0.16 -0.16)">
       <use xlink:href="#DejaVuSans-48"/>
       <use x="63.623047" xlink:href="#DejaVuSans-46"/>
       <use x="95.410156" xlink:href="#DejaVuSans-52"/>
      </g>
     </g>
    </g>
    <g id="ytick_4">
     <g id="line2d_23">
      <path clip-path="url(#p80c8d15899)" d="M 57.6 137.778059 
L 338.688 137.778059 
" style="fill:none;stroke:#b0b0b0;stroke-linecap:square;stroke-width:0.8;"/>
     </g>
     <g id="line2d_24">
      <g>
       <use style="stroke:#000000;stroke-width:0.8;" x="57.6" xlink:href="#m7de2beeaf0" y="137.778059"/>
      </g>
     </g>
     <g id="text_9">
      <!-- 0.6 -->
      <g transform="translate(25.155 143.856809)scale(0.16 -0.16)">
       <use xlink:href="#DejaVuSans-48"/>
       <use x="63.623047" xlink:href="#DejaVuSans-46"/>
       <use x="95.410156" xlink:href="#DejaVuSans-54"/>
      </g>
     </g>
    </g>
    <g id="ytick_5">
     <g id="line2d_25">
      <path clip-path="url(#p80c8d15899)" d="M 57.6 84.056079 
L 338.688 84.056079 
" style="fill:none;stroke:#b0b0b0;stroke-linecap:square;stroke-width:0.8;"/>
     </g>
     <g id="line2d_26">
      <g>
       <use style="stroke:#000000;stroke-width:0.8;" x="57.6" xlink:href="#m7de2beeaf0" y="84.056079"/>
      </g>
     </g>
     <g id="text_10">
      <!-- 0.8 -->
      <g transform="translate(25.155 90.134829)scale(0.16 -0.16)">
       <defs>
        <path d="M 31.78125 34.625 
Q 24.75 34.625 20.71875 30.859375 
Q 16.703125 27.09375 16.703125 20.515625 
Q 16.703125 13.921875 20.71875 10.15625 
Q 24.75 6.390625 31.78125 6.390625 
Q 38.8125 6.390625 42.859375 10.171875 
Q 46.921875 13.96875 46.921875 20.515625 
Q 46.921875 27.09375 42.890625 30.859375 
Q 38.875 34.625 31.78125 34.625 
z
M 21.921875 38.8125 
Q 15.578125 40.375 12.03125 44.71875 
Q 8.5 49.078125 8.5 55.328125 
Q 8.5 64.0625 14.71875 69.140625 
Q 20.953125 74.21875 31.78125 74.21875 
Q 42.671875 74.21875 48.875 69.140625 
Q 55.078125 64.0625 55.078125 55.328125 
Q 55.078125 49.078125 51.53125 44.71875 
Q 48 40.375 41.703125 38.8125 
Q 48.828125 37.15625 52.796875 32.3125 
Q 56.78125 27.484375 56.78125 20.515625 
Q 56.78125 9.90625 50.3125 4.234375 
Q 43.84375 -1.421875 31.78125 -1.421875 
Q 19.734375 -1.421875 13.25 4.234375 
Q 6.78125 9.90625 6.78125 20.515625 
Q 6.78125 27.484375 10.78125 32.3125 
Q 14.796875 37.15625 21.921875 38.8125 
z
M 18.3125 54.390625 
Q 18.3125 48.734375 21.84375 45.5625 
Q 25.390625 42.390625 31.78125 42.390625 
Q 38.140625 42.390625 41.71875 45.5625 
Q 45.3125 48.734375 45.3125 54.390625 
Q 45.3125 60.0625 41.71875 63.234375 
Q 38.140625 66.40625 31.78125 66.40625 
Q 25.390625 66.40625 21.84375 63.234375 
Q 18.3125 60.0625 18.3125 54.390625 
z
" id="DejaVuSans-56"/>
       </defs>
       <use xlink:href="#DejaVuSans-48"/>
       <use x="63.623047" xlink:href="#DejaVuSans-46"/>
       <use x="95.410156" xlink:href="#DejaVuSans-56"/>
      </g>
     </g>
    </g>
    <g id="ytick_6">
     <g id="line2d_27">
      <path clip-path="url(#p80c8d15899)" d="M 57.6 30.334099 
L 338.688 30.334099 
" style="fill:none;stroke:#b0b0b0;stroke-linecap:square;stroke-width:0.8;"/>
     </g>
     <g id="line2d_28">
      <g>
       <use style="stroke:#000000;stroke-width:0.8;" x="57.6" xlink:href="#m7de2beeaf0" y="30.334099"/>
      </g>
     </g>
     <g id="text_11">
      <!-- 1.0 -->
      <g transform="translate(25.155 36.412849)scale(0.16 -0.16)">
       <use xlink:href="#DejaVuSans-49"/>
       <use x="63.623047" xlink:href="#DejaVuSans-46"/>
       <use x="95.410156" xlink:href="#DejaVuSans-48"/>
      </g>
     </g>
    </g>
    <g id="text_12">
     <!-- Fraction of function,target pairs -->
     <g transform="translate(17.619531 297.681)rotate(-90)scale(0.17 -0.17)">
      <defs>
       <path d="M 9.8125 72.90625 
L 51.703125 72.90625 
L 51.703125 64.59375 
L 19.671875 64.59375 
L 19.671875 43.109375 
L 48.578125 43.109375 
L 48.578125 34.8125 
L 19.671875 34.8125 
L 19.671875 0 
L 9.8125 0 
z
" id="DejaVuSans-70"/>
       <path d="M 41.109375 46.296875 
Q 39.59375 47.171875 37.8125 47.578125 
Q 36.03125 48 33.890625 48 
Q 26.265625 48 22.1875 43.046875 
Q 18.109375 38.09375 18.109375 28.8125 
L 18.109375 0 
L 9.078125 0 
L 9.078125 54.6875 
L 18.109375 54.6875 
L 18.109375 46.1875 
Q 20.953125 51.171875 25.484375 53.578125 
Q 30.03125 56 36.53125 56 
Q 37.453125 56 38.578125 55.875 
Q 39.703125 55.765625 41.0625 55.515625 
z
" id="DejaVuSans-114"/>
       <path d="M 48.78125 52.59375 
L 48.78125 44.1875 
Q 44.96875 46.296875 41.140625 47.34375 
Q 37.3125 48.390625 33.40625 48.390625 
Q 24.65625 48.390625 19.8125 42.84375 
Q 14.984375 37.3125 14.984375 27.296875 
Q 14.984375 17.28125 19.8125 11.734375 
Q 24.65625 6.203125 33.40625 6.203125 
Q 37.3125 6.203125 41.140625 7.25 
Q 44.96875 8.296875 48.78125 10.40625 
L 48.78125 2.09375 
Q 45.015625 0.34375 40.984375 -0.53125 
Q 36.96875 -1.421875 32.421875 -1.421875 
Q 20.0625 -1.421875 12.78125 6.34375 
Q 5.515625 14.109375 5.515625 27.296875 
Q 5.515625 40.671875 12.859375 48.328125 
Q 20.21875 56 33.015625 56 
Q 37.15625 56 41.109375 55.140625 
Q 45.0625 54.296875 48.78125 52.59375 
z
" id="DejaVuSans-99"/>
       <path d="M 18.3125 70.21875 
L 18.3125 54.6875 
L 36.8125 54.6875 
L 36.8125 47.703125 
L 18.3125 47.703125 
L 18.3125 18.015625 
Q 18.3125 11.328125 20.140625 9.421875 
Q 21.96875 7.515625 27.59375 7.515625 
L 36.8125 7.515625 
L 36.8125 0 
L 27.59375 0 
Q 17.1875 0 13.234375 3.875 
Q 9.28125 7.765625 9.28125 18.015625 
L 9.28125 47.703125 
L 2.6875 47.703125 
L 2.6875 54.6875 
L 9.28125 54.6875 
L 9.28125 70.21875 
z
" id="DejaVuSans-116"/>
       <path d="M 8.5 21.578125 
L 8.5 54.6875 
L 17.484375 54.6875 
L 17.484375 21.921875 
Q 17.484375 14.15625 20.5 10.265625 
Q 23.53125 6.390625 29.59375 6.390625 
Q 36.859375 6.390625 41.078125 11.03125 
Q 45.3125 15.671875 45.3125 23.6875 
L 45.3125 54.6875 
L 54.296875 54.6875 
L 54.296875 0 
L 45.3125 0 
L 45.3125 8.40625 
Q 42.046875 3.421875 37.71875 1 
Q 33.40625 -1.421875 27.6875 -1.421875 
Q 18.265625 -1.421875 13.375 4.4375 
Q 8.5 10.296875 8.5 21.578125 
z
M 31.109375 56 
z
" id="DejaVuSans-117"/>
       <path d="M 11.71875 12.40625 
L 22.015625 12.40625 
L 22.015625 4 
L 14.015625 -11.625 
L 7.71875 -11.625 
L 11.71875 4 
z
" id="DejaVuSans-44"/>
       <path d="M 18.109375 8.203125 
L 18.109375 -20.796875 
L 9.078125 -20.796875 
L 9.078125 54.6875 
L 18.109375 54.6875 
L 18.109375 46.390625 
Q 20.953125 51.265625 25.265625 53.625 
Q 29.59375 56 35.59375 56 
Q 45.5625 56 51.78125 48.09375 
Q 58.015625 40.1875 58.015625 27.296875 
Q 58.015625 14.40625 51.78125 6.484375 
Q 45.5625 -1.421875 35.59375 -1.421875 
Q 29.59375 -1.421875 25.265625 0.953125 
Q 20.953125 3.328125 18.109375 8.203125 
z
M 48.6875 27.296875 
Q 48.6875 37.203125 44.609375 42.84375 
Q 40.53125 48.484375 33.40625 48.484375 
Q 26.265625 48.484375 22.1875 42.84375 
Q 18.109375 37.203125 18.109375 27.296875 
Q 18.109375 17.390625 22.1875 11.75 
Q 26.265625 6.109375 33.40625 6.109375 
Q 40.53125 6.109375 44.609375 11.75 
Q 48.6875 17.390625 48.6875 27.296875 
z
" id="DejaVuSans-112"/>
      </defs>
      <use xlink:href="#DejaVuSans-70"/>
      <use x="50.269531" xlink:href="#DejaVuSans-114"/>
      <use x="91.382812" xlink:href="#DejaVuSans-97"/>
      <use x="152.662109" xlink:href="#DejaVuSans-99"/>
      <use x="207.642578" xlink:href="#DejaVuSans-116"/>
      <use x="246.851562" xlink:href="#DejaVuSans-105"/>
      <use x="274.634766" xlink:href="#DejaVuSans-111"/>
      <use x="335.816406" xlink:href="#DejaVuSans-110"/>
      <use x="399.195312" xlink:href="#DejaVuSans-32"/>
      <use x="430.982422" xlink:href="#DejaVuSans-111"/>
      <use x="492.164062" xlink:href="#DejaVuSans-102"/>
      <use x="527.369141" xlink:href="#DejaVuSans-32"/>
      <use x="559.15625" xlink:href="#DejaVuSans-102"/>
      <use x="594.361328" xlink:href="#DejaVuSans-117"/>
      <use x="657.740234" xlink:href="#DejaVuSans-110"/>
      <use x="721.119141" xlink:href="#DejaVuSans-99"/>
      <use x="776.099609" xlink:href="#DejaVuSans-116"/>
      <use x="815.308594" xlink:href="#DejaVuSans-105"/>
      <use x="843.091797" xlink:href="#DejaVuSans-111"/>
      <use x="904.273438" xlink:href="#DejaVuSans-110"/>
      <use x="967.652344" xlink:href="#DejaVuSans-44"/>
      <use x="999.439453" xlink:href="#DejaVuSans-116"/>
      <use x="1038.648438" xlink:href="#DejaVuSans-97"/>
      <use x="1099.927734" xlink:href="#DejaVuSans-114"/>
      <use x="1139.291016" xlink:href="#DejaVuSans-103"/>
      <use x="1202.767578" xlink:href="#DejaVuSans-101"/>
      <use x="1264.291016" xlink:href="#DejaVuSans-116"/>
      <use x="1303.5" xlink:href="#DejaVuSans-32"/>
      <use x="1335.287109" xlink:href="#DejaVuSans-112"/>
      <use x="1398.763672" xlink:href="#DejaVuSans-97"/>
      <use x="1460.042969" xlink:href="#DejaVuSans-105"/>
      <use x="1487.826172" xlink:href="#DejaVuSans-114"/>
      <use x="1528.939453" xlink:href="#DejaVuSans-115"/>
     </g>
    </g>
   </g>
   <g id="line2d_29">
    <defs>
     <path d="M 0 1.5 
C 0.397805 1.5 0.77937 1.341951 1.06066 1.06066 
C 1.341951 0.77937 1.5 0.397805 1.5 0 
C 1.5 -0.397805 1.341951 -0.77937 1.06066 -1.06066 
C 0.77937 -1.341951 0.397805 -1.5 0 -1.5 
C -0.397805 -1.5 -0.77937 -1.341951 -1.06066 -1.06066 
C -1.341951 -0.77937 -1.5 -0.397805 -1.5 0 
C -1.5 0.397805 -1.341951 0.77937 -1.06066 1.06066 
C -0.77937 1.341951 -0.397805 1.5 0 1.5 
z
" id="mee8cd5aa68" style="stroke:#000080;"/>
    </defs>
    <g>
     <use style="fill:#000080;stroke:#000080;" x="191.010675" xlink:href="#mee8cd5aa68" y="30.334099"/>
     <use style="fill:#000080;stroke:#000080;" x="191.010675" xlink:href="#mee8cd5aa68" y="30.334099"/>
    </g>
   </g>
   <g id="line2d_30">
    <path d="M 78.59642 298.944 
L 78.59642 297.633708 
L 88.846997 297.633708 
L 88.846997 295.66827 
L 95.259853 295.66827 
L 95.259853 293.702831 
L 100.934985 293.702831 
L 100.934985 293.047685 
L 106.66386 293.047685 
L 106.66386 291.737393 
L 107.347841 291.737393 
L 107.347841 291.082247 
L 109.252198 291.082247 
L 109.252198 288.461662 
L 109.843417 288.461662 
L 109.843417 284.530786 
L 111.505558 284.530786 
L 111.505558 276.669033 
L 112.531694 276.669033 
L 112.531694 276.013887 
L 113.500792 276.013887 
L 113.500792 269.462426 
L 113.965867 269.462426 
L 113.965867 268.807279 
L 115.291007 268.807279 
L 115.291007 266.841841 
L 115.711251 266.841841 
L 115.711251 266.186695 
L 116.121606 266.186695 
L 116.121606 264.221257 
L 117.297733 264.221257 
L 117.297733 260.945526 
L 118.399528 260.945526 
L 118.399528 259.635234 
L 118.751849 259.635234 
L 118.751849 256.359504 
L 119.097192 256.359504 
L 119.097192 254.394065 
L 119.43583 254.394065 
L 119.43583 253.738919 
L 120.093994 253.738919 
L 120.093994 252.428627 
L 120.728219 252.428627 
L 120.728219 251.773481 
L 121.340187 251.773481 
L 121.340187 248.49775 
L 122.782271 248.49775 
L 122.782271 247.842604 
L 123.327293 247.842604 
L 123.327293 247.187458 
L 123.593547 247.187458 
L 123.593547 246.532312 
L 124.368753 246.532312 
L 124.368753 245.22202 
L 124.619683 245.22202 
L 124.619683 244.566874 
L 125.822869 244.566874 
L 125.822869 243.911728 
L 126.053856 243.911728 
L 126.053856 241.946289 
L 127.165014 241.946289 
L 127.165014 240.635997 
L 128.411207 240.635997 
L 128.411207 239.980851 
L 128.610515 239.980851 
L 128.610515 239.325705 
L 129.385722 239.325705 
L 129.385722 238.670559 
L 131.355321 238.670559 
L 131.355321 238.015413 
L 131.856005 238.015413 
L 131.856005 237.360267 
L 132.342714 237.360267 
L 132.342714 236.049974 
L 133.201197 236.049974 
L 133.277185 234.739682 
L 133.72629 234.739682 
L 133.800029 233.42939 
L 134.091907 233.42939 
L 134.091907 232.774244 
L 134.307653 232.774244 
L 134.37898 229.498513 
L 134.450015 229.498513 
L 134.450015 228.843367 
L 134.7313 228.843367 
L 134.7313 228.188221 
L 134.939326 228.188221 
L 135.00812 226.222783 
L 135.280614 226.222783 
L 135.280614 225.567637 
L 135.943785 225.567637 
L 135.943785 224.912491 
L 136.137916 224.912491 
L 136.137916 224.257345 
L 136.456742 224.257345 
L 136.456742 222.947052 
L 136.831795 222.947052 
L 136.831795 222.291906 
L 137.617753 222.291906 
L 137.617753 221.63676 
L 137.910857 221.63676 
L 137.910857 220.981614 
L 138.706272 220.981614 
L 138.706272 220.326468 
L 139.036363 220.326468 
L 139.036363 219.671322 
L 139.466984 219.671322 
L 139.572998 215.085299 
L 139.783113 215.085299 
L 139.887228 213.775007 
L 139.990725 213.775007 
L 139.990725 213.119861 
L 140.297583 213.119861 
L 140.39868 211.809569 
L 140.599134 211.809569 
L 140.599134 211.154423 
L 140.79731 211.154423 
L 140.79731 210.499277 
L 140.993259 210.499277 
L 140.993259 209.188984 
L 141.187031 209.188984 
L 141.187031 207.878692 
L 141.47371 207.878692 
L 141.47371 207.223546 
L 141.848763 207.223546 
L 141.848763 206.5684 
L 142.033307 206.5684 
L 142.033307 205.913254 
L 142.215919 205.913254 
L 142.215919 203.947816 
L 142.664255 203.947816 
L 142.752555 201.982377 
L 143.101352 201.982377 
L 143.101352 201.327231 
L 143.358447 201.327231 
L 143.44331 198.706647 
L 143.778691 198.706647 
L 143.861538 195.430916 
L 143.902815 195.430916 
L 143.985075 194.120624 
L 144.269971 194.120624 
L 144.269971 193.465478 
L 144.747789 193.465478 
L 144.747789 192.155186 
L 144.94308 192.155186 
L 144.94308 191.50004 
L 145.059213 191.50004 
L 145.059213 189.534601 
L 145.888018 189.534601 
L 145.888018 185.603725 
L 146.288102 185.603725 
L 146.359869 182.98314 
L 146.502522 182.98314 
L 146.608752 181.017702 
L 146.679213 181.017702 
L 146.714338 176.431679 
L 146.888907 176.431679 
L 146.888907 175.776533 
L 147.061745 175.776533 
L 147.130404 173.811095 
L 147.300877 173.811095 
L 147.300877 172.500803 
L 147.570215 172.500803 
L 147.570215 171.845657 
L 147.769524 171.845657 
L 147.802521 170.535364 
L 148.031773 170.535364 
L 148.031773 169.880218 
L 148.161434 169.880218 
L 148.193699 168.569926 
L 148.290138 168.569926 
L 148.290138 167.91478 
L 148.919783 167.91478 
L 148.950676 166.604488 
L 149.646525 166.604488 
L 149.705742 165.294196 
L 149.882194 165.294196 
L 149.940618 163.983903 
L 150.114722 163.983903 
L 150.114722 163.328757 
L 150.401087 163.328757 
L 150.401087 162.673611 
L 150.570677 162.673611 
L 150.570677 161.363319 
L 150.87737 161.363319 
L 150.960087 158.742735 
L 151.015013 158.742735 
L 151.124351 156.12215 
L 151.178764 156.12215 
L 151.233007 154.156712 
L 151.340991 154.156712 
L 151.394733 152.191274 
L 151.475037 152.191274 
L 151.475037 151.536128 
L 151.818809 151.536128 
L 151.897188 150.225835 
L 152.130233 150.225835 
L 152.181601 148.915543 
L 152.436193 148.915543 
L 152.536999 146.950105 
L 152.687123 146.950105 
L 152.736878 144.984667 
L 152.885298 144.984667 
L 152.983548 143.674374 
L 153.105587 143.674374 
L 153.178403 140.398644 
L 153.656221 140.398644 
L 153.656221 139.088352 
L 153.79705 139.088352 
L 153.79705 137.778059 
L 153.913546 137.778059 
L 153.983071 135.812621 
L 154.029268 135.812621 
L 154.029268 135.157475 
L 154.235652 135.157475 
L 154.303908 133.847183 
L 154.529516 133.847183 
L 154.529516 133.192037 
L 155.015814 133.192037 
L 155.0376 131.881745 
L 155.46769 131.881745 
L 155.46769 131.226598 
L 155.699795 131.226598 
L 155.783437 129.916306 
L 156.175347 129.916306 
L 156.236431 127.950868 
L 156.357959 127.950868 
L 156.357959 127.295722 
L 156.498681 127.295722 
L 156.538679 125.98543 
L 156.737306 125.98543 
L 156.737306 125.330284 
L 156.875011 125.330284 
L 156.933697 124.019991 
L 156.992185 124.019991 
L 156.992185 123.364845 
L 157.147202 123.364845 
L 157.147202 122.709699 
L 157.434196 122.709699 
L 157.434196 122.054553 
L 157.772468 122.054553 
L 157.772468 121.399407 
L 157.976006 121.399407 
L 158.012759 120.089115 
L 158.195371 120.089115 
L 158.195371 119.433969 
L 158.340096 119.433969 
L 158.340096 118.123676 
L 158.590511 118.123676 
L 158.69674 116.158238 
L 158.889829 116.158238 
L 158.942121 114.847946 
L 159.149734 114.847946 
L 159.149734 114.1928 
L 159.624763 114.1928 
L 159.624763 112.882508 
L 159.807898 112.882508 
L 159.874019 111.572215 
L 160.054568 111.572215 
L 160.152267 110.261923 
L 160.297798 110.261923 
L 160.346039 108.296485 
L 160.521792 108.296485 
L 160.569418 106.331047 
L 160.976823 106.331047 
L 161.007772 105.020754 
L 161.615474 105.020754 
L 161.615474 104.365608 
L 162.130378 104.365608 
L 162.159347 103.055316 
L 162.658665 103.055316 
L 162.658665 102.40017 
L 162.951535 102.40017 
L 162.951535 101.745024 
L 163.130401 101.745024 
L 163.21234 99.779586 
L 163.828065 99.779586 
L 163.828065 99.12444 
L 164.295217 99.12444 
L 164.39735 96.503855 
L 164.886862 96.503855 
L 164.997901 93.883271 
L 165.144862 93.883271 
L 165.242153 91.262686 
L 165.338904 91.262686 
L 165.435121 88.642102 
L 165.55465 88.642102 
L 165.55465 87.986956 
L 165.697012 87.986956 
L 165.697012 87.33181 
L 165.838222 87.33181 
L 165.838222 86.676664 
L 166.036331 86.676664 
L 166.036331 86.021518 
L 166.186323 86.021518 
L 166.255117 84.711225 
L 166.323641 84.711225 
L 166.380539 82.745787 
L 166.437252 82.745787 
L 166.505065 81.435495 
L 166.773712 81.435495 
L 166.795913 80.125203 
L 167.071073 80.125203 
L 167.125588 78.81491 
L 167.190782 78.81491 
L 167.190782 78.159764 
L 167.374185 78.159764 
L 167.374185 77.504618 
L 167.913096 77.504618 
L 167.913096 76.849472 
L 168.273531 76.849472 
L 168.273531 76.194326 
L 168.526499 76.194326 
L 168.526499 75.53918 
L 168.70639 75.53918 
L 168.805533 74.228888 
L 169.002145 74.228888 
L 169.002145 73.573742 
L 169.138466 73.573742 
L 169.138466 72.918596 
L 169.53167 72.918596 
L 169.635673 71.608303 
L 169.692141 71.608303 
L 169.78585 70.298011 
L 169.94401 70.298011 
L 170.036379 67.677427 
L 170.24699 67.677427 
L 170.346825 65.056842 
L 170.482048 65.056842 
L 170.482048 64.401696 
L 170.607318 64.401696 
L 170.607318 63.74655 
L 170.749391 63.74655 
L 170.749391 63.091404 
L 171.108254 63.091404 
L 171.203291 61.125966 
L 171.391826 61.125966 
L 171.391826 59.815674 
L 171.679247 59.815674 
L 171.679247 59.160527 
L 171.829514 59.160527 
L 171.895887 57.850235 
L 173.111214 57.850235 
L 173.14208 55.884797 
L 173.280304 55.884797 
L 173.280304 55.229651 
L 173.583604 55.229651 
L 173.583604 54.574505 
L 173.748197 54.574505 
L 173.748197 53.919359 
L 174.00689 53.919359 
L 174.00689 53.264213 
L 174.160284 53.264213 
L 174.25457 51.95392 
L 174.434469 51.95392 
L 174.434469 51.298774 
L 174.633778 51.298774 
L 174.633778 50.643628 
L 174.879752 50.643628 
L 174.879752 49.988482 
L 175.094755 49.988482 
L 175.136064 48.67819 
L 175.415753 48.67819 
L 175.415753 48.023044 
L 175.883143 48.023044 
L 175.883143 47.367898 
L 176.112223 47.367898 
L 176.112223 46.712752 
L 176.396004 46.712752 
L 176.396004 46.057605 
L 176.750628 46.057605 
L 176.750628 45.402459 
L 176.90043 45.402459 
L 176.90043 44.747313 
L 177.208443 44.747313 
L 177.208443 44.092167 
L 177.678338 44.092167 
L 177.678338 43.437021 
L 177.873391 43.437021 
L 177.978871 42.126729 
L 178.083716 42.126729 
L 178.083716 41.471583 
L 179.065994 41.471583 
L 179.065994 40.816437 
L 179.990676 40.816437 
L 179.990676 40.161291 
L 180.146154 40.161291 
L 180.146154 39.506144 
L 180.259296 39.506144 
L 180.259296 38.850998 
L 180.478341 38.850998 
L 180.478341 38.195852 
L 181.245843 38.195852 
L 181.245843 37.540706 
L 182.096708 37.540706 
L 182.096708 36.88556 
L 182.47549 36.88556 
L 182.47549 36.230414 
L 183.586035 36.230414 
L 183.586035 35.575268 
L 184.074726 35.575268 
L 184.1733 33.60983 
L 184.594129 33.60983 
L 184.594129 32.954683 
L 185.921609 32.954683 
L 185.921609 32.299537 
L 186.407536 32.299537 
L 186.407536 31.644391 
L 190.393864 31.644391 
L 190.393864 30.989245 
L 191.010675 30.989245 
L 191.010675 30.334099 
L 338.688 30.334099 
L 338.688 30.334099 
" style="fill:none;stroke:#000080;stroke-linecap:square;stroke-width:1.5;"/>
   </g>
   <g id="line2d_31">
    <defs>
     <path d="M 0 6 
C 1.591219 6 3.117479 5.367802 4.242641 4.242641 
C 5.367802 3.117479 6 1.591219 6 0 
C 6 -1.591219 5.367802 -3.117479 4.242641 -4.242641 
C 3.117479 -5.367802 1.591219 -6 0 -6 
C -1.591219 -6 -3.117479 -5.367802 -4.242641 -4.242641 
C -5.367802 -3.117479 -6 -1.591219 -6 0 
C -6 1.591219 -5.367802 3.117479 -4.242641 4.242641 
C -3.117479 5.367802 -1.591219 6 0 6 
z
" id="m48a6d41a90" style="stroke:#000080;stroke-width:1.5;"/>
    </defs>
    <g>
     <use style="fill-opacity:0;stroke:#000080;stroke-width:1.5;" x="148.193699" xlink:href="#m48a6d41a90" y="169.225072"/>
     <use style="fill-opacity:0;stroke:#000080;stroke-width:1.5;" x="184.594129" xlink:href="#m48a6d41a90" y="33.60983"/>
     <use style="fill-opacity:0;stroke:#000080;stroke-width:1.5;" x="191.010675" xlink:href="#m48a6d41a90" y="30.334099"/>
     <use style="fill-opacity:0;stroke:#000080;stroke-width:1.5;" x="191.010675" xlink:href="#m48a6d41a90" y="30.334099"/>
     <use style="fill-opacity:0;stroke:#000080;stroke-width:1.5;" x="338.688" xlink:href="#m48a6d41a90" y="30.334099"/>
    </g>
   </g>
   <g id="line2d_32">
    <path style="fill:none;stroke:#000080;stroke-linecap:square;stroke-width:1.5;"/>
    <g/>
   </g>
   <g id="line2d_33">
    <path clip-path="url(#p80c8d15899)" d="M 142.884173 201.982377 
" style="fill:none;stroke:#000080;stroke-linecap:square;stroke-width:1.5;"/>
    <defs>
     <path d="M -12 12 
L 12 -12 
M -12 -12 
L 12 12 
" id="mcace69da64" style="stroke:#000080;"/>
    </defs>
    <g clip-path="url(#p80c8d15899)">
     <use style="fill:#000080;stroke:#000080;" x="142.884173" xlink:href="#mcace69da64" y="201.982377"/>
    </g>
   </g>
   <g id="line2d_34">
    <defs>
     <path d="M 0 1.5 
C 0.397805 1.5 0.77937 1.341951 1.06066 1.06066 
C 1.341951 0.77937 1.5 0.397805 1.5 0 
C 1.5 -0.397805 1.341951 -0.77937 1.06066 -1.06066 
C 0.77937 -1.341951 0.397805 -1.5 0 -1.5 
C -0.397805 -1.5 -0.77937 -1.341951 -1.06066 -1.06066 
C -1.341951 -0.77937 -1.5 -0.397805 -1.5 0 
C -1.5 0.397805 -1.341951 0.77937 -1.06066 1.06066 
C -0.77937 1.341951 -0.397805 1.5 0 1.5 
z
" id="m8985376f77" style="stroke:#ff00ff;"/>
    </defs>
    <g>
     <use style="fill:#ff00ff;stroke:#ff00ff;" x="185.063517" xlink:href="#m8985376f77" y="30.334099"/>
     <use style="fill:#ff00ff;stroke:#ff00ff;" x="185.063517" xlink:href="#m8985376f77" y="30.334099"/>
    </g>
   </g>
   <g id="line2d_35">
    <path d="M 38.440992 298.944 
L 38.440992 298.288854 
L 78.59642 298.288854 
L 78.59642 296.978562 
L 88.846997 296.978562 
L 88.846997 295.66827 
L 95.259853 295.66827 
L 95.259853 283.87564 
L 96.552242 283.87564 
L 96.552242 283.220494 
L 99.938184 283.220494 
L 99.938184 282.565348 
L 101.877879 282.565348 
L 101.877879 281.910201 
L 103.623262 281.910201 
L 103.623262 274.048448 
L 104.434538 274.048448 
L 104.434538 272.738156 
L 106.66386 272.738156 
L 106.66386 270.772718 
L 107.347841 270.772718 
L 107.347841 270.117572 
L 110.415248 270.117572 
L 110.415248 269.462426 
L 110.968922 269.462426 
L 110.968922 268.152133 
L 111.505558 268.152133 
L 111.505558 267.496987 
L 113.500792 267.496987 
L 113.500792 266.186695 
L 113.965867 266.186695 
L 113.965867 264.876403 
L 114.418861 264.876403 
L 114.418861 264.221257 
L 115.711251 264.221257 
L 115.711251 262.910965 
L 116.522527 262.910965 
L 116.522527 262.255818 
L 118.039942 262.255818 
L 118.039942 261.600672 
L 118.751849 261.600672 
L 118.751849 260.945526 
L 119.43583 260.945526 
L 119.43583 258.980088 
L 120.728219 258.980088 
L 120.728219 258.324942 
L 121.189196 258.324942 
L 121.189196 257.669796 
L 124.114161 257.669796 
L 124.114161 257.01465 
L 125.351508 257.01465 
L 125.351508 256.359504 
L 125.588781 256.359504 
L 125.588781 255.049211 
L 126.281824 255.049211 
L 126.281824 253.738919 
L 126.729009 253.738919 
L 126.729009 253.083773 
L 127.378995 253.083773 
L 127.378995 252.428627 
L 127.695124 252.428627 
L 127.695124 251.773481 
L 127.902737 251.773481 
L 127.902737 251.118335 
L 128.209594 251.118335 
L 128.209594 249.152896 
L 128.807571 249.152896 
L 128.807571 248.49775 
L 129.574256 248.49775 
L 129.574256 247.187458 
L 130.30865 247.187458 
L 130.30865 246.532312 
L 130.487516 246.532312 
L 130.576266 245.22202 
L 132.181982 245.22202 
L 132.181982 244.566874 
L 132.659801 244.566874 
L 132.659801 241.946289 
L 132.971225 241.946289 
L 132.971225 240.635997 
L 133.428175 240.635997 
L 133.428175 236.705121 
L 133.72629 236.705121 
L 133.72629 234.084536 
L 134.019394 234.084536 
L 134.019394 232.774244 
L 134.164119 232.774244 
L 134.236034 231.463952 
L 134.591225 231.463952 
L 134.591225 230.808806 
L 134.870259 230.808806 
L 134.870259 228.843367 
L 135.144899 228.843367 
L 135.144899 222.947052 
L 135.280614 222.947052 
L 135.280614 222.291906 
L 135.813153 222.291906 
L 135.813153 221.63676 
L 136.008736 221.63676 
L 136.073445 219.671322 
L 136.582658 219.671322 
L 136.582658 219.016176 
L 136.707671 219.016176 
L 136.707671 218.36103 
L 137.077422 218.36103 
L 137.077422 217.705884 
L 137.198951 217.705884 
L 137.198951 216.395591 
L 137.37967 216.395591 
L 137.37967 215.740445 
L 137.852629 215.740445 
L 137.852629 215.085299 
L 138.026733 215.085299 
L 138.026733 213.775007 
L 138.141844 213.775007 
L 138.199116 211.154423 
L 138.313099 211.154423 
L 138.369812 208.533838 
L 138.482688 208.533838 
L 138.482688 207.878692 
L 138.927025 207.878692 
L 139.036363 205.258108 
L 139.145019 205.258108 
L 139.145019 204.602962 
L 139.360321 204.602962 
L 139.466984 201.327231 
L 139.887228 201.327231 
L 139.990725 198.706647 
L 140.093612 198.706647 
L 140.195896 196.086062 
L 140.39868 196.086062 
L 140.39868 195.430916 
L 140.64889 195.430916 
L 140.64889 194.77577 
L 140.79731 194.77577 
L 140.89556 193.465478 
L 140.993259 193.465478 
L 141.090414 191.50004 
L 141.138789 191.50004 
L 141.187031 189.534601 
L 141.378673 189.534601 
L 141.378673 188.879455 
L 141.848763 188.879455 
L 141.848763 188.224309 
L 142.261275 188.224309 
L 142.306513 186.914017 
L 142.619936 186.914017 
L 142.664255 185.603725 
L 142.752555 185.603725 
L 142.752555 184.948579 
L 142.927826 184.948579 
L 143.014805 181.672848 
L 143.101352 181.672848 
L 143.187472 179.70741 
L 143.230373 179.70741 
L 143.273169 178.397118 
L 143.358447 178.397118 
L 143.44331 175.776533 
L 143.527762 175.776533 
L 143.527762 174.466241 
L 143.943994 174.466241 
L 143.985075 172.500803 
L 144.269971 172.500803 
L 144.269971 171.845657 
L 144.430703 171.845657 
L 144.430703 171.190511 
L 144.589967 171.190511 
L 144.589967 170.535364 
L 144.747789 170.535364 
L 144.747789 169.880218 
L 145.020588 169.880218 
L 145.020588 169.225072 
L 145.365173 169.225072 
L 145.365173 168.569926 
L 145.516164 168.569926 
L 145.516164 167.91478 
L 145.961446 167.91478 
L 145.998045 165.949342 
L 146.107383 165.949342 
L 146.107383 165.294196 
L 146.252108 165.294196 
L 146.252108 163.983903 
L 146.502522 163.983903 
L 146.608752 162.673611 
L 146.644018 162.673611 
L 146.749392 158.087589 
L 146.784375 158.087589 
L 146.888907 154.156712 
L 146.958248 154.156712 
L 147.027314 152.191274 
L 147.198794 152.191274 
L 147.300877 149.570689 
L 147.436066 149.570689 
L 147.436066 148.915543 
L 147.802521 148.915543 
L 147.901141 146.950105 
L 148.225905 146.950105 
L 148.225905 145.639813 
L 148.354135 145.639813 
L 148.417899 144.32952 
L 148.48143 144.32952 
L 148.48143 143.674374 
L 148.607802 143.674374 
L 148.607802 143.019228 
L 148.857832 143.019228 
L 148.857832 141.05379 
L 148.981515 141.05379 
L 148.981515 140.398644 
L 149.104327 140.398644 
L 149.104327 139.088352 
L 149.31719 139.088352 
L 149.31719 137.778059 
L 149.676158 137.778059 
L 149.676158 137.122913 
L 149.852909 137.122913 
L 149.852909 136.467767 
L 149.969756 136.467767 
L 150.027887 133.847183 
L 150.201126 133.847183 
L 150.229833 132.536891 
L 150.344189 132.536891 
L 150.344189 131.881745 
L 150.738632 131.881745 
L 150.738632 131.226598 
L 150.904986 131.226598 
L 150.960087 129.916306 
L 151.069768 129.916306 
L 151.124351 127.950868 
L 151.287083 127.950868 
L 151.287083 127.295722 
L 151.44831 127.295722 
L 151.554972 124.675137 
L 151.60806 124.675137 
L 151.634543 121.399407 
L 151.844975 121.399407 
L 151.923236 117.46853 
L 152.001148 117.46853 
L 152.078714 116.158238 
L 152.130233 116.158238 
L 152.207228 113.537654 
L 152.334802 113.537654 
L 152.334802 112.227362 
L 152.536999 112.227362 
L 152.587184 110.261923 
L 152.934492 110.261923 
L 153.032466 107.641339 
L 153.081247 107.641339 
L 153.129893 105.675901 
L 153.226778 105.675901 
L 153.275019 104.365608 
L 153.347132 104.365608 
L 153.442821 103.055316 
L 153.632638 103.055316 
L 153.726778 101.745024 
L 153.913546 101.745024 
L 153.913546 101.089878 
L 154.05232 101.089878 
L 154.05232 100.434732 
L 154.19 100.434732 
L 154.212841 99.12444 
L 154.326601 99.12444 
L 154.326601 98.469293 
L 154.551917 98.469293 
L 154.551917 97.159001 
L 154.707925 97.159001 
L 154.707925 95.848709 
L 154.884527 95.848709 
L 154.972161 94.538417 
L 155.339773 94.538417 
L 155.339773 93.228125 
L 155.531298 93.228125 
L 155.61575 91.262686 
L 155.657823 91.262686 
L 155.741666 89.297248 
L 156.175347 89.297248 
L 156.256744 87.986956 
L 156.498681 87.986956 
L 156.498681 87.33181 
L 156.953214 87.33181 
L 156.992185 85.366371 
L 157.166482 85.366371 
L 157.224197 84.056079 
L 157.491032 84.056079 
L 157.528821 82.745787 
L 157.716543 82.745787 
L 157.809652 79.470057 
L 157.846757 79.470057 
L 157.86528 78.159764 
L 158.012759 78.159764 
L 158.031107 76.849472 
L 158.159001 76.849472 
L 158.159001 76.194326 
L 158.501489 76.194326 
L 158.537152 74.884034 
L 158.67908 74.884034 
L 158.732007 73.573742 
L 158.819862 73.573742 
L 158.819862 72.918596 
L 159.0116 72.918596 
L 159.0116 72.263449 
L 159.132527 72.263449 
L 159.132527 71.608303 
L 159.252621 71.608303 
L 159.354904 70.298011 
L 159.758143 70.298011 
L 159.758143 69.642865 
L 159.906985 69.642865 
L 159.956318 67.677427 
L 160.054568 67.677427 
L 160.136022 65.711988 
L 160.184713 65.711988 
L 160.184713 64.401696 
L 160.378126 64.401696 
L 160.378126 63.74655 
L 160.680044 63.74655 
L 160.680044 63.091404 
L 161.283861 63.091404 
L 161.314269 61.781112 
L 161.660209 61.781112 
L 161.764147 59.815674 
L 161.808503 59.815674 
L 161.808503 59.160527 
L 162.144868 59.160527 
L 162.144868 58.505381 
L 162.346481 58.505381 
L 162.403659 57.195089 
L 162.574077 57.195089 
L 162.644595 55.884797 
L 162.742845 55.884797 
L 162.79874 53.264213 
L 163.171418 53.264213 
L 163.21234 51.95392 
L 163.455871 51.95392 
L 163.482721 49.988482 
L 163.735759 49.988482 
L 163.735759 49.333336 
L 163.985177 49.333336 
L 164.050224 48.023044 
L 164.282408 48.023044 
L 164.282408 47.367898 
L 164.410075 47.367898 
L 164.51154 46.057605 
L 164.637547 46.057605 
L 164.687696 44.747313 
L 165.022481 44.747313 
L 165.022481 44.092167 
L 165.55465 44.092167 
L 165.602233 42.781875 
L 165.978297 42.781875 
L 165.978297 42.126729 
L 166.751482 42.126729 
L 166.751482 41.471583 
L 167.502494 41.471583 
L 167.502494 40.816437 
L 167.850553 40.816437 
L 167.850553 40.161291 
L 168.48627 40.161291 
L 168.48627 39.506144 
L 169.021685 39.506144 
L 169.041203 38.195852 
L 169.206229 38.195852 
L 169.206229 37.540706 
L 169.3984 37.540706 
L 169.3984 36.88556 
L 170.872762 36.88556 
L 170.872762 36.230414 
L 171.895887 36.230414 
L 171.937241 34.920122 
L 172.799511 34.920122 
L 172.846623 33.60983 
L 173.470484 33.60983 
L 173.470484 32.954683 
L 175.259407 32.954683 
L 175.259407 32.299537 
L 176.370396 32.299537 
L 176.370396 31.644391 
L 182.520577 31.644391 
L 182.520577 30.989245 
L 185.063517 30.989245 
L 185.063517 30.334099 
L 338.688 30.334099 
L 338.688 30.334099 
" style="fill:none;stroke:#ff00ff;stroke-linecap:square;stroke-width:1.5;"/>
   </g>
   <g id="line2d_36">
    <defs>
     <path d="M -0 8.485281 
L 5.091169 0 
L 0 -8.485281 
L -5.091169 -0 
z
" id="ma5e837f19f" style="stroke:#ff00ff;stroke-linejoin:miter;stroke-width:1.5;"/>
    </defs>
    <g>
     <use style="fill-opacity:0;stroke:#ff00ff;stroke-linejoin:miter;stroke-width:1.5;" x="128.807571" xlink:href="#ma5e837f19f" y="248.49775"/>
     <use style="fill-opacity:0;stroke:#ff00ff;stroke-linejoin:miter;stroke-width:1.5;" x="151.60806" xlink:href="#ma5e837f19f" y="122.054553"/>
     <use style="fill-opacity:0;stroke:#ff00ff;stroke-linejoin:miter;stroke-width:1.5;" x="185.063517" xlink:href="#ma5e837f19f" y="30.989245"/>
     <use style="fill-opacity:0;stroke:#ff00ff;stroke-linejoin:miter;stroke-width:1.5;" x="185.063517" xlink:href="#ma5e837f19f" y="30.334099"/>
     <use style="fill-opacity:0;stroke:#ff00ff;stroke-linejoin:miter;stroke-width:1.5;" x="185.063517" xlink:href="#ma5e837f19f" y="30.334099"/>
     <use style="fill-opacity:0;stroke:#ff00ff;stroke-linejoin:miter;stroke-width:1.5;" x="338.688" xlink:href="#ma5e837f19f" y="30.334099"/>
    </g>
   </g>
   <g id="line2d_37">
    <path style="fill:none;stroke:#ff00ff;stroke-linecap:square;stroke-width:1.5;"/>
    <g/>
   </g>
   <g id="line2d_38">
    <path clip-path="url(#p80c8d15899)" d="M 126.50685 253.738919 
" style="fill:none;stroke:#ff00ff;stroke-linecap:square;stroke-width:1.5;"/>
    <defs>
     <path d="M -12 12 
L 12 -12 
M -12 -12 
L 12 12 
" id="m67a633202b" style="stroke:#ff00ff;"/>
    </defs>
    <g clip-path="url(#p80c8d15899)">
     <use style="fill:#ff00ff;stroke:#ff00ff;" x="126.50685" xlink:href="#m67a633202b" y="253.738919"/>
    </g>
   </g>
   <g id="line2d_39">
    <path d="M 338.688 30.334099 
L 369.60768 293.571802 
" style="fill:none;stroke:#000080;stroke-linecap:square;stroke-width:1.5;"/>
    <g>
     <use style="fill-opacity:0;stroke:#000080;stroke-width:1.5;" x="338.688" xlink:href="#m48a6d41a90" y="30.334099"/>
     <use style="fill-opacity:0;stroke:#000080;stroke-width:1.5;" x="369.60768" xlink:href="#m48a6d41a90" y="293.571802"/>
    </g>
   </g>
   <g id="line2d_40">
    <path d="M 338.688 30.334099 
L 369.60768 35.706297 
" style="fill:none;stroke:#ff00ff;stroke-linecap:square;stroke-width:1.5;"/>
    <g>
     <use style="fill-opacity:0;stroke:#ff00ff;stroke-linejoin:miter;stroke-width:1.5;" x="338.688" xlink:href="#ma5e837f19f" y="30.334099"/>
     <use style="fill-opacity:0;stroke:#ff00ff;stroke-linejoin:miter;stroke-width:1.5;" x="369.60768" xlink:href="#ma5e837f19f" y="35.706297"/>
    </g>
   </g>
   <g id="line2d_41">
    <path d="M 338.688 298.944 
L 338.688 30.334099 
" style="fill:none;stroke:#000000;stroke-linecap:square;stroke-width:1.5;"/>
   </g>
   <g id="patch_3">
    <path d="M 57.6 298.944 
L 57.6 27.648 
" style="fill:none;stroke:#000000;stroke-linecap:square;stroke-linejoin:miter;stroke-width:0.8;"/>
   </g>
   <g id="patch_4">
    <path d="M 338.688 298.944 
L 338.688 27.648 
" style="fill:none;stroke:#000000;stroke-linecap:square;stroke-linejoin:miter;stroke-width:0.8;"/>
   </g>
   <g id="patch_5">
    <path d="M 57.6 298.944 
L 338.688 298.944 
" style="fill:none;stroke:#000000;stroke-linecap:square;stroke-linejoin:miter;stroke-width:0.8;"/>
   </g>
   <g id="patch_6">
    <path d="M 57.6 27.648 
L 338.688 27.648 
" style="fill:none;stroke:#000000;stroke-linecap:square;stroke-linejoin:miter;stroke-width:0.8;"/>
   </g>
   <g id="text_13">
    <!-- sqp fmincon on bbob-constrained -->
    <g transform="translate(375.22944 298.262739)scale(0.17 -0.17)">
     <defs>
      <path d="M 14.796875 27.296875 
Q 14.796875 17.390625 18.875 11.75 
Q 22.953125 6.109375 30.078125 6.109375 
Q 37.203125 6.109375 41.296875 11.75 
Q 45.40625 17.390625 45.40625 27.296875 
Q 45.40625 37.203125 41.296875 42.84375 
Q 37.203125 48.484375 30.078125 48.484375 
Q 22.953125 48.484375 18.875 42.84375 
Q 14.796875 37.203125 14.796875 27.296875 
z
M 45.40625 8.203125 
Q 42.578125 3.328125 38.25 0.953125 
Q 33.9375 -1.421875 27.875 -1.421875 
Q 17.96875 -1.421875 11.734375 6.484375 
Q 5.515625 14.40625 5.515625 27.296875 
Q 5.515625 40.1875 11.734375 48.09375 
Q 17.96875 56 27.875 56 
Q 33.9375 56 38.25 53.625 
Q 42.578125 51.265625 45.40625 46.390625 
L 45.40625 54.6875 
L 54.390625 54.6875 
L 54.390625 -20.796875 
L 45.40625 -20.796875 
z
" id="DejaVuSans-113"/>
      <path d="M 48.6875 27.296875 
Q 48.6875 37.203125 44.609375 42.84375 
Q 40.53125 48.484375 33.40625 48.484375 
Q 26.265625 48.484375 22.1875 42.84375 
Q 18.109375 37.203125 18.109375 27.296875 
Q 18.109375 17.390625 22.1875 11.75 
Q 26.265625 6.109375 33.40625 6.109375 
Q 40.53125 6.109375 44.609375 11.75 
Q 48.6875 17.390625 48.6875 27.296875 
z
M 18.109375 46.390625 
Q 20.953125 51.265625 25.265625 53.625 
Q 29.59375 56 35.59375 56 
Q 45.5625 56 51.78125 48.09375 
Q 58.015625 40.1875 58.015625 27.296875 
Q 58.015625 14.40625 51.78125 6.484375 
Q 45.5625 -1.421875 35.59375 -1.421875 
Q 29.59375 -1.421875 25.265625 0.953125 
Q 20.953125 3.328125 18.109375 8.203125 
L 18.109375 0 
L 9.078125 0 
L 9.078125 75.984375 
L 18.109375 75.984375 
z
" id="DejaVuSans-98"/>
     </defs>
     <use xlink:href="#DejaVuSans-115"/>
     <use x="52.099609" xlink:href="#DejaVuSans-113"/>
     <use x="115.576172" xlink:href="#DejaVuSans-112"/>
     <use x="179.052734" xlink:href="#DejaVuSans-32"/>
     <use x="210.839844" xlink:href="#DejaVuSans-102"/>
     <use x="246.044922" xlink:href="#DejaVuSans-109"/>
     <use x="343.457031" xlink:href="#DejaVuSans-105"/>
     <use x="371.240234" xlink:href="#DejaVuSans-110"/>
     <use x="434.619141" xlink:href="#DejaVuSans-99"/>
     <use x="489.599609" xlink:href="#DejaVuSans-111"/>
     <use x="550.78125" xlink:href="#DejaVuSans-110"/>
     <use x="614.160156" xlink:href="#DejaVuSans-32"/>
     <use x="645.947266" xlink:href="#DejaVuSans-111"/>
     <use x="707.128906" xlink:href="#DejaVuSans-110"/>
     <use x="770.507812" xlink:href="#DejaVuSans-32"/>
     <use x="802.294922" xlink:href="#DejaVuSans-98"/>
     <use x="865.771484" xlink:href="#DejaVuSans-98"/>
     <use x="929.248047" xlink:href="#DejaVuSans-111"/>
     <use x="990.429688" xlink:href="#DejaVuSans-98"/>
     <use x="1053.90625" xlink:href="#DejaVuSans-45"/>
     <use x="1089.990234" xlink:href="#DejaVuSans-99"/>
     <use x="1144.970703" xlink:href="#DejaVuSans-111"/>
     <use x="1206.152344" xlink:href="#DejaVuSans-110"/>
     <use x="1269.53125" xlink:href="#DejaVuSans-115"/>
     <use x="1321.630859" xlink:href="#DejaVuSans-116"/>
     <use x="1360.839844" xlink:href="#DejaVuSans-114"/>
     <use x="1401.953125" xlink:href="#DejaVuSans-97"/>
     <use x="1463.232422" xlink:href="#DejaVuSans-105"/>
     <use x="1491.015625" xlink:href="#DejaVuSans-110"/>
     <use x="1554.394531" xlink:href="#DejaVuSans-101"/>
     <use x="1615.917969" xlink:href="#DejaVuSans-100"/>
    </g>
   </g>
   <g id="text_14">
    <!-- sqp fmincon on bbob-constrained-ac -->
    <g transform="translate(375.22944 40.397235)scale(0.17 -0.17)">
     <use xlink:href="#DejaVuSans-115"/>
     <use x="52.099609" xlink:href="#DejaVuSans-113"/>
     <use x="115.576172" xlink:href="#DejaVuSans-112"/>
     <use x="179.052734" xlink:href="#DejaVuSans-32"/>
     <use x="210.839844" xlink:href="#DejaVuSans-102"/>
     <use x="246.044922" xlink:href="#DejaVuSans-109"/>
     <use x="343.457031" xlink:href="#DejaVuSans-105"/>
     <use x="371.240234" xlink:href="#DejaVuSans-110"/>
     <use x="434.619141" xlink:href="#DejaVuSans-99"/>
     <use x="489.599609" xlink:href="#DejaVuSans-111"/>
     <use x="550.78125" xlink:href="#DejaVuSans-110"/>
     <use x="614.160156" xlink:href="#DejaVuSans-32"/>
     <use x="645.947266" xlink:href="#DejaVuSans-111"/>
     <use x="707.128906" xlink:href="#DejaVuSans-110"/>
     <use x="770.507812" xlink:href="#DejaVuSans-32"/>
     <use x="802.294922" xlink:href="#DejaVuSans-98"/>
     <use x="865.771484" xlink:href="#DejaVuSans-98"/>
     <use x="929.248047" xlink:href="#DejaVuSans-111"/>
     <use x="990.429688" xlink:href="#DejaVuSans-98"/>
     <use x="1053.90625" xlink:href="#DejaVuSans-45"/>
     <use x="1089.990234" xlink:href="#DejaVuSans-99"/>
     <use x="1144.970703" xlink:href="#DejaVuSans-111"/>
     <use x="1206.152344" xlink:href="#DejaVuSans-110"/>
     <use x="1269.53125" xlink:href="#DejaVuSans-115"/>
     <use x="1321.630859" xlink:href="#DejaVuSans-116"/>
     <use x="1360.839844" xlink:href="#DejaVuSans-114"/>
     <use x="1401.953125" xlink:href="#DejaVuSans-97"/>
     <use x="1463.232422" xlink:href="#DejaVuSans-105"/>
     <use x="1491.015625" xlink:href="#DejaVuSans-110"/>
     <use x="1554.394531" xlink:href="#DejaVuSans-101"/>
     <use x="1615.917969" xlink:href="#DejaVuSans-100"/>
     <use x="1679.394531" xlink:href="#DejaVuSans-45"/>
     <use x="1715.478516" xlink:href="#DejaVuSans-97"/>
     <use x="1776.757812" xlink:href="#DejaVuSans-99"/>
    </g>
   </g>
   <g id="text_15">
    <!-- bbob-constrained f46, 3-D -->
    <g transform="translate(60.41088 38.111366)scale(0.102 -0.102)">
     <defs>
      <path d="M 40.578125 39.3125 
Q 47.65625 37.796875 51.625 33 
Q 55.609375 28.21875 55.609375 21.1875 
Q 55.609375 10.40625 48.1875 4.484375 
Q 40.765625 -1.421875 27.09375 -1.421875 
Q 22.515625 -1.421875 17.65625 -0.515625 
Q 12.796875 0.390625 7.625 2.203125 
L 7.625 11.71875 
Q 11.71875 9.328125 16.59375 8.109375 
Q 21.484375 6.890625 26.8125 6.890625 
Q 36.078125 6.890625 40.9375 10.546875 
Q 45.796875 14.203125 45.796875 21.1875 
Q 45.796875 27.640625 41.28125 31.265625 
Q 36.765625 34.90625 28.71875 34.90625 
L 20.21875 34.90625 
L 20.21875 43.015625 
L 29.109375 43.015625 
Q 36.375 43.015625 40.234375 45.921875 
Q 44.09375 48.828125 44.09375 54.296875 
Q 44.09375 59.90625 40.109375 62.90625 
Q 36.140625 65.921875 28.71875 65.921875 
Q 24.65625 65.921875 20.015625 65.03125 
Q 15.375 64.15625 9.8125 62.3125 
L 9.8125 71.09375 
Q 15.4375 72.65625 20.34375 73.4375 
Q 25.25 74.21875 29.59375 74.21875 
Q 40.828125 74.21875 47.359375 69.109375 
Q 53.90625 64.015625 53.90625 55.328125 
Q 53.90625 49.265625 50.4375 45.09375 
Q 46.96875 40.921875 40.578125 39.3125 
z
" id="DejaVuSans-51"/>
      <path d="M 19.671875 64.796875 
L 19.671875 8.109375 
L 31.59375 8.109375 
Q 46.6875 8.109375 53.6875 14.9375 
Q 60.6875 21.78125 60.6875 36.53125 
Q 60.6875 51.171875 53.6875 57.984375 
Q 46.6875 64.796875 31.59375 64.796875 
z
M 9.8125 72.90625 
L 30.078125 72.90625 
Q 51.265625 72.90625 61.171875 64.09375 
Q 71.09375 55.28125 71.09375 36.53125 
Q 71.09375 17.671875 61.125 8.828125 
Q 51.171875 0 30.078125 0 
L 9.8125 0 
z
" id="DejaVuSans-68"/>
     </defs>
     <use xlink:href="#DejaVuSans-98"/>
     <use x="63.476562" xlink:href="#DejaVuSans-98"/>
     <use x="126.953125" xlink:href="#DejaVuSans-111"/>
     <use x="188.134766" xlink:href="#DejaVuSans-98"/>
     <use x="251.611328" xlink:href="#DejaVuSans-45"/>
     <use x="287.695312" xlink:href="#DejaVuSans-99"/>
     <use x="342.675781" xlink:href="#DejaVuSans-111"/>
     <use x="403.857422" xlink:href="#DejaVuSans-110"/>
     <use x="467.236328" xlink:href="#DejaVuSans-115"/>
     <use x="519.335938" xlink:href="#DejaVuSans-116"/>
     <use x="558.544922" xlink:href="#DejaVuSans-114"/>
     <use x="599.658203" xlink:href="#DejaVuSans-97"/>
     <use x="660.9375" xlink:href="#DejaVuSans-105"/>
     <use x="688.720703" xlink:href="#DejaVuSans-110"/>
     <use x="752.099609" xlink:href="#DejaVuSans-101"/>
     <use x="813.623047" xlink:href="#DejaVuSans-100"/>
     <use x="877.099609" xlink:href="#DejaVuSans-32"/>
     <use x="908.886719" xlink:href="#DejaVuSans-102"/>
     <use x="944.091797" xlink:href="#DejaVuSans-52"/>
     <use x="1007.714844" xlink:href="#DejaVuSans-54"/>
     <use x="1071.337891" xlink:href="#DejaVuSans-44"/>
     <use x="1103.125" xlink:href="#DejaVuSans-32"/>
     <use x="1134.912109" xlink:href="#DejaVuSans-51"/>
     <use x="1198.535156" xlink:href="#DejaVuSans-45"/>
     <use x="1234.619141" xlink:href="#DejaVuSans-68"/>
    </g>
    <!-- 41 targets: 100..1e-06 -->
    <g transform="translate(60.41088 49.533135)scale(0.102 -0.102)">
     <defs>
      <path d="M 11.71875 12.40625 
L 22.015625 12.40625 
L 22.015625 0 
L 11.71875 0 
z
M 11.71875 51.703125 
L 22.015625 51.703125 
L 22.015625 39.3125 
L 11.71875 39.3125 
z
" id="DejaVuSans-58"/>
     </defs>
     <use xlink:href="#DejaVuSans-52"/>
     <use x="63.623047" xlink:href="#DejaVuSans-49"/>
     <use x="127.246094" xlink:href="#DejaVuSans-32"/>
     <use x="159.033203" xlink:href="#DejaVuSans-116"/>
     <use x="198.242188" xlink:href="#DejaVuSans-97"/>
     <use x="259.521484" xlink:href="#DejaVuSans-114"/>
     <use x="298.884766" xlink:href="#DejaVuSans-103"/>
     <use x="362.361328" xlink:href="#DejaVuSans-101"/>
     <use x="423.884766" xlink:href="#DejaVuSans-116"/>
     <use x="463.09375" xlink:href="#DejaVuSans-115"/>
     <use x="515.193359" xlink:href="#DejaVuSans-58"/>
     <use x="548.884766" xlink:href="#DejaVuSans-32"/>
     <use x="580.671875" xlink:href="#DejaVuSans-49"/>
     <use x="644.294922" xlink:href="#DejaVuSans-48"/>
     <use x="707.917969" xlink:href="#DejaVuSans-48"/>
     <use x="771.541016" xlink:href="#DejaVuSans-46"/>
     <use x="803.328125" xlink:href="#DejaVuSans-46"/>
     <use x="835.115234" xlink:href="#DejaVuSans-49"/>
     <use x="898.738281" xlink:href="#DejaVuSans-101"/>
     <use x="960.261719" xlink:href="#DejaVuSans-45"/>
     <use x="996.345703" xlink:href="#DejaVuSans-48"/>
     <use x="1059.96875" xlink:href="#DejaVuSans-54"/>
    </g>
    <!-- 15 instances -->
    <g transform="translate(60.41088 60.954904)scale(0.102 -0.102)">
     <defs>
      <path d="M 10.796875 72.90625 
L 49.515625 72.90625 
L 49.515625 64.59375 
L 19.828125 64.59375 
L 19.828125 46.734375 
Q 21.96875 47.46875 24.109375 47.828125 
Q 26.265625 48.1875 28.421875 48.1875 
Q 40.625 48.1875 47.75 41.5 
Q 54.890625 34.8125 54.890625 23.390625 
Q 54.890625 11.625 47.5625 5.09375 
Q 40.234375 -1.421875 26.90625 -1.421875 
Q 22.3125 -1.421875 17.546875 -0.640625 
Q 12.796875 0.140625 7.71875 1.703125 
L 7.71875 11.625 
Q 12.109375 9.234375 16.796875 8.0625 
Q 21.484375 6.890625 26.703125 6.890625 
Q 35.15625 6.890625 40.078125 11.328125 
Q 45.015625 15.765625 45.015625 23.390625 
Q 45.015625 31 40.078125 35.4375 
Q 35.15625 39.890625 26.703125 39.890625 
Q 22.75 39.890625 18.8125 39.015625 
Q 14.890625 38.140625 10.796875 36.28125 
z
" id="DejaVuSans-53"/>
     </defs>
     <use xlink:href="#DejaVuSans-49"/>
     <use x="63.623047" xlink:href="#DejaVuSans-53"/>
     <use x="127.246094" xlink:href="#DejaVuSans-32"/>
     <use x="159.033203" xlink:href="#DejaVuSans-105"/>
     <use x="186.816406" xlink:href="#DejaVuSans-110"/>
     <use x="250.195312" xlink:href="#DejaVuSans-115"/>
     <use x="302.294922" xlink:href="#DejaVuSans-116"/>
     <use x="341.503906" xlink:href="#DejaVuSans-97"/>
     <use x="402.783203" xlink:href="#DejaVuSans-110"/>
     <use x="466.162109" xlink:href="#DejaVuSans-99"/>
     <use x="521.142578" xlink:href="#DejaVuSans-101"/>
     <use x="582.666016" xlink:href="#DejaVuSans-115"/>
    </g>
   </g>
   <g id="text_16">
    <!-- v5z33 -->
    <g style="fill:#808080;" transform="translate(183.016656 294.151352)scale(0.1 -0.1)">
     <defs>
      <path d="M 5.515625 54.6875 
L 48.1875 54.6875 
L 48.1875 46.484375 
L 14.40625 7.171875 
L 48.1875 7.171875 
L 48.1875 0 
L 4.296875 0 
L 4.296875 8.203125 
L 38.09375 47.515625 
L 5.515625 47.515625 
z
" id="DejaVuSans-122"/>
     </defs>
     <use xlink:href="#DejaVuSans-118"/>
     <use x="59.179688" xlink:href="#DejaVuSans-53"/>
     <use x="122.802734" xlink:href="#DejaVuSans-122"/>
     <use x="175.292969" xlink:href="#DejaVuSans-51"/>
     <use x="238.916016" xlink:href="#DejaVuSans-51"/>
    </g>
   </g>
   <g id="text_17">
    <!-- 46 Separable Rastrigin, n/2+6 constraints -->
    <g transform="translate(-11.682563 21.648)scale(0.2 -0.2)">
     <defs>
      <path d="M 53.515625 70.515625 
L 53.515625 60.890625 
Q 47.90625 63.578125 42.921875 64.890625 
Q 37.9375 66.21875 33.296875 66.21875 
Q 25.25 66.21875 20.875 63.09375 
Q 16.5 59.96875 16.5 54.203125 
Q 16.5 49.359375 19.40625 46.890625 
Q 22.3125 44.4375 30.421875 42.921875 
L 36.375 41.703125 
Q 47.40625 39.59375 52.65625 34.296875 
Q 57.90625 29 57.90625 20.125 
Q 57.90625 9.515625 50.796875 4.046875 
Q 43.703125 -1.421875 29.984375 -1.421875 
Q 24.8125 -1.421875 18.96875 -0.25 
Q 13.140625 0.921875 6.890625 3.21875 
L 6.890625 13.375 
Q 12.890625 10.015625 18.65625 8.296875 
Q 24.421875 6.59375 29.984375 6.59375 
Q 38.421875 6.59375 43.015625 9.90625 
Q 47.609375 13.234375 47.609375 19.390625 
Q 47.609375 24.75 44.3125 27.78125 
Q 41.015625 30.8125 33.5 32.328125 
L 27.484375 33.5 
Q 16.453125 35.6875 11.515625 40.375 
Q 6.59375 45.0625 6.59375 53.421875 
Q 6.59375 63.09375 13.40625 68.65625 
Q 20.21875 74.21875 32.171875 74.21875 
Q 37.3125 74.21875 42.625 73.28125 
Q 47.953125 72.359375 53.515625 70.515625 
z
" id="DejaVuSans-83"/>
      <path d="M 44.390625 34.1875 
Q 47.5625 33.109375 50.5625 29.59375 
Q 53.5625 26.078125 56.59375 19.921875 
L 66.609375 0 
L 56 0 
L 46.6875 18.703125 
Q 43.0625 26.03125 39.671875 28.421875 
Q 36.28125 30.8125 30.421875 30.8125 
L 19.671875 30.8125 
L 19.671875 0 
L 9.8125 0 
L 9.8125 72.90625 
L 32.078125 72.90625 
Q 44.578125 72.90625 50.734375 67.671875 
Q 56.890625 62.453125 56.890625 51.90625 
Q 56.890625 45.015625 53.6875 40.46875 
Q 50.484375 35.9375 44.390625 34.1875 
z
M 19.671875 64.796875 
L 19.671875 38.921875 
L 32.078125 38.921875 
Q 39.203125 38.921875 42.84375 42.21875 
Q 46.484375 45.515625 46.484375 51.90625 
Q 46.484375 58.296875 42.84375 61.546875 
Q 39.203125 64.796875 32.078125 64.796875 
z
" id="DejaVuSans-82"/>
     </defs>
     <use xlink:href="#DejaVuSans-52"/>
     <use x="63.623047" xlink:href="#DejaVuSans-54"/>
     <use x="127.246094" xlink:href="#DejaVuSans-32"/>
     <use x="159.033203" xlink:href="#DejaVuSans-83"/>
     <use x="222.509766" xlink:href="#DejaVuSans-101"/>
     <use x="284.033203" xlink:href="#DejaVuSans-112"/>
     <use x="347.509766" xlink:href="#DejaVuSans-97"/>
     <use x="408.789062" xlink:href="#DejaVuSans-114"/>
     <use x="449.902344" xlink:href="#DejaVuSans-97"/>
     <use x="511.181641" xlink:href="#DejaVuSans-98"/>
     <use x="574.658203" xlink:href="#DejaVuSans-108"/>
     <use x="602.441406" xlink:href="#DejaVuSans-101"/>
     <use x="663.964844" xlink:href="#DejaVuSans-32"/>
     <use x="695.751953" xlink:href="#DejaVuSans-82"/>
     <use x="762.984375" xlink:href="#DejaVuSans-97"/>
     <use x="824.263672" xlink:href="#DejaVuSans-115"/>
     <use x="876.363281" xlink:href="#DejaVuSans-116"/>
     <use x="915.572266" xlink:href="#DejaVuSans-114"/>
     <use x="956.685547" xlink:href="#DejaVuSans-105"/>
     <use x="984.46875" xlink:href="#DejaVuSans-103"/>
     <use x="1047.945312" xlink:href="#DejaVuSans-105"/>
     <use x="1075.728516" xlink:href="#DejaVuSans-110"/>
     <use x="1139.107422" xlink:href="#DejaVuSans-44"/>
     <use x="1170.894531" xlink:href="#DejaVuSans-32"/>
     <use x="1202.681641" xlink:href="#DejaVuSans-110"/>
     <use x="1266.060547" xlink:href="#DejaVuSans-47"/>
     <use x="1299.751953" xlink:href="#DejaVuSans-50"/>
     <use x="1363.375" xlink:href="#DejaVuSans-43"/>
     <use x="1447.164062" xlink:href="#DejaVuSans-54"/>
     <use x="1510.787109" xlink:href="#DejaVuSans-32"/>
     <use x="1542.574219" xlink:href="#DejaVuSans-99"/>
     <use x="1597.554688" xlink:href="#DejaVuSans-111"/>
     <use x="1658.736328" xlink:href="#DejaVuSans-110"/>
     <use x="1722.115234" xlink:href="#DejaVuSans-115"/>
     <use x="1774.214844" xlink:href="#DejaVuSans-116"/>
     <use x="1813.423828" xlink:href="#DejaVuSans-114"/>
     <use x="1854.537109" xlink:href="#DejaVuSans-97"/>
     <use x="1915.816406" xlink:href="#DejaVuSans-105"/>
     <use x="1943.599609" xlink:href="#DejaVuSans-110"/>
     <use x="2006.978516" xlink:href="#DejaVuSans-116"/>
     <use x="2046.1875" xlink:href="#DejaVuSans-115"/>
    </g>
   </g>
  </g>
 </g>
 <defs>
  <clipPath id="p80c8d15899">
   <rect height="271.296" width="281.088" x="57.6" y="27.648"/>
  </clipPath>
 </defs>
</svg>
