<?xml version="1.0" encoding="utf-8" standalone="no"?>
<!DOCTYPE svg PUBLIC "-//W3C//DTD SVG 1.1//EN"
  "http://www.w3.org/Graphics/SVG/1.1/DTD/svg11.dtd">
<!-- Created with matplotlib (https://matplotlib.org/) -->
<svg height="345.6pt" version="1.1" viewBox="0 0 460.8 345.6" width="460.8pt" xmlns="http://www.w3.org/2000/svg" xmlns:xlink="http://www.w3.org/1999/xlink">
 <metadata>
  <rdf:RDF xmlns:cc="http://creativecommons.org/ns#" xmlns:dc="http://purl.org/dc/elements/1.1/" xmlns:rdf="http://www.w3.org/1999/02/22-rdf-syntax-ns#">
   <cc:Work>
    <dc:type rdf:resource="http://purl.org/dc/dcmitype/StillImage"/>
    <dc:date>2021-04-07T09:51:08.946310</dc:date>
    <dc:format>image/svg+xml</dc:format>
    <dc:creator>
     <cc:Agent>
      <dc:title>Matplotlib v3.3.3, https://matplotlib.org/</dc:title>
     </cc:Agent>
    </dc:creator>
   </cc:Work>
  </rdf:RDF>
 </metadata>
 <defs>
  <style type="text/css">*{stroke-linecap:butt;stroke-linejoin:round;}</style>
 </defs>
 <g id="figure_1">
  <g id="patch_1">
   <path d="M 0 345.6 
L 460.8 345.6 
L 460.8 0 
L 0 0 
z
" style="fill:#ffffff;"/>
  </g>
  <g id="axes_1">
   <g id="patch_2">
    <path d="M 57.6 298.944 
L 338.688 298.944 
L 338.688 27.648 
L 57.6 27.648 
z
" style="fill:#ffffff;"/>
   </g>
   <g id="matplotlib.axis_1">
    <g id="xtick_1">
     <g id="line2d_1">
      <path clip-path="url(#p414b63e900)" d="M 57.6 298.944 
L 57.6 27.648 
" style="fill:none;stroke:#b0b0b0;stroke-linecap:square;stroke-width:0.8;"/>
     </g>
     <g id="line2d_2">
      <defs>
       <path d="M 0 0 
L 0 3.5 
" id="m5f6a7bc689" style="stroke:#000000;stroke-width:0.8;"/>
      </defs>
      <g>
       <use style="stroke:#000000;stroke-width:0.8;" x="57.6" xlink:href="#m5f6a7bc689" y="298.944"/>
      </g>
     </g>
     <g id="text_1">
      <!-- 0 -->
      <g transform="translate(51.2375 321.140875)scale(0.2 -0.2)">
       <defs>
        <path d="M 31.78125 66.40625 
Q 24.171875 66.40625 20.328125 58.90625 
Q 16.5 51.421875 16.5 36.375 
Q 16.5 21.390625 20.328125 13.890625 
Q 24.171875 6.390625 31.78125 6.390625 
Q 39.453125 6.390625 43.28125 13.890625 
Q 47.125 21.390625 47.125 36.375 
Q 47.125 51.421875 43.28125 58.90625 
Q 39.453125 66.40625 31.78125 66.40625 
z
M 31.78125 74.21875 
Q 44.046875 74.21875 50.515625 64.515625 
Q 56.984375 54.828125 56.984375 36.375 
Q 56.984375 17.96875 50.515625 8.265625 
Q 44.046875 -1.421875 31.78125 -1.421875 
Q 19.53125 -1.421875 13.0625 8.265625 
Q 6.59375 17.96875 6.59375 36.375 
Q 6.59375 54.828125 13.0625 64.515625 
Q 19.53125 74.21875 31.78125 74.21875 
z
" id="DejaVuSans-48"/>
       </defs>
       <use xlink:href="#DejaVuSans-48"/>
      </g>
     </g>
    </g>
    <g id="xtick_2">
     <g id="line2d_3">
      <path clip-path="url(#p414b63e900)" d="M 137.910857 298.944 
L 137.910857 27.648 
" style="fill:none;stroke:#b0b0b0;stroke-linecap:square;stroke-width:0.8;"/>
     </g>
     <g id="line2d_4">
      <g>
       <use style="stroke:#000000;stroke-width:0.8;" x="137.910857" xlink:href="#m5f6a7bc689" y="298.944"/>
      </g>
     </g>
     <g id="text_2">
      <!-- 2 -->
      <g transform="translate(131.548357 321.140875)scale(0.2 -0.2)">
       <defs>
        <path d="M 19.1875 8.296875 
L 53.609375 8.296875 
L 53.609375 0 
L 7.328125 0 
L 7.328125 8.296875 
Q 12.9375 14.109375 22.625 23.890625 
Q 32.328125 33.6875 34.8125 36.53125 
Q 39.546875 41.84375 41.421875 45.53125 
Q 43.3125 49.21875 43.3125 52.78125 
Q 43.3125 58.59375 39.234375 62.25 
Q 35.15625 65.921875 28.609375 65.921875 
Q 23.96875 65.921875 18.8125 64.3125 
Q 13.671875 62.703125 7.8125 59.421875 
L 7.8125 69.390625 
Q 13.765625 71.78125 18.9375 73 
Q 24.125 74.21875 28.421875 74.21875 
Q 39.75 74.21875 46.484375 68.546875 
Q 53.21875 62.890625 53.21875 53.421875 
Q 53.21875 48.921875 51.53125 44.890625 
Q 49.859375 40.875 45.40625 35.40625 
Q 44.1875 33.984375 37.640625 27.21875 
Q 31.109375 20.453125 19.1875 8.296875 
z
" id="DejaVuSans-50"/>
       </defs>
       <use xlink:href="#DejaVuSans-50"/>
      </g>
     </g>
    </g>
    <g id="xtick_3">
     <g id="line2d_5">
      <path clip-path="url(#p414b63e900)" d="M 218.221714 298.944 
L 218.221714 27.648 
" style="fill:none;stroke:#b0b0b0;stroke-linecap:square;stroke-width:0.8;"/>
     </g>
     <g id="line2d_6">
      <g>
       <use style="stroke:#000000;stroke-width:0.8;" x="218.221714" xlink:href="#m5f6a7bc689" y="298.944"/>
      </g>
     </g>
     <g id="text_3">
      <!-- 4 -->
      <g transform="translate(211.859214 321.140875)scale(0.2 -0.2)">
       <defs>
        <path d="M 37.796875 64.3125 
L 12.890625 25.390625 
L 37.796875 25.390625 
z
M 35.203125 72.90625 
L 47.609375 72.90625 
L 47.609375 25.390625 
L 58.015625 25.390625 
L 58.015625 17.1875 
L 47.609375 17.1875 
L 47.609375 0 
L 37.796875 0 
L 37.796875 17.1875 
L 4.890625 17.1875 
L 4.890625 26.703125 
z
" id="DejaVuSans-52"/>
       </defs>
       <use xlink:href="#DejaVuSans-52"/>
      </g>
     </g>
    </g>
    <g id="xtick_4">
     <g id="line2d_7">
      <path clip-path="url(#p414b63e900)" d="M 298.532571 298.944 
L 298.532571 27.648 
" style="fill:none;stroke:#b0b0b0;stroke-linecap:square;stroke-width:0.8;"/>
     </g>
     <g id="line2d_8">
      <g>
       <use style="stroke:#000000;stroke-width:0.8;" x="298.532571" xlink:href="#m5f6a7bc689" y="298.944"/>
      </g>
     </g>
     <g id="text_4">
      <!-- 6 -->
      <g transform="translate(292.170071 321.140875)scale(0.2 -0.2)">
       <defs>
        <path d="M 33.015625 40.375 
Q 26.375 40.375 22.484375 35.828125 
Q 18.609375 31.296875 18.609375 23.390625 
Q 18.609375 15.53125 22.484375 10.953125 
Q 26.375 6.390625 33.015625 6.390625 
Q 39.65625 6.390625 43.53125 10.953125 
Q 47.40625 15.53125 47.40625 23.390625 
Q 47.40625 31.296875 43.53125 35.828125 
Q 39.65625 40.375 33.015625 40.375 
z
M 52.59375 71.296875 
L 52.59375 62.3125 
Q 48.875 64.0625 45.09375 64.984375 
Q 41.3125 65.921875 37.59375 65.921875 
Q 27.828125 65.921875 22.671875 59.328125 
Q 17.53125 52.734375 16.796875 39.40625 
Q 19.671875 43.65625 24.015625 45.921875 
Q 28.375 48.1875 33.59375 48.1875 
Q 44.578125 48.1875 50.953125 41.515625 
Q 57.328125 34.859375 57.328125 23.390625 
Q 57.328125 12.15625 50.6875 5.359375 
Q 44.046875 -1.421875 33.015625 -1.421875 
Q 20.359375 -1.421875 13.671875 8.265625 
Q 6.984375 17.96875 6.984375 36.375 
Q 6.984375 53.65625 15.1875 63.9375 
Q 23.390625 74.21875 37.203125 74.21875 
Q 40.921875 74.21875 44.703125 73.484375 
Q 48.484375 72.75 52.59375 71.296875 
z
" id="DejaVuSans-54"/>
       </defs>
       <use xlink:href="#DejaVuSans-54"/>
      </g>
     </g>
    </g>
    <g id="xtick_5">
     <g id="line2d_9">
      <path clip-path="url(#p414b63e900)" d="M 97.755429 298.944 
L 97.755429 27.648 
" style="fill:none;stroke:#b0b0b0;stroke-linecap:square;stroke-width:0.8;"/>
     </g>
     <g id="line2d_10">
      <defs>
       <path d="M 0 0 
L 0 2 
" id="m72615080dc" style="stroke:#000000;stroke-width:0.6;"/>
      </defs>
      <g>
       <use style="stroke:#000000;stroke-width:0.6;" x="97.755429" xlink:href="#m72615080dc" y="298.944"/>
      </g>
     </g>
    </g>
    <g id="xtick_6">
     <g id="line2d_11">
      <path clip-path="url(#p414b63e900)" d="M 178.066286 298.944 
L 178.066286 27.648 
" style="fill:none;stroke:#b0b0b0;stroke-linecap:square;stroke-width:0.8;"/>
     </g>
     <g id="line2d_12">
      <g>
       <use style="stroke:#000000;stroke-width:0.6;" x="178.066286" xlink:href="#m72615080dc" y="298.944"/>
      </g>
     </g>
    </g>
    <g id="xtick_7">
     <g id="line2d_13">
      <path clip-path="url(#p414b63e900)" d="M 258.377143 298.944 
L 258.377143 27.648 
" style="fill:none;stroke:#b0b0b0;stroke-linecap:square;stroke-width:0.8;"/>
     </g>
     <g id="line2d_14">
      <g>
       <use style="stroke:#000000;stroke-width:0.6;" x="258.377143" xlink:href="#m72615080dc" y="298.944"/>
      </g>
     </g>
    </g>
    <g id="xtick_8">
     <g id="line2d_15">
      <path clip-path="url(#p414b63e900)" d="M 338.688 298.944 
L 338.688 27.648 
" style="fill:none;stroke:#b0b0b0;stroke-linecap:square;stroke-width:0.8;"/>
     </g>
     <g id="line2d_16">
      <g>
       <use style="stroke:#000000;stroke-width:0.6;" x="338.688" xlink:href="#m72615080dc" y="298.944"/>
      </g>
     </g>
    </g>
    <g id="text_5">
     <!-- log10(# (f+g)-evals / dimension) -->
     <g transform="translate(58.145016 342.217594)scale(0.17 -0.17)">
      <defs>
       <path d="M 9.421875 75.984375 
L 18.40625 75.984375 
L 18.40625 0 
L 9.421875 0 
z
" id="DejaVuSans-108"/>
       <path d="M 30.609375 48.390625 
Q 23.390625 48.390625 19.1875 42.75 
Q 14.984375 37.109375 14.984375 27.296875 
Q 14.984375 17.484375 19.15625 11.84375 
Q 23.34375 6.203125 30.609375 6.203125 
Q 37.796875 6.203125 41.984375 11.859375 
Q 46.1875 17.53125 46.1875 27.296875 
Q 46.1875 37.015625 41.984375 42.703125 
Q 37.796875 48.390625 30.609375 48.390625 
z
M 30.609375 56 
Q 42.328125 56 49.015625 48.375 
Q 55.71875 40.765625 55.71875 27.296875 
Q 55.71875 13.875 49.015625 6.21875 
Q 42.328125 -1.421875 30.609375 -1.421875 
Q 18.84375 -1.421875 12.171875 6.21875 
Q 5.515625 13.875 5.515625 27.296875 
Q 5.515625 40.765625 12.171875 48.375 
Q 18.84375 56 30.609375 56 
z
" id="DejaVuSans-111"/>
       <path d="M 45.40625 27.984375 
Q 45.40625 37.75 41.375 43.109375 
Q 37.359375 48.484375 30.078125 48.484375 
Q 22.859375 48.484375 18.828125 43.109375 
Q 14.796875 37.75 14.796875 27.984375 
Q 14.796875 18.265625 18.828125 12.890625 
Q 22.859375 7.515625 30.078125 7.515625 
Q 37.359375 7.515625 41.375 12.890625 
Q 45.40625 18.265625 45.40625 27.984375 
z
M 54.390625 6.78125 
Q 54.390625 -7.171875 48.1875 -13.984375 
Q 42 -20.796875 29.203125 -20.796875 
Q 24.46875 -20.796875 20.265625 -20.09375 
Q 16.0625 -19.390625 12.109375 -17.921875 
L 12.109375 -9.1875 
Q 16.0625 -11.328125 19.921875 -12.34375 
Q 23.78125 -13.375 27.78125 -13.375 
Q 36.625 -13.375 41.015625 -8.765625 
Q 45.40625 -4.15625 45.40625 5.171875 
L 45.40625 9.625 
Q 42.625 4.78125 38.28125 2.390625 
Q 33.9375 0 27.875 0 
Q 17.828125 0 11.671875 7.65625 
Q 5.515625 15.328125 5.515625 27.984375 
Q 5.515625 40.671875 11.671875 48.328125 
Q 17.828125 56 27.875 56 
Q 33.9375 56 38.28125 53.609375 
Q 42.625 51.21875 45.40625 46.390625 
L 45.40625 54.6875 
L 54.390625 54.6875 
z
" id="DejaVuSans-103"/>
       <path d="M 12.40625 8.296875 
L 28.515625 8.296875 
L 28.515625 63.921875 
L 10.984375 60.40625 
L 10.984375 69.390625 
L 28.421875 72.90625 
L 38.28125 72.90625 
L 38.28125 8.296875 
L 54.390625 8.296875 
L 54.390625 0 
L 12.40625 0 
z
" id="DejaVuSans-49"/>
       <path d="M 31 75.875 
Q 24.46875 64.65625 21.28125 53.65625 
Q 18.109375 42.671875 18.109375 31.390625 
Q 18.109375 20.125 21.3125 9.0625 
Q 24.515625 -2 31 -13.1875 
L 23.1875 -13.1875 
Q 15.875 -1.703125 12.234375 9.375 
Q 8.59375 20.453125 8.59375 31.390625 
Q 8.59375 42.28125 12.203125 53.3125 
Q 15.828125 64.359375 23.1875 75.875 
z
" id="DejaVuSans-40"/>
       <path d="M 51.125 44 
L 36.921875 44 
L 32.8125 27.6875 
L 47.125 27.6875 
z
M 43.796875 71.78125 
L 38.71875 51.515625 
L 52.984375 51.515625 
L 58.109375 71.78125 
L 65.921875 71.78125 
L 60.890625 51.515625 
L 76.125 51.515625 
L 76.125 44 
L 58.984375 44 
L 54.984375 27.6875 
L 70.515625 27.6875 
L 70.515625 20.21875 
L 53.078125 20.21875 
L 48 0 
L 40.1875 0 
L 45.21875 20.21875 
L 30.90625 20.21875 
L 25.875 0 
L 18.015625 0 
L 23.09375 20.21875 
L 7.71875 20.21875 
L 7.71875 27.6875 
L 24.90625 27.6875 
L 29 44 
L 13.28125 44 
L 13.28125 51.515625 
L 30.90625 51.515625 
L 35.890625 71.78125 
z
" id="DejaVuSans-35"/>
       <path id="DejaVuSans-32"/>
       <path d="M 37.109375 75.984375 
L 37.109375 68.5 
L 28.515625 68.5 
Q 23.6875 68.5 21.796875 66.546875 
Q 19.921875 64.59375 19.921875 59.515625 
L 19.921875 54.6875 
L 34.71875 54.6875 
L 34.71875 47.703125 
L 19.921875 47.703125 
L 19.921875 0 
L 10.890625 0 
L 10.890625 47.703125 
L 2.296875 47.703125 
L 2.296875 54.6875 
L 10.890625 54.6875 
L 10.890625 58.5 
Q 10.890625 67.625 15.140625 71.796875 
Q 19.390625 75.984375 28.609375 75.984375 
z
" id="DejaVuSans-102"/>
       <path d="M 46 62.703125 
L 46 35.5 
L 73.1875 35.5 
L 73.1875 27.203125 
L 46 27.203125 
L 46 0 
L 37.796875 0 
L 37.796875 27.203125 
L 10.59375 27.203125 
L 10.59375 35.5 
L 37.796875 35.5 
L 37.796875 62.703125 
z
" id="DejaVuSans-43"/>
       <path d="M 8.015625 75.875 
L 15.828125 75.875 
Q 23.140625 64.359375 26.78125 53.3125 
Q 30.421875 42.28125 30.421875 31.390625 
Q 30.421875 20.453125 26.78125 9.375 
Q 23.140625 -1.703125 15.828125 -13.1875 
L 8.015625 -13.1875 
Q 14.5 -2 17.703125 9.0625 
Q 20.90625 20.125 20.90625 31.390625 
Q 20.90625 42.671875 17.703125 53.65625 
Q 14.5 64.65625 8.015625 75.875 
z
" id="DejaVuSans-41"/>
       <path d="M 4.890625 31.390625 
L 31.203125 31.390625 
L 31.203125 23.390625 
L 4.890625 23.390625 
z
" id="DejaVuSans-45"/>
       <path d="M 56.203125 29.59375 
L 56.203125 25.203125 
L 14.890625 25.203125 
Q 15.484375 15.921875 20.484375 11.0625 
Q 25.484375 6.203125 34.421875 6.203125 
Q 39.59375 6.203125 44.453125 7.46875 
Q 49.3125 8.734375 54.109375 11.28125 
L 54.109375 2.78125 
Q 49.265625 0.734375 44.1875 -0.34375 
Q 39.109375 -1.421875 33.890625 -1.421875 
Q 20.796875 -1.421875 13.15625 6.1875 
Q 5.515625 13.8125 5.515625 26.8125 
Q 5.515625 40.234375 12.765625 48.109375 
Q 20.015625 56 32.328125 56 
Q 43.359375 56 49.78125 48.890625 
Q 56.203125 41.796875 56.203125 29.59375 
z
M 47.21875 32.234375 
Q 47.125 39.59375 43.09375 43.984375 
Q 39.0625 48.390625 32.421875 48.390625 
Q 24.90625 48.390625 20.390625 44.140625 
Q 15.875 39.890625 15.1875 32.171875 
z
" id="DejaVuSans-101"/>
       <path d="M 2.984375 54.6875 
L 12.5 54.6875 
L 29.59375 8.796875 
L 46.6875 54.6875 
L 56.203125 54.6875 
L 35.6875 0 
L 23.484375 0 
z
" id="DejaVuSans-118"/>
       <path d="M 34.28125 27.484375 
Q 23.390625 27.484375 19.1875 25 
Q 14.984375 22.515625 14.984375 16.5 
Q 14.984375 11.71875 18.140625 8.90625 
Q 21.296875 6.109375 26.703125 6.109375 
Q 34.1875 6.109375 38.703125 11.40625 
Q 43.21875 16.703125 43.21875 25.484375 
L 43.21875 27.484375 
z
M 52.203125 31.203125 
L 52.203125 0 
L 43.21875 0 
L 43.21875 8.296875 
Q 40.140625 3.328125 35.546875 0.953125 
Q 30.953125 -1.421875 24.3125 -1.421875 
Q 15.921875 -1.421875 10.953125 3.296875 
Q 6 8.015625 6 15.921875 
Q 6 25.140625 12.171875 29.828125 
Q 18.359375 34.515625 30.609375 34.515625 
L 43.21875 34.515625 
L 43.21875 35.40625 
Q 43.21875 41.609375 39.140625 45 
Q 35.0625 48.390625 27.6875 48.390625 
Q 23 48.390625 18.546875 47.265625 
Q 14.109375 46.140625 10.015625 43.890625 
L 10.015625 52.203125 
Q 14.9375 54.109375 19.578125 55.046875 
Q 24.21875 56 28.609375 56 
Q 40.484375 56 46.34375 49.84375 
Q 52.203125 43.703125 52.203125 31.203125 
z
" id="DejaVuSans-97"/>
       <path d="M 44.28125 53.078125 
L 44.28125 44.578125 
Q 40.484375 46.53125 36.375 47.5 
Q 32.28125 48.484375 27.875 48.484375 
Q 21.1875 48.484375 17.84375 46.4375 
Q 14.5 44.390625 14.5 40.28125 
Q 14.5 37.15625 16.890625 35.375 
Q 19.28125 33.59375 26.515625 31.984375 
L 29.59375 31.296875 
Q 39.15625 29.25 43.1875 25.515625 
Q 47.21875 21.78125 47.21875 15.09375 
Q 47.21875 7.46875 41.1875 3.015625 
Q 35.15625 -1.421875 24.609375 -1.421875 
Q 20.21875 -1.421875 15.453125 -0.5625 
Q 10.6875 0.296875 5.421875 2 
L 5.421875 11.28125 
Q 10.40625 8.6875 15.234375 7.390625 
Q 20.0625 6.109375 24.8125 6.109375 
Q 31.15625 6.109375 34.5625 8.28125 
Q 37.984375 10.453125 37.984375 14.40625 
Q 37.984375 18.0625 35.515625 20.015625 
Q 33.0625 21.96875 24.703125 23.78125 
L 21.578125 24.515625 
Q 13.234375 26.265625 9.515625 29.90625 
Q 5.8125 33.546875 5.8125 39.890625 
Q 5.8125 47.609375 11.28125 51.796875 
Q 16.75 56 26.8125 56 
Q 31.78125 56 36.171875 55.265625 
Q 40.578125 54.546875 44.28125 53.078125 
z
" id="DejaVuSans-115"/>
       <path d="M 25.390625 72.90625 
L 33.6875 72.90625 
L 8.296875 -9.28125 
L 0 -9.28125 
z
" id="DejaVuSans-47"/>
       <path d="M 45.40625 46.390625 
L 45.40625 75.984375 
L 54.390625 75.984375 
L 54.390625 0 
L 45.40625 0 
L 45.40625 8.203125 
Q 42.578125 3.328125 38.25 0.953125 
Q 33.9375 -1.421875 27.875 -1.421875 
Q 17.96875 -1.421875 11.734375 6.484375 
Q 5.515625 14.40625 5.515625 27.296875 
Q 5.515625 40.1875 11.734375 48.09375 
Q 17.96875 56 27.875 56 
Q 33.9375 56 38.25 53.625 
Q 42.578125 51.265625 45.40625 46.390625 
z
M 14.796875 27.296875 
Q 14.796875 17.390625 18.875 11.75 
Q 22.953125 6.109375 30.078125 6.109375 
Q 37.203125 6.109375 41.296875 11.75 
Q 45.40625 17.390625 45.40625 27.296875 
Q 45.40625 37.203125 41.296875 42.84375 
Q 37.203125 48.484375 30.078125 48.484375 
Q 22.953125 48.484375 18.875 42.84375 
Q 14.796875 37.203125 14.796875 27.296875 
z
" id="DejaVuSans-100"/>
       <path d="M 9.421875 54.6875 
L 18.40625 54.6875 
L 18.40625 0 
L 9.421875 0 
z
M 9.421875 75.984375 
L 18.40625 75.984375 
L 18.40625 64.59375 
L 9.421875 64.59375 
z
" id="DejaVuSans-105"/>
       <path d="M 52 44.1875 
Q 55.375 50.25 60.0625 53.125 
Q 64.75 56 71.09375 56 
Q 79.640625 56 84.28125 50.015625 
Q 88.921875 44.046875 88.921875 33.015625 
L 88.921875 0 
L 79.890625 0 
L 79.890625 32.71875 
Q 79.890625 40.578125 77.09375 44.375 
Q 74.3125 48.1875 68.609375 48.1875 
Q 61.625 48.1875 57.5625 43.546875 
Q 53.515625 38.921875 53.515625 30.90625 
L 53.515625 0 
L 44.484375 0 
L 44.484375 32.71875 
Q 44.484375 40.625 41.703125 44.40625 
Q 38.921875 48.1875 33.109375 48.1875 
Q 26.21875 48.1875 22.15625 43.53125 
Q 18.109375 38.875 18.109375 30.90625 
L 18.109375 0 
L 9.078125 0 
L 9.078125 54.6875 
L 18.109375 54.6875 
L 18.109375 46.1875 
Q 21.1875 51.21875 25.484375 53.609375 
Q 29.78125 56 35.6875 56 
Q 41.65625 56 45.828125 52.96875 
Q 50 49.953125 52 44.1875 
z
" id="DejaVuSans-109"/>
       <path d="M 54.890625 33.015625 
L 54.890625 0 
L 45.90625 0 
L 45.90625 32.71875 
Q 45.90625 40.484375 42.875 44.328125 
Q 39.84375 48.1875 33.796875 48.1875 
Q 26.515625 48.1875 22.3125 43.546875 
Q 18.109375 38.921875 18.109375 30.90625 
L 18.109375 0 
L 9.078125 0 
L 9.078125 54.6875 
L 18.109375 54.6875 
L 18.109375 46.1875 
Q 21.34375 51.125 25.703125 53.5625 
Q 30.078125 56 35.796875 56 
Q 45.21875 56 50.046875 50.171875 
Q 54.890625 44.34375 54.890625 33.015625 
z
" id="DejaVuSans-110"/>
      </defs>
      <use xlink:href="#DejaVuSans-108"/>
      <use x="27.783203" xlink:href="#DejaVuSans-111"/>
      <use x="88.964844" xlink:href="#DejaVuSans-103"/>
      <use x="152.441406" xlink:href="#DejaVuSans-49"/>
      <use x="216.064453" xlink:href="#DejaVuSans-48"/>
      <use x="279.6875" xlink:href="#DejaVuSans-40"/>
      <use x="318.701172" xlink:href="#DejaVuSans-35"/>
      <use x="402.490234" xlink:href="#DejaVuSans-32"/>
      <use x="434.277344" xlink:href="#DejaVuSans-40"/>
      <use x="473.291016" xlink:href="#DejaVuSans-102"/>
      <use x="508.496094" xlink:href="#DejaVuSans-43"/>
      <use x="592.285156" xlink:href="#DejaVuSans-103"/>
      <use x="655.761719" xlink:href="#DejaVuSans-41"/>
      <use x="694.775391" xlink:href="#DejaVuSans-45"/>
      <use x="730.859375" xlink:href="#DejaVuSans-101"/>
      <use x="792.382812" xlink:href="#DejaVuSans-118"/>
      <use x="851.5625" xlink:href="#DejaVuSans-97"/>
      <use x="912.841797" xlink:href="#DejaVuSans-108"/>
      <use x="940.625" xlink:href="#DejaVuSans-115"/>
      <use x="992.724609" xlink:href="#DejaVuSans-32"/>
      <use x="1024.511719" xlink:href="#DejaVuSans-47"/>
      <use x="1058.203125" xlink:href="#DejaVuSans-32"/>
      <use x="1089.990234" xlink:href="#DejaVuSans-100"/>
      <use x="1153.466797" xlink:href="#DejaVuSans-105"/>
      <use x="1181.25" xlink:href="#DejaVuSans-109"/>
      <use x="1278.662109" xlink:href="#DejaVuSans-101"/>
      <use x="1340.185547" xlink:href="#DejaVuSans-110"/>
      <use x="1403.564453" xlink:href="#DejaVuSans-115"/>
      <use x="1455.664062" xlink:href="#DejaVuSans-105"/>
      <use x="1483.447266" xlink:href="#DejaVuSans-111"/>
      <use x="1544.628906" xlink:href="#DejaVuSans-110"/>
      <use x="1608.007812" xlink:href="#DejaVuSans-41"/>
     </g>
    </g>
   </g>
   <g id="matplotlib.axis_2">
    <g id="ytick_1">
     <g id="line2d_17">
      <path clip-path="url(#p414b63e900)" d="M 57.6 298.944 
L 338.688 298.944 
" style="fill:none;stroke:#b0b0b0;stroke-linecap:square;stroke-width:0.8;"/>
     </g>
     <g id="line2d_18">
      <defs>
       <path d="M 0 0 
L -3.5 0 
" id="m862f6f7c41" style="stroke:#000000;stroke-width:0.8;"/>
      </defs>
      <g>
       <use style="stroke:#000000;stroke-width:0.8;" x="57.6" xlink:href="#m862f6f7c41" y="298.944"/>
      </g>
     </g>
     <g id="text_6">
      <!-- 0.0 -->
      <g transform="translate(25.155 305.02275)scale(0.16 -0.16)">
       <defs>
        <path d="M 10.6875 12.40625 
L 21 12.40625 
L 21 0 
L 10.6875 0 
z
" id="DejaVuSans-46"/>
       </defs>
       <use xlink:href="#DejaVuSans-48"/>
       <use x="63.623047" xlink:href="#DejaVuSans-46"/>
       <use x="95.410156" xlink:href="#DejaVuSans-48"/>
      </g>
     </g>
    </g>
    <g id="ytick_2">
     <g id="line2d_19">
      <path clip-path="url(#p414b63e900)" d="M 57.6 245.22202 
L 338.688 245.22202 
" style="fill:none;stroke:#b0b0b0;stroke-linecap:square;stroke-width:0.8;"/>
     </g>
     <g id="line2d_20">
      <g>
       <use style="stroke:#000000;stroke-width:0.8;" x="57.6" xlink:href="#m862f6f7c41" y="245.22202"/>
      </g>
     </g>
     <g id="text_7">
      <!-- 0.2 -->
      <g transform="translate(25.155 251.30077)scale(0.16 -0.16)">
       <use xlink:href="#DejaVuSans-48"/>
       <use x="63.623047" xlink:href="#DejaVuSans-46"/>
       <use x="95.410156" xlink:href="#DejaVuSans-50"/>
      </g>
     </g>
    </g>
    <g id="ytick_3">
     <g id="line2d_21">
      <path clip-path="url(#p414b63e900)" d="M 57.6 191.50004 
L 338.688 191.50004 
" style="fill:none;stroke:#b0b0b0;stroke-linecap:square;stroke-width:0.8;"/>
     </g>
     <g id="line2d_22">
      <g>
       <use style="stroke:#000000;stroke-width:0.8;" x="57.6" xlink:href="#m862f6f7c41" y="191.50004"/>
      </g>
     </g>
     <g id="text_8">
      <!-- 0.4 -->
      <g transform="translate(25.155 197.57879)scale(0.16 -0.16)">
       <use xlink:href="#DejaVuSans-48"/>
       <use x="63.623047" xlink:href="#DejaVuSans-46"/>
       <use x="95.410156" xlink:href="#DejaVuSans-52"/>
      </g>
     </g>
    </g>
    <g id="ytick_4">
     <g id="line2d_23">
      <path clip-path="url(#p414b63e900)" d="M 57.6 137.778059 
L 338.688 137.778059 
" style="fill:none;stroke:#b0b0b0;stroke-linecap:square;stroke-width:0.8;"/>
     </g>
     <g id="line2d_24">
      <g>
       <use style="stroke:#000000;stroke-width:0.8;" x="57.6" xlink:href="#m862f6f7c41" y="137.778059"/>
      </g>
     </g>
     <g id="text_9">
      <!-- 0.6 -->
      <g transform="translate(25.155 143.856809)scale(0.16 -0.16)">
       <use xlink:href="#DejaVuSans-48"/>
       <use x="63.623047" xlink:href="#DejaVuSans-46"/>
       <use x="95.410156" xlink:href="#DejaVuSans-54"/>
      </g>
     </g>
    </g>
    <g id="ytick_5">
     <g id="line2d_25">
      <path clip-path="url(#p414b63e900)" d="M 57.6 84.056079 
L 338.688 84.056079 
" style="fill:none;stroke:#b0b0b0;stroke-linecap:square;stroke-width:0.8;"/>
     </g>
     <g id="line2d_26">
      <g>
       <use style="stroke:#000000;stroke-width:0.8;" x="57.6" xlink:href="#m862f6f7c41" y="84.056079"/>
      </g>
     </g>
     <g id="text_10">
      <!-- 0.8 -->
      <g transform="translate(25.155 90.134829)scale(0.16 -0.16)">
       <defs>
        <path d="M 31.78125 34.625 
Q 24.75 34.625 20.71875 30.859375 
Q 16.703125 27.09375 16.703125 20.515625 
Q 16.703125 13.921875 20.71875 10.15625 
Q 24.75 6.390625 31.78125 6.390625 
Q 38.8125 6.390625 42.859375 10.171875 
Q 46.921875 13.96875 46.921875 20.515625 
Q 46.921875 27.09375 42.890625 30.859375 
Q 38.875 34.625 31.78125 34.625 
z
M 21.921875 38.8125 
Q 15.578125 40.375 12.03125 44.71875 
Q 8.5 49.078125 8.5 55.328125 
Q 8.5 64.0625 14.71875 69.140625 
Q 20.953125 74.21875 31.78125 74.21875 
Q 42.671875 74.21875 48.875 69.140625 
Q 55.078125 64.0625 55.078125 55.328125 
Q 55.078125 49.078125 51.53125 44.71875 
Q 48 40.375 41.703125 38.8125 
Q 48.828125 37.15625 52.796875 32.3125 
Q 56.78125 27.484375 56.78125 20.515625 
Q 56.78125 9.90625 50.3125 4.234375 
Q 43.84375 -1.421875 31.78125 -1.421875 
Q 19.734375 -1.421875 13.25 4.234375 
Q 6.78125 9.90625 6.78125 20.515625 
Q 6.78125 27.484375 10.78125 32.3125 
Q 14.796875 37.15625 21.921875 38.8125 
z
M 18.3125 54.390625 
Q 18.3125 48.734375 21.84375 45.5625 
Q 25.390625 42.390625 31.78125 42.390625 
Q 38.140625 42.390625 41.71875 45.5625 
Q 45.3125 48.734375 45.3125 54.390625 
Q 45.3125 60.0625 41.71875 63.234375 
Q 38.140625 66.40625 31.78125 66.40625 
Q 25.390625 66.40625 21.84375 63.234375 
Q 18.3125 60.0625 18.3125 54.390625 
z
" id="DejaVuSans-56"/>
       </defs>
       <use xlink:href="#DejaVuSans-48"/>
       <use x="63.623047" xlink:href="#DejaVuSans-46"/>
       <use x="95.410156" xlink:href="#DejaVuSans-56"/>
      </g>
     </g>
    </g>
    <g id="ytick_6">
     <g id="line2d_27">
      <path clip-path="url(#p414b63e900)" d="M 57.6 30.334099 
L 338.688 30.334099 
" style="fill:none;stroke:#b0b0b0;stroke-linecap:square;stroke-width:0.8;"/>
     </g>
     <g id="line2d_28">
      <g>
       <use style="stroke:#000000;stroke-width:0.8;" x="57.6" xlink:href="#m862f6f7c41" y="30.334099"/>
      </g>
     </g>
     <g id="text_11">
      <!-- 1.0 -->
      <g transform="translate(25.155 36.412849)scale(0.16 -0.16)">
       <use xlink:href="#DejaVuSans-49"/>
       <use x="63.623047" xlink:href="#DejaVuSans-46"/>
       <use x="95.410156" xlink:href="#DejaVuSans-48"/>
      </g>
     </g>
    </g>
    <g id="text_12">
     <!-- Fraction of function,target pairs -->
     <g transform="translate(17.619531 297.681)rotate(-90)scale(0.17 -0.17)">
      <defs>
       <path d="M 9.8125 72.90625 
L 51.703125 72.90625 
L 51.703125 64.59375 
L 19.671875 64.59375 
L 19.671875 43.109375 
L 48.578125 43.109375 
L 48.578125 34.8125 
L 19.671875 34.8125 
L 19.671875 0 
L 9.8125 0 
z
" id="DejaVuSans-70"/>
       <path d="M 41.109375 46.296875 
Q 39.59375 47.171875 37.8125 47.578125 
Q 36.03125 48 33.890625 48 
Q 26.265625 48 22.1875 43.046875 
Q 18.109375 38.09375 18.109375 28.8125 
L 18.109375 0 
L 9.078125 0 
L 9.078125 54.6875 
L 18.109375 54.6875 
L 18.109375 46.1875 
Q 20.953125 51.171875 25.484375 53.578125 
Q 30.03125 56 36.53125 56 
Q 37.453125 56 38.578125 55.875 
Q 39.703125 55.765625 41.0625 55.515625 
z
" id="DejaVuSans-114"/>
       <path d="M 48.78125 52.59375 
L 48.78125 44.1875 
Q 44.96875 46.296875 41.140625 47.34375 
Q 37.3125 48.390625 33.40625 48.390625 
Q 24.65625 48.390625 19.8125 42.84375 
Q 14.984375 37.3125 14.984375 27.296875 
Q 14.984375 17.28125 19.8125 11.734375 
Q 24.65625 6.203125 33.40625 6.203125 
Q 37.3125 6.203125 41.140625 7.25 
Q 44.96875 8.296875 48.78125 10.40625 
L 48.78125 2.09375 
Q 45.015625 0.34375 40.984375 -0.53125 
Q 36.96875 -1.421875 32.421875 -1.421875 
Q 20.0625 -1.421875 12.78125 6.34375 
Q 5.515625 14.109375 5.515625 27.296875 
Q 5.515625 40.671875 12.859375 48.328125 
Q 20.21875 56 33.015625 56 
Q 37.15625 56 41.109375 55.140625 
Q 45.0625 54.296875 48.78125 52.59375 
z
" id="DejaVuSans-99"/>
       <path d="M 18.3125 70.21875 
L 18.3125 54.6875 
L 36.8125 54.6875 
L 36.8125 47.703125 
L 18.3125 47.703125 
L 18.3125 18.015625 
Q 18.3125 11.328125 20.140625 9.421875 
Q 21.96875 7.515625 27.59375 7.515625 
L 36.8125 7.515625 
L 36.8125 0 
L 27.59375 0 
Q 17.1875 0 13.234375 3.875 
Q 9.28125 7.765625 9.28125 18.015625 
L 9.28125 47.703125 
L 2.6875 47.703125 
L 2.6875 54.6875 
L 9.28125 54.6875 
L 9.28125 70.21875 
z
" id="DejaVuSans-116"/>
       <path d="M 8.5 21.578125 
L 8.5 54.6875 
L 17.484375 54.6875 
L 17.484375 21.921875 
Q 17.484375 14.15625 20.5 10.265625 
Q 23.53125 6.390625 29.59375 6.390625 
Q 36.859375 6.390625 41.078125 11.03125 
Q 45.3125 15.671875 45.3125 23.6875 
L 45.3125 54.6875 
L 54.296875 54.6875 
L 54.296875 0 
L 45.3125 0 
L 45.3125 8.40625 
Q 42.046875 3.421875 37.71875 1 
Q 33.40625 -1.421875 27.6875 -1.421875 
Q 18.265625 -1.421875 13.375 4.4375 
Q 8.5 10.296875 8.5 21.578125 
z
M 31.109375 56 
z
" id="DejaVuSans-117"/>
       <path d="M 11.71875 12.40625 
L 22.015625 12.40625 
L 22.015625 4 
L 14.015625 -11.625 
L 7.71875 -11.625 
L 11.71875 4 
z
" id="DejaVuSans-44"/>
       <path d="M 18.109375 8.203125 
L 18.109375 -20.796875 
L 9.078125 -20.796875 
L 9.078125 54.6875 
L 18.109375 54.6875 
L 18.109375 46.390625 
Q 20.953125 51.265625 25.265625 53.625 
Q 29.59375 56 35.59375 56 
Q 45.5625 56 51.78125 48.09375 
Q 58.015625 40.1875 58.015625 27.296875 
Q 58.015625 14.40625 51.78125 6.484375 
Q 45.5625 -1.421875 35.59375 -1.421875 
Q 29.59375 -1.421875 25.265625 0.953125 
Q 20.953125 3.328125 18.109375 8.203125 
z
M 48.6875 27.296875 
Q 48.6875 37.203125 44.609375 42.84375 
Q 40.53125 48.484375 33.40625 48.484375 
Q 26.265625 48.484375 22.1875 42.84375 
Q 18.109375 37.203125 18.109375 27.296875 
Q 18.109375 17.390625 22.1875 11.75 
Q 26.265625 6.109375 33.40625 6.109375 
Q 40.53125 6.109375 44.609375 11.75 
Q 48.6875 17.390625 48.6875 27.296875 
z
" id="DejaVuSans-112"/>
      </defs>
      <use xlink:href="#DejaVuSans-70"/>
      <use x="50.269531" xlink:href="#DejaVuSans-114"/>
      <use x="91.382812" xlink:href="#DejaVuSans-97"/>
      <use x="152.662109" xlink:href="#DejaVuSans-99"/>
      <use x="207.642578" xlink:href="#DejaVuSans-116"/>
      <use x="246.851562" xlink:href="#DejaVuSans-105"/>
      <use x="274.634766" xlink:href="#DejaVuSans-111"/>
      <use x="335.816406" xlink:href="#DejaVuSans-110"/>
      <use x="399.195312" xlink:href="#DejaVuSans-32"/>
      <use x="430.982422" xlink:href="#DejaVuSans-111"/>
      <use x="492.164062" xlink:href="#DejaVuSans-102"/>
      <use x="527.369141" xlink:href="#DejaVuSans-32"/>
      <use x="559.15625" xlink:href="#DejaVuSans-102"/>
      <use x="594.361328" xlink:href="#DejaVuSans-117"/>
      <use x="657.740234" xlink:href="#DejaVuSans-110"/>
      <use x="721.119141" xlink:href="#DejaVuSans-99"/>
      <use x="776.099609" xlink:href="#DejaVuSans-116"/>
      <use x="815.308594" xlink:href="#DejaVuSans-105"/>
      <use x="843.091797" xlink:href="#DejaVuSans-111"/>
      <use x="904.273438" xlink:href="#DejaVuSans-110"/>
      <use x="967.652344" xlink:href="#DejaVuSans-44"/>
      <use x="999.439453" xlink:href="#DejaVuSans-116"/>
      <use x="1038.648438" xlink:href="#DejaVuSans-97"/>
      <use x="1099.927734" xlink:href="#DejaVuSans-114"/>
      <use x="1139.291016" xlink:href="#DejaVuSans-103"/>
      <use x="1202.767578" xlink:href="#DejaVuSans-101"/>
      <use x="1264.291016" xlink:href="#DejaVuSans-116"/>
      <use x="1303.5" xlink:href="#DejaVuSans-32"/>
      <use x="1335.287109" xlink:href="#DejaVuSans-112"/>
      <use x="1398.763672" xlink:href="#DejaVuSans-97"/>
      <use x="1460.042969" xlink:href="#DejaVuSans-105"/>
      <use x="1487.826172" xlink:href="#DejaVuSans-114"/>
      <use x="1528.939453" xlink:href="#DejaVuSans-115"/>
     </g>
    </g>
   </g>
   <g id="line2d_29">
    <defs>
     <path d="M 0 1.5 
C 0.397805 1.5 0.77937 1.341951 1.06066 1.06066 
C 1.341951 0.77937 1.5 0.397805 1.5 0 
C 1.5 -0.397805 1.341951 -0.77937 1.06066 -1.06066 
C 0.77937 -1.341951 0.397805 -1.5 0 -1.5 
C -0.397805 -1.5 -0.77937 -1.341951 -1.06066 -1.06066 
C -1.341951 -0.77937 -1.5 -0.397805 -1.5 0 
C -1.5 0.397805 -1.341951 0.77937 -1.06066 1.06066 
C -0.77937 1.341951 -0.397805 1.5 0 1.5 
z
" id="m79e8e4c459" style="stroke:#000080;"/>
    </defs>
    <g>
     <use style="fill:#000080;stroke:#000080;" x="260.307215" xlink:href="#m79e8e4c459" y="30.334099"/>
     <use style="fill:#000080;stroke:#000080;" x="260.307215" xlink:href="#m79e8e4c459" y="30.334099"/>
    </g>
   </g>
   <g id="line2d_30">
    <path d="M 151.0643 298.944 
L 151.0643 298.288854 
L 152.692105 298.288854 
L 152.692105 297.633708 
L 154.89331 297.633708 
L 154.89331 296.978562 
L 155.303359 296.978562 
L 155.303359 296.323416 
L 155.444309 296.323416 
L 155.495282 295.013123 
L 155.577798 295.013123 
L 155.577798 294.357977 
L 156.98245 294.357977 
L 156.98245 293.702831 
L 157.426604 293.702831 
L 157.426604 293.047685 
L 158.058592 293.047685 
L 158.058592 292.392539 
L 158.173558 292.392539 
L 158.173558 291.737393 
L 158.51398 291.737393 
L 158.51398 291.082247 
L 161.555647 291.082247 
L 161.555647 290.427101 
L 162.564181 290.427101 
L 162.564181 289.771955 
L 163.01228 289.771955 
L 163.01228 289.116809 
L 166.908703 289.116809 
L 166.908703 288.461662 
L 170.788258 288.461662 
L 170.788258 287.806516 
L 172.267028 287.806516 
L 172.267028 287.15137 
L 173.935579 287.15137 
L 173.935579 286.496224 
L 175.781387 286.496224 
L 175.781387 285.841078 
L 177.027991 285.841078 
L 177.027991 285.185932 
L 177.950805 285.185932 
L 177.973612 283.87564 
L 178.704933 283.87564 
L 178.704933 283.220494 
L 179.192336 283.220494 
L 179.192336 282.565348 
L 179.39874 282.565348 
L 179.39874 281.910201 
L 180.260834 281.910201 
L 180.260834 281.255055 
L 181.483999 281.255055 
L 181.483999 280.599909 
L 182.585296 280.599909 
L 182.585296 279.944763 
L 183.360503 279.944763 
L 183.360503 279.289617 
L 183.904198 279.289617 
L 183.904198 278.634471 
L 184.100245 278.634471 
L 184.209713 273.393302 
L 184.267247 273.393302 
L 184.373246 270.772718 
L 184.485848 270.772718 
L 184.511174 268.807279 
L 185.286642 268.807279 
L 185.286642 268.152133 
L 186.478374 268.152133 
L 186.478374 267.496987 
L 187.071064 267.496987 
L 187.071064 266.841841 
L 187.896193 266.841841 
L 187.896193 266.186695 
L 189.032024 266.186695 
L 189.103944 264.876403 
L 189.475036 264.876403 
L 189.475036 264.221257 
L 189.655419 264.221257 
L 189.655419 263.566111 
L 189.951678 263.566111 
L 189.951678 262.910965 
L 190.667642 262.910965 
L 190.667642 262.255818 
L 191.968738 262.255818 
L 191.968738 261.600672 
L 193.074686 261.600672 
L 193.074686 260.945526 
L 194.28613 260.945526 
L 194.315003 259.635234 
L 195.580264 259.635234 
L 195.61887 257.669796 
L 196.446044 257.669796 
L 196.446044 257.01465 
L 196.651206 257.01465 
L 196.651206 256.359504 
L 197.236916 256.359504 
L 197.29028 255.049211 
L 197.532983 255.049211 
L 197.532983 254.394065 
L 197.664704 254.394065 
L 197.664704 253.738919 
L 198.897473 253.738919 
L 199.000161 251.773481 
L 199.766463 251.773481 
L 199.766463 251.118335 
L 200.836418 251.118335 
L 200.836418 250.463189 
L 200.962143 250.463189 
L 200.962143 249.808043 
L 201.184291 249.808043 
L 201.288903 247.842604 
L 201.668324 247.842604 
L 201.668324 247.187458 
L 201.889052 247.187458 
L 201.889052 246.532312 
L 202.295154 246.532312 
L 202.295154 245.877166 
L 202.611953 245.877166 
L 202.621341 244.566874 
L 203.056966 244.566874 
L 203.056966 243.911728 
L 203.178455 243.911728 
L 203.178455 243.256582 
L 203.585619 243.256582 
L 203.585619 242.601435 
L 203.74254 242.601435 
L 203.74254 241.946289 
L 204.320712 241.946289 
L 204.320712 241.291143 
L 204.477513 241.291143 
L 204.539917 239.325705 
L 204.809164 239.325705 
L 204.888573 238.015413 
L 205.361769 238.015413 
L 205.447959 236.705121 
L 205.78781 236.705121 
L 205.807544 235.394828 
L 206.203517 235.394828 
L 206.203517 234.739682 
L 206.44998 234.739682 
L 206.532673 233.42939 
L 207.07438 233.42939 
L 207.177183 231.463952 
L 207.622198 231.463952 
L 207.696976 229.498513 
L 207.744742 229.498513 
L 207.744742 228.843367 
L 207.868327 228.843367 
L 207.973945 227.533075 
L 208.155815 227.533075 
L 208.155815 226.877929 
L 208.418917 226.877929 
L 208.418917 226.222783 
L 208.93811 226.222783 
L 208.99178 224.912491 
L 209.162949 224.912491 
L 209.222654 223.602199 
L 209.302234 223.602199 
L 209.302234 222.947052 
L 209.576079 222.947052 
L 209.589816 221.63676 
L 209.937774 221.63676 
L 209.937774 220.981614 
L 210.446961 220.981614 
L 210.526852 219.671322 
L 210.699509 219.671322 
L 210.714803 218.36103 
L 210.975292 218.36103 
L 210.975292 217.705884 
L 211.312087 217.705884 
L 211.415065 215.740445 
L 211.423952 215.740445 
L 211.423952 215.085299 
L 211.630926 215.085299 
L 211.652544 213.119861 
L 211.863117 213.119861 
L 211.863117 212.464715 
L 212.257279 212.464715 
L 212.257279 211.809569 
L 212.468601 211.809569 
L 212.565111 209.84413 
L 212.956276 209.84413 
L 212.960521 208.533838 
L 213.093361 208.533838 
L 213.139517 207.223546 
L 213.349471 207.223546 
L 213.4558 205.913254 
L 213.593917 205.913254 
L 213.599488 204.602962 
L 214.080507 204.602962 
L 214.135372 202.637523 
L 214.236591 202.637523 
L 214.257837 201.327231 
L 214.369554 201.327231 
L 214.369554 200.672085 
L 214.591186 200.672085 
L 214.614043 199.361793 
L 214.741296 199.361793 
L 214.817988 196.741208 
L 215.199895 196.741208 
L 215.199895 196.086062 
L 215.833528 196.086062 
L 215.833528 195.430916 
L 216.241883 195.430916 
L 216.325686 194.120624 
L 216.430649 194.120624 
L 216.430649 193.465478 
L 217.137363 193.465478 
L 217.189711 192.155186 
L 217.465791 192.155186 
L 217.465791 191.50004 
L 217.714961 191.50004 
L 217.723398 190.189747 
L 218.28056 190.189747 
L 218.28056 188.879455 
L 218.56928 188.879455 
L 218.56928 188.224309 
L 218.713818 188.224309 
L 218.756405 186.258871 
L 218.859857 186.258871 
L 218.859857 185.603725 
L 219.450866 185.603725 
L 219.550129 183.638286 
L 219.606678 183.638286 
L 219.606678 182.98314 
L 219.836547 182.98314 
L 219.836547 182.327994 
L 219.951894 182.327994 
L 220.043799 180.362556 
L 220.224458 180.362556 
L 220.224458 179.70741 
L 220.5432 179.70741 
L 220.5432 179.052264 
L 221.059921 179.052264 
L 221.059921 178.397118 
L 221.22534 178.397118 
L 221.22534 177.741972 
L 221.392695 177.741972 
L 221.392695 177.086825 
L 221.541888 177.086825 
L 221.645591 174.466241 
L 221.689888 174.466241 
L 221.689888 173.811095 
L 221.927616 173.811095 
L 221.927616 173.155949 
L 222.175846 173.155949 
L 222.175846 172.500803 
L 222.354121 172.500803 
L 222.392881 170.535364 
L 222.529774 170.535364 
L 222.610027 168.569926 
L 222.780785 168.569926 
L 222.780785 167.91478 
L 222.979714 167.91478 
L 223.047022 166.604488 
L 223.227518 166.604488 
L 223.331127 163.983903 
L 223.431279 163.983903 
L 223.431279 163.328757 
L 223.80763 163.328757 
L 223.879578 161.363319 
L 224.112267 161.363319 
L 224.112267 160.708173 
L 224.252835 160.708173 
L 224.252835 160.053027 
L 224.423103 160.053027 
L 224.423103 159.397881 
L 224.560107 159.397881 
L 224.562592 158.087589 
L 224.815878 158.087589 
L 224.905441 156.777296 
L 225.146446 156.777296 
L 225.146446 156.12215 
L 225.940122 156.12215 
L 225.940122 155.467004 
L 226.11268 155.467004 
L 226.11268 154.811858 
L 226.258156 154.811858 
L 226.321675 153.501566 
L 226.38065 153.501566 
L 226.38065 152.84642 
L 226.912335 152.84642 
L 226.912335 152.191274 
L 227.086965 152.191274 
L 227.086965 151.536128 
L 227.505367 151.536128 
L 227.505367 150.880981 
L 227.63784 150.880981 
L 227.709345 148.915543 
L 227.751804 148.915543 
L 227.768558 147.605251 
L 227.867737 147.605251 
L 227.940405 145.639813 
L 228.05311 145.639813 
L 228.137164 144.32952 
L 228.178153 144.32952 
L 228.266215 141.708936 
L 228.310569 141.708936 
L 228.310569 141.05379 
L 228.446113 141.05379 
L 228.446113 140.398644 
L 228.570112 140.398644 
L 228.635359 139.088352 
L 228.968623 139.088352 
L 228.968623 138.433206 
L 229.186011 138.433206 
L 229.219459 137.122913 
L 229.328969 137.122913 
L 229.330537 135.812621 
L 229.504766 135.812621 
L 229.524251 134.502329 
L 229.829322 134.502329 
L 229.829322 133.847183 
L 229.97899 133.847183 
L 229.97899 133.192037 
L 230.096871 133.192037 
L 230.096871 132.536891 
L 230.327046 132.536891 
L 230.327046 131.881745 
L 230.479819 131.881745 
L 230.479819 131.226598 
L 230.609679 131.226598 
L 230.609679 130.571452 
L 230.836781 130.571452 
L 230.836781 129.916306 
L 231.014841 129.916306 
L 231.014841 129.26116 
L 231.155003 129.26116 
L 231.24044 126.640576 
L 231.280074 126.640576 
L 231.366214 125.330284 
L 231.452135 125.330284 
L 231.559564 124.019991 
L 231.57956 124.019991 
L 231.646155 122.054553 
L 232.19322 122.054553 
L 232.215278 120.744261 
L 232.514128 120.744261 
L 232.605179 118.778823 
L 232.649307 118.778823 
L 232.649307 118.123676 
L 232.766072 118.123676 
L 232.864031 116.158238 
L 232.984983 116.158238 
L 232.98674 114.847946 
L 233.214657 114.847946 
L 233.2418 113.537654 
L 233.628363 113.537654 
L 233.628363 112.882508 
L 233.909953 112.882508 
L 233.988122 109.606777 
L 234.101407 109.606777 
L 234.158457 108.296485 
L 234.31405 108.296485 
L 234.332199 106.986193 
L 234.487458 106.986193 
L 234.487458 106.331047 
L 234.629643 106.331047 
L 234.684994 104.365608 
L 234.897551 104.365608 
L 234.897551 103.710462 
L 235.118208 103.710462 
L 235.121451 102.40017 
L 235.265308 102.40017 
L 235.265308 101.745024 
L 235.397994 101.745024 
L 235.424839 100.434732 
L 235.772832 100.434732 
L 235.805853 99.12444 
L 235.89891 99.12444 
L 235.965266 97.814147 
L 236.27864 97.814147 
L 236.27864 97.159001 
L 236.421652 97.159001 
L 236.486786 95.848709 
L 236.888686 95.848709 
L 236.888686 95.193563 
L 237.077477 95.193563 
L 237.122964 93.883271 
L 237.229481 93.883271 
L 237.336312 90.60754 
L 237.556091 90.60754 
L 237.556091 89.952394 
L 238.072276 89.952394 
L 238.072276 89.297248 
L 238.236847 89.297248 
L 238.321101 86.676664 
L 238.403635 86.676664 
L 238.434088 85.366371 
L 238.773041 85.366371 
L 238.86802 82.745787 
L 239.274555 82.745787 
L 239.274555 82.090641 
L 239.594584 82.090641 
L 239.699435 79.470057 
L 239.788272 79.470057 
L 239.866101 77.504618 
L 239.916036 77.504618 
L 239.964751 74.884034 
L 240.457424 74.884034 
L 240.457424 74.228888 
L 240.591787 74.228888 
L 240.604138 72.918596 
L 240.716243 72.918596 
L 240.758202 71.608303 
L 240.994469 71.608303 
L 240.994469 70.953157 
L 241.201355 70.953157 
L 241.201355 70.298011 
L 241.315683 70.298011 
L 241.315683 69.642865 
L 241.542711 69.642865 
L 241.542711 68.987719 
L 241.7255 68.987719 
L 241.7255 68.332573 
L 241.920088 68.332573 
L 241.970515 67.022281 
L 242.775148 67.022281 
L 242.775148 66.367135 
L 242.938491 66.367135 
L 242.938491 65.711988 
L 243.193994 65.711988 
L 243.196951 64.401696 
L 243.37033 64.401696 
L 243.380676 62.436258 
L 243.555593 62.436258 
L 243.614954 61.125966 
L 243.730872 61.125966 
L 243.792559 59.815674 
L 243.872347 59.815674 
L 243.891726 58.505381 
L 243.989856 58.505381 
L 244.00505 57.195089 
L 244.216771 57.195089 
L 244.318718 55.229651 
L 244.35525 55.229651 
L 244.364055 53.264213 
L 244.537044 53.264213 
L 244.537044 52.609066 
L 244.691371 52.609066 
L 244.691371 51.95392 
L 246.143435 51.95392 
L 246.143435 51.298774 
L 246.511339 51.298774 
L 246.511339 50.643628 
L 246.624459 50.643628 
L 246.711011 49.333336 
L 247.810549 49.333336 
L 247.810549 48.67819 
L 248.058061 48.67819 
L 248.157582 47.367898 
L 248.251179 47.367898 
L 248.251179 46.712752 
L 248.482934 46.712752 
L 248.482934 46.057605 
L 248.629803 46.057605 
L 248.658386 44.747313 
L 248.958756 44.747313 
L 248.958756 44.092167 
L 249.09725 44.092167 
L 249.114418 42.781875 
L 249.341435 42.781875 
L 249.341435 42.126729 
L 250.076888 42.126729 
L 250.076888 41.471583 
L 251.439333 41.471583 
L 251.439333 40.816437 
L 251.701929 40.816437 
L 251.708078 39.506144 
L 252.599285 39.506144 
L 252.599285 38.850998 
L 253.403996 38.850998 
L 253.458822 37.540706 
L 254.071366 37.540706 
L 254.071366 36.88556 
L 255.008284 36.88556 
L 255.008284 36.230414 
L 255.181772 36.230414 
L 255.181772 35.575268 
L 255.428554 35.575268 
L 255.491109 34.264976 
L 255.936 34.264976 
L 255.936 33.60983 
L 256.413051 33.60983 
L 256.413051 32.954683 
L 257.150625 32.954683 
L 257.150625 32.299537 
L 259.412861 32.299537 
L 259.412861 31.644391 
L 260.15669 31.644391 
L 260.15669 30.989245 
L 260.307215 30.989245 
L 260.307215 30.334099 
L 338.688 30.334099 
L 338.688 30.334099 
" style="fill:none;stroke:#000080;stroke-linecap:square;stroke-width:1.5;"/>
   </g>
   <g id="line2d_31">
    <defs>
     <path d="M 0 6 
C 1.591219 6 3.117479 5.367802 4.242641 4.242641 
C 5.367802 3.117479 6 1.591219 6 0 
C 6 -1.591219 5.367802 -3.117479 4.242641 -4.242641 
C 3.117479 -5.367802 1.591219 -6 0 -6 
C -1.591219 -6 -3.117479 -5.367802 -4.242641 -4.242641 
C -5.367802 -3.117479 -6 -1.591219 -6 0 
C -6 1.591219 -5.367802 3.117479 -4.242641 4.242641 
C -3.117479 5.367802 -1.591219 6 0 6 
z
" id="m83d97a22e9" style="stroke:#000080;stroke-width:1.5;"/>
    </defs>
    <g>
     <use style="fill-opacity:0;stroke:#000080;stroke-width:1.5;" x="193.074686" xlink:href="#m83d97a22e9" y="261.600672"/>
     <use style="fill-opacity:0;stroke:#000080;stroke-width:1.5;" x="223.331127" xlink:href="#m83d97a22e9" y="163.983903"/>
     <use style="fill-opacity:0;stroke:#000080;stroke-width:1.5;" x="256.413051" xlink:href="#m83d97a22e9" y="32.954683"/>
     <use style="fill-opacity:0;stroke:#000080;stroke-width:1.5;" x="260.307215" xlink:href="#m83d97a22e9" y="30.334099"/>
     <use style="fill-opacity:0;stroke:#000080;stroke-width:1.5;" x="338.688" xlink:href="#m83d97a22e9" y="30.334099"/>
    </g>
   </g>
   <g id="line2d_32">
    <path style="fill:none;stroke:#000080;stroke-linecap:square;stroke-width:1.5;"/>
    <g/>
   </g>
   <g id="line2d_33">
    <path clip-path="url(#p414b63e900)" d="M 184.058862 278.634471 
" style="fill:none;stroke:#000080;stroke-linecap:square;stroke-width:1.5;"/>
    <defs>
     <path d="M -12 12 
L 12 -12 
M -12 -12 
L 12 12 
" id="m31ac5ce820" style="stroke:#000080;"/>
    </defs>
    <g clip-path="url(#p414b63e900)">
     <use style="fill:#000080;stroke:#000080;" x="184.058862" xlink:href="#m31ac5ce820" y="278.634471"/>
    </g>
   </g>
   <g id="line2d_34">
    <defs>
     <path d="M 0 1.5 
C 0.397805 1.5 0.77937 1.341951 1.06066 1.06066 
C 1.341951 0.77937 1.5 0.397805 1.5 0 
C 1.5 -0.397805 1.341951 -0.77937 1.06066 -1.06066 
C 0.77937 -1.341951 0.397805 -1.5 0 -1.5 
C -0.397805 -1.5 -0.77937 -1.341951 -1.06066 -1.06066 
C -1.341951 -0.77937 -1.5 -0.397805 -1.5 0 
C -1.5 0.397805 -1.341951 0.77937 -1.06066 1.06066 
C -0.77937 1.341951 -0.397805 1.5 0 1.5 
z
" id="me086c4e839" style="stroke:#ff00ff;"/>
    </defs>
    <g>
     <use style="fill:#ff00ff;stroke:#ff00ff;" x="245.671799" xlink:href="#me086c4e839" y="30.334099"/>
     <use style="fill:#ff00ff;stroke:#ff00ff;" x="245.671799" xlink:href="#me086c4e839" y="30.334099"/>
    </g>
   </g>
   <g id="line2d_35">
    <path d="M 150.429467 298.944 
L 150.429467 298.288854 
L 151.1298 298.288854 
L 151.1298 297.633708 
L 151.300575 297.633708 
L 151.300575 296.978562 
L 151.477707 296.978562 
L 151.477707 296.323416 
L 151.63719 296.323416 
L 151.63719 295.66827 
L 152.421022 295.66827 
L 152.421022 295.013123 
L 153.207444 295.013123 
L 153.207444 294.357977 
L 155.577798 294.357977 
L 155.577798 293.702831 
L 155.710272 293.702831 
L 155.710272 293.047685 
L 156.027868 293.047685 
L 156.027868 292.392539 
L 157.011638 292.392539 
L 157.011638 291.737393 
L 157.289376 291.737393 
L 157.289376 291.082247 
L 158.847883 291.082247 
L 158.847883 290.427101 
L 159.324282 290.427101 
L 159.324282 289.771955 
L 159.471793 289.771955 
L 159.471793 289.116809 
L 160.797798 289.116809 
L 160.854038 287.806516 
L 161.999419 287.806516 
L 161.999419 287.15137 
L 162.178151 287.15137 
L 162.178151 286.496224 
L 164.15638 286.496224 
L 164.15638 285.841078 
L 165.02862 285.841078 
L 165.02862 283.87564 
L 165.262757 283.87564 
L 165.262757 282.565348 
L 165.414719 282.565348 
L 165.414719 281.910201 
L 165.788929 281.910201 
L 165.788929 281.255055 
L 166.333896 281.255055 
L 166.333896 279.944763 
L 166.500553 279.944763 
L 166.500553 279.289617 
L 167.659453 279.289617 
L 167.659453 278.634471 
L 168.455028 278.634471 
L 168.455028 277.979325 
L 168.78476 277.979325 
L 168.78476 277.324179 
L 169.122941 277.324179 
L 169.122941 276.669033 
L 170.727268 276.669033 
L 170.727268 276.013887 
L 171.095254 276.013887 
L 171.095254 275.35874 
L 172.118046 275.35874 
L 172.118046 274.703594 
L 172.794007 274.703594 
L 172.794007 274.048448 
L 172.935007 274.048448 
L 173.014404 272.738156 
L 173.424271 272.738156 
L 173.424271 272.08301 
L 173.645883 272.08301 
L 173.645883 271.427864 
L 173.900183 271.427864 
L 173.900183 270.772718 
L 174.113678 270.772718 
L 174.113678 270.117572 
L 174.268308 270.117572 
L 174.283479 268.152133 
L 174.485938 268.152133 
L 174.485938 267.496987 
L 174.700886 267.496987 
L 174.700886 266.841841 
L 174.934099 266.841841 
L 174.998678 265.531549 
L 175.060946 265.531549 
L 175.060946 264.876403 
L 175.260772 264.876403 
L 175.260772 264.221257 
L 175.631641 264.221257 
L 175.631641 263.566111 
L 175.833 263.566111 
L 175.833 262.910965 
L 176.000677 262.910965 
L 176.000677 262.255818 
L 176.442643 262.255818 
L 176.442643 261.600672 
L 176.772554 261.600672 
L 176.772554 260.945526 
L 177.123974 260.945526 
L 177.191949 257.01465 
L 177.288859 257.01465 
L 177.288859 256.359504 
L 178.225994 256.359504 
L 178.226858 253.738919 
L 178.442377 253.738919 
L 178.442377 252.428627 
L 180.061331 252.428627 
L 180.061331 251.773481 
L 180.499084 251.773481 
L 180.499084 251.118335 
L 180.659133 251.118335 
L 180.659133 250.463189 
L 181.298082 250.463189 
L 181.298082 249.808043 
L 181.894854 249.808043 
L 181.894854 249.152896 
L 182.013465 249.152896 
L 182.013465 248.49775 
L 182.692632 248.49775 
L 182.692632 247.842604 
L 183.355353 247.842604 
L 183.355353 247.187458 
L 185.435854 247.187458 
L 185.435854 246.532312 
L 187.336467 246.532312 
L 187.336467 245.877166 
L 187.623113 245.877166 
L 187.623113 245.22202 
L 188.730462 245.22202 
L 188.730462 244.566874 
L 189.474129 244.566874 
L 189.474129 243.911728 
L 190.453394 243.911728 
L 190.453394 243.256582 
L 190.703588 243.256582 
L 190.703588 242.601435 
L 191.066484 242.601435 
L 191.066484 241.946289 
L 191.318294 241.946289 
L 191.318294 241.291143 
L 191.782296 241.291143 
L 191.798967 239.325705 
L 192.032664 239.325705 
L 192.032664 238.670559 
L 192.428601 238.670559 
L 192.494298 229.498513 
L 192.603749 229.498513 
L 192.603749 228.843367 
L 193.74743 228.843367 
L 193.74743 228.188221 
L 194.10493 228.188221 
L 194.10493 227.533075 
L 194.240661 227.533075 
L 194.246869 226.222783 
L 194.529701 226.222783 
L 194.529701 225.567637 
L 194.661168 225.567637 
L 194.661168 224.912491 
L 195.699632 224.912491 
L 195.699632 224.257345 
L 195.895213 224.257345 
L 195.895213 223.602199 
L 196.082418 223.602199 
L 196.082418 222.947052 
L 196.294636 222.947052 
L 196.294636 222.291906 
L 196.47277 222.291906 
L 196.47277 221.63676 
L 196.84329 221.63676 
L 196.84329 220.981614 
L 197.099277 220.981614 
L 197.099277 220.326468 
L 197.402849 220.326468 
L 197.402849 219.671322 
L 197.643434 219.671322 
L 197.643434 219.016176 
L 197.991804 219.016176 
L 198.041801 215.740445 
L 198.579277 215.740445 
L 198.647455 214.430153 
L 198.766527 214.430153 
L 198.853581 213.119861 
L 198.911728 213.119861 
L 198.911728 212.464715 
L 199.053635 212.464715 
L 199.053635 211.809569 
L 199.167376 211.809569 
L 199.167376 211.154423 
L 199.393682 211.154423 
L 199.490435 208.533838 
L 199.516451 208.533838 
L 199.626715 207.223546 
L 199.630767 207.223546 
L 199.680325 205.913254 
L 199.781782 205.913254 
L 199.806114 203.947816 
L 199.902606 203.947816 
L 199.944934 202.637523 
L 200.102877 202.637523 
L 200.157256 200.672085 
L 200.228112 200.672085 
L 200.228112 200.016939 
L 200.390797 200.016939 
L 200.475916 198.706647 
L 200.955104 198.706647 
L 200.955104 198.051501 
L 201.121872 198.051501 
L 201.121872 197.396355 
L 201.32708 197.396355 
L 201.351874 196.086062 
L 201.881042 196.086062 
L 201.881042 195.430916 
L 203.204466 195.430916 
L 203.204466 194.77577 
L 203.528407 194.77577 
L 203.528407 194.120624 
L 203.64043 194.120624 
L 203.64043 193.465478 
L 203.842066 193.465478 
L 203.842066 192.810332 
L 204.168736 192.810332 
L 204.168736 192.155186 
L 204.484032 192.155186 
L 204.541064 190.844894 
L 204.971536 190.844894 
L 205.08247 189.534601 
L 205.231496 189.534601 
L 205.340976 188.224309 
L 205.425089 188.224309 
L 205.495599 186.258871 
L 205.556813 186.258871 
L 205.556813 185.603725 
L 205.679676 185.603725 
L 205.772505 183.638286 
L 205.814473 183.638286 
L 205.889266 180.362556 
L 206.249486 180.362556 
L 206.29758 179.052264 
L 206.553114 179.052264 
L 206.603096 177.086825 
L 207.159104 177.086825 
L 207.159104 176.431679 
L 207.273014 176.431679 
L 207.273014 175.776533 
L 207.45131 175.776533 
L 207.45131 175.121387 
L 207.730744 175.121387 
L 207.810446 173.811095 
L 207.858851 173.811095 
L 207.878744 172.500803 
L 207.990885 172.500803 
L 208.059886 169.880218 
L 208.242412 169.880218 
L 208.336422 167.91478 
L 208.370664 167.91478 
L 208.370664 167.259634 
L 208.534641 167.259634 
L 208.579867 165.949342 
L 208.875931 165.949342 
L 208.8944 164.63905 
L 209.103628 164.63905 
L 209.103628 163.983903 
L 209.298453 163.983903 
L 209.320257 162.673611 
L 209.549145 162.673611 
L 209.549145 162.018465 
L 209.736955 162.018465 
L 209.772521 160.708173 
L 210.022119 160.708173 
L 210.072281 159.397881 
L 210.929652 159.397881 
L 210.929652 158.742735 
L 211.108615 158.742735 
L 211.108615 158.087589 
L 211.228821 158.087589 
L 211.228821 157.432442 
L 211.360615 157.432442 
L 211.360615 156.777296 
L 211.479617 156.777296 
L 211.49001 155.467004 
L 211.620998 155.467004 
L 211.620998 154.811858 
L 211.7347 154.811858 
L 211.795813 152.84642 
L 212.022599 152.84642 
L 212.022599 152.191274 
L 212.164723 152.191274 
L 212.173113 150.880981 
L 212.377895 150.880981 
L 212.44773 149.570689 
L 212.505309 149.570689 
L 212.505309 148.915543 
L 212.746042 148.915543 
L 212.746042 148.260397 
L 212.940939 148.260397 
L 212.990678 146.294959 
L 213.410014 146.294959 
L 213.506494 143.674374 
L 213.522027 143.674374 
L 213.522027 143.019228 
L 213.757214 143.019228 
L 213.829601 141.05379 
L 214.006602 141.05379 
L 214.006602 140.398644 
L 214.574858 140.398644 
L 214.574858 139.743498 
L 214.69738 139.743498 
L 214.77979 137.122913 
L 214.88759 137.122913 
L 214.924394 135.812621 
L 215.072406 135.812621 
L 215.072406 135.157475 
L 215.297405 135.157475 
L 215.393655 133.192037 
L 215.511392 133.192037 
L 215.526358 131.881745 
L 215.67835 131.881745 
L 215.703453 130.571452 
L 215.798495 130.571452 
L 215.863001 129.26116 
L 215.954301 129.26116 
L 215.992194 127.950868 
L 216.194444 127.950868 
L 216.194444 127.295722 
L 216.400572 127.295722 
L 216.400572 126.640576 
L 216.883224 126.640576 
L 216.883224 125.98543 
L 217.067259 125.98543 
L 217.158878 124.675137 
L 217.3405 124.675137 
L 217.355168 123.364845 
L 217.489996 123.364845 
L 217.489996 122.709699 
L 217.724474 122.709699 
L 217.724474 122.054553 
L 217.912227 122.054553 
L 218.005351 119.433969 
L 218.143236 119.433969 
L 218.178936 118.123676 
L 218.330371 118.123676 
L 218.411291 116.158238 
L 218.448341 116.158238 
L 218.448341 115.503092 
L 218.598659 115.503092 
L 218.67308 114.1928 
L 219.299141 114.1928 
L 219.366066 112.227362 
L 219.969888 112.227362 
L 219.969888 111.572215 
L 220.359197 111.572215 
L 220.367757 110.261923 
L 220.723997 110.261923 
L 220.723997 109.606777 
L 221.102107 109.606777 
L 221.102107 108.951631 
L 221.316047 108.951631 
L 221.344355 106.331047 
L 221.490202 106.331047 
L 221.490202 105.675901 
L 221.609297 105.675901 
L 221.609297 105.020754 
L 221.752954 105.020754 
L 221.752954 104.365608 
L 222.130469 104.365608 
L 222.130469 103.710462 
L 222.354258 103.710462 
L 222.456196 101.745024 
L 222.487972 101.745024 
L 222.511647 100.434732 
L 222.87005 100.434732 
L 222.87005 99.779586 
L 223.028366 99.779586 
L 223.028366 99.12444 
L 223.355699 99.12444 
L 223.39515 97.814147 
L 223.530344 97.814147 
L 223.530344 97.159001 
L 223.652303 97.159001 
L 223.730871 95.193563 
L 223.880272 95.193563 
L 223.952047 93.883271 
L 224.018463 93.883271 
L 224.018463 93.228125 
L 224.164004 93.228125 
L 224.266774 91.917832 
L 224.334953 91.917832 
L 224.401398 90.60754 
L 224.507404 90.60754 
L 224.507404 89.952394 
L 224.69141 89.952394 
L 224.751357 88.642102 
L 225.112589 88.642102 
L 225.112589 87.986956 
L 225.365652 87.986956 
L 225.365652 87.33181 
L 225.635 87.33181 
L 225.684066 86.021518 
L 226.029345 86.021518 
L 226.109518 83.400933 
L 226.690285 83.400933 
L 226.797105 82.090641 
L 226.884925 82.090641 
L 226.977743 80.125203 
L 227.168749 80.125203 
L 227.196707 78.81491 
L 227.321138 78.81491 
L 227.321138 78.159764 
L 227.433431 78.159764 
L 227.514428 76.849472 
L 227.72988 76.849472 
L 227.72988 76.194326 
L 227.926316 76.194326 
L 228.019336 72.918596 
L 228.18426 72.918596 
L 228.18426 72.263449 
L 228.330165 72.263449 
L 228.366755 70.953157 
L 228.44587 70.953157 
L 228.534284 69.642865 
L 228.848098 69.642865 
L 228.909339 68.332573 
L 228.966787 68.332573 
L 228.966787 67.677427 
L 229.216535 67.677427 
L 229.216535 67.022281 
L 229.78292 67.022281 
L 229.78292 66.367135 
L 230.542181 66.367135 
L 230.542181 65.711988 
L 230.739218 65.711988 
L 230.739218 65.056842 
L 230.983536 65.056842 
L 231.036726 63.74655 
L 231.158824 63.74655 
L 231.231468 61.125966 
L 231.534709 61.125966 
L 231.584828 59.160527 
L 231.76632 59.160527 
L 231.871677 57.850235 
L 231.948642 57.850235 
L 231.982067 56.539943 
L 232.242421 56.539943 
L 232.242421 55.884797 
L 232.556954 55.884797 
L 232.586249 54.574505 
L 232.672052 54.574505 
L 232.672052 53.919359 
L 233.165351 53.919359 
L 233.165351 53.264213 
L 233.349074 53.264213 
L 233.349074 52.609066 
L 233.866489 52.609066 
L 233.866489 51.95392 
L 234.074446 51.95392 
L 234.117151 50.643628 
L 234.189443 50.643628 
L 234.231275 48.67819 
L 234.306252 48.67819 
L 234.306252 48.023044 
L 234.488076 48.023044 
L 234.488076 47.367898 
L 234.817977 47.367898 
L 234.817977 46.712752 
L 235.200017 46.712752 
L 235.245904 44.092167 
L 235.49153 44.092167 
L 235.49153 43.437021 
L 235.673425 43.437021 
L 235.673425 42.781875 
L 235.905617 42.781875 
L 235.905617 42.126729 
L 236.93574 42.126729 
L 236.93574 41.471583 
L 237.087087 41.471583 
L 237.087087 40.816437 
L 237.767023 40.816437 
L 237.781743 39.506144 
L 238.216495 39.506144 
L 238.264553 38.195852 
L 238.719477 38.195852 
L 238.794121 36.88556 
L 239.181377 36.88556 
L 239.181377 36.230414 
L 240.495562 36.230414 
L 240.568464 34.920122 
L 240.671776 34.920122 
L 240.671776 34.264976 
L 241.110345 34.264976 
L 241.110345 33.60983 
L 241.479178 33.60983 
L 241.479178 32.954683 
L 241.921186 32.954683 
L 241.921186 32.299537 
L 242.709727 32.299537 
L 242.709727 31.644391 
L 244.76537 31.644391 
L 244.76537 30.989245 
L 245.671799 30.989245 
L 245.671799 30.334099 
L 338.688 30.334099 
L 338.688 30.334099 
" style="fill:none;stroke:#ff00ff;stroke-linecap:square;stroke-width:1.5;"/>
   </g>
   <g id="line2d_36">
    <defs>
     <path d="M -0 8.485281 
L 5.091169 0 
L 0 -8.485281 
L -5.091169 -0 
z
" id="m9f55fb306d" style="stroke:#ff00ff;stroke-linejoin:miter;stroke-width:1.5;"/>
    </defs>
    <g>
     <use style="fill-opacity:0;stroke:#ff00ff;stroke-linejoin:miter;stroke-width:1.5;" x="197.402849" xlink:href="#m9f55fb306d" y="220.326468"/>
     <use style="fill-opacity:0;stroke:#ff00ff;stroke-linejoin:miter;stroke-width:1.5;" x="221.344355" xlink:href="#m9f55fb306d" y="106.331047"/>
     <use style="fill-opacity:0;stroke:#ff00ff;stroke-linejoin:miter;stroke-width:1.5;" x="245.671799" xlink:href="#m9f55fb306d" y="30.989245"/>
     <use style="fill-opacity:0;stroke:#ff00ff;stroke-linejoin:miter;stroke-width:1.5;" x="245.671799" xlink:href="#m9f55fb306d" y="30.334099"/>
     <use style="fill-opacity:0;stroke:#ff00ff;stroke-linejoin:miter;stroke-width:1.5;" x="338.688" xlink:href="#m9f55fb306d" y="30.334099"/>
    </g>
   </g>
   <g id="line2d_37">
    <path style="fill:none;stroke:#ff00ff;stroke-linecap:square;stroke-width:1.5;"/>
    <g/>
   </g>
   <g id="line2d_38">
    <path clip-path="url(#p414b63e900)" d="M 194.025496 228.188221 
" style="fill:none;stroke:#ff00ff;stroke-linecap:square;stroke-width:1.5;"/>
    <defs>
     <path d="M -12 12 
L 12 -12 
M -12 -12 
L 12 12 
" id="mc54d8b8c89" style="stroke:#ff00ff;"/>
    </defs>
    <g clip-path="url(#p414b63e900)">
     <use style="fill:#ff00ff;stroke:#ff00ff;" x="194.025496" xlink:href="#mc54d8b8c89" y="228.188221"/>
    </g>
   </g>
   <g id="line2d_39">
    <path d="M 338.688 30.334099 
L 369.60768 293.571802 
" style="fill:none;stroke:#000080;stroke-linecap:square;stroke-width:1.5;"/>
    <g>
     <use style="fill-opacity:0;stroke:#000080;stroke-width:1.5;" x="338.688" xlink:href="#m83d97a22e9" y="30.334099"/>
     <use style="fill-opacity:0;stroke:#000080;stroke-width:1.5;" x="369.60768" xlink:href="#m83d97a22e9" y="293.571802"/>
    </g>
   </g>
   <g id="line2d_40">
    <path d="M 338.688 30.334099 
L 369.60768 35.706297 
" style="fill:none;stroke:#ff00ff;stroke-linecap:square;stroke-width:1.5;"/>
    <g>
     <use style="fill-opacity:0;stroke:#ff00ff;stroke-linejoin:miter;stroke-width:1.5;" x="338.688" xlink:href="#m9f55fb306d" y="30.334099"/>
     <use style="fill-opacity:0;stroke:#ff00ff;stroke-linejoin:miter;stroke-width:1.5;" x="369.60768" xlink:href="#m9f55fb306d" y="35.706297"/>
    </g>
   </g>
   <g id="line2d_41">
    <path d="M 338.688 298.944 
L 338.688 30.334099 
" style="fill:none;stroke:#000000;stroke-linecap:square;stroke-width:1.5;"/>
   </g>
   <g id="patch_3">
    <path d="M 57.6 298.944 
L 57.6 27.648 
" style="fill:none;stroke:#000000;stroke-linecap:square;stroke-linejoin:miter;stroke-width:0.8;"/>
   </g>
   <g id="patch_4">
    <path d="M 338.688 298.944 
L 338.688 27.648 
" style="fill:none;stroke:#000000;stroke-linecap:square;stroke-linejoin:miter;stroke-width:0.8;"/>
   </g>
   <g id="patch_5">
    <path d="M 57.6 298.944 
L 338.688 298.944 
" style="fill:none;stroke:#000000;stroke-linecap:square;stroke-linejoin:miter;stroke-width:0.8;"/>
   </g>
   <g id="patch_6">
    <path d="M 57.6 27.648 
L 338.688 27.648 
" style="fill:none;stroke:#000000;stroke-linecap:square;stroke-linejoin:miter;stroke-width:0.8;"/>
   </g>
   <g id="text_13">
    <!-- sqp fmincon on bbob-constrained -->
    <g transform="translate(375.22944 298.262739)scale(0.17 -0.17)">
     <defs>
      <path d="M 14.796875 27.296875 
Q 14.796875 17.390625 18.875 11.75 
Q 22.953125 6.109375 30.078125 6.109375 
Q 37.203125 6.109375 41.296875 11.75 
Q 45.40625 17.390625 45.40625 27.296875 
Q 45.40625 37.203125 41.296875 42.84375 
Q 37.203125 48.484375 30.078125 48.484375 
Q 22.953125 48.484375 18.875 42.84375 
Q 14.796875 37.203125 14.796875 27.296875 
z
M 45.40625 8.203125 
Q 42.578125 3.328125 38.25 0.953125 
Q 33.9375 -1.421875 27.875 -1.421875 
Q 17.96875 -1.421875 11.734375 6.484375 
Q 5.515625 14.40625 5.515625 27.296875 
Q 5.515625 40.1875 11.734375 48.09375 
Q 17.96875 56 27.875 56 
Q 33.9375 56 38.25 53.625 
Q 42.578125 51.265625 45.40625 46.390625 
L 45.40625 54.6875 
L 54.390625 54.6875 
L 54.390625 -20.796875 
L 45.40625 -20.796875 
z
" id="DejaVuSans-113"/>
      <path d="M 48.6875 27.296875 
Q 48.6875 37.203125 44.609375 42.84375 
Q 40.53125 48.484375 33.40625 48.484375 
Q 26.265625 48.484375 22.1875 42.84375 
Q 18.109375 37.203125 18.109375 27.296875 
Q 18.109375 17.390625 22.1875 11.75 
Q 26.265625 6.109375 33.40625 6.109375 
Q 40.53125 6.109375 44.609375 11.75 
Q 48.6875 17.390625 48.6875 27.296875 
z
M 18.109375 46.390625 
Q 20.953125 51.265625 25.265625 53.625 
Q 29.59375 56 35.59375 56 
Q 45.5625 56 51.78125 48.09375 
Q 58.015625 40.1875 58.015625 27.296875 
Q 58.015625 14.40625 51.78125 6.484375 
Q 45.5625 -1.421875 35.59375 -1.421875 
Q 29.59375 -1.421875 25.265625 0.953125 
Q 20.953125 3.328125 18.109375 8.203125 
L 18.109375 0 
L 9.078125 0 
L 9.078125 75.984375 
L 18.109375 75.984375 
z
" id="DejaVuSans-98"/>
     </defs>
     <use xlink:href="#DejaVuSans-115"/>
     <use x="52.099609" xlink:href="#DejaVuSans-113"/>
     <use x="115.576172" xlink:href="#DejaVuSans-112"/>
     <use x="179.052734" xlink:href="#DejaVuSans-32"/>
     <use x="210.839844" xlink:href="#DejaVuSans-102"/>
     <use x="246.044922" xlink:href="#DejaVuSans-109"/>
     <use x="343.457031" xlink:href="#DejaVuSans-105"/>
     <use x="371.240234" xlink:href="#DejaVuSans-110"/>
     <use x="434.619141" xlink:href="#DejaVuSans-99"/>
     <use x="489.599609" xlink:href="#DejaVuSans-111"/>
     <use x="550.78125" xlink:href="#DejaVuSans-110"/>
     <use x="614.160156" xlink:href="#DejaVuSans-32"/>
     <use x="645.947266" xlink:href="#DejaVuSans-111"/>
     <use x="707.128906" xlink:href="#DejaVuSans-110"/>
     <use x="770.507812" xlink:href="#DejaVuSans-32"/>
     <use x="802.294922" xlink:href="#DejaVuSans-98"/>
     <use x="865.771484" xlink:href="#DejaVuSans-98"/>
     <use x="929.248047" xlink:href="#DejaVuSans-111"/>
     <use x="990.429688" xlink:href="#DejaVuSans-98"/>
     <use x="1053.90625" xlink:href="#DejaVuSans-45"/>
     <use x="1089.990234" xlink:href="#DejaVuSans-99"/>
     <use x="1144.970703" xlink:href="#DejaVuSans-111"/>
     <use x="1206.152344" xlink:href="#DejaVuSans-110"/>
     <use x="1269.53125" xlink:href="#DejaVuSans-115"/>
     <use x="1321.630859" xlink:href="#DejaVuSans-116"/>
     <use x="1360.839844" xlink:href="#DejaVuSans-114"/>
     <use x="1401.953125" xlink:href="#DejaVuSans-97"/>
     <use x="1463.232422" xlink:href="#DejaVuSans-105"/>
     <use x="1491.015625" xlink:href="#DejaVuSans-110"/>
     <use x="1554.394531" xlink:href="#DejaVuSans-101"/>
     <use x="1615.917969" xlink:href="#DejaVuSans-100"/>
    </g>
   </g>
   <g id="text_14">
    <!-- sqp fmincon on bbob-constrained-ac -->
    <g transform="translate(375.22944 40.397235)scale(0.17 -0.17)">
     <use xlink:href="#DejaVuSans-115"/>
     <use x="52.099609" xlink:href="#DejaVuSans-113"/>
     <use x="115.576172" xlink:href="#DejaVuSans-112"/>
     <use x="179.052734" xlink:href="#DejaVuSans-32"/>
     <use x="210.839844" xlink:href="#DejaVuSans-102"/>
     <use x="246.044922" xlink:href="#DejaVuSans-109"/>
     <use x="343.457031" xlink:href="#DejaVuSans-105"/>
     <use x="371.240234" xlink:href="#DejaVuSans-110"/>
     <use x="434.619141" xlink:href="#DejaVuSans-99"/>
     <use x="489.599609" xlink:href="#DejaVuSans-111"/>
     <use x="550.78125" xlink:href="#DejaVuSans-110"/>
     <use x="614.160156" xlink:href="#DejaVuSans-32"/>
     <use x="645.947266" xlink:href="#DejaVuSans-111"/>
     <use x="707.128906" xlink:href="#DejaVuSans-110"/>
     <use x="770.507812" xlink:href="#DejaVuSans-32"/>
     <use x="802.294922" xlink:href="#DejaVuSans-98"/>
     <use x="865.771484" xlink:href="#DejaVuSans-98"/>
     <use x="929.248047" xlink:href="#DejaVuSans-111"/>
     <use x="990.429688" xlink:href="#DejaVuSans-98"/>
     <use x="1053.90625" xlink:href="#DejaVuSans-45"/>
     <use x="1089.990234" xlink:href="#DejaVuSans-99"/>
     <use x="1144.970703" xlink:href="#DejaVuSans-111"/>
     <use x="1206.152344" xlink:href="#DejaVuSans-110"/>
     <use x="1269.53125" xlink:href="#DejaVuSans-115"/>
     <use x="1321.630859" xlink:href="#DejaVuSans-116"/>
     <use x="1360.839844" xlink:href="#DejaVuSans-114"/>
     <use x="1401.953125" xlink:href="#DejaVuSans-97"/>
     <use x="1463.232422" xlink:href="#DejaVuSans-105"/>
     <use x="1491.015625" xlink:href="#DejaVuSans-110"/>
     <use x="1554.394531" xlink:href="#DejaVuSans-101"/>
     <use x="1615.917969" xlink:href="#DejaVuSans-100"/>
     <use x="1679.394531" xlink:href="#DejaVuSans-45"/>
     <use x="1715.478516" xlink:href="#DejaVuSans-97"/>
     <use x="1776.757812" xlink:href="#DejaVuSans-99"/>
    </g>
   </g>
   <g id="text_15">
    <!-- bbob-constrained f24, 20-D -->
    <g transform="translate(60.41088 38.111366)scale(0.102 -0.102)">
     <defs>
      <path d="M 19.671875 64.796875 
L 19.671875 8.109375 
L 31.59375 8.109375 
Q 46.6875 8.109375 53.6875 14.9375 
Q 60.6875 21.78125 60.6875 36.53125 
Q 60.6875 51.171875 53.6875 57.984375 
Q 46.6875 64.796875 31.59375 64.796875 
z
M 9.8125 72.90625 
L 30.078125 72.90625 
Q 51.265625 72.90625 61.171875 64.09375 
Q 71.09375 55.28125 71.09375 36.53125 
Q 71.09375 17.671875 61.125 8.828125 
Q 51.171875 0 30.078125 0 
L 9.8125 0 
z
" id="DejaVuSans-68"/>
     </defs>
     <use xlink:href="#DejaVuSans-98"/>
     <use x="63.476562" xlink:href="#DejaVuSans-98"/>
     <use x="126.953125" xlink:href="#DejaVuSans-111"/>
     <use x="188.134766" xlink:href="#DejaVuSans-98"/>
     <use x="251.611328" xlink:href="#DejaVuSans-45"/>
     <use x="287.695312" xlink:href="#DejaVuSans-99"/>
     <use x="342.675781" xlink:href="#DejaVuSans-111"/>
     <use x="403.857422" xlink:href="#DejaVuSans-110"/>
     <use x="467.236328" xlink:href="#DejaVuSans-115"/>
     <use x="519.335938" xlink:href="#DejaVuSans-116"/>
     <use x="558.544922" xlink:href="#DejaVuSans-114"/>
     <use x="599.658203" xlink:href="#DejaVuSans-97"/>
     <use x="660.9375" xlink:href="#DejaVuSans-105"/>
     <use x="688.720703" xlink:href="#DejaVuSans-110"/>
     <use x="752.099609" xlink:href="#DejaVuSans-101"/>
     <use x="813.623047" xlink:href="#DejaVuSans-100"/>
     <use x="877.099609" xlink:href="#DejaVuSans-32"/>
     <use x="908.886719" xlink:href="#DejaVuSans-102"/>
     <use x="944.091797" xlink:href="#DejaVuSans-50"/>
     <use x="1007.714844" xlink:href="#DejaVuSans-52"/>
     <use x="1071.337891" xlink:href="#DejaVuSans-44"/>
     <use x="1103.125" xlink:href="#DejaVuSans-32"/>
     <use x="1134.912109" xlink:href="#DejaVuSans-50"/>
     <use x="1198.535156" xlink:href="#DejaVuSans-48"/>
     <use x="1262.158203" xlink:href="#DejaVuSans-45"/>
     <use x="1298.242188" xlink:href="#DejaVuSans-68"/>
    </g>
    <!-- 41 targets: 100..1e-06 -->
    <g transform="translate(60.41088 49.533135)scale(0.102 -0.102)">
     <defs>
      <path d="M 11.71875 12.40625 
L 22.015625 12.40625 
L 22.015625 0 
L 11.71875 0 
z
M 11.71875 51.703125 
L 22.015625 51.703125 
L 22.015625 39.3125 
L 11.71875 39.3125 
z
" id="DejaVuSans-58"/>
     </defs>
     <use xlink:href="#DejaVuSans-52"/>
     <use x="63.623047" xlink:href="#DejaVuSans-49"/>
     <use x="127.246094" xlink:href="#DejaVuSans-32"/>
     <use x="159.033203" xlink:href="#DejaVuSans-116"/>
     <use x="198.242188" xlink:href="#DejaVuSans-97"/>
     <use x="259.521484" xlink:href="#DejaVuSans-114"/>
     <use x="298.884766" xlink:href="#DejaVuSans-103"/>
     <use x="362.361328" xlink:href="#DejaVuSans-101"/>
     <use x="423.884766" xlink:href="#DejaVuSans-116"/>
     <use x="463.09375" xlink:href="#DejaVuSans-115"/>
     <use x="515.193359" xlink:href="#DejaVuSans-58"/>
     <use x="548.884766" xlink:href="#DejaVuSans-32"/>
     <use x="580.671875" xlink:href="#DejaVuSans-49"/>
     <use x="644.294922" xlink:href="#DejaVuSans-48"/>
     <use x="707.917969" xlink:href="#DejaVuSans-48"/>
     <use x="771.541016" xlink:href="#DejaVuSans-46"/>
     <use x="803.328125" xlink:href="#DejaVuSans-46"/>
     <use x="835.115234" xlink:href="#DejaVuSans-49"/>
     <use x="898.738281" xlink:href="#DejaVuSans-101"/>
     <use x="960.261719" xlink:href="#DejaVuSans-45"/>
     <use x="996.345703" xlink:href="#DejaVuSans-48"/>
     <use x="1059.96875" xlink:href="#DejaVuSans-54"/>
    </g>
    <!-- 15 instances -->
    <g transform="translate(60.41088 60.954904)scale(0.102 -0.102)">
     <defs>
      <path d="M 10.796875 72.90625 
L 49.515625 72.90625 
L 49.515625 64.59375 
L 19.828125 64.59375 
L 19.828125 46.734375 
Q 21.96875 47.46875 24.109375 47.828125 
Q 26.265625 48.1875 28.421875 48.1875 
Q 40.625 48.1875 47.75 41.5 
Q 54.890625 34.8125 54.890625 23.390625 
Q 54.890625 11.625 47.5625 5.09375 
Q 40.234375 -1.421875 26.90625 -1.421875 
Q 22.3125 -1.421875 17.546875 -0.640625 
Q 12.796875 0.140625 7.71875 1.703125 
L 7.71875 11.625 
Q 12.109375 9.234375 16.796875 8.0625 
Q 21.484375 6.890625 26.703125 6.890625 
Q 35.15625 6.890625 40.078125 11.328125 
Q 45.015625 15.765625 45.015625 23.390625 
Q 45.015625 31 40.078125 35.4375 
Q 35.15625 39.890625 26.703125 39.890625 
Q 22.75 39.890625 18.8125 39.015625 
Q 14.890625 38.140625 10.796875 36.28125 
z
" id="DejaVuSans-53"/>
     </defs>
     <use xlink:href="#DejaVuSans-49"/>
     <use x="63.623047" xlink:href="#DejaVuSans-53"/>
     <use x="127.246094" xlink:href="#DejaVuSans-32"/>
     <use x="159.033203" xlink:href="#DejaVuSans-105"/>
     <use x="186.816406" xlink:href="#DejaVuSans-110"/>
     <use x="250.195312" xlink:href="#DejaVuSans-115"/>
     <use x="302.294922" xlink:href="#DejaVuSans-116"/>
     <use x="341.503906" xlink:href="#DejaVuSans-97"/>
     <use x="402.783203" xlink:href="#DejaVuSans-110"/>
     <use x="466.162109" xlink:href="#DejaVuSans-99"/>
     <use x="521.142578" xlink:href="#DejaVuSans-101"/>
     <use x="582.666016" xlink:href="#DejaVuSans-115"/>
    </g>
   </g>
   <g id="text_16">
    <!-- v5z33 -->
    <g style="fill:#808080;" transform="translate(183.016656 294.151352)scale(0.1 -0.1)">
     <defs>
      <path d="M 5.515625 54.6875 
L 48.1875 54.6875 
L 48.1875 46.484375 
L 14.40625 7.171875 
L 48.1875 7.171875 
L 48.1875 0 
L 4.296875 0 
L 4.296875 8.203125 
L 38.09375 47.515625 
L 5.515625 47.515625 
z
" id="DejaVuSans-122"/>
      <path d="M 40.578125 39.3125 
Q 47.65625 37.796875 51.625 33 
Q 55.609375 28.21875 55.609375 21.1875 
Q 55.609375 10.40625 48.1875 4.484375 
Q 40.765625 -1.421875 27.09375 -1.421875 
Q 22.515625 -1.421875 17.65625 -0.515625 
Q 12.796875 0.390625 7.625 2.203125 
L 7.625 11.71875 
Q 11.71875 9.328125 16.59375 8.109375 
Q 21.484375 6.890625 26.8125 6.890625 
Q 36.078125 6.890625 40.9375 10.546875 
Q 45.796875 14.203125 45.796875 21.1875 
Q 45.796875 27.640625 41.28125 31.265625 
Q 36.765625 34.90625 28.71875 34.90625 
L 20.21875 34.90625 
L 20.21875 43.015625 
L 29.109375 43.015625 
Q 36.375 43.015625 40.234375 45.921875 
Q 44.09375 48.828125 44.09375 54.296875 
Q 44.09375 59.90625 40.109375 62.90625 
Q 36.140625 65.921875 28.71875 65.921875 
Q 24.65625 65.921875 20.015625 65.03125 
Q 15.375 64.15625 9.8125 62.3125 
L 9.8125 71.09375 
Q 15.4375 72.65625 20.34375 73.4375 
Q 25.25 74.21875 29.59375 74.21875 
Q 40.828125 74.21875 47.359375 69.109375 
Q 53.90625 64.015625 53.90625 55.328125 
Q 53.90625 49.265625 50.4375 45.09375 
Q 46.96875 40.921875 40.578125 39.3125 
z
" id="DejaVuSans-51"/>
     </defs>
     <use xlink:href="#DejaVuSans-118"/>
     <use x="59.179688" xlink:href="#DejaVuSans-53"/>
     <use x="122.802734" xlink:href="#DejaVuSans-122"/>
     <use x="175.292969" xlink:href="#DejaVuSans-51"/>
     <use x="238.916016" xlink:href="#DejaVuSans-51"/>
    </g>
   </g>
   <g id="text_17">
    <!-- 24 Rotated Ellipsoid, 3n+6 constraints -->
    <g transform="translate(5.973687 21.648)scale(0.2 -0.2)">
     <defs>
      <path d="M 44.390625 34.1875 
Q 47.5625 33.109375 50.5625 29.59375 
Q 53.5625 26.078125 56.59375 19.921875 
L 66.609375 0 
L 56 0 
L 46.6875 18.703125 
Q 43.0625 26.03125 39.671875 28.421875 
Q 36.28125 30.8125 30.421875 30.8125 
L 19.671875 30.8125 
L 19.671875 0 
L 9.8125 0 
L 9.8125 72.90625 
L 32.078125 72.90625 
Q 44.578125 72.90625 50.734375 67.671875 
Q 56.890625 62.453125 56.890625 51.90625 
Q 56.890625 45.015625 53.6875 40.46875 
Q 50.484375 35.9375 44.390625 34.1875 
z
M 19.671875 64.796875 
L 19.671875 38.921875 
L 32.078125 38.921875 
Q 39.203125 38.921875 42.84375 42.21875 
Q 46.484375 45.515625 46.484375 51.90625 
Q 46.484375 58.296875 42.84375 61.546875 
Q 39.203125 64.796875 32.078125 64.796875 
z
" id="DejaVuSans-82"/>
      <path d="M 9.8125 72.90625 
L 55.90625 72.90625 
L 55.90625 64.59375 
L 19.671875 64.59375 
L 19.671875 43.015625 
L 54.390625 43.015625 
L 54.390625 34.71875 
L 19.671875 34.71875 
L 19.671875 8.296875 
L 56.78125 8.296875 
L 56.78125 0 
L 9.8125 0 
z
" id="DejaVuSans-69"/>
     </defs>
     <use xlink:href="#DejaVuSans-50"/>
     <use x="63.623047" xlink:href="#DejaVuSans-52"/>
     <use x="127.246094" xlink:href="#DejaVuSans-32"/>
     <use x="159.033203" xlink:href="#DejaVuSans-82"/>
     <use x="224.015625" xlink:href="#DejaVuSans-111"/>
     <use x="285.197266" xlink:href="#DejaVuSans-116"/>
     <use x="324.40625" xlink:href="#DejaVuSans-97"/>
     <use x="385.685547" xlink:href="#DejaVuSans-116"/>
     <use x="424.894531" xlink:href="#DejaVuSans-101"/>
     <use x="486.417969" xlink:href="#DejaVuSans-100"/>
     <use x="549.894531" xlink:href="#DejaVuSans-32"/>
     <use x="581.681641" xlink:href="#DejaVuSans-69"/>
     <use x="644.865234" xlink:href="#DejaVuSans-108"/>
     <use x="672.648438" xlink:href="#DejaVuSans-108"/>
     <use x="700.431641" xlink:href="#DejaVuSans-105"/>
     <use x="728.214844" xlink:href="#DejaVuSans-112"/>
     <use x="791.691406" xlink:href="#DejaVuSans-115"/>
     <use x="843.791016" xlink:href="#DejaVuSans-111"/>
     <use x="904.972656" xlink:href="#DejaVuSans-105"/>
     <use x="932.755859" xlink:href="#DejaVuSans-100"/>
     <use x="996.232422" xlink:href="#DejaVuSans-44"/>
     <use x="1028.019531" xlink:href="#DejaVuSans-32"/>
     <use x="1059.806641" xlink:href="#DejaVuSans-51"/>
     <use x="1123.429688" xlink:href="#DejaVuSans-110"/>
     <use x="1186.808594" xlink:href="#DejaVuSans-43"/>
     <use x="1270.597656" xlink:href="#DejaVuSans-54"/>
     <use x="1334.220703" xlink:href="#DejaVuSans-32"/>
     <use x="1366.007812" xlink:href="#DejaVuSans-99"/>
     <use x="1420.988281" xlink:href="#DejaVuSans-111"/>
     <use x="1482.169922" xlink:href="#DejaVuSans-110"/>
     <use x="1545.548828" xlink:href="#DejaVuSans-115"/>
     <use x="1597.648438" xlink:href="#DejaVuSans-116"/>
     <use x="1636.857422" xlink:href="#DejaVuSans-114"/>
     <use x="1677.970703" xlink:href="#DejaVuSans-97"/>
     <use x="1739.25" xlink:href="#DejaVuSans-105"/>
     <use x="1767.033203" xlink:href="#DejaVuSans-110"/>
     <use x="1830.412109" xlink:href="#DejaVuSans-116"/>
     <use x="1869.621094" xlink:href="#DejaVuSans-115"/>
    </g>
   </g>
  </g>
 </g>
 <defs>
  <clipPath id="p414b63e900">
   <rect height="271.296" width="281.088" x="57.6" y="27.648"/>
  </clipPath>
 </defs>
</svg>
