<?xml version="1.0" encoding="utf-8" standalone="no"?>
<!DOCTYPE svg PUBLIC "-//W3C//DTD SVG 1.1//EN"
  "http://www.w3.org/Graphics/SVG/1.1/DTD/svg11.dtd">
<!-- Created with matplotlib (https://matplotlib.org/) -->
<svg height="345.6pt" version="1.1" viewBox="0 0 460.8 345.6" width="460.8pt" xmlns="http://www.w3.org/2000/svg" xmlns:xlink="http://www.w3.org/1999/xlink">
 <metadata>
  <rdf:RDF xmlns:cc="http://creativecommons.org/ns#" xmlns:dc="http://purl.org/dc/elements/1.1/" xmlns:rdf="http://www.w3.org/1999/02/22-rdf-syntax-ns#">
   <cc:Work>
    <dc:type rdf:resource="http://purl.org/dc/dcmitype/StillImage"/>
    <dc:date>2021-04-07T09:50:32.429317</dc:date>
    <dc:format>image/svg+xml</dc:format>
    <dc:creator>
     <cc:Agent>
      <dc:title>Matplotlib v3.3.3, https://matplotlib.org/</dc:title>
     </cc:Agent>
    </dc:creator>
   </cc:Work>
  </rdf:RDF>
 </metadata>
 <defs>
  <style type="text/css">*{stroke-linecap:butt;stroke-linejoin:round;}</style>
 </defs>
 <g id="figure_1">
  <g id="patch_1">
   <path d="M 0 345.6 
L 460.8 345.6 
L 460.8 0 
L 0 0 
z
" style="fill:#ffffff;"/>
  </g>
  <g id="axes_1">
   <g id="patch_2">
    <path d="M 57.6 298.944 
L 338.688 298.944 
L 338.688 3.456 
L 57.6 3.456 
z
" style="fill:#ffffff;"/>
   </g>
   <g id="matplotlib.axis_1">
    <g id="xtick_1">
     <g id="line2d_1">
      <path clip-path="url(#pb218081110)" d="M 57.6 298.944 
L 57.6 3.456 
" style="fill:none;stroke:#b0b0b0;stroke-linecap:square;stroke-width:0.8;"/>
     </g>
     <g id="line2d_2">
      <defs>
       <path d="M 0 0 
L 0 3.5 
" id="me62c0b3038" style="stroke:#000000;stroke-width:0.8;"/>
      </defs>
      <g>
       <use style="stroke:#000000;stroke-width:0.8;" x="57.6" xlink:href="#me62c0b3038" y="298.944"/>
      </g>
     </g>
     <g id="text_1">
      <!-- 0 -->
      <g transform="translate(51.2375 321.140875)scale(0.2 -0.2)">
       <defs>
        <path d="M 31.78125 66.40625 
Q 24.171875 66.40625 20.328125 58.90625 
Q 16.5 51.421875 16.5 36.375 
Q 16.5 21.390625 20.328125 13.890625 
Q 24.171875 6.390625 31.78125 6.390625 
Q 39.453125 6.390625 43.28125 13.890625 
Q 47.125 21.390625 47.125 36.375 
Q 47.125 51.421875 43.28125 58.90625 
Q 39.453125 66.40625 31.78125 66.40625 
z
M 31.78125 74.21875 
Q 44.046875 74.21875 50.515625 64.515625 
Q 56.984375 54.828125 56.984375 36.375 
Q 56.984375 17.96875 50.515625 8.265625 
Q 44.046875 -1.421875 31.78125 -1.421875 
Q 19.53125 -1.421875 13.0625 8.265625 
Q 6.59375 17.96875 6.59375 36.375 
Q 6.59375 54.828125 13.0625 64.515625 
Q 19.53125 74.21875 31.78125 74.21875 
z
" id="DejaVuSans-48"/>
       </defs>
       <use xlink:href="#DejaVuSans-48"/>
      </g>
     </g>
    </g>
    <g id="xtick_2">
     <g id="line2d_3">
      <path clip-path="url(#pb218081110)" d="M 137.910857 298.944 
L 137.910857 3.456 
" style="fill:none;stroke:#b0b0b0;stroke-linecap:square;stroke-width:0.8;"/>
     </g>
     <g id="line2d_4">
      <g>
       <use style="stroke:#000000;stroke-width:0.8;" x="137.910857" xlink:href="#me62c0b3038" y="298.944"/>
      </g>
     </g>
     <g id="text_2">
      <!-- 2 -->
      <g transform="translate(131.548357 321.140875)scale(0.2 -0.2)">
       <defs>
        <path d="M 19.1875 8.296875 
L 53.609375 8.296875 
L 53.609375 0 
L 7.328125 0 
L 7.328125 8.296875 
Q 12.9375 14.109375 22.625 23.890625 
Q 32.328125 33.6875 34.8125 36.53125 
Q 39.546875 41.84375 41.421875 45.53125 
Q 43.3125 49.21875 43.3125 52.78125 
Q 43.3125 58.59375 39.234375 62.25 
Q 35.15625 65.921875 28.609375 65.921875 
Q 23.96875 65.921875 18.8125 64.3125 
Q 13.671875 62.703125 7.8125 59.421875 
L 7.8125 69.390625 
Q 13.765625 71.78125 18.9375 73 
Q 24.125 74.21875 28.421875 74.21875 
Q 39.75 74.21875 46.484375 68.546875 
Q 53.21875 62.890625 53.21875 53.421875 
Q 53.21875 48.921875 51.53125 44.890625 
Q 49.859375 40.875 45.40625 35.40625 
Q 44.1875 33.984375 37.640625 27.21875 
Q 31.109375 20.453125 19.1875 8.296875 
z
" id="DejaVuSans-50"/>
       </defs>
       <use xlink:href="#DejaVuSans-50"/>
      </g>
     </g>
    </g>
    <g id="xtick_3">
     <g id="line2d_5">
      <path clip-path="url(#pb218081110)" d="M 218.221714 298.944 
L 218.221714 3.456 
" style="fill:none;stroke:#b0b0b0;stroke-linecap:square;stroke-width:0.8;"/>
     </g>
     <g id="line2d_6">
      <g>
       <use style="stroke:#000000;stroke-width:0.8;" x="218.221714" xlink:href="#me62c0b3038" y="298.944"/>
      </g>
     </g>
     <g id="text_3">
      <!-- 4 -->
      <g transform="translate(211.859214 321.140875)scale(0.2 -0.2)">
       <defs>
        <path d="M 37.796875 64.3125 
L 12.890625 25.390625 
L 37.796875 25.390625 
z
M 35.203125 72.90625 
L 47.609375 72.90625 
L 47.609375 25.390625 
L 58.015625 25.390625 
L 58.015625 17.1875 
L 47.609375 17.1875 
L 47.609375 0 
L 37.796875 0 
L 37.796875 17.1875 
L 4.890625 17.1875 
L 4.890625 26.703125 
z
" id="DejaVuSans-52"/>
       </defs>
       <use xlink:href="#DejaVuSans-52"/>
      </g>
     </g>
    </g>
    <g id="xtick_4">
     <g id="line2d_7">
      <path clip-path="url(#pb218081110)" d="M 298.532571 298.944 
L 298.532571 3.456 
" style="fill:none;stroke:#b0b0b0;stroke-linecap:square;stroke-width:0.8;"/>
     </g>
     <g id="line2d_8">
      <g>
       <use style="stroke:#000000;stroke-width:0.8;" x="298.532571" xlink:href="#me62c0b3038" y="298.944"/>
      </g>
     </g>
     <g id="text_4">
      <!-- 6 -->
      <g transform="translate(292.170071 321.140875)scale(0.2 -0.2)">
       <defs>
        <path d="M 33.015625 40.375 
Q 26.375 40.375 22.484375 35.828125 
Q 18.609375 31.296875 18.609375 23.390625 
Q 18.609375 15.53125 22.484375 10.953125 
Q 26.375 6.390625 33.015625 6.390625 
Q 39.65625 6.390625 43.53125 10.953125 
Q 47.40625 15.53125 47.40625 23.390625 
Q 47.40625 31.296875 43.53125 35.828125 
Q 39.65625 40.375 33.015625 40.375 
z
M 52.59375 71.296875 
L 52.59375 62.3125 
Q 48.875 64.0625 45.09375 64.984375 
Q 41.3125 65.921875 37.59375 65.921875 
Q 27.828125 65.921875 22.671875 59.328125 
Q 17.53125 52.734375 16.796875 39.40625 
Q 19.671875 43.65625 24.015625 45.921875 
Q 28.375 48.1875 33.59375 48.1875 
Q 44.578125 48.1875 50.953125 41.515625 
Q 57.328125 34.859375 57.328125 23.390625 
Q 57.328125 12.15625 50.6875 5.359375 
Q 44.046875 -1.421875 33.015625 -1.421875 
Q 20.359375 -1.421875 13.671875 8.265625 
Q 6.984375 17.96875 6.984375 36.375 
Q 6.984375 53.65625 15.1875 63.9375 
Q 23.390625 74.21875 37.203125 74.21875 
Q 40.921875 74.21875 44.703125 73.484375 
Q 48.484375 72.75 52.59375 71.296875 
z
" id="DejaVuSans-54"/>
       </defs>
       <use xlink:href="#DejaVuSans-54"/>
      </g>
     </g>
    </g>
    <g id="xtick_5">
     <g id="line2d_9">
      <path clip-path="url(#pb218081110)" d="M 97.755429 298.944 
L 97.755429 3.456 
" style="fill:none;stroke:#b0b0b0;stroke-linecap:square;stroke-width:0.8;"/>
     </g>
     <g id="line2d_10">
      <defs>
       <path d="M 0 0 
L 0 2 
" id="m2f70e42906" style="stroke:#000000;stroke-width:0.6;"/>
      </defs>
      <g>
       <use style="stroke:#000000;stroke-width:0.6;" x="97.755429" xlink:href="#m2f70e42906" y="298.944"/>
      </g>
     </g>
    </g>
    <g id="xtick_6">
     <g id="line2d_11">
      <path clip-path="url(#pb218081110)" d="M 178.066286 298.944 
L 178.066286 3.456 
" style="fill:none;stroke:#b0b0b0;stroke-linecap:square;stroke-width:0.8;"/>
     </g>
     <g id="line2d_12">
      <g>
       <use style="stroke:#000000;stroke-width:0.6;" x="178.066286" xlink:href="#m2f70e42906" y="298.944"/>
      </g>
     </g>
    </g>
    <g id="xtick_7">
     <g id="line2d_13">
      <path clip-path="url(#pb218081110)" d="M 258.377143 298.944 
L 258.377143 3.456 
" style="fill:none;stroke:#b0b0b0;stroke-linecap:square;stroke-width:0.8;"/>
     </g>
     <g id="line2d_14">
      <g>
       <use style="stroke:#000000;stroke-width:0.6;" x="258.377143" xlink:href="#m2f70e42906" y="298.944"/>
      </g>
     </g>
    </g>
    <g id="xtick_8">
     <g id="line2d_15">
      <path clip-path="url(#pb218081110)" d="M 338.688 298.944 
L 338.688 3.456 
" style="fill:none;stroke:#b0b0b0;stroke-linecap:square;stroke-width:0.8;"/>
     </g>
     <g id="line2d_16">
      <g>
       <use style="stroke:#000000;stroke-width:0.6;" x="338.688" xlink:href="#m2f70e42906" y="298.944"/>
      </g>
     </g>
    </g>
    <g id="text_5">
     <!-- log10(# (f+g)-evals / dimension) -->
     <g transform="translate(58.145016 342.217594)scale(0.17 -0.17)">
      <defs>
       <path d="M 9.421875 75.984375 
L 18.40625 75.984375 
L 18.40625 0 
L 9.421875 0 
z
" id="DejaVuSans-108"/>
       <path d="M 30.609375 48.390625 
Q 23.390625 48.390625 19.1875 42.75 
Q 14.984375 37.109375 14.984375 27.296875 
Q 14.984375 17.484375 19.15625 11.84375 
Q 23.34375 6.203125 30.609375 6.203125 
Q 37.796875 6.203125 41.984375 11.859375 
Q 46.1875 17.53125 46.1875 27.296875 
Q 46.1875 37.015625 41.984375 42.703125 
Q 37.796875 48.390625 30.609375 48.390625 
z
M 30.609375 56 
Q 42.328125 56 49.015625 48.375 
Q 55.71875 40.765625 55.71875 27.296875 
Q 55.71875 13.875 49.015625 6.21875 
Q 42.328125 -1.421875 30.609375 -1.421875 
Q 18.84375 -1.421875 12.171875 6.21875 
Q 5.515625 13.875 5.515625 27.296875 
Q 5.515625 40.765625 12.171875 48.375 
Q 18.84375 56 30.609375 56 
z
" id="DejaVuSans-111"/>
       <path d="M 45.40625 27.984375 
Q 45.40625 37.75 41.375 43.109375 
Q 37.359375 48.484375 30.078125 48.484375 
Q 22.859375 48.484375 18.828125 43.109375 
Q 14.796875 37.75 14.796875 27.984375 
Q 14.796875 18.265625 18.828125 12.890625 
Q 22.859375 7.515625 30.078125 7.515625 
Q 37.359375 7.515625 41.375 12.890625 
Q 45.40625 18.265625 45.40625 27.984375 
z
M 54.390625 6.78125 
Q 54.390625 -7.171875 48.1875 -13.984375 
Q 42 -20.796875 29.203125 -20.796875 
Q 24.46875 -20.796875 20.265625 -20.09375 
Q 16.0625 -19.390625 12.109375 -17.921875 
L 12.109375 -9.1875 
Q 16.0625 -11.328125 19.921875 -12.34375 
Q 23.78125 -13.375 27.78125 -13.375 
Q 36.625 -13.375 41.015625 -8.765625 
Q 45.40625 -4.15625 45.40625 5.171875 
L 45.40625 9.625 
Q 42.625 4.78125 38.28125 2.390625 
Q 33.9375 0 27.875 0 
Q 17.828125 0 11.671875 7.65625 
Q 5.515625 15.328125 5.515625 27.984375 
Q 5.515625 40.671875 11.671875 48.328125 
Q 17.828125 56 27.875 56 
Q 33.9375 56 38.28125 53.609375 
Q 42.625 51.21875 45.40625 46.390625 
L 45.40625 54.6875 
L 54.390625 54.6875 
z
" id="DejaVuSans-103"/>
       <path d="M 12.40625 8.296875 
L 28.515625 8.296875 
L 28.515625 63.921875 
L 10.984375 60.40625 
L 10.984375 69.390625 
L 28.421875 72.90625 
L 38.28125 72.90625 
L 38.28125 8.296875 
L 54.390625 8.296875 
L 54.390625 0 
L 12.40625 0 
z
" id="DejaVuSans-49"/>
       <path d="M 31 75.875 
Q 24.46875 64.65625 21.28125 53.65625 
Q 18.109375 42.671875 18.109375 31.390625 
Q 18.109375 20.125 21.3125 9.0625 
Q 24.515625 -2 31 -13.1875 
L 23.1875 -13.1875 
Q 15.875 -1.703125 12.234375 9.375 
Q 8.59375 20.453125 8.59375 31.390625 
Q 8.59375 42.28125 12.203125 53.3125 
Q 15.828125 64.359375 23.1875 75.875 
z
" id="DejaVuSans-40"/>
       <path d="M 51.125 44 
L 36.921875 44 
L 32.8125 27.6875 
L 47.125 27.6875 
z
M 43.796875 71.78125 
L 38.71875 51.515625 
L 52.984375 51.515625 
L 58.109375 71.78125 
L 65.921875 71.78125 
L 60.890625 51.515625 
L 76.125 51.515625 
L 76.125 44 
L 58.984375 44 
L 54.984375 27.6875 
L 70.515625 27.6875 
L 70.515625 20.21875 
L 53.078125 20.21875 
L 48 0 
L 40.1875 0 
L 45.21875 20.21875 
L 30.90625 20.21875 
L 25.875 0 
L 18.015625 0 
L 23.09375 20.21875 
L 7.71875 20.21875 
L 7.71875 27.6875 
L 24.90625 27.6875 
L 29 44 
L 13.28125 44 
L 13.28125 51.515625 
L 30.90625 51.515625 
L 35.890625 71.78125 
z
" id="DejaVuSans-35"/>
       <path id="DejaVuSans-32"/>
       <path d="M 37.109375 75.984375 
L 37.109375 68.5 
L 28.515625 68.5 
Q 23.6875 68.5 21.796875 66.546875 
Q 19.921875 64.59375 19.921875 59.515625 
L 19.921875 54.6875 
L 34.71875 54.6875 
L 34.71875 47.703125 
L 19.921875 47.703125 
L 19.921875 0 
L 10.890625 0 
L 10.890625 47.703125 
L 2.296875 47.703125 
L 2.296875 54.6875 
L 10.890625 54.6875 
L 10.890625 58.5 
Q 10.890625 67.625 15.140625 71.796875 
Q 19.390625 75.984375 28.609375 75.984375 
z
" id="DejaVuSans-102"/>
       <path d="M 46 62.703125 
L 46 35.5 
L 73.1875 35.5 
L 73.1875 27.203125 
L 46 27.203125 
L 46 0 
L 37.796875 0 
L 37.796875 27.203125 
L 10.59375 27.203125 
L 10.59375 35.5 
L 37.796875 35.5 
L 37.796875 62.703125 
z
" id="DejaVuSans-43"/>
       <path d="M 8.015625 75.875 
L 15.828125 75.875 
Q 23.140625 64.359375 26.78125 53.3125 
Q 30.421875 42.28125 30.421875 31.390625 
Q 30.421875 20.453125 26.78125 9.375 
Q 23.140625 -1.703125 15.828125 -13.1875 
L 8.015625 -13.1875 
Q 14.5 -2 17.703125 9.0625 
Q 20.90625 20.125 20.90625 31.390625 
Q 20.90625 42.671875 17.703125 53.65625 
Q 14.5 64.65625 8.015625 75.875 
z
" id="DejaVuSans-41"/>
       <path d="M 4.890625 31.390625 
L 31.203125 31.390625 
L 31.203125 23.390625 
L 4.890625 23.390625 
z
" id="DejaVuSans-45"/>
       <path d="M 56.203125 29.59375 
L 56.203125 25.203125 
L 14.890625 25.203125 
Q 15.484375 15.921875 20.484375 11.0625 
Q 25.484375 6.203125 34.421875 6.203125 
Q 39.59375 6.203125 44.453125 7.46875 
Q 49.3125 8.734375 54.109375 11.28125 
L 54.109375 2.78125 
Q 49.265625 0.734375 44.1875 -0.34375 
Q 39.109375 -1.421875 33.890625 -1.421875 
Q 20.796875 -1.421875 13.15625 6.1875 
Q 5.515625 13.8125 5.515625 26.8125 
Q 5.515625 40.234375 12.765625 48.109375 
Q 20.015625 56 32.328125 56 
Q 43.359375 56 49.78125 48.890625 
Q 56.203125 41.796875 56.203125 29.59375 
z
M 47.21875 32.234375 
Q 47.125 39.59375 43.09375 43.984375 
Q 39.0625 48.390625 32.421875 48.390625 
Q 24.90625 48.390625 20.390625 44.140625 
Q 15.875 39.890625 15.1875 32.171875 
z
" id="DejaVuSans-101"/>
       <path d="M 2.984375 54.6875 
L 12.5 54.6875 
L 29.59375 8.796875 
L 46.6875 54.6875 
L 56.203125 54.6875 
L 35.6875 0 
L 23.484375 0 
z
" id="DejaVuSans-118"/>
       <path d="M 34.28125 27.484375 
Q 23.390625 27.484375 19.1875 25 
Q 14.984375 22.515625 14.984375 16.5 
Q 14.984375 11.71875 18.140625 8.90625 
Q 21.296875 6.109375 26.703125 6.109375 
Q 34.1875 6.109375 38.703125 11.40625 
Q 43.21875 16.703125 43.21875 25.484375 
L 43.21875 27.484375 
z
M 52.203125 31.203125 
L 52.203125 0 
L 43.21875 0 
L 43.21875 8.296875 
Q 40.140625 3.328125 35.546875 0.953125 
Q 30.953125 -1.421875 24.3125 -1.421875 
Q 15.921875 -1.421875 10.953125 3.296875 
Q 6 8.015625 6 15.921875 
Q 6 25.140625 12.171875 29.828125 
Q 18.359375 34.515625 30.609375 34.515625 
L 43.21875 34.515625 
L 43.21875 35.40625 
Q 43.21875 41.609375 39.140625 45 
Q 35.0625 48.390625 27.6875 48.390625 
Q 23 48.390625 18.546875 47.265625 
Q 14.109375 46.140625 10.015625 43.890625 
L 10.015625 52.203125 
Q 14.9375 54.109375 19.578125 55.046875 
Q 24.21875 56 28.609375 56 
Q 40.484375 56 46.34375 49.84375 
Q 52.203125 43.703125 52.203125 31.203125 
z
" id="DejaVuSans-97"/>
       <path d="M 44.28125 53.078125 
L 44.28125 44.578125 
Q 40.484375 46.53125 36.375 47.5 
Q 32.28125 48.484375 27.875 48.484375 
Q 21.1875 48.484375 17.84375 46.4375 
Q 14.5 44.390625 14.5 40.28125 
Q 14.5 37.15625 16.890625 35.375 
Q 19.28125 33.59375 26.515625 31.984375 
L 29.59375 31.296875 
Q 39.15625 29.25 43.1875 25.515625 
Q 47.21875 21.78125 47.21875 15.09375 
Q 47.21875 7.46875 41.1875 3.015625 
Q 35.15625 -1.421875 24.609375 -1.421875 
Q 20.21875 -1.421875 15.453125 -0.5625 
Q 10.6875 0.296875 5.421875 2 
L 5.421875 11.28125 
Q 10.40625 8.6875 15.234375 7.390625 
Q 20.0625 6.109375 24.8125 6.109375 
Q 31.15625 6.109375 34.5625 8.28125 
Q 37.984375 10.453125 37.984375 14.40625 
Q 37.984375 18.0625 35.515625 20.015625 
Q 33.0625 21.96875 24.703125 23.78125 
L 21.578125 24.515625 
Q 13.234375 26.265625 9.515625 29.90625 
Q 5.8125 33.546875 5.8125 39.890625 
Q 5.8125 47.609375 11.28125 51.796875 
Q 16.75 56 26.8125 56 
Q 31.78125 56 36.171875 55.265625 
Q 40.578125 54.546875 44.28125 53.078125 
z
" id="DejaVuSans-115"/>
       <path d="M 25.390625 72.90625 
L 33.6875 72.90625 
L 8.296875 -9.28125 
L 0 -9.28125 
z
" id="DejaVuSans-47"/>
       <path d="M 45.40625 46.390625 
L 45.40625 75.984375 
L 54.390625 75.984375 
L 54.390625 0 
L 45.40625 0 
L 45.40625 8.203125 
Q 42.578125 3.328125 38.25 0.953125 
Q 33.9375 -1.421875 27.875 -1.421875 
Q 17.96875 -1.421875 11.734375 6.484375 
Q 5.515625 14.40625 5.515625 27.296875 
Q 5.515625 40.1875 11.734375 48.09375 
Q 17.96875 56 27.875 56 
Q 33.9375 56 38.25 53.625 
Q 42.578125 51.265625 45.40625 46.390625 
z
M 14.796875 27.296875 
Q 14.796875 17.390625 18.875 11.75 
Q 22.953125 6.109375 30.078125 6.109375 
Q 37.203125 6.109375 41.296875 11.75 
Q 45.40625 17.390625 45.40625 27.296875 
Q 45.40625 37.203125 41.296875 42.84375 
Q 37.203125 48.484375 30.078125 48.484375 
Q 22.953125 48.484375 18.875 42.84375 
Q 14.796875 37.203125 14.796875 27.296875 
z
" id="DejaVuSans-100"/>
       <path d="M 9.421875 54.6875 
L 18.40625 54.6875 
L 18.40625 0 
L 9.421875 0 
z
M 9.421875 75.984375 
L 18.40625 75.984375 
L 18.40625 64.59375 
L 9.421875 64.59375 
z
" id="DejaVuSans-105"/>
       <path d="M 52 44.1875 
Q 55.375 50.25 60.0625 53.125 
Q 64.75 56 71.09375 56 
Q 79.640625 56 84.28125 50.015625 
Q 88.921875 44.046875 88.921875 33.015625 
L 88.921875 0 
L 79.890625 0 
L 79.890625 32.71875 
Q 79.890625 40.578125 77.09375 44.375 
Q 74.3125 48.1875 68.609375 48.1875 
Q 61.625 48.1875 57.5625 43.546875 
Q 53.515625 38.921875 53.515625 30.90625 
L 53.515625 0 
L 44.484375 0 
L 44.484375 32.71875 
Q 44.484375 40.625 41.703125 44.40625 
Q 38.921875 48.1875 33.109375 48.1875 
Q 26.21875 48.1875 22.15625 43.53125 
Q 18.109375 38.875 18.109375 30.90625 
L 18.109375 0 
L 9.078125 0 
L 9.078125 54.6875 
L 18.109375 54.6875 
L 18.109375 46.1875 
Q 21.1875 51.21875 25.484375 53.609375 
Q 29.78125 56 35.6875 56 
Q 41.65625 56 45.828125 52.96875 
Q 50 49.953125 52 44.1875 
z
" id="DejaVuSans-109"/>
       <path d="M 54.890625 33.015625 
L 54.890625 0 
L 45.90625 0 
L 45.90625 32.71875 
Q 45.90625 40.484375 42.875 44.328125 
Q 39.84375 48.1875 33.796875 48.1875 
Q 26.515625 48.1875 22.3125 43.546875 
Q 18.109375 38.921875 18.109375 30.90625 
L 18.109375 0 
L 9.078125 0 
L 9.078125 54.6875 
L 18.109375 54.6875 
L 18.109375 46.1875 
Q 21.34375 51.125 25.703125 53.5625 
Q 30.078125 56 35.796875 56 
Q 45.21875 56 50.046875 50.171875 
Q 54.890625 44.34375 54.890625 33.015625 
z
" id="DejaVuSans-110"/>
      </defs>
      <use xlink:href="#DejaVuSans-108"/>
      <use x="27.783203" xlink:href="#DejaVuSans-111"/>
      <use x="88.964844" xlink:href="#DejaVuSans-103"/>
      <use x="152.441406" xlink:href="#DejaVuSans-49"/>
      <use x="216.064453" xlink:href="#DejaVuSans-48"/>
      <use x="279.6875" xlink:href="#DejaVuSans-40"/>
      <use x="318.701172" xlink:href="#DejaVuSans-35"/>
      <use x="402.490234" xlink:href="#DejaVuSans-32"/>
      <use x="434.277344" xlink:href="#DejaVuSans-40"/>
      <use x="473.291016" xlink:href="#DejaVuSans-102"/>
      <use x="508.496094" xlink:href="#DejaVuSans-43"/>
      <use x="592.285156" xlink:href="#DejaVuSans-103"/>
      <use x="655.761719" xlink:href="#DejaVuSans-41"/>
      <use x="694.775391" xlink:href="#DejaVuSans-45"/>
      <use x="730.859375" xlink:href="#DejaVuSans-101"/>
      <use x="792.382812" xlink:href="#DejaVuSans-118"/>
      <use x="851.5625" xlink:href="#DejaVuSans-97"/>
      <use x="912.841797" xlink:href="#DejaVuSans-108"/>
      <use x="940.625" xlink:href="#DejaVuSans-115"/>
      <use x="992.724609" xlink:href="#DejaVuSans-32"/>
      <use x="1024.511719" xlink:href="#DejaVuSans-47"/>
      <use x="1058.203125" xlink:href="#DejaVuSans-32"/>
      <use x="1089.990234" xlink:href="#DejaVuSans-100"/>
      <use x="1153.466797" xlink:href="#DejaVuSans-105"/>
      <use x="1181.25" xlink:href="#DejaVuSans-109"/>
      <use x="1278.662109" xlink:href="#DejaVuSans-101"/>
      <use x="1340.185547" xlink:href="#DejaVuSans-110"/>
      <use x="1403.564453" xlink:href="#DejaVuSans-115"/>
      <use x="1455.664062" xlink:href="#DejaVuSans-105"/>
      <use x="1483.447266" xlink:href="#DejaVuSans-111"/>
      <use x="1544.628906" xlink:href="#DejaVuSans-110"/>
      <use x="1608.007812" xlink:href="#DejaVuSans-41"/>
     </g>
    </g>
   </g>
   <g id="matplotlib.axis_2">
    <g id="ytick_1">
     <g id="line2d_17">
      <path clip-path="url(#pb218081110)" d="M 57.6 298.944 
L 338.688 298.944 
" style="fill:none;stroke:#b0b0b0;stroke-linecap:square;stroke-width:0.8;"/>
     </g>
     <g id="line2d_18">
      <defs>
       <path d="M 0 0 
L -3.5 0 
" id="m7b2e286a79" style="stroke:#000000;stroke-width:0.8;"/>
      </defs>
      <g>
       <use style="stroke:#000000;stroke-width:0.8;" x="57.6" xlink:href="#m7b2e286a79" y="298.944"/>
      </g>
     </g>
     <g id="text_6">
      <!-- 0.0 -->
      <g transform="translate(25.155 305.02275)scale(0.16 -0.16)">
       <defs>
        <path d="M 10.6875 12.40625 
L 21 12.40625 
L 21 0 
L 10.6875 0 
z
" id="DejaVuSans-46"/>
       </defs>
       <use xlink:href="#DejaVuSans-48"/>
       <use x="63.623047" xlink:href="#DejaVuSans-46"/>
       <use x="95.410156" xlink:href="#DejaVuSans-48"/>
      </g>
     </g>
    </g>
    <g id="ytick_2">
     <g id="line2d_19">
      <path clip-path="url(#pb218081110)" d="M 57.6 240.431525 
L 338.688 240.431525 
" style="fill:none;stroke:#b0b0b0;stroke-linecap:square;stroke-width:0.8;"/>
     </g>
     <g id="line2d_20">
      <g>
       <use style="stroke:#000000;stroke-width:0.8;" x="57.6" xlink:href="#m7b2e286a79" y="240.431525"/>
      </g>
     </g>
     <g id="text_7">
      <!-- 0.2 -->
      <g transform="translate(25.155 246.510275)scale(0.16 -0.16)">
       <use xlink:href="#DejaVuSans-48"/>
       <use x="63.623047" xlink:href="#DejaVuSans-46"/>
       <use x="95.410156" xlink:href="#DejaVuSans-50"/>
      </g>
     </g>
    </g>
    <g id="ytick_3">
     <g id="line2d_21">
      <path clip-path="url(#pb218081110)" d="M 57.6 181.91905 
L 338.688 181.91905 
" style="fill:none;stroke:#b0b0b0;stroke-linecap:square;stroke-width:0.8;"/>
     </g>
     <g id="line2d_22">
      <g>
       <use style="stroke:#000000;stroke-width:0.8;" x="57.6" xlink:href="#m7b2e286a79" y="181.91905"/>
      </g>
     </g>
     <g id="text_8">
      <!-- 0.4 -->
      <g transform="translate(25.155 187.9978)scale(0.16 -0.16)">
       <use xlink:href="#DejaVuSans-48"/>
       <use x="63.623047" xlink:href="#DejaVuSans-46"/>
       <use x="95.410156" xlink:href="#DejaVuSans-52"/>
      </g>
     </g>
    </g>
    <g id="ytick_4">
     <g id="line2d_23">
      <path clip-path="url(#pb218081110)" d="M 57.6 123.406574 
L 338.688 123.406574 
" style="fill:none;stroke:#b0b0b0;stroke-linecap:square;stroke-width:0.8;"/>
     </g>
     <g id="line2d_24">
      <g>
       <use style="stroke:#000000;stroke-width:0.8;" x="57.6" xlink:href="#m7b2e286a79" y="123.406574"/>
      </g>
     </g>
     <g id="text_9">
      <!-- 0.6 -->
      <g transform="translate(25.155 129.485324)scale(0.16 -0.16)">
       <use xlink:href="#DejaVuSans-48"/>
       <use x="63.623047" xlink:href="#DejaVuSans-46"/>
       <use x="95.410156" xlink:href="#DejaVuSans-54"/>
      </g>
     </g>
    </g>
    <g id="ytick_5">
     <g id="line2d_25">
      <path clip-path="url(#pb218081110)" d="M 57.6 64.894099 
L 338.688 64.894099 
" style="fill:none;stroke:#b0b0b0;stroke-linecap:square;stroke-width:0.8;"/>
     </g>
     <g id="line2d_26">
      <g>
       <use style="stroke:#000000;stroke-width:0.8;" x="57.6" xlink:href="#m7b2e286a79" y="64.894099"/>
      </g>
     </g>
     <g id="text_10">
      <!-- 0.8 -->
      <g transform="translate(25.155 70.972849)scale(0.16 -0.16)">
       <defs>
        <path d="M 31.78125 34.625 
Q 24.75 34.625 20.71875 30.859375 
Q 16.703125 27.09375 16.703125 20.515625 
Q 16.703125 13.921875 20.71875 10.15625 
Q 24.75 6.390625 31.78125 6.390625 
Q 38.8125 6.390625 42.859375 10.171875 
Q 46.921875 13.96875 46.921875 20.515625 
Q 46.921875 27.09375 42.890625 30.859375 
Q 38.875 34.625 31.78125 34.625 
z
M 21.921875 38.8125 
Q 15.578125 40.375 12.03125 44.71875 
Q 8.5 49.078125 8.5 55.328125 
Q 8.5 64.0625 14.71875 69.140625 
Q 20.953125 74.21875 31.78125 74.21875 
Q 42.671875 74.21875 48.875 69.140625 
Q 55.078125 64.0625 55.078125 55.328125 
Q 55.078125 49.078125 51.53125 44.71875 
Q 48 40.375 41.703125 38.8125 
Q 48.828125 37.15625 52.796875 32.3125 
Q 56.78125 27.484375 56.78125 20.515625 
Q 56.78125 9.90625 50.3125 4.234375 
Q 43.84375 -1.421875 31.78125 -1.421875 
Q 19.734375 -1.421875 13.25 4.234375 
Q 6.78125 9.90625 6.78125 20.515625 
Q 6.78125 27.484375 10.78125 32.3125 
Q 14.796875 37.15625 21.921875 38.8125 
z
M 18.3125 54.390625 
Q 18.3125 48.734375 21.84375 45.5625 
Q 25.390625 42.390625 31.78125 42.390625 
Q 38.140625 42.390625 41.71875 45.5625 
Q 45.3125 48.734375 45.3125 54.390625 
Q 45.3125 60.0625 41.71875 63.234375 
Q 38.140625 66.40625 31.78125 66.40625 
Q 25.390625 66.40625 21.84375 63.234375 
Q 18.3125 60.0625 18.3125 54.390625 
z
" id="DejaVuSans-56"/>
       </defs>
       <use xlink:href="#DejaVuSans-48"/>
       <use x="63.623047" xlink:href="#DejaVuSans-46"/>
       <use x="95.410156" xlink:href="#DejaVuSans-56"/>
      </g>
     </g>
    </g>
    <g id="ytick_6">
     <g id="line2d_27">
      <path clip-path="url(#pb218081110)" d="M 57.6 6.381624 
L 338.688 6.381624 
" style="fill:none;stroke:#b0b0b0;stroke-linecap:square;stroke-width:0.8;"/>
     </g>
     <g id="line2d_28">
      <g>
       <use style="stroke:#000000;stroke-width:0.8;" x="57.6" xlink:href="#m7b2e286a79" y="6.381624"/>
      </g>
     </g>
     <g id="text_11">
      <!-- 1.0 -->
      <g transform="translate(25.155 12.460374)scale(0.16 -0.16)">
       <use xlink:href="#DejaVuSans-49"/>
       <use x="63.623047" xlink:href="#DejaVuSans-46"/>
       <use x="95.410156" xlink:href="#DejaVuSans-48"/>
      </g>
     </g>
    </g>
    <g id="text_12">
     <!-- Fraction of function,target pairs -->
     <g transform="translate(17.619531 285.585)rotate(-90)scale(0.17 -0.17)">
      <defs>
       <path d="M 9.8125 72.90625 
L 51.703125 72.90625 
L 51.703125 64.59375 
L 19.671875 64.59375 
L 19.671875 43.109375 
L 48.578125 43.109375 
L 48.578125 34.8125 
L 19.671875 34.8125 
L 19.671875 0 
L 9.8125 0 
z
" id="DejaVuSans-70"/>
       <path d="M 41.109375 46.296875 
Q 39.59375 47.171875 37.8125 47.578125 
Q 36.03125 48 33.890625 48 
Q 26.265625 48 22.1875 43.046875 
Q 18.109375 38.09375 18.109375 28.8125 
L 18.109375 0 
L 9.078125 0 
L 9.078125 54.6875 
L 18.109375 54.6875 
L 18.109375 46.1875 
Q 20.953125 51.171875 25.484375 53.578125 
Q 30.03125 56 36.53125 56 
Q 37.453125 56 38.578125 55.875 
Q 39.703125 55.765625 41.0625 55.515625 
z
" id="DejaVuSans-114"/>
       <path d="M 48.78125 52.59375 
L 48.78125 44.1875 
Q 44.96875 46.296875 41.140625 47.34375 
Q 37.3125 48.390625 33.40625 48.390625 
Q 24.65625 48.390625 19.8125 42.84375 
Q 14.984375 37.3125 14.984375 27.296875 
Q 14.984375 17.28125 19.8125 11.734375 
Q 24.65625 6.203125 33.40625 6.203125 
Q 37.3125 6.203125 41.140625 7.25 
Q 44.96875 8.296875 48.78125 10.40625 
L 48.78125 2.09375 
Q 45.015625 0.34375 40.984375 -0.53125 
Q 36.96875 -1.421875 32.421875 -1.421875 
Q 20.0625 -1.421875 12.78125 6.34375 
Q 5.515625 14.109375 5.515625 27.296875 
Q 5.515625 40.671875 12.859375 48.328125 
Q 20.21875 56 33.015625 56 
Q 37.15625 56 41.109375 55.140625 
Q 45.0625 54.296875 48.78125 52.59375 
z
" id="DejaVuSans-99"/>
       <path d="M 18.3125 70.21875 
L 18.3125 54.6875 
L 36.8125 54.6875 
L 36.8125 47.703125 
L 18.3125 47.703125 
L 18.3125 18.015625 
Q 18.3125 11.328125 20.140625 9.421875 
Q 21.96875 7.515625 27.59375 7.515625 
L 36.8125 7.515625 
L 36.8125 0 
L 27.59375 0 
Q 17.1875 0 13.234375 3.875 
Q 9.28125 7.765625 9.28125 18.015625 
L 9.28125 47.703125 
L 2.6875 47.703125 
L 2.6875 54.6875 
L 9.28125 54.6875 
L 9.28125 70.21875 
z
" id="DejaVuSans-116"/>
       <path d="M 8.5 21.578125 
L 8.5 54.6875 
L 17.484375 54.6875 
L 17.484375 21.921875 
Q 17.484375 14.15625 20.5 10.265625 
Q 23.53125 6.390625 29.59375 6.390625 
Q 36.859375 6.390625 41.078125 11.03125 
Q 45.3125 15.671875 45.3125 23.6875 
L 45.3125 54.6875 
L 54.296875 54.6875 
L 54.296875 0 
L 45.3125 0 
L 45.3125 8.40625 
Q 42.046875 3.421875 37.71875 1 
Q 33.40625 -1.421875 27.6875 -1.421875 
Q 18.265625 -1.421875 13.375 4.4375 
Q 8.5 10.296875 8.5 21.578125 
z
M 31.109375 56 
z
" id="DejaVuSans-117"/>
       <path d="M 11.71875 12.40625 
L 22.015625 12.40625 
L 22.015625 4 
L 14.015625 -11.625 
L 7.71875 -11.625 
L 11.71875 4 
z
" id="DejaVuSans-44"/>
       <path d="M 18.109375 8.203125 
L 18.109375 -20.796875 
L 9.078125 -20.796875 
L 9.078125 54.6875 
L 18.109375 54.6875 
L 18.109375 46.390625 
Q 20.953125 51.265625 25.265625 53.625 
Q 29.59375 56 35.59375 56 
Q 45.5625 56 51.78125 48.09375 
Q 58.015625 40.1875 58.015625 27.296875 
Q 58.015625 14.40625 51.78125 6.484375 
Q 45.5625 -1.421875 35.59375 -1.421875 
Q 29.59375 -1.421875 25.265625 0.953125 
Q 20.953125 3.328125 18.109375 8.203125 
z
M 48.6875 27.296875 
Q 48.6875 37.203125 44.609375 42.84375 
Q 40.53125 48.484375 33.40625 48.484375 
Q 26.265625 48.484375 22.1875 42.84375 
Q 18.109375 37.203125 18.109375 27.296875 
Q 18.109375 17.390625 22.1875 11.75 
Q 26.265625 6.109375 33.40625 6.109375 
Q 40.53125 6.109375 44.609375 11.75 
Q 48.6875 17.390625 48.6875 27.296875 
z
" id="DejaVuSans-112"/>
      </defs>
      <use xlink:href="#DejaVuSans-70"/>
      <use x="50.269531" xlink:href="#DejaVuSans-114"/>
      <use x="91.382812" xlink:href="#DejaVuSans-97"/>
      <use x="152.662109" xlink:href="#DejaVuSans-99"/>
      <use x="207.642578" xlink:href="#DejaVuSans-116"/>
      <use x="246.851562" xlink:href="#DejaVuSans-105"/>
      <use x="274.634766" xlink:href="#DejaVuSans-111"/>
      <use x="335.816406" xlink:href="#DejaVuSans-110"/>
      <use x="399.195312" xlink:href="#DejaVuSans-32"/>
      <use x="430.982422" xlink:href="#DejaVuSans-111"/>
      <use x="492.164062" xlink:href="#DejaVuSans-102"/>
      <use x="527.369141" xlink:href="#DejaVuSans-32"/>
      <use x="559.15625" xlink:href="#DejaVuSans-102"/>
      <use x="594.361328" xlink:href="#DejaVuSans-117"/>
      <use x="657.740234" xlink:href="#DejaVuSans-110"/>
      <use x="721.119141" xlink:href="#DejaVuSans-99"/>
      <use x="776.099609" xlink:href="#DejaVuSans-116"/>
      <use x="815.308594" xlink:href="#DejaVuSans-105"/>
      <use x="843.091797" xlink:href="#DejaVuSans-111"/>
      <use x="904.273438" xlink:href="#DejaVuSans-110"/>
      <use x="967.652344" xlink:href="#DejaVuSans-44"/>
      <use x="999.439453" xlink:href="#DejaVuSans-116"/>
      <use x="1038.648438" xlink:href="#DejaVuSans-97"/>
      <use x="1099.927734" xlink:href="#DejaVuSans-114"/>
      <use x="1139.291016" xlink:href="#DejaVuSans-103"/>
      <use x="1202.767578" xlink:href="#DejaVuSans-101"/>
      <use x="1264.291016" xlink:href="#DejaVuSans-116"/>
      <use x="1303.5" xlink:href="#DejaVuSans-32"/>
      <use x="1335.287109" xlink:href="#DejaVuSans-112"/>
      <use x="1398.763672" xlink:href="#DejaVuSans-97"/>
      <use x="1460.042969" xlink:href="#DejaVuSans-105"/>
      <use x="1487.826172" xlink:href="#DejaVuSans-114"/>
      <use x="1528.939453" xlink:href="#DejaVuSans-115"/>
     </g>
    </g>
   </g>
   <g id="line2d_29">
    <defs>
     <path d="M 0 1.5 
C 0.397805 1.5 0.77937 1.341951 1.06066 1.06066 
C 1.341951 0.77937 1.5 0.397805 1.5 0 
C 1.5 -0.397805 1.341951 -0.77937 1.06066 -1.06066 
C 0.77937 -1.341951 0.397805 -1.5 0 -1.5 
C -0.397805 -1.5 -0.77937 -1.341951 -1.06066 -1.06066 
C -1.341951 -0.77937 -1.5 -0.397805 -1.5 0 
C -1.5 0.397805 -1.341951 0.77937 -1.06066 1.06066 
C -0.77937 1.341951 -0.397805 1.5 0 1.5 
z
" id="md0c5536ac2" style="stroke:#000080;"/>
    </defs>
    <g>
     <use style="fill:#000080;stroke:#000080;" x="262.377228" xlink:href="#md0c5536ac2" y="12.625333"/>
     <use style="fill:#000080;stroke:#000080;" x="262.377228" xlink:href="#md0c5536ac2" y="12.625333"/>
    </g>
   </g>
   <g id="line2d_30">
    <path d="M 45.512012 298.944 
L 45.512012 296.208661 
L 81.775977 296.208661 
L 81.775977 288.240498 
L 91.535274 288.181035 
L 91.535274 278.726275 
L 93.863965 278.726275 
L 93.863965 278.1911 
L 97.755429 278.131636 
L 97.755429 263.488651 
L 99.41757 263.488651 
L 99.41757 262.329105 
L 100.934985 262.329105 
L 100.934985 262.076383 
L 102.330873 262.076383 
L 102.330873 246.021131 
L 103.623262 246.006265 
L 103.623262 244.742657 
L 104.826449 244.742657 
L 104.826449 244.207482 
L 105.951954 244.207482 
L 105.951954 227.85491 
L 107.009204 227.85491 
L 107.009204 226.160189 
L 108.006005 226.100725 
L 108.006005 225.208767 
L 108.948899 225.208767 
L 108.948899 212.186173 
L 109.843417 212.186173 
L 109.843417 210.015741 
L 110.694282 210.015741 
L 110.694282 208.841329 
L 111.505558 208.841329 
L 111.505558 196.889086 
L 112.280765 196.889086 
L 112.280765 194.614592 
L 113.022974 194.58486 
L 113.022974 193.172592 
L 113.73488 193.172592 
L 113.73488 183.033998 
L 114.418861 182.944802 
L 114.418861 181.279813 
L 115.077025 181.279813 
L 115.077025 180.016205 
L 115.711251 180.016205 
L 115.711251 171.379074 
L 116.323218 171.379074 
L 116.323218 169.669487 
L 116.914437 169.639755 
L 116.914437 168.182889 
L 117.486268 168.182889 
L 117.486268 161.71619 
L 118.039942 161.701324 
L 118.039942 159.322768 
L 118.576578 159.322768 
L 118.576578 157.880769 
L 119.097192 157.880769 
L 119.097192 152.870936 
L 119.602714 152.85607 
L 119.602714 150.596441 
L 120.093994 150.551844 
L 120.093994 148.916586 
L 120.571812 148.857122 
L 120.571812 143.966217 
L 121.036887 143.936485 
L 121.036887 142.316094 
L 121.489881 142.301228 
L 121.489881 140.903826 
L 121.931406 140.88896 
L 121.931406 135.923725 
L 122.362027 135.879127 
L 122.362027 134.645251 
L 122.782271 134.630385 
L 122.782271 133.322179 
L 123.192626 133.307313 
L 123.192626 129.159706 
L 123.593547 129.115108 
L 123.593547 127.569047 
L 123.985457 127.509583 
L 123.985457 125.963522 
L 124.368753 125.963522 
L 124.368753 122.440286 
L 124.743806 122.395688 
L 124.743806 120.760431 
L 125.110962 120.745565 
L 125.110962 119.407627 
L 125.470548 119.407627 
L 125.470548 115.453278 
L 125.822869 115.438412 
L 125.822869 113.936949 
L 126.168212 113.907217 
L 126.168212 112.658475 
L 126.50685 112.658475 
L 126.50685 109.581218 
L 126.839037 109.566352 
L 126.839037 107.856765 
L 127.165014 107.812167 
L 127.165014 106.548559 
L 127.48501 106.489095 
L 127.48501 103.649694 
L 127.799239 103.59023 
L 127.799239 101.434664 
L 128.107907 101.419798 
L 128.107907 100.319716 
L 128.411207 100.289984 
L 128.411207 97.688439 
L 128.709321 97.584377 
L 128.709321 96.112645 
L 129.002426 96.023449 
L 129.002426 94.863903 
L 129.290685 94.774708 
L 129.290685 92.306956 
L 129.574256 92.21776 
L 129.574256 91.07308 
L 129.853291 91.058214 
L 129.853291 90.210853 
L 130.127931 90.195987 
L 130.127931 88.278277 
L 130.398313 88.263411 
L 130.398313 86.64302 
L 130.664567 86.628154 
L 130.664567 85.661865 
L 130.926816 85.602401 
L 130.926816 83.744155 
L 131.185181 83.714423 
L 131.185181 82.718402 
L 131.439773 82.68867 
L 131.439773 82.019702 
L 131.690703 81.98997 
L 131.690703 80.681764 
L 131.938072 80.592568 
L 131.938072 79.62628 
L 132.060454 79.62628 
L 132.060454 79.507352 
L 132.181982 79.507352 
L 132.181982 78.972177 
L 132.422528 78.972177 
L 132.422528 77.991022 
L 132.659801 77.961291 
L 132.659801 77.128796 
L 132.893889 77.024734 
L 132.893889 76.326033 
L 133.124876 76.236837 
L 133.124876 75.077291 
L 133.352844 75.032694 
L 133.352844 74.467787 
L 133.57787 74.408323 
L 133.57787 73.888014 
L 133.800029 73.813684 
L 133.910056 72.713602 
L 134.019394 72.713602 
L 134.12805 72.059499 
L 134.236034 72.059499 
L 134.343353 71.24187 
L 134.450015 71.24187 
L 134.55603 70.572901 
L 134.661403 70.572901 
L 134.766144 70.007994 
L 134.870259 70.007994 
L 134.870259 69.443087 
L 135.076644 69.443087 
L 135.076644 68.714654 
L 135.280614 68.714654 
L 135.381712 67.837562 
L 135.482227 67.837562 
L 135.582166 67.168593 
L 135.681535 67.168593 
L 135.780341 66.58882 
L 135.878591 66.58882 
L 135.97629 65.696862 
L 136.073445 65.696862 
L 136.170062 65.384676 
L 136.266147 65.384676 
L 136.361705 64.671109 
L 136.456742 64.671109 
L 136.551264 64.165666 
L 136.645276 64.165666 
L 136.738785 63.719687 
L 136.831795 63.719687 
L 136.924311 62.976388 
L 137.016339 62.976388 
L 137.107884 62.470945 
L 137.198951 62.470945 
L 137.289545 62.188492 
L 137.37967 62.188492 
L 137.469333 61.668183 
L 137.558536 61.668183 
L 137.647286 61.147873 
L 137.735587 61.147873 
L 137.823442 60.464039 
L 137.910857 60.464039 
L 137.997836 59.854534 
L 138.084384 59.854534 
L 138.170504 59.661276 
L 138.256201 59.661276 
L 138.341479 59.289627 
L 138.426341 59.289627 
L 138.510793 58.72472 
L 138.594838 58.72472 
L 138.67848 58.50173 
L 138.761723 58.50173 
L 138.84457 58.293606 
L 138.927025 58.293606 
L 139.009092 57.892225 
L 139.090775 57.892225 
L 139.172077 57.639504 
L 139.253002 57.639504 
L 139.333553 57.13406 
L 139.413734 57.13406 
L 139.493548 56.777277 
L 139.572998 56.777277 
L 139.652088 56.375896 
L 139.730821 56.375896 
L 139.8092 55.900184 
L 139.887228 55.900184 
L 139.964909 55.156886 
L 140.042245 55.156886 
L 140.042245 54.814968 
L 140.195896 54.814968 
L 140.272217 54.339257 
L 140.348205 54.339257 
L 140.348205 54.056804 
L 140.499195 54.056804 
L 140.574203 53.70002 
L 140.64889 53.70002 
L 140.64889 53.105381 
L 140.79731 53.105381 
L 140.871049 52.510742 
L 140.944478 52.510742 
L 141.017599 52.198557 
L 141.090414 52.198557 
L 141.162927 51.752578 
L 141.235139 51.752578 
L 141.235139 51.514722 
L 141.378673 51.514722 
L 141.45 51.321464 
L 141.521035 51.321464 
L 141.591783 50.979547 
L 141.662245 50.979547 
L 141.732423 50.652496 
L 141.871938 50.5633 
L 141.941279 50.251114 
L 142.07914 50.19165 
L 142.07914 49.938929 
L 142.215919 49.938929 
L 142.283909 49.597011 
L 142.351634 49.597011 
L 142.419098 49.433486 
L 142.486301 49.433486 
L 142.553247 49.017238 
L 142.619936 49.017238 
L 142.686372 48.838847 
L 142.752555 48.838847 
L 142.818488 48.705053 
L 142.884173 48.705053 
L 142.949611 48.556393 
L 143.014805 48.556393 
L 143.014805 48.318538 
L 143.144465 48.318538 
L 143.208936 48.140146 
L 143.273169 48.140146 
L 143.337167 47.857692 
L 143.40093 47.857692 
L 143.464461 47.679301 
L 143.527762 47.679301 
L 143.590833 47.500909 
L 143.653678 47.500909 
L 143.653678 47.307651 
L 143.778691 47.307651 
L 143.840863 47.084662 
L 144.026061 47.010332 
L 144.026061 46.891404 
L 144.148442 46.891404 
L 144.209312 46.698146 
L 144.269971 46.698146 
L 144.269971 46.519755 
L 144.510517 46.445425 
L 144.570138 46.296765 
L 144.629556 46.296765 
L 144.629556 46.162971 
L 144.747789 46.162971 
L 144.806606 45.954848 
L 144.923649 45.850786 
L 144.981877 45.553466 
L 145.097753 45.5386 
L 145.155404 45.345343 
L 145.270136 45.241281 
L 145.327221 45.003425 
L 145.440832 44.973693 
L 145.440832 44.750704 
L 145.553708 44.750704 
L 145.553708 44.572312 
L 145.665858 44.572312 
L 145.721664 44.260127 
L 145.888018 44.185797 
L 145.998045 43.724951 
L 146.107383 43.710085 
L 146.216039 43.264106 
L 146.324022 43.204642 
L 146.431341 42.966787 
L 146.591092 42.862725 
L 146.644018 42.743797 
L 146.854132 42.654601 
L 146.958248 42.387014 
L 147.061745 42.372148 
L 147.164632 42.119426 
L 147.266916 42.10456 
L 147.368603 41.866705 
L 147.570215 41.762643 
L 147.670154 41.643715 
L 147.769524 41.643715 
L 147.86833 41.346396 
L 148.161434 41.242334 
L 148.258051 40.974746 
L 148.449693 40.915282 
L 148.54473 40.707159 
L 148.733265 40.647695 
L 148.826773 40.290911 
L 148.919783 40.276045 
L 149.012299 40.097654 
L 149.195872 40.023324 
L 149.286939 39.96386 
L 149.377533 39.934128 
L 149.467659 39.696272 
L 149.557321 39.696272 
L 149.646525 39.428685 
L 149.823575 39.324623 
L 149.911431 39.175963 
L 149.998846 39.146231 
L 150.085825 38.908376 
L 150.344189 38.848912 
L 150.429467 38.611056 
L 150.598782 38.551592 
L 150.682827 38.417799 
L 150.849711 38.343469 
L 150.932558 38.209675 
L 151.178764 38.120479 
L 151.260066 37.897489 
L 151.421542 37.82316 
L 151.501723 37.704232 
L 151.660987 37.644768 
L 151.740076 37.436644 
L 151.936246 37.332582 
L 152.0141 37.273119 
L 152.207228 37.169057 
L 152.283884 37.079861 
L 152.436193 36.990665 
L 152.511852 36.797407 
L 152.736878 36.708212 
L 152.811246 36.60415 
L 153.105587 36.514954 
L 153.214697 36.38116 
L 153.323128 36.291964 
L 153.430889 36.173036 
L 153.609024 36.083841 
L 153.679772 35.964913 
L 153.820412 35.950047 
L 153.890309 35.727057 
L 154.029268 35.637861 
L 154.132765 35.504068 
L 154.371897 35.400006 
L 154.439623 35.31081 
L 154.641235 35.206748 
L 154.707925 35.117552 
L 154.906477 35.043222 
L 155.004911 34.894563 
L 155.296925 34.790501 
L 155.393186 34.745903 
L 155.520713 34.656707 
L 155.61575 34.463449 
L 155.741666 34.38912 
L 155.83551 34.195862 
L 155.928852 34.121532 
L 156.021696 33.94314 
L 156.114049 33.898542 
L 156.205916 33.645821 
L 156.357959 33.541759 
L 156.448553 33.437697 
L 156.538679 33.393099 
L 156.628341 33.229574 
L 156.953214 33.125512 
L 157.011638 32.902522 
L 157.185742 32.828192 
L 157.185742 32.783594 
L 157.358125 32.694398 
L 157.443681 32.516007 
L 157.58535 32.411945 
L 157.669802 32.233553 
L 157.893028 32.129491 
L 158.003578 32.02543 
L 158.331086 31.921368 
L 158.438903 31.861904 
L 158.572743 31.787574 
L 158.67908 31.505121 
L 158.83738 31.430791 
L 158.942121 31.311863 
L 159.098062 31.252399 
L 159.201253 30.940213 
L 159.303838 30.895616 
L 159.405822 30.702358 
L 159.582872 30.598296 
L 159.658204 30.553698 
L 159.783038 30.464502 
L 159.857512 30.226647 
L 160.005512 30.122585 
L 160.103486 30.003657 
L 160.297798 29.914461 
L 160.394148 29.780667 
L 160.585265 29.676606 
L 160.585265 29.66174 
L 160.750792 29.557678 
L 160.844678 29.409018 
L 160.984566 29.304956 
L 161.030947 29.275224 
L 161.146363 29.171163 
L 161.192316 29.007637 
L 161.329454 28.903575 
L 161.420284 28.680585 
L 161.465522 28.665719 
L 161.555647 28.412998 
L 161.756743 28.308936 
L 161.84538 28.190008 
L 162.130378 28.130544 
L 162.217141 28.011617 
L 162.346481 27.981885 
L 162.453536 27.729163 
L 162.53871 27.625101 
L 162.644595 27.506173 
L 162.770815 27.506173 
L 162.812686 27.312916 
L 163.061823 27.208854 
L 163.164589 27.119658 
L 163.307451 27.060194 
L 163.408783 26.911534 
L 163.589711 26.807473 
L 163.689421 26.703411 
L 163.808326 26.599349 
L 163.867476 26.510153 
L 164.063205 26.435823 
L 164.140886 26.2277 
L 164.237502 26.123638 
L 164.333587 26.00471 
L 164.390984 25.900648 
L 164.486229 25.811452 
L 164.637547 25.751988 
L 164.712717 25.633061 
L 165.047026 25.543865 
L 165.047026 25.514133 
L 165.266391 25.499267 
L 165.356985 25.350607 
L 165.55465 25.246545 
L 165.661531 25.187081 
L 165.803027 25.157349 
L 165.9084 24.949226 
L 166.08262 24.845164 
L 166.134549 24.7857 
L 166.561376 24.681638 
L 166.662278 24.607308 
L 166.945039 24.503247 
L 167.027338 24.309989 
L 167.158215 24.220793 
L 167.255733 23.997803 
L 167.449146 23.908608 
L 167.529106 23.819412 
L 167.892273 23.71535 
L 167.985782 23.670752 
L 168.354881 23.56669 
L 168.370092 23.536958 
L 169.128764 23.432896 
L 169.201398 23.388298 
L 169.588476 23.313969 
L 169.645097 23.254505 
L 169.953269 23.165309 
L 170.036379 23.105845 
L 170.28336 23.016649 
L 170.337772 22.957185 
L 170.674059 22.853123 
L 170.740545 22.749062 
L 171.211906 22.645 
L 171.302098 22.540938 
L 171.519214 22.436876 
L 171.569909 22.332814 
L 171.858583 22.228752 
L 171.957882 22.169289 
L 172.264595 22.065227 
L 172.337411 21.946299 
L 172.60183 21.842237 
L 172.685129 21.738175 
L 172.97942 21.634113 
L 173.072554 21.455722 
L 173.15364 21.35166 
L 173.245851 21.247598 
L 173.733298 21.158402 
L 173.811376 21.069206 
L 174.15301 20.980011 
L 174.261802 20.846217 
L 174.816832 20.742155 
L 174.921573 20.697557 
L 175.211544 20.593495 
L 175.273058 20.534031 
L 175.657689 20.42997 
L 175.657689 20.415104 
L 175.984964 20.311042 
L 176.082938 20.266444 
L 176.34475 20.162382 
L 176.450298 20.13265 
L 176.912855 20.028588 
L 176.987223 19.98399 
L 177.281564 19.879929 
L 177.381607 19.835331 
L 178.118525 19.731269 
L 178.187935 19.686671 
L 178.991731 19.582609 
L 179.041275 19.552877 
L 179.497017 19.448815 
L 179.497017 19.433949 
L 180.488462 19.329887 
L 180.518792 19.300156 
L 181.253107 19.196094 
L 181.34005 19.166362 
L 181.669373 19.0623 
L 181.754271 19.002836 
L 182.096708 18.928506 
L 182.172666 18.824444 
L 182.735382 18.720383 
L 182.801969 18.675785 
L 183.345048 18.571723 
L 183.428598 18.482527 
L 184.082962 18.378465 
L 184.095309 18.348733 
L 184.653996 18.244671 
L 184.743413 18.185207 
L 185.299317 18.081146 
L 185.402679 18.036548 
L 186.131524 17.932486 
L 186.235541 17.902754 
L 187.014782 17.798692 
L 187.014782 17.783826 
L 188.624171 17.679764 
L 188.624171 17.664898 
L 188.944859 17.590568 
L 189.052006 17.456775 
L 189.886276 17.352713 
L 189.886276 17.337847 
L 192.772654 17.233785 
L 192.772654 17.218919 
L 194.489965 17.114857 
L 194.489965 17.099991 
L 197.749242 16.995929 
L 197.813994 16.951332 
L 198.241462 16.84727 
L 198.260646 16.787806 
L 198.591644 16.683744 
L 198.690799 16.594548 
L 198.916476 16.490486 
L 199.011184 16.431022 
L 199.348964 16.326961 
L 199.459266 16.252631 
L 200.482187 16.148569 
L 200.559182 16.103971 
L 202.433047 15.999909 
L 202.512645 15.925579 
L 202.683515 15.821518 
L 202.793689 15.717456 
L 205.039815 15.613394 
L 205.039815 15.598528 
L 206.420841 15.494466 
L 206.451692 15.464734 
L 207.811713 15.360672 
L 207.835457 15.33094 
L 209.117449 15.226879 
L 209.214179 15.093085 
L 210.356849 14.989023 
L 210.422431 14.959291 
L 210.778788 14.855229 
L 210.778788 14.840363 
L 211.659405 14.736301 
L 211.710145 14.706569 
L 212.590661 14.602508 
L 212.590661 14.587642 
L 213.175656 14.48358 
L 213.175656 14.468714 
L 215.690553 14.364652 
L 215.716746 14.33492 
L 218.421984 14.230858 
L 218.531116 14.201126 
L 219.312579 14.097064 
L 219.312579 14.082199 
L 220.408572 13.978137 
L 220.408572 13.963271 
L 222.429089 13.859209 
L 222.466042 13.829477 
L 224.294496 13.725415 
L 224.339988 13.651085 
L 227.064451 13.547023 
L 227.117411 13.517291 
L 229.847597 13.41323 
L 229.847597 13.398364 
L 231.930972 13.294302 
L 231.930972 13.279436 
L 235.909539 13.175374 
L 235.909539 13.160508 
L 241.987886 13.056446 
L 241.987886 13.04158 
L 246.878809 12.937518 
L 246.878809 12.922652 
L 252.539174 12.818591 
L 252.539174 12.803725 
L 257.654879 12.699663 
L 257.665509 12.669931 
L 338.688 12.625333 
L 338.688 12.625333 
" style="fill:none;stroke:#000080;stroke-linecap:square;stroke-width:1.5;"/>
   </g>
   <g id="line2d_31">
    <defs>
     <path d="M 0 6 
C 1.591219 6 3.117479 5.367802 4.242641 4.242641 
C 5.367802 3.117479 6 1.591219 6 0 
C 6 -1.591219 5.367802 -3.117479 4.242641 -4.242641 
C 3.117479 -5.367802 1.591219 -6 0 -6 
C -1.591219 -6 -3.117479 -5.367802 -4.242641 -4.242641 
C -5.367802 -3.117479 -6 -1.591219 -6 0 
C -6 1.591219 -5.367802 3.117479 -4.242641 4.242641 
C -3.117479 5.367802 -1.591219 6 0 6 
z
" id="me07ea9d6c3" style="stroke:#000080;stroke-width:1.5;"/>
    </defs>
    <g>
     <use style="fill-opacity:0;stroke:#000080;stroke-width:1.5;" x="110.694282" xlink:href="#me07ea9d6c3" y="208.841329"/>
     <use style="fill-opacity:0;stroke:#000080;stroke-width:1.5;" x="137.016339" xlink:href="#me07ea9d6c3" y="62.976388"/>
     <use style="fill-opacity:0;stroke:#000080;stroke-width:1.5;" x="223.392558" xlink:href="#me07ea9d6c3" y="13.770013"/>
     <use style="fill-opacity:0;stroke:#000080;stroke-width:1.5;" x="262.377228" xlink:href="#me07ea9d6c3" y="12.625333"/>
     <use style="fill-opacity:0;stroke:#000080;stroke-width:1.5;" x="262.377228" xlink:href="#me07ea9d6c3" y="12.625333"/>
     <use style="fill-opacity:0;stroke:#000080;stroke-width:1.5;" x="338.688" xlink:href="#me07ea9d6c3" y="12.625333"/>
    </g>
   </g>
   <g id="line2d_32">
    <path style="fill:none;stroke:#000080;stroke-linecap:square;stroke-width:1.5;"/>
    <g/>
   </g>
   <g id="line2d_33">
    <path clip-path="url(#pb218081110)" d="M 128.260216 100.289984 
" style="fill:none;stroke:#000080;stroke-linecap:square;stroke-width:1.5;"/>
    <defs>
     <path d="M -12 12 
L 12 -12 
M -12 -12 
L 12 12 
" id="m4a79c651e6" style="stroke:#000080;"/>
    </defs>
    <g clip-path="url(#pb218081110)">
     <use style="fill:#000080;stroke:#000080;" x="128.260216" xlink:href="#m4a79c651e6" y="100.289984"/>
    </g>
   </g>
   <g id="line2d_34">
    <defs>
     <path d="M 0 1.5 
C 0.397805 1.5 0.77937 1.341951 1.06066 1.06066 
C 1.341951 0.77937 1.5 0.397805 1.5 0 
C 1.5 -0.397805 1.341951 -0.77937 1.06066 -1.06066 
C 0.77937 -1.341951 0.397805 -1.5 0 -1.5 
C -0.397805 -1.5 -0.77937 -1.341951 -1.06066 -1.06066 
C -1.341951 -0.77937 -1.5 -0.397805 -1.5 0 
C -1.5 0.397805 -1.341951 0.77937 -1.06066 1.06066 
C -0.77937 1.341951 -0.397805 1.5 0 1.5 
z
" id="m075814ddda" style="stroke:#ff00ff;"/>
    </defs>
    <g>
     <use style="fill:#ff00ff;stroke:#ff00ff;" x="269.497122" xlink:href="#m075814ddda" y="12.625333"/>
     <use style="fill:#ff00ff;stroke:#ff00ff;" x="269.497122" xlink:href="#m075814ddda" y="12.625333"/>
    </g>
   </g>
   <g id="line2d_35">
    <path d="M 45.512012 298.944 
L 45.512012 296.045135 
L 81.775977 296.045135 
L 81.775977 279.350646 
L 85.66744 279.350646 
L 85.66744 279.172254 
L 91.535274 279.172254 
L 91.535274 257.839581 
L 93.863965 257.839581 
L 93.863965 257.319272 
L 97.755429 257.21521 
L 97.755429 236.640701 
L 99.41757 236.640701 
L 99.41757 235.644681 
L 100.934985 235.644681 
L 100.934985 235.451423 
L 102.330873 235.451423 
L 102.330873 219.812418 
L 103.623262 219.812418 
L 103.623262 218.206893 
L 104.826449 218.206893 
L 104.826449 217.537924 
L 105.951954 217.537924 
L 105.951954 204.203145 
L 107.009204 204.203145 
L 107.009204 202.59762 
L 108.006005 202.567888 
L 108.006005 201.675929 
L 108.948899 201.675929 
L 108.948899 190.70484 
L 109.843417 190.70484 
L 109.843417 189.069583 
L 110.694282 189.039851 
L 110.694282 187.791109 
L 111.505558 187.791109 
L 111.505558 178.529607 
L 112.280765 178.499875 
L 112.280765 176.403773 
L 113.022974 176.374041 
L 113.022974 174.90231 
L 113.73488 174.90231 
L 113.73488 166.205715 
L 114.418861 166.190849 
L 114.418861 163.975818 
L 115.077025 163.946086 
L 115.077025 162.533819 
L 115.711251 162.533819 
L 115.711251 154.565657 
L 116.323218 154.521059 
L 116.323218 152.083039 
L 116.914437 152.038441 
L 116.914437 150.209926 
L 117.486268 150.209926 
L 117.486268 143.772959 
L 118.039942 143.728361 
L 118.039942 141.706589 
L 118.576578 141.647125 
L 118.576578 139.89294 
L 119.097192 139.89294 
L 119.097192 134.570921 
L 119.602714 134.526323 
L 119.602714 132.207231 
L 120.093994 132.192365 
L 120.093994 130.720634 
L 120.571812 130.705768 
L 120.571812 125.086429 
L 120.8059 125.086429 
L 120.8059 124.952636 
L 121.036887 124.952636 
L 121.036887 122.826801 
L 121.489881 122.752471 
L 121.489881 121.444266 
L 121.931406 121.414534 
L 121.931406 116.895277 
L 122.362027 116.835814 
L 122.362027 115.022165 
L 122.782271 114.977567 
L 122.782271 113.728825 
L 123.192626 113.713959 
L 123.192626 108.986579 
L 123.593547 108.927115 
L 123.593547 107.425652 
L 123.985457 107.410786 
L 123.985457 106.043116 
L 124.368753 105.998518 
L 124.368753 101.969839 
L 124.743806 101.940107 
L 124.743806 100.661633 
L 125.110962 100.631901 
L 125.110962 99.279098 
L 125.470548 99.189902 
L 125.470548 95.785594 
L 125.822869 95.72613 
L 125.822869 94.670646 
L 125.996395 94.670646 
L 125.996395 94.551718 
L 126.168212 94.551718 
L 126.168212 93.853017 
L 126.50685 93.778687 
L 126.50685 91.177142 
L 126.839037 91.087946 
L 126.839037 89.987864 
L 127.165014 89.883802 
L 127.165014 88.753988 
L 127.48501 88.70939 
L 127.48501 86.628154 
L 127.799239 86.598422 
L 127.799239 85.305082 
L 128.107907 85.260484 
L 128.107907 83.98201 
L 128.411207 83.967144 
L 128.411207 82.108897 
L 128.709321 82.049433 
L 128.709321 81.216939 
L 128.856489 81.216939 
L 128.856489 81.098011 
L 129.002426 81.098011 
L 129.002426 80.310114 
L 129.290685 80.295248 
L 129.290685 78.600527 
L 129.574256 78.496466 
L 129.574256 77.946425 
L 129.853291 77.872095 
L 129.853291 76.950404 
L 130.127931 76.846342 
L 130.127931 75.434075 
L 130.398313 75.434075 
L 130.398313 74.52725 
L 130.664567 74.438055 
L 130.664567 73.843416 
L 130.926816 73.813684 
L 130.926816 72.60954 
L 131.185181 72.60954 
L 131.185181 71.777045 
L 131.439773 71.762179 
L 131.439773 71.197272 
L 131.690703 71.197272 
L 131.690703 70.453973 
L 131.938072 70.439107 
L 131.938072 69.695809 
L 132.181982 69.680943 
L 132.181982 69.1755 
L 132.422528 69.145768 
L 132.422528 68.595727 
L 132.659801 68.536263 
L 132.659801 67.867294 
L 132.893889 67.80783 
L 132.893889 67.109129 
L 133.009765 67.109129 
L 133.009765 66.960469 
L 133.124876 66.960469 
L 133.124876 66.306367 
L 133.352844 66.291501 
L 133.352844 65.622532 
L 133.57787 65.607666 
L 133.57787 64.849501 
L 133.800029 64.834635 
L 133.800029 64.239996 
L 134.019394 64.239996 
L 134.12805 63.526429 
L 134.236034 63.526429 
L 134.343353 62.902058 
L 134.450015 62.902058 
L 134.55603 62.470945 
L 134.661403 62.470945 
L 134.766144 61.920904 
L 134.870259 61.920904 
L 134.870259 61.534389 
L 135.076644 61.534389 
L 135.076644 61.08841 
L 135.280614 61.08841 
L 135.280614 60.478905 
L 135.482227 60.478905 
L 135.582166 59.958596 
L 135.681535 59.958596 
L 135.780341 59.72074 
L 135.878591 59.72074 
L 135.97629 59.274761 
L 136.073445 59.274761 
L 136.170062 58.873379 
L 136.266147 58.873379 
L 136.266147 58.412534 
L 136.456742 58.412534 
L 136.551264 58.026019 
L 136.645276 58.026019 
L 136.645276 57.520576 
L 136.831795 57.520576 
L 136.831795 57.029999 
L 137.016339 57.029999 
L 137.107884 56.643483 
L 137.198951 56.643483 
L 137.198951 56.197504 
L 137.37967 56.197504 
L 137.37967 55.662329 
L 137.558536 55.662329 
L 137.647286 55.14202 
L 137.735587 55.14202 
L 137.735587 54.666309 
L 137.910857 54.666309 
L 137.997836 54.309525 
L 138.084384 54.309525 
L 138.170504 54.027072 
L 138.256201 54.027072 
L 138.341479 53.84868 
L 138.426341 53.84868 
L 138.510793 53.194577 
L 138.594838 53.194577 
L 138.67848 52.808062 
L 138.761723 52.808062 
L 138.84457 52.540474 
L 138.927025 52.540474 
L 139.009092 52.272887 
L 139.090775 52.272887 
L 139.172077 51.945835 
L 139.333553 51.841773 
L 139.413734 51.351196 
L 139.572998 51.306598 
L 139.652088 50.830887 
L 139.730821 50.830887 
L 139.8092 50.63763 
L 139.887228 50.63763 
L 139.887228 50.161918 
L 140.042245 50.161918 
L 140.11924 49.909197 
L 140.195896 49.909197 
L 140.272217 49.671341 
L 140.348205 49.671341 
L 140.348205 49.388888 
L 140.499195 49.388888 
L 140.574203 49.076702 
L 140.64889 49.076702 
L 140.723258 48.764517 
L 140.79731 48.764517 
L 140.871049 48.600991 
L 140.944478 48.600991 
L 141.017599 48.169878 
L 141.235139 48.080682 
L 141.235139 47.961754 
L 141.378673 47.961754 
L 141.45 47.664435 
L 141.662245 47.575239 
L 141.732423 47.322517 
L 141.80232 47.322517 
L 141.871938 47.025198 
L 141.941279 47.025198 
L 142.010346 46.68328 
L 142.07914 46.68328 
L 142.07914 46.564353 
L 142.215919 46.564353 
L 142.283909 46.326497 
L 142.351634 46.326497 
L 142.419098 45.895384 
L 142.553247 45.806188 
L 142.619936 45.494002 
L 142.818488 45.389941 
L 142.884173 45.062889 
L 143.144465 44.973693 
L 143.208936 44.914229 
L 143.273169 44.914229 
L 143.273169 44.706106 
L 143.40093 44.706106 
L 143.40093 44.557446 
L 143.527762 44.557446 
L 143.527762 44.289858 
L 143.778691 44.185797 
L 143.840863 43.933075 
L 143.902815 43.933075 
L 143.964547 43.754683 
L 144.087359 43.650622 
L 144.148442 43.338436 
L 144.269971 43.308704 
L 144.330419 43.070849 
L 144.390658 43.070849 
L 144.390658 42.951921 
L 144.570138 42.862725 
L 144.629556 42.535674 
L 144.688773 42.535674 
L 144.747789 42.134292 
L 144.865226 42.134292 
L 144.923649 41.777509 
L 144.981877 41.777509 
L 145.039911 41.524787 
L 145.097753 41.524787 
L 145.155404 41.227468 
L 145.270136 41.123406 
L 145.327221 40.900416 
L 145.440832 40.900416 
L 145.497361 40.439571 
L 145.665858 40.350375 
L 145.721664 40.261179 
L 145.832743 40.157118 
L 145.943118 40.053056 
L 146.107383 39.948994 
L 146.216039 39.681406 
L 146.324022 39.66654 
L 146.431341 39.354355 
L 146.538004 39.294891 
L 146.644018 39.101633 
L 146.749392 39.101633 
L 146.854132 38.789448 
L 147.010073 38.715118 
L 147.113265 38.492128 
L 147.266916 38.402933 
L 147.368603 38.105613 
L 147.620256 38.016417 
L 147.71991 37.778562 
L 147.86833 37.689366 
L 147.96658 37.37718 
L 148.112924 37.302851 
L 148.161434 37.050129 
L 148.306159 36.946067 
L 148.40198 36.752809 
L 148.449693 36.752809 
L 148.54473 36.619016 
L 148.639252 36.60415 
L 148.733265 36.38116 
L 148.826773 36.38116 
L 148.919783 36.128439 
L 149.012299 36.113573 
L 149.104327 35.964913 
L 149.286939 35.860851 
L 149.377533 35.667593 
L 149.60198 35.563532 
L 149.690956 35.400006 
L 149.867558 35.31081 
L 149.911431 35.221614 
L 150.042389 35.117552 
L 150.085825 34.909429 
L 150.258492 34.864831 
L 150.344189 34.731037 
L 150.429467 34.716171 
L 150.51433 34.567511 
L 150.640855 34.463449 
L 150.682827 34.38912 
L 150.891184 34.285058 
L 150.973835 34.195862 
L 151.178764 34.106666 
L 151.260066 34.01747 
L 151.581536 33.913408 
L 151.660987 33.824213 
L 151.740076 33.809347 
L 151.818809 33.645821 
L 151.975216 33.571491 
L 152.052897 33.422831 
L 152.207228 33.333635 
L 152.283884 33.199842 
L 152.360205 33.140378 
L 152.436193 33.036316 
L 152.587184 32.991718 
L 152.662192 32.843058 
L 152.811246 32.753862 
L 152.922207 32.545739 
L 153.032466 32.441677 
L 153.105587 32.352481 
L 153.359122 32.263285 
L 153.466662 32.02543 
L 153.644434 31.921368 
L 153.750233 31.861904 
L 153.959927 31.787574 
L 154.029268 31.713244 
L 154.167129 31.683512 
L 154.201424 31.57945 
L 154.439623 31.475389 
L 154.54072 31.356461 
L 154.641235 31.267265 
L 154.741174 31.207801 
L 155.004911 31.118605 
L 155.102793 31.029409 
L 155.329071 30.925348 
L 155.425155 30.80642 
L 155.647315 30.702358 
L 155.741666 30.58343 
L 155.990803 30.523966 
L 156.052535 30.390172 
L 156.175347 30.330709 
L 156.266892 30.241513 
L 156.508689 30.152317 
L 156.598505 30.003657 
L 156.776762 29.899595 
L 156.776762 29.840131 
L 156.953214 29.810399 
L 157.040776 29.676606 
L 157.358125 29.58741 
L 157.443681 29.483348 
L 157.753847 29.379286 
L 157.837488 29.349554 
L 158.003578 29.245492 
L 158.086033 29.141431 
L 158.304027 29.037369 
L 158.412011 28.963039 
L 158.599388 28.858977 
L 158.67908 28.754915 
L 158.994256 28.650853 
L 159.098062 28.546792 
L 159.226956 28.44273 
L 159.32939 28.338668 
L 159.456591 28.279204 
L 159.557689 28.160276 
L 159.658204 28.115678 
L 159.733212 27.967019 
L 159.857512 27.862957 
L 159.956318 27.773761 
L 160.200913 27.684565 
L 160.273627 27.580503 
L 160.609008 27.491307 
L 160.656397 27.431844 
L 160.821253 27.357514 
L 160.86807 27.253452 
L 161.306672 27.14939 
L 161.329454 27.119658 
L 161.600536 27.030462 
L 161.689969 26.956132 
L 161.88953 26.852071 
L 161.999419 26.792607 
L 162.130378 26.703411 
L 162.217141 26.643947 
L 162.602318 26.554751 
L 162.68677 26.435823 
L 162.770815 26.391225 
L 162.770815 26.212834 
L 163.082425 26.108772 
L 163.185069 26.034442 
L 163.348054 25.93038 
L 163.428979 25.826318 
L 163.569701 25.722256 
L 163.669525 25.618195 
L 163.748975 25.573597 
L 163.847782 25.439803 
L 163.906798 25.410071 
L 163.946031 25.291143 
L 164.102088 25.216813 
L 164.19892 25.068154 
L 164.35274 24.964092 
L 164.448194 24.830298 
L 164.562052 24.755968 
L 164.637547 24.63704 
L 164.917777 24.532979 
L 165.02862 24.428917 
L 165.483031 24.324855 
L 165.572509 24.176195 
L 165.978297 24.101865 
L 166.08262 23.997803 
L 166.220754 23.923474 
L 166.220754 23.878876 
L 166.527611 23.774814 
L 166.628709 23.670752 
L 166.729224 23.64102 
L 166.795913 23.49236 
L 167.043752 23.388298 
L 167.125588 23.328835 
L 167.76681 23.224773 
L 167.860992 23.165309 
L 168.125111 23.061247 
L 168.232714 23.031515 
L 168.790698 22.927453 
L 168.849965 22.897721 
L 169.27373 22.79366 
L 169.331381 22.749062 
L 169.86976 22.645 
L 169.897641 22.600402 
L 170.063995 22.49634 
L 170.077786 22.451742 
L 170.499999 22.34768 
L 170.607318 22.303082 
L 171.003983 22.243618 
L 171.108254 22.154423 
L 171.519214 22.080093 
L 171.595202 22.005763 
L 171.796233 21.901701 
L 171.846131 21.871969 
L 172.142557 21.797639 
L 172.142557 21.753041 
L 172.932666 21.648979 
L 172.956059 21.604382 
L 173.643636 21.50032 
L 173.744474 21.455722 
L 174.240098 21.35166 
L 174.250953 21.321928 
L 175.19099 21.247598 
L 175.19099 21.188134 
L 175.747557 21.084072 
L 175.747557 21.069206 
L 176.968661 20.965145 
L 177.024289 20.920547 
L 177.526107 20.816485 
L 177.526107 20.801619 
L 178.699888 20.697557 
L 178.708295 20.667825 
L 180.05822 20.563763 
L 180.07377 20.534031 
L 180.609464 20.444836 
L 180.692168 20.370506 
L 182.096708 20.266444 
L 182.124367 20.236712 
L 182.439337 20.13265 
L 182.439337 20.117784 
L 183.594505 20.013722 
L 183.594505 19.998856 
L 185.32234 19.894794 
L 185.431282 19.835331 
L 187.371278 19.731269 
L 187.412143 19.701537 
L 188.316863 19.597475 
L 188.403842 19.552877 
L 189.934909 19.448815 
L 190.005407 19.419083 
L 190.478233 19.315021 
L 190.478233 19.300156 
L 191.350483 19.196094 
L 191.443861 19.121764 
L 192.576451 19.017702 
L 192.576451 19.002836 
L 193.564818 18.898774 
L 193.582736 18.869042 
L 194.840041 18.76498 
L 194.883311 18.735248 
L 197.352716 18.631187 
L 197.352716 18.616321 
L 198.07616 18.512259 
L 198.186535 18.482527 
L 198.367141 18.378465 
L 198.470284 18.155475 
L 198.784079 18.051414 
L 198.874219 17.99195 
L 199.15489 17.887888 
L 199.15489 17.873022 
L 199.443917 17.783826 
L 199.484818 17.739228 
L 200.861447 17.635166 
L 200.861447 17.6203 
L 202.469664 17.545971 
L 202.559801 17.427043 
L 202.823233 17.322981 
L 202.856936 17.263517 
L 203.328212 17.189187 
L 203.356865 17.129723 
L 203.957829 17.025661 
L 203.957829 17.010795 
L 205.461739 16.906734 
L 205.461739 16.891868 
L 205.820511 16.787806 
L 205.893156 16.758074 
L 207.644601 16.654012 
L 207.74665 16.609414 
L 208.634649 16.505352 
L 208.717553 16.47562 
L 209.152685 16.371559 
L 209.193705 16.312095 
L 210.560979 16.208033 
L 210.619058 16.163435 
L 211.139791 16.059373 
L 211.159412 15.999909 
L 213.528419 15.895847 
L 213.528419 15.880981 
L 214.536123 15.77692 
L 214.602779 15.747188 
L 215.399807 15.643126 
L 215.426439 15.55393 
L 215.589444 15.464734 
L 215.68652 15.345806 
L 215.819123 15.241745 
L 215.896012 15.182281 
L 216.353272 15.078219 
L 216.449095 15.033621 
L 217.525242 14.929559 
L 217.525242 14.914693 
L 219.47969 14.810631 
L 219.579193 14.751167 
L 220.61883 14.647106 
L 220.61883 14.63224 
L 221.773665 14.528178 
L 221.790016 14.498446 
L 222.98728 14.394384 
L 223.02638 14.364652 
L 224.751357 14.26059 
L 224.751357 14.245724 
L 226.426412 14.141662 
L 226.426412 14.126796 
L 227.215563 14.022735 
L 227.215563 14.007869 
L 227.66323 13.903807 
L 227.7735 13.844343 
L 229.477487 13.740281 
L 229.477487 13.725415 
L 232.536897 13.621353 
L 232.536897 13.606487 
L 233.628219 13.502426 
L 233.628219 13.48756 
L 235.246266 13.383498 
L 235.246266 13.368632 
L 236.479472 13.26457 
L 236.479472 13.249704 
L 238.900125 13.145642 
L 238.900125 13.130776 
L 242.696382 13.026714 
L 242.696382 13.011848 
L 246.681111 12.907787 
L 246.681111 12.892921 
L 253.720443 12.788859 
L 253.720443 12.773993 
L 268.295605 12.669931 
L 268.295605 12.655065 
L 338.688 12.625333 
L 338.688 12.625333 
" style="fill:none;stroke:#ff00ff;stroke-linecap:square;stroke-width:1.5;"/>
   </g>
   <g id="line2d_36">
    <defs>
     <path d="M -0 8.485281 
L 5.091169 0 
L 0 -8.485281 
L -5.091169 -0 
z
" id="mbaa7b4a5f3" style="stroke:#ff00ff;stroke-linejoin:miter;stroke-width:1.5;"/>
    </defs>
    <g>
     <use style="fill-opacity:0;stroke:#ff00ff;stroke-linejoin:miter;stroke-width:1.5;" x="100.934985" xlink:href="#mbaa7b4a5f3" y="235.451423"/>
     <use style="fill-opacity:0;stroke:#ff00ff;stroke-linejoin:miter;stroke-width:1.5;" x="129.714332" xlink:href="#mbaa7b4a5f3" y="77.872095"/>
     <use style="fill-opacity:0;stroke:#ff00ff;stroke-linejoin:miter;stroke-width:1.5;" x="201.521271" xlink:href="#mbaa7b4a5f3" y="17.575702"/>
     <use style="fill-opacity:0;stroke:#ff00ff;stroke-linejoin:miter;stroke-width:1.5;" x="269.497122" xlink:href="#mbaa7b4a5f3" y="12.640199"/>
     <use style="fill-opacity:0;stroke:#ff00ff;stroke-linejoin:miter;stroke-width:1.5;" x="269.497122" xlink:href="#mbaa7b4a5f3" y="12.625333"/>
     <use style="fill-opacity:0;stroke:#ff00ff;stroke-linejoin:miter;stroke-width:1.5;" x="338.688" xlink:href="#mbaa7b4a5f3" y="12.625333"/>
    </g>
   </g>
   <g id="line2d_37">
    <path style="fill:none;stroke:#ff00ff;stroke-linecap:square;stroke-width:1.5;"/>
    <g/>
   </g>
   <g id="line2d_38">
    <path clip-path="url(#pb218081110)" d="M 128.411207 82.108897 
" style="fill:none;stroke:#ff00ff;stroke-linecap:square;stroke-width:1.5;"/>
    <defs>
     <path d="M -12 12 
L 12 -12 
M -12 -12 
L 12 12 
" id="m7b21d44686" style="stroke:#ff00ff;"/>
    </defs>
    <g clip-path="url(#pb218081110)">
     <use style="fill:#ff00ff;stroke:#ff00ff;" x="128.411207" xlink:href="#m7b21d44686" y="82.108897"/>
    </g>
   </g>
   <g id="line2d_39">
    <path d="M 338.688 12.625333 
L 369.60768 293.092752 
" style="fill:none;stroke:#ff00ff;stroke-linecap:square;stroke-width:1.5;"/>
    <g>
     <use style="fill-opacity:0;stroke:#ff00ff;stroke-linejoin:miter;stroke-width:1.5;" x="338.688" xlink:href="#mbaa7b4a5f3" y="12.625333"/>
     <use style="fill-opacity:0;stroke:#ff00ff;stroke-linejoin:miter;stroke-width:1.5;" x="369.60768" xlink:href="#mbaa7b4a5f3" y="293.092752"/>
    </g>
   </g>
   <g id="line2d_40">
    <path d="M 338.688 12.625333 
L 369.60768 12.232871 
" style="fill:none;stroke:#000080;stroke-linecap:square;stroke-width:1.5;"/>
    <g>
     <use style="fill-opacity:0;stroke:#000080;stroke-width:1.5;" x="338.688" xlink:href="#me07ea9d6c3" y="12.625333"/>
     <use style="fill-opacity:0;stroke:#000080;stroke-width:1.5;" x="369.60768" xlink:href="#me07ea9d6c3" y="12.232871"/>
    </g>
   </g>
   <g id="line2d_41">
    <path d="M 338.688 298.944 
L 338.688 6.381624 
" style="fill:none;stroke:#000000;stroke-linecap:square;stroke-width:1.5;"/>
   </g>
   <g id="patch_3">
    <path d="M 57.6 298.944 
L 57.6 3.456 
" style="fill:none;stroke:#000000;stroke-linecap:square;stroke-linejoin:miter;stroke-width:0.8;"/>
   </g>
   <g id="patch_4">
    <path d="M 338.688 298.944 
L 338.688 3.456 
" style="fill:none;stroke:#000000;stroke-linecap:square;stroke-linejoin:miter;stroke-width:0.8;"/>
   </g>
   <g id="patch_5">
    <path d="M 57.6 298.944 
L 338.688 298.944 
" style="fill:none;stroke:#000000;stroke-linecap:square;stroke-linejoin:miter;stroke-width:0.8;"/>
   </g>
   <g id="patch_6">
    <path d="M 57.6 3.456 
L 338.688 3.456 
" style="fill:none;stroke:#000000;stroke-linecap:square;stroke-linejoin:miter;stroke-width:0.8;"/>
   </g>
   <g id="text_13">
    <!-- sqp fmincon on bbob-constrained-ac -->
    <g transform="translate(375.22944 297.78369)scale(0.17 -0.17)">
     <defs>
      <path d="M 14.796875 27.296875 
Q 14.796875 17.390625 18.875 11.75 
Q 22.953125 6.109375 30.078125 6.109375 
Q 37.203125 6.109375 41.296875 11.75 
Q 45.40625 17.390625 45.40625 27.296875 
Q 45.40625 37.203125 41.296875 42.84375 
Q 37.203125 48.484375 30.078125 48.484375 
Q 22.953125 48.484375 18.875 42.84375 
Q 14.796875 37.203125 14.796875 27.296875 
z
M 45.40625 8.203125 
Q 42.578125 3.328125 38.25 0.953125 
Q 33.9375 -1.421875 27.875 -1.421875 
Q 17.96875 -1.421875 11.734375 6.484375 
Q 5.515625 14.40625 5.515625 27.296875 
Q 5.515625 40.1875 11.734375 48.09375 
Q 17.96875 56 27.875 56 
Q 33.9375 56 38.25 53.625 
Q 42.578125 51.265625 45.40625 46.390625 
L 45.40625 54.6875 
L 54.390625 54.6875 
L 54.390625 -20.796875 
L 45.40625 -20.796875 
z
" id="DejaVuSans-113"/>
      <path d="M 48.6875 27.296875 
Q 48.6875 37.203125 44.609375 42.84375 
Q 40.53125 48.484375 33.40625 48.484375 
Q 26.265625 48.484375 22.1875 42.84375 
Q 18.109375 37.203125 18.109375 27.296875 
Q 18.109375 17.390625 22.1875 11.75 
Q 26.265625 6.109375 33.40625 6.109375 
Q 40.53125 6.109375 44.609375 11.75 
Q 48.6875 17.390625 48.6875 27.296875 
z
M 18.109375 46.390625 
Q 20.953125 51.265625 25.265625 53.625 
Q 29.59375 56 35.59375 56 
Q 45.5625 56 51.78125 48.09375 
Q 58.015625 40.1875 58.015625 27.296875 
Q 58.015625 14.40625 51.78125 6.484375 
Q 45.5625 -1.421875 35.59375 -1.421875 
Q 29.59375 -1.421875 25.265625 0.953125 
Q 20.953125 3.328125 18.109375 8.203125 
L 18.109375 0 
L 9.078125 0 
L 9.078125 75.984375 
L 18.109375 75.984375 
z
" id="DejaVuSans-98"/>
     </defs>
     <use xlink:href="#DejaVuSans-115"/>
     <use x="52.099609" xlink:href="#DejaVuSans-113"/>
     <use x="115.576172" xlink:href="#DejaVuSans-112"/>
     <use x="179.052734" xlink:href="#DejaVuSans-32"/>
     <use x="210.839844" xlink:href="#DejaVuSans-102"/>
     <use x="246.044922" xlink:href="#DejaVuSans-109"/>
     <use x="343.457031" xlink:href="#DejaVuSans-105"/>
     <use x="371.240234" xlink:href="#DejaVuSans-110"/>
     <use x="434.619141" xlink:href="#DejaVuSans-99"/>
     <use x="489.599609" xlink:href="#DejaVuSans-111"/>
     <use x="550.78125" xlink:href="#DejaVuSans-110"/>
     <use x="614.160156" xlink:href="#DejaVuSans-32"/>
     <use x="645.947266" xlink:href="#DejaVuSans-111"/>
     <use x="707.128906" xlink:href="#DejaVuSans-110"/>
     <use x="770.507812" xlink:href="#DejaVuSans-32"/>
     <use x="802.294922" xlink:href="#DejaVuSans-98"/>
     <use x="865.771484" xlink:href="#DejaVuSans-98"/>
     <use x="929.248047" xlink:href="#DejaVuSans-111"/>
     <use x="990.429688" xlink:href="#DejaVuSans-98"/>
     <use x="1053.90625" xlink:href="#DejaVuSans-45"/>
     <use x="1089.990234" xlink:href="#DejaVuSans-99"/>
     <use x="1144.970703" xlink:href="#DejaVuSans-111"/>
     <use x="1206.152344" xlink:href="#DejaVuSans-110"/>
     <use x="1269.53125" xlink:href="#DejaVuSans-115"/>
     <use x="1321.630859" xlink:href="#DejaVuSans-116"/>
     <use x="1360.839844" xlink:href="#DejaVuSans-114"/>
     <use x="1401.953125" xlink:href="#DejaVuSans-97"/>
     <use x="1463.232422" xlink:href="#DejaVuSans-105"/>
     <use x="1491.015625" xlink:href="#DejaVuSans-110"/>
     <use x="1554.394531" xlink:href="#DejaVuSans-101"/>
     <use x="1615.917969" xlink:href="#DejaVuSans-100"/>
     <use x="1679.394531" xlink:href="#DejaVuSans-45"/>
     <use x="1715.478516" xlink:href="#DejaVuSans-97"/>
     <use x="1776.757812" xlink:href="#DejaVuSans-99"/>
    </g>
   </g>
   <g id="text_14">
    <!-- sqp fmincon on bbob-constrained -->
    <g transform="translate(375.22944 16.923809)scale(0.17 -0.17)">
     <use xlink:href="#DejaVuSans-115"/>
     <use x="52.099609" xlink:href="#DejaVuSans-113"/>
     <use x="115.576172" xlink:href="#DejaVuSans-112"/>
     <use x="179.052734" xlink:href="#DejaVuSans-32"/>
     <use x="210.839844" xlink:href="#DejaVuSans-102"/>
     <use x="246.044922" xlink:href="#DejaVuSans-109"/>
     <use x="343.457031" xlink:href="#DejaVuSans-105"/>
     <use x="371.240234" xlink:href="#DejaVuSans-110"/>
     <use x="434.619141" xlink:href="#DejaVuSans-99"/>
     <use x="489.599609" xlink:href="#DejaVuSans-111"/>
     <use x="550.78125" xlink:href="#DejaVuSans-110"/>
     <use x="614.160156" xlink:href="#DejaVuSans-32"/>
     <use x="645.947266" xlink:href="#DejaVuSans-111"/>
     <use x="707.128906" xlink:href="#DejaVuSans-110"/>
     <use x="770.507812" xlink:href="#DejaVuSans-32"/>
     <use x="802.294922" xlink:href="#DejaVuSans-98"/>
     <use x="865.771484" xlink:href="#DejaVuSans-98"/>
     <use x="929.248047" xlink:href="#DejaVuSans-111"/>
     <use x="990.429688" xlink:href="#DejaVuSans-98"/>
     <use x="1053.90625" xlink:href="#DejaVuSans-45"/>
     <use x="1089.990234" xlink:href="#DejaVuSans-99"/>
     <use x="1144.970703" xlink:href="#DejaVuSans-111"/>
     <use x="1206.152344" xlink:href="#DejaVuSans-110"/>
     <use x="1269.53125" xlink:href="#DejaVuSans-115"/>
     <use x="1321.630859" xlink:href="#DejaVuSans-116"/>
     <use x="1360.839844" xlink:href="#DejaVuSans-114"/>
     <use x="1401.953125" xlink:href="#DejaVuSans-97"/>
     <use x="1463.232422" xlink:href="#DejaVuSans-105"/>
     <use x="1491.015625" xlink:href="#DejaVuSans-110"/>
     <use x="1554.394531" xlink:href="#DejaVuSans-101"/>
     <use x="1615.917969" xlink:href="#DejaVuSans-100"/>
    </g>
   </g>
   <g id="text_15">
    <!-- bbob-constrained f1-f48, 2-D -->
    <g transform="translate(60.41088 14.161286)scale(0.102 -0.102)">
     <defs>
      <path d="M 19.671875 64.796875 
L 19.671875 8.109375 
L 31.59375 8.109375 
Q 46.6875 8.109375 53.6875 14.9375 
Q 60.6875 21.78125 60.6875 36.53125 
Q 60.6875 51.171875 53.6875 57.984375 
Q 46.6875 64.796875 31.59375 64.796875 
z
M 9.8125 72.90625 
L 30.078125 72.90625 
Q 51.265625 72.90625 61.171875 64.09375 
Q 71.09375 55.28125 71.09375 36.53125 
Q 71.09375 17.671875 61.125 8.828125 
Q 51.171875 0 30.078125 0 
L 9.8125 0 
z
" id="DejaVuSans-68"/>
     </defs>
     <use xlink:href="#DejaVuSans-98"/>
     <use x="63.476562" xlink:href="#DejaVuSans-98"/>
     <use x="126.953125" xlink:href="#DejaVuSans-111"/>
     <use x="188.134766" xlink:href="#DejaVuSans-98"/>
     <use x="251.611328" xlink:href="#DejaVuSans-45"/>
     <use x="287.695312" xlink:href="#DejaVuSans-99"/>
     <use x="342.675781" xlink:href="#DejaVuSans-111"/>
     <use x="403.857422" xlink:href="#DejaVuSans-110"/>
     <use x="467.236328" xlink:href="#DejaVuSans-115"/>
     <use x="519.335938" xlink:href="#DejaVuSans-116"/>
     <use x="558.544922" xlink:href="#DejaVuSans-114"/>
     <use x="599.658203" xlink:href="#DejaVuSans-97"/>
     <use x="660.9375" xlink:href="#DejaVuSans-105"/>
     <use x="688.720703" xlink:href="#DejaVuSans-110"/>
     <use x="752.099609" xlink:href="#DejaVuSans-101"/>
     <use x="813.623047" xlink:href="#DejaVuSans-100"/>
     <use x="877.099609" xlink:href="#DejaVuSans-32"/>
     <use x="908.886719" xlink:href="#DejaVuSans-102"/>
     <use x="944.091797" xlink:href="#DejaVuSans-49"/>
     <use x="1007.714844" xlink:href="#DejaVuSans-45"/>
     <use x="1043.798828" xlink:href="#DejaVuSans-102"/>
     <use x="1079.003906" xlink:href="#DejaVuSans-52"/>
     <use x="1142.626953" xlink:href="#DejaVuSans-56"/>
     <use x="1206.25" xlink:href="#DejaVuSans-44"/>
     <use x="1238.037109" xlink:href="#DejaVuSans-32"/>
     <use x="1269.824219" xlink:href="#DejaVuSans-50"/>
     <use x="1333.447266" xlink:href="#DejaVuSans-45"/>
     <use x="1369.53125" xlink:href="#DejaVuSans-68"/>
    </g>
    <!-- 41 targets: 100..1e-06 -->
    <g transform="translate(60.41088 25.583055)scale(0.102 -0.102)">
     <defs>
      <path d="M 11.71875 12.40625 
L 22.015625 12.40625 
L 22.015625 0 
L 11.71875 0 
z
M 11.71875 51.703125 
L 22.015625 51.703125 
L 22.015625 39.3125 
L 11.71875 39.3125 
z
" id="DejaVuSans-58"/>
     </defs>
     <use xlink:href="#DejaVuSans-52"/>
     <use x="63.623047" xlink:href="#DejaVuSans-49"/>
     <use x="127.246094" xlink:href="#DejaVuSans-32"/>
     <use x="159.033203" xlink:href="#DejaVuSans-116"/>
     <use x="198.242188" xlink:href="#DejaVuSans-97"/>
     <use x="259.521484" xlink:href="#DejaVuSans-114"/>
     <use x="298.884766" xlink:href="#DejaVuSans-103"/>
     <use x="362.361328" xlink:href="#DejaVuSans-101"/>
     <use x="423.884766" xlink:href="#DejaVuSans-116"/>
     <use x="463.09375" xlink:href="#DejaVuSans-115"/>
     <use x="515.193359" xlink:href="#DejaVuSans-58"/>
     <use x="548.884766" xlink:href="#DejaVuSans-32"/>
     <use x="580.671875" xlink:href="#DejaVuSans-49"/>
     <use x="644.294922" xlink:href="#DejaVuSans-48"/>
     <use x="707.917969" xlink:href="#DejaVuSans-48"/>
     <use x="771.541016" xlink:href="#DejaVuSans-46"/>
     <use x="803.328125" xlink:href="#DejaVuSans-46"/>
     <use x="835.115234" xlink:href="#DejaVuSans-49"/>
     <use x="898.738281" xlink:href="#DejaVuSans-101"/>
     <use x="960.261719" xlink:href="#DejaVuSans-45"/>
     <use x="996.345703" xlink:href="#DejaVuSans-48"/>
     <use x="1059.96875" xlink:href="#DejaVuSans-54"/>
    </g>
    <!-- 15 instances -->
    <g transform="translate(60.41088 37.004824)scale(0.102 -0.102)">
     <defs>
      <path d="M 10.796875 72.90625 
L 49.515625 72.90625 
L 49.515625 64.59375 
L 19.828125 64.59375 
L 19.828125 46.734375 
Q 21.96875 47.46875 24.109375 47.828125 
Q 26.265625 48.1875 28.421875 48.1875 
Q 40.625 48.1875 47.75 41.5 
Q 54.890625 34.8125 54.890625 23.390625 
Q 54.890625 11.625 47.5625 5.09375 
Q 40.234375 -1.421875 26.90625 -1.421875 
Q 22.3125 -1.421875 17.546875 -0.640625 
Q 12.796875 0.140625 7.71875 1.703125 
L 7.71875 11.625 
Q 12.109375 9.234375 16.796875 8.0625 
Q 21.484375 6.890625 26.703125 6.890625 
Q 35.15625 6.890625 40.078125 11.328125 
Q 45.015625 15.765625 45.015625 23.390625 
Q 45.015625 31 40.078125 35.4375 
Q 35.15625 39.890625 26.703125 39.890625 
Q 22.75 39.890625 18.8125 39.015625 
Q 14.890625 38.140625 10.796875 36.28125 
z
" id="DejaVuSans-53"/>
     </defs>
     <use xlink:href="#DejaVuSans-49"/>
     <use x="63.623047" xlink:href="#DejaVuSans-53"/>
     <use x="127.246094" xlink:href="#DejaVuSans-32"/>
     <use x="159.033203" xlink:href="#DejaVuSans-105"/>
     <use x="186.816406" xlink:href="#DejaVuSans-110"/>
     <use x="250.195312" xlink:href="#DejaVuSans-115"/>
     <use x="302.294922" xlink:href="#DejaVuSans-116"/>
     <use x="341.503906" xlink:href="#DejaVuSans-97"/>
     <use x="402.783203" xlink:href="#DejaVuSans-110"/>
     <use x="466.162109" xlink:href="#DejaVuSans-99"/>
     <use x="521.142578" xlink:href="#DejaVuSans-101"/>
     <use x="582.666016" xlink:href="#DejaVuSans-115"/>
    </g>
   </g>
   <g id="text_16">
    <!-- v5z33 -->
    <g style="fill:#808080;" transform="translate(183.016656 293.909432)scale(0.1 -0.1)">
     <defs>
      <path d="M 5.515625 54.6875 
L 48.1875 54.6875 
L 48.1875 46.484375 
L 14.40625 7.171875 
L 48.1875 7.171875 
L 48.1875 0 
L 4.296875 0 
L 4.296875 8.203125 
L 38.09375 47.515625 
L 5.515625 47.515625 
z
" id="DejaVuSans-122"/>
      <path d="M 40.578125 39.3125 
Q 47.65625 37.796875 51.625 33 
Q 55.609375 28.21875 55.609375 21.1875 
Q 55.609375 10.40625 48.1875 4.484375 
Q 40.765625 -1.421875 27.09375 -1.421875 
Q 22.515625 -1.421875 17.65625 -0.515625 
Q 12.796875 0.390625 7.625 2.203125 
L 7.625 11.71875 
Q 11.71875 9.328125 16.59375 8.109375 
Q 21.484375 6.890625 26.8125 6.890625 
Q 36.078125 6.890625 40.9375 10.546875 
Q 45.796875 14.203125 45.796875 21.1875 
Q 45.796875 27.640625 41.28125 31.265625 
Q 36.765625 34.90625 28.71875 34.90625 
L 20.21875 34.90625 
L 20.21875 43.015625 
L 29.109375 43.015625 
Q 36.375 43.015625 40.234375 45.921875 
Q 44.09375 48.828125 44.09375 54.296875 
Q 44.09375 59.90625 40.109375 62.90625 
Q 36.140625 65.921875 28.71875 65.921875 
Q 24.65625 65.921875 20.015625 65.03125 
Q 15.375 64.15625 9.8125 62.3125 
L 9.8125 71.09375 
Q 15.4375 72.65625 20.34375 73.4375 
Q 25.25 74.21875 29.59375 74.21875 
Q 40.828125 74.21875 47.359375 69.109375 
Q 53.90625 64.015625 53.90625 55.328125 
Q 53.90625 49.265625 50.4375 45.09375 
Q 46.96875 40.921875 40.578125 39.3125 
z
" id="DejaVuSans-51"/>
     </defs>
     <use xlink:href="#DejaVuSans-118"/>
     <use x="59.179688" xlink:href="#DejaVuSans-53"/>
     <use x="122.802734" xlink:href="#DejaVuSans-122"/>
     <use x="175.292969" xlink:href="#DejaVuSans-51"/>
     <use x="238.916016" xlink:href="#DejaVuSans-51"/>
    </g>
   </g>
  </g>
 </g>
 <defs>
  <clipPath id="pb218081110">
   <rect height="295.488" width="281.088" x="57.6" y="3.456"/>
  </clipPath>
 </defs>
</svg>
