<?xml version="1.0" encoding="utf-8" standalone="no"?>
<!DOCTYPE svg PUBLIC "-//W3C//DTD SVG 1.1//EN"
  "http://www.w3.org/Graphics/SVG/1.1/DTD/svg11.dtd">
<!-- Created with matplotlib (https://matplotlib.org/) -->
<svg height="352.887906pt" version="1.1" viewBox="0 0 340.624828 352.887906" width="340.624828pt" xmlns="http://www.w3.org/2000/svg" xmlns:xlink="http://www.w3.org/1999/xlink">
 <metadata>
  <rdf:RDF xmlns:cc="http://creativecommons.org/ns#" xmlns:dc="http://purl.org/dc/elements/1.1/" xmlns:rdf="http://www.w3.org/1999/02/22-rdf-syntax-ns#">
   <cc:Work>
    <dc:type rdf:resource="http://purl.org/dc/dcmitype/StillImage"/>
    <dc:date>2021-04-07T09:52:10.609258</dc:date>
    <dc:format>image/svg+xml</dc:format>
    <dc:creator>
     <cc:Agent>
      <dc:title>Matplotlib v3.3.3, https://matplotlib.org/</dc:title>
     </cc:Agent>
    </dc:creator>
   </cc:Work>
  </rdf:RDF>
 </metadata>
 <defs>
  <style type="text/css">*{stroke-linecap:butt;stroke-linejoin:round;}</style>
 </defs>
 <g id="figure_1">
  <g id="patch_1">
   <path d="M 0 352.887906 
L 340.624828 352.887906 
L 340.624828 -0 
L 0 -0 
z
" style="fill:#ffffff;"/>
  </g>
  <g id="axes_1">
   <g id="patch_2">
    <path d="M 45.941875 301.309469 
L 321.741875 301.309469 
L 321.741875 25.509469 
L 45.941875 25.509469 
z
" style="fill:#ffffff;"/>
   </g>
   <g id="line2d_1">
    <path clip-path="url(#p81bb4672fd)" d="M 164.56376 271.417818 
L 164.56376 181.325236 
" style="fill:none;stroke:#00bfbf;stroke-linecap:square;stroke-width:1.5;"/>
   </g>
   <g id="line2d_2">
    <path clip-path="url(#p81bb4672fd)" d="M 74.471178 181.325236 
L 164.56376 181.325236 
" style="fill:none;stroke:#00bfbf;stroke-linecap:square;stroke-width:1.5;"/>
   </g>
   <g id="line2d_3">
    <path clip-path="url(#p81bb4672fd)" d="M 178.91048 248.128825 
L 178.91048 158.036243 
" style="fill:none;stroke:#008000;stroke-linecap:square;stroke-width:1.5;"/>
   </g>
   <g id="line2d_4">
    <path clip-path="url(#p81bb4672fd)" d="M 88.817898 158.036243 
L 178.91048 158.036243 
" style="fill:none;stroke:#008000;stroke-linecap:square;stroke-width:1.5;"/>
   </g>
   <g id="line2d_5">
    <path clip-path="url(#p81bb4672fd)" d="M 244.232815 194.771702 
L 244.232815 104.67912 
" style="fill:none;stroke:#0000ff;stroke-linecap:square;stroke-width:1.5;"/>
   </g>
   <g id="line2d_6">
    <path clip-path="url(#p81bb4672fd)" d="M 154.140233 104.67912 
L 244.232815 104.67912 
" style="fill:none;stroke:#0000ff;stroke-linecap:square;stroke-width:1.5;"/>
   </g>
   <g id="line2d_7">
    <path clip-path="url(#p81bb4672fd)" d="M 308.26516 124.917201 
L 308.26516 34.824619 
" style="fill:none;stroke:#000000;stroke-linecap:square;stroke-width:1.5;"/>
   </g>
   <g id="line2d_8">
    <path clip-path="url(#p81bb4672fd)" d="M 218.172578 34.824619 
L 308.26516 34.824619 
" style="fill:none;stroke:#000000;stroke-linecap:square;stroke-width:1.5;"/>
   </g>
   <g id="line2d_9">
    <path clip-path="url(#p81bb4672fd)" style="fill:none;stroke:#ff0000;stroke-linecap:square;stroke-width:1.5;"/>
   </g>
   <g id="line2d_10">
    <path clip-path="url(#p81bb4672fd)" style="fill:none;stroke:#ff0000;stroke-linecap:square;stroke-width:1.5;"/>
   </g>
   <g id="matplotlib.axis_1">
    <g id="xtick_1">
     <g id="line2d_11">
      <path clip-path="url(#p81bb4672fd)" d="M 54.076228 301.309469 
L 54.076228 25.509469 
" style="fill:none;stroke:#b0b0b0;stroke-linecap:square;stroke-width:0.8;"/>
     </g>
     <g id="line2d_12">
      <defs>
       <path d="M 0 0 
L 0 3.5 
" id="mb36461b3da" style="stroke:#000000;stroke-width:0.8;"/>
      </defs>
      <g>
       <use style="stroke:#000000;stroke-width:0.8;" x="54.076228" xlink:href="#mb36461b3da" y="301.309469"/>
      </g>
     </g>
     <g id="text_1">
      <!-- 1 -->
      <g transform="translate(48.668103 321.226812)scale(0.17 -0.17)">
       <defs>
        <path d="M 12.40625 8.296875 
L 28.515625 8.296875 
L 28.515625 63.921875 
L 10.984375 60.40625 
L 10.984375 69.390625 
L 28.421875 72.90625 
L 38.28125 72.90625 
L 38.28125 8.296875 
L 54.390625 8.296875 
L 54.390625 0 
L 12.40625 0 
z
" id="DejaVuSans-49"/>
       </defs>
       <use xlink:href="#DejaVuSans-49"/>
      </g>
     </g>
    </g>
    <g id="xtick_2">
     <g id="line2d_13">
      <path clip-path="url(#p81bb4672fd)" d="M 148.488897 301.309469 
L 148.488897 25.509469 
" style="fill:none;stroke:#b0b0b0;stroke-linecap:square;stroke-width:0.8;"/>
     </g>
     <g id="line2d_14">
      <g>
       <use style="stroke:#000000;stroke-width:0.8;" x="148.488897" xlink:href="#mb36461b3da" y="301.309469"/>
      </g>
     </g>
     <g id="text_2">
      <!-- 2 -->
      <g transform="translate(143.080772 321.226812)scale(0.17 -0.17)">
       <defs>
        <path d="M 19.1875 8.296875 
L 53.609375 8.296875 
L 53.609375 0 
L 7.328125 0 
L 7.328125 8.296875 
Q 12.9375 14.109375 22.625 23.890625 
Q 32.328125 33.6875 34.8125 36.53125 
Q 39.546875 41.84375 41.421875 45.53125 
Q 43.3125 49.21875 43.3125 52.78125 
Q 43.3125 58.59375 39.234375 62.25 
Q 35.15625 65.921875 28.609375 65.921875 
Q 23.96875 65.921875 18.8125 64.3125 
Q 13.671875 62.703125 7.8125 59.421875 
L 7.8125 69.390625 
Q 13.765625 71.78125 18.9375 73 
Q 24.125 74.21875 28.421875 74.21875 
Q 39.75 74.21875 46.484375 68.546875 
Q 53.21875 62.890625 53.21875 53.421875 
Q 53.21875 48.921875 51.53125 44.890625 
Q 49.859375 40.875 45.40625 35.40625 
Q 44.1875 33.984375 37.640625 27.21875 
Q 31.109375 20.453125 19.1875 8.296875 
z
" id="DejaVuSans-50"/>
       </defs>
       <use xlink:href="#DejaVuSans-50"/>
      </g>
     </g>
    </g>
    <g id="xtick_3">
     <g id="line2d_15">
      <path clip-path="url(#p81bb4672fd)" d="M 242.901566 301.309469 
L 242.901566 25.509469 
" style="fill:none;stroke:#b0b0b0;stroke-linecap:square;stroke-width:0.8;"/>
     </g>
     <g id="line2d_16">
      <g>
       <use style="stroke:#000000;stroke-width:0.8;" x="242.901566" xlink:href="#mb36461b3da" y="301.309469"/>
      </g>
     </g>
     <g id="text_3">
      <!-- 3 -->
      <g transform="translate(237.493441 321.226812)scale(0.17 -0.17)">
       <defs>
        <path d="M 40.578125 39.3125 
Q 47.65625 37.796875 51.625 33 
Q 55.609375 28.21875 55.609375 21.1875 
Q 55.609375 10.40625 48.1875 4.484375 
Q 40.765625 -1.421875 27.09375 -1.421875 
Q 22.515625 -1.421875 17.65625 -0.515625 
Q 12.796875 0.390625 7.625 2.203125 
L 7.625 11.71875 
Q 11.71875 9.328125 16.59375 8.109375 
Q 21.484375 6.890625 26.8125 6.890625 
Q 36.078125 6.890625 40.9375 10.546875 
Q 45.796875 14.203125 45.796875 21.1875 
Q 45.796875 27.640625 41.28125 31.265625 
Q 36.765625 34.90625 28.71875 34.90625 
L 20.21875 34.90625 
L 20.21875 43.015625 
L 29.109375 43.015625 
Q 36.375 43.015625 40.234375 45.921875 
Q 44.09375 48.828125 44.09375 54.296875 
Q 44.09375 59.90625 40.109375 62.90625 
Q 36.140625 65.921875 28.71875 65.921875 
Q 24.65625 65.921875 20.015625 65.03125 
Q 15.375 64.15625 9.8125 62.3125 
L 9.8125 71.09375 
Q 15.4375 72.65625 20.34375 73.4375 
Q 25.25 74.21875 29.59375 74.21875 
Q 40.828125 74.21875 47.359375 69.109375 
Q 53.90625 64.015625 53.90625 55.328125 
Q 53.90625 49.265625 50.4375 45.09375 
Q 46.96875 40.921875 40.578125 39.3125 
z
" id="DejaVuSans-51"/>
       </defs>
       <use xlink:href="#DejaVuSans-51"/>
      </g>
     </g>
    </g>
    <g id="xtick_4">
     <g id="line2d_17">
      <defs>
       <path d="M 0 0 
L 0 2 
" id="meaf8835025" style="stroke:#000000;stroke-width:0.6;"/>
      </defs>
      <g>
       <use style="stroke:#000000;stroke-width:0.6;" x="49.756141" xlink:href="#meaf8835025" y="301.309469"/>
      </g>
     </g>
    </g>
    <g id="xtick_5">
     <g id="line2d_18">
      <g>
       <use style="stroke:#000000;stroke-width:0.6;" x="82.497273" xlink:href="#meaf8835025" y="301.309469"/>
      </g>
     </g>
    </g>
    <g id="xtick_6">
     <g id="line2d_19">
      <g>
       <use style="stroke:#000000;stroke-width:0.6;" x="99.122519" xlink:href="#meaf8835025" y="301.309469"/>
      </g>
     </g>
    </g>
    <g id="xtick_7">
     <g id="line2d_20">
      <g>
       <use style="stroke:#000000;stroke-width:0.6;" x="110.918319" xlink:href="#meaf8835025" y="301.309469"/>
      </g>
     </g>
    </g>
    <g id="xtick_8">
     <g id="line2d_21">
      <g>
       <use style="stroke:#000000;stroke-width:0.6;" x="120.067852" xlink:href="#meaf8835025" y="301.309469"/>
      </g>
     </g>
    </g>
    <g id="xtick_9">
     <g id="line2d_22">
      <g>
       <use style="stroke:#000000;stroke-width:0.6;" x="127.543564" xlink:href="#meaf8835025" y="301.309469"/>
      </g>
     </g>
    </g>
    <g id="xtick_10">
     <g id="line2d_23">
      <g>
       <use style="stroke:#000000;stroke-width:0.6;" x="133.864189" xlink:href="#meaf8835025" y="301.309469"/>
      </g>
     </g>
    </g>
    <g id="xtick_11">
     <g id="line2d_24">
      <g>
       <use style="stroke:#000000;stroke-width:0.6;" x="139.339364" xlink:href="#meaf8835025" y="301.309469"/>
      </g>
     </g>
    </g>
    <g id="xtick_12">
     <g id="line2d_25">
      <g>
       <use style="stroke:#000000;stroke-width:0.6;" x="144.16881" xlink:href="#meaf8835025" y="301.309469"/>
      </g>
     </g>
    </g>
    <g id="xtick_13">
     <g id="line2d_26">
      <g>
       <use style="stroke:#000000;stroke-width:0.6;" x="176.909942" xlink:href="#meaf8835025" y="301.309469"/>
      </g>
     </g>
    </g>
    <g id="xtick_14">
     <g id="line2d_27">
      <g>
       <use style="stroke:#000000;stroke-width:0.6;" x="193.535188" xlink:href="#meaf8835025" y="301.309469"/>
      </g>
     </g>
    </g>
    <g id="xtick_15">
     <g id="line2d_28">
      <g>
       <use style="stroke:#000000;stroke-width:0.6;" x="205.330987" xlink:href="#meaf8835025" y="301.309469"/>
      </g>
     </g>
    </g>
    <g id="xtick_16">
     <g id="line2d_29">
      <g>
       <use style="stroke:#000000;stroke-width:0.6;" x="214.48052" xlink:href="#meaf8835025" y="301.309469"/>
      </g>
     </g>
    </g>
    <g id="xtick_17">
     <g id="line2d_30">
      <g>
       <use style="stroke:#000000;stroke-width:0.6;" x="221.956233" xlink:href="#meaf8835025" y="301.309469"/>
      </g>
     </g>
    </g>
    <g id="xtick_18">
     <g id="line2d_31">
      <g>
       <use style="stroke:#000000;stroke-width:0.6;" x="228.276858" xlink:href="#meaf8835025" y="301.309469"/>
      </g>
     </g>
    </g>
    <g id="xtick_19">
     <g id="line2d_32">
      <g>
       <use style="stroke:#000000;stroke-width:0.6;" x="233.752033" xlink:href="#meaf8835025" y="301.309469"/>
      </g>
     </g>
    </g>
    <g id="xtick_20">
     <g id="line2d_33">
      <g>
       <use style="stroke:#000000;stroke-width:0.6;" x="238.581479" xlink:href="#meaf8835025" y="301.309469"/>
      </g>
     </g>
    </g>
    <g id="xtick_21">
     <g id="line2d_34">
      <g>
       <use style="stroke:#000000;stroke-width:0.6;" x="271.322611" xlink:href="#meaf8835025" y="301.309469"/>
      </g>
     </g>
    </g>
    <g id="xtick_22">
     <g id="line2d_35">
      <g>
       <use style="stroke:#000000;stroke-width:0.6;" x="287.947857" xlink:href="#meaf8835025" y="301.309469"/>
      </g>
     </g>
    </g>
    <g id="xtick_23">
     <g id="line2d_36">
      <g>
       <use style="stroke:#000000;stroke-width:0.6;" x="299.743656" xlink:href="#meaf8835025" y="301.309469"/>
      </g>
     </g>
    </g>
    <g id="xtick_24">
     <g id="line2d_37">
      <g>
       <use style="stroke:#000000;stroke-width:0.6;" x="308.893189" xlink:href="#meaf8835025" y="301.309469"/>
      </g>
     </g>
    </g>
    <g id="xtick_25">
     <g id="line2d_38">
      <g>
       <use style="stroke:#000000;stroke-width:0.6;" x="316.368902" xlink:href="#meaf8835025" y="301.309469"/>
      </g>
     </g>
    </g>
    <g id="text_4">
     <!-- log10(ERT of sqp_fmincon_on_bbo) -->
     <g transform="translate(35.152969 341.679625)scale(0.17 -0.17)">
      <defs>
       <path d="M 9.421875 75.984375 
L 18.40625 75.984375 
L 18.40625 0 
L 9.421875 0 
z
" id="DejaVuSans-108"/>
       <path d="M 30.609375 48.390625 
Q 23.390625 48.390625 19.1875 42.75 
Q 14.984375 37.109375 14.984375 27.296875 
Q 14.984375 17.484375 19.15625 11.84375 
Q 23.34375 6.203125 30.609375 6.203125 
Q 37.796875 6.203125 41.984375 11.859375 
Q 46.1875 17.53125 46.1875 27.296875 
Q 46.1875 37.015625 41.984375 42.703125 
Q 37.796875 48.390625 30.609375 48.390625 
z
M 30.609375 56 
Q 42.328125 56 49.015625 48.375 
Q 55.71875 40.765625 55.71875 27.296875 
Q 55.71875 13.875 49.015625 6.21875 
Q 42.328125 -1.421875 30.609375 -1.421875 
Q 18.84375 -1.421875 12.171875 6.21875 
Q 5.515625 13.875 5.515625 27.296875 
Q 5.515625 40.765625 12.171875 48.375 
Q 18.84375 56 30.609375 56 
z
" id="DejaVuSans-111"/>
       <path d="M 45.40625 27.984375 
Q 45.40625 37.75 41.375 43.109375 
Q 37.359375 48.484375 30.078125 48.484375 
Q 22.859375 48.484375 18.828125 43.109375 
Q 14.796875 37.75 14.796875 27.984375 
Q 14.796875 18.265625 18.828125 12.890625 
Q 22.859375 7.515625 30.078125 7.515625 
Q 37.359375 7.515625 41.375 12.890625 
Q 45.40625 18.265625 45.40625 27.984375 
z
M 54.390625 6.78125 
Q 54.390625 -7.171875 48.1875 -13.984375 
Q 42 -20.796875 29.203125 -20.796875 
Q 24.46875 -20.796875 20.265625 -20.09375 
Q 16.0625 -19.390625 12.109375 -17.921875 
L 12.109375 -9.1875 
Q 16.0625 -11.328125 19.921875 -12.34375 
Q 23.78125 -13.375 27.78125 -13.375 
Q 36.625 -13.375 41.015625 -8.765625 
Q 45.40625 -4.15625 45.40625 5.171875 
L 45.40625 9.625 
Q 42.625 4.78125 38.28125 2.390625 
Q 33.9375 0 27.875 0 
Q 17.828125 0 11.671875 7.65625 
Q 5.515625 15.328125 5.515625 27.984375 
Q 5.515625 40.671875 11.671875 48.328125 
Q 17.828125 56 27.875 56 
Q 33.9375 56 38.28125 53.609375 
Q 42.625 51.21875 45.40625 46.390625 
L 45.40625 54.6875 
L 54.390625 54.6875 
z
" id="DejaVuSans-103"/>
       <path d="M 31.78125 66.40625 
Q 24.171875 66.40625 20.328125 58.90625 
Q 16.5 51.421875 16.5 36.375 
Q 16.5 21.390625 20.328125 13.890625 
Q 24.171875 6.390625 31.78125 6.390625 
Q 39.453125 6.390625 43.28125 13.890625 
Q 47.125 21.390625 47.125 36.375 
Q 47.125 51.421875 43.28125 58.90625 
Q 39.453125 66.40625 31.78125 66.40625 
z
M 31.78125 74.21875 
Q 44.046875 74.21875 50.515625 64.515625 
Q 56.984375 54.828125 56.984375 36.375 
Q 56.984375 17.96875 50.515625 8.265625 
Q 44.046875 -1.421875 31.78125 -1.421875 
Q 19.53125 -1.421875 13.0625 8.265625 
Q 6.59375 17.96875 6.59375 36.375 
Q 6.59375 54.828125 13.0625 64.515625 
Q 19.53125 74.21875 31.78125 74.21875 
z
" id="DejaVuSans-48"/>
       <path d="M 31 75.875 
Q 24.46875 64.65625 21.28125 53.65625 
Q 18.109375 42.671875 18.109375 31.390625 
Q 18.109375 20.125 21.3125 9.0625 
Q 24.515625 -2 31 -13.1875 
L 23.1875 -13.1875 
Q 15.875 -1.703125 12.234375 9.375 
Q 8.59375 20.453125 8.59375 31.390625 
Q 8.59375 42.28125 12.203125 53.3125 
Q 15.828125 64.359375 23.1875 75.875 
z
" id="DejaVuSans-40"/>
       <path d="M 9.8125 72.90625 
L 55.90625 72.90625 
L 55.90625 64.59375 
L 19.671875 64.59375 
L 19.671875 43.015625 
L 54.390625 43.015625 
L 54.390625 34.71875 
L 19.671875 34.71875 
L 19.671875 8.296875 
L 56.78125 8.296875 
L 56.78125 0 
L 9.8125 0 
z
" id="DejaVuSans-69"/>
       <path d="M 44.390625 34.1875 
Q 47.5625 33.109375 50.5625 29.59375 
Q 53.5625 26.078125 56.59375 19.921875 
L 66.609375 0 
L 56 0 
L 46.6875 18.703125 
Q 43.0625 26.03125 39.671875 28.421875 
Q 36.28125 30.8125 30.421875 30.8125 
L 19.671875 30.8125 
L 19.671875 0 
L 9.8125 0 
L 9.8125 72.90625 
L 32.078125 72.90625 
Q 44.578125 72.90625 50.734375 67.671875 
Q 56.890625 62.453125 56.890625 51.90625 
Q 56.890625 45.015625 53.6875 40.46875 
Q 50.484375 35.9375 44.390625 34.1875 
z
M 19.671875 64.796875 
L 19.671875 38.921875 
L 32.078125 38.921875 
Q 39.203125 38.921875 42.84375 42.21875 
Q 46.484375 45.515625 46.484375 51.90625 
Q 46.484375 58.296875 42.84375 61.546875 
Q 39.203125 64.796875 32.078125 64.796875 
z
" id="DejaVuSans-82"/>
       <path d="M -0.296875 72.90625 
L 61.375 72.90625 
L 61.375 64.59375 
L 35.5 64.59375 
L 35.5 0 
L 25.59375 0 
L 25.59375 64.59375 
L -0.296875 64.59375 
z
" id="DejaVuSans-84"/>
       <path id="DejaVuSans-32"/>
       <path d="M 37.109375 75.984375 
L 37.109375 68.5 
L 28.515625 68.5 
Q 23.6875 68.5 21.796875 66.546875 
Q 19.921875 64.59375 19.921875 59.515625 
L 19.921875 54.6875 
L 34.71875 54.6875 
L 34.71875 47.703125 
L 19.921875 47.703125 
L 19.921875 0 
L 10.890625 0 
L 10.890625 47.703125 
L 2.296875 47.703125 
L 2.296875 54.6875 
L 10.890625 54.6875 
L 10.890625 58.5 
Q 10.890625 67.625 15.140625 71.796875 
Q 19.390625 75.984375 28.609375 75.984375 
z
" id="DejaVuSans-102"/>
       <path d="M 44.28125 53.078125 
L 44.28125 44.578125 
Q 40.484375 46.53125 36.375 47.5 
Q 32.28125 48.484375 27.875 48.484375 
Q 21.1875 48.484375 17.84375 46.4375 
Q 14.5 44.390625 14.5 40.28125 
Q 14.5 37.15625 16.890625 35.375 
Q 19.28125 33.59375 26.515625 31.984375 
L 29.59375 31.296875 
Q 39.15625 29.25 43.1875 25.515625 
Q 47.21875 21.78125 47.21875 15.09375 
Q 47.21875 7.46875 41.1875 3.015625 
Q 35.15625 -1.421875 24.609375 -1.421875 
Q 20.21875 -1.421875 15.453125 -0.5625 
Q 10.6875 0.296875 5.421875 2 
L 5.421875 11.28125 
Q 10.40625 8.6875 15.234375 7.390625 
Q 20.0625 6.109375 24.8125 6.109375 
Q 31.15625 6.109375 34.5625 8.28125 
Q 37.984375 10.453125 37.984375 14.40625 
Q 37.984375 18.0625 35.515625 20.015625 
Q 33.0625 21.96875 24.703125 23.78125 
L 21.578125 24.515625 
Q 13.234375 26.265625 9.515625 29.90625 
Q 5.8125 33.546875 5.8125 39.890625 
Q 5.8125 47.609375 11.28125 51.796875 
Q 16.75 56 26.8125 56 
Q 31.78125 56 36.171875 55.265625 
Q 40.578125 54.546875 44.28125 53.078125 
z
" id="DejaVuSans-115"/>
       <path d="M 14.796875 27.296875 
Q 14.796875 17.390625 18.875 11.75 
Q 22.953125 6.109375 30.078125 6.109375 
Q 37.203125 6.109375 41.296875 11.75 
Q 45.40625 17.390625 45.40625 27.296875 
Q 45.40625 37.203125 41.296875 42.84375 
Q 37.203125 48.484375 30.078125 48.484375 
Q 22.953125 48.484375 18.875 42.84375 
Q 14.796875 37.203125 14.796875 27.296875 
z
M 45.40625 8.203125 
Q 42.578125 3.328125 38.25 0.953125 
Q 33.9375 -1.421875 27.875 -1.421875 
Q 17.96875 -1.421875 11.734375 6.484375 
Q 5.515625 14.40625 5.515625 27.296875 
Q 5.515625 40.1875 11.734375 48.09375 
Q 17.96875 56 27.875 56 
Q 33.9375 56 38.25 53.625 
Q 42.578125 51.265625 45.40625 46.390625 
L 45.40625 54.6875 
L 54.390625 54.6875 
L 54.390625 -20.796875 
L 45.40625 -20.796875 
z
" id="DejaVuSans-113"/>
       <path d="M 18.109375 8.203125 
L 18.109375 -20.796875 
L 9.078125 -20.796875 
L 9.078125 54.6875 
L 18.109375 54.6875 
L 18.109375 46.390625 
Q 20.953125 51.265625 25.265625 53.625 
Q 29.59375 56 35.59375 56 
Q 45.5625 56 51.78125 48.09375 
Q 58.015625 40.1875 58.015625 27.296875 
Q 58.015625 14.40625 51.78125 6.484375 
Q 45.5625 -1.421875 35.59375 -1.421875 
Q 29.59375 -1.421875 25.265625 0.953125 
Q 20.953125 3.328125 18.109375 8.203125 
z
M 48.6875 27.296875 
Q 48.6875 37.203125 44.609375 42.84375 
Q 40.53125 48.484375 33.40625 48.484375 
Q 26.265625 48.484375 22.1875 42.84375 
Q 18.109375 37.203125 18.109375 27.296875 
Q 18.109375 17.390625 22.1875 11.75 
Q 26.265625 6.109375 33.40625 6.109375 
Q 40.53125 6.109375 44.609375 11.75 
Q 48.6875 17.390625 48.6875 27.296875 
z
" id="DejaVuSans-112"/>
       <path d="M 50.984375 -16.609375 
L 50.984375 -23.578125 
L -0.984375 -23.578125 
L -0.984375 -16.609375 
z
" id="DejaVuSans-95"/>
       <path d="M 52 44.1875 
Q 55.375 50.25 60.0625 53.125 
Q 64.75 56 71.09375 56 
Q 79.640625 56 84.28125 50.015625 
Q 88.921875 44.046875 88.921875 33.015625 
L 88.921875 0 
L 79.890625 0 
L 79.890625 32.71875 
Q 79.890625 40.578125 77.09375 44.375 
Q 74.3125 48.1875 68.609375 48.1875 
Q 61.625 48.1875 57.5625 43.546875 
Q 53.515625 38.921875 53.515625 30.90625 
L 53.515625 0 
L 44.484375 0 
L 44.484375 32.71875 
Q 44.484375 40.625 41.703125 44.40625 
Q 38.921875 48.1875 33.109375 48.1875 
Q 26.21875 48.1875 22.15625 43.53125 
Q 18.109375 38.875 18.109375 30.90625 
L 18.109375 0 
L 9.078125 0 
L 9.078125 54.6875 
L 18.109375 54.6875 
L 18.109375 46.1875 
Q 21.1875 51.21875 25.484375 53.609375 
Q 29.78125 56 35.6875 56 
Q 41.65625 56 45.828125 52.96875 
Q 50 49.953125 52 44.1875 
z
" id="DejaVuSans-109"/>
       <path d="M 9.421875 54.6875 
L 18.40625 54.6875 
L 18.40625 0 
L 9.421875 0 
z
M 9.421875 75.984375 
L 18.40625 75.984375 
L 18.40625 64.59375 
L 9.421875 64.59375 
z
" id="DejaVuSans-105"/>
       <path d="M 54.890625 33.015625 
L 54.890625 0 
L 45.90625 0 
L 45.90625 32.71875 
Q 45.90625 40.484375 42.875 44.328125 
Q 39.84375 48.1875 33.796875 48.1875 
Q 26.515625 48.1875 22.3125 43.546875 
Q 18.109375 38.921875 18.109375 30.90625 
L 18.109375 0 
L 9.078125 0 
L 9.078125 54.6875 
L 18.109375 54.6875 
L 18.109375 46.1875 
Q 21.34375 51.125 25.703125 53.5625 
Q 30.078125 56 35.796875 56 
Q 45.21875 56 50.046875 50.171875 
Q 54.890625 44.34375 54.890625 33.015625 
z
" id="DejaVuSans-110"/>
       <path d="M 48.78125 52.59375 
L 48.78125 44.1875 
Q 44.96875 46.296875 41.140625 47.34375 
Q 37.3125 48.390625 33.40625 48.390625 
Q 24.65625 48.390625 19.8125 42.84375 
Q 14.984375 37.3125 14.984375 27.296875 
Q 14.984375 17.28125 19.8125 11.734375 
Q 24.65625 6.203125 33.40625 6.203125 
Q 37.3125 6.203125 41.140625 7.25 
Q 44.96875 8.296875 48.78125 10.40625 
L 48.78125 2.09375 
Q 45.015625 0.34375 40.984375 -0.53125 
Q 36.96875 -1.421875 32.421875 -1.421875 
Q 20.0625 -1.421875 12.78125 6.34375 
Q 5.515625 14.109375 5.515625 27.296875 
Q 5.515625 40.671875 12.859375 48.328125 
Q 20.21875 56 33.015625 56 
Q 37.15625 56 41.109375 55.140625 
Q 45.0625 54.296875 48.78125 52.59375 
z
" id="DejaVuSans-99"/>
       <path d="M 48.6875 27.296875 
Q 48.6875 37.203125 44.609375 42.84375 
Q 40.53125 48.484375 33.40625 48.484375 
Q 26.265625 48.484375 22.1875 42.84375 
Q 18.109375 37.203125 18.109375 27.296875 
Q 18.109375 17.390625 22.1875 11.75 
Q 26.265625 6.109375 33.40625 6.109375 
Q 40.53125 6.109375 44.609375 11.75 
Q 48.6875 17.390625 48.6875 27.296875 
z
M 18.109375 46.390625 
Q 20.953125 51.265625 25.265625 53.625 
Q 29.59375 56 35.59375 56 
Q 45.5625 56 51.78125 48.09375 
Q 58.015625 40.1875 58.015625 27.296875 
Q 58.015625 14.40625 51.78125 6.484375 
Q 45.5625 -1.421875 35.59375 -1.421875 
Q 29.59375 -1.421875 25.265625 0.953125 
Q 20.953125 3.328125 18.109375 8.203125 
L 18.109375 0 
L 9.078125 0 
L 9.078125 75.984375 
L 18.109375 75.984375 
z
" id="DejaVuSans-98"/>
       <path d="M 8.015625 75.875 
L 15.828125 75.875 
Q 23.140625 64.359375 26.78125 53.3125 
Q 30.421875 42.28125 30.421875 31.390625 
Q 30.421875 20.453125 26.78125 9.375 
Q 23.140625 -1.703125 15.828125 -13.1875 
L 8.015625 -13.1875 
Q 14.5 -2 17.703125 9.0625 
Q 20.90625 20.125 20.90625 31.390625 
Q 20.90625 42.671875 17.703125 53.65625 
Q 14.5 64.65625 8.015625 75.875 
z
" id="DejaVuSans-41"/>
      </defs>
      <use xlink:href="#DejaVuSans-108"/>
      <use x="27.783203" xlink:href="#DejaVuSans-111"/>
      <use x="88.964844" xlink:href="#DejaVuSans-103"/>
      <use x="152.441406" xlink:href="#DejaVuSans-49"/>
      <use x="216.064453" xlink:href="#DejaVuSans-48"/>
      <use x="279.6875" xlink:href="#DejaVuSans-40"/>
      <use x="318.701172" xlink:href="#DejaVuSans-69"/>
      <use x="381.884766" xlink:href="#DejaVuSans-82"/>
      <use x="444.117188" xlink:href="#DejaVuSans-84"/>
      <use x="505.201172" xlink:href="#DejaVuSans-32"/>
      <use x="536.988281" xlink:href="#DejaVuSans-111"/>
      <use x="598.169922" xlink:href="#DejaVuSans-102"/>
      <use x="633.375" xlink:href="#DejaVuSans-32"/>
      <use x="665.162109" xlink:href="#DejaVuSans-115"/>
      <use x="717.261719" xlink:href="#DejaVuSans-113"/>
      <use x="780.738281" xlink:href="#DejaVuSans-112"/>
      <use x="844.214844" xlink:href="#DejaVuSans-95"/>
      <use x="894.214844" xlink:href="#DejaVuSans-102"/>
      <use x="929.419922" xlink:href="#DejaVuSans-109"/>
      <use x="1026.832031" xlink:href="#DejaVuSans-105"/>
      <use x="1054.615234" xlink:href="#DejaVuSans-110"/>
      <use x="1117.994141" xlink:href="#DejaVuSans-99"/>
      <use x="1172.974609" xlink:href="#DejaVuSans-111"/>
      <use x="1234.15625" xlink:href="#DejaVuSans-110"/>
      <use x="1297.535156" xlink:href="#DejaVuSans-95"/>
      <use x="1347.535156" xlink:href="#DejaVuSans-111"/>
      <use x="1408.716797" xlink:href="#DejaVuSans-110"/>
      <use x="1472.095703" xlink:href="#DejaVuSans-95"/>
      <use x="1522.095703" xlink:href="#DejaVuSans-98"/>
      <use x="1585.572266" xlink:href="#DejaVuSans-98"/>
      <use x="1649.048828" xlink:href="#DejaVuSans-111"/>
      <use x="1710.230469" xlink:href="#DejaVuSans-41"/>
     </g>
    </g>
   </g>
   <g id="matplotlib.axis_2">
    <g id="ytick_1">
     <g id="line2d_39">
      <path clip-path="url(#p81bb4672fd)" d="M 45.941875 293.175116 
L 321.741875 293.175116 
" style="fill:none;stroke:#b0b0b0;stroke-linecap:square;stroke-width:0.8;"/>
     </g>
     <g id="line2d_40">
      <defs>
       <path d="M 0 0 
L -3.5 0 
" id="me17cfab026" style="stroke:#000000;stroke-width:0.8;"/>
      </defs>
      <g>
       <use style="stroke:#000000;stroke-width:0.8;" x="45.941875" xlink:href="#me17cfab026" y="293.175116"/>
      </g>
     </g>
     <g id="text_5">
      <!-- 1 -->
      <g transform="translate(28.125625 299.633788)scale(0.17 -0.17)">
       <use xlink:href="#DejaVuSans-49"/>
      </g>
     </g>
    </g>
    <g id="ytick_2">
     <g id="line2d_41">
      <path clip-path="url(#p81bb4672fd)" d="M 45.941875 198.762447 
L 321.741875 198.762447 
" style="fill:none;stroke:#b0b0b0;stroke-linecap:square;stroke-width:0.8;"/>
     </g>
     <g id="line2d_42">
      <g>
       <use style="stroke:#000000;stroke-width:0.8;" x="45.941875" xlink:href="#me17cfab026" y="198.762447"/>
      </g>
     </g>
     <g id="text_6">
      <!-- 2 -->
      <g transform="translate(28.125625 205.221119)scale(0.17 -0.17)">
       <use xlink:href="#DejaVuSans-50"/>
      </g>
     </g>
    </g>
    <g id="ytick_3">
     <g id="line2d_43">
      <path clip-path="url(#p81bb4672fd)" d="M 45.941875 104.349778 
L 321.741875 104.349778 
" style="fill:none;stroke:#b0b0b0;stroke-linecap:square;stroke-width:0.8;"/>
     </g>
     <g id="line2d_44">
      <g>
       <use style="stroke:#000000;stroke-width:0.8;" x="45.941875" xlink:href="#me17cfab026" y="104.349778"/>
      </g>
     </g>
     <g id="text_7">
      <!-- 3 -->
      <g transform="translate(28.125625 110.80845)scale(0.17 -0.17)">
       <use xlink:href="#DejaVuSans-51"/>
      </g>
     </g>
    </g>
    <g id="ytick_4">
     <g id="line2d_45">
      <defs>
       <path d="M 0 0 
L -2 0 
" id="m534f51405c" style="stroke:#000000;stroke-width:0.6;"/>
      </defs>
      <g>
       <use style="stroke:#000000;stroke-width:0.6;" x="45.941875" xlink:href="#m534f51405c" y="297.495203"/>
      </g>
     </g>
    </g>
    <g id="ytick_5">
     <g id="line2d_46">
      <g>
       <use style="stroke:#000000;stroke-width:0.6;" x="45.941875" xlink:href="#m534f51405c" y="264.754071"/>
      </g>
     </g>
    </g>
    <g id="ytick_6">
     <g id="line2d_47">
      <g>
       <use style="stroke:#000000;stroke-width:0.6;" x="45.941875" xlink:href="#m534f51405c" y="248.128825"/>
      </g>
     </g>
    </g>
    <g id="ytick_7">
     <g id="line2d_48">
      <g>
       <use style="stroke:#000000;stroke-width:0.6;" x="45.941875" xlink:href="#m534f51405c" y="236.333025"/>
      </g>
     </g>
    </g>
    <g id="ytick_8">
     <g id="line2d_49">
      <g>
       <use style="stroke:#000000;stroke-width:0.6;" x="45.941875" xlink:href="#m534f51405c" y="227.183492"/>
      </g>
     </g>
    </g>
    <g id="ytick_9">
     <g id="line2d_50">
      <g>
       <use style="stroke:#000000;stroke-width:0.6;" x="45.941875" xlink:href="#m534f51405c" y="219.707779"/>
      </g>
     </g>
    </g>
    <g id="ytick_10">
     <g id="line2d_51">
      <g>
       <use style="stroke:#000000;stroke-width:0.6;" x="45.941875" xlink:href="#m534f51405c" y="213.387154"/>
      </g>
     </g>
    </g>
    <g id="ytick_11">
     <g id="line2d_52">
      <g>
       <use style="stroke:#000000;stroke-width:0.6;" x="45.941875" xlink:href="#m534f51405c" y="207.91198"/>
      </g>
     </g>
    </g>
    <g id="ytick_12">
     <g id="line2d_53">
      <g>
       <use style="stroke:#000000;stroke-width:0.6;" x="45.941875" xlink:href="#m534f51405c" y="203.082534"/>
      </g>
     </g>
    </g>
    <g id="ytick_13">
     <g id="line2d_54">
      <g>
       <use style="stroke:#000000;stroke-width:0.6;" x="45.941875" xlink:href="#m534f51405c" y="170.341402"/>
      </g>
     </g>
    </g>
    <g id="ytick_14">
     <g id="line2d_55">
      <g>
       <use style="stroke:#000000;stroke-width:0.6;" x="45.941875" xlink:href="#m534f51405c" y="153.716156"/>
      </g>
     </g>
    </g>
    <g id="ytick_15">
     <g id="line2d_56">
      <g>
       <use style="stroke:#000000;stroke-width:0.6;" x="45.941875" xlink:href="#m534f51405c" y="141.920356"/>
      </g>
     </g>
    </g>
    <g id="ytick_16">
     <g id="line2d_57">
      <g>
       <use style="stroke:#000000;stroke-width:0.6;" x="45.941875" xlink:href="#m534f51405c" y="132.770823"/>
      </g>
     </g>
    </g>
    <g id="ytick_17">
     <g id="line2d_58">
      <g>
       <use style="stroke:#000000;stroke-width:0.6;" x="45.941875" xlink:href="#m534f51405c" y="125.295111"/>
      </g>
     </g>
    </g>
    <g id="ytick_18">
     <g id="line2d_59">
      <g>
       <use style="stroke:#000000;stroke-width:0.6;" x="45.941875" xlink:href="#m534f51405c" y="118.974485"/>
      </g>
     </g>
    </g>
    <g id="ytick_19">
     <g id="line2d_60">
      <g>
       <use style="stroke:#000000;stroke-width:0.6;" x="45.941875" xlink:href="#m534f51405c" y="113.499311"/>
      </g>
     </g>
    </g>
    <g id="ytick_20">
     <g id="line2d_61">
      <g>
       <use style="stroke:#000000;stroke-width:0.6;" x="45.941875" xlink:href="#m534f51405c" y="108.669865"/>
      </g>
     </g>
    </g>
    <g id="ytick_21">
     <g id="line2d_62">
      <g>
       <use style="stroke:#000000;stroke-width:0.6;" x="45.941875" xlink:href="#m534f51405c" y="75.928733"/>
      </g>
     </g>
    </g>
    <g id="ytick_22">
     <g id="line2d_63">
      <g>
       <use style="stroke:#000000;stroke-width:0.6;" x="45.941875" xlink:href="#m534f51405c" y="59.303487"/>
      </g>
     </g>
    </g>
    <g id="ytick_23">
     <g id="line2d_64">
      <g>
       <use style="stroke:#000000;stroke-width:0.6;" x="45.941875" xlink:href="#m534f51405c" y="47.507687"/>
      </g>
     </g>
    </g>
    <g id="ytick_24">
     <g id="line2d_65">
      <g>
       <use style="stroke:#000000;stroke-width:0.6;" x="45.941875" xlink:href="#m534f51405c" y="38.358154"/>
      </g>
     </g>
    </g>
    <g id="ytick_25">
     <g id="line2d_66">
      <g>
       <use style="stroke:#000000;stroke-width:0.6;" x="45.941875" xlink:href="#m534f51405c" y="30.882442"/>
      </g>
     </g>
    </g>
    <g id="text_8">
     <!-- log10(ERT of sqp_fmincon_on_bbo) -->
     <g transform="translate(20.117344 312.098375)rotate(-90)scale(0.17 -0.17)">
      <use xlink:href="#DejaVuSans-108"/>
      <use x="27.783203" xlink:href="#DejaVuSans-111"/>
      <use x="88.964844" xlink:href="#DejaVuSans-103"/>
      <use x="152.441406" xlink:href="#DejaVuSans-49"/>
      <use x="216.064453" xlink:href="#DejaVuSans-48"/>
      <use x="279.6875" xlink:href="#DejaVuSans-40"/>
      <use x="318.701172" xlink:href="#DejaVuSans-69"/>
      <use x="381.884766" xlink:href="#DejaVuSans-82"/>
      <use x="444.117188" xlink:href="#DejaVuSans-84"/>
      <use x="505.201172" xlink:href="#DejaVuSans-32"/>
      <use x="536.988281" xlink:href="#DejaVuSans-111"/>
      <use x="598.169922" xlink:href="#DejaVuSans-102"/>
      <use x="633.375" xlink:href="#DejaVuSans-32"/>
      <use x="665.162109" xlink:href="#DejaVuSans-115"/>
      <use x="717.261719" xlink:href="#DejaVuSans-113"/>
      <use x="780.738281" xlink:href="#DejaVuSans-112"/>
      <use x="844.214844" xlink:href="#DejaVuSans-95"/>
      <use x="894.214844" xlink:href="#DejaVuSans-102"/>
      <use x="929.419922" xlink:href="#DejaVuSans-109"/>
      <use x="1026.832031" xlink:href="#DejaVuSans-105"/>
      <use x="1054.615234" xlink:href="#DejaVuSans-110"/>
      <use x="1117.994141" xlink:href="#DejaVuSans-99"/>
      <use x="1172.974609" xlink:href="#DejaVuSans-111"/>
      <use x="1234.15625" xlink:href="#DejaVuSans-110"/>
      <use x="1297.535156" xlink:href="#DejaVuSans-95"/>
      <use x="1347.535156" xlink:href="#DejaVuSans-111"/>
      <use x="1408.716797" xlink:href="#DejaVuSans-110"/>
      <use x="1472.095703" xlink:href="#DejaVuSans-95"/>
      <use x="1522.095703" xlink:href="#DejaVuSans-98"/>
      <use x="1585.572266" xlink:href="#DejaVuSans-98"/>
      <use x="1649.048828" xlink:href="#DejaVuSans-111"/>
      <use x="1710.230469" xlink:href="#DejaVuSans-41"/>
     </g>
    </g>
   </g>
   <g id="line2d_67">
    <defs>
     <path d="M -7 0 
L 7 0 
M 0 7 
L 0 -7 
" id="m30ecc293f1" style="stroke:#00bfbf;stroke-width:3;"/>
    </defs>
    <g>
     <use style="fill-opacity:0;stroke:#00bfbf;stroke-width:3;" x="123.626458" xlink:href="#m30ecc293f1" y="219.753364"/>
     <use style="fill-opacity:0;stroke:#00bfbf;stroke-width:3;" x="58.478239" xlink:href="#m30ecc293f1" y="263.808327"/>
     <use style="fill-opacity:0;stroke:#00bfbf;stroke-width:3;" x="61.551941" xlink:href="#m30ecc293f1" y="260.598324"/>
     <use style="fill-opacity:0;stroke:#00bfbf;stroke-width:3;" x="62.896419" xlink:href="#m30ecc293f1" y="258.433445"/>
     <use style="fill-opacity:0;stroke:#00bfbf;stroke-width:3;" x="65.459935" xlink:href="#m30ecc293f1" y="257.051194"/>
     <use style="fill-opacity:0;stroke:#00bfbf;stroke-width:3;" x="74.360209" xlink:href="#m30ecc293f1" y="252.550279"/>
     <use style="fill-opacity:0;stroke:#00bfbf;stroke-width:3;" x="86.405267" xlink:href="#m30ecc293f1" y="247.946993"/>
     <use style="fill-opacity:0;stroke:#00bfbf;stroke-width:3;" x="94.087544" xlink:href="#m30ecc293f1" y="241.419544"/>
     <use style="fill-opacity:0;stroke:#00bfbf;stroke-width:3;" x="98.387021" xlink:href="#m30ecc293f1" y="239.60362"/>
     <use style="fill-opacity:0;stroke:#00bfbf;stroke-width:3;" x="103.113263" xlink:href="#m30ecc293f1" y="234.593653"/>
     <use style="fill-opacity:0;stroke:#00bfbf;stroke-width:3;" x="106.446087" xlink:href="#m30ecc293f1" y="229.778765"/>
     <use style="fill-opacity:0;stroke:#00bfbf;stroke-width:3;" x="110.781414" xlink:href="#m30ecc293f1" y="226.104406"/>
     <use style="fill-opacity:0;stroke:#00bfbf;stroke-width:3;" x="111.997405" xlink:href="#m30ecc293f1" y="224.845906"/>
     <use style="fill-opacity:0;stroke:#00bfbf;stroke-width:3;" x="113.564585" xlink:href="#m30ecc293f1" y="224.230851"/>
     <use style="fill-opacity:0;stroke:#00bfbf;stroke-width:3;" x="115.808465" xlink:href="#m30ecc293f1" y="222.439177"/>
     <use style="fill-opacity:0;stroke:#00bfbf;stroke-width:3;" x="126.059134" xlink:href="#m30ecc293f1" y="213.543654"/>
     <use style="fill-opacity:0;stroke:#00bfbf;stroke-width:3;" x="133.313807" xlink:href="#m30ecc293f1" y="210.376415"/>
     <use style="fill-opacity:0;stroke:#00bfbf;stroke-width:3;" x="140.881764" xlink:href="#m30ecc293f1" y="200.722003"/>
     <use style="fill-opacity:0;stroke:#00bfbf;stroke-width:3;" x="145.639064" xlink:href="#m30ecc293f1" y="197.896918"/>
     <use style="fill-opacity:0;stroke:#00bfbf;stroke-width:3;" x="158.876957" xlink:href="#m30ecc293f1" y="193.184893"/>
    </g>
   </g>
   <g id="line2d_68">
    <defs>
     <path d="M -4 0 
L 4 0 
M 0 4 
L 0 -4 
" id="mb19ed341ab" style="stroke:#00bfbf;"/>
    </defs>
    <g>
     <use style="fill-opacity:0;stroke:#00bfbf;" x="159.664993" xlink:href="#mb19ed341ab" y="179.630956"/>
     <use style="fill-opacity:0;stroke:#00bfbf;" x="159.664993" xlink:href="#mb19ed341ab" y="179.630956"/>
    </g>
   </g>
   <g id="line2d_69">
    <defs>
     <path d="M -0 7 
L 7 -7 
L -7 -7 
z
" id="m783df6eb66" style="stroke:#008000;stroke-linejoin:miter;stroke-width:3;"/>
    </defs>
    <g>
     <use style="fill-opacity:0;stroke:#008000;stroke-linejoin:miter;stroke-width:3;" x="142.935547" xlink:href="#m783df6eb66" y="200.350933"/>
     <use style="fill-opacity:0;stroke:#008000;stroke-linejoin:miter;stroke-width:3;" x="92.405138" xlink:href="#m783df6eb66" y="236.196576"/>
     <use style="fill-opacity:0;stroke:#008000;stroke-linejoin:miter;stroke-width:3;" x="96.4884" xlink:href="#m783df6eb66" y="233.558824"/>
     <use style="fill-opacity:0;stroke:#008000;stroke-linejoin:miter;stroke-width:3;" x="100.905535" xlink:href="#m783df6eb66" y="233.558824"/>
     <use style="fill-opacity:0;stroke:#008000;stroke-linejoin:miter;stroke-width:3;" x="104.254571" xlink:href="#m783df6eb66" y="231.564369"/>
     <use style="fill-opacity:0;stroke:#008000;stroke-linejoin:miter;stroke-width:3;" x="107.3506" xlink:href="#m783df6eb66" y="227.844844"/>
     <use style="fill-opacity:0;stroke:#008000;stroke-linejoin:miter;stroke-width:3;" x="108.526391" xlink:href="#m783df6eb66" y="223.624886"/>
     <use style="fill-opacity:0;stroke:#008000;stroke-linejoin:miter;stroke-width:3;" x="112.394851" xlink:href="#m783df6eb66" y="217.924764"/>
     <use style="fill-opacity:0;stroke:#008000;stroke-linejoin:miter;stroke-width:3;" x="113.43625" xlink:href="#m783df6eb66" y="216.891022"/>
     <use style="fill-opacity:0;stroke:#008000;stroke-linejoin:miter;stroke-width:3;" x="117.820555" xlink:href="#m783df6eb66" y="215.224008"/>
     <use style="fill-opacity:0;stroke:#008000;stroke-linejoin:miter;stroke-width:3;" x="124.616914" xlink:href="#m783df6eb66" y="214.255391"/>
     <use style="fill-opacity:0;stroke:#008000;stroke-linejoin:miter;stroke-width:3;" x="130.783472" xlink:href="#m783df6eb66" y="207.234231"/>
     <use style="fill-opacity:0;stroke:#008000;stroke-linejoin:miter;stroke-width:3;" x="134.637852" xlink:href="#m783df6eb66" y="206.699983"/>
     <use style="fill-opacity:0;stroke:#008000;stroke-linejoin:miter;stroke-width:3;" x="151.135163" xlink:href="#m783df6eb66" y="204.629997"/>
     <use style="fill-opacity:0;stroke:#008000;stroke-linejoin:miter;stroke-width:3;" x="155.089725" xlink:href="#m783df6eb66" y="201.241399"/>
     <use style="fill-opacity:0;stroke:#008000;stroke-linejoin:miter;stroke-width:3;" x="163.780597" xlink:href="#m783df6eb66" y="182.98417"/>
     <use style="fill-opacity:0;stroke:#008000;stroke-linejoin:miter;stroke-width:3;" x="163.780597" xlink:href="#m783df6eb66" y="177.686115"/>
     <use style="fill-opacity:0;stroke:#008000;stroke-linejoin:miter;stroke-width:3;" x="164.526804" xlink:href="#m783df6eb66" y="177.425364"/>
     <use style="fill-opacity:0;stroke:#008000;stroke-linejoin:miter;stroke-width:3;" x="169.532518" xlink:href="#m783df6eb66" y="168.190944"/>
     <use style="fill-opacity:0;stroke:#008000;stroke-linejoin:miter;stroke-width:3;" x="175.790885" xlink:href="#m783df6eb66" y="164.908961"/>
    </g>
   </g>
   <g id="line2d_70">
    <defs>
     <path d="M -0 4 
L 4 -4 
L -4 -4 
z
" id="meeb0305221" style="stroke:#008000;stroke-linejoin:miter;"/>
    </defs>
    <g>
     <use style="fill-opacity:0;stroke:#008000;stroke-linejoin:miter;" x="187.191777" xlink:href="#meeb0305221" y="151.657806"/>
     <use style="fill-opacity:0;stroke:#008000;stroke-linejoin:miter;" x="187.191777" xlink:href="#meeb0305221" y="151.657806"/>
    </g>
   </g>
   <g id="line2d_71">
    <defs>
     <path d="M 0 -7 
L -1.571598 -2.163119 
L -6.657396 -2.163119 
L -2.542899 0.826238 
L -4.114497 5.663119 
L -0 2.673762 
L 4.114497 5.663119 
L 2.542899 0.826238 
L 6.657396 -2.163119 
L 1.571598 -2.163119 
z
" id="m2da40cd43b" style="stroke:#0000ff;stroke-linejoin:bevel;stroke-width:3;"/>
    </defs>
    <g>
     <use style="fill-opacity:0;stroke:#0000ff;stroke-linejoin:bevel;stroke-width:3;" x="179.709682" xlink:href="#m2da40cd43b" y="164.397384"/>
     <use style="fill-opacity:0;stroke:#0000ff;stroke-linejoin:bevel;stroke-width:3;" x="107.94271" xlink:href="#m2da40cd43b" y="213.858457"/>
     <use style="fill-opacity:0;stroke:#0000ff;stroke-linejoin:bevel;stroke-width:3;" x="111.326311" xlink:href="#m2da40cd43b" y="212.921207"/>
     <use style="fill-opacity:0;stroke:#0000ff;stroke-linejoin:bevel;stroke-width:3;" x="117.355928" xlink:href="#m2da40cd43b" y="212.460496"/>
     <use style="fill-opacity:0;stroke:#0000ff;stroke-linejoin:bevel;stroke-width:3;" x="124.420728" xlink:href="#m2da40cd43b" y="209.372798"/>
     <use style="fill-opacity:0;stroke:#0000ff;stroke-linejoin:bevel;stroke-width:3;" x="132.433711" xlink:href="#m2da40cd43b" y="200.952034"/>
     <use style="fill-opacity:0;stroke:#0000ff;stroke-linejoin:bevel;stroke-width:3;" x="143.122918" xlink:href="#m2da40cd43b" y="193.969464"/>
     <use style="fill-opacity:0;stroke:#0000ff;stroke-linejoin:bevel;stroke-width:3;" x="150.044458" xlink:href="#m2da40cd43b" y="188.512533"/>
     <use style="fill-opacity:0;stroke:#0000ff;stroke-linejoin:bevel;stroke-width:3;" x="155.919026" xlink:href="#m2da40cd43b" y="182.798553"/>
     <use style="fill-opacity:0;stroke:#0000ff;stroke-linejoin:bevel;stroke-width:3;" x="156.462718" xlink:href="#m2da40cd43b" y="180.424037"/>
     <use style="fill-opacity:0;stroke:#0000ff;stroke-linejoin:bevel;stroke-width:3;" x="162.712554" xlink:href="#m2da40cd43b" y="175.863463"/>
     <use style="fill-opacity:0;stroke:#0000ff;stroke-linejoin:bevel;stroke-width:3;" x="162.943774" xlink:href="#m2da40cd43b" y="174.935756"/>
     <use style="fill-opacity:0;stroke:#0000ff;stroke-linejoin:bevel;stroke-width:3;" x="167.106002" xlink:href="#m2da40cd43b" y="171.421581"/>
     <use style="fill-opacity:0;stroke:#0000ff;stroke-linejoin:bevel;stroke-width:3;" x="176.387255" xlink:href="#m2da40cd43b" y="166.062338"/>
     <use style="fill-opacity:0;stroke:#0000ff;stroke-linejoin:bevel;stroke-width:3;" x="178.333704" xlink:href="#m2da40cd43b" y="159.019868"/>
     <use style="fill-opacity:0;stroke:#0000ff;stroke-linejoin:bevel;stroke-width:3;" x="187.898287" xlink:href="#m2da40cd43b" y="152.160594"/>
     <use style="fill-opacity:0;stroke:#0000ff;stroke-linejoin:bevel;stroke-width:3;" x="196.775095" xlink:href="#m2da40cd43b" y="146.19491"/>
     <use style="fill-opacity:0;stroke:#0000ff;stroke-linejoin:bevel;stroke-width:3;" x="198.457671" xlink:href="#m2da40cd43b" y="144.239905"/>
     <use style="fill-opacity:0;stroke:#0000ff;stroke-linejoin:bevel;stroke-width:3;" x="203.274031" xlink:href="#m2da40cd43b" y="140.382657"/>
     <use style="fill-opacity:0;stroke:#0000ff;stroke-linejoin:bevel;stroke-width:3;" x="207.735057" xlink:href="#m2da40cd43b" y="133.14152"/>
     <use style="fill-opacity:0;stroke:#0000ff;stroke-linejoin:bevel;stroke-width:3;" x="224.331098" xlink:href="#m2da40cd43b" y="128.653268"/>
     <use style="fill-opacity:0;stroke:#0000ff;stroke-linejoin:bevel;stroke-width:3;" x="225.905623" xlink:href="#m2da40cd43b" y="127.693625"/>
    </g>
   </g>
   <g id="line2d_72">
    <defs>
     <path d="M 0 7 
C 1.856422 7 3.637059 6.262436 4.949747 4.949747 
C 6.262436 3.637059 7 1.856422 7 0 
C 7 -1.856422 6.262436 -3.637059 4.949747 -4.949747 
C 3.637059 -6.262436 1.856422 -7 0 -7 
C -1.856422 -7 -3.637059 -6.262436 -4.949747 -4.949747 
C -6.262436 -3.637059 -7 -1.856422 -7 0 
C -7 1.856422 -6.262436 3.637059 -4.949747 4.949747 
C -3.637059 6.262436 -1.856422 7 0 7 
z
" id="m09743eca01" style="stroke:#000000;stroke-width:3;"/>
    </defs>
    <g>
     <use style="fill-opacity:0;stroke:#000000;stroke-width:3;" x="241.116545" xlink:href="#m09743eca01" y="102.102664"/>
     <use style="fill-opacity:0;stroke:#000000;stroke-width:3;" x="136.068769" xlink:href="#m09743eca01" y="168.575838"/>
     <use style="fill-opacity:0;stroke:#000000;stroke-width:3;" x="142.113565" xlink:href="#m09743eca01" y="166.88317"/>
     <use style="fill-opacity:0;stroke:#000000;stroke-width:3;" x="153.135702" xlink:href="#m09743eca01" y="164.468385"/>
     <use style="fill-opacity:0;stroke:#000000;stroke-width:3;" x="164.748043" xlink:href="#m09743eca01" y="158.648238"/>
     <use style="fill-opacity:0;stroke:#000000;stroke-width:3;" x="173.491054" xlink:href="#m09743eca01" y="151.035734"/>
     <use style="fill-opacity:0;stroke:#000000;stroke-width:3;" x="184.83873" xlink:href="#m09743eca01" y="142.429203"/>
     <use style="fill-opacity:0;stroke:#000000;stroke-width:3;" x="189.073117" xlink:href="#m09743eca01" y="138.790049"/>
     <use style="fill-opacity:0;stroke:#000000;stroke-width:3;" x="196.419943" xlink:href="#m09743eca01" y="130.723451"/>
     <use style="fill-opacity:0;stroke:#000000;stroke-width:3;" x="199.824561" xlink:href="#m09743eca01" y="126.902545"/>
     <use style="fill-opacity:0;stroke:#000000;stroke-width:3;" x="207.913137" xlink:href="#m09743eca01" y="121.628042"/>
     <use style="fill-opacity:0;stroke:#000000;stroke-width:3;" x="211.815297" xlink:href="#m09743eca01" y="118.709799"/>
     <use style="fill-opacity:0;stroke:#000000;stroke-width:3;" x="218.11925" xlink:href="#m09743eca01" y="115.187371"/>
     <use style="fill-opacity:0;stroke:#000000;stroke-width:3;" x="220.885408" xlink:href="#m09743eca01" y="112.680647"/>
     <use style="fill-opacity:0;stroke:#000000;stroke-width:3;" x="232.776962" xlink:href="#m09743eca01" y="107.953297"/>
     <use style="fill-opacity:0;stroke:#000000;stroke-width:3;" x="235.817603" xlink:href="#m09743eca01" y="105.531116"/>
     <use style="fill-opacity:0;stroke:#000000;stroke-width:3;" x="241.610357" xlink:href="#m09743eca01" y="102.894346"/>
     <use style="fill-opacity:0;stroke:#000000;stroke-width:3;" x="244.509729" xlink:href="#m09743eca01" y="100.15453"/>
     <use style="fill-opacity:0;stroke:#000000;stroke-width:3;" x="249.602515" xlink:href="#m09743eca01" y="94.614014"/>
     <use style="fill-opacity:0;stroke:#000000;stroke-width:3;" x="253.60585" xlink:href="#m09743eca01" y="91.334874"/>
     <use style="fill-opacity:0;stroke:#000000;stroke-width:3;" x="263.328489" xlink:href="#m09743eca01" y="75.630499"/>
     <use style="fill-opacity:0;stroke:#000000;stroke-width:3;" x="267.72913" xlink:href="#m09743eca01" y="70.957389"/>
    </g>
   </g>
   <g id="line2d_73">
    <defs>
     <path d="M -7 7 
L 7 7 
L 7 -7 
L -7 -7 
z
" id="m36560612f2" style="stroke:#ff0000;stroke-linejoin:miter;stroke-width:3;"/>
    </defs>
    <g>
     <use style="fill-opacity:0;stroke:#ff0000;stroke-linejoin:miter;stroke-width:3;" x="292.523822" xlink:href="#m36560612f2" y="50.369557"/>
     <use style="fill-opacity:0;stroke:#ff0000;stroke-linejoin:miter;stroke-width:3;" x="191.80438" xlink:href="#m36560612f2" y="129.645581"/>
     <use style="fill-opacity:0;stroke:#ff0000;stroke-linejoin:miter;stroke-width:3;" x="197.043638" xlink:href="#m36560612f2" y="128.182636"/>
     <use style="fill-opacity:0;stroke:#ff0000;stroke-linejoin:miter;stroke-width:3;" x="207.526314" xlink:href="#m36560612f2" y="125.022665"/>
     <use style="fill-opacity:0;stroke:#ff0000;stroke-linejoin:miter;stroke-width:3;" x="215.420921" xlink:href="#m36560612f2" y="120.356469"/>
     <use style="fill-opacity:0;stroke:#ff0000;stroke-linejoin:miter;stroke-width:3;" x="224.44845" xlink:href="#m36560612f2" y="112.088753"/>
     <use style="fill-opacity:0;stroke:#ff0000;stroke-linejoin:miter;stroke-width:3;" x="237.454498" xlink:href="#m36560612f2" y="100.876474"/>
     <use style="fill-opacity:0;stroke:#ff0000;stroke-linejoin:miter;stroke-width:3;" x="246.480217" xlink:href="#m36560612f2" y="93.731096"/>
     <use style="fill-opacity:0;stroke:#ff0000;stroke-linejoin:miter;stroke-width:3;" x="249.813041" xlink:href="#m36560612f2" y="91.826518"/>
     <use style="fill-opacity:0;stroke:#ff0000;stroke-linejoin:miter;stroke-width:3;" x="259.614191" xlink:href="#m36560612f2" y="82.889417"/>
     <use style="fill-opacity:0;stroke:#ff0000;stroke-linejoin:miter;stroke-width:3;" x="259.997906" xlink:href="#m36560612f2" y="82.483285"/>
     <use style="fill-opacity:0;stroke:#ff0000;stroke-linejoin:miter;stroke-width:3;" x="269.256826" xlink:href="#m36560612f2" y="74.354753"/>
     <use style="fill-opacity:0;stroke:#ff0000;stroke-linejoin:miter;stroke-width:3;" x="269.736966" xlink:href="#m36560612f2" y="73.697148"/>
     <use style="fill-opacity:0;stroke:#ff0000;stroke-linejoin:miter;stroke-width:3;" x="276.613543" xlink:href="#m36560612f2" y="67.329582"/>
     <use style="fill-opacity:0;stroke:#ff0000;stroke-linejoin:miter;stroke-width:3;" x="278.489643" xlink:href="#m36560612f2" y="66.136957"/>
     <use style="fill-opacity:0;stroke:#ff0000;stroke-linejoin:miter;stroke-width:3;" x="282.569413" xlink:href="#m36560612f2" y="62.540543"/>
     <use style="fill-opacity:0;stroke:#ff0000;stroke-linejoin:miter;stroke-width:3;" x="283.777335" xlink:href="#m36560612f2" y="61.337661"/>
     <use style="fill-opacity:0;stroke:#ff0000;stroke-linejoin:miter;stroke-width:3;" x="288.220302" xlink:href="#m36560612f2" y="57.254381"/>
     <use style="fill-opacity:0;stroke:#ff0000;stroke-linejoin:miter;stroke-width:3;" x="291.218063" xlink:href="#m36560612f2" y="54.650174"/>
     <use style="fill-opacity:0;stroke:#ff0000;stroke-linejoin:miter;stroke-width:3;" x="295.22033" xlink:href="#m36560612f2" y="50.275137"/>
     <use style="fill-opacity:0;stroke:#ff0000;stroke-linejoin:miter;stroke-width:3;" x="307.061362" xlink:href="#m36560612f2" y="41.724867"/>
     <use style="fill-opacity:0;stroke:#ff0000;stroke-linejoin:miter;stroke-width:3;" x="309.205511" xlink:href="#m36560612f2" y="39.052259"/>
    </g>
   </g>
   <g id="line2d_74">
    <path clip-path="url(#p81bb4672fd)" d="M 45.941875 301.309469 
L 321.741875 25.509469 
" style="fill:none;stroke:#000000;stroke-linecap:square;stroke-width:1.5;"/>
   </g>
   <g id="line2d_75">
    <path clip-path="url(#p81bb4672fd)" d="M 140.354544 301.309469 
L 341.624828 100.039185 
" style="fill:none;stroke:#d3d3d3;stroke-linecap:square;"/>
   </g>
   <g id="line2d_76">
    <path clip-path="url(#p81bb4672fd)" d="M 234.767213 301.309469 
L 341.624828 194.451853 
" style="fill:none;stroke:#d3d3d3;stroke-linecap:square;"/>
   </g>
   <g id="line2d_77">
    <path clip-path="url(#p81bb4672fd)" d="M 45.941875 206.8968 
L 253.838675 -1 
" style="fill:none;stroke:#d3d3d3;stroke-linecap:square;"/>
   </g>
   <g id="line2d_78">
    <path clip-path="url(#p81bb4672fd)" d="M 45.941875 112.484131 
L 159.426006 -1 
" style="fill:none;stroke:#d3d3d3;stroke-linecap:square;"/>
   </g>
   <g id="patch_3">
    <path d="M 45.941875 301.309469 
L 45.941875 25.509469 
" style="fill:none;stroke:#000000;stroke-linecap:square;stroke-linejoin:miter;stroke-width:0.8;"/>
   </g>
   <g id="patch_4">
    <path d="M 321.741875 301.309469 
L 321.741875 25.509469 
" style="fill:none;stroke:#000000;stroke-linecap:square;stroke-linejoin:miter;stroke-width:0.8;"/>
   </g>
   <g id="patch_5">
    <path d="M 45.941875 301.309469 
L 321.741875 301.309469 
" style="fill:none;stroke:#000000;stroke-linecap:square;stroke-linejoin:miter;stroke-width:0.8;"/>
   </g>
   <g id="patch_6">
    <path d="M 45.941875 25.509469 
L 321.741875 25.509469 
" style="fill:none;stroke:#000000;stroke-linecap:square;stroke-linejoin:miter;stroke-width:0.8;"/>
   </g>
   <g id="text_9">
    <!-- 22 targets: 3e21..1e-6 -->
    <g transform="translate(48.699875 38.775875)scale(0.102 -0.102)">
     <defs>
      <path d="M 18.3125 70.21875 
L 18.3125 54.6875 
L 36.8125 54.6875 
L 36.8125 47.703125 
L 18.3125 47.703125 
L 18.3125 18.015625 
Q 18.3125 11.328125 20.140625 9.421875 
Q 21.96875 7.515625 27.59375 7.515625 
L 36.8125 7.515625 
L 36.8125 0 
L 27.59375 0 
Q 17.1875 0 13.234375 3.875 
Q 9.28125 7.765625 9.28125 18.015625 
L 9.28125 47.703125 
L 2.6875 47.703125 
L 2.6875 54.6875 
L 9.28125 54.6875 
L 9.28125 70.21875 
z
" id="DejaVuSans-116"/>
      <path d="M 34.28125 27.484375 
Q 23.390625 27.484375 19.1875 25 
Q 14.984375 22.515625 14.984375 16.5 
Q 14.984375 11.71875 18.140625 8.90625 
Q 21.296875 6.109375 26.703125 6.109375 
Q 34.1875 6.109375 38.703125 11.40625 
Q 43.21875 16.703125 43.21875 25.484375 
L 43.21875 27.484375 
z
M 52.203125 31.203125 
L 52.203125 0 
L 43.21875 0 
L 43.21875 8.296875 
Q 40.140625 3.328125 35.546875 0.953125 
Q 30.953125 -1.421875 24.3125 -1.421875 
Q 15.921875 -1.421875 10.953125 3.296875 
Q 6 8.015625 6 15.921875 
Q 6 25.140625 12.171875 29.828125 
Q 18.359375 34.515625 30.609375 34.515625 
L 43.21875 34.515625 
L 43.21875 35.40625 
Q 43.21875 41.609375 39.140625 45 
Q 35.0625 48.390625 27.6875 48.390625 
Q 23 48.390625 18.546875 47.265625 
Q 14.109375 46.140625 10.015625 43.890625 
L 10.015625 52.203125 
Q 14.9375 54.109375 19.578125 55.046875 
Q 24.21875 56 28.609375 56 
Q 40.484375 56 46.34375 49.84375 
Q 52.203125 43.703125 52.203125 31.203125 
z
" id="DejaVuSans-97"/>
      <path d="M 41.109375 46.296875 
Q 39.59375 47.171875 37.8125 47.578125 
Q 36.03125 48 33.890625 48 
Q 26.265625 48 22.1875 43.046875 
Q 18.109375 38.09375 18.109375 28.8125 
L 18.109375 0 
L 9.078125 0 
L 9.078125 54.6875 
L 18.109375 54.6875 
L 18.109375 46.1875 
Q 20.953125 51.171875 25.484375 53.578125 
Q 30.03125 56 36.53125 56 
Q 37.453125 56 38.578125 55.875 
Q 39.703125 55.765625 41.0625 55.515625 
z
" id="DejaVuSans-114"/>
      <path d="M 56.203125 29.59375 
L 56.203125 25.203125 
L 14.890625 25.203125 
Q 15.484375 15.921875 20.484375 11.0625 
Q 25.484375 6.203125 34.421875 6.203125 
Q 39.59375 6.203125 44.453125 7.46875 
Q 49.3125 8.734375 54.109375 11.28125 
L 54.109375 2.78125 
Q 49.265625 0.734375 44.1875 -0.34375 
Q 39.109375 -1.421875 33.890625 -1.421875 
Q 20.796875 -1.421875 13.15625 6.1875 
Q 5.515625 13.8125 5.515625 26.8125 
Q 5.515625 40.234375 12.765625 48.109375 
Q 20.015625 56 32.328125 56 
Q 43.359375 56 49.78125 48.890625 
Q 56.203125 41.796875 56.203125 29.59375 
z
M 47.21875 32.234375 
Q 47.125 39.59375 43.09375 43.984375 
Q 39.0625 48.390625 32.421875 48.390625 
Q 24.90625 48.390625 20.390625 44.140625 
Q 15.875 39.890625 15.1875 32.171875 
z
" id="DejaVuSans-101"/>
      <path d="M 11.71875 12.40625 
L 22.015625 12.40625 
L 22.015625 0 
L 11.71875 0 
z
M 11.71875 51.703125 
L 22.015625 51.703125 
L 22.015625 39.3125 
L 11.71875 39.3125 
z
" id="DejaVuSans-58"/>
      <path d="M 10.6875 12.40625 
L 21 12.40625 
L 21 0 
L 10.6875 0 
z
" id="DejaVuSans-46"/>
      <path d="M 4.890625 31.390625 
L 31.203125 31.390625 
L 31.203125 23.390625 
L 4.890625 23.390625 
z
" id="DejaVuSans-45"/>
      <path d="M 33.015625 40.375 
Q 26.375 40.375 22.484375 35.828125 
Q 18.609375 31.296875 18.609375 23.390625 
Q 18.609375 15.53125 22.484375 10.953125 
Q 26.375 6.390625 33.015625 6.390625 
Q 39.65625 6.390625 43.53125 10.953125 
Q 47.40625 15.53125 47.40625 23.390625 
Q 47.40625 31.296875 43.53125 35.828125 
Q 39.65625 40.375 33.015625 40.375 
z
M 52.59375 71.296875 
L 52.59375 62.3125 
Q 48.875 64.0625 45.09375 64.984375 
Q 41.3125 65.921875 37.59375 65.921875 
Q 27.828125 65.921875 22.671875 59.328125 
Q 17.53125 52.734375 16.796875 39.40625 
Q 19.671875 43.65625 24.015625 45.921875 
Q 28.375 48.1875 33.59375 48.1875 
Q 44.578125 48.1875 50.953125 41.515625 
Q 57.328125 34.859375 57.328125 23.390625 
Q 57.328125 12.15625 50.6875 5.359375 
Q 44.046875 -1.421875 33.015625 -1.421875 
Q 20.359375 -1.421875 13.671875 8.265625 
Q 6.984375 17.96875 6.984375 36.375 
Q 6.984375 53.65625 15.1875 63.9375 
Q 23.390625 74.21875 37.203125 74.21875 
Q 40.921875 74.21875 44.703125 73.484375 
Q 48.484375 72.75 52.59375 71.296875 
z
" id="DejaVuSans-54"/>
     </defs>
     <use xlink:href="#DejaVuSans-50"/>
     <use x="63.623047" xlink:href="#DejaVuSans-50"/>
     <use x="127.246094" xlink:href="#DejaVuSans-32"/>
     <use x="159.033203" xlink:href="#DejaVuSans-116"/>
     <use x="198.242188" xlink:href="#DejaVuSans-97"/>
     <use x="259.521484" xlink:href="#DejaVuSans-114"/>
     <use x="298.884766" xlink:href="#DejaVuSans-103"/>
     <use x="362.361328" xlink:href="#DejaVuSans-101"/>
     <use x="423.884766" xlink:href="#DejaVuSans-116"/>
     <use x="463.09375" xlink:href="#DejaVuSans-115"/>
     <use x="515.193359" xlink:href="#DejaVuSans-58"/>
     <use x="548.884766" xlink:href="#DejaVuSans-32"/>
     <use x="580.671875" xlink:href="#DejaVuSans-51"/>
     <use x="644.294922" xlink:href="#DejaVuSans-101"/>
     <use x="705.818359" xlink:href="#DejaVuSans-50"/>
     <use x="769.441406" xlink:href="#DejaVuSans-49"/>
     <use x="833.064453" xlink:href="#DejaVuSans-46"/>
     <use x="864.851562" xlink:href="#DejaVuSans-46"/>
     <use x="896.638672" xlink:href="#DejaVuSans-49"/>
     <use x="960.261719" xlink:href="#DejaVuSans-101"/>
     <use x="1021.785156" xlink:href="#DejaVuSans-45"/>
     <use x="1057.869141" xlink:href="#DejaVuSans-54"/>
    </g>
    <!-- 15 and 15 instances -->
    <g transform="translate(48.699875 50.197644)scale(0.102 -0.102)">
     <defs>
      <path d="M 10.796875 72.90625 
L 49.515625 72.90625 
L 49.515625 64.59375 
L 19.828125 64.59375 
L 19.828125 46.734375 
Q 21.96875 47.46875 24.109375 47.828125 
Q 26.265625 48.1875 28.421875 48.1875 
Q 40.625 48.1875 47.75 41.5 
Q 54.890625 34.8125 54.890625 23.390625 
Q 54.890625 11.625 47.5625 5.09375 
Q 40.234375 -1.421875 26.90625 -1.421875 
Q 22.3125 -1.421875 17.546875 -0.640625 
Q 12.796875 0.140625 7.71875 1.703125 
L 7.71875 11.625 
Q 12.109375 9.234375 16.796875 8.0625 
Q 21.484375 6.890625 26.703125 6.890625 
Q 35.15625 6.890625 40.078125 11.328125 
Q 45.015625 15.765625 45.015625 23.390625 
Q 45.015625 31 40.078125 35.4375 
Q 35.15625 39.890625 26.703125 39.890625 
Q 22.75 39.890625 18.8125 39.015625 
Q 14.890625 38.140625 10.796875 36.28125 
z
" id="DejaVuSans-53"/>
      <path d="M 45.40625 46.390625 
L 45.40625 75.984375 
L 54.390625 75.984375 
L 54.390625 0 
L 45.40625 0 
L 45.40625 8.203125 
Q 42.578125 3.328125 38.25 0.953125 
Q 33.9375 -1.421875 27.875 -1.421875 
Q 17.96875 -1.421875 11.734375 6.484375 
Q 5.515625 14.40625 5.515625 27.296875 
Q 5.515625 40.1875 11.734375 48.09375 
Q 17.96875 56 27.875 56 
Q 33.9375 56 38.25 53.625 
Q 42.578125 51.265625 45.40625 46.390625 
z
M 14.796875 27.296875 
Q 14.796875 17.390625 18.875 11.75 
Q 22.953125 6.109375 30.078125 6.109375 
Q 37.203125 6.109375 41.296875 11.75 
Q 45.40625 17.390625 45.40625 27.296875 
Q 45.40625 37.203125 41.296875 42.84375 
Q 37.203125 48.484375 30.078125 48.484375 
Q 22.953125 48.484375 18.875 42.84375 
Q 14.796875 37.203125 14.796875 27.296875 
z
" id="DejaVuSans-100"/>
     </defs>
     <use xlink:href="#DejaVuSans-49"/>
     <use x="63.623047" xlink:href="#DejaVuSans-53"/>
     <use x="127.246094" xlink:href="#DejaVuSans-32"/>
     <use x="159.033203" xlink:href="#DejaVuSans-97"/>
     <use x="220.3125" xlink:href="#DejaVuSans-110"/>
     <use x="283.691406" xlink:href="#DejaVuSans-100"/>
     <use x="347.167969" xlink:href="#DejaVuSans-32"/>
     <use x="378.955078" xlink:href="#DejaVuSans-49"/>
     <use x="442.578125" xlink:href="#DejaVuSans-53"/>
     <use x="506.201172" xlink:href="#DejaVuSans-32"/>
     <use x="537.988281" xlink:href="#DejaVuSans-105"/>
     <use x="565.771484" xlink:href="#DejaVuSans-110"/>
     <use x="629.150391" xlink:href="#DejaVuSans-115"/>
     <use x="681.25" xlink:href="#DejaVuSans-116"/>
     <use x="720.458984" xlink:href="#DejaVuSans-97"/>
     <use x="781.738281" xlink:href="#DejaVuSans-110"/>
     <use x="845.117188" xlink:href="#DejaVuSans-99"/>
     <use x="900.097656" xlink:href="#DejaVuSans-101"/>
     <use x="961.621094" xlink:href="#DejaVuSans-115"/>
    </g>
   </g>
   <g id="text_10">
    <!-- v5z33 -->
    <g style="fill:#808080;" transform="translate(168.714531 296.471781)scale(0.1 -0.1)">
     <defs>
      <path d="M 2.984375 54.6875 
L 12.5 54.6875 
L 29.59375 8.796875 
L 46.6875 54.6875 
L 56.203125 54.6875 
L 35.6875 0 
L 23.484375 0 
z
" id="DejaVuSans-118"/>
      <path d="M 5.515625 54.6875 
L 48.1875 54.6875 
L 48.1875 46.484375 
L 14.40625 7.171875 
L 48.1875 7.171875 
L 48.1875 0 
L 4.296875 0 
L 4.296875 8.203125 
L 38.09375 47.515625 
L 5.515625 47.515625 
z
" id="DejaVuSans-122"/>
     </defs>
     <use xlink:href="#DejaVuSans-118"/>
     <use x="59.179688" xlink:href="#DejaVuSans-53"/>
     <use x="122.802734" xlink:href="#DejaVuSans-122"/>
     <use x="175.292969" xlink:href="#DejaVuSans-51"/>
     <use x="238.916016" xlink:href="#DejaVuSans-51"/>
    </g>
   </g>
   <g id="text_11">
    <!-- 41 Different Powers, n+6 constraints -->
    <g transform="translate(34.258922 19.509469)scale(0.162 -0.162)">
     <defs>
      <path d="M 37.796875 64.3125 
L 12.890625 25.390625 
L 37.796875 25.390625 
z
M 35.203125 72.90625 
L 47.609375 72.90625 
L 47.609375 25.390625 
L 58.015625 25.390625 
L 58.015625 17.1875 
L 47.609375 17.1875 
L 47.609375 0 
L 37.796875 0 
L 37.796875 17.1875 
L 4.890625 17.1875 
L 4.890625 26.703125 
z
" id="DejaVuSans-52"/>
      <path d="M 19.671875 64.796875 
L 19.671875 8.109375 
L 31.59375 8.109375 
Q 46.6875 8.109375 53.6875 14.9375 
Q 60.6875 21.78125 60.6875 36.53125 
Q 60.6875 51.171875 53.6875 57.984375 
Q 46.6875 64.796875 31.59375 64.796875 
z
M 9.8125 72.90625 
L 30.078125 72.90625 
Q 51.265625 72.90625 61.171875 64.09375 
Q 71.09375 55.28125 71.09375 36.53125 
Q 71.09375 17.671875 61.125 8.828125 
Q 51.171875 0 30.078125 0 
L 9.8125 0 
z
" id="DejaVuSans-68"/>
      <path d="M 19.671875 64.796875 
L 19.671875 37.40625 
L 32.078125 37.40625 
Q 38.96875 37.40625 42.71875 40.96875 
Q 46.484375 44.53125 46.484375 51.125 
Q 46.484375 57.671875 42.71875 61.234375 
Q 38.96875 64.796875 32.078125 64.796875 
z
M 9.8125 72.90625 
L 32.078125 72.90625 
Q 44.34375 72.90625 50.609375 67.359375 
Q 56.890625 61.8125 56.890625 51.125 
Q 56.890625 40.328125 50.609375 34.8125 
Q 44.34375 29.296875 32.078125 29.296875 
L 19.671875 29.296875 
L 19.671875 0 
L 9.8125 0 
z
" id="DejaVuSans-80"/>
      <path d="M 4.203125 54.6875 
L 13.1875 54.6875 
L 24.421875 12.015625 
L 35.59375 54.6875 
L 46.1875 54.6875 
L 57.421875 12.015625 
L 68.609375 54.6875 
L 77.59375 54.6875 
L 63.28125 0 
L 52.6875 0 
L 40.921875 44.828125 
L 29.109375 0 
L 18.5 0 
z
" id="DejaVuSans-119"/>
      <path d="M 11.71875 12.40625 
L 22.015625 12.40625 
L 22.015625 4 
L 14.015625 -11.625 
L 7.71875 -11.625 
L 11.71875 4 
z
" id="DejaVuSans-44"/>
      <path d="M 46 62.703125 
L 46 35.5 
L 73.1875 35.5 
L 73.1875 27.203125 
L 46 27.203125 
L 46 0 
L 37.796875 0 
L 37.796875 27.203125 
L 10.59375 27.203125 
L 10.59375 35.5 
L 37.796875 35.5 
L 37.796875 62.703125 
z
" id="DejaVuSans-43"/>
     </defs>
     <use xlink:href="#DejaVuSans-52"/>
     <use x="63.623047" xlink:href="#DejaVuSans-49"/>
     <use x="127.246094" xlink:href="#DejaVuSans-32"/>
     <use x="159.033203" xlink:href="#DejaVuSans-68"/>
     <use x="236.035156" xlink:href="#DejaVuSans-105"/>
     <use x="263.818359" xlink:href="#DejaVuSans-102"/>
     <use x="299.023438" xlink:href="#DejaVuSans-102"/>
     <use x="334.228516" xlink:href="#DejaVuSans-101"/>
     <use x="395.751953" xlink:href="#DejaVuSans-114"/>
     <use x="434.615234" xlink:href="#DejaVuSans-101"/>
     <use x="496.138672" xlink:href="#DejaVuSans-110"/>
     <use x="559.517578" xlink:href="#DejaVuSans-116"/>
     <use x="598.726562" xlink:href="#DejaVuSans-32"/>
     <use x="630.513672" xlink:href="#DejaVuSans-80"/>
     <use x="687.191406" xlink:href="#DejaVuSans-111"/>
     <use x="748.373047" xlink:href="#DejaVuSans-119"/>
     <use x="830.160156" xlink:href="#DejaVuSans-101"/>
     <use x="891.683594" xlink:href="#DejaVuSans-114"/>
     <use x="932.796875" xlink:href="#DejaVuSans-115"/>
     <use x="984.896484" xlink:href="#DejaVuSans-44"/>
     <use x="1016.683594" xlink:href="#DejaVuSans-32"/>
     <use x="1048.470703" xlink:href="#DejaVuSans-110"/>
     <use x="1111.849609" xlink:href="#DejaVuSans-43"/>
     <use x="1195.638672" xlink:href="#DejaVuSans-54"/>
     <use x="1259.261719" xlink:href="#DejaVuSans-32"/>
     <use x="1291.048828" xlink:href="#DejaVuSans-99"/>
     <use x="1346.029297" xlink:href="#DejaVuSans-111"/>
     <use x="1407.210938" xlink:href="#DejaVuSans-110"/>
     <use x="1470.589844" xlink:href="#DejaVuSans-115"/>
     <use x="1522.689453" xlink:href="#DejaVuSans-116"/>
     <use x="1561.898438" xlink:href="#DejaVuSans-114"/>
     <use x="1603.011719" xlink:href="#DejaVuSans-97"/>
     <use x="1664.291016" xlink:href="#DejaVuSans-105"/>
     <use x="1692.074219" xlink:href="#DejaVuSans-110"/>
     <use x="1755.453125" xlink:href="#DejaVuSans-116"/>
     <use x="1794.662109" xlink:href="#DejaVuSans-115"/>
    </g>
   </g>
  </g>
 </g>
 <defs>
  <clipPath id="p81bb4672fd">
   <rect height="275.8" width="275.8" x="45.941875" y="25.509469"/>
  </clipPath>
 </defs>
</svg>
