<?xml version="1.0" encoding="utf-8" standalone="no"?>
<!DOCTYPE svg PUBLIC "-//W3C//DTD SVG 1.1//EN"
  "http://www.w3.org/Graphics/SVG/1.1/DTD/svg11.dtd">
<!-- Created with matplotlib (https://matplotlib.org/) -->
<svg height="352.887906pt" version="1.1" viewBox="0 0 339.730781 352.887906" width="339.730781pt" xmlns="http://www.w3.org/2000/svg" xmlns:xlink="http://www.w3.org/1999/xlink">
 <metadata>
  <rdf:RDF xmlns:cc="http://creativecommons.org/ns#" xmlns:dc="http://purl.org/dc/elements/1.1/" xmlns:rdf="http://www.w3.org/1999/02/22-rdf-syntax-ns#">
   <cc:Work>
    <dc:type rdf:resource="http://purl.org/dc/dcmitype/StillImage"/>
    <dc:date>2021-04-07T09:51:59.720527</dc:date>
    <dc:format>image/svg+xml</dc:format>
    <dc:creator>
     <cc:Agent>
      <dc:title>Matplotlib v3.3.3, https://matplotlib.org/</dc:title>
     </cc:Agent>
    </dc:creator>
   </cc:Work>
  </rdf:RDF>
 </metadata>
 <defs>
  <style type="text/css">*{stroke-linecap:butt;stroke-linejoin:round;}</style>
 </defs>
 <g id="figure_1">
  <g id="patch_1">
   <path d="M 0 352.887906 
L 339.730781 352.887906 
L 339.730781 -0 
L 0 -0 
z
" style="fill:#ffffff;"/>
  </g>
  <g id="axes_1">
   <g id="patch_2">
    <path d="M 45.941875 301.309469 
L 321.741875 301.309469 
L 321.741875 25.509469 
L 45.941875 25.509469 
z
" style="fill:#ffffff;"/>
   </g>
   <g id="line2d_1">
    <path clip-path="url(#p2e49d6c978)" d="M 195.685745 209.560652 
L 195.685745 152.345414 
" style="fill:none;stroke:#00bfbf;stroke-linecap:square;stroke-width:1.5;"/>
   </g>
   <g id="line2d_2">
    <path clip-path="url(#p2e49d6c978)" d="M 138.470507 152.345414 
L 195.685745 152.345414 
" style="fill:none;stroke:#00bfbf;stroke-linecap:square;stroke-width:1.5;"/>
   </g>
   <g id="line2d_3">
    <path clip-path="url(#p2e49d6c978)" d="M 221.806116 178.213635 
L 221.806116 120.998398 
" style="fill:none;stroke:#008000;stroke-linecap:square;stroke-width:1.5;"/>
   </g>
   <g id="line2d_4">
    <path clip-path="url(#p2e49d6c978)" d="M 164.590878 120.998398 
L 221.806116 120.998398 
" style="fill:none;stroke:#008000;stroke-linecap:square;stroke-width:1.5;"/>
   </g>
   <g id="line2d_5">
    <path clip-path="url(#p2e49d6c978)" d="M 228.056671 176.989028 
L 228.056671 119.773791 
" style="fill:none;stroke:#0000ff;stroke-linecap:square;stroke-width:1.5;"/>
   </g>
   <g id="line2d_6">
    <path clip-path="url(#p2e49d6c978)" d="M 170.841434 119.773791 
L 228.056671 119.773791 
" style="fill:none;stroke:#0000ff;stroke-linecap:square;stroke-width:1.5;"/>
   </g>
   <g id="line2d_7">
    <path clip-path="url(#p2e49d6c978)" d="M 234.830909 167.330752 
L 234.830909 110.115514 
" style="fill:none;stroke:#000000;stroke-linecap:square;stroke-width:1.5;"/>
   </g>
   <g id="line2d_8">
    <path clip-path="url(#p2e49d6c978)" d="M 177.615672 110.115514 
L 234.830909 110.115514 
" style="fill:none;stroke:#000000;stroke-linecap:square;stroke-width:1.5;"/>
   </g>
   <g id="line2d_9">
    <path clip-path="url(#p2e49d6c978)" d="M 250.089439 152.834197 
L 250.089439 95.61896 
" style="fill:none;stroke:#ff0000;stroke-linecap:square;stroke-width:1.5;"/>
   </g>
   <g id="line2d_10">
    <path clip-path="url(#p2e49d6c978)" d="M 192.874202 95.61896 
L 250.089439 95.61896 
" style="fill:none;stroke:#ff0000;stroke-linecap:square;stroke-width:1.5;"/>
   </g>
   <g id="matplotlib.axis_1">
    <g id="xtick_1">
     <g id="line2d_11">
      <path clip-path="url(#p2e49d6c978)" d="M 87.227115 301.309469 
L 87.227115 25.509469 
" style="fill:none;stroke:#b0b0b0;stroke-linecap:square;stroke-width:0.8;"/>
     </g>
     <g id="line2d_12">
      <defs>
       <path d="M 0 0 
L 0 3.5 
" id="mdcff0fd9be" style="stroke:#000000;stroke-width:0.8;"/>
      </defs>
      <g>
       <use style="stroke:#000000;stroke-width:0.8;" x="87.227115" xlink:href="#mdcff0fd9be" y="301.309469"/>
      </g>
     </g>
     <g id="text_1">
      <!-- 2 -->
      <g transform="translate(81.81899 321.226812)scale(0.17 -0.17)">
       <defs>
        <path d="M 19.1875 8.296875 
L 53.609375 8.296875 
L 53.609375 0 
L 7.328125 0 
L 7.328125 8.296875 
Q 12.9375 14.109375 22.625 23.890625 
Q 32.328125 33.6875 34.8125 36.53125 
Q 39.546875 41.84375 41.421875 45.53125 
Q 43.3125 49.21875 43.3125 52.78125 
Q 43.3125 58.59375 39.234375 62.25 
Q 35.15625 65.921875 28.609375 65.921875 
Q 23.96875 65.921875 18.8125 64.3125 
Q 13.671875 62.703125 7.8125 59.421875 
L 7.8125 69.390625 
Q 13.765625 71.78125 18.9375 73 
Q 24.125 74.21875 28.421875 74.21875 
Q 39.75 74.21875 46.484375 68.546875 
Q 53.21875 62.890625 53.21875 53.421875 
Q 53.21875 48.921875 51.53125 44.890625 
Q 49.859375 40.875 45.40625 35.40625 
Q 44.1875 33.984375 37.640625 27.21875 
Q 31.109375 20.453125 19.1875 8.296875 
z
" id="DejaVuSans-50"/>
       </defs>
       <use xlink:href="#DejaVuSans-50"/>
      </g>
     </g>
    </g>
    <g id="xtick_2">
     <g id="line2d_13">
      <path clip-path="url(#p2e49d6c978)" d="M 147.185917 301.309469 
L 147.185917 25.509469 
" style="fill:none;stroke:#b0b0b0;stroke-linecap:square;stroke-width:0.8;"/>
     </g>
     <g id="line2d_14">
      <g>
       <use style="stroke:#000000;stroke-width:0.8;" x="147.185917" xlink:href="#mdcff0fd9be" y="301.309469"/>
      </g>
     </g>
     <g id="text_2">
      <!-- 3 -->
      <g transform="translate(141.777792 321.226812)scale(0.17 -0.17)">
       <defs>
        <path d="M 40.578125 39.3125 
Q 47.65625 37.796875 51.625 33 
Q 55.609375 28.21875 55.609375 21.1875 
Q 55.609375 10.40625 48.1875 4.484375 
Q 40.765625 -1.421875 27.09375 -1.421875 
Q 22.515625 -1.421875 17.65625 -0.515625 
Q 12.796875 0.390625 7.625 2.203125 
L 7.625 11.71875 
Q 11.71875 9.328125 16.59375 8.109375 
Q 21.484375 6.890625 26.8125 6.890625 
Q 36.078125 6.890625 40.9375 10.546875 
Q 45.796875 14.203125 45.796875 21.1875 
Q 45.796875 27.640625 41.28125 31.265625 
Q 36.765625 34.90625 28.71875 34.90625 
L 20.21875 34.90625 
L 20.21875 43.015625 
L 29.109375 43.015625 
Q 36.375 43.015625 40.234375 45.921875 
Q 44.09375 48.828125 44.09375 54.296875 
Q 44.09375 59.90625 40.109375 62.90625 
Q 36.140625 65.921875 28.71875 65.921875 
Q 24.65625 65.921875 20.015625 65.03125 
Q 15.375 64.15625 9.8125 62.3125 
L 9.8125 71.09375 
Q 15.4375 72.65625 20.34375 73.4375 
Q 25.25 74.21875 29.59375 74.21875 
Q 40.828125 74.21875 47.359375 69.109375 
Q 53.90625 64.015625 53.90625 55.328125 
Q 53.90625 49.265625 50.4375 45.09375 
Q 46.96875 40.921875 40.578125 39.3125 
z
" id="DejaVuSans-51"/>
       </defs>
       <use xlink:href="#DejaVuSans-51"/>
      </g>
     </g>
    </g>
    <g id="xtick_3">
     <g id="line2d_15">
      <path clip-path="url(#p2e49d6c978)" d="M 207.144719 301.309469 
L 207.144719 25.509469 
" style="fill:none;stroke:#b0b0b0;stroke-linecap:square;stroke-width:0.8;"/>
     </g>
     <g id="line2d_16">
      <g>
       <use style="stroke:#000000;stroke-width:0.8;" x="207.144719" xlink:href="#mdcff0fd9be" y="301.309469"/>
      </g>
     </g>
     <g id="text_3">
      <!-- 4 -->
      <g transform="translate(201.736594 321.226812)scale(0.17 -0.17)">
       <defs>
        <path d="M 37.796875 64.3125 
L 12.890625 25.390625 
L 37.796875 25.390625 
z
M 35.203125 72.90625 
L 47.609375 72.90625 
L 47.609375 25.390625 
L 58.015625 25.390625 
L 58.015625 17.1875 
L 47.609375 17.1875 
L 47.609375 0 
L 37.796875 0 
L 37.796875 17.1875 
L 4.890625 17.1875 
L 4.890625 26.703125 
z
" id="DejaVuSans-52"/>
       </defs>
       <use xlink:href="#DejaVuSans-52"/>
      </g>
     </g>
    </g>
    <g id="xtick_4">
     <g id="line2d_17">
      <path clip-path="url(#p2e49d6c978)" d="M 267.103521 301.309469 
L 267.103521 25.509469 
" style="fill:none;stroke:#b0b0b0;stroke-linecap:square;stroke-width:0.8;"/>
     </g>
     <g id="line2d_18">
      <g>
       <use style="stroke:#000000;stroke-width:0.8;" x="267.103521" xlink:href="#mdcff0fd9be" y="301.309469"/>
      </g>
     </g>
     <g id="text_4">
      <!-- 5 -->
      <g transform="translate(261.695396 321.226812)scale(0.17 -0.17)">
       <defs>
        <path d="M 10.796875 72.90625 
L 49.515625 72.90625 
L 49.515625 64.59375 
L 19.828125 64.59375 
L 19.828125 46.734375 
Q 21.96875 47.46875 24.109375 47.828125 
Q 26.265625 48.1875 28.421875 48.1875 
Q 40.625 48.1875 47.75 41.5 
Q 54.890625 34.8125 54.890625 23.390625 
Q 54.890625 11.625 47.5625 5.09375 
Q 40.234375 -1.421875 26.90625 -1.421875 
Q 22.3125 -1.421875 17.546875 -0.640625 
Q 12.796875 0.140625 7.71875 1.703125 
L 7.71875 11.625 
Q 12.109375 9.234375 16.796875 8.0625 
Q 21.484375 6.890625 26.703125 6.890625 
Q 35.15625 6.890625 40.078125 11.328125 
Q 45.015625 15.765625 45.015625 23.390625 
Q 45.015625 31 40.078125 35.4375 
Q 35.15625 39.890625 26.703125 39.890625 
Q 22.75 39.890625 18.8125 39.015625 
Q 14.890625 38.140625 10.796875 36.28125 
z
" id="DejaVuSans-53"/>
       </defs>
       <use xlink:href="#DejaVuSans-53"/>
      </g>
     </g>
    </g>
    <g id="text_5">
     <!-- log10(ERT of sqp_fmincon_on_bbo) -->
     <g transform="translate(35.152969 341.679625)scale(0.17 -0.17)">
      <defs>
       <path d="M 9.421875 75.984375 
L 18.40625 75.984375 
L 18.40625 0 
L 9.421875 0 
z
" id="DejaVuSans-108"/>
       <path d="M 30.609375 48.390625 
Q 23.390625 48.390625 19.1875 42.75 
Q 14.984375 37.109375 14.984375 27.296875 
Q 14.984375 17.484375 19.15625 11.84375 
Q 23.34375 6.203125 30.609375 6.203125 
Q 37.796875 6.203125 41.984375 11.859375 
Q 46.1875 17.53125 46.1875 27.296875 
Q 46.1875 37.015625 41.984375 42.703125 
Q 37.796875 48.390625 30.609375 48.390625 
z
M 30.609375 56 
Q 42.328125 56 49.015625 48.375 
Q 55.71875 40.765625 55.71875 27.296875 
Q 55.71875 13.875 49.015625 6.21875 
Q 42.328125 -1.421875 30.609375 -1.421875 
Q 18.84375 -1.421875 12.171875 6.21875 
Q 5.515625 13.875 5.515625 27.296875 
Q 5.515625 40.765625 12.171875 48.375 
Q 18.84375 56 30.609375 56 
z
" id="DejaVuSans-111"/>
       <path d="M 45.40625 27.984375 
Q 45.40625 37.75 41.375 43.109375 
Q 37.359375 48.484375 30.078125 48.484375 
Q 22.859375 48.484375 18.828125 43.109375 
Q 14.796875 37.75 14.796875 27.984375 
Q 14.796875 18.265625 18.828125 12.890625 
Q 22.859375 7.515625 30.078125 7.515625 
Q 37.359375 7.515625 41.375 12.890625 
Q 45.40625 18.265625 45.40625 27.984375 
z
M 54.390625 6.78125 
Q 54.390625 -7.171875 48.1875 -13.984375 
Q 42 -20.796875 29.203125 -20.796875 
Q 24.46875 -20.796875 20.265625 -20.09375 
Q 16.0625 -19.390625 12.109375 -17.921875 
L 12.109375 -9.1875 
Q 16.0625 -11.328125 19.921875 -12.34375 
Q 23.78125 -13.375 27.78125 -13.375 
Q 36.625 -13.375 41.015625 -8.765625 
Q 45.40625 -4.15625 45.40625 5.171875 
L 45.40625 9.625 
Q 42.625 4.78125 38.28125 2.390625 
Q 33.9375 0 27.875 0 
Q 17.828125 0 11.671875 7.65625 
Q 5.515625 15.328125 5.515625 27.984375 
Q 5.515625 40.671875 11.671875 48.328125 
Q 17.828125 56 27.875 56 
Q 33.9375 56 38.28125 53.609375 
Q 42.625 51.21875 45.40625 46.390625 
L 45.40625 54.6875 
L 54.390625 54.6875 
z
" id="DejaVuSans-103"/>
       <path d="M 12.40625 8.296875 
L 28.515625 8.296875 
L 28.515625 63.921875 
L 10.984375 60.40625 
L 10.984375 69.390625 
L 28.421875 72.90625 
L 38.28125 72.90625 
L 38.28125 8.296875 
L 54.390625 8.296875 
L 54.390625 0 
L 12.40625 0 
z
" id="DejaVuSans-49"/>
       <path d="M 31.78125 66.40625 
Q 24.171875 66.40625 20.328125 58.90625 
Q 16.5 51.421875 16.5 36.375 
Q 16.5 21.390625 20.328125 13.890625 
Q 24.171875 6.390625 31.78125 6.390625 
Q 39.453125 6.390625 43.28125 13.890625 
Q 47.125 21.390625 47.125 36.375 
Q 47.125 51.421875 43.28125 58.90625 
Q 39.453125 66.40625 31.78125 66.40625 
z
M 31.78125 74.21875 
Q 44.046875 74.21875 50.515625 64.515625 
Q 56.984375 54.828125 56.984375 36.375 
Q 56.984375 17.96875 50.515625 8.265625 
Q 44.046875 -1.421875 31.78125 -1.421875 
Q 19.53125 -1.421875 13.0625 8.265625 
Q 6.59375 17.96875 6.59375 36.375 
Q 6.59375 54.828125 13.0625 64.515625 
Q 19.53125 74.21875 31.78125 74.21875 
z
" id="DejaVuSans-48"/>
       <path d="M 31 75.875 
Q 24.46875 64.65625 21.28125 53.65625 
Q 18.109375 42.671875 18.109375 31.390625 
Q 18.109375 20.125 21.3125 9.0625 
Q 24.515625 -2 31 -13.1875 
L 23.1875 -13.1875 
Q 15.875 -1.703125 12.234375 9.375 
Q 8.59375 20.453125 8.59375 31.390625 
Q 8.59375 42.28125 12.203125 53.3125 
Q 15.828125 64.359375 23.1875 75.875 
z
" id="DejaVuSans-40"/>
       <path d="M 9.8125 72.90625 
L 55.90625 72.90625 
L 55.90625 64.59375 
L 19.671875 64.59375 
L 19.671875 43.015625 
L 54.390625 43.015625 
L 54.390625 34.71875 
L 19.671875 34.71875 
L 19.671875 8.296875 
L 56.78125 8.296875 
L 56.78125 0 
L 9.8125 0 
z
" id="DejaVuSans-69"/>
       <path d="M 44.390625 34.1875 
Q 47.5625 33.109375 50.5625 29.59375 
Q 53.5625 26.078125 56.59375 19.921875 
L 66.609375 0 
L 56 0 
L 46.6875 18.703125 
Q 43.0625 26.03125 39.671875 28.421875 
Q 36.28125 30.8125 30.421875 30.8125 
L 19.671875 30.8125 
L 19.671875 0 
L 9.8125 0 
L 9.8125 72.90625 
L 32.078125 72.90625 
Q 44.578125 72.90625 50.734375 67.671875 
Q 56.890625 62.453125 56.890625 51.90625 
Q 56.890625 45.015625 53.6875 40.46875 
Q 50.484375 35.9375 44.390625 34.1875 
z
M 19.671875 64.796875 
L 19.671875 38.921875 
L 32.078125 38.921875 
Q 39.203125 38.921875 42.84375 42.21875 
Q 46.484375 45.515625 46.484375 51.90625 
Q 46.484375 58.296875 42.84375 61.546875 
Q 39.203125 64.796875 32.078125 64.796875 
z
" id="DejaVuSans-82"/>
       <path d="M -0.296875 72.90625 
L 61.375 72.90625 
L 61.375 64.59375 
L 35.5 64.59375 
L 35.5 0 
L 25.59375 0 
L 25.59375 64.59375 
L -0.296875 64.59375 
z
" id="DejaVuSans-84"/>
       <path id="DejaVuSans-32"/>
       <path d="M 37.109375 75.984375 
L 37.109375 68.5 
L 28.515625 68.5 
Q 23.6875 68.5 21.796875 66.546875 
Q 19.921875 64.59375 19.921875 59.515625 
L 19.921875 54.6875 
L 34.71875 54.6875 
L 34.71875 47.703125 
L 19.921875 47.703125 
L 19.921875 0 
L 10.890625 0 
L 10.890625 47.703125 
L 2.296875 47.703125 
L 2.296875 54.6875 
L 10.890625 54.6875 
L 10.890625 58.5 
Q 10.890625 67.625 15.140625 71.796875 
Q 19.390625 75.984375 28.609375 75.984375 
z
" id="DejaVuSans-102"/>
       <path d="M 44.28125 53.078125 
L 44.28125 44.578125 
Q 40.484375 46.53125 36.375 47.5 
Q 32.28125 48.484375 27.875 48.484375 
Q 21.1875 48.484375 17.84375 46.4375 
Q 14.5 44.390625 14.5 40.28125 
Q 14.5 37.15625 16.890625 35.375 
Q 19.28125 33.59375 26.515625 31.984375 
L 29.59375 31.296875 
Q 39.15625 29.25 43.1875 25.515625 
Q 47.21875 21.78125 47.21875 15.09375 
Q 47.21875 7.46875 41.1875 3.015625 
Q 35.15625 -1.421875 24.609375 -1.421875 
Q 20.21875 -1.421875 15.453125 -0.5625 
Q 10.6875 0.296875 5.421875 2 
L 5.421875 11.28125 
Q 10.40625 8.6875 15.234375 7.390625 
Q 20.0625 6.109375 24.8125 6.109375 
Q 31.15625 6.109375 34.5625 8.28125 
Q 37.984375 10.453125 37.984375 14.40625 
Q 37.984375 18.0625 35.515625 20.015625 
Q 33.0625 21.96875 24.703125 23.78125 
L 21.578125 24.515625 
Q 13.234375 26.265625 9.515625 29.90625 
Q 5.8125 33.546875 5.8125 39.890625 
Q 5.8125 47.609375 11.28125 51.796875 
Q 16.75 56 26.8125 56 
Q 31.78125 56 36.171875 55.265625 
Q 40.578125 54.546875 44.28125 53.078125 
z
" id="DejaVuSans-115"/>
       <path d="M 14.796875 27.296875 
Q 14.796875 17.390625 18.875 11.75 
Q 22.953125 6.109375 30.078125 6.109375 
Q 37.203125 6.109375 41.296875 11.75 
Q 45.40625 17.390625 45.40625 27.296875 
Q 45.40625 37.203125 41.296875 42.84375 
Q 37.203125 48.484375 30.078125 48.484375 
Q 22.953125 48.484375 18.875 42.84375 
Q 14.796875 37.203125 14.796875 27.296875 
z
M 45.40625 8.203125 
Q 42.578125 3.328125 38.25 0.953125 
Q 33.9375 -1.421875 27.875 -1.421875 
Q 17.96875 -1.421875 11.734375 6.484375 
Q 5.515625 14.40625 5.515625 27.296875 
Q 5.515625 40.1875 11.734375 48.09375 
Q 17.96875 56 27.875 56 
Q 33.9375 56 38.25 53.625 
Q 42.578125 51.265625 45.40625 46.390625 
L 45.40625 54.6875 
L 54.390625 54.6875 
L 54.390625 -20.796875 
L 45.40625 -20.796875 
z
" id="DejaVuSans-113"/>
       <path d="M 18.109375 8.203125 
L 18.109375 -20.796875 
L 9.078125 -20.796875 
L 9.078125 54.6875 
L 18.109375 54.6875 
L 18.109375 46.390625 
Q 20.953125 51.265625 25.265625 53.625 
Q 29.59375 56 35.59375 56 
Q 45.5625 56 51.78125 48.09375 
Q 58.015625 40.1875 58.015625 27.296875 
Q 58.015625 14.40625 51.78125 6.484375 
Q 45.5625 -1.421875 35.59375 -1.421875 
Q 29.59375 -1.421875 25.265625 0.953125 
Q 20.953125 3.328125 18.109375 8.203125 
z
M 48.6875 27.296875 
Q 48.6875 37.203125 44.609375 42.84375 
Q 40.53125 48.484375 33.40625 48.484375 
Q 26.265625 48.484375 22.1875 42.84375 
Q 18.109375 37.203125 18.109375 27.296875 
Q 18.109375 17.390625 22.1875 11.75 
Q 26.265625 6.109375 33.40625 6.109375 
Q 40.53125 6.109375 44.609375 11.75 
Q 48.6875 17.390625 48.6875 27.296875 
z
" id="DejaVuSans-112"/>
       <path d="M 50.984375 -16.609375 
L 50.984375 -23.578125 
L -0.984375 -23.578125 
L -0.984375 -16.609375 
z
" id="DejaVuSans-95"/>
       <path d="M 52 44.1875 
Q 55.375 50.25 60.0625 53.125 
Q 64.75 56 71.09375 56 
Q 79.640625 56 84.28125 50.015625 
Q 88.921875 44.046875 88.921875 33.015625 
L 88.921875 0 
L 79.890625 0 
L 79.890625 32.71875 
Q 79.890625 40.578125 77.09375 44.375 
Q 74.3125 48.1875 68.609375 48.1875 
Q 61.625 48.1875 57.5625 43.546875 
Q 53.515625 38.921875 53.515625 30.90625 
L 53.515625 0 
L 44.484375 0 
L 44.484375 32.71875 
Q 44.484375 40.625 41.703125 44.40625 
Q 38.921875 48.1875 33.109375 48.1875 
Q 26.21875 48.1875 22.15625 43.53125 
Q 18.109375 38.875 18.109375 30.90625 
L 18.109375 0 
L 9.078125 0 
L 9.078125 54.6875 
L 18.109375 54.6875 
L 18.109375 46.1875 
Q 21.1875 51.21875 25.484375 53.609375 
Q 29.78125 56 35.6875 56 
Q 41.65625 56 45.828125 52.96875 
Q 50 49.953125 52 44.1875 
z
" id="DejaVuSans-109"/>
       <path d="M 9.421875 54.6875 
L 18.40625 54.6875 
L 18.40625 0 
L 9.421875 0 
z
M 9.421875 75.984375 
L 18.40625 75.984375 
L 18.40625 64.59375 
L 9.421875 64.59375 
z
" id="DejaVuSans-105"/>
       <path d="M 54.890625 33.015625 
L 54.890625 0 
L 45.90625 0 
L 45.90625 32.71875 
Q 45.90625 40.484375 42.875 44.328125 
Q 39.84375 48.1875 33.796875 48.1875 
Q 26.515625 48.1875 22.3125 43.546875 
Q 18.109375 38.921875 18.109375 30.90625 
L 18.109375 0 
L 9.078125 0 
L 9.078125 54.6875 
L 18.109375 54.6875 
L 18.109375 46.1875 
Q 21.34375 51.125 25.703125 53.5625 
Q 30.078125 56 35.796875 56 
Q 45.21875 56 50.046875 50.171875 
Q 54.890625 44.34375 54.890625 33.015625 
z
" id="DejaVuSans-110"/>
       <path d="M 48.78125 52.59375 
L 48.78125 44.1875 
Q 44.96875 46.296875 41.140625 47.34375 
Q 37.3125 48.390625 33.40625 48.390625 
Q 24.65625 48.390625 19.8125 42.84375 
Q 14.984375 37.3125 14.984375 27.296875 
Q 14.984375 17.28125 19.8125 11.734375 
Q 24.65625 6.203125 33.40625 6.203125 
Q 37.3125 6.203125 41.140625 7.25 
Q 44.96875 8.296875 48.78125 10.40625 
L 48.78125 2.09375 
Q 45.015625 0.34375 40.984375 -0.53125 
Q 36.96875 -1.421875 32.421875 -1.421875 
Q 20.0625 -1.421875 12.78125 6.34375 
Q 5.515625 14.109375 5.515625 27.296875 
Q 5.515625 40.671875 12.859375 48.328125 
Q 20.21875 56 33.015625 56 
Q 37.15625 56 41.109375 55.140625 
Q 45.0625 54.296875 48.78125 52.59375 
z
" id="DejaVuSans-99"/>
       <path d="M 48.6875 27.296875 
Q 48.6875 37.203125 44.609375 42.84375 
Q 40.53125 48.484375 33.40625 48.484375 
Q 26.265625 48.484375 22.1875 42.84375 
Q 18.109375 37.203125 18.109375 27.296875 
Q 18.109375 17.390625 22.1875 11.75 
Q 26.265625 6.109375 33.40625 6.109375 
Q 40.53125 6.109375 44.609375 11.75 
Q 48.6875 17.390625 48.6875 27.296875 
z
M 18.109375 46.390625 
Q 20.953125 51.265625 25.265625 53.625 
Q 29.59375 56 35.59375 56 
Q 45.5625 56 51.78125 48.09375 
Q 58.015625 40.1875 58.015625 27.296875 
Q 58.015625 14.40625 51.78125 6.484375 
Q 45.5625 -1.421875 35.59375 -1.421875 
Q 29.59375 -1.421875 25.265625 0.953125 
Q 20.953125 3.328125 18.109375 8.203125 
L 18.109375 0 
L 9.078125 0 
L 9.078125 75.984375 
L 18.109375 75.984375 
z
" id="DejaVuSans-98"/>
       <path d="M 8.015625 75.875 
L 15.828125 75.875 
Q 23.140625 64.359375 26.78125 53.3125 
Q 30.421875 42.28125 30.421875 31.390625 
Q 30.421875 20.453125 26.78125 9.375 
Q 23.140625 -1.703125 15.828125 -13.1875 
L 8.015625 -13.1875 
Q 14.5 -2 17.703125 9.0625 
Q 20.90625 20.125 20.90625 31.390625 
Q 20.90625 42.671875 17.703125 53.65625 
Q 14.5 64.65625 8.015625 75.875 
z
" id="DejaVuSans-41"/>
      </defs>
      <use xlink:href="#DejaVuSans-108"/>
      <use x="27.783203" xlink:href="#DejaVuSans-111"/>
      <use x="88.964844" xlink:href="#DejaVuSans-103"/>
      <use x="152.441406" xlink:href="#DejaVuSans-49"/>
      <use x="216.064453" xlink:href="#DejaVuSans-48"/>
      <use x="279.6875" xlink:href="#DejaVuSans-40"/>
      <use x="318.701172" xlink:href="#DejaVuSans-69"/>
      <use x="381.884766" xlink:href="#DejaVuSans-82"/>
      <use x="444.117188" xlink:href="#DejaVuSans-84"/>
      <use x="505.201172" xlink:href="#DejaVuSans-32"/>
      <use x="536.988281" xlink:href="#DejaVuSans-111"/>
      <use x="598.169922" xlink:href="#DejaVuSans-102"/>
      <use x="633.375" xlink:href="#DejaVuSans-32"/>
      <use x="665.162109" xlink:href="#DejaVuSans-115"/>
      <use x="717.261719" xlink:href="#DejaVuSans-113"/>
      <use x="780.738281" xlink:href="#DejaVuSans-112"/>
      <use x="844.214844" xlink:href="#DejaVuSans-95"/>
      <use x="894.214844" xlink:href="#DejaVuSans-102"/>
      <use x="929.419922" xlink:href="#DejaVuSans-109"/>
      <use x="1026.832031" xlink:href="#DejaVuSans-105"/>
      <use x="1054.615234" xlink:href="#DejaVuSans-110"/>
      <use x="1117.994141" xlink:href="#DejaVuSans-99"/>
      <use x="1172.974609" xlink:href="#DejaVuSans-111"/>
      <use x="1234.15625" xlink:href="#DejaVuSans-110"/>
      <use x="1297.535156" xlink:href="#DejaVuSans-95"/>
      <use x="1347.535156" xlink:href="#DejaVuSans-111"/>
      <use x="1408.716797" xlink:href="#DejaVuSans-110"/>
      <use x="1472.095703" xlink:href="#DejaVuSans-95"/>
      <use x="1522.095703" xlink:href="#DejaVuSans-98"/>
      <use x="1585.572266" xlink:href="#DejaVuSans-98"/>
      <use x="1649.048828" xlink:href="#DejaVuSans-111"/>
      <use x="1710.230469" xlink:href="#DejaVuSans-41"/>
     </g>
    </g>
   </g>
   <g id="matplotlib.axis_2">
    <g id="ytick_1">
     <g id="line2d_19">
      <path clip-path="url(#p2e49d6c978)" d="M 45.941875 260.024228 
L 321.741875 260.024228 
" style="fill:none;stroke:#b0b0b0;stroke-linecap:square;stroke-width:0.8;"/>
     </g>
     <g id="line2d_20">
      <defs>
       <path d="M 0 0 
L -3.5 0 
" id="m00f5bd8575" style="stroke:#000000;stroke-width:0.8;"/>
      </defs>
      <g>
       <use style="stroke:#000000;stroke-width:0.8;" x="45.941875" xlink:href="#m00f5bd8575" y="260.024228"/>
      </g>
     </g>
     <g id="text_6">
      <!-- 2 -->
      <g transform="translate(28.125625 266.4829)scale(0.17 -0.17)">
       <use xlink:href="#DejaVuSans-50"/>
      </g>
     </g>
    </g>
    <g id="ytick_2">
     <g id="line2d_21">
      <path clip-path="url(#p2e49d6c978)" d="M 45.941875 200.065427 
L 321.741875 200.065427 
" style="fill:none;stroke:#b0b0b0;stroke-linecap:square;stroke-width:0.8;"/>
     </g>
     <g id="line2d_22">
      <g>
       <use style="stroke:#000000;stroke-width:0.8;" x="45.941875" xlink:href="#m00f5bd8575" y="200.065427"/>
      </g>
     </g>
     <g id="text_7">
      <!-- 3 -->
      <g transform="translate(28.125625 206.524098)scale(0.17 -0.17)">
       <use xlink:href="#DejaVuSans-51"/>
      </g>
     </g>
    </g>
    <g id="ytick_3">
     <g id="line2d_23">
      <path clip-path="url(#p2e49d6c978)" d="M 45.941875 140.106625 
L 321.741875 140.106625 
" style="fill:none;stroke:#b0b0b0;stroke-linecap:square;stroke-width:0.8;"/>
     </g>
     <g id="line2d_24">
      <g>
       <use style="stroke:#000000;stroke-width:0.8;" x="45.941875" xlink:href="#m00f5bd8575" y="140.106625"/>
      </g>
     </g>
     <g id="text_8">
      <!-- 4 -->
      <g transform="translate(28.125625 146.565297)scale(0.17 -0.17)">
       <use xlink:href="#DejaVuSans-52"/>
      </g>
     </g>
    </g>
    <g id="ytick_4">
     <g id="line2d_25">
      <path clip-path="url(#p2e49d6c978)" d="M 45.941875 80.147823 
L 321.741875 80.147823 
" style="fill:none;stroke:#b0b0b0;stroke-linecap:square;stroke-width:0.8;"/>
     </g>
     <g id="line2d_26">
      <g>
       <use style="stroke:#000000;stroke-width:0.8;" x="45.941875" xlink:href="#m00f5bd8575" y="80.147823"/>
      </g>
     </g>
     <g id="text_9">
      <!-- 5 -->
      <g transform="translate(28.125625 86.606495)scale(0.17 -0.17)">
       <use xlink:href="#DejaVuSans-53"/>
      </g>
     </g>
    </g>
    <g id="ytick_5">
     <g id="line2d_27">
      <defs>
       <path d="M 0 0 
L -2 0 
" id="m4e56c4da6b" style="stroke:#000000;stroke-width:0.6;"/>
      </defs>
      <g>
       <use style="stroke:#000000;stroke-width:0.6;" x="45.941875" xlink:href="#m4e56c4da6b" y="291.375411"/>
      </g>
     </g>
    </g>
    <g id="ytick_6">
     <g id="line2d_28">
      <g>
       <use style="stroke:#000000;stroke-width:0.6;" x="45.941875" xlink:href="#m4e56c4da6b" y="283.884234"/>
      </g>
     </g>
    </g>
    <g id="ytick_7">
     <g id="line2d_29">
      <g>
       <use style="stroke:#000000;stroke-width:0.6;" x="45.941875" xlink:href="#m4e56c4da6b" y="278.073626"/>
      </g>
     </g>
    </g>
    <g id="ytick_8">
     <g id="line2d_30">
      <g>
       <use style="stroke:#000000;stroke-width:0.6;" x="45.941875" xlink:href="#m4e56c4da6b" y="273.326013"/>
      </g>
     </g>
    </g>
    <g id="ytick_9">
     <g id="line2d_31">
      <g>
       <use style="stroke:#000000;stroke-width:0.6;" x="45.941875" xlink:href="#m4e56c4da6b" y="269.311964"/>
      </g>
     </g>
    </g>
    <g id="ytick_10">
     <g id="line2d_32">
      <g>
       <use style="stroke:#000000;stroke-width:0.6;" x="45.941875" xlink:href="#m4e56c4da6b" y="265.834837"/>
      </g>
     </g>
    </g>
    <g id="ytick_11">
     <g id="line2d_33">
      <g>
       <use style="stroke:#000000;stroke-width:0.6;" x="45.941875" xlink:href="#m4e56c4da6b" y="262.767793"/>
      </g>
     </g>
    </g>
    <g id="ytick_12">
     <g id="line2d_34">
      <g>
       <use style="stroke:#000000;stroke-width:0.6;" x="45.941875" xlink:href="#m4e56c4da6b" y="241.97483"/>
      </g>
     </g>
    </g>
    <g id="ytick_13">
     <g id="line2d_35">
      <g>
       <use style="stroke:#000000;stroke-width:0.6;" x="45.941875" xlink:href="#m4e56c4da6b" y="231.41661"/>
      </g>
     </g>
    </g>
    <g id="ytick_14">
     <g id="line2d_36">
      <g>
       <use style="stroke:#000000;stroke-width:0.6;" x="45.941875" xlink:href="#m4e56c4da6b" y="223.925433"/>
      </g>
     </g>
    </g>
    <g id="ytick_15">
     <g id="line2d_37">
      <g>
       <use style="stroke:#000000;stroke-width:0.6;" x="45.941875" xlink:href="#m4e56c4da6b" y="218.114824"/>
      </g>
     </g>
    </g>
    <g id="ytick_16">
     <g id="line2d_38">
      <g>
       <use style="stroke:#000000;stroke-width:0.6;" x="45.941875" xlink:href="#m4e56c4da6b" y="213.367212"/>
      </g>
     </g>
    </g>
    <g id="ytick_17">
     <g id="line2d_39">
      <g>
       <use style="stroke:#000000;stroke-width:0.6;" x="45.941875" xlink:href="#m4e56c4da6b" y="209.353162"/>
      </g>
     </g>
    </g>
    <g id="ytick_18">
     <g id="line2d_40">
      <g>
       <use style="stroke:#000000;stroke-width:0.6;" x="45.941875" xlink:href="#m4e56c4da6b" y="205.876035"/>
      </g>
     </g>
    </g>
    <g id="ytick_19">
     <g id="line2d_41">
      <g>
       <use style="stroke:#000000;stroke-width:0.6;" x="45.941875" xlink:href="#m4e56c4da6b" y="202.808991"/>
      </g>
     </g>
    </g>
    <g id="ytick_20">
     <g id="line2d_42">
      <g>
       <use style="stroke:#000000;stroke-width:0.6;" x="45.941875" xlink:href="#m4e56c4da6b" y="182.016029"/>
      </g>
     </g>
    </g>
    <g id="ytick_21">
     <g id="line2d_43">
      <g>
       <use style="stroke:#000000;stroke-width:0.6;" x="45.941875" xlink:href="#m4e56c4da6b" y="171.457808"/>
      </g>
     </g>
    </g>
    <g id="ytick_22">
     <g id="line2d_44">
      <g>
       <use style="stroke:#000000;stroke-width:0.6;" x="45.941875" xlink:href="#m4e56c4da6b" y="163.966631"/>
      </g>
     </g>
    </g>
    <g id="ytick_23">
     <g id="line2d_45">
      <g>
       <use style="stroke:#000000;stroke-width:0.6;" x="45.941875" xlink:href="#m4e56c4da6b" y="158.156023"/>
      </g>
     </g>
    </g>
    <g id="ytick_24">
     <g id="line2d_46">
      <g>
       <use style="stroke:#000000;stroke-width:0.6;" x="45.941875" xlink:href="#m4e56c4da6b" y="153.40841"/>
      </g>
     </g>
    </g>
    <g id="ytick_25">
     <g id="line2d_47">
      <g>
       <use style="stroke:#000000;stroke-width:0.6;" x="45.941875" xlink:href="#m4e56c4da6b" y="149.394361"/>
      </g>
     </g>
    </g>
    <g id="ytick_26">
     <g id="line2d_48">
      <g>
       <use style="stroke:#000000;stroke-width:0.6;" x="45.941875" xlink:href="#m4e56c4da6b" y="145.917233"/>
      </g>
     </g>
    </g>
    <g id="ytick_27">
     <g id="line2d_49">
      <g>
       <use style="stroke:#000000;stroke-width:0.6;" x="45.941875" xlink:href="#m4e56c4da6b" y="142.850189"/>
      </g>
     </g>
    </g>
    <g id="ytick_28">
     <g id="line2d_50">
      <g>
       <use style="stroke:#000000;stroke-width:0.6;" x="45.941875" xlink:href="#m4e56c4da6b" y="122.057227"/>
      </g>
     </g>
    </g>
    <g id="ytick_29">
     <g id="line2d_51">
      <g>
       <use style="stroke:#000000;stroke-width:0.6;" x="45.941875" xlink:href="#m4e56c4da6b" y="111.499006"/>
      </g>
     </g>
    </g>
    <g id="ytick_30">
     <g id="line2d_52">
      <g>
       <use style="stroke:#000000;stroke-width:0.6;" x="45.941875" xlink:href="#m4e56c4da6b" y="104.007829"/>
      </g>
     </g>
    </g>
    <g id="ytick_31">
     <g id="line2d_53">
      <g>
       <use style="stroke:#000000;stroke-width:0.6;" x="45.941875" xlink:href="#m4e56c4da6b" y="98.197221"/>
      </g>
     </g>
    </g>
    <g id="ytick_32">
     <g id="line2d_54">
      <g>
       <use style="stroke:#000000;stroke-width:0.6;" x="45.941875" xlink:href="#m4e56c4da6b" y="93.449608"/>
      </g>
     </g>
    </g>
    <g id="ytick_33">
     <g id="line2d_55">
      <g>
       <use style="stroke:#000000;stroke-width:0.6;" x="45.941875" xlink:href="#m4e56c4da6b" y="89.435559"/>
      </g>
     </g>
    </g>
    <g id="ytick_34">
     <g id="line2d_56">
      <g>
       <use style="stroke:#000000;stroke-width:0.6;" x="45.941875" xlink:href="#m4e56c4da6b" y="85.958431"/>
      </g>
     </g>
    </g>
    <g id="ytick_35">
     <g id="line2d_57">
      <g>
       <use style="stroke:#000000;stroke-width:0.6;" x="45.941875" xlink:href="#m4e56c4da6b" y="82.891387"/>
      </g>
     </g>
    </g>
    <g id="ytick_36">
     <g id="line2d_58">
      <g>
       <use style="stroke:#000000;stroke-width:0.6;" x="45.941875" xlink:href="#m4e56c4da6b" y="62.098425"/>
      </g>
     </g>
    </g>
    <g id="ytick_37">
     <g id="line2d_59">
      <g>
       <use style="stroke:#000000;stroke-width:0.6;" x="45.941875" xlink:href="#m4e56c4da6b" y="51.540204"/>
      </g>
     </g>
    </g>
    <g id="ytick_38">
     <g id="line2d_60">
      <g>
       <use style="stroke:#000000;stroke-width:0.6;" x="45.941875" xlink:href="#m4e56c4da6b" y="44.049027"/>
      </g>
     </g>
    </g>
    <g id="ytick_39">
     <g id="line2d_61">
      <g>
       <use style="stroke:#000000;stroke-width:0.6;" x="45.941875" xlink:href="#m4e56c4da6b" y="38.238419"/>
      </g>
     </g>
    </g>
    <g id="ytick_40">
     <g id="line2d_62">
      <g>
       <use style="stroke:#000000;stroke-width:0.6;" x="45.941875" xlink:href="#m4e56c4da6b" y="33.490807"/>
      </g>
     </g>
    </g>
    <g id="ytick_41">
     <g id="line2d_63">
      <g>
       <use style="stroke:#000000;stroke-width:0.6;" x="45.941875" xlink:href="#m4e56c4da6b" y="29.476757"/>
      </g>
     </g>
    </g>
    <g id="ytick_42">
     <g id="line2d_64">
      <g>
       <use style="stroke:#000000;stroke-width:0.6;" x="45.941875" xlink:href="#m4e56c4da6b" y="25.99963"/>
      </g>
     </g>
    </g>
    <g id="text_10">
     <!-- log10(ERT of sqp_fmincon_on_bbo) -->
     <g transform="translate(20.117344 312.098375)rotate(-90)scale(0.17 -0.17)">
      <use xlink:href="#DejaVuSans-108"/>
      <use x="27.783203" xlink:href="#DejaVuSans-111"/>
      <use x="88.964844" xlink:href="#DejaVuSans-103"/>
      <use x="152.441406" xlink:href="#DejaVuSans-49"/>
      <use x="216.064453" xlink:href="#DejaVuSans-48"/>
      <use x="279.6875" xlink:href="#DejaVuSans-40"/>
      <use x="318.701172" xlink:href="#DejaVuSans-69"/>
      <use x="381.884766" xlink:href="#DejaVuSans-82"/>
      <use x="444.117188" xlink:href="#DejaVuSans-84"/>
      <use x="505.201172" xlink:href="#DejaVuSans-32"/>
      <use x="536.988281" xlink:href="#DejaVuSans-111"/>
      <use x="598.169922" xlink:href="#DejaVuSans-102"/>
      <use x="633.375" xlink:href="#DejaVuSans-32"/>
      <use x="665.162109" xlink:href="#DejaVuSans-115"/>
      <use x="717.261719" xlink:href="#DejaVuSans-113"/>
      <use x="780.738281" xlink:href="#DejaVuSans-112"/>
      <use x="844.214844" xlink:href="#DejaVuSans-95"/>
      <use x="894.214844" xlink:href="#DejaVuSans-102"/>
      <use x="929.419922" xlink:href="#DejaVuSans-109"/>
      <use x="1026.832031" xlink:href="#DejaVuSans-105"/>
      <use x="1054.615234" xlink:href="#DejaVuSans-110"/>
      <use x="1117.994141" xlink:href="#DejaVuSans-99"/>
      <use x="1172.974609" xlink:href="#DejaVuSans-111"/>
      <use x="1234.15625" xlink:href="#DejaVuSans-110"/>
      <use x="1297.535156" xlink:href="#DejaVuSans-95"/>
      <use x="1347.535156" xlink:href="#DejaVuSans-111"/>
      <use x="1408.716797" xlink:href="#DejaVuSans-110"/>
      <use x="1472.095703" xlink:href="#DejaVuSans-95"/>
      <use x="1522.095703" xlink:href="#DejaVuSans-98"/>
      <use x="1585.572266" xlink:href="#DejaVuSans-98"/>
      <use x="1649.048828" xlink:href="#DejaVuSans-111"/>
      <use x="1710.230469" xlink:href="#DejaVuSans-41"/>
     </g>
    </g>
   </g>
   <g id="line2d_65">
    <defs>
     <path d="M -7 0 
L 7 0 
M 0 7 
L 0 -7 
" id="me47a9295ba" style="stroke:#00bfbf;stroke-width:3;"/>
    </defs>
    <g>
     <use style="fill-opacity:0;stroke:#00bfbf;stroke-width:3;" x="93.286513" xlink:href="#me47a9295ba" y="235.169645"/>
     <use style="fill-opacity:0;stroke:#00bfbf;stroke-width:3;" x="57.664775" xlink:href="#me47a9295ba" y="283.711212"/>
     <use style="fill-opacity:0;stroke:#00bfbf;stroke-width:3;" x="63.626214" xlink:href="#me47a9295ba" y="279.795892"/>
     <use style="fill-opacity:0;stroke:#00bfbf;stroke-width:3;" x="74.72311" xlink:href="#me47a9295ba" y="276.589092"/>
     <use style="fill-opacity:0;stroke:#00bfbf;stroke-width:3;" x="80.488783" xlink:href="#me47a9295ba" y="273.616964"/>
     <use style="fill-opacity:0;stroke:#00bfbf;stroke-width:3;" x="85.46773" xlink:href="#me47a9295ba" y="241.957476"/>
     <use style="fill-opacity:0;stroke:#00bfbf;stroke-width:3;" x="86.947866" xlink:href="#me47a9295ba" y="239.272963"/>
     <use style="fill-opacity:0;stroke:#00bfbf;stroke-width:3;" x="90.116096" xlink:href="#me47a9295ba" y="233.462355"/>
     <use style="fill-opacity:0;stroke:#00bfbf;stroke-width:3;" x="91.916798" xlink:href="#me47a9295ba" y="232.709672"/>
     <use style="fill-opacity:0;stroke:#00bfbf;stroke-width:3;" x="94.324737" xlink:href="#me47a9295ba" y="231.358808"/>
     <use style="fill-opacity:0;stroke:#00bfbf;stroke-width:3;" x="95.588927" xlink:href="#me47a9295ba" y="230.56277"/>
     <use style="fill-opacity:0;stroke:#00bfbf;stroke-width:3;" x="99.465905" xlink:href="#me47a9295ba" y="229.337657"/>
     <use style="fill-opacity:0;stroke:#00bfbf;stroke-width:3;" x="135.213597" xlink:href="#me47a9295ba" y="227.392642"/>
     <use style="fill-opacity:0;stroke:#00bfbf;stroke-width:3;" x="136.388523" xlink:href="#me47a9295ba" y="225.889931"/>
     <use style="fill-opacity:0;stroke:#00bfbf;stroke-width:3;" x="136.467244" xlink:href="#me47a9295ba" y="224.902674"/>
     <use style="fill-opacity:0;stroke:#00bfbf;stroke-width:3;" x="136.846255" xlink:href="#me47a9295ba" y="223.490745"/>
     <use style="fill-opacity:0;stroke:#00bfbf;stroke-width:3;" x="152.253712" xlink:href="#me47a9295ba" y="223.320577"/>
     <use style="fill-opacity:0;stroke:#00bfbf;stroke-width:3;" x="152.385285" xlink:href="#me47a9295ba" y="222.816647"/>
     <use style="fill-opacity:0;stroke:#00bfbf;stroke-width:3;" x="154.535117" xlink:href="#me47a9295ba" y="203.179477"/>
     <use style="fill-opacity:0;stroke:#00bfbf;stroke-width:3;" x="156.879302" xlink:href="#me47a9295ba" y="203.099941"/>
     <use style="fill-opacity:0;stroke:#00bfbf;stroke-width:3;" x="156.952614" xlink:href="#me47a9295ba" y="202.941593"/>
     <use style="fill-opacity:0;stroke:#00bfbf;stroke-width:3;" x="157.037075" xlink:href="#me47a9295ba" y="200.924742"/>
    </g>
   </g>
   <g id="line2d_66">
    <defs>
     <path d="M -0 7 
L 7 -7 
L -7 -7 
z
" id="mcf742beaa5" style="stroke:#008000;stroke-linejoin:miter;stroke-width:3;"/>
    </defs>
    <g>
     <use style="fill-opacity:0;stroke:#008000;stroke-linejoin:miter;stroke-width:3;" x="160.611358" xlink:href="#mcf742beaa5" y="176.310486"/>
     <use style="fill-opacity:0;stroke:#008000;stroke-linejoin:miter;stroke-width:3;" x="67.787173" xlink:href="#mcf742beaa5" y="258.474185"/>
     <use style="fill-opacity:0;stroke:#008000;stroke-linejoin:miter;stroke-width:3;" x="71.310041" xlink:href="#mcf742beaa5" y="253.623186"/>
     <use style="fill-opacity:0;stroke:#008000;stroke-linejoin:miter;stroke-width:3;" x="73.102334" xlink:href="#mcf742beaa5" y="250.12231"/>
     <use style="fill-opacity:0;stroke:#008000;stroke-linejoin:miter;stroke-width:3;" x="79.526783" xlink:href="#mcf742beaa5" y="247.248517"/>
     <use style="fill-opacity:0;stroke:#008000;stroke-linejoin:miter;stroke-width:3;" x="86.127928" xlink:href="#mcf742beaa5" y="238.761603"/>
     <use style="fill-opacity:0;stroke:#008000;stroke-linejoin:miter;stroke-width:3;" x="91.300616" xlink:href="#mcf742beaa5" y="219.476086"/>
     <use style="fill-opacity:0;stroke:#008000;stroke-linejoin:miter;stroke-width:3;" x="92.716327" xlink:href="#mcf742beaa5" y="198.586749"/>
     <use style="fill-opacity:0;stroke:#008000;stroke-linejoin:miter;stroke-width:3;" x="98.244199" xlink:href="#mcf742beaa5" y="198.408118"/>
     <use style="fill-opacity:0;stroke:#008000;stroke-linejoin:miter;stroke-width:3;" x="103.293288" xlink:href="#mcf742beaa5" y="197.910263"/>
     <use style="fill-opacity:0;stroke:#008000;stroke-linejoin:miter;stroke-width:3;" x="107.536483" xlink:href="#mcf742beaa5" y="197.505906"/>
     <use style="fill-opacity:0;stroke:#008000;stroke-linejoin:miter;stroke-width:3;" x="108.543391" xlink:href="#mcf742beaa5" y="193.296549"/>
     <use style="fill-opacity:0;stroke:#008000;stroke-linejoin:miter;stroke-width:3;" x="109.8936" xlink:href="#mcf742beaa5" y="191.192404"/>
     <use style="fill-opacity:0;stroke:#008000;stroke-linejoin:miter;stroke-width:3;" x="153.241188" xlink:href="#mcf742beaa5" y="190.702285"/>
     <use style="fill-opacity:0;stroke:#008000;stroke-linejoin:miter;stroke-width:3;" x="159.350201" xlink:href="#mcf742beaa5" y="190.277357"/>
     <use style="fill-opacity:0;stroke:#008000;stroke-linejoin:miter;stroke-width:3;" x="159.378166" xlink:href="#mcf742beaa5" y="190.09789"/>
     <use style="fill-opacity:0;stroke:#008000;stroke-linejoin:miter;stroke-width:3;" x="164.679806" xlink:href="#mcf742beaa5" y="175.462956"/>
     <use style="fill-opacity:0;stroke:#008000;stroke-linejoin:miter;stroke-width:3;" x="180.123292" xlink:href="#mcf742beaa5" y="159.100433"/>
     <use style="fill-opacity:0;stroke:#008000;stroke-linejoin:miter;stroke-width:3;" x="180.37313" xlink:href="#mcf742beaa5" y="154.756871"/>
     <use style="fill-opacity:0;stroke:#008000;stroke-linejoin:miter;stroke-width:3;" x="183.966839" xlink:href="#mcf742beaa5" y="151.974028"/>
     <use style="fill-opacity:0;stroke:#008000;stroke-linejoin:miter;stroke-width:3;" x="186.248445" xlink:href="#mcf742beaa5" y="151.929798"/>
     <use style="fill-opacity:0;stroke:#008000;stroke-linejoin:miter;stroke-width:3;" x="186.313326" xlink:href="#mcf742beaa5" y="141.022546"/>
    </g>
   </g>
   <g id="line2d_67">
    <defs>
     <path d="M 0 -7 
L -1.571598 -2.163119 
L -6.657396 -2.163119 
L -2.542899 0.826238 
L -4.114497 5.663119 
L -0 2.673762 
L 4.114497 5.663119 
L 2.542899 0.826238 
L 6.657396 -2.163119 
L 1.571598 -2.163119 
z
" id="me214ef4b01" style="stroke:#0000ff;stroke-linejoin:bevel;stroke-width:3;"/>
    </defs>
    <g>
     <use style="fill-opacity:0;stroke:#0000ff;stroke-linejoin:bevel;stroke-width:3;" x="188.351876" xlink:href="#me214ef4b01" y="163.1338"/>
     <use style="fill-opacity:0;stroke:#0000ff;stroke-linejoin:bevel;stroke-width:3;" x="74.155772" xlink:href="#me214ef4b01" y="239.938654"/>
     <use style="fill-opacity:0;stroke:#0000ff;stroke-linejoin:bevel;stroke-width:3;" x="86.665589" xlink:href="#me214ef4b01" y="236.429438"/>
     <use style="fill-opacity:0;stroke:#0000ff;stroke-linejoin:bevel;stroke-width:3;" x="89.005151" xlink:href="#me214ef4b01" y="234.548834"/>
     <use style="fill-opacity:0;stroke:#0000ff;stroke-linejoin:bevel;stroke-width:3;" x="102.065855" xlink:href="#me214ef4b01" y="233.064793"/>
     <use style="fill-opacity:0;stroke:#0000ff;stroke-linejoin:bevel;stroke-width:3;" x="103.274548" xlink:href="#me214ef4b01" y="232.12043"/>
     <use style="fill-opacity:0;stroke:#0000ff;stroke-linejoin:bevel;stroke-width:3;" x="104.159212" xlink:href="#me214ef4b01" y="231.26659"/>
     <use style="fill-opacity:0;stroke:#0000ff;stroke-linejoin:bevel;stroke-width:3;" x="104.90938" xlink:href="#me214ef4b01" y="230.529192"/>
     <use style="fill-opacity:0;stroke:#0000ff;stroke-linejoin:bevel;stroke-width:3;" x="106.662474" xlink:href="#me214ef4b01" y="229.434002"/>
     <use style="fill-opacity:0;stroke:#0000ff;stroke-linejoin:bevel;stroke-width:3;" x="107.296631" xlink:href="#me214ef4b01" y="228.819278"/>
     <use style="fill-opacity:0;stroke:#0000ff;stroke-linejoin:bevel;stroke-width:3;" x="107.978381" xlink:href="#me214ef4b01" y="228.167603"/>
     <use style="fill-opacity:0;stroke:#0000ff;stroke-linejoin:bevel;stroke-width:3;" x="108.474391" xlink:href="#me214ef4b01" y="227.752093"/>
     <use style="fill-opacity:0;stroke:#0000ff;stroke-linejoin:bevel;stroke-width:3;" x="111.059331" xlink:href="#me214ef4b01" y="227.511909"/>
     <use style="fill-opacity:0;stroke:#0000ff;stroke-linejoin:bevel;stroke-width:3;" x="183.232038" xlink:href="#me214ef4b01" y="226.794676"/>
     <use style="fill-opacity:0;stroke:#0000ff;stroke-linejoin:bevel;stroke-width:3;" x="199.405539" xlink:href="#me214ef4b01" y="181.774425"/>
     <use style="fill-opacity:0;stroke:#0000ff;stroke-linejoin:bevel;stroke-width:3;" x="225.293807" xlink:href="#me214ef4b01" y="161.758442"/>
    </g>
   </g>
   <g id="line2d_68">
    <defs>
     <path d="M 0 -4 
L -0.898056 -1.236068 
L -3.804226 -1.236068 
L -1.453085 0.472136 
L -2.351141 3.236068 
L -0 1.527864 
L 2.351141 3.236068 
L 1.453085 0.472136 
L 3.804226 -1.236068 
L 0.898056 -1.236068 
z
" id="mdfd0ed32fd" style="stroke:#0000ff;stroke-linejoin:bevel;"/>
    </defs>
    <g>
     <use style="fill-opacity:0;stroke:#0000ff;stroke-linejoin:bevel;" x="238.295355" xlink:href="#mdfd0ed32fd" y="140.52716"/>
     <use style="fill-opacity:0;stroke:#0000ff;stroke-linejoin:bevel;" x="239.539675" xlink:href="#mdfd0ed32fd" y="127.204609"/>
     <use style="fill-opacity:0;stroke:#0000ff;stroke-linejoin:bevel;" x="265.830959" xlink:href="#mdfd0ed32fd" y="117.231071"/>
     <use style="fill-opacity:0;stroke:#0000ff;stroke-linejoin:bevel;" x="285.463793" xlink:href="#mdfd0ed32fd" y="97.573884"/>
     <use style="fill-opacity:0;stroke:#0000ff;stroke-linejoin:bevel;" x="285.465337" xlink:href="#mdfd0ed32fd" y="85.08339"/>
     <use style="fill-opacity:0;stroke:#0000ff;stroke-linejoin:bevel;" x="285.465337" xlink:href="#mdfd0ed32fd" y="85.081974"/>
    </g>
   </g>
   <g id="line2d_69">
    <defs>
     <path d="M 0 7 
C 1.856422 7 3.637059 6.262436 4.949747 4.949747 
C 6.262436 3.637059 7 1.856422 7 0 
C 7 -1.856422 6.262436 -3.637059 4.949747 -4.949747 
C 3.637059 -6.262436 1.856422 -7 0 -7 
C -1.856422 -7 -3.637059 -6.262436 -4.949747 -4.949747 
C -6.262436 -3.637059 -7 -1.856422 -7 0 
C -7 1.856422 -6.262436 3.637059 -4.949747 4.949747 
C -3.637059 6.262436 -1.856422 7 0 7 
z
" id="m879e2a74ab" style="stroke:#000000;stroke-width:3;"/>
    </defs>
    <g>
     <use style="fill-opacity:0;stroke:#000000;stroke-width:3;" x="189.302466" xlink:href="#m879e2a74ab" y="159.059292"/>
     <use style="fill-opacity:0;stroke:#000000;stroke-width:3;" x="92.262463" xlink:href="#m879e2a74ab" y="243.641515"/>
     <use style="fill-opacity:0;stroke:#000000;stroke-width:3;" x="95.054628" xlink:href="#m879e2a74ab" y="239.540363"/>
     <use style="fill-opacity:0;stroke:#000000;stroke-width:3;" x="96.553015" xlink:href="#m879e2a74ab" y="237.532801"/>
     <use style="fill-opacity:0;stroke:#000000;stroke-width:3;" x="99.33538" xlink:href="#m879e2a74ab" y="236.527834"/>
     <use style="fill-opacity:0;stroke:#000000;stroke-width:3;" x="101.389459" xlink:href="#m879e2a74ab" y="233.499939"/>
     <use style="fill-opacity:0;stroke:#000000;stroke-width:3;" x="103.720637" xlink:href="#m879e2a74ab" y="232.299398"/>
     <use style="fill-opacity:0;stroke:#000000;stroke-width:3;" x="106.563526" xlink:href="#m879e2a74ab" y="229.220385"/>
     <use style="fill-opacity:0;stroke:#000000;stroke-width:3;" x="108.900783" xlink:href="#m879e2a74ab" y="175.397461"/>
     <use style="fill-opacity:0;stroke:#000000;stroke-width:3;" x="156.268434" xlink:href="#m879e2a74ab" y="171.349534"/>
     <use style="fill-opacity:0;stroke:#000000;stroke-width:3;" x="167.425556" xlink:href="#m879e2a74ab" y="161.518941"/>
     <use style="fill-opacity:0;stroke:#000000;stroke-width:3;" x="203.811232" xlink:href="#m879e2a74ab" y="146.916194"/>
     <use style="fill-opacity:0;stroke:#000000;stroke-width:3;" x="207.038259" xlink:href="#m879e2a74ab" y="138.239161"/>
    </g>
   </g>
   <g id="line2d_70">
    <defs>
     <path d="M 0 4 
C 1.060812 4 2.078319 3.578535 2.828427 2.828427 
C 3.578535 2.078319 4 1.060812 4 0 
C 4 -1.060812 3.578535 -2.078319 2.828427 -2.828427 
C 2.078319 -3.578535 1.060812 -4 0 -4 
C -1.060812 -4 -2.078319 -3.578535 -2.828427 -2.828427 
C -3.578535 -2.078319 -4 -1.060812 -4 0 
C -4 1.060812 -3.578535 2.078319 -2.828427 2.828427 
C -2.078319 3.578535 -1.060812 4 0 4 
z
" id="m43992c12f2" style="stroke:#000000;"/>
    </defs>
    <g>
     <use style="fill-opacity:0;stroke:#000000;" x="236.872073" xlink:href="#m43992c12f2" y="88.745673"/>
     <use style="fill-opacity:0;stroke:#000000;" x="272.328893" xlink:href="#m43992c12f2" y="56.63742"/>
     <use style="fill-opacity:0;stroke:#000000;" x="292.122771" xlink:href="#m43992c12f2" y="56.562996"/>
    </g>
   </g>
   <g id="line2d_71">
    <g>
     <use style="fill-opacity:0;stroke:#000000;" x="321.741875" xlink:href="#m43992c12f2" y="25.509469"/>
     <use style="fill-opacity:0;stroke:#000000;" x="321.741875" xlink:href="#m43992c12f2" y="25.509469"/>
     <use style="fill-opacity:0;stroke:#000000;" x="321.741875" xlink:href="#m43992c12f2" y="25.509469"/>
     <use style="fill-opacity:0;stroke:#000000;" x="321.741875" xlink:href="#m43992c12f2" y="25.509469"/>
     <use style="fill-opacity:0;stroke:#000000;" x="321.741875" xlink:href="#m43992c12f2" y="25.509469"/>
     <use style="fill-opacity:0;stroke:#000000;" x="321.741875" xlink:href="#m43992c12f2" y="25.509469"/>
    </g>
   </g>
   <g id="line2d_72">
    <defs>
     <path d="M -7 7 
L 7 7 
L 7 -7 
L -7 -7 
z
" id="m8b9f458d09" style="stroke:#ff0000;stroke-linejoin:miter;stroke-width:3;"/>
    </defs>
    <g>
     <use style="fill-opacity:0;stroke:#ff0000;stroke-linejoin:miter;stroke-width:3;" x="213.920212" xlink:href="#m8b9f458d09" y="135.738032"/>
     <use style="fill-opacity:0;stroke:#ff0000;stroke-linejoin:miter;stroke-width:3;" x="95.487997" xlink:href="#m8b9f458d09" y="247.269783"/>
     <use style="fill-opacity:0;stroke:#ff0000;stroke-linejoin:miter;stroke-width:3;" x="98.130239" xlink:href="#m8b9f458d09" y="244.202739"/>
     <use style="fill-opacity:0;stroke:#ff0000;stroke-linejoin:miter;stroke-width:3;" x="103.048605" xlink:href="#m8b9f458d09" y="242.14901"/>
     <use style="fill-opacity:0;stroke:#ff0000;stroke-linejoin:miter;stroke-width:3;" x="106.761048" xlink:href="#m8b9f458d09" y="239.367026"/>
     <use style="fill-opacity:0;stroke:#ff0000;stroke-linejoin:miter;stroke-width:3;" x="108.900783" xlink:href="#m8b9f458d09" y="237.547443"/>
     <use style="fill-opacity:0;stroke:#ff0000;stroke-linejoin:miter;stroke-width:3;" x="111.74535" xlink:href="#m8b9f458d09" y="235.142924"/>
     <use style="fill-opacity:0;stroke:#ff0000;stroke-linejoin:miter;stroke-width:3;" x="114.309554" xlink:href="#m8b9f458d09" y="233.374868"/>
     <use style="fill-opacity:0;stroke:#ff0000;stroke-linejoin:miter;stroke-width:3;" x="179.111225" xlink:href="#m8b9f458d09" y="226.814066"/>
     <use style="fill-opacity:0;stroke:#ff0000;stroke-linejoin:miter;stroke-width:3;" x="179.207114" xlink:href="#m8b9f458d09" y="177.335151"/>
     <use style="fill-opacity:0;stroke:#ff0000;stroke-linejoin:miter;stroke-width:3;" x="179.364347" xlink:href="#m8b9f458d09" y="168.854491"/>
     <use style="fill-opacity:0;stroke:#ff0000;stroke-linejoin:miter;stroke-width:3;" x="231.730234" xlink:href="#m8b9f458d09" y="129.344672"/>
    </g>
   </g>
   <g id="line2d_73">
    <defs>
     <path d="M -4 4 
L 4 4 
L 4 -4 
L -4 -4 
z
" id="m927c06fe70" style="stroke:#ff0000;stroke-linejoin:miter;"/>
    </defs>
    <g>
     <use style="fill-opacity:0;stroke:#ff0000;stroke-linejoin:miter;" x="256.101533" xlink:href="#m927c06fe70" y="116.093746"/>
     <use style="fill-opacity:0;stroke:#ff0000;stroke-linejoin:miter;" x="290.631706" xlink:href="#m927c06fe70" y="57.919602"/>
    </g>
   </g>
   <g id="line2d_74">
    <g>
     <use style="fill-opacity:0;stroke:#ff0000;stroke-linejoin:miter;" x="321.741875" xlink:href="#m927c06fe70" y="37.998916"/>
     <use style="fill-opacity:0;stroke:#ff0000;stroke-linejoin:miter;" x="321.741875" xlink:href="#m927c06fe70" y="37.80479"/>
    </g>
   </g>
   <g id="line2d_75">
    <g>
     <use style="fill-opacity:0;stroke:#ff0000;stroke-linejoin:miter;" x="321.741875" xlink:href="#m927c06fe70" y="25.509469"/>
     <use style="fill-opacity:0;stroke:#ff0000;stroke-linejoin:miter;" x="321.741875" xlink:href="#m927c06fe70" y="25.509469"/>
     <use style="fill-opacity:0;stroke:#ff0000;stroke-linejoin:miter;" x="321.741875" xlink:href="#m927c06fe70" y="25.509469"/>
     <use style="fill-opacity:0;stroke:#ff0000;stroke-linejoin:miter;" x="321.741875" xlink:href="#m927c06fe70" y="25.509469"/>
     <use style="fill-opacity:0;stroke:#ff0000;stroke-linejoin:miter;" x="321.741875" xlink:href="#m927c06fe70" y="25.509469"/>
     <use style="fill-opacity:0;stroke:#ff0000;stroke-linejoin:miter;" x="321.741875" xlink:href="#m927c06fe70" y="25.509469"/>
    </g>
   </g>
   <g id="line2d_76">
    <path clip-path="url(#p2e49d6c978)" d="M 45.941875 301.309469 
L 321.741875 25.509469 
" style="fill:none;stroke:#000000;stroke-linecap:square;stroke-width:1.5;"/>
   </g>
   <g id="line2d_77">
    <path clip-path="url(#p2e49d6c978)" d="M 105.900677 301.309469 
L 340.730781 66.479364 
" style="fill:none;stroke:#d3d3d3;stroke-linecap:square;"/>
   </g>
   <g id="line2d_78">
    <path clip-path="url(#p2e49d6c978)" d="M 165.859478 301.309469 
L 340.730781 126.438166 
" style="fill:none;stroke:#d3d3d3;stroke-linecap:square;"/>
   </g>
   <g id="line2d_79">
    <path clip-path="url(#p2e49d6c978)" d="M 45.941875 241.350667 
L 288.292542 -1 
" style="fill:none;stroke:#d3d3d3;stroke-linecap:square;"/>
   </g>
   <g id="line2d_80">
    <path clip-path="url(#p2e49d6c978)" d="M 45.941875 181.391865 
L 228.33374 -1 
" style="fill:none;stroke:#d3d3d3;stroke-linecap:square;"/>
   </g>
   <g id="patch_3">
    <path d="M 45.941875 301.309469 
L 45.941875 25.509469 
" style="fill:none;stroke:#000000;stroke-linecap:square;stroke-linejoin:miter;stroke-width:0.8;"/>
   </g>
   <g id="patch_4">
    <path d="M 321.741875 301.309469 
L 321.741875 25.509469 
" style="fill:none;stroke:#000000;stroke-linecap:square;stroke-linejoin:miter;stroke-width:0.8;"/>
   </g>
   <g id="patch_5">
    <path d="M 45.941875 301.309469 
L 321.741875 301.309469 
" style="fill:none;stroke:#000000;stroke-linecap:square;stroke-linejoin:miter;stroke-width:0.8;"/>
   </g>
   <g id="patch_6">
    <path d="M 45.941875 25.509469 
L 321.741875 25.509469 
" style="fill:none;stroke:#000000;stroke-linecap:square;stroke-linejoin:miter;stroke-width:0.8;"/>
   </g>
   <g id="text_11">
    <!-- 22 targets: 3e21..1e-6 -->
    <g transform="translate(48.699875 38.775875)scale(0.102 -0.102)">
     <defs>
      <path d="M 18.3125 70.21875 
L 18.3125 54.6875 
L 36.8125 54.6875 
L 36.8125 47.703125 
L 18.3125 47.703125 
L 18.3125 18.015625 
Q 18.3125 11.328125 20.140625 9.421875 
Q 21.96875 7.515625 27.59375 7.515625 
L 36.8125 7.515625 
L 36.8125 0 
L 27.59375 0 
Q 17.1875 0 13.234375 3.875 
Q 9.28125 7.765625 9.28125 18.015625 
L 9.28125 47.703125 
L 2.6875 47.703125 
L 2.6875 54.6875 
L 9.28125 54.6875 
L 9.28125 70.21875 
z
" id="DejaVuSans-116"/>
      <path d="M 34.28125 27.484375 
Q 23.390625 27.484375 19.1875 25 
Q 14.984375 22.515625 14.984375 16.5 
Q 14.984375 11.71875 18.140625 8.90625 
Q 21.296875 6.109375 26.703125 6.109375 
Q 34.1875 6.109375 38.703125 11.40625 
Q 43.21875 16.703125 43.21875 25.484375 
L 43.21875 27.484375 
z
M 52.203125 31.203125 
L 52.203125 0 
L 43.21875 0 
L 43.21875 8.296875 
Q 40.140625 3.328125 35.546875 0.953125 
Q 30.953125 -1.421875 24.3125 -1.421875 
Q 15.921875 -1.421875 10.953125 3.296875 
Q 6 8.015625 6 15.921875 
Q 6 25.140625 12.171875 29.828125 
Q 18.359375 34.515625 30.609375 34.515625 
L 43.21875 34.515625 
L 43.21875 35.40625 
Q 43.21875 41.609375 39.140625 45 
Q 35.0625 48.390625 27.6875 48.390625 
Q 23 48.390625 18.546875 47.265625 
Q 14.109375 46.140625 10.015625 43.890625 
L 10.015625 52.203125 
Q 14.9375 54.109375 19.578125 55.046875 
Q 24.21875 56 28.609375 56 
Q 40.484375 56 46.34375 49.84375 
Q 52.203125 43.703125 52.203125 31.203125 
z
" id="DejaVuSans-97"/>
      <path d="M 41.109375 46.296875 
Q 39.59375 47.171875 37.8125 47.578125 
Q 36.03125 48 33.890625 48 
Q 26.265625 48 22.1875 43.046875 
Q 18.109375 38.09375 18.109375 28.8125 
L 18.109375 0 
L 9.078125 0 
L 9.078125 54.6875 
L 18.109375 54.6875 
L 18.109375 46.1875 
Q 20.953125 51.171875 25.484375 53.578125 
Q 30.03125 56 36.53125 56 
Q 37.453125 56 38.578125 55.875 
Q 39.703125 55.765625 41.0625 55.515625 
z
" id="DejaVuSans-114"/>
      <path d="M 56.203125 29.59375 
L 56.203125 25.203125 
L 14.890625 25.203125 
Q 15.484375 15.921875 20.484375 11.0625 
Q 25.484375 6.203125 34.421875 6.203125 
Q 39.59375 6.203125 44.453125 7.46875 
Q 49.3125 8.734375 54.109375 11.28125 
L 54.109375 2.78125 
Q 49.265625 0.734375 44.1875 -0.34375 
Q 39.109375 -1.421875 33.890625 -1.421875 
Q 20.796875 -1.421875 13.15625 6.1875 
Q 5.515625 13.8125 5.515625 26.8125 
Q 5.515625 40.234375 12.765625 48.109375 
Q 20.015625 56 32.328125 56 
Q 43.359375 56 49.78125 48.890625 
Q 56.203125 41.796875 56.203125 29.59375 
z
M 47.21875 32.234375 
Q 47.125 39.59375 43.09375 43.984375 
Q 39.0625 48.390625 32.421875 48.390625 
Q 24.90625 48.390625 20.390625 44.140625 
Q 15.875 39.890625 15.1875 32.171875 
z
" id="DejaVuSans-101"/>
      <path d="M 11.71875 12.40625 
L 22.015625 12.40625 
L 22.015625 0 
L 11.71875 0 
z
M 11.71875 51.703125 
L 22.015625 51.703125 
L 22.015625 39.3125 
L 11.71875 39.3125 
z
" id="DejaVuSans-58"/>
      <path d="M 10.6875 12.40625 
L 21 12.40625 
L 21 0 
L 10.6875 0 
z
" id="DejaVuSans-46"/>
      <path d="M 4.890625 31.390625 
L 31.203125 31.390625 
L 31.203125 23.390625 
L 4.890625 23.390625 
z
" id="DejaVuSans-45"/>
      <path d="M 33.015625 40.375 
Q 26.375 40.375 22.484375 35.828125 
Q 18.609375 31.296875 18.609375 23.390625 
Q 18.609375 15.53125 22.484375 10.953125 
Q 26.375 6.390625 33.015625 6.390625 
Q 39.65625 6.390625 43.53125 10.953125 
Q 47.40625 15.53125 47.40625 23.390625 
Q 47.40625 31.296875 43.53125 35.828125 
Q 39.65625 40.375 33.015625 40.375 
z
M 52.59375 71.296875 
L 52.59375 62.3125 
Q 48.875 64.0625 45.09375 64.984375 
Q 41.3125 65.921875 37.59375 65.921875 
Q 27.828125 65.921875 22.671875 59.328125 
Q 17.53125 52.734375 16.796875 39.40625 
Q 19.671875 43.65625 24.015625 45.921875 
Q 28.375 48.1875 33.59375 48.1875 
Q 44.578125 48.1875 50.953125 41.515625 
Q 57.328125 34.859375 57.328125 23.390625 
Q 57.328125 12.15625 50.6875 5.359375 
Q 44.046875 -1.421875 33.015625 -1.421875 
Q 20.359375 -1.421875 13.671875 8.265625 
Q 6.984375 17.96875 6.984375 36.375 
Q 6.984375 53.65625 15.1875 63.9375 
Q 23.390625 74.21875 37.203125 74.21875 
Q 40.921875 74.21875 44.703125 73.484375 
Q 48.484375 72.75 52.59375 71.296875 
z
" id="DejaVuSans-54"/>
     </defs>
     <use xlink:href="#DejaVuSans-50"/>
     <use x="63.623047" xlink:href="#DejaVuSans-50"/>
     <use x="127.246094" xlink:href="#DejaVuSans-32"/>
     <use x="159.033203" xlink:href="#DejaVuSans-116"/>
     <use x="198.242188" xlink:href="#DejaVuSans-97"/>
     <use x="259.521484" xlink:href="#DejaVuSans-114"/>
     <use x="298.884766" xlink:href="#DejaVuSans-103"/>
     <use x="362.361328" xlink:href="#DejaVuSans-101"/>
     <use x="423.884766" xlink:href="#DejaVuSans-116"/>
     <use x="463.09375" xlink:href="#DejaVuSans-115"/>
     <use x="515.193359" xlink:href="#DejaVuSans-58"/>
     <use x="548.884766" xlink:href="#DejaVuSans-32"/>
     <use x="580.671875" xlink:href="#DejaVuSans-51"/>
     <use x="644.294922" xlink:href="#DejaVuSans-101"/>
     <use x="705.818359" xlink:href="#DejaVuSans-50"/>
     <use x="769.441406" xlink:href="#DejaVuSans-49"/>
     <use x="833.064453" xlink:href="#DejaVuSans-46"/>
     <use x="864.851562" xlink:href="#DejaVuSans-46"/>
     <use x="896.638672" xlink:href="#DejaVuSans-49"/>
     <use x="960.261719" xlink:href="#DejaVuSans-101"/>
     <use x="1021.785156" xlink:href="#DejaVuSans-45"/>
     <use x="1057.869141" xlink:href="#DejaVuSans-54"/>
    </g>
    <!-- 15 and 15 instances -->
    <g transform="translate(48.699875 50.197644)scale(0.102 -0.102)">
     <defs>
      <path d="M 45.40625 46.390625 
L 45.40625 75.984375 
L 54.390625 75.984375 
L 54.390625 0 
L 45.40625 0 
L 45.40625 8.203125 
Q 42.578125 3.328125 38.25 0.953125 
Q 33.9375 -1.421875 27.875 -1.421875 
Q 17.96875 -1.421875 11.734375 6.484375 
Q 5.515625 14.40625 5.515625 27.296875 
Q 5.515625 40.1875 11.734375 48.09375 
Q 17.96875 56 27.875 56 
Q 33.9375 56 38.25 53.625 
Q 42.578125 51.265625 45.40625 46.390625 
z
M 14.796875 27.296875 
Q 14.796875 17.390625 18.875 11.75 
Q 22.953125 6.109375 30.078125 6.109375 
Q 37.203125 6.109375 41.296875 11.75 
Q 45.40625 17.390625 45.40625 27.296875 
Q 45.40625 37.203125 41.296875 42.84375 
Q 37.203125 48.484375 30.078125 48.484375 
Q 22.953125 48.484375 18.875 42.84375 
Q 14.796875 37.203125 14.796875 27.296875 
z
" id="DejaVuSans-100"/>
     </defs>
     <use xlink:href="#DejaVuSans-49"/>
     <use x="63.623047" xlink:href="#DejaVuSans-53"/>
     <use x="127.246094" xlink:href="#DejaVuSans-32"/>
     <use x="159.033203" xlink:href="#DejaVuSans-97"/>
     <use x="220.3125" xlink:href="#DejaVuSans-110"/>
     <use x="283.691406" xlink:href="#DejaVuSans-100"/>
     <use x="347.167969" xlink:href="#DejaVuSans-32"/>
     <use x="378.955078" xlink:href="#DejaVuSans-49"/>
     <use x="442.578125" xlink:href="#DejaVuSans-53"/>
     <use x="506.201172" xlink:href="#DejaVuSans-32"/>
     <use x="537.988281" xlink:href="#DejaVuSans-105"/>
     <use x="565.771484" xlink:href="#DejaVuSans-110"/>
     <use x="629.150391" xlink:href="#DejaVuSans-115"/>
     <use x="681.25" xlink:href="#DejaVuSans-116"/>
     <use x="720.458984" xlink:href="#DejaVuSans-97"/>
     <use x="781.738281" xlink:href="#DejaVuSans-110"/>
     <use x="845.117188" xlink:href="#DejaVuSans-99"/>
     <use x="900.097656" xlink:href="#DejaVuSans-101"/>
     <use x="961.621094" xlink:href="#DejaVuSans-115"/>
    </g>
   </g>
   <g id="text_12">
    <!-- v5z33 -->
    <g style="fill:#808080;" transform="translate(168.714531 296.471781)scale(0.1 -0.1)">
     <defs>
      <path d="M 2.984375 54.6875 
L 12.5 54.6875 
L 29.59375 8.796875 
L 46.6875 54.6875 
L 56.203125 54.6875 
L 35.6875 0 
L 23.484375 0 
z
" id="DejaVuSans-118"/>
      <path d="M 5.515625 54.6875 
L 48.1875 54.6875 
L 48.1875 46.484375 
L 14.40625 7.171875 
L 48.1875 7.171875 
L 48.1875 0 
L 4.296875 0 
L 4.296875 8.203125 
L 38.09375 47.515625 
L 5.515625 47.515625 
z
" id="DejaVuSans-122"/>
     </defs>
     <use xlink:href="#DejaVuSans-118"/>
     <use x="59.179688" xlink:href="#DejaVuSans-53"/>
     <use x="122.802734" xlink:href="#DejaVuSans-122"/>
     <use x="175.292969" xlink:href="#DejaVuSans-51"/>
     <use x="238.916016" xlink:href="#DejaVuSans-51"/>
    </g>
   </g>
   <g id="text_13">
    <!-- 27 Discus, 6 constraints -->
    <g transform="translate(86.559609 19.509469)scale(0.162 -0.162)">
     <defs>
      <path d="M 8.203125 72.90625 
L 55.078125 72.90625 
L 55.078125 68.703125 
L 28.609375 0 
L 18.3125 0 
L 43.21875 64.59375 
L 8.203125 64.59375 
z
" id="DejaVuSans-55"/>
      <path d="M 19.671875 64.796875 
L 19.671875 8.109375 
L 31.59375 8.109375 
Q 46.6875 8.109375 53.6875 14.9375 
Q 60.6875 21.78125 60.6875 36.53125 
Q 60.6875 51.171875 53.6875 57.984375 
Q 46.6875 64.796875 31.59375 64.796875 
z
M 9.8125 72.90625 
L 30.078125 72.90625 
Q 51.265625 72.90625 61.171875 64.09375 
Q 71.09375 55.28125 71.09375 36.53125 
Q 71.09375 17.671875 61.125 8.828125 
Q 51.171875 0 30.078125 0 
L 9.8125 0 
z
" id="DejaVuSans-68"/>
      <path d="M 8.5 21.578125 
L 8.5 54.6875 
L 17.484375 54.6875 
L 17.484375 21.921875 
Q 17.484375 14.15625 20.5 10.265625 
Q 23.53125 6.390625 29.59375 6.390625 
Q 36.859375 6.390625 41.078125 11.03125 
Q 45.3125 15.671875 45.3125 23.6875 
L 45.3125 54.6875 
L 54.296875 54.6875 
L 54.296875 0 
L 45.3125 0 
L 45.3125 8.40625 
Q 42.046875 3.421875 37.71875 1 
Q 33.40625 -1.421875 27.6875 -1.421875 
Q 18.265625 -1.421875 13.375 4.4375 
Q 8.5 10.296875 8.5 21.578125 
z
M 31.109375 56 
z
" id="DejaVuSans-117"/>
      <path d="M 11.71875 12.40625 
L 22.015625 12.40625 
L 22.015625 4 
L 14.015625 -11.625 
L 7.71875 -11.625 
L 11.71875 4 
z
" id="DejaVuSans-44"/>
     </defs>
     <use xlink:href="#DejaVuSans-50"/>
     <use x="63.623047" xlink:href="#DejaVuSans-55"/>
     <use x="127.246094" xlink:href="#DejaVuSans-32"/>
     <use x="159.033203" xlink:href="#DejaVuSans-68"/>
     <use x="236.035156" xlink:href="#DejaVuSans-105"/>
     <use x="263.818359" xlink:href="#DejaVuSans-115"/>
     <use x="315.917969" xlink:href="#DejaVuSans-99"/>
     <use x="370.898438" xlink:href="#DejaVuSans-117"/>
     <use x="434.277344" xlink:href="#DejaVuSans-115"/>
     <use x="486.376953" xlink:href="#DejaVuSans-44"/>
     <use x="518.164062" xlink:href="#DejaVuSans-32"/>
     <use x="549.951172" xlink:href="#DejaVuSans-54"/>
     <use x="613.574219" xlink:href="#DejaVuSans-32"/>
     <use x="645.361328" xlink:href="#DejaVuSans-99"/>
     <use x="700.341797" xlink:href="#DejaVuSans-111"/>
     <use x="761.523438" xlink:href="#DejaVuSans-110"/>
     <use x="824.902344" xlink:href="#DejaVuSans-115"/>
     <use x="877.001953" xlink:href="#DejaVuSans-116"/>
     <use x="916.210938" xlink:href="#DejaVuSans-114"/>
     <use x="957.324219" xlink:href="#DejaVuSans-97"/>
     <use x="1018.603516" xlink:href="#DejaVuSans-105"/>
     <use x="1046.386719" xlink:href="#DejaVuSans-110"/>
     <use x="1109.765625" xlink:href="#DejaVuSans-116"/>
     <use x="1148.974609" xlink:href="#DejaVuSans-115"/>
    </g>
   </g>
  </g>
 </g>
 <defs>
  <clipPath id="p2e49d6c978">
   <rect height="275.8" width="275.8" x="45.941875" y="25.509469"/>
  </clipPath>
 </defs>
</svg>
