<?xml version="1.0" encoding="utf-8" standalone="no"?>
<!DOCTYPE svg PUBLIC "-//W3C//DTD SVG 1.1//EN"
  "http://www.w3.org/Graphics/SVG/1.1/DTD/svg11.dtd">
<!-- Created with matplotlib (https://matplotlib.org/) -->
<svg height="345.6pt" version="1.1" viewBox="0 0 460.8 345.6" width="460.8pt" xmlns="http://www.w3.org/2000/svg" xmlns:xlink="http://www.w3.org/1999/xlink">
 <metadata>
  <rdf:RDF xmlns:cc="http://creativecommons.org/ns#" xmlns:dc="http://purl.org/dc/elements/1.1/" xmlns:rdf="http://www.w3.org/1999/02/22-rdf-syntax-ns#">
   <cc:Work>
    <dc:type rdf:resource="http://purl.org/dc/dcmitype/StillImage"/>
    <dc:date>2021-04-09T10:27:55.558127</dc:date>
    <dc:format>image/svg+xml</dc:format>
    <dc:creator>
     <cc:Agent>
      <dc:title>Matplotlib v3.3.3, https://matplotlib.org/</dc:title>
     </cc:Agent>
    </dc:creator>
   </cc:Work>
  </rdf:RDF>
 </metadata>
 <defs>
  <style type="text/css">*{stroke-linecap:butt;stroke-linejoin:round;}</style>
 </defs>
 <g id="figure_1">
  <g id="patch_1">
   <path d="M 0 345.6 
L 460.8 345.6 
L 460.8 0 
L 0 0 
z
" style="fill:#ffffff;"/>
  </g>
  <g id="axes_1">
   <g id="patch_2">
    <path d="M 57.6 298.944 
L 338.688 298.944 
L 338.688 27.648 
L 57.6 27.648 
z
" style="fill:#ffffff;"/>
   </g>
   <g id="matplotlib.axis_1">
    <g id="xtick_1">
     <g id="line2d_1">
      <path clip-path="url(#pd09a022ebe)" d="M 57.6 298.944 
L 57.6 27.648 
" style="fill:none;stroke:#b0b0b0;stroke-linecap:square;stroke-width:0.8;"/>
     </g>
     <g id="line2d_2">
      <defs>
       <path d="M 0 0 
L 0 3.5 
" id="mb6fb13bdce" style="stroke:#000000;stroke-width:0.8;"/>
      </defs>
      <g>
       <use style="stroke:#000000;stroke-width:0.8;" x="57.6" xlink:href="#mb6fb13bdce" y="298.944"/>
      </g>
     </g>
     <g id="text_1">
      <!-- 0 -->
      <g transform="translate(51.2375 321.140875)scale(0.2 -0.2)">
       <defs>
        <path d="M 31.78125 66.40625 
Q 24.171875 66.40625 20.328125 58.90625 
Q 16.5 51.421875 16.5 36.375 
Q 16.5 21.390625 20.328125 13.890625 
Q 24.171875 6.390625 31.78125 6.390625 
Q 39.453125 6.390625 43.28125 13.890625 
Q 47.125 21.390625 47.125 36.375 
Q 47.125 51.421875 43.28125 58.90625 
Q 39.453125 66.40625 31.78125 66.40625 
z
M 31.78125 74.21875 
Q 44.046875 74.21875 50.515625 64.515625 
Q 56.984375 54.828125 56.984375 36.375 
Q 56.984375 17.96875 50.515625 8.265625 
Q 44.046875 -1.421875 31.78125 -1.421875 
Q 19.53125 -1.421875 13.0625 8.265625 
Q 6.59375 17.96875 6.59375 36.375 
Q 6.59375 54.828125 13.0625 64.515625 
Q 19.53125 74.21875 31.78125 74.21875 
z
" id="DejaVuSans-48"/>
       </defs>
       <use xlink:href="#DejaVuSans-48"/>
      </g>
     </g>
    </g>
    <g id="xtick_2">
     <g id="line2d_3">
      <path clip-path="url(#pd09a022ebe)" d="M 137.910857 298.944 
L 137.910857 27.648 
" style="fill:none;stroke:#b0b0b0;stroke-linecap:square;stroke-width:0.8;"/>
     </g>
     <g id="line2d_4">
      <g>
       <use style="stroke:#000000;stroke-width:0.8;" x="137.910857" xlink:href="#mb6fb13bdce" y="298.944"/>
      </g>
     </g>
     <g id="text_2">
      <!-- 2 -->
      <g transform="translate(131.548357 321.140875)scale(0.2 -0.2)">
       <defs>
        <path d="M 19.1875 8.296875 
L 53.609375 8.296875 
L 53.609375 0 
L 7.328125 0 
L 7.328125 8.296875 
Q 12.9375 14.109375 22.625 23.890625 
Q 32.328125 33.6875 34.8125 36.53125 
Q 39.546875 41.84375 41.421875 45.53125 
Q 43.3125 49.21875 43.3125 52.78125 
Q 43.3125 58.59375 39.234375 62.25 
Q 35.15625 65.921875 28.609375 65.921875 
Q 23.96875 65.921875 18.8125 64.3125 
Q 13.671875 62.703125 7.8125 59.421875 
L 7.8125 69.390625 
Q 13.765625 71.78125 18.9375 73 
Q 24.125 74.21875 28.421875 74.21875 
Q 39.75 74.21875 46.484375 68.546875 
Q 53.21875 62.890625 53.21875 53.421875 
Q 53.21875 48.921875 51.53125 44.890625 
Q 49.859375 40.875 45.40625 35.40625 
Q 44.1875 33.984375 37.640625 27.21875 
Q 31.109375 20.453125 19.1875 8.296875 
z
" id="DejaVuSans-50"/>
       </defs>
       <use xlink:href="#DejaVuSans-50"/>
      </g>
     </g>
    </g>
    <g id="xtick_3">
     <g id="line2d_5">
      <path clip-path="url(#pd09a022ebe)" d="M 218.221714 298.944 
L 218.221714 27.648 
" style="fill:none;stroke:#b0b0b0;stroke-linecap:square;stroke-width:0.8;"/>
     </g>
     <g id="line2d_6">
      <g>
       <use style="stroke:#000000;stroke-width:0.8;" x="218.221714" xlink:href="#mb6fb13bdce" y="298.944"/>
      </g>
     </g>
     <g id="text_3">
      <!-- 4 -->
      <g transform="translate(211.859214 321.140875)scale(0.2 -0.2)">
       <defs>
        <path d="M 37.796875 64.3125 
L 12.890625 25.390625 
L 37.796875 25.390625 
z
M 35.203125 72.90625 
L 47.609375 72.90625 
L 47.609375 25.390625 
L 58.015625 25.390625 
L 58.015625 17.1875 
L 47.609375 17.1875 
L 47.609375 0 
L 37.796875 0 
L 37.796875 17.1875 
L 4.890625 17.1875 
L 4.890625 26.703125 
z
" id="DejaVuSans-52"/>
       </defs>
       <use xlink:href="#DejaVuSans-52"/>
      </g>
     </g>
    </g>
    <g id="xtick_4">
     <g id="line2d_7">
      <path clip-path="url(#pd09a022ebe)" d="M 298.532571 298.944 
L 298.532571 27.648 
" style="fill:none;stroke:#b0b0b0;stroke-linecap:square;stroke-width:0.8;"/>
     </g>
     <g id="line2d_8">
      <g>
       <use style="stroke:#000000;stroke-width:0.8;" x="298.532571" xlink:href="#mb6fb13bdce" y="298.944"/>
      </g>
     </g>
     <g id="text_4">
      <!-- 6 -->
      <g transform="translate(292.170071 321.140875)scale(0.2 -0.2)">
       <defs>
        <path d="M 33.015625 40.375 
Q 26.375 40.375 22.484375 35.828125 
Q 18.609375 31.296875 18.609375 23.390625 
Q 18.609375 15.53125 22.484375 10.953125 
Q 26.375 6.390625 33.015625 6.390625 
Q 39.65625 6.390625 43.53125 10.953125 
Q 47.40625 15.53125 47.40625 23.390625 
Q 47.40625 31.296875 43.53125 35.828125 
Q 39.65625 40.375 33.015625 40.375 
z
M 52.59375 71.296875 
L 52.59375 62.3125 
Q 48.875 64.0625 45.09375 64.984375 
Q 41.3125 65.921875 37.59375 65.921875 
Q 27.828125 65.921875 22.671875 59.328125 
Q 17.53125 52.734375 16.796875 39.40625 
Q 19.671875 43.65625 24.015625 45.921875 
Q 28.375 48.1875 33.59375 48.1875 
Q 44.578125 48.1875 50.953125 41.515625 
Q 57.328125 34.859375 57.328125 23.390625 
Q 57.328125 12.15625 50.6875 5.359375 
Q 44.046875 -1.421875 33.015625 -1.421875 
Q 20.359375 -1.421875 13.671875 8.265625 
Q 6.984375 17.96875 6.984375 36.375 
Q 6.984375 53.65625 15.1875 63.9375 
Q 23.390625 74.21875 37.203125 74.21875 
Q 40.921875 74.21875 44.703125 73.484375 
Q 48.484375 72.75 52.59375 71.296875 
z
" id="DejaVuSans-54"/>
       </defs>
       <use xlink:href="#DejaVuSans-54"/>
      </g>
     </g>
    </g>
    <g id="xtick_5">
     <g id="line2d_9">
      <path clip-path="url(#pd09a022ebe)" d="M 97.755429 298.944 
L 97.755429 27.648 
" style="fill:none;stroke:#b0b0b0;stroke-linecap:square;stroke-width:0.8;"/>
     </g>
     <g id="line2d_10">
      <defs>
       <path d="M 0 0 
L 0 2 
" id="mc6a97b16f1" style="stroke:#000000;stroke-width:0.6;"/>
      </defs>
      <g>
       <use style="stroke:#000000;stroke-width:0.6;" x="97.755429" xlink:href="#mc6a97b16f1" y="298.944"/>
      </g>
     </g>
    </g>
    <g id="xtick_6">
     <g id="line2d_11">
      <path clip-path="url(#pd09a022ebe)" d="M 178.066286 298.944 
L 178.066286 27.648 
" style="fill:none;stroke:#b0b0b0;stroke-linecap:square;stroke-width:0.8;"/>
     </g>
     <g id="line2d_12">
      <g>
       <use style="stroke:#000000;stroke-width:0.6;" x="178.066286" xlink:href="#mc6a97b16f1" y="298.944"/>
      </g>
     </g>
    </g>
    <g id="xtick_7">
     <g id="line2d_13">
      <path clip-path="url(#pd09a022ebe)" d="M 258.377143 298.944 
L 258.377143 27.648 
" style="fill:none;stroke:#b0b0b0;stroke-linecap:square;stroke-width:0.8;"/>
     </g>
     <g id="line2d_14">
      <g>
       <use style="stroke:#000000;stroke-width:0.6;" x="258.377143" xlink:href="#mc6a97b16f1" y="298.944"/>
      </g>
     </g>
    </g>
    <g id="xtick_8">
     <g id="line2d_15">
      <path clip-path="url(#pd09a022ebe)" d="M 338.688 298.944 
L 338.688 27.648 
" style="fill:none;stroke:#b0b0b0;stroke-linecap:square;stroke-width:0.8;"/>
     </g>
     <g id="line2d_16">
      <g>
       <use style="stroke:#000000;stroke-width:0.6;" x="338.688" xlink:href="#mc6a97b16f1" y="298.944"/>
      </g>
     </g>
    </g>
    <g id="text_5">
     <!-- log10(# (f+g)-evals / dimension) -->
     <g transform="translate(58.145016 342.217594)scale(0.17 -0.17)">
      <defs>
       <path d="M 9.421875 75.984375 
L 18.40625 75.984375 
L 18.40625 0 
L 9.421875 0 
z
" id="DejaVuSans-108"/>
       <path d="M 30.609375 48.390625 
Q 23.390625 48.390625 19.1875 42.75 
Q 14.984375 37.109375 14.984375 27.296875 
Q 14.984375 17.484375 19.15625 11.84375 
Q 23.34375 6.203125 30.609375 6.203125 
Q 37.796875 6.203125 41.984375 11.859375 
Q 46.1875 17.53125 46.1875 27.296875 
Q 46.1875 37.015625 41.984375 42.703125 
Q 37.796875 48.390625 30.609375 48.390625 
z
M 30.609375 56 
Q 42.328125 56 49.015625 48.375 
Q 55.71875 40.765625 55.71875 27.296875 
Q 55.71875 13.875 49.015625 6.21875 
Q 42.328125 -1.421875 30.609375 -1.421875 
Q 18.84375 -1.421875 12.171875 6.21875 
Q 5.515625 13.875 5.515625 27.296875 
Q 5.515625 40.765625 12.171875 48.375 
Q 18.84375 56 30.609375 56 
z
" id="DejaVuSans-111"/>
       <path d="M 45.40625 27.984375 
Q 45.40625 37.75 41.375 43.109375 
Q 37.359375 48.484375 30.078125 48.484375 
Q 22.859375 48.484375 18.828125 43.109375 
Q 14.796875 37.75 14.796875 27.984375 
Q 14.796875 18.265625 18.828125 12.890625 
Q 22.859375 7.515625 30.078125 7.515625 
Q 37.359375 7.515625 41.375 12.890625 
Q 45.40625 18.265625 45.40625 27.984375 
z
M 54.390625 6.78125 
Q 54.390625 -7.171875 48.1875 -13.984375 
Q 42 -20.796875 29.203125 -20.796875 
Q 24.46875 -20.796875 20.265625 -20.09375 
Q 16.0625 -19.390625 12.109375 -17.921875 
L 12.109375 -9.1875 
Q 16.0625 -11.328125 19.921875 -12.34375 
Q 23.78125 -13.375 27.78125 -13.375 
Q 36.625 -13.375 41.015625 -8.765625 
Q 45.40625 -4.15625 45.40625 5.171875 
L 45.40625 9.625 
Q 42.625 4.78125 38.28125 2.390625 
Q 33.9375 0 27.875 0 
Q 17.828125 0 11.671875 7.65625 
Q 5.515625 15.328125 5.515625 27.984375 
Q 5.515625 40.671875 11.671875 48.328125 
Q 17.828125 56 27.875 56 
Q 33.9375 56 38.28125 53.609375 
Q 42.625 51.21875 45.40625 46.390625 
L 45.40625 54.6875 
L 54.390625 54.6875 
z
" id="DejaVuSans-103"/>
       <path d="M 12.40625 8.296875 
L 28.515625 8.296875 
L 28.515625 63.921875 
L 10.984375 60.40625 
L 10.984375 69.390625 
L 28.421875 72.90625 
L 38.28125 72.90625 
L 38.28125 8.296875 
L 54.390625 8.296875 
L 54.390625 0 
L 12.40625 0 
z
" id="DejaVuSans-49"/>
       <path d="M 31 75.875 
Q 24.46875 64.65625 21.28125 53.65625 
Q 18.109375 42.671875 18.109375 31.390625 
Q 18.109375 20.125 21.3125 9.0625 
Q 24.515625 -2 31 -13.1875 
L 23.1875 -13.1875 
Q 15.875 -1.703125 12.234375 9.375 
Q 8.59375 20.453125 8.59375 31.390625 
Q 8.59375 42.28125 12.203125 53.3125 
Q 15.828125 64.359375 23.1875 75.875 
z
" id="DejaVuSans-40"/>
       <path d="M 51.125 44 
L 36.921875 44 
L 32.8125 27.6875 
L 47.125 27.6875 
z
M 43.796875 71.78125 
L 38.71875 51.515625 
L 52.984375 51.515625 
L 58.109375 71.78125 
L 65.921875 71.78125 
L 60.890625 51.515625 
L 76.125 51.515625 
L 76.125 44 
L 58.984375 44 
L 54.984375 27.6875 
L 70.515625 27.6875 
L 70.515625 20.21875 
L 53.078125 20.21875 
L 48 0 
L 40.1875 0 
L 45.21875 20.21875 
L 30.90625 20.21875 
L 25.875 0 
L 18.015625 0 
L 23.09375 20.21875 
L 7.71875 20.21875 
L 7.71875 27.6875 
L 24.90625 27.6875 
L 29 44 
L 13.28125 44 
L 13.28125 51.515625 
L 30.90625 51.515625 
L 35.890625 71.78125 
z
" id="DejaVuSans-35"/>
       <path id="DejaVuSans-32"/>
       <path d="M 37.109375 75.984375 
L 37.109375 68.5 
L 28.515625 68.5 
Q 23.6875 68.5 21.796875 66.546875 
Q 19.921875 64.59375 19.921875 59.515625 
L 19.921875 54.6875 
L 34.71875 54.6875 
L 34.71875 47.703125 
L 19.921875 47.703125 
L 19.921875 0 
L 10.890625 0 
L 10.890625 47.703125 
L 2.296875 47.703125 
L 2.296875 54.6875 
L 10.890625 54.6875 
L 10.890625 58.5 
Q 10.890625 67.625 15.140625 71.796875 
Q 19.390625 75.984375 28.609375 75.984375 
z
" id="DejaVuSans-102"/>
       <path d="M 46 62.703125 
L 46 35.5 
L 73.1875 35.5 
L 73.1875 27.203125 
L 46 27.203125 
L 46 0 
L 37.796875 0 
L 37.796875 27.203125 
L 10.59375 27.203125 
L 10.59375 35.5 
L 37.796875 35.5 
L 37.796875 62.703125 
z
" id="DejaVuSans-43"/>
       <path d="M 8.015625 75.875 
L 15.828125 75.875 
Q 23.140625 64.359375 26.78125 53.3125 
Q 30.421875 42.28125 30.421875 31.390625 
Q 30.421875 20.453125 26.78125 9.375 
Q 23.140625 -1.703125 15.828125 -13.1875 
L 8.015625 -13.1875 
Q 14.5 -2 17.703125 9.0625 
Q 20.90625 20.125 20.90625 31.390625 
Q 20.90625 42.671875 17.703125 53.65625 
Q 14.5 64.65625 8.015625 75.875 
z
" id="DejaVuSans-41"/>
       <path d="M 4.890625 31.390625 
L 31.203125 31.390625 
L 31.203125 23.390625 
L 4.890625 23.390625 
z
" id="DejaVuSans-45"/>
       <path d="M 56.203125 29.59375 
L 56.203125 25.203125 
L 14.890625 25.203125 
Q 15.484375 15.921875 20.484375 11.0625 
Q 25.484375 6.203125 34.421875 6.203125 
Q 39.59375 6.203125 44.453125 7.46875 
Q 49.3125 8.734375 54.109375 11.28125 
L 54.109375 2.78125 
Q 49.265625 0.734375 44.1875 -0.34375 
Q 39.109375 -1.421875 33.890625 -1.421875 
Q 20.796875 -1.421875 13.15625 6.1875 
Q 5.515625 13.8125 5.515625 26.8125 
Q 5.515625 40.234375 12.765625 48.109375 
Q 20.015625 56 32.328125 56 
Q 43.359375 56 49.78125 48.890625 
Q 56.203125 41.796875 56.203125 29.59375 
z
M 47.21875 32.234375 
Q 47.125 39.59375 43.09375 43.984375 
Q 39.0625 48.390625 32.421875 48.390625 
Q 24.90625 48.390625 20.390625 44.140625 
Q 15.875 39.890625 15.1875 32.171875 
z
" id="DejaVuSans-101"/>
       <path d="M 2.984375 54.6875 
L 12.5 54.6875 
L 29.59375 8.796875 
L 46.6875 54.6875 
L 56.203125 54.6875 
L 35.6875 0 
L 23.484375 0 
z
" id="DejaVuSans-118"/>
       <path d="M 34.28125 27.484375 
Q 23.390625 27.484375 19.1875 25 
Q 14.984375 22.515625 14.984375 16.5 
Q 14.984375 11.71875 18.140625 8.90625 
Q 21.296875 6.109375 26.703125 6.109375 
Q 34.1875 6.109375 38.703125 11.40625 
Q 43.21875 16.703125 43.21875 25.484375 
L 43.21875 27.484375 
z
M 52.203125 31.203125 
L 52.203125 0 
L 43.21875 0 
L 43.21875 8.296875 
Q 40.140625 3.328125 35.546875 0.953125 
Q 30.953125 -1.421875 24.3125 -1.421875 
Q 15.921875 -1.421875 10.953125 3.296875 
Q 6 8.015625 6 15.921875 
Q 6 25.140625 12.171875 29.828125 
Q 18.359375 34.515625 30.609375 34.515625 
L 43.21875 34.515625 
L 43.21875 35.40625 
Q 43.21875 41.609375 39.140625 45 
Q 35.0625 48.390625 27.6875 48.390625 
Q 23 48.390625 18.546875 47.265625 
Q 14.109375 46.140625 10.015625 43.890625 
L 10.015625 52.203125 
Q 14.9375 54.109375 19.578125 55.046875 
Q 24.21875 56 28.609375 56 
Q 40.484375 56 46.34375 49.84375 
Q 52.203125 43.703125 52.203125 31.203125 
z
" id="DejaVuSans-97"/>
       <path d="M 44.28125 53.078125 
L 44.28125 44.578125 
Q 40.484375 46.53125 36.375 47.5 
Q 32.28125 48.484375 27.875 48.484375 
Q 21.1875 48.484375 17.84375 46.4375 
Q 14.5 44.390625 14.5 40.28125 
Q 14.5 37.15625 16.890625 35.375 
Q 19.28125 33.59375 26.515625 31.984375 
L 29.59375 31.296875 
Q 39.15625 29.25 43.1875 25.515625 
Q 47.21875 21.78125 47.21875 15.09375 
Q 47.21875 7.46875 41.1875 3.015625 
Q 35.15625 -1.421875 24.609375 -1.421875 
Q 20.21875 -1.421875 15.453125 -0.5625 
Q 10.6875 0.296875 5.421875 2 
L 5.421875 11.28125 
Q 10.40625 8.6875 15.234375 7.390625 
Q 20.0625 6.109375 24.8125 6.109375 
Q 31.15625 6.109375 34.5625 8.28125 
Q 37.984375 10.453125 37.984375 14.40625 
Q 37.984375 18.0625 35.515625 20.015625 
Q 33.0625 21.96875 24.703125 23.78125 
L 21.578125 24.515625 
Q 13.234375 26.265625 9.515625 29.90625 
Q 5.8125 33.546875 5.8125 39.890625 
Q 5.8125 47.609375 11.28125 51.796875 
Q 16.75 56 26.8125 56 
Q 31.78125 56 36.171875 55.265625 
Q 40.578125 54.546875 44.28125 53.078125 
z
" id="DejaVuSans-115"/>
       <path d="M 25.390625 72.90625 
L 33.6875 72.90625 
L 8.296875 -9.28125 
L 0 -9.28125 
z
" id="DejaVuSans-47"/>
       <path d="M 45.40625 46.390625 
L 45.40625 75.984375 
L 54.390625 75.984375 
L 54.390625 0 
L 45.40625 0 
L 45.40625 8.203125 
Q 42.578125 3.328125 38.25 0.953125 
Q 33.9375 -1.421875 27.875 -1.421875 
Q 17.96875 -1.421875 11.734375 6.484375 
Q 5.515625 14.40625 5.515625 27.296875 
Q 5.515625 40.1875 11.734375 48.09375 
Q 17.96875 56 27.875 56 
Q 33.9375 56 38.25 53.625 
Q 42.578125 51.265625 45.40625 46.390625 
z
M 14.796875 27.296875 
Q 14.796875 17.390625 18.875 11.75 
Q 22.953125 6.109375 30.078125 6.109375 
Q 37.203125 6.109375 41.296875 11.75 
Q 45.40625 17.390625 45.40625 27.296875 
Q 45.40625 37.203125 41.296875 42.84375 
Q 37.203125 48.484375 30.078125 48.484375 
Q 22.953125 48.484375 18.875 42.84375 
Q 14.796875 37.203125 14.796875 27.296875 
z
" id="DejaVuSans-100"/>
       <path d="M 9.421875 54.6875 
L 18.40625 54.6875 
L 18.40625 0 
L 9.421875 0 
z
M 9.421875 75.984375 
L 18.40625 75.984375 
L 18.40625 64.59375 
L 9.421875 64.59375 
z
" id="DejaVuSans-105"/>
       <path d="M 52 44.1875 
Q 55.375 50.25 60.0625 53.125 
Q 64.75 56 71.09375 56 
Q 79.640625 56 84.28125 50.015625 
Q 88.921875 44.046875 88.921875 33.015625 
L 88.921875 0 
L 79.890625 0 
L 79.890625 32.71875 
Q 79.890625 40.578125 77.09375 44.375 
Q 74.3125 48.1875 68.609375 48.1875 
Q 61.625 48.1875 57.5625 43.546875 
Q 53.515625 38.921875 53.515625 30.90625 
L 53.515625 0 
L 44.484375 0 
L 44.484375 32.71875 
Q 44.484375 40.625 41.703125 44.40625 
Q 38.921875 48.1875 33.109375 48.1875 
Q 26.21875 48.1875 22.15625 43.53125 
Q 18.109375 38.875 18.109375 30.90625 
L 18.109375 0 
L 9.078125 0 
L 9.078125 54.6875 
L 18.109375 54.6875 
L 18.109375 46.1875 
Q 21.1875 51.21875 25.484375 53.609375 
Q 29.78125 56 35.6875 56 
Q 41.65625 56 45.828125 52.96875 
Q 50 49.953125 52 44.1875 
z
" id="DejaVuSans-109"/>
       <path d="M 54.890625 33.015625 
L 54.890625 0 
L 45.90625 0 
L 45.90625 32.71875 
Q 45.90625 40.484375 42.875 44.328125 
Q 39.84375 48.1875 33.796875 48.1875 
Q 26.515625 48.1875 22.3125 43.546875 
Q 18.109375 38.921875 18.109375 30.90625 
L 18.109375 0 
L 9.078125 0 
L 9.078125 54.6875 
L 18.109375 54.6875 
L 18.109375 46.1875 
Q 21.34375 51.125 25.703125 53.5625 
Q 30.078125 56 35.796875 56 
Q 45.21875 56 50.046875 50.171875 
Q 54.890625 44.34375 54.890625 33.015625 
z
" id="DejaVuSans-110"/>
      </defs>
      <use xlink:href="#DejaVuSans-108"/>
      <use x="27.783203" xlink:href="#DejaVuSans-111"/>
      <use x="88.964844" xlink:href="#DejaVuSans-103"/>
      <use x="152.441406" xlink:href="#DejaVuSans-49"/>
      <use x="216.064453" xlink:href="#DejaVuSans-48"/>
      <use x="279.6875" xlink:href="#DejaVuSans-40"/>
      <use x="318.701172" xlink:href="#DejaVuSans-35"/>
      <use x="402.490234" xlink:href="#DejaVuSans-32"/>
      <use x="434.277344" xlink:href="#DejaVuSans-40"/>
      <use x="473.291016" xlink:href="#DejaVuSans-102"/>
      <use x="508.496094" xlink:href="#DejaVuSans-43"/>
      <use x="592.285156" xlink:href="#DejaVuSans-103"/>
      <use x="655.761719" xlink:href="#DejaVuSans-41"/>
      <use x="694.775391" xlink:href="#DejaVuSans-45"/>
      <use x="730.859375" xlink:href="#DejaVuSans-101"/>
      <use x="792.382812" xlink:href="#DejaVuSans-118"/>
      <use x="851.5625" xlink:href="#DejaVuSans-97"/>
      <use x="912.841797" xlink:href="#DejaVuSans-108"/>
      <use x="940.625" xlink:href="#DejaVuSans-115"/>
      <use x="992.724609" xlink:href="#DejaVuSans-32"/>
      <use x="1024.511719" xlink:href="#DejaVuSans-47"/>
      <use x="1058.203125" xlink:href="#DejaVuSans-32"/>
      <use x="1089.990234" xlink:href="#DejaVuSans-100"/>
      <use x="1153.466797" xlink:href="#DejaVuSans-105"/>
      <use x="1181.25" xlink:href="#DejaVuSans-109"/>
      <use x="1278.662109" xlink:href="#DejaVuSans-101"/>
      <use x="1340.185547" xlink:href="#DejaVuSans-110"/>
      <use x="1403.564453" xlink:href="#DejaVuSans-115"/>
      <use x="1455.664062" xlink:href="#DejaVuSans-105"/>
      <use x="1483.447266" xlink:href="#DejaVuSans-111"/>
      <use x="1544.628906" xlink:href="#DejaVuSans-110"/>
      <use x="1608.007812" xlink:href="#DejaVuSans-41"/>
     </g>
    </g>
   </g>
   <g id="matplotlib.axis_2">
    <g id="ytick_1">
     <g id="line2d_17">
      <path clip-path="url(#pd09a022ebe)" d="M 57.6 298.944 
L 338.688 298.944 
" style="fill:none;stroke:#b0b0b0;stroke-linecap:square;stroke-width:0.8;"/>
     </g>
     <g id="line2d_18">
      <defs>
       <path d="M 0 0 
L -3.5 0 
" id="m05c62a4a75" style="stroke:#000000;stroke-width:0.8;"/>
      </defs>
      <g>
       <use style="stroke:#000000;stroke-width:0.8;" x="57.6" xlink:href="#m05c62a4a75" y="298.944"/>
      </g>
     </g>
     <g id="text_6">
      <!-- 0.0 -->
      <g transform="translate(25.155 305.02275)scale(0.16 -0.16)">
       <defs>
        <path d="M 10.6875 12.40625 
L 21 12.40625 
L 21 0 
L 10.6875 0 
z
" id="DejaVuSans-46"/>
       </defs>
       <use xlink:href="#DejaVuSans-48"/>
       <use x="63.623047" xlink:href="#DejaVuSans-46"/>
       <use x="95.410156" xlink:href="#DejaVuSans-48"/>
      </g>
     </g>
    </g>
    <g id="ytick_2">
     <g id="line2d_19">
      <path clip-path="url(#pd09a022ebe)" d="M 57.6 245.22202 
L 338.688 245.22202 
" style="fill:none;stroke:#b0b0b0;stroke-linecap:square;stroke-width:0.8;"/>
     </g>
     <g id="line2d_20">
      <g>
       <use style="stroke:#000000;stroke-width:0.8;" x="57.6" xlink:href="#m05c62a4a75" y="245.22202"/>
      </g>
     </g>
     <g id="text_7">
      <!-- 0.2 -->
      <g transform="translate(25.155 251.30077)scale(0.16 -0.16)">
       <use xlink:href="#DejaVuSans-48"/>
       <use x="63.623047" xlink:href="#DejaVuSans-46"/>
       <use x="95.410156" xlink:href="#DejaVuSans-50"/>
      </g>
     </g>
    </g>
    <g id="ytick_3">
     <g id="line2d_21">
      <path clip-path="url(#pd09a022ebe)" d="M 57.6 191.50004 
L 338.688 191.50004 
" style="fill:none;stroke:#b0b0b0;stroke-linecap:square;stroke-width:0.8;"/>
     </g>
     <g id="line2d_22">
      <g>
       <use style="stroke:#000000;stroke-width:0.8;" x="57.6" xlink:href="#m05c62a4a75" y="191.50004"/>
      </g>
     </g>
     <g id="text_8">
      <!-- 0.4 -->
      <g transform="translate(25.155 197.57879)scale(0.16 -0.16)">
       <use xlink:href="#DejaVuSans-48"/>
       <use x="63.623047" xlink:href="#DejaVuSans-46"/>
       <use x="95.410156" xlink:href="#DejaVuSans-52"/>
      </g>
     </g>
    </g>
    <g id="ytick_4">
     <g id="line2d_23">
      <path clip-path="url(#pd09a022ebe)" d="M 57.6 137.778059 
L 338.688 137.778059 
" style="fill:none;stroke:#b0b0b0;stroke-linecap:square;stroke-width:0.8;"/>
     </g>
     <g id="line2d_24">
      <g>
       <use style="stroke:#000000;stroke-width:0.8;" x="57.6" xlink:href="#m05c62a4a75" y="137.778059"/>
      </g>
     </g>
     <g id="text_9">
      <!-- 0.6 -->
      <g transform="translate(25.155 143.856809)scale(0.16 -0.16)">
       <use xlink:href="#DejaVuSans-48"/>
       <use x="63.623047" xlink:href="#DejaVuSans-46"/>
       <use x="95.410156" xlink:href="#DejaVuSans-54"/>
      </g>
     </g>
    </g>
    <g id="ytick_5">
     <g id="line2d_25">
      <path clip-path="url(#pd09a022ebe)" d="M 57.6 84.056079 
L 338.688 84.056079 
" style="fill:none;stroke:#b0b0b0;stroke-linecap:square;stroke-width:0.8;"/>
     </g>
     <g id="line2d_26">
      <g>
       <use style="stroke:#000000;stroke-width:0.8;" x="57.6" xlink:href="#m05c62a4a75" y="84.056079"/>
      </g>
     </g>
     <g id="text_10">
      <!-- 0.8 -->
      <g transform="translate(25.155 90.134829)scale(0.16 -0.16)">
       <defs>
        <path d="M 31.78125 34.625 
Q 24.75 34.625 20.71875 30.859375 
Q 16.703125 27.09375 16.703125 20.515625 
Q 16.703125 13.921875 20.71875 10.15625 
Q 24.75 6.390625 31.78125 6.390625 
Q 38.8125 6.390625 42.859375 10.171875 
Q 46.921875 13.96875 46.921875 20.515625 
Q 46.921875 27.09375 42.890625 30.859375 
Q 38.875 34.625 31.78125 34.625 
z
M 21.921875 38.8125 
Q 15.578125 40.375 12.03125 44.71875 
Q 8.5 49.078125 8.5 55.328125 
Q 8.5 64.0625 14.71875 69.140625 
Q 20.953125 74.21875 31.78125 74.21875 
Q 42.671875 74.21875 48.875 69.140625 
Q 55.078125 64.0625 55.078125 55.328125 
Q 55.078125 49.078125 51.53125 44.71875 
Q 48 40.375 41.703125 38.8125 
Q 48.828125 37.15625 52.796875 32.3125 
Q 56.78125 27.484375 56.78125 20.515625 
Q 56.78125 9.90625 50.3125 4.234375 
Q 43.84375 -1.421875 31.78125 -1.421875 
Q 19.734375 -1.421875 13.25 4.234375 
Q 6.78125 9.90625 6.78125 20.515625 
Q 6.78125 27.484375 10.78125 32.3125 
Q 14.796875 37.15625 21.921875 38.8125 
z
M 18.3125 54.390625 
Q 18.3125 48.734375 21.84375 45.5625 
Q 25.390625 42.390625 31.78125 42.390625 
Q 38.140625 42.390625 41.71875 45.5625 
Q 45.3125 48.734375 45.3125 54.390625 
Q 45.3125 60.0625 41.71875 63.234375 
Q 38.140625 66.40625 31.78125 66.40625 
Q 25.390625 66.40625 21.84375 63.234375 
Q 18.3125 60.0625 18.3125 54.390625 
z
" id="DejaVuSans-56"/>
       </defs>
       <use xlink:href="#DejaVuSans-48"/>
       <use x="63.623047" xlink:href="#DejaVuSans-46"/>
       <use x="95.410156" xlink:href="#DejaVuSans-56"/>
      </g>
     </g>
    </g>
    <g id="ytick_6">
     <g id="line2d_27">
      <path clip-path="url(#pd09a022ebe)" d="M 57.6 30.334099 
L 338.688 30.334099 
" style="fill:none;stroke:#b0b0b0;stroke-linecap:square;stroke-width:0.8;"/>
     </g>
     <g id="line2d_28">
      <g>
       <use style="stroke:#000000;stroke-width:0.8;" x="57.6" xlink:href="#m05c62a4a75" y="30.334099"/>
      </g>
     </g>
     <g id="text_11">
      <!-- 1.0 -->
      <g transform="translate(25.155 36.412849)scale(0.16 -0.16)">
       <use xlink:href="#DejaVuSans-49"/>
       <use x="63.623047" xlink:href="#DejaVuSans-46"/>
       <use x="95.410156" xlink:href="#DejaVuSans-48"/>
      </g>
     </g>
    </g>
    <g id="text_12">
     <!-- Fraction of function,target pairs -->
     <g transform="translate(17.619531 297.681)rotate(-90)scale(0.17 -0.17)">
      <defs>
       <path d="M 9.8125 72.90625 
L 51.703125 72.90625 
L 51.703125 64.59375 
L 19.671875 64.59375 
L 19.671875 43.109375 
L 48.578125 43.109375 
L 48.578125 34.8125 
L 19.671875 34.8125 
L 19.671875 0 
L 9.8125 0 
z
" id="DejaVuSans-70"/>
       <path d="M 41.109375 46.296875 
Q 39.59375 47.171875 37.8125 47.578125 
Q 36.03125 48 33.890625 48 
Q 26.265625 48 22.1875 43.046875 
Q 18.109375 38.09375 18.109375 28.8125 
L 18.109375 0 
L 9.078125 0 
L 9.078125 54.6875 
L 18.109375 54.6875 
L 18.109375 46.1875 
Q 20.953125 51.171875 25.484375 53.578125 
Q 30.03125 56 36.53125 56 
Q 37.453125 56 38.578125 55.875 
Q 39.703125 55.765625 41.0625 55.515625 
z
" id="DejaVuSans-114"/>
       <path d="M 48.78125 52.59375 
L 48.78125 44.1875 
Q 44.96875 46.296875 41.140625 47.34375 
Q 37.3125 48.390625 33.40625 48.390625 
Q 24.65625 48.390625 19.8125 42.84375 
Q 14.984375 37.3125 14.984375 27.296875 
Q 14.984375 17.28125 19.8125 11.734375 
Q 24.65625 6.203125 33.40625 6.203125 
Q 37.3125 6.203125 41.140625 7.25 
Q 44.96875 8.296875 48.78125 10.40625 
L 48.78125 2.09375 
Q 45.015625 0.34375 40.984375 -0.53125 
Q 36.96875 -1.421875 32.421875 -1.421875 
Q 20.0625 -1.421875 12.78125 6.34375 
Q 5.515625 14.109375 5.515625 27.296875 
Q 5.515625 40.671875 12.859375 48.328125 
Q 20.21875 56 33.015625 56 
Q 37.15625 56 41.109375 55.140625 
Q 45.0625 54.296875 48.78125 52.59375 
z
" id="DejaVuSans-99"/>
       <path d="M 18.3125 70.21875 
L 18.3125 54.6875 
L 36.8125 54.6875 
L 36.8125 47.703125 
L 18.3125 47.703125 
L 18.3125 18.015625 
Q 18.3125 11.328125 20.140625 9.421875 
Q 21.96875 7.515625 27.59375 7.515625 
L 36.8125 7.515625 
L 36.8125 0 
L 27.59375 0 
Q 17.1875 0 13.234375 3.875 
Q 9.28125 7.765625 9.28125 18.015625 
L 9.28125 47.703125 
L 2.6875 47.703125 
L 2.6875 54.6875 
L 9.28125 54.6875 
L 9.28125 70.21875 
z
" id="DejaVuSans-116"/>
       <path d="M 8.5 21.578125 
L 8.5 54.6875 
L 17.484375 54.6875 
L 17.484375 21.921875 
Q 17.484375 14.15625 20.5 10.265625 
Q 23.53125 6.390625 29.59375 6.390625 
Q 36.859375 6.390625 41.078125 11.03125 
Q 45.3125 15.671875 45.3125 23.6875 
L 45.3125 54.6875 
L 54.296875 54.6875 
L 54.296875 0 
L 45.3125 0 
L 45.3125 8.40625 
Q 42.046875 3.421875 37.71875 1 
Q 33.40625 -1.421875 27.6875 -1.421875 
Q 18.265625 -1.421875 13.375 4.4375 
Q 8.5 10.296875 8.5 21.578125 
z
M 31.109375 56 
z
" id="DejaVuSans-117"/>
       <path d="M 11.71875 12.40625 
L 22.015625 12.40625 
L 22.015625 4 
L 14.015625 -11.625 
L 7.71875 -11.625 
L 11.71875 4 
z
" id="DejaVuSans-44"/>
       <path d="M 18.109375 8.203125 
L 18.109375 -20.796875 
L 9.078125 -20.796875 
L 9.078125 54.6875 
L 18.109375 54.6875 
L 18.109375 46.390625 
Q 20.953125 51.265625 25.265625 53.625 
Q 29.59375 56 35.59375 56 
Q 45.5625 56 51.78125 48.09375 
Q 58.015625 40.1875 58.015625 27.296875 
Q 58.015625 14.40625 51.78125 6.484375 
Q 45.5625 -1.421875 35.59375 -1.421875 
Q 29.59375 -1.421875 25.265625 0.953125 
Q 20.953125 3.328125 18.109375 8.203125 
z
M 48.6875 27.296875 
Q 48.6875 37.203125 44.609375 42.84375 
Q 40.53125 48.484375 33.40625 48.484375 
Q 26.265625 48.484375 22.1875 42.84375 
Q 18.109375 37.203125 18.109375 27.296875 
Q 18.109375 17.390625 22.1875 11.75 
Q 26.265625 6.109375 33.40625 6.109375 
Q 40.53125 6.109375 44.609375 11.75 
Q 48.6875 17.390625 48.6875 27.296875 
z
" id="DejaVuSans-112"/>
      </defs>
      <use xlink:href="#DejaVuSans-70"/>
      <use x="50.269531" xlink:href="#DejaVuSans-114"/>
      <use x="91.382812" xlink:href="#DejaVuSans-97"/>
      <use x="152.662109" xlink:href="#DejaVuSans-99"/>
      <use x="207.642578" xlink:href="#DejaVuSans-116"/>
      <use x="246.851562" xlink:href="#DejaVuSans-105"/>
      <use x="274.634766" xlink:href="#DejaVuSans-111"/>
      <use x="335.816406" xlink:href="#DejaVuSans-110"/>
      <use x="399.195312" xlink:href="#DejaVuSans-32"/>
      <use x="430.982422" xlink:href="#DejaVuSans-111"/>
      <use x="492.164062" xlink:href="#DejaVuSans-102"/>
      <use x="527.369141" xlink:href="#DejaVuSans-32"/>
      <use x="559.15625" xlink:href="#DejaVuSans-102"/>
      <use x="594.361328" xlink:href="#DejaVuSans-117"/>
      <use x="657.740234" xlink:href="#DejaVuSans-110"/>
      <use x="721.119141" xlink:href="#DejaVuSans-99"/>
      <use x="776.099609" xlink:href="#DejaVuSans-116"/>
      <use x="815.308594" xlink:href="#DejaVuSans-105"/>
      <use x="843.091797" xlink:href="#DejaVuSans-111"/>
      <use x="904.273438" xlink:href="#DejaVuSans-110"/>
      <use x="967.652344" xlink:href="#DejaVuSans-44"/>
      <use x="999.439453" xlink:href="#DejaVuSans-116"/>
      <use x="1038.648438" xlink:href="#DejaVuSans-97"/>
      <use x="1099.927734" xlink:href="#DejaVuSans-114"/>
      <use x="1139.291016" xlink:href="#DejaVuSans-103"/>
      <use x="1202.767578" xlink:href="#DejaVuSans-101"/>
      <use x="1264.291016" xlink:href="#DejaVuSans-116"/>
      <use x="1303.5" xlink:href="#DejaVuSans-32"/>
      <use x="1335.287109" xlink:href="#DejaVuSans-112"/>
      <use x="1398.763672" xlink:href="#DejaVuSans-97"/>
      <use x="1460.042969" xlink:href="#DejaVuSans-105"/>
      <use x="1487.826172" xlink:href="#DejaVuSans-114"/>
      <use x="1528.939453" xlink:href="#DejaVuSans-115"/>
     </g>
    </g>
   </g>
   <g id="line2d_29">
    <defs>
     <path d="M 0 1.5 
C 0.397805 1.5 0.77937 1.341951 1.06066 1.06066 
C 1.341951 0.77937 1.5 0.397805 1.5 0 
C 1.5 -0.397805 1.341951 -0.77937 1.06066 -1.06066 
C 0.77937 -1.341951 0.397805 -1.5 0 -1.5 
C -0.397805 -1.5 -0.77937 -1.341951 -1.06066 -1.06066 
C -1.341951 -0.77937 -1.5 -0.397805 -1.5 0 
C -1.5 0.397805 -1.341951 0.77937 -1.06066 1.06066 
C -0.77937 1.341951 -0.397805 1.5 0 1.5 
z
" id="ma31ac864ce" style="stroke:#000080;"/>
    </defs>
    <g>
     <use style="fill:#000080;stroke:#000080;" x="291.352614" xlink:href="#ma31ac864ce" y="69.642865"/>
     <use style="fill:#000080;stroke:#000080;" x="291.352614" xlink:href="#ma31ac864ce" y="69.642865"/>
    </g>
   </g>
   <g id="line2d_30">
    <path d="M 137.910857 298.944 
L 137.910857 298.288854 
L 145.327221 298.288854 
L 145.327221 297.633708 
L 145.732804 297.633708 
L 145.732804 296.978562 
L 145.954117 296.978562 
L 145.954117 296.323416 
L 147.02042 296.323416 
L 147.02042 295.66827 
L 147.185137 295.66827 
L 147.246507 294.357977 
L 148.48777 294.357977 
L 148.48777 293.702831 
L 148.938326 293.702831 
L 148.956849 292.392539 
L 149.141003 292.392539 
L 149.159312 291.082247 
L 149.305096 291.082247 
L 149.305096 290.427101 
L 149.699829 290.427101 
L 149.699829 289.771955 
L 149.963932 289.771955 
L 149.963932 289.116809 
L 151.243836 289.116809 
L 151.243836 288.461662 
L 152.511852 288.461662 
L 152.511852 287.806516 
L 153.495227 287.806516 
L 153.495227 287.15137 
L 153.651507 287.15137 
L 153.651507 286.496224 
L 154.399019 286.496224 
L 154.399019 285.841078 
L 154.761093 285.841078 
L 154.761093 285.185932 
L 155.28405 285.185932 
L 155.28405 284.530786 
L 155.816782 284.530786 
L 155.816782 283.87564 
L 156.126326 283.87564 
L 156.236431 282.565348 
L 156.988292 282.565348 
L 157.058236 281.255055 
L 157.289376 281.255055 
L 157.289376 280.599909 
L 157.494815 280.599909 
L 157.528821 279.289617 
L 157.77619 279.289617 
L 157.809652 277.979325 
L 159.486982 277.979325 
L 159.486982 277.324179 
L 159.976013 277.324179 
L 159.976013 276.669033 
L 160.123015 276.669033 
L 160.200913 275.35874 
L 160.268789 275.35874 
L 160.268789 274.703594 
L 160.442124 274.703594 
L 160.442124 274.048448 
L 160.961329 274.048448 
L 160.961329 273.393302 
L 161.146363 273.393302 
L 161.146363 272.738156 
L 161.787817 272.738156 
L 161.787817 272.08301 
L 162.086834 272.08301 
L 162.191157 270.772718 
L 162.303474 270.772718 
L 162.363654 269.462426 
L 162.55145 269.462426 
L 162.55145 268.807279 
L 163.004009 268.807279 
L 163.004009 268.152133 
L 163.557683 268.152133 
L 163.557683 267.496987 
L 163.851722 267.496987 
L 163.851722 266.841841 
L 164.432956 266.841841 
L 164.432956 266.186695 
L 164.832318 266.186695 
L 164.832318 265.531549 
L 165.09112 265.531549 
L 165.09112 264.876403 
L 165.439918 264.876403 
L 165.504548 263.566111 
L 165.604609 263.566111 
L 165.668633 262.255818 
L 165.718267 262.255818 
L 165.718267 261.600672 
L 165.992243 261.600672 
L 165.992243 260.945526 
L 166.412321 260.945526 
L 166.412321 260.29038 
L 166.621987 260.29038 
L 166.709167 258.980088 
L 166.775933 258.980088 
L 166.775933 258.324942 
L 167.079807 258.324942 
L 167.079807 257.669796 
L 167.197288 257.669796 
L 167.197288 257.01465 
L 167.722684 257.01465 
L 167.722684 256.359504 
L 168.596677 256.359504 
L 168.596677 255.704357 
L 169.052903 255.704357 
L 169.052903 255.049211 
L 169.36588 255.049211 
L 169.36588 254.394065 
L 169.508896 254.394065 
L 169.508896 253.738919 
L 169.98656 253.738919 
L 169.98656 253.083773 
L 170.745853 253.083773 
L 170.745853 252.428627 
L 170.893823 252.428627 
L 170.893823 251.773481 
L 171.139414 251.773481 
L 171.201568 250.463189 
L 171.391826 250.463189 
L 171.391826 249.808043 
L 171.67086 249.808043 
L 171.67086 249.152896 
L 172.108232 249.152896 
L 172.108232 248.49775 
L 172.293758 248.49775 
L 172.293758 247.842604 
L 172.658992 247.842604 
L 172.69225 246.532312 
L 173.257343 246.532312 
L 173.257343 245.877166 
L 175.158055 245.877166 
L 175.158055 245.22202 
L 175.379171 245.22202 
L 175.379171 244.566874 
L 175.919999 244.566874 
L 175.931828 243.256582 
L 176.886751 243.256582 
L 176.886751 242.601435 
L 177.016882 242.601435 
L 177.016882 241.946289 
L 177.696161 241.946289 
L 177.696161 241.291143 
L 178.177541 241.291143 
L 178.177541 240.635997 
L 178.52071 240.635997 
L 178.602076 239.325705 
L 180.259296 239.325705 
L 180.259296 238.670559 
L 180.738611 238.670559 
L 180.744595 237.360267 
L 181.871035 237.360267 
L 181.871035 236.705121 
L 182.013465 236.705121 
L 182.10501 235.394828 
L 182.294884 235.394828 
L 182.294884 234.739682 
L 182.488126 234.739682 
L 182.59606 233.42939 
L 182.963384 233.42939 
L 182.963384 232.774244 
L 184.347719 232.774244 
L 184.347719 232.119098 
L 185.065074 232.119098 
L 185.065074 231.463952 
L 185.303924 231.463952 
L 185.303924 230.808806 
L 185.584933 230.808806 
L 185.584933 230.15366 
L 186.034614 230.15366 
L 186.034614 229.498513 
L 187.53822 229.498513 
L 187.53822 228.843367 
L 189.032489 228.843367 
L 189.032489 228.188221 
L 189.732414 228.188221 
L 189.732414 227.533075 
L 189.904861 227.533075 
L 189.904861 226.877929 
L 190.331254 226.877929 
L 190.357129 225.567637 
L 190.794602 225.567637 
L 190.794602 224.912491 
L 191.57054 224.912491 
L 191.621917 223.602199 
L 192.664261 223.602199 
L 192.664261 222.947052 
L 192.783157 222.947052 
L 192.783157 222.291906 
L 193.306197 222.291906 
L 193.306197 221.63676 
L 193.604928 221.63676 
L 193.604928 220.981614 
L 194.101454 220.981614 
L 194.101454 220.326468 
L 194.50288 220.326468 
L 194.50288 219.671322 
L 195.378838 219.671322 
L 195.454927 218.36103 
L 195.767387 218.36103 
L 195.767387 217.705884 
L 196.690511 217.705884 
L 196.690511 217.050738 
L 196.957001 217.050738 
L 196.957001 216.395591 
L 197.576336 216.395591 
L 197.576336 215.740445 
L 198.192036 215.740445 
L 198.192036 215.085299 
L 198.552362 215.085299 
L 198.635127 213.775007 
L 199.687898 213.775007 
L 199.687898 213.119861 
L 200.401944 213.119861 
L 200.401944 212.464715 
L 200.587968 212.464715 
L 200.626275 211.154423 
L 200.856255 211.154423 
L 200.856255 210.499277 
L 201.010403 210.499277 
L 201.010403 209.84413 
L 201.977806 209.84413 
L 201.984002 208.533838 
L 202.174992 208.533838 
L 202.235286 207.223546 
L 202.44598 207.223546 
L 202.44598 206.5684 
L 202.567933 206.5684 
L 202.648196 205.258108 
L 202.855673 205.258108 
L 202.855673 204.602962 
L 202.984835 204.602962 
L 202.984835 203.947816 
L 203.349502 203.947816 
L 203.349502 203.292669 
L 203.689052 203.292669 
L 203.721124 201.982377 
L 204.258294 201.982377 
L 204.258294 201.327231 
L 204.630256 201.327231 
L 204.630256 200.672085 
L 204.831353 200.672085 
L 204.831353 200.016939 
L 205.495779 200.016939 
L 205.495779 199.361793 
L 205.839676 199.361793 
L 205.839676 198.706647 
L 206.237355 198.706647 
L 206.237355 198.051501 
L 206.739053 198.051501 
L 206.761273 196.741208 
L 207.431894 196.741208 
L 207.431894 196.086062 
L 207.669211 196.086062 
L 207.669211 195.430916 
L 207.830078 195.430916 
L 207.830078 194.77577 
L 208.405297 194.77577 
L 208.405297 194.120624 
L 208.717854 194.120624 
L 208.717854 193.465478 
L 208.945533 193.465478 
L 208.945533 192.810332 
L 209.699612 192.810332 
L 209.699612 192.155186 
L 209.970413 192.155186 
L 209.970413 191.50004 
L 210.763817 191.50004 
L 210.85558 190.189747 
L 211.224133 190.189747 
L 211.224133 189.534601 
L 211.57587 189.534601 
L 211.57587 188.879455 
L 211.767809 188.879455 
L 211.851436 187.569163 
L 212.089035 187.569163 
L 212.092505 186.258871 
L 212.276908 186.258871 
L 212.276908 185.603725 
L 212.896028 185.603725 
L 212.896028 184.948579 
L 213.161909 184.948579 
L 213.265561 183.638286 
L 213.569683 183.638286 
L 213.569683 182.98314 
L 214.009044 182.98314 
L 214.009044 182.327994 
L 214.435008 182.327994 
L 214.510683 181.017702 
L 214.701649 181.017702 
L 214.701649 180.362556 
L 215.64735 180.362556 
L 215.66109 179.052264 
L 216.37655 179.052264 
L 216.391277 177.741972 
L 216.57087 177.741972 
L 216.614525 175.121387 
L 217.402664 175.121387 
L 217.402664 174.466241 
L 217.521067 174.466241 
L 217.615576 172.500803 
L 218.396277 172.500803 
L 218.435943 171.190511 
L 219.320604 171.190511 
L 219.349726 169.880218 
L 219.545765 169.880218 
L 219.545765 169.225072 
L 220.019354 169.225072 
L 220.019354 168.569926 
L 220.152871 168.569926 
L 220.152871 167.91478 
L 220.333955 167.91478 
L 220.333955 167.259634 
L 221.522921 167.259634 
L 221.522921 166.604488 
L 221.699819 166.604488 
L 221.774803 164.63905 
L 221.825653 164.63905 
L 221.889079 163.328757 
L 221.976196 163.328757 
L 221.976196 162.673611 
L 222.405919 162.673611 
L 222.405919 162.018465 
L 223.05469 162.018465 
L 223.130398 160.708173 
L 223.341792 160.708173 
L 223.341792 160.053027 
L 223.505888 160.053027 
L 223.505888 159.397881 
L 223.794839 159.397881 
L 223.794839 158.742735 
L 224.312338 158.742735 
L 224.397482 156.777296 
L 224.495604 156.777296 
L 224.495604 156.12215 
L 224.818746 156.12215 
L 224.818746 155.467004 
L 224.978335 155.467004 
L 224.978335 154.811858 
L 225.588996 154.811858 
L 225.633974 153.501566 
L 225.81025 153.501566 
L 225.836189 152.191274 
L 226.000175 152.191274 
L 226.000175 151.536128 
L 226.379176 151.536128 
L 226.379176 150.880981 
L 226.572763 150.880981 
L 226.572763 150.225835 
L 226.919962 150.225835 
L 226.919962 149.570689 
L 227.275125 149.570689 
L 227.275125 148.915543 
L 227.551033 148.915543 
L 227.551033 148.260397 
L 227.725835 148.260397 
L 227.725835 147.605251 
L 227.869041 147.605251 
L 227.901907 146.294959 
L 228.036728 146.294959 
L 228.036728 145.639813 
L 228.261166 145.639813 
L 228.261166 144.984667 
L 228.386434 144.984667 
L 228.386434 144.32952 
L 228.756357 144.32952 
L 228.756357 143.674374 
L 229.37144 143.674374 
L 229.37144 143.019228 
L 229.867821 143.019228 
L 229.952577 141.708936 
L 230.122978 141.708936 
L 230.122978 141.05379 
L 230.407957 141.05379 
L 230.407957 140.398644 
L 230.554395 140.398644 
L 230.554395 139.743498 
L 230.800619 139.743498 
L 230.900706 138.433206 
L 230.927322 138.433206 
L 231.008266 137.122913 
L 231.099007 137.122913 
L 231.099007 136.467767 
L 232.261298 136.467767 
L 232.261298 135.812621 
L 232.538969 135.812621 
L 232.538969 135.157475 
L 232.898793 135.157475 
L 232.898793 134.502329 
L 233.019392 134.502329 
L 233.019392 133.847183 
L 233.39191 133.847183 
L 233.39191 133.192037 
L 233.515544 133.192037 
L 233.597483 131.226598 
L 233.832323 131.226598 
L 233.832323 130.571452 
L 233.953027 130.571452 
L 233.953027 129.916306 
L 234.629745 129.916306 
L 234.629745 129.26116 
L 234.925613 129.26116 
L 234.925613 128.606014 
L 235.248762 128.606014 
L 235.353289 127.295722 
L 235.899163 127.295722 
L 235.899163 126.640576 
L 236.117267 126.640576 
L 236.154726 125.330284 
L 236.257573 125.330284 
L 236.257573 124.675137 
L 236.460486 124.675137 
L 236.460486 124.019991 
L 236.956957 124.019991 
L 236.9923 122.709699 
L 237.330309 122.709699 
L 237.330309 122.054553 
L 237.501795 122.054553 
L 237.501795 121.399407 
L 238.938445 121.399407 
L 238.938445 120.744261 
L 239.255067 120.744261 
L 239.255067 120.089115 
L 239.443969 120.089115 
L 239.534834 118.778823 
L 239.61224 118.778823 
L 239.705185 117.46853 
L 239.787006 117.46853 
L 239.787006 116.813384 
L 239.917569 116.813384 
L 239.917569 116.158238 
L 240.2044 116.158238 
L 240.2044 115.503092 
L 240.643884 115.503092 
L 240.651404 114.1928 
L 240.926792 114.1928 
L 240.937414 112.882508 
L 241.143358 112.882508 
L 241.143358 112.227362 
L 241.313155 112.227362 
L 241.357916 110.261923 
L 243.209732 110.261923 
L 243.279836 108.296485 
L 243.344871 108.296485 
L 243.344871 107.641339 
L 243.931979 107.641339 
L 243.931979 106.986193 
L 244.402611 106.986193 
L 244.402611 106.331047 
L 244.907602 106.331047 
L 244.907602 105.675901 
L 245.220033 105.675901 
L 245.278158 104.365608 
L 245.693413 104.365608 
L 245.693413 103.710462 
L 246.093156 103.710462 
L 246.093156 103.055316 
L 247.072924 103.055316 
L 247.072924 102.40017 
L 247.45916 102.40017 
L 247.45916 101.745024 
L 247.586935 101.745024 
L 247.586935 101.089878 
L 247.742427 101.089878 
L 247.742427 100.434732 
L 247.907484 100.434732 
L 247.907484 99.779586 
L 248.364833 99.779586 
L 248.364833 99.12444 
L 249.285982 99.12444 
L 249.344099 97.159001 
L 249.4423 97.159001 
L 249.4423 96.503855 
L 250.431492 96.503855 
L 250.431492 95.848709 
L 251.078827 95.848709 
L 251.117265 94.538417 
L 251.413757 94.538417 
L 251.413757 93.883271 
L 252.507607 93.883271 
L 252.507607 93.228125 
L 254.442071 93.228125 
L 254.485811 91.917832 
L 254.928504 91.917832 
L 254.928504 91.262686 
L 255.042385 91.262686 
L 255.042385 90.60754 
L 256.074382 90.60754 
L 256.125691 89.297248 
L 256.50307 89.297248 
L 256.50307 88.642102 
L 256.821814 88.642102 
L 256.821814 87.986956 
L 257.137533 87.986956 
L 257.137533 87.33181 
L 257.736555 87.33181 
L 257.736555 86.676664 
L 258.367584 86.676664 
L 258.367584 86.021518 
L 258.829019 86.021518 
L 258.829019 85.366371 
L 258.967877 85.366371 
L 258.967877 84.711225 
L 259.194459 84.711225 
L 259.194459 84.056079 
L 259.646051 84.056079 
L 259.646051 83.400933 
L 259.779382 83.400933 
L 259.779382 82.745787 
L 260.110102 82.745787 
L 260.110102 82.090641 
L 260.699865 82.090641 
L 260.699865 81.435495 
L 260.867909 81.435495 
L 260.867909 80.780349 
L 263.386768 80.780349 
L 263.386768 80.125203 
L 264.000517 80.125203 
L 264.000517 79.470057 
L 265.780074 79.470057 
L 265.780074 78.81491 
L 267.06043 78.81491 
L 267.06043 78.159764 
L 267.264963 78.159764 
L 267.264963 77.504618 
L 270.282919 77.504618 
L 270.282919 76.849472 
L 271.660559 76.849472 
L 271.660559 76.194326 
L 273.275231 76.194326 
L 273.275231 75.53918 
L 275.334974 75.53918 
L 275.344705 74.228888 
L 275.534687 74.228888 
L 275.534687 73.573742 
L 275.665806 73.573742 
L 275.665806 72.918596 
L 278.403695 72.918596 
L 278.403695 72.263449 
L 279.711693 72.263449 
L 279.711693 71.608303 
L 284.542744 71.608303 
L 284.542744 70.953157 
L 288.479389 70.953157 
L 288.479389 70.298011 
L 291.352614 70.298011 
L 291.352614 69.642865 
L 338.688 69.642865 
L 338.688 69.642865 
" style="fill:none;stroke:#000080;stroke-linecap:square;stroke-width:1.5;"/>
   </g>
   <g id="line2d_31">
    <defs>
     <path d="M 0 6 
C 1.591219 6 3.117479 5.367802 4.242641 4.242641 
C 5.367802 3.117479 6 1.591219 6 0 
C 6 -1.591219 5.367802 -3.117479 4.242641 -4.242641 
C 3.117479 -5.367802 1.591219 -6 0 -6 
C -1.591219 -6 -3.117479 -5.367802 -4.242641 -4.242641 
C -5.367802 -3.117479 -6 -1.591219 -6 0 
C -6 1.591219 -5.367802 3.117479 -4.242641 4.242641 
C -3.117479 5.367802 -1.591219 6 0 6 
z
" id="m01749f0080" style="stroke:#000080;stroke-width:1.5;"/>
    </defs>
    <g>
     <use style="fill-opacity:0;stroke:#000080;stroke-width:1.5;" x="178.602076" xlink:href="#m01749f0080" y="239.980851"/>
     <use style="fill-opacity:0;stroke:#000080;stroke-width:1.5;" x="225.633974" xlink:href="#m01749f0080" y="154.156712"/>
     <use style="fill-opacity:0;stroke:#000080;stroke-width:1.5;" x="278.403695" xlink:href="#m01749f0080" y="72.918596"/>
     <use style="fill-opacity:0;stroke:#000080;stroke-width:1.5;" x="291.352614" xlink:href="#m01749f0080" y="69.642865"/>
     <use style="fill-opacity:0;stroke:#000080;stroke-width:1.5;" x="338.688" xlink:href="#m01749f0080" y="69.642865"/>
    </g>
   </g>
   <g id="line2d_32">
    <path style="fill:none;stroke:#000080;stroke-linecap:square;stroke-width:1.5;"/>
    <g/>
   </g>
   <g id="line2d_33">
    <path clip-path="url(#pd09a022ebe)" d="M 222.662221 162.018465 
" style="fill:none;stroke:#000080;stroke-linecap:square;stroke-width:1.5;"/>
    <defs>
     <path d="M -12 12 
L 12 -12 
M -12 -12 
L 12 12 
" id="m6092f5cf0f" style="stroke:#000080;"/>
    </defs>
    <g clip-path="url(#pd09a022ebe)">
     <use style="fill:#000080;stroke:#000080;" x="222.662221" xlink:href="#m6092f5cf0f" y="162.018465"/>
    </g>
   </g>
   <g id="line2d_34">
    <path clip-path="url(#pd09a022ebe)" d="M 57.6 298.944 
L 57.6 298.944 
L 57.6 298.944 
L 57.6 298.944 
L 338.688 298.944 
" style="fill:none;stroke:#ff00ff;stroke-linecap:square;stroke-width:1.5;"/>
   </g>
   <g id="line2d_35">
    <defs>
     <path d="M -0 8.485281 
L 5.091169 0 
L 0 -8.485281 
L -5.091169 -0 
z
" id="meb0691364e" style="stroke:#ff00ff;stroke-linejoin:miter;stroke-width:1.5;"/>
    </defs>
    <g clip-path="url(#pd09a022ebe)">
     <use style="fill-opacity:0;stroke:#ff00ff;stroke-linejoin:miter;stroke-width:1.5;" x="57.6" xlink:href="#meb0691364e" y="298.944"/>
    </g>
   </g>
   <g id="line2d_36">
    <path clip-path="url(#pd09a022ebe)" style="fill:none;stroke:#ff00ff;stroke-linecap:square;stroke-width:1.5;"/>
    <g clip-path="url(#pd09a022ebe)">
     <use style="fill-opacity:0;stroke:#ff00ff;stroke-linejoin:miter;stroke-width:1.5;" x="-1" xlink:href="#meb0691364e" y="567.553901"/>
     <use style="fill-opacity:0;stroke:#ff00ff;stroke-linejoin:miter;stroke-width:1.5;" x="338.688" xlink:href="#meb0691364e" y="567.553901"/>
    </g>
   </g>
   <g id="line2d_37">
    <defs>
     <path d="M 0 1.5 
C 0.397805 1.5 0.77937 1.341951 1.06066 1.06066 
C 1.341951 0.77937 1.5 0.397805 1.5 0 
C 1.5 -0.397805 1.341951 -0.77937 1.06066 -1.06066 
C 0.77937 -1.341951 0.397805 -1.5 0 -1.5 
C -0.397805 -1.5 -0.77937 -1.341951 -1.06066 -1.06066 
C -1.341951 -0.77937 -1.5 -0.397805 -1.5 0 
C -1.5 0.397805 -1.341951 0.77937 -1.06066 1.06066 
C -0.77937 1.341951 -0.397805 1.5 0 1.5 
z
" id="m49f0e1d489" style="stroke:#ff7500;"/>
    </defs>
    <g>
     <use style="fill:#ff7500;stroke:#ff7500;" x="301.118214" xlink:href="#m49f0e1d489" y="128.606014"/>
     <use style="fill:#ff7500;stroke:#ff7500;" x="301.118214" xlink:href="#m49f0e1d489" y="128.606014"/>
    </g>
   </g>
   <g id="line2d_38">
    <path d="M 138.927025 298.944 
L 138.927025 298.288854 
L 143.273169 298.288854 
L 143.273169 297.633708 
L 143.964547 297.633708 
L 143.964547 296.978562 
L 144.474645 296.978562 
L 144.474645 296.323416 
L 147.256714 296.323416 
L 147.256714 295.66827 
L 148.658095 295.66827 
L 148.658095 295.013123 
L 148.770728 295.013123 
L 148.770728 294.357977 
L 149.00307 294.357977 
L 149.00307 293.702831 
L 149.449671 293.702831 
L 149.449671 293.047685 
L 150.51433 293.047685 
L 150.51433 292.392539 
L 152.572143 292.392539 
L 152.587184 291.082247 
L 152.929579 291.082247 
L 152.929579 290.427101 
L 154.358321 290.427101 
L 154.358321 289.771955 
L 155.258271 289.771955 
L 155.329071 288.461662 
L 155.647315 288.461662 
L 155.716556 287.15137 
L 156.514691 287.15137 
L 156.562634 285.841078 
L 157.37527 285.841078 
L 157.37527 285.185932 
L 157.528821 285.185932 
L 157.528821 284.530786 
L 157.731474 284.530786 
L 157.731474 283.87564 
L 158.080549 283.87564 
L 158.080549 283.220494 
L 159.196108 283.220494 
L 159.196108 282.565348 
L 159.728221 282.565348 
L 159.768105 281.255055 
L 160.069258 281.255055 
L 160.069258 280.599909 
L 160.475629 280.599909 
L 160.475629 279.944763 
L 160.746084 279.944763 
L 160.746084 279.289617 
L 160.882091 279.289617 
L 160.882091 278.634471 
L 162.303474 278.634471 
L 162.303474 277.979325 
L 162.644595 277.979325 
L 162.644595 277.324179 
L 162.837761 277.324179 
L 162.858629 276.013887 
L 163.04945 276.013887 
L 163.127663 274.703594 
L 163.645619 274.703594 
L 163.645619 274.048448 
L 164.398623 274.048448 
L 164.398623 273.393302 
L 164.607388 273.393302 
L 164.607388 272.738156 
L 164.723964 272.738156 
L 164.731458 271.427864 
L 165.432722 271.427864 
L 165.432722 270.772718 
L 165.77129 270.772718 
L 165.866327 269.462426 
L 166.561376 269.462426 
L 166.561376 268.807279 
L 167.132118 268.807279 
L 167.132118 268.152133 
L 167.268694 268.152133 
L 167.294587 266.841841 
L 167.576907 266.841841 
L 167.576907 266.186695 
L 167.982673 266.186695 
L 167.982673 265.531549 
L 168.318321 265.531549 
L 168.318321 264.876403 
L 168.749091 264.876403 
L 168.749091 264.221257 
L 168.947317 264.221257 
L 168.947317 263.566111 
L 169.227472 263.566111 
L 169.227472 262.910965 
L 169.667694 262.910965 
L 169.667694 262.255818 
L 170.875396 262.255818 
L 170.875396 261.600672 
L 171.061409 261.600672 
L 171.061409 260.945526 
L 171.214489 260.945526 
L 171.307238 259.635234 
L 172.029522 259.635234 
L 172.029522 258.980088 
L 172.281613 258.980088 
L 172.281613 258.324942 
L 172.725446 258.324942 
L 172.725446 257.669796 
L 173.909038 257.669796 
L 173.909038 257.01465 
L 174.061097 257.01465 
L 174.061097 256.359504 
L 175.271011 256.359504 
L 175.271011 255.704357 
L 176.131719 255.704357 
L 176.131719 255.049211 
L 176.78945 255.049211 
L 176.78945 254.394065 
L 176.935199 254.394065 
L 176.935199 253.738919 
L 178.10983 253.738919 
L 178.123741 252.428627 
L 178.552963 252.428627 
L 178.645991 251.118335 
L 180.132734 251.118335 
L 180.132734 250.463189 
L 180.88017 250.463189 
L 180.88017 249.808043 
L 181.338605 249.808043 
L 181.360275 248.49775 
L 182.023198 248.49775 
L 182.092555 246.532312 
L 182.444765 246.532312 
L 182.444765 245.877166 
L 182.902698 245.877166 
L 182.902698 245.22202 
L 183.03829 245.22202 
L 183.03829 244.566874 
L 183.17804 244.566874 
L 183.17804 243.911728 
L 185.33154 243.911728 
L 185.33154 243.256582 
L 185.647145 243.256582 
L 185.696756 241.946289 
L 185.82911 241.946289 
L 185.82911 241.291143 
L 186.693433 241.291143 
L 186.709376 239.980851 
L 187.126129 239.980851 
L 187.126129 239.325705 
L 191.488344 239.325705 
L 191.488344 238.670559 
L 193.099007 238.670559 
L 193.099007 238.015413 
L 193.485761 238.015413 
L 193.541857 236.705121 
L 194.523933 236.705121 
L 194.60789 235.394828 
L 195.425305 235.394828 
L 195.425305 234.739682 
L 195.65898 234.739682 
L 195.735126 233.42939 
L 196.095448 233.42939 
L 196.095448 232.774244 
L 197.353293 232.774244 
L 197.460297 231.463952 
L 197.490667 231.463952 
L 197.490667 230.808806 
L 198.252975 230.808806 
L 198.252975 230.15366 
L 198.445369 230.15366 
L 198.471367 228.843367 
L 198.582504 228.843367 
L 198.582504 228.188221 
L 199.278829 228.188221 
L 199.278829 227.533075 
L 199.490945 227.533075 
L 199.490945 226.877929 
L 199.938964 226.877929 
L 199.938964 226.222783 
L 201.469394 226.222783 
L 201.565744 224.912491 
L 203.223023 224.912491 
L 203.277751 223.602199 
L 203.761931 223.602199 
L 203.761931 222.947052 
L 204.304451 222.947052 
L 204.304451 222.291906 
L 205.857048 222.291906 
L 205.857048 221.63676 
L 206.046661 221.63676 
L 206.077481 220.326468 
L 206.2841 220.326468 
L 206.2841 219.671322 
L 206.698917 219.671322 
L 206.698917 219.016176 
L 207.114321 219.016176 
L 207.114321 218.36103 
L 207.396568 218.36103 
L 207.396568 217.705884 
L 207.817415 217.705884 
L 207.817415 217.050738 
L 208.090466 217.050738 
L 208.090466 216.395591 
L 208.691669 216.395591 
L 208.691669 215.740445 
L 209.098038 215.740445 
L 209.098038 215.085299 
L 209.930621 215.085299 
L 210.022677 213.775007 
L 211.569998 213.775007 
L 211.657372 212.464715 
L 211.968893 212.464715 
L 211.968893 211.809569 
L 212.471512 211.809569 
L 212.471512 211.154423 
L 213.031824 211.154423 
L 213.031824 210.499277 
L 213.153049 210.499277 
L 213.153049 209.84413 
L 213.739183 209.84413 
L 213.753384 208.533838 
L 213.929371 208.533838 
L 213.929371 207.878692 
L 214.262543 207.878692 
L 214.262543 207.223546 
L 214.977092 207.223546 
L 215.003539 205.913254 
L 216.656735 205.913254 
L 216.656735 205.258108 
L 216.963258 205.258108 
L 216.963258 204.602962 
L 218.326384 204.602962 
L 218.375892 203.292669 
L 219.000181 203.292669 
L 219.000181 202.637523 
L 220.136941 202.637523 
L 220.136941 201.982377 
L 220.453743 201.982377 
L 220.453743 201.327231 
L 220.73019 201.327231 
L 220.782067 200.016939 
L 220.906154 200.016939 
L 220.906154 199.361793 
L 221.041683 199.361793 
L 221.041683 198.706647 
L 221.289155 198.706647 
L 221.289155 198.051501 
L 222.045381 198.051501 
L 222.045381 197.396355 
L 222.371724 197.396355 
L 222.4029 196.086062 
L 223.282531 196.086062 
L 223.282531 195.430916 
L 223.40746 195.430916 
L 223.40746 194.77577 
L 223.629489 194.77577 
L 223.629489 194.120624 
L 223.786096 194.120624 
L 223.851757 192.810332 
L 224.327582 192.810332 
L 224.374213 191.50004 
L 225.26772 191.50004 
L 225.26772 190.844894 
L 225.843062 190.844894 
L 225.843062 190.189747 
L 226.076371 190.189747 
L 226.076371 189.534601 
L 226.503483 189.534601 
L 226.503483 188.879455 
L 226.910958 188.879455 
L 226.910958 188.224309 
L 227.810874 188.224309 
L 227.810874 187.569163 
L 228.044971 187.569163 
L 228.044971 186.914017 
L 228.211572 186.914017 
L 228.218652 185.603725 
L 228.473551 185.603725 
L 228.473551 184.948579 
L 229.942873 184.948579 
L 229.942873 184.293433 
L 230.843125 184.293433 
L 230.878017 182.98314 
L 231.05662 182.98314 
L 231.05662 182.327994 
L 231.205272 182.327994 
L 231.205272 181.672848 
L 231.448664 181.672848 
L 231.52666 180.362556 
L 231.598237 180.362556 
L 231.598237 179.70741 
L 232.097193 179.70741 
L 232.097193 179.052264 
L 232.220866 179.052264 
L 232.220866 178.397118 
L 232.401614 178.397118 
L 232.418157 177.086825 
L 232.569559 177.086825 
L 232.569559 176.431679 
L 233.39454 176.431679 
L 233.39454 175.776533 
L 234.446099 175.776533 
L 234.471943 174.466241 
L 235.443753 174.466241 
L 235.443753 173.811095 
L 235.558225 173.811095 
L 235.588401 172.500803 
L 235.669642 172.500803 
L 235.683424 171.190511 
L 235.855442 171.190511 
L 235.855442 170.535364 
L 236.162894 170.535364 
L 236.162894 169.880218 
L 236.341564 169.880218 
L 236.341564 169.225072 
L 236.851454 169.225072 
L 236.851454 168.569926 
L 237.300375 168.569926 
L 237.300375 167.91478 
L 237.610276 167.91478 
L 237.721221 166.604488 
L 238.036398 166.604488 
L 238.131482 165.294196 
L 238.347409 165.294196 
L 238.347409 164.63905 
L 238.951784 164.63905 
L 239.060453 163.328757 
L 241.659743 163.328757 
L 241.659743 162.673611 
L 242.04408 162.673611 
L 242.04408 162.018465 
L 242.695525 162.018465 
L 242.695525 161.363319 
L 242.995479 161.363319 
L 243.028687 160.053027 
L 243.447389 160.053027 
L 243.447389 159.397881 
L 244.005329 159.397881 
L 244.009026 158.087589 
L 244.285238 158.087589 
L 244.340007 156.777296 
L 244.700084 156.777296 
L 244.700084 156.12215 
L 245.418741 156.12215 
L 245.418741 155.467004 
L 246.994887 155.467004 
L 247.034233 154.156712 
L 247.400845 154.156712 
L 247.400845 153.501566 
L 247.813585 153.501566 
L 247.895496 152.191274 
L 248.852247 152.191274 
L 248.852247 151.536128 
L 249.325882 151.536128 
L 249.325882 150.880981 
L 250.893872 150.880981 
L 250.893872 150.225835 
L 254.769192 150.225835 
L 254.875249 148.915543 
L 256.487082 148.915543 
L 256.487082 148.260397 
L 256.637389 148.260397 
L 256.637389 147.605251 
L 257.489471 147.605251 
L 257.489471 146.950105 
L 259.782279 146.950105 
L 259.782279 146.294959 
L 260.578763 146.294959 
L 260.587108 144.984667 
L 261.629357 144.984667 
L 261.629357 144.32952 
L 262.146383 144.32952 
L 262.146383 143.674374 
L 263.921968 143.674374 
L 263.99804 142.364082 
L 264.078939 142.364082 
L 264.078939 141.708936 
L 265.076886 141.708936 
L 265.076886 141.05379 
L 266.405365 141.05379 
L 266.444819 139.743498 
L 267.811167 139.743498 
L 267.811167 139.088352 
L 268.228693 139.088352 
L 268.307845 137.778059 
L 269.601637 137.778059 
L 269.601637 137.122913 
L 273.276515 137.122913 
L 273.276515 136.467767 
L 278.367629 136.467767 
L 278.367629 135.812621 
L 281.088865 135.812621 
L 281.088865 135.157475 
L 281.993873 135.157475 
L 281.993873 134.502329 
L 284.385181 134.502329 
L 284.385181 133.847183 
L 285.118964 133.847183 
L 285.163386 132.536891 
L 285.974385 132.536891 
L 286.068001 131.226598 
L 291.916234 131.226598 
L 291.916234 130.571452 
L 298.630885 130.571452 
L 298.630885 129.916306 
L 299.167609 129.916306 
L 299.167609 129.26116 
L 301.118214 129.26116 
L 301.118214 128.606014 
L 338.688 128.606014 
L 338.688 128.606014 
" style="fill:none;stroke:#ff7500;stroke-linecap:square;stroke-width:1.5;"/>
   </g>
   <g id="line2d_39">
    <defs>
     <path d="M 0 -6 
L -1.347084 -1.854102 
L -5.706339 -1.854102 
L -2.179628 0.708204 
L -3.526712 4.854102 
L -0 2.291796 
L 3.526712 4.854102 
L 2.179628 0.708204 
L 5.706339 -1.854102 
L 1.347084 -1.854102 
z
" id="m24c15c60ea" style="stroke:#ff7500;stroke-linejoin:bevel;stroke-width:1.5;"/>
    </defs>
    <g>
     <use style="fill-opacity:0;stroke:#ff7500;stroke-linejoin:bevel;stroke-width:1.5;" x="216.963258" xlink:href="#m24c15c60ea" y="205.258108"/>
     <use style="fill-opacity:0;stroke:#ff7500;stroke-linejoin:bevel;stroke-width:1.5;" x="256.637389" xlink:href="#m24c15c60ea" y="147.605251"/>
     <use style="fill-opacity:0;stroke:#ff7500;stroke-linejoin:bevel;stroke-width:1.5;" x="301.118214" xlink:href="#m24c15c60ea" y="128.606014"/>
     <use style="fill-opacity:0;stroke:#ff7500;stroke-linejoin:bevel;stroke-width:1.5;" x="301.118214" xlink:href="#m24c15c60ea" y="128.606014"/>
     <use style="fill-opacity:0;stroke:#ff7500;stroke-linejoin:bevel;stroke-width:1.5;" x="338.688" xlink:href="#m24c15c60ea" y="128.606014"/>
    </g>
   </g>
   <g id="line2d_40">
    <path style="fill:none;stroke:#ff7500;stroke-linecap:square;stroke-width:1.5;"/>
    <g/>
   </g>
   <g id="line2d_41">
    <path clip-path="url(#pd09a022ebe)" d="M 226.898662 188.879455 
" style="fill:none;stroke:#ff7500;stroke-linecap:square;stroke-width:1.5;"/>
    <defs>
     <path d="M -12 12 
L 12 -12 
M -12 -12 
L 12 12 
" id="m1a04afd399" style="stroke:#ff7500;"/>
    </defs>
    <g clip-path="url(#pd09a022ebe)">
     <use style="fill:#ff7500;stroke:#ff7500;" x="226.898662" xlink:href="#m1a04afd399" y="188.879455"/>
    </g>
   </g>
   <g id="line2d_42">
    <path clip-path="url(#pd09a022ebe)" d="M 57.6 298.944 
L 57.6 298.944 
L 57.6 298.944 
L 57.6 298.944 
L 338.688 298.944 
" style="fill:none;stroke:#6495ed;stroke-linecap:square;stroke-width:1.5;"/>
   </g>
   <g id="line2d_43">
    <defs>
     <path d="M -0 6 
L 6 -6 
L -6 -6 
z
" id="m177b17362e" style="stroke:#6495ed;stroke-linejoin:miter;stroke-width:1.5;"/>
    </defs>
    <g clip-path="url(#pd09a022ebe)">
     <use style="fill-opacity:0;stroke:#6495ed;stroke-linejoin:miter;stroke-width:1.5;" x="57.6" xlink:href="#m177b17362e" y="298.944"/>
    </g>
   </g>
   <g id="line2d_44">
    <path clip-path="url(#pd09a022ebe)" style="fill:none;stroke:#6495ed;stroke-linecap:square;stroke-width:1.5;"/>
    <g clip-path="url(#pd09a022ebe)">
     <use style="fill-opacity:0;stroke:#6495ed;stroke-linejoin:miter;stroke-width:1.5;" x="-1" xlink:href="#m177b17362e" y="567.553901"/>
     <use style="fill-opacity:0;stroke:#6495ed;stroke-linejoin:miter;stroke-width:1.5;" x="338.688" xlink:href="#m177b17362e" y="567.553901"/>
    </g>
   </g>
   <g id="line2d_45">
    <path d="M 338.688 298.944 
L 369.60768 293.571802 
" style="fill:none;stroke:#6495ed;stroke-linecap:square;stroke-width:1.5;"/>
    <g>
     <use style="fill-opacity:0;stroke:#6495ed;stroke-linejoin:miter;stroke-width:1.5;" x="338.688" xlink:href="#m177b17362e" y="298.944"/>
     <use style="fill-opacity:0;stroke:#6495ed;stroke-linejoin:miter;stroke-width:1.5;" x="369.60768" xlink:href="#m177b17362e" y="293.571802"/>
    </g>
   </g>
   <g id="line2d_46">
    <path d="M 338.688 298.944 
L 369.60768 207.616634 
" style="fill:none;stroke:#ff00ff;stroke-linecap:square;stroke-width:1.5;"/>
    <g>
     <use style="fill-opacity:0;stroke:#ff00ff;stroke-linejoin:miter;stroke-width:1.5;" x="338.688" xlink:href="#meb0691364e" y="298.944"/>
     <use style="fill-opacity:0;stroke:#ff00ff;stroke-linejoin:miter;stroke-width:1.5;" x="369.60768" xlink:href="#meb0691364e" y="207.616634"/>
    </g>
   </g>
   <g id="line2d_47">
    <path d="M 338.688 128.606014 
L 369.60768 121.661465 
" style="fill:none;stroke:#ff7500;stroke-linecap:square;stroke-width:1.5;"/>
    <g>
     <use style="fill-opacity:0;stroke:#ff7500;stroke-linejoin:bevel;stroke-width:1.5;" x="338.688" xlink:href="#m24c15c60ea" y="128.606014"/>
     <use style="fill-opacity:0;stroke:#ff7500;stroke-linejoin:bevel;stroke-width:1.5;" x="369.60768" xlink:href="#m24c15c60ea" y="121.661465"/>
    </g>
   </g>
   <g id="line2d_48">
    <path d="M 338.688 69.642865 
L 369.60768 35.706297 
" style="fill:none;stroke:#000080;stroke-linecap:square;stroke-width:1.5;"/>
    <g>
     <use style="fill-opacity:0;stroke:#000080;stroke-width:1.5;" x="338.688" xlink:href="#m01749f0080" y="69.642865"/>
     <use style="fill-opacity:0;stroke:#000080;stroke-width:1.5;" x="369.60768" xlink:href="#m01749f0080" y="35.706297"/>
    </g>
   </g>
   <g id="line2d_49">
    <path d="M 338.688 298.944 
L 338.688 30.334099 
" style="fill:none;stroke:#000000;stroke-linecap:square;stroke-width:1.5;"/>
   </g>
   <g id="patch_3">
    <path d="M 57.6 298.944 
L 57.6 27.648 
" style="fill:none;stroke:#000000;stroke-linecap:square;stroke-linejoin:miter;stroke-width:0.8;"/>
   </g>
   <g id="patch_4">
    <path d="M 338.688 298.944 
L 338.688 27.648 
" style="fill:none;stroke:#000000;stroke-linecap:square;stroke-linejoin:miter;stroke-width:0.8;"/>
   </g>
   <g id="patch_5">
    <path d="M 57.6 298.944 
L 338.688 298.944 
" style="fill:none;stroke:#000000;stroke-linecap:square;stroke-linejoin:miter;stroke-width:0.8;"/>
   </g>
   <g id="patch_6">
    <path d="M 57.6 27.648 
L 338.688 27.648 
" style="fill:none;stroke:#000000;stroke-linecap:square;stroke-linejoin:miter;stroke-width:0.8;"/>
   </g>
   <g id="text_13">
    <!-- slsqp -->
    <g transform="translate(375.22944 298.262739)scale(0.17 -0.17)">
     <defs>
      <path d="M 14.796875 27.296875 
Q 14.796875 17.390625 18.875 11.75 
Q 22.953125 6.109375 30.078125 6.109375 
Q 37.203125 6.109375 41.296875 11.75 
Q 45.40625 17.390625 45.40625 27.296875 
Q 45.40625 37.203125 41.296875 42.84375 
Q 37.203125 48.484375 30.078125 48.484375 
Q 22.953125 48.484375 18.875 42.84375 
Q 14.796875 37.203125 14.796875 27.296875 
z
M 45.40625 8.203125 
Q 42.578125 3.328125 38.25 0.953125 
Q 33.9375 -1.421875 27.875 -1.421875 
Q 17.96875 -1.421875 11.734375 6.484375 
Q 5.515625 14.40625 5.515625 27.296875 
Q 5.515625 40.1875 11.734375 48.09375 
Q 17.96875 56 27.875 56 
Q 33.9375 56 38.25 53.625 
Q 42.578125 51.265625 45.40625 46.390625 
L 45.40625 54.6875 
L 54.390625 54.6875 
L 54.390625 -20.796875 
L 45.40625 -20.796875 
z
" id="DejaVuSans-113"/>
     </defs>
     <use xlink:href="#DejaVuSans-115"/>
     <use x="52.099609" xlink:href="#DejaVuSans-108"/>
     <use x="79.882812" xlink:href="#DejaVuSans-115"/>
     <use x="131.982422" xlink:href="#DejaVuSans-113"/>
     <use x="195.458984" xlink:href="#DejaVuSans-112"/>
    </g>
   </g>
   <g id="text_14">
    <!-- cobyla -->
    <g transform="translate(375.22944 212.307571)scale(0.17 -0.17)">
     <defs>
      <path d="M 48.6875 27.296875 
Q 48.6875 37.203125 44.609375 42.84375 
Q 40.53125 48.484375 33.40625 48.484375 
Q 26.265625 48.484375 22.1875 42.84375 
Q 18.109375 37.203125 18.109375 27.296875 
Q 18.109375 17.390625 22.1875 11.75 
Q 26.265625 6.109375 33.40625 6.109375 
Q 40.53125 6.109375 44.609375 11.75 
Q 48.6875 17.390625 48.6875 27.296875 
z
M 18.109375 46.390625 
Q 20.953125 51.265625 25.265625 53.625 
Q 29.59375 56 35.59375 56 
Q 45.5625 56 51.78125 48.09375 
Q 58.015625 40.1875 58.015625 27.296875 
Q 58.015625 14.40625 51.78125 6.484375 
Q 45.5625 -1.421875 35.59375 -1.421875 
Q 29.59375 -1.421875 25.265625 0.953125 
Q 20.953125 3.328125 18.109375 8.203125 
L 18.109375 0 
L 9.078125 0 
L 9.078125 75.984375 
L 18.109375 75.984375 
z
" id="DejaVuSans-98"/>
      <path d="M 32.171875 -5.078125 
Q 28.375 -14.84375 24.75 -17.8125 
Q 21.140625 -20.796875 15.09375 -20.796875 
L 7.90625 -20.796875 
L 7.90625 -13.28125 
L 13.1875 -13.28125 
Q 16.890625 -13.28125 18.9375 -11.515625 
Q 21 -9.765625 23.484375 -3.21875 
L 25.09375 0.875 
L 2.984375 54.6875 
L 12.5 54.6875 
L 29.59375 11.921875 
L 46.6875 54.6875 
L 56.203125 54.6875 
z
" id="DejaVuSans-121"/>
     </defs>
     <use xlink:href="#DejaVuSans-99"/>
     <use x="54.980469" xlink:href="#DejaVuSans-111"/>
     <use x="116.162109" xlink:href="#DejaVuSans-98"/>
     <use x="179.638672" xlink:href="#DejaVuSans-121"/>
     <use x="238.818359" xlink:href="#DejaVuSans-108"/>
     <use x="266.601562" xlink:href="#DejaVuSans-97"/>
    </g>
   </g>
   <g id="text_15">
    <!-- l1p-cmaes -->
    <g transform="translate(375.22944 126.352403)scale(0.17 -0.17)">
     <use xlink:href="#DejaVuSans-108"/>
     <use x="27.783203" xlink:href="#DejaVuSans-49"/>
     <use x="91.40625" xlink:href="#DejaVuSans-112"/>
     <use x="154.882812" xlink:href="#DejaVuSans-45"/>
     <use x="190.966797" xlink:href="#DejaVuSans-99"/>
     <use x="245.947266" xlink:href="#DejaVuSans-109"/>
     <use x="343.359375" xlink:href="#DejaVuSans-97"/>
     <use x="404.638672" xlink:href="#DejaVuSans-101"/>
     <use x="466.162109" xlink:href="#DejaVuSans-115"/>
    </g>
   </g>
   <g id="text_16">
    <!-- alN5 -->
    <g transform="translate(375.22944 40.397235)scale(0.17 -0.17)">
     <defs>
      <path d="M 9.8125 72.90625 
L 23.09375 72.90625 
L 55.421875 11.921875 
L 55.421875 72.90625 
L 64.984375 72.90625 
L 64.984375 0 
L 51.703125 0 
L 19.390625 60.984375 
L 19.390625 0 
L 9.8125 0 
z
" id="DejaVuSans-78"/>
      <path d="M 10.796875 72.90625 
L 49.515625 72.90625 
L 49.515625 64.59375 
L 19.828125 64.59375 
L 19.828125 46.734375 
Q 21.96875 47.46875 24.109375 47.828125 
Q 26.265625 48.1875 28.421875 48.1875 
Q 40.625 48.1875 47.75 41.5 
Q 54.890625 34.8125 54.890625 23.390625 
Q 54.890625 11.625 47.5625 5.09375 
Q 40.234375 -1.421875 26.90625 -1.421875 
Q 22.3125 -1.421875 17.546875 -0.640625 
Q 12.796875 0.140625 7.71875 1.703125 
L 7.71875 11.625 
Q 12.109375 9.234375 16.796875 8.0625 
Q 21.484375 6.890625 26.703125 6.890625 
Q 35.15625 6.890625 40.078125 11.328125 
Q 45.015625 15.765625 45.015625 23.390625 
Q 45.015625 31 40.078125 35.4375 
Q 35.15625 39.890625 26.703125 39.890625 
Q 22.75 39.890625 18.8125 39.015625 
Q 14.890625 38.140625 10.796875 36.28125 
z
" id="DejaVuSans-53"/>
     </defs>
     <use xlink:href="#DejaVuSans-97"/>
     <use x="61.279297" xlink:href="#DejaVuSans-108"/>
     <use x="89.0625" xlink:href="#DejaVuSans-78"/>
     <use x="163.867188" xlink:href="#DejaVuSans-53"/>
    </g>
   </g>
   <g id="text_17">
    <!-- bbob-constrained f11, 10-D -->
    <g transform="translate(60.41088 38.111366)scale(0.102 -0.102)">
     <defs>
      <path d="M 19.671875 64.796875 
L 19.671875 8.109375 
L 31.59375 8.109375 
Q 46.6875 8.109375 53.6875 14.9375 
Q 60.6875 21.78125 60.6875 36.53125 
Q 60.6875 51.171875 53.6875 57.984375 
Q 46.6875 64.796875 31.59375 64.796875 
z
M 9.8125 72.90625 
L 30.078125 72.90625 
Q 51.265625 72.90625 61.171875 64.09375 
Q 71.09375 55.28125 71.09375 36.53125 
Q 71.09375 17.671875 61.125 8.828125 
Q 51.171875 0 30.078125 0 
L 9.8125 0 
z
" id="DejaVuSans-68"/>
     </defs>
     <use xlink:href="#DejaVuSans-98"/>
     <use x="63.476562" xlink:href="#DejaVuSans-98"/>
     <use x="126.953125" xlink:href="#DejaVuSans-111"/>
     <use x="188.134766" xlink:href="#DejaVuSans-98"/>
     <use x="251.611328" xlink:href="#DejaVuSans-45"/>
     <use x="287.695312" xlink:href="#DejaVuSans-99"/>
     <use x="342.675781" xlink:href="#DejaVuSans-111"/>
     <use x="403.857422" xlink:href="#DejaVuSans-110"/>
     <use x="467.236328" xlink:href="#DejaVuSans-115"/>
     <use x="519.335938" xlink:href="#DejaVuSans-116"/>
     <use x="558.544922" xlink:href="#DejaVuSans-114"/>
     <use x="599.658203" xlink:href="#DejaVuSans-97"/>
     <use x="660.9375" xlink:href="#DejaVuSans-105"/>
     <use x="688.720703" xlink:href="#DejaVuSans-110"/>
     <use x="752.099609" xlink:href="#DejaVuSans-101"/>
     <use x="813.623047" xlink:href="#DejaVuSans-100"/>
     <use x="877.099609" xlink:href="#DejaVuSans-32"/>
     <use x="908.886719" xlink:href="#DejaVuSans-102"/>
     <use x="944.091797" xlink:href="#DejaVuSans-49"/>
     <use x="1007.714844" xlink:href="#DejaVuSans-49"/>
     <use x="1071.337891" xlink:href="#DejaVuSans-44"/>
     <use x="1103.125" xlink:href="#DejaVuSans-32"/>
     <use x="1134.912109" xlink:href="#DejaVuSans-49"/>
     <use x="1198.535156" xlink:href="#DejaVuSans-48"/>
     <use x="1262.158203" xlink:href="#DejaVuSans-45"/>
     <use x="1298.242188" xlink:href="#DejaVuSans-68"/>
    </g>
    <!-- 41 targets: 100..1e-06 -->
    <g transform="translate(60.41088 49.533135)scale(0.102 -0.102)">
     <defs>
      <path d="M 11.71875 12.40625 
L 22.015625 12.40625 
L 22.015625 0 
L 11.71875 0 
z
M 11.71875 51.703125 
L 22.015625 51.703125 
L 22.015625 39.3125 
L 11.71875 39.3125 
z
" id="DejaVuSans-58"/>
     </defs>
     <use xlink:href="#DejaVuSans-52"/>
     <use x="63.623047" xlink:href="#DejaVuSans-49"/>
     <use x="127.246094" xlink:href="#DejaVuSans-32"/>
     <use x="159.033203" xlink:href="#DejaVuSans-116"/>
     <use x="198.242188" xlink:href="#DejaVuSans-97"/>
     <use x="259.521484" xlink:href="#DejaVuSans-114"/>
     <use x="298.884766" xlink:href="#DejaVuSans-103"/>
     <use x="362.361328" xlink:href="#DejaVuSans-101"/>
     <use x="423.884766" xlink:href="#DejaVuSans-116"/>
     <use x="463.09375" xlink:href="#DejaVuSans-115"/>
     <use x="515.193359" xlink:href="#DejaVuSans-58"/>
     <use x="548.884766" xlink:href="#DejaVuSans-32"/>
     <use x="580.671875" xlink:href="#DejaVuSans-49"/>
     <use x="644.294922" xlink:href="#DejaVuSans-48"/>
     <use x="707.917969" xlink:href="#DejaVuSans-48"/>
     <use x="771.541016" xlink:href="#DejaVuSans-46"/>
     <use x="803.328125" xlink:href="#DejaVuSans-46"/>
     <use x="835.115234" xlink:href="#DejaVuSans-49"/>
     <use x="898.738281" xlink:href="#DejaVuSans-101"/>
     <use x="960.261719" xlink:href="#DejaVuSans-45"/>
     <use x="996.345703" xlink:href="#DejaVuSans-48"/>
     <use x="1059.96875" xlink:href="#DejaVuSans-54"/>
    </g>
    <!-- 30, 15 instances -->
    <g transform="translate(60.41088 60.954904)scale(0.102 -0.102)">
     <defs>
      <path d="M 40.578125 39.3125 
Q 47.65625 37.796875 51.625 33 
Q 55.609375 28.21875 55.609375 21.1875 
Q 55.609375 10.40625 48.1875 4.484375 
Q 40.765625 -1.421875 27.09375 -1.421875 
Q 22.515625 -1.421875 17.65625 -0.515625 
Q 12.796875 0.390625 7.625 2.203125 
L 7.625 11.71875 
Q 11.71875 9.328125 16.59375 8.109375 
Q 21.484375 6.890625 26.8125 6.890625 
Q 36.078125 6.890625 40.9375 10.546875 
Q 45.796875 14.203125 45.796875 21.1875 
Q 45.796875 27.640625 41.28125 31.265625 
Q 36.765625 34.90625 28.71875 34.90625 
L 20.21875 34.90625 
L 20.21875 43.015625 
L 29.109375 43.015625 
Q 36.375 43.015625 40.234375 45.921875 
Q 44.09375 48.828125 44.09375 54.296875 
Q 44.09375 59.90625 40.109375 62.90625 
Q 36.140625 65.921875 28.71875 65.921875 
Q 24.65625 65.921875 20.015625 65.03125 
Q 15.375 64.15625 9.8125 62.3125 
L 9.8125 71.09375 
Q 15.4375 72.65625 20.34375 73.4375 
Q 25.25 74.21875 29.59375 74.21875 
Q 40.828125 74.21875 47.359375 69.109375 
Q 53.90625 64.015625 53.90625 55.328125 
Q 53.90625 49.265625 50.4375 45.09375 
Q 46.96875 40.921875 40.578125 39.3125 
z
" id="DejaVuSans-51"/>
     </defs>
     <use xlink:href="#DejaVuSans-51"/>
     <use x="63.623047" xlink:href="#DejaVuSans-48"/>
     <use x="127.246094" xlink:href="#DejaVuSans-44"/>
     <use x="159.033203" xlink:href="#DejaVuSans-32"/>
     <use x="190.820312" xlink:href="#DejaVuSans-49"/>
     <use x="254.443359" xlink:href="#DejaVuSans-53"/>
     <use x="318.066406" xlink:href="#DejaVuSans-32"/>
     <use x="349.853516" xlink:href="#DejaVuSans-105"/>
     <use x="377.636719" xlink:href="#DejaVuSans-110"/>
     <use x="441.015625" xlink:href="#DejaVuSans-115"/>
     <use x="493.115234" xlink:href="#DejaVuSans-116"/>
     <use x="532.324219" xlink:href="#DejaVuSans-97"/>
     <use x="593.603516" xlink:href="#DejaVuSans-110"/>
     <use x="656.982422" xlink:href="#DejaVuSans-99"/>
     <use x="711.962891" xlink:href="#DejaVuSans-101"/>
     <use x="773.486328" xlink:href="#DejaVuSans-115"/>
    </g>
   </g>
   <g id="text_18">
    <!-- v5z33 -->
    <g style="fill:#808080;" transform="translate(183.016656 294.151352)scale(0.1 -0.1)">
     <defs>
      <path d="M 5.515625 54.6875 
L 48.1875 54.6875 
L 48.1875 46.484375 
L 14.40625 7.171875 
L 48.1875 7.171875 
L 48.1875 0 
L 4.296875 0 
L 4.296875 8.203125 
L 38.09375 47.515625 
L 5.515625 47.515625 
z
" id="DejaVuSans-122"/>
     </defs>
     <use xlink:href="#DejaVuSans-118"/>
     <use x="59.179688" xlink:href="#DejaVuSans-53"/>
     <use x="122.802734" xlink:href="#DejaVuSans-122"/>
     <use x="175.292969" xlink:href="#DejaVuSans-51"/>
     <use x="238.916016" xlink:href="#DejaVuSans-51"/>
    </g>
   </g>
   <g id="text_19">
    <!-- 11 Sep. Ellipsoid, n+6 constraints -->
    <g transform="translate(29.395562 21.648)scale(0.2 -0.2)">
     <defs>
      <path d="M 53.515625 70.515625 
L 53.515625 60.890625 
Q 47.90625 63.578125 42.921875 64.890625 
Q 37.9375 66.21875 33.296875 66.21875 
Q 25.25 66.21875 20.875 63.09375 
Q 16.5 59.96875 16.5 54.203125 
Q 16.5 49.359375 19.40625 46.890625 
Q 22.3125 44.4375 30.421875 42.921875 
L 36.375 41.703125 
Q 47.40625 39.59375 52.65625 34.296875 
Q 57.90625 29 57.90625 20.125 
Q 57.90625 9.515625 50.796875 4.046875 
Q 43.703125 -1.421875 29.984375 -1.421875 
Q 24.8125 -1.421875 18.96875 -0.25 
Q 13.140625 0.921875 6.890625 3.21875 
L 6.890625 13.375 
Q 12.890625 10.015625 18.65625 8.296875 
Q 24.421875 6.59375 29.984375 6.59375 
Q 38.421875 6.59375 43.015625 9.90625 
Q 47.609375 13.234375 47.609375 19.390625 
Q 47.609375 24.75 44.3125 27.78125 
Q 41.015625 30.8125 33.5 32.328125 
L 27.484375 33.5 
Q 16.453125 35.6875 11.515625 40.375 
Q 6.59375 45.0625 6.59375 53.421875 
Q 6.59375 63.09375 13.40625 68.65625 
Q 20.21875 74.21875 32.171875 74.21875 
Q 37.3125 74.21875 42.625 73.28125 
Q 47.953125 72.359375 53.515625 70.515625 
z
" id="DejaVuSans-83"/>
      <path d="M 9.8125 72.90625 
L 55.90625 72.90625 
L 55.90625 64.59375 
L 19.671875 64.59375 
L 19.671875 43.015625 
L 54.390625 43.015625 
L 54.390625 34.71875 
L 19.671875 34.71875 
L 19.671875 8.296875 
L 56.78125 8.296875 
L 56.78125 0 
L 9.8125 0 
z
" id="DejaVuSans-69"/>
     </defs>
     <use xlink:href="#DejaVuSans-49"/>
     <use x="63.623047" xlink:href="#DejaVuSans-49"/>
     <use x="127.246094" xlink:href="#DejaVuSans-32"/>
     <use x="159.033203" xlink:href="#DejaVuSans-83"/>
     <use x="222.509766" xlink:href="#DejaVuSans-101"/>
     <use x="284.033203" xlink:href="#DejaVuSans-112"/>
     <use x="347.509766" xlink:href="#DejaVuSans-46"/>
     <use x="379.296875" xlink:href="#DejaVuSans-32"/>
     <use x="411.083984" xlink:href="#DejaVuSans-69"/>
     <use x="474.267578" xlink:href="#DejaVuSans-108"/>
     <use x="502.050781" xlink:href="#DejaVuSans-108"/>
     <use x="529.833984" xlink:href="#DejaVuSans-105"/>
     <use x="557.617188" xlink:href="#DejaVuSans-112"/>
     <use x="621.09375" xlink:href="#DejaVuSans-115"/>
     <use x="673.193359" xlink:href="#DejaVuSans-111"/>
     <use x="734.375" xlink:href="#DejaVuSans-105"/>
     <use x="762.158203" xlink:href="#DejaVuSans-100"/>
     <use x="825.634766" xlink:href="#DejaVuSans-44"/>
     <use x="857.421875" xlink:href="#DejaVuSans-32"/>
     <use x="889.208984" xlink:href="#DejaVuSans-110"/>
     <use x="952.587891" xlink:href="#DejaVuSans-43"/>
     <use x="1036.376953" xlink:href="#DejaVuSans-54"/>
     <use x="1100" xlink:href="#DejaVuSans-32"/>
     <use x="1131.787109" xlink:href="#DejaVuSans-99"/>
     <use x="1186.767578" xlink:href="#DejaVuSans-111"/>
     <use x="1247.949219" xlink:href="#DejaVuSans-110"/>
     <use x="1311.328125" xlink:href="#DejaVuSans-115"/>
     <use x="1363.427734" xlink:href="#DejaVuSans-116"/>
     <use x="1402.636719" xlink:href="#DejaVuSans-114"/>
     <use x="1443.75" xlink:href="#DejaVuSans-97"/>
     <use x="1505.029297" xlink:href="#DejaVuSans-105"/>
     <use x="1532.8125" xlink:href="#DejaVuSans-110"/>
     <use x="1596.191406" xlink:href="#DejaVuSans-116"/>
     <use x="1635.400391" xlink:href="#DejaVuSans-115"/>
    </g>
   </g>
  </g>
 </g>
 <defs>
  <clipPath id="pd09a022ebe">
   <rect height="271.296" width="281.088" x="57.6" y="27.648"/>
  </clipPath>
 </defs>
</svg>
