<?xml version="1.0" encoding="utf-8" standalone="no"?>
<!DOCTYPE svg PUBLIC "-//W3C//DTD SVG 1.1//EN"
  "http://www.w3.org/Graphics/SVG/1.1/DTD/svg11.dtd">
<!-- Created with matplotlib (https://matplotlib.org/) -->
<svg height="345.6pt" version="1.1" viewBox="0 0 460.8 345.6" width="460.8pt" xmlns="http://www.w3.org/2000/svg" xmlns:xlink="http://www.w3.org/1999/xlink">
 <metadata>
  <rdf:RDF xmlns:cc="http://creativecommons.org/ns#" xmlns:dc="http://purl.org/dc/elements/1.1/" xmlns:rdf="http://www.w3.org/1999/02/22-rdf-syntax-ns#">
   <cc:Work>
    <dc:type rdf:resource="http://purl.org/dc/dcmitype/StillImage"/>
    <dc:date>2021-04-09T10:28:20.963073</dc:date>
    <dc:format>image/svg+xml</dc:format>
    <dc:creator>
     <cc:Agent>
      <dc:title>Matplotlib v3.3.3, https://matplotlib.org/</dc:title>
     </cc:Agent>
    </dc:creator>
   </cc:Work>
  </rdf:RDF>
 </metadata>
 <defs>
  <style type="text/css">*{stroke-linecap:butt;stroke-linejoin:round;}</style>
 </defs>
 <g id="figure_1">
  <g id="patch_1">
   <path d="M 0 345.6 
L 460.8 345.6 
L 460.8 0 
L 0 0 
z
" style="fill:#ffffff;"/>
  </g>
  <g id="axes_1">
   <g id="patch_2">
    <path d="M 57.6 298.944 
L 338.688 298.944 
L 338.688 27.648 
L 57.6 27.648 
z
" style="fill:#ffffff;"/>
   </g>
   <g id="matplotlib.axis_1">
    <g id="xtick_1">
     <g id="line2d_1">
      <path clip-path="url(#p8e8b8d26b6)" d="M 57.6 298.944 
L 57.6 27.648 
" style="fill:none;stroke:#b0b0b0;stroke-linecap:square;stroke-width:0.8;"/>
     </g>
     <g id="line2d_2">
      <defs>
       <path d="M 0 0 
L 0 3.5 
" id="mb406a357a9" style="stroke:#000000;stroke-width:0.8;"/>
      </defs>
      <g>
       <use style="stroke:#000000;stroke-width:0.8;" x="57.6" xlink:href="#mb406a357a9" y="298.944"/>
      </g>
     </g>
     <g id="text_1">
      <!-- 0 -->
      <g transform="translate(51.2375 321.140875)scale(0.2 -0.2)">
       <defs>
        <path d="M 31.78125 66.40625 
Q 24.171875 66.40625 20.328125 58.90625 
Q 16.5 51.421875 16.5 36.375 
Q 16.5 21.390625 20.328125 13.890625 
Q 24.171875 6.390625 31.78125 6.390625 
Q 39.453125 6.390625 43.28125 13.890625 
Q 47.125 21.390625 47.125 36.375 
Q 47.125 51.421875 43.28125 58.90625 
Q 39.453125 66.40625 31.78125 66.40625 
z
M 31.78125 74.21875 
Q 44.046875 74.21875 50.515625 64.515625 
Q 56.984375 54.828125 56.984375 36.375 
Q 56.984375 17.96875 50.515625 8.265625 
Q 44.046875 -1.421875 31.78125 -1.421875 
Q 19.53125 -1.421875 13.0625 8.265625 
Q 6.59375 17.96875 6.59375 36.375 
Q 6.59375 54.828125 13.0625 64.515625 
Q 19.53125 74.21875 31.78125 74.21875 
z
" id="DejaVuSans-48"/>
       </defs>
       <use xlink:href="#DejaVuSans-48"/>
      </g>
     </g>
    </g>
    <g id="xtick_2">
     <g id="line2d_3">
      <path clip-path="url(#p8e8b8d26b6)" d="M 137.910857 298.944 
L 137.910857 27.648 
" style="fill:none;stroke:#b0b0b0;stroke-linecap:square;stroke-width:0.8;"/>
     </g>
     <g id="line2d_4">
      <g>
       <use style="stroke:#000000;stroke-width:0.8;" x="137.910857" xlink:href="#mb406a357a9" y="298.944"/>
      </g>
     </g>
     <g id="text_2">
      <!-- 2 -->
      <g transform="translate(131.548357 321.140875)scale(0.2 -0.2)">
       <defs>
        <path d="M 19.1875 8.296875 
L 53.609375 8.296875 
L 53.609375 0 
L 7.328125 0 
L 7.328125 8.296875 
Q 12.9375 14.109375 22.625 23.890625 
Q 32.328125 33.6875 34.8125 36.53125 
Q 39.546875 41.84375 41.421875 45.53125 
Q 43.3125 49.21875 43.3125 52.78125 
Q 43.3125 58.59375 39.234375 62.25 
Q 35.15625 65.921875 28.609375 65.921875 
Q 23.96875 65.921875 18.8125 64.3125 
Q 13.671875 62.703125 7.8125 59.421875 
L 7.8125 69.390625 
Q 13.765625 71.78125 18.9375 73 
Q 24.125 74.21875 28.421875 74.21875 
Q 39.75 74.21875 46.484375 68.546875 
Q 53.21875 62.890625 53.21875 53.421875 
Q 53.21875 48.921875 51.53125 44.890625 
Q 49.859375 40.875 45.40625 35.40625 
Q 44.1875 33.984375 37.640625 27.21875 
Q 31.109375 20.453125 19.1875 8.296875 
z
" id="DejaVuSans-50"/>
       </defs>
       <use xlink:href="#DejaVuSans-50"/>
      </g>
     </g>
    </g>
    <g id="xtick_3">
     <g id="line2d_5">
      <path clip-path="url(#p8e8b8d26b6)" d="M 218.221714 298.944 
L 218.221714 27.648 
" style="fill:none;stroke:#b0b0b0;stroke-linecap:square;stroke-width:0.8;"/>
     </g>
     <g id="line2d_6">
      <g>
       <use style="stroke:#000000;stroke-width:0.8;" x="218.221714" xlink:href="#mb406a357a9" y="298.944"/>
      </g>
     </g>
     <g id="text_3">
      <!-- 4 -->
      <g transform="translate(211.859214 321.140875)scale(0.2 -0.2)">
       <defs>
        <path d="M 37.796875 64.3125 
L 12.890625 25.390625 
L 37.796875 25.390625 
z
M 35.203125 72.90625 
L 47.609375 72.90625 
L 47.609375 25.390625 
L 58.015625 25.390625 
L 58.015625 17.1875 
L 47.609375 17.1875 
L 47.609375 0 
L 37.796875 0 
L 37.796875 17.1875 
L 4.890625 17.1875 
L 4.890625 26.703125 
z
" id="DejaVuSans-52"/>
       </defs>
       <use xlink:href="#DejaVuSans-52"/>
      </g>
     </g>
    </g>
    <g id="xtick_4">
     <g id="line2d_7">
      <path clip-path="url(#p8e8b8d26b6)" d="M 298.532571 298.944 
L 298.532571 27.648 
" style="fill:none;stroke:#b0b0b0;stroke-linecap:square;stroke-width:0.8;"/>
     </g>
     <g id="line2d_8">
      <g>
       <use style="stroke:#000000;stroke-width:0.8;" x="298.532571" xlink:href="#mb406a357a9" y="298.944"/>
      </g>
     </g>
     <g id="text_4">
      <!-- 6 -->
      <g transform="translate(292.170071 321.140875)scale(0.2 -0.2)">
       <defs>
        <path d="M 33.015625 40.375 
Q 26.375 40.375 22.484375 35.828125 
Q 18.609375 31.296875 18.609375 23.390625 
Q 18.609375 15.53125 22.484375 10.953125 
Q 26.375 6.390625 33.015625 6.390625 
Q 39.65625 6.390625 43.53125 10.953125 
Q 47.40625 15.53125 47.40625 23.390625 
Q 47.40625 31.296875 43.53125 35.828125 
Q 39.65625 40.375 33.015625 40.375 
z
M 52.59375 71.296875 
L 52.59375 62.3125 
Q 48.875 64.0625 45.09375 64.984375 
Q 41.3125 65.921875 37.59375 65.921875 
Q 27.828125 65.921875 22.671875 59.328125 
Q 17.53125 52.734375 16.796875 39.40625 
Q 19.671875 43.65625 24.015625 45.921875 
Q 28.375 48.1875 33.59375 48.1875 
Q 44.578125 48.1875 50.953125 41.515625 
Q 57.328125 34.859375 57.328125 23.390625 
Q 57.328125 12.15625 50.6875 5.359375 
Q 44.046875 -1.421875 33.015625 -1.421875 
Q 20.359375 -1.421875 13.671875 8.265625 
Q 6.984375 17.96875 6.984375 36.375 
Q 6.984375 53.65625 15.1875 63.9375 
Q 23.390625 74.21875 37.203125 74.21875 
Q 40.921875 74.21875 44.703125 73.484375 
Q 48.484375 72.75 52.59375 71.296875 
z
" id="DejaVuSans-54"/>
       </defs>
       <use xlink:href="#DejaVuSans-54"/>
      </g>
     </g>
    </g>
    <g id="xtick_5">
     <g id="line2d_9">
      <path clip-path="url(#p8e8b8d26b6)" d="M 97.755429 298.944 
L 97.755429 27.648 
" style="fill:none;stroke:#b0b0b0;stroke-linecap:square;stroke-width:0.8;"/>
     </g>
     <g id="line2d_10">
      <defs>
       <path d="M 0 0 
L 0 2 
" id="m5c8fb5a04d" style="stroke:#000000;stroke-width:0.6;"/>
      </defs>
      <g>
       <use style="stroke:#000000;stroke-width:0.6;" x="97.755429" xlink:href="#m5c8fb5a04d" y="298.944"/>
      </g>
     </g>
    </g>
    <g id="xtick_6">
     <g id="line2d_11">
      <path clip-path="url(#p8e8b8d26b6)" d="M 178.066286 298.944 
L 178.066286 27.648 
" style="fill:none;stroke:#b0b0b0;stroke-linecap:square;stroke-width:0.8;"/>
     </g>
     <g id="line2d_12">
      <g>
       <use style="stroke:#000000;stroke-width:0.6;" x="178.066286" xlink:href="#m5c8fb5a04d" y="298.944"/>
      </g>
     </g>
    </g>
    <g id="xtick_7">
     <g id="line2d_13">
      <path clip-path="url(#p8e8b8d26b6)" d="M 258.377143 298.944 
L 258.377143 27.648 
" style="fill:none;stroke:#b0b0b0;stroke-linecap:square;stroke-width:0.8;"/>
     </g>
     <g id="line2d_14">
      <g>
       <use style="stroke:#000000;stroke-width:0.6;" x="258.377143" xlink:href="#m5c8fb5a04d" y="298.944"/>
      </g>
     </g>
    </g>
    <g id="xtick_8">
     <g id="line2d_15">
      <path clip-path="url(#p8e8b8d26b6)" d="M 338.688 298.944 
L 338.688 27.648 
" style="fill:none;stroke:#b0b0b0;stroke-linecap:square;stroke-width:0.8;"/>
     </g>
     <g id="line2d_16">
      <g>
       <use style="stroke:#000000;stroke-width:0.6;" x="338.688" xlink:href="#m5c8fb5a04d" y="298.944"/>
      </g>
     </g>
    </g>
    <g id="text_5">
     <!-- log10(# (f+g)-evals / dimension) -->
     <g transform="translate(58.145016 342.217594)scale(0.17 -0.17)">
      <defs>
       <path d="M 9.421875 75.984375 
L 18.40625 75.984375 
L 18.40625 0 
L 9.421875 0 
z
" id="DejaVuSans-108"/>
       <path d="M 30.609375 48.390625 
Q 23.390625 48.390625 19.1875 42.75 
Q 14.984375 37.109375 14.984375 27.296875 
Q 14.984375 17.484375 19.15625 11.84375 
Q 23.34375 6.203125 30.609375 6.203125 
Q 37.796875 6.203125 41.984375 11.859375 
Q 46.1875 17.53125 46.1875 27.296875 
Q 46.1875 37.015625 41.984375 42.703125 
Q 37.796875 48.390625 30.609375 48.390625 
z
M 30.609375 56 
Q 42.328125 56 49.015625 48.375 
Q 55.71875 40.765625 55.71875 27.296875 
Q 55.71875 13.875 49.015625 6.21875 
Q 42.328125 -1.421875 30.609375 -1.421875 
Q 18.84375 -1.421875 12.171875 6.21875 
Q 5.515625 13.875 5.515625 27.296875 
Q 5.515625 40.765625 12.171875 48.375 
Q 18.84375 56 30.609375 56 
z
" id="DejaVuSans-111"/>
       <path d="M 45.40625 27.984375 
Q 45.40625 37.75 41.375 43.109375 
Q 37.359375 48.484375 30.078125 48.484375 
Q 22.859375 48.484375 18.828125 43.109375 
Q 14.796875 37.75 14.796875 27.984375 
Q 14.796875 18.265625 18.828125 12.890625 
Q 22.859375 7.515625 30.078125 7.515625 
Q 37.359375 7.515625 41.375 12.890625 
Q 45.40625 18.265625 45.40625 27.984375 
z
M 54.390625 6.78125 
Q 54.390625 -7.171875 48.1875 -13.984375 
Q 42 -20.796875 29.203125 -20.796875 
Q 24.46875 -20.796875 20.265625 -20.09375 
Q 16.0625 -19.390625 12.109375 -17.921875 
L 12.109375 -9.1875 
Q 16.0625 -11.328125 19.921875 -12.34375 
Q 23.78125 -13.375 27.78125 -13.375 
Q 36.625 -13.375 41.015625 -8.765625 
Q 45.40625 -4.15625 45.40625 5.171875 
L 45.40625 9.625 
Q 42.625 4.78125 38.28125 2.390625 
Q 33.9375 0 27.875 0 
Q 17.828125 0 11.671875 7.65625 
Q 5.515625 15.328125 5.515625 27.984375 
Q 5.515625 40.671875 11.671875 48.328125 
Q 17.828125 56 27.875 56 
Q 33.9375 56 38.28125 53.609375 
Q 42.625 51.21875 45.40625 46.390625 
L 45.40625 54.6875 
L 54.390625 54.6875 
z
" id="DejaVuSans-103"/>
       <path d="M 12.40625 8.296875 
L 28.515625 8.296875 
L 28.515625 63.921875 
L 10.984375 60.40625 
L 10.984375 69.390625 
L 28.421875 72.90625 
L 38.28125 72.90625 
L 38.28125 8.296875 
L 54.390625 8.296875 
L 54.390625 0 
L 12.40625 0 
z
" id="DejaVuSans-49"/>
       <path d="M 31 75.875 
Q 24.46875 64.65625 21.28125 53.65625 
Q 18.109375 42.671875 18.109375 31.390625 
Q 18.109375 20.125 21.3125 9.0625 
Q 24.515625 -2 31 -13.1875 
L 23.1875 -13.1875 
Q 15.875 -1.703125 12.234375 9.375 
Q 8.59375 20.453125 8.59375 31.390625 
Q 8.59375 42.28125 12.203125 53.3125 
Q 15.828125 64.359375 23.1875 75.875 
z
" id="DejaVuSans-40"/>
       <path d="M 51.125 44 
L 36.921875 44 
L 32.8125 27.6875 
L 47.125 27.6875 
z
M 43.796875 71.78125 
L 38.71875 51.515625 
L 52.984375 51.515625 
L 58.109375 71.78125 
L 65.921875 71.78125 
L 60.890625 51.515625 
L 76.125 51.515625 
L 76.125 44 
L 58.984375 44 
L 54.984375 27.6875 
L 70.515625 27.6875 
L 70.515625 20.21875 
L 53.078125 20.21875 
L 48 0 
L 40.1875 0 
L 45.21875 20.21875 
L 30.90625 20.21875 
L 25.875 0 
L 18.015625 0 
L 23.09375 20.21875 
L 7.71875 20.21875 
L 7.71875 27.6875 
L 24.90625 27.6875 
L 29 44 
L 13.28125 44 
L 13.28125 51.515625 
L 30.90625 51.515625 
L 35.890625 71.78125 
z
" id="DejaVuSans-35"/>
       <path id="DejaVuSans-32"/>
       <path d="M 37.109375 75.984375 
L 37.109375 68.5 
L 28.515625 68.5 
Q 23.6875 68.5 21.796875 66.546875 
Q 19.921875 64.59375 19.921875 59.515625 
L 19.921875 54.6875 
L 34.71875 54.6875 
L 34.71875 47.703125 
L 19.921875 47.703125 
L 19.921875 0 
L 10.890625 0 
L 10.890625 47.703125 
L 2.296875 47.703125 
L 2.296875 54.6875 
L 10.890625 54.6875 
L 10.890625 58.5 
Q 10.890625 67.625 15.140625 71.796875 
Q 19.390625 75.984375 28.609375 75.984375 
z
" id="DejaVuSans-102"/>
       <path d="M 46 62.703125 
L 46 35.5 
L 73.1875 35.5 
L 73.1875 27.203125 
L 46 27.203125 
L 46 0 
L 37.796875 0 
L 37.796875 27.203125 
L 10.59375 27.203125 
L 10.59375 35.5 
L 37.796875 35.5 
L 37.796875 62.703125 
z
" id="DejaVuSans-43"/>
       <path d="M 8.015625 75.875 
L 15.828125 75.875 
Q 23.140625 64.359375 26.78125 53.3125 
Q 30.421875 42.28125 30.421875 31.390625 
Q 30.421875 20.453125 26.78125 9.375 
Q 23.140625 -1.703125 15.828125 -13.1875 
L 8.015625 -13.1875 
Q 14.5 -2 17.703125 9.0625 
Q 20.90625 20.125 20.90625 31.390625 
Q 20.90625 42.671875 17.703125 53.65625 
Q 14.5 64.65625 8.015625 75.875 
z
" id="DejaVuSans-41"/>
       <path d="M 4.890625 31.390625 
L 31.203125 31.390625 
L 31.203125 23.390625 
L 4.890625 23.390625 
z
" id="DejaVuSans-45"/>
       <path d="M 56.203125 29.59375 
L 56.203125 25.203125 
L 14.890625 25.203125 
Q 15.484375 15.921875 20.484375 11.0625 
Q 25.484375 6.203125 34.421875 6.203125 
Q 39.59375 6.203125 44.453125 7.46875 
Q 49.3125 8.734375 54.109375 11.28125 
L 54.109375 2.78125 
Q 49.265625 0.734375 44.1875 -0.34375 
Q 39.109375 -1.421875 33.890625 -1.421875 
Q 20.796875 -1.421875 13.15625 6.1875 
Q 5.515625 13.8125 5.515625 26.8125 
Q 5.515625 40.234375 12.765625 48.109375 
Q 20.015625 56 32.328125 56 
Q 43.359375 56 49.78125 48.890625 
Q 56.203125 41.796875 56.203125 29.59375 
z
M 47.21875 32.234375 
Q 47.125 39.59375 43.09375 43.984375 
Q 39.0625 48.390625 32.421875 48.390625 
Q 24.90625 48.390625 20.390625 44.140625 
Q 15.875 39.890625 15.1875 32.171875 
z
" id="DejaVuSans-101"/>
       <path d="M 2.984375 54.6875 
L 12.5 54.6875 
L 29.59375 8.796875 
L 46.6875 54.6875 
L 56.203125 54.6875 
L 35.6875 0 
L 23.484375 0 
z
" id="DejaVuSans-118"/>
       <path d="M 34.28125 27.484375 
Q 23.390625 27.484375 19.1875 25 
Q 14.984375 22.515625 14.984375 16.5 
Q 14.984375 11.71875 18.140625 8.90625 
Q 21.296875 6.109375 26.703125 6.109375 
Q 34.1875 6.109375 38.703125 11.40625 
Q 43.21875 16.703125 43.21875 25.484375 
L 43.21875 27.484375 
z
M 52.203125 31.203125 
L 52.203125 0 
L 43.21875 0 
L 43.21875 8.296875 
Q 40.140625 3.328125 35.546875 0.953125 
Q 30.953125 -1.421875 24.3125 -1.421875 
Q 15.921875 -1.421875 10.953125 3.296875 
Q 6 8.015625 6 15.921875 
Q 6 25.140625 12.171875 29.828125 
Q 18.359375 34.515625 30.609375 34.515625 
L 43.21875 34.515625 
L 43.21875 35.40625 
Q 43.21875 41.609375 39.140625 45 
Q 35.0625 48.390625 27.6875 48.390625 
Q 23 48.390625 18.546875 47.265625 
Q 14.109375 46.140625 10.015625 43.890625 
L 10.015625 52.203125 
Q 14.9375 54.109375 19.578125 55.046875 
Q 24.21875 56 28.609375 56 
Q 40.484375 56 46.34375 49.84375 
Q 52.203125 43.703125 52.203125 31.203125 
z
" id="DejaVuSans-97"/>
       <path d="M 44.28125 53.078125 
L 44.28125 44.578125 
Q 40.484375 46.53125 36.375 47.5 
Q 32.28125 48.484375 27.875 48.484375 
Q 21.1875 48.484375 17.84375 46.4375 
Q 14.5 44.390625 14.5 40.28125 
Q 14.5 37.15625 16.890625 35.375 
Q 19.28125 33.59375 26.515625 31.984375 
L 29.59375 31.296875 
Q 39.15625 29.25 43.1875 25.515625 
Q 47.21875 21.78125 47.21875 15.09375 
Q 47.21875 7.46875 41.1875 3.015625 
Q 35.15625 -1.421875 24.609375 -1.421875 
Q 20.21875 -1.421875 15.453125 -0.5625 
Q 10.6875 0.296875 5.421875 2 
L 5.421875 11.28125 
Q 10.40625 8.6875 15.234375 7.390625 
Q 20.0625 6.109375 24.8125 6.109375 
Q 31.15625 6.109375 34.5625 8.28125 
Q 37.984375 10.453125 37.984375 14.40625 
Q 37.984375 18.0625 35.515625 20.015625 
Q 33.0625 21.96875 24.703125 23.78125 
L 21.578125 24.515625 
Q 13.234375 26.265625 9.515625 29.90625 
Q 5.8125 33.546875 5.8125 39.890625 
Q 5.8125 47.609375 11.28125 51.796875 
Q 16.75 56 26.8125 56 
Q 31.78125 56 36.171875 55.265625 
Q 40.578125 54.546875 44.28125 53.078125 
z
" id="DejaVuSans-115"/>
       <path d="M 25.390625 72.90625 
L 33.6875 72.90625 
L 8.296875 -9.28125 
L 0 -9.28125 
z
" id="DejaVuSans-47"/>
       <path d="M 45.40625 46.390625 
L 45.40625 75.984375 
L 54.390625 75.984375 
L 54.390625 0 
L 45.40625 0 
L 45.40625 8.203125 
Q 42.578125 3.328125 38.25 0.953125 
Q 33.9375 -1.421875 27.875 -1.421875 
Q 17.96875 -1.421875 11.734375 6.484375 
Q 5.515625 14.40625 5.515625 27.296875 
Q 5.515625 40.1875 11.734375 48.09375 
Q 17.96875 56 27.875 56 
Q 33.9375 56 38.25 53.625 
Q 42.578125 51.265625 45.40625 46.390625 
z
M 14.796875 27.296875 
Q 14.796875 17.390625 18.875 11.75 
Q 22.953125 6.109375 30.078125 6.109375 
Q 37.203125 6.109375 41.296875 11.75 
Q 45.40625 17.390625 45.40625 27.296875 
Q 45.40625 37.203125 41.296875 42.84375 
Q 37.203125 48.484375 30.078125 48.484375 
Q 22.953125 48.484375 18.875 42.84375 
Q 14.796875 37.203125 14.796875 27.296875 
z
" id="DejaVuSans-100"/>
       <path d="M 9.421875 54.6875 
L 18.40625 54.6875 
L 18.40625 0 
L 9.421875 0 
z
M 9.421875 75.984375 
L 18.40625 75.984375 
L 18.40625 64.59375 
L 9.421875 64.59375 
z
" id="DejaVuSans-105"/>
       <path d="M 52 44.1875 
Q 55.375 50.25 60.0625 53.125 
Q 64.75 56 71.09375 56 
Q 79.640625 56 84.28125 50.015625 
Q 88.921875 44.046875 88.921875 33.015625 
L 88.921875 0 
L 79.890625 0 
L 79.890625 32.71875 
Q 79.890625 40.578125 77.09375 44.375 
Q 74.3125 48.1875 68.609375 48.1875 
Q 61.625 48.1875 57.5625 43.546875 
Q 53.515625 38.921875 53.515625 30.90625 
L 53.515625 0 
L 44.484375 0 
L 44.484375 32.71875 
Q 44.484375 40.625 41.703125 44.40625 
Q 38.921875 48.1875 33.109375 48.1875 
Q 26.21875 48.1875 22.15625 43.53125 
Q 18.109375 38.875 18.109375 30.90625 
L 18.109375 0 
L 9.078125 0 
L 9.078125 54.6875 
L 18.109375 54.6875 
L 18.109375 46.1875 
Q 21.1875 51.21875 25.484375 53.609375 
Q 29.78125 56 35.6875 56 
Q 41.65625 56 45.828125 52.96875 
Q 50 49.953125 52 44.1875 
z
" id="DejaVuSans-109"/>
       <path d="M 54.890625 33.015625 
L 54.890625 0 
L 45.90625 0 
L 45.90625 32.71875 
Q 45.90625 40.484375 42.875 44.328125 
Q 39.84375 48.1875 33.796875 48.1875 
Q 26.515625 48.1875 22.3125 43.546875 
Q 18.109375 38.921875 18.109375 30.90625 
L 18.109375 0 
L 9.078125 0 
L 9.078125 54.6875 
L 18.109375 54.6875 
L 18.109375 46.1875 
Q 21.34375 51.125 25.703125 53.5625 
Q 30.078125 56 35.796875 56 
Q 45.21875 56 50.046875 50.171875 
Q 54.890625 44.34375 54.890625 33.015625 
z
" id="DejaVuSans-110"/>
      </defs>
      <use xlink:href="#DejaVuSans-108"/>
      <use x="27.783203" xlink:href="#DejaVuSans-111"/>
      <use x="88.964844" xlink:href="#DejaVuSans-103"/>
      <use x="152.441406" xlink:href="#DejaVuSans-49"/>
      <use x="216.064453" xlink:href="#DejaVuSans-48"/>
      <use x="279.6875" xlink:href="#DejaVuSans-40"/>
      <use x="318.701172" xlink:href="#DejaVuSans-35"/>
      <use x="402.490234" xlink:href="#DejaVuSans-32"/>
      <use x="434.277344" xlink:href="#DejaVuSans-40"/>
      <use x="473.291016" xlink:href="#DejaVuSans-102"/>
      <use x="508.496094" xlink:href="#DejaVuSans-43"/>
      <use x="592.285156" xlink:href="#DejaVuSans-103"/>
      <use x="655.761719" xlink:href="#DejaVuSans-41"/>
      <use x="694.775391" xlink:href="#DejaVuSans-45"/>
      <use x="730.859375" xlink:href="#DejaVuSans-101"/>
      <use x="792.382812" xlink:href="#DejaVuSans-118"/>
      <use x="851.5625" xlink:href="#DejaVuSans-97"/>
      <use x="912.841797" xlink:href="#DejaVuSans-108"/>
      <use x="940.625" xlink:href="#DejaVuSans-115"/>
      <use x="992.724609" xlink:href="#DejaVuSans-32"/>
      <use x="1024.511719" xlink:href="#DejaVuSans-47"/>
      <use x="1058.203125" xlink:href="#DejaVuSans-32"/>
      <use x="1089.990234" xlink:href="#DejaVuSans-100"/>
      <use x="1153.466797" xlink:href="#DejaVuSans-105"/>
      <use x="1181.25" xlink:href="#DejaVuSans-109"/>
      <use x="1278.662109" xlink:href="#DejaVuSans-101"/>
      <use x="1340.185547" xlink:href="#DejaVuSans-110"/>
      <use x="1403.564453" xlink:href="#DejaVuSans-115"/>
      <use x="1455.664062" xlink:href="#DejaVuSans-105"/>
      <use x="1483.447266" xlink:href="#DejaVuSans-111"/>
      <use x="1544.628906" xlink:href="#DejaVuSans-110"/>
      <use x="1608.007812" xlink:href="#DejaVuSans-41"/>
     </g>
    </g>
   </g>
   <g id="matplotlib.axis_2">
    <g id="ytick_1">
     <g id="line2d_17">
      <path clip-path="url(#p8e8b8d26b6)" d="M 57.6 298.944 
L 338.688 298.944 
" style="fill:none;stroke:#b0b0b0;stroke-linecap:square;stroke-width:0.8;"/>
     </g>
     <g id="line2d_18">
      <defs>
       <path d="M 0 0 
L -3.5 0 
" id="m4c2c67ec1b" style="stroke:#000000;stroke-width:0.8;"/>
      </defs>
      <g>
       <use style="stroke:#000000;stroke-width:0.8;" x="57.6" xlink:href="#m4c2c67ec1b" y="298.944"/>
      </g>
     </g>
     <g id="text_6">
      <!-- 0.0 -->
      <g transform="translate(25.155 305.02275)scale(0.16 -0.16)">
       <defs>
        <path d="M 10.6875 12.40625 
L 21 12.40625 
L 21 0 
L 10.6875 0 
z
" id="DejaVuSans-46"/>
       </defs>
       <use xlink:href="#DejaVuSans-48"/>
       <use x="63.623047" xlink:href="#DejaVuSans-46"/>
       <use x="95.410156" xlink:href="#DejaVuSans-48"/>
      </g>
     </g>
    </g>
    <g id="ytick_2">
     <g id="line2d_19">
      <path clip-path="url(#p8e8b8d26b6)" d="M 57.6 245.22202 
L 338.688 245.22202 
" style="fill:none;stroke:#b0b0b0;stroke-linecap:square;stroke-width:0.8;"/>
     </g>
     <g id="line2d_20">
      <g>
       <use style="stroke:#000000;stroke-width:0.8;" x="57.6" xlink:href="#m4c2c67ec1b" y="245.22202"/>
      </g>
     </g>
     <g id="text_7">
      <!-- 0.2 -->
      <g transform="translate(25.155 251.30077)scale(0.16 -0.16)">
       <use xlink:href="#DejaVuSans-48"/>
       <use x="63.623047" xlink:href="#DejaVuSans-46"/>
       <use x="95.410156" xlink:href="#DejaVuSans-50"/>
      </g>
     </g>
    </g>
    <g id="ytick_3">
     <g id="line2d_21">
      <path clip-path="url(#p8e8b8d26b6)" d="M 57.6 191.50004 
L 338.688 191.50004 
" style="fill:none;stroke:#b0b0b0;stroke-linecap:square;stroke-width:0.8;"/>
     </g>
     <g id="line2d_22">
      <g>
       <use style="stroke:#000000;stroke-width:0.8;" x="57.6" xlink:href="#m4c2c67ec1b" y="191.50004"/>
      </g>
     </g>
     <g id="text_8">
      <!-- 0.4 -->
      <g transform="translate(25.155 197.57879)scale(0.16 -0.16)">
       <use xlink:href="#DejaVuSans-48"/>
       <use x="63.623047" xlink:href="#DejaVuSans-46"/>
       <use x="95.410156" xlink:href="#DejaVuSans-52"/>
      </g>
     </g>
    </g>
    <g id="ytick_4">
     <g id="line2d_23">
      <path clip-path="url(#p8e8b8d26b6)" d="M 57.6 137.778059 
L 338.688 137.778059 
" style="fill:none;stroke:#b0b0b0;stroke-linecap:square;stroke-width:0.8;"/>
     </g>
     <g id="line2d_24">
      <g>
       <use style="stroke:#000000;stroke-width:0.8;" x="57.6" xlink:href="#m4c2c67ec1b" y="137.778059"/>
      </g>
     </g>
     <g id="text_9">
      <!-- 0.6 -->
      <g transform="translate(25.155 143.856809)scale(0.16 -0.16)">
       <use xlink:href="#DejaVuSans-48"/>
       <use x="63.623047" xlink:href="#DejaVuSans-46"/>
       <use x="95.410156" xlink:href="#DejaVuSans-54"/>
      </g>
     </g>
    </g>
    <g id="ytick_5">
     <g id="line2d_25">
      <path clip-path="url(#p8e8b8d26b6)" d="M 57.6 84.056079 
L 338.688 84.056079 
" style="fill:none;stroke:#b0b0b0;stroke-linecap:square;stroke-width:0.8;"/>
     </g>
     <g id="line2d_26">
      <g>
       <use style="stroke:#000000;stroke-width:0.8;" x="57.6" xlink:href="#m4c2c67ec1b" y="84.056079"/>
      </g>
     </g>
     <g id="text_10">
      <!-- 0.8 -->
      <g transform="translate(25.155 90.134829)scale(0.16 -0.16)">
       <defs>
        <path d="M 31.78125 34.625 
Q 24.75 34.625 20.71875 30.859375 
Q 16.703125 27.09375 16.703125 20.515625 
Q 16.703125 13.921875 20.71875 10.15625 
Q 24.75 6.390625 31.78125 6.390625 
Q 38.8125 6.390625 42.859375 10.171875 
Q 46.921875 13.96875 46.921875 20.515625 
Q 46.921875 27.09375 42.890625 30.859375 
Q 38.875 34.625 31.78125 34.625 
z
M 21.921875 38.8125 
Q 15.578125 40.375 12.03125 44.71875 
Q 8.5 49.078125 8.5 55.328125 
Q 8.5 64.0625 14.71875 69.140625 
Q 20.953125 74.21875 31.78125 74.21875 
Q 42.671875 74.21875 48.875 69.140625 
Q 55.078125 64.0625 55.078125 55.328125 
Q 55.078125 49.078125 51.53125 44.71875 
Q 48 40.375 41.703125 38.8125 
Q 48.828125 37.15625 52.796875 32.3125 
Q 56.78125 27.484375 56.78125 20.515625 
Q 56.78125 9.90625 50.3125 4.234375 
Q 43.84375 -1.421875 31.78125 -1.421875 
Q 19.734375 -1.421875 13.25 4.234375 
Q 6.78125 9.90625 6.78125 20.515625 
Q 6.78125 27.484375 10.78125 32.3125 
Q 14.796875 37.15625 21.921875 38.8125 
z
M 18.3125 54.390625 
Q 18.3125 48.734375 21.84375 45.5625 
Q 25.390625 42.390625 31.78125 42.390625 
Q 38.140625 42.390625 41.71875 45.5625 
Q 45.3125 48.734375 45.3125 54.390625 
Q 45.3125 60.0625 41.71875 63.234375 
Q 38.140625 66.40625 31.78125 66.40625 
Q 25.390625 66.40625 21.84375 63.234375 
Q 18.3125 60.0625 18.3125 54.390625 
z
" id="DejaVuSans-56"/>
       </defs>
       <use xlink:href="#DejaVuSans-48"/>
       <use x="63.623047" xlink:href="#DejaVuSans-46"/>
       <use x="95.410156" xlink:href="#DejaVuSans-56"/>
      </g>
     </g>
    </g>
    <g id="ytick_6">
     <g id="line2d_27">
      <path clip-path="url(#p8e8b8d26b6)" d="M 57.6 30.334099 
L 338.688 30.334099 
" style="fill:none;stroke:#b0b0b0;stroke-linecap:square;stroke-width:0.8;"/>
     </g>
     <g id="line2d_28">
      <g>
       <use style="stroke:#000000;stroke-width:0.8;" x="57.6" xlink:href="#m4c2c67ec1b" y="30.334099"/>
      </g>
     </g>
     <g id="text_11">
      <!-- 1.0 -->
      <g transform="translate(25.155 36.412849)scale(0.16 -0.16)">
       <use xlink:href="#DejaVuSans-49"/>
       <use x="63.623047" xlink:href="#DejaVuSans-46"/>
       <use x="95.410156" xlink:href="#DejaVuSans-48"/>
      </g>
     </g>
    </g>
    <g id="text_12">
     <!-- Fraction of function,target pairs -->
     <g transform="translate(17.619531 297.681)rotate(-90)scale(0.17 -0.17)">
      <defs>
       <path d="M 9.8125 72.90625 
L 51.703125 72.90625 
L 51.703125 64.59375 
L 19.671875 64.59375 
L 19.671875 43.109375 
L 48.578125 43.109375 
L 48.578125 34.8125 
L 19.671875 34.8125 
L 19.671875 0 
L 9.8125 0 
z
" id="DejaVuSans-70"/>
       <path d="M 41.109375 46.296875 
Q 39.59375 47.171875 37.8125 47.578125 
Q 36.03125 48 33.890625 48 
Q 26.265625 48 22.1875 43.046875 
Q 18.109375 38.09375 18.109375 28.8125 
L 18.109375 0 
L 9.078125 0 
L 9.078125 54.6875 
L 18.109375 54.6875 
L 18.109375 46.1875 
Q 20.953125 51.171875 25.484375 53.578125 
Q 30.03125 56 36.53125 56 
Q 37.453125 56 38.578125 55.875 
Q 39.703125 55.765625 41.0625 55.515625 
z
" id="DejaVuSans-114"/>
       <path d="M 48.78125 52.59375 
L 48.78125 44.1875 
Q 44.96875 46.296875 41.140625 47.34375 
Q 37.3125 48.390625 33.40625 48.390625 
Q 24.65625 48.390625 19.8125 42.84375 
Q 14.984375 37.3125 14.984375 27.296875 
Q 14.984375 17.28125 19.8125 11.734375 
Q 24.65625 6.203125 33.40625 6.203125 
Q 37.3125 6.203125 41.140625 7.25 
Q 44.96875 8.296875 48.78125 10.40625 
L 48.78125 2.09375 
Q 45.015625 0.34375 40.984375 -0.53125 
Q 36.96875 -1.421875 32.421875 -1.421875 
Q 20.0625 -1.421875 12.78125 6.34375 
Q 5.515625 14.109375 5.515625 27.296875 
Q 5.515625 40.671875 12.859375 48.328125 
Q 20.21875 56 33.015625 56 
Q 37.15625 56 41.109375 55.140625 
Q 45.0625 54.296875 48.78125 52.59375 
z
" id="DejaVuSans-99"/>
       <path d="M 18.3125 70.21875 
L 18.3125 54.6875 
L 36.8125 54.6875 
L 36.8125 47.703125 
L 18.3125 47.703125 
L 18.3125 18.015625 
Q 18.3125 11.328125 20.140625 9.421875 
Q 21.96875 7.515625 27.59375 7.515625 
L 36.8125 7.515625 
L 36.8125 0 
L 27.59375 0 
Q 17.1875 0 13.234375 3.875 
Q 9.28125 7.765625 9.28125 18.015625 
L 9.28125 47.703125 
L 2.6875 47.703125 
L 2.6875 54.6875 
L 9.28125 54.6875 
L 9.28125 70.21875 
z
" id="DejaVuSans-116"/>
       <path d="M 8.5 21.578125 
L 8.5 54.6875 
L 17.484375 54.6875 
L 17.484375 21.921875 
Q 17.484375 14.15625 20.5 10.265625 
Q 23.53125 6.390625 29.59375 6.390625 
Q 36.859375 6.390625 41.078125 11.03125 
Q 45.3125 15.671875 45.3125 23.6875 
L 45.3125 54.6875 
L 54.296875 54.6875 
L 54.296875 0 
L 45.3125 0 
L 45.3125 8.40625 
Q 42.046875 3.421875 37.71875 1 
Q 33.40625 -1.421875 27.6875 -1.421875 
Q 18.265625 -1.421875 13.375 4.4375 
Q 8.5 10.296875 8.5 21.578125 
z
M 31.109375 56 
z
" id="DejaVuSans-117"/>
       <path d="M 11.71875 12.40625 
L 22.015625 12.40625 
L 22.015625 4 
L 14.015625 -11.625 
L 7.71875 -11.625 
L 11.71875 4 
z
" id="DejaVuSans-44"/>
       <path d="M 18.109375 8.203125 
L 18.109375 -20.796875 
L 9.078125 -20.796875 
L 9.078125 54.6875 
L 18.109375 54.6875 
L 18.109375 46.390625 
Q 20.953125 51.265625 25.265625 53.625 
Q 29.59375 56 35.59375 56 
Q 45.5625 56 51.78125 48.09375 
Q 58.015625 40.1875 58.015625 27.296875 
Q 58.015625 14.40625 51.78125 6.484375 
Q 45.5625 -1.421875 35.59375 -1.421875 
Q 29.59375 -1.421875 25.265625 0.953125 
Q 20.953125 3.328125 18.109375 8.203125 
z
M 48.6875 27.296875 
Q 48.6875 37.203125 44.609375 42.84375 
Q 40.53125 48.484375 33.40625 48.484375 
Q 26.265625 48.484375 22.1875 42.84375 
Q 18.109375 37.203125 18.109375 27.296875 
Q 18.109375 17.390625 22.1875 11.75 
Q 26.265625 6.109375 33.40625 6.109375 
Q 40.53125 6.109375 44.609375 11.75 
Q 48.6875 17.390625 48.6875 27.296875 
z
" id="DejaVuSans-112"/>
      </defs>
      <use xlink:href="#DejaVuSans-70"/>
      <use x="50.269531" xlink:href="#DejaVuSans-114"/>
      <use x="91.382812" xlink:href="#DejaVuSans-97"/>
      <use x="152.662109" xlink:href="#DejaVuSans-99"/>
      <use x="207.642578" xlink:href="#DejaVuSans-116"/>
      <use x="246.851562" xlink:href="#DejaVuSans-105"/>
      <use x="274.634766" xlink:href="#DejaVuSans-111"/>
      <use x="335.816406" xlink:href="#DejaVuSans-110"/>
      <use x="399.195312" xlink:href="#DejaVuSans-32"/>
      <use x="430.982422" xlink:href="#DejaVuSans-111"/>
      <use x="492.164062" xlink:href="#DejaVuSans-102"/>
      <use x="527.369141" xlink:href="#DejaVuSans-32"/>
      <use x="559.15625" xlink:href="#DejaVuSans-102"/>
      <use x="594.361328" xlink:href="#DejaVuSans-117"/>
      <use x="657.740234" xlink:href="#DejaVuSans-110"/>
      <use x="721.119141" xlink:href="#DejaVuSans-99"/>
      <use x="776.099609" xlink:href="#DejaVuSans-116"/>
      <use x="815.308594" xlink:href="#DejaVuSans-105"/>
      <use x="843.091797" xlink:href="#DejaVuSans-111"/>
      <use x="904.273438" xlink:href="#DejaVuSans-110"/>
      <use x="967.652344" xlink:href="#DejaVuSans-44"/>
      <use x="999.439453" xlink:href="#DejaVuSans-116"/>
      <use x="1038.648438" xlink:href="#DejaVuSans-97"/>
      <use x="1099.927734" xlink:href="#DejaVuSans-114"/>
      <use x="1139.291016" xlink:href="#DejaVuSans-103"/>
      <use x="1202.767578" xlink:href="#DejaVuSans-101"/>
      <use x="1264.291016" xlink:href="#DejaVuSans-116"/>
      <use x="1303.5" xlink:href="#DejaVuSans-32"/>
      <use x="1335.287109" xlink:href="#DejaVuSans-112"/>
      <use x="1398.763672" xlink:href="#DejaVuSans-97"/>
      <use x="1460.042969" xlink:href="#DejaVuSans-105"/>
      <use x="1487.826172" xlink:href="#DejaVuSans-114"/>
      <use x="1528.939453" xlink:href="#DejaVuSans-115"/>
     </g>
    </g>
   </g>
   <g id="line2d_29">
    <defs>
     <path d="M 0 1.5 
C 0.397805 1.5 0.77937 1.341951 1.06066 1.06066 
C 1.341951 0.77937 1.5 0.397805 1.5 0 
C 1.5 -0.397805 1.341951 -0.77937 1.06066 -1.06066 
C 0.77937 -1.341951 0.397805 -1.5 0 -1.5 
C -0.397805 -1.5 -0.77937 -1.341951 -1.06066 -1.06066 
C -1.341951 -0.77937 -1.5 -0.397805 -1.5 0 
C -1.5 0.397805 -1.341951 0.77937 -1.06066 1.06066 
C -0.77937 1.341951 -0.397805 1.5 0 1.5 
z
" id="m18de477694" style="stroke:#000080;"/>
    </defs>
    <g>
     <use style="fill:#000080;stroke:#000080;" x="227.434408" xlink:href="#m18de477694" y="30.334099"/>
     <use style="fill:#000080;stroke:#000080;" x="227.434408" xlink:href="#m18de477694" y="30.334099"/>
    </g>
   </g>
   <g id="line2d_30">
    <path d="M 45.512012 298.944 
L 45.512012 298.288854 
L 57.6 298.288854 
L 57.6 296.978562 
L 93.863965 296.978562 
L 93.863965 295.66827 
L 95.918017 295.66827 
L 95.918017 294.357977 
L 97.755429 294.357977 
L 97.755429 293.702831 
L 100.934985 293.702831 
L 100.934985 293.047685 
L 103.623262 293.047685 
L 103.623262 291.082247 
L 105.951954 291.082247 
L 105.951954 290.427101 
L 107.009204 290.427101 
L 107.009204 289.771955 
L 111.505558 289.771955 
L 111.505558 286.496224 
L 115.077025 286.496224 
L 115.077025 285.185932 
L 119.602714 285.185932 
L 119.602714 283.87564 
L 120.571812 283.87564 
L 120.571812 282.565348 
L 121.931406 282.565348 
L 121.931406 279.944763 
L 122.782271 279.944763 
L 122.782271 279.289617 
L 125.470548 279.289617 
L 125.470548 277.979325 
L 125.822869 277.979325 
L 125.822869 277.324179 
L 126.50685 277.324179 
L 126.50685 274.703594 
L 126.839037 274.703594 
L 126.839037 270.117572 
L 127.48501 270.117572 
L 127.48501 269.462426 
L 127.799239 269.462426 
L 127.799239 268.807279 
L 130.926816 268.807279 
L 130.926816 268.152133 
L 131.185181 268.152133 
L 131.185181 267.496987 
L 131.690703 267.496987 
L 131.690703 266.841841 
L 132.422528 266.841841 
L 132.422528 265.531549 
L 132.659801 265.531549 
L 132.659801 263.566111 
L 133.352844 263.566111 
L 133.352844 262.910965 
L 133.800029 262.910965 
L 133.800029 262.255818 
L 135.878591 262.255818 
L 135.878591 258.980088 
L 136.073445 258.980088 
L 136.073445 258.324942 
L 136.456742 258.324942 
L 136.456742 256.359504 
L 137.910857 256.359504 
L 137.910857 255.704357 
L 138.426341 255.704357 
L 138.426341 253.738919 
L 138.761723 253.738919 
L 138.761723 253.083773 
L 139.090775 253.083773 
L 139.090775 252.428627 
L 139.253002 252.428627 
L 139.253002 251.773481 
L 139.730821 251.773481 
L 139.730821 249.808043 
L 141.378673 249.808043 
L 141.378673 242.601435 
L 142.07914 242.601435 
L 142.07914 241.946289 
L 142.351634 241.946289 
L 142.351634 240.635997 
L 142.619936 240.635997 
L 142.619936 238.015413 
L 143.144465 238.015413 
L 143.144465 236.705121 
L 143.273169 236.705121 
L 143.273169 236.049974 
L 143.653678 236.049974 
L 143.653678 235.394828 
L 143.778691 235.394828 
L 143.778691 234.739682 
L 144.026061 234.739682 
L 144.026061 234.084536 
L 145.212864 234.084536 
L 145.212864 230.808806 
L 145.665858 230.808806 
L 145.665858 230.15366 
L 146.107383 230.15366 
L 146.216039 228.843367 
L 146.324022 228.843367 
L 146.324022 228.188221 
L 146.538004 228.188221 
L 146.538004 226.222783 
L 146.854132 226.222783 
L 146.854132 224.912491 
L 147.266916 224.912491 
L 147.266916 220.981614 
L 147.769524 220.981614 
L 147.769524 218.36103 
L 147.96658 218.36103 
L 147.96658 216.395591 
L 148.161434 216.395591 
L 148.161434 215.085299 
L 150.258492 215.085299 
L 150.258492 214.430153 
L 150.932558 214.430153 
L 150.932558 213.775007 
L 151.260066 213.775007 
L 151.340991 209.84413 
L 151.818809 209.84413 
L 151.818809 209.188984 
L 151.975216 209.188984 
L 151.975216 208.533838 
L 152.587184 208.533838 
L 152.662192 198.051501 
L 152.811246 198.051501 
L 152.811246 197.396355 
L 153.105587 197.396355 
L 153.105587 196.741208 
L 153.750233 196.741208 
L 153.750233 195.430916 
L 154.906477 195.430916 
L 154.972161 193.465478 
L 155.0376 193.465478 
L 155.0376 191.50004 
L 155.296925 191.50004 
L 155.361158 189.534601 
L 155.804285 189.534601 
L 155.804285 188.879455 
L 156.052535 188.879455 
L 156.114049 186.914017 
L 156.236431 186.914017 
L 156.236431 186.258871 
L 156.478647 186.258871 
L 156.478647 184.948579 
L 156.717545 184.948579 
L 156.717545 183.638286 
L 157.069866 183.638286 
L 157.069866 182.98314 
L 157.185742 182.98314 
L 157.185742 179.052264 
L 157.58535 179.052264 
L 157.641697 176.431679 
L 157.809652 176.431679 
L 157.920731 173.811095 
L 158.195371 173.811095 
L 158.195371 172.500803 
L 158.572743 172.500803 
L 158.625992 170.535364 
L 158.784773 170.535364 
L 158.784773 169.880218 
L 159.046236 169.880218 
L 159.098062 165.294196 
L 159.906985 165.294196 
L 159.906985 162.673611 
L 160.103486 162.673611 
L 160.200913 158.742735 
L 160.442124 158.742735 
L 160.442124 158.087589 
L 160.821253 158.087589 
L 160.821253 156.777296 
L 161.420284 156.777296 
L 161.465522 155.467004 
L 161.600536 155.467004 
L 161.600536 154.811858 
L 161.911563 154.811858 
L 161.911563 152.191274 
L 162.130378 152.191274 
L 162.130378 151.536128 
L 162.346481 151.536128 
L 162.346481 150.880981 
L 162.644595 150.880981 
L 162.68677 148.915543 
L 162.770815 148.915543 
L 162.770815 147.605251 
L 163.103002 147.605251 
L 163.103002 146.950105 
L 163.469301 146.950105 
L 163.469301 145.639813 
L 163.709295 145.639813 
L 163.709295 144.984667 
L 164.86209 144.984667 
L 164.9363 143.019228 
L 165.047026 143.019228 
L 165.120455 141.05379 
L 165.193576 141.05379 
L 165.193576 137.778059 
L 165.55465 137.778059 
L 165.59035 136.467767 
L 165.803027 136.467767 
L 165.838222 133.847183 
L 165.978297 133.847183 
L 165.978297 133.192037 
L 166.117256 133.192037 
L 166.117256 132.536891 
L 166.391896 132.536891 
L 166.391896 131.226598 
L 166.527611 131.226598 
L 166.527611 129.916306 
L 166.829163 129.916306 
L 166.829163 129.26116 
L 166.96153 129.26116 
L 167.06015 125.98543 
L 167.352708 125.98543 
L 167.352708 125.330284 
L 167.481174 125.330284 
L 167.576907 122.709699 
L 167.829655 122.709699 
L 167.829655 119.433969 
L 168.202038 119.433969 
L 168.263336 116.813384 
L 168.445948 116.813384 
L 168.445948 116.158238 
L 168.596677 116.158238 
L 168.686493 114.1928 
L 168.805533 114.1928 
L 168.805533 112.882508 
L 168.982583 112.882508 
L 169.011918 110.917069 
L 169.186895 110.917069 
L 169.186895 107.641339 
L 169.302579 107.641339 
L 169.302579 106.331047 
L 170.036379 106.331047 
L 170.036379 105.020754 
L 170.364915 105.020754 
L 170.364915 104.365608 
L 170.607318 104.365608 
L 170.607318 101.089878 
L 170.872762 101.089878 
L 170.951613 99.12444 
L 171.003983 99.12444 
L 171.030109 97.159001 
L 171.134225 97.159001 
L 171.134225 95.193563 
L 171.314944 95.193563 
L 171.366236 93.883271 
L 171.49381 93.883271 
L 171.49381 89.297248 
L 171.8212 89.297248 
L 171.895887 86.676664 
L 172.288901 86.676664 
L 172.288901 86.021518 
L 172.744386 86.021518 
L 172.744386 85.366371 
L 172.885786 85.366371 
L 172.97942 82.090641 
L 173.00275 82.090641 
L 173.026049 78.159764 
L 173.188276 78.159764 
L 173.188276 77.504618 
L 173.621148 77.504618 
L 173.688525 76.194326 
L 173.733298 76.194326 
L 173.822502 74.884034 
L 174.240098 74.884034 
L 174.240098 73.573742 
L 174.434469 73.573742 
L 174.434469 72.918596 
L 174.753684 72.918596 
L 174.83783 70.953157 
L 175.004915 70.953157 
L 175.004915 70.298011 
L 175.476552 70.298011 
L 175.476552 69.642865 
L 176.170646 69.642865 
L 176.170646 67.677427 
L 176.706692 67.677427 
L 176.706692 67.022281 
L 177.024289 67.022281 
L 177.024289 66.367135 
L 177.588952 66.367135 
L 177.588952 65.711988 
L 178.900534 65.711988 
L 178.900534 65.056842 
L 179.19724 65.056842 
L 179.19724 64.401696 
L 179.744273 64.401696 
L 179.744273 63.74655 
L 180.503634 63.74655 
L 180.503634 63.091404 
L 181.873839 63.091404 
L 181.873839 62.436258 
L 185.2185 62.436258 
L 185.2185 61.781112 
L 185.91049 61.781112 
L 185.921609 60.47082 
L 186.05448 60.47082 
L 186.05448 59.815674 
L 187.072105 59.815674 
L 187.072105 59.160527 
L 187.554422 59.160527 
L 187.554422 58.505381 
L 188.239182 58.505381 
L 188.239182 57.850235 
L 189.405998 57.850235 
L 189.405998 57.195089 
L 189.650035 57.195089 
L 189.650035 56.539943 
L 191.552844 56.539943 
L 191.552844 55.884797 
L 192.884852 55.884797 
L 192.884852 55.229651 
L 193.814006 55.229651 
L 193.814006 54.574505 
L 194.709584 54.574505 
L 194.709584 53.919359 
L 195.147247 53.919359 
L 195.147247 53.264213 
L 195.381422 53.264213 
L 195.381422 51.95392 
L 195.522997 51.95392 
L 195.522997 51.298774 
L 195.909637 51.298774 
L 195.909637 50.643628 
L 196.115283 50.643628 
L 196.115283 49.988482 
L 196.269478 49.988482 
L 196.336894 48.67819 
L 196.718063 48.67819 
L 196.718063 48.023044 
L 197.008872 48.023044 
L 197.008872 47.367898 
L 197.559236 47.367898 
L 197.559236 46.712752 
L 198.454039 46.712752 
L 198.454039 46.057605 
L 199.530718 46.057605 
L 199.530718 45.402459 
L 199.968294 45.402459 
L 200.032747 44.092167 
L 200.273563 44.092167 
L 200.297951 42.781875 
L 200.487009 42.781875 
L 200.487009 42.126729 
L 200.602343 42.126729 
L 200.69311 40.816437 
L 201.153921 40.816437 
L 201.246487 39.506144 
L 202.229178 39.506144 
L 202.229178 38.850998 
L 204.599814 38.850998 
L 204.599814 38.195852 
L 205.616916 38.195852 
L 205.616916 37.540706 
L 207.179482 37.540706 
L 207.179482 36.88556 
L 209.650075 36.88556 
L 209.650075 36.230414 
L 210.269021 36.230414 
L 210.269021 35.575268 
L 211.312994 35.575268 
L 211.408623 34.264976 
L 212.093496 34.264976 
L 212.138047 32.954683 
L 213.095116 32.954683 
L 213.095116 32.299537 
L 213.868593 32.299537 
L 213.868593 31.644391 
L 219.092499 31.644391 
L 219.092499 30.989245 
L 227.434408 30.989245 
L 227.434408 30.334099 
L 338.688 30.334099 
L 338.688 30.334099 
" style="fill:none;stroke:#000080;stroke-linecap:square;stroke-width:1.5;"/>
   </g>
   <g id="line2d_31">
    <defs>
     <path d="M 0 6 
C 1.591219 6 3.117479 5.367802 4.242641 4.242641 
C 5.367802 3.117479 6 1.591219 6 0 
C 6 -1.591219 5.367802 -3.117479 4.242641 -4.242641 
C 3.117479 -5.367802 1.591219 -6 0 -6 
C -1.591219 -6 -3.117479 -5.367802 -4.242641 -4.242641 
C -5.367802 -3.117479 -6 -1.591219 -6 0 
C -6 1.591219 -5.367802 3.117479 -4.242641 4.242641 
C -3.117479 5.367802 -1.591219 6 0 6 
z
" id="mebaa8cff01" style="stroke:#000080;stroke-width:1.5;"/>
    </defs>
    <g>
     <use style="fill-opacity:0;stroke:#000080;stroke-width:1.5;" x="139.253002" xlink:href="#mebaa8cff01" y="251.773481"/>
     <use style="fill-opacity:0;stroke:#000080;stroke-width:1.5;" x="167.352708" xlink:href="#mebaa8cff01" y="125.98543"/>
     <use style="fill-opacity:0;stroke:#000080;stroke-width:1.5;" x="198.454039" xlink:href="#mebaa8cff01" y="46.712752"/>
     <use style="fill-opacity:0;stroke:#000080;stroke-width:1.5;" x="227.434408" xlink:href="#mebaa8cff01" y="30.334099"/>
     <use style="fill-opacity:0;stroke:#000080;stroke-width:1.5;" x="227.434408" xlink:href="#mebaa8cff01" y="30.334099"/>
     <use style="fill-opacity:0;stroke:#000080;stroke-width:1.5;" x="338.688" xlink:href="#mebaa8cff01" y="30.334099"/>
    </g>
   </g>
   <g id="line2d_32">
    <path style="fill:none;stroke:#000080;stroke-linecap:square;stroke-width:1.5;"/>
    <g/>
   </g>
   <g id="line2d_33">
    <path clip-path="url(#p8e8b8d26b6)" d="M 190.720479 56.539943 
" style="fill:none;stroke:#000080;stroke-linecap:square;stroke-width:1.5;"/>
    <defs>
     <path d="M -12 12 
L 12 -12 
M -12 -12 
L 12 12 
" id="m2af17bcf87" style="stroke:#000080;"/>
    </defs>
    <g clip-path="url(#p8e8b8d26b6)">
     <use style="fill:#000080;stroke:#000080;" x="190.720479" xlink:href="#m2af17bcf87" y="56.539943"/>
    </g>
   </g>
   <g id="line2d_34">
    <defs>
     <path d="M 0 1.5 
C 0.397805 1.5 0.77937 1.341951 1.06066 1.06066 
C 1.341951 0.77937 1.5 0.397805 1.5 0 
C 1.5 -0.397805 1.341951 -0.77937 1.06066 -1.06066 
C 0.77937 -1.341951 0.397805 -1.5 0 -1.5 
C -0.397805 -1.5 -0.77937 -1.341951 -1.06066 -1.06066 
C -1.341951 -0.77937 -1.5 -0.397805 -1.5 0 
C -1.5 0.397805 -1.341951 0.77937 -1.06066 1.06066 
C -0.77937 1.341951 -0.397805 1.5 0 1.5 
z
" id="m9121b96e2a" style="stroke:#ff00ff;"/>
    </defs>
    <g>
     <use style="fill:#ff00ff;stroke:#ff00ff;" x="154.77436" xlink:href="#m9121b96e2a" y="272.738156"/>
     <use style="fill:#ff00ff;stroke:#ff00ff;" x="154.77436" xlink:href="#m9121b96e2a" y="272.738156"/>
    </g>
   </g>
   <g id="line2d_35">
    <path d="M 45.512012 298.944 
L 45.512012 297.633708 
L 73.579452 297.633708 
L 73.579452 296.323416 
L 83.830028 296.323416 
L 83.830028 294.357977 
L 90.242884 294.357977 
L 90.242884 292.392539 
L 92.73846 292.392539 
L 92.73846 290.427101 
L 107.514726 290.427101 
L 107.514726 289.771955 
L 108.948899 289.771955 
L 108.948899 289.116809 
L 110.694282 289.116809 
L 110.694282 287.806516 
L 113.022974 287.806516 
L 113.022974 287.15137 
L 113.382559 287.15137 
L 113.382559 286.496224 
L 114.751048 286.496224 
L 114.751048 285.841078 
L 115.397021 285.841078 
L 115.397021 285.185932 
L 116.621333 285.185932 
L 116.621333 284.530786 
L 119.097192 284.530786 
L 119.097192 283.87564 
L 121.489881 283.87564 
L 121.489881 283.220494 
L 121.712041 283.220494 
L 121.712041 282.565348 
L 126.168212 282.565348 
L 126.168212 281.910201 
L 128.560901 281.910201 
L 128.560901 281.255055 
L 129.433047 281.255055 
L 129.433047 280.599909 
L 131.565689 280.599909 
L 131.565689 279.944763 
L 131.814826 279.944763 
L 131.814826 279.289617 
L 133.352844 279.289617 
L 133.352844 278.634471 
L 134.766144 278.634471 
L 134.766144 277.979325 
L 134.973757 277.979325 
L 134.973757 277.324179 
L 135.280614 277.324179 
L 135.280614 276.669033 
L 136.551264 276.669033 
L 136.551264 276.013887 
L 138.84457 276.013887 
L 138.84457 275.35874 
L 139.333553 275.35874 
L 139.333553 274.703594 
L 143.653678 274.703594 
L 143.653678 274.048448 
L 148.112924 274.048448 
L 148.112924 273.393302 
L 154.77436 273.393302 
L 154.77436 272.738156 
L 338.688 272.738156 
" style="fill:none;stroke:#ff00ff;stroke-linecap:square;stroke-width:1.5;"/>
   </g>
   <g id="line2d_36">
    <defs>
     <path d="M -0 8.485281 
L 5.091169 0 
L 0 -8.485281 
L -5.091169 -0 
z
" id="m10fe612b70" style="stroke:#ff00ff;stroke-linejoin:miter;stroke-width:1.5;"/>
    </defs>
    <g>
     <use style="fill-opacity:0;stroke:#ff00ff;stroke-linejoin:miter;stroke-width:1.5;" x="110.694282" xlink:href="#m10fe612b70" y="287.806516"/>
     <use style="fill-opacity:0;stroke:#ff00ff;stroke-linejoin:miter;stroke-width:1.5;" x="154.77436" xlink:href="#m10fe612b70" y="273.393302"/>
     <use style="fill-opacity:0;stroke:#ff00ff;stroke-linejoin:miter;stroke-width:1.5;" x="154.77436" xlink:href="#m10fe612b70" y="273.393302"/>
     <use style="fill-opacity:0;stroke:#ff00ff;stroke-linejoin:miter;stroke-width:1.5;" x="154.77436" xlink:href="#m10fe612b70" y="272.738156"/>
     <use style="fill-opacity:0;stroke:#ff00ff;stroke-linejoin:miter;stroke-width:1.5;" x="154.77436" xlink:href="#m10fe612b70" y="272.738156"/>
     <use style="fill-opacity:0;stroke:#ff00ff;stroke-linejoin:miter;stroke-width:1.5;" x="338.688" xlink:href="#m10fe612b70" y="272.738156"/>
    </g>
   </g>
   <g id="line2d_37">
    <path style="fill:none;stroke:#ff00ff;stroke-linecap:square;stroke-width:1.5;"/>
    <g/>
   </g>
   <g id="line2d_38">
    <path clip-path="url(#p8e8b8d26b6)" d="M 107.009204 290.427101 
" style="fill:none;stroke:#ff00ff;stroke-linecap:square;stroke-width:1.5;"/>
    <defs>
     <path d="M -12 12 
L 12 -12 
M -12 -12 
L 12 12 
" id="ma959126070" style="stroke:#ff00ff;"/>
    </defs>
    <g clip-path="url(#p8e8b8d26b6)">
     <use style="fill:#ff00ff;stroke:#ff00ff;" x="107.009204" xlink:href="#ma959126070" y="290.427101"/>
    </g>
   </g>
   <g id="line2d_39">
    <defs>
     <path d="M 0 1.5 
C 0.397805 1.5 0.77937 1.341951 1.06066 1.06066 
C 1.341951 0.77937 1.5 0.397805 1.5 0 
C 1.5 -0.397805 1.341951 -0.77937 1.06066 -1.06066 
C 0.77937 -1.341951 0.397805 -1.5 0 -1.5 
C -0.397805 -1.5 -0.77937 -1.341951 -1.06066 -1.06066 
C -1.341951 -0.77937 -1.5 -0.397805 -1.5 0 
C -1.5 0.397805 -1.341951 0.77937 -1.06066 1.06066 
C -0.77937 1.341951 -0.397805 1.5 0 1.5 
z
" id="m4dc74c7ce7" style="stroke:#ff7500;"/>
    </defs>
    <g>
     <use style="fill:#ff7500;stroke:#ff7500;" x="208.955029" xlink:href="#m4dc74c7ce7" y="30.334099"/>
     <use style="fill:#ff7500;stroke:#ff7500;" x="208.955029" xlink:href="#m4dc74c7ce7" y="30.334099"/>
    </g>
   </g>
   <g id="line2d_40">
    <path d="M 45.512012 298.944 
L 45.512012 297.633708 
L 117.486268 297.633708 
L 117.486268 296.978562 
L 118.838828 296.978562 
L 118.838828 295.013123 
L 119.850084 295.013123 
L 119.850084 293.702831 
L 120.33454 293.702831 
L 120.33454 293.047685 
L 121.931406 293.047685 
L 121.931406 291.737393 
L 122.362027 291.737393 
L 122.362027 290.427101 
L 122.782271 290.427101 
L 122.782271 289.771955 
L 123.593547 289.771955 
L 123.593547 289.116809 
L 125.996395 289.116809 
L 125.996395 288.461662 
L 127.165014 288.461662 
L 127.165014 287.806516 
L 127.48501 287.806516 
L 127.48501 286.496224 
L 129.147151 286.496224 
L 129.147151 283.87564 
L 129.433047 283.87564 
L 129.433047 283.220494 
L 130.664567 283.220494 
L 130.664567 281.910201 
L 131.185181 281.910201 
L 131.185181 280.599909 
L 132.30267 280.599909 
L 132.30267 279.944763 
L 132.777237 279.944763 
L 132.777237 278.634471 
L 133.46572 278.634471 
L 133.46572 276.669033 
L 134.019394 276.669033 
L 134.019394 275.35874 
L 134.661403 275.35874 
L 134.661403 273.393302 
L 135.178927 273.393302 
L 135.178927 272.738156 
L 136.645276 272.738156 
L 136.645276 272.08301 
L 137.647286 272.08301 
L 137.647286 271.427864 
L 137.997836 271.427864 
L 137.997836 269.462426 
L 138.510793 269.462426 
L 138.510793 268.152133 
L 138.927025 268.152133 
L 138.927025 264.221257 
L 139.253002 264.221257 
L 139.253002 262.910965 
L 139.413734 262.910965 
L 139.413734 261.600672 
L 139.572998 261.600672 
L 139.572998 260.945526 
L 139.964909 260.945526 
L 139.964909 259.635234 
L 140.11924 259.635234 
L 140.11924 258.980088 
L 140.272217 258.980088 
L 140.272217 257.01465 
L 140.944478 257.01465 
L 140.944478 255.049211 
L 141.090414 255.049211 
L 141.090414 254.394065 
L 141.732423 254.394065 
L 141.732423 253.738919 
L 142.147664 253.738919 
L 142.147664 251.773481 
L 142.884173 251.773481 
L 142.884173 251.118335 
L 144.269971 251.118335 
L 144.269971 249.808043 
L 145.155404 249.808043 
L 145.155404 249.152896 
L 145.384119 249.152896 
L 145.384119 248.49775 
L 146.591092 248.49775 
L 146.591092 247.842604 
L 146.801841 247.842604 
L 146.906268 244.566874 
L 147.010073 244.566874 
L 147.010073 243.256582 
L 147.164632 243.256582 
L 147.164632 241.946289 
L 147.368603 241.946289 
L 147.368603 241.291143 
L 147.670154 241.291143 
L 147.670154 239.980851 
L 147.818997 239.980851 
L 147.818997 238.015413 
L 148.306159 238.015413 
L 148.306159 235.394828 
L 148.54473 235.394828 
L 148.639252 233.42939 
L 148.826773 233.42939 
L 148.826773 232.774244 
L 149.15016 232.774244 
L 149.15016 230.808806 
L 149.735275 230.808806 
L 149.823575 229.498513 
L 149.998846 229.498513 
L 150.085825 228.188221 
L 150.301393 228.188221 
L 150.301393 227.533075 
L 150.47195 227.533075 
L 150.47195 226.877929 
L 150.849711 226.877929 
L 150.932558 224.912491 
L 151.015013 224.912491 
L 151.015013 224.257345 
L 151.178764 224.257345 
L 151.178764 223.602199 
L 151.818809 223.602199 
L 151.897188 219.016176 
L 152.052897 219.016176 
L 152.130233 217.050738 
L 152.624728 217.050738 
L 152.624728 216.395591 
L 153.573542 216.395591 
L 153.644434 215.085299 
L 153.750233 215.085299 
L 153.820412 209.188984 
L 154.201424 209.188984 
L 154.201424 207.223546 
L 154.337936 207.223546 
L 154.405793 204.602962 
L 154.473387 204.602962 
L 154.473387 203.947816 
L 154.707925 203.947816 
L 154.707925 202.637523 
L 154.972161 202.637523 
L 154.972161 201.982377 
L 155.200129 201.982377 
L 155.200129 198.706647 
L 155.393186 198.706647 
L 155.488919 196.741208 
L 155.897793 196.741208 
L 155.897793 192.810332 
L 156.083319 192.810332 
L 156.083319 192.155186 
L 156.205916 192.155186 
L 156.297301 188.879455 
L 156.418408 188.879455 
L 156.418408 185.603725 
L 156.538679 185.603725 
L 156.538679 182.98314 
L 156.687861 182.98314 
L 156.687861 182.327994 
L 156.865211 182.327994 
L 156.923929 179.70741 
L 157.243392 179.70741 
L 157.243392 176.431679 
L 157.358125 176.431679 
L 157.358125 175.776533 
L 157.809652 175.776533 
L 157.809652 175.121387 
L 157.976006 175.121387 
L 157.976006 174.466241 
L 158.222599 174.466241 
L 158.331086 171.845657 
L 158.385078 171.845657 
L 158.385078 171.190511 
L 158.51933 171.190511 
L 158.51933 168.569926 
L 158.968208 168.569926 
L 159.072168 167.259634 
L 159.123917 167.259634 
L 159.123917 166.604488 
L 159.456591 166.604488 
L 159.456591 165.294196 
L 159.582872 165.294196 
L 159.582872 164.63905 
L 159.783038 164.63905 
L 159.783038 163.983903 
L 159.956318 163.983903 
L 159.956318 162.673611 
L 160.176607 162.673611 
L 160.225184 160.708173 
L 160.585265 160.708173 
L 160.632719 156.12215 
L 160.727241 156.12215 
L 160.797798 154.811858 
L 160.891432 154.811858 
L 160.891432 153.501566 
L 161.778945 153.501566 
L 161.867469 150.225835 
L 162.065021 150.225835 
L 162.10862 148.915543 
L 162.303474 148.915543 
L 162.346481 146.294959 
L 162.53871 146.294959 
L 162.53871 143.674374 
L 162.665696 143.674374 
L 162.749842 141.708936 
L 162.812686 141.708936 
L 162.812686 141.05379 
L 162.979172 141.05379 
L 163.082425 137.778059 
L 163.246367 137.778059 
L 163.348054 134.502329 
L 163.388564 134.502329 
L 163.388564 132.536891 
L 163.50953 132.536891 
L 163.50953 131.881745 
L 163.768781 131.881745 
L 163.867476 129.916306 
L 163.946031 129.916306 
L 163.946031 128.606014 
L 164.410075 128.606014 
L 164.486229 127.295722 
L 164.65637 127.295722 
L 164.731458 125.98543 
L 165.010195 125.98543 
L 165.102127 124.675137 
L 165.211808 124.675137 
L 165.211808 123.364845 
L 165.338904 123.364845 
L 165.338904 122.709699 
L 165.643763 122.709699 
L 165.643763 122.054553 
L 165.873346 122.054553 
L 165.873346 121.399407 
L 166.065276 121.399407 
L 166.065276 120.744261 
L 166.255117 120.744261 
L 166.357802 116.158238 
L 166.510705 116.158238 
L 166.510705 115.503092 
L 166.795913 115.503092 
L 166.862349 113.537654 
L 166.978005 113.537654 
L 167.076532 112.227362 
L 167.125588 112.227362 
L 167.158215 110.917069 
L 167.576907 110.917069 
L 167.640438 108.951631 
L 167.87664 108.951631 
L 167.87664 108.296485 
L 168.01684 108.296485 
L 168.01684 107.641339 
L 168.309168 107.641339 
L 168.309168 106.986193 
L 168.611679 106.986193 
L 168.701418 105.675901 
L 168.746115 105.675901 
L 168.746115 105.020754 
L 169.055827 105.020754 
L 169.055827 103.055316 
L 169.186895 103.055316 
L 169.27373 101.089878 
L 169.560096 101.089878 
L 169.616809 99.779586 
L 169.743743 99.779586 
L 169.743743 98.469293 
L 169.953269 98.469293 
L 169.953269 97.814147 
L 170.486538 97.814147 
L 170.58055 96.503855 
L 170.634045 96.503855 
L 170.713981 94.538417 
L 170.753812 94.538417 
L 170.753812 93.883271 
L 170.925369 93.883271 
L 170.925369 93.228125 
L 171.147196 93.228125 
L 171.147196 91.917832 
L 171.531901 91.917832 
L 171.531901 91.262686 
L 172.130306 91.262686 
L 172.240256 88.642102 
L 172.288901 88.642102 
L 172.288901 87.986956 
L 172.909242 87.986956 
L 172.909242 87.33181 
L 173.508272 87.33181 
L 173.508272 86.676664 
L 175.607562 86.676664 
L 175.6777 84.711225 
L 175.886437 84.711225 
L 175.994786 82.745787 
L 176.141459 82.745787 
L 176.24824 80.780349 
L 176.267585 80.780349 
L 176.373599 79.470057 
L 176.392805 79.470057 
L 176.392805 78.81491 
L 176.640581 78.81491 
L 176.640581 78.159764 
L 176.781943 78.159764 
L 176.781943 77.504618 
L 177.544086 77.504618 
L 177.544086 76.849472 
L 177.908622 76.849472 
L 177.943781 74.228888 
L 178.135904 74.228888 
L 178.213893 72.918596 
L 178.265693 72.918596 
L 178.265693 71.608303 
L 178.377401 71.608303 
L 178.45432 69.642865 
L 178.598693 69.642865 
L 178.708295 68.332573 
L 178.89222 68.332573 
L 178.89222 67.677427 
L 179.213577 67.677427 
L 179.303155 65.056842 
L 179.384193 65.056842 
L 179.384193 64.401696 
L 179.513075 64.401696 
L 179.617095 61.781112 
L 179.839052 61.781112 
L 179.941152 59.815674 
L 180.228512 59.815674 
L 180.228512 59.160527 
L 180.473278 59.160527 
L 180.556629 57.195089 
L 180.601926 57.195089 
L 180.601926 56.539943 
L 180.767015 56.539943 
L 180.767015 55.884797 
L 180.893522 55.884797 
L 180.930556 53.919359 
L 181.055886 53.919359 
L 181.055886 53.264213 
L 181.296633 53.264213 
L 181.296633 52.609066 
L 181.483999 52.609066 
L 181.541248 51.298774 
L 181.831732 51.298774 
L 181.831732 50.643628 
L 181.943792 50.643628 
L 181.971695 49.333336 
L 182.179555 49.333336 
L 182.213959 48.023044 
L 183.35149 48.023044 
L 183.35149 47.367898 
L 183.815378 47.367898 
L 183.815378 46.057605 
L 184.861927 46.057605 
L 184.861927 45.402459 
L 185.026506 45.402459 
L 185.026506 44.747313 
L 185.17795 44.747313 
L 185.17795 44.092167 
L 187.447822 44.092167 
L 187.447822 43.437021 
L 191.938852 43.437021 
L 191.938852 42.781875 
L 193.796324 42.781875 
L 193.796324 42.126729 
L 194.253763 42.126729 
L 194.253763 41.471583 
L 195.339373 41.471583 
L 195.365261 40.161291 
L 195.458787 40.161291 
L 195.458787 39.506144 
L 195.903367 39.506144 
L 195.903367 38.850998 
L 196.244898 38.850998 
L 196.244898 38.195852 
L 197.041214 38.195852 
L 197.041214 37.540706 
L 197.416079 37.540706 
L 197.416079 36.88556 
L 198.312609 36.88556 
L 198.312609 35.575268 
L 198.527024 35.575268 
L 198.527024 34.920122 
L 199.19907 34.920122 
L 199.305162 33.60983 
L 200.470126 33.60983 
L 200.542368 32.299537 
L 202.495465 32.299537 
L 202.495465 31.644391 
L 205.468987 31.644391 
L 205.468987 30.989245 
L 208.955029 30.989245 
L 208.955029 30.334099 
L 338.688 30.334099 
L 338.688 30.334099 
" style="fill:none;stroke:#ff7500;stroke-linecap:square;stroke-width:1.5;"/>
   </g>
   <g id="line2d_41">
    <defs>
     <path d="M 0 -6 
L -1.347084 -1.854102 
L -5.706339 -1.854102 
L -2.179628 0.708204 
L -3.526712 4.854102 
L -0 2.291796 
L 3.526712 4.854102 
L 2.179628 0.708204 
L 5.706339 -1.854102 
L 1.347084 -1.854102 
z
" id="m4dccfc6408" style="stroke:#ff7500;stroke-linejoin:bevel;stroke-width:1.5;"/>
    </defs>
    <g>
     <use style="fill-opacity:0;stroke:#ff7500;stroke-linejoin:bevel;stroke-width:1.5;" x="134.661403" xlink:href="#m4dccfc6408" y="275.35874"/>
     <use style="fill-opacity:0;stroke:#ff7500;stroke-linejoin:bevel;stroke-width:1.5;" x="163.388564" xlink:href="#m4dccfc6408" y="134.502329"/>
     <use style="fill-opacity:0;stroke:#ff7500;stroke-linejoin:bevel;stroke-width:1.5;" x="208.955029" xlink:href="#m4dccfc6408" y="30.989245"/>
     <use style="fill-opacity:0;stroke:#ff7500;stroke-linejoin:bevel;stroke-width:1.5;" x="208.955029" xlink:href="#m4dccfc6408" y="30.334099"/>
     <use style="fill-opacity:0;stroke:#ff7500;stroke-linejoin:bevel;stroke-width:1.5;" x="208.955029" xlink:href="#m4dccfc6408" y="30.334099"/>
     <use style="fill-opacity:0;stroke:#ff7500;stroke-linejoin:bevel;stroke-width:1.5;" x="338.688" xlink:href="#m4dccfc6408" y="30.334099"/>
    </g>
   </g>
   <g id="line2d_42">
    <path style="fill:none;stroke:#ff7500;stroke-linecap:square;stroke-width:1.5;"/>
    <g/>
   </g>
   <g id="line2d_43">
    <path clip-path="url(#p8e8b8d26b6)" d="M 190.062477 43.437021 
" style="fill:none;stroke:#ff7500;stroke-linecap:square;stroke-width:1.5;"/>
    <defs>
     <path d="M -12 12 
L 12 -12 
M -12 -12 
L 12 12 
" id="m445d9d0c75" style="stroke:#ff7500;"/>
    </defs>
    <g clip-path="url(#p8e8b8d26b6)">
     <use style="fill:#ff7500;stroke:#ff7500;" x="190.062477" xlink:href="#m445d9d0c75" y="43.437021"/>
    </g>
   </g>
   <g id="line2d_44">
    <defs>
     <path d="M 0 1.5 
C 0.397805 1.5 0.77937 1.341951 1.06066 1.06066 
C 1.341951 0.77937 1.5 0.397805 1.5 0 
C 1.5 -0.397805 1.341951 -0.77937 1.06066 -1.06066 
C 0.77937 -1.341951 0.397805 -1.5 0 -1.5 
C -0.397805 -1.5 -0.77937 -1.341951 -1.06066 -1.06066 
C -1.341951 -0.77937 -1.5 -0.397805 -1.5 0 
C -1.5 0.397805 -1.341951 0.77937 -1.06066 1.06066 
C -0.77937 1.341951 -0.397805 1.5 0 1.5 
z
" id="m0e3f76d8f1" style="stroke:#6495ed;"/>
    </defs>
    <g>
     <use style="fill:#6495ed;stroke:#6495ed;" x="189.296432" xlink:href="#m0e3f76d8f1" y="95.848709"/>
     <use style="fill:#6495ed;stroke:#6495ed;" x="189.296432" xlink:href="#m0e3f76d8f1" y="95.848709"/>
    </g>
   </g>
   <g id="line2d_45">
    <path d="M 45.512012 298.944 
L 45.512012 298.288854 
L 85.66744 298.288854 
L 85.66744 285.841078 
L 95.918017 285.841078 
L 95.918017 285.185932 
L 100.192776 285.185932 
L 100.192776 284.530786 
L 101.646892 284.530786 
L 101.646892 282.565348 
L 102.989037 282.565348 
L 102.989037 281.910201 
L 105.398279 281.910201 
L 105.398279 280.599909 
L 107.514726 280.599909 
L 107.514726 278.634471 
L 110.694282 278.634471 
L 110.694282 276.669033 
L 111.104637 276.669033 
L 111.104637 276.013887 
L 111.505558 276.013887 
L 111.505558 275.35874 
L 111.897469 275.35874 
L 111.897469 274.703594 
L 112.655818 274.703594 
L 112.655818 274.048448 
L 113.73488 274.048448 
L 113.73488 272.738156 
L 114.418861 272.738156 
L 114.418861 272.08301 
L 114.751048 272.08301 
L 114.751048 271.427864 
L 115.397021 271.427864 
L 115.397021 269.462426 
L 116.323218 269.462426 
L 116.323218 268.152133 
L 117.765302 268.152133 
L 117.765302 265.531549 
L 118.310324 265.531549 
L 118.310324 264.876403 
L 118.838828 264.876403 
L 118.838828 263.566111 
L 119.602714 263.566111 
L 119.602714 262.255818 
L 120.8059 262.255818 
L 120.8059 260.29038 
L 121.036887 260.29038 
L 121.036887 259.635234 
L 121.264855 259.635234 
L 121.264855 258.324942 
L 121.489881 258.324942 
L 121.489881 256.359504 
L 121.712041 256.359504 
L 121.712041 255.704357 
L 121.931406 255.704357 
L 121.931406 255.049211 
L 122.362027 255.049211 
L 122.362027 254.394065 
L 122.573415 254.394065 
L 122.573415 253.738919 
L 123.394238 253.738919 
L 123.394238 252.428627 
L 123.593547 252.428627 
L 123.593547 251.773481 
L 123.790603 251.773481 
L 123.790603 251.118335 
L 124.178158 251.118335 
L 124.178158 250.463189 
L 124.743806 250.463189 
L 124.743806 249.808043 
L 124.92835 249.808043 
L 124.92835 248.49775 
L 125.110962 248.49775 
L 125.110962 247.842604 
L 125.291682 247.842604 
L 125.291682 246.532312 
L 125.470548 246.532312 
L 125.470548 245.877166 
L 125.647598 245.877166 
L 125.647598 244.566874 
L 125.822869 244.566874 
L 125.822869 243.911728 
L 125.996395 243.911728 
L 125.996395 243.256582 
L 126.168212 243.256582 
L 126.168212 242.601435 
L 127.002787 242.601435 
L 127.002787 240.635997 
L 127.165014 240.635997 
L 127.165014 239.980851 
L 127.325746 239.980851 
L 127.325746 239.325705 
L 127.48501 239.325705 
L 127.48501 238.670559 
L 127.642832 238.670559 
L 127.642832 238.015413 
L 127.799239 238.015413 
L 127.799239 236.049974 
L 128.560901 236.049974 
L 128.560901 235.394828 
L 128.709321 235.394828 
L 128.709321 234.739682 
L 128.856489 234.739682 
L 128.856489 234.084536 
L 130.127931 234.084536 
L 130.127931 233.42939 
L 130.531948 233.42939 
L 130.531948 232.774244 
L 130.664567 232.774244 
L 130.664567 232.119098 
L 130.796184 232.119098 
L 130.796184 230.808806 
L 131.056477 230.808806 
L 131.056477 230.15366 
L 131.185181 230.15366 
L 131.185181 229.498513 
L 132.060454 229.498513 
L 132.060454 228.843367 
L 133.46572 228.843367 
L 133.46572 228.188221 
L 133.689303 228.188221 
L 133.689303 227.533075 
L 134.236034 227.533075 
L 134.236034 226.222783 
L 134.661403 226.222783 
L 134.661403 225.567637 
L 135.076644 225.567637 
L 135.076644 224.912491 
L 135.280614 224.912491 
L 135.280614 224.257345 
L 135.482227 224.257345 
L 135.482227 223.602199 
L 135.681535 223.602199 
L 135.780341 222.291906 
L 136.170062 222.291906 
L 136.170062 221.63676 
L 136.361705 221.63676 
L 136.361705 220.981614 
L 137.107884 220.981614 
L 137.107884 220.326468 
L 138.594838 220.326468 
L 138.594838 219.671322 
L 138.84457 219.671322 
L 138.927025 218.36103 
L 139.413734 218.36103 
L 139.413734 217.705884 
L 140.348205 217.705884 
L 140.423864 216.395591 
L 140.499195 216.395591 
L 140.499195 215.740445 
L 140.871049 215.740445 
L 140.871049 215.085299 
L 141.871938 215.085299 
L 141.871938 214.430153 
L 143.840863 214.430153 
L 143.840863 213.119861 
L 144.510517 213.119861 
L 144.510517 212.464715 
L 145.039911 212.464715 
L 145.039911 211.809569 
L 145.384119 211.809569 
L 145.384119 211.154423 
L 145.497361 211.154423 
L 145.497361 210.499277 
L 145.609873 210.499277 
L 145.609873 209.84413 
L 145.777292 209.84413 
L 145.832743 208.533838 
L 146.216039 208.533838 
L 146.216039 207.878692 
L 146.591092 207.878692 
L 146.696785 205.258108 
L 146.854132 205.258108 
L 146.906268 203.947816 
L 147.061745 203.947816 
L 147.164632 202.637523 
L 147.368603 202.637523 
L 147.368603 201.982377 
L 147.570215 201.982377 
L 147.620256 200.672085 
L 148.306159 200.672085 
L 148.306159 200.016939 
L 148.449693 200.016939 
L 148.497276 198.706647 
L 148.592055 198.706647 
L 148.686322 197.396355 
L 148.919783 197.396355 
L 149.012299 194.77577 
L 149.104327 194.77577 
L 149.104327 194.120624 
L 149.377533 194.120624 
L 149.422654 192.810332 
L 149.557321 192.810332 
L 149.557321 192.155186 
L 149.735275 192.155186 
L 149.735275 191.50004 
L 149.955193 191.50004 
L 149.955193 190.189747 
L 150.172372 190.189747 
L 150.172372 189.534601 
L 150.973835 189.534601 
L 150.973835 188.879455 
L 151.219462 188.879455 
L 151.300575 187.569163 
L 151.340991 187.569163 
L 151.340991 186.258871 
L 152.130233 186.258871 
L 152.207228 184.948579 
L 152.283884 184.948579 
L 152.283884 184.293433 
L 152.398241 184.293433 
L 152.436193 182.98314 
L 152.662192 182.98314 
L 152.662192 182.327994 
L 152.885298 182.327994 
L 152.995791 181.017702 
L 153.069065 181.017702 
L 153.069065 180.362556 
L 153.466662 180.362556 
L 153.466662 179.70741 
L 153.959927 179.70741 
L 153.959927 179.052264 
L 154.167129 179.052264 
L 154.235652 177.741972 
L 154.337936 177.741972 
L 154.405793 176.431679 
L 154.57429 176.431679 
L 154.674612 173.811095 
L 154.707925 173.811095 
L 154.707925 173.155949 
L 154.873541 173.155949 
L 154.873541 172.500803 
L 155.004911 172.500803 
L 155.070227 170.535364 
L 155.232454 170.535364 
L 155.264719 168.569926 
L 155.83551 168.569926 
L 155.83551 167.91478 
L 156.083319 167.91478 
L 156.083319 167.259634 
L 156.297301 167.259634 
L 156.327657 165.949342 
L 156.747178 165.949342 
L 156.747178 165.294196 
L 156.953214 165.294196 
L 156.953214 164.63905 
L 157.86528 164.63905 
L 157.86528 163.983903 
L 158.385078 163.983903 
L 158.412011 162.673611 
L 158.705563 162.673611 
L 158.811096 161.363319 
L 159.405822 161.363319 
L 159.405822 160.708173 
L 159.582872 160.708173 
L 159.658204 159.397881 
L 160.37011 159.397881 
L 160.37011 158.087589 
L 160.585265 158.087589 
L 160.585265 157.432442 
L 160.797798 157.432442 
L 160.797798 156.777296 
L 162.10862 156.777296 
L 162.130378 155.467004 
L 162.389382 155.467004 
L 162.496175 154.156712 
L 162.728843 154.156712 
L 162.749842 152.84642 
L 163.489428 152.84642 
L 163.569701 150.880981 
L 163.609699 150.880981 
L 163.609699 150.225835 
L 164.063205 150.225835 
L 164.140886 148.915543 
L 164.19892 148.915543 
L 164.19892 148.260397 
L 164.371873 148.260397 
L 164.371873 147.605251 
L 164.486229 147.605251 
L 164.486229 146.950105 
L 164.675172 146.950105 
L 164.675172 146.294959 
L 164.843488 146.294959 
L 164.843488 144.984667 
L 165.500963 144.984667 
L 165.500963 144.32952 
L 165.995728 144.32952 
L 165.995728 143.674374 
L 166.134549 143.674374 
L 166.220754 141.708936 
L 166.679039 141.708936 
L 166.679039 141.05379 
L 167.141909 141.05379 
L 167.141909 140.398644 
L 167.465168 140.398644 
L 167.560988 138.433206 
L 167.798261 138.433206 
L 167.860992 136.467767 
L 168.125111 136.467767 
L 168.125111 135.812621 
L 168.385289 135.812621 
L 168.385289 135.157475 
L 168.835167 135.157475 
L 168.835167 134.502329 
L 169.417501 134.502329 
L 169.417501 133.847183 
L 169.729685 133.847183 
L 169.729685 133.192037 
L 170.063995 133.192037 
L 170.063995 132.536891 
L 170.51345 132.536891 
L 170.540321 131.226598 
L 170.647393 131.226598 
L 170.647393 130.571452 
L 170.872762 130.571452 
L 170.885928 129.26116 
L 171.250617 129.26116 
L 171.340609 127.950868 
L 171.379036 127.950868 
L 171.379036 127.295722 
L 171.54458 127.295722 
L 171.54458 126.640576 
L 171.93311 126.640576 
L 171.93311 125.98543 
L 172.093501 125.98543 
L 172.093501 125.330284 
L 172.446067 125.330284 
L 172.446067 124.675137 
L 172.685129 124.675137 
L 172.696997 123.364845 
L 173.026049 123.364845 
L 173.084161 122.054553 
L 173.234351 122.054553 
L 173.234351 121.399407 
L 173.688525 121.399407 
L 173.789104 120.089115 
L 174.573514 120.089115 
L 174.647927 118.123676 
L 174.690307 118.123676 
L 174.690307 117.46853 
L 174.900675 117.46853 
L 174.900675 116.813384 
L 175.118863 116.813384 
L 175.20127 114.847946 
L 175.283289 114.847946 
L 175.283289 114.1928 
L 175.537141 114.1928 
L 175.597519 112.882508 
L 175.955464 112.882508 
L 175.955464 112.227362 
L 176.131719 112.227362 
L 176.228874 110.917069 
L 176.517133 110.917069 
L 176.517133 110.261923 
L 176.838169 110.261923 
L 176.838169 109.606777 
L 176.950079 109.606777 
L 176.950079 108.951631 
L 177.263313 108.951631 
L 177.299796 107.641339 
L 177.678338 107.641339 
L 177.678338 106.986193 
L 179.01652 106.986193 
L 179.01652 106.331047 
L 179.480944 106.331047 
L 179.480944 105.675901 
L 180.420028 105.675901 
L 180.420028 105.020754 
L 180.811769 105.020754 
L 180.811769 104.365608 
L 181.129191 104.365608 
L 181.129191 103.710462 
L 181.433752 103.710462 
L 181.433752 103.055316 
L 182.075935 103.055316 
L 182.075935 102.40017 
L 182.65514 102.40017 
L 182.65514 101.745024 
L 182.855057 101.745024 
L 182.855057 101.089878 
L 183.543625 101.089878 
L 183.543625 100.434732 
L 184.267247 100.434732 
L 184.267247 99.779586 
L 184.5521 99.779586 
L 184.5521 99.12444 
L 184.967906 99.12444 
L 184.967906 98.469293 
L 186.74652 98.469293 
L 186.74652 97.814147 
L 187.248104 97.814147 
L 187.248104 97.159001 
L 188.312018 97.159001 
L 188.312018 96.503855 
L 189.296432 96.503855 
L 189.296432 95.848709 
L 338.688 95.848709 
L 338.688 95.848709 
" style="fill:none;stroke:#6495ed;stroke-linecap:square;stroke-width:1.5;"/>
   </g>
   <g id="line2d_46">
    <defs>
     <path d="M -0 6 
L 6 -6 
L -6 -6 
z
" id="m7b44efac2a" style="stroke:#6495ed;stroke-linejoin:miter;stroke-width:1.5;"/>
    </defs>
    <g>
     <use style="fill-opacity:0;stroke:#6495ed;stroke-linejoin:miter;stroke-width:1.5;" x="145.832743" xlink:href="#m7b44efac2a" y="208.533838"/>
     <use style="fill-opacity:0;stroke:#6495ed;stroke-linejoin:miter;stroke-width:1.5;" x="184.267247" xlink:href="#m7b44efac2a" y="100.434732"/>
     <use style="fill-opacity:0;stroke:#6495ed;stroke-linejoin:miter;stroke-width:1.5;" x="189.296432" xlink:href="#m7b44efac2a" y="95.848709"/>
     <use style="fill-opacity:0;stroke:#6495ed;stroke-linejoin:miter;stroke-width:1.5;" x="189.296432" xlink:href="#m7b44efac2a" y="95.848709"/>
     <use style="fill-opacity:0;stroke:#6495ed;stroke-linejoin:miter;stroke-width:1.5;" x="338.688" xlink:href="#m7b44efac2a" y="95.848709"/>
    </g>
   </g>
   <g id="line2d_47">
    <path style="fill:none;stroke:#6495ed;stroke-linecap:square;stroke-width:1.5;"/>
    <g/>
   </g>
   <g id="line2d_48">
    <path clip-path="url(#p8e8b8d26b6)" d="M 98.606294 285.185932 
" style="fill:none;stroke:#6495ed;stroke-linecap:square;stroke-width:1.5;"/>
    <defs>
     <path d="M -12 12 
L 12 -12 
M -12 -12 
L 12 12 
" id="mdab0ee7b37" style="stroke:#6495ed;"/>
    </defs>
    <g clip-path="url(#p8e8b8d26b6)">
     <use style="fill:#6495ed;stroke:#6495ed;" x="98.606294" xlink:href="#mdab0ee7b37" y="285.185932"/>
    </g>
   </g>
   <g id="line2d_49">
    <path d="M 338.688 272.738156 
L 369.60768 293.571802 
" style="fill:none;stroke:#ff00ff;stroke-linecap:square;stroke-width:1.5;"/>
    <g>
     <use style="fill-opacity:0;stroke:#ff00ff;stroke-linejoin:miter;stroke-width:1.5;" x="338.688" xlink:href="#m10fe612b70" y="272.738156"/>
     <use style="fill-opacity:0;stroke:#ff00ff;stroke-linejoin:miter;stroke-width:1.5;" x="369.60768" xlink:href="#m10fe612b70" y="293.571802"/>
    </g>
   </g>
   <g id="line2d_50">
    <path d="M 338.688 95.848709 
L 369.60768 207.616634 
" style="fill:none;stroke:#6495ed;stroke-linecap:square;stroke-width:1.5;"/>
    <g>
     <use style="fill-opacity:0;stroke:#6495ed;stroke-linejoin:miter;stroke-width:1.5;" x="338.688" xlink:href="#m7b44efac2a" y="95.848709"/>
     <use style="fill-opacity:0;stroke:#6495ed;stroke-linejoin:miter;stroke-width:1.5;" x="369.60768" xlink:href="#m7b44efac2a" y="207.616634"/>
    </g>
   </g>
   <g id="line2d_51">
    <path d="M 338.688 30.334099 
L 369.60768 121.661465 
" style="fill:none;stroke:#000080;stroke-linecap:square;stroke-width:1.5;"/>
    <g>
     <use style="fill-opacity:0;stroke:#000080;stroke-width:1.5;" x="338.688" xlink:href="#mebaa8cff01" y="30.334099"/>
     <use style="fill-opacity:0;stroke:#000080;stroke-width:1.5;" x="369.60768" xlink:href="#mebaa8cff01" y="121.661465"/>
    </g>
   </g>
   <g id="line2d_52">
    <path d="M 338.688 30.334099 
L 369.60768 35.706297 
" style="fill:none;stroke:#ff7500;stroke-linecap:square;stroke-width:1.5;"/>
    <g>
     <use style="fill-opacity:0;stroke:#ff7500;stroke-linejoin:bevel;stroke-width:1.5;" x="338.688" xlink:href="#m4dccfc6408" y="30.334099"/>
     <use style="fill-opacity:0;stroke:#ff7500;stroke-linejoin:bevel;stroke-width:1.5;" x="369.60768" xlink:href="#m4dccfc6408" y="35.706297"/>
    </g>
   </g>
   <g id="line2d_53">
    <path d="M 338.688 298.944 
L 338.688 30.334099 
" style="fill:none;stroke:#000000;stroke-linecap:square;stroke-width:1.5;"/>
   </g>
   <g id="patch_3">
    <path d="M 57.6 298.944 
L 57.6 27.648 
" style="fill:none;stroke:#000000;stroke-linecap:square;stroke-linejoin:miter;stroke-width:0.8;"/>
   </g>
   <g id="patch_4">
    <path d="M 338.688 298.944 
L 338.688 27.648 
" style="fill:none;stroke:#000000;stroke-linecap:square;stroke-linejoin:miter;stroke-width:0.8;"/>
   </g>
   <g id="patch_5">
    <path d="M 57.6 298.944 
L 338.688 298.944 
" style="fill:none;stroke:#000000;stroke-linecap:square;stroke-linejoin:miter;stroke-width:0.8;"/>
   </g>
   <g id="patch_6">
    <path d="M 57.6 27.648 
L 338.688 27.648 
" style="fill:none;stroke:#000000;stroke-linecap:square;stroke-linejoin:miter;stroke-width:0.8;"/>
   </g>
   <g id="text_13">
    <!-- cobyla -->
    <g transform="translate(375.22944 298.262739)scale(0.17 -0.17)">
     <defs>
      <path d="M 48.6875 27.296875 
Q 48.6875 37.203125 44.609375 42.84375 
Q 40.53125 48.484375 33.40625 48.484375 
Q 26.265625 48.484375 22.1875 42.84375 
Q 18.109375 37.203125 18.109375 27.296875 
Q 18.109375 17.390625 22.1875 11.75 
Q 26.265625 6.109375 33.40625 6.109375 
Q 40.53125 6.109375 44.609375 11.75 
Q 48.6875 17.390625 48.6875 27.296875 
z
M 18.109375 46.390625 
Q 20.953125 51.265625 25.265625 53.625 
Q 29.59375 56 35.59375 56 
Q 45.5625 56 51.78125 48.09375 
Q 58.015625 40.1875 58.015625 27.296875 
Q 58.015625 14.40625 51.78125 6.484375 
Q 45.5625 -1.421875 35.59375 -1.421875 
Q 29.59375 -1.421875 25.265625 0.953125 
Q 20.953125 3.328125 18.109375 8.203125 
L 18.109375 0 
L 9.078125 0 
L 9.078125 75.984375 
L 18.109375 75.984375 
z
" id="DejaVuSans-98"/>
      <path d="M 32.171875 -5.078125 
Q 28.375 -14.84375 24.75 -17.8125 
Q 21.140625 -20.796875 15.09375 -20.796875 
L 7.90625 -20.796875 
L 7.90625 -13.28125 
L 13.1875 -13.28125 
Q 16.890625 -13.28125 18.9375 -11.515625 
Q 21 -9.765625 23.484375 -3.21875 
L 25.09375 0.875 
L 2.984375 54.6875 
L 12.5 54.6875 
L 29.59375 11.921875 
L 46.6875 54.6875 
L 56.203125 54.6875 
z
" id="DejaVuSans-121"/>
     </defs>
     <use xlink:href="#DejaVuSans-99"/>
     <use x="54.980469" xlink:href="#DejaVuSans-111"/>
     <use x="116.162109" xlink:href="#DejaVuSans-98"/>
     <use x="179.638672" xlink:href="#DejaVuSans-121"/>
     <use x="238.818359" xlink:href="#DejaVuSans-108"/>
     <use x="266.601562" xlink:href="#DejaVuSans-97"/>
    </g>
   </g>
   <g id="text_14">
    <!-- slsqp -->
    <g transform="translate(375.22944 212.307571)scale(0.17 -0.17)">
     <defs>
      <path d="M 14.796875 27.296875 
Q 14.796875 17.390625 18.875 11.75 
Q 22.953125 6.109375 30.078125 6.109375 
Q 37.203125 6.109375 41.296875 11.75 
Q 45.40625 17.390625 45.40625 27.296875 
Q 45.40625 37.203125 41.296875 42.84375 
Q 37.203125 48.484375 30.078125 48.484375 
Q 22.953125 48.484375 18.875 42.84375 
Q 14.796875 37.203125 14.796875 27.296875 
z
M 45.40625 8.203125 
Q 42.578125 3.328125 38.25 0.953125 
Q 33.9375 -1.421875 27.875 -1.421875 
Q 17.96875 -1.421875 11.734375 6.484375 
Q 5.515625 14.40625 5.515625 27.296875 
Q 5.515625 40.1875 11.734375 48.09375 
Q 17.96875 56 27.875 56 
Q 33.9375 56 38.25 53.625 
Q 42.578125 51.265625 45.40625 46.390625 
L 45.40625 54.6875 
L 54.390625 54.6875 
L 54.390625 -20.796875 
L 45.40625 -20.796875 
z
" id="DejaVuSans-113"/>
     </defs>
     <use xlink:href="#DejaVuSans-115"/>
     <use x="52.099609" xlink:href="#DejaVuSans-108"/>
     <use x="79.882812" xlink:href="#DejaVuSans-115"/>
     <use x="131.982422" xlink:href="#DejaVuSans-113"/>
     <use x="195.458984" xlink:href="#DejaVuSans-112"/>
    </g>
   </g>
   <g id="text_15">
    <!-- alN5 -->
    <g transform="translate(375.22944 126.352403)scale(0.17 -0.17)">
     <defs>
      <path d="M 9.8125 72.90625 
L 23.09375 72.90625 
L 55.421875 11.921875 
L 55.421875 72.90625 
L 64.984375 72.90625 
L 64.984375 0 
L 51.703125 0 
L 19.390625 60.984375 
L 19.390625 0 
L 9.8125 0 
z
" id="DejaVuSans-78"/>
      <path d="M 10.796875 72.90625 
L 49.515625 72.90625 
L 49.515625 64.59375 
L 19.828125 64.59375 
L 19.828125 46.734375 
Q 21.96875 47.46875 24.109375 47.828125 
Q 26.265625 48.1875 28.421875 48.1875 
Q 40.625 48.1875 47.75 41.5 
Q 54.890625 34.8125 54.890625 23.390625 
Q 54.890625 11.625 47.5625 5.09375 
Q 40.234375 -1.421875 26.90625 -1.421875 
Q 22.3125 -1.421875 17.546875 -0.640625 
Q 12.796875 0.140625 7.71875 1.703125 
L 7.71875 11.625 
Q 12.109375 9.234375 16.796875 8.0625 
Q 21.484375 6.890625 26.703125 6.890625 
Q 35.15625 6.890625 40.078125 11.328125 
Q 45.015625 15.765625 45.015625 23.390625 
Q 45.015625 31 40.078125 35.4375 
Q 35.15625 39.890625 26.703125 39.890625 
Q 22.75 39.890625 18.8125 39.015625 
Q 14.890625 38.140625 10.796875 36.28125 
z
" id="DejaVuSans-53"/>
     </defs>
     <use xlink:href="#DejaVuSans-97"/>
     <use x="61.279297" xlink:href="#DejaVuSans-108"/>
     <use x="89.0625" xlink:href="#DejaVuSans-78"/>
     <use x="163.867188" xlink:href="#DejaVuSans-53"/>
    </g>
   </g>
   <g id="text_16">
    <!-- l1p-cmaes -->
    <g transform="translate(375.22944 40.397235)scale(0.17 -0.17)">
     <use xlink:href="#DejaVuSans-108"/>
     <use x="27.783203" xlink:href="#DejaVuSans-49"/>
     <use x="91.40625" xlink:href="#DejaVuSans-112"/>
     <use x="154.882812" xlink:href="#DejaVuSans-45"/>
     <use x="190.966797" xlink:href="#DejaVuSans-99"/>
     <use x="245.947266" xlink:href="#DejaVuSans-109"/>
     <use x="343.359375" xlink:href="#DejaVuSans-97"/>
     <use x="404.638672" xlink:href="#DejaVuSans-101"/>
     <use x="466.162109" xlink:href="#DejaVuSans-115"/>
    </g>
   </g>
   <g id="text_17">
    <!-- bbob-constrained f32, 2-D -->
    <g transform="translate(60.41088 38.111366)scale(0.102 -0.102)">
     <defs>
      <path d="M 40.578125 39.3125 
Q 47.65625 37.796875 51.625 33 
Q 55.609375 28.21875 55.609375 21.1875 
Q 55.609375 10.40625 48.1875 4.484375 
Q 40.765625 -1.421875 27.09375 -1.421875 
Q 22.515625 -1.421875 17.65625 -0.515625 
Q 12.796875 0.390625 7.625 2.203125 
L 7.625 11.71875 
Q 11.71875 9.328125 16.59375 8.109375 
Q 21.484375 6.890625 26.8125 6.890625 
Q 36.078125 6.890625 40.9375 10.546875 
Q 45.796875 14.203125 45.796875 21.1875 
Q 45.796875 27.640625 41.28125 31.265625 
Q 36.765625 34.90625 28.71875 34.90625 
L 20.21875 34.90625 
L 20.21875 43.015625 
L 29.109375 43.015625 
Q 36.375 43.015625 40.234375 45.921875 
Q 44.09375 48.828125 44.09375 54.296875 
Q 44.09375 59.90625 40.109375 62.90625 
Q 36.140625 65.921875 28.71875 65.921875 
Q 24.65625 65.921875 20.015625 65.03125 
Q 15.375 64.15625 9.8125 62.3125 
L 9.8125 71.09375 
Q 15.4375 72.65625 20.34375 73.4375 
Q 25.25 74.21875 29.59375 74.21875 
Q 40.828125 74.21875 47.359375 69.109375 
Q 53.90625 64.015625 53.90625 55.328125 
Q 53.90625 49.265625 50.4375 45.09375 
Q 46.96875 40.921875 40.578125 39.3125 
z
" id="DejaVuSans-51"/>
      <path d="M 19.671875 64.796875 
L 19.671875 8.109375 
L 31.59375 8.109375 
Q 46.6875 8.109375 53.6875 14.9375 
Q 60.6875 21.78125 60.6875 36.53125 
Q 60.6875 51.171875 53.6875 57.984375 
Q 46.6875 64.796875 31.59375 64.796875 
z
M 9.8125 72.90625 
L 30.078125 72.90625 
Q 51.265625 72.90625 61.171875 64.09375 
Q 71.09375 55.28125 71.09375 36.53125 
Q 71.09375 17.671875 61.125 8.828125 
Q 51.171875 0 30.078125 0 
L 9.8125 0 
z
" id="DejaVuSans-68"/>
     </defs>
     <use xlink:href="#DejaVuSans-98"/>
     <use x="63.476562" xlink:href="#DejaVuSans-98"/>
     <use x="126.953125" xlink:href="#DejaVuSans-111"/>
     <use x="188.134766" xlink:href="#DejaVuSans-98"/>
     <use x="251.611328" xlink:href="#DejaVuSans-45"/>
     <use x="287.695312" xlink:href="#DejaVuSans-99"/>
     <use x="342.675781" xlink:href="#DejaVuSans-111"/>
     <use x="403.857422" xlink:href="#DejaVuSans-110"/>
     <use x="467.236328" xlink:href="#DejaVuSans-115"/>
     <use x="519.335938" xlink:href="#DejaVuSans-116"/>
     <use x="558.544922" xlink:href="#DejaVuSans-114"/>
     <use x="599.658203" xlink:href="#DejaVuSans-97"/>
     <use x="660.9375" xlink:href="#DejaVuSans-105"/>
     <use x="688.720703" xlink:href="#DejaVuSans-110"/>
     <use x="752.099609" xlink:href="#DejaVuSans-101"/>
     <use x="813.623047" xlink:href="#DejaVuSans-100"/>
     <use x="877.099609" xlink:href="#DejaVuSans-32"/>
     <use x="908.886719" xlink:href="#DejaVuSans-102"/>
     <use x="944.091797" xlink:href="#DejaVuSans-51"/>
     <use x="1007.714844" xlink:href="#DejaVuSans-50"/>
     <use x="1071.337891" xlink:href="#DejaVuSans-44"/>
     <use x="1103.125" xlink:href="#DejaVuSans-32"/>
     <use x="1134.912109" xlink:href="#DejaVuSans-50"/>
     <use x="1198.535156" xlink:href="#DejaVuSans-45"/>
     <use x="1234.619141" xlink:href="#DejaVuSans-68"/>
    </g>
    <!-- 41 targets: 100..1e-06 -->
    <g transform="translate(60.41088 49.533135)scale(0.102 -0.102)">
     <defs>
      <path d="M 11.71875 12.40625 
L 22.015625 12.40625 
L 22.015625 0 
L 11.71875 0 
z
M 11.71875 51.703125 
L 22.015625 51.703125 
L 22.015625 39.3125 
L 11.71875 39.3125 
z
" id="DejaVuSans-58"/>
     </defs>
     <use xlink:href="#DejaVuSans-52"/>
     <use x="63.623047" xlink:href="#DejaVuSans-49"/>
     <use x="127.246094" xlink:href="#DejaVuSans-32"/>
     <use x="159.033203" xlink:href="#DejaVuSans-116"/>
     <use x="198.242188" xlink:href="#DejaVuSans-97"/>
     <use x="259.521484" xlink:href="#DejaVuSans-114"/>
     <use x="298.884766" xlink:href="#DejaVuSans-103"/>
     <use x="362.361328" xlink:href="#DejaVuSans-101"/>
     <use x="423.884766" xlink:href="#DejaVuSans-116"/>
     <use x="463.09375" xlink:href="#DejaVuSans-115"/>
     <use x="515.193359" xlink:href="#DejaVuSans-58"/>
     <use x="548.884766" xlink:href="#DejaVuSans-32"/>
     <use x="580.671875" xlink:href="#DejaVuSans-49"/>
     <use x="644.294922" xlink:href="#DejaVuSans-48"/>
     <use x="707.917969" xlink:href="#DejaVuSans-48"/>
     <use x="771.541016" xlink:href="#DejaVuSans-46"/>
     <use x="803.328125" xlink:href="#DejaVuSans-46"/>
     <use x="835.115234" xlink:href="#DejaVuSans-49"/>
     <use x="898.738281" xlink:href="#DejaVuSans-101"/>
     <use x="960.261719" xlink:href="#DejaVuSans-45"/>
     <use x="996.345703" xlink:href="#DejaVuSans-48"/>
     <use x="1059.96875" xlink:href="#DejaVuSans-54"/>
    </g>
    <!-- 30, 15 instances -->
    <g transform="translate(60.41088 60.954904)scale(0.102 -0.102)">
     <use xlink:href="#DejaVuSans-51"/>
     <use x="63.623047" xlink:href="#DejaVuSans-48"/>
     <use x="127.246094" xlink:href="#DejaVuSans-44"/>
     <use x="159.033203" xlink:href="#DejaVuSans-32"/>
     <use x="190.820312" xlink:href="#DejaVuSans-49"/>
     <use x="254.443359" xlink:href="#DejaVuSans-53"/>
     <use x="318.066406" xlink:href="#DejaVuSans-32"/>
     <use x="349.853516" xlink:href="#DejaVuSans-105"/>
     <use x="377.636719" xlink:href="#DejaVuSans-110"/>
     <use x="441.015625" xlink:href="#DejaVuSans-115"/>
     <use x="493.115234" xlink:href="#DejaVuSans-116"/>
     <use x="532.324219" xlink:href="#DejaVuSans-97"/>
     <use x="593.603516" xlink:href="#DejaVuSans-110"/>
     <use x="656.982422" xlink:href="#DejaVuSans-99"/>
     <use x="711.962891" xlink:href="#DejaVuSans-101"/>
     <use x="773.486328" xlink:href="#DejaVuSans-115"/>
    </g>
   </g>
   <g id="text_18">
    <!-- v5z33 -->
    <g style="fill:#808080;" transform="translate(183.016656 294.151352)scale(0.1 -0.1)">
     <defs>
      <path d="M 5.515625 54.6875 
L 48.1875 54.6875 
L 48.1875 46.484375 
L 14.40625 7.171875 
L 48.1875 7.171875 
L 48.1875 0 
L 4.296875 0 
L 4.296875 8.203125 
L 38.09375 47.515625 
L 5.515625 47.515625 
z
" id="DejaVuSans-122"/>
     </defs>
     <use xlink:href="#DejaVuSans-118"/>
     <use x="59.179688" xlink:href="#DejaVuSans-53"/>
     <use x="122.802734" xlink:href="#DejaVuSans-122"/>
     <use x="175.292969" xlink:href="#DejaVuSans-51"/>
     <use x="238.916016" xlink:href="#DejaVuSans-51"/>
    </g>
   </g>
   <g id="text_19">
    <!-- 32 Bent Cigar, 2 constraints -->
    <g transform="translate(57.976812 21.648)scale(0.2 -0.2)">
     <defs>
      <path d="M 19.671875 34.8125 
L 19.671875 8.109375 
L 35.5 8.109375 
Q 43.453125 8.109375 47.28125 11.40625 
Q 51.125 14.703125 51.125 21.484375 
Q 51.125 28.328125 47.28125 31.5625 
Q 43.453125 34.8125 35.5 34.8125 
z
M 19.671875 64.796875 
L 19.671875 42.828125 
L 34.28125 42.828125 
Q 41.5 42.828125 45.03125 45.53125 
Q 48.578125 48.25 48.578125 53.8125 
Q 48.578125 59.328125 45.03125 62.0625 
Q 41.5 64.796875 34.28125 64.796875 
z
M 9.8125 72.90625 
L 35.015625 72.90625 
Q 46.296875 72.90625 52.390625 68.21875 
Q 58.5 63.53125 58.5 54.890625 
Q 58.5 48.1875 55.375 44.234375 
Q 52.25 40.28125 46.1875 39.3125 
Q 53.46875 37.75 57.5 32.78125 
Q 61.53125 27.828125 61.53125 20.40625 
Q 61.53125 10.640625 54.890625 5.3125 
Q 48.25 0 35.984375 0 
L 9.8125 0 
z
" id="DejaVuSans-66"/>
      <path d="M 64.40625 67.28125 
L 64.40625 56.890625 
Q 59.421875 61.53125 53.78125 63.8125 
Q 48.140625 66.109375 41.796875 66.109375 
Q 29.296875 66.109375 22.65625 58.46875 
Q 16.015625 50.828125 16.015625 36.375 
Q 16.015625 21.96875 22.65625 14.328125 
Q 29.296875 6.6875 41.796875 6.6875 
Q 48.140625 6.6875 53.78125 8.984375 
Q 59.421875 11.28125 64.40625 15.921875 
L 64.40625 5.609375 
Q 59.234375 2.09375 53.4375 0.328125 
Q 47.65625 -1.421875 41.21875 -1.421875 
Q 24.65625 -1.421875 15.125 8.703125 
Q 5.609375 18.84375 5.609375 36.375 
Q 5.609375 53.953125 15.125 64.078125 
Q 24.65625 74.21875 41.21875 74.21875 
Q 47.75 74.21875 53.53125 72.484375 
Q 59.328125 70.75 64.40625 67.28125 
z
" id="DejaVuSans-67"/>
     </defs>
     <use xlink:href="#DejaVuSans-51"/>
     <use x="63.623047" xlink:href="#DejaVuSans-50"/>
     <use x="127.246094" xlink:href="#DejaVuSans-32"/>
     <use x="159.033203" xlink:href="#DejaVuSans-66"/>
     <use x="227.636719" xlink:href="#DejaVuSans-101"/>
     <use x="289.160156" xlink:href="#DejaVuSans-110"/>
     <use x="352.539062" xlink:href="#DejaVuSans-116"/>
     <use x="391.748047" xlink:href="#DejaVuSans-32"/>
     <use x="423.535156" xlink:href="#DejaVuSans-67"/>
     <use x="493.359375" xlink:href="#DejaVuSans-105"/>
     <use x="521.142578" xlink:href="#DejaVuSans-103"/>
     <use x="584.619141" xlink:href="#DejaVuSans-97"/>
     <use x="645.898438" xlink:href="#DejaVuSans-114"/>
     <use x="687.011719" xlink:href="#DejaVuSans-44"/>
     <use x="718.798828" xlink:href="#DejaVuSans-32"/>
     <use x="750.585938" xlink:href="#DejaVuSans-50"/>
     <use x="814.208984" xlink:href="#DejaVuSans-32"/>
     <use x="845.996094" xlink:href="#DejaVuSans-99"/>
     <use x="900.976562" xlink:href="#DejaVuSans-111"/>
     <use x="962.158203" xlink:href="#DejaVuSans-110"/>
     <use x="1025.537109" xlink:href="#DejaVuSans-115"/>
     <use x="1077.636719" xlink:href="#DejaVuSans-116"/>
     <use x="1116.845703" xlink:href="#DejaVuSans-114"/>
     <use x="1157.958984" xlink:href="#DejaVuSans-97"/>
     <use x="1219.238281" xlink:href="#DejaVuSans-105"/>
     <use x="1247.021484" xlink:href="#DejaVuSans-110"/>
     <use x="1310.400391" xlink:href="#DejaVuSans-116"/>
     <use x="1349.609375" xlink:href="#DejaVuSans-115"/>
    </g>
   </g>
  </g>
 </g>
 <defs>
  <clipPath id="p8e8b8d26b6">
   <rect height="271.296" width="281.088" x="57.6" y="27.648"/>
  </clipPath>
 </defs>
</svg>
