<?xml version="1.0" encoding="utf-8" standalone="no"?>
<!DOCTYPE svg PUBLIC "-//W3C//DTD SVG 1.1//EN"
  "http://www.w3.org/Graphics/SVG/1.1/DTD/svg11.dtd">
<!-- Created with matplotlib (https://matplotlib.org/) -->
<svg height="345.6pt" version="1.1" viewBox="0 0 460.8 345.6" width="460.8pt" xmlns="http://www.w3.org/2000/svg" xmlns:xlink="http://www.w3.org/1999/xlink">
 <metadata>
  <rdf:RDF xmlns:cc="http://creativecommons.org/ns#" xmlns:dc="http://purl.org/dc/elements/1.1/" xmlns:rdf="http://www.w3.org/1999/02/22-rdf-syntax-ns#">
   <cc:Work>
    <dc:type rdf:resource="http://purl.org/dc/dcmitype/StillImage"/>
    <dc:date>2021-04-09T10:28:39.769558</dc:date>
    <dc:format>image/svg+xml</dc:format>
    <dc:creator>
     <cc:Agent>
      <dc:title>Matplotlib v3.3.3, https://matplotlib.org/</dc:title>
     </cc:Agent>
    </dc:creator>
   </cc:Work>
  </rdf:RDF>
 </metadata>
 <defs>
  <style type="text/css">*{stroke-linecap:butt;stroke-linejoin:round;}</style>
 </defs>
 <g id="figure_1">
  <g id="patch_1">
   <path d="M 0 345.6 
L 460.8 345.6 
L 460.8 0 
L 0 0 
z
" style="fill:#ffffff;"/>
  </g>
  <g id="axes_1">
   <g id="patch_2">
    <path d="M 57.6 298.944 
L 338.688 298.944 
L 338.688 27.648 
L 57.6 27.648 
z
" style="fill:#ffffff;"/>
   </g>
   <g id="matplotlib.axis_1">
    <g id="xtick_1">
     <g id="line2d_1">
      <path clip-path="url(#p0c12f0882e)" d="M 57.6 298.944 
L 57.6 27.648 
" style="fill:none;stroke:#b0b0b0;stroke-linecap:square;stroke-width:0.8;"/>
     </g>
     <g id="line2d_2">
      <defs>
       <path d="M 0 0 
L 0 3.5 
" id="mcf3dd8acd3" style="stroke:#000000;stroke-width:0.8;"/>
      </defs>
      <g>
       <use style="stroke:#000000;stroke-width:0.8;" x="57.6" xlink:href="#mcf3dd8acd3" y="298.944"/>
      </g>
     </g>
     <g id="text_1">
      <!-- 0 -->
      <g transform="translate(51.2375 321.140875)scale(0.2 -0.2)">
       <defs>
        <path d="M 31.78125 66.40625 
Q 24.171875 66.40625 20.328125 58.90625 
Q 16.5 51.421875 16.5 36.375 
Q 16.5 21.390625 20.328125 13.890625 
Q 24.171875 6.390625 31.78125 6.390625 
Q 39.453125 6.390625 43.28125 13.890625 
Q 47.125 21.390625 47.125 36.375 
Q 47.125 51.421875 43.28125 58.90625 
Q 39.453125 66.40625 31.78125 66.40625 
z
M 31.78125 74.21875 
Q 44.046875 74.21875 50.515625 64.515625 
Q 56.984375 54.828125 56.984375 36.375 
Q 56.984375 17.96875 50.515625 8.265625 
Q 44.046875 -1.421875 31.78125 -1.421875 
Q 19.53125 -1.421875 13.0625 8.265625 
Q 6.59375 17.96875 6.59375 36.375 
Q 6.59375 54.828125 13.0625 64.515625 
Q 19.53125 74.21875 31.78125 74.21875 
z
" id="DejaVuSans-48"/>
       </defs>
       <use xlink:href="#DejaVuSans-48"/>
      </g>
     </g>
    </g>
    <g id="xtick_2">
     <g id="line2d_3">
      <path clip-path="url(#p0c12f0882e)" d="M 137.910857 298.944 
L 137.910857 27.648 
" style="fill:none;stroke:#b0b0b0;stroke-linecap:square;stroke-width:0.8;"/>
     </g>
     <g id="line2d_4">
      <g>
       <use style="stroke:#000000;stroke-width:0.8;" x="137.910857" xlink:href="#mcf3dd8acd3" y="298.944"/>
      </g>
     </g>
     <g id="text_2">
      <!-- 2 -->
      <g transform="translate(131.548357 321.140875)scale(0.2 -0.2)">
       <defs>
        <path d="M 19.1875 8.296875 
L 53.609375 8.296875 
L 53.609375 0 
L 7.328125 0 
L 7.328125 8.296875 
Q 12.9375 14.109375 22.625 23.890625 
Q 32.328125 33.6875 34.8125 36.53125 
Q 39.546875 41.84375 41.421875 45.53125 
Q 43.3125 49.21875 43.3125 52.78125 
Q 43.3125 58.59375 39.234375 62.25 
Q 35.15625 65.921875 28.609375 65.921875 
Q 23.96875 65.921875 18.8125 64.3125 
Q 13.671875 62.703125 7.8125 59.421875 
L 7.8125 69.390625 
Q 13.765625 71.78125 18.9375 73 
Q 24.125 74.21875 28.421875 74.21875 
Q 39.75 74.21875 46.484375 68.546875 
Q 53.21875 62.890625 53.21875 53.421875 
Q 53.21875 48.921875 51.53125 44.890625 
Q 49.859375 40.875 45.40625 35.40625 
Q 44.1875 33.984375 37.640625 27.21875 
Q 31.109375 20.453125 19.1875 8.296875 
z
" id="DejaVuSans-50"/>
       </defs>
       <use xlink:href="#DejaVuSans-50"/>
      </g>
     </g>
    </g>
    <g id="xtick_3">
     <g id="line2d_5">
      <path clip-path="url(#p0c12f0882e)" d="M 218.221714 298.944 
L 218.221714 27.648 
" style="fill:none;stroke:#b0b0b0;stroke-linecap:square;stroke-width:0.8;"/>
     </g>
     <g id="line2d_6">
      <g>
       <use style="stroke:#000000;stroke-width:0.8;" x="218.221714" xlink:href="#mcf3dd8acd3" y="298.944"/>
      </g>
     </g>
     <g id="text_3">
      <!-- 4 -->
      <g transform="translate(211.859214 321.140875)scale(0.2 -0.2)">
       <defs>
        <path d="M 37.796875 64.3125 
L 12.890625 25.390625 
L 37.796875 25.390625 
z
M 35.203125 72.90625 
L 47.609375 72.90625 
L 47.609375 25.390625 
L 58.015625 25.390625 
L 58.015625 17.1875 
L 47.609375 17.1875 
L 47.609375 0 
L 37.796875 0 
L 37.796875 17.1875 
L 4.890625 17.1875 
L 4.890625 26.703125 
z
" id="DejaVuSans-52"/>
       </defs>
       <use xlink:href="#DejaVuSans-52"/>
      </g>
     </g>
    </g>
    <g id="xtick_4">
     <g id="line2d_7">
      <path clip-path="url(#p0c12f0882e)" d="M 298.532571 298.944 
L 298.532571 27.648 
" style="fill:none;stroke:#b0b0b0;stroke-linecap:square;stroke-width:0.8;"/>
     </g>
     <g id="line2d_8">
      <g>
       <use style="stroke:#000000;stroke-width:0.8;" x="298.532571" xlink:href="#mcf3dd8acd3" y="298.944"/>
      </g>
     </g>
     <g id="text_4">
      <!-- 6 -->
      <g transform="translate(292.170071 321.140875)scale(0.2 -0.2)">
       <defs>
        <path d="M 33.015625 40.375 
Q 26.375 40.375 22.484375 35.828125 
Q 18.609375 31.296875 18.609375 23.390625 
Q 18.609375 15.53125 22.484375 10.953125 
Q 26.375 6.390625 33.015625 6.390625 
Q 39.65625 6.390625 43.53125 10.953125 
Q 47.40625 15.53125 47.40625 23.390625 
Q 47.40625 31.296875 43.53125 35.828125 
Q 39.65625 40.375 33.015625 40.375 
z
M 52.59375 71.296875 
L 52.59375 62.3125 
Q 48.875 64.0625 45.09375 64.984375 
Q 41.3125 65.921875 37.59375 65.921875 
Q 27.828125 65.921875 22.671875 59.328125 
Q 17.53125 52.734375 16.796875 39.40625 
Q 19.671875 43.65625 24.015625 45.921875 
Q 28.375 48.1875 33.59375 48.1875 
Q 44.578125 48.1875 50.953125 41.515625 
Q 57.328125 34.859375 57.328125 23.390625 
Q 57.328125 12.15625 50.6875 5.359375 
Q 44.046875 -1.421875 33.015625 -1.421875 
Q 20.359375 -1.421875 13.671875 8.265625 
Q 6.984375 17.96875 6.984375 36.375 
Q 6.984375 53.65625 15.1875 63.9375 
Q 23.390625 74.21875 37.203125 74.21875 
Q 40.921875 74.21875 44.703125 73.484375 
Q 48.484375 72.75 52.59375 71.296875 
z
" id="DejaVuSans-54"/>
       </defs>
       <use xlink:href="#DejaVuSans-54"/>
      </g>
     </g>
    </g>
    <g id="xtick_5">
     <g id="line2d_9">
      <path clip-path="url(#p0c12f0882e)" d="M 97.755429 298.944 
L 97.755429 27.648 
" style="fill:none;stroke:#b0b0b0;stroke-linecap:square;stroke-width:0.8;"/>
     </g>
     <g id="line2d_10">
      <defs>
       <path d="M 0 0 
L 0 2 
" id="m101b79f090" style="stroke:#000000;stroke-width:0.6;"/>
      </defs>
      <g>
       <use style="stroke:#000000;stroke-width:0.6;" x="97.755429" xlink:href="#m101b79f090" y="298.944"/>
      </g>
     </g>
    </g>
    <g id="xtick_6">
     <g id="line2d_11">
      <path clip-path="url(#p0c12f0882e)" d="M 178.066286 298.944 
L 178.066286 27.648 
" style="fill:none;stroke:#b0b0b0;stroke-linecap:square;stroke-width:0.8;"/>
     </g>
     <g id="line2d_12">
      <g>
       <use style="stroke:#000000;stroke-width:0.6;" x="178.066286" xlink:href="#m101b79f090" y="298.944"/>
      </g>
     </g>
    </g>
    <g id="xtick_7">
     <g id="line2d_13">
      <path clip-path="url(#p0c12f0882e)" d="M 258.377143 298.944 
L 258.377143 27.648 
" style="fill:none;stroke:#b0b0b0;stroke-linecap:square;stroke-width:0.8;"/>
     </g>
     <g id="line2d_14">
      <g>
       <use style="stroke:#000000;stroke-width:0.6;" x="258.377143" xlink:href="#m101b79f090" y="298.944"/>
      </g>
     </g>
    </g>
    <g id="xtick_8">
     <g id="line2d_15">
      <path clip-path="url(#p0c12f0882e)" d="M 338.688 298.944 
L 338.688 27.648 
" style="fill:none;stroke:#b0b0b0;stroke-linecap:square;stroke-width:0.8;"/>
     </g>
     <g id="line2d_16">
      <g>
       <use style="stroke:#000000;stroke-width:0.6;" x="338.688" xlink:href="#m101b79f090" y="298.944"/>
      </g>
     </g>
    </g>
    <g id="text_5">
     <!-- log10(# (f+g)-evals / dimension) -->
     <g transform="translate(58.145016 342.217594)scale(0.17 -0.17)">
      <defs>
       <path d="M 9.421875 75.984375 
L 18.40625 75.984375 
L 18.40625 0 
L 9.421875 0 
z
" id="DejaVuSans-108"/>
       <path d="M 30.609375 48.390625 
Q 23.390625 48.390625 19.1875 42.75 
Q 14.984375 37.109375 14.984375 27.296875 
Q 14.984375 17.484375 19.15625 11.84375 
Q 23.34375 6.203125 30.609375 6.203125 
Q 37.796875 6.203125 41.984375 11.859375 
Q 46.1875 17.53125 46.1875 27.296875 
Q 46.1875 37.015625 41.984375 42.703125 
Q 37.796875 48.390625 30.609375 48.390625 
z
M 30.609375 56 
Q 42.328125 56 49.015625 48.375 
Q 55.71875 40.765625 55.71875 27.296875 
Q 55.71875 13.875 49.015625 6.21875 
Q 42.328125 -1.421875 30.609375 -1.421875 
Q 18.84375 -1.421875 12.171875 6.21875 
Q 5.515625 13.875 5.515625 27.296875 
Q 5.515625 40.765625 12.171875 48.375 
Q 18.84375 56 30.609375 56 
z
" id="DejaVuSans-111"/>
       <path d="M 45.40625 27.984375 
Q 45.40625 37.75 41.375 43.109375 
Q 37.359375 48.484375 30.078125 48.484375 
Q 22.859375 48.484375 18.828125 43.109375 
Q 14.796875 37.75 14.796875 27.984375 
Q 14.796875 18.265625 18.828125 12.890625 
Q 22.859375 7.515625 30.078125 7.515625 
Q 37.359375 7.515625 41.375 12.890625 
Q 45.40625 18.265625 45.40625 27.984375 
z
M 54.390625 6.78125 
Q 54.390625 -7.171875 48.1875 -13.984375 
Q 42 -20.796875 29.203125 -20.796875 
Q 24.46875 -20.796875 20.265625 -20.09375 
Q 16.0625 -19.390625 12.109375 -17.921875 
L 12.109375 -9.1875 
Q 16.0625 -11.328125 19.921875 -12.34375 
Q 23.78125 -13.375 27.78125 -13.375 
Q 36.625 -13.375 41.015625 -8.765625 
Q 45.40625 -4.15625 45.40625 5.171875 
L 45.40625 9.625 
Q 42.625 4.78125 38.28125 2.390625 
Q 33.9375 0 27.875 0 
Q 17.828125 0 11.671875 7.65625 
Q 5.515625 15.328125 5.515625 27.984375 
Q 5.515625 40.671875 11.671875 48.328125 
Q 17.828125 56 27.875 56 
Q 33.9375 56 38.28125 53.609375 
Q 42.625 51.21875 45.40625 46.390625 
L 45.40625 54.6875 
L 54.390625 54.6875 
z
" id="DejaVuSans-103"/>
       <path d="M 12.40625 8.296875 
L 28.515625 8.296875 
L 28.515625 63.921875 
L 10.984375 60.40625 
L 10.984375 69.390625 
L 28.421875 72.90625 
L 38.28125 72.90625 
L 38.28125 8.296875 
L 54.390625 8.296875 
L 54.390625 0 
L 12.40625 0 
z
" id="DejaVuSans-49"/>
       <path d="M 31 75.875 
Q 24.46875 64.65625 21.28125 53.65625 
Q 18.109375 42.671875 18.109375 31.390625 
Q 18.109375 20.125 21.3125 9.0625 
Q 24.515625 -2 31 -13.1875 
L 23.1875 -13.1875 
Q 15.875 -1.703125 12.234375 9.375 
Q 8.59375 20.453125 8.59375 31.390625 
Q 8.59375 42.28125 12.203125 53.3125 
Q 15.828125 64.359375 23.1875 75.875 
z
" id="DejaVuSans-40"/>
       <path d="M 51.125 44 
L 36.921875 44 
L 32.8125 27.6875 
L 47.125 27.6875 
z
M 43.796875 71.78125 
L 38.71875 51.515625 
L 52.984375 51.515625 
L 58.109375 71.78125 
L 65.921875 71.78125 
L 60.890625 51.515625 
L 76.125 51.515625 
L 76.125 44 
L 58.984375 44 
L 54.984375 27.6875 
L 70.515625 27.6875 
L 70.515625 20.21875 
L 53.078125 20.21875 
L 48 0 
L 40.1875 0 
L 45.21875 20.21875 
L 30.90625 20.21875 
L 25.875 0 
L 18.015625 0 
L 23.09375 20.21875 
L 7.71875 20.21875 
L 7.71875 27.6875 
L 24.90625 27.6875 
L 29 44 
L 13.28125 44 
L 13.28125 51.515625 
L 30.90625 51.515625 
L 35.890625 71.78125 
z
" id="DejaVuSans-35"/>
       <path id="DejaVuSans-32"/>
       <path d="M 37.109375 75.984375 
L 37.109375 68.5 
L 28.515625 68.5 
Q 23.6875 68.5 21.796875 66.546875 
Q 19.921875 64.59375 19.921875 59.515625 
L 19.921875 54.6875 
L 34.71875 54.6875 
L 34.71875 47.703125 
L 19.921875 47.703125 
L 19.921875 0 
L 10.890625 0 
L 10.890625 47.703125 
L 2.296875 47.703125 
L 2.296875 54.6875 
L 10.890625 54.6875 
L 10.890625 58.5 
Q 10.890625 67.625 15.140625 71.796875 
Q 19.390625 75.984375 28.609375 75.984375 
z
" id="DejaVuSans-102"/>
       <path d="M 46 62.703125 
L 46 35.5 
L 73.1875 35.5 
L 73.1875 27.203125 
L 46 27.203125 
L 46 0 
L 37.796875 0 
L 37.796875 27.203125 
L 10.59375 27.203125 
L 10.59375 35.5 
L 37.796875 35.5 
L 37.796875 62.703125 
z
" id="DejaVuSans-43"/>
       <path d="M 8.015625 75.875 
L 15.828125 75.875 
Q 23.140625 64.359375 26.78125 53.3125 
Q 30.421875 42.28125 30.421875 31.390625 
Q 30.421875 20.453125 26.78125 9.375 
Q 23.140625 -1.703125 15.828125 -13.1875 
L 8.015625 -13.1875 
Q 14.5 -2 17.703125 9.0625 
Q 20.90625 20.125 20.90625 31.390625 
Q 20.90625 42.671875 17.703125 53.65625 
Q 14.5 64.65625 8.015625 75.875 
z
" id="DejaVuSans-41"/>
       <path d="M 4.890625 31.390625 
L 31.203125 31.390625 
L 31.203125 23.390625 
L 4.890625 23.390625 
z
" id="DejaVuSans-45"/>
       <path d="M 56.203125 29.59375 
L 56.203125 25.203125 
L 14.890625 25.203125 
Q 15.484375 15.921875 20.484375 11.0625 
Q 25.484375 6.203125 34.421875 6.203125 
Q 39.59375 6.203125 44.453125 7.46875 
Q 49.3125 8.734375 54.109375 11.28125 
L 54.109375 2.78125 
Q 49.265625 0.734375 44.1875 -0.34375 
Q 39.109375 -1.421875 33.890625 -1.421875 
Q 20.796875 -1.421875 13.15625 6.1875 
Q 5.515625 13.8125 5.515625 26.8125 
Q 5.515625 40.234375 12.765625 48.109375 
Q 20.015625 56 32.328125 56 
Q 43.359375 56 49.78125 48.890625 
Q 56.203125 41.796875 56.203125 29.59375 
z
M 47.21875 32.234375 
Q 47.125 39.59375 43.09375 43.984375 
Q 39.0625 48.390625 32.421875 48.390625 
Q 24.90625 48.390625 20.390625 44.140625 
Q 15.875 39.890625 15.1875 32.171875 
z
" id="DejaVuSans-101"/>
       <path d="M 2.984375 54.6875 
L 12.5 54.6875 
L 29.59375 8.796875 
L 46.6875 54.6875 
L 56.203125 54.6875 
L 35.6875 0 
L 23.484375 0 
z
" id="DejaVuSans-118"/>
       <path d="M 34.28125 27.484375 
Q 23.390625 27.484375 19.1875 25 
Q 14.984375 22.515625 14.984375 16.5 
Q 14.984375 11.71875 18.140625 8.90625 
Q 21.296875 6.109375 26.703125 6.109375 
Q 34.1875 6.109375 38.703125 11.40625 
Q 43.21875 16.703125 43.21875 25.484375 
L 43.21875 27.484375 
z
M 52.203125 31.203125 
L 52.203125 0 
L 43.21875 0 
L 43.21875 8.296875 
Q 40.140625 3.328125 35.546875 0.953125 
Q 30.953125 -1.421875 24.3125 -1.421875 
Q 15.921875 -1.421875 10.953125 3.296875 
Q 6 8.015625 6 15.921875 
Q 6 25.140625 12.171875 29.828125 
Q 18.359375 34.515625 30.609375 34.515625 
L 43.21875 34.515625 
L 43.21875 35.40625 
Q 43.21875 41.609375 39.140625 45 
Q 35.0625 48.390625 27.6875 48.390625 
Q 23 48.390625 18.546875 47.265625 
Q 14.109375 46.140625 10.015625 43.890625 
L 10.015625 52.203125 
Q 14.9375 54.109375 19.578125 55.046875 
Q 24.21875 56 28.609375 56 
Q 40.484375 56 46.34375 49.84375 
Q 52.203125 43.703125 52.203125 31.203125 
z
" id="DejaVuSans-97"/>
       <path d="M 44.28125 53.078125 
L 44.28125 44.578125 
Q 40.484375 46.53125 36.375 47.5 
Q 32.28125 48.484375 27.875 48.484375 
Q 21.1875 48.484375 17.84375 46.4375 
Q 14.5 44.390625 14.5 40.28125 
Q 14.5 37.15625 16.890625 35.375 
Q 19.28125 33.59375 26.515625 31.984375 
L 29.59375 31.296875 
Q 39.15625 29.25 43.1875 25.515625 
Q 47.21875 21.78125 47.21875 15.09375 
Q 47.21875 7.46875 41.1875 3.015625 
Q 35.15625 -1.421875 24.609375 -1.421875 
Q 20.21875 -1.421875 15.453125 -0.5625 
Q 10.6875 0.296875 5.421875 2 
L 5.421875 11.28125 
Q 10.40625 8.6875 15.234375 7.390625 
Q 20.0625 6.109375 24.8125 6.109375 
Q 31.15625 6.109375 34.5625 8.28125 
Q 37.984375 10.453125 37.984375 14.40625 
Q 37.984375 18.0625 35.515625 20.015625 
Q 33.0625 21.96875 24.703125 23.78125 
L 21.578125 24.515625 
Q 13.234375 26.265625 9.515625 29.90625 
Q 5.8125 33.546875 5.8125 39.890625 
Q 5.8125 47.609375 11.28125 51.796875 
Q 16.75 56 26.8125 56 
Q 31.78125 56 36.171875 55.265625 
Q 40.578125 54.546875 44.28125 53.078125 
z
" id="DejaVuSans-115"/>
       <path d="M 25.390625 72.90625 
L 33.6875 72.90625 
L 8.296875 -9.28125 
L 0 -9.28125 
z
" id="DejaVuSans-47"/>
       <path d="M 45.40625 46.390625 
L 45.40625 75.984375 
L 54.390625 75.984375 
L 54.390625 0 
L 45.40625 0 
L 45.40625 8.203125 
Q 42.578125 3.328125 38.25 0.953125 
Q 33.9375 -1.421875 27.875 -1.421875 
Q 17.96875 -1.421875 11.734375 6.484375 
Q 5.515625 14.40625 5.515625 27.296875 
Q 5.515625 40.1875 11.734375 48.09375 
Q 17.96875 56 27.875 56 
Q 33.9375 56 38.25 53.625 
Q 42.578125 51.265625 45.40625 46.390625 
z
M 14.796875 27.296875 
Q 14.796875 17.390625 18.875 11.75 
Q 22.953125 6.109375 30.078125 6.109375 
Q 37.203125 6.109375 41.296875 11.75 
Q 45.40625 17.390625 45.40625 27.296875 
Q 45.40625 37.203125 41.296875 42.84375 
Q 37.203125 48.484375 30.078125 48.484375 
Q 22.953125 48.484375 18.875 42.84375 
Q 14.796875 37.203125 14.796875 27.296875 
z
" id="DejaVuSans-100"/>
       <path d="M 9.421875 54.6875 
L 18.40625 54.6875 
L 18.40625 0 
L 9.421875 0 
z
M 9.421875 75.984375 
L 18.40625 75.984375 
L 18.40625 64.59375 
L 9.421875 64.59375 
z
" id="DejaVuSans-105"/>
       <path d="M 52 44.1875 
Q 55.375 50.25 60.0625 53.125 
Q 64.75 56 71.09375 56 
Q 79.640625 56 84.28125 50.015625 
Q 88.921875 44.046875 88.921875 33.015625 
L 88.921875 0 
L 79.890625 0 
L 79.890625 32.71875 
Q 79.890625 40.578125 77.09375 44.375 
Q 74.3125 48.1875 68.609375 48.1875 
Q 61.625 48.1875 57.5625 43.546875 
Q 53.515625 38.921875 53.515625 30.90625 
L 53.515625 0 
L 44.484375 0 
L 44.484375 32.71875 
Q 44.484375 40.625 41.703125 44.40625 
Q 38.921875 48.1875 33.109375 48.1875 
Q 26.21875 48.1875 22.15625 43.53125 
Q 18.109375 38.875 18.109375 30.90625 
L 18.109375 0 
L 9.078125 0 
L 9.078125 54.6875 
L 18.109375 54.6875 
L 18.109375 46.1875 
Q 21.1875 51.21875 25.484375 53.609375 
Q 29.78125 56 35.6875 56 
Q 41.65625 56 45.828125 52.96875 
Q 50 49.953125 52 44.1875 
z
" id="DejaVuSans-109"/>
       <path d="M 54.890625 33.015625 
L 54.890625 0 
L 45.90625 0 
L 45.90625 32.71875 
Q 45.90625 40.484375 42.875 44.328125 
Q 39.84375 48.1875 33.796875 48.1875 
Q 26.515625 48.1875 22.3125 43.546875 
Q 18.109375 38.921875 18.109375 30.90625 
L 18.109375 0 
L 9.078125 0 
L 9.078125 54.6875 
L 18.109375 54.6875 
L 18.109375 46.1875 
Q 21.34375 51.125 25.703125 53.5625 
Q 30.078125 56 35.796875 56 
Q 45.21875 56 50.046875 50.171875 
Q 54.890625 44.34375 54.890625 33.015625 
z
" id="DejaVuSans-110"/>
      </defs>
      <use xlink:href="#DejaVuSans-108"/>
      <use x="27.783203" xlink:href="#DejaVuSans-111"/>
      <use x="88.964844" xlink:href="#DejaVuSans-103"/>
      <use x="152.441406" xlink:href="#DejaVuSans-49"/>
      <use x="216.064453" xlink:href="#DejaVuSans-48"/>
      <use x="279.6875" xlink:href="#DejaVuSans-40"/>
      <use x="318.701172" xlink:href="#DejaVuSans-35"/>
      <use x="402.490234" xlink:href="#DejaVuSans-32"/>
      <use x="434.277344" xlink:href="#DejaVuSans-40"/>
      <use x="473.291016" xlink:href="#DejaVuSans-102"/>
      <use x="508.496094" xlink:href="#DejaVuSans-43"/>
      <use x="592.285156" xlink:href="#DejaVuSans-103"/>
      <use x="655.761719" xlink:href="#DejaVuSans-41"/>
      <use x="694.775391" xlink:href="#DejaVuSans-45"/>
      <use x="730.859375" xlink:href="#DejaVuSans-101"/>
      <use x="792.382812" xlink:href="#DejaVuSans-118"/>
      <use x="851.5625" xlink:href="#DejaVuSans-97"/>
      <use x="912.841797" xlink:href="#DejaVuSans-108"/>
      <use x="940.625" xlink:href="#DejaVuSans-115"/>
      <use x="992.724609" xlink:href="#DejaVuSans-32"/>
      <use x="1024.511719" xlink:href="#DejaVuSans-47"/>
      <use x="1058.203125" xlink:href="#DejaVuSans-32"/>
      <use x="1089.990234" xlink:href="#DejaVuSans-100"/>
      <use x="1153.466797" xlink:href="#DejaVuSans-105"/>
      <use x="1181.25" xlink:href="#DejaVuSans-109"/>
      <use x="1278.662109" xlink:href="#DejaVuSans-101"/>
      <use x="1340.185547" xlink:href="#DejaVuSans-110"/>
      <use x="1403.564453" xlink:href="#DejaVuSans-115"/>
      <use x="1455.664062" xlink:href="#DejaVuSans-105"/>
      <use x="1483.447266" xlink:href="#DejaVuSans-111"/>
      <use x="1544.628906" xlink:href="#DejaVuSans-110"/>
      <use x="1608.007812" xlink:href="#DejaVuSans-41"/>
     </g>
    </g>
   </g>
   <g id="matplotlib.axis_2">
    <g id="ytick_1">
     <g id="line2d_17">
      <path clip-path="url(#p0c12f0882e)" d="M 57.6 298.944 
L 338.688 298.944 
" style="fill:none;stroke:#b0b0b0;stroke-linecap:square;stroke-width:0.8;"/>
     </g>
     <g id="line2d_18">
      <defs>
       <path d="M 0 0 
L -3.5 0 
" id="mbccf1fdb9e" style="stroke:#000000;stroke-width:0.8;"/>
      </defs>
      <g>
       <use style="stroke:#000000;stroke-width:0.8;" x="57.6" xlink:href="#mbccf1fdb9e" y="298.944"/>
      </g>
     </g>
     <g id="text_6">
      <!-- 0.0 -->
      <g transform="translate(25.155 305.02275)scale(0.16 -0.16)">
       <defs>
        <path d="M 10.6875 12.40625 
L 21 12.40625 
L 21 0 
L 10.6875 0 
z
" id="DejaVuSans-46"/>
       </defs>
       <use xlink:href="#DejaVuSans-48"/>
       <use x="63.623047" xlink:href="#DejaVuSans-46"/>
       <use x="95.410156" xlink:href="#DejaVuSans-48"/>
      </g>
     </g>
    </g>
    <g id="ytick_2">
     <g id="line2d_19">
      <path clip-path="url(#p0c12f0882e)" d="M 57.6 245.22202 
L 338.688 245.22202 
" style="fill:none;stroke:#b0b0b0;stroke-linecap:square;stroke-width:0.8;"/>
     </g>
     <g id="line2d_20">
      <g>
       <use style="stroke:#000000;stroke-width:0.8;" x="57.6" xlink:href="#mbccf1fdb9e" y="245.22202"/>
      </g>
     </g>
     <g id="text_7">
      <!-- 0.2 -->
      <g transform="translate(25.155 251.30077)scale(0.16 -0.16)">
       <use xlink:href="#DejaVuSans-48"/>
       <use x="63.623047" xlink:href="#DejaVuSans-46"/>
       <use x="95.410156" xlink:href="#DejaVuSans-50"/>
      </g>
     </g>
    </g>
    <g id="ytick_3">
     <g id="line2d_21">
      <path clip-path="url(#p0c12f0882e)" d="M 57.6 191.50004 
L 338.688 191.50004 
" style="fill:none;stroke:#b0b0b0;stroke-linecap:square;stroke-width:0.8;"/>
     </g>
     <g id="line2d_22">
      <g>
       <use style="stroke:#000000;stroke-width:0.8;" x="57.6" xlink:href="#mbccf1fdb9e" y="191.50004"/>
      </g>
     </g>
     <g id="text_8">
      <!-- 0.4 -->
      <g transform="translate(25.155 197.57879)scale(0.16 -0.16)">
       <use xlink:href="#DejaVuSans-48"/>
       <use x="63.623047" xlink:href="#DejaVuSans-46"/>
       <use x="95.410156" xlink:href="#DejaVuSans-52"/>
      </g>
     </g>
    </g>
    <g id="ytick_4">
     <g id="line2d_23">
      <path clip-path="url(#p0c12f0882e)" d="M 57.6 137.778059 
L 338.688 137.778059 
" style="fill:none;stroke:#b0b0b0;stroke-linecap:square;stroke-width:0.8;"/>
     </g>
     <g id="line2d_24">
      <g>
       <use style="stroke:#000000;stroke-width:0.8;" x="57.6" xlink:href="#mbccf1fdb9e" y="137.778059"/>
      </g>
     </g>
     <g id="text_9">
      <!-- 0.6 -->
      <g transform="translate(25.155 143.856809)scale(0.16 -0.16)">
       <use xlink:href="#DejaVuSans-48"/>
       <use x="63.623047" xlink:href="#DejaVuSans-46"/>
       <use x="95.410156" xlink:href="#DejaVuSans-54"/>
      </g>
     </g>
    </g>
    <g id="ytick_5">
     <g id="line2d_25">
      <path clip-path="url(#p0c12f0882e)" d="M 57.6 84.056079 
L 338.688 84.056079 
" style="fill:none;stroke:#b0b0b0;stroke-linecap:square;stroke-width:0.8;"/>
     </g>
     <g id="line2d_26">
      <g>
       <use style="stroke:#000000;stroke-width:0.8;" x="57.6" xlink:href="#mbccf1fdb9e" y="84.056079"/>
      </g>
     </g>
     <g id="text_10">
      <!-- 0.8 -->
      <g transform="translate(25.155 90.134829)scale(0.16 -0.16)">
       <defs>
        <path d="M 31.78125 34.625 
Q 24.75 34.625 20.71875 30.859375 
Q 16.703125 27.09375 16.703125 20.515625 
Q 16.703125 13.921875 20.71875 10.15625 
Q 24.75 6.390625 31.78125 6.390625 
Q 38.8125 6.390625 42.859375 10.171875 
Q 46.921875 13.96875 46.921875 20.515625 
Q 46.921875 27.09375 42.890625 30.859375 
Q 38.875 34.625 31.78125 34.625 
z
M 21.921875 38.8125 
Q 15.578125 40.375 12.03125 44.71875 
Q 8.5 49.078125 8.5 55.328125 
Q 8.5 64.0625 14.71875 69.140625 
Q 20.953125 74.21875 31.78125 74.21875 
Q 42.671875 74.21875 48.875 69.140625 
Q 55.078125 64.0625 55.078125 55.328125 
Q 55.078125 49.078125 51.53125 44.71875 
Q 48 40.375 41.703125 38.8125 
Q 48.828125 37.15625 52.796875 32.3125 
Q 56.78125 27.484375 56.78125 20.515625 
Q 56.78125 9.90625 50.3125 4.234375 
Q 43.84375 -1.421875 31.78125 -1.421875 
Q 19.734375 -1.421875 13.25 4.234375 
Q 6.78125 9.90625 6.78125 20.515625 
Q 6.78125 27.484375 10.78125 32.3125 
Q 14.796875 37.15625 21.921875 38.8125 
z
M 18.3125 54.390625 
Q 18.3125 48.734375 21.84375 45.5625 
Q 25.390625 42.390625 31.78125 42.390625 
Q 38.140625 42.390625 41.71875 45.5625 
Q 45.3125 48.734375 45.3125 54.390625 
Q 45.3125 60.0625 41.71875 63.234375 
Q 38.140625 66.40625 31.78125 66.40625 
Q 25.390625 66.40625 21.84375 63.234375 
Q 18.3125 60.0625 18.3125 54.390625 
z
" id="DejaVuSans-56"/>
       </defs>
       <use xlink:href="#DejaVuSans-48"/>
       <use x="63.623047" xlink:href="#DejaVuSans-46"/>
       <use x="95.410156" xlink:href="#DejaVuSans-56"/>
      </g>
     </g>
    </g>
    <g id="ytick_6">
     <g id="line2d_27">
      <path clip-path="url(#p0c12f0882e)" d="M 57.6 30.334099 
L 338.688 30.334099 
" style="fill:none;stroke:#b0b0b0;stroke-linecap:square;stroke-width:0.8;"/>
     </g>
     <g id="line2d_28">
      <g>
       <use style="stroke:#000000;stroke-width:0.8;" x="57.6" xlink:href="#mbccf1fdb9e" y="30.334099"/>
      </g>
     </g>
     <g id="text_11">
      <!-- 1.0 -->
      <g transform="translate(25.155 36.412849)scale(0.16 -0.16)">
       <use xlink:href="#DejaVuSans-49"/>
       <use x="63.623047" xlink:href="#DejaVuSans-46"/>
       <use x="95.410156" xlink:href="#DejaVuSans-48"/>
      </g>
     </g>
    </g>
    <g id="text_12">
     <!-- Fraction of function,target pairs -->
     <g transform="translate(17.619531 297.681)rotate(-90)scale(0.17 -0.17)">
      <defs>
       <path d="M 9.8125 72.90625 
L 51.703125 72.90625 
L 51.703125 64.59375 
L 19.671875 64.59375 
L 19.671875 43.109375 
L 48.578125 43.109375 
L 48.578125 34.8125 
L 19.671875 34.8125 
L 19.671875 0 
L 9.8125 0 
z
" id="DejaVuSans-70"/>
       <path d="M 41.109375 46.296875 
Q 39.59375 47.171875 37.8125 47.578125 
Q 36.03125 48 33.890625 48 
Q 26.265625 48 22.1875 43.046875 
Q 18.109375 38.09375 18.109375 28.8125 
L 18.109375 0 
L 9.078125 0 
L 9.078125 54.6875 
L 18.109375 54.6875 
L 18.109375 46.1875 
Q 20.953125 51.171875 25.484375 53.578125 
Q 30.03125 56 36.53125 56 
Q 37.453125 56 38.578125 55.875 
Q 39.703125 55.765625 41.0625 55.515625 
z
" id="DejaVuSans-114"/>
       <path d="M 48.78125 52.59375 
L 48.78125 44.1875 
Q 44.96875 46.296875 41.140625 47.34375 
Q 37.3125 48.390625 33.40625 48.390625 
Q 24.65625 48.390625 19.8125 42.84375 
Q 14.984375 37.3125 14.984375 27.296875 
Q 14.984375 17.28125 19.8125 11.734375 
Q 24.65625 6.203125 33.40625 6.203125 
Q 37.3125 6.203125 41.140625 7.25 
Q 44.96875 8.296875 48.78125 10.40625 
L 48.78125 2.09375 
Q 45.015625 0.34375 40.984375 -0.53125 
Q 36.96875 -1.421875 32.421875 -1.421875 
Q 20.0625 -1.421875 12.78125 6.34375 
Q 5.515625 14.109375 5.515625 27.296875 
Q 5.515625 40.671875 12.859375 48.328125 
Q 20.21875 56 33.015625 56 
Q 37.15625 56 41.109375 55.140625 
Q 45.0625 54.296875 48.78125 52.59375 
z
" id="DejaVuSans-99"/>
       <path d="M 18.3125 70.21875 
L 18.3125 54.6875 
L 36.8125 54.6875 
L 36.8125 47.703125 
L 18.3125 47.703125 
L 18.3125 18.015625 
Q 18.3125 11.328125 20.140625 9.421875 
Q 21.96875 7.515625 27.59375 7.515625 
L 36.8125 7.515625 
L 36.8125 0 
L 27.59375 0 
Q 17.1875 0 13.234375 3.875 
Q 9.28125 7.765625 9.28125 18.015625 
L 9.28125 47.703125 
L 2.6875 47.703125 
L 2.6875 54.6875 
L 9.28125 54.6875 
L 9.28125 70.21875 
z
" id="DejaVuSans-116"/>
       <path d="M 8.5 21.578125 
L 8.5 54.6875 
L 17.484375 54.6875 
L 17.484375 21.921875 
Q 17.484375 14.15625 20.5 10.265625 
Q 23.53125 6.390625 29.59375 6.390625 
Q 36.859375 6.390625 41.078125 11.03125 
Q 45.3125 15.671875 45.3125 23.6875 
L 45.3125 54.6875 
L 54.296875 54.6875 
L 54.296875 0 
L 45.3125 0 
L 45.3125 8.40625 
Q 42.046875 3.421875 37.71875 1 
Q 33.40625 -1.421875 27.6875 -1.421875 
Q 18.265625 -1.421875 13.375 4.4375 
Q 8.5 10.296875 8.5 21.578125 
z
M 31.109375 56 
z
" id="DejaVuSans-117"/>
       <path d="M 11.71875 12.40625 
L 22.015625 12.40625 
L 22.015625 4 
L 14.015625 -11.625 
L 7.71875 -11.625 
L 11.71875 4 
z
" id="DejaVuSans-44"/>
       <path d="M 18.109375 8.203125 
L 18.109375 -20.796875 
L 9.078125 -20.796875 
L 9.078125 54.6875 
L 18.109375 54.6875 
L 18.109375 46.390625 
Q 20.953125 51.265625 25.265625 53.625 
Q 29.59375 56 35.59375 56 
Q 45.5625 56 51.78125 48.09375 
Q 58.015625 40.1875 58.015625 27.296875 
Q 58.015625 14.40625 51.78125 6.484375 
Q 45.5625 -1.421875 35.59375 -1.421875 
Q 29.59375 -1.421875 25.265625 0.953125 
Q 20.953125 3.328125 18.109375 8.203125 
z
M 48.6875 27.296875 
Q 48.6875 37.203125 44.609375 42.84375 
Q 40.53125 48.484375 33.40625 48.484375 
Q 26.265625 48.484375 22.1875 42.84375 
Q 18.109375 37.203125 18.109375 27.296875 
Q 18.109375 17.390625 22.1875 11.75 
Q 26.265625 6.109375 33.40625 6.109375 
Q 40.53125 6.109375 44.609375 11.75 
Q 48.6875 17.390625 48.6875 27.296875 
z
" id="DejaVuSans-112"/>
      </defs>
      <use xlink:href="#DejaVuSans-70"/>
      <use x="50.269531" xlink:href="#DejaVuSans-114"/>
      <use x="91.382812" xlink:href="#DejaVuSans-97"/>
      <use x="152.662109" xlink:href="#DejaVuSans-99"/>
      <use x="207.642578" xlink:href="#DejaVuSans-116"/>
      <use x="246.851562" xlink:href="#DejaVuSans-105"/>
      <use x="274.634766" xlink:href="#DejaVuSans-111"/>
      <use x="335.816406" xlink:href="#DejaVuSans-110"/>
      <use x="399.195312" xlink:href="#DejaVuSans-32"/>
      <use x="430.982422" xlink:href="#DejaVuSans-111"/>
      <use x="492.164062" xlink:href="#DejaVuSans-102"/>
      <use x="527.369141" xlink:href="#DejaVuSans-32"/>
      <use x="559.15625" xlink:href="#DejaVuSans-102"/>
      <use x="594.361328" xlink:href="#DejaVuSans-117"/>
      <use x="657.740234" xlink:href="#DejaVuSans-110"/>
      <use x="721.119141" xlink:href="#DejaVuSans-99"/>
      <use x="776.099609" xlink:href="#DejaVuSans-116"/>
      <use x="815.308594" xlink:href="#DejaVuSans-105"/>
      <use x="843.091797" xlink:href="#DejaVuSans-111"/>
      <use x="904.273438" xlink:href="#DejaVuSans-110"/>
      <use x="967.652344" xlink:href="#DejaVuSans-44"/>
      <use x="999.439453" xlink:href="#DejaVuSans-116"/>
      <use x="1038.648438" xlink:href="#DejaVuSans-97"/>
      <use x="1099.927734" xlink:href="#DejaVuSans-114"/>
      <use x="1139.291016" xlink:href="#DejaVuSans-103"/>
      <use x="1202.767578" xlink:href="#DejaVuSans-101"/>
      <use x="1264.291016" xlink:href="#DejaVuSans-116"/>
      <use x="1303.5" xlink:href="#DejaVuSans-32"/>
      <use x="1335.287109" xlink:href="#DejaVuSans-112"/>
      <use x="1398.763672" xlink:href="#DejaVuSans-97"/>
      <use x="1460.042969" xlink:href="#DejaVuSans-105"/>
      <use x="1487.826172" xlink:href="#DejaVuSans-114"/>
      <use x="1528.939453" xlink:href="#DejaVuSans-115"/>
     </g>
    </g>
   </g>
   <g id="line2d_29">
    <defs>
     <path d="M 0 1.5 
C 0.397805 1.5 0.77937 1.341951 1.06066 1.06066 
C 1.341951 0.77937 1.5 0.397805 1.5 0 
C 1.5 -0.397805 1.341951 -0.77937 1.06066 -1.06066 
C 0.77937 -1.341951 0.397805 -1.5 0 -1.5 
C -0.397805 -1.5 -0.77937 -1.341951 -1.06066 -1.06066 
C -1.341951 -0.77937 -1.5 -0.397805 -1.5 0 
C -1.5 0.397805 -1.341951 0.77937 -1.06066 1.06066 
C -0.77937 1.341951 -0.397805 1.5 0 1.5 
z
" id="m1f2cdea092" style="stroke:#000080;"/>
    </defs>
    <g>
     <use style="fill:#000080;stroke:#000080;" x="246.153298" xlink:href="#m1f2cdea092" y="30.334099"/>
     <use style="fill:#000080;stroke:#000080;" x="246.153298" xlink:href="#m1f2cdea092" y="30.334099"/>
    </g>
   </g>
   <g id="line2d_30">
    <path d="M 104.434538 298.944 
L 104.434538 298.288854 
L 107.347841 298.288854 
L 107.347841 297.633708 
L 108.006005 297.633708 
L 108.006005 296.978562 
L 114.860386 296.978562 
L 114.860386 296.323416 
L 118.039942 296.323416 
L 118.039942 295.013123 
L 120.41399 295.013123 
L 120.41399 293.702831 
L 121.036887 293.702831 
L 121.036887 292.392539 
L 121.638301 292.392539 
L 121.638301 291.737393 
L 121.931406 291.737393 
L 121.931406 291.082247 
L 122.782271 291.082247 
L 122.782271 290.427101 
L 125.110962 290.427101 
L 125.110962 289.771955 
L 125.351508 289.771955 
L 125.351508 289.116809 
L 126.729009 289.116809 
L 126.729009 288.461662 
L 129.002426 288.461662 
L 129.002426 287.806516 
L 131.185181 287.806516 
L 131.185181 287.15137 
L 132.816208 287.15137 
L 132.816208 286.496224 
L 133.57787 286.496224 
L 133.57787 285.841078 
L 133.873458 285.841078 
L 133.873458 285.185932 
L 135.00812 285.185932 
L 135.00812 284.530786 
L 135.144899 284.530786 
L 135.144899 283.220494 
L 135.943785 283.220494 
L 135.943785 282.565348 
L 138.141844 282.565348 
L 138.141844 281.910201 
L 138.816998 281.910201 
L 138.816998 280.599909 
L 139.783113 280.599909 
L 139.783113 279.944763 
L 139.990725 279.944763 
L 139.990725 279.289617 
L 140.195896 279.289617 
L 140.195896 278.634471 
L 143.101352 278.634471 
L 143.101352 277.979325 
L 143.611807 277.979325 
L 143.611807 277.324179 
L 143.778691 277.324179 
L 143.778691 276.669033 
L 145.665858 276.669033 
L 145.665858 276.013887 
L 146.819289 276.013887 
L 146.819289 275.35874 
L 147.368603 275.35874 
L 147.368603 274.703594 
L 148.290138 274.703594 
L 148.290138 274.048448 
L 149.764758 274.048448 
L 149.764758 273.393302 
L 150.344189 273.393302 
L 150.344189 272.738156 
L 151.015013 272.738156 
L 151.124351 271.427864 
L 153.750233 271.427864 
L 153.750233 270.772718 
L 153.890309 270.772718 
L 153.890309 270.117572 
L 157.339055 270.117572 
L 157.339055 269.462426 
L 157.976006 269.462426 
L 157.976006 268.807279 
L 158.907277 268.807279 
L 158.907277 268.152133 
L 159.658204 268.152133 
L 159.658204 267.496987 
L 162.346481 267.496987 
L 162.375093 266.186695 
L 164.75018 266.186695 
L 164.75018 265.531549 
L 164.923954 265.531549 
L 164.948638 264.221257 
L 166.414589 264.221257 
L 166.414589 263.566111 
L 166.818087 263.566111 
L 166.928532 262.255818 
L 167.555679 262.255818 
L 167.555679 261.600672 
L 167.682664 261.600672 
L 167.682664 260.945526 
L 167.933895 260.945526 
L 167.933895 260.29038 
L 169.215888 260.29038 
L 169.292968 256.359504 
L 169.635673 256.359504 
L 169.635673 255.704357 
L 170.045589 255.704357 
L 170.045589 255.049211 
L 170.301516 255.049211 
L 170.301516 254.394065 
L 170.482048 254.394065 
L 170.482048 253.738919 
L 170.977818 253.738919 
L 170.977818 253.083773 
L 171.978498 253.083773 
L 171.978498 252.428627 
L 172.158878 252.428627 
L 172.158878 251.118335 
L 173.643636 251.118335 
L 173.643636 250.463189 
L 174.984116 250.463189 
L 174.984116 249.808043 
L 175.149812 249.808043 
L 175.218389 247.842604 
L 176.370396 247.842604 
L 176.370396 247.187458 
L 176.763161 247.187458 
L 176.8631 245.22202 
L 177.08589 245.22202 
L 177.08589 244.566874 
L 177.208443 244.566874 
L 177.30587 242.601435 
L 178.182162 242.601435 
L 178.182162 241.291143 
L 178.320204 241.291143 
L 178.320204 240.635997 
L 178.626862 240.635997 
L 178.626862 239.980851 
L 179.8338 239.980851 
L 179.8338 239.325705 
L 180.249041 239.325705 
L 180.249041 238.670559 
L 180.422568 238.670559 
L 180.422568 238.015413 
L 180.734621 238.015413 
L 180.734621 237.360267 
L 181.168162 237.360267 
L 181.168162 236.705121 
L 181.515032 236.705121 
L 181.515032 236.049974 
L 181.714232 236.049974 
L 181.714232 235.394828 
L 181.89252 235.394828 
L 181.89252 234.739682 
L 182.271148 234.739682 
L 182.271148 234.084536 
L 182.53408 234.084536 
L 182.53408 233.42939 
L 183.161555 233.42939 
L 183.161555 232.774244 
L 183.299894 232.774244 
L 183.308504 231.463952 
L 183.445687 231.463952 
L 183.445687 230.808806 
L 183.909189 230.808806 
L 183.909189 230.15366 
L 184.02523 230.15366 
L 184.02523 229.498513 
L 184.384984 229.498513 
L 184.384984 228.843367 
L 184.554103 228.843367 
L 184.554103 228.188221 
L 185.214642 228.188221 
L 185.214642 227.533075 
L 185.701634 227.533075 
L 185.701634 226.877929 
L 186.131524 226.877929 
L 186.131524 226.222783 
L 186.622397 226.222783 
L 186.622397 225.567637 
L 186.792399 225.567637 
L 186.792399 224.912491 
L 186.974717 224.912491 
L 187.023479 223.602199 
L 187.210293 223.602199 
L 187.251537 222.291906 
L 187.510507 222.291906 
L 187.604956 220.981614 
L 188.161154 220.981614 
L 188.245669 219.671322 
L 188.368458 219.671322 
L 188.368458 219.016176 
L 188.503175 219.016176 
L 188.503175 218.36103 
L 188.719104 218.36103 
L 188.719104 217.705884 
L 189.087576 217.705884 
L 189.173878 216.395591 
L 189.290324 216.395591 
L 189.399929 213.775007 
L 189.545006 213.775007 
L 189.617094 212.464715 
L 189.831587 212.464715 
L 189.831587 211.809569 
L 189.984874 211.809569 
L 189.984874 211.154423 
L 190.442533 211.154423 
L 190.442533 210.499277 
L 190.933019 210.499277 
L 190.933019 209.84413 
L 191.065933 209.84413 
L 191.132011 207.223546 
L 191.268877 207.223546 
L 191.339624 205.913254 
L 191.795264 205.913254 
L 191.795264 205.258108 
L 192.08387 205.258108 
L 192.08387 204.602962 
L 192.434213 204.602962 
L 192.52071 203.292669 
L 193.119371 203.292669 
L 193.202544 201.982377 
L 193.32414 201.982377 
L 193.411167 200.672085 
L 193.792786 200.672085 
L 193.792786 200.016939 
L 194.147749 200.016939 
L 194.253763 198.706647 
L 194.391081 198.706647 
L 194.468417 196.741208 
L 194.586037 196.741208 
L 194.590545 195.430916 
L 195.123219 195.430916 
L 195.123219 194.77577 
L 195.284231 194.77577 
L 195.284231 194.120624 
L 195.499481 194.120624 
L 195.499481 193.465478 
L 195.821654 193.465478 
L 195.876172 192.155186 
L 195.943037 192.155186 
L 195.943037 191.50004 
L 196.109087 191.50004 
L 196.109087 190.844894 
L 196.310367 190.844894 
L 196.387794 189.534601 
L 196.46083 189.534601 
L 196.545653 188.224309 
L 196.82942 188.224309 
L 196.82942 187.569163 
L 197.494484 187.569163 
L 197.494484 186.914017 
L 197.688023 186.914017 
L 197.767096 184.948579 
L 197.808373 184.948579 
L 197.808373 184.293433 
L 197.976221 184.293433 
L 197.976221 183.638286 
L 198.094604 183.638286 
L 198.109346 182.327994 
L 198.430547 182.327994 
L 198.499128 181.017702 
L 198.549489 181.017702 
L 198.560261 179.70741 
L 198.689018 179.70741 
L 198.770784 177.741972 
L 199.031287 177.741972 
L 199.031287 176.431679 
L 199.305162 176.431679 
L 199.305162 175.776533 
L 199.421722 175.776533 
L 199.421722 175.121387 
L 199.55447 175.121387 
L 199.632286 173.811095 
L 199.733267 173.811095 
L 199.830329 172.500803 
L 200.200197 172.500803 
L 200.200197 171.845657 
L 200.401621 171.845657 
L 200.401621 171.190511 
L 200.57518 171.190511 
L 200.57518 170.535364 
L 200.705812 170.535364 
L 200.762855 169.225072 
L 200.822865 169.225072 
L 200.904651 167.91478 
L 200.986055 167.91478 
L 201.088832 166.604488 
L 201.153921 166.604488 
L 201.19718 165.294196 
L 201.295655 165.294196 
L 201.295655 164.63905 
L 201.43929 164.63905 
L 201.530356 163.328757 
L 201.623962 163.328757 
L 201.687088 161.363319 
L 201.863229 161.363319 
L 201.863229 160.708173 
L 202.069928 160.708173 
L 202.149004 158.742735 
L 202.599001 158.742735 
L 202.604695 157.432442 
L 202.715367 157.432442 
L 202.816906 155.467004 
L 202.861846 155.467004 
L 202.861846 154.811858 
L 203.170464 154.811858 
L 203.255688 152.191274 
L 203.294041 152.191274 
L 203.294041 151.536128 
L 203.424897 151.536128 
L 203.424897 150.880981 
L 203.771785 150.880981 
L 203.830261 149.570689 
L 203.928168 149.570689 
L 203.980863 148.260397 
L 204.187464 148.260397 
L 204.262695 146.950105 
L 204.329869 146.950105 
L 204.329869 146.294959 
L 204.568047 146.294959 
L 204.568047 144.984667 
L 204.843125 144.984667 
L 204.900618 143.674374 
L 204.985263 143.674374 
L 205.047241 142.364082 
L 205.197548 142.364082 
L 205.197548 141.708936 
L 205.436346 141.708936 
L 205.494332 140.398644 
L 205.57375 140.398644 
L 205.650416 139.088352 
L 205.769538 139.088352 
L 205.769538 138.433206 
L 205.956106 138.433206 
L 206.061494 135.812621 
L 206.156963 135.812621 
L 206.156963 135.157475 
L 206.32566 135.157475 
L 206.428845 133.192037 
L 206.488186 133.192037 
L 206.515506 131.881745 
L 206.716804 131.881745 
L 206.716804 131.226598 
L 206.935804 131.226598 
L 206.935804 130.571452 
L 207.136727 130.571452 
L 207.136727 129.916306 
L 207.315817 129.916306 
L 207.315817 129.26116 
L 207.566063 129.26116 
L 207.615257 127.950868 
L 207.7493 127.950868 
L 207.759894 125.98543 
L 207.8718 125.98543 
L 207.941116 124.675137 
L 208.217721 124.675137 
L 208.316481 123.364845 
L 208.36156 123.364845 
L 208.412644 122.054553 
L 208.522479 122.054553 
L 208.522479 121.399407 
L 208.714044 121.399407 
L 208.714044 120.744261 
L 209.061511 120.744261 
L 209.081159 119.433969 
L 209.202483 119.433969 
L 209.297774 116.813384 
L 209.475294 116.813384 
L 209.511732 115.503092 
L 209.649125 115.503092 
L 209.696579 114.1928 
L 210.004715 114.1928 
L 210.040064 112.882508 
L 210.217583 112.882508 
L 210.323966 110.917069 
L 210.858773 110.917069 
L 210.858773 110.261923 
L 210.9719 110.261923 
L 210.9719 109.606777 
L 211.084299 109.606777 
L 211.145462 108.296485 
L 211.223786 108.296485 
L 211.223786 107.641339 
L 211.593221 107.641339 
L 211.593221 106.986193 
L 211.716899 106.986193 
L 211.821255 105.675901 
L 211.866507 105.675901 
L 211.866507 105.020754 
L 211.979955 105.020754 
L 211.979955 104.365608 
L 212.132278 104.365608 
L 212.234186 102.40017 
L 212.276745 102.40017 
L 212.355043 101.089878 
L 212.475068 101.089878 
L 212.505753 99.779586 
L 212.58785 99.779586 
L 212.661569 98.469293 
L 212.722233 98.469293 
L 212.819176 97.159001 
L 212.951794 97.159001 
L 213.044344 95.848709 
L 213.356003 95.848709 
L 213.382109 94.538417 
L 213.545529 94.538417 
L 213.585009 92.572979 
L 213.821523 92.572979 
L 213.879781 91.262686 
L 213.973481 91.262686 
L 213.973481 90.60754 
L 214.401317 90.60754 
L 214.498021 88.642102 
L 214.628514 88.642102 
L 214.729652 86.676664 
L 214.934399 86.676664 
L 214.934399 86.021518 
L 215.068645 86.021518 
L 215.117333 84.056079 
L 215.22397 84.056079 
L 215.22397 83.400933 
L 215.424392 83.400933 
L 215.424392 82.745787 
L 215.71943 82.745787 
L 215.825127 80.125203 
L 215.934164 80.125203 
L 215.934164 79.470057 
L 216.057009 79.470057 
L 216.137117 78.159764 
L 216.232503 78.159764 
L 216.232503 77.504618 
L 216.393343 77.504618 
L 216.47835 76.194326 
L 216.593605 76.194326 
L 216.656036 74.228888 
L 216.926105 74.228888 
L 217.006067 72.263449 
L 217.112943 72.263449 
L 217.140178 70.953157 
L 217.534012 70.953157 
L 217.632901 69.642865 
L 217.984091 69.642865 
L 218.024116 68.332573 
L 218.141309 68.332573 
L 218.198446 66.367135 
L 218.297121 66.367135 
L 218.366439 65.056842 
L 218.540822 65.056842 
L 218.551093 63.74655 
L 218.757504 63.74655 
L 218.757504 63.091404 
L 219.137786 63.091404 
L 219.182955 61.781112 
L 219.359205 61.781112 
L 219.426605 60.47082 
L 219.533691 60.47082 
L 219.590751 59.160527 
L 219.726724 59.160527 
L 219.726724 58.505381 
L 219.974515 58.505381 
L 219.974515 57.850235 
L 220.266462 57.850235 
L 220.371612 56.539943 
L 220.693401 56.539943 
L 220.693401 55.884797 
L 220.822075 55.884797 
L 220.822075 55.229651 
L 220.964715 55.229651 
L 220.964715 54.574505 
L 221.702867 54.574505 
L 221.702867 53.919359 
L 221.951524 53.919359 
L 221.951524 53.264213 
L 222.830217 53.264213 
L 222.830217 52.609066 
L 222.954739 52.609066 
L 223.010486 51.298774 
L 223.319587 51.298774 
L 223.319587 50.643628 
L 223.548942 50.643628 
L 223.613921 49.333336 
L 223.762631 49.333336 
L 223.762631 48.67819 
L 224.238391 48.67819 
L 224.238391 48.023044 
L 224.379441 48.023044 
L 224.379441 47.367898 
L 224.700714 47.367898 
L 224.700714 46.712752 
L 224.826151 46.712752 
L 224.848427 45.402459 
L 225.045287 45.402459 
L 225.045287 44.747313 
L 225.20493 44.747313 
L 225.20493 44.092167 
L 225.734317 44.092167 
L 225.734317 43.437021 
L 226.150242 43.437021 
L 226.150242 42.781875 
L 226.735064 42.781875 
L 226.735064 42.126729 
L 227.253874 42.126729 
L 227.307816 40.816437 
L 227.41383 40.816437 
L 227.41383 40.161291 
L 228.929988 40.161291 
L 228.98903 38.195852 
L 229.298533 38.195852 
L 229.298533 37.540706 
L 229.518899 37.540706 
L 229.518899 36.88556 
L 230.902336 36.88556 
L 230.902336 36.230414 
L 232.684257 36.230414 
L 232.684257 35.575268 
L 232.843332 35.575268 
L 232.843332 34.920122 
L 234.248073 34.920122 
L 234.248073 34.264976 
L 235.260276 34.264976 
L 235.260276 33.60983 
L 237.160377 33.60983 
L 237.160377 32.954683 
L 239.403743 32.954683 
L 239.403743 32.299537 
L 239.999103 32.299537 
L 239.999103 31.644391 
L 242.519341 31.644391 
L 242.519341 30.989245 
L 246.153298 30.989245 
L 246.153298 30.334099 
L 338.688 30.334099 
L 338.688 30.334099 
" style="fill:none;stroke:#000080;stroke-linecap:square;stroke-width:1.5;"/>
   </g>
   <g id="line2d_31">
    <defs>
     <path d="M 0 6 
C 1.591219 6 3.117479 5.367802 4.242641 4.242641 
C 5.367802 3.117479 6 1.591219 6 0 
C 6 -1.591219 5.367802 -3.117479 4.242641 -4.242641 
C 3.117479 -5.367802 1.591219 -6 0 -6 
C -1.591219 -6 -3.117479 -5.367802 -4.242641 -4.242641 
C -5.367802 -3.117479 -6 -1.591219 -6 0 
C -6 1.591219 -5.367802 3.117479 -4.242641 4.242641 
C -3.117479 5.367802 -1.591219 6 0 6 
z
" id="m516bbef93d" style="stroke:#000080;stroke-width:1.5;"/>
    </defs>
    <g>
     <use style="fill-opacity:0;stroke:#000080;stroke-width:1.5;" x="201.43929" xlink:href="#m516bbef93d" y="163.983903"/>
     <use style="fill-opacity:0;stroke:#000080;stroke-width:1.5;" x="218.198446" xlink:href="#m516bbef93d" y="66.367135"/>
     <use style="fill-opacity:0;stroke:#000080;stroke-width:1.5;" x="246.153298" xlink:href="#m516bbef93d" y="30.334099"/>
     <use style="fill-opacity:0;stroke:#000080;stroke-width:1.5;" x="246.153298" xlink:href="#m516bbef93d" y="30.334099"/>
     <use style="fill-opacity:0;stroke:#000080;stroke-width:1.5;" x="338.688" xlink:href="#m516bbef93d" y="30.334099"/>
    </g>
   </g>
   <g id="line2d_32">
    <path style="fill:none;stroke:#000080;stroke-linecap:square;stroke-width:1.5;"/>
    <g/>
   </g>
   <g id="line2d_33">
    <path clip-path="url(#p0c12f0882e)" d="M 159.624763 268.152133 
" style="fill:none;stroke:#000080;stroke-linecap:square;stroke-width:1.5;"/>
    <defs>
     <path d="M -12 12 
L 12 -12 
M -12 -12 
L 12 12 
" id="m8d8856778b" style="stroke:#000080;"/>
    </defs>
    <g clip-path="url(#p0c12f0882e)">
     <use style="fill:#000080;stroke:#000080;" x="159.624763" xlink:href="#m8d8856778b" y="268.152133"/>
    </g>
   </g>
   <g id="line2d_34">
    <path clip-path="url(#p0c12f0882e)" d="M 57.6 298.944 
L 57.6 298.944 
L 57.6 298.944 
L 57.6 298.944 
L 338.688 298.944 
" style="fill:none;stroke:#ff00ff;stroke-linecap:square;stroke-width:1.5;"/>
   </g>
   <g id="line2d_35">
    <defs>
     <path d="M -0 8.485281 
L 5.091169 0 
L 0 -8.485281 
L -5.091169 -0 
z
" id="md9560927e6" style="stroke:#ff00ff;stroke-linejoin:miter;stroke-width:1.5;"/>
    </defs>
    <g clip-path="url(#p0c12f0882e)">
     <use style="fill-opacity:0;stroke:#ff00ff;stroke-linejoin:miter;stroke-width:1.5;" x="57.6" xlink:href="#md9560927e6" y="298.944"/>
    </g>
   </g>
   <g id="line2d_36">
    <path clip-path="url(#p0c12f0882e)" style="fill:none;stroke:#ff00ff;stroke-linecap:square;stroke-width:1.5;"/>
    <g clip-path="url(#p0c12f0882e)">
     <use style="fill-opacity:0;stroke:#ff00ff;stroke-linejoin:miter;stroke-width:1.5;" x="-1" xlink:href="#md9560927e6" y="567.553901"/>
     <use style="fill-opacity:0;stroke:#ff00ff;stroke-linejoin:miter;stroke-width:1.5;" x="338.688" xlink:href="#md9560927e6" y="567.553901"/>
    </g>
   </g>
   <g id="line2d_37">
    <defs>
     <path d="M 0 1.5 
C 0.397805 1.5 0.77937 1.341951 1.06066 1.06066 
C 1.341951 0.77937 1.5 0.397805 1.5 0 
C 1.5 -0.397805 1.341951 -0.77937 1.06066 -1.06066 
C 0.77937 -1.341951 0.397805 -1.5 0 -1.5 
C -0.397805 -1.5 -0.77937 -1.341951 -1.06066 -1.06066 
C -1.341951 -0.77937 -1.5 -0.397805 -1.5 0 
C -1.5 0.397805 -1.341951 0.77937 -1.06066 1.06066 
C -0.77937 1.341951 -0.397805 1.5 0 1.5 
z
" id="mcc9fd3fb4f" style="stroke:#ff7500;"/>
    </defs>
    <g>
     <use style="fill:#ff7500;stroke:#ff7500;" x="239.716001" xlink:href="#mcc9fd3fb4f" y="30.334099"/>
     <use style="fill:#ff7500;stroke:#ff7500;" x="239.716001" xlink:href="#mcc9fd3fb4f" y="30.334099"/>
    </g>
   </g>
   <g id="line2d_38">
    <path d="M 120.571812 298.944 
L 120.571812 297.633708 
L 122.219665 297.633708 
L 122.219665 296.978562 
L 124.241922 296.978562 
L 124.241922 296.323416 
L 127.378995 296.323416 
L 127.378995 295.66827 
L 129.574256 295.66827 
L 129.574256 295.013123 
L 130.926816 295.013123 
L 130.926816 294.357977 
L 131.270459 294.357977 
L 131.270459 293.702831 
L 132.342714 293.702831 
L 132.342714 292.392539 
L 133.352844 292.392539 
L 133.352844 291.737393 
L 133.652238 291.737393 
L 133.652238 291.082247 
L 135.348078 291.082247 
L 135.348078 290.427101 
L 135.878591 290.427101 
L 135.878591 289.771955 
L 136.456742 289.771955 
L 136.456742 289.116809 
L 138.026733 289.116809 
L 138.026733 287.806516 
L 138.141844 287.806516 
L 138.141844 287.15137 
L 140.195896 287.15137 
L 140.195896 285.841078 
L 142.840411 285.841078 
L 142.840411 285.185932 
L 143.230373 285.185932 
L 143.230373 284.530786 
L 144.269971 284.530786 
L 144.269971 283.87564 
L 145.059213 283.87564 
L 145.059213 283.220494 
L 145.289185 283.220494 
L 145.289185 282.565348 
L 145.777292 282.565348 
L 145.777292 281.910201 
L 146.252108 281.910201 
L 146.252108 281.255055 
L 146.784375 281.255055 
L 146.784375 280.599909 
L 147.436066 280.599909 
L 147.436066 279.944763 
L 148.290138 279.944763 
L 148.290138 277.979325 
L 149.073705 277.979325 
L 149.073705 277.324179 
L 149.347388 277.324179 
L 149.347388 276.669033 
L 150.172372 276.669033 
L 150.229833 275.35874 
L 150.598782 275.35874 
L 150.598782 274.703594 
L 151.233007 274.703594 
L 151.314058 273.393302 
L 152.486669 273.393302 
L 152.486669 272.08301 
L 153.585377 272.08301 
L 153.585377 271.427864 
L 154.752243 271.427864 
L 154.752243 270.772718 
L 155.167744 270.772718 
L 155.167744 270.117572 
L 155.403849 270.117572 
L 155.403849 269.462426 
L 158.267884 269.462426 
L 158.267884 268.807279 
L 159.456591 268.807279 
L 159.456591 268.152133 
L 160.070889 268.152133 
L 160.070889 267.496987 
L 160.852479 267.496987 
L 160.852479 266.841841 
L 162.756836 266.841841 
L 162.812686 265.531549 
L 164.127963 265.531549 
L 164.127963 264.876403 
L 164.76265 264.876403 
L 164.76265 264.221257 
L 165.290595 264.221257 
L 165.290595 263.566111 
L 166.197807 263.566111 
L 166.197807 262.910965 
L 166.873397 262.910965 
L 166.873397 261.600672 
L 167.223287 261.600672 
L 167.223287 260.945526 
L 167.59811 260.945526 
L 167.59811 260.29038 
L 167.881853 260.29038 
L 167.881853 259.635234 
L 168.293904 259.635234 
L 168.293904 258.980088 
L 168.923766 258.980088 
L 168.923766 258.324942 
L 169.070439 258.324942 
L 169.070439 257.669796 
L 169.215888 257.669796 
L 169.215888 257.01465 
L 169.654516 257.01465 
L 169.654516 256.359504 
L 169.888352 256.359504 
L 169.888352 255.704357 
L 170.082381 255.704357 
L 170.082381 255.049211 
L 170.373953 255.049211 
L 170.373953 254.394065 
L 170.678499 254.394065 
L 170.678499 253.738919 
L 170.969087 253.738919 
L 170.969087 253.083773 
L 171.862732 253.083773 
L 171.862732 252.428627 
L 172.385786 252.428627 
L 172.385786 251.773481 
L 172.673253 251.773481 
L 172.673253 251.118335 
L 173.409852 251.118335 
L 173.42503 249.808043 
L 173.55351 249.808043 
L 173.643636 246.532312 
L 174.297915 246.532312 
L 174.297915 245.877166 
L 174.448781 245.877166 
L 174.541525 244.566874 
L 175.300328 244.566874 
L 175.300328 243.911728 
L 175.637655 243.911728 
L 175.637655 243.256582 
L 176.222414 243.256582 
L 176.222414 242.601435 
L 176.338333 242.601435 
L 176.357578 241.291143 
L 177.666447 241.291143 
L 177.725824 239.980851 
L 177.949635 239.980851 
L 177.961335 238.670559 
L 178.285796 238.670559 
L 178.285796 238.015413 
L 178.750267 238.015413 
L 178.750267 237.360267 
L 179.01652 237.360267 
L 179.104376 236.049974 
L 179.327506 236.049974 
L 179.327506 235.394828 
L 179.537135 235.394828 
L 179.537135 234.739682 
L 179.723141 234.739682 
L 179.723141 234.084536 
L 180.006287 234.084536 
L 180.006287 233.42939 
L 180.187382 233.42939 
L 180.259296 232.119098 
L 180.609464 232.119098 
L 180.609464 231.463952 
L 180.898464 231.463952 
L 181.006844 229.498513 
L 181.457697 229.498513 
L 181.457697 228.843367 
L 182.069005 228.843367 
L 182.069005 228.188221 
L 182.52958 228.188221 
L 182.52958 227.533075 
L 182.762047 227.533075 
L 182.762047 226.877929 
L 183.078894 226.877929 
L 183.131146 225.567637 
L 183.256781 225.567637 
L 183.256781 224.912491 
L 183.80074 224.912491 
L 183.80074 224.257345 
L 183.921659 224.257345 
L 183.921659 223.602199 
L 184.062365 223.602199 
L 184.140504 222.291906 
L 184.57813 222.291906 
L 184.57813 221.63676 
L 184.709687 221.63676 
L 184.741431 220.326468 
L 185.075189 220.326468 
L 185.106275 219.016176 
L 185.802645 219.016176 
L 185.802645 218.36103 
L 185.925313 218.36103 
L 185.925313 217.705884 
L 186.072855 217.705884 
L 186.072855 217.050738 
L 186.622397 217.050738 
L 186.718227 215.740445 
L 186.834642 215.740445 
L 186.834642 215.085299 
L 187.061696 215.085299 
L 187.061696 214.430153 
L 187.217174 214.430153 
L 187.217174 213.775007 
L 187.517271 213.775007 
L 187.517271 213.119861 
L 187.805641 213.119861 
L 187.885272 211.809569 
L 188.252153 211.809569 
L 188.355574 210.499277 
L 188.426321 210.499277 
L 188.426321 209.84413 
L 188.674866 209.84413 
L 188.67803 208.533838 
L 188.813524 208.533838 
L 188.919919 207.223546 
L 189.062839 207.223546 
L 189.081395 205.913254 
L 189.454474 205.913254 
L 189.454474 205.258108 
L 189.581087 205.258108 
L 189.635069 203.947816 
L 190.116448 203.947816 
L 190.116448 203.292669 
L 190.255708 203.292669 
L 190.255708 202.637523 
L 190.776662 202.637523 
L 190.776662 201.982377 
L 190.999602 201.982377 
L 190.999602 201.327231 
L 191.148492 201.327231 
L 191.148492 200.672085 
L 191.364047 200.672085 
L 191.364047 200.016939 
L 191.525998 200.016939 
L 191.525998 199.361793 
L 191.718374 199.361793 
L 191.718374 198.706647 
L 191.861277 198.706647 
L 191.861277 198.051501 
L 192.153986 198.051501 
L 192.153986 197.396355 
L 192.39336 197.396355 
L 192.444411 195.430916 
L 192.75764 195.430916 
L 192.75764 194.77577 
L 192.877395 194.77577 
L 192.946874 193.465478 
L 193.114466 193.465478 
L 193.114466 192.810332 
L 193.331409 192.810332 
L 193.437673 190.844894 
L 193.564818 190.844894 
L 193.60302 189.534601 
L 193.811649 189.534601 
L 193.811649 188.879455 
L 194.062006 188.879455 
L 194.062006 188.224309 
L 194.177775 188.224309 
L 194.22847 186.258871 
L 194.317979 186.258871 
L 194.317979 185.603725 
L 194.767686 185.603725 
L 194.767686 184.948579 
L 194.887742 184.948579 
L 194.976143 183.638286 
L 195.061905 183.638286 
L 195.153795 182.327994 
L 195.256053 182.327994 
L 195.364183 179.70741 
L 195.773285 179.70741 
L 195.773285 179.052264 
L 195.926345 179.052264 
L 195.980536 177.741972 
L 196.098755 177.741972 
L 196.177125 175.776533 
L 196.48915 175.776533 
L 196.48915 175.121387 
L 196.696105 175.121387 
L 196.696105 174.466241 
L 196.837347 174.466241 
L 196.904581 173.155949 
L 197.300701 173.155949 
L 197.329617 171.845657 
L 197.676698 171.845657 
L 197.767096 170.535364 
L 197.898093 170.535364 
L 197.955792 169.225072 
L 198.131435 169.225072 
L 198.190202 167.91478 
L 198.520729 167.91478 
L 198.520729 167.259634 
L 198.687236 167.259634 
L 198.687236 166.604488 
L 198.890958 166.604488 
L 198.961264 164.63905 
L 199.010309 164.63905 
L 199.10277 162.018465 
L 199.312041 162.018465 
L 199.312041 161.363319 
L 199.840339 161.363319 
L 199.876993 159.397881 
L 200.083809 159.397881 
L 200.083809 158.742735 
L 200.328792 158.742735 
L 200.328792 158.087589 
L 200.453226 158.087589 
L 200.475756 156.12215 
L 201.167838 156.12215 
L 201.167838 155.467004 
L 201.327846 155.467004 
L 201.327846 154.811858 
L 201.537924 154.811858 
L 201.62095 152.84642 
L 201.693088 152.84642 
L 201.745501 151.536128 
L 201.876591 151.536128 
L 201.971313 149.570689 
L 201.990491 149.570689 
L 201.990491 148.915543 
L 202.32201 148.915543 
L 202.411472 147.605251 
L 202.511929 147.605251 
L 202.511929 146.950105 
L 202.653023 146.950105 
L 202.665794 145.639813 
L 202.949983 145.639813 
L 202.949983 144.984667 
L 203.104197 144.984667 
L 203.104197 144.32952 
L 203.336404 144.32952 
L 203.336404 143.674374 
L 203.548038 143.674374 
L 203.548038 143.019228 
L 204.925556 143.019228 
L 204.925556 142.364082 
L 205.058373 142.364082 
L 205.165624 141.05379 
L 205.30151 141.05379 
L 205.383022 139.743498 
L 205.546115 139.743498 
L 205.57615 138.433206 
L 205.687431 138.433206 
L 205.687431 137.778059 
L 205.799191 137.778059 
L 205.799191 137.122913 
L 206.129075 137.122913 
L 206.129075 136.467767 
L 206.460823 136.467767 
L 206.52574 135.157475 
L 206.623229 135.157475 
L 206.623229 134.502329 
L 207.499538 134.502329 
L 207.586399 133.192037 
L 207.661118 133.192037 
L 207.661118 132.536891 
L 207.791639 132.536891 
L 207.80432 129.916306 
L 207.924337 129.916306 
L 207.96416 128.606014 
L 208.21669 128.606014 
L 208.317507 126.640576 
L 208.70903 126.640576 
L 208.70903 125.98543 
L 208.904519 125.98543 
L 208.904519 125.330284 
L 209.048728 125.330284 
L 209.094899 124.019991 
L 209.211256 124.019991 
L 209.211256 123.364845 
L 209.362624 123.364845 
L 209.362624 122.709699 
L 209.633913 122.709699 
L 209.633913 122.054553 
L 209.95996 122.054553 
L 209.95996 121.399407 
L 210.100364 121.399407 
L 210.100364 120.744261 
L 210.228619 120.744261 
L 210.290104 119.433969 
L 210.738658 119.433969 
L 210.763638 118.123676 
L 210.858773 118.123676 
L 210.858773 117.46853 
L 211.013256 117.46853 
L 211.068536 116.158238 
L 211.146334 116.158238 
L 211.204672 114.847946 
L 211.339754 114.847946 
L 211.38541 113.537654 
L 211.764105 113.537654 
L 211.798586 112.227362 
L 211.883236 112.227362 
L 211.883236 111.572215 
L 212.21943 111.572215 
L 212.22189 110.261923 
L 212.333057 110.261923 
L 212.333057 109.606777 
L 212.476685 109.606777 
L 212.503332 107.641339 
L 212.735774 107.641339 
L 212.735774 106.986193 
L 212.854798 106.986193 
L 212.965158 105.675901 
L 212.994209 105.675901 
L 213.048255 104.365608 
L 213.176821 104.365608 
L 213.234174 103.055316 
L 213.466301 103.055316 
L 213.466301 102.40017 
L 213.702161 102.40017 
L 213.811795 101.089878 
L 213.930412 101.089878 
L 214.030495 99.12444 
L 214.236993 99.12444 
L 214.31644 97.814147 
L 214.474256 97.814147 
L 214.474256 97.159001 
L 214.586318 97.159001 
L 214.61994 95.848709 
L 214.892938 95.848709 
L 214.892938 95.193563 
L 215.248115 95.193563 
L 215.342306 93.228125 
L 215.72748 93.228125 
L 215.801768 91.917832 
L 215.982481 91.917832 
L 215.982481 91.262686 
L 216.185529 91.262686 
L 216.185529 90.60754 
L 216.388178 90.60754 
L 216.453921 89.297248 
L 216.696052 89.297248 
L 216.696052 88.642102 
L 216.951132 88.642102 
L 216.951132 87.986956 
L 217.37547 87.986956 
L 217.37547 87.33181 
L 217.503146 87.33181 
L 217.590761 86.021518 
L 217.705503 86.021518 
L 217.756325 84.711225 
L 218.007647 84.711225 
L 218.007647 84.056079 
L 218.154152 84.056079 
L 218.225783 82.745787 
L 218.361827 82.745787 
L 218.46933 80.125203 
L 218.698779 80.125203 
L 218.698779 79.470057 
L 218.846906 79.470057 
L 218.941989 78.159764 
L 219.484016 78.159764 
L 219.563321 76.849472 
L 219.635836 76.849472 
L 219.635836 76.194326 
L 220.054242 76.194326 
L 220.161715 73.573742 
L 220.391642 73.573742 
L 220.391642 72.918596 
L 220.9075 72.918596 
L 220.910988 71.608303 
L 221.319211 71.608303 
L 221.319211 70.953157 
L 221.455925 70.953157 
L 221.455925 70.298011 
L 221.619825 70.298011 
L 221.619825 69.642865 
L 221.800199 69.642865 
L 221.856451 68.332573 
L 222.071273 68.332573 
L 222.071273 67.677427 
L 222.338198 67.677427 
L 222.338198 67.022281 
L 222.483124 67.022281 
L 222.483124 66.367135 
L 222.733546 66.367135 
L 222.733546 65.711988 
L 222.845831 65.711988 
L 222.845831 65.056842 
L 223.017993 65.056842 
L 223.051958 63.74655 
L 223.167473 63.74655 
L 223.167473 63.091404 
L 223.284836 63.091404 
L 223.378074 61.781112 
L 223.634391 61.781112 
L 223.699053 60.47082 
L 223.93356 60.47082 
L 223.934398 59.160527 
L 224.197586 59.160527 
L 224.197586 58.505381 
L 224.359419 58.505381 
L 224.411265 57.195089 
L 224.515308 57.195089 
L 224.531913 55.884797 
L 224.771533 55.884797 
L 224.771533 55.229651 
L 224.921818 55.229651 
L 225.013419 53.264213 
L 225.197138 53.264213 
L 225.210382 51.95392 
L 225.587472 51.95392 
L 225.587472 51.298774 
L 226.216526 51.298774 
L 226.216526 50.643628 
L 226.635238 50.643628 
L 226.724001 48.67819 
L 227.985661 48.67819 
L 227.985661 48.023044 
L 228.187396 48.023044 
L 228.187396 47.367898 
L 228.73989 47.367898 
L 228.73989 46.712752 
L 228.862221 46.712752 
L 228.862221 46.057605 
L 229.197524 46.057605 
L 229.197524 45.402459 
L 229.408758 45.402459 
L 229.408758 44.747313 
L 229.851775 44.747313 
L 229.949372 43.437021 
L 230.009503 43.437021 
L 230.009503 42.781875 
L 230.237763 42.781875 
L 230.346867 41.471583 
L 230.607108 41.471583 
L 230.607108 40.816437 
L 230.911043 40.816437 
L 230.911043 40.161291 
L 231.401387 40.161291 
L 231.401387 39.506144 
L 231.599829 39.506144 
L 231.599829 38.850998 
L 231.877257 38.850998 
L 231.877257 38.195852 
L 232.263741 38.195852 
L 232.263741 37.540706 
L 232.669539 37.540706 
L 232.764986 36.230414 
L 233.095615 36.230414 
L 233.095615 35.575268 
L 234.770296 35.575268 
L 234.770296 34.920122 
L 235.430561 34.920122 
L 235.430561 34.264976 
L 236.221909 34.264976 
L 236.221909 33.60983 
L 236.473962 33.60983 
L 236.49375 32.299537 
L 237.772926 32.299537 
L 237.772926 31.644391 
L 238.983398 31.644391 
L 238.983398 30.989245 
L 239.716001 30.989245 
L 239.716001 30.334099 
L 338.688 30.334099 
L 338.688 30.334099 
" style="fill:none;stroke:#ff7500;stroke-linecap:square;stroke-width:1.5;"/>
   </g>
   <g id="line2d_39">
    <defs>
     <path d="M 0 -6 
L -1.347084 -1.854102 
L -5.706339 -1.854102 
L -2.179628 0.708204 
L -3.526712 4.854102 
L -0 2.291796 
L 3.526712 4.854102 
L 2.179628 0.708204 
L 5.706339 -1.854102 
L 1.347084 -1.854102 
z
" id="m2fea34d1e0" style="stroke:#ff7500;stroke-linejoin:bevel;stroke-width:1.5;"/>
    </defs>
    <g>
     <use style="fill-opacity:0;stroke:#ff7500;stroke-linejoin:bevel;stroke-width:1.5;" x="201.62095" xlink:href="#m2fea34d1e0" y="153.501566"/>
     <use style="fill-opacity:0;stroke:#ff7500;stroke-linejoin:bevel;stroke-width:1.5;" x="239.716001" xlink:href="#m2fea34d1e0" y="30.989245"/>
     <use style="fill-opacity:0;stroke:#ff7500;stroke-linejoin:bevel;stroke-width:1.5;" x="239.716001" xlink:href="#m2fea34d1e0" y="30.334099"/>
     <use style="fill-opacity:0;stroke:#ff7500;stroke-linejoin:bevel;stroke-width:1.5;" x="239.716001" xlink:href="#m2fea34d1e0" y="30.334099"/>
     <use style="fill-opacity:0;stroke:#ff7500;stroke-linejoin:bevel;stroke-width:1.5;" x="338.688" xlink:href="#m2fea34d1e0" y="30.334099"/>
    </g>
   </g>
   <g id="line2d_40">
    <path style="fill:none;stroke:#ff7500;stroke-linecap:square;stroke-width:1.5;"/>
    <g/>
   </g>
   <g id="line2d_41">
    <path clip-path="url(#p0c12f0882e)" d="M 158.322071 268.807279 
" style="fill:none;stroke:#ff7500;stroke-linecap:square;stroke-width:1.5;"/>
    <defs>
     <path d="M -12 12 
L 12 -12 
M -12 -12 
L 12 12 
" id="mfae5223e10" style="stroke:#ff7500;"/>
    </defs>
    <g clip-path="url(#p0c12f0882e)">
     <use style="fill:#ff7500;stroke:#ff7500;" x="158.322071" xlink:href="#mfae5223e10" y="268.807279"/>
    </g>
   </g>
   <g id="line2d_42">
    <path clip-path="url(#p0c12f0882e)" d="M 57.6 298.944 
L 57.6 298.944 
L 57.6 298.944 
L 57.6 298.944 
L 338.688 298.944 
" style="fill:none;stroke:#6495ed;stroke-linecap:square;stroke-width:1.5;"/>
   </g>
   <g id="line2d_43">
    <defs>
     <path d="M -0 6 
L 6 -6 
L -6 -6 
z
" id="m070b96d6d9" style="stroke:#6495ed;stroke-linejoin:miter;stroke-width:1.5;"/>
    </defs>
    <g clip-path="url(#p0c12f0882e)">
     <use style="fill-opacity:0;stroke:#6495ed;stroke-linejoin:miter;stroke-width:1.5;" x="57.6" xlink:href="#m070b96d6d9" y="298.944"/>
    </g>
   </g>
   <g id="line2d_44">
    <path clip-path="url(#p0c12f0882e)" style="fill:none;stroke:#6495ed;stroke-linecap:square;stroke-width:1.5;"/>
    <g clip-path="url(#p0c12f0882e)">
     <use style="fill-opacity:0;stroke:#6495ed;stroke-linejoin:miter;stroke-width:1.5;" x="-1" xlink:href="#m070b96d6d9" y="567.553901"/>
     <use style="fill-opacity:0;stroke:#6495ed;stroke-linejoin:miter;stroke-width:1.5;" x="338.688" xlink:href="#m070b96d6d9" y="567.553901"/>
    </g>
   </g>
   <g id="line2d_45">
    <path d="M 338.688 298.944 
L 369.60768 293.571802 
" style="fill:none;stroke:#6495ed;stroke-linecap:square;stroke-width:1.5;"/>
    <g>
     <use style="fill-opacity:0;stroke:#6495ed;stroke-linejoin:miter;stroke-width:1.5;" x="338.688" xlink:href="#m070b96d6d9" y="298.944"/>
     <use style="fill-opacity:0;stroke:#6495ed;stroke-linejoin:miter;stroke-width:1.5;" x="369.60768" xlink:href="#m070b96d6d9" y="293.571802"/>
    </g>
   </g>
   <g id="line2d_46">
    <path d="M 338.688 298.944 
L 369.60768 207.616634 
" style="fill:none;stroke:#ff00ff;stroke-linecap:square;stroke-width:1.5;"/>
    <g>
     <use style="fill-opacity:0;stroke:#ff00ff;stroke-linejoin:miter;stroke-width:1.5;" x="338.688" xlink:href="#md9560927e6" y="298.944"/>
     <use style="fill-opacity:0;stroke:#ff00ff;stroke-linejoin:miter;stroke-width:1.5;" x="369.60768" xlink:href="#md9560927e6" y="207.616634"/>
    </g>
   </g>
   <g id="line2d_47">
    <path d="M 338.688 30.334099 
L 369.60768 121.661465 
" style="fill:none;stroke:#000080;stroke-linecap:square;stroke-width:1.5;"/>
    <g>
     <use style="fill-opacity:0;stroke:#000080;stroke-width:1.5;" x="338.688" xlink:href="#m516bbef93d" y="30.334099"/>
     <use style="fill-opacity:0;stroke:#000080;stroke-width:1.5;" x="369.60768" xlink:href="#m516bbef93d" y="121.661465"/>
    </g>
   </g>
   <g id="line2d_48">
    <path d="M 338.688 30.334099 
L 369.60768 35.706297 
" style="fill:none;stroke:#ff7500;stroke-linecap:square;stroke-width:1.5;"/>
    <g>
     <use style="fill-opacity:0;stroke:#ff7500;stroke-linejoin:bevel;stroke-width:1.5;" x="338.688" xlink:href="#m2fea34d1e0" y="30.334099"/>
     <use style="fill-opacity:0;stroke:#ff7500;stroke-linejoin:bevel;stroke-width:1.5;" x="369.60768" xlink:href="#m2fea34d1e0" y="35.706297"/>
    </g>
   </g>
   <g id="line2d_49">
    <path d="M 338.688 298.944 
L 338.688 30.334099 
" style="fill:none;stroke:#000000;stroke-linecap:square;stroke-width:1.5;"/>
   </g>
   <g id="patch_3">
    <path d="M 57.6 298.944 
L 57.6 27.648 
" style="fill:none;stroke:#000000;stroke-linecap:square;stroke-linejoin:miter;stroke-width:0.8;"/>
   </g>
   <g id="patch_4">
    <path d="M 338.688 298.944 
L 338.688 27.648 
" style="fill:none;stroke:#000000;stroke-linecap:square;stroke-linejoin:miter;stroke-width:0.8;"/>
   </g>
   <g id="patch_5">
    <path d="M 57.6 298.944 
L 338.688 298.944 
" style="fill:none;stroke:#000000;stroke-linecap:square;stroke-linejoin:miter;stroke-width:0.8;"/>
   </g>
   <g id="patch_6">
    <path d="M 57.6 27.648 
L 338.688 27.648 
" style="fill:none;stroke:#000000;stroke-linecap:square;stroke-linejoin:miter;stroke-width:0.8;"/>
   </g>
   <g id="text_13">
    <!-- slsqp -->
    <g transform="translate(375.22944 298.262739)scale(0.17 -0.17)">
     <defs>
      <path d="M 14.796875 27.296875 
Q 14.796875 17.390625 18.875 11.75 
Q 22.953125 6.109375 30.078125 6.109375 
Q 37.203125 6.109375 41.296875 11.75 
Q 45.40625 17.390625 45.40625 27.296875 
Q 45.40625 37.203125 41.296875 42.84375 
Q 37.203125 48.484375 30.078125 48.484375 
Q 22.953125 48.484375 18.875 42.84375 
Q 14.796875 37.203125 14.796875 27.296875 
z
M 45.40625 8.203125 
Q 42.578125 3.328125 38.25 0.953125 
Q 33.9375 -1.421875 27.875 -1.421875 
Q 17.96875 -1.421875 11.734375 6.484375 
Q 5.515625 14.40625 5.515625 27.296875 
Q 5.515625 40.1875 11.734375 48.09375 
Q 17.96875 56 27.875 56 
Q 33.9375 56 38.25 53.625 
Q 42.578125 51.265625 45.40625 46.390625 
L 45.40625 54.6875 
L 54.390625 54.6875 
L 54.390625 -20.796875 
L 45.40625 -20.796875 
z
" id="DejaVuSans-113"/>
     </defs>
     <use xlink:href="#DejaVuSans-115"/>
     <use x="52.099609" xlink:href="#DejaVuSans-108"/>
     <use x="79.882812" xlink:href="#DejaVuSans-115"/>
     <use x="131.982422" xlink:href="#DejaVuSans-113"/>
     <use x="195.458984" xlink:href="#DejaVuSans-112"/>
    </g>
   </g>
   <g id="text_14">
    <!-- cobyla -->
    <g transform="translate(375.22944 212.307571)scale(0.17 -0.17)">
     <defs>
      <path d="M 48.6875 27.296875 
Q 48.6875 37.203125 44.609375 42.84375 
Q 40.53125 48.484375 33.40625 48.484375 
Q 26.265625 48.484375 22.1875 42.84375 
Q 18.109375 37.203125 18.109375 27.296875 
Q 18.109375 17.390625 22.1875 11.75 
Q 26.265625 6.109375 33.40625 6.109375 
Q 40.53125 6.109375 44.609375 11.75 
Q 48.6875 17.390625 48.6875 27.296875 
z
M 18.109375 46.390625 
Q 20.953125 51.265625 25.265625 53.625 
Q 29.59375 56 35.59375 56 
Q 45.5625 56 51.78125 48.09375 
Q 58.015625 40.1875 58.015625 27.296875 
Q 58.015625 14.40625 51.78125 6.484375 
Q 45.5625 -1.421875 35.59375 -1.421875 
Q 29.59375 -1.421875 25.265625 0.953125 
Q 20.953125 3.328125 18.109375 8.203125 
L 18.109375 0 
L 9.078125 0 
L 9.078125 75.984375 
L 18.109375 75.984375 
z
" id="DejaVuSans-98"/>
      <path d="M 32.171875 -5.078125 
Q 28.375 -14.84375 24.75 -17.8125 
Q 21.140625 -20.796875 15.09375 -20.796875 
L 7.90625 -20.796875 
L 7.90625 -13.28125 
L 13.1875 -13.28125 
Q 16.890625 -13.28125 18.9375 -11.515625 
Q 21 -9.765625 23.484375 -3.21875 
L 25.09375 0.875 
L 2.984375 54.6875 
L 12.5 54.6875 
L 29.59375 11.921875 
L 46.6875 54.6875 
L 56.203125 54.6875 
z
" id="DejaVuSans-121"/>
     </defs>
     <use xlink:href="#DejaVuSans-99"/>
     <use x="54.980469" xlink:href="#DejaVuSans-111"/>
     <use x="116.162109" xlink:href="#DejaVuSans-98"/>
     <use x="179.638672" xlink:href="#DejaVuSans-121"/>
     <use x="238.818359" xlink:href="#DejaVuSans-108"/>
     <use x="266.601562" xlink:href="#DejaVuSans-97"/>
    </g>
   </g>
   <g id="text_15">
    <!-- alN5 -->
    <g transform="translate(375.22944 126.352403)scale(0.17 -0.17)">
     <defs>
      <path d="M 9.8125 72.90625 
L 23.09375 72.90625 
L 55.421875 11.921875 
L 55.421875 72.90625 
L 64.984375 72.90625 
L 64.984375 0 
L 51.703125 0 
L 19.390625 60.984375 
L 19.390625 0 
L 9.8125 0 
z
" id="DejaVuSans-78"/>
      <path d="M 10.796875 72.90625 
L 49.515625 72.90625 
L 49.515625 64.59375 
L 19.828125 64.59375 
L 19.828125 46.734375 
Q 21.96875 47.46875 24.109375 47.828125 
Q 26.265625 48.1875 28.421875 48.1875 
Q 40.625 48.1875 47.75 41.5 
Q 54.890625 34.8125 54.890625 23.390625 
Q 54.890625 11.625 47.5625 5.09375 
Q 40.234375 -1.421875 26.90625 -1.421875 
Q 22.3125 -1.421875 17.546875 -0.640625 
Q 12.796875 0.140625 7.71875 1.703125 
L 7.71875 11.625 
Q 12.109375 9.234375 16.796875 8.0625 
Q 21.484375 6.890625 26.703125 6.890625 
Q 35.15625 6.890625 40.078125 11.328125 
Q 45.015625 15.765625 45.015625 23.390625 
Q 45.015625 31 40.078125 35.4375 
Q 35.15625 39.890625 26.703125 39.890625 
Q 22.75 39.890625 18.8125 39.015625 
Q 14.890625 38.140625 10.796875 36.28125 
z
" id="DejaVuSans-53"/>
     </defs>
     <use xlink:href="#DejaVuSans-97"/>
     <use x="61.279297" xlink:href="#DejaVuSans-108"/>
     <use x="89.0625" xlink:href="#DejaVuSans-78"/>
     <use x="163.867188" xlink:href="#DejaVuSans-53"/>
    </g>
   </g>
   <g id="text_16">
    <!-- l1p-cmaes -->
    <g transform="translate(375.22944 40.397235)scale(0.17 -0.17)">
     <use xlink:href="#DejaVuSans-108"/>
     <use x="27.783203" xlink:href="#DejaVuSans-49"/>
     <use x="91.40625" xlink:href="#DejaVuSans-112"/>
     <use x="154.882812" xlink:href="#DejaVuSans-45"/>
     <use x="190.966797" xlink:href="#DejaVuSans-99"/>
     <use x="245.947266" xlink:href="#DejaVuSans-109"/>
     <use x="343.359375" xlink:href="#DejaVuSans-97"/>
     <use x="404.638672" xlink:href="#DejaVuSans-101"/>
     <use x="466.162109" xlink:href="#DejaVuSans-115"/>
    </g>
   </g>
   <g id="text_17">
    <!-- bbob-constrained f47, 3-D -->
    <g transform="translate(60.41088 38.111366)scale(0.102 -0.102)">
     <defs>
      <path d="M 8.203125 72.90625 
L 55.078125 72.90625 
L 55.078125 68.703125 
L 28.609375 0 
L 18.3125 0 
L 43.21875 64.59375 
L 8.203125 64.59375 
z
" id="DejaVuSans-55"/>
      <path d="M 40.578125 39.3125 
Q 47.65625 37.796875 51.625 33 
Q 55.609375 28.21875 55.609375 21.1875 
Q 55.609375 10.40625 48.1875 4.484375 
Q 40.765625 -1.421875 27.09375 -1.421875 
Q 22.515625 -1.421875 17.65625 -0.515625 
Q 12.796875 0.390625 7.625 2.203125 
L 7.625 11.71875 
Q 11.71875 9.328125 16.59375 8.109375 
Q 21.484375 6.890625 26.8125 6.890625 
Q 36.078125 6.890625 40.9375 10.546875 
Q 45.796875 14.203125 45.796875 21.1875 
Q 45.796875 27.640625 41.28125 31.265625 
Q 36.765625 34.90625 28.71875 34.90625 
L 20.21875 34.90625 
L 20.21875 43.015625 
L 29.109375 43.015625 
Q 36.375 43.015625 40.234375 45.921875 
Q 44.09375 48.828125 44.09375 54.296875 
Q 44.09375 59.90625 40.109375 62.90625 
Q 36.140625 65.921875 28.71875 65.921875 
Q 24.65625 65.921875 20.015625 65.03125 
Q 15.375 64.15625 9.8125 62.3125 
L 9.8125 71.09375 
Q 15.4375 72.65625 20.34375 73.4375 
Q 25.25 74.21875 29.59375 74.21875 
Q 40.828125 74.21875 47.359375 69.109375 
Q 53.90625 64.015625 53.90625 55.328125 
Q 53.90625 49.265625 50.4375 45.09375 
Q 46.96875 40.921875 40.578125 39.3125 
z
" id="DejaVuSans-51"/>
      <path d="M 19.671875 64.796875 
L 19.671875 8.109375 
L 31.59375 8.109375 
Q 46.6875 8.109375 53.6875 14.9375 
Q 60.6875 21.78125 60.6875 36.53125 
Q 60.6875 51.171875 53.6875 57.984375 
Q 46.6875 64.796875 31.59375 64.796875 
z
M 9.8125 72.90625 
L 30.078125 72.90625 
Q 51.265625 72.90625 61.171875 64.09375 
Q 71.09375 55.28125 71.09375 36.53125 
Q 71.09375 17.671875 61.125 8.828125 
Q 51.171875 0 30.078125 0 
L 9.8125 0 
z
" id="DejaVuSans-68"/>
     </defs>
     <use xlink:href="#DejaVuSans-98"/>
     <use x="63.476562" xlink:href="#DejaVuSans-98"/>
     <use x="126.953125" xlink:href="#DejaVuSans-111"/>
     <use x="188.134766" xlink:href="#DejaVuSans-98"/>
     <use x="251.611328" xlink:href="#DejaVuSans-45"/>
     <use x="287.695312" xlink:href="#DejaVuSans-99"/>
     <use x="342.675781" xlink:href="#DejaVuSans-111"/>
     <use x="403.857422" xlink:href="#DejaVuSans-110"/>
     <use x="467.236328" xlink:href="#DejaVuSans-115"/>
     <use x="519.335938" xlink:href="#DejaVuSans-116"/>
     <use x="558.544922" xlink:href="#DejaVuSans-114"/>
     <use x="599.658203" xlink:href="#DejaVuSans-97"/>
     <use x="660.9375" xlink:href="#DejaVuSans-105"/>
     <use x="688.720703" xlink:href="#DejaVuSans-110"/>
     <use x="752.099609" xlink:href="#DejaVuSans-101"/>
     <use x="813.623047" xlink:href="#DejaVuSans-100"/>
     <use x="877.099609" xlink:href="#DejaVuSans-32"/>
     <use x="908.886719" xlink:href="#DejaVuSans-102"/>
     <use x="944.091797" xlink:href="#DejaVuSans-52"/>
     <use x="1007.714844" xlink:href="#DejaVuSans-55"/>
     <use x="1071.337891" xlink:href="#DejaVuSans-44"/>
     <use x="1103.125" xlink:href="#DejaVuSans-32"/>
     <use x="1134.912109" xlink:href="#DejaVuSans-51"/>
     <use x="1198.535156" xlink:href="#DejaVuSans-45"/>
     <use x="1234.619141" xlink:href="#DejaVuSans-68"/>
    </g>
    <!-- 41 targets: 100..1e-06 -->
    <g transform="translate(60.41088 49.533135)scale(0.102 -0.102)">
     <defs>
      <path d="M 11.71875 12.40625 
L 22.015625 12.40625 
L 22.015625 0 
L 11.71875 0 
z
M 11.71875 51.703125 
L 22.015625 51.703125 
L 22.015625 39.3125 
L 11.71875 39.3125 
z
" id="DejaVuSans-58"/>
     </defs>
     <use xlink:href="#DejaVuSans-52"/>
     <use x="63.623047" xlink:href="#DejaVuSans-49"/>
     <use x="127.246094" xlink:href="#DejaVuSans-32"/>
     <use x="159.033203" xlink:href="#DejaVuSans-116"/>
     <use x="198.242188" xlink:href="#DejaVuSans-97"/>
     <use x="259.521484" xlink:href="#DejaVuSans-114"/>
     <use x="298.884766" xlink:href="#DejaVuSans-103"/>
     <use x="362.361328" xlink:href="#DejaVuSans-101"/>
     <use x="423.884766" xlink:href="#DejaVuSans-116"/>
     <use x="463.09375" xlink:href="#DejaVuSans-115"/>
     <use x="515.193359" xlink:href="#DejaVuSans-58"/>
     <use x="548.884766" xlink:href="#DejaVuSans-32"/>
     <use x="580.671875" xlink:href="#DejaVuSans-49"/>
     <use x="644.294922" xlink:href="#DejaVuSans-48"/>
     <use x="707.917969" xlink:href="#DejaVuSans-48"/>
     <use x="771.541016" xlink:href="#DejaVuSans-46"/>
     <use x="803.328125" xlink:href="#DejaVuSans-46"/>
     <use x="835.115234" xlink:href="#DejaVuSans-49"/>
     <use x="898.738281" xlink:href="#DejaVuSans-101"/>
     <use x="960.261719" xlink:href="#DejaVuSans-45"/>
     <use x="996.345703" xlink:href="#DejaVuSans-48"/>
     <use x="1059.96875" xlink:href="#DejaVuSans-54"/>
    </g>
    <!-- 30, 15 instances -->
    <g transform="translate(60.41088 60.954904)scale(0.102 -0.102)">
     <use xlink:href="#DejaVuSans-51"/>
     <use x="63.623047" xlink:href="#DejaVuSans-48"/>
     <use x="127.246094" xlink:href="#DejaVuSans-44"/>
     <use x="159.033203" xlink:href="#DejaVuSans-32"/>
     <use x="190.820312" xlink:href="#DejaVuSans-49"/>
     <use x="254.443359" xlink:href="#DejaVuSans-53"/>
     <use x="318.066406" xlink:href="#DejaVuSans-32"/>
     <use x="349.853516" xlink:href="#DejaVuSans-105"/>
     <use x="377.636719" xlink:href="#DejaVuSans-110"/>
     <use x="441.015625" xlink:href="#DejaVuSans-115"/>
     <use x="493.115234" xlink:href="#DejaVuSans-116"/>
     <use x="532.324219" xlink:href="#DejaVuSans-97"/>
     <use x="593.603516" xlink:href="#DejaVuSans-110"/>
     <use x="656.982422" xlink:href="#DejaVuSans-99"/>
     <use x="711.962891" xlink:href="#DejaVuSans-101"/>
     <use x="773.486328" xlink:href="#DejaVuSans-115"/>
    </g>
   </g>
   <g id="text_18">
    <!-- v5z33 -->
    <g style="fill:#808080;" transform="translate(183.016656 294.151352)scale(0.1 -0.1)">
     <defs>
      <path d="M 5.515625 54.6875 
L 48.1875 54.6875 
L 48.1875 46.484375 
L 14.40625 7.171875 
L 48.1875 7.171875 
L 48.1875 0 
L 4.296875 0 
L 4.296875 8.203125 
L 38.09375 47.515625 
L 5.515625 47.515625 
z
" id="DejaVuSans-122"/>
     </defs>
     <use xlink:href="#DejaVuSans-118"/>
     <use x="59.179688" xlink:href="#DejaVuSans-53"/>
     <use x="122.802734" xlink:href="#DejaVuSans-122"/>
     <use x="175.292969" xlink:href="#DejaVuSans-51"/>
     <use x="238.916016" xlink:href="#DejaVuSans-51"/>
    </g>
   </g>
   <g id="text_19">
    <!-- 47 Separable Rastrigin, n+6 constraints -->
    <g transform="translate(-1.951313 21.648)scale(0.2 -0.2)">
     <defs>
      <path d="M 53.515625 70.515625 
L 53.515625 60.890625 
Q 47.90625 63.578125 42.921875 64.890625 
Q 37.9375 66.21875 33.296875 66.21875 
Q 25.25 66.21875 20.875 63.09375 
Q 16.5 59.96875 16.5 54.203125 
Q 16.5 49.359375 19.40625 46.890625 
Q 22.3125 44.4375 30.421875 42.921875 
L 36.375 41.703125 
Q 47.40625 39.59375 52.65625 34.296875 
Q 57.90625 29 57.90625 20.125 
Q 57.90625 9.515625 50.796875 4.046875 
Q 43.703125 -1.421875 29.984375 -1.421875 
Q 24.8125 -1.421875 18.96875 -0.25 
Q 13.140625 0.921875 6.890625 3.21875 
L 6.890625 13.375 
Q 12.890625 10.015625 18.65625 8.296875 
Q 24.421875 6.59375 29.984375 6.59375 
Q 38.421875 6.59375 43.015625 9.90625 
Q 47.609375 13.234375 47.609375 19.390625 
Q 47.609375 24.75 44.3125 27.78125 
Q 41.015625 30.8125 33.5 32.328125 
L 27.484375 33.5 
Q 16.453125 35.6875 11.515625 40.375 
Q 6.59375 45.0625 6.59375 53.421875 
Q 6.59375 63.09375 13.40625 68.65625 
Q 20.21875 74.21875 32.171875 74.21875 
Q 37.3125 74.21875 42.625 73.28125 
Q 47.953125 72.359375 53.515625 70.515625 
z
" id="DejaVuSans-83"/>
      <path d="M 44.390625 34.1875 
Q 47.5625 33.109375 50.5625 29.59375 
Q 53.5625 26.078125 56.59375 19.921875 
L 66.609375 0 
L 56 0 
L 46.6875 18.703125 
Q 43.0625 26.03125 39.671875 28.421875 
Q 36.28125 30.8125 30.421875 30.8125 
L 19.671875 30.8125 
L 19.671875 0 
L 9.8125 0 
L 9.8125 72.90625 
L 32.078125 72.90625 
Q 44.578125 72.90625 50.734375 67.671875 
Q 56.890625 62.453125 56.890625 51.90625 
Q 56.890625 45.015625 53.6875 40.46875 
Q 50.484375 35.9375 44.390625 34.1875 
z
M 19.671875 64.796875 
L 19.671875 38.921875 
L 32.078125 38.921875 
Q 39.203125 38.921875 42.84375 42.21875 
Q 46.484375 45.515625 46.484375 51.90625 
Q 46.484375 58.296875 42.84375 61.546875 
Q 39.203125 64.796875 32.078125 64.796875 
z
" id="DejaVuSans-82"/>
     </defs>
     <use xlink:href="#DejaVuSans-52"/>
     <use x="63.623047" xlink:href="#DejaVuSans-55"/>
     <use x="127.246094" xlink:href="#DejaVuSans-32"/>
     <use x="159.033203" xlink:href="#DejaVuSans-83"/>
     <use x="222.509766" xlink:href="#DejaVuSans-101"/>
     <use x="284.033203" xlink:href="#DejaVuSans-112"/>
     <use x="347.509766" xlink:href="#DejaVuSans-97"/>
     <use x="408.789062" xlink:href="#DejaVuSans-114"/>
     <use x="449.902344" xlink:href="#DejaVuSans-97"/>
     <use x="511.181641" xlink:href="#DejaVuSans-98"/>
     <use x="574.658203" xlink:href="#DejaVuSans-108"/>
     <use x="602.441406" xlink:href="#DejaVuSans-101"/>
     <use x="663.964844" xlink:href="#DejaVuSans-32"/>
     <use x="695.751953" xlink:href="#DejaVuSans-82"/>
     <use x="762.984375" xlink:href="#DejaVuSans-97"/>
     <use x="824.263672" xlink:href="#DejaVuSans-115"/>
     <use x="876.363281" xlink:href="#DejaVuSans-116"/>
     <use x="915.572266" xlink:href="#DejaVuSans-114"/>
     <use x="956.685547" xlink:href="#DejaVuSans-105"/>
     <use x="984.46875" xlink:href="#DejaVuSans-103"/>
     <use x="1047.945312" xlink:href="#DejaVuSans-105"/>
     <use x="1075.728516" xlink:href="#DejaVuSans-110"/>
     <use x="1139.107422" xlink:href="#DejaVuSans-44"/>
     <use x="1170.894531" xlink:href="#DejaVuSans-32"/>
     <use x="1202.681641" xlink:href="#DejaVuSans-110"/>
     <use x="1266.060547" xlink:href="#DejaVuSans-43"/>
     <use x="1349.849609" xlink:href="#DejaVuSans-54"/>
     <use x="1413.472656" xlink:href="#DejaVuSans-32"/>
     <use x="1445.259766" xlink:href="#DejaVuSans-99"/>
     <use x="1500.240234" xlink:href="#DejaVuSans-111"/>
     <use x="1561.421875" xlink:href="#DejaVuSans-110"/>
     <use x="1624.800781" xlink:href="#DejaVuSans-115"/>
     <use x="1676.900391" xlink:href="#DejaVuSans-116"/>
     <use x="1716.109375" xlink:href="#DejaVuSans-114"/>
     <use x="1757.222656" xlink:href="#DejaVuSans-97"/>
     <use x="1818.501953" xlink:href="#DejaVuSans-105"/>
     <use x="1846.285156" xlink:href="#DejaVuSans-110"/>
     <use x="1909.664062" xlink:href="#DejaVuSans-116"/>
     <use x="1948.873047" xlink:href="#DejaVuSans-115"/>
    </g>
   </g>
  </g>
 </g>
 <defs>
  <clipPath id="p0c12f0882e">
   <rect height="271.296" width="281.088" x="57.6" y="27.648"/>
  </clipPath>
 </defs>
</svg>
