<?xml version="1.0" encoding="utf-8" standalone="no"?>
<!DOCTYPE svg PUBLIC "-//W3C//DTD SVG 1.1//EN"
  "http://www.w3.org/Graphics/SVG/1.1/DTD/svg11.dtd">
<!-- Created with matplotlib (https://matplotlib.org/) -->
<svg height="345.6pt" version="1.1" viewBox="0 0 460.8 345.6" width="460.8pt" xmlns="http://www.w3.org/2000/svg" xmlns:xlink="http://www.w3.org/1999/xlink">
 <metadata>
  <rdf:RDF xmlns:cc="http://creativecommons.org/ns#" xmlns:dc="http://purl.org/dc/elements/1.1/" xmlns:rdf="http://www.w3.org/1999/02/22-rdf-syntax-ns#">
   <cc:Work>
    <dc:type rdf:resource="http://purl.org/dc/dcmitype/StillImage"/>
    <dc:date>2021-04-09T10:27:47.326404</dc:date>
    <dc:format>image/svg+xml</dc:format>
    <dc:creator>
     <cc:Agent>
      <dc:title>Matplotlib v3.3.3, https://matplotlib.org/</dc:title>
     </cc:Agent>
    </dc:creator>
   </cc:Work>
  </rdf:RDF>
 </metadata>
 <defs>
  <style type="text/css">*{stroke-linecap:butt;stroke-linejoin:round;}</style>
 </defs>
 <g id="figure_1">
  <g id="patch_1">
   <path d="M 0 345.6 
L 460.8 345.6 
L 460.8 0 
L 0 0 
z
" style="fill:#ffffff;"/>
  </g>
  <g id="axes_1">
   <g id="patch_2">
    <path d="M 57.6 298.944 
L 338.688 298.944 
L 338.688 27.648 
L 57.6 27.648 
z
" style="fill:#ffffff;"/>
   </g>
   <g id="matplotlib.axis_1">
    <g id="xtick_1">
     <g id="line2d_1">
      <path clip-path="url(#pc9aa9dd1c6)" d="M 57.6 298.944 
L 57.6 27.648 
" style="fill:none;stroke:#b0b0b0;stroke-linecap:square;stroke-width:0.8;"/>
     </g>
     <g id="line2d_2">
      <defs>
       <path d="M 0 0 
L 0 3.5 
" id="ma999fe13f4" style="stroke:#000000;stroke-width:0.8;"/>
      </defs>
      <g>
       <use style="stroke:#000000;stroke-width:0.8;" x="57.6" xlink:href="#ma999fe13f4" y="298.944"/>
      </g>
     </g>
     <g id="text_1">
      <!-- 0 -->
      <g transform="translate(51.2375 321.140875)scale(0.2 -0.2)">
       <defs>
        <path d="M 31.78125 66.40625 
Q 24.171875 66.40625 20.328125 58.90625 
Q 16.5 51.421875 16.5 36.375 
Q 16.5 21.390625 20.328125 13.890625 
Q 24.171875 6.390625 31.78125 6.390625 
Q 39.453125 6.390625 43.28125 13.890625 
Q 47.125 21.390625 47.125 36.375 
Q 47.125 51.421875 43.28125 58.90625 
Q 39.453125 66.40625 31.78125 66.40625 
z
M 31.78125 74.21875 
Q 44.046875 74.21875 50.515625 64.515625 
Q 56.984375 54.828125 56.984375 36.375 
Q 56.984375 17.96875 50.515625 8.265625 
Q 44.046875 -1.421875 31.78125 -1.421875 
Q 19.53125 -1.421875 13.0625 8.265625 
Q 6.59375 17.96875 6.59375 36.375 
Q 6.59375 54.828125 13.0625 64.515625 
Q 19.53125 74.21875 31.78125 74.21875 
z
" id="DejaVuSans-48"/>
       </defs>
       <use xlink:href="#DejaVuSans-48"/>
      </g>
     </g>
    </g>
    <g id="xtick_2">
     <g id="line2d_3">
      <path clip-path="url(#pc9aa9dd1c6)" d="M 137.910857 298.944 
L 137.910857 27.648 
" style="fill:none;stroke:#b0b0b0;stroke-linecap:square;stroke-width:0.8;"/>
     </g>
     <g id="line2d_4">
      <g>
       <use style="stroke:#000000;stroke-width:0.8;" x="137.910857" xlink:href="#ma999fe13f4" y="298.944"/>
      </g>
     </g>
     <g id="text_2">
      <!-- 2 -->
      <g transform="translate(131.548357 321.140875)scale(0.2 -0.2)">
       <defs>
        <path d="M 19.1875 8.296875 
L 53.609375 8.296875 
L 53.609375 0 
L 7.328125 0 
L 7.328125 8.296875 
Q 12.9375 14.109375 22.625 23.890625 
Q 32.328125 33.6875 34.8125 36.53125 
Q 39.546875 41.84375 41.421875 45.53125 
Q 43.3125 49.21875 43.3125 52.78125 
Q 43.3125 58.59375 39.234375 62.25 
Q 35.15625 65.921875 28.609375 65.921875 
Q 23.96875 65.921875 18.8125 64.3125 
Q 13.671875 62.703125 7.8125 59.421875 
L 7.8125 69.390625 
Q 13.765625 71.78125 18.9375 73 
Q 24.125 74.21875 28.421875 74.21875 
Q 39.75 74.21875 46.484375 68.546875 
Q 53.21875 62.890625 53.21875 53.421875 
Q 53.21875 48.921875 51.53125 44.890625 
Q 49.859375 40.875 45.40625 35.40625 
Q 44.1875 33.984375 37.640625 27.21875 
Q 31.109375 20.453125 19.1875 8.296875 
z
" id="DejaVuSans-50"/>
       </defs>
       <use xlink:href="#DejaVuSans-50"/>
      </g>
     </g>
    </g>
    <g id="xtick_3">
     <g id="line2d_5">
      <path clip-path="url(#pc9aa9dd1c6)" d="M 218.221714 298.944 
L 218.221714 27.648 
" style="fill:none;stroke:#b0b0b0;stroke-linecap:square;stroke-width:0.8;"/>
     </g>
     <g id="line2d_6">
      <g>
       <use style="stroke:#000000;stroke-width:0.8;" x="218.221714" xlink:href="#ma999fe13f4" y="298.944"/>
      </g>
     </g>
     <g id="text_3">
      <!-- 4 -->
      <g transform="translate(211.859214 321.140875)scale(0.2 -0.2)">
       <defs>
        <path d="M 37.796875 64.3125 
L 12.890625 25.390625 
L 37.796875 25.390625 
z
M 35.203125 72.90625 
L 47.609375 72.90625 
L 47.609375 25.390625 
L 58.015625 25.390625 
L 58.015625 17.1875 
L 47.609375 17.1875 
L 47.609375 0 
L 37.796875 0 
L 37.796875 17.1875 
L 4.890625 17.1875 
L 4.890625 26.703125 
z
" id="DejaVuSans-52"/>
       </defs>
       <use xlink:href="#DejaVuSans-52"/>
      </g>
     </g>
    </g>
    <g id="xtick_4">
     <g id="line2d_7">
      <path clip-path="url(#pc9aa9dd1c6)" d="M 298.532571 298.944 
L 298.532571 27.648 
" style="fill:none;stroke:#b0b0b0;stroke-linecap:square;stroke-width:0.8;"/>
     </g>
     <g id="line2d_8">
      <g>
       <use style="stroke:#000000;stroke-width:0.8;" x="298.532571" xlink:href="#ma999fe13f4" y="298.944"/>
      </g>
     </g>
     <g id="text_4">
      <!-- 6 -->
      <g transform="translate(292.170071 321.140875)scale(0.2 -0.2)">
       <defs>
        <path d="M 33.015625 40.375 
Q 26.375 40.375 22.484375 35.828125 
Q 18.609375 31.296875 18.609375 23.390625 
Q 18.609375 15.53125 22.484375 10.953125 
Q 26.375 6.390625 33.015625 6.390625 
Q 39.65625 6.390625 43.53125 10.953125 
Q 47.40625 15.53125 47.40625 23.390625 
Q 47.40625 31.296875 43.53125 35.828125 
Q 39.65625 40.375 33.015625 40.375 
z
M 52.59375 71.296875 
L 52.59375 62.3125 
Q 48.875 64.0625 45.09375 64.984375 
Q 41.3125 65.921875 37.59375 65.921875 
Q 27.828125 65.921875 22.671875 59.328125 
Q 17.53125 52.734375 16.796875 39.40625 
Q 19.671875 43.65625 24.015625 45.921875 
Q 28.375 48.1875 33.59375 48.1875 
Q 44.578125 48.1875 50.953125 41.515625 
Q 57.328125 34.859375 57.328125 23.390625 
Q 57.328125 12.15625 50.6875 5.359375 
Q 44.046875 -1.421875 33.015625 -1.421875 
Q 20.359375 -1.421875 13.671875 8.265625 
Q 6.984375 17.96875 6.984375 36.375 
Q 6.984375 53.65625 15.1875 63.9375 
Q 23.390625 74.21875 37.203125 74.21875 
Q 40.921875 74.21875 44.703125 73.484375 
Q 48.484375 72.75 52.59375 71.296875 
z
" id="DejaVuSans-54"/>
       </defs>
       <use xlink:href="#DejaVuSans-54"/>
      </g>
     </g>
    </g>
    <g id="xtick_5">
     <g id="line2d_9">
      <path clip-path="url(#pc9aa9dd1c6)" d="M 97.755429 298.944 
L 97.755429 27.648 
" style="fill:none;stroke:#b0b0b0;stroke-linecap:square;stroke-width:0.8;"/>
     </g>
     <g id="line2d_10">
      <defs>
       <path d="M 0 0 
L 0 2 
" id="m9034a8795e" style="stroke:#000000;stroke-width:0.6;"/>
      </defs>
      <g>
       <use style="stroke:#000000;stroke-width:0.6;" x="97.755429" xlink:href="#m9034a8795e" y="298.944"/>
      </g>
     </g>
    </g>
    <g id="xtick_6">
     <g id="line2d_11">
      <path clip-path="url(#pc9aa9dd1c6)" d="M 178.066286 298.944 
L 178.066286 27.648 
" style="fill:none;stroke:#b0b0b0;stroke-linecap:square;stroke-width:0.8;"/>
     </g>
     <g id="line2d_12">
      <g>
       <use style="stroke:#000000;stroke-width:0.6;" x="178.066286" xlink:href="#m9034a8795e" y="298.944"/>
      </g>
     </g>
    </g>
    <g id="xtick_7">
     <g id="line2d_13">
      <path clip-path="url(#pc9aa9dd1c6)" d="M 258.377143 298.944 
L 258.377143 27.648 
" style="fill:none;stroke:#b0b0b0;stroke-linecap:square;stroke-width:0.8;"/>
     </g>
     <g id="line2d_14">
      <g>
       <use style="stroke:#000000;stroke-width:0.6;" x="258.377143" xlink:href="#m9034a8795e" y="298.944"/>
      </g>
     </g>
    </g>
    <g id="xtick_8">
     <g id="line2d_15">
      <path clip-path="url(#pc9aa9dd1c6)" d="M 338.688 298.944 
L 338.688 27.648 
" style="fill:none;stroke:#b0b0b0;stroke-linecap:square;stroke-width:0.8;"/>
     </g>
     <g id="line2d_16">
      <g>
       <use style="stroke:#000000;stroke-width:0.6;" x="338.688" xlink:href="#m9034a8795e" y="298.944"/>
      </g>
     </g>
    </g>
    <g id="text_5">
     <!-- log10(# (f+g)-evals / dimension) -->
     <g transform="translate(58.145016 342.217594)scale(0.17 -0.17)">
      <defs>
       <path d="M 9.421875 75.984375 
L 18.40625 75.984375 
L 18.40625 0 
L 9.421875 0 
z
" id="DejaVuSans-108"/>
       <path d="M 30.609375 48.390625 
Q 23.390625 48.390625 19.1875 42.75 
Q 14.984375 37.109375 14.984375 27.296875 
Q 14.984375 17.484375 19.15625 11.84375 
Q 23.34375 6.203125 30.609375 6.203125 
Q 37.796875 6.203125 41.984375 11.859375 
Q 46.1875 17.53125 46.1875 27.296875 
Q 46.1875 37.015625 41.984375 42.703125 
Q 37.796875 48.390625 30.609375 48.390625 
z
M 30.609375 56 
Q 42.328125 56 49.015625 48.375 
Q 55.71875 40.765625 55.71875 27.296875 
Q 55.71875 13.875 49.015625 6.21875 
Q 42.328125 -1.421875 30.609375 -1.421875 
Q 18.84375 -1.421875 12.171875 6.21875 
Q 5.515625 13.875 5.515625 27.296875 
Q 5.515625 40.765625 12.171875 48.375 
Q 18.84375 56 30.609375 56 
z
" id="DejaVuSans-111"/>
       <path d="M 45.40625 27.984375 
Q 45.40625 37.75 41.375 43.109375 
Q 37.359375 48.484375 30.078125 48.484375 
Q 22.859375 48.484375 18.828125 43.109375 
Q 14.796875 37.75 14.796875 27.984375 
Q 14.796875 18.265625 18.828125 12.890625 
Q 22.859375 7.515625 30.078125 7.515625 
Q 37.359375 7.515625 41.375 12.890625 
Q 45.40625 18.265625 45.40625 27.984375 
z
M 54.390625 6.78125 
Q 54.390625 -7.171875 48.1875 -13.984375 
Q 42 -20.796875 29.203125 -20.796875 
Q 24.46875 -20.796875 20.265625 -20.09375 
Q 16.0625 -19.390625 12.109375 -17.921875 
L 12.109375 -9.1875 
Q 16.0625 -11.328125 19.921875 -12.34375 
Q 23.78125 -13.375 27.78125 -13.375 
Q 36.625 -13.375 41.015625 -8.765625 
Q 45.40625 -4.15625 45.40625 5.171875 
L 45.40625 9.625 
Q 42.625 4.78125 38.28125 2.390625 
Q 33.9375 0 27.875 0 
Q 17.828125 0 11.671875 7.65625 
Q 5.515625 15.328125 5.515625 27.984375 
Q 5.515625 40.671875 11.671875 48.328125 
Q 17.828125 56 27.875 56 
Q 33.9375 56 38.28125 53.609375 
Q 42.625 51.21875 45.40625 46.390625 
L 45.40625 54.6875 
L 54.390625 54.6875 
z
" id="DejaVuSans-103"/>
       <path d="M 12.40625 8.296875 
L 28.515625 8.296875 
L 28.515625 63.921875 
L 10.984375 60.40625 
L 10.984375 69.390625 
L 28.421875 72.90625 
L 38.28125 72.90625 
L 38.28125 8.296875 
L 54.390625 8.296875 
L 54.390625 0 
L 12.40625 0 
z
" id="DejaVuSans-49"/>
       <path d="M 31 75.875 
Q 24.46875 64.65625 21.28125 53.65625 
Q 18.109375 42.671875 18.109375 31.390625 
Q 18.109375 20.125 21.3125 9.0625 
Q 24.515625 -2 31 -13.1875 
L 23.1875 -13.1875 
Q 15.875 -1.703125 12.234375 9.375 
Q 8.59375 20.453125 8.59375 31.390625 
Q 8.59375 42.28125 12.203125 53.3125 
Q 15.828125 64.359375 23.1875 75.875 
z
" id="DejaVuSans-40"/>
       <path d="M 51.125 44 
L 36.921875 44 
L 32.8125 27.6875 
L 47.125 27.6875 
z
M 43.796875 71.78125 
L 38.71875 51.515625 
L 52.984375 51.515625 
L 58.109375 71.78125 
L 65.921875 71.78125 
L 60.890625 51.515625 
L 76.125 51.515625 
L 76.125 44 
L 58.984375 44 
L 54.984375 27.6875 
L 70.515625 27.6875 
L 70.515625 20.21875 
L 53.078125 20.21875 
L 48 0 
L 40.1875 0 
L 45.21875 20.21875 
L 30.90625 20.21875 
L 25.875 0 
L 18.015625 0 
L 23.09375 20.21875 
L 7.71875 20.21875 
L 7.71875 27.6875 
L 24.90625 27.6875 
L 29 44 
L 13.28125 44 
L 13.28125 51.515625 
L 30.90625 51.515625 
L 35.890625 71.78125 
z
" id="DejaVuSans-35"/>
       <path id="DejaVuSans-32"/>
       <path d="M 37.109375 75.984375 
L 37.109375 68.5 
L 28.515625 68.5 
Q 23.6875 68.5 21.796875 66.546875 
Q 19.921875 64.59375 19.921875 59.515625 
L 19.921875 54.6875 
L 34.71875 54.6875 
L 34.71875 47.703125 
L 19.921875 47.703125 
L 19.921875 0 
L 10.890625 0 
L 10.890625 47.703125 
L 2.296875 47.703125 
L 2.296875 54.6875 
L 10.890625 54.6875 
L 10.890625 58.5 
Q 10.890625 67.625 15.140625 71.796875 
Q 19.390625 75.984375 28.609375 75.984375 
z
" id="DejaVuSans-102"/>
       <path d="M 46 62.703125 
L 46 35.5 
L 73.1875 35.5 
L 73.1875 27.203125 
L 46 27.203125 
L 46 0 
L 37.796875 0 
L 37.796875 27.203125 
L 10.59375 27.203125 
L 10.59375 35.5 
L 37.796875 35.5 
L 37.796875 62.703125 
z
" id="DejaVuSans-43"/>
       <path d="M 8.015625 75.875 
L 15.828125 75.875 
Q 23.140625 64.359375 26.78125 53.3125 
Q 30.421875 42.28125 30.421875 31.390625 
Q 30.421875 20.453125 26.78125 9.375 
Q 23.140625 -1.703125 15.828125 -13.1875 
L 8.015625 -13.1875 
Q 14.5 -2 17.703125 9.0625 
Q 20.90625 20.125 20.90625 31.390625 
Q 20.90625 42.671875 17.703125 53.65625 
Q 14.5 64.65625 8.015625 75.875 
z
" id="DejaVuSans-41"/>
       <path d="M 4.890625 31.390625 
L 31.203125 31.390625 
L 31.203125 23.390625 
L 4.890625 23.390625 
z
" id="DejaVuSans-45"/>
       <path d="M 56.203125 29.59375 
L 56.203125 25.203125 
L 14.890625 25.203125 
Q 15.484375 15.921875 20.484375 11.0625 
Q 25.484375 6.203125 34.421875 6.203125 
Q 39.59375 6.203125 44.453125 7.46875 
Q 49.3125 8.734375 54.109375 11.28125 
L 54.109375 2.78125 
Q 49.265625 0.734375 44.1875 -0.34375 
Q 39.109375 -1.421875 33.890625 -1.421875 
Q 20.796875 -1.421875 13.15625 6.1875 
Q 5.515625 13.8125 5.515625 26.8125 
Q 5.515625 40.234375 12.765625 48.109375 
Q 20.015625 56 32.328125 56 
Q 43.359375 56 49.78125 48.890625 
Q 56.203125 41.796875 56.203125 29.59375 
z
M 47.21875 32.234375 
Q 47.125 39.59375 43.09375 43.984375 
Q 39.0625 48.390625 32.421875 48.390625 
Q 24.90625 48.390625 20.390625 44.140625 
Q 15.875 39.890625 15.1875 32.171875 
z
" id="DejaVuSans-101"/>
       <path d="M 2.984375 54.6875 
L 12.5 54.6875 
L 29.59375 8.796875 
L 46.6875 54.6875 
L 56.203125 54.6875 
L 35.6875 0 
L 23.484375 0 
z
" id="DejaVuSans-118"/>
       <path d="M 34.28125 27.484375 
Q 23.390625 27.484375 19.1875 25 
Q 14.984375 22.515625 14.984375 16.5 
Q 14.984375 11.71875 18.140625 8.90625 
Q 21.296875 6.109375 26.703125 6.109375 
Q 34.1875 6.109375 38.703125 11.40625 
Q 43.21875 16.703125 43.21875 25.484375 
L 43.21875 27.484375 
z
M 52.203125 31.203125 
L 52.203125 0 
L 43.21875 0 
L 43.21875 8.296875 
Q 40.140625 3.328125 35.546875 0.953125 
Q 30.953125 -1.421875 24.3125 -1.421875 
Q 15.921875 -1.421875 10.953125 3.296875 
Q 6 8.015625 6 15.921875 
Q 6 25.140625 12.171875 29.828125 
Q 18.359375 34.515625 30.609375 34.515625 
L 43.21875 34.515625 
L 43.21875 35.40625 
Q 43.21875 41.609375 39.140625 45 
Q 35.0625 48.390625 27.6875 48.390625 
Q 23 48.390625 18.546875 47.265625 
Q 14.109375 46.140625 10.015625 43.890625 
L 10.015625 52.203125 
Q 14.9375 54.109375 19.578125 55.046875 
Q 24.21875 56 28.609375 56 
Q 40.484375 56 46.34375 49.84375 
Q 52.203125 43.703125 52.203125 31.203125 
z
" id="DejaVuSans-97"/>
       <path d="M 44.28125 53.078125 
L 44.28125 44.578125 
Q 40.484375 46.53125 36.375 47.5 
Q 32.28125 48.484375 27.875 48.484375 
Q 21.1875 48.484375 17.84375 46.4375 
Q 14.5 44.390625 14.5 40.28125 
Q 14.5 37.15625 16.890625 35.375 
Q 19.28125 33.59375 26.515625 31.984375 
L 29.59375 31.296875 
Q 39.15625 29.25 43.1875 25.515625 
Q 47.21875 21.78125 47.21875 15.09375 
Q 47.21875 7.46875 41.1875 3.015625 
Q 35.15625 -1.421875 24.609375 -1.421875 
Q 20.21875 -1.421875 15.453125 -0.5625 
Q 10.6875 0.296875 5.421875 2 
L 5.421875 11.28125 
Q 10.40625 8.6875 15.234375 7.390625 
Q 20.0625 6.109375 24.8125 6.109375 
Q 31.15625 6.109375 34.5625 8.28125 
Q 37.984375 10.453125 37.984375 14.40625 
Q 37.984375 18.0625 35.515625 20.015625 
Q 33.0625 21.96875 24.703125 23.78125 
L 21.578125 24.515625 
Q 13.234375 26.265625 9.515625 29.90625 
Q 5.8125 33.546875 5.8125 39.890625 
Q 5.8125 47.609375 11.28125 51.796875 
Q 16.75 56 26.8125 56 
Q 31.78125 56 36.171875 55.265625 
Q 40.578125 54.546875 44.28125 53.078125 
z
" id="DejaVuSans-115"/>
       <path d="M 25.390625 72.90625 
L 33.6875 72.90625 
L 8.296875 -9.28125 
L 0 -9.28125 
z
" id="DejaVuSans-47"/>
       <path d="M 45.40625 46.390625 
L 45.40625 75.984375 
L 54.390625 75.984375 
L 54.390625 0 
L 45.40625 0 
L 45.40625 8.203125 
Q 42.578125 3.328125 38.25 0.953125 
Q 33.9375 -1.421875 27.875 -1.421875 
Q 17.96875 -1.421875 11.734375 6.484375 
Q 5.515625 14.40625 5.515625 27.296875 
Q 5.515625 40.1875 11.734375 48.09375 
Q 17.96875 56 27.875 56 
Q 33.9375 56 38.25 53.625 
Q 42.578125 51.265625 45.40625 46.390625 
z
M 14.796875 27.296875 
Q 14.796875 17.390625 18.875 11.75 
Q 22.953125 6.109375 30.078125 6.109375 
Q 37.203125 6.109375 41.296875 11.75 
Q 45.40625 17.390625 45.40625 27.296875 
Q 45.40625 37.203125 41.296875 42.84375 
Q 37.203125 48.484375 30.078125 48.484375 
Q 22.953125 48.484375 18.875 42.84375 
Q 14.796875 37.203125 14.796875 27.296875 
z
" id="DejaVuSans-100"/>
       <path d="M 9.421875 54.6875 
L 18.40625 54.6875 
L 18.40625 0 
L 9.421875 0 
z
M 9.421875 75.984375 
L 18.40625 75.984375 
L 18.40625 64.59375 
L 9.421875 64.59375 
z
" id="DejaVuSans-105"/>
       <path d="M 52 44.1875 
Q 55.375 50.25 60.0625 53.125 
Q 64.75 56 71.09375 56 
Q 79.640625 56 84.28125 50.015625 
Q 88.921875 44.046875 88.921875 33.015625 
L 88.921875 0 
L 79.890625 0 
L 79.890625 32.71875 
Q 79.890625 40.578125 77.09375 44.375 
Q 74.3125 48.1875 68.609375 48.1875 
Q 61.625 48.1875 57.5625 43.546875 
Q 53.515625 38.921875 53.515625 30.90625 
L 53.515625 0 
L 44.484375 0 
L 44.484375 32.71875 
Q 44.484375 40.625 41.703125 44.40625 
Q 38.921875 48.1875 33.109375 48.1875 
Q 26.21875 48.1875 22.15625 43.53125 
Q 18.109375 38.875 18.109375 30.90625 
L 18.109375 0 
L 9.078125 0 
L 9.078125 54.6875 
L 18.109375 54.6875 
L 18.109375 46.1875 
Q 21.1875 51.21875 25.484375 53.609375 
Q 29.78125 56 35.6875 56 
Q 41.65625 56 45.828125 52.96875 
Q 50 49.953125 52 44.1875 
z
" id="DejaVuSans-109"/>
       <path d="M 54.890625 33.015625 
L 54.890625 0 
L 45.90625 0 
L 45.90625 32.71875 
Q 45.90625 40.484375 42.875 44.328125 
Q 39.84375 48.1875 33.796875 48.1875 
Q 26.515625 48.1875 22.3125 43.546875 
Q 18.109375 38.921875 18.109375 30.90625 
L 18.109375 0 
L 9.078125 0 
L 9.078125 54.6875 
L 18.109375 54.6875 
L 18.109375 46.1875 
Q 21.34375 51.125 25.703125 53.5625 
Q 30.078125 56 35.796875 56 
Q 45.21875 56 50.046875 50.171875 
Q 54.890625 44.34375 54.890625 33.015625 
z
" id="DejaVuSans-110"/>
      </defs>
      <use xlink:href="#DejaVuSans-108"/>
      <use x="27.783203" xlink:href="#DejaVuSans-111"/>
      <use x="88.964844" xlink:href="#DejaVuSans-103"/>
      <use x="152.441406" xlink:href="#DejaVuSans-49"/>
      <use x="216.064453" xlink:href="#DejaVuSans-48"/>
      <use x="279.6875" xlink:href="#DejaVuSans-40"/>
      <use x="318.701172" xlink:href="#DejaVuSans-35"/>
      <use x="402.490234" xlink:href="#DejaVuSans-32"/>
      <use x="434.277344" xlink:href="#DejaVuSans-40"/>
      <use x="473.291016" xlink:href="#DejaVuSans-102"/>
      <use x="508.496094" xlink:href="#DejaVuSans-43"/>
      <use x="592.285156" xlink:href="#DejaVuSans-103"/>
      <use x="655.761719" xlink:href="#DejaVuSans-41"/>
      <use x="694.775391" xlink:href="#DejaVuSans-45"/>
      <use x="730.859375" xlink:href="#DejaVuSans-101"/>
      <use x="792.382812" xlink:href="#DejaVuSans-118"/>
      <use x="851.5625" xlink:href="#DejaVuSans-97"/>
      <use x="912.841797" xlink:href="#DejaVuSans-108"/>
      <use x="940.625" xlink:href="#DejaVuSans-115"/>
      <use x="992.724609" xlink:href="#DejaVuSans-32"/>
      <use x="1024.511719" xlink:href="#DejaVuSans-47"/>
      <use x="1058.203125" xlink:href="#DejaVuSans-32"/>
      <use x="1089.990234" xlink:href="#DejaVuSans-100"/>
      <use x="1153.466797" xlink:href="#DejaVuSans-105"/>
      <use x="1181.25" xlink:href="#DejaVuSans-109"/>
      <use x="1278.662109" xlink:href="#DejaVuSans-101"/>
      <use x="1340.185547" xlink:href="#DejaVuSans-110"/>
      <use x="1403.564453" xlink:href="#DejaVuSans-115"/>
      <use x="1455.664062" xlink:href="#DejaVuSans-105"/>
      <use x="1483.447266" xlink:href="#DejaVuSans-111"/>
      <use x="1544.628906" xlink:href="#DejaVuSans-110"/>
      <use x="1608.007812" xlink:href="#DejaVuSans-41"/>
     </g>
    </g>
   </g>
   <g id="matplotlib.axis_2">
    <g id="ytick_1">
     <g id="line2d_17">
      <path clip-path="url(#pc9aa9dd1c6)" d="M 57.6 298.944 
L 338.688 298.944 
" style="fill:none;stroke:#b0b0b0;stroke-linecap:square;stroke-width:0.8;"/>
     </g>
     <g id="line2d_18">
      <defs>
       <path d="M 0 0 
L -3.5 0 
" id="m78a7a95609" style="stroke:#000000;stroke-width:0.8;"/>
      </defs>
      <g>
       <use style="stroke:#000000;stroke-width:0.8;" x="57.6" xlink:href="#m78a7a95609" y="298.944"/>
      </g>
     </g>
     <g id="text_6">
      <!-- 0.0 -->
      <g transform="translate(25.155 305.02275)scale(0.16 -0.16)">
       <defs>
        <path d="M 10.6875 12.40625 
L 21 12.40625 
L 21 0 
L 10.6875 0 
z
" id="DejaVuSans-46"/>
       </defs>
       <use xlink:href="#DejaVuSans-48"/>
       <use x="63.623047" xlink:href="#DejaVuSans-46"/>
       <use x="95.410156" xlink:href="#DejaVuSans-48"/>
      </g>
     </g>
    </g>
    <g id="ytick_2">
     <g id="line2d_19">
      <path clip-path="url(#pc9aa9dd1c6)" d="M 57.6 245.22202 
L 338.688 245.22202 
" style="fill:none;stroke:#b0b0b0;stroke-linecap:square;stroke-width:0.8;"/>
     </g>
     <g id="line2d_20">
      <g>
       <use style="stroke:#000000;stroke-width:0.8;" x="57.6" xlink:href="#m78a7a95609" y="245.22202"/>
      </g>
     </g>
     <g id="text_7">
      <!-- 0.2 -->
      <g transform="translate(25.155 251.30077)scale(0.16 -0.16)">
       <use xlink:href="#DejaVuSans-48"/>
       <use x="63.623047" xlink:href="#DejaVuSans-46"/>
       <use x="95.410156" xlink:href="#DejaVuSans-50"/>
      </g>
     </g>
    </g>
    <g id="ytick_3">
     <g id="line2d_21">
      <path clip-path="url(#pc9aa9dd1c6)" d="M 57.6 191.50004 
L 338.688 191.50004 
" style="fill:none;stroke:#b0b0b0;stroke-linecap:square;stroke-width:0.8;"/>
     </g>
     <g id="line2d_22">
      <g>
       <use style="stroke:#000000;stroke-width:0.8;" x="57.6" xlink:href="#m78a7a95609" y="191.50004"/>
      </g>
     </g>
     <g id="text_8">
      <!-- 0.4 -->
      <g transform="translate(25.155 197.57879)scale(0.16 -0.16)">
       <use xlink:href="#DejaVuSans-48"/>
       <use x="63.623047" xlink:href="#DejaVuSans-46"/>
       <use x="95.410156" xlink:href="#DejaVuSans-52"/>
      </g>
     </g>
    </g>
    <g id="ytick_4">
     <g id="line2d_23">
      <path clip-path="url(#pc9aa9dd1c6)" d="M 57.6 137.778059 
L 338.688 137.778059 
" style="fill:none;stroke:#b0b0b0;stroke-linecap:square;stroke-width:0.8;"/>
     </g>
     <g id="line2d_24">
      <g>
       <use style="stroke:#000000;stroke-width:0.8;" x="57.6" xlink:href="#m78a7a95609" y="137.778059"/>
      </g>
     </g>
     <g id="text_9">
      <!-- 0.6 -->
      <g transform="translate(25.155 143.856809)scale(0.16 -0.16)">
       <use xlink:href="#DejaVuSans-48"/>
       <use x="63.623047" xlink:href="#DejaVuSans-46"/>
       <use x="95.410156" xlink:href="#DejaVuSans-54"/>
      </g>
     </g>
    </g>
    <g id="ytick_5">
     <g id="line2d_25">
      <path clip-path="url(#pc9aa9dd1c6)" d="M 57.6 84.056079 
L 338.688 84.056079 
" style="fill:none;stroke:#b0b0b0;stroke-linecap:square;stroke-width:0.8;"/>
     </g>
     <g id="line2d_26">
      <g>
       <use style="stroke:#000000;stroke-width:0.8;" x="57.6" xlink:href="#m78a7a95609" y="84.056079"/>
      </g>
     </g>
     <g id="text_10">
      <!-- 0.8 -->
      <g transform="translate(25.155 90.134829)scale(0.16 -0.16)">
       <defs>
        <path d="M 31.78125 34.625 
Q 24.75 34.625 20.71875 30.859375 
Q 16.703125 27.09375 16.703125 20.515625 
Q 16.703125 13.921875 20.71875 10.15625 
Q 24.75 6.390625 31.78125 6.390625 
Q 38.8125 6.390625 42.859375 10.171875 
Q 46.921875 13.96875 46.921875 20.515625 
Q 46.921875 27.09375 42.890625 30.859375 
Q 38.875 34.625 31.78125 34.625 
z
M 21.921875 38.8125 
Q 15.578125 40.375 12.03125 44.71875 
Q 8.5 49.078125 8.5 55.328125 
Q 8.5 64.0625 14.71875 69.140625 
Q 20.953125 74.21875 31.78125 74.21875 
Q 42.671875 74.21875 48.875 69.140625 
Q 55.078125 64.0625 55.078125 55.328125 
Q 55.078125 49.078125 51.53125 44.71875 
Q 48 40.375 41.703125 38.8125 
Q 48.828125 37.15625 52.796875 32.3125 
Q 56.78125 27.484375 56.78125 20.515625 
Q 56.78125 9.90625 50.3125 4.234375 
Q 43.84375 -1.421875 31.78125 -1.421875 
Q 19.734375 -1.421875 13.25 4.234375 
Q 6.78125 9.90625 6.78125 20.515625 
Q 6.78125 27.484375 10.78125 32.3125 
Q 14.796875 37.15625 21.921875 38.8125 
z
M 18.3125 54.390625 
Q 18.3125 48.734375 21.84375 45.5625 
Q 25.390625 42.390625 31.78125 42.390625 
Q 38.140625 42.390625 41.71875 45.5625 
Q 45.3125 48.734375 45.3125 54.390625 
Q 45.3125 60.0625 41.71875 63.234375 
Q 38.140625 66.40625 31.78125 66.40625 
Q 25.390625 66.40625 21.84375 63.234375 
Q 18.3125 60.0625 18.3125 54.390625 
z
" id="DejaVuSans-56"/>
       </defs>
       <use xlink:href="#DejaVuSans-48"/>
       <use x="63.623047" xlink:href="#DejaVuSans-46"/>
       <use x="95.410156" xlink:href="#DejaVuSans-56"/>
      </g>
     </g>
    </g>
    <g id="ytick_6">
     <g id="line2d_27">
      <path clip-path="url(#pc9aa9dd1c6)" d="M 57.6 30.334099 
L 338.688 30.334099 
" style="fill:none;stroke:#b0b0b0;stroke-linecap:square;stroke-width:0.8;"/>
     </g>
     <g id="line2d_28">
      <g>
       <use style="stroke:#000000;stroke-width:0.8;" x="57.6" xlink:href="#m78a7a95609" y="30.334099"/>
      </g>
     </g>
     <g id="text_11">
      <!-- 1.0 -->
      <g transform="translate(25.155 36.412849)scale(0.16 -0.16)">
       <use xlink:href="#DejaVuSans-49"/>
       <use x="63.623047" xlink:href="#DejaVuSans-46"/>
       <use x="95.410156" xlink:href="#DejaVuSans-48"/>
      </g>
     </g>
    </g>
    <g id="text_12">
     <!-- Fraction of function,target pairs -->
     <g transform="translate(17.619531 297.681)rotate(-90)scale(0.17 -0.17)">
      <defs>
       <path d="M 9.8125 72.90625 
L 51.703125 72.90625 
L 51.703125 64.59375 
L 19.671875 64.59375 
L 19.671875 43.109375 
L 48.578125 43.109375 
L 48.578125 34.8125 
L 19.671875 34.8125 
L 19.671875 0 
L 9.8125 0 
z
" id="DejaVuSans-70"/>
       <path d="M 41.109375 46.296875 
Q 39.59375 47.171875 37.8125 47.578125 
Q 36.03125 48 33.890625 48 
Q 26.265625 48 22.1875 43.046875 
Q 18.109375 38.09375 18.109375 28.8125 
L 18.109375 0 
L 9.078125 0 
L 9.078125 54.6875 
L 18.109375 54.6875 
L 18.109375 46.1875 
Q 20.953125 51.171875 25.484375 53.578125 
Q 30.03125 56 36.53125 56 
Q 37.453125 56 38.578125 55.875 
Q 39.703125 55.765625 41.0625 55.515625 
z
" id="DejaVuSans-114"/>
       <path d="M 48.78125 52.59375 
L 48.78125 44.1875 
Q 44.96875 46.296875 41.140625 47.34375 
Q 37.3125 48.390625 33.40625 48.390625 
Q 24.65625 48.390625 19.8125 42.84375 
Q 14.984375 37.3125 14.984375 27.296875 
Q 14.984375 17.28125 19.8125 11.734375 
Q 24.65625 6.203125 33.40625 6.203125 
Q 37.3125 6.203125 41.140625 7.25 
Q 44.96875 8.296875 48.78125 10.40625 
L 48.78125 2.09375 
Q 45.015625 0.34375 40.984375 -0.53125 
Q 36.96875 -1.421875 32.421875 -1.421875 
Q 20.0625 -1.421875 12.78125 6.34375 
Q 5.515625 14.109375 5.515625 27.296875 
Q 5.515625 40.671875 12.859375 48.328125 
Q 20.21875 56 33.015625 56 
Q 37.15625 56 41.109375 55.140625 
Q 45.0625 54.296875 48.78125 52.59375 
z
" id="DejaVuSans-99"/>
       <path d="M 18.3125 70.21875 
L 18.3125 54.6875 
L 36.8125 54.6875 
L 36.8125 47.703125 
L 18.3125 47.703125 
L 18.3125 18.015625 
Q 18.3125 11.328125 20.140625 9.421875 
Q 21.96875 7.515625 27.59375 7.515625 
L 36.8125 7.515625 
L 36.8125 0 
L 27.59375 0 
Q 17.1875 0 13.234375 3.875 
Q 9.28125 7.765625 9.28125 18.015625 
L 9.28125 47.703125 
L 2.6875 47.703125 
L 2.6875 54.6875 
L 9.28125 54.6875 
L 9.28125 70.21875 
z
" id="DejaVuSans-116"/>
       <path d="M 8.5 21.578125 
L 8.5 54.6875 
L 17.484375 54.6875 
L 17.484375 21.921875 
Q 17.484375 14.15625 20.5 10.265625 
Q 23.53125 6.390625 29.59375 6.390625 
Q 36.859375 6.390625 41.078125 11.03125 
Q 45.3125 15.671875 45.3125 23.6875 
L 45.3125 54.6875 
L 54.296875 54.6875 
L 54.296875 0 
L 45.3125 0 
L 45.3125 8.40625 
Q 42.046875 3.421875 37.71875 1 
Q 33.40625 -1.421875 27.6875 -1.421875 
Q 18.265625 -1.421875 13.375 4.4375 
Q 8.5 10.296875 8.5 21.578125 
z
M 31.109375 56 
z
" id="DejaVuSans-117"/>
       <path d="M 11.71875 12.40625 
L 22.015625 12.40625 
L 22.015625 4 
L 14.015625 -11.625 
L 7.71875 -11.625 
L 11.71875 4 
z
" id="DejaVuSans-44"/>
       <path d="M 18.109375 8.203125 
L 18.109375 -20.796875 
L 9.078125 -20.796875 
L 9.078125 54.6875 
L 18.109375 54.6875 
L 18.109375 46.390625 
Q 20.953125 51.265625 25.265625 53.625 
Q 29.59375 56 35.59375 56 
Q 45.5625 56 51.78125 48.09375 
Q 58.015625 40.1875 58.015625 27.296875 
Q 58.015625 14.40625 51.78125 6.484375 
Q 45.5625 -1.421875 35.59375 -1.421875 
Q 29.59375 -1.421875 25.265625 0.953125 
Q 20.953125 3.328125 18.109375 8.203125 
z
M 48.6875 27.296875 
Q 48.6875 37.203125 44.609375 42.84375 
Q 40.53125 48.484375 33.40625 48.484375 
Q 26.265625 48.484375 22.1875 42.84375 
Q 18.109375 37.203125 18.109375 27.296875 
Q 18.109375 17.390625 22.1875 11.75 
Q 26.265625 6.109375 33.40625 6.109375 
Q 40.53125 6.109375 44.609375 11.75 
Q 48.6875 17.390625 48.6875 27.296875 
z
" id="DejaVuSans-112"/>
      </defs>
      <use xlink:href="#DejaVuSans-70"/>
      <use x="50.269531" xlink:href="#DejaVuSans-114"/>
      <use x="91.382812" xlink:href="#DejaVuSans-97"/>
      <use x="152.662109" xlink:href="#DejaVuSans-99"/>
      <use x="207.642578" xlink:href="#DejaVuSans-116"/>
      <use x="246.851562" xlink:href="#DejaVuSans-105"/>
      <use x="274.634766" xlink:href="#DejaVuSans-111"/>
      <use x="335.816406" xlink:href="#DejaVuSans-110"/>
      <use x="399.195312" xlink:href="#DejaVuSans-32"/>
      <use x="430.982422" xlink:href="#DejaVuSans-111"/>
      <use x="492.164062" xlink:href="#DejaVuSans-102"/>
      <use x="527.369141" xlink:href="#DejaVuSans-32"/>
      <use x="559.15625" xlink:href="#DejaVuSans-102"/>
      <use x="594.361328" xlink:href="#DejaVuSans-117"/>
      <use x="657.740234" xlink:href="#DejaVuSans-110"/>
      <use x="721.119141" xlink:href="#DejaVuSans-99"/>
      <use x="776.099609" xlink:href="#DejaVuSans-116"/>
      <use x="815.308594" xlink:href="#DejaVuSans-105"/>
      <use x="843.091797" xlink:href="#DejaVuSans-111"/>
      <use x="904.273438" xlink:href="#DejaVuSans-110"/>
      <use x="967.652344" xlink:href="#DejaVuSans-44"/>
      <use x="999.439453" xlink:href="#DejaVuSans-116"/>
      <use x="1038.648438" xlink:href="#DejaVuSans-97"/>
      <use x="1099.927734" xlink:href="#DejaVuSans-114"/>
      <use x="1139.291016" xlink:href="#DejaVuSans-103"/>
      <use x="1202.767578" xlink:href="#DejaVuSans-101"/>
      <use x="1264.291016" xlink:href="#DejaVuSans-116"/>
      <use x="1303.5" xlink:href="#DejaVuSans-32"/>
      <use x="1335.287109" xlink:href="#DejaVuSans-112"/>
      <use x="1398.763672" xlink:href="#DejaVuSans-97"/>
      <use x="1460.042969" xlink:href="#DejaVuSans-105"/>
      <use x="1487.826172" xlink:href="#DejaVuSans-114"/>
      <use x="1528.939453" xlink:href="#DejaVuSans-115"/>
     </g>
    </g>
   </g>
   <g id="line2d_29">
    <defs>
     <path d="M 0 1.5 
C 0.397805 1.5 0.77937 1.341951 1.06066 1.06066 
C 1.341951 0.77937 1.5 0.397805 1.5 0 
C 1.5 -0.397805 1.341951 -0.77937 1.06066 -1.06066 
C 0.77937 -1.341951 0.397805 -1.5 0 -1.5 
C -0.397805 -1.5 -0.77937 -1.341951 -1.06066 -1.06066 
C -1.341951 -0.77937 -1.5 -0.397805 -1.5 0 
C -1.5 0.397805 -1.341951 0.77937 -1.06066 1.06066 
C -0.77937 1.341951 -0.397805 1.5 0 1.5 
z
" id="m875420b96e" style="stroke:#000080;"/>
    </defs>
    <g>
     <use style="fill:#000080;stroke:#000080;" x="230.000926" xlink:href="#m875420b96e" y="30.334099"/>
     <use style="fill:#000080;stroke:#000080;" x="230.000926" xlink:href="#m875420b96e" y="30.334099"/>
    </g>
   </g>
   <g id="line2d_30">
    <path d="M 45.512012 298.944 
L 45.512012 295.013123 
L 57.6 295.013123 
L 57.6 294.357977 
L 117.486268 294.357977 
L 117.486268 291.737393 
L 119.602714 291.737393 
L 119.602714 291.082247 
L 120.093994 291.082247 
L 120.093994 289.116809 
L 121.036887 289.116809 
L 121.036887 288.461662 
L 121.489881 288.461662 
L 121.489881 287.806516 
L 121.931406 287.806516 
L 121.931406 285.185932 
L 123.192626 285.185932 
L 123.192626 281.910201 
L 123.593547 281.910201 
L 123.593547 279.289617 
L 124.368753 279.289617 
L 124.368753 277.979325 
L 125.470548 277.979325 
L 125.470548 276.669033 
L 125.822869 276.669033 
L 125.822869 276.013887 
L 126.168212 276.013887 
L 126.168212 272.738156 
L 126.50685 272.738156 
L 126.50685 272.08301 
L 127.48501 272.08301 
L 127.48501 271.427864 
L 128.107907 271.427864 
L 128.107907 266.186695 
L 129.853291 266.186695 
L 129.853291 265.531549 
L 132.422528 265.531549 
L 132.422528 264.876403 
L 132.659801 264.876403 
L 132.659801 264.221257 
L 134.019394 264.221257 
L 134.019394 263.566111 
L 134.236034 263.566111 
L 134.236034 262.910965 
L 134.870259 262.910965 
L 134.870259 262.255818 
L 135.280614 262.255818 
L 135.280614 260.945526 
L 135.482227 260.945526 
L 135.482227 260.29038 
L 136.456742 260.29038 
L 136.456742 258.980088 
L 137.735587 258.980088 
L 137.735587 257.01465 
L 137.910857 257.01465 
L 137.910857 256.359504 
L 138.084384 256.359504 
L 138.084384 255.704357 
L 140.042245 255.704357 
L 140.042245 255.049211 
L 140.195896 255.049211 
L 140.195896 253.738919 
L 140.348205 253.738919 
L 140.348205 253.083773 
L 140.79731 253.083773 
L 140.79731 252.428627 
L 141.090414 252.428627 
L 141.090414 251.773481 
L 141.80232 251.773481 
L 141.80232 251.118335 
L 142.07914 251.118335 
L 142.07914 249.808043 
L 142.351634 249.808043 
L 142.351634 244.566874 
L 143.014805 244.566874 
L 143.014805 243.911728 
L 144.148442 243.911728 
L 144.148442 243.256582 
L 144.510517 243.256582 
L 144.510517 242.601435 
L 144.865226 242.601435 
L 144.865226 241.291143 
L 144.981877 241.291143 
L 144.981877 240.635997 
L 145.553708 240.635997 
L 145.553708 239.325705 
L 145.998045 239.325705 
L 146.107383 236.705121 
L 146.216039 236.705121 
L 146.324022 234.084536 
L 146.644018 234.084536 
L 146.644018 233.42939 
L 147.164632 233.42939 
L 147.164632 231.463952 
L 147.670154 231.463952 
L 147.670154 230.808806 
L 149.998846 230.808806 
L 149.998846 229.498513 
L 150.172372 229.498513 
L 150.172372 228.843367 
L 150.429467 228.843367 
L 150.429467 228.188221 
L 151.260066 228.188221 
L 151.260066 227.533075 
L 153.609024 227.533075 
L 153.609024 226.222783 
L 153.820412 226.222783 
L 153.820412 225.567637 
L 154.439623 225.567637 
L 154.439623 224.257345 
L 154.57429 224.257345 
L 154.57429 223.602199 
L 155.741666 223.602199 
L 155.741666 222.947052 
L 155.990803 222.947052 
L 155.990803 222.291906 
L 156.175347 222.291906 
L 156.175347 220.326468 
L 156.538679 220.326468 
L 156.538679 219.671322 
L 156.835778 219.671322 
L 156.894595 218.36103 
L 157.809652 218.36103 
L 157.809652 217.705884 
L 158.140788 217.705884 
L 158.140788 217.050738 
L 158.67908 217.050738 
L 158.784773 215.085299 
L 159.201253 215.085299 
L 159.201253 213.775007 
L 159.758143 213.775007 
L 159.857512 211.809569 
L 160.054568 211.809569 
L 160.054568 211.154423 
L 160.680044 211.154423 
L 160.680044 210.499277 
L 161.465522 210.499277 
L 161.465522 209.84413 
L 162.130378 209.84413 
L 162.217141 206.5684 
L 163.549667 206.5684 
L 163.549667 205.258108 
L 163.828065 205.258108 
L 163.828065 204.602962 
L 164.637547 204.602962 
L 164.637547 203.947816 
L 164.824867 203.947816 
L 164.899235 202.637523 
L 165.083779 202.637523 
L 165.120455 201.327231 
L 165.302685 201.327231 
L 165.302685 200.672085 
L 165.518877 200.672085 
L 165.518877 200.016939 
L 165.9084 200.016939 
L 165.943384 198.706647 
L 166.117256 198.706647 
L 166.151824 197.396355 
L 166.425924 197.396355 
L 166.493781 194.120624 
L 166.795913 194.120624 
L 166.862349 192.155186 
L 167.417059 192.155186 
L 167.417059 189.534601 
L 167.640438 189.534601 
L 167.735303 184.293433 
L 167.892273 184.293433 
L 167.985782 182.98314 
L 168.476198 182.98314 
L 168.476198 181.672848 
L 168.626667 181.672848 
L 168.686493 180.362556 
L 169.041203 180.362556 
L 169.041203 177.741972 
L 169.244833 177.741972 
L 169.27373 175.776533 
L 169.503198 175.776533 
L 169.588476 174.466241 
L 169.897641 174.466241 
L 169.897641 172.500803 
L 170.036379 172.500803 
L 170.091567 171.190511 
L 170.364915 171.190511 
L 170.364915 170.535364 
L 170.819995 170.535364 
L 170.872762 169.225072 
L 170.977818 169.225072 
L 170.977818 168.569926 
L 171.108254 168.569926 
L 171.108254 167.91478 
L 171.442893 167.91478 
L 171.54458 165.949342 
L 171.569909 165.949342 
L 171.67086 161.363319 
L 171.721118 161.363319 
L 171.771231 158.087589 
L 172.118046 158.087589 
L 172.118046 156.12215 
L 172.696997 156.12215 
L 172.744386 154.811858 
L 172.815229 154.811858 
L 172.815229 154.156712 
L 173.026049 154.156712 
L 173.026049 152.84642 
L 173.14208 152.84642 
L 173.211329 146.950105 
L 173.800244 146.950105 
L 173.800244 146.294959 
L 174.021557 146.294959 
L 174.021557 144.32952 
L 174.174823 144.32952 
L 174.283479 141.05379 
L 174.541525 141.05379 
L 174.584164 139.088352 
L 175.293514 139.088352 
L 175.334356 137.122913 
L 175.456309 137.122913 
L 175.456309 136.467767 
L 175.577416 136.467767 
L 175.637655 132.536891 
L 175.697687 132.536891 
L 175.757513 129.26116 
L 175.876553 129.26116 
L 175.876553 125.98543 
L 176.228874 125.98543 
L 176.286908 124.675137 
L 176.536182 124.675137 
L 176.536182 124.019991 
L 176.781943 124.019991 
L 176.838169 122.709699 
L 177.042792 122.709699 
L 177.042792 122.054553 
L 177.372536 122.054553 
L 177.390674 120.089115 
L 177.499105 120.089115 
L 177.588952 116.813384 
L 177.820411 116.813384 
L 177.838089 114.847946 
L 177.996389 114.847946 
L 177.996389 114.1928 
L 178.222537 114.1928 
L 178.222537 113.537654 
L 178.462846 113.537654 
L 178.530902 112.227362 
L 179.19724 112.227362 
L 179.213577 110.917069 
L 179.408431 110.917069 
L 179.408431 110.261923 
L 179.569163 110.261923 
L 179.569163 109.606777 
L 179.886249 109.606777 
L 179.917643 108.296485 
L 180.042657 108.296485 
L 180.042657 106.331047 
L 180.274668 106.331047 
L 180.274668 105.675901 
L 180.669651 105.675901 
L 180.669651 105.020754 
L 180.789406 105.020754 
L 180.893522 103.055316 
L 181.187615 103.055316 
L 181.187615 102.40017 
L 181.605428 102.40017 
L 181.690637 99.779586 
L 181.718947 99.779586 
L 181.718947 98.469293 
L 181.915844 98.469293 
L 181.999553 97.159001 
L 182.193325 97.159001 
L 182.193325 96.503855 
L 182.371348 96.503855 
L 182.371348 95.193563 
L 182.587988 95.193563 
L 182.601439 93.883271 
L 182.801969 93.883271 
L 182.855057 91.917832 
L 183.131146 91.917832 
L 183.131146 90.60754 
L 183.261097 90.60754 
L 183.261097 89.297248 
L 183.632568 89.297248 
L 183.721061 87.986956 
L 183.946572 87.986956 
L 184.033489 85.366371 
L 184.206035 85.366371 
L 184.206035 84.711225 
L 184.401161 84.711225 
L 184.485848 83.400933 
L 184.630074 83.400933 
L 184.630074 82.745787 
L 185.550905 82.745787 
L 185.550905 82.090641 
L 185.798914 82.090641 
L 185.798914 80.780349 
L 185.988171 80.780349 
L 186.065507 78.81491 
L 186.468683 78.81491 
L 186.468683 78.159764 
L 186.820572 78.159764 
L 186.820572 77.504618 
L 187.14479 77.504618 
L 187.14479 76.849472 
L 187.855453 76.849472 
L 187.855453 76.194326 
L 188.063125 76.194326 
L 188.063125 75.53918 
L 191.195103 75.53918 
L 191.195103 74.884034 
L 191.982092 74.884034 
L 191.982092 74.228888 
L 192.780157 74.228888 
L 192.810134 72.918596 
L 193.333831 72.918596 
L 193.333831 72.263449 
L 193.564818 72.263449 
L 193.564818 71.608303 
L 194.115355 71.608303 
L 194.115355 70.953157 
L 194.736424 70.953157 
L 194.82337 69.642865 
L 195.752213 69.642865 
L 195.752213 68.987719 
L 195.947208 68.987719 
L 195.947208 68.332573 
L 196.543638 68.332573 
L 196.543638 67.677427 
L 196.753934 67.677427 
L 196.753934 67.022281 
L 197.265938 67.022281 
L 197.312273 65.056842 
L 197.672921 65.056842 
L 197.729487 63.74655 
L 198.07616 63.74655 
L 198.087229 61.781112 
L 198.388906 61.781112 
L 198.388906 61.125966 
L 198.551284 61.125966 
L 198.588956 59.815674 
L 198.934932 59.815674 
L 198.934932 59.160527 
L 199.753393 59.160527 
L 199.753393 58.505381 
L 200.05253 58.505381 
L 200.05253 57.850235 
L 200.205097 57.850235 
L 200.22958 56.539943 
L 200.400006 56.539943 
L 200.467713 55.229651 
L 200.587968 55.229651 
L 200.587968 54.574505 
L 200.87324 54.574505 
L 200.967304 53.264213 
L 201.037519 53.264213 
L 201.037519 52.609066 
L 204.249747 52.609066 
L 204.304063 51.298774 
L 204.709913 51.298774 
L 204.76659 49.333336 
L 205.685045 49.333336 
L 205.738644 48.023044 
L 205.859529 48.023044 
L 205.859529 47.367898 
L 206.787497 47.367898 
L 206.787497 46.712752 
L 208.69197 46.712752 
L 208.69197 46.057605 
L 209.225868 46.057605 
L 209.225868 45.402459 
L 209.726882 45.402459 
L 209.726882 44.747313 
L 209.890738 44.747313 
L 209.93006 43.437021 
L 210.227699 43.437021 
L 210.315735 42.126729 
L 210.542028 42.126729 
L 210.542028 41.471583 
L 210.68232 41.471583 
L 210.68232 40.816437 
L 211.182927 40.816437 
L 211.188149 39.506144 
L 211.467804 39.506144 
L 211.50373 38.195852 
L 211.793544 38.195852 
L 211.793544 37.540706 
L 212.071178 37.540706 
L 212.071178 36.88556 
L 212.687936 36.88556 
L 212.687936 36.230414 
L 212.85717 36.230414 
L 212.85717 35.575268 
L 215.538668 35.575268 
L 215.538668 34.920122 
L 215.740889 34.920122 
L 215.789074 33.60983 
L 216.737243 33.60983 
L 216.737243 32.954683 
L 221.382368 32.954683 
L 221.392549 31.644391 
L 226.28146 31.644391 
L 226.28146 30.989245 
L 230.000926 30.989245 
L 230.000926 30.334099 
L 338.688 30.334099 
L 338.688 30.334099 
" style="fill:none;stroke:#000080;stroke-linecap:square;stroke-width:1.5;"/>
   </g>
   <g id="line2d_31">
    <defs>
     <path d="M 0 6 
C 1.591219 6 3.117479 5.367802 4.242641 4.242641 
C 5.367802 3.117479 6 1.591219 6 0 
C 6 -1.591219 5.367802 -3.117479 4.242641 -4.242641 
C 3.117479 -5.367802 1.591219 -6 0 -6 
C -1.591219 -6 -3.117479 -5.367802 -4.242641 -4.242641 
C -5.367802 -3.117479 -6 -1.591219 -6 0 
C -6 1.591219 -5.367802 3.117479 -4.242641 4.242641 
C -3.117479 5.367802 -1.591219 6 0 6 
z
" id="md714ed4450" style="stroke:#000080;stroke-width:1.5;"/>
    </defs>
    <g>
     <use style="fill-opacity:0;stroke:#000080;stroke-width:1.5;" x="123.192626" xlink:href="#md714ed4450" y="285.185932"/>
     <use style="fill-opacity:0;stroke:#000080;stroke-width:1.5;" x="163.828065" xlink:href="#md714ed4450" y="204.602962"/>
     <use style="fill-opacity:0;stroke:#000080;stroke-width:1.5;" x="182.371348" xlink:href="#md714ed4450" y="96.503855"/>
     <use style="fill-opacity:0;stroke:#000080;stroke-width:1.5;" x="230.000926" xlink:href="#md714ed4450" y="30.989245"/>
     <use style="fill-opacity:0;stroke:#000080;stroke-width:1.5;" x="230.000926" xlink:href="#md714ed4450" y="30.334099"/>
     <use style="fill-opacity:0;stroke:#000080;stroke-width:1.5;" x="338.688" xlink:href="#md714ed4450" y="30.334099"/>
    </g>
   </g>
   <g id="line2d_32">
    <path style="fill:none;stroke:#000080;stroke-linecap:square;stroke-width:1.5;"/>
    <g/>
   </g>
   <g id="line2d_33">
    <path clip-path="url(#pc9aa9dd1c6)" d="M 208.172269 46.712752 
" style="fill:none;stroke:#000080;stroke-linecap:square;stroke-width:1.5;"/>
    <defs>
     <path d="M -12 12 
L 12 -12 
M -12 -12 
L 12 12 
" id="m0b4c3ea19a" style="stroke:#000080;"/>
    </defs>
    <g clip-path="url(#pc9aa9dd1c6)">
     <use style="fill:#000080;stroke:#000080;" x="208.172269" xlink:href="#m0b4c3ea19a" y="46.712752"/>
    </g>
   </g>
   <g id="line2d_34">
    <defs>
     <path d="M 0 1.5 
C 0.397805 1.5 0.77937 1.341951 1.06066 1.06066 
C 1.341951 0.77937 1.5 0.397805 1.5 0 
C 1.5 -0.397805 1.341951 -0.77937 1.06066 -1.06066 
C 0.77937 -1.341951 0.397805 -1.5 0 -1.5 
C -0.397805 -1.5 -0.77937 -1.341951 -1.06066 -1.06066 
C -1.341951 -0.77937 -1.5 -0.397805 -1.5 0 
C -1.5 0.397805 -1.341951 0.77937 -1.06066 1.06066 
C -0.77937 1.341951 -0.397805 1.5 0 1.5 
z
" id="mc39f072cf0" style="stroke:#ff00ff;"/>
    </defs>
    <g>
     <use style="fill:#ff00ff;stroke:#ff00ff;" x="173.966492" xlink:href="#mc39f072cf0" y="259.635234"/>
     <use style="fill:#ff00ff;stroke:#ff00ff;" x="173.966492" xlink:href="#mc39f072cf0" y="259.635234"/>
    </g>
   </g>
   <g id="line2d_35">
    <path d="M 45.512012 298.944 
L 45.512012 295.013123 
L 87.329581 295.013123 
L 87.329581 294.357977 
L 92.73846 294.357977 
L 92.73846 289.116809 
L 94.921215 289.116809 
L 94.921215 288.461662 
L 99.41757 288.461662 
L 99.41757 287.806516 
L 100.934985 287.806516 
L 100.934985 287.15137 
L 108.006005 287.15137 
L 108.006005 286.496224 
L 108.948899 286.496224 
L 108.948899 284.530786 
L 110.694282 284.530786 
L 110.694282 283.87564 
L 115.077025 283.87564 
L 115.077025 283.220494 
L 115.711251 283.220494 
L 115.711251 282.565348 
L 118.838828 282.565348 
L 118.838828 281.910201 
L 122.988655 281.910201 
L 122.988655 280.599909 
L 123.192626 280.599909 
L 123.192626 279.289617 
L 123.394238 279.289617 
L 123.394238 278.634471 
L 125.470548 278.634471 
L 125.470548 277.979325 
L 125.822869 277.979325 
L 125.822869 277.324179 
L 127.165014 277.324179 
L 127.165014 276.669033 
L 129.147151 276.669033 
L 129.147151 275.35874 
L 129.853291 275.35874 
L 129.853291 274.703594 
L 131.814826 274.703594 
L 131.814826 274.048448 
L 133.239232 274.048448 
L 133.239232 273.393302 
L 133.46572 273.393302 
L 133.46572 272.738156 
L 134.12805 272.738156 
L 134.12805 272.08301 
L 139.413734 272.08301 
L 139.413734 270.772718 
L 139.8092 270.772718 
L 139.8092 270.117572 
L 139.887228 270.117572 
L 139.887228 269.462426 
L 140.79731 269.462426 
L 140.79731 268.807279 
L 141.235139 268.807279 
L 141.235139 268.152133 
L 141.80232 268.152133 
L 141.80232 267.496987 
L 142.619936 267.496987 
L 142.619936 266.841841 
L 144.026061 266.841841 
L 144.026061 266.186695 
L 146.161795 266.186695 
L 146.161795 265.531549 
L 149.286939 265.531549 
L 149.286939 264.876403 
L 150.38688 264.876403 
L 150.38688 264.221257 
L 150.808139 264.221257 
L 150.808139 263.566111 
L 154.77436 263.566111 
L 154.77436 262.910965 
L 156.923929 262.910965 
L 156.923929 262.255818 
L 157.528821 262.255818 
L 157.528821 261.600672 
L 160.200913 261.600672 
L 160.200913 260.945526 
L 164.218222 260.945526 
L 164.218222 260.29038 
L 173.966492 260.29038 
L 173.966492 259.635234 
L 338.688 259.635234 
" style="fill:none;stroke:#ff00ff;stroke-linecap:square;stroke-width:1.5;"/>
   </g>
   <g id="line2d_36">
    <defs>
     <path d="M -0 8.485281 
L 5.091169 0 
L 0 -8.485281 
L -5.091169 -0 
z
" id="m2561eb55bb" style="stroke:#ff00ff;stroke-linejoin:miter;stroke-width:1.5;"/>
    </defs>
    <g>
     <use style="fill-opacity:0;stroke:#ff00ff;stroke-linejoin:miter;stroke-width:1.5;" x="92.73846" xlink:href="#m2561eb55bb" y="294.357977"/>
     <use style="fill-opacity:0;stroke:#ff00ff;stroke-linejoin:miter;stroke-width:1.5;" x="154.77436" xlink:href="#m2561eb55bb" y="263.566111"/>
     <use style="fill-opacity:0;stroke:#ff00ff;stroke-linejoin:miter;stroke-width:1.5;" x="173.966492" xlink:href="#m2561eb55bb" y="260.29038"/>
     <use style="fill-opacity:0;stroke:#ff00ff;stroke-linejoin:miter;stroke-width:1.5;" x="173.966492" xlink:href="#m2561eb55bb" y="259.635234"/>
     <use style="fill-opacity:0;stroke:#ff00ff;stroke-linejoin:miter;stroke-width:1.5;" x="173.966492" xlink:href="#m2561eb55bb" y="259.635234"/>
     <use style="fill-opacity:0;stroke:#ff00ff;stroke-linejoin:miter;stroke-width:1.5;" x="338.688" xlink:href="#m2561eb55bb" y="259.635234"/>
    </g>
   </g>
   <g id="line2d_37">
    <path style="fill:none;stroke:#ff00ff;stroke-linecap:square;stroke-width:1.5;"/>
    <g/>
   </g>
   <g id="line2d_38">
    <path clip-path="url(#pc9aa9dd1c6)" d="M 108.483824 286.496224 
" style="fill:none;stroke:#ff00ff;stroke-linecap:square;stroke-width:1.5;"/>
    <defs>
     <path d="M -12 12 
L 12 -12 
M -12 -12 
L 12 12 
" id="m18b2a15331" style="stroke:#ff00ff;"/>
    </defs>
    <g clip-path="url(#pc9aa9dd1c6)">
     <use style="fill:#ff00ff;stroke:#ff00ff;" x="108.483824" xlink:href="#m18b2a15331" y="286.496224"/>
    </g>
   </g>
   <g id="line2d_39">
    <defs>
     <path d="M 0 1.5 
C 0.397805 1.5 0.77937 1.341951 1.06066 1.06066 
C 1.341951 0.77937 1.5 0.397805 1.5 0 
C 1.5 -0.397805 1.341951 -0.77937 1.06066 -1.06066 
C 0.77937 -1.341951 0.397805 -1.5 0 -1.5 
C -0.397805 -1.5 -0.77937 -1.341951 -1.06066 -1.06066 
C -1.341951 -0.77937 -1.5 -0.397805 -1.5 0 
C -1.5 0.397805 -1.341951 0.77937 -1.06066 1.06066 
C -0.77937 1.341951 -0.397805 1.5 0 1.5 
z
" id="m01864999b7" style="stroke:#ff7500;"/>
    </defs>
    <g>
     <use style="fill:#ff7500;stroke:#ff7500;" x="181.041188" xlink:href="#m01864999b7" y="30.334099"/>
     <use style="fill:#ff7500;stroke:#ff7500;" x="181.041188" xlink:href="#m01864999b7" y="30.334099"/>
    </g>
   </g>
   <g id="line2d_40">
    <path d="M 45.512012 298.944 
L 45.512012 295.013123 
L 85.66744 295.013123 
L 85.66744 294.357977 
L 105.951954 294.357977 
L 105.951954 293.702831 
L 122.362027 293.702831 
L 122.362027 292.392539 
L 126.839037 292.392539 
L 126.839037 290.427101 
L 127.799239 290.427101 
L 127.799239 289.771955 
L 129.433047 289.771955 
L 129.433047 289.116809 
L 130.263646 289.116809 
L 130.263646 288.461662 
L 131.439773 288.461662 
L 131.439773 287.806516 
L 132.541568 287.806516 
L 132.541568 285.841078 
L 134.019394 285.841078 
L 134.019394 285.185932 
L 134.450015 285.185932 
L 134.450015 283.87564 
L 136.170062 283.87564 
L 136.170062 283.220494 
L 136.456742 283.220494 
L 136.456742 281.255055 
L 136.645276 281.255055 
L 136.645276 279.944763 
L 137.016339 279.944763 
L 137.016339 279.289617 
L 137.735587 279.289617 
L 137.823442 273.393302 
L 138.341479 273.393302 
L 138.341479 272.738156 
L 138.927025 272.738156 
L 138.927025 270.117572 
L 139.572998 270.117572 
L 139.572998 268.152133 
L 139.8092 268.152133 
L 139.8092 265.531549 
L 139.964909 265.531549 
L 139.964909 264.876403 
L 140.272217 264.876403 
L 140.272217 262.910965 
L 140.423864 262.910965 
L 140.423864 262.255818 
L 141.090414 262.255818 
L 141.090414 261.600672 
L 141.235139 261.600672 
L 141.235139 260.29038 
L 141.732423 260.29038 
L 141.732423 258.980088 
L 141.871938 258.980088 
L 141.871938 258.324942 
L 143.014805 258.324942 
L 143.014805 256.359504 
L 143.273169 256.359504 
L 143.273169 255.049211 
L 143.464461 255.049211 
L 143.464461 254.394065 
L 143.716296 254.394065 
L 143.716296 253.738919 
L 143.840863 253.738919 
L 143.840863 253.083773 
L 143.964547 253.083773 
L 143.964547 252.428627 
L 144.390658 252.428627 
L 144.390658 251.118335 
L 146.324022 251.118335 
L 146.324022 250.463189 
L 146.906268 250.463189 
L 146.906268 248.49775 
L 147.368603 248.49775 
L 147.368603 247.187458 
L 147.818997 247.187458 
L 147.818997 246.532312 
L 148.112924 246.532312 
L 148.112924 245.877166 
L 148.449693 245.877166 
L 148.449693 244.566874 
L 148.639252 244.566874 
L 148.639252 243.911728 
L 149.058374 243.911728 
L 149.058374 243.256582 
L 149.241465 243.256582 
L 149.332295 240.635997 
L 149.646525 240.635997 
L 149.646525 239.980851 
L 149.779481 239.980851 
L 149.779481 239.325705 
L 149.911431 239.325705 
L 149.998846 238.015413 
L 150.301393 238.015413 
L 150.38688 236.705121 
L 150.640855 236.705121 
L 150.640855 236.049974 
L 150.766468 236.049974 
L 150.766468 235.394828 
L 151.097081 235.394828 
L 151.097081 234.739682 
L 151.621307 234.739682 
L 151.621307 234.084536 
L 152.130233 234.084536 
L 152.130233 232.774244 
L 152.474064 232.774244 
L 152.549559 230.15366 
L 152.811246 230.15366 
L 152.885298 227.533075 
L 152.959038 227.533075 
L 152.959038 226.877929 
L 153.820412 226.877929 
L 153.890309 224.912491 
L 153.959927 224.912491 
L 153.959927 223.602199 
L 154.269814 223.602199 
L 154.269814 222.947052 
L 154.405793 222.947052 
L 154.405793 222.291906 
L 154.54072 222.291906 
L 154.641235 220.326468 
L 155.070227 220.326468 
L 155.135299 219.016176 
L 155.200129 219.016176 
L 155.200129 218.36103 
L 155.61575 218.36103 
L 155.678822 216.395591 
L 155.897793 216.395591 
L 155.959855 215.085299 
L 156.205916 215.085299 
L 156.205916 214.430153 
L 156.357959 214.430153 
L 156.357959 213.119861 
L 156.478647 213.119861 
L 156.478647 212.464715 
L 156.687861 212.464715 
L 156.687861 211.154423 
L 156.806295 211.154423 
L 156.806295 209.188984 
L 157.069866 209.188984 
L 157.069866 208.533838 
L 157.358125 208.533838 
L 157.358125 207.878692 
L 157.613546 207.878692 
L 157.613546 207.223546 
L 157.809652 207.223546 
L 157.809652 206.5684 
L 157.976006 206.5684 
L 158.086033 204.602962 
L 158.222599 204.602962 
L 158.222599 203.292669 
L 158.385078 203.292669 
L 158.385078 201.982377 
L 158.625992 201.982377 
L 158.732007 199.361793 
L 158.915995 199.361793 
L 158.968208 197.396355 
L 159.201253 197.396355 
L 159.201253 196.086062 
L 159.354904 196.086062 
L 159.354904 195.430916 
L 159.582872 195.430916 
L 159.582872 194.77577 
L 159.906985 194.77577 
L 159.906985 194.120624 
L 160.054568 194.120624 
L 160.054568 193.465478 
L 160.225184 193.465478 
L 160.321935 192.155186 
L 160.37011 192.155186 
L 160.37011 188.879455 
L 160.489968 188.879455 
L 160.489968 188.224309 
L 160.680044 188.224309 
L 160.680044 186.914017 
L 160.844678 186.914017 
L 160.844678 186.258871 
L 161.100288 186.258871 
L 161.192316 184.293433 
L 161.397621 184.293433 
L 161.397621 183.638286 
L 161.689969 183.638286 
L 161.778945 181.672848 
L 161.911563 181.672848 
L 162.021314 179.70741 
L 162.260361 179.70741 
L 162.260361 179.052264 
L 162.53871 179.052264 
L 162.53871 177.741972 
L 163.082425 177.741972 
L 163.082425 177.086825 
L 163.246367 177.086825 
L 163.287113 174.466241 
L 163.428979 174.466241 
L 163.428979 173.811095 
L 163.609699 173.811095 
L 163.649606 172.500803 
L 164.121498 172.500803 
L 164.121498 171.190511 
L 164.237502 171.190511 
L 164.276 169.225072 
L 164.448194 169.225072 
L 164.524182 167.259634 
L 164.618704 167.259634 
L 164.618704 166.604488 
L 164.768882 166.604488 
L 164.768882 165.294196 
L 164.899235 165.294196 
L 164.9363 163.983903 
L 165.047026 163.983903 
L 165.047026 162.673611 
L 165.338904 162.673611 
L 165.447111 160.708173 
L 165.572509 160.708173 
L 165.572509 160.053027 
L 165.7501 160.053027 
L 165.7501 159.397881 
L 165.943384 159.397881 
L 166.030537 156.12215 
L 166.099947 156.12215 
L 166.099947 154.811858 
L 166.255117 154.811858 
L 166.255117 154.156712 
L 166.391896 154.156712 
L 166.391896 153.501566 
L 166.578233 153.501566 
L 166.578233 152.84642 
L 166.729224 152.84642 
L 166.829163 150.880981 
L 166.91201 150.880981 
L 166.978005 149.570689 
L 167.125588 149.570689 
L 167.125588 147.605251 
L 167.288118 147.605251 
L 167.336582 146.294959 
L 167.545055 146.294959 
L 167.640438 143.674374 
L 167.703739 143.674374 
L 167.751064 141.708936 
L 167.907893 141.708936 
L 167.907893 141.05379 
L 168.047843 141.05379 
L 168.109685 139.743498 
L 168.18668 139.743498 
L 168.278627 138.433206 
L 168.354881 138.433206 
L 168.354881 137.778059 
L 168.476198 137.778059 
L 168.476198 137.122913 
L 168.611679 137.122913 
L 168.671556 135.157475 
L 168.997257 135.157475 
L 168.997257 134.502329 
L 169.128764 134.502329 
L 169.215888 129.916306 
L 169.345764 129.916306 
L 169.431813 128.606014 
L 169.460402 128.606014 
L 169.560096 125.98543 
L 169.588476 125.98543 
L 169.616809 124.019991 
L 169.715615 124.019991 
L 169.771826 121.399407 
L 169.827856 121.399407 
L 169.827856 119.433969 
L 170.105336 119.433969 
L 170.105336 118.123676 
L 170.228776 118.123676 
L 170.28336 115.503092 
L 170.459584 115.503092 
L 170.459584 113.537654 
L 170.833202 113.537654 
L 170.833202 112.882508 
L 170.951613 112.882508 
L 171.056197 110.261923 
L 171.121244 110.261923 
L 171.198983 105.675901 
L 171.263501 105.675901 
L 171.314944 103.710462 
L 171.481095 103.710462 
L 171.481095 102.40017 
L 171.595202 102.40017 
L 171.696007 100.434732 
L 171.783736 100.434732 
L 171.858583 98.469293 
L 171.945501 98.469293 
L 172.044307 97.159001 
L 172.154799 97.159001 
L 172.240256 95.848709 
L 172.313173 95.848709 
L 172.42198 91.917832 
L 172.494143 91.917832 
L 172.494143 91.262686 
L 172.649478 91.262686 
L 172.732551 89.297248 
L 172.885786 89.297248 
L 172.97942 87.986956 
L 173.130511 87.986956 
L 173.234351 86.676664 
L 173.406055 86.676664 
L 173.406055 86.021518 
L 173.530906 86.021518 
L 173.530906 85.366371 
L 173.654869 85.366371 
L 173.654869 84.056079 
L 173.900183 84.056079 
L 173.988539 81.435495 
L 174.065485 81.435495 
L 174.065485 80.780349 
L 174.185719 80.780349 
L 174.229235 78.81491 
L 174.326753 78.81491 
L 174.348349 77.504618 
L 174.573514 77.504618 
L 174.66913 76.194326 
L 174.690307 76.194326 
L 174.743137 74.228888 
L 174.806323 74.228888 
L 174.806323 72.263449 
L 174.921573 72.263449 
L 175.015304 69.642865 
L 175.056802 69.642865 
L 175.056802 68.987719 
L 175.170413 68.987719 
L 175.170413 68.332573 
L 175.62763 68.332573 
L 175.717652 67.022281 
L 175.757513 67.022281 
L 175.866664 64.401696 
L 175.886437 64.401696 
L 175.886437 63.74655 
L 176.063387 63.74655 
L 176.063387 63.091404 
L 176.190077 63.091404 
L 176.190077 62.436258 
L 176.335123 62.436258 
L 176.392805 60.47082 
L 176.478973 60.47082 
L 176.564717 58.505381 
L 176.659495 58.505381 
L 176.687829 56.539943 
L 176.987223 56.539943 
L 177.088964 53.919359 
L 177.14421 53.919359 
L 177.226752 52.609066 
L 177.408792 52.609066 
L 177.499105 50.643628 
L 177.579988 50.643628 
L 177.678338 46.712752 
L 177.696161 46.712752 
L 177.79386 44.747313 
L 177.829252 44.747313 
L 177.829252 44.092167 
L 177.943781 44.092167 
L 177.987632 42.781875 
L 178.101129 42.781875 
L 178.118525 41.471583 
L 178.231177 41.471583 
L 178.231177 40.816437 
L 178.547874 40.816437 
L 178.56483 39.506144 
L 178.767027 39.506144 
L 178.767027 38.850998 
L 178.942047 38.850998 
L 178.942047 38.195852 
L 179.229898 38.195852 
L 179.319393 36.88556 
L 179.593145 36.88556 
L 179.593145 36.230414 
L 180.003686 36.230414 
L 180.104829 34.920122 
L 180.274668 34.920122 
L 180.290026 33.60983 
L 180.669651 33.60983 
L 180.669651 32.954683 
L 180.819217 32.954683 
L 180.893522 31.644391 
L 180.945347 31.644391 
L 181.041188 30.334099 
L 338.688 30.334099 
L 338.688 30.334099 
" style="fill:none;stroke:#ff7500;stroke-linecap:square;stroke-width:1.5;"/>
   </g>
   <g id="line2d_41">
    <defs>
     <path d="M 0 -6 
L -1.347084 -1.854102 
L -5.706339 -1.854102 
L -2.179628 0.708204 
L -3.526712 4.854102 
L -0 2.291796 
L 3.526712 4.854102 
L 2.179628 0.708204 
L 5.706339 -1.854102 
L 1.347084 -1.854102 
z
" id="m16ee5038e1" style="stroke:#ff7500;stroke-linejoin:bevel;stroke-width:1.5;"/>
    </defs>
    <g>
     <use style="fill-opacity:0;stroke:#ff7500;stroke-linejoin:bevel;stroke-width:1.5;" x="122.362027" xlink:href="#m16ee5038e1" y="293.702831"/>
     <use style="fill-opacity:0;stroke:#ff7500;stroke-linejoin:bevel;stroke-width:1.5;" x="166.030537" xlink:href="#m16ee5038e1" y="156.12215"/>
     <use style="fill-opacity:0;stroke:#ff7500;stroke-linejoin:bevel;stroke-width:1.5;" x="181.041188" xlink:href="#m16ee5038e1" y="30.989245"/>
     <use style="fill-opacity:0;stroke:#ff7500;stroke-linejoin:bevel;stroke-width:1.5;" x="181.041188" xlink:href="#m16ee5038e1" y="30.334099"/>
     <use style="fill-opacity:0;stroke:#ff7500;stroke-linejoin:bevel;stroke-width:1.5;" x="181.041188" xlink:href="#m16ee5038e1" y="30.334099"/>
     <use style="fill-opacity:0;stroke:#ff7500;stroke-linejoin:bevel;stroke-width:1.5;" x="338.688" xlink:href="#m16ee5038e1" y="30.334099"/>
    </g>
   </g>
   <g id="line2d_42">
    <path style="fill:none;stroke:#ff7500;stroke-linecap:square;stroke-width:1.5;"/>
    <g/>
   </g>
   <g id="line2d_43">
    <path clip-path="url(#pc9aa9dd1c6)" d="M 137.647286 279.289617 
" style="fill:none;stroke:#ff7500;stroke-linecap:square;stroke-width:1.5;"/>
    <defs>
     <path d="M -12 12 
L 12 -12 
M -12 -12 
L 12 12 
" id="m8ce03235ef" style="stroke:#ff7500;"/>
    </defs>
    <g clip-path="url(#pc9aa9dd1c6)">
     <use style="fill:#ff7500;stroke:#ff7500;" x="137.647286" xlink:href="#m8ce03235ef" y="279.289617"/>
    </g>
   </g>
   <g id="line2d_44">
    <defs>
     <path d="M 0 1.5 
C 0.397805 1.5 0.77937 1.341951 1.06066 1.06066 
C 1.341951 0.77937 1.5 0.397805 1.5 0 
C 1.5 -0.397805 1.341951 -0.77937 1.06066 -1.06066 
C 0.77937 -1.341951 0.397805 -1.5 0 -1.5 
C -0.397805 -1.5 -0.77937 -1.341951 -1.06066 -1.06066 
C -1.341951 -0.77937 -1.5 -0.397805 -1.5 0 
C -1.5 0.397805 -1.341951 0.77937 -1.06066 1.06066 
C -0.77937 1.341951 -0.397805 1.5 0 1.5 
z
" id="mbc9a60ba96" style="stroke:#6495ed;"/>
    </defs>
    <g>
     <use style="fill:#6495ed;stroke:#6495ed;" x="156.865211" xlink:href="#mbc9a60ba96" y="272.738156"/>
     <use style="fill:#6495ed;stroke:#6495ed;" x="156.865211" xlink:href="#mbc9a60ba96" y="272.738156"/>
    </g>
   </g>
   <g id="line2d_45">
    <path d="M 45.512012 298.944 
L 45.512012 296.323416 
L 83.830028 296.323416 
L 83.830028 295.66827 
L 87.329581 295.66827 
L 87.329581 295.013123 
L 92.73846 295.013123 
L 92.73846 294.357977 
L 100.192776 294.357977 
L 100.192776 293.702831 
L 101.646892 293.702831 
L 101.646892 293.047685 
L 104.23523 293.047685 
L 104.23523 292.392539 
L 110.694282 292.392539 
L 110.694282 291.737393 
L 111.505558 291.737393 
L 111.505558 291.082247 
L 112.280765 291.082247 
L 112.280765 290.427101 
L 113.382559 290.427101 
L 113.382559 289.771955 
L 114.080224 289.771955 
L 114.080224 287.806516 
L 114.751048 287.806516 
L 114.751048 286.496224 
L 115.077025 286.496224 
L 115.077025 285.841078 
L 115.397021 285.841078 
L 115.397021 285.185932 
L 122.782271 285.185932 
L 122.782271 284.530786 
L 124.368753 284.530786 
L 124.368753 283.87564 
L 125.647598 283.87564 
L 125.647598 283.220494 
L 126.50685 283.220494 
L 126.50685 282.565348 
L 127.642832 282.565348 
L 127.642832 281.910201 
L 129.574256 281.910201 
L 129.574256 281.255055 
L 129.991152 281.255055 
L 129.991152 280.599909 
L 130.531948 280.599909 
L 130.531948 279.944763 
L 133.689303 279.944763 
L 133.689303 279.289617 
L 136.266147 279.289617 
L 136.266147 278.634471 
L 138.510793 278.634471 
L 138.510793 277.979325 
L 139.730821 277.979325 
L 139.730821 277.324179 
L 141.941279 277.324179 
L 141.941279 276.669033 
L 143.273169 276.669033 
L 143.273169 276.013887 
L 145.384119 276.013887 
L 145.384119 275.35874 
L 148.306159 275.35874 
L 148.306159 274.703594 
L 155.647315 274.703594 
L 155.647315 274.048448 
L 155.741666 274.048448 
L 155.741666 273.393302 
L 156.865211 273.393302 
L 156.865211 272.738156 
L 338.688 272.738156 
" style="fill:none;stroke:#6495ed;stroke-linecap:square;stroke-width:1.5;"/>
   </g>
   <g id="line2d_46">
    <defs>
     <path d="M -0 6 
L 6 -6 
L -6 -6 
z
" id="ma3168343f8" style="stroke:#6495ed;stroke-linejoin:miter;stroke-width:1.5;"/>
    </defs>
    <g>
     <use style="fill-opacity:0;stroke:#6495ed;stroke-linejoin:miter;stroke-width:1.5;" x="133.689303" xlink:href="#ma3168343f8" y="279.289617"/>
     <use style="fill-opacity:0;stroke:#6495ed;stroke-linejoin:miter;stroke-width:1.5;" x="156.865211" xlink:href="#ma3168343f8" y="273.393302"/>
     <use style="fill-opacity:0;stroke:#6495ed;stroke-linejoin:miter;stroke-width:1.5;" x="156.865211" xlink:href="#ma3168343f8" y="272.738156"/>
     <use style="fill-opacity:0;stroke:#6495ed;stroke-linejoin:miter;stroke-width:1.5;" x="156.865211" xlink:href="#ma3168343f8" y="272.738156"/>
     <use style="fill-opacity:0;stroke:#6495ed;stroke-linejoin:miter;stroke-width:1.5;" x="156.865211" xlink:href="#ma3168343f8" y="272.738156"/>
     <use style="fill-opacity:0;stroke:#6495ed;stroke-linejoin:miter;stroke-width:1.5;" x="338.688" xlink:href="#ma3168343f8" y="272.738156"/>
    </g>
   </g>
   <g id="line2d_47">
    <path style="fill:none;stroke:#6495ed;stroke-linecap:square;stroke-width:1.5;"/>
    <g/>
   </g>
   <g id="line2d_48">
    <path clip-path="url(#pc9aa9dd1c6)" d="M 87.329581 295.013123 
" style="fill:none;stroke:#6495ed;stroke-linecap:square;stroke-width:1.5;"/>
    <defs>
     <path d="M -12 12 
L 12 -12 
M -12 -12 
L 12 12 
" id="ma1e1399dfd" style="stroke:#6495ed;"/>
    </defs>
    <g clip-path="url(#pc9aa9dd1c6)">
     <use style="fill:#6495ed;stroke:#6495ed;" x="87.329581" xlink:href="#ma1e1399dfd" y="295.013123"/>
    </g>
   </g>
   <g id="line2d_49">
    <path d="M 338.688 272.738156 
L 369.60768 293.571802 
" style="fill:none;stroke:#6495ed;stroke-linecap:square;stroke-width:1.5;"/>
    <g>
     <use style="fill-opacity:0;stroke:#6495ed;stroke-linejoin:miter;stroke-width:1.5;" x="338.688" xlink:href="#ma3168343f8" y="272.738156"/>
     <use style="fill-opacity:0;stroke:#6495ed;stroke-linejoin:miter;stroke-width:1.5;" x="369.60768" xlink:href="#ma3168343f8" y="293.571802"/>
    </g>
   </g>
   <g id="line2d_50">
    <path d="M 338.688 259.635234 
L 369.60768 207.616634 
" style="fill:none;stroke:#ff00ff;stroke-linecap:square;stroke-width:1.5;"/>
    <g>
     <use style="fill-opacity:0;stroke:#ff00ff;stroke-linejoin:miter;stroke-width:1.5;" x="338.688" xlink:href="#m2561eb55bb" y="259.635234"/>
     <use style="fill-opacity:0;stroke:#ff00ff;stroke-linejoin:miter;stroke-width:1.5;" x="369.60768" xlink:href="#m2561eb55bb" y="207.616634"/>
    </g>
   </g>
   <g id="line2d_51">
    <path d="M 338.688 30.334099 
L 369.60768 121.661465 
" style="fill:none;stroke:#000080;stroke-linecap:square;stroke-width:1.5;"/>
    <g>
     <use style="fill-opacity:0;stroke:#000080;stroke-width:1.5;" x="338.688" xlink:href="#md714ed4450" y="30.334099"/>
     <use style="fill-opacity:0;stroke:#000080;stroke-width:1.5;" x="369.60768" xlink:href="#md714ed4450" y="121.661465"/>
    </g>
   </g>
   <g id="line2d_52">
    <path d="M 338.688 30.334099 
L 369.60768 35.706297 
" style="fill:none;stroke:#ff7500;stroke-linecap:square;stroke-width:1.5;"/>
    <g>
     <use style="fill-opacity:0;stroke:#ff7500;stroke-linejoin:bevel;stroke-width:1.5;" x="338.688" xlink:href="#m16ee5038e1" y="30.334099"/>
     <use style="fill-opacity:0;stroke:#ff7500;stroke-linejoin:bevel;stroke-width:1.5;" x="369.60768" xlink:href="#m16ee5038e1" y="35.706297"/>
    </g>
   </g>
   <g id="line2d_53">
    <path d="M 338.688 298.944 
L 338.688 30.334099 
" style="fill:none;stroke:#000000;stroke-linecap:square;stroke-width:1.5;"/>
   </g>
   <g id="patch_3">
    <path d="M 57.6 298.944 
L 57.6 27.648 
" style="fill:none;stroke:#000000;stroke-linecap:square;stroke-linejoin:miter;stroke-width:0.8;"/>
   </g>
   <g id="patch_4">
    <path d="M 338.688 298.944 
L 338.688 27.648 
" style="fill:none;stroke:#000000;stroke-linecap:square;stroke-linejoin:miter;stroke-width:0.8;"/>
   </g>
   <g id="patch_5">
    <path d="M 57.6 298.944 
L 338.688 298.944 
" style="fill:none;stroke:#000000;stroke-linecap:square;stroke-linejoin:miter;stroke-width:0.8;"/>
   </g>
   <g id="patch_6">
    <path d="M 57.6 27.648 
L 338.688 27.648 
" style="fill:none;stroke:#000000;stroke-linecap:square;stroke-linejoin:miter;stroke-width:0.8;"/>
   </g>
   <g id="text_13">
    <!-- slsqp -->
    <g transform="translate(375.22944 298.262739)scale(0.17 -0.17)">
     <defs>
      <path d="M 14.796875 27.296875 
Q 14.796875 17.390625 18.875 11.75 
Q 22.953125 6.109375 30.078125 6.109375 
Q 37.203125 6.109375 41.296875 11.75 
Q 45.40625 17.390625 45.40625 27.296875 
Q 45.40625 37.203125 41.296875 42.84375 
Q 37.203125 48.484375 30.078125 48.484375 
Q 22.953125 48.484375 18.875 42.84375 
Q 14.796875 37.203125 14.796875 27.296875 
z
M 45.40625 8.203125 
Q 42.578125 3.328125 38.25 0.953125 
Q 33.9375 -1.421875 27.875 -1.421875 
Q 17.96875 -1.421875 11.734375 6.484375 
Q 5.515625 14.40625 5.515625 27.296875 
Q 5.515625 40.1875 11.734375 48.09375 
Q 17.96875 56 27.875 56 
Q 33.9375 56 38.25 53.625 
Q 42.578125 51.265625 45.40625 46.390625 
L 45.40625 54.6875 
L 54.390625 54.6875 
L 54.390625 -20.796875 
L 45.40625 -20.796875 
z
" id="DejaVuSans-113"/>
     </defs>
     <use xlink:href="#DejaVuSans-115"/>
     <use x="52.099609" xlink:href="#DejaVuSans-108"/>
     <use x="79.882812" xlink:href="#DejaVuSans-115"/>
     <use x="131.982422" xlink:href="#DejaVuSans-113"/>
     <use x="195.458984" xlink:href="#DejaVuSans-112"/>
    </g>
   </g>
   <g id="text_14">
    <!-- cobyla -->
    <g transform="translate(375.22944 212.307571)scale(0.17 -0.17)">
     <defs>
      <path d="M 48.6875 27.296875 
Q 48.6875 37.203125 44.609375 42.84375 
Q 40.53125 48.484375 33.40625 48.484375 
Q 26.265625 48.484375 22.1875 42.84375 
Q 18.109375 37.203125 18.109375 27.296875 
Q 18.109375 17.390625 22.1875 11.75 
Q 26.265625 6.109375 33.40625 6.109375 
Q 40.53125 6.109375 44.609375 11.75 
Q 48.6875 17.390625 48.6875 27.296875 
z
M 18.109375 46.390625 
Q 20.953125 51.265625 25.265625 53.625 
Q 29.59375 56 35.59375 56 
Q 45.5625 56 51.78125 48.09375 
Q 58.015625 40.1875 58.015625 27.296875 
Q 58.015625 14.40625 51.78125 6.484375 
Q 45.5625 -1.421875 35.59375 -1.421875 
Q 29.59375 -1.421875 25.265625 0.953125 
Q 20.953125 3.328125 18.109375 8.203125 
L 18.109375 0 
L 9.078125 0 
L 9.078125 75.984375 
L 18.109375 75.984375 
z
" id="DejaVuSans-98"/>
      <path d="M 32.171875 -5.078125 
Q 28.375 -14.84375 24.75 -17.8125 
Q 21.140625 -20.796875 15.09375 -20.796875 
L 7.90625 -20.796875 
L 7.90625 -13.28125 
L 13.1875 -13.28125 
Q 16.890625 -13.28125 18.9375 -11.515625 
Q 21 -9.765625 23.484375 -3.21875 
L 25.09375 0.875 
L 2.984375 54.6875 
L 12.5 54.6875 
L 29.59375 11.921875 
L 46.6875 54.6875 
L 56.203125 54.6875 
z
" id="DejaVuSans-121"/>
     </defs>
     <use xlink:href="#DejaVuSans-99"/>
     <use x="54.980469" xlink:href="#DejaVuSans-111"/>
     <use x="116.162109" xlink:href="#DejaVuSans-98"/>
     <use x="179.638672" xlink:href="#DejaVuSans-121"/>
     <use x="238.818359" xlink:href="#DejaVuSans-108"/>
     <use x="266.601562" xlink:href="#DejaVuSans-97"/>
    </g>
   </g>
   <g id="text_15">
    <!-- alN5 -->
    <g transform="translate(375.22944 126.352403)scale(0.17 -0.17)">
     <defs>
      <path d="M 9.8125 72.90625 
L 23.09375 72.90625 
L 55.421875 11.921875 
L 55.421875 72.90625 
L 64.984375 72.90625 
L 64.984375 0 
L 51.703125 0 
L 19.390625 60.984375 
L 19.390625 0 
L 9.8125 0 
z
" id="DejaVuSans-78"/>
      <path d="M 10.796875 72.90625 
L 49.515625 72.90625 
L 49.515625 64.59375 
L 19.828125 64.59375 
L 19.828125 46.734375 
Q 21.96875 47.46875 24.109375 47.828125 
Q 26.265625 48.1875 28.421875 48.1875 
Q 40.625 48.1875 47.75 41.5 
Q 54.890625 34.8125 54.890625 23.390625 
Q 54.890625 11.625 47.5625 5.09375 
Q 40.234375 -1.421875 26.90625 -1.421875 
Q 22.3125 -1.421875 17.546875 -0.640625 
Q 12.796875 0.140625 7.71875 1.703125 
L 7.71875 11.625 
Q 12.109375 9.234375 16.796875 8.0625 
Q 21.484375 6.890625 26.703125 6.890625 
Q 35.15625 6.890625 40.078125 11.328125 
Q 45.015625 15.765625 45.015625 23.390625 
Q 45.015625 31 40.078125 35.4375 
Q 35.15625 39.890625 26.703125 39.890625 
Q 22.75 39.890625 18.8125 39.015625 
Q 14.890625 38.140625 10.796875 36.28125 
z
" id="DejaVuSans-53"/>
     </defs>
     <use xlink:href="#DejaVuSans-97"/>
     <use x="61.279297" xlink:href="#DejaVuSans-108"/>
     <use x="89.0625" xlink:href="#DejaVuSans-78"/>
     <use x="163.867188" xlink:href="#DejaVuSans-53"/>
    </g>
   </g>
   <g id="text_16">
    <!-- l1p-cmaes -->
    <g transform="translate(375.22944 40.397235)scale(0.17 -0.17)">
     <use xlink:href="#DejaVuSans-108"/>
     <use x="27.783203" xlink:href="#DejaVuSans-49"/>
     <use x="91.40625" xlink:href="#DejaVuSans-112"/>
     <use x="154.882812" xlink:href="#DejaVuSans-45"/>
     <use x="190.966797" xlink:href="#DejaVuSans-99"/>
     <use x="245.947266" xlink:href="#DejaVuSans-109"/>
     <use x="343.359375" xlink:href="#DejaVuSans-97"/>
     <use x="404.638672" xlink:href="#DejaVuSans-101"/>
     <use x="466.162109" xlink:href="#DejaVuSans-115"/>
    </g>
   </g>
   <g id="text_17">
    <!-- bbob-constrained f5, 2-D -->
    <g transform="translate(60.41088 38.111366)scale(0.102 -0.102)">
     <defs>
      <path d="M 19.671875 64.796875 
L 19.671875 8.109375 
L 31.59375 8.109375 
Q 46.6875 8.109375 53.6875 14.9375 
Q 60.6875 21.78125 60.6875 36.53125 
Q 60.6875 51.171875 53.6875 57.984375 
Q 46.6875 64.796875 31.59375 64.796875 
z
M 9.8125 72.90625 
L 30.078125 72.90625 
Q 51.265625 72.90625 61.171875 64.09375 
Q 71.09375 55.28125 71.09375 36.53125 
Q 71.09375 17.671875 61.125 8.828125 
Q 51.171875 0 30.078125 0 
L 9.8125 0 
z
" id="DejaVuSans-68"/>
     </defs>
     <use xlink:href="#DejaVuSans-98"/>
     <use x="63.476562" xlink:href="#DejaVuSans-98"/>
     <use x="126.953125" xlink:href="#DejaVuSans-111"/>
     <use x="188.134766" xlink:href="#DejaVuSans-98"/>
     <use x="251.611328" xlink:href="#DejaVuSans-45"/>
     <use x="287.695312" xlink:href="#DejaVuSans-99"/>
     <use x="342.675781" xlink:href="#DejaVuSans-111"/>
     <use x="403.857422" xlink:href="#DejaVuSans-110"/>
     <use x="467.236328" xlink:href="#DejaVuSans-115"/>
     <use x="519.335938" xlink:href="#DejaVuSans-116"/>
     <use x="558.544922" xlink:href="#DejaVuSans-114"/>
     <use x="599.658203" xlink:href="#DejaVuSans-97"/>
     <use x="660.9375" xlink:href="#DejaVuSans-105"/>
     <use x="688.720703" xlink:href="#DejaVuSans-110"/>
     <use x="752.099609" xlink:href="#DejaVuSans-101"/>
     <use x="813.623047" xlink:href="#DejaVuSans-100"/>
     <use x="877.099609" xlink:href="#DejaVuSans-32"/>
     <use x="908.886719" xlink:href="#DejaVuSans-102"/>
     <use x="944.091797" xlink:href="#DejaVuSans-53"/>
     <use x="1007.714844" xlink:href="#DejaVuSans-44"/>
     <use x="1039.501953" xlink:href="#DejaVuSans-32"/>
     <use x="1071.289062" xlink:href="#DejaVuSans-50"/>
     <use x="1134.912109" xlink:href="#DejaVuSans-45"/>
     <use x="1170.996094" xlink:href="#DejaVuSans-68"/>
    </g>
    <!-- 41 targets: 100..1e-06 -->
    <g transform="translate(60.41088 49.533135)scale(0.102 -0.102)">
     <defs>
      <path d="M 11.71875 12.40625 
L 22.015625 12.40625 
L 22.015625 0 
L 11.71875 0 
z
M 11.71875 51.703125 
L 22.015625 51.703125 
L 22.015625 39.3125 
L 11.71875 39.3125 
z
" id="DejaVuSans-58"/>
     </defs>
     <use xlink:href="#DejaVuSans-52"/>
     <use x="63.623047" xlink:href="#DejaVuSans-49"/>
     <use x="127.246094" xlink:href="#DejaVuSans-32"/>
     <use x="159.033203" xlink:href="#DejaVuSans-116"/>
     <use x="198.242188" xlink:href="#DejaVuSans-97"/>
     <use x="259.521484" xlink:href="#DejaVuSans-114"/>
     <use x="298.884766" xlink:href="#DejaVuSans-103"/>
     <use x="362.361328" xlink:href="#DejaVuSans-101"/>
     <use x="423.884766" xlink:href="#DejaVuSans-116"/>
     <use x="463.09375" xlink:href="#DejaVuSans-115"/>
     <use x="515.193359" xlink:href="#DejaVuSans-58"/>
     <use x="548.884766" xlink:href="#DejaVuSans-32"/>
     <use x="580.671875" xlink:href="#DejaVuSans-49"/>
     <use x="644.294922" xlink:href="#DejaVuSans-48"/>
     <use x="707.917969" xlink:href="#DejaVuSans-48"/>
     <use x="771.541016" xlink:href="#DejaVuSans-46"/>
     <use x="803.328125" xlink:href="#DejaVuSans-46"/>
     <use x="835.115234" xlink:href="#DejaVuSans-49"/>
     <use x="898.738281" xlink:href="#DejaVuSans-101"/>
     <use x="960.261719" xlink:href="#DejaVuSans-45"/>
     <use x="996.345703" xlink:href="#DejaVuSans-48"/>
     <use x="1059.96875" xlink:href="#DejaVuSans-54"/>
    </g>
    <!-- 30, 15 instances -->
    <g transform="translate(60.41088 60.954904)scale(0.102 -0.102)">
     <defs>
      <path d="M 40.578125 39.3125 
Q 47.65625 37.796875 51.625 33 
Q 55.609375 28.21875 55.609375 21.1875 
Q 55.609375 10.40625 48.1875 4.484375 
Q 40.765625 -1.421875 27.09375 -1.421875 
Q 22.515625 -1.421875 17.65625 -0.515625 
Q 12.796875 0.390625 7.625 2.203125 
L 7.625 11.71875 
Q 11.71875 9.328125 16.59375 8.109375 
Q 21.484375 6.890625 26.8125 6.890625 
Q 36.078125 6.890625 40.9375 10.546875 
Q 45.796875 14.203125 45.796875 21.1875 
Q 45.796875 27.640625 41.28125 31.265625 
Q 36.765625 34.90625 28.71875 34.90625 
L 20.21875 34.90625 
L 20.21875 43.015625 
L 29.109375 43.015625 
Q 36.375 43.015625 40.234375 45.921875 
Q 44.09375 48.828125 44.09375 54.296875 
Q 44.09375 59.90625 40.109375 62.90625 
Q 36.140625 65.921875 28.71875 65.921875 
Q 24.65625 65.921875 20.015625 65.03125 
Q 15.375 64.15625 9.8125 62.3125 
L 9.8125 71.09375 
Q 15.4375 72.65625 20.34375 73.4375 
Q 25.25 74.21875 29.59375 74.21875 
Q 40.828125 74.21875 47.359375 69.109375 
Q 53.90625 64.015625 53.90625 55.328125 
Q 53.90625 49.265625 50.4375 45.09375 
Q 46.96875 40.921875 40.578125 39.3125 
z
" id="DejaVuSans-51"/>
     </defs>
     <use xlink:href="#DejaVuSans-51"/>
     <use x="63.623047" xlink:href="#DejaVuSans-48"/>
     <use x="127.246094" xlink:href="#DejaVuSans-44"/>
     <use x="159.033203" xlink:href="#DejaVuSans-32"/>
     <use x="190.820312" xlink:href="#DejaVuSans-49"/>
     <use x="254.443359" xlink:href="#DejaVuSans-53"/>
     <use x="318.066406" xlink:href="#DejaVuSans-32"/>
     <use x="349.853516" xlink:href="#DejaVuSans-105"/>
     <use x="377.636719" xlink:href="#DejaVuSans-110"/>
     <use x="441.015625" xlink:href="#DejaVuSans-115"/>
     <use x="493.115234" xlink:href="#DejaVuSans-116"/>
     <use x="532.324219" xlink:href="#DejaVuSans-97"/>
     <use x="593.603516" xlink:href="#DejaVuSans-110"/>
     <use x="656.982422" xlink:href="#DejaVuSans-99"/>
     <use x="711.962891" xlink:href="#DejaVuSans-101"/>
     <use x="773.486328" xlink:href="#DejaVuSans-115"/>
    </g>
   </g>
   <g id="text_18">
    <!-- v5z33 -->
    <g style="fill:#808080;" transform="translate(183.016656 294.151352)scale(0.1 -0.1)">
     <defs>
      <path d="M 5.515625 54.6875 
L 48.1875 54.6875 
L 48.1875 46.484375 
L 14.40625 7.171875 
L 48.1875 7.171875 
L 48.1875 0 
L 4.296875 0 
L 4.296875 8.203125 
L 38.09375 47.515625 
L 5.515625 47.515625 
z
" id="DejaVuSans-122"/>
     </defs>
     <use xlink:href="#DejaVuSans-118"/>
     <use x="59.179688" xlink:href="#DejaVuSans-53"/>
     <use x="122.802734" xlink:href="#DejaVuSans-122"/>
     <use x="175.292969" xlink:href="#DejaVuSans-51"/>
     <use x="238.916016" xlink:href="#DejaVuSans-51"/>
    </g>
   </g>
   <g id="text_19">
    <!-- 5 Sphere, n+6 constraints -->
    <g transform="translate(67.194 21.648)scale(0.2 -0.2)">
     <defs>
      <path d="M 53.515625 70.515625 
L 53.515625 60.890625 
Q 47.90625 63.578125 42.921875 64.890625 
Q 37.9375 66.21875 33.296875 66.21875 
Q 25.25 66.21875 20.875 63.09375 
Q 16.5 59.96875 16.5 54.203125 
Q 16.5 49.359375 19.40625 46.890625 
Q 22.3125 44.4375 30.421875 42.921875 
L 36.375 41.703125 
Q 47.40625 39.59375 52.65625 34.296875 
Q 57.90625 29 57.90625 20.125 
Q 57.90625 9.515625 50.796875 4.046875 
Q 43.703125 -1.421875 29.984375 -1.421875 
Q 24.8125 -1.421875 18.96875 -0.25 
Q 13.140625 0.921875 6.890625 3.21875 
L 6.890625 13.375 
Q 12.890625 10.015625 18.65625 8.296875 
Q 24.421875 6.59375 29.984375 6.59375 
Q 38.421875 6.59375 43.015625 9.90625 
Q 47.609375 13.234375 47.609375 19.390625 
Q 47.609375 24.75 44.3125 27.78125 
Q 41.015625 30.8125 33.5 32.328125 
L 27.484375 33.5 
Q 16.453125 35.6875 11.515625 40.375 
Q 6.59375 45.0625 6.59375 53.421875 
Q 6.59375 63.09375 13.40625 68.65625 
Q 20.21875 74.21875 32.171875 74.21875 
Q 37.3125 74.21875 42.625 73.28125 
Q 47.953125 72.359375 53.515625 70.515625 
z
" id="DejaVuSans-83"/>
      <path d="M 54.890625 33.015625 
L 54.890625 0 
L 45.90625 0 
L 45.90625 32.71875 
Q 45.90625 40.484375 42.875 44.328125 
Q 39.84375 48.1875 33.796875 48.1875 
Q 26.515625 48.1875 22.3125 43.546875 
Q 18.109375 38.921875 18.109375 30.90625 
L 18.109375 0 
L 9.078125 0 
L 9.078125 75.984375 
L 18.109375 75.984375 
L 18.109375 46.1875 
Q 21.34375 51.125 25.703125 53.5625 
Q 30.078125 56 35.796875 56 
Q 45.21875 56 50.046875 50.171875 
Q 54.890625 44.34375 54.890625 33.015625 
z
" id="DejaVuSans-104"/>
     </defs>
     <use xlink:href="#DejaVuSans-53"/>
     <use x="63.623047" xlink:href="#DejaVuSans-32"/>
     <use x="95.410156" xlink:href="#DejaVuSans-83"/>
     <use x="158.886719" xlink:href="#DejaVuSans-112"/>
     <use x="222.363281" xlink:href="#DejaVuSans-104"/>
     <use x="285.742188" xlink:href="#DejaVuSans-101"/>
     <use x="347.265625" xlink:href="#DejaVuSans-114"/>
     <use x="386.128906" xlink:href="#DejaVuSans-101"/>
     <use x="447.652344" xlink:href="#DejaVuSans-44"/>
     <use x="479.439453" xlink:href="#DejaVuSans-32"/>
     <use x="511.226562" xlink:href="#DejaVuSans-110"/>
     <use x="574.605469" xlink:href="#DejaVuSans-43"/>
     <use x="658.394531" xlink:href="#DejaVuSans-54"/>
     <use x="722.017578" xlink:href="#DejaVuSans-32"/>
     <use x="753.804688" xlink:href="#DejaVuSans-99"/>
     <use x="808.785156" xlink:href="#DejaVuSans-111"/>
     <use x="869.966797" xlink:href="#DejaVuSans-110"/>
     <use x="933.345703" xlink:href="#DejaVuSans-115"/>
     <use x="985.445312" xlink:href="#DejaVuSans-116"/>
     <use x="1024.654297" xlink:href="#DejaVuSans-114"/>
     <use x="1065.767578" xlink:href="#DejaVuSans-97"/>
     <use x="1127.046875" xlink:href="#DejaVuSans-105"/>
     <use x="1154.830078" xlink:href="#DejaVuSans-110"/>
     <use x="1218.208984" xlink:href="#DejaVuSans-116"/>
     <use x="1257.417969" xlink:href="#DejaVuSans-115"/>
    </g>
   </g>
  </g>
 </g>
 <defs>
  <clipPath id="pc9aa9dd1c6">
   <rect height="271.296" width="281.088" x="57.6" y="27.648"/>
  </clipPath>
 </defs>
</svg>
