<?xml version="1.0" encoding="utf-8" standalone="no"?>
<!DOCTYPE svg PUBLIC "-//W3C//DTD SVG 1.1//EN"
  "http://www.w3.org/Graphics/SVG/1.1/DTD/svg11.dtd">
<!-- Created with matplotlib (https://matplotlib.org/) -->
<svg height="345.6pt" version="1.1" viewBox="0 0 460.8 345.6" width="460.8pt" xmlns="http://www.w3.org/2000/svg" xmlns:xlink="http://www.w3.org/1999/xlink">
 <metadata>
  <rdf:RDF xmlns:cc="http://creativecommons.org/ns#" xmlns:dc="http://purl.org/dc/elements/1.1/" xmlns:rdf="http://www.w3.org/1999/02/22-rdf-syntax-ns#">
   <cc:Work>
    <dc:type rdf:resource="http://purl.org/dc/dcmitype/StillImage"/>
    <dc:date>2021-04-09T10:27:59.842040</dc:date>
    <dc:format>image/svg+xml</dc:format>
    <dc:creator>
     <cc:Agent>
      <dc:title>Matplotlib v3.3.3, https://matplotlib.org/</dc:title>
     </cc:Agent>
    </dc:creator>
   </cc:Work>
  </rdf:RDF>
 </metadata>
 <defs>
  <style type="text/css">*{stroke-linecap:butt;stroke-linejoin:round;}</style>
 </defs>
 <g id="figure_1">
  <g id="patch_1">
   <path d="M 0 345.6 
L 460.8 345.6 
L 460.8 0 
L 0 0 
z
" style="fill:#ffffff;"/>
  </g>
  <g id="axes_1">
   <g id="patch_2">
    <path d="M 57.6 298.944 
L 338.688 298.944 
L 338.688 27.648 
L 57.6 27.648 
z
" style="fill:#ffffff;"/>
   </g>
   <g id="matplotlib.axis_1">
    <g id="xtick_1">
     <g id="line2d_1">
      <path clip-path="url(#p6821169871)" d="M 57.6 298.944 
L 57.6 27.648 
" style="fill:none;stroke:#b0b0b0;stroke-linecap:square;stroke-width:0.8;"/>
     </g>
     <g id="line2d_2">
      <defs>
       <path d="M 0 0 
L 0 3.5 
" id="me91210c770" style="stroke:#000000;stroke-width:0.8;"/>
      </defs>
      <g>
       <use style="stroke:#000000;stroke-width:0.8;" x="57.6" xlink:href="#me91210c770" y="298.944"/>
      </g>
     </g>
     <g id="text_1">
      <!-- 0 -->
      <g transform="translate(51.2375 321.140875)scale(0.2 -0.2)">
       <defs>
        <path d="M 31.78125 66.40625 
Q 24.171875 66.40625 20.328125 58.90625 
Q 16.5 51.421875 16.5 36.375 
Q 16.5 21.390625 20.328125 13.890625 
Q 24.171875 6.390625 31.78125 6.390625 
Q 39.453125 6.390625 43.28125 13.890625 
Q 47.125 21.390625 47.125 36.375 
Q 47.125 51.421875 43.28125 58.90625 
Q 39.453125 66.40625 31.78125 66.40625 
z
M 31.78125 74.21875 
Q 44.046875 74.21875 50.515625 64.515625 
Q 56.984375 54.828125 56.984375 36.375 
Q 56.984375 17.96875 50.515625 8.265625 
Q 44.046875 -1.421875 31.78125 -1.421875 
Q 19.53125 -1.421875 13.0625 8.265625 
Q 6.59375 17.96875 6.59375 36.375 
Q 6.59375 54.828125 13.0625 64.515625 
Q 19.53125 74.21875 31.78125 74.21875 
z
" id="DejaVuSans-48"/>
       </defs>
       <use xlink:href="#DejaVuSans-48"/>
      </g>
     </g>
    </g>
    <g id="xtick_2">
     <g id="line2d_3">
      <path clip-path="url(#p6821169871)" d="M 137.910857 298.944 
L 137.910857 27.648 
" style="fill:none;stroke:#b0b0b0;stroke-linecap:square;stroke-width:0.8;"/>
     </g>
     <g id="line2d_4">
      <g>
       <use style="stroke:#000000;stroke-width:0.8;" x="137.910857" xlink:href="#me91210c770" y="298.944"/>
      </g>
     </g>
     <g id="text_2">
      <!-- 2 -->
      <g transform="translate(131.548357 321.140875)scale(0.2 -0.2)">
       <defs>
        <path d="M 19.1875 8.296875 
L 53.609375 8.296875 
L 53.609375 0 
L 7.328125 0 
L 7.328125 8.296875 
Q 12.9375 14.109375 22.625 23.890625 
Q 32.328125 33.6875 34.8125 36.53125 
Q 39.546875 41.84375 41.421875 45.53125 
Q 43.3125 49.21875 43.3125 52.78125 
Q 43.3125 58.59375 39.234375 62.25 
Q 35.15625 65.921875 28.609375 65.921875 
Q 23.96875 65.921875 18.8125 64.3125 
Q 13.671875 62.703125 7.8125 59.421875 
L 7.8125 69.390625 
Q 13.765625 71.78125 18.9375 73 
Q 24.125 74.21875 28.421875 74.21875 
Q 39.75 74.21875 46.484375 68.546875 
Q 53.21875 62.890625 53.21875 53.421875 
Q 53.21875 48.921875 51.53125 44.890625 
Q 49.859375 40.875 45.40625 35.40625 
Q 44.1875 33.984375 37.640625 27.21875 
Q 31.109375 20.453125 19.1875 8.296875 
z
" id="DejaVuSans-50"/>
       </defs>
       <use xlink:href="#DejaVuSans-50"/>
      </g>
     </g>
    </g>
    <g id="xtick_3">
     <g id="line2d_5">
      <path clip-path="url(#p6821169871)" d="M 218.221714 298.944 
L 218.221714 27.648 
" style="fill:none;stroke:#b0b0b0;stroke-linecap:square;stroke-width:0.8;"/>
     </g>
     <g id="line2d_6">
      <g>
       <use style="stroke:#000000;stroke-width:0.8;" x="218.221714" xlink:href="#me91210c770" y="298.944"/>
      </g>
     </g>
     <g id="text_3">
      <!-- 4 -->
      <g transform="translate(211.859214 321.140875)scale(0.2 -0.2)">
       <defs>
        <path d="M 37.796875 64.3125 
L 12.890625 25.390625 
L 37.796875 25.390625 
z
M 35.203125 72.90625 
L 47.609375 72.90625 
L 47.609375 25.390625 
L 58.015625 25.390625 
L 58.015625 17.1875 
L 47.609375 17.1875 
L 47.609375 0 
L 37.796875 0 
L 37.796875 17.1875 
L 4.890625 17.1875 
L 4.890625 26.703125 
z
" id="DejaVuSans-52"/>
       </defs>
       <use xlink:href="#DejaVuSans-52"/>
      </g>
     </g>
    </g>
    <g id="xtick_4">
     <g id="line2d_7">
      <path clip-path="url(#p6821169871)" d="M 298.532571 298.944 
L 298.532571 27.648 
" style="fill:none;stroke:#b0b0b0;stroke-linecap:square;stroke-width:0.8;"/>
     </g>
     <g id="line2d_8">
      <g>
       <use style="stroke:#000000;stroke-width:0.8;" x="298.532571" xlink:href="#me91210c770" y="298.944"/>
      </g>
     </g>
     <g id="text_4">
      <!-- 6 -->
      <g transform="translate(292.170071 321.140875)scale(0.2 -0.2)">
       <defs>
        <path d="M 33.015625 40.375 
Q 26.375 40.375 22.484375 35.828125 
Q 18.609375 31.296875 18.609375 23.390625 
Q 18.609375 15.53125 22.484375 10.953125 
Q 26.375 6.390625 33.015625 6.390625 
Q 39.65625 6.390625 43.53125 10.953125 
Q 47.40625 15.53125 47.40625 23.390625 
Q 47.40625 31.296875 43.53125 35.828125 
Q 39.65625 40.375 33.015625 40.375 
z
M 52.59375 71.296875 
L 52.59375 62.3125 
Q 48.875 64.0625 45.09375 64.984375 
Q 41.3125 65.921875 37.59375 65.921875 
Q 27.828125 65.921875 22.671875 59.328125 
Q 17.53125 52.734375 16.796875 39.40625 
Q 19.671875 43.65625 24.015625 45.921875 
Q 28.375 48.1875 33.59375 48.1875 
Q 44.578125 48.1875 50.953125 41.515625 
Q 57.328125 34.859375 57.328125 23.390625 
Q 57.328125 12.15625 50.6875 5.359375 
Q 44.046875 -1.421875 33.015625 -1.421875 
Q 20.359375 -1.421875 13.671875 8.265625 
Q 6.984375 17.96875 6.984375 36.375 
Q 6.984375 53.65625 15.1875 63.9375 
Q 23.390625 74.21875 37.203125 74.21875 
Q 40.921875 74.21875 44.703125 73.484375 
Q 48.484375 72.75 52.59375 71.296875 
z
" id="DejaVuSans-54"/>
       </defs>
       <use xlink:href="#DejaVuSans-54"/>
      </g>
     </g>
    </g>
    <g id="xtick_5">
     <g id="line2d_9">
      <path clip-path="url(#p6821169871)" d="M 97.755429 298.944 
L 97.755429 27.648 
" style="fill:none;stroke:#b0b0b0;stroke-linecap:square;stroke-width:0.8;"/>
     </g>
     <g id="line2d_10">
      <defs>
       <path d="M 0 0 
L 0 2 
" id="mda79a01bcd" style="stroke:#000000;stroke-width:0.6;"/>
      </defs>
      <g>
       <use style="stroke:#000000;stroke-width:0.6;" x="97.755429" xlink:href="#mda79a01bcd" y="298.944"/>
      </g>
     </g>
    </g>
    <g id="xtick_6">
     <g id="line2d_11">
      <path clip-path="url(#p6821169871)" d="M 178.066286 298.944 
L 178.066286 27.648 
" style="fill:none;stroke:#b0b0b0;stroke-linecap:square;stroke-width:0.8;"/>
     </g>
     <g id="line2d_12">
      <g>
       <use style="stroke:#000000;stroke-width:0.6;" x="178.066286" xlink:href="#mda79a01bcd" y="298.944"/>
      </g>
     </g>
    </g>
    <g id="xtick_7">
     <g id="line2d_13">
      <path clip-path="url(#p6821169871)" d="M 258.377143 298.944 
L 258.377143 27.648 
" style="fill:none;stroke:#b0b0b0;stroke-linecap:square;stroke-width:0.8;"/>
     </g>
     <g id="line2d_14">
      <g>
       <use style="stroke:#000000;stroke-width:0.6;" x="258.377143" xlink:href="#mda79a01bcd" y="298.944"/>
      </g>
     </g>
    </g>
    <g id="xtick_8">
     <g id="line2d_15">
      <path clip-path="url(#p6821169871)" d="M 338.688 298.944 
L 338.688 27.648 
" style="fill:none;stroke:#b0b0b0;stroke-linecap:square;stroke-width:0.8;"/>
     </g>
     <g id="line2d_16">
      <g>
       <use style="stroke:#000000;stroke-width:0.6;" x="338.688" xlink:href="#mda79a01bcd" y="298.944"/>
      </g>
     </g>
    </g>
    <g id="text_5">
     <!-- log10(# (f+g)-evals / dimension) -->
     <g transform="translate(58.145016 342.217594)scale(0.17 -0.17)">
      <defs>
       <path d="M 9.421875 75.984375 
L 18.40625 75.984375 
L 18.40625 0 
L 9.421875 0 
z
" id="DejaVuSans-108"/>
       <path d="M 30.609375 48.390625 
Q 23.390625 48.390625 19.1875 42.75 
Q 14.984375 37.109375 14.984375 27.296875 
Q 14.984375 17.484375 19.15625 11.84375 
Q 23.34375 6.203125 30.609375 6.203125 
Q 37.796875 6.203125 41.984375 11.859375 
Q 46.1875 17.53125 46.1875 27.296875 
Q 46.1875 37.015625 41.984375 42.703125 
Q 37.796875 48.390625 30.609375 48.390625 
z
M 30.609375 56 
Q 42.328125 56 49.015625 48.375 
Q 55.71875 40.765625 55.71875 27.296875 
Q 55.71875 13.875 49.015625 6.21875 
Q 42.328125 -1.421875 30.609375 -1.421875 
Q 18.84375 -1.421875 12.171875 6.21875 
Q 5.515625 13.875 5.515625 27.296875 
Q 5.515625 40.765625 12.171875 48.375 
Q 18.84375 56 30.609375 56 
z
" id="DejaVuSans-111"/>
       <path d="M 45.40625 27.984375 
Q 45.40625 37.75 41.375 43.109375 
Q 37.359375 48.484375 30.078125 48.484375 
Q 22.859375 48.484375 18.828125 43.109375 
Q 14.796875 37.75 14.796875 27.984375 
Q 14.796875 18.265625 18.828125 12.890625 
Q 22.859375 7.515625 30.078125 7.515625 
Q 37.359375 7.515625 41.375 12.890625 
Q 45.40625 18.265625 45.40625 27.984375 
z
M 54.390625 6.78125 
Q 54.390625 -7.171875 48.1875 -13.984375 
Q 42 -20.796875 29.203125 -20.796875 
Q 24.46875 -20.796875 20.265625 -20.09375 
Q 16.0625 -19.390625 12.109375 -17.921875 
L 12.109375 -9.1875 
Q 16.0625 -11.328125 19.921875 -12.34375 
Q 23.78125 -13.375 27.78125 -13.375 
Q 36.625 -13.375 41.015625 -8.765625 
Q 45.40625 -4.15625 45.40625 5.171875 
L 45.40625 9.625 
Q 42.625 4.78125 38.28125 2.390625 
Q 33.9375 0 27.875 0 
Q 17.828125 0 11.671875 7.65625 
Q 5.515625 15.328125 5.515625 27.984375 
Q 5.515625 40.671875 11.671875 48.328125 
Q 17.828125 56 27.875 56 
Q 33.9375 56 38.28125 53.609375 
Q 42.625 51.21875 45.40625 46.390625 
L 45.40625 54.6875 
L 54.390625 54.6875 
z
" id="DejaVuSans-103"/>
       <path d="M 12.40625 8.296875 
L 28.515625 8.296875 
L 28.515625 63.921875 
L 10.984375 60.40625 
L 10.984375 69.390625 
L 28.421875 72.90625 
L 38.28125 72.90625 
L 38.28125 8.296875 
L 54.390625 8.296875 
L 54.390625 0 
L 12.40625 0 
z
" id="DejaVuSans-49"/>
       <path d="M 31 75.875 
Q 24.46875 64.65625 21.28125 53.65625 
Q 18.109375 42.671875 18.109375 31.390625 
Q 18.109375 20.125 21.3125 9.0625 
Q 24.515625 -2 31 -13.1875 
L 23.1875 -13.1875 
Q 15.875 -1.703125 12.234375 9.375 
Q 8.59375 20.453125 8.59375 31.390625 
Q 8.59375 42.28125 12.203125 53.3125 
Q 15.828125 64.359375 23.1875 75.875 
z
" id="DejaVuSans-40"/>
       <path d="M 51.125 44 
L 36.921875 44 
L 32.8125 27.6875 
L 47.125 27.6875 
z
M 43.796875 71.78125 
L 38.71875 51.515625 
L 52.984375 51.515625 
L 58.109375 71.78125 
L 65.921875 71.78125 
L 60.890625 51.515625 
L 76.125 51.515625 
L 76.125 44 
L 58.984375 44 
L 54.984375 27.6875 
L 70.515625 27.6875 
L 70.515625 20.21875 
L 53.078125 20.21875 
L 48 0 
L 40.1875 0 
L 45.21875 20.21875 
L 30.90625 20.21875 
L 25.875 0 
L 18.015625 0 
L 23.09375 20.21875 
L 7.71875 20.21875 
L 7.71875 27.6875 
L 24.90625 27.6875 
L 29 44 
L 13.28125 44 
L 13.28125 51.515625 
L 30.90625 51.515625 
L 35.890625 71.78125 
z
" id="DejaVuSans-35"/>
       <path id="DejaVuSans-32"/>
       <path d="M 37.109375 75.984375 
L 37.109375 68.5 
L 28.515625 68.5 
Q 23.6875 68.5 21.796875 66.546875 
Q 19.921875 64.59375 19.921875 59.515625 
L 19.921875 54.6875 
L 34.71875 54.6875 
L 34.71875 47.703125 
L 19.921875 47.703125 
L 19.921875 0 
L 10.890625 0 
L 10.890625 47.703125 
L 2.296875 47.703125 
L 2.296875 54.6875 
L 10.890625 54.6875 
L 10.890625 58.5 
Q 10.890625 67.625 15.140625 71.796875 
Q 19.390625 75.984375 28.609375 75.984375 
z
" id="DejaVuSans-102"/>
       <path d="M 46 62.703125 
L 46 35.5 
L 73.1875 35.5 
L 73.1875 27.203125 
L 46 27.203125 
L 46 0 
L 37.796875 0 
L 37.796875 27.203125 
L 10.59375 27.203125 
L 10.59375 35.5 
L 37.796875 35.5 
L 37.796875 62.703125 
z
" id="DejaVuSans-43"/>
       <path d="M 8.015625 75.875 
L 15.828125 75.875 
Q 23.140625 64.359375 26.78125 53.3125 
Q 30.421875 42.28125 30.421875 31.390625 
Q 30.421875 20.453125 26.78125 9.375 
Q 23.140625 -1.703125 15.828125 -13.1875 
L 8.015625 -13.1875 
Q 14.5 -2 17.703125 9.0625 
Q 20.90625 20.125 20.90625 31.390625 
Q 20.90625 42.671875 17.703125 53.65625 
Q 14.5 64.65625 8.015625 75.875 
z
" id="DejaVuSans-41"/>
       <path d="M 4.890625 31.390625 
L 31.203125 31.390625 
L 31.203125 23.390625 
L 4.890625 23.390625 
z
" id="DejaVuSans-45"/>
       <path d="M 56.203125 29.59375 
L 56.203125 25.203125 
L 14.890625 25.203125 
Q 15.484375 15.921875 20.484375 11.0625 
Q 25.484375 6.203125 34.421875 6.203125 
Q 39.59375 6.203125 44.453125 7.46875 
Q 49.3125 8.734375 54.109375 11.28125 
L 54.109375 2.78125 
Q 49.265625 0.734375 44.1875 -0.34375 
Q 39.109375 -1.421875 33.890625 -1.421875 
Q 20.796875 -1.421875 13.15625 6.1875 
Q 5.515625 13.8125 5.515625 26.8125 
Q 5.515625 40.234375 12.765625 48.109375 
Q 20.015625 56 32.328125 56 
Q 43.359375 56 49.78125 48.890625 
Q 56.203125 41.796875 56.203125 29.59375 
z
M 47.21875 32.234375 
Q 47.125 39.59375 43.09375 43.984375 
Q 39.0625 48.390625 32.421875 48.390625 
Q 24.90625 48.390625 20.390625 44.140625 
Q 15.875 39.890625 15.1875 32.171875 
z
" id="DejaVuSans-101"/>
       <path d="M 2.984375 54.6875 
L 12.5 54.6875 
L 29.59375 8.796875 
L 46.6875 54.6875 
L 56.203125 54.6875 
L 35.6875 0 
L 23.484375 0 
z
" id="DejaVuSans-118"/>
       <path d="M 34.28125 27.484375 
Q 23.390625 27.484375 19.1875 25 
Q 14.984375 22.515625 14.984375 16.5 
Q 14.984375 11.71875 18.140625 8.90625 
Q 21.296875 6.109375 26.703125 6.109375 
Q 34.1875 6.109375 38.703125 11.40625 
Q 43.21875 16.703125 43.21875 25.484375 
L 43.21875 27.484375 
z
M 52.203125 31.203125 
L 52.203125 0 
L 43.21875 0 
L 43.21875 8.296875 
Q 40.140625 3.328125 35.546875 0.953125 
Q 30.953125 -1.421875 24.3125 -1.421875 
Q 15.921875 -1.421875 10.953125 3.296875 
Q 6 8.015625 6 15.921875 
Q 6 25.140625 12.171875 29.828125 
Q 18.359375 34.515625 30.609375 34.515625 
L 43.21875 34.515625 
L 43.21875 35.40625 
Q 43.21875 41.609375 39.140625 45 
Q 35.0625 48.390625 27.6875 48.390625 
Q 23 48.390625 18.546875 47.265625 
Q 14.109375 46.140625 10.015625 43.890625 
L 10.015625 52.203125 
Q 14.9375 54.109375 19.578125 55.046875 
Q 24.21875 56 28.609375 56 
Q 40.484375 56 46.34375 49.84375 
Q 52.203125 43.703125 52.203125 31.203125 
z
" id="DejaVuSans-97"/>
       <path d="M 44.28125 53.078125 
L 44.28125 44.578125 
Q 40.484375 46.53125 36.375 47.5 
Q 32.28125 48.484375 27.875 48.484375 
Q 21.1875 48.484375 17.84375 46.4375 
Q 14.5 44.390625 14.5 40.28125 
Q 14.5 37.15625 16.890625 35.375 
Q 19.28125 33.59375 26.515625 31.984375 
L 29.59375 31.296875 
Q 39.15625 29.25 43.1875 25.515625 
Q 47.21875 21.78125 47.21875 15.09375 
Q 47.21875 7.46875 41.1875 3.015625 
Q 35.15625 -1.421875 24.609375 -1.421875 
Q 20.21875 -1.421875 15.453125 -0.5625 
Q 10.6875 0.296875 5.421875 2 
L 5.421875 11.28125 
Q 10.40625 8.6875 15.234375 7.390625 
Q 20.0625 6.109375 24.8125 6.109375 
Q 31.15625 6.109375 34.5625 8.28125 
Q 37.984375 10.453125 37.984375 14.40625 
Q 37.984375 18.0625 35.515625 20.015625 
Q 33.0625 21.96875 24.703125 23.78125 
L 21.578125 24.515625 
Q 13.234375 26.265625 9.515625 29.90625 
Q 5.8125 33.546875 5.8125 39.890625 
Q 5.8125 47.609375 11.28125 51.796875 
Q 16.75 56 26.8125 56 
Q 31.78125 56 36.171875 55.265625 
Q 40.578125 54.546875 44.28125 53.078125 
z
" id="DejaVuSans-115"/>
       <path d="M 25.390625 72.90625 
L 33.6875 72.90625 
L 8.296875 -9.28125 
L 0 -9.28125 
z
" id="DejaVuSans-47"/>
       <path d="M 45.40625 46.390625 
L 45.40625 75.984375 
L 54.390625 75.984375 
L 54.390625 0 
L 45.40625 0 
L 45.40625 8.203125 
Q 42.578125 3.328125 38.25 0.953125 
Q 33.9375 -1.421875 27.875 -1.421875 
Q 17.96875 -1.421875 11.734375 6.484375 
Q 5.515625 14.40625 5.515625 27.296875 
Q 5.515625 40.1875 11.734375 48.09375 
Q 17.96875 56 27.875 56 
Q 33.9375 56 38.25 53.625 
Q 42.578125 51.265625 45.40625 46.390625 
z
M 14.796875 27.296875 
Q 14.796875 17.390625 18.875 11.75 
Q 22.953125 6.109375 30.078125 6.109375 
Q 37.203125 6.109375 41.296875 11.75 
Q 45.40625 17.390625 45.40625 27.296875 
Q 45.40625 37.203125 41.296875 42.84375 
Q 37.203125 48.484375 30.078125 48.484375 
Q 22.953125 48.484375 18.875 42.84375 
Q 14.796875 37.203125 14.796875 27.296875 
z
" id="DejaVuSans-100"/>
       <path d="M 9.421875 54.6875 
L 18.40625 54.6875 
L 18.40625 0 
L 9.421875 0 
z
M 9.421875 75.984375 
L 18.40625 75.984375 
L 18.40625 64.59375 
L 9.421875 64.59375 
z
" id="DejaVuSans-105"/>
       <path d="M 52 44.1875 
Q 55.375 50.25 60.0625 53.125 
Q 64.75 56 71.09375 56 
Q 79.640625 56 84.28125 50.015625 
Q 88.921875 44.046875 88.921875 33.015625 
L 88.921875 0 
L 79.890625 0 
L 79.890625 32.71875 
Q 79.890625 40.578125 77.09375 44.375 
Q 74.3125 48.1875 68.609375 48.1875 
Q 61.625 48.1875 57.5625 43.546875 
Q 53.515625 38.921875 53.515625 30.90625 
L 53.515625 0 
L 44.484375 0 
L 44.484375 32.71875 
Q 44.484375 40.625 41.703125 44.40625 
Q 38.921875 48.1875 33.109375 48.1875 
Q 26.21875 48.1875 22.15625 43.53125 
Q 18.109375 38.875 18.109375 30.90625 
L 18.109375 0 
L 9.078125 0 
L 9.078125 54.6875 
L 18.109375 54.6875 
L 18.109375 46.1875 
Q 21.1875 51.21875 25.484375 53.609375 
Q 29.78125 56 35.6875 56 
Q 41.65625 56 45.828125 52.96875 
Q 50 49.953125 52 44.1875 
z
" id="DejaVuSans-109"/>
       <path d="M 54.890625 33.015625 
L 54.890625 0 
L 45.90625 0 
L 45.90625 32.71875 
Q 45.90625 40.484375 42.875 44.328125 
Q 39.84375 48.1875 33.796875 48.1875 
Q 26.515625 48.1875 22.3125 43.546875 
Q 18.109375 38.921875 18.109375 30.90625 
L 18.109375 0 
L 9.078125 0 
L 9.078125 54.6875 
L 18.109375 54.6875 
L 18.109375 46.1875 
Q 21.34375 51.125 25.703125 53.5625 
Q 30.078125 56 35.796875 56 
Q 45.21875 56 50.046875 50.171875 
Q 54.890625 44.34375 54.890625 33.015625 
z
" id="DejaVuSans-110"/>
      </defs>
      <use xlink:href="#DejaVuSans-108"/>
      <use x="27.783203" xlink:href="#DejaVuSans-111"/>
      <use x="88.964844" xlink:href="#DejaVuSans-103"/>
      <use x="152.441406" xlink:href="#DejaVuSans-49"/>
      <use x="216.064453" xlink:href="#DejaVuSans-48"/>
      <use x="279.6875" xlink:href="#DejaVuSans-40"/>
      <use x="318.701172" xlink:href="#DejaVuSans-35"/>
      <use x="402.490234" xlink:href="#DejaVuSans-32"/>
      <use x="434.277344" xlink:href="#DejaVuSans-40"/>
      <use x="473.291016" xlink:href="#DejaVuSans-102"/>
      <use x="508.496094" xlink:href="#DejaVuSans-43"/>
      <use x="592.285156" xlink:href="#DejaVuSans-103"/>
      <use x="655.761719" xlink:href="#DejaVuSans-41"/>
      <use x="694.775391" xlink:href="#DejaVuSans-45"/>
      <use x="730.859375" xlink:href="#DejaVuSans-101"/>
      <use x="792.382812" xlink:href="#DejaVuSans-118"/>
      <use x="851.5625" xlink:href="#DejaVuSans-97"/>
      <use x="912.841797" xlink:href="#DejaVuSans-108"/>
      <use x="940.625" xlink:href="#DejaVuSans-115"/>
      <use x="992.724609" xlink:href="#DejaVuSans-32"/>
      <use x="1024.511719" xlink:href="#DejaVuSans-47"/>
      <use x="1058.203125" xlink:href="#DejaVuSans-32"/>
      <use x="1089.990234" xlink:href="#DejaVuSans-100"/>
      <use x="1153.466797" xlink:href="#DejaVuSans-105"/>
      <use x="1181.25" xlink:href="#DejaVuSans-109"/>
      <use x="1278.662109" xlink:href="#DejaVuSans-101"/>
      <use x="1340.185547" xlink:href="#DejaVuSans-110"/>
      <use x="1403.564453" xlink:href="#DejaVuSans-115"/>
      <use x="1455.664062" xlink:href="#DejaVuSans-105"/>
      <use x="1483.447266" xlink:href="#DejaVuSans-111"/>
      <use x="1544.628906" xlink:href="#DejaVuSans-110"/>
      <use x="1608.007812" xlink:href="#DejaVuSans-41"/>
     </g>
    </g>
   </g>
   <g id="matplotlib.axis_2">
    <g id="ytick_1">
     <g id="line2d_17">
      <path clip-path="url(#p6821169871)" d="M 57.6 298.944 
L 338.688 298.944 
" style="fill:none;stroke:#b0b0b0;stroke-linecap:square;stroke-width:0.8;"/>
     </g>
     <g id="line2d_18">
      <defs>
       <path d="M 0 0 
L -3.5 0 
" id="mb24fe7b207" style="stroke:#000000;stroke-width:0.8;"/>
      </defs>
      <g>
       <use style="stroke:#000000;stroke-width:0.8;" x="57.6" xlink:href="#mb24fe7b207" y="298.944"/>
      </g>
     </g>
     <g id="text_6">
      <!-- 0.0 -->
      <g transform="translate(25.155 305.02275)scale(0.16 -0.16)">
       <defs>
        <path d="M 10.6875 12.40625 
L 21 12.40625 
L 21 0 
L 10.6875 0 
z
" id="DejaVuSans-46"/>
       </defs>
       <use xlink:href="#DejaVuSans-48"/>
       <use x="63.623047" xlink:href="#DejaVuSans-46"/>
       <use x="95.410156" xlink:href="#DejaVuSans-48"/>
      </g>
     </g>
    </g>
    <g id="ytick_2">
     <g id="line2d_19">
      <path clip-path="url(#p6821169871)" d="M 57.6 245.22202 
L 338.688 245.22202 
" style="fill:none;stroke:#b0b0b0;stroke-linecap:square;stroke-width:0.8;"/>
     </g>
     <g id="line2d_20">
      <g>
       <use style="stroke:#000000;stroke-width:0.8;" x="57.6" xlink:href="#mb24fe7b207" y="245.22202"/>
      </g>
     </g>
     <g id="text_7">
      <!-- 0.2 -->
      <g transform="translate(25.155 251.30077)scale(0.16 -0.16)">
       <use xlink:href="#DejaVuSans-48"/>
       <use x="63.623047" xlink:href="#DejaVuSans-46"/>
       <use x="95.410156" xlink:href="#DejaVuSans-50"/>
      </g>
     </g>
    </g>
    <g id="ytick_3">
     <g id="line2d_21">
      <path clip-path="url(#p6821169871)" d="M 57.6 191.50004 
L 338.688 191.50004 
" style="fill:none;stroke:#b0b0b0;stroke-linecap:square;stroke-width:0.8;"/>
     </g>
     <g id="line2d_22">
      <g>
       <use style="stroke:#000000;stroke-width:0.8;" x="57.6" xlink:href="#mb24fe7b207" y="191.50004"/>
      </g>
     </g>
     <g id="text_8">
      <!-- 0.4 -->
      <g transform="translate(25.155 197.57879)scale(0.16 -0.16)">
       <use xlink:href="#DejaVuSans-48"/>
       <use x="63.623047" xlink:href="#DejaVuSans-46"/>
       <use x="95.410156" xlink:href="#DejaVuSans-52"/>
      </g>
     </g>
    </g>
    <g id="ytick_4">
     <g id="line2d_23">
      <path clip-path="url(#p6821169871)" d="M 57.6 137.778059 
L 338.688 137.778059 
" style="fill:none;stroke:#b0b0b0;stroke-linecap:square;stroke-width:0.8;"/>
     </g>
     <g id="line2d_24">
      <g>
       <use style="stroke:#000000;stroke-width:0.8;" x="57.6" xlink:href="#mb24fe7b207" y="137.778059"/>
      </g>
     </g>
     <g id="text_9">
      <!-- 0.6 -->
      <g transform="translate(25.155 143.856809)scale(0.16 -0.16)">
       <use xlink:href="#DejaVuSans-48"/>
       <use x="63.623047" xlink:href="#DejaVuSans-46"/>
       <use x="95.410156" xlink:href="#DejaVuSans-54"/>
      </g>
     </g>
    </g>
    <g id="ytick_5">
     <g id="line2d_25">
      <path clip-path="url(#p6821169871)" d="M 57.6 84.056079 
L 338.688 84.056079 
" style="fill:none;stroke:#b0b0b0;stroke-linecap:square;stroke-width:0.8;"/>
     </g>
     <g id="line2d_26">
      <g>
       <use style="stroke:#000000;stroke-width:0.8;" x="57.6" xlink:href="#mb24fe7b207" y="84.056079"/>
      </g>
     </g>
     <g id="text_10">
      <!-- 0.8 -->
      <g transform="translate(25.155 90.134829)scale(0.16 -0.16)">
       <defs>
        <path d="M 31.78125 34.625 
Q 24.75 34.625 20.71875 30.859375 
Q 16.703125 27.09375 16.703125 20.515625 
Q 16.703125 13.921875 20.71875 10.15625 
Q 24.75 6.390625 31.78125 6.390625 
Q 38.8125 6.390625 42.859375 10.171875 
Q 46.921875 13.96875 46.921875 20.515625 
Q 46.921875 27.09375 42.890625 30.859375 
Q 38.875 34.625 31.78125 34.625 
z
M 21.921875 38.8125 
Q 15.578125 40.375 12.03125 44.71875 
Q 8.5 49.078125 8.5 55.328125 
Q 8.5 64.0625 14.71875 69.140625 
Q 20.953125 74.21875 31.78125 74.21875 
Q 42.671875 74.21875 48.875 69.140625 
Q 55.078125 64.0625 55.078125 55.328125 
Q 55.078125 49.078125 51.53125 44.71875 
Q 48 40.375 41.703125 38.8125 
Q 48.828125 37.15625 52.796875 32.3125 
Q 56.78125 27.484375 56.78125 20.515625 
Q 56.78125 9.90625 50.3125 4.234375 
Q 43.84375 -1.421875 31.78125 -1.421875 
Q 19.734375 -1.421875 13.25 4.234375 
Q 6.78125 9.90625 6.78125 20.515625 
Q 6.78125 27.484375 10.78125 32.3125 
Q 14.796875 37.15625 21.921875 38.8125 
z
M 18.3125 54.390625 
Q 18.3125 48.734375 21.84375 45.5625 
Q 25.390625 42.390625 31.78125 42.390625 
Q 38.140625 42.390625 41.71875 45.5625 
Q 45.3125 48.734375 45.3125 54.390625 
Q 45.3125 60.0625 41.71875 63.234375 
Q 38.140625 66.40625 31.78125 66.40625 
Q 25.390625 66.40625 21.84375 63.234375 
Q 18.3125 60.0625 18.3125 54.390625 
z
" id="DejaVuSans-56"/>
       </defs>
       <use xlink:href="#DejaVuSans-48"/>
       <use x="63.623047" xlink:href="#DejaVuSans-46"/>
       <use x="95.410156" xlink:href="#DejaVuSans-56"/>
      </g>
     </g>
    </g>
    <g id="ytick_6">
     <g id="line2d_27">
      <path clip-path="url(#p6821169871)" d="M 57.6 30.334099 
L 338.688 30.334099 
" style="fill:none;stroke:#b0b0b0;stroke-linecap:square;stroke-width:0.8;"/>
     </g>
     <g id="line2d_28">
      <g>
       <use style="stroke:#000000;stroke-width:0.8;" x="57.6" xlink:href="#mb24fe7b207" y="30.334099"/>
      </g>
     </g>
     <g id="text_11">
      <!-- 1.0 -->
      <g transform="translate(25.155 36.412849)scale(0.16 -0.16)">
       <use xlink:href="#DejaVuSans-49"/>
       <use x="63.623047" xlink:href="#DejaVuSans-46"/>
       <use x="95.410156" xlink:href="#DejaVuSans-48"/>
      </g>
     </g>
    </g>
    <g id="text_12">
     <!-- Fraction of function,target pairs -->
     <g transform="translate(17.619531 297.681)rotate(-90)scale(0.17 -0.17)">
      <defs>
       <path d="M 9.8125 72.90625 
L 51.703125 72.90625 
L 51.703125 64.59375 
L 19.671875 64.59375 
L 19.671875 43.109375 
L 48.578125 43.109375 
L 48.578125 34.8125 
L 19.671875 34.8125 
L 19.671875 0 
L 9.8125 0 
z
" id="DejaVuSans-70"/>
       <path d="M 41.109375 46.296875 
Q 39.59375 47.171875 37.8125 47.578125 
Q 36.03125 48 33.890625 48 
Q 26.265625 48 22.1875 43.046875 
Q 18.109375 38.09375 18.109375 28.8125 
L 18.109375 0 
L 9.078125 0 
L 9.078125 54.6875 
L 18.109375 54.6875 
L 18.109375 46.1875 
Q 20.953125 51.171875 25.484375 53.578125 
Q 30.03125 56 36.53125 56 
Q 37.453125 56 38.578125 55.875 
Q 39.703125 55.765625 41.0625 55.515625 
z
" id="DejaVuSans-114"/>
       <path d="M 48.78125 52.59375 
L 48.78125 44.1875 
Q 44.96875 46.296875 41.140625 47.34375 
Q 37.3125 48.390625 33.40625 48.390625 
Q 24.65625 48.390625 19.8125 42.84375 
Q 14.984375 37.3125 14.984375 27.296875 
Q 14.984375 17.28125 19.8125 11.734375 
Q 24.65625 6.203125 33.40625 6.203125 
Q 37.3125 6.203125 41.140625 7.25 
Q 44.96875 8.296875 48.78125 10.40625 
L 48.78125 2.09375 
Q 45.015625 0.34375 40.984375 -0.53125 
Q 36.96875 -1.421875 32.421875 -1.421875 
Q 20.0625 -1.421875 12.78125 6.34375 
Q 5.515625 14.109375 5.515625 27.296875 
Q 5.515625 40.671875 12.859375 48.328125 
Q 20.21875 56 33.015625 56 
Q 37.15625 56 41.109375 55.140625 
Q 45.0625 54.296875 48.78125 52.59375 
z
" id="DejaVuSans-99"/>
       <path d="M 18.3125 70.21875 
L 18.3125 54.6875 
L 36.8125 54.6875 
L 36.8125 47.703125 
L 18.3125 47.703125 
L 18.3125 18.015625 
Q 18.3125 11.328125 20.140625 9.421875 
Q 21.96875 7.515625 27.59375 7.515625 
L 36.8125 7.515625 
L 36.8125 0 
L 27.59375 0 
Q 17.1875 0 13.234375 3.875 
Q 9.28125 7.765625 9.28125 18.015625 
L 9.28125 47.703125 
L 2.6875 47.703125 
L 2.6875 54.6875 
L 9.28125 54.6875 
L 9.28125 70.21875 
z
" id="DejaVuSans-116"/>
       <path d="M 8.5 21.578125 
L 8.5 54.6875 
L 17.484375 54.6875 
L 17.484375 21.921875 
Q 17.484375 14.15625 20.5 10.265625 
Q 23.53125 6.390625 29.59375 6.390625 
Q 36.859375 6.390625 41.078125 11.03125 
Q 45.3125 15.671875 45.3125 23.6875 
L 45.3125 54.6875 
L 54.296875 54.6875 
L 54.296875 0 
L 45.3125 0 
L 45.3125 8.40625 
Q 42.046875 3.421875 37.71875 1 
Q 33.40625 -1.421875 27.6875 -1.421875 
Q 18.265625 -1.421875 13.375 4.4375 
Q 8.5 10.296875 8.5 21.578125 
z
M 31.109375 56 
z
" id="DejaVuSans-117"/>
       <path d="M 11.71875 12.40625 
L 22.015625 12.40625 
L 22.015625 4 
L 14.015625 -11.625 
L 7.71875 -11.625 
L 11.71875 4 
z
" id="DejaVuSans-44"/>
       <path d="M 18.109375 8.203125 
L 18.109375 -20.796875 
L 9.078125 -20.796875 
L 9.078125 54.6875 
L 18.109375 54.6875 
L 18.109375 46.390625 
Q 20.953125 51.265625 25.265625 53.625 
Q 29.59375 56 35.59375 56 
Q 45.5625 56 51.78125 48.09375 
Q 58.015625 40.1875 58.015625 27.296875 
Q 58.015625 14.40625 51.78125 6.484375 
Q 45.5625 -1.421875 35.59375 -1.421875 
Q 29.59375 -1.421875 25.265625 0.953125 
Q 20.953125 3.328125 18.109375 8.203125 
z
M 48.6875 27.296875 
Q 48.6875 37.203125 44.609375 42.84375 
Q 40.53125 48.484375 33.40625 48.484375 
Q 26.265625 48.484375 22.1875 42.84375 
Q 18.109375 37.203125 18.109375 27.296875 
Q 18.109375 17.390625 22.1875 11.75 
Q 26.265625 6.109375 33.40625 6.109375 
Q 40.53125 6.109375 44.609375 11.75 
Q 48.6875 17.390625 48.6875 27.296875 
z
" id="DejaVuSans-112"/>
      </defs>
      <use xlink:href="#DejaVuSans-70"/>
      <use x="50.269531" xlink:href="#DejaVuSans-114"/>
      <use x="91.382812" xlink:href="#DejaVuSans-97"/>
      <use x="152.662109" xlink:href="#DejaVuSans-99"/>
      <use x="207.642578" xlink:href="#DejaVuSans-116"/>
      <use x="246.851562" xlink:href="#DejaVuSans-105"/>
      <use x="274.634766" xlink:href="#DejaVuSans-111"/>
      <use x="335.816406" xlink:href="#DejaVuSans-110"/>
      <use x="399.195312" xlink:href="#DejaVuSans-32"/>
      <use x="430.982422" xlink:href="#DejaVuSans-111"/>
      <use x="492.164062" xlink:href="#DejaVuSans-102"/>
      <use x="527.369141" xlink:href="#DejaVuSans-32"/>
      <use x="559.15625" xlink:href="#DejaVuSans-102"/>
      <use x="594.361328" xlink:href="#DejaVuSans-117"/>
      <use x="657.740234" xlink:href="#DejaVuSans-110"/>
      <use x="721.119141" xlink:href="#DejaVuSans-99"/>
      <use x="776.099609" xlink:href="#DejaVuSans-116"/>
      <use x="815.308594" xlink:href="#DejaVuSans-105"/>
      <use x="843.091797" xlink:href="#DejaVuSans-111"/>
      <use x="904.273438" xlink:href="#DejaVuSans-110"/>
      <use x="967.652344" xlink:href="#DejaVuSans-44"/>
      <use x="999.439453" xlink:href="#DejaVuSans-116"/>
      <use x="1038.648438" xlink:href="#DejaVuSans-97"/>
      <use x="1099.927734" xlink:href="#DejaVuSans-114"/>
      <use x="1139.291016" xlink:href="#DejaVuSans-103"/>
      <use x="1202.767578" xlink:href="#DejaVuSans-101"/>
      <use x="1264.291016" xlink:href="#DejaVuSans-116"/>
      <use x="1303.5" xlink:href="#DejaVuSans-32"/>
      <use x="1335.287109" xlink:href="#DejaVuSans-112"/>
      <use x="1398.763672" xlink:href="#DejaVuSans-97"/>
      <use x="1460.042969" xlink:href="#DejaVuSans-105"/>
      <use x="1487.826172" xlink:href="#DejaVuSans-114"/>
      <use x="1528.939453" xlink:href="#DejaVuSans-115"/>
     </g>
    </g>
   </g>
   <g id="line2d_29">
    <defs>
     <path d="M 0 1.5 
C 0.397805 1.5 0.77937 1.341951 1.06066 1.06066 
C 1.341951 0.77937 1.5 0.397805 1.5 0 
C 1.5 -0.397805 1.341951 -0.77937 1.06066 -1.06066 
C 0.77937 -1.341951 0.397805 -1.5 0 -1.5 
C -0.397805 -1.5 -0.77937 -1.341951 -1.06066 -1.06066 
C -1.341951 -0.77937 -1.5 -0.397805 -1.5 0 
C -1.5 0.397805 -1.341951 0.77937 -1.06066 1.06066 
C -0.77937 1.341951 -0.397805 1.5 0 1.5 
z
" id="m51fde2aefc" style="stroke:#000080;"/>
    </defs>
    <g>
     <use style="fill:#000080;stroke:#000080;" x="219.620284" xlink:href="#m51fde2aefc" y="30.334099"/>
     <use style="fill:#000080;stroke:#000080;" x="219.620284" xlink:href="#m51fde2aefc" y="30.334099"/>
    </g>
   </g>
   <g id="line2d_30">
    <path d="M 45.512012 298.944 
L 45.512012 295.013123 
L 76.759008 295.013123 
L 76.759008 294.357977 
L 95.918017 294.357977 
L 95.918017 293.702831 
L 112.280765 293.702831 
L 112.280765 287.15137 
L 116.323218 287.15137 
L 116.323218 286.496224 
L 116.914437 286.496224 
L 116.914437 282.565348 
L 118.576578 282.565348 
L 118.576578 281.910201 
L 119.097192 281.910201 
L 119.097192 280.599909 
L 120.093994 280.599909 
L 120.093994 278.634471 
L 121.489881 278.634471 
L 121.489881 274.703594 
L 121.931406 274.703594 
L 121.931406 272.738156 
L 122.362027 272.738156 
L 122.362027 271.427864 
L 123.192626 271.427864 
L 123.192626 269.462426 
L 129.002426 269.462426 
L 129.002426 268.152133 
L 130.926816 268.152133 
L 130.926816 266.186695 
L 131.690703 266.186695 
L 131.690703 258.980088 
L 132.893889 258.980088 
L 132.893889 257.669796 
L 135.280614 257.669796 
L 135.280614 256.359504 
L 135.681535 256.359504 
L 135.681535 255.704357 
L 136.266147 255.704357 
L 136.266147 255.049211 
L 137.016339 255.049211 
L 137.016339 254.394065 
L 138.084384 254.394065 
L 138.084384 252.428627 
L 138.594838 252.428627 
L 138.594838 251.773481 
L 139.090775 251.773481 
L 139.090775 251.118335 
L 139.413734 251.118335 
L 139.413734 249.152896 
L 139.730821 249.152896 
L 139.730821 248.49775 
L 140.042245 248.49775 
L 140.042245 247.187458 
L 141.662245 247.187458 
L 141.662245 246.532312 
L 141.80232 246.532312 
L 141.80232 245.877166 
L 142.07914 245.877166 
L 142.07914 245.22202 
L 142.351634 245.22202 
L 142.351634 244.566874 
L 143.014805 244.566874 
L 143.014805 243.911728 
L 143.40093 243.911728 
L 143.40093 243.256582 
L 144.148442 243.256582 
L 144.148442 242.601435 
L 144.510517 242.601435 
L 144.510517 241.946289 
L 145.665858 241.946289 
L 145.665858 241.291143 
L 145.777292 241.291143 
L 145.777292 240.635997 
L 146.749392 240.635997 
L 146.749392 239.980851 
L 146.958248 239.980851 
L 147.061745 238.670559 
L 147.164632 238.670559 
L 147.266916 237.360267 
L 147.570215 237.360267 
L 147.570215 236.705121 
L 147.769524 236.705121 
L 147.769524 236.049974 
L 147.96658 236.049974 
L 147.96658 234.739682 
L 148.161434 234.739682 
L 148.161434 234.084536 
L 149.557321 234.084536 
L 149.557321 231.463952 
L 150.085825 231.463952 
L 150.085825 229.498513 
L 150.682827 229.498513 
L 150.766468 227.533075 
L 151.340991 227.533075 
L 151.340991 226.222783 
L 151.975216 226.222783 
L 151.975216 225.567637 
L 152.662192 225.567637 
L 152.662192 224.912491 
L 153.679772 224.912491 
L 153.679772 224.257345 
L 153.959927 224.257345 
L 153.959927 223.602199 
L 154.303908 223.602199 
L 154.303908 220.981614 
L 155.0376 220.981614 
L 155.0376 220.326468 
L 155.425155 220.326468 
L 155.425155 219.671322 
L 155.990803 219.671322 
L 155.990803 219.016176 
L 156.297301 219.016176 
L 156.357959 216.395591 
L 157.300853 216.395591 
L 157.300853 215.740445 
L 157.697862 215.740445 
L 157.753847 213.775007 
L 158.465753 213.775007 
L 158.465753 213.119861 
L 159.046236 213.119861 
L 159.098062 210.499277 
L 159.201253 210.499277 
L 159.201253 207.878692 
L 159.405822 207.878692 
L 159.405822 207.223546 
L 160.442124 207.223546 
L 160.442124 206.5684 
L 160.774311 206.5684 
L 160.821253 203.947816 
L 161.420284 203.947816 
L 161.420284 203.292669 
L 161.555647 203.292669 
L 161.64531 201.327231 
L 161.823263 201.327231 
L 161.823263 200.672085 
L 162.043181 200.672085 
L 162.043181 200.016939 
L 162.173813 200.016939 
L 162.260361 198.706647 
L 162.432178 198.706647 
L 162.432178 197.396355 
L 162.644595 197.396355 
L 162.644595 194.120624 
L 162.896128 194.120624 
L 162.9377 192.810332 
L 163.549667 192.810332 
L 163.549667 192.155186 
L 163.669525 192.155186 
L 163.669525 191.50004 
L 164.102088 191.50004 
L 164.102088 190.189747 
L 164.295217 190.189747 
L 164.295217 189.534601 
L 164.599841 189.534601 
L 164.599841 188.879455 
L 164.712717 188.879455 
L 164.712717 187.569163 
L 164.86209 187.569163 
L 164.86209 186.914017 
L 165.010195 186.914017 
L 165.010195 186.258871 
L 165.266391 186.258871 
L 165.266391 184.293433 
L 165.873346 184.293433 
L 165.873346 183.638286 
L 166.186323 183.638286 
L 166.186323 182.98314 
L 166.493781 182.98314 
L 166.561376 181.017702 
L 166.628709 181.017702 
L 166.662278 179.70741 
L 167.06015 179.70741 
L 167.125588 176.431679 
L 167.223287 176.431679 
L 167.288118 174.466241 
L 167.608702 174.466241 
L 167.608702 173.811095 
L 167.892273 173.811095 
L 167.923499 171.845657 
L 168.078792 171.845657 
L 168.078792 171.190511 
L 168.232714 171.190511 
L 168.232714 170.535364 
L 168.415645 170.535364 
L 168.415645 169.225072 
L 168.536542 169.225072 
L 168.626667 166.604488 
L 168.86475 166.604488 
L 168.9532 163.983903 
L 169.588476 163.983903 
L 169.588476 162.673611 
L 169.729685 162.673611 
L 169.813865 160.708173 
L 169.841835 160.708173 
L 169.841835 158.742735 
L 170.201421 158.742735 
L 170.201421 157.432442 
L 170.337772 157.432442 
L 170.446091 155.467004 
L 170.526891 155.467004 
L 170.607318 153.501566 
L 170.767069 153.501566 
L 170.767069 152.84642 
L 171.003983 152.84642 
L 171.108254 150.225835 
L 171.160157 150.225835 
L 171.263501 148.260397 
L 171.391826 148.260397 
L 171.391826 147.605251 
L 171.67086 147.605251 
L 171.67086 146.950105 
L 171.945501 146.950105 
L 172.019658 145.639813 
L 172.093501 145.639813 
L 172.093501 144.984667 
L 172.264595 144.984667 
L 172.361615 143.674374 
L 172.649478 143.674374 
L 172.720707 142.364082 
L 172.768032 142.364082 
L 172.768032 141.708936 
L 172.956059 141.708936 
L 172.956059 141.05379 
L 173.530906 141.05379 
L 173.621148 137.122913 
L 174.391462 137.122913 
L 174.412979 135.157475 
L 174.690307 135.157475 
L 174.732584 132.536891 
L 174.900675 132.536891 
L 174.900675 131.226598 
L 175.025688 131.226598 
L 175.067161 129.916306 
L 175.476552 129.916306 
L 175.537141 126.640576 
L 175.757513 126.640576 
L 175.817135 125.330284 
L 176.112223 125.330284 
L 176.112223 124.675137 
L 176.668945 124.675137 
L 176.687829 122.709699 
L 177.372536 122.709699 
L 177.463036 120.744261 
L 177.588952 120.744261 
L 177.660498 118.778823 
L 177.908622 118.778823 
L 178.013889 117.46853 
L 178.135904 117.46853 
L 178.135904 116.813384 
L 178.462846 116.813384 
L 178.462846 116.158238 
L 178.58177 116.158238 
L 178.58177 115.503092 
L 179.065994 115.503092 
L 179.065994 114.847946 
L 179.311276 114.847946 
L 179.311276 114.1928 
L 179.488982 114.1928 
L 179.537135 112.882508 
L 179.948981 112.882508 
L 180.05822 110.917069 
L 180.089306 110.917069 
L 180.151313 108.296485 
L 180.259296 108.296485 
L 180.259296 107.641339 
L 180.908345 107.641339 
L 180.982272 105.675901 
L 181.129191 105.675901 
L 181.129191 105.020754 
L 181.47683 105.020754 
L 181.534102 103.710462 
L 182.220831 103.710462 
L 182.220831 103.055316 
L 182.493539 103.055316 
L 182.493539 102.40017 
L 182.61488 102.40017 
L 182.695307 100.434732 
L 182.788672 100.434732 
L 182.788672 99.779586 
L 182.934387 99.779586 
L 182.934387 99.12444 
L 183.338605 99.12444 
L 183.402933 96.503855 
L 183.996292 96.503855 
L 183.996292 95.193563 
L 184.107646 95.193563 
L 184.107646 94.538417 
L 184.473775 94.538417 
L 184.570125 93.228125 
L 184.594129 93.228125 
L 184.630074 91.262686 
L 184.749358 91.262686 
L 184.844202 89.952394 
L 185.114038 89.952394 
L 185.114038 89.297248 
L 185.414125 89.297248 
L 185.436997 87.986956 
L 185.854792 87.986956 
L 185.854792 87.33181 
L 186.065507 87.33181 
L 186.065507 86.676664 
L 186.468683 86.676664 
L 186.468683 84.711225 
L 186.852213 84.711225 
L 186.957269 83.400933 
L 187.030434 83.400933 
L 187.072105 82.090641 
L 187.186189 82.090641 
L 187.196524 79.470057 
L 187.330316 79.470057 
L 187.330316 78.81491 
L 187.513889 78.81491 
L 187.513889 78.159764 
L 187.725644 78.159764 
L 187.725644 77.504618 
L 188.528717 77.504618 
L 188.528717 76.849472 
L 188.652705 76.849472 
L 188.747484 75.53918 
L 189.103018 75.53918 
L 189.103018 74.884034 
L 189.250575 74.884034 
L 189.250575 74.228888 
L 191.713059 74.228888 
L 191.816415 72.918596 
L 193.21718 72.918596 
L 193.21718 71.608303 
L 193.905662 71.608303 
L 193.905662 70.953157 
L 194.995972 70.953157 
L 194.995972 70.298011 
L 196.48915 70.298011 
L 196.48915 69.642865 
L 197.213664 69.642865 
L 197.260138 68.332573 
L 197.370019 68.332573 
L 197.370019 67.677427 
L 197.576336 67.677427 
L 197.650243 65.711988 
L 198.087229 65.711988 
L 198.147983 63.091404 
L 198.372585 63.091404 
L 198.437779 61.781112 
L 198.583579 61.781112 
L 198.583579 60.47082 
L 198.701485 60.47082 
L 198.701485 59.160527 
L 200.205097 59.160527 
L 200.234473 57.850235 
L 200.976682 57.850235 
L 200.976682 57.195089 
L 201.755965 57.195089 
L 201.755965 56.539943 
L 202.766211 56.539943 
L 202.812687 55.229651 
L 202.90527 55.229651 
L 202.90527 54.574505 
L 203.018228 54.574505 
L 203.018228 53.919359 
L 203.200753 53.919359 
L 203.200753 53.264213 
L 203.876637 53.264213 
L 203.876637 52.609066 
L 204.046508 52.609066 
L 204.140605 51.298774 
L 204.50434 51.298774 
L 204.50434 50.643628 
L 204.732606 50.643628 
L 204.841873 49.333336 
L 205.043528 49.333336 
L 205.043528 48.67819 
L 205.616916 48.67819 
L 205.616916 48.023044 
L 205.784964 48.023044 
L 205.784964 47.367898 
L 206.063829 47.367898 
L 206.063829 46.712752 
L 206.199869 46.712752 
L 206.199869 46.057605 
L 206.564347 46.057605 
L 206.564347 45.402459 
L 206.696553 45.402459 
L 206.696553 44.747313 
L 207.818048 44.747313 
L 207.856008 43.437021 
L 208.271286 43.437021 
L 208.271286 42.781875 
L 208.734087 42.781875 
L 208.734087 42.126729 
L 209.111569 42.126729 
L 209.111569 41.471583 
L 209.371317 41.471583 
L 209.46089 39.506144 
L 209.684253 39.506144 
L 209.792044 38.195852 
L 209.879487 38.195852 
L 209.879487 37.540706 
L 210.36506 37.540706 
L 210.449684 36.230414 
L 210.964851 36.230414 
L 210.964851 35.575268 
L 211.521665 35.575268 
L 211.560035 34.264976 
L 211.96415 34.264976 
L 211.96415 33.60983 
L 212.24893 33.60983 
L 212.24893 32.954683 
L 214.330251 32.954683 
L 214.330251 32.299537 
L 215.508132 32.299537 
L 215.508132 31.644391 
L 215.670378 31.644391 
L 215.670378 30.989245 
L 219.620284 30.989245 
L 219.620284 30.334099 
L 338.688 30.334099 
L 338.688 30.334099 
" style="fill:none;stroke:#000080;stroke-linecap:square;stroke-width:1.5;"/>
   </g>
   <g id="line2d_31">
    <defs>
     <path d="M 0 6 
C 1.591219 6 3.117479 5.367802 4.242641 4.242641 
C 5.367802 3.117479 6 1.591219 6 0 
C 6 -1.591219 5.367802 -3.117479 4.242641 -4.242641 
C 3.117479 -5.367802 1.591219 -6 0 -6 
C -1.591219 -6 -3.117479 -5.367802 -4.242641 -4.242641 
C -5.367802 -3.117479 -6 -1.591219 -6 0 
C -6 1.591219 -5.367802 3.117479 -4.242641 4.242641 
C -3.117479 5.367802 -1.591219 6 0 6 
z
" id="m6465272edf" style="stroke:#000080;stroke-width:1.5;"/>
    </defs>
    <g>
     <use style="fill-opacity:0;stroke:#000080;stroke-width:1.5;" x="146.958248" xlink:href="#m6465272edf" y="239.980851"/>
     <use style="fill-opacity:0;stroke:#000080;stroke-width:1.5;" x="176.687829" xlink:href="#m6465272edf" y="122.709699"/>
     <use style="fill-opacity:0;stroke:#000080;stroke-width:1.5;" x="214.330251" xlink:href="#m6465272edf" y="32.954683"/>
     <use style="fill-opacity:0;stroke:#000080;stroke-width:1.5;" x="219.620284" xlink:href="#m6465272edf" y="30.334099"/>
     <use style="fill-opacity:0;stroke:#000080;stroke-width:1.5;" x="219.620284" xlink:href="#m6465272edf" y="30.334099"/>
     <use style="fill-opacity:0;stroke:#000080;stroke-width:1.5;" x="338.688" xlink:href="#m6465272edf" y="30.334099"/>
    </g>
   </g>
   <g id="line2d_32">
    <path style="fill:none;stroke:#000080;stroke-linecap:square;stroke-width:1.5;"/>
    <g/>
   </g>
   <g id="line2d_33">
    <path clip-path="url(#p6821169871)" d="M 200.976682 57.195089 
" style="fill:none;stroke:#000080;stroke-linecap:square;stroke-width:1.5;"/>
    <defs>
     <path d="M -12 12 
L 12 -12 
M -12 -12 
L 12 12 
" id="me0a750a7a2" style="stroke:#000080;"/>
    </defs>
    <g clip-path="url(#p6821169871)">
     <use style="fill:#000080;stroke:#000080;" x="200.976682" xlink:href="#me0a750a7a2" y="57.195089"/>
    </g>
   </g>
   <g id="line2d_34">
    <defs>
     <path d="M 0 1.5 
C 0.397805 1.5 0.77937 1.341951 1.06066 1.06066 
C 1.341951 0.77937 1.5 0.397805 1.5 0 
C 1.5 -0.397805 1.341951 -0.77937 1.06066 -1.06066 
C 0.77937 -1.341951 0.397805 -1.5 0 -1.5 
C -0.397805 -1.5 -0.77937 -1.341951 -1.06066 -1.06066 
C -1.341951 -0.77937 -1.5 -0.397805 -1.5 0 
C -1.5 0.397805 -1.341951 0.77937 -1.06066 1.06066 
C -0.77937 1.341951 -0.397805 1.5 0 1.5 
z
" id="mba64e6e563" style="stroke:#ff00ff;"/>
    </defs>
    <g>
     <use style="fill:#ff00ff;stroke:#ff00ff;" x="177.72286" xlink:href="#mba64e6e563" y="253.083773"/>
     <use style="fill:#ff00ff;stroke:#ff00ff;" x="177.72286" xlink:href="#mba64e6e563" y="253.083773"/>
    </g>
   </g>
   <g id="line2d_35">
    <path d="M 45.512012 298.944 
L 45.512012 293.702831 
L 73.579452 293.702831 
L 73.579452 290.427101 
L 79.447285 290.427101 
L 79.447285 289.771955 
L 83.830028 289.771955 
L 83.830028 289.116809 
L 87.329581 289.116809 
L 87.329581 288.461662 
L 105.398279 288.461662 
L 105.398279 287.806516 
L 108.483824 287.806516 
L 108.483824 287.15137 
L 109.401893 287.15137 
L 109.401893 286.496224 
L 109.843417 286.496224 
L 109.843417 285.185932 
L 110.274038 285.185932 
L 110.274038 284.530786 
L 111.104637 284.530786 
L 111.104637 283.220494 
L 111.897469 283.220494 
L 111.897469 282.565348 
L 112.280765 282.565348 
L 112.280765 281.255055 
L 113.382559 281.255055 
L 113.382559 280.599909 
L 117.765302 280.599909 
L 117.765302 279.944763 
L 118.838828 279.944763 
L 118.838828 279.289617 
L 121.712041 279.289617 
L 121.712041 278.634471 
L 122.148045 278.634471 
L 122.148045 277.979325 
L 123.192626 277.979325 
L 123.192626 277.324179 
L 123.593547 277.324179 
L 123.593547 276.669033 
L 123.985457 276.669033 
L 123.985457 276.013887 
L 124.178158 276.013887 
L 124.178158 275.35874 
L 125.291682 275.35874 
L 125.291682 274.703594 
L 126.338353 274.703594 
L 126.338353 274.048448 
L 127.799239 274.048448 
L 127.799239 273.393302 
L 129.002426 273.393302 
L 129.002426 272.738156 
L 129.290685 272.738156 
L 129.290685 272.08301 
L 129.714332 272.08301 
L 129.714332 271.427864 
L 131.439773 271.427864 
L 131.439773 270.117572 
L 131.565689 270.117572 
L 131.565689 268.807279 
L 133.46572 268.807279 
L 133.46572 268.152133 
L 134.343353 268.152133 
L 134.343353 267.496987 
L 135.97629 267.496987 
L 135.97629 266.841841 
L 137.016339 266.841841 
L 137.016339 266.186695 
L 137.647286 266.186695 
L 137.647286 265.531549 
L 139.8092 265.531549 
L 139.8092 264.876403 
L 141.017599 264.876403 
L 141.017599 264.221257 
L 141.378673 264.221257 
L 141.378673 263.566111 
L 141.871938 263.566111 
L 141.871938 262.910965 
L 142.686372 262.910965 
L 142.686372 262.255818 
L 143.778691 262.255818 
L 143.778691 261.600672 
L 143.840863 261.600672 
L 143.840863 260.945526 
L 144.209312 260.945526 
L 144.209312 260.29038 
L 144.45069 260.29038 
L 144.45069 259.635234 
L 144.629556 259.635234 
L 144.629556 258.980088 
L 145.777292 258.980088 
L 145.777292 258.324942 
L 147.86833 258.324942 
L 147.86833 257.669796 
L 151.015013 257.669796 
L 151.015013 257.01465 
L 151.300575 257.01465 
L 151.300575 256.359504 
L 154.906477 256.359504 
L 154.906477 255.704357 
L 157.472107 255.704357 
L 157.472107 255.049211 
L 157.94839 255.049211 
L 157.94839 254.394065 
L 160.200913 254.394065 
L 160.200913 253.738919 
L 177.72286 253.738919 
L 177.72286 253.083773 
L 338.688 253.083773 
" style="fill:none;stroke:#ff00ff;stroke-linecap:square;stroke-width:1.5;"/>
   </g>
   <g id="line2d_36">
    <defs>
     <path d="M -0 8.485281 
L 5.091169 0 
L 0 -8.485281 
L -5.091169 -0 
z
" id="mb302017973" style="stroke:#ff00ff;stroke-linejoin:miter;stroke-width:1.5;"/>
    </defs>
    <g>
     <use style="fill-opacity:0;stroke:#ff00ff;stroke-linejoin:miter;stroke-width:1.5;" x="123.985457" xlink:href="#mb302017973" y="276.669033"/>
     <use style="fill-opacity:0;stroke:#ff00ff;stroke-linejoin:miter;stroke-width:1.5;" x="160.200913" xlink:href="#mb302017973" y="254.394065"/>
     <use style="fill-opacity:0;stroke:#ff00ff;stroke-linejoin:miter;stroke-width:1.5;" x="177.72286" xlink:href="#mb302017973" y="253.083773"/>
     <use style="fill-opacity:0;stroke:#ff00ff;stroke-linejoin:miter;stroke-width:1.5;" x="177.72286" xlink:href="#mb302017973" y="253.083773"/>
     <use style="fill-opacity:0;stroke:#ff00ff;stroke-linejoin:miter;stroke-width:1.5;" x="177.72286" xlink:href="#mb302017973" y="253.083773"/>
     <use style="fill-opacity:0;stroke:#ff00ff;stroke-linejoin:miter;stroke-width:1.5;" x="338.688" xlink:href="#mb302017973" y="253.083773"/>
    </g>
   </g>
   <g id="line2d_37">
    <path style="fill:none;stroke:#ff00ff;stroke-linecap:square;stroke-width:1.5;"/>
    <g/>
   </g>
   <g id="line2d_38">
    <path clip-path="url(#p6821169871)" d="M 107.514726 287.806516 
" style="fill:none;stroke:#ff00ff;stroke-linecap:square;stroke-width:1.5;"/>
    <defs>
     <path d="M -12 12 
L 12 -12 
M -12 -12 
L 12 12 
" id="ma444a6353e" style="stroke:#ff00ff;"/>
    </defs>
    <g clip-path="url(#p6821169871)">
     <use style="fill:#ff00ff;stroke:#ff00ff;" x="107.514726" xlink:href="#ma444a6353e" y="287.806516"/>
    </g>
   </g>
   <g id="line2d_39">
    <defs>
     <path d="M 0 1.5 
C 0.397805 1.5 0.77937 1.341951 1.06066 1.06066 
C 1.341951 0.77937 1.5 0.397805 1.5 0 
C 1.5 -0.397805 1.341951 -0.77937 1.06066 -1.06066 
C 0.77937 -1.341951 0.397805 -1.5 0 -1.5 
C -0.397805 -1.5 -0.77937 -1.341951 -1.06066 -1.06066 
C -1.341951 -0.77937 -1.5 -0.397805 -1.5 0 
C -1.5 0.397805 -1.341951 0.77937 -1.06066 1.06066 
C -0.77937 1.341951 -0.397805 1.5 0 1.5 
z
" id="m16c03dbbdf" style="stroke:#ff7500;"/>
    </defs>
    <g>
     <use style="fill:#ff7500;stroke:#ff7500;" x="181.390568" xlink:href="#m16c03dbbdf" y="30.334099"/>
     <use style="fill:#ff7500;stroke:#ff7500;" x="181.390568" xlink:href="#m16c03dbbdf" y="30.334099"/>
    </g>
   </g>
   <g id="line2d_40">
    <path d="M 45.512012 298.944 
L 45.512012 296.978562 
L 115.077025 296.978562 
L 115.077025 296.323416 
L 119.850084 296.323416 
L 119.850084 295.66827 
L 120.33454 295.66827 
L 120.33454 294.357977 
L 122.782271 294.357977 
L 122.782271 293.047685 
L 124.92835 293.047685 
L 124.92835 291.082247 
L 125.996395 291.082247 
L 125.996395 290.427101 
L 126.839037 290.427101 
L 126.839037 287.806516 
L 127.165014 287.806516 
L 127.165014 286.496224 
L 127.48501 286.496224 
L 127.48501 285.841078 
L 128.107907 285.841078 
L 128.107907 283.220494 
L 128.856489 283.220494 
L 128.856489 282.565348 
L 129.147151 282.565348 
L 129.147151 281.255055 
L 129.433047 281.255055 
L 129.433047 279.944763 
L 129.714332 279.944763 
L 129.714332 278.634471 
L 129.991152 278.634471 
L 129.991152 275.35874 
L 130.664567 275.35874 
L 130.664567 270.117572 
L 130.926816 270.117572 
L 130.926816 269.462426 
L 131.439773 269.462426 
L 131.439773 267.496987 
L 132.777237 267.496987 
L 132.777237 266.841841 
L 133.239232 266.841841 
L 133.239232 266.186695 
L 134.019394 266.186695 
L 134.019394 256.359504 
L 134.236034 256.359504 
L 134.236034 255.049211 
L 135.780341 255.049211 
L 135.780341 253.738919 
L 136.170062 253.738919 
L 136.170062 253.083773 
L 136.456742 253.083773 
L 136.456742 251.773481 
L 137.016339 251.773481 
L 137.016339 251.118335 
L 137.198951 251.118335 
L 137.198951 250.463189 
L 138.170504 250.463189 
L 138.170504 248.49775 
L 138.341479 248.49775 
L 138.341479 247.842604 
L 138.761723 247.842604 
L 138.761723 246.532312 
L 139.8092 246.532312 
L 139.8092 245.877166 
L 141.521035 245.877166 
L 141.521035 245.22202 
L 142.147664 245.22202 
L 142.147664 244.566874 
L 142.283909 244.566874 
L 142.283909 243.911728 
L 142.419098 243.911728 
L 142.419098 243.256582 
L 142.884173 243.256582 
L 142.884173 242.601435 
L 144.269971 242.601435 
L 144.269971 241.291143 
L 144.390658 241.291143 
L 144.390658 240.635997 
L 144.629556 240.635997 
L 144.629556 238.670559 
L 144.747789 238.670559 
L 144.747789 238.015413 
L 145.039911 238.015413 
L 145.039911 237.360267 
L 145.609873 237.360267 
L 145.609873 236.049974 
L 145.777292 236.049974 
L 145.777292 235.394828 
L 146.484754 235.394828 
L 146.484754 234.739682 
L 148.209809 234.739682 
L 148.306159 228.188221 
L 148.449693 228.188221 
L 148.449693 227.533075 
L 149.15016 227.533075 
L 149.241465 224.912491 
L 149.512548 224.912491 
L 149.512548 224.257345 
L 149.735275 224.257345 
L 149.735275 223.602199 
L 149.911431 223.602199 
L 149.911431 220.981614 
L 150.215485 220.981614 
L 150.301393 215.740445 
L 150.556607 215.740445 
L 150.556607 215.085299 
L 151.300575 215.085299 
L 151.300575 213.775007 
L 151.897188 213.775007 
L 151.897188 211.809569 
L 152.322086 211.809569 
L 152.398241 209.84413 
L 152.474064 209.84413 
L 152.474064 207.878692 
L 152.811246 207.878692 
L 152.885298 205.258108 
L 153.032466 205.258108 
L 153.032466 204.602962 
L 153.359122 204.602962 
L 153.430889 202.637523 
L 153.502361 202.637523 
L 153.502361 201.327231 
L 153.820412 201.327231 
L 153.890309 200.016939 
L 154.201424 200.016939 
L 154.269814 195.430916 
L 154.473387 195.430916 
L 154.54072 194.120624 
L 154.641235 194.120624 
L 154.641235 193.465478 
L 154.972161 193.465478 
L 154.972161 192.810332 
L 155.329071 192.810332 
L 155.329071 192.155186 
L 155.488919 192.155186 
L 155.488919 191.50004 
L 155.897793 191.50004 
L 155.897793 190.844894 
L 156.687861 190.844894 
L 156.687861 190.189747 
L 156.865211 190.189747 
L 156.865211 189.534601 
L 157.1279 189.534601 
L 157.1279 188.879455 
L 157.358125 188.879455 
L 157.358125 188.224309 
L 157.557108 188.224309 
L 157.557108 186.914017 
L 157.669802 186.914017 
L 157.725877 184.293433 
L 157.86528 184.293433 
L 157.920731 182.327994 
L 158.086033 182.327994 
L 158.168101 181.017702 
L 158.331086 181.017702 
L 158.331086 180.362556 
L 158.51933 180.362556 
L 158.625992 178.397118 
L 158.732007 178.397118 
L 158.732007 177.086825 
L 159.303838 177.086825 
L 159.405822 175.121387 
L 159.532469 175.121387 
L 159.532469 174.466241 
L 159.956318 174.466241 
L 159.956318 173.811095 
L 160.103486 173.811095 
L 160.176607 171.845657 
L 160.225184 171.845657 
L 160.273627 169.880218 
L 160.37011 169.880218 
L 160.37011 168.569926 
L 160.489968 168.569926 
L 160.537682 167.259634 
L 160.727241 167.259634 
L 160.797798 165.949342 
L 161.146363 165.949342 
L 161.146363 165.294196 
L 161.442917 165.294196 
L 161.442917 164.63905 
L 161.689969 164.63905 
L 161.734513 162.673611 
L 162.065021 162.673611 
L 162.152109 160.053027 
L 162.19549 160.053027 
L 162.260361 158.087589 
L 162.346481 158.087589 
L 162.432178 156.12215 
L 162.474869 156.12215 
L 162.474869 153.501566 
L 163.123555 153.501566 
L 163.205526 150.225835 
L 163.287113 150.225835 
L 163.287113 149.570689 
L 163.50953 149.570689 
L 163.549667 147.605251 
L 163.689421 147.605251 
L 163.689421 146.950105 
L 163.808326 146.950105 
L 163.808326 146.294959 
L 163.946031 146.294959 
L 163.946031 145.639813 
L 164.063205 145.639813 
L 164.121498 144.32952 
L 164.237502 144.32952 
L 164.276 143.019228 
L 164.524182 143.019228 
L 164.524182 142.364082 
L 164.65637 142.364082 
L 164.731458 139.743498 
L 164.806225 139.743498 
L 164.806225 139.088352 
L 165.010195 139.088352 
L 165.047026 137.778059 
L 165.175324 137.778059 
L 165.248216 135.812621 
L 165.483031 135.812621 
L 165.483031 134.502329 
L 165.643763 134.502329 
L 165.643763 133.847183 
L 165.838222 133.847183 
L 165.9084 131.881745 
L 166.289413 131.881745 
L 166.323641 129.916306 
L 166.476842 129.916306 
L 166.544502 127.950868 
L 166.862349 127.950868 
L 166.91201 125.98543 
L 167.010909 125.98543 
L 167.010909 125.330284 
L 167.223287 125.330284 
L 167.288118 121.399407 
L 167.400994 121.399407 
L 167.400994 120.744261 
L 167.576907 120.744261 
L 167.672117 119.433969 
L 167.813965 119.433969 
L 167.813965 118.123676 
L 167.954668 118.123676 
L 168.01684 116.158238 
L 168.155922 116.158238 
L 168.248032 114.847946 
L 168.415645 114.847946 
L 168.415645 114.1928 
L 168.671556 114.1928 
L 168.701418 111.572215 
L 168.894283 111.572215 
L 168.894283 110.917069 
L 169.026567 110.917069 
L 169.128764 108.951631 
L 169.345764 108.951631 
L 169.374494 107.641339 
L 169.503198 107.641339 
L 169.503198 106.986193 
L 169.743743 106.986193 
L 169.799863 105.675901 
L 170.077786 105.675901 
L 170.077786 105.020754 
L 170.28336 105.020754 
L 170.28336 104.365608 
L 170.40555 104.365608 
L 170.459584 101.089878 
L 170.634045 101.089878 
L 170.687376 99.12444 
L 170.780315 99.12444 
L 170.780315 98.469293 
L 170.951613 98.469293 
L 170.951613 97.814147 
L 171.173108 97.814147 
L 171.173108 95.193563 
L 171.314944 95.193563 
L 171.366236 93.883271 
L 171.481095 93.883271 
L 171.481095 93.228125 
L 171.595202 93.228125 
L 171.595202 92.572979 
L 171.808721 92.572979 
L 171.808721 91.917832 
L 172.019658 91.917832 
L 172.105778 88.642102 
L 172.240256 88.642102 
L 172.240256 87.33181 
L 172.42198 87.33181 
L 172.518131 84.056079 
L 172.554051 84.056079 
L 172.577957 82.090641 
L 172.708856 82.090641 
L 172.803442 79.470057 
L 172.862299 79.470057 
L 172.956059 76.849472 
L 173.165193 76.849472 
L 173.211329 75.53918 
L 173.31469 75.53918 
L 173.406055 73.573742 
L 173.428822 73.573742 
L 173.530906 70.298011 
L 173.632396 70.298011 
L 173.722116 67.677427 
L 173.844732 67.677427 
L 173.844732 67.022281 
L 174.065485 67.022281 
L 174.13117 64.401696 
L 174.434469 64.401696 
L 174.530849 62.436258 
L 174.552194 62.436258 
L 174.605444 61.125966 
L 174.764225 61.125966 
L 174.785287 59.815674 
L 175.056802 59.815674 
L 175.149812 57.195089 
L 175.19099 57.195089 
L 175.19099 55.884797 
L 175.303734 55.884797 
L 175.385274 53.919359 
L 175.436043 53.919359 
L 175.436043 53.264213 
L 175.567356 53.264213 
L 175.6777 51.298774 
L 175.886437 51.298774 
L 175.93577 49.988482 
L 176.082938 49.988482 
L 176.190077 46.712752 
L 176.335123 46.712752 
L 176.335123 46.057605 
L 176.564717 46.057605 
L 176.564717 45.402459 
L 176.725536 45.402459 
L 176.725536 44.747313 
L 176.903537 44.747313 
L 176.968661 43.437021 
L 177.107399 43.437021 
L 177.107399 42.781875 
L 177.345294 42.781875 
L 177.408792 40.816437 
L 177.597911 40.816437 
L 177.642639 39.506144 
L 178.101129 39.506144 
L 178.187935 36.88556 
L 178.377401 36.88556 
L 178.394524 35.575268 
L 178.850589 35.575268 
L 178.850589 34.920122 
L 179.246204 34.920122 
L 179.246204 34.264976 
L 179.408431 34.264976 
L 179.408431 33.60983 
L 179.752191 33.60983 
L 179.752191 32.954683 
L 180.205388 32.954683 
L 180.205388 32.299537 
L 180.328363 32.299537 
L 180.328363 31.644391 
L 180.571741 31.644391 
L 180.571741 30.989245 
L 181.390568 30.989245 
L 181.390568 30.334099 
L 338.688 30.334099 
L 338.688 30.334099 
" style="fill:none;stroke:#ff7500;stroke-linecap:square;stroke-width:1.5;"/>
   </g>
   <g id="line2d_41">
    <defs>
     <path d="M 0 -6 
L -1.347084 -1.854102 
L -5.706339 -1.854102 
L -2.179628 0.708204 
L -3.526712 4.854102 
L -0 2.291796 
L 3.526712 4.854102 
L 2.179628 0.708204 
L 5.706339 -1.854102 
L 1.347084 -1.854102 
z
" id="m19bd9019c3" style="stroke:#ff7500;stroke-linejoin:bevel;stroke-width:1.5;"/>
    </defs>
    <g>
     <use style="fill-opacity:0;stroke:#ff7500;stroke-linejoin:bevel;stroke-width:1.5;" x="158.51933" xlink:href="#m19bd9019c3" y="179.052264"/>
     <use style="fill-opacity:0;stroke:#ff7500;stroke-linejoin:bevel;stroke-width:1.5;" x="180.571741" xlink:href="#m19bd9019c3" y="30.989245"/>
     <use style="fill-opacity:0;stroke:#ff7500;stroke-linejoin:bevel;stroke-width:1.5;" x="181.390568" xlink:href="#m19bd9019c3" y="30.334099"/>
     <use style="fill-opacity:0;stroke:#ff7500;stroke-linejoin:bevel;stroke-width:1.5;" x="181.390568" xlink:href="#m19bd9019c3" y="30.334099"/>
     <use style="fill-opacity:0;stroke:#ff7500;stroke-linejoin:bevel;stroke-width:1.5;" x="338.688" xlink:href="#m19bd9019c3" y="30.334099"/>
    </g>
   </g>
   <g id="line2d_42">
    <path style="fill:none;stroke:#ff7500;stroke-linecap:square;stroke-width:1.5;"/>
    <g/>
   </g>
   <g id="line2d_43">
    <defs>
     <path d="M 0 1.5 
C 0.397805 1.5 0.77937 1.341951 1.06066 1.06066 
C 1.341951 0.77937 1.5 0.397805 1.5 0 
C 1.5 -0.397805 1.341951 -0.77937 1.06066 -1.06066 
C 0.77937 -1.341951 0.397805 -1.5 0 -1.5 
C -0.397805 -1.5 -0.77937 -1.341951 -1.06066 -1.06066 
C -1.341951 -0.77937 -1.5 -0.397805 -1.5 0 
C -1.5 0.397805 -1.341951 0.77937 -1.06066 1.06066 
C -0.77937 1.341951 -0.397805 1.5 0 1.5 
z
" id="m2add99db39" style="stroke:#6495ed;"/>
    </defs>
    <g>
     <use style="fill:#6495ed;stroke:#6495ed;" x="171.391826" xlink:href="#m2add99db39" y="259.635234"/>
     <use style="fill:#6495ed;stroke:#6495ed;" x="171.391826" xlink:href="#m2add99db39" y="259.635234"/>
    </g>
   </g>
   <g id="line2d_44">
    <path d="M 45.512012 298.944 
L 45.512012 294.357977 
L 95.918017 294.357977 
L 95.918017 293.702831 
L 101.646892 293.702831 
L 101.646892 293.047685 
L 104.23523 293.047685 
L 104.23523 292.392539 
L 110.274038 292.392539 
L 110.274038 291.082247 
L 114.080224 291.082247 
L 114.080224 290.427101 
L 114.418861 290.427101 
L 114.418861 289.116809 
L 115.077025 289.116809 
L 115.077025 288.461662 
L 119.602714 288.461662 
L 119.602714 287.806516 
L 121.264855 287.806516 
L 121.264855 287.15137 
L 122.988655 287.15137 
L 122.988655 286.496224 
L 124.178158 286.496224 
L 124.178158 285.185932 
L 124.368753 285.185932 
L 124.368753 284.530786 
L 125.470548 284.530786 
L 125.470548 283.87564 
L 125.822869 283.87564 
L 125.822869 283.220494 
L 128.260216 283.220494 
L 128.260216 282.565348 
L 128.856489 282.565348 
L 128.856489 281.910201 
L 131.938072 281.910201 
L 131.938072 281.255055 
L 132.181982 281.255055 
L 132.181982 280.599909 
L 132.30267 280.599909 
L 132.30267 279.944763 
L 132.777237 279.944763 
L 132.777237 279.289617 
L 133.910056 279.289617 
L 133.910056 278.634471 
L 134.55603 278.634471 
L 134.55603 277.979325 
L 137.647286 277.979325 
L 137.647286 277.324179 
L 138.510793 277.324179 
L 138.510793 276.669033 
L 138.84457 276.669033 
L 138.84457 276.013887 
L 139.009092 276.013887 
L 139.009092 275.35874 
L 139.172077 275.35874 
L 139.172077 274.703594 
L 141.591783 274.703594 
L 141.591783 274.048448 
L 141.80232 274.048448 
L 141.80232 273.393302 
L 142.010346 273.393302 
L 142.010346 272.738156 
L 142.351634 272.738156 
L 142.351634 272.08301 
L 143.40093 272.08301 
L 143.40093 271.427864 
L 143.902815 271.427864 
L 143.902815 270.772718 
L 144.026061 270.772718 
L 144.026061 270.117572 
L 144.806606 270.117572 
L 144.806606 269.462426 
L 146.377764 269.462426 
L 146.377764 268.807279 
L 146.431341 268.807279 
L 146.431341 268.152133 
L 151.381313 268.152133 
L 151.381313 267.496987 
L 153.573542 267.496987 
L 153.573542 266.841841 
L 154.029268 266.841841 
L 154.029268 266.186695 
L 155.070227 266.186695 
L 155.070227 265.531549 
L 155.200129 265.531549 
L 155.200129 264.876403 
L 155.678822 264.876403 
L 155.678822 264.221257 
L 157.613546 264.221257 
L 157.613546 263.566111 
L 158.195371 263.566111 
L 158.195371 262.910965 
L 161.53316 262.910965 
L 161.53316 262.255818 
L 161.622937 262.255818 
L 161.622937 261.600672 
L 163.103002 261.600672 
L 163.103002 260.945526 
L 163.649606 260.945526 
L 163.649606 260.29038 
L 171.391826 260.29038 
L 171.391826 259.635234 
L 338.688 259.635234 
" style="fill:none;stroke:#6495ed;stroke-linecap:square;stroke-width:1.5;"/>
   </g>
   <g id="line2d_45">
    <defs>
     <path d="M -0 6 
L 6 -6 
L -6 -6 
z
" id="m299e078ff9" style="stroke:#6495ed;stroke-linejoin:miter;stroke-width:1.5;"/>
    </defs>
    <g>
     <use style="fill-opacity:0;stroke:#6495ed;stroke-linejoin:miter;stroke-width:1.5;" x="104.23523" xlink:href="#m299e078ff9" y="292.392539"/>
     <use style="fill-opacity:0;stroke:#6495ed;stroke-linejoin:miter;stroke-width:1.5;" x="163.649606" xlink:href="#m299e078ff9" y="260.29038"/>
     <use style="fill-opacity:0;stroke:#6495ed;stroke-linejoin:miter;stroke-width:1.5;" x="171.391826" xlink:href="#m299e078ff9" y="260.29038"/>
     <use style="fill-opacity:0;stroke:#6495ed;stroke-linejoin:miter;stroke-width:1.5;" x="171.391826" xlink:href="#m299e078ff9" y="259.635234"/>
     <use style="fill-opacity:0;stroke:#6495ed;stroke-linejoin:miter;stroke-width:1.5;" x="171.391826" xlink:href="#m299e078ff9" y="259.635234"/>
     <use style="fill-opacity:0;stroke:#6495ed;stroke-linejoin:miter;stroke-width:1.5;" x="338.688" xlink:href="#m299e078ff9" y="259.635234"/>
    </g>
   </g>
   <g id="line2d_46">
    <path style="fill:none;stroke:#6495ed;stroke-linecap:square;stroke-width:1.5;"/>
    <g/>
   </g>
   <g id="line2d_47">
    <path clip-path="url(#p6821169871)" d="M 96.86091 293.702831 
" style="fill:none;stroke:#6495ed;stroke-linecap:square;stroke-width:1.5;"/>
    <defs>
     <path d="M -12 12 
L 12 -12 
M -12 -12 
L 12 12 
" id="mff4eebbdc9" style="stroke:#6495ed;"/>
    </defs>
    <g clip-path="url(#p6821169871)">
     <use style="fill:#6495ed;stroke:#6495ed;" x="96.86091" xlink:href="#mff4eebbdc9" y="293.702831"/>
    </g>
   </g>
   <g id="line2d_48">
    <path d="M 338.688 259.635234 
L 369.60768 293.571802 
" style="fill:none;stroke:#6495ed;stroke-linecap:square;stroke-width:1.5;"/>
    <g>
     <use style="fill-opacity:0;stroke:#6495ed;stroke-linejoin:miter;stroke-width:1.5;" x="338.688" xlink:href="#m299e078ff9" y="259.635234"/>
     <use style="fill-opacity:0;stroke:#6495ed;stroke-linejoin:miter;stroke-width:1.5;" x="369.60768" xlink:href="#m299e078ff9" y="293.571802"/>
    </g>
   </g>
   <g id="line2d_49">
    <path d="M 338.688 253.083773 
L 369.60768 207.616634 
" style="fill:none;stroke:#ff00ff;stroke-linecap:square;stroke-width:1.5;"/>
    <g>
     <use style="fill-opacity:0;stroke:#ff00ff;stroke-linejoin:miter;stroke-width:1.5;" x="338.688" xlink:href="#mb302017973" y="253.083773"/>
     <use style="fill-opacity:0;stroke:#ff00ff;stroke-linejoin:miter;stroke-width:1.5;" x="369.60768" xlink:href="#mb302017973" y="207.616634"/>
    </g>
   </g>
   <g id="line2d_50">
    <path d="M 338.688 30.334099 
L 369.60768 121.661465 
" style="fill:none;stroke:#000080;stroke-linecap:square;stroke-width:1.5;"/>
    <g>
     <use style="fill-opacity:0;stroke:#000080;stroke-width:1.5;" x="338.688" xlink:href="#m6465272edf" y="30.334099"/>
     <use style="fill-opacity:0;stroke:#000080;stroke-width:1.5;" x="369.60768" xlink:href="#m6465272edf" y="121.661465"/>
    </g>
   </g>
   <g id="line2d_51">
    <path d="M 338.688 30.334099 
L 369.60768 35.706297 
" style="fill:none;stroke:#ff7500;stroke-linecap:square;stroke-width:1.5;"/>
    <g>
     <use style="fill-opacity:0;stroke:#ff7500;stroke-linejoin:bevel;stroke-width:1.5;" x="338.688" xlink:href="#m19bd9019c3" y="30.334099"/>
     <use style="fill-opacity:0;stroke:#ff7500;stroke-linejoin:bevel;stroke-width:1.5;" x="369.60768" xlink:href="#m19bd9019c3" y="35.706297"/>
    </g>
   </g>
   <g id="line2d_52">
    <path d="M 338.688 298.944 
L 338.688 30.334099 
" style="fill:none;stroke:#000000;stroke-linecap:square;stroke-width:1.5;"/>
   </g>
   <g id="patch_3">
    <path d="M 57.6 298.944 
L 57.6 27.648 
" style="fill:none;stroke:#000000;stroke-linecap:square;stroke-linejoin:miter;stroke-width:0.8;"/>
   </g>
   <g id="patch_4">
    <path d="M 338.688 298.944 
L 338.688 27.648 
" style="fill:none;stroke:#000000;stroke-linecap:square;stroke-linejoin:miter;stroke-width:0.8;"/>
   </g>
   <g id="patch_5">
    <path d="M 57.6 298.944 
L 338.688 298.944 
" style="fill:none;stroke:#000000;stroke-linecap:square;stroke-linejoin:miter;stroke-width:0.8;"/>
   </g>
   <g id="patch_6">
    <path d="M 57.6 27.648 
L 338.688 27.648 
" style="fill:none;stroke:#000000;stroke-linecap:square;stroke-linejoin:miter;stroke-width:0.8;"/>
   </g>
   <g id="text_13">
    <!-- slsqp -->
    <g transform="translate(375.22944 298.262739)scale(0.17 -0.17)">
     <defs>
      <path d="M 14.796875 27.296875 
Q 14.796875 17.390625 18.875 11.75 
Q 22.953125 6.109375 30.078125 6.109375 
Q 37.203125 6.109375 41.296875 11.75 
Q 45.40625 17.390625 45.40625 27.296875 
Q 45.40625 37.203125 41.296875 42.84375 
Q 37.203125 48.484375 30.078125 48.484375 
Q 22.953125 48.484375 18.875 42.84375 
Q 14.796875 37.203125 14.796875 27.296875 
z
M 45.40625 8.203125 
Q 42.578125 3.328125 38.25 0.953125 
Q 33.9375 -1.421875 27.875 -1.421875 
Q 17.96875 -1.421875 11.734375 6.484375 
Q 5.515625 14.40625 5.515625 27.296875 
Q 5.515625 40.1875 11.734375 48.09375 
Q 17.96875 56 27.875 56 
Q 33.9375 56 38.25 53.625 
Q 42.578125 51.265625 45.40625 46.390625 
L 45.40625 54.6875 
L 54.390625 54.6875 
L 54.390625 -20.796875 
L 45.40625 -20.796875 
z
" id="DejaVuSans-113"/>
     </defs>
     <use xlink:href="#DejaVuSans-115"/>
     <use x="52.099609" xlink:href="#DejaVuSans-108"/>
     <use x="79.882812" xlink:href="#DejaVuSans-115"/>
     <use x="131.982422" xlink:href="#DejaVuSans-113"/>
     <use x="195.458984" xlink:href="#DejaVuSans-112"/>
    </g>
   </g>
   <g id="text_14">
    <!-- cobyla -->
    <g transform="translate(375.22944 212.307571)scale(0.17 -0.17)">
     <defs>
      <path d="M 48.6875 27.296875 
Q 48.6875 37.203125 44.609375 42.84375 
Q 40.53125 48.484375 33.40625 48.484375 
Q 26.265625 48.484375 22.1875 42.84375 
Q 18.109375 37.203125 18.109375 27.296875 
Q 18.109375 17.390625 22.1875 11.75 
Q 26.265625 6.109375 33.40625 6.109375 
Q 40.53125 6.109375 44.609375 11.75 
Q 48.6875 17.390625 48.6875 27.296875 
z
M 18.109375 46.390625 
Q 20.953125 51.265625 25.265625 53.625 
Q 29.59375 56 35.59375 56 
Q 45.5625 56 51.78125 48.09375 
Q 58.015625 40.1875 58.015625 27.296875 
Q 58.015625 14.40625 51.78125 6.484375 
Q 45.5625 -1.421875 35.59375 -1.421875 
Q 29.59375 -1.421875 25.265625 0.953125 
Q 20.953125 3.328125 18.109375 8.203125 
L 18.109375 0 
L 9.078125 0 
L 9.078125 75.984375 
L 18.109375 75.984375 
z
" id="DejaVuSans-98"/>
      <path d="M 32.171875 -5.078125 
Q 28.375 -14.84375 24.75 -17.8125 
Q 21.140625 -20.796875 15.09375 -20.796875 
L 7.90625 -20.796875 
L 7.90625 -13.28125 
L 13.1875 -13.28125 
Q 16.890625 -13.28125 18.9375 -11.515625 
Q 21 -9.765625 23.484375 -3.21875 
L 25.09375 0.875 
L 2.984375 54.6875 
L 12.5 54.6875 
L 29.59375 11.921875 
L 46.6875 54.6875 
L 56.203125 54.6875 
z
" id="DejaVuSans-121"/>
     </defs>
     <use xlink:href="#DejaVuSans-99"/>
     <use x="54.980469" xlink:href="#DejaVuSans-111"/>
     <use x="116.162109" xlink:href="#DejaVuSans-98"/>
     <use x="179.638672" xlink:href="#DejaVuSans-121"/>
     <use x="238.818359" xlink:href="#DejaVuSans-108"/>
     <use x="266.601562" xlink:href="#DejaVuSans-97"/>
    </g>
   </g>
   <g id="text_15">
    <!-- alN5 -->
    <g transform="translate(375.22944 126.352403)scale(0.17 -0.17)">
     <defs>
      <path d="M 9.8125 72.90625 
L 23.09375 72.90625 
L 55.421875 11.921875 
L 55.421875 72.90625 
L 64.984375 72.90625 
L 64.984375 0 
L 51.703125 0 
L 19.390625 60.984375 
L 19.390625 0 
L 9.8125 0 
z
" id="DejaVuSans-78"/>
      <path d="M 10.796875 72.90625 
L 49.515625 72.90625 
L 49.515625 64.59375 
L 19.828125 64.59375 
L 19.828125 46.734375 
Q 21.96875 47.46875 24.109375 47.828125 
Q 26.265625 48.1875 28.421875 48.1875 
Q 40.625 48.1875 47.75 41.5 
Q 54.890625 34.8125 54.890625 23.390625 
Q 54.890625 11.625 47.5625 5.09375 
Q 40.234375 -1.421875 26.90625 -1.421875 
Q 22.3125 -1.421875 17.546875 -0.640625 
Q 12.796875 0.140625 7.71875 1.703125 
L 7.71875 11.625 
Q 12.109375 9.234375 16.796875 8.0625 
Q 21.484375 6.890625 26.703125 6.890625 
Q 35.15625 6.890625 40.078125 11.328125 
Q 45.015625 15.765625 45.015625 23.390625 
Q 45.015625 31 40.078125 35.4375 
Q 35.15625 39.890625 26.703125 39.890625 
Q 22.75 39.890625 18.8125 39.015625 
Q 14.890625 38.140625 10.796875 36.28125 
z
" id="DejaVuSans-53"/>
     </defs>
     <use xlink:href="#DejaVuSans-97"/>
     <use x="61.279297" xlink:href="#DejaVuSans-108"/>
     <use x="89.0625" xlink:href="#DejaVuSans-78"/>
     <use x="163.867188" xlink:href="#DejaVuSans-53"/>
    </g>
   </g>
   <g id="text_16">
    <!-- l1p-cmaes -->
    <g transform="translate(375.22944 40.397235)scale(0.17 -0.17)">
     <use xlink:href="#DejaVuSans-108"/>
     <use x="27.783203" xlink:href="#DejaVuSans-49"/>
     <use x="91.40625" xlink:href="#DejaVuSans-112"/>
     <use x="154.882812" xlink:href="#DejaVuSans-45"/>
     <use x="190.966797" xlink:href="#DejaVuSans-99"/>
     <use x="245.947266" xlink:href="#DejaVuSans-109"/>
     <use x="343.359375" xlink:href="#DejaVuSans-97"/>
     <use x="404.638672" xlink:href="#DejaVuSans-101"/>
     <use x="466.162109" xlink:href="#DejaVuSans-115"/>
    </g>
   </g>
   <g id="text_17">
    <!-- bbob-constrained f15, 2-D -->
    <g transform="translate(60.41088 38.111366)scale(0.102 -0.102)">
     <defs>
      <path d="M 19.671875 64.796875 
L 19.671875 8.109375 
L 31.59375 8.109375 
Q 46.6875 8.109375 53.6875 14.9375 
Q 60.6875 21.78125 60.6875 36.53125 
Q 60.6875 51.171875 53.6875 57.984375 
Q 46.6875 64.796875 31.59375 64.796875 
z
M 9.8125 72.90625 
L 30.078125 72.90625 
Q 51.265625 72.90625 61.171875 64.09375 
Q 71.09375 55.28125 71.09375 36.53125 
Q 71.09375 17.671875 61.125 8.828125 
Q 51.171875 0 30.078125 0 
L 9.8125 0 
z
" id="DejaVuSans-68"/>
     </defs>
     <use xlink:href="#DejaVuSans-98"/>
     <use x="63.476562" xlink:href="#DejaVuSans-98"/>
     <use x="126.953125" xlink:href="#DejaVuSans-111"/>
     <use x="188.134766" xlink:href="#DejaVuSans-98"/>
     <use x="251.611328" xlink:href="#DejaVuSans-45"/>
     <use x="287.695312" xlink:href="#DejaVuSans-99"/>
     <use x="342.675781" xlink:href="#DejaVuSans-111"/>
     <use x="403.857422" xlink:href="#DejaVuSans-110"/>
     <use x="467.236328" xlink:href="#DejaVuSans-115"/>
     <use x="519.335938" xlink:href="#DejaVuSans-116"/>
     <use x="558.544922" xlink:href="#DejaVuSans-114"/>
     <use x="599.658203" xlink:href="#DejaVuSans-97"/>
     <use x="660.9375" xlink:href="#DejaVuSans-105"/>
     <use x="688.720703" xlink:href="#DejaVuSans-110"/>
     <use x="752.099609" xlink:href="#DejaVuSans-101"/>
     <use x="813.623047" xlink:href="#DejaVuSans-100"/>
     <use x="877.099609" xlink:href="#DejaVuSans-32"/>
     <use x="908.886719" xlink:href="#DejaVuSans-102"/>
     <use x="944.091797" xlink:href="#DejaVuSans-49"/>
     <use x="1007.714844" xlink:href="#DejaVuSans-53"/>
     <use x="1071.337891" xlink:href="#DejaVuSans-44"/>
     <use x="1103.125" xlink:href="#DejaVuSans-32"/>
     <use x="1134.912109" xlink:href="#DejaVuSans-50"/>
     <use x="1198.535156" xlink:href="#DejaVuSans-45"/>
     <use x="1234.619141" xlink:href="#DejaVuSans-68"/>
    </g>
    <!-- 41 targets: 100..1e-06 -->
    <g transform="translate(60.41088 49.533135)scale(0.102 -0.102)">
     <defs>
      <path d="M 11.71875 12.40625 
L 22.015625 12.40625 
L 22.015625 0 
L 11.71875 0 
z
M 11.71875 51.703125 
L 22.015625 51.703125 
L 22.015625 39.3125 
L 11.71875 39.3125 
z
" id="DejaVuSans-58"/>
     </defs>
     <use xlink:href="#DejaVuSans-52"/>
     <use x="63.623047" xlink:href="#DejaVuSans-49"/>
     <use x="127.246094" xlink:href="#DejaVuSans-32"/>
     <use x="159.033203" xlink:href="#DejaVuSans-116"/>
     <use x="198.242188" xlink:href="#DejaVuSans-97"/>
     <use x="259.521484" xlink:href="#DejaVuSans-114"/>
     <use x="298.884766" xlink:href="#DejaVuSans-103"/>
     <use x="362.361328" xlink:href="#DejaVuSans-101"/>
     <use x="423.884766" xlink:href="#DejaVuSans-116"/>
     <use x="463.09375" xlink:href="#DejaVuSans-115"/>
     <use x="515.193359" xlink:href="#DejaVuSans-58"/>
     <use x="548.884766" xlink:href="#DejaVuSans-32"/>
     <use x="580.671875" xlink:href="#DejaVuSans-49"/>
     <use x="644.294922" xlink:href="#DejaVuSans-48"/>
     <use x="707.917969" xlink:href="#DejaVuSans-48"/>
     <use x="771.541016" xlink:href="#DejaVuSans-46"/>
     <use x="803.328125" xlink:href="#DejaVuSans-46"/>
     <use x="835.115234" xlink:href="#DejaVuSans-49"/>
     <use x="898.738281" xlink:href="#DejaVuSans-101"/>
     <use x="960.261719" xlink:href="#DejaVuSans-45"/>
     <use x="996.345703" xlink:href="#DejaVuSans-48"/>
     <use x="1059.96875" xlink:href="#DejaVuSans-54"/>
    </g>
    <!-- 30, 15 instances -->
    <g transform="translate(60.41088 60.954904)scale(0.102 -0.102)">
     <defs>
      <path d="M 40.578125 39.3125 
Q 47.65625 37.796875 51.625 33 
Q 55.609375 28.21875 55.609375 21.1875 
Q 55.609375 10.40625 48.1875 4.484375 
Q 40.765625 -1.421875 27.09375 -1.421875 
Q 22.515625 -1.421875 17.65625 -0.515625 
Q 12.796875 0.390625 7.625 2.203125 
L 7.625 11.71875 
Q 11.71875 9.328125 16.59375 8.109375 
Q 21.484375 6.890625 26.8125 6.890625 
Q 36.078125 6.890625 40.9375 10.546875 
Q 45.796875 14.203125 45.796875 21.1875 
Q 45.796875 27.640625 41.28125 31.265625 
Q 36.765625 34.90625 28.71875 34.90625 
L 20.21875 34.90625 
L 20.21875 43.015625 
L 29.109375 43.015625 
Q 36.375 43.015625 40.234375 45.921875 
Q 44.09375 48.828125 44.09375 54.296875 
Q 44.09375 59.90625 40.109375 62.90625 
Q 36.140625 65.921875 28.71875 65.921875 
Q 24.65625 65.921875 20.015625 65.03125 
Q 15.375 64.15625 9.8125 62.3125 
L 9.8125 71.09375 
Q 15.4375 72.65625 20.34375 73.4375 
Q 25.25 74.21875 29.59375 74.21875 
Q 40.828125 74.21875 47.359375 69.109375 
Q 53.90625 64.015625 53.90625 55.328125 
Q 53.90625 49.265625 50.4375 45.09375 
Q 46.96875 40.921875 40.578125 39.3125 
z
" id="DejaVuSans-51"/>
     </defs>
     <use xlink:href="#DejaVuSans-51"/>
     <use x="63.623047" xlink:href="#DejaVuSans-48"/>
     <use x="127.246094" xlink:href="#DejaVuSans-44"/>
     <use x="159.033203" xlink:href="#DejaVuSans-32"/>
     <use x="190.820312" xlink:href="#DejaVuSans-49"/>
     <use x="254.443359" xlink:href="#DejaVuSans-53"/>
     <use x="318.066406" xlink:href="#DejaVuSans-32"/>
     <use x="349.853516" xlink:href="#DejaVuSans-105"/>
     <use x="377.636719" xlink:href="#DejaVuSans-110"/>
     <use x="441.015625" xlink:href="#DejaVuSans-115"/>
     <use x="493.115234" xlink:href="#DejaVuSans-116"/>
     <use x="532.324219" xlink:href="#DejaVuSans-97"/>
     <use x="593.603516" xlink:href="#DejaVuSans-110"/>
     <use x="656.982422" xlink:href="#DejaVuSans-99"/>
     <use x="711.962891" xlink:href="#DejaVuSans-101"/>
     <use x="773.486328" xlink:href="#DejaVuSans-115"/>
    </g>
   </g>
   <g id="text_18">
    <!-- v5z33 -->
    <g style="fill:#808080;" transform="translate(183.016656 294.151352)scale(0.1 -0.1)">
     <defs>
      <path d="M 5.515625 54.6875 
L 48.1875 54.6875 
L 48.1875 46.484375 
L 14.40625 7.171875 
L 48.1875 7.171875 
L 48.1875 0 
L 4.296875 0 
L 4.296875 8.203125 
L 38.09375 47.515625 
L 5.515625 47.515625 
z
" id="DejaVuSans-122"/>
     </defs>
     <use xlink:href="#DejaVuSans-118"/>
     <use x="59.179688" xlink:href="#DejaVuSans-53"/>
     <use x="122.802734" xlink:href="#DejaVuSans-122"/>
     <use x="175.292969" xlink:href="#DejaVuSans-51"/>
     <use x="238.916016" xlink:href="#DejaVuSans-51"/>
    </g>
   </g>
   <g id="text_19">
    <!-- 15 Linear Slope, 6 constraints -->
    <g transform="translate(48.770562 21.648)scale(0.2 -0.2)">
     <defs>
      <path d="M 9.8125 72.90625 
L 19.671875 72.90625 
L 19.671875 8.296875 
L 55.171875 8.296875 
L 55.171875 0 
L 9.8125 0 
z
" id="DejaVuSans-76"/>
      <path d="M 53.515625 70.515625 
L 53.515625 60.890625 
Q 47.90625 63.578125 42.921875 64.890625 
Q 37.9375 66.21875 33.296875 66.21875 
Q 25.25 66.21875 20.875 63.09375 
Q 16.5 59.96875 16.5 54.203125 
Q 16.5 49.359375 19.40625 46.890625 
Q 22.3125 44.4375 30.421875 42.921875 
L 36.375 41.703125 
Q 47.40625 39.59375 52.65625 34.296875 
Q 57.90625 29 57.90625 20.125 
Q 57.90625 9.515625 50.796875 4.046875 
Q 43.703125 -1.421875 29.984375 -1.421875 
Q 24.8125 -1.421875 18.96875 -0.25 
Q 13.140625 0.921875 6.890625 3.21875 
L 6.890625 13.375 
Q 12.890625 10.015625 18.65625 8.296875 
Q 24.421875 6.59375 29.984375 6.59375 
Q 38.421875 6.59375 43.015625 9.90625 
Q 47.609375 13.234375 47.609375 19.390625 
Q 47.609375 24.75 44.3125 27.78125 
Q 41.015625 30.8125 33.5 32.328125 
L 27.484375 33.5 
Q 16.453125 35.6875 11.515625 40.375 
Q 6.59375 45.0625 6.59375 53.421875 
Q 6.59375 63.09375 13.40625 68.65625 
Q 20.21875 74.21875 32.171875 74.21875 
Q 37.3125 74.21875 42.625 73.28125 
Q 47.953125 72.359375 53.515625 70.515625 
z
" id="DejaVuSans-83"/>
     </defs>
     <use xlink:href="#DejaVuSans-49"/>
     <use x="63.623047" xlink:href="#DejaVuSans-53"/>
     <use x="127.246094" xlink:href="#DejaVuSans-32"/>
     <use x="159.033203" xlink:href="#DejaVuSans-76"/>
     <use x="214.746094" xlink:href="#DejaVuSans-105"/>
     <use x="242.529297" xlink:href="#DejaVuSans-110"/>
     <use x="305.908203" xlink:href="#DejaVuSans-101"/>
     <use x="367.431641" xlink:href="#DejaVuSans-97"/>
     <use x="428.710938" xlink:href="#DejaVuSans-114"/>
     <use x="469.824219" xlink:href="#DejaVuSans-32"/>
     <use x="501.611328" xlink:href="#DejaVuSans-83"/>
     <use x="565.087891" xlink:href="#DejaVuSans-108"/>
     <use x="592.871094" xlink:href="#DejaVuSans-111"/>
     <use x="654.052734" xlink:href="#DejaVuSans-112"/>
     <use x="717.529297" xlink:href="#DejaVuSans-101"/>
     <use x="779.052734" xlink:href="#DejaVuSans-44"/>
     <use x="810.839844" xlink:href="#DejaVuSans-32"/>
     <use x="842.626953" xlink:href="#DejaVuSans-54"/>
     <use x="906.25" xlink:href="#DejaVuSans-32"/>
     <use x="938.037109" xlink:href="#DejaVuSans-99"/>
     <use x="993.017578" xlink:href="#DejaVuSans-111"/>
     <use x="1054.199219" xlink:href="#DejaVuSans-110"/>
     <use x="1117.578125" xlink:href="#DejaVuSans-115"/>
     <use x="1169.677734" xlink:href="#DejaVuSans-116"/>
     <use x="1208.886719" xlink:href="#DejaVuSans-114"/>
     <use x="1250" xlink:href="#DejaVuSans-97"/>
     <use x="1311.279297" xlink:href="#DejaVuSans-105"/>
     <use x="1339.0625" xlink:href="#DejaVuSans-110"/>
     <use x="1402.441406" xlink:href="#DejaVuSans-116"/>
     <use x="1441.650391" xlink:href="#DejaVuSans-115"/>
    </g>
   </g>
  </g>
 </g>
 <defs>
  <clipPath id="p6821169871">
   <rect height="271.296" width="281.088" x="57.6" y="27.648"/>
  </clipPath>
 </defs>
</svg>
