<?xml version="1.0" encoding="utf-8" standalone="no"?>
<!DOCTYPE svg PUBLIC "-//W3C//DTD SVG 1.1//EN"
  "http://www.w3.org/Graphics/SVG/1.1/DTD/svg11.dtd">
<!-- Created with matplotlib (https://matplotlib.org/) -->
<svg height="345.6pt" version="1.1" viewBox="0 0 460.8 345.6" width="460.8pt" xmlns="http://www.w3.org/2000/svg" xmlns:xlink="http://www.w3.org/1999/xlink">
 <metadata>
  <rdf:RDF xmlns:cc="http://creativecommons.org/ns#" xmlns:dc="http://purl.org/dc/elements/1.1/" xmlns:rdf="http://www.w3.org/1999/02/22-rdf-syntax-ns#">
   <cc:Work>
    <dc:type rdf:resource="http://purl.org/dc/dcmitype/StillImage"/>
    <dc:date>2021-03-11T12:04:20.750136</dc:date>
    <dc:format>image/svg+xml</dc:format>
    <dc:creator>
     <cc:Agent>
      <dc:title>Matplotlib v3.3.3, https://matplotlib.org/</dc:title>
     </cc:Agent>
    </dc:creator>
   </cc:Work>
  </rdf:RDF>
 </metadata>
 <defs>
  <style type="text/css">*{stroke-linecap:butt;stroke-linejoin:round;}</style>
 </defs>
 <g id="figure_1">
  <g id="patch_1">
   <path d="M 0 345.6 
L 460.8 345.6 
L 460.8 0 
L 0 0 
z
" style="fill:#ffffff;"/>
  </g>
  <g id="axes_1">
   <g id="patch_2">
    <path d="M 57.6 298.944 
L 338.688 298.944 
L 338.688 27.648 
L 57.6 27.648 
z
" style="fill:#ffffff;"/>
   </g>
   <g id="matplotlib.axis_1">
    <g id="xtick_1">
     <g id="line2d_1">
      <path clip-path="url(#p199b8ab2d0)" d="M 57.6 298.944 
L 57.6 27.648 
" style="fill:none;stroke:#b0b0b0;stroke-linecap:square;stroke-width:0.8;"/>
     </g>
     <g id="line2d_2">
      <defs>
       <path d="M 0 0 
L 0 3.5 
" id="mf00d916edc" style="stroke:#000000;stroke-width:0.8;"/>
      </defs>
      <g>
       <use style="stroke:#000000;stroke-width:0.8;" x="57.6" xlink:href="#mf00d916edc" y="298.944"/>
      </g>
     </g>
     <g id="text_1">
      <!-- 0 -->
      <g transform="translate(51.2375 321.140875)scale(0.2 -0.2)">
       <defs>
        <path d="M 31.78125 66.40625 
Q 24.171875 66.40625 20.328125 58.90625 
Q 16.5 51.421875 16.5 36.375 
Q 16.5 21.390625 20.328125 13.890625 
Q 24.171875 6.390625 31.78125 6.390625 
Q 39.453125 6.390625 43.28125 13.890625 
Q 47.125 21.390625 47.125 36.375 
Q 47.125 51.421875 43.28125 58.90625 
Q 39.453125 66.40625 31.78125 66.40625 
z
M 31.78125 74.21875 
Q 44.046875 74.21875 50.515625 64.515625 
Q 56.984375 54.828125 56.984375 36.375 
Q 56.984375 17.96875 50.515625 8.265625 
Q 44.046875 -1.421875 31.78125 -1.421875 
Q 19.53125 -1.421875 13.0625 8.265625 
Q 6.59375 17.96875 6.59375 36.375 
Q 6.59375 54.828125 13.0625 64.515625 
Q 19.53125 74.21875 31.78125 74.21875 
z
" id="DejaVuSans-48"/>
       </defs>
       <use xlink:href="#DejaVuSans-48"/>
      </g>
     </g>
    </g>
    <g id="xtick_2">
     <g id="line2d_3">
      <path clip-path="url(#p199b8ab2d0)" d="M 137.910857 298.944 
L 137.910857 27.648 
" style="fill:none;stroke:#b0b0b0;stroke-linecap:square;stroke-width:0.8;"/>
     </g>
     <g id="line2d_4">
      <g>
       <use style="stroke:#000000;stroke-width:0.8;" x="137.910857" xlink:href="#mf00d916edc" y="298.944"/>
      </g>
     </g>
     <g id="text_2">
      <!-- 2 -->
      <g transform="translate(131.548357 321.140875)scale(0.2 -0.2)">
       <defs>
        <path d="M 19.1875 8.296875 
L 53.609375 8.296875 
L 53.609375 0 
L 7.328125 0 
L 7.328125 8.296875 
Q 12.9375 14.109375 22.625 23.890625 
Q 32.328125 33.6875 34.8125 36.53125 
Q 39.546875 41.84375 41.421875 45.53125 
Q 43.3125 49.21875 43.3125 52.78125 
Q 43.3125 58.59375 39.234375 62.25 
Q 35.15625 65.921875 28.609375 65.921875 
Q 23.96875 65.921875 18.8125 64.3125 
Q 13.671875 62.703125 7.8125 59.421875 
L 7.8125 69.390625 
Q 13.765625 71.78125 18.9375 73 
Q 24.125 74.21875 28.421875 74.21875 
Q 39.75 74.21875 46.484375 68.546875 
Q 53.21875 62.890625 53.21875 53.421875 
Q 53.21875 48.921875 51.53125 44.890625 
Q 49.859375 40.875 45.40625 35.40625 
Q 44.1875 33.984375 37.640625 27.21875 
Q 31.109375 20.453125 19.1875 8.296875 
z
" id="DejaVuSans-50"/>
       </defs>
       <use xlink:href="#DejaVuSans-50"/>
      </g>
     </g>
    </g>
    <g id="xtick_3">
     <g id="line2d_5">
      <path clip-path="url(#p199b8ab2d0)" d="M 218.221714 298.944 
L 218.221714 27.648 
" style="fill:none;stroke:#b0b0b0;stroke-linecap:square;stroke-width:0.8;"/>
     </g>
     <g id="line2d_6">
      <g>
       <use style="stroke:#000000;stroke-width:0.8;" x="218.221714" xlink:href="#mf00d916edc" y="298.944"/>
      </g>
     </g>
     <g id="text_3">
      <!-- 4 -->
      <g transform="translate(211.859214 321.140875)scale(0.2 -0.2)">
       <defs>
        <path d="M 37.796875 64.3125 
L 12.890625 25.390625 
L 37.796875 25.390625 
z
M 35.203125 72.90625 
L 47.609375 72.90625 
L 47.609375 25.390625 
L 58.015625 25.390625 
L 58.015625 17.1875 
L 47.609375 17.1875 
L 47.609375 0 
L 37.796875 0 
L 37.796875 17.1875 
L 4.890625 17.1875 
L 4.890625 26.703125 
z
" id="DejaVuSans-52"/>
       </defs>
       <use xlink:href="#DejaVuSans-52"/>
      </g>
     </g>
    </g>
    <g id="xtick_4">
     <g id="line2d_7">
      <path clip-path="url(#p199b8ab2d0)" d="M 298.532571 298.944 
L 298.532571 27.648 
" style="fill:none;stroke:#b0b0b0;stroke-linecap:square;stroke-width:0.8;"/>
     </g>
     <g id="line2d_8">
      <g>
       <use style="stroke:#000000;stroke-width:0.8;" x="298.532571" xlink:href="#mf00d916edc" y="298.944"/>
      </g>
     </g>
     <g id="text_4">
      <!-- 6 -->
      <g transform="translate(292.170071 321.140875)scale(0.2 -0.2)">
       <defs>
        <path d="M 33.015625 40.375 
Q 26.375 40.375 22.484375 35.828125 
Q 18.609375 31.296875 18.609375 23.390625 
Q 18.609375 15.53125 22.484375 10.953125 
Q 26.375 6.390625 33.015625 6.390625 
Q 39.65625 6.390625 43.53125 10.953125 
Q 47.40625 15.53125 47.40625 23.390625 
Q 47.40625 31.296875 43.53125 35.828125 
Q 39.65625 40.375 33.015625 40.375 
z
M 52.59375 71.296875 
L 52.59375 62.3125 
Q 48.875 64.0625 45.09375 64.984375 
Q 41.3125 65.921875 37.59375 65.921875 
Q 27.828125 65.921875 22.671875 59.328125 
Q 17.53125 52.734375 16.796875 39.40625 
Q 19.671875 43.65625 24.015625 45.921875 
Q 28.375 48.1875 33.59375 48.1875 
Q 44.578125 48.1875 50.953125 41.515625 
Q 57.328125 34.859375 57.328125 23.390625 
Q 57.328125 12.15625 50.6875 5.359375 
Q 44.046875 -1.421875 33.015625 -1.421875 
Q 20.359375 -1.421875 13.671875 8.265625 
Q 6.984375 17.96875 6.984375 36.375 
Q 6.984375 53.65625 15.1875 63.9375 
Q 23.390625 74.21875 37.203125 74.21875 
Q 40.921875 74.21875 44.703125 73.484375 
Q 48.484375 72.75 52.59375 71.296875 
z
" id="DejaVuSans-54"/>
       </defs>
       <use xlink:href="#DejaVuSans-54"/>
      </g>
     </g>
    </g>
    <g id="xtick_5">
     <g id="line2d_9">
      <path clip-path="url(#p199b8ab2d0)" d="M 97.755429 298.944 
L 97.755429 27.648 
" style="fill:none;stroke:#b0b0b0;stroke-linecap:square;stroke-width:0.8;"/>
     </g>
     <g id="line2d_10">
      <defs>
       <path d="M 0 0 
L 0 2 
" id="m042a28d25d" style="stroke:#000000;stroke-width:0.6;"/>
      </defs>
      <g>
       <use style="stroke:#000000;stroke-width:0.6;" x="97.755429" xlink:href="#m042a28d25d" y="298.944"/>
      </g>
     </g>
    </g>
    <g id="xtick_6">
     <g id="line2d_11">
      <path clip-path="url(#p199b8ab2d0)" d="M 178.066286 298.944 
L 178.066286 27.648 
" style="fill:none;stroke:#b0b0b0;stroke-linecap:square;stroke-width:0.8;"/>
     </g>
     <g id="line2d_12">
      <g>
       <use style="stroke:#000000;stroke-width:0.6;" x="178.066286" xlink:href="#m042a28d25d" y="298.944"/>
      </g>
     </g>
    </g>
    <g id="xtick_7">
     <g id="line2d_13">
      <path clip-path="url(#p199b8ab2d0)" d="M 258.377143 298.944 
L 258.377143 27.648 
" style="fill:none;stroke:#b0b0b0;stroke-linecap:square;stroke-width:0.8;"/>
     </g>
     <g id="line2d_14">
      <g>
       <use style="stroke:#000000;stroke-width:0.6;" x="258.377143" xlink:href="#m042a28d25d" y="298.944"/>
      </g>
     </g>
    </g>
    <g id="xtick_8">
     <g id="line2d_15">
      <path clip-path="url(#p199b8ab2d0)" d="M 338.688 298.944 
L 338.688 27.648 
" style="fill:none;stroke:#b0b0b0;stroke-linecap:square;stroke-width:0.8;"/>
     </g>
     <g id="line2d_16">
      <g>
       <use style="stroke:#000000;stroke-width:0.6;" x="338.688" xlink:href="#m042a28d25d" y="298.944"/>
      </g>
     </g>
    </g>
    <g id="text_5">
     <!-- log10(# (f+g)-evals / dimension) -->
     <g transform="translate(58.145016 342.217594)scale(0.17 -0.17)">
      <defs>
       <path d="M 9.421875 75.984375 
L 18.40625 75.984375 
L 18.40625 0 
L 9.421875 0 
z
" id="DejaVuSans-108"/>
       <path d="M 30.609375 48.390625 
Q 23.390625 48.390625 19.1875 42.75 
Q 14.984375 37.109375 14.984375 27.296875 
Q 14.984375 17.484375 19.15625 11.84375 
Q 23.34375 6.203125 30.609375 6.203125 
Q 37.796875 6.203125 41.984375 11.859375 
Q 46.1875 17.53125 46.1875 27.296875 
Q 46.1875 37.015625 41.984375 42.703125 
Q 37.796875 48.390625 30.609375 48.390625 
z
M 30.609375 56 
Q 42.328125 56 49.015625 48.375 
Q 55.71875 40.765625 55.71875 27.296875 
Q 55.71875 13.875 49.015625 6.21875 
Q 42.328125 -1.421875 30.609375 -1.421875 
Q 18.84375 -1.421875 12.171875 6.21875 
Q 5.515625 13.875 5.515625 27.296875 
Q 5.515625 40.765625 12.171875 48.375 
Q 18.84375 56 30.609375 56 
z
" id="DejaVuSans-111"/>
       <path d="M 45.40625 27.984375 
Q 45.40625 37.75 41.375 43.109375 
Q 37.359375 48.484375 30.078125 48.484375 
Q 22.859375 48.484375 18.828125 43.109375 
Q 14.796875 37.75 14.796875 27.984375 
Q 14.796875 18.265625 18.828125 12.890625 
Q 22.859375 7.515625 30.078125 7.515625 
Q 37.359375 7.515625 41.375 12.890625 
Q 45.40625 18.265625 45.40625 27.984375 
z
M 54.390625 6.78125 
Q 54.390625 -7.171875 48.1875 -13.984375 
Q 42 -20.796875 29.203125 -20.796875 
Q 24.46875 -20.796875 20.265625 -20.09375 
Q 16.0625 -19.390625 12.109375 -17.921875 
L 12.109375 -9.1875 
Q 16.0625 -11.328125 19.921875 -12.34375 
Q 23.78125 -13.375 27.78125 -13.375 
Q 36.625 -13.375 41.015625 -8.765625 
Q 45.40625 -4.15625 45.40625 5.171875 
L 45.40625 9.625 
Q 42.625 4.78125 38.28125 2.390625 
Q 33.9375 0 27.875 0 
Q 17.828125 0 11.671875 7.65625 
Q 5.515625 15.328125 5.515625 27.984375 
Q 5.515625 40.671875 11.671875 48.328125 
Q 17.828125 56 27.875 56 
Q 33.9375 56 38.28125 53.609375 
Q 42.625 51.21875 45.40625 46.390625 
L 45.40625 54.6875 
L 54.390625 54.6875 
z
" id="DejaVuSans-103"/>
       <path d="M 12.40625 8.296875 
L 28.515625 8.296875 
L 28.515625 63.921875 
L 10.984375 60.40625 
L 10.984375 69.390625 
L 28.421875 72.90625 
L 38.28125 72.90625 
L 38.28125 8.296875 
L 54.390625 8.296875 
L 54.390625 0 
L 12.40625 0 
z
" id="DejaVuSans-49"/>
       <path d="M 31 75.875 
Q 24.46875 64.65625 21.28125 53.65625 
Q 18.109375 42.671875 18.109375 31.390625 
Q 18.109375 20.125 21.3125 9.0625 
Q 24.515625 -2 31 -13.1875 
L 23.1875 -13.1875 
Q 15.875 -1.703125 12.234375 9.375 
Q 8.59375 20.453125 8.59375 31.390625 
Q 8.59375 42.28125 12.203125 53.3125 
Q 15.828125 64.359375 23.1875 75.875 
z
" id="DejaVuSans-40"/>
       <path d="M 51.125 44 
L 36.921875 44 
L 32.8125 27.6875 
L 47.125 27.6875 
z
M 43.796875 71.78125 
L 38.71875 51.515625 
L 52.984375 51.515625 
L 58.109375 71.78125 
L 65.921875 71.78125 
L 60.890625 51.515625 
L 76.125 51.515625 
L 76.125 44 
L 58.984375 44 
L 54.984375 27.6875 
L 70.515625 27.6875 
L 70.515625 20.21875 
L 53.078125 20.21875 
L 48 0 
L 40.1875 0 
L 45.21875 20.21875 
L 30.90625 20.21875 
L 25.875 0 
L 18.015625 0 
L 23.09375 20.21875 
L 7.71875 20.21875 
L 7.71875 27.6875 
L 24.90625 27.6875 
L 29 44 
L 13.28125 44 
L 13.28125 51.515625 
L 30.90625 51.515625 
L 35.890625 71.78125 
z
" id="DejaVuSans-35"/>
       <path id="DejaVuSans-32"/>
       <path d="M 37.109375 75.984375 
L 37.109375 68.5 
L 28.515625 68.5 
Q 23.6875 68.5 21.796875 66.546875 
Q 19.921875 64.59375 19.921875 59.515625 
L 19.921875 54.6875 
L 34.71875 54.6875 
L 34.71875 47.703125 
L 19.921875 47.703125 
L 19.921875 0 
L 10.890625 0 
L 10.890625 47.703125 
L 2.296875 47.703125 
L 2.296875 54.6875 
L 10.890625 54.6875 
L 10.890625 58.5 
Q 10.890625 67.625 15.140625 71.796875 
Q 19.390625 75.984375 28.609375 75.984375 
z
" id="DejaVuSans-102"/>
       <path d="M 46 62.703125 
L 46 35.5 
L 73.1875 35.5 
L 73.1875 27.203125 
L 46 27.203125 
L 46 0 
L 37.796875 0 
L 37.796875 27.203125 
L 10.59375 27.203125 
L 10.59375 35.5 
L 37.796875 35.5 
L 37.796875 62.703125 
z
" id="DejaVuSans-43"/>
       <path d="M 8.015625 75.875 
L 15.828125 75.875 
Q 23.140625 64.359375 26.78125 53.3125 
Q 30.421875 42.28125 30.421875 31.390625 
Q 30.421875 20.453125 26.78125 9.375 
Q 23.140625 -1.703125 15.828125 -13.1875 
L 8.015625 -13.1875 
Q 14.5 -2 17.703125 9.0625 
Q 20.90625 20.125 20.90625 31.390625 
Q 20.90625 42.671875 17.703125 53.65625 
Q 14.5 64.65625 8.015625 75.875 
z
" id="DejaVuSans-41"/>
       <path d="M 4.890625 31.390625 
L 31.203125 31.390625 
L 31.203125 23.390625 
L 4.890625 23.390625 
z
" id="DejaVuSans-45"/>
       <path d="M 56.203125 29.59375 
L 56.203125 25.203125 
L 14.890625 25.203125 
Q 15.484375 15.921875 20.484375 11.0625 
Q 25.484375 6.203125 34.421875 6.203125 
Q 39.59375 6.203125 44.453125 7.46875 
Q 49.3125 8.734375 54.109375 11.28125 
L 54.109375 2.78125 
Q 49.265625 0.734375 44.1875 -0.34375 
Q 39.109375 -1.421875 33.890625 -1.421875 
Q 20.796875 -1.421875 13.15625 6.1875 
Q 5.515625 13.8125 5.515625 26.8125 
Q 5.515625 40.234375 12.765625 48.109375 
Q 20.015625 56 32.328125 56 
Q 43.359375 56 49.78125 48.890625 
Q 56.203125 41.796875 56.203125 29.59375 
z
M 47.21875 32.234375 
Q 47.125 39.59375 43.09375 43.984375 
Q 39.0625 48.390625 32.421875 48.390625 
Q 24.90625 48.390625 20.390625 44.140625 
Q 15.875 39.890625 15.1875 32.171875 
z
" id="DejaVuSans-101"/>
       <path d="M 2.984375 54.6875 
L 12.5 54.6875 
L 29.59375 8.796875 
L 46.6875 54.6875 
L 56.203125 54.6875 
L 35.6875 0 
L 23.484375 0 
z
" id="DejaVuSans-118"/>
       <path d="M 34.28125 27.484375 
Q 23.390625 27.484375 19.1875 25 
Q 14.984375 22.515625 14.984375 16.5 
Q 14.984375 11.71875 18.140625 8.90625 
Q 21.296875 6.109375 26.703125 6.109375 
Q 34.1875 6.109375 38.703125 11.40625 
Q 43.21875 16.703125 43.21875 25.484375 
L 43.21875 27.484375 
z
M 52.203125 31.203125 
L 52.203125 0 
L 43.21875 0 
L 43.21875 8.296875 
Q 40.140625 3.328125 35.546875 0.953125 
Q 30.953125 -1.421875 24.3125 -1.421875 
Q 15.921875 -1.421875 10.953125 3.296875 
Q 6 8.015625 6 15.921875 
Q 6 25.140625 12.171875 29.828125 
Q 18.359375 34.515625 30.609375 34.515625 
L 43.21875 34.515625 
L 43.21875 35.40625 
Q 43.21875 41.609375 39.140625 45 
Q 35.0625 48.390625 27.6875 48.390625 
Q 23 48.390625 18.546875 47.265625 
Q 14.109375 46.140625 10.015625 43.890625 
L 10.015625 52.203125 
Q 14.9375 54.109375 19.578125 55.046875 
Q 24.21875 56 28.609375 56 
Q 40.484375 56 46.34375 49.84375 
Q 52.203125 43.703125 52.203125 31.203125 
z
" id="DejaVuSans-97"/>
       <path d="M 44.28125 53.078125 
L 44.28125 44.578125 
Q 40.484375 46.53125 36.375 47.5 
Q 32.28125 48.484375 27.875 48.484375 
Q 21.1875 48.484375 17.84375 46.4375 
Q 14.5 44.390625 14.5 40.28125 
Q 14.5 37.15625 16.890625 35.375 
Q 19.28125 33.59375 26.515625 31.984375 
L 29.59375 31.296875 
Q 39.15625 29.25 43.1875 25.515625 
Q 47.21875 21.78125 47.21875 15.09375 
Q 47.21875 7.46875 41.1875 3.015625 
Q 35.15625 -1.421875 24.609375 -1.421875 
Q 20.21875 -1.421875 15.453125 -0.5625 
Q 10.6875 0.296875 5.421875 2 
L 5.421875 11.28125 
Q 10.40625 8.6875 15.234375 7.390625 
Q 20.0625 6.109375 24.8125 6.109375 
Q 31.15625 6.109375 34.5625 8.28125 
Q 37.984375 10.453125 37.984375 14.40625 
Q 37.984375 18.0625 35.515625 20.015625 
Q 33.0625 21.96875 24.703125 23.78125 
L 21.578125 24.515625 
Q 13.234375 26.265625 9.515625 29.90625 
Q 5.8125 33.546875 5.8125 39.890625 
Q 5.8125 47.609375 11.28125 51.796875 
Q 16.75 56 26.8125 56 
Q 31.78125 56 36.171875 55.265625 
Q 40.578125 54.546875 44.28125 53.078125 
z
" id="DejaVuSans-115"/>
       <path d="M 25.390625 72.90625 
L 33.6875 72.90625 
L 8.296875 -9.28125 
L 0 -9.28125 
z
" id="DejaVuSans-47"/>
       <path d="M 45.40625 46.390625 
L 45.40625 75.984375 
L 54.390625 75.984375 
L 54.390625 0 
L 45.40625 0 
L 45.40625 8.203125 
Q 42.578125 3.328125 38.25 0.953125 
Q 33.9375 -1.421875 27.875 -1.421875 
Q 17.96875 -1.421875 11.734375 6.484375 
Q 5.515625 14.40625 5.515625 27.296875 
Q 5.515625 40.1875 11.734375 48.09375 
Q 17.96875 56 27.875 56 
Q 33.9375 56 38.25 53.625 
Q 42.578125 51.265625 45.40625 46.390625 
z
M 14.796875 27.296875 
Q 14.796875 17.390625 18.875 11.75 
Q 22.953125 6.109375 30.078125 6.109375 
Q 37.203125 6.109375 41.296875 11.75 
Q 45.40625 17.390625 45.40625 27.296875 
Q 45.40625 37.203125 41.296875 42.84375 
Q 37.203125 48.484375 30.078125 48.484375 
Q 22.953125 48.484375 18.875 42.84375 
Q 14.796875 37.203125 14.796875 27.296875 
z
" id="DejaVuSans-100"/>
       <path d="M 9.421875 54.6875 
L 18.40625 54.6875 
L 18.40625 0 
L 9.421875 0 
z
M 9.421875 75.984375 
L 18.40625 75.984375 
L 18.40625 64.59375 
L 9.421875 64.59375 
z
" id="DejaVuSans-105"/>
       <path d="M 52 44.1875 
Q 55.375 50.25 60.0625 53.125 
Q 64.75 56 71.09375 56 
Q 79.640625 56 84.28125 50.015625 
Q 88.921875 44.046875 88.921875 33.015625 
L 88.921875 0 
L 79.890625 0 
L 79.890625 32.71875 
Q 79.890625 40.578125 77.09375 44.375 
Q 74.3125 48.1875 68.609375 48.1875 
Q 61.625 48.1875 57.5625 43.546875 
Q 53.515625 38.921875 53.515625 30.90625 
L 53.515625 0 
L 44.484375 0 
L 44.484375 32.71875 
Q 44.484375 40.625 41.703125 44.40625 
Q 38.921875 48.1875 33.109375 48.1875 
Q 26.21875 48.1875 22.15625 43.53125 
Q 18.109375 38.875 18.109375 30.90625 
L 18.109375 0 
L 9.078125 0 
L 9.078125 54.6875 
L 18.109375 54.6875 
L 18.109375 46.1875 
Q 21.1875 51.21875 25.484375 53.609375 
Q 29.78125 56 35.6875 56 
Q 41.65625 56 45.828125 52.96875 
Q 50 49.953125 52 44.1875 
z
" id="DejaVuSans-109"/>
       <path d="M 54.890625 33.015625 
L 54.890625 0 
L 45.90625 0 
L 45.90625 32.71875 
Q 45.90625 40.484375 42.875 44.328125 
Q 39.84375 48.1875 33.796875 48.1875 
Q 26.515625 48.1875 22.3125 43.546875 
Q 18.109375 38.921875 18.109375 30.90625 
L 18.109375 0 
L 9.078125 0 
L 9.078125 54.6875 
L 18.109375 54.6875 
L 18.109375 46.1875 
Q 21.34375 51.125 25.703125 53.5625 
Q 30.078125 56 35.796875 56 
Q 45.21875 56 50.046875 50.171875 
Q 54.890625 44.34375 54.890625 33.015625 
z
" id="DejaVuSans-110"/>
      </defs>
      <use xlink:href="#DejaVuSans-108"/>
      <use x="27.783203" xlink:href="#DejaVuSans-111"/>
      <use x="88.964844" xlink:href="#DejaVuSans-103"/>
      <use x="152.441406" xlink:href="#DejaVuSans-49"/>
      <use x="216.064453" xlink:href="#DejaVuSans-48"/>
      <use x="279.6875" xlink:href="#DejaVuSans-40"/>
      <use x="318.701172" xlink:href="#DejaVuSans-35"/>
      <use x="402.490234" xlink:href="#DejaVuSans-32"/>
      <use x="434.277344" xlink:href="#DejaVuSans-40"/>
      <use x="473.291016" xlink:href="#DejaVuSans-102"/>
      <use x="508.496094" xlink:href="#DejaVuSans-43"/>
      <use x="592.285156" xlink:href="#DejaVuSans-103"/>
      <use x="655.761719" xlink:href="#DejaVuSans-41"/>
      <use x="694.775391" xlink:href="#DejaVuSans-45"/>
      <use x="730.859375" xlink:href="#DejaVuSans-101"/>
      <use x="792.382812" xlink:href="#DejaVuSans-118"/>
      <use x="851.5625" xlink:href="#DejaVuSans-97"/>
      <use x="912.841797" xlink:href="#DejaVuSans-108"/>
      <use x="940.625" xlink:href="#DejaVuSans-115"/>
      <use x="992.724609" xlink:href="#DejaVuSans-32"/>
      <use x="1024.511719" xlink:href="#DejaVuSans-47"/>
      <use x="1058.203125" xlink:href="#DejaVuSans-32"/>
      <use x="1089.990234" xlink:href="#DejaVuSans-100"/>
      <use x="1153.466797" xlink:href="#DejaVuSans-105"/>
      <use x="1181.25" xlink:href="#DejaVuSans-109"/>
      <use x="1278.662109" xlink:href="#DejaVuSans-101"/>
      <use x="1340.185547" xlink:href="#DejaVuSans-110"/>
      <use x="1403.564453" xlink:href="#DejaVuSans-115"/>
      <use x="1455.664062" xlink:href="#DejaVuSans-105"/>
      <use x="1483.447266" xlink:href="#DejaVuSans-111"/>
      <use x="1544.628906" xlink:href="#DejaVuSans-110"/>
      <use x="1608.007812" xlink:href="#DejaVuSans-41"/>
     </g>
    </g>
   </g>
   <g id="matplotlib.axis_2">
    <g id="ytick_1">
     <g id="line2d_17">
      <path clip-path="url(#p199b8ab2d0)" d="M 57.6 298.944 
L 338.688 298.944 
" style="fill:none;stroke:#b0b0b0;stroke-linecap:square;stroke-width:0.8;"/>
     </g>
     <g id="line2d_18">
      <defs>
       <path d="M 0 0 
L -3.5 0 
" id="mfa62f13146" style="stroke:#000000;stroke-width:0.8;"/>
      </defs>
      <g>
       <use style="stroke:#000000;stroke-width:0.8;" x="57.6" xlink:href="#mfa62f13146" y="298.944"/>
      </g>
     </g>
     <g id="text_6">
      <!-- 0.0 -->
      <g transform="translate(25.155 305.02275)scale(0.16 -0.16)">
       <defs>
        <path d="M 10.6875 12.40625 
L 21 12.40625 
L 21 0 
L 10.6875 0 
z
" id="DejaVuSans-46"/>
       </defs>
       <use xlink:href="#DejaVuSans-48"/>
       <use x="63.623047" xlink:href="#DejaVuSans-46"/>
       <use x="95.410156" xlink:href="#DejaVuSans-48"/>
      </g>
     </g>
    </g>
    <g id="ytick_2">
     <g id="line2d_19">
      <path clip-path="url(#p199b8ab2d0)" d="M 57.6 245.22202 
L 338.688 245.22202 
" style="fill:none;stroke:#b0b0b0;stroke-linecap:square;stroke-width:0.8;"/>
     </g>
     <g id="line2d_20">
      <g>
       <use style="stroke:#000000;stroke-width:0.8;" x="57.6" xlink:href="#mfa62f13146" y="245.22202"/>
      </g>
     </g>
     <g id="text_7">
      <!-- 0.2 -->
      <g transform="translate(25.155 251.30077)scale(0.16 -0.16)">
       <use xlink:href="#DejaVuSans-48"/>
       <use x="63.623047" xlink:href="#DejaVuSans-46"/>
       <use x="95.410156" xlink:href="#DejaVuSans-50"/>
      </g>
     </g>
    </g>
    <g id="ytick_3">
     <g id="line2d_21">
      <path clip-path="url(#p199b8ab2d0)" d="M 57.6 191.50004 
L 338.688 191.50004 
" style="fill:none;stroke:#b0b0b0;stroke-linecap:square;stroke-width:0.8;"/>
     </g>
     <g id="line2d_22">
      <g>
       <use style="stroke:#000000;stroke-width:0.8;" x="57.6" xlink:href="#mfa62f13146" y="191.50004"/>
      </g>
     </g>
     <g id="text_8">
      <!-- 0.4 -->
      <g transform="translate(25.155 197.57879)scale(0.16 -0.16)">
       <use xlink:href="#DejaVuSans-48"/>
       <use x="63.623047" xlink:href="#DejaVuSans-46"/>
       <use x="95.410156" xlink:href="#DejaVuSans-52"/>
      </g>
     </g>
    </g>
    <g id="ytick_4">
     <g id="line2d_23">
      <path clip-path="url(#p199b8ab2d0)" d="M 57.6 137.778059 
L 338.688 137.778059 
" style="fill:none;stroke:#b0b0b0;stroke-linecap:square;stroke-width:0.8;"/>
     </g>
     <g id="line2d_24">
      <g>
       <use style="stroke:#000000;stroke-width:0.8;" x="57.6" xlink:href="#mfa62f13146" y="137.778059"/>
      </g>
     </g>
     <g id="text_9">
      <!-- 0.6 -->
      <g transform="translate(25.155 143.856809)scale(0.16 -0.16)">
       <use xlink:href="#DejaVuSans-48"/>
       <use x="63.623047" xlink:href="#DejaVuSans-46"/>
       <use x="95.410156" xlink:href="#DejaVuSans-54"/>
      </g>
     </g>
    </g>
    <g id="ytick_5">
     <g id="line2d_25">
      <path clip-path="url(#p199b8ab2d0)" d="M 57.6 84.056079 
L 338.688 84.056079 
" style="fill:none;stroke:#b0b0b0;stroke-linecap:square;stroke-width:0.8;"/>
     </g>
     <g id="line2d_26">
      <g>
       <use style="stroke:#000000;stroke-width:0.8;" x="57.6" xlink:href="#mfa62f13146" y="84.056079"/>
      </g>
     </g>
     <g id="text_10">
      <!-- 0.8 -->
      <g transform="translate(25.155 90.134829)scale(0.16 -0.16)">
       <defs>
        <path d="M 31.78125 34.625 
Q 24.75 34.625 20.71875 30.859375 
Q 16.703125 27.09375 16.703125 20.515625 
Q 16.703125 13.921875 20.71875 10.15625 
Q 24.75 6.390625 31.78125 6.390625 
Q 38.8125 6.390625 42.859375 10.171875 
Q 46.921875 13.96875 46.921875 20.515625 
Q 46.921875 27.09375 42.890625 30.859375 
Q 38.875 34.625 31.78125 34.625 
z
M 21.921875 38.8125 
Q 15.578125 40.375 12.03125 44.71875 
Q 8.5 49.078125 8.5 55.328125 
Q 8.5 64.0625 14.71875 69.140625 
Q 20.953125 74.21875 31.78125 74.21875 
Q 42.671875 74.21875 48.875 69.140625 
Q 55.078125 64.0625 55.078125 55.328125 
Q 55.078125 49.078125 51.53125 44.71875 
Q 48 40.375 41.703125 38.8125 
Q 48.828125 37.15625 52.796875 32.3125 
Q 56.78125 27.484375 56.78125 20.515625 
Q 56.78125 9.90625 50.3125 4.234375 
Q 43.84375 -1.421875 31.78125 -1.421875 
Q 19.734375 -1.421875 13.25 4.234375 
Q 6.78125 9.90625 6.78125 20.515625 
Q 6.78125 27.484375 10.78125 32.3125 
Q 14.796875 37.15625 21.921875 38.8125 
z
M 18.3125 54.390625 
Q 18.3125 48.734375 21.84375 45.5625 
Q 25.390625 42.390625 31.78125 42.390625 
Q 38.140625 42.390625 41.71875 45.5625 
Q 45.3125 48.734375 45.3125 54.390625 
Q 45.3125 60.0625 41.71875 63.234375 
Q 38.140625 66.40625 31.78125 66.40625 
Q 25.390625 66.40625 21.84375 63.234375 
Q 18.3125 60.0625 18.3125 54.390625 
z
" id="DejaVuSans-56"/>
       </defs>
       <use xlink:href="#DejaVuSans-48"/>
       <use x="63.623047" xlink:href="#DejaVuSans-46"/>
       <use x="95.410156" xlink:href="#DejaVuSans-56"/>
      </g>
     </g>
    </g>
    <g id="ytick_6">
     <g id="line2d_27">
      <path clip-path="url(#p199b8ab2d0)" d="M 57.6 30.334099 
L 338.688 30.334099 
" style="fill:none;stroke:#b0b0b0;stroke-linecap:square;stroke-width:0.8;"/>
     </g>
     <g id="line2d_28">
      <g>
       <use style="stroke:#000000;stroke-width:0.8;" x="57.6" xlink:href="#mfa62f13146" y="30.334099"/>
      </g>
     </g>
     <g id="text_11">
      <!-- 1.0 -->
      <g transform="translate(25.155 36.412849)scale(0.16 -0.16)">
       <use xlink:href="#DejaVuSans-49"/>
       <use x="63.623047" xlink:href="#DejaVuSans-46"/>
       <use x="95.410156" xlink:href="#DejaVuSans-48"/>
      </g>
     </g>
    </g>
    <g id="text_12">
     <!-- Fraction of function,target pairs -->
     <g transform="translate(17.619531 297.681)rotate(-90)scale(0.17 -0.17)">
      <defs>
       <path d="M 9.8125 72.90625 
L 51.703125 72.90625 
L 51.703125 64.59375 
L 19.671875 64.59375 
L 19.671875 43.109375 
L 48.578125 43.109375 
L 48.578125 34.8125 
L 19.671875 34.8125 
L 19.671875 0 
L 9.8125 0 
z
" id="DejaVuSans-70"/>
       <path d="M 41.109375 46.296875 
Q 39.59375 47.171875 37.8125 47.578125 
Q 36.03125 48 33.890625 48 
Q 26.265625 48 22.1875 43.046875 
Q 18.109375 38.09375 18.109375 28.8125 
L 18.109375 0 
L 9.078125 0 
L 9.078125 54.6875 
L 18.109375 54.6875 
L 18.109375 46.1875 
Q 20.953125 51.171875 25.484375 53.578125 
Q 30.03125 56 36.53125 56 
Q 37.453125 56 38.578125 55.875 
Q 39.703125 55.765625 41.0625 55.515625 
z
" id="DejaVuSans-114"/>
       <path d="M 48.78125 52.59375 
L 48.78125 44.1875 
Q 44.96875 46.296875 41.140625 47.34375 
Q 37.3125 48.390625 33.40625 48.390625 
Q 24.65625 48.390625 19.8125 42.84375 
Q 14.984375 37.3125 14.984375 27.296875 
Q 14.984375 17.28125 19.8125 11.734375 
Q 24.65625 6.203125 33.40625 6.203125 
Q 37.3125 6.203125 41.140625 7.25 
Q 44.96875 8.296875 48.78125 10.40625 
L 48.78125 2.09375 
Q 45.015625 0.34375 40.984375 -0.53125 
Q 36.96875 -1.421875 32.421875 -1.421875 
Q 20.0625 -1.421875 12.78125 6.34375 
Q 5.515625 14.109375 5.515625 27.296875 
Q 5.515625 40.671875 12.859375 48.328125 
Q 20.21875 56 33.015625 56 
Q 37.15625 56 41.109375 55.140625 
Q 45.0625 54.296875 48.78125 52.59375 
z
" id="DejaVuSans-99"/>
       <path d="M 18.3125 70.21875 
L 18.3125 54.6875 
L 36.8125 54.6875 
L 36.8125 47.703125 
L 18.3125 47.703125 
L 18.3125 18.015625 
Q 18.3125 11.328125 20.140625 9.421875 
Q 21.96875 7.515625 27.59375 7.515625 
L 36.8125 7.515625 
L 36.8125 0 
L 27.59375 0 
Q 17.1875 0 13.234375 3.875 
Q 9.28125 7.765625 9.28125 18.015625 
L 9.28125 47.703125 
L 2.6875 47.703125 
L 2.6875 54.6875 
L 9.28125 54.6875 
L 9.28125 70.21875 
z
" id="DejaVuSans-116"/>
       <path d="M 8.5 21.578125 
L 8.5 54.6875 
L 17.484375 54.6875 
L 17.484375 21.921875 
Q 17.484375 14.15625 20.5 10.265625 
Q 23.53125 6.390625 29.59375 6.390625 
Q 36.859375 6.390625 41.078125 11.03125 
Q 45.3125 15.671875 45.3125 23.6875 
L 45.3125 54.6875 
L 54.296875 54.6875 
L 54.296875 0 
L 45.3125 0 
L 45.3125 8.40625 
Q 42.046875 3.421875 37.71875 1 
Q 33.40625 -1.421875 27.6875 -1.421875 
Q 18.265625 -1.421875 13.375 4.4375 
Q 8.5 10.296875 8.5 21.578125 
z
M 31.109375 56 
z
" id="DejaVuSans-117"/>
       <path d="M 11.71875 12.40625 
L 22.015625 12.40625 
L 22.015625 4 
L 14.015625 -11.625 
L 7.71875 -11.625 
L 11.71875 4 
z
" id="DejaVuSans-44"/>
       <path d="M 18.109375 8.203125 
L 18.109375 -20.796875 
L 9.078125 -20.796875 
L 9.078125 54.6875 
L 18.109375 54.6875 
L 18.109375 46.390625 
Q 20.953125 51.265625 25.265625 53.625 
Q 29.59375 56 35.59375 56 
Q 45.5625 56 51.78125 48.09375 
Q 58.015625 40.1875 58.015625 27.296875 
Q 58.015625 14.40625 51.78125 6.484375 
Q 45.5625 -1.421875 35.59375 -1.421875 
Q 29.59375 -1.421875 25.265625 0.953125 
Q 20.953125 3.328125 18.109375 8.203125 
z
M 48.6875 27.296875 
Q 48.6875 37.203125 44.609375 42.84375 
Q 40.53125 48.484375 33.40625 48.484375 
Q 26.265625 48.484375 22.1875 42.84375 
Q 18.109375 37.203125 18.109375 27.296875 
Q 18.109375 17.390625 22.1875 11.75 
Q 26.265625 6.109375 33.40625 6.109375 
Q 40.53125 6.109375 44.609375 11.75 
Q 48.6875 17.390625 48.6875 27.296875 
z
" id="DejaVuSans-112"/>
      </defs>
      <use xlink:href="#DejaVuSans-70"/>
      <use x="50.269531" xlink:href="#DejaVuSans-114"/>
      <use x="91.382812" xlink:href="#DejaVuSans-97"/>
      <use x="152.662109" xlink:href="#DejaVuSans-99"/>
      <use x="207.642578" xlink:href="#DejaVuSans-116"/>
      <use x="246.851562" xlink:href="#DejaVuSans-105"/>
      <use x="274.634766" xlink:href="#DejaVuSans-111"/>
      <use x="335.816406" xlink:href="#DejaVuSans-110"/>
      <use x="399.195312" xlink:href="#DejaVuSans-32"/>
      <use x="430.982422" xlink:href="#DejaVuSans-111"/>
      <use x="492.164062" xlink:href="#DejaVuSans-102"/>
      <use x="527.369141" xlink:href="#DejaVuSans-32"/>
      <use x="559.15625" xlink:href="#DejaVuSans-102"/>
      <use x="594.361328" xlink:href="#DejaVuSans-117"/>
      <use x="657.740234" xlink:href="#DejaVuSans-110"/>
      <use x="721.119141" xlink:href="#DejaVuSans-99"/>
      <use x="776.099609" xlink:href="#DejaVuSans-116"/>
      <use x="815.308594" xlink:href="#DejaVuSans-105"/>
      <use x="843.091797" xlink:href="#DejaVuSans-111"/>
      <use x="904.273438" xlink:href="#DejaVuSans-110"/>
      <use x="967.652344" xlink:href="#DejaVuSans-44"/>
      <use x="999.439453" xlink:href="#DejaVuSans-116"/>
      <use x="1038.648438" xlink:href="#DejaVuSans-97"/>
      <use x="1099.927734" xlink:href="#DejaVuSans-114"/>
      <use x="1139.291016" xlink:href="#DejaVuSans-103"/>
      <use x="1202.767578" xlink:href="#DejaVuSans-101"/>
      <use x="1264.291016" xlink:href="#DejaVuSans-116"/>
      <use x="1303.5" xlink:href="#DejaVuSans-32"/>
      <use x="1335.287109" xlink:href="#DejaVuSans-112"/>
      <use x="1398.763672" xlink:href="#DejaVuSans-97"/>
      <use x="1460.042969" xlink:href="#DejaVuSans-105"/>
      <use x="1487.826172" xlink:href="#DejaVuSans-114"/>
      <use x="1528.939453" xlink:href="#DejaVuSans-115"/>
     </g>
    </g>
   </g>
   <g id="line2d_29">
    <defs>
     <path d="M 0 1.5 
C 0.397805 1.5 0.77937 1.341951 1.06066 1.06066 
C 1.341951 0.77937 1.5 0.397805 1.5 0 
C 1.5 -0.397805 1.341951 -0.77937 1.06066 -1.06066 
C 0.77937 -1.341951 0.397805 -1.5 0 -1.5 
C -0.397805 -1.5 -0.77937 -1.341951 -1.06066 -1.06066 
C -1.341951 -0.77937 -1.5 -0.397805 -1.5 0 
C -1.5 0.397805 -1.341951 0.77937 -1.06066 1.06066 
C -0.77937 1.341951 -0.397805 1.5 0 1.5 
z
" id="m569ad3ca42" style="stroke:#000080;"/>
    </defs>
    <g>
     <use style="fill:#000080;stroke:#000080;" x="181.050743" xlink:href="#m569ad3ca42" y="30.334099"/>
     <use style="fill:#000080;stroke:#000080;" x="181.050743" xlink:href="#m569ad3ca42" y="30.334099"/>
    </g>
   </g>
   <g id="line2d_30">
    <path d="M -1 293.702831 
L 24.515591 293.702831 
L 24.515591 293.047685 
L 29.53256 293.047685 
L 29.53256 292.392539 
L 55.762588 292.392539 
L 55.762588 291.737393 
L 59.262141 291.737393 
L 59.262141 291.082247 
L 72.867545 291.082247 
L 72.867545 289.116809 
L 73.227131 289.116809 
L 73.227131 285.185932 
L 73.579452 285.185932 
L 73.579452 284.530786 
L 74.263433 284.530786 
L 74.263433 274.703594 
L 78.683399 274.703594 
L 78.683399 273.393302 
L 78.941764 273.393302 
L 78.941764 272.738156 
L 79.938565 272.738156 
L 79.938565 266.841841 
L 81.992617 266.841841 
L 81.992617 266.186695 
L 82.626842 266.186695 
L 82.626842 262.910965 
L 83.037197 262.910965 
L 83.037197 262.255818 
L 83.23881 262.255818 
L 83.23881 260.945526 
L 83.438118 260.945526 
L 83.438118 260.29038 
L 83.635174 260.29038 
L 83.635174 259.635234 
L 84.213325 259.635234 
L 84.213325 256.359504 
L 84.588378 256.359504 
L 84.588378 255.704357 
L 84.955534 255.704357 
L 84.955534 255.049211 
L 85.66744 255.049211 
L 85.66744 254.394065 
L 87.009585 254.394065 
L 87.009585 250.463189 
L 87.643811 250.463189 
L 87.643811 249.808043 
L 87.798828 249.808043 
L 87.798828 247.187458 
L 88.104788 247.187458 
L 88.104788 244.566874 
L 88.255778 244.566874 
L 88.255778 243.911728 
L 89.697862 243.911728 
L 89.697862 240.635997 
L 91.782644 240.635997 
L 91.782644 239.325705 
L 94.187924 239.325705 
L 94.187924 238.015413 
L 97.134116 238.015413 
L 97.224242 234.084536 
L 99.41757 234.084536 
L 99.41757 232.774244 
L 99.886816 232.774244 
L 99.963811 230.15366 
L 100.567829 230.15366 
L 100.567829 228.188221 
L 100.86217 228.188221 
L 100.86217 227.533075 
L 101.506816 227.533075 
L 101.506816 226.877929 
L 101.646892 226.877929 
L 101.646892 226.222783 
L 101.992235 226.222783 
L 102.060491 223.602199 
L 102.12848 223.602199 
L 102.196206 218.36103 
L 103.053508 218.36103 
L 103.053508 217.050738 
L 103.309033 217.050738 
L 103.309033 213.119861 
L 103.747386 213.119861 
L 103.747386 211.154423 
L 104.114542 211.154423 
L 104.17499 201.982377 
L 104.826449 201.982377 
L 104.884483 199.361793 
L 105.057436 199.361793 
L 105.057436 197.396355 
L 105.566235 197.396355 
L 105.621863 194.120624 
L 106.382575 194.120624 
L 106.382575 193.465478 
L 106.854645 193.465478 
L 106.854645 190.844894 
L 107.614095 190.844894 
L 107.712901 188.879455 
L 107.811151 188.879455 
L 107.811151 188.224309 
L 108.671345 188.224309 
L 108.671345 184.948579 
L 109.843417 184.948579 
L 109.843417 183.638286 
L 110.859585 183.638286 
L 110.859585 181.672848 
L 111.819788 181.672848 
L 111.819788 181.017702 
L 112.803609 181.017702 
L 112.803609 180.362556 
L 113.022974 180.362556 
L 113.059268 177.086825 
L 113.73488 177.086825 
L 113.73488 174.466241 
L 114.0117 174.466241 
L 114.0117 173.811095 
L 116.202531 173.811095 
L 116.202531 172.500803 
L 117.087964 172.500803 
L 117.087964 170.535364 
L 118.337133 170.535364 
L 118.337133 169.880218 
L 121.489881 169.880218 
L 121.489881 169.225072 
L 121.931406 169.225072 
L 121.931406 166.604488 
L 122.340747 166.604488 
L 122.340747 165.949342 
L 122.468041 165.949342 
L 122.468041 165.294196 
L 124.650796 165.294196 
L 124.650796 164.63905 
L 126.822577 164.63905 
L 126.822577 162.673611 
L 127.245565 162.673611 
L 127.245565 160.053027 
L 129.002426 160.053027 
L 129.002426 158.087589 
L 129.546106 158.087589 
L 129.546106 157.432442 
L 130.127931 157.432442 
L 130.127931 156.12215 
L 134.019394 156.12215 
L 134.019394 154.156712 
L 136.005494 154.156712 
L 136.005494 151.536128 
L 136.20856 151.536128 
L 136.20856 150.225835 
L 137.629572 150.225835 
L 137.629572 149.570689 
L 139.253002 149.570689 
L 139.253002 147.605251 
L 140.134598 147.605251 
L 140.134598 146.950105 
L 140.973763 146.950105 
L 140.973763 146.294959 
L 141.435758 146.294959 
L 141.435758 145.639813 
L 142.344874 145.639813 
L 142.344874 144.984667 
L 142.646541 144.984667 
L 142.646541 143.019228 
L 142.857929 143.019228 
L 142.857929 142.364082 
L 143.170282 142.364082 
L 143.170282 141.708936 
L 144.269971 141.708936 
L 144.269971 140.398644 
L 144.865226 140.398644 
L 144.865226 137.778059 
L 145.604265 137.778059 
L 145.688202 136.467767 
L 146.654584 136.467767 
L 146.654584 135.157475 
L 146.869789 135.157475 
L 146.869789 131.881745 
L 147.02042 131.881745 
L 147.02042 129.916306 
L 148.267683 129.916306 
L 148.267683 129.26116 
L 148.723886 129.26116 
L 148.723886 128.606014 
L 150.749772 128.606014 
L 150.749772 127.950868 
L 152.161072 127.950868 
L 152.168773 125.98543 
L 152.28006 125.98543 
L 152.39064 124.019991 
L 153.351929 124.019991 
L 153.351929 122.709699 
L 153.984228 122.709699 
L 153.984228 121.399407 
L 154.239071 121.399407 
L 154.239071 118.123676 
L 154.57429 118.123676 
L 154.57429 116.813384 
L 155.61575 116.813384 
L 155.716556 108.296485 
L 156.126326 108.296485 
L 156.126326 106.986193 
L 156.583568 106.986193 
L 156.598505 104.365608 
L 156.835778 104.365608 
L 156.835778 98.469293 
L 156.976607 98.469293 
L 156.979529 97.159001 
L 157.669802 97.159001 
L 157.669802 96.503855 
L 159.418528 96.503855 
L 159.418528 95.193563 
L 160.259108 95.193563 
L 160.259108 92.572979 
L 160.91243 92.572979 
L 160.91243 91.262686 
L 161.187726 91.262686 
L 161.187726 88.642102 
L 161.411222 88.642102 
L 161.411222 87.33181 
L 161.981883 87.33181 
L 161.981883 86.676664 
L 163.885182 86.676664 
L 163.885182 84.056079 
L 165.533195 84.056079 
L 165.533195 83.400933 
L 165.978297 83.400933 
L 165.978297 81.435495 
L 166.632069 81.435495 
L 166.632069 78.81491 
L 166.78093 78.81491 
L 166.78093 76.194326 
L 166.974711 76.194326 
L 166.974711 75.53918 
L 167.615054 75.53918 
L 167.615054 73.573742 
L 167.954668 73.573742 
L 167.954668 72.263449 
L 168.09579 72.263449 
L 168.09579 70.298011 
L 168.640146 70.298011 
L 168.734207 65.711988 
L 169.041203 65.711988 
L 169.041203 62.436258 
L 170.466326 62.436258 
L 170.466326 61.781112 
L 170.874079 61.781112 
L 170.874079 60.47082 
L 171.084848 60.47082 
L 171.113451 59.160527 
L 172.239038 59.160527 
L 172.239038 57.195089 
L 172.399066 57.195089 
L 172.399066 56.539943 
L 172.568398 56.539943 
L 172.568398 55.884797 
L 172.984089 55.884797 
L 172.984089 55.229651 
L 173.343293 55.229651 
L 173.41175 53.264213 
L 173.895753 53.264213 
L 173.931158 51.298774 
L 174.147552 51.298774 
L 174.147552 50.643628 
L 174.276979 50.643628 
L 174.276979 48.67819 
L 174.547927 48.67819 
L 174.547927 48.023044 
L 174.724137 48.023044 
L 174.724137 46.057605 
L 175.127122 46.057605 
L 175.127122 45.402459 
L 175.338435 45.402459 
L 175.338435 44.747313 
L 175.468458 44.747313 
L 175.565343 42.126729 
L 175.720645 42.126729 
L 175.720645 41.471583 
L 175.939711 41.471583 
L 175.939711 40.816437 
L 176.659495 40.816437 
L 176.659495 38.195852 
L 177.002059 38.195852 
L 177.002059 35.575268 
L 177.514411 35.575268 
L 177.514411 34.264976 
L 179.854799 34.264976 
L 179.854799 33.60983 
L 180.027858 33.60983 
L 180.027858 32.299537 
L 180.214641 32.299537 
L 180.214641 31.644391 
L 180.439065 31.644391 
L 180.439065 30.989245 
L 181.050743 30.989245 
L 181.050743 30.334099 
L 338.688 30.334099 
L 338.688 30.334099 
" style="fill:none;stroke:#000080;stroke-linecap:square;stroke-width:1.5;"/>
   </g>
   <g id="line2d_31">
    <defs>
     <path d="M 0 6 
C 1.591219 6 3.117479 5.367802 4.242641 4.242641 
C 5.367802 3.117479 6 1.591219 6 0 
C 6 -1.591219 5.367802 -3.117479 4.242641 -4.242641 
C 3.117479 -5.367802 1.591219 -6 0 -6 
C -1.591219 -6 -3.117479 -5.367802 -4.242641 -4.242641 
C -5.367802 -3.117479 -6 -1.591219 -6 0 
C -6 1.591219 -5.367802 3.117479 -4.242641 4.242641 
C -3.117479 5.367802 -1.591219 6 0 6 
z
" id="m39a1196d0e" style="stroke:#000080;stroke-width:1.5;"/>
    </defs>
    <g>
     <use style="fill-opacity:0;stroke:#000080;stroke-width:1.5;" x="118.337133" xlink:href="#m39a1196d0e" y="170.535364"/>
     <use style="fill-opacity:0;stroke:#000080;stroke-width:1.5;" x="161.187726" xlink:href="#m39a1196d0e" y="91.262686"/>
     <use style="fill-opacity:0;stroke:#000080;stroke-width:1.5;" x="181.050743" xlink:href="#m39a1196d0e" y="30.989245"/>
     <use style="fill-opacity:0;stroke:#000080;stroke-width:1.5;" x="181.050743" xlink:href="#m39a1196d0e" y="30.334099"/>
     <use style="fill-opacity:0;stroke:#000080;stroke-width:1.5;" x="338.688" xlink:href="#m39a1196d0e" y="30.334099"/>
    </g>
   </g>
   <g id="line2d_32">
    <path style="fill:none;stroke:#000080;stroke-linecap:square;stroke-width:1.5;"/>
    <g/>
   </g>
   <g id="line2d_33">
    <defs>
     <path d="M 0 1.5 
C 0.397805 1.5 0.77937 1.341951 1.06066 1.06066 
C 1.341951 0.77937 1.5 0.397805 1.5 0 
C 1.5 -0.397805 1.341951 -0.77937 1.06066 -1.06066 
C 0.77937 -1.341951 0.397805 -1.5 0 -1.5 
C -0.397805 -1.5 -0.77937 -1.341951 -1.06066 -1.06066 
C -1.341951 -0.77937 -1.5 -0.397805 -1.5 0 
C -1.5 0.397805 -1.341951 0.77937 -1.06066 1.06066 
C -0.77937 1.341951 -0.397805 1.5 0 1.5 
z
" id="mdf7bfe22c9" style="stroke:#ff00ff;"/>
    </defs>
    <g>
     <use style="fill:#ff00ff;stroke:#ff00ff;" x="258.508103" xlink:href="#mdf7bfe22c9" y="30.334099"/>
     <use style="fill:#ff00ff;stroke:#ff00ff;" x="258.508103" xlink:href="#mdf7bfe22c9" y="30.334099"/>
    </g>
   </g>
   <g id="line2d_34">
    <path d="M -1 294.357977 
L 5.356583 294.357977 
L 5.356583 293.702831 
L 17.444571 293.702831 
L 17.444571 293.047685 
L 29.53256 293.047685 
L 29.53256 292.392539 
L 65.242851 292.392539 
L 65.242851 291.737393 
L 66.853775 291.737393 
L 66.853775 291.082247 
L 67.850577 291.082247 
L 67.850577 290.427101 
L 68.328395 290.427101 
L 68.328395 289.116809 
L 68.79347 289.116809 
L 68.79347 288.461662 
L 69.246464 288.461662 
L 69.246464 287.806516 
L 70.11861 287.806516 
L 70.11861 287.15137 
L 74.263433 287.15137 
L 74.263433 285.841078 
L 74.921597 285.841078 
L 74.921597 285.185932 
L 75.555822 285.185932 
L 75.555822 284.530786 
L 76.465904 284.530786 
L 76.465904 283.220494 
L 78.154896 283.220494 
L 78.154896 282.565348 
L 78.421149 282.565348 
L 78.421149 281.910201 
L 78.683399 281.910201 
L 78.683399 280.599909 
L 78.941764 280.599909 
L 78.941764 277.324179 
L 79.447285 277.324179 
L 79.447285 276.669033 
L 79.694655 276.669033 
L 79.694655 276.013887 
L 79.938565 276.013887 
L 79.938565 275.35874 
L 80.650472 275.35874 
L 80.650472 274.048448 
L 81.992617 274.048448 
L 81.992617 268.807279 
L 82.206598 268.807279 
L 82.206598 268.152133 
L 83.037197 268.152133 
L 83.037197 264.876403 
L 83.23881 264.876403 
L 83.23881 264.221257 
L 83.830028 264.221257 
L 83.830028 263.566111 
L 84.02273 263.566111 
L 84.02273 262.910965 
L 84.401859 262.910965 
L 84.401859 262.255818 
L 84.772922 262.255818 
L 84.772922 260.29038 
L 85.315119 260.29038 
L 85.315119 259.635234 
L 85.492169 259.635234 
L 85.492169 258.324942 
L 85.66744 258.324942 
L 85.66744 256.359504 
L 86.012784 256.359504 
L 86.012784 255.704357 
L 86.518305 255.704357 
L 86.518305 254.394065 
L 87.170317 254.394065 
L 87.170317 253.083773 
L 87.643811 253.083773 
L 87.643811 251.773481 
L 87.952479 251.773481 
L 87.952479 251.118335 
L 88.104788 251.118335 
L 88.104788 249.808043 
L 88.255778 249.808043 
L 88.255778 249.152896 
L 88.553893 249.152896 
L 88.553893 248.49775 
L 88.701061 248.49775 
L 88.701061 247.187458 
L 88.846997 247.187458 
L 88.846997 246.532312 
L 89.697862 246.532312 
L 89.697862 245.877166 
L 89.972502 245.877166 
L 89.972502 243.256582 
L 90.242884 243.256582 
L 90.242884 242.601435 
L 90.509138 242.601435 
L 90.509138 241.946289 
L 90.771388 241.946289 
L 90.771388 239.325705 
L 92.026554 239.325705 
L 92.026554 238.670559 
L 93.533875 238.670559 
L 93.533875 238.015413 
L 94.610715 238.015413 
L 94.610715 237.360267 
L 95.526106 237.360267 
L 95.526106 236.705121 
L 95.918017 236.705121 
L 95.918017 236.049974 
L 97.134116 236.049974 
L 97.134116 232.774244 
L 97.491858 232.774244 
L 97.491858 232.119098 
L 98.015075 232.119098 
L 98.015075 231.463952 
L 98.43941 231.463952 
L 98.523051 229.498513 
L 98.606294 229.498513 
L 98.606294 228.188221 
L 98.771596 228.188221 
L 98.771596 227.533075 
L 99.575392 227.533075 
L 99.575392 226.877929 
L 101.506816 226.877929 
L 101.506816 225.567637 
L 101.992235 225.567637 
L 101.992235 224.257345 
L 102.330873 224.257345 
L 102.330873 220.981614 
L 102.728744 220.981614 
L 102.728744 220.326468 
L 103.685435 220.326468 
L 103.685435 219.671322 
L 103.870632 219.671322 
L 103.870632 219.016176 
L 104.053884 219.016176 
L 104.053884 218.36103 
L 105.057436 218.36103 
L 105.114708 217.050738 
L 105.566235 217.050738 
L 105.621863 213.775007 
L 105.951954 213.775007 
L 106.06061 210.499277 
L 106.329326 210.499277 
L 106.329326 209.188984 
L 106.750839 209.188984 
L 106.750839 208.533838 
L 106.957836 208.533838 
L 107.06042 207.223546 
L 107.111487 207.223546 
L 107.111487 206.5684 
L 107.263796 206.5684 
L 107.314272 204.602962 
L 107.663568 204.602962 
L 107.663568 203.292669 
L 107.90885 203.292669 
L 108.006005 201.982377 
L 108.246551 201.982377 
L 108.246551 201.327231 
L 108.389302 201.327231 
L 108.389302 200.672085 
L 108.810674 200.672085 
L 108.856871 198.051501 
L 108.994731 198.051501 
L 109.040444 196.741208 
L 109.131511 196.741208 
L 109.131511 196.086062 
L 109.668146 196.086062 
L 109.668146 195.430916 
L 109.843417 195.430916 
L 109.886961 192.155186 
L 110.735755 192.155186 
L 110.735755 191.50004 
L 111.185562 191.50004 
L 111.185562 188.879455 
L 111.819788 188.879455 
L 111.819788 186.258871 
L 113.873839 186.258871 
L 113.873839 185.603725 
L 114.0117 185.603725 
L 114.0117 184.293433 
L 114.452366 184.293433 
L 114.452366 183.638286 
L 114.882171 183.638286 
L 114.882171 182.98314 
L 116.202531 182.98314 
L 116.202531 181.672848 
L 116.680349 181.672848 
L 116.709783 180.362556 
L 117.145424 180.362556 
L 117.145424 179.70741 
L 117.316679 179.70741 
L 117.316679 179.052264 
L 117.598418 179.052264 
L 117.598418 178.397118 
L 118.039942 178.397118 
L 118.06717 177.086825 
L 119.097192 177.086825 
L 119.097192 176.431679 
L 120.093994 176.431679 
L 120.093994 175.121387 
L 120.358413 175.121387 
L 120.358413 174.466241 
L 124.004823 174.466241 
L 124.004823 173.155949 
L 124.463275 173.155949 
L 124.463275 172.500803 
L 125.399222 172.500803 
L 125.506102 169.880218 
L 125.961828 169.880218 
L 125.961828 167.91478 
L 126.422805 167.91478 
L 126.50685 165.294196 
L 127.54831 165.294196 
L 127.54831 164.63905 
L 128.061954 164.63905 
L 128.061954 163.983903 
L 128.694536 163.983903 
L 128.694536 163.328757 
L 129.908566 163.328757 
L 129.908566 161.363319 
L 130.344571 161.363319 
L 130.344571 160.708173 
L 131.146669 160.708173 
L 131.146669 160.053027 
L 133.124876 160.053027 
L 133.147807 156.777296 
L 134.828688 156.777296 
L 134.828688 156.12215 
L 135.035562 156.12215 
L 135.035562 155.467004 
L 135.168726 155.467004 
L 135.168726 154.811858 
L 136.607732 154.811858 
L 136.607732 154.156712 
L 136.905847 154.156712 
L 136.905847 152.84642 
L 137.144368 152.84642 
L 137.144368 151.536128 
L 137.910857 151.536128 
L 137.910857 150.880981 
L 138.187677 150.880981 
L 138.187677 148.260397 
L 138.728473 148.260397 
L 138.728473 146.950105 
L 140.15761 146.950105 
L 140.256979 144.984667 
L 140.922482 144.984667 
L 140.922482 142.364082 
L 142.031013 142.364082 
L 142.031013 141.708936 
L 142.752555 141.708936 
L 142.752555 141.05379 
L 143.273169 141.05379 
L 143.273169 140.398644 
L 143.571936 140.398644 
L 143.578237 139.088352 
L 143.728793 139.088352 
L 143.728793 135.157475 
L 144.172816 135.157475 
L 144.172816 134.502329 
L 145.068856 134.502329 
L 145.068856 133.847183 
L 145.587429 133.847183 
L 145.587429 133.192037 
L 145.843812 133.192037 
L 145.843812 132.536891 
L 146.791364 132.536891 
L 146.791364 131.881745 
L 146.98418 131.881745 
L 146.98418 131.226598 
L 147.848613 131.226598 
L 147.848613 129.916306 
L 148.478259 129.916306 
L 148.563676 128.606014 
L 148.845415 128.606014 
L 148.845415 127.950868 
L 149.035352 127.950868 
L 149.035352 127.295722 
L 149.972667 127.295722 
L 149.972667 126.640576 
L 150.314243 126.640576 
L 150.314243 125.98543 
L 152.09934 125.98543 
L 152.09934 125.330284 
L 152.409635 125.330284 
L 152.409635 124.675137 
L 152.707042 124.675137 
L 152.707042 124.019991 
L 152.8372 124.019991 
L 152.8372 123.364845 
L 153.178403 123.364845 
L 153.178403 122.709699 
L 153.548662 122.709699 
L 153.548662 120.744261 
L 154.361716 120.744261 
L 154.361716 119.433969 
L 154.787617 119.433969 
L 154.787617 118.778823 
L 154.985269 118.778823 
L 155.09303 116.813384 
L 155.55562 116.813384 
L 155.55562 115.503092 
L 155.935057 115.503092 
L 155.966049 112.882508 
L 156.114049 112.882508 
L 156.114049 112.227362 
L 156.36704 112.227362 
L 156.36704 110.917069 
L 156.973685 110.917069 
L 156.973685 109.606777 
L 159.334496 109.606777 
L 159.334496 108.951631 
L 159.484452 108.951631 
L 159.537516 105.675901 
L 159.608019 105.675901 
L 159.608019 105.020754 
L 159.743188 105.020754 
L 159.743188 104.365608 
L 160.748438 104.365608 
L 160.748438 103.710462 
L 161.555647 103.710462 
L 161.555647 103.055316 
L 162.644595 103.055316 
L 162.644595 102.40017 
L 162.970886 102.40017 
L 162.970886 101.745024 
L 164.051523 101.745024 
L 164.051523 101.089878 
L 164.980675 101.089878 
L 164.980675 100.434732 
L 165.439918 100.434732 
L 165.439918 99.12444 
L 166.117256 99.12444 
L 166.117256 98.469293 
L 166.557159 98.469293 
L 166.569807 96.503855 
L 166.85157 96.503855 
L 166.958233 93.228125 
L 168.78179 93.228125 
L 168.78179 92.572979 
L 168.923766 92.572979 
L 168.923766 91.917832 
L 169.937989 91.917832 
L 169.97755 88.642102 
L 170.154817 88.642102 
L 170.154817 87.33181 
L 170.352028 87.33181 
L 170.456886 84.711225 
L 170.60063 84.711225 
L 170.60063 84.056079 
L 170.96996 84.056079 
L 170.96996 83.400933 
L 171.52429 83.400933 
L 171.52429 82.745787 
L 171.736167 82.745787 
L 171.736167 81.435495 
L 172.064001 81.435495 
L 172.16214 80.125203 
L 172.414747 80.125203 
L 172.428005 78.81491 
L 172.984089 78.81491 
L 172.991089 77.504618 
L 174.856707 77.504618 
L 174.856707 76.849472 
L 175.129186 76.849472 
L 175.129186 76.194326 
L 176.660441 76.194326 
L 176.660441 75.53918 
L 177.8681 75.53918 
L 177.8681 74.228888 
L 178.536844 74.228888 
L 178.536844 73.573742 
L 178.790465 73.573742 
L 178.790465 72.918596 
L 179.232345 72.918596 
L 179.232345 72.263449 
L 179.593944 72.263449 
L 179.593944 70.953157 
L 179.793702 70.953157 
L 179.793702 70.298011 
L 180.470619 70.298011 
L 180.470619 68.987719 
L 180.88388 68.987719 
L 180.88388 67.677427 
L 183.662959 67.677427 
L 183.662959 67.022281 
L 184.165824 67.022281 
L 184.165824 66.367135 
L 186.002559 66.367135 
L 186.002559 65.056842 
L 187.01974 65.056842 
L 187.01974 64.401696 
L 188.128375 64.401696 
L 188.128375 63.74655 
L 191.239814 63.74655 
L 191.239814 63.091404 
L 193.626199 63.091404 
L 193.626199 61.125966 
L 198.025845 61.125966 
L 198.025845 59.815674 
L 205.322716 59.815674 
L 205.326735 57.850235 
L 206.267754 57.850235 
L 206.267754 57.195089 
L 207.667614 57.195089 
L 207.667614 56.539943 
L 210.518038 56.539943 
L 210.518038 55.884797 
L 210.685141 55.884797 
L 210.685141 55.229651 
L 211.951662 55.229651 
L 211.951662 54.574505 
L 215.55925 54.574505 
L 215.55925 53.919359 
L 220.770657 53.919359 
L 220.770657 53.264213 
L 221.23917 53.264213 
L 221.23917 51.95392 
L 221.385823 51.95392 
L 221.385823 51.298774 
L 223.177845 51.298774 
L 223.177845 50.643628 
L 226.791584 50.643628 
L 226.791584 49.988482 
L 227.259448 49.988482 
L 227.259448 49.333336 
L 228.684577 49.333336 
L 228.684577 48.67819 
L 231.223133 48.67819 
L 231.223133 48.023044 
L 233.450177 48.023044 
L 233.450177 45.402459 
L 234.486463 45.402459 
L 234.526956 44.092167 
L 234.674644 44.092167 
L 234.783097 42.781875 
L 238.928287 42.781875 
L 239.027823 41.471583 
L 240.878424 41.471583 
L 240.878424 40.816437 
L 241.489618 40.816437 
L 241.489618 40.161291 
L 241.663552 40.161291 
L 241.689475 38.195852 
L 242.658584 38.195852 
L 242.658584 37.540706 
L 242.773186 37.540706 
L 242.773186 36.88556 
L 243.656539 36.88556 
L 243.76647 35.575268 
L 244.952425 35.575268 
L 244.952425 34.920122 
L 245.572706 34.920122 
L 245.572706 34.264976 
L 246.81696 34.264976 
L 246.81696 33.60983 
L 248.594695 33.60983 
L 248.594695 32.954683 
L 251.47549 32.954683 
L 251.47549 32.299537 
L 254.910462 32.299537 
L 254.910462 31.644391 
L 256.67399 31.644391 
L 256.67399 30.989245 
L 258.508103 30.989245 
L 258.508103 30.334099 
L 338.688 30.334099 
L 338.688 30.334099 
" style="fill:none;stroke:#ff00ff;stroke-linecap:square;stroke-width:1.5;"/>
   </g>
   <g id="line2d_35">
    <defs>
     <path d="M -0 8.485281 
L 5.091169 0 
L 0 -8.485281 
L -5.091169 -0 
z
" id="m14f523c086" style="stroke:#ff00ff;stroke-linejoin:miter;stroke-width:1.5;"/>
    </defs>
    <g>
     <use style="fill-opacity:0;stroke:#ff00ff;stroke-linejoin:miter;stroke-width:1.5;" x="74.263433" xlink:href="#m14f523c086" y="287.15137"/>
     <use style="fill-opacity:0;stroke:#ff00ff;stroke-linejoin:miter;stroke-width:1.5;" x="124.004823" xlink:href="#m14f523c086" y="174.466241"/>
     <use style="fill-opacity:0;stroke:#ff00ff;stroke-linejoin:miter;stroke-width:1.5;" x="166.117256" xlink:href="#m14f523c086" y="99.12444"/>
     <use style="fill-opacity:0;stroke:#ff00ff;stroke-linejoin:miter;stroke-width:1.5;" x="258.508103" xlink:href="#m14f523c086" y="30.989245"/>
     <use style="fill-opacity:0;stroke:#ff00ff;stroke-linejoin:miter;stroke-width:1.5;" x="258.508103" xlink:href="#m14f523c086" y="30.334099"/>
     <use style="fill-opacity:0;stroke:#ff00ff;stroke-linejoin:miter;stroke-width:1.5;" x="338.688" xlink:href="#m14f523c086" y="30.334099"/>
    </g>
   </g>
   <g id="line2d_36">
    <path style="fill:none;stroke:#ff00ff;stroke-linecap:square;stroke-width:1.5;"/>
    <g/>
   </g>
   <g id="line2d_37">
    <path clip-path="url(#p199b8ab2d0)" d="M 234.265155 45.402459 
" style="fill:none;stroke:#ff00ff;stroke-linecap:square;stroke-width:1.5;"/>
    <defs>
     <path d="M -12 12 
L 12 -12 
M -12 -12 
L 12 12 
" id="m1ab75fcd5c" style="stroke:#ff00ff;"/>
    </defs>
    <g clip-path="url(#p199b8ab2d0)">
     <use style="fill:#ff00ff;stroke:#ff00ff;" x="234.265155" xlink:href="#m1ab75fcd5c" y="45.402459"/>
    </g>
   </g>
   <g id="line2d_38">
    <path d="M 338.688 30.334099 
L 369.60768 293.571802 
" style="fill:none;stroke:#ff00ff;stroke-linecap:square;stroke-width:1.5;"/>
    <g>
     <use style="fill-opacity:0;stroke:#ff00ff;stroke-linejoin:miter;stroke-width:1.5;" x="338.688" xlink:href="#m14f523c086" y="30.334099"/>
     <use style="fill-opacity:0;stroke:#ff00ff;stroke-linejoin:miter;stroke-width:1.5;" x="369.60768" xlink:href="#m14f523c086" y="293.571802"/>
    </g>
   </g>
   <g id="line2d_39">
    <path d="M 338.688 30.334099 
L 369.60768 35.706297 
" style="fill:none;stroke:#000080;stroke-linecap:square;stroke-width:1.5;"/>
    <g>
     <use style="fill-opacity:0;stroke:#000080;stroke-width:1.5;" x="338.688" xlink:href="#m39a1196d0e" y="30.334099"/>
     <use style="fill-opacity:0;stroke:#000080;stroke-width:1.5;" x="369.60768" xlink:href="#m39a1196d0e" y="35.706297"/>
    </g>
   </g>
   <g id="line2d_40">
    <path d="M 338.688 298.944 
L 338.688 30.334099 
" style="fill:none;stroke:#000000;stroke-linecap:square;stroke-width:1.5;"/>
   </g>
   <g id="patch_3">
    <path d="M 57.6 298.944 
L 57.6 27.648 
" style="fill:none;stroke:#000000;stroke-linecap:square;stroke-linejoin:miter;stroke-width:0.8;"/>
   </g>
   <g id="patch_4">
    <path d="M 338.688 298.944 
L 338.688 27.648 
" style="fill:none;stroke:#000000;stroke-linecap:square;stroke-linejoin:miter;stroke-width:0.8;"/>
   </g>
   <g id="patch_5">
    <path d="M 57.6 298.944 
L 338.688 298.944 
" style="fill:none;stroke:#000000;stroke-linecap:square;stroke-linejoin:miter;stroke-width:0.8;"/>
   </g>
   <g id="patch_6">
    <path d="M 57.6 27.648 
L 338.688 27.648 
" style="fill:none;stroke:#000000;stroke-linecap:square;stroke-linejoin:miter;stroke-width:0.8;"/>
   </g>
   <g id="text_13">
    <!-- OLD+NODGA -->
    <g transform="translate(375.22944 298.262739)scale(0.17 -0.17)">
     <defs>
      <path d="M 39.40625 66.21875 
Q 28.65625 66.21875 22.328125 58.203125 
Q 16.015625 50.203125 16.015625 36.375 
Q 16.015625 22.609375 22.328125 14.59375 
Q 28.65625 6.59375 39.40625 6.59375 
Q 50.140625 6.59375 56.421875 14.59375 
Q 62.703125 22.609375 62.703125 36.375 
Q 62.703125 50.203125 56.421875 58.203125 
Q 50.140625 66.21875 39.40625 66.21875 
z
M 39.40625 74.21875 
Q 54.734375 74.21875 63.90625 63.9375 
Q 73.09375 53.65625 73.09375 36.375 
Q 73.09375 19.140625 63.90625 8.859375 
Q 54.734375 -1.421875 39.40625 -1.421875 
Q 24.03125 -1.421875 14.8125 8.828125 
Q 5.609375 19.09375 5.609375 36.375 
Q 5.609375 53.65625 14.8125 63.9375 
Q 24.03125 74.21875 39.40625 74.21875 
z
" id="DejaVuSans-79"/>
      <path d="M 9.8125 72.90625 
L 19.671875 72.90625 
L 19.671875 8.296875 
L 55.171875 8.296875 
L 55.171875 0 
L 9.8125 0 
z
" id="DejaVuSans-76"/>
      <path d="M 19.671875 64.796875 
L 19.671875 8.109375 
L 31.59375 8.109375 
Q 46.6875 8.109375 53.6875 14.9375 
Q 60.6875 21.78125 60.6875 36.53125 
Q 60.6875 51.171875 53.6875 57.984375 
Q 46.6875 64.796875 31.59375 64.796875 
z
M 9.8125 72.90625 
L 30.078125 72.90625 
Q 51.265625 72.90625 61.171875 64.09375 
Q 71.09375 55.28125 71.09375 36.53125 
Q 71.09375 17.671875 61.125 8.828125 
Q 51.171875 0 30.078125 0 
L 9.8125 0 
z
" id="DejaVuSans-68"/>
      <path d="M 9.8125 72.90625 
L 23.09375 72.90625 
L 55.421875 11.921875 
L 55.421875 72.90625 
L 64.984375 72.90625 
L 64.984375 0 
L 51.703125 0 
L 19.390625 60.984375 
L 19.390625 0 
L 9.8125 0 
z
" id="DejaVuSans-78"/>
      <path d="M 59.515625 10.40625 
L 59.515625 29.984375 
L 43.40625 29.984375 
L 43.40625 38.09375 
L 69.28125 38.09375 
L 69.28125 6.78125 
Q 63.578125 2.734375 56.6875 0.65625 
Q 49.8125 -1.421875 42 -1.421875 
Q 24.90625 -1.421875 15.25 8.5625 
Q 5.609375 18.5625 5.609375 36.375 
Q 5.609375 54.25 15.25 64.234375 
Q 24.90625 74.21875 42 74.21875 
Q 49.125 74.21875 55.546875 72.453125 
Q 61.96875 70.703125 67.390625 67.28125 
L 67.390625 56.78125 
Q 61.921875 61.421875 55.765625 63.765625 
Q 49.609375 66.109375 42.828125 66.109375 
Q 29.4375 66.109375 22.71875 58.640625 
Q 16.015625 51.171875 16.015625 36.375 
Q 16.015625 21.625 22.71875 14.15625 
Q 29.4375 6.6875 42.828125 6.6875 
Q 48.046875 6.6875 52.140625 7.59375 
Q 56.25 8.5 59.515625 10.40625 
z
" id="DejaVuSans-71"/>
      <path d="M 34.1875 63.1875 
L 20.796875 26.90625 
L 47.609375 26.90625 
z
M 28.609375 72.90625 
L 39.796875 72.90625 
L 67.578125 0 
L 57.328125 0 
L 50.6875 18.703125 
L 17.828125 18.703125 
L 11.1875 0 
L 0.78125 0 
z
" id="DejaVuSans-65"/>
     </defs>
     <use xlink:href="#DejaVuSans-79"/>
     <use x="78.710938" xlink:href="#DejaVuSans-76"/>
     <use x="134.423828" xlink:href="#DejaVuSans-68"/>
     <use x="211.425781" xlink:href="#DejaVuSans-43"/>
     <use x="295.214844" xlink:href="#DejaVuSans-78"/>
     <use x="370.019531" xlink:href="#DejaVuSans-79"/>
     <use x="448.730469" xlink:href="#DejaVuSans-68"/>
     <use x="525.732422" xlink:href="#DejaVuSans-71"/>
     <use x="603.222656" xlink:href="#DejaVuSans-65"/>
    </g>
   </g>
   <g id="text_14">
    <!-- OLD+DGAM -->
    <g transform="translate(375.22944 40.397235)scale(0.17 -0.17)">
     <defs>
      <path d="M 9.8125 72.90625 
L 24.515625 72.90625 
L 43.109375 23.296875 
L 61.8125 72.90625 
L 76.515625 72.90625 
L 76.515625 0 
L 66.890625 0 
L 66.890625 64.015625 
L 48.09375 14.015625 
L 38.1875 14.015625 
L 19.390625 64.015625 
L 19.390625 0 
L 9.8125 0 
z
" id="DejaVuSans-77"/>
     </defs>
     <use xlink:href="#DejaVuSans-79"/>
     <use x="78.710938" xlink:href="#DejaVuSans-76"/>
     <use x="134.423828" xlink:href="#DejaVuSans-68"/>
     <use x="211.425781" xlink:href="#DejaVuSans-43"/>
     <use x="295.214844" xlink:href="#DejaVuSans-68"/>
     <use x="372.216797" xlink:href="#DejaVuSans-71"/>
     <use x="449.707031" xlink:href="#DejaVuSans-65"/>
     <use x="518.115234" xlink:href="#DejaVuSans-77"/>
    </g>
   </g>
   <g id="text_15">
    <!-- bbob-constrained f14, 40-D -->
    <g transform="translate(60.41088 38.111366)scale(0.102 -0.102)">
     <defs>
      <path d="M 48.6875 27.296875 
Q 48.6875 37.203125 44.609375 42.84375 
Q 40.53125 48.484375 33.40625 48.484375 
Q 26.265625 48.484375 22.1875 42.84375 
Q 18.109375 37.203125 18.109375 27.296875 
Q 18.109375 17.390625 22.1875 11.75 
Q 26.265625 6.109375 33.40625 6.109375 
Q 40.53125 6.109375 44.609375 11.75 
Q 48.6875 17.390625 48.6875 27.296875 
z
M 18.109375 46.390625 
Q 20.953125 51.265625 25.265625 53.625 
Q 29.59375 56 35.59375 56 
Q 45.5625 56 51.78125 48.09375 
Q 58.015625 40.1875 58.015625 27.296875 
Q 58.015625 14.40625 51.78125 6.484375 
Q 45.5625 -1.421875 35.59375 -1.421875 
Q 29.59375 -1.421875 25.265625 0.953125 
Q 20.953125 3.328125 18.109375 8.203125 
L 18.109375 0 
L 9.078125 0 
L 9.078125 75.984375 
L 18.109375 75.984375 
z
" id="DejaVuSans-98"/>
     </defs>
     <use xlink:href="#DejaVuSans-98"/>
     <use x="63.476562" xlink:href="#DejaVuSans-98"/>
     <use x="126.953125" xlink:href="#DejaVuSans-111"/>
     <use x="188.134766" xlink:href="#DejaVuSans-98"/>
     <use x="251.611328" xlink:href="#DejaVuSans-45"/>
     <use x="287.695312" xlink:href="#DejaVuSans-99"/>
     <use x="342.675781" xlink:href="#DejaVuSans-111"/>
     <use x="403.857422" xlink:href="#DejaVuSans-110"/>
     <use x="467.236328" xlink:href="#DejaVuSans-115"/>
     <use x="519.335938" xlink:href="#DejaVuSans-116"/>
     <use x="558.544922" xlink:href="#DejaVuSans-114"/>
     <use x="599.658203" xlink:href="#DejaVuSans-97"/>
     <use x="660.9375" xlink:href="#DejaVuSans-105"/>
     <use x="688.720703" xlink:href="#DejaVuSans-110"/>
     <use x="752.099609" xlink:href="#DejaVuSans-101"/>
     <use x="813.623047" xlink:href="#DejaVuSans-100"/>
     <use x="877.099609" xlink:href="#DejaVuSans-32"/>
     <use x="908.886719" xlink:href="#DejaVuSans-102"/>
     <use x="944.091797" xlink:href="#DejaVuSans-49"/>
     <use x="1007.714844" xlink:href="#DejaVuSans-52"/>
     <use x="1071.337891" xlink:href="#DejaVuSans-44"/>
     <use x="1103.125" xlink:href="#DejaVuSans-32"/>
     <use x="1134.912109" xlink:href="#DejaVuSans-52"/>
     <use x="1198.535156" xlink:href="#DejaVuSans-48"/>
     <use x="1262.158203" xlink:href="#DejaVuSans-45"/>
     <use x="1298.242188" xlink:href="#DejaVuSans-68"/>
    </g>
    <!-- 41 targets: 100..1e-06 -->
    <g transform="translate(60.41088 49.533135)scale(0.102 -0.102)">
     <defs>
      <path d="M 11.71875 12.40625 
L 22.015625 12.40625 
L 22.015625 0 
L 11.71875 0 
z
M 11.71875 51.703125 
L 22.015625 51.703125 
L 22.015625 39.3125 
L 11.71875 39.3125 
z
" id="DejaVuSans-58"/>
     </defs>
     <use xlink:href="#DejaVuSans-52"/>
     <use x="63.623047" xlink:href="#DejaVuSans-49"/>
     <use x="127.246094" xlink:href="#DejaVuSans-32"/>
     <use x="159.033203" xlink:href="#DejaVuSans-116"/>
     <use x="198.242188" xlink:href="#DejaVuSans-97"/>
     <use x="259.521484" xlink:href="#DejaVuSans-114"/>
     <use x="298.884766" xlink:href="#DejaVuSans-103"/>
     <use x="362.361328" xlink:href="#DejaVuSans-101"/>
     <use x="423.884766" xlink:href="#DejaVuSans-116"/>
     <use x="463.09375" xlink:href="#DejaVuSans-115"/>
     <use x="515.193359" xlink:href="#DejaVuSans-58"/>
     <use x="548.884766" xlink:href="#DejaVuSans-32"/>
     <use x="580.671875" xlink:href="#DejaVuSans-49"/>
     <use x="644.294922" xlink:href="#DejaVuSans-48"/>
     <use x="707.917969" xlink:href="#DejaVuSans-48"/>
     <use x="771.541016" xlink:href="#DejaVuSans-46"/>
     <use x="803.328125" xlink:href="#DejaVuSans-46"/>
     <use x="835.115234" xlink:href="#DejaVuSans-49"/>
     <use x="898.738281" xlink:href="#DejaVuSans-101"/>
     <use x="960.261719" xlink:href="#DejaVuSans-45"/>
     <use x="996.345703" xlink:href="#DejaVuSans-48"/>
     <use x="1059.96875" xlink:href="#DejaVuSans-54"/>
    </g>
    <!-- 45, 15 instances -->
    <g transform="translate(60.41088 60.954904)scale(0.102 -0.102)">
     <defs>
      <path d="M 10.796875 72.90625 
L 49.515625 72.90625 
L 49.515625 64.59375 
L 19.828125 64.59375 
L 19.828125 46.734375 
Q 21.96875 47.46875 24.109375 47.828125 
Q 26.265625 48.1875 28.421875 48.1875 
Q 40.625 48.1875 47.75 41.5 
Q 54.890625 34.8125 54.890625 23.390625 
Q 54.890625 11.625 47.5625 5.09375 
Q 40.234375 -1.421875 26.90625 -1.421875 
Q 22.3125 -1.421875 17.546875 -0.640625 
Q 12.796875 0.140625 7.71875 1.703125 
L 7.71875 11.625 
Q 12.109375 9.234375 16.796875 8.0625 
Q 21.484375 6.890625 26.703125 6.890625 
Q 35.15625 6.890625 40.078125 11.328125 
Q 45.015625 15.765625 45.015625 23.390625 
Q 45.015625 31 40.078125 35.4375 
Q 35.15625 39.890625 26.703125 39.890625 
Q 22.75 39.890625 18.8125 39.015625 
Q 14.890625 38.140625 10.796875 36.28125 
z
" id="DejaVuSans-53"/>
     </defs>
     <use xlink:href="#DejaVuSans-52"/>
     <use x="63.623047" xlink:href="#DejaVuSans-53"/>
     <use x="127.246094" xlink:href="#DejaVuSans-44"/>
     <use x="159.033203" xlink:href="#DejaVuSans-32"/>
     <use x="190.820312" xlink:href="#DejaVuSans-49"/>
     <use x="254.443359" xlink:href="#DejaVuSans-53"/>
     <use x="318.066406" xlink:href="#DejaVuSans-32"/>
     <use x="349.853516" xlink:href="#DejaVuSans-105"/>
     <use x="377.636719" xlink:href="#DejaVuSans-110"/>
     <use x="441.015625" xlink:href="#DejaVuSans-115"/>
     <use x="493.115234" xlink:href="#DejaVuSans-116"/>
     <use x="532.324219" xlink:href="#DejaVuSans-97"/>
     <use x="593.603516" xlink:href="#DejaVuSans-110"/>
     <use x="656.982422" xlink:href="#DejaVuSans-99"/>
     <use x="711.962891" xlink:href="#DejaVuSans-101"/>
     <use x="773.486328" xlink:href="#DejaVuSans-115"/>
    </g>
   </g>
   <g id="text_16">
    <!-- v5z33 -->
    <g style="fill:#808080;" transform="translate(183.016656 294.151352)scale(0.1 -0.1)">
     <defs>
      <path d="M 5.515625 54.6875 
L 48.1875 54.6875 
L 48.1875 46.484375 
L 14.40625 7.171875 
L 48.1875 7.171875 
L 48.1875 0 
L 4.296875 0 
L 4.296875 8.203125 
L 38.09375 47.515625 
L 5.515625 47.515625 
z
" id="DejaVuSans-122"/>
      <path d="M 40.578125 39.3125 
Q 47.65625 37.796875 51.625 33 
Q 55.609375 28.21875 55.609375 21.1875 
Q 55.609375 10.40625 48.1875 4.484375 
Q 40.765625 -1.421875 27.09375 -1.421875 
Q 22.515625 -1.421875 17.65625 -0.515625 
Q 12.796875 0.390625 7.625 2.203125 
L 7.625 11.71875 
Q 11.71875 9.328125 16.59375 8.109375 
Q 21.484375 6.890625 26.8125 6.890625 
Q 36.078125 6.890625 40.9375 10.546875 
Q 45.796875 14.203125 45.796875 21.1875 
Q 45.796875 27.640625 41.28125 31.265625 
Q 36.765625 34.90625 28.71875 34.90625 
L 20.21875 34.90625 
L 20.21875 43.015625 
L 29.109375 43.015625 
Q 36.375 43.015625 40.234375 45.921875 
Q 44.09375 48.828125 44.09375 54.296875 
Q 44.09375 59.90625 40.109375 62.90625 
Q 36.140625 65.921875 28.71875 65.921875 
Q 24.65625 65.921875 20.015625 65.03125 
Q 15.375 64.15625 9.8125 62.3125 
L 9.8125 71.09375 
Q 15.4375 72.65625 20.34375 73.4375 
Q 25.25 74.21875 29.59375 74.21875 
Q 40.828125 74.21875 47.359375 69.109375 
Q 53.90625 64.015625 53.90625 55.328125 
Q 53.90625 49.265625 50.4375 45.09375 
Q 46.96875 40.921875 40.578125 39.3125 
z
" id="DejaVuSans-51"/>
     </defs>
     <use xlink:href="#DejaVuSans-118"/>
     <use x="59.179688" xlink:href="#DejaVuSans-53"/>
     <use x="122.802734" xlink:href="#DejaVuSans-122"/>
     <use x="175.292969" xlink:href="#DejaVuSans-51"/>
     <use x="238.916016" xlink:href="#DejaVuSans-51"/>
    </g>
   </g>
   <g id="text_17">
    <!-- 14 Linear Slope, 2 constraints -->
    <g transform="translate(48.770562 21.648)scale(0.2 -0.2)">
     <defs>
      <path d="M 53.515625 70.515625 
L 53.515625 60.890625 
Q 47.90625 63.578125 42.921875 64.890625 
Q 37.9375 66.21875 33.296875 66.21875 
Q 25.25 66.21875 20.875 63.09375 
Q 16.5 59.96875 16.5 54.203125 
Q 16.5 49.359375 19.40625 46.890625 
Q 22.3125 44.4375 30.421875 42.921875 
L 36.375 41.703125 
Q 47.40625 39.59375 52.65625 34.296875 
Q 57.90625 29 57.90625 20.125 
Q 57.90625 9.515625 50.796875 4.046875 
Q 43.703125 -1.421875 29.984375 -1.421875 
Q 24.8125 -1.421875 18.96875 -0.25 
Q 13.140625 0.921875 6.890625 3.21875 
L 6.890625 13.375 
Q 12.890625 10.015625 18.65625 8.296875 
Q 24.421875 6.59375 29.984375 6.59375 
Q 38.421875 6.59375 43.015625 9.90625 
Q 47.609375 13.234375 47.609375 19.390625 
Q 47.609375 24.75 44.3125 27.78125 
Q 41.015625 30.8125 33.5 32.328125 
L 27.484375 33.5 
Q 16.453125 35.6875 11.515625 40.375 
Q 6.59375 45.0625 6.59375 53.421875 
Q 6.59375 63.09375 13.40625 68.65625 
Q 20.21875 74.21875 32.171875 74.21875 
Q 37.3125 74.21875 42.625 73.28125 
Q 47.953125 72.359375 53.515625 70.515625 
z
" id="DejaVuSans-83"/>
     </defs>
     <use xlink:href="#DejaVuSans-49"/>
     <use x="63.623047" xlink:href="#DejaVuSans-52"/>
     <use x="127.246094" xlink:href="#DejaVuSans-32"/>
     <use x="159.033203" xlink:href="#DejaVuSans-76"/>
     <use x="214.746094" xlink:href="#DejaVuSans-105"/>
     <use x="242.529297" xlink:href="#DejaVuSans-110"/>
     <use x="305.908203" xlink:href="#DejaVuSans-101"/>
     <use x="367.431641" xlink:href="#DejaVuSans-97"/>
     <use x="428.710938" xlink:href="#DejaVuSans-114"/>
     <use x="469.824219" xlink:href="#DejaVuSans-32"/>
     <use x="501.611328" xlink:href="#DejaVuSans-83"/>
     <use x="565.087891" xlink:href="#DejaVuSans-108"/>
     <use x="592.871094" xlink:href="#DejaVuSans-111"/>
     <use x="654.052734" xlink:href="#DejaVuSans-112"/>
     <use x="717.529297" xlink:href="#DejaVuSans-101"/>
     <use x="779.052734" xlink:href="#DejaVuSans-44"/>
     <use x="810.839844" xlink:href="#DejaVuSans-32"/>
     <use x="842.626953" xlink:href="#DejaVuSans-50"/>
     <use x="906.25" xlink:href="#DejaVuSans-32"/>
     <use x="938.037109" xlink:href="#DejaVuSans-99"/>
     <use x="993.017578" xlink:href="#DejaVuSans-111"/>
     <use x="1054.199219" xlink:href="#DejaVuSans-110"/>
     <use x="1117.578125" xlink:href="#DejaVuSans-115"/>
     <use x="1169.677734" xlink:href="#DejaVuSans-116"/>
     <use x="1208.886719" xlink:href="#DejaVuSans-114"/>
     <use x="1250" xlink:href="#DejaVuSans-97"/>
     <use x="1311.279297" xlink:href="#DejaVuSans-105"/>
     <use x="1339.0625" xlink:href="#DejaVuSans-110"/>
     <use x="1402.441406" xlink:href="#DejaVuSans-116"/>
     <use x="1441.650391" xlink:href="#DejaVuSans-115"/>
    </g>
   </g>
  </g>
 </g>
 <defs>
  <clipPath id="p199b8ab2d0">
   <rect height="271.296" width="281.088" x="57.6" y="27.648"/>
  </clipPath>
 </defs>
</svg>
