<?xml version="1.0" encoding="utf-8" standalone="no"?>
<!DOCTYPE svg PUBLIC "-//W3C//DTD SVG 1.1//EN"
  "http://www.w3.org/Graphics/SVG/1.1/DTD/svg11.dtd">
<!-- Created with matplotlib (https://matplotlib.org/) -->
<svg height="345.6pt" version="1.1" viewBox="0 0 460.8 345.6" width="460.8pt" xmlns="http://www.w3.org/2000/svg" xmlns:xlink="http://www.w3.org/1999/xlink">
 <metadata>
  <rdf:RDF xmlns:cc="http://creativecommons.org/ns#" xmlns:dc="http://purl.org/dc/elements/1.1/" xmlns:rdf="http://www.w3.org/1999/02/22-rdf-syntax-ns#">
   <cc:Work>
    <dc:type rdf:resource="http://purl.org/dc/dcmitype/StillImage"/>
    <dc:date>2021-03-11T12:04:31.411329</dc:date>
    <dc:format>image/svg+xml</dc:format>
    <dc:creator>
     <cc:Agent>
      <dc:title>Matplotlib v3.3.3, https://matplotlib.org/</dc:title>
     </cc:Agent>
    </dc:creator>
   </cc:Work>
  </rdf:RDF>
 </metadata>
 <defs>
  <style type="text/css">*{stroke-linecap:butt;stroke-linejoin:round;}</style>
 </defs>
 <g id="figure_1">
  <g id="patch_1">
   <path d="M 0 345.6 
L 460.8 345.6 
L 460.8 0 
L 0 0 
z
" style="fill:#ffffff;"/>
  </g>
  <g id="axes_1">
   <g id="patch_2">
    <path d="M 57.6 298.944 
L 338.688 298.944 
L 338.688 27.648 
L 57.6 27.648 
z
" style="fill:#ffffff;"/>
   </g>
   <g id="matplotlib.axis_1">
    <g id="xtick_1">
     <g id="line2d_1">
      <path clip-path="url(#p2658ca2493)" d="M 57.6 298.944 
L 57.6 27.648 
" style="fill:none;stroke:#b0b0b0;stroke-linecap:square;stroke-width:0.8;"/>
     </g>
     <g id="line2d_2">
      <defs>
       <path d="M 0 0 
L 0 3.5 
" id="m0af0629e40" style="stroke:#000000;stroke-width:0.8;"/>
      </defs>
      <g>
       <use style="stroke:#000000;stroke-width:0.8;" x="57.6" xlink:href="#m0af0629e40" y="298.944"/>
      </g>
     </g>
     <g id="text_1">
      <!-- 0 -->
      <g transform="translate(51.2375 321.140875)scale(0.2 -0.2)">
       <defs>
        <path d="M 31.78125 66.40625 
Q 24.171875 66.40625 20.328125 58.90625 
Q 16.5 51.421875 16.5 36.375 
Q 16.5 21.390625 20.328125 13.890625 
Q 24.171875 6.390625 31.78125 6.390625 
Q 39.453125 6.390625 43.28125 13.890625 
Q 47.125 21.390625 47.125 36.375 
Q 47.125 51.421875 43.28125 58.90625 
Q 39.453125 66.40625 31.78125 66.40625 
z
M 31.78125 74.21875 
Q 44.046875 74.21875 50.515625 64.515625 
Q 56.984375 54.828125 56.984375 36.375 
Q 56.984375 17.96875 50.515625 8.265625 
Q 44.046875 -1.421875 31.78125 -1.421875 
Q 19.53125 -1.421875 13.0625 8.265625 
Q 6.59375 17.96875 6.59375 36.375 
Q 6.59375 54.828125 13.0625 64.515625 
Q 19.53125 74.21875 31.78125 74.21875 
z
" id="DejaVuSans-48"/>
       </defs>
       <use xlink:href="#DejaVuSans-48"/>
      </g>
     </g>
    </g>
    <g id="xtick_2">
     <g id="line2d_3">
      <path clip-path="url(#p2658ca2493)" d="M 137.910857 298.944 
L 137.910857 27.648 
" style="fill:none;stroke:#b0b0b0;stroke-linecap:square;stroke-width:0.8;"/>
     </g>
     <g id="line2d_4">
      <g>
       <use style="stroke:#000000;stroke-width:0.8;" x="137.910857" xlink:href="#m0af0629e40" y="298.944"/>
      </g>
     </g>
     <g id="text_2">
      <!-- 2 -->
      <g transform="translate(131.548357 321.140875)scale(0.2 -0.2)">
       <defs>
        <path d="M 19.1875 8.296875 
L 53.609375 8.296875 
L 53.609375 0 
L 7.328125 0 
L 7.328125 8.296875 
Q 12.9375 14.109375 22.625 23.890625 
Q 32.328125 33.6875 34.8125 36.53125 
Q 39.546875 41.84375 41.421875 45.53125 
Q 43.3125 49.21875 43.3125 52.78125 
Q 43.3125 58.59375 39.234375 62.25 
Q 35.15625 65.921875 28.609375 65.921875 
Q 23.96875 65.921875 18.8125 64.3125 
Q 13.671875 62.703125 7.8125 59.421875 
L 7.8125 69.390625 
Q 13.765625 71.78125 18.9375 73 
Q 24.125 74.21875 28.421875 74.21875 
Q 39.75 74.21875 46.484375 68.546875 
Q 53.21875 62.890625 53.21875 53.421875 
Q 53.21875 48.921875 51.53125 44.890625 
Q 49.859375 40.875 45.40625 35.40625 
Q 44.1875 33.984375 37.640625 27.21875 
Q 31.109375 20.453125 19.1875 8.296875 
z
" id="DejaVuSans-50"/>
       </defs>
       <use xlink:href="#DejaVuSans-50"/>
      </g>
     </g>
    </g>
    <g id="xtick_3">
     <g id="line2d_5">
      <path clip-path="url(#p2658ca2493)" d="M 218.221714 298.944 
L 218.221714 27.648 
" style="fill:none;stroke:#b0b0b0;stroke-linecap:square;stroke-width:0.8;"/>
     </g>
     <g id="line2d_6">
      <g>
       <use style="stroke:#000000;stroke-width:0.8;" x="218.221714" xlink:href="#m0af0629e40" y="298.944"/>
      </g>
     </g>
     <g id="text_3">
      <!-- 4 -->
      <g transform="translate(211.859214 321.140875)scale(0.2 -0.2)">
       <defs>
        <path d="M 37.796875 64.3125 
L 12.890625 25.390625 
L 37.796875 25.390625 
z
M 35.203125 72.90625 
L 47.609375 72.90625 
L 47.609375 25.390625 
L 58.015625 25.390625 
L 58.015625 17.1875 
L 47.609375 17.1875 
L 47.609375 0 
L 37.796875 0 
L 37.796875 17.1875 
L 4.890625 17.1875 
L 4.890625 26.703125 
z
" id="DejaVuSans-52"/>
       </defs>
       <use xlink:href="#DejaVuSans-52"/>
      </g>
     </g>
    </g>
    <g id="xtick_4">
     <g id="line2d_7">
      <path clip-path="url(#p2658ca2493)" d="M 298.532571 298.944 
L 298.532571 27.648 
" style="fill:none;stroke:#b0b0b0;stroke-linecap:square;stroke-width:0.8;"/>
     </g>
     <g id="line2d_8">
      <g>
       <use style="stroke:#000000;stroke-width:0.8;" x="298.532571" xlink:href="#m0af0629e40" y="298.944"/>
      </g>
     </g>
     <g id="text_4">
      <!-- 6 -->
      <g transform="translate(292.170071 321.140875)scale(0.2 -0.2)">
       <defs>
        <path d="M 33.015625 40.375 
Q 26.375 40.375 22.484375 35.828125 
Q 18.609375 31.296875 18.609375 23.390625 
Q 18.609375 15.53125 22.484375 10.953125 
Q 26.375 6.390625 33.015625 6.390625 
Q 39.65625 6.390625 43.53125 10.953125 
Q 47.40625 15.53125 47.40625 23.390625 
Q 47.40625 31.296875 43.53125 35.828125 
Q 39.65625 40.375 33.015625 40.375 
z
M 52.59375 71.296875 
L 52.59375 62.3125 
Q 48.875 64.0625 45.09375 64.984375 
Q 41.3125 65.921875 37.59375 65.921875 
Q 27.828125 65.921875 22.671875 59.328125 
Q 17.53125 52.734375 16.796875 39.40625 
Q 19.671875 43.65625 24.015625 45.921875 
Q 28.375 48.1875 33.59375 48.1875 
Q 44.578125 48.1875 50.953125 41.515625 
Q 57.328125 34.859375 57.328125 23.390625 
Q 57.328125 12.15625 50.6875 5.359375 
Q 44.046875 -1.421875 33.015625 -1.421875 
Q 20.359375 -1.421875 13.671875 8.265625 
Q 6.984375 17.96875 6.984375 36.375 
Q 6.984375 53.65625 15.1875 63.9375 
Q 23.390625 74.21875 37.203125 74.21875 
Q 40.921875 74.21875 44.703125 73.484375 
Q 48.484375 72.75 52.59375 71.296875 
z
" id="DejaVuSans-54"/>
       </defs>
       <use xlink:href="#DejaVuSans-54"/>
      </g>
     </g>
    </g>
    <g id="xtick_5">
     <g id="line2d_9">
      <path clip-path="url(#p2658ca2493)" d="M 97.755429 298.944 
L 97.755429 27.648 
" style="fill:none;stroke:#b0b0b0;stroke-linecap:square;stroke-width:0.8;"/>
     </g>
     <g id="line2d_10">
      <defs>
       <path d="M 0 0 
L 0 2 
" id="m460f2882d1" style="stroke:#000000;stroke-width:0.6;"/>
      </defs>
      <g>
       <use style="stroke:#000000;stroke-width:0.6;" x="97.755429" xlink:href="#m460f2882d1" y="298.944"/>
      </g>
     </g>
    </g>
    <g id="xtick_6">
     <g id="line2d_11">
      <path clip-path="url(#p2658ca2493)" d="M 178.066286 298.944 
L 178.066286 27.648 
" style="fill:none;stroke:#b0b0b0;stroke-linecap:square;stroke-width:0.8;"/>
     </g>
     <g id="line2d_12">
      <g>
       <use style="stroke:#000000;stroke-width:0.6;" x="178.066286" xlink:href="#m460f2882d1" y="298.944"/>
      </g>
     </g>
    </g>
    <g id="xtick_7">
     <g id="line2d_13">
      <path clip-path="url(#p2658ca2493)" d="M 258.377143 298.944 
L 258.377143 27.648 
" style="fill:none;stroke:#b0b0b0;stroke-linecap:square;stroke-width:0.8;"/>
     </g>
     <g id="line2d_14">
      <g>
       <use style="stroke:#000000;stroke-width:0.6;" x="258.377143" xlink:href="#m460f2882d1" y="298.944"/>
      </g>
     </g>
    </g>
    <g id="xtick_8">
     <g id="line2d_15">
      <path clip-path="url(#p2658ca2493)" d="M 338.688 298.944 
L 338.688 27.648 
" style="fill:none;stroke:#b0b0b0;stroke-linecap:square;stroke-width:0.8;"/>
     </g>
     <g id="line2d_16">
      <g>
       <use style="stroke:#000000;stroke-width:0.6;" x="338.688" xlink:href="#m460f2882d1" y="298.944"/>
      </g>
     </g>
    </g>
    <g id="text_5">
     <!-- log10(# (f+g)-evals / dimension) -->
     <g transform="translate(58.145016 342.217594)scale(0.17 -0.17)">
      <defs>
       <path d="M 9.421875 75.984375 
L 18.40625 75.984375 
L 18.40625 0 
L 9.421875 0 
z
" id="DejaVuSans-108"/>
       <path d="M 30.609375 48.390625 
Q 23.390625 48.390625 19.1875 42.75 
Q 14.984375 37.109375 14.984375 27.296875 
Q 14.984375 17.484375 19.15625 11.84375 
Q 23.34375 6.203125 30.609375 6.203125 
Q 37.796875 6.203125 41.984375 11.859375 
Q 46.1875 17.53125 46.1875 27.296875 
Q 46.1875 37.015625 41.984375 42.703125 
Q 37.796875 48.390625 30.609375 48.390625 
z
M 30.609375 56 
Q 42.328125 56 49.015625 48.375 
Q 55.71875 40.765625 55.71875 27.296875 
Q 55.71875 13.875 49.015625 6.21875 
Q 42.328125 -1.421875 30.609375 -1.421875 
Q 18.84375 -1.421875 12.171875 6.21875 
Q 5.515625 13.875 5.515625 27.296875 
Q 5.515625 40.765625 12.171875 48.375 
Q 18.84375 56 30.609375 56 
z
" id="DejaVuSans-111"/>
       <path d="M 45.40625 27.984375 
Q 45.40625 37.75 41.375 43.109375 
Q 37.359375 48.484375 30.078125 48.484375 
Q 22.859375 48.484375 18.828125 43.109375 
Q 14.796875 37.75 14.796875 27.984375 
Q 14.796875 18.265625 18.828125 12.890625 
Q 22.859375 7.515625 30.078125 7.515625 
Q 37.359375 7.515625 41.375 12.890625 
Q 45.40625 18.265625 45.40625 27.984375 
z
M 54.390625 6.78125 
Q 54.390625 -7.171875 48.1875 -13.984375 
Q 42 -20.796875 29.203125 -20.796875 
Q 24.46875 -20.796875 20.265625 -20.09375 
Q 16.0625 -19.390625 12.109375 -17.921875 
L 12.109375 -9.1875 
Q 16.0625 -11.328125 19.921875 -12.34375 
Q 23.78125 -13.375 27.78125 -13.375 
Q 36.625 -13.375 41.015625 -8.765625 
Q 45.40625 -4.15625 45.40625 5.171875 
L 45.40625 9.625 
Q 42.625 4.78125 38.28125 2.390625 
Q 33.9375 0 27.875 0 
Q 17.828125 0 11.671875 7.65625 
Q 5.515625 15.328125 5.515625 27.984375 
Q 5.515625 40.671875 11.671875 48.328125 
Q 17.828125 56 27.875 56 
Q 33.9375 56 38.28125 53.609375 
Q 42.625 51.21875 45.40625 46.390625 
L 45.40625 54.6875 
L 54.390625 54.6875 
z
" id="DejaVuSans-103"/>
       <path d="M 12.40625 8.296875 
L 28.515625 8.296875 
L 28.515625 63.921875 
L 10.984375 60.40625 
L 10.984375 69.390625 
L 28.421875 72.90625 
L 38.28125 72.90625 
L 38.28125 8.296875 
L 54.390625 8.296875 
L 54.390625 0 
L 12.40625 0 
z
" id="DejaVuSans-49"/>
       <path d="M 31 75.875 
Q 24.46875 64.65625 21.28125 53.65625 
Q 18.109375 42.671875 18.109375 31.390625 
Q 18.109375 20.125 21.3125 9.0625 
Q 24.515625 -2 31 -13.1875 
L 23.1875 -13.1875 
Q 15.875 -1.703125 12.234375 9.375 
Q 8.59375 20.453125 8.59375 31.390625 
Q 8.59375 42.28125 12.203125 53.3125 
Q 15.828125 64.359375 23.1875 75.875 
z
" id="DejaVuSans-40"/>
       <path d="M 51.125 44 
L 36.921875 44 
L 32.8125 27.6875 
L 47.125 27.6875 
z
M 43.796875 71.78125 
L 38.71875 51.515625 
L 52.984375 51.515625 
L 58.109375 71.78125 
L 65.921875 71.78125 
L 60.890625 51.515625 
L 76.125 51.515625 
L 76.125 44 
L 58.984375 44 
L 54.984375 27.6875 
L 70.515625 27.6875 
L 70.515625 20.21875 
L 53.078125 20.21875 
L 48 0 
L 40.1875 0 
L 45.21875 20.21875 
L 30.90625 20.21875 
L 25.875 0 
L 18.015625 0 
L 23.09375 20.21875 
L 7.71875 20.21875 
L 7.71875 27.6875 
L 24.90625 27.6875 
L 29 44 
L 13.28125 44 
L 13.28125 51.515625 
L 30.90625 51.515625 
L 35.890625 71.78125 
z
" id="DejaVuSans-35"/>
       <path id="DejaVuSans-32"/>
       <path d="M 37.109375 75.984375 
L 37.109375 68.5 
L 28.515625 68.5 
Q 23.6875 68.5 21.796875 66.546875 
Q 19.921875 64.59375 19.921875 59.515625 
L 19.921875 54.6875 
L 34.71875 54.6875 
L 34.71875 47.703125 
L 19.921875 47.703125 
L 19.921875 0 
L 10.890625 0 
L 10.890625 47.703125 
L 2.296875 47.703125 
L 2.296875 54.6875 
L 10.890625 54.6875 
L 10.890625 58.5 
Q 10.890625 67.625 15.140625 71.796875 
Q 19.390625 75.984375 28.609375 75.984375 
z
" id="DejaVuSans-102"/>
       <path d="M 46 62.703125 
L 46 35.5 
L 73.1875 35.5 
L 73.1875 27.203125 
L 46 27.203125 
L 46 0 
L 37.796875 0 
L 37.796875 27.203125 
L 10.59375 27.203125 
L 10.59375 35.5 
L 37.796875 35.5 
L 37.796875 62.703125 
z
" id="DejaVuSans-43"/>
       <path d="M 8.015625 75.875 
L 15.828125 75.875 
Q 23.140625 64.359375 26.78125 53.3125 
Q 30.421875 42.28125 30.421875 31.390625 
Q 30.421875 20.453125 26.78125 9.375 
Q 23.140625 -1.703125 15.828125 -13.1875 
L 8.015625 -13.1875 
Q 14.5 -2 17.703125 9.0625 
Q 20.90625 20.125 20.90625 31.390625 
Q 20.90625 42.671875 17.703125 53.65625 
Q 14.5 64.65625 8.015625 75.875 
z
" id="DejaVuSans-41"/>
       <path d="M 4.890625 31.390625 
L 31.203125 31.390625 
L 31.203125 23.390625 
L 4.890625 23.390625 
z
" id="DejaVuSans-45"/>
       <path d="M 56.203125 29.59375 
L 56.203125 25.203125 
L 14.890625 25.203125 
Q 15.484375 15.921875 20.484375 11.0625 
Q 25.484375 6.203125 34.421875 6.203125 
Q 39.59375 6.203125 44.453125 7.46875 
Q 49.3125 8.734375 54.109375 11.28125 
L 54.109375 2.78125 
Q 49.265625 0.734375 44.1875 -0.34375 
Q 39.109375 -1.421875 33.890625 -1.421875 
Q 20.796875 -1.421875 13.15625 6.1875 
Q 5.515625 13.8125 5.515625 26.8125 
Q 5.515625 40.234375 12.765625 48.109375 
Q 20.015625 56 32.328125 56 
Q 43.359375 56 49.78125 48.890625 
Q 56.203125 41.796875 56.203125 29.59375 
z
M 47.21875 32.234375 
Q 47.125 39.59375 43.09375 43.984375 
Q 39.0625 48.390625 32.421875 48.390625 
Q 24.90625 48.390625 20.390625 44.140625 
Q 15.875 39.890625 15.1875 32.171875 
z
" id="DejaVuSans-101"/>
       <path d="M 2.984375 54.6875 
L 12.5 54.6875 
L 29.59375 8.796875 
L 46.6875 54.6875 
L 56.203125 54.6875 
L 35.6875 0 
L 23.484375 0 
z
" id="DejaVuSans-118"/>
       <path d="M 34.28125 27.484375 
Q 23.390625 27.484375 19.1875 25 
Q 14.984375 22.515625 14.984375 16.5 
Q 14.984375 11.71875 18.140625 8.90625 
Q 21.296875 6.109375 26.703125 6.109375 
Q 34.1875 6.109375 38.703125 11.40625 
Q 43.21875 16.703125 43.21875 25.484375 
L 43.21875 27.484375 
z
M 52.203125 31.203125 
L 52.203125 0 
L 43.21875 0 
L 43.21875 8.296875 
Q 40.140625 3.328125 35.546875 0.953125 
Q 30.953125 -1.421875 24.3125 -1.421875 
Q 15.921875 -1.421875 10.953125 3.296875 
Q 6 8.015625 6 15.921875 
Q 6 25.140625 12.171875 29.828125 
Q 18.359375 34.515625 30.609375 34.515625 
L 43.21875 34.515625 
L 43.21875 35.40625 
Q 43.21875 41.609375 39.140625 45 
Q 35.0625 48.390625 27.6875 48.390625 
Q 23 48.390625 18.546875 47.265625 
Q 14.109375 46.140625 10.015625 43.890625 
L 10.015625 52.203125 
Q 14.9375 54.109375 19.578125 55.046875 
Q 24.21875 56 28.609375 56 
Q 40.484375 56 46.34375 49.84375 
Q 52.203125 43.703125 52.203125 31.203125 
z
" id="DejaVuSans-97"/>
       <path d="M 44.28125 53.078125 
L 44.28125 44.578125 
Q 40.484375 46.53125 36.375 47.5 
Q 32.28125 48.484375 27.875 48.484375 
Q 21.1875 48.484375 17.84375 46.4375 
Q 14.5 44.390625 14.5 40.28125 
Q 14.5 37.15625 16.890625 35.375 
Q 19.28125 33.59375 26.515625 31.984375 
L 29.59375 31.296875 
Q 39.15625 29.25 43.1875 25.515625 
Q 47.21875 21.78125 47.21875 15.09375 
Q 47.21875 7.46875 41.1875 3.015625 
Q 35.15625 -1.421875 24.609375 -1.421875 
Q 20.21875 -1.421875 15.453125 -0.5625 
Q 10.6875 0.296875 5.421875 2 
L 5.421875 11.28125 
Q 10.40625 8.6875 15.234375 7.390625 
Q 20.0625 6.109375 24.8125 6.109375 
Q 31.15625 6.109375 34.5625 8.28125 
Q 37.984375 10.453125 37.984375 14.40625 
Q 37.984375 18.0625 35.515625 20.015625 
Q 33.0625 21.96875 24.703125 23.78125 
L 21.578125 24.515625 
Q 13.234375 26.265625 9.515625 29.90625 
Q 5.8125 33.546875 5.8125 39.890625 
Q 5.8125 47.609375 11.28125 51.796875 
Q 16.75 56 26.8125 56 
Q 31.78125 56 36.171875 55.265625 
Q 40.578125 54.546875 44.28125 53.078125 
z
" id="DejaVuSans-115"/>
       <path d="M 25.390625 72.90625 
L 33.6875 72.90625 
L 8.296875 -9.28125 
L 0 -9.28125 
z
" id="DejaVuSans-47"/>
       <path d="M 45.40625 46.390625 
L 45.40625 75.984375 
L 54.390625 75.984375 
L 54.390625 0 
L 45.40625 0 
L 45.40625 8.203125 
Q 42.578125 3.328125 38.25 0.953125 
Q 33.9375 -1.421875 27.875 -1.421875 
Q 17.96875 -1.421875 11.734375 6.484375 
Q 5.515625 14.40625 5.515625 27.296875 
Q 5.515625 40.1875 11.734375 48.09375 
Q 17.96875 56 27.875 56 
Q 33.9375 56 38.25 53.625 
Q 42.578125 51.265625 45.40625 46.390625 
z
M 14.796875 27.296875 
Q 14.796875 17.390625 18.875 11.75 
Q 22.953125 6.109375 30.078125 6.109375 
Q 37.203125 6.109375 41.296875 11.75 
Q 45.40625 17.390625 45.40625 27.296875 
Q 45.40625 37.203125 41.296875 42.84375 
Q 37.203125 48.484375 30.078125 48.484375 
Q 22.953125 48.484375 18.875 42.84375 
Q 14.796875 37.203125 14.796875 27.296875 
z
" id="DejaVuSans-100"/>
       <path d="M 9.421875 54.6875 
L 18.40625 54.6875 
L 18.40625 0 
L 9.421875 0 
z
M 9.421875 75.984375 
L 18.40625 75.984375 
L 18.40625 64.59375 
L 9.421875 64.59375 
z
" id="DejaVuSans-105"/>
       <path d="M 52 44.1875 
Q 55.375 50.25 60.0625 53.125 
Q 64.75 56 71.09375 56 
Q 79.640625 56 84.28125 50.015625 
Q 88.921875 44.046875 88.921875 33.015625 
L 88.921875 0 
L 79.890625 0 
L 79.890625 32.71875 
Q 79.890625 40.578125 77.09375 44.375 
Q 74.3125 48.1875 68.609375 48.1875 
Q 61.625 48.1875 57.5625 43.546875 
Q 53.515625 38.921875 53.515625 30.90625 
L 53.515625 0 
L 44.484375 0 
L 44.484375 32.71875 
Q 44.484375 40.625 41.703125 44.40625 
Q 38.921875 48.1875 33.109375 48.1875 
Q 26.21875 48.1875 22.15625 43.53125 
Q 18.109375 38.875 18.109375 30.90625 
L 18.109375 0 
L 9.078125 0 
L 9.078125 54.6875 
L 18.109375 54.6875 
L 18.109375 46.1875 
Q 21.1875 51.21875 25.484375 53.609375 
Q 29.78125 56 35.6875 56 
Q 41.65625 56 45.828125 52.96875 
Q 50 49.953125 52 44.1875 
z
" id="DejaVuSans-109"/>
       <path d="M 54.890625 33.015625 
L 54.890625 0 
L 45.90625 0 
L 45.90625 32.71875 
Q 45.90625 40.484375 42.875 44.328125 
Q 39.84375 48.1875 33.796875 48.1875 
Q 26.515625 48.1875 22.3125 43.546875 
Q 18.109375 38.921875 18.109375 30.90625 
L 18.109375 0 
L 9.078125 0 
L 9.078125 54.6875 
L 18.109375 54.6875 
L 18.109375 46.1875 
Q 21.34375 51.125 25.703125 53.5625 
Q 30.078125 56 35.796875 56 
Q 45.21875 56 50.046875 50.171875 
Q 54.890625 44.34375 54.890625 33.015625 
z
" id="DejaVuSans-110"/>
      </defs>
      <use xlink:href="#DejaVuSans-108"/>
      <use x="27.783203" xlink:href="#DejaVuSans-111"/>
      <use x="88.964844" xlink:href="#DejaVuSans-103"/>
      <use x="152.441406" xlink:href="#DejaVuSans-49"/>
      <use x="216.064453" xlink:href="#DejaVuSans-48"/>
      <use x="279.6875" xlink:href="#DejaVuSans-40"/>
      <use x="318.701172" xlink:href="#DejaVuSans-35"/>
      <use x="402.490234" xlink:href="#DejaVuSans-32"/>
      <use x="434.277344" xlink:href="#DejaVuSans-40"/>
      <use x="473.291016" xlink:href="#DejaVuSans-102"/>
      <use x="508.496094" xlink:href="#DejaVuSans-43"/>
      <use x="592.285156" xlink:href="#DejaVuSans-103"/>
      <use x="655.761719" xlink:href="#DejaVuSans-41"/>
      <use x="694.775391" xlink:href="#DejaVuSans-45"/>
      <use x="730.859375" xlink:href="#DejaVuSans-101"/>
      <use x="792.382812" xlink:href="#DejaVuSans-118"/>
      <use x="851.5625" xlink:href="#DejaVuSans-97"/>
      <use x="912.841797" xlink:href="#DejaVuSans-108"/>
      <use x="940.625" xlink:href="#DejaVuSans-115"/>
      <use x="992.724609" xlink:href="#DejaVuSans-32"/>
      <use x="1024.511719" xlink:href="#DejaVuSans-47"/>
      <use x="1058.203125" xlink:href="#DejaVuSans-32"/>
      <use x="1089.990234" xlink:href="#DejaVuSans-100"/>
      <use x="1153.466797" xlink:href="#DejaVuSans-105"/>
      <use x="1181.25" xlink:href="#DejaVuSans-109"/>
      <use x="1278.662109" xlink:href="#DejaVuSans-101"/>
      <use x="1340.185547" xlink:href="#DejaVuSans-110"/>
      <use x="1403.564453" xlink:href="#DejaVuSans-115"/>
      <use x="1455.664062" xlink:href="#DejaVuSans-105"/>
      <use x="1483.447266" xlink:href="#DejaVuSans-111"/>
      <use x="1544.628906" xlink:href="#DejaVuSans-110"/>
      <use x="1608.007812" xlink:href="#DejaVuSans-41"/>
     </g>
    </g>
   </g>
   <g id="matplotlib.axis_2">
    <g id="ytick_1">
     <g id="line2d_17">
      <path clip-path="url(#p2658ca2493)" d="M 57.6 298.944 
L 338.688 298.944 
" style="fill:none;stroke:#b0b0b0;stroke-linecap:square;stroke-width:0.8;"/>
     </g>
     <g id="line2d_18">
      <defs>
       <path d="M 0 0 
L -3.5 0 
" id="mfb4d2294cb" style="stroke:#000000;stroke-width:0.8;"/>
      </defs>
      <g>
       <use style="stroke:#000000;stroke-width:0.8;" x="57.6" xlink:href="#mfb4d2294cb" y="298.944"/>
      </g>
     </g>
     <g id="text_6">
      <!-- 0.0 -->
      <g transform="translate(25.155 305.02275)scale(0.16 -0.16)">
       <defs>
        <path d="M 10.6875 12.40625 
L 21 12.40625 
L 21 0 
L 10.6875 0 
z
" id="DejaVuSans-46"/>
       </defs>
       <use xlink:href="#DejaVuSans-48"/>
       <use x="63.623047" xlink:href="#DejaVuSans-46"/>
       <use x="95.410156" xlink:href="#DejaVuSans-48"/>
      </g>
     </g>
    </g>
    <g id="ytick_2">
     <g id="line2d_19">
      <path clip-path="url(#p2658ca2493)" d="M 57.6 245.22202 
L 338.688 245.22202 
" style="fill:none;stroke:#b0b0b0;stroke-linecap:square;stroke-width:0.8;"/>
     </g>
     <g id="line2d_20">
      <g>
       <use style="stroke:#000000;stroke-width:0.8;" x="57.6" xlink:href="#mfb4d2294cb" y="245.22202"/>
      </g>
     </g>
     <g id="text_7">
      <!-- 0.2 -->
      <g transform="translate(25.155 251.30077)scale(0.16 -0.16)">
       <use xlink:href="#DejaVuSans-48"/>
       <use x="63.623047" xlink:href="#DejaVuSans-46"/>
       <use x="95.410156" xlink:href="#DejaVuSans-50"/>
      </g>
     </g>
    </g>
    <g id="ytick_3">
     <g id="line2d_21">
      <path clip-path="url(#p2658ca2493)" d="M 57.6 191.50004 
L 338.688 191.50004 
" style="fill:none;stroke:#b0b0b0;stroke-linecap:square;stroke-width:0.8;"/>
     </g>
     <g id="line2d_22">
      <g>
       <use style="stroke:#000000;stroke-width:0.8;" x="57.6" xlink:href="#mfb4d2294cb" y="191.50004"/>
      </g>
     </g>
     <g id="text_8">
      <!-- 0.4 -->
      <g transform="translate(25.155 197.57879)scale(0.16 -0.16)">
       <use xlink:href="#DejaVuSans-48"/>
       <use x="63.623047" xlink:href="#DejaVuSans-46"/>
       <use x="95.410156" xlink:href="#DejaVuSans-52"/>
      </g>
     </g>
    </g>
    <g id="ytick_4">
     <g id="line2d_23">
      <path clip-path="url(#p2658ca2493)" d="M 57.6 137.778059 
L 338.688 137.778059 
" style="fill:none;stroke:#b0b0b0;stroke-linecap:square;stroke-width:0.8;"/>
     </g>
     <g id="line2d_24">
      <g>
       <use style="stroke:#000000;stroke-width:0.8;" x="57.6" xlink:href="#mfb4d2294cb" y="137.778059"/>
      </g>
     </g>
     <g id="text_9">
      <!-- 0.6 -->
      <g transform="translate(25.155 143.856809)scale(0.16 -0.16)">
       <use xlink:href="#DejaVuSans-48"/>
       <use x="63.623047" xlink:href="#DejaVuSans-46"/>
       <use x="95.410156" xlink:href="#DejaVuSans-54"/>
      </g>
     </g>
    </g>
    <g id="ytick_5">
     <g id="line2d_25">
      <path clip-path="url(#p2658ca2493)" d="M 57.6 84.056079 
L 338.688 84.056079 
" style="fill:none;stroke:#b0b0b0;stroke-linecap:square;stroke-width:0.8;"/>
     </g>
     <g id="line2d_26">
      <g>
       <use style="stroke:#000000;stroke-width:0.8;" x="57.6" xlink:href="#mfb4d2294cb" y="84.056079"/>
      </g>
     </g>
     <g id="text_10">
      <!-- 0.8 -->
      <g transform="translate(25.155 90.134829)scale(0.16 -0.16)">
       <defs>
        <path d="M 31.78125 34.625 
Q 24.75 34.625 20.71875 30.859375 
Q 16.703125 27.09375 16.703125 20.515625 
Q 16.703125 13.921875 20.71875 10.15625 
Q 24.75 6.390625 31.78125 6.390625 
Q 38.8125 6.390625 42.859375 10.171875 
Q 46.921875 13.96875 46.921875 20.515625 
Q 46.921875 27.09375 42.890625 30.859375 
Q 38.875 34.625 31.78125 34.625 
z
M 21.921875 38.8125 
Q 15.578125 40.375 12.03125 44.71875 
Q 8.5 49.078125 8.5 55.328125 
Q 8.5 64.0625 14.71875 69.140625 
Q 20.953125 74.21875 31.78125 74.21875 
Q 42.671875 74.21875 48.875 69.140625 
Q 55.078125 64.0625 55.078125 55.328125 
Q 55.078125 49.078125 51.53125 44.71875 
Q 48 40.375 41.703125 38.8125 
Q 48.828125 37.15625 52.796875 32.3125 
Q 56.78125 27.484375 56.78125 20.515625 
Q 56.78125 9.90625 50.3125 4.234375 
Q 43.84375 -1.421875 31.78125 -1.421875 
Q 19.734375 -1.421875 13.25 4.234375 
Q 6.78125 9.90625 6.78125 20.515625 
Q 6.78125 27.484375 10.78125 32.3125 
Q 14.796875 37.15625 21.921875 38.8125 
z
M 18.3125 54.390625 
Q 18.3125 48.734375 21.84375 45.5625 
Q 25.390625 42.390625 31.78125 42.390625 
Q 38.140625 42.390625 41.71875 45.5625 
Q 45.3125 48.734375 45.3125 54.390625 
Q 45.3125 60.0625 41.71875 63.234375 
Q 38.140625 66.40625 31.78125 66.40625 
Q 25.390625 66.40625 21.84375 63.234375 
Q 18.3125 60.0625 18.3125 54.390625 
z
" id="DejaVuSans-56"/>
       </defs>
       <use xlink:href="#DejaVuSans-48"/>
       <use x="63.623047" xlink:href="#DejaVuSans-46"/>
       <use x="95.410156" xlink:href="#DejaVuSans-56"/>
      </g>
     </g>
    </g>
    <g id="ytick_6">
     <g id="line2d_27">
      <path clip-path="url(#p2658ca2493)" d="M 57.6 30.334099 
L 338.688 30.334099 
" style="fill:none;stroke:#b0b0b0;stroke-linecap:square;stroke-width:0.8;"/>
     </g>
     <g id="line2d_28">
      <g>
       <use style="stroke:#000000;stroke-width:0.8;" x="57.6" xlink:href="#mfb4d2294cb" y="30.334099"/>
      </g>
     </g>
     <g id="text_11">
      <!-- 1.0 -->
      <g transform="translate(25.155 36.412849)scale(0.16 -0.16)">
       <use xlink:href="#DejaVuSans-49"/>
       <use x="63.623047" xlink:href="#DejaVuSans-46"/>
       <use x="95.410156" xlink:href="#DejaVuSans-48"/>
      </g>
     </g>
    </g>
    <g id="text_12">
     <!-- Fraction of function,target pairs -->
     <g transform="translate(17.619531 297.681)rotate(-90)scale(0.17 -0.17)">
      <defs>
       <path d="M 9.8125 72.90625 
L 51.703125 72.90625 
L 51.703125 64.59375 
L 19.671875 64.59375 
L 19.671875 43.109375 
L 48.578125 43.109375 
L 48.578125 34.8125 
L 19.671875 34.8125 
L 19.671875 0 
L 9.8125 0 
z
" id="DejaVuSans-70"/>
       <path d="M 41.109375 46.296875 
Q 39.59375 47.171875 37.8125 47.578125 
Q 36.03125 48 33.890625 48 
Q 26.265625 48 22.1875 43.046875 
Q 18.109375 38.09375 18.109375 28.8125 
L 18.109375 0 
L 9.078125 0 
L 9.078125 54.6875 
L 18.109375 54.6875 
L 18.109375 46.1875 
Q 20.953125 51.171875 25.484375 53.578125 
Q 30.03125 56 36.53125 56 
Q 37.453125 56 38.578125 55.875 
Q 39.703125 55.765625 41.0625 55.515625 
z
" id="DejaVuSans-114"/>
       <path d="M 48.78125 52.59375 
L 48.78125 44.1875 
Q 44.96875 46.296875 41.140625 47.34375 
Q 37.3125 48.390625 33.40625 48.390625 
Q 24.65625 48.390625 19.8125 42.84375 
Q 14.984375 37.3125 14.984375 27.296875 
Q 14.984375 17.28125 19.8125 11.734375 
Q 24.65625 6.203125 33.40625 6.203125 
Q 37.3125 6.203125 41.140625 7.25 
Q 44.96875 8.296875 48.78125 10.40625 
L 48.78125 2.09375 
Q 45.015625 0.34375 40.984375 -0.53125 
Q 36.96875 -1.421875 32.421875 -1.421875 
Q 20.0625 -1.421875 12.78125 6.34375 
Q 5.515625 14.109375 5.515625 27.296875 
Q 5.515625 40.671875 12.859375 48.328125 
Q 20.21875 56 33.015625 56 
Q 37.15625 56 41.109375 55.140625 
Q 45.0625 54.296875 48.78125 52.59375 
z
" id="DejaVuSans-99"/>
       <path d="M 18.3125 70.21875 
L 18.3125 54.6875 
L 36.8125 54.6875 
L 36.8125 47.703125 
L 18.3125 47.703125 
L 18.3125 18.015625 
Q 18.3125 11.328125 20.140625 9.421875 
Q 21.96875 7.515625 27.59375 7.515625 
L 36.8125 7.515625 
L 36.8125 0 
L 27.59375 0 
Q 17.1875 0 13.234375 3.875 
Q 9.28125 7.765625 9.28125 18.015625 
L 9.28125 47.703125 
L 2.6875 47.703125 
L 2.6875 54.6875 
L 9.28125 54.6875 
L 9.28125 70.21875 
z
" id="DejaVuSans-116"/>
       <path d="M 8.5 21.578125 
L 8.5 54.6875 
L 17.484375 54.6875 
L 17.484375 21.921875 
Q 17.484375 14.15625 20.5 10.265625 
Q 23.53125 6.390625 29.59375 6.390625 
Q 36.859375 6.390625 41.078125 11.03125 
Q 45.3125 15.671875 45.3125 23.6875 
L 45.3125 54.6875 
L 54.296875 54.6875 
L 54.296875 0 
L 45.3125 0 
L 45.3125 8.40625 
Q 42.046875 3.421875 37.71875 1 
Q 33.40625 -1.421875 27.6875 -1.421875 
Q 18.265625 -1.421875 13.375 4.4375 
Q 8.5 10.296875 8.5 21.578125 
z
M 31.109375 56 
z
" id="DejaVuSans-117"/>
       <path d="M 11.71875 12.40625 
L 22.015625 12.40625 
L 22.015625 4 
L 14.015625 -11.625 
L 7.71875 -11.625 
L 11.71875 4 
z
" id="DejaVuSans-44"/>
       <path d="M 18.109375 8.203125 
L 18.109375 -20.796875 
L 9.078125 -20.796875 
L 9.078125 54.6875 
L 18.109375 54.6875 
L 18.109375 46.390625 
Q 20.953125 51.265625 25.265625 53.625 
Q 29.59375 56 35.59375 56 
Q 45.5625 56 51.78125 48.09375 
Q 58.015625 40.1875 58.015625 27.296875 
Q 58.015625 14.40625 51.78125 6.484375 
Q 45.5625 -1.421875 35.59375 -1.421875 
Q 29.59375 -1.421875 25.265625 0.953125 
Q 20.953125 3.328125 18.109375 8.203125 
z
M 48.6875 27.296875 
Q 48.6875 37.203125 44.609375 42.84375 
Q 40.53125 48.484375 33.40625 48.484375 
Q 26.265625 48.484375 22.1875 42.84375 
Q 18.109375 37.203125 18.109375 27.296875 
Q 18.109375 17.390625 22.1875 11.75 
Q 26.265625 6.109375 33.40625 6.109375 
Q 40.53125 6.109375 44.609375 11.75 
Q 48.6875 17.390625 48.6875 27.296875 
z
" id="DejaVuSans-112"/>
      </defs>
      <use xlink:href="#DejaVuSans-70"/>
      <use x="50.269531" xlink:href="#DejaVuSans-114"/>
      <use x="91.382812" xlink:href="#DejaVuSans-97"/>
      <use x="152.662109" xlink:href="#DejaVuSans-99"/>
      <use x="207.642578" xlink:href="#DejaVuSans-116"/>
      <use x="246.851562" xlink:href="#DejaVuSans-105"/>
      <use x="274.634766" xlink:href="#DejaVuSans-111"/>
      <use x="335.816406" xlink:href="#DejaVuSans-110"/>
      <use x="399.195312" xlink:href="#DejaVuSans-32"/>
      <use x="430.982422" xlink:href="#DejaVuSans-111"/>
      <use x="492.164062" xlink:href="#DejaVuSans-102"/>
      <use x="527.369141" xlink:href="#DejaVuSans-32"/>
      <use x="559.15625" xlink:href="#DejaVuSans-102"/>
      <use x="594.361328" xlink:href="#DejaVuSans-117"/>
      <use x="657.740234" xlink:href="#DejaVuSans-110"/>
      <use x="721.119141" xlink:href="#DejaVuSans-99"/>
      <use x="776.099609" xlink:href="#DejaVuSans-116"/>
      <use x="815.308594" xlink:href="#DejaVuSans-105"/>
      <use x="843.091797" xlink:href="#DejaVuSans-111"/>
      <use x="904.273438" xlink:href="#DejaVuSans-110"/>
      <use x="967.652344" xlink:href="#DejaVuSans-44"/>
      <use x="999.439453" xlink:href="#DejaVuSans-116"/>
      <use x="1038.648438" xlink:href="#DejaVuSans-97"/>
      <use x="1099.927734" xlink:href="#DejaVuSans-114"/>
      <use x="1139.291016" xlink:href="#DejaVuSans-103"/>
      <use x="1202.767578" xlink:href="#DejaVuSans-101"/>
      <use x="1264.291016" xlink:href="#DejaVuSans-116"/>
      <use x="1303.5" xlink:href="#DejaVuSans-32"/>
      <use x="1335.287109" xlink:href="#DejaVuSans-112"/>
      <use x="1398.763672" xlink:href="#DejaVuSans-97"/>
      <use x="1460.042969" xlink:href="#DejaVuSans-105"/>
      <use x="1487.826172" xlink:href="#DejaVuSans-114"/>
      <use x="1528.939453" xlink:href="#DejaVuSans-115"/>
     </g>
    </g>
   </g>
   <g id="line2d_29">
    <defs>
     <path d="M 0 1.5 
C 0.397805 1.5 0.77937 1.341951 1.06066 1.06066 
C 1.341951 0.77937 1.5 0.397805 1.5 0 
C 1.5 -0.397805 1.341951 -0.77937 1.06066 -1.06066 
C 0.77937 -1.341951 0.397805 -1.5 0 -1.5 
C -0.397805 -1.5 -0.77937 -1.341951 -1.06066 -1.06066 
C -1.341951 -0.77937 -1.5 -0.397805 -1.5 0 
C -1.5 0.397805 -1.341951 0.77937 -1.06066 1.06066 
C -0.77937 1.341951 -0.397805 1.5 0 1.5 
z
" id="me4f5149103" style="stroke:#000080;"/>
    </defs>
    <g>
     <use style="fill:#000080;stroke:#000080;" x="263.167677" xlink:href="#me4f5149103" y="30.334099"/>
     <use style="fill:#000080;stroke:#000080;" x="263.167677" xlink:href="#me4f5149103" y="30.334099"/>
    </g>
   </g>
   <g id="line2d_30">
    <path d="M 118.256582 298.944 
L 118.256582 298.288854 
L 122.615387 298.288854 
L 122.615387 297.633708 
L 123.907776 297.633708 
L 123.907776 296.978562 
L 124.292765 296.978562 
L 124.292765 296.323416 
L 126.540355 296.323416 
L 126.540355 295.66827 
L 128.077285 295.66827 
L 128.168991 294.357977 
L 129.46138 294.357977 
L 129.46138 293.702831 
L 129.79784 293.702831 
L 129.79784 293.047685 
L 130.425122 293.047685 
L 130.425122 292.392539 
L 131.465029 292.392539 
L 131.465029 291.737393 
L 132.986651 291.737393 
L 132.986651 291.082247 
L 133.420657 291.082247 
L 133.488207 289.771955 
L 135.582166 289.771955 
L 135.641855 288.461662 
L 135.917737 288.461662 
L 135.917737 287.806516 
L 136.399782 287.806516 
L 136.399782 287.15137 
L 136.58893 287.15137 
L 136.58893 286.496224 
L 137.451437 286.496224 
L 137.451437 285.841078 
L 138.358484 285.841078 
L 138.358484 285.185932 
L 138.594838 285.185932 
L 138.594838 284.530786 
L 140.11924 284.530786 
L 140.149942 283.220494 
L 141.307054 283.220494 
L 141.307054 282.565348 
L 141.45 282.565348 
L 141.45 281.910201 
L 141.591783 281.910201 
L 141.591783 281.255055 
L 143.337167 281.255055 
L 143.42637 279.944763 
L 143.553018 279.944763 
L 143.553018 279.289617 
L 143.93988 279.289617 
L 143.93988 278.634471 
L 144.148442 278.634471 
L 144.148442 277.979325 
L 144.641416 277.979325 
L 144.641416 277.324179 
L 144.876926 277.324179 
L 144.876926 276.669033 
L 145.039911 276.669033 
L 145.039911 276.013887 
L 145.224334 276.013887 
L 145.224334 275.35874 
L 145.755062 275.35874 
L 145.799493 274.048448 
L 146.019967 274.048448 
L 146.019967 273.393302 
L 146.237689 273.393302 
L 146.237689 272.738156 
L 146.420639 272.738156 
L 146.420639 272.08301 
L 146.538004 272.08301 
L 146.538004 271.427864 
L 146.791364 271.427864 
L 146.822776 270.117572 
L 147.48985 270.117572 
L 147.48985 269.462426 
L 147.976374 269.462426 
L 147.976374 268.807279 
L 148.229122 268.807279 
L 148.229122 268.152133 
L 148.601505 268.152133 
L 148.601505 267.496987 
L 149.44067 267.496987 
L 149.44067 266.841841 
L 149.646525 266.841841 
L 149.673197 265.531549 
L 150.085825 265.531549 
L 150.085825 264.876403 
L 150.774811 264.876403 
L 150.791483 263.566111 
L 151.006785 263.566111 
L 151.006785 262.910965 
L 151.779487 262.910965 
L 151.779487 262.255818 
L 152.052897 262.255818 
L 152.052897 261.600672 
L 152.207228 261.600672 
L 152.207228 260.945526 
L 152.337344 260.945526 
L 152.383036 259.635234 
L 152.833495 259.635234 
L 152.833495 258.980088 
L 153.402218 258.980088 
L 153.502361 257.669796 
L 153.679772 257.669796 
L 153.736164 256.359504 
L 153.834414 256.359504 
L 153.834414 255.704357 
L 154.015422 255.704357 
L 154.015422 255.049211 
L 154.132765 255.049211 
L 154.187714 253.738919 
L 154.317527 253.738919 
L 154.385464 252.428627 
L 155.425155 252.428627 
L 155.425155 251.773481 
L 156.628341 251.773481 
L 156.628341 251.118335 
L 157.306589 251.118335 
L 157.306589 250.463189 
L 157.647321 250.463189 
L 157.681031 249.152896 
L 157.998067 249.152896 
L 157.998067 248.49775 
L 158.51933 248.49775 
L 158.51933 247.842604 
L 159.807898 247.842604 
L 159.807898 247.187458 
L 159.961244 247.187458 
L 159.961244 246.532312 
L 160.379729 246.532312 
L 160.379729 245.877166 
L 160.689494 245.877166 
L 160.689494 244.566874 
L 161.054091 244.566874 
L 161.054091 243.911728 
L 161.483584 243.911728 
L 161.483584 243.256582 
L 162.496175 243.256582 
L 162.496175 242.601435 
L 162.821048 242.601435 
L 162.90445 241.291143 
L 163.709295 241.291143 
L 163.713267 239.980851 
L 164.082658 239.980851 
L 164.183463 238.670559 
L 164.287532 238.670559 
L 164.287532 238.015413 
L 164.873242 238.015413 
L 164.980675 236.705121 
L 165.131442 236.705121 
L 165.131442 236.049974 
L 165.251852 236.049974 
L 165.360599 234.739682 
L 165.375047 234.739682 
L 165.375047 234.084536 
L 165.746566 234.084536 
L 165.760698 232.774244 
L 166.442913 232.774244 
L 166.442913 232.119098 
L 166.574863 232.119098 
L 166.574863 231.463952 
L 166.792585 231.463952 
L 166.792585 230.808806 
L 166.941739 230.808806 
L 166.941739 230.15366 
L 167.135383 230.15366 
L 167.135383 229.498513 
L 167.801403 229.498513 
L 167.801403 228.843367 
L 168.081883 228.843367 
L 168.081883 228.188221 
L 168.832206 228.188221 
L 168.832206 227.533075 
L 169.204297 227.533075 
L 169.204297 226.877929 
L 169.914348 226.877929 
L 169.98656 225.567637 
L 170.041906 225.567637 
L 170.152072 224.257345 
L 170.275183 224.257345 
L 170.378471 222.291906 
L 170.429886 222.291906 
L 170.429886 221.63676 
L 171.982619 221.63676 
L 171.982619 220.981614 
L 172.393031 220.981614 
L 172.498943 219.671322 
L 172.960734 219.671322 
L 172.960734 219.016176 
L 173.645883 219.016176 
L 173.645883 218.36103 
L 175.240277 218.36103 
L 175.240277 217.705884 
L 175.421842 217.705884 
L 175.446179 216.395591 
L 175.58546 216.395591 
L 175.687696 215.085299 
L 175.941681 215.085299 
L 175.941681 214.430153 
L 176.866214 214.430153 
L 176.866214 213.775007 
L 177.085275 213.775007 
L 177.085275 213.119861 
L 177.428701 213.119861 
L 177.428701 212.464715 
L 178.061053 212.464715 
L 178.161939 211.154423 
L 178.877244 211.154423 
L 178.877244 210.499277 
L 179.06764 210.499277 
L 179.06764 209.84413 
L 179.350203 209.84413 
L 179.350203 209.188984 
L 180.283885 209.188984 
L 180.337551 207.878692 
L 180.701167 207.878692 
L 180.701167 207.223546 
L 181.502625 207.223546 
L 181.525523 205.913254 
L 181.638141 205.913254 
L 181.638141 205.258108 
L 182.894767 205.258108 
L 182.896089 203.947816 
L 183.207934 203.947816 
L 183.207934 203.292669 
L 183.409353 203.292669 
L 183.435008 201.982377 
L 183.688245 201.982377 
L 183.688245 201.327231 
L 183.837939 201.327231 
L 183.837939 200.672085 
L 184.896146 200.672085 
L 184.896146 200.016939 
L 185.020655 200.016939 
L 185.079078 198.706647 
L 185.512259 198.706647 
L 185.597393 197.396355 
L 186.023567 197.396355 
L 186.023567 196.741208 
L 186.442811 196.741208 
L 186.442811 196.086062 
L 187.257372 196.086062 
L 187.257372 195.430916 
L 187.680484 195.430916 
L 187.680484 194.77577 
L 188.182646 194.77577 
L 188.182646 194.120624 
L 189.270767 194.120624 
L 189.281771 192.810332 
L 189.754732 192.810332 
L 189.754732 192.155186 
L 189.960498 192.155186 
L 190.030892 190.844894 
L 190.101003 190.844894 
L 190.157762 189.534601 
L 190.755053 189.534601 
L 190.755053 188.879455 
L 191.014272 188.879455 
L 191.014272 188.224309 
L 191.22793 188.224309 
L 191.22793 187.569163 
L 191.404947 187.569163 
L 191.404947 186.914017 
L 191.678737 186.914017 
L 191.678737 186.258871 
L 192.581762 186.258871 
L 192.581762 185.603725 
L 193.282163 185.603725 
L 193.282163 184.948579 
L 193.770123 184.948579 
L 193.770123 184.293433 
L 194.499482 184.293433 
L 194.499482 183.638286 
L 194.739106 183.638286 
L 194.806016 181.672848 
L 195.329654 181.672848 
L 195.378191 180.362556 
L 195.674236 180.362556 
L 195.674236 179.70741 
L 195.8858 179.70741 
L 195.934693 178.397118 
L 196.179594 178.397118 
L 196.179594 177.741972 
L 196.84329 177.741972 
L 196.84329 177.086825 
L 197.407452 177.086825 
L 197.407452 176.431679 
L 197.65308 176.431679 
L 197.65308 175.776533 
L 197.792624 175.776533 
L 197.792624 175.121387 
L 197.910393 175.121387 
L 197.910393 174.466241 
L 198.445369 174.466241 
L 198.488677 173.155949 
L 199.311869 173.155949 
L 199.311869 172.500803 
L 200.066366 172.500803 
L 200.177145 170.535364 
L 200.438244 170.535364 
L 200.438244 169.880218 
L 200.660679 169.880218 
L 200.660679 169.225072 
L 200.784356 169.225072 
L 200.875598 167.91478 
L 201.55577 167.91478 
L 201.55577 167.259634 
L 201.823975 167.259634 
L 201.823975 166.604488 
L 202.008764 166.604488 
L 202.031726 165.294196 
L 202.122393 165.294196 
L 202.122393 164.63905 
L 202.24575 164.63905 
L 202.24575 163.983903 
L 202.584186 163.983903 
L 202.693714 162.018465 
L 203.457187 162.018465 
L 203.457187 161.363319 
L 204.100676 161.363319 
L 204.100676 160.708173 
L 204.506254 160.708173 
L 204.506254 160.053027 
L 204.95755 160.053027 
L 205.024211 158.742735 
L 205.086544 158.742735 
L 205.086544 158.087589 
L 205.60182 158.087589 
L 205.60182 157.432442 
L 205.84074 157.432442 
L 205.895631 156.12215 
L 206.274415 156.12215 
L 206.304144 154.811858 
L 206.498208 154.811858 
L 206.53983 153.501566 
L 206.797909 153.501566 
L 206.815359 152.191274 
L 207.552243 152.191274 
L 207.552243 151.536128 
L 207.821531 151.536128 
L 207.821531 150.880981 
L 208.127527 150.880981 
L 208.139967 149.570689 
L 208.653073 149.570689 
L 208.656695 148.260397 
L 210.16996 148.260397 
L 210.16996 147.605251 
L 210.328354 147.605251 
L 210.374635 145.639813 
L 210.48505 145.639813 
L 210.48505 144.984667 
L 210.68232 144.984667 
L 210.782529 143.019228 
L 211.930162 143.019228 
L 211.930162 142.364082 
L 212.084076 142.364082 
L 212.084076 141.708936 
L 212.19604 141.708936 
L 212.19604 141.05379 
L 212.598126 141.05379 
L 212.608475 139.088352 
L 212.79753 139.088352 
L 212.79753 138.433206 
L 213.501922 138.433206 
L 213.501922 137.778059 
L 213.636275 137.778059 
L 213.636275 137.122913 
L 213.764646 137.122913 
L 213.795693 135.812621 
L 213.971256 135.812621 
L 214.041211 133.847183 
L 214.294464 133.847183 
L 214.343979 131.881745 
L 214.657633 131.881745 
L 214.657633 131.226598 
L 214.893923 131.226598 
L 214.910378 129.916306 
L 215.04962 129.916306 
L 215.064883 127.950868 
L 215.430942 127.950868 
L 215.51852 125.98543 
L 215.576662 125.98543 
L 215.586807 124.675137 
L 216.067141 124.675137 
L 216.075822 122.709699 
L 216.284225 122.709699 
L 216.340456 121.399407 
L 216.415472 121.399407 
L 216.415472 120.744261 
L 216.991726 120.744261 
L 217.052999 118.778823 
L 217.416367 118.778823 
L 217.51108 117.46853 
L 217.685313 117.46853 
L 217.793957 115.503092 
L 218.016472 115.503092 
L 218.016472 114.847946 
L 218.472424 114.847946 
L 218.472424 114.1928 
L 218.90318 114.1928 
L 218.90318 113.537654 
L 219.026679 113.537654 
L 219.125316 111.572215 
L 219.148317 111.572215 
L 219.223728 110.261923 
L 219.366229 110.261923 
L 219.414015 108.951631 
L 219.65116 108.951631 
L 219.65116 108.296485 
L 219.892573 108.296485 
L 219.892573 107.641339 
L 220.02077 107.641339 
L 220.02077 106.331047 
L 220.15131 106.331047 
L 220.261809 105.020754 
L 220.308443 105.020754 
L 220.374541 103.710462 
L 220.569818 103.710462 
L 220.569818 103.055316 
L 221.125598 103.055316 
L 221.125598 102.40017 
L 221.42712 102.40017 
L 221.42712 101.745024 
L 221.575229 101.745024 
L 221.676231 99.12444 
L 221.74405 99.12444 
L 221.74405 98.469293 
L 222.056862 98.469293 
L 222.123498 97.159001 
L 222.354809 97.159001 
L 222.419084 94.538417 
L 223.027572 94.538417 
L 223.070545 92.572979 
L 223.148551 92.572979 
L 223.148551 91.917832 
L 223.40772 91.917832 
L 223.40772 91.262686 
L 223.553738 91.262686 
L 223.636394 89.952394 
L 223.773543 89.952394 
L 223.813326 87.986956 
L 223.905719 87.986956 
L 223.972186 86.021518 
L 224.12377 86.021518 
L 224.182228 82.745787 
L 224.551496 82.745787 
L 224.610595 81.435495 
L 224.9467 81.435495 
L 225.051929 78.81491 
L 225.207189 78.81491 
L 225.244652 76.849472 
L 225.648903 76.849472 
L 225.648903 76.194326 
L 225.788228 76.194326 
L 225.788228 75.53918 
L 225.974144 75.53918 
L 226.035418 74.228888 
L 226.09348 74.228888 
L 226.09348 73.573742 
L 226.67112 73.573742 
L 226.67112 72.918596 
L 226.824173 72.918596 
L 226.909898 71.608303 
L 226.945783 71.608303 
L 226.945783 70.953157 
L 227.06256 70.953157 
L 227.140014 68.332573 
L 227.195977 68.332573 
L 227.225452 67.022281 
L 227.558794 67.022281 
L 227.558794 66.367135 
L 227.674187 66.367135 
L 227.714708 65.056842 
L 228.172289 65.056842 
L 228.172289 64.401696 
L 228.401421 64.401696 
L 228.461049 63.091404 
L 228.603175 63.091404 
L 228.603175 62.436258 
L 228.776743 62.436258 
L 228.821434 60.47082 
L 228.960947 60.47082 
L 228.979778 58.505381 
L 229.522336 58.505381 
L 229.522336 57.850235 
L 229.819818 57.850235 
L 229.819818 57.195089 
L 230.595617 57.195089 
L 230.595617 56.539943 
L 230.734538 56.539943 
L 230.737942 55.229651 
L 231.176588 55.229651 
L 231.225305 53.264213 
L 231.381062 53.264213 
L 231.437388 51.95392 
L 231.515923 51.95392 
L 231.515923 51.298774 
L 231.671456 51.298774 
L 231.761788 49.988482 
L 232.171565 49.988482 
L 232.195685 47.367898 
L 232.2909 47.367898 
L 232.308559 46.057605 
L 232.557605 46.057605 
L 232.557605 44.747313 
L 233.40294 44.747313 
L 233.482864 42.781875 
L 233.71537 42.781875 
L 233.735012 41.471583 
L 234.391399 41.471583 
L 234.442659 40.161291 
L 234.892725 40.161291 
L 234.892725 39.506144 
L 235.789143 39.506144 
L 235.789143 38.850998 
L 236.512863 38.850998 
L 236.512863 38.195852 
L 245.298234 38.195852 
L 245.298234 37.540706 
L 246.37976 37.540706 
L 246.435465 35.575268 
L 247.342021 35.575268 
L 247.342021 34.920122 
L 247.952897 34.920122 
L 247.952897 34.264976 
L 250.648181 34.264976 
L 250.648181 33.60983 
L 252.473132 33.60983 
L 252.473132 32.954683 
L 253.298668 32.954683 
L 253.298668 32.299537 
L 254.618831 32.299537 
L 254.618831 31.644391 
L 262.484061 31.644391 
L 262.484061 30.989245 
L 263.167677 30.989245 
L 263.167677 30.334099 
L 338.688 30.334099 
L 338.688 30.334099 
" style="fill:none;stroke:#000080;stroke-linecap:square;stroke-width:1.5;"/>
   </g>
   <g id="line2d_31">
    <defs>
     <path d="M 0 6 
C 1.591219 6 3.117479 5.367802 4.242641 4.242641 
C 5.367802 3.117479 6 1.591219 6 0 
C 6 -1.591219 5.367802 -3.117479 4.242641 -4.242641 
C 3.117479 -5.367802 1.591219 -6 0 -6 
C -1.591219 -6 -3.117479 -5.367802 -4.242641 -4.242641 
C -5.367802 -3.117479 -6 -1.591219 -6 0 
C -6 1.591219 -5.367802 3.117479 -4.242641 4.242641 
C -3.117479 5.367802 -1.591219 6 0 6 
z
" id="me9ec400958" style="stroke:#000080;stroke-width:1.5;"/>
    </defs>
    <g>
     <use style="fill-opacity:0;stroke:#000080;stroke-width:1.5;" x="177.428701" xlink:href="#me9ec400958" y="212.464715"/>
     <use style="fill-opacity:0;stroke:#000080;stroke-width:1.5;" x="214.893923" xlink:href="#me9ec400958" y="130.571452"/>
     <use style="fill-opacity:0;stroke:#000080;stroke-width:1.5;" x="263.167677" xlink:href="#me9ec400958" y="30.989245"/>
     <use style="fill-opacity:0;stroke:#000080;stroke-width:1.5;" x="263.167677" xlink:href="#me9ec400958" y="30.334099"/>
     <use style="fill-opacity:0;stroke:#000080;stroke-width:1.5;" x="338.688" xlink:href="#me9ec400958" y="30.334099"/>
    </g>
   </g>
   <g id="line2d_32">
    <path style="fill:none;stroke:#000080;stroke-linecap:square;stroke-width:1.5;"/>
    <g/>
   </g>
   <g id="line2d_33">
    <path clip-path="url(#p2658ca2493)" d="M 247.342021 34.920122 
" style="fill:none;stroke:#000080;stroke-linecap:square;stroke-width:1.5;"/>
    <defs>
     <path d="M -12 12 
L 12 -12 
M -12 -12 
L 12 12 
" id="m4bbd64d2d1" style="stroke:#000080;"/>
    </defs>
    <g clip-path="url(#p2658ca2493)">
     <use style="fill:#000080;stroke:#000080;" x="247.342021" xlink:href="#m4bbd64d2d1" y="34.920122"/>
    </g>
   </g>
   <g id="line2d_34">
    <defs>
     <path d="M 0 1.5 
C 0.397805 1.5 0.77937 1.341951 1.06066 1.06066 
C 1.341951 0.77937 1.5 0.397805 1.5 0 
C 1.5 -0.397805 1.341951 -0.77937 1.06066 -1.06066 
C 0.77937 -1.341951 0.397805 -1.5 0 -1.5 
C -0.397805 -1.5 -0.77937 -1.341951 -1.06066 -1.06066 
C -1.341951 -0.77937 -1.5 -0.397805 -1.5 0 
C -1.5 0.397805 -1.341951 0.77937 -1.06066 1.06066 
C -0.77937 1.341951 -0.397805 1.5 0 1.5 
z
" id="m08f793e330" style="stroke:#ff00ff;"/>
    </defs>
    <g>
     <use style="fill:#ff00ff;stroke:#ff00ff;" x="258.147939" xlink:href="#m08f793e330" y="30.334099"/>
     <use style="fill:#ff00ff;stroke:#ff00ff;" x="258.147939" xlink:href="#m08f793e330" y="30.334099"/>
    </g>
   </g>
   <g id="line2d_35">
    <path d="M 113.311233 298.944 
L 113.311233 298.288854 
L 123.633136 298.288854 
L 123.633136 297.633708 
L 124.292765 297.633708 
L 124.292765 296.978562 
L 126.065325 296.978562 
L 126.065325 296.323416 
L 126.839037 296.323416 
L 126.839037 295.66827 
L 127.892415 295.66827 
L 127.892415 295.013123 
L 128.679738 295.013123 
L 128.679738 294.357977 
L 129.347769 294.357977 
L 129.347769 293.702831 
L 129.658437 293.702831 
L 129.686407 292.392539 
L 130.290663 292.392539 
L 130.290663 291.737393 
L 130.61164 291.737393 
L 130.61164 291.082247 
L 130.743656 291.082247 
L 130.743656 290.427101 
L 131.082294 290.427101 
L 131.133813 289.116809 
L 131.814826 289.116809 
L 131.839545 287.806516 
L 132.230358 287.806516 
L 132.230358 287.15137 
L 132.683351 287.15137 
L 132.683351 286.496224 
L 132.823992 286.496224 
L 132.823992 285.841078 
L 134.343353 285.841078 
L 134.428735 284.530786 
L 135.50226 284.530786 
L 135.50226 283.87564 
L 135.621981 283.87564 
L 135.621981 283.220494 
L 136.073445 283.220494 
L 136.073445 282.565348 
L 136.757427 282.565348 
L 136.757427 281.910201 
L 137.717962 281.910201 
L 137.717962 281.255055 
L 138.358484 281.255055 
L 138.460171 279.944763 
L 138.561269 279.944763 
L 138.561269 279.289617 
L 139.652088 279.289617 
L 139.730821 277.979325 
L 139.933878 277.979325 
L 139.9494 276.669033 
L 141.148448 276.669033 
L 141.148448 276.013887 
L 141.71841 276.013887 
L 141.71841 275.35874 
L 141.955115 275.35874 
L 141.955115 274.703594 
L 142.486301 274.703594 
L 142.486301 274.048448 
L 143.001786 274.048448 
L 143.027814 272.08301 
L 143.337167 272.08301 
L 143.337167 271.427864 
L 143.703791 271.427864 
L 143.703791 270.772718 
L 143.828447 270.772718 
L 143.828447 270.117572 
L 144.426702 270.117572 
L 144.426702 269.462426 
L 145.074639 269.462426 
L 145.074639 268.807279 
L 145.519922 268.807279 
L 145.519922 268.152133 
L 146.041862 268.152133 
L 146.041862 267.496987 
L 146.248504 267.496987 
L 146.302479 266.186695 
L 146.548634 266.186695 
L 146.548634 265.531549 
L 146.843687 265.531549 
L 146.843687 264.876403 
L 147.061745 264.876403 
L 147.164632 263.566111 
L 147.19538 263.566111 
L 147.266916 262.255818 
L 147.690073 262.255818 
L 147.71991 260.945526 
L 148.103206 260.945526 
L 148.103206 259.635234 
L 148.40198 259.635234 
L 148.411533 258.324942 
L 149.131841 258.324942 
L 149.131841 257.669796 
L 149.752971 257.669796 
L 149.788308 256.359504 
L 149.902665 256.359504 
L 149.902665 255.704357 
L 150.429467 255.704357 
L 150.429467 255.049211 
L 150.590355 255.049211 
L 150.590355 254.394065 
L 151.113448 254.394065 
L 151.113448 253.738919 
L 151.581536 253.738919 
L 151.660987 252.428627 
L 151.944047 252.428627 
L 151.944047 251.773481 
L 152.076134 251.773481 
L 152.091608 250.463189 
L 152.245598 250.463189 
L 152.245598 249.808043 
L 152.474064 249.808043 
L 152.542024 248.49775 
L 152.788969 248.49775 
L 152.788969 247.842604 
L 153.15659 247.842604 
L 153.229193 246.532312 
L 153.658577 246.532312 
L 153.67271 245.22202 
L 154.310719 245.22202 
L 154.310719 244.566874 
L 154.500352 244.566874 
L 154.520548 243.256582 
L 154.93935 243.256582 
L 154.93935 242.601435 
L 155.174226 242.601435 
L 155.174226 241.946289 
L 155.341913 241.946289 
L 155.341913 241.291143 
L 156.236431 241.291143 
L 156.236431 240.635997 
L 156.412372 240.635997 
L 156.472632 239.325705 
L 156.947361 239.325705 
L 156.947361 238.670559 
L 157.237636 238.670559 
L 157.237636 237.360267 
L 157.590993 237.360267 
L 157.590993 236.705121 
L 158.249784 236.705121 
L 158.249784 236.049974 
L 158.811096 236.049974 
L 158.811096 235.394828 
L 159.025463 235.394828 
L 159.025463 234.739682 
L 159.349804 234.739682 
L 159.349804 234.084536 
L 159.527421 234.084536 
L 159.527421 233.42939 
L 159.9218 233.42939 
L 159.9218 232.774244 
L 160.059466 232.774244 
L 160.059466 232.119098 
L 160.191194 232.119098 
L 160.191194 231.463952 
L 160.632719 231.463952 
L 160.632719 230.808806 
L 160.750792 230.808806 
L 160.844678 229.498513 
L 161.192316 229.498513 
L 161.192316 228.843367 
L 161.470039 228.843367 
L 161.470039 228.188221 
L 162.121678 228.188221 
L 162.126028 226.877929 
L 162.598085 226.877929 
L 162.653039 225.567637 
L 162.858629 225.567637 
L 162.858629 224.912491 
L 163.489428 224.912491 
L 163.489428 224.257345 
L 163.673506 224.257345 
L 163.748975 222.291906 
L 163.855662 222.291906 
L 163.855662 221.63676 
L 164.973287 221.63676 
L 165.065412 220.326468 
L 165.270024 220.326468 
L 165.270024 219.671322 
L 165.396698 219.671322 
L 165.396698 219.016176 
L 165.586783 219.016176 
L 165.586783 218.36103 
L 166.040966 218.36103 
L 166.124175 217.050738 
L 166.442913 217.050738 
L 166.442913 216.395591 
L 166.689087 216.395591 
L 166.689087 215.740445 
L 167.294587 215.740445 
L 167.294587 215.085299 
L 168.004423 215.085299 
L 168.097334 213.775007 
L 168.266395 213.775007 
L 168.266395 213.119861 
L 168.838127 213.119861 
L 168.838127 212.464715 
L 169.061673 212.464715 
L 169.061673 211.809569 
L 169.582803 211.809569 
L 169.582803 211.154423 
L 170.410961 211.154423 
L 170.486538 209.188984 
L 171.217072 209.188984 
L 171.255771 207.878692 
L 171.726136 207.878692 
L 171.726136 207.223546 
L 172.105778 207.223546 
L 172.105778 206.5684 
L 173.021392 206.5684 
L 173.021392 205.913254 
L 173.172121 205.913254 
L 173.172121 205.258108 
L 173.851395 205.258108 
L 173.851395 204.602962 
L 175.079583 204.602962 
L 175.129186 203.292669 
L 175.415753 203.292669 
L 175.415753 202.637523 
L 175.641664 202.637523 
L 175.641664 201.982377 
L 176.045773 201.982377 
L 176.1473 200.672085 
L 176.188135 200.672085 
L 176.188135 200.016939 
L 177.248698 200.016939 
L 177.248698 199.361793 
L 177.529705 199.361793 
L 177.529705 198.706647 
L 177.788545 198.706647 
L 177.788545 198.051501 
L 177.99989 198.051501 
L 177.99989 197.396355 
L 178.966907 197.396355 
L 179.04787 196.086062 
L 179.314523 196.086062 
L 179.337237 194.77577 
L 179.685569 194.77577 
L 179.685569 194.120624 
L 180.233133 194.120624 
L 180.233133 193.465478 
L 180.392579 193.465478 
L 180.450477 192.155186 
L 181.116019 192.155186 
L 181.116019 191.50004 
L 181.58121 191.50004 
L 181.58121 190.844894 
L 181.820486 190.844894 
L 181.820486 190.189747 
L 182.281194 190.189747 
L 182.281194 189.534601 
L 184.144607 189.534601 
L 184.144607 188.879455 
L 184.873735 188.879455 
L 184.930298 186.914017 
L 185.653919 186.914017 
L 185.653919 186.258871 
L 185.92272 186.258871 
L 186.029091 184.948579 
L 187.117828 184.948579 
L 187.117828 184.293433 
L 188.58796 184.293433 
L 188.58796 183.638286 
L 189.782368 183.638286 
L 189.782368 182.98314 
L 190.413062 182.98314 
L 190.519269 181.672848 
L 191.501263 181.672848 
L 191.501263 181.017702 
L 191.688322 181.017702 
L 191.688322 180.362556 
L 192.370337 180.362556 
L 192.370337 179.70741 
L 192.628736 179.70741 
L 192.628736 179.052264 
L 192.809385 179.052264 
L 192.809385 178.397118 
L 192.995593 178.397118 
L 192.995593 177.741972 
L 193.688433 177.741972 
L 193.715469 176.431679 
L 194.042947 176.431679 
L 194.042947 175.776533 
L 194.501521 175.776533 
L 194.501521 175.121387 
L 194.650391 175.121387 
L 194.650391 174.466241 
L 195.245203 174.466241 
L 195.264728 173.155949 
L 195.483857 173.155949 
L 195.483857 172.500803 
L 195.657708 172.500803 
L 195.657708 171.845657 
L 196.273776 171.845657 
L 196.273776 171.190511 
L 196.621442 171.190511 
L 196.621442 170.535364 
L 196.751544 170.535364 
L 196.751544 169.880218 
L 197.709145 169.880218 
L 197.709145 169.225072 
L 198.039582 169.225072 
L 198.039582 168.569926 
L 198.154047 168.569926 
L 198.154047 167.91478 
L 198.272693 167.91478 
L 198.272693 167.259634 
L 198.416618 167.259634 
L 198.459997 165.949342 
L 198.925443 165.949342 
L 198.925443 165.294196 
L 199.535301 165.294196 
L 199.535301 164.63905 
L 199.826657 164.63905 
L 199.826657 163.983903 
L 199.989144 163.983903 
L 199.989144 163.328757 
L 200.259892 163.328757 
L 200.259892 162.673611 
L 200.541407 162.673611 
L 200.541407 162.018465 
L 201.560758 162.018465 
L 201.560758 161.363319 
L 201.94369 161.363319 
L 202.046282 159.397881 
L 202.15178 159.397881 
L 202.188992 158.087589 
L 202.512645 158.087589 
L 202.512645 157.432442 
L 202.820702 157.432442 
L 202.820702 156.777296 
L 203.291304 156.777296 
L 203.291304 156.12215 
L 203.714714 156.12215 
L 203.808621 154.811858 
L 203.868299 154.811858 
L 203.868299 154.156712 
L 204.353576 154.156712 
L 204.357438 152.84642 
L 205.291996 152.84642 
L 205.371609 150.880981 
L 205.52867 150.880981 
L 205.529393 149.570689 
L 205.647428 149.570689 
L 205.647428 148.915543 
L 206.626168 148.915543 
L 206.626168 148.260397 
L 207.011477 148.260397 
L 207.011477 147.605251 
L 208.02894 147.605251 
L 208.02894 146.950105 
L 208.394577 146.950105 
L 208.457272 145.639813 
L 208.594714 145.639813 
L 208.594714 144.984667 
L 209.128027 144.984667 
L 209.128027 144.32952 
L 209.895237 144.32952 
L 209.895237 143.674374 
L 210.36506 143.674374 
L 210.36506 143.019228 
L 210.607728 143.019228 
L 210.607728 142.364082 
L 210.726332 142.364082 
L 210.726332 141.708936 
L 211.355704 141.708936 
L 211.355704 141.05379 
L 211.469346 141.05379 
L 211.480387 139.743498 
L 211.692656 139.743498 
L 211.775129 138.433206 
L 213.0095 138.433206 
L 213.0095 137.778059 
L 213.121303 137.778059 
L 213.161676 136.467767 
L 213.335399 136.467767 
L 213.381725 135.157475 
L 213.52705 135.157475 
L 213.625156 133.847183 
L 213.697866 133.847183 
L 213.796592 131.881745 
L 214.36988 131.881745 
L 214.36988 131.226598 
L 214.618439 131.226598 
L 214.710396 128.606014 
L 215.171564 128.606014 
L 215.171564 127.950868 
L 215.481624 127.950868 
L 215.481624 127.295722 
L 215.603634 127.295722 
L 215.680065 125.98543 
L 216.204138 125.98543 
L 216.305843 124.675137 
L 216.317713 124.675137 
L 216.3457 123.364845 
L 216.59252 123.364845 
L 216.626759 121.399407 
L 216.804713 121.399407 
L 216.804713 120.744261 
L 216.968693 120.744261 
L 216.968693 120.089115 
L 217.166938 120.089115 
L 217.166938 119.433969 
L 217.463423 119.433969 
L 217.463423 118.778823 
L 217.694303 118.778823 
L 217.694303 118.123676 
L 217.960799 118.123676 
L 218.059298 116.813384 
L 218.123955 116.813384 
L 218.137629 115.503092 
L 218.302445 115.503092 
L 218.302445 114.847946 
L 218.550466 114.847946 
L 218.568938 113.537654 
L 218.832768 113.537654 
L 218.933676 112.227362 
L 219.002516 112.227362 
L 219.03933 110.917069 
L 219.827006 110.917069 
L 219.827006 110.261923 
L 219.965628 110.261923 
L 220.012588 108.951631 
L 220.243803 108.951631 
L 220.248927 107.641339 
L 220.372537 107.641339 
L 220.372537 106.986193 
L 220.490683 106.986193 
L 220.490683 106.331047 
L 220.694814 106.331047 
L 220.694814 105.675901 
L 220.888054 105.675901 
L 220.941105 103.055316 
L 221.03916 103.055316 
L 221.069847 101.745024 
L 221.483912 101.745024 
L 221.563427 100.434732 
L 221.644158 100.434732 
L 221.644158 99.779586 
L 222.2021 99.779586 
L 222.2021 99.12444 
L 222.49432 99.12444 
L 222.49432 98.469293 
L 222.684108 98.469293 
L 222.772055 97.159001 
L 222.817939 97.159001 
L 222.875726 95.848709 
L 222.962448 95.848709 
L 223.027175 94.538417 
L 223.114993 94.538417 
L 223.14934 93.228125 
L 223.39541 93.228125 
L 223.39541 92.572979 
L 223.644957 92.572979 
L 223.725911 91.262686 
L 223.757553 91.262686 
L 223.757553 90.60754 
L 223.933895 90.60754 
L 223.933895 89.952394 
L 224.158546 89.952394 
L 224.203651 88.642102 
L 224.790888 88.642102 
L 224.832001 87.33181 
L 224.938515 87.33181 
L 224.954881 86.021518 
L 225.262946 86.021518 
L 225.317248 84.711225 
L 225.4658 84.711225 
L 225.4658 84.056079 
L 225.597796 84.056079 
L 225.597796 83.400933 
L 225.822322 83.400933 
L 225.822322 82.745787 
L 225.960722 82.745787 
L 226.028843 81.435495 
L 226.382016 81.435495 
L 226.382016 80.780349 
L 226.53491 80.780349 
L 226.53491 80.125203 
L 226.798598 80.125203 
L 226.798598 79.470057 
L 227.062245 79.470057 
L 227.062245 78.81491 
L 227.194622 78.81491 
L 227.194622 78.159764 
L 227.346476 78.159764 
L 227.448181 76.194326 
L 227.54194 76.194326 
L 227.54194 75.53918 
L 228.195929 75.53918 
L 228.195929 74.884034 
L 228.550399 74.884034 
L 228.550399 74.228888 
L 228.70041 74.228888 
L 228.737473 72.918596 
L 229.028363 72.918596 
L 229.083644 71.608303 
L 229.257706 71.608303 
L 229.333027 70.298011 
L 229.384225 70.298011 
L 229.384225 69.642865 
L 229.603245 69.642865 
L 229.666329 68.332573 
L 229.765567 68.332573 
L 229.765567 67.677427 
L 230.012371 67.677427 
L 230.089278 65.711988 
L 230.39781 65.711988 
L 230.473471 64.401696 
L 230.514971 64.401696 
L 230.514971 63.74655 
L 230.676405 63.74655 
L 230.767865 62.436258 
L 230.830012 62.436258 
L 230.872868 61.125966 
L 230.978418 61.125966 
L 230.978418 60.47082 
L 231.107339 60.47082 
L 231.107339 59.815674 
L 231.502085 59.815674 
L 231.502329 58.505381 
L 231.858996 58.505381 
L 231.858996 57.850235 
L 232.149608 57.850235 
L 232.213753 55.884797 
L 232.264495 55.884797 
L 232.338391 54.574505 
L 232.892478 54.574505 
L 232.892478 53.919359 
L 233.047735 53.919359 
L 233.080719 51.95392 
L 233.245301 51.95392 
L 233.245301 51.298774 
L 233.534833 51.298774 
L 233.534833 50.643628 
L 233.817355 50.643628 
L 233.817355 49.988482 
L 233.976078 49.988482 
L 233.976078 49.333336 
L 234.161569 49.333336 
L 234.239421 48.023044 
L 234.685197 48.023044 
L 234.732423 46.712752 
L 234.850637 46.712752 
L 234.850637 46.057605 
L 236.212505 46.057605 
L 236.244549 44.747313 
L 242.257089 44.747313 
L 242.257089 44.092167 
L 243.245671 44.092167 
L 243.245671 43.437021 
L 243.527501 43.437021 
L 243.527501 42.781875 
L 245.453317 42.781875 
L 245.453317 42.126729 
L 245.806443 42.126729 
L 245.806443 41.471583 
L 246.126351 41.471583 
L 246.126351 40.816437 
L 247.096434 40.816437 
L 247.151194 39.506144 
L 247.597648 39.506144 
L 247.597648 38.850998 
L 247.987294 38.850998 
L 247.987294 38.195852 
L 248.211786 38.195852 
L 248.211786 37.540706 
L 248.414538 37.540706 
L 248.514476 34.920122 
L 252.22436 34.920122 
L 252.22436 34.264976 
L 253.150143 34.264976 
L 253.150143 33.60983 
L 253.797112 33.60983 
L 253.797112 32.954683 
L 254.385915 32.954683 
L 254.385915 32.299537 
L 254.532746 32.299537 
L 254.532746 31.644391 
L 258.047869 31.644391 
L 258.147939 30.334099 
L 338.688 30.334099 
L 338.688 30.334099 
" style="fill:none;stroke:#ff00ff;stroke-linecap:square;stroke-width:1.5;"/>
   </g>
   <g id="line2d_36">
    <defs>
     <path d="M -0 8.485281 
L 5.091169 0 
L 0 -8.485281 
L -5.091169 -0 
z
" id="mc1392edf54" style="stroke:#ff00ff;stroke-linejoin:miter;stroke-width:1.5;"/>
    </defs>
    <g>
     <use style="fill-opacity:0;stroke:#ff00ff;stroke-linejoin:miter;stroke-width:1.5;" x="190.519269" xlink:href="#mc1392edf54" y="182.327994"/>
     <use style="fill-opacity:0;stroke:#ff00ff;stroke-linejoin:miter;stroke-width:1.5;" x="247.597648" xlink:href="#mc1392edf54" y="39.506144"/>
     <use style="fill-opacity:0;stroke:#ff00ff;stroke-linejoin:miter;stroke-width:1.5;" x="258.147939" xlink:href="#mc1392edf54" y="30.334099"/>
     <use style="fill-opacity:0;stroke:#ff00ff;stroke-linejoin:miter;stroke-width:1.5;" x="258.147939" xlink:href="#mc1392edf54" y="30.334099"/>
     <use style="fill-opacity:0;stroke:#ff00ff;stroke-linejoin:miter;stroke-width:1.5;" x="338.688" xlink:href="#mc1392edf54" y="30.334099"/>
    </g>
   </g>
   <g id="line2d_37">
    <path style="fill:none;stroke:#ff00ff;stroke-linecap:square;stroke-width:1.5;"/>
    <g/>
   </g>
   <g id="line2d_38">
    <path clip-path="url(#p2658ca2493)" d="M 236.640697 44.747313 
" style="fill:none;stroke:#ff00ff;stroke-linecap:square;stroke-width:1.5;"/>
    <defs>
     <path d="M -12 12 
L 12 -12 
M -12 -12 
L 12 12 
" id="m74475a3394" style="stroke:#ff00ff;"/>
    </defs>
    <g clip-path="url(#p2658ca2493)">
     <use style="fill:#ff00ff;stroke:#ff00ff;" x="236.640697" xlink:href="#m74475a3394" y="44.747313"/>
    </g>
   </g>
   <g id="line2d_39">
    <path d="M 338.688 30.334099 
L 369.60768 293.571802 
" style="fill:none;stroke:#000080;stroke-linecap:square;stroke-width:1.5;"/>
    <g>
     <use style="fill-opacity:0;stroke:#000080;stroke-width:1.5;" x="338.688" xlink:href="#me9ec400958" y="30.334099"/>
     <use style="fill-opacity:0;stroke:#000080;stroke-width:1.5;" x="369.60768" xlink:href="#me9ec400958" y="293.571802"/>
    </g>
   </g>
   <g id="line2d_40">
    <path d="M 338.688 30.334099 
L 369.60768 35.706297 
" style="fill:none;stroke:#ff00ff;stroke-linecap:square;stroke-width:1.5;"/>
    <g>
     <use style="fill-opacity:0;stroke:#ff00ff;stroke-linejoin:miter;stroke-width:1.5;" x="338.688" xlink:href="#mc1392edf54" y="30.334099"/>
     <use style="fill-opacity:0;stroke:#ff00ff;stroke-linejoin:miter;stroke-width:1.5;" x="369.60768" xlink:href="#mc1392edf54" y="35.706297"/>
    </g>
   </g>
   <g id="line2d_41">
    <path d="M 338.688 298.944 
L 338.688 30.334099 
" style="fill:none;stroke:#000000;stroke-linecap:square;stroke-width:1.5;"/>
   </g>
   <g id="patch_3">
    <path d="M 57.6 298.944 
L 57.6 27.648 
" style="fill:none;stroke:#000000;stroke-linecap:square;stroke-linejoin:miter;stroke-width:0.8;"/>
   </g>
   <g id="patch_4">
    <path d="M 338.688 298.944 
L 338.688 27.648 
" style="fill:none;stroke:#000000;stroke-linecap:square;stroke-linejoin:miter;stroke-width:0.8;"/>
   </g>
   <g id="patch_5">
    <path d="M 57.6 298.944 
L 338.688 298.944 
" style="fill:none;stroke:#000000;stroke-linecap:square;stroke-linejoin:miter;stroke-width:0.8;"/>
   </g>
   <g id="patch_6">
    <path d="M 57.6 27.648 
L 338.688 27.648 
" style="fill:none;stroke:#000000;stroke-linecap:square;stroke-linejoin:miter;stroke-width:0.8;"/>
   </g>
   <g id="text_13">
    <!-- OLD+DGAM -->
    <g transform="translate(375.22944 298.262739)scale(0.17 -0.17)">
     <defs>
      <path d="M 39.40625 66.21875 
Q 28.65625 66.21875 22.328125 58.203125 
Q 16.015625 50.203125 16.015625 36.375 
Q 16.015625 22.609375 22.328125 14.59375 
Q 28.65625 6.59375 39.40625 6.59375 
Q 50.140625 6.59375 56.421875 14.59375 
Q 62.703125 22.609375 62.703125 36.375 
Q 62.703125 50.203125 56.421875 58.203125 
Q 50.140625 66.21875 39.40625 66.21875 
z
M 39.40625 74.21875 
Q 54.734375 74.21875 63.90625 63.9375 
Q 73.09375 53.65625 73.09375 36.375 
Q 73.09375 19.140625 63.90625 8.859375 
Q 54.734375 -1.421875 39.40625 -1.421875 
Q 24.03125 -1.421875 14.8125 8.828125 
Q 5.609375 19.09375 5.609375 36.375 
Q 5.609375 53.65625 14.8125 63.9375 
Q 24.03125 74.21875 39.40625 74.21875 
z
" id="DejaVuSans-79"/>
      <path d="M 9.8125 72.90625 
L 19.671875 72.90625 
L 19.671875 8.296875 
L 55.171875 8.296875 
L 55.171875 0 
L 9.8125 0 
z
" id="DejaVuSans-76"/>
      <path d="M 19.671875 64.796875 
L 19.671875 8.109375 
L 31.59375 8.109375 
Q 46.6875 8.109375 53.6875 14.9375 
Q 60.6875 21.78125 60.6875 36.53125 
Q 60.6875 51.171875 53.6875 57.984375 
Q 46.6875 64.796875 31.59375 64.796875 
z
M 9.8125 72.90625 
L 30.078125 72.90625 
Q 51.265625 72.90625 61.171875 64.09375 
Q 71.09375 55.28125 71.09375 36.53125 
Q 71.09375 17.671875 61.125 8.828125 
Q 51.171875 0 30.078125 0 
L 9.8125 0 
z
" id="DejaVuSans-68"/>
      <path d="M 59.515625 10.40625 
L 59.515625 29.984375 
L 43.40625 29.984375 
L 43.40625 38.09375 
L 69.28125 38.09375 
L 69.28125 6.78125 
Q 63.578125 2.734375 56.6875 0.65625 
Q 49.8125 -1.421875 42 -1.421875 
Q 24.90625 -1.421875 15.25 8.5625 
Q 5.609375 18.5625 5.609375 36.375 
Q 5.609375 54.25 15.25 64.234375 
Q 24.90625 74.21875 42 74.21875 
Q 49.125 74.21875 55.546875 72.453125 
Q 61.96875 70.703125 67.390625 67.28125 
L 67.390625 56.78125 
Q 61.921875 61.421875 55.765625 63.765625 
Q 49.609375 66.109375 42.828125 66.109375 
Q 29.4375 66.109375 22.71875 58.640625 
Q 16.015625 51.171875 16.015625 36.375 
Q 16.015625 21.625 22.71875 14.15625 
Q 29.4375 6.6875 42.828125 6.6875 
Q 48.046875 6.6875 52.140625 7.59375 
Q 56.25 8.5 59.515625 10.40625 
z
" id="DejaVuSans-71"/>
      <path d="M 34.1875 63.1875 
L 20.796875 26.90625 
L 47.609375 26.90625 
z
M 28.609375 72.90625 
L 39.796875 72.90625 
L 67.578125 0 
L 57.328125 0 
L 50.6875 18.703125 
L 17.828125 18.703125 
L 11.1875 0 
L 0.78125 0 
z
" id="DejaVuSans-65"/>
      <path d="M 9.8125 72.90625 
L 24.515625 72.90625 
L 43.109375 23.296875 
L 61.8125 72.90625 
L 76.515625 72.90625 
L 76.515625 0 
L 66.890625 0 
L 66.890625 64.015625 
L 48.09375 14.015625 
L 38.1875 14.015625 
L 19.390625 64.015625 
L 19.390625 0 
L 9.8125 0 
z
" id="DejaVuSans-77"/>
     </defs>
     <use xlink:href="#DejaVuSans-79"/>
     <use x="78.710938" xlink:href="#DejaVuSans-76"/>
     <use x="134.423828" xlink:href="#DejaVuSans-68"/>
     <use x="211.425781" xlink:href="#DejaVuSans-43"/>
     <use x="295.214844" xlink:href="#DejaVuSans-68"/>
     <use x="372.216797" xlink:href="#DejaVuSans-71"/>
     <use x="449.707031" xlink:href="#DejaVuSans-65"/>
     <use x="518.115234" xlink:href="#DejaVuSans-77"/>
    </g>
   </g>
   <g id="text_14">
    <!-- OLD+NODGA -->
    <g transform="translate(375.22944 40.397235)scale(0.17 -0.17)">
     <defs>
      <path d="M 9.8125 72.90625 
L 23.09375 72.90625 
L 55.421875 11.921875 
L 55.421875 72.90625 
L 64.984375 72.90625 
L 64.984375 0 
L 51.703125 0 
L 19.390625 60.984375 
L 19.390625 0 
L 9.8125 0 
z
" id="DejaVuSans-78"/>
     </defs>
     <use xlink:href="#DejaVuSans-79"/>
     <use x="78.710938" xlink:href="#DejaVuSans-76"/>
     <use x="134.423828" xlink:href="#DejaVuSans-68"/>
     <use x="211.425781" xlink:href="#DejaVuSans-43"/>
     <use x="295.214844" xlink:href="#DejaVuSans-78"/>
     <use x="370.019531" xlink:href="#DejaVuSans-79"/>
     <use x="448.730469" xlink:href="#DejaVuSans-68"/>
     <use x="525.732422" xlink:href="#DejaVuSans-71"/>
     <use x="603.222656" xlink:href="#DejaVuSans-65"/>
    </g>
   </g>
   <g id="text_15">
    <!-- bbob-constrained f22, 20-D -->
    <g transform="translate(60.41088 38.111366)scale(0.102 -0.102)">
     <defs>
      <path d="M 48.6875 27.296875 
Q 48.6875 37.203125 44.609375 42.84375 
Q 40.53125 48.484375 33.40625 48.484375 
Q 26.265625 48.484375 22.1875 42.84375 
Q 18.109375 37.203125 18.109375 27.296875 
Q 18.109375 17.390625 22.1875 11.75 
Q 26.265625 6.109375 33.40625 6.109375 
Q 40.53125 6.109375 44.609375 11.75 
Q 48.6875 17.390625 48.6875 27.296875 
z
M 18.109375 46.390625 
Q 20.953125 51.265625 25.265625 53.625 
Q 29.59375 56 35.59375 56 
Q 45.5625 56 51.78125 48.09375 
Q 58.015625 40.1875 58.015625 27.296875 
Q 58.015625 14.40625 51.78125 6.484375 
Q 45.5625 -1.421875 35.59375 -1.421875 
Q 29.59375 -1.421875 25.265625 0.953125 
Q 20.953125 3.328125 18.109375 8.203125 
L 18.109375 0 
L 9.078125 0 
L 9.078125 75.984375 
L 18.109375 75.984375 
z
" id="DejaVuSans-98"/>
     </defs>
     <use xlink:href="#DejaVuSans-98"/>
     <use x="63.476562" xlink:href="#DejaVuSans-98"/>
     <use x="126.953125" xlink:href="#DejaVuSans-111"/>
     <use x="188.134766" xlink:href="#DejaVuSans-98"/>
     <use x="251.611328" xlink:href="#DejaVuSans-45"/>
     <use x="287.695312" xlink:href="#DejaVuSans-99"/>
     <use x="342.675781" xlink:href="#DejaVuSans-111"/>
     <use x="403.857422" xlink:href="#DejaVuSans-110"/>
     <use x="467.236328" xlink:href="#DejaVuSans-115"/>
     <use x="519.335938" xlink:href="#DejaVuSans-116"/>
     <use x="558.544922" xlink:href="#DejaVuSans-114"/>
     <use x="599.658203" xlink:href="#DejaVuSans-97"/>
     <use x="660.9375" xlink:href="#DejaVuSans-105"/>
     <use x="688.720703" xlink:href="#DejaVuSans-110"/>
     <use x="752.099609" xlink:href="#DejaVuSans-101"/>
     <use x="813.623047" xlink:href="#DejaVuSans-100"/>
     <use x="877.099609" xlink:href="#DejaVuSans-32"/>
     <use x="908.886719" xlink:href="#DejaVuSans-102"/>
     <use x="944.091797" xlink:href="#DejaVuSans-50"/>
     <use x="1007.714844" xlink:href="#DejaVuSans-50"/>
     <use x="1071.337891" xlink:href="#DejaVuSans-44"/>
     <use x="1103.125" xlink:href="#DejaVuSans-32"/>
     <use x="1134.912109" xlink:href="#DejaVuSans-50"/>
     <use x="1198.535156" xlink:href="#DejaVuSans-48"/>
     <use x="1262.158203" xlink:href="#DejaVuSans-45"/>
     <use x="1298.242188" xlink:href="#DejaVuSans-68"/>
    </g>
    <!-- 41 targets: 100..1e-06 -->
    <g transform="translate(60.41088 49.533135)scale(0.102 -0.102)">
     <defs>
      <path d="M 11.71875 12.40625 
L 22.015625 12.40625 
L 22.015625 0 
L 11.71875 0 
z
M 11.71875 51.703125 
L 22.015625 51.703125 
L 22.015625 39.3125 
L 11.71875 39.3125 
z
" id="DejaVuSans-58"/>
     </defs>
     <use xlink:href="#DejaVuSans-52"/>
     <use x="63.623047" xlink:href="#DejaVuSans-49"/>
     <use x="127.246094" xlink:href="#DejaVuSans-32"/>
     <use x="159.033203" xlink:href="#DejaVuSans-116"/>
     <use x="198.242188" xlink:href="#DejaVuSans-97"/>
     <use x="259.521484" xlink:href="#DejaVuSans-114"/>
     <use x="298.884766" xlink:href="#DejaVuSans-103"/>
     <use x="362.361328" xlink:href="#DejaVuSans-101"/>
     <use x="423.884766" xlink:href="#DejaVuSans-116"/>
     <use x="463.09375" xlink:href="#DejaVuSans-115"/>
     <use x="515.193359" xlink:href="#DejaVuSans-58"/>
     <use x="548.884766" xlink:href="#DejaVuSans-32"/>
     <use x="580.671875" xlink:href="#DejaVuSans-49"/>
     <use x="644.294922" xlink:href="#DejaVuSans-48"/>
     <use x="707.917969" xlink:href="#DejaVuSans-48"/>
     <use x="771.541016" xlink:href="#DejaVuSans-46"/>
     <use x="803.328125" xlink:href="#DejaVuSans-46"/>
     <use x="835.115234" xlink:href="#DejaVuSans-49"/>
     <use x="898.738281" xlink:href="#DejaVuSans-101"/>
     <use x="960.261719" xlink:href="#DejaVuSans-45"/>
     <use x="996.345703" xlink:href="#DejaVuSans-48"/>
     <use x="1059.96875" xlink:href="#DejaVuSans-54"/>
    </g>
    <!-- 45, 15 instances -->
    <g transform="translate(60.41088 60.954904)scale(0.102 -0.102)">
     <defs>
      <path d="M 10.796875 72.90625 
L 49.515625 72.90625 
L 49.515625 64.59375 
L 19.828125 64.59375 
L 19.828125 46.734375 
Q 21.96875 47.46875 24.109375 47.828125 
Q 26.265625 48.1875 28.421875 48.1875 
Q 40.625 48.1875 47.75 41.5 
Q 54.890625 34.8125 54.890625 23.390625 
Q 54.890625 11.625 47.5625 5.09375 
Q 40.234375 -1.421875 26.90625 -1.421875 
Q 22.3125 -1.421875 17.546875 -0.640625 
Q 12.796875 0.140625 7.71875 1.703125 
L 7.71875 11.625 
Q 12.109375 9.234375 16.796875 8.0625 
Q 21.484375 6.890625 26.703125 6.890625 
Q 35.15625 6.890625 40.078125 11.328125 
Q 45.015625 15.765625 45.015625 23.390625 
Q 45.015625 31 40.078125 35.4375 
Q 35.15625 39.890625 26.703125 39.890625 
Q 22.75 39.890625 18.8125 39.015625 
Q 14.890625 38.140625 10.796875 36.28125 
z
" id="DejaVuSans-53"/>
     </defs>
     <use xlink:href="#DejaVuSans-52"/>
     <use x="63.623047" xlink:href="#DejaVuSans-53"/>
     <use x="127.246094" xlink:href="#DejaVuSans-44"/>
     <use x="159.033203" xlink:href="#DejaVuSans-32"/>
     <use x="190.820312" xlink:href="#DejaVuSans-49"/>
     <use x="254.443359" xlink:href="#DejaVuSans-53"/>
     <use x="318.066406" xlink:href="#DejaVuSans-32"/>
     <use x="349.853516" xlink:href="#DejaVuSans-105"/>
     <use x="377.636719" xlink:href="#DejaVuSans-110"/>
     <use x="441.015625" xlink:href="#DejaVuSans-115"/>
     <use x="493.115234" xlink:href="#DejaVuSans-116"/>
     <use x="532.324219" xlink:href="#DejaVuSans-97"/>
     <use x="593.603516" xlink:href="#DejaVuSans-110"/>
     <use x="656.982422" xlink:href="#DejaVuSans-99"/>
     <use x="711.962891" xlink:href="#DejaVuSans-101"/>
     <use x="773.486328" xlink:href="#DejaVuSans-115"/>
    </g>
   </g>
   <g id="text_16">
    <!-- v5z33 -->
    <g style="fill:#808080;" transform="translate(183.016656 294.151352)scale(0.1 -0.1)">
     <defs>
      <path d="M 5.515625 54.6875 
L 48.1875 54.6875 
L 48.1875 46.484375 
L 14.40625 7.171875 
L 48.1875 7.171875 
L 48.1875 0 
L 4.296875 0 
L 4.296875 8.203125 
L 38.09375 47.515625 
L 5.515625 47.515625 
z
" id="DejaVuSans-122"/>
      <path d="M 40.578125 39.3125 
Q 47.65625 37.796875 51.625 33 
Q 55.609375 28.21875 55.609375 21.1875 
Q 55.609375 10.40625 48.1875 4.484375 
Q 40.765625 -1.421875 27.09375 -1.421875 
Q 22.515625 -1.421875 17.65625 -0.515625 
Q 12.796875 0.390625 7.625 2.203125 
L 7.625 11.71875 
Q 11.71875 9.328125 16.59375 8.109375 
Q 21.484375 6.890625 26.8125 6.890625 
Q 36.078125 6.890625 40.9375 10.546875 
Q 45.796875 14.203125 45.796875 21.1875 
Q 45.796875 27.640625 41.28125 31.265625 
Q 36.765625 34.90625 28.71875 34.90625 
L 20.21875 34.90625 
L 20.21875 43.015625 
L 29.109375 43.015625 
Q 36.375 43.015625 40.234375 45.921875 
Q 44.09375 48.828125 44.09375 54.296875 
Q 44.09375 59.90625 40.109375 62.90625 
Q 36.140625 65.921875 28.71875 65.921875 
Q 24.65625 65.921875 20.015625 65.03125 
Q 15.375 64.15625 9.8125 62.3125 
L 9.8125 71.09375 
Q 15.4375 72.65625 20.34375 73.4375 
Q 25.25 74.21875 29.59375 74.21875 
Q 40.828125 74.21875 47.359375 69.109375 
Q 53.90625 64.015625 53.90625 55.328125 
Q 53.90625 49.265625 50.4375 45.09375 
Q 46.96875 40.921875 40.578125 39.3125 
z
" id="DejaVuSans-51"/>
     </defs>
     <use xlink:href="#DejaVuSans-118"/>
     <use x="59.179688" xlink:href="#DejaVuSans-53"/>
     <use x="122.802734" xlink:href="#DejaVuSans-122"/>
     <use x="175.292969" xlink:href="#DejaVuSans-51"/>
     <use x="238.916016" xlink:href="#DejaVuSans-51"/>
    </g>
   </g>
   <g id="text_17">
    <!-- 22 Rotated Ellipsoid, n/2+6 constraints -->
    <g transform="translate(2.604937 21.648)scale(0.2 -0.2)">
     <defs>
      <path d="M 44.390625 34.1875 
Q 47.5625 33.109375 50.5625 29.59375 
Q 53.5625 26.078125 56.59375 19.921875 
L 66.609375 0 
L 56 0 
L 46.6875 18.703125 
Q 43.0625 26.03125 39.671875 28.421875 
Q 36.28125 30.8125 30.421875 30.8125 
L 19.671875 30.8125 
L 19.671875 0 
L 9.8125 0 
L 9.8125 72.90625 
L 32.078125 72.90625 
Q 44.578125 72.90625 50.734375 67.671875 
Q 56.890625 62.453125 56.890625 51.90625 
Q 56.890625 45.015625 53.6875 40.46875 
Q 50.484375 35.9375 44.390625 34.1875 
z
M 19.671875 64.796875 
L 19.671875 38.921875 
L 32.078125 38.921875 
Q 39.203125 38.921875 42.84375 42.21875 
Q 46.484375 45.515625 46.484375 51.90625 
Q 46.484375 58.296875 42.84375 61.546875 
Q 39.203125 64.796875 32.078125 64.796875 
z
" id="DejaVuSans-82"/>
      <path d="M 9.8125 72.90625 
L 55.90625 72.90625 
L 55.90625 64.59375 
L 19.671875 64.59375 
L 19.671875 43.015625 
L 54.390625 43.015625 
L 54.390625 34.71875 
L 19.671875 34.71875 
L 19.671875 8.296875 
L 56.78125 8.296875 
L 56.78125 0 
L 9.8125 0 
z
" id="DejaVuSans-69"/>
     </defs>
     <use xlink:href="#DejaVuSans-50"/>
     <use x="63.623047" xlink:href="#DejaVuSans-50"/>
     <use x="127.246094" xlink:href="#DejaVuSans-32"/>
     <use x="159.033203" xlink:href="#DejaVuSans-82"/>
     <use x="224.015625" xlink:href="#DejaVuSans-111"/>
     <use x="285.197266" xlink:href="#DejaVuSans-116"/>
     <use x="324.40625" xlink:href="#DejaVuSans-97"/>
     <use x="385.685547" xlink:href="#DejaVuSans-116"/>
     <use x="424.894531" xlink:href="#DejaVuSans-101"/>
     <use x="486.417969" xlink:href="#DejaVuSans-100"/>
     <use x="549.894531" xlink:href="#DejaVuSans-32"/>
     <use x="581.681641" xlink:href="#DejaVuSans-69"/>
     <use x="644.865234" xlink:href="#DejaVuSans-108"/>
     <use x="672.648438" xlink:href="#DejaVuSans-108"/>
     <use x="700.431641" xlink:href="#DejaVuSans-105"/>
     <use x="728.214844" xlink:href="#DejaVuSans-112"/>
     <use x="791.691406" xlink:href="#DejaVuSans-115"/>
     <use x="843.791016" xlink:href="#DejaVuSans-111"/>
     <use x="904.972656" xlink:href="#DejaVuSans-105"/>
     <use x="932.755859" xlink:href="#DejaVuSans-100"/>
     <use x="996.232422" xlink:href="#DejaVuSans-44"/>
     <use x="1028.019531" xlink:href="#DejaVuSans-32"/>
     <use x="1059.806641" xlink:href="#DejaVuSans-110"/>
     <use x="1123.185547" xlink:href="#DejaVuSans-47"/>
     <use x="1156.876953" xlink:href="#DejaVuSans-50"/>
     <use x="1220.5" xlink:href="#DejaVuSans-43"/>
     <use x="1304.289062" xlink:href="#DejaVuSans-54"/>
     <use x="1367.912109" xlink:href="#DejaVuSans-32"/>
     <use x="1399.699219" xlink:href="#DejaVuSans-99"/>
     <use x="1454.679688" xlink:href="#DejaVuSans-111"/>
     <use x="1515.861328" xlink:href="#DejaVuSans-110"/>
     <use x="1579.240234" xlink:href="#DejaVuSans-115"/>
     <use x="1631.339844" xlink:href="#DejaVuSans-116"/>
     <use x="1670.548828" xlink:href="#DejaVuSans-114"/>
     <use x="1711.662109" xlink:href="#DejaVuSans-97"/>
     <use x="1772.941406" xlink:href="#DejaVuSans-105"/>
     <use x="1800.724609" xlink:href="#DejaVuSans-110"/>
     <use x="1864.103516" xlink:href="#DejaVuSans-116"/>
     <use x="1903.3125" xlink:href="#DejaVuSans-115"/>
    </g>
   </g>
  </g>
 </g>
 <defs>
  <clipPath id="p2658ca2493">
   <rect height="271.296" width="281.088" x="57.6" y="27.648"/>
  </clipPath>
 </defs>
</svg>
