<?xml version="1.0" encoding="utf-8" standalone="no"?>
<!DOCTYPE svg PUBLIC "-//W3C//DTD SVG 1.1//EN"
  "http://www.w3.org/Graphics/SVG/1.1/DTD/svg11.dtd">
<!-- Created with matplotlib (https://matplotlib.org/) -->
<svg height="345.6pt" version="1.1" viewBox="0 0 460.8 345.6" width="460.8pt" xmlns="http://www.w3.org/2000/svg" xmlns:xlink="http://www.w3.org/1999/xlink">
 <metadata>
  <rdf:RDF xmlns:cc="http://creativecommons.org/ns#" xmlns:dc="http://purl.org/dc/elements/1.1/" xmlns:rdf="http://www.w3.org/1999/02/22-rdf-syntax-ns#">
   <cc:Work>
    <dc:type rdf:resource="http://purl.org/dc/dcmitype/StillImage"/>
    <dc:date>2021-03-11T12:04:16.827736</dc:date>
    <dc:format>image/svg+xml</dc:format>
    <dc:creator>
     <cc:Agent>
      <dc:title>Matplotlib v3.3.3, https://matplotlib.org/</dc:title>
     </cc:Agent>
    </dc:creator>
   </cc:Work>
  </rdf:RDF>
 </metadata>
 <defs>
  <style type="text/css">*{stroke-linecap:butt;stroke-linejoin:round;}</style>
 </defs>
 <g id="figure_1">
  <g id="patch_1">
   <path d="M 0 345.6 
L 460.8 345.6 
L 460.8 0 
L 0 0 
z
" style="fill:#ffffff;"/>
  </g>
  <g id="axes_1">
   <g id="patch_2">
    <path d="M 57.6 298.944 
L 338.688 298.944 
L 338.688 27.648 
L 57.6 27.648 
z
" style="fill:#ffffff;"/>
   </g>
   <g id="matplotlib.axis_1">
    <g id="xtick_1">
     <g id="line2d_1">
      <path clip-path="url(#p6de019ec65)" d="M 57.6 298.944 
L 57.6 27.648 
" style="fill:none;stroke:#b0b0b0;stroke-linecap:square;stroke-width:0.8;"/>
     </g>
     <g id="line2d_2">
      <defs>
       <path d="M 0 0 
L 0 3.5 
" id="mf9843a3b00" style="stroke:#000000;stroke-width:0.8;"/>
      </defs>
      <g>
       <use style="stroke:#000000;stroke-width:0.8;" x="57.6" xlink:href="#mf9843a3b00" y="298.944"/>
      </g>
     </g>
     <g id="text_1">
      <!-- 0 -->
      <g transform="translate(51.2375 321.140875)scale(0.2 -0.2)">
       <defs>
        <path d="M 31.78125 66.40625 
Q 24.171875 66.40625 20.328125 58.90625 
Q 16.5 51.421875 16.5 36.375 
Q 16.5 21.390625 20.328125 13.890625 
Q 24.171875 6.390625 31.78125 6.390625 
Q 39.453125 6.390625 43.28125 13.890625 
Q 47.125 21.390625 47.125 36.375 
Q 47.125 51.421875 43.28125 58.90625 
Q 39.453125 66.40625 31.78125 66.40625 
z
M 31.78125 74.21875 
Q 44.046875 74.21875 50.515625 64.515625 
Q 56.984375 54.828125 56.984375 36.375 
Q 56.984375 17.96875 50.515625 8.265625 
Q 44.046875 -1.421875 31.78125 -1.421875 
Q 19.53125 -1.421875 13.0625 8.265625 
Q 6.59375 17.96875 6.59375 36.375 
Q 6.59375 54.828125 13.0625 64.515625 
Q 19.53125 74.21875 31.78125 74.21875 
z
" id="DejaVuSans-48"/>
       </defs>
       <use xlink:href="#DejaVuSans-48"/>
      </g>
     </g>
    </g>
    <g id="xtick_2">
     <g id="line2d_3">
      <path clip-path="url(#p6de019ec65)" d="M 137.910857 298.944 
L 137.910857 27.648 
" style="fill:none;stroke:#b0b0b0;stroke-linecap:square;stroke-width:0.8;"/>
     </g>
     <g id="line2d_4">
      <g>
       <use style="stroke:#000000;stroke-width:0.8;" x="137.910857" xlink:href="#mf9843a3b00" y="298.944"/>
      </g>
     </g>
     <g id="text_2">
      <!-- 2 -->
      <g transform="translate(131.548357 321.140875)scale(0.2 -0.2)">
       <defs>
        <path d="M 19.1875 8.296875 
L 53.609375 8.296875 
L 53.609375 0 
L 7.328125 0 
L 7.328125 8.296875 
Q 12.9375 14.109375 22.625 23.890625 
Q 32.328125 33.6875 34.8125 36.53125 
Q 39.546875 41.84375 41.421875 45.53125 
Q 43.3125 49.21875 43.3125 52.78125 
Q 43.3125 58.59375 39.234375 62.25 
Q 35.15625 65.921875 28.609375 65.921875 
Q 23.96875 65.921875 18.8125 64.3125 
Q 13.671875 62.703125 7.8125 59.421875 
L 7.8125 69.390625 
Q 13.765625 71.78125 18.9375 73 
Q 24.125 74.21875 28.421875 74.21875 
Q 39.75 74.21875 46.484375 68.546875 
Q 53.21875 62.890625 53.21875 53.421875 
Q 53.21875 48.921875 51.53125 44.890625 
Q 49.859375 40.875 45.40625 35.40625 
Q 44.1875 33.984375 37.640625 27.21875 
Q 31.109375 20.453125 19.1875 8.296875 
z
" id="DejaVuSans-50"/>
       </defs>
       <use xlink:href="#DejaVuSans-50"/>
      </g>
     </g>
    </g>
    <g id="xtick_3">
     <g id="line2d_5">
      <path clip-path="url(#p6de019ec65)" d="M 218.221714 298.944 
L 218.221714 27.648 
" style="fill:none;stroke:#b0b0b0;stroke-linecap:square;stroke-width:0.8;"/>
     </g>
     <g id="line2d_6">
      <g>
       <use style="stroke:#000000;stroke-width:0.8;" x="218.221714" xlink:href="#mf9843a3b00" y="298.944"/>
      </g>
     </g>
     <g id="text_3">
      <!-- 4 -->
      <g transform="translate(211.859214 321.140875)scale(0.2 -0.2)">
       <defs>
        <path d="M 37.796875 64.3125 
L 12.890625 25.390625 
L 37.796875 25.390625 
z
M 35.203125 72.90625 
L 47.609375 72.90625 
L 47.609375 25.390625 
L 58.015625 25.390625 
L 58.015625 17.1875 
L 47.609375 17.1875 
L 47.609375 0 
L 37.796875 0 
L 37.796875 17.1875 
L 4.890625 17.1875 
L 4.890625 26.703125 
z
" id="DejaVuSans-52"/>
       </defs>
       <use xlink:href="#DejaVuSans-52"/>
      </g>
     </g>
    </g>
    <g id="xtick_4">
     <g id="line2d_7">
      <path clip-path="url(#p6de019ec65)" d="M 298.532571 298.944 
L 298.532571 27.648 
" style="fill:none;stroke:#b0b0b0;stroke-linecap:square;stroke-width:0.8;"/>
     </g>
     <g id="line2d_8">
      <g>
       <use style="stroke:#000000;stroke-width:0.8;" x="298.532571" xlink:href="#mf9843a3b00" y="298.944"/>
      </g>
     </g>
     <g id="text_4">
      <!-- 6 -->
      <g transform="translate(292.170071 321.140875)scale(0.2 -0.2)">
       <defs>
        <path d="M 33.015625 40.375 
Q 26.375 40.375 22.484375 35.828125 
Q 18.609375 31.296875 18.609375 23.390625 
Q 18.609375 15.53125 22.484375 10.953125 
Q 26.375 6.390625 33.015625 6.390625 
Q 39.65625 6.390625 43.53125 10.953125 
Q 47.40625 15.53125 47.40625 23.390625 
Q 47.40625 31.296875 43.53125 35.828125 
Q 39.65625 40.375 33.015625 40.375 
z
M 52.59375 71.296875 
L 52.59375 62.3125 
Q 48.875 64.0625 45.09375 64.984375 
Q 41.3125 65.921875 37.59375 65.921875 
Q 27.828125 65.921875 22.671875 59.328125 
Q 17.53125 52.734375 16.796875 39.40625 
Q 19.671875 43.65625 24.015625 45.921875 
Q 28.375 48.1875 33.59375 48.1875 
Q 44.578125 48.1875 50.953125 41.515625 
Q 57.328125 34.859375 57.328125 23.390625 
Q 57.328125 12.15625 50.6875 5.359375 
Q 44.046875 -1.421875 33.015625 -1.421875 
Q 20.359375 -1.421875 13.671875 8.265625 
Q 6.984375 17.96875 6.984375 36.375 
Q 6.984375 53.65625 15.1875 63.9375 
Q 23.390625 74.21875 37.203125 74.21875 
Q 40.921875 74.21875 44.703125 73.484375 
Q 48.484375 72.75 52.59375 71.296875 
z
" id="DejaVuSans-54"/>
       </defs>
       <use xlink:href="#DejaVuSans-54"/>
      </g>
     </g>
    </g>
    <g id="xtick_5">
     <g id="line2d_9">
      <path clip-path="url(#p6de019ec65)" d="M 97.755429 298.944 
L 97.755429 27.648 
" style="fill:none;stroke:#b0b0b0;stroke-linecap:square;stroke-width:0.8;"/>
     </g>
     <g id="line2d_10">
      <defs>
       <path d="M 0 0 
L 0 2 
" id="m2ca739f248" style="stroke:#000000;stroke-width:0.6;"/>
      </defs>
      <g>
       <use style="stroke:#000000;stroke-width:0.6;" x="97.755429" xlink:href="#m2ca739f248" y="298.944"/>
      </g>
     </g>
    </g>
    <g id="xtick_6">
     <g id="line2d_11">
      <path clip-path="url(#p6de019ec65)" d="M 178.066286 298.944 
L 178.066286 27.648 
" style="fill:none;stroke:#b0b0b0;stroke-linecap:square;stroke-width:0.8;"/>
     </g>
     <g id="line2d_12">
      <g>
       <use style="stroke:#000000;stroke-width:0.6;" x="178.066286" xlink:href="#m2ca739f248" y="298.944"/>
      </g>
     </g>
    </g>
    <g id="xtick_7">
     <g id="line2d_13">
      <path clip-path="url(#p6de019ec65)" d="M 258.377143 298.944 
L 258.377143 27.648 
" style="fill:none;stroke:#b0b0b0;stroke-linecap:square;stroke-width:0.8;"/>
     </g>
     <g id="line2d_14">
      <g>
       <use style="stroke:#000000;stroke-width:0.6;" x="258.377143" xlink:href="#m2ca739f248" y="298.944"/>
      </g>
     </g>
    </g>
    <g id="xtick_8">
     <g id="line2d_15">
      <path clip-path="url(#p6de019ec65)" d="M 338.688 298.944 
L 338.688 27.648 
" style="fill:none;stroke:#b0b0b0;stroke-linecap:square;stroke-width:0.8;"/>
     </g>
     <g id="line2d_16">
      <g>
       <use style="stroke:#000000;stroke-width:0.6;" x="338.688" xlink:href="#m2ca739f248" y="298.944"/>
      </g>
     </g>
    </g>
    <g id="text_5">
     <!-- log10(# (f+g)-evals / dimension) -->
     <g transform="translate(58.145016 342.217594)scale(0.17 -0.17)">
      <defs>
       <path d="M 9.421875 75.984375 
L 18.40625 75.984375 
L 18.40625 0 
L 9.421875 0 
z
" id="DejaVuSans-108"/>
       <path d="M 30.609375 48.390625 
Q 23.390625 48.390625 19.1875 42.75 
Q 14.984375 37.109375 14.984375 27.296875 
Q 14.984375 17.484375 19.15625 11.84375 
Q 23.34375 6.203125 30.609375 6.203125 
Q 37.796875 6.203125 41.984375 11.859375 
Q 46.1875 17.53125 46.1875 27.296875 
Q 46.1875 37.015625 41.984375 42.703125 
Q 37.796875 48.390625 30.609375 48.390625 
z
M 30.609375 56 
Q 42.328125 56 49.015625 48.375 
Q 55.71875 40.765625 55.71875 27.296875 
Q 55.71875 13.875 49.015625 6.21875 
Q 42.328125 -1.421875 30.609375 -1.421875 
Q 18.84375 -1.421875 12.171875 6.21875 
Q 5.515625 13.875 5.515625 27.296875 
Q 5.515625 40.765625 12.171875 48.375 
Q 18.84375 56 30.609375 56 
z
" id="DejaVuSans-111"/>
       <path d="M 45.40625 27.984375 
Q 45.40625 37.75 41.375 43.109375 
Q 37.359375 48.484375 30.078125 48.484375 
Q 22.859375 48.484375 18.828125 43.109375 
Q 14.796875 37.75 14.796875 27.984375 
Q 14.796875 18.265625 18.828125 12.890625 
Q 22.859375 7.515625 30.078125 7.515625 
Q 37.359375 7.515625 41.375 12.890625 
Q 45.40625 18.265625 45.40625 27.984375 
z
M 54.390625 6.78125 
Q 54.390625 -7.171875 48.1875 -13.984375 
Q 42 -20.796875 29.203125 -20.796875 
Q 24.46875 -20.796875 20.265625 -20.09375 
Q 16.0625 -19.390625 12.109375 -17.921875 
L 12.109375 -9.1875 
Q 16.0625 -11.328125 19.921875 -12.34375 
Q 23.78125 -13.375 27.78125 -13.375 
Q 36.625 -13.375 41.015625 -8.765625 
Q 45.40625 -4.15625 45.40625 5.171875 
L 45.40625 9.625 
Q 42.625 4.78125 38.28125 2.390625 
Q 33.9375 0 27.875 0 
Q 17.828125 0 11.671875 7.65625 
Q 5.515625 15.328125 5.515625 27.984375 
Q 5.515625 40.671875 11.671875 48.328125 
Q 17.828125 56 27.875 56 
Q 33.9375 56 38.28125 53.609375 
Q 42.625 51.21875 45.40625 46.390625 
L 45.40625 54.6875 
L 54.390625 54.6875 
z
" id="DejaVuSans-103"/>
       <path d="M 12.40625 8.296875 
L 28.515625 8.296875 
L 28.515625 63.921875 
L 10.984375 60.40625 
L 10.984375 69.390625 
L 28.421875 72.90625 
L 38.28125 72.90625 
L 38.28125 8.296875 
L 54.390625 8.296875 
L 54.390625 0 
L 12.40625 0 
z
" id="DejaVuSans-49"/>
       <path d="M 31 75.875 
Q 24.46875 64.65625 21.28125 53.65625 
Q 18.109375 42.671875 18.109375 31.390625 
Q 18.109375 20.125 21.3125 9.0625 
Q 24.515625 -2 31 -13.1875 
L 23.1875 -13.1875 
Q 15.875 -1.703125 12.234375 9.375 
Q 8.59375 20.453125 8.59375 31.390625 
Q 8.59375 42.28125 12.203125 53.3125 
Q 15.828125 64.359375 23.1875 75.875 
z
" id="DejaVuSans-40"/>
       <path d="M 51.125 44 
L 36.921875 44 
L 32.8125 27.6875 
L 47.125 27.6875 
z
M 43.796875 71.78125 
L 38.71875 51.515625 
L 52.984375 51.515625 
L 58.109375 71.78125 
L 65.921875 71.78125 
L 60.890625 51.515625 
L 76.125 51.515625 
L 76.125 44 
L 58.984375 44 
L 54.984375 27.6875 
L 70.515625 27.6875 
L 70.515625 20.21875 
L 53.078125 20.21875 
L 48 0 
L 40.1875 0 
L 45.21875 20.21875 
L 30.90625 20.21875 
L 25.875 0 
L 18.015625 0 
L 23.09375 20.21875 
L 7.71875 20.21875 
L 7.71875 27.6875 
L 24.90625 27.6875 
L 29 44 
L 13.28125 44 
L 13.28125 51.515625 
L 30.90625 51.515625 
L 35.890625 71.78125 
z
" id="DejaVuSans-35"/>
       <path id="DejaVuSans-32"/>
       <path d="M 37.109375 75.984375 
L 37.109375 68.5 
L 28.515625 68.5 
Q 23.6875 68.5 21.796875 66.546875 
Q 19.921875 64.59375 19.921875 59.515625 
L 19.921875 54.6875 
L 34.71875 54.6875 
L 34.71875 47.703125 
L 19.921875 47.703125 
L 19.921875 0 
L 10.890625 0 
L 10.890625 47.703125 
L 2.296875 47.703125 
L 2.296875 54.6875 
L 10.890625 54.6875 
L 10.890625 58.5 
Q 10.890625 67.625 15.140625 71.796875 
Q 19.390625 75.984375 28.609375 75.984375 
z
" id="DejaVuSans-102"/>
       <path d="M 46 62.703125 
L 46 35.5 
L 73.1875 35.5 
L 73.1875 27.203125 
L 46 27.203125 
L 46 0 
L 37.796875 0 
L 37.796875 27.203125 
L 10.59375 27.203125 
L 10.59375 35.5 
L 37.796875 35.5 
L 37.796875 62.703125 
z
" id="DejaVuSans-43"/>
       <path d="M 8.015625 75.875 
L 15.828125 75.875 
Q 23.140625 64.359375 26.78125 53.3125 
Q 30.421875 42.28125 30.421875 31.390625 
Q 30.421875 20.453125 26.78125 9.375 
Q 23.140625 -1.703125 15.828125 -13.1875 
L 8.015625 -13.1875 
Q 14.5 -2 17.703125 9.0625 
Q 20.90625 20.125 20.90625 31.390625 
Q 20.90625 42.671875 17.703125 53.65625 
Q 14.5 64.65625 8.015625 75.875 
z
" id="DejaVuSans-41"/>
       <path d="M 4.890625 31.390625 
L 31.203125 31.390625 
L 31.203125 23.390625 
L 4.890625 23.390625 
z
" id="DejaVuSans-45"/>
       <path d="M 56.203125 29.59375 
L 56.203125 25.203125 
L 14.890625 25.203125 
Q 15.484375 15.921875 20.484375 11.0625 
Q 25.484375 6.203125 34.421875 6.203125 
Q 39.59375 6.203125 44.453125 7.46875 
Q 49.3125 8.734375 54.109375 11.28125 
L 54.109375 2.78125 
Q 49.265625 0.734375 44.1875 -0.34375 
Q 39.109375 -1.421875 33.890625 -1.421875 
Q 20.796875 -1.421875 13.15625 6.1875 
Q 5.515625 13.8125 5.515625 26.8125 
Q 5.515625 40.234375 12.765625 48.109375 
Q 20.015625 56 32.328125 56 
Q 43.359375 56 49.78125 48.890625 
Q 56.203125 41.796875 56.203125 29.59375 
z
M 47.21875 32.234375 
Q 47.125 39.59375 43.09375 43.984375 
Q 39.0625 48.390625 32.421875 48.390625 
Q 24.90625 48.390625 20.390625 44.140625 
Q 15.875 39.890625 15.1875 32.171875 
z
" id="DejaVuSans-101"/>
       <path d="M 2.984375 54.6875 
L 12.5 54.6875 
L 29.59375 8.796875 
L 46.6875 54.6875 
L 56.203125 54.6875 
L 35.6875 0 
L 23.484375 0 
z
" id="DejaVuSans-118"/>
       <path d="M 34.28125 27.484375 
Q 23.390625 27.484375 19.1875 25 
Q 14.984375 22.515625 14.984375 16.5 
Q 14.984375 11.71875 18.140625 8.90625 
Q 21.296875 6.109375 26.703125 6.109375 
Q 34.1875 6.109375 38.703125 11.40625 
Q 43.21875 16.703125 43.21875 25.484375 
L 43.21875 27.484375 
z
M 52.203125 31.203125 
L 52.203125 0 
L 43.21875 0 
L 43.21875 8.296875 
Q 40.140625 3.328125 35.546875 0.953125 
Q 30.953125 -1.421875 24.3125 -1.421875 
Q 15.921875 -1.421875 10.953125 3.296875 
Q 6 8.015625 6 15.921875 
Q 6 25.140625 12.171875 29.828125 
Q 18.359375 34.515625 30.609375 34.515625 
L 43.21875 34.515625 
L 43.21875 35.40625 
Q 43.21875 41.609375 39.140625 45 
Q 35.0625 48.390625 27.6875 48.390625 
Q 23 48.390625 18.546875 47.265625 
Q 14.109375 46.140625 10.015625 43.890625 
L 10.015625 52.203125 
Q 14.9375 54.109375 19.578125 55.046875 
Q 24.21875 56 28.609375 56 
Q 40.484375 56 46.34375 49.84375 
Q 52.203125 43.703125 52.203125 31.203125 
z
" id="DejaVuSans-97"/>
       <path d="M 44.28125 53.078125 
L 44.28125 44.578125 
Q 40.484375 46.53125 36.375 47.5 
Q 32.28125 48.484375 27.875 48.484375 
Q 21.1875 48.484375 17.84375 46.4375 
Q 14.5 44.390625 14.5 40.28125 
Q 14.5 37.15625 16.890625 35.375 
Q 19.28125 33.59375 26.515625 31.984375 
L 29.59375 31.296875 
Q 39.15625 29.25 43.1875 25.515625 
Q 47.21875 21.78125 47.21875 15.09375 
Q 47.21875 7.46875 41.1875 3.015625 
Q 35.15625 -1.421875 24.609375 -1.421875 
Q 20.21875 -1.421875 15.453125 -0.5625 
Q 10.6875 0.296875 5.421875 2 
L 5.421875 11.28125 
Q 10.40625 8.6875 15.234375 7.390625 
Q 20.0625 6.109375 24.8125 6.109375 
Q 31.15625 6.109375 34.5625 8.28125 
Q 37.984375 10.453125 37.984375 14.40625 
Q 37.984375 18.0625 35.515625 20.015625 
Q 33.0625 21.96875 24.703125 23.78125 
L 21.578125 24.515625 
Q 13.234375 26.265625 9.515625 29.90625 
Q 5.8125 33.546875 5.8125 39.890625 
Q 5.8125 47.609375 11.28125 51.796875 
Q 16.75 56 26.8125 56 
Q 31.78125 56 36.171875 55.265625 
Q 40.578125 54.546875 44.28125 53.078125 
z
" id="DejaVuSans-115"/>
       <path d="M 25.390625 72.90625 
L 33.6875 72.90625 
L 8.296875 -9.28125 
L 0 -9.28125 
z
" id="DejaVuSans-47"/>
       <path d="M 45.40625 46.390625 
L 45.40625 75.984375 
L 54.390625 75.984375 
L 54.390625 0 
L 45.40625 0 
L 45.40625 8.203125 
Q 42.578125 3.328125 38.25 0.953125 
Q 33.9375 -1.421875 27.875 -1.421875 
Q 17.96875 -1.421875 11.734375 6.484375 
Q 5.515625 14.40625 5.515625 27.296875 
Q 5.515625 40.1875 11.734375 48.09375 
Q 17.96875 56 27.875 56 
Q 33.9375 56 38.25 53.625 
Q 42.578125 51.265625 45.40625 46.390625 
z
M 14.796875 27.296875 
Q 14.796875 17.390625 18.875 11.75 
Q 22.953125 6.109375 30.078125 6.109375 
Q 37.203125 6.109375 41.296875 11.75 
Q 45.40625 17.390625 45.40625 27.296875 
Q 45.40625 37.203125 41.296875 42.84375 
Q 37.203125 48.484375 30.078125 48.484375 
Q 22.953125 48.484375 18.875 42.84375 
Q 14.796875 37.203125 14.796875 27.296875 
z
" id="DejaVuSans-100"/>
       <path d="M 9.421875 54.6875 
L 18.40625 54.6875 
L 18.40625 0 
L 9.421875 0 
z
M 9.421875 75.984375 
L 18.40625 75.984375 
L 18.40625 64.59375 
L 9.421875 64.59375 
z
" id="DejaVuSans-105"/>
       <path d="M 52 44.1875 
Q 55.375 50.25 60.0625 53.125 
Q 64.75 56 71.09375 56 
Q 79.640625 56 84.28125 50.015625 
Q 88.921875 44.046875 88.921875 33.015625 
L 88.921875 0 
L 79.890625 0 
L 79.890625 32.71875 
Q 79.890625 40.578125 77.09375 44.375 
Q 74.3125 48.1875 68.609375 48.1875 
Q 61.625 48.1875 57.5625 43.546875 
Q 53.515625 38.921875 53.515625 30.90625 
L 53.515625 0 
L 44.484375 0 
L 44.484375 32.71875 
Q 44.484375 40.625 41.703125 44.40625 
Q 38.921875 48.1875 33.109375 48.1875 
Q 26.21875 48.1875 22.15625 43.53125 
Q 18.109375 38.875 18.109375 30.90625 
L 18.109375 0 
L 9.078125 0 
L 9.078125 54.6875 
L 18.109375 54.6875 
L 18.109375 46.1875 
Q 21.1875 51.21875 25.484375 53.609375 
Q 29.78125 56 35.6875 56 
Q 41.65625 56 45.828125 52.96875 
Q 50 49.953125 52 44.1875 
z
" id="DejaVuSans-109"/>
       <path d="M 54.890625 33.015625 
L 54.890625 0 
L 45.90625 0 
L 45.90625 32.71875 
Q 45.90625 40.484375 42.875 44.328125 
Q 39.84375 48.1875 33.796875 48.1875 
Q 26.515625 48.1875 22.3125 43.546875 
Q 18.109375 38.921875 18.109375 30.90625 
L 18.109375 0 
L 9.078125 0 
L 9.078125 54.6875 
L 18.109375 54.6875 
L 18.109375 46.1875 
Q 21.34375 51.125 25.703125 53.5625 
Q 30.078125 56 35.796875 56 
Q 45.21875 56 50.046875 50.171875 
Q 54.890625 44.34375 54.890625 33.015625 
z
" id="DejaVuSans-110"/>
      </defs>
      <use xlink:href="#DejaVuSans-108"/>
      <use x="27.783203" xlink:href="#DejaVuSans-111"/>
      <use x="88.964844" xlink:href="#DejaVuSans-103"/>
      <use x="152.441406" xlink:href="#DejaVuSans-49"/>
      <use x="216.064453" xlink:href="#DejaVuSans-48"/>
      <use x="279.6875" xlink:href="#DejaVuSans-40"/>
      <use x="318.701172" xlink:href="#DejaVuSans-35"/>
      <use x="402.490234" xlink:href="#DejaVuSans-32"/>
      <use x="434.277344" xlink:href="#DejaVuSans-40"/>
      <use x="473.291016" xlink:href="#DejaVuSans-102"/>
      <use x="508.496094" xlink:href="#DejaVuSans-43"/>
      <use x="592.285156" xlink:href="#DejaVuSans-103"/>
      <use x="655.761719" xlink:href="#DejaVuSans-41"/>
      <use x="694.775391" xlink:href="#DejaVuSans-45"/>
      <use x="730.859375" xlink:href="#DejaVuSans-101"/>
      <use x="792.382812" xlink:href="#DejaVuSans-118"/>
      <use x="851.5625" xlink:href="#DejaVuSans-97"/>
      <use x="912.841797" xlink:href="#DejaVuSans-108"/>
      <use x="940.625" xlink:href="#DejaVuSans-115"/>
      <use x="992.724609" xlink:href="#DejaVuSans-32"/>
      <use x="1024.511719" xlink:href="#DejaVuSans-47"/>
      <use x="1058.203125" xlink:href="#DejaVuSans-32"/>
      <use x="1089.990234" xlink:href="#DejaVuSans-100"/>
      <use x="1153.466797" xlink:href="#DejaVuSans-105"/>
      <use x="1181.25" xlink:href="#DejaVuSans-109"/>
      <use x="1278.662109" xlink:href="#DejaVuSans-101"/>
      <use x="1340.185547" xlink:href="#DejaVuSans-110"/>
      <use x="1403.564453" xlink:href="#DejaVuSans-115"/>
      <use x="1455.664062" xlink:href="#DejaVuSans-105"/>
      <use x="1483.447266" xlink:href="#DejaVuSans-111"/>
      <use x="1544.628906" xlink:href="#DejaVuSans-110"/>
      <use x="1608.007812" xlink:href="#DejaVuSans-41"/>
     </g>
    </g>
   </g>
   <g id="matplotlib.axis_2">
    <g id="ytick_1">
     <g id="line2d_17">
      <path clip-path="url(#p6de019ec65)" d="M 57.6 298.944 
L 338.688 298.944 
" style="fill:none;stroke:#b0b0b0;stroke-linecap:square;stroke-width:0.8;"/>
     </g>
     <g id="line2d_18">
      <defs>
       <path d="M 0 0 
L -3.5 0 
" id="mbad59a2f91" style="stroke:#000000;stroke-width:0.8;"/>
      </defs>
      <g>
       <use style="stroke:#000000;stroke-width:0.8;" x="57.6" xlink:href="#mbad59a2f91" y="298.944"/>
      </g>
     </g>
     <g id="text_6">
      <!-- 0.0 -->
      <g transform="translate(25.155 305.02275)scale(0.16 -0.16)">
       <defs>
        <path d="M 10.6875 12.40625 
L 21 12.40625 
L 21 0 
L 10.6875 0 
z
" id="DejaVuSans-46"/>
       </defs>
       <use xlink:href="#DejaVuSans-48"/>
       <use x="63.623047" xlink:href="#DejaVuSans-46"/>
       <use x="95.410156" xlink:href="#DejaVuSans-48"/>
      </g>
     </g>
    </g>
    <g id="ytick_2">
     <g id="line2d_19">
      <path clip-path="url(#p6de019ec65)" d="M 57.6 245.22202 
L 338.688 245.22202 
" style="fill:none;stroke:#b0b0b0;stroke-linecap:square;stroke-width:0.8;"/>
     </g>
     <g id="line2d_20">
      <g>
       <use style="stroke:#000000;stroke-width:0.8;" x="57.6" xlink:href="#mbad59a2f91" y="245.22202"/>
      </g>
     </g>
     <g id="text_7">
      <!-- 0.2 -->
      <g transform="translate(25.155 251.30077)scale(0.16 -0.16)">
       <use xlink:href="#DejaVuSans-48"/>
       <use x="63.623047" xlink:href="#DejaVuSans-46"/>
       <use x="95.410156" xlink:href="#DejaVuSans-50"/>
      </g>
     </g>
    </g>
    <g id="ytick_3">
     <g id="line2d_21">
      <path clip-path="url(#p6de019ec65)" d="M 57.6 191.50004 
L 338.688 191.50004 
" style="fill:none;stroke:#b0b0b0;stroke-linecap:square;stroke-width:0.8;"/>
     </g>
     <g id="line2d_22">
      <g>
       <use style="stroke:#000000;stroke-width:0.8;" x="57.6" xlink:href="#mbad59a2f91" y="191.50004"/>
      </g>
     </g>
     <g id="text_8">
      <!-- 0.4 -->
      <g transform="translate(25.155 197.57879)scale(0.16 -0.16)">
       <use xlink:href="#DejaVuSans-48"/>
       <use x="63.623047" xlink:href="#DejaVuSans-46"/>
       <use x="95.410156" xlink:href="#DejaVuSans-52"/>
      </g>
     </g>
    </g>
    <g id="ytick_4">
     <g id="line2d_23">
      <path clip-path="url(#p6de019ec65)" d="M 57.6 137.778059 
L 338.688 137.778059 
" style="fill:none;stroke:#b0b0b0;stroke-linecap:square;stroke-width:0.8;"/>
     </g>
     <g id="line2d_24">
      <g>
       <use style="stroke:#000000;stroke-width:0.8;" x="57.6" xlink:href="#mbad59a2f91" y="137.778059"/>
      </g>
     </g>
     <g id="text_9">
      <!-- 0.6 -->
      <g transform="translate(25.155 143.856809)scale(0.16 -0.16)">
       <use xlink:href="#DejaVuSans-48"/>
       <use x="63.623047" xlink:href="#DejaVuSans-46"/>
       <use x="95.410156" xlink:href="#DejaVuSans-54"/>
      </g>
     </g>
    </g>
    <g id="ytick_5">
     <g id="line2d_25">
      <path clip-path="url(#p6de019ec65)" d="M 57.6 84.056079 
L 338.688 84.056079 
" style="fill:none;stroke:#b0b0b0;stroke-linecap:square;stroke-width:0.8;"/>
     </g>
     <g id="line2d_26">
      <g>
       <use style="stroke:#000000;stroke-width:0.8;" x="57.6" xlink:href="#mbad59a2f91" y="84.056079"/>
      </g>
     </g>
     <g id="text_10">
      <!-- 0.8 -->
      <g transform="translate(25.155 90.134829)scale(0.16 -0.16)">
       <defs>
        <path d="M 31.78125 34.625 
Q 24.75 34.625 20.71875 30.859375 
Q 16.703125 27.09375 16.703125 20.515625 
Q 16.703125 13.921875 20.71875 10.15625 
Q 24.75 6.390625 31.78125 6.390625 
Q 38.8125 6.390625 42.859375 10.171875 
Q 46.921875 13.96875 46.921875 20.515625 
Q 46.921875 27.09375 42.890625 30.859375 
Q 38.875 34.625 31.78125 34.625 
z
M 21.921875 38.8125 
Q 15.578125 40.375 12.03125 44.71875 
Q 8.5 49.078125 8.5 55.328125 
Q 8.5 64.0625 14.71875 69.140625 
Q 20.953125 74.21875 31.78125 74.21875 
Q 42.671875 74.21875 48.875 69.140625 
Q 55.078125 64.0625 55.078125 55.328125 
Q 55.078125 49.078125 51.53125 44.71875 
Q 48 40.375 41.703125 38.8125 
Q 48.828125 37.15625 52.796875 32.3125 
Q 56.78125 27.484375 56.78125 20.515625 
Q 56.78125 9.90625 50.3125 4.234375 
Q 43.84375 -1.421875 31.78125 -1.421875 
Q 19.734375 -1.421875 13.25 4.234375 
Q 6.78125 9.90625 6.78125 20.515625 
Q 6.78125 27.484375 10.78125 32.3125 
Q 14.796875 37.15625 21.921875 38.8125 
z
M 18.3125 54.390625 
Q 18.3125 48.734375 21.84375 45.5625 
Q 25.390625 42.390625 31.78125 42.390625 
Q 38.140625 42.390625 41.71875 45.5625 
Q 45.3125 48.734375 45.3125 54.390625 
Q 45.3125 60.0625 41.71875 63.234375 
Q 38.140625 66.40625 31.78125 66.40625 
Q 25.390625 66.40625 21.84375 63.234375 
Q 18.3125 60.0625 18.3125 54.390625 
z
" id="DejaVuSans-56"/>
       </defs>
       <use xlink:href="#DejaVuSans-48"/>
       <use x="63.623047" xlink:href="#DejaVuSans-46"/>
       <use x="95.410156" xlink:href="#DejaVuSans-56"/>
      </g>
     </g>
    </g>
    <g id="ytick_6">
     <g id="line2d_27">
      <path clip-path="url(#p6de019ec65)" d="M 57.6 30.334099 
L 338.688 30.334099 
" style="fill:none;stroke:#b0b0b0;stroke-linecap:square;stroke-width:0.8;"/>
     </g>
     <g id="line2d_28">
      <g>
       <use style="stroke:#000000;stroke-width:0.8;" x="57.6" xlink:href="#mbad59a2f91" y="30.334099"/>
      </g>
     </g>
     <g id="text_11">
      <!-- 1.0 -->
      <g transform="translate(25.155 36.412849)scale(0.16 -0.16)">
       <use xlink:href="#DejaVuSans-49"/>
       <use x="63.623047" xlink:href="#DejaVuSans-46"/>
       <use x="95.410156" xlink:href="#DejaVuSans-48"/>
      </g>
     </g>
    </g>
    <g id="text_12">
     <!-- Fraction of function,target pairs -->
     <g transform="translate(17.619531 297.681)rotate(-90)scale(0.17 -0.17)">
      <defs>
       <path d="M 9.8125 72.90625 
L 51.703125 72.90625 
L 51.703125 64.59375 
L 19.671875 64.59375 
L 19.671875 43.109375 
L 48.578125 43.109375 
L 48.578125 34.8125 
L 19.671875 34.8125 
L 19.671875 0 
L 9.8125 0 
z
" id="DejaVuSans-70"/>
       <path d="M 41.109375 46.296875 
Q 39.59375 47.171875 37.8125 47.578125 
Q 36.03125 48 33.890625 48 
Q 26.265625 48 22.1875 43.046875 
Q 18.109375 38.09375 18.109375 28.8125 
L 18.109375 0 
L 9.078125 0 
L 9.078125 54.6875 
L 18.109375 54.6875 
L 18.109375 46.1875 
Q 20.953125 51.171875 25.484375 53.578125 
Q 30.03125 56 36.53125 56 
Q 37.453125 56 38.578125 55.875 
Q 39.703125 55.765625 41.0625 55.515625 
z
" id="DejaVuSans-114"/>
       <path d="M 48.78125 52.59375 
L 48.78125 44.1875 
Q 44.96875 46.296875 41.140625 47.34375 
Q 37.3125 48.390625 33.40625 48.390625 
Q 24.65625 48.390625 19.8125 42.84375 
Q 14.984375 37.3125 14.984375 27.296875 
Q 14.984375 17.28125 19.8125 11.734375 
Q 24.65625 6.203125 33.40625 6.203125 
Q 37.3125 6.203125 41.140625 7.25 
Q 44.96875 8.296875 48.78125 10.40625 
L 48.78125 2.09375 
Q 45.015625 0.34375 40.984375 -0.53125 
Q 36.96875 -1.421875 32.421875 -1.421875 
Q 20.0625 -1.421875 12.78125 6.34375 
Q 5.515625 14.109375 5.515625 27.296875 
Q 5.515625 40.671875 12.859375 48.328125 
Q 20.21875 56 33.015625 56 
Q 37.15625 56 41.109375 55.140625 
Q 45.0625 54.296875 48.78125 52.59375 
z
" id="DejaVuSans-99"/>
       <path d="M 18.3125 70.21875 
L 18.3125 54.6875 
L 36.8125 54.6875 
L 36.8125 47.703125 
L 18.3125 47.703125 
L 18.3125 18.015625 
Q 18.3125 11.328125 20.140625 9.421875 
Q 21.96875 7.515625 27.59375 7.515625 
L 36.8125 7.515625 
L 36.8125 0 
L 27.59375 0 
Q 17.1875 0 13.234375 3.875 
Q 9.28125 7.765625 9.28125 18.015625 
L 9.28125 47.703125 
L 2.6875 47.703125 
L 2.6875 54.6875 
L 9.28125 54.6875 
L 9.28125 70.21875 
z
" id="DejaVuSans-116"/>
       <path d="M 8.5 21.578125 
L 8.5 54.6875 
L 17.484375 54.6875 
L 17.484375 21.921875 
Q 17.484375 14.15625 20.5 10.265625 
Q 23.53125 6.390625 29.59375 6.390625 
Q 36.859375 6.390625 41.078125 11.03125 
Q 45.3125 15.671875 45.3125 23.6875 
L 45.3125 54.6875 
L 54.296875 54.6875 
L 54.296875 0 
L 45.3125 0 
L 45.3125 8.40625 
Q 42.046875 3.421875 37.71875 1 
Q 33.40625 -1.421875 27.6875 -1.421875 
Q 18.265625 -1.421875 13.375 4.4375 
Q 8.5 10.296875 8.5 21.578125 
z
M 31.109375 56 
z
" id="DejaVuSans-117"/>
       <path d="M 11.71875 12.40625 
L 22.015625 12.40625 
L 22.015625 4 
L 14.015625 -11.625 
L 7.71875 -11.625 
L 11.71875 4 
z
" id="DejaVuSans-44"/>
       <path d="M 18.109375 8.203125 
L 18.109375 -20.796875 
L 9.078125 -20.796875 
L 9.078125 54.6875 
L 18.109375 54.6875 
L 18.109375 46.390625 
Q 20.953125 51.265625 25.265625 53.625 
Q 29.59375 56 35.59375 56 
Q 45.5625 56 51.78125 48.09375 
Q 58.015625 40.1875 58.015625 27.296875 
Q 58.015625 14.40625 51.78125 6.484375 
Q 45.5625 -1.421875 35.59375 -1.421875 
Q 29.59375 -1.421875 25.265625 0.953125 
Q 20.953125 3.328125 18.109375 8.203125 
z
M 48.6875 27.296875 
Q 48.6875 37.203125 44.609375 42.84375 
Q 40.53125 48.484375 33.40625 48.484375 
Q 26.265625 48.484375 22.1875 42.84375 
Q 18.109375 37.203125 18.109375 27.296875 
Q 18.109375 17.390625 22.1875 11.75 
Q 26.265625 6.109375 33.40625 6.109375 
Q 40.53125 6.109375 44.609375 11.75 
Q 48.6875 17.390625 48.6875 27.296875 
z
" id="DejaVuSans-112"/>
      </defs>
      <use xlink:href="#DejaVuSans-70"/>
      <use x="50.269531" xlink:href="#DejaVuSans-114"/>
      <use x="91.382812" xlink:href="#DejaVuSans-97"/>
      <use x="152.662109" xlink:href="#DejaVuSans-99"/>
      <use x="207.642578" xlink:href="#DejaVuSans-116"/>
      <use x="246.851562" xlink:href="#DejaVuSans-105"/>
      <use x="274.634766" xlink:href="#DejaVuSans-111"/>
      <use x="335.816406" xlink:href="#DejaVuSans-110"/>
      <use x="399.195312" xlink:href="#DejaVuSans-32"/>
      <use x="430.982422" xlink:href="#DejaVuSans-111"/>
      <use x="492.164062" xlink:href="#DejaVuSans-102"/>
      <use x="527.369141" xlink:href="#DejaVuSans-32"/>
      <use x="559.15625" xlink:href="#DejaVuSans-102"/>
      <use x="594.361328" xlink:href="#DejaVuSans-117"/>
      <use x="657.740234" xlink:href="#DejaVuSans-110"/>
      <use x="721.119141" xlink:href="#DejaVuSans-99"/>
      <use x="776.099609" xlink:href="#DejaVuSans-116"/>
      <use x="815.308594" xlink:href="#DejaVuSans-105"/>
      <use x="843.091797" xlink:href="#DejaVuSans-111"/>
      <use x="904.273438" xlink:href="#DejaVuSans-110"/>
      <use x="967.652344" xlink:href="#DejaVuSans-44"/>
      <use x="999.439453" xlink:href="#DejaVuSans-116"/>
      <use x="1038.648438" xlink:href="#DejaVuSans-97"/>
      <use x="1099.927734" xlink:href="#DejaVuSans-114"/>
      <use x="1139.291016" xlink:href="#DejaVuSans-103"/>
      <use x="1202.767578" xlink:href="#DejaVuSans-101"/>
      <use x="1264.291016" xlink:href="#DejaVuSans-116"/>
      <use x="1303.5" xlink:href="#DejaVuSans-32"/>
      <use x="1335.287109" xlink:href="#DejaVuSans-112"/>
      <use x="1398.763672" xlink:href="#DejaVuSans-97"/>
      <use x="1460.042969" xlink:href="#DejaVuSans-105"/>
      <use x="1487.826172" xlink:href="#DejaVuSans-114"/>
      <use x="1528.939453" xlink:href="#DejaVuSans-115"/>
     </g>
    </g>
   </g>
   <g id="line2d_29">
    <defs>
     <path d="M 0 1.5 
C 0.397805 1.5 0.77937 1.341951 1.06066 1.06066 
C 1.341951 0.77937 1.5 0.397805 1.5 0 
C 1.5 -0.397805 1.341951 -0.77937 1.06066 -1.06066 
C 0.77937 -1.341951 0.397805 -1.5 0 -1.5 
C -0.397805 -1.5 -0.77937 -1.341951 -1.06066 -1.06066 
C -1.341951 -0.77937 -1.5 -0.397805 -1.5 0 
C -1.5 0.397805 -1.341951 0.77937 -1.06066 1.06066 
C -0.77937 1.341951 -0.397805 1.5 0 1.5 
z
" id="mef6e8bc98b" style="stroke:#000080;"/>
    </defs>
    <g>
     <use style="fill:#000080;stroke:#000080;" x="178.817212" xlink:href="#mef6e8bc98b" y="30.334099"/>
     <use style="fill:#000080;stroke:#000080;" x="178.817212" xlink:href="#mef6e8bc98b" y="30.334099"/>
    </g>
   </g>
   <g id="line2d_30">
    <path d="M 116.914437 298.944 
L 116.914437 298.288854 
L 118.039942 298.288854 
L 118.039942 297.633708 
L 118.576578 297.633708 
L 118.576578 296.323416 
L 119.602714 296.323416 
L 119.602714 295.66827 
L 120.093994 295.66827 
L 120.093994 293.702831 
L 122.782271 293.702831 
L 122.782271 293.047685 
L 123.192626 293.047685 
L 123.192626 291.737393 
L 133.800029 291.737393 
L 133.800029 291.082247 
L 138.426341 291.082247 
L 138.426341 290.427101 
L 140.64889 290.427101 
L 140.64889 289.771955 
L 141.235139 289.771955 
L 141.235139 288.461662 
L 142.486301 288.461662 
L 142.486301 287.806516 
L 142.619936 287.806516 
L 142.619936 287.15137 
L 142.884173 287.15137 
L 142.884173 286.496224 
L 143.902815 286.496224 
L 143.902815 285.841078 
L 144.510517 285.841078 
L 144.510517 285.185932 
L 145.327221 285.185932 
L 145.327221 283.87564 
L 145.777292 283.87564 
L 145.777292 283.220494 
L 146.107383 283.220494 
L 146.107383 282.565348 
L 146.431341 282.565348 
L 146.431341 281.255055 
L 146.644018 281.255055 
L 146.749392 279.944763 
L 147.164632 279.944763 
L 147.164632 279.289617 
L 147.96658 279.289617 
L 147.96658 278.634471 
L 148.449693 278.634471 
L 148.449693 277.979325 
L 149.012299 277.979325 
L 149.012299 277.324179 
L 149.377533 277.324179 
L 149.377533 276.669033 
L 149.557321 276.669033 
L 149.557321 275.35874 
L 149.823575 275.35874 
L 149.823575 272.738156 
L 150.429467 272.738156 
L 150.429467 271.427864 
L 150.598782 271.427864 
L 150.682827 269.462426 
L 150.849711 269.462426 
L 150.932558 268.152133 
L 151.178764 268.152133 
L 151.178764 267.496987 
L 151.340991 267.496987 
L 151.340991 264.221257 
L 152.130233 264.221257 
L 152.130233 262.910965 
L 152.587184 262.910965 
L 152.587184 262.255818 
L 152.885298 262.255818 
L 152.885298 261.600672 
L 153.105587 261.600672 
L 153.178403 260.29038 
L 153.323128 260.29038 
L 153.323128 259.635234 
L 153.466662 259.635234 
L 153.466662 258.980088 
L 153.890309 258.980088 
L 153.890309 258.324942 
L 154.029268 258.324942 
L 154.029268 257.01465 
L 154.167129 257.01465 
L 154.167129 255.704357 
L 154.371897 255.704357 
L 154.371897 253.738919 
L 155.361158 253.738919 
L 155.425155 252.428627 
L 155.741666 252.428627 
L 155.741666 251.773481 
L 155.86668 251.773481 
L 155.86668 251.118335 
L 156.175347 251.118335 
L 156.236431 249.808043 
L 156.297301 249.808043 
L 156.297301 248.49775 
L 156.418408 248.49775 
L 156.418408 247.842604 
L 156.538679 247.842604 
L 156.538679 247.187458 
L 156.658127 247.187458 
L 156.717545 244.566874 
L 156.776762 244.566874 
L 156.776762 243.911728 
L 156.953214 243.911728 
L 156.953214 242.601435 
L 157.358125 242.601435 
L 157.358125 241.946289 
L 157.472107 241.946289 
L 157.528821 239.980851 
L 157.58535 239.980851 
L 157.641697 235.394828 
L 157.920731 235.394828 
L 158.031107 232.774244 
L 158.195371 232.774244 
L 158.304027 229.498513 
L 158.465753 229.498513 
L 158.572743 225.567637 
L 158.67908 225.567637 
L 158.67908 224.912491 
L 158.889829 224.912491 
L 158.994256 222.291906 
L 159.098062 222.291906 
L 159.098062 221.63676 
L 159.252621 221.63676 
L 159.252621 219.671322 
L 159.405822 219.671322 
L 159.405822 219.016176 
L 159.906985 219.016176 
L 159.906985 215.085299 
L 160.680044 215.085299 
L 160.774311 213.119861 
L 160.961329 213.119861 
L 161.007772 209.188984 
L 161.420284 209.188984 
L 161.420284 207.878692 
L 161.689969 207.878692 
L 161.689969 206.5684 
L 161.999419 206.5684 
L 162.086834 203.947816 
L 162.346481 203.947816 
L 162.346481 202.637523 
L 162.644595 202.637523 
L 162.728843 200.672085 
L 162.979172 200.672085 
L 163.061823 198.051501 
L 163.185069 198.051501 
L 163.185069 196.741208 
L 163.307451 196.741208 
L 163.307451 194.77577 
L 163.428979 194.77577 
L 163.50953 192.155186 
L 163.669525 192.155186 
L 163.669525 190.844894 
L 164.024234 190.844894 
L 164.063205 189.534601 
L 164.218222 189.534601 
L 164.218222 188.879455 
L 164.599841 188.879455 
L 164.675172 184.948579 
L 164.824867 184.948579 
L 164.824867 184.293433 
L 165.193576 184.293433 
L 165.193576 182.98314 
L 165.375047 182.98314 
L 165.411116 180.362556 
L 165.59035 180.362556 
L 165.661531 177.086825 
L 165.943384 177.086825 
L 165.943384 173.811095 
L 166.323641 173.811095 
L 166.391896 169.880218 
L 166.527611 169.880218 
L 166.527611 168.569926 
L 166.662278 168.569926 
L 166.7626 165.294196 
L 166.829163 165.294196 
L 166.928532 161.363319 
L 167.0929 161.363319 
L 167.0929 160.053027 
L 167.288118 160.053027 
L 167.352708 158.742735 
L 167.417059 158.742735 
L 167.513144 154.811858 
L 167.576907 154.811858 
L 167.576907 154.156712 
L 167.735303 154.156712 
L 167.735303 153.501566 
L 167.860992 153.501566 
L 167.892273 152.191274 
L 168.01684 152.191274 
L 168.047843 150.880981 
L 168.202038 150.880981 
L 168.202038 149.570689 
L 168.324419 149.570689 
L 168.324419 147.605251 
L 168.506396 147.605251 
L 168.506396 146.294959 
L 168.656606 146.294959 
L 168.746115 141.708936 
L 168.923766 141.708936 
L 168.923766 141.05379 
L 169.041203 141.05379 
L 169.041203 140.398644 
L 169.360135 140.398644 
L 169.417501 139.088352 
L 169.503198 139.088352 
L 169.560096 137.122913 
L 169.701534 137.122913 
L 169.729685 133.192037 
L 169.841835 133.192037 
L 169.897641 129.916306 
L 170.036379 129.916306 
L 170.14658 127.295722 
L 170.174022 127.295722 
L 170.256089 125.330284 
L 170.473066 125.330284 
L 170.553741 124.019991 
L 170.846398 124.019991 
L 170.951613 119.433969 
L 171.003983 119.433969 
L 171.003983 118.778823 
L 171.134225 118.778823 
L 171.237722 116.158238 
L 171.263501 116.158238 
L 171.263501 115.503092 
L 171.569909 115.503092 
L 171.595202 112.227362 
L 171.696007 112.227362 
L 171.796233 107.641339 
L 171.895887 107.641339 
L 171.920711 105.675901 
L 172.361615 105.675901 
L 172.434028 101.745024 
L 172.577957 101.745024 
L 172.60183 99.779586 
L 172.744386 99.779586 
L 172.815229 97.814147 
L 172.862299 97.814147 
L 172.862299 97.159001 
L 172.97942 97.159001 
L 173.072554 91.917832 
L 173.118935 91.917832 
L 173.165193 89.952394 
L 173.303236 89.952394 
L 173.394661 87.986956 
L 173.417442 87.986956 
L 173.485609 85.366371 
L 173.576085 85.366371 
L 173.666095 82.090641 
L 173.844732 82.090641 
L 173.889107 80.125203 
L 173.977519 80.125203 
L 174.065485 76.194326 
L 174.109302 76.194326 
L 174.218366 71.608303 
L 174.369919 71.608303 
L 174.412979 67.677427 
L 174.520166 67.677427 
L 174.520166 65.711988 
L 174.879752 65.711988 
L 174.900675 62.436258 
L 175.08786 62.436258 
L 175.19099 61.125966 
L 175.232072 61.125966 
L 175.313947 59.160527 
L 175.436043 59.160527 
L 175.537141 55.229651 
L 175.577416 55.229651 
L 175.577416 53.919359 
L 175.85677 53.919359 
L 175.896315 51.298774 
L 175.975136 51.298774 
L 176.053603 48.023044 
L 176.24824 48.023044 
L 176.24824 46.057605 
L 176.402401 46.057605 
L 176.402401 44.747313 
L 176.574218 44.747313 
L 176.593204 43.437021 
L 176.687829 43.437021 
L 176.781943 39.506144 
L 176.819447 39.506144 
L 176.819447 38.850998 
L 177.098184 38.850998 
L 177.098184 37.540706 
L 177.226752 37.540706 
L 177.336204 36.230414 
L 177.571019 36.230414 
L 177.571019 35.575268 
L 177.696161 35.575268 
L 177.713965 33.60983 
L 177.92621 33.60983 
L 177.92621 32.954683 
L 178.135904 32.954683 
L 178.239812 30.989245 
L 178.817212 30.989245 
L 178.817212 30.334099 
L 338.688 30.334099 
L 338.688 30.334099 
" style="fill:none;stroke:#000080;stroke-linecap:square;stroke-width:1.5;"/>
   </g>
   <g id="line2d_31">
    <defs>
     <path d="M 0 6 
C 1.591219 6 3.117479 5.367802 4.242641 4.242641 
C 5.367802 3.117479 6 1.591219 6 0 
C 6 -1.591219 5.367802 -3.117479 4.242641 -4.242641 
C 3.117479 -5.367802 1.591219 -6 0 -6 
C -1.591219 -6 -3.117479 -5.367802 -4.242641 -4.242641 
C -5.367802 -3.117479 -6 -1.591219 -6 0 
C -6 1.591219 -5.367802 3.117479 -4.242641 4.242641 
C -3.117479 5.367802 -1.591219 6 0 6 
z
" id="m10b5029fac" style="stroke:#000080;stroke-width:1.5;"/>
    </defs>
    <g>
     <use style="fill-opacity:0;stroke:#000080;stroke-width:1.5;" x="156.658127" xlink:href="#m10b5029fac" y="247.187458"/>
     <use style="fill-opacity:0;stroke:#000080;stroke-width:1.5;" x="172.409924" xlink:href="#m10b5029fac" y="103.055316"/>
     <use style="fill-opacity:0;stroke:#000080;stroke-width:1.5;" x="178.817212" xlink:href="#m10b5029fac" y="30.989245"/>
     <use style="fill-opacity:0;stroke:#000080;stroke-width:1.5;" x="178.817212" xlink:href="#m10b5029fac" y="30.334099"/>
     <use style="fill-opacity:0;stroke:#000080;stroke-width:1.5;" x="338.688" xlink:href="#m10b5029fac" y="30.334099"/>
    </g>
   </g>
   <g id="line2d_32">
    <path style="fill:none;stroke:#000080;stroke-linecap:square;stroke-width:1.5;"/>
    <g/>
   </g>
   <g id="line2d_33">
    <defs>
     <path d="M 0 1.5 
C 0.397805 1.5 0.77937 1.341951 1.06066 1.06066 
C 1.341951 0.77937 1.5 0.397805 1.5 0 
C 1.5 -0.397805 1.341951 -0.77937 1.06066 -1.06066 
C 0.77937 -1.341951 0.397805 -1.5 0 -1.5 
C -0.397805 -1.5 -0.77937 -1.341951 -1.06066 -1.06066 
C -1.341951 -0.77937 -1.5 -0.397805 -1.5 0 
C -1.5 0.397805 -1.341951 0.77937 -1.06066 1.06066 
C -0.77937 1.341951 -0.397805 1.5 0 1.5 
z
" id="m57644491cf" style="stroke:#ff00ff;"/>
    </defs>
    <g>
     <use style="fill:#ff00ff;stroke:#ff00ff;" x="185.67535" xlink:href="#m57644491cf" y="30.334099"/>
     <use style="fill:#ff00ff;stroke:#ff00ff;" x="185.67535" xlink:href="#m57644491cf" y="30.334099"/>
    </g>
   </g>
   <g id="line2d_34">
    <path d="M 57.6 298.944 
L 57.6 297.633708 
L 120.093994 297.633708 
L 120.093994 296.978562 
L 125.822869 296.978562 
L 125.822869 296.323416 
L 135.878591 296.323416 
L 135.878591 295.66827 
L 138.761723 295.66827 
L 138.761723 295.013123 
L 139.253002 295.013123 
L 139.253002 294.357977 
L 140.195896 294.357977 
L 140.195896 293.702831 
L 143.144465 293.702831 
L 143.144465 293.047685 
L 143.273169 293.047685 
L 143.273169 291.737393 
L 143.527762 291.737393 
L 143.527762 291.082247 
L 143.653678 291.082247 
L 143.653678 289.771955 
L 144.026061 289.771955 
L 144.026061 289.116809 
L 144.390658 289.116809 
L 144.390658 287.806516 
L 144.865226 287.806516 
L 144.865226 287.15137 
L 145.097753 287.15137 
L 145.097753 286.496224 
L 145.998045 286.496224 
L 146.107383 284.530786 
L 146.538004 284.530786 
L 146.644018 283.220494 
L 146.749392 283.220494 
L 146.854132 280.599909 
L 147.061745 280.599909 
L 147.061745 279.944763 
L 147.570215 279.944763 
L 147.670154 278.634471 
L 148.354135 278.634471 
L 148.354135 277.979325 
L 148.639252 277.979325 
L 148.639252 277.324179 
L 149.557321 277.324179 
L 149.646525 275.35874 
L 150.849711 275.35874 
L 150.849711 274.703594 
L 151.015013 274.703594 
L 151.097081 272.738156 
L 151.260066 272.738156 
L 151.260066 272.08301 
L 151.740076 272.08301 
L 151.740076 271.427864 
L 152.130233 271.427864 
L 152.130233 270.772718 
L 152.511852 270.772718 
L 152.511852 270.117572 
L 152.811246 270.117572 
L 152.811246 269.462426 
L 153.395042 269.462426 
L 153.395042 268.807279 
L 153.537988 268.807279 
L 153.609024 266.186695 
L 154.098334 266.186695 
L 154.167129 264.876403 
L 154.507086 264.876403 
L 154.507086 262.255818 
L 154.972161 262.255818 
L 155.0376 260.29038 
L 155.167744 260.29038 
L 155.232454 258.980088 
L 155.425155 258.980088 
L 155.488919 257.01465 
L 155.61575 257.01465 
L 155.678822 253.738919 
L 155.928852 253.738919 
L 155.928852 252.428627 
L 156.052535 252.428627 
L 156.052535 251.773481 
L 156.236431 251.773481 
L 156.236431 251.118335 
L 156.357959 251.118335 
L 156.357959 247.187458 
L 156.538679 247.187458 
L 156.538679 246.532312 
L 156.717545 246.532312 
L 156.776762 245.22202 
L 157.069866 245.22202 
L 157.1279 243.911728 
L 157.185742 243.911728 
L 157.185742 243.256582 
L 157.58535 243.256582 
L 157.641697 241.291143 
L 157.920731 241.291143 
L 157.920731 240.635997 
L 158.195371 240.635997 
L 158.304027 239.325705 
L 158.732007 239.325705 
L 158.732007 238.015413 
L 158.889829 238.015413 
L 158.994256 235.394828 
L 159.303838 235.394828 
L 159.405822 234.084536 
L 159.456591 234.084536 
L 159.456591 232.119098 
L 159.708245 232.119098 
L 159.708245 231.463952 
L 159.857512 231.463952 
L 159.906985 230.15366 
L 160.103486 230.15366 
L 160.200913 228.188221 
L 160.537682 228.188221 
L 160.585265 226.877929 
L 160.680044 226.877929 
L 160.680044 226.222783 
L 161.100288 226.222783 
L 161.192316 223.602199 
L 161.238149 223.602199 
L 161.283861 220.981614 
L 161.420284 220.981614 
L 161.465522 218.36103 
L 161.555647 218.36103 
L 161.600536 216.395591 
L 161.734513 216.395591 
L 161.823263 215.085299 
L 162.086834 215.085299 
L 162.086834 214.430153 
L 162.346481 214.430153 
L 162.389382 212.464715 
L 162.644595 212.464715 
L 162.644595 211.809569 
L 162.896128 211.809569 
L 162.896128 211.154423 
L 163.061823 211.154423 
L 163.144084 209.188984 
L 163.225959 209.188984 
L 163.225959 207.878692 
L 163.388564 207.878692 
L 163.428979 205.913254 
L 163.50953 205.913254 
L 163.50953 204.602962 
L 163.709295 204.602962 
L 163.709295 203.947816 
L 163.828065 203.947816 
L 163.867476 202.637523 
L 164.256762 202.637523 
L 164.333587 200.672085 
L 164.371873 200.672085 
L 164.410075 198.706647 
L 164.486229 198.706647 
L 164.486229 198.051501 
L 164.599841 198.051501 
L 164.637547 195.430916 
L 164.787563 195.430916 
L 164.787563 194.77577 
L 165.083779 194.77577 
L 165.083779 193.465478 
L 165.302685 193.465478 
L 165.375047 192.155186 
L 165.518877 192.155186 
L 165.518877 191.50004 
L 165.838222 191.50004 
L 165.873346 188.879455 
L 166.047915 188.879455 
L 166.047915 187.569163 
L 166.255117 187.569163 
L 166.357802 183.638286 
L 166.425924 183.638286 
L 166.425924 182.98314 
L 166.595075 182.98314 
L 166.695783 181.017702 
L 166.729224 181.017702 
L 166.829163 178.397118 
L 166.928532 178.397118 
L 166.928532 177.741972 
L 167.06015 177.741972 
L 167.06015 175.121387 
L 167.223287 175.121387 
L 167.320442 171.190511 
L 167.384913 171.190511 
L 167.449146 169.225072 
L 167.545055 169.225072 
L 167.545055 167.91478 
L 167.703739 167.91478 
L 167.76681 164.63905 
L 167.923499 164.63905 
L 167.923499 163.983903 
L 168.047843 163.983903 
L 168.109685 161.363319 
L 168.171308 161.363319 
L 168.263336 157.432442 
L 168.385289 157.432442 
L 168.476198 154.811858 
L 168.536542 154.811858 
L 168.596677 152.84642 
L 168.805533 152.84642 
L 168.86475 151.536128 
L 169.128764 151.536128 
L 169.128764 150.880981 
L 169.388841 150.880981 
L 169.446113 146.950105 
L 169.616809 146.950105 
L 169.616809 145.639813 
L 170.008719 145.639813 
L 170.091567 144.32952 
L 170.201421 144.32952 
L 170.310587 142.364082 
L 170.337772 142.364082 
L 170.337772 141.05379 
L 170.660731 141.05379 
L 170.767069 138.433206 
L 170.793552 138.433206 
L 170.872762 135.812621 
L 171.056197 135.812621 
L 171.056197 135.157475 
L 171.263501 135.157475 
L 171.314944 133.192037 
L 171.49381 133.192037 
L 171.519214 131.881745 
L 171.8212 131.881745 
L 171.920711 129.916306 
L 171.945501 129.916306 
L 171.945501 129.26116 
L 172.118046 129.26116 
L 172.142557 125.98543 
L 172.264595 125.98543 
L 172.264595 125.330284 
L 172.385786 125.330284 
L 172.434028 124.019991 
L 172.506141 124.019991 
L 172.577957 120.089115 
L 172.696997 120.089115 
L 172.791647 118.123676 
L 172.862299 118.123676 
L 172.956059 115.503092 
L 173.188276 115.503092 
L 173.234351 114.1928 
L 173.349008 114.1928 
L 173.417442 111.572215 
L 173.508272 111.572215 
L 173.530906 109.606777 
L 173.710926 109.606777 
L 173.710926 108.951631 
L 173.822502 108.951631 
L 173.911252 105.675901 
L 173.955458 105.675901 
L 173.955458 105.020754 
L 174.47737 105.020754 
L 174.47737 104.365608 
L 174.711458 104.365608 
L 174.732584 103.055316 
L 174.900675 103.055316 
L 174.921573 101.745024 
L 175.025688 101.745024 
L 175.025688 101.089878 
L 175.149812 101.089878 
L 175.211544 99.12444 
L 175.313947 99.12444 
L 175.354741 97.159001 
L 175.436043 97.159001 
L 175.436043 96.503855 
L 175.637655 96.503855 
L 175.637655 95.848709 
L 175.93577 95.848709 
L 176.014414 94.538417 
L 176.073165 94.538417 
L 176.170646 91.917832 
L 176.24824 91.917832 
L 176.30621 90.60754 
L 176.383205 90.60754 
L 176.478973 88.642102 
L 176.593204 88.642102 
L 176.668945 87.33181 
L 176.706692 87.33181 
L 176.706692 86.676664 
L 176.819447 86.676664 
L 176.819447 86.021518 
L 176.968661 86.021518 
L 177.005766 84.711225 
L 177.135015 84.711225 
L 177.135015 84.056079 
L 177.336204 84.056079 
L 177.336204 81.435495 
L 177.48108 81.435495 
L 177.588952 78.81491 
L 177.606866 78.81491 
L 177.606866 78.159764 
L 177.820411 78.159764 
L 177.891015 73.573742 
L 177.961335 73.573742 
L 178.031372 71.608303 
L 178.083716 71.608303 
L 178.135904 69.642865 
L 178.205245 69.642865 
L 178.274311 68.332573 
L 178.325932 68.332573 
L 178.394524 65.711988 
L 178.58177 65.711988 
L 178.649364 63.74655 
L 178.8005 63.74655 
L 178.8005 63.091404 
L 178.933752 63.091404 
L 179.01652 61.781112 
L 179.180888 61.781112 
L 179.27877 59.815674 
L 179.343721 59.815674 
L 179.376106 57.850235 
L 179.569163 57.850235 
L 179.617095 55.884797 
L 179.712566 55.884797 
L 179.823292 53.264213 
L 179.933319 53.264213 
L 180.011487 51.95392 
L 180.07377 51.95392 
L 180.07377 51.298774 
L 180.259296 51.298774 
L 180.290026 49.333336 
L 180.774482 49.333336 
L 180.774482 48.67819 
L 180.982272 48.67819 
L 181.055886 46.057605 
L 181.158427 46.057605 
L 181.187615 44.747313 
L 181.289386 44.747313 
L 181.376149 43.437021 
L 181.404974 43.437021 
L 181.462482 42.126729 
L 181.747212 42.126729 
L 181.803604 40.161291 
L 181.887852 40.161291 
L 181.887852 39.506144 
L 181.999553 39.506144 
L 182.041257 38.195852 
L 182.234569 38.195852 
L 182.234569 37.540706 
L 182.547572 37.540706 
L 182.601439 36.230414 
L 182.668539 36.230414 
L 182.668539 34.920122 
L 182.92119 34.920122 
L 183.00022 33.60983 
L 183.68319 33.60983 
L 183.68319 32.954683 
L 184.279463 32.954683 
L 184.279463 32.299537 
L 184.473775 32.299537 
L 184.473775 31.644391 
L 184.689818 31.644391 
L 184.689818 30.989245 
L 185.67535 30.989245 
L 185.67535 30.334099 
L 338.688 30.334099 
L 338.688 30.334099 
" style="fill:none;stroke:#ff00ff;stroke-linecap:square;stroke-width:1.5;"/>
   </g>
   <g id="line2d_35">
    <defs>
     <path d="M -0 8.485281 
L 5.091169 0 
L 0 -8.485281 
L -5.091169 -0 
z
" id="mab3d5de9e1" style="stroke:#ff00ff;stroke-linejoin:miter;stroke-width:1.5;"/>
    </defs>
    <g>
     <use style="fill-opacity:0;stroke:#ff00ff;stroke-linejoin:miter;stroke-width:1.5;" x="147.670154" xlink:href="#mab3d5de9e1" y="279.289617"/>
     <use style="fill-opacity:0;stroke:#ff00ff;stroke-linejoin:miter;stroke-width:1.5;" x="183.00022" xlink:href="#mab3d5de9e1" y="34.264976"/>
     <use style="fill-opacity:0;stroke:#ff00ff;stroke-linejoin:miter;stroke-width:1.5;" x="185.67535" xlink:href="#mab3d5de9e1" y="30.334099"/>
     <use style="fill-opacity:0;stroke:#ff00ff;stroke-linejoin:miter;stroke-width:1.5;" x="185.67535" xlink:href="#mab3d5de9e1" y="30.334099"/>
     <use style="fill-opacity:0;stroke:#ff00ff;stroke-linejoin:miter;stroke-width:1.5;" x="338.688" xlink:href="#mab3d5de9e1" y="30.334099"/>
    </g>
   </g>
   <g id="line2d_36">
    <path style="fill:none;stroke:#ff00ff;stroke-linecap:square;stroke-width:1.5;"/>
    <g/>
   </g>
   <g id="line2d_37">
    <defs>
     <path d="M 0 1.5 
C 0.397805 1.5 0.77937 1.341951 1.06066 1.06066 
C 1.341951 0.77937 1.5 0.397805 1.5 0 
C 1.5 -0.397805 1.341951 -0.77937 1.06066 -1.06066 
C 0.77937 -1.341951 0.397805 -1.5 0 -1.5 
C -0.397805 -1.5 -0.77937 -1.341951 -1.06066 -1.06066 
C -1.341951 -0.77937 -1.5 -0.397805 -1.5 0 
C -1.5 0.397805 -1.341951 0.77937 -1.06066 1.06066 
C -0.77937 1.341951 -0.397805 1.5 0 1.5 
z
" id="m100bd49835" style="stroke:#ff7500;"/>
    </defs>
    <g>
     <use style="fill:#ff7500;stroke:#ff7500;" x="179.440696" xlink:href="#m100bd49835" y="30.334099"/>
     <use style="fill:#ff7500;stroke:#ff7500;" x="179.440696" xlink:href="#m100bd49835" y="30.334099"/>
    </g>
   </g>
   <g id="line2d_38">
    <path d="M 85.66744 298.944 
L 85.66744 298.288854 
L 105.951954 298.288854 
L 105.951954 296.978562 
L 113.022974 296.978562 
L 113.022974 296.323416 
L 114.418861 296.323416 
L 114.418861 294.357977 
L 125.822869 294.357977 
L 125.822869 293.702831 
L 126.839037 293.702831 
L 126.839037 293.047685 
L 129.853291 293.047685 
L 129.853291 291.737393 
L 131.938072 291.737393 
L 131.938072 290.427101 
L 133.352844 290.427101 
L 133.352844 289.771955 
L 137.198951 289.771955 
L 137.198951 288.461662 
L 138.256201 288.461662 
L 138.256201 287.15137 
L 138.761723 287.15137 
L 138.761723 286.496224 
L 140.042245 286.496224 
L 140.042245 285.841078 
L 141.378673 285.841078 
L 141.378673 284.530786 
L 142.07914 284.530786 
L 142.07914 283.87564 
L 142.752555 283.87564 
L 142.752555 283.220494 
L 143.014805 283.220494 
L 143.014805 282.565348 
L 143.144465 282.565348 
L 143.144465 281.910201 
L 143.653678 281.910201 
L 143.653678 281.255055 
L 144.269971 281.255055 
L 144.269971 279.944763 
L 144.510517 279.944763 
L 144.510517 279.289617 
L 144.629556 279.289617 
L 144.629556 278.634471 
L 145.440832 278.634471 
L 145.440832 277.979325 
L 147.570215 277.979325 
L 147.570215 277.324179 
L 147.86833 277.324179 
L 147.86833 276.669033 
L 148.639252 276.669033 
L 148.639252 274.703594 
L 149.557321 274.703594 
L 149.557321 274.048448 
L 149.735275 274.048448 
L 149.823575 272.738156 
L 150.085825 272.738156 
L 150.172372 270.117572 
L 150.51433 270.117572 
L 150.51433 266.841841 
L 150.766468 266.841841 
L 150.766468 265.531549 
L 151.740076 265.531549 
L 151.818809 264.221257 
L 152.130233 264.221257 
L 152.130233 262.910965 
L 152.283884 262.910965 
L 152.283884 261.600672 
L 152.511852 261.600672 
L 152.587184 259.635234 
L 153.032466 259.635234 
L 153.105587 258.324942 
L 153.250915 258.324942 
L 153.250915 257.669796 
L 153.395042 257.669796 
L 153.395042 255.704357 
L 153.679772 255.704357 
L 153.679772 255.049211 
L 153.959927 255.049211 
L 153.959927 253.738919 
L 154.098334 253.738919 
L 154.098334 252.428627 
L 154.303908 252.428627 
L 154.303908 251.773481 
L 154.507086 251.773481 
L 154.507086 249.152896 
L 154.77436 249.152896 
L 154.840544 247.842604 
L 154.972161 247.842604 
L 154.972161 247.187458 
L 155.61575 247.187458 
L 155.61575 246.532312 
L 155.741666 246.532312 
L 155.804285 243.911728 
L 155.928852 243.911728 
L 155.928852 242.601435 
L 156.297301 242.601435 
L 156.357959 239.980851 
L 156.717545 239.980851 
L 156.717545 239.325705 
L 157.011638 239.325705 
L 157.011638 238.015413 
L 157.185742 238.015413 
L 157.243392 236.705121 
L 157.415209 236.705121 
L 157.415209 236.049974 
L 157.86528 236.049974 
L 157.920731 233.42939 
L 158.031107 233.42939 
L 158.031107 232.774244 
L 158.249784 232.774244 
L 158.358103 231.463952 
L 158.465753 231.463952 
L 158.465753 230.808806 
L 158.625992 230.808806 
L 158.625992 229.498513 
L 158.83738 229.498513 
L 158.889829 228.188221 
L 158.994256 228.188221 
L 159.046236 226.222783 
L 159.201253 226.222783 
L 159.201253 225.567637 
L 159.405822 225.567637 
L 159.456591 222.947052 
L 159.608019 222.947052 
L 159.608019 222.291906 
L 159.758143 222.291906 
L 159.857512 220.981614 
L 159.906985 220.981614 
L 159.906985 220.326468 
L 160.442124 220.326468 
L 160.489968 213.775007 
L 160.680044 213.775007 
L 160.774311 209.84413 
L 160.821253 209.84413 
L 160.821253 208.533838 
L 161.007772 208.533838 
L 161.007772 206.5684 
L 161.192316 206.5684 
L 161.192316 205.258108 
L 161.64531 205.258108 
L 161.734513 202.637523 
L 161.778945 202.637523 
L 161.823263 201.327231 
L 162.130378 201.327231 
L 162.130378 200.672085 
L 162.346481 200.672085 
L 162.389382 195.430916 
L 162.559939 195.430916 
L 162.559939 194.77577 
L 162.979172 194.77577 
L 162.979172 193.465478 
L 163.185069 193.465478 
L 163.266752 192.155186 
L 163.307451 192.155186 
L 163.307451 190.844894 
L 163.428979 190.844894 
L 163.50953 188.224309 
L 163.549667 188.224309 
L 163.549667 187.569163 
L 163.669525 187.569163 
L 163.748975 185.603725 
L 164.063205 185.603725 
L 164.063205 184.293433 
L 164.295217 184.293433 
L 164.295217 182.327994 
L 164.562052 182.327994 
L 164.637547 178.397118 
L 164.675172 178.397118 
L 164.675172 177.741972 
L 164.787563 177.741972 
L 164.787563 177.086825 
L 165.120455 177.086825 
L 165.120455 176.431679 
L 165.302685 176.431679 
L 165.375047 175.121387 
L 165.447111 175.121387 
L 165.447111 173.811095 
L 165.625977 173.811095 
L 165.661531 171.845657 
L 165.873346 171.845657 
L 165.978297 168.569926 
L 166.013141 168.569926 
L 166.117256 166.604488 
L 166.323641 166.604488 
L 166.425924 161.363319 
L 166.459886 161.363319 
L 166.561376 158.742735 
L 166.595075 158.742735 
L 166.662278 156.777296 
L 166.7626 156.777296 
L 166.829163 152.84642 
L 166.895472 152.84642 
L 166.96153 151.536128 
L 167.0929 151.536128 
L 167.158215 149.570689 
L 167.576907 149.570689 
L 167.672117 147.605251 
L 167.798261 147.605251 
L 167.892273 144.984667 
L 167.954668 144.984667 
L 168.047843 140.398644 
L 168.109685 140.398644 
L 168.109685 139.743498 
L 168.445948 139.743498 
L 168.506396 135.812621 
L 168.686493 135.812621 
L 168.77585 134.502329 
L 168.923766 134.502329 
L 168.923766 133.847183 
L 169.360135 133.847183 
L 169.417501 132.536891 
L 169.53167 132.536891 
L 169.588476 129.26116 
L 169.701534 129.26116 
L 169.701534 127.950868 
L 169.86976 127.950868 
L 169.86976 126.640576 
L 169.981016 126.640576 
L 170.091567 120.744261 
L 170.174022 120.744261 
L 170.28336 114.1928 
L 170.310587 114.1928 
L 170.364915 110.917069 
L 170.553741 110.917069 
L 170.660731 109.606777 
L 170.819995 109.606777 
L 170.819995 108.951631 
L 171.134225 108.951631 
L 171.18605 106.331047 
L 171.314944 106.331047 
L 171.314944 102.40017 
L 171.49381 102.40017 
L 171.54458 100.434732 
L 171.645677 100.434732 
L 171.645677 99.12444 
L 171.8212 99.12444 
L 171.846131 96.503855 
L 171.994974 96.503855 
L 172.044307 94.538417 
L 172.118046 94.538417 
L 172.142557 93.228125 
L 172.240256 93.228125 
L 172.240256 91.917832 
L 172.361615 91.917832 
L 172.458099 87.986956 
L 172.482136 87.986956 
L 172.482136 86.676664 
L 172.62567 86.676664 
L 172.696997 82.745787 
L 172.744386 82.745787 
L 172.815229 80.125203 
L 173.026049 80.125203 
L 173.026049 79.470057 
L 173.303236 79.470057 
L 173.394661 77.504618 
L 173.440194 77.504618 
L 173.508272 76.194326 
L 173.598631 76.194326 
L 173.666095 74.228888 
L 173.777957 74.228888 
L 173.800244 72.918596 
L 173.977519 72.918596 
L 173.977519 68.987719 
L 174.283479 68.987719 
L 174.391462 67.677427 
L 174.412979 67.677427 
L 174.412979 65.711988 
L 174.541525 65.711988 
L 174.584164 61.125966 
L 174.774759 61.125966 
L 174.774759 60.47082 
L 174.984116 60.47082 
L 174.984116 59.815674 
L 175.415753 59.815674 
L 175.415753 59.160527 
L 175.537141 59.160527 
L 175.537141 58.505381 
L 175.817135 58.505381 
L 175.85677 55.229651 
L 176.190077 55.229651 
L 176.286908 47.367898 
L 176.383205 47.367898 
L 176.459861 46.057605 
L 176.706692 46.057605 
L 176.800705 41.471583 
L 176.819447 41.471583 
L 176.819447 40.816437 
L 176.931477 40.816437 
L 176.931477 39.506144 
L 177.517111 39.506144 
L 177.588952 37.540706 
L 177.767269 37.540706 
L 177.767269 36.88556 
L 178.013889 36.88556 
L 178.083716 35.575268 
L 178.170609 35.575268 
L 178.170609 34.920122 
L 178.513913 34.920122 
L 178.513913 34.264976 
L 178.867253 34.264976 
L 178.933752 30.989245 
L 179.440696 30.989245 
L 179.440696 30.334099 
L 338.688 30.334099 
L 338.688 30.334099 
" style="fill:none;stroke:#ff7500;stroke-linecap:square;stroke-width:1.5;"/>
   </g>
   <g id="line2d_39">
    <defs>
     <path d="M 0 -6 
L -1.347084 -1.854102 
L -5.706339 -1.854102 
L -2.179628 0.708204 
L -3.526712 4.854102 
L -0 2.291796 
L 3.526712 4.854102 
L 2.179628 0.708204 
L 5.706339 -1.854102 
L 1.347084 -1.854102 
z
" id="m02641acebf" style="stroke:#ff7500;stroke-linejoin:bevel;stroke-width:1.5;"/>
    </defs>
    <g>
     <use style="fill-opacity:0;stroke:#ff7500;stroke-linejoin:bevel;stroke-width:1.5;" x="141.378673" xlink:href="#m02641acebf" y="285.841078"/>
     <use style="fill-opacity:0;stroke:#ff7500;stroke-linejoin:bevel;stroke-width:1.5;" x="171.54458" xlink:href="#m02641acebf" y="101.745024"/>
     <use style="fill-opacity:0;stroke:#ff7500;stroke-linejoin:bevel;stroke-width:1.5;" x="179.440696" xlink:href="#m02641acebf" y="30.989245"/>
     <use style="fill-opacity:0;stroke:#ff7500;stroke-linejoin:bevel;stroke-width:1.5;" x="179.440696" xlink:href="#m02641acebf" y="30.334099"/>
     <use style="fill-opacity:0;stroke:#ff7500;stroke-linejoin:bevel;stroke-width:1.5;" x="338.688" xlink:href="#m02641acebf" y="30.334099"/>
    </g>
   </g>
   <g id="line2d_40">
    <path style="fill:none;stroke:#ff7500;stroke-linecap:square;stroke-width:1.5;"/>
    <g/>
   </g>
   <g id="line2d_41">
    <path d="M 338.688 30.334099 
L 369.60768 293.571802 
" style="fill:none;stroke:#ff00ff;stroke-linecap:square;stroke-width:1.5;"/>
    <g>
     <use style="fill-opacity:0;stroke:#ff00ff;stroke-linejoin:miter;stroke-width:1.5;" x="338.688" xlink:href="#mab3d5de9e1" y="30.334099"/>
     <use style="fill-opacity:0;stroke:#ff00ff;stroke-linejoin:miter;stroke-width:1.5;" x="369.60768" xlink:href="#mab3d5de9e1" y="293.571802"/>
    </g>
   </g>
   <g id="line2d_42">
    <path d="M 338.688 30.334099 
L 369.60768 164.63905 
" style="fill:none;stroke:#ff7500;stroke-linecap:square;stroke-width:1.5;"/>
    <g>
     <use style="fill-opacity:0;stroke:#ff7500;stroke-linejoin:bevel;stroke-width:1.5;" x="338.688" xlink:href="#m02641acebf" y="30.334099"/>
     <use style="fill-opacity:0;stroke:#ff7500;stroke-linejoin:bevel;stroke-width:1.5;" x="369.60768" xlink:href="#m02641acebf" y="164.63905"/>
    </g>
   </g>
   <g id="line2d_43">
    <path d="M 338.688 30.334099 
L 369.60768 35.706297 
" style="fill:none;stroke:#000080;stroke-linecap:square;stroke-width:1.5;"/>
    <g>
     <use style="fill-opacity:0;stroke:#000080;stroke-width:1.5;" x="338.688" xlink:href="#m10b5029fac" y="30.334099"/>
     <use style="fill-opacity:0;stroke:#000080;stroke-width:1.5;" x="369.60768" xlink:href="#m10b5029fac" y="35.706297"/>
    </g>
   </g>
   <g id="line2d_44">
    <path d="M 338.688 298.944 
L 338.688 30.334099 
" style="fill:none;stroke:#000000;stroke-linecap:square;stroke-width:1.5;"/>
   </g>
   <g id="patch_3">
    <path d="M 57.6 298.944 
L 57.6 27.648 
" style="fill:none;stroke:#000000;stroke-linecap:square;stroke-linejoin:miter;stroke-width:0.8;"/>
   </g>
   <g id="patch_4">
    <path d="M 338.688 298.944 
L 338.688 27.648 
" style="fill:none;stroke:#000000;stroke-linecap:square;stroke-linejoin:miter;stroke-width:0.8;"/>
   </g>
   <g id="patch_5">
    <path d="M 57.6 298.944 
L 338.688 298.944 
" style="fill:none;stroke:#000000;stroke-linecap:square;stroke-linejoin:miter;stroke-width:0.8;"/>
   </g>
   <g id="patch_6">
    <path d="M 57.6 27.648 
L 338.688 27.648 
" style="fill:none;stroke:#000000;stroke-linecap:square;stroke-linejoin:miter;stroke-width:0.8;"/>
   </g>
   <g id="text_13">
    <!-- OLD+NODGA -->
    <g transform="translate(375.22944 298.262739)scale(0.17 -0.17)">
     <defs>
      <path d="M 39.40625 66.21875 
Q 28.65625 66.21875 22.328125 58.203125 
Q 16.015625 50.203125 16.015625 36.375 
Q 16.015625 22.609375 22.328125 14.59375 
Q 28.65625 6.59375 39.40625 6.59375 
Q 50.140625 6.59375 56.421875 14.59375 
Q 62.703125 22.609375 62.703125 36.375 
Q 62.703125 50.203125 56.421875 58.203125 
Q 50.140625 66.21875 39.40625 66.21875 
z
M 39.40625 74.21875 
Q 54.734375 74.21875 63.90625 63.9375 
Q 73.09375 53.65625 73.09375 36.375 
Q 73.09375 19.140625 63.90625 8.859375 
Q 54.734375 -1.421875 39.40625 -1.421875 
Q 24.03125 -1.421875 14.8125 8.828125 
Q 5.609375 19.09375 5.609375 36.375 
Q 5.609375 53.65625 14.8125 63.9375 
Q 24.03125 74.21875 39.40625 74.21875 
z
" id="DejaVuSans-79"/>
      <path d="M 9.8125 72.90625 
L 19.671875 72.90625 
L 19.671875 8.296875 
L 55.171875 8.296875 
L 55.171875 0 
L 9.8125 0 
z
" id="DejaVuSans-76"/>
      <path d="M 19.671875 64.796875 
L 19.671875 8.109375 
L 31.59375 8.109375 
Q 46.6875 8.109375 53.6875 14.9375 
Q 60.6875 21.78125 60.6875 36.53125 
Q 60.6875 51.171875 53.6875 57.984375 
Q 46.6875 64.796875 31.59375 64.796875 
z
M 9.8125 72.90625 
L 30.078125 72.90625 
Q 51.265625 72.90625 61.171875 64.09375 
Q 71.09375 55.28125 71.09375 36.53125 
Q 71.09375 17.671875 61.125 8.828125 
Q 51.171875 0 30.078125 0 
L 9.8125 0 
z
" id="DejaVuSans-68"/>
      <path d="M 9.8125 72.90625 
L 23.09375 72.90625 
L 55.421875 11.921875 
L 55.421875 72.90625 
L 64.984375 72.90625 
L 64.984375 0 
L 51.703125 0 
L 19.390625 60.984375 
L 19.390625 0 
L 9.8125 0 
z
" id="DejaVuSans-78"/>
      <path d="M 59.515625 10.40625 
L 59.515625 29.984375 
L 43.40625 29.984375 
L 43.40625 38.09375 
L 69.28125 38.09375 
L 69.28125 6.78125 
Q 63.578125 2.734375 56.6875 0.65625 
Q 49.8125 -1.421875 42 -1.421875 
Q 24.90625 -1.421875 15.25 8.5625 
Q 5.609375 18.5625 5.609375 36.375 
Q 5.609375 54.25 15.25 64.234375 
Q 24.90625 74.21875 42 74.21875 
Q 49.125 74.21875 55.546875 72.453125 
Q 61.96875 70.703125 67.390625 67.28125 
L 67.390625 56.78125 
Q 61.921875 61.421875 55.765625 63.765625 
Q 49.609375 66.109375 42.828125 66.109375 
Q 29.4375 66.109375 22.71875 58.640625 
Q 16.015625 51.171875 16.015625 36.375 
Q 16.015625 21.625 22.71875 14.15625 
Q 29.4375 6.6875 42.828125 6.6875 
Q 48.046875 6.6875 52.140625 7.59375 
Q 56.25 8.5 59.515625 10.40625 
z
" id="DejaVuSans-71"/>
      <path d="M 34.1875 63.1875 
L 20.796875 26.90625 
L 47.609375 26.90625 
z
M 28.609375 72.90625 
L 39.796875 72.90625 
L 67.578125 0 
L 57.328125 0 
L 50.6875 18.703125 
L 17.828125 18.703125 
L 11.1875 0 
L 0.78125 0 
z
" id="DejaVuSans-65"/>
     </defs>
     <use xlink:href="#DejaVuSans-79"/>
     <use x="78.710938" xlink:href="#DejaVuSans-76"/>
     <use x="134.423828" xlink:href="#DejaVuSans-68"/>
     <use x="211.425781" xlink:href="#DejaVuSans-43"/>
     <use x="295.214844" xlink:href="#DejaVuSans-78"/>
     <use x="370.019531" xlink:href="#DejaVuSans-79"/>
     <use x="448.730469" xlink:href="#DejaVuSans-68"/>
     <use x="525.732422" xlink:href="#DejaVuSans-71"/>
     <use x="603.222656" xlink:href="#DejaVuSans-65"/>
    </g>
   </g>
   <g id="text_14">
    <!-- NEW+DGAM -->
    <g transform="translate(375.22944 169.329987)scale(0.17 -0.17)">
     <defs>
      <path d="M 9.8125 72.90625 
L 55.90625 72.90625 
L 55.90625 64.59375 
L 19.671875 64.59375 
L 19.671875 43.015625 
L 54.390625 43.015625 
L 54.390625 34.71875 
L 19.671875 34.71875 
L 19.671875 8.296875 
L 56.78125 8.296875 
L 56.78125 0 
L 9.8125 0 
z
" id="DejaVuSans-69"/>
      <path d="M 3.328125 72.90625 
L 13.28125 72.90625 
L 28.609375 11.28125 
L 43.890625 72.90625 
L 54.984375 72.90625 
L 70.3125 11.28125 
L 85.59375 72.90625 
L 95.609375 72.90625 
L 77.296875 0 
L 64.890625 0 
L 49.515625 63.28125 
L 33.984375 0 
L 21.578125 0 
z
" id="DejaVuSans-87"/>
      <path d="M 9.8125 72.90625 
L 24.515625 72.90625 
L 43.109375 23.296875 
L 61.8125 72.90625 
L 76.515625 72.90625 
L 76.515625 0 
L 66.890625 0 
L 66.890625 64.015625 
L 48.09375 14.015625 
L 38.1875 14.015625 
L 19.390625 64.015625 
L 19.390625 0 
L 9.8125 0 
z
" id="DejaVuSans-77"/>
     </defs>
     <use xlink:href="#DejaVuSans-78"/>
     <use x="74.804688" xlink:href="#DejaVuSans-69"/>
     <use x="137.988281" xlink:href="#DejaVuSans-87"/>
     <use x="236.865234" xlink:href="#DejaVuSans-43"/>
     <use x="320.654297" xlink:href="#DejaVuSans-68"/>
     <use x="397.65625" xlink:href="#DejaVuSans-71"/>
     <use x="475.146484" xlink:href="#DejaVuSans-65"/>
     <use x="543.554688" xlink:href="#DejaVuSans-77"/>
    </g>
   </g>
   <g id="text_15">
    <!-- OLD+DGAM -->
    <g transform="translate(375.22944 40.397235)scale(0.17 -0.17)">
     <use xlink:href="#DejaVuSans-79"/>
     <use x="78.710938" xlink:href="#DejaVuSans-76"/>
     <use x="134.423828" xlink:href="#DejaVuSans-68"/>
     <use x="211.425781" xlink:href="#DejaVuSans-43"/>
     <use x="295.214844" xlink:href="#DejaVuSans-68"/>
     <use x="372.216797" xlink:href="#DejaVuSans-71"/>
     <use x="449.707031" xlink:href="#DejaVuSans-65"/>
     <use x="518.115234" xlink:href="#DejaVuSans-77"/>
    </g>
   </g>
   <g id="text_16">
    <!-- bbob-constrained f12, 2-D -->
    <g transform="translate(60.41088 38.111366)scale(0.102 -0.102)">
     <defs>
      <path d="M 48.6875 27.296875 
Q 48.6875 37.203125 44.609375 42.84375 
Q 40.53125 48.484375 33.40625 48.484375 
Q 26.265625 48.484375 22.1875 42.84375 
Q 18.109375 37.203125 18.109375 27.296875 
Q 18.109375 17.390625 22.1875 11.75 
Q 26.265625 6.109375 33.40625 6.109375 
Q 40.53125 6.109375 44.609375 11.75 
Q 48.6875 17.390625 48.6875 27.296875 
z
M 18.109375 46.390625 
Q 20.953125 51.265625 25.265625 53.625 
Q 29.59375 56 35.59375 56 
Q 45.5625 56 51.78125 48.09375 
Q 58.015625 40.1875 58.015625 27.296875 
Q 58.015625 14.40625 51.78125 6.484375 
Q 45.5625 -1.421875 35.59375 -1.421875 
Q 29.59375 -1.421875 25.265625 0.953125 
Q 20.953125 3.328125 18.109375 8.203125 
L 18.109375 0 
L 9.078125 0 
L 9.078125 75.984375 
L 18.109375 75.984375 
z
" id="DejaVuSans-98"/>
     </defs>
     <use xlink:href="#DejaVuSans-98"/>
     <use x="63.476562" xlink:href="#DejaVuSans-98"/>
     <use x="126.953125" xlink:href="#DejaVuSans-111"/>
     <use x="188.134766" xlink:href="#DejaVuSans-98"/>
     <use x="251.611328" xlink:href="#DejaVuSans-45"/>
     <use x="287.695312" xlink:href="#DejaVuSans-99"/>
     <use x="342.675781" xlink:href="#DejaVuSans-111"/>
     <use x="403.857422" xlink:href="#DejaVuSans-110"/>
     <use x="467.236328" xlink:href="#DejaVuSans-115"/>
     <use x="519.335938" xlink:href="#DejaVuSans-116"/>
     <use x="558.544922" xlink:href="#DejaVuSans-114"/>
     <use x="599.658203" xlink:href="#DejaVuSans-97"/>
     <use x="660.9375" xlink:href="#DejaVuSans-105"/>
     <use x="688.720703" xlink:href="#DejaVuSans-110"/>
     <use x="752.099609" xlink:href="#DejaVuSans-101"/>
     <use x="813.623047" xlink:href="#DejaVuSans-100"/>
     <use x="877.099609" xlink:href="#DejaVuSans-32"/>
     <use x="908.886719" xlink:href="#DejaVuSans-102"/>
     <use x="944.091797" xlink:href="#DejaVuSans-49"/>
     <use x="1007.714844" xlink:href="#DejaVuSans-50"/>
     <use x="1071.337891" xlink:href="#DejaVuSans-44"/>
     <use x="1103.125" xlink:href="#DejaVuSans-32"/>
     <use x="1134.912109" xlink:href="#DejaVuSans-50"/>
     <use x="1198.535156" xlink:href="#DejaVuSans-45"/>
     <use x="1234.619141" xlink:href="#DejaVuSans-68"/>
    </g>
    <!-- 41 targets: 100..1e-06 -->
    <g transform="translate(60.41088 49.533135)scale(0.102 -0.102)">
     <defs>
      <path d="M 11.71875 12.40625 
L 22.015625 12.40625 
L 22.015625 0 
L 11.71875 0 
z
M 11.71875 51.703125 
L 22.015625 51.703125 
L 22.015625 39.3125 
L 11.71875 39.3125 
z
" id="DejaVuSans-58"/>
     </defs>
     <use xlink:href="#DejaVuSans-52"/>
     <use x="63.623047" xlink:href="#DejaVuSans-49"/>
     <use x="127.246094" xlink:href="#DejaVuSans-32"/>
     <use x="159.033203" xlink:href="#DejaVuSans-116"/>
     <use x="198.242188" xlink:href="#DejaVuSans-97"/>
     <use x="259.521484" xlink:href="#DejaVuSans-114"/>
     <use x="298.884766" xlink:href="#DejaVuSans-103"/>
     <use x="362.361328" xlink:href="#DejaVuSans-101"/>
     <use x="423.884766" xlink:href="#DejaVuSans-116"/>
     <use x="463.09375" xlink:href="#DejaVuSans-115"/>
     <use x="515.193359" xlink:href="#DejaVuSans-58"/>
     <use x="548.884766" xlink:href="#DejaVuSans-32"/>
     <use x="580.671875" xlink:href="#DejaVuSans-49"/>
     <use x="644.294922" xlink:href="#DejaVuSans-48"/>
     <use x="707.917969" xlink:href="#DejaVuSans-48"/>
     <use x="771.541016" xlink:href="#DejaVuSans-46"/>
     <use x="803.328125" xlink:href="#DejaVuSans-46"/>
     <use x="835.115234" xlink:href="#DejaVuSans-49"/>
     <use x="898.738281" xlink:href="#DejaVuSans-101"/>
     <use x="960.261719" xlink:href="#DejaVuSans-45"/>
     <use x="996.345703" xlink:href="#DejaVuSans-48"/>
     <use x="1059.96875" xlink:href="#DejaVuSans-54"/>
    </g>
    <!-- 45, 15 instances -->
    <g transform="translate(60.41088 60.954904)scale(0.102 -0.102)">
     <defs>
      <path d="M 10.796875 72.90625 
L 49.515625 72.90625 
L 49.515625 64.59375 
L 19.828125 64.59375 
L 19.828125 46.734375 
Q 21.96875 47.46875 24.109375 47.828125 
Q 26.265625 48.1875 28.421875 48.1875 
Q 40.625 48.1875 47.75 41.5 
Q 54.890625 34.8125 54.890625 23.390625 
Q 54.890625 11.625 47.5625 5.09375 
Q 40.234375 -1.421875 26.90625 -1.421875 
Q 22.3125 -1.421875 17.546875 -0.640625 
Q 12.796875 0.140625 7.71875 1.703125 
L 7.71875 11.625 
Q 12.109375 9.234375 16.796875 8.0625 
Q 21.484375 6.890625 26.703125 6.890625 
Q 35.15625 6.890625 40.078125 11.328125 
Q 45.015625 15.765625 45.015625 23.390625 
Q 45.015625 31 40.078125 35.4375 
Q 35.15625 39.890625 26.703125 39.890625 
Q 22.75 39.890625 18.8125 39.015625 
Q 14.890625 38.140625 10.796875 36.28125 
z
" id="DejaVuSans-53"/>
     </defs>
     <use xlink:href="#DejaVuSans-52"/>
     <use x="63.623047" xlink:href="#DejaVuSans-53"/>
     <use x="127.246094" xlink:href="#DejaVuSans-44"/>
     <use x="159.033203" xlink:href="#DejaVuSans-32"/>
     <use x="190.820312" xlink:href="#DejaVuSans-49"/>
     <use x="254.443359" xlink:href="#DejaVuSans-53"/>
     <use x="318.066406" xlink:href="#DejaVuSans-32"/>
     <use x="349.853516" xlink:href="#DejaVuSans-105"/>
     <use x="377.636719" xlink:href="#DejaVuSans-110"/>
     <use x="441.015625" xlink:href="#DejaVuSans-115"/>
     <use x="493.115234" xlink:href="#DejaVuSans-116"/>
     <use x="532.324219" xlink:href="#DejaVuSans-97"/>
     <use x="593.603516" xlink:href="#DejaVuSans-110"/>
     <use x="656.982422" xlink:href="#DejaVuSans-99"/>
     <use x="711.962891" xlink:href="#DejaVuSans-101"/>
     <use x="773.486328" xlink:href="#DejaVuSans-115"/>
    </g>
   </g>
   <g id="text_17">
    <!-- v5z33 -->
    <g style="fill:#808080;" transform="translate(183.016656 294.151352)scale(0.1 -0.1)">
     <defs>
      <path d="M 5.515625 54.6875 
L 48.1875 54.6875 
L 48.1875 46.484375 
L 14.40625 7.171875 
L 48.1875 7.171875 
L 48.1875 0 
L 4.296875 0 
L 4.296875 8.203125 
L 38.09375 47.515625 
L 5.515625 47.515625 
z
" id="DejaVuSans-122"/>
      <path d="M 40.578125 39.3125 
Q 47.65625 37.796875 51.625 33 
Q 55.609375 28.21875 55.609375 21.1875 
Q 55.609375 10.40625 48.1875 4.484375 
Q 40.765625 -1.421875 27.09375 -1.421875 
Q 22.515625 -1.421875 17.65625 -0.515625 
Q 12.796875 0.390625 7.625 2.203125 
L 7.625 11.71875 
Q 11.71875 9.328125 16.59375 8.109375 
Q 21.484375 6.890625 26.8125 6.890625 
Q 36.078125 6.890625 40.9375 10.546875 
Q 45.796875 14.203125 45.796875 21.1875 
Q 45.796875 27.640625 41.28125 31.265625 
Q 36.765625 34.90625 28.71875 34.90625 
L 20.21875 34.90625 
L 20.21875 43.015625 
L 29.109375 43.015625 
Q 36.375 43.015625 40.234375 45.921875 
Q 44.09375 48.828125 44.09375 54.296875 
Q 44.09375 59.90625 40.109375 62.90625 
Q 36.140625 65.921875 28.71875 65.921875 
Q 24.65625 65.921875 20.015625 65.03125 
Q 15.375 64.15625 9.8125 62.3125 
L 9.8125 71.09375 
Q 15.4375 72.65625 20.34375 73.4375 
Q 25.25 74.21875 29.59375 74.21875 
Q 40.828125 74.21875 47.359375 69.109375 
Q 53.90625 64.015625 53.90625 55.328125 
Q 53.90625 49.265625 50.4375 45.09375 
Q 46.96875 40.921875 40.578125 39.3125 
z
" id="DejaVuSans-51"/>
     </defs>
     <use xlink:href="#DejaVuSans-118"/>
     <use x="59.179688" xlink:href="#DejaVuSans-53"/>
     <use x="122.802734" xlink:href="#DejaVuSans-122"/>
     <use x="175.292969" xlink:href="#DejaVuSans-51"/>
     <use x="238.916016" xlink:href="#DejaVuSans-51"/>
    </g>
   </g>
   <g id="text_18">
    <!-- 12 Sep. Ellipsoid, 3n+6 constraints -->
    <g transform="translate(23.033062 21.648)scale(0.2 -0.2)">
     <defs>
      <path d="M 53.515625 70.515625 
L 53.515625 60.890625 
Q 47.90625 63.578125 42.921875 64.890625 
Q 37.9375 66.21875 33.296875 66.21875 
Q 25.25 66.21875 20.875 63.09375 
Q 16.5 59.96875 16.5 54.203125 
Q 16.5 49.359375 19.40625 46.890625 
Q 22.3125 44.4375 30.421875 42.921875 
L 36.375 41.703125 
Q 47.40625 39.59375 52.65625 34.296875 
Q 57.90625 29 57.90625 20.125 
Q 57.90625 9.515625 50.796875 4.046875 
Q 43.703125 -1.421875 29.984375 -1.421875 
Q 24.8125 -1.421875 18.96875 -0.25 
Q 13.140625 0.921875 6.890625 3.21875 
L 6.890625 13.375 
Q 12.890625 10.015625 18.65625 8.296875 
Q 24.421875 6.59375 29.984375 6.59375 
Q 38.421875 6.59375 43.015625 9.90625 
Q 47.609375 13.234375 47.609375 19.390625 
Q 47.609375 24.75 44.3125 27.78125 
Q 41.015625 30.8125 33.5 32.328125 
L 27.484375 33.5 
Q 16.453125 35.6875 11.515625 40.375 
Q 6.59375 45.0625 6.59375 53.421875 
Q 6.59375 63.09375 13.40625 68.65625 
Q 20.21875 74.21875 32.171875 74.21875 
Q 37.3125 74.21875 42.625 73.28125 
Q 47.953125 72.359375 53.515625 70.515625 
z
" id="DejaVuSans-83"/>
     </defs>
     <use xlink:href="#DejaVuSans-49"/>
     <use x="63.623047" xlink:href="#DejaVuSans-50"/>
     <use x="127.246094" xlink:href="#DejaVuSans-32"/>
     <use x="159.033203" xlink:href="#DejaVuSans-83"/>
     <use x="222.509766" xlink:href="#DejaVuSans-101"/>
     <use x="284.033203" xlink:href="#DejaVuSans-112"/>
     <use x="347.509766" xlink:href="#DejaVuSans-46"/>
     <use x="379.296875" xlink:href="#DejaVuSans-32"/>
     <use x="411.083984" xlink:href="#DejaVuSans-69"/>
     <use x="474.267578" xlink:href="#DejaVuSans-108"/>
     <use x="502.050781" xlink:href="#DejaVuSans-108"/>
     <use x="529.833984" xlink:href="#DejaVuSans-105"/>
     <use x="557.617188" xlink:href="#DejaVuSans-112"/>
     <use x="621.09375" xlink:href="#DejaVuSans-115"/>
     <use x="673.193359" xlink:href="#DejaVuSans-111"/>
     <use x="734.375" xlink:href="#DejaVuSans-105"/>
     <use x="762.158203" xlink:href="#DejaVuSans-100"/>
     <use x="825.634766" xlink:href="#DejaVuSans-44"/>
     <use x="857.421875" xlink:href="#DejaVuSans-32"/>
     <use x="889.208984" xlink:href="#DejaVuSans-51"/>
     <use x="952.832031" xlink:href="#DejaVuSans-110"/>
     <use x="1016.210938" xlink:href="#DejaVuSans-43"/>
     <use x="1100" xlink:href="#DejaVuSans-54"/>
     <use x="1163.623047" xlink:href="#DejaVuSans-32"/>
     <use x="1195.410156" xlink:href="#DejaVuSans-99"/>
     <use x="1250.390625" xlink:href="#DejaVuSans-111"/>
     <use x="1311.572266" xlink:href="#DejaVuSans-110"/>
     <use x="1374.951172" xlink:href="#DejaVuSans-115"/>
     <use x="1427.050781" xlink:href="#DejaVuSans-116"/>
     <use x="1466.259766" xlink:href="#DejaVuSans-114"/>
     <use x="1507.373047" xlink:href="#DejaVuSans-97"/>
     <use x="1568.652344" xlink:href="#DejaVuSans-105"/>
     <use x="1596.435547" xlink:href="#DejaVuSans-110"/>
     <use x="1659.814453" xlink:href="#DejaVuSans-116"/>
     <use x="1699.023438" xlink:href="#DejaVuSans-115"/>
    </g>
   </g>
  </g>
 </g>
 <defs>
  <clipPath id="p6de019ec65">
   <rect height="271.296" width="281.088" x="57.6" y="27.648"/>
  </clipPath>
 </defs>
</svg>
