<?xml version="1.0" encoding="utf-8" standalone="no"?>
<!DOCTYPE svg PUBLIC "-//W3C//DTD SVG 1.1//EN"
  "http://www.w3.org/Graphics/SVG/1.1/DTD/svg11.dtd">
<!-- Created with matplotlib (https://matplotlib.org/) -->
<svg height="345.6pt" version="1.1" viewBox="0 0 460.8 345.6" width="460.8pt" xmlns="http://www.w3.org/2000/svg" xmlns:xlink="http://www.w3.org/1999/xlink">
 <metadata>
  <rdf:RDF xmlns:cc="http://creativecommons.org/ns#" xmlns:dc="http://purl.org/dc/elements/1.1/" xmlns:rdf="http://www.w3.org/1999/02/22-rdf-syntax-ns#">
   <cc:Work>
    <dc:type rdf:resource="http://purl.org/dc/dcmitype/StillImage"/>
    <dc:date>2021-03-11T12:04:17.475250</dc:date>
    <dc:format>image/svg+xml</dc:format>
    <dc:creator>
     <cc:Agent>
      <dc:title>Matplotlib v3.3.3, https://matplotlib.org/</dc:title>
     </cc:Agent>
    </dc:creator>
   </cc:Work>
  </rdf:RDF>
 </metadata>
 <defs>
  <style type="text/css">*{stroke-linecap:butt;stroke-linejoin:round;}</style>
 </defs>
 <g id="figure_1">
  <g id="patch_1">
   <path d="M 0 345.6 
L 460.8 345.6 
L 460.8 0 
L 0 0 
z
" style="fill:#ffffff;"/>
  </g>
  <g id="axes_1">
   <g id="patch_2">
    <path d="M 57.6 298.944 
L 338.688 298.944 
L 338.688 27.648 
L 57.6 27.648 
z
" style="fill:#ffffff;"/>
   </g>
   <g id="matplotlib.axis_1">
    <g id="xtick_1">
     <g id="line2d_1">
      <path clip-path="url(#p4e5e732514)" d="M 57.6 298.944 
L 57.6 27.648 
" style="fill:none;stroke:#b0b0b0;stroke-linecap:square;stroke-width:0.8;"/>
     </g>
     <g id="line2d_2">
      <defs>
       <path d="M 0 0 
L 0 3.5 
" id="m31f3ed0241" style="stroke:#000000;stroke-width:0.8;"/>
      </defs>
      <g>
       <use style="stroke:#000000;stroke-width:0.8;" x="57.6" xlink:href="#m31f3ed0241" y="298.944"/>
      </g>
     </g>
     <g id="text_1">
      <!-- 0 -->
      <g transform="translate(51.2375 321.140875)scale(0.2 -0.2)">
       <defs>
        <path d="M 31.78125 66.40625 
Q 24.171875 66.40625 20.328125 58.90625 
Q 16.5 51.421875 16.5 36.375 
Q 16.5 21.390625 20.328125 13.890625 
Q 24.171875 6.390625 31.78125 6.390625 
Q 39.453125 6.390625 43.28125 13.890625 
Q 47.125 21.390625 47.125 36.375 
Q 47.125 51.421875 43.28125 58.90625 
Q 39.453125 66.40625 31.78125 66.40625 
z
M 31.78125 74.21875 
Q 44.046875 74.21875 50.515625 64.515625 
Q 56.984375 54.828125 56.984375 36.375 
Q 56.984375 17.96875 50.515625 8.265625 
Q 44.046875 -1.421875 31.78125 -1.421875 
Q 19.53125 -1.421875 13.0625 8.265625 
Q 6.59375 17.96875 6.59375 36.375 
Q 6.59375 54.828125 13.0625 64.515625 
Q 19.53125 74.21875 31.78125 74.21875 
z
" id="DejaVuSans-48"/>
       </defs>
       <use xlink:href="#DejaVuSans-48"/>
      </g>
     </g>
    </g>
    <g id="xtick_2">
     <g id="line2d_3">
      <path clip-path="url(#p4e5e732514)" d="M 137.910857 298.944 
L 137.910857 27.648 
" style="fill:none;stroke:#b0b0b0;stroke-linecap:square;stroke-width:0.8;"/>
     </g>
     <g id="line2d_4">
      <g>
       <use style="stroke:#000000;stroke-width:0.8;" x="137.910857" xlink:href="#m31f3ed0241" y="298.944"/>
      </g>
     </g>
     <g id="text_2">
      <!-- 2 -->
      <g transform="translate(131.548357 321.140875)scale(0.2 -0.2)">
       <defs>
        <path d="M 19.1875 8.296875 
L 53.609375 8.296875 
L 53.609375 0 
L 7.328125 0 
L 7.328125 8.296875 
Q 12.9375 14.109375 22.625 23.890625 
Q 32.328125 33.6875 34.8125 36.53125 
Q 39.546875 41.84375 41.421875 45.53125 
Q 43.3125 49.21875 43.3125 52.78125 
Q 43.3125 58.59375 39.234375 62.25 
Q 35.15625 65.921875 28.609375 65.921875 
Q 23.96875 65.921875 18.8125 64.3125 
Q 13.671875 62.703125 7.8125 59.421875 
L 7.8125 69.390625 
Q 13.765625 71.78125 18.9375 73 
Q 24.125 74.21875 28.421875 74.21875 
Q 39.75 74.21875 46.484375 68.546875 
Q 53.21875 62.890625 53.21875 53.421875 
Q 53.21875 48.921875 51.53125 44.890625 
Q 49.859375 40.875 45.40625 35.40625 
Q 44.1875 33.984375 37.640625 27.21875 
Q 31.109375 20.453125 19.1875 8.296875 
z
" id="DejaVuSans-50"/>
       </defs>
       <use xlink:href="#DejaVuSans-50"/>
      </g>
     </g>
    </g>
    <g id="xtick_3">
     <g id="line2d_5">
      <path clip-path="url(#p4e5e732514)" d="M 218.221714 298.944 
L 218.221714 27.648 
" style="fill:none;stroke:#b0b0b0;stroke-linecap:square;stroke-width:0.8;"/>
     </g>
     <g id="line2d_6">
      <g>
       <use style="stroke:#000000;stroke-width:0.8;" x="218.221714" xlink:href="#m31f3ed0241" y="298.944"/>
      </g>
     </g>
     <g id="text_3">
      <!-- 4 -->
      <g transform="translate(211.859214 321.140875)scale(0.2 -0.2)">
       <defs>
        <path d="M 37.796875 64.3125 
L 12.890625 25.390625 
L 37.796875 25.390625 
z
M 35.203125 72.90625 
L 47.609375 72.90625 
L 47.609375 25.390625 
L 58.015625 25.390625 
L 58.015625 17.1875 
L 47.609375 17.1875 
L 47.609375 0 
L 37.796875 0 
L 37.796875 17.1875 
L 4.890625 17.1875 
L 4.890625 26.703125 
z
" id="DejaVuSans-52"/>
       </defs>
       <use xlink:href="#DejaVuSans-52"/>
      </g>
     </g>
    </g>
    <g id="xtick_4">
     <g id="line2d_7">
      <path clip-path="url(#p4e5e732514)" d="M 298.532571 298.944 
L 298.532571 27.648 
" style="fill:none;stroke:#b0b0b0;stroke-linecap:square;stroke-width:0.8;"/>
     </g>
     <g id="line2d_8">
      <g>
       <use style="stroke:#000000;stroke-width:0.8;" x="298.532571" xlink:href="#m31f3ed0241" y="298.944"/>
      </g>
     </g>
     <g id="text_4">
      <!-- 6 -->
      <g transform="translate(292.170071 321.140875)scale(0.2 -0.2)">
       <defs>
        <path d="M 33.015625 40.375 
Q 26.375 40.375 22.484375 35.828125 
Q 18.609375 31.296875 18.609375 23.390625 
Q 18.609375 15.53125 22.484375 10.953125 
Q 26.375 6.390625 33.015625 6.390625 
Q 39.65625 6.390625 43.53125 10.953125 
Q 47.40625 15.53125 47.40625 23.390625 
Q 47.40625 31.296875 43.53125 35.828125 
Q 39.65625 40.375 33.015625 40.375 
z
M 52.59375 71.296875 
L 52.59375 62.3125 
Q 48.875 64.0625 45.09375 64.984375 
Q 41.3125 65.921875 37.59375 65.921875 
Q 27.828125 65.921875 22.671875 59.328125 
Q 17.53125 52.734375 16.796875 39.40625 
Q 19.671875 43.65625 24.015625 45.921875 
Q 28.375 48.1875 33.59375 48.1875 
Q 44.578125 48.1875 50.953125 41.515625 
Q 57.328125 34.859375 57.328125 23.390625 
Q 57.328125 12.15625 50.6875 5.359375 
Q 44.046875 -1.421875 33.015625 -1.421875 
Q 20.359375 -1.421875 13.671875 8.265625 
Q 6.984375 17.96875 6.984375 36.375 
Q 6.984375 53.65625 15.1875 63.9375 
Q 23.390625 74.21875 37.203125 74.21875 
Q 40.921875 74.21875 44.703125 73.484375 
Q 48.484375 72.75 52.59375 71.296875 
z
" id="DejaVuSans-54"/>
       </defs>
       <use xlink:href="#DejaVuSans-54"/>
      </g>
     </g>
    </g>
    <g id="xtick_5">
     <g id="line2d_9">
      <path clip-path="url(#p4e5e732514)" d="M 97.755429 298.944 
L 97.755429 27.648 
" style="fill:none;stroke:#b0b0b0;stroke-linecap:square;stroke-width:0.8;"/>
     </g>
     <g id="line2d_10">
      <defs>
       <path d="M 0 0 
L 0 2 
" id="m6814a559ba" style="stroke:#000000;stroke-width:0.6;"/>
      </defs>
      <g>
       <use style="stroke:#000000;stroke-width:0.6;" x="97.755429" xlink:href="#m6814a559ba" y="298.944"/>
      </g>
     </g>
    </g>
    <g id="xtick_6">
     <g id="line2d_11">
      <path clip-path="url(#p4e5e732514)" d="M 178.066286 298.944 
L 178.066286 27.648 
" style="fill:none;stroke:#b0b0b0;stroke-linecap:square;stroke-width:0.8;"/>
     </g>
     <g id="line2d_12">
      <g>
       <use style="stroke:#000000;stroke-width:0.6;" x="178.066286" xlink:href="#m6814a559ba" y="298.944"/>
      </g>
     </g>
    </g>
    <g id="xtick_7">
     <g id="line2d_13">
      <path clip-path="url(#p4e5e732514)" d="M 258.377143 298.944 
L 258.377143 27.648 
" style="fill:none;stroke:#b0b0b0;stroke-linecap:square;stroke-width:0.8;"/>
     </g>
     <g id="line2d_14">
      <g>
       <use style="stroke:#000000;stroke-width:0.6;" x="258.377143" xlink:href="#m6814a559ba" y="298.944"/>
      </g>
     </g>
    </g>
    <g id="xtick_8">
     <g id="line2d_15">
      <path clip-path="url(#p4e5e732514)" d="M 338.688 298.944 
L 338.688 27.648 
" style="fill:none;stroke:#b0b0b0;stroke-linecap:square;stroke-width:0.8;"/>
     </g>
     <g id="line2d_16">
      <g>
       <use style="stroke:#000000;stroke-width:0.6;" x="338.688" xlink:href="#m6814a559ba" y="298.944"/>
      </g>
     </g>
    </g>
    <g id="text_5">
     <!-- log10(# (f+g)-evals / dimension) -->
     <g transform="translate(58.145016 342.217594)scale(0.17 -0.17)">
      <defs>
       <path d="M 9.421875 75.984375 
L 18.40625 75.984375 
L 18.40625 0 
L 9.421875 0 
z
" id="DejaVuSans-108"/>
       <path d="M 30.609375 48.390625 
Q 23.390625 48.390625 19.1875 42.75 
Q 14.984375 37.109375 14.984375 27.296875 
Q 14.984375 17.484375 19.15625 11.84375 
Q 23.34375 6.203125 30.609375 6.203125 
Q 37.796875 6.203125 41.984375 11.859375 
Q 46.1875 17.53125 46.1875 27.296875 
Q 46.1875 37.015625 41.984375 42.703125 
Q 37.796875 48.390625 30.609375 48.390625 
z
M 30.609375 56 
Q 42.328125 56 49.015625 48.375 
Q 55.71875 40.765625 55.71875 27.296875 
Q 55.71875 13.875 49.015625 6.21875 
Q 42.328125 -1.421875 30.609375 -1.421875 
Q 18.84375 -1.421875 12.171875 6.21875 
Q 5.515625 13.875 5.515625 27.296875 
Q 5.515625 40.765625 12.171875 48.375 
Q 18.84375 56 30.609375 56 
z
" id="DejaVuSans-111"/>
       <path d="M 45.40625 27.984375 
Q 45.40625 37.75 41.375 43.109375 
Q 37.359375 48.484375 30.078125 48.484375 
Q 22.859375 48.484375 18.828125 43.109375 
Q 14.796875 37.75 14.796875 27.984375 
Q 14.796875 18.265625 18.828125 12.890625 
Q 22.859375 7.515625 30.078125 7.515625 
Q 37.359375 7.515625 41.375 12.890625 
Q 45.40625 18.265625 45.40625 27.984375 
z
M 54.390625 6.78125 
Q 54.390625 -7.171875 48.1875 -13.984375 
Q 42 -20.796875 29.203125 -20.796875 
Q 24.46875 -20.796875 20.265625 -20.09375 
Q 16.0625 -19.390625 12.109375 -17.921875 
L 12.109375 -9.1875 
Q 16.0625 -11.328125 19.921875 -12.34375 
Q 23.78125 -13.375 27.78125 -13.375 
Q 36.625 -13.375 41.015625 -8.765625 
Q 45.40625 -4.15625 45.40625 5.171875 
L 45.40625 9.625 
Q 42.625 4.78125 38.28125 2.390625 
Q 33.9375 0 27.875 0 
Q 17.828125 0 11.671875 7.65625 
Q 5.515625 15.328125 5.515625 27.984375 
Q 5.515625 40.671875 11.671875 48.328125 
Q 17.828125 56 27.875 56 
Q 33.9375 56 38.28125 53.609375 
Q 42.625 51.21875 45.40625 46.390625 
L 45.40625 54.6875 
L 54.390625 54.6875 
z
" id="DejaVuSans-103"/>
       <path d="M 12.40625 8.296875 
L 28.515625 8.296875 
L 28.515625 63.921875 
L 10.984375 60.40625 
L 10.984375 69.390625 
L 28.421875 72.90625 
L 38.28125 72.90625 
L 38.28125 8.296875 
L 54.390625 8.296875 
L 54.390625 0 
L 12.40625 0 
z
" id="DejaVuSans-49"/>
       <path d="M 31 75.875 
Q 24.46875 64.65625 21.28125 53.65625 
Q 18.109375 42.671875 18.109375 31.390625 
Q 18.109375 20.125 21.3125 9.0625 
Q 24.515625 -2 31 -13.1875 
L 23.1875 -13.1875 
Q 15.875 -1.703125 12.234375 9.375 
Q 8.59375 20.453125 8.59375 31.390625 
Q 8.59375 42.28125 12.203125 53.3125 
Q 15.828125 64.359375 23.1875 75.875 
z
" id="DejaVuSans-40"/>
       <path d="M 51.125 44 
L 36.921875 44 
L 32.8125 27.6875 
L 47.125 27.6875 
z
M 43.796875 71.78125 
L 38.71875 51.515625 
L 52.984375 51.515625 
L 58.109375 71.78125 
L 65.921875 71.78125 
L 60.890625 51.515625 
L 76.125 51.515625 
L 76.125 44 
L 58.984375 44 
L 54.984375 27.6875 
L 70.515625 27.6875 
L 70.515625 20.21875 
L 53.078125 20.21875 
L 48 0 
L 40.1875 0 
L 45.21875 20.21875 
L 30.90625 20.21875 
L 25.875 0 
L 18.015625 0 
L 23.09375 20.21875 
L 7.71875 20.21875 
L 7.71875 27.6875 
L 24.90625 27.6875 
L 29 44 
L 13.28125 44 
L 13.28125 51.515625 
L 30.90625 51.515625 
L 35.890625 71.78125 
z
" id="DejaVuSans-35"/>
       <path id="DejaVuSans-32"/>
       <path d="M 37.109375 75.984375 
L 37.109375 68.5 
L 28.515625 68.5 
Q 23.6875 68.5 21.796875 66.546875 
Q 19.921875 64.59375 19.921875 59.515625 
L 19.921875 54.6875 
L 34.71875 54.6875 
L 34.71875 47.703125 
L 19.921875 47.703125 
L 19.921875 0 
L 10.890625 0 
L 10.890625 47.703125 
L 2.296875 47.703125 
L 2.296875 54.6875 
L 10.890625 54.6875 
L 10.890625 58.5 
Q 10.890625 67.625 15.140625 71.796875 
Q 19.390625 75.984375 28.609375 75.984375 
z
" id="DejaVuSans-102"/>
       <path d="M 46 62.703125 
L 46 35.5 
L 73.1875 35.5 
L 73.1875 27.203125 
L 46 27.203125 
L 46 0 
L 37.796875 0 
L 37.796875 27.203125 
L 10.59375 27.203125 
L 10.59375 35.5 
L 37.796875 35.5 
L 37.796875 62.703125 
z
" id="DejaVuSans-43"/>
       <path d="M 8.015625 75.875 
L 15.828125 75.875 
Q 23.140625 64.359375 26.78125 53.3125 
Q 30.421875 42.28125 30.421875 31.390625 
Q 30.421875 20.453125 26.78125 9.375 
Q 23.140625 -1.703125 15.828125 -13.1875 
L 8.015625 -13.1875 
Q 14.5 -2 17.703125 9.0625 
Q 20.90625 20.125 20.90625 31.390625 
Q 20.90625 42.671875 17.703125 53.65625 
Q 14.5 64.65625 8.015625 75.875 
z
" id="DejaVuSans-41"/>
       <path d="M 4.890625 31.390625 
L 31.203125 31.390625 
L 31.203125 23.390625 
L 4.890625 23.390625 
z
" id="DejaVuSans-45"/>
       <path d="M 56.203125 29.59375 
L 56.203125 25.203125 
L 14.890625 25.203125 
Q 15.484375 15.921875 20.484375 11.0625 
Q 25.484375 6.203125 34.421875 6.203125 
Q 39.59375 6.203125 44.453125 7.46875 
Q 49.3125 8.734375 54.109375 11.28125 
L 54.109375 2.78125 
Q 49.265625 0.734375 44.1875 -0.34375 
Q 39.109375 -1.421875 33.890625 -1.421875 
Q 20.796875 -1.421875 13.15625 6.1875 
Q 5.515625 13.8125 5.515625 26.8125 
Q 5.515625 40.234375 12.765625 48.109375 
Q 20.015625 56 32.328125 56 
Q 43.359375 56 49.78125 48.890625 
Q 56.203125 41.796875 56.203125 29.59375 
z
M 47.21875 32.234375 
Q 47.125 39.59375 43.09375 43.984375 
Q 39.0625 48.390625 32.421875 48.390625 
Q 24.90625 48.390625 20.390625 44.140625 
Q 15.875 39.890625 15.1875 32.171875 
z
" id="DejaVuSans-101"/>
       <path d="M 2.984375 54.6875 
L 12.5 54.6875 
L 29.59375 8.796875 
L 46.6875 54.6875 
L 56.203125 54.6875 
L 35.6875 0 
L 23.484375 0 
z
" id="DejaVuSans-118"/>
       <path d="M 34.28125 27.484375 
Q 23.390625 27.484375 19.1875 25 
Q 14.984375 22.515625 14.984375 16.5 
Q 14.984375 11.71875 18.140625 8.90625 
Q 21.296875 6.109375 26.703125 6.109375 
Q 34.1875 6.109375 38.703125 11.40625 
Q 43.21875 16.703125 43.21875 25.484375 
L 43.21875 27.484375 
z
M 52.203125 31.203125 
L 52.203125 0 
L 43.21875 0 
L 43.21875 8.296875 
Q 40.140625 3.328125 35.546875 0.953125 
Q 30.953125 -1.421875 24.3125 -1.421875 
Q 15.921875 -1.421875 10.953125 3.296875 
Q 6 8.015625 6 15.921875 
Q 6 25.140625 12.171875 29.828125 
Q 18.359375 34.515625 30.609375 34.515625 
L 43.21875 34.515625 
L 43.21875 35.40625 
Q 43.21875 41.609375 39.140625 45 
Q 35.0625 48.390625 27.6875 48.390625 
Q 23 48.390625 18.546875 47.265625 
Q 14.109375 46.140625 10.015625 43.890625 
L 10.015625 52.203125 
Q 14.9375 54.109375 19.578125 55.046875 
Q 24.21875 56 28.609375 56 
Q 40.484375 56 46.34375 49.84375 
Q 52.203125 43.703125 52.203125 31.203125 
z
" id="DejaVuSans-97"/>
       <path d="M 44.28125 53.078125 
L 44.28125 44.578125 
Q 40.484375 46.53125 36.375 47.5 
Q 32.28125 48.484375 27.875 48.484375 
Q 21.1875 48.484375 17.84375 46.4375 
Q 14.5 44.390625 14.5 40.28125 
Q 14.5 37.15625 16.890625 35.375 
Q 19.28125 33.59375 26.515625 31.984375 
L 29.59375 31.296875 
Q 39.15625 29.25 43.1875 25.515625 
Q 47.21875 21.78125 47.21875 15.09375 
Q 47.21875 7.46875 41.1875 3.015625 
Q 35.15625 -1.421875 24.609375 -1.421875 
Q 20.21875 -1.421875 15.453125 -0.5625 
Q 10.6875 0.296875 5.421875 2 
L 5.421875 11.28125 
Q 10.40625 8.6875 15.234375 7.390625 
Q 20.0625 6.109375 24.8125 6.109375 
Q 31.15625 6.109375 34.5625 8.28125 
Q 37.984375 10.453125 37.984375 14.40625 
Q 37.984375 18.0625 35.515625 20.015625 
Q 33.0625 21.96875 24.703125 23.78125 
L 21.578125 24.515625 
Q 13.234375 26.265625 9.515625 29.90625 
Q 5.8125 33.546875 5.8125 39.890625 
Q 5.8125 47.609375 11.28125 51.796875 
Q 16.75 56 26.8125 56 
Q 31.78125 56 36.171875 55.265625 
Q 40.578125 54.546875 44.28125 53.078125 
z
" id="DejaVuSans-115"/>
       <path d="M 25.390625 72.90625 
L 33.6875 72.90625 
L 8.296875 -9.28125 
L 0 -9.28125 
z
" id="DejaVuSans-47"/>
       <path d="M 45.40625 46.390625 
L 45.40625 75.984375 
L 54.390625 75.984375 
L 54.390625 0 
L 45.40625 0 
L 45.40625 8.203125 
Q 42.578125 3.328125 38.25 0.953125 
Q 33.9375 -1.421875 27.875 -1.421875 
Q 17.96875 -1.421875 11.734375 6.484375 
Q 5.515625 14.40625 5.515625 27.296875 
Q 5.515625 40.1875 11.734375 48.09375 
Q 17.96875 56 27.875 56 
Q 33.9375 56 38.25 53.625 
Q 42.578125 51.265625 45.40625 46.390625 
z
M 14.796875 27.296875 
Q 14.796875 17.390625 18.875 11.75 
Q 22.953125 6.109375 30.078125 6.109375 
Q 37.203125 6.109375 41.296875 11.75 
Q 45.40625 17.390625 45.40625 27.296875 
Q 45.40625 37.203125 41.296875 42.84375 
Q 37.203125 48.484375 30.078125 48.484375 
Q 22.953125 48.484375 18.875 42.84375 
Q 14.796875 37.203125 14.796875 27.296875 
z
" id="DejaVuSans-100"/>
       <path d="M 9.421875 54.6875 
L 18.40625 54.6875 
L 18.40625 0 
L 9.421875 0 
z
M 9.421875 75.984375 
L 18.40625 75.984375 
L 18.40625 64.59375 
L 9.421875 64.59375 
z
" id="DejaVuSans-105"/>
       <path d="M 52 44.1875 
Q 55.375 50.25 60.0625 53.125 
Q 64.75 56 71.09375 56 
Q 79.640625 56 84.28125 50.015625 
Q 88.921875 44.046875 88.921875 33.015625 
L 88.921875 0 
L 79.890625 0 
L 79.890625 32.71875 
Q 79.890625 40.578125 77.09375 44.375 
Q 74.3125 48.1875 68.609375 48.1875 
Q 61.625 48.1875 57.5625 43.546875 
Q 53.515625 38.921875 53.515625 30.90625 
L 53.515625 0 
L 44.484375 0 
L 44.484375 32.71875 
Q 44.484375 40.625 41.703125 44.40625 
Q 38.921875 48.1875 33.109375 48.1875 
Q 26.21875 48.1875 22.15625 43.53125 
Q 18.109375 38.875 18.109375 30.90625 
L 18.109375 0 
L 9.078125 0 
L 9.078125 54.6875 
L 18.109375 54.6875 
L 18.109375 46.1875 
Q 21.1875 51.21875 25.484375 53.609375 
Q 29.78125 56 35.6875 56 
Q 41.65625 56 45.828125 52.96875 
Q 50 49.953125 52 44.1875 
z
" id="DejaVuSans-109"/>
       <path d="M 54.890625 33.015625 
L 54.890625 0 
L 45.90625 0 
L 45.90625 32.71875 
Q 45.90625 40.484375 42.875 44.328125 
Q 39.84375 48.1875 33.796875 48.1875 
Q 26.515625 48.1875 22.3125 43.546875 
Q 18.109375 38.921875 18.109375 30.90625 
L 18.109375 0 
L 9.078125 0 
L 9.078125 54.6875 
L 18.109375 54.6875 
L 18.109375 46.1875 
Q 21.34375 51.125 25.703125 53.5625 
Q 30.078125 56 35.796875 56 
Q 45.21875 56 50.046875 50.171875 
Q 54.890625 44.34375 54.890625 33.015625 
z
" id="DejaVuSans-110"/>
      </defs>
      <use xlink:href="#DejaVuSans-108"/>
      <use x="27.783203" xlink:href="#DejaVuSans-111"/>
      <use x="88.964844" xlink:href="#DejaVuSans-103"/>
      <use x="152.441406" xlink:href="#DejaVuSans-49"/>
      <use x="216.064453" xlink:href="#DejaVuSans-48"/>
      <use x="279.6875" xlink:href="#DejaVuSans-40"/>
      <use x="318.701172" xlink:href="#DejaVuSans-35"/>
      <use x="402.490234" xlink:href="#DejaVuSans-32"/>
      <use x="434.277344" xlink:href="#DejaVuSans-40"/>
      <use x="473.291016" xlink:href="#DejaVuSans-102"/>
      <use x="508.496094" xlink:href="#DejaVuSans-43"/>
      <use x="592.285156" xlink:href="#DejaVuSans-103"/>
      <use x="655.761719" xlink:href="#DejaVuSans-41"/>
      <use x="694.775391" xlink:href="#DejaVuSans-45"/>
      <use x="730.859375" xlink:href="#DejaVuSans-101"/>
      <use x="792.382812" xlink:href="#DejaVuSans-118"/>
      <use x="851.5625" xlink:href="#DejaVuSans-97"/>
      <use x="912.841797" xlink:href="#DejaVuSans-108"/>
      <use x="940.625" xlink:href="#DejaVuSans-115"/>
      <use x="992.724609" xlink:href="#DejaVuSans-32"/>
      <use x="1024.511719" xlink:href="#DejaVuSans-47"/>
      <use x="1058.203125" xlink:href="#DejaVuSans-32"/>
      <use x="1089.990234" xlink:href="#DejaVuSans-100"/>
      <use x="1153.466797" xlink:href="#DejaVuSans-105"/>
      <use x="1181.25" xlink:href="#DejaVuSans-109"/>
      <use x="1278.662109" xlink:href="#DejaVuSans-101"/>
      <use x="1340.185547" xlink:href="#DejaVuSans-110"/>
      <use x="1403.564453" xlink:href="#DejaVuSans-115"/>
      <use x="1455.664062" xlink:href="#DejaVuSans-105"/>
      <use x="1483.447266" xlink:href="#DejaVuSans-111"/>
      <use x="1544.628906" xlink:href="#DejaVuSans-110"/>
      <use x="1608.007812" xlink:href="#DejaVuSans-41"/>
     </g>
    </g>
   </g>
   <g id="matplotlib.axis_2">
    <g id="ytick_1">
     <g id="line2d_17">
      <path clip-path="url(#p4e5e732514)" d="M 57.6 298.944 
L 338.688 298.944 
" style="fill:none;stroke:#b0b0b0;stroke-linecap:square;stroke-width:0.8;"/>
     </g>
     <g id="line2d_18">
      <defs>
       <path d="M 0 0 
L -3.5 0 
" id="m87d5eb0825" style="stroke:#000000;stroke-width:0.8;"/>
      </defs>
      <g>
       <use style="stroke:#000000;stroke-width:0.8;" x="57.6" xlink:href="#m87d5eb0825" y="298.944"/>
      </g>
     </g>
     <g id="text_6">
      <!-- 0.0 -->
      <g transform="translate(25.155 305.02275)scale(0.16 -0.16)">
       <defs>
        <path d="M 10.6875 12.40625 
L 21 12.40625 
L 21 0 
L 10.6875 0 
z
" id="DejaVuSans-46"/>
       </defs>
       <use xlink:href="#DejaVuSans-48"/>
       <use x="63.623047" xlink:href="#DejaVuSans-46"/>
       <use x="95.410156" xlink:href="#DejaVuSans-48"/>
      </g>
     </g>
    </g>
    <g id="ytick_2">
     <g id="line2d_19">
      <path clip-path="url(#p4e5e732514)" d="M 57.6 245.22202 
L 338.688 245.22202 
" style="fill:none;stroke:#b0b0b0;stroke-linecap:square;stroke-width:0.8;"/>
     </g>
     <g id="line2d_20">
      <g>
       <use style="stroke:#000000;stroke-width:0.8;" x="57.6" xlink:href="#m87d5eb0825" y="245.22202"/>
      </g>
     </g>
     <g id="text_7">
      <!-- 0.2 -->
      <g transform="translate(25.155 251.30077)scale(0.16 -0.16)">
       <use xlink:href="#DejaVuSans-48"/>
       <use x="63.623047" xlink:href="#DejaVuSans-46"/>
       <use x="95.410156" xlink:href="#DejaVuSans-50"/>
      </g>
     </g>
    </g>
    <g id="ytick_3">
     <g id="line2d_21">
      <path clip-path="url(#p4e5e732514)" d="M 57.6 191.50004 
L 338.688 191.50004 
" style="fill:none;stroke:#b0b0b0;stroke-linecap:square;stroke-width:0.8;"/>
     </g>
     <g id="line2d_22">
      <g>
       <use style="stroke:#000000;stroke-width:0.8;" x="57.6" xlink:href="#m87d5eb0825" y="191.50004"/>
      </g>
     </g>
     <g id="text_8">
      <!-- 0.4 -->
      <g transform="translate(25.155 197.57879)scale(0.16 -0.16)">
       <use xlink:href="#DejaVuSans-48"/>
       <use x="63.623047" xlink:href="#DejaVuSans-46"/>
       <use x="95.410156" xlink:href="#DejaVuSans-52"/>
      </g>
     </g>
    </g>
    <g id="ytick_4">
     <g id="line2d_23">
      <path clip-path="url(#p4e5e732514)" d="M 57.6 137.778059 
L 338.688 137.778059 
" style="fill:none;stroke:#b0b0b0;stroke-linecap:square;stroke-width:0.8;"/>
     </g>
     <g id="line2d_24">
      <g>
       <use style="stroke:#000000;stroke-width:0.8;" x="57.6" xlink:href="#m87d5eb0825" y="137.778059"/>
      </g>
     </g>
     <g id="text_9">
      <!-- 0.6 -->
      <g transform="translate(25.155 143.856809)scale(0.16 -0.16)">
       <use xlink:href="#DejaVuSans-48"/>
       <use x="63.623047" xlink:href="#DejaVuSans-46"/>
       <use x="95.410156" xlink:href="#DejaVuSans-54"/>
      </g>
     </g>
    </g>
    <g id="ytick_5">
     <g id="line2d_25">
      <path clip-path="url(#p4e5e732514)" d="M 57.6 84.056079 
L 338.688 84.056079 
" style="fill:none;stroke:#b0b0b0;stroke-linecap:square;stroke-width:0.8;"/>
     </g>
     <g id="line2d_26">
      <g>
       <use style="stroke:#000000;stroke-width:0.8;" x="57.6" xlink:href="#m87d5eb0825" y="84.056079"/>
      </g>
     </g>
     <g id="text_10">
      <!-- 0.8 -->
      <g transform="translate(25.155 90.134829)scale(0.16 -0.16)">
       <defs>
        <path d="M 31.78125 34.625 
Q 24.75 34.625 20.71875 30.859375 
Q 16.703125 27.09375 16.703125 20.515625 
Q 16.703125 13.921875 20.71875 10.15625 
Q 24.75 6.390625 31.78125 6.390625 
Q 38.8125 6.390625 42.859375 10.171875 
Q 46.921875 13.96875 46.921875 20.515625 
Q 46.921875 27.09375 42.890625 30.859375 
Q 38.875 34.625 31.78125 34.625 
z
M 21.921875 38.8125 
Q 15.578125 40.375 12.03125 44.71875 
Q 8.5 49.078125 8.5 55.328125 
Q 8.5 64.0625 14.71875 69.140625 
Q 20.953125 74.21875 31.78125 74.21875 
Q 42.671875 74.21875 48.875 69.140625 
Q 55.078125 64.0625 55.078125 55.328125 
Q 55.078125 49.078125 51.53125 44.71875 
Q 48 40.375 41.703125 38.8125 
Q 48.828125 37.15625 52.796875 32.3125 
Q 56.78125 27.484375 56.78125 20.515625 
Q 56.78125 9.90625 50.3125 4.234375 
Q 43.84375 -1.421875 31.78125 -1.421875 
Q 19.734375 -1.421875 13.25 4.234375 
Q 6.78125 9.90625 6.78125 20.515625 
Q 6.78125 27.484375 10.78125 32.3125 
Q 14.796875 37.15625 21.921875 38.8125 
z
M 18.3125 54.390625 
Q 18.3125 48.734375 21.84375 45.5625 
Q 25.390625 42.390625 31.78125 42.390625 
Q 38.140625 42.390625 41.71875 45.5625 
Q 45.3125 48.734375 45.3125 54.390625 
Q 45.3125 60.0625 41.71875 63.234375 
Q 38.140625 66.40625 31.78125 66.40625 
Q 25.390625 66.40625 21.84375 63.234375 
Q 18.3125 60.0625 18.3125 54.390625 
z
" id="DejaVuSans-56"/>
       </defs>
       <use xlink:href="#DejaVuSans-48"/>
       <use x="63.623047" xlink:href="#DejaVuSans-46"/>
       <use x="95.410156" xlink:href="#DejaVuSans-56"/>
      </g>
     </g>
    </g>
    <g id="ytick_6">
     <g id="line2d_27">
      <path clip-path="url(#p4e5e732514)" d="M 57.6 30.334099 
L 338.688 30.334099 
" style="fill:none;stroke:#b0b0b0;stroke-linecap:square;stroke-width:0.8;"/>
     </g>
     <g id="line2d_28">
      <g>
       <use style="stroke:#000000;stroke-width:0.8;" x="57.6" xlink:href="#m87d5eb0825" y="30.334099"/>
      </g>
     </g>
     <g id="text_11">
      <!-- 1.0 -->
      <g transform="translate(25.155 36.412849)scale(0.16 -0.16)">
       <use xlink:href="#DejaVuSans-49"/>
       <use x="63.623047" xlink:href="#DejaVuSans-46"/>
       <use x="95.410156" xlink:href="#DejaVuSans-48"/>
      </g>
     </g>
    </g>
    <g id="text_12">
     <!-- Fraction of function,target pairs -->
     <g transform="translate(17.619531 297.681)rotate(-90)scale(0.17 -0.17)">
      <defs>
       <path d="M 9.8125 72.90625 
L 51.703125 72.90625 
L 51.703125 64.59375 
L 19.671875 64.59375 
L 19.671875 43.109375 
L 48.578125 43.109375 
L 48.578125 34.8125 
L 19.671875 34.8125 
L 19.671875 0 
L 9.8125 0 
z
" id="DejaVuSans-70"/>
       <path d="M 41.109375 46.296875 
Q 39.59375 47.171875 37.8125 47.578125 
Q 36.03125 48 33.890625 48 
Q 26.265625 48 22.1875 43.046875 
Q 18.109375 38.09375 18.109375 28.8125 
L 18.109375 0 
L 9.078125 0 
L 9.078125 54.6875 
L 18.109375 54.6875 
L 18.109375 46.1875 
Q 20.953125 51.171875 25.484375 53.578125 
Q 30.03125 56 36.53125 56 
Q 37.453125 56 38.578125 55.875 
Q 39.703125 55.765625 41.0625 55.515625 
z
" id="DejaVuSans-114"/>
       <path d="M 48.78125 52.59375 
L 48.78125 44.1875 
Q 44.96875 46.296875 41.140625 47.34375 
Q 37.3125 48.390625 33.40625 48.390625 
Q 24.65625 48.390625 19.8125 42.84375 
Q 14.984375 37.3125 14.984375 27.296875 
Q 14.984375 17.28125 19.8125 11.734375 
Q 24.65625 6.203125 33.40625 6.203125 
Q 37.3125 6.203125 41.140625 7.25 
Q 44.96875 8.296875 48.78125 10.40625 
L 48.78125 2.09375 
Q 45.015625 0.34375 40.984375 -0.53125 
Q 36.96875 -1.421875 32.421875 -1.421875 
Q 20.0625 -1.421875 12.78125 6.34375 
Q 5.515625 14.109375 5.515625 27.296875 
Q 5.515625 40.671875 12.859375 48.328125 
Q 20.21875 56 33.015625 56 
Q 37.15625 56 41.109375 55.140625 
Q 45.0625 54.296875 48.78125 52.59375 
z
" id="DejaVuSans-99"/>
       <path d="M 18.3125 70.21875 
L 18.3125 54.6875 
L 36.8125 54.6875 
L 36.8125 47.703125 
L 18.3125 47.703125 
L 18.3125 18.015625 
Q 18.3125 11.328125 20.140625 9.421875 
Q 21.96875 7.515625 27.59375 7.515625 
L 36.8125 7.515625 
L 36.8125 0 
L 27.59375 0 
Q 17.1875 0 13.234375 3.875 
Q 9.28125 7.765625 9.28125 18.015625 
L 9.28125 47.703125 
L 2.6875 47.703125 
L 2.6875 54.6875 
L 9.28125 54.6875 
L 9.28125 70.21875 
z
" id="DejaVuSans-116"/>
       <path d="M 8.5 21.578125 
L 8.5 54.6875 
L 17.484375 54.6875 
L 17.484375 21.921875 
Q 17.484375 14.15625 20.5 10.265625 
Q 23.53125 6.390625 29.59375 6.390625 
Q 36.859375 6.390625 41.078125 11.03125 
Q 45.3125 15.671875 45.3125 23.6875 
L 45.3125 54.6875 
L 54.296875 54.6875 
L 54.296875 0 
L 45.3125 0 
L 45.3125 8.40625 
Q 42.046875 3.421875 37.71875 1 
Q 33.40625 -1.421875 27.6875 -1.421875 
Q 18.265625 -1.421875 13.375 4.4375 
Q 8.5 10.296875 8.5 21.578125 
z
M 31.109375 56 
z
" id="DejaVuSans-117"/>
       <path d="M 11.71875 12.40625 
L 22.015625 12.40625 
L 22.015625 4 
L 14.015625 -11.625 
L 7.71875 -11.625 
L 11.71875 4 
z
" id="DejaVuSans-44"/>
       <path d="M 18.109375 8.203125 
L 18.109375 -20.796875 
L 9.078125 -20.796875 
L 9.078125 54.6875 
L 18.109375 54.6875 
L 18.109375 46.390625 
Q 20.953125 51.265625 25.265625 53.625 
Q 29.59375 56 35.59375 56 
Q 45.5625 56 51.78125 48.09375 
Q 58.015625 40.1875 58.015625 27.296875 
Q 58.015625 14.40625 51.78125 6.484375 
Q 45.5625 -1.421875 35.59375 -1.421875 
Q 29.59375 -1.421875 25.265625 0.953125 
Q 20.953125 3.328125 18.109375 8.203125 
z
M 48.6875 27.296875 
Q 48.6875 37.203125 44.609375 42.84375 
Q 40.53125 48.484375 33.40625 48.484375 
Q 26.265625 48.484375 22.1875 42.84375 
Q 18.109375 37.203125 18.109375 27.296875 
Q 18.109375 17.390625 22.1875 11.75 
Q 26.265625 6.109375 33.40625 6.109375 
Q 40.53125 6.109375 44.609375 11.75 
Q 48.6875 17.390625 48.6875 27.296875 
z
" id="DejaVuSans-112"/>
      </defs>
      <use xlink:href="#DejaVuSans-70"/>
      <use x="50.269531" xlink:href="#DejaVuSans-114"/>
      <use x="91.382812" xlink:href="#DejaVuSans-97"/>
      <use x="152.662109" xlink:href="#DejaVuSans-99"/>
      <use x="207.642578" xlink:href="#DejaVuSans-116"/>
      <use x="246.851562" xlink:href="#DejaVuSans-105"/>
      <use x="274.634766" xlink:href="#DejaVuSans-111"/>
      <use x="335.816406" xlink:href="#DejaVuSans-110"/>
      <use x="399.195312" xlink:href="#DejaVuSans-32"/>
      <use x="430.982422" xlink:href="#DejaVuSans-111"/>
      <use x="492.164062" xlink:href="#DejaVuSans-102"/>
      <use x="527.369141" xlink:href="#DejaVuSans-32"/>
      <use x="559.15625" xlink:href="#DejaVuSans-102"/>
      <use x="594.361328" xlink:href="#DejaVuSans-117"/>
      <use x="657.740234" xlink:href="#DejaVuSans-110"/>
      <use x="721.119141" xlink:href="#DejaVuSans-99"/>
      <use x="776.099609" xlink:href="#DejaVuSans-116"/>
      <use x="815.308594" xlink:href="#DejaVuSans-105"/>
      <use x="843.091797" xlink:href="#DejaVuSans-111"/>
      <use x="904.273438" xlink:href="#DejaVuSans-110"/>
      <use x="967.652344" xlink:href="#DejaVuSans-44"/>
      <use x="999.439453" xlink:href="#DejaVuSans-116"/>
      <use x="1038.648438" xlink:href="#DejaVuSans-97"/>
      <use x="1099.927734" xlink:href="#DejaVuSans-114"/>
      <use x="1139.291016" xlink:href="#DejaVuSans-103"/>
      <use x="1202.767578" xlink:href="#DejaVuSans-101"/>
      <use x="1264.291016" xlink:href="#DejaVuSans-116"/>
      <use x="1303.5" xlink:href="#DejaVuSans-32"/>
      <use x="1335.287109" xlink:href="#DejaVuSans-112"/>
      <use x="1398.763672" xlink:href="#DejaVuSans-97"/>
      <use x="1460.042969" xlink:href="#DejaVuSans-105"/>
      <use x="1487.826172" xlink:href="#DejaVuSans-114"/>
      <use x="1528.939453" xlink:href="#DejaVuSans-115"/>
     </g>
    </g>
   </g>
   <g id="line2d_29">
    <defs>
     <path d="M 0 1.5 
C 0.397805 1.5 0.77937 1.341951 1.06066 1.06066 
C 1.341951 0.77937 1.5 0.397805 1.5 0 
C 1.5 -0.397805 1.341951 -0.77937 1.06066 -1.06066 
C 0.77937 -1.341951 0.397805 -1.5 0 -1.5 
C -0.397805 -1.5 -0.77937 -1.341951 -1.06066 -1.06066 
C -1.341951 -0.77937 -1.5 -0.397805 -1.5 0 
C -1.5 0.397805 -1.341951 0.77937 -1.06066 1.06066 
C -0.77937 1.341951 -0.397805 1.5 0 1.5 
z
" id="m956411f314" style="stroke:#000080;"/>
    </defs>
    <g>
     <use style="fill:#000080;stroke:#000080;" x="269.181643" xlink:href="#m956411f314" y="43.437021"/>
     <use style="fill:#000080;stroke:#000080;" x="269.181643" xlink:href="#m956411f314" y="43.437021"/>
    </g>
   </g>
   <g id="line2d_30">
    <path d="M 150.016276 298.944 
L 150.016276 298.288854 
L 151.340991 298.288854 
L 151.340991 297.633708 
L 153.192929 297.633708 
L 153.192929 296.978562 
L 153.946025 296.978562 
L 153.946025 296.323416 
L 154.426099 296.323416 
L 154.426099 295.66827 
L 154.547439 295.66827 
L 154.547439 295.013123 
L 155.141793 295.013123 
L 155.141793 294.357977 
L 155.361158 294.357977 
L 155.412374 293.047685 
L 156.538679 293.047685 
L 156.538679 292.392539 
L 157.023299 292.392539 
L 157.093102 290.427101 
L 157.277891 290.427101 
L 157.277891 289.771955 
L 157.403807 289.771955 
L 157.403807 289.116809 
L 157.709073 289.116809 
L 157.709073 288.461662 
L 157.854169 288.461662 
L 157.854169 287.806516 
L 158.053098 287.806516 
L 158.140788 286.496224 
L 158.260646 286.496224 
L 158.260646 285.841078 
L 158.942121 285.841078 
L 158.942121 285.185932 
L 159.139412 285.185932 
L 159.149734 283.87564 
L 159.303838 283.87564 
L 159.3651 281.255055 
L 159.415988 281.255055 
L 159.486982 279.944763 
L 159.618067 279.944763 
L 159.618067 279.289617 
L 159.966168 279.289617 
L 159.966168 277.979325 
L 160.288133 277.979325 
L 160.394148 276.013887 
L 160.499521 276.013887 
L 160.575759 274.703594 
L 160.905434 274.703594 
L 160.905434 274.048448 
L 161.118732 274.048448 
L 161.118732 272.738156 
L 161.420284 272.738156 
L 161.519653 270.117572 
L 161.582595 270.117572 
L 161.582595 269.462426 
L 161.911563 269.462426 
L 161.911563 268.807279 
L 162.147765 268.807279 
L 162.147765 268.152133 
L 162.29486 268.152133 
L 162.389382 266.841841 
L 162.55145 266.841841 
L 162.593851 264.876403 
L 162.770815 264.876403 
L 162.846111 263.566111 
L 163.217788 263.566111 
L 163.242288 262.255818 
L 163.388564 262.255818 
L 163.477355 258.980088 
L 163.573705 258.980088 
L 163.573705 258.324942 
L 163.835954 258.324942 
L 163.835954 257.01465 
L 164.055418 257.01465 
L 164.117618 255.704357 
L 164.394804 255.704357 
L 164.440577 254.394065 
L 164.584735 254.394065 
L 164.622474 252.428627 
L 165.017568 252.428627 
L 165.047026 250.463189 
L 165.171671 250.463189 
L 165.171671 249.152896 
L 165.461488 249.152896 
L 165.461488 248.49775 
L 165.675732 248.49775 
L 165.725346 247.187458 
L 166.158729 247.187458 
L 166.158729 246.532312 
L 166.385083 246.532312 
L 166.391896 245.22202 
L 166.500553 245.22202 
L 166.514087 243.911728 
L 167.301055 243.911728 
L 167.3269 242.601435 
L 167.487573 242.601435 
L 167.487573 241.946289 
L 167.646779 241.946289 
L 167.653117 240.635997 
L 168.054037 240.635997 
L 168.122027 239.325705 
L 168.287795 239.325705 
L 168.367051 238.015413 
L 168.662588 238.015413 
L 168.662588 237.360267 
L 168.852923 237.360267 
L 168.876569 235.394828 
L 168.982583 235.394828 
L 168.988454 234.084536 
L 169.645097 234.084536 
L 169.678981 232.119098 
L 169.953269 232.119098 
L 170.041906 229.498513 
L 170.14658 229.498513 
L 170.14658 228.843367 
L 170.397431 228.843367 
L 170.494616 225.567637 
L 170.793552 225.567637 
L 170.793552 224.912491 
L 170.920115 224.912491 
L 170.956857 223.602199 
L 171.391826 223.602199 
L 171.463278 221.63676 
L 171.509057 221.63676 
L 171.554716 220.326468 
L 171.685953 220.326468 
L 171.751203 218.36103 
L 172.313173 218.36103 
L 172.395445 216.395591 
L 172.515733 216.395591 
L 172.515733 215.740445 
L 172.701741 215.740445 
L 172.791647 213.119861 
L 172.848191 213.119861 
L 172.951383 211.154423 
L 173.169812 211.154423 
L 173.257343 209.84413 
L 173.326137 209.84413 
L 173.335289 208.533838 
L 173.508272 208.533838 
L 173.598631 205.258108 
L 173.666095 205.258108 
L 173.742239 202.637523 
L 173.82695 202.637523 
L 173.915677 199.361793 
L 174.261802 199.361793 
L 174.261802 198.706647 
L 174.579904 198.706647 
L 174.664891 197.396355 
L 174.711458 197.396355 
L 174.808425 196.086062 
L 174.842027 196.086062 
L 174.850417 194.120624 
L 174.954957 194.120624 
L 175.03399 188.879455 
L 175.071303 188.879455 
L 175.071303 187.569163 
L 175.431987 187.569163 
L 175.431987 186.914017 
L 175.681699 186.914017 
L 175.733608 185.603725 
L 175.801256 185.603725 
L 175.912107 184.293433 
L 175.923943 184.293433 
L 175.923943 183.638286 
L 176.170646 183.638286 
L 176.182307 182.327994 
L 176.286908 182.327994 
L 176.313925 181.017702 
L 176.440729 181.017702 
L 176.440729 179.70741 
L 176.604586 179.70741 
L 176.634902 178.397118 
L 176.811953 178.397118 
L 176.912855 177.086825 
L 176.935199 177.086825 
L 177.039093 175.121387 
L 177.076048 175.121387 
L 177.098184 173.155949 
L 177.193782 173.155949 
L 177.208443 171.190511 
L 177.372536 171.190511 
L 177.372536 170.535364 
L 177.499105 170.535364 
L 177.574607 167.91478 
L 177.656927 167.91478 
L 177.710406 165.949342 
L 177.820411 165.949342 
L 177.915659 163.983903 
L 177.982376 163.983903 
L 178.031372 162.018465 
L 178.160204 162.018465 
L 178.222537 159.397881 
L 178.3911 159.397881 
L 178.50031 156.12215 
L 178.561441 156.12215 
L 178.588541 154.811858 
L 178.68643 154.811858 
L 178.736847 152.84642 
L 178.923793 152.84642 
L 178.976841 150.225835 
L 179.105471 150.225835 
L 179.105471 149.570689 
L 179.216842 149.570689 
L 179.30478 146.294959 
L 179.350203 146.294959 
L 179.350203 145.639813 
L 179.463246 145.639813 
L 179.537135 143.019228 
L 179.772761 143.019228 
L 179.83275 137.778059 
L 179.886249 137.778059 
L 179.977136 135.812621 
L 180.142026 135.812621 
L 180.20076 133.192037 
L 180.345204 133.192037 
L 180.363558 131.881745 
L 180.573251 131.881745 
L 180.645601 129.26116 
L 180.756556 129.26116 
L 180.863838 127.295722 
L 180.875718 127.295722 
L 180.952739 124.675137 
L 181.052948 124.675137 
L 181.135043 120.744261 
L 181.167189 120.744261 
L 181.242936 118.123676 
L 181.298082 118.123676 
L 181.379034 116.813384 
L 181.462482 116.813384 
L 181.485433 114.847946 
L 181.599733 114.847946 
L 181.704798 110.261923 
L 181.935412 110.261923 
L 182.03848 108.951631 
L 182.082862 108.951631 
L 182.179555 103.710462 
L 182.735382 103.710462 
L 182.823224 101.745024 
L 182.897411 101.745024 
L 183.00022 99.12444 
L 183.015983 99.12444 
L 183.102427 97.814147 
L 183.16763 97.814147 
L 183.16763 97.159001 
L 183.294726 97.159001 
L 183.37723 94.538417 
L 183.423468 94.538417 
L 183.49004 92.572979 
L 183.571627 92.572979 
L 183.675606 91.262686 
L 184.006219 91.262686 
L 184.006219 90.60754 
L 184.166746 90.60754 
L 184.166746 89.952394 
L 184.534056 89.952394 
L 184.570125 87.986956 
L 184.796844 87.986956 
L 184.808696 86.676664 
L 185.230068 86.676664 
L 185.340735 84.711225 
L 185.713637 84.711225 
L 185.715886 83.400933 
L 186.208228 83.400933 
L 186.208228 82.090641 
L 190.622286 82.090641 
L 190.622286 80.125203 
L 191.365132 80.125203 
L 191.365132 79.470057 
L 192.340363 79.470057 
L 192.405626 78.159764 
L 192.495822 78.159764 
L 192.533901 75.53918 
L 193.351262 75.53918 
L 193.351262 74.884034 
L 193.46558 74.884034 
L 193.46558 73.573742 
L 193.850726 73.573742 
L 193.850726 72.918596 
L 195.082294 72.918596 
L 195.082294 72.263449 
L 195.362674 72.263449 
L 195.458144 69.642865 
L 196.432666 69.642865 
L 196.432666 68.987719 
L 197.464884 68.987719 
L 197.518699 67.022281 
L 197.91207 67.022281 
L 197.91207 66.367135 
L 198.206878 66.367135 
L 198.206878 65.056842 
L 201.91306 65.056842 
L 201.91306 64.401696 
L 202.153095 64.401696 
L 202.153095 63.74655 
L 202.500191 63.74655 
L 202.500191 63.091404 
L 203.208179 63.091404 
L 203.208179 62.436258 
L 203.561787 62.436258 
L 203.561787 61.781112 
L 208.146494 61.781112 
L 208.146494 61.125966 
L 214.574643 61.125966 
L 214.574643 60.47082 
L 216.89226 60.47082 
L 216.89226 59.815674 
L 217.055237 59.815674 
L 217.055237 59.160527 
L 224.00326 59.160527 
L 224.00326 58.505381 
L 225.236373 58.505381 
L 225.238239 57.195089 
L 225.717683 57.195089 
L 225.717683 56.539943 
L 230.087159 56.539943 
L 230.190096 55.229651 
L 231.096507 55.229651 
L 231.096507 54.574505 
L 234.209883 54.574505 
L 234.209883 53.919359 
L 234.358593 53.919359 
L 234.358593 52.609066 
L 236.988852 52.609066 
L 236.988852 50.643628 
L 239.148763 50.643628 
L 239.148763 49.988482 
L 239.848424 49.988482 
L 239.848424 49.333336 
L 244.527536 49.333336 
L 244.607648 48.023044 
L 244.92892 48.023044 
L 244.954543 46.712752 
L 247.779291 46.712752 
L 247.779291 46.057605 
L 252.333919 46.057605 
L 252.354524 44.747313 
L 259.187153 44.747313 
L 259.187153 44.092167 
L 269.181643 44.092167 
L 269.181643 43.437021 
L 338.688 43.437021 
L 338.688 43.437021 
" style="fill:none;stroke:#000080;stroke-linecap:square;stroke-width:1.5;"/>
   </g>
   <g id="line2d_31">
    <defs>
     <path d="M 0 6 
C 1.591219 6 3.117479 5.367802 4.242641 4.242641 
C 5.367802 3.117479 6 1.591219 6 0 
C 6 -1.591219 5.367802 -3.117479 4.242641 -4.242641 
C 3.117479 -5.367802 1.591219 -6 0 -6 
C -1.591219 -6 -3.117479 -5.367802 -4.242641 -4.242641 
C -5.367802 -3.117479 -6 -1.591219 -6 0 
C -6 1.591219 -5.367802 3.117479 -4.242641 4.242641 
C -3.117479 5.367802 -1.591219 6 0 6 
z
" id="m8dd91d47c9" style="stroke:#000080;stroke-width:1.5;"/>
    </defs>
    <g>
     <use style="fill-opacity:0;stroke:#000080;stroke-width:1.5;" x="168.988454" xlink:href="#m8dd91d47c9" y="234.084536"/>
     <use style="fill-opacity:0;stroke:#000080;stroke-width:1.5;" x="182.897411" xlink:href="#m8dd91d47c9" y="101.745024"/>
     <use style="fill-opacity:0;stroke:#000080;stroke-width:1.5;" x="230.190096" xlink:href="#m8dd91d47c9" y="55.229651"/>
     <use style="fill-opacity:0;stroke:#000080;stroke-width:1.5;" x="269.181643" xlink:href="#m8dd91d47c9" y="43.437021"/>
     <use style="fill-opacity:0;stroke:#000080;stroke-width:1.5;" x="338.688" xlink:href="#m8dd91d47c9" y="43.437021"/>
    </g>
   </g>
   <g id="line2d_32">
    <path style="fill:none;stroke:#000080;stroke-linecap:square;stroke-width:1.5;"/>
    <g/>
   </g>
   <g id="line2d_33">
    <path clip-path="url(#p4e5e732514)" d="M 234.408847 52.609066 
" style="fill:none;stroke:#000080;stroke-linecap:square;stroke-width:1.5;"/>
    <defs>
     <path d="M -12 12 
L 12 -12 
M -12 -12 
L 12 12 
" id="m2526a78965" style="stroke:#000080;"/>
    </defs>
    <g clip-path="url(#p4e5e732514)">
     <use style="fill:#000080;stroke:#000080;" x="234.408847" xlink:href="#m2526a78965" y="52.609066"/>
    </g>
   </g>
   <g id="line2d_34">
    <defs>
     <path d="M 0 1.5 
C 0.397805 1.5 0.77937 1.341951 1.06066 1.06066 
C 1.341951 0.77937 1.5 0.397805 1.5 0 
C 1.5 -0.397805 1.341951 -0.77937 1.06066 -1.06066 
C 0.77937 -1.341951 0.397805 -1.5 0 -1.5 
C -0.397805 -1.5 -0.77937 -1.341951 -1.06066 -1.06066 
C -1.341951 -0.77937 -1.5 -0.397805 -1.5 0 
C -1.5 0.397805 -1.341951 0.77937 -1.06066 1.06066 
C -0.77937 1.341951 -0.397805 1.5 0 1.5 
z
" id="m43feb7b51b" style="stroke:#ff00ff;"/>
    </defs>
    <g>
     <use style="fill:#ff00ff;stroke:#ff00ff;" x="263.511349" xlink:href="#m43feb7b51b" y="30.334099"/>
     <use style="fill:#ff00ff;stroke:#ff00ff;" x="263.511349" xlink:href="#m43feb7b51b" y="30.334099"/>
    </g>
   </g>
   <g id="line2d_35">
    <path d="M 147.205618 298.944 
L 147.205618 298.288854 
L 150.54816 298.288854 
L 150.581924 296.978562 
L 151.897188 296.978562 
L 151.897188 296.323416 
L 152.176471 296.323416 
L 152.176471 295.66827 
L 152.840905 295.66827 
L 152.840905 295.013123 
L 153.40939 295.013123 
L 153.40939 294.357977 
L 154.840544 294.357977 
L 154.840544 293.702831 
L 155.82927 293.702831 
L 155.82927 293.047685 
L 156.236431 293.047685 
L 156.236431 292.392539 
L 156.430472 292.392539 
L 156.502685 291.082247 
L 156.812195 291.082247 
L 156.812195 290.427101 
L 157.15106 290.427101 
L 157.15106 289.771955 
L 157.335239 289.771955 
L 157.335239 289.116809 
L 157.528821 289.116809 
L 157.58535 287.806516 
L 157.84305 287.806516 
L 157.84305 287.15137 
L 158.0201 287.15137 
L 158.096998 285.841078 
L 158.314856 285.841078 
L 158.347301 284.530786 
L 158.732007 284.530786 
L 158.83738 282.565348 
L 158.962994 282.565348 
L 158.962994 281.910201 
L 159.07735 281.910201 
L 159.07735 281.255055 
L 159.39565 281.255055 
L 159.39565 280.599909 
L 159.638147 280.599909 
L 159.638147 279.944763 
L 159.857512 279.944763 
L 159.857512 279.289617 
L 160.025151 279.289617 
L 160.025151 278.634471 
L 160.181471 278.634471 
L 160.181471 277.979325 
L 160.394148 277.979325 
L 160.499521 276.013887 
L 160.604262 276.013887 
L 160.642194 274.048448 
L 161.017045 274.048448 
L 161.017045 273.393302 
L 161.274728 273.393302 
L 161.274728 272.738156 
L 161.519653 272.738156 
L 161.519653 272.08301 
L 161.955547 272.08301 
L 161.955547 271.427864 
L 162.104265 271.427864 
L 162.199823 269.462426 
L 162.389382 269.462426 
L 162.483394 266.841841 
L 162.669913 266.841841 
L 162.669913 266.186695 
L 162.896128 266.186695 
L 162.896128 265.531549 
L 163.356164 265.531549 
L 163.36427 264.221257 
L 163.748975 264.221257 
L 163.835954 262.910965 
L 163.930348 262.910965 
L 164.008622 260.945526 
L 164.063205 260.945526 
L 164.070989 259.635234 
L 164.218222 259.635234 
L 164.218222 258.980088 
L 164.394804 258.980088 
L 164.394804 258.324942 
L 164.599841 258.324942 
L 164.599841 257.669796 
L 164.995441 257.669796 
L 164.995441 257.01465 
L 165.171671 257.01465 
L 165.171671 256.359504 
L 165.568939 256.359504 
L 165.633093 255.049211 
L 165.725346 255.049211 
L 165.725346 254.394065 
L 165.880363 254.394065 
L 165.957358 253.083773 
L 166.193215 253.083773 
L 166.24825 251.118335 
L 166.337313 251.118335 
L 166.385083 248.49775 
L 166.715855 248.49775 
L 166.715855 247.842604 
L 167.027338 247.842604 
L 167.073257 245.877166 
L 167.216791 245.877166 
L 167.223287 244.566874 
L 167.506754 244.566874 
L 167.506754 243.911728 
L 167.710056 243.911728 
L 167.710056 243.256582 
L 167.829655 243.256582 
L 167.848464 241.946289 
L 167.991998 241.946289 
L 168.029248 240.635997 
L 168.140524 240.635997 
L 168.189752 238.670559 
L 168.656606 238.670559 
L 168.662588 237.360267 
L 168.982583 237.360267 
L 168.982583 236.705121 
L 169.239048 236.705121 
L 169.302579 235.394828 
L 169.446113 235.394828 
L 169.503198 233.42939 
L 169.656399 233.42939 
L 169.695899 232.119098 
L 169.892068 232.119098 
L 169.925477 230.15366 
L 170.019789 230.15366 
L 170.130094 228.188221 
L 170.206895 228.188221 
L 170.206895 227.533075 
L 170.402844 227.533075 
L 170.467674 226.222783 
L 170.532264 226.222783 
L 170.58055 224.257345 
L 170.767069 224.257345 
L 170.767069 223.602199 
L 171.050982 223.602199 
L 171.050982 222.947052 
L 171.284097 222.947052 
L 171.284097 222.291906 
L 171.67086 222.291906 
L 171.771231 220.326468 
L 171.81621 220.326468 
L 171.836163 218.36103 
L 172.186589 218.36103 
L 172.186589 217.705884 
L 172.668501 217.705884 
L 172.744386 216.395591 
L 172.843486 216.395591 
L 172.843486 215.740445 
L 173.155951 215.740445 
L 173.155951 215.085299 
L 173.517329 215.085299 
L 173.517329 214.430153 
L 173.724353 214.430153 
L 173.80915 211.809569 
L 173.835843 211.809569 
L 173.835843 211.154423 
L 174.361294 211.154423 
L 174.361294 210.499277 
L 174.571383 210.499277 
L 174.6182 207.878692 
L 175.215651 207.878692 
L 175.215651 206.5684 
L 175.440098 206.5684 
L 175.440098 205.913254 
L 175.880507 205.913254 
L 175.880507 204.602962 
L 176.100515 204.602962 
L 176.100515 203.292669 
L 176.486612 203.292669 
L 176.513321 201.327231 
L 176.990933 201.327231 
L 177.05758 199.361793 
L 177.112926 199.361793 
L 177.116609 198.051501 
L 177.617605 198.051501 
L 177.639065 196.741208 
L 177.841622 196.741208 
L 177.841622 196.086062 
L 177.968351 196.086062 
L 178.020885 194.120624 
L 178.425302 194.120624 
L 178.425302 193.465478 
L 178.61222 193.465478 
L 178.652737 192.155186 
L 178.976841 192.155186 
L 178.993385 190.844894 
L 179.125177 190.844894 
L 179.125177 190.189747 
L 179.588351 190.189747 
L 179.652162 187.569163 
L 180.378838 187.569163 
L 180.476316 186.258871 
L 180.530908 186.258871 
L 180.530908 185.603725 
L 180.846003 185.603725 
L 180.846003 184.948579 
L 181.076443 184.948579 
L 181.076443 184.293433 
L 181.295184 184.293433 
L 181.361719 182.98314 
L 181.485433 182.98314 
L 181.485433 182.327994 
L 181.633877 182.327994 
L 181.69347 179.70741 
L 182.118839 179.70741 
L 182.207084 178.397118 
L 182.558359 178.397118 
L 182.61488 176.431679 
L 182.762047 176.431679 
L 182.791332 174.466241 
L 183.042224 174.466241 
L 183.042224 173.155949 
L 183.20144 173.155949 
L 183.281799 171.845657 
L 183.492595 171.845657 
L 183.581799 169.880218 
L 183.668019 169.880218 
L 183.761365 167.91478 
L 184.15199 167.91478 
L 184.259912 165.949342 
L 184.403587 165.949342 
L 184.403587 164.63905 
L 184.603722 164.63905 
L 184.603722 163.983903 
L 184.808696 163.983903 
L 184.808696 163.328757 
L 185.116366 163.328757 
L 185.148928 162.018465 
L 185.292405 162.018465 
L 185.388932 159.397881 
L 185.455272 159.397881 
L 185.546363 156.777296 
L 185.603054 156.777296 
L 185.704636 154.811858 
L 185.954922 154.811858 
L 185.954922 154.156712 
L 186.085338 154.156712 
L 186.085338 153.501566 
L 186.197291 153.501566 
L 186.197291 152.84642 
L 186.629513 152.84642 
L 186.716811 151.536128 
L 186.757118 151.536128 
L 186.816349 148.915543 
L 186.873275 148.915543 
L 186.946792 147.605251 
L 186.984481 147.605251 
L 187.013738 145.639813 
L 187.167572 145.639813 
L 187.239861 144.32952 
L 187.503741 144.32952 
L 187.550373 143.019228 
L 187.797658 143.019228 
L 187.859432 141.05379 
L 187.946738 141.05379 
L 187.946738 140.398644 
L 188.343969 140.398644 
L 188.355574 139.088352 
L 188.503814 139.088352 
L 188.607028 137.122913 
L 188.871809 137.122913 
L 188.881191 135.157475 
L 189.043644 135.157475 
L 189.108574 133.847183 
L 189.206439 133.847183 
L 189.206439 133.192037 
L 189.637465 133.192037 
L 189.646444 131.881745 
L 190.03177 131.881745 
L 190.142062 129.26116 
L 190.145552 129.26116 
L 190.145552 128.606014 
L 190.300152 128.606014 
L 190.300152 127.950868 
L 190.456822 127.950868 
L 190.564467 125.98543 
L 190.583194 125.98543 
L 190.662985 124.019991 
L 190.792921 124.019991 
L 190.87176 122.054553 
L 190.958573 122.054553 
L 191.008461 118.123676 
L 191.102857 118.123676 
L 191.102857 117.46853 
L 191.299932 117.46853 
L 191.392768 114.847946 
L 191.44629 114.847946 
L 191.502877 112.882508 
L 191.581792 112.882508 
L 191.631534 110.917069 
L 191.695507 110.917069 
L 191.711464 109.606777 
L 191.895505 109.606777 
L 191.922314 107.641339 
L 192.058872 107.641339 
L 192.157095 105.675901 
L 192.544548 105.675901 
L 192.605265 102.40017 
L 192.664261 102.40017 
L 192.667281 101.089878 
L 192.816123 101.089878 
L 192.868442 99.12444 
L 193.107106 99.12444 
L 193.209863 96.503855 
L 193.494403 96.503855 
L 193.586317 93.883271 
L 193.684873 93.883271 
L 193.787123 92.572979 
L 194.070832 92.572979 
L 194.070832 91.262686 
L 194.249627 91.262686 
L 194.311568 89.952394 
L 194.408853 89.952394 
L 194.509674 86.021518 
L 194.584233 86.021518 
L 194.584233 85.366371 
L 194.798 85.366371 
L 194.806016 84.056079 
L 195.874497 84.056079 
L 195.89584 82.090641 
L 199.414203 82.090641 
L 199.414203 81.435495 
L 199.86867 81.435495 
L 199.86867 80.780349 
L 200.261846 80.780349 
L 200.261846 80.125203 
L 201.523089 80.125203 
L 201.523089 79.470057 
L 202.202106 79.470057 
L 202.202106 78.81491 
L 203.382204 78.81491 
L 203.382204 77.504618 
L 206.900681 77.504618 
L 206.900681 76.849472 
L 208.020177 76.849472 
L 208.020177 76.194326 
L 208.445668 76.194326 
L 208.445668 75.53918 
L 208.612878 75.53918 
L 208.612878 74.884034 
L 209.323743 74.884034 
L 209.323743 74.228888 
L 211.809672 74.228888 
L 211.809672 73.573742 
L 212.384964 73.573742 
L 212.384964 72.918596 
L 213.518602 72.918596 
L 213.518602 72.263449 
L 213.65056 72.263449 
L 213.680452 70.953157 
L 214.314112 70.953157 
L 214.314112 68.987719 
L 215.461206 68.987719 
L 215.461206 68.332573 
L 215.893421 68.332573 
L 215.947945 67.022281 
L 217.18453 67.022281 
L 217.197481 65.711988 
L 217.517799 65.711988 
L 217.517799 65.056842 
L 217.868326 65.056842 
L 217.939721 63.74655 
L 218.185403 63.74655 
L 218.185403 63.091404 
L 219.959788 63.091404 
L 219.959788 62.436258 
L 220.320044 62.436258 
L 220.320044 61.781112 
L 221.281401 61.781112 
L 221.281401 61.125966 
L 221.793569 61.125966 
L 221.793569 60.47082 
L 223.167735 60.47082 
L 223.167735 59.815674 
L 223.345693 59.815674 
L 223.345693 59.160527 
L 224.229002 59.160527 
L 224.229002 58.505381 
L 224.346249 58.505381 
L 224.346249 57.850235 
L 224.714981 57.850235 
L 224.714981 56.539943 
L 225.060532 56.539943 
L 225.060532 55.884797 
L 225.438382 55.884797 
L 225.438382 55.229651 
L 225.949417 55.229651 
L 225.949417 54.574505 
L 226.257936 54.574505 
L 226.257936 53.919359 
L 226.735564 53.919359 
L 226.772343 52.609066 
L 226.875637 52.609066 
L 226.941976 50.643628 
L 235.652834 50.643628 
L 235.661176 49.333336 
L 235.775127 49.333336 
L 235.775127 48.67819 
L 236.004719 48.67819 
L 236.004719 48.023044 
L 238.515981 48.023044 
L 238.515981 47.367898 
L 239.832471 47.367898 
L 239.832471 46.712752 
L 240.325259 46.712752 
L 240.325259 46.057605 
L 240.694673 46.057605 
L 240.694673 45.402459 
L 240.810713 45.402459 
L 240.810713 44.747313 
L 242.282737 44.747313 
L 242.282737 44.092167 
L 246.043421 44.092167 
L 246.129519 42.781875 
L 246.191851 42.781875 
L 246.191851 42.126729 
L 246.387791 42.126729 
L 246.387791 41.471583 
L 246.570162 41.471583 
L 246.625195 40.161291 
L 246.765381 40.161291 
L 246.850901 36.88556 
L 246.885046 36.88556 
L 246.936609 35.575268 
L 247.000279 35.575268 
L 247.100579 34.264976 
L 253.815528 34.264976 
L 253.815528 33.60983 
L 255.751138 33.60983 
L 255.751138 32.954683 
L 258.713525 32.954683 
L 258.778748 31.644391 
L 260.132256 31.644391 
L 260.132256 30.989245 
L 263.511349 30.989245 
L 263.511349 30.334099 
L 338.688 30.334099 
L 338.688 30.334099 
" style="fill:none;stroke:#ff00ff;stroke-linecap:square;stroke-width:1.5;"/>
   </g>
   <g id="line2d_36">
    <defs>
     <path d="M -0 8.485281 
L 5.091169 0 
L 0 -8.485281 
L -5.091169 -0 
z
" id="me2b2110f98" style="stroke:#ff00ff;stroke-linejoin:miter;stroke-width:1.5;"/>
    </defs>
    <g>
     <use style="fill-opacity:0;stroke:#ff00ff;stroke-linejoin:miter;stroke-width:1.5;" x="186.197291" xlink:href="#me2b2110f98" y="153.501566"/>
     <use style="fill-opacity:0;stroke:#ff00ff;stroke-linejoin:miter;stroke-width:1.5;" x="226.941976" xlink:href="#me2b2110f98" y="50.643628"/>
     <use style="fill-opacity:0;stroke:#ff00ff;stroke-linejoin:miter;stroke-width:1.5;" x="263.511349" xlink:href="#me2b2110f98" y="30.334099"/>
     <use style="fill-opacity:0;stroke:#ff00ff;stroke-linejoin:miter;stroke-width:1.5;" x="263.511349" xlink:href="#me2b2110f98" y="30.334099"/>
     <use style="fill-opacity:0;stroke:#ff00ff;stroke-linejoin:miter;stroke-width:1.5;" x="338.688" xlink:href="#me2b2110f98" y="30.334099"/>
    </g>
   </g>
   <g id="line2d_37">
    <path style="fill:none;stroke:#ff00ff;stroke-linecap:square;stroke-width:1.5;"/>
    <g/>
   </g>
   <g id="line2d_38">
    <path clip-path="url(#p4e5e732514)" d="M 245.896641 44.092167 
" style="fill:none;stroke:#ff00ff;stroke-linecap:square;stroke-width:1.5;"/>
    <defs>
     <path d="M -12 12 
L 12 -12 
M -12 -12 
L 12 12 
" id="m37644bca5e" style="stroke:#ff00ff;"/>
    </defs>
    <g clip-path="url(#p4e5e732514)">
     <use style="fill:#ff00ff;stroke:#ff00ff;" x="245.896641" xlink:href="#m37644bca5e" y="44.092167"/>
    </g>
   </g>
   <g id="line2d_39">
    <defs>
     <path d="M 0 1.5 
C 0.397805 1.5 0.77937 1.341951 1.06066 1.06066 
C 1.341951 0.77937 1.5 0.397805 1.5 0 
C 1.5 -0.397805 1.341951 -0.77937 1.06066 -1.06066 
C 0.77937 -1.341951 0.397805 -1.5 0 -1.5 
C -0.397805 -1.5 -0.77937 -1.341951 -1.06066 -1.06066 
C -1.341951 -0.77937 -1.5 -0.397805 -1.5 0 
C -1.5 0.397805 -1.341951 0.77937 -1.06066 1.06066 
C -0.77937 1.341951 -0.397805 1.5 0 1.5 
z
" id="m92b47af8bf" style="stroke:#ff7500;"/>
    </defs>
    <g>
     <use style="fill:#ff7500;stroke:#ff7500;" x="198.882678" xlink:href="#m92b47af8bf" y="30.334099"/>
     <use style="fill:#ff7500;stroke:#ff7500;" x="198.882678" xlink:href="#m92b47af8bf" y="30.334099"/>
    </g>
   </g>
   <g id="line2d_40">
    <path d="M 150.849711 298.944 
L 150.849711 298.288854 
L 152.021866 298.288854 
L 152.021866 297.633708 
L 153.323128 297.633708 
L 153.323128 296.978562 
L 153.637357 296.978562 
L 153.722083 295.013123 
L 153.792374 295.013123 
L 153.792374 294.357977 
L 154.249325 294.357977 
L 154.249325 293.702831 
L 154.694607 293.702831 
L 154.694607 293.047685 
L 155.076745 293.047685 
L 155.128803 291.737393 
L 155.399584 291.737393 
L 155.399584 291.082247 
L 155.565128 291.082247 
L 155.565128 290.427101 
L 155.82927 290.427101 
L 155.82927 289.771955 
L 155.966049 289.771955 
L 155.966049 289.116809 
L 156.101764 289.116809 
L 156.101764 288.461662 
L 156.454576 288.461662 
L 156.454576 287.806516 
L 156.764934 287.806516 
L 156.764934 285.841078 
L 156.92979 285.841078 
L 156.92979 285.185932 
L 157.551454 285.185932 
L 157.58535 283.87564 
L 157.77619 283.87564 
L 157.77619 283.220494 
L 157.898572 283.220494 
L 157.898572 282.565348 
L 158.732007 282.565348 
L 158.732007 281.255055 
L 158.847883 281.255055 
L 158.847883 280.599909 
L 158.962994 280.599909 
L 158.962994 279.944763 
L 159.303838 279.944763 
L 159.314063 278.634471 
L 159.688246 278.634471 
L 159.748174 276.669033 
L 159.926735 276.669033 
L 160.005512 275.35874 
L 160.064363 275.35874 
L 160.074152 274.048448 
L 160.181471 274.048448 
L 160.200913 272.738156 
L 160.849359 272.738156 
L 160.849359 272.08301 
L 161.017045 272.08301 
L 161.118732 270.772718 
L 161.420284 270.772718 
L 161.528659 268.807279 
L 161.591568 268.807279 
L 161.627414 267.496987 
L 161.823263 267.496987 
L 161.911563 266.186695 
L 162.034438 266.186695 
L 162.034438 265.531549 
L 162.156452 265.531549 
L 162.156452 264.876403 
L 162.517456 264.876403 
L 162.52596 263.566111 
L 162.779197 263.566111 
L 162.779197 262.910965 
L 163.078306 262.910965 
L 163.078306 262.255818 
L 163.201437 262.255818 
L 163.201437 261.600672 
L 163.323704 261.600672 
L 163.396654 260.29038 
L 163.485404 260.29038 
L 163.541647 258.980088 
L 163.748975 258.980088 
L 163.804376 256.359504 
L 163.922502 256.359504 
L 163.922502 255.704357 
L 164.047627 255.704357 
L 164.055418 253.738919 
L 164.179597 253.738919 
L 164.264459 251.773481 
L 164.471025 251.773481 
L 164.471025 251.118335 
L 164.652607 251.118335 
L 164.652607 250.463189 
L 164.765143 250.463189 
L 164.765143 249.808043 
L 165.411116 249.808043 
L 165.490206 247.187458 
L 165.547501 247.187458 
L 165.547501 246.532312 
L 165.788929 246.532312 
L 165.788929 245.877166 
L 166.027059 245.877166 
L 166.027059 245.22202 
L 166.151824 245.22202 
L 166.193215 243.911728 
L 166.296264 243.911728 
L 166.391896 241.291143 
L 166.541125 241.291143 
L 166.541125 240.635997 
L 166.855717 240.635997 
L 166.855717 239.980851 
L 167.320442 239.980851 
L 167.429901 238.015413 
L 167.442734 238.015413 
L 167.442734 236.705121 
L 167.848464 236.705121 
L 167.848464 234.739682 
L 168.152844 234.739682 
L 168.208177 233.42939 
L 168.620674 233.42939 
L 168.620674 232.774244 
L 168.752066 232.774244 
L 168.758015 230.15366 
L 169.041203 230.15366 
L 169.087957 228.843367 
L 169.678981 228.843367 
L 169.7128 226.222783 
L 170.119095 226.222783 
L 170.228776 223.602199 
L 170.35949 223.602199 
L 170.446091 221.63676 
L 170.724611 221.63676 
L 170.819995 220.326468 
L 170.904345 220.326468 
L 171.009212 218.36103 
L 171.263501 218.36103 
L 171.325215 217.050738 
L 171.376477 217.050738 
L 171.437793 215.740445 
L 171.660792 215.740445 
L 171.660792 215.085299 
L 171.81621 215.085299 
L 171.81621 214.430153 
L 171.98509 214.430153 
L 171.999913 212.464715 
L 172.366452 212.464715 
L 172.462909 209.188984 
L 172.635197 209.188984 
L 172.678005 207.878692 
L 172.83878 207.878692 
L 172.937347 206.5684 
L 172.984089 206.5684 
L 173.077198 203.292669 
L 173.105034 203.292669 
L 173.105034 202.637523 
L 173.229749 202.637523 
L 173.330714 200.672085 
L 173.349008 200.672085 
L 173.394661 198.706647 
L 173.481073 198.706647 
L 173.512801 197.396355 
L 173.612145 197.396355 
L 173.67507 196.086062 
L 173.737769 196.086062 
L 173.82695 194.120624 
L 173.853616 194.120624 
L 173.853616 193.465478 
L 173.986335 193.465478 
L 174.096169 188.224309 
L 174.100548 188.224309 
L 174.200962 184.948579 
L 174.235754 184.948579 
L 174.339714 182.98314 
L 174.387156 182.98314 
L 174.494501 179.052264 
L 174.605444 179.052264 
L 174.605444 178.397118 
L 174.795808 178.397118 
L 174.883938 175.121387 
L 175.004915 175.121387 
L 175.004915 173.155949 
L 175.260772 173.155949 
L 175.350666 171.190511 
L 175.444152 171.190511 
L 175.488687 168.569926 
L 175.60957 168.569926 
L 175.665696 166.604488 
L 175.821103 166.604488 
L 175.85677 165.294196 
L 176.116124 165.294196 
L 176.224998 162.673611 
L 176.228874 162.673611 
L 176.30621 160.053027 
L 176.410073 160.053027 
L 176.509508 158.087589 
L 176.543796 158.087589 
L 176.650041 156.12215 
L 176.935199 156.12215 
L 177.016882 153.501566 
L 177.068663 153.501566 
L 177.168096 149.570689 
L 177.31801 149.570689 
L 177.412414 148.260397 
L 177.477472 148.260397 
L 177.535099 146.950105 
L 177.617605 146.950105 
L 177.696161 143.674374 
L 177.738861 143.674374 
L 177.767269 142.364082 
L 177.852218 142.364082 
L 177.869864 141.05379 
L 177.968351 141.05379 
L 178.059309 138.433206 
L 178.160204 138.433206 
L 178.198323 137.122913 
L 178.277758 137.122913 
L 178.277758 134.502329 
L 178.421885 134.502329 
L 178.507112 131.881745 
L 178.56483 131.881745 
L 178.67296 125.98543 
L 178.68643 125.98543 
L 178.777076 124.675137 
L 178.953652 124.675137 
L 178.953652 124.019991 
L 179.072579 124.019991 
L 179.180888 120.744261 
L 179.19724 120.744261 
L 179.295031 119.433969 
L 179.356682 119.433969 
L 179.456806 118.123676 
L 179.633043 118.123676 
L 179.69669 116.158238 
L 179.750608 116.158238 
L 179.854799 113.537654 
L 179.983387 113.537654 
L 180.07377 110.261923 
L 180.101725 110.261923 
L 180.210015 105.020754 
L 180.231593 105.020754 
L 180.259296 100.434732 
L 180.372728 100.434732 
L 180.442869 96.503855 
L 180.497567 96.503855 
L 180.546043 94.538417 
L 180.828151 94.538417 
L 180.908345 92.572979 
L 181.029421 92.572979 
L 181.082312 89.952394 
L 181.149662 89.952394 
L 181.231304 86.676664 
L 181.263273 86.676664 
L 181.361719 84.711225 
L 181.381918 84.711225 
L 181.45674 82.090641 
L 181.556958 82.090641 
L 181.645244 80.125203 
L 181.750036 80.125203 
L 181.755682 78.81491 
L 181.913047 78.81491 
L 182.013465 74.884034 
L 182.057911 74.884034 
L 182.163017 72.263449 
L 182.190572 72.263449 
L 182.289409 65.056842 
L 182.393133 65.056842 
L 182.461038 61.781112 
L 182.552966 61.781112 
L 182.617566 58.505381 
L 182.673896 58.505381 
L 182.762047 57.195089 
L 182.791332 57.195089 
L 182.791332 56.539943 
L 182.905341 56.539943 
L 183.00022 51.298774 
L 183.063188 51.298774 
L 183.149398 49.333336 
L 183.196243 49.333336 
L 183.253327 48.023044 
L 183.607202 48.023044 
L 183.705922 46.057605 
L 183.841696 46.057605 
L 183.899206 44.092167 
L 184.070607 44.092167 
L 184.097777 41.471583 
L 184.210939 41.471583 
L 184.210939 40.161291 
L 184.490674 40.161291 
L 184.497912 38.850998 
L 184.603722 38.850998 
L 184.651606 36.88556 
L 184.832374 36.88556 
L 184.832374 36.230414 
L 184.999574 36.230414 
L 184.999574 35.575268 
L 185.468966 35.575268 
L 185.468966 34.920122 
L 185.664074 34.920122 
L 185.664074 34.264976 
L 185.894913 34.264976 
L 185.894913 33.60983 
L 186.360632 33.60983 
L 186.360632 32.299537 
L 197.897533 32.299537 
L 197.897533 31.644391 
L 198.784079 31.644391 
L 198.882678 30.334099 
L 338.688 30.334099 
L 338.688 30.334099 
" style="fill:none;stroke:#ff7500;stroke-linecap:square;stroke-width:1.5;"/>
   </g>
   <g id="line2d_41">
    <defs>
     <path d="M 0 -6 
L -1.347084 -1.854102 
L -5.706339 -1.854102 
L -2.179628 0.708204 
L -3.526712 4.854102 
L -0 2.291796 
L 3.526712 4.854102 
L 2.179628 0.708204 
L 5.706339 -1.854102 
L 1.347084 -1.854102 
z
" id="mb4967ce540" style="stroke:#ff7500;stroke-linejoin:bevel;stroke-width:1.5;"/>
    </defs>
    <g>
     <use style="fill-opacity:0;stroke:#ff7500;stroke-linejoin:bevel;stroke-width:1.5;" x="170.35949" xlink:href="#mb4967ce540" y="222.947052"/>
     <use style="fill-opacity:0;stroke:#ff7500;stroke-linejoin:bevel;stroke-width:1.5;" x="186.360632" xlink:href="#mb4967ce540" y="32.299537"/>
     <use style="fill-opacity:0;stroke:#ff7500;stroke-linejoin:bevel;stroke-width:1.5;" x="198.882678" xlink:href="#mb4967ce540" y="30.334099"/>
     <use style="fill-opacity:0;stroke:#ff7500;stroke-linejoin:bevel;stroke-width:1.5;" x="198.882678" xlink:href="#mb4967ce540" y="30.334099"/>
     <use style="fill-opacity:0;stroke:#ff7500;stroke-linejoin:bevel;stroke-width:1.5;" x="338.688" xlink:href="#mb4967ce540" y="30.334099"/>
    </g>
   </g>
   <g id="line2d_42">
    <path style="fill:none;stroke:#ff7500;stroke-linecap:square;stroke-width:1.5;"/>
    <g/>
   </g>
   <g id="line2d_43">
    <path d="M 338.688 43.437021 
L 369.60768 293.571802 
" style="fill:none;stroke:#000080;stroke-linecap:square;stroke-width:1.5;"/>
    <g>
     <use style="fill-opacity:0;stroke:#000080;stroke-width:1.5;" x="338.688" xlink:href="#m8dd91d47c9" y="43.437021"/>
     <use style="fill-opacity:0;stroke:#000080;stroke-width:1.5;" x="369.60768" xlink:href="#m8dd91d47c9" y="293.571802"/>
    </g>
   </g>
   <g id="line2d_44">
    <path d="M 338.688 30.334099 
L 369.60768 164.63905 
" style="fill:none;stroke:#ff00ff;stroke-linecap:square;stroke-width:1.5;"/>
    <g>
     <use style="fill-opacity:0;stroke:#ff00ff;stroke-linejoin:miter;stroke-width:1.5;" x="338.688" xlink:href="#me2b2110f98" y="30.334099"/>
     <use style="fill-opacity:0;stroke:#ff00ff;stroke-linejoin:miter;stroke-width:1.5;" x="369.60768" xlink:href="#me2b2110f98" y="164.63905"/>
    </g>
   </g>
   <g id="line2d_45">
    <path d="M 338.688 30.334099 
L 369.60768 35.706297 
" style="fill:none;stroke:#ff7500;stroke-linecap:square;stroke-width:1.5;"/>
    <g>
     <use style="fill-opacity:0;stroke:#ff7500;stroke-linejoin:bevel;stroke-width:1.5;" x="338.688" xlink:href="#mb4967ce540" y="30.334099"/>
     <use style="fill-opacity:0;stroke:#ff7500;stroke-linejoin:bevel;stroke-width:1.5;" x="369.60768" xlink:href="#mb4967ce540" y="35.706297"/>
    </g>
   </g>
   <g id="line2d_46">
    <path d="M 338.688 298.944 
L 338.688 30.334099 
" style="fill:none;stroke:#000000;stroke-linecap:square;stroke-width:1.5;"/>
   </g>
   <g id="patch_3">
    <path d="M 57.6 298.944 
L 57.6 27.648 
" style="fill:none;stroke:#000000;stroke-linecap:square;stroke-linejoin:miter;stroke-width:0.8;"/>
   </g>
   <g id="patch_4">
    <path d="M 338.688 298.944 
L 338.688 27.648 
" style="fill:none;stroke:#000000;stroke-linecap:square;stroke-linejoin:miter;stroke-width:0.8;"/>
   </g>
   <g id="patch_5">
    <path d="M 57.6 298.944 
L 338.688 298.944 
" style="fill:none;stroke:#000000;stroke-linecap:square;stroke-linejoin:miter;stroke-width:0.8;"/>
   </g>
   <g id="patch_6">
    <path d="M 57.6 27.648 
L 338.688 27.648 
" style="fill:none;stroke:#000000;stroke-linecap:square;stroke-linejoin:miter;stroke-width:0.8;"/>
   </g>
   <g id="text_13">
    <!-- OLD+DGAM -->
    <g transform="translate(375.22944 298.262739)scale(0.17 -0.17)">
     <defs>
      <path d="M 39.40625 66.21875 
Q 28.65625 66.21875 22.328125 58.203125 
Q 16.015625 50.203125 16.015625 36.375 
Q 16.015625 22.609375 22.328125 14.59375 
Q 28.65625 6.59375 39.40625 6.59375 
Q 50.140625 6.59375 56.421875 14.59375 
Q 62.703125 22.609375 62.703125 36.375 
Q 62.703125 50.203125 56.421875 58.203125 
Q 50.140625 66.21875 39.40625 66.21875 
z
M 39.40625 74.21875 
Q 54.734375 74.21875 63.90625 63.9375 
Q 73.09375 53.65625 73.09375 36.375 
Q 73.09375 19.140625 63.90625 8.859375 
Q 54.734375 -1.421875 39.40625 -1.421875 
Q 24.03125 -1.421875 14.8125 8.828125 
Q 5.609375 19.09375 5.609375 36.375 
Q 5.609375 53.65625 14.8125 63.9375 
Q 24.03125 74.21875 39.40625 74.21875 
z
" id="DejaVuSans-79"/>
      <path d="M 9.8125 72.90625 
L 19.671875 72.90625 
L 19.671875 8.296875 
L 55.171875 8.296875 
L 55.171875 0 
L 9.8125 0 
z
" id="DejaVuSans-76"/>
      <path d="M 19.671875 64.796875 
L 19.671875 8.109375 
L 31.59375 8.109375 
Q 46.6875 8.109375 53.6875 14.9375 
Q 60.6875 21.78125 60.6875 36.53125 
Q 60.6875 51.171875 53.6875 57.984375 
Q 46.6875 64.796875 31.59375 64.796875 
z
M 9.8125 72.90625 
L 30.078125 72.90625 
Q 51.265625 72.90625 61.171875 64.09375 
Q 71.09375 55.28125 71.09375 36.53125 
Q 71.09375 17.671875 61.125 8.828125 
Q 51.171875 0 30.078125 0 
L 9.8125 0 
z
" id="DejaVuSans-68"/>
      <path d="M 59.515625 10.40625 
L 59.515625 29.984375 
L 43.40625 29.984375 
L 43.40625 38.09375 
L 69.28125 38.09375 
L 69.28125 6.78125 
Q 63.578125 2.734375 56.6875 0.65625 
Q 49.8125 -1.421875 42 -1.421875 
Q 24.90625 -1.421875 15.25 8.5625 
Q 5.609375 18.5625 5.609375 36.375 
Q 5.609375 54.25 15.25 64.234375 
Q 24.90625 74.21875 42 74.21875 
Q 49.125 74.21875 55.546875 72.453125 
Q 61.96875 70.703125 67.390625 67.28125 
L 67.390625 56.78125 
Q 61.921875 61.421875 55.765625 63.765625 
Q 49.609375 66.109375 42.828125 66.109375 
Q 29.4375 66.109375 22.71875 58.640625 
Q 16.015625 51.171875 16.015625 36.375 
Q 16.015625 21.625 22.71875 14.15625 
Q 29.4375 6.6875 42.828125 6.6875 
Q 48.046875 6.6875 52.140625 7.59375 
Q 56.25 8.5 59.515625 10.40625 
z
" id="DejaVuSans-71"/>
      <path d="M 34.1875 63.1875 
L 20.796875 26.90625 
L 47.609375 26.90625 
z
M 28.609375 72.90625 
L 39.796875 72.90625 
L 67.578125 0 
L 57.328125 0 
L 50.6875 18.703125 
L 17.828125 18.703125 
L 11.1875 0 
L 0.78125 0 
z
" id="DejaVuSans-65"/>
      <path d="M 9.8125 72.90625 
L 24.515625 72.90625 
L 43.109375 23.296875 
L 61.8125 72.90625 
L 76.515625 72.90625 
L 76.515625 0 
L 66.890625 0 
L 66.890625 64.015625 
L 48.09375 14.015625 
L 38.1875 14.015625 
L 19.390625 64.015625 
L 19.390625 0 
L 9.8125 0 
z
" id="DejaVuSans-77"/>
     </defs>
     <use xlink:href="#DejaVuSans-79"/>
     <use x="78.710938" xlink:href="#DejaVuSans-76"/>
     <use x="134.423828" xlink:href="#DejaVuSans-68"/>
     <use x="211.425781" xlink:href="#DejaVuSans-43"/>
     <use x="295.214844" xlink:href="#DejaVuSans-68"/>
     <use x="372.216797" xlink:href="#DejaVuSans-71"/>
     <use x="449.707031" xlink:href="#DejaVuSans-65"/>
     <use x="518.115234" xlink:href="#DejaVuSans-77"/>
    </g>
   </g>
   <g id="text_14">
    <!-- OLD+NODGA -->
    <g transform="translate(375.22944 169.329987)scale(0.17 -0.17)">
     <defs>
      <path d="M 9.8125 72.90625 
L 23.09375 72.90625 
L 55.421875 11.921875 
L 55.421875 72.90625 
L 64.984375 72.90625 
L 64.984375 0 
L 51.703125 0 
L 19.390625 60.984375 
L 19.390625 0 
L 9.8125 0 
z
" id="DejaVuSans-78"/>
     </defs>
     <use xlink:href="#DejaVuSans-79"/>
     <use x="78.710938" xlink:href="#DejaVuSans-76"/>
     <use x="134.423828" xlink:href="#DejaVuSans-68"/>
     <use x="211.425781" xlink:href="#DejaVuSans-43"/>
     <use x="295.214844" xlink:href="#DejaVuSans-78"/>
     <use x="370.019531" xlink:href="#DejaVuSans-79"/>
     <use x="448.730469" xlink:href="#DejaVuSans-68"/>
     <use x="525.732422" xlink:href="#DejaVuSans-71"/>
     <use x="603.222656" xlink:href="#DejaVuSans-65"/>
    </g>
   </g>
   <g id="text_15">
    <!-- NEW+DGAM -->
    <g transform="translate(375.22944 40.397235)scale(0.17 -0.17)">
     <defs>
      <path d="M 9.8125 72.90625 
L 55.90625 72.90625 
L 55.90625 64.59375 
L 19.671875 64.59375 
L 19.671875 43.015625 
L 54.390625 43.015625 
L 54.390625 34.71875 
L 19.671875 34.71875 
L 19.671875 8.296875 
L 56.78125 8.296875 
L 56.78125 0 
L 9.8125 0 
z
" id="DejaVuSans-69"/>
      <path d="M 3.328125 72.90625 
L 13.28125 72.90625 
L 28.609375 11.28125 
L 43.890625 72.90625 
L 54.984375 72.90625 
L 70.3125 11.28125 
L 85.59375 72.90625 
L 95.609375 72.90625 
L 77.296875 0 
L 64.890625 0 
L 49.515625 63.28125 
L 33.984375 0 
L 21.578125 0 
z
" id="DejaVuSans-87"/>
     </defs>
     <use xlink:href="#DejaVuSans-78"/>
     <use x="74.804688" xlink:href="#DejaVuSans-69"/>
     <use x="137.988281" xlink:href="#DejaVuSans-87"/>
     <use x="236.865234" xlink:href="#DejaVuSans-43"/>
     <use x="320.654297" xlink:href="#DejaVuSans-68"/>
     <use x="397.65625" xlink:href="#DejaVuSans-71"/>
     <use x="475.146484" xlink:href="#DejaVuSans-65"/>
     <use x="543.554688" xlink:href="#DejaVuSans-77"/>
    </g>
   </g>
   <g id="text_16">
    <!-- bbob-constrained f12, 10-D -->
    <g transform="translate(60.41088 38.111366)scale(0.102 -0.102)">
     <defs>
      <path d="M 48.6875 27.296875 
Q 48.6875 37.203125 44.609375 42.84375 
Q 40.53125 48.484375 33.40625 48.484375 
Q 26.265625 48.484375 22.1875 42.84375 
Q 18.109375 37.203125 18.109375 27.296875 
Q 18.109375 17.390625 22.1875 11.75 
Q 26.265625 6.109375 33.40625 6.109375 
Q 40.53125 6.109375 44.609375 11.75 
Q 48.6875 17.390625 48.6875 27.296875 
z
M 18.109375 46.390625 
Q 20.953125 51.265625 25.265625 53.625 
Q 29.59375 56 35.59375 56 
Q 45.5625 56 51.78125 48.09375 
Q 58.015625 40.1875 58.015625 27.296875 
Q 58.015625 14.40625 51.78125 6.484375 
Q 45.5625 -1.421875 35.59375 -1.421875 
Q 29.59375 -1.421875 25.265625 0.953125 
Q 20.953125 3.328125 18.109375 8.203125 
L 18.109375 0 
L 9.078125 0 
L 9.078125 75.984375 
L 18.109375 75.984375 
z
" id="DejaVuSans-98"/>
     </defs>
     <use xlink:href="#DejaVuSans-98"/>
     <use x="63.476562" xlink:href="#DejaVuSans-98"/>
     <use x="126.953125" xlink:href="#DejaVuSans-111"/>
     <use x="188.134766" xlink:href="#DejaVuSans-98"/>
     <use x="251.611328" xlink:href="#DejaVuSans-45"/>
     <use x="287.695312" xlink:href="#DejaVuSans-99"/>
     <use x="342.675781" xlink:href="#DejaVuSans-111"/>
     <use x="403.857422" xlink:href="#DejaVuSans-110"/>
     <use x="467.236328" xlink:href="#DejaVuSans-115"/>
     <use x="519.335938" xlink:href="#DejaVuSans-116"/>
     <use x="558.544922" xlink:href="#DejaVuSans-114"/>
     <use x="599.658203" xlink:href="#DejaVuSans-97"/>
     <use x="660.9375" xlink:href="#DejaVuSans-105"/>
     <use x="688.720703" xlink:href="#DejaVuSans-110"/>
     <use x="752.099609" xlink:href="#DejaVuSans-101"/>
     <use x="813.623047" xlink:href="#DejaVuSans-100"/>
     <use x="877.099609" xlink:href="#DejaVuSans-32"/>
     <use x="908.886719" xlink:href="#DejaVuSans-102"/>
     <use x="944.091797" xlink:href="#DejaVuSans-49"/>
     <use x="1007.714844" xlink:href="#DejaVuSans-50"/>
     <use x="1071.337891" xlink:href="#DejaVuSans-44"/>
     <use x="1103.125" xlink:href="#DejaVuSans-32"/>
     <use x="1134.912109" xlink:href="#DejaVuSans-49"/>
     <use x="1198.535156" xlink:href="#DejaVuSans-48"/>
     <use x="1262.158203" xlink:href="#DejaVuSans-45"/>
     <use x="1298.242188" xlink:href="#DejaVuSans-68"/>
    </g>
    <!-- 41 targets: 100..1e-06 -->
    <g transform="translate(60.41088 49.533135)scale(0.102 -0.102)">
     <defs>
      <path d="M 11.71875 12.40625 
L 22.015625 12.40625 
L 22.015625 0 
L 11.71875 0 
z
M 11.71875 51.703125 
L 22.015625 51.703125 
L 22.015625 39.3125 
L 11.71875 39.3125 
z
" id="DejaVuSans-58"/>
     </defs>
     <use xlink:href="#DejaVuSans-52"/>
     <use x="63.623047" xlink:href="#DejaVuSans-49"/>
     <use x="127.246094" xlink:href="#DejaVuSans-32"/>
     <use x="159.033203" xlink:href="#DejaVuSans-116"/>
     <use x="198.242188" xlink:href="#DejaVuSans-97"/>
     <use x="259.521484" xlink:href="#DejaVuSans-114"/>
     <use x="298.884766" xlink:href="#DejaVuSans-103"/>
     <use x="362.361328" xlink:href="#DejaVuSans-101"/>
     <use x="423.884766" xlink:href="#DejaVuSans-116"/>
     <use x="463.09375" xlink:href="#DejaVuSans-115"/>
     <use x="515.193359" xlink:href="#DejaVuSans-58"/>
     <use x="548.884766" xlink:href="#DejaVuSans-32"/>
     <use x="580.671875" xlink:href="#DejaVuSans-49"/>
     <use x="644.294922" xlink:href="#DejaVuSans-48"/>
     <use x="707.917969" xlink:href="#DejaVuSans-48"/>
     <use x="771.541016" xlink:href="#DejaVuSans-46"/>
     <use x="803.328125" xlink:href="#DejaVuSans-46"/>
     <use x="835.115234" xlink:href="#DejaVuSans-49"/>
     <use x="898.738281" xlink:href="#DejaVuSans-101"/>
     <use x="960.261719" xlink:href="#DejaVuSans-45"/>
     <use x="996.345703" xlink:href="#DejaVuSans-48"/>
     <use x="1059.96875" xlink:href="#DejaVuSans-54"/>
    </g>
    <!-- 45, 15 instances -->
    <g transform="translate(60.41088 60.954904)scale(0.102 -0.102)">
     <defs>
      <path d="M 10.796875 72.90625 
L 49.515625 72.90625 
L 49.515625 64.59375 
L 19.828125 64.59375 
L 19.828125 46.734375 
Q 21.96875 47.46875 24.109375 47.828125 
Q 26.265625 48.1875 28.421875 48.1875 
Q 40.625 48.1875 47.75 41.5 
Q 54.890625 34.8125 54.890625 23.390625 
Q 54.890625 11.625 47.5625 5.09375 
Q 40.234375 -1.421875 26.90625 -1.421875 
Q 22.3125 -1.421875 17.546875 -0.640625 
Q 12.796875 0.140625 7.71875 1.703125 
L 7.71875 11.625 
Q 12.109375 9.234375 16.796875 8.0625 
Q 21.484375 6.890625 26.703125 6.890625 
Q 35.15625 6.890625 40.078125 11.328125 
Q 45.015625 15.765625 45.015625 23.390625 
Q 45.015625 31 40.078125 35.4375 
Q 35.15625 39.890625 26.703125 39.890625 
Q 22.75 39.890625 18.8125 39.015625 
Q 14.890625 38.140625 10.796875 36.28125 
z
" id="DejaVuSans-53"/>
     </defs>
     <use xlink:href="#DejaVuSans-52"/>
     <use x="63.623047" xlink:href="#DejaVuSans-53"/>
     <use x="127.246094" xlink:href="#DejaVuSans-44"/>
     <use x="159.033203" xlink:href="#DejaVuSans-32"/>
     <use x="190.820312" xlink:href="#DejaVuSans-49"/>
     <use x="254.443359" xlink:href="#DejaVuSans-53"/>
     <use x="318.066406" xlink:href="#DejaVuSans-32"/>
     <use x="349.853516" xlink:href="#DejaVuSans-105"/>
     <use x="377.636719" xlink:href="#DejaVuSans-110"/>
     <use x="441.015625" xlink:href="#DejaVuSans-115"/>
     <use x="493.115234" xlink:href="#DejaVuSans-116"/>
     <use x="532.324219" xlink:href="#DejaVuSans-97"/>
     <use x="593.603516" xlink:href="#DejaVuSans-110"/>
     <use x="656.982422" xlink:href="#DejaVuSans-99"/>
     <use x="711.962891" xlink:href="#DejaVuSans-101"/>
     <use x="773.486328" xlink:href="#DejaVuSans-115"/>
    </g>
   </g>
   <g id="text_17">
    <!-- v5z33 -->
    <g style="fill:#808080;" transform="translate(183.016656 294.151352)scale(0.1 -0.1)">
     <defs>
      <path d="M 5.515625 54.6875 
L 48.1875 54.6875 
L 48.1875 46.484375 
L 14.40625 7.171875 
L 48.1875 7.171875 
L 48.1875 0 
L 4.296875 0 
L 4.296875 8.203125 
L 38.09375 47.515625 
L 5.515625 47.515625 
z
" id="DejaVuSans-122"/>
      <path d="M 40.578125 39.3125 
Q 47.65625 37.796875 51.625 33 
Q 55.609375 28.21875 55.609375 21.1875 
Q 55.609375 10.40625 48.1875 4.484375 
Q 40.765625 -1.421875 27.09375 -1.421875 
Q 22.515625 -1.421875 17.65625 -0.515625 
Q 12.796875 0.390625 7.625 2.203125 
L 7.625 11.71875 
Q 11.71875 9.328125 16.59375 8.109375 
Q 21.484375 6.890625 26.8125 6.890625 
Q 36.078125 6.890625 40.9375 10.546875 
Q 45.796875 14.203125 45.796875 21.1875 
Q 45.796875 27.640625 41.28125 31.265625 
Q 36.765625 34.90625 28.71875 34.90625 
L 20.21875 34.90625 
L 20.21875 43.015625 
L 29.109375 43.015625 
Q 36.375 43.015625 40.234375 45.921875 
Q 44.09375 48.828125 44.09375 54.296875 
Q 44.09375 59.90625 40.109375 62.90625 
Q 36.140625 65.921875 28.71875 65.921875 
Q 24.65625 65.921875 20.015625 65.03125 
Q 15.375 64.15625 9.8125 62.3125 
L 9.8125 71.09375 
Q 15.4375 72.65625 20.34375 73.4375 
Q 25.25 74.21875 29.59375 74.21875 
Q 40.828125 74.21875 47.359375 69.109375 
Q 53.90625 64.015625 53.90625 55.328125 
Q 53.90625 49.265625 50.4375 45.09375 
Q 46.96875 40.921875 40.578125 39.3125 
z
" id="DejaVuSans-51"/>
     </defs>
     <use xlink:href="#DejaVuSans-118"/>
     <use x="59.179688" xlink:href="#DejaVuSans-53"/>
     <use x="122.802734" xlink:href="#DejaVuSans-122"/>
     <use x="175.292969" xlink:href="#DejaVuSans-51"/>
     <use x="238.916016" xlink:href="#DejaVuSans-51"/>
    </g>
   </g>
   <g id="text_18">
    <!-- 12 Sep. Ellipsoid, 3n+6 constraints -->
    <g transform="translate(23.033062 21.648)scale(0.2 -0.2)">
     <defs>
      <path d="M 53.515625 70.515625 
L 53.515625 60.890625 
Q 47.90625 63.578125 42.921875 64.890625 
Q 37.9375 66.21875 33.296875 66.21875 
Q 25.25 66.21875 20.875 63.09375 
Q 16.5 59.96875 16.5 54.203125 
Q 16.5 49.359375 19.40625 46.890625 
Q 22.3125 44.4375 30.421875 42.921875 
L 36.375 41.703125 
Q 47.40625 39.59375 52.65625 34.296875 
Q 57.90625 29 57.90625 20.125 
Q 57.90625 9.515625 50.796875 4.046875 
Q 43.703125 -1.421875 29.984375 -1.421875 
Q 24.8125 -1.421875 18.96875 -0.25 
Q 13.140625 0.921875 6.890625 3.21875 
L 6.890625 13.375 
Q 12.890625 10.015625 18.65625 8.296875 
Q 24.421875 6.59375 29.984375 6.59375 
Q 38.421875 6.59375 43.015625 9.90625 
Q 47.609375 13.234375 47.609375 19.390625 
Q 47.609375 24.75 44.3125 27.78125 
Q 41.015625 30.8125 33.5 32.328125 
L 27.484375 33.5 
Q 16.453125 35.6875 11.515625 40.375 
Q 6.59375 45.0625 6.59375 53.421875 
Q 6.59375 63.09375 13.40625 68.65625 
Q 20.21875 74.21875 32.171875 74.21875 
Q 37.3125 74.21875 42.625 73.28125 
Q 47.953125 72.359375 53.515625 70.515625 
z
" id="DejaVuSans-83"/>
     </defs>
     <use xlink:href="#DejaVuSans-49"/>
     <use x="63.623047" xlink:href="#DejaVuSans-50"/>
     <use x="127.246094" xlink:href="#DejaVuSans-32"/>
     <use x="159.033203" xlink:href="#DejaVuSans-83"/>
     <use x="222.509766" xlink:href="#DejaVuSans-101"/>
     <use x="284.033203" xlink:href="#DejaVuSans-112"/>
     <use x="347.509766" xlink:href="#DejaVuSans-46"/>
     <use x="379.296875" xlink:href="#DejaVuSans-32"/>
     <use x="411.083984" xlink:href="#DejaVuSans-69"/>
     <use x="474.267578" xlink:href="#DejaVuSans-108"/>
     <use x="502.050781" xlink:href="#DejaVuSans-108"/>
     <use x="529.833984" xlink:href="#DejaVuSans-105"/>
     <use x="557.617188" xlink:href="#DejaVuSans-112"/>
     <use x="621.09375" xlink:href="#DejaVuSans-115"/>
     <use x="673.193359" xlink:href="#DejaVuSans-111"/>
     <use x="734.375" xlink:href="#DejaVuSans-105"/>
     <use x="762.158203" xlink:href="#DejaVuSans-100"/>
     <use x="825.634766" xlink:href="#DejaVuSans-44"/>
     <use x="857.421875" xlink:href="#DejaVuSans-32"/>
     <use x="889.208984" xlink:href="#DejaVuSans-51"/>
     <use x="952.832031" xlink:href="#DejaVuSans-110"/>
     <use x="1016.210938" xlink:href="#DejaVuSans-43"/>
     <use x="1100" xlink:href="#DejaVuSans-54"/>
     <use x="1163.623047" xlink:href="#DejaVuSans-32"/>
     <use x="1195.410156" xlink:href="#DejaVuSans-99"/>
     <use x="1250.390625" xlink:href="#DejaVuSans-111"/>
     <use x="1311.572266" xlink:href="#DejaVuSans-110"/>
     <use x="1374.951172" xlink:href="#DejaVuSans-115"/>
     <use x="1427.050781" xlink:href="#DejaVuSans-116"/>
     <use x="1466.259766" xlink:href="#DejaVuSans-114"/>
     <use x="1507.373047" xlink:href="#DejaVuSans-97"/>
     <use x="1568.652344" xlink:href="#DejaVuSans-105"/>
     <use x="1596.435547" xlink:href="#DejaVuSans-110"/>
     <use x="1659.814453" xlink:href="#DejaVuSans-116"/>
     <use x="1699.023438" xlink:href="#DejaVuSans-115"/>
    </g>
   </g>
  </g>
 </g>
 <defs>
  <clipPath id="p4e5e732514">
   <rect height="271.296" width="281.088" x="57.6" y="27.648"/>
  </clipPath>
 </defs>
</svg>
