<?xml version="1.0" encoding="utf-8" standalone="no"?>
<!DOCTYPE svg PUBLIC "-//W3C//DTD SVG 1.1//EN"
  "http://www.w3.org/Graphics/SVG/1.1/DTD/svg11.dtd">
<!-- Created with matplotlib (https://matplotlib.org/) -->
<svg height="345.6pt" version="1.1" viewBox="0 0 460.8 345.6" width="460.8pt" xmlns="http://www.w3.org/2000/svg" xmlns:xlink="http://www.w3.org/1999/xlink">
 <metadata>
  <rdf:RDF xmlns:cc="http://creativecommons.org/ns#" xmlns:dc="http://purl.org/dc/elements/1.1/" xmlns:rdf="http://www.w3.org/1999/02/22-rdf-syntax-ns#">
   <cc:Work>
    <dc:type rdf:resource="http://purl.org/dc/dcmitype/StillImage"/>
    <dc:date>2021-03-11T12:04:39.596473</dc:date>
    <dc:format>image/svg+xml</dc:format>
    <dc:creator>
     <cc:Agent>
      <dc:title>Matplotlib v3.3.3, https://matplotlib.org/</dc:title>
     </cc:Agent>
    </dc:creator>
   </cc:Work>
  </rdf:RDF>
 </metadata>
 <defs>
  <style type="text/css">*{stroke-linecap:butt;stroke-linejoin:round;}</style>
 </defs>
 <g id="figure_1">
  <g id="patch_1">
   <path d="M 0 345.6 
L 460.8 345.6 
L 460.8 0 
L 0 0 
z
" style="fill:#ffffff;"/>
  </g>
  <g id="axes_1">
   <g id="patch_2">
    <path d="M 57.6 298.944 
L 338.688 298.944 
L 338.688 27.648 
L 57.6 27.648 
z
" style="fill:#ffffff;"/>
   </g>
   <g id="matplotlib.axis_1">
    <g id="xtick_1">
     <g id="line2d_1">
      <path clip-path="url(#pd5ca1ad18d)" d="M 57.6 298.944 
L 57.6 27.648 
" style="fill:none;stroke:#b0b0b0;stroke-linecap:square;stroke-width:0.8;"/>
     </g>
     <g id="line2d_2">
      <defs>
       <path d="M 0 0 
L 0 3.5 
" id="m8b461ad250" style="stroke:#000000;stroke-width:0.8;"/>
      </defs>
      <g>
       <use style="stroke:#000000;stroke-width:0.8;" x="57.6" xlink:href="#m8b461ad250" y="298.944"/>
      </g>
     </g>
     <g id="text_1">
      <!-- 0 -->
      <g transform="translate(51.2375 321.140875)scale(0.2 -0.2)">
       <defs>
        <path d="M 31.78125 66.40625 
Q 24.171875 66.40625 20.328125 58.90625 
Q 16.5 51.421875 16.5 36.375 
Q 16.5 21.390625 20.328125 13.890625 
Q 24.171875 6.390625 31.78125 6.390625 
Q 39.453125 6.390625 43.28125 13.890625 
Q 47.125 21.390625 47.125 36.375 
Q 47.125 51.421875 43.28125 58.90625 
Q 39.453125 66.40625 31.78125 66.40625 
z
M 31.78125 74.21875 
Q 44.046875 74.21875 50.515625 64.515625 
Q 56.984375 54.828125 56.984375 36.375 
Q 56.984375 17.96875 50.515625 8.265625 
Q 44.046875 -1.421875 31.78125 -1.421875 
Q 19.53125 -1.421875 13.0625 8.265625 
Q 6.59375 17.96875 6.59375 36.375 
Q 6.59375 54.828125 13.0625 64.515625 
Q 19.53125 74.21875 31.78125 74.21875 
z
" id="DejaVuSans-48"/>
       </defs>
       <use xlink:href="#DejaVuSans-48"/>
      </g>
     </g>
    </g>
    <g id="xtick_2">
     <g id="line2d_3">
      <path clip-path="url(#pd5ca1ad18d)" d="M 137.910857 298.944 
L 137.910857 27.648 
" style="fill:none;stroke:#b0b0b0;stroke-linecap:square;stroke-width:0.8;"/>
     </g>
     <g id="line2d_4">
      <g>
       <use style="stroke:#000000;stroke-width:0.8;" x="137.910857" xlink:href="#m8b461ad250" y="298.944"/>
      </g>
     </g>
     <g id="text_2">
      <!-- 2 -->
      <g transform="translate(131.548357 321.140875)scale(0.2 -0.2)">
       <defs>
        <path d="M 19.1875 8.296875 
L 53.609375 8.296875 
L 53.609375 0 
L 7.328125 0 
L 7.328125 8.296875 
Q 12.9375 14.109375 22.625 23.890625 
Q 32.328125 33.6875 34.8125 36.53125 
Q 39.546875 41.84375 41.421875 45.53125 
Q 43.3125 49.21875 43.3125 52.78125 
Q 43.3125 58.59375 39.234375 62.25 
Q 35.15625 65.921875 28.609375 65.921875 
Q 23.96875 65.921875 18.8125 64.3125 
Q 13.671875 62.703125 7.8125 59.421875 
L 7.8125 69.390625 
Q 13.765625 71.78125 18.9375 73 
Q 24.125 74.21875 28.421875 74.21875 
Q 39.75 74.21875 46.484375 68.546875 
Q 53.21875 62.890625 53.21875 53.421875 
Q 53.21875 48.921875 51.53125 44.890625 
Q 49.859375 40.875 45.40625 35.40625 
Q 44.1875 33.984375 37.640625 27.21875 
Q 31.109375 20.453125 19.1875 8.296875 
z
" id="DejaVuSans-50"/>
       </defs>
       <use xlink:href="#DejaVuSans-50"/>
      </g>
     </g>
    </g>
    <g id="xtick_3">
     <g id="line2d_5">
      <path clip-path="url(#pd5ca1ad18d)" d="M 218.221714 298.944 
L 218.221714 27.648 
" style="fill:none;stroke:#b0b0b0;stroke-linecap:square;stroke-width:0.8;"/>
     </g>
     <g id="line2d_6">
      <g>
       <use style="stroke:#000000;stroke-width:0.8;" x="218.221714" xlink:href="#m8b461ad250" y="298.944"/>
      </g>
     </g>
     <g id="text_3">
      <!-- 4 -->
      <g transform="translate(211.859214 321.140875)scale(0.2 -0.2)">
       <defs>
        <path d="M 37.796875 64.3125 
L 12.890625 25.390625 
L 37.796875 25.390625 
z
M 35.203125 72.90625 
L 47.609375 72.90625 
L 47.609375 25.390625 
L 58.015625 25.390625 
L 58.015625 17.1875 
L 47.609375 17.1875 
L 47.609375 0 
L 37.796875 0 
L 37.796875 17.1875 
L 4.890625 17.1875 
L 4.890625 26.703125 
z
" id="DejaVuSans-52"/>
       </defs>
       <use xlink:href="#DejaVuSans-52"/>
      </g>
     </g>
    </g>
    <g id="xtick_4">
     <g id="line2d_7">
      <path clip-path="url(#pd5ca1ad18d)" d="M 298.532571 298.944 
L 298.532571 27.648 
" style="fill:none;stroke:#b0b0b0;stroke-linecap:square;stroke-width:0.8;"/>
     </g>
     <g id="line2d_8">
      <g>
       <use style="stroke:#000000;stroke-width:0.8;" x="298.532571" xlink:href="#m8b461ad250" y="298.944"/>
      </g>
     </g>
     <g id="text_4">
      <!-- 6 -->
      <g transform="translate(292.170071 321.140875)scale(0.2 -0.2)">
       <defs>
        <path d="M 33.015625 40.375 
Q 26.375 40.375 22.484375 35.828125 
Q 18.609375 31.296875 18.609375 23.390625 
Q 18.609375 15.53125 22.484375 10.953125 
Q 26.375 6.390625 33.015625 6.390625 
Q 39.65625 6.390625 43.53125 10.953125 
Q 47.40625 15.53125 47.40625 23.390625 
Q 47.40625 31.296875 43.53125 35.828125 
Q 39.65625 40.375 33.015625 40.375 
z
M 52.59375 71.296875 
L 52.59375 62.3125 
Q 48.875 64.0625 45.09375 64.984375 
Q 41.3125 65.921875 37.59375 65.921875 
Q 27.828125 65.921875 22.671875 59.328125 
Q 17.53125 52.734375 16.796875 39.40625 
Q 19.671875 43.65625 24.015625 45.921875 
Q 28.375 48.1875 33.59375 48.1875 
Q 44.578125 48.1875 50.953125 41.515625 
Q 57.328125 34.859375 57.328125 23.390625 
Q 57.328125 12.15625 50.6875 5.359375 
Q 44.046875 -1.421875 33.015625 -1.421875 
Q 20.359375 -1.421875 13.671875 8.265625 
Q 6.984375 17.96875 6.984375 36.375 
Q 6.984375 53.65625 15.1875 63.9375 
Q 23.390625 74.21875 37.203125 74.21875 
Q 40.921875 74.21875 44.703125 73.484375 
Q 48.484375 72.75 52.59375 71.296875 
z
" id="DejaVuSans-54"/>
       </defs>
       <use xlink:href="#DejaVuSans-54"/>
      </g>
     </g>
    </g>
    <g id="xtick_5">
     <g id="line2d_9">
      <path clip-path="url(#pd5ca1ad18d)" d="M 97.755429 298.944 
L 97.755429 27.648 
" style="fill:none;stroke:#b0b0b0;stroke-linecap:square;stroke-width:0.8;"/>
     </g>
     <g id="line2d_10">
      <defs>
       <path d="M 0 0 
L 0 2 
" id="mf3e73bdc8b" style="stroke:#000000;stroke-width:0.6;"/>
      </defs>
      <g>
       <use style="stroke:#000000;stroke-width:0.6;" x="97.755429" xlink:href="#mf3e73bdc8b" y="298.944"/>
      </g>
     </g>
    </g>
    <g id="xtick_6">
     <g id="line2d_11">
      <path clip-path="url(#pd5ca1ad18d)" d="M 178.066286 298.944 
L 178.066286 27.648 
" style="fill:none;stroke:#b0b0b0;stroke-linecap:square;stroke-width:0.8;"/>
     </g>
     <g id="line2d_12">
      <g>
       <use style="stroke:#000000;stroke-width:0.6;" x="178.066286" xlink:href="#mf3e73bdc8b" y="298.944"/>
      </g>
     </g>
    </g>
    <g id="xtick_7">
     <g id="line2d_13">
      <path clip-path="url(#pd5ca1ad18d)" d="M 258.377143 298.944 
L 258.377143 27.648 
" style="fill:none;stroke:#b0b0b0;stroke-linecap:square;stroke-width:0.8;"/>
     </g>
     <g id="line2d_14">
      <g>
       <use style="stroke:#000000;stroke-width:0.6;" x="258.377143" xlink:href="#mf3e73bdc8b" y="298.944"/>
      </g>
     </g>
    </g>
    <g id="xtick_8">
     <g id="line2d_15">
      <path clip-path="url(#pd5ca1ad18d)" d="M 338.688 298.944 
L 338.688 27.648 
" style="fill:none;stroke:#b0b0b0;stroke-linecap:square;stroke-width:0.8;"/>
     </g>
     <g id="line2d_16">
      <g>
       <use style="stroke:#000000;stroke-width:0.6;" x="338.688" xlink:href="#mf3e73bdc8b" y="298.944"/>
      </g>
     </g>
    </g>
    <g id="text_5">
     <!-- log10(# (f+g)-evals / dimension) -->
     <g transform="translate(58.145016 342.217594)scale(0.17 -0.17)">
      <defs>
       <path d="M 9.421875 75.984375 
L 18.40625 75.984375 
L 18.40625 0 
L 9.421875 0 
z
" id="DejaVuSans-108"/>
       <path d="M 30.609375 48.390625 
Q 23.390625 48.390625 19.1875 42.75 
Q 14.984375 37.109375 14.984375 27.296875 
Q 14.984375 17.484375 19.15625 11.84375 
Q 23.34375 6.203125 30.609375 6.203125 
Q 37.796875 6.203125 41.984375 11.859375 
Q 46.1875 17.53125 46.1875 27.296875 
Q 46.1875 37.015625 41.984375 42.703125 
Q 37.796875 48.390625 30.609375 48.390625 
z
M 30.609375 56 
Q 42.328125 56 49.015625 48.375 
Q 55.71875 40.765625 55.71875 27.296875 
Q 55.71875 13.875 49.015625 6.21875 
Q 42.328125 -1.421875 30.609375 -1.421875 
Q 18.84375 -1.421875 12.171875 6.21875 
Q 5.515625 13.875 5.515625 27.296875 
Q 5.515625 40.765625 12.171875 48.375 
Q 18.84375 56 30.609375 56 
z
" id="DejaVuSans-111"/>
       <path d="M 45.40625 27.984375 
Q 45.40625 37.75 41.375 43.109375 
Q 37.359375 48.484375 30.078125 48.484375 
Q 22.859375 48.484375 18.828125 43.109375 
Q 14.796875 37.75 14.796875 27.984375 
Q 14.796875 18.265625 18.828125 12.890625 
Q 22.859375 7.515625 30.078125 7.515625 
Q 37.359375 7.515625 41.375 12.890625 
Q 45.40625 18.265625 45.40625 27.984375 
z
M 54.390625 6.78125 
Q 54.390625 -7.171875 48.1875 -13.984375 
Q 42 -20.796875 29.203125 -20.796875 
Q 24.46875 -20.796875 20.265625 -20.09375 
Q 16.0625 -19.390625 12.109375 -17.921875 
L 12.109375 -9.1875 
Q 16.0625 -11.328125 19.921875 -12.34375 
Q 23.78125 -13.375 27.78125 -13.375 
Q 36.625 -13.375 41.015625 -8.765625 
Q 45.40625 -4.15625 45.40625 5.171875 
L 45.40625 9.625 
Q 42.625 4.78125 38.28125 2.390625 
Q 33.9375 0 27.875 0 
Q 17.828125 0 11.671875 7.65625 
Q 5.515625 15.328125 5.515625 27.984375 
Q 5.515625 40.671875 11.671875 48.328125 
Q 17.828125 56 27.875 56 
Q 33.9375 56 38.28125 53.609375 
Q 42.625 51.21875 45.40625 46.390625 
L 45.40625 54.6875 
L 54.390625 54.6875 
z
" id="DejaVuSans-103"/>
       <path d="M 12.40625 8.296875 
L 28.515625 8.296875 
L 28.515625 63.921875 
L 10.984375 60.40625 
L 10.984375 69.390625 
L 28.421875 72.90625 
L 38.28125 72.90625 
L 38.28125 8.296875 
L 54.390625 8.296875 
L 54.390625 0 
L 12.40625 0 
z
" id="DejaVuSans-49"/>
       <path d="M 31 75.875 
Q 24.46875 64.65625 21.28125 53.65625 
Q 18.109375 42.671875 18.109375 31.390625 
Q 18.109375 20.125 21.3125 9.0625 
Q 24.515625 -2 31 -13.1875 
L 23.1875 -13.1875 
Q 15.875 -1.703125 12.234375 9.375 
Q 8.59375 20.453125 8.59375 31.390625 
Q 8.59375 42.28125 12.203125 53.3125 
Q 15.828125 64.359375 23.1875 75.875 
z
" id="DejaVuSans-40"/>
       <path d="M 51.125 44 
L 36.921875 44 
L 32.8125 27.6875 
L 47.125 27.6875 
z
M 43.796875 71.78125 
L 38.71875 51.515625 
L 52.984375 51.515625 
L 58.109375 71.78125 
L 65.921875 71.78125 
L 60.890625 51.515625 
L 76.125 51.515625 
L 76.125 44 
L 58.984375 44 
L 54.984375 27.6875 
L 70.515625 27.6875 
L 70.515625 20.21875 
L 53.078125 20.21875 
L 48 0 
L 40.1875 0 
L 45.21875 20.21875 
L 30.90625 20.21875 
L 25.875 0 
L 18.015625 0 
L 23.09375 20.21875 
L 7.71875 20.21875 
L 7.71875 27.6875 
L 24.90625 27.6875 
L 29 44 
L 13.28125 44 
L 13.28125 51.515625 
L 30.90625 51.515625 
L 35.890625 71.78125 
z
" id="DejaVuSans-35"/>
       <path id="DejaVuSans-32"/>
       <path d="M 37.109375 75.984375 
L 37.109375 68.5 
L 28.515625 68.5 
Q 23.6875 68.5 21.796875 66.546875 
Q 19.921875 64.59375 19.921875 59.515625 
L 19.921875 54.6875 
L 34.71875 54.6875 
L 34.71875 47.703125 
L 19.921875 47.703125 
L 19.921875 0 
L 10.890625 0 
L 10.890625 47.703125 
L 2.296875 47.703125 
L 2.296875 54.6875 
L 10.890625 54.6875 
L 10.890625 58.5 
Q 10.890625 67.625 15.140625 71.796875 
Q 19.390625 75.984375 28.609375 75.984375 
z
" id="DejaVuSans-102"/>
       <path d="M 46 62.703125 
L 46 35.5 
L 73.1875 35.5 
L 73.1875 27.203125 
L 46 27.203125 
L 46 0 
L 37.796875 0 
L 37.796875 27.203125 
L 10.59375 27.203125 
L 10.59375 35.5 
L 37.796875 35.5 
L 37.796875 62.703125 
z
" id="DejaVuSans-43"/>
       <path d="M 8.015625 75.875 
L 15.828125 75.875 
Q 23.140625 64.359375 26.78125 53.3125 
Q 30.421875 42.28125 30.421875 31.390625 
Q 30.421875 20.453125 26.78125 9.375 
Q 23.140625 -1.703125 15.828125 -13.1875 
L 8.015625 -13.1875 
Q 14.5 -2 17.703125 9.0625 
Q 20.90625 20.125 20.90625 31.390625 
Q 20.90625 42.671875 17.703125 53.65625 
Q 14.5 64.65625 8.015625 75.875 
z
" id="DejaVuSans-41"/>
       <path d="M 4.890625 31.390625 
L 31.203125 31.390625 
L 31.203125 23.390625 
L 4.890625 23.390625 
z
" id="DejaVuSans-45"/>
       <path d="M 56.203125 29.59375 
L 56.203125 25.203125 
L 14.890625 25.203125 
Q 15.484375 15.921875 20.484375 11.0625 
Q 25.484375 6.203125 34.421875 6.203125 
Q 39.59375 6.203125 44.453125 7.46875 
Q 49.3125 8.734375 54.109375 11.28125 
L 54.109375 2.78125 
Q 49.265625 0.734375 44.1875 -0.34375 
Q 39.109375 -1.421875 33.890625 -1.421875 
Q 20.796875 -1.421875 13.15625 6.1875 
Q 5.515625 13.8125 5.515625 26.8125 
Q 5.515625 40.234375 12.765625 48.109375 
Q 20.015625 56 32.328125 56 
Q 43.359375 56 49.78125 48.890625 
Q 56.203125 41.796875 56.203125 29.59375 
z
M 47.21875 32.234375 
Q 47.125 39.59375 43.09375 43.984375 
Q 39.0625 48.390625 32.421875 48.390625 
Q 24.90625 48.390625 20.390625 44.140625 
Q 15.875 39.890625 15.1875 32.171875 
z
" id="DejaVuSans-101"/>
       <path d="M 2.984375 54.6875 
L 12.5 54.6875 
L 29.59375 8.796875 
L 46.6875 54.6875 
L 56.203125 54.6875 
L 35.6875 0 
L 23.484375 0 
z
" id="DejaVuSans-118"/>
       <path d="M 34.28125 27.484375 
Q 23.390625 27.484375 19.1875 25 
Q 14.984375 22.515625 14.984375 16.5 
Q 14.984375 11.71875 18.140625 8.90625 
Q 21.296875 6.109375 26.703125 6.109375 
Q 34.1875 6.109375 38.703125 11.40625 
Q 43.21875 16.703125 43.21875 25.484375 
L 43.21875 27.484375 
z
M 52.203125 31.203125 
L 52.203125 0 
L 43.21875 0 
L 43.21875 8.296875 
Q 40.140625 3.328125 35.546875 0.953125 
Q 30.953125 -1.421875 24.3125 -1.421875 
Q 15.921875 -1.421875 10.953125 3.296875 
Q 6 8.015625 6 15.921875 
Q 6 25.140625 12.171875 29.828125 
Q 18.359375 34.515625 30.609375 34.515625 
L 43.21875 34.515625 
L 43.21875 35.40625 
Q 43.21875 41.609375 39.140625 45 
Q 35.0625 48.390625 27.6875 48.390625 
Q 23 48.390625 18.546875 47.265625 
Q 14.109375 46.140625 10.015625 43.890625 
L 10.015625 52.203125 
Q 14.9375 54.109375 19.578125 55.046875 
Q 24.21875 56 28.609375 56 
Q 40.484375 56 46.34375 49.84375 
Q 52.203125 43.703125 52.203125 31.203125 
z
" id="DejaVuSans-97"/>
       <path d="M 44.28125 53.078125 
L 44.28125 44.578125 
Q 40.484375 46.53125 36.375 47.5 
Q 32.28125 48.484375 27.875 48.484375 
Q 21.1875 48.484375 17.84375 46.4375 
Q 14.5 44.390625 14.5 40.28125 
Q 14.5 37.15625 16.890625 35.375 
Q 19.28125 33.59375 26.515625 31.984375 
L 29.59375 31.296875 
Q 39.15625 29.25 43.1875 25.515625 
Q 47.21875 21.78125 47.21875 15.09375 
Q 47.21875 7.46875 41.1875 3.015625 
Q 35.15625 -1.421875 24.609375 -1.421875 
Q 20.21875 -1.421875 15.453125 -0.5625 
Q 10.6875 0.296875 5.421875 2 
L 5.421875 11.28125 
Q 10.40625 8.6875 15.234375 7.390625 
Q 20.0625 6.109375 24.8125 6.109375 
Q 31.15625 6.109375 34.5625 8.28125 
Q 37.984375 10.453125 37.984375 14.40625 
Q 37.984375 18.0625 35.515625 20.015625 
Q 33.0625 21.96875 24.703125 23.78125 
L 21.578125 24.515625 
Q 13.234375 26.265625 9.515625 29.90625 
Q 5.8125 33.546875 5.8125 39.890625 
Q 5.8125 47.609375 11.28125 51.796875 
Q 16.75 56 26.8125 56 
Q 31.78125 56 36.171875 55.265625 
Q 40.578125 54.546875 44.28125 53.078125 
z
" id="DejaVuSans-115"/>
       <path d="M 25.390625 72.90625 
L 33.6875 72.90625 
L 8.296875 -9.28125 
L 0 -9.28125 
z
" id="DejaVuSans-47"/>
       <path d="M 45.40625 46.390625 
L 45.40625 75.984375 
L 54.390625 75.984375 
L 54.390625 0 
L 45.40625 0 
L 45.40625 8.203125 
Q 42.578125 3.328125 38.25 0.953125 
Q 33.9375 -1.421875 27.875 -1.421875 
Q 17.96875 -1.421875 11.734375 6.484375 
Q 5.515625 14.40625 5.515625 27.296875 
Q 5.515625 40.1875 11.734375 48.09375 
Q 17.96875 56 27.875 56 
Q 33.9375 56 38.25 53.625 
Q 42.578125 51.265625 45.40625 46.390625 
z
M 14.796875 27.296875 
Q 14.796875 17.390625 18.875 11.75 
Q 22.953125 6.109375 30.078125 6.109375 
Q 37.203125 6.109375 41.296875 11.75 
Q 45.40625 17.390625 45.40625 27.296875 
Q 45.40625 37.203125 41.296875 42.84375 
Q 37.203125 48.484375 30.078125 48.484375 
Q 22.953125 48.484375 18.875 42.84375 
Q 14.796875 37.203125 14.796875 27.296875 
z
" id="DejaVuSans-100"/>
       <path d="M 9.421875 54.6875 
L 18.40625 54.6875 
L 18.40625 0 
L 9.421875 0 
z
M 9.421875 75.984375 
L 18.40625 75.984375 
L 18.40625 64.59375 
L 9.421875 64.59375 
z
" id="DejaVuSans-105"/>
       <path d="M 52 44.1875 
Q 55.375 50.25 60.0625 53.125 
Q 64.75 56 71.09375 56 
Q 79.640625 56 84.28125 50.015625 
Q 88.921875 44.046875 88.921875 33.015625 
L 88.921875 0 
L 79.890625 0 
L 79.890625 32.71875 
Q 79.890625 40.578125 77.09375 44.375 
Q 74.3125 48.1875 68.609375 48.1875 
Q 61.625 48.1875 57.5625 43.546875 
Q 53.515625 38.921875 53.515625 30.90625 
L 53.515625 0 
L 44.484375 0 
L 44.484375 32.71875 
Q 44.484375 40.625 41.703125 44.40625 
Q 38.921875 48.1875 33.109375 48.1875 
Q 26.21875 48.1875 22.15625 43.53125 
Q 18.109375 38.875 18.109375 30.90625 
L 18.109375 0 
L 9.078125 0 
L 9.078125 54.6875 
L 18.109375 54.6875 
L 18.109375 46.1875 
Q 21.1875 51.21875 25.484375 53.609375 
Q 29.78125 56 35.6875 56 
Q 41.65625 56 45.828125 52.96875 
Q 50 49.953125 52 44.1875 
z
" id="DejaVuSans-109"/>
       <path d="M 54.890625 33.015625 
L 54.890625 0 
L 45.90625 0 
L 45.90625 32.71875 
Q 45.90625 40.484375 42.875 44.328125 
Q 39.84375 48.1875 33.796875 48.1875 
Q 26.515625 48.1875 22.3125 43.546875 
Q 18.109375 38.921875 18.109375 30.90625 
L 18.109375 0 
L 9.078125 0 
L 9.078125 54.6875 
L 18.109375 54.6875 
L 18.109375 46.1875 
Q 21.34375 51.125 25.703125 53.5625 
Q 30.078125 56 35.796875 56 
Q 45.21875 56 50.046875 50.171875 
Q 54.890625 44.34375 54.890625 33.015625 
z
" id="DejaVuSans-110"/>
      </defs>
      <use xlink:href="#DejaVuSans-108"/>
      <use x="27.783203" xlink:href="#DejaVuSans-111"/>
      <use x="88.964844" xlink:href="#DejaVuSans-103"/>
      <use x="152.441406" xlink:href="#DejaVuSans-49"/>
      <use x="216.064453" xlink:href="#DejaVuSans-48"/>
      <use x="279.6875" xlink:href="#DejaVuSans-40"/>
      <use x="318.701172" xlink:href="#DejaVuSans-35"/>
      <use x="402.490234" xlink:href="#DejaVuSans-32"/>
      <use x="434.277344" xlink:href="#DejaVuSans-40"/>
      <use x="473.291016" xlink:href="#DejaVuSans-102"/>
      <use x="508.496094" xlink:href="#DejaVuSans-43"/>
      <use x="592.285156" xlink:href="#DejaVuSans-103"/>
      <use x="655.761719" xlink:href="#DejaVuSans-41"/>
      <use x="694.775391" xlink:href="#DejaVuSans-45"/>
      <use x="730.859375" xlink:href="#DejaVuSans-101"/>
      <use x="792.382812" xlink:href="#DejaVuSans-118"/>
      <use x="851.5625" xlink:href="#DejaVuSans-97"/>
      <use x="912.841797" xlink:href="#DejaVuSans-108"/>
      <use x="940.625" xlink:href="#DejaVuSans-115"/>
      <use x="992.724609" xlink:href="#DejaVuSans-32"/>
      <use x="1024.511719" xlink:href="#DejaVuSans-47"/>
      <use x="1058.203125" xlink:href="#DejaVuSans-32"/>
      <use x="1089.990234" xlink:href="#DejaVuSans-100"/>
      <use x="1153.466797" xlink:href="#DejaVuSans-105"/>
      <use x="1181.25" xlink:href="#DejaVuSans-109"/>
      <use x="1278.662109" xlink:href="#DejaVuSans-101"/>
      <use x="1340.185547" xlink:href="#DejaVuSans-110"/>
      <use x="1403.564453" xlink:href="#DejaVuSans-115"/>
      <use x="1455.664062" xlink:href="#DejaVuSans-105"/>
      <use x="1483.447266" xlink:href="#DejaVuSans-111"/>
      <use x="1544.628906" xlink:href="#DejaVuSans-110"/>
      <use x="1608.007812" xlink:href="#DejaVuSans-41"/>
     </g>
    </g>
   </g>
   <g id="matplotlib.axis_2">
    <g id="ytick_1">
     <g id="line2d_17">
      <path clip-path="url(#pd5ca1ad18d)" d="M 57.6 298.944 
L 338.688 298.944 
" style="fill:none;stroke:#b0b0b0;stroke-linecap:square;stroke-width:0.8;"/>
     </g>
     <g id="line2d_18">
      <defs>
       <path d="M 0 0 
L -3.5 0 
" id="m59b4f71abd" style="stroke:#000000;stroke-width:0.8;"/>
      </defs>
      <g>
       <use style="stroke:#000000;stroke-width:0.8;" x="57.6" xlink:href="#m59b4f71abd" y="298.944"/>
      </g>
     </g>
     <g id="text_6">
      <!-- 0.0 -->
      <g transform="translate(25.155 305.02275)scale(0.16 -0.16)">
       <defs>
        <path d="M 10.6875 12.40625 
L 21 12.40625 
L 21 0 
L 10.6875 0 
z
" id="DejaVuSans-46"/>
       </defs>
       <use xlink:href="#DejaVuSans-48"/>
       <use x="63.623047" xlink:href="#DejaVuSans-46"/>
       <use x="95.410156" xlink:href="#DejaVuSans-48"/>
      </g>
     </g>
    </g>
    <g id="ytick_2">
     <g id="line2d_19">
      <path clip-path="url(#pd5ca1ad18d)" d="M 57.6 245.22202 
L 338.688 245.22202 
" style="fill:none;stroke:#b0b0b0;stroke-linecap:square;stroke-width:0.8;"/>
     </g>
     <g id="line2d_20">
      <g>
       <use style="stroke:#000000;stroke-width:0.8;" x="57.6" xlink:href="#m59b4f71abd" y="245.22202"/>
      </g>
     </g>
     <g id="text_7">
      <!-- 0.2 -->
      <g transform="translate(25.155 251.30077)scale(0.16 -0.16)">
       <use xlink:href="#DejaVuSans-48"/>
       <use x="63.623047" xlink:href="#DejaVuSans-46"/>
       <use x="95.410156" xlink:href="#DejaVuSans-50"/>
      </g>
     </g>
    </g>
    <g id="ytick_3">
     <g id="line2d_21">
      <path clip-path="url(#pd5ca1ad18d)" d="M 57.6 191.50004 
L 338.688 191.50004 
" style="fill:none;stroke:#b0b0b0;stroke-linecap:square;stroke-width:0.8;"/>
     </g>
     <g id="line2d_22">
      <g>
       <use style="stroke:#000000;stroke-width:0.8;" x="57.6" xlink:href="#m59b4f71abd" y="191.50004"/>
      </g>
     </g>
     <g id="text_8">
      <!-- 0.4 -->
      <g transform="translate(25.155 197.57879)scale(0.16 -0.16)">
       <use xlink:href="#DejaVuSans-48"/>
       <use x="63.623047" xlink:href="#DejaVuSans-46"/>
       <use x="95.410156" xlink:href="#DejaVuSans-52"/>
      </g>
     </g>
    </g>
    <g id="ytick_4">
     <g id="line2d_23">
      <path clip-path="url(#pd5ca1ad18d)" d="M 57.6 137.778059 
L 338.688 137.778059 
" style="fill:none;stroke:#b0b0b0;stroke-linecap:square;stroke-width:0.8;"/>
     </g>
     <g id="line2d_24">
      <g>
       <use style="stroke:#000000;stroke-width:0.8;" x="57.6" xlink:href="#m59b4f71abd" y="137.778059"/>
      </g>
     </g>
     <g id="text_9">
      <!-- 0.6 -->
      <g transform="translate(25.155 143.856809)scale(0.16 -0.16)">
       <use xlink:href="#DejaVuSans-48"/>
       <use x="63.623047" xlink:href="#DejaVuSans-46"/>
       <use x="95.410156" xlink:href="#DejaVuSans-54"/>
      </g>
     </g>
    </g>
    <g id="ytick_5">
     <g id="line2d_25">
      <path clip-path="url(#pd5ca1ad18d)" d="M 57.6 84.056079 
L 338.688 84.056079 
" style="fill:none;stroke:#b0b0b0;stroke-linecap:square;stroke-width:0.8;"/>
     </g>
     <g id="line2d_26">
      <g>
       <use style="stroke:#000000;stroke-width:0.8;" x="57.6" xlink:href="#m59b4f71abd" y="84.056079"/>
      </g>
     </g>
     <g id="text_10">
      <!-- 0.8 -->
      <g transform="translate(25.155 90.134829)scale(0.16 -0.16)">
       <defs>
        <path d="M 31.78125 34.625 
Q 24.75 34.625 20.71875 30.859375 
Q 16.703125 27.09375 16.703125 20.515625 
Q 16.703125 13.921875 20.71875 10.15625 
Q 24.75 6.390625 31.78125 6.390625 
Q 38.8125 6.390625 42.859375 10.171875 
Q 46.921875 13.96875 46.921875 20.515625 
Q 46.921875 27.09375 42.890625 30.859375 
Q 38.875 34.625 31.78125 34.625 
z
M 21.921875 38.8125 
Q 15.578125 40.375 12.03125 44.71875 
Q 8.5 49.078125 8.5 55.328125 
Q 8.5 64.0625 14.71875 69.140625 
Q 20.953125 74.21875 31.78125 74.21875 
Q 42.671875 74.21875 48.875 69.140625 
Q 55.078125 64.0625 55.078125 55.328125 
Q 55.078125 49.078125 51.53125 44.71875 
Q 48 40.375 41.703125 38.8125 
Q 48.828125 37.15625 52.796875 32.3125 
Q 56.78125 27.484375 56.78125 20.515625 
Q 56.78125 9.90625 50.3125 4.234375 
Q 43.84375 -1.421875 31.78125 -1.421875 
Q 19.734375 -1.421875 13.25 4.234375 
Q 6.78125 9.90625 6.78125 20.515625 
Q 6.78125 27.484375 10.78125 32.3125 
Q 14.796875 37.15625 21.921875 38.8125 
z
M 18.3125 54.390625 
Q 18.3125 48.734375 21.84375 45.5625 
Q 25.390625 42.390625 31.78125 42.390625 
Q 38.140625 42.390625 41.71875 45.5625 
Q 45.3125 48.734375 45.3125 54.390625 
Q 45.3125 60.0625 41.71875 63.234375 
Q 38.140625 66.40625 31.78125 66.40625 
Q 25.390625 66.40625 21.84375 63.234375 
Q 18.3125 60.0625 18.3125 54.390625 
z
" id="DejaVuSans-56"/>
       </defs>
       <use xlink:href="#DejaVuSans-48"/>
       <use x="63.623047" xlink:href="#DejaVuSans-46"/>
       <use x="95.410156" xlink:href="#DejaVuSans-56"/>
      </g>
     </g>
    </g>
    <g id="ytick_6">
     <g id="line2d_27">
      <path clip-path="url(#pd5ca1ad18d)" d="M 57.6 30.334099 
L 338.688 30.334099 
" style="fill:none;stroke:#b0b0b0;stroke-linecap:square;stroke-width:0.8;"/>
     </g>
     <g id="line2d_28">
      <g>
       <use style="stroke:#000000;stroke-width:0.8;" x="57.6" xlink:href="#m59b4f71abd" y="30.334099"/>
      </g>
     </g>
     <g id="text_11">
      <!-- 1.0 -->
      <g transform="translate(25.155 36.412849)scale(0.16 -0.16)">
       <use xlink:href="#DejaVuSans-49"/>
       <use x="63.623047" xlink:href="#DejaVuSans-46"/>
       <use x="95.410156" xlink:href="#DejaVuSans-48"/>
      </g>
     </g>
    </g>
    <g id="text_12">
     <!-- Fraction of function,target pairs -->
     <g transform="translate(17.619531 297.681)rotate(-90)scale(0.17 -0.17)">
      <defs>
       <path d="M 9.8125 72.90625 
L 51.703125 72.90625 
L 51.703125 64.59375 
L 19.671875 64.59375 
L 19.671875 43.109375 
L 48.578125 43.109375 
L 48.578125 34.8125 
L 19.671875 34.8125 
L 19.671875 0 
L 9.8125 0 
z
" id="DejaVuSans-70"/>
       <path d="M 41.109375 46.296875 
Q 39.59375 47.171875 37.8125 47.578125 
Q 36.03125 48 33.890625 48 
Q 26.265625 48 22.1875 43.046875 
Q 18.109375 38.09375 18.109375 28.8125 
L 18.109375 0 
L 9.078125 0 
L 9.078125 54.6875 
L 18.109375 54.6875 
L 18.109375 46.1875 
Q 20.953125 51.171875 25.484375 53.578125 
Q 30.03125 56 36.53125 56 
Q 37.453125 56 38.578125 55.875 
Q 39.703125 55.765625 41.0625 55.515625 
z
" id="DejaVuSans-114"/>
       <path d="M 48.78125 52.59375 
L 48.78125 44.1875 
Q 44.96875 46.296875 41.140625 47.34375 
Q 37.3125 48.390625 33.40625 48.390625 
Q 24.65625 48.390625 19.8125 42.84375 
Q 14.984375 37.3125 14.984375 27.296875 
Q 14.984375 17.28125 19.8125 11.734375 
Q 24.65625 6.203125 33.40625 6.203125 
Q 37.3125 6.203125 41.140625 7.25 
Q 44.96875 8.296875 48.78125 10.40625 
L 48.78125 2.09375 
Q 45.015625 0.34375 40.984375 -0.53125 
Q 36.96875 -1.421875 32.421875 -1.421875 
Q 20.0625 -1.421875 12.78125 6.34375 
Q 5.515625 14.109375 5.515625 27.296875 
Q 5.515625 40.671875 12.859375 48.328125 
Q 20.21875 56 33.015625 56 
Q 37.15625 56 41.109375 55.140625 
Q 45.0625 54.296875 48.78125 52.59375 
z
" id="DejaVuSans-99"/>
       <path d="M 18.3125 70.21875 
L 18.3125 54.6875 
L 36.8125 54.6875 
L 36.8125 47.703125 
L 18.3125 47.703125 
L 18.3125 18.015625 
Q 18.3125 11.328125 20.140625 9.421875 
Q 21.96875 7.515625 27.59375 7.515625 
L 36.8125 7.515625 
L 36.8125 0 
L 27.59375 0 
Q 17.1875 0 13.234375 3.875 
Q 9.28125 7.765625 9.28125 18.015625 
L 9.28125 47.703125 
L 2.6875 47.703125 
L 2.6875 54.6875 
L 9.28125 54.6875 
L 9.28125 70.21875 
z
" id="DejaVuSans-116"/>
       <path d="M 8.5 21.578125 
L 8.5 54.6875 
L 17.484375 54.6875 
L 17.484375 21.921875 
Q 17.484375 14.15625 20.5 10.265625 
Q 23.53125 6.390625 29.59375 6.390625 
Q 36.859375 6.390625 41.078125 11.03125 
Q 45.3125 15.671875 45.3125 23.6875 
L 45.3125 54.6875 
L 54.296875 54.6875 
L 54.296875 0 
L 45.3125 0 
L 45.3125 8.40625 
Q 42.046875 3.421875 37.71875 1 
Q 33.40625 -1.421875 27.6875 -1.421875 
Q 18.265625 -1.421875 13.375 4.4375 
Q 8.5 10.296875 8.5 21.578125 
z
M 31.109375 56 
z
" id="DejaVuSans-117"/>
       <path d="M 11.71875 12.40625 
L 22.015625 12.40625 
L 22.015625 4 
L 14.015625 -11.625 
L 7.71875 -11.625 
L 11.71875 4 
z
" id="DejaVuSans-44"/>
       <path d="M 18.109375 8.203125 
L 18.109375 -20.796875 
L 9.078125 -20.796875 
L 9.078125 54.6875 
L 18.109375 54.6875 
L 18.109375 46.390625 
Q 20.953125 51.265625 25.265625 53.625 
Q 29.59375 56 35.59375 56 
Q 45.5625 56 51.78125 48.09375 
Q 58.015625 40.1875 58.015625 27.296875 
Q 58.015625 14.40625 51.78125 6.484375 
Q 45.5625 -1.421875 35.59375 -1.421875 
Q 29.59375 -1.421875 25.265625 0.953125 
Q 20.953125 3.328125 18.109375 8.203125 
z
M 48.6875 27.296875 
Q 48.6875 37.203125 44.609375 42.84375 
Q 40.53125 48.484375 33.40625 48.484375 
Q 26.265625 48.484375 22.1875 42.84375 
Q 18.109375 37.203125 18.109375 27.296875 
Q 18.109375 17.390625 22.1875 11.75 
Q 26.265625 6.109375 33.40625 6.109375 
Q 40.53125 6.109375 44.609375 11.75 
Q 48.6875 17.390625 48.6875 27.296875 
z
" id="DejaVuSans-112"/>
      </defs>
      <use xlink:href="#DejaVuSans-70"/>
      <use x="50.269531" xlink:href="#DejaVuSans-114"/>
      <use x="91.382812" xlink:href="#DejaVuSans-97"/>
      <use x="152.662109" xlink:href="#DejaVuSans-99"/>
      <use x="207.642578" xlink:href="#DejaVuSans-116"/>
      <use x="246.851562" xlink:href="#DejaVuSans-105"/>
      <use x="274.634766" xlink:href="#DejaVuSans-111"/>
      <use x="335.816406" xlink:href="#DejaVuSans-110"/>
      <use x="399.195312" xlink:href="#DejaVuSans-32"/>
      <use x="430.982422" xlink:href="#DejaVuSans-111"/>
      <use x="492.164062" xlink:href="#DejaVuSans-102"/>
      <use x="527.369141" xlink:href="#DejaVuSans-32"/>
      <use x="559.15625" xlink:href="#DejaVuSans-102"/>
      <use x="594.361328" xlink:href="#DejaVuSans-117"/>
      <use x="657.740234" xlink:href="#DejaVuSans-110"/>
      <use x="721.119141" xlink:href="#DejaVuSans-99"/>
      <use x="776.099609" xlink:href="#DejaVuSans-116"/>
      <use x="815.308594" xlink:href="#DejaVuSans-105"/>
      <use x="843.091797" xlink:href="#DejaVuSans-111"/>
      <use x="904.273438" xlink:href="#DejaVuSans-110"/>
      <use x="967.652344" xlink:href="#DejaVuSans-44"/>
      <use x="999.439453" xlink:href="#DejaVuSans-116"/>
      <use x="1038.648438" xlink:href="#DejaVuSans-97"/>
      <use x="1099.927734" xlink:href="#DejaVuSans-114"/>
      <use x="1139.291016" xlink:href="#DejaVuSans-103"/>
      <use x="1202.767578" xlink:href="#DejaVuSans-101"/>
      <use x="1264.291016" xlink:href="#DejaVuSans-116"/>
      <use x="1303.5" xlink:href="#DejaVuSans-32"/>
      <use x="1335.287109" xlink:href="#DejaVuSans-112"/>
      <use x="1398.763672" xlink:href="#DejaVuSans-97"/>
      <use x="1460.042969" xlink:href="#DejaVuSans-105"/>
      <use x="1487.826172" xlink:href="#DejaVuSans-114"/>
      <use x="1528.939453" xlink:href="#DejaVuSans-115"/>
     </g>
    </g>
   </g>
   <g id="line2d_29">
    <defs>
     <path d="M 0 1.5 
C 0.397805 1.5 0.77937 1.341951 1.06066 1.06066 
C 1.341951 0.77937 1.5 0.397805 1.5 0 
C 1.5 -0.397805 1.341951 -0.77937 1.06066 -1.06066 
C 0.77937 -1.341951 0.397805 -1.5 0 -1.5 
C -0.397805 -1.5 -0.77937 -1.341951 -1.06066 -1.06066 
C -1.341951 -0.77937 -1.5 -0.397805 -1.5 0 
C -1.5 0.397805 -1.341951 0.77937 -1.06066 1.06066 
C -0.77937 1.341951 -0.397805 1.5 0 1.5 
z
" id="mba09ead9e0" style="stroke:#000080;"/>
    </defs>
    <g>
     <use style="fill:#000080;stroke:#000080;" x="290.451636" xlink:href="#mba09ead9e0" y="30.334099"/>
     <use style="fill:#000080;stroke:#000080;" x="290.451636" xlink:href="#mba09ead9e0" y="30.334099"/>
    </g>
   </g>
   <g id="line2d_30">
    <path d="M 117.654224 298.944 
L 117.654224 298.288854 
L 120.382253 298.288854 
L 120.382253 293.047685 
L 120.759333 293.047685 
L 120.759333 292.392539 
L 120.898662 292.392539 
L 120.944859 289.771955 
L 121.219499 289.771955 
L 121.219499 289.116809 
L 122.988655 289.116809 
L 122.988655 287.15137 
L 123.233135 287.15137 
L 123.233135 285.185932 
L 123.868806 285.185932 
L 123.94666 283.220494 
L 124.444412 283.220494 
L 124.444412 282.565348 
L 125.147256 282.565348 
L 125.147256 279.289617 
L 125.506102 279.289617 
L 125.541584 277.324179 
L 125.682793 277.324179 
L 125.682793 276.669033 
L 125.892487 276.669033 
L 125.892487 276.013887 
L 126.065325 276.013887 
L 126.065325 275.35874 
L 126.270496 275.35874 
L 126.270496 274.703594 
L 126.439646 274.703594 
L 126.540355 272.08301 
L 127.611382 272.08301 
L 127.611382 271.427864 
L 127.76807 271.427864 
L 127.830353 267.496987 
L 128.015879 267.496987 
L 128.046609 264.221257 
L 128.768338 264.221257 
L 128.768338 263.566111 
L 128.944197 263.566111 
L 129.031467 261.600672 
L 129.31925 261.600672 
L 129.31925 260.945526 
L 129.433047 260.945526 
L 129.433047 258.980088 
L 129.908566 258.980088 
L 129.963666 255.049211 
L 130.398313 255.049211 
L 130.505303 253.738919 
L 130.796184 253.738919 
L 130.796184 253.083773 
L 131.185181 253.083773 
L 131.185181 252.428627 
L 132.109167 252.428627 
L 132.109167 251.773481 
L 132.494049 251.773481 
L 132.494049 251.118335 
L 132.986651 251.118335 
L 132.986651 249.808043 
L 133.262014 249.808043 
L 133.284766 245.22202 
L 133.398082 245.22202 
L 133.398082 243.911728 
L 133.689303 243.911728 
L 133.689303 243.256582 
L 134.062938 243.256582 
L 134.084669 241.946289 
L 134.214491 241.946289 
L 134.214491 238.670559 
L 134.407429 238.670559 
L 134.407429 236.705121 
L 135.760625 236.705121 
L 135.760625 234.739682 
L 135.97629 234.739682 
L 136.073445 233.42939 
L 136.266147 233.42939 
L 136.342635 232.119098 
L 136.399782 232.119098 
L 136.399782 230.808806 
L 136.513517 230.808806 
L 136.513517 230.15366 
L 136.831795 230.15366 
L 136.831795 227.533075 
L 137.469333 227.533075 
L 137.469333 226.877929 
L 137.875944 226.877929 
L 137.875944 226.222783 
L 138.084384 226.222783 
L 138.084384 225.567637 
L 138.69516 225.567637 
L 138.69516 224.257345 
L 139.02546 224.257345 
L 139.02546 221.63676 
L 139.445704 221.63676 
L 139.445704 220.981614 
L 140.256979 220.981614 
L 140.256979 220.326468 
L 140.499195 220.326468 
L 140.589166 219.016176 
L 140.708409 219.016176 
L 140.708409 217.050738 
L 141.407239 217.050738 
L 141.45 215.740445 
L 142.120287 215.740445 
L 142.120287 215.085299 
L 142.486301 215.085299 
L 142.486301 213.119861 
L 142.792145 213.119861 
L 142.792145 210.499277 
L 143.053804 210.499277 
L 143.053804 209.84413 
L 143.208936 209.84413 
L 143.208936 209.188984 
L 143.3627 209.188984 
L 143.3627 207.223546 
L 144.294175 207.223546 
L 144.294175 206.5684 
L 144.45069 206.5684 
L 144.45069 205.913254 
L 144.946964 205.913254 
L 145.016721 203.947816 
L 145.189903 203.947816 
L 145.189903 201.982377 
L 146.019967 201.982377 
L 146.019967 200.672085 
L 146.906268 200.672085 
L 146.906268 200.016939 
L 147.4697 200.016939 
L 147.4697 198.051501 
L 147.680117 198.051501 
L 147.680117 197.396355 
L 147.809113 197.396355 
L 147.809113 196.741208 
L 148.468742 196.741208 
L 148.468742 196.086062 
L 148.845415 196.086062 
L 148.845415 194.120624 
L 149.359452 194.120624 
L 149.359452 193.465478 
L 153.862384 193.465478 
L 153.862384 192.810332 
L 154.221969 192.810332 
L 154.297094 191.50004 
L 155.469814 191.50004 
L 155.469814 190.844894 
L 155.622068 190.844894 
L 155.622068 190.189747 
L 156.015522 190.189747 
L 156.015522 189.534601 
L 156.339784 189.534601 
L 156.339784 188.224309 
L 156.711612 188.224309 
L 156.711612 187.569163 
L 157.472107 187.569163 
L 157.472107 186.914017 
L 158.67908 186.914017 
L 158.67908 186.258871 
L 159.072168 186.258871 
L 159.072168 185.603725 
L 161.465522 185.603725 
L 161.465522 184.948579 
L 162.316387 184.948579 
L 162.316387 184.293433 
L 163.148187 184.293433 
L 163.148187 183.638286 
L 163.713267 183.638286 
L 163.713267 182.98314 
L 164.070989 182.98314 
L 164.070989 182.327994 
L 169.805465 182.327994 
L 169.805465 181.672848 
L 171.728644 181.672848 
L 171.728644 181.017702 
L 172.019658 181.017702 
L 172.019658 180.362556 
L 172.68038 180.362556 
L 172.68038 179.70741 
L 174.438764 179.70741 
L 174.438764 179.052264 
L 175.573393 179.052264 
L 175.573393 178.397118 
L 175.813167 178.397118 
L 175.813167 177.741972 
L 175.925915 177.741972 
L 175.925915 177.086825 
L 176.388966 177.086825 
L 176.388966 176.431679 
L 176.591307 176.431679 
L 176.591307 175.776533 
L 176.742477 175.776533 
L 176.742477 175.121387 
L 177.781456 175.121387 
L 177.781456 174.466241 
L 178.116786 174.466241 
L 178.116786 173.811095 
L 178.945363 173.811095 
L 178.945363 173.155949 
L 180.208473 173.155949 
L 180.208473 172.500803 
L 181.162809 172.500803 
L 181.162809 171.845657 
L 182.892122 171.845657 
L 182.892122 171.190511 
L 183.123319 171.190511 
L 183.123319 170.535364 
L 184.303871 170.535364 
L 184.303871 169.880218 
L 185.609844 169.880218 
L 185.609844 169.225072 
L 186.222436 169.225072 
L 186.222436 168.569926 
L 187.230584 168.569926 
L 187.252224 167.259634 
L 187.381503 167.259634 
L 187.381503 166.604488 
L 187.706591 166.604488 
L 187.706591 165.949342 
L 188.358473 165.949342 
L 188.358473 165.294196 
L 188.720051 165.294196 
L 188.720051 164.63905 
L 189.550122 164.63905 
L 189.550122 163.983903 
L 190.644343 163.983903 
L 190.644343 163.328757 
L 191.095424 163.328757 
L 191.095424 162.673611 
L 191.532713 162.673611 
L 191.532713 162.018465 
L 192.468354 162.018465 
L 192.468354 161.363319 
L 192.668036 161.363319 
L 192.668036 160.708173 
L 193.520303 160.708173 
L 193.520303 160.053027 
L 193.906365 160.053027 
L 193.906365 159.397881 
L 194.929126 159.397881 
L 195.022375 158.087589 
L 195.103972 158.087589 
L 195.103972 157.432442 
L 195.251062 157.432442 
L 195.251062 156.777296 
L 195.653255 156.777296 
L 195.653255 156.12215 
L 195.915277 156.12215 
L 195.915277 155.467004 
L 197.460297 155.467004 
L 197.460297 154.811858 
L 198.010709 154.811858 
L 198.010709 154.156712 
L 198.740966 154.156712 
L 198.740966 153.501566 
L 200.145214 153.501566 
L 200.145214 152.84642 
L 200.400006 152.84642 
L 200.400006 152.191274 
L 200.679764 152.191274 
L 200.679764 151.536128 
L 200.892094 151.536128 
L 200.892094 150.880981 
L 201.026771 150.880981 
L 201.026771 150.225835 
L 201.960535 150.225835 
L 201.960535 149.570689 
L 202.81775 149.570689 
L 202.825763 148.260397 
L 203.228792 148.260397 
L 203.228792 147.605251 
L 203.755136 147.605251 
L 203.755136 146.950105 
L 204.247804 146.950105 
L 204.247804 146.294959 
L 204.454102 146.294959 
L 204.454102 145.639813 
L 204.849008 145.639813 
L 204.912344 144.32952 
L 205.563302 144.32952 
L 205.58959 143.019228 
L 206.649887 143.019228 
L 206.649887 142.364082 
L 207.338725 142.364082 
L 207.338725 141.708936 
L 207.602972 141.708936 
L 207.602972 141.05379 
L 208.058949 141.05379 
L 208.058949 140.398644 
L 208.610154 140.398644 
L 208.610154 139.743498 
L 209.02077 139.743498 
L 209.056202 138.433206 
L 209.581232 138.433206 
L 209.60097 137.122913 
L 209.81211 137.122913 
L 209.81211 136.467767 
L 210.084799 136.467767 
L 210.084799 135.812621 
L 210.200097 135.812621 
L 210.200097 135.157475 
L 210.805757 135.157475 
L 210.809759 133.847183 
L 211.15052 133.847183 
L 211.242618 132.536891 
L 212.09969 132.536891 
L 212.09969 131.881745 
L 212.495504 131.881745 
L 212.495504 131.226598 
L 213.257217 131.226598 
L 213.257217 130.571452 
L 213.630603 130.571452 
L 213.630603 129.916306 
L 213.859861 129.916306 
L 213.859861 129.26116 
L 214.270638 129.26116 
L 214.270638 128.606014 
L 214.390096 128.606014 
L 214.390096 127.950868 
L 214.809083 127.950868 
L 214.899621 126.640576 
L 214.999973 126.640576 
L 214.999973 125.98543 
L 215.214095 125.98543 
L 215.214095 125.330284 
L 215.465495 125.330284 
L 215.465495 124.675137 
L 215.719161 124.675137 
L 215.719161 124.019991 
L 216.641276 124.019991 
L 216.641276 123.364845 
L 217.796638 123.364845 
L 217.838402 121.399407 
L 219.09648 121.399407 
L 219.09648 120.744261 
L 219.543502 120.744261 
L 219.618353 119.433969 
L 219.708264 119.433969 
L 219.708264 118.778823 
L 219.97257 118.778823 
L 220.007394 117.46853 
L 220.609403 117.46853 
L 220.609403 116.813384 
L 221.612025 116.813384 
L 221.677662 115.503092 
L 222.638682 115.503092 
L 222.638682 114.847946 
L 222.808557 114.847946 
L 222.808557 114.1928 
L 223.072262 114.1928 
L 223.072262 113.537654 
L 223.353491 113.537654 
L 223.353491 112.882508 
L 223.979835 112.882508 
L 223.979835 112.227362 
L 224.977862 112.227362 
L 225.013222 110.917069 
L 225.314113 110.917069 
L 225.314113 110.261923 
L 227.144824 110.261923 
L 227.144824 109.606777 
L 227.381268 109.606777 
L 227.438417 108.296485 
L 227.503575 108.296485 
L 227.568694 106.986193 
L 227.998442 106.986193 
L 228.076318 105.020754 
L 228.128569 105.020754 
L 228.128569 104.365608 
L 228.469869 104.365608 
L 228.469869 103.710462 
L 228.657804 103.710462 
L 228.657804 103.055316 
L 228.932662 103.055316 
L 229.013999 101.745024 
L 229.351369 101.745024 
L 229.402789 99.779586 
L 229.533644 99.779586 
L 229.533644 99.12444 
L 230.061263 99.12444 
L 230.061263 98.469293 
L 230.38592 98.469293 
L 230.418446 97.159001 
L 230.838219 97.159001 
L 230.838219 96.503855 
L 231.011114 96.503855 
L 231.02292 95.193563 
L 231.177501 95.193563 
L 231.194334 93.883271 
L 231.3617 93.883271 
L 231.3617 93.228125 
L 231.494999 93.228125 
L 231.515109 91.917832 
L 231.750071 91.917832 
L 231.750071 91.262686 
L 232.055194 91.262686 
L 232.055194 90.60754 
L 232.821124 90.60754 
L 232.8754 89.297248 
L 232.95133 89.297248 
L 233.045276 87.986956 
L 233.174565 87.986956 
L 233.275265 86.021518 
L 233.449394 86.021518 
L 233.449394 85.366371 
L 233.690678 85.366371 
L 233.762432 84.056079 
L 233.912578 84.056079 
L 233.924205 82.090641 
L 234.203049 82.090641 
L 234.304102 80.780349 
L 234.500628 80.780349 
L 234.532552 79.470057 
L 234.670196 79.470057 
L 234.75021 76.849472 
L 234.906597 76.849472 
L 234.906597 76.194326 
L 235.207986 76.194326 
L 235.207986 75.53918 
L 235.329701 75.53918 
L 235.329701 74.884034 
L 235.477953 74.884034 
L 235.477953 74.228888 
L 235.675156 74.228888 
L 235.739909 72.918596 
L 235.826995 72.918596 
L 235.826995 72.263449 
L 236.0017 72.263449 
L 236.0017 71.608303 
L 236.559174 71.608303 
L 236.559174 70.953157 
L 245.441677 70.953157 
L 245.534724 69.642865 
L 245.892753 69.642865 
L 245.892753 68.987719 
L 246.06767 68.987719 
L 246.06767 68.332573 
L 246.288178 68.332573 
L 246.288178 67.022281 
L 246.698598 67.022281 
L 246.698598 66.367135 
L 246.981384 66.367135 
L 246.981384 65.056842 
L 247.312132 65.056842 
L 247.31598 63.74655 
L 247.60386 63.74655 
L 247.664612 61.781112 
L 247.97164 61.781112 
L 248.027039 59.815674 
L 248.085504 59.815674 
L 248.085504 59.160527 
L 248.253204 59.160527 
L 248.253204 58.505381 
L 252.775112 58.505381 
L 252.775112 57.850235 
L 254.117336 57.850235 
L 254.117336 57.195089 
L 254.472901 57.195089 
L 254.472901 56.539943 
L 254.74844 56.539943 
L 254.79945 55.229651 
L 254.868234 55.229651 
L 254.936897 53.264213 
L 255.088354 53.264213 
L 255.088354 52.609066 
L 255.298677 52.609066 
L 255.298677 51.95392 
L 255.532668 51.95392 
L 255.532668 51.298774 
L 255.668195 51.298774 
L 255.668195 50.643628 
L 258.952107 50.643628 
L 258.952107 49.988482 
L 259.893606 49.988482 
L 259.937315 48.67819 
L 260.030388 48.67819 
L 260.052129 47.367898 
L 260.292752 47.367898 
L 260.362916 45.402459 
L 260.61678 45.402459 
L 260.61678 44.092167 
L 263.290288 44.092167 
L 263.290288 43.437021 
L 264.085012 43.437021 
L 264.085012 42.781875 
L 264.331448 42.781875 
L 264.409615 41.471583 
L 264.62935 41.471583 
L 264.62935 40.816437 
L 267.236907 40.816437 
L 267.277776 39.506144 
L 267.461625 39.506144 
L 267.504353 37.540706 
L 267.639282 37.540706 
L 267.639282 36.88556 
L 270.133165 36.88556 
L 270.133165 36.230414 
L 270.462027 36.230414 
L 270.462027 35.575268 
L 276.553923 35.575268 
L 276.645616 33.60983 
L 281.289374 33.60983 
L 281.289374 32.954683 
L 285.763689 32.954683 
L 285.763689 32.299537 
L 287.882852 32.299537 
L 287.882852 31.644391 
L 288.712552 31.644391 
L 288.712552 30.989245 
L 290.451636 30.989245 
L 290.451636 30.334099 
L 338.688 30.334099 
L 338.688 30.334099 
" style="fill:none;stroke:#000080;stroke-linecap:square;stroke-width:1.5;"/>
   </g>
   <g id="line2d_31">
    <defs>
     <path d="M 0 6 
C 1.591219 6 3.117479 5.367802 4.242641 4.242641 
C 5.367802 3.117479 6 1.591219 6 0 
C 6 -1.591219 5.367802 -3.117479 4.242641 -4.242641 
C 3.117479 -5.367802 1.591219 -6 0 -6 
C -1.591219 -6 -3.117479 -5.367802 -4.242641 -4.242641 
C -5.367802 -3.117479 -6 -1.591219 -6 0 
C -6 1.591219 -5.367802 3.117479 -4.242641 4.242641 
C -3.117479 5.367802 -1.591219 6 0 6 
z
" id="m63f4120a6d" style="stroke:#000080;stroke-width:1.5;"/>
    </defs>
    <g>
     <use style="fill-opacity:0;stroke:#000080;stroke-width:1.5;" x="164.070989" xlink:href="#m63f4120a6d" y="182.98314"/>
     <use style="fill-opacity:0;stroke:#000080;stroke-width:1.5;" x="231.177501" xlink:href="#m63f4120a6d" y="95.193563"/>
     <use style="fill-opacity:0;stroke:#000080;stroke-width:1.5;" x="290.451636" xlink:href="#m63f4120a6d" y="30.334099"/>
     <use style="fill-opacity:0;stroke:#000080;stroke-width:1.5;" x="290.451636" xlink:href="#m63f4120a6d" y="30.334099"/>
     <use style="fill-opacity:0;stroke:#000080;stroke-width:1.5;" x="338.688" xlink:href="#m63f4120a6d" y="30.334099"/>
    </g>
   </g>
   <g id="line2d_32">
    <path style="fill:none;stroke:#000080;stroke-linecap:square;stroke-width:1.5;"/>
    <g/>
   </g>
   <g id="line2d_33">
    <path clip-path="url(#pd5ca1ad18d)" d="M 236.640697 70.953157 
" style="fill:none;stroke:#000080;stroke-linecap:square;stroke-width:1.5;"/>
    <defs>
     <path d="M -12 12 
L 12 -12 
M -12 -12 
L 12 12 
" id="mee941cab14" style="stroke:#000080;"/>
    </defs>
    <g clip-path="url(#pd5ca1ad18d)">
     <use style="fill:#000080;stroke:#000080;" x="236.640697" xlink:href="#mee941cab14" y="70.953157"/>
    </g>
   </g>
   <g id="line2d_34">
    <defs>
     <path d="M 0 1.5 
C 0.397805 1.5 0.77937 1.341951 1.06066 1.06066 
C 1.341951 0.77937 1.5 0.397805 1.5 0 
C 1.5 -0.397805 1.341951 -0.77937 1.06066 -1.06066 
C 0.77937 -1.341951 0.397805 -1.5 0 -1.5 
C -0.397805 -1.5 -0.77937 -1.341951 -1.06066 -1.06066 
C -1.341951 -0.77937 -1.5 -0.397805 -1.5 0 
C -1.5 0.397805 -1.341951 0.77937 -1.06066 1.06066 
C -0.77937 1.341951 -0.397805 1.5 0 1.5 
z
" id="mbc95153dd4" style="stroke:#ff00ff;"/>
    </defs>
    <g>
     <use style="fill:#ff00ff;stroke:#ff00ff;" x="304.401358" xlink:href="#mbc95153dd4" y="30.334099"/>
     <use style="fill:#ff00ff;stroke:#ff00ff;" x="304.401358" xlink:href="#mbc95153dd4" y="30.334099"/>
    </g>
   </g>
   <g id="line2d_35">
    <path d="M 115.141496 298.944 
L 115.141496 297.633708 
L 115.773423 297.633708 
L 115.773423 296.978562 
L 116.914437 296.978562 
L 116.914437 296.323416 
L 118.202674 296.323416 
L 118.202674 295.66827 
L 121.08272 295.66827 
L 121.08272 295.013123 
L 121.489881 295.013123 
L 121.489881 294.357977 
L 121.667835 294.357977 
L 121.667835 293.047685 
L 122.740699 293.047685 
L 122.740699 291.737393 
L 123.07053 291.737393 
L 123.07053 290.427101 
L 123.712047 290.427101 
L 123.790603 289.116809 
L 123.94666 289.116809 
L 123.94666 287.806516 
L 124.216444 287.806516 
L 124.216444 287.15137 
L 125.038147 287.15137 
L 125.038147 285.841078 
L 125.399222 285.841078 
L 125.399222 284.530786 
L 125.787955 284.530786 
L 125.787955 283.220494 
L 125.927192 283.220494 
L 125.961828 281.255055 
L 126.133984 281.255055 
L 126.168212 279.289617 
L 126.439646 279.289617 
L 126.50685 277.324179 
L 126.70692 277.324179 
L 126.70692 276.669033 
L 127.002787 276.669033 
L 127.067859 275.35874 
L 127.165014 275.35874 
L 127.261631 273.393302 
L 127.421479 273.393302 
L 127.421479 272.08301 
L 127.76807 272.08301 
L 127.830353 270.772718 
L 127.923363 270.772718 
L 127.923363 270.117572 
L 128.32077 270.117572 
L 128.32077 269.462426 
L 128.650105 269.462426 
L 128.650105 268.807279 
L 128.91501 268.807279 
L 128.91501 268.152133 
L 129.089405 268.152133 
L 129.089405 266.841841 
L 129.233413 266.841841 
L 129.233413 266.186695 
L 129.404667 266.186695 
L 129.404667 265.531549 
L 129.51791 265.531549 
L 129.574256 261.600672 
L 129.770048 261.600672 
L 129.770048 260.945526 
L 130.018593 260.945526 
L 130.073348 259.635234 
L 130.209487 259.635234 
L 130.209487 258.980088 
L 130.717333 258.980088 
L 130.717333 258.324942 
L 131.082294 258.324942 
L 131.082294 257.669796 
L 131.439773 257.669796 
L 131.439773 257.01465 
L 131.565689 257.01465 
L 131.565689 254.394065 
L 132.036046 254.394065 
L 132.036046 253.738919 
L 132.374684 253.738919 
L 132.470242 251.118335 
L 132.683351 251.118335 
L 132.777237 248.49775 
L 132.963507 248.49775 
L 133.032848 247.187458 
L 133.284766 247.187458 
L 133.284766 246.532312 
L 133.443203 246.532312 
L 133.443203 244.566874 
L 133.953874 244.566874 
L 134.04118 243.256582 
L 134.149701 243.256582 
L 134.149701 242.601435 
L 134.364738 242.601435 
L 134.428735 241.291143 
L 134.703375 241.291143 
L 134.703375 239.980851 
L 134.849486 239.980851 
L 134.849486 239.325705 
L 135.117629 239.325705 
L 135.117629 238.670559 
L 135.240011 238.670559 
L 135.240011 238.015413 
L 135.381712 238.015413 
L 135.381712 236.705121 
L 135.621981 236.705121 
L 135.661706 235.394828 
L 135.760625 235.394828 
L 135.760625 234.739682 
L 135.898175 234.739682 
L 135.956794 233.42939 
L 136.073445 233.42939 
L 136.150782 231.463952 
L 136.323544 231.463952 
L 136.323544 230.808806 
L 136.757427 230.808806 
L 136.757427 230.15366 
L 137.61184 230.15366 
L 137.61184 228.843367 
L 137.84096 228.843367 
L 137.945701 225.567637 
L 138.27329 225.567637 
L 138.27329 224.257345 
L 138.426341 224.257345 
L 138.477062 222.947052 
L 139.02546 222.947052 
L 139.02546 222.291906 
L 139.236847 222.291906 
L 139.236847 221.63676 
L 139.445704 221.63676 
L 139.445704 220.981614 
L 139.793552 220.981614 
L 139.824833 219.671322 
L 140.378508 219.671322 
L 140.378508 219.016176 
L 140.663789 219.016176 
L 140.663789 218.36103 
L 140.871049 218.36103 
L 140.871049 217.705884 
L 140.988387 217.705884 
L 140.988387 215.740445 
L 141.263941 215.740445 
L 141.263941 213.775007 
L 141.392962 213.775007 
L 141.492656 211.809569 
L 142.024126 211.809569 
L 142.024126 211.154423 
L 142.432559 211.154423 
L 142.432559 209.84413 
L 142.699628 209.84413 
L 142.699628 209.188984 
L 143.001786 209.188984 
L 143.092717 206.5684 
L 143.183176 206.5684 
L 143.183176 205.258108 
L 143.464461 205.258108 
L 143.464461 204.602962 
L 144.426702 204.602962 
L 144.426702 203.947816 
L 144.923649 203.947816 
L 144.923649 203.292669 
L 145.474772 203.292669 
L 145.553708 201.327231 
L 146.248504 201.327231 
L 146.248504 200.672085 
L 146.40993 200.672085 
L 146.484754 198.051501 
L 147.449528 198.051501 
L 147.449528 196.086062 
L 148.267683 196.086062 
L 148.267683 195.430916 
L 148.836097 195.430916 
L 148.836097 194.77577 
L 149.44067 194.77577 
L 149.44067 194.120624 
L 150.024985 194.120624 
L 150.024985 192.810332 
L 151.031458 192.810332 
L 151.031458 192.155186 
L 151.373256 192.155186 
L 151.373256 191.50004 
L 151.573572 191.50004 
L 151.573572 190.844894 
L 151.763734 190.844894 
L 151.763734 189.534601 
L 151.998557 189.534601 
L 152.029629 188.224309 
L 152.130233 188.224309 
L 152.130233 187.569163 
L 154.820715 187.569163 
L 154.820715 186.914017 
L 154.978716 186.914017 
L 155.004911 185.603725 
L 156.156981 185.603725 
L 156.156981 184.948579 
L 158.293192 184.948579 
L 158.293192 184.293433 
L 158.530025 184.293433 
L 158.530025 183.638286 
L 160.244578 183.638286 
L 160.244578 182.98314 
L 161.587082 182.98314 
L 161.587082 182.327994 
L 161.88953 182.327994 
L 161.973109 180.362556 
L 162.483394 180.362556 
L 162.483394 179.70741 
L 162.766623 179.70741 
L 162.766623 179.052264 
L 164.753922 179.052264 
L 164.753922 178.397118 
L 167.291353 178.397118 
L 167.291353 177.741972 
L 168.885428 177.741972 
L 168.885428 177.086825 
L 169.172381 177.086825 
L 169.192698 175.776533 
L 171.304668 175.776533 
L 171.304668 175.121387 
L 174.473085 175.121387 
L 174.473085 174.466241 
L 175.860728 174.466241 
L 175.860728 173.811095 
L 176.970518 173.811095 
L 176.970518 173.155949 
L 177.850452 173.155949 
L 177.850452 172.500803 
L 178.416758 172.500803 
L 178.416758 171.845657 
L 179.332372 171.845657 
L 179.332372 171.190511 
L 180.197673 171.190511 
L 180.197673 170.535364 
L 181.831732 170.535364 
L 181.831732 169.880218 
L 182.329061 169.880218 
L 182.329061 169.225072 
L 183.443979 169.225072 
L 183.443979 168.569926 
L 183.591965 168.569926 
L 183.591965 167.91478 
L 183.7198 167.91478 
L 183.7198 167.259634 
L 183.90295 167.259634 
L 183.90295 166.604488 
L 184.175348 166.604488 
L 184.226871 165.294196 
L 186.360632 165.294196 
L 186.360632 164.63905 
L 187.82359 164.63905 
L 187.82359 163.983903 
L 187.991214 163.983903 
L 187.991214 163.328757 
L 188.434663 163.328757 
L 188.434663 162.673611 
L 188.955136 162.673611 
L 188.955136 162.018465 
L 189.724372 162.018465 
L 189.724372 161.363319 
L 189.891588 161.363319 
L 189.891588 160.708173 
L 190.074744 160.708173 
L 190.094005 159.397881 
L 191.275419 159.397881 
L 191.275419 158.742735 
L 193.160028 158.742735 
L 193.160028 158.087589 
L 193.271957 158.087589 
L 193.271957 157.432442 
L 195.195641 157.432442 
L 195.195641 156.777296 
L 195.842433 156.777296 
L 195.917157 155.467004 
L 196.74796 155.467004 
L 196.74796 154.811858 
L 196.984135 154.811858 
L 196.984135 154.156712 
L 197.121513 154.156712 
L 197.121513 153.501566 
L 200.503876 153.501566 
L 200.503876 152.84642 
L 200.77345 152.84642 
L 200.814192 151.536128 
L 201.165055 151.536128 
L 201.165055 150.880981 
L 201.470761 150.880981 
L 201.564838 149.570689 
L 201.636305 149.570689 
L 201.636305 148.915543 
L 202.048486 148.915543 
L 202.048486 148.260397 
L 202.951378 148.260397 
L 202.951378 147.605251 
L 203.178455 147.605251 
L 203.286787 146.294959 
L 203.446611 146.294959 
L 203.446611 145.639813 
L 203.85479 145.639813 
L 203.85479 144.984667 
L 204.169126 144.984667 
L 204.169126 144.32952 
L 204.716724 144.32952 
L 204.716724 143.674374 
L 204.849759 143.674374 
L 204.849759 143.019228 
L 205.793146 143.019228 
L 205.793146 142.364082 
L 206.042104 142.364082 
L 206.042104 141.708936 
L 206.813346 141.708936 
L 206.813346 141.05379 
L 207.277751 141.05379 
L 207.277751 140.398644 
L 207.64524 140.398644 
L 207.64524 139.743498 
L 208.333809 139.743498 
L 208.333809 139.088352 
L 208.566827 139.088352 
L 208.566827 138.433206 
L 209.829613 138.433206 
L 209.829613 137.778059 
L 211.187365 137.778059 
L 211.187365 137.122913 
L 211.57536 137.122913 
L 211.57536 136.467767 
L 211.900869 136.467767 
L 211.912893 135.157475 
L 212.073163 135.157475 
L 212.073163 134.502329 
L 212.752248 134.502329 
L 212.752248 133.847183 
L 213.063967 133.847183 
L 213.063967 133.192037 
L 214.130963 133.192037 
L 214.130963 132.536891 
L 214.347028 132.536891 
L 214.347028 131.881745 
L 214.715088 131.881745 
L 214.715088 131.226598 
L 214.994728 131.226598 
L 215.043553 129.916306 
L 215.182985 129.916306 
L 215.182985 129.26116 
L 215.540295 129.26116 
L 215.562043 127.950868 
L 215.777642 127.950868 
L 215.777642 127.295722 
L 216.69123 127.295722 
L 216.69123 126.640576 
L 216.854767 126.640576 
L 216.854767 125.98543 
L 217.564221 125.98543 
L 217.564221 125.330284 
L 217.781621 125.330284 
L 217.852302 124.019991 
L 218.220319 124.019991 
L 218.220319 123.364845 
L 218.771704 123.364845 
L 218.771704 122.709699 
L 219.210715 122.709699 
L 219.251039 121.399407 
L 219.419877 121.399407 
L 219.419877 120.744261 
L 219.798193 120.744261 
L 219.798193 120.089115 
L 220.026274 120.089115 
L 220.026274 119.433969 
L 220.237745 119.433969 
L 220.237745 118.778823 
L 220.781465 118.778823 
L 220.781465 118.123676 
L 221.15628 118.123676 
L 221.15628 117.46853 
L 221.465822 117.46853 
L 221.465822 116.813384 
L 221.58803 116.813384 
L 221.58803 116.158238 
L 222.034033 116.158238 
L 222.034033 115.503092 
L 222.274268 115.503092 
L 222.274268 114.847946 
L 222.790181 114.847946 
L 222.790181 114.1928 
L 223.107747 114.1928 
L 223.107747 113.537654 
L 223.528671 113.537654 
L 223.528671 112.882508 
L 223.707713 112.882508 
L 223.72324 111.572215 
L 224.197957 111.572215 
L 224.197957 110.917069 
L 225.087021 110.917069 
L 225.087021 110.261923 
L 225.504206 110.261923 
L 225.504206 109.606777 
L 226.039317 109.606777 
L 226.039317 108.951631 
L 226.20693 108.951631 
L 226.20693 108.296485 
L 226.828965 108.296485 
L 226.828965 107.641339 
L 226.971989 107.641339 
L 226.971989 106.986193 
L 227.428443 106.986193 
L 227.46451 105.675901 
L 227.653789 105.675901 
L 227.677533 104.365608 
L 227.821336 104.365608 
L 227.821336 103.710462 
L 229.331367 103.710462 
L 229.331367 103.055316 
L 229.846075 103.055316 
L 229.846075 102.40017 
L 230.000305 102.40017 
L 230.000305 101.745024 
L 230.3788 101.745024 
L 230.39486 100.434732 
L 230.680247 100.434732 
L 230.680247 99.779586 
L 231.222161 99.779586 
L 231.222161 99.12444 
L 231.380078 99.12444 
L 231.380078 98.469293 
L 231.760264 98.469293 
L 231.760264 97.814147 
L 232.094595 97.814147 
L 232.094595 97.159001 
L 232.244762 97.159001 
L 232.244762 96.503855 
L 232.609803 96.503855 
L 232.609803 95.848709 
L 232.846549 95.848709 
L 232.846549 95.193563 
L 233.014763 95.193563 
L 233.06323 93.883271 
L 233.127891 93.883271 
L 233.17782 92.572979 
L 233.331889 92.572979 
L 233.397827 91.262686 
L 233.467956 91.262686 
L 233.544976 89.952394 
L 233.62757 89.952394 
L 233.62757 89.297248 
L 234.086317 89.297248 
L 234.086317 88.642102 
L 234.279675 88.642102 
L 234.279675 87.986956 
L 234.716718 87.986956 
L 234.734318 86.676664 
L 234.933909 86.676664 
L 234.999468 84.711225 
L 235.486768 84.711225 
L 235.486768 84.056079 
L 235.876746 84.056079 
L 235.876746 83.400933 
L 235.992386 83.400933 
L 235.992386 82.745787 
L 236.104825 82.745787 
L 236.167195 81.435495 
L 236.309636 81.435495 
L 236.402417 79.470057 
L 236.430002 79.470057 
L 236.430002 78.81491 
L 236.582923 78.81491 
L 236.582923 78.159764 
L 243.54935 78.159764 
L 243.594267 76.849472 
L 243.930002 76.849472 
L 243.930002 76.194326 
L 244.126193 76.194326 
L 244.126193 75.53918 
L 244.364405 75.53918 
L 244.364405 74.884034 
L 244.688695 74.884034 
L 244.688695 74.228888 
L 244.803734 74.228888 
L 244.803734 73.573742 
L 244.956105 73.573742 
L 245.014889 72.263449 
L 245.976951 72.263449 
L 245.976951 71.608303 
L 246.121386 71.608303 
L 246.229025 68.332573 
L 246.680191 68.332573 
L 246.680191 67.022281 
L 246.959313 67.022281 
L 247.010456 65.056842 
L 247.481488 65.056842 
L 247.481488 64.401696 
L 247.606803 64.401696 
L 247.631203 63.091404 
L 247.793215 63.091404 
L 247.865362 61.781112 
L 247.946539 61.781112 
L 247.991834 58.505381 
L 248.219702 58.505381 
L 248.219702 57.850235 
L 248.392972 57.850235 
L 248.462808 56.539943 
L 248.623657 56.539943 
L 248.661461 55.229651 
L 252.264444 55.229651 
L 252.264444 54.574505 
L 252.689649 54.574505 
L 252.689649 53.919359 
L 253.283529 53.919359 
L 253.283529 52.609066 
L 253.515297 52.609066 
L 253.515297 51.95392 
L 253.879699 51.95392 
L 253.879699 51.298774 
L 254.296278 51.298774 
L 254.296278 50.643628 
L 254.412751 50.643628 
L 254.412751 49.988482 
L 254.606258 49.988482 
L 254.713372 48.67819 
L 254.955846 48.67819 
L 254.955846 48.023044 
L 255.272088 48.023044 
L 255.272088 47.367898 
L 255.706439 47.367898 
L 255.706439 46.712752 
L 258.666823 46.712752 
L 258.666823 46.057605 
L 260.324965 46.057605 
L 260.324965 45.402459 
L 260.457643 45.402459 
L 260.564332 44.092167 
L 263.777191 44.092167 
L 263.777191 43.437021 
L 264.310432 43.437021 
L 264.310432 42.781875 
L 267.458885 42.781875 
L 267.458885 42.126729 
L 267.64552 42.126729 
L 267.64552 41.471583 
L 269.745512 41.471583 
L 269.745512 40.816437 
L 270.376989 40.816437 
L 270.376989 40.161291 
L 274.574867 40.161291 
L 274.631214 38.850998 
L 278.343877 38.850998 
L 278.343877 38.195852 
L 279.690041 38.195852 
L 279.703969 36.88556 
L 280.890911 36.88556 
L 280.890911 36.230414 
L 282.430062 36.230414 
L 282.430062 35.575268 
L 283.584403 35.575268 
L 283.686176 34.264976 
L 285.885675 34.264976 
L 285.885675 33.60983 
L 289.560602 33.60983 
L 289.560602 32.954683 
L 296.979386 32.954683 
L 296.979386 32.299537 
L 297.451979 32.299537 
L 297.451979 31.644391 
L 301.303398 31.644391 
L 301.303398 30.989245 
L 304.401358 30.989245 
L 304.401358 30.334099 
L 338.688 30.334099 
L 338.688 30.334099 
" style="fill:none;stroke:#ff00ff;stroke-linecap:square;stroke-width:1.5;"/>
   </g>
   <g id="line2d_36">
    <defs>
     <path d="M -0 8.485281 
L 5.091169 0 
L 0 -8.485281 
L -5.091169 -0 
z
" id="m5c0433f705" style="stroke:#ff00ff;stroke-linejoin:miter;stroke-width:1.5;"/>
    </defs>
    <g>
     <use style="fill-opacity:0;stroke:#ff00ff;stroke-linejoin:miter;stroke-width:1.5;" x="143.027814" xlink:href="#m5c0433f705" y="208.533838"/>
     <use style="fill-opacity:0;stroke:#ff00ff;stroke-linejoin:miter;stroke-width:1.5;" x="208.566827" xlink:href="#m5c0433f705" y="139.088352"/>
     <use style="fill-opacity:0;stroke:#ff00ff;stroke-linejoin:miter;stroke-width:1.5;" x="279.703969" xlink:href="#m5c0433f705" y="36.88556"/>
     <use style="fill-opacity:0;stroke:#ff00ff;stroke-linejoin:miter;stroke-width:1.5;" x="304.401358" xlink:href="#m5c0433f705" y="30.334099"/>
     <use style="fill-opacity:0;stroke:#ff00ff;stroke-linejoin:miter;stroke-width:1.5;" x="338.688" xlink:href="#m5c0433f705" y="30.334099"/>
    </g>
   </g>
   <g id="line2d_37">
    <path style="fill:none;stroke:#ff00ff;stroke-linecap:square;stroke-width:1.5;"/>
    <g/>
   </g>
   <g id="line2d_38">
    <path clip-path="url(#pd5ca1ad18d)" d="M 236.640697 78.159764 
" style="fill:none;stroke:#ff00ff;stroke-linecap:square;stroke-width:1.5;"/>
    <defs>
     <path d="M -12 12 
L 12 -12 
M -12 -12 
L 12 12 
" id="m9e75ea2593" style="stroke:#ff00ff;"/>
    </defs>
    <g clip-path="url(#pd5ca1ad18d)">
     <use style="fill:#ff00ff;stroke:#ff00ff;" x="236.640697" xlink:href="#m9e75ea2593" y="78.159764"/>
    </g>
   </g>
   <g id="line2d_39">
    <path d="M 338.688 30.334099 
L 369.60768 293.571802 
" style="fill:none;stroke:#ff00ff;stroke-linecap:square;stroke-width:1.5;"/>
    <g>
     <use style="fill-opacity:0;stroke:#ff00ff;stroke-linejoin:miter;stroke-width:1.5;" x="338.688" xlink:href="#m5c0433f705" y="30.334099"/>
     <use style="fill-opacity:0;stroke:#ff00ff;stroke-linejoin:miter;stroke-width:1.5;" x="369.60768" xlink:href="#m5c0433f705" y="293.571802"/>
    </g>
   </g>
   <g id="line2d_40">
    <path d="M 338.688 30.334099 
L 369.60768 35.706297 
" style="fill:none;stroke:#000080;stroke-linecap:square;stroke-width:1.5;"/>
    <g>
     <use style="fill-opacity:0;stroke:#000080;stroke-width:1.5;" x="338.688" xlink:href="#m63f4120a6d" y="30.334099"/>
     <use style="fill-opacity:0;stroke:#000080;stroke-width:1.5;" x="369.60768" xlink:href="#m63f4120a6d" y="35.706297"/>
    </g>
   </g>
   <g id="line2d_41">
    <path d="M 338.688 298.944 
L 338.688 30.334099 
" style="fill:none;stroke:#000000;stroke-linecap:square;stroke-width:1.5;"/>
   </g>
   <g id="patch_3">
    <path d="M 57.6 298.944 
L 57.6 27.648 
" style="fill:none;stroke:#000000;stroke-linecap:square;stroke-linejoin:miter;stroke-width:0.8;"/>
   </g>
   <g id="patch_4">
    <path d="M 338.688 298.944 
L 338.688 27.648 
" style="fill:none;stroke:#000000;stroke-linecap:square;stroke-linejoin:miter;stroke-width:0.8;"/>
   </g>
   <g id="patch_5">
    <path d="M 57.6 298.944 
L 338.688 298.944 
" style="fill:none;stroke:#000000;stroke-linecap:square;stroke-linejoin:miter;stroke-width:0.8;"/>
   </g>
   <g id="patch_6">
    <path d="M 57.6 27.648 
L 338.688 27.648 
" style="fill:none;stroke:#000000;stroke-linecap:square;stroke-linejoin:miter;stroke-width:0.8;"/>
   </g>
   <g id="text_13">
    <!-- OLD+NODGA -->
    <g transform="translate(375.22944 298.262739)scale(0.17 -0.17)">
     <defs>
      <path d="M 39.40625 66.21875 
Q 28.65625 66.21875 22.328125 58.203125 
Q 16.015625 50.203125 16.015625 36.375 
Q 16.015625 22.609375 22.328125 14.59375 
Q 28.65625 6.59375 39.40625 6.59375 
Q 50.140625 6.59375 56.421875 14.59375 
Q 62.703125 22.609375 62.703125 36.375 
Q 62.703125 50.203125 56.421875 58.203125 
Q 50.140625 66.21875 39.40625 66.21875 
z
M 39.40625 74.21875 
Q 54.734375 74.21875 63.90625 63.9375 
Q 73.09375 53.65625 73.09375 36.375 
Q 73.09375 19.140625 63.90625 8.859375 
Q 54.734375 -1.421875 39.40625 -1.421875 
Q 24.03125 -1.421875 14.8125 8.828125 
Q 5.609375 19.09375 5.609375 36.375 
Q 5.609375 53.65625 14.8125 63.9375 
Q 24.03125 74.21875 39.40625 74.21875 
z
" id="DejaVuSans-79"/>
      <path d="M 9.8125 72.90625 
L 19.671875 72.90625 
L 19.671875 8.296875 
L 55.171875 8.296875 
L 55.171875 0 
L 9.8125 0 
z
" id="DejaVuSans-76"/>
      <path d="M 19.671875 64.796875 
L 19.671875 8.109375 
L 31.59375 8.109375 
Q 46.6875 8.109375 53.6875 14.9375 
Q 60.6875 21.78125 60.6875 36.53125 
Q 60.6875 51.171875 53.6875 57.984375 
Q 46.6875 64.796875 31.59375 64.796875 
z
M 9.8125 72.90625 
L 30.078125 72.90625 
Q 51.265625 72.90625 61.171875 64.09375 
Q 71.09375 55.28125 71.09375 36.53125 
Q 71.09375 17.671875 61.125 8.828125 
Q 51.171875 0 30.078125 0 
L 9.8125 0 
z
" id="DejaVuSans-68"/>
      <path d="M 9.8125 72.90625 
L 23.09375 72.90625 
L 55.421875 11.921875 
L 55.421875 72.90625 
L 64.984375 72.90625 
L 64.984375 0 
L 51.703125 0 
L 19.390625 60.984375 
L 19.390625 0 
L 9.8125 0 
z
" id="DejaVuSans-78"/>
      <path d="M 59.515625 10.40625 
L 59.515625 29.984375 
L 43.40625 29.984375 
L 43.40625 38.09375 
L 69.28125 38.09375 
L 69.28125 6.78125 
Q 63.578125 2.734375 56.6875 0.65625 
Q 49.8125 -1.421875 42 -1.421875 
Q 24.90625 -1.421875 15.25 8.5625 
Q 5.609375 18.5625 5.609375 36.375 
Q 5.609375 54.25 15.25 64.234375 
Q 24.90625 74.21875 42 74.21875 
Q 49.125 74.21875 55.546875 72.453125 
Q 61.96875 70.703125 67.390625 67.28125 
L 67.390625 56.78125 
Q 61.921875 61.421875 55.765625 63.765625 
Q 49.609375 66.109375 42.828125 66.109375 
Q 29.4375 66.109375 22.71875 58.640625 
Q 16.015625 51.171875 16.015625 36.375 
Q 16.015625 21.625 22.71875 14.15625 
Q 29.4375 6.6875 42.828125 6.6875 
Q 48.046875 6.6875 52.140625 7.59375 
Q 56.25 8.5 59.515625 10.40625 
z
" id="DejaVuSans-71"/>
      <path d="M 34.1875 63.1875 
L 20.796875 26.90625 
L 47.609375 26.90625 
z
M 28.609375 72.90625 
L 39.796875 72.90625 
L 67.578125 0 
L 57.328125 0 
L 50.6875 18.703125 
L 17.828125 18.703125 
L 11.1875 0 
L 0.78125 0 
z
" id="DejaVuSans-65"/>
     </defs>
     <use xlink:href="#DejaVuSans-79"/>
     <use x="78.710938" xlink:href="#DejaVuSans-76"/>
     <use x="134.423828" xlink:href="#DejaVuSans-68"/>
     <use x="211.425781" xlink:href="#DejaVuSans-43"/>
     <use x="295.214844" xlink:href="#DejaVuSans-78"/>
     <use x="370.019531" xlink:href="#DejaVuSans-79"/>
     <use x="448.730469" xlink:href="#DejaVuSans-68"/>
     <use x="525.732422" xlink:href="#DejaVuSans-71"/>
     <use x="603.222656" xlink:href="#DejaVuSans-65"/>
    </g>
   </g>
   <g id="text_14">
    <!-- OLD+DGAM -->
    <g transform="translate(375.22944 40.397235)scale(0.17 -0.17)">
     <defs>
      <path d="M 9.8125 72.90625 
L 24.515625 72.90625 
L 43.109375 23.296875 
L 61.8125 72.90625 
L 76.515625 72.90625 
L 76.515625 0 
L 66.890625 0 
L 66.890625 64.015625 
L 48.09375 14.015625 
L 38.1875 14.015625 
L 19.390625 64.015625 
L 19.390625 0 
L 9.8125 0 
z
" id="DejaVuSans-77"/>
     </defs>
     <use xlink:href="#DejaVuSans-79"/>
     <use x="78.710938" xlink:href="#DejaVuSans-76"/>
     <use x="134.423828" xlink:href="#DejaVuSans-68"/>
     <use x="211.425781" xlink:href="#DejaVuSans-43"/>
     <use x="295.214844" xlink:href="#DejaVuSans-68"/>
     <use x="372.216797" xlink:href="#DejaVuSans-71"/>
     <use x="449.707031" xlink:href="#DejaVuSans-65"/>
     <use x="518.115234" xlink:href="#DejaVuSans-77"/>
    </g>
   </g>
   <g id="text_15">
    <!-- bbob-constrained f28, 20-D -->
    <g transform="translate(60.41088 38.111366)scale(0.102 -0.102)">
     <defs>
      <path d="M 48.6875 27.296875 
Q 48.6875 37.203125 44.609375 42.84375 
Q 40.53125 48.484375 33.40625 48.484375 
Q 26.265625 48.484375 22.1875 42.84375 
Q 18.109375 37.203125 18.109375 27.296875 
Q 18.109375 17.390625 22.1875 11.75 
Q 26.265625 6.109375 33.40625 6.109375 
Q 40.53125 6.109375 44.609375 11.75 
Q 48.6875 17.390625 48.6875 27.296875 
z
M 18.109375 46.390625 
Q 20.953125 51.265625 25.265625 53.625 
Q 29.59375 56 35.59375 56 
Q 45.5625 56 51.78125 48.09375 
Q 58.015625 40.1875 58.015625 27.296875 
Q 58.015625 14.40625 51.78125 6.484375 
Q 45.5625 -1.421875 35.59375 -1.421875 
Q 29.59375 -1.421875 25.265625 0.953125 
Q 20.953125 3.328125 18.109375 8.203125 
L 18.109375 0 
L 9.078125 0 
L 9.078125 75.984375 
L 18.109375 75.984375 
z
" id="DejaVuSans-98"/>
     </defs>
     <use xlink:href="#DejaVuSans-98"/>
     <use x="63.476562" xlink:href="#DejaVuSans-98"/>
     <use x="126.953125" xlink:href="#DejaVuSans-111"/>
     <use x="188.134766" xlink:href="#DejaVuSans-98"/>
     <use x="251.611328" xlink:href="#DejaVuSans-45"/>
     <use x="287.695312" xlink:href="#DejaVuSans-99"/>
     <use x="342.675781" xlink:href="#DejaVuSans-111"/>
     <use x="403.857422" xlink:href="#DejaVuSans-110"/>
     <use x="467.236328" xlink:href="#DejaVuSans-115"/>
     <use x="519.335938" xlink:href="#DejaVuSans-116"/>
     <use x="558.544922" xlink:href="#DejaVuSans-114"/>
     <use x="599.658203" xlink:href="#DejaVuSans-97"/>
     <use x="660.9375" xlink:href="#DejaVuSans-105"/>
     <use x="688.720703" xlink:href="#DejaVuSans-110"/>
     <use x="752.099609" xlink:href="#DejaVuSans-101"/>
     <use x="813.623047" xlink:href="#DejaVuSans-100"/>
     <use x="877.099609" xlink:href="#DejaVuSans-32"/>
     <use x="908.886719" xlink:href="#DejaVuSans-102"/>
     <use x="944.091797" xlink:href="#DejaVuSans-50"/>
     <use x="1007.714844" xlink:href="#DejaVuSans-56"/>
     <use x="1071.337891" xlink:href="#DejaVuSans-44"/>
     <use x="1103.125" xlink:href="#DejaVuSans-32"/>
     <use x="1134.912109" xlink:href="#DejaVuSans-50"/>
     <use x="1198.535156" xlink:href="#DejaVuSans-48"/>
     <use x="1262.158203" xlink:href="#DejaVuSans-45"/>
     <use x="1298.242188" xlink:href="#DejaVuSans-68"/>
    </g>
    <!-- 41 targets: 100..1e-06 -->
    <g transform="translate(60.41088 49.533135)scale(0.102 -0.102)">
     <defs>
      <path d="M 11.71875 12.40625 
L 22.015625 12.40625 
L 22.015625 0 
L 11.71875 0 
z
M 11.71875 51.703125 
L 22.015625 51.703125 
L 22.015625 39.3125 
L 11.71875 39.3125 
z
" id="DejaVuSans-58"/>
     </defs>
     <use xlink:href="#DejaVuSans-52"/>
     <use x="63.623047" xlink:href="#DejaVuSans-49"/>
     <use x="127.246094" xlink:href="#DejaVuSans-32"/>
     <use x="159.033203" xlink:href="#DejaVuSans-116"/>
     <use x="198.242188" xlink:href="#DejaVuSans-97"/>
     <use x="259.521484" xlink:href="#DejaVuSans-114"/>
     <use x="298.884766" xlink:href="#DejaVuSans-103"/>
     <use x="362.361328" xlink:href="#DejaVuSans-101"/>
     <use x="423.884766" xlink:href="#DejaVuSans-116"/>
     <use x="463.09375" xlink:href="#DejaVuSans-115"/>
     <use x="515.193359" xlink:href="#DejaVuSans-58"/>
     <use x="548.884766" xlink:href="#DejaVuSans-32"/>
     <use x="580.671875" xlink:href="#DejaVuSans-49"/>
     <use x="644.294922" xlink:href="#DejaVuSans-48"/>
     <use x="707.917969" xlink:href="#DejaVuSans-48"/>
     <use x="771.541016" xlink:href="#DejaVuSans-46"/>
     <use x="803.328125" xlink:href="#DejaVuSans-46"/>
     <use x="835.115234" xlink:href="#DejaVuSans-49"/>
     <use x="898.738281" xlink:href="#DejaVuSans-101"/>
     <use x="960.261719" xlink:href="#DejaVuSans-45"/>
     <use x="996.345703" xlink:href="#DejaVuSans-48"/>
     <use x="1059.96875" xlink:href="#DejaVuSans-54"/>
    </g>
    <!-- 45, 15 instances -->
    <g transform="translate(60.41088 60.954904)scale(0.102 -0.102)">
     <defs>
      <path d="M 10.796875 72.90625 
L 49.515625 72.90625 
L 49.515625 64.59375 
L 19.828125 64.59375 
L 19.828125 46.734375 
Q 21.96875 47.46875 24.109375 47.828125 
Q 26.265625 48.1875 28.421875 48.1875 
Q 40.625 48.1875 47.75 41.5 
Q 54.890625 34.8125 54.890625 23.390625 
Q 54.890625 11.625 47.5625 5.09375 
Q 40.234375 -1.421875 26.90625 -1.421875 
Q 22.3125 -1.421875 17.546875 -0.640625 
Q 12.796875 0.140625 7.71875 1.703125 
L 7.71875 11.625 
Q 12.109375 9.234375 16.796875 8.0625 
Q 21.484375 6.890625 26.703125 6.890625 
Q 35.15625 6.890625 40.078125 11.328125 
Q 45.015625 15.765625 45.015625 23.390625 
Q 45.015625 31 40.078125 35.4375 
Q 35.15625 39.890625 26.703125 39.890625 
Q 22.75 39.890625 18.8125 39.015625 
Q 14.890625 38.140625 10.796875 36.28125 
z
" id="DejaVuSans-53"/>
     </defs>
     <use xlink:href="#DejaVuSans-52"/>
     <use x="63.623047" xlink:href="#DejaVuSans-53"/>
     <use x="127.246094" xlink:href="#DejaVuSans-44"/>
     <use x="159.033203" xlink:href="#DejaVuSans-32"/>
     <use x="190.820312" xlink:href="#DejaVuSans-49"/>
     <use x="254.443359" xlink:href="#DejaVuSans-53"/>
     <use x="318.066406" xlink:href="#DejaVuSans-32"/>
     <use x="349.853516" xlink:href="#DejaVuSans-105"/>
     <use x="377.636719" xlink:href="#DejaVuSans-110"/>
     <use x="441.015625" xlink:href="#DejaVuSans-115"/>
     <use x="493.115234" xlink:href="#DejaVuSans-116"/>
     <use x="532.324219" xlink:href="#DejaVuSans-97"/>
     <use x="593.603516" xlink:href="#DejaVuSans-110"/>
     <use x="656.982422" xlink:href="#DejaVuSans-99"/>
     <use x="711.962891" xlink:href="#DejaVuSans-101"/>
     <use x="773.486328" xlink:href="#DejaVuSans-115"/>
    </g>
   </g>
   <g id="text_16">
    <!-- v5z33 -->
    <g style="fill:#808080;" transform="translate(183.016656 294.151352)scale(0.1 -0.1)">
     <defs>
      <path d="M 5.515625 54.6875 
L 48.1875 54.6875 
L 48.1875 46.484375 
L 14.40625 7.171875 
L 48.1875 7.171875 
L 48.1875 0 
L 4.296875 0 
L 4.296875 8.203125 
L 38.09375 47.515625 
L 5.515625 47.515625 
z
" id="DejaVuSans-122"/>
      <path d="M 40.578125 39.3125 
Q 47.65625 37.796875 51.625 33 
Q 55.609375 28.21875 55.609375 21.1875 
Q 55.609375 10.40625 48.1875 4.484375 
Q 40.765625 -1.421875 27.09375 -1.421875 
Q 22.515625 -1.421875 17.65625 -0.515625 
Q 12.796875 0.390625 7.625 2.203125 
L 7.625 11.71875 
Q 11.71875 9.328125 16.59375 8.109375 
Q 21.484375 6.890625 26.8125 6.890625 
Q 36.078125 6.890625 40.9375 10.546875 
Q 45.796875 14.203125 45.796875 21.1875 
Q 45.796875 27.640625 41.28125 31.265625 
Q 36.765625 34.90625 28.71875 34.90625 
L 20.21875 34.90625 
L 20.21875 43.015625 
L 29.109375 43.015625 
Q 36.375 43.015625 40.234375 45.921875 
Q 44.09375 48.828125 44.09375 54.296875 
Q 44.09375 59.90625 40.109375 62.90625 
Q 36.140625 65.921875 28.71875 65.921875 
Q 24.65625 65.921875 20.015625 65.03125 
Q 15.375 64.15625 9.8125 62.3125 
L 9.8125 71.09375 
Q 15.4375 72.65625 20.34375 73.4375 
Q 25.25 74.21875 29.59375 74.21875 
Q 40.828125 74.21875 47.359375 69.109375 
Q 53.90625 64.015625 53.90625 55.328125 
Q 53.90625 49.265625 50.4375 45.09375 
Q 46.96875 40.921875 40.578125 39.3125 
z
" id="DejaVuSans-51"/>
     </defs>
     <use xlink:href="#DejaVuSans-118"/>
     <use x="59.179688" xlink:href="#DejaVuSans-53"/>
     <use x="122.802734" xlink:href="#DejaVuSans-122"/>
     <use x="175.292969" xlink:href="#DejaVuSans-51"/>
     <use x="238.916016" xlink:href="#DejaVuSans-51"/>
    </g>
   </g>
   <g id="text_17">
    <!-- 28 Discus, n/2+6 constraints -->
    <g transform="translate(53.594 21.648)scale(0.2 -0.2)">
     <use xlink:href="#DejaVuSans-50"/>
     <use x="63.623047" xlink:href="#DejaVuSans-56"/>
     <use x="127.246094" xlink:href="#DejaVuSans-32"/>
     <use x="159.033203" xlink:href="#DejaVuSans-68"/>
     <use x="236.035156" xlink:href="#DejaVuSans-105"/>
     <use x="263.818359" xlink:href="#DejaVuSans-115"/>
     <use x="315.917969" xlink:href="#DejaVuSans-99"/>
     <use x="370.898438" xlink:href="#DejaVuSans-117"/>
     <use x="434.277344" xlink:href="#DejaVuSans-115"/>
     <use x="486.376953" xlink:href="#DejaVuSans-44"/>
     <use x="518.164062" xlink:href="#DejaVuSans-32"/>
     <use x="549.951172" xlink:href="#DejaVuSans-110"/>
     <use x="613.330078" xlink:href="#DejaVuSans-47"/>
     <use x="647.021484" xlink:href="#DejaVuSans-50"/>
     <use x="710.644531" xlink:href="#DejaVuSans-43"/>
     <use x="794.433594" xlink:href="#DejaVuSans-54"/>
     <use x="858.056641" xlink:href="#DejaVuSans-32"/>
     <use x="889.84375" xlink:href="#DejaVuSans-99"/>
     <use x="944.824219" xlink:href="#DejaVuSans-111"/>
     <use x="1006.005859" xlink:href="#DejaVuSans-110"/>
     <use x="1069.384766" xlink:href="#DejaVuSans-115"/>
     <use x="1121.484375" xlink:href="#DejaVuSans-116"/>
     <use x="1160.693359" xlink:href="#DejaVuSans-114"/>
     <use x="1201.806641" xlink:href="#DejaVuSans-97"/>
     <use x="1263.085938" xlink:href="#DejaVuSans-105"/>
     <use x="1290.869141" xlink:href="#DejaVuSans-110"/>
     <use x="1354.248047" xlink:href="#DejaVuSans-116"/>
     <use x="1393.457031" xlink:href="#DejaVuSans-115"/>
    </g>
   </g>
  </g>
 </g>
 <defs>
  <clipPath id="pd5ca1ad18d">
   <rect height="271.296" width="281.088" x="57.6" y="27.648"/>
  </clipPath>
 </defs>
</svg>
