<?xml version="1.0" encoding="utf-8" standalone="no"?>
<!DOCTYPE svg PUBLIC "-//W3C//DTD SVG 1.1//EN"
  "http://www.w3.org/Graphics/SVG/1.1/DTD/svg11.dtd">
<!-- Created with matplotlib (https://matplotlib.org/) -->
<svg height="345.6pt" version="1.1" viewBox="0 0 460.8 345.6" width="460.8pt" xmlns="http://www.w3.org/2000/svg" xmlns:xlink="http://www.w3.org/1999/xlink">
 <metadata>
  <rdf:RDF xmlns:cc="http://creativecommons.org/ns#" xmlns:dc="http://purl.org/dc/elements/1.1/" xmlns:rdf="http://www.w3.org/1999/02/22-rdf-syntax-ns#">
   <cc:Work>
    <dc:type rdf:resource="http://purl.org/dc/dcmitype/StillImage"/>
    <dc:date>2021-03-11T12:05:03.147418</dc:date>
    <dc:format>image/svg+xml</dc:format>
    <dc:creator>
     <cc:Agent>
      <dc:title>Matplotlib v3.3.3, https://matplotlib.org/</dc:title>
     </cc:Agent>
    </dc:creator>
   </cc:Work>
  </rdf:RDF>
 </metadata>
 <defs>
  <style type="text/css">*{stroke-linecap:butt;stroke-linejoin:round;}</style>
 </defs>
 <g id="figure_1">
  <g id="patch_1">
   <path d="M 0 345.6 
L 460.8 345.6 
L 460.8 0 
L 0 0 
z
" style="fill:#ffffff;"/>
  </g>
  <g id="axes_1">
   <g id="patch_2">
    <path d="M 57.6 298.944 
L 338.688 298.944 
L 338.688 27.648 
L 57.6 27.648 
z
" style="fill:#ffffff;"/>
   </g>
   <g id="matplotlib.axis_1">
    <g id="xtick_1">
     <g id="line2d_1">
      <path clip-path="url(#p56eee8b7c3)" d="M 57.6 298.944 
L 57.6 27.648 
" style="fill:none;stroke:#b0b0b0;stroke-linecap:square;stroke-width:0.8;"/>
     </g>
     <g id="line2d_2">
      <defs>
       <path d="M 0 0 
L 0 3.5 
" id="m199b90b614" style="stroke:#000000;stroke-width:0.8;"/>
      </defs>
      <g>
       <use style="stroke:#000000;stroke-width:0.8;" x="57.6" xlink:href="#m199b90b614" y="298.944"/>
      </g>
     </g>
     <g id="text_1">
      <!-- 0 -->
      <g transform="translate(51.2375 321.140875)scale(0.2 -0.2)">
       <defs>
        <path d="M 31.78125 66.40625 
Q 24.171875 66.40625 20.328125 58.90625 
Q 16.5 51.421875 16.5 36.375 
Q 16.5 21.390625 20.328125 13.890625 
Q 24.171875 6.390625 31.78125 6.390625 
Q 39.453125 6.390625 43.28125 13.890625 
Q 47.125 21.390625 47.125 36.375 
Q 47.125 51.421875 43.28125 58.90625 
Q 39.453125 66.40625 31.78125 66.40625 
z
M 31.78125 74.21875 
Q 44.046875 74.21875 50.515625 64.515625 
Q 56.984375 54.828125 56.984375 36.375 
Q 56.984375 17.96875 50.515625 8.265625 
Q 44.046875 -1.421875 31.78125 -1.421875 
Q 19.53125 -1.421875 13.0625 8.265625 
Q 6.59375 17.96875 6.59375 36.375 
Q 6.59375 54.828125 13.0625 64.515625 
Q 19.53125 74.21875 31.78125 74.21875 
z
" id="DejaVuSans-48"/>
       </defs>
       <use xlink:href="#DejaVuSans-48"/>
      </g>
     </g>
    </g>
    <g id="xtick_2">
     <g id="line2d_3">
      <path clip-path="url(#p56eee8b7c3)" d="M 137.910857 298.944 
L 137.910857 27.648 
" style="fill:none;stroke:#b0b0b0;stroke-linecap:square;stroke-width:0.8;"/>
     </g>
     <g id="line2d_4">
      <g>
       <use style="stroke:#000000;stroke-width:0.8;" x="137.910857" xlink:href="#m199b90b614" y="298.944"/>
      </g>
     </g>
     <g id="text_2">
      <!-- 2 -->
      <g transform="translate(131.548357 321.140875)scale(0.2 -0.2)">
       <defs>
        <path d="M 19.1875 8.296875 
L 53.609375 8.296875 
L 53.609375 0 
L 7.328125 0 
L 7.328125 8.296875 
Q 12.9375 14.109375 22.625 23.890625 
Q 32.328125 33.6875 34.8125 36.53125 
Q 39.546875 41.84375 41.421875 45.53125 
Q 43.3125 49.21875 43.3125 52.78125 
Q 43.3125 58.59375 39.234375 62.25 
Q 35.15625 65.921875 28.609375 65.921875 
Q 23.96875 65.921875 18.8125 64.3125 
Q 13.671875 62.703125 7.8125 59.421875 
L 7.8125 69.390625 
Q 13.765625 71.78125 18.9375 73 
Q 24.125 74.21875 28.421875 74.21875 
Q 39.75 74.21875 46.484375 68.546875 
Q 53.21875 62.890625 53.21875 53.421875 
Q 53.21875 48.921875 51.53125 44.890625 
Q 49.859375 40.875 45.40625 35.40625 
Q 44.1875 33.984375 37.640625 27.21875 
Q 31.109375 20.453125 19.1875 8.296875 
z
" id="DejaVuSans-50"/>
       </defs>
       <use xlink:href="#DejaVuSans-50"/>
      </g>
     </g>
    </g>
    <g id="xtick_3">
     <g id="line2d_5">
      <path clip-path="url(#p56eee8b7c3)" d="M 218.221714 298.944 
L 218.221714 27.648 
" style="fill:none;stroke:#b0b0b0;stroke-linecap:square;stroke-width:0.8;"/>
     </g>
     <g id="line2d_6">
      <g>
       <use style="stroke:#000000;stroke-width:0.8;" x="218.221714" xlink:href="#m199b90b614" y="298.944"/>
      </g>
     </g>
     <g id="text_3">
      <!-- 4 -->
      <g transform="translate(211.859214 321.140875)scale(0.2 -0.2)">
       <defs>
        <path d="M 37.796875 64.3125 
L 12.890625 25.390625 
L 37.796875 25.390625 
z
M 35.203125 72.90625 
L 47.609375 72.90625 
L 47.609375 25.390625 
L 58.015625 25.390625 
L 58.015625 17.1875 
L 47.609375 17.1875 
L 47.609375 0 
L 37.796875 0 
L 37.796875 17.1875 
L 4.890625 17.1875 
L 4.890625 26.703125 
z
" id="DejaVuSans-52"/>
       </defs>
       <use xlink:href="#DejaVuSans-52"/>
      </g>
     </g>
    </g>
    <g id="xtick_4">
     <g id="line2d_7">
      <path clip-path="url(#p56eee8b7c3)" d="M 298.532571 298.944 
L 298.532571 27.648 
" style="fill:none;stroke:#b0b0b0;stroke-linecap:square;stroke-width:0.8;"/>
     </g>
     <g id="line2d_8">
      <g>
       <use style="stroke:#000000;stroke-width:0.8;" x="298.532571" xlink:href="#m199b90b614" y="298.944"/>
      </g>
     </g>
     <g id="text_4">
      <!-- 6 -->
      <g transform="translate(292.170071 321.140875)scale(0.2 -0.2)">
       <defs>
        <path d="M 33.015625 40.375 
Q 26.375 40.375 22.484375 35.828125 
Q 18.609375 31.296875 18.609375 23.390625 
Q 18.609375 15.53125 22.484375 10.953125 
Q 26.375 6.390625 33.015625 6.390625 
Q 39.65625 6.390625 43.53125 10.953125 
Q 47.40625 15.53125 47.40625 23.390625 
Q 47.40625 31.296875 43.53125 35.828125 
Q 39.65625 40.375 33.015625 40.375 
z
M 52.59375 71.296875 
L 52.59375 62.3125 
Q 48.875 64.0625 45.09375 64.984375 
Q 41.3125 65.921875 37.59375 65.921875 
Q 27.828125 65.921875 22.671875 59.328125 
Q 17.53125 52.734375 16.796875 39.40625 
Q 19.671875 43.65625 24.015625 45.921875 
Q 28.375 48.1875 33.59375 48.1875 
Q 44.578125 48.1875 50.953125 41.515625 
Q 57.328125 34.859375 57.328125 23.390625 
Q 57.328125 12.15625 50.6875 5.359375 
Q 44.046875 -1.421875 33.015625 -1.421875 
Q 20.359375 -1.421875 13.671875 8.265625 
Q 6.984375 17.96875 6.984375 36.375 
Q 6.984375 53.65625 15.1875 63.9375 
Q 23.390625 74.21875 37.203125 74.21875 
Q 40.921875 74.21875 44.703125 73.484375 
Q 48.484375 72.75 52.59375 71.296875 
z
" id="DejaVuSans-54"/>
       </defs>
       <use xlink:href="#DejaVuSans-54"/>
      </g>
     </g>
    </g>
    <g id="xtick_5">
     <g id="line2d_9">
      <path clip-path="url(#p56eee8b7c3)" d="M 97.755429 298.944 
L 97.755429 27.648 
" style="fill:none;stroke:#b0b0b0;stroke-linecap:square;stroke-width:0.8;"/>
     </g>
     <g id="line2d_10">
      <defs>
       <path d="M 0 0 
L 0 2 
" id="m3f26754b24" style="stroke:#000000;stroke-width:0.6;"/>
      </defs>
      <g>
       <use style="stroke:#000000;stroke-width:0.6;" x="97.755429" xlink:href="#m3f26754b24" y="298.944"/>
      </g>
     </g>
    </g>
    <g id="xtick_6">
     <g id="line2d_11">
      <path clip-path="url(#p56eee8b7c3)" d="M 178.066286 298.944 
L 178.066286 27.648 
" style="fill:none;stroke:#b0b0b0;stroke-linecap:square;stroke-width:0.8;"/>
     </g>
     <g id="line2d_12">
      <g>
       <use style="stroke:#000000;stroke-width:0.6;" x="178.066286" xlink:href="#m3f26754b24" y="298.944"/>
      </g>
     </g>
    </g>
    <g id="xtick_7">
     <g id="line2d_13">
      <path clip-path="url(#p56eee8b7c3)" d="M 258.377143 298.944 
L 258.377143 27.648 
" style="fill:none;stroke:#b0b0b0;stroke-linecap:square;stroke-width:0.8;"/>
     </g>
     <g id="line2d_14">
      <g>
       <use style="stroke:#000000;stroke-width:0.6;" x="258.377143" xlink:href="#m3f26754b24" y="298.944"/>
      </g>
     </g>
    </g>
    <g id="xtick_8">
     <g id="line2d_15">
      <path clip-path="url(#p56eee8b7c3)" d="M 338.688 298.944 
L 338.688 27.648 
" style="fill:none;stroke:#b0b0b0;stroke-linecap:square;stroke-width:0.8;"/>
     </g>
     <g id="line2d_16">
      <g>
       <use style="stroke:#000000;stroke-width:0.6;" x="338.688" xlink:href="#m3f26754b24" y="298.944"/>
      </g>
     </g>
    </g>
    <g id="text_5">
     <!-- log10(# (f+g)-evals / dimension) -->
     <g transform="translate(58.145016 342.217594)scale(0.17 -0.17)">
      <defs>
       <path d="M 9.421875 75.984375 
L 18.40625 75.984375 
L 18.40625 0 
L 9.421875 0 
z
" id="DejaVuSans-108"/>
       <path d="M 30.609375 48.390625 
Q 23.390625 48.390625 19.1875 42.75 
Q 14.984375 37.109375 14.984375 27.296875 
Q 14.984375 17.484375 19.15625 11.84375 
Q 23.34375 6.203125 30.609375 6.203125 
Q 37.796875 6.203125 41.984375 11.859375 
Q 46.1875 17.53125 46.1875 27.296875 
Q 46.1875 37.015625 41.984375 42.703125 
Q 37.796875 48.390625 30.609375 48.390625 
z
M 30.609375 56 
Q 42.328125 56 49.015625 48.375 
Q 55.71875 40.765625 55.71875 27.296875 
Q 55.71875 13.875 49.015625 6.21875 
Q 42.328125 -1.421875 30.609375 -1.421875 
Q 18.84375 -1.421875 12.171875 6.21875 
Q 5.515625 13.875 5.515625 27.296875 
Q 5.515625 40.765625 12.171875 48.375 
Q 18.84375 56 30.609375 56 
z
" id="DejaVuSans-111"/>
       <path d="M 45.40625 27.984375 
Q 45.40625 37.75 41.375 43.109375 
Q 37.359375 48.484375 30.078125 48.484375 
Q 22.859375 48.484375 18.828125 43.109375 
Q 14.796875 37.75 14.796875 27.984375 
Q 14.796875 18.265625 18.828125 12.890625 
Q 22.859375 7.515625 30.078125 7.515625 
Q 37.359375 7.515625 41.375 12.890625 
Q 45.40625 18.265625 45.40625 27.984375 
z
M 54.390625 6.78125 
Q 54.390625 -7.171875 48.1875 -13.984375 
Q 42 -20.796875 29.203125 -20.796875 
Q 24.46875 -20.796875 20.265625 -20.09375 
Q 16.0625 -19.390625 12.109375 -17.921875 
L 12.109375 -9.1875 
Q 16.0625 -11.328125 19.921875 -12.34375 
Q 23.78125 -13.375 27.78125 -13.375 
Q 36.625 -13.375 41.015625 -8.765625 
Q 45.40625 -4.15625 45.40625 5.171875 
L 45.40625 9.625 
Q 42.625 4.78125 38.28125 2.390625 
Q 33.9375 0 27.875 0 
Q 17.828125 0 11.671875 7.65625 
Q 5.515625 15.328125 5.515625 27.984375 
Q 5.515625 40.671875 11.671875 48.328125 
Q 17.828125 56 27.875 56 
Q 33.9375 56 38.28125 53.609375 
Q 42.625 51.21875 45.40625 46.390625 
L 45.40625 54.6875 
L 54.390625 54.6875 
z
" id="DejaVuSans-103"/>
       <path d="M 12.40625 8.296875 
L 28.515625 8.296875 
L 28.515625 63.921875 
L 10.984375 60.40625 
L 10.984375 69.390625 
L 28.421875 72.90625 
L 38.28125 72.90625 
L 38.28125 8.296875 
L 54.390625 8.296875 
L 54.390625 0 
L 12.40625 0 
z
" id="DejaVuSans-49"/>
       <path d="M 31 75.875 
Q 24.46875 64.65625 21.28125 53.65625 
Q 18.109375 42.671875 18.109375 31.390625 
Q 18.109375 20.125 21.3125 9.0625 
Q 24.515625 -2 31 -13.1875 
L 23.1875 -13.1875 
Q 15.875 -1.703125 12.234375 9.375 
Q 8.59375 20.453125 8.59375 31.390625 
Q 8.59375 42.28125 12.203125 53.3125 
Q 15.828125 64.359375 23.1875 75.875 
z
" id="DejaVuSans-40"/>
       <path d="M 51.125 44 
L 36.921875 44 
L 32.8125 27.6875 
L 47.125 27.6875 
z
M 43.796875 71.78125 
L 38.71875 51.515625 
L 52.984375 51.515625 
L 58.109375 71.78125 
L 65.921875 71.78125 
L 60.890625 51.515625 
L 76.125 51.515625 
L 76.125 44 
L 58.984375 44 
L 54.984375 27.6875 
L 70.515625 27.6875 
L 70.515625 20.21875 
L 53.078125 20.21875 
L 48 0 
L 40.1875 0 
L 45.21875 20.21875 
L 30.90625 20.21875 
L 25.875 0 
L 18.015625 0 
L 23.09375 20.21875 
L 7.71875 20.21875 
L 7.71875 27.6875 
L 24.90625 27.6875 
L 29 44 
L 13.28125 44 
L 13.28125 51.515625 
L 30.90625 51.515625 
L 35.890625 71.78125 
z
" id="DejaVuSans-35"/>
       <path id="DejaVuSans-32"/>
       <path d="M 37.109375 75.984375 
L 37.109375 68.5 
L 28.515625 68.5 
Q 23.6875 68.5 21.796875 66.546875 
Q 19.921875 64.59375 19.921875 59.515625 
L 19.921875 54.6875 
L 34.71875 54.6875 
L 34.71875 47.703125 
L 19.921875 47.703125 
L 19.921875 0 
L 10.890625 0 
L 10.890625 47.703125 
L 2.296875 47.703125 
L 2.296875 54.6875 
L 10.890625 54.6875 
L 10.890625 58.5 
Q 10.890625 67.625 15.140625 71.796875 
Q 19.390625 75.984375 28.609375 75.984375 
z
" id="DejaVuSans-102"/>
       <path d="M 46 62.703125 
L 46 35.5 
L 73.1875 35.5 
L 73.1875 27.203125 
L 46 27.203125 
L 46 0 
L 37.796875 0 
L 37.796875 27.203125 
L 10.59375 27.203125 
L 10.59375 35.5 
L 37.796875 35.5 
L 37.796875 62.703125 
z
" id="DejaVuSans-43"/>
       <path d="M 8.015625 75.875 
L 15.828125 75.875 
Q 23.140625 64.359375 26.78125 53.3125 
Q 30.421875 42.28125 30.421875 31.390625 
Q 30.421875 20.453125 26.78125 9.375 
Q 23.140625 -1.703125 15.828125 -13.1875 
L 8.015625 -13.1875 
Q 14.5 -2 17.703125 9.0625 
Q 20.90625 20.125 20.90625 31.390625 
Q 20.90625 42.671875 17.703125 53.65625 
Q 14.5 64.65625 8.015625 75.875 
z
" id="DejaVuSans-41"/>
       <path d="M 4.890625 31.390625 
L 31.203125 31.390625 
L 31.203125 23.390625 
L 4.890625 23.390625 
z
" id="DejaVuSans-45"/>
       <path d="M 56.203125 29.59375 
L 56.203125 25.203125 
L 14.890625 25.203125 
Q 15.484375 15.921875 20.484375 11.0625 
Q 25.484375 6.203125 34.421875 6.203125 
Q 39.59375 6.203125 44.453125 7.46875 
Q 49.3125 8.734375 54.109375 11.28125 
L 54.109375 2.78125 
Q 49.265625 0.734375 44.1875 -0.34375 
Q 39.109375 -1.421875 33.890625 -1.421875 
Q 20.796875 -1.421875 13.15625 6.1875 
Q 5.515625 13.8125 5.515625 26.8125 
Q 5.515625 40.234375 12.765625 48.109375 
Q 20.015625 56 32.328125 56 
Q 43.359375 56 49.78125 48.890625 
Q 56.203125 41.796875 56.203125 29.59375 
z
M 47.21875 32.234375 
Q 47.125 39.59375 43.09375 43.984375 
Q 39.0625 48.390625 32.421875 48.390625 
Q 24.90625 48.390625 20.390625 44.140625 
Q 15.875 39.890625 15.1875 32.171875 
z
" id="DejaVuSans-101"/>
       <path d="M 2.984375 54.6875 
L 12.5 54.6875 
L 29.59375 8.796875 
L 46.6875 54.6875 
L 56.203125 54.6875 
L 35.6875 0 
L 23.484375 0 
z
" id="DejaVuSans-118"/>
       <path d="M 34.28125 27.484375 
Q 23.390625 27.484375 19.1875 25 
Q 14.984375 22.515625 14.984375 16.5 
Q 14.984375 11.71875 18.140625 8.90625 
Q 21.296875 6.109375 26.703125 6.109375 
Q 34.1875 6.109375 38.703125 11.40625 
Q 43.21875 16.703125 43.21875 25.484375 
L 43.21875 27.484375 
z
M 52.203125 31.203125 
L 52.203125 0 
L 43.21875 0 
L 43.21875 8.296875 
Q 40.140625 3.328125 35.546875 0.953125 
Q 30.953125 -1.421875 24.3125 -1.421875 
Q 15.921875 -1.421875 10.953125 3.296875 
Q 6 8.015625 6 15.921875 
Q 6 25.140625 12.171875 29.828125 
Q 18.359375 34.515625 30.609375 34.515625 
L 43.21875 34.515625 
L 43.21875 35.40625 
Q 43.21875 41.609375 39.140625 45 
Q 35.0625 48.390625 27.6875 48.390625 
Q 23 48.390625 18.546875 47.265625 
Q 14.109375 46.140625 10.015625 43.890625 
L 10.015625 52.203125 
Q 14.9375 54.109375 19.578125 55.046875 
Q 24.21875 56 28.609375 56 
Q 40.484375 56 46.34375 49.84375 
Q 52.203125 43.703125 52.203125 31.203125 
z
" id="DejaVuSans-97"/>
       <path d="M 44.28125 53.078125 
L 44.28125 44.578125 
Q 40.484375 46.53125 36.375 47.5 
Q 32.28125 48.484375 27.875 48.484375 
Q 21.1875 48.484375 17.84375 46.4375 
Q 14.5 44.390625 14.5 40.28125 
Q 14.5 37.15625 16.890625 35.375 
Q 19.28125 33.59375 26.515625 31.984375 
L 29.59375 31.296875 
Q 39.15625 29.25 43.1875 25.515625 
Q 47.21875 21.78125 47.21875 15.09375 
Q 47.21875 7.46875 41.1875 3.015625 
Q 35.15625 -1.421875 24.609375 -1.421875 
Q 20.21875 -1.421875 15.453125 -0.5625 
Q 10.6875 0.296875 5.421875 2 
L 5.421875 11.28125 
Q 10.40625 8.6875 15.234375 7.390625 
Q 20.0625 6.109375 24.8125 6.109375 
Q 31.15625 6.109375 34.5625 8.28125 
Q 37.984375 10.453125 37.984375 14.40625 
Q 37.984375 18.0625 35.515625 20.015625 
Q 33.0625 21.96875 24.703125 23.78125 
L 21.578125 24.515625 
Q 13.234375 26.265625 9.515625 29.90625 
Q 5.8125 33.546875 5.8125 39.890625 
Q 5.8125 47.609375 11.28125 51.796875 
Q 16.75 56 26.8125 56 
Q 31.78125 56 36.171875 55.265625 
Q 40.578125 54.546875 44.28125 53.078125 
z
" id="DejaVuSans-115"/>
       <path d="M 25.390625 72.90625 
L 33.6875 72.90625 
L 8.296875 -9.28125 
L 0 -9.28125 
z
" id="DejaVuSans-47"/>
       <path d="M 45.40625 46.390625 
L 45.40625 75.984375 
L 54.390625 75.984375 
L 54.390625 0 
L 45.40625 0 
L 45.40625 8.203125 
Q 42.578125 3.328125 38.25 0.953125 
Q 33.9375 -1.421875 27.875 -1.421875 
Q 17.96875 -1.421875 11.734375 6.484375 
Q 5.515625 14.40625 5.515625 27.296875 
Q 5.515625 40.1875 11.734375 48.09375 
Q 17.96875 56 27.875 56 
Q 33.9375 56 38.25 53.625 
Q 42.578125 51.265625 45.40625 46.390625 
z
M 14.796875 27.296875 
Q 14.796875 17.390625 18.875 11.75 
Q 22.953125 6.109375 30.078125 6.109375 
Q 37.203125 6.109375 41.296875 11.75 
Q 45.40625 17.390625 45.40625 27.296875 
Q 45.40625 37.203125 41.296875 42.84375 
Q 37.203125 48.484375 30.078125 48.484375 
Q 22.953125 48.484375 18.875 42.84375 
Q 14.796875 37.203125 14.796875 27.296875 
z
" id="DejaVuSans-100"/>
       <path d="M 9.421875 54.6875 
L 18.40625 54.6875 
L 18.40625 0 
L 9.421875 0 
z
M 9.421875 75.984375 
L 18.40625 75.984375 
L 18.40625 64.59375 
L 9.421875 64.59375 
z
" id="DejaVuSans-105"/>
       <path d="M 52 44.1875 
Q 55.375 50.25 60.0625 53.125 
Q 64.75 56 71.09375 56 
Q 79.640625 56 84.28125 50.015625 
Q 88.921875 44.046875 88.921875 33.015625 
L 88.921875 0 
L 79.890625 0 
L 79.890625 32.71875 
Q 79.890625 40.578125 77.09375 44.375 
Q 74.3125 48.1875 68.609375 48.1875 
Q 61.625 48.1875 57.5625 43.546875 
Q 53.515625 38.921875 53.515625 30.90625 
L 53.515625 0 
L 44.484375 0 
L 44.484375 32.71875 
Q 44.484375 40.625 41.703125 44.40625 
Q 38.921875 48.1875 33.109375 48.1875 
Q 26.21875 48.1875 22.15625 43.53125 
Q 18.109375 38.875 18.109375 30.90625 
L 18.109375 0 
L 9.078125 0 
L 9.078125 54.6875 
L 18.109375 54.6875 
L 18.109375 46.1875 
Q 21.1875 51.21875 25.484375 53.609375 
Q 29.78125 56 35.6875 56 
Q 41.65625 56 45.828125 52.96875 
Q 50 49.953125 52 44.1875 
z
" id="DejaVuSans-109"/>
       <path d="M 54.890625 33.015625 
L 54.890625 0 
L 45.90625 0 
L 45.90625 32.71875 
Q 45.90625 40.484375 42.875 44.328125 
Q 39.84375 48.1875 33.796875 48.1875 
Q 26.515625 48.1875 22.3125 43.546875 
Q 18.109375 38.921875 18.109375 30.90625 
L 18.109375 0 
L 9.078125 0 
L 9.078125 54.6875 
L 18.109375 54.6875 
L 18.109375 46.1875 
Q 21.34375 51.125 25.703125 53.5625 
Q 30.078125 56 35.796875 56 
Q 45.21875 56 50.046875 50.171875 
Q 54.890625 44.34375 54.890625 33.015625 
z
" id="DejaVuSans-110"/>
      </defs>
      <use xlink:href="#DejaVuSans-108"/>
      <use x="27.783203" xlink:href="#DejaVuSans-111"/>
      <use x="88.964844" xlink:href="#DejaVuSans-103"/>
      <use x="152.441406" xlink:href="#DejaVuSans-49"/>
      <use x="216.064453" xlink:href="#DejaVuSans-48"/>
      <use x="279.6875" xlink:href="#DejaVuSans-40"/>
      <use x="318.701172" xlink:href="#DejaVuSans-35"/>
      <use x="402.490234" xlink:href="#DejaVuSans-32"/>
      <use x="434.277344" xlink:href="#DejaVuSans-40"/>
      <use x="473.291016" xlink:href="#DejaVuSans-102"/>
      <use x="508.496094" xlink:href="#DejaVuSans-43"/>
      <use x="592.285156" xlink:href="#DejaVuSans-103"/>
      <use x="655.761719" xlink:href="#DejaVuSans-41"/>
      <use x="694.775391" xlink:href="#DejaVuSans-45"/>
      <use x="730.859375" xlink:href="#DejaVuSans-101"/>
      <use x="792.382812" xlink:href="#DejaVuSans-118"/>
      <use x="851.5625" xlink:href="#DejaVuSans-97"/>
      <use x="912.841797" xlink:href="#DejaVuSans-108"/>
      <use x="940.625" xlink:href="#DejaVuSans-115"/>
      <use x="992.724609" xlink:href="#DejaVuSans-32"/>
      <use x="1024.511719" xlink:href="#DejaVuSans-47"/>
      <use x="1058.203125" xlink:href="#DejaVuSans-32"/>
      <use x="1089.990234" xlink:href="#DejaVuSans-100"/>
      <use x="1153.466797" xlink:href="#DejaVuSans-105"/>
      <use x="1181.25" xlink:href="#DejaVuSans-109"/>
      <use x="1278.662109" xlink:href="#DejaVuSans-101"/>
      <use x="1340.185547" xlink:href="#DejaVuSans-110"/>
      <use x="1403.564453" xlink:href="#DejaVuSans-115"/>
      <use x="1455.664062" xlink:href="#DejaVuSans-105"/>
      <use x="1483.447266" xlink:href="#DejaVuSans-111"/>
      <use x="1544.628906" xlink:href="#DejaVuSans-110"/>
      <use x="1608.007812" xlink:href="#DejaVuSans-41"/>
     </g>
    </g>
   </g>
   <g id="matplotlib.axis_2">
    <g id="ytick_1">
     <g id="line2d_17">
      <path clip-path="url(#p56eee8b7c3)" d="M 57.6 298.944 
L 338.688 298.944 
" style="fill:none;stroke:#b0b0b0;stroke-linecap:square;stroke-width:0.8;"/>
     </g>
     <g id="line2d_18">
      <defs>
       <path d="M 0 0 
L -3.5 0 
" id="m2580003ea4" style="stroke:#000000;stroke-width:0.8;"/>
      </defs>
      <g>
       <use style="stroke:#000000;stroke-width:0.8;" x="57.6" xlink:href="#m2580003ea4" y="298.944"/>
      </g>
     </g>
     <g id="text_6">
      <!-- 0.0 -->
      <g transform="translate(25.155 305.02275)scale(0.16 -0.16)">
       <defs>
        <path d="M 10.6875 12.40625 
L 21 12.40625 
L 21 0 
L 10.6875 0 
z
" id="DejaVuSans-46"/>
       </defs>
       <use xlink:href="#DejaVuSans-48"/>
       <use x="63.623047" xlink:href="#DejaVuSans-46"/>
       <use x="95.410156" xlink:href="#DejaVuSans-48"/>
      </g>
     </g>
    </g>
    <g id="ytick_2">
     <g id="line2d_19">
      <path clip-path="url(#p56eee8b7c3)" d="M 57.6 245.22202 
L 338.688 245.22202 
" style="fill:none;stroke:#b0b0b0;stroke-linecap:square;stroke-width:0.8;"/>
     </g>
     <g id="line2d_20">
      <g>
       <use style="stroke:#000000;stroke-width:0.8;" x="57.6" xlink:href="#m2580003ea4" y="245.22202"/>
      </g>
     </g>
     <g id="text_7">
      <!-- 0.2 -->
      <g transform="translate(25.155 251.30077)scale(0.16 -0.16)">
       <use xlink:href="#DejaVuSans-48"/>
       <use x="63.623047" xlink:href="#DejaVuSans-46"/>
       <use x="95.410156" xlink:href="#DejaVuSans-50"/>
      </g>
     </g>
    </g>
    <g id="ytick_3">
     <g id="line2d_21">
      <path clip-path="url(#p56eee8b7c3)" d="M 57.6 191.50004 
L 338.688 191.50004 
" style="fill:none;stroke:#b0b0b0;stroke-linecap:square;stroke-width:0.8;"/>
     </g>
     <g id="line2d_22">
      <g>
       <use style="stroke:#000000;stroke-width:0.8;" x="57.6" xlink:href="#m2580003ea4" y="191.50004"/>
      </g>
     </g>
     <g id="text_8">
      <!-- 0.4 -->
      <g transform="translate(25.155 197.57879)scale(0.16 -0.16)">
       <use xlink:href="#DejaVuSans-48"/>
       <use x="63.623047" xlink:href="#DejaVuSans-46"/>
       <use x="95.410156" xlink:href="#DejaVuSans-52"/>
      </g>
     </g>
    </g>
    <g id="ytick_4">
     <g id="line2d_23">
      <path clip-path="url(#p56eee8b7c3)" d="M 57.6 137.778059 
L 338.688 137.778059 
" style="fill:none;stroke:#b0b0b0;stroke-linecap:square;stroke-width:0.8;"/>
     </g>
     <g id="line2d_24">
      <g>
       <use style="stroke:#000000;stroke-width:0.8;" x="57.6" xlink:href="#m2580003ea4" y="137.778059"/>
      </g>
     </g>
     <g id="text_9">
      <!-- 0.6 -->
      <g transform="translate(25.155 143.856809)scale(0.16 -0.16)">
       <use xlink:href="#DejaVuSans-48"/>
       <use x="63.623047" xlink:href="#DejaVuSans-46"/>
       <use x="95.410156" xlink:href="#DejaVuSans-54"/>
      </g>
     </g>
    </g>
    <g id="ytick_5">
     <g id="line2d_25">
      <path clip-path="url(#p56eee8b7c3)" d="M 57.6 84.056079 
L 338.688 84.056079 
" style="fill:none;stroke:#b0b0b0;stroke-linecap:square;stroke-width:0.8;"/>
     </g>
     <g id="line2d_26">
      <g>
       <use style="stroke:#000000;stroke-width:0.8;" x="57.6" xlink:href="#m2580003ea4" y="84.056079"/>
      </g>
     </g>
     <g id="text_10">
      <!-- 0.8 -->
      <g transform="translate(25.155 90.134829)scale(0.16 -0.16)">
       <defs>
        <path d="M 31.78125 34.625 
Q 24.75 34.625 20.71875 30.859375 
Q 16.703125 27.09375 16.703125 20.515625 
Q 16.703125 13.921875 20.71875 10.15625 
Q 24.75 6.390625 31.78125 6.390625 
Q 38.8125 6.390625 42.859375 10.171875 
Q 46.921875 13.96875 46.921875 20.515625 
Q 46.921875 27.09375 42.890625 30.859375 
Q 38.875 34.625 31.78125 34.625 
z
M 21.921875 38.8125 
Q 15.578125 40.375 12.03125 44.71875 
Q 8.5 49.078125 8.5 55.328125 
Q 8.5 64.0625 14.71875 69.140625 
Q 20.953125 74.21875 31.78125 74.21875 
Q 42.671875 74.21875 48.875 69.140625 
Q 55.078125 64.0625 55.078125 55.328125 
Q 55.078125 49.078125 51.53125 44.71875 
Q 48 40.375 41.703125 38.8125 
Q 48.828125 37.15625 52.796875 32.3125 
Q 56.78125 27.484375 56.78125 20.515625 
Q 56.78125 9.90625 50.3125 4.234375 
Q 43.84375 -1.421875 31.78125 -1.421875 
Q 19.734375 -1.421875 13.25 4.234375 
Q 6.78125 9.90625 6.78125 20.515625 
Q 6.78125 27.484375 10.78125 32.3125 
Q 14.796875 37.15625 21.921875 38.8125 
z
M 18.3125 54.390625 
Q 18.3125 48.734375 21.84375 45.5625 
Q 25.390625 42.390625 31.78125 42.390625 
Q 38.140625 42.390625 41.71875 45.5625 
Q 45.3125 48.734375 45.3125 54.390625 
Q 45.3125 60.0625 41.71875 63.234375 
Q 38.140625 66.40625 31.78125 66.40625 
Q 25.390625 66.40625 21.84375 63.234375 
Q 18.3125 60.0625 18.3125 54.390625 
z
" id="DejaVuSans-56"/>
       </defs>
       <use xlink:href="#DejaVuSans-48"/>
       <use x="63.623047" xlink:href="#DejaVuSans-46"/>
       <use x="95.410156" xlink:href="#DejaVuSans-56"/>
      </g>
     </g>
    </g>
    <g id="ytick_6">
     <g id="line2d_27">
      <path clip-path="url(#p56eee8b7c3)" d="M 57.6 30.334099 
L 338.688 30.334099 
" style="fill:none;stroke:#b0b0b0;stroke-linecap:square;stroke-width:0.8;"/>
     </g>
     <g id="line2d_28">
      <g>
       <use style="stroke:#000000;stroke-width:0.8;" x="57.6" xlink:href="#m2580003ea4" y="30.334099"/>
      </g>
     </g>
     <g id="text_11">
      <!-- 1.0 -->
      <g transform="translate(25.155 36.412849)scale(0.16 -0.16)">
       <use xlink:href="#DejaVuSans-49"/>
       <use x="63.623047" xlink:href="#DejaVuSans-46"/>
       <use x="95.410156" xlink:href="#DejaVuSans-48"/>
      </g>
     </g>
    </g>
    <g id="text_12">
     <!-- Fraction of function,target pairs -->
     <g transform="translate(17.619531 297.681)rotate(-90)scale(0.17 -0.17)">
      <defs>
       <path d="M 9.8125 72.90625 
L 51.703125 72.90625 
L 51.703125 64.59375 
L 19.671875 64.59375 
L 19.671875 43.109375 
L 48.578125 43.109375 
L 48.578125 34.8125 
L 19.671875 34.8125 
L 19.671875 0 
L 9.8125 0 
z
" id="DejaVuSans-70"/>
       <path d="M 41.109375 46.296875 
Q 39.59375 47.171875 37.8125 47.578125 
Q 36.03125 48 33.890625 48 
Q 26.265625 48 22.1875 43.046875 
Q 18.109375 38.09375 18.109375 28.8125 
L 18.109375 0 
L 9.078125 0 
L 9.078125 54.6875 
L 18.109375 54.6875 
L 18.109375 46.1875 
Q 20.953125 51.171875 25.484375 53.578125 
Q 30.03125 56 36.53125 56 
Q 37.453125 56 38.578125 55.875 
Q 39.703125 55.765625 41.0625 55.515625 
z
" id="DejaVuSans-114"/>
       <path d="M 48.78125 52.59375 
L 48.78125 44.1875 
Q 44.96875 46.296875 41.140625 47.34375 
Q 37.3125 48.390625 33.40625 48.390625 
Q 24.65625 48.390625 19.8125 42.84375 
Q 14.984375 37.3125 14.984375 27.296875 
Q 14.984375 17.28125 19.8125 11.734375 
Q 24.65625 6.203125 33.40625 6.203125 
Q 37.3125 6.203125 41.140625 7.25 
Q 44.96875 8.296875 48.78125 10.40625 
L 48.78125 2.09375 
Q 45.015625 0.34375 40.984375 -0.53125 
Q 36.96875 -1.421875 32.421875 -1.421875 
Q 20.0625 -1.421875 12.78125 6.34375 
Q 5.515625 14.109375 5.515625 27.296875 
Q 5.515625 40.671875 12.859375 48.328125 
Q 20.21875 56 33.015625 56 
Q 37.15625 56 41.109375 55.140625 
Q 45.0625 54.296875 48.78125 52.59375 
z
" id="DejaVuSans-99"/>
       <path d="M 18.3125 70.21875 
L 18.3125 54.6875 
L 36.8125 54.6875 
L 36.8125 47.703125 
L 18.3125 47.703125 
L 18.3125 18.015625 
Q 18.3125 11.328125 20.140625 9.421875 
Q 21.96875 7.515625 27.59375 7.515625 
L 36.8125 7.515625 
L 36.8125 0 
L 27.59375 0 
Q 17.1875 0 13.234375 3.875 
Q 9.28125 7.765625 9.28125 18.015625 
L 9.28125 47.703125 
L 2.6875 47.703125 
L 2.6875 54.6875 
L 9.28125 54.6875 
L 9.28125 70.21875 
z
" id="DejaVuSans-116"/>
       <path d="M 8.5 21.578125 
L 8.5 54.6875 
L 17.484375 54.6875 
L 17.484375 21.921875 
Q 17.484375 14.15625 20.5 10.265625 
Q 23.53125 6.390625 29.59375 6.390625 
Q 36.859375 6.390625 41.078125 11.03125 
Q 45.3125 15.671875 45.3125 23.6875 
L 45.3125 54.6875 
L 54.296875 54.6875 
L 54.296875 0 
L 45.3125 0 
L 45.3125 8.40625 
Q 42.046875 3.421875 37.71875 1 
Q 33.40625 -1.421875 27.6875 -1.421875 
Q 18.265625 -1.421875 13.375 4.4375 
Q 8.5 10.296875 8.5 21.578125 
z
M 31.109375 56 
z
" id="DejaVuSans-117"/>
       <path d="M 11.71875 12.40625 
L 22.015625 12.40625 
L 22.015625 4 
L 14.015625 -11.625 
L 7.71875 -11.625 
L 11.71875 4 
z
" id="DejaVuSans-44"/>
       <path d="M 18.109375 8.203125 
L 18.109375 -20.796875 
L 9.078125 -20.796875 
L 9.078125 54.6875 
L 18.109375 54.6875 
L 18.109375 46.390625 
Q 20.953125 51.265625 25.265625 53.625 
Q 29.59375 56 35.59375 56 
Q 45.5625 56 51.78125 48.09375 
Q 58.015625 40.1875 58.015625 27.296875 
Q 58.015625 14.40625 51.78125 6.484375 
Q 45.5625 -1.421875 35.59375 -1.421875 
Q 29.59375 -1.421875 25.265625 0.953125 
Q 20.953125 3.328125 18.109375 8.203125 
z
M 48.6875 27.296875 
Q 48.6875 37.203125 44.609375 42.84375 
Q 40.53125 48.484375 33.40625 48.484375 
Q 26.265625 48.484375 22.1875 42.84375 
Q 18.109375 37.203125 18.109375 27.296875 
Q 18.109375 17.390625 22.1875 11.75 
Q 26.265625 6.109375 33.40625 6.109375 
Q 40.53125 6.109375 44.609375 11.75 
Q 48.6875 17.390625 48.6875 27.296875 
z
" id="DejaVuSans-112"/>
      </defs>
      <use xlink:href="#DejaVuSans-70"/>
      <use x="50.269531" xlink:href="#DejaVuSans-114"/>
      <use x="91.382812" xlink:href="#DejaVuSans-97"/>
      <use x="152.662109" xlink:href="#DejaVuSans-99"/>
      <use x="207.642578" xlink:href="#DejaVuSans-116"/>
      <use x="246.851562" xlink:href="#DejaVuSans-105"/>
      <use x="274.634766" xlink:href="#DejaVuSans-111"/>
      <use x="335.816406" xlink:href="#DejaVuSans-110"/>
      <use x="399.195312" xlink:href="#DejaVuSans-32"/>
      <use x="430.982422" xlink:href="#DejaVuSans-111"/>
      <use x="492.164062" xlink:href="#DejaVuSans-102"/>
      <use x="527.369141" xlink:href="#DejaVuSans-32"/>
      <use x="559.15625" xlink:href="#DejaVuSans-102"/>
      <use x="594.361328" xlink:href="#DejaVuSans-117"/>
      <use x="657.740234" xlink:href="#DejaVuSans-110"/>
      <use x="721.119141" xlink:href="#DejaVuSans-99"/>
      <use x="776.099609" xlink:href="#DejaVuSans-116"/>
      <use x="815.308594" xlink:href="#DejaVuSans-105"/>
      <use x="843.091797" xlink:href="#DejaVuSans-111"/>
      <use x="904.273438" xlink:href="#DejaVuSans-110"/>
      <use x="967.652344" xlink:href="#DejaVuSans-44"/>
      <use x="999.439453" xlink:href="#DejaVuSans-116"/>
      <use x="1038.648438" xlink:href="#DejaVuSans-97"/>
      <use x="1099.927734" xlink:href="#DejaVuSans-114"/>
      <use x="1139.291016" xlink:href="#DejaVuSans-103"/>
      <use x="1202.767578" xlink:href="#DejaVuSans-101"/>
      <use x="1264.291016" xlink:href="#DejaVuSans-116"/>
      <use x="1303.5" xlink:href="#DejaVuSans-32"/>
      <use x="1335.287109" xlink:href="#DejaVuSans-112"/>
      <use x="1398.763672" xlink:href="#DejaVuSans-97"/>
      <use x="1460.042969" xlink:href="#DejaVuSans-105"/>
      <use x="1487.826172" xlink:href="#DejaVuSans-114"/>
      <use x="1528.939453" xlink:href="#DejaVuSans-115"/>
     </g>
    </g>
   </g>
   <g id="line2d_29">
    <defs>
     <path d="M 0 1.5 
C 0.397805 1.5 0.77937 1.341951 1.06066 1.06066 
C 1.341951 0.77937 1.5 0.397805 1.5 0 
C 1.5 -0.397805 1.341951 -0.77937 1.06066 -1.06066 
C 0.77937 -1.341951 0.397805 -1.5 0 -1.5 
C -0.397805 -1.5 -0.77937 -1.341951 -1.06066 -1.06066 
C -1.341951 -0.77937 -1.5 -0.397805 -1.5 0 
C -1.5 0.397805 -1.341951 0.77937 -1.06066 1.06066 
C -0.77937 1.341951 -0.397805 1.5 0 1.5 
z
" id="m7f4d15214d" style="stroke:#000080;"/>
    </defs>
    <g>
     <use style="fill:#000080;stroke:#000080;" x="311.908686" xlink:href="#m7f4d15214d" y="30.334099"/>
     <use style="fill:#000080;stroke:#000080;" x="311.908686" xlink:href="#m7f4d15214d" y="30.334099"/>
    </g>
   </g>
   <g id="line2d_30">
    <path d="M 111.185562 298.944 
L 111.185562 298.288854 
L 114.947365 298.288854 
L 114.947365 297.633708 
L 120.093994 297.633708 
L 120.093994 296.978562 
L 121.756135 296.978562 
L 121.756135 295.66827 
L 122.615387 295.66827 
L 122.615387 295.013123 
L 123.593547 295.013123 
L 123.593547 294.357977 
L 123.907776 294.357977 
L 123.907776 293.702831 
L 124.669438 293.702831 
L 124.669438 293.047685 
L 125.682793 293.047685 
L 125.682793 290.427101 
L 126.50685 290.427101 
L 126.50685 289.116809 
L 130.018593 289.116809 
L 130.018593 288.461662 
L 130.45189 288.461662 
L 130.45189 287.806516 
L 132.181982 287.806516 
L 132.181982 287.15137 
L 133.844123 287.15137 
L 133.844123 285.841078 
L 134.106373 285.841078 
L 134.106373 285.185932 
L 134.703375 285.185932 
L 134.703375 284.530786 
L 136.073445 284.530786 
L 136.150782 283.220494 
L 138.794909 283.220494 
L 138.794909 282.565348 
L 141.435758 282.565348 
L 141.435758 281.910201 
L 142.270332 281.910201 
L 142.324576 280.599909 
L 143.628567 280.599909 
L 143.628567 279.944763 
L 144.55823 279.944763 
L 144.55823 279.289617 
L 145.212864 279.289617 
L 145.212864 278.634471 
L 145.531191 278.634471 
L 145.531191 277.979325 
L 148.23877 277.979325 
L 148.23877 277.324179 
L 148.354135 277.324179 
L 148.354135 276.669033 
L 148.54473 276.669033 
L 148.54473 276.013887 
L 148.845415 276.013887 
L 148.845415 275.35874 
L 151.818809 275.35874 
L 151.818809 274.703594 
L 152.466496 274.703594 
L 152.466496 274.048448 
L 172.176814 274.048448 
L 172.176814 273.393302 
L 172.380955 273.393302 
L 172.380955 272.738156 
L 173.202112 272.738156 
L 173.202112 272.08301 
L 173.693007 272.08301 
L 173.773496 270.772718 
L 173.87137 270.772718 
L 173.87137 270.117572 
L 174.144277 270.117572 
L 174.144277 269.462426 
L 175.38324 269.462426 
L 175.464409 267.496987 
L 176.379363 267.496987 
L 176.387046 266.186695 
L 176.901672 266.186695 
L 176.968661 264.876403 
L 186.284597 264.876403 
L 186.284597 264.221257 
L 193.250797 264.221257 
L 193.250797 263.566111 
L 193.614942 263.566111 
L 193.614942 262.910965 
L 198.963368 262.910965 
L 198.963368 262.255818 
L 200.016904 262.255818 
L 200.016904 261.600672 
L 201.792688 261.600672 
L 201.792688 260.945526 
L 202.104824 260.945526 
L 202.104824 260.29038 
L 206.985256 260.29038 
L 206.985256 259.635234 
L 212.71522 259.635234 
L 212.71522 258.980088 
L 213.611986 258.980088 
L 213.611986 258.324942 
L 218.956597 258.324942 
L 218.956597 257.669796 
L 219.110407 257.669796 
L 219.110407 257.01465 
L 229.018789 257.01465 
L 229.106454 251.118335 
L 229.14453 251.118335 
L 229.212635 249.152896 
L 229.274554 249.152896 
L 229.274554 247.187458 
L 229.595071 247.187458 
L 229.697243 243.256582 
L 229.751347 243.256582 
L 229.751347 242.601435 
L 229.887306 242.601435 
L 229.887306 240.635997 
L 234.3224 240.635997 
L 234.429445 238.670559 
L 237.914371 238.670559 
L 237.914371 238.015413 
L 239.97347 238.015413 
L 239.9949 236.705121 
L 242.905047 236.705121 
L 242.905047 236.049974 
L 243.946267 236.049974 
L 243.977037 234.084536 
L 244.134424 234.084536 
L 244.211527 232.119098 
L 244.280386 232.119098 
L 244.280386 231.463952 
L 244.710702 231.463952 
L 244.710702 230.808806 
L 246.059614 230.808806 
L 246.153087 228.843367 
L 246.269332 228.843367 
L 246.355298 227.533075 
L 246.39105 227.533075 
L 246.419253 226.222783 
L 247.464443 226.222783 
L 247.466139 224.912491 
L 247.687982 224.912491 
L 247.755964 223.602199 
L 248.087234 223.602199 
L 248.087234 222.947052 
L 248.325277 222.947052 
L 248.325277 222.291906 
L 249.49665 222.291906 
L 249.49665 221.63676 
L 251.059841 221.63676 
L 251.059841 220.981614 
L 251.809294 220.981614 
L 251.902267 217.050738 
L 251.928387 217.050738 
L 251.960012 215.740445 
L 252.047876 215.740445 
L 252.113385 213.119861 
L 252.308943 213.119861 
L 252.351666 211.809569 
L 253.237904 211.809569 
L 253.278554 209.84413 
L 253.548981 209.84413 
L 253.548981 209.188984 
L 254.728093 209.188984 
L 254.728093 208.533838 
L 255.124369 208.533838 
L 255.124369 207.878692 
L 255.545597 207.878692 
L 255.646682 205.258108 
L 255.995075 205.258108 
L 255.995075 204.602962 
L 256.436574 204.602962 
L 256.436574 203.947816 
L 256.969823 203.947816 
L 256.969823 203.292669 
L 257.295705 203.292669 
L 257.337774 201.327231 
L 257.424262 201.327231 
L 257.521792 200.016939 
L 258.280296 200.016939 
L 258.355051 197.396355 
L 258.482714 197.396355 
L 258.482714 196.741208 
L 259.351307 196.741208 
L 259.439611 195.430916 
L 259.601759 195.430916 
L 259.601759 194.77577 
L 260.064853 194.77577 
L 260.145592 193.465478 
L 260.845823 193.465478 
L 260.845823 192.810332 
L 260.988828 192.810332 
L 260.988828 192.155186 
L 261.413401 192.155186 
L 261.426642 190.844894 
L 261.578021 190.844894 
L 261.58371 189.534601 
L 262.199689 189.534601 
L 262.296932 187.569163 
L 262.336807 187.569163 
L 262.336807 186.914017 
L 262.840158 186.914017 
L 262.840158 186.258871 
L 262.963262 186.258871 
L 262.963262 185.603725 
L 263.122421 185.603725 
L 263.122421 184.948579 
L 263.305872 184.948579 
L 263.305872 184.293433 
L 263.557836 184.293433 
L 263.642629 182.98314 
L 264.175905 182.98314 
L 264.27032 181.672848 
L 264.323625 181.672848 
L 264.38873 179.70741 
L 264.760945 179.70741 
L 264.864664 177.086825 
L 264.924238 177.086825 
L 265.010287 175.121387 
L 265.062545 175.121387 
L 265.093351 173.811095 
L 265.450093 173.811095 
L 265.450093 173.155949 
L 265.915473 173.155949 
L 265.915473 172.500803 
L 266.192874 172.500803 
L 266.192874 171.845657 
L 266.509942 171.845657 
L 266.568327 170.535364 
L 267.029728 170.535364 
L 267.029728 169.880218 
L 267.23315 169.880218 
L 267.308551 168.569926 
L 267.736036 168.569926 
L 267.736036 167.91478 
L 268.147398 167.91478 
L 268.251933 166.604488 
L 268.259257 166.604488 
L 268.30967 165.294196 
L 268.76018 165.294196 
L 268.85907 163.328757 
L 269.418005 163.328757 
L 269.418005 162.673611 
L 269.613553 162.673611 
L 269.673732 160.708173 
L 269.892094 160.708173 
L 269.970708 159.397881 
L 270.012049 159.397881 
L 270.075472 158.087589 
L 270.527122 158.087589 
L 270.617615 156.12215 
L 270.838646 156.12215 
L 270.838646 155.467004 
L 271.029681 155.467004 
L 271.091989 154.156712 
L 271.306261 154.156712 
L 271.366647 152.84642 
L 272.226552 152.84642 
L 272.254809 151.536128 
L 272.577387 151.536128 
L 272.629283 149.570689 
L 273.129151 149.570689 
L 273.129151 148.915543 
L 273.323467 148.915543 
L 273.323467 148.260397 
L 273.639543 148.260397 
L 273.691334 146.950105 
L 273.802366 146.950105 
L 273.804727 145.639813 
L 274.003548 145.639813 
L 274.068389 144.32952 
L 274.139589 144.32952 
L 274.164757 143.019228 
L 274.409001 143.019228 
L 274.459489 141.05379 
L 274.901352 141.05379 
L 274.901352 140.398644 
L 275.112879 140.398644 
L 275.207566 138.433206 
L 275.384696 138.433206 
L 275.427495 137.122913 
L 275.868864 137.122913 
L 275.903433 135.812621 
L 276.089086 135.812621 
L 276.089086 135.157475 
L 276.219014 135.157475 
L 276.219014 134.502329 
L 276.427553 134.502329 
L 276.519634 133.192037 
L 276.737487 133.192037 
L 276.827055 131.881745 
L 277.291491 131.881745 
L 277.401666 128.606014 
L 277.665558 128.606014 
L 277.665558 127.950868 
L 277.846444 127.950868 
L 277.846444 127.295722 
L 278.013182 127.295722 
L 278.112021 125.98543 
L 278.128178 125.98543 
L 278.228939 124.019991 
L 278.73973 124.019991 
L 278.831309 122.709699 
L 279.11024 122.709699 
L 279.11024 122.054553 
L 279.269205 122.054553 
L 279.340523 120.089115 
L 279.405691 120.089115 
L 279.405691 119.433969 
L 279.554896 119.433969 
L 279.554896 118.778823 
L 279.839578 118.778823 
L 279.870776 117.46853 
L 280.012065 117.46853 
L 280.012065 116.813384 
L 280.573054 116.813384 
L 280.574051 115.503092 
L 280.828187 115.503092 
L 280.876827 114.1928 
L 281.172474 114.1928 
L 281.172474 113.537654 
L 281.555322 113.537654 
L 281.555322 112.882508 
L 281.903321 112.882508 
L 281.953408 111.572215 
L 282.03587 111.572215 
L 282.03587 110.917069 
L 282.230216 110.917069 
L 282.287637 109.606777 
L 282.455747 109.606777 
L 282.502228 107.641339 
L 282.632488 107.641339 
L 282.683072 106.331047 
L 282.898241 106.331047 
L 282.957801 105.020754 
L 283.197415 105.020754 
L 283.197415 104.365608 
L 283.339415 104.365608 
L 283.39842 102.40017 
L 283.715761 102.40017 
L 283.798581 100.434732 
L 283.978339 100.434732 
L 283.978339 99.779586 
L 284.120618 99.779586 
L 284.209703 98.469293 
L 284.249804 98.469293 
L 284.249804 97.814147 
L 284.397324 97.814147 
L 284.397324 97.159001 
L 284.565173 97.159001 
L 284.582677 95.848709 
L 285.082765 95.848709 
L 285.082765 95.193563 
L 285.205729 95.193563 
L 285.223178 93.883271 
L 285.465188 93.883271 
L 285.561949 92.572979 
L 285.660861 92.572979 
L 285.660861 91.917832 
L 285.922232 91.917832 
L 285.959576 89.952394 
L 286.060964 89.952394 
L 286.060964 89.297248 
L 286.30275 89.297248 
L 286.30275 88.642102 
L 286.427484 88.642102 
L 286.427484 87.986956 
L 287.005242 87.986956 
L 287.033314 86.676664 
L 287.406995 86.676664 
L 287.406995 86.021518 
L 287.648274 86.021518 
L 287.739106 84.711225 
L 287.770586 84.711225 
L 287.838562 83.400933 
L 287.916759 83.400933 
L 287.926668 82.090641 
L 288.075083 82.090641 
L 288.075083 81.435495 
L 288.466448 81.435495 
L 288.551891 80.125203 
L 288.828293 80.125203 
L 288.828293 79.470057 
L 289.072157 79.470057 
L 289.159676 77.504618 
L 289.186622 77.504618 
L 289.193922 76.194326 
L 289.322166 76.194326 
L 289.425019 74.228888 
L 289.609019 74.228888 
L 289.609019 73.573742 
L 289.836806 73.573742 
L 289.89419 71.608303 
L 290.102448 71.608303 
L 290.102448 70.953157 
L 290.247599 70.953157 
L 290.247599 70.298011 
L 290.383122 70.298011 
L 290.492602 68.332573 
L 290.61643 68.332573 
L 290.61643 67.677427 
L 291.030445 67.677427 
L 291.050822 65.711988 
L 291.146696 65.711988 
L 291.146696 65.056842 
L 291.848433 65.056842 
L 291.848433 64.401696 
L 292.040973 64.401696 
L 292.040973 63.74655 
L 292.32474 63.74655 
L 292.32474 63.091404 
L 292.491867 63.091404 
L 292.491867 62.436258 
L 292.891341 62.436258 
L 292.891341 61.781112 
L 293.039105 61.781112 
L 293.039105 61.125966 
L 293.28677 61.125966 
L 293.28677 60.47082 
L 293.543808 60.47082 
L 293.640776 59.160527 
L 293.71158 59.160527 
L 293.780852 57.850235 
L 293.911281 57.850235 
L 293.911281 57.195089 
L 294.421863 57.195089 
L 294.421863 56.539943 
L 294.800773 56.539943 
L 294.864167 55.229651 
L 295.364338 55.229651 
L 295.434954 53.919359 
L 295.569869 53.919359 
L 295.569869 53.264213 
L 295.935873 53.264213 
L 295.935873 52.609066 
L 296.117186 52.609066 
L 296.218093 51.298774 
L 296.532313 51.298774 
L 296.532313 50.643628 
L 296.74988 50.643628 
L 296.74988 49.988482 
L 296.961433 49.988482 
L 296.961433 49.333336 
L 297.136531 49.333336 
L 297.136531 48.67819 
L 297.323317 48.67819 
L 297.323317 48.023044 
L 297.488142 48.023044 
L 297.571157 46.712752 
L 297.854414 46.712752 
L 297.945587 44.747313 
L 298.365384 44.747313 
L 298.365384 44.092167 
L 298.589912 44.092167 
L 298.589912 43.437021 
L 299.010801 43.437021 
L 299.010801 42.781875 
L 299.357275 42.781875 
L 299.357275 42.126729 
L 299.518912 42.126729 
L 299.518912 41.471583 
L 300.061735 41.471583 
L 300.156094 40.161291 
L 300.412163 40.161291 
L 300.412163 39.506144 
L 301.25796 39.506144 
L 301.25796 38.850998 
L 303.009531 38.850998 
L 303.045746 37.540706 
L 303.348186 37.540706 
L 303.348186 36.88556 
L 303.531532 36.88556 
L 303.531532 36.230414 
L 304.002403 36.230414 
L 304.002403 35.575268 
L 304.975468 35.575268 
L 304.975468 34.920122 
L 305.593613 34.920122 
L 305.593613 34.264976 
L 305.839523 34.264976 
L 305.839523 33.60983 
L 307.379672 33.60983 
L 307.379672 32.954683 
L 308.58733 32.954683 
L 308.58733 32.299537 
L 308.917434 32.299537 
L 308.917434 31.644391 
L 311.569371 31.644391 
L 311.569371 30.989245 
L 311.908686 30.989245 
L 311.908686 30.334099 
L 338.688 30.334099 
L 338.688 30.334099 
" style="fill:none;stroke:#000080;stroke-linecap:square;stroke-width:1.5;"/>
   </g>
   <g id="line2d_31">
    <defs>
     <path d="M 0 6 
C 1.591219 6 3.117479 5.367802 4.242641 4.242641 
C 5.367802 3.117479 6 1.591219 6 0 
C 6 -1.591219 5.367802 -3.117479 4.242641 -4.242641 
C 3.117479 -5.367802 1.591219 -6 0 -6 
C -1.591219 -6 -3.117479 -5.367802 -4.242641 -4.242641 
C -5.367802 -3.117479 -6 -1.591219 -6 0 
C -6 1.591219 -5.367802 3.117479 -4.242641 4.242641 
C -3.117479 5.367802 -1.591219 6 0 6 
z
" id="m406e76aeff" style="stroke:#000080;stroke-width:1.5;"/>
    </defs>
    <g>
     <use style="fill-opacity:0;stroke:#000080;stroke-width:1.5;" x="186.284597" xlink:href="#m406e76aeff" y="264.221257"/>
     <use style="fill-opacity:0;stroke:#000080;stroke-width:1.5;" x="253.237904" xlink:href="#m406e76aeff" y="211.809569"/>
     <use style="fill-opacity:0;stroke:#000080;stroke-width:1.5;" x="289.322166" xlink:href="#m406e76aeff" y="75.53918"/>
     <use style="fill-opacity:0;stroke:#000080;stroke-width:1.5;" x="311.908686" xlink:href="#m406e76aeff" y="30.334099"/>
     <use style="fill-opacity:0;stroke:#000080;stroke-width:1.5;" x="338.688" xlink:href="#m406e76aeff" y="30.334099"/>
    </g>
   </g>
   <g id="line2d_32">
    <path style="fill:none;stroke:#000080;stroke-linecap:square;stroke-width:1.5;"/>
    <g/>
   </g>
   <g id="line2d_33">
    <path clip-path="url(#p56eee8b7c3)" d="M 234.374831 239.980851 
" style="fill:none;stroke:#000080;stroke-linecap:square;stroke-width:1.5;"/>
    <defs>
     <path d="M -12 12 
L 12 -12 
M -12 -12 
L 12 12 
" id="meb2b412788" style="stroke:#000080;"/>
    </defs>
    <g clip-path="url(#p56eee8b7c3)">
     <use style="fill:#000080;stroke:#000080;" x="234.374831" xlink:href="#meb2b412788" y="239.980851"/>
    </g>
   </g>
   <g id="line2d_34">
    <defs>
     <path d="M 0 1.5 
C 0.397805 1.5 0.77937 1.341951 1.06066 1.06066 
C 1.341951 0.77937 1.5 0.397805 1.5 0 
C 1.5 -0.397805 1.341951 -0.77937 1.06066 -1.06066 
C 0.77937 -1.341951 0.397805 -1.5 0 -1.5 
C -0.397805 -1.5 -0.77937 -1.341951 -1.06066 -1.06066 
C -1.341951 -0.77937 -1.5 -0.397805 -1.5 0 
C -1.5 0.397805 -1.341951 0.77937 -1.06066 1.06066 
C -0.77937 1.341951 -0.397805 1.5 0 1.5 
z
" id="mf6aad1a00d" style="stroke:#ff00ff;"/>
    </defs>
    <g>
     <use style="fill:#ff00ff;stroke:#ff00ff;" x="297.973722" xlink:href="#mf6aad1a00d" y="30.334099"/>
     <use style="fill:#ff00ff;stroke:#ff00ff;" x="297.973722" xlink:href="#mf6aad1a00d" y="30.334099"/>
    </g>
   </g>
   <g id="line2d_35">
    <path d="M 108.764355 298.944 
L 108.764355 298.288854 
L 112.431755 298.288854 
L 112.431755 297.633708 
L 113.873839 297.633708 
L 113.873839 296.978562 
L 116.202531 296.978562 
L 116.202531 296.323416 
L 117.598418 296.323416 
L 117.598418 295.013123 
L 121.219499 295.013123 
L 121.219499 293.047685 
L 123.751369 293.047685 
L 123.751369 292.392539 
L 123.907776 292.392539 
L 123.907776 291.737393 
L 124.368753 291.737393 
L 124.368753 291.082247 
L 124.817858 291.082247 
L 124.817858 290.427101 
L 125.822869 290.427101 
L 125.822869 289.771955 
L 126.904721 289.771955 
L 126.904721 289.116809 
L 127.674226 289.116809 
L 127.674226 287.806516 
L 131.287464 287.806516 
L 131.287464 287.15137 
L 135.117629 287.15137 
L 135.199312 285.841078 
L 136.304433 285.841078 
L 136.304433 285.185932 
L 137.053015 285.185932 
L 137.053015 284.530786 
L 139.824833 284.530786 
L 139.887228 282.565348 
L 141.662245 282.565348 
L 141.662245 281.910201 
L 142.857929 281.910201 
L 142.910378 280.599909 
L 143.828447 280.599909 
L 143.828447 279.944763 
L 146.194362 279.944763 
L 146.194362 279.289617 
L 146.40993 279.289617 
L 146.40993 278.634471 
L 147.041095 278.634471 
L 147.082371 277.324179 
L 147.449528 277.324179 
L 147.449528 276.669033 
L 147.96658 276.669033 
L 148.044783 275.35874 
L 148.392421 275.35874 
L 148.430623 274.048448 
L 148.919783 274.048448 
L 148.919783 273.393302 
L 149.25057 273.393302 
L 149.25057 272.738156 
L 149.610898 272.738156 
L 149.610898 272.08301 
L 150.137805 272.08301 
L 150.137805 271.427864 
L 151.62925 271.427864 
L 151.62925 270.772718 
L 151.912822 270.772718 
L 151.912822 270.117572 
L 153.523746 270.117572 
L 153.523746 269.462426 
L 155.232454 269.462426 
L 155.232454 268.807279 
L 155.463441 268.807279 
L 155.463441 268.152133 
L 175.504853 268.152133 
L 175.504853 267.496987 
L 179.6808 267.496987 
L 179.6808 266.841841 
L 183.071042 266.841841 
L 183.071042 266.186695 
L 183.397795 266.186695 
L 183.397795 265.531549 
L 187.924952 265.531549 
L 187.924952 264.876403 
L 194.599107 264.876403 
L 194.599107 264.221257 
L 194.73106 264.221257 
L 194.73106 263.566111 
L 195.412409 263.566111 
L 195.412409 262.910965 
L 195.925927 262.910965 
L 195.993434 260.945526 
L 196.466092 260.945526 
L 196.466092 260.29038 
L 197.050024 260.29038 
L 197.050024 259.635234 
L 197.583171 259.635234 
L 197.583171 258.980088 
L 197.863381 258.980088 
L 197.863381 258.324942 
L 198.33226 258.324942 
L 198.33226 257.669796 
L 201.681386 257.669796 
L 201.681386 257.01465 
L 205.277349 257.01465 
L 205.277349 256.359504 
L 206.876632 256.359504 
L 206.876632 255.704357 
L 210.288272 255.704357 
L 210.288272 255.049211 
L 212.27936 255.049211 
L 212.27936 254.394065 
L 214.096753 254.394065 
L 214.096753 253.738919 
L 216.729266 253.738919 
L 216.729266 253.083773 
L 216.926856 253.083773 
L 216.926856 252.428627 
L 220.111296 252.428627 
L 220.150686 251.118335 
L 220.232929 251.118335 
L 220.232929 250.463189 
L 220.842495 250.463189 
L 220.842495 249.808043 
L 221.318529 249.808043 
L 221.318529 249.152896 
L 222.353157 249.152896 
L 222.353157 248.49775 
L 227.40621 248.49775 
L 227.40621 247.842604 
L 227.53918 247.842604 
L 227.53918 246.532312 
L 227.873654 246.532312 
L 227.875258 245.22202 
L 228.063528 245.22202 
L 228.063528 243.911728 
L 228.659817 243.911728 
L 228.659817 243.256582 
L 231.031038 243.256582 
L 231.031038 242.601435 
L 232.456054 242.601435 
L 232.456054 241.946289 
L 232.605447 241.946289 
L 232.647896 239.980851 
L 233.21772 239.980851 
L 233.299009 238.015413 
L 233.80323 238.015413 
L 233.80323 237.360267 
L 234.250345 237.360267 
L 234.340263 236.049974 
L 234.419115 236.049974 
L 234.503097 233.42939 
L 234.700931 233.42939 
L 234.796653 231.463952 
L 234.872532 231.463952 
L 234.93217 230.15366 
L 235.561645 230.15366 
L 235.561645 229.498513 
L 236.011575 229.498513 
L 236.03834 227.533075 
L 236.143871 227.533075 
L 236.143871 226.877929 
L 238.740729 226.877929 
L 238.740729 226.222783 
L 238.888079 226.222783 
L 238.96129 224.912491 
L 239.345463 224.912491 
L 239.345463 224.257345 
L 239.704065 224.257345 
L 239.704065 223.602199 
L 240.751543 223.602199 
L 240.819926 222.291906 
L 240.876058 222.291906 
L 240.891655 220.981614 
L 241.095224 220.981614 
L 241.095224 220.326468 
L 241.351806 220.326468 
L 241.351806 219.671322 
L 241.982529 219.671322 
L 242.043146 217.705884 
L 242.106922 217.705884 
L 242.158801 216.395591 
L 242.288968 216.395591 
L 242.319125 215.085299 
L 242.454364 215.085299 
L 242.564655 212.464715 
L 242.815803 212.464715 
L 242.815803 211.809569 
L 242.935595 211.809569 
L 242.935595 211.154423 
L 243.145611 211.154423 
L 243.188662 209.84413 
L 243.293094 209.84413 
L 243.326692 208.533838 
L 243.429399 208.533838 
L 243.457895 207.223546 
L 244.962711 207.223546 
L 244.962711 206.5684 
L 245.535635 206.5684 
L 245.553616 205.258108 
L 245.938755 205.258108 
L 245.968836 203.947816 
L 246.236268 203.947816 
L 246.236268 203.292669 
L 246.349946 203.292669 
L 246.394379 201.982377 
L 246.543921 201.982377 
L 246.605614 198.706647 
L 246.706159 198.706647 
L 246.706159 198.051501 
L 247.261768 198.051501 
L 247.261768 197.396355 
L 247.378676 197.396355 
L 247.378676 196.741208 
L 247.610554 196.741208 
L 247.610554 196.086062 
L 248.680827 196.086062 
L 248.680827 195.430916 
L 249.458012 195.430916 
L 249.50164 194.120624 
L 250.21379 194.120624 
L 250.21379 193.465478 
L 250.376728 193.465478 
L 250.376728 192.810332 
L 250.614478 192.810332 
L 250.614478 192.155186 
L 250.919245 192.155186 
L 250.952645 190.844894 
L 251.268973 190.844894 
L 251.318814 189.534601 
L 251.381906 189.534601 
L 251.381906 188.879455 
L 251.641616 188.879455 
L 251.641616 188.224309 
L 251.858732 188.224309 
L 251.858732 187.569163 
L 252.478281 187.569163 
L 252.525764 186.258871 
L 252.678809 186.258871 
L 252.678809 185.603725 
L 253.445858 185.603725 
L 253.491566 184.293433 
L 253.566592 184.293433 
L 253.566592 183.638286 
L 253.830042 183.638286 
L 253.882701 181.672848 
L 254.002161 181.672848 
L 254.002161 181.017702 
L 254.183336 181.017702 
L 254.183336 180.362556 
L 254.580032 180.362556 
L 254.663393 179.052264 
L 255.232889 179.052264 
L 255.232889 178.397118 
L 255.440703 178.397118 
L 255.440703 177.741972 
L 255.742803 177.741972 
L 255.742803 177.086825 
L 255.879099 177.086825 
L 255.88103 175.776533 
L 256.032819 175.776533 
L 256.07267 174.466241 
L 256.151071 174.466241 
L 256.250568 173.155949 
L 256.428814 173.155949 
L 256.474464 171.190511 
L 256.576586 171.190511 
L 256.643823 169.880218 
L 256.907515 169.880218 
L 256.982334 165.949342 
L 257.083562 165.949342 
L 257.083562 165.294196 
L 257.268854 165.294196 
L 257.268854 164.63905 
L 257.63571 164.63905 
L 257.63571 163.983903 
L 258.028381 163.983903 
L 258.028381 163.328757 
L 258.280506 163.328757 
L 258.312743 162.018465 
L 258.410977 162.018465 
L 258.472345 160.053027 
L 258.772067 160.053027 
L 258.852318 157.432442 
L 258.95958 157.432442 
L 259.05257 154.811858 
L 259.147903 154.811858 
L 259.147903 154.156712 
L 259.520155 154.156712 
L 259.626776 152.84642 
L 259.680394 152.84642 
L 259.680394 152.191274 
L 259.955087 152.191274 
L 259.955087 151.536128 
L 260.608803 151.536128 
L 260.708746 150.225835 
L 260.721771 150.225835 
L 260.721771 149.570689 
L 261.143502 149.570689 
L 261.204527 148.260397 
L 261.551613 148.260397 
L 261.551613 147.605251 
L 261.736844 147.605251 
L 261.781835 146.294959 
L 262.311635 146.294959 
L 262.311635 145.639813 
L 262.438209 145.639813 
L 262.438209 144.984667 
L 262.600513 144.984667 
L 262.646063 143.674374 
L 262.801582 143.674374 
L 262.801582 143.019228 
L 263.082095 143.019228 
L 263.082095 142.364082 
L 263.903457 142.364082 
L 263.903457 141.708936 
L 264.127791 141.708936 
L 264.221568 140.398644 
L 264.315562 140.398644 
L 264.315562 139.743498 
L 264.440788 139.743498 
L 264.467103 138.433206 
L 264.679244 138.433206 
L 264.679244 137.778059 
L 264.845009 137.778059 
L 264.898364 135.157475 
L 265.049846 135.157475 
L 265.142427 133.192037 
L 265.181594 133.192037 
L 265.248048 131.226598 
L 265.381604 131.226598 
L 265.381604 130.571452 
L 265.513496 130.571452 
L 265.5969 128.606014 
L 265.76243 128.606014 
L 265.76243 127.950868 
L 266.28937 127.950868 
L 266.33511 126.640576 
L 266.42867 126.640576 
L 266.497116 125.330284 
L 266.596042 125.330284 
L 266.596042 124.675137 
L 266.721708 124.675137 
L 266.721708 124.019991 
L 267.263559 124.019991 
L 267.263559 123.364845 
L 267.677184 123.364845 
L 267.677184 122.709699 
L 267.832435 122.709699 
L 267.90085 121.399407 
L 268.145546 121.399407 
L 268.24524 120.089115 
L 268.267983 120.089115 
L 268.32961 118.778823 
L 268.522457 118.778823 
L 268.522457 118.123676 
L 268.663859 118.123676 
L 268.663859 117.46853 
L 268.802992 117.46853 
L 268.86645 116.158238 
L 269.04743 116.158238 
L 269.158529 113.537654 
L 269.228629 113.537654 
L 269.228629 112.882508 
L 269.375305 112.882508 
L 269.48425 110.917069 
L 269.562626 110.917069 
L 269.631947 109.606777 
L 269.765283 109.606777 
L 269.783518 108.296485 
L 269.937091 108.296485 
L 269.981864 106.986193 
L 270.113469 106.986193 
L 270.145505 105.675901 
L 270.235344 105.675901 
L 270.312288 104.365608 
L 270.379416 104.365608 
L 270.441468 103.055316 
L 270.715962 103.055316 
L 270.715962 102.40017 
L 270.8956 102.40017 
L 270.957845 100.434732 
L 271.710836 100.434732 
L 271.731137 99.12444 
L 271.834673 99.12444 
L 271.888471 97.159001 
L 272.276578 97.159001 
L 272.276578 96.503855 
L 272.428153 96.503855 
L 272.481831 94.538417 
L 272.798032 94.538417 
L 272.798032 93.883271 
L 272.978862 93.883271 
L 272.978862 93.228125 
L 273.158076 93.228125 
L 273.158076 92.572979 
L 273.333322 92.572979 
L 273.412692 91.262686 
L 273.775428 91.262686 
L 273.775428 90.60754 
L 273.93602 90.60754 
L 273.93602 89.952394 
L 274.191298 89.952394 
L 274.192876 88.642102 
L 274.468585 88.642102 
L 274.468585 87.986956 
L 274.749895 87.986956 
L 274.749895 87.33181 
L 274.982527 87.33181 
L 274.982527 86.676664 
L 275.404046 86.676664 
L 275.437031 85.366371 
L 275.561138 85.366371 
L 275.647717 83.400933 
L 275.802767 83.400933 
L 275.833918 80.780349 
L 275.914946 80.780349 
L 275.958272 79.470057 
L 276.349786 79.470057 
L 276.349786 78.81491 
L 276.61839 78.81491 
L 276.678199 77.504618 
L 276.873273 77.504618 
L 276.92663 76.194326 
L 277.093184 76.194326 
L 277.093184 75.53918 
L 277.216815 75.53918 
L 277.254051 74.228888 
L 277.42589 74.228888 
L 277.42589 73.573742 
L 277.678086 73.573742 
L 277.763857 72.263449 
L 277.895418 72.263449 
L 277.995684 70.953157 
L 278.026028 70.953157 
L 278.026028 70.298011 
L 278.190628 70.298011 
L 278.220345 68.987719 
L 278.852388 68.987719 
L 278.852388 68.332573 
L 278.977247 68.332573 
L 279.057823 67.022281 
L 279.407289 67.022281 
L 279.445095 65.711988 
L 279.605253 65.711988 
L 279.605253 65.056842 
L 279.976229 65.056842 
L 280.005709 63.74655 
L 280.333743 63.74655 
L 280.333743 63.091404 
L 280.825529 63.091404 
L 280.827118 61.781112 
L 280.941474 61.781112 
L 280.941474 61.125966 
L 281.455281 61.125966 
L 281.496093 59.815674 
L 281.830429 59.815674 
L 281.87399 58.505381 
L 282.346492 58.505381 
L 282.346492 57.850235 
L 282.651244 57.850235 
L 282.744155 54.574505 
L 282.76423 54.574505 
L 282.76423 53.919359 
L 283.331478 53.919359 
L 283.414039 52.609066 
L 283.510735 52.609066 
L 283.61407 50.643628 
L 283.804409 50.643628 
L 283.804409 49.988482 
L 284.013627 49.988482 
L 284.023961 48.67819 
L 284.127957 48.67819 
L 284.127957 48.023044 
L 284.565663 48.023044 
L 284.565663 47.367898 
L 285.022791 47.367898 
L 285.022791 46.712752 
L 285.206037 46.712752 
L 285.206037 46.057605 
L 285.845947 46.057605 
L 285.863452 44.747313 
L 285.97327 44.747313 
L 286.002658 42.781875 
L 286.100482 42.781875 
L 286.100482 42.126729 
L 286.305738 42.126729 
L 286.305738 41.471583 
L 287.457552 41.471583 
L 287.457552 40.816437 
L 287.695223 40.816437 
L 287.695223 40.161291 
L 287.856636 40.161291 
L 287.856636 39.506144 
L 288.597144 39.506144 
L 288.597144 38.850998 
L 289.537677 38.850998 
L 289.537677 38.195852 
L 289.716353 38.195852 
L 289.716353 37.540706 
L 290.356626 37.540706 
L 290.356626 36.88556 
L 290.502919 36.88556 
L 290.502919 36.230414 
L 290.805041 36.230414 
L 290.805041 35.575268 
L 292.23593 35.575268 
L 292.23593 34.920122 
L 292.852512 34.920122 
L 292.852512 34.264976 
L 293.007031 34.264976 
L 293.105159 32.954683 
L 293.724846 32.954683 
L 293.724846 32.299537 
L 295.938245 32.299537 
L 296.040616 30.989245 
L 297.973722 30.989245 
L 297.973722 30.334099 
L 338.688 30.334099 
L 338.688 30.334099 
" style="fill:none;stroke:#ff00ff;stroke-linecap:square;stroke-width:1.5;"/>
   </g>
   <g id="line2d_36">
    <defs>
     <path d="M -0 8.485281 
L 5.091169 0 
L 0 -8.485281 
L -5.091169 -0 
z
" id="m7e62735bb4" style="stroke:#ff00ff;stroke-linejoin:miter;stroke-width:1.5;"/>
    </defs>
    <g>
     <use style="fill-opacity:0;stroke:#ff00ff;stroke-linejoin:miter;stroke-width:1.5;" x="155.463441" xlink:href="#m7e62735bb4" y="268.152133"/>
     <use style="fill-opacity:0;stroke:#ff00ff;stroke-linejoin:miter;stroke-width:1.5;" x="255.742803" xlink:href="#m7e62735bb4" y="177.086825"/>
     <use style="fill-opacity:0;stroke:#ff00ff;stroke-linejoin:miter;stroke-width:1.5;" x="280.827118" xlink:href="#m7e62735bb4" y="61.781112"/>
     <use style="fill-opacity:0;stroke:#ff00ff;stroke-linejoin:miter;stroke-width:1.5;" x="297.973722" xlink:href="#m7e62735bb4" y="30.334099"/>
     <use style="fill-opacity:0;stroke:#ff00ff;stroke-linejoin:miter;stroke-width:1.5;" x="338.688" xlink:href="#m7e62735bb4" y="30.334099"/>
    </g>
   </g>
   <g id="line2d_37">
    <path style="fill:none;stroke:#ff00ff;stroke-linecap:square;stroke-width:1.5;"/>
    <g/>
   </g>
   <g id="line2d_38">
    <path clip-path="url(#p56eee8b7c3)" d="M 234.301744 236.705121 
" style="fill:none;stroke:#ff00ff;stroke-linecap:square;stroke-width:1.5;"/>
    <defs>
     <path d="M -12 12 
L 12 -12 
M -12 -12 
L 12 12 
" id="mc8809e3076" style="stroke:#ff00ff;"/>
    </defs>
    <g clip-path="url(#p56eee8b7c3)">
     <use style="fill:#ff00ff;stroke:#ff00ff;" x="234.301744" xlink:href="#mc8809e3076" y="236.705121"/>
    </g>
   </g>
   <g id="line2d_39">
    <defs>
     <path d="M 0 1.5 
C 0.397805 1.5 0.77937 1.341951 1.06066 1.06066 
C 1.341951 0.77937 1.5 0.397805 1.5 0 
C 1.5 -0.397805 1.341951 -0.77937 1.06066 -1.06066 
C 0.77937 -1.341951 0.397805 -1.5 0 -1.5 
C -0.397805 -1.5 -0.77937 -1.341951 -1.06066 -1.06066 
C -1.341951 -0.77937 -1.5 -0.397805 -1.5 0 
C -1.5 0.397805 -1.341951 0.77937 -1.06066 1.06066 
C -0.77937 1.341951 -0.397805 1.5 0 1.5 
z
" id="md014183549" style="stroke:#ff7500;"/>
    </defs>
    <g>
     <use style="fill:#ff7500;stroke:#ff7500;" x="302.006684" xlink:href="#md014183549" y="30.334099"/>
     <use style="fill:#ff7500;stroke:#ff7500;" x="302.006684" xlink:href="#md014183549" y="30.334099"/>
    </g>
   </g>
   <g id="line2d_40">
    <path d="M 113.594805 298.944 
L 113.594805 298.288854 
L 113.873839 298.288854 
L 113.873839 297.633708 
L 114.685115 297.633708 
L 114.685115 296.978562 
L 116.914437 296.978562 
L 116.914437 296.323416 
L 122.276749 296.323416 
L 122.276749 295.66827 
L 122.615387 295.66827 
L 122.615387 295.013123 
L 123.111324 295.013123 
L 123.111324 291.082247 
L 123.907776 291.082247 
L 123.907776 290.427101 
L 124.669438 290.427101 
L 124.669438 289.771955 
L 125.399222 289.771955 
L 125.399222 289.116809 
L 126.372183 289.116809 
L 126.372183 288.461662 
L 132.084827 288.461662 
L 132.084827 287.806516 
L 132.659801 287.806516 
L 132.659801 287.15137 
L 133.398082 287.15137 
L 133.398082 286.496224 
L 135.199312 286.496224 
L 135.199312 285.841078 
L 136.757427 285.841078 
L 136.757427 285.185932 
L 136.905847 285.185932 
L 136.905847 283.87564 
L 138.049816 283.87564 
L 138.049816 283.220494 
L 138.527635 283.220494 
L 138.527635 282.565348 
L 138.927025 282.565348 
L 138.927025 281.255055 
L 140.438956 281.255055 
L 140.438956 280.599909 
L 141.774395 280.599909 
L 141.774395 279.944763 
L 142.857929 279.944763 
L 142.962669 278.634471 
L 144.026061 278.634471 
L 144.075117 277.324179 
L 144.700592 277.324179 
L 144.700592 274.703594 
L 145.932112 274.703594 
L 145.932112 274.048448 
L 146.665144 274.048448 
L 146.707319 272.738156 
L 146.875005 272.738156 
L 146.875005 272.08301 
L 146.999721 272.08301 
L 146.999721 271.427864 
L 147.48985 271.427864 
L 147.48985 270.772718 
L 149.25057 270.772718 
L 149.25057 270.117572 
L 152.068392 270.117572 
L 152.068392 269.462426 
L 170.451489 269.462426 
L 170.451489 268.807279 
L 171.640636 268.807279 
L 171.640636 268.152133 
L 171.910786 268.152133 
L 171.910786 267.496987 
L 178.153265 267.496987 
L 178.153265 266.841841 
L 186.091944 266.841841 
L 186.091944 266.186695 
L 192.771153 266.186695 
L 192.771153 265.531549 
L 194.690772 265.531549 
L 194.751169 264.221257 
L 199.488903 264.221257 
L 199.488903 263.566111 
L 202.420105 263.566111 
L 202.421832 262.255818 
L 202.595298 262.255818 
L 202.595298 261.600672 
L 207.984456 261.600672 
L 208.047077 259.635234 
L 208.138102 259.635234 
L 208.242258 257.01465 
L 208.273137 257.01465 
L 208.28424 255.704357 
L 208.587444 255.704357 
L 208.643108 253.083773 
L 208.774903 253.083773 
L 208.774903 252.428627 
L 208.896781 252.428627 
L 208.972229 249.152896 
L 209.130377 249.152896 
L 209.130377 248.49775 
L 209.655776 248.49775 
L 209.655776 247.842604 
L 209.896923 247.842604 
L 209.896923 246.532312 
L 210.125906 246.532312 
L 210.125906 243.911728 
L 216.859104 243.911728 
L 216.859104 243.256582 
L 220.071817 243.256582 
L 220.071817 242.601435 
L 234.244918 242.601435 
L 234.326971 241.291143 
L 234.357003 241.291143 
L 234.377593 239.325705 
L 237.745774 239.325705 
L 237.849753 236.705121 
L 237.864686 236.705121 
L 237.909972 235.394828 
L 237.987285 235.394828 
L 238.01937 233.42939 
L 238.144117 233.42939 
L 238.213752 230.15366 
L 239.430537 230.15366 
L 239.483381 228.843367 
L 241.200048 228.843367 
L 241.200048 228.188221 
L 241.671519 228.188221 
L 241.768697 220.981614 
L 241.816182 220.981614 
L 241.915607 215.740445 
L 241.954468 215.740445 
L 242.029437 213.119861 
L 242.096013 213.119861 
L 242.120128 211.809569 
L 243.675208 211.809569 
L 243.683958 210.499277 
L 244.326819 210.499277 
L 244.383558 208.533838 
L 244.718413 208.533838 
L 244.718413 207.878692 
L 245.679115 207.878692 
L 245.756242 206.5684 
L 245.910334 206.5684 
L 245.910334 205.913254 
L 246.914548 205.913254 
L 246.914548 205.258108 
L 247.085191 205.258108 
L 247.085191 204.602962 
L 247.690557 204.602962 
L 247.690557 203.947816 
L 248.273682 203.947816 
L 248.315094 201.982377 
L 248.442936 201.982377 
L 248.442936 201.327231 
L 249.124397 201.327231 
L 249.171173 200.016939 
L 249.301659 200.016939 
L 249.301659 199.361793 
L 250.459305 199.361793 
L 250.568584 196.741208 
L 250.580423 196.741208 
L 250.656071 194.120624 
L 251.389614 194.120624 
L 251.389614 193.465478 
L 251.670229 193.465478 
L 251.768175 190.844894 
L 252.160326 190.844894 
L 252.241587 188.879455 
L 252.374908 188.879455 
L 252.374908 188.224309 
L 253.527208 188.224309 
L 253.636353 186.914017 
L 253.664116 186.914017 
L 253.72124 185.603725 
L 253.840225 185.603725 
L 253.840225 184.948579 
L 254.009645 184.948579 
L 254.009645 184.293433 
L 254.733467 184.293433 
L 254.807327 179.70741 
L 254.886672 179.70741 
L 254.984648 178.397118 
L 255.242744 178.397118 
L 255.290353 177.086825 
L 255.409099 177.086825 
L 255.485841 175.776533 
L 256.090971 175.776533 
L 256.108101 174.466241 
L 256.766626 174.466241 
L 256.766626 173.811095 
L 256.931442 173.811095 
L 256.957455 172.500803 
L 257.19675 172.500803 
L 257.282341 171.190511 
L 257.63218 171.190511 
L 257.63218 170.535364 
L 257.825412 170.535364 
L 257.825412 169.880218 
L 258.051068 169.880218 
L 258.143326 168.569926 
L 258.192498 168.569926 
L 258.192498 167.91478 
L 258.611721 167.91478 
L 258.611721 167.259634 
L 258.894219 167.259634 
L 258.894219 166.604488 
L 259.01421 166.604488 
L 259.01421 165.949342 
L 259.47302 165.949342 
L 259.528646 162.673611 
L 259.866639 162.673611 
L 259.959069 160.053027 
L 260.633153 160.053027 
L 260.738441 157.432442 
L 261.086952 157.432442 
L 261.166464 155.467004 
L 261.332978 155.467004 
L 261.332978 154.811858 
L 262.044536 154.811858 
L 262.044536 154.156712 
L 262.19389 154.156712 
L 262.19389 153.501566 
L 262.364967 153.501566 
L 262.464551 150.880981 
L 262.499199 150.880981 
L 262.499199 150.225835 
L 262.715417 150.225835 
L 262.783738 146.950105 
L 263.119418 146.950105 
L 263.229196 145.639813 
L 263.4102 145.639813 
L 263.421121 144.32952 
L 263.999026 144.32952 
L 263.999026 143.674374 
L 264.112735 143.674374 
L 264.198002 141.05379 
L 264.658235 141.05379 
L 264.728722 138.433206 
L 265.115074 138.433206 
L 265.191554 136.467767 
L 265.578262 136.467767 
L 265.578262 135.812621 
L 265.727019 135.812621 
L 265.727019 135.157475 
L 265.843132 135.157475 
L 265.894634 133.847183 
L 265.989499 133.847183 
L 265.993579 132.536891 
L 266.252373 132.536891 
L 266.327528 130.571452 
L 266.397869 130.571452 
L 266.397869 129.916306 
L 266.553732 129.916306 
L 266.553732 129.26116 
L 266.785442 129.26116 
L 266.785442 128.606014 
L 266.984415 128.606014 
L 267.056041 126.640576 
L 267.589322 126.640576 
L 267.589322 125.98543 
L 267.956377 125.98543 
L 268.06192 124.675137 
L 268.101107 124.675137 
L 268.198155 122.709699 
L 268.298656 122.709699 
L 268.298656 122.054553 
L 268.632989 122.054553 
L 268.632989 121.399407 
L 268.766467 121.399407 
L 268.856776 120.089115 
L 269.11679 120.089115 
L 269.117788 118.778823 
L 269.271709 118.778823 
L 269.357846 116.813384 
L 269.566427 116.813384 
L 269.631453 115.503092 
L 270.149199 115.503092 
L 270.149199 114.847946 
L 270.376945 114.847946 
L 270.41137 112.882508 
L 270.532578 112.882508 
L 270.601512 110.917069 
L 270.703615 110.917069 
L 270.714913 108.951631 
L 270.900261 108.951631 
L 270.900261 108.296485 
L 271.240913 108.296485 
L 271.240913 107.641339 
L 271.620095 107.641339 
L 271.72507 105.020754 
L 271.734591 105.020754 
L 271.791122 103.055316 
L 271.992279 103.055316 
L 271.992279 102.40017 
L 272.165866 102.40017 
L 272.260694 100.434732 
L 272.647912 100.434732 
L 272.697283 98.469293 
L 272.833359 98.469293 
L 272.902146 97.159001 
L 273.031988 97.159001 
L 273.031988 96.503855 
L 273.317352 96.503855 
L 273.331029 95.193563 
L 273.470739 95.193563 
L 273.563932 91.917832 
L 273.6583 91.917832 
L 273.759193 89.952394 
L 273.870239 89.952394 
L 273.93259 87.986956 
L 274.07531 87.986956 
L 274.0907 86.676664 
L 274.347454 86.676664 
L 274.347454 86.021518 
L 274.869884 86.021518 
L 274.912829 84.711225 
L 274.992942 84.711225 
L 274.992942 84.056079 
L 275.168805 84.056079 
L 275.168805 83.400933 
L 275.295001 83.400933 
L 275.295001 82.745787 
L 275.583142 82.745787 
L 275.583142 82.090641 
L 276.024949 82.090641 
L 276.024949 81.435495 
L 276.141909 81.435495 
L 276.252847 80.125203 
L 276.296204 80.125203 
L 276.296204 79.470057 
L 276.42956 79.470057 
L 276.42956 78.81491 
L 276.58273 78.81491 
L 276.6674 77.504618 
L 276.86704 77.504618 
L 276.880046 76.194326 
L 277.085204 76.194326 
L 277.193141 73.573742 
L 277.465752 73.573742 
L 277.465752 72.918596 
L 278.004333 72.918596 
L 278.004333 72.263449 
L 278.141164 72.263449 
L 278.141164 71.608303 
L 278.309347 71.608303 
L 278.414997 70.298011 
L 278.825274 70.298011 
L 278.825274 69.642865 
L 278.965661 69.642865 
L 279.029074 68.332573 
L 279.137455 68.332573 
L 279.137455 67.677427 
L 279.255484 67.677427 
L 279.255484 67.022281 
L 279.970304 67.022281 
L 280.023803 65.711988 
L 280.2936 65.711988 
L 280.2936 65.056842 
L 280.787806 65.056842 
L 280.813809 63.74655 
L 280.915087 63.74655 
L 280.915087 63.091404 
L 281.317544 63.091404 
L 281.317544 62.436258 
L 281.5504 62.436258 
L 281.5504 61.781112 
L 281.739278 61.781112 
L 281.808957 59.160527 
L 281.920111 59.160527 
L 281.920111 58.505381 
L 282.095437 58.505381 
L 282.095437 57.850235 
L 282.297762 57.850235 
L 282.297762 57.195089 
L 282.868629 57.195089 
L 282.884601 55.229651 
L 282.983971 55.229651 
L 283.094016 53.919359 
L 283.249061 53.919359 
L 283.312238 51.95392 
L 283.943689 51.95392 
L 283.943689 51.298774 
L 284.534714 51.298774 
L 284.59648 49.988482 
L 285.22237 49.988482 
L 285.22237 49.333336 
L 285.354177 49.333336 
L 285.402453 48.023044 
L 285.54773 48.023044 
L 285.54773 47.367898 
L 285.84321 47.367898 
L 285.84321 46.712752 
L 286.220965 46.712752 
L 286.237152 45.402459 
L 286.342713 45.402459 
L 286.342713 44.747313 
L 286.484807 44.747313 
L 286.484807 44.092167 
L 287.388178 44.092167 
L 287.388178 43.437021 
L 288.466212 43.437021 
L 288.466212 42.781875 
L 288.586301 42.781875 
L 288.586301 42.126729 
L 289.627441 42.126729 
L 289.627441 41.471583 
L 289.906246 41.471583 
L 289.998519 40.161291 
L 290.038653 40.161291 
L 290.038653 39.506144 
L 290.480408 39.506144 
L 290.480408 38.850998 
L 291.852721 38.850998 
L 291.852721 38.195852 
L 292.274168 38.195852 
L 292.274168 37.540706 
L 292.886197 37.540706 
L 292.949032 36.230414 
L 293.712477 36.230414 
L 293.783037 34.920122 
L 295.014239 34.920122 
L 295.014239 34.264976 
L 295.45359 34.264976 
L 295.45359 33.60983 
L 296.148369 33.60983 
L 296.148369 32.954683 
L 296.917655 32.954683 
L 296.917655 32.299537 
L 297.7403 32.299537 
L 297.7403 31.644391 
L 298.882773 31.644391 
L 298.882773 30.989245 
L 302.006684 30.989245 
L 302.006684 30.334099 
L 338.688 30.334099 
L 338.688 30.334099 
" style="fill:none;stroke:#ff7500;stroke-linecap:square;stroke-width:1.5;"/>
   </g>
   <g id="line2d_41">
    <defs>
     <path d="M 0 -6 
L -1.347084 -1.854102 
L -5.706339 -1.854102 
L -2.179628 0.708204 
L -3.526712 4.854102 
L -0 2.291796 
L 3.526712 4.854102 
L 2.179628 0.708204 
L 5.706339 -1.854102 
L 1.347084 -1.854102 
z
" id="m7f0ce7d09a" style="stroke:#ff7500;stroke-linejoin:bevel;stroke-width:1.5;"/>
    </defs>
    <g>
     <use style="fill-opacity:0;stroke:#ff7500;stroke-linejoin:bevel;stroke-width:1.5;" x="241.816182" xlink:href="#m7f0ce7d09a" y="220.981614"/>
     <use style="fill-opacity:0;stroke:#ff7500;stroke-linejoin:bevel;stroke-width:1.5;" x="270.706573" xlink:href="#m7f0ce7d09a" y="109.606777"/>
     <use style="fill-opacity:0;stroke:#ff7500;stroke-linejoin:bevel;stroke-width:1.5;" x="302.006684" xlink:href="#m7f0ce7d09a" y="30.334099"/>
     <use style="fill-opacity:0;stroke:#ff7500;stroke-linejoin:bevel;stroke-width:1.5;" x="302.006684" xlink:href="#m7f0ce7d09a" y="30.334099"/>
     <use style="fill-opacity:0;stroke:#ff7500;stroke-linejoin:bevel;stroke-width:1.5;" x="338.688" xlink:href="#m7f0ce7d09a" y="30.334099"/>
    </g>
   </g>
   <g id="line2d_42">
    <path style="fill:none;stroke:#ff7500;stroke-linecap:square;stroke-width:1.5;"/>
    <g/>
   </g>
   <g id="line2d_43">
    <path clip-path="url(#p56eee8b7c3)" d="M 234.330988 241.291143 
" style="fill:none;stroke:#ff7500;stroke-linecap:square;stroke-width:1.5;"/>
    <defs>
     <path d="M -12 12 
L 12 -12 
M -12 -12 
L 12 12 
" id="m5e069decfc" style="stroke:#ff7500;"/>
    </defs>
    <g clip-path="url(#p56eee8b7c3)">
     <use style="fill:#ff7500;stroke:#ff7500;" x="234.330988" xlink:href="#m5e069decfc" y="241.291143"/>
    </g>
   </g>
   <g id="line2d_44">
    <path d="M 338.688 30.334099 
L 369.60768 293.571802 
" style="fill:none;stroke:#000080;stroke-linecap:square;stroke-width:1.5;"/>
    <g>
     <use style="fill-opacity:0;stroke:#000080;stroke-width:1.5;" x="338.688" xlink:href="#m406e76aeff" y="30.334099"/>
     <use style="fill-opacity:0;stroke:#000080;stroke-width:1.5;" x="369.60768" xlink:href="#m406e76aeff" y="293.571802"/>
    </g>
   </g>
   <g id="line2d_45">
    <path d="M 338.688 30.334099 
L 369.60768 164.63905 
" style="fill:none;stroke:#ff7500;stroke-linecap:square;stroke-width:1.5;"/>
    <g>
     <use style="fill-opacity:0;stroke:#ff7500;stroke-linejoin:bevel;stroke-width:1.5;" x="338.688" xlink:href="#m7f0ce7d09a" y="30.334099"/>
     <use style="fill-opacity:0;stroke:#ff7500;stroke-linejoin:bevel;stroke-width:1.5;" x="369.60768" xlink:href="#m7f0ce7d09a" y="164.63905"/>
    </g>
   </g>
   <g id="line2d_46">
    <path d="M 338.688 30.334099 
L 369.60768 35.706297 
" style="fill:none;stroke:#ff00ff;stroke-linecap:square;stroke-width:1.5;"/>
    <g>
     <use style="fill-opacity:0;stroke:#ff00ff;stroke-linejoin:miter;stroke-width:1.5;" x="338.688" xlink:href="#m7e62735bb4" y="30.334099"/>
     <use style="fill-opacity:0;stroke:#ff00ff;stroke-linejoin:miter;stroke-width:1.5;" x="369.60768" xlink:href="#m7e62735bb4" y="35.706297"/>
    </g>
   </g>
   <g id="line2d_47">
    <path d="M 338.688 298.944 
L 338.688 30.334099 
" style="fill:none;stroke:#000000;stroke-linecap:square;stroke-width:1.5;"/>
   </g>
   <g id="patch_3">
    <path d="M 57.6 298.944 
L 57.6 27.648 
" style="fill:none;stroke:#000000;stroke-linecap:square;stroke-linejoin:miter;stroke-width:0.8;"/>
   </g>
   <g id="patch_4">
    <path d="M 338.688 298.944 
L 338.688 27.648 
" style="fill:none;stroke:#000000;stroke-linecap:square;stroke-linejoin:miter;stroke-width:0.8;"/>
   </g>
   <g id="patch_5">
    <path d="M 57.6 298.944 
L 338.688 298.944 
" style="fill:none;stroke:#000000;stroke-linecap:square;stroke-linejoin:miter;stroke-width:0.8;"/>
   </g>
   <g id="patch_6">
    <path d="M 57.6 27.648 
L 338.688 27.648 
" style="fill:none;stroke:#000000;stroke-linecap:square;stroke-linejoin:miter;stroke-width:0.8;"/>
   </g>
   <g id="text_13">
    <!-- OLD+DGAM -->
    <g transform="translate(375.22944 298.262739)scale(0.17 -0.17)">
     <defs>
      <path d="M 39.40625 66.21875 
Q 28.65625 66.21875 22.328125 58.203125 
Q 16.015625 50.203125 16.015625 36.375 
Q 16.015625 22.609375 22.328125 14.59375 
Q 28.65625 6.59375 39.40625 6.59375 
Q 50.140625 6.59375 56.421875 14.59375 
Q 62.703125 22.609375 62.703125 36.375 
Q 62.703125 50.203125 56.421875 58.203125 
Q 50.140625 66.21875 39.40625 66.21875 
z
M 39.40625 74.21875 
Q 54.734375 74.21875 63.90625 63.9375 
Q 73.09375 53.65625 73.09375 36.375 
Q 73.09375 19.140625 63.90625 8.859375 
Q 54.734375 -1.421875 39.40625 -1.421875 
Q 24.03125 -1.421875 14.8125 8.828125 
Q 5.609375 19.09375 5.609375 36.375 
Q 5.609375 53.65625 14.8125 63.9375 
Q 24.03125 74.21875 39.40625 74.21875 
z
" id="DejaVuSans-79"/>
      <path d="M 9.8125 72.90625 
L 19.671875 72.90625 
L 19.671875 8.296875 
L 55.171875 8.296875 
L 55.171875 0 
L 9.8125 0 
z
" id="DejaVuSans-76"/>
      <path d="M 19.671875 64.796875 
L 19.671875 8.109375 
L 31.59375 8.109375 
Q 46.6875 8.109375 53.6875 14.9375 
Q 60.6875 21.78125 60.6875 36.53125 
Q 60.6875 51.171875 53.6875 57.984375 
Q 46.6875 64.796875 31.59375 64.796875 
z
M 9.8125 72.90625 
L 30.078125 72.90625 
Q 51.265625 72.90625 61.171875 64.09375 
Q 71.09375 55.28125 71.09375 36.53125 
Q 71.09375 17.671875 61.125 8.828125 
Q 51.171875 0 30.078125 0 
L 9.8125 0 
z
" id="DejaVuSans-68"/>
      <path d="M 59.515625 10.40625 
L 59.515625 29.984375 
L 43.40625 29.984375 
L 43.40625 38.09375 
L 69.28125 38.09375 
L 69.28125 6.78125 
Q 63.578125 2.734375 56.6875 0.65625 
Q 49.8125 -1.421875 42 -1.421875 
Q 24.90625 -1.421875 15.25 8.5625 
Q 5.609375 18.5625 5.609375 36.375 
Q 5.609375 54.25 15.25 64.234375 
Q 24.90625 74.21875 42 74.21875 
Q 49.125 74.21875 55.546875 72.453125 
Q 61.96875 70.703125 67.390625 67.28125 
L 67.390625 56.78125 
Q 61.921875 61.421875 55.765625 63.765625 
Q 49.609375 66.109375 42.828125 66.109375 
Q 29.4375 66.109375 22.71875 58.640625 
Q 16.015625 51.171875 16.015625 36.375 
Q 16.015625 21.625 22.71875 14.15625 
Q 29.4375 6.6875 42.828125 6.6875 
Q 48.046875 6.6875 52.140625 7.59375 
Q 56.25 8.5 59.515625 10.40625 
z
" id="DejaVuSans-71"/>
      <path d="M 34.1875 63.1875 
L 20.796875 26.90625 
L 47.609375 26.90625 
z
M 28.609375 72.90625 
L 39.796875 72.90625 
L 67.578125 0 
L 57.328125 0 
L 50.6875 18.703125 
L 17.828125 18.703125 
L 11.1875 0 
L 0.78125 0 
z
" id="DejaVuSans-65"/>
      <path d="M 9.8125 72.90625 
L 24.515625 72.90625 
L 43.109375 23.296875 
L 61.8125 72.90625 
L 76.515625 72.90625 
L 76.515625 0 
L 66.890625 0 
L 66.890625 64.015625 
L 48.09375 14.015625 
L 38.1875 14.015625 
L 19.390625 64.015625 
L 19.390625 0 
L 9.8125 0 
z
" id="DejaVuSans-77"/>
     </defs>
     <use xlink:href="#DejaVuSans-79"/>
     <use x="78.710938" xlink:href="#DejaVuSans-76"/>
     <use x="134.423828" xlink:href="#DejaVuSans-68"/>
     <use x="211.425781" xlink:href="#DejaVuSans-43"/>
     <use x="295.214844" xlink:href="#DejaVuSans-68"/>
     <use x="372.216797" xlink:href="#DejaVuSans-71"/>
     <use x="449.707031" xlink:href="#DejaVuSans-65"/>
     <use x="518.115234" xlink:href="#DejaVuSans-77"/>
    </g>
   </g>
   <g id="text_14">
    <!-- NEW+DGAM -->
    <g transform="translate(375.22944 169.329987)scale(0.17 -0.17)">
     <defs>
      <path d="M 9.8125 72.90625 
L 23.09375 72.90625 
L 55.421875 11.921875 
L 55.421875 72.90625 
L 64.984375 72.90625 
L 64.984375 0 
L 51.703125 0 
L 19.390625 60.984375 
L 19.390625 0 
L 9.8125 0 
z
" id="DejaVuSans-78"/>
      <path d="M 9.8125 72.90625 
L 55.90625 72.90625 
L 55.90625 64.59375 
L 19.671875 64.59375 
L 19.671875 43.015625 
L 54.390625 43.015625 
L 54.390625 34.71875 
L 19.671875 34.71875 
L 19.671875 8.296875 
L 56.78125 8.296875 
L 56.78125 0 
L 9.8125 0 
z
" id="DejaVuSans-69"/>
      <path d="M 3.328125 72.90625 
L 13.28125 72.90625 
L 28.609375 11.28125 
L 43.890625 72.90625 
L 54.984375 72.90625 
L 70.3125 11.28125 
L 85.59375 72.90625 
L 95.609375 72.90625 
L 77.296875 0 
L 64.890625 0 
L 49.515625 63.28125 
L 33.984375 0 
L 21.578125 0 
z
" id="DejaVuSans-87"/>
     </defs>
     <use xlink:href="#DejaVuSans-78"/>
     <use x="74.804688" xlink:href="#DejaVuSans-69"/>
     <use x="137.988281" xlink:href="#DejaVuSans-87"/>
     <use x="236.865234" xlink:href="#DejaVuSans-43"/>
     <use x="320.654297" xlink:href="#DejaVuSans-68"/>
     <use x="397.65625" xlink:href="#DejaVuSans-71"/>
     <use x="475.146484" xlink:href="#DejaVuSans-65"/>
     <use x="543.554688" xlink:href="#DejaVuSans-77"/>
    </g>
   </g>
   <g id="text_15">
    <!-- OLD+NODGA -->
    <g transform="translate(375.22944 40.397235)scale(0.17 -0.17)">
     <use xlink:href="#DejaVuSans-79"/>
     <use x="78.710938" xlink:href="#DejaVuSans-76"/>
     <use x="134.423828" xlink:href="#DejaVuSans-68"/>
     <use x="211.425781" xlink:href="#DejaVuSans-43"/>
     <use x="295.214844" xlink:href="#DejaVuSans-78"/>
     <use x="370.019531" xlink:href="#DejaVuSans-79"/>
     <use x="448.730469" xlink:href="#DejaVuSans-68"/>
     <use x="525.732422" xlink:href="#DejaVuSans-71"/>
     <use x="603.222656" xlink:href="#DejaVuSans-65"/>
    </g>
   </g>
   <g id="text_16">
    <!-- bbob-constrained f46, 5-D -->
    <g transform="translate(60.41088 38.111366)scale(0.102 -0.102)">
     <defs>
      <path d="M 48.6875 27.296875 
Q 48.6875 37.203125 44.609375 42.84375 
Q 40.53125 48.484375 33.40625 48.484375 
Q 26.265625 48.484375 22.1875 42.84375 
Q 18.109375 37.203125 18.109375 27.296875 
Q 18.109375 17.390625 22.1875 11.75 
Q 26.265625 6.109375 33.40625 6.109375 
Q 40.53125 6.109375 44.609375 11.75 
Q 48.6875 17.390625 48.6875 27.296875 
z
M 18.109375 46.390625 
Q 20.953125 51.265625 25.265625 53.625 
Q 29.59375 56 35.59375 56 
Q 45.5625 56 51.78125 48.09375 
Q 58.015625 40.1875 58.015625 27.296875 
Q 58.015625 14.40625 51.78125 6.484375 
Q 45.5625 -1.421875 35.59375 -1.421875 
Q 29.59375 -1.421875 25.265625 0.953125 
Q 20.953125 3.328125 18.109375 8.203125 
L 18.109375 0 
L 9.078125 0 
L 9.078125 75.984375 
L 18.109375 75.984375 
z
" id="DejaVuSans-98"/>
      <path d="M 10.796875 72.90625 
L 49.515625 72.90625 
L 49.515625 64.59375 
L 19.828125 64.59375 
L 19.828125 46.734375 
Q 21.96875 47.46875 24.109375 47.828125 
Q 26.265625 48.1875 28.421875 48.1875 
Q 40.625 48.1875 47.75 41.5 
Q 54.890625 34.8125 54.890625 23.390625 
Q 54.890625 11.625 47.5625 5.09375 
Q 40.234375 -1.421875 26.90625 -1.421875 
Q 22.3125 -1.421875 17.546875 -0.640625 
Q 12.796875 0.140625 7.71875 1.703125 
L 7.71875 11.625 
Q 12.109375 9.234375 16.796875 8.0625 
Q 21.484375 6.890625 26.703125 6.890625 
Q 35.15625 6.890625 40.078125 11.328125 
Q 45.015625 15.765625 45.015625 23.390625 
Q 45.015625 31 40.078125 35.4375 
Q 35.15625 39.890625 26.703125 39.890625 
Q 22.75 39.890625 18.8125 39.015625 
Q 14.890625 38.140625 10.796875 36.28125 
z
" id="DejaVuSans-53"/>
     </defs>
     <use xlink:href="#DejaVuSans-98"/>
     <use x="63.476562" xlink:href="#DejaVuSans-98"/>
     <use x="126.953125" xlink:href="#DejaVuSans-111"/>
     <use x="188.134766" xlink:href="#DejaVuSans-98"/>
     <use x="251.611328" xlink:href="#DejaVuSans-45"/>
     <use x="287.695312" xlink:href="#DejaVuSans-99"/>
     <use x="342.675781" xlink:href="#DejaVuSans-111"/>
     <use x="403.857422" xlink:href="#DejaVuSans-110"/>
     <use x="467.236328" xlink:href="#DejaVuSans-115"/>
     <use x="519.335938" xlink:href="#DejaVuSans-116"/>
     <use x="558.544922" xlink:href="#DejaVuSans-114"/>
     <use x="599.658203" xlink:href="#DejaVuSans-97"/>
     <use x="660.9375" xlink:href="#DejaVuSans-105"/>
     <use x="688.720703" xlink:href="#DejaVuSans-110"/>
     <use x="752.099609" xlink:href="#DejaVuSans-101"/>
     <use x="813.623047" xlink:href="#DejaVuSans-100"/>
     <use x="877.099609" xlink:href="#DejaVuSans-32"/>
     <use x="908.886719" xlink:href="#DejaVuSans-102"/>
     <use x="944.091797" xlink:href="#DejaVuSans-52"/>
     <use x="1007.714844" xlink:href="#DejaVuSans-54"/>
     <use x="1071.337891" xlink:href="#DejaVuSans-44"/>
     <use x="1103.125" xlink:href="#DejaVuSans-32"/>
     <use x="1134.912109" xlink:href="#DejaVuSans-53"/>
     <use x="1198.535156" xlink:href="#DejaVuSans-45"/>
     <use x="1234.619141" xlink:href="#DejaVuSans-68"/>
    </g>
    <!-- 41 targets: 100..1e-06 -->
    <g transform="translate(60.41088 49.533135)scale(0.102 -0.102)">
     <defs>
      <path d="M 11.71875 12.40625 
L 22.015625 12.40625 
L 22.015625 0 
L 11.71875 0 
z
M 11.71875 51.703125 
L 22.015625 51.703125 
L 22.015625 39.3125 
L 11.71875 39.3125 
z
" id="DejaVuSans-58"/>
     </defs>
     <use xlink:href="#DejaVuSans-52"/>
     <use x="63.623047" xlink:href="#DejaVuSans-49"/>
     <use x="127.246094" xlink:href="#DejaVuSans-32"/>
     <use x="159.033203" xlink:href="#DejaVuSans-116"/>
     <use x="198.242188" xlink:href="#DejaVuSans-97"/>
     <use x="259.521484" xlink:href="#DejaVuSans-114"/>
     <use x="298.884766" xlink:href="#DejaVuSans-103"/>
     <use x="362.361328" xlink:href="#DejaVuSans-101"/>
     <use x="423.884766" xlink:href="#DejaVuSans-116"/>
     <use x="463.09375" xlink:href="#DejaVuSans-115"/>
     <use x="515.193359" xlink:href="#DejaVuSans-58"/>
     <use x="548.884766" xlink:href="#DejaVuSans-32"/>
     <use x="580.671875" xlink:href="#DejaVuSans-49"/>
     <use x="644.294922" xlink:href="#DejaVuSans-48"/>
     <use x="707.917969" xlink:href="#DejaVuSans-48"/>
     <use x="771.541016" xlink:href="#DejaVuSans-46"/>
     <use x="803.328125" xlink:href="#DejaVuSans-46"/>
     <use x="835.115234" xlink:href="#DejaVuSans-49"/>
     <use x="898.738281" xlink:href="#DejaVuSans-101"/>
     <use x="960.261719" xlink:href="#DejaVuSans-45"/>
     <use x="996.345703" xlink:href="#DejaVuSans-48"/>
     <use x="1059.96875" xlink:href="#DejaVuSans-54"/>
    </g>
    <!-- 45, 15 instances -->
    <g transform="translate(60.41088 60.954904)scale(0.102 -0.102)">
     <use xlink:href="#DejaVuSans-52"/>
     <use x="63.623047" xlink:href="#DejaVuSans-53"/>
     <use x="127.246094" xlink:href="#DejaVuSans-44"/>
     <use x="159.033203" xlink:href="#DejaVuSans-32"/>
     <use x="190.820312" xlink:href="#DejaVuSans-49"/>
     <use x="254.443359" xlink:href="#DejaVuSans-53"/>
     <use x="318.066406" xlink:href="#DejaVuSans-32"/>
     <use x="349.853516" xlink:href="#DejaVuSans-105"/>
     <use x="377.636719" xlink:href="#DejaVuSans-110"/>
     <use x="441.015625" xlink:href="#DejaVuSans-115"/>
     <use x="493.115234" xlink:href="#DejaVuSans-116"/>
     <use x="532.324219" xlink:href="#DejaVuSans-97"/>
     <use x="593.603516" xlink:href="#DejaVuSans-110"/>
     <use x="656.982422" xlink:href="#DejaVuSans-99"/>
     <use x="711.962891" xlink:href="#DejaVuSans-101"/>
     <use x="773.486328" xlink:href="#DejaVuSans-115"/>
    </g>
   </g>
   <g id="text_17">
    <!-- v5z33 -->
    <g style="fill:#808080;" transform="translate(183.016656 294.151352)scale(0.1 -0.1)">
     <defs>
      <path d="M 5.515625 54.6875 
L 48.1875 54.6875 
L 48.1875 46.484375 
L 14.40625 7.171875 
L 48.1875 7.171875 
L 48.1875 0 
L 4.296875 0 
L 4.296875 8.203125 
L 38.09375 47.515625 
L 5.515625 47.515625 
z
" id="DejaVuSans-122"/>
      <path d="M 40.578125 39.3125 
Q 47.65625 37.796875 51.625 33 
Q 55.609375 28.21875 55.609375 21.1875 
Q 55.609375 10.40625 48.1875 4.484375 
Q 40.765625 -1.421875 27.09375 -1.421875 
Q 22.515625 -1.421875 17.65625 -0.515625 
Q 12.796875 0.390625 7.625 2.203125 
L 7.625 11.71875 
Q 11.71875 9.328125 16.59375 8.109375 
Q 21.484375 6.890625 26.8125 6.890625 
Q 36.078125 6.890625 40.9375 10.546875 
Q 45.796875 14.203125 45.796875 21.1875 
Q 45.796875 27.640625 41.28125 31.265625 
Q 36.765625 34.90625 28.71875 34.90625 
L 20.21875 34.90625 
L 20.21875 43.015625 
L 29.109375 43.015625 
Q 36.375 43.015625 40.234375 45.921875 
Q 44.09375 48.828125 44.09375 54.296875 
Q 44.09375 59.90625 40.109375 62.90625 
Q 36.140625 65.921875 28.71875 65.921875 
Q 24.65625 65.921875 20.015625 65.03125 
Q 15.375 64.15625 9.8125 62.3125 
L 9.8125 71.09375 
Q 15.4375 72.65625 20.34375 73.4375 
Q 25.25 74.21875 29.59375 74.21875 
Q 40.828125 74.21875 47.359375 69.109375 
Q 53.90625 64.015625 53.90625 55.328125 
Q 53.90625 49.265625 50.4375 45.09375 
Q 46.96875 40.921875 40.578125 39.3125 
z
" id="DejaVuSans-51"/>
     </defs>
     <use xlink:href="#DejaVuSans-118"/>
     <use x="59.179688" xlink:href="#DejaVuSans-53"/>
     <use x="122.802734" xlink:href="#DejaVuSans-122"/>
     <use x="175.292969" xlink:href="#DejaVuSans-51"/>
     <use x="238.916016" xlink:href="#DejaVuSans-51"/>
    </g>
   </g>
   <g id="text_18">
    <!-- 46 Separable Rastrigin, n/2+6 constraints -->
    <g transform="translate(-11.682563 21.648)scale(0.2 -0.2)">
     <defs>
      <path d="M 53.515625 70.515625 
L 53.515625 60.890625 
Q 47.90625 63.578125 42.921875 64.890625 
Q 37.9375 66.21875 33.296875 66.21875 
Q 25.25 66.21875 20.875 63.09375 
Q 16.5 59.96875 16.5 54.203125 
Q 16.5 49.359375 19.40625 46.890625 
Q 22.3125 44.4375 30.421875 42.921875 
L 36.375 41.703125 
Q 47.40625 39.59375 52.65625 34.296875 
Q 57.90625 29 57.90625 20.125 
Q 57.90625 9.515625 50.796875 4.046875 
Q 43.703125 -1.421875 29.984375 -1.421875 
Q 24.8125 -1.421875 18.96875 -0.25 
Q 13.140625 0.921875 6.890625 3.21875 
L 6.890625 13.375 
Q 12.890625 10.015625 18.65625 8.296875 
Q 24.421875 6.59375 29.984375 6.59375 
Q 38.421875 6.59375 43.015625 9.90625 
Q 47.609375 13.234375 47.609375 19.390625 
Q 47.609375 24.75 44.3125 27.78125 
Q 41.015625 30.8125 33.5 32.328125 
L 27.484375 33.5 
Q 16.453125 35.6875 11.515625 40.375 
Q 6.59375 45.0625 6.59375 53.421875 
Q 6.59375 63.09375 13.40625 68.65625 
Q 20.21875 74.21875 32.171875 74.21875 
Q 37.3125 74.21875 42.625 73.28125 
Q 47.953125 72.359375 53.515625 70.515625 
z
" id="DejaVuSans-83"/>
      <path d="M 44.390625 34.1875 
Q 47.5625 33.109375 50.5625 29.59375 
Q 53.5625 26.078125 56.59375 19.921875 
L 66.609375 0 
L 56 0 
L 46.6875 18.703125 
Q 43.0625 26.03125 39.671875 28.421875 
Q 36.28125 30.8125 30.421875 30.8125 
L 19.671875 30.8125 
L 19.671875 0 
L 9.8125 0 
L 9.8125 72.90625 
L 32.078125 72.90625 
Q 44.578125 72.90625 50.734375 67.671875 
Q 56.890625 62.453125 56.890625 51.90625 
Q 56.890625 45.015625 53.6875 40.46875 
Q 50.484375 35.9375 44.390625 34.1875 
z
M 19.671875 64.796875 
L 19.671875 38.921875 
L 32.078125 38.921875 
Q 39.203125 38.921875 42.84375 42.21875 
Q 46.484375 45.515625 46.484375 51.90625 
Q 46.484375 58.296875 42.84375 61.546875 
Q 39.203125 64.796875 32.078125 64.796875 
z
" id="DejaVuSans-82"/>
     </defs>
     <use xlink:href="#DejaVuSans-52"/>
     <use x="63.623047" xlink:href="#DejaVuSans-54"/>
     <use x="127.246094" xlink:href="#DejaVuSans-32"/>
     <use x="159.033203" xlink:href="#DejaVuSans-83"/>
     <use x="222.509766" xlink:href="#DejaVuSans-101"/>
     <use x="284.033203" xlink:href="#DejaVuSans-112"/>
     <use x="347.509766" xlink:href="#DejaVuSans-97"/>
     <use x="408.789062" xlink:href="#DejaVuSans-114"/>
     <use x="449.902344" xlink:href="#DejaVuSans-97"/>
     <use x="511.181641" xlink:href="#DejaVuSans-98"/>
     <use x="574.658203" xlink:href="#DejaVuSans-108"/>
     <use x="602.441406" xlink:href="#DejaVuSans-101"/>
     <use x="663.964844" xlink:href="#DejaVuSans-32"/>
     <use x="695.751953" xlink:href="#DejaVuSans-82"/>
     <use x="762.984375" xlink:href="#DejaVuSans-97"/>
     <use x="824.263672" xlink:href="#DejaVuSans-115"/>
     <use x="876.363281" xlink:href="#DejaVuSans-116"/>
     <use x="915.572266" xlink:href="#DejaVuSans-114"/>
     <use x="956.685547" xlink:href="#DejaVuSans-105"/>
     <use x="984.46875" xlink:href="#DejaVuSans-103"/>
     <use x="1047.945312" xlink:href="#DejaVuSans-105"/>
     <use x="1075.728516" xlink:href="#DejaVuSans-110"/>
     <use x="1139.107422" xlink:href="#DejaVuSans-44"/>
     <use x="1170.894531" xlink:href="#DejaVuSans-32"/>
     <use x="1202.681641" xlink:href="#DejaVuSans-110"/>
     <use x="1266.060547" xlink:href="#DejaVuSans-47"/>
     <use x="1299.751953" xlink:href="#DejaVuSans-50"/>
     <use x="1363.375" xlink:href="#DejaVuSans-43"/>
     <use x="1447.164062" xlink:href="#DejaVuSans-54"/>
     <use x="1510.787109" xlink:href="#DejaVuSans-32"/>
     <use x="1542.574219" xlink:href="#DejaVuSans-99"/>
     <use x="1597.554688" xlink:href="#DejaVuSans-111"/>
     <use x="1658.736328" xlink:href="#DejaVuSans-110"/>
     <use x="1722.115234" xlink:href="#DejaVuSans-115"/>
     <use x="1774.214844" xlink:href="#DejaVuSans-116"/>
     <use x="1813.423828" xlink:href="#DejaVuSans-114"/>
     <use x="1854.537109" xlink:href="#DejaVuSans-97"/>
     <use x="1915.816406" xlink:href="#DejaVuSans-105"/>
     <use x="1943.599609" xlink:href="#DejaVuSans-110"/>
     <use x="2006.978516" xlink:href="#DejaVuSans-116"/>
     <use x="2046.1875" xlink:href="#DejaVuSans-115"/>
    </g>
   </g>
  </g>
 </g>
 <defs>
  <clipPath id="p56eee8b7c3">
   <rect height="271.296" width="281.088" x="57.6" y="27.648"/>
  </clipPath>
 </defs>
</svg>
