<?xml version="1.0" encoding="utf-8" standalone="no"?>
<!DOCTYPE svg PUBLIC "-//W3C//DTD SVG 1.1//EN"
  "http://www.w3.org/Graphics/SVG/1.1/DTD/svg11.dtd">
<!-- Created with matplotlib (https://matplotlib.org/) -->
<svg height="345.6pt" version="1.1" viewBox="0 0 460.8 345.6" width="460.8pt" xmlns="http://www.w3.org/2000/svg" xmlns:xlink="http://www.w3.org/1999/xlink">
 <metadata>
  <rdf:RDF xmlns:cc="http://creativecommons.org/ns#" xmlns:dc="http://purl.org/dc/elements/1.1/" xmlns:rdf="http://www.w3.org/1999/02/22-rdf-syntax-ns#">
   <cc:Work>
    <dc:type rdf:resource="http://purl.org/dc/dcmitype/StillImage"/>
    <dc:date>2021-03-11T12:04:29.179540</dc:date>
    <dc:format>image/svg+xml</dc:format>
    <dc:creator>
     <cc:Agent>
      <dc:title>Matplotlib v3.3.3, https://matplotlib.org/</dc:title>
     </cc:Agent>
    </dc:creator>
   </cc:Work>
  </rdf:RDF>
 </metadata>
 <defs>
  <style type="text/css">*{stroke-linecap:butt;stroke-linejoin:round;}</style>
 </defs>
 <g id="figure_1">
  <g id="patch_1">
   <path d="M 0 345.6 
L 460.8 345.6 
L 460.8 0 
L 0 0 
z
" style="fill:#ffffff;"/>
  </g>
  <g id="axes_1">
   <g id="patch_2">
    <path d="M 57.6 298.944 
L 338.688 298.944 
L 338.688 27.648 
L 57.6 27.648 
z
" style="fill:#ffffff;"/>
   </g>
   <g id="matplotlib.axis_1">
    <g id="xtick_1">
     <g id="line2d_1">
      <path clip-path="url(#p3f8cc758ff)" d="M 57.6 298.944 
L 57.6 27.648 
" style="fill:none;stroke:#b0b0b0;stroke-linecap:square;stroke-width:0.8;"/>
     </g>
     <g id="line2d_2">
      <defs>
       <path d="M 0 0 
L 0 3.5 
" id="mb162c956a2" style="stroke:#000000;stroke-width:0.8;"/>
      </defs>
      <g>
       <use style="stroke:#000000;stroke-width:0.8;" x="57.6" xlink:href="#mb162c956a2" y="298.944"/>
      </g>
     </g>
     <g id="text_1">
      <!-- 0 -->
      <g transform="translate(51.2375 321.140875)scale(0.2 -0.2)">
       <defs>
        <path d="M 31.78125 66.40625 
Q 24.171875 66.40625 20.328125 58.90625 
Q 16.5 51.421875 16.5 36.375 
Q 16.5 21.390625 20.328125 13.890625 
Q 24.171875 6.390625 31.78125 6.390625 
Q 39.453125 6.390625 43.28125 13.890625 
Q 47.125 21.390625 47.125 36.375 
Q 47.125 51.421875 43.28125 58.90625 
Q 39.453125 66.40625 31.78125 66.40625 
z
M 31.78125 74.21875 
Q 44.046875 74.21875 50.515625 64.515625 
Q 56.984375 54.828125 56.984375 36.375 
Q 56.984375 17.96875 50.515625 8.265625 
Q 44.046875 -1.421875 31.78125 -1.421875 
Q 19.53125 -1.421875 13.0625 8.265625 
Q 6.59375 17.96875 6.59375 36.375 
Q 6.59375 54.828125 13.0625 64.515625 
Q 19.53125 74.21875 31.78125 74.21875 
z
" id="DejaVuSans-48"/>
       </defs>
       <use xlink:href="#DejaVuSans-48"/>
      </g>
     </g>
    </g>
    <g id="xtick_2">
     <g id="line2d_3">
      <path clip-path="url(#p3f8cc758ff)" d="M 137.910857 298.944 
L 137.910857 27.648 
" style="fill:none;stroke:#b0b0b0;stroke-linecap:square;stroke-width:0.8;"/>
     </g>
     <g id="line2d_4">
      <g>
       <use style="stroke:#000000;stroke-width:0.8;" x="137.910857" xlink:href="#mb162c956a2" y="298.944"/>
      </g>
     </g>
     <g id="text_2">
      <!-- 2 -->
      <g transform="translate(131.548357 321.140875)scale(0.2 -0.2)">
       <defs>
        <path d="M 19.1875 8.296875 
L 53.609375 8.296875 
L 53.609375 0 
L 7.328125 0 
L 7.328125 8.296875 
Q 12.9375 14.109375 22.625 23.890625 
Q 32.328125 33.6875 34.8125 36.53125 
Q 39.546875 41.84375 41.421875 45.53125 
Q 43.3125 49.21875 43.3125 52.78125 
Q 43.3125 58.59375 39.234375 62.25 
Q 35.15625 65.921875 28.609375 65.921875 
Q 23.96875 65.921875 18.8125 64.3125 
Q 13.671875 62.703125 7.8125 59.421875 
L 7.8125 69.390625 
Q 13.765625 71.78125 18.9375 73 
Q 24.125 74.21875 28.421875 74.21875 
Q 39.75 74.21875 46.484375 68.546875 
Q 53.21875 62.890625 53.21875 53.421875 
Q 53.21875 48.921875 51.53125 44.890625 
Q 49.859375 40.875 45.40625 35.40625 
Q 44.1875 33.984375 37.640625 27.21875 
Q 31.109375 20.453125 19.1875 8.296875 
z
" id="DejaVuSans-50"/>
       </defs>
       <use xlink:href="#DejaVuSans-50"/>
      </g>
     </g>
    </g>
    <g id="xtick_3">
     <g id="line2d_5">
      <path clip-path="url(#p3f8cc758ff)" d="M 218.221714 298.944 
L 218.221714 27.648 
" style="fill:none;stroke:#b0b0b0;stroke-linecap:square;stroke-width:0.8;"/>
     </g>
     <g id="line2d_6">
      <g>
       <use style="stroke:#000000;stroke-width:0.8;" x="218.221714" xlink:href="#mb162c956a2" y="298.944"/>
      </g>
     </g>
     <g id="text_3">
      <!-- 4 -->
      <g transform="translate(211.859214 321.140875)scale(0.2 -0.2)">
       <defs>
        <path d="M 37.796875 64.3125 
L 12.890625 25.390625 
L 37.796875 25.390625 
z
M 35.203125 72.90625 
L 47.609375 72.90625 
L 47.609375 25.390625 
L 58.015625 25.390625 
L 58.015625 17.1875 
L 47.609375 17.1875 
L 47.609375 0 
L 37.796875 0 
L 37.796875 17.1875 
L 4.890625 17.1875 
L 4.890625 26.703125 
z
" id="DejaVuSans-52"/>
       </defs>
       <use xlink:href="#DejaVuSans-52"/>
      </g>
     </g>
    </g>
    <g id="xtick_4">
     <g id="line2d_7">
      <path clip-path="url(#p3f8cc758ff)" d="M 298.532571 298.944 
L 298.532571 27.648 
" style="fill:none;stroke:#b0b0b0;stroke-linecap:square;stroke-width:0.8;"/>
     </g>
     <g id="line2d_8">
      <g>
       <use style="stroke:#000000;stroke-width:0.8;" x="298.532571" xlink:href="#mb162c956a2" y="298.944"/>
      </g>
     </g>
     <g id="text_4">
      <!-- 6 -->
      <g transform="translate(292.170071 321.140875)scale(0.2 -0.2)">
       <defs>
        <path d="M 33.015625 40.375 
Q 26.375 40.375 22.484375 35.828125 
Q 18.609375 31.296875 18.609375 23.390625 
Q 18.609375 15.53125 22.484375 10.953125 
Q 26.375 6.390625 33.015625 6.390625 
Q 39.65625 6.390625 43.53125 10.953125 
Q 47.40625 15.53125 47.40625 23.390625 
Q 47.40625 31.296875 43.53125 35.828125 
Q 39.65625 40.375 33.015625 40.375 
z
M 52.59375 71.296875 
L 52.59375 62.3125 
Q 48.875 64.0625 45.09375 64.984375 
Q 41.3125 65.921875 37.59375 65.921875 
Q 27.828125 65.921875 22.671875 59.328125 
Q 17.53125 52.734375 16.796875 39.40625 
Q 19.671875 43.65625 24.015625 45.921875 
Q 28.375 48.1875 33.59375 48.1875 
Q 44.578125 48.1875 50.953125 41.515625 
Q 57.328125 34.859375 57.328125 23.390625 
Q 57.328125 12.15625 50.6875 5.359375 
Q 44.046875 -1.421875 33.015625 -1.421875 
Q 20.359375 -1.421875 13.671875 8.265625 
Q 6.984375 17.96875 6.984375 36.375 
Q 6.984375 53.65625 15.1875 63.9375 
Q 23.390625 74.21875 37.203125 74.21875 
Q 40.921875 74.21875 44.703125 73.484375 
Q 48.484375 72.75 52.59375 71.296875 
z
" id="DejaVuSans-54"/>
       </defs>
       <use xlink:href="#DejaVuSans-54"/>
      </g>
     </g>
    </g>
    <g id="xtick_5">
     <g id="line2d_9">
      <path clip-path="url(#p3f8cc758ff)" d="M 97.755429 298.944 
L 97.755429 27.648 
" style="fill:none;stroke:#b0b0b0;stroke-linecap:square;stroke-width:0.8;"/>
     </g>
     <g id="line2d_10">
      <defs>
       <path d="M 0 0 
L 0 2 
" id="m61888f4d1c" style="stroke:#000000;stroke-width:0.6;"/>
      </defs>
      <g>
       <use style="stroke:#000000;stroke-width:0.6;" x="97.755429" xlink:href="#m61888f4d1c" y="298.944"/>
      </g>
     </g>
    </g>
    <g id="xtick_6">
     <g id="line2d_11">
      <path clip-path="url(#p3f8cc758ff)" d="M 178.066286 298.944 
L 178.066286 27.648 
" style="fill:none;stroke:#b0b0b0;stroke-linecap:square;stroke-width:0.8;"/>
     </g>
     <g id="line2d_12">
      <g>
       <use style="stroke:#000000;stroke-width:0.6;" x="178.066286" xlink:href="#m61888f4d1c" y="298.944"/>
      </g>
     </g>
    </g>
    <g id="xtick_7">
     <g id="line2d_13">
      <path clip-path="url(#p3f8cc758ff)" d="M 258.377143 298.944 
L 258.377143 27.648 
" style="fill:none;stroke:#b0b0b0;stroke-linecap:square;stroke-width:0.8;"/>
     </g>
     <g id="line2d_14">
      <g>
       <use style="stroke:#000000;stroke-width:0.6;" x="258.377143" xlink:href="#m61888f4d1c" y="298.944"/>
      </g>
     </g>
    </g>
    <g id="xtick_8">
     <g id="line2d_15">
      <path clip-path="url(#p3f8cc758ff)" d="M 338.688 298.944 
L 338.688 27.648 
" style="fill:none;stroke:#b0b0b0;stroke-linecap:square;stroke-width:0.8;"/>
     </g>
     <g id="line2d_16">
      <g>
       <use style="stroke:#000000;stroke-width:0.6;" x="338.688" xlink:href="#m61888f4d1c" y="298.944"/>
      </g>
     </g>
    </g>
    <g id="text_5">
     <!-- log10(# (f+g)-evals / dimension) -->
     <g transform="translate(58.145016 342.217594)scale(0.17 -0.17)">
      <defs>
       <path d="M 9.421875 75.984375 
L 18.40625 75.984375 
L 18.40625 0 
L 9.421875 0 
z
" id="DejaVuSans-108"/>
       <path d="M 30.609375 48.390625 
Q 23.390625 48.390625 19.1875 42.75 
Q 14.984375 37.109375 14.984375 27.296875 
Q 14.984375 17.484375 19.15625 11.84375 
Q 23.34375 6.203125 30.609375 6.203125 
Q 37.796875 6.203125 41.984375 11.859375 
Q 46.1875 17.53125 46.1875 27.296875 
Q 46.1875 37.015625 41.984375 42.703125 
Q 37.796875 48.390625 30.609375 48.390625 
z
M 30.609375 56 
Q 42.328125 56 49.015625 48.375 
Q 55.71875 40.765625 55.71875 27.296875 
Q 55.71875 13.875 49.015625 6.21875 
Q 42.328125 -1.421875 30.609375 -1.421875 
Q 18.84375 -1.421875 12.171875 6.21875 
Q 5.515625 13.875 5.515625 27.296875 
Q 5.515625 40.765625 12.171875 48.375 
Q 18.84375 56 30.609375 56 
z
" id="DejaVuSans-111"/>
       <path d="M 45.40625 27.984375 
Q 45.40625 37.75 41.375 43.109375 
Q 37.359375 48.484375 30.078125 48.484375 
Q 22.859375 48.484375 18.828125 43.109375 
Q 14.796875 37.75 14.796875 27.984375 
Q 14.796875 18.265625 18.828125 12.890625 
Q 22.859375 7.515625 30.078125 7.515625 
Q 37.359375 7.515625 41.375 12.890625 
Q 45.40625 18.265625 45.40625 27.984375 
z
M 54.390625 6.78125 
Q 54.390625 -7.171875 48.1875 -13.984375 
Q 42 -20.796875 29.203125 -20.796875 
Q 24.46875 -20.796875 20.265625 -20.09375 
Q 16.0625 -19.390625 12.109375 -17.921875 
L 12.109375 -9.1875 
Q 16.0625 -11.328125 19.921875 -12.34375 
Q 23.78125 -13.375 27.78125 -13.375 
Q 36.625 -13.375 41.015625 -8.765625 
Q 45.40625 -4.15625 45.40625 5.171875 
L 45.40625 9.625 
Q 42.625 4.78125 38.28125 2.390625 
Q 33.9375 0 27.875 0 
Q 17.828125 0 11.671875 7.65625 
Q 5.515625 15.328125 5.515625 27.984375 
Q 5.515625 40.671875 11.671875 48.328125 
Q 17.828125 56 27.875 56 
Q 33.9375 56 38.28125 53.609375 
Q 42.625 51.21875 45.40625 46.390625 
L 45.40625 54.6875 
L 54.390625 54.6875 
z
" id="DejaVuSans-103"/>
       <path d="M 12.40625 8.296875 
L 28.515625 8.296875 
L 28.515625 63.921875 
L 10.984375 60.40625 
L 10.984375 69.390625 
L 28.421875 72.90625 
L 38.28125 72.90625 
L 38.28125 8.296875 
L 54.390625 8.296875 
L 54.390625 0 
L 12.40625 0 
z
" id="DejaVuSans-49"/>
       <path d="M 31 75.875 
Q 24.46875 64.65625 21.28125 53.65625 
Q 18.109375 42.671875 18.109375 31.390625 
Q 18.109375 20.125 21.3125 9.0625 
Q 24.515625 -2 31 -13.1875 
L 23.1875 -13.1875 
Q 15.875 -1.703125 12.234375 9.375 
Q 8.59375 20.453125 8.59375 31.390625 
Q 8.59375 42.28125 12.203125 53.3125 
Q 15.828125 64.359375 23.1875 75.875 
z
" id="DejaVuSans-40"/>
       <path d="M 51.125 44 
L 36.921875 44 
L 32.8125 27.6875 
L 47.125 27.6875 
z
M 43.796875 71.78125 
L 38.71875 51.515625 
L 52.984375 51.515625 
L 58.109375 71.78125 
L 65.921875 71.78125 
L 60.890625 51.515625 
L 76.125 51.515625 
L 76.125 44 
L 58.984375 44 
L 54.984375 27.6875 
L 70.515625 27.6875 
L 70.515625 20.21875 
L 53.078125 20.21875 
L 48 0 
L 40.1875 0 
L 45.21875 20.21875 
L 30.90625 20.21875 
L 25.875 0 
L 18.015625 0 
L 23.09375 20.21875 
L 7.71875 20.21875 
L 7.71875 27.6875 
L 24.90625 27.6875 
L 29 44 
L 13.28125 44 
L 13.28125 51.515625 
L 30.90625 51.515625 
L 35.890625 71.78125 
z
" id="DejaVuSans-35"/>
       <path id="DejaVuSans-32"/>
       <path d="M 37.109375 75.984375 
L 37.109375 68.5 
L 28.515625 68.5 
Q 23.6875 68.5 21.796875 66.546875 
Q 19.921875 64.59375 19.921875 59.515625 
L 19.921875 54.6875 
L 34.71875 54.6875 
L 34.71875 47.703125 
L 19.921875 47.703125 
L 19.921875 0 
L 10.890625 0 
L 10.890625 47.703125 
L 2.296875 47.703125 
L 2.296875 54.6875 
L 10.890625 54.6875 
L 10.890625 58.5 
Q 10.890625 67.625 15.140625 71.796875 
Q 19.390625 75.984375 28.609375 75.984375 
z
" id="DejaVuSans-102"/>
       <path d="M 46 62.703125 
L 46 35.5 
L 73.1875 35.5 
L 73.1875 27.203125 
L 46 27.203125 
L 46 0 
L 37.796875 0 
L 37.796875 27.203125 
L 10.59375 27.203125 
L 10.59375 35.5 
L 37.796875 35.5 
L 37.796875 62.703125 
z
" id="DejaVuSans-43"/>
       <path d="M 8.015625 75.875 
L 15.828125 75.875 
Q 23.140625 64.359375 26.78125 53.3125 
Q 30.421875 42.28125 30.421875 31.390625 
Q 30.421875 20.453125 26.78125 9.375 
Q 23.140625 -1.703125 15.828125 -13.1875 
L 8.015625 -13.1875 
Q 14.5 -2 17.703125 9.0625 
Q 20.90625 20.125 20.90625 31.390625 
Q 20.90625 42.671875 17.703125 53.65625 
Q 14.5 64.65625 8.015625 75.875 
z
" id="DejaVuSans-41"/>
       <path d="M 4.890625 31.390625 
L 31.203125 31.390625 
L 31.203125 23.390625 
L 4.890625 23.390625 
z
" id="DejaVuSans-45"/>
       <path d="M 56.203125 29.59375 
L 56.203125 25.203125 
L 14.890625 25.203125 
Q 15.484375 15.921875 20.484375 11.0625 
Q 25.484375 6.203125 34.421875 6.203125 
Q 39.59375 6.203125 44.453125 7.46875 
Q 49.3125 8.734375 54.109375 11.28125 
L 54.109375 2.78125 
Q 49.265625 0.734375 44.1875 -0.34375 
Q 39.109375 -1.421875 33.890625 -1.421875 
Q 20.796875 -1.421875 13.15625 6.1875 
Q 5.515625 13.8125 5.515625 26.8125 
Q 5.515625 40.234375 12.765625 48.109375 
Q 20.015625 56 32.328125 56 
Q 43.359375 56 49.78125 48.890625 
Q 56.203125 41.796875 56.203125 29.59375 
z
M 47.21875 32.234375 
Q 47.125 39.59375 43.09375 43.984375 
Q 39.0625 48.390625 32.421875 48.390625 
Q 24.90625 48.390625 20.390625 44.140625 
Q 15.875 39.890625 15.1875 32.171875 
z
" id="DejaVuSans-101"/>
       <path d="M 2.984375 54.6875 
L 12.5 54.6875 
L 29.59375 8.796875 
L 46.6875 54.6875 
L 56.203125 54.6875 
L 35.6875 0 
L 23.484375 0 
z
" id="DejaVuSans-118"/>
       <path d="M 34.28125 27.484375 
Q 23.390625 27.484375 19.1875 25 
Q 14.984375 22.515625 14.984375 16.5 
Q 14.984375 11.71875 18.140625 8.90625 
Q 21.296875 6.109375 26.703125 6.109375 
Q 34.1875 6.109375 38.703125 11.40625 
Q 43.21875 16.703125 43.21875 25.484375 
L 43.21875 27.484375 
z
M 52.203125 31.203125 
L 52.203125 0 
L 43.21875 0 
L 43.21875 8.296875 
Q 40.140625 3.328125 35.546875 0.953125 
Q 30.953125 -1.421875 24.3125 -1.421875 
Q 15.921875 -1.421875 10.953125 3.296875 
Q 6 8.015625 6 15.921875 
Q 6 25.140625 12.171875 29.828125 
Q 18.359375 34.515625 30.609375 34.515625 
L 43.21875 34.515625 
L 43.21875 35.40625 
Q 43.21875 41.609375 39.140625 45 
Q 35.0625 48.390625 27.6875 48.390625 
Q 23 48.390625 18.546875 47.265625 
Q 14.109375 46.140625 10.015625 43.890625 
L 10.015625 52.203125 
Q 14.9375 54.109375 19.578125 55.046875 
Q 24.21875 56 28.609375 56 
Q 40.484375 56 46.34375 49.84375 
Q 52.203125 43.703125 52.203125 31.203125 
z
" id="DejaVuSans-97"/>
       <path d="M 44.28125 53.078125 
L 44.28125 44.578125 
Q 40.484375 46.53125 36.375 47.5 
Q 32.28125 48.484375 27.875 48.484375 
Q 21.1875 48.484375 17.84375 46.4375 
Q 14.5 44.390625 14.5 40.28125 
Q 14.5 37.15625 16.890625 35.375 
Q 19.28125 33.59375 26.515625 31.984375 
L 29.59375 31.296875 
Q 39.15625 29.25 43.1875 25.515625 
Q 47.21875 21.78125 47.21875 15.09375 
Q 47.21875 7.46875 41.1875 3.015625 
Q 35.15625 -1.421875 24.609375 -1.421875 
Q 20.21875 -1.421875 15.453125 -0.5625 
Q 10.6875 0.296875 5.421875 2 
L 5.421875 11.28125 
Q 10.40625 8.6875 15.234375 7.390625 
Q 20.0625 6.109375 24.8125 6.109375 
Q 31.15625 6.109375 34.5625 8.28125 
Q 37.984375 10.453125 37.984375 14.40625 
Q 37.984375 18.0625 35.515625 20.015625 
Q 33.0625 21.96875 24.703125 23.78125 
L 21.578125 24.515625 
Q 13.234375 26.265625 9.515625 29.90625 
Q 5.8125 33.546875 5.8125 39.890625 
Q 5.8125 47.609375 11.28125 51.796875 
Q 16.75 56 26.8125 56 
Q 31.78125 56 36.171875 55.265625 
Q 40.578125 54.546875 44.28125 53.078125 
z
" id="DejaVuSans-115"/>
       <path d="M 25.390625 72.90625 
L 33.6875 72.90625 
L 8.296875 -9.28125 
L 0 -9.28125 
z
" id="DejaVuSans-47"/>
       <path d="M 45.40625 46.390625 
L 45.40625 75.984375 
L 54.390625 75.984375 
L 54.390625 0 
L 45.40625 0 
L 45.40625 8.203125 
Q 42.578125 3.328125 38.25 0.953125 
Q 33.9375 -1.421875 27.875 -1.421875 
Q 17.96875 -1.421875 11.734375 6.484375 
Q 5.515625 14.40625 5.515625 27.296875 
Q 5.515625 40.1875 11.734375 48.09375 
Q 17.96875 56 27.875 56 
Q 33.9375 56 38.25 53.625 
Q 42.578125 51.265625 45.40625 46.390625 
z
M 14.796875 27.296875 
Q 14.796875 17.390625 18.875 11.75 
Q 22.953125 6.109375 30.078125 6.109375 
Q 37.203125 6.109375 41.296875 11.75 
Q 45.40625 17.390625 45.40625 27.296875 
Q 45.40625 37.203125 41.296875 42.84375 
Q 37.203125 48.484375 30.078125 48.484375 
Q 22.953125 48.484375 18.875 42.84375 
Q 14.796875 37.203125 14.796875 27.296875 
z
" id="DejaVuSans-100"/>
       <path d="M 9.421875 54.6875 
L 18.40625 54.6875 
L 18.40625 0 
L 9.421875 0 
z
M 9.421875 75.984375 
L 18.40625 75.984375 
L 18.40625 64.59375 
L 9.421875 64.59375 
z
" id="DejaVuSans-105"/>
       <path d="M 52 44.1875 
Q 55.375 50.25 60.0625 53.125 
Q 64.75 56 71.09375 56 
Q 79.640625 56 84.28125 50.015625 
Q 88.921875 44.046875 88.921875 33.015625 
L 88.921875 0 
L 79.890625 0 
L 79.890625 32.71875 
Q 79.890625 40.578125 77.09375 44.375 
Q 74.3125 48.1875 68.609375 48.1875 
Q 61.625 48.1875 57.5625 43.546875 
Q 53.515625 38.921875 53.515625 30.90625 
L 53.515625 0 
L 44.484375 0 
L 44.484375 32.71875 
Q 44.484375 40.625 41.703125 44.40625 
Q 38.921875 48.1875 33.109375 48.1875 
Q 26.21875 48.1875 22.15625 43.53125 
Q 18.109375 38.875 18.109375 30.90625 
L 18.109375 0 
L 9.078125 0 
L 9.078125 54.6875 
L 18.109375 54.6875 
L 18.109375 46.1875 
Q 21.1875 51.21875 25.484375 53.609375 
Q 29.78125 56 35.6875 56 
Q 41.65625 56 45.828125 52.96875 
Q 50 49.953125 52 44.1875 
z
" id="DejaVuSans-109"/>
       <path d="M 54.890625 33.015625 
L 54.890625 0 
L 45.90625 0 
L 45.90625 32.71875 
Q 45.90625 40.484375 42.875 44.328125 
Q 39.84375 48.1875 33.796875 48.1875 
Q 26.515625 48.1875 22.3125 43.546875 
Q 18.109375 38.921875 18.109375 30.90625 
L 18.109375 0 
L 9.078125 0 
L 9.078125 54.6875 
L 18.109375 54.6875 
L 18.109375 46.1875 
Q 21.34375 51.125 25.703125 53.5625 
Q 30.078125 56 35.796875 56 
Q 45.21875 56 50.046875 50.171875 
Q 54.890625 44.34375 54.890625 33.015625 
z
" id="DejaVuSans-110"/>
      </defs>
      <use xlink:href="#DejaVuSans-108"/>
      <use x="27.783203" xlink:href="#DejaVuSans-111"/>
      <use x="88.964844" xlink:href="#DejaVuSans-103"/>
      <use x="152.441406" xlink:href="#DejaVuSans-49"/>
      <use x="216.064453" xlink:href="#DejaVuSans-48"/>
      <use x="279.6875" xlink:href="#DejaVuSans-40"/>
      <use x="318.701172" xlink:href="#DejaVuSans-35"/>
      <use x="402.490234" xlink:href="#DejaVuSans-32"/>
      <use x="434.277344" xlink:href="#DejaVuSans-40"/>
      <use x="473.291016" xlink:href="#DejaVuSans-102"/>
      <use x="508.496094" xlink:href="#DejaVuSans-43"/>
      <use x="592.285156" xlink:href="#DejaVuSans-103"/>
      <use x="655.761719" xlink:href="#DejaVuSans-41"/>
      <use x="694.775391" xlink:href="#DejaVuSans-45"/>
      <use x="730.859375" xlink:href="#DejaVuSans-101"/>
      <use x="792.382812" xlink:href="#DejaVuSans-118"/>
      <use x="851.5625" xlink:href="#DejaVuSans-97"/>
      <use x="912.841797" xlink:href="#DejaVuSans-108"/>
      <use x="940.625" xlink:href="#DejaVuSans-115"/>
      <use x="992.724609" xlink:href="#DejaVuSans-32"/>
      <use x="1024.511719" xlink:href="#DejaVuSans-47"/>
      <use x="1058.203125" xlink:href="#DejaVuSans-32"/>
      <use x="1089.990234" xlink:href="#DejaVuSans-100"/>
      <use x="1153.466797" xlink:href="#DejaVuSans-105"/>
      <use x="1181.25" xlink:href="#DejaVuSans-109"/>
      <use x="1278.662109" xlink:href="#DejaVuSans-101"/>
      <use x="1340.185547" xlink:href="#DejaVuSans-110"/>
      <use x="1403.564453" xlink:href="#DejaVuSans-115"/>
      <use x="1455.664062" xlink:href="#DejaVuSans-105"/>
      <use x="1483.447266" xlink:href="#DejaVuSans-111"/>
      <use x="1544.628906" xlink:href="#DejaVuSans-110"/>
      <use x="1608.007812" xlink:href="#DejaVuSans-41"/>
     </g>
    </g>
   </g>
   <g id="matplotlib.axis_2">
    <g id="ytick_1">
     <g id="line2d_17">
      <path clip-path="url(#p3f8cc758ff)" d="M 57.6 298.944 
L 338.688 298.944 
" style="fill:none;stroke:#b0b0b0;stroke-linecap:square;stroke-width:0.8;"/>
     </g>
     <g id="line2d_18">
      <defs>
       <path d="M 0 0 
L -3.5 0 
" id="m7abe9af777" style="stroke:#000000;stroke-width:0.8;"/>
      </defs>
      <g>
       <use style="stroke:#000000;stroke-width:0.8;" x="57.6" xlink:href="#m7abe9af777" y="298.944"/>
      </g>
     </g>
     <g id="text_6">
      <!-- 0.0 -->
      <g transform="translate(25.155 305.02275)scale(0.16 -0.16)">
       <defs>
        <path d="M 10.6875 12.40625 
L 21 12.40625 
L 21 0 
L 10.6875 0 
z
" id="DejaVuSans-46"/>
       </defs>
       <use xlink:href="#DejaVuSans-48"/>
       <use x="63.623047" xlink:href="#DejaVuSans-46"/>
       <use x="95.410156" xlink:href="#DejaVuSans-48"/>
      </g>
     </g>
    </g>
    <g id="ytick_2">
     <g id="line2d_19">
      <path clip-path="url(#p3f8cc758ff)" d="M 57.6 245.22202 
L 338.688 245.22202 
" style="fill:none;stroke:#b0b0b0;stroke-linecap:square;stroke-width:0.8;"/>
     </g>
     <g id="line2d_20">
      <g>
       <use style="stroke:#000000;stroke-width:0.8;" x="57.6" xlink:href="#m7abe9af777" y="245.22202"/>
      </g>
     </g>
     <g id="text_7">
      <!-- 0.2 -->
      <g transform="translate(25.155 251.30077)scale(0.16 -0.16)">
       <use xlink:href="#DejaVuSans-48"/>
       <use x="63.623047" xlink:href="#DejaVuSans-46"/>
       <use x="95.410156" xlink:href="#DejaVuSans-50"/>
      </g>
     </g>
    </g>
    <g id="ytick_3">
     <g id="line2d_21">
      <path clip-path="url(#p3f8cc758ff)" d="M 57.6 191.50004 
L 338.688 191.50004 
" style="fill:none;stroke:#b0b0b0;stroke-linecap:square;stroke-width:0.8;"/>
     </g>
     <g id="line2d_22">
      <g>
       <use style="stroke:#000000;stroke-width:0.8;" x="57.6" xlink:href="#m7abe9af777" y="191.50004"/>
      </g>
     </g>
     <g id="text_8">
      <!-- 0.4 -->
      <g transform="translate(25.155 197.57879)scale(0.16 -0.16)">
       <use xlink:href="#DejaVuSans-48"/>
       <use x="63.623047" xlink:href="#DejaVuSans-46"/>
       <use x="95.410156" xlink:href="#DejaVuSans-52"/>
      </g>
     </g>
    </g>
    <g id="ytick_4">
     <g id="line2d_23">
      <path clip-path="url(#p3f8cc758ff)" d="M 57.6 137.778059 
L 338.688 137.778059 
" style="fill:none;stroke:#b0b0b0;stroke-linecap:square;stroke-width:0.8;"/>
     </g>
     <g id="line2d_24">
      <g>
       <use style="stroke:#000000;stroke-width:0.8;" x="57.6" xlink:href="#m7abe9af777" y="137.778059"/>
      </g>
     </g>
     <g id="text_9">
      <!-- 0.6 -->
      <g transform="translate(25.155 143.856809)scale(0.16 -0.16)">
       <use xlink:href="#DejaVuSans-48"/>
       <use x="63.623047" xlink:href="#DejaVuSans-46"/>
       <use x="95.410156" xlink:href="#DejaVuSans-54"/>
      </g>
     </g>
    </g>
    <g id="ytick_5">
     <g id="line2d_25">
      <path clip-path="url(#p3f8cc758ff)" d="M 57.6 84.056079 
L 338.688 84.056079 
" style="fill:none;stroke:#b0b0b0;stroke-linecap:square;stroke-width:0.8;"/>
     </g>
     <g id="line2d_26">
      <g>
       <use style="stroke:#000000;stroke-width:0.8;" x="57.6" xlink:href="#m7abe9af777" y="84.056079"/>
      </g>
     </g>
     <g id="text_10">
      <!-- 0.8 -->
      <g transform="translate(25.155 90.134829)scale(0.16 -0.16)">
       <defs>
        <path d="M 31.78125 34.625 
Q 24.75 34.625 20.71875 30.859375 
Q 16.703125 27.09375 16.703125 20.515625 
Q 16.703125 13.921875 20.71875 10.15625 
Q 24.75 6.390625 31.78125 6.390625 
Q 38.8125 6.390625 42.859375 10.171875 
Q 46.921875 13.96875 46.921875 20.515625 
Q 46.921875 27.09375 42.890625 30.859375 
Q 38.875 34.625 31.78125 34.625 
z
M 21.921875 38.8125 
Q 15.578125 40.375 12.03125 44.71875 
Q 8.5 49.078125 8.5 55.328125 
Q 8.5 64.0625 14.71875 69.140625 
Q 20.953125 74.21875 31.78125 74.21875 
Q 42.671875 74.21875 48.875 69.140625 
Q 55.078125 64.0625 55.078125 55.328125 
Q 55.078125 49.078125 51.53125 44.71875 
Q 48 40.375 41.703125 38.8125 
Q 48.828125 37.15625 52.796875 32.3125 
Q 56.78125 27.484375 56.78125 20.515625 
Q 56.78125 9.90625 50.3125 4.234375 
Q 43.84375 -1.421875 31.78125 -1.421875 
Q 19.734375 -1.421875 13.25 4.234375 
Q 6.78125 9.90625 6.78125 20.515625 
Q 6.78125 27.484375 10.78125 32.3125 
Q 14.796875 37.15625 21.921875 38.8125 
z
M 18.3125 54.390625 
Q 18.3125 48.734375 21.84375 45.5625 
Q 25.390625 42.390625 31.78125 42.390625 
Q 38.140625 42.390625 41.71875 45.5625 
Q 45.3125 48.734375 45.3125 54.390625 
Q 45.3125 60.0625 41.71875 63.234375 
Q 38.140625 66.40625 31.78125 66.40625 
Q 25.390625 66.40625 21.84375 63.234375 
Q 18.3125 60.0625 18.3125 54.390625 
z
" id="DejaVuSans-56"/>
       </defs>
       <use xlink:href="#DejaVuSans-48"/>
       <use x="63.623047" xlink:href="#DejaVuSans-46"/>
       <use x="95.410156" xlink:href="#DejaVuSans-56"/>
      </g>
     </g>
    </g>
    <g id="ytick_6">
     <g id="line2d_27">
      <path clip-path="url(#p3f8cc758ff)" d="M 57.6 30.334099 
L 338.688 30.334099 
" style="fill:none;stroke:#b0b0b0;stroke-linecap:square;stroke-width:0.8;"/>
     </g>
     <g id="line2d_28">
      <g>
       <use style="stroke:#000000;stroke-width:0.8;" x="57.6" xlink:href="#m7abe9af777" y="30.334099"/>
      </g>
     </g>
     <g id="text_11">
      <!-- 1.0 -->
      <g transform="translate(25.155 36.412849)scale(0.16 -0.16)">
       <use xlink:href="#DejaVuSans-49"/>
       <use x="63.623047" xlink:href="#DejaVuSans-46"/>
       <use x="95.410156" xlink:href="#DejaVuSans-48"/>
      </g>
     </g>
    </g>
    <g id="text_12">
     <!-- Fraction of function,target pairs -->
     <g transform="translate(17.619531 297.681)rotate(-90)scale(0.17 -0.17)">
      <defs>
       <path d="M 9.8125 72.90625 
L 51.703125 72.90625 
L 51.703125 64.59375 
L 19.671875 64.59375 
L 19.671875 43.109375 
L 48.578125 43.109375 
L 48.578125 34.8125 
L 19.671875 34.8125 
L 19.671875 0 
L 9.8125 0 
z
" id="DejaVuSans-70"/>
       <path d="M 41.109375 46.296875 
Q 39.59375 47.171875 37.8125 47.578125 
Q 36.03125 48 33.890625 48 
Q 26.265625 48 22.1875 43.046875 
Q 18.109375 38.09375 18.109375 28.8125 
L 18.109375 0 
L 9.078125 0 
L 9.078125 54.6875 
L 18.109375 54.6875 
L 18.109375 46.1875 
Q 20.953125 51.171875 25.484375 53.578125 
Q 30.03125 56 36.53125 56 
Q 37.453125 56 38.578125 55.875 
Q 39.703125 55.765625 41.0625 55.515625 
z
" id="DejaVuSans-114"/>
       <path d="M 48.78125 52.59375 
L 48.78125 44.1875 
Q 44.96875 46.296875 41.140625 47.34375 
Q 37.3125 48.390625 33.40625 48.390625 
Q 24.65625 48.390625 19.8125 42.84375 
Q 14.984375 37.3125 14.984375 27.296875 
Q 14.984375 17.28125 19.8125 11.734375 
Q 24.65625 6.203125 33.40625 6.203125 
Q 37.3125 6.203125 41.140625 7.25 
Q 44.96875 8.296875 48.78125 10.40625 
L 48.78125 2.09375 
Q 45.015625 0.34375 40.984375 -0.53125 
Q 36.96875 -1.421875 32.421875 -1.421875 
Q 20.0625 -1.421875 12.78125 6.34375 
Q 5.515625 14.109375 5.515625 27.296875 
Q 5.515625 40.671875 12.859375 48.328125 
Q 20.21875 56 33.015625 56 
Q 37.15625 56 41.109375 55.140625 
Q 45.0625 54.296875 48.78125 52.59375 
z
" id="DejaVuSans-99"/>
       <path d="M 18.3125 70.21875 
L 18.3125 54.6875 
L 36.8125 54.6875 
L 36.8125 47.703125 
L 18.3125 47.703125 
L 18.3125 18.015625 
Q 18.3125 11.328125 20.140625 9.421875 
Q 21.96875 7.515625 27.59375 7.515625 
L 36.8125 7.515625 
L 36.8125 0 
L 27.59375 0 
Q 17.1875 0 13.234375 3.875 
Q 9.28125 7.765625 9.28125 18.015625 
L 9.28125 47.703125 
L 2.6875 47.703125 
L 2.6875 54.6875 
L 9.28125 54.6875 
L 9.28125 70.21875 
z
" id="DejaVuSans-116"/>
       <path d="M 8.5 21.578125 
L 8.5 54.6875 
L 17.484375 54.6875 
L 17.484375 21.921875 
Q 17.484375 14.15625 20.5 10.265625 
Q 23.53125 6.390625 29.59375 6.390625 
Q 36.859375 6.390625 41.078125 11.03125 
Q 45.3125 15.671875 45.3125 23.6875 
L 45.3125 54.6875 
L 54.296875 54.6875 
L 54.296875 0 
L 45.3125 0 
L 45.3125 8.40625 
Q 42.046875 3.421875 37.71875 1 
Q 33.40625 -1.421875 27.6875 -1.421875 
Q 18.265625 -1.421875 13.375 4.4375 
Q 8.5 10.296875 8.5 21.578125 
z
M 31.109375 56 
z
" id="DejaVuSans-117"/>
       <path d="M 11.71875 12.40625 
L 22.015625 12.40625 
L 22.015625 4 
L 14.015625 -11.625 
L 7.71875 -11.625 
L 11.71875 4 
z
" id="DejaVuSans-44"/>
       <path d="M 18.109375 8.203125 
L 18.109375 -20.796875 
L 9.078125 -20.796875 
L 9.078125 54.6875 
L 18.109375 54.6875 
L 18.109375 46.390625 
Q 20.953125 51.265625 25.265625 53.625 
Q 29.59375 56 35.59375 56 
Q 45.5625 56 51.78125 48.09375 
Q 58.015625 40.1875 58.015625 27.296875 
Q 58.015625 14.40625 51.78125 6.484375 
Q 45.5625 -1.421875 35.59375 -1.421875 
Q 29.59375 -1.421875 25.265625 0.953125 
Q 20.953125 3.328125 18.109375 8.203125 
z
M 48.6875 27.296875 
Q 48.6875 37.203125 44.609375 42.84375 
Q 40.53125 48.484375 33.40625 48.484375 
Q 26.265625 48.484375 22.1875 42.84375 
Q 18.109375 37.203125 18.109375 27.296875 
Q 18.109375 17.390625 22.1875 11.75 
Q 26.265625 6.109375 33.40625 6.109375 
Q 40.53125 6.109375 44.609375 11.75 
Q 48.6875 17.390625 48.6875 27.296875 
z
" id="DejaVuSans-112"/>
      </defs>
      <use xlink:href="#DejaVuSans-70"/>
      <use x="50.269531" xlink:href="#DejaVuSans-114"/>
      <use x="91.382812" xlink:href="#DejaVuSans-97"/>
      <use x="152.662109" xlink:href="#DejaVuSans-99"/>
      <use x="207.642578" xlink:href="#DejaVuSans-116"/>
      <use x="246.851562" xlink:href="#DejaVuSans-105"/>
      <use x="274.634766" xlink:href="#DejaVuSans-111"/>
      <use x="335.816406" xlink:href="#DejaVuSans-110"/>
      <use x="399.195312" xlink:href="#DejaVuSans-32"/>
      <use x="430.982422" xlink:href="#DejaVuSans-111"/>
      <use x="492.164062" xlink:href="#DejaVuSans-102"/>
      <use x="527.369141" xlink:href="#DejaVuSans-32"/>
      <use x="559.15625" xlink:href="#DejaVuSans-102"/>
      <use x="594.361328" xlink:href="#DejaVuSans-117"/>
      <use x="657.740234" xlink:href="#DejaVuSans-110"/>
      <use x="721.119141" xlink:href="#DejaVuSans-99"/>
      <use x="776.099609" xlink:href="#DejaVuSans-116"/>
      <use x="815.308594" xlink:href="#DejaVuSans-105"/>
      <use x="843.091797" xlink:href="#DejaVuSans-111"/>
      <use x="904.273438" xlink:href="#DejaVuSans-110"/>
      <use x="967.652344" xlink:href="#DejaVuSans-44"/>
      <use x="999.439453" xlink:href="#DejaVuSans-116"/>
      <use x="1038.648438" xlink:href="#DejaVuSans-97"/>
      <use x="1099.927734" xlink:href="#DejaVuSans-114"/>
      <use x="1139.291016" xlink:href="#DejaVuSans-103"/>
      <use x="1202.767578" xlink:href="#DejaVuSans-101"/>
      <use x="1264.291016" xlink:href="#DejaVuSans-116"/>
      <use x="1303.5" xlink:href="#DejaVuSans-32"/>
      <use x="1335.287109" xlink:href="#DejaVuSans-112"/>
      <use x="1398.763672" xlink:href="#DejaVuSans-97"/>
      <use x="1460.042969" xlink:href="#DejaVuSans-105"/>
      <use x="1487.826172" xlink:href="#DejaVuSans-114"/>
      <use x="1528.939453" xlink:href="#DejaVuSans-115"/>
     </g>
    </g>
   </g>
   <g id="line2d_29">
    <defs>
     <path d="M 0 1.5 
C 0.397805 1.5 0.77937 1.341951 1.06066 1.06066 
C 1.341951 0.77937 1.5 0.397805 1.5 0 
C 1.5 -0.397805 1.341951 -0.77937 1.06066 -1.06066 
C 0.77937 -1.341951 0.397805 -1.5 0 -1.5 
C -0.397805 -1.5 -0.77937 -1.341951 -1.06066 -1.06066 
C -1.341951 -0.77937 -1.5 -0.397805 -1.5 0 
C -1.5 0.397805 -1.341951 0.77937 -1.06066 1.06066 
C -0.77937 1.341951 -0.397805 1.5 0 1.5 
z
" id="md68f8be908" style="stroke:#000080;"/>
    </defs>
    <g>
     <use style="fill:#000080;stroke:#000080;" x="178.683063" xlink:href="#md68f8be908" y="30.334099"/>
     <use style="fill:#000080;stroke:#000080;" x="178.683063" xlink:href="#md68f8be908" y="30.334099"/>
    </g>
   </g>
   <g id="line2d_30">
    <path d="M 125.110962 298.944 
L 125.110962 297.633708 
L 129.853291 297.633708 
L 129.853291 296.978562 
L 130.127931 296.978562 
L 130.127931 295.66827 
L 133.57787 295.66827 
L 133.57787 295.013123 
L 136.073445 295.013123 
L 136.073445 294.357977 
L 137.735587 294.357977 
L 137.735587 293.702831 
L 137.910857 293.702831 
L 137.910857 293.047685 
L 138.927025 293.047685 
L 138.927025 292.392539 
L 139.090775 292.392539 
L 139.090775 291.082247 
L 140.195896 291.082247 
L 140.195896 290.427101 
L 141.090414 290.427101 
L 141.090414 289.771955 
L 142.884173 289.771955 
L 142.884173 289.116809 
L 143.144465 289.116809 
L 143.144465 288.461662 
L 143.653678 288.461662 
L 143.653678 287.806516 
L 144.148442 287.806516 
L 144.148442 285.185932 
L 144.390658 285.185932 
L 144.390658 284.530786 
L 144.747789 284.530786 
L 144.747789 283.220494 
L 146.538004 283.220494 
L 146.538004 280.599909 
L 146.749392 280.599909 
L 146.749392 279.944763 
L 146.958248 279.944763 
L 147.061745 278.634471 
L 148.161434 278.634471 
L 148.161434 277.979325 
L 148.354135 277.979325 
L 148.354135 276.669033 
L 148.733265 276.669033 
L 148.733265 275.35874 
L 148.919783 275.35874 
L 148.919783 274.703594 
L 149.286939 274.703594 
L 149.286939 273.393302 
L 149.557321 273.393302 
L 149.557321 272.08301 
L 149.911431 272.08301 
L 149.911431 271.427864 
L 150.598782 271.427864 
L 150.598782 270.772718 
L 150.766468 270.772718 
L 150.766468 270.117572 
L 151.340991 270.117572 
L 151.421542 268.152133 
L 151.818809 268.152133 
L 151.897188 266.841841 
L 152.587184 266.841841 
L 152.662192 265.531549 
L 152.959038 265.531549 
L 152.959038 264.876403 
L 153.105587 264.876403 
L 153.105587 264.221257 
L 153.537988 264.221257 
L 153.537988 262.910965 
L 153.820412 262.910965 
L 153.820412 262.255818 
L 154.439623 262.255818 
L 154.439623 261.600672 
L 154.57429 261.600672 
L 154.57429 260.945526 
L 154.77436 260.945526 
L 154.77436 260.29038 
L 154.972161 260.29038 
L 154.972161 258.324942 
L 155.167744 258.324942 
L 155.232454 256.359504 
L 155.488919 256.359504 
L 155.488919 255.704357 
L 155.61575 255.704357 
L 155.61575 255.049211 
L 155.86668 255.049211 
L 155.928852 253.738919 
L 156.052535 253.738919 
L 156.052535 251.773481 
L 156.175347 251.773481 
L 156.175347 250.463189 
L 156.297301 250.463189 
L 156.357959 248.49775 
L 156.478647 248.49775 
L 156.538679 246.532312 
L 157.1279 246.532312 
L 157.185742 243.911728 
L 157.243392 243.911728 
L 157.243392 243.256582 
L 157.415209 243.256582 
L 157.472107 241.946289 
L 157.976006 241.946289 
L 157.976006 241.291143 
L 158.140788 241.291143 
L 158.140788 239.980851 
L 158.358103 239.980851 
L 158.358103 238.670559 
L 158.625992 238.670559 
L 158.732007 236.049974 
L 158.994256 236.049974 
L 159.046236 233.42939 
L 159.252621 233.42939 
L 159.252621 232.774244 
L 159.405822 232.774244 
L 159.507213 231.463952 
L 159.557689 231.463952 
L 159.658204 228.843367 
L 159.758143 228.843367 
L 159.857512 222.291906 
L 160.054568 222.291906 
L 160.103486 220.326468 
L 160.346039 220.326468 
L 160.442124 217.705884 
L 160.489968 217.705884 
L 160.585265 216.395591 
L 160.727241 216.395591 
L 160.727241 215.740445 
L 160.86807 215.740445 
L 160.86807 215.085299 
L 161.100288 215.085299 
L 161.192316 211.154423 
L 161.238149 211.154423 
L 161.238149 209.84413 
L 161.420284 209.84413 
L 161.420284 209.188984 
L 161.555647 209.188984 
L 161.555647 207.223546 
L 161.689969 207.223546 
L 161.689969 206.5684 
L 161.911563 206.5684 
L 161.911563 205.913254 
L 162.043181 205.913254 
L 162.086834 204.602962 
L 162.346481 204.602962 
L 162.346481 201.982377 
L 162.644595 201.982377 
L 162.644595 201.327231 
L 162.812686 201.327231 
L 162.896128 200.016939 
L 163.061823 200.016939 
L 163.061823 199.361793 
L 163.266752 199.361793 
L 163.266752 198.706647 
L 163.469301 198.706647 
L 163.549667 194.120624 
L 163.867476 194.120624 
L 163.867476 193.465478 
L 163.985177 193.465478 
L 163.985177 190.189747 
L 164.102088 190.189747 
L 164.140886 188.879455 
L 164.256762 188.879455 
L 164.333587 187.569163 
L 164.562052 187.569163 
L 164.562052 184.948579 
L 164.86209 184.948579 
L 164.86209 182.98314 
L 165.010195 182.98314 
L 165.120455 181.017702 
L 165.230021 181.017702 
L 165.230021 180.362556 
L 165.375047 180.362556 
L 165.375047 179.70741 
L 165.518877 179.70741 
L 165.518877 177.741972 
L 165.697012 177.741972 
L 165.697012 177.086825 
L 165.873346 177.086825 
L 165.978297 175.121387 
L 166.013141 175.121387 
L 166.013141 174.466241 
L 166.151824 174.466241 
L 166.186323 171.845657 
L 166.391896 171.845657 
L 166.391896 170.535364 
L 166.662278 170.535364 
L 166.662278 169.880218 
L 167.288118 169.880218 
L 167.384913 166.604488 
L 167.449146 166.604488 
L 167.545055 163.328757 
L 167.76681 163.328757 
L 167.860992 158.742735 
L 167.954668 158.742735 
L 167.985782 154.811858 
L 168.109685 154.811858 
L 168.202038 151.536128 
L 168.293904 151.536128 
L 168.293904 150.225835 
L 168.415645 150.225835 
L 168.506396 144.32952 
L 168.626667 144.32952 
L 168.626667 143.019228 
L 169.070439 143.019228 
L 169.070439 141.708936 
L 169.215888 141.708936 
L 169.215888 140.398644 
L 169.417501 140.398644 
L 169.474679 138.433206 
L 169.616809 138.433206 
L 169.701534 136.467767 
L 169.813865 136.467767 
L 169.813865 135.157475 
L 169.925477 135.157475 
L 169.925477 133.847183 
L 170.228776 133.847183 
L 170.337772 132.536891 
L 170.392016 132.536891 
L 170.473066 128.606014 
L 170.767069 128.606014 
L 170.846398 127.295722 
L 170.925369 127.295722 
L 171.030109 124.019991 
L 171.108254 124.019991 
L 171.211906 116.813384 
L 171.340609 116.813384 
L 171.442893 115.503092 
L 171.569909 115.503092 
L 171.569909 112.882508 
L 171.696007 112.882508 
L 171.696007 112.227362 
L 171.846131 112.227362 
L 171.895887 105.675901 
L 172.142557 105.675901 
L 172.191475 103.710462 
L 172.361615 103.710462 
L 172.361615 102.40017 
L 172.673253 102.40017 
L 172.768032 100.434732 
L 172.791647 100.434732 
L 172.862299 99.12444 
L 172.932666 99.12444 
L 172.932666 98.469293 
L 173.072554 98.469293 
L 173.072554 97.814147 
L 173.188276 97.814147 
L 173.257343 95.848709 
L 173.371849 95.848709 
L 173.417442 94.538417 
L 173.485609 94.538417 
L 173.530906 91.262686 
L 173.643636 91.262686 
L 173.688525 88.642102 
L 174.021557 88.642102 
L 174.109302 85.366371 
L 174.261802 85.366371 
L 174.326753 83.400933 
L 174.412979 83.400933 
L 174.47737 76.194326 
L 174.584164 76.194326 
L 174.690307 69.642865 
L 174.795808 69.642865 
L 174.795808 68.987719 
L 175.170413 68.987719 
L 175.19099 67.677427 
L 175.415753 67.677427 
L 175.516968 65.056842 
L 175.577416 65.056842 
L 175.577416 63.74655 
L 175.717652 63.74655 
L 175.817135 59.815674 
L 175.916053 59.815674 
L 176.014414 57.195089 
L 176.112223 57.195089 
L 176.112223 56.539943 
L 176.402401 56.539943 
L 176.478973 51.95392 
L 176.536182 51.95392 
L 176.536182 51.298774 
L 176.668945 51.298774 
L 176.744358 47.367898 
L 176.894213 47.367898 
L 176.950079 45.402459 
L 177.153401 45.402459 
L 177.245042 40.816437 
L 177.588952 40.816437 
L 177.588952 40.161291 
L 177.785001 40.161291 
L 177.785001 39.506144 
L 178.013889 39.506144 
L 178.013889 37.540706 
L 178.135904 37.540706 
L 178.205245 36.230414 
L 178.274311 36.230414 
L 178.274311 34.920122 
L 178.428718 34.920122 
L 178.530902 30.989245 
L 178.683063 30.989245 
L 178.683063 30.334099 
L 338.688 30.334099 
L 338.688 30.334099 
" style="fill:none;stroke:#000080;stroke-linecap:square;stroke-width:1.5;"/>
   </g>
   <g id="line2d_31">
    <defs>
     <path d="M 0 6 
C 1.591219 6 3.117479 5.367802 4.242641 4.242641 
C 5.367802 3.117479 6 1.591219 6 0 
C 6 -1.591219 5.367802 -3.117479 4.242641 -4.242641 
C 3.117479 -5.367802 1.591219 -6 0 -6 
C -1.591219 -6 -3.117479 -5.367802 -4.242641 -4.242641 
C -5.367802 -3.117479 -6 -1.591219 -6 0 
C -6 1.591219 -5.367802 3.117479 -4.242641 4.242641 
C -3.117479 5.367802 -1.591219 6 0 6 
z
" id="mc4b874da18" style="stroke:#000080;stroke-width:1.5;"/>
    </defs>
    <g>
     <use style="fill-opacity:0;stroke:#000080;stroke-width:1.5;" x="171.18605" xlink:href="#mc4b874da18" y="117.46853"/>
     <use style="fill-opacity:0;stroke:#000080;stroke-width:1.5;" x="178.274311" xlink:href="#mc4b874da18" y="34.920122"/>
     <use style="fill-opacity:0;stroke:#000080;stroke-width:1.5;" x="178.683063" xlink:href="#mc4b874da18" y="30.334099"/>
     <use style="fill-opacity:0;stroke:#000080;stroke-width:1.5;" x="178.683063" xlink:href="#mc4b874da18" y="30.334099"/>
     <use style="fill-opacity:0;stroke:#000080;stroke-width:1.5;" x="338.688" xlink:href="#mc4b874da18" y="30.334099"/>
    </g>
   </g>
   <g id="line2d_32">
    <path style="fill:none;stroke:#000080;stroke-linecap:square;stroke-width:1.5;"/>
    <g/>
   </g>
   <g id="line2d_33">
    <defs>
     <path d="M 0 1.5 
C 0.397805 1.5 0.77937 1.341951 1.06066 1.06066 
C 1.341951 0.77937 1.5 0.397805 1.5 0 
C 1.5 -0.397805 1.341951 -0.77937 1.06066 -1.06066 
C 0.77937 -1.341951 0.397805 -1.5 0 -1.5 
C -0.397805 -1.5 -0.77937 -1.341951 -1.06066 -1.06066 
C -1.341951 -0.77937 -1.5 -0.397805 -1.5 0 
C -1.5 0.397805 -1.341951 0.77937 -1.06066 1.06066 
C -0.77937 1.341951 -0.397805 1.5 0 1.5 
z
" id="m9b07852aba" style="stroke:#ff00ff;"/>
    </defs>
    <g>
     <use style="fill:#ff00ff;stroke:#ff00ff;" x="184.594129" xlink:href="#m9b07852aba" y="30.334099"/>
     <use style="fill:#ff00ff;stroke:#ff00ff;" x="184.594129" xlink:href="#m9b07852aba" y="30.334099"/>
    </g>
   </g>
   <g id="line2d_34">
    <path d="M 123.192626 298.944 
L 123.192626 298.288854 
L 124.743806 298.288854 
L 124.743806 297.633708 
L 126.839037 297.633708 
L 126.839037 296.978562 
L 127.48501 296.978562 
L 127.48501 296.323416 
L 128.107907 296.323416 
L 128.107907 295.013123 
L 129.290685 295.013123 
L 129.290685 294.357977 
L 135.482227 294.357977 
L 135.482227 293.702831 
L 136.073445 293.702831 
L 136.073445 293.047685 
L 136.456742 293.047685 
L 136.456742 292.392539 
L 138.594838 292.392539 
L 138.594838 291.737393 
L 138.761723 291.737393 
L 138.761723 291.082247 
L 139.253002 291.082247 
L 139.253002 290.427101 
L 140.64889 290.427101 
L 140.64889 289.771955 
L 140.79731 289.771955 
L 140.79731 288.461662 
L 141.80232 288.461662 
L 141.80232 287.806516 
L 142.752555 287.806516 
L 142.752555 286.496224 
L 143.144465 286.496224 
L 143.144465 285.841078 
L 143.273169 285.841078 
L 143.273169 285.185932 
L 143.40093 285.185932 
L 143.40093 284.530786 
L 144.510517 284.530786 
L 144.510517 283.87564 
L 144.981877 283.87564 
L 144.981877 282.565348 
L 145.440832 282.565348 
L 145.440832 281.910201 
L 146.538004 281.910201 
L 146.538004 281.255055 
L 147.061745 281.255055 
L 147.061745 280.599909 
L 147.368603 280.599909 
L 147.368603 279.944763 
L 147.570215 279.944763 
L 147.570215 278.634471 
L 148.258051 278.634471 
L 148.354135 277.324179 
L 148.54473 277.324179 
L 148.639252 276.013887 
L 149.012299 276.013887 
L 149.104327 273.393302 
L 149.735275 273.393302 
L 149.823575 271.427864 
L 149.911431 271.427864 
L 149.998846 270.117572 
L 150.258492 270.117572 
L 150.258492 269.462426 
L 150.51433 269.462426 
L 150.598782 266.841841 
L 150.849711 266.841841 
L 150.849711 266.186695 
L 151.178764 266.186695 
L 151.260066 264.876403 
L 151.581536 264.876403 
L 151.581536 264.221257 
L 151.818809 264.221257 
L 151.818809 263.566111 
L 151.975216 263.566111 
L 151.975216 262.255818 
L 152.130233 262.255818 
L 152.130233 259.635234 
L 152.436193 259.635234 
L 152.511852 257.01465 
L 152.662192 257.01465 
L 152.662192 256.359504 
L 152.811246 256.359504 
L 152.811246 255.704357 
L 153.032466 255.704357 
L 153.032466 255.049211 
L 153.250915 255.049211 
L 153.250915 254.394065 
L 153.537988 254.394065 
L 153.609024 249.808043 
L 153.679772 249.808043 
L 153.750233 247.842604 
L 154.098334 247.842604 
L 154.098334 247.187458 
L 154.57429 247.187458 
L 154.641235 245.877166 
L 154.840544 245.877166 
L 154.906477 244.566874 
L 154.972161 244.566874 
L 154.972161 243.911728 
L 155.167744 243.911728 
L 155.167744 241.946289 
L 155.425155 241.946289 
L 155.425155 240.635997 
L 155.55245 240.635997 
L 155.55245 239.980851 
L 155.928852 239.980851 
L 155.928852 239.325705 
L 156.297301 239.325705 
L 156.357959 237.360267 
L 156.658127 237.360267 
L 156.717545 236.049974 
L 156.953214 236.049974 
L 156.953214 235.394828 
L 157.1279 235.394828 
L 157.1279 234.084536 
L 157.243392 234.084536 
L 157.243392 232.119098 
L 157.358125 232.119098 
L 157.358125 231.463952 
L 157.641697 231.463952 
L 157.641697 230.15366 
L 158.304027 230.15366 
L 158.304027 228.843367 
L 158.465753 228.843367 
L 158.572743 227.533075 
L 158.784773 227.533075 
L 158.784773 226.877929 
L 158.994256 226.877929 
L 158.994256 226.222783 
L 159.149734 226.222783 
L 159.149734 225.567637 
L 159.608019 225.567637 
L 159.658204 224.257345 
L 160.005512 224.257345 
L 160.103486 222.947052 
L 160.200913 222.947052 
L 160.249422 221.63676 
L 160.394148 221.63676 
L 160.442124 220.326468 
L 160.537682 220.326468 
L 160.537682 219.671322 
L 160.680044 219.671322 
L 160.774311 218.36103 
L 160.914762 218.36103 
L 160.914762 217.705884 
L 161.100288 217.705884 
L 161.100288 215.740445 
L 161.420284 215.740445 
L 161.510643 214.430153 
L 161.600536 214.430153 
L 161.600536 213.775007 
L 161.734513 213.775007 
L 161.734513 212.464715 
L 161.999419 212.464715 
L 162.043181 211.154423 
L 162.173813 211.154423 
L 162.217141 209.84413 
L 162.303474 209.84413 
L 162.346481 207.878692 
L 163.061823 207.878692 
L 163.144084 206.5684 
L 163.185069 206.5684 
L 163.225959 202.637523 
L 163.589711 202.637523 
L 163.589711 201.327231 
L 163.867476 201.327231 
L 163.867476 200.016939 
L 164.024234 200.016939 
L 164.102088 198.706647 
L 164.256762 198.706647 
L 164.295217 195.430916 
L 164.448194 195.430916 
L 164.486229 194.120624 
L 164.637547 194.120624 
L 164.675172 192.810332 
L 164.86209 192.810332 
L 164.86209 192.155186 
L 164.973287 192.155186 
L 165.083779 190.844894 
L 165.120455 190.844894 
L 165.120455 190.189747 
L 165.266391 190.189747 
L 165.375047 188.224309 
L 165.59035 188.224309 
L 165.697012 186.258871 
L 165.803027 186.258871 
L 165.873346 184.948579 
L 166.047915 184.948579 
L 166.151824 182.98314 
L 166.323641 182.98314 
L 166.391896 179.70741 
L 166.493781 179.70741 
L 166.595075 178.397118 
L 166.662278 178.397118 
L 166.7626 176.431679 
L 166.795913 176.431679 
L 166.795913 175.776533 
L 166.928532 175.776533 
L 166.994465 174.466241 
L 167.06015 174.466241 
L 167.158215 172.500803 
L 167.223287 172.500803 
L 167.255733 171.190511 
L 167.513144 171.190511 
L 167.608702 166.604488 
L 167.954668 166.604488 
L 168.01684 165.294196 
L 168.078792 165.294196 
L 168.078792 164.63905 
L 168.202038 164.63905 
L 168.202038 163.983903 
L 168.354881 163.983903 
L 168.445948 161.363319 
L 168.476198 161.363319 
L 168.476198 160.708173 
L 168.626667 160.708173 
L 168.626667 159.397881 
L 168.77585 159.397881 
L 168.86475 156.777296 
L 169.011918 156.777296 
L 169.099626 154.156712 
L 169.128764 154.156712 
L 169.128764 153.501566 
L 169.331381 153.501566 
L 169.417501 150.880981 
L 169.503198 150.880981 
L 169.560096 148.915543 
L 169.701534 148.915543 
L 169.701534 148.260397 
L 169.925477 148.260397 
L 169.925477 147.605251 
L 170.063995 147.605251 
L 170.063995 146.950105 
L 170.201421 146.950105 
L 170.310587 144.32952 
L 170.364915 144.32952 
L 170.364915 143.674374 
L 170.553741 143.674374 
L 170.58055 141.708936 
L 170.767069 141.708936 
L 170.767069 139.743498 
L 171.003983 139.743498 
L 171.003983 139.088352 
L 171.211906 139.088352 
L 171.211906 138.433206 
L 171.620458 138.433206 
L 171.721118 137.122913 
L 171.8212 137.122913 
L 171.920711 133.847183 
L 172.068921 133.847183 
L 172.142557 131.881745 
L 172.215882 131.881745 
L 172.264595 129.916306 
L 172.434028 129.916306 
L 172.506141 127.295722 
L 172.554051 127.295722 
L 172.554051 126.640576 
L 172.909242 126.640576 
L 172.909242 125.98543 
L 173.049317 125.98543 
L 173.049317 123.364845 
L 173.394661 123.364845 
L 173.462916 122.054553 
L 173.576085 122.054553 
L 173.598631 120.744261 
L 173.710926 120.744261 
L 173.755642 119.433969 
L 173.844732 119.433969 
L 173.844732 118.778823 
L 173.977519 118.778823 
L 174.065485 116.813384 
L 174.109302 116.813384 
L 174.15301 114.1928 
L 174.240098 114.1928 
L 174.283479 112.227362 
L 174.412979 112.227362 
L 174.455933 110.917069 
L 174.541525 110.917069 
L 174.647927 109.606777 
L 174.732584 109.606777 
L 174.83783 105.675901 
L 174.921573 105.675901 
L 175.004915 103.055316 
L 175.046437 103.055316 
L 175.046437 102.40017 
L 175.170413 102.40017 
L 175.19099 100.434732 
L 175.313947 100.434732 
L 175.313947 99.12444 
L 175.456309 99.12444 
L 175.496772 97.814147 
L 175.597519 97.814147 
L 175.597519 95.848709 
L 175.876553 95.848709 
L 175.975136 94.538417 
L 176.151193 94.538417 
L 176.151193 93.883271 
L 176.440729 93.883271 
L 176.440729 93.228125 
L 176.55521 93.228125 
L 176.61217 91.262686 
L 176.725536 91.262686 
L 176.819447 89.297248 
L 176.875552 89.297248 
L 176.968661 86.676664 
L 177.079739 86.676664 
L 177.079739 86.021518 
L 177.208443 86.021518 
L 177.31801 81.435495 
L 177.336204 81.435495 
L 177.336204 80.125203 
L 177.463036 80.125203 
L 177.517111 78.159764 
L 177.713965 78.159764 
L 177.802715 76.194326 
L 177.996389 76.194326 
L 178.083716 73.573742 
L 178.135904 73.573742 
L 178.205245 71.608303 
L 178.325932 71.608303 
L 178.394524 70.298011 
L 178.44579 70.298011 
L 178.496907 68.987719 
L 178.56483 68.987719 
L 178.666222 65.056842 
L 178.817212 65.056842 
L 178.900534 63.74655 
L 178.950337 63.74655 
L 179.033027 62.436258 
L 179.392276 62.436258 
L 179.488982 59.815674 
L 179.505048 59.815674 
L 179.585155 57.850235 
L 179.648977 57.850235 
L 179.728427 55.884797 
L 179.854799 55.884797 
L 179.964628 54.574505 
L 180.120337 54.574505 
L 180.182234 52.609066 
L 180.259296 52.609066 
L 180.320702 50.643628 
L 180.789406 50.643628 
L 180.789406 49.988482 
L 180.937953 49.988482 
L 181.026478 47.367898 
L 181.129191 47.367898 
L 181.20219 46.057605 
L 181.47683 46.057605 
L 181.562667 43.437021 
L 181.633877 43.437021 
L 181.704798 42.126729 
L 182.096708 42.126729 
L 182.193325 40.816437 
L 182.220831 40.816437 
L 182.220831 40.161291 
L 182.344078 40.161291 
L 182.344078 39.506144 
L 182.480004 39.506144 
L 182.480004 38.850998 
L 182.601439 38.850998 
L 182.601439 37.540706 
L 182.762047 37.540706 
L 182.762047 36.88556 
L 183.026484 36.88556 
L 183.039601 34.920122 
L 183.222213 34.920122 
L 183.222213 34.264976 
L 183.581799 34.264976 
L 183.581799 33.60983 
L 183.834181 33.60983 
L 183.93412 32.299537 
L 184.255021 32.299537 
L 184.255021 31.644391 
L 184.509968 31.644391 
L 184.594129 30.334099 
L 338.688 30.334099 
L 338.688 30.334099 
" style="fill:none;stroke:#ff00ff;stroke-linecap:square;stroke-width:1.5;"/>
   </g>
   <g id="line2d_35">
    <defs>
     <path d="M -0 8.485281 
L 5.091169 0 
L 0 -8.485281 
L -5.091169 -0 
z
" id="maebae203df" style="stroke:#ff00ff;stroke-linejoin:miter;stroke-width:1.5;"/>
    </defs>
    <g>
     <use style="fill-opacity:0;stroke:#ff00ff;stroke-linejoin:miter;stroke-width:1.5;" x="168.354881" xlink:href="#maebae203df" y="163.983903"/>
     <use style="fill-opacity:0;stroke:#ff00ff;stroke-linejoin:miter;stroke-width:1.5;" x="184.594129" xlink:href="#maebae203df" y="30.989245"/>
     <use style="fill-opacity:0;stroke:#ff00ff;stroke-linejoin:miter;stroke-width:1.5;" x="184.594129" xlink:href="#maebae203df" y="30.334099"/>
     <use style="fill-opacity:0;stroke:#ff00ff;stroke-linejoin:miter;stroke-width:1.5;" x="184.594129" xlink:href="#maebae203df" y="30.334099"/>
     <use style="fill-opacity:0;stroke:#ff00ff;stroke-linejoin:miter;stroke-width:1.5;" x="338.688" xlink:href="#maebae203df" y="30.334099"/>
    </g>
   </g>
   <g id="line2d_36">
    <path style="fill:none;stroke:#ff00ff;stroke-linecap:square;stroke-width:1.5;"/>
    <g/>
   </g>
   <g id="line2d_37">
    <defs>
     <path d="M 0 1.5 
C 0.397805 1.5 0.77937 1.341951 1.06066 1.06066 
C 1.341951 0.77937 1.5 0.397805 1.5 0 
C 1.5 -0.397805 1.341951 -0.77937 1.06066 -1.06066 
C 0.77937 -1.341951 0.397805 -1.5 0 -1.5 
C -0.397805 -1.5 -0.77937 -1.341951 -1.06066 -1.06066 
C -1.341951 -0.77937 -1.5 -0.397805 -1.5 0 
C -1.5 0.397805 -1.341951 0.77937 -1.06066 1.06066 
C -0.77937 1.341951 -0.397805 1.5 0 1.5 
z
" id="md3e7e38beb" style="stroke:#ff7500;"/>
    </defs>
    <g>
     <use style="fill:#ff7500;stroke:#ff7500;" x="179.472902" xlink:href="#md3e7e38beb" y="30.334099"/>
     <use style="fill:#ff7500;stroke:#ff7500;" x="179.472902" xlink:href="#md3e7e38beb" y="30.334099"/>
    </g>
   </g>
   <g id="line2d_38">
    <path d="M 118.039942 298.944 
L 118.039942 298.288854 
L 127.799239 298.288854 
L 127.799239 296.323416 
L 131.185181 296.323416 
L 131.185181 295.013123 
L 132.422528 295.013123 
L 132.422528 294.357977 
L 139.090775 294.357977 
L 139.090775 293.702831 
L 139.413734 293.702831 
L 139.413734 292.392539 
L 140.195896 292.392539 
L 140.195896 291.737393 
L 140.499195 291.737393 
L 140.499195 290.427101 
L 141.521035 290.427101 
L 141.521035 289.116809 
L 142.486301 289.116809 
L 142.486301 287.806516 
L 142.619936 287.806516 
L 142.619936 285.185932 
L 143.527762 285.185932 
L 143.527762 283.220494 
L 143.778691 283.220494 
L 143.778691 282.565348 
L 144.629556 282.565348 
L 144.629556 281.910201 
L 145.212864 281.910201 
L 145.212864 281.255055 
L 145.998045 281.255055 
L 145.998045 280.599909 
L 146.749392 280.599909 
L 146.749392 279.944763 
L 147.164632 279.944763 
L 147.164632 279.289617 
L 147.4697 279.289617 
L 147.4697 278.634471 
L 148.064279 278.634471 
L 148.064279 277.979325 
L 149.104327 277.979325 
L 149.104327 277.324179 
L 149.467659 277.324179 
L 149.467659 276.669033 
L 149.998846 276.669033 
L 150.085825 274.703594 
L 150.172372 274.703594 
L 150.258492 272.738156 
L 150.429467 272.738156 
L 150.429467 272.08301 
L 150.682827 272.08301 
L 150.682827 271.427864 
L 150.932558 271.427864 
L 150.932558 270.772718 
L 151.178764 270.772718 
L 151.178764 270.117572 
L 151.501723 270.117572 
L 151.581536 267.496987 
L 151.660987 267.496987 
L 151.660987 266.841841 
L 151.897188 266.841841 
L 151.897188 264.876403 
L 152.283884 264.876403 
L 152.360205 263.566111 
L 152.511852 263.566111 
L 152.511852 262.255818 
L 152.811246 262.255818 
L 152.811246 261.600672 
L 153.178403 261.600672 
L 153.250915 258.324942 
L 153.395042 258.324942 
L 153.466662 256.359504 
L 153.537988 256.359504 
L 153.609024 254.394065 
L 153.679772 254.394065 
L 153.679772 253.083773 
L 154.029268 253.083773 
L 154.029268 251.118335 
L 154.371897 251.118335 
L 154.371897 249.808043 
L 154.507086 249.808043 
L 154.507086 248.49775 
L 154.707925 248.49775 
L 154.707925 247.842604 
L 154.906477 247.842604 
L 154.906477 246.532312 
L 155.804285 246.532312 
L 155.86668 244.566874 
L 156.175347 244.566874 
L 156.175347 239.980851 
L 156.478647 239.980851 
L 156.478647 239.325705 
L 156.717545 239.325705 
L 156.717545 238.670559 
L 157.243392 238.670559 
L 157.300853 237.360267 
L 157.415209 237.360267 
L 157.415209 236.049974 
L 157.58535 236.049974 
L 157.58535 235.394828 
L 157.697862 235.394828 
L 157.697862 234.739682 
L 157.920731 234.739682 
L 157.976006 231.463952 
L 158.086033 231.463952 
L 158.086033 230.808806 
L 158.358103 230.808806 
L 158.412011 229.498513 
L 158.51933 229.498513 
L 158.51933 228.843367 
L 158.83738 228.843367 
L 158.83738 228.188221 
L 158.994256 228.188221 
L 158.994256 227.533075 
L 159.149734 227.533075 
L 159.149734 226.877929 
L 159.557689 226.877929 
L 159.557689 226.222783 
L 159.708245 226.222783 
L 159.807898 222.947052 
L 159.906985 222.947052 
L 159.906985 222.291906 
L 160.103486 222.291906 
L 160.200913 219.671322 
L 160.346039 219.671322 
L 160.346039 219.016176 
L 160.537682 219.016176 
L 160.632719 215.085299 
L 160.774311 215.085299 
L 160.774311 213.775007 
L 161.100288 213.775007 
L 161.100288 211.154423 
L 161.283861 211.154423 
L 161.374928 209.188984 
L 161.465522 209.188984 
L 161.465522 207.878692 
L 161.778945 207.878692 
L 161.778945 207.223546 
L 161.911563 207.223546 
L 161.911563 205.913254 
L 162.086834 205.913254 
L 162.086834 204.602962 
L 162.217141 204.602962 
L 162.303474 203.292669 
L 162.389382 203.292669 
L 162.389382 202.637523 
L 162.517456 202.637523 
L 162.517456 201.982377 
L 162.644595 201.982377 
L 162.68677 200.016939 
L 162.812686 200.016939 
L 162.854457 198.051501 
L 162.979172 198.051501 
L 163.020547 196.086062 
L 163.225959 196.086062 
L 163.225959 192.155186 
L 163.828065 192.155186 
L 163.828065 191.50004 
L 164.179597 191.50004 
L 164.256762 190.189747 
L 164.333587 190.189747 
L 164.333587 188.224309 
L 164.448194 188.224309 
L 164.486229 184.293433 
L 164.599841 184.293433 
L 164.599841 181.017702 
L 164.712717 181.017702 
L 164.712717 178.397118 
L 164.824867 178.397118 
L 164.899235 174.466241 
L 165.083779 174.466241 
L 165.157053 171.190511 
L 165.411116 171.190511 
L 165.447111 169.225072 
L 165.76776 169.225072 
L 165.803027 167.259634 
L 166.151824 167.259634 
L 166.186323 165.294196 
L 166.595075 165.294196 
L 166.595075 164.63905 
L 166.895472 164.63905 
L 166.994465 162.018465 
L 167.06015 162.018465 
L 167.125588 157.432442 
L 167.513144 157.432442 
L 167.513144 156.777296 
L 167.640438 156.777296 
L 167.672117 154.811858 
L 167.76681 154.811858 
L 167.829655 153.501566 
L 168.047843 153.501566 
L 168.047843 152.84642 
L 168.171308 152.84642 
L 168.232714 148.260397 
L 168.293904 148.260397 
L 168.385289 144.32952 
L 168.476198 144.32952 
L 168.476198 143.674374 
L 168.596677 143.674374 
L 168.626667 141.05379 
L 168.746115 141.05379 
L 168.746115 140.398644 
L 169.011918 140.398644 
L 169.041203 139.088352 
L 169.186895 139.088352 
L 169.244833 131.881745 
L 169.417501 131.881745 
L 169.503198 130.571452 
L 169.560096 130.571452 
L 169.560096 129.916306 
L 169.673338 129.916306 
L 169.673338 127.950868 
L 169.78585 127.950868 
L 169.86976 126.640576 
L 169.925477 126.640576 
L 170.036379 124.675137 
L 170.063995 124.675137 
L 170.174022 122.054553 
L 170.201421 122.054553 
L 170.256089 117.46853 
L 170.337772 117.46853 
L 170.392016 115.503092 
L 170.473066 115.503092 
L 170.473066 114.847946 
L 170.634045 114.847946 
L 170.687376 111.572215 
L 170.977818 111.572215 
L 171.030109 106.986193 
L 171.263501 106.986193 
L 171.366236 101.089878 
L 171.54458 101.089878 
L 171.595202 97.159001 
L 171.796233 97.159001 
L 171.846131 95.848709 
L 171.945501 95.848709 
L 172.019658 91.917832 
L 172.118046 91.917832 
L 172.191475 89.952394 
L 172.264595 89.952394 
L 172.361615 87.986956 
L 172.458099 87.986956 
L 172.458099 87.33181 
L 172.673253 87.33181 
L 172.673253 86.021518 
L 172.815229 86.021518 
L 172.862299 83.400933 
L 173.049317 83.400933 
L 173.049317 82.745787 
L 173.371849 82.745787 
L 173.417442 80.780349 
L 173.530906 80.780349 
L 173.530906 80.125203 
L 173.666095 80.125203 
L 173.755642 76.194326 
L 173.800244 76.194326 
L 173.800244 75.53918 
L 173.955458 75.53918 
L 173.977519 73.573742 
L 174.283479 73.573742 
L 174.283479 72.263449 
L 174.434469 72.263449 
L 174.434469 70.298011 
L 174.711458 70.298011 
L 174.816832 66.367135 
L 174.879752 66.367135 
L 174.921573 64.401696 
L 175.046437 64.401696 
L 175.067161 63.091404 
L 175.170413 63.091404 
L 175.211544 59.815674 
L 175.375102 59.815674 
L 175.456309 56.539943 
L 175.6777 56.539943 
L 175.77741 53.264213 
L 175.85677 53.264213 
L 175.85677 51.95392 
L 175.994786 51.95392 
L 176.014414 50.643628 
L 176.170646 50.643628 
L 176.267585 48.67819 
L 176.30621 48.67819 
L 176.325491 47.367898 
L 176.421575 47.367898 
L 176.421575 46.057605 
L 176.574218 46.057605 
L 176.593204 44.092167 
L 176.912855 44.092167 
L 176.931477 42.781875 
L 177.079739 42.781875 
L 177.079739 41.471583 
L 177.299796 41.471583 
L 177.299796 40.161291 
L 177.517111 40.161291 
L 177.606866 37.540706 
L 177.642639 37.540706 
L 177.642639 35.575268 
L 177.767269 35.575268 
L 177.767269 34.920122 
L 177.92621 34.920122 
L 177.996389 32.299537 
L 178.767027 32.299537 
L 178.767027 31.644391 
L 179.27877 31.644391 
L 179.27877 30.989245 
L 179.472902 30.989245 
L 179.472902 30.334099 
L 338.688 30.334099 
L 338.688 30.334099 
" style="fill:none;stroke:#ff7500;stroke-linecap:square;stroke-width:1.5;"/>
   </g>
   <g id="line2d_39">
    <defs>
     <path d="M 0 -6 
L -1.347084 -1.854102 
L -5.706339 -1.854102 
L -2.179628 0.708204 
L -3.526712 4.854102 
L -0 2.291796 
L 3.526712 4.854102 
L 2.179628 0.708204 
L 5.706339 -1.854102 
L 1.347084 -1.854102 
z
" id="m908aa94720" style="stroke:#ff7500;stroke-linejoin:bevel;stroke-width:1.5;"/>
    </defs>
    <g>
     <use style="fill-opacity:0;stroke:#ff7500;stroke-linejoin:bevel;stroke-width:1.5;" x="170.063995" xlink:href="#m908aa94720" y="123.364845"/>
     <use style="fill-opacity:0;stroke:#ff7500;stroke-linejoin:bevel;stroke-width:1.5;" x="179.472902" xlink:href="#m908aa94720" y="30.989245"/>
     <use style="fill-opacity:0;stroke:#ff7500;stroke-linejoin:bevel;stroke-width:1.5;" x="179.472902" xlink:href="#m908aa94720" y="30.334099"/>
     <use style="fill-opacity:0;stroke:#ff7500;stroke-linejoin:bevel;stroke-width:1.5;" x="179.472902" xlink:href="#m908aa94720" y="30.334099"/>
     <use style="fill-opacity:0;stroke:#ff7500;stroke-linejoin:bevel;stroke-width:1.5;" x="338.688" xlink:href="#m908aa94720" y="30.334099"/>
    </g>
   </g>
   <g id="line2d_40">
    <path style="fill:none;stroke:#ff7500;stroke-linecap:square;stroke-width:1.5;"/>
    <g/>
   </g>
   <g id="line2d_41">
    <path d="M 338.688 30.334099 
L 369.60768 293.571802 
" style="fill:none;stroke:#ff00ff;stroke-linecap:square;stroke-width:1.5;"/>
    <g>
     <use style="fill-opacity:0;stroke:#ff00ff;stroke-linejoin:miter;stroke-width:1.5;" x="338.688" xlink:href="#maebae203df" y="30.334099"/>
     <use style="fill-opacity:0;stroke:#ff00ff;stroke-linejoin:miter;stroke-width:1.5;" x="369.60768" xlink:href="#maebae203df" y="293.571802"/>
    </g>
   </g>
   <g id="line2d_42">
    <path d="M 338.688 30.334099 
L 369.60768 164.63905 
" style="fill:none;stroke:#ff7500;stroke-linecap:square;stroke-width:1.5;"/>
    <g>
     <use style="fill-opacity:0;stroke:#ff7500;stroke-linejoin:bevel;stroke-width:1.5;" x="338.688" xlink:href="#m908aa94720" y="30.334099"/>
     <use style="fill-opacity:0;stroke:#ff7500;stroke-linejoin:bevel;stroke-width:1.5;" x="369.60768" xlink:href="#m908aa94720" y="164.63905"/>
    </g>
   </g>
   <g id="line2d_43">
    <path d="M 338.688 30.334099 
L 369.60768 35.706297 
" style="fill:none;stroke:#000080;stroke-linecap:square;stroke-width:1.5;"/>
    <g>
     <use style="fill-opacity:0;stroke:#000080;stroke-width:1.5;" x="338.688" xlink:href="#mc4b874da18" y="30.334099"/>
     <use style="fill-opacity:0;stroke:#000080;stroke-width:1.5;" x="369.60768" xlink:href="#mc4b874da18" y="35.706297"/>
    </g>
   </g>
   <g id="line2d_44">
    <path d="M 338.688 298.944 
L 338.688 30.334099 
" style="fill:none;stroke:#000000;stroke-linecap:square;stroke-width:1.5;"/>
   </g>
   <g id="patch_3">
    <path d="M 57.6 298.944 
L 57.6 27.648 
" style="fill:none;stroke:#000000;stroke-linecap:square;stroke-linejoin:miter;stroke-width:0.8;"/>
   </g>
   <g id="patch_4">
    <path d="M 338.688 298.944 
L 338.688 27.648 
" style="fill:none;stroke:#000000;stroke-linecap:square;stroke-linejoin:miter;stroke-width:0.8;"/>
   </g>
   <g id="patch_5">
    <path d="M 57.6 298.944 
L 338.688 298.944 
" style="fill:none;stroke:#000000;stroke-linecap:square;stroke-linejoin:miter;stroke-width:0.8;"/>
   </g>
   <g id="patch_6">
    <path d="M 57.6 27.648 
L 338.688 27.648 
" style="fill:none;stroke:#000000;stroke-linecap:square;stroke-linejoin:miter;stroke-width:0.8;"/>
   </g>
   <g id="text_13">
    <!-- OLD+NODGA -->
    <g transform="translate(375.22944 298.262739)scale(0.17 -0.17)">
     <defs>
      <path d="M 39.40625 66.21875 
Q 28.65625 66.21875 22.328125 58.203125 
Q 16.015625 50.203125 16.015625 36.375 
Q 16.015625 22.609375 22.328125 14.59375 
Q 28.65625 6.59375 39.40625 6.59375 
Q 50.140625 6.59375 56.421875 14.59375 
Q 62.703125 22.609375 62.703125 36.375 
Q 62.703125 50.203125 56.421875 58.203125 
Q 50.140625 66.21875 39.40625 66.21875 
z
M 39.40625 74.21875 
Q 54.734375 74.21875 63.90625 63.9375 
Q 73.09375 53.65625 73.09375 36.375 
Q 73.09375 19.140625 63.90625 8.859375 
Q 54.734375 -1.421875 39.40625 -1.421875 
Q 24.03125 -1.421875 14.8125 8.828125 
Q 5.609375 19.09375 5.609375 36.375 
Q 5.609375 53.65625 14.8125 63.9375 
Q 24.03125 74.21875 39.40625 74.21875 
z
" id="DejaVuSans-79"/>
      <path d="M 9.8125 72.90625 
L 19.671875 72.90625 
L 19.671875 8.296875 
L 55.171875 8.296875 
L 55.171875 0 
L 9.8125 0 
z
" id="DejaVuSans-76"/>
      <path d="M 19.671875 64.796875 
L 19.671875 8.109375 
L 31.59375 8.109375 
Q 46.6875 8.109375 53.6875 14.9375 
Q 60.6875 21.78125 60.6875 36.53125 
Q 60.6875 51.171875 53.6875 57.984375 
Q 46.6875 64.796875 31.59375 64.796875 
z
M 9.8125 72.90625 
L 30.078125 72.90625 
Q 51.265625 72.90625 61.171875 64.09375 
Q 71.09375 55.28125 71.09375 36.53125 
Q 71.09375 17.671875 61.125 8.828125 
Q 51.171875 0 30.078125 0 
L 9.8125 0 
z
" id="DejaVuSans-68"/>
      <path d="M 9.8125 72.90625 
L 23.09375 72.90625 
L 55.421875 11.921875 
L 55.421875 72.90625 
L 64.984375 72.90625 
L 64.984375 0 
L 51.703125 0 
L 19.390625 60.984375 
L 19.390625 0 
L 9.8125 0 
z
" id="DejaVuSans-78"/>
      <path d="M 59.515625 10.40625 
L 59.515625 29.984375 
L 43.40625 29.984375 
L 43.40625 38.09375 
L 69.28125 38.09375 
L 69.28125 6.78125 
Q 63.578125 2.734375 56.6875 0.65625 
Q 49.8125 -1.421875 42 -1.421875 
Q 24.90625 -1.421875 15.25 8.5625 
Q 5.609375 18.5625 5.609375 36.375 
Q 5.609375 54.25 15.25 64.234375 
Q 24.90625 74.21875 42 74.21875 
Q 49.125 74.21875 55.546875 72.453125 
Q 61.96875 70.703125 67.390625 67.28125 
L 67.390625 56.78125 
Q 61.921875 61.421875 55.765625 63.765625 
Q 49.609375 66.109375 42.828125 66.109375 
Q 29.4375 66.109375 22.71875 58.640625 
Q 16.015625 51.171875 16.015625 36.375 
Q 16.015625 21.625 22.71875 14.15625 
Q 29.4375 6.6875 42.828125 6.6875 
Q 48.046875 6.6875 52.140625 7.59375 
Q 56.25 8.5 59.515625 10.40625 
z
" id="DejaVuSans-71"/>
      <path d="M 34.1875 63.1875 
L 20.796875 26.90625 
L 47.609375 26.90625 
z
M 28.609375 72.90625 
L 39.796875 72.90625 
L 67.578125 0 
L 57.328125 0 
L 50.6875 18.703125 
L 17.828125 18.703125 
L 11.1875 0 
L 0.78125 0 
z
" id="DejaVuSans-65"/>
     </defs>
     <use xlink:href="#DejaVuSans-79"/>
     <use x="78.710938" xlink:href="#DejaVuSans-76"/>
     <use x="134.423828" xlink:href="#DejaVuSans-68"/>
     <use x="211.425781" xlink:href="#DejaVuSans-43"/>
     <use x="295.214844" xlink:href="#DejaVuSans-78"/>
     <use x="370.019531" xlink:href="#DejaVuSans-79"/>
     <use x="448.730469" xlink:href="#DejaVuSans-68"/>
     <use x="525.732422" xlink:href="#DejaVuSans-71"/>
     <use x="603.222656" xlink:href="#DejaVuSans-65"/>
    </g>
   </g>
   <g id="text_14">
    <!-- NEW+DGAM -->
    <g transform="translate(375.22944 169.329987)scale(0.17 -0.17)">
     <defs>
      <path d="M 9.8125 72.90625 
L 55.90625 72.90625 
L 55.90625 64.59375 
L 19.671875 64.59375 
L 19.671875 43.015625 
L 54.390625 43.015625 
L 54.390625 34.71875 
L 19.671875 34.71875 
L 19.671875 8.296875 
L 56.78125 8.296875 
L 56.78125 0 
L 9.8125 0 
z
" id="DejaVuSans-69"/>
      <path d="M 3.328125 72.90625 
L 13.28125 72.90625 
L 28.609375 11.28125 
L 43.890625 72.90625 
L 54.984375 72.90625 
L 70.3125 11.28125 
L 85.59375 72.90625 
L 95.609375 72.90625 
L 77.296875 0 
L 64.890625 0 
L 49.515625 63.28125 
L 33.984375 0 
L 21.578125 0 
z
" id="DejaVuSans-87"/>
      <path d="M 9.8125 72.90625 
L 24.515625 72.90625 
L 43.109375 23.296875 
L 61.8125 72.90625 
L 76.515625 72.90625 
L 76.515625 0 
L 66.890625 0 
L 66.890625 64.015625 
L 48.09375 14.015625 
L 38.1875 14.015625 
L 19.390625 64.015625 
L 19.390625 0 
L 9.8125 0 
z
" id="DejaVuSans-77"/>
     </defs>
     <use xlink:href="#DejaVuSans-78"/>
     <use x="74.804688" xlink:href="#DejaVuSans-69"/>
     <use x="137.988281" xlink:href="#DejaVuSans-87"/>
     <use x="236.865234" xlink:href="#DejaVuSans-43"/>
     <use x="320.654297" xlink:href="#DejaVuSans-68"/>
     <use x="397.65625" xlink:href="#DejaVuSans-71"/>
     <use x="475.146484" xlink:href="#DejaVuSans-65"/>
     <use x="543.554688" xlink:href="#DejaVuSans-77"/>
    </g>
   </g>
   <g id="text_15">
    <!-- OLD+DGAM -->
    <g transform="translate(375.22944 40.397235)scale(0.17 -0.17)">
     <use xlink:href="#DejaVuSans-79"/>
     <use x="78.710938" xlink:href="#DejaVuSans-76"/>
     <use x="134.423828" xlink:href="#DejaVuSans-68"/>
     <use x="211.425781" xlink:href="#DejaVuSans-43"/>
     <use x="295.214844" xlink:href="#DejaVuSans-68"/>
     <use x="372.216797" xlink:href="#DejaVuSans-71"/>
     <use x="449.707031" xlink:href="#DejaVuSans-65"/>
     <use x="518.115234" xlink:href="#DejaVuSans-77"/>
    </g>
   </g>
   <g id="text_16">
    <!-- bbob-constrained f21, 2-D -->
    <g transform="translate(60.41088 38.111366)scale(0.102 -0.102)">
     <defs>
      <path d="M 48.6875 27.296875 
Q 48.6875 37.203125 44.609375 42.84375 
Q 40.53125 48.484375 33.40625 48.484375 
Q 26.265625 48.484375 22.1875 42.84375 
Q 18.109375 37.203125 18.109375 27.296875 
Q 18.109375 17.390625 22.1875 11.75 
Q 26.265625 6.109375 33.40625 6.109375 
Q 40.53125 6.109375 44.609375 11.75 
Q 48.6875 17.390625 48.6875 27.296875 
z
M 18.109375 46.390625 
Q 20.953125 51.265625 25.265625 53.625 
Q 29.59375 56 35.59375 56 
Q 45.5625 56 51.78125 48.09375 
Q 58.015625 40.1875 58.015625 27.296875 
Q 58.015625 14.40625 51.78125 6.484375 
Q 45.5625 -1.421875 35.59375 -1.421875 
Q 29.59375 -1.421875 25.265625 0.953125 
Q 20.953125 3.328125 18.109375 8.203125 
L 18.109375 0 
L 9.078125 0 
L 9.078125 75.984375 
L 18.109375 75.984375 
z
" id="DejaVuSans-98"/>
     </defs>
     <use xlink:href="#DejaVuSans-98"/>
     <use x="63.476562" xlink:href="#DejaVuSans-98"/>
     <use x="126.953125" xlink:href="#DejaVuSans-111"/>
     <use x="188.134766" xlink:href="#DejaVuSans-98"/>
     <use x="251.611328" xlink:href="#DejaVuSans-45"/>
     <use x="287.695312" xlink:href="#DejaVuSans-99"/>
     <use x="342.675781" xlink:href="#DejaVuSans-111"/>
     <use x="403.857422" xlink:href="#DejaVuSans-110"/>
     <use x="467.236328" xlink:href="#DejaVuSans-115"/>
     <use x="519.335938" xlink:href="#DejaVuSans-116"/>
     <use x="558.544922" xlink:href="#DejaVuSans-114"/>
     <use x="599.658203" xlink:href="#DejaVuSans-97"/>
     <use x="660.9375" xlink:href="#DejaVuSans-105"/>
     <use x="688.720703" xlink:href="#DejaVuSans-110"/>
     <use x="752.099609" xlink:href="#DejaVuSans-101"/>
     <use x="813.623047" xlink:href="#DejaVuSans-100"/>
     <use x="877.099609" xlink:href="#DejaVuSans-32"/>
     <use x="908.886719" xlink:href="#DejaVuSans-102"/>
     <use x="944.091797" xlink:href="#DejaVuSans-50"/>
     <use x="1007.714844" xlink:href="#DejaVuSans-49"/>
     <use x="1071.337891" xlink:href="#DejaVuSans-44"/>
     <use x="1103.125" xlink:href="#DejaVuSans-32"/>
     <use x="1134.912109" xlink:href="#DejaVuSans-50"/>
     <use x="1198.535156" xlink:href="#DejaVuSans-45"/>
     <use x="1234.619141" xlink:href="#DejaVuSans-68"/>
    </g>
    <!-- 41 targets: 100..1e-06 -->
    <g transform="translate(60.41088 49.533135)scale(0.102 -0.102)">
     <defs>
      <path d="M 11.71875 12.40625 
L 22.015625 12.40625 
L 22.015625 0 
L 11.71875 0 
z
M 11.71875 51.703125 
L 22.015625 51.703125 
L 22.015625 39.3125 
L 11.71875 39.3125 
z
" id="DejaVuSans-58"/>
     </defs>
     <use xlink:href="#DejaVuSans-52"/>
     <use x="63.623047" xlink:href="#DejaVuSans-49"/>
     <use x="127.246094" xlink:href="#DejaVuSans-32"/>
     <use x="159.033203" xlink:href="#DejaVuSans-116"/>
     <use x="198.242188" xlink:href="#DejaVuSans-97"/>
     <use x="259.521484" xlink:href="#DejaVuSans-114"/>
     <use x="298.884766" xlink:href="#DejaVuSans-103"/>
     <use x="362.361328" xlink:href="#DejaVuSans-101"/>
     <use x="423.884766" xlink:href="#DejaVuSans-116"/>
     <use x="463.09375" xlink:href="#DejaVuSans-115"/>
     <use x="515.193359" xlink:href="#DejaVuSans-58"/>
     <use x="548.884766" xlink:href="#DejaVuSans-32"/>
     <use x="580.671875" xlink:href="#DejaVuSans-49"/>
     <use x="644.294922" xlink:href="#DejaVuSans-48"/>
     <use x="707.917969" xlink:href="#DejaVuSans-48"/>
     <use x="771.541016" xlink:href="#DejaVuSans-46"/>
     <use x="803.328125" xlink:href="#DejaVuSans-46"/>
     <use x="835.115234" xlink:href="#DejaVuSans-49"/>
     <use x="898.738281" xlink:href="#DejaVuSans-101"/>
     <use x="960.261719" xlink:href="#DejaVuSans-45"/>
     <use x="996.345703" xlink:href="#DejaVuSans-48"/>
     <use x="1059.96875" xlink:href="#DejaVuSans-54"/>
    </g>
    <!-- 45, 15 instances -->
    <g transform="translate(60.41088 60.954904)scale(0.102 -0.102)">
     <defs>
      <path d="M 10.796875 72.90625 
L 49.515625 72.90625 
L 49.515625 64.59375 
L 19.828125 64.59375 
L 19.828125 46.734375 
Q 21.96875 47.46875 24.109375 47.828125 
Q 26.265625 48.1875 28.421875 48.1875 
Q 40.625 48.1875 47.75 41.5 
Q 54.890625 34.8125 54.890625 23.390625 
Q 54.890625 11.625 47.5625 5.09375 
Q 40.234375 -1.421875 26.90625 -1.421875 
Q 22.3125 -1.421875 17.546875 -0.640625 
Q 12.796875 0.140625 7.71875 1.703125 
L 7.71875 11.625 
Q 12.109375 9.234375 16.796875 8.0625 
Q 21.484375 6.890625 26.703125 6.890625 
Q 35.15625 6.890625 40.078125 11.328125 
Q 45.015625 15.765625 45.015625 23.390625 
Q 45.015625 31 40.078125 35.4375 
Q 35.15625 39.890625 26.703125 39.890625 
Q 22.75 39.890625 18.8125 39.015625 
Q 14.890625 38.140625 10.796875 36.28125 
z
" id="DejaVuSans-53"/>
     </defs>
     <use xlink:href="#DejaVuSans-52"/>
     <use x="63.623047" xlink:href="#DejaVuSans-53"/>
     <use x="127.246094" xlink:href="#DejaVuSans-44"/>
     <use x="159.033203" xlink:href="#DejaVuSans-32"/>
     <use x="190.820312" xlink:href="#DejaVuSans-49"/>
     <use x="254.443359" xlink:href="#DejaVuSans-53"/>
     <use x="318.066406" xlink:href="#DejaVuSans-32"/>
     <use x="349.853516" xlink:href="#DejaVuSans-105"/>
     <use x="377.636719" xlink:href="#DejaVuSans-110"/>
     <use x="441.015625" xlink:href="#DejaVuSans-115"/>
     <use x="493.115234" xlink:href="#DejaVuSans-116"/>
     <use x="532.324219" xlink:href="#DejaVuSans-97"/>
     <use x="593.603516" xlink:href="#DejaVuSans-110"/>
     <use x="656.982422" xlink:href="#DejaVuSans-99"/>
     <use x="711.962891" xlink:href="#DejaVuSans-101"/>
     <use x="773.486328" xlink:href="#DejaVuSans-115"/>
    </g>
   </g>
   <g id="text_17">
    <!-- v5z33 -->
    <g style="fill:#808080;" transform="translate(183.016656 294.151352)scale(0.1 -0.1)">
     <defs>
      <path d="M 5.515625 54.6875 
L 48.1875 54.6875 
L 48.1875 46.484375 
L 14.40625 7.171875 
L 48.1875 7.171875 
L 48.1875 0 
L 4.296875 0 
L 4.296875 8.203125 
L 38.09375 47.515625 
L 5.515625 47.515625 
z
" id="DejaVuSans-122"/>
      <path d="M 40.578125 39.3125 
Q 47.65625 37.796875 51.625 33 
Q 55.609375 28.21875 55.609375 21.1875 
Q 55.609375 10.40625 48.1875 4.484375 
Q 40.765625 -1.421875 27.09375 -1.421875 
Q 22.515625 -1.421875 17.65625 -0.515625 
Q 12.796875 0.390625 7.625 2.203125 
L 7.625 11.71875 
Q 11.71875 9.328125 16.59375 8.109375 
Q 21.484375 6.890625 26.8125 6.890625 
Q 36.078125 6.890625 40.9375 10.546875 
Q 45.796875 14.203125 45.796875 21.1875 
Q 45.796875 27.640625 41.28125 31.265625 
Q 36.765625 34.90625 28.71875 34.90625 
L 20.21875 34.90625 
L 20.21875 43.015625 
L 29.109375 43.015625 
Q 36.375 43.015625 40.234375 45.921875 
Q 44.09375 48.828125 44.09375 54.296875 
Q 44.09375 59.90625 40.109375 62.90625 
Q 36.140625 65.921875 28.71875 65.921875 
Q 24.65625 65.921875 20.015625 65.03125 
Q 15.375 64.15625 9.8125 62.3125 
L 9.8125 71.09375 
Q 15.4375 72.65625 20.34375 73.4375 
Q 25.25 74.21875 29.59375 74.21875 
Q 40.828125 74.21875 47.359375 69.109375 
Q 53.90625 64.015625 53.90625 55.328125 
Q 53.90625 49.265625 50.4375 45.09375 
Q 46.96875 40.921875 40.578125 39.3125 
z
" id="DejaVuSans-51"/>
     </defs>
     <use xlink:href="#DejaVuSans-118"/>
     <use x="59.179688" xlink:href="#DejaVuSans-53"/>
     <use x="122.802734" xlink:href="#DejaVuSans-122"/>
     <use x="175.292969" xlink:href="#DejaVuSans-51"/>
     <use x="238.916016" xlink:href="#DejaVuSans-51"/>
    </g>
   </g>
   <g id="text_18">
    <!-- 21 Rotated Ellipsoid, 6 constraints -->
    <g transform="translate(27.053375 21.648)scale(0.2 -0.2)">
     <defs>
      <path d="M 44.390625 34.1875 
Q 47.5625 33.109375 50.5625 29.59375 
Q 53.5625 26.078125 56.59375 19.921875 
L 66.609375 0 
L 56 0 
L 46.6875 18.703125 
Q 43.0625 26.03125 39.671875 28.421875 
Q 36.28125 30.8125 30.421875 30.8125 
L 19.671875 30.8125 
L 19.671875 0 
L 9.8125 0 
L 9.8125 72.90625 
L 32.078125 72.90625 
Q 44.578125 72.90625 50.734375 67.671875 
Q 56.890625 62.453125 56.890625 51.90625 
Q 56.890625 45.015625 53.6875 40.46875 
Q 50.484375 35.9375 44.390625 34.1875 
z
M 19.671875 64.796875 
L 19.671875 38.921875 
L 32.078125 38.921875 
Q 39.203125 38.921875 42.84375 42.21875 
Q 46.484375 45.515625 46.484375 51.90625 
Q 46.484375 58.296875 42.84375 61.546875 
Q 39.203125 64.796875 32.078125 64.796875 
z
" id="DejaVuSans-82"/>
     </defs>
     <use xlink:href="#DejaVuSans-50"/>
     <use x="63.623047" xlink:href="#DejaVuSans-49"/>
     <use x="127.246094" xlink:href="#DejaVuSans-32"/>
     <use x="159.033203" xlink:href="#DejaVuSans-82"/>
     <use x="224.015625" xlink:href="#DejaVuSans-111"/>
     <use x="285.197266" xlink:href="#DejaVuSans-116"/>
     <use x="324.40625" xlink:href="#DejaVuSans-97"/>
     <use x="385.685547" xlink:href="#DejaVuSans-116"/>
     <use x="424.894531" xlink:href="#DejaVuSans-101"/>
     <use x="486.417969" xlink:href="#DejaVuSans-100"/>
     <use x="549.894531" xlink:href="#DejaVuSans-32"/>
     <use x="581.681641" xlink:href="#DejaVuSans-69"/>
     <use x="644.865234" xlink:href="#DejaVuSans-108"/>
     <use x="672.648438" xlink:href="#DejaVuSans-108"/>
     <use x="700.431641" xlink:href="#DejaVuSans-105"/>
     <use x="728.214844" xlink:href="#DejaVuSans-112"/>
     <use x="791.691406" xlink:href="#DejaVuSans-115"/>
     <use x="843.791016" xlink:href="#DejaVuSans-111"/>
     <use x="904.972656" xlink:href="#DejaVuSans-105"/>
     <use x="932.755859" xlink:href="#DejaVuSans-100"/>
     <use x="996.232422" xlink:href="#DejaVuSans-44"/>
     <use x="1028.019531" xlink:href="#DejaVuSans-32"/>
     <use x="1059.806641" xlink:href="#DejaVuSans-54"/>
     <use x="1123.429688" xlink:href="#DejaVuSans-32"/>
     <use x="1155.216797" xlink:href="#DejaVuSans-99"/>
     <use x="1210.197266" xlink:href="#DejaVuSans-111"/>
     <use x="1271.378906" xlink:href="#DejaVuSans-110"/>
     <use x="1334.757812" xlink:href="#DejaVuSans-115"/>
     <use x="1386.857422" xlink:href="#DejaVuSans-116"/>
     <use x="1426.066406" xlink:href="#DejaVuSans-114"/>
     <use x="1467.179688" xlink:href="#DejaVuSans-97"/>
     <use x="1528.458984" xlink:href="#DejaVuSans-105"/>
     <use x="1556.242188" xlink:href="#DejaVuSans-110"/>
     <use x="1619.621094" xlink:href="#DejaVuSans-116"/>
     <use x="1658.830078" xlink:href="#DejaVuSans-115"/>
    </g>
   </g>
  </g>
 </g>
 <defs>
  <clipPath id="p3f8cc758ff">
   <rect height="271.296" width="281.088" x="57.6" y="27.648"/>
  </clipPath>
 </defs>
</svg>
