<?xml version="1.0" encoding="utf-8" standalone="no"?>
<!DOCTYPE svg PUBLIC "-//W3C//DTD SVG 1.1//EN"
  "http://www.w3.org/Graphics/SVG/1.1/DTD/svg11.dtd">
<!-- Created with matplotlib (https://matplotlib.org/) -->
<svg height="345.6pt" version="1.1" viewBox="0 0 460.8 345.6" width="460.8pt" xmlns="http://www.w3.org/2000/svg" xmlns:xlink="http://www.w3.org/1999/xlink">
 <metadata>
  <rdf:RDF xmlns:cc="http://creativecommons.org/ns#" xmlns:dc="http://purl.org/dc/elements/1.1/" xmlns:rdf="http://www.w3.org/1999/02/22-rdf-syntax-ns#">
   <cc:Work>
    <dc:type rdf:resource="http://purl.org/dc/dcmitype/StillImage"/>
    <dc:date>2021-03-25T09:36:50.968035</dc:date>
    <dc:format>image/svg+xml</dc:format>
    <dc:creator>
     <cc:Agent>
      <dc:title>Matplotlib v3.3.3, https://matplotlib.org/</dc:title>
     </cc:Agent>
    </dc:creator>
   </cc:Work>
  </rdf:RDF>
 </metadata>
 <defs>
  <style type="text/css">*{stroke-linecap:butt;stroke-linejoin:round;}</style>
 </defs>
 <g id="figure_1">
  <g id="patch_1">
   <path d="M 0 345.6 
L 460.8 345.6 
L 460.8 0 
L 0 0 
z
" style="fill:#ffffff;"/>
  </g>
  <g id="axes_1">
   <g id="patch_2">
    <path d="M 57.6 298.944 
L 338.688 298.944 
L 338.688 27.648 
L 57.6 27.648 
z
" style="fill:#ffffff;"/>
   </g>
   <g id="matplotlib.axis_1">
    <g id="xtick_1">
     <g id="line2d_1">
      <path clip-path="url(#p575272bfb8)" d="M 57.6 298.944 
L 57.6 27.648 
" style="fill:none;stroke:#b0b0b0;stroke-linecap:square;stroke-width:0.8;"/>
     </g>
     <g id="line2d_2">
      <defs>
       <path d="M 0 0 
L 0 3.5 
" id="mf075f0ef31" style="stroke:#000000;stroke-width:0.8;"/>
      </defs>
      <g>
       <use style="stroke:#000000;stroke-width:0.8;" x="57.6" xlink:href="#mf075f0ef31" y="298.944"/>
      </g>
     </g>
     <g id="text_1">
      <!-- 0 -->
      <g transform="translate(51.2375 321.140875)scale(0.2 -0.2)">
       <defs>
        <path d="M 31.78125 66.40625 
Q 24.171875 66.40625 20.328125 58.90625 
Q 16.5 51.421875 16.5 36.375 
Q 16.5 21.390625 20.328125 13.890625 
Q 24.171875 6.390625 31.78125 6.390625 
Q 39.453125 6.390625 43.28125 13.890625 
Q 47.125 21.390625 47.125 36.375 
Q 47.125 51.421875 43.28125 58.90625 
Q 39.453125 66.40625 31.78125 66.40625 
z
M 31.78125 74.21875 
Q 44.046875 74.21875 50.515625 64.515625 
Q 56.984375 54.828125 56.984375 36.375 
Q 56.984375 17.96875 50.515625 8.265625 
Q 44.046875 -1.421875 31.78125 -1.421875 
Q 19.53125 -1.421875 13.0625 8.265625 
Q 6.59375 17.96875 6.59375 36.375 
Q 6.59375 54.828125 13.0625 64.515625 
Q 19.53125 74.21875 31.78125 74.21875 
z
" id="DejaVuSans-48"/>
       </defs>
       <use xlink:href="#DejaVuSans-48"/>
      </g>
     </g>
    </g>
    <g id="xtick_2">
     <g id="line2d_3">
      <path clip-path="url(#p575272bfb8)" d="M 137.910857 298.944 
L 137.910857 27.648 
" style="fill:none;stroke:#b0b0b0;stroke-linecap:square;stroke-width:0.8;"/>
     </g>
     <g id="line2d_4">
      <g>
       <use style="stroke:#000000;stroke-width:0.8;" x="137.910857" xlink:href="#mf075f0ef31" y="298.944"/>
      </g>
     </g>
     <g id="text_2">
      <!-- 2 -->
      <g transform="translate(131.548357 321.140875)scale(0.2 -0.2)">
       <defs>
        <path d="M 19.1875 8.296875 
L 53.609375 8.296875 
L 53.609375 0 
L 7.328125 0 
L 7.328125 8.296875 
Q 12.9375 14.109375 22.625 23.890625 
Q 32.328125 33.6875 34.8125 36.53125 
Q 39.546875 41.84375 41.421875 45.53125 
Q 43.3125 49.21875 43.3125 52.78125 
Q 43.3125 58.59375 39.234375 62.25 
Q 35.15625 65.921875 28.609375 65.921875 
Q 23.96875 65.921875 18.8125 64.3125 
Q 13.671875 62.703125 7.8125 59.421875 
L 7.8125 69.390625 
Q 13.765625 71.78125 18.9375 73 
Q 24.125 74.21875 28.421875 74.21875 
Q 39.75 74.21875 46.484375 68.546875 
Q 53.21875 62.890625 53.21875 53.421875 
Q 53.21875 48.921875 51.53125 44.890625 
Q 49.859375 40.875 45.40625 35.40625 
Q 44.1875 33.984375 37.640625 27.21875 
Q 31.109375 20.453125 19.1875 8.296875 
z
" id="DejaVuSans-50"/>
       </defs>
       <use xlink:href="#DejaVuSans-50"/>
      </g>
     </g>
    </g>
    <g id="xtick_3">
     <g id="line2d_5">
      <path clip-path="url(#p575272bfb8)" d="M 218.221714 298.944 
L 218.221714 27.648 
" style="fill:none;stroke:#b0b0b0;stroke-linecap:square;stroke-width:0.8;"/>
     </g>
     <g id="line2d_6">
      <g>
       <use style="stroke:#000000;stroke-width:0.8;" x="218.221714" xlink:href="#mf075f0ef31" y="298.944"/>
      </g>
     </g>
     <g id="text_3">
      <!-- 4 -->
      <g transform="translate(211.859214 321.140875)scale(0.2 -0.2)">
       <defs>
        <path d="M 37.796875 64.3125 
L 12.890625 25.390625 
L 37.796875 25.390625 
z
M 35.203125 72.90625 
L 47.609375 72.90625 
L 47.609375 25.390625 
L 58.015625 25.390625 
L 58.015625 17.1875 
L 47.609375 17.1875 
L 47.609375 0 
L 37.796875 0 
L 37.796875 17.1875 
L 4.890625 17.1875 
L 4.890625 26.703125 
z
" id="DejaVuSans-52"/>
       </defs>
       <use xlink:href="#DejaVuSans-52"/>
      </g>
     </g>
    </g>
    <g id="xtick_4">
     <g id="line2d_7">
      <path clip-path="url(#p575272bfb8)" d="M 298.532571 298.944 
L 298.532571 27.648 
" style="fill:none;stroke:#b0b0b0;stroke-linecap:square;stroke-width:0.8;"/>
     </g>
     <g id="line2d_8">
      <g>
       <use style="stroke:#000000;stroke-width:0.8;" x="298.532571" xlink:href="#mf075f0ef31" y="298.944"/>
      </g>
     </g>
     <g id="text_4">
      <!-- 6 -->
      <g transform="translate(292.170071 321.140875)scale(0.2 -0.2)">
       <defs>
        <path d="M 33.015625 40.375 
Q 26.375 40.375 22.484375 35.828125 
Q 18.609375 31.296875 18.609375 23.390625 
Q 18.609375 15.53125 22.484375 10.953125 
Q 26.375 6.390625 33.015625 6.390625 
Q 39.65625 6.390625 43.53125 10.953125 
Q 47.40625 15.53125 47.40625 23.390625 
Q 47.40625 31.296875 43.53125 35.828125 
Q 39.65625 40.375 33.015625 40.375 
z
M 52.59375 71.296875 
L 52.59375 62.3125 
Q 48.875 64.0625 45.09375 64.984375 
Q 41.3125 65.921875 37.59375 65.921875 
Q 27.828125 65.921875 22.671875 59.328125 
Q 17.53125 52.734375 16.796875 39.40625 
Q 19.671875 43.65625 24.015625 45.921875 
Q 28.375 48.1875 33.59375 48.1875 
Q 44.578125 48.1875 50.953125 41.515625 
Q 57.328125 34.859375 57.328125 23.390625 
Q 57.328125 12.15625 50.6875 5.359375 
Q 44.046875 -1.421875 33.015625 -1.421875 
Q 20.359375 -1.421875 13.671875 8.265625 
Q 6.984375 17.96875 6.984375 36.375 
Q 6.984375 53.65625 15.1875 63.9375 
Q 23.390625 74.21875 37.203125 74.21875 
Q 40.921875 74.21875 44.703125 73.484375 
Q 48.484375 72.75 52.59375 71.296875 
z
" id="DejaVuSans-54"/>
       </defs>
       <use xlink:href="#DejaVuSans-54"/>
      </g>
     </g>
    </g>
    <g id="xtick_5">
     <g id="line2d_9">
      <path clip-path="url(#p575272bfb8)" d="M 97.755429 298.944 
L 97.755429 27.648 
" style="fill:none;stroke:#b0b0b0;stroke-linecap:square;stroke-width:0.8;"/>
     </g>
     <g id="line2d_10">
      <defs>
       <path d="M 0 0 
L 0 2 
" id="me9616334b3" style="stroke:#000000;stroke-width:0.6;"/>
      </defs>
      <g>
       <use style="stroke:#000000;stroke-width:0.6;" x="97.755429" xlink:href="#me9616334b3" y="298.944"/>
      </g>
     </g>
    </g>
    <g id="xtick_6">
     <g id="line2d_11">
      <path clip-path="url(#p575272bfb8)" d="M 178.066286 298.944 
L 178.066286 27.648 
" style="fill:none;stroke:#b0b0b0;stroke-linecap:square;stroke-width:0.8;"/>
     </g>
     <g id="line2d_12">
      <g>
       <use style="stroke:#000000;stroke-width:0.6;" x="178.066286" xlink:href="#me9616334b3" y="298.944"/>
      </g>
     </g>
    </g>
    <g id="xtick_7">
     <g id="line2d_13">
      <path clip-path="url(#p575272bfb8)" d="M 258.377143 298.944 
L 258.377143 27.648 
" style="fill:none;stroke:#b0b0b0;stroke-linecap:square;stroke-width:0.8;"/>
     </g>
     <g id="line2d_14">
      <g>
       <use style="stroke:#000000;stroke-width:0.6;" x="258.377143" xlink:href="#me9616334b3" y="298.944"/>
      </g>
     </g>
    </g>
    <g id="xtick_8">
     <g id="line2d_15">
      <path clip-path="url(#p575272bfb8)" d="M 338.688 298.944 
L 338.688 27.648 
" style="fill:none;stroke:#b0b0b0;stroke-linecap:square;stroke-width:0.8;"/>
     </g>
     <g id="line2d_16">
      <g>
       <use style="stroke:#000000;stroke-width:0.6;" x="338.688" xlink:href="#me9616334b3" y="298.944"/>
      </g>
     </g>
    </g>
    <g id="text_5">
     <!-- log10(# (f+g)-evals / dimension) -->
     <g transform="translate(58.145016 342.217594)scale(0.17 -0.17)">
      <defs>
       <path d="M 9.421875 75.984375 
L 18.40625 75.984375 
L 18.40625 0 
L 9.421875 0 
z
" id="DejaVuSans-108"/>
       <path d="M 30.609375 48.390625 
Q 23.390625 48.390625 19.1875 42.75 
Q 14.984375 37.109375 14.984375 27.296875 
Q 14.984375 17.484375 19.15625 11.84375 
Q 23.34375 6.203125 30.609375 6.203125 
Q 37.796875 6.203125 41.984375 11.859375 
Q 46.1875 17.53125 46.1875 27.296875 
Q 46.1875 37.015625 41.984375 42.703125 
Q 37.796875 48.390625 30.609375 48.390625 
z
M 30.609375 56 
Q 42.328125 56 49.015625 48.375 
Q 55.71875 40.765625 55.71875 27.296875 
Q 55.71875 13.875 49.015625 6.21875 
Q 42.328125 -1.421875 30.609375 -1.421875 
Q 18.84375 -1.421875 12.171875 6.21875 
Q 5.515625 13.875 5.515625 27.296875 
Q 5.515625 40.765625 12.171875 48.375 
Q 18.84375 56 30.609375 56 
z
" id="DejaVuSans-111"/>
       <path d="M 45.40625 27.984375 
Q 45.40625 37.75 41.375 43.109375 
Q 37.359375 48.484375 30.078125 48.484375 
Q 22.859375 48.484375 18.828125 43.109375 
Q 14.796875 37.75 14.796875 27.984375 
Q 14.796875 18.265625 18.828125 12.890625 
Q 22.859375 7.515625 30.078125 7.515625 
Q 37.359375 7.515625 41.375 12.890625 
Q 45.40625 18.265625 45.40625 27.984375 
z
M 54.390625 6.78125 
Q 54.390625 -7.171875 48.1875 -13.984375 
Q 42 -20.796875 29.203125 -20.796875 
Q 24.46875 -20.796875 20.265625 -20.09375 
Q 16.0625 -19.390625 12.109375 -17.921875 
L 12.109375 -9.1875 
Q 16.0625 -11.328125 19.921875 -12.34375 
Q 23.78125 -13.375 27.78125 -13.375 
Q 36.625 -13.375 41.015625 -8.765625 
Q 45.40625 -4.15625 45.40625 5.171875 
L 45.40625 9.625 
Q 42.625 4.78125 38.28125 2.390625 
Q 33.9375 0 27.875 0 
Q 17.828125 0 11.671875 7.65625 
Q 5.515625 15.328125 5.515625 27.984375 
Q 5.515625 40.671875 11.671875 48.328125 
Q 17.828125 56 27.875 56 
Q 33.9375 56 38.28125 53.609375 
Q 42.625 51.21875 45.40625 46.390625 
L 45.40625 54.6875 
L 54.390625 54.6875 
z
" id="DejaVuSans-103"/>
       <path d="M 12.40625 8.296875 
L 28.515625 8.296875 
L 28.515625 63.921875 
L 10.984375 60.40625 
L 10.984375 69.390625 
L 28.421875 72.90625 
L 38.28125 72.90625 
L 38.28125 8.296875 
L 54.390625 8.296875 
L 54.390625 0 
L 12.40625 0 
z
" id="DejaVuSans-49"/>
       <path d="M 31 75.875 
Q 24.46875 64.65625 21.28125 53.65625 
Q 18.109375 42.671875 18.109375 31.390625 
Q 18.109375 20.125 21.3125 9.0625 
Q 24.515625 -2 31 -13.1875 
L 23.1875 -13.1875 
Q 15.875 -1.703125 12.234375 9.375 
Q 8.59375 20.453125 8.59375 31.390625 
Q 8.59375 42.28125 12.203125 53.3125 
Q 15.828125 64.359375 23.1875 75.875 
z
" id="DejaVuSans-40"/>
       <path d="M 51.125 44 
L 36.921875 44 
L 32.8125 27.6875 
L 47.125 27.6875 
z
M 43.796875 71.78125 
L 38.71875 51.515625 
L 52.984375 51.515625 
L 58.109375 71.78125 
L 65.921875 71.78125 
L 60.890625 51.515625 
L 76.125 51.515625 
L 76.125 44 
L 58.984375 44 
L 54.984375 27.6875 
L 70.515625 27.6875 
L 70.515625 20.21875 
L 53.078125 20.21875 
L 48 0 
L 40.1875 0 
L 45.21875 20.21875 
L 30.90625 20.21875 
L 25.875 0 
L 18.015625 0 
L 23.09375 20.21875 
L 7.71875 20.21875 
L 7.71875 27.6875 
L 24.90625 27.6875 
L 29 44 
L 13.28125 44 
L 13.28125 51.515625 
L 30.90625 51.515625 
L 35.890625 71.78125 
z
" id="DejaVuSans-35"/>
       <path id="DejaVuSans-32"/>
       <path d="M 37.109375 75.984375 
L 37.109375 68.5 
L 28.515625 68.5 
Q 23.6875 68.5 21.796875 66.546875 
Q 19.921875 64.59375 19.921875 59.515625 
L 19.921875 54.6875 
L 34.71875 54.6875 
L 34.71875 47.703125 
L 19.921875 47.703125 
L 19.921875 0 
L 10.890625 0 
L 10.890625 47.703125 
L 2.296875 47.703125 
L 2.296875 54.6875 
L 10.890625 54.6875 
L 10.890625 58.5 
Q 10.890625 67.625 15.140625 71.796875 
Q 19.390625 75.984375 28.609375 75.984375 
z
" id="DejaVuSans-102"/>
       <path d="M 46 62.703125 
L 46 35.5 
L 73.1875 35.5 
L 73.1875 27.203125 
L 46 27.203125 
L 46 0 
L 37.796875 0 
L 37.796875 27.203125 
L 10.59375 27.203125 
L 10.59375 35.5 
L 37.796875 35.5 
L 37.796875 62.703125 
z
" id="DejaVuSans-43"/>
       <path d="M 8.015625 75.875 
L 15.828125 75.875 
Q 23.140625 64.359375 26.78125 53.3125 
Q 30.421875 42.28125 30.421875 31.390625 
Q 30.421875 20.453125 26.78125 9.375 
Q 23.140625 -1.703125 15.828125 -13.1875 
L 8.015625 -13.1875 
Q 14.5 -2 17.703125 9.0625 
Q 20.90625 20.125 20.90625 31.390625 
Q 20.90625 42.671875 17.703125 53.65625 
Q 14.5 64.65625 8.015625 75.875 
z
" id="DejaVuSans-41"/>
       <path d="M 4.890625 31.390625 
L 31.203125 31.390625 
L 31.203125 23.390625 
L 4.890625 23.390625 
z
" id="DejaVuSans-45"/>
       <path d="M 56.203125 29.59375 
L 56.203125 25.203125 
L 14.890625 25.203125 
Q 15.484375 15.921875 20.484375 11.0625 
Q 25.484375 6.203125 34.421875 6.203125 
Q 39.59375 6.203125 44.453125 7.46875 
Q 49.3125 8.734375 54.109375 11.28125 
L 54.109375 2.78125 
Q 49.265625 0.734375 44.1875 -0.34375 
Q 39.109375 -1.421875 33.890625 -1.421875 
Q 20.796875 -1.421875 13.15625 6.1875 
Q 5.515625 13.8125 5.515625 26.8125 
Q 5.515625 40.234375 12.765625 48.109375 
Q 20.015625 56 32.328125 56 
Q 43.359375 56 49.78125 48.890625 
Q 56.203125 41.796875 56.203125 29.59375 
z
M 47.21875 32.234375 
Q 47.125 39.59375 43.09375 43.984375 
Q 39.0625 48.390625 32.421875 48.390625 
Q 24.90625 48.390625 20.390625 44.140625 
Q 15.875 39.890625 15.1875 32.171875 
z
" id="DejaVuSans-101"/>
       <path d="M 2.984375 54.6875 
L 12.5 54.6875 
L 29.59375 8.796875 
L 46.6875 54.6875 
L 56.203125 54.6875 
L 35.6875 0 
L 23.484375 0 
z
" id="DejaVuSans-118"/>
       <path d="M 34.28125 27.484375 
Q 23.390625 27.484375 19.1875 25 
Q 14.984375 22.515625 14.984375 16.5 
Q 14.984375 11.71875 18.140625 8.90625 
Q 21.296875 6.109375 26.703125 6.109375 
Q 34.1875 6.109375 38.703125 11.40625 
Q 43.21875 16.703125 43.21875 25.484375 
L 43.21875 27.484375 
z
M 52.203125 31.203125 
L 52.203125 0 
L 43.21875 0 
L 43.21875 8.296875 
Q 40.140625 3.328125 35.546875 0.953125 
Q 30.953125 -1.421875 24.3125 -1.421875 
Q 15.921875 -1.421875 10.953125 3.296875 
Q 6 8.015625 6 15.921875 
Q 6 25.140625 12.171875 29.828125 
Q 18.359375 34.515625 30.609375 34.515625 
L 43.21875 34.515625 
L 43.21875 35.40625 
Q 43.21875 41.609375 39.140625 45 
Q 35.0625 48.390625 27.6875 48.390625 
Q 23 48.390625 18.546875 47.265625 
Q 14.109375 46.140625 10.015625 43.890625 
L 10.015625 52.203125 
Q 14.9375 54.109375 19.578125 55.046875 
Q 24.21875 56 28.609375 56 
Q 40.484375 56 46.34375 49.84375 
Q 52.203125 43.703125 52.203125 31.203125 
z
" id="DejaVuSans-97"/>
       <path d="M 44.28125 53.078125 
L 44.28125 44.578125 
Q 40.484375 46.53125 36.375 47.5 
Q 32.28125 48.484375 27.875 48.484375 
Q 21.1875 48.484375 17.84375 46.4375 
Q 14.5 44.390625 14.5 40.28125 
Q 14.5 37.15625 16.890625 35.375 
Q 19.28125 33.59375 26.515625 31.984375 
L 29.59375 31.296875 
Q 39.15625 29.25 43.1875 25.515625 
Q 47.21875 21.78125 47.21875 15.09375 
Q 47.21875 7.46875 41.1875 3.015625 
Q 35.15625 -1.421875 24.609375 -1.421875 
Q 20.21875 -1.421875 15.453125 -0.5625 
Q 10.6875 0.296875 5.421875 2 
L 5.421875 11.28125 
Q 10.40625 8.6875 15.234375 7.390625 
Q 20.0625 6.109375 24.8125 6.109375 
Q 31.15625 6.109375 34.5625 8.28125 
Q 37.984375 10.453125 37.984375 14.40625 
Q 37.984375 18.0625 35.515625 20.015625 
Q 33.0625 21.96875 24.703125 23.78125 
L 21.578125 24.515625 
Q 13.234375 26.265625 9.515625 29.90625 
Q 5.8125 33.546875 5.8125 39.890625 
Q 5.8125 47.609375 11.28125 51.796875 
Q 16.75 56 26.8125 56 
Q 31.78125 56 36.171875 55.265625 
Q 40.578125 54.546875 44.28125 53.078125 
z
" id="DejaVuSans-115"/>
       <path d="M 25.390625 72.90625 
L 33.6875 72.90625 
L 8.296875 -9.28125 
L 0 -9.28125 
z
" id="DejaVuSans-47"/>
       <path d="M 45.40625 46.390625 
L 45.40625 75.984375 
L 54.390625 75.984375 
L 54.390625 0 
L 45.40625 0 
L 45.40625 8.203125 
Q 42.578125 3.328125 38.25 0.953125 
Q 33.9375 -1.421875 27.875 -1.421875 
Q 17.96875 -1.421875 11.734375 6.484375 
Q 5.515625 14.40625 5.515625 27.296875 
Q 5.515625 40.1875 11.734375 48.09375 
Q 17.96875 56 27.875 56 
Q 33.9375 56 38.25 53.625 
Q 42.578125 51.265625 45.40625 46.390625 
z
M 14.796875 27.296875 
Q 14.796875 17.390625 18.875 11.75 
Q 22.953125 6.109375 30.078125 6.109375 
Q 37.203125 6.109375 41.296875 11.75 
Q 45.40625 17.390625 45.40625 27.296875 
Q 45.40625 37.203125 41.296875 42.84375 
Q 37.203125 48.484375 30.078125 48.484375 
Q 22.953125 48.484375 18.875 42.84375 
Q 14.796875 37.203125 14.796875 27.296875 
z
" id="DejaVuSans-100"/>
       <path d="M 9.421875 54.6875 
L 18.40625 54.6875 
L 18.40625 0 
L 9.421875 0 
z
M 9.421875 75.984375 
L 18.40625 75.984375 
L 18.40625 64.59375 
L 9.421875 64.59375 
z
" id="DejaVuSans-105"/>
       <path d="M 52 44.1875 
Q 55.375 50.25 60.0625 53.125 
Q 64.75 56 71.09375 56 
Q 79.640625 56 84.28125 50.015625 
Q 88.921875 44.046875 88.921875 33.015625 
L 88.921875 0 
L 79.890625 0 
L 79.890625 32.71875 
Q 79.890625 40.578125 77.09375 44.375 
Q 74.3125 48.1875 68.609375 48.1875 
Q 61.625 48.1875 57.5625 43.546875 
Q 53.515625 38.921875 53.515625 30.90625 
L 53.515625 0 
L 44.484375 0 
L 44.484375 32.71875 
Q 44.484375 40.625 41.703125 44.40625 
Q 38.921875 48.1875 33.109375 48.1875 
Q 26.21875 48.1875 22.15625 43.53125 
Q 18.109375 38.875 18.109375 30.90625 
L 18.109375 0 
L 9.078125 0 
L 9.078125 54.6875 
L 18.109375 54.6875 
L 18.109375 46.1875 
Q 21.1875 51.21875 25.484375 53.609375 
Q 29.78125 56 35.6875 56 
Q 41.65625 56 45.828125 52.96875 
Q 50 49.953125 52 44.1875 
z
" id="DejaVuSans-109"/>
       <path d="M 54.890625 33.015625 
L 54.890625 0 
L 45.90625 0 
L 45.90625 32.71875 
Q 45.90625 40.484375 42.875 44.328125 
Q 39.84375 48.1875 33.796875 48.1875 
Q 26.515625 48.1875 22.3125 43.546875 
Q 18.109375 38.921875 18.109375 30.90625 
L 18.109375 0 
L 9.078125 0 
L 9.078125 54.6875 
L 18.109375 54.6875 
L 18.109375 46.1875 
Q 21.34375 51.125 25.703125 53.5625 
Q 30.078125 56 35.796875 56 
Q 45.21875 56 50.046875 50.171875 
Q 54.890625 44.34375 54.890625 33.015625 
z
" id="DejaVuSans-110"/>
      </defs>
      <use xlink:href="#DejaVuSans-108"/>
      <use x="27.783203" xlink:href="#DejaVuSans-111"/>
      <use x="88.964844" xlink:href="#DejaVuSans-103"/>
      <use x="152.441406" xlink:href="#DejaVuSans-49"/>
      <use x="216.064453" xlink:href="#DejaVuSans-48"/>
      <use x="279.6875" xlink:href="#DejaVuSans-40"/>
      <use x="318.701172" xlink:href="#DejaVuSans-35"/>
      <use x="402.490234" xlink:href="#DejaVuSans-32"/>
      <use x="434.277344" xlink:href="#DejaVuSans-40"/>
      <use x="473.291016" xlink:href="#DejaVuSans-102"/>
      <use x="508.496094" xlink:href="#DejaVuSans-43"/>
      <use x="592.285156" xlink:href="#DejaVuSans-103"/>
      <use x="655.761719" xlink:href="#DejaVuSans-41"/>
      <use x="694.775391" xlink:href="#DejaVuSans-45"/>
      <use x="730.859375" xlink:href="#DejaVuSans-101"/>
      <use x="792.382812" xlink:href="#DejaVuSans-118"/>
      <use x="851.5625" xlink:href="#DejaVuSans-97"/>
      <use x="912.841797" xlink:href="#DejaVuSans-108"/>
      <use x="940.625" xlink:href="#DejaVuSans-115"/>
      <use x="992.724609" xlink:href="#DejaVuSans-32"/>
      <use x="1024.511719" xlink:href="#DejaVuSans-47"/>
      <use x="1058.203125" xlink:href="#DejaVuSans-32"/>
      <use x="1089.990234" xlink:href="#DejaVuSans-100"/>
      <use x="1153.466797" xlink:href="#DejaVuSans-105"/>
      <use x="1181.25" xlink:href="#DejaVuSans-109"/>
      <use x="1278.662109" xlink:href="#DejaVuSans-101"/>
      <use x="1340.185547" xlink:href="#DejaVuSans-110"/>
      <use x="1403.564453" xlink:href="#DejaVuSans-115"/>
      <use x="1455.664062" xlink:href="#DejaVuSans-105"/>
      <use x="1483.447266" xlink:href="#DejaVuSans-111"/>
      <use x="1544.628906" xlink:href="#DejaVuSans-110"/>
      <use x="1608.007812" xlink:href="#DejaVuSans-41"/>
     </g>
    </g>
   </g>
   <g id="matplotlib.axis_2">
    <g id="ytick_1">
     <g id="line2d_17">
      <path clip-path="url(#p575272bfb8)" d="M 57.6 298.944 
L 338.688 298.944 
" style="fill:none;stroke:#b0b0b0;stroke-linecap:square;stroke-width:0.8;"/>
     </g>
     <g id="line2d_18">
      <defs>
       <path d="M 0 0 
L -3.5 0 
" id="m85685b9c3b" style="stroke:#000000;stroke-width:0.8;"/>
      </defs>
      <g>
       <use style="stroke:#000000;stroke-width:0.8;" x="57.6" xlink:href="#m85685b9c3b" y="298.944"/>
      </g>
     </g>
     <g id="text_6">
      <!-- 0.0 -->
      <g transform="translate(25.155 305.02275)scale(0.16 -0.16)">
       <defs>
        <path d="M 10.6875 12.40625 
L 21 12.40625 
L 21 0 
L 10.6875 0 
z
" id="DejaVuSans-46"/>
       </defs>
       <use xlink:href="#DejaVuSans-48"/>
       <use x="63.623047" xlink:href="#DejaVuSans-46"/>
       <use x="95.410156" xlink:href="#DejaVuSans-48"/>
      </g>
     </g>
    </g>
    <g id="ytick_2">
     <g id="line2d_19">
      <path clip-path="url(#p575272bfb8)" d="M 57.6 245.22202 
L 338.688 245.22202 
" style="fill:none;stroke:#b0b0b0;stroke-linecap:square;stroke-width:0.8;"/>
     </g>
     <g id="line2d_20">
      <g>
       <use style="stroke:#000000;stroke-width:0.8;" x="57.6" xlink:href="#m85685b9c3b" y="245.22202"/>
      </g>
     </g>
     <g id="text_7">
      <!-- 0.2 -->
      <g transform="translate(25.155 251.30077)scale(0.16 -0.16)">
       <use xlink:href="#DejaVuSans-48"/>
       <use x="63.623047" xlink:href="#DejaVuSans-46"/>
       <use x="95.410156" xlink:href="#DejaVuSans-50"/>
      </g>
     </g>
    </g>
    <g id="ytick_3">
     <g id="line2d_21">
      <path clip-path="url(#p575272bfb8)" d="M 57.6 191.50004 
L 338.688 191.50004 
" style="fill:none;stroke:#b0b0b0;stroke-linecap:square;stroke-width:0.8;"/>
     </g>
     <g id="line2d_22">
      <g>
       <use style="stroke:#000000;stroke-width:0.8;" x="57.6" xlink:href="#m85685b9c3b" y="191.50004"/>
      </g>
     </g>
     <g id="text_8">
      <!-- 0.4 -->
      <g transform="translate(25.155 197.57879)scale(0.16 -0.16)">
       <use xlink:href="#DejaVuSans-48"/>
       <use x="63.623047" xlink:href="#DejaVuSans-46"/>
       <use x="95.410156" xlink:href="#DejaVuSans-52"/>
      </g>
     </g>
    </g>
    <g id="ytick_4">
     <g id="line2d_23">
      <path clip-path="url(#p575272bfb8)" d="M 57.6 137.778059 
L 338.688 137.778059 
" style="fill:none;stroke:#b0b0b0;stroke-linecap:square;stroke-width:0.8;"/>
     </g>
     <g id="line2d_24">
      <g>
       <use style="stroke:#000000;stroke-width:0.8;" x="57.6" xlink:href="#m85685b9c3b" y="137.778059"/>
      </g>
     </g>
     <g id="text_9">
      <!-- 0.6 -->
      <g transform="translate(25.155 143.856809)scale(0.16 -0.16)">
       <use xlink:href="#DejaVuSans-48"/>
       <use x="63.623047" xlink:href="#DejaVuSans-46"/>
       <use x="95.410156" xlink:href="#DejaVuSans-54"/>
      </g>
     </g>
    </g>
    <g id="ytick_5">
     <g id="line2d_25">
      <path clip-path="url(#p575272bfb8)" d="M 57.6 84.056079 
L 338.688 84.056079 
" style="fill:none;stroke:#b0b0b0;stroke-linecap:square;stroke-width:0.8;"/>
     </g>
     <g id="line2d_26">
      <g>
       <use style="stroke:#000000;stroke-width:0.8;" x="57.6" xlink:href="#m85685b9c3b" y="84.056079"/>
      </g>
     </g>
     <g id="text_10">
      <!-- 0.8 -->
      <g transform="translate(25.155 90.134829)scale(0.16 -0.16)">
       <defs>
        <path d="M 31.78125 34.625 
Q 24.75 34.625 20.71875 30.859375 
Q 16.703125 27.09375 16.703125 20.515625 
Q 16.703125 13.921875 20.71875 10.15625 
Q 24.75 6.390625 31.78125 6.390625 
Q 38.8125 6.390625 42.859375 10.171875 
Q 46.921875 13.96875 46.921875 20.515625 
Q 46.921875 27.09375 42.890625 30.859375 
Q 38.875 34.625 31.78125 34.625 
z
M 21.921875 38.8125 
Q 15.578125 40.375 12.03125 44.71875 
Q 8.5 49.078125 8.5 55.328125 
Q 8.5 64.0625 14.71875 69.140625 
Q 20.953125 74.21875 31.78125 74.21875 
Q 42.671875 74.21875 48.875 69.140625 
Q 55.078125 64.0625 55.078125 55.328125 
Q 55.078125 49.078125 51.53125 44.71875 
Q 48 40.375 41.703125 38.8125 
Q 48.828125 37.15625 52.796875 32.3125 
Q 56.78125 27.484375 56.78125 20.515625 
Q 56.78125 9.90625 50.3125 4.234375 
Q 43.84375 -1.421875 31.78125 -1.421875 
Q 19.734375 -1.421875 13.25 4.234375 
Q 6.78125 9.90625 6.78125 20.515625 
Q 6.78125 27.484375 10.78125 32.3125 
Q 14.796875 37.15625 21.921875 38.8125 
z
M 18.3125 54.390625 
Q 18.3125 48.734375 21.84375 45.5625 
Q 25.390625 42.390625 31.78125 42.390625 
Q 38.140625 42.390625 41.71875 45.5625 
Q 45.3125 48.734375 45.3125 54.390625 
Q 45.3125 60.0625 41.71875 63.234375 
Q 38.140625 66.40625 31.78125 66.40625 
Q 25.390625 66.40625 21.84375 63.234375 
Q 18.3125 60.0625 18.3125 54.390625 
z
" id="DejaVuSans-56"/>
       </defs>
       <use xlink:href="#DejaVuSans-48"/>
       <use x="63.623047" xlink:href="#DejaVuSans-46"/>
       <use x="95.410156" xlink:href="#DejaVuSans-56"/>
      </g>
     </g>
    </g>
    <g id="ytick_6">
     <g id="line2d_27">
      <path clip-path="url(#p575272bfb8)" d="M 57.6 30.334099 
L 338.688 30.334099 
" style="fill:none;stroke:#b0b0b0;stroke-linecap:square;stroke-width:0.8;"/>
     </g>
     <g id="line2d_28">
      <g>
       <use style="stroke:#000000;stroke-width:0.8;" x="57.6" xlink:href="#m85685b9c3b" y="30.334099"/>
      </g>
     </g>
     <g id="text_11">
      <!-- 1.0 -->
      <g transform="translate(25.155 36.412849)scale(0.16 -0.16)">
       <use xlink:href="#DejaVuSans-49"/>
       <use x="63.623047" xlink:href="#DejaVuSans-46"/>
       <use x="95.410156" xlink:href="#DejaVuSans-48"/>
      </g>
     </g>
    </g>
    <g id="text_12">
     <!-- Fraction of function,target pairs -->
     <g transform="translate(17.619531 297.681)rotate(-90)scale(0.17 -0.17)">
      <defs>
       <path d="M 9.8125 72.90625 
L 51.703125 72.90625 
L 51.703125 64.59375 
L 19.671875 64.59375 
L 19.671875 43.109375 
L 48.578125 43.109375 
L 48.578125 34.8125 
L 19.671875 34.8125 
L 19.671875 0 
L 9.8125 0 
z
" id="DejaVuSans-70"/>
       <path d="M 41.109375 46.296875 
Q 39.59375 47.171875 37.8125 47.578125 
Q 36.03125 48 33.890625 48 
Q 26.265625 48 22.1875 43.046875 
Q 18.109375 38.09375 18.109375 28.8125 
L 18.109375 0 
L 9.078125 0 
L 9.078125 54.6875 
L 18.109375 54.6875 
L 18.109375 46.1875 
Q 20.953125 51.171875 25.484375 53.578125 
Q 30.03125 56 36.53125 56 
Q 37.453125 56 38.578125 55.875 
Q 39.703125 55.765625 41.0625 55.515625 
z
" id="DejaVuSans-114"/>
       <path d="M 48.78125 52.59375 
L 48.78125 44.1875 
Q 44.96875 46.296875 41.140625 47.34375 
Q 37.3125 48.390625 33.40625 48.390625 
Q 24.65625 48.390625 19.8125 42.84375 
Q 14.984375 37.3125 14.984375 27.296875 
Q 14.984375 17.28125 19.8125 11.734375 
Q 24.65625 6.203125 33.40625 6.203125 
Q 37.3125 6.203125 41.140625 7.25 
Q 44.96875 8.296875 48.78125 10.40625 
L 48.78125 2.09375 
Q 45.015625 0.34375 40.984375 -0.53125 
Q 36.96875 -1.421875 32.421875 -1.421875 
Q 20.0625 -1.421875 12.78125 6.34375 
Q 5.515625 14.109375 5.515625 27.296875 
Q 5.515625 40.671875 12.859375 48.328125 
Q 20.21875 56 33.015625 56 
Q 37.15625 56 41.109375 55.140625 
Q 45.0625 54.296875 48.78125 52.59375 
z
" id="DejaVuSans-99"/>
       <path d="M 18.3125 70.21875 
L 18.3125 54.6875 
L 36.8125 54.6875 
L 36.8125 47.703125 
L 18.3125 47.703125 
L 18.3125 18.015625 
Q 18.3125 11.328125 20.140625 9.421875 
Q 21.96875 7.515625 27.59375 7.515625 
L 36.8125 7.515625 
L 36.8125 0 
L 27.59375 0 
Q 17.1875 0 13.234375 3.875 
Q 9.28125 7.765625 9.28125 18.015625 
L 9.28125 47.703125 
L 2.6875 47.703125 
L 2.6875 54.6875 
L 9.28125 54.6875 
L 9.28125 70.21875 
z
" id="DejaVuSans-116"/>
       <path d="M 8.5 21.578125 
L 8.5 54.6875 
L 17.484375 54.6875 
L 17.484375 21.921875 
Q 17.484375 14.15625 20.5 10.265625 
Q 23.53125 6.390625 29.59375 6.390625 
Q 36.859375 6.390625 41.078125 11.03125 
Q 45.3125 15.671875 45.3125 23.6875 
L 45.3125 54.6875 
L 54.296875 54.6875 
L 54.296875 0 
L 45.3125 0 
L 45.3125 8.40625 
Q 42.046875 3.421875 37.71875 1 
Q 33.40625 -1.421875 27.6875 -1.421875 
Q 18.265625 -1.421875 13.375 4.4375 
Q 8.5 10.296875 8.5 21.578125 
z
M 31.109375 56 
z
" id="DejaVuSans-117"/>
       <path d="M 11.71875 12.40625 
L 22.015625 12.40625 
L 22.015625 4 
L 14.015625 -11.625 
L 7.71875 -11.625 
L 11.71875 4 
z
" id="DejaVuSans-44"/>
       <path d="M 18.109375 8.203125 
L 18.109375 -20.796875 
L 9.078125 -20.796875 
L 9.078125 54.6875 
L 18.109375 54.6875 
L 18.109375 46.390625 
Q 20.953125 51.265625 25.265625 53.625 
Q 29.59375 56 35.59375 56 
Q 45.5625 56 51.78125 48.09375 
Q 58.015625 40.1875 58.015625 27.296875 
Q 58.015625 14.40625 51.78125 6.484375 
Q 45.5625 -1.421875 35.59375 -1.421875 
Q 29.59375 -1.421875 25.265625 0.953125 
Q 20.953125 3.328125 18.109375 8.203125 
z
M 48.6875 27.296875 
Q 48.6875 37.203125 44.609375 42.84375 
Q 40.53125 48.484375 33.40625 48.484375 
Q 26.265625 48.484375 22.1875 42.84375 
Q 18.109375 37.203125 18.109375 27.296875 
Q 18.109375 17.390625 22.1875 11.75 
Q 26.265625 6.109375 33.40625 6.109375 
Q 40.53125 6.109375 44.609375 11.75 
Q 48.6875 17.390625 48.6875 27.296875 
z
" id="DejaVuSans-112"/>
      </defs>
      <use xlink:href="#DejaVuSans-70"/>
      <use x="50.269531" xlink:href="#DejaVuSans-114"/>
      <use x="91.382812" xlink:href="#DejaVuSans-97"/>
      <use x="152.662109" xlink:href="#DejaVuSans-99"/>
      <use x="207.642578" xlink:href="#DejaVuSans-116"/>
      <use x="246.851562" xlink:href="#DejaVuSans-105"/>
      <use x="274.634766" xlink:href="#DejaVuSans-111"/>
      <use x="335.816406" xlink:href="#DejaVuSans-110"/>
      <use x="399.195312" xlink:href="#DejaVuSans-32"/>
      <use x="430.982422" xlink:href="#DejaVuSans-111"/>
      <use x="492.164062" xlink:href="#DejaVuSans-102"/>
      <use x="527.369141" xlink:href="#DejaVuSans-32"/>
      <use x="559.15625" xlink:href="#DejaVuSans-102"/>
      <use x="594.361328" xlink:href="#DejaVuSans-117"/>
      <use x="657.740234" xlink:href="#DejaVuSans-110"/>
      <use x="721.119141" xlink:href="#DejaVuSans-99"/>
      <use x="776.099609" xlink:href="#DejaVuSans-116"/>
      <use x="815.308594" xlink:href="#DejaVuSans-105"/>
      <use x="843.091797" xlink:href="#DejaVuSans-111"/>
      <use x="904.273438" xlink:href="#DejaVuSans-110"/>
      <use x="967.652344" xlink:href="#DejaVuSans-44"/>
      <use x="999.439453" xlink:href="#DejaVuSans-116"/>
      <use x="1038.648438" xlink:href="#DejaVuSans-97"/>
      <use x="1099.927734" xlink:href="#DejaVuSans-114"/>
      <use x="1139.291016" xlink:href="#DejaVuSans-103"/>
      <use x="1202.767578" xlink:href="#DejaVuSans-101"/>
      <use x="1264.291016" xlink:href="#DejaVuSans-116"/>
      <use x="1303.5" xlink:href="#DejaVuSans-32"/>
      <use x="1335.287109" xlink:href="#DejaVuSans-112"/>
      <use x="1398.763672" xlink:href="#DejaVuSans-97"/>
      <use x="1460.042969" xlink:href="#DejaVuSans-105"/>
      <use x="1487.826172" xlink:href="#DejaVuSans-114"/>
      <use x="1528.939453" xlink:href="#DejaVuSans-115"/>
     </g>
    </g>
   </g>
   <g id="line2d_29">
    <defs>
     <path d="M 0 1.5 
C 0.397805 1.5 0.77937 1.341951 1.06066 1.06066 
C 1.341951 0.77937 1.5 0.397805 1.5 0 
C 1.5 -0.397805 1.341951 -0.77937 1.06066 -1.06066 
C 0.77937 -1.341951 0.397805 -1.5 0 -1.5 
C -0.397805 -1.5 -0.77937 -1.341951 -1.06066 -1.06066 
C -1.341951 -0.77937 -1.5 -0.397805 -1.5 0 
C -1.5 0.397805 -1.341951 0.77937 -1.06066 1.06066 
C -0.77937 1.341951 -0.397805 1.5 0 1.5 
z
" id="m2ce793f7be" style="stroke:#000080;"/>
    </defs>
    <g>
     <use style="fill:#000080;stroke:#000080;" x="255.270712" xlink:href="#m2ce793f7be" y="30.334099"/>
     <use style="fill:#000080;stroke:#000080;" x="255.270712" xlink:href="#m2ce793f7be" y="30.334099"/>
    </g>
   </g>
   <g id="line2d_30">
    <path d="M 45.512012 298.944 
L 45.512012 297.633708 
L 76.759008 297.633708 
L 76.759008 296.323416 
L 88.846997 296.323416 
L 88.846997 295.013123 
L 93.863965 295.013123 
L 93.863965 294.357977 
L 107.009204 294.357977 
L 107.009204 293.702831 
L 116.323218 293.702831 
L 116.323218 291.082247 
L 118.576578 291.082247 
L 118.576578 290.427101 
L 120.093994 290.427101 
L 120.093994 289.116809 
L 122.782271 289.116809 
L 122.782271 288.461662 
L 123.192626 288.461662 
L 123.192626 286.496224 
L 123.985457 286.496224 
L 123.985457 283.87564 
L 125.470548 283.87564 
L 125.470548 283.220494 
L 129.853291 283.220494 
L 129.853291 282.565348 
L 131.185181 282.565348 
L 131.185181 281.910201 
L 131.690703 281.910201 
L 131.690703 279.289617 
L 132.181982 279.289617 
L 132.181982 278.634471 
L 135.280614 278.634471 
L 135.280614 277.979325 
L 136.456742 277.979325 
L 136.456742 277.324179 
L 137.558536 277.324179 
L 137.558536 276.669033 
L 142.215919 276.669033 
L 142.215919 276.013887 
L 142.752555 276.013887 
L 142.752555 274.703594 
L 147.670154 274.703594 
L 147.670154 274.048448 
L 150.932558 274.048448 
L 150.932558 273.393302 
L 153.250915 273.393302 
L 153.250915 272.738156 
L 169.431813 272.738156 
L 169.431813 270.117572 
L 170.59394 270.117572 
L 170.59394 268.807279 
L 171.121244 268.807279 
L 171.224819 266.841841 
L 173.06094 266.841841 
L 173.06094 266.186695 
L 175.056802 266.186695 
L 175.056802 265.531549 
L 175.547218 265.531549 
L 175.547218 264.876403 
L 175.707673 264.876403 
L 175.727626 263.566111 
L 176.392805 263.566111 
L 176.392805 262.910965 
L 176.640581 262.910965 
L 176.640581 262.255818 
L 176.772554 262.255818 
L 176.772554 261.600672 
L 177.290683 261.600672 
L 177.290683 260.945526 
L 177.740637 260.945526 
L 177.846921 258.324942 
L 177.864572 258.324942 
L 177.864572 257.669796 
L 180.49605 257.669796 
L 180.49605 257.01465 
L 180.826662 257.01465 
L 180.826662 256.359504 
L 181.426562 256.359504 
L 181.426562 253.738919 
L 183.524506 253.738919 
L 183.524506 253.083773 
L 185.079078 253.083773 
L 185.079078 252.428627 
L 187.503741 252.428627 
L 187.503741 251.773481 
L 190.219549 251.773481 
L 190.219549 251.118335 
L 190.538044 251.118335 
L 190.538044 250.463189 
L 190.716258 250.463189 
L 190.716258 249.152896 
L 191.075585 249.152896 
L 191.108637 245.877166 
L 191.756862 245.877166 
L 191.756862 243.256582 
L 192.079966 243.256582 
L 192.079966 242.601435 
L 192.227692 242.601435 
L 192.227692 241.291143 
L 192.496585 241.291143 
L 192.496585 239.325705 
L 192.671055 239.325705 
L 192.671055 238.015413 
L 193.007442 238.015413 
L 193.007442 236.705121 
L 193.489362 236.705121 
L 193.489362 236.049974 
L 193.824606 236.049974 
L 193.923233 234.739682 
L 193.965332 234.739682 
L 193.965332 232.119098 
L 194.188156 232.119098 
L 194.188156 231.463952 
L 194.496763 231.463952 
L 194.530718 229.498513 
L 194.712942 229.498513 
L 194.753179 227.533075 
L 195.065195 227.533075 
L 195.111192 225.567637 
L 195.487711 225.567637 
L 195.570999 223.602199 
L 196.35218 223.602199 
L 196.35218 220.326468 
L 196.84626 220.326468 
L 196.84626 218.36103 
L 197.094007 218.36103 
L 197.094007 217.705884 
L 197.222387 217.705884 
L 197.222387 217.050738 
L 197.421828 217.050738 
L 197.421828 216.395591 
L 200.799991 216.395591 
L 200.799991 215.740445 
L 206.239782 215.740445 
L 206.298617 213.119861 
L 206.367581 213.119861 
L 206.367581 212.464715 
L 206.491033 212.464715 
L 206.491033 211.809569 
L 206.620403 211.809569 
L 206.620403 211.154423 
L 206.822737 211.154423 
L 206.842842 209.84413 
L 206.962986 209.84413 
L 207.03269 207.878692 
L 207.166338 207.878692 
L 207.263046 204.602962 
L 207.692511 204.602962 
L 207.692511 203.947816 
L 207.904917 203.947816 
L 207.983515 202.637523 
L 208.331349 202.637523 
L 208.331349 201.982377 
L 208.966893 201.982377 
L 208.966893 201.327231 
L 209.776484 201.327231 
L 209.861189 200.016939 
L 209.962294 200.016939 
L 210.032163 198.706647 
L 210.207002 198.706647 
L 210.207002 197.396355 
L 210.431975 197.396355 
L 210.431975 196.741208 
L 210.613664 196.741208 
L 210.636579 195.430916 
L 210.753383 195.430916 
L 210.753383 194.77577 
L 211.045305 194.77577 
L 211.079484 193.465478 
L 211.210322 193.465478 
L 211.210322 192.810332 
L 211.896609 192.810332 
L 211.947914 191.50004 
L 212.480725 191.50004 
L 212.524299 189.534601 
L 212.635162 189.534601 
L 212.721436 186.914017 
L 212.762029 186.914017 
L 212.797768 185.603725 
L 213.071701 185.603725 
L 213.099795 184.293433 
L 213.183806 184.293433 
L 213.291725 181.672848 
L 213.346012 181.672848 
L 213.402429 180.362556 
L 213.56604 180.362556 
L 213.652373 178.397118 
L 213.69764 178.397118 
L 213.800188 175.121387 
L 213.868593 175.121387 
L 213.946761 172.500803 
L 214.017924 172.500803 
L 214.079954 169.880218 
L 214.206649 169.880218 
L 214.261448 167.91478 
L 214.393354 167.91478 
L 214.411807 166.604488 
L 214.531813 166.604488 
L 214.531813 165.949342 
L 215.750938 165.949342 
L 215.750938 160.708173 
L 216.530949 160.708173 
L 216.530949 160.053027 
L 217.371198 160.053027 
L 217.371198 159.397881 
L 218.516548 159.397881 
L 218.516548 158.742735 
L 218.635313 158.742735 
L 218.635313 158.087589 
L 218.857839 158.087589 
L 218.857839 157.432442 
L 218.981826 157.432442 
L 219.092499 154.811858 
L 219.183505 154.811858 
L 219.229654 151.536128 
L 219.367372 151.536128 
L 219.389404 150.225835 
L 219.69096 150.225835 
L 219.742981 148.915543 
L 220.225313 148.915543 
L 220.225313 148.260397 
L 220.39857 148.260397 
L 220.39857 147.605251 
L 220.583835 147.605251 
L 220.583835 146.950105 
L 220.708277 146.950105 
L 220.708277 146.294959 
L 220.831838 146.294959 
L 220.831838 145.639813 
L 221.014067 145.639813 
L 221.014067 144.984667 
L 221.641578 144.984667 
L 221.641578 144.32952 
L 221.784331 144.32952 
L 221.821256 142.364082 
L 222.06218 142.364082 
L 222.156373 141.05379 
L 222.251444 141.05379 
L 222.354946 137.778059 
L 222.408525 137.778059 
L 222.506328 135.812621 
L 222.532225 135.812621 
L 222.60562 133.847183 
L 222.701652 133.847183 
L 222.77971 131.226598 
L 222.84806 131.226598 
L 222.957398 128.606014 
L 222.979316 128.606014 
L 223.073978 126.640576 
L 223.107615 126.640576 
L 223.112885 125.330284 
L 223.367907 125.330284 
L 223.367907 124.675137 
L 223.60325 124.675137 
L 223.60325 124.019991 
L 223.801299 124.019991 
L 223.801299 123.364845 
L 223.957633 123.364845 
L 224.047768 120.744261 
L 224.102623 120.744261 
L 224.102623 120.089115 
L 224.282797 120.089115 
L 224.282797 119.433969 
L 224.970639 119.433969 
L 225.072192 117.46853 
L 225.091609 117.46853 
L 225.127443 116.158238 
L 225.207656 116.158238 
L 225.221086 114.847946 
L 225.527737 114.847946 
L 225.587282 113.537654 
L 225.885929 113.537654 
L 225.952104 112.227362 
L 226.079816 112.227362 
L 226.079816 111.572215 
L 226.399155 111.572215 
L 226.503592 109.606777 
L 227.023441 109.606777 
L 227.039751 108.296485 
L 227.151931 108.296485 
L 227.151931 107.641339 
L 227.321966 107.641339 
L 227.358666 106.331047 
L 227.453934 106.331047 
L 227.558385 104.365608 
L 227.710357 104.365608 
L 227.813288 103.055316 
L 227.966556 103.055316 
L 228.052118 101.745024 
L 228.085334 101.745024 
L 228.149604 100.434732 
L 228.198881 100.434732 
L 228.243112 98.469293 
L 228.312672 98.469293 
L 228.312672 97.814147 
L 228.506168 97.814147 
L 228.586723 95.848709 
L 228.667867 95.848709 
L 228.712359 94.538417 
L 228.860326 94.538417 
L 228.922751 93.228125 
L 229.118969 93.228125 
L 229.220897 91.262686 
L 229.347591 91.262686 
L 229.447738 89.952394 
L 229.957382 89.952394 
L 230.022214 88.642102 
L 230.316241 88.642102 
L 230.423124 85.366371 
L 230.465522 85.366371 
L 230.537965 83.400933 
L 230.862819 83.400933 
L 230.949611 81.435495 
L 231.001647 81.435495 
L 231.001647 80.780349 
L 231.271081 80.780349 
L 231.271081 80.125203 
L 231.552663 80.125203 
L 231.552663 79.470057 
L 231.676052 79.470057 
L 231.751275 77.504618 
L 231.888013 77.504618 
L 231.888013 76.849472 
L 232.041857 76.849472 
L 232.041857 76.194326 
L 232.38312 76.194326 
L 232.415994 74.884034 
L 232.526534 74.884034 
L 232.526534 74.228888 
L 232.984272 74.228888 
L 232.984272 73.573742 
L 233.14991 73.573742 
L 233.14991 72.918596 
L 233.284973 72.918596 
L 233.370414 71.608303 
L 233.434312 71.608303 
L 233.45653 70.298011 
L 233.661707 70.298011 
L 233.661707 69.642865 
L 233.799304 69.642865 
L 233.895761 67.677427 
L 234.410225 67.677427 
L 234.410225 67.022281 
L 234.71665 67.022281 
L 234.784582 65.711988 
L 234.92066 65.711988 
L 234.92066 65.056842 
L 235.121649 65.056842 
L 235.159656 63.091404 
L 235.80264 63.091404 
L 235.80264 62.436258 
L 236.006669 62.436258 
L 236.006669 61.781112 
L 236.153541 61.781112 
L 236.202743 60.47082 
L 236.387409 60.47082 
L 236.475799 59.160527 
L 236.68909 59.160527 
L 236.731075 57.850235 
L 236.807836 57.850235 
L 236.807836 57.195089 
L 237.321037 57.195089 
L 237.393216 55.884797 
L 237.767905 55.884797 
L 237.767905 55.229651 
L 238.64789 55.229651 
L 238.64789 54.574505 
L 239.168974 54.574505 
L 239.168974 53.919359 
L 239.488688 53.919359 
L 239.59397 52.609066 
L 239.647395 52.609066 
L 239.677995 51.298774 
L 240.486491 51.298774 
L 240.486491 50.643628 
L 240.849968 50.643628 
L 240.849968 49.988482 
L 241.491466 49.988482 
L 241.510285 48.67819 
L 242.621004 48.67819 
L 242.621004 48.023044 
L 243.145485 48.023044 
L 243.202614 46.712752 
L 244.032066 46.712752 
L 244.032066 46.057605 
L 244.383986 46.057605 
L 244.418577 44.747313 
L 244.60761 44.747313 
L 244.60761 44.092167 
L 244.926167 44.092167 
L 244.926167 43.437021 
L 245.241417 43.437021 
L 245.325108 42.126729 
L 245.5618 42.126729 
L 245.571979 40.816437 
L 245.830988 40.816437 
L 245.830988 40.161291 
L 246.385501 40.161291 
L 246.385501 39.506144 
L 247.062784 39.506144 
L 247.062784 38.850998 
L 247.463367 38.850998 
L 247.463367 38.195852 
L 247.781949 38.195852 
L 247.866907 36.88556 
L 248.337469 36.88556 
L 248.337469 36.230414 
L 250.794028 36.230414 
L 250.794028 35.575268 
L 251.833878 35.575268 
L 251.833878 34.920122 
L 252.116582 34.920122 
L 252.116582 34.264976 
L 252.654443 34.264976 
L 252.654443 33.60983 
L 252.953553 33.60983 
L 252.953553 32.954683 
L 253.368195 32.954683 
L 253.446575 31.644391 
L 253.537844 31.644391 
L 253.537844 30.989245 
L 255.270712 30.989245 
L 255.270712 30.334099 
L 338.688 30.334099 
L 338.688 30.334099 
" style="fill:none;stroke:#000080;stroke-linecap:square;stroke-width:1.5;"/>
   </g>
   <g id="line2d_31">
    <defs>
     <path d="M 0 6 
C 1.591219 6 3.117479 5.367802 4.242641 4.242641 
C 5.367802 3.117479 6 1.591219 6 0 
C 6 -1.591219 5.367802 -3.117479 4.242641 -4.242641 
C 3.117479 -5.367802 1.591219 -6 0 -6 
C -1.591219 -6 -3.117479 -5.367802 -4.242641 -4.242641 
C -5.367802 -3.117479 -6 -1.591219 -6 0 
C -6 1.591219 -5.367802 3.117479 -4.242641 4.242641 
C -3.117479 5.367802 -1.591219 6 0 6 
z
" id="m59bd9a5652" style="stroke:#000080;stroke-width:1.5;"/>
    </defs>
    <g>
     <use style="fill-opacity:0;stroke:#000080;stroke-width:1.5;" x="175.707673" xlink:href="#m59bd9a5652" y="264.876403"/>
     <use style="fill-opacity:0;stroke:#000080;stroke-width:1.5;" x="216.530949" xlink:href="#m59bd9a5652" y="160.053027"/>
     <use style="fill-opacity:0;stroke:#000080;stroke-width:1.5;" x="243.202614" xlink:href="#m59bd9a5652" y="46.712752"/>
     <use style="fill-opacity:0;stroke:#000080;stroke-width:1.5;" x="255.270712" xlink:href="#m59bd9a5652" y="30.334099"/>
     <use style="fill-opacity:0;stroke:#000080;stroke-width:1.5;" x="255.270712" xlink:href="#m59bd9a5652" y="30.334099"/>
     <use style="fill-opacity:0;stroke:#000080;stroke-width:1.5;" x="338.688" xlink:href="#m59bd9a5652" y="30.334099"/>
    </g>
   </g>
   <g id="line2d_32">
    <path style="fill:none;stroke:#000080;stroke-linecap:square;stroke-width:1.5;"/>
    <g/>
   </g>
   <g id="line2d_33">
    <path clip-path="url(#p575272bfb8)" d="M 207.057517 207.878692 
" style="fill:none;stroke:#000080;stroke-linecap:square;stroke-width:1.5;"/>
    <defs>
     <path d="M -12 12 
L 12 -12 
M -12 -12 
L 12 12 
" id="m62ff2c0988" style="stroke:#000080;"/>
    </defs>
    <g clip-path="url(#p575272bfb8)">
     <use style="fill:#000080;stroke:#000080;" x="207.057517" xlink:href="#m62ff2c0988" y="207.878692"/>
    </g>
   </g>
   <g id="line2d_34">
    <defs>
     <path d="M 0 1.5 
C 0.397805 1.5 0.77937 1.341951 1.06066 1.06066 
C 1.341951 0.77937 1.5 0.397805 1.5 0 
C 1.5 -0.397805 1.341951 -0.77937 1.06066 -1.06066 
C 0.77937 -1.341951 0.397805 -1.5 0 -1.5 
C -0.397805 -1.5 -0.77937 -1.341951 -1.06066 -1.06066 
C -1.341951 -0.77937 -1.5 -0.397805 -1.5 0 
C -1.5 0.397805 -1.341951 0.77937 -1.06066 1.06066 
C -0.77937 1.341951 -0.397805 1.5 0 1.5 
z
" id="m5dbee5336a" style="stroke:#ff00ff;"/>
    </defs>
    <g>
     <use style="fill:#ff00ff;stroke:#ff00ff;" x="161.12334" xlink:href="#m5dbee5336a" y="148.260397"/>
     <use style="fill:#ff00ff;stroke:#ff00ff;" x="161.12334" xlink:href="#m5dbee5336a" y="148.260397"/>
    </g>
   </g>
   <g id="line2d_35">
    <path d="M 45.512012 298.944 
L 45.512012 298.288854 
L 73.579452 298.288854 
L 73.579452 296.978562 
L 88.846997 296.978562 
L 88.846997 295.66827 
L 90.242884 295.66827 
L 90.242884 293.047685 
L 93.863965 293.047685 
L 93.863965 291.737393 
L 96.86091 291.737393 
L 96.86091 287.806516 
L 97.755429 287.806516 
L 97.755429 287.15137 
L 98.606294 287.15137 
L 98.606294 281.255055 
L 100.934985 281.255055 
L 100.934985 279.944763 
L 102.989037 279.944763 
L 102.989037 278.634471 
L 104.826449 278.634471 
L 104.826449 274.703594 
L 105.951954 274.703594 
L 105.951954 266.186695 
L 107.009204 266.186695 
L 107.009204 265.531549 
L 107.514726 265.531549 
L 107.514726 264.876403 
L 108.006005 264.876403 
L 108.006005 264.221257 
L 108.948899 264.221257 
L 108.948899 261.600672 
L 109.843417 261.600672 
L 109.843417 260.945526 
L 110.274038 260.945526 
L 110.274038 256.359504 
L 111.104637 256.359504 
L 111.104637 251.773481 
L 111.897469 251.773481 
L 111.897469 250.463189 
L 112.655818 250.463189 
L 112.655818 249.152896 
L 113.382559 249.152896 
L 113.382559 248.49775 
L 114.080224 248.49775 
L 114.080224 247.842604 
L 114.418861 247.842604 
L 114.418861 245.22202 
L 114.751048 245.22202 
L 114.751048 244.566874 
L 115.077025 244.566874 
L 115.077025 241.946289 
L 115.711251 241.946289 
L 115.711251 239.980851 
L 116.019919 239.980851 
L 116.019919 238.670559 
L 117.202696 238.670559 
L 117.202696 238.015413 
L 117.486268 238.015413 
L 117.486268 237.360267 
L 117.765302 237.360267 
L 117.765302 236.049974 
L 118.838828 236.049974 
L 118.838828 234.084536 
L 119.097192 234.084536 
L 119.097192 233.42939 
L 119.850084 233.42939 
L 119.850084 232.119098 
L 120.571812 232.119098 
L 120.571812 231.463952 
L 120.8059 231.463952 
L 120.8059 230.808806 
L 121.036887 230.808806 
L 121.036887 230.15366 
L 121.489881 230.15366 
L 121.489881 229.498513 
L 121.712041 229.498513 
L 121.712041 228.843367 
L 121.931406 228.843367 
L 121.931406 228.188221 
L 122.362027 228.188221 
L 122.362027 227.533075 
L 122.782271 227.533075 
L 122.782271 226.222783 
L 123.192626 226.222783 
L 123.192626 225.567637 
L 123.394238 225.567637 
L 123.394238 222.947052 
L 124.178158 222.947052 
L 124.178158 222.291906 
L 124.368753 222.291906 
L 124.368753 220.981614 
L 124.743806 220.981614 
L 124.743806 220.326468 
L 124.92835 220.326468 
L 124.92835 219.016176 
L 125.110962 219.016176 
L 125.110962 217.705884 
L 125.470548 217.705884 
L 125.470548 215.740445 
L 125.647598 215.740445 
L 125.647598 215.085299 
L 126.168212 215.085299 
L 126.168212 214.430153 
L 126.338353 214.430153 
L 126.338353 213.775007 
L 126.50685 213.775007 
L 126.50685 213.119861 
L 126.839037 213.119861 
L 126.839037 211.809569 
L 127.325746 211.809569 
L 127.325746 211.154423 
L 127.48501 211.154423 
L 127.48501 210.499277 
L 127.799239 210.499277 
L 127.799239 209.84413 
L 127.954256 209.84413 
L 127.954256 209.188984 
L 128.107907 209.188984 
L 128.107907 208.533838 
L 128.560901 208.533838 
L 128.560901 207.878692 
L 128.709321 207.878692 
L 128.709321 207.223546 
L 129.002426 207.223546 
L 129.002426 203.947816 
L 129.147151 203.947816 
L 129.147151 202.637523 
L 129.433047 202.637523 
L 129.433047 201.982377 
L 130.796184 201.982377 
L 130.796184 201.327231 
L 132.181982 201.327231 
L 132.181982 200.672085 
L 132.30267 200.672085 
L 132.30267 200.016939 
L 133.009765 200.016939 
L 133.009765 199.361793 
L 133.124876 199.361793 
L 133.124876 198.706647 
L 133.352844 198.706647 
L 133.352844 197.396355 
L 133.46572 197.396355 
L 133.46572 196.741208 
L 133.910056 196.741208 
L 133.910056 195.430916 
L 134.343353 195.430916 
L 134.343353 194.77577 
L 135.681535 194.77577 
L 135.780341 193.465478 
L 135.878591 193.465478 
L 135.878591 192.155186 
L 136.170062 192.155186 
L 136.170062 191.50004 
L 136.551264 191.50004 
L 136.645276 190.189747 
L 136.924311 190.189747 
L 136.924311 189.534601 
L 137.107884 189.534601 
L 137.107884 188.879455 
L 137.37967 188.879455 
L 137.37967 188.224309 
L 138.084384 188.224309 
L 138.084384 187.569163 
L 138.256201 187.569163 
L 138.341479 186.258871 
L 138.594838 186.258871 
L 138.594838 185.603725 
L 138.761723 185.603725 
L 138.84457 182.98314 
L 139.009092 182.98314 
L 139.009092 182.327994 
L 139.413734 182.327994 
L 139.413734 181.672848 
L 140.11924 181.672848 
L 140.11924 181.017702 
L 140.272217 181.017702 
L 140.348205 179.052264 
L 140.723258 179.052264 
L 140.723258 178.397118 
L 140.944478 178.397118 
L 140.944478 177.741972 
L 141.521035 177.741972 
L 141.591783 175.776533 
L 141.662245 175.776533 
L 141.662245 175.121387 
L 142.010346 175.121387 
L 142.010346 174.466241 
L 142.283909 174.466241 
L 142.283909 173.811095 
L 142.619936 173.811095 
L 142.619936 173.155949 
L 143.014805 173.155949 
L 143.014805 172.500803 
L 143.144465 172.500803 
L 143.144465 171.845657 
L 143.40093 171.845657 
L 143.40093 171.190511 
L 143.527762 171.190511 
L 143.527762 169.880218 
L 143.902815 169.880218 
L 143.902815 169.225072 
L 144.747789 169.225072 
L 144.747789 168.569926 
L 144.981877 168.569926 
L 144.981877 167.91478 
L 146.906268 167.91478 
L 146.958248 166.604488 
L 147.317833 166.604488 
L 147.317833 165.949342 
L 147.96658 165.949342 
L 147.96658 165.294196 
L 149.286939 165.294196 
L 149.286939 164.63905 
L 149.735275 164.63905 
L 149.735275 163.983903 
L 150.766468 163.983903 
L 150.766468 163.328757 
L 151.219462 163.328757 
L 151.260066 162.018465 
L 151.858043 162.018465 
L 151.858043 161.363319 
L 152.0141 161.363319 
L 152.0141 160.708173 
L 152.168773 160.708173 
L 152.168773 160.053027 
L 153.032466 160.053027 
L 153.105587 158.087589 
L 153.214697 158.087589 
L 153.214697 157.432442 
L 153.644434 157.432442 
L 153.644434 156.777296 
L 154.269814 156.777296 
L 154.269814 156.12215 
L 154.840544 156.12215 
L 154.840544 155.467004 
L 155.55245 155.467004 
L 155.584129 154.156712 
L 155.710272 154.156712 
L 155.710272 153.501566 
L 155.86668 153.501566 
L 155.86668 152.84642 
L 158.249784 152.84642 
L 158.249784 152.191274 
L 158.599388 152.191274 
L 158.67908 150.880981 
L 159.380382 150.880981 
L 159.380382 150.225835 
L 160.844678 150.225835 
L 160.844678 149.570689 
L 161.030947 149.570689 
L 161.12334 148.260397 
L 338.688 148.260397 
L 338.688 148.260397 
" style="fill:none;stroke:#ff00ff;stroke-linecap:square;stroke-width:1.5;"/>
   </g>
   <g id="line2d_36">
    <defs>
     <path d="M -0 8.485281 
L 5.091169 0 
L 0 -8.485281 
L -5.091169 -0 
z
" id="m06deb4008f" style="stroke:#ff00ff;stroke-linejoin:miter;stroke-width:1.5;"/>
    </defs>
    <g>
     <use style="fill-opacity:0;stroke:#ff00ff;stroke-linejoin:miter;stroke-width:1.5;" x="100.934985" xlink:href="#m06deb4008f" y="279.944763"/>
     <use style="fill-opacity:0;stroke:#ff00ff;stroke-linejoin:miter;stroke-width:1.5;" x="128.107907" xlink:href="#m06deb4008f" y="209.188984"/>
     <use style="fill-opacity:0;stroke:#ff00ff;stroke-linejoin:miter;stroke-width:1.5;" x="161.12334" xlink:href="#m06deb4008f" y="148.915543"/>
     <use style="fill-opacity:0;stroke:#ff00ff;stroke-linejoin:miter;stroke-width:1.5;" x="161.12334" xlink:href="#m06deb4008f" y="148.260397"/>
     <use style="fill-opacity:0;stroke:#ff00ff;stroke-linejoin:miter;stroke-width:1.5;" x="161.12334" xlink:href="#m06deb4008f" y="148.260397"/>
     <use style="fill-opacity:0;stroke:#ff00ff;stroke-linejoin:miter;stroke-width:1.5;" x="338.688" xlink:href="#m06deb4008f" y="148.260397"/>
    </g>
   </g>
   <g id="line2d_37">
    <path style="fill:none;stroke:#ff00ff;stroke-linecap:square;stroke-width:1.5;"/>
    <g/>
   </g>
   <g id="line2d_38">
    <path clip-path="url(#p575272bfb8)" d="M 87.329581 296.978562 
" style="fill:none;stroke:#ff00ff;stroke-linecap:square;stroke-width:1.5;"/>
    <defs>
     <path d="M -12 12 
L 12 -12 
M -12 -12 
L 12 12 
" id="m7e3c2635d6" style="stroke:#ff00ff;"/>
    </defs>
    <g clip-path="url(#p575272bfb8)">
     <use style="fill:#ff00ff;stroke:#ff00ff;" x="87.329581" xlink:href="#m7e3c2635d6" y="296.978562"/>
    </g>
   </g>
   <g id="line2d_39">
    <defs>
     <path d="M 0 1.5 
C 0.397805 1.5 0.77937 1.341951 1.06066 1.06066 
C 1.341951 0.77937 1.5 0.397805 1.5 0 
C 1.5 -0.397805 1.341951 -0.77937 1.06066 -1.06066 
C 0.77937 -1.341951 0.397805 -1.5 0 -1.5 
C -0.397805 -1.5 -0.77937 -1.341951 -1.06066 -1.06066 
C -1.341951 -0.77937 -1.5 -0.397805 -1.5 0 
C -1.5 0.397805 -1.341951 0.77937 -1.06066 1.06066 
C -0.77937 1.341951 -0.397805 1.5 0 1.5 
z
" id="m0ae82d7910" style="stroke:#ff7500;"/>
    </defs>
    <g>
     <use style="fill:#ff7500;stroke:#ff7500;" x="199.926023" xlink:href="#m0ae82d7910" y="30.334099"/>
     <use style="fill:#ff7500;stroke:#ff7500;" x="199.926023" xlink:href="#m0ae82d7910" y="30.334099"/>
    </g>
   </g>
   <g id="line2d_40">
    <path d="M 45.512012 298.944 
L 45.512012 298.288854 
L 81.775977 298.288854 
L 81.775977 295.66827 
L 85.66744 295.66827 
L 85.66744 294.357977 
L 91.535274 294.357977 
L 91.535274 287.806516 
L 93.863965 287.806516 
L 93.863965 285.185932 
L 97.755429 285.185932 
L 97.755429 283.87564 
L 99.41757 283.87564 
L 99.41757 277.979325 
L 102.330873 277.979325 
L 102.330873 276.669033 
L 105.951954 276.669033 
L 105.951954 268.807279 
L 107.009204 268.807279 
L 107.009204 267.496987 
L 108.948899 267.496987 
L 108.948899 256.359504 
L 111.505558 256.359504 
L 111.505558 255.049211 
L 115.711251 255.049211 
L 115.711251 253.738919 
L 117.486268 253.738919 
L 117.486268 253.083773 
L 119.602714 253.083773 
L 119.602714 246.532312 
L 121.036887 246.532312 
L 121.036887 242.601435 
L 121.712041 242.601435 
L 121.712041 241.946289 
L 121.931406 241.946289 
L 121.931406 240.635997 
L 122.362027 240.635997 
L 122.362027 239.980851 
L 123.192626 239.980851 
L 123.192626 235.394828 
L 123.593547 235.394828 
L 123.593547 234.084536 
L 123.790603 234.084536 
L 123.790603 233.42939 
L 124.178158 233.42939 
L 124.178158 232.774244 
L 124.368753 232.774244 
L 124.368753 230.808806 
L 124.92835 230.808806 
L 124.92835 230.15366 
L 125.822869 230.15366 
L 125.822869 229.498513 
L 126.168212 229.498513 
L 126.168212 227.533075 
L 126.338353 227.533075 
L 126.338353 226.222783 
L 127.002787 226.222783 
L 127.002787 225.567637 
L 127.165014 225.567637 
L 127.165014 224.912491 
L 128.107907 224.912491 
L 128.107907 222.291906 
L 129.002426 222.291906 
L 129.002426 219.671322 
L 129.147151 219.671322 
L 129.147151 218.36103 
L 129.290685 218.36103 
L 129.290685 217.705884 
L 129.853291 217.705884 
L 129.853291 216.395591 
L 130.664567 216.395591 
L 130.664567 214.430153 
L 131.185181 214.430153 
L 131.185181 213.775007 
L 131.565689 213.775007 
L 131.565689 213.119861 
L 131.690703 213.119861 
L 131.690703 211.154423 
L 131.814826 211.154423 
L 131.814826 210.499277 
L 132.181982 210.499277 
L 132.181982 209.188984 
L 132.30267 209.188984 
L 132.30267 207.878692 
L 132.422528 207.878692 
L 132.422528 206.5684 
L 132.659801 206.5684 
L 132.659801 205.913254 
L 133.124876 205.913254 
L 133.124876 201.327231 
L 133.352844 201.327231 
L 133.352844 200.672085 
L 134.019394 200.672085 
L 134.12805 196.741208 
L 134.450015 196.741208 
L 134.450015 196.086062 
L 134.661403 196.086062 
L 134.661403 195.430916 
L 134.870259 195.430916 
L 134.973757 193.465478 
L 135.076644 193.465478 
L 135.076644 192.155186 
L 135.780341 192.155186 
L 135.780341 191.50004 
L 136.924311 191.50004 
L 136.924311 190.844894 
L 137.107884 190.844894 
L 137.107884 190.189747 
L 137.735587 190.189747 
L 137.735587 188.879455 
L 138.256201 188.879455 
L 138.256201 186.258871 
L 138.594838 186.258871 
L 138.594838 184.948579 
L 138.927025 184.948579 
L 138.927025 180.362556 
L 139.090775 180.362556 
L 139.090775 179.70741 
L 139.253002 179.70741 
L 139.333553 177.741972 
L 139.413734 177.741972 
L 139.493548 175.121387 
L 139.730821 175.121387 
L 139.730821 173.811095 
L 140.348205 173.811095 
L 140.348205 173.155949 
L 140.499195 173.155949 
L 140.499195 172.500803 
L 140.64889 172.500803 
L 140.64889 171.845657 
L 140.79731 171.845657 
L 140.871049 170.535364 
L 141.090414 170.535364 
L 141.090414 169.880218 
L 141.235139 169.880218 
L 141.307054 167.259634 
L 141.378673 167.259634 
L 141.378673 166.604488 
L 141.941279 166.604488 
L 142.010346 165.294196 
L 142.07914 165.294196 
L 142.07914 164.63905 
L 142.486301 164.63905 
L 142.486301 163.983903 
L 142.686372 163.983903 
L 142.686372 162.673611 
L 142.884173 162.673611 
L 142.884173 162.018465 
L 143.014805 162.018465 
L 143.079756 160.053027 
L 143.40093 160.053027 
L 143.464461 157.432442 
L 143.778691 157.432442 
L 143.840863 156.12215 
L 143.902815 156.12215 
L 143.902815 154.811858 
L 144.148442 154.811858 
L 144.209312 153.501566 
L 144.269971 153.501566 
L 144.269971 152.84642 
L 144.390658 152.84642 
L 144.390658 152.191274 
L 144.510517 152.191274 
L 144.510517 151.536128 
L 144.865226 151.536128 
L 144.865226 149.570689 
L 145.998045 149.570689 
L 146.052799 148.260397 
L 146.161795 148.260397 
L 146.270114 146.950105 
L 146.854132 146.950105 
L 146.958248 145.639813 
L 147.010073 145.639813 
L 147.010073 144.984667 
L 147.215849 144.984667 
L 147.266916 143.674374 
L 147.4697 143.674374 
L 147.570215 140.398644 
L 147.818997 140.398644 
L 147.818997 139.743498 
L 148.826773 139.743498 
L 148.919783 138.433206 
L 149.058374 138.433206 
L 149.15016 137.122913 
L 149.286939 137.122913 
L 149.377533 135.157475 
L 149.557321 135.157475 
L 149.557321 133.847183 
L 149.735275 133.847183 
L 149.735275 133.192037 
L 149.911431 133.192037 
L 149.911431 132.536891 
L 150.129152 132.536891 
L 150.215485 130.571452 
L 150.344189 130.571452 
L 150.38688 129.26116 
L 150.598782 129.26116 
L 150.598782 128.606014 
L 150.766468 128.606014 
L 150.766468 127.950868 
L 150.973835 127.950868 
L 150.973835 127.295722 
L 151.178764 127.295722 
L 151.178764 126.640576 
L 151.421542 126.640576 
L 151.421542 125.330284 
L 151.660987 125.330284 
L 151.660987 124.675137 
L 151.897188 124.675137 
L 151.897188 124.019991 
L 152.995791 124.019991 
L 153.032466 122.709699 
L 153.323128 122.709699 
L 153.323128 122.054553 
L 153.679772 122.054553 
L 153.785358 118.778823 
L 154.029268 118.778823 
L 154.029268 118.123676 
L 154.235652 118.123676 
L 154.303908 114.1928 
L 154.473387 114.1928 
L 154.473387 113.537654 
L 154.873541 113.537654 
L 154.873541 112.882508 
L 155.102793 112.882508 
L 155.167744 111.572215 
L 155.425155 111.572215 
L 155.425155 110.917069 
L 155.741666 110.917069 
L 155.83551 109.606777 
L 155.897793 109.606777 
L 155.897793 107.641339 
L 156.083319 107.641339 
L 156.083319 106.331047 
L 156.418408 106.331047 
L 156.418408 105.675901 
L 157.069866 105.675901 
L 157.069866 105.020754 
L 157.358125 105.020754 
L 157.358125 104.365608 
L 157.86528 104.365608 
L 157.86528 103.710462 
L 158.031107 103.710462 
L 158.031107 103.055316 
L 158.249784 103.055316 
L 158.249784 102.40017 
L 158.942121 102.40017 
L 159.046236 101.089878 
L 159.123917 101.089878 
L 159.123917 100.434732 
L 159.32939 100.434732 
L 159.380382 99.12444 
L 159.608019 99.12444 
L 159.608019 98.469293 
L 160.821253 98.469293 
L 160.821253 97.814147 
L 160.984566 97.814147 
L 161.007772 96.503855 
L 161.64531 96.503855 
L 161.64531 95.848709 
L 162.021314 95.848709 
L 162.130378 94.538417 
L 162.173813 94.538417 
L 162.173813 93.883271 
L 162.559939 93.883271 
L 162.559939 93.228125 
L 162.728843 93.228125 
L 162.728843 92.572979 
L 162.896128 92.572979 
L 162.9377 91.262686 
L 163.327764 91.262686 
L 163.327764 90.60754 
L 163.469301 90.60754 
L 163.469301 89.952394 
L 163.589711 89.952394 
L 163.649606 88.642102 
L 163.847782 88.642102 
L 163.887148 87.33181 
L 163.985177 87.33181 
L 163.985177 86.676664 
L 164.410075 86.676664 
L 164.505216 85.366371 
L 164.562052 85.366371 
L 164.562052 84.711225 
L 164.693955 84.711225 
L 164.693955 84.056079 
L 164.824867 84.056079 
L 164.824867 83.400933 
L 166.829163 83.400933 
L 166.829163 82.745787 
L 167.624577 82.745787 
L 167.624577 82.090641 
L 167.84533 82.090641 
L 167.84533 81.435495 
L 168.354881 81.435495 
L 168.354881 80.780349 
L 168.656606 80.780349 
L 168.656606 80.125203 
L 168.849965 80.125203 
L 168.86475 78.81491 
L 169.302579 78.81491 
L 169.403177 77.504618 
L 170.201421 77.504618 
L 170.201421 76.849472 
L 170.419074 76.849472 
L 170.499999 75.53918 
L 170.819995 75.53918 
L 170.819995 74.884034 
L 170.977818 74.884034 
L 170.977818 74.228888 
L 171.134225 74.228888 
L 171.134225 73.573742 
L 171.263501 73.573742 
L 171.289242 72.263449 
L 171.49381 72.263449 
L 171.49381 71.608303 
L 171.658273 71.608303 
L 171.758716 68.332573 
L 171.846131 68.332573 
L 171.846131 66.367135 
L 172.240256 66.367135 
L 172.240256 65.711988 
L 172.458099 65.711988 
L 172.458099 65.056842 
L 172.66137 65.056842 
L 172.708856 63.74655 
L 172.850543 63.74655 
L 172.850543 63.091404 
L 173.188276 63.091404 
L 173.280304 61.781112 
L 173.451559 61.781112 
L 173.451559 61.125966 
L 173.643636 61.125966 
L 173.643636 59.815674 
L 174.098358 59.815674 
L 174.098358 59.160527 
L 174.261802 59.160527 
L 174.348349 57.195089 
L 174.391462 57.195089 
L 174.466655 55.884797 
L 174.658532 55.884797 
L 174.658532 55.229651 
L 174.942445 55.229651 
L 174.942445 54.574505 
L 175.211544 54.574505 
L 175.211544 53.919359 
L 175.647675 53.919359 
L 175.647675 53.264213 
L 175.767465 53.264213 
L 175.767465 52.609066 
L 175.906187 52.609066 
L 175.906187 51.95392 
L 176.053603 51.95392 
L 176.151193 50.643628 
L 176.574218 50.643628 
L 176.574218 49.988482 
L 176.838169 49.988482 
L 176.875552 48.67819 
L 177.48108 48.67819 
L 177.48108 48.023044 
L 177.740637 48.023044 
L 177.740637 47.367898 
L 178.013889 47.367898 
L 178.013889 46.712752 
L 178.187935 46.712752 
L 178.187935 46.057605 
L 180.2131 46.057605 
L 180.2131 45.402459 
L 180.526366 45.402459 
L 180.526366 44.747313 
L 180.692168 44.747313 
L 180.759545 43.437021 
L 180.930556 43.437021 
L 180.930556 42.781875 
L 181.426562 42.781875 
L 181.426562 42.126729 
L 181.676464 42.126729 
L 181.676464 41.471583 
L 182.681928 41.471583 
L 182.681928 40.816437 
L 182.88154 40.816437 
L 182.88154 40.161291 
L 183.091972 40.161291 
L 183.091972 39.506144 
L 184.107646 39.506144 
L 184.107646 38.850998 
L 185.079078 38.850998 
L 185.114038 37.540706 
L 186.457908 37.540706 
L 186.457908 36.88556 
L 188.888693 36.88556 
L 188.888693 36.230414 
L 189.405998 36.230414 
L 189.405998 35.575268 
L 190.508164 35.575268 
L 190.508164 34.920122 
L 191.277055 34.920122 
L 191.277055 34.264976 
L 192.515634 34.264976 
L 192.515634 33.60983 
L 193.143875 33.60983 
L 193.143875 32.954683 
L 194.803344 32.954683 
L 194.803344 32.299537 
L 195.313445 32.299537 
L 195.313445 31.644391 
L 198.282544 31.644391 
L 198.282544 30.989245 
L 199.926023 30.989245 
L 199.926023 30.334099 
L 338.688 30.334099 
L 338.688 30.334099 
" style="fill:none;stroke:#ff7500;stroke-linecap:square;stroke-width:1.5;"/>
   </g>
   <g id="line2d_41">
    <defs>
     <path d="M 0 -6 
L -1.347084 -1.854102 
L -5.706339 -1.854102 
L -2.179628 0.708204 
L -3.526712 4.854102 
L -0 2.291796 
L 3.526712 4.854102 
L 2.179628 0.708204 
L 5.706339 -1.854102 
L 1.347084 -1.854102 
z
" id="m2f67b29cef" style="stroke:#ff7500;stroke-linejoin:bevel;stroke-width:1.5;"/>
    </defs>
    <g>
     <use style="fill-opacity:0;stroke:#ff7500;stroke-linejoin:bevel;stroke-width:1.5;" x="124.178158" xlink:href="#m2f67b29cef" y="232.774244"/>
     <use style="fill-opacity:0;stroke:#ff7500;stroke-linejoin:bevel;stroke-width:1.5;" x="163.649606" xlink:href="#m2f67b29cef" y="89.297248"/>
     <use style="fill-opacity:0;stroke:#ff7500;stroke-linejoin:bevel;stroke-width:1.5;" x="199.926023" xlink:href="#m2f67b29cef" y="30.989245"/>
     <use style="fill-opacity:0;stroke:#ff7500;stroke-linejoin:bevel;stroke-width:1.5;" x="199.926023" xlink:href="#m2f67b29cef" y="30.334099"/>
     <use style="fill-opacity:0;stroke:#ff7500;stroke-linejoin:bevel;stroke-width:1.5;" x="199.926023" xlink:href="#m2f67b29cef" y="30.334099"/>
     <use style="fill-opacity:0;stroke:#ff7500;stroke-linejoin:bevel;stroke-width:1.5;" x="338.688" xlink:href="#m2f67b29cef" y="30.334099"/>
    </g>
   </g>
   <g id="line2d_42">
    <path style="fill:none;stroke:#ff7500;stroke-linecap:square;stroke-width:1.5;"/>
    <g/>
   </g>
   <g id="line2d_43">
    <path clip-path="url(#p575272bfb8)" d="M 129.290685 217.705884 
" style="fill:none;stroke:#ff7500;stroke-linecap:square;stroke-width:1.5;"/>
    <defs>
     <path d="M -12 12 
L 12 -12 
M -12 -12 
L 12 12 
" id="m1ce7e59e9a" style="stroke:#ff7500;"/>
    </defs>
    <g clip-path="url(#p575272bfb8)">
     <use style="fill:#ff7500;stroke:#ff7500;" x="129.290685" xlink:href="#m1ce7e59e9a" y="217.705884"/>
    </g>
   </g>
   <g id="line2d_44">
    <defs>
     <path d="M 0 1.5 
C 0.397805 1.5 0.77937 1.341951 1.06066 1.06066 
C 1.341951 0.77937 1.5 0.397805 1.5 0 
C 1.5 -0.397805 1.341951 -0.77937 1.06066 -1.06066 
C 0.77937 -1.341951 0.397805 -1.5 0 -1.5 
C -0.397805 -1.5 -0.77937 -1.341951 -1.06066 -1.06066 
C -1.341951 -0.77937 -1.5 -0.397805 -1.5 0 
C -1.5 0.397805 -1.341951 0.77937 -1.06066 1.06066 
C -0.77937 1.341951 -0.397805 1.5 0 1.5 
z
" id="m11ebccb783" style="stroke:#6495ed;"/>
    </defs>
    <g>
     <use style="fill:#6495ed;stroke:#6495ed;" x="178.991731" xlink:href="#m11ebccb783" y="266.186695"/>
     <use style="fill:#6495ed;stroke:#6495ed;" x="178.991731" xlink:href="#m11ebccb783" y="266.186695"/>
    </g>
   </g>
   <g id="line2d_45">
    <path d="M 45.512012 298.944 
L 45.512012 297.633708 
L 85.66744 297.633708 
L 85.66744 295.013123 
L 110.694282 295.013123 
L 110.694282 294.357977 
L 113.022974 294.357977 
L 113.022974 293.047685 
L 114.080224 293.047685 
L 114.080224 292.392539 
L 114.418861 292.392539 
L 114.418861 291.737393 
L 117.202696 291.737393 
L 117.202696 291.082247 
L 119.850084 291.082247 
L 119.850084 290.427101 
L 127.799239 290.427101 
L 127.799239 289.771955 
L 130.926816 289.771955 
L 130.926816 288.461662 
L 131.312942 288.461662 
L 131.312942 287.806516 
L 133.239232 287.806516 
L 133.239232 287.15137 
L 133.352844 287.15137 
L 133.352844 286.496224 
L 133.46572 286.496224 
L 133.46572 285.841078 
L 133.910056 285.841078 
L 133.910056 285.185932 
L 135.681535 285.185932 
L 135.681535 284.530786 
L 137.107884 284.530786 
L 137.107884 283.87564 
L 137.198951 283.87564 
L 137.198951 283.220494 
L 138.67848 283.220494 
L 138.67848 282.565348 
L 139.652088 282.565348 
L 139.652088 281.910201 
L 140.042245 281.910201 
L 140.042245 281.255055 
L 140.11924 281.255055 
L 140.11924 280.599909 
L 141.090414 280.599909 
L 141.090414 279.944763 
L 142.419098 279.944763 
L 142.419098 279.289617 
L 143.273169 279.289617 
L 143.273169 278.634471 
L 144.026061 278.634471 
L 144.026061 277.979325 
L 144.747789 277.979325 
L 144.747789 277.324179 
L 145.943118 277.324179 
L 145.943118 276.669033 
L 146.377764 276.669033 
L 146.377764 276.013887 
L 148.112924 276.013887 
L 148.112924 275.35874 
L 149.467659 275.35874 
L 149.467659 274.703594 
L 154.607795 274.703594 
L 154.607795 274.048448 
L 155.200129 274.048448 
L 155.200129 273.393302 
L 155.361158 273.393302 
L 155.361158 272.738156 
L 159.32939 272.738156 
L 159.32939 272.08301 
L 159.354904 272.08301 
L 159.354904 271.427864 
L 162.043181 271.427864 
L 162.043181 270.772718 
L 163.788565 270.772718 
L 163.788565 270.117572 
L 165.732422 270.117572 
L 165.732422 269.462426 
L 166.595075 269.462426 
L 166.595075 268.807279 
L 169.630959 268.807279 
L 169.630959 268.152133 
L 175.08786 268.152133 
L 175.08786 267.496987 
L 176.716117 267.496987 
L 176.716117 266.841841 
L 178.991731 266.841841 
L 178.991731 266.186695 
L 338.688 266.186695 
" style="fill:none;stroke:#6495ed;stroke-linecap:square;stroke-width:1.5;"/>
   </g>
   <g id="line2d_46">
    <defs>
     <path d="M -0 6 
L 6 -6 
L -6 -6 
z
" id="m7ccd15f753" style="stroke:#6495ed;stroke-linejoin:miter;stroke-width:1.5;"/>
    </defs>
    <g>
     <use style="fill-opacity:0;stroke:#6495ed;stroke-linejoin:miter;stroke-width:1.5;" x="141.090414" xlink:href="#m7ccd15f753" y="280.599909"/>
     <use style="fill-opacity:0;stroke:#6495ed;stroke-linejoin:miter;stroke-width:1.5;" x="178.991731" xlink:href="#m7ccd15f753" y="266.841841"/>
     <use style="fill-opacity:0;stroke:#6495ed;stroke-linejoin:miter;stroke-width:1.5;" x="178.991731" xlink:href="#m7ccd15f753" y="266.186695"/>
     <use style="fill-opacity:0;stroke:#6495ed;stroke-linejoin:miter;stroke-width:1.5;" x="178.991731" xlink:href="#m7ccd15f753" y="266.186695"/>
     <use style="fill-opacity:0;stroke:#6495ed;stroke-linejoin:miter;stroke-width:1.5;" x="178.991731" xlink:href="#m7ccd15f753" y="266.186695"/>
     <use style="fill-opacity:0;stroke:#6495ed;stroke-linejoin:miter;stroke-width:1.5;" x="338.688" xlink:href="#m7ccd15f753" y="266.186695"/>
    </g>
   </g>
   <g id="line2d_47">
    <path style="fill:none;stroke:#6495ed;stroke-linecap:square;stroke-width:1.5;"/>
    <g/>
   </g>
   <g id="line2d_48">
    <path clip-path="url(#p575272bfb8)" d="M 108.948899 295.013123 
" style="fill:none;stroke:#6495ed;stroke-linecap:square;stroke-width:1.5;"/>
    <defs>
     <path d="M -12 12 
L 12 -12 
M -12 -12 
L 12 12 
" id="m7002510109" style="stroke:#6495ed;"/>
    </defs>
    <g clip-path="url(#p575272bfb8)">
     <use style="fill:#6495ed;stroke:#6495ed;" x="108.948899" xlink:href="#m7002510109" y="295.013123"/>
    </g>
   </g>
   <g id="line2d_49">
    <defs>
     <path d="M 0 1.5 
C 0.397805 1.5 0.77937 1.341951 1.06066 1.06066 
C 1.341951 0.77937 1.5 0.397805 1.5 0 
C 1.5 -0.397805 1.341951 -0.77937 1.06066 -1.06066 
C 0.77937 -1.341951 0.397805 -1.5 0 -1.5 
C -0.397805 -1.5 -0.77937 -1.341951 -1.06066 -1.06066 
C -1.341951 -0.77937 -1.5 -0.397805 -1.5 0 
C -1.5 0.397805 -1.341951 0.77937 -1.06066 1.06066 
C -0.77937 1.341951 -0.397805 1.5 0 1.5 
z
" id="m5c9fe28890" style="stroke:#ff0000;"/>
    </defs>
    <g>
     <use style="fill:#ff0000;stroke:#ff0000;" x="181.47683" xlink:href="#m5c9fe28890" y="253.083773"/>
     <use style="fill:#ff0000;stroke:#ff0000;" x="181.47683" xlink:href="#m5c9fe28890" y="253.083773"/>
    </g>
   </g>
   <g id="line2d_50">
    <path d="M 45.512012 298.944 
L 45.512012 296.323416 
L 81.775977 296.323416 
L 81.775977 295.013123 
L 97.755429 295.013123 
L 97.755429 293.047685 
L 102.330873 293.047685 
L 102.330873 290.427101 
L 106.48859 290.427101 
L 106.48859 289.771955 
L 114.080224 289.771955 
L 114.080224 289.116809 
L 114.418861 289.116809 
L 114.418861 288.461662 
L 118.039942 288.461662 
L 118.039942 286.496224 
L 121.036887 286.496224 
L 121.036887 285.185932 
L 122.362027 285.185932 
L 122.362027 284.530786 
L 124.178158 284.530786 
L 124.178158 283.87564 
L 124.92835 283.87564 
L 124.92835 282.565348 
L 125.996395 282.565348 
L 125.996395 281.910201 
L 126.168212 281.910201 
L 126.168212 281.255055 
L 128.260216 281.255055 
L 128.260216 280.599909 
L 129.002426 280.599909 
L 129.002426 279.944763 
L 129.853291 279.944763 
L 129.853291 279.289617 
L 131.439773 279.289617 
L 131.439773 278.634471 
L 133.124876 278.634471 
L 133.124876 277.979325 
L 133.57787 277.979325 
L 133.57787 277.324179 
L 133.689303 277.324179 
L 133.689303 276.669033 
L 134.661403 276.669033 
L 134.661403 275.35874 
L 135.178927 275.35874 
L 135.178927 274.703594 
L 135.381712 274.703594 
L 135.381712 274.048448 
L 136.831795 274.048448 
L 136.831795 272.738156 
L 138.594838 272.738156 
L 138.594838 271.427864 
L 140.11924 271.427864 
L 140.11924 270.772718 
L 140.64889 270.772718 
L 140.64889 270.117572 
L 140.723258 270.117572 
L 140.723258 269.462426 
L 141.090414 269.462426 
L 141.090414 268.807279 
L 142.010346 268.807279 
L 142.010346 268.152133 
L 143.144465 268.152133 
L 143.144465 267.496987 
L 143.464461 267.496987 
L 143.464461 266.841841 
L 144.806606 266.841841 
L 144.806606 265.531549 
L 144.981877 265.531549 
L 144.981877 264.876403 
L 145.998045 264.876403 
L 145.998045 264.221257 
L 148.064279 264.221257 
L 148.064279 263.566111 
L 150.724698 263.566111 
L 150.724698 262.910965 
L 150.973835 262.910965 
L 150.973835 262.255818 
L 152.398241 262.255818 
L 152.398241 261.600672 
L 154.167129 261.600672 
L 154.167129 260.945526 
L 155.741666 260.945526 
L 155.741666 260.29038 
L 157.185742 260.29038 
L 157.185742 259.635234 
L 158.546057 259.635234 
L 158.546057 258.980088 
L 158.83738 258.980088 
L 158.83738 258.324942 
L 158.889829 258.324942 
L 158.889829 257.669796 
L 158.915995 257.669796 
L 158.915995 257.01465 
L 159.906985 257.01465 
L 159.906985 256.359504 
L 160.891432 256.359504 
L 160.891432 255.704357 
L 161.169354 255.704357 
L 161.169354 254.394065 
L 162.173813 254.394065 
L 162.173813 253.738919 
L 181.47683 253.738919 
L 181.47683 253.083773 
L 338.688 253.083773 
" style="fill:none;stroke:#ff0000;stroke-linecap:square;stroke-width:1.5;"/>
   </g>
   <g id="line2d_51">
    <defs>
     <path d="M 0 -6 
L -5.196152 -3 
L -5.196152 3 
L -0 6 
L 5.196152 3 
L 5.196152 -3 
z
" id="m43775b6b21" style="stroke:#ff0000;stroke-linejoin:miter;stroke-width:1.5;"/>
    </defs>
    <g>
     <use style="fill-opacity:0;stroke:#ff0000;stroke-linejoin:miter;stroke-width:1.5;" x="106.48859" xlink:href="#m43775b6b21" y="290.427101"/>
     <use style="fill-opacity:0;stroke:#ff0000;stroke-linejoin:miter;stroke-width:1.5;" x="162.173813" xlink:href="#m43775b6b21" y="254.394065"/>
     <use style="fill-opacity:0;stroke:#ff0000;stroke-linejoin:miter;stroke-width:1.5;" x="181.47683" xlink:href="#m43775b6b21" y="253.738919"/>
     <use style="fill-opacity:0;stroke:#ff0000;stroke-linejoin:miter;stroke-width:1.5;" x="181.47683" xlink:href="#m43775b6b21" y="253.083773"/>
     <use style="fill-opacity:0;stroke:#ff0000;stroke-linejoin:miter;stroke-width:1.5;" x="181.47683" xlink:href="#m43775b6b21" y="253.083773"/>
     <use style="fill-opacity:0;stroke:#ff0000;stroke-linejoin:miter;stroke-width:1.5;" x="338.688" xlink:href="#m43775b6b21" y="253.083773"/>
    </g>
   </g>
   <g id="line2d_52">
    <path style="fill:none;stroke:#ff0000;stroke-linecap:square;stroke-width:1.5;"/>
    <g/>
   </g>
   <g id="line2d_53">
    <path clip-path="url(#p575272bfb8)" d="M 109.843417 289.771955 
" style="fill:none;stroke:#ff0000;stroke-linecap:square;stroke-width:1.5;"/>
    <defs>
     <path d="M -12 12 
L 12 -12 
M -12 -12 
L 12 12 
" id="mc23fabdef6" style="stroke:#ff0000;"/>
    </defs>
    <g clip-path="url(#p575272bfb8)">
     <use style="fill:#ff0000;stroke:#ff0000;" x="109.843417" xlink:href="#mc23fabdef6" y="289.771955"/>
    </g>
   </g>
   <g id="line2d_54">
    <path d="M 338.688 266.186695 
L 369.60768 293.571802 
" style="fill:none;stroke:#6495ed;stroke-linecap:square;stroke-width:1.5;"/>
    <g>
     <use style="fill-opacity:0;stroke:#6495ed;stroke-linejoin:miter;stroke-width:1.5;" x="338.688" xlink:href="#m7ccd15f753" y="266.186695"/>
     <use style="fill-opacity:0;stroke:#6495ed;stroke-linejoin:miter;stroke-width:1.5;" x="369.60768" xlink:href="#m7ccd15f753" y="293.571802"/>
    </g>
   </g>
   <g id="line2d_55">
    <path d="M 338.688 253.083773 
L 369.60768 229.105426 
" style="fill:none;stroke:#ff0000;stroke-linecap:square;stroke-width:1.5;"/>
    <g>
     <use style="fill-opacity:0;stroke:#ff0000;stroke-linejoin:miter;stroke-width:1.5;" x="338.688" xlink:href="#m43775b6b21" y="253.083773"/>
     <use style="fill-opacity:0;stroke:#ff0000;stroke-linejoin:miter;stroke-width:1.5;" x="369.60768" xlink:href="#m43775b6b21" y="229.105426"/>
    </g>
   </g>
   <g id="line2d_56">
    <path d="M 338.688 148.260397 
L 369.60768 164.63905 
" style="fill:none;stroke:#ff00ff;stroke-linecap:square;stroke-width:1.5;"/>
    <g>
     <use style="fill-opacity:0;stroke:#ff00ff;stroke-linejoin:miter;stroke-width:1.5;" x="338.688" xlink:href="#m06deb4008f" y="148.260397"/>
     <use style="fill-opacity:0;stroke:#ff00ff;stroke-linejoin:miter;stroke-width:1.5;" x="369.60768" xlink:href="#m06deb4008f" y="164.63905"/>
    </g>
   </g>
   <g id="line2d_57">
    <path d="M 338.688 30.334099 
L 369.60768 100.172673 
" style="fill:none;stroke:#000080;stroke-linecap:square;stroke-width:1.5;"/>
    <g>
     <use style="fill-opacity:0;stroke:#000080;stroke-width:1.5;" x="338.688" xlink:href="#m59bd9a5652" y="30.334099"/>
     <use style="fill-opacity:0;stroke:#000080;stroke-width:1.5;" x="369.60768" xlink:href="#m59bd9a5652" y="100.172673"/>
    </g>
   </g>
   <g id="line2d_58">
    <path d="M 338.688 30.334099 
L 369.60768 35.706297 
" style="fill:none;stroke:#ff7500;stroke-linecap:square;stroke-width:1.5;"/>
    <g>
     <use style="fill-opacity:0;stroke:#ff7500;stroke-linejoin:bevel;stroke-width:1.5;" x="338.688" xlink:href="#m2f67b29cef" y="30.334099"/>
     <use style="fill-opacity:0;stroke:#ff7500;stroke-linejoin:bevel;stroke-width:1.5;" x="369.60768" xlink:href="#m2f67b29cef" y="35.706297"/>
    </g>
   </g>
   <g id="line2d_59">
    <path d="M 338.688 298.944 
L 338.688 30.334099 
" style="fill:none;stroke:#000000;stroke-linecap:square;stroke-width:1.5;"/>
   </g>
   <g id="patch_3">
    <path d="M 57.6 298.944 
L 57.6 27.648 
" style="fill:none;stroke:#000000;stroke-linecap:square;stroke-linejoin:miter;stroke-width:0.8;"/>
   </g>
   <g id="patch_4">
    <path d="M 338.688 298.944 
L 338.688 27.648 
" style="fill:none;stroke:#000000;stroke-linecap:square;stroke-linejoin:miter;stroke-width:0.8;"/>
   </g>
   <g id="patch_5">
    <path d="M 57.6 298.944 
L 338.688 298.944 
" style="fill:none;stroke:#000000;stroke-linecap:square;stroke-linejoin:miter;stroke-width:0.8;"/>
   </g>
   <g id="patch_6">
    <path d="M 57.6 27.648 
L 338.688 27.648 
" style="fill:none;stroke:#000000;stroke-linecap:square;stroke-linejoin:miter;stroke-width:0.8;"/>
   </g>
   <g id="text_13">
    <!-- slsqp -->
    <g transform="translate(375.22944 298.262739)scale(0.17 -0.17)">
     <defs>
      <path d="M 14.796875 27.296875 
Q 14.796875 17.390625 18.875 11.75 
Q 22.953125 6.109375 30.078125 6.109375 
Q 37.203125 6.109375 41.296875 11.75 
Q 45.40625 17.390625 45.40625 27.296875 
Q 45.40625 37.203125 41.296875 42.84375 
Q 37.203125 48.484375 30.078125 48.484375 
Q 22.953125 48.484375 18.875 42.84375 
Q 14.796875 37.203125 14.796875 27.296875 
z
M 45.40625 8.203125 
Q 42.578125 3.328125 38.25 0.953125 
Q 33.9375 -1.421875 27.875 -1.421875 
Q 17.96875 -1.421875 11.734375 6.484375 
Q 5.515625 14.40625 5.515625 27.296875 
Q 5.515625 40.1875 11.734375 48.09375 
Q 17.96875 56 27.875 56 
Q 33.9375 56 38.25 53.625 
Q 42.578125 51.265625 45.40625 46.390625 
L 45.40625 54.6875 
L 54.390625 54.6875 
L 54.390625 -20.796875 
L 45.40625 -20.796875 
z
" id="DejaVuSans-113"/>
     </defs>
     <use xlink:href="#DejaVuSans-115"/>
     <use x="52.099609" xlink:href="#DejaVuSans-108"/>
     <use x="79.882812" xlink:href="#DejaVuSans-115"/>
     <use x="131.982422" xlink:href="#DejaVuSans-113"/>
     <use x="195.458984" xlink:href="#DejaVuSans-112"/>
    </g>
   </g>
   <g id="text_14">
    <!-- trust-con -->
    <g transform="translate(375.22944 233.796363)scale(0.17 -0.17)">
     <use xlink:href="#DejaVuSans-116"/>
     <use x="39.208984" xlink:href="#DejaVuSans-114"/>
     <use x="80.322266" xlink:href="#DejaVuSans-117"/>
     <use x="143.701172" xlink:href="#DejaVuSans-115"/>
     <use x="195.800781" xlink:href="#DejaVuSans-116"/>
     <use x="235.009766" xlink:href="#DejaVuSans-45"/>
     <use x="271.09375" xlink:href="#DejaVuSans-99"/>
     <use x="326.074219" xlink:href="#DejaVuSans-111"/>
     <use x="387.255859" xlink:href="#DejaVuSans-110"/>
    </g>
   </g>
   <g id="text_15">
    <!-- cobyla -->
    <g transform="translate(375.22944 169.329987)scale(0.17 -0.17)">
     <defs>
      <path d="M 48.6875 27.296875 
Q 48.6875 37.203125 44.609375 42.84375 
Q 40.53125 48.484375 33.40625 48.484375 
Q 26.265625 48.484375 22.1875 42.84375 
Q 18.109375 37.203125 18.109375 27.296875 
Q 18.109375 17.390625 22.1875 11.75 
Q 26.265625 6.109375 33.40625 6.109375 
Q 40.53125 6.109375 44.609375 11.75 
Q 48.6875 17.390625 48.6875 27.296875 
z
M 18.109375 46.390625 
Q 20.953125 51.265625 25.265625 53.625 
Q 29.59375 56 35.59375 56 
Q 45.5625 56 51.78125 48.09375 
Q 58.015625 40.1875 58.015625 27.296875 
Q 58.015625 14.40625 51.78125 6.484375 
Q 45.5625 -1.421875 35.59375 -1.421875 
Q 29.59375 -1.421875 25.265625 0.953125 
Q 20.953125 3.328125 18.109375 8.203125 
L 18.109375 0 
L 9.078125 0 
L 9.078125 75.984375 
L 18.109375 75.984375 
z
" id="DejaVuSans-98"/>
      <path d="M 32.171875 -5.078125 
Q 28.375 -14.84375 24.75 -17.8125 
Q 21.140625 -20.796875 15.09375 -20.796875 
L 7.90625 -20.796875 
L 7.90625 -13.28125 
L 13.1875 -13.28125 
Q 16.890625 -13.28125 18.9375 -11.515625 
Q 21 -9.765625 23.484375 -3.21875 
L 25.09375 0.875 
L 2.984375 54.6875 
L 12.5 54.6875 
L 29.59375 11.921875 
L 46.6875 54.6875 
L 56.203125 54.6875 
z
" id="DejaVuSans-121"/>
     </defs>
     <use xlink:href="#DejaVuSans-99"/>
     <use x="54.980469" xlink:href="#DejaVuSans-111"/>
     <use x="116.162109" xlink:href="#DejaVuSans-98"/>
     <use x="179.638672" xlink:href="#DejaVuSans-121"/>
     <use x="238.818359" xlink:href="#DejaVuSans-108"/>
     <use x="266.601562" xlink:href="#DejaVuSans-97"/>
    </g>
   </g>
   <g id="text_16">
    <!-- alN1 -->
    <g transform="translate(375.22944 104.863611)scale(0.17 -0.17)">
     <defs>
      <path d="M 9.8125 72.90625 
L 23.09375 72.90625 
L 55.421875 11.921875 
L 55.421875 72.90625 
L 64.984375 72.90625 
L 64.984375 0 
L 51.703125 0 
L 19.390625 60.984375 
L 19.390625 0 
L 9.8125 0 
z
" id="DejaVuSans-78"/>
     </defs>
     <use xlink:href="#DejaVuSans-97"/>
     <use x="61.279297" xlink:href="#DejaVuSans-108"/>
     <use x="89.0625" xlink:href="#DejaVuSans-78"/>
     <use x="163.867188" xlink:href="#DejaVuSans-49"/>
    </g>
   </g>
   <g id="text_17">
    <!-- fmincon o -->
    <g transform="translate(375.22944 40.397235)scale(0.17 -0.17)">
     <use xlink:href="#DejaVuSans-102"/>
     <use x="35.205078" xlink:href="#DejaVuSans-109"/>
     <use x="132.617188" xlink:href="#DejaVuSans-105"/>
     <use x="160.400391" xlink:href="#DejaVuSans-110"/>
     <use x="223.779297" xlink:href="#DejaVuSans-99"/>
     <use x="278.759766" xlink:href="#DejaVuSans-111"/>
     <use x="339.941406" xlink:href="#DejaVuSans-110"/>
     <use x="403.320312" xlink:href="#DejaVuSans-32"/>
     <use x="435.107422" xlink:href="#DejaVuSans-111"/>
    </g>
   </g>
   <g id="text_18">
    <!-- bbob-constrained f47, 2-D -->
    <g transform="translate(60.41088 38.111366)scale(0.102 -0.102)">
     <defs>
      <path d="M 8.203125 72.90625 
L 55.078125 72.90625 
L 55.078125 68.703125 
L 28.609375 0 
L 18.3125 0 
L 43.21875 64.59375 
L 8.203125 64.59375 
z
" id="DejaVuSans-55"/>
      <path d="M 19.671875 64.796875 
L 19.671875 8.109375 
L 31.59375 8.109375 
Q 46.6875 8.109375 53.6875 14.9375 
Q 60.6875 21.78125 60.6875 36.53125 
Q 60.6875 51.171875 53.6875 57.984375 
Q 46.6875 64.796875 31.59375 64.796875 
z
M 9.8125 72.90625 
L 30.078125 72.90625 
Q 51.265625 72.90625 61.171875 64.09375 
Q 71.09375 55.28125 71.09375 36.53125 
Q 71.09375 17.671875 61.125 8.828125 
Q 51.171875 0 30.078125 0 
L 9.8125 0 
z
" id="DejaVuSans-68"/>
     </defs>
     <use xlink:href="#DejaVuSans-98"/>
     <use x="63.476562" xlink:href="#DejaVuSans-98"/>
     <use x="126.953125" xlink:href="#DejaVuSans-111"/>
     <use x="188.134766" xlink:href="#DejaVuSans-98"/>
     <use x="251.611328" xlink:href="#DejaVuSans-45"/>
     <use x="287.695312" xlink:href="#DejaVuSans-99"/>
     <use x="342.675781" xlink:href="#DejaVuSans-111"/>
     <use x="403.857422" xlink:href="#DejaVuSans-110"/>
     <use x="467.236328" xlink:href="#DejaVuSans-115"/>
     <use x="519.335938" xlink:href="#DejaVuSans-116"/>
     <use x="558.544922" xlink:href="#DejaVuSans-114"/>
     <use x="599.658203" xlink:href="#DejaVuSans-97"/>
     <use x="660.9375" xlink:href="#DejaVuSans-105"/>
     <use x="688.720703" xlink:href="#DejaVuSans-110"/>
     <use x="752.099609" xlink:href="#DejaVuSans-101"/>
     <use x="813.623047" xlink:href="#DejaVuSans-100"/>
     <use x="877.099609" xlink:href="#DejaVuSans-32"/>
     <use x="908.886719" xlink:href="#DejaVuSans-102"/>
     <use x="944.091797" xlink:href="#DejaVuSans-52"/>
     <use x="1007.714844" xlink:href="#DejaVuSans-55"/>
     <use x="1071.337891" xlink:href="#DejaVuSans-44"/>
     <use x="1103.125" xlink:href="#DejaVuSans-32"/>
     <use x="1134.912109" xlink:href="#DejaVuSans-50"/>
     <use x="1198.535156" xlink:href="#DejaVuSans-45"/>
     <use x="1234.619141" xlink:href="#DejaVuSans-68"/>
    </g>
    <!-- 41 targets: 100..1e-06 -->
    <g transform="translate(60.41088 49.533135)scale(0.102 -0.102)">
     <defs>
      <path d="M 11.71875 12.40625 
L 22.015625 12.40625 
L 22.015625 0 
L 11.71875 0 
z
M 11.71875 51.703125 
L 22.015625 51.703125 
L 22.015625 39.3125 
L 11.71875 39.3125 
z
" id="DejaVuSans-58"/>
     </defs>
     <use xlink:href="#DejaVuSans-52"/>
     <use x="63.623047" xlink:href="#DejaVuSans-49"/>
     <use x="127.246094" xlink:href="#DejaVuSans-32"/>
     <use x="159.033203" xlink:href="#DejaVuSans-116"/>
     <use x="198.242188" xlink:href="#DejaVuSans-97"/>
     <use x="259.521484" xlink:href="#DejaVuSans-114"/>
     <use x="298.884766" xlink:href="#DejaVuSans-103"/>
     <use x="362.361328" xlink:href="#DejaVuSans-101"/>
     <use x="423.884766" xlink:href="#DejaVuSans-116"/>
     <use x="463.09375" xlink:href="#DejaVuSans-115"/>
     <use x="515.193359" xlink:href="#DejaVuSans-58"/>
     <use x="548.884766" xlink:href="#DejaVuSans-32"/>
     <use x="580.671875" xlink:href="#DejaVuSans-49"/>
     <use x="644.294922" xlink:href="#DejaVuSans-48"/>
     <use x="707.917969" xlink:href="#DejaVuSans-48"/>
     <use x="771.541016" xlink:href="#DejaVuSans-46"/>
     <use x="803.328125" xlink:href="#DejaVuSans-46"/>
     <use x="835.115234" xlink:href="#DejaVuSans-49"/>
     <use x="898.738281" xlink:href="#DejaVuSans-101"/>
     <use x="960.261719" xlink:href="#DejaVuSans-45"/>
     <use x="996.345703" xlink:href="#DejaVuSans-48"/>
     <use x="1059.96875" xlink:href="#DejaVuSans-54"/>
    </g>
    <!-- 30, 15 instances -->
    <g transform="translate(60.41088 60.954904)scale(0.102 -0.102)">
     <defs>
      <path d="M 40.578125 39.3125 
Q 47.65625 37.796875 51.625 33 
Q 55.609375 28.21875 55.609375 21.1875 
Q 55.609375 10.40625 48.1875 4.484375 
Q 40.765625 -1.421875 27.09375 -1.421875 
Q 22.515625 -1.421875 17.65625 -0.515625 
Q 12.796875 0.390625 7.625 2.203125 
L 7.625 11.71875 
Q 11.71875 9.328125 16.59375 8.109375 
Q 21.484375 6.890625 26.8125 6.890625 
Q 36.078125 6.890625 40.9375 10.546875 
Q 45.796875 14.203125 45.796875 21.1875 
Q 45.796875 27.640625 41.28125 31.265625 
Q 36.765625 34.90625 28.71875 34.90625 
L 20.21875 34.90625 
L 20.21875 43.015625 
L 29.109375 43.015625 
Q 36.375 43.015625 40.234375 45.921875 
Q 44.09375 48.828125 44.09375 54.296875 
Q 44.09375 59.90625 40.109375 62.90625 
Q 36.140625 65.921875 28.71875 65.921875 
Q 24.65625 65.921875 20.015625 65.03125 
Q 15.375 64.15625 9.8125 62.3125 
L 9.8125 71.09375 
Q 15.4375 72.65625 20.34375 73.4375 
Q 25.25 74.21875 29.59375 74.21875 
Q 40.828125 74.21875 47.359375 69.109375 
Q 53.90625 64.015625 53.90625 55.328125 
Q 53.90625 49.265625 50.4375 45.09375 
Q 46.96875 40.921875 40.578125 39.3125 
z
" id="DejaVuSans-51"/>
      <path d="M 10.796875 72.90625 
L 49.515625 72.90625 
L 49.515625 64.59375 
L 19.828125 64.59375 
L 19.828125 46.734375 
Q 21.96875 47.46875 24.109375 47.828125 
Q 26.265625 48.1875 28.421875 48.1875 
Q 40.625 48.1875 47.75 41.5 
Q 54.890625 34.8125 54.890625 23.390625 
Q 54.890625 11.625 47.5625 5.09375 
Q 40.234375 -1.421875 26.90625 -1.421875 
Q 22.3125 -1.421875 17.546875 -0.640625 
Q 12.796875 0.140625 7.71875 1.703125 
L 7.71875 11.625 
Q 12.109375 9.234375 16.796875 8.0625 
Q 21.484375 6.890625 26.703125 6.890625 
Q 35.15625 6.890625 40.078125 11.328125 
Q 45.015625 15.765625 45.015625 23.390625 
Q 45.015625 31 40.078125 35.4375 
Q 35.15625 39.890625 26.703125 39.890625 
Q 22.75 39.890625 18.8125 39.015625 
Q 14.890625 38.140625 10.796875 36.28125 
z
" id="DejaVuSans-53"/>
     </defs>
     <use xlink:href="#DejaVuSans-51"/>
     <use x="63.623047" xlink:href="#DejaVuSans-48"/>
     <use x="127.246094" xlink:href="#DejaVuSans-44"/>
     <use x="159.033203" xlink:href="#DejaVuSans-32"/>
     <use x="190.820312" xlink:href="#DejaVuSans-49"/>
     <use x="254.443359" xlink:href="#DejaVuSans-53"/>
     <use x="318.066406" xlink:href="#DejaVuSans-32"/>
     <use x="349.853516" xlink:href="#DejaVuSans-105"/>
     <use x="377.636719" xlink:href="#DejaVuSans-110"/>
     <use x="441.015625" xlink:href="#DejaVuSans-115"/>
     <use x="493.115234" xlink:href="#DejaVuSans-116"/>
     <use x="532.324219" xlink:href="#DejaVuSans-97"/>
     <use x="593.603516" xlink:href="#DejaVuSans-110"/>
     <use x="656.982422" xlink:href="#DejaVuSans-99"/>
     <use x="711.962891" xlink:href="#DejaVuSans-101"/>
     <use x="773.486328" xlink:href="#DejaVuSans-115"/>
    </g>
   </g>
   <g id="text_19">
    <!-- v5z33 -->
    <g style="fill:#808080;" transform="translate(183.016656 294.151352)scale(0.1 -0.1)">
     <defs>
      <path d="M 5.515625 54.6875 
L 48.1875 54.6875 
L 48.1875 46.484375 
L 14.40625 7.171875 
L 48.1875 7.171875 
L 48.1875 0 
L 4.296875 0 
L 4.296875 8.203125 
L 38.09375 47.515625 
L 5.515625 47.515625 
z
" id="DejaVuSans-122"/>
     </defs>
     <use xlink:href="#DejaVuSans-118"/>
     <use x="59.179688" xlink:href="#DejaVuSans-53"/>
     <use x="122.802734" xlink:href="#DejaVuSans-122"/>
     <use x="175.292969" xlink:href="#DejaVuSans-51"/>
     <use x="238.916016" xlink:href="#DejaVuSans-51"/>
    </g>
   </g>
   <g id="text_20">
    <!-- 47 Separable Rastrigin, n+6 constraints -->
    <g transform="translate(-1.951313 21.648)scale(0.2 -0.2)">
     <defs>
      <path d="M 53.515625 70.515625 
L 53.515625 60.890625 
Q 47.90625 63.578125 42.921875 64.890625 
Q 37.9375 66.21875 33.296875 66.21875 
Q 25.25 66.21875 20.875 63.09375 
Q 16.5 59.96875 16.5 54.203125 
Q 16.5 49.359375 19.40625 46.890625 
Q 22.3125 44.4375 30.421875 42.921875 
L 36.375 41.703125 
Q 47.40625 39.59375 52.65625 34.296875 
Q 57.90625 29 57.90625 20.125 
Q 57.90625 9.515625 50.796875 4.046875 
Q 43.703125 -1.421875 29.984375 -1.421875 
Q 24.8125 -1.421875 18.96875 -0.25 
Q 13.140625 0.921875 6.890625 3.21875 
L 6.890625 13.375 
Q 12.890625 10.015625 18.65625 8.296875 
Q 24.421875 6.59375 29.984375 6.59375 
Q 38.421875 6.59375 43.015625 9.90625 
Q 47.609375 13.234375 47.609375 19.390625 
Q 47.609375 24.75 44.3125 27.78125 
Q 41.015625 30.8125 33.5 32.328125 
L 27.484375 33.5 
Q 16.453125 35.6875 11.515625 40.375 
Q 6.59375 45.0625 6.59375 53.421875 
Q 6.59375 63.09375 13.40625 68.65625 
Q 20.21875 74.21875 32.171875 74.21875 
Q 37.3125 74.21875 42.625 73.28125 
Q 47.953125 72.359375 53.515625 70.515625 
z
" id="DejaVuSans-83"/>
      <path d="M 44.390625 34.1875 
Q 47.5625 33.109375 50.5625 29.59375 
Q 53.5625 26.078125 56.59375 19.921875 
L 66.609375 0 
L 56 0 
L 46.6875 18.703125 
Q 43.0625 26.03125 39.671875 28.421875 
Q 36.28125 30.8125 30.421875 30.8125 
L 19.671875 30.8125 
L 19.671875 0 
L 9.8125 0 
L 9.8125 72.90625 
L 32.078125 72.90625 
Q 44.578125 72.90625 50.734375 67.671875 
Q 56.890625 62.453125 56.890625 51.90625 
Q 56.890625 45.015625 53.6875 40.46875 
Q 50.484375 35.9375 44.390625 34.1875 
z
M 19.671875 64.796875 
L 19.671875 38.921875 
L 32.078125 38.921875 
Q 39.203125 38.921875 42.84375 42.21875 
Q 46.484375 45.515625 46.484375 51.90625 
Q 46.484375 58.296875 42.84375 61.546875 
Q 39.203125 64.796875 32.078125 64.796875 
z
" id="DejaVuSans-82"/>
     </defs>
     <use xlink:href="#DejaVuSans-52"/>
     <use x="63.623047" xlink:href="#DejaVuSans-55"/>
     <use x="127.246094" xlink:href="#DejaVuSans-32"/>
     <use x="159.033203" xlink:href="#DejaVuSans-83"/>
     <use x="222.509766" xlink:href="#DejaVuSans-101"/>
     <use x="284.033203" xlink:href="#DejaVuSans-112"/>
     <use x="347.509766" xlink:href="#DejaVuSans-97"/>
     <use x="408.789062" xlink:href="#DejaVuSans-114"/>
     <use x="449.902344" xlink:href="#DejaVuSans-97"/>
     <use x="511.181641" xlink:href="#DejaVuSans-98"/>
     <use x="574.658203" xlink:href="#DejaVuSans-108"/>
     <use x="602.441406" xlink:href="#DejaVuSans-101"/>
     <use x="663.964844" xlink:href="#DejaVuSans-32"/>
     <use x="695.751953" xlink:href="#DejaVuSans-82"/>
     <use x="762.984375" xlink:href="#DejaVuSans-97"/>
     <use x="824.263672" xlink:href="#DejaVuSans-115"/>
     <use x="876.363281" xlink:href="#DejaVuSans-116"/>
     <use x="915.572266" xlink:href="#DejaVuSans-114"/>
     <use x="956.685547" xlink:href="#DejaVuSans-105"/>
     <use x="984.46875" xlink:href="#DejaVuSans-103"/>
     <use x="1047.945312" xlink:href="#DejaVuSans-105"/>
     <use x="1075.728516" xlink:href="#DejaVuSans-110"/>
     <use x="1139.107422" xlink:href="#DejaVuSans-44"/>
     <use x="1170.894531" xlink:href="#DejaVuSans-32"/>
     <use x="1202.681641" xlink:href="#DejaVuSans-110"/>
     <use x="1266.060547" xlink:href="#DejaVuSans-43"/>
     <use x="1349.849609" xlink:href="#DejaVuSans-54"/>
     <use x="1413.472656" xlink:href="#DejaVuSans-32"/>
     <use x="1445.259766" xlink:href="#DejaVuSans-99"/>
     <use x="1500.240234" xlink:href="#DejaVuSans-111"/>
     <use x="1561.421875" xlink:href="#DejaVuSans-110"/>
     <use x="1624.800781" xlink:href="#DejaVuSans-115"/>
     <use x="1676.900391" xlink:href="#DejaVuSans-116"/>
     <use x="1716.109375" xlink:href="#DejaVuSans-114"/>
     <use x="1757.222656" xlink:href="#DejaVuSans-97"/>
     <use x="1818.501953" xlink:href="#DejaVuSans-105"/>
     <use x="1846.285156" xlink:href="#DejaVuSans-110"/>
     <use x="1909.664062" xlink:href="#DejaVuSans-116"/>
     <use x="1948.873047" xlink:href="#DejaVuSans-115"/>
    </g>
   </g>
  </g>
 </g>
 <defs>
  <clipPath id="p575272bfb8">
   <rect height="271.296" width="281.088" x="57.6" y="27.648"/>
  </clipPath>
 </defs>
</svg>
