<?xml version="1.0" encoding="utf-8" standalone="no"?>
<!DOCTYPE svg PUBLIC "-//W3C//DTD SVG 1.1//EN"
  "http://www.w3.org/Graphics/SVG/1.1/DTD/svg11.dtd">
<!-- Created with matplotlib (https://matplotlib.org/) -->
<svg height="345.6pt" version="1.1" viewBox="0 0 460.8 345.6" width="460.8pt" xmlns="http://www.w3.org/2000/svg" xmlns:xlink="http://www.w3.org/1999/xlink">
 <metadata>
  <rdf:RDF xmlns:cc="http://creativecommons.org/ns#" xmlns:dc="http://purl.org/dc/elements/1.1/" xmlns:rdf="http://www.w3.org/1999/02/22-rdf-syntax-ns#">
   <cc:Work>
    <dc:type rdf:resource="http://purl.org/dc/dcmitype/StillImage"/>
    <dc:date>2021-03-25T09:36:14.983442</dc:date>
    <dc:format>image/svg+xml</dc:format>
    <dc:creator>
     <cc:Agent>
      <dc:title>Matplotlib v3.3.3, https://matplotlib.org/</dc:title>
     </cc:Agent>
    </dc:creator>
   </cc:Work>
  </rdf:RDF>
 </metadata>
 <defs>
  <style type="text/css">*{stroke-linecap:butt;stroke-linejoin:round;}</style>
 </defs>
 <g id="figure_1">
  <g id="patch_1">
   <path d="M 0 345.6 
L 460.8 345.6 
L 460.8 0 
L 0 0 
z
" style="fill:#ffffff;"/>
  </g>
  <g id="axes_1">
   <g id="patch_2">
    <path d="M 57.6 298.944 
L 338.688 298.944 
L 338.688 27.648 
L 57.6 27.648 
z
" style="fill:#ffffff;"/>
   </g>
   <g id="matplotlib.axis_1">
    <g id="xtick_1">
     <g id="line2d_1">
      <path clip-path="url(#p65eba40230)" d="M 57.6 298.944 
L 57.6 27.648 
" style="fill:none;stroke:#b0b0b0;stroke-linecap:square;stroke-width:0.8;"/>
     </g>
     <g id="line2d_2">
      <defs>
       <path d="M 0 0 
L 0 3.5 
" id="m046f447813" style="stroke:#000000;stroke-width:0.8;"/>
      </defs>
      <g>
       <use style="stroke:#000000;stroke-width:0.8;" x="57.6" xlink:href="#m046f447813" y="298.944"/>
      </g>
     </g>
     <g id="text_1">
      <!-- 0 -->
      <g transform="translate(51.2375 321.140875)scale(0.2 -0.2)">
       <defs>
        <path d="M 31.78125 66.40625 
Q 24.171875 66.40625 20.328125 58.90625 
Q 16.5 51.421875 16.5 36.375 
Q 16.5 21.390625 20.328125 13.890625 
Q 24.171875 6.390625 31.78125 6.390625 
Q 39.453125 6.390625 43.28125 13.890625 
Q 47.125 21.390625 47.125 36.375 
Q 47.125 51.421875 43.28125 58.90625 
Q 39.453125 66.40625 31.78125 66.40625 
z
M 31.78125 74.21875 
Q 44.046875 74.21875 50.515625 64.515625 
Q 56.984375 54.828125 56.984375 36.375 
Q 56.984375 17.96875 50.515625 8.265625 
Q 44.046875 -1.421875 31.78125 -1.421875 
Q 19.53125 -1.421875 13.0625 8.265625 
Q 6.59375 17.96875 6.59375 36.375 
Q 6.59375 54.828125 13.0625 64.515625 
Q 19.53125 74.21875 31.78125 74.21875 
z
" id="DejaVuSans-48"/>
       </defs>
       <use xlink:href="#DejaVuSans-48"/>
      </g>
     </g>
    </g>
    <g id="xtick_2">
     <g id="line2d_3">
      <path clip-path="url(#p65eba40230)" d="M 137.910857 298.944 
L 137.910857 27.648 
" style="fill:none;stroke:#b0b0b0;stroke-linecap:square;stroke-width:0.8;"/>
     </g>
     <g id="line2d_4">
      <g>
       <use style="stroke:#000000;stroke-width:0.8;" x="137.910857" xlink:href="#m046f447813" y="298.944"/>
      </g>
     </g>
     <g id="text_2">
      <!-- 2 -->
      <g transform="translate(131.548357 321.140875)scale(0.2 -0.2)">
       <defs>
        <path d="M 19.1875 8.296875 
L 53.609375 8.296875 
L 53.609375 0 
L 7.328125 0 
L 7.328125 8.296875 
Q 12.9375 14.109375 22.625 23.890625 
Q 32.328125 33.6875 34.8125 36.53125 
Q 39.546875 41.84375 41.421875 45.53125 
Q 43.3125 49.21875 43.3125 52.78125 
Q 43.3125 58.59375 39.234375 62.25 
Q 35.15625 65.921875 28.609375 65.921875 
Q 23.96875 65.921875 18.8125 64.3125 
Q 13.671875 62.703125 7.8125 59.421875 
L 7.8125 69.390625 
Q 13.765625 71.78125 18.9375 73 
Q 24.125 74.21875 28.421875 74.21875 
Q 39.75 74.21875 46.484375 68.546875 
Q 53.21875 62.890625 53.21875 53.421875 
Q 53.21875 48.921875 51.53125 44.890625 
Q 49.859375 40.875 45.40625 35.40625 
Q 44.1875 33.984375 37.640625 27.21875 
Q 31.109375 20.453125 19.1875 8.296875 
z
" id="DejaVuSans-50"/>
       </defs>
       <use xlink:href="#DejaVuSans-50"/>
      </g>
     </g>
    </g>
    <g id="xtick_3">
     <g id="line2d_5">
      <path clip-path="url(#p65eba40230)" d="M 218.221714 298.944 
L 218.221714 27.648 
" style="fill:none;stroke:#b0b0b0;stroke-linecap:square;stroke-width:0.8;"/>
     </g>
     <g id="line2d_6">
      <g>
       <use style="stroke:#000000;stroke-width:0.8;" x="218.221714" xlink:href="#m046f447813" y="298.944"/>
      </g>
     </g>
     <g id="text_3">
      <!-- 4 -->
      <g transform="translate(211.859214 321.140875)scale(0.2 -0.2)">
       <defs>
        <path d="M 37.796875 64.3125 
L 12.890625 25.390625 
L 37.796875 25.390625 
z
M 35.203125 72.90625 
L 47.609375 72.90625 
L 47.609375 25.390625 
L 58.015625 25.390625 
L 58.015625 17.1875 
L 47.609375 17.1875 
L 47.609375 0 
L 37.796875 0 
L 37.796875 17.1875 
L 4.890625 17.1875 
L 4.890625 26.703125 
z
" id="DejaVuSans-52"/>
       </defs>
       <use xlink:href="#DejaVuSans-52"/>
      </g>
     </g>
    </g>
    <g id="xtick_4">
     <g id="line2d_7">
      <path clip-path="url(#p65eba40230)" d="M 298.532571 298.944 
L 298.532571 27.648 
" style="fill:none;stroke:#b0b0b0;stroke-linecap:square;stroke-width:0.8;"/>
     </g>
     <g id="line2d_8">
      <g>
       <use style="stroke:#000000;stroke-width:0.8;" x="298.532571" xlink:href="#m046f447813" y="298.944"/>
      </g>
     </g>
     <g id="text_4">
      <!-- 6 -->
      <g transform="translate(292.170071 321.140875)scale(0.2 -0.2)">
       <defs>
        <path d="M 33.015625 40.375 
Q 26.375 40.375 22.484375 35.828125 
Q 18.609375 31.296875 18.609375 23.390625 
Q 18.609375 15.53125 22.484375 10.953125 
Q 26.375 6.390625 33.015625 6.390625 
Q 39.65625 6.390625 43.53125 10.953125 
Q 47.40625 15.53125 47.40625 23.390625 
Q 47.40625 31.296875 43.53125 35.828125 
Q 39.65625 40.375 33.015625 40.375 
z
M 52.59375 71.296875 
L 52.59375 62.3125 
Q 48.875 64.0625 45.09375 64.984375 
Q 41.3125 65.921875 37.59375 65.921875 
Q 27.828125 65.921875 22.671875 59.328125 
Q 17.53125 52.734375 16.796875 39.40625 
Q 19.671875 43.65625 24.015625 45.921875 
Q 28.375 48.1875 33.59375 48.1875 
Q 44.578125 48.1875 50.953125 41.515625 
Q 57.328125 34.859375 57.328125 23.390625 
Q 57.328125 12.15625 50.6875 5.359375 
Q 44.046875 -1.421875 33.015625 -1.421875 
Q 20.359375 -1.421875 13.671875 8.265625 
Q 6.984375 17.96875 6.984375 36.375 
Q 6.984375 53.65625 15.1875 63.9375 
Q 23.390625 74.21875 37.203125 74.21875 
Q 40.921875 74.21875 44.703125 73.484375 
Q 48.484375 72.75 52.59375 71.296875 
z
" id="DejaVuSans-54"/>
       </defs>
       <use xlink:href="#DejaVuSans-54"/>
      </g>
     </g>
    </g>
    <g id="xtick_5">
     <g id="line2d_9">
      <path clip-path="url(#p65eba40230)" d="M 97.755429 298.944 
L 97.755429 27.648 
" style="fill:none;stroke:#b0b0b0;stroke-linecap:square;stroke-width:0.8;"/>
     </g>
     <g id="line2d_10">
      <defs>
       <path d="M 0 0 
L 0 2 
" id="m678880f574" style="stroke:#000000;stroke-width:0.6;"/>
      </defs>
      <g>
       <use style="stroke:#000000;stroke-width:0.6;" x="97.755429" xlink:href="#m678880f574" y="298.944"/>
      </g>
     </g>
    </g>
    <g id="xtick_6">
     <g id="line2d_11">
      <path clip-path="url(#p65eba40230)" d="M 178.066286 298.944 
L 178.066286 27.648 
" style="fill:none;stroke:#b0b0b0;stroke-linecap:square;stroke-width:0.8;"/>
     </g>
     <g id="line2d_12">
      <g>
       <use style="stroke:#000000;stroke-width:0.6;" x="178.066286" xlink:href="#m678880f574" y="298.944"/>
      </g>
     </g>
    </g>
    <g id="xtick_7">
     <g id="line2d_13">
      <path clip-path="url(#p65eba40230)" d="M 258.377143 298.944 
L 258.377143 27.648 
" style="fill:none;stroke:#b0b0b0;stroke-linecap:square;stroke-width:0.8;"/>
     </g>
     <g id="line2d_14">
      <g>
       <use style="stroke:#000000;stroke-width:0.6;" x="258.377143" xlink:href="#m678880f574" y="298.944"/>
      </g>
     </g>
    </g>
    <g id="xtick_8">
     <g id="line2d_15">
      <path clip-path="url(#p65eba40230)" d="M 338.688 298.944 
L 338.688 27.648 
" style="fill:none;stroke:#b0b0b0;stroke-linecap:square;stroke-width:0.8;"/>
     </g>
     <g id="line2d_16">
      <g>
       <use style="stroke:#000000;stroke-width:0.6;" x="338.688" xlink:href="#m678880f574" y="298.944"/>
      </g>
     </g>
    </g>
    <g id="text_5">
     <!-- log10(# (f+g)-evals / dimension) -->
     <g transform="translate(58.145016 342.217594)scale(0.17 -0.17)">
      <defs>
       <path d="M 9.421875 75.984375 
L 18.40625 75.984375 
L 18.40625 0 
L 9.421875 0 
z
" id="DejaVuSans-108"/>
       <path d="M 30.609375 48.390625 
Q 23.390625 48.390625 19.1875 42.75 
Q 14.984375 37.109375 14.984375 27.296875 
Q 14.984375 17.484375 19.15625 11.84375 
Q 23.34375 6.203125 30.609375 6.203125 
Q 37.796875 6.203125 41.984375 11.859375 
Q 46.1875 17.53125 46.1875 27.296875 
Q 46.1875 37.015625 41.984375 42.703125 
Q 37.796875 48.390625 30.609375 48.390625 
z
M 30.609375 56 
Q 42.328125 56 49.015625 48.375 
Q 55.71875 40.765625 55.71875 27.296875 
Q 55.71875 13.875 49.015625 6.21875 
Q 42.328125 -1.421875 30.609375 -1.421875 
Q 18.84375 -1.421875 12.171875 6.21875 
Q 5.515625 13.875 5.515625 27.296875 
Q 5.515625 40.765625 12.171875 48.375 
Q 18.84375 56 30.609375 56 
z
" id="DejaVuSans-111"/>
       <path d="M 45.40625 27.984375 
Q 45.40625 37.75 41.375 43.109375 
Q 37.359375 48.484375 30.078125 48.484375 
Q 22.859375 48.484375 18.828125 43.109375 
Q 14.796875 37.75 14.796875 27.984375 
Q 14.796875 18.265625 18.828125 12.890625 
Q 22.859375 7.515625 30.078125 7.515625 
Q 37.359375 7.515625 41.375 12.890625 
Q 45.40625 18.265625 45.40625 27.984375 
z
M 54.390625 6.78125 
Q 54.390625 -7.171875 48.1875 -13.984375 
Q 42 -20.796875 29.203125 -20.796875 
Q 24.46875 -20.796875 20.265625 -20.09375 
Q 16.0625 -19.390625 12.109375 -17.921875 
L 12.109375 -9.1875 
Q 16.0625 -11.328125 19.921875 -12.34375 
Q 23.78125 -13.375 27.78125 -13.375 
Q 36.625 -13.375 41.015625 -8.765625 
Q 45.40625 -4.15625 45.40625 5.171875 
L 45.40625 9.625 
Q 42.625 4.78125 38.28125 2.390625 
Q 33.9375 0 27.875 0 
Q 17.828125 0 11.671875 7.65625 
Q 5.515625 15.328125 5.515625 27.984375 
Q 5.515625 40.671875 11.671875 48.328125 
Q 17.828125 56 27.875 56 
Q 33.9375 56 38.28125 53.609375 
Q 42.625 51.21875 45.40625 46.390625 
L 45.40625 54.6875 
L 54.390625 54.6875 
z
" id="DejaVuSans-103"/>
       <path d="M 12.40625 8.296875 
L 28.515625 8.296875 
L 28.515625 63.921875 
L 10.984375 60.40625 
L 10.984375 69.390625 
L 28.421875 72.90625 
L 38.28125 72.90625 
L 38.28125 8.296875 
L 54.390625 8.296875 
L 54.390625 0 
L 12.40625 0 
z
" id="DejaVuSans-49"/>
       <path d="M 31 75.875 
Q 24.46875 64.65625 21.28125 53.65625 
Q 18.109375 42.671875 18.109375 31.390625 
Q 18.109375 20.125 21.3125 9.0625 
Q 24.515625 -2 31 -13.1875 
L 23.1875 -13.1875 
Q 15.875 -1.703125 12.234375 9.375 
Q 8.59375 20.453125 8.59375 31.390625 
Q 8.59375 42.28125 12.203125 53.3125 
Q 15.828125 64.359375 23.1875 75.875 
z
" id="DejaVuSans-40"/>
       <path d="M 51.125 44 
L 36.921875 44 
L 32.8125 27.6875 
L 47.125 27.6875 
z
M 43.796875 71.78125 
L 38.71875 51.515625 
L 52.984375 51.515625 
L 58.109375 71.78125 
L 65.921875 71.78125 
L 60.890625 51.515625 
L 76.125 51.515625 
L 76.125 44 
L 58.984375 44 
L 54.984375 27.6875 
L 70.515625 27.6875 
L 70.515625 20.21875 
L 53.078125 20.21875 
L 48 0 
L 40.1875 0 
L 45.21875 20.21875 
L 30.90625 20.21875 
L 25.875 0 
L 18.015625 0 
L 23.09375 20.21875 
L 7.71875 20.21875 
L 7.71875 27.6875 
L 24.90625 27.6875 
L 29 44 
L 13.28125 44 
L 13.28125 51.515625 
L 30.90625 51.515625 
L 35.890625 71.78125 
z
" id="DejaVuSans-35"/>
       <path id="DejaVuSans-32"/>
       <path d="M 37.109375 75.984375 
L 37.109375 68.5 
L 28.515625 68.5 
Q 23.6875 68.5 21.796875 66.546875 
Q 19.921875 64.59375 19.921875 59.515625 
L 19.921875 54.6875 
L 34.71875 54.6875 
L 34.71875 47.703125 
L 19.921875 47.703125 
L 19.921875 0 
L 10.890625 0 
L 10.890625 47.703125 
L 2.296875 47.703125 
L 2.296875 54.6875 
L 10.890625 54.6875 
L 10.890625 58.5 
Q 10.890625 67.625 15.140625 71.796875 
Q 19.390625 75.984375 28.609375 75.984375 
z
" id="DejaVuSans-102"/>
       <path d="M 46 62.703125 
L 46 35.5 
L 73.1875 35.5 
L 73.1875 27.203125 
L 46 27.203125 
L 46 0 
L 37.796875 0 
L 37.796875 27.203125 
L 10.59375 27.203125 
L 10.59375 35.5 
L 37.796875 35.5 
L 37.796875 62.703125 
z
" id="DejaVuSans-43"/>
       <path d="M 8.015625 75.875 
L 15.828125 75.875 
Q 23.140625 64.359375 26.78125 53.3125 
Q 30.421875 42.28125 30.421875 31.390625 
Q 30.421875 20.453125 26.78125 9.375 
Q 23.140625 -1.703125 15.828125 -13.1875 
L 8.015625 -13.1875 
Q 14.5 -2 17.703125 9.0625 
Q 20.90625 20.125 20.90625 31.390625 
Q 20.90625 42.671875 17.703125 53.65625 
Q 14.5 64.65625 8.015625 75.875 
z
" id="DejaVuSans-41"/>
       <path d="M 4.890625 31.390625 
L 31.203125 31.390625 
L 31.203125 23.390625 
L 4.890625 23.390625 
z
" id="DejaVuSans-45"/>
       <path d="M 56.203125 29.59375 
L 56.203125 25.203125 
L 14.890625 25.203125 
Q 15.484375 15.921875 20.484375 11.0625 
Q 25.484375 6.203125 34.421875 6.203125 
Q 39.59375 6.203125 44.453125 7.46875 
Q 49.3125 8.734375 54.109375 11.28125 
L 54.109375 2.78125 
Q 49.265625 0.734375 44.1875 -0.34375 
Q 39.109375 -1.421875 33.890625 -1.421875 
Q 20.796875 -1.421875 13.15625 6.1875 
Q 5.515625 13.8125 5.515625 26.8125 
Q 5.515625 40.234375 12.765625 48.109375 
Q 20.015625 56 32.328125 56 
Q 43.359375 56 49.78125 48.890625 
Q 56.203125 41.796875 56.203125 29.59375 
z
M 47.21875 32.234375 
Q 47.125 39.59375 43.09375 43.984375 
Q 39.0625 48.390625 32.421875 48.390625 
Q 24.90625 48.390625 20.390625 44.140625 
Q 15.875 39.890625 15.1875 32.171875 
z
" id="DejaVuSans-101"/>
       <path d="M 2.984375 54.6875 
L 12.5 54.6875 
L 29.59375 8.796875 
L 46.6875 54.6875 
L 56.203125 54.6875 
L 35.6875 0 
L 23.484375 0 
z
" id="DejaVuSans-118"/>
       <path d="M 34.28125 27.484375 
Q 23.390625 27.484375 19.1875 25 
Q 14.984375 22.515625 14.984375 16.5 
Q 14.984375 11.71875 18.140625 8.90625 
Q 21.296875 6.109375 26.703125 6.109375 
Q 34.1875 6.109375 38.703125 11.40625 
Q 43.21875 16.703125 43.21875 25.484375 
L 43.21875 27.484375 
z
M 52.203125 31.203125 
L 52.203125 0 
L 43.21875 0 
L 43.21875 8.296875 
Q 40.140625 3.328125 35.546875 0.953125 
Q 30.953125 -1.421875 24.3125 -1.421875 
Q 15.921875 -1.421875 10.953125 3.296875 
Q 6 8.015625 6 15.921875 
Q 6 25.140625 12.171875 29.828125 
Q 18.359375 34.515625 30.609375 34.515625 
L 43.21875 34.515625 
L 43.21875 35.40625 
Q 43.21875 41.609375 39.140625 45 
Q 35.0625 48.390625 27.6875 48.390625 
Q 23 48.390625 18.546875 47.265625 
Q 14.109375 46.140625 10.015625 43.890625 
L 10.015625 52.203125 
Q 14.9375 54.109375 19.578125 55.046875 
Q 24.21875 56 28.609375 56 
Q 40.484375 56 46.34375 49.84375 
Q 52.203125 43.703125 52.203125 31.203125 
z
" id="DejaVuSans-97"/>
       <path d="M 44.28125 53.078125 
L 44.28125 44.578125 
Q 40.484375 46.53125 36.375 47.5 
Q 32.28125 48.484375 27.875 48.484375 
Q 21.1875 48.484375 17.84375 46.4375 
Q 14.5 44.390625 14.5 40.28125 
Q 14.5 37.15625 16.890625 35.375 
Q 19.28125 33.59375 26.515625 31.984375 
L 29.59375 31.296875 
Q 39.15625 29.25 43.1875 25.515625 
Q 47.21875 21.78125 47.21875 15.09375 
Q 47.21875 7.46875 41.1875 3.015625 
Q 35.15625 -1.421875 24.609375 -1.421875 
Q 20.21875 -1.421875 15.453125 -0.5625 
Q 10.6875 0.296875 5.421875 2 
L 5.421875 11.28125 
Q 10.40625 8.6875 15.234375 7.390625 
Q 20.0625 6.109375 24.8125 6.109375 
Q 31.15625 6.109375 34.5625 8.28125 
Q 37.984375 10.453125 37.984375 14.40625 
Q 37.984375 18.0625 35.515625 20.015625 
Q 33.0625 21.96875 24.703125 23.78125 
L 21.578125 24.515625 
Q 13.234375 26.265625 9.515625 29.90625 
Q 5.8125 33.546875 5.8125 39.890625 
Q 5.8125 47.609375 11.28125 51.796875 
Q 16.75 56 26.8125 56 
Q 31.78125 56 36.171875 55.265625 
Q 40.578125 54.546875 44.28125 53.078125 
z
" id="DejaVuSans-115"/>
       <path d="M 25.390625 72.90625 
L 33.6875 72.90625 
L 8.296875 -9.28125 
L 0 -9.28125 
z
" id="DejaVuSans-47"/>
       <path d="M 45.40625 46.390625 
L 45.40625 75.984375 
L 54.390625 75.984375 
L 54.390625 0 
L 45.40625 0 
L 45.40625 8.203125 
Q 42.578125 3.328125 38.25 0.953125 
Q 33.9375 -1.421875 27.875 -1.421875 
Q 17.96875 -1.421875 11.734375 6.484375 
Q 5.515625 14.40625 5.515625 27.296875 
Q 5.515625 40.1875 11.734375 48.09375 
Q 17.96875 56 27.875 56 
Q 33.9375 56 38.25 53.625 
Q 42.578125 51.265625 45.40625 46.390625 
z
M 14.796875 27.296875 
Q 14.796875 17.390625 18.875 11.75 
Q 22.953125 6.109375 30.078125 6.109375 
Q 37.203125 6.109375 41.296875 11.75 
Q 45.40625 17.390625 45.40625 27.296875 
Q 45.40625 37.203125 41.296875 42.84375 
Q 37.203125 48.484375 30.078125 48.484375 
Q 22.953125 48.484375 18.875 42.84375 
Q 14.796875 37.203125 14.796875 27.296875 
z
" id="DejaVuSans-100"/>
       <path d="M 9.421875 54.6875 
L 18.40625 54.6875 
L 18.40625 0 
L 9.421875 0 
z
M 9.421875 75.984375 
L 18.40625 75.984375 
L 18.40625 64.59375 
L 9.421875 64.59375 
z
" id="DejaVuSans-105"/>
       <path d="M 52 44.1875 
Q 55.375 50.25 60.0625 53.125 
Q 64.75 56 71.09375 56 
Q 79.640625 56 84.28125 50.015625 
Q 88.921875 44.046875 88.921875 33.015625 
L 88.921875 0 
L 79.890625 0 
L 79.890625 32.71875 
Q 79.890625 40.578125 77.09375 44.375 
Q 74.3125 48.1875 68.609375 48.1875 
Q 61.625 48.1875 57.5625 43.546875 
Q 53.515625 38.921875 53.515625 30.90625 
L 53.515625 0 
L 44.484375 0 
L 44.484375 32.71875 
Q 44.484375 40.625 41.703125 44.40625 
Q 38.921875 48.1875 33.109375 48.1875 
Q 26.21875 48.1875 22.15625 43.53125 
Q 18.109375 38.875 18.109375 30.90625 
L 18.109375 0 
L 9.078125 0 
L 9.078125 54.6875 
L 18.109375 54.6875 
L 18.109375 46.1875 
Q 21.1875 51.21875 25.484375 53.609375 
Q 29.78125 56 35.6875 56 
Q 41.65625 56 45.828125 52.96875 
Q 50 49.953125 52 44.1875 
z
" id="DejaVuSans-109"/>
       <path d="M 54.890625 33.015625 
L 54.890625 0 
L 45.90625 0 
L 45.90625 32.71875 
Q 45.90625 40.484375 42.875 44.328125 
Q 39.84375 48.1875 33.796875 48.1875 
Q 26.515625 48.1875 22.3125 43.546875 
Q 18.109375 38.921875 18.109375 30.90625 
L 18.109375 0 
L 9.078125 0 
L 9.078125 54.6875 
L 18.109375 54.6875 
L 18.109375 46.1875 
Q 21.34375 51.125 25.703125 53.5625 
Q 30.078125 56 35.796875 56 
Q 45.21875 56 50.046875 50.171875 
Q 54.890625 44.34375 54.890625 33.015625 
z
" id="DejaVuSans-110"/>
      </defs>
      <use xlink:href="#DejaVuSans-108"/>
      <use x="27.783203" xlink:href="#DejaVuSans-111"/>
      <use x="88.964844" xlink:href="#DejaVuSans-103"/>
      <use x="152.441406" xlink:href="#DejaVuSans-49"/>
      <use x="216.064453" xlink:href="#DejaVuSans-48"/>
      <use x="279.6875" xlink:href="#DejaVuSans-40"/>
      <use x="318.701172" xlink:href="#DejaVuSans-35"/>
      <use x="402.490234" xlink:href="#DejaVuSans-32"/>
      <use x="434.277344" xlink:href="#DejaVuSans-40"/>
      <use x="473.291016" xlink:href="#DejaVuSans-102"/>
      <use x="508.496094" xlink:href="#DejaVuSans-43"/>
      <use x="592.285156" xlink:href="#DejaVuSans-103"/>
      <use x="655.761719" xlink:href="#DejaVuSans-41"/>
      <use x="694.775391" xlink:href="#DejaVuSans-45"/>
      <use x="730.859375" xlink:href="#DejaVuSans-101"/>
      <use x="792.382812" xlink:href="#DejaVuSans-118"/>
      <use x="851.5625" xlink:href="#DejaVuSans-97"/>
      <use x="912.841797" xlink:href="#DejaVuSans-108"/>
      <use x="940.625" xlink:href="#DejaVuSans-115"/>
      <use x="992.724609" xlink:href="#DejaVuSans-32"/>
      <use x="1024.511719" xlink:href="#DejaVuSans-47"/>
      <use x="1058.203125" xlink:href="#DejaVuSans-32"/>
      <use x="1089.990234" xlink:href="#DejaVuSans-100"/>
      <use x="1153.466797" xlink:href="#DejaVuSans-105"/>
      <use x="1181.25" xlink:href="#DejaVuSans-109"/>
      <use x="1278.662109" xlink:href="#DejaVuSans-101"/>
      <use x="1340.185547" xlink:href="#DejaVuSans-110"/>
      <use x="1403.564453" xlink:href="#DejaVuSans-115"/>
      <use x="1455.664062" xlink:href="#DejaVuSans-105"/>
      <use x="1483.447266" xlink:href="#DejaVuSans-111"/>
      <use x="1544.628906" xlink:href="#DejaVuSans-110"/>
      <use x="1608.007812" xlink:href="#DejaVuSans-41"/>
     </g>
    </g>
   </g>
   <g id="matplotlib.axis_2">
    <g id="ytick_1">
     <g id="line2d_17">
      <path clip-path="url(#p65eba40230)" d="M 57.6 298.944 
L 338.688 298.944 
" style="fill:none;stroke:#b0b0b0;stroke-linecap:square;stroke-width:0.8;"/>
     </g>
     <g id="line2d_18">
      <defs>
       <path d="M 0 0 
L -3.5 0 
" id="mfe3d397dad" style="stroke:#000000;stroke-width:0.8;"/>
      </defs>
      <g>
       <use style="stroke:#000000;stroke-width:0.8;" x="57.6" xlink:href="#mfe3d397dad" y="298.944"/>
      </g>
     </g>
     <g id="text_6">
      <!-- 0.0 -->
      <g transform="translate(25.155 305.02275)scale(0.16 -0.16)">
       <defs>
        <path d="M 10.6875 12.40625 
L 21 12.40625 
L 21 0 
L 10.6875 0 
z
" id="DejaVuSans-46"/>
       </defs>
       <use xlink:href="#DejaVuSans-48"/>
       <use x="63.623047" xlink:href="#DejaVuSans-46"/>
       <use x="95.410156" xlink:href="#DejaVuSans-48"/>
      </g>
     </g>
    </g>
    <g id="ytick_2">
     <g id="line2d_19">
      <path clip-path="url(#p65eba40230)" d="M 57.6 245.22202 
L 338.688 245.22202 
" style="fill:none;stroke:#b0b0b0;stroke-linecap:square;stroke-width:0.8;"/>
     </g>
     <g id="line2d_20">
      <g>
       <use style="stroke:#000000;stroke-width:0.8;" x="57.6" xlink:href="#mfe3d397dad" y="245.22202"/>
      </g>
     </g>
     <g id="text_7">
      <!-- 0.2 -->
      <g transform="translate(25.155 251.30077)scale(0.16 -0.16)">
       <use xlink:href="#DejaVuSans-48"/>
       <use x="63.623047" xlink:href="#DejaVuSans-46"/>
       <use x="95.410156" xlink:href="#DejaVuSans-50"/>
      </g>
     </g>
    </g>
    <g id="ytick_3">
     <g id="line2d_21">
      <path clip-path="url(#p65eba40230)" d="M 57.6 191.50004 
L 338.688 191.50004 
" style="fill:none;stroke:#b0b0b0;stroke-linecap:square;stroke-width:0.8;"/>
     </g>
     <g id="line2d_22">
      <g>
       <use style="stroke:#000000;stroke-width:0.8;" x="57.6" xlink:href="#mfe3d397dad" y="191.50004"/>
      </g>
     </g>
     <g id="text_8">
      <!-- 0.4 -->
      <g transform="translate(25.155 197.57879)scale(0.16 -0.16)">
       <use xlink:href="#DejaVuSans-48"/>
       <use x="63.623047" xlink:href="#DejaVuSans-46"/>
       <use x="95.410156" xlink:href="#DejaVuSans-52"/>
      </g>
     </g>
    </g>
    <g id="ytick_4">
     <g id="line2d_23">
      <path clip-path="url(#p65eba40230)" d="M 57.6 137.778059 
L 338.688 137.778059 
" style="fill:none;stroke:#b0b0b0;stroke-linecap:square;stroke-width:0.8;"/>
     </g>
     <g id="line2d_24">
      <g>
       <use style="stroke:#000000;stroke-width:0.8;" x="57.6" xlink:href="#mfe3d397dad" y="137.778059"/>
      </g>
     </g>
     <g id="text_9">
      <!-- 0.6 -->
      <g transform="translate(25.155 143.856809)scale(0.16 -0.16)">
       <use xlink:href="#DejaVuSans-48"/>
       <use x="63.623047" xlink:href="#DejaVuSans-46"/>
       <use x="95.410156" xlink:href="#DejaVuSans-54"/>
      </g>
     </g>
    </g>
    <g id="ytick_5">
     <g id="line2d_25">
      <path clip-path="url(#p65eba40230)" d="M 57.6 84.056079 
L 338.688 84.056079 
" style="fill:none;stroke:#b0b0b0;stroke-linecap:square;stroke-width:0.8;"/>
     </g>
     <g id="line2d_26">
      <g>
       <use style="stroke:#000000;stroke-width:0.8;" x="57.6" xlink:href="#mfe3d397dad" y="84.056079"/>
      </g>
     </g>
     <g id="text_10">
      <!-- 0.8 -->
      <g transform="translate(25.155 90.134829)scale(0.16 -0.16)">
       <defs>
        <path d="M 31.78125 34.625 
Q 24.75 34.625 20.71875 30.859375 
Q 16.703125 27.09375 16.703125 20.515625 
Q 16.703125 13.921875 20.71875 10.15625 
Q 24.75 6.390625 31.78125 6.390625 
Q 38.8125 6.390625 42.859375 10.171875 
Q 46.921875 13.96875 46.921875 20.515625 
Q 46.921875 27.09375 42.890625 30.859375 
Q 38.875 34.625 31.78125 34.625 
z
M 21.921875 38.8125 
Q 15.578125 40.375 12.03125 44.71875 
Q 8.5 49.078125 8.5 55.328125 
Q 8.5 64.0625 14.71875 69.140625 
Q 20.953125 74.21875 31.78125 74.21875 
Q 42.671875 74.21875 48.875 69.140625 
Q 55.078125 64.0625 55.078125 55.328125 
Q 55.078125 49.078125 51.53125 44.71875 
Q 48 40.375 41.703125 38.8125 
Q 48.828125 37.15625 52.796875 32.3125 
Q 56.78125 27.484375 56.78125 20.515625 
Q 56.78125 9.90625 50.3125 4.234375 
Q 43.84375 -1.421875 31.78125 -1.421875 
Q 19.734375 -1.421875 13.25 4.234375 
Q 6.78125 9.90625 6.78125 20.515625 
Q 6.78125 27.484375 10.78125 32.3125 
Q 14.796875 37.15625 21.921875 38.8125 
z
M 18.3125 54.390625 
Q 18.3125 48.734375 21.84375 45.5625 
Q 25.390625 42.390625 31.78125 42.390625 
Q 38.140625 42.390625 41.71875 45.5625 
Q 45.3125 48.734375 45.3125 54.390625 
Q 45.3125 60.0625 41.71875 63.234375 
Q 38.140625 66.40625 31.78125 66.40625 
Q 25.390625 66.40625 21.84375 63.234375 
Q 18.3125 60.0625 18.3125 54.390625 
z
" id="DejaVuSans-56"/>
       </defs>
       <use xlink:href="#DejaVuSans-48"/>
       <use x="63.623047" xlink:href="#DejaVuSans-46"/>
       <use x="95.410156" xlink:href="#DejaVuSans-56"/>
      </g>
     </g>
    </g>
    <g id="ytick_6">
     <g id="line2d_27">
      <path clip-path="url(#p65eba40230)" d="M 57.6 30.334099 
L 338.688 30.334099 
" style="fill:none;stroke:#b0b0b0;stroke-linecap:square;stroke-width:0.8;"/>
     </g>
     <g id="line2d_28">
      <g>
       <use style="stroke:#000000;stroke-width:0.8;" x="57.6" xlink:href="#mfe3d397dad" y="30.334099"/>
      </g>
     </g>
     <g id="text_11">
      <!-- 1.0 -->
      <g transform="translate(25.155 36.412849)scale(0.16 -0.16)">
       <use xlink:href="#DejaVuSans-49"/>
       <use x="63.623047" xlink:href="#DejaVuSans-46"/>
       <use x="95.410156" xlink:href="#DejaVuSans-48"/>
      </g>
     </g>
    </g>
    <g id="text_12">
     <!-- Fraction of function,target pairs -->
     <g transform="translate(17.619531 297.681)rotate(-90)scale(0.17 -0.17)">
      <defs>
       <path d="M 9.8125 72.90625 
L 51.703125 72.90625 
L 51.703125 64.59375 
L 19.671875 64.59375 
L 19.671875 43.109375 
L 48.578125 43.109375 
L 48.578125 34.8125 
L 19.671875 34.8125 
L 19.671875 0 
L 9.8125 0 
z
" id="DejaVuSans-70"/>
       <path d="M 41.109375 46.296875 
Q 39.59375 47.171875 37.8125 47.578125 
Q 36.03125 48 33.890625 48 
Q 26.265625 48 22.1875 43.046875 
Q 18.109375 38.09375 18.109375 28.8125 
L 18.109375 0 
L 9.078125 0 
L 9.078125 54.6875 
L 18.109375 54.6875 
L 18.109375 46.1875 
Q 20.953125 51.171875 25.484375 53.578125 
Q 30.03125 56 36.53125 56 
Q 37.453125 56 38.578125 55.875 
Q 39.703125 55.765625 41.0625 55.515625 
z
" id="DejaVuSans-114"/>
       <path d="M 48.78125 52.59375 
L 48.78125 44.1875 
Q 44.96875 46.296875 41.140625 47.34375 
Q 37.3125 48.390625 33.40625 48.390625 
Q 24.65625 48.390625 19.8125 42.84375 
Q 14.984375 37.3125 14.984375 27.296875 
Q 14.984375 17.28125 19.8125 11.734375 
Q 24.65625 6.203125 33.40625 6.203125 
Q 37.3125 6.203125 41.140625 7.25 
Q 44.96875 8.296875 48.78125 10.40625 
L 48.78125 2.09375 
Q 45.015625 0.34375 40.984375 -0.53125 
Q 36.96875 -1.421875 32.421875 -1.421875 
Q 20.0625 -1.421875 12.78125 6.34375 
Q 5.515625 14.109375 5.515625 27.296875 
Q 5.515625 40.671875 12.859375 48.328125 
Q 20.21875 56 33.015625 56 
Q 37.15625 56 41.109375 55.140625 
Q 45.0625 54.296875 48.78125 52.59375 
z
" id="DejaVuSans-99"/>
       <path d="M 18.3125 70.21875 
L 18.3125 54.6875 
L 36.8125 54.6875 
L 36.8125 47.703125 
L 18.3125 47.703125 
L 18.3125 18.015625 
Q 18.3125 11.328125 20.140625 9.421875 
Q 21.96875 7.515625 27.59375 7.515625 
L 36.8125 7.515625 
L 36.8125 0 
L 27.59375 0 
Q 17.1875 0 13.234375 3.875 
Q 9.28125 7.765625 9.28125 18.015625 
L 9.28125 47.703125 
L 2.6875 47.703125 
L 2.6875 54.6875 
L 9.28125 54.6875 
L 9.28125 70.21875 
z
" id="DejaVuSans-116"/>
       <path d="M 8.5 21.578125 
L 8.5 54.6875 
L 17.484375 54.6875 
L 17.484375 21.921875 
Q 17.484375 14.15625 20.5 10.265625 
Q 23.53125 6.390625 29.59375 6.390625 
Q 36.859375 6.390625 41.078125 11.03125 
Q 45.3125 15.671875 45.3125 23.6875 
L 45.3125 54.6875 
L 54.296875 54.6875 
L 54.296875 0 
L 45.3125 0 
L 45.3125 8.40625 
Q 42.046875 3.421875 37.71875 1 
Q 33.40625 -1.421875 27.6875 -1.421875 
Q 18.265625 -1.421875 13.375 4.4375 
Q 8.5 10.296875 8.5 21.578125 
z
M 31.109375 56 
z
" id="DejaVuSans-117"/>
       <path d="M 11.71875 12.40625 
L 22.015625 12.40625 
L 22.015625 4 
L 14.015625 -11.625 
L 7.71875 -11.625 
L 11.71875 4 
z
" id="DejaVuSans-44"/>
       <path d="M 18.109375 8.203125 
L 18.109375 -20.796875 
L 9.078125 -20.796875 
L 9.078125 54.6875 
L 18.109375 54.6875 
L 18.109375 46.390625 
Q 20.953125 51.265625 25.265625 53.625 
Q 29.59375 56 35.59375 56 
Q 45.5625 56 51.78125 48.09375 
Q 58.015625 40.1875 58.015625 27.296875 
Q 58.015625 14.40625 51.78125 6.484375 
Q 45.5625 -1.421875 35.59375 -1.421875 
Q 29.59375 -1.421875 25.265625 0.953125 
Q 20.953125 3.328125 18.109375 8.203125 
z
M 48.6875 27.296875 
Q 48.6875 37.203125 44.609375 42.84375 
Q 40.53125 48.484375 33.40625 48.484375 
Q 26.265625 48.484375 22.1875 42.84375 
Q 18.109375 37.203125 18.109375 27.296875 
Q 18.109375 17.390625 22.1875 11.75 
Q 26.265625 6.109375 33.40625 6.109375 
Q 40.53125 6.109375 44.609375 11.75 
Q 48.6875 17.390625 48.6875 27.296875 
z
" id="DejaVuSans-112"/>
      </defs>
      <use xlink:href="#DejaVuSans-70"/>
      <use x="50.269531" xlink:href="#DejaVuSans-114"/>
      <use x="91.382812" xlink:href="#DejaVuSans-97"/>
      <use x="152.662109" xlink:href="#DejaVuSans-99"/>
      <use x="207.642578" xlink:href="#DejaVuSans-116"/>
      <use x="246.851562" xlink:href="#DejaVuSans-105"/>
      <use x="274.634766" xlink:href="#DejaVuSans-111"/>
      <use x="335.816406" xlink:href="#DejaVuSans-110"/>
      <use x="399.195312" xlink:href="#DejaVuSans-32"/>
      <use x="430.982422" xlink:href="#DejaVuSans-111"/>
      <use x="492.164062" xlink:href="#DejaVuSans-102"/>
      <use x="527.369141" xlink:href="#DejaVuSans-32"/>
      <use x="559.15625" xlink:href="#DejaVuSans-102"/>
      <use x="594.361328" xlink:href="#DejaVuSans-117"/>
      <use x="657.740234" xlink:href="#DejaVuSans-110"/>
      <use x="721.119141" xlink:href="#DejaVuSans-99"/>
      <use x="776.099609" xlink:href="#DejaVuSans-116"/>
      <use x="815.308594" xlink:href="#DejaVuSans-105"/>
      <use x="843.091797" xlink:href="#DejaVuSans-111"/>
      <use x="904.273438" xlink:href="#DejaVuSans-110"/>
      <use x="967.652344" xlink:href="#DejaVuSans-44"/>
      <use x="999.439453" xlink:href="#DejaVuSans-116"/>
      <use x="1038.648438" xlink:href="#DejaVuSans-97"/>
      <use x="1099.927734" xlink:href="#DejaVuSans-114"/>
      <use x="1139.291016" xlink:href="#DejaVuSans-103"/>
      <use x="1202.767578" xlink:href="#DejaVuSans-101"/>
      <use x="1264.291016" xlink:href="#DejaVuSans-116"/>
      <use x="1303.5" xlink:href="#DejaVuSans-32"/>
      <use x="1335.287109" xlink:href="#DejaVuSans-112"/>
      <use x="1398.763672" xlink:href="#DejaVuSans-97"/>
      <use x="1460.042969" xlink:href="#DejaVuSans-105"/>
      <use x="1487.826172" xlink:href="#DejaVuSans-114"/>
      <use x="1528.939453" xlink:href="#DejaVuSans-115"/>
     </g>
    </g>
   </g>
   <g id="line2d_29">
    <defs>
     <path d="M 0 1.5 
C 0.397805 1.5 0.77937 1.341951 1.06066 1.06066 
C 1.341951 0.77937 1.5 0.397805 1.5 0 
C 1.5 -0.397805 1.341951 -0.77937 1.06066 -1.06066 
C 0.77937 -1.341951 0.397805 -1.5 0 -1.5 
C -0.397805 -1.5 -0.77937 -1.341951 -1.06066 -1.06066 
C -1.341951 -0.77937 -1.5 -0.397805 -1.5 0 
C -1.5 0.397805 -1.341951 0.77937 -1.06066 1.06066 
C -0.77937 1.341951 -0.397805 1.5 0 1.5 
z
" id="md5af9cbead" style="stroke:#000080;"/>
    </defs>
    <g>
     <use style="fill:#000080;stroke:#000080;" x="196.324656" xlink:href="#md5af9cbead" y="30.334099"/>
     <use style="fill:#000080;stroke:#000080;" x="196.324656" xlink:href="#md5af9cbead" y="30.334099"/>
    </g>
   </g>
   <g id="line2d_30">
    <path d="M 85.66744 298.944 
L 85.66744 295.66827 
L 121.931406 295.66827 
L 121.931406 294.357977 
L 125.110962 294.357977 
L 125.110962 293.702831 
L 128.411207 293.702831 
L 128.411207 293.047685 
L 129.574256 293.047685 
L 129.574256 292.392539 
L 136.456742 292.392539 
L 136.456742 291.737393 
L 136.831795 291.737393 
L 136.831795 291.082247 
L 140.195896 291.082247 
L 140.195896 289.771955 
L 140.79731 289.771955 
L 140.79731 289.116809 
L 141.235139 289.116809 
L 141.235139 287.806516 
L 142.351634 287.806516 
L 142.351634 286.496224 
L 143.273169 286.496224 
L 143.273169 285.841078 
L 144.269971 285.841078 
L 144.269971 285.185932 
L 145.097753 285.185932 
L 145.097753 284.530786 
L 145.212864 284.530786 
L 145.212864 283.87564 
L 145.327221 283.87564 
L 145.327221 282.565348 
L 146.216039 282.565348 
L 146.216039 281.910201 
L 146.854132 281.910201 
L 146.854132 281.255055 
L 147.769524 281.255055 
L 147.86833 279.944763 
L 147.96658 279.944763 
L 147.96658 279.289617 
L 148.354135 279.289617 
L 148.354135 278.634471 
L 148.733265 278.634471 
L 148.733265 277.979325 
L 148.919783 277.979325 
L 148.919783 277.324179 
L 149.195872 277.324179 
L 149.195872 276.669033 
L 150.429467 276.669033 
L 150.429467 276.013887 
L 150.932558 276.013887 
L 150.932558 275.35874 
L 151.097081 275.35874 
L 151.178764 274.048448 
L 151.421542 274.048448 
L 151.421542 273.393302 
L 151.660987 273.393302 
L 151.660987 272.738156 
L 152.360205 272.738156 
L 152.436193 271.427864 
L 152.587184 271.427864 
L 152.587184 270.772718 
L 152.811246 270.772718 
L 152.811246 270.117572 
L 153.032466 270.117572 
L 153.032466 269.462426 
L 153.395042 269.462426 
L 153.395042 268.807279 
L 153.609024 268.807279 
L 153.609024 267.496987 
L 153.820412 267.496987 
L 153.820412 265.531549 
L 154.029268 265.531549 
L 154.029268 264.876403 
L 154.57429 264.876403 
L 154.57429 263.566111 
L 154.77436 263.566111 
L 154.77436 262.910965 
L 155.102793 262.910965 
L 155.102793 262.255818 
L 155.232454 262.255818 
L 155.232454 261.600672 
L 155.804285 261.600672 
L 155.86668 259.635234 
L 155.928852 259.635234 
L 155.928852 258.980088 
L 156.052535 258.980088 
L 156.052535 258.324942 
L 156.297301 258.324942 
L 156.357959 256.359504 
L 156.953214 256.359504 
L 156.953214 255.704357 
L 157.243392 255.704357 
L 157.243392 254.394065 
L 158.412011 254.394065 
L 158.412011 253.738919 
L 158.625992 253.738919 
L 158.625992 252.428627 
L 158.83738 252.428627 
L 158.83738 251.118335 
L 159.046236 251.118335 
L 159.046236 249.808043 
L 159.201253 249.808043 
L 159.201253 249.152896 
L 159.456591 249.152896 
L 159.507213 247.842604 
L 159.658204 247.842604 
L 159.658204 246.532312 
L 159.807898 246.532312 
L 159.807898 245.22202 
L 160.152267 245.22202 
L 160.152267 244.566874 
L 160.297798 244.566874 
L 160.346039 242.601435 
L 160.442124 242.601435 
L 160.537682 240.635997 
L 160.86807 240.635997 
L 160.86807 239.980851 
L 161.007772 239.980851 
L 161.007772 239.325705 
L 161.420284 239.325705 
L 161.420284 238.670559 
L 161.734513 238.670559 
L 161.778945 237.360267 
L 162.130378 237.360267 
L 162.130378 236.705121 
L 162.602318 236.705121 
L 162.68677 232.774244 
L 163.020547 232.774244 
L 163.020547 232.119098 
L 163.144084 232.119098 
L 163.225959 230.15366 
L 163.348054 230.15366 
L 163.348054 229.498513 
L 163.629664 229.498513 
L 163.629664 228.843367 
L 163.788565 228.843367 
L 163.788565 228.188221 
L 164.218222 228.188221 
L 164.218222 226.222783 
L 164.486229 226.222783 
L 164.486229 223.602199 
L 164.712717 223.602199 
L 164.712717 222.947052 
L 164.86209 222.947052 
L 164.9363 220.981614 
L 165.230021 220.981614 
L 165.230021 220.326468 
L 165.411116 220.326468 
L 165.518877 217.705884 
L 165.55465 217.705884 
L 165.661531 215.085299 
L 165.978297 215.085299 
L 165.978297 214.430153 
L 166.117256 214.430153 
L 166.117256 213.775007 
L 166.391896 213.775007 
L 166.391896 213.119861 
L 166.527611 213.119861 
L 166.527611 212.464715 
L 166.829163 212.464715 
L 166.928532 210.499277 
L 166.96153 210.499277 
L 167.06015 206.5684 
L 167.190782 206.5684 
L 167.288118 203.292669 
L 167.545055 203.292669 
L 167.545055 202.637523 
L 167.672117 202.637523 
L 167.672117 201.327231 
L 167.923499 201.327231 
L 167.923499 200.016939 
L 168.047843 200.016939 
L 168.047843 199.361793 
L 168.415645 199.361793 
L 168.415645 198.706647 
L 168.596677 198.706647 
L 168.596677 198.051501 
L 168.746115 198.051501 
L 168.805533 196.741208 
L 169.011918 196.741208 
L 169.011918 195.430916 
L 169.215888 195.430916 
L 169.215888 194.120624 
L 169.360135 194.120624 
L 169.360135 193.465478 
L 169.474679 193.465478 
L 169.474679 192.155186 
L 169.673338 192.155186 
L 169.729685 190.844894 
L 170.036379 190.844894 
L 170.119095 187.569163 
L 170.201421 187.569163 
L 170.256089 186.258871 
L 170.419074 186.258871 
L 170.526891 183.638286 
L 170.58055 183.638286 
L 170.58055 182.327994 
L 170.713981 182.327994 
L 170.793552 179.70741 
L 170.925369 179.70741 
L 171.003983 176.431679 
L 171.134225 176.431679 
L 171.134225 175.776533 
L 171.314944 175.776533 
L 171.340609 169.880218 
L 171.442893 169.880218 
L 171.49381 168.569926 
L 172.093501 168.569926 
L 172.093501 165.949342 
L 172.240256 165.949342 
L 172.337411 163.328757 
L 172.361615 163.328757 
L 172.361615 162.673611 
L 172.506141 162.673611 
L 172.506141 162.018465 
L 172.62567 162.018465 
L 172.649478 158.742735 
L 172.744386 158.742735 
L 172.791647 157.432442 
L 172.885786 157.432442 
L 172.885786 156.777296 
L 173.09576 156.777296 
L 173.09576 156.12215 
L 173.326137 156.12215 
L 173.326137 155.467004 
L 173.462916 155.467004 
L 173.508272 152.84642 
L 173.733298 152.84642 
L 173.822502 150.880981 
L 173.844732 150.880981 
L 173.911252 149.570689 
L 173.977519 149.570689 
L 173.977519 148.260397 
L 174.261802 148.260397 
L 174.283479 144.32952 
L 174.520166 144.32952 
L 174.541525 139.743498 
L 174.647927 139.743498 
L 174.647927 139.088352 
L 174.900675 139.088352 
L 174.900675 137.778059 
L 175.025688 137.778059 
L 175.025688 137.122913 
L 175.170413 137.122913 
L 175.170413 136.467767 
L 175.456309 136.467767 
L 175.456309 135.157475 
L 175.6777 135.157475 
L 175.757513 133.192037 
L 176.267585 133.192037 
L 176.325491 131.881745 
L 176.421575 131.881745 
L 176.421575 131.226598 
L 176.55521 131.226598 
L 176.631116 128.606014 
L 176.819447 128.606014 
L 176.894213 125.98543 
L 176.950079 125.98543 
L 177.005766 124.019991 
L 177.079739 124.019991 
L 177.079739 123.364845 
L 177.263313 123.364845 
L 177.372536 117.46853 
L 177.444973 117.46853 
L 177.463036 115.503092 
L 177.838089 115.503092 
L 177.838089 114.1928 
L 177.978871 114.1928 
L 177.978871 112.882508 
L 178.170609 112.882508 
L 178.187935 111.572215 
L 178.291535 111.572215 
L 178.291535 110.917069 
L 178.8005 110.917069 
L 178.8005 106.986193 
L 179.01652 106.986193 
L 179.033027 103.710462 
L 179.164521 103.710462 
L 179.262495 102.40017 
L 179.601132 102.40017 
L 179.601132 101.089878 
L 179.917643 101.089878 
L 179.917643 100.434732 
L 180.05822 100.434732 
L 180.120337 98.469293 
L 180.427645 98.469293 
L 180.427645 97.814147 
L 180.834104 97.814147 
L 180.893522 95.848709 
L 181.318355 95.848709 
L 181.419369 94.538417 
L 181.47683 94.538417 
L 181.562667 91.262686 
L 182.92119 91.262686 
L 182.92119 89.952394 
L 183.170233 89.952394 
L 183.170233 89.297248 
L 183.467024 89.297248 
L 183.467024 88.642102 
L 183.607202 88.642102 
L 183.607202 87.33181 
L 183.821648 87.33181 
L 183.821648 86.021518 
L 183.983875 86.021518 
L 183.983875 85.366371 
L 184.218294 85.366371 
L 184.218294 84.711225 
L 184.618101 84.711225 
L 184.725567 82.745787 
L 185.356816 82.745787 
L 185.459838 81.435495 
L 185.494044 81.435495 
L 185.494044 80.780349 
L 185.720384 80.780349 
L 185.720384 79.470057 
L 186.021357 79.470057 
L 186.021357 78.81491 
L 186.251908 78.81491 
L 186.34979 76.849472 
L 186.757118 76.849472 
L 186.757118 76.194326 
L 187.14479 76.194326 
L 187.217174 74.884034 
L 187.412143 74.884034 
L 187.412143 74.228888 
L 187.554422 74.228888 
L 187.554422 73.573742 
L 187.715618 73.573742 
L 187.815615 70.953157 
L 188.053292 70.953157 
L 188.053292 69.642865 
L 188.190455 69.642865 
L 188.190455 68.332573 
L 188.605122 68.332573 
L 188.605122 67.677427 
L 188.766378 67.677427 
L 188.822938 65.711988 
L 188.907435 65.711988 
L 188.96354 63.74655 
L 189.047361 63.74655 
L 189.047361 62.436258 
L 189.730627 62.436258 
L 189.730627 61.125966 
L 190.040549 61.125966 
L 190.040549 60.47082 
L 190.533779 60.47082 
L 190.584896 58.505381 
L 190.712036 58.505381 
L 190.75421 56.539943 
L 191.496419 56.539943 
L 191.512559 53.919359 
L 191.625123 53.919359 
L 191.625123 51.95392 
L 191.856005 51.95392 
L 191.856005 51.298774 
L 192.277944 51.298774 
L 192.277944 50.643628 
L 192.553669 50.643628 
L 192.584038 49.333336 
L 192.996333 49.333336 
L 192.996333 48.67819 
L 193.297461 48.67819 
L 193.399106 47.367898 
L 193.42081 47.367898 
L 193.464138 45.402459 
L 193.614942 45.402459 
L 193.614942 44.747313 
L 193.806936 44.747313 
L 193.806936 42.781875 
L 193.933767 42.781875 
L 193.97584 40.816437 
L 194.101454 40.816437 
L 194.101454 40.161291 
L 194.281313 40.161291 
L 194.281313 39.506144 
L 194.810022 39.506144 
L 194.810022 38.850998 
L 195.015778 38.850998 
L 195.022375 35.575268 
L 195.355558 35.575268 
L 195.400796 34.264976 
L 195.567803 34.264976 
L 195.567803 33.60983 
L 195.758537 33.60983 
L 195.758537 32.954683 
L 195.997177 32.954683 
L 195.997177 32.299537 
L 196.263336 32.299537 
L 196.324656 30.334099 
L 338.688 30.334099 
L 338.688 30.334099 
" style="fill:none;stroke:#000080;stroke-linecap:square;stroke-width:1.5;"/>
   </g>
   <g id="line2d_31">
    <defs>
     <path d="M 0 6 
C 1.591219 6 3.117479 5.367802 4.242641 4.242641 
C 5.367802 3.117479 6 1.591219 6 0 
C 6 -1.591219 5.367802 -3.117479 4.242641 -4.242641 
C 3.117479 -5.367802 1.591219 -6 0 -6 
C -1.591219 -6 -3.117479 -5.367802 -4.242641 -4.242641 
C -5.367802 -3.117479 -6 -1.591219 -6 0 
C -6 1.591219 -5.367802 3.117479 -4.242641 4.242641 
C -3.117479 5.367802 -1.591219 6 0 6 
z
" id="mb73482638a" style="stroke:#000080;stroke-width:1.5;"/>
    </defs>
    <g>
     <use style="fill-opacity:0;stroke:#000080;stroke-width:1.5;" x="146.854132" xlink:href="#mb73482638a" y="281.255055"/>
     <use style="fill-opacity:0;stroke:#000080;stroke-width:1.5;" x="174.261802" xlink:href="#mb73482638a" y="148.260397"/>
     <use style="fill-opacity:0;stroke:#000080;stroke-width:1.5;" x="196.324656" xlink:href="#mb73482638a" y="30.989245"/>
     <use style="fill-opacity:0;stroke:#000080;stroke-width:1.5;" x="196.324656" xlink:href="#mb73482638a" y="30.334099"/>
     <use style="fill-opacity:0;stroke:#000080;stroke-width:1.5;" x="338.688" xlink:href="#mb73482638a" y="30.334099"/>
    </g>
   </g>
   <g id="line2d_32">
    <path style="fill:none;stroke:#000080;stroke-linecap:square;stroke-width:1.5;"/>
    <g/>
   </g>
   <g id="line2d_33">
    <defs>
     <path d="M 0 1.5 
C 0.397805 1.5 0.77937 1.341951 1.06066 1.06066 
C 1.341951 0.77937 1.5 0.397805 1.5 0 
C 1.5 -0.397805 1.341951 -0.77937 1.06066 -1.06066 
C 0.77937 -1.341951 0.397805 -1.5 0 -1.5 
C -0.397805 -1.5 -0.77937 -1.341951 -1.06066 -1.06066 
C -1.341951 -0.77937 -1.5 -0.397805 -1.5 0 
C -1.5 0.397805 -1.341951 0.77937 -1.06066 1.06066 
C -0.77937 1.341951 -0.397805 1.5 0 1.5 
z
" id="m82a2e63e21" style="stroke:#ff00ff;"/>
    </defs>
    <g>
     <use style="fill:#ff00ff;stroke:#ff00ff;" x="169.911564" xlink:href="#m82a2e63e21" y="239.980851"/>
     <use style="fill:#ff00ff;stroke:#ff00ff;" x="169.911564" xlink:href="#m82a2e63e21" y="239.980851"/>
    </g>
   </g>
   <g id="line2d_34">
    <path d="M 98.606294 298.944 
L 98.606294 295.66827 
L 105.951954 295.66827 
L 105.951954 294.357977 
L 108.006005 294.357977 
L 108.006005 293.702831 
L 108.948899 293.702831 
L 108.948899 293.047685 
L 111.104637 293.047685 
L 111.104637 291.737393 
L 111.897469 291.737393 
L 111.897469 291.082247 
L 112.655818 291.082247 
L 112.655818 289.771955 
L 113.382559 289.771955 
L 113.382559 289.116809 
L 114.751048 289.116809 
L 114.751048 288.461662 
L 116.323218 288.461662 
L 116.323218 287.806516 
L 117.486268 287.806516 
L 117.486268 287.15137 
L 118.039942 287.15137 
L 118.039942 286.496224 
L 118.310324 286.496224 
L 118.310324 285.841078 
L 119.850084 285.841078 
L 119.850084 284.530786 
L 120.33454 284.530786 
L 120.33454 283.87564 
L 121.264855 283.87564 
L 121.264855 282.565348 
L 121.931406 282.565348 
L 121.931406 281.910201 
L 123.394238 281.910201 
L 123.394238 281.255055 
L 123.593547 281.255055 
L 123.593547 280.599909 
L 123.985457 280.599909 
L 123.985457 279.944763 
L 124.92835 279.944763 
L 124.92835 279.289617 
L 125.470548 279.289617 
L 125.470548 278.634471 
L 125.822869 278.634471 
L 125.822869 277.979325 
L 125.996395 277.979325 
L 125.996395 277.324179 
L 126.338353 277.324179 
L 126.338353 276.669033 
L 127.48501 276.669033 
L 127.48501 276.013887 
L 128.560901 276.013887 
L 128.560901 274.048448 
L 128.856489 274.048448 
L 128.856489 273.393302 
L 129.574256 273.393302 
L 129.574256 272.738156 
L 130.127931 272.738156 
L 130.127931 272.08301 
L 130.796184 272.08301 
L 130.796184 271.427864 
L 131.690703 271.427864 
L 131.690703 270.772718 
L 132.30267 270.772718 
L 132.30267 270.117572 
L 132.541568 270.117572 
L 132.541568 268.807279 
L 132.659801 268.807279 
L 132.659801 268.152133 
L 134.343353 268.152133 
L 134.343353 267.496987 
L 134.661403 267.496987 
L 134.661403 266.841841 
L 135.582166 266.841841 
L 135.582166 266.186695 
L 135.780341 266.186695 
L 135.780341 265.531549 
L 137.735587 265.531549 
L 137.735587 264.876403 
L 138.426341 264.876403 
L 138.510793 263.566111 
L 138.594838 263.566111 
L 138.594838 262.910965 
L 138.761723 262.910965 
L 138.761723 261.600672 
L 138.927025 261.600672 
L 138.927025 260.945526 
L 139.493548 260.945526 
L 139.493548 260.29038 
L 140.042245 260.29038 
L 140.042245 259.635234 
L 140.348205 259.635234 
L 140.348205 258.980088 
L 141.017599 258.980088 
L 141.017599 258.324942 
L 141.235139 258.324942 
L 141.235139 257.669796 
L 141.662245 257.669796 
L 141.662245 257.01465 
L 142.884173 257.01465 
L 142.884173 256.359504 
L 143.079756 256.359504 
L 143.079756 255.704357 
L 143.902815 255.704357 
L 143.964547 254.394065 
L 145.039911 254.394065 
L 145.039911 253.738919 
L 145.155404 253.738919 
L 145.155404 253.083773 
L 146.484754 253.083773 
L 146.484754 252.428627 
L 147.419225 252.428627 
L 147.419225 251.773481 
L 148.449693 251.773481 
L 148.449693 251.118335 
L 149.646525 251.118335 
L 149.646525 250.463189 
L 150.598782 250.463189 
L 150.598782 249.808043 
L 151.178764 249.808043 
L 151.178764 249.152896 
L 152.511852 249.152896 
L 152.511852 248.49775 
L 153.105587 248.49775 
L 153.105587 247.842604 
L 153.466662 247.842604 
L 153.466662 247.187458 
L 154.235652 247.187458 
L 154.235652 246.532312 
L 154.439623 246.532312 
L 154.439623 245.877166 
L 155.86668 245.877166 
L 155.86668 245.22202 
L 156.266892 245.22202 
L 156.266892 244.566874 
L 157.781772 244.566874 
L 157.781772 243.911728 
L 157.893028 243.911728 
L 157.893028 243.256582 
L 158.276927 243.256582 
L 158.276927 242.601435 
L 158.67908 242.601435 
L 158.67908 241.946289 
L 158.915995 241.946289 
L 158.915995 240.635997 
L 169.911564 240.635997 
L 169.911564 239.980851 
L 338.688 239.980851 
L 338.688 239.980851 
" style="fill:none;stroke:#ff00ff;stroke-linecap:square;stroke-width:1.5;"/>
   </g>
   <g id="line2d_35">
    <defs>
     <path d="M -0 8.485281 
L 5.091169 0 
L 0 -8.485281 
L -5.091169 -0 
z
" id="m66aaba9011" style="stroke:#ff00ff;stroke-linejoin:miter;stroke-width:1.5;"/>
    </defs>
    <g>
     <use style="fill-opacity:0;stroke:#ff00ff;stroke-linejoin:miter;stroke-width:1.5;" x="169.911564" xlink:href="#m66aaba9011" y="240.635997"/>
     <use style="fill-opacity:0;stroke:#ff00ff;stroke-linejoin:miter;stroke-width:1.5;" x="169.911564" xlink:href="#m66aaba9011" y="239.980851"/>
     <use style="fill-opacity:0;stroke:#ff00ff;stroke-linejoin:miter;stroke-width:1.5;" x="169.911564" xlink:href="#m66aaba9011" y="239.980851"/>
     <use style="fill-opacity:0;stroke:#ff00ff;stroke-linejoin:miter;stroke-width:1.5;" x="169.911564" xlink:href="#m66aaba9011" y="239.980851"/>
     <use style="fill-opacity:0;stroke:#ff00ff;stroke-linejoin:miter;stroke-width:1.5;" x="338.688" xlink:href="#m66aaba9011" y="239.980851"/>
    </g>
   </g>
   <g id="line2d_36">
    <path style="fill:none;stroke:#ff00ff;stroke-linecap:square;stroke-width:1.5;"/>
    <g/>
   </g>
   <g id="line2d_37">
    <path clip-path="url(#p65eba40230)" d="M 87.329581 298.944 
" style="fill:none;stroke:#ff00ff;stroke-linecap:square;stroke-width:1.5;"/>
    <defs>
     <path d="M -12 12 
L 12 -12 
M -12 -12 
L 12 12 
" id="m4d5a94b6a0" style="stroke:#ff00ff;"/>
    </defs>
    <g clip-path="url(#p65eba40230)">
     <use style="fill:#ff00ff;stroke:#ff00ff;" x="87.329581" xlink:href="#m4d5a94b6a0" y="298.944"/>
    </g>
   </g>
   <g id="line2d_38">
    <defs>
     <path d="M 0 1.5 
C 0.397805 1.5 0.77937 1.341951 1.06066 1.06066 
C 1.341951 0.77937 1.5 0.397805 1.5 0 
C 1.5 -0.397805 1.341951 -0.77937 1.06066 -1.06066 
C 0.77937 -1.341951 0.397805 -1.5 0 -1.5 
C -0.397805 -1.5 -0.77937 -1.341951 -1.06066 -1.06066 
C -1.341951 -0.77937 -1.5 -0.397805 -1.5 0 
C -1.5 0.397805 -1.341951 0.77937 -1.06066 1.06066 
C -0.77937 1.341951 -0.397805 1.5 0 1.5 
z
" id="m82f020883a" style="stroke:#ff7500;"/>
    </defs>
    <g>
     <use style="fill:#ff7500;stroke:#ff7500;" x="211.301328" xlink:href="#m82f020883a" y="49.988482"/>
     <use style="fill:#ff7500;stroke:#ff7500;" x="211.301328" xlink:href="#m82f020883a" y="49.988482"/>
    </g>
   </g>
   <g id="line2d_39">
    <path d="M 85.66744 298.944 
L 85.66744 298.288854 
L 91.535274 298.288854 
L 91.535274 296.978562 
L 93.863965 296.978562 
L 93.863965 295.013123 
L 97.755429 295.013123 
L 97.755429 293.702831 
L 99.41757 293.702831 
L 99.41757 290.427101 
L 100.934985 290.427101 
L 100.934985 288.461662 
L 102.330873 288.461662 
L 102.330873 285.841078 
L 103.623262 285.841078 
L 103.623262 283.87564 
L 104.826449 283.87564 
L 104.826449 279.289617 
L 105.951954 279.289617 
L 105.951954 278.634471 
L 107.009204 278.634471 
L 107.009204 276.013887 
L 108.006005 276.013887 
L 108.006005 275.35874 
L 108.948899 275.35874 
L 108.948899 272.738156 
L 110.694282 272.738156 
L 110.694282 271.427864 
L 111.505558 271.427864 
L 111.505558 266.841841 
L 112.280765 266.841841 
L 112.280765 265.531549 
L 113.73488 265.531549 
L 113.73488 257.669796 
L 114.418861 257.669796 
L 114.418861 252.428627 
L 115.077025 252.428627 
L 115.077025 250.463189 
L 115.711251 250.463189 
L 115.711251 248.49775 
L 116.323218 248.49775 
L 116.323218 243.256582 
L 116.914437 243.256582 
L 116.914437 241.291143 
L 117.486268 241.291143 
L 117.486268 237.360267 
L 118.039942 237.360267 
L 118.039942 236.049974 
L 118.576578 236.049974 
L 118.576578 230.808806 
L 119.097192 230.808806 
L 119.097192 226.222783 
L 119.602714 226.222783 
L 119.602714 223.602199 
L 120.093994 223.602199 
L 120.093994 219.671322 
L 120.571812 219.671322 
L 120.571812 218.36103 
L 121.036887 218.36103 
L 121.036887 215.085299 
L 121.489881 215.085299 
L 121.489881 211.154423 
L 121.931406 211.154423 
L 121.931406 209.84413 
L 122.362027 209.84413 
L 122.362027 207.223546 
L 122.782271 207.223546 
L 122.782271 205.258108 
L 123.192626 205.258108 
L 123.192626 200.672085 
L 123.593547 200.672085 
L 123.593547 200.016939 
L 123.985457 200.016939 
L 123.985457 195.430916 
L 124.368753 195.430916 
L 124.368753 194.77577 
L 124.743806 194.77577 
L 124.743806 194.120624 
L 125.110962 194.120624 
L 125.110962 190.844894 
L 125.647598 190.844894 
L 125.647598 190.189747 
L 126.168212 190.189747 
L 126.168212 183.638286 
L 126.50685 183.638286 
L 126.50685 181.017702 
L 127.165014 181.017702 
L 127.165014 177.086825 
L 127.642832 177.086825 
L 127.642832 176.431679 
L 127.799239 176.431679 
L 127.799239 175.121387 
L 128.107907 175.121387 
L 128.107907 173.155949 
L 128.411207 173.155949 
L 128.411207 170.535364 
L 128.709321 170.535364 
L 128.709321 169.225072 
L 129.290685 169.225072 
L 129.290685 165.949342 
L 129.574256 165.949342 
L 129.574256 164.63905 
L 130.398313 164.63905 
L 130.398313 160.053027 
L 131.185181 160.053027 
L 131.185181 156.777296 
L 131.439773 156.777296 
L 131.439773 154.811858 
L 131.938072 154.811858 
L 131.938072 154.156712 
L 132.659801 154.156712 
L 132.659801 153.501566 
L 133.124876 153.501566 
L 133.124876 152.84642 
L 133.352844 152.84642 
L 133.352844 148.915543 
L 134.019394 148.915543 
L 134.019394 146.950105 
L 134.661403 146.950105 
L 134.661403 146.294959 
L 134.870259 146.294959 
L 134.870259 145.639813 
L 135.280614 145.639813 
L 135.280614 141.708936 
L 135.482227 141.708936 
L 135.482227 141.05379 
L 135.878591 141.05379 
L 135.878591 140.398644 
L 136.266147 140.398644 
L 136.266147 134.502329 
L 136.456742 134.502329 
L 136.456742 133.847183 
L 136.831795 133.847183 
L 136.831795 132.536891 
L 137.016339 132.536891 
L 137.016339 131.226598 
L 137.558536 131.226598 
L 137.647286 127.950868 
L 137.735587 127.950868 
L 137.735587 127.295722 
L 137.910857 127.295722 
L 137.910857 126.640576 
L 138.256201 126.640576 
L 138.256201 120.744261 
L 138.761723 120.744261 
L 138.761723 118.778823 
L 138.927025 118.778823 
L 138.927025 118.123676 
L 139.413734 118.123676 
L 139.413734 117.46853 
L 139.572998 117.46853 
L 139.572998 116.813384 
L 139.730821 116.813384 
L 139.730821 115.503092 
L 139.887228 115.503092 
L 139.887228 114.847946 
L 140.723258 114.847946 
L 140.723258 114.1928 
L 140.944478 114.1928 
L 140.944478 113.537654 
L 141.378673 113.537654 
L 141.378673 110.917069 
L 141.591783 110.917069 
L 141.591783 109.606777 
L 141.941279 109.606777 
L 141.941279 108.296485 
L 142.486301 108.296485 
L 142.486301 105.675901 
L 143.273169 105.675901 
L 143.273169 105.020754 
L 143.653678 105.020754 
L 143.653678 104.365608 
L 143.778691 104.365608 
L 143.778691 103.710462 
L 144.026061 103.710462 
L 144.026061 103.055316 
L 144.390658 103.055316 
L 144.390658 102.40017 
L 144.570138 102.40017 
L 144.570138 101.745024 
L 145.097753 101.745024 
L 145.097753 99.779586 
L 145.212864 99.779586 
L 145.212864 99.12444 
L 145.440832 99.12444 
L 145.440832 98.469293 
L 146.538004 98.469293 
L 146.644018 97.159001 
L 146.958248 97.159001 
L 146.958248 93.228125 
L 147.266916 93.228125 
L 147.266916 91.262686 
L 147.4697 91.262686 
L 147.4697 90.60754 
L 148.161434 90.60754 
L 148.161434 89.297248 
L 149.512548 89.297248 
L 149.512548 88.642102 
L 149.735275 88.642102 
L 149.735275 87.986956 
L 150.556607 87.986956 
L 150.556607 87.33181 
L 150.808139 87.33181 
L 150.808139 86.021518 
L 151.015013 86.021518 
L 151.097081 83.400933 
L 152.436193 83.400933 
L 152.436193 82.745787 
L 152.662192 82.745787 
L 152.699575 81.435495 
L 153.214697 81.435495 
L 153.214697 80.780349 
L 153.750233 80.780349 
L 153.750233 80.125203 
L 153.959927 80.125203 
L 153.959927 79.470057 
L 154.132765 79.470057 
L 154.132765 78.81491 
L 154.57429 78.81491 
L 154.57429 78.159764 
L 155.296925 78.159764 
L 155.296925 77.504618 
L 156.835778 77.504618 
L 156.835778 76.849472 
L 159.354904 76.849472 
L 159.431225 75.53918 
L 159.956318 75.53918 
L 159.956318 74.884034 
L 160.321935 74.884034 
L 160.321935 74.228888 
L 160.914762 74.228888 
L 160.961329 72.263449 
L 162.346481 72.263449 
L 162.346481 71.608303 
L 162.812686 71.608303 
L 162.812686 70.953157 
L 163.185069 70.953157 
L 163.266752 69.642865 
L 163.307451 69.642865 
L 163.327764 68.332573 
L 164.082658 68.332573 
L 164.179597 67.022281 
L 165.714726 67.022281 
L 165.714726 66.367135 
L 167.0929 66.367135 
L 167.0929 65.711988 
L 167.640438 65.711988 
L 167.640438 65.056842 
L 169.53167 65.056842 
L 169.53167 64.401696 
L 169.883706 64.401696 
L 169.883706 63.74655 
L 170.378471 63.74655 
L 170.432588 62.436258 
L 170.607318 62.436258 
L 170.607318 61.781112 
L 171.108254 61.781112 
L 171.108254 61.125966 
L 172.385786 61.125966 
L 172.385786 60.47082 
L 172.554051 60.47082 
L 172.554051 59.815674 
L 174.043535 59.815674 
L 174.043535 59.160527 
L 174.174823 59.160527 
L 174.174823 58.505381 
L 177.190115 58.505381 
L 177.190115 57.850235 
L 177.961335 57.850235 
L 177.961335 57.195089 
L 178.101129 57.195089 
L 178.101129 56.539943 
L 179.213577 56.539943 
L 179.213577 55.884797 
L 180.243911 55.884797 
L 180.243911 55.229651 
L 182.742052 55.229651 
L 182.742052 54.574505 
L 190.42251 54.574505 
L 190.42251 53.919359 
L 191.645148 53.919359 
L 191.645148 53.264213 
L 193.173234 53.264213 
L 193.173234 52.609066 
L 194.699509 52.609066 
L 194.699509 51.95392 
L 199.237959 51.95392 
L 199.237959 51.298774 
L 201.762688 51.298774 
L 201.762688 50.643628 
L 211.301328 50.643628 
L 211.301328 49.988482 
L 338.688 49.988482 
L 338.688 49.988482 
" style="fill:none;stroke:#ff7500;stroke-linecap:square;stroke-width:1.5;"/>
   </g>
   <g id="line2d_40">
    <defs>
     <path d="M 0 -6 
L -1.347084 -1.854102 
L -5.706339 -1.854102 
L -2.179628 0.708204 
L -3.526712 4.854102 
L -0 2.291796 
L 3.526712 4.854102 
L 2.179628 0.708204 
L 5.706339 -1.854102 
L 1.347084 -1.854102 
z
" id="m0883be295a" style="stroke:#ff7500;stroke-linejoin:bevel;stroke-width:1.5;"/>
    </defs>
    <g>
     <use style="fill-opacity:0;stroke:#ff7500;stroke-linejoin:bevel;stroke-width:1.5;" x="129.574256" xlink:href="#m0883be295a" y="164.63905"/>
     <use style="fill-opacity:0;stroke:#ff7500;stroke-linejoin:bevel;stroke-width:1.5;" x="199.237959" xlink:href="#m0883be295a" y="51.95392"/>
     <use style="fill-opacity:0;stroke:#ff7500;stroke-linejoin:bevel;stroke-width:1.5;" x="211.301328" xlink:href="#m0883be295a" y="49.988482"/>
     <use style="fill-opacity:0;stroke:#ff7500;stroke-linejoin:bevel;stroke-width:1.5;" x="211.301328" xlink:href="#m0883be295a" y="49.988482"/>
     <use style="fill-opacity:0;stroke:#ff7500;stroke-linejoin:bevel;stroke-width:1.5;" x="338.688" xlink:href="#m0883be295a" y="49.988482"/>
    </g>
   </g>
   <g id="line2d_41">
    <path style="fill:none;stroke:#ff7500;stroke-linecap:square;stroke-width:1.5;"/>
    <g/>
   </g>
   <g id="line2d_42">
    <path clip-path="url(#p65eba40230)" d="M 131.938072 154.156712 
" style="fill:none;stroke:#ff7500;stroke-linecap:square;stroke-width:1.5;"/>
    <defs>
     <path d="M -12 12 
L 12 -12 
M -12 -12 
L 12 12 
" id="m4b051266b8" style="stroke:#ff7500;"/>
    </defs>
    <g clip-path="url(#p65eba40230)">
     <use style="fill:#ff7500;stroke:#ff7500;" x="131.938072" xlink:href="#m4b051266b8" y="154.156712"/>
    </g>
   </g>
   <g id="line2d_43">
    <path clip-path="url(#p65eba40230)" d="M 57.6 298.944 
L 57.6 298.944 
L 57.6 298.944 
L 57.6 298.944 
L 338.688 298.944 
" style="fill:none;stroke:#6495ed;stroke-linecap:square;stroke-width:1.5;"/>
   </g>
   <g id="line2d_44">
    <defs>
     <path d="M -0 6 
L 6 -6 
L -6 -6 
z
" id="mbe1ac38b5d" style="stroke:#6495ed;stroke-linejoin:miter;stroke-width:1.5;"/>
    </defs>
    <g clip-path="url(#p65eba40230)">
     <use style="fill-opacity:0;stroke:#6495ed;stroke-linejoin:miter;stroke-width:1.5;" x="57.6" xlink:href="#mbe1ac38b5d" y="298.944"/>
    </g>
   </g>
   <g id="line2d_45">
    <path clip-path="url(#p65eba40230)" style="fill:none;stroke:#6495ed;stroke-linecap:square;stroke-width:1.5;"/>
    <g clip-path="url(#p65eba40230)">
     <use style="fill-opacity:0;stroke:#6495ed;stroke-linejoin:miter;stroke-width:1.5;" x="-1" xlink:href="#mbe1ac38b5d" y="567.553901"/>
     <use style="fill-opacity:0;stroke:#6495ed;stroke-linejoin:miter;stroke-width:1.5;" x="338.688" xlink:href="#mbe1ac38b5d" y="567.553901"/>
    </g>
   </g>
   <g id="line2d_46">
    <defs>
     <path d="M 0 1.5 
C 0.397805 1.5 0.77937 1.341951 1.06066 1.06066 
C 1.341951 0.77937 1.5 0.397805 1.5 0 
C 1.5 -0.397805 1.341951 -0.77937 1.06066 -1.06066 
C 0.77937 -1.341951 0.397805 -1.5 0 -1.5 
C -0.397805 -1.5 -0.77937 -1.341951 -1.06066 -1.06066 
C -1.341951 -0.77937 -1.5 -0.397805 -1.5 0 
C -1.5 0.397805 -1.341951 0.77937 -1.06066 1.06066 
C -0.77937 1.341951 -0.397805 1.5 0 1.5 
z
" id="mc9fdfb78a8" style="stroke:#ff0000;"/>
    </defs>
    <g>
     <use style="fill:#ff0000;stroke:#ff0000;" x="181.929824" xlink:href="#mc9fdfb78a8" y="200.672085"/>
     <use style="fill:#ff0000;stroke:#ff0000;" x="181.929824" xlink:href="#mc9fdfb78a8" y="200.672085"/>
    </g>
   </g>
   <g id="line2d_47">
    <path d="M 97.755429 298.944 
L 97.755429 297.633708 
L 105.951954 297.633708 
L 105.951954 295.013123 
L 108.948899 295.013123 
L 108.948899 288.461662 
L 115.077025 288.461662 
L 115.077025 287.806516 
L 119.351785 287.806516 
L 119.351785 287.15137 
L 119.602714 287.15137 
L 119.602714 286.496224 
L 120.8059 286.496224 
L 120.8059 285.841078 
L 121.036887 285.841078 
L 121.036887 284.530786 
L 121.489881 284.530786 
L 121.489881 283.220494 
L 122.362027 283.220494 
L 122.362027 281.910201 
L 123.593547 281.910201 
L 123.593547 279.944763 
L 124.743806 279.944763 
L 124.743806 279.289617 
L 125.110962 279.289617 
L 125.110962 278.634471 
L 128.107907 278.634471 
L 128.107907 277.979325 
L 128.856489 277.979325 
L 128.856489 277.324179 
L 129.290685 277.324179 
L 129.290685 276.669033 
L 129.714332 276.669033 
L 129.714332 276.013887 
L 130.531948 276.013887 
L 130.531948 275.35874 
L 131.312942 275.35874 
L 131.312942 274.703594 
L 131.814826 274.703594 
L 131.814826 274.048448 
L 133.009765 274.048448 
L 133.009765 272.738156 
L 133.57787 272.738156 
L 133.57787 272.08301 
L 134.019394 272.08301 
L 134.019394 271.427864 
L 134.343353 271.427864 
L 134.343353 270.772718 
L 135.280614 270.772718 
L 135.280614 269.462426 
L 136.266147 269.462426 
L 136.266147 268.152133 
L 136.551264 268.152133 
L 136.551264 267.496987 
L 137.37967 267.496987 
L 137.37967 266.841841 
L 138.084384 266.841841 
L 138.084384 266.186695 
L 138.761723 266.186695 
L 138.761723 264.876403 
L 138.927025 264.876403 
L 138.927025 264.221257 
L 139.493548 264.221257 
L 139.572998 262.255818 
L 139.730821 262.255818 
L 139.730821 261.600672 
L 140.499195 261.600672 
L 140.499195 260.945526 
L 140.64889 260.945526 
L 140.64889 260.29038 
L 140.79731 260.29038 
L 140.79731 259.635234 
L 141.235139 259.635234 
L 141.235139 258.980088 
L 141.941279 258.980088 
L 141.941279 258.324942 
L 142.07914 258.324942 
L 142.07914 257.669796 
L 142.215919 257.669796 
L 142.215919 257.01465 
L 142.419098 257.01465 
L 142.486301 255.704357 
L 142.553247 255.704357 
L 142.619936 254.394065 
L 142.818488 254.394065 
L 142.818488 253.083773 
L 143.273169 253.083773 
L 143.273169 252.428627 
L 143.653678 252.428627 
L 143.653678 251.773481 
L 144.330419 251.773481 
L 144.390658 250.463189 
L 145.270136 250.463189 
L 145.270136 249.808043 
L 145.384119 249.808043 
L 145.384119 249.152896 
L 145.553708 249.152896 
L 145.553708 248.49775 
L 146.538004 248.49775 
L 146.538004 247.842604 
L 146.696785 247.842604 
L 146.696785 247.187458 
L 147.010073 247.187458 
L 147.010073 246.532312 
L 147.670154 246.532312 
L 147.670154 245.877166 
L 148.306159 245.877166 
L 148.306159 245.22202 
L 148.497276 245.22202 
L 148.497276 243.911728 
L 148.686322 243.911728 
L 148.780082 242.601435 
L 148.919783 242.601435 
L 148.919783 241.946289 
L 149.058374 241.946289 
L 149.058374 241.291143 
L 149.735275 241.291143 
L 149.779481 239.980851 
L 150.640855 239.980851 
L 150.640855 239.325705 
L 151.015013 239.325705 
L 151.015013 238.015413 
L 151.219462 238.015413 
L 151.300575 236.705121 
L 151.421542 236.705121 
L 151.421542 235.394828 
L 151.541675 235.394828 
L 151.541675 234.739682 
L 151.660987 234.739682 
L 151.700576 233.42939 
L 151.779487 233.42939 
L 151.779487 232.774244 
L 152.245598 232.774244 
L 152.245598 232.119098 
L 152.587184 232.119098 
L 152.587184 231.463952 
L 152.995791 231.463952 
L 152.995791 230.808806 
L 153.178403 230.808806 
L 153.178403 230.15366 
L 153.395042 230.15366 
L 153.395042 229.498513 
L 153.959927 229.498513 
L 153.959927 228.843367 
L 154.54072 228.843367 
L 154.54072 228.188221 
L 155.773004 228.188221 
L 155.83551 226.877929 
L 157.415209 226.877929 
L 157.443681 224.912491 
L 158.168101 224.912491 
L 158.168101 223.602199 
L 158.385078 223.602199 
L 158.492562 222.291906 
L 158.994256 222.291906 
L 158.994256 221.63676 
L 160.200913 221.63676 
L 160.200913 220.981614 
L 160.321935 220.981614 
L 160.321935 220.326468 
L 160.750792 220.326468 
L 160.750792 219.671322 
L 161.169354 219.671322 
L 161.169354 219.016176 
L 161.374928 219.016176 
L 161.374928 218.36103 
L 161.955547 218.36103 
L 161.955547 217.705884 
L 162.260361 217.705884 
L 162.260361 217.050738 
L 163.287113 217.050738 
L 163.287113 216.395591 
L 163.428979 216.395591 
L 163.428979 215.740445 
L 165.230021 215.740445 
L 165.230021 215.085299 
L 165.393091 215.085299 
L 165.393091 214.430153 
L 166.476842 214.430153 
L 166.476842 213.775007 
L 166.928532 213.775007 
L 166.928532 213.119861 
L 167.719528 213.119861 
L 167.719528 212.464715 
L 168.701418 212.464715 
L 168.701418 211.809569 
L 169.545889 211.809569 
L 169.545889 211.154423 
L 169.687442 211.154423 
L 169.687442 210.499277 
L 169.841835 210.499277 
L 169.841835 209.84413 
L 170.96472 209.84413 
L 170.96472 209.188984 
L 172.203683 209.188984 
L 172.203683 208.533838 
L 172.506141 208.533838 
L 172.566008 207.223546 
L 172.862299 207.223546 
L 172.862299 206.5684 
L 173.371849 206.5684 
L 173.371849 205.913254 
L 174.272644 205.913254 
L 174.272644 205.258108 
L 175.984964 205.258108 
L 175.984964 204.602962 
L 177.72286 204.602962 
L 177.72286 203.947816 
L 179.775924 203.947816 
L 179.775924 203.292669 
L 179.972447 203.292669 
L 179.972447 202.637523 
L 180.143574 202.637523 
L 180.143574 201.982377 
L 180.684666 201.982377 
L 180.684666 201.327231 
L 181.929824 201.327231 
L 181.929824 200.672085 
L 338.688 200.672085 
L 338.688 200.672085 
" style="fill:none;stroke:#ff0000;stroke-linecap:square;stroke-width:1.5;"/>
   </g>
   <g id="line2d_48">
    <defs>
     <path d="M 0 -6 
L -5.196152 -3 
L -5.196152 3 
L -0 6 
L 5.196152 3 
L 5.196152 -3 
z
" id="m10d97e4055" style="stroke:#ff0000;stroke-linejoin:miter;stroke-width:1.5;"/>
    </defs>
    <g>
     <use style="fill-opacity:0;stroke:#ff0000;stroke-linejoin:miter;stroke-width:1.5;" x="139.572998" xlink:href="#m10d97e4055" y="262.255818"/>
     <use style="fill-opacity:0;stroke:#ff0000;stroke-linejoin:miter;stroke-width:1.5;" x="181.929824" xlink:href="#m10d97e4055" y="201.327231"/>
     <use style="fill-opacity:0;stroke:#ff0000;stroke-linejoin:miter;stroke-width:1.5;" x="181.929824" xlink:href="#m10d97e4055" y="200.672085"/>
     <use style="fill-opacity:0;stroke:#ff0000;stroke-linejoin:miter;stroke-width:1.5;" x="181.929824" xlink:href="#m10d97e4055" y="200.672085"/>
     <use style="fill-opacity:0;stroke:#ff0000;stroke-linejoin:miter;stroke-width:1.5;" x="338.688" xlink:href="#m10d97e4055" y="200.672085"/>
    </g>
   </g>
   <g id="line2d_49">
    <path style="fill:none;stroke:#ff0000;stroke-linecap:square;stroke-width:1.5;"/>
    <g/>
   </g>
   <g id="line2d_50">
    <path clip-path="url(#p65eba40230)" d="M 108.948899 288.461662 
" style="fill:none;stroke:#ff0000;stroke-linecap:square;stroke-width:1.5;"/>
    <defs>
     <path d="M -12 12 
L 12 -12 
M -12 -12 
L 12 12 
" id="ma0c2dff025" style="stroke:#ff0000;"/>
    </defs>
    <g clip-path="url(#p65eba40230)">
     <use style="fill:#ff0000;stroke:#ff0000;" x="108.948899" xlink:href="#ma0c2dff025" y="288.461662"/>
    </g>
   </g>
   <g id="line2d_51">
    <path d="M 338.688 298.944 
L 369.60768 293.571802 
" style="fill:none;stroke:#6495ed;stroke-linecap:square;stroke-width:1.5;"/>
    <g>
     <use style="fill-opacity:0;stroke:#6495ed;stroke-linejoin:miter;stroke-width:1.5;" x="338.688" xlink:href="#mbe1ac38b5d" y="298.944"/>
     <use style="fill-opacity:0;stroke:#6495ed;stroke-linejoin:miter;stroke-width:1.5;" x="369.60768" xlink:href="#mbe1ac38b5d" y="293.571802"/>
    </g>
   </g>
   <g id="line2d_52">
    <path d="M 338.688 239.980851 
L 369.60768 229.105426 
" style="fill:none;stroke:#ff00ff;stroke-linecap:square;stroke-width:1.5;"/>
    <g>
     <use style="fill-opacity:0;stroke:#ff00ff;stroke-linejoin:miter;stroke-width:1.5;" x="338.688" xlink:href="#m66aaba9011" y="239.980851"/>
     <use style="fill-opacity:0;stroke:#ff00ff;stroke-linejoin:miter;stroke-width:1.5;" x="369.60768" xlink:href="#m66aaba9011" y="229.105426"/>
    </g>
   </g>
   <g id="line2d_53">
    <path d="M 338.688 200.672085 
L 369.60768 164.63905 
" style="fill:none;stroke:#ff0000;stroke-linecap:square;stroke-width:1.5;"/>
    <g>
     <use style="fill-opacity:0;stroke:#ff0000;stroke-linejoin:miter;stroke-width:1.5;" x="338.688" xlink:href="#m10d97e4055" y="200.672085"/>
     <use style="fill-opacity:0;stroke:#ff0000;stroke-linejoin:miter;stroke-width:1.5;" x="369.60768" xlink:href="#m10d97e4055" y="164.63905"/>
    </g>
   </g>
   <g id="line2d_54">
    <path d="M 338.688 49.988482 
L 369.60768 100.172673 
" style="fill:none;stroke:#ff7500;stroke-linecap:square;stroke-width:1.5;"/>
    <g>
     <use style="fill-opacity:0;stroke:#ff7500;stroke-linejoin:bevel;stroke-width:1.5;" x="338.688" xlink:href="#m0883be295a" y="49.988482"/>
     <use style="fill-opacity:0;stroke:#ff7500;stroke-linejoin:bevel;stroke-width:1.5;" x="369.60768" xlink:href="#m0883be295a" y="100.172673"/>
    </g>
   </g>
   <g id="line2d_55">
    <path d="M 338.688 30.334099 
L 369.60768 35.706297 
" style="fill:none;stroke:#000080;stroke-linecap:square;stroke-width:1.5;"/>
    <g>
     <use style="fill-opacity:0;stroke:#000080;stroke-width:1.5;" x="338.688" xlink:href="#mb73482638a" y="30.334099"/>
     <use style="fill-opacity:0;stroke:#000080;stroke-width:1.5;" x="369.60768" xlink:href="#mb73482638a" y="35.706297"/>
    </g>
   </g>
   <g id="line2d_56">
    <path d="M 338.688 298.944 
L 338.688 30.334099 
" style="fill:none;stroke:#000000;stroke-linecap:square;stroke-width:1.5;"/>
   </g>
   <g id="patch_3">
    <path d="M 57.6 298.944 
L 57.6 27.648 
" style="fill:none;stroke:#000000;stroke-linecap:square;stroke-linejoin:miter;stroke-width:0.8;"/>
   </g>
   <g id="patch_4">
    <path d="M 338.688 298.944 
L 338.688 27.648 
" style="fill:none;stroke:#000000;stroke-linecap:square;stroke-linejoin:miter;stroke-width:0.8;"/>
   </g>
   <g id="patch_5">
    <path d="M 57.6 298.944 
L 338.688 298.944 
" style="fill:none;stroke:#000000;stroke-linecap:square;stroke-linejoin:miter;stroke-width:0.8;"/>
   </g>
   <g id="patch_6">
    <path d="M 57.6 27.648 
L 338.688 27.648 
" style="fill:none;stroke:#000000;stroke-linecap:square;stroke-linejoin:miter;stroke-width:0.8;"/>
   </g>
   <g id="text_13">
    <!-- slsqp -->
    <g transform="translate(375.22944 298.262739)scale(0.17 -0.17)">
     <defs>
      <path d="M 14.796875 27.296875 
Q 14.796875 17.390625 18.875 11.75 
Q 22.953125 6.109375 30.078125 6.109375 
Q 37.203125 6.109375 41.296875 11.75 
Q 45.40625 17.390625 45.40625 27.296875 
Q 45.40625 37.203125 41.296875 42.84375 
Q 37.203125 48.484375 30.078125 48.484375 
Q 22.953125 48.484375 18.875 42.84375 
Q 14.796875 37.203125 14.796875 27.296875 
z
M 45.40625 8.203125 
Q 42.578125 3.328125 38.25 0.953125 
Q 33.9375 -1.421875 27.875 -1.421875 
Q 17.96875 -1.421875 11.734375 6.484375 
Q 5.515625 14.40625 5.515625 27.296875 
Q 5.515625 40.1875 11.734375 48.09375 
Q 17.96875 56 27.875 56 
Q 33.9375 56 38.25 53.625 
Q 42.578125 51.265625 45.40625 46.390625 
L 45.40625 54.6875 
L 54.390625 54.6875 
L 54.390625 -20.796875 
L 45.40625 -20.796875 
z
" id="DejaVuSans-113"/>
     </defs>
     <use xlink:href="#DejaVuSans-115"/>
     <use x="52.099609" xlink:href="#DejaVuSans-108"/>
     <use x="79.882812" xlink:href="#DejaVuSans-115"/>
     <use x="131.982422" xlink:href="#DejaVuSans-113"/>
     <use x="195.458984" xlink:href="#DejaVuSans-112"/>
    </g>
   </g>
   <g id="text_14">
    <!-- cobyla -->
    <g transform="translate(375.22944 233.796363)scale(0.17 -0.17)">
     <defs>
      <path d="M 48.6875 27.296875 
Q 48.6875 37.203125 44.609375 42.84375 
Q 40.53125 48.484375 33.40625 48.484375 
Q 26.265625 48.484375 22.1875 42.84375 
Q 18.109375 37.203125 18.109375 27.296875 
Q 18.109375 17.390625 22.1875 11.75 
Q 26.265625 6.109375 33.40625 6.109375 
Q 40.53125 6.109375 44.609375 11.75 
Q 48.6875 17.390625 48.6875 27.296875 
z
M 18.109375 46.390625 
Q 20.953125 51.265625 25.265625 53.625 
Q 29.59375 56 35.59375 56 
Q 45.5625 56 51.78125 48.09375 
Q 58.015625 40.1875 58.015625 27.296875 
Q 58.015625 14.40625 51.78125 6.484375 
Q 45.5625 -1.421875 35.59375 -1.421875 
Q 29.59375 -1.421875 25.265625 0.953125 
Q 20.953125 3.328125 18.109375 8.203125 
L 18.109375 0 
L 9.078125 0 
L 9.078125 75.984375 
L 18.109375 75.984375 
z
" id="DejaVuSans-98"/>
      <path d="M 32.171875 -5.078125 
Q 28.375 -14.84375 24.75 -17.8125 
Q 21.140625 -20.796875 15.09375 -20.796875 
L 7.90625 -20.796875 
L 7.90625 -13.28125 
L 13.1875 -13.28125 
Q 16.890625 -13.28125 18.9375 -11.515625 
Q 21 -9.765625 23.484375 -3.21875 
L 25.09375 0.875 
L 2.984375 54.6875 
L 12.5 54.6875 
L 29.59375 11.921875 
L 46.6875 54.6875 
L 56.203125 54.6875 
z
" id="DejaVuSans-121"/>
     </defs>
     <use xlink:href="#DejaVuSans-99"/>
     <use x="54.980469" xlink:href="#DejaVuSans-111"/>
     <use x="116.162109" xlink:href="#DejaVuSans-98"/>
     <use x="179.638672" xlink:href="#DejaVuSans-121"/>
     <use x="238.818359" xlink:href="#DejaVuSans-108"/>
     <use x="266.601562" xlink:href="#DejaVuSans-97"/>
    </g>
   </g>
   <g id="text_15">
    <!-- trust-con -->
    <g transform="translate(375.22944 169.329987)scale(0.17 -0.17)">
     <use xlink:href="#DejaVuSans-116"/>
     <use x="39.208984" xlink:href="#DejaVuSans-114"/>
     <use x="80.322266" xlink:href="#DejaVuSans-117"/>
     <use x="143.701172" xlink:href="#DejaVuSans-115"/>
     <use x="195.800781" xlink:href="#DejaVuSans-116"/>
     <use x="235.009766" xlink:href="#DejaVuSans-45"/>
     <use x="271.09375" xlink:href="#DejaVuSans-99"/>
     <use x="326.074219" xlink:href="#DejaVuSans-111"/>
     <use x="387.255859" xlink:href="#DejaVuSans-110"/>
    </g>
   </g>
   <g id="text_16">
    <!-- fmincon o -->
    <g transform="translate(375.22944 104.863611)scale(0.17 -0.17)">
     <use xlink:href="#DejaVuSans-102"/>
     <use x="35.205078" xlink:href="#DejaVuSans-109"/>
     <use x="132.617188" xlink:href="#DejaVuSans-105"/>
     <use x="160.400391" xlink:href="#DejaVuSans-110"/>
     <use x="223.779297" xlink:href="#DejaVuSans-99"/>
     <use x="278.759766" xlink:href="#DejaVuSans-111"/>
     <use x="339.941406" xlink:href="#DejaVuSans-110"/>
     <use x="403.320312" xlink:href="#DejaVuSans-32"/>
     <use x="435.107422" xlink:href="#DejaVuSans-111"/>
    </g>
   </g>
   <g id="text_17">
    <!-- alN1 -->
    <g transform="translate(375.22944 40.397235)scale(0.17 -0.17)">
     <defs>
      <path d="M 9.8125 72.90625 
L 23.09375 72.90625 
L 55.421875 11.921875 
L 55.421875 72.90625 
L 64.984375 72.90625 
L 64.984375 0 
L 51.703125 0 
L 19.390625 60.984375 
L 19.390625 0 
L 9.8125 0 
z
" id="DejaVuSans-78"/>
     </defs>
     <use xlink:href="#DejaVuSans-97"/>
     <use x="61.279297" xlink:href="#DejaVuSans-108"/>
     <use x="89.0625" xlink:href="#DejaVuSans-78"/>
     <use x="163.867188" xlink:href="#DejaVuSans-49"/>
    </g>
   </g>
   <g id="text_18">
    <!-- bbob-constrained f12, 2-D -->
    <g transform="translate(60.41088 38.111366)scale(0.102 -0.102)">
     <defs>
      <path d="M 19.671875 64.796875 
L 19.671875 8.109375 
L 31.59375 8.109375 
Q 46.6875 8.109375 53.6875 14.9375 
Q 60.6875 21.78125 60.6875 36.53125 
Q 60.6875 51.171875 53.6875 57.984375 
Q 46.6875 64.796875 31.59375 64.796875 
z
M 9.8125 72.90625 
L 30.078125 72.90625 
Q 51.265625 72.90625 61.171875 64.09375 
Q 71.09375 55.28125 71.09375 36.53125 
Q 71.09375 17.671875 61.125 8.828125 
Q 51.171875 0 30.078125 0 
L 9.8125 0 
z
" id="DejaVuSans-68"/>
     </defs>
     <use xlink:href="#DejaVuSans-98"/>
     <use x="63.476562" xlink:href="#DejaVuSans-98"/>
     <use x="126.953125" xlink:href="#DejaVuSans-111"/>
     <use x="188.134766" xlink:href="#DejaVuSans-98"/>
     <use x="251.611328" xlink:href="#DejaVuSans-45"/>
     <use x="287.695312" xlink:href="#DejaVuSans-99"/>
     <use x="342.675781" xlink:href="#DejaVuSans-111"/>
     <use x="403.857422" xlink:href="#DejaVuSans-110"/>
     <use x="467.236328" xlink:href="#DejaVuSans-115"/>
     <use x="519.335938" xlink:href="#DejaVuSans-116"/>
     <use x="558.544922" xlink:href="#DejaVuSans-114"/>
     <use x="599.658203" xlink:href="#DejaVuSans-97"/>
     <use x="660.9375" xlink:href="#DejaVuSans-105"/>
     <use x="688.720703" xlink:href="#DejaVuSans-110"/>
     <use x="752.099609" xlink:href="#DejaVuSans-101"/>
     <use x="813.623047" xlink:href="#DejaVuSans-100"/>
     <use x="877.099609" xlink:href="#DejaVuSans-32"/>
     <use x="908.886719" xlink:href="#DejaVuSans-102"/>
     <use x="944.091797" xlink:href="#DejaVuSans-49"/>
     <use x="1007.714844" xlink:href="#DejaVuSans-50"/>
     <use x="1071.337891" xlink:href="#DejaVuSans-44"/>
     <use x="1103.125" xlink:href="#DejaVuSans-32"/>
     <use x="1134.912109" xlink:href="#DejaVuSans-50"/>
     <use x="1198.535156" xlink:href="#DejaVuSans-45"/>
     <use x="1234.619141" xlink:href="#DejaVuSans-68"/>
    </g>
    <!-- 41 targets: 100..1e-06 -->
    <g transform="translate(60.41088 49.533135)scale(0.102 -0.102)">
     <defs>
      <path d="M 11.71875 12.40625 
L 22.015625 12.40625 
L 22.015625 0 
L 11.71875 0 
z
M 11.71875 51.703125 
L 22.015625 51.703125 
L 22.015625 39.3125 
L 11.71875 39.3125 
z
" id="DejaVuSans-58"/>
     </defs>
     <use xlink:href="#DejaVuSans-52"/>
     <use x="63.623047" xlink:href="#DejaVuSans-49"/>
     <use x="127.246094" xlink:href="#DejaVuSans-32"/>
     <use x="159.033203" xlink:href="#DejaVuSans-116"/>
     <use x="198.242188" xlink:href="#DejaVuSans-97"/>
     <use x="259.521484" xlink:href="#DejaVuSans-114"/>
     <use x="298.884766" xlink:href="#DejaVuSans-103"/>
     <use x="362.361328" xlink:href="#DejaVuSans-101"/>
     <use x="423.884766" xlink:href="#DejaVuSans-116"/>
     <use x="463.09375" xlink:href="#DejaVuSans-115"/>
     <use x="515.193359" xlink:href="#DejaVuSans-58"/>
     <use x="548.884766" xlink:href="#DejaVuSans-32"/>
     <use x="580.671875" xlink:href="#DejaVuSans-49"/>
     <use x="644.294922" xlink:href="#DejaVuSans-48"/>
     <use x="707.917969" xlink:href="#DejaVuSans-48"/>
     <use x="771.541016" xlink:href="#DejaVuSans-46"/>
     <use x="803.328125" xlink:href="#DejaVuSans-46"/>
     <use x="835.115234" xlink:href="#DejaVuSans-49"/>
     <use x="898.738281" xlink:href="#DejaVuSans-101"/>
     <use x="960.261719" xlink:href="#DejaVuSans-45"/>
     <use x="996.345703" xlink:href="#DejaVuSans-48"/>
     <use x="1059.96875" xlink:href="#DejaVuSans-54"/>
    </g>
    <!-- 30, 15 instances -->
    <g transform="translate(60.41088 60.954904)scale(0.102 -0.102)">
     <defs>
      <path d="M 40.578125 39.3125 
Q 47.65625 37.796875 51.625 33 
Q 55.609375 28.21875 55.609375 21.1875 
Q 55.609375 10.40625 48.1875 4.484375 
Q 40.765625 -1.421875 27.09375 -1.421875 
Q 22.515625 -1.421875 17.65625 -0.515625 
Q 12.796875 0.390625 7.625 2.203125 
L 7.625 11.71875 
Q 11.71875 9.328125 16.59375 8.109375 
Q 21.484375 6.890625 26.8125 6.890625 
Q 36.078125 6.890625 40.9375 10.546875 
Q 45.796875 14.203125 45.796875 21.1875 
Q 45.796875 27.640625 41.28125 31.265625 
Q 36.765625 34.90625 28.71875 34.90625 
L 20.21875 34.90625 
L 20.21875 43.015625 
L 29.109375 43.015625 
Q 36.375 43.015625 40.234375 45.921875 
Q 44.09375 48.828125 44.09375 54.296875 
Q 44.09375 59.90625 40.109375 62.90625 
Q 36.140625 65.921875 28.71875 65.921875 
Q 24.65625 65.921875 20.015625 65.03125 
Q 15.375 64.15625 9.8125 62.3125 
L 9.8125 71.09375 
Q 15.4375 72.65625 20.34375 73.4375 
Q 25.25 74.21875 29.59375 74.21875 
Q 40.828125 74.21875 47.359375 69.109375 
Q 53.90625 64.015625 53.90625 55.328125 
Q 53.90625 49.265625 50.4375 45.09375 
Q 46.96875 40.921875 40.578125 39.3125 
z
" id="DejaVuSans-51"/>
      <path d="M 10.796875 72.90625 
L 49.515625 72.90625 
L 49.515625 64.59375 
L 19.828125 64.59375 
L 19.828125 46.734375 
Q 21.96875 47.46875 24.109375 47.828125 
Q 26.265625 48.1875 28.421875 48.1875 
Q 40.625 48.1875 47.75 41.5 
Q 54.890625 34.8125 54.890625 23.390625 
Q 54.890625 11.625 47.5625 5.09375 
Q 40.234375 -1.421875 26.90625 -1.421875 
Q 22.3125 -1.421875 17.546875 -0.640625 
Q 12.796875 0.140625 7.71875 1.703125 
L 7.71875 11.625 
Q 12.109375 9.234375 16.796875 8.0625 
Q 21.484375 6.890625 26.703125 6.890625 
Q 35.15625 6.890625 40.078125 11.328125 
Q 45.015625 15.765625 45.015625 23.390625 
Q 45.015625 31 40.078125 35.4375 
Q 35.15625 39.890625 26.703125 39.890625 
Q 22.75 39.890625 18.8125 39.015625 
Q 14.890625 38.140625 10.796875 36.28125 
z
" id="DejaVuSans-53"/>
     </defs>
     <use xlink:href="#DejaVuSans-51"/>
     <use x="63.623047" xlink:href="#DejaVuSans-48"/>
     <use x="127.246094" xlink:href="#DejaVuSans-44"/>
     <use x="159.033203" xlink:href="#DejaVuSans-32"/>
     <use x="190.820312" xlink:href="#DejaVuSans-49"/>
     <use x="254.443359" xlink:href="#DejaVuSans-53"/>
     <use x="318.066406" xlink:href="#DejaVuSans-32"/>
     <use x="349.853516" xlink:href="#DejaVuSans-105"/>
     <use x="377.636719" xlink:href="#DejaVuSans-110"/>
     <use x="441.015625" xlink:href="#DejaVuSans-115"/>
     <use x="493.115234" xlink:href="#DejaVuSans-116"/>
     <use x="532.324219" xlink:href="#DejaVuSans-97"/>
     <use x="593.603516" xlink:href="#DejaVuSans-110"/>
     <use x="656.982422" xlink:href="#DejaVuSans-99"/>
     <use x="711.962891" xlink:href="#DejaVuSans-101"/>
     <use x="773.486328" xlink:href="#DejaVuSans-115"/>
    </g>
   </g>
   <g id="text_19">
    <!-- v5z33 -->
    <g style="fill:#808080;" transform="translate(183.016656 294.151352)scale(0.1 -0.1)">
     <defs>
      <path d="M 5.515625 54.6875 
L 48.1875 54.6875 
L 48.1875 46.484375 
L 14.40625 7.171875 
L 48.1875 7.171875 
L 48.1875 0 
L 4.296875 0 
L 4.296875 8.203125 
L 38.09375 47.515625 
L 5.515625 47.515625 
z
" id="DejaVuSans-122"/>
     </defs>
     <use xlink:href="#DejaVuSans-118"/>
     <use x="59.179688" xlink:href="#DejaVuSans-53"/>
     <use x="122.802734" xlink:href="#DejaVuSans-122"/>
     <use x="175.292969" xlink:href="#DejaVuSans-51"/>
     <use x="238.916016" xlink:href="#DejaVuSans-51"/>
    </g>
   </g>
   <g id="text_20">
    <!-- 12 Sep. Ellipsoid, 3n+6 constraints -->
    <g transform="translate(23.033062 21.648)scale(0.2 -0.2)">
     <defs>
      <path d="M 53.515625 70.515625 
L 53.515625 60.890625 
Q 47.90625 63.578125 42.921875 64.890625 
Q 37.9375 66.21875 33.296875 66.21875 
Q 25.25 66.21875 20.875 63.09375 
Q 16.5 59.96875 16.5 54.203125 
Q 16.5 49.359375 19.40625 46.890625 
Q 22.3125 44.4375 30.421875 42.921875 
L 36.375 41.703125 
Q 47.40625 39.59375 52.65625 34.296875 
Q 57.90625 29 57.90625 20.125 
Q 57.90625 9.515625 50.796875 4.046875 
Q 43.703125 -1.421875 29.984375 -1.421875 
Q 24.8125 -1.421875 18.96875 -0.25 
Q 13.140625 0.921875 6.890625 3.21875 
L 6.890625 13.375 
Q 12.890625 10.015625 18.65625 8.296875 
Q 24.421875 6.59375 29.984375 6.59375 
Q 38.421875 6.59375 43.015625 9.90625 
Q 47.609375 13.234375 47.609375 19.390625 
Q 47.609375 24.75 44.3125 27.78125 
Q 41.015625 30.8125 33.5 32.328125 
L 27.484375 33.5 
Q 16.453125 35.6875 11.515625 40.375 
Q 6.59375 45.0625 6.59375 53.421875 
Q 6.59375 63.09375 13.40625 68.65625 
Q 20.21875 74.21875 32.171875 74.21875 
Q 37.3125 74.21875 42.625 73.28125 
Q 47.953125 72.359375 53.515625 70.515625 
z
" id="DejaVuSans-83"/>
      <path d="M 9.8125 72.90625 
L 55.90625 72.90625 
L 55.90625 64.59375 
L 19.671875 64.59375 
L 19.671875 43.015625 
L 54.390625 43.015625 
L 54.390625 34.71875 
L 19.671875 34.71875 
L 19.671875 8.296875 
L 56.78125 8.296875 
L 56.78125 0 
L 9.8125 0 
z
" id="DejaVuSans-69"/>
     </defs>
     <use xlink:href="#DejaVuSans-49"/>
     <use x="63.623047" xlink:href="#DejaVuSans-50"/>
     <use x="127.246094" xlink:href="#DejaVuSans-32"/>
     <use x="159.033203" xlink:href="#DejaVuSans-83"/>
     <use x="222.509766" xlink:href="#DejaVuSans-101"/>
     <use x="284.033203" xlink:href="#DejaVuSans-112"/>
     <use x="347.509766" xlink:href="#DejaVuSans-46"/>
     <use x="379.296875" xlink:href="#DejaVuSans-32"/>
     <use x="411.083984" xlink:href="#DejaVuSans-69"/>
     <use x="474.267578" xlink:href="#DejaVuSans-108"/>
     <use x="502.050781" xlink:href="#DejaVuSans-108"/>
     <use x="529.833984" xlink:href="#DejaVuSans-105"/>
     <use x="557.617188" xlink:href="#DejaVuSans-112"/>
     <use x="621.09375" xlink:href="#DejaVuSans-115"/>
     <use x="673.193359" xlink:href="#DejaVuSans-111"/>
     <use x="734.375" xlink:href="#DejaVuSans-105"/>
     <use x="762.158203" xlink:href="#DejaVuSans-100"/>
     <use x="825.634766" xlink:href="#DejaVuSans-44"/>
     <use x="857.421875" xlink:href="#DejaVuSans-32"/>
     <use x="889.208984" xlink:href="#DejaVuSans-51"/>
     <use x="952.832031" xlink:href="#DejaVuSans-110"/>
     <use x="1016.210938" xlink:href="#DejaVuSans-43"/>
     <use x="1100" xlink:href="#DejaVuSans-54"/>
     <use x="1163.623047" xlink:href="#DejaVuSans-32"/>
     <use x="1195.410156" xlink:href="#DejaVuSans-99"/>
     <use x="1250.390625" xlink:href="#DejaVuSans-111"/>
     <use x="1311.572266" xlink:href="#DejaVuSans-110"/>
     <use x="1374.951172" xlink:href="#DejaVuSans-115"/>
     <use x="1427.050781" xlink:href="#DejaVuSans-116"/>
     <use x="1466.259766" xlink:href="#DejaVuSans-114"/>
     <use x="1507.373047" xlink:href="#DejaVuSans-97"/>
     <use x="1568.652344" xlink:href="#DejaVuSans-105"/>
     <use x="1596.435547" xlink:href="#DejaVuSans-110"/>
     <use x="1659.814453" xlink:href="#DejaVuSans-116"/>
     <use x="1699.023438" xlink:href="#DejaVuSans-115"/>
    </g>
   </g>
  </g>
 </g>
 <defs>
  <clipPath id="p65eba40230">
   <rect height="271.296" width="281.088" x="57.6" y="27.648"/>
  </clipPath>
 </defs>
</svg>
