<?xml version="1.0" encoding="utf-8" standalone="no"?>
<!DOCTYPE svg PUBLIC "-//W3C//DTD SVG 1.1//EN"
  "http://www.w3.org/Graphics/SVG/1.1/DTD/svg11.dtd">
<!-- Created with matplotlib (https://matplotlib.org/) -->
<svg height="345.6pt" version="1.1" viewBox="0 0 460.8 345.6" width="460.8pt" xmlns="http://www.w3.org/2000/svg" xmlns:xlink="http://www.w3.org/1999/xlink">
 <metadata>
  <rdf:RDF xmlns:cc="http://creativecommons.org/ns#" xmlns:dc="http://purl.org/dc/elements/1.1/" xmlns:rdf="http://www.w3.org/1999/02/22-rdf-syntax-ns#">
   <cc:Work>
    <dc:type rdf:resource="http://purl.org/dc/dcmitype/StillImage"/>
    <dc:date>2021-03-25T09:36:11.158715</dc:date>
    <dc:format>image/svg+xml</dc:format>
    <dc:creator>
     <cc:Agent>
      <dc:title>Matplotlib v3.3.3, https://matplotlib.org/</dc:title>
     </cc:Agent>
    </dc:creator>
   </cc:Work>
  </rdf:RDF>
 </metadata>
 <defs>
  <style type="text/css">*{stroke-linecap:butt;stroke-linejoin:round;}</style>
 </defs>
 <g id="figure_1">
  <g id="patch_1">
   <path d="M 0 345.6 
L 460.8 345.6 
L 460.8 0 
L 0 0 
z
" style="fill:#ffffff;"/>
  </g>
  <g id="axes_1">
   <g id="patch_2">
    <path d="M 57.6 298.944 
L 338.688 298.944 
L 338.688 27.648 
L 57.6 27.648 
z
" style="fill:#ffffff;"/>
   </g>
   <g id="matplotlib.axis_1">
    <g id="xtick_1">
     <g id="line2d_1">
      <path clip-path="url(#pcabb0669cf)" d="M 57.6 298.944 
L 57.6 27.648 
" style="fill:none;stroke:#b0b0b0;stroke-linecap:square;stroke-width:0.8;"/>
     </g>
     <g id="line2d_2">
      <defs>
       <path d="M 0 0 
L 0 3.5 
" id="m8cc934994e" style="stroke:#000000;stroke-width:0.8;"/>
      </defs>
      <g>
       <use style="stroke:#000000;stroke-width:0.8;" x="57.6" xlink:href="#m8cc934994e" y="298.944"/>
      </g>
     </g>
     <g id="text_1">
      <!-- 0 -->
      <g transform="translate(51.2375 321.140875)scale(0.2 -0.2)">
       <defs>
        <path d="M 31.78125 66.40625 
Q 24.171875 66.40625 20.328125 58.90625 
Q 16.5 51.421875 16.5 36.375 
Q 16.5 21.390625 20.328125 13.890625 
Q 24.171875 6.390625 31.78125 6.390625 
Q 39.453125 6.390625 43.28125 13.890625 
Q 47.125 21.390625 47.125 36.375 
Q 47.125 51.421875 43.28125 58.90625 
Q 39.453125 66.40625 31.78125 66.40625 
z
M 31.78125 74.21875 
Q 44.046875 74.21875 50.515625 64.515625 
Q 56.984375 54.828125 56.984375 36.375 
Q 56.984375 17.96875 50.515625 8.265625 
Q 44.046875 -1.421875 31.78125 -1.421875 
Q 19.53125 -1.421875 13.0625 8.265625 
Q 6.59375 17.96875 6.59375 36.375 
Q 6.59375 54.828125 13.0625 64.515625 
Q 19.53125 74.21875 31.78125 74.21875 
z
" id="DejaVuSans-48"/>
       </defs>
       <use xlink:href="#DejaVuSans-48"/>
      </g>
     </g>
    </g>
    <g id="xtick_2">
     <g id="line2d_3">
      <path clip-path="url(#pcabb0669cf)" d="M 137.910857 298.944 
L 137.910857 27.648 
" style="fill:none;stroke:#b0b0b0;stroke-linecap:square;stroke-width:0.8;"/>
     </g>
     <g id="line2d_4">
      <g>
       <use style="stroke:#000000;stroke-width:0.8;" x="137.910857" xlink:href="#m8cc934994e" y="298.944"/>
      </g>
     </g>
     <g id="text_2">
      <!-- 2 -->
      <g transform="translate(131.548357 321.140875)scale(0.2 -0.2)">
       <defs>
        <path d="M 19.1875 8.296875 
L 53.609375 8.296875 
L 53.609375 0 
L 7.328125 0 
L 7.328125 8.296875 
Q 12.9375 14.109375 22.625 23.890625 
Q 32.328125 33.6875 34.8125 36.53125 
Q 39.546875 41.84375 41.421875 45.53125 
Q 43.3125 49.21875 43.3125 52.78125 
Q 43.3125 58.59375 39.234375 62.25 
Q 35.15625 65.921875 28.609375 65.921875 
Q 23.96875 65.921875 18.8125 64.3125 
Q 13.671875 62.703125 7.8125 59.421875 
L 7.8125 69.390625 
Q 13.765625 71.78125 18.9375 73 
Q 24.125 74.21875 28.421875 74.21875 
Q 39.75 74.21875 46.484375 68.546875 
Q 53.21875 62.890625 53.21875 53.421875 
Q 53.21875 48.921875 51.53125 44.890625 
Q 49.859375 40.875 45.40625 35.40625 
Q 44.1875 33.984375 37.640625 27.21875 
Q 31.109375 20.453125 19.1875 8.296875 
z
" id="DejaVuSans-50"/>
       </defs>
       <use xlink:href="#DejaVuSans-50"/>
      </g>
     </g>
    </g>
    <g id="xtick_3">
     <g id="line2d_5">
      <path clip-path="url(#pcabb0669cf)" d="M 218.221714 298.944 
L 218.221714 27.648 
" style="fill:none;stroke:#b0b0b0;stroke-linecap:square;stroke-width:0.8;"/>
     </g>
     <g id="line2d_6">
      <g>
       <use style="stroke:#000000;stroke-width:0.8;" x="218.221714" xlink:href="#m8cc934994e" y="298.944"/>
      </g>
     </g>
     <g id="text_3">
      <!-- 4 -->
      <g transform="translate(211.859214 321.140875)scale(0.2 -0.2)">
       <defs>
        <path d="M 37.796875 64.3125 
L 12.890625 25.390625 
L 37.796875 25.390625 
z
M 35.203125 72.90625 
L 47.609375 72.90625 
L 47.609375 25.390625 
L 58.015625 25.390625 
L 58.015625 17.1875 
L 47.609375 17.1875 
L 47.609375 0 
L 37.796875 0 
L 37.796875 17.1875 
L 4.890625 17.1875 
L 4.890625 26.703125 
z
" id="DejaVuSans-52"/>
       </defs>
       <use xlink:href="#DejaVuSans-52"/>
      </g>
     </g>
    </g>
    <g id="xtick_4">
     <g id="line2d_7">
      <path clip-path="url(#pcabb0669cf)" d="M 298.532571 298.944 
L 298.532571 27.648 
" style="fill:none;stroke:#b0b0b0;stroke-linecap:square;stroke-width:0.8;"/>
     </g>
     <g id="line2d_8">
      <g>
       <use style="stroke:#000000;stroke-width:0.8;" x="298.532571" xlink:href="#m8cc934994e" y="298.944"/>
      </g>
     </g>
     <g id="text_4">
      <!-- 6 -->
      <g transform="translate(292.170071 321.140875)scale(0.2 -0.2)">
       <defs>
        <path d="M 33.015625 40.375 
Q 26.375 40.375 22.484375 35.828125 
Q 18.609375 31.296875 18.609375 23.390625 
Q 18.609375 15.53125 22.484375 10.953125 
Q 26.375 6.390625 33.015625 6.390625 
Q 39.65625 6.390625 43.53125 10.953125 
Q 47.40625 15.53125 47.40625 23.390625 
Q 47.40625 31.296875 43.53125 35.828125 
Q 39.65625 40.375 33.015625 40.375 
z
M 52.59375 71.296875 
L 52.59375 62.3125 
Q 48.875 64.0625 45.09375 64.984375 
Q 41.3125 65.921875 37.59375 65.921875 
Q 27.828125 65.921875 22.671875 59.328125 
Q 17.53125 52.734375 16.796875 39.40625 
Q 19.671875 43.65625 24.015625 45.921875 
Q 28.375 48.1875 33.59375 48.1875 
Q 44.578125 48.1875 50.953125 41.515625 
Q 57.328125 34.859375 57.328125 23.390625 
Q 57.328125 12.15625 50.6875 5.359375 
Q 44.046875 -1.421875 33.015625 -1.421875 
Q 20.359375 -1.421875 13.671875 8.265625 
Q 6.984375 17.96875 6.984375 36.375 
Q 6.984375 53.65625 15.1875 63.9375 
Q 23.390625 74.21875 37.203125 74.21875 
Q 40.921875 74.21875 44.703125 73.484375 
Q 48.484375 72.75 52.59375 71.296875 
z
" id="DejaVuSans-54"/>
       </defs>
       <use xlink:href="#DejaVuSans-54"/>
      </g>
     </g>
    </g>
    <g id="xtick_5">
     <g id="line2d_9">
      <path clip-path="url(#pcabb0669cf)" d="M 97.755429 298.944 
L 97.755429 27.648 
" style="fill:none;stroke:#b0b0b0;stroke-linecap:square;stroke-width:0.8;"/>
     </g>
     <g id="line2d_10">
      <defs>
       <path d="M 0 0 
L 0 2 
" id="m6a2ad0a011" style="stroke:#000000;stroke-width:0.6;"/>
      </defs>
      <g>
       <use style="stroke:#000000;stroke-width:0.6;" x="97.755429" xlink:href="#m6a2ad0a011" y="298.944"/>
      </g>
     </g>
    </g>
    <g id="xtick_6">
     <g id="line2d_11">
      <path clip-path="url(#pcabb0669cf)" d="M 178.066286 298.944 
L 178.066286 27.648 
" style="fill:none;stroke:#b0b0b0;stroke-linecap:square;stroke-width:0.8;"/>
     </g>
     <g id="line2d_12">
      <g>
       <use style="stroke:#000000;stroke-width:0.6;" x="178.066286" xlink:href="#m6a2ad0a011" y="298.944"/>
      </g>
     </g>
    </g>
    <g id="xtick_7">
     <g id="line2d_13">
      <path clip-path="url(#pcabb0669cf)" d="M 258.377143 298.944 
L 258.377143 27.648 
" style="fill:none;stroke:#b0b0b0;stroke-linecap:square;stroke-width:0.8;"/>
     </g>
     <g id="line2d_14">
      <g>
       <use style="stroke:#000000;stroke-width:0.6;" x="258.377143" xlink:href="#m6a2ad0a011" y="298.944"/>
      </g>
     </g>
    </g>
    <g id="xtick_8">
     <g id="line2d_15">
      <path clip-path="url(#pcabb0669cf)" d="M 338.688 298.944 
L 338.688 27.648 
" style="fill:none;stroke:#b0b0b0;stroke-linecap:square;stroke-width:0.8;"/>
     </g>
     <g id="line2d_16">
      <g>
       <use style="stroke:#000000;stroke-width:0.6;" x="338.688" xlink:href="#m6a2ad0a011" y="298.944"/>
      </g>
     </g>
    </g>
    <g id="text_5">
     <!-- log10(# (f+g)-evals / dimension) -->
     <g transform="translate(58.145016 342.217594)scale(0.17 -0.17)">
      <defs>
       <path d="M 9.421875 75.984375 
L 18.40625 75.984375 
L 18.40625 0 
L 9.421875 0 
z
" id="DejaVuSans-108"/>
       <path d="M 30.609375 48.390625 
Q 23.390625 48.390625 19.1875 42.75 
Q 14.984375 37.109375 14.984375 27.296875 
Q 14.984375 17.484375 19.15625 11.84375 
Q 23.34375 6.203125 30.609375 6.203125 
Q 37.796875 6.203125 41.984375 11.859375 
Q 46.1875 17.53125 46.1875 27.296875 
Q 46.1875 37.015625 41.984375 42.703125 
Q 37.796875 48.390625 30.609375 48.390625 
z
M 30.609375 56 
Q 42.328125 56 49.015625 48.375 
Q 55.71875 40.765625 55.71875 27.296875 
Q 55.71875 13.875 49.015625 6.21875 
Q 42.328125 -1.421875 30.609375 -1.421875 
Q 18.84375 -1.421875 12.171875 6.21875 
Q 5.515625 13.875 5.515625 27.296875 
Q 5.515625 40.765625 12.171875 48.375 
Q 18.84375 56 30.609375 56 
z
" id="DejaVuSans-111"/>
       <path d="M 45.40625 27.984375 
Q 45.40625 37.75 41.375 43.109375 
Q 37.359375 48.484375 30.078125 48.484375 
Q 22.859375 48.484375 18.828125 43.109375 
Q 14.796875 37.75 14.796875 27.984375 
Q 14.796875 18.265625 18.828125 12.890625 
Q 22.859375 7.515625 30.078125 7.515625 
Q 37.359375 7.515625 41.375 12.890625 
Q 45.40625 18.265625 45.40625 27.984375 
z
M 54.390625 6.78125 
Q 54.390625 -7.171875 48.1875 -13.984375 
Q 42 -20.796875 29.203125 -20.796875 
Q 24.46875 -20.796875 20.265625 -20.09375 
Q 16.0625 -19.390625 12.109375 -17.921875 
L 12.109375 -9.1875 
Q 16.0625 -11.328125 19.921875 -12.34375 
Q 23.78125 -13.375 27.78125 -13.375 
Q 36.625 -13.375 41.015625 -8.765625 
Q 45.40625 -4.15625 45.40625 5.171875 
L 45.40625 9.625 
Q 42.625 4.78125 38.28125 2.390625 
Q 33.9375 0 27.875 0 
Q 17.828125 0 11.671875 7.65625 
Q 5.515625 15.328125 5.515625 27.984375 
Q 5.515625 40.671875 11.671875 48.328125 
Q 17.828125 56 27.875 56 
Q 33.9375 56 38.28125 53.609375 
Q 42.625 51.21875 45.40625 46.390625 
L 45.40625 54.6875 
L 54.390625 54.6875 
z
" id="DejaVuSans-103"/>
       <path d="M 12.40625 8.296875 
L 28.515625 8.296875 
L 28.515625 63.921875 
L 10.984375 60.40625 
L 10.984375 69.390625 
L 28.421875 72.90625 
L 38.28125 72.90625 
L 38.28125 8.296875 
L 54.390625 8.296875 
L 54.390625 0 
L 12.40625 0 
z
" id="DejaVuSans-49"/>
       <path d="M 31 75.875 
Q 24.46875 64.65625 21.28125 53.65625 
Q 18.109375 42.671875 18.109375 31.390625 
Q 18.109375 20.125 21.3125 9.0625 
Q 24.515625 -2 31 -13.1875 
L 23.1875 -13.1875 
Q 15.875 -1.703125 12.234375 9.375 
Q 8.59375 20.453125 8.59375 31.390625 
Q 8.59375 42.28125 12.203125 53.3125 
Q 15.828125 64.359375 23.1875 75.875 
z
" id="DejaVuSans-40"/>
       <path d="M 51.125 44 
L 36.921875 44 
L 32.8125 27.6875 
L 47.125 27.6875 
z
M 43.796875 71.78125 
L 38.71875 51.515625 
L 52.984375 51.515625 
L 58.109375 71.78125 
L 65.921875 71.78125 
L 60.890625 51.515625 
L 76.125 51.515625 
L 76.125 44 
L 58.984375 44 
L 54.984375 27.6875 
L 70.515625 27.6875 
L 70.515625 20.21875 
L 53.078125 20.21875 
L 48 0 
L 40.1875 0 
L 45.21875 20.21875 
L 30.90625 20.21875 
L 25.875 0 
L 18.015625 0 
L 23.09375 20.21875 
L 7.71875 20.21875 
L 7.71875 27.6875 
L 24.90625 27.6875 
L 29 44 
L 13.28125 44 
L 13.28125 51.515625 
L 30.90625 51.515625 
L 35.890625 71.78125 
z
" id="DejaVuSans-35"/>
       <path id="DejaVuSans-32"/>
       <path d="M 37.109375 75.984375 
L 37.109375 68.5 
L 28.515625 68.5 
Q 23.6875 68.5 21.796875 66.546875 
Q 19.921875 64.59375 19.921875 59.515625 
L 19.921875 54.6875 
L 34.71875 54.6875 
L 34.71875 47.703125 
L 19.921875 47.703125 
L 19.921875 0 
L 10.890625 0 
L 10.890625 47.703125 
L 2.296875 47.703125 
L 2.296875 54.6875 
L 10.890625 54.6875 
L 10.890625 58.5 
Q 10.890625 67.625 15.140625 71.796875 
Q 19.390625 75.984375 28.609375 75.984375 
z
" id="DejaVuSans-102"/>
       <path d="M 46 62.703125 
L 46 35.5 
L 73.1875 35.5 
L 73.1875 27.203125 
L 46 27.203125 
L 46 0 
L 37.796875 0 
L 37.796875 27.203125 
L 10.59375 27.203125 
L 10.59375 35.5 
L 37.796875 35.5 
L 37.796875 62.703125 
z
" id="DejaVuSans-43"/>
       <path d="M 8.015625 75.875 
L 15.828125 75.875 
Q 23.140625 64.359375 26.78125 53.3125 
Q 30.421875 42.28125 30.421875 31.390625 
Q 30.421875 20.453125 26.78125 9.375 
Q 23.140625 -1.703125 15.828125 -13.1875 
L 8.015625 -13.1875 
Q 14.5 -2 17.703125 9.0625 
Q 20.90625 20.125 20.90625 31.390625 
Q 20.90625 42.671875 17.703125 53.65625 
Q 14.5 64.65625 8.015625 75.875 
z
" id="DejaVuSans-41"/>
       <path d="M 4.890625 31.390625 
L 31.203125 31.390625 
L 31.203125 23.390625 
L 4.890625 23.390625 
z
" id="DejaVuSans-45"/>
       <path d="M 56.203125 29.59375 
L 56.203125 25.203125 
L 14.890625 25.203125 
Q 15.484375 15.921875 20.484375 11.0625 
Q 25.484375 6.203125 34.421875 6.203125 
Q 39.59375 6.203125 44.453125 7.46875 
Q 49.3125 8.734375 54.109375 11.28125 
L 54.109375 2.78125 
Q 49.265625 0.734375 44.1875 -0.34375 
Q 39.109375 -1.421875 33.890625 -1.421875 
Q 20.796875 -1.421875 13.15625 6.1875 
Q 5.515625 13.8125 5.515625 26.8125 
Q 5.515625 40.234375 12.765625 48.109375 
Q 20.015625 56 32.328125 56 
Q 43.359375 56 49.78125 48.890625 
Q 56.203125 41.796875 56.203125 29.59375 
z
M 47.21875 32.234375 
Q 47.125 39.59375 43.09375 43.984375 
Q 39.0625 48.390625 32.421875 48.390625 
Q 24.90625 48.390625 20.390625 44.140625 
Q 15.875 39.890625 15.1875 32.171875 
z
" id="DejaVuSans-101"/>
       <path d="M 2.984375 54.6875 
L 12.5 54.6875 
L 29.59375 8.796875 
L 46.6875 54.6875 
L 56.203125 54.6875 
L 35.6875 0 
L 23.484375 0 
z
" id="DejaVuSans-118"/>
       <path d="M 34.28125 27.484375 
Q 23.390625 27.484375 19.1875 25 
Q 14.984375 22.515625 14.984375 16.5 
Q 14.984375 11.71875 18.140625 8.90625 
Q 21.296875 6.109375 26.703125 6.109375 
Q 34.1875 6.109375 38.703125 11.40625 
Q 43.21875 16.703125 43.21875 25.484375 
L 43.21875 27.484375 
z
M 52.203125 31.203125 
L 52.203125 0 
L 43.21875 0 
L 43.21875 8.296875 
Q 40.140625 3.328125 35.546875 0.953125 
Q 30.953125 -1.421875 24.3125 -1.421875 
Q 15.921875 -1.421875 10.953125 3.296875 
Q 6 8.015625 6 15.921875 
Q 6 25.140625 12.171875 29.828125 
Q 18.359375 34.515625 30.609375 34.515625 
L 43.21875 34.515625 
L 43.21875 35.40625 
Q 43.21875 41.609375 39.140625 45 
Q 35.0625 48.390625 27.6875 48.390625 
Q 23 48.390625 18.546875 47.265625 
Q 14.109375 46.140625 10.015625 43.890625 
L 10.015625 52.203125 
Q 14.9375 54.109375 19.578125 55.046875 
Q 24.21875 56 28.609375 56 
Q 40.484375 56 46.34375 49.84375 
Q 52.203125 43.703125 52.203125 31.203125 
z
" id="DejaVuSans-97"/>
       <path d="M 44.28125 53.078125 
L 44.28125 44.578125 
Q 40.484375 46.53125 36.375 47.5 
Q 32.28125 48.484375 27.875 48.484375 
Q 21.1875 48.484375 17.84375 46.4375 
Q 14.5 44.390625 14.5 40.28125 
Q 14.5 37.15625 16.890625 35.375 
Q 19.28125 33.59375 26.515625 31.984375 
L 29.59375 31.296875 
Q 39.15625 29.25 43.1875 25.515625 
Q 47.21875 21.78125 47.21875 15.09375 
Q 47.21875 7.46875 41.1875 3.015625 
Q 35.15625 -1.421875 24.609375 -1.421875 
Q 20.21875 -1.421875 15.453125 -0.5625 
Q 10.6875 0.296875 5.421875 2 
L 5.421875 11.28125 
Q 10.40625 8.6875 15.234375 7.390625 
Q 20.0625 6.109375 24.8125 6.109375 
Q 31.15625 6.109375 34.5625 8.28125 
Q 37.984375 10.453125 37.984375 14.40625 
Q 37.984375 18.0625 35.515625 20.015625 
Q 33.0625 21.96875 24.703125 23.78125 
L 21.578125 24.515625 
Q 13.234375 26.265625 9.515625 29.90625 
Q 5.8125 33.546875 5.8125 39.890625 
Q 5.8125 47.609375 11.28125 51.796875 
Q 16.75 56 26.8125 56 
Q 31.78125 56 36.171875 55.265625 
Q 40.578125 54.546875 44.28125 53.078125 
z
" id="DejaVuSans-115"/>
       <path d="M 25.390625 72.90625 
L 33.6875 72.90625 
L 8.296875 -9.28125 
L 0 -9.28125 
z
" id="DejaVuSans-47"/>
       <path d="M 45.40625 46.390625 
L 45.40625 75.984375 
L 54.390625 75.984375 
L 54.390625 0 
L 45.40625 0 
L 45.40625 8.203125 
Q 42.578125 3.328125 38.25 0.953125 
Q 33.9375 -1.421875 27.875 -1.421875 
Q 17.96875 -1.421875 11.734375 6.484375 
Q 5.515625 14.40625 5.515625 27.296875 
Q 5.515625 40.1875 11.734375 48.09375 
Q 17.96875 56 27.875 56 
Q 33.9375 56 38.25 53.625 
Q 42.578125 51.265625 45.40625 46.390625 
z
M 14.796875 27.296875 
Q 14.796875 17.390625 18.875 11.75 
Q 22.953125 6.109375 30.078125 6.109375 
Q 37.203125 6.109375 41.296875 11.75 
Q 45.40625 17.390625 45.40625 27.296875 
Q 45.40625 37.203125 41.296875 42.84375 
Q 37.203125 48.484375 30.078125 48.484375 
Q 22.953125 48.484375 18.875 42.84375 
Q 14.796875 37.203125 14.796875 27.296875 
z
" id="DejaVuSans-100"/>
       <path d="M 9.421875 54.6875 
L 18.40625 54.6875 
L 18.40625 0 
L 9.421875 0 
z
M 9.421875 75.984375 
L 18.40625 75.984375 
L 18.40625 64.59375 
L 9.421875 64.59375 
z
" id="DejaVuSans-105"/>
       <path d="M 52 44.1875 
Q 55.375 50.25 60.0625 53.125 
Q 64.75 56 71.09375 56 
Q 79.640625 56 84.28125 50.015625 
Q 88.921875 44.046875 88.921875 33.015625 
L 88.921875 0 
L 79.890625 0 
L 79.890625 32.71875 
Q 79.890625 40.578125 77.09375 44.375 
Q 74.3125 48.1875 68.609375 48.1875 
Q 61.625 48.1875 57.5625 43.546875 
Q 53.515625 38.921875 53.515625 30.90625 
L 53.515625 0 
L 44.484375 0 
L 44.484375 32.71875 
Q 44.484375 40.625 41.703125 44.40625 
Q 38.921875 48.1875 33.109375 48.1875 
Q 26.21875 48.1875 22.15625 43.53125 
Q 18.109375 38.875 18.109375 30.90625 
L 18.109375 0 
L 9.078125 0 
L 9.078125 54.6875 
L 18.109375 54.6875 
L 18.109375 46.1875 
Q 21.1875 51.21875 25.484375 53.609375 
Q 29.78125 56 35.6875 56 
Q 41.65625 56 45.828125 52.96875 
Q 50 49.953125 52 44.1875 
z
" id="DejaVuSans-109"/>
       <path d="M 54.890625 33.015625 
L 54.890625 0 
L 45.90625 0 
L 45.90625 32.71875 
Q 45.90625 40.484375 42.875 44.328125 
Q 39.84375 48.1875 33.796875 48.1875 
Q 26.515625 48.1875 22.3125 43.546875 
Q 18.109375 38.921875 18.109375 30.90625 
L 18.109375 0 
L 9.078125 0 
L 9.078125 54.6875 
L 18.109375 54.6875 
L 18.109375 46.1875 
Q 21.34375 51.125 25.703125 53.5625 
Q 30.078125 56 35.796875 56 
Q 45.21875 56 50.046875 50.171875 
Q 54.890625 44.34375 54.890625 33.015625 
z
" id="DejaVuSans-110"/>
      </defs>
      <use xlink:href="#DejaVuSans-108"/>
      <use x="27.783203" xlink:href="#DejaVuSans-111"/>
      <use x="88.964844" xlink:href="#DejaVuSans-103"/>
      <use x="152.441406" xlink:href="#DejaVuSans-49"/>
      <use x="216.064453" xlink:href="#DejaVuSans-48"/>
      <use x="279.6875" xlink:href="#DejaVuSans-40"/>
      <use x="318.701172" xlink:href="#DejaVuSans-35"/>
      <use x="402.490234" xlink:href="#DejaVuSans-32"/>
      <use x="434.277344" xlink:href="#DejaVuSans-40"/>
      <use x="473.291016" xlink:href="#DejaVuSans-102"/>
      <use x="508.496094" xlink:href="#DejaVuSans-43"/>
      <use x="592.285156" xlink:href="#DejaVuSans-103"/>
      <use x="655.761719" xlink:href="#DejaVuSans-41"/>
      <use x="694.775391" xlink:href="#DejaVuSans-45"/>
      <use x="730.859375" xlink:href="#DejaVuSans-101"/>
      <use x="792.382812" xlink:href="#DejaVuSans-118"/>
      <use x="851.5625" xlink:href="#DejaVuSans-97"/>
      <use x="912.841797" xlink:href="#DejaVuSans-108"/>
      <use x="940.625" xlink:href="#DejaVuSans-115"/>
      <use x="992.724609" xlink:href="#DejaVuSans-32"/>
      <use x="1024.511719" xlink:href="#DejaVuSans-47"/>
      <use x="1058.203125" xlink:href="#DejaVuSans-32"/>
      <use x="1089.990234" xlink:href="#DejaVuSans-100"/>
      <use x="1153.466797" xlink:href="#DejaVuSans-105"/>
      <use x="1181.25" xlink:href="#DejaVuSans-109"/>
      <use x="1278.662109" xlink:href="#DejaVuSans-101"/>
      <use x="1340.185547" xlink:href="#DejaVuSans-110"/>
      <use x="1403.564453" xlink:href="#DejaVuSans-115"/>
      <use x="1455.664062" xlink:href="#DejaVuSans-105"/>
      <use x="1483.447266" xlink:href="#DejaVuSans-111"/>
      <use x="1544.628906" xlink:href="#DejaVuSans-110"/>
      <use x="1608.007812" xlink:href="#DejaVuSans-41"/>
     </g>
    </g>
   </g>
   <g id="matplotlib.axis_2">
    <g id="ytick_1">
     <g id="line2d_17">
      <path clip-path="url(#pcabb0669cf)" d="M 57.6 298.944 
L 338.688 298.944 
" style="fill:none;stroke:#b0b0b0;stroke-linecap:square;stroke-width:0.8;"/>
     </g>
     <g id="line2d_18">
      <defs>
       <path d="M 0 0 
L -3.5 0 
" id="m50c0172b3a" style="stroke:#000000;stroke-width:0.8;"/>
      </defs>
      <g>
       <use style="stroke:#000000;stroke-width:0.8;" x="57.6" xlink:href="#m50c0172b3a" y="298.944"/>
      </g>
     </g>
     <g id="text_6">
      <!-- 0.0 -->
      <g transform="translate(25.155 305.02275)scale(0.16 -0.16)">
       <defs>
        <path d="M 10.6875 12.40625 
L 21 12.40625 
L 21 0 
L 10.6875 0 
z
" id="DejaVuSans-46"/>
       </defs>
       <use xlink:href="#DejaVuSans-48"/>
       <use x="63.623047" xlink:href="#DejaVuSans-46"/>
       <use x="95.410156" xlink:href="#DejaVuSans-48"/>
      </g>
     </g>
    </g>
    <g id="ytick_2">
     <g id="line2d_19">
      <path clip-path="url(#pcabb0669cf)" d="M 57.6 245.22202 
L 338.688 245.22202 
" style="fill:none;stroke:#b0b0b0;stroke-linecap:square;stroke-width:0.8;"/>
     </g>
     <g id="line2d_20">
      <g>
       <use style="stroke:#000000;stroke-width:0.8;" x="57.6" xlink:href="#m50c0172b3a" y="245.22202"/>
      </g>
     </g>
     <g id="text_7">
      <!-- 0.2 -->
      <g transform="translate(25.155 251.30077)scale(0.16 -0.16)">
       <use xlink:href="#DejaVuSans-48"/>
       <use x="63.623047" xlink:href="#DejaVuSans-46"/>
       <use x="95.410156" xlink:href="#DejaVuSans-50"/>
      </g>
     </g>
    </g>
    <g id="ytick_3">
     <g id="line2d_21">
      <path clip-path="url(#pcabb0669cf)" d="M 57.6 191.50004 
L 338.688 191.50004 
" style="fill:none;stroke:#b0b0b0;stroke-linecap:square;stroke-width:0.8;"/>
     </g>
     <g id="line2d_22">
      <g>
       <use style="stroke:#000000;stroke-width:0.8;" x="57.6" xlink:href="#m50c0172b3a" y="191.50004"/>
      </g>
     </g>
     <g id="text_8">
      <!-- 0.4 -->
      <g transform="translate(25.155 197.57879)scale(0.16 -0.16)">
       <use xlink:href="#DejaVuSans-48"/>
       <use x="63.623047" xlink:href="#DejaVuSans-46"/>
       <use x="95.410156" xlink:href="#DejaVuSans-52"/>
      </g>
     </g>
    </g>
    <g id="ytick_4">
     <g id="line2d_23">
      <path clip-path="url(#pcabb0669cf)" d="M 57.6 137.778059 
L 338.688 137.778059 
" style="fill:none;stroke:#b0b0b0;stroke-linecap:square;stroke-width:0.8;"/>
     </g>
     <g id="line2d_24">
      <g>
       <use style="stroke:#000000;stroke-width:0.8;" x="57.6" xlink:href="#m50c0172b3a" y="137.778059"/>
      </g>
     </g>
     <g id="text_9">
      <!-- 0.6 -->
      <g transform="translate(25.155 143.856809)scale(0.16 -0.16)">
       <use xlink:href="#DejaVuSans-48"/>
       <use x="63.623047" xlink:href="#DejaVuSans-46"/>
       <use x="95.410156" xlink:href="#DejaVuSans-54"/>
      </g>
     </g>
    </g>
    <g id="ytick_5">
     <g id="line2d_25">
      <path clip-path="url(#pcabb0669cf)" d="M 57.6 84.056079 
L 338.688 84.056079 
" style="fill:none;stroke:#b0b0b0;stroke-linecap:square;stroke-width:0.8;"/>
     </g>
     <g id="line2d_26">
      <g>
       <use style="stroke:#000000;stroke-width:0.8;" x="57.6" xlink:href="#m50c0172b3a" y="84.056079"/>
      </g>
     </g>
     <g id="text_10">
      <!-- 0.8 -->
      <g transform="translate(25.155 90.134829)scale(0.16 -0.16)">
       <defs>
        <path d="M 31.78125 34.625 
Q 24.75 34.625 20.71875 30.859375 
Q 16.703125 27.09375 16.703125 20.515625 
Q 16.703125 13.921875 20.71875 10.15625 
Q 24.75 6.390625 31.78125 6.390625 
Q 38.8125 6.390625 42.859375 10.171875 
Q 46.921875 13.96875 46.921875 20.515625 
Q 46.921875 27.09375 42.890625 30.859375 
Q 38.875 34.625 31.78125 34.625 
z
M 21.921875 38.8125 
Q 15.578125 40.375 12.03125 44.71875 
Q 8.5 49.078125 8.5 55.328125 
Q 8.5 64.0625 14.71875 69.140625 
Q 20.953125 74.21875 31.78125 74.21875 
Q 42.671875 74.21875 48.875 69.140625 
Q 55.078125 64.0625 55.078125 55.328125 
Q 55.078125 49.078125 51.53125 44.71875 
Q 48 40.375 41.703125 38.8125 
Q 48.828125 37.15625 52.796875 32.3125 
Q 56.78125 27.484375 56.78125 20.515625 
Q 56.78125 9.90625 50.3125 4.234375 
Q 43.84375 -1.421875 31.78125 -1.421875 
Q 19.734375 -1.421875 13.25 4.234375 
Q 6.78125 9.90625 6.78125 20.515625 
Q 6.78125 27.484375 10.78125 32.3125 
Q 14.796875 37.15625 21.921875 38.8125 
z
M 18.3125 54.390625 
Q 18.3125 48.734375 21.84375 45.5625 
Q 25.390625 42.390625 31.78125 42.390625 
Q 38.140625 42.390625 41.71875 45.5625 
Q 45.3125 48.734375 45.3125 54.390625 
Q 45.3125 60.0625 41.71875 63.234375 
Q 38.140625 66.40625 31.78125 66.40625 
Q 25.390625 66.40625 21.84375 63.234375 
Q 18.3125 60.0625 18.3125 54.390625 
z
" id="DejaVuSans-56"/>
       </defs>
       <use xlink:href="#DejaVuSans-48"/>
       <use x="63.623047" xlink:href="#DejaVuSans-46"/>
       <use x="95.410156" xlink:href="#DejaVuSans-56"/>
      </g>
     </g>
    </g>
    <g id="ytick_6">
     <g id="line2d_27">
      <path clip-path="url(#pcabb0669cf)" d="M 57.6 30.334099 
L 338.688 30.334099 
" style="fill:none;stroke:#b0b0b0;stroke-linecap:square;stroke-width:0.8;"/>
     </g>
     <g id="line2d_28">
      <g>
       <use style="stroke:#000000;stroke-width:0.8;" x="57.6" xlink:href="#m50c0172b3a" y="30.334099"/>
      </g>
     </g>
     <g id="text_11">
      <!-- 1.0 -->
      <g transform="translate(25.155 36.412849)scale(0.16 -0.16)">
       <use xlink:href="#DejaVuSans-49"/>
       <use x="63.623047" xlink:href="#DejaVuSans-46"/>
       <use x="95.410156" xlink:href="#DejaVuSans-48"/>
      </g>
     </g>
    </g>
    <g id="text_12">
     <!-- Fraction of function,target pairs -->
     <g transform="translate(17.619531 297.681)rotate(-90)scale(0.17 -0.17)">
      <defs>
       <path d="M 9.8125 72.90625 
L 51.703125 72.90625 
L 51.703125 64.59375 
L 19.671875 64.59375 
L 19.671875 43.109375 
L 48.578125 43.109375 
L 48.578125 34.8125 
L 19.671875 34.8125 
L 19.671875 0 
L 9.8125 0 
z
" id="DejaVuSans-70"/>
       <path d="M 41.109375 46.296875 
Q 39.59375 47.171875 37.8125 47.578125 
Q 36.03125 48 33.890625 48 
Q 26.265625 48 22.1875 43.046875 
Q 18.109375 38.09375 18.109375 28.8125 
L 18.109375 0 
L 9.078125 0 
L 9.078125 54.6875 
L 18.109375 54.6875 
L 18.109375 46.1875 
Q 20.953125 51.171875 25.484375 53.578125 
Q 30.03125 56 36.53125 56 
Q 37.453125 56 38.578125 55.875 
Q 39.703125 55.765625 41.0625 55.515625 
z
" id="DejaVuSans-114"/>
       <path d="M 48.78125 52.59375 
L 48.78125 44.1875 
Q 44.96875 46.296875 41.140625 47.34375 
Q 37.3125 48.390625 33.40625 48.390625 
Q 24.65625 48.390625 19.8125 42.84375 
Q 14.984375 37.3125 14.984375 27.296875 
Q 14.984375 17.28125 19.8125 11.734375 
Q 24.65625 6.203125 33.40625 6.203125 
Q 37.3125 6.203125 41.140625 7.25 
Q 44.96875 8.296875 48.78125 10.40625 
L 48.78125 2.09375 
Q 45.015625 0.34375 40.984375 -0.53125 
Q 36.96875 -1.421875 32.421875 -1.421875 
Q 20.0625 -1.421875 12.78125 6.34375 
Q 5.515625 14.109375 5.515625 27.296875 
Q 5.515625 40.671875 12.859375 48.328125 
Q 20.21875 56 33.015625 56 
Q 37.15625 56 41.109375 55.140625 
Q 45.0625 54.296875 48.78125 52.59375 
z
" id="DejaVuSans-99"/>
       <path d="M 18.3125 70.21875 
L 18.3125 54.6875 
L 36.8125 54.6875 
L 36.8125 47.703125 
L 18.3125 47.703125 
L 18.3125 18.015625 
Q 18.3125 11.328125 20.140625 9.421875 
Q 21.96875 7.515625 27.59375 7.515625 
L 36.8125 7.515625 
L 36.8125 0 
L 27.59375 0 
Q 17.1875 0 13.234375 3.875 
Q 9.28125 7.765625 9.28125 18.015625 
L 9.28125 47.703125 
L 2.6875 47.703125 
L 2.6875 54.6875 
L 9.28125 54.6875 
L 9.28125 70.21875 
z
" id="DejaVuSans-116"/>
       <path d="M 8.5 21.578125 
L 8.5 54.6875 
L 17.484375 54.6875 
L 17.484375 21.921875 
Q 17.484375 14.15625 20.5 10.265625 
Q 23.53125 6.390625 29.59375 6.390625 
Q 36.859375 6.390625 41.078125 11.03125 
Q 45.3125 15.671875 45.3125 23.6875 
L 45.3125 54.6875 
L 54.296875 54.6875 
L 54.296875 0 
L 45.3125 0 
L 45.3125 8.40625 
Q 42.046875 3.421875 37.71875 1 
Q 33.40625 -1.421875 27.6875 -1.421875 
Q 18.265625 -1.421875 13.375 4.4375 
Q 8.5 10.296875 8.5 21.578125 
z
M 31.109375 56 
z
" id="DejaVuSans-117"/>
       <path d="M 11.71875 12.40625 
L 22.015625 12.40625 
L 22.015625 4 
L 14.015625 -11.625 
L 7.71875 -11.625 
L 11.71875 4 
z
" id="DejaVuSans-44"/>
       <path d="M 18.109375 8.203125 
L 18.109375 -20.796875 
L 9.078125 -20.796875 
L 9.078125 54.6875 
L 18.109375 54.6875 
L 18.109375 46.390625 
Q 20.953125 51.265625 25.265625 53.625 
Q 29.59375 56 35.59375 56 
Q 45.5625 56 51.78125 48.09375 
Q 58.015625 40.1875 58.015625 27.296875 
Q 58.015625 14.40625 51.78125 6.484375 
Q 45.5625 -1.421875 35.59375 -1.421875 
Q 29.59375 -1.421875 25.265625 0.953125 
Q 20.953125 3.328125 18.109375 8.203125 
z
M 48.6875 27.296875 
Q 48.6875 37.203125 44.609375 42.84375 
Q 40.53125 48.484375 33.40625 48.484375 
Q 26.265625 48.484375 22.1875 42.84375 
Q 18.109375 37.203125 18.109375 27.296875 
Q 18.109375 17.390625 22.1875 11.75 
Q 26.265625 6.109375 33.40625 6.109375 
Q 40.53125 6.109375 44.609375 11.75 
Q 48.6875 17.390625 48.6875 27.296875 
z
" id="DejaVuSans-112"/>
      </defs>
      <use xlink:href="#DejaVuSans-70"/>
      <use x="50.269531" xlink:href="#DejaVuSans-114"/>
      <use x="91.382812" xlink:href="#DejaVuSans-97"/>
      <use x="152.662109" xlink:href="#DejaVuSans-99"/>
      <use x="207.642578" xlink:href="#DejaVuSans-116"/>
      <use x="246.851562" xlink:href="#DejaVuSans-105"/>
      <use x="274.634766" xlink:href="#DejaVuSans-111"/>
      <use x="335.816406" xlink:href="#DejaVuSans-110"/>
      <use x="399.195312" xlink:href="#DejaVuSans-32"/>
      <use x="430.982422" xlink:href="#DejaVuSans-111"/>
      <use x="492.164062" xlink:href="#DejaVuSans-102"/>
      <use x="527.369141" xlink:href="#DejaVuSans-32"/>
      <use x="559.15625" xlink:href="#DejaVuSans-102"/>
      <use x="594.361328" xlink:href="#DejaVuSans-117"/>
      <use x="657.740234" xlink:href="#DejaVuSans-110"/>
      <use x="721.119141" xlink:href="#DejaVuSans-99"/>
      <use x="776.099609" xlink:href="#DejaVuSans-116"/>
      <use x="815.308594" xlink:href="#DejaVuSans-105"/>
      <use x="843.091797" xlink:href="#DejaVuSans-111"/>
      <use x="904.273438" xlink:href="#DejaVuSans-110"/>
      <use x="967.652344" xlink:href="#DejaVuSans-44"/>
      <use x="999.439453" xlink:href="#DejaVuSans-116"/>
      <use x="1038.648438" xlink:href="#DejaVuSans-97"/>
      <use x="1099.927734" xlink:href="#DejaVuSans-114"/>
      <use x="1139.291016" xlink:href="#DejaVuSans-103"/>
      <use x="1202.767578" xlink:href="#DejaVuSans-101"/>
      <use x="1264.291016" xlink:href="#DejaVuSans-116"/>
      <use x="1303.5" xlink:href="#DejaVuSans-32"/>
      <use x="1335.287109" xlink:href="#DejaVuSans-112"/>
      <use x="1398.763672" xlink:href="#DejaVuSans-97"/>
      <use x="1460.042969" xlink:href="#DejaVuSans-105"/>
      <use x="1487.826172" xlink:href="#DejaVuSans-114"/>
      <use x="1528.939453" xlink:href="#DejaVuSans-115"/>
     </g>
    </g>
   </g>
   <g id="line2d_29">
    <defs>
     <path d="M 0 1.5 
C 0.397805 1.5 0.77937 1.341951 1.06066 1.06066 
C 1.341951 0.77937 1.5 0.397805 1.5 0 
C 1.5 -0.397805 1.341951 -0.77937 1.06066 -1.06066 
C 0.77937 -1.341951 0.397805 -1.5 0 -1.5 
C -0.397805 -1.5 -0.77937 -1.341951 -1.06066 -1.06066 
C -1.341951 -0.77937 -1.5 -0.397805 -1.5 0 
C -1.5 0.397805 -1.341951 0.77937 -1.06066 1.06066 
C -0.77937 1.341951 -0.397805 1.5 0 1.5 
z
" id="meebb948439" style="stroke:#000080;"/>
    </defs>
    <g>
     <use style="fill:#000080;stroke:#000080;" x="224.27335" xlink:href="#meebb948439" y="30.334099"/>
     <use style="fill:#000080;stroke:#000080;" x="224.27335" xlink:href="#meebb948439" y="30.334099"/>
    </g>
   </g>
   <g id="line2d_30">
    <path d="M 38.440992 298.944 
L 38.440992 296.978562 
L 102.772397 296.978562 
L 102.772397 296.323416 
L 105.209745 296.323416 
L 105.209745 294.357977 
L 107.347841 294.357977 
L 107.347841 293.702831 
L 113.500792 293.702831 
L 113.500792 292.392539 
L 114.418861 292.392539 
L 114.418861 290.427101 
L 116.522527 290.427101 
L 116.522527 285.185932 
L 117.297733 285.185932 
L 117.297733 283.87564 
L 121.638301 283.87564 
L 121.638301 279.944763 
L 124.867052 279.944763 
L 124.867052 277.324179 
L 125.351508 277.324179 
L 125.351508 276.013887 
L 126.053856 276.013887 
L 126.053856 272.738156 
L 126.50685 272.738156 
L 126.50685 271.427864 
L 126.729009 271.427864 
L 126.729009 270.117572 
L 126.948374 270.117572 
L 126.948374 269.462426 
L 128.005624 269.462426 
L 128.005624 268.152133 
L 128.807571 268.152133 
L 128.807571 267.496987 
L 129.195127 267.496987 
L 129.195127 266.841841 
L 129.574256 266.841841 
L 129.574256 266.186695 
L 129.945319 266.186695 
L 129.945319 265.531549 
L 130.30865 265.531549 
L 130.30865 263.566111 
L 130.487516 263.566111 
L 130.487516 261.600672 
L 130.664567 261.600672 
L 130.664567 258.324942 
L 131.856005 258.324942 
L 131.856005 256.359504 
L 132.342714 256.359504 
L 132.342714 255.049211 
L 132.501978 255.049211 
L 132.501978 253.738919 
L 132.816208 253.738919 
L 132.816208 251.118335 
L 133.57787 251.118335 
L 133.57787 250.463189 
L 133.873458 250.463189 
L 133.873458 249.808043 
L 134.164119 249.808043 
L 134.164119 247.187458 
L 136.582658 247.187458 
L 136.582658 245.877166 
L 136.831795 245.877166 
L 136.831795 244.566874 
L 136.955041 244.566874 
L 136.955041 243.911728 
L 137.439497 243.911728 
L 137.439497 243.256582 
L 138.026733 243.256582 
L 138.026733 242.601435 
L 139.145019 242.601435 
L 139.145019 241.291143 
L 140.093612 241.291143 
L 140.093612 240.635997 
L 140.79731 240.635997 
L 140.79731 238.015413 
L 143.358447 238.015413 
L 143.358447 237.360267 
L 143.695448 237.360267 
L 143.778691 235.394828 
L 144.350522 235.394828 
L 144.430703 233.42939 
L 144.510517 233.42939 
L 144.510517 231.463952 
L 144.747789 231.463952 
L 144.747789 230.808806 
L 145.059213 230.808806 
L 145.059213 229.498513 
L 145.365173 229.498513 
L 145.440832 228.188221 
L 145.814278 228.188221 
L 145.814278 227.533075 
L 146.107383 227.533075 
L 146.107383 226.222783 
L 146.466968 226.222783 
L 146.466968 225.567637 
L 147.901141 225.567637 
L 147.901141 224.257345 
L 148.733265 224.257345 
L 148.79566 222.291906 
L 149.527485 222.291906 
L 149.527485 219.671322 
L 150.172372 219.671322 
L 150.172372 219.016176 
L 150.344189 219.016176 
L 150.344189 217.705884 
L 150.682827 217.705884 
L 150.682827 216.395591 
L 151.124351 216.395591 
L 151.124351 214.430153 
L 151.554972 214.430153 
L 151.554972 213.775007 
L 152.078714 213.775007 
L 152.078714 213.119861 
L 152.283884 213.119861 
L 152.283884 212.464715 
L 152.536999 212.464715 
L 152.536999 211.809569 
L 152.786492 211.809569 
L 152.786492 210.499277 
L 153.561699 210.499277 
L 153.561699 209.188984 
L 153.750233 209.188984 
L 153.79705 205.913254 
L 154.167129 205.913254 
L 154.212841 203.292669 
L 154.303908 203.292669 
L 154.349264 201.982377 
L 154.57429 201.982377 
L 154.663493 200.672085 
L 155.102793 200.672085 
L 155.102793 200.016939 
L 155.657823 200.016939 
L 155.657823 199.361793 
L 155.86668 199.361793 
L 155.86668 198.706647 
L 156.195732 198.706647 
L 156.195732 198.051501 
L 156.518691 198.051501 
L 156.518691 196.741208 
L 156.677955 196.741208 
L 156.757045 194.120624 
L 156.835778 194.120624 
L 156.835778 192.810332 
L 157.224197 192.810332 
L 157.300853 191.50004 
L 157.902267 191.50004 
L 157.902267 188.879455 
L 158.267884 188.879455 
L 158.376091 186.914017 
L 158.48363 186.914017 
L 158.554957 184.948579 
L 158.625992 184.948579 
L 158.661402 182.98314 
L 158.767202 182.98314 
L 158.872364 179.052264 
L 159.080804 179.052264 
L 159.184097 175.776533 
L 159.252621 175.776533 
L 159.320876 171.190511 
L 159.591258 171.190511 
L 159.591258 170.535364 
L 159.724893 170.535364 
L 159.758143 165.949342 
L 160.313893 165.949342 
L 160.313893 165.294196 
L 160.505887 165.294196 
L 160.505887 164.63905 
L 160.852479 164.63905 
L 160.883648 162.673611 
L 161.038665 162.673611 
L 161.100288 158.087589 
L 161.222884 158.087589 
L 161.222884 156.777296 
L 161.585586 156.777296 
L 161.585586 156.12215 
L 161.734513 156.12215 
L 161.734513 155.467004 
L 162.057744 155.467004 
L 162.057744 154.156712 
L 162.71483 154.156712 
L 162.770815 151.536128 
L 162.826621 151.536128 
L 162.826621 150.880981 
L 163.020547 150.880981 
L 163.103002 149.570689 
L 163.428979 149.570689 
L 163.428979 148.260397 
L 163.563025 148.260397 
L 163.669525 144.32952 
L 163.854349 144.32952 
L 163.854349 143.674374 
L 164.140886 143.674374 
L 164.218222 139.743498 
L 164.295217 139.743498 
L 164.295217 137.778059 
L 164.47356 137.778059 
L 164.574657 135.812621 
L 164.775111 135.812621 
L 164.775111 135.157475 
L 164.923954 135.157475 
L 165.022481 133.192037 
L 165.071537 133.192037 
L 165.071537 131.881745 
L 165.193576 131.881745 
L 165.266391 130.571452 
L 165.697012 130.571452 
L 165.697012 129.26116 
L 165.885039 129.26116 
L 165.885039 127.950868 
L 166.02474 127.950868 
L 166.117256 125.330284 
L 166.300829 125.330284 
L 166.300829 124.675137 
L 166.48249 124.675137 
L 166.48249 124.019991 
L 166.729224 124.019991 
L 166.729224 123.364845 
L 166.928532 123.364845 
L 166.928532 122.709699 
L 167.06015 122.709699 
L 167.06015 122.054553 
L 167.277329 122.054553 
L 167.277329 119.433969 
L 167.59811 119.433969 
L 167.59811 118.123676 
L 167.745812 118.123676 
L 167.850553 115.503092 
L 168.202038 115.503092 
L 168.304082 113.537654 
L 168.546579 113.537654 
L 168.546579 112.882508 
L 168.765944 112.882508 
L 168.845033 111.572215 
L 168.982583 111.572215 
L 169.080173 110.261923 
L 169.119057 110.261923 
L 169.119057 109.606777 
L 169.388841 109.606777 
L 169.388841 108.951631 
L 169.654516 108.951631 
L 169.654516 106.986193 
L 169.823193 106.986193 
L 169.823193 106.331047 
L 169.990255 106.331047 
L 169.990255 105.675901 
L 170.137423 105.675901 
L 170.137423 105.020754 
L 170.607318 105.020754 
L 170.607318 103.710462 
L 170.802371 103.710462 
L 170.890315 102.40017 
L 171.151517 102.40017 
L 171.168792 99.779586 
L 171.476854 99.779586 
L 171.54458 98.469293 
L 171.595202 98.469293 
L 171.628868 96.503855 
L 171.91244 96.503855 
L 171.91244 95.848709 
L 172.353551 95.848709 
L 172.353551 93.883271 
L 172.482136 93.883271 
L 172.577957 91.262686 
L 172.593876 91.262686 
L 172.62567 88.642102 
L 173.049317 88.642102 
L 173.14208 85.366371 
L 173.38706 85.366371 
L 173.462916 84.056079 
L 173.508272 84.056079 
L 173.508272 83.400933 
L 173.673575 83.400933 
L 173.673575 82.745787 
L 173.792818 82.745787 
L 173.822502 80.780349 
L 174.072796 80.780349 
L 174.174823 75.53918 
L 174.319548 75.53918 
L 174.420145 74.228888 
L 174.448781 74.228888 
L 174.448781 73.573742 
L 174.633778 73.573742 
L 174.662065 70.953157 
L 174.788794 70.953157 
L 174.788794 70.298011 
L 174.997985 70.298011 
L 174.997985 69.642865 
L 175.19099 69.642865 
L 175.19099 68.987719 
L 175.6777 68.987719 
L 175.730949 67.022281 
L 175.942337 67.022281 
L 175.942337 66.367135 
L 176.060126 66.367135 
L 176.112223 65.056842 
L 176.190077 65.056842 
L 176.190077 64.401696 
L 176.421575 64.401696 
L 176.421575 63.74655 
L 176.650041 63.74655 
L 176.650041 63.091404 
L 176.850639 63.091404 
L 176.8631 61.125966 
L 176.962469 61.125966 
L 177.036626 58.505381 
L 177.232851 58.505381 
L 177.232851 57.195089 
L 177.450996 57.195089 
L 177.547081 55.884797 
L 177.678338 55.884797 
L 177.773182 52.609066 
L 178.55918 52.609066 
L 178.649364 51.298774 
L 179.148138 51.298774 
L 179.191791 49.333336 
L 180.042657 49.333336 
L 180.042657 48.67819 
L 184.808696 48.67819 
L 184.808696 48.023044 
L 192.872422 48.023044 
L 192.872422 47.367898 
L 194.916522 47.367898 
L 194.916522 46.712752 
L 195.245203 46.712752 
L 195.245203 46.057605 
L 196.146232 46.057605 
L 196.146232 45.402459 
L 197.616171 45.402459 
L 197.616171 44.747313 
L 198.035513 44.747313 
L 198.035513 44.092167 
L 199.010309 44.092167 
L 199.010309 43.437021 
L 201.958024 43.437021 
L 201.958024 42.781875 
L 202.205893 42.781875 
L 202.205893 42.126729 
L 202.739395 42.126729 
L 202.739395 40.816437 
L 211.924991 40.816437 
L 211.924991 40.161291 
L 212.234186 40.161291 
L 212.234186 39.506144 
L 212.521881 39.506144 
L 212.521881 38.850998 
L 212.7501 38.850998 
L 212.7501 37.540706 
L 212.947075 37.540706 
L 212.947075 36.88556 
L 213.122393 36.88556 
L 213.122393 36.230414 
L 213.495292 36.230414 
L 213.495292 35.575268 
L 213.852917 35.575268 
L 213.931899 34.264976 
L 214.122656 34.264976 
L 214.226762 32.954683 
L 216.322186 32.954683 
L 216.322186 32.299537 
L 218.506542 32.299537 
L 218.506542 31.644391 
L 223.920987 31.644391 
L 223.920987 30.989245 
L 224.27335 30.989245 
L 224.27335 30.334099 
L 338.688 30.334099 
L 338.688 30.334099 
" style="fill:none;stroke:#000080;stroke-linecap:square;stroke-width:1.5;"/>
   </g>
   <g id="line2d_31">
    <defs>
     <path d="M 0 6 
C 1.591219 6 3.117479 5.367802 4.242641 4.242641 
C 5.367802 3.117479 6 1.591219 6 0 
C 6 -1.591219 5.367802 -3.117479 4.242641 -4.242641 
C 3.117479 -5.367802 1.591219 -6 0 -6 
C -1.591219 -6 -3.117479 -5.367802 -4.242641 -4.242641 
C -5.367802 -3.117479 -6 -1.591219 -6 0 
C -6 1.591219 -5.367802 3.117479 -4.242641 4.242641 
C -3.117479 5.367802 -1.591219 6 0 6 
z
" id="md8d4f684d3" style="stroke:#000080;stroke-width:1.5;"/>
    </defs>
    <g>
     <use style="fill-opacity:0;stroke:#000080;stroke-width:1.5;" x="131.856005" xlink:href="#md8d4f684d3" y="258.324942"/>
     <use style="fill-opacity:0;stroke:#000080;stroke-width:1.5;" x="164.218222" xlink:href="#md8d4f684d3" y="139.743498"/>
     <use style="fill-opacity:0;stroke:#000080;stroke-width:1.5;" x="202.739395" xlink:href="#md8d4f684d3" y="40.816437"/>
     <use style="fill-opacity:0;stroke:#000080;stroke-width:1.5;" x="224.27335" xlink:href="#md8d4f684d3" y="30.334099"/>
     <use style="fill-opacity:0;stroke:#000080;stroke-width:1.5;" x="224.27335" xlink:href="#md8d4f684d3" y="30.334099"/>
     <use style="fill-opacity:0;stroke:#000080;stroke-width:1.5;" x="338.688" xlink:href="#md8d4f684d3" y="30.334099"/>
    </g>
   </g>
   <g id="line2d_32">
    <path style="fill:none;stroke:#000080;stroke-linecap:square;stroke-width:1.5;"/>
    <g/>
   </g>
   <g id="line2d_33">
    <path clip-path="url(#pcabb0669cf)" d="M 211.60172 40.816437 
" style="fill:none;stroke:#000080;stroke-linecap:square;stroke-width:1.5;"/>
    <defs>
     <path d="M -12 12 
L 12 -12 
M -12 -12 
L 12 12 
" id="m65b49810c4" style="stroke:#000080;"/>
    </defs>
    <g clip-path="url(#pcabb0669cf)">
     <use style="fill:#000080;stroke:#000080;" x="211.60172" xlink:href="#m65b49810c4" y="40.816437"/>
    </g>
   </g>
   <g id="line2d_34">
    <defs>
     <path d="M 0 1.5 
C 0.397805 1.5 0.77937 1.341951 1.06066 1.06066 
C 1.341951 0.77937 1.5 0.397805 1.5 0 
C 1.5 -0.397805 1.341951 -0.77937 1.06066 -1.06066 
C 0.77937 -1.341951 0.397805 -1.5 0 -1.5 
C -0.397805 -1.5 -0.77937 -1.341951 -1.06066 -1.06066 
C -1.341951 -0.77937 -1.5 -0.397805 -1.5 0 
C -1.5 0.397805 -1.341951 0.77937 -1.06066 1.06066 
C -0.77937 1.341951 -0.397805 1.5 0 1.5 
z
" id="mc32ece0f7b" style="stroke:#ff00ff;"/>
    </defs>
    <g>
     <use style="fill:#ff00ff;stroke:#ff00ff;" x="163.814908" xlink:href="#mc32ece0f7b" y="246.532312"/>
     <use style="fill:#ff00ff;stroke:#ff00ff;" x="163.814908" xlink:href="#mc32ece0f7b" y="246.532312"/>
    </g>
   </g>
   <g id="line2d_35">
    <path d="M 38.440992 298.944 
L 38.440992 296.978562 
L 72.376266 296.978562 
L 72.376266 296.323416 
L 83.171864 296.323416 
L 83.171864 295.013123 
L 85.66744 295.013123 
L 85.66744 294.357977 
L 93.121756 294.357977 
L 93.121756 292.392539 
L 97.16421 292.392539 
L 97.16421 291.737393 
L 98.32726 291.737393 
L 98.32726 289.116809 
L 100.443706 289.116809 
L 100.443706 288.461662 
L 103.203018 288.461662 
L 103.203018 287.806516 
L 103.623262 287.806516 
L 103.623262 287.15137 
L 104.826449 287.15137 
L 104.826449 285.841078 
L 105.209745 285.841078 
L 105.209745 285.185932 
L 107.347841 285.185932 
L 107.347841 284.530786 
L 107.680028 284.530786 
L 107.680028 283.87564 
L 108.006005 283.87564 
L 108.006005 281.910201 
L 108.948899 281.910201 
L 108.948899 281.255055 
L 109.550313 281.255055 
L 109.550313 280.599909 
L 109.843417 280.599909 
L 109.843417 279.944763 
L 110.694282 279.944763 
L 110.694282 279.289617 
L 112.026172 279.289617 
L 112.026172 278.634471 
L 113.26352 278.634471 
L 113.26352 277.979325 
L 113.500792 277.979325 
L 113.500792 277.324179 
L 113.73488 277.324179 
L 113.73488 276.669033 
L 115.917635 276.669033 
L 115.917635 276.013887 
L 116.323218 276.013887 
L 116.323218 275.35874 
L 116.914437 275.35874 
L 116.914437 274.703594 
L 117.297733 274.703594 
L 117.297733 274.048448 
L 118.220662 274.048448 
L 118.220662 273.393302 
L 120.254726 273.393302 
L 120.254726 272.738156 
L 120.883236 272.738156 
L 120.883236 272.08301 
L 121.340187 272.08301 
L 121.340187 271.427864 
L 121.638301 271.427864 
L 121.638301 270.772718 
L 121.931406 270.772718 
L 121.931406 270.117572 
L 122.643312 270.117572 
L 122.643312 269.462426 
L 123.056911 269.462426 
L 123.056911 268.807279 
L 123.192626 268.807279 
L 123.192626 268.152133 
L 123.593547 268.152133 
L 123.593547 267.496987 
L 126.168212 267.496987 
L 126.168212 266.841841 
L 128.209594 266.841841 
L 128.209594 266.186695 
L 129.290685 266.186695 
L 129.290685 265.531549 
L 129.853291 265.531549 
L 129.853291 264.876403 
L 130.398313 264.876403 
L 130.398313 264.221257 
L 131.013364 264.221257 
L 131.013364 262.255818 
L 131.60746 262.255818 
L 131.60746 261.600672 
L 132.581068 261.600672 
L 132.581068 260.945526 
L 133.04822 260.945526 
L 133.04822 260.29038 
L 133.72629 260.29038 
L 133.72629 259.635234 
L 134.164119 259.635234 
L 134.164119 258.980088 
L 137.077422 258.980088 
L 137.077422 258.324942 
L 140.499195 258.324942 
L 140.499195 257.669796 
L 140.747977 257.669796 
L 140.747977 257.01465 
L 141.283115 257.01465 
L 141.283115 256.359504 
L 142.486301 256.359504 
L 142.486301 255.704357 
L 142.619936 255.704357 
L 142.619936 255.049211 
L 143.861538 255.049211 
L 143.861538 254.394065 
L 144.107744 254.394065 
L 144.107744 253.738919 
L 144.747789 253.738919 
L 144.747789 253.083773 
L 146.179895 253.083773 
L 146.179895 252.428627 
L 147.061745 252.428627 
L 147.061745 251.773481 
L 149.969756 251.773481 
L 149.969756 251.118335 
L 151.097081 251.118335 
L 151.205907 249.808043 
L 151.314058 249.808043 
L 151.314058 249.152896 
L 154.394502 249.152896 
L 154.394502 248.49775 
L 157.339055 248.49775 
L 157.339055 247.842604 
L 161.734513 247.842604 
L 161.734513 247.187458 
L 163.814908 247.187458 
L 163.814908 246.532312 
L 338.688 246.532312 
L 338.688 246.532312 
" style="fill:none;stroke:#ff00ff;stroke-linecap:square;stroke-width:1.5;"/>
   </g>
   <g id="line2d_36">
    <defs>
     <path d="M -0 8.485281 
L 5.091169 0 
L 0 -8.485281 
L -5.091169 -0 
z
" id="mdb989fb01d" style="stroke:#ff00ff;stroke-linejoin:miter;stroke-width:1.5;"/>
    </defs>
    <g>
     <use style="fill-opacity:0;stroke:#ff00ff;stroke-linejoin:miter;stroke-width:1.5;" x="105.209745" xlink:href="#mdb989fb01d" y="285.841078"/>
     <use style="fill-opacity:0;stroke:#ff00ff;stroke-linejoin:miter;stroke-width:1.5;" x="157.339055" xlink:href="#mdb989fb01d" y="247.842604"/>
     <use style="fill-opacity:0;stroke:#ff00ff;stroke-linejoin:miter;stroke-width:1.5;" x="163.814908" xlink:href="#mdb989fb01d" y="247.187458"/>
     <use style="fill-opacity:0;stroke:#ff00ff;stroke-linejoin:miter;stroke-width:1.5;" x="163.814908" xlink:href="#mdb989fb01d" y="246.532312"/>
     <use style="fill-opacity:0;stroke:#ff00ff;stroke-linejoin:miter;stroke-width:1.5;" x="163.814908" xlink:href="#mdb989fb01d" y="246.532312"/>
     <use style="fill-opacity:0;stroke:#ff00ff;stroke-linejoin:miter;stroke-width:1.5;" x="338.688" xlink:href="#mdb989fb01d" y="246.532312"/>
    </g>
   </g>
   <g id="line2d_37">
    <path style="fill:none;stroke:#ff00ff;stroke-linecap:square;stroke-width:1.5;"/>
    <g/>
   </g>
   <g id="line2d_38">
    <path clip-path="url(#pcabb0669cf)" d="M 92.34655 294.357977 
" style="fill:none;stroke:#ff00ff;stroke-linecap:square;stroke-width:1.5;"/>
    <defs>
     <path d="M -12 12 
L 12 -12 
M -12 -12 
L 12 12 
" id="mdd9f3fd378" style="stroke:#ff00ff;"/>
    </defs>
    <g clip-path="url(#pcabb0669cf)">
     <use style="fill:#ff00ff;stroke:#ff00ff;" x="92.34655" xlink:href="#mdd9f3fd378" y="294.357977"/>
    </g>
   </g>
   <g id="line2d_39">
    <defs>
     <path d="M 0 1.5 
C 0.397805 1.5 0.77937 1.341951 1.06066 1.06066 
C 1.341951 0.77937 1.5 0.397805 1.5 0 
C 1.5 -0.397805 1.341951 -0.77937 1.06066 -1.06066 
C 0.77937 -1.341951 0.397805 -1.5 0 -1.5 
C -0.397805 -1.5 -0.77937 -1.341951 -1.06066 -1.06066 
C -1.341951 -0.77937 -1.5 -0.397805 -1.5 0 
C -1.5 0.397805 -1.341951 0.77937 -1.06066 1.06066 
C -0.77937 1.341951 -0.397805 1.5 0 1.5 
z
" id="m072255e26a" style="stroke:#ff7500;"/>
    </defs>
    <g>
     <use style="fill:#ff7500;stroke:#ff7500;" x="243.201296" xlink:href="#m072255e26a" y="36.88556"/>
     <use style="fill:#ff7500;stroke:#ff7500;" x="243.201296" xlink:href="#m072255e26a" y="36.88556"/>
    </g>
   </g>
   <g id="line2d_40">
    <path d="M 38.440992 298.944 
L 38.440992 298.288854 
L 78.59642 298.288854 
L 78.59642 290.427101 
L 84.464254 290.427101 
L 84.464254 289.771955 
L 88.846997 289.771955 
L 88.846997 281.910201 
L 90.684409 281.910201 
L 90.684409 276.013887 
L 92.34655 276.013887 
L 92.34655 272.08301 
L 95.259853 272.08301 
L 95.259853 262.910965 
L 96.552242 262.910965 
L 96.552242 260.29038 
L 97.755429 260.29038 
L 97.755429 258.980088 
L 99.938184 258.980088 
L 99.938184 252.428627 
L 100.934985 252.428627 
L 100.934985 245.877166 
L 101.877879 245.877166 
L 101.877879 243.256582 
L 103.623262 243.256582 
L 103.623262 237.360267 
L 104.434538 237.360267 
L 104.434538 234.084536 
L 105.209745 234.084536 
L 105.209745 232.774244 
L 105.951954 232.774244 
L 105.951954 230.15366 
L 106.66386 230.15366 
L 106.66386 226.877929 
L 107.347841 226.877929 
L 107.347841 220.981614 
L 108.006005 220.981614 
L 108.006005 215.740445 
L 108.640231 215.740445 
L 108.640231 213.775007 
L 109.252198 213.775007 
L 109.252198 209.188984 
L 109.843417 209.188984 
L 109.843417 207.223546 
L 110.415248 207.223546 
L 110.415248 202.637523 
L 110.968922 202.637523 
L 110.968922 201.982377 
L 111.505558 201.982377 
L 111.505558 200.672085 
L 112.026172 200.672085 
L 112.026172 199.361793 
L 112.531694 199.361793 
L 112.531694 196.086062 
L 113.022974 196.086062 
L 113.022974 192.155186 
L 113.500792 192.155186 
L 113.500792 189.534601 
L 114.418861 189.534601 
L 114.418861 185.603725 
L 115.291007 185.603725 
L 115.291007 182.327994 
L 115.711251 182.327994 
L 115.711251 177.086825 
L 116.121606 177.086825 
L 116.121606 173.811095 
L 116.522527 173.811095 
L 116.522527 171.845657 
L 116.914437 171.845657 
L 116.914437 169.225072 
L 117.672786 169.225072 
L 117.672786 165.949342 
L 118.039942 165.949342 
L 118.039942 163.983903 
L 119.43583 163.983903 
L 119.43583 162.673611 
L 119.768017 162.673611 
L 119.768017 160.708173 
L 120.254726 160.708173 
L 120.254726 159.397881 
L 120.41399 159.397881 
L 120.41399 156.12215 
L 121.340187 156.12215 
L 121.340187 155.467004 
L 121.638301 155.467004 
L 121.638301 154.156712 
L 122.219665 154.156712 
L 122.219665 152.84642 
L 122.503236 152.84642 
L 122.503236 148.260397 
L 122.782271 148.260397 
L 122.782271 147.605251 
L 123.593547 147.605251 
L 123.593547 146.294959 
L 123.855796 146.294959 
L 123.855796 144.32952 
L 124.114161 144.32952 
L 124.114161 143.674374 
L 124.368753 143.674374 
L 124.368753 142.364082 
L 125.351508 142.364082 
L 125.351508 141.708936 
L 125.588781 141.708936 
L 125.588781 139.743498 
L 126.053856 139.743498 
L 126.053856 139.088352 
L 127.165014 139.088352 
L 127.165014 137.778059 
L 127.378995 137.778059 
L 127.378995 136.467767 
L 127.590383 136.467767 
L 127.590383 134.502329 
L 129.002426 134.502329 
L 129.002426 133.847183 
L 129.760775 133.847183 
L 129.760775 132.536891 
L 131.185181 132.536891 
L 131.270459 130.571452 
L 132.971225 130.571452 
L 132.971225 128.606014 
L 134.164119 128.606014 
L 134.164119 127.950868 
L 137.198951 127.950868 
L 137.198951 125.98543 
L 138.026733 125.98543 
L 138.026733 123.364845 
L 138.482688 123.364845 
L 138.482688 122.709699 
L 139.036363 122.709699 
L 139.145019 121.399407 
L 139.253002 121.399407 
L 139.253002 120.744261 
L 139.572998 120.744261 
L 139.572998 119.433969 
L 139.835248 119.433969 
L 139.835248 118.778823 
L 140.297583 118.778823 
L 140.297583 118.123676 
L 140.499195 118.123676 
L 140.499195 117.46853 
L 140.698504 117.46853 
L 140.698504 115.503092 
L 141.090414 115.503092 
L 141.090414 112.227362 
L 146.644018 112.227362 
L 146.644018 111.572215 
L 147.027314 111.572215 
L 147.027314 110.917069 
L 147.736463 110.917069 
L 147.736463 110.261923 
L 148.79566 110.261923 
L 148.79566 109.606777 
L 149.940618 109.606777 
L 149.940618 108.951631 
L 151.015013 108.951631 
L 151.015013 108.296485 
L 152.130233 108.296485 
L 152.130233 107.641339 
L 152.835965 107.641339 
L 152.835965 106.331047 
L 154.212841 106.331047 
L 154.212841 105.675901 
L 155.059358 105.675901 
L 155.102793 103.055316 
L 155.189341 103.055316 
L 155.189341 102.40017 
L 155.720743 102.40017 
L 155.720743 101.745024 
L 155.86668 101.745024 
L 155.86668 100.434732 
L 158.907277 100.434732 
L 158.907277 99.779586 
L 159.658204 99.779586 
L 159.658204 99.12444 
L 165.506937 99.12444 
L 165.506937 98.469293 
L 166.884438 98.469293 
L 166.994465 97.159001 
L 167.298899 97.159001 
L 167.298899 95.848709 
L 167.933895 95.848709 
L 167.933895 93.883271 
L 168.181557 93.883271 
L 168.181557 93.228125 
L 168.344733 93.228125 
L 168.344733 92.572979 
L 172.689086 92.572979 
L 172.689086 91.262686 
L 172.893608 91.262686 
L 172.893608 90.60754 
L 173.018286 90.60754 
L 173.018286 89.952394 
L 173.807666 89.952394 
L 173.807666 89.297248 
L 173.970168 89.297248 
L 173.970168 88.642102 
L 175.177275 88.642102 
L 175.177275 87.986956 
L 177.867512 87.986956 
L 177.949635 86.021518 
L 178.101129 86.021518 
L 178.101129 85.366371 
L 178.354545 85.366371 
L 178.457163 84.056079 
L 178.468527 84.056079 
L 178.513913 82.745787 
L 178.694282 82.745787 
L 178.694282 80.125203 
L 179.005507 80.125203 
L 179.005507 78.81491 
L 179.300447 78.81491 
L 179.332913 77.504618 
L 179.419193 77.504618 
L 179.419193 76.194326 
L 179.969841 76.194326 
L 180.053034 73.573742 
L 180.493521 73.573742 
L 180.493521 72.918596 
L 180.609464 72.918596 
L 180.609464 71.608303 
L 180.784433 71.608303 
L 180.784433 70.953157 
L 181.591186 70.953157 
L 181.591186 70.298011 
L 182.174963 70.298011 
L 182.207084 68.987719 
L 182.371348 68.987719 
L 182.452904 66.367135 
L 183.41577 66.367135 
L 183.41577 65.711988 
L 183.581799 65.711988 
L 183.581799 65.056842 
L 186.255543 65.056842 
L 186.255543 64.401696 
L 186.601029 64.401696 
L 186.601029 63.74655 
L 188.023758 63.74655 
L 188.023758 63.091404 
L 189.557041 63.091404 
L 189.557041 62.436258 
L 190.281696 62.436258 
L 190.281696 61.781112 
L 190.740163 61.781112 
L 190.799085 60.47082 
L 191.175925 60.47082 
L 191.175925 59.815674 
L 191.747579 59.815674 
L 191.747579 59.160527 
L 192.290805 59.160527 
L 192.290805 58.505381 
L 192.424009 58.505381 
L 192.510556 57.195089 
L 192.897274 57.195089 
L 192.897274 56.539943 
L 193.273173 56.539943 
L 193.273173 55.884797 
L 194.113039 55.884797 
L 194.113039 55.229651 
L 194.331709 55.229651 
L 194.331709 54.574505 
L 194.60181 54.574505 
L 194.60181 53.919359 
L 195.469505 53.919359 
L 195.469505 53.264213 
L 195.70365 53.264213 
L 195.70365 52.609066 
L 196.593939 52.609066 
L 196.593939 51.95392 
L 197.688023 51.95392 
L 197.688023 51.298774 
L 197.85329 51.298774 
L 197.85329 50.643628 
L 199.310321 50.643628 
L 199.411469 48.67819 
L 199.931831 48.67819 
L 199.973261 47.367898 
L 201.670577 47.367898 
L 201.670577 46.712752 
L 202.833772 46.712752 
L 202.833772 46.057605 
L 203.672994 46.057605 
L 203.672994 45.402459 
L 204.190064 45.402459 
L 204.190064 44.747313 
L 206.3429 44.747313 
L 206.3429 44.092167 
L 207.377633 44.092167 
L 207.377633 43.437021 
L 210.620407 43.437021 
L 210.620407 42.781875 
L 212.183307 42.781875 
L 212.183307 42.126729 
L 215.772358 42.126729 
L 215.772358 41.471583 
L 216.237715 41.471583 
L 216.237715 40.816437 
L 218.572186 40.816437 
L 218.572186 40.161291 
L 219.558476 40.161291 
L 219.558476 39.506144 
L 219.675458 39.506144 
L 219.675458 38.850998 
L 225.277226 38.850998 
L 225.277226 38.195852 
L 232.332723 38.195852 
L 232.332723 37.540706 
L 243.201296 37.540706 
L 243.201296 36.88556 
L 338.688 36.88556 
L 338.688 36.88556 
" style="fill:none;stroke:#ff7500;stroke-linecap:square;stroke-width:1.5;"/>
   </g>
   <g id="line2d_41">
    <defs>
     <path d="M 0 -6 
L -1.347084 -1.854102 
L -5.706339 -1.854102 
L -2.179628 0.708204 
L -3.526712 4.854102 
L -0 2.291796 
L 3.526712 4.854102 
L 2.179628 0.708204 
L 5.706339 -1.854102 
L 1.347084 -1.854102 
z
" id="md510a4b2db" style="stroke:#ff7500;stroke-linejoin:bevel;stroke-width:1.5;"/>
    </defs>
    <g>
     <use style="fill-opacity:0;stroke:#ff7500;stroke-linejoin:bevel;stroke-width:1.5;" x="110.968922" xlink:href="#md510a4b2db" y="202.637523"/>
     <use style="fill-opacity:0;stroke:#ff7500;stroke-linejoin:bevel;stroke-width:1.5;" x="140.698504" xlink:href="#md510a4b2db" y="117.46853"/>
     <use style="fill-opacity:0;stroke:#ff7500;stroke-linejoin:bevel;stroke-width:1.5;" x="225.277226" xlink:href="#md510a4b2db" y="38.850998"/>
     <use style="fill-opacity:0;stroke:#ff7500;stroke-linejoin:bevel;stroke-width:1.5;" x="243.201296" xlink:href="#md510a4b2db" y="36.88556"/>
     <use style="fill-opacity:0;stroke:#ff7500;stroke-linejoin:bevel;stroke-width:1.5;" x="243.201296" xlink:href="#md510a4b2db" y="36.88556"/>
     <use style="fill-opacity:0;stroke:#ff7500;stroke-linejoin:bevel;stroke-width:1.5;" x="338.688" xlink:href="#md510a4b2db" y="36.88556"/>
    </g>
   </g>
   <g id="line2d_42">
    <path style="fill:none;stroke:#ff7500;stroke-linecap:square;stroke-width:1.5;"/>
    <g/>
   </g>
   <g id="line2d_43">
    <path clip-path="url(#pcabb0669cf)" d="M 155.86668 100.434732 
" style="fill:none;stroke:#ff7500;stroke-linecap:square;stroke-width:1.5;"/>
    <defs>
     <path d="M -12 12 
L 12 -12 
M -12 -12 
L 12 12 
" id="m8140ffe1b2" style="stroke:#ff7500;"/>
    </defs>
    <g clip-path="url(#pcabb0669cf)">
     <use style="fill:#ff7500;stroke:#ff7500;" x="155.86668" xlink:href="#m8140ffe1b2" y="100.434732"/>
    </g>
   </g>
   <g id="line2d_44">
    <defs>
     <path d="M 0 1.5 
C 0.397805 1.5 0.77937 1.341951 1.06066 1.06066 
C 1.341951 0.77937 1.5 0.397805 1.5 0 
C 1.5 -0.397805 1.341951 -0.77937 1.06066 -1.06066 
C 0.77937 -1.341951 0.397805 -1.5 0 -1.5 
C -0.397805 -1.5 -0.77937 -1.341951 -1.06066 -1.06066 
C -1.341951 -0.77937 -1.5 -0.397805 -1.5 0 
C -1.5 0.397805 -1.341951 0.77937 -1.06066 1.06066 
C -0.77937 1.341951 -0.397805 1.5 0 1.5 
z
" id="m0b03432722" style="stroke:#6495ed;"/>
    </defs>
    <g>
     <use style="fill:#6495ed;stroke:#6495ed;" x="176.254691" xlink:href="#m0b03432722" y="253.083773"/>
     <use style="fill:#6495ed;stroke:#6495ed;" x="176.254691" xlink:href="#m0b03432722" y="253.083773"/>
    </g>
   </g>
   <g id="line2d_45">
    <path d="M 38.440992 298.944 
L 38.440992 295.66827 
L 95.918017 295.66827 
L 95.918017 294.357977 
L 102.330873 294.357977 
L 102.330873 293.047685 
L 102.772397 293.047685 
L 102.772397 292.392539 
L 104.434538 292.392539 
L 104.434538 291.737393 
L 104.826449 291.737393 
L 104.826449 291.082247 
L 114.860386 291.082247 
L 114.860386 290.427101 
L 115.502395 290.427101 
L 115.502395 289.116809 
L 115.917635 289.116809 
L 115.917635 288.461662 
L 116.121606 288.461662 
L 116.121606 287.806516 
L 116.323218 287.806516 
L 116.323218 287.15137 
L 116.719583 287.15137 
L 116.719583 286.496224 
L 122.782271 286.496224 
L 122.782271 285.841078 
L 126.729009 285.841078 
L 126.729009 285.185932 
L 127.695124 285.185932 
L 127.799239 283.87564 
L 127.902737 283.87564 
L 128.005624 282.565348 
L 128.411207 282.565348 
L 128.411207 281.910201 
L 130.487516 281.910201 
L 130.487516 281.255055 
L 131.013364 281.255055 
L 131.013364 280.599909 
L 131.690703 280.599909 
L 131.690703 279.944763 
L 133.652238 279.944763 
L 133.652238 279.289617 
L 134.236034 279.289617 
L 134.307653 277.979325 
L 134.37898 277.979325 
L 134.37898 277.324179 
L 135.482227 277.324179 
L 135.482227 276.669033 
L 137.077422 276.669033 
L 137.077422 276.013887 
L 140.39868 276.013887 
L 140.39868 275.35874 
L 140.64889 275.35874 
L 140.64889 274.703594 
L 141.80232 274.703594 
L 141.80232 274.048448 
L 142.53096 274.048448 
L 142.53096 273.393302 
L 143.527762 273.393302 
L 143.527762 272.738156 
L 144.981877 272.738156 
L 144.981877 272.08301 
L 145.212864 272.08301 
L 145.212864 271.427864 
L 145.703082 271.427864 
L 145.703082 270.772718 
L 147.130404 270.772718 
L 147.130404 270.117572 
L 151.76636 270.117572 
L 151.76636 269.462426 
L 151.975216 269.462426 
L 151.975216 268.807279 
L 152.104493 268.807279 
L 152.104493 268.152133 
L 152.410901 268.152133 
L 152.410901 267.496987 
L 152.885298 267.496987 
L 152.885298 266.186695 
L 153.226778 266.186695 
L 153.226778 265.531549 
L 154.972161 265.531549 
L 154.972161 264.876403 
L 156.498681 264.876403 
L 156.498681 264.221257 
L 157.976006 264.221257 
L 157.976006 263.566111 
L 159.388866 263.566111 
L 159.388866 262.910965 
L 159.956318 262.910965 
L 159.98913 261.600672 
L 160.249422 261.600672 
L 160.249422 260.945526 
L 160.569418 260.945526 
L 160.664283 259.635234 
L 161.39006 259.635234 
L 161.39006 258.980088 
L 161.764147 258.980088 
L 161.764147 258.324942 
L 163.549667 258.324942 
L 163.549667 257.669796 
L 165.978297 257.669796 
L 165.978297 257.01465 
L 166.829163 257.01465 
L 166.829163 256.359504 
L 166.972515 256.359504 
L 166.972515 255.704357 
L 170.219663 255.704357 
L 170.219663 255.049211 
L 174.189349 255.049211 
L 174.189349 254.394065 
L 175.55729 254.394065 
L 175.55729 253.738919 
L 176.254691 253.738919 
L 176.254691 253.083773 
L 338.688 253.083773 
L 338.688 253.083773 
" style="fill:none;stroke:#6495ed;stroke-linecap:square;stroke-width:1.5;"/>
   </g>
   <g id="line2d_46">
    <defs>
     <path d="M -0 6 
L 6 -6 
L -6 -6 
z
" id="mb97b5cae47" style="stroke:#6495ed;stroke-linejoin:miter;stroke-width:1.5;"/>
    </defs>
    <g>
     <use style="fill-opacity:0;stroke:#6495ed;stroke-linejoin:miter;stroke-width:1.5;" x="141.80232" xlink:href="#mb97b5cae47" y="274.048448"/>
     <use style="fill-opacity:0;stroke:#6495ed;stroke-linejoin:miter;stroke-width:1.5;" x="176.254691" xlink:href="#mb97b5cae47" y="253.738919"/>
     <use style="fill-opacity:0;stroke:#6495ed;stroke-linejoin:miter;stroke-width:1.5;" x="176.254691" xlink:href="#mb97b5cae47" y="253.083773"/>
     <use style="fill-opacity:0;stroke:#6495ed;stroke-linejoin:miter;stroke-width:1.5;" x="176.254691" xlink:href="#mb97b5cae47" y="253.083773"/>
     <use style="fill-opacity:0;stroke:#6495ed;stroke-linejoin:miter;stroke-width:1.5;" x="338.688" xlink:href="#mb97b5cae47" y="253.083773"/>
    </g>
   </g>
   <g id="line2d_47">
    <path style="fill:none;stroke:#6495ed;stroke-linecap:square;stroke-width:1.5;"/>
    <g/>
   </g>
   <g id="line2d_48">
    <path clip-path="url(#pcabb0669cf)" d="M 104.434538 292.392539 
" style="fill:none;stroke:#6495ed;stroke-linecap:square;stroke-width:1.5;"/>
    <defs>
     <path d="M -12 12 
L 12 -12 
M -12 -12 
L 12 12 
" id="m12f3309cb7" style="stroke:#6495ed;"/>
    </defs>
    <g clip-path="url(#pcabb0669cf)">
     <use style="fill:#6495ed;stroke:#6495ed;" x="104.434538" xlink:href="#m12f3309cb7" y="292.392539"/>
    </g>
   </g>
   <g id="line2d_49">
    <defs>
     <path d="M 0 1.5 
C 0.397805 1.5 0.77937 1.341951 1.06066 1.06066 
C 1.341951 0.77937 1.5 0.397805 1.5 0 
C 1.5 -0.397805 1.341951 -0.77937 1.06066 -1.06066 
C 0.77937 -1.341951 0.397805 -1.5 0 -1.5 
C -0.397805 -1.5 -0.77937 -1.341951 -1.06066 -1.06066 
C -1.341951 -0.77937 -1.5 -0.397805 -1.5 0 
C -1.5 0.397805 -1.341951 0.77937 -1.06066 1.06066 
C -0.77937 1.341951 -0.397805 1.5 0 1.5 
z
" id="md3154d3f16" style="stroke:#ff0000;"/>
    </defs>
    <g>
     <use style="fill:#ff0000;stroke:#ff0000;" x="168.293904" xlink:href="#md3154d3f16" y="213.775007"/>
     <use style="fill:#ff0000;stroke:#ff0000;" x="168.293904" xlink:href="#md3154d3f16" y="213.775007"/>
    </g>
   </g>
   <g id="line2d_50">
    <path d="M 38.440992 298.944 
L 38.440992 296.323416 
L 78.59642 296.323416 
L 78.59642 295.66827 
L 95.259853 295.66827 
L 95.259853 287.15137 
L 99.938184 287.15137 
L 99.938184 281.910201 
L 103.623262 281.910201 
L 103.623262 277.324179 
L 104.033617 277.324179 
L 104.033617 276.669033 
L 108.006005 276.669033 
L 108.006005 276.013887 
L 111.505558 276.013887 
L 111.505558 274.048448 
L 111.767808 274.048448 
L 111.767808 272.738156 
L 112.779064 272.738156 
L 112.779064 272.08301 
L 113.500792 272.08301 
L 113.500792 269.462426 
L 114.641021 269.462426 
L 114.641021 268.152133 
L 115.711251 268.152133 
L 115.711251 267.496987 
L 116.323218 267.496987 
L 116.323218 266.841841 
L 117.857331 266.841841 
L 117.857331 264.876403 
L 118.576578 264.876403 
L 118.576578 264.221257 
L 120.093994 264.221257 
L 120.093994 263.566111 
L 120.41399 263.566111 
L 120.41399 262.910965 
L 120.571812 262.910965 
L 120.571812 260.29038 
L 120.883236 260.29038 
L 120.883236 259.635234 
L 121.189196 259.635234 
L 121.189196 258.980088 
L 121.785469 258.980088 
L 121.785469 258.324942 
L 122.362027 258.324942 
L 122.362027 257.669796 
L 122.503236 257.669796 
L 122.503236 257.01465 
L 123.460928 257.01465 
L 123.460928 255.049211 
L 123.985457 255.049211 
L 123.985457 254.394065 
L 124.619683 254.394065 
L 124.619683 253.083773 
L 124.743806 253.083773 
L 124.743806 252.428627 
L 124.989434 252.428627 
L 124.989434 251.773481 
L 125.110962 251.773481 
L 125.110962 250.463189 
L 125.23165 250.463189 
L 125.23165 249.808043 
L 125.588781 249.808043 
L 125.588781 247.842604 
L 125.706218 247.842604 
L 125.706218 247.187458 
L 126.053856 247.187458 
L 126.053856 246.532312 
L 126.168212 246.532312 
L 126.168212 245.877166 
L 127.48501 245.877166 
L 127.48501 245.22202 
L 127.799239 245.22202 
L 127.799239 244.566874 
L 129.002426 244.566874 
L 129.002426 243.911728 
L 129.760775 243.911728 
L 129.853291 242.601435 
L 130.839837 242.601435 
L 130.839837 241.946289 
L 131.270459 241.946289 
L 131.270459 241.291143 
L 131.938072 241.291143 
L 131.938072 240.635997 
L 132.342714 240.635997 
L 132.342714 239.980851 
L 132.971225 239.980851 
L 132.971225 238.670559 
L 134.520763 238.670559 
L 134.520763 238.015413 
L 135.076644 238.015413 
L 135.076644 237.360267 
L 136.073445 237.360267 
L 136.073445 236.705121 
L 136.393441 236.705121 
L 136.393441 236.049974 
L 136.519813 236.049974 
L 136.519813 235.394828 
L 136.893527 235.394828 
L 136.893527 234.739682 
L 137.138292 234.739682 
L 137.138292 233.42939 
L 138.256201 233.42939 
L 138.256201 232.774244 
L 139.090775 232.774244 
L 139.090775 232.119098 
L 140.246813 232.119098 
L 140.297583 230.808806 
L 140.79731 230.808806 
L 140.79731 229.498513 
L 141.187031 229.498513 
L 141.283115 228.188221 
L 142.840411 228.188221 
L 142.840411 227.533075 
L 143.695448 227.533075 
L 143.695448 226.877929 
L 144.148442 226.877929 
L 144.229555 225.567637 
L 145.020588 225.567637 
L 145.020588 224.912491 
L 147.096109 224.912491 
L 147.096109 224.257345 
L 147.86833 224.257345 
L 147.86833 223.602199 
L 148.48143 223.602199 
L 148.48143 222.947052 
L 150.287105 222.947052 
L 150.287105 222.291906 
L 151.740076 222.291906 
L 151.740076 221.63676 
L 152.587184 221.63676 
L 152.587184 220.981614 
L 152.786492 220.981614 
L 152.786492 220.326468 
L 153.609024 220.326468 
L 153.632638 219.016176 
L 154.19 219.016176 
L 154.19 218.36103 
L 155.6368 218.36103 
L 155.6368 217.705884 
L 156.717545 217.705884 
L 156.717545 216.395591 
L 163.946031 216.395591 
L 163.985177 215.085299 
L 166.357802 215.085299 
L 166.357802 214.430153 
L 168.293904 214.430153 
L 168.293904 213.775007 
L 338.688 213.775007 
L 338.688 213.775007 
" style="fill:none;stroke:#ff0000;stroke-linecap:square;stroke-width:1.5;"/>
   </g>
   <g id="line2d_51">
    <defs>
     <path d="M 0 -6 
L -5.196152 -3 
L -5.196152 3 
L -0 6 
L 5.196152 3 
L 5.196152 -3 
z
" id="md81253bb43" style="stroke:#ff0000;stroke-linejoin:miter;stroke-width:1.5;"/>
    </defs>
    <g>
     <use style="fill-opacity:0;stroke:#ff0000;stroke-linejoin:miter;stroke-width:1.5;" x="120.093994" xlink:href="#md81253bb43" y="263.566111"/>
     <use style="fill-opacity:0;stroke:#ff0000;stroke-linejoin:miter;stroke-width:1.5;" x="168.293904" xlink:href="#md81253bb43" y="214.430153"/>
     <use style="fill-opacity:0;stroke:#ff0000;stroke-linejoin:miter;stroke-width:1.5;" x="168.293904" xlink:href="#md81253bb43" y="214.430153"/>
     <use style="fill-opacity:0;stroke:#ff0000;stroke-linejoin:miter;stroke-width:1.5;" x="168.293904" xlink:href="#md81253bb43" y="213.775007"/>
     <use style="fill-opacity:0;stroke:#ff0000;stroke-linejoin:miter;stroke-width:1.5;" x="168.293904" xlink:href="#md81253bb43" y="213.775007"/>
     <use style="fill-opacity:0;stroke:#ff0000;stroke-linejoin:miter;stroke-width:1.5;" x="338.688" xlink:href="#md81253bb43" y="213.775007"/>
    </g>
   </g>
   <g id="line2d_52">
    <path style="fill:none;stroke:#ff0000;stroke-linecap:square;stroke-width:1.5;"/>
    <g/>
   </g>
   <g id="line2d_53">
    <path clip-path="url(#pcabb0669cf)" d="M 108.948899 276.013887 
" style="fill:none;stroke:#ff0000;stroke-linecap:square;stroke-width:1.5;"/>
    <defs>
     <path d="M -12 12 
L 12 -12 
M -12 -12 
L 12 12 
" id="me08f887a3b" style="stroke:#ff0000;"/>
    </defs>
    <g clip-path="url(#pcabb0669cf)">
     <use style="fill:#ff0000;stroke:#ff0000;" x="108.948899" xlink:href="#me08f887a3b" y="276.013887"/>
    </g>
   </g>
   <g id="line2d_54">
    <path d="M 338.688 253.083773 
L 369.60768 293.571802 
" style="fill:none;stroke:#6495ed;stroke-linecap:square;stroke-width:1.5;"/>
    <g>
     <use style="fill-opacity:0;stroke:#6495ed;stroke-linejoin:miter;stroke-width:1.5;" x="338.688" xlink:href="#mb97b5cae47" y="253.083773"/>
     <use style="fill-opacity:0;stroke:#6495ed;stroke-linejoin:miter;stroke-width:1.5;" x="369.60768" xlink:href="#mb97b5cae47" y="293.571802"/>
    </g>
   </g>
   <g id="line2d_55">
    <path d="M 338.688 246.532312 
L 369.60768 229.105426 
" style="fill:none;stroke:#ff00ff;stroke-linecap:square;stroke-width:1.5;"/>
    <g>
     <use style="fill-opacity:0;stroke:#ff00ff;stroke-linejoin:miter;stroke-width:1.5;" x="338.688" xlink:href="#mdb989fb01d" y="246.532312"/>
     <use style="fill-opacity:0;stroke:#ff00ff;stroke-linejoin:miter;stroke-width:1.5;" x="369.60768" xlink:href="#mdb989fb01d" y="229.105426"/>
    </g>
   </g>
   <g id="line2d_56">
    <path d="M 338.688 213.775007 
L 369.60768 164.63905 
" style="fill:none;stroke:#ff0000;stroke-linecap:square;stroke-width:1.5;"/>
    <g>
     <use style="fill-opacity:0;stroke:#ff0000;stroke-linejoin:miter;stroke-width:1.5;" x="338.688" xlink:href="#md81253bb43" y="213.775007"/>
     <use style="fill-opacity:0;stroke:#ff0000;stroke-linejoin:miter;stroke-width:1.5;" x="369.60768" xlink:href="#md81253bb43" y="164.63905"/>
    </g>
   </g>
   <g id="line2d_57">
    <path d="M 338.688 36.88556 
L 369.60768 100.172673 
" style="fill:none;stroke:#ff7500;stroke-linecap:square;stroke-width:1.5;"/>
    <g>
     <use style="fill-opacity:0;stroke:#ff7500;stroke-linejoin:bevel;stroke-width:1.5;" x="338.688" xlink:href="#md510a4b2db" y="36.88556"/>
     <use style="fill-opacity:0;stroke:#ff7500;stroke-linejoin:bevel;stroke-width:1.5;" x="369.60768" xlink:href="#md510a4b2db" y="100.172673"/>
    </g>
   </g>
   <g id="line2d_58">
    <path d="M 338.688 30.334099 
L 369.60768 35.706297 
" style="fill:none;stroke:#000080;stroke-linecap:square;stroke-width:1.5;"/>
    <g>
     <use style="fill-opacity:0;stroke:#000080;stroke-width:1.5;" x="338.688" xlink:href="#md8d4f684d3" y="30.334099"/>
     <use style="fill-opacity:0;stroke:#000080;stroke-width:1.5;" x="369.60768" xlink:href="#md8d4f684d3" y="35.706297"/>
    </g>
   </g>
   <g id="line2d_59">
    <path d="M 338.688 298.944 
L 338.688 30.334099 
" style="fill:none;stroke:#000000;stroke-linecap:square;stroke-width:1.5;"/>
   </g>
   <g id="patch_3">
    <path d="M 57.6 298.944 
L 57.6 27.648 
" style="fill:none;stroke:#000000;stroke-linecap:square;stroke-linejoin:miter;stroke-width:0.8;"/>
   </g>
   <g id="patch_4">
    <path d="M 338.688 298.944 
L 338.688 27.648 
" style="fill:none;stroke:#000000;stroke-linecap:square;stroke-linejoin:miter;stroke-width:0.8;"/>
   </g>
   <g id="patch_5">
    <path d="M 57.6 298.944 
L 338.688 298.944 
" style="fill:none;stroke:#000000;stroke-linecap:square;stroke-linejoin:miter;stroke-width:0.8;"/>
   </g>
   <g id="patch_6">
    <path d="M 57.6 27.648 
L 338.688 27.648 
" style="fill:none;stroke:#000000;stroke-linecap:square;stroke-linejoin:miter;stroke-width:0.8;"/>
   </g>
   <g id="text_13">
    <!-- slsqp -->
    <g transform="translate(375.22944 298.262739)scale(0.17 -0.17)">
     <defs>
      <path d="M 14.796875 27.296875 
Q 14.796875 17.390625 18.875 11.75 
Q 22.953125 6.109375 30.078125 6.109375 
Q 37.203125 6.109375 41.296875 11.75 
Q 45.40625 17.390625 45.40625 27.296875 
Q 45.40625 37.203125 41.296875 42.84375 
Q 37.203125 48.484375 30.078125 48.484375 
Q 22.953125 48.484375 18.875 42.84375 
Q 14.796875 37.203125 14.796875 27.296875 
z
M 45.40625 8.203125 
Q 42.578125 3.328125 38.25 0.953125 
Q 33.9375 -1.421875 27.875 -1.421875 
Q 17.96875 -1.421875 11.734375 6.484375 
Q 5.515625 14.40625 5.515625 27.296875 
Q 5.515625 40.1875 11.734375 48.09375 
Q 17.96875 56 27.875 56 
Q 33.9375 56 38.25 53.625 
Q 42.578125 51.265625 45.40625 46.390625 
L 45.40625 54.6875 
L 54.390625 54.6875 
L 54.390625 -20.796875 
L 45.40625 -20.796875 
z
" id="DejaVuSans-113"/>
     </defs>
     <use xlink:href="#DejaVuSans-115"/>
     <use x="52.099609" xlink:href="#DejaVuSans-108"/>
     <use x="79.882812" xlink:href="#DejaVuSans-115"/>
     <use x="131.982422" xlink:href="#DejaVuSans-113"/>
     <use x="195.458984" xlink:href="#DejaVuSans-112"/>
    </g>
   </g>
   <g id="text_14">
    <!-- cobyla -->
    <g transform="translate(375.22944 233.796363)scale(0.17 -0.17)">
     <defs>
      <path d="M 48.6875 27.296875 
Q 48.6875 37.203125 44.609375 42.84375 
Q 40.53125 48.484375 33.40625 48.484375 
Q 26.265625 48.484375 22.1875 42.84375 
Q 18.109375 37.203125 18.109375 27.296875 
Q 18.109375 17.390625 22.1875 11.75 
Q 26.265625 6.109375 33.40625 6.109375 
Q 40.53125 6.109375 44.609375 11.75 
Q 48.6875 17.390625 48.6875 27.296875 
z
M 18.109375 46.390625 
Q 20.953125 51.265625 25.265625 53.625 
Q 29.59375 56 35.59375 56 
Q 45.5625 56 51.78125 48.09375 
Q 58.015625 40.1875 58.015625 27.296875 
Q 58.015625 14.40625 51.78125 6.484375 
Q 45.5625 -1.421875 35.59375 -1.421875 
Q 29.59375 -1.421875 25.265625 0.953125 
Q 20.953125 3.328125 18.109375 8.203125 
L 18.109375 0 
L 9.078125 0 
L 9.078125 75.984375 
L 18.109375 75.984375 
z
" id="DejaVuSans-98"/>
      <path d="M 32.171875 -5.078125 
Q 28.375 -14.84375 24.75 -17.8125 
Q 21.140625 -20.796875 15.09375 -20.796875 
L 7.90625 -20.796875 
L 7.90625 -13.28125 
L 13.1875 -13.28125 
Q 16.890625 -13.28125 18.9375 -11.515625 
Q 21 -9.765625 23.484375 -3.21875 
L 25.09375 0.875 
L 2.984375 54.6875 
L 12.5 54.6875 
L 29.59375 11.921875 
L 46.6875 54.6875 
L 56.203125 54.6875 
z
" id="DejaVuSans-121"/>
     </defs>
     <use xlink:href="#DejaVuSans-99"/>
     <use x="54.980469" xlink:href="#DejaVuSans-111"/>
     <use x="116.162109" xlink:href="#DejaVuSans-98"/>
     <use x="179.638672" xlink:href="#DejaVuSans-121"/>
     <use x="238.818359" xlink:href="#DejaVuSans-108"/>
     <use x="266.601562" xlink:href="#DejaVuSans-97"/>
    </g>
   </g>
   <g id="text_15">
    <!-- trust-con -->
    <g transform="translate(375.22944 169.329987)scale(0.17 -0.17)">
     <use xlink:href="#DejaVuSans-116"/>
     <use x="39.208984" xlink:href="#DejaVuSans-114"/>
     <use x="80.322266" xlink:href="#DejaVuSans-117"/>
     <use x="143.701172" xlink:href="#DejaVuSans-115"/>
     <use x="195.800781" xlink:href="#DejaVuSans-116"/>
     <use x="235.009766" xlink:href="#DejaVuSans-45"/>
     <use x="271.09375" xlink:href="#DejaVuSans-99"/>
     <use x="326.074219" xlink:href="#DejaVuSans-111"/>
     <use x="387.255859" xlink:href="#DejaVuSans-110"/>
    </g>
   </g>
   <g id="text_16">
    <!-- fmincon o -->
    <g transform="translate(375.22944 104.863611)scale(0.17 -0.17)">
     <use xlink:href="#DejaVuSans-102"/>
     <use x="35.205078" xlink:href="#DejaVuSans-109"/>
     <use x="132.617188" xlink:href="#DejaVuSans-105"/>
     <use x="160.400391" xlink:href="#DejaVuSans-110"/>
     <use x="223.779297" xlink:href="#DejaVuSans-99"/>
     <use x="278.759766" xlink:href="#DejaVuSans-111"/>
     <use x="339.941406" xlink:href="#DejaVuSans-110"/>
     <use x="403.320312" xlink:href="#DejaVuSans-32"/>
     <use x="435.107422" xlink:href="#DejaVuSans-111"/>
    </g>
   </g>
   <g id="text_17">
    <!-- alN1 -->
    <g transform="translate(375.22944 40.397235)scale(0.17 -0.17)">
     <defs>
      <path d="M 9.8125 72.90625 
L 23.09375 72.90625 
L 55.421875 11.921875 
L 55.421875 72.90625 
L 64.984375 72.90625 
L 64.984375 0 
L 51.703125 0 
L 19.390625 60.984375 
L 19.390625 0 
L 9.8125 0 
z
" id="DejaVuSans-78"/>
     </defs>
     <use xlink:href="#DejaVuSans-97"/>
     <use x="61.279297" xlink:href="#DejaVuSans-108"/>
     <use x="89.0625" xlink:href="#DejaVuSans-78"/>
     <use x="163.867188" xlink:href="#DejaVuSans-49"/>
    </g>
   </g>
   <g id="text_18">
    <!-- bbob-constrained f8, 3-D -->
    <g transform="translate(60.41088 38.111366)scale(0.102 -0.102)">
     <defs>
      <path d="M 40.578125 39.3125 
Q 47.65625 37.796875 51.625 33 
Q 55.609375 28.21875 55.609375 21.1875 
Q 55.609375 10.40625 48.1875 4.484375 
Q 40.765625 -1.421875 27.09375 -1.421875 
Q 22.515625 -1.421875 17.65625 -0.515625 
Q 12.796875 0.390625 7.625 2.203125 
L 7.625 11.71875 
Q 11.71875 9.328125 16.59375 8.109375 
Q 21.484375 6.890625 26.8125 6.890625 
Q 36.078125 6.890625 40.9375 10.546875 
Q 45.796875 14.203125 45.796875 21.1875 
Q 45.796875 27.640625 41.28125 31.265625 
Q 36.765625 34.90625 28.71875 34.90625 
L 20.21875 34.90625 
L 20.21875 43.015625 
L 29.109375 43.015625 
Q 36.375 43.015625 40.234375 45.921875 
Q 44.09375 48.828125 44.09375 54.296875 
Q 44.09375 59.90625 40.109375 62.90625 
Q 36.140625 65.921875 28.71875 65.921875 
Q 24.65625 65.921875 20.015625 65.03125 
Q 15.375 64.15625 9.8125 62.3125 
L 9.8125 71.09375 
Q 15.4375 72.65625 20.34375 73.4375 
Q 25.25 74.21875 29.59375 74.21875 
Q 40.828125 74.21875 47.359375 69.109375 
Q 53.90625 64.015625 53.90625 55.328125 
Q 53.90625 49.265625 50.4375 45.09375 
Q 46.96875 40.921875 40.578125 39.3125 
z
" id="DejaVuSans-51"/>
      <path d="M 19.671875 64.796875 
L 19.671875 8.109375 
L 31.59375 8.109375 
Q 46.6875 8.109375 53.6875 14.9375 
Q 60.6875 21.78125 60.6875 36.53125 
Q 60.6875 51.171875 53.6875 57.984375 
Q 46.6875 64.796875 31.59375 64.796875 
z
M 9.8125 72.90625 
L 30.078125 72.90625 
Q 51.265625 72.90625 61.171875 64.09375 
Q 71.09375 55.28125 71.09375 36.53125 
Q 71.09375 17.671875 61.125 8.828125 
Q 51.171875 0 30.078125 0 
L 9.8125 0 
z
" id="DejaVuSans-68"/>
     </defs>
     <use xlink:href="#DejaVuSans-98"/>
     <use x="63.476562" xlink:href="#DejaVuSans-98"/>
     <use x="126.953125" xlink:href="#DejaVuSans-111"/>
     <use x="188.134766" xlink:href="#DejaVuSans-98"/>
     <use x="251.611328" xlink:href="#DejaVuSans-45"/>
     <use x="287.695312" xlink:href="#DejaVuSans-99"/>
     <use x="342.675781" xlink:href="#DejaVuSans-111"/>
     <use x="403.857422" xlink:href="#DejaVuSans-110"/>
     <use x="467.236328" xlink:href="#DejaVuSans-115"/>
     <use x="519.335938" xlink:href="#DejaVuSans-116"/>
     <use x="558.544922" xlink:href="#DejaVuSans-114"/>
     <use x="599.658203" xlink:href="#DejaVuSans-97"/>
     <use x="660.9375" xlink:href="#DejaVuSans-105"/>
     <use x="688.720703" xlink:href="#DejaVuSans-110"/>
     <use x="752.099609" xlink:href="#DejaVuSans-101"/>
     <use x="813.623047" xlink:href="#DejaVuSans-100"/>
     <use x="877.099609" xlink:href="#DejaVuSans-32"/>
     <use x="908.886719" xlink:href="#DejaVuSans-102"/>
     <use x="944.091797" xlink:href="#DejaVuSans-56"/>
     <use x="1007.714844" xlink:href="#DejaVuSans-44"/>
     <use x="1039.501953" xlink:href="#DejaVuSans-32"/>
     <use x="1071.289062" xlink:href="#DejaVuSans-51"/>
     <use x="1134.912109" xlink:href="#DejaVuSans-45"/>
     <use x="1170.996094" xlink:href="#DejaVuSans-68"/>
    </g>
    <!-- 41 targets: 100..1e-06 -->
    <g transform="translate(60.41088 49.533135)scale(0.102 -0.102)">
     <defs>
      <path d="M 11.71875 12.40625 
L 22.015625 12.40625 
L 22.015625 0 
L 11.71875 0 
z
M 11.71875 51.703125 
L 22.015625 51.703125 
L 22.015625 39.3125 
L 11.71875 39.3125 
z
" id="DejaVuSans-58"/>
     </defs>
     <use xlink:href="#DejaVuSans-52"/>
     <use x="63.623047" xlink:href="#DejaVuSans-49"/>
     <use x="127.246094" xlink:href="#DejaVuSans-32"/>
     <use x="159.033203" xlink:href="#DejaVuSans-116"/>
     <use x="198.242188" xlink:href="#DejaVuSans-97"/>
     <use x="259.521484" xlink:href="#DejaVuSans-114"/>
     <use x="298.884766" xlink:href="#DejaVuSans-103"/>
     <use x="362.361328" xlink:href="#DejaVuSans-101"/>
     <use x="423.884766" xlink:href="#DejaVuSans-116"/>
     <use x="463.09375" xlink:href="#DejaVuSans-115"/>
     <use x="515.193359" xlink:href="#DejaVuSans-58"/>
     <use x="548.884766" xlink:href="#DejaVuSans-32"/>
     <use x="580.671875" xlink:href="#DejaVuSans-49"/>
     <use x="644.294922" xlink:href="#DejaVuSans-48"/>
     <use x="707.917969" xlink:href="#DejaVuSans-48"/>
     <use x="771.541016" xlink:href="#DejaVuSans-46"/>
     <use x="803.328125" xlink:href="#DejaVuSans-46"/>
     <use x="835.115234" xlink:href="#DejaVuSans-49"/>
     <use x="898.738281" xlink:href="#DejaVuSans-101"/>
     <use x="960.261719" xlink:href="#DejaVuSans-45"/>
     <use x="996.345703" xlink:href="#DejaVuSans-48"/>
     <use x="1059.96875" xlink:href="#DejaVuSans-54"/>
    </g>
    <!-- 30, 15 instances -->
    <g transform="translate(60.41088 60.954904)scale(0.102 -0.102)">
     <defs>
      <path d="M 10.796875 72.90625 
L 49.515625 72.90625 
L 49.515625 64.59375 
L 19.828125 64.59375 
L 19.828125 46.734375 
Q 21.96875 47.46875 24.109375 47.828125 
Q 26.265625 48.1875 28.421875 48.1875 
Q 40.625 48.1875 47.75 41.5 
Q 54.890625 34.8125 54.890625 23.390625 
Q 54.890625 11.625 47.5625 5.09375 
Q 40.234375 -1.421875 26.90625 -1.421875 
Q 22.3125 -1.421875 17.546875 -0.640625 
Q 12.796875 0.140625 7.71875 1.703125 
L 7.71875 11.625 
Q 12.109375 9.234375 16.796875 8.0625 
Q 21.484375 6.890625 26.703125 6.890625 
Q 35.15625 6.890625 40.078125 11.328125 
Q 45.015625 15.765625 45.015625 23.390625 
Q 45.015625 31 40.078125 35.4375 
Q 35.15625 39.890625 26.703125 39.890625 
Q 22.75 39.890625 18.8125 39.015625 
Q 14.890625 38.140625 10.796875 36.28125 
z
" id="DejaVuSans-53"/>
     </defs>
     <use xlink:href="#DejaVuSans-51"/>
     <use x="63.623047" xlink:href="#DejaVuSans-48"/>
     <use x="127.246094" xlink:href="#DejaVuSans-44"/>
     <use x="159.033203" xlink:href="#DejaVuSans-32"/>
     <use x="190.820312" xlink:href="#DejaVuSans-49"/>
     <use x="254.443359" xlink:href="#DejaVuSans-53"/>
     <use x="318.066406" xlink:href="#DejaVuSans-32"/>
     <use x="349.853516" xlink:href="#DejaVuSans-105"/>
     <use x="377.636719" xlink:href="#DejaVuSans-110"/>
     <use x="441.015625" xlink:href="#DejaVuSans-115"/>
     <use x="493.115234" xlink:href="#DejaVuSans-116"/>
     <use x="532.324219" xlink:href="#DejaVuSans-97"/>
     <use x="593.603516" xlink:href="#DejaVuSans-110"/>
     <use x="656.982422" xlink:href="#DejaVuSans-99"/>
     <use x="711.962891" xlink:href="#DejaVuSans-101"/>
     <use x="773.486328" xlink:href="#DejaVuSans-115"/>
    </g>
   </g>
   <g id="text_19">
    <!-- v5z33 -->
    <g style="fill:#808080;" transform="translate(183.016656 294.151352)scale(0.1 -0.1)">
     <defs>
      <path d="M 5.515625 54.6875 
L 48.1875 54.6875 
L 48.1875 46.484375 
L 14.40625 7.171875 
L 48.1875 7.171875 
L 48.1875 0 
L 4.296875 0 
L 4.296875 8.203125 
L 38.09375 47.515625 
L 5.515625 47.515625 
z
" id="DejaVuSans-122"/>
     </defs>
     <use xlink:href="#DejaVuSans-118"/>
     <use x="59.179688" xlink:href="#DejaVuSans-53"/>
     <use x="122.802734" xlink:href="#DejaVuSans-122"/>
     <use x="175.292969" xlink:href="#DejaVuSans-51"/>
     <use x="238.916016" xlink:href="#DejaVuSans-51"/>
    </g>
   </g>
   <g id="text_20">
    <!-- 8 Sep. Ellipsoid, 2 constraints -->
    <g transform="translate(50.47525 21.648)scale(0.2 -0.2)">
     <defs>
      <path d="M 53.515625 70.515625 
L 53.515625 60.890625 
Q 47.90625 63.578125 42.921875 64.890625 
Q 37.9375 66.21875 33.296875 66.21875 
Q 25.25 66.21875 20.875 63.09375 
Q 16.5 59.96875 16.5 54.203125 
Q 16.5 49.359375 19.40625 46.890625 
Q 22.3125 44.4375 30.421875 42.921875 
L 36.375 41.703125 
Q 47.40625 39.59375 52.65625 34.296875 
Q 57.90625 29 57.90625 20.125 
Q 57.90625 9.515625 50.796875 4.046875 
Q 43.703125 -1.421875 29.984375 -1.421875 
Q 24.8125 -1.421875 18.96875 -0.25 
Q 13.140625 0.921875 6.890625 3.21875 
L 6.890625 13.375 
Q 12.890625 10.015625 18.65625 8.296875 
Q 24.421875 6.59375 29.984375 6.59375 
Q 38.421875 6.59375 43.015625 9.90625 
Q 47.609375 13.234375 47.609375 19.390625 
Q 47.609375 24.75 44.3125 27.78125 
Q 41.015625 30.8125 33.5 32.328125 
L 27.484375 33.5 
Q 16.453125 35.6875 11.515625 40.375 
Q 6.59375 45.0625 6.59375 53.421875 
Q 6.59375 63.09375 13.40625 68.65625 
Q 20.21875 74.21875 32.171875 74.21875 
Q 37.3125 74.21875 42.625 73.28125 
Q 47.953125 72.359375 53.515625 70.515625 
z
" id="DejaVuSans-83"/>
      <path d="M 9.8125 72.90625 
L 55.90625 72.90625 
L 55.90625 64.59375 
L 19.671875 64.59375 
L 19.671875 43.015625 
L 54.390625 43.015625 
L 54.390625 34.71875 
L 19.671875 34.71875 
L 19.671875 8.296875 
L 56.78125 8.296875 
L 56.78125 0 
L 9.8125 0 
z
" id="DejaVuSans-69"/>
     </defs>
     <use xlink:href="#DejaVuSans-56"/>
     <use x="63.623047" xlink:href="#DejaVuSans-32"/>
     <use x="95.410156" xlink:href="#DejaVuSans-83"/>
     <use x="158.886719" xlink:href="#DejaVuSans-101"/>
     <use x="220.410156" xlink:href="#DejaVuSans-112"/>
     <use x="283.886719" xlink:href="#DejaVuSans-46"/>
     <use x="315.673828" xlink:href="#DejaVuSans-32"/>
     <use x="347.460938" xlink:href="#DejaVuSans-69"/>
     <use x="410.644531" xlink:href="#DejaVuSans-108"/>
     <use x="438.427734" xlink:href="#DejaVuSans-108"/>
     <use x="466.210938" xlink:href="#DejaVuSans-105"/>
     <use x="493.994141" xlink:href="#DejaVuSans-112"/>
     <use x="557.470703" xlink:href="#DejaVuSans-115"/>
     <use x="609.570312" xlink:href="#DejaVuSans-111"/>
     <use x="670.751953" xlink:href="#DejaVuSans-105"/>
     <use x="698.535156" xlink:href="#DejaVuSans-100"/>
     <use x="762.011719" xlink:href="#DejaVuSans-44"/>
     <use x="793.798828" xlink:href="#DejaVuSans-32"/>
     <use x="825.585938" xlink:href="#DejaVuSans-50"/>
     <use x="889.208984" xlink:href="#DejaVuSans-32"/>
     <use x="920.996094" xlink:href="#DejaVuSans-99"/>
     <use x="975.976562" xlink:href="#DejaVuSans-111"/>
     <use x="1037.158203" xlink:href="#DejaVuSans-110"/>
     <use x="1100.537109" xlink:href="#DejaVuSans-115"/>
     <use x="1152.636719" xlink:href="#DejaVuSans-116"/>
     <use x="1191.845703" xlink:href="#DejaVuSans-114"/>
     <use x="1232.958984" xlink:href="#DejaVuSans-97"/>
     <use x="1294.238281" xlink:href="#DejaVuSans-105"/>
     <use x="1322.021484" xlink:href="#DejaVuSans-110"/>
     <use x="1385.400391" xlink:href="#DejaVuSans-116"/>
     <use x="1424.609375" xlink:href="#DejaVuSans-115"/>
    </g>
   </g>
  </g>
 </g>
 <defs>
  <clipPath id="pcabb0669cf">
   <rect height="271.296" width="281.088" x="57.6" y="27.648"/>
  </clipPath>
 </defs>
</svg>
