<?xml version="1.0" encoding="utf-8" standalone="no"?>
<!DOCTYPE svg PUBLIC "-//W3C//DTD SVG 1.1//EN"
  "http://www.w3.org/Graphics/SVG/1.1/DTD/svg11.dtd">
<!-- Created with matplotlib (https://matplotlib.org/) -->
<svg height="345.6pt" version="1.1" viewBox="0 0 460.8 345.6" width="460.8pt" xmlns="http://www.w3.org/2000/svg" xmlns:xlink="http://www.w3.org/1999/xlink">
 <metadata>
  <rdf:RDF xmlns:cc="http://creativecommons.org/ns#" xmlns:dc="http://purl.org/dc/elements/1.1/" xmlns:rdf="http://www.w3.org/1999/02/22-rdf-syntax-ns#">
   <cc:Work>
    <dc:type rdf:resource="http://purl.org/dc/dcmitype/StillImage"/>
    <dc:date>2021-03-25T09:36:44.490523</dc:date>
    <dc:format>image/svg+xml</dc:format>
    <dc:creator>
     <cc:Agent>
      <dc:title>Matplotlib v3.3.3, https://matplotlib.org/</dc:title>
     </cc:Agent>
    </dc:creator>
   </cc:Work>
  </rdf:RDF>
 </metadata>
 <defs>
  <style type="text/css">*{stroke-linecap:butt;stroke-linejoin:round;}</style>
 </defs>
 <g id="figure_1">
  <g id="patch_1">
   <path d="M 0 345.6 
L 460.8 345.6 
L 460.8 0 
L 0 0 
z
" style="fill:#ffffff;"/>
  </g>
  <g id="axes_1">
   <g id="patch_2">
    <path d="M 57.6 298.944 
L 338.688 298.944 
L 338.688 27.648 
L 57.6 27.648 
z
" style="fill:#ffffff;"/>
   </g>
   <g id="matplotlib.axis_1">
    <g id="xtick_1">
     <g id="line2d_1">
      <path clip-path="url(#pf284202a7e)" d="M 57.6 298.944 
L 57.6 27.648 
" style="fill:none;stroke:#b0b0b0;stroke-linecap:square;stroke-width:0.8;"/>
     </g>
     <g id="line2d_2">
      <defs>
       <path d="M 0 0 
L 0 3.5 
" id="m1ee87cd8f1" style="stroke:#000000;stroke-width:0.8;"/>
      </defs>
      <g>
       <use style="stroke:#000000;stroke-width:0.8;" x="57.6" xlink:href="#m1ee87cd8f1" y="298.944"/>
      </g>
     </g>
     <g id="text_1">
      <!-- 0 -->
      <g transform="translate(51.2375 321.140875)scale(0.2 -0.2)">
       <defs>
        <path d="M 31.78125 66.40625 
Q 24.171875 66.40625 20.328125 58.90625 
Q 16.5 51.421875 16.5 36.375 
Q 16.5 21.390625 20.328125 13.890625 
Q 24.171875 6.390625 31.78125 6.390625 
Q 39.453125 6.390625 43.28125 13.890625 
Q 47.125 21.390625 47.125 36.375 
Q 47.125 51.421875 43.28125 58.90625 
Q 39.453125 66.40625 31.78125 66.40625 
z
M 31.78125 74.21875 
Q 44.046875 74.21875 50.515625 64.515625 
Q 56.984375 54.828125 56.984375 36.375 
Q 56.984375 17.96875 50.515625 8.265625 
Q 44.046875 -1.421875 31.78125 -1.421875 
Q 19.53125 -1.421875 13.0625 8.265625 
Q 6.59375 17.96875 6.59375 36.375 
Q 6.59375 54.828125 13.0625 64.515625 
Q 19.53125 74.21875 31.78125 74.21875 
z
" id="DejaVuSans-48"/>
       </defs>
       <use xlink:href="#DejaVuSans-48"/>
      </g>
     </g>
    </g>
    <g id="xtick_2">
     <g id="line2d_3">
      <path clip-path="url(#pf284202a7e)" d="M 137.910857 298.944 
L 137.910857 27.648 
" style="fill:none;stroke:#b0b0b0;stroke-linecap:square;stroke-width:0.8;"/>
     </g>
     <g id="line2d_4">
      <g>
       <use style="stroke:#000000;stroke-width:0.8;" x="137.910857" xlink:href="#m1ee87cd8f1" y="298.944"/>
      </g>
     </g>
     <g id="text_2">
      <!-- 2 -->
      <g transform="translate(131.548357 321.140875)scale(0.2 -0.2)">
       <defs>
        <path d="M 19.1875 8.296875 
L 53.609375 8.296875 
L 53.609375 0 
L 7.328125 0 
L 7.328125 8.296875 
Q 12.9375 14.109375 22.625 23.890625 
Q 32.328125 33.6875 34.8125 36.53125 
Q 39.546875 41.84375 41.421875 45.53125 
Q 43.3125 49.21875 43.3125 52.78125 
Q 43.3125 58.59375 39.234375 62.25 
Q 35.15625 65.921875 28.609375 65.921875 
Q 23.96875 65.921875 18.8125 64.3125 
Q 13.671875 62.703125 7.8125 59.421875 
L 7.8125 69.390625 
Q 13.765625 71.78125 18.9375 73 
Q 24.125 74.21875 28.421875 74.21875 
Q 39.75 74.21875 46.484375 68.546875 
Q 53.21875 62.890625 53.21875 53.421875 
Q 53.21875 48.921875 51.53125 44.890625 
Q 49.859375 40.875 45.40625 35.40625 
Q 44.1875 33.984375 37.640625 27.21875 
Q 31.109375 20.453125 19.1875 8.296875 
z
" id="DejaVuSans-50"/>
       </defs>
       <use xlink:href="#DejaVuSans-50"/>
      </g>
     </g>
    </g>
    <g id="xtick_3">
     <g id="line2d_5">
      <path clip-path="url(#pf284202a7e)" d="M 218.221714 298.944 
L 218.221714 27.648 
" style="fill:none;stroke:#b0b0b0;stroke-linecap:square;stroke-width:0.8;"/>
     </g>
     <g id="line2d_6">
      <g>
       <use style="stroke:#000000;stroke-width:0.8;" x="218.221714" xlink:href="#m1ee87cd8f1" y="298.944"/>
      </g>
     </g>
     <g id="text_3">
      <!-- 4 -->
      <g transform="translate(211.859214 321.140875)scale(0.2 -0.2)">
       <defs>
        <path d="M 37.796875 64.3125 
L 12.890625 25.390625 
L 37.796875 25.390625 
z
M 35.203125 72.90625 
L 47.609375 72.90625 
L 47.609375 25.390625 
L 58.015625 25.390625 
L 58.015625 17.1875 
L 47.609375 17.1875 
L 47.609375 0 
L 37.796875 0 
L 37.796875 17.1875 
L 4.890625 17.1875 
L 4.890625 26.703125 
z
" id="DejaVuSans-52"/>
       </defs>
       <use xlink:href="#DejaVuSans-52"/>
      </g>
     </g>
    </g>
    <g id="xtick_4">
     <g id="line2d_7">
      <path clip-path="url(#pf284202a7e)" d="M 298.532571 298.944 
L 298.532571 27.648 
" style="fill:none;stroke:#b0b0b0;stroke-linecap:square;stroke-width:0.8;"/>
     </g>
     <g id="line2d_8">
      <g>
       <use style="stroke:#000000;stroke-width:0.8;" x="298.532571" xlink:href="#m1ee87cd8f1" y="298.944"/>
      </g>
     </g>
     <g id="text_4">
      <!-- 6 -->
      <g transform="translate(292.170071 321.140875)scale(0.2 -0.2)">
       <defs>
        <path d="M 33.015625 40.375 
Q 26.375 40.375 22.484375 35.828125 
Q 18.609375 31.296875 18.609375 23.390625 
Q 18.609375 15.53125 22.484375 10.953125 
Q 26.375 6.390625 33.015625 6.390625 
Q 39.65625 6.390625 43.53125 10.953125 
Q 47.40625 15.53125 47.40625 23.390625 
Q 47.40625 31.296875 43.53125 35.828125 
Q 39.65625 40.375 33.015625 40.375 
z
M 52.59375 71.296875 
L 52.59375 62.3125 
Q 48.875 64.0625 45.09375 64.984375 
Q 41.3125 65.921875 37.59375 65.921875 
Q 27.828125 65.921875 22.671875 59.328125 
Q 17.53125 52.734375 16.796875 39.40625 
Q 19.671875 43.65625 24.015625 45.921875 
Q 28.375 48.1875 33.59375 48.1875 
Q 44.578125 48.1875 50.953125 41.515625 
Q 57.328125 34.859375 57.328125 23.390625 
Q 57.328125 12.15625 50.6875 5.359375 
Q 44.046875 -1.421875 33.015625 -1.421875 
Q 20.359375 -1.421875 13.671875 8.265625 
Q 6.984375 17.96875 6.984375 36.375 
Q 6.984375 53.65625 15.1875 63.9375 
Q 23.390625 74.21875 37.203125 74.21875 
Q 40.921875 74.21875 44.703125 73.484375 
Q 48.484375 72.75 52.59375 71.296875 
z
" id="DejaVuSans-54"/>
       </defs>
       <use xlink:href="#DejaVuSans-54"/>
      </g>
     </g>
    </g>
    <g id="xtick_5">
     <g id="line2d_9">
      <path clip-path="url(#pf284202a7e)" d="M 97.755429 298.944 
L 97.755429 27.648 
" style="fill:none;stroke:#b0b0b0;stroke-linecap:square;stroke-width:0.8;"/>
     </g>
     <g id="line2d_10">
      <defs>
       <path d="M 0 0 
L 0 2 
" id="m44c14de832" style="stroke:#000000;stroke-width:0.6;"/>
      </defs>
      <g>
       <use style="stroke:#000000;stroke-width:0.6;" x="97.755429" xlink:href="#m44c14de832" y="298.944"/>
      </g>
     </g>
    </g>
    <g id="xtick_6">
     <g id="line2d_11">
      <path clip-path="url(#pf284202a7e)" d="M 178.066286 298.944 
L 178.066286 27.648 
" style="fill:none;stroke:#b0b0b0;stroke-linecap:square;stroke-width:0.8;"/>
     </g>
     <g id="line2d_12">
      <g>
       <use style="stroke:#000000;stroke-width:0.6;" x="178.066286" xlink:href="#m44c14de832" y="298.944"/>
      </g>
     </g>
    </g>
    <g id="xtick_7">
     <g id="line2d_13">
      <path clip-path="url(#pf284202a7e)" d="M 258.377143 298.944 
L 258.377143 27.648 
" style="fill:none;stroke:#b0b0b0;stroke-linecap:square;stroke-width:0.8;"/>
     </g>
     <g id="line2d_14">
      <g>
       <use style="stroke:#000000;stroke-width:0.6;" x="258.377143" xlink:href="#m44c14de832" y="298.944"/>
      </g>
     </g>
    </g>
    <g id="xtick_8">
     <g id="line2d_15">
      <path clip-path="url(#pf284202a7e)" d="M 338.688 298.944 
L 338.688 27.648 
" style="fill:none;stroke:#b0b0b0;stroke-linecap:square;stroke-width:0.8;"/>
     </g>
     <g id="line2d_16">
      <g>
       <use style="stroke:#000000;stroke-width:0.6;" x="338.688" xlink:href="#m44c14de832" y="298.944"/>
      </g>
     </g>
    </g>
    <g id="text_5">
     <!-- log10(# (f+g)-evals / dimension) -->
     <g transform="translate(58.145016 342.217594)scale(0.17 -0.17)">
      <defs>
       <path d="M 9.421875 75.984375 
L 18.40625 75.984375 
L 18.40625 0 
L 9.421875 0 
z
" id="DejaVuSans-108"/>
       <path d="M 30.609375 48.390625 
Q 23.390625 48.390625 19.1875 42.75 
Q 14.984375 37.109375 14.984375 27.296875 
Q 14.984375 17.484375 19.15625 11.84375 
Q 23.34375 6.203125 30.609375 6.203125 
Q 37.796875 6.203125 41.984375 11.859375 
Q 46.1875 17.53125 46.1875 27.296875 
Q 46.1875 37.015625 41.984375 42.703125 
Q 37.796875 48.390625 30.609375 48.390625 
z
M 30.609375 56 
Q 42.328125 56 49.015625 48.375 
Q 55.71875 40.765625 55.71875 27.296875 
Q 55.71875 13.875 49.015625 6.21875 
Q 42.328125 -1.421875 30.609375 -1.421875 
Q 18.84375 -1.421875 12.171875 6.21875 
Q 5.515625 13.875 5.515625 27.296875 
Q 5.515625 40.765625 12.171875 48.375 
Q 18.84375 56 30.609375 56 
z
" id="DejaVuSans-111"/>
       <path d="M 45.40625 27.984375 
Q 45.40625 37.75 41.375 43.109375 
Q 37.359375 48.484375 30.078125 48.484375 
Q 22.859375 48.484375 18.828125 43.109375 
Q 14.796875 37.75 14.796875 27.984375 
Q 14.796875 18.265625 18.828125 12.890625 
Q 22.859375 7.515625 30.078125 7.515625 
Q 37.359375 7.515625 41.375 12.890625 
Q 45.40625 18.265625 45.40625 27.984375 
z
M 54.390625 6.78125 
Q 54.390625 -7.171875 48.1875 -13.984375 
Q 42 -20.796875 29.203125 -20.796875 
Q 24.46875 -20.796875 20.265625 -20.09375 
Q 16.0625 -19.390625 12.109375 -17.921875 
L 12.109375 -9.1875 
Q 16.0625 -11.328125 19.921875 -12.34375 
Q 23.78125 -13.375 27.78125 -13.375 
Q 36.625 -13.375 41.015625 -8.765625 
Q 45.40625 -4.15625 45.40625 5.171875 
L 45.40625 9.625 
Q 42.625 4.78125 38.28125 2.390625 
Q 33.9375 0 27.875 0 
Q 17.828125 0 11.671875 7.65625 
Q 5.515625 15.328125 5.515625 27.984375 
Q 5.515625 40.671875 11.671875 48.328125 
Q 17.828125 56 27.875 56 
Q 33.9375 56 38.28125 53.609375 
Q 42.625 51.21875 45.40625 46.390625 
L 45.40625 54.6875 
L 54.390625 54.6875 
z
" id="DejaVuSans-103"/>
       <path d="M 12.40625 8.296875 
L 28.515625 8.296875 
L 28.515625 63.921875 
L 10.984375 60.40625 
L 10.984375 69.390625 
L 28.421875 72.90625 
L 38.28125 72.90625 
L 38.28125 8.296875 
L 54.390625 8.296875 
L 54.390625 0 
L 12.40625 0 
z
" id="DejaVuSans-49"/>
       <path d="M 31 75.875 
Q 24.46875 64.65625 21.28125 53.65625 
Q 18.109375 42.671875 18.109375 31.390625 
Q 18.109375 20.125 21.3125 9.0625 
Q 24.515625 -2 31 -13.1875 
L 23.1875 -13.1875 
Q 15.875 -1.703125 12.234375 9.375 
Q 8.59375 20.453125 8.59375 31.390625 
Q 8.59375 42.28125 12.203125 53.3125 
Q 15.828125 64.359375 23.1875 75.875 
z
" id="DejaVuSans-40"/>
       <path d="M 51.125 44 
L 36.921875 44 
L 32.8125 27.6875 
L 47.125 27.6875 
z
M 43.796875 71.78125 
L 38.71875 51.515625 
L 52.984375 51.515625 
L 58.109375 71.78125 
L 65.921875 71.78125 
L 60.890625 51.515625 
L 76.125 51.515625 
L 76.125 44 
L 58.984375 44 
L 54.984375 27.6875 
L 70.515625 27.6875 
L 70.515625 20.21875 
L 53.078125 20.21875 
L 48 0 
L 40.1875 0 
L 45.21875 20.21875 
L 30.90625 20.21875 
L 25.875 0 
L 18.015625 0 
L 23.09375 20.21875 
L 7.71875 20.21875 
L 7.71875 27.6875 
L 24.90625 27.6875 
L 29 44 
L 13.28125 44 
L 13.28125 51.515625 
L 30.90625 51.515625 
L 35.890625 71.78125 
z
" id="DejaVuSans-35"/>
       <path id="DejaVuSans-32"/>
       <path d="M 37.109375 75.984375 
L 37.109375 68.5 
L 28.515625 68.5 
Q 23.6875 68.5 21.796875 66.546875 
Q 19.921875 64.59375 19.921875 59.515625 
L 19.921875 54.6875 
L 34.71875 54.6875 
L 34.71875 47.703125 
L 19.921875 47.703125 
L 19.921875 0 
L 10.890625 0 
L 10.890625 47.703125 
L 2.296875 47.703125 
L 2.296875 54.6875 
L 10.890625 54.6875 
L 10.890625 58.5 
Q 10.890625 67.625 15.140625 71.796875 
Q 19.390625 75.984375 28.609375 75.984375 
z
" id="DejaVuSans-102"/>
       <path d="M 46 62.703125 
L 46 35.5 
L 73.1875 35.5 
L 73.1875 27.203125 
L 46 27.203125 
L 46 0 
L 37.796875 0 
L 37.796875 27.203125 
L 10.59375 27.203125 
L 10.59375 35.5 
L 37.796875 35.5 
L 37.796875 62.703125 
z
" id="DejaVuSans-43"/>
       <path d="M 8.015625 75.875 
L 15.828125 75.875 
Q 23.140625 64.359375 26.78125 53.3125 
Q 30.421875 42.28125 30.421875 31.390625 
Q 30.421875 20.453125 26.78125 9.375 
Q 23.140625 -1.703125 15.828125 -13.1875 
L 8.015625 -13.1875 
Q 14.5 -2 17.703125 9.0625 
Q 20.90625 20.125 20.90625 31.390625 
Q 20.90625 42.671875 17.703125 53.65625 
Q 14.5 64.65625 8.015625 75.875 
z
" id="DejaVuSans-41"/>
       <path d="M 4.890625 31.390625 
L 31.203125 31.390625 
L 31.203125 23.390625 
L 4.890625 23.390625 
z
" id="DejaVuSans-45"/>
       <path d="M 56.203125 29.59375 
L 56.203125 25.203125 
L 14.890625 25.203125 
Q 15.484375 15.921875 20.484375 11.0625 
Q 25.484375 6.203125 34.421875 6.203125 
Q 39.59375 6.203125 44.453125 7.46875 
Q 49.3125 8.734375 54.109375 11.28125 
L 54.109375 2.78125 
Q 49.265625 0.734375 44.1875 -0.34375 
Q 39.109375 -1.421875 33.890625 -1.421875 
Q 20.796875 -1.421875 13.15625 6.1875 
Q 5.515625 13.8125 5.515625 26.8125 
Q 5.515625 40.234375 12.765625 48.109375 
Q 20.015625 56 32.328125 56 
Q 43.359375 56 49.78125 48.890625 
Q 56.203125 41.796875 56.203125 29.59375 
z
M 47.21875 32.234375 
Q 47.125 39.59375 43.09375 43.984375 
Q 39.0625 48.390625 32.421875 48.390625 
Q 24.90625 48.390625 20.390625 44.140625 
Q 15.875 39.890625 15.1875 32.171875 
z
" id="DejaVuSans-101"/>
       <path d="M 2.984375 54.6875 
L 12.5 54.6875 
L 29.59375 8.796875 
L 46.6875 54.6875 
L 56.203125 54.6875 
L 35.6875 0 
L 23.484375 0 
z
" id="DejaVuSans-118"/>
       <path d="M 34.28125 27.484375 
Q 23.390625 27.484375 19.1875 25 
Q 14.984375 22.515625 14.984375 16.5 
Q 14.984375 11.71875 18.140625 8.90625 
Q 21.296875 6.109375 26.703125 6.109375 
Q 34.1875 6.109375 38.703125 11.40625 
Q 43.21875 16.703125 43.21875 25.484375 
L 43.21875 27.484375 
z
M 52.203125 31.203125 
L 52.203125 0 
L 43.21875 0 
L 43.21875 8.296875 
Q 40.140625 3.328125 35.546875 0.953125 
Q 30.953125 -1.421875 24.3125 -1.421875 
Q 15.921875 -1.421875 10.953125 3.296875 
Q 6 8.015625 6 15.921875 
Q 6 25.140625 12.171875 29.828125 
Q 18.359375 34.515625 30.609375 34.515625 
L 43.21875 34.515625 
L 43.21875 35.40625 
Q 43.21875 41.609375 39.140625 45 
Q 35.0625 48.390625 27.6875 48.390625 
Q 23 48.390625 18.546875 47.265625 
Q 14.109375 46.140625 10.015625 43.890625 
L 10.015625 52.203125 
Q 14.9375 54.109375 19.578125 55.046875 
Q 24.21875 56 28.609375 56 
Q 40.484375 56 46.34375 49.84375 
Q 52.203125 43.703125 52.203125 31.203125 
z
" id="DejaVuSans-97"/>
       <path d="M 44.28125 53.078125 
L 44.28125 44.578125 
Q 40.484375 46.53125 36.375 47.5 
Q 32.28125 48.484375 27.875 48.484375 
Q 21.1875 48.484375 17.84375 46.4375 
Q 14.5 44.390625 14.5 40.28125 
Q 14.5 37.15625 16.890625 35.375 
Q 19.28125 33.59375 26.515625 31.984375 
L 29.59375 31.296875 
Q 39.15625 29.25 43.1875 25.515625 
Q 47.21875 21.78125 47.21875 15.09375 
Q 47.21875 7.46875 41.1875 3.015625 
Q 35.15625 -1.421875 24.609375 -1.421875 
Q 20.21875 -1.421875 15.453125 -0.5625 
Q 10.6875 0.296875 5.421875 2 
L 5.421875 11.28125 
Q 10.40625 8.6875 15.234375 7.390625 
Q 20.0625 6.109375 24.8125 6.109375 
Q 31.15625 6.109375 34.5625 8.28125 
Q 37.984375 10.453125 37.984375 14.40625 
Q 37.984375 18.0625 35.515625 20.015625 
Q 33.0625 21.96875 24.703125 23.78125 
L 21.578125 24.515625 
Q 13.234375 26.265625 9.515625 29.90625 
Q 5.8125 33.546875 5.8125 39.890625 
Q 5.8125 47.609375 11.28125 51.796875 
Q 16.75 56 26.8125 56 
Q 31.78125 56 36.171875 55.265625 
Q 40.578125 54.546875 44.28125 53.078125 
z
" id="DejaVuSans-115"/>
       <path d="M 25.390625 72.90625 
L 33.6875 72.90625 
L 8.296875 -9.28125 
L 0 -9.28125 
z
" id="DejaVuSans-47"/>
       <path d="M 45.40625 46.390625 
L 45.40625 75.984375 
L 54.390625 75.984375 
L 54.390625 0 
L 45.40625 0 
L 45.40625 8.203125 
Q 42.578125 3.328125 38.25 0.953125 
Q 33.9375 -1.421875 27.875 -1.421875 
Q 17.96875 -1.421875 11.734375 6.484375 
Q 5.515625 14.40625 5.515625 27.296875 
Q 5.515625 40.1875 11.734375 48.09375 
Q 17.96875 56 27.875 56 
Q 33.9375 56 38.25 53.625 
Q 42.578125 51.265625 45.40625 46.390625 
z
M 14.796875 27.296875 
Q 14.796875 17.390625 18.875 11.75 
Q 22.953125 6.109375 30.078125 6.109375 
Q 37.203125 6.109375 41.296875 11.75 
Q 45.40625 17.390625 45.40625 27.296875 
Q 45.40625 37.203125 41.296875 42.84375 
Q 37.203125 48.484375 30.078125 48.484375 
Q 22.953125 48.484375 18.875 42.84375 
Q 14.796875 37.203125 14.796875 27.296875 
z
" id="DejaVuSans-100"/>
       <path d="M 9.421875 54.6875 
L 18.40625 54.6875 
L 18.40625 0 
L 9.421875 0 
z
M 9.421875 75.984375 
L 18.40625 75.984375 
L 18.40625 64.59375 
L 9.421875 64.59375 
z
" id="DejaVuSans-105"/>
       <path d="M 52 44.1875 
Q 55.375 50.25 60.0625 53.125 
Q 64.75 56 71.09375 56 
Q 79.640625 56 84.28125 50.015625 
Q 88.921875 44.046875 88.921875 33.015625 
L 88.921875 0 
L 79.890625 0 
L 79.890625 32.71875 
Q 79.890625 40.578125 77.09375 44.375 
Q 74.3125 48.1875 68.609375 48.1875 
Q 61.625 48.1875 57.5625 43.546875 
Q 53.515625 38.921875 53.515625 30.90625 
L 53.515625 0 
L 44.484375 0 
L 44.484375 32.71875 
Q 44.484375 40.625 41.703125 44.40625 
Q 38.921875 48.1875 33.109375 48.1875 
Q 26.21875 48.1875 22.15625 43.53125 
Q 18.109375 38.875 18.109375 30.90625 
L 18.109375 0 
L 9.078125 0 
L 9.078125 54.6875 
L 18.109375 54.6875 
L 18.109375 46.1875 
Q 21.1875 51.21875 25.484375 53.609375 
Q 29.78125 56 35.6875 56 
Q 41.65625 56 45.828125 52.96875 
Q 50 49.953125 52 44.1875 
z
" id="DejaVuSans-109"/>
       <path d="M 54.890625 33.015625 
L 54.890625 0 
L 45.90625 0 
L 45.90625 32.71875 
Q 45.90625 40.484375 42.875 44.328125 
Q 39.84375 48.1875 33.796875 48.1875 
Q 26.515625 48.1875 22.3125 43.546875 
Q 18.109375 38.921875 18.109375 30.90625 
L 18.109375 0 
L 9.078125 0 
L 9.078125 54.6875 
L 18.109375 54.6875 
L 18.109375 46.1875 
Q 21.34375 51.125 25.703125 53.5625 
Q 30.078125 56 35.796875 56 
Q 45.21875 56 50.046875 50.171875 
Q 54.890625 44.34375 54.890625 33.015625 
z
" id="DejaVuSans-110"/>
      </defs>
      <use xlink:href="#DejaVuSans-108"/>
      <use x="27.783203" xlink:href="#DejaVuSans-111"/>
      <use x="88.964844" xlink:href="#DejaVuSans-103"/>
      <use x="152.441406" xlink:href="#DejaVuSans-49"/>
      <use x="216.064453" xlink:href="#DejaVuSans-48"/>
      <use x="279.6875" xlink:href="#DejaVuSans-40"/>
      <use x="318.701172" xlink:href="#DejaVuSans-35"/>
      <use x="402.490234" xlink:href="#DejaVuSans-32"/>
      <use x="434.277344" xlink:href="#DejaVuSans-40"/>
      <use x="473.291016" xlink:href="#DejaVuSans-102"/>
      <use x="508.496094" xlink:href="#DejaVuSans-43"/>
      <use x="592.285156" xlink:href="#DejaVuSans-103"/>
      <use x="655.761719" xlink:href="#DejaVuSans-41"/>
      <use x="694.775391" xlink:href="#DejaVuSans-45"/>
      <use x="730.859375" xlink:href="#DejaVuSans-101"/>
      <use x="792.382812" xlink:href="#DejaVuSans-118"/>
      <use x="851.5625" xlink:href="#DejaVuSans-97"/>
      <use x="912.841797" xlink:href="#DejaVuSans-108"/>
      <use x="940.625" xlink:href="#DejaVuSans-115"/>
      <use x="992.724609" xlink:href="#DejaVuSans-32"/>
      <use x="1024.511719" xlink:href="#DejaVuSans-47"/>
      <use x="1058.203125" xlink:href="#DejaVuSans-32"/>
      <use x="1089.990234" xlink:href="#DejaVuSans-100"/>
      <use x="1153.466797" xlink:href="#DejaVuSans-105"/>
      <use x="1181.25" xlink:href="#DejaVuSans-109"/>
      <use x="1278.662109" xlink:href="#DejaVuSans-101"/>
      <use x="1340.185547" xlink:href="#DejaVuSans-110"/>
      <use x="1403.564453" xlink:href="#DejaVuSans-115"/>
      <use x="1455.664062" xlink:href="#DejaVuSans-105"/>
      <use x="1483.447266" xlink:href="#DejaVuSans-111"/>
      <use x="1544.628906" xlink:href="#DejaVuSans-110"/>
      <use x="1608.007812" xlink:href="#DejaVuSans-41"/>
     </g>
    </g>
   </g>
   <g id="matplotlib.axis_2">
    <g id="ytick_1">
     <g id="line2d_17">
      <path clip-path="url(#pf284202a7e)" d="M 57.6 298.944 
L 338.688 298.944 
" style="fill:none;stroke:#b0b0b0;stroke-linecap:square;stroke-width:0.8;"/>
     </g>
     <g id="line2d_18">
      <defs>
       <path d="M 0 0 
L -3.5 0 
" id="m6d9f03f96d" style="stroke:#000000;stroke-width:0.8;"/>
      </defs>
      <g>
       <use style="stroke:#000000;stroke-width:0.8;" x="57.6" xlink:href="#m6d9f03f96d" y="298.944"/>
      </g>
     </g>
     <g id="text_6">
      <!-- 0.0 -->
      <g transform="translate(25.155 305.02275)scale(0.16 -0.16)">
       <defs>
        <path d="M 10.6875 12.40625 
L 21 12.40625 
L 21 0 
L 10.6875 0 
z
" id="DejaVuSans-46"/>
       </defs>
       <use xlink:href="#DejaVuSans-48"/>
       <use x="63.623047" xlink:href="#DejaVuSans-46"/>
       <use x="95.410156" xlink:href="#DejaVuSans-48"/>
      </g>
     </g>
    </g>
    <g id="ytick_2">
     <g id="line2d_19">
      <path clip-path="url(#pf284202a7e)" d="M 57.6 245.22202 
L 338.688 245.22202 
" style="fill:none;stroke:#b0b0b0;stroke-linecap:square;stroke-width:0.8;"/>
     </g>
     <g id="line2d_20">
      <g>
       <use style="stroke:#000000;stroke-width:0.8;" x="57.6" xlink:href="#m6d9f03f96d" y="245.22202"/>
      </g>
     </g>
     <g id="text_7">
      <!-- 0.2 -->
      <g transform="translate(25.155 251.30077)scale(0.16 -0.16)">
       <use xlink:href="#DejaVuSans-48"/>
       <use x="63.623047" xlink:href="#DejaVuSans-46"/>
       <use x="95.410156" xlink:href="#DejaVuSans-50"/>
      </g>
     </g>
    </g>
    <g id="ytick_3">
     <g id="line2d_21">
      <path clip-path="url(#pf284202a7e)" d="M 57.6 191.50004 
L 338.688 191.50004 
" style="fill:none;stroke:#b0b0b0;stroke-linecap:square;stroke-width:0.8;"/>
     </g>
     <g id="line2d_22">
      <g>
       <use style="stroke:#000000;stroke-width:0.8;" x="57.6" xlink:href="#m6d9f03f96d" y="191.50004"/>
      </g>
     </g>
     <g id="text_8">
      <!-- 0.4 -->
      <g transform="translate(25.155 197.57879)scale(0.16 -0.16)">
       <use xlink:href="#DejaVuSans-48"/>
       <use x="63.623047" xlink:href="#DejaVuSans-46"/>
       <use x="95.410156" xlink:href="#DejaVuSans-52"/>
      </g>
     </g>
    </g>
    <g id="ytick_4">
     <g id="line2d_23">
      <path clip-path="url(#pf284202a7e)" d="M 57.6 137.778059 
L 338.688 137.778059 
" style="fill:none;stroke:#b0b0b0;stroke-linecap:square;stroke-width:0.8;"/>
     </g>
     <g id="line2d_24">
      <g>
       <use style="stroke:#000000;stroke-width:0.8;" x="57.6" xlink:href="#m6d9f03f96d" y="137.778059"/>
      </g>
     </g>
     <g id="text_9">
      <!-- 0.6 -->
      <g transform="translate(25.155 143.856809)scale(0.16 -0.16)">
       <use xlink:href="#DejaVuSans-48"/>
       <use x="63.623047" xlink:href="#DejaVuSans-46"/>
       <use x="95.410156" xlink:href="#DejaVuSans-54"/>
      </g>
     </g>
    </g>
    <g id="ytick_5">
     <g id="line2d_25">
      <path clip-path="url(#pf284202a7e)" d="M 57.6 84.056079 
L 338.688 84.056079 
" style="fill:none;stroke:#b0b0b0;stroke-linecap:square;stroke-width:0.8;"/>
     </g>
     <g id="line2d_26">
      <g>
       <use style="stroke:#000000;stroke-width:0.8;" x="57.6" xlink:href="#m6d9f03f96d" y="84.056079"/>
      </g>
     </g>
     <g id="text_10">
      <!-- 0.8 -->
      <g transform="translate(25.155 90.134829)scale(0.16 -0.16)">
       <defs>
        <path d="M 31.78125 34.625 
Q 24.75 34.625 20.71875 30.859375 
Q 16.703125 27.09375 16.703125 20.515625 
Q 16.703125 13.921875 20.71875 10.15625 
Q 24.75 6.390625 31.78125 6.390625 
Q 38.8125 6.390625 42.859375 10.171875 
Q 46.921875 13.96875 46.921875 20.515625 
Q 46.921875 27.09375 42.890625 30.859375 
Q 38.875 34.625 31.78125 34.625 
z
M 21.921875 38.8125 
Q 15.578125 40.375 12.03125 44.71875 
Q 8.5 49.078125 8.5 55.328125 
Q 8.5 64.0625 14.71875 69.140625 
Q 20.953125 74.21875 31.78125 74.21875 
Q 42.671875 74.21875 48.875 69.140625 
Q 55.078125 64.0625 55.078125 55.328125 
Q 55.078125 49.078125 51.53125 44.71875 
Q 48 40.375 41.703125 38.8125 
Q 48.828125 37.15625 52.796875 32.3125 
Q 56.78125 27.484375 56.78125 20.515625 
Q 56.78125 9.90625 50.3125 4.234375 
Q 43.84375 -1.421875 31.78125 -1.421875 
Q 19.734375 -1.421875 13.25 4.234375 
Q 6.78125 9.90625 6.78125 20.515625 
Q 6.78125 27.484375 10.78125 32.3125 
Q 14.796875 37.15625 21.921875 38.8125 
z
M 18.3125 54.390625 
Q 18.3125 48.734375 21.84375 45.5625 
Q 25.390625 42.390625 31.78125 42.390625 
Q 38.140625 42.390625 41.71875 45.5625 
Q 45.3125 48.734375 45.3125 54.390625 
Q 45.3125 60.0625 41.71875 63.234375 
Q 38.140625 66.40625 31.78125 66.40625 
Q 25.390625 66.40625 21.84375 63.234375 
Q 18.3125 60.0625 18.3125 54.390625 
z
" id="DejaVuSans-56"/>
       </defs>
       <use xlink:href="#DejaVuSans-48"/>
       <use x="63.623047" xlink:href="#DejaVuSans-46"/>
       <use x="95.410156" xlink:href="#DejaVuSans-56"/>
      </g>
     </g>
    </g>
    <g id="ytick_6">
     <g id="line2d_27">
      <path clip-path="url(#pf284202a7e)" d="M 57.6 30.334099 
L 338.688 30.334099 
" style="fill:none;stroke:#b0b0b0;stroke-linecap:square;stroke-width:0.8;"/>
     </g>
     <g id="line2d_28">
      <g>
       <use style="stroke:#000000;stroke-width:0.8;" x="57.6" xlink:href="#m6d9f03f96d" y="30.334099"/>
      </g>
     </g>
     <g id="text_11">
      <!-- 1.0 -->
      <g transform="translate(25.155 36.412849)scale(0.16 -0.16)">
       <use xlink:href="#DejaVuSans-49"/>
       <use x="63.623047" xlink:href="#DejaVuSans-46"/>
       <use x="95.410156" xlink:href="#DejaVuSans-48"/>
      </g>
     </g>
    </g>
    <g id="text_12">
     <!-- Fraction of function,target pairs -->
     <g transform="translate(17.619531 297.681)rotate(-90)scale(0.17 -0.17)">
      <defs>
       <path d="M 9.8125 72.90625 
L 51.703125 72.90625 
L 51.703125 64.59375 
L 19.671875 64.59375 
L 19.671875 43.109375 
L 48.578125 43.109375 
L 48.578125 34.8125 
L 19.671875 34.8125 
L 19.671875 0 
L 9.8125 0 
z
" id="DejaVuSans-70"/>
       <path d="M 41.109375 46.296875 
Q 39.59375 47.171875 37.8125 47.578125 
Q 36.03125 48 33.890625 48 
Q 26.265625 48 22.1875 43.046875 
Q 18.109375 38.09375 18.109375 28.8125 
L 18.109375 0 
L 9.078125 0 
L 9.078125 54.6875 
L 18.109375 54.6875 
L 18.109375 46.1875 
Q 20.953125 51.171875 25.484375 53.578125 
Q 30.03125 56 36.53125 56 
Q 37.453125 56 38.578125 55.875 
Q 39.703125 55.765625 41.0625 55.515625 
z
" id="DejaVuSans-114"/>
       <path d="M 48.78125 52.59375 
L 48.78125 44.1875 
Q 44.96875 46.296875 41.140625 47.34375 
Q 37.3125 48.390625 33.40625 48.390625 
Q 24.65625 48.390625 19.8125 42.84375 
Q 14.984375 37.3125 14.984375 27.296875 
Q 14.984375 17.28125 19.8125 11.734375 
Q 24.65625 6.203125 33.40625 6.203125 
Q 37.3125 6.203125 41.140625 7.25 
Q 44.96875 8.296875 48.78125 10.40625 
L 48.78125 2.09375 
Q 45.015625 0.34375 40.984375 -0.53125 
Q 36.96875 -1.421875 32.421875 -1.421875 
Q 20.0625 -1.421875 12.78125 6.34375 
Q 5.515625 14.109375 5.515625 27.296875 
Q 5.515625 40.671875 12.859375 48.328125 
Q 20.21875 56 33.015625 56 
Q 37.15625 56 41.109375 55.140625 
Q 45.0625 54.296875 48.78125 52.59375 
z
" id="DejaVuSans-99"/>
       <path d="M 18.3125 70.21875 
L 18.3125 54.6875 
L 36.8125 54.6875 
L 36.8125 47.703125 
L 18.3125 47.703125 
L 18.3125 18.015625 
Q 18.3125 11.328125 20.140625 9.421875 
Q 21.96875 7.515625 27.59375 7.515625 
L 36.8125 7.515625 
L 36.8125 0 
L 27.59375 0 
Q 17.1875 0 13.234375 3.875 
Q 9.28125 7.765625 9.28125 18.015625 
L 9.28125 47.703125 
L 2.6875 47.703125 
L 2.6875 54.6875 
L 9.28125 54.6875 
L 9.28125 70.21875 
z
" id="DejaVuSans-116"/>
       <path d="M 8.5 21.578125 
L 8.5 54.6875 
L 17.484375 54.6875 
L 17.484375 21.921875 
Q 17.484375 14.15625 20.5 10.265625 
Q 23.53125 6.390625 29.59375 6.390625 
Q 36.859375 6.390625 41.078125 11.03125 
Q 45.3125 15.671875 45.3125 23.6875 
L 45.3125 54.6875 
L 54.296875 54.6875 
L 54.296875 0 
L 45.3125 0 
L 45.3125 8.40625 
Q 42.046875 3.421875 37.71875 1 
Q 33.40625 -1.421875 27.6875 -1.421875 
Q 18.265625 -1.421875 13.375 4.4375 
Q 8.5 10.296875 8.5 21.578125 
z
M 31.109375 56 
z
" id="DejaVuSans-117"/>
       <path d="M 11.71875 12.40625 
L 22.015625 12.40625 
L 22.015625 4 
L 14.015625 -11.625 
L 7.71875 -11.625 
L 11.71875 4 
z
" id="DejaVuSans-44"/>
       <path d="M 18.109375 8.203125 
L 18.109375 -20.796875 
L 9.078125 -20.796875 
L 9.078125 54.6875 
L 18.109375 54.6875 
L 18.109375 46.390625 
Q 20.953125 51.265625 25.265625 53.625 
Q 29.59375 56 35.59375 56 
Q 45.5625 56 51.78125 48.09375 
Q 58.015625 40.1875 58.015625 27.296875 
Q 58.015625 14.40625 51.78125 6.484375 
Q 45.5625 -1.421875 35.59375 -1.421875 
Q 29.59375 -1.421875 25.265625 0.953125 
Q 20.953125 3.328125 18.109375 8.203125 
z
M 48.6875 27.296875 
Q 48.6875 37.203125 44.609375 42.84375 
Q 40.53125 48.484375 33.40625 48.484375 
Q 26.265625 48.484375 22.1875 42.84375 
Q 18.109375 37.203125 18.109375 27.296875 
Q 18.109375 17.390625 22.1875 11.75 
Q 26.265625 6.109375 33.40625 6.109375 
Q 40.53125 6.109375 44.609375 11.75 
Q 48.6875 17.390625 48.6875 27.296875 
z
" id="DejaVuSans-112"/>
      </defs>
      <use xlink:href="#DejaVuSans-70"/>
      <use x="50.269531" xlink:href="#DejaVuSans-114"/>
      <use x="91.382812" xlink:href="#DejaVuSans-97"/>
      <use x="152.662109" xlink:href="#DejaVuSans-99"/>
      <use x="207.642578" xlink:href="#DejaVuSans-116"/>
      <use x="246.851562" xlink:href="#DejaVuSans-105"/>
      <use x="274.634766" xlink:href="#DejaVuSans-111"/>
      <use x="335.816406" xlink:href="#DejaVuSans-110"/>
      <use x="399.195312" xlink:href="#DejaVuSans-32"/>
      <use x="430.982422" xlink:href="#DejaVuSans-111"/>
      <use x="492.164062" xlink:href="#DejaVuSans-102"/>
      <use x="527.369141" xlink:href="#DejaVuSans-32"/>
      <use x="559.15625" xlink:href="#DejaVuSans-102"/>
      <use x="594.361328" xlink:href="#DejaVuSans-117"/>
      <use x="657.740234" xlink:href="#DejaVuSans-110"/>
      <use x="721.119141" xlink:href="#DejaVuSans-99"/>
      <use x="776.099609" xlink:href="#DejaVuSans-116"/>
      <use x="815.308594" xlink:href="#DejaVuSans-105"/>
      <use x="843.091797" xlink:href="#DejaVuSans-111"/>
      <use x="904.273438" xlink:href="#DejaVuSans-110"/>
      <use x="967.652344" xlink:href="#DejaVuSans-44"/>
      <use x="999.439453" xlink:href="#DejaVuSans-116"/>
      <use x="1038.648438" xlink:href="#DejaVuSans-97"/>
      <use x="1099.927734" xlink:href="#DejaVuSans-114"/>
      <use x="1139.291016" xlink:href="#DejaVuSans-103"/>
      <use x="1202.767578" xlink:href="#DejaVuSans-101"/>
      <use x="1264.291016" xlink:href="#DejaVuSans-116"/>
      <use x="1303.5" xlink:href="#DejaVuSans-32"/>
      <use x="1335.287109" xlink:href="#DejaVuSans-112"/>
      <use x="1398.763672" xlink:href="#DejaVuSans-97"/>
      <use x="1460.042969" xlink:href="#DejaVuSans-105"/>
      <use x="1487.826172" xlink:href="#DejaVuSans-114"/>
      <use x="1528.939453" xlink:href="#DejaVuSans-115"/>
     </g>
    </g>
   </g>
   <g id="line2d_29">
    <defs>
     <path d="M 0 1.5 
C 0.397805 1.5 0.77937 1.341951 1.06066 1.06066 
C 1.341951 0.77937 1.5 0.397805 1.5 0 
C 1.5 -0.397805 1.341951 -0.77937 1.06066 -1.06066 
C 0.77937 -1.341951 0.397805 -1.5 0 -1.5 
C -0.397805 -1.5 -0.77937 -1.341951 -1.06066 -1.06066 
C -1.341951 -0.77937 -1.5 -0.397805 -1.5 0 
C -1.5 0.397805 -1.341951 0.77937 -1.06066 1.06066 
C -0.77937 1.341951 -0.397805 1.5 0 1.5 
z
" id="m9022cc73c3" style="stroke:#000080;"/>
    </defs>
    <g>
     <use style="fill:#000080;stroke:#000080;" x="184.413285" xlink:href="#m9022cc73c3" y="30.334099"/>
     <use style="fill:#000080;stroke:#000080;" x="184.413285" xlink:href="#m9022cc73c3" y="30.334099"/>
    </g>
   </g>
   <g id="line2d_30">
    <path d="M 45.512012 298.944 
L 45.512012 293.047685 
L 76.759008 293.047685 
L 76.759008 291.737393 
L 88.846997 291.737393 
L 88.846997 291.082247 
L 93.863965 291.082247 
L 93.863965 289.771955 
L 103.623262 289.771955 
L 103.623262 289.116809 
L 107.009204 289.116809 
L 107.009204 283.220494 
L 112.280765 283.220494 
L 112.280765 282.565348 
L 114.418861 282.565348 
L 114.418861 267.496987 
L 115.711251 267.496987 
L 115.711251 266.841841 
L 120.093994 266.841841 
L 120.093994 264.221257 
L 120.571812 264.221257 
L 120.571812 262.910965 
L 122.782271 262.910965 
L 122.782271 257.669796 
L 123.593547 257.669796 
L 123.593547 253.738919 
L 123.985457 253.738919 
L 123.985457 251.118335 
L 124.368753 251.118335 
L 124.368753 249.808043 
L 124.743806 249.808043 
L 124.743806 243.911728 
L 125.110962 243.911728 
L 125.110962 242.601435 
L 126.839037 242.601435 
L 126.839037 238.670559 
L 128.107907 238.670559 
L 128.107907 235.394828 
L 129.002426 235.394828 
L 129.002426 234.739682 
L 130.398313 234.739682 
L 130.398313 234.084536 
L 131.185181 234.084536 
L 131.185181 233.42939 
L 131.690703 233.42939 
L 131.690703 228.843367 
L 132.659801 228.843367 
L 132.659801 225.567637 
L 133.124876 225.567637 
L 133.124876 224.912491 
L 133.352844 224.912491 
L 133.352844 224.257345 
L 134.019394 224.257345 
L 134.019394 222.947052 
L 134.236034 222.947052 
L 134.236034 222.291906 
L 134.870259 222.291906 
L 134.870259 221.63676 
L 136.831795 221.63676 
L 136.831795 220.981614 
L 138.927025 220.981614 
L 138.927025 220.326468 
L 139.090775 220.326468 
L 139.090775 219.016176 
L 139.253002 219.016176 
L 139.253002 217.705884 
L 139.413734 217.705884 
L 139.413734 217.050738 
L 141.235139 217.050738 
L 141.235139 215.740445 
L 141.80232 215.740445 
L 141.80232 214.430153 
L 142.215919 214.430153 
L 142.215919 213.775007 
L 144.510517 213.775007 
L 144.510517 213.119861 
L 145.097753 213.119861 
L 145.097753 212.464715 
L 147.164632 212.464715 
L 147.164632 211.809569 
L 147.769524 211.809569 
L 147.769524 209.188984 
L 148.354135 209.188984 
L 148.354135 208.533838 
L 149.286939 208.533838 
L 149.377533 207.223546 
L 149.735275 207.223546 
L 149.735275 205.913254 
L 149.911431 205.913254 
L 149.911431 205.258108 
L 150.429467 205.258108 
L 150.429467 204.602962 
L 150.766468 204.602962 
L 150.849711 202.637523 
L 152.130233 202.637523 
L 152.130233 201.327231 
L 152.587184 201.327231 
L 152.587184 200.672085 
L 153.178403 200.672085 
L 153.178403 200.016939 
L 153.679772 200.016939 
L 153.750233 198.706647 
L 153.959927 198.706647 
L 153.959927 197.396355 
L 155.488919 197.396355 
L 155.488919 196.086062 
L 155.678822 196.086062 
L 155.678822 195.430916 
L 155.928852 195.430916 
L 155.990803 193.465478 
L 156.894595 193.465478 
L 156.894595 192.810332 
L 157.011638 192.810332 
L 157.011638 192.155186 
L 157.753847 192.155186 
L 157.753847 191.50004 
L 158.195371 191.50004 
L 158.304027 188.879455 
L 158.51933 188.879455 
L 158.625992 187.569163 
L 158.889829 187.569163 
L 158.994256 186.258871 
L 159.354904 186.258871 
L 159.354904 185.603725 
L 159.956318 185.603725 
L 160.005512 182.327994 
L 160.394148 182.327994 
L 160.394148 181.017702 
L 160.727241 181.017702 
L 160.821253 179.70741 
L 160.86807 179.70741 
L 160.86807 178.397118 
L 161.100288 178.397118 
L 161.100288 177.741972 
L 161.465522 177.741972 
L 161.555647 176.431679 
L 161.600536 176.431679 
L 161.689969 175.121387 
L 161.955547 175.121387 
L 162.043181 172.500803 
L 163.061823 172.500803 
L 163.061823 171.190511 
L 163.50953 171.190511 
L 163.50953 170.535364 
L 163.709295 170.535364 
L 163.709295 169.880218 
L 163.867476 169.880218 
L 163.867476 169.225072 
L 163.985177 169.225072 
L 163.985177 167.91478 
L 164.179597 167.91478 
L 164.256762 166.604488 
L 164.333587 166.604488 
L 164.333587 165.949342 
L 164.448194 165.949342 
L 164.448194 165.294196 
L 164.75018 165.294196 
L 164.75018 163.328757 
L 164.973287 163.328757 
L 165.083779 160.053027 
L 165.375047 160.053027 
L 165.375047 158.087589 
L 165.697012 158.087589 
L 165.697012 157.432442 
L 165.873346 157.432442 
L 165.9084 154.156712 
L 166.220754 154.156712 
L 166.220754 153.501566 
L 166.425924 153.501566 
L 166.493781 151.536128 
L 166.595075 151.536128 
L 166.662278 148.260397 
L 166.862349 148.260397 
L 166.862349 147.605251 
L 167.06015 147.605251 
L 167.158215 145.639813 
L 167.320442 145.639813 
L 167.320442 144.984667 
L 167.576907 144.984667 
L 167.640438 142.364082 
L 167.798261 142.364082 
L 167.860992 140.398644 
L 168.109685 140.398644 
L 168.109685 139.743498 
L 168.566635 139.743498 
L 168.566635 138.433206 
L 168.71633 138.433206 
L 168.805533 135.812621 
L 168.982583 135.812621 
L 168.982583 133.192037 
L 169.215888 133.192037 
L 169.302579 130.571452 
L 169.331381 130.571452 
L 169.331381 129.26116 
L 169.560096 129.26116 
L 169.645097 127.950868 
L 169.86976 127.950868 
L 169.86976 127.295722 
L 170.201421 127.295722 
L 170.201421 125.330284 
L 170.392016 125.330284 
L 170.392016 124.019991 
L 170.553741 124.019991 
L 170.634045 121.399407 
L 170.740545 121.399407 
L 170.819995 120.089115 
L 170.899085 120.089115 
L 170.899085 118.778823 
L 171.54458 118.778823 
L 171.54458 118.123676 
L 171.67086 118.123676 
L 171.67086 117.46853 
L 171.846131 117.46853 
L 171.846131 116.813384 
L 172.093501 116.813384 
L 172.093501 116.158238 
L 172.240256 116.158238 
L 172.240256 114.1928 
L 172.409924 114.1928 
L 172.506141 108.951631 
L 172.673253 108.951631 
L 172.768032 106.986193 
L 173.188276 106.986193 
L 173.188276 106.331047 
L 173.303236 106.331047 
L 173.371849 104.365608 
L 173.485609 104.365608 
L 173.55351 101.089878 
L 173.777957 101.089878 
L 173.822502 99.12444 
L 173.955458 99.12444 
L 174.043535 97.159001 
L 174.305129 97.159001 
L 174.412979 95.193563 
L 174.434469 95.193563 
L 174.455933 93.228125 
L 174.562857 93.228125 
L 174.562857 91.917832 
L 174.774759 91.917832 
L 174.879752 86.676664 
L 175.08786 86.676664 
L 175.170413 82.090641 
L 175.436043 82.090641 
L 175.537141 80.780349 
L 175.637655 80.780349 
L 175.717652 77.504618 
L 175.757513 77.504618 
L 175.757513 76.849472 
L 175.975136 76.849472 
L 176.073165 74.884034 
L 176.112223 74.884034 
L 176.112223 74.228888 
L 176.325491 74.228888 
L 176.325491 73.573742 
L 176.574218 73.573742 
L 176.574218 72.263449 
L 177.624761 72.263449 
L 177.696161 70.298011 
L 177.820411 70.298011 
L 177.820411 68.332573 
L 177.943781 68.332573 
L 178.013889 65.056842 
L 178.083716 65.056842 
L 178.083716 64.401696 
L 178.205245 64.401696 
L 178.239812 61.781112 
L 178.343106 61.781112 
L 178.343106 61.125966 
L 178.513913 61.125966 
L 178.513913 60.47082 
L 178.73349 60.47082 
L 178.8005 59.160527 
L 178.883902 59.160527 
L 178.883902 57.195089 
L 178.999998 57.195089 
L 178.999998 55.229651 
L 179.262495 55.229651 
L 179.262495 53.264213 
L 179.488982 53.264213 
L 179.488982 51.298774 
L 179.980262 51.298774 
L 180.042657 48.67819 
L 180.104829 48.67819 
L 180.2131 47.367898 
L 180.594385 47.367898 
L 180.699667 46.057605 
L 180.893522 46.057605 
L 180.893522 44.747313 
L 181.114555 44.747313 
L 181.20219 42.781875 
L 181.289386 42.781875 
L 181.289386 42.126729 
L 181.704798 42.126729 
L 181.803604 40.816437 
L 181.901854 40.816437 
L 181.985629 39.506144 
L 182.110543 39.506144 
L 182.110543 38.850998 
L 182.303092 38.850998 
L 182.303092 38.195852 
L 182.439337 38.195852 
L 182.439337 35.575268 
L 182.88154 35.575268 
L 182.88154 34.920122 
L 183.37723 34.920122 
L 183.37723 32.299537 
L 184.328244 32.299537 
L 184.413285 30.334099 
L 338.688 30.334099 
L 338.688 30.334099 
" style="fill:none;stroke:#000080;stroke-linecap:square;stroke-width:1.5;"/>
   </g>
   <g id="line2d_31">
    <defs>
     <path d="M 0 6 
C 1.591219 6 3.117479 5.367802 4.242641 4.242641 
C 5.367802 3.117479 6 1.591219 6 0 
C 6 -1.591219 5.367802 -3.117479 4.242641 -4.242641 
C 3.117479 -5.367802 1.591219 -6 0 -6 
C -1.591219 -6 -3.117479 -5.367802 -4.242641 -4.242641 
C -5.367802 -3.117479 -6 -1.591219 -6 0 
C -6 1.591219 -5.367802 3.117479 -4.242641 4.242641 
C -3.117479 5.367802 -1.591219 6 0 6 
z
" id="m7263ca6534" style="stroke:#000080;stroke-width:1.5;"/>
    </defs>
    <g>
     <use style="fill-opacity:0;stroke:#000080;stroke-width:1.5;" x="124.368753" xlink:href="#m7263ca6534" y="249.808043"/>
     <use style="fill-opacity:0;stroke:#000080;stroke-width:1.5;" x="165.375047" xlink:href="#m7263ca6534" y="158.087589"/>
     <use style="fill-opacity:0;stroke:#000080;stroke-width:1.5;" x="181.704798" xlink:href="#m7263ca6534" y="42.126729"/>
     <use style="fill-opacity:0;stroke:#000080;stroke-width:1.5;" x="184.413285" xlink:href="#m7263ca6534" y="30.334099"/>
     <use style="fill-opacity:0;stroke:#000080;stroke-width:1.5;" x="184.413285" xlink:href="#m7263ca6534" y="30.334099"/>
     <use style="fill-opacity:0;stroke:#000080;stroke-width:1.5;" x="338.688" xlink:href="#m7263ca6534" y="30.334099"/>
    </g>
   </g>
   <g id="line2d_32">
    <path style="fill:none;stroke:#000080;stroke-linecap:square;stroke-width:1.5;"/>
    <g/>
   </g>
   <g id="line2d_33">
    <defs>
     <path d="M 0 1.5 
C 0.397805 1.5 0.77937 1.341951 1.06066 1.06066 
C 1.341951 0.77937 1.5 0.397805 1.5 0 
C 1.5 -0.397805 1.341951 -0.77937 1.06066 -1.06066 
C 0.77937 -1.341951 0.397805 -1.5 0 -1.5 
C -0.397805 -1.5 -0.77937 -1.341951 -1.06066 -1.06066 
C -1.341951 -0.77937 -1.5 -0.397805 -1.5 0 
C -1.5 0.397805 -1.341951 0.77937 -1.06066 1.06066 
C -0.77937 1.341951 -0.397805 1.5 0 1.5 
z
" id="m3a515e9923" style="stroke:#ff00ff;"/>
    </defs>
    <g>
     <use style="fill:#ff00ff;stroke:#ff00ff;" x="125.110962" xlink:href="#m3a515e9923" y="30.334099"/>
     <use style="fill:#ff00ff;stroke:#ff00ff;" x="125.110962" xlink:href="#m3a515e9923" y="30.334099"/>
    </g>
   </g>
   <g id="line2d_34">
    <path d="M 45.512012 298.944 
L 45.512012 292.392539 
L 79.447285 292.392539 
L 79.447285 285.841078 
L 83.830028 285.841078 
L 83.830028 249.808043 
L 90.242884 249.808043 
L 90.242884 230.15366 
L 92.73846 230.15366 
L 92.73846 156.12215 
L 94.921215 156.12215 
L 94.921215 141.708936 
L 95.918017 141.708936 
L 95.918017 141.05379 
L 96.86091 141.05379 
L 96.86091 122.709699 
L 97.755429 122.709699 
L 97.755429 116.813384 
L 98.606294 116.813384 
L 98.606294 101.089878 
L 99.41757 101.089878 
L 99.41757 100.434732 
L 100.934985 100.434732 
L 100.934985 95.193563 
L 102.330873 95.193563 
L 102.330873 89.952394 
L 103.623262 89.952394 
L 103.623262 86.021518 
L 104.826449 86.021518 
L 104.826449 75.53918 
L 105.398279 75.53918 
L 105.398279 74.884034 
L 105.951954 74.884034 
L 105.951954 70.298011 
L 107.009204 70.298011 
L 107.009204 62.436258 
L 107.514726 62.436258 
L 107.514726 61.781112 
L 108.006005 61.781112 
L 108.006005 56.539943 
L 108.483824 56.539943 
L 108.483824 55.884797 
L 108.948899 55.884797 
L 108.948899 54.574505 
L 109.401893 54.574505 
L 109.401893 53.264213 
L 109.843417 53.264213 
L 109.843417 51.298774 
L 110.694282 51.298774 
L 110.694282 50.643628 
L 111.104637 50.643628 
L 111.104637 49.988482 
L 111.897469 49.988482 
L 111.897469 47.367898 
L 113.382559 47.367898 
L 113.382559 46.712752 
L 113.73488 46.712752 
L 113.73488 46.057605 
L 114.080224 46.057605 
L 114.080224 45.402459 
L 114.418861 45.402459 
L 114.418861 44.092167 
L 114.751048 44.092167 
L 114.751048 42.781875 
L 115.077025 42.781875 
L 115.077025 42.126729 
L 115.397021 42.126729 
L 115.397021 40.161291 
L 116.019919 40.161291 
L 116.019919 39.506144 
L 116.323218 39.506144 
L 116.323218 38.850998 
L 116.621333 38.850998 
L 116.621333 36.230414 
L 118.039942 36.230414 
L 118.039942 35.575268 
L 119.097192 35.575268 
L 119.097192 34.264976 
L 119.850084 34.264976 
L 119.850084 32.954683 
L 121.712041 32.954683 
L 121.712041 32.299537 
L 122.782271 32.299537 
L 122.782271 31.644391 
L 123.985457 31.644391 
L 123.985457 30.989245 
L 125.110962 30.989245 
L 125.110962 30.334099 
L 338.688 30.334099 
" style="fill:none;stroke:#ff00ff;stroke-linecap:square;stroke-width:1.5;"/>
   </g>
   <g id="line2d_35">
    <defs>
     <path d="M -0 8.485281 
L 5.091169 0 
L 0 -8.485281 
L -5.091169 -0 
z
" id="m1402b1def4" style="stroke:#ff00ff;stroke-linejoin:miter;stroke-width:1.5;"/>
    </defs>
    <g>
     <use style="fill-opacity:0;stroke:#ff00ff;stroke-linejoin:miter;stroke-width:1.5;" x="92.73846" xlink:href="#m1402b1def4" y="230.15366"/>
     <use style="fill-opacity:0;stroke:#ff00ff;stroke-linejoin:miter;stroke-width:1.5;" x="125.110962" xlink:href="#m1402b1def4" y="30.989245"/>
     <use style="fill-opacity:0;stroke:#ff00ff;stroke-linejoin:miter;stroke-width:1.5;" x="125.110962" xlink:href="#m1402b1def4" y="30.989245"/>
     <use style="fill-opacity:0;stroke:#ff00ff;stroke-linejoin:miter;stroke-width:1.5;" x="125.110962" xlink:href="#m1402b1def4" y="30.334099"/>
     <use style="fill-opacity:0;stroke:#ff00ff;stroke-linejoin:miter;stroke-width:1.5;" x="125.110962" xlink:href="#m1402b1def4" y="30.334099"/>
     <use style="fill-opacity:0;stroke:#ff00ff;stroke-linejoin:miter;stroke-width:1.5;" x="338.688" xlink:href="#m1402b1def4" y="30.334099"/>
    </g>
   </g>
   <g id="line2d_36">
    <path style="fill:none;stroke:#ff00ff;stroke-linecap:square;stroke-width:1.5;"/>
    <g/>
   </g>
   <g id="line2d_37">
    <path clip-path="url(#pf284202a7e)" d="M 92.73846 156.12215 
" style="fill:none;stroke:#ff00ff;stroke-linecap:square;stroke-width:1.5;"/>
    <defs>
     <path d="M -12 12 
L 12 -12 
M -12 -12 
L 12 12 
" id="m10bb7467cb" style="stroke:#ff00ff;"/>
    </defs>
    <g clip-path="url(#pf284202a7e)">
     <use style="fill:#ff00ff;stroke:#ff00ff;" x="92.73846" xlink:href="#m10bb7467cb" y="156.12215"/>
    </g>
   </g>
   <g id="line2d_38">
    <defs>
     <path d="M 0 1.5 
C 0.397805 1.5 0.77937 1.341951 1.06066 1.06066 
C 1.341951 0.77937 1.5 0.397805 1.5 0 
C 1.5 -0.397805 1.341951 -0.77937 1.06066 -1.06066 
C 0.77937 -1.341951 0.397805 -1.5 0 -1.5 
C -0.397805 -1.5 -0.77937 -1.341951 -1.06066 -1.06066 
C -1.341951 -0.77937 -1.5 -0.397805 -1.5 0 
C -1.5 0.397805 -1.341951 0.77937 -1.06066 1.06066 
C -0.77937 1.341951 -0.397805 1.5 0 1.5 
z
" id="m5cab60f41e" style="stroke:#ff7500;"/>
    </defs>
    <g>
     <use style="fill:#ff7500;stroke:#ff7500;" x="139.572998" xlink:href="#m5cab60f41e" y="30.334099"/>
     <use style="fill:#ff7500;stroke:#ff7500;" x="139.572998" xlink:href="#m5cab60f41e" y="30.334099"/>
    </g>
   </g>
   <g id="line2d_39">
    <path d="M 45.512012 298.944 
L 45.512012 292.392539 
L 81.775977 292.392539 
L 81.775977 271.427864 
L 91.535274 271.427864 
L 91.535274 244.566874 
L 97.755429 244.566874 
L 97.755429 213.775007 
L 102.330873 213.775007 
L 102.330873 182.327994 
L 105.951954 182.327994 
L 105.951954 173.155949 
L 108.948899 173.155949 
L 108.948899 167.91478 
L 111.505558 167.91478 
L 111.505558 165.294196 
L 113.73488 165.294196 
L 113.73488 155.467004 
L 115.711251 155.467004 
L 115.711251 153.501566 
L 117.486268 153.501566 
L 117.486268 147.605251 
L 118.039942 147.605251 
L 118.039942 145.639813 
L 119.097192 145.639813 
L 119.097192 140.398644 
L 119.602714 140.398644 
L 119.602714 135.157475 
L 120.571812 135.157475 
L 120.571812 129.26116 
L 121.036887 129.26116 
L 121.036887 125.330284 
L 121.931406 125.330284 
L 121.931406 116.813384 
L 122.362027 116.813384 
L 122.362027 113.537654 
L 123.192626 113.537654 
L 123.192626 103.710462 
L 123.593547 103.710462 
L 123.593547 99.12444 
L 124.368753 99.12444 
L 124.368753 87.986956 
L 124.743806 87.986956 
L 124.743806 86.021518 
L 125.470548 86.021518 
L 125.470548 73.573742 
L 126.50685 73.573742 
L 126.50685 61.125966 
L 127.48501 61.125966 
L 127.48501 53.264213 
L 128.411207 53.264213 
L 128.411207 42.126729 
L 129.290685 42.126729 
L 129.290685 37.540706 
L 130.127931 37.540706 
L 130.127931 35.575268 
L 136.266147 35.575268 
L 136.266147 34.920122 
L 137.558536 34.920122 
L 137.558536 34.264976 
L 138.256201 34.264976 
L 138.256201 33.60983 
L 139.572998 33.60983 
L 139.572998 30.334099 
L 338.688 30.334099 
" style="fill:none;stroke:#ff7500;stroke-linecap:square;stroke-width:1.5;"/>
   </g>
   <g id="line2d_40">
    <defs>
     <path d="M 0 -6 
L -1.347084 -1.854102 
L -5.706339 -1.854102 
L -2.179628 0.708204 
L -3.526712 4.854102 
L -0 2.291796 
L 3.526712 4.854102 
L 2.179628 0.708204 
L 5.706339 -1.854102 
L 1.347084 -1.854102 
z
" id="m9379b1b44d" style="stroke:#ff7500;stroke-linejoin:bevel;stroke-width:1.5;"/>
    </defs>
    <g>
     <use style="fill-opacity:0;stroke:#ff7500;stroke-linejoin:bevel;stroke-width:1.5;" x="115.711251" xlink:href="#m9379b1b44d" y="153.501566"/>
     <use style="fill-opacity:0;stroke:#ff7500;stroke-linejoin:bevel;stroke-width:1.5;" x="139.572998" xlink:href="#m9379b1b44d" y="33.60983"/>
     <use style="fill-opacity:0;stroke:#ff7500;stroke-linejoin:bevel;stroke-width:1.5;" x="139.572998" xlink:href="#m9379b1b44d" y="30.334099"/>
     <use style="fill-opacity:0;stroke:#ff7500;stroke-linejoin:bevel;stroke-width:1.5;" x="139.572998" xlink:href="#m9379b1b44d" y="30.334099"/>
     <use style="fill-opacity:0;stroke:#ff7500;stroke-linejoin:bevel;stroke-width:1.5;" x="338.688" xlink:href="#m9379b1b44d" y="30.334099"/>
    </g>
   </g>
   <g id="line2d_41">
    <path style="fill:none;stroke:#ff7500;stroke-linecap:square;stroke-width:1.5;"/>
    <g/>
   </g>
   <g id="line2d_42">
    <path clip-path="url(#pf284202a7e)" d="M 124.368753 87.986956 
" style="fill:none;stroke:#ff7500;stroke-linecap:square;stroke-width:1.5;"/>
    <defs>
     <path d="M -12 12 
L 12 -12 
M -12 -12 
L 12 12 
" id="m4010ead66d" style="stroke:#ff7500;"/>
    </defs>
    <g clip-path="url(#pf284202a7e)">
     <use style="fill:#ff7500;stroke:#ff7500;" x="124.368753" xlink:href="#m4010ead66d" y="87.986956"/>
    </g>
   </g>
   <g id="line2d_43">
    <defs>
     <path d="M 0 1.5 
C 0.397805 1.5 0.77937 1.341951 1.06066 1.06066 
C 1.341951 0.77937 1.5 0.397805 1.5 0 
C 1.5 -0.397805 1.341951 -0.77937 1.06066 -1.06066 
C 0.77937 -1.341951 0.397805 -1.5 0 -1.5 
C -0.397805 -1.5 -0.77937 -1.341951 -1.06066 -1.06066 
C -1.341951 -0.77937 -1.5 -0.397805 -1.5 0 
C -1.5 0.397805 -1.341951 0.77937 -1.06066 1.06066 
C -0.77937 1.341951 -0.397805 1.5 0 1.5 
z
" id="m9822880657" style="stroke:#6495ed;"/>
    </defs>
    <g>
     <use style="fill:#6495ed;stroke:#6495ed;" x="179.941152" xlink:href="#m9822880657" y="30.334099"/>
     <use style="fill:#6495ed;stroke:#6495ed;" x="179.941152" xlink:href="#m9822880657" y="30.334099"/>
    </g>
   </g>
   <g id="line2d_44">
    <path d="M 45.512012 298.944 
L 45.512012 291.082247 
L 85.66744 291.082247 
L 85.66744 238.670559 
L 90.242884 238.670559 
L 90.242884 233.42939 
L 94.921215 233.42939 
L 94.921215 205.913254 
L 96.86091 205.913254 
L 96.86091 174.466241 
L 97.755429 174.466241 
L 97.755429 173.811095 
L 100.934985 173.811095 
L 100.934985 150.225835 
L 102.330873 150.225835 
L 102.330873 107.641339 
L 103.623262 107.641339 
L 103.623262 103.710462 
L 104.23523 103.710462 
L 104.23523 103.055316 
L 108.006005 103.055316 
L 108.006005 102.40017 
L 108.483824 102.40017 
L 108.483824 101.745024 
L 109.843417 101.745024 
L 109.843417 99.779586 
L 111.104637 99.779586 
L 111.104637 97.814147 
L 111.505558 97.814147 
L 111.505558 95.193563 
L 111.897469 95.193563 
L 111.897469 94.538417 
L 112.280765 94.538417 
L 112.280765 91.262686 
L 112.655818 91.262686 
L 112.655818 89.297248 
L 113.382559 89.297248 
L 113.382559 88.642102 
L 113.73488 88.642102 
L 113.73488 87.986956 
L 114.080224 87.986956 
L 114.080224 86.676664 
L 114.418861 86.676664 
L 114.418861 86.021518 
L 114.751048 86.021518 
L 114.751048 82.090641 
L 115.397021 82.090641 
L 115.397021 80.780349 
L 115.711251 80.780349 
L 115.711251 80.125203 
L 116.323218 80.125203 
L 116.323218 79.470057 
L 116.621333 79.470057 
L 116.621333 78.81491 
L 117.765302 78.81491 
L 117.765302 76.849472 
L 118.039942 76.849472 
L 118.039942 76.194326 
L 120.093994 76.194326 
L 120.093994 75.53918 
L 120.571812 75.53918 
L 120.571812 74.884034 
L 120.8059 74.884034 
L 120.8059 74.228888 
L 121.931406 74.228888 
L 121.931406 73.573742 
L 122.148045 73.573742 
L 122.148045 72.918596 
L 122.573415 72.918596 
L 122.573415 72.263449 
L 123.192626 72.263449 
L 123.192626 71.608303 
L 123.394238 71.608303 
L 123.394238 70.953157 
L 123.985457 70.953157 
L 123.985457 70.298011 
L 124.178158 70.298011 
L 124.178158 68.332573 
L 125.110962 68.332573 
L 125.110962 67.677427 
L 125.291682 67.677427 
L 125.291682 67.022281 
L 125.996395 67.022281 
L 125.996395 66.367135 
L 126.338353 66.367135 
L 126.338353 65.711988 
L 126.50685 65.711988 
L 126.50685 65.056842 
L 126.673734 65.056842 
L 126.673734 63.74655 
L 127.002787 63.74655 
L 127.002787 63.091404 
L 127.954256 63.091404 
L 127.954256 62.436258 
L 128.709321 62.436258 
L 128.709321 61.781112 
L 129.714332 61.781112 
L 129.714332 61.125966 
L 130.263646 61.125966 
L 130.263646 60.47082 
L 130.398313 60.47082 
L 130.398313 59.815674 
L 130.531948 59.815674 
L 130.531948 59.160527 
L 130.926816 59.160527 
L 130.926816 58.505381 
L 131.056477 58.505381 
L 131.056477 57.850235 
L 132.659801 57.850235 
L 132.659801 57.195089 
L 133.57787 57.195089 
L 133.57787 56.539943 
L 134.12805 56.539943 
L 134.12805 55.884797 
L 134.450015 55.884797 
L 134.450015 55.229651 
L 135.178927 55.229651 
L 135.178927 54.574505 
L 135.681535 54.574505 
L 135.681535 53.919359 
L 135.97629 53.919359 
L 136.073445 52.609066 
L 136.266147 52.609066 
L 136.361705 51.298774 
L 136.456742 51.298774 
L 136.456742 50.643628 
L 136.645276 50.643628 
L 136.645276 49.988482 
L 137.016339 49.988482 
L 137.016339 48.67819 
L 138.084384 48.67819 
L 138.084384 48.023044 
L 138.67848 48.023044 
L 138.67848 47.367898 
L 140.574203 47.367898 
L 140.574203 46.712752 
L 141.871938 46.712752 
L 141.871938 46.057605 
L 142.147664 46.057605 
L 142.147664 45.402459 
L 142.884173 45.402459 
L 142.884173 44.747313 
L 143.144465 44.747313 
L 143.144465 44.092167 
L 143.464461 44.092167 
L 143.464461 43.437021 
L 144.209312 43.437021 
L 144.209312 42.781875 
L 146.484754 42.781875 
L 146.484754 42.126729 
L 146.854132 42.126729 
L 146.854132 41.471583 
L 147.164632 41.471583 
L 147.164632 40.816437 
L 148.258051 40.816437 
L 148.258051 40.161291 
L 149.104327 40.161291 
L 149.104327 39.506144 
L 151.381313 39.506144 
L 151.381313 38.850998 
L 152.848312 38.850998 
L 152.848312 38.195852 
L 153.715038 38.195852 
L 153.715038 37.540706 
L 154.641235 37.540706 
L 154.641235 36.88556 
L 154.840544 36.88556 
L 154.840544 36.230414 
L 154.972161 36.230414 
L 154.972161 35.575268 
L 155.804285 35.575268 
L 155.804285 34.920122 
L 160.86807 34.920122 
L 160.86807 34.264976 
L 162.68677 34.264976 
L 162.68677 33.60983 
L 162.896128 33.60983 
L 162.896128 32.954683 
L 164.140886 32.954683 
L 164.140886 32.299537 
L 167.892273 32.299537 
L 167.892273 31.644391 
L 171.73366 31.644391 
L 171.73366 30.989245 
L 179.941152 30.989245 
L 179.941152 30.334099 
L 338.688 30.334099 
L 338.688 30.334099 
" style="fill:none;stroke:#6495ed;stroke-linecap:square;stroke-width:1.5;"/>
   </g>
   <g id="line2d_45">
    <defs>
     <path d="M -0 6 
L 6 -6 
L -6 -6 
z
" id="ma732dc1551" style="stroke:#6495ed;stroke-linejoin:miter;stroke-width:1.5;"/>
    </defs>
    <g>
     <use style="fill-opacity:0;stroke:#6495ed;stroke-linejoin:miter;stroke-width:1.5;" x="100.934985" xlink:href="#ma732dc1551" y="173.811095"/>
     <use style="fill-opacity:0;stroke:#6495ed;stroke-linejoin:miter;stroke-width:1.5;" x="134.450015" xlink:href="#ma732dc1551" y="55.884797"/>
     <use style="fill-opacity:0;stroke:#6495ed;stroke-linejoin:miter;stroke-width:1.5;" x="179.941152" xlink:href="#ma732dc1551" y="30.989245"/>
     <use style="fill-opacity:0;stroke:#6495ed;stroke-linejoin:miter;stroke-width:1.5;" x="179.941152" xlink:href="#ma732dc1551" y="30.334099"/>
     <use style="fill-opacity:0;stroke:#6495ed;stroke-linejoin:miter;stroke-width:1.5;" x="179.941152" xlink:href="#ma732dc1551" y="30.334099"/>
     <use style="fill-opacity:0;stroke:#6495ed;stroke-linejoin:miter;stroke-width:1.5;" x="338.688" xlink:href="#ma732dc1551" y="30.334099"/>
    </g>
   </g>
   <g id="line2d_46">
    <path style="fill:none;stroke:#6495ed;stroke-linecap:square;stroke-width:1.5;"/>
    <g/>
   </g>
   <g id="line2d_47">
    <path clip-path="url(#pf284202a7e)" d="M 106.48859 103.055316 
" style="fill:none;stroke:#6495ed;stroke-linecap:square;stroke-width:1.5;"/>
    <defs>
     <path d="M -12 12 
L 12 -12 
M -12 -12 
L 12 12 
" id="m5b54910f09" style="stroke:#6495ed;"/>
    </defs>
    <g clip-path="url(#pf284202a7e)">
     <use style="fill:#6495ed;stroke:#6495ed;" x="106.48859" xlink:href="#m5b54910f09" y="103.055316"/>
    </g>
   </g>
   <g id="line2d_48">
    <defs>
     <path d="M 0 1.5 
C 0.397805 1.5 0.77937 1.341951 1.06066 1.06066 
C 1.341951 0.77937 1.5 0.397805 1.5 0 
C 1.5 -0.397805 1.341951 -0.77937 1.06066 -1.06066 
C 0.77937 -1.341951 0.397805 -1.5 0 -1.5 
C -0.397805 -1.5 -0.77937 -1.341951 -1.06066 -1.06066 
C -1.341951 -0.77937 -1.5 -0.397805 -1.5 0 
C -1.5 0.397805 -1.341951 0.77937 -1.06066 1.06066 
C -0.77937 1.341951 -0.397805 1.5 0 1.5 
z
" id="ma38d95c1db" style="stroke:#ff0000;"/>
    </defs>
    <g>
     <use style="fill:#ff0000;stroke:#ff0000;" x="180.374256" xlink:href="#ma38d95c1db" y="154.811858"/>
     <use style="fill:#ff0000;stroke:#ff0000;" x="180.374256" xlink:href="#ma38d95c1db" y="154.811858"/>
    </g>
   </g>
   <g id="line2d_49">
    <path d="M 45.512012 298.944 
L 45.512012 291.737393 
L 81.775977 291.737393 
L 81.775977 289.771955 
L 97.755429 289.771955 
L 97.755429 280.599909 
L 106.48859 280.599909 
L 106.48859 279.289617 
L 111.897469 279.289617 
L 111.897469 276.013887 
L 113.022974 276.013887 
L 113.022974 275.35874 
L 114.080224 275.35874 
L 114.080224 273.393302 
L 114.418861 273.393302 
L 114.418861 269.462426 
L 116.914437 269.462426 
L 116.914437 268.807279 
L 118.039942 268.807279 
L 118.039942 265.531549 
L 119.602714 265.531549 
L 119.602714 263.566111 
L 120.33454 263.566111 
L 120.33454 262.910965 
L 121.036887 262.910965 
L 121.036887 261.600672 
L 121.264855 261.600672 
L 121.264855 260.945526 
L 121.931406 260.945526 
L 121.931406 260.29038 
L 122.573415 260.29038 
L 122.573415 258.980088 
L 123.192626 258.980088 
L 123.192626 258.324942 
L 123.790603 258.324942 
L 123.790603 257.01465 
L 124.368753 257.01465 
L 124.368753 256.359504 
L 125.110962 256.359504 
L 125.110962 255.704357 
L 125.470548 255.704357 
L 125.470548 255.049211 
L 125.996395 255.049211 
L 125.996395 254.394065 
L 126.168212 254.394065 
L 126.168212 251.773481 
L 127.165014 251.773481 
L 127.165014 250.463189 
L 128.107907 250.463189 
L 128.107907 249.152896 
L 128.260216 249.152896 
L 128.260216 248.49775 
L 128.411207 248.49775 
L 128.411207 247.842604 
L 128.560901 247.842604 
L 128.560901 247.187458 
L 129.991152 247.187458 
L 129.991152 245.22202 
L 130.127931 245.22202 
L 130.127931 243.256582 
L 130.796184 243.256582 
L 130.796184 242.601435 
L 130.926816 242.601435 
L 130.926816 241.291143 
L 131.185181 241.291143 
L 131.185181 239.980851 
L 131.690703 239.980851 
L 131.690703 238.670559 
L 132.181982 238.670559 
L 132.181982 238.015413 
L 132.422528 238.015413 
L 132.422528 236.705121 
L 133.46572 236.705121 
L 133.46572 236.049974 
L 134.12805 236.049974 
L 134.12805 235.394828 
L 134.450015 235.394828 
L 134.55603 234.084536 
L 135.076644 234.084536 
L 135.076644 233.42939 
L 135.582166 233.42939 
L 135.582166 232.774244 
L 135.780341 232.774244 
L 135.878591 231.463952 
L 136.073445 231.463952 
L 136.170062 230.15366 
L 136.924311 230.15366 
L 137.016339 228.843367 
L 137.558536 228.843367 
L 137.647286 227.533075 
L 138.170504 227.533075 
L 138.170504 226.877929 
L 138.927025 226.877929 
L 138.927025 226.222783 
L 139.172077 226.222783 
L 139.172077 225.567637 
L 139.572998 225.567637 
L 139.572998 224.912491 
L 139.730821 224.912491 
L 139.730821 224.257345 
L 139.887228 224.257345 
L 139.887228 223.602199 
L 140.64889 223.602199 
L 140.64889 222.947052 
L 141.378673 222.947052 
L 141.378673 222.291906 
L 141.521035 222.291906 
L 141.521035 221.63676 
L 141.662245 221.63676 
L 141.662245 220.981614 
L 141.941279 220.981614 
L 142.010346 219.671322 
L 142.419098 219.671322 
L 142.419098 219.016176 
L 142.553247 219.016176 
L 142.553247 218.36103 
L 142.884173 218.36103 
L 142.884173 217.705884 
L 143.653678 217.705884 
L 143.653678 217.050738 
L 144.026061 217.050738 
L 144.026061 216.395591 
L 144.510517 216.395591 
L 144.510517 215.740445 
L 144.629556 215.740445 
L 144.629556 215.085299 
L 144.923649 215.085299 
L 144.981877 213.775007 
L 145.097753 213.775007 
L 145.097753 213.119861 
L 145.609873 213.119861 
L 145.665858 211.809569 
L 145.721664 211.809569 
L 145.832743 209.84413 
L 146.270114 209.84413 
L 146.270114 209.188984 
L 146.644018 209.188984 
L 146.644018 208.533838 
L 146.854132 208.533838 
L 146.958248 207.223546 
L 147.368603 207.223546 
L 147.368603 206.5684 
L 147.52003 206.5684 
L 147.52003 205.913254 
L 147.670154 205.913254 
L 147.670154 205.258108 
L 147.96658 205.258108 
L 148.015498 203.947816 
L 148.592055 203.947816 
L 148.639252 202.637523 
L 148.733265 202.637523 
L 148.733265 201.982377 
L 149.195872 201.982377 
L 149.195872 201.327231 
L 149.332295 201.327231 
L 149.332295 200.672085 
L 149.646525 200.672085 
L 149.646525 200.016939 
L 149.823575 200.016939 
L 149.823575 199.361793 
L 150.172372 199.361793 
L 150.172372 198.706647 
L 151.056095 198.706647 
L 151.056095 198.051501 
L 151.461678 198.051501 
L 151.461678 197.396355 
L 151.897188 197.396355 
L 151.897188 196.086062 
L 152.052897 196.086062 
L 152.052897 195.430916 
L 152.624728 195.430916 
L 152.624728 194.77577 
L 153.323128 194.77577 
L 153.323128 194.120624 
L 153.644434 194.120624 
L 153.715038 192.155186 
L 154.167129 192.155186 
L 154.167129 191.50004 
L 154.93935 191.50004 
L 154.93935 190.844894 
L 155.393186 190.844894 
L 155.393186 190.189747 
L 155.83551 190.189747 
L 155.83551 189.534601 
L 156.021696 189.534601 
L 156.083319 188.224309 
L 156.175347 188.224309 
L 156.175347 187.569163 
L 156.538679 187.569163 
L 156.538679 186.914017 
L 157.243392 186.914017 
L 157.243392 186.258871 
L 157.528821 186.258871 
L 157.528821 185.603725 
L 157.725877 185.603725 
L 157.753847 184.293433 
L 158.140788 184.293433 
L 158.140788 183.638286 
L 158.705563 183.638286 
L 158.705563 182.98314 
L 159.354904 182.98314 
L 159.354904 182.327994 
L 159.557689 182.327994 
L 159.557689 181.672848 
L 159.683242 181.672848 
L 159.683242 181.017702 
L 160.079044 181.017702 
L 160.152267 179.70741 
L 160.297798 179.70741 
L 160.346039 177.741972 
L 160.466062 177.741972 
L 160.466062 177.086825 
L 160.774311 177.086825 
L 160.86807 175.776533 
L 161.238149 175.776533 
L 161.238149 175.121387 
L 161.734513 175.121387 
L 161.756743 173.811095 
L 161.933569 173.811095 
L 161.933569 173.155949 
L 162.152109 173.155949 
L 162.152109 172.500803 
L 162.410793 172.500803 
L 162.410793 171.845657 
L 162.896128 171.845657 
L 162.896128 171.190511 
L 163.082425 171.190511 
L 163.082425 170.535364 
L 163.266752 170.535364 
L 163.266752 169.880218 
L 163.52961 169.880218 
L 163.52961 168.569926 
L 163.748975 168.569926 
L 163.748975 167.91478 
L 164.806225 167.91478 
L 164.806225 167.259634 
L 165.302685 167.259634 
L 165.302685 166.604488 
L 165.820633 166.604488 
L 165.820633 165.949342 
L 166.391896 165.949342 
L 166.391896 165.294196 
L 166.561376 165.294196 
L 166.561376 164.63905 
L 167.141909 164.63905 
L 167.141909 163.983903 
L 167.892273 163.983903 
L 167.892273 163.328757 
L 168.01684 163.328757 
L 168.01684 162.673611 
L 168.155922 162.673611 
L 168.155922 162.018465 
L 168.790698 162.018465 
L 168.790698 161.363319 
L 169.388841 161.363319 
L 169.388841 160.708173 
L 170.58055 160.708173 
L 170.58055 160.053027 
L 173.519593 160.053027 
L 173.519593 159.397881 
L 174.942445 159.397881 
L 174.942445 158.742735 
L 175.262821 158.742735 
L 175.262821 158.087589 
L 175.577416 158.087589 
L 175.577416 157.432442 
L 177.308905 157.432442 
L 177.308905 156.777296 
L 177.660498 156.777296 
L 177.660498 156.12215 
L 178.170609 156.12215 
L 178.170609 155.467004 
L 180.374256 155.467004 
L 180.374256 154.811858 
L 338.688 154.811858 
L 338.688 154.811858 
" style="fill:none;stroke:#ff0000;stroke-linecap:square;stroke-width:1.5;"/>
   </g>
   <g id="line2d_50">
    <defs>
     <path d="M 0 -6 
L -5.196152 -3 
L -5.196152 3 
L -0 6 
L 5.196152 3 
L 5.196152 -3 
z
" id="m2cb05924ca" style="stroke:#ff0000;stroke-linejoin:miter;stroke-width:1.5;"/>
    </defs>
    <g>
     <use style="fill-opacity:0;stroke:#ff0000;stroke-linejoin:miter;stroke-width:1.5;" x="106.48859" xlink:href="#m2cb05924ca" y="279.289617"/>
     <use style="fill-opacity:0;stroke:#ff0000;stroke-linejoin:miter;stroke-width:1.5;" x="147.96658" xlink:href="#m2cb05924ca" y="204.602962"/>
     <use style="fill-opacity:0;stroke:#ff0000;stroke-linejoin:miter;stroke-width:1.5;" x="180.374256" xlink:href="#m2cb05924ca" y="155.467004"/>
     <use style="fill-opacity:0;stroke:#ff0000;stroke-linejoin:miter;stroke-width:1.5;" x="180.374256" xlink:href="#m2cb05924ca" y="154.811858"/>
     <use style="fill-opacity:0;stroke:#ff0000;stroke-linejoin:miter;stroke-width:1.5;" x="180.374256" xlink:href="#m2cb05924ca" y="154.811858"/>
     <use style="fill-opacity:0;stroke:#ff0000;stroke-linejoin:miter;stroke-width:1.5;" x="338.688" xlink:href="#m2cb05924ca" y="154.811858"/>
    </g>
   </g>
   <g id="line2d_51">
    <path style="fill:none;stroke:#ff0000;stroke-linecap:square;stroke-width:1.5;"/>
    <g/>
   </g>
   <g id="line2d_52">
    <path clip-path="url(#pf284202a7e)" d="M 108.948899 279.289617 
" style="fill:none;stroke:#ff0000;stroke-linecap:square;stroke-width:1.5;"/>
    <defs>
     <path d="M -12 12 
L 12 -12 
M -12 -12 
L 12 12 
" id="mcbb147bb93" style="stroke:#ff0000;"/>
    </defs>
    <g clip-path="url(#pf284202a7e)">
     <use style="fill:#ff0000;stroke:#ff0000;" x="108.948899" xlink:href="#mcbb147bb93" y="279.289617"/>
    </g>
   </g>
   <g id="line2d_53">
    <path d="M 338.688 154.811858 
L 369.60768 293.571802 
" style="fill:none;stroke:#ff0000;stroke-linecap:square;stroke-width:1.5;"/>
    <g>
     <use style="fill-opacity:0;stroke:#ff0000;stroke-linejoin:miter;stroke-width:1.5;" x="338.688" xlink:href="#m2cb05924ca" y="154.811858"/>
     <use style="fill-opacity:0;stroke:#ff0000;stroke-linejoin:miter;stroke-width:1.5;" x="369.60768" xlink:href="#m2cb05924ca" y="293.571802"/>
    </g>
   </g>
   <g id="line2d_54">
    <path d="M 338.688 30.334099 
L 369.60768 229.105426 
" style="fill:none;stroke:#000080;stroke-linecap:square;stroke-width:1.5;"/>
    <g>
     <use style="fill-opacity:0;stroke:#000080;stroke-width:1.5;" x="338.688" xlink:href="#m7263ca6534" y="30.334099"/>
     <use style="fill-opacity:0;stroke:#000080;stroke-width:1.5;" x="369.60768" xlink:href="#m7263ca6534" y="229.105426"/>
    </g>
   </g>
   <g id="line2d_55">
    <path d="M 338.688 30.334099 
L 369.60768 164.63905 
" style="fill:none;stroke:#6495ed;stroke-linecap:square;stroke-width:1.5;"/>
    <g>
     <use style="fill-opacity:0;stroke:#6495ed;stroke-linejoin:miter;stroke-width:1.5;" x="338.688" xlink:href="#ma732dc1551" y="30.334099"/>
     <use style="fill-opacity:0;stroke:#6495ed;stroke-linejoin:miter;stroke-width:1.5;" x="369.60768" xlink:href="#ma732dc1551" y="164.63905"/>
    </g>
   </g>
   <g id="line2d_56">
    <path d="M 338.688 30.334099 
L 369.60768 100.172673 
" style="fill:none;stroke:#ff7500;stroke-linecap:square;stroke-width:1.5;"/>
    <g>
     <use style="fill-opacity:0;stroke:#ff7500;stroke-linejoin:bevel;stroke-width:1.5;" x="338.688" xlink:href="#m9379b1b44d" y="30.334099"/>
     <use style="fill-opacity:0;stroke:#ff7500;stroke-linejoin:bevel;stroke-width:1.5;" x="369.60768" xlink:href="#m9379b1b44d" y="100.172673"/>
    </g>
   </g>
   <g id="line2d_57">
    <path d="M 338.688 30.334099 
L 369.60768 35.706297 
" style="fill:none;stroke:#ff00ff;stroke-linecap:square;stroke-width:1.5;"/>
    <g>
     <use style="fill-opacity:0;stroke:#ff00ff;stroke-linejoin:miter;stroke-width:1.5;" x="338.688" xlink:href="#m1402b1def4" y="30.334099"/>
     <use style="fill-opacity:0;stroke:#ff00ff;stroke-linejoin:miter;stroke-width:1.5;" x="369.60768" xlink:href="#m1402b1def4" y="35.706297"/>
    </g>
   </g>
   <g id="line2d_58">
    <path d="M 338.688 298.944 
L 338.688 30.334099 
" style="fill:none;stroke:#000000;stroke-linecap:square;stroke-width:1.5;"/>
   </g>
   <g id="patch_3">
    <path d="M 57.6 298.944 
L 57.6 27.648 
" style="fill:none;stroke:#000000;stroke-linecap:square;stroke-linejoin:miter;stroke-width:0.8;"/>
   </g>
   <g id="patch_4">
    <path d="M 338.688 298.944 
L 338.688 27.648 
" style="fill:none;stroke:#000000;stroke-linecap:square;stroke-linejoin:miter;stroke-width:0.8;"/>
   </g>
   <g id="patch_5">
    <path d="M 57.6 298.944 
L 338.688 298.944 
" style="fill:none;stroke:#000000;stroke-linecap:square;stroke-linejoin:miter;stroke-width:0.8;"/>
   </g>
   <g id="patch_6">
    <path d="M 57.6 27.648 
L 338.688 27.648 
" style="fill:none;stroke:#000000;stroke-linecap:square;stroke-linejoin:miter;stroke-width:0.8;"/>
   </g>
   <g id="text_13">
    <!-- trust-con -->
    <g transform="translate(375.22944 298.262739)scale(0.17 -0.17)">
     <use xlink:href="#DejaVuSans-116"/>
     <use x="39.208984" xlink:href="#DejaVuSans-114"/>
     <use x="80.322266" xlink:href="#DejaVuSans-117"/>
     <use x="143.701172" xlink:href="#DejaVuSans-115"/>
     <use x="195.800781" xlink:href="#DejaVuSans-116"/>
     <use x="235.009766" xlink:href="#DejaVuSans-45"/>
     <use x="271.09375" xlink:href="#DejaVuSans-99"/>
     <use x="326.074219" xlink:href="#DejaVuSans-111"/>
     <use x="387.255859" xlink:href="#DejaVuSans-110"/>
    </g>
   </g>
   <g id="text_14">
    <!-- alN1 -->
    <g transform="translate(375.22944 233.796363)scale(0.17 -0.17)">
     <defs>
      <path d="M 9.8125 72.90625 
L 23.09375 72.90625 
L 55.421875 11.921875 
L 55.421875 72.90625 
L 64.984375 72.90625 
L 64.984375 0 
L 51.703125 0 
L 19.390625 60.984375 
L 19.390625 0 
L 9.8125 0 
z
" id="DejaVuSans-78"/>
     </defs>
     <use xlink:href="#DejaVuSans-97"/>
     <use x="61.279297" xlink:href="#DejaVuSans-108"/>
     <use x="89.0625" xlink:href="#DejaVuSans-78"/>
     <use x="163.867188" xlink:href="#DejaVuSans-49"/>
    </g>
   </g>
   <g id="text_15">
    <!-- slsqp -->
    <g transform="translate(375.22944 169.329987)scale(0.17 -0.17)">
     <defs>
      <path d="M 14.796875 27.296875 
Q 14.796875 17.390625 18.875 11.75 
Q 22.953125 6.109375 30.078125 6.109375 
Q 37.203125 6.109375 41.296875 11.75 
Q 45.40625 17.390625 45.40625 27.296875 
Q 45.40625 37.203125 41.296875 42.84375 
Q 37.203125 48.484375 30.078125 48.484375 
Q 22.953125 48.484375 18.875 42.84375 
Q 14.796875 37.203125 14.796875 27.296875 
z
M 45.40625 8.203125 
Q 42.578125 3.328125 38.25 0.953125 
Q 33.9375 -1.421875 27.875 -1.421875 
Q 17.96875 -1.421875 11.734375 6.484375 
Q 5.515625 14.40625 5.515625 27.296875 
Q 5.515625 40.1875 11.734375 48.09375 
Q 17.96875 56 27.875 56 
Q 33.9375 56 38.25 53.625 
Q 42.578125 51.265625 45.40625 46.390625 
L 45.40625 54.6875 
L 54.390625 54.6875 
L 54.390625 -20.796875 
L 45.40625 -20.796875 
z
" id="DejaVuSans-113"/>
     </defs>
     <use xlink:href="#DejaVuSans-115"/>
     <use x="52.099609" xlink:href="#DejaVuSans-108"/>
     <use x="79.882812" xlink:href="#DejaVuSans-115"/>
     <use x="131.982422" xlink:href="#DejaVuSans-113"/>
     <use x="195.458984" xlink:href="#DejaVuSans-112"/>
    </g>
   </g>
   <g id="text_16">
    <!-- fmincon o -->
    <g transform="translate(375.22944 104.863611)scale(0.17 -0.17)">
     <use xlink:href="#DejaVuSans-102"/>
     <use x="35.205078" xlink:href="#DejaVuSans-109"/>
     <use x="132.617188" xlink:href="#DejaVuSans-105"/>
     <use x="160.400391" xlink:href="#DejaVuSans-110"/>
     <use x="223.779297" xlink:href="#DejaVuSans-99"/>
     <use x="278.759766" xlink:href="#DejaVuSans-111"/>
     <use x="339.941406" xlink:href="#DejaVuSans-110"/>
     <use x="403.320312" xlink:href="#DejaVuSans-32"/>
     <use x="435.107422" xlink:href="#DejaVuSans-111"/>
    </g>
   </g>
   <g id="text_17">
    <!-- cobyla -->
    <g transform="translate(375.22944 40.397235)scale(0.17 -0.17)">
     <defs>
      <path d="M 48.6875 27.296875 
Q 48.6875 37.203125 44.609375 42.84375 
Q 40.53125 48.484375 33.40625 48.484375 
Q 26.265625 48.484375 22.1875 42.84375 
Q 18.109375 37.203125 18.109375 27.296875 
Q 18.109375 17.390625 22.1875 11.75 
Q 26.265625 6.109375 33.40625 6.109375 
Q 40.53125 6.109375 44.609375 11.75 
Q 48.6875 17.390625 48.6875 27.296875 
z
M 18.109375 46.390625 
Q 20.953125 51.265625 25.265625 53.625 
Q 29.59375 56 35.59375 56 
Q 45.5625 56 51.78125 48.09375 
Q 58.015625 40.1875 58.015625 27.296875 
Q 58.015625 14.40625 51.78125 6.484375 
Q 45.5625 -1.421875 35.59375 -1.421875 
Q 29.59375 -1.421875 25.265625 0.953125 
Q 20.953125 3.328125 18.109375 8.203125 
L 18.109375 0 
L 9.078125 0 
L 9.078125 75.984375 
L 18.109375 75.984375 
z
" id="DejaVuSans-98"/>
      <path d="M 32.171875 -5.078125 
Q 28.375 -14.84375 24.75 -17.8125 
Q 21.140625 -20.796875 15.09375 -20.796875 
L 7.90625 -20.796875 
L 7.90625 -13.28125 
L 13.1875 -13.28125 
Q 16.890625 -13.28125 18.9375 -11.515625 
Q 21 -9.765625 23.484375 -3.21875 
L 25.09375 0.875 
L 2.984375 54.6875 
L 12.5 54.6875 
L 29.59375 11.921875 
L 46.6875 54.6875 
L 56.203125 54.6875 
z
" id="DejaVuSans-121"/>
     </defs>
     <use xlink:href="#DejaVuSans-99"/>
     <use x="54.980469" xlink:href="#DejaVuSans-111"/>
     <use x="116.162109" xlink:href="#DejaVuSans-98"/>
     <use x="179.638672" xlink:href="#DejaVuSans-121"/>
     <use x="238.818359" xlink:href="#DejaVuSans-108"/>
     <use x="266.601562" xlink:href="#DejaVuSans-97"/>
    </g>
   </g>
   <g id="text_18">
    <!-- bbob-constrained f41, 2-D -->
    <g transform="translate(60.41088 38.111366)scale(0.102 -0.102)">
     <defs>
      <path d="M 19.671875 64.796875 
L 19.671875 8.109375 
L 31.59375 8.109375 
Q 46.6875 8.109375 53.6875 14.9375 
Q 60.6875 21.78125 60.6875 36.53125 
Q 60.6875 51.171875 53.6875 57.984375 
Q 46.6875 64.796875 31.59375 64.796875 
z
M 9.8125 72.90625 
L 30.078125 72.90625 
Q 51.265625 72.90625 61.171875 64.09375 
Q 71.09375 55.28125 71.09375 36.53125 
Q 71.09375 17.671875 61.125 8.828125 
Q 51.171875 0 30.078125 0 
L 9.8125 0 
z
" id="DejaVuSans-68"/>
     </defs>
     <use xlink:href="#DejaVuSans-98"/>
     <use x="63.476562" xlink:href="#DejaVuSans-98"/>
     <use x="126.953125" xlink:href="#DejaVuSans-111"/>
     <use x="188.134766" xlink:href="#DejaVuSans-98"/>
     <use x="251.611328" xlink:href="#DejaVuSans-45"/>
     <use x="287.695312" xlink:href="#DejaVuSans-99"/>
     <use x="342.675781" xlink:href="#DejaVuSans-111"/>
     <use x="403.857422" xlink:href="#DejaVuSans-110"/>
     <use x="467.236328" xlink:href="#DejaVuSans-115"/>
     <use x="519.335938" xlink:href="#DejaVuSans-116"/>
     <use x="558.544922" xlink:href="#DejaVuSans-114"/>
     <use x="599.658203" xlink:href="#DejaVuSans-97"/>
     <use x="660.9375" xlink:href="#DejaVuSans-105"/>
     <use x="688.720703" xlink:href="#DejaVuSans-110"/>
     <use x="752.099609" xlink:href="#DejaVuSans-101"/>
     <use x="813.623047" xlink:href="#DejaVuSans-100"/>
     <use x="877.099609" xlink:href="#DejaVuSans-32"/>
     <use x="908.886719" xlink:href="#DejaVuSans-102"/>
     <use x="944.091797" xlink:href="#DejaVuSans-52"/>
     <use x="1007.714844" xlink:href="#DejaVuSans-49"/>
     <use x="1071.337891" xlink:href="#DejaVuSans-44"/>
     <use x="1103.125" xlink:href="#DejaVuSans-32"/>
     <use x="1134.912109" xlink:href="#DejaVuSans-50"/>
     <use x="1198.535156" xlink:href="#DejaVuSans-45"/>
     <use x="1234.619141" xlink:href="#DejaVuSans-68"/>
    </g>
    <!-- 41 targets: 100..1e-06 -->
    <g transform="translate(60.41088 49.533135)scale(0.102 -0.102)">
     <defs>
      <path d="M 11.71875 12.40625 
L 22.015625 12.40625 
L 22.015625 0 
L 11.71875 0 
z
M 11.71875 51.703125 
L 22.015625 51.703125 
L 22.015625 39.3125 
L 11.71875 39.3125 
z
" id="DejaVuSans-58"/>
     </defs>
     <use xlink:href="#DejaVuSans-52"/>
     <use x="63.623047" xlink:href="#DejaVuSans-49"/>
     <use x="127.246094" xlink:href="#DejaVuSans-32"/>
     <use x="159.033203" xlink:href="#DejaVuSans-116"/>
     <use x="198.242188" xlink:href="#DejaVuSans-97"/>
     <use x="259.521484" xlink:href="#DejaVuSans-114"/>
     <use x="298.884766" xlink:href="#DejaVuSans-103"/>
     <use x="362.361328" xlink:href="#DejaVuSans-101"/>
     <use x="423.884766" xlink:href="#DejaVuSans-116"/>
     <use x="463.09375" xlink:href="#DejaVuSans-115"/>
     <use x="515.193359" xlink:href="#DejaVuSans-58"/>
     <use x="548.884766" xlink:href="#DejaVuSans-32"/>
     <use x="580.671875" xlink:href="#DejaVuSans-49"/>
     <use x="644.294922" xlink:href="#DejaVuSans-48"/>
     <use x="707.917969" xlink:href="#DejaVuSans-48"/>
     <use x="771.541016" xlink:href="#DejaVuSans-46"/>
     <use x="803.328125" xlink:href="#DejaVuSans-46"/>
     <use x="835.115234" xlink:href="#DejaVuSans-49"/>
     <use x="898.738281" xlink:href="#DejaVuSans-101"/>
     <use x="960.261719" xlink:href="#DejaVuSans-45"/>
     <use x="996.345703" xlink:href="#DejaVuSans-48"/>
     <use x="1059.96875" xlink:href="#DejaVuSans-54"/>
    </g>
    <!-- 30, 15 instances -->
    <g transform="translate(60.41088 60.954904)scale(0.102 -0.102)">
     <defs>
      <path d="M 40.578125 39.3125 
Q 47.65625 37.796875 51.625 33 
Q 55.609375 28.21875 55.609375 21.1875 
Q 55.609375 10.40625 48.1875 4.484375 
Q 40.765625 -1.421875 27.09375 -1.421875 
Q 22.515625 -1.421875 17.65625 -0.515625 
Q 12.796875 0.390625 7.625 2.203125 
L 7.625 11.71875 
Q 11.71875 9.328125 16.59375 8.109375 
Q 21.484375 6.890625 26.8125 6.890625 
Q 36.078125 6.890625 40.9375 10.546875 
Q 45.796875 14.203125 45.796875 21.1875 
Q 45.796875 27.640625 41.28125 31.265625 
Q 36.765625 34.90625 28.71875 34.90625 
L 20.21875 34.90625 
L 20.21875 43.015625 
L 29.109375 43.015625 
Q 36.375 43.015625 40.234375 45.921875 
Q 44.09375 48.828125 44.09375 54.296875 
Q 44.09375 59.90625 40.109375 62.90625 
Q 36.140625 65.921875 28.71875 65.921875 
Q 24.65625 65.921875 20.015625 65.03125 
Q 15.375 64.15625 9.8125 62.3125 
L 9.8125 71.09375 
Q 15.4375 72.65625 20.34375 73.4375 
Q 25.25 74.21875 29.59375 74.21875 
Q 40.828125 74.21875 47.359375 69.109375 
Q 53.90625 64.015625 53.90625 55.328125 
Q 53.90625 49.265625 50.4375 45.09375 
Q 46.96875 40.921875 40.578125 39.3125 
z
" id="DejaVuSans-51"/>
      <path d="M 10.796875 72.90625 
L 49.515625 72.90625 
L 49.515625 64.59375 
L 19.828125 64.59375 
L 19.828125 46.734375 
Q 21.96875 47.46875 24.109375 47.828125 
Q 26.265625 48.1875 28.421875 48.1875 
Q 40.625 48.1875 47.75 41.5 
Q 54.890625 34.8125 54.890625 23.390625 
Q 54.890625 11.625 47.5625 5.09375 
Q 40.234375 -1.421875 26.90625 -1.421875 
Q 22.3125 -1.421875 17.546875 -0.640625 
Q 12.796875 0.140625 7.71875 1.703125 
L 7.71875 11.625 
Q 12.109375 9.234375 16.796875 8.0625 
Q 21.484375 6.890625 26.703125 6.890625 
Q 35.15625 6.890625 40.078125 11.328125 
Q 45.015625 15.765625 45.015625 23.390625 
Q 45.015625 31 40.078125 35.4375 
Q 35.15625 39.890625 26.703125 39.890625 
Q 22.75 39.890625 18.8125 39.015625 
Q 14.890625 38.140625 10.796875 36.28125 
z
" id="DejaVuSans-53"/>
     </defs>
     <use xlink:href="#DejaVuSans-51"/>
     <use x="63.623047" xlink:href="#DejaVuSans-48"/>
     <use x="127.246094" xlink:href="#DejaVuSans-44"/>
     <use x="159.033203" xlink:href="#DejaVuSans-32"/>
     <use x="190.820312" xlink:href="#DejaVuSans-49"/>
     <use x="254.443359" xlink:href="#DejaVuSans-53"/>
     <use x="318.066406" xlink:href="#DejaVuSans-32"/>
     <use x="349.853516" xlink:href="#DejaVuSans-105"/>
     <use x="377.636719" xlink:href="#DejaVuSans-110"/>
     <use x="441.015625" xlink:href="#DejaVuSans-115"/>
     <use x="493.115234" xlink:href="#DejaVuSans-116"/>
     <use x="532.324219" xlink:href="#DejaVuSans-97"/>
     <use x="593.603516" xlink:href="#DejaVuSans-110"/>
     <use x="656.982422" xlink:href="#DejaVuSans-99"/>
     <use x="711.962891" xlink:href="#DejaVuSans-101"/>
     <use x="773.486328" xlink:href="#DejaVuSans-115"/>
    </g>
   </g>
   <g id="text_19">
    <!-- v5z33 -->
    <g style="fill:#808080;" transform="translate(183.016656 294.151352)scale(0.1 -0.1)">
     <defs>
      <path d="M 5.515625 54.6875 
L 48.1875 54.6875 
L 48.1875 46.484375 
L 14.40625 7.171875 
L 48.1875 7.171875 
L 48.1875 0 
L 4.296875 0 
L 4.296875 8.203125 
L 38.09375 47.515625 
L 5.515625 47.515625 
z
" id="DejaVuSans-122"/>
     </defs>
     <use xlink:href="#DejaVuSans-118"/>
     <use x="59.179688" xlink:href="#DejaVuSans-53"/>
     <use x="122.802734" xlink:href="#DejaVuSans-122"/>
     <use x="175.292969" xlink:href="#DejaVuSans-51"/>
     <use x="238.916016" xlink:href="#DejaVuSans-51"/>
    </g>
   </g>
   <g id="text_20">
    <!-- 41 Different Powers, n+6 constraints -->
    <g transform="translate(13.473687 21.648)scale(0.2 -0.2)">
     <defs>
      <path d="M 19.671875 64.796875 
L 19.671875 37.40625 
L 32.078125 37.40625 
Q 38.96875 37.40625 42.71875 40.96875 
Q 46.484375 44.53125 46.484375 51.125 
Q 46.484375 57.671875 42.71875 61.234375 
Q 38.96875 64.796875 32.078125 64.796875 
z
M 9.8125 72.90625 
L 32.078125 72.90625 
Q 44.34375 72.90625 50.609375 67.359375 
Q 56.890625 61.8125 56.890625 51.125 
Q 56.890625 40.328125 50.609375 34.8125 
Q 44.34375 29.296875 32.078125 29.296875 
L 19.671875 29.296875 
L 19.671875 0 
L 9.8125 0 
z
" id="DejaVuSans-80"/>
      <path d="M 4.203125 54.6875 
L 13.1875 54.6875 
L 24.421875 12.015625 
L 35.59375 54.6875 
L 46.1875 54.6875 
L 57.421875 12.015625 
L 68.609375 54.6875 
L 77.59375 54.6875 
L 63.28125 0 
L 52.6875 0 
L 40.921875 44.828125 
L 29.109375 0 
L 18.5 0 
z
" id="DejaVuSans-119"/>
     </defs>
     <use xlink:href="#DejaVuSans-52"/>
     <use x="63.623047" xlink:href="#DejaVuSans-49"/>
     <use x="127.246094" xlink:href="#DejaVuSans-32"/>
     <use x="159.033203" xlink:href="#DejaVuSans-68"/>
     <use x="236.035156" xlink:href="#DejaVuSans-105"/>
     <use x="263.818359" xlink:href="#DejaVuSans-102"/>
     <use x="299.023438" xlink:href="#DejaVuSans-102"/>
     <use x="334.228516" xlink:href="#DejaVuSans-101"/>
     <use x="395.751953" xlink:href="#DejaVuSans-114"/>
     <use x="434.615234" xlink:href="#DejaVuSans-101"/>
     <use x="496.138672" xlink:href="#DejaVuSans-110"/>
     <use x="559.517578" xlink:href="#DejaVuSans-116"/>
     <use x="598.726562" xlink:href="#DejaVuSans-32"/>
     <use x="630.513672" xlink:href="#DejaVuSans-80"/>
     <use x="687.191406" xlink:href="#DejaVuSans-111"/>
     <use x="748.373047" xlink:href="#DejaVuSans-119"/>
     <use x="830.160156" xlink:href="#DejaVuSans-101"/>
     <use x="891.683594" xlink:href="#DejaVuSans-114"/>
     <use x="932.796875" xlink:href="#DejaVuSans-115"/>
     <use x="984.896484" xlink:href="#DejaVuSans-44"/>
     <use x="1016.683594" xlink:href="#DejaVuSans-32"/>
     <use x="1048.470703" xlink:href="#DejaVuSans-110"/>
     <use x="1111.849609" xlink:href="#DejaVuSans-43"/>
     <use x="1195.638672" xlink:href="#DejaVuSans-54"/>
     <use x="1259.261719" xlink:href="#DejaVuSans-32"/>
     <use x="1291.048828" xlink:href="#DejaVuSans-99"/>
     <use x="1346.029297" xlink:href="#DejaVuSans-111"/>
     <use x="1407.210938" xlink:href="#DejaVuSans-110"/>
     <use x="1470.589844" xlink:href="#DejaVuSans-115"/>
     <use x="1522.689453" xlink:href="#DejaVuSans-116"/>
     <use x="1561.898438" xlink:href="#DejaVuSans-114"/>
     <use x="1603.011719" xlink:href="#DejaVuSans-97"/>
     <use x="1664.291016" xlink:href="#DejaVuSans-105"/>
     <use x="1692.074219" xlink:href="#DejaVuSans-110"/>
     <use x="1755.453125" xlink:href="#DejaVuSans-116"/>
     <use x="1794.662109" xlink:href="#DejaVuSans-115"/>
    </g>
   </g>
  </g>
 </g>
 <defs>
  <clipPath id="pf284202a7e">
   <rect height="271.296" width="281.088" x="57.6" y="27.648"/>
  </clipPath>
 </defs>
</svg>
